<?xml version="1.0" encoding="UTF-8" standalone="no"?>
<!DOCTYPE svg PUBLIC "-//W3C//DTD SVG 1.1//EN"
 "http://www.w3.org/Graphics/SVG/1.1/DTD/svg11.dtd">
<!-- Generated by graphviz version 2.40.1 (20161225.0304)
 -->
<!-- Title: src/math/barycenter.hpp Pages: 1 -->
<!--zoomable 498 -->
<svg id="main" version="1.1" xmlns="http://www.w3.org/2000/svg" xmlns:xlink="http://www.w3.org/1999/xlink" xml:space="preserve" onload="init(evt)">
<style type="text/css"><![CDATA[
.edge:hover path { stroke: red; }
.edge:hover polygon { stroke: red; fill: red; }
]]></style>
<script type="text/javascript"><![CDATA[
var edges = document.getElementsByTagName('g');
if (edges && edges.length) {
  for (var i=0;i<edges.length;i++) {
    if (edges[i].id.substr(0,4)=='edge') {
      edges[i].setAttribute('class','edge');
    }
  }
}
]]></script>
        <defs>
                <circle id="rim" cx="0" cy="0" r="7"/>
                <circle id="rim2" cx="0" cy="0" r="3.5"/>
                <g id="zoomPlus">
                        <use xlink:href="#rim" fill="#404040">
                                <set attributeName="fill" to="#808080" begin="zoomplus.mouseover" end="zoomplus.mouseout"/>
                        </use>
                        <path d="M-4,0h8M0,-4v8" fill="none" stroke="white" stroke-width="1.5" pointer-events="none"/>
                </g>
                <g id="zoomMin">
                        <use xlink:href="#rim" fill="#404040">
                                <set attributeName="fill" to="#808080" begin="zoomminus.mouseover" end="zoomminus.mouseout"/>
                        </use>
                        <path d="M-4,0h8" fill="none" stroke="white" stroke-width="1.5" pointer-events="none"/>
                </g>
                <g id="dirArrow">
                        <path fill="none" stroke="white" stroke-width="1.5" d="M0,-3.0v7 M-2.5,-0.5L0,-3.0L2.5,-0.5"/>
                </g>
               <g id="resetDef">
                       <use xlink:href="#rim2" fill="#404040">
                               <set attributeName="fill" to="#808080" begin="reset.mouseover" end="reset.mouseout"/>
                       </use>
               </g>
        </defs>

<script type="text/javascript">
var viewWidth = 1600;
var viewHeight = 498;
var sectionId = 'dynsection-0';
</script>
<script xlink:href="svgpan.js"/>
<svg id="graph" class="graph">
<g id="viewport">
<title>src/math/barycenter.hpp</title>
<polygon fill="#ffffff" stroke="transparent" points="-4,4 -4,-494 1595.5,-494 1595.5,4 -4,4"/>
<!-- Node0 -->
<g id="node1" class="node">
<title>Node0</title>
<polygon fill="#bfbfbf" stroke="#000000" points="358.5,-470.5 358.5,-489.5 493.5,-489.5 493.5,-470.5 358.5,-470.5"/>
<text text-anchor="middle" x="426" y="-477.5" font-family="Helvetica,sans-Serif" font-size="10.00" fill="#000000">src/math/barycenter.hpp</text>
</g>
<!-- Node1 -->
<g id="node2" class="node">
<title>Node1</title>
<polygon fill="#ffffff" stroke="#bfbfbf" points="314.5,-302.5 314.5,-321.5 383.5,-321.5 383.5,-302.5 314.5,-302.5"/>
<text text-anchor="middle" x="349" y="-309.5" font-family="Helvetica,sans-Serif" font-size="10.00" fill="#000000">Eigen/Core</text>
</g>
<!-- Node0&#45;&gt;Node1 -->
<g id="edge1" class="edge">
<title>Node0&#45;&gt;Node1</title>
<path fill="none" stroke="#191970" d="M440.9965,-470.3308C452.1598,-462.1671 466.5381,-449.3661 473,-434 476.4457,-425.8061 475.5583,-422.5128 473,-414 464.4145,-385.4314 458.0964,-378.0406 436,-358 420.9774,-344.375 401.181,-333.4953 384.2678,-325.7444"/>
<polygon fill="#191970" stroke="#191970" points="385.2641,-322.3594 374.7006,-321.5452 382.4507,-328.7692 385.2641,-322.3594"/>
</g>
<!-- Node2 -->
<g id="node3" class="node">
<title>Node2</title>
<polygon fill="#ffffff" stroke="#bfbfbf" points="387.5,-414.5 387.5,-433.5 464.5,-433.5 464.5,-414.5 387.5,-414.5"/>
<text text-anchor="middle" x="426" y="-421.5" font-family="Helvetica,sans-Serif" font-size="10.00" fill="#000000">Eigen/Dense</text>
</g>
<!-- Node0&#45;&gt;Node2 -->
<g id="edge2" class="edge">
<title>Node0&#45;&gt;Node2</title>
<path fill="none" stroke="#191970" d="M426,-470.2455C426,-462.9382 426,-452.6944 426,-443.7046"/>
<polygon fill="#191970" stroke="#191970" points="429.5001,-443.6426 426,-433.6427 422.5001,-443.6427 429.5001,-443.6426"/>
</g>
<!-- Node3 -->
<g id="node4" class="node">
<title>Node3</title>
<g id="a_node4"><a xlink:href="geometry_8hpp.html" target="_top" xlink:title="math/geometry.hpp">
<polygon fill="#ffffff" stroke="#000000" points="257,-414.5 257,-433.5 369,-433.5 369,-414.5 257,-414.5"/>
<text text-anchor="middle" x="313" y="-421.5" font-family="Helvetica,sans-Serif" font-size="10.00" fill="#000000">math/geometry.hpp</text>
</a>
</g>
</g>
<!-- Node0&#45;&gt;Node3 -->
<g id="edge3" class="edge">
<title>Node0&#45;&gt;Node3</title>
<path fill="none" stroke="#191970" d="M406.5746,-470.3733C388.5979,-461.4644 361.6559,-448.1127 341.291,-438.0203"/>
<polygon fill="#191970" stroke="#191970" points="342.6861,-434.8055 332.1719,-433.5011 339.5778,-441.0776 342.6861,-434.8055"/>
</g>
<!-- Node3&#45;&gt;Node1 -->
<g id="edge4" class="edge">
<title>Node3&#45;&gt;Node1</title>
<path fill="none" stroke="#191970" d="M286.2741,-414.3485C258.7286,-402.8333 221.9097,-382.0853 238,-358 252.7527,-335.917 280.2846,-324.4216 304.2365,-318.4446"/>
<polygon fill="#191970" stroke="#191970" points="305.241,-321.8065 314.2348,-316.2062 303.7116,-314.9756 305.241,-321.8065"/>
</g>
<!-- Node4 -->
<g id="node5" class="node">
<title>Node4</title>
<polygon fill="#ffffff" stroke="#bfbfbf" points="247,-358.5 247,-377.5 289,-377.5 289,-358.5 247,-358.5"/>
<text text-anchor="middle" x="268" y="-365.5" font-family="Helvetica,sans-Serif" font-size="10.00" fill="#000000">array</text>
</g>
<!-- Node3&#45;&gt;Node4 -->
<g id="edge5" class="edge">
<title>Node3&#45;&gt;Node4</title>
<path fill="none" stroke="#191970" d="M305.1616,-414.2455C298.838,-406.3761 289.7776,-395.101 282.1864,-385.6542"/>
<polygon fill="#191970" stroke="#191970" points="284.7408,-383.2454 275.7486,-377.6427 279.2842,-387.6302 284.7408,-383.2454"/>
</g>
<!-- Node5 -->
<g id="node6" class="node">
<title>Node5</title>
<g id="a_node6"><a xlink:href="differences_8hpp.html" target="_top" xlink:title="math/differences.hpp">
<polygon fill="#ffffff" stroke="#000000" points="307,-358.5 307,-377.5 427,-377.5 427,-358.5 307,-358.5"/>
<text text-anchor="middle" x="367" y="-365.5" font-family="Helvetica,sans-Serif" font-size="10.00" fill="#000000">math/differences.hpp</text>
</a>
</g>
</g>
<!-- Node3&#45;&gt;Node5 -->
<g id="edge6" class="edge">
<title>Node3&#45;&gt;Node5</title>
<path fill="none" stroke="#191970" d="M322.4061,-414.2455C330.1493,-406.2155 341.312,-394.6394 350.5318,-385.0781"/>
<polygon fill="#191970" stroke="#191970" points="353.2798,-387.2706 357.7017,-377.6427 348.2409,-382.4117 353.2798,-387.2706"/>
</g>
<!-- Node6 -->
<g id="node7" class="node">
<title>Node6</title>
<g id="a_node7"><a xlink:href="assertion_8hpp.html" target="_top" xlink:title="utils/assertion.hpp">
<polygon fill="#ffffff" stroke="#000000" points="401.5,-302.5 401.5,-321.5 508.5,-321.5 508.5,-302.5 401.5,-302.5"/>
<text text-anchor="middle" x="455" y="-309.5" font-family="Helvetica,sans-Serif" font-size="10.00" fill="#000000">utils/assertion.hpp</text>
</a>
</g>
</g>
<!-- Node3&#45;&gt;Node6 -->
<g id="edge43" class="edge">
<title>Node3&#45;&gt;Node6</title>
<path fill="none" stroke="#191970" d="M369.1962,-414.5887C392.7177,-407.9891 418.5808,-396.8259 436,-378 447.5017,-365.5695 452.0894,-346.6164 453.8945,-332.2046"/>
<polygon fill="#191970" stroke="#191970" points="457.4175,-332.1043 454.8247,-321.8316 450.4455,-331.479 457.4175,-332.1043"/>
</g>
<!-- Node5&#45;&gt;Node1 -->
<g id="edge7" class="edge">
<title>Node5&#45;&gt;Node1</title>
<path fill="none" stroke="#191970" d="M363.8646,-358.2455C361.49,-350.8579 358.1507,-340.4689 355.2385,-331.4087"/>
<polygon fill="#191970" stroke="#191970" points="358.4917,-330.0919 352.0994,-321.6427 351.8275,-332.234 358.4917,-330.0919"/>
</g>
<!-- Node5&#45;&gt;Node6 -->
<g id="edge8" class="edge">
<title>Node5&#45;&gt;Node6</title>
<path fill="none" stroke="#191970" d="M382.3284,-358.2455C395.8303,-349.6534 415.7122,-337.0014 431.2686,-327.1018"/>
<polygon fill="#191970" stroke="#191970" points="433.2897,-329.9643 439.8472,-321.6427 429.5315,-324.0587 433.2897,-329.9643"/>
</g>
<!-- Node7 -->
<g id="node8" class="node">
<title>Node7</title>
<polygon fill="#ffffff" stroke="#bfbfbf" points="0,-241 0,-260 52,-260 52,-241 0,-241"/>
<text text-anchor="middle" x="26" y="-248" font-family="Helvetica,sans-Serif" font-size="10.00" fill="#000000">cassert</text>
</g>
<!-- Node6&#45;&gt;Node7 -->
<g id="edge9" class="edge">
<title>Node6&#45;&gt;Node7</title>
<path fill="none" stroke="#191970" d="M401.41,-303.3103C398.2283,-302.8514 395.0735,-302.4108 392,-302 245.3258,-282.395 203.905,-304.4165 61,-266 58.8099,-265.4113 56.5818,-264.7041 54.3648,-263.9204"/>
<polygon fill="#191970" stroke="#191970" points="55.4523,-260.586 44.8674,-260.1261 52.8552,-267.0864 55.4523,-260.586"/>
</g>
<!-- Node8 -->
<g id="node9" class="node">
<title>Node8</title>
<polygon fill="#ffffff" stroke="#bfbfbf" points="70,-241 70,-260 130,-260 130,-241 70,-241"/>
<text text-anchor="middle" x="100" y="-248" font-family="Helvetica,sans-Serif" font-size="10.00" fill="#000000">iostream</text>
</g>
<!-- Node6&#45;&gt;Node8 -->
<g id="edge10" class="edge">
<title>Node6&#45;&gt;Node8</title>
<path fill="none" stroke="#191970" d="M401.3913,-303.4411C398.2144,-302.9493 395.0657,-302.4658 392,-302 281.8863,-285.2694 252.1473,-292.629 144,-266 140.7757,-265.2061 137.4556,-264.2689 134.1531,-263.2547"/>
<polygon fill="#191970" stroke="#191970" points="135.0046,-259.8503 124.4116,-260.0473 132.8154,-266.4992 135.0046,-259.8503"/>
</g>
<!-- Node9 -->
<g id="node10" class="node">
<title>Node9</title>
<polygon fill="#ffffff" stroke="#bfbfbf" points="427,-.5 427,-19.5 483,-19.5 483,-.5 427,-.5"/>
<text text-anchor="middle" x="455" y="-7.5" font-family="Helvetica,sans-Serif" font-size="10.00" fill="#000000">sstream</text>
</g>
<!-- Node6&#45;&gt;Node9 -->
<g id="edge11" class="edge">
<title>Node6&#45;&gt;Node9</title>
<path fill="none" stroke="#191970" d="M401.3156,-303.3041C320.8072,-290.2375 178.0311,-266.9537 177,-266 151.1233,-242.0654 158,-224.2487 158,-189 158,-189 158,-189 158,-133 158,-97.7513 151.1233,-79.9346 177,-56 211.1747,-24.3902 348.1841,-14.3561 416.2392,-11.288"/>
<polygon fill="#191970" stroke="#191970" points="416.6997,-14.7718 426.5432,-10.8532 416.4045,-7.778 416.6997,-14.7718"/>
</g>
<!-- Node10 -->
<g id="node11" class="node">
<title>Node10</title>
<polygon fill="#ffffff" stroke="#bfbfbf" points="186.5,-241 186.5,-260 333.5,-260 333.5,-241 186.5,-241"/>
<text text-anchor="middle" x="260" y="-248" font-family="Helvetica,sans-Serif" font-size="10.00" fill="#000000">boost/current_function.hpp</text>
</g>
<!-- Node6&#45;&gt;Node10 -->
<g id="edge12" class="edge">
<title>Node6&#45;&gt;Node10</title>
<path fill="none" stroke="#191970" d="M424.5313,-302.3906C391.0456,-291.8298 337.1147,-274.8208 300.188,-263.1747"/>
<polygon fill="#191970" stroke="#191970" points="300.8445,-259.7118 290.2548,-260.0419 298.739,-266.3877 300.8445,-259.7118"/>
</g>
<!-- Node11 -->
<g id="node12" class="node">
<title>Node11</title>
<polygon fill="#ffffff" stroke="#bfbfbf" points="186,-56.5 186,-86.5 296,-86.5 296,-56.5 186,-56.5"/>
<text text-anchor="start" x="194" y="-74.5" font-family="Helvetica,sans-Serif" font-size="10.00" fill="#000000">boost/preprocessor</text>
<text text-anchor="middle" x="241" y="-63.5" font-family="Helvetica,sans-Serif" font-size="10.00" fill="#000000">/control/if.hpp</text>
</g>
<!-- Node6&#45;&gt;Node11 -->
<g id="edge13" class="edge">
<title>Node6&#45;&gt;Node11</title>
<path fill="none" stroke="#191970" d="M435.0141,-302.3408C419.2352,-294.0963 397.2471,-281.1825 381,-266 324.6726,-213.3636 276.5392,-135.025 254.2484,-95.7681"/>
<polygon fill="#191970" stroke="#191970" points="257.091,-93.6812 249.1488,-86.6691 250.9847,-97.1036 257.091,-93.6812"/>
</g>
<!-- Node12 -->
<g id="node13" class="node">
<title>Node12</title>
<polygon fill="#ffffff" stroke="#bfbfbf" points="390.5,-235.5 390.5,-265.5 519.5,-265.5 519.5,-235.5 390.5,-235.5"/>
<text text-anchor="start" x="398.5" y="-253.5" font-family="Helvetica,sans-Serif" font-size="10.00" fill="#000000">boost/preprocessor</text>
<text text-anchor="middle" x="455" y="-242.5" font-family="Helvetica,sans-Serif" font-size="10.00" fill="#000000">/facilities/is_empty.hpp</text>
</g>
<!-- Node6&#45;&gt;Node12 -->
<g id="edge14" class="edge">
<title>Node6&#45;&gt;Node12</title>
<path fill="none" stroke="#191970" d="M455,-302.3906C455,-295.2234 455,-285.0862 455,-275.671"/>
<polygon fill="#191970" stroke="#191970" points="458.5001,-275.5446 455,-265.5446 451.5001,-275.5446 458.5001,-275.5446"/>
</g>
<!-- Node13 -->
<g id="node14" class="node">
<title>Node13</title>
<polygon fill="#ffffff" stroke="#bfbfbf" points="314.5,-56.5 314.5,-86.5 425.5,-86.5 425.5,-56.5 314.5,-56.5"/>
<text text-anchor="start" x="322.5" y="-74.5" font-family="Helvetica,sans-Serif" font-size="10.00" fill="#000000">boost/preprocessor</text>
<text text-anchor="middle" x="370" y="-63.5" font-family="Helvetica,sans-Serif" font-size="10.00" fill="#000000">/seq/for_each_i.hpp</text>
</g>
<!-- Node6&#45;&gt;Node13 -->
<g id="edge15" class="edge">
<title>Node6&#45;&gt;Node13</title>
<path fill="none" stroke="#191970" d="M482.6959,-302.4275C499.0463,-295.1781 518.3739,-283.4435 528,-266 534.6568,-253.9371 533.1635,-247.7736 528,-235 502.5564,-172.0565 439.9839,-119.8897 401.6567,-92.4301"/>
<polygon fill="#191970" stroke="#191970" points="403.5973,-89.5161 393.4032,-86.6298 399.5724,-95.2433 403.5973,-89.5161"/>
</g>
<!-- Node14 -->
<g id="node15" class="node">
<title>Node14</title>
<polygon fill="#ffffff" stroke="#bfbfbf" points="444,-56.5 444,-86.5 554,-86.5 554,-56.5 444,-56.5"/>
<text text-anchor="start" x="452" y="-74.5" font-family="Helvetica,sans-Serif" font-size="10.00" fill="#000000">boost/preprocessor</text>
<text text-anchor="middle" x="499" y="-63.5" font-family="Helvetica,sans-Serif" font-size="10.00" fill="#000000">/stringize.hpp</text>
</g>
<!-- Node6&#45;&gt;Node14 -->
<g id="edge16" class="edge">
<title>Node6&#45;&gt;Node14</title>
<path fill="none" stroke="#191970" d="M507.2142,-302.4856C527.8991,-295.8822 549.6551,-284.7446 562,-266 596.9568,-212.9215 589.2288,-180.4273 562,-123 556.2692,-110.9134 546.159,-100.7223 535.6929,-92.678"/>
<polygon fill="#191970" stroke="#191970" points="537.4737,-89.6491 527.3,-86.6917 533.4089,-95.348 537.4737,-89.6491"/>
</g>
<!-- Node15 -->
<g id="node16" class="node">
<title>Node15</title>
<polygon fill="#ffffff" stroke="#bfbfbf" points="572.5,-56.5 572.5,-86.5 687.5,-86.5 687.5,-56.5 572.5,-56.5"/>
<text text-anchor="start" x="580.5" y="-74.5" font-family="Helvetica,sans-Serif" font-size="10.00" fill="#000000">boost/preprocessor</text>
<text text-anchor="middle" x="630" y="-63.5" font-family="Helvetica,sans-Serif" font-size="10.00" fill="#000000">/variadic/to_seq.hpp</text>
</g>
<!-- Node6&#45;&gt;Node15 -->
<g id="edge17" class="edge">
<title>Node6&#45;&gt;Node15</title>
<path fill="none" stroke="#191970" d="M508.5744,-305.2893C535.1068,-299.2519 565.5434,-287.7837 585,-266 627.8271,-218.0507 632.2165,-137.4714 631.3858,-96.7228"/>
<polygon fill="#191970" stroke="#191970" points="634.8789,-96.4543 631.0512,-86.575 627.8827,-96.685 634.8789,-96.4543"/>
</g>
<!-- Node16 -->
<g id="node17" class="node">
<title>Node16</title>
<g id="a_node17"><a xlink:href="Parallel_8hpp.html" target="_top" xlink:title="Parallel.hpp">
<polygon fill="#ffffff" stroke="#000000" points="830,-241 830,-260 904,-260 904,-241 830,-241"/>
<text text-anchor="middle" x="867" y="-248" font-family="Helvetica,sans-Serif" font-size="10.00" fill="#000000">Parallel.hpp</text>
</a>
</g>
</g>
<!-- Node6&#45;&gt;Node16 -->
<g id="edge18" class="edge">
<title>Node6&#45;&gt;Node16</title>
<path fill="none" stroke="#191970" d="M508.8618,-303.9599C590.1691,-291.8231 742.9199,-269.0217 819.9867,-257.5178"/>
<polygon fill="#191970" stroke="#191970" points="820.5225,-260.9767 829.8962,-256.0386 819.489,-254.0534 820.5225,-260.9767"/>
</g>
<!-- Node29 -->
<g id="node30" class="node">
<title>Node29</title>
<g id="a_node30"><a xlink:href="stacktrace_8hpp.html" target="_top" xlink:title="stacktrace.hpp">
<polygon fill="#ffffff" stroke="#000000" points="1502.5,-123.5 1502.5,-142.5 1591.5,-142.5 1591.5,-123.5 1502.5,-123.5"/>
<text text-anchor="middle" x="1547" y="-130.5" font-family="Helvetica,sans-Serif" font-size="10.00" fill="#000000">stacktrace.hpp</text>
</a>
</g>
</g>
<!-- Node6&#45;&gt;Node29 -->
<g id="edge41" class="edge">
<title>Node6&#45;&gt;Node29</title>
<path fill="none" stroke="#191970" d="M508.8095,-311.1841C695.6911,-307.5778 1314.6554,-288.9521 1488,-199 1508.7868,-188.2133 1525.7309,-166.8849 1536.0425,-151.3854"/>
<polygon fill="#191970" stroke="#191970" points="1539.1904,-152.9561 1541.5808,-142.6345 1533.2755,-149.2127 1539.1904,-152.9561"/>
</g>
<!-- Node17 -->
<g id="node18" class="node">
<title>Node17</title>
<polygon fill="#ffffff" stroke="#bfbfbf" points="706.5,-179.5 706.5,-198.5 755.5,-198.5 755.5,-179.5 706.5,-179.5"/>
<text text-anchor="middle" x="731" y="-186.5" font-family="Helvetica,sans-Serif" font-size="10.00" fill="#000000">iosfwd</text>
</g>
<!-- Node16&#45;&gt;Node17 -->
<g id="edge19" class="edge">
<title>Node16&#45;&gt;Node17</title>
<path fill="none" stroke="#191970" d="M845.75,-240.8906C823.0945,-230.6457 787.0202,-214.3326 761.3709,-202.7339"/>
<polygon fill="#191970" stroke="#191970" points="762.6546,-199.4732 752.1008,-198.5419 759.7703,-205.8514 762.6546,-199.4732"/>
</g>
<!-- Node18 -->
<g id="node19" class="node">
<title>Node18</title>
<polygon fill="#ffffff" stroke="#bfbfbf" points="746,-123.5 746,-142.5 804,-142.5 804,-123.5 746,-123.5"/>
<text text-anchor="middle" x="775" y="-130.5" font-family="Helvetica,sans-Serif" font-size="10.00" fill="#000000">memory</text>
</g>
<!-- Node16&#45;&gt;Node18 -->
<g id="edge20" class="edge">
<title>Node16&#45;&gt;Node18</title>
<path fill="none" stroke="#191970" d="M850.923,-240.8325C836.7132,-231.5991 816.2431,-216.5214 803,-199 792.4589,-185.0535 785.0562,-166.5436 780.521,-152.6757"/>
<polygon fill="#191970" stroke="#191970" points="783.7528,-151.2733 777.4936,-142.725 777.0559,-153.3108 783.7528,-151.2733"/>
</g>
<!-- Node19 -->
<g id="node20" class="node">
<title>Node19</title>
<polygon fill="#ffffff" stroke="#bfbfbf" points="1414,-.5 1414,-19.5 1458,-19.5 1458,-.5 1414,-.5"/>
<text text-anchor="middle" x="1436" y="-7.5" font-family="Helvetica,sans-Serif" font-size="10.00" fill="#000000">string</text>
</g>
<!-- Node16&#45;&gt;Node19 -->
<g id="edge21" class="edge">
<title>Node16&#45;&gt;Node19</title>
<path fill="none" stroke="#191970" d="M904.0057,-245.7207C1020.0511,-229.9004 1373.0181,-175.17 1439,-87 1451.23,-70.6573 1447.816,-46.443 1443.0614,-29.5455"/>
<polygon fill="#191970" stroke="#191970" points="1446.2772,-28.1107 1439.8944,-19.6543 1439.6105,-30.2453 1446.2772,-28.1107"/>
</g>
<!-- Node20 -->
<g id="node21" class="node">
<title>Node20</title>
<polygon fill="#ffffff" stroke="#bfbfbf" points="939.5,-179.5 939.5,-198.5 986.5,-198.5 986.5,-179.5 939.5,-179.5"/>
<text text-anchor="middle" x="963" y="-186.5" font-family="Helvetica,sans-Serif" font-size="10.00" fill="#000000">vector</text>
</g>
<!-- Node16&#45;&gt;Node20 -->
<g id="edge22" class="edge">
<title>Node16&#45;&gt;Node20</title>
<path fill="none" stroke="#191970" d="M882,-240.8906C897.3581,-231.0519 921.4521,-215.6167 939.3745,-204.1351"/>
<polygon fill="#191970" stroke="#191970" points="941.573,-206.8833 948.1053,-198.5419 937.797,-200.9891 941.573,-206.8833"/>
</g>
<!-- Node21 -->
<g id="node22" class="node">
<title>Node21</title>
<g id="a_node22"><a xlink:href="Logger_8hpp.html" target="_top" xlink:title="logging/Logger.hpp">
<polygon fill="#ffffff" stroke="#000000" points="812.5,-179.5 812.5,-198.5 921.5,-198.5 921.5,-179.5 812.5,-179.5"/>
<text text-anchor="middle" x="867" y="-186.5" font-family="Helvetica,sans-Serif" font-size="10.00" fill="#000000">logging/Logger.hpp</text>
</a>
</g>
</g>
<!-- Node16&#45;&gt;Node21 -->
<g id="edge23" class="edge">
<title>Node16&#45;&gt;Node21</title>
<path fill="none" stroke="#191970" d="M867,-240.8906C867,-232.3657 867,-219.6392 867,-208.9235"/>
<polygon fill="#191970" stroke="#191970" points="870.5001,-208.7448 867,-198.7449 863.5001,-208.7449 870.5001,-208.7448"/>
</g>
<!-- Node28 -->
<g id="node29" class="node">
<title>Node28</title>
<polygon fill="#ffffff" stroke="#bfbfbf" points="1005,-179.5 1005,-198.5 1049,-198.5 1049,-179.5 1005,-179.5"/>
<text text-anchor="middle" x="1027" y="-186.5" font-family="Helvetica,sans-Serif" font-size="10.00" fill="#000000">mpi.h</text>
</g>
<!-- Node16&#45;&gt;Node28 -->
<g id="edge40" class="edge">
<title>Node16&#45;&gt;Node28</title>
<path fill="none" stroke="#191970" d="M892,-240.8906C919.7954,-230.2068 964.7594,-212.9237 995.0781,-201.27"/>
<polygon fill="#191970" stroke="#191970" points="996.6742,-204.4062 1004.7527,-197.5513 994.1627,-197.8722 996.6742,-204.4062"/>
</g>
<!-- Node21&#45;&gt;Node18 -->
<g id="edge24" class="edge">
<title>Node21&#45;&gt;Node18</title>
<path fill="none" stroke="#191970" d="M850.9748,-179.2455C836.8592,-170.6534 816.0737,-158.0014 799.8101,-148.1018"/>
<polygon fill="#191970" stroke="#191970" points="801.2034,-144.8525 790.8415,-142.6427 797.5637,-150.8319 801.2034,-144.8525"/>
</g>
<!-- Node21&#45;&gt;Node19 -->
<g id="edge25" class="edge">
<title>Node21&#45;&gt;Node19</title>
<path fill="none" stroke="#191970" d="M921.7046,-179.6577C1059.0105,-156.1044 1407.9282,-95.5605 1417,-87 1432.4439,-72.4265 1436.1757,-47.4679 1436.7018,-29.9253"/>
<polygon fill="#191970" stroke="#191970" points="1440.2012,-29.6429 1436.6755,-19.6519 1433.2012,-29.6609 1440.2012,-29.6429"/>
</g>
<!-- Node22 -->
<g id="node23" class="node">
<title>Node22</title>
<g id="a_node23"><a xlink:href="LogMacros_8hpp.html" target="_top" xlink:title="LogMacros.hpp">
<polygon fill="#ffffff" stroke="#000000" points="822.5,-123.5 822.5,-142.5 911.5,-142.5 911.5,-123.5 822.5,-123.5"/>
<text text-anchor="middle" x="867" y="-130.5" font-family="Helvetica,sans-Serif" font-size="10.00" fill="#000000">LogMacros.hpp</text>
</a>
</g>
</g>
<!-- Node21&#45;&gt;Node22 -->
<g id="edge26" class="edge">
<title>Node21&#45;&gt;Node22</title>
<path fill="none" stroke="#191970" d="M867,-179.2455C867,-171.9382 867,-161.6944 867,-152.7046"/>
<polygon fill="#191970" stroke="#191970" points="870.5001,-152.6426 867,-142.6427 863.5001,-152.6427 870.5001,-152.6426"/>
</g>
<!-- Node22&#45;&gt;Node11 -->
<g id="edge27" class="edge">
<title>Node22&#45;&gt;Node11</title>
<path fill="none" stroke="#191970" d="M822.2717,-124.3168C819.1401,-123.8321 816.0265,-123.3862 813,-123 591.7658,-94.7671 530.4469,-120.9686 306.1534,-87.0026"/>
<polygon fill="#191970" stroke="#191970" points="306.457,-83.5082 296.0411,-85.4475 305.3929,-90.4268 306.457,-83.5082"/>
</g>
<!-- Node22&#45;&gt;Node13 -->
<g id="edge29" class="edge">
<title>Node22&#45;&gt;Node13</title>
<path fill="none" stroke="#191970" d="M822.2605,-124.4009C819.1315,-123.8962 816.0216,-123.4228 813,-123 649.0509,-100.0579 603.2164,-114.0811 435.4742,-86.9167"/>
<polygon fill="#191970" stroke="#191970" points="436.001,-83.4565 425.5657,-85.2876 434.8653,-90.3637 436.001,-83.4565"/>
</g>
<!-- Node22&#45;&gt;Node14 -->
<g id="edge30" class="edge">
<title>Node22&#45;&gt;Node14</title>
<path fill="none" stroke="#191970" d="M822.2351,-124.5673C819.1122,-124.023 816.0105,-123.4953 813,-123 705.3689,-105.292 674.9386,-108.0569 563.9954,-87.0864"/>
<polygon fill="#191970" stroke="#191970" points="564.5652,-83.632 554.0857,-85.1912 563.2502,-90.5074 564.5652,-83.632"/>
</g>
<!-- Node22&#45;&gt;Node15 -->
<g id="edge31" class="edge">
<title>Node22&#45;&gt;Node15</title>
<path fill="none" stroke="#191970" d="M830.2288,-123.4581C794.8867,-114.287 740.6339,-100.2088 697.5119,-89.0189"/>
<polygon fill="#191970" stroke="#191970" points="698.2103,-85.5843 687.6518,-86.4603 696.4521,-92.3599 698.2103,-85.5843"/>
</g>
<!-- Node22&#45;&gt;Node19 -->
<g id="edge33" class="edge">
<title>Node22&#45;&gt;Node19</title>
<path fill="none" stroke="#191970" d="M858.8332,-123.4223C846.2189,-107.4456 825.2152,-75.2178 843,-56 862.2117,-35.2403 1283.0463,-16.3153 1403.8475,-11.2954"/>
<polygon fill="#191970" stroke="#191970" points="1404.0987,-14.7881 1413.9461,-10.8792 1403.8104,-7.7941 1404.0987,-14.7881"/>
</g>
<!-- Node23 -->
<g id="node24" class="node">
<title>Node23</title>
<polygon fill="#ffffff" stroke="#bfbfbf" points="852,-56.5 852,-86.5 968,-86.5 968,-56.5 852,-56.5"/>
<text text-anchor="start" x="860" y="-74.5" font-family="Helvetica,sans-Serif" font-size="10.00" fill="#000000">boost/preprocessor</text>
<text text-anchor="middle" x="910" y="-63.5" font-family="Helvetica,sans-Serif" font-size="10.00" fill="#000000">/facilities/empty.hpp</text>
</g>
<!-- Node22&#45;&gt;Node23 -->
<g id="edge28" class="edge">
<title>Node22&#45;&gt;Node23</title>
<path fill="none" stroke="#191970" d="M873.7188,-123.3906C879.0533,-115.761 886.741,-104.7658 893.6679,-94.8588"/>
<polygon fill="#191970" stroke="#191970" points="896.6192,-96.7456 899.481,-86.5446 890.8824,-92.7345 896.6192,-96.7456"/>
</g>
<!-- Node24 -->
<g id="node25" class="node">
<title>Node24</title>
<polygon fill="#ffffff" stroke="#bfbfbf" points="986,-62 986,-81 1122,-81 1122,-62 986,-62"/>
<text text-anchor="middle" x="1054" y="-69" font-family="Helvetica,sans-Serif" font-size="10.00" fill="#000000">boost/vmd/is_empty.hpp</text>
</g>
<!-- Node22&#45;&gt;Node24 -->
<g id="edge32" class="edge">
<title>Node22&#45;&gt;Node24</title>
<path fill="none" stroke="#191970" d="M896.2188,-123.3906C928.3307,-112.8298 980.049,-95.8208 1015.4608,-84.1747"/>
<polygon fill="#191970" stroke="#191970" points="1016.5804,-87.4909 1024.9864,-81.0419 1014.3935,-80.8413 1016.5804,-87.4909"/>
</g>
<!-- Node25 -->
<g id="node26" class="node">
<title>Node25</title>
<g id="a_node26"><a xlink:href="Tracer_8hpp.html" target="_top" xlink:title="logging/Tracer.hpp">
<polygon fill="#ffffff" stroke="#000000" points="1302.5,-62 1302.5,-81 1407.5,-81 1407.5,-62 1302.5,-62"/>
<text text-anchor="middle" x="1355" y="-69" font-family="Helvetica,sans-Serif" font-size="10.00" fill="#000000">logging/Tracer.hpp</text>
</a>
</g>
</g>
<!-- Node22&#45;&gt;Node25 -->
<g id="edge34" class="edge">
<title>Node22&#45;&gt;Node25</title>
<path fill="none" stroke="#191970" d="M911.7493,-130.1997C989.6719,-124.8719 1155.134,-111.5567 1293,-87 1298.7381,-85.9779 1304.7319,-84.7227 1310.6349,-83.3729"/>
<polygon fill="#191970" stroke="#191970" points="1311.5082,-86.7629 1320.4223,-81.0367 1309.8829,-79.9542 1311.5082,-86.7629"/>
</g>
<!-- Node26 -->
<g id="node27" class="node">
<title>Node26</title>
<polygon fill="#ffffff" stroke="#bfbfbf" points="1140,-62 1140,-81 1284,-81 1284,-62 1140,-62"/>
<text text-anchor="middle" x="1212" y="-69" font-family="Helvetica,sans-Serif" font-size="10.00" fill="#000000">prettyprint/prettyprint.hpp</text>
</g>
<!-- Node22&#45;&gt;Node26 -->
<g id="edge36" class="edge">
<title>Node22&#45;&gt;Node26</title>
<path fill="none" stroke="#191970" d="M911.8836,-125.4123C964.4454,-116.4726 1054.1137,-101.0538 1131,-87 1138.0686,-85.708 1145.4787,-84.3268 1152.8249,-82.9411"/>
<polygon fill="#191970" stroke="#191970" points="1153.5916,-86.3582 1162.7646,-81.0567 1152.2877,-79.4807 1153.5916,-86.3582"/>
</g>
<!-- Node27 -->
<g id="node28" class="node">
<title>Node27</title>
<g id="a_node28"><a xlink:href="String_8hpp.html" target="_top" xlink:title="utils/String.hpp">
<polygon fill="#ffffff" stroke="#000000" points="706,-62 706,-81 796,-81 796,-62 706,-62"/>
<text text-anchor="middle" x="751" y="-69" font-family="Helvetica,sans-Serif" font-size="10.00" fill="#000000">utils/String.hpp</text>
</a>
</g>
</g>
<!-- Node22&#45;&gt;Node27 -->
<g id="edge37" class="edge">
<title>Node22&#45;&gt;Node27</title>
<path fill="none" stroke="#191970" d="M848.875,-123.3906C829.8917,-113.3262 799.8627,-97.4057 778.0693,-85.8514"/>
<polygon fill="#191970" stroke="#191970" points="779.4723,-82.6338 768.9977,-81.0419 776.1934,-88.8184 779.4723,-82.6338"/>
</g>
<!-- Node25&#45;&gt;Node21 -->
<g id="edge35" class="edge">
<title>Node25&#45;&gt;Node21</title>
<path fill="none" stroke="#191970" d="M1316.98,-81.0686C1309.0587,-83.0443 1300.7596,-85.1011 1293,-87 1157.3426,-120.197 997.0919,-158.2558 917.3437,-177.1174"/>
<polygon fill="#191970" stroke="#191970" points="916.4876,-173.7232 907.5613,-179.4303 918.0983,-180.5354 916.4876,-173.7232"/>
</g>
<!-- Node27&#45;&gt;Node9 -->
<g id="edge38" class="edge">
<title>Node27&#45;&gt;Node9</title>
<path fill="none" stroke="#191970" d="M718.8389,-61.9355C711.3729,-59.8548 703.4348,-57.7537 696,-56 624.9322,-39.2363 540.9796,-24.2973 493.2638,-16.256"/>
<polygon fill="#191970" stroke="#191970" points="493.8056,-12.798 483.365,-14.5993 492.6501,-19.702 493.8056,-12.798"/>
</g>
<!-- Node27&#45;&gt;Node19 -->
<g id="edge39" class="edge">
<title>Node27&#45;&gt;Node19</title>
<path fill="none" stroke="#191970" d="M782.9203,-61.9723C791.633,-59.6856 801.1204,-57.4797 810,-56 1035.1477,-18.48 1310.9348,-11.563 1403.774,-10.288"/>
<polygon fill="#191970" stroke="#191970" points="1403.9711,-13.7859 1413.9267,-10.1616 1403.8838,-6.7865 1403.9711,-13.7859"/>
</g>
<!-- Node29&#45;&gt;Node19 -->
<g id="edge42" class="edge">
<title>Node29&#45;&gt;Node19</title>
<path fill="none" stroke="#191970" d="M1540.4691,-123.2873C1530.1323,-108.2056 1509.0117,-78.5464 1488,-56 1478.1134,-45.3912 1466.0342,-34.5939 1456.0071,-26.1285"/>
<polygon fill="#191970" stroke="#191970" points="1458.0919,-23.3105 1448.1601,-19.6213 1453.6236,-28.6989 1458.0919,-23.3105"/>
</g>
</g>
</svg>
        <g id="navigator" transform="translate(0 0)" fill="#404254">
                <rect fill="#f2f5e9" fill-opacity="0.5" stroke="#606060" stroke-width=".5" x="0" y="0" width="60" height="60"/>
                <use id="zoomplus" xlink:href="#zoomPlus" x="17" y="9" onmousedown="handleZoom(evt,'in')"/>
                <use id="zoomminus" xlink:href="#zoomMin" x="42" y="9" onmousedown="handleZoom(evt,'out')"/>
                <use id="reset" xlink:href="#resetDef" x="30" y="36" onmousedown="handleReset()"/>
                <g id="arrowUp" xlink:href="#dirArrow" transform="translate(30 24)" onmousedown="handlePan(0,-1)">
                  <use xlink:href="#rim" fill="#404040">
                        <set attributeName="fill" to="#808080" begin="arrowUp.mouseover" end="arrowUp.mouseout"/>
                  </use>
                  <path fill="none" stroke="white" stroke-width="1.5" d="M0,-3.0v7 M-2.5,-0.5L0,-3.0L2.5,-0.5"/>
                </g>
                <g id="arrowRight" xlink:href="#dirArrow" transform="rotate(90) translate(36 -43)" onmousedown="handlePan(1,0)">
                  <use xlink:href="#rim" fill="#404040">
                        <set attributeName="fill" to="#808080" begin="arrowRight.mouseover" end="arrowRight.mouseout"/>
                  </use>
                  <path fill="none" stroke="white" stroke-width="1.5" d="M0,-3.0v7 M-2.5,-0.5L0,-3.0L2.5,-0.5"/>
                </g>
                <g id="arrowDown" xlink:href="#dirArrow" transform="rotate(180) translate(-30 -48)" onmousedown="handlePan(0,1)">
                  <use xlink:href="#rim" fill="#404040">
                        <set attributeName="fill" to="#808080" begin="arrowDown.mouseover" end="arrowDown.mouseout"/>
                  </use>
                  <path fill="none" stroke="white" stroke-width="1.5" d="M0,-3.0v7 M-2.5,-0.5L0,-3.0L2.5,-0.5"/>
                </g>
                <g id="arrowLeft" xlink:href="#dirArrow" transform="rotate(270) translate(-36 17)" onmousedown="handlePan(-1,0)">
                  <use xlink:href="#rim" fill="#404040">
                        <set attributeName="fill" to="#808080" begin="arrowLeft.mouseover" end="arrowLeft.mouseout"/>
                  </use>
                  <path fill="none" stroke="white" stroke-width="1.5" d="M0,-3.0v7 M-2.5,-0.5L0,-3.0L2.5,-0.5"/>
                </g>
        </g>
        <svg viewBox="0 0 15 15" width="100%" height="30px" preserveAspectRatio="xMaxYMin meet">
         <g id="arrow_out" transform="scale(0.3 0.3)">
          <a xlink:href="barycenter_8hpp__incl_org.svg" target="_base">
           <rect id="button" ry="5" rx="5" y="6" x="6" height="38" width="38"
                fill="#f2f5e9" fill-opacity="0.5" stroke="#606060" stroke-width="1.0"/>
           <path id="arrow"
             d="M 11.500037,31.436501 C 11.940474,20.09759 22.043105,11.32322 32.158766,21.979434 L 37.068811,17.246167 C 37.068811,17.246167 37.088388,32 37.088388,32 L 22.160133,31.978069 C 22.160133,31.978069 26.997745,27.140456 26.997745,27.140456 C 18.528582,18.264221 13.291696,25.230495 11.500037,31.436501 z"
             style="fill:#404040;"/>
          </a>
         </g>
        </svg>
</svg>
