<?xml version="1.0" encoding="UTF-8" standalone="no"?>
<!DOCTYPE svg PUBLIC "-//W3C//DTD SVG 1.1//EN"
 "http://www.w3.org/Graphics/SVG/1.1/DTD/svg11.dtd">
<!-- Generated by graphviz version 2.40.1 (20161225.0304)
 -->
<!-- Title: src/mesh/impl/BBUtils.hpp Pages: 1 -->
<!--zoomable 162 -->
<svg id="main" version="1.1" xmlns="http://www.w3.org/2000/svg" xmlns:xlink="http://www.w3.org/1999/xlink" xml:space="preserve" onload="init(evt)">
<style type="text/css"><![CDATA[
.edge:hover path { stroke: red; }
.edge:hover polygon { stroke: red; fill: red; }
]]></style>
<script type="text/javascript"><![CDATA[
var edges = document.getElementsByTagName('g');
if (edges && edges.length) {
  for (var i=0;i<edges.length;i++) {
    if (edges[i].id.substr(0,4)=='edge') {
      edges[i].setAttribute('class','edge');
    }
  }
}
]]></script>
        <defs>
                <circle id="rim" cx="0" cy="0" r="7"/>
                <circle id="rim2" cx="0" cy="0" r="3.5"/>
                <g id="zoomPlus">
                        <use xlink:href="#rim" fill="#404040">
                                <set attributeName="fill" to="#808080" begin="zoomplus.mouseover" end="zoomplus.mouseout"/>
                        </use>
                        <path d="M-4,0h8M0,-4v8" fill="none" stroke="white" stroke-width="1.5" pointer-events="none"/>
                </g>
                <g id="zoomMin">
                        <use xlink:href="#rim" fill="#404040">
                                <set attributeName="fill" to="#808080" begin="zoomminus.mouseover" end="zoomminus.mouseout"/>
                        </use>
                        <path d="M-4,0h8" fill="none" stroke="white" stroke-width="1.5" pointer-events="none"/>
                </g>
                <g id="dirArrow">
                        <path fill="none" stroke="white" stroke-width="1.5" d="M0,-3.0v7 M-2.5,-0.5L0,-3.0L2.5,-0.5"/>
                </g>
               <g id="resetDef">
                       <use xlink:href="#rim2" fill="#404040">
                               <set attributeName="fill" to="#808080" begin="reset.mouseover" end="reset.mouseout"/>
                       </use>
               </g>
        </defs>

<script type="text/javascript">
var viewWidth = 636;
var viewHeight = 162;
var sectionId = 'dynsection-1';
</script>
<script xlink:href="svgpan.js"/>
<svg id="graph" class="graph">
<g id="viewport">
<title>src/mesh/impl/BBUtils.hpp</title>
<polygon fill="#ffffff" stroke="transparent" points="-4,4 -4,-158 631.5,-158 631.5,4 -4,4"/>
<!-- Node54 -->
<g id="node1" class="node">
<title>Node54</title>
<polygon fill="#bfbfbf" stroke="#000000" points="317,-134.5 317,-153.5 451,-153.5 451,-134.5 317,-134.5"/>
<text text-anchor="middle" x="384" y="-141.5" font-family="Helvetica,sans-Serif" font-size="10.00" fill="#000000">src/mesh/impl/BBUtils.hpp</text>
</g>
<!-- Node55 -->
<g id="node2" class="node">
<title>Node55</title>
<g id="a_node2"><a xlink:href="PetRadialBasisFctMapping_8hpp.html" target="_top" xlink:title="src/mapping/PetRadialBasis\lFctMapping.hpp">
<polygon fill="#ffffff" stroke="#000000" points="156,-67.5 156,-97.5 296,-97.5 296,-67.5 156,-67.5"/>
<text text-anchor="start" x="164" y="-85.5" font-family="Helvetica,sans-Serif" font-size="10.00" fill="#000000">src/mapping/PetRadialBasis</text>
<text text-anchor="middle" x="226" y="-74.5" font-family="Helvetica,sans-Serif" font-size="10.00" fill="#000000">FctMapping.hpp</text>
</a>
</g>
</g>
<!-- Node54&#45;&gt;Node55 -->
<g id="edge1" class="edge">
<title>Node54&#45;&gt;Node55</title>
<path fill="none" stroke="#191970" d="M349.8471,-130.7063C324.783,-120.9503 290.7129,-107.6889 264.6511,-97.5446"/>
<polygon fill="#191970" stroke="#191970" points="348.724,-134.0249 359.3125,-134.3906 351.2631,-127.5016 348.724,-134.0249"/>
</g>
<!-- Node59 -->
<g id="node6" class="node">
<title>Node59</title>
<g id="a_node6"><a xlink:href="RadialBasisFctMapping_8hpp.html" target="_top" xlink:title="src/mapping/RadialBasisFct\lMapping.hpp">
<polygon fill="#ffffff" stroke="#000000" points="314,-67.5 314,-97.5 454,-97.5 454,-67.5 314,-67.5"/>
<text text-anchor="start" x="322" y="-85.5" font-family="Helvetica,sans-Serif" font-size="10.00" fill="#000000">src/mapping/RadialBasisFct</text>
<text text-anchor="middle" x="384" y="-74.5" font-family="Helvetica,sans-Serif" font-size="10.00" fill="#000000">Mapping.hpp</text>
</a>
</g>
</g>
<!-- Node54&#45;&gt;Node59 -->
<g id="edge5" class="edge">
<title>Node54&#45;&gt;Node59</title>
<path fill="none" stroke="#191970" d="M384,-124.3693C384,-115.681 384,-105.6241 384,-97.5446"/>
<polygon fill="#191970" stroke="#191970" points="380.5001,-124.3906 384,-134.3906 387.5001,-124.3907 380.5001,-124.3906"/>
</g>
<!-- Node61 -->
<g id="node8" class="node">
<title>Node61</title>
<g id="a_node8"><a xlink:href="RTreeTests_8cpp.html" target="_top" xlink:title="src/mesh/tests/RTreeTests.cpp">
<polygon fill="#ffffff" stroke="#000000" points="472.5,-73 472.5,-92 627.5,-92 627.5,-73 472.5,-73"/>
<text text-anchor="middle" x="550" y="-80" font-family="Helvetica,sans-Serif" font-size="10.00" fill="#000000">src/mesh/tests/RTreeTests.cpp</text>
</a>
</g>
</g>
<!-- Node54&#45;&gt;Node61 -->
<g id="edge8" class="edge">
<title>Node54&#45;&gt;Node61</title>
<path fill="none" stroke="#191970" d="M419.6311,-130.7993C451.0834,-119.1468 496.1778,-102.4402 524.2446,-92.0419"/>
<polygon fill="#191970" stroke="#191970" points="418.0987,-127.6345 409.9375,-134.3906 420.5306,-134.1985 418.0987,-127.6345"/>
</g>
<!-- Node56 -->
<g id="node3" class="node">
<title>Node56</title>
<g id="a_node3"><a xlink:href="MappingConfiguration_8cpp.html" target="_top" xlink:title="src/mapping/config\l/MappingConfiguration.cpp">
<polygon fill="#ffffff" stroke="#000000" points="311.5,-.5 311.5,-30.5 444.5,-30.5 444.5,-.5 311.5,-.5"/>
<text text-anchor="start" x="319.5" y="-18.5" font-family="Helvetica,sans-Serif" font-size="10.00" fill="#000000">src/mapping/config</text>
<text text-anchor="middle" x="378" y="-7.5" font-family="Helvetica,sans-Serif" font-size="10.00" fill="#000000">/MappingConfiguration.cpp</text>
</a>
</g>
</g>
<!-- Node55&#45;&gt;Node56 -->
<g id="edge2" class="edge">
<title>Node55&#45;&gt;Node56</title>
<path fill="none" stroke="#191970" d="M269.5282,-63.3132C293.0917,-52.9267 321.784,-40.2794 343.7395,-30.6017"/>
<polygon fill="#191970" stroke="#191970" points="267.8505,-60.2277 260.1118,-67.4639 270.674,-66.6331 267.8505,-60.2277"/>
</g>
<!-- Node57 -->
<g id="node4" class="node">
<title>Node57</title>
<g id="a_node4"><a xlink:href="PetRadialBasisFctMappingTest_8cpp.html" target="_top" xlink:title="src/mapping/tests/PetRadial\lBasisFctMappingTest.cpp">
<polygon fill="#ffffff" stroke="#000000" points="0,-.5 0,-30.5 140,-30.5 140,-.5 0,-.5"/>
<text text-anchor="start" x="8" y="-18.5" font-family="Helvetica,sans-Serif" font-size="10.00" fill="#000000">src/mapping/tests/PetRadial</text>
<text text-anchor="middle" x="70" y="-7.5" font-family="Helvetica,sans-Serif" font-size="10.00" fill="#000000">BasisFctMappingTest.cpp</text>
</a>
</g>
</g>
<!-- Node55&#45;&gt;Node57 -->
<g id="edge3" class="edge">
<title>Node55&#45;&gt;Node57</title>
<path fill="none" stroke="#191970" d="M181.6484,-63.4516C157.4047,-53.0392 127.7955,-40.3224 105.1621,-30.6017"/>
<polygon fill="#191970" stroke="#191970" points="180.4209,-66.7335 190.9906,-67.4639 183.1834,-60.3016 180.4209,-66.7335"/>
</g>
<!-- Node58 -->
<g id="node5" class="node">
<title>Node58</title>
<g id="a_node5"><a xlink:href="ReceivedPartitionTest_8cpp.html" target="_top" xlink:title="src/partition/tests\l/ReceivedPartitionTest.cpp">
<polygon fill="#ffffff" stroke="#000000" points="158.5,-.5 158.5,-30.5 293.5,-30.5 293.5,-.5 158.5,-.5"/>
<text text-anchor="start" x="166.5" y="-18.5" font-family="Helvetica,sans-Serif" font-size="10.00" fill="#000000">src/partition/tests</text>
<text text-anchor="middle" x="226" y="-7.5" font-family="Helvetica,sans-Serif" font-size="10.00" fill="#000000">/ReceivedPartitionTest.cpp</text>
</a>
</g>
</g>
<!-- Node55&#45;&gt;Node58 -->
<g id="edge4" class="edge">
<title>Node55&#45;&gt;Node58</title>
<path fill="none" stroke="#191970" d="M226,-57.0249C226,-48.128 226,-38.4287 226,-30.6432"/>
<polygon fill="#191970" stroke="#191970" points="222.5001,-57.2966 226,-67.2967 229.5001,-57.2967 222.5001,-57.2966"/>
</g>
<!-- Node59&#45;&gt;Node56 -->
<g id="edge6" class="edge">
<title>Node59&#45;&gt;Node56</title>
<path fill="none" stroke="#191970" d="M381.7449,-57.3179C380.941,-48.3414 380.061,-38.5143 379.3561,-30.6432"/>
<polygon fill="#191970" stroke="#191970" points="378.2604,-57.6487 382.6385,-67.2967 385.2325,-57.0243 378.2604,-57.6487"/>
</g>
<!-- Node60 -->
<g id="node7" class="node">
<title>Node60</title>
<g id="a_node7"><a xlink:href="RadialBasisFctMappingTest_8cpp.html" target="_top" xlink:title="src/mapping/tests/Radial\lBasisFctMappingTest.cpp">
<polygon fill="#ffffff" stroke="#000000" points="462.5,-.5 462.5,-30.5 593.5,-30.5 593.5,-.5 462.5,-.5"/>
<text text-anchor="start" x="470.5" y="-18.5" font-family="Helvetica,sans-Serif" font-size="10.00" fill="#000000">src/mapping/tests/Radial</text>
<text text-anchor="middle" x="528" y="-7.5" font-family="Helvetica,sans-Serif" font-size="10.00" fill="#000000">BasisFctMappingTest.cpp</text>
</a>
</g>
</g>
<!-- Node59&#45;&gt;Node60 -->
<g id="edge7" class="edge">
<title>Node59&#45;&gt;Node60</title>
<path fill="none" stroke="#191970" d="M425.5017,-63.1902C447.6856,-52.8685 474.6081,-40.3421 495.2932,-30.7177"/>
<polygon fill="#191970" stroke="#191970" points="423.9066,-60.072 416.3164,-67.4639 426.8596,-66.4187 423.9066,-60.072"/>
</g>
</g>
</svg>
        <g id="navigator" transform="translate(0 0)" fill="#404254">
                <rect fill="#f2f5e9" fill-opacity="0.5" stroke="#606060" stroke-width=".5" x="0" y="0" width="60" height="60"/>
                <use id="zoomplus" xlink:href="#zoomPlus" x="17" y="9" onmousedown="handleZoom(evt,'in')"/>
                <use id="zoomminus" xlink:href="#zoomMin" x="42" y="9" onmousedown="handleZoom(evt,'out')"/>
                <use id="reset" xlink:href="#resetDef" x="30" y="36" onmousedown="handleReset()"/>
                <g id="arrowUp" xlink:href="#dirArrow" transform="translate(30 24)" onmousedown="handlePan(0,-1)">
                  <use xlink:href="#rim" fill="#404040">
                        <set attributeName="fill" to="#808080" begin="arrowUp.mouseover" end="arrowUp.mouseout"/>
                  </use>
                  <path fill="none" stroke="white" stroke-width="1.5" d="M0,-3.0v7 M-2.5,-0.5L0,-3.0L2.5,-0.5"/>
                </g>
                <g id="arrowRight" xlink:href="#dirArrow" transform="rotate(90) translate(36 -43)" onmousedown="handlePan(1,0)">
                  <use xlink:href="#rim" fill="#404040">
                        <set attributeName="fill" to="#808080" begin="arrowRight.mouseover" end="arrowRight.mouseout"/>
                  </use>
                  <path fill="none" stroke="white" stroke-width="1.5" d="M0,-3.0v7 M-2.5,-0.5L0,-3.0L2.5,-0.5"/>
                </g>
                <g id="arrowDown" xlink:href="#dirArrow" transform="rotate(180) translate(-30 -48)" onmousedown="handlePan(0,1)">
                  <use xlink:href="#rim" fill="#404040">
                        <set attributeName="fill" to="#808080" begin="arrowDown.mouseover" end="arrowDown.mouseout"/>
                  </use>
                  <path fill="none" stroke="white" stroke-width="1.5" d="M0,-3.0v7 M-2.5,-0.5L0,-3.0L2.5,-0.5"/>
                </g>
                <g id="arrowLeft" xlink:href="#dirArrow" transform="rotate(270) translate(-36 17)" onmousedown="handlePan(-1,0)">
                  <use xlink:href="#rim" fill="#404040">
                        <set attributeName="fill" to="#808080" begin="arrowLeft.mouseover" end="arrowLeft.mouseout"/>
                  </use>
                  <path fill="none" stroke="white" stroke-width="1.5" d="M0,-3.0v7 M-2.5,-0.5L0,-3.0L2.5,-0.5"/>
                </g>
        </g>
        <svg viewBox="0 0 15 15" width="100%" height="30px" preserveAspectRatio="xMaxYMin meet">
         <g id="arrow_out" transform="scale(0.3 0.3)">
          <a xlink:href="BBUtils_8hpp__dep__incl_org.svg" target="_base">
           <rect id="button" ry="5" rx="5" y="6" x="6" height="38" width="38"
                fill="#f2f5e9" fill-opacity="0.5" stroke="#606060" stroke-width="1.0"/>
           <path id="arrow"
             d="M 11.500037,31.436501 C 11.940474,20.09759 22.043105,11.32322 32.158766,21.979434 L 37.068811,17.246167 C 37.068811,17.246167 37.088388,32 37.088388,32 L 22.160133,31.978069 C 22.160133,31.978069 26.997745,27.140456 26.997745,27.140456 C 18.528582,18.264221 13.291696,25.230495 11.500037,31.436501 z"
             style="fill:#404040;"/>
          </a>
         </g>
        </svg>
</svg>
