<?xml version="1.0" encoding="UTF-8" standalone="no"?>
<!DOCTYPE svg PUBLIC "-//W3C//DTD SVG 1.1//EN"
 "http://www.w3.org/Graphics/SVG/1.1/DTD/svg11.dtd">
<!-- Generated by graphviz version 2.40.1 (20161225.0304)
 -->
<!-- Title: src/acceleration/BroydenAcceleration.hpp Pages: 1 -->
<svg width="330pt" height="106pt"
 viewBox="0.00 0.00 329.50 106.00" xmlns="http://www.w3.org/2000/svg" xmlns:xlink="http://www.w3.org/1999/xlink">
<g id="graph0" class="graph" transform="scale(1 1) rotate(0) translate(4 102)">
<title>src/acceleration/BroydenAcceleration.hpp</title>
<polygon fill="#ffffff" stroke="transparent" points="-4,4 -4,-102 325.5,-102 325.5,4 -4,4"/>
<!-- Node71 -->
<g id="node1" class="node">
<title>Node71</title>
<polygon fill="#bfbfbf" stroke="#000000" points="85,-67.5 85,-97.5 222,-97.5 222,-67.5 85,-67.5"/>
<text text-anchor="start" x="93" y="-85.5" font-family="Helvetica,sans-Serif" font-size="10.00" fill="#000000">src/acceleration/Broyden</text>
<text text-anchor="middle" x="153.5" y="-74.5" font-family="Helvetica,sans-Serif" font-size="10.00" fill="#000000">Acceleration.hpp</text>
</g>
<!-- Node72 -->
<g id="node2" class="node">
<title>Node72</title>
<g id="a_node2"><a xlink:href="BroydenAcceleration_8cpp.html" target="_top" xlink:title="src/acceleration/Broyden\lAcceleration.cpp">
<polygon fill="#ffffff" stroke="#000000" points="0,-.5 0,-30.5 137,-30.5 137,-.5 0,-.5"/>
<text text-anchor="start" x="8" y="-18.5" font-family="Helvetica,sans-Serif" font-size="10.00" fill="#000000">src/acceleration/Broyden</text>
<text text-anchor="middle" x="68.5" y="-7.5" font-family="Helvetica,sans-Serif" font-size="10.00" fill="#000000">Acceleration.cpp</text>
</a>
</g>
</g>
<!-- Node71&#45;&gt;Node72 -->
<g id="edge1" class="edge">
<title>Node71&#45;&gt;Node72</title>
<path fill="none" stroke="#191970" d="M126.3055,-61.0643C113.7374,-51.1577 99.1083,-39.6265 87.7115,-30.6432"/>
<polygon fill="#191970" stroke="#191970" points="124.1919,-63.8549 134.2122,-67.2967 128.5253,-58.3574 124.1919,-63.8549"/>
</g>
<!-- Node73 -->
<g id="node3" class="node">
<title>Node73</title>
<g id="a_node3"><a xlink:href="AccelerationConfiguration_8cpp.html" target="_top" xlink:title="src/acceleration/config\l/AccelerationConfiguration.cpp">
<polygon fill="#ffffff" stroke="#000000" points="155.5,-.5 155.5,-30.5 321.5,-30.5 321.5,-.5 155.5,-.5"/>
<text text-anchor="start" x="163.5" y="-18.5" font-family="Helvetica,sans-Serif" font-size="10.00" fill="#000000">src/acceleration/config</text>
<text text-anchor="middle" x="238.5" y="-7.5" font-family="Helvetica,sans-Serif" font-size="10.00" fill="#000000">/AccelerationConfiguration.cpp</text>
</a>
</g>
</g>
<!-- Node71&#45;&gt;Node73 -->
<g id="edge2" class="edge">
<title>Node71&#45;&gt;Node73</title>
<path fill="none" stroke="#191970" d="M180.6945,-61.0643C193.2626,-51.1577 207.8917,-39.6265 219.2885,-30.6432"/>
<polygon fill="#191970" stroke="#191970" points="178.4747,-58.3574 172.7878,-67.2967 182.8081,-63.8549 178.4747,-58.3574"/>
</g>
</g>
</svg>
