<?xml version="1.0" encoding="UTF-8" standalone="no"?>
<!DOCTYPE svg PUBLIC "-//W3C//DTD SVG 1.1//EN"
 "http://www.w3.org/Graphics/SVG/1.1/DTD/svg11.dtd">
<!-- Generated by graphviz version 2.40.1 (20161225.0304)
 -->
<!-- Title: precice::com::MPICommunication Pages: 1 -->
<svg width="630pt" height="116pt"
 viewBox="0.00 0.00 630.00 115.50" xmlns="http://www.w3.org/2000/svg" xmlns:xlink="http://www.w3.org/1999/xlink">
<g id="graph0" class="graph" transform="scale(1 1) rotate(0) translate(4 111.5)">
<title>precice::com::MPICommunication</title>
<polygon fill="#ffffff" stroke="transparent" points="-4,4 -4,-111.5 626,-111.5 626,4 -4,4"/>
<!-- Node0 -->
<g id="node1" class="node">
<title>Node0</title>
<polygon fill="#bfbfbf" stroke="#000000" points="198,-50 198,-69 377,-69 377,-50 198,-50"/>
<text text-anchor="middle" x="287.5" y="-57" font-family="Helvetica,sans-Serif" font-size="10.00" fill="#000000">precice::com::MPICommunication</text>
</g>
<!-- Node2 -->
<g id="node3" class="node">
<title>Node2</title>
<g id="a_node3"><a xlink:href="classprecice_1_1com_1_1MPIDirectCommunication.html" target="_top" xlink:title="Provides connection methods for processes located in one communicator. ">
<polygon fill="#ffffff" stroke="#000000" points="413,-88 413,-107 622,-107 622,-88 413,-88"/>
<text text-anchor="middle" x="517.5" y="-95" font-family="Helvetica,sans-Serif" font-size="10.00" fill="#000000">precice::com::MPIDirectCommunication</text>
</a>
</g>
</g>
<!-- Node0&#45;&gt;Node2 -->
<g id="edge2" class="edge">
<title>Node0&#45;&gt;Node2</title>
<path fill="none" stroke="#191970" d="M355.3194,-70.705C388.4979,-76.1866 428.0148,-82.7155 459.7344,-87.9561"/>
<polygon fill="#191970" stroke="#191970" points="355.6786,-67.2169 345.2418,-69.04 354.5375,-74.1233 355.6786,-67.2169"/>
</g>
<!-- Node3 -->
<g id="node4" class="node">
<title>Node3</title>
<g id="a_node4"><a xlink:href="classprecice_1_1com_1_1MPIPortsCommunication.html" target="_top" xlink:title="Provides connection methods based on MPI ports (part of MPI 2.0). ">
<polygon fill="#ffffff" stroke="#000000" points="415.5,-50 415.5,-69 619.5,-69 619.5,-50 415.5,-50"/>
<text text-anchor="middle" x="517.5" y="-57" font-family="Helvetica,sans-Serif" font-size="10.00" fill="#000000">precice::com::MPIPortsCommunication</text>
</a>
</g>
</g>
<!-- Node0&#45;&gt;Node3 -->
<g id="edge3" class="edge">
<title>Node0&#45;&gt;Node3</title>
<path fill="none" stroke="#191970" d="M387.1106,-59.5C396.4124,-59.5 405.8511,-59.5 415.1771,-59.5"/>
<polygon fill="#191970" stroke="#191970" points="387.0826,-56.0001 377.0826,-59.5 387.0826,-63.0001 387.0826,-56.0001"/>
</g>
<!-- Node4 -->
<g id="node5" class="node">
<title>Node4</title>
<g id="a_node5"><a xlink:href="classprecice_1_1com_1_1MPISinglePortsCommunication.html" target="_top" xlink:title="Provides connection methods based on MPI ports (part of MPI 2.0). ">
<polygon fill="#ffffff" stroke="#000000" points="439,-.5 439,-30.5 596,-30.5 596,-.5 439,-.5"/>
<text text-anchor="start" x="447" y="-18.5" font-family="Helvetica,sans-Serif" font-size="10.00" fill="#000000">precice::com::MPISinglePorts</text>
<text text-anchor="middle" x="517.5" y="-7.5" font-family="Helvetica,sans-Serif" font-size="10.00" fill="#000000">Communication</text>
</a>
</g>
</g>
<!-- Node0&#45;&gt;Node4 -->
<g id="edge4" class="edge">
<title>Node0&#45;&gt;Node4</title>
<path fill="none" stroke="#191970" d="M347.4079,-48.0394C375.296,-42.7042 408.8441,-36.2863 438.7492,-30.5654"/>
<polygon fill="#191970" stroke="#191970" points="346.5708,-44.6359 337.4066,-49.9527 347.8861,-51.5113 346.5708,-44.6359"/>
</g>
<!-- Node1 -->
<g id="node2" class="node">
<title>Node1</title>
<g id="a_node2"><a xlink:href="classprecice_1_1com_1_1Communication.html" target="_top" xlink:title="Interface for all interprocess communication classes. ">
<polygon fill="#ffffff" stroke="#000000" points="0,-50 0,-69 162,-69 162,-50 0,-50"/>
<text text-anchor="middle" x="81" y="-57" font-family="Helvetica,sans-Serif" font-size="10.00" fill="#000000">precice::com::Communication</text>
</a>
</g>
</g>
<!-- Node1&#45;&gt;Node0 -->
<g id="edge1" class="edge">
<title>Node1&#45;&gt;Node0</title>
<path fill="none" stroke="#191970" d="M172.2975,-59.5C180.7791,-59.5 189.3698,-59.5 197.8364,-59.5"/>
<polygon fill="#191970" stroke="#191970" points="172.0216,-56.0001 162.0216,-59.5 172.0216,-63.0001 172.0216,-56.0001"/>
</g>
</g>
</svg>
