<?xml version="1.0" encoding="UTF-8" standalone="no"?>
<!DOCTYPE svg PUBLIC "-//W3C//DTD SVG 1.1//EN"
 "http://www.w3.org/Graphics/SVG/1.1/DTD/svg11.dtd">
<!-- Generated by graphviz version 2.40.1 (20161225.0304)
 -->
<!-- Title: precice::cplscheme::impl::ConvergenceMeasure::~ConvergenceMeasure Pages: 1 -->
<svg width="328pt" height="230pt"
 viewBox="0.00 0.00 328.00 230.00" xmlns="http://www.w3.org/2000/svg" xmlns:xlink="http://www.w3.org/1999/xlink">
<g id="graph0" class="graph" transform="scale(1 1) rotate(0) translate(4 226)">
<title>precice::cplscheme::impl::ConvergenceMeasure::~ConvergenceMeasure</title>
<polygon fill="#ffffff" stroke="transparent" points="-4,4 -4,-226 324,-226 324,4 -4,4"/>
<!-- Node0 -->
<g id="node1" class="node">
<title>Node0</title>
<polygon fill="#bfbfbf" stroke="#000000" points="0,-90.5 0,-131.5 142,-131.5 142,-90.5 0,-90.5"/>
<text text-anchor="start" x="8" y="-119.5" font-family="Helvetica,sans-Serif" font-size="10.00" fill="#000000">precice::cplscheme</text>
<text text-anchor="start" x="8" y="-108.5" font-family="Helvetica,sans-Serif" font-size="10.00" fill="#000000">::impl::ConvergenceMeasure</text>
<text text-anchor="middle" x="71" y="-97.5" font-family="Helvetica,sans-Serif" font-size="10.00" fill="#000000">::~ConvergenceMeasure</text>
</g>
<!-- Node1 -->
<g id="node2" class="node">
<title>Node1</title>
<g id="a_node2"><a xlink:href="classprecice_1_1cplscheme_1_1impl_1_1ConvergenceMeasure.html#a745406ff6dba7c29a80004509d34fd33" target="_top" xlink:title="To be called when a new meas. series (iteration process) starts. ">
<polygon fill="#ffffff" stroke="#000000" points="178,-180.5 178,-221.5 320,-221.5 320,-180.5 178,-180.5"/>
<text text-anchor="start" x="186" y="-209.5" font-family="Helvetica,sans-Serif" font-size="10.00" fill="#000000">precice::cplscheme</text>
<text text-anchor="start" x="186" y="-198.5" font-family="Helvetica,sans-Serif" font-size="10.00" fill="#000000">::impl::ConvergenceMeasure</text>
<text text-anchor="middle" x="249" y="-187.5" font-family="Helvetica,sans-Serif" font-size="10.00" fill="#000000">::newMeasurementSeries</text>
</a>
</g>
</g>
<!-- Node0&#45;&gt;Node1 -->
<g id="edge1" class="edge">
<title>Node0&#45;&gt;Node1</title>
<path fill="none" stroke="#191970" d="M105.6558,-131.7264C126.3495,-143.775 153.3263,-158.9159 178,-171 181.549,-172.7381 185.224,-174.4745 188.9487,-176.1863"/>
<polygon fill="#191970" stroke="#191970" points="187.7105,-179.4671 198.2662,-180.378 190.5825,-173.0834 187.7105,-179.4671"/>
</g>
<!-- Node2 -->
<g id="node3" class="node">
<title>Node2</title>
<g id="a_node3"><a xlink:href="classprecice_1_1cplscheme_1_1impl_1_1ConvergenceMeasure.html#a7b3b691afaf52b3b25f3986091386652" target="_top" xlink:title="Performs convergence measurement. ">
<polygon fill="#ffffff" stroke="#000000" points="178,-120.5 178,-161.5 320,-161.5 320,-120.5 178,-120.5"/>
<text text-anchor="start" x="186" y="-149.5" font-family="Helvetica,sans-Serif" font-size="10.00" fill="#000000">precice::cplscheme</text>
<text text-anchor="start" x="186" y="-138.5" font-family="Helvetica,sans-Serif" font-size="10.00" fill="#000000">::impl::ConvergenceMeasure</text>
<text text-anchor="middle" x="249" y="-127.5" font-family="Helvetica,sans-Serif" font-size="10.00" fill="#000000">::measure</text>
</a>
</g>
</g>
<!-- Node0&#45;&gt;Node2 -->
<g id="edge2" class="edge">
<title>Node0&#45;&gt;Node2</title>
<path fill="none" stroke="#191970" d="M142.1177,-122.9861C150.609,-124.4172 159.3268,-125.8865 167.9445,-127.339"/>
<polygon fill="#191970" stroke="#191970" points="167.5526,-130.8222 177.9953,-129.0329 168.7161,-123.9196 167.5526,-130.8222"/>
</g>
<!-- Node3 -->
<g id="node4" class="node">
<title>Node3</title>
<g id="a_node4"><a xlink:href="classprecice_1_1cplscheme_1_1impl_1_1ConvergenceMeasure.html#a1d808bed3f8720cb0b70a7ab569c5304" target="_top" xlink:title="Returns true, if the last measurement indicates convergence. ">
<polygon fill="#ffffff" stroke="#000000" points="178,-60.5 178,-101.5 320,-101.5 320,-60.5 178,-60.5"/>
<text text-anchor="start" x="186" y="-89.5" font-family="Helvetica,sans-Serif" font-size="10.00" fill="#000000">precice::cplscheme</text>
<text text-anchor="start" x="186" y="-78.5" font-family="Helvetica,sans-Serif" font-size="10.00" fill="#000000">::impl::ConvergenceMeasure</text>
<text text-anchor="middle" x="249" y="-67.5" font-family="Helvetica,sans-Serif" font-size="10.00" fill="#000000">::isConvergence</text>
</a>
</g>
</g>
<!-- Node0&#45;&gt;Node3 -->
<g id="edge3" class="edge">
<title>Node0&#45;&gt;Node3</title>
<path fill="none" stroke="#191970" d="M142.1177,-99.0139C150.609,-97.5828 159.3268,-96.1135 167.9445,-94.661"/>
<polygon fill="#191970" stroke="#191970" points="168.7161,-98.0804 177.9953,-92.9671 167.5526,-91.1778 168.7161,-98.0804"/>
</g>
<!-- Node4 -->
<g id="node5" class="node">
<title>Node4</title>
<g id="a_node5"><a xlink:href="classprecice_1_1cplscheme_1_1impl_1_1ConvergenceMeasure.html#aadaaa7bdb564acd50c62d1dd5205efdf" target="_top" xlink:title="Adds current convergence information to output stream. ">
<polygon fill="#ffffff" stroke="#000000" points="178,-.5 178,-41.5 320,-41.5 320,-.5 178,-.5"/>
<text text-anchor="start" x="186" y="-29.5" font-family="Helvetica,sans-Serif" font-size="10.00" fill="#000000">precice::cplscheme</text>
<text text-anchor="start" x="186" y="-18.5" font-family="Helvetica,sans-Serif" font-size="10.00" fill="#000000">::impl::ConvergenceMeasure</text>
<text text-anchor="middle" x="249" y="-7.5" font-family="Helvetica,sans-Serif" font-size="10.00" fill="#000000">::printState</text>
</a>
</g>
</g>
<!-- Node0&#45;&gt;Node4 -->
<g id="edge4" class="edge">
<title>Node0&#45;&gt;Node4</title>
<path fill="none" stroke="#191970" d="M105.6558,-90.2736C126.3495,-78.225 153.3263,-63.0841 178,-51 181.549,-49.2619 185.224,-47.5255 188.9487,-45.8137"/>
<polygon fill="#191970" stroke="#191970" points="190.5825,-48.9166 198.2662,-41.622 187.7105,-42.5329 190.5825,-48.9166"/>
</g>
</g>
</svg>
