<?xml version="1.0" encoding="UTF-8" standalone="no"?>
<!DOCTYPE svg PUBLIC "-//W3C//DTD SVG 1.1//EN"
 "http://www.w3.org/Graphics/SVG/1.1/DTD/svg11.dtd">
<!-- Generated by graphviz version 2.40.1 (20161225.0304)
 -->
<!-- Title: precice::cplscheme::BaseCouplingScheme::advance Pages: 1 -->
<svg width="911pt" height="580pt"
 viewBox="0.00 0.00 911.00 579.50" xmlns="http://www.w3.org/2000/svg" xmlns:xlink="http://www.w3.org/1999/xlink">
<g id="graph0" class="graph" transform="scale(1 1) rotate(0) translate(4 575.5)">
<title>precice::cplscheme::BaseCouplingScheme::advance</title>
<polygon fill="#ffffff" stroke="transparent" points="-4,4 -4,-575.5 907,-575.5 907,4 -4,4"/>
<!-- Node26 -->
<g id="node1" class="node">
<title>Node26</title>
<polygon fill="#bfbfbf" stroke="#000000" points="0,-248.5 0,-289.5 128,-289.5 128,-248.5 0,-248.5"/>
<text text-anchor="start" x="8" y="-277.5" font-family="Helvetica,sans-Serif" font-size="10.00" fill="#000000">precice::cplscheme</text>
<text text-anchor="start" x="8" y="-266.5" font-family="Helvetica,sans-Serif" font-size="10.00" fill="#000000">::BaseCouplingScheme</text>
<text text-anchor="middle" x="64" y="-255.5" font-family="Helvetica,sans-Serif" font-size="10.00" fill="#000000">::advance</text>
</g>
<!-- Node27 -->
<g id="node2" class="node">
<title>Node27</title>
<g id="a_node2"><a xlink:href="classprecice_1_1cplscheme_1_1BaseCouplingScheme.html#af710df20ec188ce2a1a8ef12c0a54783" target="_top" xlink:title="If any required actions are open, an error message is issued. ">
<polygon fill="#ffffff" stroke="#000000" points="168.5,-519 168.5,-571 332.5,-571 332.5,-519 168.5,-519"/>
<text text-anchor="start" x="176.5" y="-559" font-family="Helvetica,sans-Serif" font-size="10.00" fill="#000000">precice::cplscheme</text>
<text text-anchor="start" x="176.5" y="-548" font-family="Helvetica,sans-Serif" font-size="10.00" fill="#000000">::BaseCouplingScheme</text>
<text text-anchor="start" x="176.5" y="-537" font-family="Helvetica,sans-Serif" font-size="10.00" fill="#000000">::checkCompletenessRequired</text>
<text text-anchor="middle" x="250.5" y="-526" font-family="Helvetica,sans-Serif" font-size="10.00" fill="#000000">Actions</text>
</a>
</g>
</g>
<!-- Node26&#45;&gt;Node27 -->
<g id="edge1" class="edge">
<title>Node26&#45;&gt;Node27</title>
<path fill="none" stroke="#191970" d="M67.156,-289.6078C75.1567,-335.1457 100.3105,-445.3366 164,-509 165.2655,-510.2649 166.5819,-511.4876 167.9425,-512.6694"/>
<polygon fill="#191970" stroke="#191970" points="166.1118,-515.6768 176.1724,-518.999 170.3794,-510.1281 166.1118,-515.6768"/>
</g>
<!-- Node28 -->
<g id="node3" class="node">
<title>Node28</title>
<g id="a_node3"><a xlink:href="classprecice_1_1cplscheme_1_1BaseCouplingScheme.html#aa6e2f46547d8bba4628365cba36c3e2a" target="_top" xlink:title="Function to check whether end of time window is reached. Does not check for convergence. ">
<polygon fill="#ffffff" stroke="#000000" points="173,-458.5 173,-499.5 328,-499.5 328,-458.5 173,-458.5"/>
<text text-anchor="start" x="181" y="-487.5" font-family="Helvetica,sans-Serif" font-size="10.00" fill="#000000">precice::cplscheme</text>
<text text-anchor="start" x="181" y="-476.5" font-family="Helvetica,sans-Serif" font-size="10.00" fill="#000000">::BaseCouplingScheme</text>
<text text-anchor="middle" x="250.5" y="-465.5" font-family="Helvetica,sans-Serif" font-size="10.00" fill="#000000">::reachedEndOfTimeWindow</text>
</a>
</g>
</g>
<!-- Node26&#45;&gt;Node28 -->
<g id="edge2" class="edge">
<title>Node26&#45;&gt;Node28</title>
<path fill="none" stroke="#191970" d="M70.0493,-289.7172C81.9441,-326.9085 111.8593,-405.1921 164,-449 165.5516,-450.3037 167.1633,-451.5519 168.8251,-452.7469"/>
<polygon fill="#191970" stroke="#191970" points="167.1948,-455.8586 177.5069,-458.2899 170.9618,-449.9585 167.1948,-455.8586"/>
</g>
<!-- Node32 -->
<g id="node7" class="node">
<title>Node32</title>
<g id="a_node7"><a xlink:href="classprecice_1_1cplscheme_1_1BaseCouplingScheme.html#aed318b7f58f2859b720cd7254a7d4893" target="_top" xlink:title="Functions needed for advance() ">
<polygon fill="#ffffff" stroke="#000000" points="168.5,-398.5 168.5,-439.5 332.5,-439.5 332.5,-398.5 168.5,-398.5"/>
<text text-anchor="start" x="176.5" y="-427.5" font-family="Helvetica,sans-Serif" font-size="10.00" fill="#000000">precice::cplscheme</text>
<text text-anchor="start" x="176.5" y="-416.5" font-family="Helvetica,sans-Serif" font-size="10.00" fill="#000000">::BaseCouplingScheme</text>
<text text-anchor="middle" x="250.5" y="-405.5" font-family="Helvetica,sans-Serif" font-size="10.00" fill="#000000">::exchangeDataAndAccelerate</text>
</a>
</g>
</g>
<!-- Node26&#45;&gt;Node32 -->
<g id="edge8" class="edge">
<title>Node26&#45;&gt;Node32</title>
<path fill="none" stroke="#191970" d="M76.2606,-289.7885C92.9381,-316.3711 125.1873,-362.1638 164,-389 166.3901,-390.6526 168.88,-392.2221 171.4431,-393.7121"/>
<polygon fill="#191970" stroke="#191970" points="169.9293,-396.8711 180.4019,-398.4761 173.216,-390.6906 169.9293,-396.8711"/>
</g>
<!-- Node33 -->
<g id="node8" class="node">
<title>Node33</title>
<g id="a_node8"><a xlink:href="classprecice_1_1cplscheme_1_1BaseCouplingScheme.html#ae946bdd4f164ab6a38b62c058123eee6" target="_top" xlink:title="Function to determine whether coupling scheme is an implicit coupling scheme. ">
<polygon fill="#ffffff" stroke="#000000" points="176,-338.5 176,-379.5 325,-379.5 325,-338.5 176,-338.5"/>
<text text-anchor="start" x="184" y="-367.5" font-family="Helvetica,sans-Serif" font-size="10.00" fill="#000000">precice::cplscheme</text>
<text text-anchor="start" x="184" y="-356.5" font-family="Helvetica,sans-Serif" font-size="10.00" fill="#000000">::BaseCouplingScheme</text>
<text text-anchor="middle" x="250.5" y="-345.5" font-family="Helvetica,sans-Serif" font-size="10.00" fill="#000000">::isImplicitCouplingScheme</text>
</a>
</g>
</g>
<!-- Node26&#45;&gt;Node33 -->
<g id="edge9" class="edge">
<title>Node26&#45;&gt;Node33</title>
<path fill="none" stroke="#191970" d="M94.615,-289.6309C113.9575,-302.0875 139.7878,-317.6861 164,-329 168.0793,-330.9062 172.315,-332.7579 176.6226,-334.5437"/>
<polygon fill="#191970" stroke="#191970" points="175.5496,-337.884 186.1344,-338.3439 178.1466,-331.3836 175.5496,-337.884"/>
</g>
<!-- Node34 -->
<g id="node9" class="node">
<title>Node34</title>
<g id="a_node9"><a xlink:href="classprecice_1_1cplscheme_1_1BaseCouplingScheme.html#a1b7306ca5622dd7bfb1d770ef0d4cd66" target="_top" xlink:title="Sets an action required to be performed by the accessor. ">
<polygon fill="#ffffff" stroke="#000000" points="186.5,-278.5 186.5,-319.5 314.5,-319.5 314.5,-278.5 186.5,-278.5"/>
<text text-anchor="start" x="194.5" y="-307.5" font-family="Helvetica,sans-Serif" font-size="10.00" fill="#000000">precice::cplscheme</text>
<text text-anchor="start" x="194.5" y="-296.5" font-family="Helvetica,sans-Serif" font-size="10.00" fill="#000000">::BaseCouplingScheme</text>
<text text-anchor="middle" x="250.5" y="-285.5" font-family="Helvetica,sans-Serif" font-size="10.00" fill="#000000">::requireAction</text>
</a>
</g>
</g>
<!-- Node26&#45;&gt;Node34 -->
<g id="edge10" class="edge">
<title>Node26&#45;&gt;Node34</title>
<path fill="none" stroke="#191970" d="M128.1827,-279.3243C143.5679,-281.7991 160.1261,-284.4626 175.9368,-287.0059"/>
<polygon fill="#191970" stroke="#191970" points="175.77,-290.524 186.199,-288.6567 176.8818,-283.6128 175.77,-290.524"/>
</g>
<!-- Node35 -->
<g id="node10" class="node">
<title>Node35</title>
<g id="a_node10"><a xlink:href="namespaceprecice_1_1cplscheme_1_1constants.html#a6ee5e554181352c02568f33215195519" target="_top" xlink:title="precice::cplscheme\l::constants::actionReadIteration\lCheckpoint">
<polygon fill="#ffffff" stroke="#000000" points="165,-218.5 165,-259.5 336,-259.5 336,-218.5 165,-218.5"/>
<text text-anchor="start" x="173" y="-247.5" font-family="Helvetica,sans-Serif" font-size="10.00" fill="#000000">precice::cplscheme</text>
<text text-anchor="start" x="173" y="-236.5" font-family="Helvetica,sans-Serif" font-size="10.00" fill="#000000">::constants::actionReadIteration</text>
<text text-anchor="middle" x="250.5" y="-225.5" font-family="Helvetica,sans-Serif" font-size="10.00" fill="#000000">Checkpoint</text>
</a>
</g>
</g>
<!-- Node26&#45;&gt;Node35 -->
<g id="edge11" class="edge">
<title>Node26&#45;&gt;Node35</title>
<path fill="none" stroke="#191970" d="M128.1827,-258.6757C136.7569,-257.2965 145.6955,-255.8586 154.6659,-254.4157"/>
<polygon fill="#191970" stroke="#191970" points="155.4724,-257.831 164.7896,-252.7872 154.3607,-250.9199 155.4724,-257.831"/>
</g>
<!-- Node36 -->
<g id="node11" class="node">
<title>Node36</title>
<g id="a_node11"><a xlink:href="namespaceprecice_1_1math.html#abdb7ef543f323c2e8a0d48d1774739e6" target="_top" xlink:title="precice::math::greater">
<polygon fill="#ffffff" stroke="#000000" points="398,-109.5 398,-128.5 523,-128.5 523,-109.5 398,-109.5"/>
<text text-anchor="middle" x="460.5" y="-116.5" font-family="Helvetica,sans-Serif" font-size="10.00" fill="#000000">precice::math::greater</text>
</a>
</g>
</g>
<!-- Node26&#45;&gt;Node36 -->
<g id="edge12" class="edge">
<title>Node26&#45;&gt;Node36</title>
<path fill="none" stroke="#191970" d="M74.5819,-248.2052C90.0347,-220.267 121.6126,-171.5245 164,-149 201.4178,-129.1163 312.3347,-122.3955 387.3792,-120.1336"/>
<polygon fill="#191970" stroke="#191970" points="387.8211,-123.6227 397.7188,-119.8431 387.6244,-116.6254 387.8211,-123.6227"/>
</g>
<!-- Node37 -->
<g id="node12" class="node">
<title>Node37</title>
<g id="a_node12"><a xlink:href="classprecice_1_1cplscheme_1_1BaseCouplingScheme.html#abc926e53c8af85b25470ba9b2e3e7a13" target="_top" xlink:title="Advance txt writers for iterations and convergence tracking. ">
<polygon fill="#ffffff" stroke="#000000" points="186.5,-158.5 186.5,-199.5 314.5,-199.5 314.5,-158.5 186.5,-158.5"/>
<text text-anchor="start" x="194.5" y="-187.5" font-family="Helvetica,sans-Serif" font-size="10.00" fill="#000000">precice::cplscheme</text>
<text text-anchor="start" x="194.5" y="-176.5" font-family="Helvetica,sans-Serif" font-size="10.00" fill="#000000">::BaseCouplingScheme</text>
<text text-anchor="middle" x="250.5" y="-165.5" font-family="Helvetica,sans-Serif" font-size="10.00" fill="#000000">::advanceTXTWriters</text>
</a>
</g>
</g>
<!-- Node26&#45;&gt;Node37 -->
<g id="edge13" class="edge">
<title>Node26&#45;&gt;Node37</title>
<path fill="none" stroke="#191970" d="M94.615,-248.3691C113.9575,-235.9125 139.7878,-220.3139 164,-209 168.0793,-207.0938 172.315,-205.2421 176.6226,-203.4563"/>
<polygon fill="#191970" stroke="#191970" points="178.1466,-206.6164 186.1344,-199.6561 175.5496,-200.116 178.1466,-206.6164"/>
</g>
<!-- Node41 -->
<g id="node16" class="node">
<title>Node41</title>
<g id="a_node16"><a xlink:href="classprecice_1_1cplscheme_1_1BaseCouplingScheme.html#a69facd34bc23797fe69daab51df26b8c" target="_top" xlink:title="Returns true, when the coupled simulation is still ongoing. ">
<polygon fill="#ffffff" stroke="#000000" points="186.5,-60.5 186.5,-101.5 314.5,-101.5 314.5,-60.5 186.5,-60.5"/>
<text text-anchor="start" x="194.5" y="-89.5" font-family="Helvetica,sans-Serif" font-size="10.00" fill="#000000">precice::cplscheme</text>
<text text-anchor="start" x="194.5" y="-78.5" font-family="Helvetica,sans-Serif" font-size="10.00" fill="#000000">::BaseCouplingScheme</text>
<text text-anchor="middle" x="250.5" y="-67.5" font-family="Helvetica,sans-Serif" font-size="10.00" fill="#000000">::isCouplingOngoing</text>
</a>
</g>
</g>
<!-- Node26&#45;&gt;Node41 -->
<g id="edge17" class="edge">
<title>Node26&#45;&gt;Node41</title>
<path fill="none" stroke="#191970" d="M72.5788,-248.3005C86.9717,-215.9003 118.901,-153.085 164,-116 168.2231,-112.5273 172.8361,-109.362 177.6628,-106.4833"/>
<polygon fill="#191970" stroke="#191970" points="179.4629,-109.4879 186.5437,-101.6067 176.0936,-103.3521 179.4629,-109.4879"/>
</g>
<!-- Node42 -->
<g id="node17" class="node">
<title>Node42</title>
<g id="a_node17"><a xlink:href="namespaceprecice_1_1cplscheme_1_1constants.html#ae6a2667f9452de16a239be70945c8172" target="_top" xlink:title="precice::cplscheme\l::constants::actionWriteIteration\lCheckpoint">
<polygon fill="#ffffff" stroke="#000000" points="164,-.5 164,-41.5 337,-41.5 337,-.5 164,-.5"/>
<text text-anchor="start" x="172" y="-29.5" font-family="Helvetica,sans-Serif" font-size="10.00" fill="#000000">precice::cplscheme</text>
<text text-anchor="start" x="172" y="-18.5" font-family="Helvetica,sans-Serif" font-size="10.00" fill="#000000">::constants::actionWriteIteration</text>
<text text-anchor="middle" x="250.5" y="-7.5" font-family="Helvetica,sans-Serif" font-size="10.00" fill="#000000">Checkpoint</text>
</a>
</g>
</g>
<!-- Node26&#45;&gt;Node42 -->
<g id="edge20" class="edge">
<title>Node26&#45;&gt;Node42</title>
<path fill="none" stroke="#191970" d="M67.8099,-248.387C76.7912,-205.5138 103.2738,-106.1462 164,-51 165.3348,-49.7878 166.7212,-48.6242 168.1519,-47.5071"/>
<polygon fill="#191970" stroke="#191970" points="170.5026,-50.1398 176.7811,-41.6057 166.551,-44.3618 170.5026,-50.1398"/>
</g>
<!-- Node29 -->
<g id="node4" class="node">
<title>Node29</title>
<g id="a_node4"><a xlink:href="namespaceprecice_1_1math.html#a0e86802cfe992deba131d789d035b5b7" target="_top" xlink:title="Compares two Eigen::MatrixBase for equality up to tolerance. ">
<polygon fill="#ffffff" stroke="#000000" points="781,-419.5 781,-438.5 903,-438.5 903,-419.5 781,-419.5"/>
<text text-anchor="middle" x="842" y="-426.5" font-family="Helvetica,sans-Serif" font-size="10.00" fill="#000000">precice::math::equals</text>
</a>
</g>
</g>
<!-- Node28&#45;&gt;Node29 -->
<g id="edge3" class="edge">
<title>Node28&#45;&gt;Node29</title>
<path fill="none" stroke="#191970" d="M328.2861,-458.4386C343.066,-454.962 358.4566,-451.6322 373,-449 536.0571,-419.4882 579.3487,-419.7335 745,-424 753.36,-424.2153 762.1213,-424.5349 770.8147,-424.9102"/>
<polygon fill="#191970" stroke="#191970" points="770.8113,-428.4136 780.9606,-425.3735 771.1307,-421.4209 770.8113,-428.4136"/>
</g>
<!-- Node30 -->
<g id="node5" class="node">
<title>Node30</title>
<g id="a_node5"><a xlink:href="classprecice_1_1cplscheme_1_1BaseCouplingScheme.html#a1f72b0cf12e0edbeab962c30e0ff2683" target="_top" xlink:title="Returns the remaining timestep length within the current time window. ">
<polygon fill="#ffffff" stroke="#000000" points="373,-458.5 373,-499.5 548,-499.5 548,-458.5 373,-458.5"/>
<text text-anchor="start" x="381" y="-487.5" font-family="Helvetica,sans-Serif" font-size="10.00" fill="#000000">precice::cplscheme</text>
<text text-anchor="start" x="381" y="-476.5" font-family="Helvetica,sans-Serif" font-size="10.00" fill="#000000">::BaseCouplingScheme</text>
<text text-anchor="middle" x="460.5" y="-465.5" font-family="Helvetica,sans-Serif" font-size="10.00" fill="#000000">::getThisTimeWindowRemainder</text>
</a>
</g>
</g>
<!-- Node28&#45;&gt;Node30 -->
<g id="edge4" class="edge">
<title>Node28&#45;&gt;Node30</title>
<path fill="none" stroke="#191970" d="M328.0996,-479C339.3955,-479 351.1463,-479 362.7774,-479"/>
<polygon fill="#191970" stroke="#191970" points="362.9535,-482.5001 372.9534,-479 362.9534,-475.5001 362.9535,-482.5001"/>
</g>
<!-- Node30&#45;&gt;Node29 -->
<g id="edge5" class="edge">
<title>Node30&#45;&gt;Node29</title>
<path fill="none" stroke="#191970" d="M548.1917,-492.7284C605.2051,-498.6975 680.6351,-500.9781 745,-484 773.9256,-476.37 803.2738,-457.9115 821.9951,-444.4772"/>
<polygon fill="#191970" stroke="#191970" points="824.0786,-447.2896 830.0464,-438.5354 819.9219,-441.6573 824.0786,-447.2896"/>
</g>
<!-- Node31 -->
<g id="node6" class="node">
<title>Node31</title>
<g id="a_node6"><a xlink:href="classprecice_1_1cplscheme_1_1BaseCouplingScheme.html#a3106c1e6390270f5fa725508f11fc12a" target="_top" xlink:title="Returns the maximal length of the next timestep to be computed. ">
<polygon fill="#ffffff" stroke="#000000" points="584,-433.5 584,-474.5 745,-474.5 745,-433.5 584,-433.5"/>
<text text-anchor="start" x="592" y="-462.5" font-family="Helvetica,sans-Serif" font-size="10.00" fill="#000000">precice::cplscheme</text>
<text text-anchor="start" x="592" y="-451.5" font-family="Helvetica,sans-Serif" font-size="10.00" fill="#000000">::BaseCouplingScheme</text>
<text text-anchor="middle" x="664.5" y="-440.5" font-family="Helvetica,sans-Serif" font-size="10.00" fill="#000000">::getNextTimestepMaxLength</text>
</a>
</g>
</g>
<!-- Node30&#45;&gt;Node31 -->
<g id="edge6" class="edge">
<title>Node30&#45;&gt;Node31</title>
<path fill="none" stroke="#191970" d="M548.1983,-468.2527C556.7362,-467.2063 565.4106,-466.1433 573.9757,-465.0937"/>
<polygon fill="#191970" stroke="#191970" points="574.4653,-468.5599 583.9653,-463.8694 573.6138,-461.6119 574.4653,-468.5599"/>
</g>
<!-- Node31&#45;&gt;Node29 -->
<g id="edge7" class="edge">
<title>Node31&#45;&gt;Node29</title>
<path fill="none" stroke="#191970" d="M745.1995,-442.6339C753.7287,-441.4326 762.3578,-440.2172 770.7684,-439.0326"/>
<polygon fill="#191970" stroke="#191970" points="771.4835,-442.4665 780.8976,-437.606 770.5072,-435.535 771.4835,-442.4665"/>
</g>
<!-- Node38 -->
<g id="node13" class="node">
<title>Node38</title>
<g id="a_node13"><a xlink:href="classprecice_1_1utils_1_1MasterSlave.html#a3837ad42361b53d7e930443ba07a9eb5" target="_top" xlink:title="True if this process is running a slave. ">
<polygon fill="#ffffff" stroke="#000000" points="388,-268 388,-298 533,-298 533,-268 388,-268"/>
<text text-anchor="start" x="396" y="-286" font-family="Helvetica,sans-Serif" font-size="10.00" fill="#000000">precice::utils::MasterSlave</text>
<text text-anchor="middle" x="460.5" y="-275" font-family="Helvetica,sans-Serif" font-size="10.00" fill="#000000">::isSlave</text>
</a>
</g>
</g>
<!-- Node37&#45;&gt;Node38 -->
<g id="edge14" class="edge">
<title>Node37&#45;&gt;Node38</title>
<path fill="none" stroke="#191970" d="M314.6234,-196.2419C322.5403,-199.7837 330.2203,-203.9995 337,-209 358.7478,-225.0407 350.8151,-242.5694 373,-258 375.8757,-260.0002 378.9096,-261.8414 382.0528,-263.5362"/>
<polygon fill="#191970" stroke="#191970" points="380.6325,-266.7371 391.1594,-267.9354 383.6774,-260.434 380.6325,-266.7371"/>
</g>
<!-- Node39 -->
<g id="node14" class="node">
<title>Node39</title>
<g id="a_node14"><a xlink:href="classprecice_1_1cplscheme_1_1BaseCouplingScheme.html#af880c679675d59efcf00b0b9fd984f6e" target="_top" xlink:title="Getter for _doesFirstStep. ">
<polygon fill="#ffffff" stroke="#000000" points="396.5,-207.5 396.5,-248.5 524.5,-248.5 524.5,-207.5 396.5,-207.5"/>
<text text-anchor="start" x="404.5" y="-236.5" font-family="Helvetica,sans-Serif" font-size="10.00" fill="#000000">precice::cplscheme</text>
<text text-anchor="start" x="404.5" y="-225.5" font-family="Helvetica,sans-Serif" font-size="10.00" fill="#000000">::BaseCouplingScheme</text>
<text text-anchor="middle" x="460.5" y="-214.5" font-family="Helvetica,sans-Serif" font-size="10.00" fill="#000000">::doesFirstStep</text>
</a>
</g>
</g>
<!-- Node37&#45;&gt;Node39 -->
<g id="edge15" class="edge">
<title>Node37&#45;&gt;Node39</title>
<path fill="none" stroke="#191970" d="M314.648,-193.9679C337.3395,-199.2626 363.0468,-205.2609 386.4901,-210.731"/>
<polygon fill="#191970" stroke="#191970" points="385.8495,-214.1755 396.3833,-213.0394 387.4402,-207.3586 385.8495,-214.1755"/>
</g>
<!-- Node40 -->
<g id="node15" class="node">
<title>Node40</title>
<g id="a_node15"><a xlink:href="classprecice_1_1cplscheme_1_1BaseCouplingScheme.html#a25488a257431c0708ec77032cf8c7ee6" target="_top" xlink:title="Getter for _acceleration. ">
<polygon fill="#ffffff" stroke="#000000" points="396.5,-147.5 396.5,-188.5 524.5,-188.5 524.5,-147.5 396.5,-147.5"/>
<text text-anchor="start" x="404.5" y="-176.5" font-family="Helvetica,sans-Serif" font-size="10.00" fill="#000000">precice::cplscheme</text>
<text text-anchor="start" x="404.5" y="-165.5" font-family="Helvetica,sans-Serif" font-size="10.00" fill="#000000">::BaseCouplingScheme</text>
<text text-anchor="middle" x="460.5" y="-154.5" font-family="Helvetica,sans-Serif" font-size="10.00" fill="#000000">::getAcceleration</text>
</a>
</g>
</g>
<!-- Node37&#45;&gt;Node40 -->
<g id="edge16" class="edge">
<title>Node37&#45;&gt;Node40</title>
<path fill="none" stroke="#191970" d="M314.648,-175.6399C337.2382,-174.4566 362.8173,-173.1167 386.176,-171.8932"/>
<polygon fill="#191970" stroke="#191970" points="386.5801,-175.3769 396.3833,-171.3585 386.2138,-168.3865 386.5801,-175.3769"/>
</g>
<!-- Node41&#45;&gt;Node29 -->
<g id="edge19" class="edge">
<title>Node41&#45;&gt;Node29</title>
<path fill="none" stroke="#191970" d="M314.6912,-71.586C377.4616,-65.3932 474.1139,-64.0672 548,-100 694.8444,-171.4143 800.9881,-352.0152 832.3958,-410.4497"/>
<polygon fill="#191970" stroke="#191970" points="829.3188,-412.1182 837.0897,-419.3198 835.5059,-408.844 829.3188,-412.1182"/>
</g>
<!-- Node41&#45;&gt;Node36 -->
<g id="edge18" class="edge">
<title>Node41&#45;&gt;Node36</title>
<path fill="none" stroke="#191970" d="M314.648,-92.6077C340.9496,-97.3671 371.3029,-102.8596 397.4861,-107.5975"/>
<polygon fill="#191970" stroke="#191970" points="397.2099,-111.1043 407.6734,-109.4409 398.4564,-104.2161 397.2099,-111.1043"/>
</g>
</g>
</svg>
