<?xml version="1.0" encoding="UTF-8" standalone="no"?>
<!DOCTYPE svg PUBLIC "-//W3C//DTD SVG 1.1//EN"
 "http://www.w3.org/Graphics/SVG/1.1/DTD/svg11.dtd">
<!-- Generated by graphviz version 2.40.1 (20161225.0304)
 -->
<!-- Title: precice::mapping::PetRadialBasisFctMapping::bgPreallocationMatrixA Pages: 1 -->
<svg width="591pt" height="509pt"
 viewBox="0.00 0.00 591.00 508.50" xmlns="http://www.w3.org/2000/svg" xmlns:xlink="http://www.w3.org/1999/xlink">
<g id="graph0" class="graph" transform="scale(1 1) rotate(0) translate(4 504.5)">
<title>precice::mapping::PetRadialBasisFctMapping::bgPreallocationMatrixA</title>
<polygon fill="#ffffff" stroke="transparent" points="-4,4 -4,-504.5 587,-504.5 587,4 -4,4"/>
<!-- Node6 -->
<g id="node1" class="node">
<title>Node6</title>
<polygon fill="#bfbfbf" stroke="#000000" points="0,-243.5 0,-284.5 180,-284.5 180,-243.5 0,-243.5"/>
<text text-anchor="start" x="8" y="-272.5" font-family="Helvetica,sans-Serif" font-size="10.00" fill="#000000">precice::mapping::PetRadial</text>
<text text-anchor="start" x="8" y="-261.5" font-family="Helvetica,sans-Serif" font-size="10.00" fill="#000000">BasisFctMapping::bgPreallocation</text>
<text text-anchor="middle" x="90" y="-250.5" font-family="Helvetica,sans-Serif" font-size="10.00" fill="#000000">MatrixA</text>
</g>
<!-- Node7 -->
<g id="node2" class="node">
<title>Node7</title>
<g id="a_node2"><a xlink:href="classprecice_1_1mapping_1_1Mapping.html#a61c3c55af467ada2bdd735efa0f960e4" target="_top" xlink:title="Returns pointer to input mesh. ">
<polygon fill="#ffffff" stroke="#000000" points="221,-470 221,-500 369,-500 369,-470 221,-470"/>
<text text-anchor="start" x="229" y="-488" font-family="Helvetica,sans-Serif" font-size="10.00" fill="#000000">precice::mapping::Mapping</text>
<text text-anchor="middle" x="295" y="-477" font-family="Helvetica,sans-Serif" font-size="10.00" fill="#000000">::input</text>
</a>
</g>
</g>
<!-- Node6&#45;&gt;Node7 -->
<g id="edge1" class="edge">
<title>Node6&#45;&gt;Node7</title>
<path fill="none" stroke="#191970" d="M97.5449,-284.6988C113.2322,-324.829 153.221,-413.4379 216,-461 217.8566,-462.4066 219.7959,-463.7314 221.7998,-464.979"/>
<polygon fill="#191970" stroke="#191970" points="220.4896,-468.2512 230.9442,-469.9696 223.843,-462.1067 220.4896,-468.2512"/>
</g>
<!-- Node8 -->
<g id="node3" class="node">
<title>Node8</title>
<g id="a_node3"><a xlink:href="namespaceprecice_1_1utils_1_1petsc.html#a931b5a402aa2dec020afa7af6167d67e" target="_top" xlink:title="precice::utils::petsc\l::getName">
<polygon fill="#ffffff" stroke="#000000" points="239.5,-421 239.5,-451 350.5,-451 350.5,-421 239.5,-421"/>
<text text-anchor="start" x="247.5" y="-439" font-family="Helvetica,sans-Serif" font-size="10.00" fill="#000000">precice::utils::petsc</text>
<text text-anchor="middle" x="295" y="-428" font-family="Helvetica,sans-Serif" font-size="10.00" fill="#000000">::getName</text>
</a>
</g>
</g>
<!-- Node6&#45;&gt;Node8 -->
<g id="edge2" class="edge">
<title>Node6&#45;&gt;Node8</title>
<path fill="none" stroke="#191970" d="M102.1324,-284.7193C121.9286,-316.7304 164.2123,-378.0535 216,-412 220.3102,-414.8253 224.9678,-417.3304 229.7904,-419.5494"/>
<polygon fill="#191970" stroke="#191970" points="228.6426,-422.8627 239.2198,-423.4734 231.3321,-416.4 228.6426,-422.8627"/>
</g>
<!-- Node9 -->
<g id="node4" class="node">
<title>Node9</title>
<g id="a_node4"><a xlink:href="classprecice_1_1mapping_1_1Mapping.html#a07a71a54b71eda6d54510c94fb188e70" target="_top" xlink:title="Returns pointer to output mesh. ">
<polygon fill="#ffffff" stroke="#000000" points="221,-372 221,-402 369,-402 369,-372 221,-372"/>
<text text-anchor="start" x="229" y="-390" font-family="Helvetica,sans-Serif" font-size="10.00" fill="#000000">precice::mapping::Mapping</text>
<text text-anchor="middle" x="295" y="-379" font-family="Helvetica,sans-Serif" font-size="10.00" fill="#000000">::output</text>
</a>
</g>
</g>
<!-- Node6&#45;&gt;Node9 -->
<g id="edge3" class="edge">
<title>Node6&#45;&gt;Node9</title>
<path fill="none" stroke="#191970" d="M111.0141,-284.5928C134.718,-306.7907 175.2946,-341.7849 216,-363 219.5453,-364.8478 223.2558,-366.5778 227.0534,-368.1938"/>
<polygon fill="#191970" stroke="#191970" points="226.0417,-371.5573 236.6281,-371.9779 228.6146,-365.0473 226.0417,-371.5573"/>
</g>
<!-- Node10 -->
<g id="node5" class="node">
<title>Node10</title>
<g id="a_node5"><a xlink:href="classprecice_1_1utils_1_1petsc_1_1Matrix.html#af7be873ab3ee6ce5ff55b9865d3e3ddb" target="_top" xlink:title="Returns (rows, cols) local size. ">
<polygon fill="#ffffff" stroke="#000000" points="234.5,-323 234.5,-353 355.5,-353 355.5,-323 234.5,-323"/>
<text text-anchor="start" x="242.5" y="-341" font-family="Helvetica,sans-Serif" font-size="10.00" fill="#000000">precice::utils::petsc</text>
<text text-anchor="middle" x="295" y="-330" font-family="Helvetica,sans-Serif" font-size="10.00" fill="#000000">::Matrix::getLocalSize</text>
</a>
</g>
</g>
<!-- Node6&#45;&gt;Node10 -->
<g id="edge4" class="edge">
<title>Node6&#45;&gt;Node10</title>
<path fill="none" stroke="#191970" d="M139.0127,-284.5436C162.1871,-293.9747 190.3409,-305.0286 216,-314 221.6344,-315.97 227.526,-317.9341 233.442,-319.8421"/>
<polygon fill="#191970" stroke="#191970" points="232.7902,-323.307 243.3803,-322.9914 234.9048,-316.634 232.7902,-323.307"/>
</g>
<!-- Node11 -->
<g id="node6" class="node">
<title>Node11</title>
<g id="a_node6"><a xlink:href="classprecice_1_1utils_1_1petsc_1_1Matrix.html#a85c7a24397ab94ace0b9afc1c97f0eb2" target="_top" xlink:title="Returns a pair that mark the beginning and end of the matrix&#39; ownership range. ">
<polygon fill="#ffffff" stroke="#000000" points="235,-274 235,-304 355,-304 355,-274 235,-274"/>
<text text-anchor="start" x="243" y="-292" font-family="Helvetica,sans-Serif" font-size="10.00" fill="#000000">precice::utils::petsc</text>
<text text-anchor="middle" x="295" y="-281" font-family="Helvetica,sans-Serif" font-size="10.00" fill="#000000">::Matrix::ownerRange</text>
</a>
</g>
</g>
<!-- Node6&#45;&gt;Node11 -->
<g id="edge5" class="edge">
<title>Node6&#45;&gt;Node11</title>
<path fill="none" stroke="#191970" d="M180.2143,-275.0017C195.0819,-276.8149 210.2994,-278.6707 224.5911,-280.4135"/>
<polygon fill="#191970" stroke="#191970" points="224.4656,-283.9241 234.8158,-281.6605 225.3131,-276.9756 224.4656,-283.9241"/>
</g>
<!-- Node12 -->
<g id="node7" class="node">
<title>Node12</title>
<g id="a_node7"><a xlink:href="classprecice_1_1utils_1_1petsc_1_1Matrix.html#afb999429db43fc9cb930dde6144bc739" target="_top" xlink:title="Returns a pair that mark the beginning and end of the matrix&#39; column ownership range. ">
<polygon fill="#ffffff" stroke="#000000" points="216,-225 216,-255 374,-255 374,-225 216,-225"/>
<text text-anchor="start" x="224" y="-243" font-family="Helvetica,sans-Serif" font-size="10.00" fill="#000000">precice::utils::petsc</text>
<text text-anchor="middle" x="295" y="-232" font-family="Helvetica,sans-Serif" font-size="10.00" fill="#000000">::Matrix::ownerRangeColumn</text>
</a>
</g>
</g>
<!-- Node6&#45;&gt;Node12 -->
<g id="edge6" class="edge">
<title>Node6&#45;&gt;Node12</title>
<path fill="none" stroke="#191970" d="M180.2143,-253.4383C188.6149,-252.4548 197.1272,-251.4583 205.521,-250.4756"/>
<polygon fill="#191970" stroke="#191970" points="206.1603,-253.9247 215.6855,-249.2856 205.3463,-246.9722 206.1603,-253.9247"/>
</g>
<!-- Node13 -->
<g id="node8" class="node">
<title>Node13</title>
<g id="a_node8"><a xlink:href="classprecice_1_1query_1_1Index.html#ab70dd2f80e32dc1c5e968f9368edd78d" target="_top" xlink:title="Return all the vertices inside the box formed by vertex and radius. ">
<polygon fill="#ffffff" stroke="#000000" points="232.5,-176 232.5,-206 357.5,-206 357.5,-176 232.5,-176"/>
<text text-anchor="start" x="240.5" y="-194" font-family="Helvetica,sans-Serif" font-size="10.00" fill="#000000">precice::query::Index</text>
<text text-anchor="middle" x="295" y="-183" font-family="Helvetica,sans-Serif" font-size="10.00" fill="#000000">::getVerticesInsideBox</text>
</a>
</g>
</g>
<!-- Node6&#45;&gt;Node13 -->
<g id="edge7" class="edge">
<title>Node6&#45;&gt;Node13</title>
<path fill="none" stroke="#191970" d="M141.8613,-243.4741C164.5156,-234.7077 191.4629,-224.5483 216,-216 222.4804,-213.7424 229.2888,-211.458 236.0779,-209.2353"/>
<polygon fill="#191970" stroke="#191970" points="237.5343,-212.4428 245.9705,-206.0332 235.3786,-205.783 237.5343,-212.4428"/>
</g>
<!-- Node15 -->
<g id="node10" class="node">
<title>Node15</title>
<g id="a_node10"><a xlink:href="classprecice_1_1mesh_1_1Vertex.html#a382386665b94b9ae8ded5fca26fd2b0b" target="_top" xlink:title="Returns the coordinates of the vertex. ">
<polygon fill="#ffffff" stroke="#000000" points="435.5,-132 435.5,-162 557.5,-162 557.5,-132 435.5,-132"/>
<text text-anchor="start" x="443.5" y="-150" font-family="Helvetica,sans-Serif" font-size="10.00" fill="#000000">precice::mesh::Vertex</text>
<text text-anchor="middle" x="496.5" y="-139" font-family="Helvetica,sans-Serif" font-size="10.00" fill="#000000">::getCoords</text>
</a>
</g>
</g>
<!-- Node6&#45;&gt;Node15 -->
<g id="edge10" class="edge">
<title>Node6&#45;&gt;Node15</title>
<path fill="none" stroke="#191970" d="M109.0642,-243.3418C131.9359,-220.115 172.6539,-183.4955 216,-167 283.5802,-141.2822 366.8513,-138.6279 425.0376,-140.9587"/>
<polygon fill="#191970" stroke="#191970" points="425.0877,-144.4646 435.2382,-141.4285 425.4098,-137.472 425.0877,-144.4646"/>
</g>
<!-- Node16 -->
<g id="node11" class="node">
<title>Node16</title>
<g id="a_node11"><a xlink:href="classprecice_1_1mesh_1_1Vertex.html#af8dde044af9038a763b37340c03cc44d" target="_top" xlink:title="Globally unique index. ">
<polygon fill="#ffffff" stroke="#000000" points="234,-88 234,-118 356,-118 356,-88 234,-88"/>
<text text-anchor="start" x="242" y="-106" font-family="Helvetica,sans-Serif" font-size="10.00" fill="#000000">precice::mesh::Vertex</text>
<text text-anchor="middle" x="295" y="-95" font-family="Helvetica,sans-Serif" font-size="10.00" fill="#000000">::getGlobalIndex</text>
</a>
</g>
</g>
<!-- Node6&#45;&gt;Node16 -->
<g id="edge11" class="edge">
<title>Node6&#45;&gt;Node16</title>
<path fill="none" stroke="#191970" d="M105.2782,-243.0706C127.0057,-214.6271 169.3999,-163.7905 216,-133 222.1431,-128.941 228.9138,-125.3205 235.83,-122.1225"/>
<polygon fill="#191970" stroke="#191970" points="237.5183,-125.2057 245.3059,-118.0221 234.7383,-118.7813 237.5183,-125.2057"/>
</g>
<!-- Node17 -->
<g id="node12" class="node">
<title>Node17</title>
<g id="a_node12"><a xlink:href="classprecice_1_1utils_1_1Event.html#ab228ebbfcd934048c62a2622b4e1b5a9" target="_top" xlink:title="Stops an event and commit it. If it&#39;s already stopped it has no effect. ">
<polygon fill="#ffffff" stroke="#000000" points="238.5,-39 238.5,-69 351.5,-69 351.5,-39 238.5,-39"/>
<text text-anchor="start" x="246.5" y="-57" font-family="Helvetica,sans-Serif" font-size="10.00" fill="#000000">precice::utils::Event</text>
<text text-anchor="middle" x="295" y="-46" font-family="Helvetica,sans-Serif" font-size="10.00" fill="#000000">::stop</text>
</a>
</g>
</g>
<!-- Node6&#45;&gt;Node17 -->
<g id="edge12" class="edge">
<title>Node6&#45;&gt;Node17</title>
<path fill="none" stroke="#191970" d="M98.3846,-243.2683C114.9841,-204.8404 155.7181,-122.4308 216,-78 220.0782,-74.9942 224.5361,-72.3608 229.1912,-70.0545"/>
<polygon fill="#191970" stroke="#191970" points="230.6077,-73.2551 238.3382,-66.0102 227.777,-66.853 230.6077,-73.2551"/>
</g>
<!-- Node14 -->
<g id="node9" class="node">
<title>Node14</title>
<g id="a_node9"><a xlink:href="classprecice_1_1query_1_1impl_1_1Indexer.html#a5f4415898dcb95c16b0aedf0c3e3168d" target="_top" xlink:title="precice::query::impl\l::Indexer::instance">
<polygon fill="#ffffff" stroke="#000000" points="440,-181 440,-211 553,-211 553,-181 440,-181"/>
<text text-anchor="start" x="448" y="-199" font-family="Helvetica,sans-Serif" font-size="10.00" fill="#000000">precice::query::impl</text>
<text text-anchor="middle" x="496.5" y="-188" font-family="Helvetica,sans-Serif" font-size="10.00" fill="#000000">::Indexer::instance</text>
</a>
</g>
</g>
<!-- Node13&#45;&gt;Node14 -->
<g id="edge8" class="edge">
<title>Node13&#45;&gt;Node14</title>
<path fill="none" stroke="#191970" d="M357.6513,-192.5546C380.4958,-193.1215 406.405,-193.7644 429.6043,-194.3401"/>
<polygon fill="#191970" stroke="#191970" points="429.623,-197.8415 439.7068,-194.5907 429.7967,-190.8437 429.623,-197.8415"/>
</g>
<!-- Node13&#45;&gt;Node15 -->
<g id="edge9" class="edge">
<title>Node13&#45;&gt;Node15</title>
<path fill="none" stroke="#191970" d="M357.6513,-177.3193C379.0909,-172.6377 403.23,-167.3667 425.2949,-162.5485"/>
<polygon fill="#191970" stroke="#191970" points="426.2467,-165.9232 435.2698,-160.3704 424.7533,-159.0844 426.2467,-165.9232"/>
</g>
<!-- Node18 -->
<g id="node13" class="node">
<title>Node18</title>
<g id="a_node13"><a xlink:href="MPI__Mock_8hpp.html#a38a750883860adf3d7cee6f56442261a" target="_top" xlink:title="MPI_Barrier">
<polygon fill="#ffffff" stroke="#000000" points="460.5,-88.5 460.5,-107.5 532.5,-107.5 532.5,-88.5 460.5,-88.5"/>
<text text-anchor="middle" x="496.5" y="-95.5" font-family="Helvetica,sans-Serif" font-size="10.00" fill="#000000">MPI_Barrier</text>
</a>
</g>
</g>
<!-- Node17&#45;&gt;Node18 -->
<g id="edge13" class="edge">
<title>Node17&#45;&gt;Node18</title>
<path fill="none" stroke="#191970" d="M351.6652,-66.3735C382.7991,-73.172 420.9293,-81.4982 450.2499,-87.9007"/>
<polygon fill="#191970" stroke="#191970" points="449.7112,-91.3655 460.2276,-90.0795 451.2046,-84.5266 449.7112,-91.3655"/>
</g>
<!-- Node19 -->
<g id="node14" class="node">
<title>Node19</title>
<g id="a_node14"><a xlink:href="classprecice_1_1utils_1_1EventRegistry.html#ab22976bb8c5bd6a86f052f4705a48cb1" target="_top" xlink:title="Returns the only instance (singleton) of the EventRegistry class. ">
<polygon fill="#ffffff" stroke="#000000" points="420.5,-39 420.5,-69 572.5,-69 572.5,-39 420.5,-39"/>
<text text-anchor="start" x="428.5" y="-57" font-family="Helvetica,sans-Serif" font-size="10.00" fill="#000000">precice::utils::EventRegistry</text>
<text text-anchor="middle" x="496.5" y="-46" font-family="Helvetica,sans-Serif" font-size="10.00" fill="#000000">::instance</text>
</a>
</g>
</g>
<!-- Node17&#45;&gt;Node19 -->
<g id="edge14" class="edge">
<title>Node17&#45;&gt;Node19</title>
<path fill="none" stroke="#191970" d="M351.6652,-54C369.8051,-54 390.32,-54 410.0837,-54"/>
<polygon fill="#191970" stroke="#191970" points="410.3339,-57.5001 420.3338,-54 410.3338,-50.5001 410.3339,-57.5001"/>
</g>
<!-- Node20 -->
<g id="node15" class="node">
<title>Node20</title>
<g id="a_node15"><a xlink:href="classprecice_1_1utils_1_1EventRegistry.html#ae2cd83819174207b743e580c381dd022" target="_top" xlink:title="Records the event. ">
<polygon fill="#ffffff" stroke="#000000" points="410,-.5 410,-19.5 583,-19.5 583,-.5 410,-.5"/>
<text text-anchor="middle" x="496.5" y="-7.5" font-family="Helvetica,sans-Serif" font-size="10.00" fill="#000000">precice::utils::EventRegistry::put</text>
</a>
</g>
</g>
<!-- Node17&#45;&gt;Node20 -->
<g id="edge15" class="edge">
<title>Node17&#45;&gt;Node20</title>
<path fill="none" stroke="#191970" d="M351.6652,-41.6265C380.175,-35.401 414.5515,-27.8945 442.6579,-21.7571"/>
<polygon fill="#191970" stroke="#191970" points="443.6836,-25.1157 452.7067,-19.5628 442.1902,-18.2768 443.6836,-25.1157"/>
</g>
</g>
</svg>
