<?xml version="1.0" encoding="UTF-8" standalone="no"?>
<!DOCTYPE svg PUBLIC "-//W3C//DTD SVG 1.1//EN"
 "http://www.w3.org/Graphics/SVG/1.1/DTD/svg11.dtd">
<!-- Generated by graphviz version 2.40.1 (20161225.0304)
 -->
<!-- Title: precice::impl::SolverInterfaceImpl::exportMesh Pages: 1 -->
<svg width="324pt" height="39pt"
 viewBox="0.00 0.00 324.00 39.00" xmlns="http://www.w3.org/2000/svg" xmlns:xlink="http://www.w3.org/1999/xlink">
<g id="graph0" class="graph" transform="scale(1 1) rotate(0) translate(4 35)">
<title>precice::impl::SolverInterfaceImpl::exportMesh</title>
<polygon fill="#ffffff" stroke="transparent" points="-4,4 -4,-35 320,-35 320,4 -4,4"/>
<!-- Node105 -->
<g id="node1" class="node">
<title>Node105</title>
<polygon fill="#bfbfbf" stroke="#000000" points="0,-.5 0,-30.5 160,-30.5 160,-.5 0,-.5"/>
<text text-anchor="start" x="8" y="-18.5" font-family="Helvetica,sans-Serif" font-size="10.00" fill="#000000">precice::impl::SolverInterface</text>
<text text-anchor="middle" x="80" y="-7.5" font-family="Helvetica,sans-Serif" font-size="10.00" fill="#000000">Impl::exportMesh</text>
</g>
<!-- Node106 -->
<g id="node2" class="node">
<title>Node106</title>
<g id="a_node2"><a xlink:href="namespaceprecice_1_1io_1_1constants.html#ad48a2f8ef5a7f56190e47623c170f40f" target="_top" xlink:title="precice::io::constants\l::exportAll">
<polygon fill="#ffffff" stroke="#000000" points="196,-.5 196,-30.5 316,-30.5 316,-.5 196,-.5"/>
<text text-anchor="start" x="204" y="-18.5" font-family="Helvetica,sans-Serif" font-size="10.00" fill="#000000">precice::io::constants</text>
<text text-anchor="middle" x="256" y="-7.5" font-family="Helvetica,sans-Serif" font-size="10.00" fill="#000000">::exportAll</text>
</a>
</g>
</g>
<!-- Node105&#45;&gt;Node106 -->
<g id="edge1" class="edge">
<title>Node105&#45;&gt;Node106</title>
<path fill="none" stroke="#191970" d="M160.0176,-15.5C168.6038,-15.5 177.2922,-15.5 185.7522,-15.5"/>
<polygon fill="#191970" stroke="#191970" points="185.936,-19.0001 195.936,-15.5 185.936,-12.0001 185.936,-19.0001"/>
</g>
</g>
</svg>
