<?xml version="1.0" encoding="UTF-8" standalone="no"?>
<!DOCTYPE svg PUBLIC "-//W3C//DTD SVG 1.1//EN"
 "http://www.w3.org/Graphics/SVG/1.1/DTD/svg11.dtd">
<!-- Generated by graphviz version 2.40.1 (20161225.0304)
 -->
<!-- Title: precice::utils::Parallel::popState Pages: 1 -->
<svg width="778pt" height="61pt"
 viewBox="0.00 0.00 778.00 61.00" xmlns="http://www.w3.org/2000/svg" xmlns:xlink="http://www.w3.org/1999/xlink">
<g id="graph0" class="graph" transform="scale(1 1) rotate(0) translate(4 57)">
<title>precice::utils::Parallel::popState</title>
<polygon fill="#ffffff" stroke="transparent" points="-4,4 -4,-57 774,-57 774,4 -4,4"/>
<!-- Node36 -->
<g id="node1" class="node">
<title>Node36</title>
<polygon fill="#bfbfbf" stroke="#000000" points="0,-.5 0,-30.5 121,-30.5 121,-.5 0,-.5"/>
<text text-anchor="start" x="8" y="-18.5" font-family="Helvetica,sans-Serif" font-size="10.00" fill="#000000">precice::utils::Parallel</text>
<text text-anchor="middle" x="60.5" y="-7.5" font-family="Helvetica,sans-Serif" font-size="10.00" fill="#000000">::popState</text>
</g>
<!-- Node37 -->
<g id="node2" class="node">
<title>Node37</title>
<g id="a_node2"><a xlink:href="classprecice_1_1utils_1_1Parallel.html#a2aeadec30c9e48918e014608ede4d51d" target="_top" xlink:title="Returns an owning pointer to the current CommState. ">
<polygon fill="#ffffff" stroke="#000000" points="157,-.5 157,-30.5 278,-30.5 278,-.5 157,-.5"/>
<text text-anchor="start" x="165" y="-18.5" font-family="Helvetica,sans-Serif" font-size="10.00" fill="#000000">precice::utils::Parallel</text>
<text text-anchor="middle" x="217.5" y="-7.5" font-family="Helvetica,sans-Serif" font-size="10.00" fill="#000000">::current</text>
</a>
</g>
</g>
<!-- Node36&#45;&gt;Node37 -->
<g id="edge1" class="edge">
<title>Node36&#45;&gt;Node37</title>
<path fill="none" stroke="#191970" d="M121.2003,-15.5C129.635,-15.5 138.3591,-15.5 146.9547,-15.5"/>
<polygon fill="#191970" stroke="#191970" points="146.9612,-19.0001 156.9611,-15.5 146.9611,-12.0001 146.9612,-19.0001"/>
</g>
<!-- Node38 -->
<g id="node3" class="node">
<title>Node38</title>
<g id="a_node3"><a xlink:href="structprecice_1_1utils_1_1Parallel_1_1CommState.html#a11c87f5cfaad1fb984d9dcd80e6f2c55" target="_top" xlink:title="returns a commstate containing MPI_COMM_WORLD ">
<polygon fill="#ffffff" stroke="#000000" points="314,-.5 314,-30.5 435,-30.5 435,-.5 314,-.5"/>
<text text-anchor="start" x="322" y="-18.5" font-family="Helvetica,sans-Serif" font-size="10.00" fill="#000000">precice::utils::Parallel</text>
<text text-anchor="middle" x="374.5" y="-7.5" font-family="Helvetica,sans-Serif" font-size="10.00" fill="#000000">::CommState::world</text>
</a>
</g>
</g>
<!-- Node37&#45;&gt;Node38 -->
<g id="edge2" class="edge">
<title>Node37&#45;&gt;Node38</title>
<path fill="none" stroke="#191970" d="M278.2003,-15.5C286.635,-15.5 295.3591,-15.5 303.9547,-15.5"/>
<polygon fill="#191970" stroke="#191970" points="303.9612,-19.0001 313.9611,-15.5 303.9611,-12.0001 303.9612,-19.0001"/>
</g>
<!-- Node39 -->
<g id="node4" class="node">
<title>Node39</title>
<g id="a_node4"><a xlink:href="structprecice_1_1utils_1_1Parallel_1_1CommState.html#a440432f97f08c595678e1102edb43b9f" target="_top" xlink:title="returns the commstate representing comm ">
<polygon fill="#ffffff" stroke="#000000" points="471,-22.5 471,-52.5 613,-52.5 613,-22.5 471,-22.5"/>
<text text-anchor="start" x="479" y="-40.5" font-family="Helvetica,sans-Serif" font-size="10.00" fill="#000000">precice::utils::Parallel</text>
<text text-anchor="middle" x="542" y="-29.5" font-family="Helvetica,sans-Serif" font-size="10.00" fill="#000000">::CommState::fromComm</text>
</a>
</g>
</g>
<!-- Node38&#45;&gt;Node39 -->
<g id="edge3" class="edge">
<title>Node38&#45;&gt;Node39</title>
<path fill="none" stroke="#191970" d="M435.4452,-23.5047C443.7147,-24.5909 452.3053,-25.7192 460.8596,-26.8427"/>
<polygon fill="#191970" stroke="#191970" points="460.4928,-30.3245 470.8634,-28.1567 461.4044,-23.3842 460.4928,-30.3245"/>
</g>
<!-- Node40 -->
<g id="node5" class="node">
<title>Node40</title>
<g id="a_node5"><a xlink:href="structprecice_1_1utils_1_1Parallel_1_1CommState.html#a5e3626f4c22a0aa7ac05cd740dda95ca" target="_top" xlink:title="returns an blank commstate representing MPI_COMM_NULL ">
<polygon fill="#ffffff" stroke="#000000" points="649,-.5 649,-30.5 770,-30.5 770,-.5 649,-.5"/>
<text text-anchor="start" x="657" y="-18.5" font-family="Helvetica,sans-Serif" font-size="10.00" fill="#000000">precice::utils::Parallel</text>
<text text-anchor="middle" x="709.5" y="-7.5" font-family="Helvetica,sans-Serif" font-size="10.00" fill="#000000">::CommState::null</text>
</a>
</g>
</g>
<!-- Node38&#45;&gt;Node40 -->
<g id="edge5" class="edge">
<title>Node38&#45;&gt;Node40</title>
<path fill="none" stroke="#191970" d="M435.2402,-14.0493C447.0986,-13.8203 459.4382,-13.6198 471,-13.5 534.1077,-12.8461 549.8923,-12.8461 613,-13.5 621.31,-13.5861 630.0219,-13.7139 638.6681,-13.864"/>
<polygon fill="#191970" stroke="#191970" points="638.6972,-17.365 648.7598,-14.0493 638.8258,-10.3662 638.6972,-17.365"/>
</g>
<!-- Node39&#45;&gt;Node40 -->
<g id="edge4" class="edge">
<title>Node39&#45;&gt;Node40</title>
<path fill="none" stroke="#191970" d="M613.0351,-28.17C621.6227,-27.0421 630.393,-25.8902 638.9732,-24.7632"/>
<polygon fill="#191970" stroke="#191970" points="639.4771,-28.2272 648.9362,-23.4547 638.5655,-21.2868 639.4771,-28.2272"/>
</g>
</g>
</svg>
