<?xml version="1.0" encoding="UTF-8" standalone="no"?>
<!DOCTYPE svg PUBLIC "-//W3C//DTD SVG 1.1//EN"
 "http://www.w3.org/Graphics/SVG/1.1/DTD/svg11.dtd">
<!-- Generated by graphviz version 2.40.1 (20161225.0304)
 -->
<!-- Title: precice::query::FindClosest Pages: 1 -->
<svg width="1927pt" height="328pt"
 viewBox="0.00 0.00 1927.00 328.00" xmlns="http://www.w3.org/2000/svg" xmlns:xlink="http://www.w3.org/1999/xlink">
<g id="graph0" class="graph" transform="scale(1 1) rotate(0) translate(4 324)">
<title>precice::query::FindClosest</title>
<polygon fill="#ffffff" stroke="transparent" points="-4,4 -4,-324 1923,-324 1923,4 -4,4"/>
<!-- Node1 -->
<g id="node1" class="node">
<title>Node1</title>
<polygon fill="#bfbfbf" stroke="#000000" points="1773,-166.5 1773,-185.5 1919,-185.5 1919,-166.5 1773,-166.5"/>
<text text-anchor="middle" x="1846" y="-173.5" font-family="Helvetica,sans-Serif" font-size="10.00" fill="#000000">precice::query::FindClosest</text>
</g>
<!-- Node2 -->
<g id="node2" class="node">
<title>Node2</title>
<g id="a_node2"><a xlink:href="classprecice_1_1query_1_1FindClosestVertex.html" target="_top" xlink:title="Finds the closest Vertex object hold by Mesh objects. ">
<polygon fill="#ffffff" stroke="#000000" points="404,-289 404,-319 550,-319 550,-289 404,-289"/>
<text text-anchor="start" x="412" y="-307" font-family="Helvetica,sans-Serif" font-size="10.00" fill="#000000">precice::query::FindClosest</text>
<text text-anchor="middle" x="477" y="-296" font-family="Helvetica,sans-Serif" font-size="10.00" fill="#000000">Vertex</text>
</a>
</g>
</g>
<!-- Node2&#45;&gt;Node1 -->
<g id="edge1" class="edge">
<title>Node2&#45;&gt;Node1</title>
<path fill="none" stroke="#9a32cd" stroke-dasharray="5,2" d="M560.2685,-306.0889C622.0187,-307.4597 708.258,-309 784,-309 784,-309 784,-309 1551,-309 1671.2247,-309 1796.5922,-216.0607 1834.4924,-185.565"/>
<polygon fill="#9a32cd" stroke="#9a32cd" points="560.2657,-302.588 550.1893,-305.8618 560.1079,-309.5862 560.2657,-302.588"/>
<text text-anchor="middle" x="1093" y="-312" font-family="Helvetica,sans-Serif" font-size="10.00" fill="#000000"> _findClosestVertex</text>
</g>
<!-- Node3 -->
<g id="node3" class="node">
<title>Node3</title>
<g id="a_node3"><a xlink:href="classprecice_1_1mesh_1_1Vertex.html" target="_top" xlink:title="Vertex of a mesh. ">
<polygon fill="#ffffff" stroke="#000000" points="0,-151.5 0,-170.5 122,-170.5 122,-151.5 0,-151.5"/>
<text text-anchor="middle" x="61" y="-158.5" font-family="Helvetica,sans-Serif" font-size="10.00" fill="#000000">precice::mesh::Vertex</text>
</a>
</g>
</g>
<!-- Node3&#45;&gt;Node2 -->
<g id="edge2" class="edge">
<title>Node3&#45;&gt;Node2</title>
<path fill="none" stroke="#9a32cd" stroke-dasharray="5,2" d="M78.105,-177.4059C107.2143,-204.195 169.4341,-256.6781 233,-280 287.9462,-300.1593 354.2588,-305.5868 403.8767,-306.292"/>
<polygon fill="#9a32cd" stroke="#9a32cd" points="80.4947,-174.8486 70.7991,-170.5769 75.7146,-179.9625 80.4947,-174.8486"/>
<text text-anchor="middle" x="177.5" y="-275" font-family="Helvetica,sans-Serif" font-size="10.00" fill="#000000"> _closestVertex</text>
</g>
<!-- Node12 -->
<g id="node12" class="node">
<title>Node12</title>
<polygon fill="#ffffff" stroke="#bfbfbf" points="250,-146 250,-176 369,-176 369,-146 250,-146"/>
<text text-anchor="start" x="258" y="-164" font-family="Helvetica,sans-Serif" font-size="10.00" fill="#000000">std::array&lt; precice</text>
<text text-anchor="middle" x="309.5" y="-153" font-family="Helvetica,sans-Serif" font-size="10.00" fill="#000000">::mesh::Vertex *, 2 &gt;</text>
</g>
<!-- Node3&#45;&gt;Node12 -->
<g id="edge12" class="edge">
<title>Node3&#45;&gt;Node12</title>
<path fill="none" stroke="#9a32cd" stroke-dasharray="5,2" d="M132.3839,-161C169.5987,-161 214.5911,-161 249.9157,-161"/>
<polygon fill="#9a32cd" stroke="#9a32cd" points="132.1082,-157.5001 122.1082,-161 132.1082,-164.5001 132.1082,-157.5001"/>
<text text-anchor="middle" x="177.5" y="-164" font-family="Helvetica,sans-Serif" font-size="10.00" fill="#000000"> elements</text>
</g>
<!-- Node19 -->
<g id="node19" class="node">
<title>Node19</title>
<g id="a_node19"><a xlink:href="structprecice_1_1query_1_1InterpolationElement.html" target="_top" xlink:title="Weighting and reference to target element for a value to interpolate. ">
<polygon fill="#ffffff" stroke="#000000" points="233,-92 233,-122 386,-122 386,-92 233,-92"/>
<text text-anchor="start" x="241" y="-110" font-family="Helvetica,sans-Serif" font-size="10.00" fill="#000000">precice::query::Interpolation</text>
<text text-anchor="middle" x="309.5" y="-99" font-family="Helvetica,sans-Serif" font-size="10.00" fill="#000000">Element</text>
</a>
</g>
</g>
<!-- Node3&#45;&gt;Node19 -->
<g id="edge23" class="edge">
<title>Node3&#45;&gt;Node19</title>
<path fill="none" stroke="#9a32cd" stroke-dasharray="5,2" d="M114.8789,-149.2919C151.635,-141.3047 200.649,-130.6537 240.2931,-122.0389"/>
<polygon fill="#9a32cd" stroke="#9a32cd" points="113.8835,-145.9265 104.8548,-151.4702 115.37,-152.7668 113.8835,-145.9265"/>
<text text-anchor="middle" x="177.5" y="-146" font-family="Helvetica,sans-Serif" font-size="10.00" fill="#000000"> element</text>
</g>
<!-- Node4 -->
<g id="node4" class="node">
<title>Node4</title>
<g id="a_node4"><a xlink:href="classprecice_1_1query_1_1FindClosestTriangle.html" target="_top" xlink:title="Finds the closest Triangle object contained in a Mesh object. ">
<polygon fill="#ffffff" stroke="#000000" points="1478,-161 1478,-191 1624,-191 1624,-161 1478,-161"/>
<text text-anchor="start" x="1486" y="-179" font-family="Helvetica,sans-Serif" font-size="10.00" fill="#000000">precice::query::FindClosest</text>
<text text-anchor="middle" x="1551" y="-168" font-family="Helvetica,sans-Serif" font-size="10.00" fill="#000000">Triangle</text>
</a>
</g>
</g>
<!-- Node4&#45;&gt;Node1 -->
<g id="edge3" class="edge">
<title>Node4&#45;&gt;Node1</title>
<path fill="none" stroke="#9a32cd" stroke-dasharray="5,2" d="M1634.3107,-176C1677.9126,-176 1730.8114,-176 1772.8215,-176"/>
<polygon fill="#9a32cd" stroke="#9a32cd" points="1634.3004,-172.5001 1624.3004,-176 1634.3003,-179.5001 1634.3004,-172.5001"/>
<text text-anchor="middle" x="1704.5" y="-179" font-family="Helvetica,sans-Serif" font-size="10.00" fill="#000000"> _findClosestTriangle</text>
</g>
<!-- Node5 -->
<g id="node5" class="node">
<title>Node5</title>
<g id="a_node5"><a xlink:href="classprecice_1_1logging_1_1Logger.html" target="_top" xlink:title="This class provides a leightweight logger. ">
<polygon fill="#ffffff" stroke="#000000" points="1158,-234.5 1158,-253.5 1291,-253.5 1291,-234.5 1158,-234.5"/>
<text text-anchor="middle" x="1224.5" y="-241.5" font-family="Helvetica,sans-Serif" font-size="10.00" fill="#000000">precice::logging::Logger</text>
</a>
</g>
</g>
<!-- Node5&#45;&gt;Node1 -->
<g id="edge19" class="edge">
<title>Node5&#45;&gt;Node1</title>
<path fill="none" stroke="#9a32cd" stroke-dasharray="5,2" d="M1294.2042,-254.6853C1299.2029,-255.2097 1304.1732,-255.659 1309,-256 1370.6242,-260.3538 1386.5258,-262.1171 1448,-256 1583.7072,-242.4961 1741.65,-203.7004 1810.6817,-185.5621"/>
<polygon fill="#9a32cd" stroke="#9a32cd" points="1294.2729,-251.1705 1283.9406,-253.5141 1293.4792,-258.1254 1294.2729,-251.1705"/>
<text text-anchor="middle" x="1551" y="-257" font-family="Helvetica,sans-Serif" font-size="10.00" fill="#000000"> _log</text>
</g>
<!-- Node5&#45;&gt;Node4 -->
<g id="edge4" class="edge">
<title>Node5&#45;&gt;Node4</title>
<path fill="none" stroke="#9a32cd" stroke-dasharray="5,2" d="M1301.2715,-242.5251C1344.9028,-240.1843 1400.199,-234.6686 1448,-222 1474.8815,-214.8757 1503.6322,-201.5017 1523.9076,-191.0033"/>
<polygon fill="#9a32cd" stroke="#9a32cd" points="1300.8289,-239.0425 1291.0126,-243.0289 1301.1723,-246.0341 1300.8289,-239.0425"/>
<text text-anchor="middle" x="1378.5" y="-244" font-family="Helvetica,sans-Serif" font-size="10.00" fill="#000000"> _log</text>
</g>
<!-- Node15 -->
<g id="node15" class="node">
<title>Node15</title>
<g id="a_node15"><a xlink:href="classprecice_1_1query_1_1FindClosestEdge.html" target="_top" xlink:title="Finds the closest Edge object contained in Mesh objects. ">
<polygon fill="#ffffff" stroke="#000000" points="1466,-106.5 1466,-125.5 1636,-125.5 1636,-106.5 1466,-106.5"/>
<text text-anchor="middle" x="1551" y="-113.5" font-family="Helvetica,sans-Serif" font-size="10.00" fill="#000000">precice::query::FindClosestEdge</text>
</a>
</g>
</g>
<!-- Node5&#45;&gt;Node15 -->
<g id="edge16" class="edge">
<title>Node5&#45;&gt;Node15</title>
<path fill="none" stroke="#9a32cd" stroke-dasharray="5,2" d="M1253.1951,-230.0718C1269.2676,-222.7951 1289.8704,-214.3214 1309,-209 1369.1933,-192.2557 1397.4619,-224.7357 1448,-188 1462.4697,-177.4821 1452.9586,-164.2443 1466,-152 1479.2023,-139.6046 1497.3108,-131.1378 1513.4219,-125.5465"/>
<polygon fill="#9a32cd" stroke="#9a32cd" points="1251.4309,-227.0316 1243.8267,-234.409 1254.3719,-233.3838 1251.4309,-227.0316"/>
<text text-anchor="middle" x="1378.5" y="-212" font-family="Helvetica,sans-Serif" font-size="10.00" fill="#000000"> _log</text>
</g>
<!-- Node6 -->
<g id="node6" class="node">
<title>Node6</title>
<polygon fill="#ffffff" stroke="#bfbfbf" points="858,-229 858,-259 1028,-259 1028,-229 858,-229"/>
<text text-anchor="start" x="866" y="-247" font-family="Helvetica,sans-Serif" font-size="10.00" fill="#000000">std::unique_ptr&lt; precice</text>
<text text-anchor="middle" x="943" y="-236" font-family="Helvetica,sans-Serif" font-size="10.00" fill="#000000">::logging::Logger::LoggerImpl &gt;</text>
</g>
<!-- Node6&#45;&gt;Node5 -->
<g id="edge5" class="edge">
<title>Node6&#45;&gt;Node5</title>
<path fill="none" stroke="#9a32cd" stroke-dasharray="5,2" d="M1038.3529,-244C1077.6382,-244 1122.2079,-244 1157.8846,-244"/>
<polygon fill="#9a32cd" stroke="#9a32cd" points="1038.2232,-240.5001 1028.2232,-244 1038.2232,-247.5001 1038.2232,-240.5001"/>
<text text-anchor="middle" x="1093" y="-247" font-family="Helvetica,sans-Serif" font-size="10.00" fill="#000000"> _impl</text>
</g>
<!-- Node7 -->
<g id="node7" class="node">
<title>Node7</title>
<g id="a_node7"><a xlink:href="classprecice_1_1logging_1_1Logger_1_1LoggerImpl.html" target="_top" xlink:title="precice::logging::Logger\l::LoggerImpl">
<polygon fill="#ffffff" stroke="#000000" points="572.5,-229 572.5,-259 705.5,-259 705.5,-229 572.5,-229"/>
<text text-anchor="start" x="580.5" y="-247" font-family="Helvetica,sans-Serif" font-size="10.00" fill="#000000">precice::logging::Logger</text>
<text text-anchor="middle" x="639" y="-236" font-family="Helvetica,sans-Serif" font-size="10.00" fill="#000000">::LoggerImpl</text>
</a>
</g>
</g>
<!-- Node7&#45;&gt;Node6 -->
<g id="edge6" class="edge">
<title>Node7&#45;&gt;Node6</title>
<path fill="none" stroke="#9a32cd" stroke-dasharray="5,2" d="M715.9069,-244C759.2017,-244 813.3518,-244 857.9148,-244"/>
<polygon fill="#9a32cd" stroke="#9a32cd" points="715.7141,-240.5001 705.7141,-244 715.7141,-247.5001 715.7141,-240.5001"/>
<text text-anchor="middle" x="784" y="-247" font-family="Helvetica,sans-Serif" font-size="10.00" fill="#000000"> ptr</text>
</g>
<!-- Node8 -->
<g id="node8" class="node">
<title>Node8</title>
<polygon fill="#ffffff" stroke="#bfbfbf" points="241,-218 241,-270 378,-270 378,-218 241,-218"/>
<text text-anchor="start" x="249" y="-258" font-family="Helvetica,sans-Serif" font-size="10.00" fill="#000000">boost::log::sources</text>
<text text-anchor="start" x="249" y="-247" font-family="Helvetica,sans-Serif" font-size="10.00" fill="#000000">::severity_logger&lt; boost</text>
<text text-anchor="start" x="249" y="-236" font-family="Helvetica,sans-Serif" font-size="10.00" fill="#000000">::log::trivial::severity</text>
<text text-anchor="middle" x="309.5" y="-225" font-family="Helvetica,sans-Serif" font-size="10.00" fill="#000000">_level &gt;</text>
</g>
<!-- Node8&#45;&gt;Node7 -->
<g id="edge7" class="edge">
<title>Node8&#45;&gt;Node7</title>
<path fill="none" stroke="#191970" d="M388.4356,-244C444.5986,-244 519.219,-244 572.3855,-244"/>
<polygon fill="#191970" stroke="#191970" points="388.173,-240.5001 378.1729,-244 388.1729,-247.5001 388.173,-240.5001"/>
</g>
<!-- Node9 -->
<g id="node9" class="node">
<title>Node9</title>
<g id="a_node9"><a xlink:href="classprecice_1_1mesh_1_1Triangle.html" target="_top" xlink:title="Triangle of a mesh, defined by three edges (and vertices). ">
<polygon fill="#ffffff" stroke="#000000" points="1160,-174.5 1160,-193.5 1289,-193.5 1289,-174.5 1160,-174.5"/>
<text text-anchor="middle" x="1224.5" y="-181.5" font-family="Helvetica,sans-Serif" font-size="10.00" fill="#000000">precice::mesh::Triangle</text>
</a>
</g>
</g>
<!-- Node9&#45;&gt;Node4 -->
<g id="edge8" class="edge">
<title>Node9&#45;&gt;Node4</title>
<path fill="none" stroke="#9a32cd" stroke-dasharray="5,2" d="M1299.1254,-177.4983C1302.4612,-177.3085 1305.7646,-177.1405 1309,-177 1365.6658,-174.5396 1429.8651,-174.3961 1477.894,-174.81"/>
<polygon fill="#9a32cd" stroke="#9a32cd" points="1298.8187,-174.0106 1289.0564,-178.1273 1299.2552,-180.9969 1298.8187,-174.0106"/>
<text text-anchor="middle" x="1378.5" y="-180" font-family="Helvetica,sans-Serif" font-size="10.00" fill="#000000"> _closestTriangle</text>
</g>
<!-- Node10 -->
<g id="node10" class="node">
<title>Node10</title>
<polygon fill="#ffffff" stroke="#bfbfbf" points="887.5,-169 887.5,-199 998.5,-199 998.5,-169 887.5,-169"/>
<text text-anchor="start" x="895.5" y="-187" font-family="Helvetica,sans-Serif" font-size="10.00" fill="#000000">std::array&lt; precice</text>
<text text-anchor="middle" x="943" y="-176" font-family="Helvetica,sans-Serif" font-size="10.00" fill="#000000">::mesh::Edge *, 3 &gt;</text>
</g>
<!-- Node10&#45;&gt;Node9 -->
<g id="edge9" class="edge">
<title>Node10&#45;&gt;Node9</title>
<path fill="none" stroke="#9a32cd" stroke-dasharray="5,2" d="M1008.6802,-184C1054.2178,-184 1114.576,-184 1159.881,-184"/>
<polygon fill="#9a32cd" stroke="#9a32cd" points="1008.6154,-180.5001 998.6153,-184 1008.6153,-187.5001 1008.6154,-180.5001"/>
<text text-anchor="middle" x="1093" y="-187" font-family="Helvetica,sans-Serif" font-size="10.00" fill="#000000"> _edges</text>
</g>
<!-- Node11 -->
<g id="node11" class="node">
<title>Node11</title>
<g id="a_node11"><a xlink:href="classprecice_1_1mesh_1_1Edge.html" target="_top" xlink:title="Linear edge of a mesh, defined by two Vertex objects. ">
<polygon fill="#ffffff" stroke="#000000" points="581.5,-151.5 581.5,-170.5 696.5,-170.5 696.5,-151.5 581.5,-151.5"/>
<text text-anchor="middle" x="639" y="-158.5" font-family="Helvetica,sans-Serif" font-size="10.00" fill="#000000">precice::mesh::Edge</text>
</a>
</g>
</g>
<!-- Node11&#45;&gt;Node10 -->
<g id="edge10" class="edge">
<title>Node11&#45;&gt;Node10</title>
<path fill="none" stroke="#9a32cd" stroke-dasharray="5,2" d="M706.7824,-166.1283C761.1885,-170.2445 836.6294,-175.9522 887.4928,-179.8004"/>
<polygon fill="#9a32cd" stroke="#9a32cd" points="706.773,-162.6177 696.5375,-165.3532 706.2449,-169.5977 706.773,-162.6177"/>
<text text-anchor="middle" x="784" y="-178" font-family="Helvetica,sans-Serif" font-size="10.00" fill="#000000"> elements</text>
</g>
<!-- Node11&#45;&gt;Node15 -->
<g id="edge18" class="edge">
<title>Node11&#45;&gt;Node15</title>
<path fill="none" stroke="#9a32cd" stroke-dasharray="5,2" d="M695.3564,-149.5142C739.4762,-140.8117 802.4606,-129.0228 858,-121 1048.9869,-93.4113 1098.2215,-80.4218 1291,-89 1360.9854,-92.1142 1378.3478,-95.5015 1448,-103 1457.7665,-104.0514 1468.0429,-105.2444 1478.1693,-106.4709"/>
<polygon fill="#9a32cd" stroke="#9a32cd" points="694.5302,-146.1099 685.4021,-151.4885 695.892,-152.9761 694.5302,-146.1099"/>
<text text-anchor="middle" x="1093" y="-97" font-family="Helvetica,sans-Serif" font-size="10.00" fill="#000000"> _closestEdge</text>
</g>
<!-- Node12&#45;&gt;Node11 -->
<g id="edge11" class="edge">
<title>Node12&#45;&gt;Node11</title>
<path fill="none" stroke="#9a32cd" stroke-dasharray="5,2" d="M379.3367,-161C439.4588,-161 525.1738,-161 581.4303,-161"/>
<polygon fill="#9a32cd" stroke="#9a32cd" points="379.17,-157.5001 369.17,-161 379.1699,-164.5001 379.17,-157.5001"/>
<text text-anchor="middle" x="477" y="-164" font-family="Helvetica,sans-Serif" font-size="10.00" fill="#000000"> _vertices</text>
</g>
<!-- Node13 -->
<g id="node13" class="node">
<title>Node13</title>
<polygon fill="#ffffff" stroke="#bfbfbf" points="883.5,-130.5 883.5,-149.5 1002.5,-149.5 1002.5,-130.5 883.5,-130.5"/>
<text text-anchor="middle" x="943" y="-137.5" font-family="Helvetica,sans-Serif" font-size="10.00" fill="#000000">std::array&lt; bool, 3 &gt;</text>
</g>
<!-- Node13&#45;&gt;Node9 -->
<g id="edge13" class="edge">
<title>Node13&#45;&gt;Node9</title>
<path fill="none" stroke="#9a32cd" stroke-dasharray="5,2" d="M1012.9171,-149.78C1050.606,-155.181 1097.8923,-162.1649 1140,-169 1150.442,-170.695 1161.5916,-172.6036 1172.2532,-174.4769"/>
<polygon fill="#9a32cd" stroke="#9a32cd" points="1012.9481,-146.249 1002.5537,-148.3001 1011.9584,-153.1787 1012.9481,-146.249"/>
<text text-anchor="middle" x="1093" y="-172" font-family="Helvetica,sans-Serif" font-size="10.00" fill="#000000"> _vertexMap</text>
</g>
<!-- Node14 -->
<g id="node14" class="node">
<title>Node14</title>
<polygon fill="#ffffff" stroke="#bfbfbf" points="1159,-136.5 1159,-155.5 1290,-155.5 1290,-136.5 1159,-136.5"/>
<text text-anchor="middle" x="1224.5" y="-143.5" font-family="Helvetica,sans-Serif" font-size="10.00" fill="#000000">std::array&lt; double, 3 &gt;</text>
</g>
<!-- Node14&#45;&gt;Node4 -->
<g id="edge14" class="edge">
<title>Node14&#45;&gt;Node4</title>
<path fill="none" stroke="#9a32cd" stroke-dasharray="5,2" d="M1300.3602,-148.4245C1343.6988,-150.3066 1399.0058,-153.5473 1448,-159 1457.7268,-160.0825 1467.9331,-161.4648 1477.9838,-162.9721"/>
<polygon fill="#9a32cd" stroke="#9a32cd" points="1300.3151,-144.9196 1290.1772,-147.9976 1300.0218,-151.9134 1300.3151,-144.9196"/>
<text text-anchor="middle" x="1378.5" y="-162" font-family="Helvetica,sans-Serif" font-size="10.00" fill="#000000"> _parametersProjectionPoint</text>
</g>
<!-- Node15&#45;&gt;Node1 -->
<g id="edge15" class="edge">
<title>Node15&#45;&gt;Node1</title>
<path fill="none" stroke="#9a32cd" stroke-dasharray="5,2" d="M1607.7802,-127.5485C1663.3576,-138.8524 1747.0294,-155.8704 1798.9876,-166.4382"/>
<polygon fill="#9a32cd" stroke="#9a32cd" points="1608.2406,-124.0706 1597.7436,-125.5072 1606.8454,-130.9301 1608.2406,-124.0706"/>
<text text-anchor="middle" x="1704.5" y="-159" font-family="Helvetica,sans-Serif" font-size="10.00" fill="#000000"> _findClosestEdge</text>
</g>
<!-- Node16 -->
<g id="node16" class="node">
<title>Node16</title>
<polygon fill="#ffffff" stroke="#bfbfbf" points="1159,-98.5 1159,-117.5 1290,-117.5 1290,-98.5 1159,-98.5"/>
<text text-anchor="middle" x="1224.5" y="-105.5" font-family="Helvetica,sans-Serif" font-size="10.00" fill="#000000">std::array&lt; double, 2 &gt;</text>
</g>
<!-- Node16&#45;&gt;Node15 -->
<g id="edge17" class="edge">
<title>Node16&#45;&gt;Node15</title>
<path fill="none" stroke="#9a32cd" stroke-dasharray="5,2" d="M1300.2169,-107.1478C1343.5095,-106.9588 1398.8182,-107.2205 1448,-109 1453.8212,-109.2106 1459.8245,-109.4806 1465.8697,-109.7914"/>
<polygon fill="#9a32cd" stroke="#9a32cd" points="1300.0272,-103.6486 1290.0458,-107.2014 1300.0642,-110.6485 1300.0272,-103.6486"/>
<text text-anchor="middle" x="1378.5" y="-112" font-family="Helvetica,sans-Serif" font-size="10.00" fill="#000000"> _parametersProjectionPoint</text>
</g>
<!-- Node17 -->
<g id="node17" class="node">
<title>Node17</title>
<g id="a_node17"><a xlink:href="structprecice_1_1query_1_1ClosestElement.html" target="_top" xlink:title="Closest element to all objects with given mesh ID. ">
<polygon fill="#ffffff" stroke="#000000" points="859.5,-22.5 859.5,-41.5 1026.5,-41.5 1026.5,-22.5 859.5,-22.5"/>
<text text-anchor="middle" x="943" y="-29.5" font-family="Helvetica,sans-Serif" font-size="10.00" fill="#000000">precice::query::ClosestElement</text>
</a>
</g>
</g>
<!-- Node17&#45;&gt;Node1 -->
<g id="edge20" class="edge">
<title>Node17&#45;&gt;Node1</title>
<path fill="none" stroke="#9a32cd" stroke-dasharray="5,2" d="M1036.8323,-34.0249C1171.01,-38.4455 1424.8229,-52.4853 1636,-97 1690.0679,-108.3971 1703.4354,-113.1423 1755,-133 1780.9269,-142.9845 1809.7517,-157.154 1827.8731,-166.4583"/>
<polygon fill="#9a32cd" stroke="#9a32cd" points="1036.6984,-30.5189 1026.592,-33.6986 1036.4754,-37.5154 1036.6984,-30.5189"/>
<text text-anchor="middle" x="1378.5" y="-68" font-family="Helvetica,sans-Serif" font-size="10.00" fill="#000000"> _closest</text>
</g>
<!-- Node18 -->
<g id="node18" class="node">
<title>Node18</title>
<polygon fill="#ffffff" stroke="#bfbfbf" points="568,-79 568,-109 710,-109 710,-79 568,-79"/>
<text text-anchor="start" x="576" y="-97" font-family="Helvetica,sans-Serif" font-size="10.00" fill="#000000">std::vector&lt; Interpolation</text>
<text text-anchor="middle" x="639" y="-86" font-family="Helvetica,sans-Serif" font-size="10.00" fill="#000000">Element &gt;</text>
</g>
<!-- Node18&#45;&gt;Node17 -->
<g id="edge21" class="edge">
<title>Node18&#45;&gt;Node17</title>
<path fill="none" stroke="#9a32cd" stroke-dasharray="5,2" d="M668.816,-73.2116C685.4428,-62.7752 706.986,-51.0844 728,-45 770.2051,-32.7799 818.9606,-29.0388 859.3622,-28.5676"/>
<polygon fill="#9a32cd" stroke="#9a32cd" points="666.6149,-70.4669 660.1192,-78.8369 670.4167,-76.3445 666.6149,-70.4669"/>
<text text-anchor="middle" x="784" y="-48" font-family="Helvetica,sans-Serif" font-size="10.00" fill="#000000"> interpolationElements</text>
</g>
<!-- Node19&#45;&gt;Node18 -->
<g id="edge22" class="edge">
<title>Node19&#45;&gt;Node18</title>
<path fill="none" stroke="#9a32cd" stroke-dasharray="5,2" d="M396.4964,-103.5677C449.9985,-101.4568 517.6963,-98.7859 567.9593,-96.8028"/>
<polygon fill="#9a32cd" stroke="#9a32cd" points="396.1915,-100.0769 386.3373,-103.9685 396.4675,-107.0714 396.1915,-100.0769"/>
<text text-anchor="middle" x="477" y="-106" font-family="Helvetica,sans-Serif" font-size="10.00" fill="#000000"> elements</text>
</g>
<!-- Node20 -->
<g id="node20" class="node">
<title>Node20</title>
<polygon fill="#ffffff" stroke="#bfbfbf" points="587,-.5 587,-19.5 691,-19.5 691,-.5 587,-.5"/>
<text text-anchor="middle" x="639" y="-7.5" font-family="Helvetica,sans-Serif" font-size="10.00" fill="#000000">std::vector&lt; int &gt;</text>
</g>
<!-- Node20&#45;&gt;Node17 -->
<g id="edge24" class="edge">
<title>Node20&#45;&gt;Node17</title>
<path fill="none" stroke="#9a32cd" stroke-dasharray="5,2" d="M701.2941,-7.1732C741.0785,-6.1418 793.6993,-6.2117 840,-11 861.7836,-13.2528 885.7769,-18.0079 905.1219,-22.4243"/>
<polygon fill="#9a32cd" stroke="#9a32cd" points="701.1034,-3.6772 691.2089,-7.4652 701.3061,-10.6743 701.1034,-3.6772"/>
<text text-anchor="middle" x="784" y="-14" font-family="Helvetica,sans-Serif" font-size="10.00" fill="#000000"> meshIDs</text>
</g>
</g>
</svg>
