<?xml version="1.0" encoding="UTF-8" standalone="no"?>
<!DOCTYPE svg PUBLIC "-//W3C//DTD SVG 1.1//EN"
 "http://www.w3.org/Graphics/SVG/1.1/DTD/svg11.dtd">
<!-- Generated by graphviz version 2.40.1 (20161225.0304)
 -->
<!-- Title: precice::action::ActionConfiguration::ActionConfiguration Pages: 1 -->
<svg width="373pt" height="78pt"
 viewBox="0.00 0.00 373.00 77.50" xmlns="http://www.w3.org/2000/svg" xmlns:xlink="http://www.w3.org/1999/xlink">
<g id="graph0" class="graph" transform="scale(1 1) rotate(0) translate(4 73.5)">
<title>precice::action::ActionConfiguration::ActionConfiguration</title>
<polygon fill="#ffffff" stroke="transparent" points="-4,4 -4,-73.5 369,-73.5 369,4 -4,4"/>
<!-- Node0 -->
<g id="node1" class="node">
<title>Node0</title>
<polygon fill="#bfbfbf" stroke="#000000" points="0,-22.5 0,-52.5 172,-52.5 172,-22.5 0,-22.5"/>
<text text-anchor="start" x="8" y="-40.5" font-family="Helvetica,sans-Serif" font-size="10.00" fill="#000000">precice::action::ActionConfiguration</text>
<text text-anchor="middle" x="86" y="-29.5" font-family="Helvetica,sans-Serif" font-size="10.00" fill="#000000">::ActionConfiguration</text>
</g>
<!-- Node1 -->
<g id="node2" class="node">
<title>Node1</title>
<g id="a_node2"><a xlink:href="namespaceprecice_1_1xml.html#a89fcda8bdfaf70ef8ed7914aebf01945" target="_top" xlink:title="precice::xml::makeXMLAttribute">
<polygon fill="#ffffff" stroke="#000000" points="208,-50 208,-69 365,-69 365,-50 208,-50"/>
<text text-anchor="middle" x="286.5" y="-57" font-family="Helvetica,sans-Serif" font-size="10.00" fill="#000000">precice::xml::makeXMLAttribute</text>
</a>
</g>
</g>
<!-- Node0&#45;&gt;Node1 -->
<g id="edge1" class="edge">
<title>Node0&#45;&gt;Node1</title>
<path fill="none" stroke="#191970" d="M172.1936,-46.9577C180.7377,-47.8952 189.4207,-48.8479 197.9878,-49.7879"/>
<polygon fill="#191970" stroke="#191970" points="197.6542,-53.2723 207.9763,-50.8839 198.4178,-46.314 197.6542,-53.2723"/>
</g>
<!-- Node2 -->
<g id="node3" class="node">
<title>Node2</title>
<g id="a_node3"><a xlink:href="classprecice_1_1xml_1_1XMLTag.html#af81dc6eea2b9a75e14ddd6033ed9a1d4" target="_top" xlink:title="Adds an XML tag as subtag by making a copy of the given tag. ">
<polygon fill="#ffffff" stroke="#000000" points="230,-.5 230,-30.5 343,-30.5 343,-.5 230,-.5"/>
<text text-anchor="start" x="238" y="-18.5" font-family="Helvetica,sans-Serif" font-size="10.00" fill="#000000">precice::xml::XMLTag</text>
<text text-anchor="middle" x="286.5" y="-7.5" font-family="Helvetica,sans-Serif" font-size="10.00" fill="#000000">::addSubtag</text>
</a>
</g>
</g>
<!-- Node0&#45;&gt;Node2 -->
<g id="edge2" class="edge">
<title>Node0&#45;&gt;Node2</title>
<path fill="none" stroke="#191970" d="M172.1936,-28.0423C188.0612,-26.3013 204.408,-24.5076 219.6014,-22.8405"/>
<polygon fill="#191970" stroke="#191970" points="220.357,-26.2787 229.9156,-21.7088 219.5934,-19.3204 220.357,-26.2787"/>
</g>
</g>
</svg>
