<?xml version="1.0" encoding="UTF-8" standalone="no"?>
<!DOCTYPE svg PUBLIC "-//W3C//DTD SVG 1.1//EN"
 "http://www.w3.org/Graphics/SVG/1.1/DTD/svg11.dtd">
<!-- Generated by graphviz version 2.40.1 (20161225.0304)
 -->
<!-- Title: precice::acceleration::impl::ParallelMatrixOperations::multiply Pages: 1 -->
<svg width="359pt" height="137pt"
 viewBox="0.00 0.00 359.00 137.00" xmlns="http://www.w3.org/2000/svg" xmlns:xlink="http://www.w3.org/1999/xlink">
<g id="graph0" class="graph" transform="scale(1 1) rotate(0) translate(4 133)">
<title>precice::acceleration::impl::ParallelMatrixOperations::multiply</title>
<polygon fill="#ffffff" stroke="transparent" points="-4,4 -4,-133 355,-133 355,4 -4,4"/>
<!-- Node39 -->
<g id="node1" class="node">
<title>Node39</title>
<polygon fill="#bfbfbf" stroke="#000000" points="0,-44 0,-85 170,-85 170,-44 0,-44"/>
<text text-anchor="start" x="8" y="-73" font-family="Helvetica,sans-Serif" font-size="10.00" fill="#000000">precice::acceleration</text>
<text text-anchor="start" x="8" y="-62" font-family="Helvetica,sans-Serif" font-size="10.00" fill="#000000">::impl::ParallelMatrixOperations</text>
<text text-anchor="middle" x="85" y="-51" font-family="Helvetica,sans-Serif" font-size="10.00" fill="#000000">::multiply</text>
</g>
<!-- Node40 -->
<g id="node2" class="node">
<title>Node40</title>
<g id="a_node2"><a xlink:href="classprecice_1_1utils_1_1MasterSlave.html#a5e934392c32335daa8e2b4a01bc75fd3" target="_top" xlink:title="True if this process is running the master. ">
<polygon fill="#ffffff" stroke="#000000" points="206,-98.5 206,-128.5 351,-128.5 351,-98.5 206,-98.5"/>
<text text-anchor="start" x="214" y="-116.5" font-family="Helvetica,sans-Serif" font-size="10.00" fill="#000000">precice::utils::MasterSlave</text>
<text text-anchor="middle" x="278.5" y="-105.5" font-family="Helvetica,sans-Serif" font-size="10.00" fill="#000000">::isMaster</text>
</a>
</g>
</g>
<!-- Node39&#45;&gt;Node40 -->
<g id="edge1" class="edge">
<title>Node39&#45;&gt;Node40</title>
<path fill="none" stroke="#191970" d="M166.2204,-85.0674C180.535,-88.6923 195.3153,-92.4351 209.2634,-95.9672"/>
<polygon fill="#191970" stroke="#191970" points="208.701,-99.4352 219.2543,-98.4972 210.4195,-92.6494 208.701,-99.4352"/>
</g>
<!-- Node41 -->
<g id="node3" class="node">
<title>Node41</title>
<g id="a_node3"><a xlink:href="classprecice_1_1utils_1_1MasterSlave.html#a3837ad42361b53d7e930443ba07a9eb5" target="_top" xlink:title="True if this process is running a slave. ">
<polygon fill="#ffffff" stroke="#000000" points="206,-49.5 206,-79.5 351,-79.5 351,-49.5 206,-49.5"/>
<text text-anchor="start" x="214" y="-67.5" font-family="Helvetica,sans-Serif" font-size="10.00" fill="#000000">precice::utils::MasterSlave</text>
<text text-anchor="middle" x="278.5" y="-56.5" font-family="Helvetica,sans-Serif" font-size="10.00" fill="#000000">::isSlave</text>
</a>
</g>
</g>
<!-- Node39&#45;&gt;Node41 -->
<g id="edge2" class="edge">
<title>Node39&#45;&gt;Node41</title>
<path fill="none" stroke="#191970" d="M170.1535,-64.5C178.5874,-64.5 187.1406,-64.5 195.5517,-64.5"/>
<polygon fill="#191970" stroke="#191970" points="195.7234,-68.0001 205.7234,-64.5 195.7234,-61.0001 195.7234,-68.0001"/>
</g>
<!-- Node42 -->
<g id="node4" class="node">
<title>Node42</title>
<g id="a_node4"><a xlink:href="classprecice_1_1utils_1_1MasterSlave.html#a5495a21e8779643af56152273c123ae2" target="_top" xlink:title="precice::utils::MasterSlave\l::allreduceSum">
<polygon fill="#ffffff" stroke="#000000" points="206,-.5 206,-30.5 351,-30.5 351,-.5 206,-.5"/>
<text text-anchor="start" x="214" y="-18.5" font-family="Helvetica,sans-Serif" font-size="10.00" fill="#000000">precice::utils::MasterSlave</text>
<text text-anchor="middle" x="278.5" y="-7.5" font-family="Helvetica,sans-Serif" font-size="10.00" fill="#000000">::allreduceSum</text>
</a>
</g>
</g>
<!-- Node39&#45;&gt;Node42 -->
<g id="edge3" class="edge">
<title>Node39&#45;&gt;Node42</title>
<path fill="none" stroke="#191970" d="M166.2204,-43.9326C180.535,-40.3077 195.3153,-36.5649 209.2634,-33.0328"/>
<polygon fill="#191970" stroke="#191970" points="210.4195,-36.3506 219.2543,-30.5028 208.701,-29.5648 210.4195,-36.3506"/>
</g>
</g>
</svg>
