<?xml version="1.0" encoding="UTF-8" standalone="no"?>
<!DOCTYPE svg PUBLIC "-//W3C//DTD SVG 1.1//EN"
 "http://www.w3.org/Graphics/SVG/1.1/DTD/svg11.dtd">
<!-- Generated by graphviz version 2.40.1 (20161225.0304)
 -->
<!-- Title: precice::impl::SolverInterfaceImpl::getMeshVertexIDsFromPositions Pages: 1 -->
<svg width="405pt" height="78pt"
 viewBox="0.00 0.00 405.00 77.50" xmlns="http://www.w3.org/2000/svg" xmlns:xlink="http://www.w3.org/1999/xlink">
<g id="graph0" class="graph" transform="scale(1 1) rotate(0) translate(4 73.5)">
<title>precice::impl::SolverInterfaceImpl::getMeshVertexIDsFromPositions</title>
<polygon fill="#ffffff" stroke="transparent" points="-4,4 -4,-73.5 401,-73.5 401,4 -4,4"/>
<!-- Node136 -->
<g id="node1" class="node">
<title>Node136</title>
<polygon fill="#bfbfbf" stroke="#000000" points="0,-17 0,-47 201,-47 201,-17 0,-17"/>
<text text-anchor="start" x="8" y="-35" font-family="Helvetica,sans-Serif" font-size="10.00" fill="#000000">precice::impl::SolverInterface</text>
<text text-anchor="middle" x="100.5" y="-24" font-family="Helvetica,sans-Serif" font-size="10.00" fill="#000000">Impl::getMeshVertexIDsFromPositions</text>
</g>
<!-- Node137 -->
<g id="node2" class="node">
<title>Node137</title>
<g id="a_node2"><a xlink:href="classprecice_1_1impl_1_1SolverInterfaceImpl.html#abafb6219d109dc3cdaab56cc1814ab82" target="_top" xlink:title="Allows to access a registered mesh. ">
<polygon fill="#ffffff" stroke="#000000" points="237,-39 237,-69 397,-69 397,-39 237,-39"/>
<text text-anchor="start" x="245" y="-57" font-family="Helvetica,sans-Serif" font-size="10.00" fill="#000000">precice::impl::SolverInterface</text>
<text text-anchor="middle" x="317" y="-46" font-family="Helvetica,sans-Serif" font-size="10.00" fill="#000000">Impl::mesh</text>
</a>
</g>
</g>
<!-- Node136&#45;&gt;Node137 -->
<g id="edge1" class="edge">
<title>Node136&#45;&gt;Node137</title>
<path fill="none" stroke="#191970" d="M201.1442,-42.2271C209.6228,-43.0887 218.1639,-43.9566 226.5581,-44.8096"/>
<polygon fill="#191970" stroke="#191970" points="226.4076,-48.3122 236.7103,-45.8412 227.1154,-41.3481 226.4076,-48.3122"/>
</g>
<!-- Node138 -->
<g id="node3" class="node">
<title>Node138</title>
<g id="a_node3"><a xlink:href="namespaceprecice_1_1math.html#a0e86802cfe992deba131d789d035b5b7" target="_top" xlink:title="Compares two Eigen::MatrixBase for equality up to tolerance. ">
<polygon fill="#ffffff" stroke="#000000" points="256,-.5 256,-19.5 378,-19.5 378,-.5 256,-.5"/>
<text text-anchor="middle" x="317" y="-7.5" font-family="Helvetica,sans-Serif" font-size="10.00" fill="#000000">precice::math::equals</text>
</a>
</g>
</g>
<!-- Node136&#45;&gt;Node138 -->
<g id="edge2" class="edge">
<title>Node136&#45;&gt;Node138</title>
<path fill="none" stroke="#191970" d="M201.1442,-21.7729C216.1612,-20.2469 231.3743,-18.701 245.6199,-17.2534"/>
<polygon fill="#191970" stroke="#191970" points="246.2104,-20.7115 255.8053,-16.2184 245.5027,-13.7474 246.2104,-20.7115"/>
</g>
</g>
</svg>
