<?xml version="1.0" encoding="UTF-8" standalone="no"?>
<!DOCTYPE svg PUBLIC "-//W3C//DTD SVG 1.1//EN"
 "http://www.w3.org/Graphics/SVG/1.1/DTD/svg11.dtd">
<!-- Generated by graphviz version 2.40.1 (20161225.0304)
 -->
<!-- Title: precice::cplscheme::tests::DummyCouplingScheme::isActionRequired Pages: 1 -->
<svg width="390pt" height="110pt"
 viewBox="0.00 0.00 390.00 110.00" xmlns="http://www.w3.org/2000/svg" xmlns:xlink="http://www.w3.org/1999/xlink">
<g id="graph0" class="graph" transform="scale(1 1) rotate(0) translate(4 106)">
<title>precice::cplscheme::tests::DummyCouplingScheme::isActionRequired</title>
<polygon fill="#ffffff" stroke="transparent" points="-4,4 -4,-106 386,-106 386,4 -4,4"/>
<!-- Node20 -->
<g id="node1" class="node">
<title>Node20</title>
<polygon fill="#bfbfbf" stroke="#000000" points="0,-30.5 0,-71.5 173,-71.5 173,-30.5 0,-30.5"/>
<text text-anchor="start" x="8" y="-59.5" font-family="Helvetica,sans-Serif" font-size="10.00" fill="#000000">precice::cplscheme</text>
<text text-anchor="start" x="8" y="-48.5" font-family="Helvetica,sans-Serif" font-size="10.00" fill="#000000">::tests::DummyCouplingScheme</text>
<text text-anchor="middle" x="86.5" y="-37.5" font-family="Helvetica,sans-Serif" font-size="10.00" fill="#000000">::isActionRequired</text>
</g>
<!-- Node21 -->
<g id="node2" class="node">
<title>Node21</title>
<g id="a_node2"><a xlink:href="namespaceprecice_1_1cplscheme_1_1constants.html#ae6a2667f9452de16a239be70945c8172" target="_top" xlink:title="precice::cplscheme\l::constants::actionWriteIteration\lCheckpoint">
<polygon fill="#ffffff" stroke="#000000" points="209,-60.5 209,-101.5 382,-101.5 382,-60.5 209,-60.5"/>
<text text-anchor="start" x="217" y="-89.5" font-family="Helvetica,sans-Serif" font-size="10.00" fill="#000000">precice::cplscheme</text>
<text text-anchor="start" x="217" y="-78.5" font-family="Helvetica,sans-Serif" font-size="10.00" fill="#000000">::constants::actionWriteIteration</text>
<text text-anchor="middle" x="295.5" y="-67.5" font-family="Helvetica,sans-Serif" font-size="10.00" fill="#000000">Checkpoint</text>
</a>
</g>
</g>
<!-- Node20&#45;&gt;Node21 -->
<g id="edge1" class="edge">
<title>Node20&#45;&gt;Node21</title>
<path fill="none" stroke="#191970" d="M173.017,-63.4187C181.492,-64.6352 190.1298,-65.8751 198.6982,-67.105"/>
<polygon fill="#191970" stroke="#191970" points="198.3151,-70.5858 208.711,-68.5422 199.3098,-63.6568 198.3151,-70.5858"/>
</g>
<!-- Node22 -->
<g id="node3" class="node">
<title>Node22</title>
<g id="a_node3"><a xlink:href="namespaceprecice_1_1cplscheme_1_1constants.html#a6ee5e554181352c02568f33215195519" target="_top" xlink:title="precice::cplscheme\l::constants::actionReadIteration\lCheckpoint">
<polygon fill="#ffffff" stroke="#000000" points="210,-.5 210,-41.5 381,-41.5 381,-.5 210,-.5"/>
<text text-anchor="start" x="218" y="-29.5" font-family="Helvetica,sans-Serif" font-size="10.00" fill="#000000">precice::cplscheme</text>
<text text-anchor="start" x="218" y="-18.5" font-family="Helvetica,sans-Serif" font-size="10.00" fill="#000000">::constants::actionReadIteration</text>
<text text-anchor="middle" x="295.5" y="-7.5" font-family="Helvetica,sans-Serif" font-size="10.00" fill="#000000">Checkpoint</text>
</a>
</g>
</g>
<!-- Node20&#45;&gt;Node22 -->
<g id="edge2" class="edge">
<title>Node20&#45;&gt;Node22</title>
<path fill="none" stroke="#191970" d="M173.017,-38.5813C181.8289,-37.3164 190.8168,-36.0263 199.7197,-34.7484"/>
<polygon fill="#191970" stroke="#191970" points="200.3201,-38.1981 209.7213,-33.3127 199.3254,-31.2692 200.3201,-38.1981"/>
</g>
</g>
</svg>
