<?xml version="1.0" encoding="UTF-8" standalone="no"?>
<!DOCTYPE svg PUBLIC "-//W3C//DTD SVG 1.1//EN"
 "http://www.w3.org/Graphics/SVG/1.1/DTD/svg11.dtd">
<!-- Generated by graphviz version 2.40.1 (20161225.0304)
 -->
<!-- Title: precice::mapping::NearestProjectionMapping::computeMapping Pages: 1 -->
<!--zoomable 284 -->
<svg id="main" version="1.1" xmlns="http://www.w3.org/2000/svg" xmlns:xlink="http://www.w3.org/1999/xlink" xml:space="preserve" onload="init(evt)">
<style type="text/css"><![CDATA[
.edge:hover path { stroke: red; }
.edge:hover polygon { stroke: red; fill: red; }
]]></style>
<script type="text/javascript"><![CDATA[
var edges = document.getElementsByTagName('g');
if (edges && edges.length) {
  for (var i=0;i<edges.length;i++) {
    if (edges[i].id.substr(0,4)=='edge') {
      edges[i].setAttribute('class','edge');
    }
  }
}
]]></script>
        <defs>
                <circle id="rim" cx="0" cy="0" r="7"/>
                <circle id="rim2" cx="0" cy="0" r="3.5"/>
                <g id="zoomPlus">
                        <use xlink:href="#rim" fill="#404040">
                                <set attributeName="fill" to="#808080" begin="zoomplus.mouseover" end="zoomplus.mouseout"/>
                        </use>
                        <path d="M-4,0h8M0,-4v8" fill="none" stroke="white" stroke-width="1.5" pointer-events="none"/>
                </g>
                <g id="zoomMin">
                        <use xlink:href="#rim" fill="#404040">
                                <set attributeName="fill" to="#808080" begin="zoomminus.mouseover" end="zoomminus.mouseout"/>
                        </use>
                        <path d="M-4,0h8" fill="none" stroke="white" stroke-width="1.5" pointer-events="none"/>
                </g>
                <g id="dirArrow">
                        <path fill="none" stroke="white" stroke-width="1.5" d="M0,-3.0v7 M-2.5,-0.5L0,-3.0L2.5,-0.5"/>
                </g>
               <g id="resetDef">
                       <use xlink:href="#rim2" fill="#404040">
                               <set attributeName="fill" to="#808080" begin="reset.mouseover" end="reset.mouseout"/>
                       </use>
               </g>
        </defs>

<script type="text/javascript">
var viewWidth = 1215;
var viewHeight = 284;
var sectionId = 'dynsection-4';
</script>
<script xlink:href="svgpan.js"/>
<svg id="graph" class="graph">
<g id="viewport">
<title>precice::mapping::NearestProjectionMapping::computeMapping</title>
<polygon fill="#ffffff" stroke="transparent" points="-4,4 -4,-280 1211,-280 1211,4 -4,4"/>
<!-- Node32 -->
<g id="node1" class="node">
<title>Node32</title>
<polygon fill="#bfbfbf" stroke="#000000" points="0,-122.5 0,-152.5 197,-152.5 197,-122.5 0,-122.5"/>
<text text-anchor="start" x="8" y="-140.5" font-family="Helvetica,sans-Serif" font-size="10.00" fill="#000000">precice::mapping::Nearest</text>
<text text-anchor="middle" x="98.5" y="-129.5" font-family="Helvetica,sans-Serif" font-size="10.00" fill="#000000">ProjectionMapping::computeMapping</text>
</g>
<!-- Node33 -->
<g id="node2" class="node">
<title>Node33</title>
<g id="a_node2"><a xlink:href="classprecice_1_1mapping_1_1Mapping.html#a61c3c55af467ada2bdd735efa0f960e4" target="_top" xlink:title="Returns pointer to input mesh. ">
<polygon fill="#ffffff" stroke="#000000" points="241,-245.5 241,-275.5 389,-275.5 389,-245.5 241,-245.5"/>
<text text-anchor="start" x="249" y="-263.5" font-family="Helvetica,sans-Serif" font-size="10.00" fill="#000000">precice::mapping::Mapping</text>
<text text-anchor="middle" x="315" y="-252.5" font-family="Helvetica,sans-Serif" font-size="10.00" fill="#000000">::input</text>
</a>
</g>
</g>
<!-- Node32&#45;&gt;Node33 -->
<g id="edge1" class="edge">
<title>Node32&#45;&gt;Node33</title>
<path fill="none" stroke="#191970" d="M115.0604,-152.7328C139.2613,-174.2483 186.4865,-213.4767 233,-236.5 236.8137,-238.3877 240.8024,-240.1537 244.8789,-241.8016"/>
<polygon fill="#191970" stroke="#191970" points="243.9176,-245.1797 254.5094,-245.434 246.388,-238.6301 243.9176,-245.1797"/>
</g>
<!-- Node34 -->
<g id="node3" class="node">
<title>Node34</title>
<g id="a_node3"><a xlink:href="classprecice_1_1mapping_1_1Mapping.html#a07a71a54b71eda6d54510c94fb188e70" target="_top" xlink:title="Returns pointer to output mesh. ">
<polygon fill="#ffffff" stroke="#000000" points="241,-196.5 241,-226.5 389,-226.5 389,-196.5 241,-196.5"/>
<text text-anchor="start" x="249" y="-214.5" font-family="Helvetica,sans-Serif" font-size="10.00" fill="#000000">precice::mapping::Mapping</text>
<text text-anchor="middle" x="315" y="-203.5" font-family="Helvetica,sans-Serif" font-size="10.00" fill="#000000">::output</text>
</a>
</g>
</g>
<!-- Node32&#45;&gt;Node34 -->
<g id="edge2" class="edge">
<title>Node32&#45;&gt;Node34</title>
<path fill="none" stroke="#191970" d="M136.7969,-152.5646C163.5704,-162.8922 200.2519,-176.6359 233,-187.5 239.0055,-189.4923 245.2863,-191.487 251.584,-193.428"/>
<polygon fill="#191970" stroke="#191970" points="250.8714,-196.8694 261.457,-196.4259 252.9053,-190.1714 250.8714,-196.8694"/>
</g>
<!-- Node35 -->
<g id="node4" class="node">
<title>Node35</title>
<g id="a_node4"><a xlink:href="classprecice_1_1mapping_1_1Mapping.html#aeea2d39f5e6ce0eaa97ebe436ff89991" target="_top" xlink:title="Checks whether the mapping has the given constraint or not. ">
<polygon fill="#ffffff" stroke="#000000" points="241,-147.5 241,-177.5 389,-177.5 389,-147.5 241,-147.5"/>
<text text-anchor="start" x="249" y="-165.5" font-family="Helvetica,sans-Serif" font-size="10.00" fill="#000000">precice::mapping::Mapping</text>
<text text-anchor="middle" x="315" y="-154.5" font-family="Helvetica,sans-Serif" font-size="10.00" fill="#000000">::hasConstraint</text>
</a>
</g>
</g>
<!-- Node32&#45;&gt;Node35 -->
<g id="edge3" class="edge">
<title>Node32&#45;&gt;Node35</title>
<path fill="none" stroke="#191970" d="M197.2467,-148.9026C208.4321,-150.1942 219.7539,-151.5016 230.7294,-152.769"/>
<polygon fill="#191970" stroke="#191970" points="230.3622,-156.2498 240.6977,-153.9201 231.1652,-149.296 230.3622,-156.2498"/>
</g>
<!-- Node37 -->
<g id="node6" class="node">
<title>Node37</title>
<g id="a_node6"><a xlink:href="classprecice_1_1mapping_1_1Mapping.html#a393912fe4919edd098e96f66ffbe0d52" target="_top" xlink:title="precice::mapping::Mapping\l::getDimensions">
<polygon fill="#ffffff" stroke="#000000" points="241,-98.5 241,-128.5 389,-128.5 389,-98.5 241,-98.5"/>
<text text-anchor="start" x="249" y="-116.5" font-family="Helvetica,sans-Serif" font-size="10.00" fill="#000000">precice::mapping::Mapping</text>
<text text-anchor="middle" x="315" y="-105.5" font-family="Helvetica,sans-Serif" font-size="10.00" fill="#000000">::getDimensions</text>
</a>
</g>
</g>
<!-- Node32&#45;&gt;Node37 -->
<g id="edge5" class="edge">
<title>Node32&#45;&gt;Node37</title>
<path fill="none" stroke="#191970" d="M197.2467,-126.5535C208.4321,-125.3135 219.7539,-124.0585 230.7294,-122.8418"/>
<polygon fill="#191970" stroke="#191970" points="231.1442,-126.3173 240.6977,-121.7367 230.3729,-119.3599 231.1442,-126.3173"/>
</g>
<!-- Node38 -->
<g id="node7" class="node">
<title>Node38</title>
<g id="a_node7"><a xlink:href="classprecice_1_1query_1_1Index.html#a82b0a9cc4a1d502d763a8a680232deb9" target="_top" xlink:title="Find the closest interpolation element to the given location. If exists, triangle or edge projection ...">
<polygon fill="#ffffff" stroke="#000000" points="251,-49.5 251,-79.5 379,-79.5 379,-49.5 251,-49.5"/>
<text text-anchor="start" x="259" y="-67.5" font-family="Helvetica,sans-Serif" font-size="10.00" fill="#000000">precice::query::Index</text>
<text text-anchor="middle" x="315" y="-56.5" font-family="Helvetica,sans-Serif" font-size="10.00" fill="#000000">::findNearestProjection</text>
</a>
</g>
</g>
<!-- Node32&#45;&gt;Node38 -->
<g id="edge6" class="edge">
<title>Node32&#45;&gt;Node38</title>
<path fill="none" stroke="#191970" d="M139.2368,-122.4014C165.8204,-112.6875 201.3393,-99.9694 233,-89.5 239.8975,-87.2192 247.1458,-84.8992 254.3605,-82.638"/>
<polygon fill="#191970" stroke="#191970" points="255.6299,-85.9087 264.1417,-79.6001 253.5536,-79.2237 255.6299,-85.9087"/>
</g>
<!-- Node46 -->
<g id="node15" class="node">
<title>Node46</title>
<g id="a_node15"><a xlink:href="classprecice_1_1utils_1_1statistics_1_1DistanceAccumulator.html#ab62a4d99f3b8c512aeb45a3a9ae0547b" target="_top" xlink:title="Returns count == 0. ">
<polygon fill="#ffffff" stroke="#000000" points="233,-.5 233,-30.5 397,-30.5 397,-.5 233,-.5"/>
<text text-anchor="start" x="241" y="-18.5" font-family="Helvetica,sans-Serif" font-size="10.00" fill="#000000">precice::utils::statistics</text>
<text text-anchor="middle" x="315" y="-7.5" font-family="Helvetica,sans-Serif" font-size="10.00" fill="#000000">::DistanceAccumulator::empty</text>
</a>
</g>
</g>
<!-- Node32&#45;&gt;Node46 -->
<g id="edge17" class="edge">
<title>Node32&#45;&gt;Node46</title>
<path fill="none" stroke="#191970" d="M115.5637,-122.3133C139.998,-101.2694 187.0894,-63.2673 233,-40.5 237.6313,-38.2033 242.5155,-36.0696 247.4985,-34.097"/>
<polygon fill="#191970" stroke="#191970" points="249.0109,-37.2688 257.1628,-30.5014 246.57,-30.7081 249.0109,-37.2688"/>
</g>
<!-- Node36 -->
<g id="node5" class="node">
<title>Node36</title>
<g id="a_node5"><a xlink:href="classprecice_1_1mapping_1_1Mapping.html#a6afbd9aaac2ab09b078db271cfd977a1" target="_top" xlink:title="Returns the constraint (consistent/conservative) of the mapping. ">
<polygon fill="#ffffff" stroke="#000000" points="439,-147.5 439,-177.5 587,-177.5 587,-147.5 439,-147.5"/>
<text text-anchor="start" x="447" y="-165.5" font-family="Helvetica,sans-Serif" font-size="10.00" fill="#000000">precice::mapping::Mapping</text>
<text text-anchor="middle" x="513" y="-154.5" font-family="Helvetica,sans-Serif" font-size="10.00" fill="#000000">::getConstraint</text>
</a>
</g>
</g>
<!-- Node35&#45;&gt;Node36 -->
<g id="edge4" class="edge">
<title>Node35&#45;&gt;Node36</title>
<path fill="none" stroke="#191970" d="M389.0095,-162.5C401.9639,-162.5 415.5293,-162.5 428.7367,-162.5"/>
<polygon fill="#191970" stroke="#191970" points="428.7507,-166.0001 438.7506,-162.5 428.7506,-159.0001 428.7507,-166.0001"/>
</g>
<!-- Node39 -->
<g id="node8" class="node">
<title>Node39</title>
<g id="a_node8"><a xlink:href="classprecice_1_1query_1_1Index.html#a0eeebde9c42e004e21855c2f5bab0049" target="_top" xlink:title="Find closest edge interpolation element. If cannot be found, it falls back to vertex projection...">
<polygon fill="#ffffff" stroke="#000000" points="629,-93.5 629,-123.5 747,-123.5 747,-93.5 629,-93.5"/>
<text text-anchor="start" x="637" y="-111.5" font-family="Helvetica,sans-Serif" font-size="10.00" fill="#000000">precice::query::Index</text>
<text text-anchor="middle" x="688" y="-100.5" font-family="Helvetica,sans-Serif" font-size="10.00" fill="#000000">::findEdgeProjection</text>
</a>
</g>
</g>
<!-- Node38&#45;&gt;Node39 -->
<g id="edge7" class="edge">
<title>Node38&#45;&gt;Node39</title>
<path fill="none" stroke="#191970" d="M378.1036,-79.5047C395.7812,-83.2612 415.0674,-86.9441 433,-89.5 495.5249,-98.4116 567.3082,-103.2861 618.7501,-105.8585"/>
<polygon fill="#191970" stroke="#191970" points="618.601,-109.3553 628.7585,-106.3428 618.9394,-102.3635 618.601,-109.3553"/>
</g>
<!-- Node44 -->
<g id="node13" class="node">
<title>Node44</title>
<g id="a_node13"><a xlink:href="classprecice_1_1query_1_1Index.html#a9a958d2c95fe0f67eec6ba0e8a7625ff" target="_top" xlink:title="Find closest face interpolation element. If cannot be found, it falls back to first edge interpolatio...">
<polygon fill="#ffffff" stroke="#000000" points="449,-49.5 449,-79.5 577,-79.5 577,-49.5 449,-49.5"/>
<text text-anchor="start" x="457" y="-67.5" font-family="Helvetica,sans-Serif" font-size="10.00" fill="#000000">precice::query::Index</text>
<text text-anchor="middle" x="513" y="-56.5" font-family="Helvetica,sans-Serif" font-size="10.00" fill="#000000">::findTriangleProjection</text>
</a>
</g>
</g>
<!-- Node38&#45;&gt;Node44 -->
<g id="edge13" class="edge">
<title>Node38&#45;&gt;Node44</title>
<path fill="none" stroke="#191970" d="M379.0115,-64.5C398.0619,-64.5 419.096,-64.5 438.7412,-64.5"/>
<polygon fill="#191970" stroke="#191970" points="438.87,-68.0001 448.87,-64.5 438.8699,-61.0001 438.87,-68.0001"/>
</g>
<!-- Node40 -->
<g id="node9" class="node">
<title>Node40</title>
<g id="a_node9"><a xlink:href="classprecice_1_1query_1_1Index.html#ad7246f8806501075e083cff367eb4813" target="_top" xlink:title="Get n number of closest edges to the given vertex. ">
<polygon fill="#ffffff" stroke="#000000" points="940,-137.5 940,-167.5 1058,-167.5 1058,-137.5 940,-137.5"/>
<text text-anchor="start" x="948" y="-155.5" font-family="Helvetica,sans-Serif" font-size="10.00" fill="#000000">precice::query::Index</text>
<text text-anchor="middle" x="999" y="-144.5" font-family="Helvetica,sans-Serif" font-size="10.00" fill="#000000">::getClosestEdges</text>
</a>
</g>
</g>
<!-- Node39&#45;&gt;Node40 -->
<g id="edge8" class="edge">
<title>Node39&#45;&gt;Node40</title>
<path fill="none" stroke="#191970" d="M738.9245,-123.6004C753.0885,-127.3345 768.5508,-130.982 783,-133.5 831.7535,-141.9959 887.3949,-146.7765 929.9937,-149.4172"/>
<polygon fill="#191970" stroke="#191970" points="929.7868,-152.911 939.9772,-150.0119 930.203,-145.9234 929.7868,-152.911"/>
</g>
<!-- Node42 -->
<g id="node11" class="node">
<title>Node42</title>
<g id="a_node11"><a xlink:href="classprecice_1_1query_1_1Index.html#ae3efc97b66c9937f0916bcd420e0b21a" target="_top" xlink:title="Closest vertex projection element is always the nearest neighbor. ">
<polygon fill="#ffffff" stroke="#000000" points="783,-93.5 783,-123.5 904,-123.5 904,-93.5 783,-93.5"/>
<text text-anchor="start" x="791" y="-111.5" font-family="Helvetica,sans-Serif" font-size="10.00" fill="#000000">precice::query::Index</text>
<text text-anchor="middle" x="843.5" y="-100.5" font-family="Helvetica,sans-Serif" font-size="10.00" fill="#000000">::findVertexProjection</text>
</a>
</g>
</g>
<!-- Node39&#45;&gt;Node42 -->
<g id="edge10" class="edge">
<title>Node39&#45;&gt;Node42</title>
<path fill="none" stroke="#191970" d="M747.2315,-108.5C755.53,-108.5 764.1274,-108.5 772.6149,-108.5"/>
<polygon fill="#191970" stroke="#191970" points="772.8857,-112.0001 782.8856,-108.5 772.8856,-105.0001 772.8857,-112.0001"/>
</g>
<!-- Node41 -->
<g id="node10" class="node">
<title>Node41</title>
<g id="a_node10"><a xlink:href="classprecice_1_1query_1_1impl_1_1Indexer.html#a5f4415898dcb95c16b0aedf0c3e3168d" target="_top" xlink:title="precice::query::impl\l::Indexer::instance">
<polygon fill="#ffffff" stroke="#000000" points="1094,-88.5 1094,-118.5 1207,-118.5 1207,-88.5 1094,-88.5"/>
<text text-anchor="start" x="1102" y="-106.5" font-family="Helvetica,sans-Serif" font-size="10.00" fill="#000000">precice::query::impl</text>
<text text-anchor="middle" x="1150.5" y="-95.5" font-family="Helvetica,sans-Serif" font-size="10.00" fill="#000000">::Indexer::instance</text>
</a>
</g>
</g>
<!-- Node40&#45;&gt;Node41 -->
<g id="edge9" class="edge">
<title>Node40&#45;&gt;Node41</title>
<path fill="none" stroke="#191970" d="M1045.6912,-137.3986C1061.0269,-132.4385 1078.2356,-126.8726 1094.2066,-121.7071"/>
<polygon fill="#191970" stroke="#191970" points="1095.5254,-124.9592 1103.963,-118.5516 1093.3712,-118.2989 1095.5254,-124.9592"/>
</g>
<!-- Node43 -->
<g id="node12" class="node">
<title>Node43</title>
<g id="a_node12"><a xlink:href="classprecice_1_1query_1_1Index.html#a61ff793fd31c44ae072341d03f882a32" target="_top" xlink:title="Get n number of closest vertices to the given vertex. ">
<polygon fill="#ffffff" stroke="#000000" points="940,-88.5 940,-118.5 1058,-118.5 1058,-88.5 940,-88.5"/>
<text text-anchor="start" x="948" y="-106.5" font-family="Helvetica,sans-Serif" font-size="10.00" fill="#000000">precice::query::Index</text>
<text text-anchor="middle" x="999" y="-95.5" font-family="Helvetica,sans-Serif" font-size="10.00" fill="#000000">::getClosestVertex</text>
</a>
</g>
</g>
<!-- Node42&#45;&gt;Node43 -->
<g id="edge11" class="edge">
<title>Node42&#45;&gt;Node43</title>
<path fill="none" stroke="#191970" d="M904.0656,-106.5526C912.524,-106.2806 921.2681,-105.9994 929.8696,-105.7228"/>
<polygon fill="#191970" stroke="#191970" points="929.9937,-109.2208 939.876,-105.4011 929.7687,-102.2244 929.9937,-109.2208"/>
</g>
<!-- Node43&#45;&gt;Node41 -->
<g id="edge12" class="edge">
<title>Node43&#45;&gt;Node41</title>
<path fill="none" stroke="#191970" d="M1058.0077,-103.5C1066.4874,-103.5 1075.2617,-103.5 1083.8763,-103.5"/>
<polygon fill="#191970" stroke="#191970" points="1083.8884,-107.0001 1093.8884,-103.5 1083.8884,-100.0001 1083.8884,-107.0001"/>
</g>
<!-- Node44&#45;&gt;Node39 -->
<g id="edge16" class="edge">
<title>Node44&#45;&gt;Node39</title>
<path fill="none" stroke="#191970" d="M572.7356,-79.5192C587.5996,-83.2565 603.6561,-87.2935 618.9281,-91.1333"/>
<polygon fill="#191970" stroke="#191970" points="618.2786,-94.5789 628.8302,-93.623 619.9855,-87.7902 618.2786,-94.5789"/>
</g>
<!-- Node45 -->
<g id="node14" class="node">
<title>Node45</title>
<g id="a_node14"><a xlink:href="classprecice_1_1query_1_1Index.html#a7ea839d34f729a8bd497aaec52c5447a" target="_top" xlink:title="Get n number of closest triangles to the given vertex. ">
<polygon fill="#ffffff" stroke="#000000" points="784.5,-44.5 784.5,-74.5 902.5,-74.5 902.5,-44.5 784.5,-44.5"/>
<text text-anchor="start" x="792.5" y="-62.5" font-family="Helvetica,sans-Serif" font-size="10.00" fill="#000000">precice::query::Index</text>
<text text-anchor="middle" x="843.5" y="-51.5" font-family="Helvetica,sans-Serif" font-size="10.00" fill="#000000">::getClosestTriangles</text>
</a>
</g>
</g>
<!-- Node44&#45;&gt;Node45 -->
<g id="edge14" class="edge">
<title>Node44&#45;&gt;Node45</title>
<path fill="none" stroke="#191970" d="M577.1156,-63.53C633.6942,-62.6741 715.973,-61.4293 774.0869,-60.5501"/>
<polygon fill="#191970" stroke="#191970" points="774.3366,-64.0468 784.2825,-60.3959 774.2306,-57.0476 774.3366,-64.0468"/>
</g>
<!-- Node45&#45;&gt;Node41 -->
<g id="edge15" class="edge">
<title>Node45&#45;&gt;Node41</title>
<path fill="none" stroke="#191970" d="M902.5611,-62.4435C945.8361,-65.2211 1005.8712,-70.3683 1058,-79.5 1067.9277,-81.2391 1078.3526,-83.5043 1088.4797,-85.948"/>
<polygon fill="#191970" stroke="#191970" points="1087.9286,-89.4176 1098.4781,-88.4384 1089.6205,-82.6252 1087.9286,-89.4176"/>
</g>
<!-- Node47 -->
<g id="node16" class="node">
<title>Node47</title>
<g id="a_node16"><a xlink:href="classprecice_1_1utils_1_1statistics_1_1DistanceAccumulator.html#ac9b87639f46a763b1f35cce56f78edd7" target="_top" xlink:title="Returns how many values have been accumulated. ">
<polygon fill="#ffffff" stroke="#000000" points="433,-.5 433,-30.5 593,-30.5 593,-.5 433,-.5"/>
<text text-anchor="start" x="441" y="-18.5" font-family="Helvetica,sans-Serif" font-size="10.00" fill="#000000">precice::utils::statistics</text>
<text text-anchor="middle" x="513" y="-7.5" font-family="Helvetica,sans-Serif" font-size="10.00" fill="#000000">::DistanceAccumulator::count</text>
</a>
</g>
</g>
<!-- Node46&#45;&gt;Node47 -->
<g id="edge18" class="edge">
<title>Node46&#45;&gt;Node47</title>
<path fill="none" stroke="#191970" d="M397.2497,-15.5C405.6343,-15.5 414.1841,-15.5 422.6489,-15.5"/>
<polygon fill="#191970" stroke="#191970" points="422.9151,-19.0001 432.9151,-15.5 422.9151,-12.0001 422.9151,-19.0001"/>
</g>
</g>
</svg>
        <g id="navigator" transform="translate(0 0)" fill="#404254">
                <rect fill="#f2f5e9" fill-opacity="0.5" stroke="#606060" stroke-width=".5" x="0" y="0" width="60" height="60"/>
                <use id="zoomplus" xlink:href="#zoomPlus" x="17" y="9" onmousedown="handleZoom(evt,'in')"/>
                <use id="zoomminus" xlink:href="#zoomMin" x="42" y="9" onmousedown="handleZoom(evt,'out')"/>
                <use id="reset" xlink:href="#resetDef" x="30" y="36" onmousedown="handleReset()"/>
                <g id="arrowUp" xlink:href="#dirArrow" transform="translate(30 24)" onmousedown="handlePan(0,-1)">
                  <use xlink:href="#rim" fill="#404040">
                        <set attributeName="fill" to="#808080" begin="arrowUp.mouseover" end="arrowUp.mouseout"/>
                  </use>
                  <path fill="none" stroke="white" stroke-width="1.5" d="M0,-3.0v7 M-2.5,-0.5L0,-3.0L2.5,-0.5"/>
                </g>
                <g id="arrowRight" xlink:href="#dirArrow" transform="rotate(90) translate(36 -43)" onmousedown="handlePan(1,0)">
                  <use xlink:href="#rim" fill="#404040">
                        <set attributeName="fill" to="#808080" begin="arrowRight.mouseover" end="arrowRight.mouseout"/>
                  </use>
                  <path fill="none" stroke="white" stroke-width="1.5" d="M0,-3.0v7 M-2.5,-0.5L0,-3.0L2.5,-0.5"/>
                </g>
                <g id="arrowDown" xlink:href="#dirArrow" transform="rotate(180) translate(-30 -48)" onmousedown="handlePan(0,1)">
                  <use xlink:href="#rim" fill="#404040">
                        <set attributeName="fill" to="#808080" begin="arrowDown.mouseover" end="arrowDown.mouseout"/>
                  </use>
                  <path fill="none" stroke="white" stroke-width="1.5" d="M0,-3.0v7 M-2.5,-0.5L0,-3.0L2.5,-0.5"/>
                </g>
                <g id="arrowLeft" xlink:href="#dirArrow" transform="rotate(270) translate(-36 17)" onmousedown="handlePan(-1,0)">
                  <use xlink:href="#rim" fill="#404040">
                        <set attributeName="fill" to="#808080" begin="arrowLeft.mouseover" end="arrowLeft.mouseout"/>
                  </use>
                  <path fill="none" stroke="white" stroke-width="1.5" d="M0,-3.0v7 M-2.5,-0.5L0,-3.0L2.5,-0.5"/>
                </g>
        </g>
        <svg viewBox="0 0 15 15" width="100%" height="30px" preserveAspectRatio="xMaxYMin meet">
         <g id="arrow_out" transform="scale(0.3 0.3)">
          <a xlink:href="classprecice_1_1mapping_1_1NearestProjectionMapping_ac68a625b7801db678418f9ae4cd5acb2_cgraph_org.svg" target="_base">
           <rect id="button" ry="5" rx="5" y="6" x="6" height="38" width="38"
                fill="#f2f5e9" fill-opacity="0.5" stroke="#606060" stroke-width="1.0"/>
           <path id="arrow"
             d="M 11.500037,31.436501 C 11.940474,20.09759 22.043105,11.32322 32.158766,21.979434 L 37.068811,17.246167 C 37.068811,17.246167 37.088388,32 37.088388,32 L 22.160133,31.978069 C 22.160133,31.978069 26.997745,27.140456 26.997745,27.140456 C 18.528582,18.264221 13.291696,25.230495 11.500037,31.436501 z"
             style="fill:#404040;"/>
          </a>
         </g>
        </svg>
</svg>
