<?xml version="1.0" encoding="UTF-8" standalone="no"?>
<!DOCTYPE svg PUBLIC "-//W3C//DTD SVG 1.1//EN"
 "http://www.w3.org/Graphics/SVG/1.1/DTD/svg11.dtd">
<!-- Generated by graphviz version 2.40.1 (20161225.0304)
 -->
<!-- Title: precice::action::PythonAction Pages: 1 -->
<svg width="369pt" height="352pt"
 viewBox="0.00 0.00 368.50 352.00" xmlns="http://www.w3.org/2000/svg" xmlns:xlink="http://www.w3.org/1999/xlink">
<g id="graph0" class="graph" transform="scale(1 1) rotate(0) translate(4 348)">
<title>precice::action::PythonAction</title>
<polygon fill="#ffffff" stroke="transparent" points="-4,4 -4,-348 364.5,-348 364.5,4 -4,4"/>
<!-- Node2 -->
<g id="node1" class="node">
<title>Node2</title>
<polygon fill="#bfbfbf" stroke="#000000" points="119.5,-.5 119.5,-19.5 264.5,-19.5 264.5,-.5 119.5,-.5"/>
<text text-anchor="middle" x="192" y="-7.5" font-family="Helvetica,sans-Serif" font-size="10.00" fill="#000000">precice::action::PythonAction</text>
</g>
<!-- Node3 -->
<g id="node2" class="node">
<title>Node3</title>
<g id="a_node2"><a xlink:href="classprecice_1_1action_1_1Action.html" target="_top" xlink:title="Abstract base class for configurable actions on data and/or meshes. ">
<polygon fill="#ffffff" stroke="#000000" points="0,-78.5 0,-97.5 114,-97.5 114,-78.5 0,-78.5"/>
<text text-anchor="middle" x="57" y="-85.5" font-family="Helvetica,sans-Serif" font-size="10.00" fill="#000000">precice::action::Action</text>
</a>
</g>
</g>
<!-- Node3&#45;&gt;Node2 -->
<g id="edge1" class="edge">
<title>Node3&#45;&gt;Node2</title>
<path fill="none" stroke="#191970" d="M82.4947,-73.2697C109.7144,-57.5428 152.0592,-33.0769 175.3109,-19.6426"/>
<polygon fill="#191970" stroke="#191970" points="80.4613,-70.4023 73.5536,-78.4357 83.9633,-76.4634 80.4613,-70.4023"/>
</g>
<!-- Node4 -->
<g id="node3" class="node">
<title>Node4</title>
<g id="a_node3"><a xlink:href="classprecice_1_1logging_1_1Logger.html" target="_top" xlink:title="This class provides a leightweight logger. ">
<polygon fill="#ffffff" stroke="#000000" points="132,-78.5 132,-97.5 252,-97.5 252,-78.5 132,-78.5"/>
<text text-anchor="middle" x="192" y="-85.5" font-family="Helvetica,sans-Serif" font-size="10.00" fill="#000000">precice::logging::Logger</text>
</a>
</g>
</g>
<!-- Node4&#45;&gt;Node2 -->
<g id="edge2" class="edge">
<title>Node4&#45;&gt;Node2</title>
<path fill="none" stroke="#9a32cd" stroke-dasharray="5,2" d="M192,-68.2866C192,-52.7395 192,-31.7276 192,-19.6426"/>
<polygon fill="#9a32cd" stroke="#9a32cd" points="188.5001,-68.4356 192,-78.4357 195.5001,-68.4357 188.5001,-68.4356"/>
<text text-anchor="middle" x="203" y="-46.5" font-family="Helvetica,sans-Serif" font-size="10.00" fill="#000000"> _log</text>
</g>
<!-- Node5 -->
<g id="node4" class="node">
<title>Node5</title>
<polygon fill="#ffffff" stroke="#bfbfbf" points="95,-145.5 95,-175.5 247,-175.5 247,-145.5 95,-145.5"/>
<text text-anchor="start" x="103" y="-163.5" font-family="Helvetica,sans-Serif" font-size="10.00" fill="#000000">std::unique_ptr&lt; precice</text>
<text text-anchor="middle" x="171" y="-152.5" font-family="Helvetica,sans-Serif" font-size="10.00" fill="#000000">::logging::Logger::LoggerImpl &gt;</text>
</g>
<!-- Node5&#45;&gt;Node4 -->
<g id="edge3" class="edge">
<title>Node5&#45;&gt;Node4</title>
<path fill="none" stroke="#9a32cd" stroke-dasharray="5,2" d="M178.1861,-135.6908C181.9422,-122.7233 186.3287,-107.5795 189.1337,-97.8957"/>
<polygon fill="#9a32cd" stroke="#9a32cd" points="174.7717,-134.899 175.3512,-145.478 181.4953,-136.8466 174.7717,-134.899"/>
<text text-anchor="middle" x="197.5" y="-119" font-family="Helvetica,sans-Serif" font-size="10.00" fill="#000000"> _impl</text>
</g>
<!-- Node6 -->
<g id="node5" class="node">
<title>Node6</title>
<g id="a_node5"><a xlink:href="classprecice_1_1logging_1_1Logger_1_1LoggerImpl.html" target="_top" xlink:title="precice::logging::Logger\l::LoggerImpl">
<polygon fill="#ffffff" stroke="#000000" points="111,-223.5 111,-253.5 231,-253.5 231,-223.5 111,-223.5"/>
<text text-anchor="start" x="119" y="-241.5" font-family="Helvetica,sans-Serif" font-size="10.00" fill="#000000">precice::logging::Logger</text>
<text text-anchor="middle" x="171" y="-230.5" font-family="Helvetica,sans-Serif" font-size="10.00" fill="#000000">::LoggerImpl</text>
</a>
</g>
</g>
<!-- Node6&#45;&gt;Node5 -->
<g id="edge4" class="edge">
<title>Node6&#45;&gt;Node5</title>
<path fill="none" stroke="#9a32cd" stroke-dasharray="5,2" d="M171,-213.2875C171,-200.9187 171,-186.4264 171,-175.7592"/>
<polygon fill="#9a32cd" stroke="#9a32cd" points="167.5001,-213.4608 171,-223.4608 174.5001,-213.4608 167.5001,-213.4608"/>
<text text-anchor="middle" x="178.5" y="-197" font-family="Helvetica,sans-Serif" font-size="10.00" fill="#000000"> ptr</text>
</g>
<!-- Node7 -->
<g id="node6" class="node">
<title>Node7</title>
<polygon fill="#ffffff" stroke="#bfbfbf" points="110,-291.5 110,-343.5 232,-343.5 232,-291.5 110,-291.5"/>
<text text-anchor="start" x="118" y="-331.5" font-family="Helvetica,sans-Serif" font-size="10.00" fill="#000000">boost::log::sources</text>
<text text-anchor="start" x="118" y="-320.5" font-family="Helvetica,sans-Serif" font-size="10.00" fill="#000000">::severity_logger&lt; boost</text>
<text text-anchor="start" x="118" y="-309.5" font-family="Helvetica,sans-Serif" font-size="10.00" fill="#000000">::log::trivial::severity</text>
<text text-anchor="middle" x="171" y="-298.5" font-family="Helvetica,sans-Serif" font-size="10.00" fill="#000000">_level &gt;</text>
</g>
<!-- Node7&#45;&gt;Node6 -->
<g id="edge5" class="edge">
<title>Node7&#45;&gt;Node6</title>
<path fill="none" stroke="#191970" d="M171,-281.0152C171,-271.4501 171,-261.648 171,-253.8696"/>
<polygon fill="#191970" stroke="#191970" points="167.5001,-281.1941 171,-291.1941 174.5001,-281.1942 167.5001,-281.1941"/>
</g>
<!-- Node8 -->
<g id="node7" class="node">
<title>Node8</title>
<g id="a_node7"><a xlink:title="STL class. ">
<polygon fill="#ffffff" stroke="#bfbfbf" points="275,-78.5 275,-97.5 335,-97.5 335,-78.5 275,-78.5"/>
<text text-anchor="middle" x="305" y="-85.5" font-family="Helvetica,sans-Serif" font-size="10.00" fill="#000000">std::string</text>
</a>
</g>
</g>
<!-- Node8&#45;&gt;Node2 -->
<g id="edge6" class="edge">
<title>Node8&#45;&gt;Node2</title>
<path fill="none" stroke="#9a32cd" stroke-dasharray="5,2" d="M282.7581,-72.6472C259.9501,-56.9036 225.177,-32.9009 205.9694,-19.6426"/>
<polygon fill="#9a32cd" stroke="#9a32cd" points="280.9259,-75.6353 291.144,-78.4357 284.9025,-69.8745 280.9259,-75.6353"/>
<text text-anchor="middle" x="294" y="-52" font-family="Helvetica,sans-Serif" font-size="10.00" fill="#000000"> _modulePath</text>
<text text-anchor="middle" x="294" y="-41" font-family="Helvetica,sans-Serif" font-size="10.00" fill="#000000">_moduleName</text>
</g>
<!-- Node9 -->
<g id="node8" class="node">
<title>Node9</title>
<g id="a_node8"><a xlink:title="STL class. ">
<polygon fill="#ffffff" stroke="#bfbfbf" points="265.5,-145.5 265.5,-175.5 360.5,-175.5 360.5,-145.5 265.5,-145.5"/>
<text text-anchor="start" x="273.5" y="-163.5" font-family="Helvetica,sans-Serif" font-size="10.00" fill="#000000">std::basic_string&lt;</text>
<text text-anchor="middle" x="313" y="-152.5" font-family="Helvetica,sans-Serif" font-size="10.00" fill="#000000"> char &gt;</text>
</a>
</g>
</g>
<!-- Node9&#45;&gt;Node8 -->
<g id="edge7" class="edge">
<title>Node9&#45;&gt;Node8</title>
<path fill="none" stroke="#191970" d="M310.2199,-135.305C308.7985,-122.424 307.1499,-107.4836 306.0919,-97.8957"/>
<polygon fill="#191970" stroke="#191970" points="306.7666,-135.9222 311.3424,-145.478 313.7244,-135.1544 306.7666,-135.9222"/>
</g>
</g>
</svg>
