<?xml version="1.0" encoding="UTF-8" standalone="no"?>
<!DOCTYPE svg PUBLIC "-//W3C//DTD SVG 1.1//EN"
 "http://www.w3.org/Graphics/SVG/1.1/DTD/svg11.dtd">
<!-- Generated by graphviz version 2.40.1 (20161225.0304)
 -->
<!-- Title: precice::com::SocketCommunication::aSend Pages: 1 -->
<svg width="1108pt" height="435pt"
 viewBox="0.00 0.00 1108.00 434.80" xmlns="http://www.w3.org/2000/svg" xmlns:xlink="http://www.w3.org/1999/xlink">
<g id="graph0" class="graph" transform="scale(1 1) rotate(0) translate(4 430.8028)">
<title>precice::com::SocketCommunication::aSend</title>
<polygon fill="#ffffff" stroke="transparent" points="-4,4 -4,-430.8028 1104,-430.8028 1104,4 -4,4"/>
<!-- Node281 -->
<g id="node1" class="node">
<title>Node281</title>
<polygon fill="#bfbfbf" stroke="#000000" points="0,-169.5 0,-199.5 178,-199.5 178,-169.5 0,-169.5"/>
<text text-anchor="start" x="8" y="-187.5" font-family="Helvetica,sans-Serif" font-size="10.00" fill="#000000">precice::com::SocketCommunication</text>
<text text-anchor="middle" x="89" y="-176.5" font-family="Helvetica,sans-Serif" font-size="10.00" fill="#000000">::aSend</text>
</g>
<!-- Node282 -->
<g id="node2" class="node">
<title>Node282</title>
<g id="a_node2"><a xlink:href="classprecice_1_1com_1_1Communication.html#ae8ca797815d83f1fc5498ca4a513b315" target="_top" xlink:title="Adjusts the given rank bases on the _rankOffset. ">
<polygon fill="#ffffff" stroke="#000000" points="214,-218.5 214,-248.5 361,-248.5 361,-218.5 214,-218.5"/>
<text text-anchor="start" x="222" y="-236.5" font-family="Helvetica,sans-Serif" font-size="10.00" fill="#000000">precice::com::Communication</text>
<text text-anchor="middle" x="287.5" y="-225.5" font-family="Helvetica,sans-Serif" font-size="10.00" fill="#000000">::adjustRank</text>
</a>
</g>
</g>
<!-- Node281&#45;&gt;Node282 -->
<g id="edge1" class="edge">
<title>Node281&#45;&gt;Node282</title>
<path fill="none" stroke="#191970" d="M149.9055,-199.5346C171.0549,-204.7554 194.9493,-210.6537 216.8203,-216.0526"/>
<polygon fill="#191970" stroke="#191970" points="216.1622,-219.4952 226.7096,-218.4938 217.8399,-212.6992 216.1622,-219.4952"/>
</g>
<!-- Node283 -->
<g id="node3" class="node">
<title>Node283</title>
<g id="a_node3"><a xlink:href="classprecice_1_1com_1_1Communication.html#a444946d1a6c67c352fe96b56cdbf1fd2" target="_top" xlink:title="Returns true, if a connection to a remote participant has been setup. ">
<polygon fill="#ffffff" stroke="#000000" points="214,-169.5 214,-199.5 361,-199.5 361,-169.5 214,-169.5"/>
<text text-anchor="start" x="222" y="-187.5" font-family="Helvetica,sans-Serif" font-size="10.00" fill="#000000">precice::com::Communication</text>
<text text-anchor="middle" x="287.5" y="-176.5" font-family="Helvetica,sans-Serif" font-size="10.00" fill="#000000">::isConnected</text>
</a>
</g>
</g>
<!-- Node281&#45;&gt;Node283 -->
<g id="edge2" class="edge">
<title>Node281&#45;&gt;Node283</title>
<path fill="none" stroke="#191970" d="M178.0889,-184.5C186.5885,-184.5 195.1887,-184.5 203.6364,-184.5"/>
<polygon fill="#191970" stroke="#191970" points="203.8482,-188.0001 213.8482,-184.5 203.8481,-181.0001 203.8482,-188.0001"/>
</g>
<!-- Node301 -->
<g id="node21" class="node">
<title>Node301</title>
<g id="a_node21"><a xlink:href="classprecice_1_1com_1_1SocketSendQueue.html#aaf833eac1abd771f7c73f073bee023ff" target="_top" xlink:title="Put data in the queue, start processing the queue. ">
<polygon fill="#ffffff" stroke="#000000" points="221.5,-71.5 221.5,-101.5 353.5,-101.5 353.5,-71.5 221.5,-71.5"/>
<text text-anchor="start" x="229.5" y="-89.5" font-family="Helvetica,sans-Serif" font-size="10.00" fill="#000000">precice::com::SocketSend</text>
<text text-anchor="middle" x="287.5" y="-78.5" font-family="Helvetica,sans-Serif" font-size="10.00" fill="#000000">Queue::dispatch</text>
</a>
</g>
</g>
<!-- Node281&#45;&gt;Node301 -->
<g id="edge27" class="edge">
<title>Node281&#45;&gt;Node301</title>
<path fill="none" stroke="#191970" d="M119.5806,-169.4023C153.9682,-152.425 209.9275,-124.7977 247.6981,-106.1503"/>
<polygon fill="#191970" stroke="#191970" points="249.4673,-109.1802 256.8846,-101.6149 246.3685,-102.9035 249.4673,-109.1802"/>
</g>
<!-- Node284 -->
<g id="node4" class="node">
<title>Node284</title>
<g id="a_node4"><a xlink:href="classprecice_1_1com_1_1Communication.html#a5319067292ba3f7979d92a72f9298f80" target="_top" xlink:title="Returns the number of processes in the remote communicator. ">
<polygon fill="#ffffff" stroke="#000000" points="946,-392.5 946,-422.5 1100,-422.5 1100,-392.5 946,-392.5"/>
<text text-anchor="start" x="954" y="-410.5" font-family="Helvetica,sans-Serif" font-size="10.00" fill="#000000">precice::com::Communication</text>
<text text-anchor="middle" x="1023" y="-399.5" font-family="Helvetica,sans-Serif" font-size="10.00" fill="#000000">::getRemoteCommunicatorSize</text>
</a>
</g>
</g>
<!-- Node283&#45;&gt;Node284 -->
<g id="edge3" class="edge">
<title>Node283&#45;&gt;Node284</title>
<path fill="none" stroke="#191970" d="M347.5666,-199.6277C352.4616,-202.3862 357.039,-205.6466 361,-209.5 393.9602,-241.5655 362.3654,-276.2508 397,-306.5 548.5177,-438.8325 802.6972,-433.7047 935.768,-419.9322"/>
<polygon fill="#191970" stroke="#191970" points="936.3494,-423.3899 945.9178,-418.8405 935.6008,-416.4301 936.3494,-423.3899"/>
</g>
<!-- Node285 -->
<g id="node5" class="node">
<title>Node285</title>
<g id="a_node5"><a xlink:href="classprecice_1_1com_1_1Communication.html#a652a8cbe5447146b4b3b6200db5ddbeb" target="_top" xlink:title="Accepts connection from another communicator, which has to call requestConnection(). ">
<polygon fill="#ffffff" stroke="#000000" points="580,-284.5 580,-314.5 727,-314.5 727,-284.5 580,-284.5"/>
<text text-anchor="start" x="588" y="-302.5" font-family="Helvetica,sans-Serif" font-size="10.00" fill="#000000">precice::com::Communication</text>
<text text-anchor="middle" x="653.5" y="-291.5" font-family="Helvetica,sans-Serif" font-size="10.00" fill="#000000">::acceptConnection</text>
</a>
</g>
</g>
<!-- Node283&#45;&gt;Node285 -->
<g id="edge4" class="edge">
<title>Node283&#45;&gt;Node285</title>
<path fill="none" stroke="#191970" d="M345.8979,-199.6813C351.314,-202.4363 356.4628,-205.681 361,-209.5 386.5633,-231.0166 369.0946,-257.1225 397,-275.5 447.4441,-308.7207 516.0466,-313.5707 569.6118,-310.7377"/>
<polygon fill="#191970" stroke="#191970" points="570.0113,-314.2196 579.7723,-310.0998 569.5726,-307.2334 570.0113,-314.2196"/>
</g>
<!-- Node286 -->
<g id="node6" class="node">
<title>Node286</title>
<g id="a_node6"><a xlink:href="classprecice_1_1com_1_1Communication.html#a64c6c2ea54877c8ae14373d84ba7a808" target="_top" xlink:title="Accepts connection from another communicator, which has to call requestConnectionAsClient(). ">
<polygon fill="#ffffff" stroke="#000000" points="397,-147.5 397,-177.5 544,-177.5 544,-147.5 397,-147.5"/>
<text text-anchor="start" x="405" y="-165.5" font-family="Helvetica,sans-Serif" font-size="10.00" fill="#000000">precice::com::Communication</text>
<text text-anchor="middle" x="470.5" y="-154.5" font-family="Helvetica,sans-Serif" font-size="10.00" fill="#000000">::acceptConnectionAsServer</text>
</a>
</g>
</g>
<!-- Node283&#45;&gt;Node286 -->
<g id="edge5" class="edge">
<title>Node283&#45;&gt;Node286</title>
<path fill="none" stroke="#191970" d="M361.1421,-175.6469C369.5655,-174.6342 378.199,-173.5963 386.7418,-172.5693"/>
<polygon fill="#191970" stroke="#191970" points="387.2,-176.0395 396.7107,-171.3708 386.3644,-169.0895 387.2,-176.0395"/>
</g>
<!-- Node287 -->
<g id="node7" class="node">
<title>Node287</title>
<g id="a_node7"><a xlink:href="classprecice_1_1com_1_1Communication.html#ab019bdb3f7ad242a84bdc70cf0236a87" target="_top" xlink:title="Connects to another communicator, which has to call acceptConnection(). ">
<polygon fill="#ffffff" stroke="#000000" points="580,-137.5 580,-167.5 727,-167.5 727,-137.5 580,-137.5"/>
<text text-anchor="start" x="588" y="-155.5" font-family="Helvetica,sans-Serif" font-size="10.00" fill="#000000">precice::com::Communication</text>
<text text-anchor="middle" x="653.5" y="-144.5" font-family="Helvetica,sans-Serif" font-size="10.00" fill="#000000">::requestConnection</text>
</a>
</g>
</g>
<!-- Node283&#45;&gt;Node287 -->
<g id="edge6" class="edge">
<title>Node283&#45;&gt;Node287</title>
<path fill="none" stroke="#191970" d="M361.2097,-191.8026C412.7257,-195.3394 482.9465,-197.0202 544,-187.5 549.9407,-186.5737 574.5512,-178.7643 598.9387,-170.757"/>
<polygon fill="#191970" stroke="#191970" points="600.1934,-174.0287 608.5945,-167.5735 598.0015,-167.3807 600.1934,-174.0287"/>
</g>
<!-- Node288 -->
<g id="node8" class="node">
<title>Node288</title>
<g id="a_node8"><a xlink:href="classprecice_1_1com_1_1Communication.html#a207ba1e3f1ae07417b921a1ff5cc476a" target="_top" xlink:title="Connects to another communicator, which has to call acceptConnectionAsServer(). ">
<polygon fill="#ffffff" stroke="#000000" points="397,-98.5 397,-128.5 544,-128.5 544,-98.5 397,-98.5"/>
<text text-anchor="start" x="405" y="-116.5" font-family="Helvetica,sans-Serif" font-size="10.00" fill="#000000">precice::com::Communication</text>
<text text-anchor="middle" x="470.5" y="-105.5" font-family="Helvetica,sans-Serif" font-size="10.00" fill="#000000">::requestConnectionAsClient</text>
</a>
</g>
</g>
<!-- Node283&#45;&gt;Node288 -->
<g id="edge7" class="edge">
<title>Node283&#45;&gt;Node288</title>
<path fill="none" stroke="#191970" d="M321.7737,-169.3764C343.236,-160.0872 371.5535,-148.1591 397,-138.5 402.7886,-136.3027 408.8665,-134.089 414.9434,-131.9356"/>
<polygon fill="#191970" stroke="#191970" points="416.1655,-135.2161 424.4503,-128.6121 413.8555,-128.6082 416.1655,-135.2161"/>
</g>
<!-- Node289 -->
<g id="node9" class="node">
<title>Node289</title>
<g id="a_node9"><a xlink:href="classprecice_1_1com_1_1Communication.html#a60034c02c08a248a7b2cd539cb69568b" target="_top" xlink:title="precice::com::Communication\l::connectMasterSlaves">
<polygon fill="#ffffff" stroke="#000000" points="397,-235.5 397,-265.5 544,-265.5 544,-235.5 397,-235.5"/>
<text text-anchor="start" x="405" y="-253.5" font-family="Helvetica,sans-Serif" font-size="10.00" fill="#000000">precice::com::Communication</text>
<text text-anchor="middle" x="470.5" y="-242.5" font-family="Helvetica,sans-Serif" font-size="10.00" fill="#000000">::connectMasterSlaves</text>
</a>
</g>
</g>
<!-- Node283&#45;&gt;Node289 -->
<g id="edge8" class="edge">
<title>Node283&#45;&gt;Node289</title>
<path fill="none" stroke="#191970" d="M332.6649,-199.6207C342.0488,-202.83 351.8611,-206.2357 361,-209.5 380.8602,-216.5939 402.6347,-224.6824 421.499,-231.79"/>
<polygon fill="#191970" stroke="#191970" points="420.4814,-235.1469 431.073,-235.4069 422.9553,-228.5986 420.4814,-235.1469"/>
</g>
<!-- Node300 -->
<g id="node20" class="node">
<title>Node300</title>
<g id="a_node20"><a xlink:href="classprecice_1_1com_1_1Communication.html#adce43462d51714bd1ad6ba5cb4e68fee" target="_top" xlink:title="Disconnects from communication space, i.e. participant. ">
<polygon fill="#ffffff" stroke="#000000" points="397,-49.5 397,-79.5 544,-79.5 544,-49.5 397,-49.5"/>
<text text-anchor="start" x="405" y="-67.5" font-family="Helvetica,sans-Serif" font-size="10.00" fill="#000000">precice::com::Communication</text>
<text text-anchor="middle" x="470.5" y="-56.5" font-family="Helvetica,sans-Serif" font-size="10.00" fill="#000000">::closeConnection</text>
</a>
</g>
</g>
<!-- Node283&#45;&gt;Node300 -->
<g id="edge26" class="edge">
<title>Node283&#45;&gt;Node300</title>
<path fill="none" stroke="#191970" d="M301.3107,-169.2803C320.8116,-148.6047 358.3687,-111.6823 397,-89.5 400.6819,-87.3859 404.5705,-85.4135 408.5592,-83.58"/>
<polygon fill="#191970" stroke="#191970" points="410.1738,-86.6964 417.9978,-79.5525 407.4265,-80.258 410.1738,-86.6964"/>
</g>
<!-- Node289&#45;&gt;Node285 -->
<g id="edge10" class="edge">
<title>Node289&#45;&gt;Node285</title>
<path fill="none" stroke="#191970" d="M526.8993,-265.6014C546.0353,-270.7253 567.5855,-276.4956 587.4079,-281.8032"/>
<polygon fill="#191970" stroke="#191970" points="586.722,-285.2428 597.287,-284.4484 588.5325,-278.481 586.722,-285.2428"/>
</g>
<!-- Node289&#45;&gt;Node287 -->
<g id="edge25" class="edge">
<title>Node289&#45;&gt;Node287</title>
<path fill="none" stroke="#191970" d="M517.4075,-235.353C526.6651,-231.2846 535.9855,-226.3515 544,-220.5 564.1302,-205.8027 559.4404,-191.5903 580,-177.5 582.8663,-175.5356 585.9008,-173.7133 589.0405,-172.0244"/>
<polygon fill="#191970" stroke="#191970" points="590.653,-175.1322 598.1148,-167.6108 587.5912,-168.8373 590.653,-175.1322"/>
</g>
<!-- Node290 -->
<g id="node10" class="node">
<title>Node290</title>
<g id="a_node10"><a xlink:href="classprecice_1_1com_1_1Communication.html#a39d443a319b10525a50bac6b03ddd600" target="_top" xlink:title="Prepare environment used to establish the communication. ">
<polygon fill="#ffffff" stroke="#000000" points="580,-186.5 580,-216.5 727,-216.5 727,-186.5 580,-186.5"/>
<text text-anchor="start" x="588" y="-204.5" font-family="Helvetica,sans-Serif" font-size="10.00" fill="#000000">precice::com::Communication</text>
<text text-anchor="middle" x="653.5" y="-193.5" font-family="Helvetica,sans-Serif" font-size="10.00" fill="#000000">::prepareEstablishment</text>
</a>
</g>
</g>
<!-- Node289&#45;&gt;Node290 -->
<g id="edge9" class="edge">
<title>Node289&#45;&gt;Node290</title>
<path fill="none" stroke="#191970" d="M526.8993,-235.3986C546.0353,-230.2747 567.5855,-224.5044 587.4079,-219.1968"/>
<polygon fill="#191970" stroke="#191970" points="588.5325,-222.519 597.287,-216.5516 586.722,-215.7572 588.5325,-222.519"/>
</g>
<!-- Node291 -->
<g id="node11" class="node">
<title>Node291</title>
<g id="a_node11"><a xlink:href="classprecice_1_1com_1_1Communication.html#a08e2067629d6f0198918a21467d29762" target="_top" xlink:title="Clean&#45;up environment used to establish the communication. ">
<polygon fill="#ffffff" stroke="#000000" points="580,-235.5 580,-265.5 727,-265.5 727,-235.5 580,-235.5"/>
<text text-anchor="start" x="588" y="-253.5" font-family="Helvetica,sans-Serif" font-size="10.00" fill="#000000">precice::com::Communication</text>
<text text-anchor="middle" x="653.5" y="-242.5" font-family="Helvetica,sans-Serif" font-size="10.00" fill="#000000">::cleanupEstablishment</text>
</a>
</g>
</g>
<!-- Node289&#45;&gt;Node291 -->
<g id="edge11" class="edge">
<title>Node289&#45;&gt;Node291</title>
<path fill="none" stroke="#191970" d="M544.1421,-250.5C552.4739,-250.5 561.0113,-250.5 569.4632,-250.5"/>
<polygon fill="#191970" stroke="#191970" points="569.7108,-254.0001 579.7107,-250.5 569.7107,-247.0001 569.7108,-254.0001"/>
</g>
<!-- Node292 -->
<g id="node12" class="node">
<title>Node292</title>
<g id="a_node12"><a xlink:href="classprecice_1_1com_1_1Communication.html#a2462e0a8e7053d7ded3ca67d5b3bfaf6" target="_top" xlink:title="Performs a reduce summation on the rank given by rankMaster. ">
<polygon fill="#ffffff" stroke="#000000" points="763,-260.5 763,-290.5 910,-290.5 910,-260.5 763,-260.5"/>
<text text-anchor="start" x="771" y="-278.5" font-family="Helvetica,sans-Serif" font-size="10.00" fill="#000000">precice::com::Communication</text>
<text text-anchor="middle" x="836.5" y="-267.5" font-family="Helvetica,sans-Serif" font-size="10.00" fill="#000000">::reduceSum</text>
</a>
</g>
</g>
<!-- Node291&#45;&gt;Node292 -->
<g id="edge12" class="edge">
<title>Node291&#45;&gt;Node292</title>
<path fill="none" stroke="#191970" d="M727.1421,-260.5604C735.5655,-261.7111 744.199,-262.8906 752.7418,-264.0576"/>
<polygon fill="#191970" stroke="#191970" points="752.329,-267.5337 762.7107,-265.4195 753.2765,-260.5981 752.329,-267.5337"/>
</g>
<!-- Node293 -->
<g id="node13" class="node">
<title>Node293</title>
<g id="a_node13"><a xlink:href="classprecice_1_1com_1_1Communication.html#a1ab2da696572afe406801d329442da10" target="_top" xlink:title="precice::com::Communication\l::aSend">
<polygon fill="#ffffff" stroke="#000000" points="949.5,-277.5 949.5,-307.5 1096.5,-307.5 1096.5,-277.5 949.5,-277.5"/>
<text text-anchor="start" x="957.5" y="-295.5" font-family="Helvetica,sans-Serif" font-size="10.00" fill="#000000">precice::com::Communication</text>
<text text-anchor="middle" x="1023" y="-284.5" font-family="Helvetica,sans-Serif" font-size="10.00" fill="#000000">::aSend</text>
</a>
</g>
</g>
<!-- Node291&#45;&gt;Node293 -->
<g id="edge22" class="edge">
<title>Node291&#45;&gt;Node293</title>
<path fill="none" stroke="#191970" d="M704.0843,-265.6159C711.9076,-268.547 719.7805,-271.8561 727,-275.5 744.3901,-284.2773 744.4106,-294.6784 763,-300.5 819.867,-318.3089 887.1876,-315.6335 939.0769,-308.8592"/>
<polygon fill="#191970" stroke="#191970" points="939.8147,-312.2906 949.2414,-307.4545 938.8564,-305.3565 939.8147,-312.2906"/>
</g>
<!-- Node294 -->
<g id="node14" class="node">
<title>Node294</title>
<g id="a_node14"><a xlink:href="classprecice_1_1com_1_1Communication.html#ab51a4a3d5b89bff04e9aa64a2d9dfb96" target="_top" xlink:title="precice::com::Communication\l::allreduceSum">
<polygon fill="#ffffff" stroke="#000000" points="763,-211.5 763,-241.5 910,-241.5 910,-211.5 763,-211.5"/>
<text text-anchor="start" x="771" y="-229.5" font-family="Helvetica,sans-Serif" font-size="10.00" fill="#000000">precice::com::Communication</text>
<text text-anchor="middle" x="836.5" y="-218.5" font-family="Helvetica,sans-Serif" font-size="10.00" fill="#000000">::allreduceSum</text>
</a>
</g>
</g>
<!-- Node291&#45;&gt;Node294 -->
<g id="edge14" class="edge">
<title>Node291&#45;&gt;Node294</title>
<path fill="none" stroke="#191970" d="M727.1421,-240.842C735.5655,-239.7373 744.199,-238.6051 752.7418,-237.4847"/>
<polygon fill="#191970" stroke="#191970" points="753.2508,-240.948 762.7107,-236.1773 752.3405,-234.0074 753.2508,-240.948"/>
</g>
<!-- Node295 -->
<g id="node15" class="node">
<title>Node295</title>
<g id="a_node15"><a xlink:href="classprecice_1_1com_1_1Communication.html#a21ea14f324d167cc309574d3dc5e17ee" target="_top" xlink:title="Receives a std::string from process with given rank. ">
<polygon fill="#ffffff" stroke="#000000" points="949.5,-189.5 949.5,-219.5 1096.5,-219.5 1096.5,-189.5 949.5,-189.5"/>
<text text-anchor="start" x="957.5" y="-207.5" font-family="Helvetica,sans-Serif" font-size="10.00" fill="#000000">precice::com::Communication</text>
<text text-anchor="middle" x="1023" y="-196.5" font-family="Helvetica,sans-Serif" font-size="10.00" fill="#000000">::receive</text>
</a>
</g>
</g>
<!-- Node291&#45;&gt;Node295 -->
<g id="edge23" class="edge">
<title>Node291&#45;&gt;Node295</title>
<path fill="none" stroke="#191970" d="M705.6043,-235.4523C712.9159,-232.7765 720.2371,-229.7819 727,-226.5 744.3001,-218.1045 744.5955,-208.0724 763,-202.5 820.0082,-185.2393 887.3244,-186.3038 939.1764,-191.3881"/>
<polygon fill="#191970" stroke="#191970" points="939.0222,-194.891 949.333,-192.4543 939.7531,-187.9293 939.0222,-194.891"/>
</g>
<!-- Node296 -->
<g id="node16" class="node">
<title>Node296</title>
<g id="a_node16"><a xlink:href="classprecice_1_1com_1_1Communication.html#acfa95686c5b494b3adfe11d5b5d23b87" target="_top" xlink:title="precice::com::Communication\l::broadcast">
<polygon fill="#ffffff" stroke="#000000" points="763,-348.5 763,-378.5 910,-378.5 910,-348.5 763,-348.5"/>
<text text-anchor="start" x="771" y="-366.5" font-family="Helvetica,sans-Serif" font-size="10.00" fill="#000000">precice::com::Communication</text>
<text text-anchor="middle" x="836.5" y="-355.5" font-family="Helvetica,sans-Serif" font-size="10.00" fill="#000000">::broadcast</text>
</a>
</g>
</g>
<!-- Node291&#45;&gt;Node296 -->
<g id="edge17" class="edge">
<title>Node291&#45;&gt;Node296</title>
<path fill="none" stroke="#191970" d="M710.9352,-265.5806C716.6639,-268.3636 722.1464,-271.6422 727,-275.5 750.751,-294.3781 739.8226,-313.9219 763,-333.5 767.5192,-337.3174 772.5891,-340.698 777.8981,-343.681"/>
<polygon fill="#191970" stroke="#191970" points="776.5058,-346.9 787.0033,-348.3328 779.6905,-340.6664 776.5058,-346.9"/>
</g>
<!-- Node298 -->
<g id="node18" class="node">
<title>Node298</title>
<g id="a_node18"><a xlink:href="classprecice_1_1com_1_1Communication.html#a8fb5e92432fc9751ae165953156980b5" target="_top" xlink:title="Sends a std::string to process with given rank. ">
<polygon fill="#ffffff" stroke="#000000" points="763,-123.5 763,-153.5 910,-153.5 910,-123.5 763,-123.5"/>
<text text-anchor="start" x="771" y="-141.5" font-family="Helvetica,sans-Serif" font-size="10.00" fill="#000000">precice::com::Communication</text>
<text text-anchor="middle" x="836.5" y="-130.5" font-family="Helvetica,sans-Serif" font-size="10.00" fill="#000000">::send</text>
</a>
</g>
</g>
<!-- Node291&#45;&gt;Node298 -->
<g id="edge21" class="edge">
<title>Node291&#45;&gt;Node298</title>
<path fill="none" stroke="#191970" d="M712.7871,-235.3399C717.8428,-232.8233 722.6707,-229.898 727,-226.5 750.8662,-207.7677 739.8226,-188.0781 763,-168.5 767.5192,-164.6826 772.5891,-161.302 777.8981,-158.319"/>
<polygon fill="#191970" stroke="#191970" points="779.6905,-161.3336 787.0033,-153.6672 776.5058,-155.1 779.6905,-161.3336"/>
</g>
<!-- Node299 -->
<g id="node19" class="node">
<title>Node299</title>
<g id="a_node19"><a xlink:href="classprecice_1_1com_1_1Communication.html#a5460dcca7939aa7f22aba4a7f68b656f" target="_top" xlink:title="Asynchronously receives an array of double values. ">
<polygon fill="#ffffff" stroke="#000000" points="763,-74.5 763,-104.5 910,-104.5 910,-74.5 763,-74.5"/>
<text text-anchor="start" x="771" y="-92.5" font-family="Helvetica,sans-Serif" font-size="10.00" fill="#000000">precice::com::Communication</text>
<text text-anchor="middle" x="836.5" y="-81.5" font-family="Helvetica,sans-Serif" font-size="10.00" fill="#000000">::aReceive</text>
</a>
</g>
</g>
<!-- Node291&#45;&gt;Node299 -->
<g id="edge24" class="edge">
<title>Node291&#45;&gt;Node299</title>
<path fill="none" stroke="#191970" d="M715.4951,-235.3785C719.687,-232.8612 723.5908,-229.9249 727,-226.5 763.8863,-189.4429 726.3412,-151.7822 763,-114.5 764.4175,-113.0584 765.9212,-111.6999 767.4962,-110.4197"/>
<polygon fill="#191970" stroke="#191970" points="769.6351,-113.1967 775.8956,-104.6493 765.6714,-107.427 769.6351,-113.1967"/>
</g>
<!-- Node292&#45;&gt;Node293 -->
<g id="edge13" class="edge">
<title>Node292&#45;&gt;Node293</title>
<path fill="none" stroke="#191970" d="M910.2097,-282.2189C919.7312,-283.0868 929.5371,-283.9806 939.2061,-284.862"/>
<polygon fill="#191970" stroke="#191970" points="938.9385,-288.352 949.2149,-285.7743 939.574,-281.3809 938.9385,-288.352"/>
</g>
<!-- Node294&#45;&gt;Node293 -->
<g id="edge15" class="edge">
<title>Node294&#45;&gt;Node293</title>
<path fill="none" stroke="#191970" d="M881.2485,-241.5597C890.7522,-244.803 900.7174,-248.2377 910,-251.5 930.5488,-258.7217 953.1241,-266.8696 972.6582,-273.9881"/>
<polygon fill="#191970" stroke="#191970" points="971.6803,-277.357 982.2742,-277.4985 974.0808,-270.7814 971.6803,-277.357"/>
</g>
<!-- Node294&#45;&gt;Node295 -->
<g id="edge16" class="edge">
<title>Node294&#45;&gt;Node295</title>
<path fill="none" stroke="#191970" d="M910.2097,-217.805C919.7312,-216.6818 929.5371,-215.5251 939.2061,-214.3845"/>
<polygon fill="#191970" stroke="#191970" points="939.6939,-217.8514 949.2149,-213.2039 938.8737,-210.8996 939.6939,-217.8514"/>
</g>
<!-- Node296&#45;&gt;Node284 -->
<g id="edge18" class="edge">
<title>Node296&#45;&gt;Node284</title>
<path fill="none" stroke="#191970" d="M900.1611,-378.5192C915.978,-382.2508 933.0619,-386.2814 949.3154,-390.116"/>
<polygon fill="#191970" stroke="#191970" points="948.7729,-393.584 959.3094,-392.4738 950.3803,-386.771 948.7729,-393.584"/>
</g>
<!-- Node296&#45;&gt;Node293 -->
<g id="edge19" class="edge">
<title>Node296&#45;&gt;Node293</title>
<path fill="none" stroke="#191970" d="M876.0519,-348.4427C904.6107,-337.5704 943.3632,-322.8175 973.9019,-311.1915"/>
<polygon fill="#191970" stroke="#191970" points="975.4048,-314.3645 983.5052,-307.5356 972.9142,-307.8225 975.4048,-314.3645"/>
</g>
<!-- Node297 -->
<g id="node17" class="node">
<title>Node297</title>
<g id="a_node17"><a xlink:href="classprecice_1_1com_1_1Request.html#ad07792939dd8a5e4e23791e21aeacff0" target="_top" xlink:title="precice::com::Request\l::wait">
<polygon fill="#ffffff" stroke="#000000" points="965,-343.5 965,-373.5 1081,-373.5 1081,-343.5 965,-343.5"/>
<text text-anchor="start" x="973" y="-361.5" font-family="Helvetica,sans-Serif" font-size="10.00" fill="#000000">precice::com::Request</text>
<text text-anchor="middle" x="1023" y="-350.5" font-family="Helvetica,sans-Serif" font-size="10.00" fill="#000000">::wait</text>
</a>
</g>
</g>
<!-- Node296&#45;&gt;Node297 -->
<g id="edge20" class="edge">
<title>Node296&#45;&gt;Node297</title>
<path fill="none" stroke="#191970" d="M910.2097,-361.5239C924.7933,-361.1329 940.0445,-360.724 954.4485,-360.3378"/>
<polygon fill="#191970" stroke="#191970" points="954.8628,-363.8281 964.7654,-360.0613 954.6751,-356.8306 954.8628,-363.8281"/>
</g>
<!-- Node302 -->
<g id="node22" class="node">
<title>Node302</title>
<g id="a_node22"><a xlink:href="classprecice_1_1com_1_1SocketSendQueue.html#aff64cdbc5a4359f062133b8f60d2f98b" target="_top" xlink:title="This method can be called arbitrarily many times, but enough times to ensure the queue makes progress...">
<polygon fill="#ffffff" stroke="#000000" points="404.5,-.5 404.5,-30.5 536.5,-30.5 536.5,-.5 404.5,-.5"/>
<text text-anchor="start" x="412.5" y="-18.5" font-family="Helvetica,sans-Serif" font-size="10.00" fill="#000000">precice::com::SocketSend</text>
<text text-anchor="middle" x="470.5" y="-7.5" font-family="Helvetica,sans-Serif" font-size="10.00" fill="#000000">Queue::process</text>
</a>
</g>
</g>
<!-- Node301&#45;&gt;Node302 -->
<g id="edge28" class="edge">
<title>Node301&#45;&gt;Node302</title>
<path fill="none" stroke="#191970" d="M320.7299,-71.3141C342.2752,-61.6982 371.0608,-49.2793 397,-39.5 402.1027,-37.5762 407.4368,-35.6587 412.8004,-33.7938"/>
<polygon fill="#191970" stroke="#191970" points="414.1091,-37.0455 422.4432,-30.5038 411.8487,-30.4204 414.1091,-37.0455"/>
</g>
</g>
</svg>
