<?xml version="1.0" encoding="UTF-8" standalone="no"?>
<!DOCTYPE svg PUBLIC "-//W3C//DTD SVG 1.1//EN"
 "http://www.w3.org/Graphics/SVG/1.1/DTD/svg11.dtd">
<!-- Generated by graphviz version 2.40.1 (20161225.0304)
 -->
<!-- Title: precice::acceleration::impl::ParallelMatrixOperations::initialize Pages: 1 -->
<svg width="530pt" height="167pt"
 viewBox="0.00 0.00 530.00 167.00" xmlns="http://www.w3.org/2000/svg" xmlns:xlink="http://www.w3.org/1999/xlink">
<g id="graph0" class="graph" transform="scale(1 1) rotate(0) translate(4 163)">
<title>precice::acceleration::impl::ParallelMatrixOperations::initialize</title>
<polygon fill="#ffffff" stroke="transparent" points="-4,4 -4,-163 526,-163 526,4 -4,4"/>
<!-- Node21 -->
<g id="node1" class="node">
<title>Node21</title>
<polygon fill="#bfbfbf" stroke="#000000" points="0,-74 0,-115 153,-115 153,-74 0,-74"/>
<text text-anchor="start" x="8" y="-103" font-family="Helvetica,sans-Serif" font-size="10.00" fill="#000000">precice::acceleration</text>
<text text-anchor="start" x="8" y="-92" font-family="Helvetica,sans-Serif" font-size="10.00" fill="#000000">::impl::ParallelMatrixOperations</text>
<text text-anchor="middle" x="76.5" y="-81" font-family="Helvetica,sans-Serif" font-size="10.00" fill="#000000">::initialize</text>
</g>
<!-- Node22 -->
<g id="node2" class="node">
<title>Node22</title>
<g id="a_node2"><a xlink:href="classprecice_1_1utils_1_1MasterSlave.html#a5e934392c32335daa8e2b4a01bc75fd3" target="_top" xlink:title="True if this process is running the master. ">
<polygon fill="#ffffff" stroke="#000000" points="204.5,-128.5 204.5,-158.5 337.5,-158.5 337.5,-128.5 204.5,-128.5"/>
<text text-anchor="start" x="212.5" y="-146.5" font-family="Helvetica,sans-Serif" font-size="10.00" fill="#000000">precice::utils::MasterSlave</text>
<text text-anchor="middle" x="271" y="-135.5" font-family="Helvetica,sans-Serif" font-size="10.00" fill="#000000">::isMaster</text>
</a>
</g>
</g>
<!-- Node21&#45;&gt;Node22 -->
<g id="edge1" class="edge">
<title>Node21&#45;&gt;Node22</title>
<path fill="none" stroke="#191970" d="M153.0924,-113.7958C168.9634,-117.7941 185.6041,-121.9864 201.216,-125.9195"/>
<polygon fill="#191970" stroke="#191970" points="200.7562,-129.4129 211.3083,-128.462 202.4664,-122.625 200.7562,-129.4129"/>
</g>
<!-- Node23 -->
<g id="node3" class="node">
<title>Node23</title>
<g id="a_node3"><a xlink:href="classprecice_1_1utils_1_1MasterSlave.html#a3837ad42361b53d7e930443ba07a9eb5" target="_top" xlink:title="True if this process is running a slave. ">
<polygon fill="#ffffff" stroke="#000000" points="204.5,-79.5 204.5,-109.5 337.5,-109.5 337.5,-79.5 204.5,-79.5"/>
<text text-anchor="start" x="212.5" y="-97.5" font-family="Helvetica,sans-Serif" font-size="10.00" fill="#000000">precice::utils::MasterSlave</text>
<text text-anchor="middle" x="271" y="-86.5" font-family="Helvetica,sans-Serif" font-size="10.00" fill="#000000">::isSlave</text>
</a>
</g>
</g>
<!-- Node21&#45;&gt;Node23 -->
<g id="edge2" class="edge">
<title>Node21&#45;&gt;Node23</title>
<path fill="none" stroke="#191970" d="M153.0924,-94.5C166.5616,-94.5 180.5851,-94.5 194.0637,-94.5"/>
<polygon fill="#191970" stroke="#191970" points="194.2465,-98.0001 204.2465,-94.5 194.2464,-91.0001 194.2465,-98.0001"/>
</g>
<!-- Node24 -->
<g id="node4" class="node">
<title>Node24</title>
<g id="a_node4"><a xlink:href="classprecice_1_1acceleration_1_1impl_1_1ParallelMatrixOperations.html#ae88f0a4eceffc0e5d44fa6d642f47fbe" target="_top" xlink:title="precice::acceleration\l::impl::ParallelMatrixOperations\l::establishCircularCommunication">
<polygon fill="#ffffff" stroke="#000000" points="189,-19 189,-60 353,-60 353,-19 189,-19"/>
<text text-anchor="start" x="197" y="-48" font-family="Helvetica,sans-Serif" font-size="10.00" fill="#000000">precice::acceleration</text>
<text text-anchor="start" x="197" y="-37" font-family="Helvetica,sans-Serif" font-size="10.00" fill="#000000">::impl::ParallelMatrixOperations</text>
<text text-anchor="middle" x="271" y="-26" font-family="Helvetica,sans-Serif" font-size="10.00" fill="#000000">::establishCircularCommunication</text>
</a>
</g>
</g>
<!-- Node21&#45;&gt;Node24 -->
<g id="edge3" class="edge">
<title>Node21&#45;&gt;Node24</title>
<path fill="none" stroke="#191970" d="M149.2012,-73.9418C162.0127,-70.319 175.4323,-66.5243 188.4891,-62.8321"/>
<polygon fill="#191970" stroke="#191970" points="189.7166,-66.1223 198.3869,-60.0333 187.8118,-59.3865 189.7166,-66.1223"/>
</g>
<!-- Node25 -->
<g id="node5" class="node">
<title>Node25</title>
<g id="a_node5"><a xlink:href="classprecice_1_1utils_1_1MasterSlave.html#ae8671e778dec26782120295d51bb3fde" target="_top" xlink:title="Number of ranks. This includes ranks from both participants, e.g. minimal size is 2...">
<polygon fill="#ffffff" stroke="#000000" points="389,-49.5 389,-79.5 522,-79.5 522,-49.5 389,-49.5"/>
<text text-anchor="start" x="397" y="-67.5" font-family="Helvetica,sans-Serif" font-size="10.00" fill="#000000">precice::utils::MasterSlave</text>
<text text-anchor="middle" x="455.5" y="-56.5" font-family="Helvetica,sans-Serif" font-size="10.00" fill="#000000">::getSize</text>
</a>
</g>
</g>
<!-- Node24&#45;&gt;Node25 -->
<g id="edge4" class="edge">
<title>Node24&#45;&gt;Node25</title>
<path fill="none" stroke="#191970" d="M353.2677,-50.6474C361.7389,-51.7952 370.3238,-52.9585 378.732,-54.0978"/>
<polygon fill="#191970" stroke="#191970" points="378.5016,-57.5985 388.8811,-55.473 379.4416,-50.6619 378.5016,-57.5985"/>
</g>
<!-- Node26 -->
<g id="node6" class="node">
<title>Node26</title>
<g id="a_node6"><a xlink:href="classprecice_1_1utils_1_1MasterSlave.html#af0deae7c83eae7f8e6908a2879bfb0e3" target="_top" xlink:title="Current rank. ">
<polygon fill="#ffffff" stroke="#000000" points="389,-.5 389,-30.5 522,-30.5 522,-.5 389,-.5"/>
<text text-anchor="start" x="397" y="-18.5" font-family="Helvetica,sans-Serif" font-size="10.00" fill="#000000">precice::utils::MasterSlave</text>
<text text-anchor="middle" x="455.5" y="-7.5" font-family="Helvetica,sans-Serif" font-size="10.00" fill="#000000">::getRank</text>
</a>
</g>
</g>
<!-- Node24&#45;&gt;Node26 -->
<g id="edge5" class="edge">
<title>Node24&#45;&gt;Node26</title>
<path fill="none" stroke="#191970" d="M353.2677,-28.7985C361.7389,-27.6966 370.3238,-26.5798 378.732,-25.4861"/>
<polygon fill="#191970" stroke="#191970" points="379.4161,-28.9267 388.8811,-24.1659 378.5131,-21.9851 379.4161,-28.9267"/>
</g>
</g>
</svg>
