<?xml version="1.0" encoding="UTF-8" standalone="no"?>
<!DOCTYPE svg PUBLIC "-//W3C//DTD SVG 1.1//EN"
 "http://www.w3.org/Graphics/SVG/1.1/DTD/svg11.dtd">
<!-- Generated by graphviz version 2.40.1 (20161225.0304)
 -->
<!-- Title: precice::cplscheme::CouplingSchemeConfiguration::addTagMinIterationConvergenceMeasure Pages: 1 -->
<!--zoomable 236 -->
<svg id="main" version="1.1" xmlns="http://www.w3.org/2000/svg" xmlns:xlink="http://www.w3.org/1999/xlink" xml:space="preserve" onload="init(evt)">
<style type="text/css"><![CDATA[
.edge:hover path { stroke: red; }
.edge:hover polygon { stroke: red; fill: red; }
]]></style>
<script type="text/javascript"><![CDATA[
var edges = document.getElementsByTagName('g');
if (edges && edges.length) {
  for (var i=0;i<edges.length;i++) {
    if (edges[i].id.substr(0,4)=='edge') {
      edges[i].setAttribute('class','edge');
    }
  }
}
]]></script>
        <defs>
                <circle id="rim" cx="0" cy="0" r="7"/>
                <circle id="rim2" cx="0" cy="0" r="3.5"/>
                <g id="zoomPlus">
                        <use xlink:href="#rim" fill="#404040">
                                <set attributeName="fill" to="#808080" begin="zoomplus.mouseover" end="zoomplus.mouseout"/>
                        </use>
                        <path d="M-4,0h8M0,-4v8" fill="none" stroke="white" stroke-width="1.5" pointer-events="none"/>
                </g>
                <g id="zoomMin">
                        <use xlink:href="#rim" fill="#404040">
                                <set attributeName="fill" to="#808080" begin="zoomminus.mouseover" end="zoomminus.mouseout"/>
                        </use>
                        <path d="M-4,0h8" fill="none" stroke="white" stroke-width="1.5" pointer-events="none"/>
                </g>
                <g id="dirArrow">
                        <path fill="none" stroke="white" stroke-width="1.5" d="M0,-3.0v7 M-2.5,-0.5L0,-3.0L2.5,-0.5"/>
                </g>
               <g id="resetDef">
                       <use xlink:href="#rim2" fill="#404040">
                               <set attributeName="fill" to="#808080" begin="reset.mouseover" end="reset.mouseout"/>
                       </use>
               </g>
        </defs>

<script type="text/javascript">
var viewWidth = 822;
var viewHeight = 236;
var sectionId = 'dynsection-16';
</script>
<script xlink:href="svgpan.js"/>
<svg id="graph" class="graph">
<g id="viewport">
<title>precice::cplscheme::CouplingSchemeConfiguration::addTagMinIterationConvergenceMeasure</title>
<polygon fill="#ffffff" stroke="transparent" points="-4,4 -4,-232 818,-232 818,4 -4,4"/>
<!-- Node68 -->
<g id="node1" class="node">
<title>Node68</title>
<polygon fill="#bfbfbf" stroke="#000000" points="0,-99 0,-140 201,-140 201,-99 0,-99"/>
<text text-anchor="start" x="8" y="-128" font-family="Helvetica,sans-Serif" font-size="10.00" fill="#000000">precice::cplscheme</text>
<text text-anchor="start" x="8" y="-117" font-family="Helvetica,sans-Serif" font-size="10.00" fill="#000000">::CouplingSchemeConfiguration</text>
<text text-anchor="middle" x="100.5" y="-106" font-family="Helvetica,sans-Serif" font-size="10.00" fill="#000000">::addTagMinIterationConvergenceMeasure</text>
</g>
<!-- Node69 -->
<g id="node2" class="node">
<title>Node69</title>
<g id="a_node2"><a xlink:href="classprecice_1_1xml_1_1XMLTag.html#a41d7876b31d73a23ed8d04b996d45279" target="_top" xlink:title="Adds a description of the purpose of this XML tag. ">
<polygon fill="#ffffff" stroke="#000000" points="288,-197.5 288,-227.5 401,-227.5 401,-197.5 288,-197.5"/>
<text text-anchor="start" x="296" y="-215.5" font-family="Helvetica,sans-Serif" font-size="10.00" fill="#000000">precice::xml::XMLTag</text>
<text text-anchor="middle" x="344.5" y="-204.5" font-family="Helvetica,sans-Serif" font-size="10.00" fill="#000000">::setDocumentation</text>
</a>
</g>
</g>
<!-- Node68&#45;&gt;Node69 -->
<g id="edge1" class="edge">
<title>Node68&#45;&gt;Node69</title>
<path fill="none" stroke="#191970" d="M140.6948,-140.1238C167.5098,-153.3628 203.8061,-170.2975 237,-182.5 250.0978,-187.3149 264.3341,-191.795 278.0317,-195.7476"/>
<polygon fill="#191970" stroke="#191970" points="277.3117,-199.1811 287.8865,-198.5298 279.2136,-192.4444 277.3117,-199.1811"/>
</g>
<!-- Node70 -->
<g id="node3" class="node">
<title>Node70</title>
<g id="a_node3"><a xlink:href="classprecice_1_1cplscheme_1_1CouplingSchemeConfiguration.html#a18bd32eda5f1036e13dbc3ef00340bc7" target="_top" xlink:title="precice::cplscheme\l::CouplingSchemeConfiguration\l::addBaseAttributesTagConvergenceMeasure">
<polygon fill="#ffffff" stroke="#000000" points="237,-99 237,-140 452,-140 452,-99 237,-99"/>
<text text-anchor="start" x="245" y="-128" font-family="Helvetica,sans-Serif" font-size="10.00" fill="#000000">precice::cplscheme</text>
<text text-anchor="start" x="245" y="-117" font-family="Helvetica,sans-Serif" font-size="10.00" fill="#000000">::CouplingSchemeConfiguration</text>
<text text-anchor="middle" x="344.5" y="-106" font-family="Helvetica,sans-Serif" font-size="10.00" fill="#000000">::addBaseAttributesTagConvergenceMeasure</text>
</a>
</g>
</g>
<!-- Node68&#45;&gt;Node70 -->
<g id="edge2" class="edge">
<title>Node68&#45;&gt;Node70</title>
<path fill="none" stroke="#191970" d="M201.1529,-119.5C209.6447,-119.5 218.2789,-119.5 226.884,-119.5"/>
<polygon fill="#191970" stroke="#191970" points="226.9621,-123.0001 236.962,-119.5 226.962,-116.0001 226.9621,-123.0001"/>
</g>
<!-- Node71 -->
<g id="node4" class="node">
<title>Node71</title>
<g id="a_node4"><a xlink:href="classprecice_1_1xml_1_1XMLTag.html#af1e842f982d0efa6f85412a23a110529" target="_top" xlink:title="Removes the XML subtag with given name. ">
<polygon fill="#ffffff" stroke="#000000" points="510,-150.5 510,-180.5 623,-180.5 623,-150.5 510,-150.5"/>
<text text-anchor="start" x="518" y="-168.5" font-family="Helvetica,sans-Serif" font-size="10.00" fill="#000000">precice::xml::XMLTag</text>
<text text-anchor="middle" x="566.5" y="-157.5" font-family="Helvetica,sans-Serif" font-size="10.00" fill="#000000">::addAttribute</text>
</a>
</g>
</g>
<!-- Node68&#45;&gt;Node71 -->
<g id="edge8" class="edge">
<title>Node68&#45;&gt;Node71</title>
<path fill="none" stroke="#191970" d="M183.4801,-140.0642C201.0546,-143.7639 219.563,-147.1772 237,-149.5 327.3969,-161.5418 432.8179,-164.7937 499.6001,-165.5316"/>
<polygon fill="#191970" stroke="#191970" points="499.9457,-169.035 509.9783,-165.6294 500.0117,-162.0353 499.9457,-169.035"/>
</g>
<!-- Node75 -->
<g id="node8" class="node">
<title>Node75</title>
<g id="a_node8"><a xlink:href="classprecice_1_1xml_1_1XMLAttribute.html#ae336b527b63afb29a0860ced596535e6" target="_top" xlink:title="Sets a documentation string for the attribute. ">
<polygon fill="#ffffff" stroke="#000000" points="278,-49.5 278,-79.5 411,-79.5 411,-49.5 278,-49.5"/>
<text text-anchor="start" x="286" y="-67.5" font-family="Helvetica,sans-Serif" font-size="10.00" fill="#000000">precice::xml::XMLAttribute</text>
<text text-anchor="middle" x="344.5" y="-56.5" font-family="Helvetica,sans-Serif" font-size="10.00" fill="#000000">::setDocumentation</text>
</a>
</g>
</g>
<!-- Node68&#45;&gt;Node75 -->
<g id="edge7" class="edge">
<title>Node68&#45;&gt;Node75</title>
<path fill="none" stroke="#191970" d="M191.7036,-98.9418C216.8061,-93.2835 243.7699,-87.2056 267.9533,-81.7544"/>
<polygon fill="#191970" stroke="#191970" points="268.7931,-85.153 277.7787,-79.5396 267.2538,-78.3243 268.7931,-85.153"/>
</g>
<!-- Node76 -->
<g id="node9" class="node">
<title>Node76</title>
<g id="a_node9"><a xlink:href="classprecice_1_1xml_1_1XMLTag.html#af81dc6eea2b9a75e14ddd6033ed9a1d4" target="_top" xlink:title="Adds an XML tag as subtag by making a copy of the given tag. ">
<polygon fill="#ffffff" stroke="#000000" points="288,-.5 288,-30.5 401,-30.5 401,-.5 288,-.5"/>
<text text-anchor="start" x="296" y="-18.5" font-family="Helvetica,sans-Serif" font-size="10.00" fill="#000000">precice::xml::XMLTag</text>
<text text-anchor="middle" x="344.5" y="-7.5" font-family="Helvetica,sans-Serif" font-size="10.00" fill="#000000">::addSubtag</text>
</a>
</g>
</g>
<!-- Node68&#45;&gt;Node76 -->
<g id="edge9" class="edge">
<title>Node68&#45;&gt;Node76</title>
<path fill="none" stroke="#191970" d="M129.4942,-98.8967C156.2364,-80.7931 197.6371,-54.9892 237,-39.5 249.9588,-34.4008 264.244,-30.2605 278.0523,-26.9463"/>
<polygon fill="#191970" stroke="#191970" points="279.0261,-30.3142 287.9969,-24.6772 277.4688,-23.4896 279.0261,-30.3142"/>
</g>
<!-- Node70&#45;&gt;Node71 -->
<g id="edge3" class="edge">
<title>Node70&#45;&gt;Node71</title>
<path fill="none" stroke="#191970" d="M443.4887,-140.0112C462.5298,-143.9566 482.0479,-148.0009 499.7664,-151.6723"/>
<polygon fill="#191970" stroke="#191970" points="499.4714,-155.1855 509.9736,-153.7873 500.8917,-148.3311 499.4714,-155.1855"/>
</g>
<!-- Node74 -->
<g id="node7" class="node">
<title>Node74</title>
<g id="a_node7"><a xlink:href="namespaceprecice_1_1xml.html#a89fcda8bdfaf70ef8ed7914aebf01945" target="_top" xlink:title="precice::xml::makeXMLAttribute">
<polygon fill="#ffffff" stroke="#000000" points="488,-110 488,-129 645,-129 645,-110 488,-110"/>
<text text-anchor="middle" x="566.5" y="-117" font-family="Helvetica,sans-Serif" font-size="10.00" fill="#000000">precice::xml::makeXMLAttribute</text>
</a>
</g>
</g>
<!-- Node70&#45;&gt;Node74 -->
<g id="edge6" class="edge">
<title>Node70&#45;&gt;Node74</title>
<path fill="none" stroke="#191970" d="M452.2485,-119.5C460.8093,-119.5 469.3959,-119.5 477.8045,-119.5"/>
<polygon fill="#191970" stroke="#191970" points="477.959,-123.0001 487.959,-119.5 477.9589,-116.0001 477.959,-123.0001"/>
</g>
<!-- Node72 -->
<g id="node5" class="node">
<title>Node72</title>
<g id="a_node5"><a xlink:href="classprecice_1_1xml_1_1XMLAttribute.html#a2c9a93a56a82b30a878f40a33891340e" target="_top" xlink:title="precice::xml::XMLAttribute\l::getName">
<polygon fill="#ffffff" stroke="#000000" points="681,-172.5 681,-202.5 814,-202.5 814,-172.5 681,-172.5"/>
<text text-anchor="start" x="689" y="-190.5" font-family="Helvetica,sans-Serif" font-size="10.00" fill="#000000">precice::xml::XMLAttribute</text>
<text text-anchor="middle" x="747.5" y="-179.5" font-family="Helvetica,sans-Serif" font-size="10.00" fill="#000000">::getName</text>
</a>
</g>
</g>
<!-- Node71&#45;&gt;Node72 -->
<g id="edge4" class="edge">
<title>Node71&#45;&gt;Node72</title>
<path fill="none" stroke="#191970" d="M623.2729,-172.4006C638.2409,-174.2199 654.6453,-176.2138 670.4858,-178.1392"/>
<polygon fill="#191970" stroke="#191970" points="670.4439,-181.6597 680.7931,-179.392 671.2885,-174.7109 670.4439,-181.6597"/>
</g>
<!-- Node73 -->
<g id="node6" class="node">
<title>Node73</title>
<g id="a_node6"><a xlink:href="namespaceprecice_1_1utils.html#a434eabaa71f97a31726281a4df77bbcf" target="_top" xlink:title="Returns true, if given element is in vector, otherwise false. ">
<polygon fill="#ffffff" stroke="#000000" points="687.5,-134 687.5,-153 807.5,-153 807.5,-134 687.5,-134"/>
<text text-anchor="middle" x="747.5" y="-141" font-family="Helvetica,sans-Serif" font-size="10.00" fill="#000000">precice::utils::contained</text>
</a>
</g>
</g>
<!-- Node71&#45;&gt;Node73 -->
<g id="edge5" class="edge">
<title>Node71&#45;&gt;Node73</title>
<path fill="none" stroke="#191970" d="M623.2729,-158.5994C640.4258,-156.5145 659.465,-154.2004 677.3802,-152.0228"/>
<polygon fill="#191970" stroke="#191970" points="677.9813,-155.4756 687.4859,-150.7945 677.1367,-148.5268 677.9813,-155.4756"/>
</g>
</g>
</svg>
        <g id="navigator" transform="translate(0 0)" fill="#404254">
                <rect fill="#f2f5e9" fill-opacity="0.5" stroke="#606060" stroke-width=".5" x="0" y="0" width="60" height="60"/>
                <use id="zoomplus" xlink:href="#zoomPlus" x="17" y="9" onmousedown="handleZoom(evt,'in')"/>
                <use id="zoomminus" xlink:href="#zoomMin" x="42" y="9" onmousedown="handleZoom(evt,'out')"/>
                <use id="reset" xlink:href="#resetDef" x="30" y="36" onmousedown="handleReset()"/>
                <g id="arrowUp" xlink:href="#dirArrow" transform="translate(30 24)" onmousedown="handlePan(0,-1)">
                  <use xlink:href="#rim" fill="#404040">
                        <set attributeName="fill" to="#808080" begin="arrowUp.mouseover" end="arrowUp.mouseout"/>
                  </use>
                  <path fill="none" stroke="white" stroke-width="1.5" d="M0,-3.0v7 M-2.5,-0.5L0,-3.0L2.5,-0.5"/>
                </g>
                <g id="arrowRight" xlink:href="#dirArrow" transform="rotate(90) translate(36 -43)" onmousedown="handlePan(1,0)">
                  <use xlink:href="#rim" fill="#404040">
                        <set attributeName="fill" to="#808080" begin="arrowRight.mouseover" end="arrowRight.mouseout"/>
                  </use>
                  <path fill="none" stroke="white" stroke-width="1.5" d="M0,-3.0v7 M-2.5,-0.5L0,-3.0L2.5,-0.5"/>
                </g>
                <g id="arrowDown" xlink:href="#dirArrow" transform="rotate(180) translate(-30 -48)" onmousedown="handlePan(0,1)">
                  <use xlink:href="#rim" fill="#404040">
                        <set attributeName="fill" to="#808080" begin="arrowDown.mouseover" end="arrowDown.mouseout"/>
                  </use>
                  <path fill="none" stroke="white" stroke-width="1.5" d="M0,-3.0v7 M-2.5,-0.5L0,-3.0L2.5,-0.5"/>
                </g>
                <g id="arrowLeft" xlink:href="#dirArrow" transform="rotate(270) translate(-36 17)" onmousedown="handlePan(-1,0)">
                  <use xlink:href="#rim" fill="#404040">
                        <set attributeName="fill" to="#808080" begin="arrowLeft.mouseover" end="arrowLeft.mouseout"/>
                  </use>
                  <path fill="none" stroke="white" stroke-width="1.5" d="M0,-3.0v7 M-2.5,-0.5L0,-3.0L2.5,-0.5"/>
                </g>
        </g>
        <svg viewBox="0 0 15 15" width="100%" height="30px" preserveAspectRatio="xMaxYMin meet">
         <g id="arrow_out" transform="scale(0.3 0.3)">
          <a xlink:href="classprecice_1_1cplscheme_1_1CouplingSchemeConfiguration_a2692d07a5555050d649b57270fc62b94_cgraph_org.svg" target="_base">
           <rect id="button" ry="5" rx="5" y="6" x="6" height="38" width="38"
                fill="#f2f5e9" fill-opacity="0.5" stroke="#606060" stroke-width="1.0"/>
           <path id="arrow"
             d="M 11.500037,31.436501 C 11.940474,20.09759 22.043105,11.32322 32.158766,21.979434 L 37.068811,17.246167 C 37.068811,17.246167 37.088388,32 37.088388,32 L 22.160133,31.978069 C 22.160133,31.978069 26.997745,27.140456 26.997745,27.140456 C 18.528582,18.264221 13.291696,25.230495 11.500037,31.436501 z"
             style="fill:#404040;"/>
          </a>
         </g>
        </svg>
</svg>
