<?xml version="1.0" encoding="UTF-8" standalone="no"?>
<!DOCTYPE svg PUBLIC "-//W3C//DTD SVG 1.1//EN"
 "http://www.w3.org/Graphics/SVG/1.1/DTD/svg11.dtd">
<!-- Generated by graphviz version 2.40.1 (20161225.0304)
 -->
<!-- Title: precice::config::ParticipantConfiguration::xmlTagCallback Pages: 1 -->
<svg width="578pt" height="435pt"
 viewBox="0.00 0.00 578.00 435.00" xmlns="http://www.w3.org/2000/svg" xmlns:xlink="http://www.w3.org/1999/xlink">
<g id="graph0" class="graph" transform="scale(1 1) rotate(0) translate(4 431)">
<title>precice::config::ParticipantConfiguration::xmlTagCallback</title>
<polygon fill="#ffffff" stroke="transparent" points="-4,4 -4,-431 574,-431 574,4 -4,4"/>
<!-- Node20 -->
<g id="node1" class="node">
<title>Node20</title>
<polygon fill="#bfbfbf" stroke="#000000" points="0,-208.5 0,-238.5 165,-238.5 165,-208.5 0,-208.5"/>
<text text-anchor="start" x="8" y="-226.5" font-family="Helvetica,sans-Serif" font-size="10.00" fill="#000000">precice::config::Participant</text>
<text text-anchor="middle" x="82.5" y="-215.5" font-family="Helvetica,sans-Serif" font-size="10.00" fill="#000000">Configuration::xmlTagCallback</text>
</g>
<!-- Node21 -->
<g id="node2" class="node">
<title>Node21</title>
<g id="a_node2"><a xlink:href="classprecice_1_1xml_1_1XMLTag.html#a0ef9cef092179e6b86eaf5144fa5c088" target="_top" xlink:title="Returns name (without namespace). ">
<polygon fill="#ffffff" stroke="#000000" points="442.5,-396.5 442.5,-426.5 560.5,-426.5 560.5,-396.5 442.5,-396.5"/>
<text text-anchor="start" x="450.5" y="-414.5" font-family="Helvetica,sans-Serif" font-size="10.00" fill="#000000">precice::xml::XMLTag</text>
<text text-anchor="middle" x="501.5" y="-403.5" font-family="Helvetica,sans-Serif" font-size="10.00" fill="#000000">::getName</text>
</a>
</g>
</g>
<!-- Node20&#45;&gt;Node21 -->
<g id="edge1" class="edge">
<title>Node20&#45;&gt;Node21</title>
<path fill="none" stroke="#191970" d="M89.3721,-238.7216C104.4766,-270.2045 143.8333,-342.2253 201,-374.5 272.3643,-414.7903 368.2612,-419.7289 432.3395,-417.4317"/>
<polygon fill="#191970" stroke="#191970" points="432.5001,-420.9281 442.3418,-417.0052 432.2018,-413.9345 432.5001,-420.9281"/>
</g>
<!-- Node22 -->
<g id="node3" class="node">
<title>Node22</title>
<g id="a_node3"><a xlink:href="classprecice_1_1xml_1_1XMLTag.html#a96199a40175e3f0b1bc108eb280da57b" target="_top" xlink:title="precice::xml::XMLTag\l::getStringAttributeValue">
<polygon fill="#ffffff" stroke="#000000" points="433,-347.5 433,-377.5 570,-377.5 570,-347.5 433,-347.5"/>
<text text-anchor="start" x="441" y="-365.5" font-family="Helvetica,sans-Serif" font-size="10.00" fill="#000000">precice::xml::XMLTag</text>
<text text-anchor="middle" x="501.5" y="-354.5" font-family="Helvetica,sans-Serif" font-size="10.00" fill="#000000">::getStringAttributeValue</text>
</a>
</g>
</g>
<!-- Node20&#45;&gt;Node22 -->
<g id="edge2" class="edge">
<title>Node20&#45;&gt;Node22</title>
<path fill="none" stroke="#191970" d="M91.5763,-238.7097C108.8776,-266.0783 149.4876,-322.9618 201,-346.5 270.8817,-378.4319 359.6422,-378.9565 422.5294,-373.6206"/>
<polygon fill="#191970" stroke="#191970" points="423.1458,-377.0789 432.784,-372.6794 422.5059,-370.1082 423.1458,-377.0789"/>
</g>
<!-- Node23 -->
<g id="node4" class="node">
<title>Node23</title>
<g id="a_node4"><a xlink:href="classprecice_1_1xml_1_1XMLTag.html#afe9f1de2fa7d3b897c93dc01d8e5ae1c" target="_top" xlink:title="precice::xml::XMLTag\l::getDoubleAttributeValue">
<polygon fill="#ffffff" stroke="#000000" points="227.5,-257.5 227.5,-287.5 370.5,-287.5 370.5,-257.5 227.5,-257.5"/>
<text text-anchor="start" x="235.5" y="-275.5" font-family="Helvetica,sans-Serif" font-size="10.00" fill="#000000">precice::xml::XMLTag</text>
<text text-anchor="middle" x="299" y="-264.5" font-family="Helvetica,sans-Serif" font-size="10.00" fill="#000000">::getDoubleAttributeValue</text>
</a>
</g>
</g>
<!-- Node20&#45;&gt;Node23 -->
<g id="edge3" class="edge">
<title>Node20&#45;&gt;Node23</title>
<path fill="none" stroke="#191970" d="M148.9285,-238.5346C172.3074,-243.8259 198.7617,-249.8133 222.8769,-255.2712"/>
<polygon fill="#191970" stroke="#191970" points="222.1712,-258.7 232.6972,-257.4938 223.7165,-251.8726 222.1712,-258.7"/>
</g>
<!-- Node24 -->
<g id="node5" class="node">
<title>Node24</title>
<g id="a_node5"><a xlink:href="classprecice_1_1config_1_1ParticipantConfiguration.html#a291f85232c202e81412b329aaa48a3d5" target="_top" xlink:title="precice::config::Participant\lConfiguration::getGeoFilter">
<polygon fill="#ffffff" stroke="#000000" points="225.5,-208.5 225.5,-238.5 372.5,-238.5 372.5,-208.5 225.5,-208.5"/>
<text text-anchor="start" x="233.5" y="-226.5" font-family="Helvetica,sans-Serif" font-size="10.00" fill="#000000">precice::config::Participant</text>
<text text-anchor="middle" x="299" y="-215.5" font-family="Helvetica,sans-Serif" font-size="10.00" fill="#000000">Configuration::getGeoFilter</text>
</a>
</g>
</g>
<!-- Node20&#45;&gt;Node24 -->
<g id="edge4" class="edge">
<title>Node20&#45;&gt;Node24</title>
<path fill="none" stroke="#191970" d="M165.2761,-223.5C181.6861,-223.5 198.9241,-223.5 215.3626,-223.5"/>
<polygon fill="#191970" stroke="#191970" points="215.48,-227.0001 225.48,-223.5 215.4799,-220.0001 215.48,-227.0001"/>
</g>
<!-- Node25 -->
<g id="node6" class="node">
<title>Node25</title>
<g id="a_node6"><a xlink:href="classprecice_1_1xml_1_1XMLTag.html#a1ab00bf44c17a59be0dda8b2dba572bd" target="_top" xlink:title="precice::xml::XMLTag\l::getBooleanAttributeValue">
<polygon fill="#ffffff" stroke="#000000" points="225,-159.5 225,-189.5 373,-189.5 373,-159.5 225,-159.5"/>
<text text-anchor="start" x="233" y="-177.5" font-family="Helvetica,sans-Serif" font-size="10.00" fill="#000000">precice::xml::XMLTag</text>
<text text-anchor="middle" x="299" y="-166.5" font-family="Helvetica,sans-Serif" font-size="10.00" fill="#000000">::getBooleanAttributeValue</text>
</a>
</g>
</g>
<!-- Node20&#45;&gt;Node25 -->
<g id="edge5" class="edge">
<title>Node20&#45;&gt;Node25</title>
<path fill="none" stroke="#191970" d="M148.9285,-208.4654C172.3074,-203.1741 198.7617,-197.1867 222.8769,-191.7288"/>
<polygon fill="#191970" stroke="#191970" points="223.7165,-195.1274 232.6972,-189.5062 222.1712,-188.3 223.7165,-195.1274"/>
</g>
<!-- Node26 -->
<g id="node7" class="node">
<title>Node26</title>
<g id="a_node7"><a xlink:href="classprecice_1_1config_1_1ParticipantConfiguration.html#a7ce26da7bbdab3566d48f2c71ad01147" target="_top" xlink:title="precice::config::Participant\lConfiguration::getData">
<polygon fill="#ffffff" stroke="#000000" points="226.5,-110.5 226.5,-140.5 371.5,-140.5 371.5,-110.5 226.5,-110.5"/>
<text text-anchor="start" x="234.5" y="-128.5" font-family="Helvetica,sans-Serif" font-size="10.00" fill="#000000">precice::config::Participant</text>
<text text-anchor="middle" x="299" y="-117.5" font-family="Helvetica,sans-Serif" font-size="10.00" fill="#000000">Configuration::getData</text>
</a>
</g>
</g>
<!-- Node20&#45;&gt;Node26 -->
<g id="edge6" class="edge">
<title>Node20&#45;&gt;Node26</title>
<path fill="none" stroke="#191970" d="M102.3851,-208.2951C125.0901,-191.6183 163.9027,-165.1493 201,-149.5 206.0436,-147.3724 211.3161,-145.4066 216.6866,-143.5948"/>
<polygon fill="#191970" stroke="#191970" points="217.9605,-146.8625 226.4308,-140.4982 215.8404,-140.1913 217.9605,-146.8625"/>
</g>
<!-- Node27 -->
<g id="node8" class="node">
<title>Node27</title>
<g id="a_node8"><a xlink:href="classprecice_1_1xml_1_1XMLTag.html#a133424585a08583b842a83d02810c443" target="_top" xlink:title="Returns Eigen vector attribute value with given dimensions. ">
<polygon fill="#ffffff" stroke="#000000" points="223,-50 223,-91 375,-91 375,-50 223,-50"/>
<text text-anchor="start" x="231" y="-79" font-family="Helvetica,sans-Serif" font-size="10.00" fill="#000000">precice::xml::XMLTag</text>
<text text-anchor="start" x="231" y="-68" font-family="Helvetica,sans-Serif" font-size="10.00" fill="#000000">::getEigenVectorXdAttribute</text>
<text text-anchor="middle" x="299" y="-57" font-family="Helvetica,sans-Serif" font-size="10.00" fill="#000000">Value</text>
</a>
</g>
</g>
<!-- Node20&#45;&gt;Node27 -->
<g id="edge7" class="edge">
<title>Node20&#45;&gt;Node27</title>
<path fill="none" stroke="#191970" d="M93.0849,-208.2481C111.8531,-182.3279 153.4912,-129.6637 201,-100.5 205.0517,-98.0129 209.3251,-95.7181 213.7299,-93.6026"/>
<polygon fill="#191970" stroke="#191970" points="215.2149,-96.7728 222.9268,-89.508 212.3677,-90.3779 215.2149,-96.7728"/>
</g>
<!-- Node29 -->
<g id="node10" class="node">
<title>Node29</title>
<g id="a_node10"><a xlink:href="classprecice_1_1xml_1_1XMLTag.html#a173bb75f95737c998b9f193847a28ba7" target="_top" xlink:title="Returns xml namespace. ">
<polygon fill="#ffffff" stroke="#000000" points="240,-.5 240,-30.5 358,-30.5 358,-.5 240,-.5"/>
<text text-anchor="start" x="248" y="-18.5" font-family="Helvetica,sans-Serif" font-size="10.00" fill="#000000">precice::xml::XMLTag</text>
<text text-anchor="middle" x="299" y="-7.5" font-family="Helvetica,sans-Serif" font-size="10.00" fill="#000000">::getNamespace</text>
</a>
</g>
</g>
<!-- Node20&#45;&gt;Node29 -->
<g id="edge9" class="edge">
<title>Node20&#45;&gt;Node29</title>
<path fill="none" stroke="#191970" d="M87.8048,-208.4621C101.0233,-173.2586 138.905,-85.1085 201,-40.5 209.7345,-34.2252 219.8993,-29.5219 230.3101,-25.9973"/>
<polygon fill="#191970" stroke="#191970" points="231.3563,-29.3375 239.9061,-23.0805 229.3205,-22.64 231.3563,-29.3375"/>
</g>
<!-- Node30 -->
<g id="node11" class="node">
<title>Node30</title>
<g id="a_node11"><a xlink:href="classprecice_1_1com_1_1CommunicationConfiguration.html#af96df946d9c7026f3084e4de0683dc4b" target="_top" xlink:title="Returns a communication object of given type. ">
<polygon fill="#ffffff" stroke="#000000" points="201,-306.5 201,-336.5 397,-336.5 397,-306.5 201,-306.5"/>
<text text-anchor="start" x="209" y="-324.5" font-family="Helvetica,sans-Serif" font-size="10.00" fill="#000000">precice::com::Communication</text>
<text text-anchor="middle" x="299" y="-313.5" font-family="Helvetica,sans-Serif" font-size="10.00" fill="#000000">Configuration::createCommunication</text>
</a>
</g>
</g>
<!-- Node20&#45;&gt;Node30 -->
<g id="edge10" class="edge">
<title>Node20&#45;&gt;Node30</title>
<path fill="none" stroke="#191970" d="M102.3851,-238.7049C125.0901,-255.3817 163.9027,-281.8507 201,-297.5 205.9931,-299.6063 211.2107,-301.5541 216.5255,-303.3508"/>
<polygon fill="#191970" stroke="#191970" points="215.5791,-306.7225 226.1697,-306.4234 217.7041,-300.0529 215.5791,-306.7225"/>
</g>
<!-- Node28 -->
<g id="node9" class="node">
<title>Node28</title>
<g id="a_node9"><a xlink:href="classprecice_1_1xml_1_1XMLTag.html#aa90f7a05aeab6f674ee1499a84a8bb2e" target="_top" xlink:title="Returns full name consisting of xml namespace + &quot;:&quot; + name. ">
<polygon fill="#ffffff" stroke="#000000" points="442.5,-55.5 442.5,-85.5 560.5,-85.5 560.5,-55.5 442.5,-55.5"/>
<text text-anchor="start" x="450.5" y="-73.5" font-family="Helvetica,sans-Serif" font-size="10.00" fill="#000000">precice::xml::XMLTag</text>
<text text-anchor="middle" x="501.5" y="-62.5" font-family="Helvetica,sans-Serif" font-size="10.00" fill="#000000">::getFullName</text>
</a>
</g>
</g>
<!-- Node27&#45;&gt;Node28 -->
<g id="edge8" class="edge">
<title>Node27&#45;&gt;Node28</title>
<path fill="none" stroke="#191970" d="M375.268,-70.5C393.9981,-70.5 413.9448,-70.5 432.3201,-70.5"/>
<polygon fill="#191970" stroke="#191970" points="432.3492,-74.0001 442.3491,-70.5 432.3491,-67.0001 432.3492,-74.0001"/>
</g>
<!-- Node30&#45;&gt;Node21 -->
<g id="edge11" class="edge">
<title>Node30&#45;&gt;Node21</title>
<path fill="none" stroke="#191970" d="M327.0328,-336.5434C353.8307,-350.6265 395.5771,-371.7955 433,-387.5 437.3464,-389.324 441.8852,-391.1273 446.4672,-392.8771"/>
<polygon fill="#191970" stroke="#191970" points="445.2929,-396.1746 455.8857,-396.3831 447.735,-389.6143 445.2929,-396.1746"/>
</g>
<!-- Node30&#45;&gt;Node22 -->
<g id="edge12" class="edge">
<title>Node30&#45;&gt;Node22</title>
<path fill="none" stroke="#191970" d="M373.2537,-336.5341C389.4252,-339.8083 406.5879,-343.2832 422.9209,-346.5902"/>
<polygon fill="#191970" stroke="#191970" points="422.4713,-350.0701 432.967,-348.6242 423.8605,-343.2093 422.4713,-350.0701"/>
</g>
<!-- Node31 -->
<g id="node12" class="node">
<title>Node31</title>
<g id="a_node12"><a xlink:href="classprecice_1_1xml_1_1XMLTag.html#a8fe10de30c334021412dc01faddcd0da" target="_top" xlink:title="precice::xml::XMLTag\l::getIntAttributeValue">
<polygon fill="#ffffff" stroke="#000000" points="441,-259.5 441,-289.5 562,-289.5 562,-259.5 441,-259.5"/>
<text text-anchor="start" x="449" y="-277.5" font-family="Helvetica,sans-Serif" font-size="10.00" fill="#000000">precice::xml::XMLTag</text>
<text text-anchor="middle" x="501.5" y="-266.5" font-family="Helvetica,sans-Serif" font-size="10.00" fill="#000000">::getIntAttributeValue</text>
</a>
</g>
</g>
<!-- Node30&#45;&gt;Node31 -->
<g id="edge13" class="edge">
<title>Node30&#45;&gt;Node31</title>
<path fill="none" stroke="#191970" d="M363.629,-306.4997C385.1093,-301.5141 409.1311,-295.9387 431.03,-290.856"/>
<polygon fill="#191970" stroke="#191970" points="431.9758,-294.2296 440.9255,-288.5593 430.3931,-287.4109 431.9758,-294.2296"/>
</g>
<!-- Node32 -->
<g id="node13" class="node">
<title>Node32</title>
<g id="a_node13"><a xlink:href="namespaceprecice_1_1utils.html#ad58b7a1b746542359b6ab10ac326023c" target="_top" xlink:title="Returns true if the argument represents a vaild port. ">
<polygon fill="#ffffff" stroke="#000000" points="433,-309 433,-328 570,-328 570,-309 433,-309"/>
<text text-anchor="middle" x="501.5" y="-316" font-family="Helvetica,sans-Serif" font-size="10.00" fill="#000000">precice::utils::isValidPort</text>
</a>
</g>
</g>
<!-- Node30&#45;&gt;Node32 -->
<g id="edge14" class="edge">
<title>Node30&#45;&gt;Node32</title>
<path fill="none" stroke="#191970" d="M397.2841,-320.0439C405.8093,-319.9176 414.3627,-319.7909 422.702,-319.6674"/>
<polygon fill="#191970" stroke="#191970" points="422.8048,-323.1663 432.7518,-319.5185 422.701,-316.1671 422.8048,-323.1663"/>
</g>
</g>
</svg>
