<?xml version="1.0" encoding="UTF-8" standalone="no"?>
<!DOCTYPE svg PUBLIC "-//W3C//DTD SVG 1.1//EN"
 "http://www.w3.org/Graphics/SVG/1.1/DTD/svg11.dtd">
<!-- Generated by graphviz version 2.40.1 (20161225.0304)
 -->
<!-- Title: precice::mapping::RadialBasisFctMapping&lt; RADIAL_BASIS_FUNCTION_T &gt; Pages: 1 -->
<svg width="156pt" height="106pt"
 viewBox="0.00 0.00 156.00 106.00" xmlns="http://www.w3.org/2000/svg" xmlns:xlink="http://www.w3.org/1999/xlink">
<g id="graph0" class="graph" transform="scale(1 1) rotate(0) translate(4 102)">
<title>precice::mapping::RadialBasisFctMapping&lt; RADIAL_BASIS_FUNCTION_T &gt;</title>
<polygon fill="#ffffff" stroke="transparent" points="-4,4 -4,-102 152,-102 152,4 -4,4"/>
<!-- Node0 -->
<g id="node1" class="node">
<title>Node0</title>
<polygon fill="#bfbfbf" stroke="#000000" points="1.5,-.5 1.5,-41.5 146.5,-41.5 146.5,-.5 1.5,-.5"/>
<text text-anchor="start" x="9.5" y="-29.5" font-family="Helvetica,sans-Serif" font-size="10.00" fill="#000000">precice::mapping::Radial</text>
<text text-anchor="start" x="9.5" y="-18.5" font-family="Helvetica,sans-Serif" font-size="10.00" fill="#000000">BasisFctMapping&lt; RADIAL</text>
<text text-anchor="middle" x="74" y="-7.5" font-family="Helvetica,sans-Serif" font-size="10.00" fill="#000000">_BASIS_FUNCTION_T &gt;</text>
</g>
<!-- Node1 -->
<g id="node2" class="node">
<title>Node1</title>
<g id="a_node2"><a xlink:href="classprecice_1_1mapping_1_1Mapping.html" target="_top" xlink:title="Abstract base class for mapping of data from one mesh to another. ">
<polygon fill="#ffffff" stroke="#000000" points="0,-78.5 0,-97.5 148,-97.5 148,-78.5 0,-78.5"/>
<text text-anchor="middle" x="74" y="-85.5" font-family="Helvetica,sans-Serif" font-size="10.00" fill="#000000">precice::mapping::Mapping</text>
</a>
</g>
</g>
<!-- Node1&#45;&gt;Node0 -->
<g id="edge1" class="edge">
<title>Node1&#45;&gt;Node0</title>
<path fill="none" stroke="#191970" d="M74,-68.3919C74,-59.9817 74,-50.1519 74,-41.6318"/>
<polygon fill="#191970" stroke="#191970" points="70.5001,-68.4005 74,-78.4005 77.5001,-68.4006 70.5001,-68.4005"/>
</g>
</g>
</svg>
