<?xml version="1.0" encoding="UTF-8" standalone="no"?>
<!DOCTYPE svg PUBLIC "-//W3C//DTD SVG 1.1//EN"
 "http://www.w3.org/Graphics/SVG/1.1/DTD/svg11.dtd">
<!-- Generated by graphviz version 2.40.1 (20161225.0304)
 -->
<!-- Title: precice::mesh::IndexRangeIterator&lt; Source, Value &gt; Pages: 1 -->
<svg width="321pt" height="72pt"
 viewBox="0.00 0.00 321.00 72.00" xmlns="http://www.w3.org/2000/svg" xmlns:xlink="http://www.w3.org/1999/xlink">
<g id="graph0" class="graph" transform="scale(1 1) rotate(0) translate(4 68)">
<title>precice::mesh::IndexRangeIterator&lt; Source, Value &gt;</title>
<polygon fill="#ffffff" stroke="transparent" points="-4,4 -4,-68 317,-68 317,4 -4,4"/>
<!-- Node0 -->
<g id="node1" class="node">
<title>Node0</title>
<polygon fill="#bfbfbf" stroke="#000000" points="176,-17 176,-47 313,-47 313,-17 176,-17"/>
<text text-anchor="start" x="184" y="-35" font-family="Helvetica,sans-Serif" font-size="10.00" fill="#000000">precice::mesh::IndexRange</text>
<text text-anchor="middle" x="244.5" y="-24" font-family="Helvetica,sans-Serif" font-size="10.00" fill="#000000">Iterator&lt; Source, Value &gt;</text>
</g>
<!-- Node1 -->
<g id="node2" class="node">
<title>Node1</title>
<polygon fill="#ffffff" stroke="#bfbfbf" points="0,-.5 0,-63.5 140,-63.5 140,-.5 0,-.5"/>
<text text-anchor="start" x="8" y="-51.5" font-family="Helvetica,sans-Serif" font-size="10.00" fill="#000000">boost::iterator_facade</text>
<text text-anchor="start" x="8" y="-40.5" font-family="Helvetica,sans-Serif" font-size="10.00" fill="#000000">&lt; IndexRangeIterator&lt;</text>
<text text-anchor="start" x="8" y="-29.5" font-family="Helvetica,sans-Serif" font-size="10.00" fill="#000000"> Source, const Value &gt;,</text>
<text text-anchor="start" x="8" y="-18.5" font-family="Helvetica,sans-Serif" font-size="10.00" fill="#000000"> const Value, boost::random</text>
<text text-anchor="middle" x="70" y="-7.5" font-family="Helvetica,sans-Serif" font-size="10.00" fill="#000000">_access_traversal_tag &gt;</text>
</g>
<!-- Node1&#45;&gt;Node0 -->
<g id="edge1" class="edge">
<title>Node1&#45;&gt;Node0</title>
<path fill="none" stroke="#191970" d="M150.491,-32C158.9626,-32 167.5197,-32 175.8402,-32"/>
<polygon fill="#191970" stroke="#191970" points="150.2216,-28.5001 140.2215,-32 150.2215,-35.5001 150.2216,-28.5001"/>
</g>
</g>
</svg>
