<?xml version="1.0" encoding="UTF-8" standalone="no"?>
<!DOCTYPE svg PUBLIC "-//W3C//DTD SVG 1.1//EN"
 "http://www.w3.org/Graphics/SVG/1.1/DTD/svg11.dtd">
<!-- Generated by graphviz version 2.40.1 (20161225.0304)
 -->
<!-- Title: precice::utils::ptr_vector&lt; CONTENT_T &gt; Pages: 1 -->
<svg width="135pt" height="117pt"
 viewBox="0.00 0.00 135.00 117.00" xmlns="http://www.w3.org/2000/svg" xmlns:xlink="http://www.w3.org/1999/xlink">
<g id="graph0" class="graph" transform="scale(1 1) rotate(0) translate(4 113)">
<title>precice::utils::ptr_vector&lt; CONTENT_T &gt;</title>
<polygon fill="#ffffff" stroke="transparent" points="-4,4 -4,-113 131,-113 131,4 -4,4"/>
<!-- Node1 -->
<g id="node1" class="node">
<title>Node1</title>
<polygon fill="#bfbfbf" stroke="#000000" points="0,-.5 0,-30.5 127,-30.5 127,-.5 0,-.5"/>
<text text-anchor="start" x="8" y="-18.5" font-family="Helvetica,sans-Serif" font-size="10.00" fill="#000000">precice::utils::ptr</text>
<text text-anchor="middle" x="63.5" y="-7.5" font-family="Helvetica,sans-Serif" font-size="10.00" fill="#000000">_vector&lt; CONTENT_T &gt;</text>
</g>
<!-- Node2 -->
<g id="node2" class="node">
<title>Node2</title>
<polygon fill="#ffffff" stroke="#bfbfbf" points="3,-78.5 3,-108.5 124,-108.5 124,-78.5 3,-78.5"/>
<text text-anchor="start" x="11" y="-96.5" font-family="Helvetica,sans-Serif" font-size="10.00" fill="#000000">std::vector&lt; CONTENT</text>
<text text-anchor="middle" x="63.5" y="-85.5" font-family="Helvetica,sans-Serif" font-size="10.00" fill="#000000">_T * &gt;</text>
</g>
<!-- Node2&#45;&gt;Node1 -->
<g id="edge1" class="edge">
<title>Node2&#45;&gt;Node1</title>
<path fill="none" stroke="#9a32cd" stroke-dasharray="5,2" d="M63.5,-68.2875C63.5,-55.9187 63.5,-41.4264 63.5,-30.7592"/>
<polygon fill="#9a32cd" stroke="#9a32cd" points="60.0001,-68.4608 63.5,-78.4608 67.0001,-68.4608 60.0001,-68.4608"/>
<text text-anchor="middle" x="84" y="-52" font-family="Helvetica,sans-Serif" font-size="10.00" fill="#000000"> _content</text>
</g>
</g>
</svg>
