<?xml version="1.0" encoding="UTF-8" standalone="no"?>
<!DOCTYPE svg PUBLIC "-//W3C//DTD SVG 1.1//EN"
 "http://www.w3.org/Graphics/SVG/1.1/DTD/svg11.dtd">
<!-- Generated by graphviz version 2.40.1 (20161225.0304)
 -->
<!-- Title: precice::mapping::PetRadialBasisFctMapping::printMappingInfo Pages: 1 -->
<!--zoomable 186 -->
<svg id="main" version="1.1" xmlns="http://www.w3.org/2000/svg" xmlns:xlink="http://www.w3.org/1999/xlink" xml:space="preserve" onload="init(evt)">
<style type="text/css"><![CDATA[
.edge:hover path { stroke: red; }
.edge:hover polygon { stroke: red; fill: red; }
]]></style>
<script type="text/javascript"><![CDATA[
var edges = document.getElementsByTagName('g');
if (edges && edges.length) {
  for (var i=0;i<edges.length;i++) {
    if (edges[i].id.substr(0,4)=='edge') {
      edges[i].setAttribute('class','edge');
    }
  }
}
]]></script>
        <defs>
                <circle id="rim" cx="0" cy="0" r="7"/>
                <circle id="rim2" cx="0" cy="0" r="3.5"/>
                <g id="zoomPlus">
                        <use xlink:href="#rim" fill="#404040">
                                <set attributeName="fill" to="#808080" begin="zoomplus.mouseover" end="zoomplus.mouseout"/>
                        </use>
                        <path d="M-4,0h8M0,-4v8" fill="none" stroke="white" stroke-width="1.5" pointer-events="none"/>
                </g>
                <g id="zoomMin">
                        <use xlink:href="#rim" fill="#404040">
                                <set attributeName="fill" to="#808080" begin="zoomminus.mouseover" end="zoomminus.mouseout"/>
                        </use>
                        <path d="M-4,0h8" fill="none" stroke="white" stroke-width="1.5" pointer-events="none"/>
                </g>
                <g id="dirArrow">
                        <path fill="none" stroke="white" stroke-width="1.5" d="M0,-3.0v7 M-2.5,-0.5L0,-3.0L2.5,-0.5"/>
                </g>
               <g id="resetDef">
                       <use xlink:href="#rim2" fill="#404040">
                               <set attributeName="fill" to="#808080" begin="reset.mouseover" end="reset.mouseout"/>
                       </use>
               </g>
        </defs>

<script type="text/javascript">
var viewWidth = 563;
var viewHeight = 186;
var sectionId = 'dynsection-13';
</script>
<script xlink:href="svgpan.js"/>
<svg id="graph" class="graph">
<g id="viewport">
<title>precice::mapping::PetRadialBasisFctMapping::printMappingInfo</title>
<polygon fill="#ffffff" stroke="transparent" points="-4,4 -4,-182 559,-182 559,4 -4,4"/>
<!-- Node145 -->
<g id="node1" class="node">
<title>Node145</title>
<polygon fill="#bfbfbf" stroke="#000000" points="0,-73.5 0,-103.5 187,-103.5 187,-73.5 0,-73.5"/>
<text text-anchor="start" x="8" y="-91.5" font-family="Helvetica,sans-Serif" font-size="10.00" fill="#000000">precice::mapping::PetRadial</text>
<text text-anchor="middle" x="93.5" y="-80.5" font-family="Helvetica,sans-Serif" font-size="10.00" fill="#000000">BasisFctMapping::printMappingInfo</text>
</g>
<!-- Node146 -->
<g id="node2" class="node">
<title>Node146</title>
<g id="a_node2"><a xlink:href="classprecice_1_1mapping_1_1Mapping.html#aeea2d39f5e6ce0eaa97ebe436ff89991" target="_top" xlink:title="Checks whether the mapping has the given constraint or not. ">
<polygon fill="#ffffff" stroke="#000000" points="223,-147.5 223,-177.5 371,-177.5 371,-147.5 223,-147.5"/>
<text text-anchor="start" x="231" y="-165.5" font-family="Helvetica,sans-Serif" font-size="10.00" fill="#000000">precice::mapping::Mapping</text>
<text text-anchor="middle" x="297" y="-154.5" font-family="Helvetica,sans-Serif" font-size="10.00" fill="#000000">::hasConstraint</text>
</a>
</g>
</g>
<!-- Node145&#45;&gt;Node146 -->
<g id="edge1" class="edge">
<title>Node145&#45;&gt;Node146</title>
<path fill="none" stroke="#191970" d="M130.9805,-103.5973C156.7295,-113.8147 191.7707,-127.4164 223,-138.5 228.2504,-140.3634 233.73,-142.2494 239.2288,-144.1024"/>
<polygon fill="#191970" stroke="#191970" points="238.5082,-147.5513 249.1018,-147.3901 240.7198,-140.9099 238.5082,-147.5513"/>
</g>
<!-- Node148 -->
<g id="node4" class="node">
<title>Node148</title>
<g id="a_node4"><a xlink:href="classprecice_1_1mapping_1_1Mapping.html#a61c3c55af467ada2bdd735efa0f960e4" target="_top" xlink:title="Returns pointer to input mesh. ">
<polygon fill="#ffffff" stroke="#000000" points="223,-98.5 223,-128.5 371,-128.5 371,-98.5 223,-98.5"/>
<text text-anchor="start" x="231" y="-116.5" font-family="Helvetica,sans-Serif" font-size="10.00" fill="#000000">precice::mapping::Mapping</text>
<text text-anchor="middle" x="297" y="-105.5" font-family="Helvetica,sans-Serif" font-size="10.00" fill="#000000">::input</text>
</a>
</g>
</g>
<!-- Node145&#45;&gt;Node148 -->
<g id="edge3" class="edge">
<title>Node145&#45;&gt;Node148</title>
<path fill="none" stroke="#191970" d="M187.2089,-100.0121C195.7374,-101.0599 204.3417,-102.1169 212.7802,-103.1536"/>
<polygon fill="#191970" stroke="#191970" points="212.6225,-106.6605 222.9747,-104.406 213.4761,-99.7127 212.6225,-106.6605"/>
</g>
<!-- Node149 -->
<g id="node5" class="node">
<title>Node149</title>
<g id="a_node5"><a xlink:href="namespaceprecice_1_1utils_1_1petsc.html#a931b5a402aa2dec020afa7af6167d67e" target="_top" xlink:title="precice::utils::petsc\l::getName">
<polygon fill="#ffffff" stroke="#000000" points="241.5,-49.5 241.5,-79.5 352.5,-79.5 352.5,-49.5 241.5,-49.5"/>
<text text-anchor="start" x="249.5" y="-67.5" font-family="Helvetica,sans-Serif" font-size="10.00" fill="#000000">precice::utils::petsc</text>
<text text-anchor="middle" x="297" y="-56.5" font-family="Helvetica,sans-Serif" font-size="10.00" fill="#000000">::getName</text>
</a>
</g>
</g>
<!-- Node145&#45;&gt;Node149 -->
<g id="edge4" class="edge">
<title>Node145&#45;&gt;Node149</title>
<path fill="none" stroke="#191970" d="M187.2089,-77.4483C202.1503,-75.6862 217.3244,-73.8966 231.4316,-72.2329"/>
<polygon fill="#191970" stroke="#191970" points="231.9755,-75.6931 241.4967,-71.0458 231.1556,-68.7413 231.9755,-75.6931"/>
</g>
<!-- Node150 -->
<g id="node6" class="node">
<title>Node150</title>
<g id="a_node6"><a xlink:href="classprecice_1_1mapping_1_1Mapping.html#a07a71a54b71eda6d54510c94fb188e70" target="_top" xlink:title="Returns pointer to output mesh. ">
<polygon fill="#ffffff" stroke="#000000" points="223,-.5 223,-30.5 371,-30.5 371,-.5 223,-.5"/>
<text text-anchor="start" x="231" y="-18.5" font-family="Helvetica,sans-Serif" font-size="10.00" fill="#000000">precice::mapping::Mapping</text>
<text text-anchor="middle" x="297" y="-7.5" font-family="Helvetica,sans-Serif" font-size="10.00" fill="#000000">::output</text>
</a>
</g>
</g>
<!-- Node145&#45;&gt;Node150 -->
<g id="edge5" class="edge">
<title>Node145&#45;&gt;Node150</title>
<path fill="none" stroke="#191970" d="M133.0655,-73.4945C158.6521,-63.8749 192.7137,-51.2263 223,-40.5 229.0398,-38.3609 235.3709,-36.1598 241.6801,-33.9925"/>
<polygon fill="#191970" stroke="#191970" points="243.1993,-37.1722 251.5315,-30.6281 240.937,-30.5478 243.1993,-37.1722"/>
</g>
<!-- Node147 -->
<g id="node3" class="node">
<title>Node147</title>
<g id="a_node3"><a xlink:href="classprecice_1_1mapping_1_1Mapping.html#a6afbd9aaac2ab09b078db271cfd977a1" target="_top" xlink:title="Returns the constraint (consistent/conservative) of the mapping. ">
<polygon fill="#ffffff" stroke="#000000" points="407,-147.5 407,-177.5 555,-177.5 555,-147.5 407,-147.5"/>
<text text-anchor="start" x="415" y="-165.5" font-family="Helvetica,sans-Serif" font-size="10.00" fill="#000000">precice::mapping::Mapping</text>
<text text-anchor="middle" x="481" y="-154.5" font-family="Helvetica,sans-Serif" font-size="10.00" fill="#000000">::getConstraint</text>
</a>
</g>
</g>
<!-- Node146&#45;&gt;Node147 -->
<g id="edge2" class="edge">
<title>Node146&#45;&gt;Node147</title>
<path fill="none" stroke="#191970" d="M371.0445,-162.5C379.5139,-162.5 388.1946,-162.5 396.7841,-162.5"/>
<polygon fill="#191970" stroke="#191970" points="396.8075,-166.0001 406.8075,-162.5 396.8075,-159.0001 396.8075,-166.0001"/>
</g>
</g>
</svg>
        <g id="navigator" transform="translate(0 0)" fill="#404254">
                <rect fill="#f2f5e9" fill-opacity="0.5" stroke="#606060" stroke-width=".5" x="0" y="0" width="60" height="60"/>
                <use id="zoomplus" xlink:href="#zoomPlus" x="17" y="9" onmousedown="handleZoom(evt,'in')"/>
                <use id="zoomminus" xlink:href="#zoomMin" x="42" y="9" onmousedown="handleZoom(evt,'out')"/>
                <use id="reset" xlink:href="#resetDef" x="30" y="36" onmousedown="handleReset()"/>
                <g id="arrowUp" xlink:href="#dirArrow" transform="translate(30 24)" onmousedown="handlePan(0,-1)">
                  <use xlink:href="#rim" fill="#404040">
                        <set attributeName="fill" to="#808080" begin="arrowUp.mouseover" end="arrowUp.mouseout"/>
                  </use>
                  <path fill="none" stroke="white" stroke-width="1.5" d="M0,-3.0v7 M-2.5,-0.5L0,-3.0L2.5,-0.5"/>
                </g>
                <g id="arrowRight" xlink:href="#dirArrow" transform="rotate(90) translate(36 -43)" onmousedown="handlePan(1,0)">
                  <use xlink:href="#rim" fill="#404040">
                        <set attributeName="fill" to="#808080" begin="arrowRight.mouseover" end="arrowRight.mouseout"/>
                  </use>
                  <path fill="none" stroke="white" stroke-width="1.5" d="M0,-3.0v7 M-2.5,-0.5L0,-3.0L2.5,-0.5"/>
                </g>
                <g id="arrowDown" xlink:href="#dirArrow" transform="rotate(180) translate(-30 -48)" onmousedown="handlePan(0,1)">
                  <use xlink:href="#rim" fill="#404040">
                        <set attributeName="fill" to="#808080" begin="arrowDown.mouseover" end="arrowDown.mouseout"/>
                  </use>
                  <path fill="none" stroke="white" stroke-width="1.5" d="M0,-3.0v7 M-2.5,-0.5L0,-3.0L2.5,-0.5"/>
                </g>
                <g id="arrowLeft" xlink:href="#dirArrow" transform="rotate(270) translate(-36 17)" onmousedown="handlePan(-1,0)">
                  <use xlink:href="#rim" fill="#404040">
                        <set attributeName="fill" to="#808080" begin="arrowLeft.mouseover" end="arrowLeft.mouseout"/>
                  </use>
                  <path fill="none" stroke="white" stroke-width="1.5" d="M0,-3.0v7 M-2.5,-0.5L0,-3.0L2.5,-0.5"/>
                </g>
        </g>
        <svg viewBox="0 0 15 15" width="100%" height="30px" preserveAspectRatio="xMaxYMin meet">
         <g id="arrow_out" transform="scale(0.3 0.3)">
          <a xlink:href="classprecice_1_1mapping_1_1PetRadialBasisFctMapping_ad8a95ad5135e79da63a51578bd657bf0_cgraph_org.svg" target="_base">
           <rect id="button" ry="5" rx="5" y="6" x="6" height="38" width="38"
                fill="#f2f5e9" fill-opacity="0.5" stroke="#606060" stroke-width="1.0"/>
           <path id="arrow"
             d="M 11.500037,31.436501 C 11.940474,20.09759 22.043105,11.32322 32.158766,21.979434 L 37.068811,17.246167 C 37.068811,17.246167 37.088388,32 37.088388,32 L 22.160133,31.978069 C 22.160133,31.978069 26.997745,27.140456 26.997745,27.140456 C 18.528582,18.264221 13.291696,25.230495 11.500037,31.436501 z"
             style="fill:#404040;"/>
          </a>
         </g>
        </svg>
</svg>
