<?xml version="1.0" encoding="UTF-8" standalone="no"?>
<!DOCTYPE svg PUBLIC "-//W3C//DTD SVG 1.1//EN"
 "http://www.w3.org/Graphics/SVG/1.1/DTD/svg11.dtd">
<!-- Generated by graphviz version 2.40.1 (20161225.0304)
 -->
<!-- Title: precice::mesh::Edge::getNormal Pages: 1 -->
<svg width="499pt" height="39pt"
 viewBox="0.00 0.00 499.00 39.00" xmlns="http://www.w3.org/2000/svg" xmlns:xlink="http://www.w3.org/1999/xlink">
<g id="graph0" class="graph" transform="scale(1 1) rotate(0) translate(4 35)">
<title>precice::mesh::Edge::getNormal</title>
<polygon fill="#ffffff" stroke="transparent" points="-4,4 -4,-35 495,-35 495,4 -4,4"/>
<!-- Node13 -->
<g id="node1" class="node">
<title>Node13</title>
<polygon fill="#bfbfbf" stroke="#000000" points="0,-.5 0,-30.5 115,-30.5 115,-.5 0,-.5"/>
<text text-anchor="start" x="8" y="-18.5" font-family="Helvetica,sans-Serif" font-size="10.00" fill="#000000">precice::mesh::Edge</text>
<text text-anchor="middle" x="57.5" y="-7.5" font-family="Helvetica,sans-Serif" font-size="10.00" fill="#000000">::getNormal</text>
</g>
<!-- Node14 -->
<g id="node2" class="node">
<title>Node14</title>
<g id="a_node2"><a xlink:href="namespaceprecice_1_1mesh.html#ac9eb0be9c8594184b6dc6d8ac8c9e427" target="_top" xlink:title="precice::mesh::operator\&lt;\&lt;">
<polygon fill="#ffffff" stroke="#000000" points="151,-6 151,-25 300,-25 300,-6 151,-6"/>
<text text-anchor="middle" x="225.5" y="-13" font-family="Helvetica,sans-Serif" font-size="10.00" fill="#000000">precice::mesh::operator&lt;&lt;</text>
</a>
</g>
</g>
<!-- Node13&#45;&gt;Node14 -->
<g id="edge1" class="edge">
<title>Node13&#45;&gt;Node14</title>
<path fill="none" stroke="#191970" d="M115.3161,-15.5C123.5707,-15.5 132.2002,-15.5 140.8389,-15.5"/>
<polygon fill="#191970" stroke="#191970" points="140.9625,-19.0001 150.9625,-15.5 140.9625,-12.0001 140.9625,-19.0001"/>
</g>
<!-- Node15 -->
<g id="node3" class="node">
<title>Node15</title>
<g id="a_node3"><a xlink:href="classprecice_1_1mesh_1_1BoundingBox.html#a162ff398c9a95bea24f447668b32b3cd" target="_top" xlink:title="Print bounds of bounding box, output operator overload. ">
<polygon fill="#ffffff" stroke="#000000" points="336,-.5 336,-30.5 491,-30.5 491,-.5 336,-.5"/>
<text text-anchor="start" x="344" y="-18.5" font-family="Helvetica,sans-Serif" font-size="10.00" fill="#000000">precice::mesh::BoundingBox</text>
<text text-anchor="middle" x="413.5" y="-7.5" font-family="Helvetica,sans-Serif" font-size="10.00" fill="#000000">::print</text>
</a>
</g>
</g>
<!-- Node14&#45;&gt;Node15 -->
<g id="edge2" class="edge">
<title>Node14&#45;&gt;Node15</title>
<path fill="none" stroke="#191970" d="M300.0726,-15.5C308.5462,-15.5 317.2401,-15.5 325.8622,-15.5"/>
<polygon fill="#191970" stroke="#191970" points="325.9335,-19.0001 335.9335,-15.5 325.9334,-12.0001 325.9335,-19.0001"/>
</g>
</g>
</svg>
