<?xml version="1.0" encoding="UTF-8" standalone="no"?>
<!DOCTYPE svg PUBLIC "-//W3C//DTD SVG 1.1//EN"
 "http://www.w3.org/Graphics/SVG/1.1/DTD/svg11.dtd">
<!-- Generated by graphviz version 2.40.1 (20161225.0304)
 -->
<!-- Title: precice::config::LogConfiguration::xmlTagCallback Pages: 1 -->
<svg width="554pt" height="235pt"
 viewBox="0.00 0.00 554.00 235.00" xmlns="http://www.w3.org/2000/svg" xmlns:xlink="http://www.w3.org/1999/xlink">
<g id="graph0" class="graph" transform="scale(1 1) rotate(0) translate(4 231)">
<title>precice::config::LogConfiguration::xmlTagCallback</title>
<polygon fill="#ffffff" stroke="transparent" points="-4,4 -4,-231 550,-231 550,4 -4,4"/>
<!-- Node9 -->
<g id="node1" class="node">
<title>Node9</title>
<polygon fill="#bfbfbf" stroke="#000000" points="0,-98.5 0,-128.5 176,-128.5 176,-98.5 0,-98.5"/>
<text text-anchor="start" x="8" y="-116.5" font-family="Helvetica,sans-Serif" font-size="10.00" fill="#000000">precice::config::LogConfiguration</text>
<text text-anchor="middle" x="88" y="-105.5" font-family="Helvetica,sans-Serif" font-size="10.00" fill="#000000">::xmlTagCallback</text>
</g>
<!-- Node10 -->
<g id="node2" class="node">
<title>Node10</title>
<g id="a_node2"><a xlink:href="classprecice_1_1xml_1_1XMLTag.html#aa90f7a05aeab6f674ee1499a84a8bb2e" target="_top" xlink:title="Returns full name consisting of xml namespace + &quot;:&quot; + name. ">
<polygon fill="#ffffff" stroke="#000000" points="227,-196.5 227,-226.5 345,-226.5 345,-196.5 227,-196.5"/>
<text text-anchor="start" x="235" y="-214.5" font-family="Helvetica,sans-Serif" font-size="10.00" fill="#000000">precice::xml::XMLTag</text>
<text text-anchor="middle" x="286" y="-203.5" font-family="Helvetica,sans-Serif" font-size="10.00" fill="#000000">::getFullName</text>
</a>
</g>
</g>
<!-- Node9&#45;&gt;Node10 -->
<g id="edge1" class="edge">
<title>Node9&#45;&gt;Node10</title>
<path fill="none" stroke="#191970" d="M110.0262,-128.7219C134.1983,-144.9234 174.5572,-170.5165 212,-187.5 216.1243,-189.3707 220.4377,-191.1631 224.82,-192.8657"/>
<polygon fill="#191970" stroke="#191970" points="223.8838,-196.2513 234.4769,-196.4447 226.3165,-189.6876 223.8838,-196.2513"/>
</g>
<!-- Node11 -->
<g id="node3" class="node">
<title>Node11</title>
<g id="a_node3"><a xlink:href="classprecice_1_1xml_1_1XMLTag.html#a0ef9cef092179e6b86eaf5144fa5c088" target="_top" xlink:title="Returns name (without namespace). ">
<polygon fill="#ffffff" stroke="#000000" points="227,-147.5 227,-177.5 345,-177.5 345,-147.5 227,-147.5"/>
<text text-anchor="start" x="235" y="-165.5" font-family="Helvetica,sans-Serif" font-size="10.00" fill="#000000">precice::xml::XMLTag</text>
<text text-anchor="middle" x="286" y="-154.5" font-family="Helvetica,sans-Serif" font-size="10.00" fill="#000000">::getName</text>
</a>
</g>
</g>
<!-- Node9&#45;&gt;Node11 -->
<g id="edge2" class="edge">
<title>Node9&#45;&gt;Node11</title>
<path fill="none" stroke="#191970" d="M148.7521,-128.5346C170.2425,-133.853 194.5744,-139.8745 216.7195,-145.3548"/>
<polygon fill="#191970" stroke="#191970" points="216.1744,-148.8254 226.7224,-147.8303 217.856,-142.0304 216.1744,-148.8254"/>
</g>
<!-- Node12 -->
<g id="node4" class="node">
<title>Node12</title>
<g id="a_node4"><a xlink:href="classprecice_1_1xml_1_1XMLTag.html#a1ab00bf44c17a59be0dda8b2dba572bd" target="_top" xlink:title="precice::xml::XMLTag\l::getBooleanAttributeValue">
<polygon fill="#ffffff" stroke="#000000" points="212,-98.5 212,-128.5 360,-128.5 360,-98.5 212,-98.5"/>
<text text-anchor="start" x="220" y="-116.5" font-family="Helvetica,sans-Serif" font-size="10.00" fill="#000000">precice::xml::XMLTag</text>
<text text-anchor="middle" x="286" y="-105.5" font-family="Helvetica,sans-Serif" font-size="10.00" fill="#000000">::getBooleanAttributeValue</text>
</a>
</g>
</g>
<!-- Node9&#45;&gt;Node12 -->
<g id="edge3" class="edge">
<title>Node9&#45;&gt;Node12</title>
<path fill="none" stroke="#191970" d="M176.2872,-113.5C184.7185,-113.5 193.2546,-113.5 201.6472,-113.5"/>
<polygon fill="#191970" stroke="#191970" points="201.7963,-117.0001 211.7963,-113.5 201.7963,-110.0001 201.7963,-117.0001"/>
</g>
<!-- Node13 -->
<g id="node5" class="node">
<title>Node13</title>
<g id="a_node5"><a xlink:href="structprecice_1_1logging_1_1BackendConfiguration.html#a791f1c52b69f50e14464e792ed22cd2b" target="_top" xlink:title="Sets on option, overwrites default values. ">
<polygon fill="#ffffff" stroke="#000000" points="215,-49.5 215,-79.5 357,-79.5 357,-49.5 215,-49.5"/>
<text text-anchor="start" x="223" y="-67.5" font-family="Helvetica,sans-Serif" font-size="10.00" fill="#000000">precice::logging::Backend</text>
<text text-anchor="middle" x="286" y="-56.5" font-family="Helvetica,sans-Serif" font-size="10.00" fill="#000000">Configuration::setOption</text>
</a>
</g>
</g>
<!-- Node9&#45;&gt;Node13 -->
<g id="edge4" class="edge">
<title>Node9&#45;&gt;Node13</title>
<path fill="none" stroke="#191970" d="M148.7521,-98.4654C169.8482,-93.2446 193.6824,-87.3463 215.4983,-81.9474"/>
<polygon fill="#191970" stroke="#191970" points="216.4964,-85.306 225.3628,-79.5062 214.8148,-78.511 216.4964,-85.306"/>
</g>
<!-- Node15 -->
<g id="node7" class="node">
<title>Node15</title>
<g id="a_node7"><a xlink:href="classprecice_1_1xml_1_1XMLTag.html#a96199a40175e3f0b1bc108eb280da57b" target="_top" xlink:title="precice::xml::XMLTag\l::getStringAttributeValue">
<polygon fill="#ffffff" stroke="#000000" points="217.5,-.5 217.5,-30.5 354.5,-30.5 354.5,-.5 217.5,-.5"/>
<text text-anchor="start" x="225.5" y="-18.5" font-family="Helvetica,sans-Serif" font-size="10.00" fill="#000000">precice::xml::XMLTag</text>
<text text-anchor="middle" x="286" y="-7.5" font-family="Helvetica,sans-Serif" font-size="10.00" fill="#000000">::getStringAttributeValue</text>
</a>
</g>
</g>
<!-- Node9&#45;&gt;Node15 -->
<g id="edge6" class="edge">
<title>Node9&#45;&gt;Node15</title>
<path fill="none" stroke="#191970" d="M110.5429,-98.3027C134.824,-82.3997 174.9693,-57.4355 212,-40.5 216.9328,-38.244 222.1308,-36.0827 227.3906,-34.0415"/>
<polygon fill="#191970" stroke="#191970" points="228.7342,-37.276 236.8812,-30.5026 226.2885,-30.7171 228.7342,-37.276"/>
</g>
<!-- Node14 -->
<g id="node6" class="node">
<title>Node14</title>
<g id="a_node6"><a xlink:href="namespaceprecice_1_1utils.html#a01d2bf6bb7ad71a30d85d2f5a32dc465" target="_top" xlink:title="Evaluates a string to find out if it represents a bool. ">
<polygon fill="#ffffff" stroke="#000000" points="396,-49.5 396,-79.5 546,-79.5 546,-49.5 396,-49.5"/>
<text text-anchor="start" x="404" y="-67.5" font-family="Helvetica,sans-Serif" font-size="10.00" fill="#000000">precice::utils::convertString</text>
<text text-anchor="middle" x="471" y="-56.5" font-family="Helvetica,sans-Serif" font-size="10.00" fill="#000000">ToBool</text>
</a>
</g>
</g>
<!-- Node13&#45;&gt;Node14 -->
<g id="edge5" class="edge">
<title>Node13&#45;&gt;Node14</title>
<path fill="none" stroke="#191970" d="M357.2612,-64.5C366.5302,-64.5 376.1,-64.5 385.5704,-64.5"/>
<polygon fill="#191970" stroke="#191970" points="385.7889,-68.0001 395.7888,-64.5 385.7888,-61.0001 385.7889,-68.0001"/>
</g>
</g>
</svg>
