<?xml version="1.0" encoding="UTF-8" standalone="no"?>
<!DOCTYPE svg PUBLIC "-//W3C//DTD SVG 1.1//EN"
 "http://www.w3.org/Graphics/SVG/1.1/DTD/svg11.dtd">
<!-- Generated by graphviz version 2.40.1 (20161225.0304)
 -->
<!-- Title: precice::com::MPISinglePortsCommunication::getRemoteCommunicatorSize Pages: 1 -->
<!--zoomable 382 -->
<svg id="main" version="1.1" xmlns="http://www.w3.org/2000/svg" xmlns:xlink="http://www.w3.org/1999/xlink" xml:space="preserve" onload="init(evt)">
<style type="text/css"><![CDATA[
.edge:hover path { stroke: red; }
.edge:hover polygon { stroke: red; fill: red; }
]]></style>
<script type="text/javascript"><![CDATA[
var edges = document.getElementsByTagName('g');
if (edges && edges.length) {
  for (var i=0;i<edges.length;i++) {
    if (edges[i].id.substr(0,4)=='edge') {
      edges[i].setAttribute('class','edge');
    }
  }
}
]]></script>
        <defs>
                <circle id="rim" cx="0" cy="0" r="7"/>
                <circle id="rim2" cx="0" cy="0" r="3.5"/>
                <g id="zoomPlus">
                        <use xlink:href="#rim" fill="#404040">
                                <set attributeName="fill" to="#808080" begin="zoomplus.mouseover" end="zoomplus.mouseout"/>
                        </use>
                        <path d="M-4,0h8M0,-4v8" fill="none" stroke="white" stroke-width="1.5" pointer-events="none"/>
                </g>
                <g id="zoomMin">
                        <use xlink:href="#rim" fill="#404040">
                                <set attributeName="fill" to="#808080" begin="zoomminus.mouseover" end="zoomminus.mouseout"/>
                        </use>
                        <path d="M-4,0h8" fill="none" stroke="white" stroke-width="1.5" pointer-events="none"/>
                </g>
                <g id="dirArrow">
                        <path fill="none" stroke="white" stroke-width="1.5" d="M0,-3.0v7 M-2.5,-0.5L0,-3.0L2.5,-0.5"/>
                </g>
               <g id="resetDef">
                       <use xlink:href="#rim2" fill="#404040">
                               <set attributeName="fill" to="#808080" begin="reset.mouseover" end="reset.mouseout"/>
                       </use>
               </g>
        </defs>

<script type="text/javascript">
var viewWidth = 1152;
var viewHeight = 382;
var sectionId = 'dynsection-7';
</script>
<script xlink:href="svgpan.js"/>
<svg id="graph" class="graph">
<g id="viewport">
<title>precice::com::MPISinglePortsCommunication::getRemoteCommunicatorSize</title>
<polygon fill="#ffffff" stroke="transparent" points="-4,4 -4,-378 1148,-378 1148,4 -4,4"/>
<!-- Node92 -->
<g id="node1" class="node">
<title>Node92</title>
<polygon fill="#bfbfbf" stroke="#000000" points="0,-142.5 0,-172.5 222,-172.5 222,-142.5 0,-142.5"/>
<text text-anchor="start" x="8" y="-160.5" font-family="Helvetica,sans-Serif" font-size="10.00" fill="#000000">precice::com::MPISinglePorts</text>
<text text-anchor="middle" x="111" y="-149.5" font-family="Helvetica,sans-Serif" font-size="10.00" fill="#000000">Communication::getRemoteCommunicatorSize</text>
</g>
<!-- Node93 -->
<g id="node2" class="node">
<title>Node93</title>
<g id="a_node2"><a xlink:href="classprecice_1_1com_1_1Communication.html#a444946d1a6c67c352fe96b56cdbf1fd2" target="_top" xlink:title="Returns true, if a connection to a remote participant has been setup. ">
<polygon fill="#ffffff" stroke="#000000" points="258,-142.5 258,-172.5 405,-172.5 405,-142.5 258,-142.5"/>
<text text-anchor="start" x="266" y="-160.5" font-family="Helvetica,sans-Serif" font-size="10.00" fill="#000000">precice::com::Communication</text>
<text text-anchor="middle" x="331.5" y="-149.5" font-family="Helvetica,sans-Serif" font-size="10.00" fill="#000000">::isConnected</text>
</a>
</g>
</g>
<!-- Node92&#45;&gt;Node93 -->
<g id="edge1" class="edge">
<title>Node92&#45;&gt;Node93</title>
<path fill="none" stroke="#191970" d="M222.219,-157.5C230.8175,-157.5 239.4081,-157.5 247.7816,-157.5"/>
<polygon fill="#191970" stroke="#191970" points="247.8738,-161.0001 257.8737,-157.5 247.8737,-154.0001 247.8738,-161.0001"/>
</g>
<!-- Node94 -->
<g id="node3" class="node">
<title>Node94</title>
<g id="a_node3"><a xlink:href="classprecice_1_1com_1_1Communication.html#a5319067292ba3f7979d92a72f9298f80" target="_top" xlink:title="Returns the number of processes in the remote communicator. ">
<polygon fill="#ffffff" stroke="#000000" points="990,-343.5 990,-373.5 1144,-373.5 1144,-343.5 990,-343.5"/>
<text text-anchor="start" x="998" y="-361.5" font-family="Helvetica,sans-Serif" font-size="10.00" fill="#000000">precice::com::Communication</text>
<text text-anchor="middle" x="1067" y="-350.5" font-family="Helvetica,sans-Serif" font-size="10.00" fill="#000000">::getRemoteCommunicatorSize</text>
</a>
</g>
</g>
<!-- Node93&#45;&gt;Node94 -->
<g id="edge2" class="edge">
<title>Node93&#45;&gt;Node94</title>
<path fill="none" stroke="#191970" d="M344.3808,-172.5327C363.3519,-193.684 400.9164,-231.9371 441,-252.5 616.8819,-342.7273 853.5429,-358.5597 979.5183,-359.9504"/>
<polygon fill="#191970" stroke="#191970" points="979.8483,-363.4531 989.8765,-360.0347 979.9053,-356.4533 979.8483,-363.4531"/>
</g>
<!-- Node95 -->
<g id="node4" class="node">
<title>Node95</title>
<g id="a_node4"><a xlink:href="classprecice_1_1com_1_1Communication.html#a652a8cbe5447146b4b3b6200db5ddbeb" target="_top" xlink:title="Accepts connection from another communicator, which has to call requestConnection(). ">
<polygon fill="#ffffff" stroke="#000000" points="624,-235.5 624,-265.5 771,-265.5 771,-235.5 624,-235.5"/>
<text text-anchor="start" x="632" y="-253.5" font-family="Helvetica,sans-Serif" font-size="10.00" fill="#000000">precice::com::Communication</text>
<text text-anchor="middle" x="697.5" y="-242.5" font-family="Helvetica,sans-Serif" font-size="10.00" fill="#000000">::acceptConnection</text>
</a>
</g>
</g>
<!-- Node93&#45;&gt;Node95 -->
<g id="edge3" class="edge">
<title>Node93&#45;&gt;Node95</title>
<path fill="none" stroke="#191970" d="M349.4914,-172.6353C370.1282,-189.0438 405.686,-214.4912 441,-226.5 496.577,-245.3994 562.5886,-251.2281 613.7264,-252.4208"/>
<polygon fill="#191970" stroke="#191970" points="613.6871,-255.9206 623.7481,-252.6 613.8124,-248.9217 613.6871,-255.9206"/>
</g>
<!-- Node96 -->
<g id="node5" class="node">
<title>Node96</title>
<g id="a_node5"><a xlink:href="classprecice_1_1com_1_1Communication.html#a64c6c2ea54877c8ae14373d84ba7a808" target="_top" xlink:title="Accepts connection from another communicator, which has to call requestConnectionAsClient(). ">
<polygon fill="#ffffff" stroke="#000000" points="441,-98.5 441,-128.5 588,-128.5 588,-98.5 441,-98.5"/>
<text text-anchor="start" x="449" y="-116.5" font-family="Helvetica,sans-Serif" font-size="10.00" fill="#000000">precice::com::Communication</text>
<text text-anchor="middle" x="514.5" y="-105.5" font-family="Helvetica,sans-Serif" font-size="10.00" fill="#000000">::acceptConnectionAsServer</text>
</a>
</g>
</g>
<!-- Node93&#45;&gt;Node96 -->
<g id="edge4" class="edge">
<title>Node93&#45;&gt;Node96</title>
<path fill="none" stroke="#191970" d="M393.9664,-142.4808C409.4864,-138.7492 426.2497,-134.7186 442.1982,-130.884"/>
<polygon fill="#191970" stroke="#191970" points="443.1,-134.267 452.0046,-128.5262 441.4635,-127.461 443.1,-134.267"/>
</g>
<!-- Node97 -->
<g id="node6" class="node">
<title>Node97</title>
<g id="a_node6"><a xlink:href="classprecice_1_1com_1_1Communication.html#ab019bdb3f7ad242a84bdc70cf0236a87" target="_top" xlink:title="Connects to another communicator, which has to call acceptConnection(). ">
<polygon fill="#ffffff" stroke="#000000" points="624,-88.5 624,-118.5 771,-118.5 771,-88.5 624,-88.5"/>
<text text-anchor="start" x="632" y="-106.5" font-family="Helvetica,sans-Serif" font-size="10.00" fill="#000000">precice::com::Communication</text>
<text text-anchor="middle" x="697.5" y="-95.5" font-family="Helvetica,sans-Serif" font-size="10.00" fill="#000000">::requestConnection</text>
</a>
</g>
</g>
<!-- Node93&#45;&gt;Node97 -->
<g id="edge5" class="edge">
<title>Node93&#45;&gt;Node97</title>
<path fill="none" stroke="#191970" d="M405.0492,-156.1121C456.6444,-154.083 527.0244,-149.1914 588,-137.5 593.7346,-136.4005 617.2153,-129.1664 640.9701,-121.6521"/>
<polygon fill="#191970" stroke="#191970" points="642.2859,-124.9067 650.7587,-118.5456 640.1684,-118.2346 642.2859,-124.9067"/>
</g>
<!-- Node98 -->
<g id="node7" class="node">
<title>Node98</title>
<g id="a_node7"><a xlink:href="classprecice_1_1com_1_1Communication.html#a207ba1e3f1ae07417b921a1ff5cc476a" target="_top" xlink:title="Connects to another communicator, which has to call acceptConnectionAsServer(). ">
<polygon fill="#ffffff" stroke="#000000" points="441,-49.5 441,-79.5 588,-79.5 588,-49.5 441,-49.5"/>
<text text-anchor="start" x="449" y="-67.5" font-family="Helvetica,sans-Serif" font-size="10.00" fill="#000000">precice::com::Communication</text>
<text text-anchor="middle" x="514.5" y="-56.5" font-family="Helvetica,sans-Serif" font-size="10.00" fill="#000000">::requestConnectionAsClient</text>
</a>
</g>
</g>
<!-- Node93&#45;&gt;Node98 -->
<g id="edge6" class="edge">
<title>Node93&#45;&gt;Node98</title>
<path fill="none" stroke="#191970" d="M352.0174,-142.398C373.3859,-127.202 408.2531,-103.8746 441,-88.5 445.0041,-86.6201 449.1952,-84.8265 453.4589,-83.1281"/>
<polygon fill="#191970" stroke="#191970" points="454.7523,-86.3809 462.8642,-79.5656 452.2728,-79.8347 454.7523,-86.3809"/>
</g>
<!-- Node99 -->
<g id="node8" class="node">
<title>Node99</title>
<g id="a_node8"><a xlink:href="classprecice_1_1com_1_1Communication.html#a60034c02c08a248a7b2cd539cb69568b" target="_top" xlink:title="precice::com::Communication\l::connectMasterSlaves">
<polygon fill="#ffffff" stroke="#000000" points="441,-186.5 441,-216.5 588,-216.5 588,-186.5 441,-186.5"/>
<text text-anchor="start" x="449" y="-204.5" font-family="Helvetica,sans-Serif" font-size="10.00" fill="#000000">precice::com::Communication</text>
<text text-anchor="middle" x="514.5" y="-193.5" font-family="Helvetica,sans-Serif" font-size="10.00" fill="#000000">::connectMasterSlaves</text>
</a>
</g>
</g>
<!-- Node93&#45;&gt;Node99 -->
<g id="edge7" class="edge">
<title>Node93&#45;&gt;Node99</title>
<path fill="none" stroke="#191970" d="M393.9664,-172.5192C409.4864,-176.2508 426.2497,-180.2814 442.1982,-184.116"/>
<polygon fill="#191970" stroke="#191970" points="441.4635,-187.539 452.0046,-186.4738 443.1,-180.733 441.4635,-187.539"/>
</g>
<!-- Node110 -->
<g id="node19" class="node">
<title>Node110</title>
<g id="a_node19"><a xlink:href="classprecice_1_1com_1_1Communication.html#adce43462d51714bd1ad6ba5cb4e68fee" target="_top" xlink:title="Disconnects from communication space, i.e. participant. ">
<polygon fill="#ffffff" stroke="#000000" points="441,-.5 441,-30.5 588,-30.5 588,-.5 441,-.5"/>
<text text-anchor="start" x="449" y="-18.5" font-family="Helvetica,sans-Serif" font-size="10.00" fill="#000000">precice::com::Communication</text>
<text text-anchor="middle" x="514.5" y="-7.5" font-family="Helvetica,sans-Serif" font-size="10.00" fill="#000000">::closeConnection</text>
</a>
</g>
</g>
<!-- Node93&#45;&gt;Node110 -->
<g id="edge25" class="edge">
<title>Node93&#45;&gt;Node110</title>
<path fill="none" stroke="#191970" d="M341.7623,-142.141C359.2495,-117.1125 397.2126,-67.5157 441,-39.5 443.5741,-37.853 446.2717,-36.3092 449.0504,-34.8632"/>
<polygon fill="#191970" stroke="#191970" points="450.5979,-38.0031 458.149,-30.5713 447.6115,-31.6721 450.5979,-38.0031"/>
</g>
<!-- Node99&#45;&gt;Node95 -->
<g id="edge9" class="edge">
<title>Node99&#45;&gt;Node95</title>
<path fill="none" stroke="#191970" d="M570.8993,-216.6014C590.0353,-221.7253 611.5855,-227.4956 631.4079,-232.8032"/>
<polygon fill="#191970" stroke="#191970" points="630.722,-236.2428 641.287,-235.4484 632.5325,-229.481 630.722,-236.2428"/>
</g>
<!-- Node99&#45;&gt;Node97 -->
<g id="edge24" class="edge">
<title>Node99&#45;&gt;Node97</title>
<path fill="none" stroke="#191970" d="M561.4589,-186.4229C570.7128,-182.3495 580.0186,-177.3966 588,-171.5 608.3223,-156.4859 603.1511,-141.7739 624,-127.5 626.2585,-125.9537 628.6236,-124.5015 631.0638,-123.1382"/>
<polygon fill="#191970" stroke="#191970" points="632.7954,-126.1855 640.1729,-118.5814 629.6636,-119.9252 632.7954,-126.1855"/>
</g>
<!-- Node100 -->
<g id="node9" class="node">
<title>Node100</title>
<g id="a_node9"><a xlink:href="classprecice_1_1com_1_1Communication.html#a39d443a319b10525a50bac6b03ddd600" target="_top" xlink:title="Prepare environment used to establish the communication. ">
<polygon fill="#ffffff" stroke="#000000" points="624,-137.5 624,-167.5 771,-167.5 771,-137.5 624,-137.5"/>
<text text-anchor="start" x="632" y="-155.5" font-family="Helvetica,sans-Serif" font-size="10.00" fill="#000000">precice::com::Communication</text>
<text text-anchor="middle" x="697.5" y="-144.5" font-family="Helvetica,sans-Serif" font-size="10.00" fill="#000000">::prepareEstablishment</text>
</a>
</g>
</g>
<!-- Node99&#45;&gt;Node100 -->
<g id="edge8" class="edge">
<title>Node99&#45;&gt;Node100</title>
<path fill="none" stroke="#191970" d="M570.8993,-186.3986C590.0353,-181.2747 611.5855,-175.5044 631.4079,-170.1968"/>
<polygon fill="#191970" stroke="#191970" points="632.5325,-173.519 641.287,-167.5516 630.722,-166.7572 632.5325,-173.519"/>
</g>
<!-- Node101 -->
<g id="node10" class="node">
<title>Node101</title>
<g id="a_node10"><a xlink:href="classprecice_1_1com_1_1Communication.html#a08e2067629d6f0198918a21467d29762" target="_top" xlink:title="Clean&#45;up environment used to establish the communication. ">
<polygon fill="#ffffff" stroke="#000000" points="624,-186.5 624,-216.5 771,-216.5 771,-186.5 624,-186.5"/>
<text text-anchor="start" x="632" y="-204.5" font-family="Helvetica,sans-Serif" font-size="10.00" fill="#000000">precice::com::Communication</text>
<text text-anchor="middle" x="697.5" y="-193.5" font-family="Helvetica,sans-Serif" font-size="10.00" fill="#000000">::cleanupEstablishment</text>
</a>
</g>
</g>
<!-- Node99&#45;&gt;Node101 -->
<g id="edge10" class="edge">
<title>Node99&#45;&gt;Node101</title>
<path fill="none" stroke="#191970" d="M588.1421,-201.5C596.4739,-201.5 605.0113,-201.5 613.4632,-201.5"/>
<polygon fill="#191970" stroke="#191970" points="613.7108,-205.0001 623.7107,-201.5 613.7107,-198.0001 613.7108,-205.0001"/>
</g>
<!-- Node102 -->
<g id="node11" class="node">
<title>Node102</title>
<g id="a_node11"><a xlink:href="classprecice_1_1com_1_1Communication.html#a2462e0a8e7053d7ded3ca67d5b3bfaf6" target="_top" xlink:title="Performs a reduce summation on the rank given by rankMaster. ">
<polygon fill="#ffffff" stroke="#000000" points="807,-211.5 807,-241.5 954,-241.5 954,-211.5 807,-211.5"/>
<text text-anchor="start" x="815" y="-229.5" font-family="Helvetica,sans-Serif" font-size="10.00" fill="#000000">precice::com::Communication</text>
<text text-anchor="middle" x="880.5" y="-218.5" font-family="Helvetica,sans-Serif" font-size="10.00" fill="#000000">::reduceSum</text>
</a>
</g>
</g>
<!-- Node101&#45;&gt;Node102 -->
<g id="edge11" class="edge">
<title>Node101&#45;&gt;Node102</title>
<path fill="none" stroke="#191970" d="M771.1421,-211.5604C779.5655,-212.7111 788.199,-213.8906 796.7418,-215.0576"/>
<polygon fill="#191970" stroke="#191970" points="796.329,-218.5337 806.7107,-216.4195 797.2765,-211.5981 796.329,-218.5337"/>
</g>
<!-- Node103 -->
<g id="node12" class="node">
<title>Node103</title>
<g id="a_node12"><a xlink:href="classprecice_1_1com_1_1Communication.html#a1ab2da696572afe406801d329442da10" target="_top" xlink:title="precice::com::Communication\l::aSend">
<polygon fill="#ffffff" stroke="#000000" points="993.5,-228.5 993.5,-258.5 1140.5,-258.5 1140.5,-228.5 993.5,-228.5"/>
<text text-anchor="start" x="1001.5" y="-246.5" font-family="Helvetica,sans-Serif" font-size="10.00" fill="#000000">precice::com::Communication</text>
<text text-anchor="middle" x="1067" y="-235.5" font-family="Helvetica,sans-Serif" font-size="10.00" fill="#000000">::aSend</text>
</a>
</g>
</g>
<!-- Node101&#45;&gt;Node103 -->
<g id="edge21" class="edge">
<title>Node101&#45;&gt;Node103</title>
<path fill="none" stroke="#191970" d="M748.0843,-216.6159C755.9076,-219.547 763.7805,-222.8561 771,-226.5 788.3901,-235.2773 788.4106,-245.6784 807,-251.5 863.867,-269.3089 931.1876,-266.6335 983.0769,-259.8592"/>
<polygon fill="#191970" stroke="#191970" points="983.8147,-263.2906 993.2414,-258.4545 982.8564,-256.3565 983.8147,-263.2906"/>
</g>
<!-- Node104 -->
<g id="node13" class="node">
<title>Node104</title>
<g id="a_node13"><a xlink:href="classprecice_1_1com_1_1Communication.html#ab51a4a3d5b89bff04e9aa64a2d9dfb96" target="_top" xlink:title="precice::com::Communication\l::allreduceSum">
<polygon fill="#ffffff" stroke="#000000" points="807,-162.5 807,-192.5 954,-192.5 954,-162.5 807,-162.5"/>
<text text-anchor="start" x="815" y="-180.5" font-family="Helvetica,sans-Serif" font-size="10.00" fill="#000000">precice::com::Communication</text>
<text text-anchor="middle" x="880.5" y="-169.5" font-family="Helvetica,sans-Serif" font-size="10.00" fill="#000000">::allreduceSum</text>
</a>
</g>
</g>
<!-- Node101&#45;&gt;Node104 -->
<g id="edge13" class="edge">
<title>Node101&#45;&gt;Node104</title>
<path fill="none" stroke="#191970" d="M771.1421,-191.842C779.5655,-190.7373 788.199,-189.6051 796.7418,-188.4847"/>
<polygon fill="#191970" stroke="#191970" points="797.2508,-191.948 806.7107,-187.1773 796.3405,-185.0074 797.2508,-191.948"/>
</g>
<!-- Node105 -->
<g id="node14" class="node">
<title>Node105</title>
<g id="a_node14"><a xlink:href="classprecice_1_1com_1_1Communication.html#a21ea14f324d167cc309574d3dc5e17ee" target="_top" xlink:title="Receives a std::string from process with given rank. ">
<polygon fill="#ffffff" stroke="#000000" points="993.5,-140.5 993.5,-170.5 1140.5,-170.5 1140.5,-140.5 993.5,-140.5"/>
<text text-anchor="start" x="1001.5" y="-158.5" font-family="Helvetica,sans-Serif" font-size="10.00" fill="#000000">precice::com::Communication</text>
<text text-anchor="middle" x="1067" y="-147.5" font-family="Helvetica,sans-Serif" font-size="10.00" fill="#000000">::receive</text>
</a>
</g>
</g>
<!-- Node101&#45;&gt;Node105 -->
<g id="edge22" class="edge">
<title>Node101&#45;&gt;Node105</title>
<path fill="none" stroke="#191970" d="M747.6325,-186.4088C755.5919,-183.4568 763.6253,-180.1348 771,-176.5 788.2484,-167.9987 788.5955,-158.0724 807,-152.5 864.0103,-135.2387 931.3265,-136.5688 983.1779,-141.9108"/>
<polygon fill="#191970" stroke="#191970" points="983.0115,-145.4135 993.3343,-143.0283 983.7772,-138.4555 983.0115,-145.4135"/>
</g>
<!-- Node106 -->
<g id="node15" class="node">
<title>Node106</title>
<g id="a_node15"><a xlink:href="classprecice_1_1com_1_1Communication.html#acfa95686c5b494b3adfe11d5b5d23b87" target="_top" xlink:title="precice::com::Communication\l::broadcast">
<polygon fill="#ffffff" stroke="#000000" points="807,-299.5 807,-329.5 954,-329.5 954,-299.5 807,-299.5"/>
<text text-anchor="start" x="815" y="-317.5" font-family="Helvetica,sans-Serif" font-size="10.00" fill="#000000">precice::com::Communication</text>
<text text-anchor="middle" x="880.5" y="-306.5" font-family="Helvetica,sans-Serif" font-size="10.00" fill="#000000">::broadcast</text>
</a>
</g>
</g>
<!-- Node101&#45;&gt;Node106 -->
<g id="edge16" class="edge">
<title>Node101&#45;&gt;Node106</title>
<path fill="none" stroke="#191970" d="M754.9352,-216.5806C760.6639,-219.3636 766.1464,-222.6422 771,-226.5 794.751,-245.3781 783.8226,-264.9219 807,-284.5 811.5192,-288.3174 816.5891,-291.698 821.8981,-294.681"/>
<polygon fill="#191970" stroke="#191970" points="820.5058,-297.9 831.0033,-299.3328 823.6905,-291.6664 820.5058,-297.9"/>
</g>
<!-- Node108 -->
<g id="node17" class="node">
<title>Node108</title>
<g id="a_node17"><a xlink:href="classprecice_1_1com_1_1Communication.html#a8fb5e92432fc9751ae165953156980b5" target="_top" xlink:title="Sends a std::string to process with given rank. ">
<polygon fill="#ffffff" stroke="#000000" points="807,-74.5 807,-104.5 954,-104.5 954,-74.5 807,-74.5"/>
<text text-anchor="start" x="815" y="-92.5" font-family="Helvetica,sans-Serif" font-size="10.00" fill="#000000">precice::com::Communication</text>
<text text-anchor="middle" x="880.5" y="-81.5" font-family="Helvetica,sans-Serif" font-size="10.00" fill="#000000">::send</text>
</a>
</g>
</g>
<!-- Node101&#45;&gt;Node108 -->
<g id="edge20" class="edge">
<title>Node101&#45;&gt;Node108</title>
<path fill="none" stroke="#191970" d="M754.9048,-186.381C760.6392,-183.6052 766.1313,-180.3388 771,-176.5 794.5289,-157.9482 784.0349,-138.7453 807,-119.5 811.6017,-115.6436 816.7657,-112.231 822.1672,-109.2228"/>
<polygon fill="#191970" stroke="#191970" points="824.0844,-112.1752 831.4246,-104.535 820.922,-105.9302 824.0844,-112.1752"/>
</g>
<!-- Node109 -->
<g id="node18" class="node">
<title>Node109</title>
<g id="a_node18"><a xlink:href="classprecice_1_1com_1_1Communication.html#a5460dcca7939aa7f22aba4a7f68b656f" target="_top" xlink:title="Asynchronously receives an array of double values. ">
<polygon fill="#ffffff" stroke="#000000" points="807,-25.5 807,-55.5 954,-55.5 954,-25.5 807,-25.5"/>
<text text-anchor="start" x="815" y="-43.5" font-family="Helvetica,sans-Serif" font-size="10.00" fill="#000000">precice::com::Communication</text>
<text text-anchor="middle" x="880.5" y="-32.5" font-family="Helvetica,sans-Serif" font-size="10.00" fill="#000000">::aReceive</text>
</a>
</g>
</g>
<!-- Node101&#45;&gt;Node109 -->
<g id="edge23" class="edge">
<title>Node101&#45;&gt;Node109</title>
<path fill="none" stroke="#191970" d="M758.1044,-186.3507C762.8269,-183.5975 767.22,-180.3443 771,-176.5 807.6588,-139.2178 770.1137,-101.5571 807,-64.5 808.0654,-63.4297 809.179,-62.4071 810.3347,-61.4302"/>
<polygon fill="#191970" stroke="#191970" points="812.3828,-64.2685 818.5049,-55.6215 808.3267,-58.5634 812.3828,-64.2685"/>
</g>
<!-- Node102&#45;&gt;Node103 -->
<g id="edge12" class="edge">
<title>Node102&#45;&gt;Node103</title>
<path fill="none" stroke="#191970" d="M954.2097,-233.2189C963.7312,-234.0868 973.5371,-234.9806 983.2061,-235.862"/>
<polygon fill="#191970" stroke="#191970" points="982.9385,-239.352 993.2149,-236.7743 983.574,-232.3809 982.9385,-239.352"/>
</g>
<!-- Node104&#45;&gt;Node103 -->
<g id="edge14" class="edge">
<title>Node104&#45;&gt;Node103</title>
<path fill="none" stroke="#191970" d="M925.2485,-192.5597C934.7522,-195.803 944.7174,-199.2377 954,-202.5 974.5488,-209.7217 997.1241,-217.8696 1016.6582,-224.9881"/>
<polygon fill="#191970" stroke="#191970" points="1015.6803,-228.357 1026.2742,-228.4985 1018.0808,-221.7814 1015.6803,-228.357"/>
</g>
<!-- Node104&#45;&gt;Node105 -->
<g id="edge15" class="edge">
<title>Node104&#45;&gt;Node105</title>
<path fill="none" stroke="#191970" d="M954.2097,-168.805C963.7312,-167.6818 973.5371,-166.5251 983.2061,-165.3845"/>
<polygon fill="#191970" stroke="#191970" points="983.6939,-168.8514 993.2149,-164.2039 982.8737,-161.8996 983.6939,-168.8514"/>
</g>
<!-- Node106&#45;&gt;Node94 -->
<g id="edge17" class="edge">
<title>Node106&#45;&gt;Node94</title>
<path fill="none" stroke="#191970" d="M944.1611,-329.5192C959.978,-333.2508 977.0619,-337.2814 993.3154,-341.116"/>
<polygon fill="#191970" stroke="#191970" points="992.7729,-344.584 1003.3094,-343.4738 994.3803,-337.771 992.7729,-344.584"/>
</g>
<!-- Node106&#45;&gt;Node103 -->
<g id="edge18" class="edge">
<title>Node106&#45;&gt;Node103</title>
<path fill="none" stroke="#191970" d="M920.0519,-299.4427C948.6107,-288.5704 987.3632,-273.8175 1017.9019,-262.1915"/>
<polygon fill="#191970" stroke="#191970" points="1019.4048,-265.3645 1027.5052,-258.5356 1016.9142,-258.8225 1019.4048,-265.3645"/>
</g>
<!-- Node107 -->
<g id="node16" class="node">
<title>Node107</title>
<g id="a_node16"><a xlink:href="classprecice_1_1com_1_1Request.html#ad07792939dd8a5e4e23791e21aeacff0" target="_top" xlink:title="precice::com::Request\l::wait">
<polygon fill="#ffffff" stroke="#000000" points="1009,-294.5 1009,-324.5 1125,-324.5 1125,-294.5 1009,-294.5"/>
<text text-anchor="start" x="1017" y="-312.5" font-family="Helvetica,sans-Serif" font-size="10.00" fill="#000000">precice::com::Request</text>
<text text-anchor="middle" x="1067" y="-301.5" font-family="Helvetica,sans-Serif" font-size="10.00" fill="#000000">::wait</text>
</a>
</g>
</g>
<!-- Node106&#45;&gt;Node107 -->
<g id="edge19" class="edge">
<title>Node106&#45;&gt;Node107</title>
<path fill="none" stroke="#191970" d="M954.2097,-312.5239C968.7933,-312.1329 984.0445,-311.724 998.4485,-311.3378"/>
<polygon fill="#191970" stroke="#191970" points="998.8628,-314.8281 1008.7654,-311.0613 998.6751,-307.8306 998.8628,-314.8281"/>
</g>
</g>
</svg>
        <g id="navigator" transform="translate(0 0)" fill="#404254">
                <rect fill="#f2f5e9" fill-opacity="0.5" stroke="#606060" stroke-width=".5" x="0" y="0" width="60" height="60"/>
                <use id="zoomplus" xlink:href="#zoomPlus" x="17" y="9" onmousedown="handleZoom(evt,'in')"/>
                <use id="zoomminus" xlink:href="#zoomMin" x="42" y="9" onmousedown="handleZoom(evt,'out')"/>
                <use id="reset" xlink:href="#resetDef" x="30" y="36" onmousedown="handleReset()"/>
                <g id="arrowUp" xlink:href="#dirArrow" transform="translate(30 24)" onmousedown="handlePan(0,-1)">
                  <use xlink:href="#rim" fill="#404040">
                        <set attributeName="fill" to="#808080" begin="arrowUp.mouseover" end="arrowUp.mouseout"/>
                  </use>
                  <path fill="none" stroke="white" stroke-width="1.5" d="M0,-3.0v7 M-2.5,-0.5L0,-3.0L2.5,-0.5"/>
                </g>
                <g id="arrowRight" xlink:href="#dirArrow" transform="rotate(90) translate(36 -43)" onmousedown="handlePan(1,0)">
                  <use xlink:href="#rim" fill="#404040">
                        <set attributeName="fill" to="#808080" begin="arrowRight.mouseover" end="arrowRight.mouseout"/>
                  </use>
                  <path fill="none" stroke="white" stroke-width="1.5" d="M0,-3.0v7 M-2.5,-0.5L0,-3.0L2.5,-0.5"/>
                </g>
                <g id="arrowDown" xlink:href="#dirArrow" transform="rotate(180) translate(-30 -48)" onmousedown="handlePan(0,1)">
                  <use xlink:href="#rim" fill="#404040">
                        <set attributeName="fill" to="#808080" begin="arrowDown.mouseover" end="arrowDown.mouseout"/>
                  </use>
                  <path fill="none" stroke="white" stroke-width="1.5" d="M0,-3.0v7 M-2.5,-0.5L0,-3.0L2.5,-0.5"/>
                </g>
                <g id="arrowLeft" xlink:href="#dirArrow" transform="rotate(270) translate(-36 17)" onmousedown="handlePan(-1,0)">
                  <use xlink:href="#rim" fill="#404040">
                        <set attributeName="fill" to="#808080" begin="arrowLeft.mouseover" end="arrowLeft.mouseout"/>
                  </use>
                  <path fill="none" stroke="white" stroke-width="1.5" d="M0,-3.0v7 M-2.5,-0.5L0,-3.0L2.5,-0.5"/>
                </g>
        </g>
        <svg viewBox="0 0 15 15" width="100%" height="30px" preserveAspectRatio="xMaxYMin meet">
         <g id="arrow_out" transform="scale(0.3 0.3)">
          <a xlink:href="classprecice_1_1com_1_1MPISinglePortsCommunication_a76e20b72ec8b376a83998feb04d1132b_cgraph_org.svg" target="_base">
           <rect id="button" ry="5" rx="5" y="6" x="6" height="38" width="38"
                fill="#f2f5e9" fill-opacity="0.5" stroke="#606060" stroke-width="1.0"/>
           <path id="arrow"
             d="M 11.500037,31.436501 C 11.940474,20.09759 22.043105,11.32322 32.158766,21.979434 L 37.068811,17.246167 C 37.068811,17.246167 37.088388,32 37.088388,32 L 22.160133,31.978069 C 22.160133,31.978069 26.997745,27.140456 26.997745,27.140456 C 18.528582,18.264221 13.291696,25.230495 11.500037,31.436501 z"
             style="fill:#404040;"/>
          </a>
         </g>
        </svg>
</svg>
