<?xml version="1.0" encoding="UTF-8" standalone="no"?>
<!DOCTYPE svg PUBLIC "-//W3C//DTD SVG 1.1//EN"
 "http://www.w3.org/Graphics/SVG/1.1/DTD/svg11.dtd">
<!-- Generated by graphviz version 2.40.1 (20161225.0304)
 -->
<!-- Title: precice::impl::SolverInterfaceImpl::determineAccessingParticipant Pages: 1 -->
<svg width="460pt" height="39pt"
 viewBox="0.00 0.00 460.00 39.00" xmlns="http://www.w3.org/2000/svg" xmlns:xlink="http://www.w3.org/1999/xlink">
<g id="graph0" class="graph" transform="scale(1 1) rotate(0) translate(4 35)">
<title>precice::impl::SolverInterfaceImpl::determineAccessingParticipant</title>
<polygon fill="#ffffff" stroke="transparent" points="-4,4 -4,-35 456,-35 456,4 -4,4"/>
<!-- Node103 -->
<g id="node1" class="node">
<title>Node103</title>
<polygon fill="#bfbfbf" stroke="#000000" points="0,-.5 0,-30.5 195,-30.5 195,-.5 0,-.5"/>
<text text-anchor="start" x="8" y="-18.5" font-family="Helvetica,sans-Serif" font-size="10.00" fill="#000000">precice::impl::SolverInterface</text>
<text text-anchor="middle" x="97.5" y="-7.5" font-family="Helvetica,sans-Serif" font-size="10.00" fill="#000000">Impl::determineAccessingParticipant</text>
</g>
<!-- Node104 -->
<g id="node2" class="node">
<title>Node104</title>
<g id="a_node2"><a xlink:href="classprecice_1_1config_1_1SolverInterfaceConfiguration.html#ad2911471748b12587435f8b03f22c0de" target="_top" xlink:title="precice::config::SolverInterface\lConfiguration::getParticipantConfiguration">
<polygon fill="#ffffff" stroke="#000000" points="231,-.5 231,-30.5 452,-30.5 452,-.5 231,-.5"/>
<text text-anchor="start" x="239" y="-18.5" font-family="Helvetica,sans-Serif" font-size="10.00" fill="#000000">precice::config::SolverInterface</text>
<text text-anchor="middle" x="341.5" y="-7.5" font-family="Helvetica,sans-Serif" font-size="10.00" fill="#000000">Configuration::getParticipantConfiguration</text>
</a>
</g>
</g>
<!-- Node103&#45;&gt;Node104 -->
<g id="edge1" class="edge">
<title>Node103&#45;&gt;Node104</title>
<path fill="none" stroke="#191970" d="M195.3382,-15.5C203.7241,-15.5 212.2687,-15.5 220.8047,-15.5"/>
<polygon fill="#191970" stroke="#191970" points="220.8114,-19.0001 230.8113,-15.5 220.8113,-12.0001 220.8114,-19.0001"/>
</g>
</g>
</svg>
