<?xml version="1.0" encoding="UTF-8" standalone="no"?>
<!DOCTYPE svg PUBLIC "-//W3C//DTD SVG 1.1//EN"
 "http://www.w3.org/Graphics/SVG/1.1/DTD/svg11.dtd">
<!-- Generated by graphviz version 2.40.1 (20161225.0304)
 -->
<!-- Title: precice::com::MPIDirectCommunication::getRemoteCommunicatorSize Pages: 1 -->
<svg width="1165pt" height="382pt"
 viewBox="0.00 0.00 1165.00 382.00" xmlns="http://www.w3.org/2000/svg" xmlns:xlink="http://www.w3.org/1999/xlink">
<g id="graph0" class="graph" transform="scale(1 1) rotate(0) translate(4 378)">
<title>precice::com::MPIDirectCommunication::getRemoteCommunicatorSize</title>
<polygon fill="#ffffff" stroke="transparent" points="-4,4 -4,-378 1161,-378 1161,4 -4,4"/>
<!-- Node120 -->
<g id="node1" class="node">
<title>Node120</title>
<polygon fill="#bfbfbf" stroke="#000000" points="0,-117.5 0,-147.5 191,-147.5 191,-117.5 0,-117.5"/>
<text text-anchor="start" x="8" y="-135.5" font-family="Helvetica,sans-Serif" font-size="10.00" fill="#000000">precice::com::MPIDirectCommunication</text>
<text text-anchor="middle" x="95.5" y="-124.5" font-family="Helvetica,sans-Serif" font-size="10.00" fill="#000000">::getRemoteCommunicatorSize</text>
</g>
<!-- Node121 -->
<g id="node2" class="node">
<title>Node121</title>
<g id="a_node2"><a xlink:href="classprecice_1_1com_1_1Communication.html#a444946d1a6c67c352fe96b56cdbf1fd2" target="_top" xlink:title="Returns true, if a connection to a remote participant has been setup. ">
<polygon fill="#ffffff" stroke="#000000" points="249,-142.5 249,-172.5 396,-172.5 396,-142.5 249,-142.5"/>
<text text-anchor="start" x="257" y="-160.5" font-family="Helvetica,sans-Serif" font-size="10.00" fill="#000000">precice::com::Communication</text>
<text text-anchor="middle" x="322.5" y="-149.5" font-family="Helvetica,sans-Serif" font-size="10.00" fill="#000000">::isConnected</text>
</a>
</g>
</g>
<!-- Node120&#45;&gt;Node121 -->
<g id="edge1" class="edge">
<title>Node120&#45;&gt;Node121</title>
<path fill="none" stroke="#191970" d="M191.1105,-143.0298C206.9143,-144.7703 223.1927,-146.5631 238.6784,-148.2686"/>
<polygon fill="#191970" stroke="#191970" points="238.4042,-151.7594 248.7273,-149.3753 239.1706,-144.8015 238.4042,-151.7594"/>
</g>
<!-- Node139 -->
<g id="node20" class="node">
<title>Node139</title>
<g id="a_node20"><a xlink:href="classprecice_1_1com_1_1MPIDirectCommunication.html#a3128ea733448fba0a987da3bec78d828" target="_top" xlink:title="Returns the communicator. ">
<polygon fill="#ffffff" stroke="#000000" points="227,-93.5 227,-123.5 418,-123.5 418,-93.5 227,-93.5"/>
<text text-anchor="start" x="235" y="-111.5" font-family="Helvetica,sans-Serif" font-size="10.00" fill="#000000">precice::com::MPIDirectCommunication</text>
<text text-anchor="middle" x="322.5" y="-100.5" font-family="Helvetica,sans-Serif" font-size="10.00" fill="#000000">::communicator</text>
</a>
</g>
</g>
<!-- Node120&#45;&gt;Node139 -->
<g id="edge26" class="edge">
<title>Node120&#45;&gt;Node139</title>
<path fill="none" stroke="#191970" d="M191.1105,-122.3914C199.6452,-121.4891 208.3184,-120.5721 216.9303,-119.6616"/>
<polygon fill="#191970" stroke="#191970" points="217.4234,-123.129 226.9999,-118.5969 216.6873,-116.1678 217.4234,-123.129"/>
</g>
<!-- Node122 -->
<g id="node3" class="node">
<title>Node122</title>
<g id="a_node3"><a xlink:href="classprecice_1_1com_1_1Communication.html#a5319067292ba3f7979d92a72f9298f80" target="_top" xlink:title="Returns the number of processes in the remote communicator. ">
<polygon fill="#ffffff" stroke="#000000" points="1003,-343.5 1003,-373.5 1157,-373.5 1157,-343.5 1003,-343.5"/>
<text text-anchor="start" x="1011" y="-361.5" font-family="Helvetica,sans-Serif" font-size="10.00" fill="#000000">precice::com::Communication</text>
<text text-anchor="middle" x="1080" y="-350.5" font-family="Helvetica,sans-Serif" font-size="10.00" fill="#000000">::getRemoteCommunicatorSize</text>
</a>
</g>
</g>
<!-- Node121&#45;&gt;Node122 -->
<g id="edge2" class="edge">
<title>Node121&#45;&gt;Node122</title>
<path fill="none" stroke="#191970" d="M339.0288,-172.5839C362.7349,-193.413 408.5597,-230.7544 454,-251.5 633.2588,-333.3398 867.3377,-353.0599 992.3194,-357.5083"/>
<polygon fill="#191970" stroke="#191970" points="992.4874,-361.0157 1002.5977,-357.8483 992.7189,-354.0195 992.4874,-361.0157"/>
</g>
<!-- Node123 -->
<g id="node4" class="node">
<title>Node123</title>
<g id="a_node4"><a xlink:href="classprecice_1_1com_1_1Communication.html#a652a8cbe5447146b4b3b6200db5ddbeb" target="_top" xlink:title="Accepts connection from another communicator, which has to call requestConnection(). ">
<polygon fill="#ffffff" stroke="#000000" points="637,-235.5 637,-265.5 784,-265.5 784,-235.5 637,-235.5"/>
<text text-anchor="start" x="645" y="-253.5" font-family="Helvetica,sans-Serif" font-size="10.00" fill="#000000">precice::com::Communication</text>
<text text-anchor="middle" x="710.5" y="-242.5" font-family="Helvetica,sans-Serif" font-size="10.00" fill="#000000">::acceptConnection</text>
</a>
</g>
</g>
<!-- Node121&#45;&gt;Node123 -->
<g id="edge3" class="edge">
<title>Node121&#45;&gt;Node123</title>
<path fill="none" stroke="#191970" d="M344.6167,-172.5768C369.8574,-188.9327 412.968,-214.3333 454,-226.5 510.063,-243.1237 575.7642,-249.0274 626.636,-250.8248"/>
<polygon fill="#191970" stroke="#191970" points="626.8287,-254.3323 636.9311,-251.14 627.0429,-247.3355 626.8287,-254.3323"/>
</g>
<!-- Node124 -->
<g id="node5" class="node">
<title>Node124</title>
<g id="a_node5"><a xlink:href="classprecice_1_1com_1_1Communication.html#a64c6c2ea54877c8ae14373d84ba7a808" target="_top" xlink:title="Accepts connection from another communicator, which has to call requestConnectionAsClient(). ">
<polygon fill="#ffffff" stroke="#000000" points="454,-98.5 454,-128.5 601,-128.5 601,-98.5 454,-98.5"/>
<text text-anchor="start" x="462" y="-116.5" font-family="Helvetica,sans-Serif" font-size="10.00" fill="#000000">precice::com::Communication</text>
<text text-anchor="middle" x="527.5" y="-105.5" font-family="Helvetica,sans-Serif" font-size="10.00" fill="#000000">::acceptConnectionAsServer</text>
</a>
</g>
</g>
<!-- Node121&#45;&gt;Node124 -->
<g id="edge4" class="edge">
<title>Node121&#45;&gt;Node124</title>
<path fill="none" stroke="#191970" d="M392.476,-142.4808C410.1899,-138.6788 429.3495,-134.5664 447.5164,-130.6672"/>
<polygon fill="#191970" stroke="#191970" points="448.4487,-134.0469 457.4915,-128.5262 446.9797,-127.2028 448.4487,-134.0469"/>
</g>
<!-- Node125 -->
<g id="node6" class="node">
<title>Node125</title>
<g id="a_node6"><a xlink:href="classprecice_1_1com_1_1Communication.html#ab019bdb3f7ad242a84bdc70cf0236a87" target="_top" xlink:title="Connects to another communicator, which has to call acceptConnection(). ">
<polygon fill="#ffffff" stroke="#000000" points="637,-88.5 637,-118.5 784,-118.5 784,-88.5 637,-88.5"/>
<text text-anchor="start" x="645" y="-106.5" font-family="Helvetica,sans-Serif" font-size="10.00" fill="#000000">precice::com::Communication</text>
<text text-anchor="middle" x="710.5" y="-95.5" font-family="Helvetica,sans-Serif" font-size="10.00" fill="#000000">::requestConnection</text>
</a>
</g>
</g>
<!-- Node121&#45;&gt;Node125 -->
<g id="edge5" class="edge">
<title>Node121&#45;&gt;Node125</title>
<path fill="none" stroke="#191970" d="M396.0939,-156.8011C452.5836,-155.1623 532.2855,-150.4572 601,-137.5 606.7379,-136.418 630.2189,-129.1854 653.973,-121.6676"/>
<polygon fill="#191970" stroke="#191970" points="655.2896,-124.9218 663.7613,-118.5593 653.1709,-118.2501 655.2896,-124.9218"/>
</g>
<!-- Node126 -->
<g id="node7" class="node">
<title>Node126</title>
<g id="a_node7"><a xlink:href="classprecice_1_1com_1_1Communication.html#a207ba1e3f1ae07417b921a1ff5cc476a" target="_top" xlink:title="Connects to another communicator, which has to call acceptConnectionAsServer(). ">
<polygon fill="#ffffff" stroke="#000000" points="454,-49.5 454,-79.5 601,-79.5 601,-49.5 454,-49.5"/>
<text text-anchor="start" x="462" y="-67.5" font-family="Helvetica,sans-Serif" font-size="10.00" fill="#000000">precice::com::Communication</text>
<text text-anchor="middle" x="527.5" y="-56.5" font-family="Helvetica,sans-Serif" font-size="10.00" fill="#000000">::requestConnectionAsClient</text>
</a>
</g>
</g>
<!-- Node121&#45;&gt;Node126 -->
<g id="edge6" class="edge">
<title>Node121&#45;&gt;Node126</title>
<path fill="none" stroke="#191970" d="M396.4634,-143.2272C404.031,-140.2929 411.365,-136.758 418,-132.5 439.2648,-118.8534 433.1511,-102.7739 454,-88.5 456.2585,-86.9537 458.6236,-85.5015 461.0638,-84.1382"/>
<polygon fill="#191970" stroke="#191970" points="462.7954,-87.1855 470.1729,-79.5814 459.6636,-80.9252 462.7954,-87.1855"/>
</g>
<!-- Node127 -->
<g id="node8" class="node">
<title>Node127</title>
<g id="a_node8"><a xlink:href="classprecice_1_1com_1_1Communication.html#a60034c02c08a248a7b2cd539cb69568b" target="_top" xlink:title="precice::com::Communication\l::connectMasterSlaves">
<polygon fill="#ffffff" stroke="#000000" points="454,-186.5 454,-216.5 601,-216.5 601,-186.5 454,-186.5"/>
<text text-anchor="start" x="462" y="-204.5" font-family="Helvetica,sans-Serif" font-size="10.00" fill="#000000">precice::com::Communication</text>
<text text-anchor="middle" x="527.5" y="-193.5" font-family="Helvetica,sans-Serif" font-size="10.00" fill="#000000">::connectMasterSlaves</text>
</a>
</g>
</g>
<!-- Node121&#45;&gt;Node127 -->
<g id="edge7" class="edge">
<title>Node121&#45;&gt;Node127</title>
<path fill="none" stroke="#191970" d="M392.476,-172.5192C410.1899,-176.3212 429.3495,-180.4336 447.5164,-184.3328"/>
<polygon fill="#191970" stroke="#191970" points="446.9797,-187.7972 457.4915,-186.4738 448.4487,-180.9531 446.9797,-187.7972"/>
</g>
<!-- Node138 -->
<g id="node19" class="node">
<title>Node138</title>
<g id="a_node19"><a xlink:href="classprecice_1_1com_1_1Communication.html#adce43462d51714bd1ad6ba5cb4e68fee" target="_top" xlink:title="Disconnects from communication space, i.e. participant. ">
<polygon fill="#ffffff" stroke="#000000" points="454,-.5 454,-30.5 601,-30.5 601,-.5 454,-.5"/>
<text text-anchor="start" x="462" y="-18.5" font-family="Helvetica,sans-Serif" font-size="10.00" fill="#000000">precice::com::Communication</text>
<text text-anchor="middle" x="527.5" y="-7.5" font-family="Helvetica,sans-Serif" font-size="10.00" fill="#000000">::closeConnection</text>
</a>
</g>
</g>
<!-- Node121&#45;&gt;Node138 -->
<g id="edge25" class="edge">
<title>Node121&#45;&gt;Node138</title>
<path fill="none" stroke="#191970" d="M396.0756,-146.0739C404.0686,-142.6377 411.6073,-138.2066 418,-132.5 451.0646,-102.9843 421.8292,-69.9874 454,-39.5 455.1266,-38.4324 456.3013,-37.4122 457.5176,-36.4375"/>
<polygon fill="#191970" stroke="#191970" points="459.76,-39.1459 466.077,-30.6403 455.8346,-33.3501 459.76,-39.1459"/>
</g>
<!-- Node127&#45;&gt;Node123 -->
<g id="edge9" class="edge">
<title>Node127&#45;&gt;Node123</title>
<path fill="none" stroke="#191970" d="M583.8993,-216.6014C603.0353,-221.7253 624.5855,-227.4956 644.4079,-232.8032"/>
<polygon fill="#191970" stroke="#191970" points="643.722,-236.2428 654.287,-235.4484 645.5325,-229.481 643.722,-236.2428"/>
</g>
<!-- Node127&#45;&gt;Node125 -->
<g id="edge24" class="edge">
<title>Node127&#45;&gt;Node125</title>
<path fill="none" stroke="#191970" d="M574.4589,-186.4229C583.7128,-182.3495 593.0186,-177.3966 601,-171.5 621.3223,-156.4859 616.1511,-141.7739 637,-127.5 639.2585,-125.9537 641.6236,-124.5015 644.0638,-123.1382"/>
<polygon fill="#191970" stroke="#191970" points="645.7954,-126.1855 653.1729,-118.5814 642.6636,-119.9252 645.7954,-126.1855"/>
</g>
<!-- Node128 -->
<g id="node9" class="node">
<title>Node128</title>
<g id="a_node9"><a xlink:href="classprecice_1_1com_1_1Communication.html#a39d443a319b10525a50bac6b03ddd600" target="_top" xlink:title="Prepare environment used to establish the communication. ">
<polygon fill="#ffffff" stroke="#000000" points="637,-137.5 637,-167.5 784,-167.5 784,-137.5 637,-137.5"/>
<text text-anchor="start" x="645" y="-155.5" font-family="Helvetica,sans-Serif" font-size="10.00" fill="#000000">precice::com::Communication</text>
<text text-anchor="middle" x="710.5" y="-144.5" font-family="Helvetica,sans-Serif" font-size="10.00" fill="#000000">::prepareEstablishment</text>
</a>
</g>
</g>
<!-- Node127&#45;&gt;Node128 -->
<g id="edge8" class="edge">
<title>Node127&#45;&gt;Node128</title>
<path fill="none" stroke="#191970" d="M583.8993,-186.3986C603.0353,-181.2747 624.5855,-175.5044 644.4079,-170.1968"/>
<polygon fill="#191970" stroke="#191970" points="645.5325,-173.519 654.287,-167.5516 643.722,-166.7572 645.5325,-173.519"/>
</g>
<!-- Node129 -->
<g id="node10" class="node">
<title>Node129</title>
<g id="a_node10"><a xlink:href="classprecice_1_1com_1_1Communication.html#a08e2067629d6f0198918a21467d29762" target="_top" xlink:title="Clean&#45;up environment used to establish the communication. ">
<polygon fill="#ffffff" stroke="#000000" points="637,-186.5 637,-216.5 784,-216.5 784,-186.5 637,-186.5"/>
<text text-anchor="start" x="645" y="-204.5" font-family="Helvetica,sans-Serif" font-size="10.00" fill="#000000">precice::com::Communication</text>
<text text-anchor="middle" x="710.5" y="-193.5" font-family="Helvetica,sans-Serif" font-size="10.00" fill="#000000">::cleanupEstablishment</text>
</a>
</g>
</g>
<!-- Node127&#45;&gt;Node129 -->
<g id="edge10" class="edge">
<title>Node127&#45;&gt;Node129</title>
<path fill="none" stroke="#191970" d="M601.1421,-201.5C609.4739,-201.5 618.0113,-201.5 626.4632,-201.5"/>
<polygon fill="#191970" stroke="#191970" points="626.7108,-205.0001 636.7107,-201.5 626.7107,-198.0001 626.7108,-205.0001"/>
</g>
<!-- Node130 -->
<g id="node11" class="node">
<title>Node130</title>
<g id="a_node11"><a xlink:href="classprecice_1_1com_1_1Communication.html#a2462e0a8e7053d7ded3ca67d5b3bfaf6" target="_top" xlink:title="Performs a reduce summation on the rank given by rankMaster. ">
<polygon fill="#ffffff" stroke="#000000" points="820,-211.5 820,-241.5 967,-241.5 967,-211.5 820,-211.5"/>
<text text-anchor="start" x="828" y="-229.5" font-family="Helvetica,sans-Serif" font-size="10.00" fill="#000000">precice::com::Communication</text>
<text text-anchor="middle" x="893.5" y="-218.5" font-family="Helvetica,sans-Serif" font-size="10.00" fill="#000000">::reduceSum</text>
</a>
</g>
</g>
<!-- Node129&#45;&gt;Node130 -->
<g id="edge11" class="edge">
<title>Node129&#45;&gt;Node130</title>
<path fill="none" stroke="#191970" d="M784.1421,-211.5604C792.5655,-212.7111 801.199,-213.8906 809.7418,-215.0576"/>
<polygon fill="#191970" stroke="#191970" points="809.329,-218.5337 819.7107,-216.4195 810.2765,-211.5981 809.329,-218.5337"/>
</g>
<!-- Node131 -->
<g id="node12" class="node">
<title>Node131</title>
<g id="a_node12"><a xlink:href="classprecice_1_1com_1_1Communication.html#a1ab2da696572afe406801d329442da10" target="_top" xlink:title="precice::com::Communication\l::aSend">
<polygon fill="#ffffff" stroke="#000000" points="1006.5,-228.5 1006.5,-258.5 1153.5,-258.5 1153.5,-228.5 1006.5,-228.5"/>
<text text-anchor="start" x="1014.5" y="-246.5" font-family="Helvetica,sans-Serif" font-size="10.00" fill="#000000">precice::com::Communication</text>
<text text-anchor="middle" x="1080" y="-235.5" font-family="Helvetica,sans-Serif" font-size="10.00" fill="#000000">::aSend</text>
</a>
</g>
</g>
<!-- Node129&#45;&gt;Node131 -->
<g id="edge21" class="edge">
<title>Node129&#45;&gt;Node131</title>
<path fill="none" stroke="#191970" d="M761.0843,-216.6159C768.9076,-219.547 776.7805,-222.8561 784,-226.5 801.3901,-235.2773 801.4106,-245.6784 820,-251.5 876.867,-269.3089 944.1876,-266.6335 996.0769,-259.8592"/>
<polygon fill="#191970" stroke="#191970" points="996.8147,-263.2906 1006.2414,-258.4545 995.8564,-256.3565 996.8147,-263.2906"/>
</g>
<!-- Node132 -->
<g id="node13" class="node">
<title>Node132</title>
<g id="a_node13"><a xlink:href="classprecice_1_1com_1_1Communication.html#ab51a4a3d5b89bff04e9aa64a2d9dfb96" target="_top" xlink:title="precice::com::Communication\l::allreduceSum">
<polygon fill="#ffffff" stroke="#000000" points="820,-162.5 820,-192.5 967,-192.5 967,-162.5 820,-162.5"/>
<text text-anchor="start" x="828" y="-180.5" font-family="Helvetica,sans-Serif" font-size="10.00" fill="#000000">precice::com::Communication</text>
<text text-anchor="middle" x="893.5" y="-169.5" font-family="Helvetica,sans-Serif" font-size="10.00" fill="#000000">::allreduceSum</text>
</a>
</g>
</g>
<!-- Node129&#45;&gt;Node132 -->
<g id="edge13" class="edge">
<title>Node129&#45;&gt;Node132</title>
<path fill="none" stroke="#191970" d="M784.1421,-191.842C792.5655,-190.7373 801.199,-189.6051 809.7418,-188.4847"/>
<polygon fill="#191970" stroke="#191970" points="810.2508,-191.948 819.7107,-187.1773 809.3405,-185.0074 810.2508,-191.948"/>
</g>
<!-- Node133 -->
<g id="node14" class="node">
<title>Node133</title>
<g id="a_node14"><a xlink:href="classprecice_1_1com_1_1Communication.html#a21ea14f324d167cc309574d3dc5e17ee" target="_top" xlink:title="Receives a std::string from process with given rank. ">
<polygon fill="#ffffff" stroke="#000000" points="1006.5,-140.5 1006.5,-170.5 1153.5,-170.5 1153.5,-140.5 1006.5,-140.5"/>
<text text-anchor="start" x="1014.5" y="-158.5" font-family="Helvetica,sans-Serif" font-size="10.00" fill="#000000">precice::com::Communication</text>
<text text-anchor="middle" x="1080" y="-147.5" font-family="Helvetica,sans-Serif" font-size="10.00" fill="#000000">::receive</text>
</a>
</g>
</g>
<!-- Node129&#45;&gt;Node133 -->
<g id="edge22" class="edge">
<title>Node129&#45;&gt;Node133</title>
<path fill="none" stroke="#191970" d="M760.6325,-186.4088C768.5919,-183.4568 776.6253,-180.1348 784,-176.5 801.2484,-167.9987 801.5955,-158.0724 820,-152.5 877.0103,-135.2387 944.3265,-136.5688 996.1779,-141.9108"/>
<polygon fill="#191970" stroke="#191970" points="996.0115,-145.4135 1006.3343,-143.0283 996.7772,-138.4555 996.0115,-145.4135"/>
</g>
<!-- Node134 -->
<g id="node15" class="node">
<title>Node134</title>
<g id="a_node15"><a xlink:href="classprecice_1_1com_1_1Communication.html#acfa95686c5b494b3adfe11d5b5d23b87" target="_top" xlink:title="precice::com::Communication\l::broadcast">
<polygon fill="#ffffff" stroke="#000000" points="820,-299.5 820,-329.5 967,-329.5 967,-299.5 820,-299.5"/>
<text text-anchor="start" x="828" y="-317.5" font-family="Helvetica,sans-Serif" font-size="10.00" fill="#000000">precice::com::Communication</text>
<text text-anchor="middle" x="893.5" y="-306.5" font-family="Helvetica,sans-Serif" font-size="10.00" fill="#000000">::broadcast</text>
</a>
</g>
</g>
<!-- Node129&#45;&gt;Node134 -->
<g id="edge16" class="edge">
<title>Node129&#45;&gt;Node134</title>
<path fill="none" stroke="#191970" d="M767.9352,-216.5806C773.6639,-219.3636 779.1464,-222.6422 784,-226.5 807.751,-245.3781 796.8226,-264.9219 820,-284.5 824.5192,-288.3174 829.5891,-291.698 834.8981,-294.681"/>
<polygon fill="#191970" stroke="#191970" points="833.5058,-297.9 844.0033,-299.3328 836.6905,-291.6664 833.5058,-297.9"/>
</g>
<!-- Node136 -->
<g id="node17" class="node">
<title>Node136</title>
<g id="a_node17"><a xlink:href="classprecice_1_1com_1_1Communication.html#a8fb5e92432fc9751ae165953156980b5" target="_top" xlink:title="Sends a std::string to process with given rank. ">
<polygon fill="#ffffff" stroke="#000000" points="820,-74.5 820,-104.5 967,-104.5 967,-74.5 820,-74.5"/>
<text text-anchor="start" x="828" y="-92.5" font-family="Helvetica,sans-Serif" font-size="10.00" fill="#000000">precice::com::Communication</text>
<text text-anchor="middle" x="893.5" y="-81.5" font-family="Helvetica,sans-Serif" font-size="10.00" fill="#000000">::send</text>
</a>
</g>
</g>
<!-- Node129&#45;&gt;Node136 -->
<g id="edge20" class="edge">
<title>Node129&#45;&gt;Node136</title>
<path fill="none" stroke="#191970" d="M767.9048,-186.381C773.6392,-183.6052 779.1313,-180.3388 784,-176.5 807.5289,-157.9482 797.0349,-138.7453 820,-119.5 824.6017,-115.6436 829.7657,-112.231 835.1672,-109.2228"/>
<polygon fill="#191970" stroke="#191970" points="837.0844,-112.1752 844.4246,-104.535 833.922,-105.9302 837.0844,-112.1752"/>
</g>
<!-- Node137 -->
<g id="node18" class="node">
<title>Node137</title>
<g id="a_node18"><a xlink:href="classprecice_1_1com_1_1Communication.html#a5460dcca7939aa7f22aba4a7f68b656f" target="_top" xlink:title="Asynchronously receives an array of double values. ">
<polygon fill="#ffffff" stroke="#000000" points="820,-25.5 820,-55.5 967,-55.5 967,-25.5 820,-25.5"/>
<text text-anchor="start" x="828" y="-43.5" font-family="Helvetica,sans-Serif" font-size="10.00" fill="#000000">precice::com::Communication</text>
<text text-anchor="middle" x="893.5" y="-32.5" font-family="Helvetica,sans-Serif" font-size="10.00" fill="#000000">::aReceive</text>
</a>
</g>
</g>
<!-- Node129&#45;&gt;Node137 -->
<g id="edge23" class="edge">
<title>Node129&#45;&gt;Node137</title>
<path fill="none" stroke="#191970" d="M771.1044,-186.3507C775.8269,-183.5975 780.22,-180.3443 784,-176.5 820.6588,-139.2178 783.1137,-101.5571 820,-64.5 821.0654,-63.4297 822.179,-62.4071 823.3347,-61.4302"/>
<polygon fill="#191970" stroke="#191970" points="825.3828,-64.2685 831.5049,-55.6215 821.3267,-58.5634 825.3828,-64.2685"/>
</g>
<!-- Node130&#45;&gt;Node131 -->
<g id="edge12" class="edge">
<title>Node130&#45;&gt;Node131</title>
<path fill="none" stroke="#191970" d="M967.2097,-233.2189C976.7312,-234.0868 986.5371,-234.9806 996.2061,-235.862"/>
<polygon fill="#191970" stroke="#191970" points="995.9385,-239.352 1006.2149,-236.7743 996.574,-232.3809 995.9385,-239.352"/>
</g>
<!-- Node132&#45;&gt;Node131 -->
<g id="edge14" class="edge">
<title>Node132&#45;&gt;Node131</title>
<path fill="none" stroke="#191970" d="M938.2485,-192.5597C947.7522,-195.803 957.7174,-199.2377 967,-202.5 987.5488,-209.7217 1010.1241,-217.8696 1029.6582,-224.9881"/>
<polygon fill="#191970" stroke="#191970" points="1028.6803,-228.357 1039.2742,-228.4985 1031.0808,-221.7814 1028.6803,-228.357"/>
</g>
<!-- Node132&#45;&gt;Node133 -->
<g id="edge15" class="edge">
<title>Node132&#45;&gt;Node133</title>
<path fill="none" stroke="#191970" d="M967.2097,-168.805C976.7312,-167.6818 986.5371,-166.5251 996.2061,-165.3845"/>
<polygon fill="#191970" stroke="#191970" points="996.6939,-168.8514 1006.2149,-164.2039 995.8737,-161.8996 996.6939,-168.8514"/>
</g>
<!-- Node134&#45;&gt;Node122 -->
<g id="edge17" class="edge">
<title>Node134&#45;&gt;Node122</title>
<path fill="none" stroke="#191970" d="M957.1611,-329.5192C972.978,-333.2508 990.0619,-337.2814 1006.3154,-341.116"/>
<polygon fill="#191970" stroke="#191970" points="1005.7729,-344.584 1016.3094,-343.4738 1007.3803,-337.771 1005.7729,-344.584"/>
</g>
<!-- Node134&#45;&gt;Node131 -->
<g id="edge18" class="edge">
<title>Node134&#45;&gt;Node131</title>
<path fill="none" stroke="#191970" d="M933.0519,-299.4427C961.6107,-288.5704 1000.3632,-273.8175 1030.9019,-262.1915"/>
<polygon fill="#191970" stroke="#191970" points="1032.4048,-265.3645 1040.5052,-258.5356 1029.9142,-258.8225 1032.4048,-265.3645"/>
</g>
<!-- Node135 -->
<g id="node16" class="node">
<title>Node135</title>
<g id="a_node16"><a xlink:href="classprecice_1_1com_1_1Request.html#ad07792939dd8a5e4e23791e21aeacff0" target="_top" xlink:title="precice::com::Request\l::wait">
<polygon fill="#ffffff" stroke="#000000" points="1022,-294.5 1022,-324.5 1138,-324.5 1138,-294.5 1022,-294.5"/>
<text text-anchor="start" x="1030" y="-312.5" font-family="Helvetica,sans-Serif" font-size="10.00" fill="#000000">precice::com::Request</text>
<text text-anchor="middle" x="1080" y="-301.5" font-family="Helvetica,sans-Serif" font-size="10.00" fill="#000000">::wait</text>
</a>
</g>
</g>
<!-- Node134&#45;&gt;Node135 -->
<g id="edge19" class="edge">
<title>Node134&#45;&gt;Node135</title>
<path fill="none" stroke="#191970" d="M967.2097,-312.5239C981.7933,-312.1329 997.0445,-311.724 1011.4485,-311.3378"/>
<polygon fill="#191970" stroke="#191970" points="1011.8628,-314.8281 1021.7654,-311.0613 1011.6751,-307.8306 1011.8628,-314.8281"/>
</g>
</g>
</svg>
