<?xml version="1.0" encoding="UTF-8" standalone="no"?>
<!DOCTYPE svg PUBLIC "-//W3C//DTD SVG 1.1//EN"
 "http://www.w3.org/Graphics/SVG/1.1/DTD/svg11.dtd">
<!-- Generated by graphviz version 2.40.1 (20161225.0304)
 -->
<!-- Title: precice::com::MPIDirectCommunication::closeConnection Pages: 1 -->
<svg width="1213pt" height="382pt"
 viewBox="0.00 0.00 1213.00 382.00" xmlns="http://www.w3.org/2000/svg" xmlns:xlink="http://www.w3.org/1999/xlink">
<g id="graph0" class="graph" transform="scale(1 1) rotate(0) translate(4 378)">
<title>precice::com::MPIDirectCommunication::closeConnection</title>
<polygon fill="#ffffff" stroke="transparent" points="-4,4 -4,-378 1209,-378 1209,4 -4,4"/>
<!-- Node100 -->
<g id="node1" class="node">
<title>Node100</title>
<polygon fill="#bfbfbf" stroke="#000000" points="0,-142.5 0,-172.5 209,-172.5 209,-142.5 0,-142.5"/>
<text text-anchor="start" x="8" y="-160.5" font-family="Helvetica,sans-Serif" font-size="10.00" fill="#000000">precice::com::MPIDirectCommunication</text>
<text text-anchor="middle" x="104.5" y="-149.5" font-family="Helvetica,sans-Serif" font-size="10.00" fill="#000000">::closeConnection</text>
</g>
<!-- Node101 -->
<g id="node2" class="node">
<title>Node101</title>
<g id="a_node2"><a xlink:href="classprecice_1_1com_1_1Communication.html#a444946d1a6c67c352fe96b56cdbf1fd2" target="_top" xlink:title="Returns true, if a connection to a remote participant has been setup. ">
<polygon fill="#ffffff" stroke="#000000" points="245,-142.5 245,-172.5 407,-172.5 407,-142.5 245,-142.5"/>
<text text-anchor="start" x="253" y="-160.5" font-family="Helvetica,sans-Serif" font-size="10.00" fill="#000000">precice::com::Communication</text>
<text text-anchor="middle" x="326" y="-149.5" font-family="Helvetica,sans-Serif" font-size="10.00" fill="#000000">::isConnected</text>
</a>
</g>
</g>
<!-- Node100&#45;&gt;Node101 -->
<g id="edge1" class="edge">
<title>Node100&#45;&gt;Node101</title>
<path fill="none" stroke="#191970" d="M209.088,-157.5C217.6089,-157.5 226.1786,-157.5 234.5945,-157.5"/>
<polygon fill="#191970" stroke="#191970" points="234.7702,-161.0001 244.7701,-157.5 234.7701,-154.0001 234.7702,-161.0001"/>
</g>
<!-- Node102 -->
<g id="node3" class="node">
<title>Node102</title>
<g id="a_node3"><a xlink:href="classprecice_1_1com_1_1Communication.html#a5319067292ba3f7979d92a72f9298f80" target="_top" xlink:title="Returns the number of processes in the remote communicator. ">
<polygon fill="#ffffff" stroke="#000000" points="1037,-343.5 1037,-373.5 1205,-373.5 1205,-343.5 1037,-343.5"/>
<text text-anchor="start" x="1045" y="-361.5" font-family="Helvetica,sans-Serif" font-size="10.00" fill="#000000">precice::com::Communication</text>
<text text-anchor="middle" x="1121" y="-350.5" font-family="Helvetica,sans-Serif" font-size="10.00" fill="#000000">::getRemoteCommunicatorSize</text>
</a>
</g>
</g>
<!-- Node101&#45;&gt;Node102 -->
<g id="edge2" class="edge">
<title>Node101&#45;&gt;Node102</title>
<path fill="none" stroke="#191970" d="M339.9363,-172.5945C360.4175,-193.821 400.8091,-232.1649 443,-252.5 635.3292,-345.1988 890.6314,-360.0584 1026.4934,-360.6319"/>
<polygon fill="#191970" stroke="#191970" points="1026.8597,-364.1324 1036.8654,-360.6487 1026.8712,-357.1324 1026.8597,-364.1324"/>
</g>
<!-- Node103 -->
<g id="node4" class="node">
<title>Node103</title>
<g id="a_node4"><a xlink:href="classprecice_1_1com_1_1Communication.html#a652a8cbe5447146b4b3b6200db5ddbeb" target="_top" xlink:title="Accepts connection from another communicator, which has to call requestConnection(). ">
<polygon fill="#ffffff" stroke="#000000" points="641,-235.5 641,-265.5 803,-265.5 803,-235.5 641,-235.5"/>
<text text-anchor="start" x="649" y="-253.5" font-family="Helvetica,sans-Serif" font-size="10.00" fill="#000000">precice::com::Communication</text>
<text text-anchor="middle" x="722" y="-242.5" font-family="Helvetica,sans-Serif" font-size="10.00" fill="#000000">::acceptConnection</text>
</a>
</g>
</g>
<!-- Node101&#45;&gt;Node103 -->
<g id="edge3" class="edge">
<title>Node101&#45;&gt;Node103</title>
<path fill="none" stroke="#191970" d="M345.3887,-172.6695C367.5869,-189.1086 405.7122,-214.5834 443,-226.5 503.5978,-245.8662 575.1427,-251.7049 630.6105,-252.7853"/>
<polygon fill="#191970" stroke="#191970" points="630.7241,-256.2873 640.7742,-252.9339 630.8264,-249.288 630.7241,-256.2873"/>
</g>
<!-- Node104 -->
<g id="node5" class="node">
<title>Node104</title>
<g id="a_node5"><a xlink:href="classprecice_1_1com_1_1Communication.html#a64c6c2ea54877c8ae14373d84ba7a808" target="_top" xlink:title="Accepts connection from another communicator, which has to call requestConnectionAsClient(). ">
<polygon fill="#ffffff" stroke="#000000" points="443,-98.5 443,-128.5 605,-128.5 605,-98.5 443,-98.5"/>
<text text-anchor="start" x="451" y="-116.5" font-family="Helvetica,sans-Serif" font-size="10.00" fill="#000000">precice::com::Communication</text>
<text text-anchor="middle" x="524" y="-105.5" font-family="Helvetica,sans-Serif" font-size="10.00" fill="#000000">::acceptConnectionAsServer</text>
</a>
</g>
</g>
<!-- Node101&#45;&gt;Node104 -->
<g id="edge4" class="edge">
<title>Node101&#45;&gt;Node104</title>
<path fill="none" stroke="#191970" d="M393.5866,-142.4808C410.5372,-138.714 428.8584,-134.6426 446.2599,-130.7756"/>
<polygon fill="#191970" stroke="#191970" points="447.3795,-134.1122 456.3821,-128.5262 445.8609,-127.2789 447.3795,-134.1122"/>
</g>
<!-- Node105 -->
<g id="node6" class="node">
<title>Node105</title>
<g id="a_node6"><a xlink:href="classprecice_1_1com_1_1Communication.html#ab019bdb3f7ad242a84bdc70cf0236a87" target="_top" xlink:title="Connects to another communicator, which has to call acceptConnection(). ">
<polygon fill="#ffffff" stroke="#000000" points="641,-88.5 641,-118.5 803,-118.5 803,-88.5 641,-88.5"/>
<text text-anchor="start" x="649" y="-106.5" font-family="Helvetica,sans-Serif" font-size="10.00" fill="#000000">precice::com::Communication</text>
<text text-anchor="middle" x="722" y="-95.5" font-family="Helvetica,sans-Serif" font-size="10.00" fill="#000000">::requestConnection</text>
</a>
</g>
</g>
<!-- Node101&#45;&gt;Node105 -->
<g id="edge5" class="edge">
<title>Node101&#45;&gt;Node105</title>
<path fill="none" stroke="#191970" d="M407.1395,-156.1984C463.1134,-154.2011 539.0339,-149.3121 605,-137.5 608.1409,-136.9376 634.3206,-129.3498 661.1199,-121.4853"/>
<polygon fill="#191970" stroke="#191970" points="662.3723,-124.7653 670.9798,-118.5878 660.3987,-118.0493 662.3723,-124.7653"/>
</g>
<!-- Node106 -->
<g id="node7" class="node">
<title>Node106</title>
<g id="a_node7"><a xlink:href="classprecice_1_1com_1_1Communication.html#a207ba1e3f1ae07417b921a1ff5cc476a" target="_top" xlink:title="Connects to another communicator, which has to call acceptConnectionAsServer(). ">
<polygon fill="#ffffff" stroke="#000000" points="443,-49.5 443,-79.5 605,-79.5 605,-49.5 443,-49.5"/>
<text text-anchor="start" x="451" y="-67.5" font-family="Helvetica,sans-Serif" font-size="10.00" fill="#000000">precice::com::Communication</text>
<text text-anchor="middle" x="524" y="-56.5" font-family="Helvetica,sans-Serif" font-size="10.00" fill="#000000">::requestConnectionAsClient</text>
</a>
</g>
</g>
<!-- Node101&#45;&gt;Node106 -->
<g id="edge6" class="edge">
<title>Node101&#45;&gt;Node106</title>
<path fill="none" stroke="#191970" d="M347.9958,-142.3049C370.8859,-127.0349 408.1869,-103.6495 443,-88.5 447.4717,-86.5541 452.1482,-84.7088 456.9009,-82.9708"/>
<polygon fill="#191970" stroke="#191970" points="458.4262,-86.146 466.7223,-79.5562 456.1274,-79.5342 458.4262,-86.146"/>
</g>
<!-- Node107 -->
<g id="node8" class="node">
<title>Node107</title>
<g id="a_node8"><a xlink:href="classprecice_1_1com_1_1Communication.html#a60034c02c08a248a7b2cd539cb69568b" target="_top" xlink:title="precice::com::Communication\l::connectMasterSlaves">
<polygon fill="#ffffff" stroke="#000000" points="443,-186.5 443,-216.5 605,-216.5 605,-186.5 443,-186.5"/>
<text text-anchor="start" x="451" y="-204.5" font-family="Helvetica,sans-Serif" font-size="10.00" fill="#000000">precice::com::Communication</text>
<text text-anchor="middle" x="524" y="-193.5" font-family="Helvetica,sans-Serif" font-size="10.00" fill="#000000">::connectMasterSlaves</text>
</a>
</g>
</g>
<!-- Node101&#45;&gt;Node107 -->
<g id="edge7" class="edge">
<title>Node101&#45;&gt;Node107</title>
<path fill="none" stroke="#191970" d="M393.5866,-172.5192C410.5372,-176.286 428.8584,-180.3574 446.2599,-184.2244"/>
<polygon fill="#191970" stroke="#191970" points="445.8609,-187.7211 456.3821,-186.4738 447.3795,-180.8878 445.8609,-187.7211"/>
</g>
<!-- Node118 -->
<g id="node19" class="node">
<title>Node118</title>
<g id="a_node19"><a xlink:href="classprecice_1_1com_1_1Communication.html#adce43462d51714bd1ad6ba5cb4e68fee" target="_top" xlink:title="Disconnects from communication space, i.e. participant. ">
<polygon fill="#ffffff" stroke="#000000" points="443,-.5 443,-30.5 605,-30.5 605,-.5 443,-.5"/>
<text text-anchor="start" x="451" y="-18.5" font-family="Helvetica,sans-Serif" font-size="10.00" fill="#000000">precice::com::Communication</text>
<text text-anchor="middle" x="524" y="-7.5" font-family="Helvetica,sans-Serif" font-size="10.00" fill="#000000">::closeConnection</text>
</a>
</g>
</g>
<!-- Node101&#45;&gt;Node118 -->
<g id="edge25" class="edge">
<title>Node101&#45;&gt;Node118</title>
<path fill="none" stroke="#191970" d="M336.8258,-142.4374C355.6101,-117.3862 396.6965,-67.1836 443,-39.5 445.8324,-37.8066 448.7926,-36.2254 451.8363,-34.7499"/>
<polygon fill="#191970" stroke="#191970" points="453.4351,-37.8702 461.1735,-30.6336 450.6113,-31.465 453.4351,-37.8702"/>
</g>
<!-- Node107&#45;&gt;Node103 -->
<g id="edge9" class="edge">
<title>Node107&#45;&gt;Node103</title>
<path fill="none" stroke="#191970" d="M584.7521,-216.5346C605.8482,-221.7554 629.6824,-227.6537 651.4983,-233.0526"/>
<polygon fill="#191970" stroke="#191970" points="650.8148,-236.489 661.3628,-235.4938 652.4964,-229.694 650.8148,-236.489"/>
</g>
<!-- Node107&#45;&gt;Node105 -->
<g id="edge24" class="edge">
<title>Node107&#45;&gt;Node105</title>
<path fill="none" stroke="#191970" d="M577.0371,-186.4858C586.8114,-182.4613 596.5779,-177.5112 605,-171.5 625.5659,-156.8213 619.9564,-141.4853 641,-127.5 643.4049,-125.9018 645.9189,-124.4074 648.5111,-123.0104"/>
<polygon fill="#191970" stroke="#191970" points="650.1006,-126.1296 657.5806,-118.6262 647.054,-119.8273 650.1006,-126.1296"/>
</g>
<!-- Node108 -->
<g id="node9" class="node">
<title>Node108</title>
<g id="a_node9"><a xlink:href="classprecice_1_1com_1_1Communication.html#a39d443a319b10525a50bac6b03ddd600" target="_top" xlink:title="Prepare environment used to establish the communication. ">
<polygon fill="#ffffff" stroke="#000000" points="641,-137.5 641,-167.5 803,-167.5 803,-137.5 641,-137.5"/>
<text text-anchor="start" x="649" y="-155.5" font-family="Helvetica,sans-Serif" font-size="10.00" fill="#000000">precice::com::Communication</text>
<text text-anchor="middle" x="722" y="-144.5" font-family="Helvetica,sans-Serif" font-size="10.00" fill="#000000">::prepareEstablishment</text>
</a>
</g>
</g>
<!-- Node107&#45;&gt;Node108 -->
<g id="edge8" class="edge">
<title>Node107&#45;&gt;Node108</title>
<path fill="none" stroke="#191970" d="M584.7521,-186.4654C605.8482,-181.2446 629.6824,-175.3463 651.4983,-169.9474"/>
<polygon fill="#191970" stroke="#191970" points="652.4964,-173.306 661.3628,-167.5062 650.8148,-166.511 652.4964,-173.306"/>
</g>
<!-- Node109 -->
<g id="node10" class="node">
<title>Node109</title>
<g id="a_node10"><a xlink:href="classprecice_1_1com_1_1Communication.html#a08e2067629d6f0198918a21467d29762" target="_top" xlink:title="Clean&#45;up environment used to establish the communication. ">
<polygon fill="#ffffff" stroke="#000000" points="641,-186.5 641,-216.5 803,-216.5 803,-186.5 641,-186.5"/>
<text text-anchor="start" x="649" y="-204.5" font-family="Helvetica,sans-Serif" font-size="10.00" fill="#000000">precice::com::Communication</text>
<text text-anchor="middle" x="722" y="-193.5" font-family="Helvetica,sans-Serif" font-size="10.00" fill="#000000">::cleanupEstablishment</text>
</a>
</g>
</g>
<!-- Node107&#45;&gt;Node109 -->
<g id="edge10" class="edge">
<title>Node107&#45;&gt;Node109</title>
<path fill="none" stroke="#191970" d="M605.1055,-201.5C613.4574,-201.5 621.9851,-201.5 630.4399,-201.5"/>
<polygon fill="#191970" stroke="#191970" points="630.7003,-205.0001 640.7002,-201.5 630.7002,-198.0001 630.7003,-205.0001"/>
</g>
<!-- Node110 -->
<g id="node11" class="node">
<title>Node110</title>
<g id="a_node11"><a xlink:href="classprecice_1_1com_1_1Communication.html#a2462e0a8e7053d7ded3ca67d5b3bfaf6" target="_top" xlink:title="Performs a reduce summation on the rank given by rankMaster. ">
<polygon fill="#ffffff" stroke="#000000" points="839,-211.5 839,-241.5 1001,-241.5 1001,-211.5 839,-211.5"/>
<text text-anchor="start" x="847" y="-229.5" font-family="Helvetica,sans-Serif" font-size="10.00" fill="#000000">precice::com::Communication</text>
<text text-anchor="middle" x="920" y="-218.5" font-family="Helvetica,sans-Serif" font-size="10.00" fill="#000000">::reduceSum</text>
</a>
</g>
</g>
<!-- Node109&#45;&gt;Node110 -->
<g id="edge11" class="edge">
<title>Node109&#45;&gt;Node110</title>
<path fill="none" stroke="#191970" d="M803.1055,-211.7406C811.5492,-212.8067 820.1725,-213.8955 828.7186,-214.9746"/>
<polygon fill="#191970" stroke="#191970" points="828.3406,-218.4545 838.7002,-216.2349 829.2175,-211.5097 828.3406,-218.4545"/>
</g>
<!-- Node111 -->
<g id="node12" class="node">
<title>Node111</title>
<g id="a_node12"><a xlink:href="classprecice_1_1com_1_1Communication.html#a1ab2da696572afe406801d329442da10" target="_top" xlink:title="precice::com::Communication\l::aSend">
<polygon fill="#ffffff" stroke="#000000" points="1040,-228.5 1040,-258.5 1202,-258.5 1202,-228.5 1040,-228.5"/>
<text text-anchor="start" x="1048" y="-246.5" font-family="Helvetica,sans-Serif" font-size="10.00" fill="#000000">precice::com::Communication</text>
<text text-anchor="middle" x="1121" y="-235.5" font-family="Helvetica,sans-Serif" font-size="10.00" fill="#000000">::aSend</text>
</a>
</g>
</g>
<!-- Node109&#45;&gt;Node111 -->
<g id="edge21" class="edge">
<title>Node109&#45;&gt;Node111</title>
<path fill="none" stroke="#191970" d="M778.6383,-216.5248C786.9711,-219.4357 795.3257,-222.7628 803,-226.5 820.5134,-235.0287 820.4106,-245.6784 839,-251.5 903.2645,-271.6256 979.8444,-267.8251 1036.9728,-259.9937"/>
<polygon fill="#191970" stroke="#191970" points="1037.6464,-263.4329 1047.0458,-258.5438 1036.6491,-256.5043 1037.6464,-263.4329"/>
</g>
<!-- Node112 -->
<g id="node13" class="node">
<title>Node112</title>
<g id="a_node13"><a xlink:href="classprecice_1_1com_1_1Communication.html#ab51a4a3d5b89bff04e9aa64a2d9dfb96" target="_top" xlink:title="precice::com::Communication\l::allreduceSum">
<polygon fill="#ffffff" stroke="#000000" points="839,-162.5 839,-192.5 1001,-192.5 1001,-162.5 839,-162.5"/>
<text text-anchor="start" x="847" y="-180.5" font-family="Helvetica,sans-Serif" font-size="10.00" fill="#000000">precice::com::Communication</text>
<text text-anchor="middle" x="920" y="-169.5" font-family="Helvetica,sans-Serif" font-size="10.00" fill="#000000">::allreduceSum</text>
</a>
</g>
</g>
<!-- Node109&#45;&gt;Node112 -->
<g id="edge13" class="edge">
<title>Node109&#45;&gt;Node112</title>
<path fill="none" stroke="#191970" d="M803.1055,-191.669C811.5492,-190.6456 820.1725,-189.6003 828.7186,-188.5644"/>
<polygon fill="#191970" stroke="#191970" points="829.1941,-192.0325 838.7002,-187.3545 828.3517,-185.0833 829.1941,-192.0325"/>
</g>
<!-- Node113 -->
<g id="node14" class="node">
<title>Node113</title>
<g id="a_node14"><a xlink:href="classprecice_1_1com_1_1Communication.html#a21ea14f324d167cc309574d3dc5e17ee" target="_top" xlink:title="Receives a std::string from process with given rank. ">
<polygon fill="#ffffff" stroke="#000000" points="1040,-140.5 1040,-170.5 1202,-170.5 1202,-140.5 1040,-140.5"/>
<text text-anchor="start" x="1048" y="-158.5" font-family="Helvetica,sans-Serif" font-size="10.00" fill="#000000">precice::com::Communication</text>
<text text-anchor="middle" x="1121" y="-147.5" font-family="Helvetica,sans-Serif" font-size="10.00" fill="#000000">::receive</text>
</a>
</g>
</g>
<!-- Node109&#45;&gt;Node113 -->
<g id="edge22" class="edge">
<title>Node109&#45;&gt;Node113</title>
<path fill="none" stroke="#191970" d="M778.1438,-186.4934C786.6278,-183.5646 795.1577,-180.2274 803,-176.5 820.3677,-168.2453 820.5955,-158.0724 839,-152.5 900.6501,-133.8339 973.4125,-135.1455 1029.5836,-140.8312"/>
<polygon fill="#191970" stroke="#191970" points="1029.5551,-144.3483 1039.8725,-141.9399 1030.3051,-137.3886 1029.5551,-144.3483"/>
</g>
<!-- Node114 -->
<g id="node15" class="node">
<title>Node114</title>
<g id="a_node15"><a xlink:href="classprecice_1_1com_1_1Communication.html#acfa95686c5b494b3adfe11d5b5d23b87" target="_top" xlink:title="precice::com::Communication\l::broadcast">
<polygon fill="#ffffff" stroke="#000000" points="839,-299.5 839,-329.5 1001,-329.5 1001,-299.5 839,-299.5"/>
<text text-anchor="start" x="847" y="-317.5" font-family="Helvetica,sans-Serif" font-size="10.00" fill="#000000">precice::com::Communication</text>
<text text-anchor="middle" x="920" y="-306.5" font-family="Helvetica,sans-Serif" font-size="10.00" fill="#000000">::broadcast</text>
</a>
</g>
</g>
<!-- Node109&#45;&gt;Node114 -->
<g id="edge16" class="edge">
<title>Node109&#45;&gt;Node114</title>
<path fill="none" stroke="#191970" d="M786.5076,-216.5905C792.3783,-219.3603 797.9903,-222.6333 803,-226.5 827.0176,-245.0378 815.5045,-265.3048 839,-284.5 843.8775,-288.4848 849.3349,-291.9696 855.0504,-295.0112"/>
<polygon fill="#191970" stroke="#191970" points="853.672,-298.2323 864.1985,-299.4341 856.719,-291.9302 853.672,-298.2323"/>
</g>
<!-- Node116 -->
<g id="node17" class="node">
<title>Node116</title>
<g id="a_node17"><a xlink:href="classprecice_1_1com_1_1Communication.html#a8fb5e92432fc9751ae165953156980b5" target="_top" xlink:title="Sends a std::string to process with given rank. ">
<polygon fill="#ffffff" stroke="#000000" points="839,-74.5 839,-104.5 1001,-104.5 1001,-74.5 839,-74.5"/>
<text text-anchor="start" x="847" y="-92.5" font-family="Helvetica,sans-Serif" font-size="10.00" fill="#000000">precice::com::Communication</text>
<text text-anchor="middle" x="920" y="-81.5" font-family="Helvetica,sans-Serif" font-size="10.00" fill="#000000">::send</text>
</a>
</g>
</g>
<!-- Node109&#45;&gt;Node116 -->
<g id="edge20" class="edge">
<title>Node109&#45;&gt;Node116</title>
<path fill="none" stroke="#191970" d="M786.4763,-186.3687C792.3532,-183.6071 797.9753,-180.347 803,-176.5 826.7908,-158.2853 815.7222,-138.3659 839,-119.5 843.8931,-115.5343 849.3609,-112.0624 855.083,-109.0289"/>
<polygon fill="#191970" stroke="#191970" points="856.7506,-112.1105 864.2384,-104.615 853.7107,-105.8051 856.7506,-112.1105"/>
</g>
<!-- Node117 -->
<g id="node18" class="node">
<title>Node117</title>
<g id="a_node18"><a xlink:href="classprecice_1_1com_1_1Communication.html#a5460dcca7939aa7f22aba4a7f68b656f" target="_top" xlink:title="Asynchronously receives an array of double values. ">
<polygon fill="#ffffff" stroke="#000000" points="839,-25.5 839,-55.5 1001,-55.5 1001,-25.5 839,-25.5"/>
<text text-anchor="start" x="847" y="-43.5" font-family="Helvetica,sans-Serif" font-size="10.00" fill="#000000">precice::com::Communication</text>
<text text-anchor="middle" x="920" y="-32.5" font-family="Helvetica,sans-Serif" font-size="10.00" fill="#000000">::aReceive</text>
</a>
</g>
</g>
<!-- Node109&#45;&gt;Node117 -->
<g id="edge23" class="edge">
<title>Node109&#45;&gt;Node117</title>
<path fill="none" stroke="#191970" d="M789.9105,-186.3199C794.6819,-183.5716 799.1273,-180.328 803,-176.5 840.1862,-139.7439 801.6065,-101.0453 839,-64.5 840.0817,-63.4428 841.2077,-62.4319 842.3727,-61.4652"/>
<polygon fill="#191970" stroke="#191970" points="844.4003,-64.3181 850.5706,-55.7054 840.3761,-58.5904 844.4003,-64.3181"/>
</g>
<!-- Node110&#45;&gt;Node111 -->
<g id="edge12" class="edge">
<title>Node110&#45;&gt;Node111</title>
<path fill="none" stroke="#191970" d="M1001.175,-233.3655C1010.5366,-234.1573 1020.1307,-234.9688 1029.6156,-235.771"/>
<polygon fill="#191970" stroke="#191970" points="1029.5893,-239.2812 1039.8487,-236.6365 1030.1793,-232.3061 1029.5893,-239.2812"/>
</g>
<!-- Node112&#45;&gt;Node111 -->
<g id="edge14" class="edge">
<title>Node112&#45;&gt;Node111</title>
<path fill="none" stroke="#191970" d="M969.7647,-192.6028C980.1068,-195.8134 990.9228,-199.2242 1001,-202.5 1023.1416,-209.6977 1047.4677,-217.9452 1068.395,-225.147"/>
<polygon fill="#191970" stroke="#191970" points="1067.4652,-228.5286 1078.06,-228.4816 1069.7484,-221.9114 1067.4652,-228.5286"/>
</g>
<!-- Node112&#45;&gt;Node113 -->
<g id="edge15" class="edge">
<title>Node112&#45;&gt;Node113</title>
<path fill="none" stroke="#191970" d="M1001.175,-168.6152C1010.5366,-167.5905 1020.1307,-166.5404 1029.6156,-165.5023"/>
<polygon fill="#191970" stroke="#191970" points="1030.2889,-168.9496 1039.8487,-164.3822 1029.5273,-161.9911 1030.2889,-168.9496"/>
</g>
<!-- Node114&#45;&gt;Node102 -->
<g id="edge17" class="edge">
<title>Node114&#45;&gt;Node102</title>
<path fill="none" stroke="#191970" d="M988.6106,-329.5192C1005.9788,-333.3212 1024.7646,-337.4336 1042.5771,-341.3328"/>
<polygon fill="#191970" stroke="#191970" points="1041.8404,-344.7543 1052.3576,-343.4738 1043.3374,-337.9163 1041.8404,-344.7543"/>
</g>
<!-- Node114&#45;&gt;Node111 -->
<g id="edge18" class="edge">
<title>Node114&#45;&gt;Node111</title>
<path fill="none" stroke="#191970" d="M962.6269,-299.4427C993.6727,-288.4763 1035.8956,-273.5618 1068.9375,-261.8902"/>
<polygon fill="#191970" stroke="#191970" points="1070.1712,-265.1665 1078.4345,-258.5356 1067.8397,-258.5661 1070.1712,-265.1665"/>
</g>
<!-- Node115 -->
<g id="node16" class="node">
<title>Node115</title>
<g id="a_node16"><a xlink:href="classprecice_1_1com_1_1Request.html#ad07792939dd8a5e4e23791e21aeacff0" target="_top" xlink:title="precice::com::Request\l::wait">
<polygon fill="#ffffff" stroke="#000000" points="1059,-294.5 1059,-324.5 1183,-324.5 1183,-294.5 1059,-294.5"/>
<text text-anchor="start" x="1067" y="-312.5" font-family="Helvetica,sans-Serif" font-size="10.00" fill="#000000">precice::com::Request</text>
<text text-anchor="middle" x="1121" y="-301.5" font-family="Helvetica,sans-Serif" font-size="10.00" fill="#000000">::wait</text>
</a>
</g>
</g>
<!-- Node114&#45;&gt;Node115 -->
<g id="edge19" class="edge">
<title>Node114&#45;&gt;Node115</title>
<path fill="none" stroke="#191970" d="M1001.175,-312.4807C1016.7556,-312.0931 1032.9801,-311.6896 1048.2734,-311.3091"/>
<polygon fill="#191970" stroke="#191970" points="1048.7832,-314.7976 1058.693,-311.0499 1048.6091,-307.7998 1048.7832,-314.7976"/>
</g>
</g>
</svg>
