<?xml version="1.0" encoding="UTF-8" standalone="no"?>
<!DOCTYPE svg PUBLIC "-//W3C//DTD SVG 1.1//EN"
 "http://www.w3.org/Graphics/SVG/1.1/DTD/svg11.dtd">
<!-- Generated by graphviz version 2.40.1 (20161225.0304)
 -->
<!-- Title: precice::com::SocketSendQueue Pages: 1 -->
<svg width="150pt" height="206pt"
 viewBox="0.00 0.00 150.00 206.00" xmlns="http://www.w3.org/2000/svg" xmlns:xlink="http://www.w3.org/1999/xlink">
<g id="graph0" class="graph" transform="scale(1 1) rotate(0) translate(4 202)">
<title>precice::com::SocketSendQueue</title>
<polygon fill="#ffffff" stroke="transparent" points="-4,4 -4,-202 146,-202 146,4 -4,4"/>
<!-- Node1 -->
<g id="node1" class="node">
<title>Node1</title>
<polygon fill="#bfbfbf" stroke="#000000" points="0,-.5 0,-30.5 142,-30.5 142,-.5 0,-.5"/>
<text text-anchor="start" x="8" y="-18.5" font-family="Helvetica,sans-Serif" font-size="10.00" fill="#000000">precice::com::SocketSend</text>
<text text-anchor="middle" x="71" y="-7.5" font-family="Helvetica,sans-Serif" font-size="10.00" fill="#000000">Queue</text>
</g>
<!-- Node2 -->
<g id="node2" class="node">
<title>Node2</title>
<polygon fill="#ffffff" stroke="#bfbfbf" points="2,-78.5 2,-119.5 140,-119.5 140,-78.5 2,-78.5"/>
<text text-anchor="start" x="10" y="-107.5" font-family="Helvetica,sans-Serif" font-size="10.00" fill="#000000">std::deque&lt; precice</text>
<text text-anchor="start" x="10" y="-96.5" font-family="Helvetica,sans-Serif" font-size="10.00" fill="#000000">::com::SocketSendQueue</text>
<text text-anchor="middle" x="71" y="-85.5" font-family="Helvetica,sans-Serif" font-size="10.00" fill="#000000">::SendItem &gt;</text>
</g>
<!-- Node2&#45;&gt;Node1 -->
<g id="edge1" class="edge">
<title>Node2&#45;&gt;Node1</title>
<path fill="none" stroke="#9a32cd" stroke-dasharray="5,2" d="M71,-68.0892C71,-55.3184 71,-41.0939 71,-30.6621"/>
<polygon fill="#9a32cd" stroke="#9a32cd" points="67.5001,-68.3595 71,-78.3595 74.5001,-68.3596 67.5001,-68.3595"/>
<text text-anchor="middle" x="102.5" y="-52" font-family="Helvetica,sans-Serif" font-size="10.00" fill="#000000"> _itemQueue</text>
</g>
<!-- Node3 -->
<g id="node3" class="node">
<title>Node3</title>
<g id="a_node3"><a xlink:href="structprecice_1_1com_1_1SocketSendQueue_1_1SendItem.html" target="_top" xlink:title="precice::com::SocketSend\lQueue::SendItem">
<polygon fill="#ffffff" stroke="#000000" points="0,-167.5 0,-197.5 142,-197.5 142,-167.5 0,-167.5"/>
<text text-anchor="start" x="8" y="-185.5" font-family="Helvetica,sans-Serif" font-size="10.00" fill="#000000">precice::com::SocketSend</text>
<text text-anchor="middle" x="71" y="-174.5" font-family="Helvetica,sans-Serif" font-size="10.00" fill="#000000">Queue::SendItem</text>
</a>
</g>
</g>
<!-- Node3&#45;&gt;Node2 -->
<g id="edge2" class="edge">
<title>Node3&#45;&gt;Node2</title>
<path fill="none" stroke="#9a32cd" stroke-dasharray="5,2" d="M71,-156.9112C71,-144.9282 71,-130.8447 71,-119.5668"/>
<polygon fill="#9a32cd" stroke="#9a32cd" points="67.5001,-157.1848 71,-167.1848 74.5001,-157.1848 67.5001,-157.1848"/>
<text text-anchor="middle" x="95.5" y="-141" font-family="Helvetica,sans-Serif" font-size="10.00" fill="#000000"> elements</text>
</g>
</g>
</svg>
