<?xml version="1.0" encoding="UTF-8" standalone="no"?>
<!DOCTYPE svg PUBLIC "-//W3C//DTD SVG 1.1//EN"
 "http://www.w3.org/Graphics/SVG/1.1/DTD/svg11.dtd">
<!-- Generated by graphviz version 2.40.1 (20161225.0304)
 -->
<!-- Title: precice::com::MPIPortsCommunication::acceptConnection Pages: 1 -->
<!--zoomable 387 -->
<svg id="main" version="1.1" xmlns="http://www.w3.org/2000/svg" xmlns:xlink="http://www.w3.org/1999/xlink" xml:space="preserve" onload="init(evt)">
<style type="text/css"><![CDATA[
.edge:hover path { stroke: red; }
.edge:hover polygon { stroke: red; fill: red; }
]]></style>
<script type="text/javascript"><![CDATA[
var edges = document.getElementsByTagName('g');
if (edges && edges.length) {
  for (var i=0;i<edges.length;i++) {
    if (edges[i].id.substr(0,4)=='edge') {
      edges[i].setAttribute('class','edge');
    }
  }
}
]]></script>
        <defs>
                <circle id="rim" cx="0" cy="0" r="7"/>
                <circle id="rim2" cx="0" cy="0" r="3.5"/>
                <g id="zoomPlus">
                        <use xlink:href="#rim" fill="#404040">
                                <set attributeName="fill" to="#808080" begin="zoomplus.mouseover" end="zoomplus.mouseout"/>
                        </use>
                        <path d="M-4,0h8M0,-4v8" fill="none" stroke="white" stroke-width="1.5" pointer-events="none"/>
                </g>
                <g id="zoomMin">
                        <use xlink:href="#rim" fill="#404040">
                                <set attributeName="fill" to="#808080" begin="zoomminus.mouseover" end="zoomminus.mouseout"/>
                        </use>
                        <path d="M-4,0h8" fill="none" stroke="white" stroke-width="1.5" pointer-events="none"/>
                </g>
                <g id="dirArrow">
                        <path fill="none" stroke="white" stroke-width="1.5" d="M0,-3.0v7 M-2.5,-0.5L0,-3.0L2.5,-0.5"/>
                </g>
               <g id="resetDef">
                       <use xlink:href="#rim2" fill="#404040">
                               <set attributeName="fill" to="#808080" begin="reset.mouseover" end="reset.mouseout"/>
                       </use>
               </g>
        </defs>

<script type="text/javascript">
var viewWidth = 1250;
var viewHeight = 387;
var sectionId = 'dynsection-3';
</script>
<script xlink:href="svgpan.js"/>
<svg id="graph" class="graph">
<g id="viewport">
<title>precice::com::MPIPortsCommunication::acceptConnection</title>
<polygon fill="#ffffff" stroke="transparent" points="-4,4 -4,-383 1246,-383 1246,4 -4,4"/>
<!-- Node22 -->
<g id="node1" class="node">
<title>Node22</title>
<polygon fill="#bfbfbf" stroke="#000000" points="0,-73.5 0,-103.5 204,-103.5 204,-73.5 0,-73.5"/>
<text text-anchor="start" x="8" y="-91.5" font-family="Helvetica,sans-Serif" font-size="10.00" fill="#000000">precice::com::MPIPortsCommunication</text>
<text text-anchor="middle" x="102" y="-80.5" font-family="Helvetica,sans-Serif" font-size="10.00" fill="#000000">::acceptConnection</text>
</g>
<!-- Node23 -->
<g id="node2" class="node">
<title>Node23</title>
<g id="a_node2"><a xlink:href="classprecice_1_1com_1_1Communication.html#a444946d1a6c67c352fe96b56cdbf1fd2" target="_top" xlink:title="Returns true, if a connection to a remote participant has been setup. ">
<polygon fill="#ffffff" stroke="#000000" points="261,-147.5 261,-177.5 423,-177.5 423,-147.5 261,-147.5"/>
<text text-anchor="start" x="269" y="-165.5" font-family="Helvetica,sans-Serif" font-size="10.00" fill="#000000">precice::com::Communication</text>
<text text-anchor="middle" x="342" y="-154.5" font-family="Helvetica,sans-Serif" font-size="10.00" fill="#000000">::isConnected</text>
</a>
</g>
</g>
<!-- Node22&#45;&gt;Node23 -->
<g id="edge1" class="edge">
<title>Node22&#45;&gt;Node23</title>
<path fill="none" stroke="#191970" d="M140.9123,-103.5009C168.3693,-113.7933 206.1444,-127.3685 240,-137.5 248.5944,-140.0719 257.653,-142.5787 266.68,-144.9504"/>
<polygon fill="#191970" stroke="#191970" points="265.8821,-148.3591 276.4393,-147.4676 267.6304,-141.5809 265.8821,-148.3591"/>
</g>
<!-- Node41 -->
<g id="node20" class="node">
<title>Node41</title>
<g id="a_node20"><a xlink:href="classprecice_1_1com_1_1Communication.html#a74a3ad3c6b87e3f94bd104849a9cdaec" target="_top" xlink:title="Set rank offset. ">
<polygon fill="#ffffff" stroke="#000000" points="261,-98.5 261,-128.5 423,-128.5 423,-98.5 261,-98.5"/>
<text text-anchor="start" x="269" y="-116.5" font-family="Helvetica,sans-Serif" font-size="10.00" fill="#000000">precice::com::Communication</text>
<text text-anchor="middle" x="342" y="-105.5" font-family="Helvetica,sans-Serif" font-size="10.00" fill="#000000">::setRankOffset</text>
</a>
</g>
</g>
<!-- Node22&#45;&gt;Node41 -->
<g id="edge26" class="edge">
<title>Node22&#45;&gt;Node41</title>
<path fill="none" stroke="#191970" d="M204.1296,-99.1385C219.4713,-100.7366 235.2117,-102.3762 250.3171,-103.9497"/>
<polygon fill="#191970" stroke="#191970" points="250.3518,-107.4722 260.6606,-105.0271 251.0771,-100.5098 250.3518,-107.4722"/>
</g>
<!-- Node42 -->
<g id="node21" class="node">
<title>Node42</title>
<g id="a_node21"><a xlink:href="classprecice_1_1com_1_1ConnectionInfoWriter.html#a7a03778a85535ca32fd7338bb1b4dd65" target="_top" xlink:title="Write the string info, e.g. IP:port to the connection info file. ">
<polygon fill="#ffffff" stroke="#000000" points="272,-49.5 272,-79.5 412,-79.5 412,-49.5 272,-49.5"/>
<text text-anchor="start" x="280" y="-67.5" font-family="Helvetica,sans-Serif" font-size="10.00" fill="#000000">precice::com::Connection</text>
<text text-anchor="middle" x="342" y="-56.5" font-family="Helvetica,sans-Serif" font-size="10.00" fill="#000000">InfoWriter::write</text>
</a>
</g>
</g>
<!-- Node22&#45;&gt;Node42 -->
<g id="edge27" class="edge">
<title>Node22&#45;&gt;Node42</title>
<path fill="none" stroke="#191970" d="M204.1296,-78.287C223.3985,-76.3602 243.2961,-74.3704 261.775,-72.5225"/>
<polygon fill="#191970" stroke="#191970" points="262.2799,-75.9896 271.882,-71.5118 261.5833,-69.0243 262.2799,-75.9896"/>
</g>
<!-- Node43 -->
<g id="node22" class="node">
<title>Node43</title>
<g id="a_node22"><a xlink:href="classprecice_1_1com_1_1MPIPortsCommunication.html#a2e405e1427d1a6a6bbeb51411ddec6e6" target="_top" xlink:title="Returns the communicator. ">
<polygon fill="#ffffff" stroke="#000000" points="240,-.5 240,-30.5 444,-30.5 444,-.5 240,-.5"/>
<text text-anchor="start" x="248" y="-18.5" font-family="Helvetica,sans-Serif" font-size="10.00" fill="#000000">precice::com::MPIPortsCommunication</text>
<text text-anchor="middle" x="342" y="-7.5" font-family="Helvetica,sans-Serif" font-size="10.00" fill="#000000">::communicator</text>
</a>
</g>
</g>
<!-- Node22&#45;&gt;Node43 -->
<g id="edge28" class="edge">
<title>Node22&#45;&gt;Node43</title>
<path fill="none" stroke="#191970" d="M140.8831,-73.4007C168.3268,-63.0632 206.0978,-49.4745 240,-39.5 247.6306,-37.255 255.63,-35.0768 263.6497,-33.008"/>
<polygon fill="#191970" stroke="#191970" points="264.5796,-36.3831 273.4186,-30.5417 262.866,-29.5961 264.5796,-36.3831"/>
</g>
<!-- Node24 -->
<g id="node3" class="node">
<title>Node24</title>
<g id="a_node3"><a xlink:href="classprecice_1_1com_1_1Communication.html#a5319067292ba3f7979d92a72f9298f80" target="_top" xlink:title="Returns the number of processes in the remote communicator. ">
<polygon fill="#ffffff" stroke="#000000" points="1074,-348.5 1074,-378.5 1242,-378.5 1242,-348.5 1074,-348.5"/>
<text text-anchor="start" x="1082" y="-366.5" font-family="Helvetica,sans-Serif" font-size="10.00" fill="#000000">precice::com::Communication</text>
<text text-anchor="middle" x="1158" y="-355.5" font-family="Helvetica,sans-Serif" font-size="10.00" fill="#000000">::getRemoteCommunicatorSize</text>
</a>
</g>
</g>
<!-- Node23&#45;&gt;Node24 -->
<g id="edge2" class="edge">
<title>Node23&#45;&gt;Node24</title>
<path fill="none" stroke="#191970" d="M359.4375,-177.6556C384.4242,-198.5697 432.6427,-236.0116 480,-256.5 675.5956,-341.1213 928.7958,-359.7303 1063.6577,-363.2606"/>
<polygon fill="#191970" stroke="#191970" points="1063.8732,-366.7666 1073.954,-363.5067 1064.0405,-359.7686 1063.8732,-366.7666"/>
</g>
<!-- Node25 -->
<g id="node4" class="node">
<title>Node25</title>
<g id="a_node4"><a xlink:href="classprecice_1_1com_1_1Communication.html#a652a8cbe5447146b4b3b6200db5ddbeb" target="_top" xlink:title="Accepts connection from another communicator, which has to call requestConnection(). ">
<polygon fill="#ffffff" stroke="#000000" points="678,-240.5 678,-270.5 840,-270.5 840,-240.5 678,-240.5"/>
<text text-anchor="start" x="686" y="-258.5" font-family="Helvetica,sans-Serif" font-size="10.00" fill="#000000">precice::com::Communication</text>
<text text-anchor="middle" x="759" y="-247.5" font-family="Helvetica,sans-Serif" font-size="10.00" fill="#000000">::acceptConnection</text>
</a>
</g>
</g>
<!-- Node23&#45;&gt;Node25 -->
<g id="edge3" class="edge">
<title>Node23&#45;&gt;Node25</title>
<path fill="none" stroke="#191970" d="M365.3073,-177.6153C391.8829,-194.0059 437.2024,-219.4372 480,-231.5 541.1213,-248.7274 612.505,-254.6229 667.7662,-256.2654"/>
<polygon fill="#191970" stroke="#191970" points="667.8047,-259.7675 677.891,-256.5244 667.9837,-252.7697 667.8047,-259.7675"/>
</g>
<!-- Node26 -->
<g id="node5" class="node">
<title>Node26</title>
<g id="a_node5"><a xlink:href="classprecice_1_1com_1_1Communication.html#a64c6c2ea54877c8ae14373d84ba7a808" target="_top" xlink:title="Accepts connection from another communicator, which has to call requestConnectionAsClient(). ">
<polygon fill="#ffffff" stroke="#000000" points="480,-103.5 480,-133.5 642,-133.5 642,-103.5 480,-103.5"/>
<text text-anchor="start" x="488" y="-121.5" font-family="Helvetica,sans-Serif" font-size="10.00" fill="#000000">precice::com::Communication</text>
<text text-anchor="middle" x="561" y="-110.5" font-family="Helvetica,sans-Serif" font-size="10.00" fill="#000000">::acceptConnectionAsServer</text>
</a>
</g>
</g>
<!-- Node23&#45;&gt;Node26 -->
<g id="edge4" class="edge">
<title>Node23&#45;&gt;Node26</title>
<path fill="none" stroke="#191970" d="M416.7549,-147.4808C435.9413,-143.626 456.7154,-139.4522 476.3622,-135.5049"/>
<polygon fill="#191970" stroke="#191970" points="477.0958,-138.9275 486.2105,-133.5262 475.7169,-132.0646 477.0958,-138.9275"/>
</g>
<!-- Node27 -->
<g id="node6" class="node">
<title>Node27</title>
<g id="a_node6"><a xlink:href="classprecice_1_1com_1_1Communication.html#ab019bdb3f7ad242a84bdc70cf0236a87" target="_top" xlink:title="Connects to another communicator, which has to call acceptConnection(). ">
<polygon fill="#ffffff" stroke="#000000" points="678,-93.5 678,-123.5 840,-123.5 840,-93.5 678,-93.5"/>
<text text-anchor="start" x="686" y="-111.5" font-family="Helvetica,sans-Serif" font-size="10.00" fill="#000000">precice::com::Communication</text>
<text text-anchor="middle" x="759" y="-100.5" font-family="Helvetica,sans-Serif" font-size="10.00" fill="#000000">::requestConnection</text>
</a>
</g>
</g>
<!-- Node23&#45;&gt;Node27 -->
<g id="edge5" class="edge">
<title>Node23&#45;&gt;Node27</title>
<path fill="none" stroke="#191970" d="M423.1051,-161.8243C483.7949,-160.177 568.6201,-155.4506 642,-142.5 645.1423,-141.9454 671.3221,-134.3581 698.1211,-126.4919"/>
<polygon fill="#191970" stroke="#191970" points="699.3738,-129.7718 707.9809,-123.5937 697.3997,-123.0559 699.3738,-129.7718"/>
</g>
<!-- Node28 -->
<g id="node7" class="node">
<title>Node28</title>
<g id="a_node7"><a xlink:href="classprecice_1_1com_1_1Communication.html#a207ba1e3f1ae07417b921a1ff5cc476a" target="_top" xlink:title="Connects to another communicator, which has to call acceptConnectionAsServer(). ">
<polygon fill="#ffffff" stroke="#000000" points="480,-54.5 480,-84.5 642,-84.5 642,-54.5 480,-54.5"/>
<text text-anchor="start" x="488" y="-72.5" font-family="Helvetica,sans-Serif" font-size="10.00" fill="#000000">precice::com::Communication</text>
<text text-anchor="middle" x="561" y="-61.5" font-family="Helvetica,sans-Serif" font-size="10.00" fill="#000000">::requestConnectionAsClient</text>
</a>
</g>
</g>
<!-- Node23&#45;&gt;Node28 -->
<g id="edge6" class="edge">
<title>Node23&#45;&gt;Node28</title>
<path fill="none" stroke="#191970" d="M423.0864,-147.8621C430.4259,-145.0029 437.5231,-141.5852 444,-137.5 465.3711,-124.0205 458.9564,-107.4853 480,-93.5 482.4049,-91.9018 484.9189,-90.4074 487.5111,-89.0104"/>
<polygon fill="#191970" stroke="#191970" points="489.1006,-92.1296 496.5806,-84.6262 486.054,-85.8273 489.1006,-92.1296"/>
</g>
<!-- Node29 -->
<g id="node8" class="node">
<title>Node29</title>
<g id="a_node8"><a xlink:href="classprecice_1_1com_1_1Communication.html#a60034c02c08a248a7b2cd539cb69568b" target="_top" xlink:title="precice::com::Communication\l::connectMasterSlaves">
<polygon fill="#ffffff" stroke="#000000" points="480,-191.5 480,-221.5 642,-221.5 642,-191.5 480,-191.5"/>
<text text-anchor="start" x="488" y="-209.5" font-family="Helvetica,sans-Serif" font-size="10.00" fill="#000000">precice::com::Communication</text>
<text text-anchor="middle" x="561" y="-198.5" font-family="Helvetica,sans-Serif" font-size="10.00" fill="#000000">::connectMasterSlaves</text>
</a>
</g>
</g>
<!-- Node23&#45;&gt;Node29 -->
<g id="edge7" class="edge">
<title>Node23&#45;&gt;Node29</title>
<path fill="none" stroke="#191970" d="M416.7549,-177.5192C435.9413,-181.374 456.7154,-185.5478 476.3622,-189.4951"/>
<polygon fill="#191970" stroke="#191970" points="475.7169,-192.9354 486.2105,-191.4738 477.0958,-186.0725 475.7169,-192.9354"/>
</g>
<!-- Node40 -->
<g id="node19" class="node">
<title>Node40</title>
<g id="a_node19"><a xlink:href="classprecice_1_1com_1_1Communication.html#adce43462d51714bd1ad6ba5cb4e68fee" target="_top" xlink:title="Disconnects from communication space, i.e. participant. ">
<polygon fill="#ffffff" stroke="#000000" points="480,-5.5 480,-35.5 642,-35.5 642,-5.5 480,-5.5"/>
<text text-anchor="start" x="488" y="-23.5" font-family="Helvetica,sans-Serif" font-size="10.00" fill="#000000">precice::com::Communication</text>
<text text-anchor="middle" x="561" y="-12.5" font-family="Helvetica,sans-Serif" font-size="10.00" fill="#000000">::closeConnection</text>
</a>
</g>
</g>
<!-- Node23&#45;&gt;Node40 -->
<g id="edge25" class="edge">
<title>Node23&#45;&gt;Node40</title>
<path fill="none" stroke="#191970" d="M423.092,-150.5829C430.6884,-147.1998 437.8367,-142.9156 444,-137.5 477.2949,-108.2444 447.4122,-74.5413 480,-44.5 481.1458,-43.4438 482.336,-42.4339 483.5649,-41.4683"/>
<polygon fill="#191970" stroke="#191970" points="485.8055,-44.1808 492.1785,-35.7171 481.9184,-38.3592 485.8055,-44.1808"/>
</g>
<!-- Node29&#45;&gt;Node25 -->
<g id="edge9" class="edge">
<title>Node29&#45;&gt;Node25</title>
<path fill="none" stroke="#191970" d="M621.7521,-221.5346C642.8482,-226.7554 666.6824,-232.6537 688.4983,-238.0526"/>
<polygon fill="#191970" stroke="#191970" points="687.8148,-241.489 698.3628,-240.4938 689.4964,-234.694 687.8148,-241.489"/>
</g>
<!-- Node29&#45;&gt;Node27 -->
<g id="edge24" class="edge">
<title>Node29&#45;&gt;Node27</title>
<path fill="none" stroke="#191970" d="M614.0371,-191.4858C623.8114,-187.4613 633.5779,-182.5112 642,-176.5 662.5659,-161.8213 656.9564,-146.4853 678,-132.5 680.4049,-130.9018 682.9189,-129.4074 685.5111,-128.0104"/>
<polygon fill="#191970" stroke="#191970" points="687.1006,-131.1296 694.5806,-123.6262 684.054,-124.8273 687.1006,-131.1296"/>
</g>
<!-- Node30 -->
<g id="node9" class="node">
<title>Node30</title>
<g id="a_node9"><a xlink:href="classprecice_1_1com_1_1Communication.html#a39d443a319b10525a50bac6b03ddd600" target="_top" xlink:title="Prepare environment used to establish the communication. ">
<polygon fill="#ffffff" stroke="#000000" points="678,-142.5 678,-172.5 840,-172.5 840,-142.5 678,-142.5"/>
<text text-anchor="start" x="686" y="-160.5" font-family="Helvetica,sans-Serif" font-size="10.00" fill="#000000">precice::com::Communication</text>
<text text-anchor="middle" x="759" y="-149.5" font-family="Helvetica,sans-Serif" font-size="10.00" fill="#000000">::prepareEstablishment</text>
</a>
</g>
</g>
<!-- Node29&#45;&gt;Node30 -->
<g id="edge8" class="edge">
<title>Node29&#45;&gt;Node30</title>
<path fill="none" stroke="#191970" d="M621.7521,-191.4654C642.8482,-186.2446 666.6824,-180.3463 688.4983,-174.9474"/>
<polygon fill="#191970" stroke="#191970" points="689.4964,-178.306 698.3628,-172.5062 687.8148,-171.511 689.4964,-178.306"/>
</g>
<!-- Node31 -->
<g id="node10" class="node">
<title>Node31</title>
<g id="a_node10"><a xlink:href="classprecice_1_1com_1_1Communication.html#a08e2067629d6f0198918a21467d29762" target="_top" xlink:title="Clean&#45;up environment used to establish the communication. ">
<polygon fill="#ffffff" stroke="#000000" points="678,-191.5 678,-221.5 840,-221.5 840,-191.5 678,-191.5"/>
<text text-anchor="start" x="686" y="-209.5" font-family="Helvetica,sans-Serif" font-size="10.00" fill="#000000">precice::com::Communication</text>
<text text-anchor="middle" x="759" y="-198.5" font-family="Helvetica,sans-Serif" font-size="10.00" fill="#000000">::cleanupEstablishment</text>
</a>
</g>
</g>
<!-- Node29&#45;&gt;Node31 -->
<g id="edge10" class="edge">
<title>Node29&#45;&gt;Node31</title>
<path fill="none" stroke="#191970" d="M642.1055,-206.5C650.4574,-206.5 658.9851,-206.5 667.4399,-206.5"/>
<polygon fill="#191970" stroke="#191970" points="667.7003,-210.0001 677.7002,-206.5 667.7002,-203.0001 667.7003,-210.0001"/>
</g>
<!-- Node32 -->
<g id="node11" class="node">
<title>Node32</title>
<g id="a_node11"><a xlink:href="classprecice_1_1com_1_1Communication.html#a2462e0a8e7053d7ded3ca67d5b3bfaf6" target="_top" xlink:title="Performs a reduce summation on the rank given by rankMaster. ">
<polygon fill="#ffffff" stroke="#000000" points="876,-216.5 876,-246.5 1038,-246.5 1038,-216.5 876,-216.5"/>
<text text-anchor="start" x="884" y="-234.5" font-family="Helvetica,sans-Serif" font-size="10.00" fill="#000000">precice::com::Communication</text>
<text text-anchor="middle" x="957" y="-223.5" font-family="Helvetica,sans-Serif" font-size="10.00" fill="#000000">::reduceSum</text>
</a>
</g>
</g>
<!-- Node31&#45;&gt;Node32 -->
<g id="edge11" class="edge">
<title>Node31&#45;&gt;Node32</title>
<path fill="none" stroke="#191970" d="M840.1055,-216.7406C848.5492,-217.8067 857.1725,-218.8955 865.7186,-219.9746"/>
<polygon fill="#191970" stroke="#191970" points="865.3406,-223.4545 875.7002,-221.2349 866.2175,-216.5097 865.3406,-223.4545"/>
</g>
<!-- Node33 -->
<g id="node12" class="node">
<title>Node33</title>
<g id="a_node12"><a xlink:href="classprecice_1_1com_1_1Communication.html#a1ab2da696572afe406801d329442da10" target="_top" xlink:title="precice::com::Communication\l::aSend">
<polygon fill="#ffffff" stroke="#000000" points="1077,-233.5 1077,-263.5 1239,-263.5 1239,-233.5 1077,-233.5"/>
<text text-anchor="start" x="1085" y="-251.5" font-family="Helvetica,sans-Serif" font-size="10.00" fill="#000000">precice::com::Communication</text>
<text text-anchor="middle" x="1158" y="-240.5" font-family="Helvetica,sans-Serif" font-size="10.00" fill="#000000">::aSend</text>
</a>
</g>
</g>
<!-- Node31&#45;&gt;Node33 -->
<g id="edge21" class="edge">
<title>Node31&#45;&gt;Node33</title>
<path fill="none" stroke="#191970" d="M815.6383,-221.5248C823.9711,-224.4357 832.3257,-227.7628 840,-231.5 857.5134,-240.0287 857.4106,-250.6784 876,-256.5 940.2645,-276.6256 1016.8444,-272.8251 1073.9728,-264.9937"/>
<polygon fill="#191970" stroke="#191970" points="1074.6464,-268.4329 1084.0458,-263.5438 1073.6491,-261.5043 1074.6464,-268.4329"/>
</g>
<!-- Node34 -->
<g id="node13" class="node">
<title>Node34</title>
<g id="a_node13"><a xlink:href="classprecice_1_1com_1_1Communication.html#ab51a4a3d5b89bff04e9aa64a2d9dfb96" target="_top" xlink:title="precice::com::Communication\l::allreduceSum">
<polygon fill="#ffffff" stroke="#000000" points="876,-167.5 876,-197.5 1038,-197.5 1038,-167.5 876,-167.5"/>
<text text-anchor="start" x="884" y="-185.5" font-family="Helvetica,sans-Serif" font-size="10.00" fill="#000000">precice::com::Communication</text>
<text text-anchor="middle" x="957" y="-174.5" font-family="Helvetica,sans-Serif" font-size="10.00" fill="#000000">::allreduceSum</text>
</a>
</g>
</g>
<!-- Node31&#45;&gt;Node34 -->
<g id="edge13" class="edge">
<title>Node31&#45;&gt;Node34</title>
<path fill="none" stroke="#191970" d="M840.1055,-196.669C848.5492,-195.6456 857.1725,-194.6003 865.7186,-193.5644"/>
<polygon fill="#191970" stroke="#191970" points="866.1941,-197.0325 875.7002,-192.3545 865.3517,-190.0833 866.1941,-197.0325"/>
</g>
<!-- Node35 -->
<g id="node14" class="node">
<title>Node35</title>
<g id="a_node14"><a xlink:href="classprecice_1_1com_1_1Communication.html#a21ea14f324d167cc309574d3dc5e17ee" target="_top" xlink:title="Receives a std::string from process with given rank. ">
<polygon fill="#ffffff" stroke="#000000" points="1077,-145.5 1077,-175.5 1239,-175.5 1239,-145.5 1077,-145.5"/>
<text text-anchor="start" x="1085" y="-163.5" font-family="Helvetica,sans-Serif" font-size="10.00" fill="#000000">precice::com::Communication</text>
<text text-anchor="middle" x="1158" y="-152.5" font-family="Helvetica,sans-Serif" font-size="10.00" fill="#000000">::receive</text>
</a>
</g>
</g>
<!-- Node31&#45;&gt;Node35 -->
<g id="edge22" class="edge">
<title>Node31&#45;&gt;Node35</title>
<path fill="none" stroke="#191970" d="M815.1438,-191.4934C823.6278,-188.5646 832.1577,-185.2274 840,-181.5 857.3677,-173.2453 857.5955,-163.0724 876,-157.5 937.6501,-138.8339 1010.4125,-140.1455 1066.5836,-145.8312"/>
<polygon fill="#191970" stroke="#191970" points="1066.5551,-149.3483 1076.8725,-146.9399 1067.3051,-142.3886 1066.5551,-149.3483"/>
</g>
<!-- Node36 -->
<g id="node15" class="node">
<title>Node36</title>
<g id="a_node15"><a xlink:href="classprecice_1_1com_1_1Communication.html#acfa95686c5b494b3adfe11d5b5d23b87" target="_top" xlink:title="precice::com::Communication\l::broadcast">
<polygon fill="#ffffff" stroke="#000000" points="876,-304.5 876,-334.5 1038,-334.5 1038,-304.5 876,-304.5"/>
<text text-anchor="start" x="884" y="-322.5" font-family="Helvetica,sans-Serif" font-size="10.00" fill="#000000">precice::com::Communication</text>
<text text-anchor="middle" x="957" y="-311.5" font-family="Helvetica,sans-Serif" font-size="10.00" fill="#000000">::broadcast</text>
</a>
</g>
</g>
<!-- Node31&#45;&gt;Node36 -->
<g id="edge16" class="edge">
<title>Node31&#45;&gt;Node36</title>
<path fill="none" stroke="#191970" d="M823.5076,-221.5905C829.3783,-224.3603 834.9903,-227.6333 840,-231.5 864.0176,-250.0378 852.5045,-270.3048 876,-289.5 880.8775,-293.4848 886.3349,-296.9696 892.0504,-300.0112"/>
<polygon fill="#191970" stroke="#191970" points="890.672,-303.2323 901.1985,-304.4341 893.719,-296.9302 890.672,-303.2323"/>
</g>
<!-- Node38 -->
<g id="node17" class="node">
<title>Node38</title>
<g id="a_node17"><a xlink:href="classprecice_1_1com_1_1Communication.html#a8fb5e92432fc9751ae165953156980b5" target="_top" xlink:title="Sends a std::string to process with given rank. ">
<polygon fill="#ffffff" stroke="#000000" points="876,-79.5 876,-109.5 1038,-109.5 1038,-79.5 876,-79.5"/>
<text text-anchor="start" x="884" y="-97.5" font-family="Helvetica,sans-Serif" font-size="10.00" fill="#000000">precice::com::Communication</text>
<text text-anchor="middle" x="957" y="-86.5" font-family="Helvetica,sans-Serif" font-size="10.00" fill="#000000">::send</text>
</a>
</g>
</g>
<!-- Node31&#45;&gt;Node38 -->
<g id="edge20" class="edge">
<title>Node31&#45;&gt;Node38</title>
<path fill="none" stroke="#191970" d="M823.4763,-191.3687C829.3532,-188.6071 834.9753,-185.347 840,-181.5 863.7908,-163.2853 852.7222,-143.3659 876,-124.5 880.8931,-120.5343 886.3609,-117.0624 892.083,-114.0289"/>
<polygon fill="#191970" stroke="#191970" points="893.7506,-117.1105 901.2384,-109.615 890.7107,-110.8051 893.7506,-117.1105"/>
</g>
<!-- Node39 -->
<g id="node18" class="node">
<title>Node39</title>
<g id="a_node18"><a xlink:href="classprecice_1_1com_1_1Communication.html#a5460dcca7939aa7f22aba4a7f68b656f" target="_top" xlink:title="Asynchronously receives an array of double values. ">
<polygon fill="#ffffff" stroke="#000000" points="876,-30.5 876,-60.5 1038,-60.5 1038,-30.5 876,-30.5"/>
<text text-anchor="start" x="884" y="-48.5" font-family="Helvetica,sans-Serif" font-size="10.00" fill="#000000">precice::com::Communication</text>
<text text-anchor="middle" x="957" y="-37.5" font-family="Helvetica,sans-Serif" font-size="10.00" fill="#000000">::aReceive</text>
</a>
</g>
</g>
<!-- Node31&#45;&gt;Node39 -->
<g id="edge23" class="edge">
<title>Node31&#45;&gt;Node39</title>
<path fill="none" stroke="#191970" d="M826.9105,-191.3199C831.6819,-188.5716 836.1273,-185.328 840,-181.5 877.1862,-144.7439 838.6065,-106.0453 876,-69.5 877.0817,-68.4428 878.2077,-67.4319 879.3727,-66.4652"/>
<polygon fill="#191970" stroke="#191970" points="881.4003,-69.3181 887.5706,-60.7054 877.3761,-63.5904 881.4003,-69.3181"/>
</g>
<!-- Node32&#45;&gt;Node33 -->
<g id="edge12" class="edge">
<title>Node32&#45;&gt;Node33</title>
<path fill="none" stroke="#191970" d="M1038.175,-238.3655C1047.5366,-239.1573 1057.1307,-239.9688 1066.6156,-240.771"/>
<polygon fill="#191970" stroke="#191970" points="1066.5893,-244.2812 1076.8487,-241.6365 1067.1793,-237.3061 1066.5893,-244.2812"/>
</g>
<!-- Node34&#45;&gt;Node33 -->
<g id="edge14" class="edge">
<title>Node34&#45;&gt;Node33</title>
<path fill="none" stroke="#191970" d="M1006.7647,-197.6028C1017.1068,-200.8134 1027.9228,-204.2242 1038,-207.5 1060.1416,-214.6977 1084.4677,-222.9452 1105.395,-230.147"/>
<polygon fill="#191970" stroke="#191970" points="1104.4652,-233.5286 1115.06,-233.4816 1106.7484,-226.9114 1104.4652,-233.5286"/>
</g>
<!-- Node34&#45;&gt;Node35 -->
<g id="edge15" class="edge">
<title>Node34&#45;&gt;Node35</title>
<path fill="none" stroke="#191970" d="M1038.175,-173.6152C1047.5366,-172.5905 1057.1307,-171.5404 1066.6156,-170.5023"/>
<polygon fill="#191970" stroke="#191970" points="1067.2889,-173.9496 1076.8487,-169.3822 1066.5273,-166.9911 1067.2889,-173.9496"/>
</g>
<!-- Node36&#45;&gt;Node24 -->
<g id="edge17" class="edge">
<title>Node36&#45;&gt;Node24</title>
<path fill="none" stroke="#191970" d="M1025.6106,-334.5192C1042.9788,-338.3212 1061.7646,-342.4336 1079.5771,-346.3328"/>
<polygon fill="#191970" stroke="#191970" points="1078.8404,-349.7543 1089.3576,-348.4738 1080.3374,-342.9163 1078.8404,-349.7543"/>
</g>
<!-- Node36&#45;&gt;Node33 -->
<g id="edge18" class="edge">
<title>Node36&#45;&gt;Node33</title>
<path fill="none" stroke="#191970" d="M999.6269,-304.4427C1030.6727,-293.4763 1072.8956,-278.5618 1105.9375,-266.8902"/>
<polygon fill="#191970" stroke="#191970" points="1107.1712,-270.1665 1115.4345,-263.5356 1104.8397,-263.5661 1107.1712,-270.1665"/>
</g>
<!-- Node37 -->
<g id="node16" class="node">
<title>Node37</title>
<g id="a_node16"><a xlink:href="classprecice_1_1com_1_1Request.html#ad07792939dd8a5e4e23791e21aeacff0" target="_top" xlink:title="precice::com::Request\l::wait">
<polygon fill="#ffffff" stroke="#000000" points="1096,-299.5 1096,-329.5 1220,-329.5 1220,-299.5 1096,-299.5"/>
<text text-anchor="start" x="1104" y="-317.5" font-family="Helvetica,sans-Serif" font-size="10.00" fill="#000000">precice::com::Request</text>
<text text-anchor="middle" x="1158" y="-306.5" font-family="Helvetica,sans-Serif" font-size="10.00" fill="#000000">::wait</text>
</a>
</g>
</g>
<!-- Node36&#45;&gt;Node37 -->
<g id="edge19" class="edge">
<title>Node36&#45;&gt;Node37</title>
<path fill="none" stroke="#191970" d="M1038.175,-317.4807C1053.7556,-317.0931 1069.9801,-316.6896 1085.2734,-316.3091"/>
<polygon fill="#191970" stroke="#191970" points="1085.7832,-319.7976 1095.693,-316.0499 1085.6091,-312.7998 1085.7832,-319.7976"/>
</g>
</g>
</svg>
        <g id="navigator" transform="translate(0 0)" fill="#404254">
                <rect fill="#f2f5e9" fill-opacity="0.5" stroke="#606060" stroke-width=".5" x="0" y="0" width="60" height="60"/>
                <use id="zoomplus" xlink:href="#zoomPlus" x="17" y="9" onmousedown="handleZoom(evt,'in')"/>
                <use id="zoomminus" xlink:href="#zoomMin" x="42" y="9" onmousedown="handleZoom(evt,'out')"/>
                <use id="reset" xlink:href="#resetDef" x="30" y="36" onmousedown="handleReset()"/>
                <g id="arrowUp" xlink:href="#dirArrow" transform="translate(30 24)" onmousedown="handlePan(0,-1)">
                  <use xlink:href="#rim" fill="#404040">
                        <set attributeName="fill" to="#808080" begin="arrowUp.mouseover" end="arrowUp.mouseout"/>
                  </use>
                  <path fill="none" stroke="white" stroke-width="1.5" d="M0,-3.0v7 M-2.5,-0.5L0,-3.0L2.5,-0.5"/>
                </g>
                <g id="arrowRight" xlink:href="#dirArrow" transform="rotate(90) translate(36 -43)" onmousedown="handlePan(1,0)">
                  <use xlink:href="#rim" fill="#404040">
                        <set attributeName="fill" to="#808080" begin="arrowRight.mouseover" end="arrowRight.mouseout"/>
                  </use>
                  <path fill="none" stroke="white" stroke-width="1.5" d="M0,-3.0v7 M-2.5,-0.5L0,-3.0L2.5,-0.5"/>
                </g>
                <g id="arrowDown" xlink:href="#dirArrow" transform="rotate(180) translate(-30 -48)" onmousedown="handlePan(0,1)">
                  <use xlink:href="#rim" fill="#404040">
                        <set attributeName="fill" to="#808080" begin="arrowDown.mouseover" end="arrowDown.mouseout"/>
                  </use>
                  <path fill="none" stroke="white" stroke-width="1.5" d="M0,-3.0v7 M-2.5,-0.5L0,-3.0L2.5,-0.5"/>
                </g>
                <g id="arrowLeft" xlink:href="#dirArrow" transform="rotate(270) translate(-36 17)" onmousedown="handlePan(-1,0)">
                  <use xlink:href="#rim" fill="#404040">
                        <set attributeName="fill" to="#808080" begin="arrowLeft.mouseover" end="arrowLeft.mouseout"/>
                  </use>
                  <path fill="none" stroke="white" stroke-width="1.5" d="M0,-3.0v7 M-2.5,-0.5L0,-3.0L2.5,-0.5"/>
                </g>
        </g>
        <svg viewBox="0 0 15 15" width="100%" height="30px" preserveAspectRatio="xMaxYMin meet">
         <g id="arrow_out" transform="scale(0.3 0.3)">
          <a xlink:href="classprecice_1_1com_1_1MPIPortsCommunication_a151bce97be137eebdcecc16314c7f925_cgraph_org.svg" target="_base">
           <rect id="button" ry="5" rx="5" y="6" x="6" height="38" width="38"
                fill="#f2f5e9" fill-opacity="0.5" stroke="#606060" stroke-width="1.0"/>
           <path id="arrow"
             d="M 11.500037,31.436501 C 11.940474,20.09759 22.043105,11.32322 32.158766,21.979434 L 37.068811,17.246167 C 37.068811,17.246167 37.088388,32 37.088388,32 L 22.160133,31.978069 C 22.160133,31.978069 26.997745,27.140456 26.997745,27.140456 C 18.528582,18.264221 13.291696,25.230495 11.500037,31.436501 z"
             style="fill:#404040;"/>
          </a>
         </g>
        </svg>
</svg>
