<?xml version="1.0" encoding="UTF-8" standalone="no"?>
<!DOCTYPE svg PUBLIC "-//W3C//DTD SVG 1.1//EN"
 "http://www.w3.org/Graphics/SVG/1.1/DTD/svg11.dtd">
<!-- Generated by graphviz version 2.40.1 (20161225.0304)
 -->
<!-- Title: precice::utils::Parallel::restrictCommunicator Pages: 1 -->
<svg width="874pt" height="281pt"
 viewBox="0.00 0.00 874.00 280.63" xmlns="http://www.w3.org/2000/svg" xmlns:xlink="http://www.w3.org/1999/xlink">
<g id="graph0" class="graph" transform="scale(1 1) rotate(0) translate(4 276.6342)">
<title>precice::utils::Parallel::restrictCommunicator</title>
<polygon fill="#ffffff" stroke="transparent" points="-4,4 -4,-276.6342 870,-276.6342 870,4 -4,4"/>
<!-- Node58 -->
<g id="node1" class="node">
<title>Node58</title>
<polygon fill="#bfbfbf" stroke="#000000" points="0,-131.5 0,-161.5 116,-161.5 116,-131.5 0,-131.5"/>
<text text-anchor="start" x="8" y="-149.5" font-family="Helvetica,sans-Serif" font-size="10.00" fill="#000000">precice::utils::Parallel</text>
<text text-anchor="middle" x="58" y="-138.5" font-family="Helvetica,sans-Serif" font-size="10.00" fill="#000000">::restrictCommunicator</text>
</g>
<!-- Node59 -->
<g id="node2" class="node">
<title>Node59</title>
<g id="a_node2"><a xlink:href="classprecice_1_1utils_1_1Parallel.html#a2aeadec30c9e48918e014608ede4d51d" target="_top" xlink:title="Returns an owning pointer to the current CommState. ">
<polygon fill="#ffffff" stroke="#000000" points="298,-175.5 298,-205.5 408,-205.5 408,-175.5 298,-175.5"/>
<text text-anchor="start" x="306" y="-193.5" font-family="Helvetica,sans-Serif" font-size="10.00" fill="#000000">precice::utils::Parallel</text>
<text text-anchor="middle" x="353" y="-182.5" font-family="Helvetica,sans-Serif" font-size="10.00" fill="#000000">::current</text>
</a>
</g>
</g>
<!-- Node58&#45;&gt;Node59 -->
<g id="edge1" class="edge">
<title>Node58&#45;&gt;Node59</title>
<path fill="none" stroke="#191970" d="M72.2288,-161.6009C89.2977,-178.5044 119.6802,-204.9112 152,-215.5 201.8082,-231.8185 261.7541,-220.66 303.1481,-208.4885"/>
<polygon fill="#191970" stroke="#191970" points="304.1935,-211.8289 312.7312,-205.5553 302.1447,-205.1354 304.1935,-211.8289"/>
</g>
<!-- Node61 -->
<g id="node4" class="node">
<title>Node61</title>
<g id="a_node4"><a xlink:href="structprecice_1_1utils_1_1Parallel_1_1CommState.html#a440432f97f08c595678e1102edb43b9f" target="_top" xlink:title="returns the commstate representing comm ">
<polygon fill="#ffffff" stroke="#000000" points="590,-131.5 590,-161.5 720,-161.5 720,-131.5 590,-131.5"/>
<text text-anchor="start" x="598" y="-149.5" font-family="Helvetica,sans-Serif" font-size="10.00" fill="#000000">precice::utils::Parallel</text>
<text text-anchor="middle" x="655" y="-138.5" font-family="Helvetica,sans-Serif" font-size="10.00" fill="#000000">::CommState::fromComm</text>
</a>
</g>
</g>
<!-- Node58&#45;&gt;Node61 -->
<g id="edge16" class="edge">
<title>Node58&#45;&gt;Node61</title>
<path fill="none" stroke="#191970" d="M116.0573,-146.5C224.6761,-146.5 458.5243,-146.5 579.3281,-146.5"/>
<polygon fill="#191970" stroke="#191970" points="579.5969,-150.0001 589.5969,-146.5 579.5969,-143.0001 579.5969,-150.0001"/>
</g>
<!-- Node62 -->
<g id="node5" class="node">
<title>Node62</title>
<g id="a_node5"><a xlink:href="structprecice_1_1utils_1_1Parallel_1_1CommState.html#a5e3626f4c22a0aa7ac05cd740dda95ca" target="_top" xlink:title="returns an blank commstate representing MPI_COMM_NULL ">
<polygon fill="#ffffff" stroke="#000000" points="756,-153.5 756,-183.5 866,-183.5 866,-153.5 756,-153.5"/>
<text text-anchor="start" x="764" y="-171.5" font-family="Helvetica,sans-Serif" font-size="10.00" fill="#000000">precice::utils::Parallel</text>
<text text-anchor="middle" x="811" y="-160.5" font-family="Helvetica,sans-Serif" font-size="10.00" fill="#000000">::CommState::null</text>
</a>
</g>
</g>
<!-- Node58&#45;&gt;Node62 -->
<g id="edge15" class="edge">
<title>Node58&#45;&gt;Node62</title>
<path fill="none" stroke="#191970" d="M69.8524,-161.8331C86.1098,-181.7101 117.2915,-215.9044 152,-233.5 233.1653,-274.6471 262.0006,-272.5 353,-272.5 353,-272.5 353,-272.5 499,-272.5 604.1967,-272.5 719.5793,-218.6313 775.9977,-188.4326"/>
<polygon fill="#191970" stroke="#191970" points="777.7407,-191.4689 784.86,-183.6225 774.4015,-185.3166 777.7407,-191.4689"/>
</g>
<!-- Node63 -->
<g id="node6" class="node">
<title>Node63</title>
<g id="a_node6"><a xlink:href="structprecice_1_1utils_1_1Parallel_1_1CommState.html#a396721a09366c6485e739368a4db043e" target="_top" xlink:title="Returns size of comm. ">
<polygon fill="#ffffff" stroke="#000000" points="152,-49.5 152,-79.5 262,-79.5 262,-49.5 152,-49.5"/>
<text text-anchor="start" x="160" y="-67.5" font-family="Helvetica,sans-Serif" font-size="10.00" fill="#000000">precice::utils::Parallel</text>
<text text-anchor="middle" x="207" y="-56.5" font-family="Helvetica,sans-Serif" font-size="10.00" fill="#000000">::CommState::size</text>
</a>
</g>
</g>
<!-- Node58&#45;&gt;Node63 -->
<g id="edge6" class="edge">
<title>Node58&#45;&gt;Node63</title>
<path fill="none" stroke="#191970" d="M85.1253,-131.4388C103.8893,-121.0339 129.4422,-106.8914 152,-94.5 157.9567,-91.2279 164.2822,-87.7658 170.4416,-84.4015"/>
<polygon fill="#191970" stroke="#191970" points="172.1832,-87.4384 179.2847,-79.5758 168.83,-81.2938 172.1832,-87.4384"/>
</g>
<!-- Node65 -->
<g id="node8" class="node">
<title>Node65</title>
<g id="a_node8"><a xlink:href="structprecice_1_1utils_1_1Parallel_1_1CommState.html#a3d141f16b3b113ca455511a561edde2f" target="_top" xlink:title="Returns the current rank in comm. ">
<polygon fill="#ffffff" stroke="#000000" points="152,-.5 152,-30.5 262,-30.5 262,-.5 152,-.5"/>
<text text-anchor="start" x="160" y="-18.5" font-family="Helvetica,sans-Serif" font-size="10.00" fill="#000000">precice::utils::Parallel</text>
<text text-anchor="middle" x="207" y="-7.5" font-family="Helvetica,sans-Serif" font-size="10.00" fill="#000000">::CommState::rank</text>
</a>
</g>
</g>
<!-- Node58&#45;&gt;Node65 -->
<g id="edge8" class="edge">
<title>Node58&#45;&gt;Node65</title>
<path fill="none" stroke="#191970" d="M68.2546,-131.3456C84.0243,-108.9826 116.1843,-66.943 152,-40.5 154.3337,-38.777 156.805,-37.1346 159.3571,-35.5753"/>
<polygon fill="#191970" stroke="#191970" points="161.2403,-38.5324 168.262,-30.5984 157.8253,-32.4219 161.2403,-38.5324"/>
</g>
<!-- Node67 -->
<g id="node10" class="node">
<title>Node67</title>
<g id="a_node10"><a xlink:href="classprecice_1_1utils_1_1Parallel.html#a603b416754124be0703ca4cdbe886456" target="_top" xlink:title="precice::utils::Parallel\l::pushState">
<polygon fill="#ffffff" stroke="#000000" points="152,-175.5 152,-205.5 262,-205.5 262,-175.5 152,-175.5"/>
<text text-anchor="start" x="160" y="-193.5" font-family="Helvetica,sans-Serif" font-size="10.00" fill="#000000">precice::utils::Parallel</text>
<text text-anchor="middle" x="207" y="-182.5" font-family="Helvetica,sans-Serif" font-size="10.00" fill="#000000">::pushState</text>
</a>
</g>
</g>
<!-- Node58&#45;&gt;Node67 -->
<g id="edge10" class="edge">
<title>Node58&#45;&gt;Node67</title>
<path fill="none" stroke="#191970" d="M108.8606,-161.5192C120.9011,-165.0748 133.8606,-168.9018 146.2895,-172.5721"/>
<polygon fill="#191970" stroke="#191970" points="145.534,-175.9983 156.1158,-175.4738 147.5165,-169.2849 145.534,-175.9983"/>
</g>
<!-- Node68 -->
<g id="node11" class="node">
<title>Node68</title>
<g id="a_node11"><a xlink:href="structprecice_1_1utils_1_1Parallel_1_1CommState.html#a5aeab98252b402e46ac1d015e4f7c273" target="_top" xlink:title="returns the commstate representing MPI_COMM_SELF ">
<polygon fill="#ffffff" stroke="#000000" points="444,-87.5 444,-117.5 554,-117.5 554,-87.5 444,-87.5"/>
<text text-anchor="start" x="452" y="-105.5" font-family="Helvetica,sans-Serif" font-size="10.00" fill="#000000">precice::utils::Parallel</text>
<text text-anchor="middle" x="499" y="-94.5" font-family="Helvetica,sans-Serif" font-size="10.00" fill="#000000">::CommState::self</text>
</a>
</g>
</g>
<!-- Node58&#45;&gt;Node68 -->
<g id="edge12" class="edge">
<title>Node58&#45;&gt;Node68</title>
<path fill="none" stroke="#191970" d="M116.0917,-137.2765C127.9541,-135.5541 140.3655,-133.868 152,-132.5 249.821,-120.998 363.6431,-111.9874 433.5006,-106.9543"/>
<polygon fill="#191970" stroke="#191970" points="434.1782,-110.4149 443.9033,-106.2109 433.6792,-103.4327 434.1782,-110.4149"/>
</g>
<!-- Node60 -->
<g id="node3" class="node">
<title>Node60</title>
<g id="a_node3"><a xlink:href="structprecice_1_1utils_1_1Parallel_1_1CommState.html#a11c87f5cfaad1fb984d9dcd80e6f2c55" target="_top" xlink:title="returns a commstate containing MPI_COMM_WORLD ">
<polygon fill="#ffffff" stroke="#000000" points="444,-175.5 444,-205.5 554,-205.5 554,-175.5 444,-175.5"/>
<text text-anchor="start" x="452" y="-193.5" font-family="Helvetica,sans-Serif" font-size="10.00" fill="#000000">precice::utils::Parallel</text>
<text text-anchor="middle" x="499" y="-182.5" font-family="Helvetica,sans-Serif" font-size="10.00" fill="#000000">::CommState::world</text>
</a>
</g>
</g>
<!-- Node59&#45;&gt;Node60 -->
<g id="edge2" class="edge">
<title>Node59&#45;&gt;Node60</title>
<path fill="none" stroke="#191970" d="M408.1963,-190.5C416.4633,-190.5 425.0546,-190.5 433.5101,-190.5"/>
<polygon fill="#191970" stroke="#191970" points="433.7256,-194.0001 443.7256,-190.5 433.7256,-187.0001 433.7256,-194.0001"/>
</g>
<!-- Node60&#45;&gt;Node61 -->
<g id="edge3" class="edge">
<title>Node60&#45;&gt;Node61</title>
<path fill="none" stroke="#191970" d="M552.25,-175.4808C564.981,-171.89 578.6933,-168.0224 591.8237,-164.319"/>
<polygon fill="#191970" stroke="#191970" points="593.0509,-167.6095 601.7253,-161.5262 591.1506,-160.8723 593.0509,-167.6095"/>
</g>
<!-- Node60&#45;&gt;Node62 -->
<g id="edge5" class="edge">
<title>Node60&#45;&gt;Node62</title>
<path fill="none" stroke="#191970" d="M554.0611,-186.6175C607.5851,-182.8434 688.8912,-177.1102 745.6627,-173.1071"/>
<polygon fill="#191970" stroke="#191970" points="746.2364,-176.5754 755.9654,-172.3806 745.744,-169.5928 746.2364,-176.5754"/>
</g>
<!-- Node61&#45;&gt;Node62 -->
<g id="edge4" class="edge">
<title>Node61&#45;&gt;Node62</title>
<path fill="none" stroke="#191970" d="M720.2542,-155.7025C728.683,-156.8912 737.3159,-158.1086 745.7447,-159.2973"/>
<polygon fill="#191970" stroke="#191970" points="745.5065,-162.7983 755.8974,-160.7291 746.4841,-155.8669 745.5065,-162.7983"/>
</g>
<!-- Node64 -->
<g id="node7" class="node">
<title>Node64</title>
<g id="a_node7"><a xlink:href="MPI__Mock_8hpp.html#af02c1da1e2be331e53ac3e5f8ccfedb6" target="_top" xlink:title="MPI_Comm_size">
<polygon fill="#ffffff" stroke="#000000" points="307,-55 307,-74 399,-74 399,-55 307,-55"/>
<text text-anchor="middle" x="353" y="-62" font-family="Helvetica,sans-Serif" font-size="10.00" fill="#000000">MPI_Comm_size</text>
</a>
</g>
</g>
<!-- Node63&#45;&gt;Node64 -->
<g id="edge7" class="edge">
<title>Node63&#45;&gt;Node64</title>
<path fill="none" stroke="#191970" d="M262.1963,-64.5C273.4485,-64.5 285.3017,-64.5 296.5954,-64.5"/>
<polygon fill="#191970" stroke="#191970" points="296.7765,-68.0001 306.7765,-64.5 296.7765,-61.0001 296.7765,-68.0001"/>
</g>
<!-- Node66 -->
<g id="node9" class="node">
<title>Node66</title>
<g id="a_node9"><a xlink:href="MPI__Mock_8hpp.html#a3199e776e016cbaaed648c2e8c32dd04" target="_top" xlink:title="MPI_Comm_rank">
<polygon fill="#ffffff" stroke="#000000" points="306.5,-6 306.5,-25 399.5,-25 399.5,-6 306.5,-6"/>
<text text-anchor="middle" x="353" y="-13" font-family="Helvetica,sans-Serif" font-size="10.00" fill="#000000">MPI_Comm_rank</text>
</a>
</g>
</g>
<!-- Node65&#45;&gt;Node66 -->
<g id="edge9" class="edge">
<title>Node65&#45;&gt;Node66</title>
<path fill="none" stroke="#191970" d="M262.1963,-15.5C273.3249,-15.5 285.0413,-15.5 296.2229,-15.5"/>
<polygon fill="#191970" stroke="#191970" points="296.3091,-19.0001 306.3091,-15.5 296.309,-12.0001 296.3091,-19.0001"/>
</g>
<!-- Node67&#45;&gt;Node59 -->
<g id="edge11" class="edge">
<title>Node67&#45;&gt;Node59</title>
<path fill="none" stroke="#191970" d="M262.1963,-190.5C270.4633,-190.5 279.0546,-190.5 287.5101,-190.5"/>
<polygon fill="#191970" stroke="#191970" points="287.7256,-194.0001 297.7256,-190.5 287.7256,-187.0001 287.7256,-194.0001"/>
</g>
<!-- Node68&#45;&gt;Node61 -->
<g id="edge13" class="edge">
<title>Node68&#45;&gt;Node61</title>
<path fill="none" stroke="#191970" d="M552.25,-117.5192C564.981,-121.11 578.6933,-124.9776 591.8237,-128.681"/>
<polygon fill="#191970" stroke="#191970" points="591.1506,-132.1277 601.7253,-131.4738 593.0509,-125.3905 591.1506,-132.1277"/>
</g>
<!-- Node68&#45;&gt;Node62 -->
<g id="edge14" class="edge">
<title>Node68&#45;&gt;Node62</title>
<path fill="none" stroke="#191970" d="M554.0886,-101.7795C599.4484,-102.5317 665.0051,-106.737 720,-122.5 740.3887,-128.3439 761.6255,-138.7936 778.4507,-148.2578"/>
<polygon fill="#191970" stroke="#191970" points="776.9013,-151.4049 787.3107,-153.3788 780.4043,-145.3444 776.9013,-151.4049"/>
</g>
</g>
</svg>
