<?xml version="1.0" encoding="UTF-8" standalone="no"?>
<!DOCTYPE svg PUBLIC "-//W3C//DTD SVG 1.1//EN"
 "http://www.w3.org/Graphics/SVG/1.1/DTD/svg11.dtd">
<!-- Generated by graphviz version 2.40.1 (20161225.0304)
 -->
<!-- Title: precice::m2n::PointToPointCommunication::acceptConnection Pages: 1 -->
<!--zoomable 503 -->
<svg id="main" version="1.1" xmlns="http://www.w3.org/2000/svg" xmlns:xlink="http://www.w3.org/1999/xlink" xml:space="preserve" onload="init(evt)">
<style type="text/css"><![CDATA[
.edge:hover path { stroke: red; }
.edge:hover polygon { stroke: red; fill: red; }
]]></style>
<script type="text/javascript"><![CDATA[
var edges = document.getElementsByTagName('g');
if (edges && edges.length) {
  for (var i=0;i<edges.length;i++) {
    if (edges[i].id.substr(0,4)=='edge') {
      edges[i].setAttribute('class','edge');
    }
  }
}
]]></script>
        <defs>
                <circle id="rim" cx="0" cy="0" r="7"/>
                <circle id="rim2" cx="0" cy="0" r="3.5"/>
                <g id="zoomPlus">
                        <use xlink:href="#rim" fill="#404040">
                                <set attributeName="fill" to="#808080" begin="zoomplus.mouseover" end="zoomplus.mouseout"/>
                        </use>
                        <path d="M-4,0h8M0,-4v8" fill="none" stroke="white" stroke-width="1.5" pointer-events="none"/>
                </g>
                <g id="zoomMin">
                        <use xlink:href="#rim" fill="#404040">
                                <set attributeName="fill" to="#808080" begin="zoomminus.mouseover" end="zoomminus.mouseout"/>
                        </use>
                        <path d="M-4,0h8" fill="none" stroke="white" stroke-width="1.5" pointer-events="none"/>
                </g>
                <g id="dirArrow">
                        <path fill="none" stroke="white" stroke-width="1.5" d="M0,-3.0v7 M-2.5,-0.5L0,-3.0L2.5,-0.5"/>
                </g>
               <g id="resetDef">
                       <use xlink:href="#rim2" fill="#404040">
                               <set attributeName="fill" to="#808080" begin="reset.mouseover" end="reset.mouseout"/>
                       </use>
               </g>
        </defs>

<script type="text/javascript">
var viewWidth = 596;
var viewHeight = 503;
var sectionId = 'dynsection-3';
</script>
<script xlink:href="svgpan.js"/>
<svg id="graph" class="graph">
<g id="viewport">
<title>precice::m2n::PointToPointCommunication::acceptConnection</title>
<polygon fill="#ffffff" stroke="transparent" points="-4,4 -4,-499 592,-499 592,4 -4,4"/>
<!-- Node5 -->
<g id="node1" class="node">
<title>Node5</title>
<polygon fill="#bfbfbf" stroke="#000000" points="0,-227.5 0,-257.5 170,-257.5 170,-227.5 0,-227.5"/>
<text text-anchor="start" x="8" y="-245.5" font-family="Helvetica,sans-Serif" font-size="10.00" fill="#000000">precice::m2n::PointToPoint</text>
<text text-anchor="middle" x="85" y="-234.5" font-family="Helvetica,sans-Serif" font-size="10.00" fill="#000000">Communication::acceptConnection</text>
</g>
<!-- Node6 -->
<g id="node2" class="node">
<title>Node6</title>
<g id="a_node2"><a xlink:href="classprecice_1_1m2n_1_1PointToPointCommunication.html#a3a8e2e7fc421ffb7a8a8e0730f875909" target="_top" xlink:title="Returns true, if a connection to a remote participant has been established. ">
<polygon fill="#ffffff" stroke="#000000" points="226,-464.5 226,-494.5 372,-494.5 372,-464.5 226,-464.5"/>
<text text-anchor="start" x="234" y="-482.5" font-family="Helvetica,sans-Serif" font-size="10.00" fill="#000000">precice::m2n::PointToPoint</text>
<text text-anchor="middle" x="299" y="-471.5" font-family="Helvetica,sans-Serif" font-size="10.00" fill="#000000">Communication::isConnected</text>
</a>
</g>
</g>
<!-- Node5&#45;&gt;Node6 -->
<g id="edge1" class="edge">
<title>Node5&#45;&gt;Node6</title>
<path fill="none" stroke="#191970" d="M89.0831,-257.6074C100.4755,-296.775 136.4336,-402.2447 206,-455.5 209.3515,-458.0657 212.9494,-460.3586 216.7124,-462.4077"/>
<polygon fill="#191970" stroke="#191970" points="215.225,-465.5761 225.7535,-466.7598 218.2611,-459.2688 215.225,-465.5761"/>
</g>
<!-- Node7 -->
<g id="node3" class="node">
<title>Node7</title>
<g id="a_node3"><a xlink:href="classprecice_1_1utils_1_1MasterSlave.html#a3837ad42361b53d7e930443ba07a9eb5" target="_top" xlink:title="True if this process is running a slave. ">
<polygon fill="#ffffff" stroke="#000000" points="441.5,-317.5 441.5,-347.5 574.5,-347.5 574.5,-317.5 441.5,-317.5"/>
<text text-anchor="start" x="449.5" y="-335.5" font-family="Helvetica,sans-Serif" font-size="10.00" fill="#000000">precice::utils::MasterSlave</text>
<text text-anchor="middle" x="508" y="-324.5" font-family="Helvetica,sans-Serif" font-size="10.00" fill="#000000">::isSlave</text>
</a>
</g>
</g>
<!-- Node5&#45;&gt;Node7 -->
<g id="edge2" class="edge">
<title>Node5&#45;&gt;Node7</title>
<path fill="none" stroke="#191970" d="M102.3819,-257.5582C124.6582,-275.822 165.2831,-305.7451 206,-318.5 279.8964,-341.6486 368.9236,-342.7654 431.0975,-339.5563"/>
<polygon fill="#191970" stroke="#191970" points="431.438,-343.0427 441.2242,-338.9832 431.0424,-336.0539 431.438,-343.0427"/>
</g>
<!-- Node8 -->
<g id="node4" class="node">
<title>Node8</title>
<g id="a_node4"><a xlink:href="classprecice_1_1utils_1_1MasterSlave.html#af0deae7c83eae7f8e6908a2879bfb0e3" target="_top" xlink:title="Current rank. ">
<polygon fill="#ffffff" stroke="#000000" points="441.5,-264.5 441.5,-294.5 574.5,-294.5 574.5,-264.5 441.5,-264.5"/>
<text text-anchor="start" x="449.5" y="-282.5" font-family="Helvetica,sans-Serif" font-size="10.00" fill="#000000">precice::utils::MasterSlave</text>
<text text-anchor="middle" x="508" y="-271.5" font-family="Helvetica,sans-Serif" font-size="10.00" fill="#000000">::getRank</text>
</a>
</g>
</g>
<!-- Node5&#45;&gt;Node8 -->
<g id="edge3" class="edge">
<title>Node5&#45;&gt;Node8</title>
<path fill="none" stroke="#191970" d="M170.0915,-249.943C246.4751,-256.6243 357.6035,-266.3448 431.2978,-272.7908"/>
<polygon fill="#191970" stroke="#191970" points="431.1735,-276.2932 441.4405,-273.678 431.7835,-269.3199 431.1735,-276.2932"/>
</g>
<!-- Node9 -->
<g id="node5" class="node">
<title>Node9</title>
<g id="a_node5"><a xlink:href="namespaceprecice_1_1m2n.html#a1d2547b4c4f5e9a91074e299555b218e" target="_top" xlink:title="precice::m2n::send">
<polygon fill="#ffffff" stroke="#000000" points="249,-176 249,-195 349,-195 349,-176 249,-176"/>
<text text-anchor="middle" x="299" y="-183" font-family="Helvetica,sans-Serif" font-size="10.00" fill="#000000">precice::m2n::send</text>
</a>
</g>
</g>
<!-- Node5&#45;&gt;Node9 -->
<g id="edge4" class="edge">
<title>Node5&#45;&gt;Node9</title>
<path fill="none" stroke="#191970" d="M129.2212,-227.4119C151.9976,-219.9474 180.3117,-211.139 206,-204.5 216.5054,-201.7849 227.7591,-199.2096 238.681,-196.8817"/>
<polygon fill="#191970" stroke="#191970" points="239.512,-200.2838 248.5872,-194.8165 238.0833,-193.4311 239.512,-200.2838"/>
</g>
<!-- Node10 -->
<g id="node6" class="node">
<title>Node10</title>
<g id="a_node6"><a xlink:href="namespaceprecice_1_1m2n.html#abbc7dfdfd94e39ff9da8d2acfca89427" target="_top" xlink:title="precice::m2n::receive">
<polygon fill="#ffffff" stroke="#000000" points="244,-138 244,-157 354,-157 354,-138 244,-138"/>
<text text-anchor="middle" x="299" y="-145" font-family="Helvetica,sans-Serif" font-size="10.00" fill="#000000">precice::m2n::receive</text>
</a>
</g>
</g>
<!-- Node5&#45;&gt;Node10 -->
<g id="edge5" class="edge">
<title>Node5&#45;&gt;Node10</title>
<path fill="none" stroke="#191970" d="M104.3504,-227.2287C127.294,-209.8894 167.3155,-182.0039 206,-166.5 214.8553,-162.951 224.4613,-160.0355 234.0258,-157.6485"/>
<polygon fill="#191970" stroke="#191970" points="234.9941,-161.0169 243.9447,-155.3479 233.4124,-154.1979 234.9941,-161.0169"/>
</g>
<!-- Node11 -->
<g id="node7" class="node">
<title>Node11</title>
<g id="a_node7"><a xlink:href="namespaceprecice_1_1m2n.html#aa813de0fcc36c35218621fe3cebb537f" target="_top" xlink:title="precice::m2n::broadcast">
<polygon fill="#ffffff" stroke="#000000" points="238,-214 238,-233 360,-233 360,-214 238,-214"/>
<text text-anchor="middle" x="299" y="-221" font-family="Helvetica,sans-Serif" font-size="10.00" fill="#000000">precice::m2n::broadcast</text>
</a>
</g>
</g>
<!-- Node5&#45;&gt;Node11 -->
<g id="edge6" class="edge">
<title>Node5&#45;&gt;Node11</title>
<path fill="none" stroke="#191970" d="M170.1934,-234.9361C189.2725,-233.2422 209.3175,-231.4625 227.7609,-229.825"/>
<polygon fill="#191970" stroke="#191970" points="228.1749,-233.3021 237.8261,-228.9313 227.5558,-226.3295 228.1749,-233.3021"/>
</g>
<!-- Node15 -->
<g id="node11" class="node">
<title>Node15</title>
<g id="a_node11"><a xlink:href="classprecice_1_1utils_1_1Event.html#ab228ebbfcd934048c62a2622b4e1b5a9" target="_top" xlink:title="Stops an event and commit it. If it&#39;s already stopped it has no effect. ">
<polygon fill="#ffffff" stroke="#000000" points="247,-88.5 247,-118.5 351,-118.5 351,-88.5 247,-88.5"/>
<text text-anchor="start" x="255" y="-106.5" font-family="Helvetica,sans-Serif" font-size="10.00" fill="#000000">precice::utils::Event</text>
<text text-anchor="middle" x="299" y="-95.5" font-family="Helvetica,sans-Serif" font-size="10.00" fill="#000000">::stop</text>
</a>
</g>
</g>
<!-- Node5&#45;&gt;Node15 -->
<g id="edge11" class="edge">
<title>Node5&#45;&gt;Node15</title>
<path fill="none" stroke="#191970" d="M96.6791,-227.4596C116.4904,-202.9889 159.1254,-154.6653 206,-128.5 215.5005,-123.1968 226.1808,-118.9743 236.8269,-115.6258"/>
<polygon fill="#191970" stroke="#191970" points="237.9378,-118.9477 246.5597,-112.7903 235.9798,-112.2271 237.9378,-118.9477"/>
</g>
<!-- Node19 -->
<g id="node15" class="node">
<title>Node19</title>
<g id="a_node15"><a xlink:href="namespaceprecice_1_1m2n.html#a56e186c4fe1111a0b22e1395ff2d0e31" target="_top" xlink:title="precice::m2n::buildCommunicationMap">
<polygon fill="#ffffff" stroke="#000000" points="206,-50 206,-69 392,-69 392,-50 206,-50"/>
<text text-anchor="middle" x="299" y="-57" font-family="Helvetica,sans-Serif" font-size="10.00" fill="#000000">precice::m2n::buildCommunicationMap</text>
</a>
</g>
</g>
<!-- Node5&#45;&gt;Node19 -->
<g id="edge15" class="edge">
<title>Node5&#45;&gt;Node19</title>
<path fill="none" stroke="#191970" d="M91.4988,-227.3658C106.4579,-194.4757 146.6568,-116.3981 206,-78.5 209.1727,-76.4738 212.5197,-74.658 215.9847,-73.031"/>
<polygon fill="#191970" stroke="#191970" points="217.4829,-76.1992 225.3933,-69.151 214.8141,-69.7279 217.4829,-76.1992"/>
</g>
<!-- Node20 -->
<g id="node16" class="node">
<title>Node20</title>
<g id="a_node16"><a xlink:href="namespaceprecice_1_1m2n.html#ab808ce4e50980cc9ea6f0aeb928f30b3" target="_top" xlink:title="precice::m2n::print">
<polygon fill="#ffffff" stroke="#000000" points="250,-290 250,-309 348,-309 348,-290 250,-290"/>
<text text-anchor="middle" x="299" y="-297" font-family="Helvetica,sans-Serif" font-size="10.00" fill="#000000">precice::m2n::print</text>
</a>
</g>
</g>
<!-- Node5&#45;&gt;Node20 -->
<g id="edge16" class="edge">
<title>Node5&#45;&gt;Node20</title>
<path fill="none" stroke="#191970" d="M139.4689,-257.5255C160.2703,-263.2189 184.2177,-269.7194 206,-275.5 220.7973,-279.427 236.9429,-283.6242 251.5662,-287.3926"/>
<polygon fill="#191970" stroke="#191970" points="250.855,-290.8236 261.4116,-289.9245 252.5985,-284.0441 250.855,-290.8236"/>
</g>
<!-- Node22 -->
<g id="node18" class="node">
<title>Node22</title>
<g id="a_node18"><a xlink:href="namespaceprecice_1_1m2n.html#a42972d70838897c3c8fa06ee01182430" target="_top" xlink:title="precice::m2n::printCommunication\lPartnerCountStats">
<polygon fill="#ffffff" stroke="#000000" points="216,-366.5 216,-396.5 382,-396.5 382,-366.5 216,-366.5"/>
<text text-anchor="start" x="224" y="-384.5" font-family="Helvetica,sans-Serif" font-size="10.00" fill="#000000">precice::m2n::printCommunication</text>
<text text-anchor="middle" x="299" y="-373.5" font-family="Helvetica,sans-Serif" font-size="10.00" fill="#000000">PartnerCountStats</text>
</a>
</g>
</g>
<!-- Node5&#45;&gt;Node22 -->
<g id="edge20" class="edge">
<title>Node5&#45;&gt;Node22</title>
<path fill="none" stroke="#191970" d="M97.969,-257.7343C118.6,-281.0707 161.1669,-325.6719 206,-351.5 213.4764,-355.8071 221.6528,-359.587 229.956,-362.879"/>
<polygon fill="#191970" stroke="#191970" points="228.7614,-366.1689 239.3539,-366.3907 231.2116,-359.6117 228.7614,-366.1689"/>
</g>
<!-- Node23 -->
<g id="node19" class="node">
<title>Node23</title>
<g id="a_node19"><a xlink:href="namespaceprecice_1_1m2n.html#aa642bf13b94e1129492f8df64cc93c79" target="_top" xlink:title="precice::m2n::printLocal\lIndexCountStats">
<polygon fill="#ffffff" stroke="#000000" points="238.5,-415.5 238.5,-445.5 359.5,-445.5 359.5,-415.5 238.5,-415.5"/>
<text text-anchor="start" x="246.5" y="-433.5" font-family="Helvetica,sans-Serif" font-size="10.00" fill="#000000">precice::m2n::printLocal</text>
<text text-anchor="middle" x="299" y="-422.5" font-family="Helvetica,sans-Serif" font-size="10.00" fill="#000000">IndexCountStats</text>
</a>
</g>
</g>
<!-- Node5&#45;&gt;Node23 -->
<g id="edge24" class="edge">
<title>Node5&#45;&gt;Node23</title>
<path fill="none" stroke="#191970" d="M91.8773,-257.9034C107.3069,-290.6311 147.9361,-367.2984 206,-406.5 212.9532,-411.1944 220.7654,-414.9706 228.8305,-418.0082"/>
<polygon fill="#191970" stroke="#191970" points="227.7838,-421.3489 238.3781,-421.2455 230.0316,-414.7196 227.7838,-421.3489"/>
</g>
<!-- Node24 -->
<g id="node20" class="node">
<title>Node24</title>
<g id="a_node20"><a xlink:href="classprecice_1_1utils_1_1Event.html#a7e0e50d9cc424fb7a9ceb05527b81e3f" target="_top" xlink:title="Adds named integer data, associated to an event. ">
<polygon fill="#ffffff" stroke="#000000" points="247,-.5 247,-30.5 351,-30.5 351,-.5 247,-.5"/>
<text text-anchor="start" x="255" y="-18.5" font-family="Helvetica,sans-Serif" font-size="10.00" fill="#000000">precice::utils::Event</text>
<text text-anchor="middle" x="299" y="-7.5" font-family="Helvetica,sans-Serif" font-size="10.00" fill="#000000">::addData</text>
</a>
</g>
</g>
<!-- Node5&#45;&gt;Node24 -->
<g id="edge28" class="edge">
<title>Node5&#45;&gt;Node24</title>
<path fill="none" stroke="#191970" d="M89.6211,-227.3814C101.9461,-189.6731 139.2894,-90.8837 206,-40.5 215.0805,-33.6419 225.9065,-28.6633 236.9078,-25.0496"/>
<polygon fill="#191970" stroke="#191970" points="237.9706,-28.3854 246.5813,-22.2124 236.0004,-21.6684 237.9706,-28.3854"/>
</g>
<!-- Node11&#45;&gt;Node7 -->
<g id="edge9" class="edge">
<title>Node11&#45;&gt;Node7</title>
<path fill="none" stroke="#191970" d="M315.2449,-233.2C333.8981,-244.3972 365.3566,-263.4627 392,-280.5 408.2005,-290.8595 410.7893,-295.9228 428,-304.5 434.6097,-307.7941 441.7026,-310.8727 448.835,-313.6938"/>
<polygon fill="#191970" stroke="#191970" points="447.9527,-317.1024 458.544,-317.3771 450.4357,-310.5576 447.9527,-317.1024"/>
</g>
<!-- Node12 -->
<g id="node8" class="node">
<title>Node12</title>
<g id="a_node8"><a xlink:href="classprecice_1_1utils_1_1MasterSlave.html#a5e934392c32335daa8e2b4a01bc75fd3" target="_top" xlink:title="True if this process is running the master. ">
<polygon fill="#ffffff" stroke="#000000" points="441.5,-366.5 441.5,-396.5 574.5,-396.5 574.5,-366.5 441.5,-366.5"/>
<text text-anchor="start" x="449.5" y="-384.5" font-family="Helvetica,sans-Serif" font-size="10.00" fill="#000000">precice::utils::MasterSlave</text>
<text text-anchor="middle" x="508" y="-373.5" font-family="Helvetica,sans-Serif" font-size="10.00" fill="#000000">::isMaster</text>
</a>
</g>
</g>
<!-- Node11&#45;&gt;Node12 -->
<g id="edge7" class="edge">
<title>Node11&#45;&gt;Node12</title>
<path fill="none" stroke="#191970" d="M322.2735,-233.078C342.8626,-242.5422 372.5706,-258.7516 392,-280.5 417.1686,-308.6727 399.4114,-332.8048 428,-357.5 429.5225,-358.8152 431.1151,-360.0583 432.7655,-361.2333"/>
<polygon fill="#191970" stroke="#191970" points="431.0905,-364.3119 441.4443,-366.5591 434.7517,-358.3457 431.0905,-364.3119"/>
</g>
<!-- Node13 -->
<g id="node9" class="node">
<title>Node13</title>
<g id="a_node9"><a xlink:href="namespaceprecice_1_1m2n.html#a787589a3c856668fa2529bc4ccdcb20c" target="_top" xlink:title="precice::m2n::broadcastSend">
<polygon fill="#ffffff" stroke="#000000" points="436,-218 436,-237 580,-237 580,-218 436,-218"/>
<text text-anchor="middle" x="508" y="-225" font-family="Helvetica,sans-Serif" font-size="10.00" fill="#000000">precice::m2n::broadcastSend</text>
</a>
</g>
</g>
<!-- Node11&#45;&gt;Node13 -->
<g id="edge8" class="edge">
<title>Node11&#45;&gt;Node13</title>
<path fill="none" stroke="#191970" d="M360.0133,-224.6677C380.504,-225.0599 403.7098,-225.504 425.5663,-225.9223"/>
<polygon fill="#191970" stroke="#191970" points="425.7677,-229.4267 435.8329,-226.1188 425.9017,-222.428 425.7677,-229.4267"/>
</g>
<!-- Node14 -->
<g id="node10" class="node">
<title>Node14</title>
<g id="a_node10"><a xlink:href="namespaceprecice_1_1m2n.html#a4fc4685153836a0219ed4085e566cae4" target="_top" xlink:title="precice::m2n::broadcastReceive">
<polygon fill="#ffffff" stroke="#000000" points="429,-180 429,-199 587,-199 587,-180 429,-180"/>
<text text-anchor="middle" x="508" y="-187" font-family="Helvetica,sans-Serif" font-size="10.00" fill="#000000">precice::m2n::broadcastReceive</text>
</a>
</g>
</g>
<!-- Node11&#45;&gt;Node14 -->
<g id="edge10" class="edge">
<title>Node11&#45;&gt;Node14</title>
<path fill="none" stroke="#191970" d="M357.4961,-213.9839C382.9813,-209.838 413.0274,-204.9501 439.5447,-200.6363"/>
<polygon fill="#191970" stroke="#191970" points="440.2098,-204.0742 449.5181,-199.0138 439.0858,-197.165 440.2098,-204.0742"/>
</g>
<!-- Node16 -->
<g id="node12" class="node">
<title>Node16</title>
<g id="a_node12"><a xlink:href="MPI__Mock_8hpp.html#a38a750883860adf3d7cee6f56442261a" target="_top" xlink:title="MPI_Barrier">
<polygon fill="#ffffff" stroke="#000000" points="474,-138 474,-157 542,-157 542,-138 474,-138"/>
<text text-anchor="middle" x="508" y="-145" font-family="Helvetica,sans-Serif" font-size="10.00" fill="#000000">MPI_Barrier</text>
</a>
</g>
</g>
<!-- Node15&#45;&gt;Node16 -->
<g id="edge12" class="edge">
<title>Node15&#45;&gt;Node16</title>
<path fill="none" stroke="#191970" d="M351.2004,-114.4896C385.9347,-121.802 431.0555,-131.3012 463.9717,-138.2309"/>
<polygon fill="#191970" stroke="#191970" points="463.2637,-141.6585 473.7703,-140.2938 464.7059,-134.8086 463.2637,-141.6585"/>
</g>
<!-- Node17 -->
<g id="node13" class="node">
<title>Node17</title>
<g id="a_node13"><a xlink:href="classprecice_1_1utils_1_1EventRegistry.html#ab22976bb8c5bd6a86f052f4705a48cb1" target="_top" xlink:title="Returns the only instance (singleton) of the EventRegistry class. ">
<polygon fill="#ffffff" stroke="#000000" points="438,-88.5 438,-118.5 578,-118.5 578,-88.5 438,-88.5"/>
<text text-anchor="start" x="446" y="-106.5" font-family="Helvetica,sans-Serif" font-size="10.00" fill="#000000">precice::utils::EventRegistry</text>
<text text-anchor="middle" x="508" y="-95.5" font-family="Helvetica,sans-Serif" font-size="10.00" fill="#000000">::instance</text>
</a>
</g>
</g>
<!-- Node15&#45;&gt;Node17 -->
<g id="edge13" class="edge">
<title>Node15&#45;&gt;Node17</title>
<path fill="none" stroke="#191970" d="M351.2004,-103.5C374.3626,-103.5 402.1434,-103.5 427.8439,-103.5"/>
<polygon fill="#191970" stroke="#191970" points="427.9531,-107.0001 437.953,-103.5 427.953,-100.0001 427.9531,-107.0001"/>
</g>
<!-- Node18 -->
<g id="node14" class="node">
<title>Node18</title>
<g id="a_node14"><a xlink:href="classprecice_1_1utils_1_1EventRegistry.html#ae2cd83819174207b743e580c381dd022" target="_top" xlink:title="Records the event. ">
<polygon fill="#ffffff" stroke="#000000" points="428,-50 428,-69 588,-69 588,-50 428,-50"/>
<text text-anchor="middle" x="508" y="-57" font-family="Helvetica,sans-Serif" font-size="10.00" fill="#000000">precice::utils::EventRegistry::put</text>
</a>
</g>
</g>
<!-- Node15&#45;&gt;Node18 -->
<g id="edge14" class="edge">
<title>Node15&#45;&gt;Node18</title>
<path fill="none" stroke="#191970" d="M351.2004,-92.5104C382.1847,-85.9874 421.4338,-77.7245 452.9122,-71.0974"/>
<polygon fill="#191970" stroke="#191970" points="453.7747,-74.4927 462.8391,-69.0076 452.3326,-67.6428 453.7747,-74.4927"/>
</g>
<!-- Node20&#45;&gt;Node7 -->
<g id="edge18" class="edge">
<title>Node20&#45;&gt;Node7</title>
<path fill="none" stroke="#191970" d="M348.0012,-307.237C372.7161,-311.1394 403.2656,-315.963 431.025,-320.3461"/>
<polygon fill="#191970" stroke="#191970" points="430.6864,-323.8359 441.1099,-321.9384 431.7782,-316.9215 430.6864,-323.8359"/>
</g>
<!-- Node20&#45;&gt;Node8 -->
<g id="edge17" class="edge">
<title>Node20&#45;&gt;Node8</title>
<path fill="none" stroke="#191970" d="M348.0012,-294.8109C372.7161,-292.4458 403.2656,-289.5224 431.025,-286.866"/>
<polygon fill="#191970" stroke="#191970" points="431.4888,-290.3377 441.1099,-285.901 430.8219,-283.3696 431.4888,-290.3377"/>
</g>
<!-- Node21 -->
<g id="node17" class="node">
<title>Node21</title>
<g id="a_node17"><a xlink:href="classprecice_1_1utils_1_1MasterSlave.html#ae8671e778dec26782120295d51bb3fde" target="_top" xlink:title="Number of ranks. This includes ranks from both participants, e.g. minimal size is 2...">
<polygon fill="#ffffff" stroke="#000000" points="441.5,-415.5 441.5,-445.5 574.5,-445.5 574.5,-415.5 441.5,-415.5"/>
<text text-anchor="start" x="449.5" y="-433.5" font-family="Helvetica,sans-Serif" font-size="10.00" fill="#000000">precice::utils::MasterSlave</text>
<text text-anchor="middle" x="508" y="-422.5" font-family="Helvetica,sans-Serif" font-size="10.00" fill="#000000">::getSize</text>
</a>
</g>
</g>
<!-- Node20&#45;&gt;Node21 -->
<g id="edge19" class="edge">
<title>Node20&#45;&gt;Node21</title>
<path fill="none" stroke="#191970" d="M319.0051,-309.1209C338.9239,-319.3227 369.6694,-336.8052 392,-357.5 411.8207,-375.8688 405.9171,-390.9238 428,-406.5 430.1255,-407.9992 432.3459,-409.4062 434.6374,-410.7264"/>
<polygon fill="#191970" stroke="#191970" points="433.2818,-413.9642 443.7788,-415.4007 436.4687,-407.7317 433.2818,-413.9642"/>
</g>
<!-- Node22&#45;&gt;Node7 -->
<g id="edge23" class="edge">
<title>Node22&#45;&gt;Node7</title>
<path fill="none" stroke="#191970" d="M363.1272,-366.4654C385.596,-361.1976 411.0072,-355.2399 434.2034,-349.8016"/>
<polygon fill="#191970" stroke="#191970" points="435.057,-353.1965 443.994,-347.5062 433.4591,-346.3813 435.057,-353.1965"/>
</g>
<!-- Node22&#45;&gt;Node12 -->
<g id="edge21" class="edge">
<title>Node22&#45;&gt;Node12</title>
<path fill="none" stroke="#191970" d="M382.2029,-381.5C398.3576,-381.5 415.2215,-381.5 431.1603,-381.5"/>
<polygon fill="#191970" stroke="#191970" points="431.4841,-385.0001 441.484,-381.5 431.484,-378.0001 431.4841,-385.0001"/>
</g>
<!-- Node22&#45;&gt;Node21 -->
<g id="edge22" class="edge">
<title>Node22&#45;&gt;Node21</title>
<path fill="none" stroke="#191970" d="M363.1272,-396.5346C385.596,-401.8024 411.0072,-407.7601 434.2034,-413.1984"/>
<polygon fill="#191970" stroke="#191970" points="433.4591,-416.6187 443.994,-415.4938 435.057,-409.8035 433.4591,-416.6187"/>
</g>
<!-- Node23&#45;&gt;Node7 -->
<g id="edge27" class="edge">
<title>Node23&#45;&gt;Node7</title>
<path fill="none" stroke="#191970" d="M359.6323,-421.261C370.9987,-417.7995 382.3326,-413.0411 392,-406.5 414.3816,-391.3562 406.0065,-373.2022 428,-357.5 430.7238,-355.5553 433.604,-353.7583 436.5904,-352.0981"/>
<polygon fill="#191970" stroke="#191970" points="438.4175,-355.0986 445.8182,-347.517 435.3048,-348.8287 438.4175,-355.0986"/>
</g>
<!-- Node23&#45;&gt;Node12 -->
<g id="edge25" class="edge">
<title>Node23&#45;&gt;Node12</title>
<path fill="none" stroke="#191970" d="M359.7322,-416.2613C382.9305,-410.8225 409.6412,-404.5602 433.9448,-398.8622"/>
<polygon fill="#191970" stroke="#191970" points="434.9006,-402.2331 443.8377,-396.5428 433.3028,-395.4179 434.9006,-402.2331"/>
</g>
<!-- Node23&#45;&gt;Node21 -->
<g id="edge26" class="edge">
<title>Node23&#45;&gt;Node21</title>
<path fill="none" stroke="#191970" d="M359.7322,-430.5C381.9894,-430.5 407.4798,-430.5 430.9754,-430.5"/>
<polygon fill="#191970" stroke="#191970" points="431.2583,-434.0001 441.2583,-430.5 431.2582,-427.0001 431.2583,-434.0001"/>
</g>
</g>
</svg>
        <g id="navigator" transform="translate(0 0)" fill="#404254">
                <rect fill="#f2f5e9" fill-opacity="0.5" stroke="#606060" stroke-width=".5" x="0" y="0" width="60" height="60"/>
                <use id="zoomplus" xlink:href="#zoomPlus" x="17" y="9" onmousedown="handleZoom(evt,'in')"/>
                <use id="zoomminus" xlink:href="#zoomMin" x="42" y="9" onmousedown="handleZoom(evt,'out')"/>
                <use id="reset" xlink:href="#resetDef" x="30" y="36" onmousedown="handleReset()"/>
                <g id="arrowUp" xlink:href="#dirArrow" transform="translate(30 24)" onmousedown="handlePan(0,-1)">
                  <use xlink:href="#rim" fill="#404040">
                        <set attributeName="fill" to="#808080" begin="arrowUp.mouseover" end="arrowUp.mouseout"/>
                  </use>
                  <path fill="none" stroke="white" stroke-width="1.5" d="M0,-3.0v7 M-2.5,-0.5L0,-3.0L2.5,-0.5"/>
                </g>
                <g id="arrowRight" xlink:href="#dirArrow" transform="rotate(90) translate(36 -43)" onmousedown="handlePan(1,0)">
                  <use xlink:href="#rim" fill="#404040">
                        <set attributeName="fill" to="#808080" begin="arrowRight.mouseover" end="arrowRight.mouseout"/>
                  </use>
                  <path fill="none" stroke="white" stroke-width="1.5" d="M0,-3.0v7 M-2.5,-0.5L0,-3.0L2.5,-0.5"/>
                </g>
                <g id="arrowDown" xlink:href="#dirArrow" transform="rotate(180) translate(-30 -48)" onmousedown="handlePan(0,1)">
                  <use xlink:href="#rim" fill="#404040">
                        <set attributeName="fill" to="#808080" begin="arrowDown.mouseover" end="arrowDown.mouseout"/>
                  </use>
                  <path fill="none" stroke="white" stroke-width="1.5" d="M0,-3.0v7 M-2.5,-0.5L0,-3.0L2.5,-0.5"/>
                </g>
                <g id="arrowLeft" xlink:href="#dirArrow" transform="rotate(270) translate(-36 17)" onmousedown="handlePan(-1,0)">
                  <use xlink:href="#rim" fill="#404040">
                        <set attributeName="fill" to="#808080" begin="arrowLeft.mouseover" end="arrowLeft.mouseout"/>
                  </use>
                  <path fill="none" stroke="white" stroke-width="1.5" d="M0,-3.0v7 M-2.5,-0.5L0,-3.0L2.5,-0.5"/>
                </g>
        </g>
        <svg viewBox="0 0 15 15" width="100%" height="30px" preserveAspectRatio="xMaxYMin meet">
         <g id="arrow_out" transform="scale(0.3 0.3)">
          <a xlink:href="classprecice_1_1m2n_1_1PointToPointCommunication_a986b745b33bfa39b132e40a46a525fcb_cgraph_org.svg" target="_base">
           <rect id="button" ry="5" rx="5" y="6" x="6" height="38" width="38"
                fill="#f2f5e9" fill-opacity="0.5" stroke="#606060" stroke-width="1.0"/>
           <path id="arrow"
             d="M 11.500037,31.436501 C 11.940474,20.09759 22.043105,11.32322 32.158766,21.979434 L 37.068811,17.246167 C 37.068811,17.246167 37.088388,32 37.088388,32 L 22.160133,31.978069 C 22.160133,31.978069 26.997745,27.140456 26.997745,27.140456 C 18.528582,18.264221 13.291696,25.230495 11.500037,31.436501 z"
             style="fill:#404040;"/>
          </a>
         </g>
        </svg>
</svg>
