<?xml version="1.0" encoding="UTF-8" standalone="no"?>
<!DOCTYPE svg PUBLIC "-//W3C//DTD SVG 1.1//EN"
 "http://www.w3.org/Graphics/SVG/1.1/DTD/svg11.dtd">
<!-- Generated by graphviz version 2.40.1 (20161225.0304)
 -->
<!-- Title: precice::acceleration::BroydenAcceleration::updateDifferenceMatrices Pages: 1 -->
<!--zoomable 396 -->
<svg id="main" version="1.1" xmlns="http://www.w3.org/2000/svg" xmlns:xlink="http://www.w3.org/1999/xlink" xml:space="preserve" onload="init(evt)">
<style type="text/css"><![CDATA[
.edge:hover path { stroke: red; }
.edge:hover polygon { stroke: red; fill: red; }
]]></style>
<script type="text/javascript"><![CDATA[
var edges = document.getElementsByTagName('g');
if (edges && edges.length) {
  for (var i=0;i<edges.length;i++) {
    if (edges[i].id.substr(0,4)=='edge') {
      edges[i].setAttribute('class','edge');
    }
  }
}
]]></script>
        <defs>
                <circle id="rim" cx="0" cy="0" r="7"/>
                <circle id="rim2" cx="0" cy="0" r="3.5"/>
                <g id="zoomPlus">
                        <use xlink:href="#rim" fill="#404040">
                                <set attributeName="fill" to="#808080" begin="zoomplus.mouseover" end="zoomplus.mouseout"/>
                        </use>
                        <path d="M-4,0h8M0,-4v8" fill="none" stroke="white" stroke-width="1.5" pointer-events="none"/>
                </g>
                <g id="zoomMin">
                        <use xlink:href="#rim" fill="#404040">
                                <set attributeName="fill" to="#808080" begin="zoomminus.mouseover" end="zoomminus.mouseout"/>
                        </use>
                        <path d="M-4,0h8" fill="none" stroke="white" stroke-width="1.5" pointer-events="none"/>
                </g>
                <g id="dirArrow">
                        <path fill="none" stroke="white" stroke-width="1.5" d="M0,-3.0v7 M-2.5,-0.5L0,-3.0L2.5,-0.5"/>
                </g>
               <g id="resetDef">
                       <use xlink:href="#rim2" fill="#404040">
                               <set attributeName="fill" to="#808080" begin="reset.mouseover" end="reset.mouseout"/>
                       </use>
               </g>
        </defs>

<script type="text/javascript">
var viewWidth = 1231;
var viewHeight = 396;
var sectionId = 'dynsection-4';
</script>
<script xlink:href="svgpan.js"/>
<svg id="graph" class="graph">
<g id="viewport">
<title>precice::acceleration::BroydenAcceleration::updateDifferenceMatrices</title>
<polygon fill="#ffffff" stroke="transparent" points="-4,4 -4,-391.5 1227,-391.5 1227,4 -4,4"/>
<!-- Node30 -->
<g id="node1" class="node">
<title>Node30</title>
<polygon fill="#bfbfbf" stroke="#000000" points="0,-154.5 0,-195.5 148,-195.5 148,-154.5 0,-154.5"/>
<text text-anchor="start" x="8" y="-183.5" font-family="Helvetica,sans-Serif" font-size="10.00" fill="#000000">precice::acceleration</text>
<text text-anchor="start" x="8" y="-172.5" font-family="Helvetica,sans-Serif" font-size="10.00" fill="#000000">::BroydenAcceleration</text>
<text text-anchor="middle" x="74" y="-161.5" font-family="Helvetica,sans-Serif" font-size="10.00" fill="#000000">::updateDifferenceMatrices</text>
</g>
<!-- Node31 -->
<g id="node2" class="node">
<title>Node31</title>
<g id="a_node2"><a xlink:href="classprecice_1_1acceleration_1_1BaseQNAcceleration.html#ab8a015f4f81cf968e7c476c1bd025ca3" target="_top" xlink:title="Updates the V, W matrices (as well as the matrices for the secondary data) ">
<polygon fill="#ffffff" stroke="#000000" points="184,-154.5 184,-195.5 332,-195.5 332,-154.5 184,-154.5"/>
<text text-anchor="start" x="192" y="-183.5" font-family="Helvetica,sans-Serif" font-size="10.00" fill="#000000">precice::acceleration</text>
<text text-anchor="start" x="192" y="-172.5" font-family="Helvetica,sans-Serif" font-size="10.00" fill="#000000">::BaseQNAcceleration</text>
<text text-anchor="middle" x="258" y="-161.5" font-family="Helvetica,sans-Serif" font-size="10.00" fill="#000000">::updateDifferenceMatrices</text>
</a>
</g>
</g>
<!-- Node30&#45;&gt;Node31 -->
<g id="edge1" class="edge">
<title>Node30&#45;&gt;Node31</title>
<path fill="none" stroke="#191970" d="M148.0445,-175C156.5139,-175 165.1946,-175 173.7841,-175"/>
<polygon fill="#191970" stroke="#191970" points="173.8075,-178.5001 183.8075,-175 173.8075,-171.5001 173.8075,-178.5001"/>
</g>
<!-- Node32 -->
<g id="node3" class="node">
<title>Node32</title>
<g id="a_node3"><a xlink:href="namespaceprecice_1_1math.html#a0e86802cfe992deba131d789d035b5b7" target="_top" xlink:title="Compares two Eigen::MatrixBase for equality up to tolerance. ">
<polygon fill="#ffffff" stroke="#000000" points="379.5,-315.5 379.5,-334.5 501.5,-334.5 501.5,-315.5 379.5,-315.5"/>
<text text-anchor="middle" x="440.5" y="-322.5" font-family="Helvetica,sans-Serif" font-size="10.00" fill="#000000">precice::math::equals</text>
</a>
</g>
</g>
<!-- Node31&#45;&gt;Node32 -->
<g id="edge2" class="edge">
<title>Node31&#45;&gt;Node32</title>
<path fill="none" stroke="#191970" d="M271.0411,-195.9383C289.4018,-223.77 325.4304,-272.7196 368,-301 374.5227,-305.3332 381.8946,-308.9445 389.3769,-311.9362"/>
<polygon fill="#191970" stroke="#191970" points="388.2639,-315.2558 398.8577,-315.4022 390.6674,-308.6814 388.2639,-315.2558"/>
</g>
<!-- Node33 -->
<g id="node4" class="node">
<title>Node33</title>
<g id="a_node4"><a xlink:href="classprecice_1_1utils_1_1MasterSlave.html#afe25fce87eaede8702580df7aa2d4d25" target="_top" xlink:title="The l2 norm of a vector is calculated on distributed data. ">
<polygon fill="#ffffff" stroke="#000000" points="886,-220 886,-250 1031,-250 1031,-220 886,-220"/>
<text text-anchor="start" x="894" y="-238" font-family="Helvetica,sans-Serif" font-size="10.00" fill="#000000">precice::utils::MasterSlave</text>
<text text-anchor="middle" x="958.5" y="-227" font-family="Helvetica,sans-Serif" font-size="10.00" fill="#000000">::l2norm</text>
</a>
</g>
</g>
<!-- Node31&#45;&gt;Node33 -->
<g id="edge3" class="edge">
<title>Node31&#45;&gt;Node33</title>
<path fill="none" stroke="#191970" d="M289.7101,-195.7284C310.9176,-208.3325 339.9751,-223.2588 368,-230 544.8246,-272.5337 760.1355,-258.5206 875.686,-245.9053"/>
<polygon fill="#191970" stroke="#191970" points="876.3219,-249.3561 885.8719,-244.7684 875.5454,-242.3993 876.3219,-249.3561"/>
</g>
<!-- Node35 -->
<g id="node6" class="node">
<title>Node35</title>
<g id="a_node6"><a xlink:href="classprecice_1_1acceleration_1_1BaseQNAcceleration.html#a2354cc9c97ebd8ff1ba76b5959e79f20" target="_top" xlink:title=": computes number of cols in least squares system, i.e, number of cols in _matrixV, _matrixW, _qrV, etc.. This is necessary only for master&#45;slave mode, when some procs do not have any nodes on the coupling interface. In this case, the matrices are not constructed and we have no information about the number of cols. This info is needed for master&#45;slave communication. Number of its =! _cols in general. ">
<polygon fill="#ffffff" stroke="#000000" points="551.5,-81.5 551.5,-122.5 673.5,-122.5 673.5,-81.5 551.5,-81.5"/>
<text text-anchor="start" x="559.5" y="-110.5" font-family="Helvetica,sans-Serif" font-size="10.00" fill="#000000">precice::acceleration</text>
<text text-anchor="start" x="559.5" y="-99.5" font-family="Helvetica,sans-Serif" font-size="10.00" fill="#000000">::BaseQNAcceleration</text>
<text text-anchor="middle" x="612.5" y="-88.5" font-family="Helvetica,sans-Serif" font-size="10.00" fill="#000000">::getLSSystemCols</text>
</a>
</g>
</g>
<!-- Node31&#45;&gt;Node35 -->
<g id="edge5" class="edge">
<title>Node31&#45;&gt;Node35</title>
<path fill="none" stroke="#191970" d="M302.9201,-154.4946C322.5343,-146.3177 346.0322,-137.5477 368,-132 425.2922,-117.5315 491.9653,-109.9419 541.2029,-106.0205"/>
<polygon fill="#191970" stroke="#191970" points="541.7313,-109.4904 551.4354,-105.2382 541.1977,-102.5108 541.7313,-109.4904"/>
</g>
<!-- Node37 -->
<g id="node8" class="node">
<title>Node37</title>
<g id="a_node8"><a xlink:href="classprecice_1_1acceleration_1_1BaseQNAcceleration.html#a619e8998fd765613100c5753380753b2" target="_top" xlink:title="precice::acceleration\l::BaseQNAcceleration\l::getLSSystemRows">
<polygon fill="#ffffff" stroke="#000000" points="714.5,-337.5 714.5,-378.5 836.5,-378.5 836.5,-337.5 714.5,-337.5"/>
<text text-anchor="start" x="722.5" y="-366.5" font-family="Helvetica,sans-Serif" font-size="10.00" fill="#000000">precice::acceleration</text>
<text text-anchor="start" x="722.5" y="-355.5" font-family="Helvetica,sans-Serif" font-size="10.00" fill="#000000">::BaseQNAcceleration</text>
<text text-anchor="middle" x="775.5" y="-344.5" font-family="Helvetica,sans-Serif" font-size="10.00" fill="#000000">::getLSSystemRows</text>
</a>
</g>
</g>
<!-- Node31&#45;&gt;Node37 -->
<g id="edge7" class="edge">
<title>Node31&#45;&gt;Node37</title>
<path fill="none" stroke="#191970" d="M277.9537,-195.6352C298.6294,-215.8099 332.7975,-245.9132 368,-263 398.1024,-277.6113 595.9574,-320.4001 704.5026,-343.2381"/>
<polygon fill="#191970" stroke="#191970" points="703.8936,-346.6864 714.3995,-345.3172 705.3327,-339.836 703.8936,-346.6864"/>
</g>
<!-- Node40 -->
<g id="node11" class="node">
<title>Node40</title>
<g id="a_node11"><a xlink:href="namespaceprecice_1_1utils.html#a61c48677baad349e3e580b59942c5d1a" target="_top" xlink:title="precice::utils::appendFront">
<polygon fill="#ffffff" stroke="#000000" points="368,-141.5 368,-160.5 513,-160.5 513,-141.5 368,-141.5"/>
<text text-anchor="middle" x="440.5" y="-148.5" font-family="Helvetica,sans-Serif" font-size="10.00" fill="#000000">precice::utils::appendFront</text>
</a>
</g>
</g>
<!-- Node31&#45;&gt;Node40 -->
<g id="edge10" class="edge">
<title>Node31&#45;&gt;Node40</title>
<path fill="none" stroke="#191970" d="M332.2297,-165.2383C340.7412,-164.119 349.4575,-162.9727 358.0681,-161.8404"/>
<polygon fill="#191970" stroke="#191970" points="358.6508,-165.294 368.109,-160.5199 357.738,-158.3537 358.6508,-165.294"/>
</g>
<!-- Node41 -->
<g id="node12" class="node">
<title>Node41</title>
<g id="a_node12"><a xlink:href="classprecice_1_1acceleration_1_1impl_1_1QRFactorization.html#aab85088acbc55d5b9d616ab446ee536c" target="_top" xlink:title="inserts a new column at position 0, i.e., shifts right and inserts at first position and updates the ...">
<polygon fill="#ffffff" stroke="#000000" points="377,-179.5 377,-220.5 504,-220.5 504,-179.5 377,-179.5"/>
<text text-anchor="start" x="385" y="-208.5" font-family="Helvetica,sans-Serif" font-size="10.00" fill="#000000">precice::acceleration</text>
<text text-anchor="start" x="385" y="-197.5" font-family="Helvetica,sans-Serif" font-size="10.00" fill="#000000">::impl::QRFactorization</text>
<text text-anchor="middle" x="440.5" y="-186.5" font-family="Helvetica,sans-Serif" font-size="10.00" fill="#000000">::pushFront</text>
</a>
</g>
</g>
<!-- Node31&#45;&gt;Node41 -->
<g id="edge11" class="edge">
<title>Node31&#45;&gt;Node41</title>
<path fill="none" stroke="#191970" d="M332.2297,-185.1685C343.6786,-186.7368 355.4981,-188.3559 366.9324,-189.9222"/>
<polygon fill="#191970" stroke="#191970" points="366.48,-193.3929 376.8625,-191.2825 367.4301,-186.4576 366.48,-193.3929"/>
</g>
<!-- Node49 -->
<g id="node20" class="node">
<title>Node49</title>
<g id="a_node20"><a xlink:href="namespaceprecice_1_1utils.html#ad91190b2974c945c80111b15584681c9" target="_top" xlink:title="precice::utils::shiftSet\lFirst">
<polygon fill="#ffffff" stroke="#000000" points="379.5,-54 379.5,-84 501.5,-84 501.5,-54 379.5,-54"/>
<text text-anchor="start" x="387.5" y="-72" font-family="Helvetica,sans-Serif" font-size="10.00" fill="#000000">precice::utils::shiftSet</text>
<text text-anchor="middle" x="440.5" y="-61" font-family="Helvetica,sans-Serif" font-size="10.00" fill="#000000">First</text>
</a>
</g>
</g>
<!-- Node31&#45;&gt;Node49 -->
<g id="edge28" class="edge">
<title>Node31&#45;&gt;Node49</title>
<path fill="none" stroke="#191970" d="M284.5443,-154.2709C306.209,-137.9508 338.0304,-115.3129 368,-99 375.1449,-95.1109 382.9016,-91.4037 390.5959,-88.0053"/>
<polygon fill="#191970" stroke="#191970" points="392.0885,-91.1736 399.905,-84.0215 389.3344,-84.7382 392.0885,-91.1736"/>
</g>
<!-- Node50 -->
<g id="node21" class="node">
<title>Node50</title>
<g id="a_node21"><a xlink:href="classprecice_1_1acceleration_1_1impl_1_1QRFactorization.html#a7e10b142637767d06bdf4f7126d495ec" target="_top" xlink:title="deletes the column at position _cols&#45;1, i.e., deletes the last column and updates the QR factorizatio...">
<polygon fill="#ffffff" stroke="#000000" points="549,-10.5 549,-51.5 676,-51.5 676,-10.5 549,-10.5"/>
<text text-anchor="start" x="557" y="-39.5" font-family="Helvetica,sans-Serif" font-size="10.00" fill="#000000">precice::acceleration</text>
<text text-anchor="start" x="557" y="-28.5" font-family="Helvetica,sans-Serif" font-size="10.00" fill="#000000">::impl::QRFactorization</text>
<text text-anchor="middle" x="612.5" y="-17.5" font-family="Helvetica,sans-Serif" font-size="10.00" fill="#000000">::popBack</text>
</a>
</g>
</g>
<!-- Node31&#45;&gt;Node50 -->
<g id="edge29" class="edge">
<title>Node31&#45;&gt;Node50</title>
<path fill="none" stroke="#191970" d="M268.271,-154.2871C284.6343,-123.8523 319.7669,-68.0605 368,-44 420.7565,-17.683 488.1147,-16.0661 538.7676,-20.11"/>
<polygon fill="#191970" stroke="#191970" points="538.7174,-23.6193 548.9885,-21.0202 539.3384,-16.6469 538.7174,-23.6193"/>
</g>
<!-- Node34 -->
<g id="node5" class="node">
<title>Node34</title>
<g id="a_node5"><a xlink:href="classprecice_1_1utils_1_1MasterSlave.html#a5495a21e8779643af56152273c123ae2" target="_top" xlink:title="precice::utils::MasterSlave\l::allreduceSum">
<polygon fill="#ffffff" stroke="#000000" points="1078,-242 1078,-272 1223,-272 1223,-242 1078,-242"/>
<text text-anchor="start" x="1086" y="-260" font-family="Helvetica,sans-Serif" font-size="10.00" fill="#000000">precice::utils::MasterSlave</text>
<text text-anchor="middle" x="1150.5" y="-249" font-family="Helvetica,sans-Serif" font-size="10.00" fill="#000000">::allreduceSum</text>
</a>
</g>
</g>
<!-- Node33&#45;&gt;Node34 -->
<g id="edge4" class="edge">
<title>Node33&#45;&gt;Node34</title>
<path fill="none" stroke="#191970" d="M1031.087,-243.3173C1043.0337,-244.6862 1055.4957,-246.1141 1067.6696,-247.509"/>
<polygon fill="#191970" stroke="#191970" points="1067.4769,-251.0098 1077.8104,-248.671 1068.2739,-244.0553 1067.4769,-251.0098"/>
</g>
<!-- Node36 -->
<g id="node7" class="node">
<title>Node36</title>
<g id="a_node7"><a xlink:href="classprecice_1_1acceleration_1_1impl_1_1QRFactorization.html#a8a1d26479a03fe3a6f477a19d6fb7d80" target="_top" xlink:title="precice::acceleration\l::impl::QRFactorization::cols">
<polygon fill="#ffffff" stroke="#000000" points="882.5,-104 882.5,-134 1034.5,-134 1034.5,-104 882.5,-104"/>
<text text-anchor="start" x="890.5" y="-122" font-family="Helvetica,sans-Serif" font-size="10.00" fill="#000000">precice::acceleration</text>
<text text-anchor="middle" x="958.5" y="-111" font-family="Helvetica,sans-Serif" font-size="10.00" fill="#000000">::impl::QRFactorization::cols</text>
</a>
</g>
</g>
<!-- Node35&#45;&gt;Node36 -->
<g id="edge6" class="edge">
<title>Node35&#45;&gt;Node36</title>
<path fill="none" stroke="#191970" d="M673.758,-96.2979C686.3923,-95.3403 699.619,-94.4969 712,-94 768.399,-91.7364 782.8554,-88.19 839,-94 855.2373,-95.6803 872.5203,-98.6122 888.7503,-101.8906"/>
<polygon fill="#191970" stroke="#191970" points="888.1966,-105.3504 898.7009,-103.9686 889.6276,-98.4982 888.1966,-105.3504"/>
</g>
<!-- Node38 -->
<g id="node9" class="node">
<title>Node38</title>
<g id="a_node9"><a xlink:href="classprecice_1_1utils_1_1MasterSlave.html#a5e934392c32335daa8e2b4a01bc75fd3" target="_top" xlink:title="True if this process is running the master. ">
<polygon fill="#ffffff" stroke="#000000" points="886,-308 886,-338 1031,-338 1031,-308 886,-308"/>
<text text-anchor="start" x="894" y="-326" font-family="Helvetica,sans-Serif" font-size="10.00" fill="#000000">precice::utils::MasterSlave</text>
<text text-anchor="middle" x="958.5" y="-315" font-family="Helvetica,sans-Serif" font-size="10.00" fill="#000000">::isMaster</text>
</a>
</g>
</g>
<!-- Node37&#45;&gt;Node38 -->
<g id="edge8" class="edge">
<title>Node37&#45;&gt;Node38</title>
<path fill="none" stroke="#191970" d="M836.6908,-346.2968C849.2763,-343.8898 862.7242,-341.3178 875.9222,-338.7936"/>
<polygon fill="#191970" stroke="#191970" points="876.7832,-342.1924 885.9477,-336.8761 875.4682,-335.317 876.7832,-342.1924"/>
</g>
<!-- Node39 -->
<g id="node10" class="node">
<title>Node39</title>
<g id="a_node10"><a xlink:href="classprecice_1_1utils_1_1MasterSlave.html#a3837ad42361b53d7e930443ba07a9eb5" target="_top" xlink:title="True if this process is running a slave. ">
<polygon fill="#ffffff" stroke="#000000" points="886,-357 886,-387 1031,-387 1031,-357 886,-357"/>
<text text-anchor="start" x="894" y="-375" font-family="Helvetica,sans-Serif" font-size="10.00" fill="#000000">precice::utils::MasterSlave</text>
<text text-anchor="middle" x="958.5" y="-364" font-family="Helvetica,sans-Serif" font-size="10.00" fill="#000000">::isSlave</text>
</a>
</g>
</g>
<!-- Node37&#45;&gt;Node39 -->
<g id="edge9" class="edge">
<title>Node37&#45;&gt;Node39</title>
<path fill="none" stroke="#191970" d="M836.6908,-362.6813C849.2763,-363.6441 862.7242,-364.6729 875.9222,-365.6826"/>
<polygon fill="#191970" stroke="#191970" points="875.7098,-369.1765 885.9477,-366.4495 876.2438,-362.1969 875.7098,-369.1765"/>
</g>
<!-- Node42 -->
<g id="node13" class="node">
<title>Node42</title>
<g id="a_node13"><a xlink:href="classprecice_1_1acceleration_1_1impl_1_1QRFactorization.html#a26b961bbfc8c11c20dcd1c419a30aed5" target="_top" xlink:title="inserts a new column at arbitrary position and updates the QR factorization This function works on th...">
<polygon fill="#ffffff" stroke="#000000" points="549,-152.5 549,-193.5 676,-193.5 676,-152.5 549,-152.5"/>
<text text-anchor="start" x="557" y="-181.5" font-family="Helvetica,sans-Serif" font-size="10.00" fill="#000000">precice::acceleration</text>
<text text-anchor="start" x="557" y="-170.5" font-family="Helvetica,sans-Serif" font-size="10.00" fill="#000000">::impl::QRFactorization</text>
<text text-anchor="middle" x="612.5" y="-159.5" font-family="Helvetica,sans-Serif" font-size="10.00" fill="#000000">::insertColumn</text>
</a>
</g>
</g>
<!-- Node41&#45;&gt;Node42 -->
<g id="edge12" class="edge">
<title>Node41&#45;&gt;Node42</title>
<path fill="none" stroke="#191970" d="M504.0578,-190.0229C515.3821,-188.2453 527.2645,-186.38 538.8423,-184.5626"/>
<polygon fill="#191970" stroke="#191970" points="539.5803,-187.9897 548.9165,-182.9811 538.4946,-181.0743 539.5803,-187.9897"/>
</g>
<!-- Node42&#45;&gt;Node33 -->
<g id="edge19" class="edge">
<title>Node42&#45;&gt;Node33</title>
<path fill="none" stroke="#191970" d="M676.365,-184.444C732.5021,-194.5033 814.5523,-209.2059 875.7145,-220.1656"/>
<polygon fill="#191970" stroke="#191970" points="875.2663,-223.641 885.7269,-221.9597 876.5011,-216.7507 875.2663,-223.641"/>
</g>
<!-- Node43 -->
<g id="node14" class="node">
<title>Node43</title>
<g id="a_node14"><a xlink:href="classprecice_1_1acceleration_1_1impl_1_1QRFactorization.html#a503d02ec1ea2e3d63f27959092e016e3" target="_top" xlink:title="filters the least squares system, i.e., the decomposition Q*R = V according to the defined filter tec...">
<polygon fill="#ffffff" stroke="#000000" points="712,-103.5 712,-144.5 839,-144.5 839,-103.5 712,-103.5"/>
<text text-anchor="start" x="720" y="-132.5" font-family="Helvetica,sans-Serif" font-size="10.00" fill="#000000">precice::acceleration</text>
<text text-anchor="start" x="720" y="-121.5" font-family="Helvetica,sans-Serif" font-size="10.00" fill="#000000">::impl::QRFactorization</text>
<text text-anchor="middle" x="775.5" y="-110.5" font-family="Helvetica,sans-Serif" font-size="10.00" fill="#000000">::applyFilter</text>
</a>
</g>
</g>
<!-- Node42&#45;&gt;Node43 -->
<g id="edge13" class="edge">
<title>Node42&#45;&gt;Node43</title>
<path fill="none" stroke="#191970" d="M660.0845,-152.4943C673.2166,-148.0965 687.7785,-143.5458 702.0113,-139.3708"/>
<polygon fill="#191970" stroke="#191970" points="703.1541,-142.6838 711.7906,-136.5469 701.2121,-135.9586 703.1541,-142.6838"/>
</g>
<!-- Node45 -->
<g id="node16" class="node">
<title>Node45</title>
<g id="a_node16"><a xlink:href="classprecice_1_1acceleration_1_1impl_1_1QRFactorization.html#a578cba38a6933c05977b041f79686027" target="_top" xlink:title="computes parameters for givens matrix G for which (x,y)G = (z,0). replaces (x,y) by (z...">
<polygon fill="#ffffff" stroke="#000000" points="1087,-65.5 1087,-106.5 1214,-106.5 1214,-65.5 1087,-65.5"/>
<text text-anchor="start" x="1095" y="-94.5" font-family="Helvetica,sans-Serif" font-size="10.00" fill="#000000">precice::acceleration</text>
<text text-anchor="start" x="1095" y="-83.5" font-family="Helvetica,sans-Serif" font-size="10.00" fill="#000000">::impl::QRFactorization</text>
<text text-anchor="middle" x="1150.5" y="-72.5" font-family="Helvetica,sans-Serif" font-size="10.00" fill="#000000">::computeReflector</text>
</a>
</g>
</g>
<!-- Node42&#45;&gt;Node45 -->
<g id="edge26" class="edge">
<title>Node42&#45;&gt;Node45</title>
<path fill="none" stroke="#191970" d="M676.1287,-176.611C761.2251,-179.6369 915.9885,-178.789 1042,-143 1066.14,-136.1439 1091.0656,-123.5073 1110.9295,-111.8715"/>
<polygon fill="#191970" stroke="#191970" points="1112.906,-114.7673 1119.679,-106.6201 1109.3036,-108.7653 1112.906,-114.7673"/>
</g>
<!-- Node46 -->
<g id="node17" class="node">
<title>Node46</title>
<g id="a_node17"><a xlink:href="classprecice_1_1acceleration_1_1impl_1_1QRFactorization.html#ad884293e8b5217e714e662acbc14f05b" target="_top" xlink:title="this procedure replaces the two column matrix [p(k:l&#45;1), q(k:l&#45;1)] by [p(k:l), q(k:l)]*G, where G is the Givens matrix grot, determined by sigma and gamma. ">
<polygon fill="#ffffff" stroke="#000000" points="1087,-.5 1087,-41.5 1214,-41.5 1214,-.5 1087,-.5"/>
<text text-anchor="start" x="1095" y="-29.5" font-family="Helvetica,sans-Serif" font-size="10.00" fill="#000000">precice::acceleration</text>
<text text-anchor="start" x="1095" y="-18.5" font-family="Helvetica,sans-Serif" font-size="10.00" fill="#000000">::impl::QRFactorization</text>
<text text-anchor="middle" x="1150.5" y="-7.5" font-family="Helvetica,sans-Serif" font-size="10.00" fill="#000000">::applyReflector</text>
</a>
</g>
</g>
<!-- Node42&#45;&gt;Node46 -->
<g id="edge27" class="edge">
<title>Node42&#45;&gt;Node46</title>
<path fill="none" stroke="#191970" d="M647.8288,-152.3087C657.3014,-146.2009 667.3168,-139.2086 676,-132 693.9,-117.1398 692.9184,-107.3089 712,-94 776.6669,-48.8969 797.8614,-40.3013 875,-24 942.1869,-9.8018 1020.6606,-10.5847 1076.6318,-14.0113"/>
<polygon fill="#191970" stroke="#191970" points="1076.6056,-17.517 1086.8132,-14.6789 1077.0637,-10.532 1076.6056,-17.517"/>
</g>
<!-- Node47 -->
<g id="node18" class="node">
<title>Node47</title>
<g id="a_node18"><a xlink:href="classprecice_1_1acceleration_1_1impl_1_1QRFactorization.html#a2cd325b18076ac5703d0d7db81ed4db9" target="_top" xlink:title="assuming Q(1:n,1:m) has nearly orthonormal columns, this procedure orthogonlizes v(1:n) to the column...">
<polygon fill="#ffffff" stroke="#000000" points="712,-277.5 712,-318.5 839,-318.5 839,-277.5 712,-277.5"/>
<text text-anchor="start" x="720" y="-306.5" font-family="Helvetica,sans-Serif" font-size="10.00" fill="#000000">precice::acceleration</text>
<text text-anchor="start" x="720" y="-295.5" font-family="Helvetica,sans-Serif" font-size="10.00" fill="#000000">::impl::QRFactorization</text>
<text text-anchor="middle" x="775.5" y="-284.5" font-family="Helvetica,sans-Serif" font-size="10.00" fill="#000000">::orthogonalize</text>
</a>
</g>
</g>
<!-- Node42&#45;&gt;Node47 -->
<g id="edge20" class="edge">
<title>Node42&#45;&gt;Node47</title>
<path fill="none" stroke="#191970" d="M639.4161,-193.6412C667.022,-214.8113 710.0911,-247.8398 740.3672,-271.0577"/>
<polygon fill="#191970" stroke="#191970" points="738.4787,-274.0201 748.5439,-277.3281 742.7385,-268.4654 738.4787,-274.0201"/>
</g>
<!-- Node43&#45;&gt;Node36 -->
<g id="edge14" class="edge">
<title>Node43&#45;&gt;Node36</title>
<path fill="none" stroke="#191970" d="M839.2476,-122.2583C849.9093,-121.967 861.1263,-121.6605 872.2398,-121.3568"/>
<polygon fill="#191970" stroke="#191970" points="872.4975,-124.8512 882.3981,-121.0793 872.3062,-117.8538 872.4975,-124.8512"/>
</g>
<!-- Node43&#45;&gt;Node42 -->
<g id="edge18" class="edge">
<title>Node43&#45;&gt;Node42</title>
<path fill="none" stroke="#191970" d="M727.8606,-144.524C714.8017,-148.8965 700.332,-153.4193 686.1798,-157.5732"/>
<polygon fill="#191970" stroke="#191970" points="685.0894,-154.245 676.4541,-160.3835 687.0327,-160.9698 685.0894,-154.245"/>
</g>
<!-- Node44 -->
<g id="node15" class="node">
<title>Node44</title>
<g id="a_node15"><a xlink:href="classprecice_1_1acceleration_1_1impl_1_1QRFactorization.html#afe9ed35bac0657cd5e3c417e45d22229" target="_top" xlink:title="updates the factorization A=Q[1:n,1:m]R[1:m,1:n] when the kth column of A is deleted. Returns the deleted column v(1:n) ">
<polygon fill="#ffffff" stroke="#000000" points="895,-33.5 895,-74.5 1022,-74.5 1022,-33.5 895,-33.5"/>
<text text-anchor="start" x="903" y="-62.5" font-family="Helvetica,sans-Serif" font-size="10.00" fill="#000000">precice::acceleration</text>
<text text-anchor="start" x="903" y="-51.5" font-family="Helvetica,sans-Serif" font-size="10.00" fill="#000000">::impl::QRFactorization</text>
<text text-anchor="middle" x="958.5" y="-40.5" font-family="Helvetica,sans-Serif" font-size="10.00" fill="#000000">::deleteColumn</text>
</a>
</g>
</g>
<!-- Node43&#45;&gt;Node44 -->
<g id="edge15" class="edge">
<title>Node43&#45;&gt;Node44</title>
<path fill="none" stroke="#191970" d="M829.4163,-103.3763C850.0802,-95.472 873.8396,-86.3838 895.2963,-78.1763"/>
<polygon fill="#191970" stroke="#191970" points="896.5636,-81.4389 904.6532,-74.5971 894.0627,-74.9009 896.5636,-81.4389"/>
</g>
<!-- Node44&#45;&gt;Node45 -->
<g id="edge16" class="edge">
<title>Node44&#45;&gt;Node45</title>
<path fill="none" stroke="#191970" d="M1022.1665,-64.6111C1039.6661,-67.5277 1058.7886,-70.7148 1076.8022,-73.717"/>
<polygon fill="#191970" stroke="#191970" points="1076.2389,-77.1714 1086.6783,-75.363 1077.3898,-70.2666 1076.2389,-77.1714"/>
</g>
<!-- Node44&#45;&gt;Node46 -->
<g id="edge17" class="edge">
<title>Node44&#45;&gt;Node46</title>
<path fill="none" stroke="#191970" d="M1022.1665,-43.0573C1039.6661,-40.0496 1058.7886,-36.7629 1076.8022,-33.6668"/>
<polygon fill="#191970" stroke="#191970" points="1077.4157,-37.1128 1086.6783,-31.9694 1076.2299,-30.2139 1077.4157,-37.1128"/>
</g>
<!-- Node47&#45;&gt;Node33 -->
<g id="edge23" class="edge">
<title>Node47&#45;&gt;Node33</title>
<path fill="none" stroke="#191970" d="M827.1357,-277.4492C842.4577,-271.5769 859.3319,-265.3293 875,-260 881.8945,-257.6549 889.1477,-255.308 896.3811,-253.0429"/>
<polygon fill="#191970" stroke="#191970" points="897.6743,-256.3067 906.1969,-250.0126 895.6095,-249.6182 897.6743,-256.3067"/>
</g>
<!-- Node47&#45;&gt;Node38 -->
<g id="edge21" class="edge">
<title>Node47&#45;&gt;Node38</title>
<path fill="none" stroke="#191970" d="M839.2476,-306.7087C851.0134,-308.316 863.4553,-310.0158 875.6882,-311.6869"/>
<polygon fill="#191970" stroke="#191970" points="875.5136,-315.1955 885.8953,-313.0813 876.4611,-308.2599 875.5136,-315.1955"/>
</g>
<!-- Node47&#45;&gt;Node39 -->
<g id="edge22" class="edge">
<title>Node47&#45;&gt;Node39</title>
<path fill="none" stroke="#191970" d="M820.0911,-318.6122C826.4701,-321.6926 832.9256,-324.882 839,-328 855.2835,-336.3583 858.0955,-340.9822 875,-348 879.7539,-349.9735 884.7241,-351.8473 889.7684,-353.613"/>
<polygon fill="#191970" stroke="#191970" points="888.9294,-357.0228 899.5232,-356.8729 891.1481,-350.3837 888.9294,-357.0228"/>
</g>
<!-- Node48 -->
<g id="node19" class="node">
<title>Node48</title>
<g id="a_node19"><a xlink:href="classprecice_1_1utils_1_1MasterSlave.html#a441fadb15cda8247ff6f8f586941f3aa" target="_top" xlink:title="precice::utils::MasterSlave::dot">
<polygon fill="#ffffff" stroke="#000000" points="875,-269.5 875,-288.5 1042,-288.5 1042,-269.5 875,-269.5"/>
<text text-anchor="middle" x="958.5" y="-276.5" font-family="Helvetica,sans-Serif" font-size="10.00" fill="#000000">precice::utils::MasterSlave::dot</text>
</a>
</g>
</g>
<!-- Node47&#45;&gt;Node48 -->
<g id="edge24" class="edge">
<title>Node47&#45;&gt;Node48</title>
<path fill="none" stroke="#191970" d="M839.2476,-291.3814C847.4772,-290.527 856.0376,-289.6382 864.6259,-288.7465"/>
<polygon fill="#191970" stroke="#191970" points="865.1174,-292.2144 874.7025,-287.7003 864.3945,-285.2518 865.1174,-292.2144"/>
</g>
<!-- Node48&#45;&gt;Node34 -->
<g id="edge25" class="edge">
<title>Node48&#45;&gt;Node34</title>
<path fill="none" stroke="#191970" d="M1041.5973,-269.4784C1050.2657,-268.4852 1059.0771,-267.4755 1067.7418,-266.4827"/>
<polygon fill="#191970" stroke="#191970" points="1068.292,-269.9427 1077.8286,-265.3269 1067.4951,-262.9882 1068.292,-269.9427"/>
</g>
<!-- Node50&#45;&gt;Node44 -->
<g id="edge30" class="edge">
<title>Node50&#45;&gt;Node44</title>
<path fill="none" stroke="#191970" d="M676.365,-35.2454C735.2766,-39.1615 822.726,-44.9746 884.6243,-49.0892"/>
<polygon fill="#191970" stroke="#191970" points="884.5049,-52.5889 894.7151,-49.76 884.9693,-45.6043 884.5049,-52.5889"/>
</g>
</g>
</svg>
        <g id="navigator" transform="translate(0 0)" fill="#404254">
                <rect fill="#f2f5e9" fill-opacity="0.5" stroke="#606060" stroke-width=".5" x="0" y="0" width="60" height="60"/>
                <use id="zoomplus" xlink:href="#zoomPlus" x="17" y="9" onmousedown="handleZoom(evt,'in')"/>
                <use id="zoomminus" xlink:href="#zoomMin" x="42" y="9" onmousedown="handleZoom(evt,'out')"/>
                <use id="reset" xlink:href="#resetDef" x="30" y="36" onmousedown="handleReset()"/>
                <g id="arrowUp" xlink:href="#dirArrow" transform="translate(30 24)" onmousedown="handlePan(0,-1)">
                  <use xlink:href="#rim" fill="#404040">
                        <set attributeName="fill" to="#808080" begin="arrowUp.mouseover" end="arrowUp.mouseout"/>
                  </use>
                  <path fill="none" stroke="white" stroke-width="1.5" d="M0,-3.0v7 M-2.5,-0.5L0,-3.0L2.5,-0.5"/>
                </g>
                <g id="arrowRight" xlink:href="#dirArrow" transform="rotate(90) translate(36 -43)" onmousedown="handlePan(1,0)">
                  <use xlink:href="#rim" fill="#404040">
                        <set attributeName="fill" to="#808080" begin="arrowRight.mouseover" end="arrowRight.mouseout"/>
                  </use>
                  <path fill="none" stroke="white" stroke-width="1.5" d="M0,-3.0v7 M-2.5,-0.5L0,-3.0L2.5,-0.5"/>
                </g>
                <g id="arrowDown" xlink:href="#dirArrow" transform="rotate(180) translate(-30 -48)" onmousedown="handlePan(0,1)">
                  <use xlink:href="#rim" fill="#404040">
                        <set attributeName="fill" to="#808080" begin="arrowDown.mouseover" end="arrowDown.mouseout"/>
                  </use>
                  <path fill="none" stroke="white" stroke-width="1.5" d="M0,-3.0v7 M-2.5,-0.5L0,-3.0L2.5,-0.5"/>
                </g>
                <g id="arrowLeft" xlink:href="#dirArrow" transform="rotate(270) translate(-36 17)" onmousedown="handlePan(-1,0)">
                  <use xlink:href="#rim" fill="#404040">
                        <set attributeName="fill" to="#808080" begin="arrowLeft.mouseover" end="arrowLeft.mouseout"/>
                  </use>
                  <path fill="none" stroke="white" stroke-width="1.5" d="M0,-3.0v7 M-2.5,-0.5L0,-3.0L2.5,-0.5"/>
                </g>
        </g>
        <svg viewBox="0 0 15 15" width="100%" height="30px" preserveAspectRatio="xMaxYMin meet">
         <g id="arrow_out" transform="scale(0.3 0.3)">
          <a xlink:href="classprecice_1_1acceleration_1_1BroydenAcceleration_a9b1c15c570841eca876afec990d0cad8_cgraph_org.svg" target="_base">
           <rect id="button" ry="5" rx="5" y="6" x="6" height="38" width="38"
                fill="#f2f5e9" fill-opacity="0.5" stroke="#606060" stroke-width="1.0"/>
           <path id="arrow"
             d="M 11.500037,31.436501 C 11.940474,20.09759 22.043105,11.32322 32.158766,21.979434 L 37.068811,17.246167 C 37.068811,17.246167 37.088388,32 37.088388,32 L 22.160133,31.978069 C 22.160133,31.978069 26.997745,27.140456 26.997745,27.140456 C 18.528582,18.264221 13.291696,25.230495 11.500037,31.436501 z"
             style="fill:#404040;"/>
          </a>
         </g>
        </svg>
</svg>
