<?xml version="1.0" encoding="UTF-8" standalone="no"?>
<!DOCTYPE svg PUBLIC "-//W3C//DTD SVG 1.1//EN"
 "http://www.w3.org/Graphics/SVG/1.1/DTD/svg11.dtd">
<!-- Generated by graphviz version 2.40.1 (20161225.0304)
 -->
<!-- Title: precice::acceleration::AitkenAcceleration::initialize Pages: 1 -->
<svg width="466pt" height="100pt"
 viewBox="0.00 0.00 466.00 99.50" xmlns="http://www.w3.org/2000/svg" xmlns:xlink="http://www.w3.org/1999/xlink">
<g id="graph0" class="graph" transform="scale(1 1) rotate(0) translate(4 95.5)">
<title>precice::acceleration::AitkenAcceleration::initialize</title>
<polygon fill="#ffffff" stroke="transparent" points="-4,4 -4,-95.5 462,-95.5 462,4 -4,4"/>
<!-- Node14 -->
<g id="node1" class="node">
<title>Node14</title>
<polygon fill="#bfbfbf" stroke="#000000" points="0,-11.5 0,-52.5 107,-52.5 107,-11.5 0,-11.5"/>
<text text-anchor="start" x="8" y="-40.5" font-family="Helvetica,sans-Serif" font-size="10.00" fill="#000000">precice::acceleration</text>
<text text-anchor="start" x="8" y="-29.5" font-family="Helvetica,sans-Serif" font-size="10.00" fill="#000000">::AitkenAcceleration</text>
<text text-anchor="middle" x="53.5" y="-18.5" font-family="Helvetica,sans-Serif" font-size="10.00" fill="#000000">::initialize</text>
</g>
<!-- Node15 -->
<g id="node2" class="node">
<title>Node15</title>
<g id="a_node2"><a xlink:href="classprecice_1_1acceleration_1_1Acceleration.html#a3dcd51bdc9d092fa639077056493b76c" target="_top" xlink:title="Checks if all dataIDs are contained in cplData. ">
<polygon fill="#ffffff" stroke="#000000" points="143,-39 143,-69 289,-69 289,-39 143,-39"/>
<text text-anchor="start" x="151" y="-57" font-family="Helvetica,sans-Serif" font-size="10.00" fill="#000000">precice::acceleration</text>
<text text-anchor="middle" x="216" y="-46" font-family="Helvetica,sans-Serif" font-size="10.00" fill="#000000">::Acceleration::checkDataIDs</text>
</a>
</g>
</g>
<!-- Node14&#45;&gt;Node15 -->
<g id="edge1" class="edge">
<title>Node14&#45;&gt;Node15</title>
<path fill="none" stroke="#191970" d="M107.1589,-39.2646C115.4878,-40.3922 124.2556,-41.5792 133.0499,-42.7698"/>
<polygon fill="#191970" stroke="#191970" points="132.5892,-46.2393 142.9684,-44.1126 133.5284,-39.3026 132.5892,-46.2393"/>
</g>
<!-- Node18 -->
<g id="node5" class="node">
<title>Node18</title>
<g id="a_node5"><a xlink:href="namespaceprecice_1_1utils.html#a70a03ea1367189736d49351c6385c8c9" target="_top" xlink:title="precice::utils::append">
<polygon fill="#ffffff" stroke="#000000" points="161,-.5 161,-19.5 271,-19.5 271,-.5 161,-.5"/>
<text text-anchor="middle" x="216" y="-7.5" font-family="Helvetica,sans-Serif" font-size="10.00" fill="#000000">precice::utils::append</text>
</a>
</g>
</g>
<!-- Node14&#45;&gt;Node18 -->
<g id="edge4" class="edge">
<title>Node14&#45;&gt;Node18</title>
<path fill="none" stroke="#191970" d="M107.1589,-24.7354C120.9956,-22.8621 136.0436,-20.8249 150.4124,-18.8795"/>
<polygon fill="#191970" stroke="#191970" points="151.288,-22.293 160.728,-17.483 150.3488,-15.3563 151.288,-22.293"/>
</g>
<!-- Node16 -->
<g id="node3" class="node">
<title>Node16</title>
<g id="a_node3"><a xlink:href="classprecice_1_1acceleration_1_1Acceleration.html#a249bfb8884e09425c28bbc8e3120ca46" target="_top" xlink:title="precice::acceleration\l::Acceleration::getDataIDs">
<polygon fill="#ffffff" stroke="#000000" points="325,-61 325,-91 458,-91 458,-61 325,-61"/>
<text text-anchor="start" x="333" y="-79" font-family="Helvetica,sans-Serif" font-size="10.00" fill="#000000">precice::acceleration</text>
<text text-anchor="middle" x="391.5" y="-68" font-family="Helvetica,sans-Serif" font-size="10.00" fill="#000000">::Acceleration::getDataIDs</text>
</a>
</g>
</g>
<!-- Node15&#45;&gt;Node16 -->
<g id="edge2" class="edge">
<title>Node15&#45;&gt;Node16</title>
<path fill="none" stroke="#191970" d="M289.157,-63.1707C297.6747,-64.2384 306.3811,-65.3298 314.943,-66.4031"/>
<polygon fill="#191970" stroke="#191970" points="314.5499,-69.8811 324.9076,-67.6522 315.4206,-62.9355 314.5499,-69.8811"/>
</g>
<!-- Node17 -->
<g id="node4" class="node">
<title>Node17</title>
<g id="a_node4"><a xlink:href="namespaceprecice_1_1utils.html#a434eabaa71f97a31726281a4df77bbcf" target="_top" xlink:title="Returns true, if given element is in vector, otherwise false. ">
<polygon fill="#ffffff" stroke="#000000" points="331.5,-22.5 331.5,-41.5 451.5,-41.5 451.5,-22.5 331.5,-22.5"/>
<text text-anchor="middle" x="391.5" y="-29.5" font-family="Helvetica,sans-Serif" font-size="10.00" fill="#000000">precice::utils::contained</text>
</a>
</g>
</g>
<!-- Node15&#45;&gt;Node17 -->
<g id="edge3" class="edge">
<title>Node15&#45;&gt;Node17</title>
<path fill="none" stroke="#191970" d="M289.157,-44.8293C299.7769,-43.4981 310.6902,-42.13 321.251,-40.8061"/>
<polygon fill="#191970" stroke="#191970" points="321.7603,-44.2698 331.2472,-39.5531 320.8895,-37.3241 321.7603,-44.2698"/>
</g>
</g>
</svg>
