<?xml version="1.0" encoding="UTF-8" standalone="no"?>
<!DOCTYPE svg PUBLIC "-//W3C//DTD SVG 1.1//EN"
 "http://www.w3.org/Graphics/SVG/1.1/DTD/svg11.dtd">
<!-- Generated by graphviz version 2.40.1 (20161225.0304)
 -->
<!-- Title: precice::cplscheme::ParallelCouplingScheme::initializeImplementation Pages: 1 -->
<svg width="529pt" height="230pt"
 viewBox="0.00 0.00 529.00 230.00" xmlns="http://www.w3.org/2000/svg" xmlns:xlink="http://www.w3.org/1999/xlink">
<g id="graph0" class="graph" transform="scale(1 1) rotate(0) translate(4 226)">
<title>precice::cplscheme::ParallelCouplingScheme::initializeImplementation</title>
<polygon fill="#ffffff" stroke="transparent" points="-4,4 -4,-226 525,-226 525,4 -4,4"/>
<!-- Node57 -->
<g id="node1" class="node">
<title>Node57</title>
<polygon fill="#bfbfbf" stroke="#000000" points="0,-90.5 0,-131.5 143,-131.5 143,-90.5 0,-90.5"/>
<text text-anchor="start" x="8" y="-119.5" font-family="Helvetica,sans-Serif" font-size="10.00" fill="#000000">precice::cplscheme</text>
<text text-anchor="start" x="8" y="-108.5" font-family="Helvetica,sans-Serif" font-size="10.00" fill="#000000">::ParallelCouplingScheme</text>
<text text-anchor="middle" x="71.5" y="-97.5" font-family="Helvetica,sans-Serif" font-size="10.00" fill="#000000">::initializeImplementation</text>
</g>
<!-- Node58 -->
<g id="node2" class="node">
<title>Node58</title>
<g id="a_node2"><a xlink:href="classprecice_1_1cplscheme_1_1BaseCouplingScheme.html#a24ea9ccdded53102a8f2b62f6736b012" target="_top" xlink:title="Sets _sendsInitializedData, if sendData requires initialization. ">
<polygon fill="#ffffff" stroke="#000000" points="184.5,-180.5 184.5,-221.5 312.5,-221.5 312.5,-180.5 184.5,-180.5"/>
<text text-anchor="start" x="192.5" y="-209.5" font-family="Helvetica,sans-Serif" font-size="10.00" fill="#000000">precice::cplscheme</text>
<text text-anchor="start" x="192.5" y="-198.5" font-family="Helvetica,sans-Serif" font-size="10.00" fill="#000000">::BaseCouplingScheme</text>
<text text-anchor="middle" x="248.5" y="-187.5" font-family="Helvetica,sans-Serif" font-size="10.00" fill="#000000">::determineInitialSend</text>
</a>
</g>
</g>
<!-- Node57&#45;&gt;Node58 -->
<g id="edge1" class="edge">
<title>Node57&#45;&gt;Node58</title>
<path fill="none" stroke="#191970" d="M106.3638,-131.6424C127.17,-143.6621 154.2733,-158.8021 179,-171 182.545,-172.7488 186.2164,-174.5008 189.9356,-176.2311"/>
<polygon fill="#191970" stroke="#191970" points="188.6833,-179.5067 199.2339,-180.4732 191.5888,-173.1382 188.6833,-179.5067"/>
</g>
<!-- Node60 -->
<g id="node4" class="node">
<title>Node60</title>
<g id="a_node4"><a xlink:href="classprecice_1_1cplscheme_1_1BiCouplingScheme.html#a66197fbf9e9032a824e128cd55aefa7f" target="_top" xlink:title="Returns all data to be sent. ">
<polygon fill="#ffffff" stroke="#000000" points="188.5,-120.5 188.5,-161.5 308.5,-161.5 308.5,-120.5 188.5,-120.5"/>
<text text-anchor="start" x="196.5" y="-149.5" font-family="Helvetica,sans-Serif" font-size="10.00" fill="#000000">precice::cplscheme</text>
<text text-anchor="start" x="196.5" y="-138.5" font-family="Helvetica,sans-Serif" font-size="10.00" fill="#000000">::BiCouplingScheme::</text>
<text text-anchor="middle" x="248.5" y="-127.5" font-family="Helvetica,sans-Serif" font-size="10.00" fill="#000000">getSendData</text>
</a>
</g>
</g>
<!-- Node57&#45;&gt;Node60 -->
<g id="edge3" class="edge">
<title>Node57&#45;&gt;Node60</title>
<path fill="none" stroke="#191970" d="M143.2375,-123.1589C154.7998,-125.1186 166.7582,-127.1455 178.2841,-129.099"/>
<polygon fill="#191970" stroke="#191970" points="177.8363,-132.5729 188.2806,-130.7933 179.0061,-125.6714 177.8363,-132.5729"/>
</g>
<!-- Node61 -->
<g id="node5" class="node">
<title>Node61</title>
<g id="a_node5"><a xlink:href="classprecice_1_1cplscheme_1_1BaseCouplingScheme.html#a197d3c5ee0b7a593c2f71e0884eb33bf" target="_top" xlink:title="Sets _receivesInitializedData, if receiveData requires initialization. ">
<polygon fill="#ffffff" stroke="#000000" points="179,-60.5 179,-101.5 318,-101.5 318,-60.5 179,-60.5"/>
<text text-anchor="start" x="187" y="-89.5" font-family="Helvetica,sans-Serif" font-size="10.00" fill="#000000">precice::cplscheme</text>
<text text-anchor="start" x="187" y="-78.5" font-family="Helvetica,sans-Serif" font-size="10.00" fill="#000000">::BaseCouplingScheme</text>
<text text-anchor="middle" x="248.5" y="-67.5" font-family="Helvetica,sans-Serif" font-size="10.00" fill="#000000">::determineInitialReceive</text>
</a>
</g>
</g>
<!-- Node57&#45;&gt;Node61 -->
<g id="edge4" class="edge">
<title>Node57&#45;&gt;Node61</title>
<path fill="none" stroke="#191970" d="M143.2375,-98.8411C151.7093,-97.4052 160.3938,-95.9333 168.965,-94.4805"/>
<polygon fill="#191970" stroke="#191970" points="169.6808,-97.9092 178.9552,-92.7872 168.5109,-91.0076 169.6808,-97.9092"/>
</g>
<!-- Node62 -->
<g id="node6" class="node">
<title>Node62</title>
<g id="a_node6"><a xlink:href="classprecice_1_1cplscheme_1_1BiCouplingScheme.html#a9f50278c80ab37222105c81b74bb1f7c" target="_top" xlink:title="Returns all data to be received. ">
<polygon fill="#ffffff" stroke="#000000" points="188.5,-.5 188.5,-41.5 308.5,-41.5 308.5,-.5 188.5,-.5"/>
<text text-anchor="start" x="196.5" y="-29.5" font-family="Helvetica,sans-Serif" font-size="10.00" fill="#000000">precice::cplscheme</text>
<text text-anchor="start" x="196.5" y="-18.5" font-family="Helvetica,sans-Serif" font-size="10.00" fill="#000000">::BiCouplingScheme::</text>
<text text-anchor="middle" x="248.5" y="-7.5" font-family="Helvetica,sans-Serif" font-size="10.00" fill="#000000">getReceiveData</text>
</a>
</g>
</g>
<!-- Node57&#45;&gt;Node62 -->
<g id="edge6" class="edge">
<title>Node57&#45;&gt;Node62</title>
<path fill="none" stroke="#191970" d="M106.3638,-90.3576C127.17,-78.3379 154.2733,-63.1979 179,-51 182.545,-49.2512 186.2164,-47.4992 189.9356,-45.7689"/>
<polygon fill="#191970" stroke="#191970" points="191.5888,-48.8618 199.2339,-41.5268 188.6833,-42.4933 191.5888,-48.8618"/>
</g>
<!-- Node59 -->
<g id="node3" class="node">
<title>Node59</title>
<g id="a_node3"><a xlink:href="classprecice_1_1cplscheme_1_1BaseCouplingScheme.html#a6c03bf6ae814ea06faf0ed3b2e3b846f" target="_top" xlink:title="Checks whether any CouplingData in dataMap requires initialization. ">
<polygon fill="#ffffff" stroke="#000000" points="354,-120.5 354,-161.5 521,-161.5 521,-120.5 354,-120.5"/>
<text text-anchor="start" x="362" y="-149.5" font-family="Helvetica,sans-Serif" font-size="10.00" fill="#000000">precice::cplscheme</text>
<text text-anchor="start" x="362" y="-138.5" font-family="Helvetica,sans-Serif" font-size="10.00" fill="#000000">::BaseCouplingScheme</text>
<text text-anchor="middle" x="437.5" y="-127.5" font-family="Helvetica,sans-Serif" font-size="10.00" fill="#000000">::anyDataRequiresInitialization</text>
</a>
</g>
</g>
<!-- Node58&#45;&gt;Node59 -->
<g id="edge2" class="edge">
<title>Node58&#45;&gt;Node59</title>
<path fill="none" stroke="#191970" d="M312.7505,-180.603C328.9423,-175.4628 346.4586,-169.902 363.1025,-164.6182"/>
<polygon fill="#191970" stroke="#191970" points="364.3126,-167.9063 372.7848,-161.5445 362.1945,-161.2344 364.3126,-167.9063"/>
</g>
<!-- Node61&#45;&gt;Node59 -->
<g id="edge5" class="edge">
<title>Node61&#45;&gt;Node59</title>
<path fill="none" stroke="#191970" d="M313.2787,-101.5647C329.3576,-106.6691 346.7145,-112.1792 363.2097,-117.4158"/>
<polygon fill="#191970" stroke="#191970" points="362.2157,-120.7723 372.806,-120.4622 364.3338,-114.1004 362.2157,-120.7723"/>
</g>
</g>
</svg>
