<?xml version="1.0" encoding="UTF-8" standalone="no"?>
<!DOCTYPE svg PUBLIC "-//W3C//DTD SVG 1.1//EN"
 "http://www.w3.org/Graphics/SVG/1.1/DTD/svg11.dtd">
<!-- Generated by graphviz version 2.40.1 (20161225.0304)
 -->
<!-- Title: precice::cplscheme::impl::ResidualRelativeConvergenceMeasure::printState Pages: 1 -->
<svg width="592pt" height="50pt"
 viewBox="0.00 0.00 592.00 50.00" xmlns="http://www.w3.org/2000/svg" xmlns:xlink="http://www.w3.org/1999/xlink">
<g id="graph0" class="graph" transform="scale(1 1) rotate(0) translate(4 46)">
<title>precice::cplscheme::impl::ResidualRelativeConvergenceMeasure::printState</title>
<polygon fill="#ffffff" stroke="transparent" points="-4,4 -4,-46 588,-46 588,4 -4,4"/>
<!-- Node12 -->
<g id="node1" class="node">
<title>Node12</title>
<polygon fill="#bfbfbf" stroke="#000000" points="0,-.5 0,-41.5 195,-41.5 195,-.5 0,-.5"/>
<text text-anchor="start" x="8" y="-29.5" font-family="Helvetica,sans-Serif" font-size="10.00" fill="#000000">precice::cplscheme</text>
<text text-anchor="start" x="8" y="-18.5" font-family="Helvetica,sans-Serif" font-size="10.00" fill="#000000">::impl::ResidualRelativeConvergence</text>
<text text-anchor="middle" x="97.5" y="-7.5" font-family="Helvetica,sans-Serif" font-size="10.00" fill="#000000">Measure::printState</text>
</g>
<!-- Node13 -->
<g id="node2" class="node">
<title>Node13</title>
<g id="a_node2"><a xlink:href="classprecice_1_1cplscheme_1_1impl_1_1ResidualRelativeConvergenceMeasure.html#acd84afa0a7f9901111d0e1582b96eabe" target="_top" xlink:title="Returns the l2&#45;norm of the coupling residuum. ">
<polygon fill="#ffffff" stroke="#000000" points="231,-.5 231,-41.5 426,-41.5 426,-.5 231,-.5"/>
<text text-anchor="start" x="239" y="-29.5" font-family="Helvetica,sans-Serif" font-size="10.00" fill="#000000">precice::cplscheme</text>
<text text-anchor="start" x="239" y="-18.5" font-family="Helvetica,sans-Serif" font-size="10.00" fill="#000000">::impl::ResidualRelativeConvergence</text>
<text text-anchor="middle" x="328.5" y="-7.5" font-family="Helvetica,sans-Serif" font-size="10.00" fill="#000000">Measure::getNormResidual</text>
</a>
</g>
</g>
<!-- Node12&#45;&gt;Node13 -->
<g id="edge1" class="edge">
<title>Node12&#45;&gt;Node13</title>
<path fill="none" stroke="#191970" d="M195.13,-21C203.6263,-21 212.2548,-21 220.8256,-21"/>
<polygon fill="#191970" stroke="#191970" points="220.8491,-24.5001 230.8491,-21 220.8491,-17.5001 220.8491,-24.5001"/>
</g>
<!-- Node14 -->
<g id="node3" class="node">
<title>Node14</title>
<g id="a_node3"><a xlink:href="namespaceprecice_1_1math.html#a0e86802cfe992deba131d789d035b5b7" target="_top" xlink:title="Compares two Eigen::MatrixBase for equality up to tolerance. ">
<polygon fill="#ffffff" stroke="#000000" points="462,-11.5 462,-30.5 584,-30.5 584,-11.5 462,-11.5"/>
<text text-anchor="middle" x="523" y="-18.5" font-family="Helvetica,sans-Serif" font-size="10.00" fill="#000000">precice::math::equals</text>
</a>
</g>
</g>
<!-- Node13&#45;&gt;Node14 -->
<g id="edge2" class="edge">
<title>Node13&#45;&gt;Node14</title>
<path fill="none" stroke="#191970" d="M426.0349,-21C434.7277,-21 443.4175,-21 451.8264,-21"/>
<polygon fill="#191970" stroke="#191970" points="451.9255,-24.5001 461.9255,-21 451.9254,-17.5001 451.9255,-24.5001"/>
</g>
</g>
</svg>
