<?xml version="1.0" encoding="UTF-8" standalone="no"?>
<!DOCTYPE svg PUBLIC "-//W3C//DTD SVG 1.1//EN"
 "http://www.w3.org/Graphics/SVG/1.1/DTD/svg11.dtd">
<!-- Generated by graphviz version 2.40.1 (20161225.0304)
 -->
<!-- Title: precice::cplscheme::CouplingSchemeConfiguration::createSerialExplicitCouplingScheme Pages: 1 -->
<svg width="691pt" height="187pt"
 viewBox="0.00 0.00 691.00 187.06" xmlns="http://www.w3.org/2000/svg" xmlns:xlink="http://www.w3.org/1999/xlink">
<g id="graph0" class="graph" transform="scale(1 1) rotate(0) translate(4 183.0643)">
<title>precice::cplscheme::CouplingSchemeConfiguration::createSerialExplicitCouplingScheme</title>
<polygon fill="#ffffff" stroke="transparent" points="-4,4 -4,-183.0643 687,-183.0643 687,4 -4,4"/>
<!-- Node154 -->
<g id="node1" class="node">
<title>Node154</title>
<polygon fill="#bfbfbf" stroke="#000000" points="0,-90.5 0,-131.5 181,-131.5 181,-90.5 0,-90.5"/>
<text text-anchor="start" x="8" y="-119.5" font-family="Helvetica,sans-Serif" font-size="10.00" fill="#000000">precice::cplscheme</text>
<text text-anchor="start" x="8" y="-108.5" font-family="Helvetica,sans-Serif" font-size="10.00" fill="#000000">::CouplingSchemeConfiguration</text>
<text text-anchor="middle" x="90.5" y="-97.5" font-family="Helvetica,sans-Serif" font-size="10.00" fill="#000000">::createSerialExplicitCouplingScheme</text>
</g>
<!-- Node155 -->
<g id="node2" class="node">
<title>Node155</title>
<g id="a_node2"><a xlink:href="classprecice_1_1cplscheme_1_1CouplingSchemeConfiguration.html#a347f261ca80d960103fccc38ec90ef07" target="_top" xlink:title="Adds configured exchange data to be sent or received to scheme. ">
<polygon fill="#ffffff" stroke="#000000" points="217,-90.5 217,-131.5 372,-131.5 372,-90.5 217,-90.5"/>
<text text-anchor="start" x="225" y="-119.5" font-family="Helvetica,sans-Serif" font-size="10.00" fill="#000000">precice::cplscheme</text>
<text text-anchor="start" x="225" y="-108.5" font-family="Helvetica,sans-Serif" font-size="10.00" fill="#000000">::CouplingSchemeConfiguration</text>
<text text-anchor="middle" x="294.5" y="-97.5" font-family="Helvetica,sans-Serif" font-size="10.00" fill="#000000">::addDataToBeExchanged</text>
</a>
</g>
</g>
<!-- Node154&#45;&gt;Node155 -->
<g id="edge1" class="edge">
<title>Node154&#45;&gt;Node155</title>
<path fill="none" stroke="#191970" d="M181.1654,-111C189.6385,-111 198.2173,-111 206.6639,-111"/>
<polygon fill="#191970" stroke="#191970" points="206.8854,-114.5001 216.8854,-111 206.8853,-107.5001 206.8854,-114.5001"/>
</g>
<!-- Node156 -->
<g id="node3" class="node">
<title>Node156</title>
<g id="a_node3"><a xlink:href="namespaceprecice_1_1utils.html#a434eabaa71f97a31726281a4df77bbcf" target="_top" xlink:title="Returns true, if given element is in vector, otherwise false. ">
<polygon fill="#ffffff" stroke="#000000" points="563,-131.5 563,-150.5 683,-150.5 683,-131.5 563,-131.5"/>
<text text-anchor="middle" x="623" y="-138.5" font-family="Helvetica,sans-Serif" font-size="10.00" fill="#000000">precice::utils::contained</text>
</a>
</g>
</g>
<!-- Node155&#45;&gt;Node156 -->
<g id="edge2" class="edge">
<title>Node155&#45;&gt;Node156</title>
<path fill="none" stroke="#191970" d="M323.7015,-131.5646C345.7194,-145.7528 377.2809,-163.38 408,-171 459.3332,-183.7334 474.7165,-178.979 527,-171 548.4099,-167.7326 571.6085,-160.5892 589.8369,-154.0926"/>
<polygon fill="#191970" stroke="#191970" points="591.2281,-157.3103 599.4095,-150.5786 588.8159,-150.739 591.2281,-157.3103"/>
</g>
<!-- Node157 -->
<g id="node4" class="node">
<title>Node157</title>
<g id="a_node4"><a xlink:href="classprecice_1_1cplscheme_1_1BiCouplingScheme.html#ab9f2175b355f7f27ea2050cc9f424764" target="_top" xlink:title="Adds data to be sent on data exchange and possibly be modified during coupling iterations. ">
<polygon fill="#ffffff" stroke="#000000" points="411.5,-120.5 411.5,-161.5 523.5,-161.5 523.5,-120.5 411.5,-120.5"/>
<text text-anchor="start" x="419.5" y="-149.5" font-family="Helvetica,sans-Serif" font-size="10.00" fill="#000000">precice::cplscheme</text>
<text text-anchor="start" x="419.5" y="-138.5" font-family="Helvetica,sans-Serif" font-size="10.00" fill="#000000">::BiCouplingScheme::</text>
<text text-anchor="middle" x="467.5" y="-127.5" font-family="Helvetica,sans-Serif" font-size="10.00" fill="#000000">addDataToSend</text>
</a>
</g>
</g>
<!-- Node155&#45;&gt;Node157 -->
<g id="edge3" class="edge">
<title>Node155&#45;&gt;Node157</title>
<path fill="none" stroke="#191970" d="M372.1442,-124.4643C381.8411,-126.1459 391.6881,-127.8534 401.1907,-129.5013"/>
<polygon fill="#191970" stroke="#191970" points="400.8925,-133.0017 411.3435,-131.2619 402.0886,-126.1047 400.8925,-133.0017"/>
</g>
<!-- Node158 -->
<g id="node5" class="node">
<title>Node158</title>
<g id="a_node5"><a xlink:href="classprecice_1_1cplscheme_1_1BaseCouplingScheme.html#af880c679675d59efcf00b0b9fd984f6e" target="_top" xlink:title="Getter for _doesFirstStep. ">
<polygon fill="#ffffff" stroke="#000000" points="408,-60.5 408,-101.5 527,-101.5 527,-60.5 408,-60.5"/>
<text text-anchor="start" x="416" y="-89.5" font-family="Helvetica,sans-Serif" font-size="10.00" fill="#000000">precice::cplscheme</text>
<text text-anchor="start" x="416" y="-78.5" font-family="Helvetica,sans-Serif" font-size="10.00" fill="#000000">::BaseCouplingScheme</text>
<text text-anchor="middle" x="467.5" y="-67.5" font-family="Helvetica,sans-Serif" font-size="10.00" fill="#000000">::doesFirstStep</text>
</a>
</g>
</g>
<!-- Node155&#45;&gt;Node158 -->
<g id="edge5" class="edge">
<title>Node155&#45;&gt;Node158</title>
<path fill="none" stroke="#191970" d="M372.1442,-97.5357C380.6376,-96.0628 389.2461,-94.57 397.6375,-93.1149"/>
<polygon fill="#191970" stroke="#191970" points="398.4883,-96.5197 407.7432,-91.3624 397.2922,-89.6226 398.4883,-96.5197"/>
</g>
<!-- Node159 -->
<g id="node6" class="node">
<title>Node159</title>
<g id="a_node6"><a xlink:href="classprecice_1_1cplscheme_1_1BiCouplingScheme.html#ad01869ecafc120a3bf3e8d4964569260" target="_top" xlink:title="Adds data to be received on data exchange. ">
<polygon fill="#ffffff" stroke="#000000" points="411.5,-.5 411.5,-41.5 523.5,-41.5 523.5,-.5 411.5,-.5"/>
<text text-anchor="start" x="419.5" y="-29.5" font-family="Helvetica,sans-Serif" font-size="10.00" fill="#000000">precice::cplscheme</text>
<text text-anchor="start" x="419.5" y="-18.5" font-family="Helvetica,sans-Serif" font-size="10.00" fill="#000000">::BiCouplingScheme::</text>
<text text-anchor="middle" x="467.5" y="-7.5" font-family="Helvetica,sans-Serif" font-size="10.00" fill="#000000">addDataToReceive</text>
</a>
</g>
</g>
<!-- Node155&#45;&gt;Node159 -->
<g id="edge6" class="edge">
<title>Node155&#45;&gt;Node159</title>
<path fill="none" stroke="#191970" d="M333.0151,-90.4035C354.94,-78.7382 382.9474,-63.9361 408,-51 411.0741,-49.4127 414.242,-47.7868 417.4398,-46.153"/>
<polygon fill="#191970" stroke="#191970" points="419.1531,-49.2083 426.4779,-41.5533 415.9782,-42.9697 419.1531,-49.2083"/>
</g>
<!-- Node157&#45;&gt;Node156 -->
<g id="edge4" class="edge">
<title>Node157&#45;&gt;Node156</title>
<path fill="none" stroke="#191970" d="M523.6391,-141C533.0657,-141 542.9528,-141 552.6831,-141"/>
<polygon fill="#191970" stroke="#191970" points="552.7406,-144.5001 562.7406,-141 552.7405,-137.5001 552.7406,-144.5001"/>
</g>
<!-- Node159&#45;&gt;Node156 -->
<g id="edge7" class="edge">
<title>Node159&#45;&gt;Node156</title>
<path fill="none" stroke="#191970" d="M511.868,-41.5761C517.1005,-44.5221 522.2592,-47.686 527,-51 558.293,-72.8748 589.642,-104.5456 607.6372,-123.8992"/>
<polygon fill="#191970" stroke="#191970" points="605.1545,-126.3703 614.4928,-131.375 610.3136,-121.6392 605.1545,-126.3703"/>
</g>
</g>
</svg>
