<?xml version="1.0" encoding="UTF-8" standalone="no"?>
<!DOCTYPE svg PUBLIC "-//W3C//DTD SVG 1.1//EN"
 "http://www.w3.org/Graphics/SVG/1.1/DTD/svg11.dtd">
<!-- Generated by graphviz version 2.40.1 (20161225.0304)
 -->
<!-- Title: precice::cplscheme::BiCouplingScheme Pages: 1 -->
<!--zoomable 325 -->
<svg id="main" version="1.1" xmlns="http://www.w3.org/2000/svg" xmlns:xlink="http://www.w3.org/1999/xlink" xml:space="preserve" onload="init(evt)">
<style type="text/css"><![CDATA[
.edge:hover path { stroke: red; }
.edge:hover polygon { stroke: red; fill: red; }
]]></style>
<script type="text/javascript"><![CDATA[
var edges = document.getElementsByTagName('g');
if (edges && edges.length) {
  for (var i=0;i<edges.length;i++) {
    if (edges[i].id.substr(0,4)=='edge') {
      edges[i].setAttribute('class','edge');
    }
  }
}
]]></script>
        <defs>
                <circle id="rim" cx="0" cy="0" r="7"/>
                <circle id="rim2" cx="0" cy="0" r="3.5"/>
                <g id="zoomPlus">
                        <use xlink:href="#rim" fill="#404040">
                                <set attributeName="fill" to="#808080" begin="zoomplus.mouseover" end="zoomplus.mouseout"/>
                        </use>
                        <path d="M-4,0h8M0,-4v8" fill="none" stroke="white" stroke-width="1.5" pointer-events="none"/>
                </g>
                <g id="zoomMin">
                        <use xlink:href="#rim" fill="#404040">
                                <set attributeName="fill" to="#808080" begin="zoomminus.mouseover" end="zoomminus.mouseout"/>
                        </use>
                        <path d="M-4,0h8" fill="none" stroke="white" stroke-width="1.5" pointer-events="none"/>
                </g>
                <g id="dirArrow">
                        <path fill="none" stroke="white" stroke-width="1.5" d="M0,-3.0v7 M-2.5,-0.5L0,-3.0L2.5,-0.5"/>
                </g>
               <g id="resetDef">
                       <use xlink:href="#rim2" fill="#404040">
                               <set attributeName="fill" to="#808080" begin="reset.mouseover" end="reset.mouseout"/>
                       </use>
               </g>
        </defs>

<script type="text/javascript">
var viewWidth = 1265;
var viewHeight = 325;
var sectionId = 'dynsection-1';
</script>
<script xlink:href="svgpan.js"/>
<svg id="graph" class="graph">
<g id="viewport">
<title>precice::cplscheme::BiCouplingScheme</title>
<polygon fill="#ffffff" stroke="transparent" points="-4,4 -4,-320.5 1261,-320.5 1261,4 -4,4"/>
<!-- Node5 -->
<g id="node1" class="node">
<title>Node5</title>
<polygon fill="#bfbfbf" stroke="#000000" points="1151,-81.5 1151,-111.5 1257,-111.5 1257,-81.5 1151,-81.5"/>
<text text-anchor="start" x="1159" y="-99.5" font-family="Helvetica,sans-Serif" font-size="10.00" fill="#000000">precice::cplscheme</text>
<text text-anchor="middle" x="1204" y="-88.5" font-family="Helvetica,sans-Serif" font-size="10.00" fill="#000000">::BiCouplingScheme</text>
</g>
<!-- Node6 -->
<g id="node2" class="node">
<title>Node6</title>
<g id="a_node2"><a xlink:href="classprecice_1_1cplscheme_1_1BaseCouplingScheme.html" target="_top" xlink:title="Abstract base class for standard coupling schemes. ">
<polygon fill="#ffffff" stroke="#000000" points="929,-127.5 929,-157.5 1048,-157.5 1048,-127.5 929,-127.5"/>
<text text-anchor="start" x="937" y="-145.5" font-family="Helvetica,sans-Serif" font-size="10.00" fill="#000000">precice::cplscheme</text>
<text text-anchor="middle" x="988.5" y="-134.5" font-family="Helvetica,sans-Serif" font-size="10.00" fill="#000000">::BaseCouplingScheme</text>
</a>
</g>
</g>
<!-- Node6&#45;&gt;Node5 -->
<g id="edge1" class="edge">
<title>Node6&#45;&gt;Node5</title>
<path fill="none" stroke="#191970" d="M1058.2399,-127.6135C1088.2776,-121.2018 1122.8357,-113.8251 1150.7617,-107.8641"/>
<polygon fill="#191970" stroke="#191970" points="1057.2916,-124.237 1048.2426,-129.7475 1058.7529,-131.0828 1057.2916,-124.237"/>
</g>
<!-- Node7 -->
<g id="node3" class="node">
<title>Node7</title>
<g id="a_node3"><a xlink:href="classprecice_1_1cplscheme_1_1CouplingScheme.html" target="_top" xlink:title="Interface for all coupling schemes. ">
<polygon fill="#ffffff" stroke="#000000" points="643,-94.5 643,-124.5 744,-124.5 744,-94.5 643,-94.5"/>
<text text-anchor="start" x="651" y="-112.5" font-family="Helvetica,sans-Serif" font-size="10.00" fill="#000000">precice::cplscheme</text>
<text text-anchor="middle" x="693.5" y="-101.5" font-family="Helvetica,sans-Serif" font-size="10.00" fill="#000000">::CouplingScheme</text>
</a>
</g>
</g>
<!-- Node7&#45;&gt;Node6 -->
<g id="edge2" class="edge">
<title>Node7&#45;&gt;Node6</title>
<path fill="none" stroke="#191970" d="M754.4522,-116.3184C805.5416,-122.0335 878.0662,-130.1464 928.801,-135.8218"/>
<polygon fill="#191970" stroke="#191970" points="754.5395,-112.8064 744.2123,-115.1729 753.7612,-119.763 754.5395,-112.8064"/>
</g>
<!-- Node8 -->
<g id="node4" class="node">
<title>Node8</title>
<polygon fill="#ffffff" stroke="#bfbfbf" points="607,-144 607,-185 780,-185 780,-144 607,-144"/>
<text text-anchor="start" x="615" y="-173" font-family="Helvetica,sans-Serif" font-size="10.00" fill="#000000">std::vector&lt; precice</text>
<text text-anchor="start" x="615" y="-162" font-family="Helvetica,sans-Serif" font-size="10.00" fill="#000000">::cplscheme::BaseCouplingScheme</text>
<text text-anchor="middle" x="693.5" y="-151" font-family="Helvetica,sans-Serif" font-size="10.00" fill="#000000">::ConvergenceMeasureContext &gt;</text>
</g>
<!-- Node8&#45;&gt;Node6 -->
<g id="edge3" class="edge">
<title>Node8&#45;&gt;Node6</title>
<path fill="none" stroke="#9a32cd" stroke-dasharray="5,2" d="M790.2383,-157.2856C835.8885,-153.8812 888.9267,-149.9258 928.6531,-146.9632"/>
<polygon fill="#9a32cd" stroke="#9a32cd" points="789.7284,-153.8138 780.0165,-158.0479 790.2491,-160.7944 789.7284,-153.8138"/>
<text text-anchor="middle" x="851.5" y="-158.5" font-family="Helvetica,sans-Serif" font-size="10.00" fill="#000000"> _convergenceMeasures</text>
</g>
<!-- Node9 -->
<g id="node5" class="node">
<title>Node9</title>
<g id="a_node5"><a xlink:href="structprecice_1_1cplscheme_1_1BaseCouplingScheme_1_1ConvergenceMeasureContext.html" target="_top" xlink:title="Holds meta information to perform a convergence measurement. ">
<polygon fill="#ffffff" stroke="#000000" points="376,-144 376,-185 528,-185 528,-144 376,-144"/>
<text text-anchor="start" x="384" y="-173" font-family="Helvetica,sans-Serif" font-size="10.00" fill="#000000">precice::cplscheme</text>
<text text-anchor="start" x="384" y="-162" font-family="Helvetica,sans-Serif" font-size="10.00" fill="#000000">::BaseCouplingScheme</text>
<text text-anchor="middle" x="452" y="-151" font-family="Helvetica,sans-Serif" font-size="10.00" fill="#000000">::ConvergenceMeasureContext</text>
</a>
</g>
</g>
<!-- Node9&#45;&gt;Node8 -->
<g id="edge4" class="edge">
<title>Node9&#45;&gt;Node8</title>
<path fill="none" stroke="#9a32cd" stroke-dasharray="5,2" d="M538.1969,-164.5C560.5044,-164.5 584.5299,-164.5 606.8599,-164.5"/>
<polygon fill="#9a32cd" stroke="#9a32cd" points="538.0807,-161.0001 528.0806,-164.5 538.0806,-168.0001 538.0807,-161.0001"/>
<text text-anchor="middle" x="567.5" y="-167.5" font-family="Helvetica,sans-Serif" font-size="10.00" fill="#000000"> elements</text>
</g>
<!-- Node10 -->
<g id="node6" class="node">
<title>Node10</title>
<g id="a_node6"><a xlink:href="structprecice_1_1cplscheme_1_1CouplingData.html" target="_top" xlink:title="precice::cplscheme\l::CouplingData">
<polygon fill="#ffffff" stroke="#000000" points="168.5,-149.5 168.5,-179.5 269.5,-179.5 269.5,-149.5 168.5,-149.5"/>
<text text-anchor="start" x="176.5" y="-167.5" font-family="Helvetica,sans-Serif" font-size="10.00" fill="#000000">precice::cplscheme</text>
<text text-anchor="middle" x="219" y="-156.5" font-family="Helvetica,sans-Serif" font-size="10.00" fill="#000000">::CouplingData</text>
</a>
</g>
</g>
<!-- Node10&#45;&gt;Node9 -->
<g id="edge5" class="edge">
<title>Node10&#45;&gt;Node9</title>
<path fill="none" stroke="#9a32cd" stroke-dasharray="5,2" d="M279.676,-164.5C309.0634,-164.5 344.657,-164.5 375.8482,-164.5"/>
<polygon fill="#9a32cd" stroke="#9a32cd" points="279.5576,-161.0001 269.5575,-164.5 279.5575,-168.0001 279.5576,-161.0001"/>
<text text-anchor="middle" x="327.5" y="-167.5" font-family="Helvetica,sans-Serif" font-size="10.00" fill="#000000"> couplingData</text>
</g>
<!-- Node11 -->
<g id="node7" class="node">
<title>Node11</title>
<polygon fill="#ffffff" stroke="#bfbfbf" points="638,-251 638,-270 749,-270 749,-251 638,-251"/>
<text text-anchor="middle" x="693.5" y="-258" font-family="Helvetica,sans-Serif" font-size="10.00" fill="#000000">std::set&lt; std::string &gt;</text>
</g>
<!-- Node11&#45;&gt;Node6 -->
<g id="edge6" class="edge">
<title>Node11&#45;&gt;Node6</title>
<path fill="none" stroke="#9a32cd" stroke-dasharray="5,2" d="M759.3933,-264.4321C802.9969,-264.304 860.1791,-258.744 905,-235.5 939.48,-217.6188 966.5656,-179.275 979.7399,-157.8265"/>
<polygon fill="#9a32cd" stroke="#9a32cd" points="759.2045,-260.9309 749.1815,-264.3645 759.1581,-267.9307 759.2045,-260.9309"/>
<text text-anchor="middle" x="851.5" y="-265.5" font-family="Helvetica,sans-Serif" font-size="10.00" fill="#000000"> _actions</text>
</g>
<!-- Node12 -->
<g id="node8" class="node">
<title>Node12</title>
<g id="a_node8"><a xlink:title="STL class. ">
<polygon fill="#ffffff" stroke="#bfbfbf" points="422,-251 422,-270 482,-270 482,-251 422,-251"/>
<text text-anchor="middle" x="452" y="-258" font-family="Helvetica,sans-Serif" font-size="10.00" fill="#000000">std::string</text>
</a>
</g>
</g>
<!-- Node12&#45;&gt;Node5 -->
<g id="edge15" class="edge">
<title>Node12&#45;&gt;Node5</title>
<path fill="none" stroke="#9a32cd" stroke-dasharray="5,2" d="M492.4025,-270.2206C572.8599,-287.7903 758.012,-319.236 905,-276.5 1023.3985,-242.0762 1142.5002,-148.6387 1186.371,-111.7625"/>
<polygon fill="#9a32cd" stroke="#9a32cd" points="492.7338,-266.7085 482.2115,-267.946 491.2088,-273.5404 492.7338,-266.7085"/>
<text text-anchor="middle" x="851.5" y="-308.5" font-family="Helvetica,sans-Serif" font-size="10.00" fill="#000000"> _firstParticipant</text>
<text text-anchor="middle" x="851.5" y="-297.5" font-family="Helvetica,sans-Serif" font-size="10.00" fill="#000000">_secondParticipant</text>
</g>
<!-- Node12&#45;&gt;Node6 -->
<g id="edge13" class="edge">
<title>Node12&#45;&gt;Node6</title>
<path fill="none" stroke="#9a32cd" stroke-dasharray="5,2" d="M492.3174,-252.6348C599.5292,-231.7004 884.8922,-175.8455 905,-170.5 918.89,-166.8074 933.8376,-162.0514 947.1933,-157.5108"/>
<polygon fill="#9a32cd" stroke="#9a32cd" points="491.3601,-249.2556 482.216,-254.6068 492.7014,-256.1259 491.3601,-249.2556"/>
<text text-anchor="middle" x="693.5" y="-231.5" font-family="Helvetica,sans-Serif" font-size="10.00" fill="#000000"> _localParticipant</text>
</g>
<!-- Node12&#45;&gt;Node11 -->
<g id="edge7" class="edge">
<title>Node12&#45;&gt;Node11</title>
<path fill="none" stroke="#9a32cd" stroke-dasharray="5,2" d="M492.2181,-260.5C531.9831,-260.5 593.1623,-260.5 637.6364,-260.5"/>
<polygon fill="#9a32cd" stroke="#9a32cd" points="492.0979,-257.0001 482.0978,-260.5 492.0978,-264.0001 492.0979,-257.0001"/>
<text text-anchor="middle" x="567.5" y="-263.5" font-family="Helvetica,sans-Serif" font-size="10.00" fill="#000000"> keys</text>
</g>
<!-- Node13 -->
<g id="node9" class="node">
<title>Node13</title>
<g id="a_node9"><a xlink:title="STL class. ">
<polygon fill="#ffffff" stroke="#bfbfbf" points="171.5,-245.5 171.5,-275.5 266.5,-275.5 266.5,-245.5 171.5,-245.5"/>
<text text-anchor="start" x="179.5" y="-263.5" font-family="Helvetica,sans-Serif" font-size="10.00" fill="#000000">std::basic_string&lt;</text>
<text text-anchor="middle" x="219" y="-252.5" font-family="Helvetica,sans-Serif" font-size="10.00" fill="#000000"> char &gt;</text>
</a>
</g>
</g>
<!-- Node13&#45;&gt;Node12 -->
<g id="edge8" class="edge">
<title>Node13&#45;&gt;Node12</title>
<path fill="none" stroke="#191970" d="M276.8337,-260.5C322.764,-260.5 385.1566,-260.5 421.7474,-260.5"/>
<polygon fill="#191970" stroke="#191970" points="276.7133,-257.0001 266.7133,-260.5 276.7132,-264.0001 276.7133,-257.0001"/>
</g>
<!-- Node14 -->
<g id="node10" class="node">
<title>Node14</title>
<g id="a_node10"><a xlink:href="classprecice_1_1logging_1_1Logger.html" target="_top" xlink:title="This class provides a leightweight logger. ">
<polygon fill="#ffffff" stroke="#000000" points="633.5,-56 633.5,-75 753.5,-75 753.5,-56 633.5,-56"/>
<text text-anchor="middle" x="693.5" y="-63" font-family="Helvetica,sans-Serif" font-size="10.00" fill="#000000">precice::logging::Logger</text>
</a>
</g>
</g>
<!-- Node14&#45;&gt;Node5 -->
<g id="edge14" class="edge">
<title>Node14&#45;&gt;Node5</title>
<path fill="none" stroke="#9a32cd" stroke-dasharray="5,2" d="M763.5887,-69.7561C866.9455,-76.0324 1057.9905,-87.6336 1150.7257,-93.2649"/>
<polygon fill="#9a32cd" stroke="#9a32cd" points="763.7558,-66.2599 753.562,-69.1473 763.3314,-73.247 763.7558,-66.2599"/>
<text text-anchor="middle" x="988.5" y="-89.5" font-family="Helvetica,sans-Serif" font-size="10.00" fill="#000000"> _log</text>
</g>
<!-- Node14&#45;&gt;Node6 -->
<g id="edge9" class="edge">
<title>Node14&#45;&gt;Node6</title>
<path fill="none" stroke="#9a32cd" stroke-dasharray="5,2" d="M763.646,-75.2048C805.2735,-81.9219 858.7755,-92.2381 905,-106.5 922.9509,-112.0385 942.2557,-120.2068 957.7769,-127.3632"/>
<polygon fill="#9a32cd" stroke="#9a32cd" points="764.026,-71.7215 753.6021,-73.6165 762.9326,-78.6356 764.026,-71.7215"/>
<text text-anchor="middle" x="851.5" y="-109.5" font-family="Helvetica,sans-Serif" font-size="10.00" fill="#000000"> _log</text>
</g>
<!-- Node15 -->
<g id="node11" class="node">
<title>Node15</title>
<polygon fill="#ffffff" stroke="#bfbfbf" points="376,-50.5 376,-80.5 528,-80.5 528,-50.5 376,-50.5"/>
<text text-anchor="start" x="384" y="-68.5" font-family="Helvetica,sans-Serif" font-size="10.00" fill="#000000">std::unique_ptr&lt; precice</text>
<text text-anchor="middle" x="452" y="-57.5" font-family="Helvetica,sans-Serif" font-size="10.00" fill="#000000">::logging::Logger::LoggerImpl &gt;</text>
</g>
<!-- Node15&#45;&gt;Node14 -->
<g id="edge10" class="edge">
<title>Node15&#45;&gt;Node14</title>
<path fill="none" stroke="#9a32cd" stroke-dasharray="5,2" d="M538.1902,-65.5C569.7373,-65.5 604.7211,-65.5 633.487,-65.5"/>
<polygon fill="#9a32cd" stroke="#9a32cd" points="538.0807,-62.0001 528.0806,-65.5 538.0806,-69.0001 538.0807,-62.0001"/>
<text text-anchor="middle" x="567.5" y="-68.5" font-family="Helvetica,sans-Serif" font-size="10.00" fill="#000000"> _impl</text>
</g>
<!-- Node16 -->
<g id="node12" class="node">
<title>Node16</title>
<g id="a_node12"><a xlink:href="classprecice_1_1logging_1_1Logger_1_1LoggerImpl.html" target="_top" xlink:title="precice::logging::Logger\l::LoggerImpl">
<polygon fill="#ffffff" stroke="#000000" points="159,-50.5 159,-80.5 279,-80.5 279,-50.5 159,-50.5"/>
<text text-anchor="start" x="167" y="-68.5" font-family="Helvetica,sans-Serif" font-size="10.00" fill="#000000">precice::logging::Logger</text>
<text text-anchor="middle" x="219" y="-57.5" font-family="Helvetica,sans-Serif" font-size="10.00" fill="#000000">::LoggerImpl</text>
</a>
</g>
</g>
<!-- Node16&#45;&gt;Node15 -->
<g id="edge11" class="edge">
<title>Node16&#45;&gt;Node15</title>
<path fill="none" stroke="#9a32cd" stroke-dasharray="5,2" d="M289.2688,-65.5C316.6128,-65.5 348.0128,-65.5 375.891,-65.5"/>
<polygon fill="#9a32cd" stroke="#9a32cd" points="289.0033,-62.0001 279.0033,-65.5 289.0033,-69.0001 289.0033,-62.0001"/>
<text text-anchor="middle" x="327.5" y="-68.5" font-family="Helvetica,sans-Serif" font-size="10.00" fill="#000000"> ptr</text>
</g>
<!-- Node17 -->
<g id="node13" class="node">
<title>Node17</title>
<polygon fill="#ffffff" stroke="#bfbfbf" points="0,-39.5 0,-91.5 122,-91.5 122,-39.5 0,-39.5"/>
<text text-anchor="start" x="8" y="-79.5" font-family="Helvetica,sans-Serif" font-size="10.00" fill="#000000">boost::log::sources</text>
<text text-anchor="start" x="8" y="-68.5" font-family="Helvetica,sans-Serif" font-size="10.00" fill="#000000">::severity_logger&lt; boost</text>
<text text-anchor="start" x="8" y="-57.5" font-family="Helvetica,sans-Serif" font-size="10.00" fill="#000000">::log::trivial::severity</text>
<text text-anchor="middle" x="61" y="-46.5" font-family="Helvetica,sans-Serif" font-size="10.00" fill="#000000">_level &gt;</text>
</g>
<!-- Node17&#45;&gt;Node16 -->
<g id="edge12" class="edge">
<title>Node17&#45;&gt;Node16</title>
<path fill="none" stroke="#191970" d="M132.0959,-65.5C141.0342,-65.5 150.1088,-65.5 158.8559,-65.5"/>
<polygon fill="#191970" stroke="#191970" points="132.087,-62.0001 122.0869,-65.5 132.0869,-69.0001 132.087,-62.0001"/>
</g>
<!-- Node18 -->
<g id="node14" class="node">
<title>Node18</title>
<polygon fill="#ffffff" stroke="#bfbfbf" points="923,-.5 923,-30.5 1054,-30.5 1054,-.5 923,-.5"/>
<text text-anchor="start" x="931" y="-18.5" font-family="Helvetica,sans-Serif" font-size="10.00" fill="#000000">std::map&lt; int, PtrCoupling</text>
<text text-anchor="middle" x="988.5" y="-7.5" font-family="Helvetica,sans-Serif" font-size="10.00" fill="#000000">Data &gt;</text>
</g>
<!-- Node18&#45;&gt;Node5 -->
<g id="edge16" class="edge">
<title>Node18&#45;&gt;Node5</title>
<path fill="none" stroke="#9a32cd" stroke-dasharray="5,2" d="M1064.1396,-14.9536C1087.0627,-17.1101 1111.7752,-21.8737 1133,-31.5 1157.808,-42.7514 1179.8087,-66.0266 1192.5196,-81.4525"/>
<polygon fill="#9a32cd" stroke="#9a32cd" points="1064.3423,-11.4588 1054.0977,-14.1602 1063.7909,-18.4371 1064.3423,-11.4588"/>
<text text-anchor="middle" x="1102.5" y="-45.5" font-family="Helvetica,sans-Serif" font-size="10.00" fill="#000000"> _receiveData</text>
<text text-anchor="middle" x="1102.5" y="-34.5" font-family="Helvetica,sans-Serif" font-size="10.00" fill="#000000">_sendData</text>
</g>
<!-- Node19 -->
<g id="node15" class="node">
<title>Node19</title>
<polygon fill="#ffffff" stroke="#bfbfbf" points="649,-6 649,-25 738,-25 738,-6 649,-6"/>
<text text-anchor="middle" x="693.5" y="-13" font-family="Helvetica,sans-Serif" font-size="10.00" fill="#000000">PtrCouplingData</text>
</g>
<!-- Node19&#45;&gt;Node18 -->
<g id="edge17" class="edge">
<title>Node19&#45;&gt;Node18</title>
<path fill="none" stroke="#9a32cd" stroke-dasharray="5,2" d="M748.4819,-15.5C797.9044,-15.5 870.5687,-15.5 922.987,-15.5"/>
<polygon fill="#9a32cd" stroke="#9a32cd" points="748.3042,-12.0001 738.3042,-15.5 748.3041,-19.0001 748.3042,-12.0001"/>
<text text-anchor="middle" x="851.5" y="-18.5" font-family="Helvetica,sans-Serif" font-size="10.00" fill="#000000"> elements</text>
</g>
</g>
</svg>
        <g id="navigator" transform="translate(0 0)" fill="#404254">
                <rect fill="#f2f5e9" fill-opacity="0.5" stroke="#606060" stroke-width=".5" x="0" y="0" width="60" height="60"/>
                <use id="zoomplus" xlink:href="#zoomPlus" x="17" y="9" onmousedown="handleZoom(evt,'in')"/>
                <use id="zoomminus" xlink:href="#zoomMin" x="42" y="9" onmousedown="handleZoom(evt,'out')"/>
                <use id="reset" xlink:href="#resetDef" x="30" y="36" onmousedown="handleReset()"/>
                <g id="arrowUp" xlink:href="#dirArrow" transform="translate(30 24)" onmousedown="handlePan(0,-1)">
                  <use xlink:href="#rim" fill="#404040">
                        <set attributeName="fill" to="#808080" begin="arrowUp.mouseover" end="arrowUp.mouseout"/>
                  </use>
                  <path fill="none" stroke="white" stroke-width="1.5" d="M0,-3.0v7 M-2.5,-0.5L0,-3.0L2.5,-0.5"/>
                </g>
                <g id="arrowRight" xlink:href="#dirArrow" transform="rotate(90) translate(36 -43)" onmousedown="handlePan(1,0)">
                  <use xlink:href="#rim" fill="#404040">
                        <set attributeName="fill" to="#808080" begin="arrowRight.mouseover" end="arrowRight.mouseout"/>
                  </use>
                  <path fill="none" stroke="white" stroke-width="1.5" d="M0,-3.0v7 M-2.5,-0.5L0,-3.0L2.5,-0.5"/>
                </g>
                <g id="arrowDown" xlink:href="#dirArrow" transform="rotate(180) translate(-30 -48)" onmousedown="handlePan(0,1)">
                  <use xlink:href="#rim" fill="#404040">
                        <set attributeName="fill" to="#808080" begin="arrowDown.mouseover" end="arrowDown.mouseout"/>
                  </use>
                  <path fill="none" stroke="white" stroke-width="1.5" d="M0,-3.0v7 M-2.5,-0.5L0,-3.0L2.5,-0.5"/>
                </g>
                <g id="arrowLeft" xlink:href="#dirArrow" transform="rotate(270) translate(-36 17)" onmousedown="handlePan(-1,0)">
                  <use xlink:href="#rim" fill="#404040">
                        <set attributeName="fill" to="#808080" begin="arrowLeft.mouseover" end="arrowLeft.mouseout"/>
                  </use>
                  <path fill="none" stroke="white" stroke-width="1.5" d="M0,-3.0v7 M-2.5,-0.5L0,-3.0L2.5,-0.5"/>
                </g>
        </g>
        <svg viewBox="0 0 15 15" width="100%" height="30px" preserveAspectRatio="xMaxYMin meet">
         <g id="arrow_out" transform="scale(0.3 0.3)">
          <a xlink:href="classprecice_1_1cplscheme_1_1BiCouplingScheme__coll__graph_org.svg" target="_base">
           <rect id="button" ry="5" rx="5" y="6" x="6" height="38" width="38"
                fill="#f2f5e9" fill-opacity="0.5" stroke="#606060" stroke-width="1.0"/>
           <path id="arrow"
             d="M 11.500037,31.436501 C 11.940474,20.09759 22.043105,11.32322 32.158766,21.979434 L 37.068811,17.246167 C 37.068811,17.246167 37.088388,32 37.088388,32 L 22.160133,31.978069 C 22.160133,31.978069 26.997745,27.140456 26.997745,27.140456 C 18.528582,18.264221 13.291696,25.230495 11.500037,31.436501 z"
             style="fill:#404040;"/>
          </a>
         </g>
        </svg>
</svg>
