<?xml version="1.0" encoding="UTF-8" standalone="no"?>
<!DOCTYPE svg PUBLIC "-//W3C//DTD SVG 1.1//EN"
 "http://www.w3.org/Graphics/SVG/1.1/DTD/svg11.dtd">
<!-- Generated by graphviz version 2.40.1 (20161225.0304)
 -->
<!-- Title: precice::mapping::RadialBasisFctMapping::tagMeshSecondRound Pages: 1 -->
<!--zoomable 281 -->
<svg id="main" version="1.1" xmlns="http://www.w3.org/2000/svg" xmlns:xlink="http://www.w3.org/1999/xlink" xml:space="preserve" onload="init(evt)">
<style type="text/css"><![CDATA[
.edge:hover path { stroke: red; }
.edge:hover polygon { stroke: red; fill: red; }
]]></style>
<script type="text/javascript"><![CDATA[
var edges = document.getElementsByTagName('g');
if (edges && edges.length) {
  for (var i=0;i<edges.length;i++) {
    if (edges[i].id.substr(0,4)=='edge') {
      edges[i].setAttribute('class','edge');
    }
  }
}
]]></script>
        <defs>
                <circle id="rim" cx="0" cy="0" r="7"/>
                <circle id="rim2" cx="0" cy="0" r="3.5"/>
                <g id="zoomPlus">
                        <use xlink:href="#rim" fill="#404040">
                                <set attributeName="fill" to="#808080" begin="zoomplus.mouseover" end="zoomplus.mouseout"/>
                        </use>
                        <path d="M-4,0h8M0,-4v8" fill="none" stroke="white" stroke-width="1.5" pointer-events="none"/>
                </g>
                <g id="zoomMin">
                        <use xlink:href="#rim" fill="#404040">
                                <set attributeName="fill" to="#808080" begin="zoomminus.mouseover" end="zoomminus.mouseout"/>
                        </use>
                        <path d="M-4,0h8" fill="none" stroke="white" stroke-width="1.5" pointer-events="none"/>
                </g>
                <g id="dirArrow">
                        <path fill="none" stroke="white" stroke-width="1.5" d="M0,-3.0v7 M-2.5,-0.5L0,-3.0L2.5,-0.5"/>
                </g>
               <g id="resetDef">
                       <use xlink:href="#rim2" fill="#404040">
                               <set attributeName="fill" to="#808080" begin="reset.mouseover" end="reset.mouseout"/>
                       </use>
               </g>
        </defs>

<script type="text/javascript">
var viewWidth = 594;
var viewHeight = 281;
var sectionId = 'dynsection-9';
</script>
<script xlink:href="svgpan.js"/>
<svg id="graph" class="graph">
<g id="viewport">
<title>precice::mapping::RadialBasisFctMapping::tagMeshSecondRound</title>
<polygon fill="#ffffff" stroke="transparent" points="-4,4 -4,-277 590,-277 590,4 -4,4"/>
<!-- Node136 -->
<g id="node1" class="node">
<title>Node136</title>
<polygon fill="#bfbfbf" stroke="#000000" points="0,-144.5 0,-174.5 211,-174.5 211,-144.5 0,-144.5"/>
<text text-anchor="start" x="8" y="-162.5" font-family="Helvetica,sans-Serif" font-size="10.00" fill="#000000">precice::mapping::Radial</text>
<text text-anchor="middle" x="105.5" y="-151.5" font-family="Helvetica,sans-Serif" font-size="10.00" fill="#000000">BasisFctMapping::tagMeshSecondRound</text>
</g>
<!-- Node137 -->
<g id="node2" class="node">
<title>Node137</title>
<g id="a_node2"><a xlink:href="classprecice_1_1mapping_1_1Mapping.html#a6afbd9aaac2ab09b078db271cfd977a1" target="_top" xlink:title="Returns the constraint (consistent/conservative) of the mapping. ">
<polygon fill="#ffffff" stroke="#000000" points="247,-242.5 247,-272.5 395,-272.5 395,-242.5 247,-242.5"/>
<text text-anchor="start" x="255" y="-260.5" font-family="Helvetica,sans-Serif" font-size="10.00" fill="#000000">precice::mapping::Mapping</text>
<text text-anchor="middle" x="321" y="-249.5" font-family="Helvetica,sans-Serif" font-size="10.00" fill="#000000">::getConstraint</text>
</a>
</g>
</g>
<!-- Node136&#45;&gt;Node137 -->
<g id="edge1" class="edge">
<title>Node136&#45;&gt;Node137</title>
<path fill="none" stroke="#191970" d="M131.2042,-174.6257C159.0834,-190.628 205.2119,-215.9436 247,-233.5 251.6285,-235.4446 256.4731,-237.3305 261.3734,-239.1337"/>
<polygon fill="#191970" stroke="#191970" points="260.2289,-242.4413 270.8236,-242.4932 262.5736,-235.8457 260.2289,-242.4413"/>
</g>
<!-- Node138 -->
<g id="node3" class="node">
<title>Node138</title>
<g id="a_node3"><a xlink:href="classprecice_1_1mapping_1_1Mapping.html#a61c3c55af467ada2bdd735efa0f960e4" target="_top" xlink:title="Returns pointer to input mesh. ">
<polygon fill="#ffffff" stroke="#000000" points="247,-193.5 247,-223.5 395,-223.5 395,-193.5 247,-193.5"/>
<text text-anchor="start" x="255" y="-211.5" font-family="Helvetica,sans-Serif" font-size="10.00" fill="#000000">precice::mapping::Mapping</text>
<text text-anchor="middle" x="321" y="-200.5" font-family="Helvetica,sans-Serif" font-size="10.00" fill="#000000">::input</text>
</a>
</g>
</g>
<!-- Node136&#45;&gt;Node138 -->
<g id="edge2" class="edge">
<title>Node136&#45;&gt;Node138</title>
<path fill="none" stroke="#191970" d="M171.6216,-174.5346C194.8926,-179.8259 221.2247,-185.8133 245.2285,-191.2712"/>
<polygon fill="#191970" stroke="#191970" points="244.4763,-194.6894 255.0034,-193.4938 246.0283,-187.8637 244.4763,-194.6894"/>
</g>
<!-- Node139 -->
<g id="node4" class="node">
<title>Node139</title>
<g id="a_node4"><a xlink:href="classprecice_1_1mapping_1_1Mapping.html#a07a71a54b71eda6d54510c94fb188e70" target="_top" xlink:title="Returns pointer to output mesh. ">
<polygon fill="#ffffff" stroke="#000000" points="247,-144.5 247,-174.5 395,-174.5 395,-144.5 247,-144.5"/>
<text text-anchor="start" x="255" y="-162.5" font-family="Helvetica,sans-Serif" font-size="10.00" fill="#000000">precice::mapping::Mapping</text>
<text text-anchor="middle" x="321" y="-151.5" font-family="Helvetica,sans-Serif" font-size="10.00" fill="#000000">::output</text>
</a>
</g>
</g>
<!-- Node136&#45;&gt;Node139 -->
<g id="edge3" class="edge">
<title>Node136&#45;&gt;Node139</title>
<path fill="none" stroke="#191970" d="M211.0404,-159.5C219.6077,-159.5 228.1936,-159.5 236.5814,-159.5"/>
<polygon fill="#191970" stroke="#191970" points="236.6999,-163.0001 246.6998,-159.5 236.6998,-156.0001 236.6999,-163.0001"/>
</g>
<!-- Node140 -->
<g id="node5" class="node">
<title>Node140</title>
<g id="a_node5"><a xlink:href="classprecice_1_1mesh_1_1rtree.html#ac6dfbccfdc0f44db236c6f08276a6beb" target="_top" xlink:title="Returns the pointer to boost::geometry::rtree for the given mesh vertices. ">
<polygon fill="#ffffff" stroke="#000000" points="264,-95.5 264,-125.5 378,-125.5 378,-95.5 264,-95.5"/>
<text text-anchor="start" x="272" y="-113.5" font-family="Helvetica,sans-Serif" font-size="10.00" fill="#000000">precice::mesh::rtree</text>
<text text-anchor="middle" x="321" y="-102.5" font-family="Helvetica,sans-Serif" font-size="10.00" fill="#000000">::getVertexRTree</text>
</a>
</g>
</g>
<!-- Node136&#45;&gt;Node140 -->
<g id="edge4" class="edge">
<title>Node136&#45;&gt;Node140</title>
<path fill="none" stroke="#191970" d="M171.6216,-144.4654C197.7324,-138.5284 227.6972,-131.715 253.9026,-125.7565"/>
<polygon fill="#191970" stroke="#191970" points="254.7711,-129.1484 263.7462,-123.5183 253.219,-122.3226 254.7711,-129.1484"/>
</g>
<!-- Node142 -->
<g id="node7" class="node">
<title>Node142</title>
<g id="a_node7"><a xlink:href="namespaceprecice_1_1mesh.html#a0452789fc8b424b1e27b3bc0dcd9a79d" target="_top" xlink:title="precice::mesh::toRTreeBox">
<polygon fill="#ffffff" stroke="#000000" points="248,-55 248,-74 394,-74 394,-55 248,-55"/>
<text text-anchor="middle" x="321" y="-62" font-family="Helvetica,sans-Serif" font-size="10.00" fill="#000000">precice::mesh::toRTreeBox</text>
</a>
</g>
</g>
<!-- Node136&#45;&gt;Node142 -->
<g id="edge6" class="edge">
<title>Node136&#45;&gt;Node142</title>
<path fill="none" stroke="#191970" d="M131.1498,-144.4045C158.983,-128.4712 205.0728,-103.3743 247,-86.5 255.6745,-83.0088 265.1168,-79.7866 274.2643,-76.946"/>
<polygon fill="#191970" stroke="#191970" points="275.4513,-80.2441 284.0242,-74.0188 273.4403,-73.5392 275.4513,-80.2441"/>
</g>
<!-- Node141 -->
<g id="node6" class="node">
<title>Node141</title>
<g id="a_node6"><a xlink:href="classprecice_1_1mesh_1_1rtree.html#a1910046b733558367c5fc9022feef35e" target="_top" xlink:title="precice::mesh::rtree\l::cacheEntry">
<polygon fill="#ffffff" stroke="#000000" points="451.5,-98.5 451.5,-128.5 565.5,-128.5 565.5,-98.5 451.5,-98.5"/>
<text text-anchor="start" x="459.5" y="-116.5" font-family="Helvetica,sans-Serif" font-size="10.00" fill="#000000">precice::mesh::rtree</text>
<text text-anchor="middle" x="508.5" y="-105.5" font-family="Helvetica,sans-Serif" font-size="10.00" fill="#000000">::cacheEntry</text>
</a>
</g>
</g>
<!-- Node140&#45;&gt;Node141 -->
<g id="edge5" class="edge">
<title>Node140&#45;&gt;Node141</title>
<path fill="none" stroke="#191970" d="M378.0199,-111.4123C398.0193,-111.7323 420.6678,-112.0947 441.4156,-112.4267"/>
<polygon fill="#191970" stroke="#191970" points="441.3736,-115.9263 451.4283,-112.5869 441.4856,-108.9272 441.3736,-115.9263"/>
</g>
<!-- Node143 -->
<g id="node8" class="node">
<title>Node143</title>
<g id="a_node8"><a xlink:href="classprecice_1_1mesh_1_1BoundingBox.html#a194a2fb80fd24fad4555df2a2453dac5" target="_top" xlink:title="the min corner of the bounding box ">
<polygon fill="#ffffff" stroke="#000000" points="431,-49.5 431,-79.5 586,-79.5 586,-49.5 431,-49.5"/>
<text text-anchor="start" x="439" y="-67.5" font-family="Helvetica,sans-Serif" font-size="10.00" fill="#000000">precice::mesh::BoundingBox</text>
<text text-anchor="middle" x="508.5" y="-56.5" font-family="Helvetica,sans-Serif" font-size="10.00" fill="#000000">::minCorner</text>
</a>
</g>
</g>
<!-- Node142&#45;&gt;Node143 -->
<g id="edge7" class="edge">
<title>Node142&#45;&gt;Node143</title>
<path fill="none" stroke="#191970" d="M394.0293,-64.5C402.7703,-64.5 411.7643,-64.5 420.6863,-64.5"/>
<polygon fill="#191970" stroke="#191970" points="420.7116,-68.0001 430.7116,-64.5 420.7115,-61.0001 420.7116,-68.0001"/>
</g>
<!-- Node144 -->
<g id="node9" class="node">
<title>Node144</title>
<g id="a_node9"><a xlink:href="classprecice_1_1mesh_1_1BoundingBox.html#a14cd5dbd1775876bf5795845699557d8" target="_top" xlink:title="the max corner of the bounding box ">
<polygon fill="#ffffff" stroke="#000000" points="431,-.5 431,-30.5 586,-30.5 586,-.5 431,-.5"/>
<text text-anchor="start" x="439" y="-18.5" font-family="Helvetica,sans-Serif" font-size="10.00" fill="#000000">precice::mesh::BoundingBox</text>
<text text-anchor="middle" x="508.5" y="-7.5" font-family="Helvetica,sans-Serif" font-size="10.00" fill="#000000">::maxCorner</text>
</a>
</g>
</g>
<!-- Node142&#45;&gt;Node144 -->
<g id="edge8" class="edge">
<title>Node142&#45;&gt;Node144</title>
<path fill="none" stroke="#191970" d="M357.597,-54.936C381.3351,-48.7324 412.9787,-40.4629 441.1568,-33.099"/>
<polygon fill="#191970" stroke="#191970" points="442.1705,-36.4517 450.9606,-30.537 440.4005,-29.6792 442.1705,-36.4517"/>
</g>
</g>
</svg>
        <g id="navigator" transform="translate(0 0)" fill="#404254">
                <rect fill="#f2f5e9" fill-opacity="0.5" stroke="#606060" stroke-width=".5" x="0" y="0" width="60" height="60"/>
                <use id="zoomplus" xlink:href="#zoomPlus" x="17" y="9" onmousedown="handleZoom(evt,'in')"/>
                <use id="zoomminus" xlink:href="#zoomMin" x="42" y="9" onmousedown="handleZoom(evt,'out')"/>
                <use id="reset" xlink:href="#resetDef" x="30" y="36" onmousedown="handleReset()"/>
                <g id="arrowUp" xlink:href="#dirArrow" transform="translate(30 24)" onmousedown="handlePan(0,-1)">
                  <use xlink:href="#rim" fill="#404040">
                        <set attributeName="fill" to="#808080" begin="arrowUp.mouseover" end="arrowUp.mouseout"/>
                  </use>
                  <path fill="none" stroke="white" stroke-width="1.5" d="M0,-3.0v7 M-2.5,-0.5L0,-3.0L2.5,-0.5"/>
                </g>
                <g id="arrowRight" xlink:href="#dirArrow" transform="rotate(90) translate(36 -43)" onmousedown="handlePan(1,0)">
                  <use xlink:href="#rim" fill="#404040">
                        <set attributeName="fill" to="#808080" begin="arrowRight.mouseover" end="arrowRight.mouseout"/>
                  </use>
                  <path fill="none" stroke="white" stroke-width="1.5" d="M0,-3.0v7 M-2.5,-0.5L0,-3.0L2.5,-0.5"/>
                </g>
                <g id="arrowDown" xlink:href="#dirArrow" transform="rotate(180) translate(-30 -48)" onmousedown="handlePan(0,1)">
                  <use xlink:href="#rim" fill="#404040">
                        <set attributeName="fill" to="#808080" begin="arrowDown.mouseover" end="arrowDown.mouseout"/>
                  </use>
                  <path fill="none" stroke="white" stroke-width="1.5" d="M0,-3.0v7 M-2.5,-0.5L0,-3.0L2.5,-0.5"/>
                </g>
                <g id="arrowLeft" xlink:href="#dirArrow" transform="rotate(270) translate(-36 17)" onmousedown="handlePan(-1,0)">
                  <use xlink:href="#rim" fill="#404040">
                        <set attributeName="fill" to="#808080" begin="arrowLeft.mouseover" end="arrowLeft.mouseout"/>
                  </use>
                  <path fill="none" stroke="white" stroke-width="1.5" d="M0,-3.0v7 M-2.5,-0.5L0,-3.0L2.5,-0.5"/>
                </g>
        </g>
        <svg viewBox="0 0 15 15" width="100%" height="30px" preserveAspectRatio="xMaxYMin meet">
         <g id="arrow_out" transform="scale(0.3 0.3)">
          <a xlink:href="classprecice_1_1mapping_1_1RadialBasisFctMapping_af06149d7c4ab016d0bd8ff19c2924e74_cgraph_org.svg" target="_base">
           <rect id="button" ry="5" rx="5" y="6" x="6" height="38" width="38"
                fill="#f2f5e9" fill-opacity="0.5" stroke="#606060" stroke-width="1.0"/>
           <path id="arrow"
             d="M 11.500037,31.436501 C 11.940474,20.09759 22.043105,11.32322 32.158766,21.979434 L 37.068811,17.246167 C 37.068811,17.246167 37.088388,32 37.088388,32 L 22.160133,31.978069 C 22.160133,31.978069 26.997745,27.140456 26.997745,27.140456 C 18.528582,18.264221 13.291696,25.230495 11.500037,31.436501 z"
             style="fill:#404040;"/>
          </a>
         </g>
        </svg>
</svg>
