<?xml version="1.0" encoding="UTF-8" standalone="no"?>
<!DOCTYPE svg PUBLIC "-//W3C//DTD SVG 1.1//EN"
 "http://www.w3.org/Graphics/SVG/1.1/DTD/svg11.dtd">
<!-- Generated by graphviz version 2.40.1 (20161225.0304)
 -->
<!-- Title: precice::mapping::Mapping::~Mapping Pages: 1 -->
<!--zoomable 884 -->
<svg id="main" version="1.1" xmlns="http://www.w3.org/2000/svg" xmlns:xlink="http://www.w3.org/1999/xlink" xml:space="preserve" onload="init(evt)">
<style type="text/css"><![CDATA[
.edge:hover path { stroke: red; }
.edge:hover polygon { stroke: red; fill: red; }
]]></style>
<script type="text/javascript"><![CDATA[
var edges = document.getElementsByTagName('g');
if (edges && edges.length) {
  for (var i=0;i<edges.length;i++) {
    if (edges[i].id.substr(0,4)=='edge') {
      edges[i].setAttribute('class','edge');
    }
  }
}
]]></script>
        <defs>
                <circle id="rim" cx="0" cy="0" r="7"/>
                <circle id="rim2" cx="0" cy="0" r="3.5"/>
                <g id="zoomPlus">
                        <use xlink:href="#rim" fill="#404040">
                                <set attributeName="fill" to="#808080" begin="zoomplus.mouseover" end="zoomplus.mouseout"/>
                        </use>
                        <path d="M-4,0h8M0,-4v8" fill="none" stroke="white" stroke-width="1.5" pointer-events="none"/>
                </g>
                <g id="zoomMin">
                        <use xlink:href="#rim" fill="#404040">
                                <set attributeName="fill" to="#808080" begin="zoomminus.mouseover" end="zoomminus.mouseout"/>
                        </use>
                        <path d="M-4,0h8" fill="none" stroke="white" stroke-width="1.5" pointer-events="none"/>
                </g>
                <g id="dirArrow">
                        <path fill="none" stroke="white" stroke-width="1.5" d="M0,-3.0v7 M-2.5,-0.5L0,-3.0L2.5,-0.5"/>
                </g>
               <g id="resetDef">
                       <use xlink:href="#rim2" fill="#404040">
                               <set attributeName="fill" to="#808080" begin="reset.mouseover" end="reset.mouseout"/>
                       </use>
               </g>
        </defs>

<script type="text/javascript">
var viewWidth = 552;
var viewHeight = 884;
var sectionId = 'dynsection-1';
</script>
<script xlink:href="svgpan.js"/>
<svg id="graph" class="graph">
<g id="viewport">
<title>precice::mapping::Mapping::~Mapping</title>
<polygon fill="#ffffff" stroke="transparent" points="-4,4 -4,-880.419 548,-880.419 548,4 -4,4"/>
<!-- Node1 -->
<g id="node1" class="node">
<title>Node1</title>
<polygon fill="#bfbfbf" stroke="#000000" points="0,-431.5 0,-461.5 148,-461.5 148,-431.5 0,-431.5"/>
<text text-anchor="start" x="8" y="-449.5" font-family="Helvetica,sans-Serif" font-size="10.00" fill="#000000">precice::mapping::Mapping</text>
<text text-anchor="middle" x="74" y="-438.5" font-family="Helvetica,sans-Serif" font-size="10.00" fill="#000000">::~Mapping</text>
</g>
<!-- Node2 -->
<g id="node2" class="node">
<title>Node2</title>
<g id="a_node2"><a xlink:href="classprecice_1_1mapping_1_1Mapping.html#a5bf2ecf9adb1ae66977c1223f841a61f" target="_top" xlink:title="Sets input and output meshes carrying data to be mapped. ">
<polygon fill="#ffffff" stroke="#000000" points="198,-793.5 198,-823.5 346,-823.5 346,-793.5 198,-793.5"/>
<text text-anchor="start" x="206" y="-811.5" font-family="Helvetica,sans-Serif" font-size="10.00" fill="#000000">precice::mapping::Mapping</text>
<text text-anchor="middle" x="272" y="-800.5" font-family="Helvetica,sans-Serif" font-size="10.00" fill="#000000">::setMeshes</text>
</a>
</g>
</g>
<!-- Node1&#45;&gt;Node2 -->
<g id="edge1" class="edge">
<title>Node1&#45;&gt;Node2</title>
<path fill="none" stroke="#191970" d="M74.4709,-461.8218C76.902,-513.8358 91.8728,-685.5761 184,-778.5 187.6703,-782.202 191.8152,-785.4475 196.2564,-788.2926"/>
<polygon fill="#191970" stroke="#191970" points="194.6855,-791.4248 205.1157,-793.2853 198.1222,-785.3265 194.6855,-791.4248"/>
</g>
<!-- Node3 -->
<g id="node3" class="node">
<title>Node3</title>
<g id="a_node3"><a xlink:href="classprecice_1_1mapping_1_1Mapping.html#a61c3c55af467ada2bdd735efa0f960e4" target="_top" xlink:title="Returns pointer to input mesh. ">
<polygon fill="#ffffff" stroke="#000000" points="396,-840.5 396,-870.5 544,-870.5 544,-840.5 396,-840.5"/>
<text text-anchor="start" x="404" y="-858.5" font-family="Helvetica,sans-Serif" font-size="10.00" fill="#000000">precice::mapping::Mapping</text>
<text text-anchor="middle" x="470" y="-847.5" font-family="Helvetica,sans-Serif" font-size="10.00" fill="#000000">::input</text>
</a>
</g>
</g>
<!-- Node1&#45;&gt;Node3 -->
<g id="edge4" class="edge">
<title>Node1&#45;&gt;Node3</title>
<path fill="none" stroke="#191970" d="M76.0065,-461.677C84.9861,-527.1345 123.7027,-784.2074 184,-833.5 241.0663,-880.1514 327.7477,-880.2124 390.7236,-871.9625"/>
<polygon fill="#191970" stroke="#191970" points="391.5973,-875.3741 401.0116,-870.514 390.6213,-868.4425 391.5973,-875.3741"/>
</g>
<!-- Node4 -->
<g id="node4" class="node">
<title>Node4</title>
<g id="a_node4"><a xlink:href="classprecice_1_1mapping_1_1Mapping.html#a07a71a54b71eda6d54510c94fb188e70" target="_top" xlink:title="Returns pointer to output mesh. ">
<polygon fill="#ffffff" stroke="#000000" points="396,-791.5 396,-821.5 544,-821.5 544,-791.5 396,-791.5"/>
<text text-anchor="start" x="404" y="-809.5" font-family="Helvetica,sans-Serif" font-size="10.00" fill="#000000">precice::mapping::Mapping</text>
<text text-anchor="middle" x="470" y="-798.5" font-family="Helvetica,sans-Serif" font-size="10.00" fill="#000000">::output</text>
</a>
</g>
</g>
<!-- Node1&#45;&gt;Node4 -->
<g id="edge5" class="edge">
<title>Node1&#45;&gt;Node4</title>
<path fill="none" stroke="#191970" d="M74.6888,-461.7427C77.7858,-511.1213 94.561,-667.9684 184,-745.5 187.911,-748.8903 302.955,-772.7263 385.9197,-789.5762"/>
<polygon fill="#191970" stroke="#191970" points="385.3725,-793.0364 395.8687,-791.5946 386.7643,-786.1762 385.3725,-793.0364"/>
</g>
<!-- Node5 -->
<g id="node5" class="node">
<title>Node5</title>
<g id="a_node5"><a xlink:href="classprecice_1_1mapping_1_1Mapping.html#ae059d2ac4c7e0ed84763466d74541876" target="_top" xlink:title="precice::mapping::Mapping\l::getInputMesh">
<polygon fill="#ffffff" stroke="#000000" points="198,-617.5 198,-647.5 346,-647.5 346,-617.5 198,-617.5"/>
<text text-anchor="start" x="206" y="-635.5" font-family="Helvetica,sans-Serif" font-size="10.00" fill="#000000">precice::mapping::Mapping</text>
<text text-anchor="middle" x="272" y="-624.5" font-family="Helvetica,sans-Serif" font-size="10.00" fill="#000000">::getInputMesh</text>
</a>
</g>
</g>
<!-- Node1&#45;&gt;Node5 -->
<g id="edge6" class="edge">
<title>Node1&#45;&gt;Node5</title>
<path fill="none" stroke="#191970" d="M79.946,-461.6537C93.3784,-493.8619 129.2271,-569.3745 184,-608.5 186.0859,-609.99 188.2599,-611.3875 190.5024,-612.6983"/>
<polygon fill="#191970" stroke="#191970" points="188.962,-615.8421 199.451,-617.3363 192.1832,-609.6272 188.962,-615.8421"/>
</g>
<!-- Node6 -->
<g id="node6" class="node">
<title>Node6</title>
<g id="a_node6"><a xlink:href="classprecice_1_1mapping_1_1Mapping.html#ac616b61af159cde172a3f75dafb053de" target="_top" xlink:title="precice::mapping::Mapping\l::getOutputMesh">
<polygon fill="#ffffff" stroke="#000000" points="198,-568.5 198,-598.5 346,-598.5 346,-568.5 198,-568.5"/>
<text text-anchor="start" x="206" y="-586.5" font-family="Helvetica,sans-Serif" font-size="10.00" fill="#000000">precice::mapping::Mapping</text>
<text text-anchor="middle" x="272" y="-575.5" font-family="Helvetica,sans-Serif" font-size="10.00" fill="#000000">::getOutputMesh</text>
</a>
</g>
</g>
<!-- Node1&#45;&gt;Node6 -->
<g id="edge7" class="edge">
<title>Node1&#45;&gt;Node6</title>
<path fill="none" stroke="#191970" d="M84.6846,-461.6284C102.5035,-485.7366 140.6406,-532.7676 184,-558.5 187.6109,-560.6429 191.4145,-562.6099 195.3325,-564.4144"/>
<polygon fill="#191970" stroke="#191970" points="194.0707,-567.6807 204.6453,-568.3363 196.7876,-561.2294 194.0707,-567.6807"/>
</g>
<!-- Node7 -->
<g id="node7" class="node">
<title>Node7</title>
<g id="a_node7"><a xlink:href="classprecice_1_1mapping_1_1Mapping.html#a6afbd9aaac2ab09b078db271cfd977a1" target="_top" xlink:title="Returns the constraint (consistent/conservative) of the mapping. ">
<polygon fill="#ffffff" stroke="#000000" points="396,-493.5 396,-523.5 544,-523.5 544,-493.5 396,-493.5"/>
<text text-anchor="start" x="404" y="-511.5" font-family="Helvetica,sans-Serif" font-size="10.00" fill="#000000">precice::mapping::Mapping</text>
<text text-anchor="middle" x="470" y="-500.5" font-family="Helvetica,sans-Serif" font-size="10.00" fill="#000000">::getConstraint</text>
</a>
</g>
</g>
<!-- Node1&#45;&gt;Node7 -->
<g id="edge8" class="edge">
<title>Node1&#45;&gt;Node7</title>
<path fill="none" stroke="#191970" d="M138.6785,-461.5451C153.5225,-464.7378 169.2713,-467.9193 184,-470.5 251.6037,-482.3452 328.7738,-492.3968 385.9019,-499.1812"/>
<polygon fill="#191970" stroke="#191970" points="385.628,-502.6731 395.9689,-500.3676 386.4473,-495.7212 385.628,-502.6731"/>
</g>
<!-- Node8 -->
<g id="node8" class="node">
<title>Node8</title>
<g id="a_node8"><a xlink:href="classprecice_1_1mapping_1_1Mapping.html#adac8e8495d0be786a66dbec963119737" target="_top" xlink:title="Returns the requirement on the input mesh. ">
<polygon fill="#ffffff" stroke="#000000" points="198,-431.5 198,-461.5 346,-461.5 346,-431.5 198,-431.5"/>
<text text-anchor="start" x="206" y="-449.5" font-family="Helvetica,sans-Serif" font-size="10.00" fill="#000000">precice::mapping::Mapping</text>
<text text-anchor="middle" x="272" y="-438.5" font-family="Helvetica,sans-Serif" font-size="10.00" fill="#000000">::getInputRequirement</text>
</a>
</g>
</g>
<!-- Node1&#45;&gt;Node8 -->
<g id="edge9" class="edge">
<title>Node1&#45;&gt;Node8</title>
<path fill="none" stroke="#191970" d="M148.0095,-446.5C160.9639,-446.5 174.5293,-446.5 187.7367,-446.5"/>
<polygon fill="#191970" stroke="#191970" points="187.7507,-450.0001 197.7506,-446.5 187.7506,-443.0001 187.7507,-450.0001"/>
</g>
<!-- Node9 -->
<g id="node9" class="node">
<title>Node9</title>
<g id="a_node9"><a xlink:href="classprecice_1_1mapping_1_1Mapping.html#ae731622a3333e7931b8de3f6b1a0d376" target="_top" xlink:title="Returns the requirement on the output mesh. ">
<polygon fill="#ffffff" stroke="#000000" points="198,-382.5 198,-412.5 346,-412.5 346,-382.5 198,-382.5"/>
<text text-anchor="start" x="206" y="-400.5" font-family="Helvetica,sans-Serif" font-size="10.00" fill="#000000">precice::mapping::Mapping</text>
<text text-anchor="middle" x="272" y="-389.5" font-family="Helvetica,sans-Serif" font-size="10.00" fill="#000000">::getOutputRequirement</text>
</a>
</g>
</g>
<!-- Node1&#45;&gt;Node9 -->
<g id="edge10" class="edge">
<title>Node1&#45;&gt;Node9</title>
<path fill="none" stroke="#191970" d="M134.7521,-431.4654C155.8482,-426.2446 179.6824,-420.3463 201.4983,-414.9474"/>
<polygon fill="#191970" stroke="#191970" points="202.4964,-418.306 211.3628,-412.5062 200.8148,-411.511 202.4964,-418.306"/>
</g>
<!-- Node10 -->
<g id="node10" class="node">
<title>Node10</title>
<g id="a_node10"><a xlink:href="classprecice_1_1mapping_1_1Mapping.html#abf2679ec4bbb86bd2380b088528cc1ff" target="_top" xlink:title="Computes the mapping coefficients from the in&#45; and output mesh. ">
<polygon fill="#ffffff" stroke="#000000" points="198,-333.5 198,-363.5 346,-363.5 346,-333.5 198,-333.5"/>
<text text-anchor="start" x="206" y="-351.5" font-family="Helvetica,sans-Serif" font-size="10.00" fill="#000000">precice::mapping::Mapping</text>
<text text-anchor="middle" x="272" y="-340.5" font-family="Helvetica,sans-Serif" font-size="10.00" fill="#000000">::computeMapping</text>
</a>
</g>
</g>
<!-- Node1&#45;&gt;Node10 -->
<g id="edge11" class="edge">
<title>Node1&#45;&gt;Node10</title>
<path fill="none" stroke="#191970" d="M92.3456,-431.3882C113.3206,-414.7948 149.2585,-388.4004 184,-372.5 188.3603,-370.5044 192.9203,-368.6451 197.5718,-366.9178"/>
<polygon fill="#191970" stroke="#191970" points="198.9232,-370.1533 207.2135,-363.5562 196.6186,-363.5435 198.9232,-370.1533"/>
</g>
<!-- Node11 -->
<g id="node11" class="node">
<title>Node11</title>
<g id="a_node11"><a xlink:href="classprecice_1_1mapping_1_1Mapping.html#ae7fcb351e225322b05e4cd7c45215b52" target="_top" xlink:title="Returns true, if the mapping has been computed. ">
<polygon fill="#ffffff" stroke="#000000" points="198,-284.5 198,-314.5 346,-314.5 346,-284.5 198,-284.5"/>
<text text-anchor="start" x="206" y="-302.5" font-family="Helvetica,sans-Serif" font-size="10.00" fill="#000000">precice::mapping::Mapping</text>
<text text-anchor="middle" x="272" y="-291.5" font-family="Helvetica,sans-Serif" font-size="10.00" fill="#000000">::hasComputedMapping</text>
</a>
</g>
</g>
<!-- Node1&#45;&gt;Node11 -->
<g id="edge12" class="edge">
<title>Node1&#45;&gt;Node11</title>
<path fill="none" stroke="#191970" d="M83.1962,-431.4852C99.9367,-405.4451 137.9452,-351.971 184,-323.5 186.7613,-321.793 189.6446,-320.2054 192.6128,-318.7292"/>
<polygon fill="#191970" stroke="#191970" points="194.0504,-321.9204 201.7345,-314.6262 191.1788,-315.5365 194.0504,-321.9204"/>
</g>
<!-- Node12 -->
<g id="node12" class="node">
<title>Node12</title>
<g id="a_node12"><a xlink:href="classprecice_1_1mapping_1_1Mapping.html#aeea2d39f5e6ce0eaa97ebe436ff89991" target="_top" xlink:title="Checks whether the mapping has the given constraint or not. ">
<polygon fill="#ffffff" stroke="#000000" points="198,-519.5 198,-549.5 346,-549.5 346,-519.5 198,-519.5"/>
<text text-anchor="start" x="206" y="-537.5" font-family="Helvetica,sans-Serif" font-size="10.00" fill="#000000">precice::mapping::Mapping</text>
<text text-anchor="middle" x="272" y="-526.5" font-family="Helvetica,sans-Serif" font-size="10.00" fill="#000000">::hasConstraint</text>
</a>
</g>
</g>
<!-- Node1&#45;&gt;Node12 -->
<g id="edge13" class="edge">
<title>Node1&#45;&gt;Node12</title>
<path fill="none" stroke="#191970" d="M99.6634,-461.5052C121.6061,-473.9739 154.26,-491.6839 184,-504.5 193.5483,-508.6147 203.863,-512.5581 213.9538,-516.1559"/>
<polygon fill="#191970" stroke="#191970" points="212.9328,-519.5065 223.5277,-519.4937 215.2373,-512.8967 212.9328,-519.5065"/>
</g>
<!-- Node13 -->
<g id="node13" class="node">
<title>Node13</title>
<g id="a_node13"><a xlink:href="classprecice_1_1mapping_1_1Mapping.html#a55c7dd27be2a1efef1d67a7abbb2ca14" target="_top" xlink:title="Removes a computed mapping. ">
<polygon fill="#ffffff" stroke="#000000" points="198,-235.5 198,-265.5 346,-265.5 346,-235.5 198,-235.5"/>
<text text-anchor="start" x="206" y="-253.5" font-family="Helvetica,sans-Serif" font-size="10.00" fill="#000000">precice::mapping::Mapping</text>
<text text-anchor="middle" x="272" y="-242.5" font-family="Helvetica,sans-Serif" font-size="10.00" fill="#000000">::clear</text>
</a>
</g>
</g>
<!-- Node1&#45;&gt;Node13 -->
<g id="edge15" class="edge">
<title>Node1&#45;&gt;Node13</title>
<path fill="none" stroke="#191970" d="M79.2893,-431.4381C91.8743,-397.8536 126.8869,-316.4958 184,-274.5 186.0652,-272.9814 188.2211,-271.559 190.4479,-270.2265"/>
<polygon fill="#191970" stroke="#191970" points="192.1433,-273.2893 199.3471,-265.5204 188.8708,-267.1012 192.1433,-273.2893"/>
</g>
<!-- Node14 -->
<g id="node14" class="node">
<title>Node14</title>
<g id="a_node14"><a xlink:href="classprecice_1_1mapping_1_1Mapping.html#a843b62d737d4e113bfa4db18682eb6fe" target="_top" xlink:title="Maps input data to output data from input mesh to output mesh. ">
<polygon fill="#ffffff" stroke="#000000" points="184,-197 184,-216 360,-216 360,-197 184,-197"/>
<text text-anchor="middle" x="272" y="-204" font-family="Helvetica,sans-Serif" font-size="10.00" fill="#000000">precice::mapping::Mapping::map</text>
</a>
</g>
</g>
<!-- Node1&#45;&gt;Node14 -->
<g id="edge16" class="edge">
<title>Node1&#45;&gt;Node14</title>
<path fill="none" stroke="#191970" d="M76.8491,-431.2941C85.2667,-390.8391 113.9586,-279.9496 184,-225.5 186.3137,-223.7013 188.7606,-222.0642 191.3086,-220.5747"/>
<polygon fill="#191970" stroke="#191970" points="192.9454,-223.6694 200.3157,-216.0582 189.8077,-217.412 192.9454,-223.6694"/>
</g>
<!-- Node15 -->
<g id="node15" class="node">
<title>Node15</title>
<g id="a_node15"><a xlink:href="classprecice_1_1mapping_1_1Mapping.html#a916001398438572a4d109a7d1eb25c6f" target="_top" xlink:title="Method used by partition. Tags vertices that could be owned by this rank. ">
<polygon fill="#ffffff" stroke="#000000" points="198,-147.5 198,-177.5 346,-177.5 346,-147.5 198,-147.5"/>
<text text-anchor="start" x="206" y="-165.5" font-family="Helvetica,sans-Serif" font-size="10.00" fill="#000000">precice::mapping::Mapping</text>
<text text-anchor="middle" x="272" y="-154.5" font-family="Helvetica,sans-Serif" font-size="10.00" fill="#000000">::tagMeshFirstRound</text>
</a>
</g>
</g>
<!-- Node1&#45;&gt;Node15 -->
<g id="edge17" class="edge">
<title>Node1&#45;&gt;Node15</title>
<path fill="none" stroke="#191970" d="M75.8818,-431.3112C82.2169,-386.8007 106.8909,-255.5381 184,-187.5 185.9278,-185.799 187.9636,-184.2131 190.0862,-182.7347"/>
<polygon fill="#191970" stroke="#191970" points="191.9138,-185.7197 198.6575,-177.5482 188.2899,-179.7308 191.9138,-185.7197"/>
</g>
<!-- Node16 -->
<g id="node16" class="node">
<title>Node16</title>
<g id="a_node16"><a xlink:href="classprecice_1_1mapping_1_1Mapping.html#a0d524e2e9181ac1b6065f72a11a4579e" target="_top" xlink:title="Method used by partition. Tags vertices that can be filtered out. ">
<polygon fill="#ffffff" stroke="#000000" points="198,-98.5 198,-128.5 346,-128.5 346,-98.5 198,-98.5"/>
<text text-anchor="start" x="206" y="-116.5" font-family="Helvetica,sans-Serif" font-size="10.00" fill="#000000">precice::mapping::Mapping</text>
<text text-anchor="middle" x="272" y="-105.5" font-family="Helvetica,sans-Serif" font-size="10.00" fill="#000000">::tagMeshSecondRound</text>
</a>
</g>
</g>
<!-- Node1&#45;&gt;Node16 -->
<g id="edge18" class="edge">
<title>Node1&#45;&gt;Node16</title>
<path fill="none" stroke="#191970" d="M74.6729,-431.3182C77.7307,-381.3588 94.4227,-220.5367 184,-137.5 185.6985,-135.9255 187.4901,-134.4526 189.3587,-133.0748"/>
<polygon fill="#191970" stroke="#191970" points="191.4069,-135.921 197.9943,-127.623 187.67,-130.0018 191.4069,-135.921"/>
</g>
<!-- Node17 -->
<g id="node17" class="node">
<title>Node17</title>
<g id="a_node17"><a xlink:href="classprecice_1_1mapping_1_1Mapping.html#a1e001e2dd6f5fc0b7b1c48f56aad61d3" target="_top" xlink:title="Scales the consistently mapped output data such that the surface integral of the values on input mesh...">
<polygon fill="#ffffff" stroke="#000000" points="198,-705.5 198,-735.5 346,-735.5 346,-705.5 198,-705.5"/>
<text text-anchor="start" x="206" y="-723.5" font-family="Helvetica,sans-Serif" font-size="10.00" fill="#000000">precice::mapping::Mapping</text>
<text text-anchor="middle" x="272" y="-712.5" font-family="Helvetica,sans-Serif" font-size="10.00" fill="#000000">::scaleConsistentMapping</text>
</a>
</g>
</g>
<!-- Node1&#45;&gt;Node17 -->
<g id="edge19" class="edge">
<title>Node1&#45;&gt;Node17</title>
<path fill="none" stroke="#191970" d="M76.4959,-461.5468C84.2991,-503.8796 112.1462,-625.1663 184,-690.5 188.1799,-694.3006 192.8617,-697.6227 197.8301,-700.5262"/>
<polygon fill="#191970" stroke="#191970" points="196.5493,-703.805 207.0363,-705.3131 199.7787,-697.5944 196.5493,-703.805"/>
</g>
<!-- Node20 -->
<g id="node20" class="node">
<title>Node20</title>
<g id="a_node20"><a xlink:href="classprecice_1_1mapping_1_1Mapping.html#a393912fe4919edd098e96f66ffbe0d52" target="_top" xlink:title="precice::mapping::Mapping\l::getDimensions">
<polygon fill="#ffffff" stroke="#000000" points="396,-556.5 396,-586.5 544,-586.5 544,-556.5 396,-556.5"/>
<text text-anchor="start" x="404" y="-574.5" font-family="Helvetica,sans-Serif" font-size="10.00" fill="#000000">precice::mapping::Mapping</text>
<text text-anchor="middle" x="470" y="-563.5" font-family="Helvetica,sans-Serif" font-size="10.00" fill="#000000">::getDimensions</text>
</a>
</g>
</g>
<!-- Node1&#45;&gt;Node20 -->
<g id="edge29" class="edge">
<title>Node1&#45;&gt;Node20</title>
<path fill="none" stroke="#191970" d="M76.4561,-461.5644C83.9589,-502.0344 110.7033,-613.0524 184,-657.5 250.8852,-698.0596 292.0715,-696.287 360,-657.5 387.3377,-641.8903 371.5558,-616.3367 396,-596.5 398.073,-594.8177 400.2649,-593.2463 402.545,-591.7787"/>
<polygon fill="#191970" stroke="#191970" points="404.7156,-594.5733 411.7125,-586.6176 401.2815,-588.4735 404.7156,-594.5733"/>
</g>
<!-- Node23 -->
<g id="node23" class="node">
<title>Node23</title>
<g id="a_node23"><a xlink:href="classprecice_1_1mapping_1_1Mapping.html#a812fe6094e2862467acc81919505157d" target="_top" xlink:title="Sets the mesh requirement for the input mesh. ">
<polygon fill="#ffffff" stroke="#000000" points="198,-49.5 198,-79.5 346,-79.5 346,-49.5 198,-49.5"/>
<text text-anchor="start" x="206" y="-67.5" font-family="Helvetica,sans-Serif" font-size="10.00" fill="#000000">precice::mapping::Mapping</text>
<text text-anchor="middle" x="272" y="-56.5" font-family="Helvetica,sans-Serif" font-size="10.00" fill="#000000">::setInputRequirement</text>
</a>
</g>
</g>
<!-- Node1&#45;&gt;Node23 -->
<g id="edge27" class="edge">
<title>Node1&#45;&gt;Node23</title>
<path fill="none" stroke="#191970" d="M76.6367,-431.4765C87.7096,-370.0137 132.2766,-138.6015 184,-88.5 185.6635,-86.8886 187.4242,-85.3831 189.2654,-83.9764"/>
<polygon fill="#191970" stroke="#191970" points="191.33,-86.8088 197.8036,-78.4218 187.5127,-80.9412 191.33,-86.8088"/>
</g>
<!-- Node24 -->
<g id="node24" class="node">
<title>Node24</title>
<g id="a_node24"><a xlink:href="classprecice_1_1mapping_1_1Mapping.html#ac8b311598c20854ac46efc50f99029f8" target="_top" xlink:title="Sets the mesh requirement for the output mesh. ">
<polygon fill="#ffffff" stroke="#000000" points="198,-.5 198,-30.5 346,-30.5 346,-.5 198,-.5"/>
<text text-anchor="start" x="206" y="-18.5" font-family="Helvetica,sans-Serif" font-size="10.00" fill="#000000">precice::mapping::Mapping</text>
<text text-anchor="middle" x="272" y="-7.5" font-family="Helvetica,sans-Serif" font-size="10.00" fill="#000000">::setOutputRequirement</text>
</a>
</g>
</g>
<!-- Node1&#45;&gt;Node24 -->
<g id="edge28" class="edge">
<title>Node1&#45;&gt;Node24</title>
<path fill="none" stroke="#191970" d="M76.0752,-431.2863C85.4882,-364.422 126.2282,-97.4042 184,-39.5 185.6358,-37.8605 187.3718,-36.33 189.1914,-34.9013"/>
<polygon fill="#191970" stroke="#191970" points="191.2681,-37.7235 197.6523,-29.2682 187.3887,-31.8968 191.2681,-37.7235"/>
</g>
<!-- Node2&#45;&gt;Node3 -->
<g id="edge2" class="edge">
<title>Node2&#45;&gt;Node3</title>
<path fill="none" stroke="#191970" d="M335.1928,-823.5003C354.8395,-828.1639 376.6605,-833.3436 396.9229,-838.1534"/>
<polygon fill="#191970" stroke="#191970" points="396.1904,-841.5767 406.7284,-840.481 397.8071,-834.766 396.1904,-841.5767"/>
</g>
<!-- Node2&#45;&gt;Node4 -->
<g id="edge3" class="edge">
<title>Node2&#45;&gt;Node4</title>
<path fill="none" stroke="#191970" d="M346.0095,-807.7524C358.9639,-807.6216 372.5293,-807.4846 385.7367,-807.3511"/>
<polygon fill="#191970" stroke="#191970" points="385.7865,-810.8509 395.7506,-807.25 385.7157,-803.8513 385.7865,-810.8509"/>
</g>
<!-- Node12&#45;&gt;Node7 -->
<g id="edge14" class="edge">
<title>Node12&#45;&gt;Node7</title>
<path fill="none" stroke="#191970" d="M346.0095,-524.7816C358.9639,-523.0805 372.5293,-521.2992 385.7367,-519.5649"/>
<polygon fill="#191970" stroke="#191970" points="386.2914,-523.0222 395.7506,-518.2499 385.38,-516.0818 386.2914,-523.0222"/>
</g>
<!-- Node17&#45;&gt;Node3 -->
<g id="edge22" class="edge">
<title>Node17&#45;&gt;Node3</title>
<path fill="none" stroke="#191970" d="M296.6113,-735.624C315.1176,-747.6294 340.5272,-765.505 360,-784.5 378.8354,-802.8732 374.5146,-816.3104 396,-831.5 398.1229,-833.0009 400.345,-834.4117 402.6394,-835.7376"/>
<polygon fill="#191970" stroke="#191970" points="401.296,-838.9824 411.79,-840.4412 404.4962,-832.7567 401.296,-838.9824"/>
</g>
<!-- Node17&#45;&gt;Node4 -->
<g id="edge25" class="edge">
<title>Node17&#45;&gt;Node4</title>
<path fill="none" stroke="#191970" d="M327.4706,-735.6478C338.6047,-739.7161 349.9587,-744.649 360,-750.5 378.4963,-761.2777 377.4238,-771.8607 396,-782.5 399.0215,-784.2305 402.185,-785.8559 405.4312,-787.3798"/>
<polygon fill="#191970" stroke="#191970" points="404.1814,-790.6526 414.7493,-791.4086 406.9595,-784.2274 404.1814,-790.6526"/>
</g>
<!-- Node18 -->
<g id="node18" class="node">
<title>Node18</title>
<g id="a_node18"><a xlink:href="classprecice_1_1utils_1_1MasterSlave.html#a5e934392c32335daa8e2b4a01bc75fd3" target="_top" xlink:title="True if this process is running the master. ">
<polygon fill="#ffffff" stroke="#000000" points="397.5,-742.5 397.5,-772.5 542.5,-772.5 542.5,-742.5 397.5,-742.5"/>
<text text-anchor="start" x="405.5" y="-760.5" font-family="Helvetica,sans-Serif" font-size="10.00" fill="#000000">precice::utils::MasterSlave</text>
<text text-anchor="middle" x="470" y="-749.5" font-family="Helvetica,sans-Serif" font-size="10.00" fill="#000000">::isMaster</text>
</a>
</g>
</g>
<!-- Node17&#45;&gt;Node18 -->
<g id="edge20" class="edge">
<title>Node17&#45;&gt;Node18</title>
<path fill="none" stroke="#191970" d="M346.0095,-734.3301C359.5329,-736.8572 373.722,-739.5087 387.4747,-742.0786"/>
<polygon fill="#191970" stroke="#191970" points="386.9231,-745.536 397.3959,-743.9326 388.209,-738.6551 386.9231,-745.536"/>
</g>
<!-- Node19 -->
<g id="node19" class="node">
<title>Node19</title>
<g id="a_node19"><a xlink:href="classprecice_1_1utils_1_1MasterSlave.html#a3837ad42361b53d7e930443ba07a9eb5" target="_top" xlink:title="True if this process is running a slave. ">
<polygon fill="#ffffff" stroke="#000000" points="397.5,-693.5 397.5,-723.5 542.5,-723.5 542.5,-693.5 397.5,-693.5"/>
<text text-anchor="start" x="405.5" y="-711.5" font-family="Helvetica,sans-Serif" font-size="10.00" fill="#000000">precice::utils::MasterSlave</text>
<text text-anchor="middle" x="470" y="-700.5" font-family="Helvetica,sans-Serif" font-size="10.00" fill="#000000">::isSlave</text>
</a>
</g>
</g>
<!-- Node17&#45;&gt;Node19 -->
<g id="edge21" class="edge">
<title>Node17&#45;&gt;Node19</title>
<path fill="none" stroke="#191970" d="M346.0095,-716.0146C359.4016,-715.2029 373.4465,-714.3517 387.074,-713.5258"/>
<polygon fill="#191970" stroke="#191970" points="387.6259,-716.9989 397.3959,-712.9003 387.2024,-710.0117 387.6259,-716.9989"/>
</g>
<!-- Node17&#45;&gt;Node20 -->
<g id="edge23" class="edge">
<title>Node17&#45;&gt;Node20</title>
<path fill="none" stroke="#191970" d="M337.7362,-705.4509C345.899,-701.5573 353.6069,-696.6596 360,-690.5 392.2165,-659.46 363.7408,-627.4956 396,-596.5 397.6287,-594.9351 399.3587,-593.468 401.17,-592.0926"/>
<polygon fill="#191970" stroke="#191970" points="403.0943,-595.0163 409.5697,-586.6306 399.2782,-589.1479 403.0943,-595.0163"/>
</g>
<!-- Node21 -->
<g id="node21" class="node">
<title>Node21</title>
<g id="a_node21"><a xlink:href="namespaceprecice_1_1utils_1_1petsc.html#a931b5a402aa2dec020afa7af6167d67e" target="_top" xlink:title="precice::utils::petsc\l::getName">
<polygon fill="#ffffff" stroke="#000000" points="414.5,-644.5 414.5,-674.5 525.5,-674.5 525.5,-644.5 414.5,-644.5"/>
<text text-anchor="start" x="422.5" y="-662.5" font-family="Helvetica,sans-Serif" font-size="10.00" fill="#000000">precice::utils::petsc</text>
<text text-anchor="middle" x="470" y="-651.5" font-family="Helvetica,sans-Serif" font-size="10.00" fill="#000000">::getName</text>
</a>
</g>
</g>
<!-- Node17&#45;&gt;Node21 -->
<g id="edge24" class="edge">
<title>Node17&#45;&gt;Node21</title>
<path fill="none" stroke="#191970" d="M320.6898,-705.4996C348.1573,-697.0374 382.662,-686.4072 411.5803,-677.498"/>
<polygon fill="#191970" stroke="#191970" points="412.6287,-680.8374 421.1549,-674.5482 410.5677,-674.1477 412.6287,-680.8374"/>
</g>
<!-- Node22 -->
<g id="node22" class="node">
<title>Node22</title>
<g id="a_node22"><a xlink:href="namespaceprecice_1_1mesh.html#a821683799e9865ccd4b81f40a56c3d2d" target="_top" xlink:title="Given the data and the mesh, this function returns the surface integral. Assumes no overlap exists fo...">
<polygon fill="#ffffff" stroke="#000000" points="402.5,-606 402.5,-625 537.5,-625 537.5,-606 402.5,-606"/>
<text text-anchor="middle" x="470" y="-613" font-family="Helvetica,sans-Serif" font-size="10.00" fill="#000000">precice::mesh::integrate</text>
</a>
</g>
</g>
<!-- Node17&#45;&gt;Node22 -->
<g id="edge26" class="edge">
<title>Node17&#45;&gt;Node22</title>
<path fill="none" stroke="#191970" d="M333.3936,-705.4961C342.8551,-701.5579 352.0935,-696.6349 360,-690.5 383.0817,-672.5901 372.352,-652.6553 396,-635.5 399.3932,-633.0384 403.0718,-630.8798 406.9141,-628.9868"/>
<polygon fill="#191970" stroke="#191970" points="408.3115,-632.1959 416.1195,-625.0346 405.5498,-625.7637 408.3115,-632.1959"/>
</g>
</g>
</svg>
        <g id="navigator" transform="translate(0 0)" fill="#404254">
                <rect fill="#f2f5e9" fill-opacity="0.5" stroke="#606060" stroke-width=".5" x="0" y="0" width="60" height="60"/>
                <use id="zoomplus" xlink:href="#zoomPlus" x="17" y="9" onmousedown="handleZoom(evt,'in')"/>
                <use id="zoomminus" xlink:href="#zoomMin" x="42" y="9" onmousedown="handleZoom(evt,'out')"/>
                <use id="reset" xlink:href="#resetDef" x="30" y="36" onmousedown="handleReset()"/>
                <g id="arrowUp" xlink:href="#dirArrow" transform="translate(30 24)" onmousedown="handlePan(0,-1)">
                  <use xlink:href="#rim" fill="#404040">
                        <set attributeName="fill" to="#808080" begin="arrowUp.mouseover" end="arrowUp.mouseout"/>
                  </use>
                  <path fill="none" stroke="white" stroke-width="1.5" d="M0,-3.0v7 M-2.5,-0.5L0,-3.0L2.5,-0.5"/>
                </g>
                <g id="arrowRight" xlink:href="#dirArrow" transform="rotate(90) translate(36 -43)" onmousedown="handlePan(1,0)">
                  <use xlink:href="#rim" fill="#404040">
                        <set attributeName="fill" to="#808080" begin="arrowRight.mouseover" end="arrowRight.mouseout"/>
                  </use>
                  <path fill="none" stroke="white" stroke-width="1.5" d="M0,-3.0v7 M-2.5,-0.5L0,-3.0L2.5,-0.5"/>
                </g>
                <g id="arrowDown" xlink:href="#dirArrow" transform="rotate(180) translate(-30 -48)" onmousedown="handlePan(0,1)">
                  <use xlink:href="#rim" fill="#404040">
                        <set attributeName="fill" to="#808080" begin="arrowDown.mouseover" end="arrowDown.mouseout"/>
                  </use>
                  <path fill="none" stroke="white" stroke-width="1.5" d="M0,-3.0v7 M-2.5,-0.5L0,-3.0L2.5,-0.5"/>
                </g>
                <g id="arrowLeft" xlink:href="#dirArrow" transform="rotate(270) translate(-36 17)" onmousedown="handlePan(-1,0)">
                  <use xlink:href="#rim" fill="#404040">
                        <set attributeName="fill" to="#808080" begin="arrowLeft.mouseover" end="arrowLeft.mouseout"/>
                  </use>
                  <path fill="none" stroke="white" stroke-width="1.5" d="M0,-3.0v7 M-2.5,-0.5L0,-3.0L2.5,-0.5"/>
                </g>
        </g>
        <svg viewBox="0 0 15 15" width="100%" height="30px" preserveAspectRatio="xMaxYMin meet">
         <g id="arrow_out" transform="scale(0.3 0.3)">
          <a xlink:href="classprecice_1_1mapping_1_1Mapping_a7a405ca7804cc87b4411f26774136c28_cgraph_org.svg" target="_base">
           <rect id="button" ry="5" rx="5" y="6" x="6" height="38" width="38"
                fill="#f2f5e9" fill-opacity="0.5" stroke="#606060" stroke-width="1.0"/>
           <path id="arrow"
             d="M 11.500037,31.436501 C 11.940474,20.09759 22.043105,11.32322 32.158766,21.979434 L 37.068811,17.246167 C 37.068811,17.246167 37.088388,32 37.088388,32 L 22.160133,31.978069 C 22.160133,31.978069 26.997745,27.140456 26.997745,27.140456 C 18.528582,18.264221 13.291696,25.230495 11.500037,31.436501 z"
             style="fill:#404040;"/>
          </a>
         </g>
        </svg>
</svg>
