<?xml version="1.0" encoding="UTF-8" standalone="no"?>
<!DOCTYPE svg PUBLIC "-//W3C//DTD SVG 1.1//EN"
 "http://www.w3.org/Graphics/SVG/1.1/DTD/svg11.dtd">
<!-- Generated by graphviz version 2.40.1 (20161225.0304)
 -->
<!-- Title: precice::mapping::PetRadialBasisFctMapping::bgPreallocationMatrixC Pages: 1 -->
<svg width="591pt" height="607pt"
 viewBox="0.00 0.00 591.00 606.50" xmlns="http://www.w3.org/2000/svg" xmlns:xlink="http://www.w3.org/1999/xlink">
<g id="graph0" class="graph" transform="scale(1 1) rotate(0) translate(4 602.5)">
<title>precice::mapping::PetRadialBasisFctMapping::bgPreallocationMatrixC</title>
<polygon fill="#ffffff" stroke="transparent" points="-4,4 -4,-602.5 587,-602.5 587,4 -4,4"/>
<!-- Node21 -->
<g id="node1" class="node">
<title>Node21</title>
<polygon fill="#bfbfbf" stroke="#000000" points="0,-292.5 0,-333.5 180,-333.5 180,-292.5 0,-292.5"/>
<text text-anchor="start" x="8" y="-321.5" font-family="Helvetica,sans-Serif" font-size="10.00" fill="#000000">precice::mapping::PetRadial</text>
<text text-anchor="start" x="8" y="-310.5" font-family="Helvetica,sans-Serif" font-size="10.00" fill="#000000">BasisFctMapping::bgPreallocation</text>
<text text-anchor="middle" x="90" y="-299.5" font-family="Helvetica,sans-Serif" font-size="10.00" fill="#000000">MatrixC</text>
</g>
<!-- Node22 -->
<g id="node2" class="node">
<title>Node22</title>
<g id="a_node2"><a xlink:href="classprecice_1_1mapping_1_1Mapping.html#a61c3c55af467ada2bdd735efa0f960e4" target="_top" xlink:title="Returns pointer to input mesh. ">
<polygon fill="#ffffff" stroke="#000000" points="221,-568 221,-598 369,-598 369,-568 221,-568"/>
<text text-anchor="start" x="229" y="-586" font-family="Helvetica,sans-Serif" font-size="10.00" fill="#000000">precice::mapping::Mapping</text>
<text text-anchor="middle" x="295" y="-575" font-family="Helvetica,sans-Serif" font-size="10.00" fill="#000000">::input</text>
</a>
</g>
</g>
<!-- Node21&#45;&gt;Node22 -->
<g id="edge1" class="edge">
<title>Node21&#45;&gt;Node22</title>
<path fill="none" stroke="#191970" d="M94.701,-333.6205C106.5259,-380.771 141.9955,-497.1475 216,-559 217.526,-560.2755 219.1187,-561.4832 220.7664,-562.6267"/>
<polygon fill="#191970" stroke="#191970" points="219.0351,-565.6697 229.4081,-567.8264 222.6441,-559.6718 219.0351,-565.6697"/>
</g>
<!-- Node23 -->
<g id="node3" class="node">
<title>Node23</title>
<g id="a_node3"><a xlink:href="namespaceprecice_1_1utils_1_1petsc.html#a931b5a402aa2dec020afa7af6167d67e" target="_top" xlink:title="precice::utils::petsc\l::getName">
<polygon fill="#ffffff" stroke="#000000" points="239.5,-519 239.5,-549 350.5,-549 350.5,-519 239.5,-519"/>
<text text-anchor="start" x="247.5" y="-537" font-family="Helvetica,sans-Serif" font-size="10.00" fill="#000000">precice::utils::petsc</text>
<text text-anchor="middle" x="295" y="-526" font-family="Helvetica,sans-Serif" font-size="10.00" fill="#000000">::getName</text>
</a>
</g>
</g>
<!-- Node21&#45;&gt;Node23 -->
<g id="edge2" class="edge">
<title>Node21&#45;&gt;Node23</title>
<path fill="none" stroke="#191970" d="M97.5449,-333.6988C113.2322,-373.829 153.221,-462.4379 216,-510 220.356,-513.3001 225.1666,-516.1496 230.2,-518.6095"/>
<polygon fill="#191970" stroke="#191970" points="228.8839,-521.8537 239.4503,-522.6296 231.674,-515.4338 228.8839,-521.8537"/>
</g>
<!-- Node24 -->
<g id="node4" class="node">
<title>Node24</title>
<g id="a_node4"><a xlink:href="classprecice_1_1mapping_1_1Mapping.html#a07a71a54b71eda6d54510c94fb188e70" target="_top" xlink:title="Returns pointer to output mesh. ">
<polygon fill="#ffffff" stroke="#000000" points="221,-470 221,-500 369,-500 369,-470 221,-470"/>
<text text-anchor="start" x="229" y="-488" font-family="Helvetica,sans-Serif" font-size="10.00" fill="#000000">precice::mapping::Mapping</text>
<text text-anchor="middle" x="295" y="-477" font-family="Helvetica,sans-Serif" font-size="10.00" fill="#000000">::output</text>
</a>
</g>
</g>
<!-- Node21&#45;&gt;Node24 -->
<g id="edge3" class="edge">
<title>Node21&#45;&gt;Node24</title>
<path fill="none" stroke="#191970" d="M102.1324,-333.7193C121.9286,-365.7304 164.2123,-427.0535 216,-461 218.555,-462.6748 221.2321,-464.2371 223.9933,-465.6939"/>
<polygon fill="#191970" stroke="#191970" points="222.5168,-468.8673 233.0513,-469.9969 225.5205,-462.5445 222.5168,-468.8673"/>
</g>
<!-- Node25 -->
<g id="node5" class="node">
<title>Node25</title>
<g id="a_node5"><a xlink:href="classprecice_1_1utils_1_1petsc_1_1Matrix.html#af7be873ab3ee6ce5ff55b9865d3e3ddb" target="_top" xlink:title="Returns (rows, cols) local size. ">
<polygon fill="#ffffff" stroke="#000000" points="234.5,-421 234.5,-451 355.5,-451 355.5,-421 234.5,-421"/>
<text text-anchor="start" x="242.5" y="-439" font-family="Helvetica,sans-Serif" font-size="10.00" fill="#000000">precice::utils::petsc</text>
<text text-anchor="middle" x="295" y="-428" font-family="Helvetica,sans-Serif" font-size="10.00" fill="#000000">::Matrix::getLocalSize</text>
</a>
</g>
</g>
<!-- Node21&#45;&gt;Node25 -->
<g id="edge4" class="edge">
<title>Node21&#45;&gt;Node25</title>
<path fill="none" stroke="#191970" d="M111.0141,-333.5928C134.718,-355.7907 175.2946,-390.7849 216,-412 219.5453,-413.8478 223.2558,-415.5778 227.0534,-417.1938"/>
<polygon fill="#191970" stroke="#191970" points="226.0417,-420.5573 236.6281,-420.9779 228.6146,-414.0473 226.0417,-420.5573"/>
</g>
<!-- Node26 -->
<g id="node6" class="node">
<title>Node26</title>
<g id="a_node6"><a xlink:href="classprecice_1_1utils_1_1petsc_1_1Matrix.html#afb999429db43fc9cb930dde6144bc739" target="_top" xlink:title="Returns a pair that mark the beginning and end of the matrix&#39; column ownership range. ">
<polygon fill="#ffffff" stroke="#000000" points="216,-372 216,-402 374,-402 374,-372 216,-372"/>
<text text-anchor="start" x="224" y="-390" font-family="Helvetica,sans-Serif" font-size="10.00" fill="#000000">precice::utils::petsc</text>
<text text-anchor="middle" x="295" y="-379" font-family="Helvetica,sans-Serif" font-size="10.00" fill="#000000">::Matrix::ownerRangeColumn</text>
</a>
</g>
</g>
<!-- Node21&#45;&gt;Node26 -->
<g id="edge5" class="edge">
<title>Node21&#45;&gt;Node26</title>
<path fill="none" stroke="#191970" d="M139.0127,-333.5436C162.1871,-342.9747 190.3409,-354.0286 216,-363 221.6344,-364.97 227.526,-366.9341 233.442,-368.8421"/>
<polygon fill="#191970" stroke="#191970" points="232.7902,-372.307 243.3803,-371.9914 234.9048,-365.634 232.7902,-372.307"/>
</g>
<!-- Node27 -->
<g id="node7" class="node">
<title>Node27</title>
<g id="a_node7"><a xlink:href="classprecice_1_1utils_1_1petsc_1_1Matrix.html#a733d24fe257b332f74b45a549304adc6" target="_top" xlink:title="Returns (rows, cols) global size. ">
<polygon fill="#ffffff" stroke="#000000" points="239.5,-323 239.5,-353 350.5,-353 350.5,-323 239.5,-323"/>
<text text-anchor="start" x="247.5" y="-341" font-family="Helvetica,sans-Serif" font-size="10.00" fill="#000000">precice::utils::petsc</text>
<text text-anchor="middle" x="295" y="-330" font-family="Helvetica,sans-Serif" font-size="10.00" fill="#000000">::Matrix::getSize</text>
</a>
</g>
</g>
<!-- Node21&#45;&gt;Node27 -->
<g id="edge6" class="edge">
<title>Node21&#45;&gt;Node27</title>
<path fill="none" stroke="#191970" d="M180.2143,-324.0017C196.6924,-326.0113 213.6002,-328.0732 229.2011,-329.9757"/>
<polygon fill="#191970" stroke="#191970" points="228.8966,-333.4645 239.2468,-331.2008 229.744,-326.5159 228.8966,-333.4645"/>
</g>
<!-- Node28 -->
<g id="node8" class="node">
<title>Node28</title>
<g id="a_node8"><a xlink:href="classprecice_1_1utils_1_1petsc_1_1Matrix.html#a85c7a24397ab94ace0b9afc1c97f0eb2" target="_top" xlink:title="Returns a pair that mark the beginning and end of the matrix&#39; ownership range. ">
<polygon fill="#ffffff" stroke="#000000" points="235,-274 235,-304 355,-304 355,-274 235,-274"/>
<text text-anchor="start" x="243" y="-292" font-family="Helvetica,sans-Serif" font-size="10.00" fill="#000000">precice::utils::petsc</text>
<text text-anchor="middle" x="295" y="-281" font-family="Helvetica,sans-Serif" font-size="10.00" fill="#000000">::Matrix::ownerRange</text>
</a>
</g>
</g>
<!-- Node21&#45;&gt;Node28 -->
<g id="edge7" class="edge">
<title>Node21&#45;&gt;Node28</title>
<path fill="none" stroke="#191970" d="M180.2143,-302.4383C195.0819,-300.6977 210.2994,-298.9162 224.5911,-297.243"/>
<polygon fill="#191970" stroke="#191970" points="225.2906,-300.6851 234.8158,-296.046 224.4766,-293.7326 225.2906,-300.6851"/>
</g>
<!-- Node29 -->
<g id="node9" class="node">
<title>Node29</title>
<g id="a_node9"><a xlink:href="classprecice_1_1query_1_1Index.html#ab70dd2f80e32dc1c5e968f9368edd78d" target="_top" xlink:title="Return all the vertices inside the box formed by vertex and radius. ">
<polygon fill="#ffffff" stroke="#000000" points="232.5,-225 232.5,-255 357.5,-255 357.5,-225 232.5,-225"/>
<text text-anchor="start" x="240.5" y="-243" font-family="Helvetica,sans-Serif" font-size="10.00" fill="#000000">precice::query::Index</text>
<text text-anchor="middle" x="295" y="-232" font-family="Helvetica,sans-Serif" font-size="10.00" fill="#000000">::getVerticesInsideBox</text>
</a>
</g>
</g>
<!-- Node21&#45;&gt;Node29 -->
<g id="edge8" class="edge">
<title>Node21&#45;&gt;Node29</title>
<path fill="none" stroke="#191970" d="M141.8613,-292.4741C164.5156,-283.7077 191.4629,-273.5483 216,-265 222.4804,-262.7424 229.2888,-260.458 236.0779,-258.2353"/>
<polygon fill="#191970" stroke="#191970" points="237.5343,-261.4428 245.9705,-255.0332 235.3786,-254.783 237.5343,-261.4428"/>
</g>
<!-- Node31 -->
<g id="node11" class="node">
<title>Node31</title>
<g id="a_node11"><a xlink:href="classprecice_1_1mesh_1_1Vertex.html#a382386665b94b9ae8ded5fca26fd2b0b" target="_top" xlink:title="Returns the coordinates of the vertex. ">
<polygon fill="#ffffff" stroke="#000000" points="435.5,-181 435.5,-211 557.5,-211 557.5,-181 435.5,-181"/>
<text text-anchor="start" x="443.5" y="-199" font-family="Helvetica,sans-Serif" font-size="10.00" fill="#000000">precice::mesh::Vertex</text>
<text text-anchor="middle" x="496.5" y="-188" font-family="Helvetica,sans-Serif" font-size="10.00" fill="#000000">::getCoords</text>
</a>
</g>
</g>
<!-- Node21&#45;&gt;Node31 -->
<g id="edge12" class="edge">
<title>Node21&#45;&gt;Node31</title>
<path fill="none" stroke="#191970" d="M109.0642,-292.3418C131.9359,-269.115 172.6539,-232.4955 216,-216 283.5802,-190.2822 366.8513,-187.6279 425.0376,-189.9587"/>
<polygon fill="#191970" stroke="#191970" points="425.0877,-193.4646 435.2382,-190.4285 425.4098,-186.472 425.0877,-193.4646"/>
</g>
<!-- Node32 -->
<g id="node12" class="node">
<title>Node32</title>
<g id="a_node12"><a xlink:href="classprecice_1_1mesh_1_1Vertex.html#af8dde044af9038a763b37340c03cc44d" target="_top" xlink:title="Globally unique index. ">
<polygon fill="#ffffff" stroke="#000000" points="234,-137 234,-167 356,-167 356,-137 234,-137"/>
<text text-anchor="start" x="242" y="-155" font-family="Helvetica,sans-Serif" font-size="10.00" fill="#000000">precice::mesh::Vertex</text>
<text text-anchor="middle" x="295" y="-144" font-family="Helvetica,sans-Serif" font-size="10.00" fill="#000000">::getGlobalIndex</text>
</a>
</g>
</g>
<!-- Node21&#45;&gt;Node32 -->
<g id="edge11" class="edge">
<title>Node21&#45;&gt;Node32</title>
<path fill="none" stroke="#191970" d="M105.2782,-292.0706C127.0057,-263.6271 169.3999,-212.7905 216,-182 222.1431,-177.941 228.9138,-174.3205 235.83,-171.1225"/>
<polygon fill="#191970" stroke="#191970" points="237.5183,-174.2057 245.3059,-167.0221 234.7383,-167.7813 237.5183,-174.2057"/>
</g>
<!-- Node33 -->
<g id="node13" class="node">
<title>Node33</title>
<g id="a_node13"><a xlink:href="classprecice_1_1utils_1_1petsc_1_1Matrix.html#a90d49094c2bc6be06fdd84708d0e4aee" target="_top" xlink:title="Returns the block size of the matrix. ">
<polygon fill="#ffffff" stroke="#000000" points="239.5,-88 239.5,-118 350.5,-118 350.5,-88 239.5,-88"/>
<text text-anchor="start" x="247.5" y="-106" font-family="Helvetica,sans-Serif" font-size="10.00" fill="#000000">precice::utils::petsc</text>
<text text-anchor="middle" x="295" y="-95" font-family="Helvetica,sans-Serif" font-size="10.00" fill="#000000">::Matrix::blockSize</text>
</a>
</g>
</g>
<!-- Node21&#45;&gt;Node33 -->
<g id="edge13" class="edge">
<title>Node21&#45;&gt;Node33</title>
<path fill="none" stroke="#191970" d="M98.4639,-292.4447C115.1954,-254.3316 156.1408,-172.5383 216,-128 220.2198,-124.8602 224.8457,-122.1074 229.6757,-119.6949"/>
<polygon fill="#191970" stroke="#191970" points="231.4556,-122.7335 239.1622,-115.4631 228.6038,-116.3407 231.4556,-122.7335"/>
</g>
<!-- Node34 -->
<g id="node14" class="node">
<title>Node34</title>
<g id="a_node14"><a xlink:href="classprecice_1_1utils_1_1Event.html#ab228ebbfcd934048c62a2622b4e1b5a9" target="_top" xlink:title="Stops an event and commit it. If it&#39;s already stopped it has no effect. ">
<polygon fill="#ffffff" stroke="#000000" points="238.5,-39 238.5,-69 351.5,-69 351.5,-39 238.5,-39"/>
<text text-anchor="start" x="246.5" y="-57" font-family="Helvetica,sans-Serif" font-size="10.00" fill="#000000">precice::utils::Event</text>
<text text-anchor="middle" x="295" y="-46" font-family="Helvetica,sans-Serif" font-size="10.00" fill="#000000">::stop</text>
</a>
</g>
</g>
<!-- Node21&#45;&gt;Node34 -->
<g id="edge14" class="edge">
<title>Node21&#45;&gt;Node34</title>
<path fill="none" stroke="#191970" d="M95.2671,-292.2693C107.956,-246.5641 144.5833,-136.5578 216,-78 219.9852,-74.7323 224.4092,-71.9091 229.0702,-69.47"/>
<polygon fill="#191970" stroke="#191970" points="230.6503,-72.5957 238.2726,-65.2369 227.725,-66.2363 230.6503,-72.5957"/>
</g>
<!-- Node30 -->
<g id="node10" class="node">
<title>Node30</title>
<g id="a_node10"><a xlink:href="classprecice_1_1query_1_1impl_1_1Indexer.html#a5f4415898dcb95c16b0aedf0c3e3168d" target="_top" xlink:title="precice::query::impl\l::Indexer::instance">
<polygon fill="#ffffff" stroke="#000000" points="440,-230 440,-260 553,-260 553,-230 440,-230"/>
<text text-anchor="start" x="448" y="-248" font-family="Helvetica,sans-Serif" font-size="10.00" fill="#000000">precice::query::impl</text>
<text text-anchor="middle" x="496.5" y="-237" font-family="Helvetica,sans-Serif" font-size="10.00" fill="#000000">::Indexer::instance</text>
</a>
</g>
</g>
<!-- Node29&#45;&gt;Node30 -->
<g id="edge9" class="edge">
<title>Node29&#45;&gt;Node30</title>
<path fill="none" stroke="#191970" d="M357.6513,-241.5546C380.4958,-242.1215 406.405,-242.7644 429.6043,-243.3401"/>
<polygon fill="#191970" stroke="#191970" points="429.623,-246.8415 439.7068,-243.5907 429.7967,-239.8437 429.623,-246.8415"/>
</g>
<!-- Node29&#45;&gt;Node31 -->
<g id="edge10" class="edge">
<title>Node29&#45;&gt;Node31</title>
<path fill="none" stroke="#191970" d="M357.6513,-226.3193C379.0909,-221.6377 403.23,-216.3667 425.2949,-211.5485"/>
<polygon fill="#191970" stroke="#191970" points="426.2467,-214.9232 435.2698,-209.3704 424.7533,-208.0844 426.2467,-214.9232"/>
</g>
<!-- Node35 -->
<g id="node15" class="node">
<title>Node35</title>
<g id="a_node15"><a xlink:href="MPI__Mock_8hpp.html#a38a750883860adf3d7cee6f56442261a" target="_top" xlink:title="MPI_Barrier">
<polygon fill="#ffffff" stroke="#000000" points="460.5,-88.5 460.5,-107.5 532.5,-107.5 532.5,-88.5 460.5,-88.5"/>
<text text-anchor="middle" x="496.5" y="-95.5" font-family="Helvetica,sans-Serif" font-size="10.00" fill="#000000">MPI_Barrier</text>
</a>
</g>
</g>
<!-- Node34&#45;&gt;Node35 -->
<g id="edge15" class="edge">
<title>Node34&#45;&gt;Node35</title>
<path fill="none" stroke="#191970" d="M351.6652,-66.3735C382.7991,-73.172 420.9293,-81.4982 450.2499,-87.9007"/>
<polygon fill="#191970" stroke="#191970" points="449.7112,-91.3655 460.2276,-90.0795 451.2046,-84.5266 449.7112,-91.3655"/>
</g>
<!-- Node36 -->
<g id="node16" class="node">
<title>Node36</title>
<g id="a_node16"><a xlink:href="classprecice_1_1utils_1_1EventRegistry.html#ab22976bb8c5bd6a86f052f4705a48cb1" target="_top" xlink:title="Returns the only instance (singleton) of the EventRegistry class. ">
<polygon fill="#ffffff" stroke="#000000" points="420.5,-39 420.5,-69 572.5,-69 572.5,-39 420.5,-39"/>
<text text-anchor="start" x="428.5" y="-57" font-family="Helvetica,sans-Serif" font-size="10.00" fill="#000000">precice::utils::EventRegistry</text>
<text text-anchor="middle" x="496.5" y="-46" font-family="Helvetica,sans-Serif" font-size="10.00" fill="#000000">::instance</text>
</a>
</g>
</g>
<!-- Node34&#45;&gt;Node36 -->
<g id="edge16" class="edge">
<title>Node34&#45;&gt;Node36</title>
<path fill="none" stroke="#191970" d="M351.6652,-54C369.8051,-54 390.32,-54 410.0837,-54"/>
<polygon fill="#191970" stroke="#191970" points="410.3339,-57.5001 420.3338,-54 410.3338,-50.5001 410.3339,-57.5001"/>
</g>
<!-- Node37 -->
<g id="node17" class="node">
<title>Node37</title>
<g id="a_node17"><a xlink:href="classprecice_1_1utils_1_1EventRegistry.html#ae2cd83819174207b743e580c381dd022" target="_top" xlink:title="Records the event. ">
<polygon fill="#ffffff" stroke="#000000" points="410,-.5 410,-19.5 583,-19.5 583,-.5 410,-.5"/>
<text text-anchor="middle" x="496.5" y="-7.5" font-family="Helvetica,sans-Serif" font-size="10.00" fill="#000000">precice::utils::EventRegistry::put</text>
</a>
</g>
</g>
<!-- Node34&#45;&gt;Node37 -->
<g id="edge17" class="edge">
<title>Node34&#45;&gt;Node37</title>
<path fill="none" stroke="#191970" d="M351.6652,-41.6265C380.175,-35.401 414.5515,-27.8945 442.6579,-21.7571"/>
<polygon fill="#191970" stroke="#191970" points="443.6836,-25.1157 452.7067,-19.5628 442.1902,-18.2768 443.6836,-25.1157"/>
</g>
</g>
</svg>
