<?xml version="1.0" encoding="UTF-8" standalone="no"?>
<!DOCTYPE svg PUBLIC "-//W3C//DTD SVG 1.1//EN"
 "http://www.w3.org/Graphics/SVG/1.1/DTD/svg11.dtd">
<!-- Generated by graphviz version 2.40.1 (20161225.0304)
 -->
<!-- Title: precice::impl::SolverInterfaceImpl::setMeshQuad Pages: 1 -->
<svg width="706pt" height="315pt"
 viewBox="0.00 0.00 706.00 315.00" xmlns="http://www.w3.org/2000/svg" xmlns:xlink="http://www.w3.org/1999/xlink">
<g id="graph0" class="graph" transform="scale(1 1) rotate(0) translate(4 311)">
<title>precice::impl::SolverInterfaceImpl::setMeshQuad</title>
<polygon fill="#ffffff" stroke="transparent" points="-4,4 -4,-311 702,-311 702,4 -4,4"/>
<!-- Node216 -->
<g id="node1" class="node">
<title>Node216</title>
<polygon fill="#bfbfbf" stroke="#000000" points="0,-129.5 0,-159.5 160,-159.5 160,-129.5 0,-129.5"/>
<text text-anchor="start" x="8" y="-147.5" font-family="Helvetica,sans-Serif" font-size="10.00" fill="#000000">precice::impl::SolverInterface</text>
<text text-anchor="middle" x="80" y="-136.5" font-family="Helvetica,sans-Serif" font-size="10.00" fill="#000000">Impl::setMeshQuad</text>
</g>
<!-- Node217 -->
<g id="node2" class="node">
<title>Node217</title>
<g id="a_node2"><a xlink:href="classprecice_1_1impl_1_1SolverInterfaceImpl.html#abafb6219d109dc3cdaab56cc1814ab82" target="_top" xlink:title="Allows to access a registered mesh. ">
<polygon fill="#ffffff" stroke="#000000" points="196,-276.5 196,-306.5 356,-306.5 356,-276.5 196,-276.5"/>
<text text-anchor="start" x="204" y="-294.5" font-family="Helvetica,sans-Serif" font-size="10.00" fill="#000000">precice::impl::SolverInterface</text>
<text text-anchor="middle" x="276" y="-283.5" font-family="Helvetica,sans-Serif" font-size="10.00" fill="#000000">Impl::mesh</text>
</a>
</g>
</g>
<!-- Node216&#45;&gt;Node217 -->
<g id="edge1" class="edge">
<title>Node216&#45;&gt;Node217</title>
<path fill="none" stroke="#191970" d="M90.2665,-159.7892C108.495,-185.7656 149.0439,-238.5124 196,-267.5 198.7762,-269.2138 201.6824,-270.8118 204.6742,-272.3011"/>
<polygon fill="#191970" stroke="#191970" points="203.3082,-275.5245 213.8626,-276.4497 206.1888,-269.1446 203.3082,-275.5245"/>
</g>
<!-- Node218 -->
<g id="node3" class="node">
<title>Node218</title>
<g id="a_node3"><a xlink:href="namespaceprecice_1_1impl.html#a8554df914784627d831f93135ef44799" target="_top" xlink:title="precice::impl::errorInvalid\lEdgeID">
<polygon fill="#ffffff" stroke="#000000" points="205,-227.5 205,-257.5 347,-257.5 347,-227.5 205,-227.5"/>
<text text-anchor="start" x="213" y="-245.5" font-family="Helvetica,sans-Serif" font-size="10.00" fill="#000000">precice::impl::errorInvalid</text>
<text text-anchor="middle" x="276" y="-234.5" font-family="Helvetica,sans-Serif" font-size="10.00" fill="#000000">EdgeID</text>
</a>
</g>
</g>
<!-- Node216&#45;&gt;Node218 -->
<g id="edge2" class="edge">
<title>Node216&#45;&gt;Node218</title>
<path fill="none" stroke="#191970" d="M99.9688,-159.6801C122.3366,-176.0864 160.1675,-202.0816 196,-218.5 200.3049,-220.4725 204.8133,-222.3323 209.4033,-224.0761"/>
<polygon fill="#191970" stroke="#191970" points="208.3057,-227.4007 218.9001,-227.4913 210.6745,-220.8137 208.3057,-227.4007"/>
</g>
<!-- Node219 -->
<g id="node4" class="node">
<title>Node219</title>
<g id="a_node4"><a xlink:href="namespaceprecice_1_1utils.html#a8f1caaf51865145ea758cbe2d1657d48" target="_top" xlink:title="precice::utils::unique\l_elements">
<polygon fill="#ffffff" stroke="#000000" points="217,-178.5 217,-208.5 335,-208.5 335,-178.5 217,-178.5"/>
<text text-anchor="start" x="225" y="-196.5" font-family="Helvetica,sans-Serif" font-size="10.00" fill="#000000">precice::utils::unique</text>
<text text-anchor="middle" x="276" y="-185.5" font-family="Helvetica,sans-Serif" font-size="10.00" fill="#000000">_elements</text>
</a>
</g>
</g>
<!-- Node216&#45;&gt;Node219 -->
<g id="edge3" class="edge">
<title>Node216&#45;&gt;Node219</title>
<path fill="none" stroke="#191970" d="M140.1385,-159.5346C161.3142,-164.8286 185.277,-170.8192 207.1175,-176.2794"/>
<polygon fill="#191970" stroke="#191970" points="206.4351,-179.7164 216.9854,-178.7463 208.1329,-172.9254 206.4351,-179.7164"/>
</g>
<!-- Node220 -->
<g id="node5" class="node">
<title>Node220</title>
<g id="a_node5"><a xlink:href="namespaceprecice_1_1utils.html#a5b6e7c7682a521aedca3fe44cc5c060c" target="_top" xlink:title="Function that generates an array from given elements. ">
<polygon fill="#ffffff" stroke="#000000" points="219.5,-129.5 219.5,-159.5 332.5,-159.5 332.5,-129.5 219.5,-129.5"/>
<text text-anchor="start" x="227.5" y="-147.5" font-family="Helvetica,sans-Serif" font-size="10.00" fill="#000000">precice::utils::make</text>
<text text-anchor="middle" x="276" y="-136.5" font-family="Helvetica,sans-Serif" font-size="10.00" fill="#000000">_array</text>
</a>
</g>
</g>
<!-- Node216&#45;&gt;Node220 -->
<g id="edge4" class="edge">
<title>Node216&#45;&gt;Node220</title>
<path fill="none" stroke="#191970" d="M160.0034,-144.5C176.3277,-144.5 193.342,-144.5 209.1495,-144.5"/>
<polygon fill="#191970" stroke="#191970" points="209.3437,-148.0001 219.3436,-144.5 209.3436,-141.0001 209.3437,-148.0001"/>
</g>
<!-- Node221 -->
<g id="node6" class="node">
<title>Node221</title>
<g id="a_node6"><a xlink:href="namespaceprecice_1_1mesh.html#ad25fbe418df4389fce244ba338d49536" target="_top" xlink:title="precice::mesh::asChain">
<polygon fill="#ffffff" stroke="#000000" points="211,-91 211,-110 341,-110 341,-91 211,-91"/>
<text text-anchor="middle" x="276" y="-98" font-family="Helvetica,sans-Serif" font-size="10.00" fill="#000000">precice::mesh::asChain</text>
</a>
</g>
</g>
<!-- Node216&#45;&gt;Node221 -->
<g id="edge5" class="edge">
<title>Node216&#45;&gt;Node221</title>
<path fill="none" stroke="#191970" d="M146.9039,-129.4808C172.0361,-123.8388 200.2123,-117.5136 223.8138,-112.2153"/>
<polygon fill="#191970" stroke="#191970" points="224.636,-115.6179 233.6265,-110.0124 223.1027,-108.7879 224.636,-115.6179"/>
</g>
<!-- Node225 -->
<g id="node10" class="node">
<title>Node225</title>
<g id="a_node10"><a xlink:href="namespaceprecice_1_1mesh.html#a5a7124e24a25e64c99ddf6ce6aba9f96" target="_top" xlink:title="Given a mesh and an array of vertexIDS, this function returns an array of coordinates of the vertices...">
<polygon fill="#ffffff" stroke="#000000" points="207,-50 207,-69 345,-69 345,-50 207,-50"/>
<text text-anchor="middle" x="276" y="-57" font-family="Helvetica,sans-Serif" font-size="10.00" fill="#000000">precice::mesh::coordsFor</text>
</a>
</g>
</g>
<!-- Node216&#45;&gt;Node225 -->
<g id="edge9" class="edge">
<title>Node216&#45;&gt;Node225</title>
<path fill="none" stroke="#191970" d="M104.0922,-129.2862C127.0174,-115.3307 162.8385,-94.8587 196,-81.5 205.024,-77.8648 214.8547,-74.6164 224.4385,-71.8038"/>
<polygon fill="#191970" stroke="#191970" points="225.6132,-75.1093 234.2921,-69.0326 223.718,-68.3707 225.6132,-75.1093"/>
</g>
<!-- Node227 -->
<g id="node12" class="node">
<title>Node227</title>
<g id="a_node12"><a xlink:href="namespaceprecice_1_1math_1_1geometry.html#ad42e2f02d09a55a766329ae82cde70d6" target="_top" xlink:title="precice::math::geometry\l::isConvexQuad">
<polygon fill="#ffffff" stroke="#000000" points="207.5,-.5 207.5,-30.5 344.5,-30.5 344.5,-.5 207.5,-.5"/>
<text text-anchor="start" x="215.5" y="-18.5" font-family="Helvetica,sans-Serif" font-size="10.00" fill="#000000">precice::math::geometry</text>
<text text-anchor="middle" x="276" y="-7.5" font-family="Helvetica,sans-Serif" font-size="10.00" fill="#000000">::isConvexQuad</text>
</a>
</g>
</g>
<!-- Node216&#45;&gt;Node227 -->
<g id="edge11" class="edge">
<title>Node216&#45;&gt;Node227</title>
<path fill="none" stroke="#191970" d="M93.0763,-129.1807C113.0746,-106.6647 153.4394,-64.6934 196,-40.5 199.8761,-38.2966 203.9704,-36.2626 208.1752,-34.3888"/>
<polygon fill="#191970" stroke="#191970" points="209.6029,-37.5861 217.5147,-30.5395 206.9354,-31.1142 209.6029,-37.5861"/>
</g>
<!-- Node222 -->
<g id="node7" class="node">
<title>Node222</title>
<g id="a_node7"><a xlink:href="namespaceprecice_1_1utils_1_1petsc.html#af4f3b4ed0340a1790eefec6187535621" target="_top" xlink:title="precice::utils::petsc\l::swap">
<polygon fill="#ffffff" stroke="#000000" points="414,-131.5 414,-161.5 525,-161.5 525,-131.5 414,-131.5"/>
<text text-anchor="start" x="422" y="-149.5" font-family="Helvetica,sans-Serif" font-size="10.00" fill="#000000">precice::utils::petsc</text>
<text text-anchor="middle" x="469.5" y="-138.5" font-family="Helvetica,sans-Serif" font-size="10.00" fill="#000000">::swap</text>
</a>
</g>
</g>
<!-- Node221&#45;&gt;Node222 -->
<g id="edge6" class="edge">
<title>Node221&#45;&gt;Node222</title>
<path fill="none" stroke="#191970" d="M316.0933,-110.0312C341.3441,-116.034 374.5447,-123.9267 403.5996,-130.8338"/>
<polygon fill="#191970" stroke="#191970" points="403.1456,-134.3233 413.6839,-133.2311 404.7646,-127.5131 403.1456,-134.3233"/>
</g>
<!-- Node223 -->
<g id="node8" class="node">
<title>Node223</title>
<g id="a_node8"><a xlink:href="namespaceprecice_1_1mesh.html#aeb5d253b5d4bc794c6744fe62636bd89" target="_top" xlink:title="precice::mesh::sharedVertex">
<polygon fill="#ffffff" stroke="#000000" points="392,-93 392,-112 547,-112 547,-93 392,-93"/>
<text text-anchor="middle" x="469.5" y="-100" font-family="Helvetica,sans-Serif" font-size="10.00" fill="#000000">precice::mesh::sharedVertex</text>
</a>
</g>
</g>
<!-- Node221&#45;&gt;Node223 -->
<g id="edge7" class="edge">
<title>Node221&#45;&gt;Node223</title>
<path fill="none" stroke="#191970" d="M341.2405,-101.1743C354.1803,-101.3081 367.9642,-101.4505 381.5167,-101.5906"/>
<polygon fill="#191970" stroke="#191970" points="381.7819,-105.0934 391.8175,-101.6971 381.8543,-98.0938 381.7819,-105.0934"/>
</g>
<!-- Node224 -->
<g id="node9" class="node">
<title>Node224</title>
<g id="a_node9"><a xlink:href="classprecice_1_1mesh_1_1Edge.html#a7fc88e0289fecf4c41c230d20311dcdb" target="_top" xlink:title="Returns the edge&#39;s vertex with index 0 or 1. ">
<polygon fill="#ffffff" stroke="#000000" points="583,-87.5 583,-117.5 698,-117.5 698,-87.5 583,-87.5"/>
<text text-anchor="start" x="591" y="-105.5" font-family="Helvetica,sans-Serif" font-size="10.00" fill="#000000">precice::mesh::Edge</text>
<text text-anchor="middle" x="640.5" y="-94.5" font-family="Helvetica,sans-Serif" font-size="10.00" fill="#000000">::vertex</text>
</a>
</g>
</g>
<!-- Node223&#45;&gt;Node224 -->
<g id="edge8" class="edge">
<title>Node223&#45;&gt;Node224</title>
<path fill="none" stroke="#191970" d="M547.494,-102.5C555.948,-102.5 564.5008,-102.5 572.8181,-102.5"/>
<polygon fill="#191970" stroke="#191970" points="572.8242,-106.0001 582.8242,-102.5 572.8242,-99.0001 572.8242,-106.0001"/>
</g>
<!-- Node226 -->
<g id="node11" class="node">
<title>Node226</title>
<g id="a_node11"><a xlink:href="classprecice_1_1mesh_1_1Mesh.html#a13faa9b03e5d20918ed6528db1415fa3" target="_top" xlink:title="Returns modifieable container holding all vertices. ">
<polygon fill="#ffffff" stroke="#000000" points="411.5,-43.5 411.5,-73.5 527.5,-73.5 527.5,-43.5 411.5,-43.5"/>
<text text-anchor="start" x="419.5" y="-61.5" font-family="Helvetica,sans-Serif" font-size="10.00" fill="#000000">precice::mesh::Mesh</text>
<text text-anchor="middle" x="469.5" y="-50.5" font-family="Helvetica,sans-Serif" font-size="10.00" fill="#000000">::vertices</text>
</a>
</g>
</g>
<!-- Node225&#45;&gt;Node226 -->
<g id="edge10" class="edge">
<title>Node225&#45;&gt;Node226</title>
<path fill="none" stroke="#191970" d="M345.0384,-59.1432C363.2691,-59.049 382.9334,-58.9474 401.1286,-58.8533"/>
<polygon fill="#191970" stroke="#191970" points="401.3758,-62.3522 411.3576,-58.8005 401.3396,-55.3523 401.3758,-62.3522"/>
</g>
<!-- Node228 -->
<g id="node13" class="node">
<title>Node228</title>
<g id="a_node13"><a xlink:href="namespaceprecice_1_1math.html#a0e86802cfe992deba131d789d035b5b7" target="_top" xlink:title="Compares two Eigen::MatrixBase for equality up to tolerance. ">
<polygon fill="#ffffff" stroke="#000000" points="408.5,-5 408.5,-24 530.5,-24 530.5,-5 408.5,-5"/>
<text text-anchor="middle" x="469.5" y="-12" font-family="Helvetica,sans-Serif" font-size="10.00" fill="#000000">precice::math::equals</text>
</a>
</g>
</g>
<!-- Node227&#45;&gt;Node228 -->
<g id="edge12" class="edge">
<title>Node227&#45;&gt;Node228</title>
<path fill="none" stroke="#191970" d="M344.7657,-15.1446C362.1097,-15.055 380.7664,-14.9586 398.2305,-14.8683"/>
<polygon fill="#191970" stroke="#191970" points="398.3746,-18.3677 408.3563,-14.816 398.3384,-11.3678 398.3746,-18.3677"/>
</g>
</g>
</svg>
