<?xml version="1.0" encoding="UTF-8" standalone="no"?>
<!DOCTYPE svg PUBLIC "-//W3C//DTD SVG 1.1//EN"
 "http://www.w3.org/Graphics/SVG/1.1/DTD/svg11.dtd">
<!-- Generated by graphviz version 2.40.1 (20161225.0304)
 -->
<!-- Title: precice::utils::Event::~Event Pages: 1 -->
<svg width="479pt" height="116pt"
 viewBox="0.00 0.00 479.00 116.00" xmlns="http://www.w3.org/2000/svg" xmlns:xlink="http://www.w3.org/1999/xlink">
<g id="graph0" class="graph" transform="scale(1 1) rotate(0) translate(4 112)">
<title>precice::utils::Event::~Event</title>
<polygon fill="#ffffff" stroke="transparent" points="-4,4 -4,-112 475,-112 475,4 -4,4"/>
<!-- Node8 -->
<g id="node1" class="node">
<title>Node8</title>
<polygon fill="#bfbfbf" stroke="#000000" points="0,-39 0,-69 113,-69 113,-39 0,-39"/>
<text text-anchor="start" x="8" y="-57" font-family="Helvetica,sans-Serif" font-size="10.00" fill="#000000">precice::utils::Event</text>
<text text-anchor="middle" x="56.5" y="-46" font-family="Helvetica,sans-Serif" font-size="10.00" fill="#000000">::~Event</text>
</g>
<!-- Node9 -->
<g id="node2" class="node">
<title>Node9</title>
<g id="a_node2"><a xlink:href="classprecice_1_1utils_1_1Event.html#ab228ebbfcd934048c62a2622b4e1b5a9" target="_top" xlink:title="Stops an event and commit it. If it&#39;s already stopped it has no effect. ">
<polygon fill="#ffffff" stroke="#000000" points="149,-39 149,-69 262,-69 262,-39 149,-39"/>
<text text-anchor="start" x="157" y="-57" font-family="Helvetica,sans-Serif" font-size="10.00" fill="#000000">precice::utils::Event</text>
<text text-anchor="middle" x="205.5" y="-46" font-family="Helvetica,sans-Serif" font-size="10.00" fill="#000000">::stop</text>
</a>
</g>
</g>
<!-- Node8&#45;&gt;Node9 -->
<g id="edge1" class="edge">
<title>Node8&#45;&gt;Node9</title>
<path fill="none" stroke="#191970" d="M113.2556,-54C121.558,-54 130.1727,-54 138.6536,-54"/>
<polygon fill="#191970" stroke="#191970" points="138.9023,-57.5001 148.9022,-54 138.9022,-50.5001 138.9023,-57.5001"/>
</g>
<!-- Node10 -->
<g id="node3" class="node">
<title>Node10</title>
<g id="a_node3"><a xlink:href="MPI__Mock_8hpp.html#a38a750883860adf3d7cee6f56442261a" target="_top" xlink:title="MPI_Barrier">
<polygon fill="#ffffff" stroke="#000000" points="348.5,-88.5 348.5,-107.5 420.5,-107.5 420.5,-88.5 348.5,-88.5"/>
<text text-anchor="middle" x="384.5" y="-95.5" font-family="Helvetica,sans-Serif" font-size="10.00" fill="#000000">MPI_Barrier</text>
</a>
</g>
</g>
<!-- Node9&#45;&gt;Node10 -->
<g id="edge2" class="edge">
<title>Node9&#45;&gt;Node10</title>
<path fill="none" stroke="#191970" d="M259.6804,-69.1079C272.2326,-72.4788 285.5583,-75.9541 298,-79 310.9625,-82.1734 325.0788,-85.3791 338.0763,-88.2303"/>
<polygon fill="#191970" stroke="#191970" points="337.7017,-91.7305 348.2168,-90.4336 339.188,-84.8901 337.7017,-91.7305"/>
</g>
<!-- Node11 -->
<g id="node4" class="node">
<title>Node11</title>
<g id="a_node4"><a xlink:href="classprecice_1_1utils_1_1EventRegistry.html#ab22976bb8c5bd6a86f052f4705a48cb1" target="_top" xlink:title="Returns the only instance (singleton) of the EventRegistry class. ">
<polygon fill="#ffffff" stroke="#000000" points="308.5,-39 308.5,-69 460.5,-69 460.5,-39 308.5,-39"/>
<text text-anchor="start" x="316.5" y="-57" font-family="Helvetica,sans-Serif" font-size="10.00" fill="#000000">precice::utils::EventRegistry</text>
<text text-anchor="middle" x="384.5" y="-46" font-family="Helvetica,sans-Serif" font-size="10.00" fill="#000000">::instance</text>
</a>
</g>
</g>
<!-- Node9&#45;&gt;Node11 -->
<g id="edge3" class="edge">
<title>Node9&#45;&gt;Node11</title>
<path fill="none" stroke="#191970" d="M262.1367,-54C273.5795,-54 285.8545,-54 298.0538,-54"/>
<polygon fill="#191970" stroke="#191970" points="298.2635,-57.5001 308.2634,-54 298.2634,-50.5001 298.2635,-57.5001"/>
</g>
<!-- Node12 -->
<g id="node5" class="node">
<title>Node12</title>
<g id="a_node5"><a xlink:href="classprecice_1_1utils_1_1EventRegistry.html#ae2cd83819174207b743e580c381dd022" target="_top" xlink:title="Records the event. ">
<polygon fill="#ffffff" stroke="#000000" points="298,-.5 298,-19.5 471,-19.5 471,-.5 298,-.5"/>
<text text-anchor="middle" x="384.5" y="-7.5" font-family="Helvetica,sans-Serif" font-size="10.00" fill="#000000">precice::utils::EventRegistry::put</text>
</a>
</g>
</g>
<!-- Node9&#45;&gt;Node12 -->
<g id="edge4" class="edge">
<title>Node9&#45;&gt;Node12</title>
<path fill="none" stroke="#191970" d="M262.1851,-39.0378C274.006,-35.9892 286.3986,-32.8457 298,-30 309.1151,-27.2736 321.0591,-24.4462 332.4163,-21.8059"/>
<polygon fill="#191970" stroke="#191970" points="333.2559,-25.2042 342.2101,-19.5409 331.6786,-18.3842 333.2559,-25.2042"/>
</g>
</g>
</svg>
