<?xml version="1.0" encoding="UTF-8" standalone="no"?>
<!DOCTYPE svg PUBLIC "-//W3C//DTD SVG 1.1//EN"
 "http://www.w3.org/Graphics/SVG/1.1/DTD/svg11.dtd">
<!-- Generated by graphviz version 2.40.1 (20161225.0304)
 -->
<!-- Title: precice::mesh::Mesh::isValidEdgeID Pages: 1 -->
<svg width="260pt" height="39pt"
 viewBox="0.00 0.00 260.00 39.00" xmlns="http://www.w3.org/2000/svg" xmlns:xlink="http://www.w3.org/1999/xlink">
<g id="graph0" class="graph" transform="scale(1 1) rotate(0) translate(4 35)">
<title>precice::mesh::Mesh::isValidEdgeID</title>
<polygon fill="#ffffff" stroke="transparent" points="-4,4 -4,-35 256,-35 256,4 -4,4"/>
<!-- Node161 -->
<g id="node1" class="node">
<title>Node161</title>
<polygon fill="#bfbfbf" stroke="#000000" points="0,-.5 0,-30.5 108,-30.5 108,-.5 0,-.5"/>
<text text-anchor="start" x="8" y="-18.5" font-family="Helvetica,sans-Serif" font-size="10.00" fill="#000000">precice::mesh::Mesh</text>
<text text-anchor="middle" x="54" y="-7.5" font-family="Helvetica,sans-Serif" font-size="10.00" fill="#000000">::isValidEdgeID</text>
</g>
<!-- Node162 -->
<g id="node2" class="node">
<title>Node162</title>
<g id="a_node2"><a xlink:href="classprecice_1_1mesh_1_1Mesh.html#aec6f303d7791f8a64e2b78180531c89e" target="_top" xlink:title="Returns modifiable container holding all edges. ">
<polygon fill="#ffffff" stroke="#000000" points="144,-.5 144,-30.5 252,-30.5 252,-.5 144,-.5"/>
<text text-anchor="start" x="152" y="-18.5" font-family="Helvetica,sans-Serif" font-size="10.00" fill="#000000">precice::mesh::Mesh</text>
<text text-anchor="middle" x="198" y="-7.5" font-family="Helvetica,sans-Serif" font-size="10.00" fill="#000000">::edges</text>
</a>
</g>
</g>
<!-- Node161&#45;&gt;Node162 -->
<g id="edge1" class="edge">
<title>Node161&#45;&gt;Node162</title>
<path fill="none" stroke="#191970" d="M108.03,-15.5C116.3136,-15.5 124.9362,-15.5 133.4199,-15.5"/>
<polygon fill="#191970" stroke="#191970" points="133.6672,-19.0001 143.6672,-15.5 133.6672,-12.0001 133.6672,-19.0001"/>
</g>
</g>
</svg>
