<?xml version="1.0" encoding="UTF-8" standalone="no"?>
<!DOCTYPE svg PUBLIC "-//W3C//DTD SVG 1.1//EN"
 "http://www.w3.org/Graphics/SVG/1.1/DTD/svg11.dtd">
<!-- Generated by graphviz version 2.40.1 (20161225.0304)
 -->
<!-- Title: precice::impl::SolverInterfaceImpl::setMeshEdge Pages: 1 -->
<svg width="332pt" height="137pt"
 viewBox="0.00 0.00 332.00 137.00" xmlns="http://www.w3.org/2000/svg" xmlns:xlink="http://www.w3.org/1999/xlink">
<g id="graph0" class="graph" transform="scale(1 1) rotate(0) translate(4 133)">
<title>precice::impl::SolverInterfaceImpl::setMeshEdge</title>
<polygon fill="#ffffff" stroke="transparent" points="-4,4 -4,-133 328,-133 328,4 -4,4"/>
<!-- Node198 -->
<g id="node1" class="node">
<title>Node198</title>
<polygon fill="#bfbfbf" stroke="#000000" points="0,-49.5 0,-79.5 144,-79.5 144,-49.5 0,-49.5"/>
<text text-anchor="start" x="8" y="-67.5" font-family="Helvetica,sans-Serif" font-size="10.00" fill="#000000">precice::impl::SolverInterface</text>
<text text-anchor="middle" x="72" y="-56.5" font-family="Helvetica,sans-Serif" font-size="10.00" fill="#000000">Impl::setMeshEdge</text>
</g>
<!-- Node199 -->
<g id="node2" class="node">
<title>Node199</title>
<g id="a_node2"><a xlink:href="classprecice_1_1impl_1_1SolverInterfaceImpl.html#abafb6219d109dc3cdaab56cc1814ab82" target="_top" xlink:title="Allows to access a registered mesh. ">
<polygon fill="#ffffff" stroke="#000000" points="180,-98.5 180,-128.5 324,-128.5 324,-98.5 180,-98.5"/>
<text text-anchor="start" x="188" y="-116.5" font-family="Helvetica,sans-Serif" font-size="10.00" fill="#000000">precice::impl::SolverInterface</text>
<text text-anchor="middle" x="252" y="-105.5" font-family="Helvetica,sans-Serif" font-size="10.00" fill="#000000">Impl::mesh</text>
</a>
</g>
</g>
<!-- Node198&#45;&gt;Node199 -->
<g id="edge1" class="edge">
<title>Node198&#45;&gt;Node199</title>
<path fill="none" stroke="#191970" d="M127.4747,-79.6014C146.297,-84.7253 167.494,-90.4956 186.9914,-95.8032"/>
<polygon fill="#191970" stroke="#191970" points="186.1403,-99.1988 196.7085,-98.4484 187.979,-92.4446 186.1403,-99.1988"/>
</g>
<!-- Node200 -->
<g id="node3" class="node">
<title>Node200</title>
<g id="a_node3"><a xlink:href="namespaceprecice_1_1impl.html#a35061dd5dea8f5b6c982bbc1849fc61d" target="_top" xlink:title="precice::impl::errorInvalid\lVertexID">
<polygon fill="#ffffff" stroke="#000000" points="189,-49.5 189,-79.5 315,-79.5 315,-49.5 189,-49.5"/>
<text text-anchor="start" x="197" y="-67.5" font-family="Helvetica,sans-Serif" font-size="10.00" fill="#000000">precice::impl::errorInvalid</text>
<text text-anchor="middle" x="252" y="-56.5" font-family="Helvetica,sans-Serif" font-size="10.00" fill="#000000">VertexID</text>
</a>
</g>
</g>
<!-- Node198&#45;&gt;Node200 -->
<g id="edge2" class="edge">
<title>Node198&#45;&gt;Node200</title>
<path fill="none" stroke="#191970" d="M144.1757,-64.5C155.4832,-64.5 167.1817,-64.5 178.5181,-64.5"/>
<polygon fill="#191970" stroke="#191970" points="178.8057,-68.0001 188.8057,-64.5 178.8056,-61.0001 178.8057,-68.0001"/>
</g>
<!-- Node201 -->
<g id="node4" class="node">
<title>Node201</title>
<g id="a_node4"><a xlink:href="classprecice_1_1mesh_1_1Vertex.html#aeccde29fd990bdba5a5792372c341ef4" target="_top" xlink:title="Returns the unique (among vertices of one mesh on one processor) ID of the vertex. ">
<polygon fill="#ffffff" stroke="#000000" points="195.5,-.5 195.5,-30.5 308.5,-30.5 308.5,-.5 195.5,-.5"/>
<text text-anchor="start" x="203.5" y="-18.5" font-family="Helvetica,sans-Serif" font-size="10.00" fill="#000000">precice::mesh::Vertex</text>
<text text-anchor="middle" x="252" y="-7.5" font-family="Helvetica,sans-Serif" font-size="10.00" fill="#000000">::getID</text>
</a>
</g>
</g>
<!-- Node198&#45;&gt;Node201 -->
<g id="edge3" class="edge">
<title>Node198&#45;&gt;Node201</title>
<path fill="none" stroke="#191970" d="M127.4747,-49.3986C146.297,-44.2747 167.494,-38.5044 186.9914,-33.1968"/>
<polygon fill="#191970" stroke="#191970" points="187.979,-36.5554 196.7085,-30.5516 186.1403,-29.8012 187.979,-36.5554"/>
</g>
</g>
</svg>
