<?xml version="1.0" encoding="UTF-8" standalone="no"?>
<!DOCTYPE svg PUBLIC "-//W3C//DTD SVG 1.1//EN"
 "http://www.w3.org/Graphics/SVG/1.1/DTD/svg11.dtd">
<!-- Generated by graphviz version 2.40.1 (20161225.0304)
 -->
<!-- Title: precice::acceleration::impl::Preconditioner Pages: 1 -->
<svg width="398pt" height="363pt"
 viewBox="0.00 0.00 398.00 363.00" xmlns="http://www.w3.org/2000/svg" xmlns:xlink="http://www.w3.org/1999/xlink">
<g id="graph0" class="graph" transform="scale(1 1) rotate(0) translate(4 359)">
<title>precice::acceleration::impl::Preconditioner</title>
<polygon fill="#ffffff" stroke="transparent" points="-4,4 -4,-359 394,-359 394,4 -4,4"/>
<!-- Node5 -->
<g id="node1" class="node">
<title>Node5</title>
<polygon fill="#bfbfbf" stroke="#000000" points="153.5,-.5 153.5,-30.5 262.5,-30.5 262.5,-.5 153.5,-.5"/>
<text text-anchor="start" x="161.5" y="-18.5" font-family="Helvetica,sans-Serif" font-size="10.00" fill="#000000">precice::acceleration</text>
<text text-anchor="middle" x="208" y="-7.5" font-family="Helvetica,sans-Serif" font-size="10.00" fill="#000000">::impl::Preconditioner</text>
</g>
<!-- Node6 -->
<g id="node2" class="node">
<title>Node6</title>
<g id="a_node2"><a xlink:href="classprecice_1_1logging_1_1Logger.html" target="_top" xlink:title="This class provides a leightweight logger. ">
<polygon fill="#ffffff" stroke="#000000" points="16,-89.5 16,-108.5 136,-108.5 136,-89.5 16,-89.5"/>
<text text-anchor="middle" x="76" y="-96.5" font-family="Helvetica,sans-Serif" font-size="10.00" fill="#000000">precice::logging::Logger</text>
</a>
</g>
</g>
<!-- Node6&#45;&gt;Node5 -->
<g id="edge1" class="edge">
<title>Node6&#45;&gt;Node5</title>
<path fill="none" stroke="#9a32cd" stroke-dasharray="5,2" d="M99.6092,-84.0654C123.479,-68.9659 160.1728,-45.7543 184.134,-30.597"/>
<polygon fill="#9a32cd" stroke="#9a32cd" points="97.7221,-81.1176 91.1421,-89.4215 101.4643,-87.0334 97.7221,-81.1176"/>
<text text-anchor="middle" x="165" y="-57.5" font-family="Helvetica,sans-Serif" font-size="10.00" fill="#000000"> _log</text>
</g>
<!-- Node7 -->
<g id="node3" class="node">
<title>Node7</title>
<polygon fill="#ffffff" stroke="#bfbfbf" points="0,-156.5 0,-186.5 152,-186.5 152,-156.5 0,-156.5"/>
<text text-anchor="start" x="8" y="-174.5" font-family="Helvetica,sans-Serif" font-size="10.00" fill="#000000">std::unique_ptr&lt; precice</text>
<text text-anchor="middle" x="76" y="-163.5" font-family="Helvetica,sans-Serif" font-size="10.00" fill="#000000">::logging::Logger::LoggerImpl &gt;</text>
</g>
<!-- Node7&#45;&gt;Node6 -->
<g id="edge2" class="edge">
<title>Node7&#45;&gt;Node6</title>
<path fill="none" stroke="#9a32cd" stroke-dasharray="5,2" d="M76,-146.305C76,-133.424 76,-118.4836 76,-108.8957"/>
<polygon fill="#9a32cd" stroke="#9a32cd" points="72.5001,-146.4779 76,-156.478 79.5001,-146.478 72.5001,-146.4779"/>
<text text-anchor="middle" x="89.5" y="-130" font-family="Helvetica,sans-Serif" font-size="10.00" fill="#000000"> _impl</text>
</g>
<!-- Node8 -->
<g id="node4" class="node">
<title>Node8</title>
<g id="a_node4"><a xlink:href="classprecice_1_1logging_1_1Logger_1_1LoggerImpl.html" target="_top" xlink:title="precice::logging::Logger\l::LoggerImpl">
<polygon fill="#ffffff" stroke="#000000" points="16,-234.5 16,-264.5 136,-264.5 136,-234.5 16,-234.5"/>
<text text-anchor="start" x="24" y="-252.5" font-family="Helvetica,sans-Serif" font-size="10.00" fill="#000000">precice::logging::Logger</text>
<text text-anchor="middle" x="76" y="-241.5" font-family="Helvetica,sans-Serif" font-size="10.00" fill="#000000">::LoggerImpl</text>
</a>
</g>
</g>
<!-- Node8&#45;&gt;Node7 -->
<g id="edge3" class="edge">
<title>Node8&#45;&gt;Node7</title>
<path fill="none" stroke="#9a32cd" stroke-dasharray="5,2" d="M76,-224.2875C76,-211.9187 76,-197.4264 76,-186.7592"/>
<polygon fill="#9a32cd" stroke="#9a32cd" points="72.5001,-224.4608 76,-234.4608 79.5001,-224.4608 72.5001,-224.4608"/>
<text text-anchor="middle" x="83.5" y="-208" font-family="Helvetica,sans-Serif" font-size="10.00" fill="#000000"> ptr</text>
</g>
<!-- Node9 -->
<g id="node5" class="node">
<title>Node9</title>
<polygon fill="#ffffff" stroke="#bfbfbf" points="15,-302.5 15,-354.5 137,-354.5 137,-302.5 15,-302.5"/>
<text text-anchor="start" x="23" y="-342.5" font-family="Helvetica,sans-Serif" font-size="10.00" fill="#000000">boost::log::sources</text>
<text text-anchor="start" x="23" y="-331.5" font-family="Helvetica,sans-Serif" font-size="10.00" fill="#000000">::severity_logger&lt; boost</text>
<text text-anchor="start" x="23" y="-320.5" font-family="Helvetica,sans-Serif" font-size="10.00" fill="#000000">::log::trivial::severity</text>
<text text-anchor="middle" x="76" y="-309.5" font-family="Helvetica,sans-Serif" font-size="10.00" fill="#000000">_level &gt;</text>
</g>
<!-- Node9&#45;&gt;Node8 -->
<g id="edge4" class="edge">
<title>Node9&#45;&gt;Node8</title>
<path fill="none" stroke="#191970" d="M76,-292.0152C76,-282.4501 76,-272.648 76,-264.8696"/>
<polygon fill="#191970" stroke="#191970" points="72.5001,-292.1941 76,-302.1941 79.5001,-292.1942 72.5001,-292.1941"/>
</g>
<!-- Node10 -->
<g id="node6" class="node">
<title>Node10</title>
<polygon fill="#ffffff" stroke="#bfbfbf" points="154.5,-89.5 154.5,-108.5 261.5,-108.5 261.5,-89.5 154.5,-89.5"/>
<text text-anchor="middle" x="208" y="-96.5" font-family="Helvetica,sans-Serif" font-size="10.00" fill="#000000">std::vector&lt; size_t &gt;</text>
</g>
<!-- Node10&#45;&gt;Node5 -->
<g id="edge5" class="edge">
<title>Node10&#45;&gt;Node5</title>
<path fill="none" stroke="#9a32cd" stroke-dasharray="5,2" d="M208,-79.2427C208,-64.345 208,-44.2186 208,-30.597"/>
<polygon fill="#9a32cd" stroke="#9a32cd" points="204.5001,-79.4215 208,-89.4215 211.5001,-79.4215 204.5001,-79.4215"/>
<text text-anchor="middle" x="247" y="-57.5" font-family="Helvetica,sans-Serif" font-size="10.00" fill="#000000"> _subVectorSizes</text>
</g>
<!-- Node11 -->
<g id="node7" class="node">
<title>Node11</title>
<polygon fill="#ffffff" stroke="#bfbfbf" points="280,-89.5 280,-108.5 390,-108.5 390,-89.5 280,-89.5"/>
<text text-anchor="middle" x="335" y="-96.5" font-family="Helvetica,sans-Serif" font-size="10.00" fill="#000000">std::vector&lt; double &gt;</text>
</g>
<!-- Node11&#45;&gt;Node5 -->
<g id="edge6" class="edge">
<title>Node11&#45;&gt;Node5</title>
<path fill="none" stroke="#9a32cd" stroke-dasharray="5,2" d="M322.2888,-81.2335C314.0482,-70.7364 302.538,-57.8175 290,-49 279.5594,-41.6575 267.2692,-35.5547 255.4262,-30.6595"/>
<polygon fill="#9a32cd" stroke="#9a32cd" points="319.5808,-83.4558 328.3926,-89.3382 325.1724,-79.2446 319.5808,-83.4558"/>
<text text-anchor="middle" x="339.5" y="-63" font-family="Helvetica,sans-Serif" font-size="10.00" fill="#000000"> _weights</text>
<text text-anchor="middle" x="339.5" y="-52" font-family="Helvetica,sans-Serif" font-size="10.00" fill="#000000">_invWeights</text>
</g>
</g>
</svg>
