<?xml version="1.0" encoding="UTF-8" standalone="no"?>
<!DOCTYPE svg PUBLIC "-//W3C//DTD SVG 1.1//EN"
 "http://www.w3.org/Graphics/SVG/1.1/DTD/svg11.dtd">
<!-- Generated by graphviz version 2.40.1 (20161225.0304)
 -->
<!-- Title: precice::utils::Parallel::initializeManagedMPI Pages: 1 -->
<svg width="291pt" height="39pt"
 viewBox="0.00 0.00 291.00 39.00" xmlns="http://www.w3.org/2000/svg" xmlns:xlink="http://www.w3.org/1999/xlink">
<g id="graph0" class="graph" transform="scale(1 1) rotate(0) translate(4 35)">
<title>precice::utils::Parallel::initializeManagedMPI</title>
<polygon fill="#ffffff" stroke="transparent" points="-4,4 -4,-35 287,-35 287,4 -4,4"/>
<!-- Node33 -->
<g id="node1" class="node">
<title>Node33</title>
<polygon fill="#bfbfbf" stroke="#000000" points="0,-.5 0,-30.5 126,-30.5 126,-.5 0,-.5"/>
<text text-anchor="start" x="8" y="-18.5" font-family="Helvetica,sans-Serif" font-size="10.00" fill="#000000">precice::utils::Parallel</text>
<text text-anchor="middle" x="63" y="-7.5" font-family="Helvetica,sans-Serif" font-size="10.00" fill="#000000">::initializeManagedMPI</text>
</g>
<!-- Node34 -->
<g id="node2" class="node">
<title>Node34</title>
<g id="a_node2"><a xlink:href="classprecice_1_1utils_1_1Parallel.html#a06b41a771f12a96c3c22b21d40f532b6" target="_top" xlink:title="Unconditionally initializes the MPI environment. ">
<polygon fill="#ffffff" stroke="#000000" points="162,-.5 162,-30.5 283,-30.5 283,-.5 162,-.5"/>
<text text-anchor="start" x="170" y="-18.5" font-family="Helvetica,sans-Serif" font-size="10.00" fill="#000000">precice::utils::Parallel</text>
<text text-anchor="middle" x="222.5" y="-7.5" font-family="Helvetica,sans-Serif" font-size="10.00" fill="#000000">::initializeMPI</text>
</a>
</g>
</g>
<!-- Node33&#45;&gt;Node34 -->
<g id="edge1" class="edge">
<title>Node33&#45;&gt;Node34</title>
<path fill="none" stroke="#191970" d="M126.0386,-15.5C134.3959,-15.5 143.0095,-15.5 151.4897,-15.5"/>
<polygon fill="#191970" stroke="#191970" points="151.7414,-19.0001 161.7413,-15.5 151.7413,-12.0001 151.7414,-19.0001"/>
</g>
</g>
</svg>
