<?xml version="1.0" encoding="UTF-8" standalone="no"?>
<!DOCTYPE svg PUBLIC "-//W3C//DTD SVG 1.1//EN"
 "http://www.w3.org/Graphics/SVG/1.1/DTD/svg11.dtd">
<!-- Generated by graphviz version 2.40.1 (20161225.0304)
 -->
<!-- Title: precice::partition::ProvidedPartition::communicate Pages: 1 -->
<!--zoomable 627 -->
<svg id="main" version="1.1" xmlns="http://www.w3.org/2000/svg" xmlns:xlink="http://www.w3.org/1999/xlink" xml:space="preserve" onload="init(evt)">
<style type="text/css"><![CDATA[
.edge:hover path { stroke: red; }
.edge:hover polygon { stroke: red; fill: red; }
]]></style>
<script type="text/javascript"><![CDATA[
var edges = document.getElementsByTagName('g');
if (edges && edges.length) {
  for (var i=0;i<edges.length;i++) {
    if (edges[i].id.substr(0,4)=='edge') {
      edges[i].setAttribute('class','edge');
    }
  }
}
]]></script>
        <defs>
                <circle id="rim" cx="0" cy="0" r="7"/>
                <circle id="rim2" cx="0" cy="0" r="3.5"/>
                <g id="zoomPlus">
                        <use xlink:href="#rim" fill="#404040">
                                <set attributeName="fill" to="#808080" begin="zoomplus.mouseover" end="zoomplus.mouseout"/>
                        </use>
                        <path d="M-4,0h8M0,-4v8" fill="none" stroke="white" stroke-width="1.5" pointer-events="none"/>
                </g>
                <g id="zoomMin">
                        <use xlink:href="#rim" fill="#404040">
                                <set attributeName="fill" to="#808080" begin="zoomminus.mouseover" end="zoomminus.mouseout"/>
                        </use>
                        <path d="M-4,0h8" fill="none" stroke="white" stroke-width="1.5" pointer-events="none"/>
                </g>
                <g id="dirArrow">
                        <path fill="none" stroke="white" stroke-width="1.5" d="M0,-3.0v7 M-2.5,-0.5L0,-3.0L2.5,-0.5"/>
                </g>
               <g id="resetDef">
                       <use xlink:href="#rim2" fill="#404040">
                               <set attributeName="fill" to="#808080" begin="reset.mouseover" end="reset.mouseout"/>
                       </use>
               </g>
        </defs>

<script type="text/javascript">
var viewWidth = 635;
var viewHeight = 627;
var sectionId = 'dynsection-3';
</script>
<script xlink:href="svgpan.js"/>
<svg id="graph" class="graph">
<g id="viewport">
<title>precice::partition::ProvidedPartition::communicate</title>
<polygon fill="#ffffff" stroke="transparent" points="-4,4 -4,-623 631,-623 631,4 -4,4"/>
<!-- Node30 -->
<g id="node1" class="node">
<title>Node30</title>
<polygon fill="#bfbfbf" stroke="#000000" points="0,-439 0,-480 106,-480 106,-439 0,-439"/>
<text text-anchor="start" x="8" y="-468" font-family="Helvetica,sans-Serif" font-size="10.00" fill="#000000">precice::partition</text>
<text text-anchor="start" x="8" y="-457" font-family="Helvetica,sans-Serif" font-size="10.00" fill="#000000">::ProvidedPartition</text>
<text text-anchor="middle" x="53" y="-446" font-family="Helvetica,sans-Serif" font-size="10.00" fill="#000000">::communicate</text>
</g>
<!-- Node31 -->
<g id="node2" class="node">
<title>Node31</title>
<g id="a_node2"><a xlink:href="classprecice_1_1partition_1_1ProvidedPartition.html#a155472514aaeaddb61edce0570ae2c00" target="_top" xlink:title="precice::partition\l::ProvidedPartition\l::prepare">
<polygon fill="#ffffff" stroke="#000000" points="165.5,-488 165.5,-529 271.5,-529 271.5,-488 165.5,-488"/>
<text text-anchor="start" x="173.5" y="-517" font-family="Helvetica,sans-Serif" font-size="10.00" fill="#000000">precice::partition</text>
<text text-anchor="start" x="173.5" y="-506" font-family="Helvetica,sans-Serif" font-size="10.00" fill="#000000">::ProvidedPartition</text>
<text text-anchor="middle" x="218.5" y="-495" font-family="Helvetica,sans-Serif" font-size="10.00" fill="#000000">::prepare</text>
</a>
</g>
</g>
<!-- Node30&#45;&gt;Node31 -->
<g id="edge1" class="edge">
<title>Node30&#45;&gt;Node31</title>
<path fill="none" stroke="#191970" d="M106.2762,-475.2736C121.9268,-479.9073 139.1953,-485.0201 155.3974,-489.817"/>
<polygon fill="#191970" stroke="#191970" points="154.7414,-493.2729 165.3236,-492.7559 156.7287,-486.5609 154.7414,-493.2729"/>
</g>
<!-- Node32 -->
<g id="node3" class="node">
<title>Node32</title>
<g id="a_node3"><a xlink:href="classprecice_1_1utils_1_1MasterSlave.html#a5e934392c32335daa8e2b4a01bc75fd3" target="_top" xlink:title="True if this process is running the master. ">
<polygon fill="#ffffff" stroke="#000000" points="331,-588.5 331,-618.5 476,-618.5 476,-588.5 331,-588.5"/>
<text text-anchor="start" x="339" y="-606.5" font-family="Helvetica,sans-Serif" font-size="10.00" fill="#000000">precice::utils::MasterSlave</text>
<text text-anchor="middle" x="403.5" y="-595.5" font-family="Helvetica,sans-Serif" font-size="10.00" fill="#000000">::isMaster</text>
</a>
</g>
</g>
<!-- Node30&#45;&gt;Node32 -->
<g id="edge5" class="edge">
<title>Node30&#45;&gt;Node32</title>
<path fill="none" stroke="#191970" d="M64.3658,-480.3988C78.9035,-504.9235 106.5032,-544.7438 142,-564.5 196.4469,-594.8031 266.6821,-603.9346 320.6511,-605.8272"/>
<polygon fill="#191970" stroke="#191970" points="320.7827,-609.332 330.8746,-606.1067 320.974,-602.3346 320.7827,-609.332"/>
</g>
<!-- Node33 -->
<g id="node4" class="node">
<title>Node33</title>
<g id="a_node4"><a xlink:href="classprecice_1_1utils_1_1MasterSlave.html#ae8671e778dec26782120295d51bb3fde" target="_top" xlink:title="Number of ranks. This includes ranks from both participants, e.g. minimal size is 2...">
<polygon fill="#ffffff" stroke="#000000" points="331,-539.5 331,-569.5 476,-569.5 476,-539.5 331,-539.5"/>
<text text-anchor="start" x="339" y="-557.5" font-family="Helvetica,sans-Serif" font-size="10.00" fill="#000000">precice::utils::MasterSlave</text>
<text text-anchor="middle" x="403.5" y="-546.5" font-family="Helvetica,sans-Serif" font-size="10.00" fill="#000000">::getSize</text>
</a>
</g>
</g>
<!-- Node30&#45;&gt;Node33 -->
<g id="edge8" class="edge">
<title>Node30&#45;&gt;Node33</title>
<path fill="none" stroke="#191970" d="M69.1951,-480.2256C85.3556,-499.1671 112.0425,-526.0621 142,-538.5 198.4336,-561.9303 267.6511,-565.1756 320.6942,-562.9686"/>
<polygon fill="#191970" stroke="#191970" points="320.9233,-566.4617 330.7406,-562.4779 320.5818,-559.4701 320.9233,-566.4617"/>
</g>
<!-- Node34 -->
<g id="node5" class="node">
<title>Node34</title>
<g id="a_node5"><a xlink:href="classprecice_1_1utils_1_1MasterSlave.html#a3837ad42361b53d7e930443ba07a9eb5" target="_top" xlink:title="True if this process is running a slave. ">
<polygon fill="#ffffff" stroke="#000000" points="331,-490.5 331,-520.5 476,-520.5 476,-490.5 331,-490.5"/>
<text text-anchor="start" x="339" y="-508.5" font-family="Helvetica,sans-Serif" font-size="10.00" fill="#000000">precice::utils::MasterSlave</text>
<text text-anchor="middle" x="403.5" y="-497.5" font-family="Helvetica,sans-Serif" font-size="10.00" fill="#000000">::isSlave</text>
</a>
</g>
</g>
<!-- Node30&#45;&gt;Node34 -->
<g id="edge7" class="edge">
<title>Node30&#45;&gt;Node34</title>
<path fill="none" stroke="#191970" d="M106.1747,-461.1452C155.4091,-463.2659 230.5241,-468.0206 295,-478.5 309.8669,-480.9163 325.6893,-484.3484 340.5222,-487.9584"/>
<polygon fill="#191970" stroke="#191970" points="340.0593,-491.4502 350.6092,-490.4758 341.7543,-484.6585 340.0593,-491.4502"/>
</g>
<!-- Node35 -->
<g id="node6" class="node">
<title>Node35</title>
<g id="a_node6"><a xlink:href="classprecice_1_1utils_1_1MasterSlave.html#af0deae7c83eae7f8e6908a2879bfb0e3" target="_top" xlink:title="Current rank. ">
<polygon fill="#ffffff" stroke="#000000" points="146,-400.5 146,-430.5 291,-430.5 291,-400.5 146,-400.5"/>
<text text-anchor="start" x="154" y="-418.5" font-family="Helvetica,sans-Serif" font-size="10.00" fill="#000000">precice::utils::MasterSlave</text>
<text text-anchor="middle" x="218.5" y="-407.5" font-family="Helvetica,sans-Serif" font-size="10.00" fill="#000000">::getRank</text>
</a>
</g>
</g>
<!-- Node30&#45;&gt;Node35 -->
<g id="edge6" class="edge">
<title>Node30&#45;&gt;Node35</title>
<path fill="none" stroke="#191970" d="M106.2762,-445.3359C120.849,-441.4616 136.8245,-437.2143 152.0357,-433.1703"/>
<polygon fill="#191970" stroke="#191970" points="153.1338,-436.5 161.8988,-430.5481 151.3352,-429.735 153.1338,-436.5"/>
</g>
<!-- Node36 -->
<g id="node7" class="node">
<title>Node36</title>
<g id="a_node7"><a xlink:href="classprecice_1_1com_1_1CommunicateMesh.html#a7ebb07330804e57322b738202dcb051e" target="_top" xlink:title="Receives a mesh from the sender with given rank. Adds received mesh to mesh. ">
<polygon fill="#ffffff" stroke="#000000" points="142,-172.5 142,-202.5 295,-202.5 295,-172.5 142,-172.5"/>
<text text-anchor="start" x="150" y="-190.5" font-family="Helvetica,sans-Serif" font-size="10.00" fill="#000000">precice::com::Communicate</text>
<text text-anchor="middle" x="218.5" y="-179.5" font-family="Helvetica,sans-Serif" font-size="10.00" fill="#000000">Mesh::receiveMesh</text>
</a>
</g>
</g>
<!-- Node30&#45;&gt;Node36 -->
<g id="edge9" class="edge">
<title>Node30&#45;&gt;Node36</title>
<path fill="none" stroke="#191970" d="M65.7117,-438.6083C95.987,-388.8507 172.2063,-263.5839 204.1077,-211.1537"/>
<polygon fill="#191970" stroke="#191970" points="207.1471,-212.8918 209.3551,-202.5296 201.1671,-209.2532 207.1471,-212.8918"/>
</g>
<!-- Node45 -->
<g id="node16" class="node">
<title>Node45</title>
<g id="a_node16"><a xlink:href="classprecice_1_1com_1_1CommunicateMesh.html#ace810ddd981fb3e2553a232a6afbf335" target="_top" xlink:title="Sends a constructed mesh to the receiver with given rank. ">
<polygon fill="#ffffff" stroke="#000000" points="142,-349.5 142,-379.5 295,-379.5 295,-349.5 142,-349.5"/>
<text text-anchor="start" x="150" y="-367.5" font-family="Helvetica,sans-Serif" font-size="10.00" fill="#000000">precice::com::Communicate</text>
<text text-anchor="middle" x="218.5" y="-356.5" font-family="Helvetica,sans-Serif" font-size="10.00" fill="#000000">Mesh::sendMesh</text>
</a>
</g>
</g>
<!-- Node30&#45;&gt;Node45 -->
<g id="edge18" class="edge">
<title>Node30&#45;&gt;Node45</title>
<path fill="none" stroke="#191970" d="M75.78,-438.8716C92.9864,-424.1228 117.7134,-404.6376 142,-391.5 147.4468,-388.5536 153.2793,-385.8228 159.2042,-383.3206"/>
<polygon fill="#191970" stroke="#191970" points="160.5669,-386.5452 168.549,-379.5783 157.9645,-380.0469 160.5669,-386.5452"/>
</g>
<!-- Node31&#45;&gt;Node32 -->
<g id="edge2" class="edge">
<title>Node31&#45;&gt;Node32</title>
<path fill="none" stroke="#191970" d="M246.9907,-529.2212C269.0921,-544.6051 300.9289,-565.2942 331,-579.5 334.8437,-581.3158 338.8618,-583.0532 342.9504,-584.7034"/>
<polygon fill="#191970" stroke="#191970" points="341.9792,-588.0794 352.5694,-588.3914 344.4852,-581.5434 341.9792,-588.0794"/>
</g>
<!-- Node31&#45;&gt;Node33 -->
<g id="edge3" class="edge">
<title>Node31&#45;&gt;Node33</title>
<path fill="none" stroke="#191970" d="M271.5136,-521.6818C290.6908,-526.4501 312.6556,-531.9117 333.0922,-536.9932"/>
<polygon fill="#191970" stroke="#191970" points="332.434,-540.436 342.9831,-539.4526 334.1232,-533.6429 332.434,-540.436"/>
</g>
<!-- Node31&#45;&gt;Node34 -->
<g id="edge4" class="edge">
<title>Node31&#45;&gt;Node34</title>
<path fill="none" stroke="#191970" d="M271.5136,-507.6403C286.8103,-507.3923 303.8806,-507.1154 320.5343,-506.8454"/>
<polygon fill="#191970" stroke="#191970" points="320.8882,-510.3402 330.8301,-506.6784 320.7746,-503.3411 320.8882,-510.3402"/>
</g>
<!-- Node37 -->
<g id="node8" class="node">
<title>Node37</title>
<g id="a_node8"><a xlink:href="classprecice_1_1mesh_1_1Mesh.html#a3185fe962ba3e8fe0b3cf451681e6a48" target="_top" xlink:title="Returns the name of the mesh, as set in the config file. ">
<polygon fill="#ffffff" stroke="#000000" points="345.5,-245.5 345.5,-275.5 461.5,-275.5 461.5,-245.5 345.5,-245.5"/>
<text text-anchor="start" x="353.5" y="-263.5" font-family="Helvetica,sans-Serif" font-size="10.00" fill="#000000">precice::mesh::Mesh</text>
<text text-anchor="middle" x="403.5" y="-252.5" font-family="Helvetica,sans-Serif" font-size="10.00" fill="#000000">::getName</text>
</a>
</g>
</g>
<!-- Node36&#45;&gt;Node37 -->
<g id="edge10" class="edge">
<title>Node36&#45;&gt;Node37</title>
<path fill="none" stroke="#191970" d="M251.1557,-202.663C273.4369,-212.7757 303.7393,-226.0759 331,-236.5 336.031,-238.4238 341.291,-240.3414 346.5807,-242.2063"/>
<polygon fill="#191970" stroke="#191970" points="345.4962,-245.5346 356.091,-245.4963 347.7847,-238.9192 345.4962,-245.5346"/>
</g>
<!-- Node38 -->
<g id="node9" class="node">
<title>Node38</title>
<g id="a_node9"><a xlink:href="classprecice_1_1mesh_1_1Mesh.html#a136f6b4ce235025e418fab0ca5f350ff" target="_top" xlink:title="precice::mesh::Mesh\l::getDimensions">
<polygon fill="#ffffff" stroke="#000000" points="345.5,-294.5 345.5,-324.5 461.5,-324.5 461.5,-294.5 345.5,-294.5"/>
<text text-anchor="start" x="353.5" y="-312.5" font-family="Helvetica,sans-Serif" font-size="10.00" fill="#000000">precice::mesh::Mesh</text>
<text text-anchor="middle" x="403.5" y="-301.5" font-family="Helvetica,sans-Serif" font-size="10.00" fill="#000000">::getDimensions</text>
</a>
</g>
</g>
<!-- Node36&#45;&gt;Node38 -->
<g id="edge11" class="edge">
<title>Node36&#45;&gt;Node38</title>
<path fill="none" stroke="#191970" d="M231.9787,-202.532C251.7674,-223.773 290.7206,-262.5363 331,-285.5 334.0289,-287.2268 337.2006,-288.8521 340.4537,-290.3785"/>
<polygon fill="#191970" stroke="#191970" points="339.219,-293.6579 349.7863,-294.4206 342.0011,-287.2345 339.219,-293.6579"/>
</g>
<!-- Node39 -->
<g id="node10" class="node">
<title>Node39</title>
<g id="a_node10"><a xlink:href="classprecice_1_1mesh_1_1Mesh.html#af6e6d684553dc5d0f0a23cacb77b3fc7" target="_top" xlink:title="Creates and initializes a Vertex object. ">
<polygon fill="#ffffff" stroke="#000000" points="345.5,-.5 345.5,-30.5 461.5,-30.5 461.5,-.5 345.5,-.5"/>
<text text-anchor="start" x="353.5" y="-18.5" font-family="Helvetica,sans-Serif" font-size="10.00" fill="#000000">precice::mesh::Mesh</text>
<text text-anchor="middle" x="403.5" y="-7.5" font-family="Helvetica,sans-Serif" font-size="10.00" fill="#000000">::createVertex</text>
</a>
</g>
</g>
<!-- Node36&#45;&gt;Node39 -->
<g id="edge12" class="edge">
<title>Node36&#45;&gt;Node39</title>
<path fill="none" stroke="#191970" d="M226.1343,-172.0661C241.7145,-142.1217 280.0497,-75.8939 331,-39.5 333.0769,-38.0165 335.2513,-36.6204 337.4969,-35.307"/>
<polygon fill="#191970" stroke="#191970" points="339.2035,-38.3644 346.4555,-30.6405 335.9696,-32.1562 339.2035,-38.3644"/>
</g>
<!-- Node40 -->
<g id="node11" class="node">
<title>Node40</title>
<g id="a_node11"><a xlink:href="classprecice_1_1mesh_1_1Vertex.html#aeccde29fd990bdba5a5792372c341ef4" target="_top" xlink:title="Returns the unique (among vertices of one mesh on one processor) ID of the vertex. ">
<polygon fill="#ffffff" stroke="#000000" points="342.5,-196.5 342.5,-226.5 464.5,-226.5 464.5,-196.5 342.5,-196.5"/>
<text text-anchor="start" x="350.5" y="-214.5" font-family="Helvetica,sans-Serif" font-size="10.00" fill="#000000">precice::mesh::Vertex</text>
<text text-anchor="middle" x="403.5" y="-203.5" font-family="Helvetica,sans-Serif" font-size="10.00" fill="#000000">::getID</text>
</a>
</g>
</g>
<!-- Node36&#45;&gt;Node40 -->
<g id="edge13" class="edge">
<title>Node36&#45;&gt;Node40</title>
<path fill="none" stroke="#191970" d="M295.082,-197.435C307.4298,-199.0368 320.1678,-200.6893 332.3798,-202.2736"/>
<polygon fill="#191970" stroke="#191970" points="332.1268,-205.77 342.494,-203.5857 333.0275,-198.8282 332.1268,-205.77"/>
</g>
<!-- Node41 -->
<g id="node12" class="node">
<title>Node41</title>
<g id="a_node12"><a xlink:href="classprecice_1_1mesh_1_1Vertex.html#a94c37cf5c30d40459a3afa2f2aabe8f4" target="_top" xlink:title="precice::mesh::Vertex\l::setGlobalIndex">
<polygon fill="#ffffff" stroke="#000000" points="342.5,-147.5 342.5,-177.5 464.5,-177.5 464.5,-147.5 342.5,-147.5"/>
<text text-anchor="start" x="350.5" y="-165.5" font-family="Helvetica,sans-Serif" font-size="10.00" fill="#000000">precice::mesh::Vertex</text>
<text text-anchor="middle" x="403.5" y="-154.5" font-family="Helvetica,sans-Serif" font-size="10.00" fill="#000000">::setGlobalIndex</text>
</a>
</g>
</g>
<!-- Node36&#45;&gt;Node41 -->
<g id="edge14" class="edge">
<title>Node36&#45;&gt;Node41</title>
<path fill="none" stroke="#191970" d="M295.082,-177.1511C307.4298,-175.4825 320.1678,-173.7611 332.3798,-172.1108"/>
<polygon fill="#191970" stroke="#191970" points="333.0529,-175.5518 342.494,-170.744 332.1154,-168.6148 333.0529,-175.5518"/>
</g>
<!-- Node42 -->
<g id="node13" class="node">
<title>Node42</title>
<g id="a_node13"><a xlink:href="classprecice_1_1mesh_1_1Mesh.html#ae05c5234aa9adc6f47a814622039c28e" target="_top" xlink:title="Creates and initializes an Edge object. ">
<polygon fill="#ffffff" stroke="#000000" points="345.5,-98.5 345.5,-128.5 461.5,-128.5 461.5,-98.5 345.5,-98.5"/>
<text text-anchor="start" x="353.5" y="-116.5" font-family="Helvetica,sans-Serif" font-size="10.00" fill="#000000">precice::mesh::Mesh</text>
<text text-anchor="middle" x="403.5" y="-105.5" font-family="Helvetica,sans-Serif" font-size="10.00" fill="#000000">::createEdge</text>
</a>
</g>
</g>
<!-- Node36&#45;&gt;Node42 -->
<g id="edge15" class="edge">
<title>Node36&#45;&gt;Node42</title>
<path fill="none" stroke="#191970" d="M251.1979,-172.4463C273.4974,-162.381 303.8043,-149.0926 331,-138.5 336.5634,-136.3331 342.4024,-134.1582 348.2497,-132.0446"/>
<polygon fill="#191970" stroke="#191970" points="349.8025,-135.2072 358.0509,-128.5578 347.4562,-128.6121 349.8025,-135.2072"/>
</g>
<!-- Node43 -->
<g id="node14" class="node">
<title>Node43</title>
<g id="a_node14"><a xlink:href="classprecice_1_1mesh_1_1Mesh.html#a00c3db2576c63d8c6f351175ddc0a4d0" target="_top" xlink:title="Creates and initializes a Triangle object. ">
<polygon fill="#ffffff" stroke="#000000" points="345.5,-49.5 345.5,-79.5 461.5,-79.5 461.5,-49.5 345.5,-49.5"/>
<text text-anchor="start" x="353.5" y="-67.5" font-family="Helvetica,sans-Serif" font-size="10.00" fill="#000000">precice::mesh::Mesh</text>
<text text-anchor="middle" x="403.5" y="-56.5" font-family="Helvetica,sans-Serif" font-size="10.00" fill="#000000">::createTriangle</text>
</a>
</g>
</g>
<!-- Node36&#45;&gt;Node43 -->
<g id="edge16" class="edge">
<title>Node36&#45;&gt;Node43</title>
<path fill="none" stroke="#191970" d="M232.3517,-172.1793C252.2892,-150.9452 291.0877,-112.5829 331,-89.5 334.6305,-87.4003 338.4653,-85.4389 342.399,-83.6134"/>
<polygon fill="#191970" stroke="#191970" points="343.911,-86.773 351.708,-79.5996 341.1394,-80.3451 343.911,-86.773"/>
</g>
<!-- Node44 -->
<g id="node15" class="node">
<title>Node44</title>
<g id="a_node15"><a xlink:href="classprecice_1_1mesh_1_1Edge.html#af27f4bd02d0b67cc5c3d04e2cf1ddee7" target="_top" xlink:title="Checks whether both edges share a vertex. ">
<polygon fill="#ffffff" stroke="#000000" points="512,-49.5 512,-79.5 627,-79.5 627,-49.5 512,-49.5"/>
<text text-anchor="start" x="520" y="-67.5" font-family="Helvetica,sans-Serif" font-size="10.00" fill="#000000">precice::mesh::Edge</text>
<text text-anchor="middle" x="569.5" y="-56.5" font-family="Helvetica,sans-Serif" font-size="10.00" fill="#000000">::connectedTo</text>
</a>
</g>
</g>
<!-- Node43&#45;&gt;Node44 -->
<g id="edge17" class="edge">
<title>Node43&#45;&gt;Node44</title>
<path fill="none" stroke="#191970" d="M461.5587,-64.5C474.5225,-64.5 488.3811,-64.5 501.6991,-64.5"/>
<polygon fill="#191970" stroke="#191970" points="501.7544,-68.0001 511.7544,-64.5 501.7543,-61.0001 501.7544,-68.0001"/>
</g>
<!-- Node45&#45;&gt;Node37 -->
<g id="edge19" class="edge">
<title>Node45&#45;&gt;Node37</title>
<path fill="none" stroke="#191970" d="M236.5828,-349.377C258.0009,-332.0588 295.2918,-303.7347 331,-285.5 335.2242,-283.3429 339.6768,-281.3019 344.2123,-279.3867"/>
<polygon fill="#191970" stroke="#191970" points="345.6071,-282.5985 353.592,-275.6349 343.0073,-276.0991 345.6071,-282.5985"/>
</g>
<!-- Node45&#45;&gt;Node38 -->
<g id="edge20" class="edge">
<title>Node45&#45;&gt;Node38</title>
<path fill="none" stroke="#191970" d="M269.0521,-349.471C291.9948,-342.6502 319.3056,-334.5308 343.3002,-327.3972"/>
<polygon fill="#191970" stroke="#191970" points="344.4211,-330.7155 353.0091,-324.5108 342.4263,-324.0057 344.4211,-330.7155"/>
</g>
<!-- Node46 -->
<g id="node17" class="node">
<title>Node46</title>
<g id="a_node17"><a xlink:href="classprecice_1_1mesh_1_1Mesh.html#a13faa9b03e5d20918ed6528db1415fa3" target="_top" xlink:title="Returns modifieable container holding all vertices. ">
<polygon fill="#ffffff" stroke="#000000" points="345.5,-441.5 345.5,-471.5 461.5,-471.5 461.5,-441.5 345.5,-441.5"/>
<text text-anchor="start" x="353.5" y="-459.5" font-family="Helvetica,sans-Serif" font-size="10.00" fill="#000000">precice::mesh::Mesh</text>
<text text-anchor="middle" x="403.5" y="-448.5" font-family="Helvetica,sans-Serif" font-size="10.00" fill="#000000">::vertices</text>
</a>
</g>
</g>
<!-- Node45&#45;&gt;Node46 -->
<g id="edge21" class="edge">
<title>Node45&#45;&gt;Node46</title>
<path fill="none" stroke="#191970" d="M272.4555,-379.587C280.3437,-382.8999 288.1173,-386.844 295,-391.5 315.0855,-405.0875 310.7822,-419.1101 331,-432.5 333.3835,-434.0786 335.8799,-435.5615 338.4532,-436.9537"/>
<polygon fill="#191970" stroke="#191970" points="336.9246,-440.1022 347.4463,-441.3446 339.9959,-433.8119 336.9246,-440.1022"/>
</g>
<!-- Node47 -->
<g id="node18" class="node">
<title>Node47</title>
<g id="a_node18"><a xlink:href="classprecice_1_1mesh_1_1Mesh.html#aec6f303d7791f8a64e2b78180531c89e" target="_top" xlink:title="Returns modifiable container holding all edges. ">
<polygon fill="#ffffff" stroke="#000000" points="345.5,-392.5 345.5,-422.5 461.5,-422.5 461.5,-392.5 345.5,-392.5"/>
<text text-anchor="start" x="353.5" y="-410.5" font-family="Helvetica,sans-Serif" font-size="10.00" fill="#000000">precice::mesh::Mesh</text>
<text text-anchor="middle" x="403.5" y="-399.5" font-family="Helvetica,sans-Serif" font-size="10.00" fill="#000000">::edges</text>
</a>
</g>
</g>
<!-- Node45&#45;&gt;Node47 -->
<g id="edge22" class="edge">
<title>Node45&#45;&gt;Node47</title>
<path fill="none" stroke="#191970" d="M283.204,-379.5393C300.1018,-383.4669 318.3638,-387.7116 335.4306,-391.6785"/>
<polygon fill="#191970" stroke="#191970" points="334.7891,-395.1226 345.3219,-393.9775 336.3739,-388.3043 334.7891,-395.1226"/>
</g>
<!-- Node48 -->
<g id="node19" class="node">
<title>Node48</title>
<g id="a_node19"><a xlink:href="classprecice_1_1mesh_1_1Mesh.html#ad24f3877f1ea7cd5cd5f93a6f2e4d3f9" target="_top" xlink:title="Returns modifiable container holding all triangles. ">
<polygon fill="#ffffff" stroke="#000000" points="345.5,-343.5 345.5,-373.5 461.5,-373.5 461.5,-343.5 345.5,-343.5"/>
<text text-anchor="start" x="353.5" y="-361.5" font-family="Helvetica,sans-Serif" font-size="10.00" fill="#000000">precice::mesh::Mesh</text>
<text text-anchor="middle" x="403.5" y="-350.5" font-family="Helvetica,sans-Serif" font-size="10.00" fill="#000000">::triangles</text>
</a>
</g>
</g>
<!-- Node45&#45;&gt;Node48 -->
<g id="edge23" class="edge">
<title>Node45&#45;&gt;Node48</title>
<path fill="none" stroke="#191970" d="M295.082,-362.0163C308.3376,-361.5863 322.0429,-361.1419 335.0644,-360.7195"/>
<polygon fill="#191970" stroke="#191970" points="335.4579,-364.2087 345.3392,-360.3863 335.231,-357.2124 335.4579,-364.2087"/>
</g>
</g>
</svg>
        <g id="navigator" transform="translate(0 0)" fill="#404254">
                <rect fill="#f2f5e9" fill-opacity="0.5" stroke="#606060" stroke-width=".5" x="0" y="0" width="60" height="60"/>
                <use id="zoomplus" xlink:href="#zoomPlus" x="17" y="9" onmousedown="handleZoom(evt,'in')"/>
                <use id="zoomminus" xlink:href="#zoomMin" x="42" y="9" onmousedown="handleZoom(evt,'out')"/>
                <use id="reset" xlink:href="#resetDef" x="30" y="36" onmousedown="handleReset()"/>
                <g id="arrowUp" xlink:href="#dirArrow" transform="translate(30 24)" onmousedown="handlePan(0,-1)">
                  <use xlink:href="#rim" fill="#404040">
                        <set attributeName="fill" to="#808080" begin="arrowUp.mouseover" end="arrowUp.mouseout"/>
                  </use>
                  <path fill="none" stroke="white" stroke-width="1.5" d="M0,-3.0v7 M-2.5,-0.5L0,-3.0L2.5,-0.5"/>
                </g>
                <g id="arrowRight" xlink:href="#dirArrow" transform="rotate(90) translate(36 -43)" onmousedown="handlePan(1,0)">
                  <use xlink:href="#rim" fill="#404040">
                        <set attributeName="fill" to="#808080" begin="arrowRight.mouseover" end="arrowRight.mouseout"/>
                  </use>
                  <path fill="none" stroke="white" stroke-width="1.5" d="M0,-3.0v7 M-2.5,-0.5L0,-3.0L2.5,-0.5"/>
                </g>
                <g id="arrowDown" xlink:href="#dirArrow" transform="rotate(180) translate(-30 -48)" onmousedown="handlePan(0,1)">
                  <use xlink:href="#rim" fill="#404040">
                        <set attributeName="fill" to="#808080" begin="arrowDown.mouseover" end="arrowDown.mouseout"/>
                  </use>
                  <path fill="none" stroke="white" stroke-width="1.5" d="M0,-3.0v7 M-2.5,-0.5L0,-3.0L2.5,-0.5"/>
                </g>
                <g id="arrowLeft" xlink:href="#dirArrow" transform="rotate(270) translate(-36 17)" onmousedown="handlePan(-1,0)">
                  <use xlink:href="#rim" fill="#404040">
                        <set attributeName="fill" to="#808080" begin="arrowLeft.mouseover" end="arrowLeft.mouseout"/>
                  </use>
                  <path fill="none" stroke="white" stroke-width="1.5" d="M0,-3.0v7 M-2.5,-0.5L0,-3.0L2.5,-0.5"/>
                </g>
        </g>
        <svg viewBox="0 0 15 15" width="100%" height="30px" preserveAspectRatio="xMaxYMin meet">
         <g id="arrow_out" transform="scale(0.3 0.3)">
          <a xlink:href="classprecice_1_1partition_1_1ProvidedPartition_a8d1cec45c47ced50c14228d23ad2ab8c_cgraph_org.svg" target="_base">
           <rect id="button" ry="5" rx="5" y="6" x="6" height="38" width="38"
                fill="#f2f5e9" fill-opacity="0.5" stroke="#606060" stroke-width="1.0"/>
           <path id="arrow"
             d="M 11.500037,31.436501 C 11.940474,20.09759 22.043105,11.32322 32.158766,21.979434 L 37.068811,17.246167 C 37.068811,17.246167 37.088388,32 37.088388,32 L 22.160133,31.978069 C 22.160133,31.978069 26.997745,27.140456 26.997745,27.140456 C 18.528582,18.264221 13.291696,25.230495 11.500037,31.436501 z"
             style="fill:#404040;"/>
          </a>
         </g>
        </svg>
</svg>
