<?xml version="1.0" encoding="UTF-8" standalone="no"?>
<!DOCTYPE svg PUBLIC "-//W3C//DTD SVG 1.1//EN"
 "http://www.w3.org/Graphics/SVG/1.1/DTD/svg11.dtd">
<!-- Generated by graphviz version 2.40.1 (20161225.0304)
 -->
<!-- Title: precice::mesh::Mesh Pages: 1 -->
<!--zoomable 448 -->
<svg id="main" version="1.1" xmlns="http://www.w3.org/2000/svg" xmlns:xlink="http://www.w3.org/1999/xlink" xml:space="preserve" onload="init(evt)">
<style type="text/css"><![CDATA[
.edge:hover path { stroke: red; }
.edge:hover polygon { stroke: red; fill: red; }
]]></style>
<script type="text/javascript"><![CDATA[
var edges = document.getElementsByTagName('g');
if (edges && edges.length) {
  for (var i=0;i<edges.length;i++) {
    if (edges[i].id.substr(0,4)=='edge') {
      edges[i].setAttribute('class','edge');
    }
  }
}
]]></script>
        <defs>
                <circle id="rim" cx="0" cy="0" r="7"/>
                <circle id="rim2" cx="0" cy="0" r="3.5"/>
                <g id="zoomPlus">
                        <use xlink:href="#rim" fill="#404040">
                                <set attributeName="fill" to="#808080" begin="zoomplus.mouseover" end="zoomplus.mouseout"/>
                        </use>
                        <path d="M-4,0h8M0,-4v8" fill="none" stroke="white" stroke-width="1.5" pointer-events="none"/>
                </g>
                <g id="zoomMin">
                        <use xlink:href="#rim" fill="#404040">
                                <set attributeName="fill" to="#808080" begin="zoomminus.mouseover" end="zoomminus.mouseout"/>
                        </use>
                        <path d="M-4,0h8" fill="none" stroke="white" stroke-width="1.5" pointer-events="none"/>
                </g>
                <g id="dirArrow">
                        <path fill="none" stroke="white" stroke-width="1.5" d="M0,-3.0v7 M-2.5,-0.5L0,-3.0L2.5,-0.5"/>
                </g>
               <g id="resetDef">
                       <use xlink:href="#rim2" fill="#404040">
                               <set attributeName="fill" to="#808080" begin="reset.mouseover" end="reset.mouseout"/>
                       </use>
               </g>
        </defs>

<script type="text/javascript">
var viewWidth = 1678;
var viewHeight = 448;
var sectionId = 'dynsection-0';
</script>
<script xlink:href="svgpan.js"/>
<svg id="graph" class="graph">
<g id="viewport">
<title>precice::mesh::Mesh</title>
<polygon fill="#ffffff" stroke="transparent" points="-4,4 -4,-444.1262 1674,-444.1262 1674,4 -4,4"/>
<!-- Node1 -->
<g id="node1" class="node">
<title>Node1</title>
<polygon fill="#bfbfbf" stroke="#000000" points="1554,-186.6262 1554,-205.6262 1670,-205.6262 1670,-186.6262 1554,-186.6262"/>
<text text-anchor="middle" x="1612" y="-193.6262" font-family="Helvetica,sans-Serif" font-size="10.00" fill="#000000">precice::mesh::Mesh</text>
</g>
<!-- Node2 -->
<g id="node2" class="node">
<title>Node2</title>
<polygon fill="#ffffff" stroke="#bfbfbf" points="1271.5,-317.6262 1271.5,-336.6262 1399.5,-336.6262 1399.5,-317.6262 1271.5,-317.6262"/>
<text text-anchor="middle" x="1335.5" y="-324.6262" font-family="Helvetica,sans-Serif" font-size="10.00" fill="#000000">std::deque&lt; Triangle &gt;</text>
</g>
<!-- Node2&#45;&gt;Node1 -->
<g id="edge1" class="edge">
<title>Node2&#45;&gt;Node1</title>
<path fill="none" stroke="#9a32cd" stroke-dasharray="5,2" d="M1410.0159,-332.2857C1449.9147,-331.724 1498.4332,-325.4496 1536,-303.1262 1575.176,-279.8465 1599.5262,-227.6337 1608.3048,-205.9045"/>
<polygon fill="#9a32cd" stroke="#9a32cd" points="1409.7972,-328.7861 1399.8054,-332.3093 1409.8135,-335.7861 1409.7972,-328.7861"/>
<text text-anchor="middle" x="1483.5" y="-334.1262" font-family="Helvetica,sans-Serif" font-size="10.00" fill="#000000"> _triangles</text>
</g>
<!-- Node3 -->
<g id="node3" class="node">
<title>Node3</title>
<g id="a_node3"><a xlink:href="classprecice_1_1mesh_1_1Triangle.html" target="_top" xlink:title="Triangle of a mesh, defined by three edges (and vertices). ">
<polygon fill="#ffffff" stroke="#000000" points="1042,-317.6262 1042,-336.6262 1171,-336.6262 1171,-317.6262 1042,-317.6262"/>
<text text-anchor="middle" x="1106.5" y="-324.6262" font-family="Helvetica,sans-Serif" font-size="10.00" fill="#000000">precice::mesh::Triangle</text>
</a>
</g>
</g>
<!-- Node3&#45;&gt;Node2 -->
<g id="edge2" class="edge">
<title>Node3&#45;&gt;Node2</title>
<path fill="none" stroke="#9a32cd" stroke-dasharray="5,2" d="M1181.3138,-327.1262C1210.3968,-327.1262 1243.378,-327.1262 1271.3521,-327.1262"/>
<polygon fill="#9a32cd" stroke="#9a32cd" points="1181.204,-323.6263 1171.204,-327.1262 1181.2039,-330.6263 1181.204,-323.6263"/>
<text text-anchor="middle" x="1215.5" y="-330.1262" font-family="Helvetica,sans-Serif" font-size="10.00" fill="#000000"> elements</text>
</g>
<!-- Node4 -->
<g id="node4" class="node">
<title>Node4</title>
<polygon fill="#ffffff" stroke="#bfbfbf" points="749.5,-356.1262 749.5,-386.1262 860.5,-386.1262 860.5,-356.1262 749.5,-356.1262"/>
<text text-anchor="start" x="757.5" y="-374.1262" font-family="Helvetica,sans-Serif" font-size="10.00" fill="#000000">std::array&lt; precice</text>
<text text-anchor="middle" x="805" y="-363.1262" font-family="Helvetica,sans-Serif" font-size="10.00" fill="#000000">::mesh::Edge *, 3 &gt;</text>
</g>
<!-- Node4&#45;&gt;Node3 -->
<g id="edge3" class="edge">
<title>Node4&#45;&gt;Node3</title>
<path fill="none" stroke="#9a32cd" stroke-dasharray="5,2" d="M870.9137,-363.0624C913.9796,-357.6103 971.4101,-349.9931 1022,-342.1262 1032.6002,-340.4778 1043.9219,-338.5701 1054.7207,-336.6793"/>
<polygon fill="#9a32cd" stroke="#9a32cd" points="870.3281,-359.6084 860.844,-364.331 871.203,-366.5535 870.3281,-359.6084"/>
<text text-anchor="middle" x="965" y="-360.1262" font-family="Helvetica,sans-Serif" font-size="10.00" fill="#000000"> _edges</text>
</g>
<!-- Node5 -->
<g id="node5" class="node">
<title>Node5</title>
<g id="a_node5"><a xlink:href="classprecice_1_1mesh_1_1Edge.html" target="_top" xlink:title="Linear edge of a mesh, defined by two Vertex objects. ">
<polygon fill="#ffffff" stroke="#000000" points="511,-361.6262 511,-380.6262 626,-380.6262 626,-361.6262 511,-361.6262"/>
<text text-anchor="middle" x="568.5" y="-368.6262" font-family="Helvetica,sans-Serif" font-size="10.00" fill="#000000">precice::mesh::Edge</text>
</a>
</g>
</g>
<!-- Node5&#45;&gt;Node4 -->
<g id="edge4" class="edge">
<title>Node5&#45;&gt;Node4</title>
<path fill="none" stroke="#9a32cd" stroke-dasharray="5,2" d="M636.4032,-371.1262C672.158,-371.1262 715.4639,-371.1262 749.2324,-371.1262"/>
<polygon fill="#9a32cd" stroke="#9a32cd" points="636.052,-367.6263 626.052,-371.1262 636.052,-374.6263 636.052,-367.6263"/>
<text text-anchor="middle" x="677.5" y="-374.1262" font-family="Helvetica,sans-Serif" font-size="10.00" fill="#000000"> elements</text>
</g>
<!-- Node9 -->
<g id="node9" class="node">
<title>Node9</title>
<polygon fill="#ffffff" stroke="#bfbfbf" points="908,-393.6262 908,-412.6262 1022,-412.6262 1022,-393.6262 908,-393.6262"/>
<text text-anchor="middle" x="965" y="-400.6262" font-family="Helvetica,sans-Serif" font-size="10.00" fill="#000000">std::deque&lt; Edge &gt;</text>
</g>
<!-- Node5&#45;&gt;Node9 -->
<g id="edge9" class="edge">
<title>Node5&#45;&gt;Node9</title>
<path fill="none" stroke="#9a32cd" stroke-dasharray="5,2" d="M630.8508,-382.3941C638.3097,-383.683 645.8223,-384.9537 653,-386.1262 682.7138,-390.98 690.0098,-393.4693 720,-396.1262 784.2149,-401.8151 858.2302,-403.2222 907.9567,-403.423"/>
<polygon fill="#9a32cd" stroke="#9a32cd" points="631.2021,-378.9026 620.7495,-380.6329 629.9997,-385.7986 631.2021,-378.9026"/>
<text text-anchor="middle" x="677.5" y="-397.1262" font-family="Helvetica,sans-Serif" font-size="10.00" fill="#000000"> elements</text>
</g>
<!-- Node6 -->
<g id="node6" class="node">
<title>Node6</title>
<polygon fill="#ffffff" stroke="#bfbfbf" points="216,-348.1262 216,-378.1262 335,-378.1262 335,-348.1262 216,-348.1262"/>
<text text-anchor="start" x="224" y="-366.1262" font-family="Helvetica,sans-Serif" font-size="10.00" fill="#000000">std::array&lt; precice</text>
<text text-anchor="middle" x="275.5" y="-355.1262" font-family="Helvetica,sans-Serif" font-size="10.00" fill="#000000">::mesh::Vertex *, 2 &gt;</text>
</g>
<!-- Node6&#45;&gt;Node5 -->
<g id="edge5" class="edge">
<title>Node6&#45;&gt;Node5</title>
<path fill="none" stroke="#9a32cd" stroke-dasharray="5,2" d="M345.3443,-365.0332C395.9146,-366.4139 463.4498,-368.2579 510.9329,-369.5544"/>
<polygon fill="#9a32cd" stroke="#9a32cd" points="345.2379,-361.5291 335.1461,-364.7547 345.0468,-368.5264 345.2379,-361.5291"/>
<text text-anchor="middle" x="423" y="-371.1262" font-family="Helvetica,sans-Serif" font-size="10.00" fill="#000000"> _vertices</text>
</g>
<!-- Node7 -->
<g id="node7" class="node">
<title>Node7</title>
<g id="a_node7"><a xlink:href="classprecice_1_1mesh_1_1Vertex.html" target="_top" xlink:title="Vertex of a mesh. ">
<polygon fill="#ffffff" stroke="#000000" points="0,-307.6262 0,-326.6262 122,-326.6262 122,-307.6262 0,-307.6262"/>
<text text-anchor="middle" x="61" y="-314.6262" font-family="Helvetica,sans-Serif" font-size="10.00" fill="#000000">precice::mesh::Vertex</text>
</a>
</g>
</g>
<!-- Node7&#45;&gt;Node6 -->
<g id="edge6" class="edge">
<title>Node7&#45;&gt;Node6</title>
<path fill="none" stroke="#9a32cd" stroke-dasharray="5,2" d="M115.4991,-328.8136C146.0692,-335.3694 184.2533,-343.5581 215.6518,-350.2916"/>
<polygon fill="#9a32cd" stroke="#9a32cd" points="115.9562,-325.3321 105.4445,-326.6574 114.4883,-332.1765 115.9562,-325.3321"/>
<text text-anchor="middle" x="164.5" y="-347.1262" font-family="Helvetica,sans-Serif" font-size="10.00" fill="#000000"> elements</text>
</g>
<!-- Node21 -->
<g id="node21" class="node">
<title>Node21</title>
<polygon fill="#ffffff" stroke="#bfbfbf" points="362,-281.6262 362,-300.6262 484,-300.6262 484,-281.6262 362,-281.6262"/>
<text text-anchor="middle" x="423" y="-288.6262" font-family="Helvetica,sans-Serif" font-size="10.00" fill="#000000">std::deque&lt; Vertex &gt;</text>
</g>
<!-- Node7&#45;&gt;Node21 -->
<g id="edge24" class="edge">
<title>Node7&#45;&gt;Node21</title>
<path fill="none" stroke="#9a32cd" stroke-dasharray="5,2" d="M132.4609,-311.9936C199.4417,-307.1828 298.5004,-300.0681 361.8955,-295.5149"/>
<polygon fill="#9a32cd" stroke="#9a32cd" points="132.1319,-308.5081 122.4084,-312.7156 132.6334,-315.4901 132.1319,-308.5081"/>
<text text-anchor="middle" x="164.5" y="-313.1262" font-family="Helvetica,sans-Serif" font-size="10.00" fill="#000000"> elements</text>
</g>
<!-- Node8 -->
<g id="node8" class="node">
<title>Node8</title>
<polygon fill="#ffffff" stroke="#bfbfbf" points="745.5,-317.6262 745.5,-336.6262 864.5,-336.6262 864.5,-317.6262 745.5,-317.6262"/>
<text text-anchor="middle" x="805" y="-324.6262" font-family="Helvetica,sans-Serif" font-size="10.00" fill="#000000">std::array&lt; bool, 3 &gt;</text>
</g>
<!-- Node8&#45;&gt;Node3 -->
<g id="edge7" class="edge">
<title>Node8&#45;&gt;Node3</title>
<path fill="none" stroke="#9a32cd" stroke-dasharray="5,2" d="M874.7231,-327.1262C925.1036,-327.1262 992.6626,-327.1262 1041.838,-327.1262"/>
<polygon fill="#9a32cd" stroke="#9a32cd" points="874.5667,-323.6263 864.5667,-327.1262 874.5667,-330.6263 874.5667,-323.6263"/>
<text text-anchor="middle" x="965" y="-330.1262" font-family="Helvetica,sans-Serif" font-size="10.00" fill="#000000"> _vertexMap</text>
</g>
<!-- Node9&#45;&gt;Node1 -->
<g id="edge8" class="edge">
<title>Node9&#45;&gt;Node1</title>
<path fill="none" stroke="#9a32cd" stroke-dasharray="5,2" d="M1023.3626,-414.2872C1134.0619,-432.0733 1377.5994,-454.648 1536,-346.1262 1586.3346,-311.6415 1605.1377,-233.4859 1610.3453,-205.9506"/>
<polygon fill="#9a32cd" stroke="#9a32cd" points="1023.8268,-410.8165 1013.39,-412.6395 1022.6857,-417.7229 1023.8268,-410.8165"/>
<text text-anchor="middle" x="1215.5" y="-432.1262" font-family="Helvetica,sans-Serif" font-size="10.00" fill="#000000"> _edges</text>
</g>
<!-- Node10 -->
<g id="node10" class="node">
<title>Node10</title>
<g id="a_node10"><a xlink:href="classprecice_1_1mesh_1_1BoundingBox.html" target="_top" xlink:title="An axis&#45;aligned bounding box around a (partition of a) mesh. ">
<polygon fill="#ffffff" stroke="#000000" points="1258,-225.6262 1258,-244.6262 1413,-244.6262 1413,-225.6262 1258,-225.6262"/>
<text text-anchor="middle" x="1335.5" y="-232.6262" font-family="Helvetica,sans-Serif" font-size="10.00" fill="#000000">precice::mesh::BoundingBox</text>
</a>
</g>
</g>
<!-- Node10&#45;&gt;Node1 -->
<g id="edge10" class="edge">
<title>Node10&#45;&gt;Node1</title>
<path fill="none" stroke="#9a32cd" stroke-dasharray="5,2" d="M1423.4587,-225.28C1458.5348,-221.0612 1499.2402,-215.7988 1536,-210.1262 1544.6187,-208.7962 1553.7603,-207.239 1562.6036,-205.6558"/>
<polygon fill="#9a32cd" stroke="#9a32cd" points="1422.7601,-221.8384 1413.2451,-226.4982 1423.5892,-228.7891 1422.7601,-221.8384"/>
<text text-anchor="middle" x="1483.5" y="-227.1262" font-family="Helvetica,sans-Serif" font-size="10.00" fill="#000000"> _boundingBox</text>
</g>
<!-- Node11 -->
<g id="node11" class="node">
<title>Node11</title>
<g id="a_node11"><a xlink:href="classprecice_1_1logging_1_1Logger.html" target="_top" xlink:title="This class provides a leightweight logger. ">
<polygon fill="#ffffff" stroke="#000000" points="1040,-195.6262 1040,-214.6262 1173,-214.6262 1173,-195.6262 1040,-195.6262"/>
<text text-anchor="middle" x="1106.5" y="-202.6262" font-family="Helvetica,sans-Serif" font-size="10.00" fill="#000000">precice::logging::Logger</text>
</a>
</g>
</g>
<!-- Node11&#45;&gt;Node1 -->
<g id="edge17" class="edge">
<title>Node11&#45;&gt;Node1</title>
<path fill="none" stroke="#9a32cd" stroke-dasharray="5,2" d="M1183.3197,-203.7584C1285.1201,-201.946 1462.4743,-198.7883 1553.8701,-197.1611"/>
<polygon fill="#9a32cd" stroke="#9a32cd" points="1183.0412,-200.2628 1173.1051,-203.9403 1183.1659,-207.2616 1183.0412,-200.2628"/>
<text text-anchor="middle" x="1335.5" y="-205.1262" font-family="Helvetica,sans-Serif" font-size="10.00" fill="#000000"> _log</text>
</g>
<!-- Node11&#45;&gt;Node10 -->
<g id="edge11" class="edge">
<title>Node11&#45;&gt;Node10</title>
<path fill="none" stroke="#9a32cd" stroke-dasharray="5,2" d="M1183.1127,-215.1628C1208.813,-218.5296 1237.3835,-222.2725 1262.7769,-225.5991"/>
<polygon fill="#9a32cd" stroke="#9a32cd" points="1183.4138,-211.6724 1173.0439,-213.8437 1182.5045,-218.6131 1183.4138,-211.6724"/>
<text text-anchor="middle" x="1215.5" y="-224.1262" font-family="Helvetica,sans-Serif" font-size="10.00" fill="#000000"> _log</text>
</g>
<!-- Node12 -->
<g id="node12" class="node">
<title>Node12</title>
<polygon fill="#ffffff" stroke="#bfbfbf" points="720,-190.1262 720,-220.1262 890,-220.1262 890,-190.1262 720,-190.1262"/>
<text text-anchor="start" x="728" y="-208.1262" font-family="Helvetica,sans-Serif" font-size="10.00" fill="#000000">std::unique_ptr&lt; precice</text>
<text text-anchor="middle" x="805" y="-197.1262" font-family="Helvetica,sans-Serif" font-size="10.00" fill="#000000">::logging::Logger::LoggerImpl &gt;</text>
</g>
<!-- Node12&#45;&gt;Node11 -->
<g id="edge12" class="edge">
<title>Node12&#45;&gt;Node11</title>
<path fill="none" stroke="#9a32cd" stroke-dasharray="5,2" d="M900.3303,-205.1262C945.6528,-205.1262 998.7393,-205.1262 1039.6926,-205.1262"/>
<polygon fill="#9a32cd" stroke="#9a32cd" points="900.1889,-201.6263 890.1889,-205.1262 900.1888,-208.6263 900.1889,-201.6263"/>
<text text-anchor="middle" x="965" y="-208.1262" font-family="Helvetica,sans-Serif" font-size="10.00" fill="#000000"> _impl</text>
</g>
<!-- Node13 -->
<g id="node13" class="node">
<title>Node13</title>
<g id="a_node13"><a xlink:href="classprecice_1_1logging_1_1Logger_1_1LoggerImpl.html" target="_top" xlink:title="precice::logging::Logger\l::LoggerImpl">
<polygon fill="#ffffff" stroke="#000000" points="502,-190.1262 502,-220.1262 635,-220.1262 635,-190.1262 502,-190.1262"/>
<text text-anchor="start" x="510" y="-208.1262" font-family="Helvetica,sans-Serif" font-size="10.00" fill="#000000">precice::logging::Logger</text>
<text text-anchor="middle" x="568.5" y="-197.1262" font-family="Helvetica,sans-Serif" font-size="10.00" fill="#000000">::LoggerImpl</text>
</a>
</g>
</g>
<!-- Node13&#45;&gt;Node12 -->
<g id="edge13" class="edge">
<title>Node13&#45;&gt;Node12</title>
<path fill="none" stroke="#9a32cd" stroke-dasharray="5,2" d="M645.0827,-205.1262C668.9948,-205.1262 695.5135,-205.1262 719.9692,-205.1262"/>
<polygon fill="#9a32cd" stroke="#9a32cd" points="645.0078,-201.6263 635.0078,-205.1262 645.0078,-208.6263 645.0078,-201.6263"/>
<text text-anchor="middle" x="677.5" y="-208.1262" font-family="Helvetica,sans-Serif" font-size="10.00" fill="#000000"> ptr</text>
</g>
<!-- Node14 -->
<g id="node14" class="node">
<title>Node14</title>
<polygon fill="#ffffff" stroke="#bfbfbf" points="207,-179.1262 207,-231.1262 344,-231.1262 344,-179.1262 207,-179.1262"/>
<text text-anchor="start" x="215" y="-219.1262" font-family="Helvetica,sans-Serif" font-size="10.00" fill="#000000">boost::log::sources</text>
<text text-anchor="start" x="215" y="-208.1262" font-family="Helvetica,sans-Serif" font-size="10.00" fill="#000000">::severity_logger&lt; boost</text>
<text text-anchor="start" x="215" y="-197.1262" font-family="Helvetica,sans-Serif" font-size="10.00" fill="#000000">::log::trivial::severity</text>
<text text-anchor="middle" x="275.5" y="-186.1262" font-family="Helvetica,sans-Serif" font-size="10.00" fill="#000000">_level &gt;</text>
</g>
<!-- Node14&#45;&gt;Node13 -->
<g id="edge14" class="edge">
<title>Node14&#45;&gt;Node13</title>
<path fill="none" stroke="#191970" d="M354.4387,-205.1262C400.4952,-205.1262 457.9587,-205.1262 501.7489,-205.1262"/>
<polygon fill="#191970" stroke="#191970" points="354.1955,-201.6263 344.1955,-205.1262 354.1954,-208.6263 354.1955,-201.6263"/>
</g>
<!-- Node15 -->
<g id="node15" class="node">
<title>Node15</title>
<polygon fill="#ffffff" stroke="#bfbfbf" points="1044.5,-241.6262 1044.5,-260.6262 1168.5,-260.6262 1168.5,-241.6262 1044.5,-241.6262"/>
<text text-anchor="middle" x="1106.5" y="-248.6262" font-family="Helvetica,sans-Serif" font-size="10.00" fill="#000000">std::vector&lt; double &gt;</text>
</g>
<!-- Node15&#45;&gt;Node10 -->
<g id="edge15" class="edge">
<title>Node15&#45;&gt;Node10</title>
<path fill="none" stroke="#9a32cd" stroke-dasharray="5,2" d="M1178.9409,-246.0648C1204.0084,-244.3133 1232.1996,-242.3437 1257.6809,-240.5633"/>
<polygon fill="#9a32cd" stroke="#9a32cd" points="1178.5045,-242.5867 1168.7728,-246.7752 1178.9924,-249.5696 1178.5045,-242.5867"/>
<text text-anchor="middle" x="1215.5" y="-247.1262" font-family="Helvetica,sans-Serif" font-size="10.00" fill="#000000"> _bounds</text>
</g>
<!-- Node16 -->
<g id="node16" class="node">
<title>Node16</title>
<polygon fill="#ffffff" stroke="#bfbfbf" points="1271.5,-140.6262 1271.5,-159.6262 1399.5,-159.6262 1399.5,-140.6262 1271.5,-140.6262"/>
<text text-anchor="middle" x="1335.5" y="-147.6262" font-family="Helvetica,sans-Serif" font-size="10.00" fill="#000000">std::vector&lt; PtrData &gt;</text>
</g>
<!-- Node16&#45;&gt;Node1 -->
<g id="edge16" class="edge">
<title>Node16&#45;&gt;Node1</title>
<path fill="none" stroke="#9a32cd" stroke-dasharray="5,2" d="M1409.6901,-154.1056C1447.7568,-157.1013 1494.6889,-162.2744 1536,-171.1262 1553.5204,-174.8802 1572.6815,-181.199 1587.3811,-186.5444"/>
<polygon fill="#9a32cd" stroke="#9a32cd" points="1409.9424,-150.6148 1399.7077,-153.3537 1409.4165,-157.595 1409.9424,-150.6148"/>
<text text-anchor="middle" x="1483.5" y="-174.1262" font-family="Helvetica,sans-Serif" font-size="10.00" fill="#000000"> _data</text>
</g>
<!-- Node17 -->
<g id="node17" class="node">
<title>Node17</title>
<g id="a_node17"><a xlink:title="STL class. ">
<polygon fill="#ffffff" stroke="#bfbfbf" points="1303,-102.6262 1303,-121.6262 1368,-121.6262 1368,-102.6262 1303,-102.6262"/>
<text text-anchor="middle" x="1335.5" y="-109.6262" font-family="Helvetica,sans-Serif" font-size="10.00" fill="#000000">std::string</text>
</a>
</g>
</g>
<!-- Node17&#45;&gt;Node1 -->
<g id="edge18" class="edge">
<title>Node17&#45;&gt;Node1</title>
<path fill="none" stroke="#9a32cd" stroke-dasharray="5,2" d="M1378.0972,-112.0687C1419.7932,-113.3776 1484.3895,-119.0988 1536,-140.1262 1562.7134,-151.0099 1588.6178,-173.3972 1602.1992,-186.3265"/>
<polygon fill="#9a32cd" stroke="#9a32cd" points="1378.0937,-108.5677 1368.0118,-111.8244 1377.9241,-115.5656 1378.0937,-108.5677"/>
<text text-anchor="middle" x="1483.5" y="-143.1262" font-family="Helvetica,sans-Serif" font-size="10.00" fill="#000000"> _name</text>
</g>
<!-- Node18 -->
<g id="node18" class="node">
<title>Node18</title>
<g id="a_node18"><a xlink:title="STL class. ">
<polygon fill="#ffffff" stroke="#bfbfbf" points="1054.5,-97.1262 1054.5,-127.1262 1158.5,-127.1262 1158.5,-97.1262 1054.5,-97.1262"/>
<text text-anchor="start" x="1062.5" y="-115.1262" font-family="Helvetica,sans-Serif" font-size="10.00" fill="#000000">std::basic_string&lt;</text>
<text text-anchor="middle" x="1106.5" y="-104.1262" font-family="Helvetica,sans-Serif" font-size="10.00" fill="#000000"> char &gt;</text>
</a>
</g>
</g>
<!-- Node18&#45;&gt;Node17 -->
<g id="edge19" class="edge">
<title>Node18&#45;&gt;Node17</title>
<path fill="none" stroke="#191970" d="M1168.9044,-112.1262C1212.2098,-112.1262 1268.1512,-112.1262 1302.9255,-112.1262"/>
<polygon fill="#191970" stroke="#191970" points="1168.7502,-108.6263 1158.7502,-112.1262 1168.7502,-115.6263 1168.7502,-108.6263"/>
</g>
<!-- Node19 -->
<g id="node19" class="node">
<title>Node19</title>
<polygon fill="#ffffff" stroke="#bfbfbf" points="1054.5,-30.6262 1054.5,-49.6262 1158.5,-49.6262 1158.5,-30.6262 1054.5,-30.6262"/>
<text text-anchor="middle" x="1106.5" y="-37.6262" font-family="Helvetica,sans-Serif" font-size="10.00" fill="#000000">std::vector&lt; int &gt;</text>
</g>
<!-- Node19&#45;&gt;Node1 -->
<g id="edge20" class="edge">
<title>Node19&#45;&gt;Node1</title>
<path fill="none" stroke="#9a32cd" stroke-dasharray="5,2" d="M1146.4974,-27.8476C1229.4505,-5.0721 1421.9705,33.459 1536,-59.1262 1579.4981,-94.4441 1602.2031,-161.6327 1609.4129,-186.531"/>
<polygon fill="#9a32cd" stroke="#9a32cd" points="1145.3808,-24.5258 1136.7032,-30.6046 1147.2775,-31.264 1145.3808,-24.5258"/>
<text text-anchor="middle" x="1335.5" y="-20.1262" font-family="Helvetica,sans-Serif" font-size="10.00" fill="#000000"> _vertexOffsets</text>
<text text-anchor="middle" x="1335.5" y="-9.1262" font-family="Helvetica,sans-Serif" font-size="10.00" fill="#000000">_connectedRanks</text>
</g>
<!-- Node20 -->
<g id="node20" class="node">
<title>Node20</title>
<polygon fill="#ffffff" stroke="#bfbfbf" points="1283.5,-53.1262 1283.5,-83.1262 1387.5,-83.1262 1387.5,-53.1262 1283.5,-53.1262"/>
<text text-anchor="start" x="1291.5" y="-71.1262" font-family="Helvetica,sans-Serif" font-size="10.00" fill="#000000">std::map&lt; int, std</text>
<text text-anchor="middle" x="1335.5" y="-60.1262" font-family="Helvetica,sans-Serif" font-size="10.00" fill="#000000">::vector&lt; int &gt; &gt;</text>
</g>
<!-- Node19&#45;&gt;Node20 -->
<g id="edge22" class="edge">
<title>Node19&#45;&gt;Node20</title>
<path fill="none" stroke="#9a32cd" stroke-dasharray="5,2" d="M1169.1084,-47.7813C1205.0001,-52.1698 1249.5194,-57.6132 1283.4743,-61.7649"/>
<polygon fill="#9a32cd" stroke="#9a32cd" points="1169.1011,-44.2545 1158.7502,-46.5148 1168.2515,-51.2027 1169.1011,-44.2545"/>
<text text-anchor="middle" x="1215.5" y="-59.1262" font-family="Helvetica,sans-Serif" font-size="10.00" fill="#000000"> elements</text>
</g>
<!-- Node20&#45;&gt;Node1 -->
<g id="edge21" class="edge">
<title>Node20&#45;&gt;Node1</title>
<path fill="none" stroke="#9a32cd" stroke-dasharray="5,2" d="M1397.753,-62.2865C1439.5562,-61.2723 1494.387,-65.7988 1536,-90.1262 1575.0973,-112.9828 1599.4918,-164.8232 1608.2935,-186.4097"/>
<polygon fill="#9a32cd" stroke="#9a32cd" points="1397.5631,-58.7909 1387.6931,-62.6423 1397.8106,-65.7865 1397.5631,-58.7909"/>
<text text-anchor="middle" x="1483.5" y="-104.1262" font-family="Helvetica,sans-Serif" font-size="10.00" fill="#000000"> _communicationMap</text>
<text text-anchor="middle" x="1483.5" y="-93.1262" font-family="Helvetica,sans-Serif" font-size="10.00" fill="#000000">_vertexDistribution</text>
</g>
<!-- Node21&#45;&gt;Node1 -->
<g id="edge23" class="edge">
<title>Node21&#45;&gt;Node1</title>
<path fill="none" stroke="#9a32cd" stroke-dasharray="5,2" d="M494.4529,-290.2648C545.4622,-289.7231 615.7004,-289.1262 677.5,-289.1262 677.5,-289.1262 677.5,-289.1262 1335.5,-289.1262 1427.3402,-289.1262 1450.699,-273.1607 1536,-239.1262 1558.6697,-230.0811 1582.8849,-215.4056 1597.7353,-205.7591"/>
<polygon fill="#9a32cd" stroke="#9a32cd" points="494.1547,-286.7677 484.1931,-290.3757 494.2304,-293.7673 494.1547,-286.7677"/>
<text text-anchor="middle" x="965" y="-292.1262" font-family="Helvetica,sans-Serif" font-size="10.00" fill="#000000"> _vertices</text>
</g>
</g>
</svg>
        <g id="navigator" transform="translate(0 0)" fill="#404254">
                <rect fill="#f2f5e9" fill-opacity="0.5" stroke="#606060" stroke-width=".5" x="0" y="0" width="60" height="60"/>
                <use id="zoomplus" xlink:href="#zoomPlus" x="17" y="9" onmousedown="handleZoom(evt,'in')"/>
                <use id="zoomminus" xlink:href="#zoomMin" x="42" y="9" onmousedown="handleZoom(evt,'out')"/>
                <use id="reset" xlink:href="#resetDef" x="30" y="36" onmousedown="handleReset()"/>
                <g id="arrowUp" xlink:href="#dirArrow" transform="translate(30 24)" onmousedown="handlePan(0,-1)">
                  <use xlink:href="#rim" fill="#404040">
                        <set attributeName="fill" to="#808080" begin="arrowUp.mouseover" end="arrowUp.mouseout"/>
                  </use>
                  <path fill="none" stroke="white" stroke-width="1.5" d="M0,-3.0v7 M-2.5,-0.5L0,-3.0L2.5,-0.5"/>
                </g>
                <g id="arrowRight" xlink:href="#dirArrow" transform="rotate(90) translate(36 -43)" onmousedown="handlePan(1,0)">
                  <use xlink:href="#rim" fill="#404040">
                        <set attributeName="fill" to="#808080" begin="arrowRight.mouseover" end="arrowRight.mouseout"/>
                  </use>
                  <path fill="none" stroke="white" stroke-width="1.5" d="M0,-3.0v7 M-2.5,-0.5L0,-3.0L2.5,-0.5"/>
                </g>
                <g id="arrowDown" xlink:href="#dirArrow" transform="rotate(180) translate(-30 -48)" onmousedown="handlePan(0,1)">
                  <use xlink:href="#rim" fill="#404040">
                        <set attributeName="fill" to="#808080" begin="arrowDown.mouseover" end="arrowDown.mouseout"/>
                  </use>
                  <path fill="none" stroke="white" stroke-width="1.5" d="M0,-3.0v7 M-2.5,-0.5L0,-3.0L2.5,-0.5"/>
                </g>
                <g id="arrowLeft" xlink:href="#dirArrow" transform="rotate(270) translate(-36 17)" onmousedown="handlePan(-1,0)">
                  <use xlink:href="#rim" fill="#404040">
                        <set attributeName="fill" to="#808080" begin="arrowLeft.mouseover" end="arrowLeft.mouseout"/>
                  </use>
                  <path fill="none" stroke="white" stroke-width="1.5" d="M0,-3.0v7 M-2.5,-0.5L0,-3.0L2.5,-0.5"/>
                </g>
        </g>
        <svg viewBox="0 0 15 15" width="100%" height="30px" preserveAspectRatio="xMaxYMin meet">
         <g id="arrow_out" transform="scale(0.3 0.3)">
          <a xlink:href="classprecice_1_1mesh_1_1Mesh__coll__graph_org.svg" target="_base">
           <rect id="button" ry="5" rx="5" y="6" x="6" height="38" width="38"
                fill="#f2f5e9" fill-opacity="0.5" stroke="#606060" stroke-width="1.0"/>
           <path id="arrow"
             d="M 11.500037,31.436501 C 11.940474,20.09759 22.043105,11.32322 32.158766,21.979434 L 37.068811,17.246167 C 37.068811,17.246167 37.088388,32 37.088388,32 L 22.160133,31.978069 C 22.160133,31.978069 26.997745,27.140456 26.997745,27.140456 C 18.528582,18.264221 13.291696,25.230495 11.500037,31.436501 z"
             style="fill:#404040;"/>
          </a>
         </g>
        </svg>
</svg>
