<?xml version="1.0" encoding="UTF-8" standalone="no"?>
<!DOCTYPE svg PUBLIC "-//W3C//DTD SVG 1.1//EN"
 "http://www.w3.org/Graphics/SVG/1.1/DTD/svg11.dtd">
<!-- Generated by graphviz version 2.40.1 (20161225.0304)
 -->
<!-- Title: precice::cplscheme::SerialCouplingScheme::exchangeDataAndAccelerate Pages: 1 -->
<!--zoomable 1151 -->
<svg id="main" version="1.1" xmlns="http://www.w3.org/2000/svg" xmlns:xlink="http://www.w3.org/1999/xlink" xml:space="preserve" onload="init(evt)">
<style type="text/css"><![CDATA[
.edge:hover path { stroke: red; }
.edge:hover polygon { stroke: red; fill: red; }
]]></style>
<script type="text/javascript"><![CDATA[
var edges = document.getElementsByTagName('g');
if (edges && edges.length) {
  for (var i=0;i<edges.length;i++) {
    if (edges[i].id.substr(0,4)=='edge') {
      edges[i].setAttribute('class','edge');
    }
  }
}
]]></script>
        <defs>
                <circle id="rim" cx="0" cy="0" r="7"/>
                <circle id="rim2" cx="0" cy="0" r="3.5"/>
                <g id="zoomPlus">
                        <use xlink:href="#rim" fill="#404040">
                                <set attributeName="fill" to="#808080" begin="zoomplus.mouseover" end="zoomplus.mouseout"/>
                        </use>
                        <path d="M-4,0h8M0,-4v8" fill="none" stroke="white" stroke-width="1.5" pointer-events="none"/>
                </g>
                <g id="zoomMin">
                        <use xlink:href="#rim" fill="#404040">
                                <set attributeName="fill" to="#808080" begin="zoomminus.mouseover" end="zoomminus.mouseout"/>
                        </use>
                        <path d="M-4,0h8" fill="none" stroke="white" stroke-width="1.5" pointer-events="none"/>
                </g>
                <g id="dirArrow">
                        <path fill="none" stroke="white" stroke-width="1.5" d="M0,-3.0v7 M-2.5,-0.5L0,-3.0L2.5,-0.5"/>
                </g>
               <g id="resetDef">
                       <use xlink:href="#rim2" fill="#404040">
                               <set attributeName="fill" to="#808080" begin="reset.mouseover" end="reset.mouseout"/>
                       </use>
               </g>
        </defs>

<script type="text/javascript">
var viewWidth = 743;
var viewHeight = 1151;
var sectionId = 'dynsection-3';
</script>
<script xlink:href="svgpan.js"/>
<svg id="graph" class="graph">
<g id="viewport">
<title>precice::cplscheme::SerialCouplingScheme::exchangeDataAndAccelerate</title>
<polygon fill="#ffffff" stroke="transparent" points="-4,4 -4,-1146.6923 739,-1146.6923 739,4 -4,4"/>
<!-- Node3 -->
<g id="node1" class="node">
<title>Node3</title>
<polygon fill="#bfbfbf" stroke="#000000" points="0,-761 0,-802 149,-802 149,-761 0,-761"/>
<text text-anchor="start" x="8" y="-790" font-family="Helvetica,sans-Serif" font-size="10.00" fill="#000000">precice::cplscheme</text>
<text text-anchor="start" x="8" y="-779" font-family="Helvetica,sans-Serif" font-size="10.00" fill="#000000">::SerialCouplingScheme</text>
<text text-anchor="middle" x="74.5" y="-768" font-family="Helvetica,sans-Serif" font-size="10.00" fill="#000000">::exchangeDataAndAccelerate</text>
</g>
<!-- Node4 -->
<g id="node2" class="node">
<title>Node4</title>
<g id="a_node2"><a xlink:href="classprecice_1_1cplscheme_1_1BaseCouplingScheme.html#af880c679675d59efcf00b0b9fd984f6e" target="_top" xlink:title="Getter for _doesFirstStep. ">
<polygon fill="#ffffff" stroke="#000000" points="599.5,-786 599.5,-827 718.5,-827 718.5,-786 599.5,-786"/>
<text text-anchor="start" x="607.5" y="-815" font-family="Helvetica,sans-Serif" font-size="10.00" fill="#000000">precice::cplscheme</text>
<text text-anchor="start" x="607.5" y="-804" font-family="Helvetica,sans-Serif" font-size="10.00" fill="#000000">::BaseCouplingScheme</text>
<text text-anchor="middle" x="659" y="-793" font-family="Helvetica,sans-Serif" font-size="10.00" fill="#000000">::doesFirstStep</text>
</a>
</g>
</g>
<!-- Node3&#45;&gt;Node4 -->
<g id="edge1" class="edge">
<title>Node3&#45;&gt;Node4</title>
<path fill="none" stroke="#191970" d="M78.3799,-802.1459C91.0957,-867.3656 133.6546,-1066.8355 185,-1103.5 323.8778,-1202.6693 425.5096,-1095.3402 547,-975.5 589.7858,-933.2953 625.3205,-872.2108 644.2437,-836.205"/>
<polygon fill="#191970" stroke="#191970" points="647.4242,-837.6744 648.9121,-827.1846 641.2074,-834.457 647.4242,-837.6744"/>
</g>
<!-- Node5 -->
<g id="node3" class="node">
<title>Node5</title>
<g id="a_node3"><a xlink:href="classprecice_1_1cplscheme_1_1BaseCouplingScheme.html#a70462eb20d3c2093b04c5d3c37edca1f" target="_top" xlink:title="Getter for _computedTimeWindowPart. ">
<polygon fill="#ffffff" stroke="#000000" points="188.5,-1053 188.5,-1094 344.5,-1094 344.5,-1053 188.5,-1053"/>
<text text-anchor="start" x="196.5" y="-1082" font-family="Helvetica,sans-Serif" font-size="10.00" fill="#000000">precice::cplscheme</text>
<text text-anchor="start" x="196.5" y="-1071" font-family="Helvetica,sans-Serif" font-size="10.00" fill="#000000">::BaseCouplingScheme</text>
<text text-anchor="middle" x="266.5" y="-1060" font-family="Helvetica,sans-Serif" font-size="10.00" fill="#000000">::getComputedTimeWindowPart</text>
</a>
</g>
</g>
<!-- Node3&#45;&gt;Node5 -->
<g id="edge2" class="edge">
<title>Node3&#45;&gt;Node5</title>
<path fill="none" stroke="#191970" d="M77.9811,-802.0773C87.0703,-849.8203 115.7851,-969.3151 185,-1038.5 188.2111,-1041.7098 191.7637,-1044.6444 195.5364,-1047.3248"/>
<polygon fill="#191970" stroke="#191970" points="193.7886,-1050.3614 204.1003,-1052.7945 197.5565,-1044.462 193.7886,-1050.3614"/>
</g>
<!-- Node6 -->
<g id="node4" class="node">
<title>Node6</title>
<g id="a_node4"><a xlink:href="classprecice_1_1cplscheme_1_1BiCouplingScheme.html#ae90273efd5e7a1ba0b91b5e09fd971ac" target="_top" xlink:title="precice::cplscheme\l::BiCouplingScheme::\lgetM2N">
<polygon fill="#ffffff" stroke="#000000" points="409.5,-754 409.5,-795 521.5,-795 521.5,-754 409.5,-754"/>
<text text-anchor="start" x="417.5" y="-783" font-family="Helvetica,sans-Serif" font-size="10.00" fill="#000000">precice::cplscheme</text>
<text text-anchor="start" x="417.5" y="-772" font-family="Helvetica,sans-Serif" font-size="10.00" fill="#000000">::BiCouplingScheme::</text>
<text text-anchor="middle" x="465.5" y="-761" font-family="Helvetica,sans-Serif" font-size="10.00" fill="#000000">getM2N</text>
</a>
</g>
</g>
<!-- Node3&#45;&gt;Node6 -->
<g id="edge3" class="edge">
<title>Node3&#45;&gt;Node6</title>
<path fill="none" stroke="#191970" d="M149.0737,-786.1016C161.082,-786.6834 173.3808,-787.1848 185,-787.5 257.4178,-789.4646 275.6655,-791.4893 348,-787.5 364.6311,-786.5828 382.5262,-784.9406 399.2125,-783.1253"/>
<polygon fill="#191970" stroke="#191970" points="399.8773,-786.5727 409.4237,-781.9776 399.0953,-779.6165 399.8773,-786.5727"/>
</g>
<!-- Node7 -->
<g id="node5" class="node">
<title>Node7</title>
<g id="a_node5"><a xlink:href="classprecice_1_1cplscheme_1_1BaseCouplingScheme.html#a880fa19d4fdcfa6e5e9c2abf82aff10b" target="_top" xlink:title="Sends data sendDataIDs given in mapCouplingData with communication. ">
<polygon fill="#ffffff" stroke="#000000" points="207,-955 207,-996 326,-996 326,-955 207,-955"/>
<text text-anchor="start" x="215" y="-984" font-family="Helvetica,sans-Serif" font-size="10.00" fill="#000000">precice::cplscheme</text>
<text text-anchor="start" x="215" y="-973" font-family="Helvetica,sans-Serif" font-size="10.00" fill="#000000">::BaseCouplingScheme</text>
<text text-anchor="middle" x="266.5" y="-962" font-family="Helvetica,sans-Serif" font-size="10.00" fill="#000000">::sendData</text>
</a>
</g>
</g>
<!-- Node3&#45;&gt;Node7 -->
<g id="edge4" class="edge">
<title>Node3&#45;&gt;Node7</title>
<path fill="none" stroke="#191970" d="M83.2471,-802.1827C98.8113,-836.6287 134.4908,-905.8692 185,-945.5 188.8737,-948.5394 193.0853,-951.2915 197.4855,-953.7802"/>
<polygon fill="#191970" stroke="#191970" points="196.2399,-957.0749 206.7349,-958.5262 199.4356,-950.8469 196.2399,-957.0749"/>
</g>
<!-- Node8 -->
<g id="node6" class="node">
<title>Node8</title>
<g id="a_node6"><a xlink:href="classprecice_1_1cplscheme_1_1BiCouplingScheme.html#a66197fbf9e9032a824e128cd55aefa7f" target="_top" xlink:title="Returns all data to be sent. ">
<polygon fill="#ffffff" stroke="#000000" points="210.5,-895 210.5,-936 322.5,-936 322.5,-895 210.5,-895"/>
<text text-anchor="start" x="218.5" y="-924" font-family="Helvetica,sans-Serif" font-size="10.00" fill="#000000">precice::cplscheme</text>
<text text-anchor="start" x="218.5" y="-913" font-family="Helvetica,sans-Serif" font-size="10.00" fill="#000000">::BiCouplingScheme::</text>
<text text-anchor="middle" x="266.5" y="-902" font-family="Helvetica,sans-Serif" font-size="10.00" fill="#000000">getSendData</text>
</a>
</g>
</g>
<!-- Node3&#45;&gt;Node8 -->
<g id="edge5" class="edge">
<title>Node3&#45;&gt;Node8</title>
<path fill="none" stroke="#191970" d="M91.7132,-802.0786C111.96,-825.1516 147.5831,-862.358 185,-885.5 190.011,-888.5993 195.3912,-891.4514 200.9112,-894.0596"/>
<polygon fill="#191970" stroke="#191970" points="199.732,-897.3653 210.2924,-898.2193 202.5695,-890.9662 199.732,-897.3653"/>
</g>
<!-- Node9 -->
<g id="node7" class="node">
<title>Node9</title>
<g id="a_node7"><a xlink:href="classprecice_1_1cplscheme_1_1BaseCouplingScheme.html#ae946bdd4f164ab6a38b62c058123eee6" target="_top" xlink:title="Function to determine whether coupling scheme is an implicit coupling scheme. ">
<polygon fill="#ffffff" stroke="#000000" points="198.5,-835 198.5,-876 334.5,-876 334.5,-835 198.5,-835"/>
<text text-anchor="start" x="206.5" y="-864" font-family="Helvetica,sans-Serif" font-size="10.00" fill="#000000">precice::cplscheme</text>
<text text-anchor="start" x="206.5" y="-853" font-family="Helvetica,sans-Serif" font-size="10.00" fill="#000000">::BaseCouplingScheme</text>
<text text-anchor="middle" x="266.5" y="-842" font-family="Helvetica,sans-Serif" font-size="10.00" fill="#000000">::isImplicitCouplingScheme</text>
</a>
</g>
</g>
<!-- Node3&#45;&gt;Node9 -->
<g id="edge6" class="edge">
<title>Node3&#45;&gt;Node9</title>
<path fill="none" stroke="#191970" d="M127.7277,-802.0149C151.2415,-811.0774 179.0585,-821.7986 203.5907,-831.2537"/>
<polygon fill="#191970" stroke="#191970" points="202.579,-834.6147 213.1687,-834.9452 205.0965,-828.083 202.579,-834.6147"/>
</g>
<!-- Node10 -->
<g id="node8" class="node">
<title>Node10</title>
<g id="a_node8"><a xlink:href="classprecice_1_1cplscheme_1_1BiCouplingScheme.html#a5655bedf9d881d7a18722445b8256c91" target="_top" xlink:title="Receive from coupling partner and return whether coupling scheme has converged. ">
<polygon fill="#ffffff" stroke="#000000" points="409.5,-925 409.5,-966 521.5,-966 521.5,-925 409.5,-925"/>
<text text-anchor="start" x="417.5" y="-954" font-family="Helvetica,sans-Serif" font-size="10.00" fill="#000000">precice::cplscheme</text>
<text text-anchor="start" x="417.5" y="-943" font-family="Helvetica,sans-Serif" font-size="10.00" fill="#000000">::BiCouplingScheme::</text>
<text text-anchor="middle" x="465.5" y="-932" font-family="Helvetica,sans-Serif" font-size="10.00" fill="#000000">receiveConvergence</text>
</a>
</g>
</g>
<!-- Node3&#45;&gt;Node10 -->
<g id="edge7" class="edge">
<title>Node3&#45;&gt;Node10</title>
<path fill="none" stroke="#191970" d="M77.4179,-802.0466C85.2039,-848.1917 111.1646,-959.5927 185,-1005.5 260.6713,-1052.5488 367.5914,-1004.5186 425.1121,-971.3339"/>
<polygon fill="#191970" stroke="#191970" points="427.068,-974.2439 433.9073,-966.1522 423.5148,-968.2127 427.068,-974.2439"/>
</g>
<!-- Node11 -->
<g id="node9" class="node">
<title>Node11</title>
<g id="a_node9"><a xlink:href="classprecice_1_1cplscheme_1_1BaseCouplingScheme.html#a2f09f06c2213a480c33a3c4d75ab5575" target="_top" xlink:title="Receives data receiveDataIDs given in mapCouplingData with communication. ">
<polygon fill="#ffffff" stroke="#000000" points="207,-737 207,-778 326,-778 326,-737 207,-737"/>
<text text-anchor="start" x="215" y="-766" font-family="Helvetica,sans-Serif" font-size="10.00" fill="#000000">precice::cplscheme</text>
<text text-anchor="start" x="215" y="-755" font-family="Helvetica,sans-Serif" font-size="10.00" fill="#000000">::BaseCouplingScheme</text>
<text text-anchor="middle" x="266.5" y="-744" font-family="Helvetica,sans-Serif" font-size="10.00" fill="#000000">::receiveData</text>
</a>
</g>
</g>
<!-- Node3&#45;&gt;Node11 -->
<g id="edge9" class="edge">
<title>Node3&#45;&gt;Node11</title>
<path fill="none" stroke="#191970" d="M149.007,-772.1866C164.7444,-770.2195 181.294,-768.1507 196.8442,-766.207"/>
<polygon fill="#191970" stroke="#191970" points="197.4113,-769.6634 206.8999,-764.95 196.5429,-762.7175 197.4113,-769.6634"/>
</g>
<!-- Node12 -->
<g id="node10" class="node">
<title>Node12</title>
<g id="a_node10"><a xlink:href="classprecice_1_1cplscheme_1_1BiCouplingScheme.html#a9f50278c80ab37222105c81b74bb1f7c" target="_top" xlink:title="Returns all data to be received. ">
<polygon fill="#ffffff" stroke="#000000" points="210.5,-677 210.5,-718 322.5,-718 322.5,-677 210.5,-677"/>
<text text-anchor="start" x="218.5" y="-706" font-family="Helvetica,sans-Serif" font-size="10.00" fill="#000000">precice::cplscheme</text>
<text text-anchor="start" x="218.5" y="-695" font-family="Helvetica,sans-Serif" font-size="10.00" fill="#000000">::BiCouplingScheme::</text>
<text text-anchor="middle" x="266.5" y="-684" font-family="Helvetica,sans-Serif" font-size="10.00" fill="#000000">getReceiveData</text>
</a>
</g>
</g>
<!-- Node3&#45;&gt;Node12 -->
<g id="edge10" class="edge">
<title>Node3&#45;&gt;Node12</title>
<path fill="none" stroke="#191970" d="M114.1978,-760.883C135.0397,-750.3705 161.1418,-737.6894 185,-727.5 190.0264,-725.3533 195.2634,-723.2131 200.5507,-721.1205"/>
<polygon fill="#191970" stroke="#191970" points="202.0344,-724.2989 210.0873,-717.4141 199.4986,-717.7744 202.0344,-724.2989"/>
</g>
<!-- Node13 -->
<g id="node11" class="node">
<title>Node13</title>
<g id="a_node11"><a xlink:href="classprecice_1_1cplscheme_1_1BaseCouplingScheme.html#ab41a2ded419b560b9cccb511a7d01e08" target="_top" xlink:title="Used to set flag after data has been received using receiveData(). ">
<polygon fill="#ffffff" stroke="#000000" points="190.5,-617 190.5,-658 342.5,-658 342.5,-617 190.5,-617"/>
<text text-anchor="start" x="198.5" y="-646" font-family="Helvetica,sans-Serif" font-size="10.00" fill="#000000">precice::cplscheme</text>
<text text-anchor="start" x="198.5" y="-635" font-family="Helvetica,sans-Serif" font-size="10.00" fill="#000000">::BaseCouplingScheme</text>
<text text-anchor="middle" x="266.5" y="-624" font-family="Helvetica,sans-Serif" font-size="10.00" fill="#000000">::checkDataHasBeenReceived</text>
</a>
</g>
</g>
<!-- Node3&#45;&gt;Node13 -->
<g id="edge11" class="edge">
<title>Node3&#45;&gt;Node13</title>
<path fill="none" stroke="#191970" d="M89.8903,-760.6439C109.4621,-735.435 145.4935,-693.2057 185,-667.5 187.571,-665.8271 190.248,-664.2307 192.9981,-662.7091"/>
<polygon fill="#191970" stroke="#191970" points="194.6849,-665.7775 201.9885,-658.1023 191.4927,-659.5477 194.6849,-665.7775"/>
</g>
<!-- Node14 -->
<g id="node12" class="node">
<title>Node14</title>
<g id="a_node12"><a xlink:href="classprecice_1_1cplscheme_1_1BaseCouplingScheme.html#a7715aa42fe9431a0058703c5832ea562" target="_top" xlink:title="apply acceleration to the current iteration ">
<polygon fill="#ffffff" stroke="#000000" points="207,-296 207,-337 326,-337 326,-296 207,-296"/>
<text text-anchor="start" x="215" y="-325" font-family="Helvetica,sans-Serif" font-size="10.00" fill="#000000">precice::cplscheme</text>
<text text-anchor="start" x="215" y="-314" font-family="Helvetica,sans-Serif" font-size="10.00" fill="#000000">::BaseCouplingScheme</text>
<text text-anchor="middle" x="266.5" y="-303" font-family="Helvetica,sans-Serif" font-size="10.00" fill="#000000">::accelerate</text>
</a>
</g>
</g>
<!-- Node3&#45;&gt;Node14 -->
<g id="edge12" class="edge">
<title>Node3&#45;&gt;Node14</title>
<path fill="none" stroke="#191970" d="M78.4882,-760.6301C89.7403,-704.4873 124.8866,-546.4451 185,-427.5 200.2993,-397.2277 223.6725,-366.417 241.4716,-344.9624"/>
<polygon fill="#191970" stroke="#191970" points="244.2284,-347.1223 247.9918,-337.2184 238.8736,-342.6137 244.2284,-347.1223"/>
</g>
<!-- Node27 -->
<g id="node25" class="node">
<title>Node27</title>
<g id="a_node25"><a xlink:href="classprecice_1_1cplscheme_1_1BaseCouplingScheme.html#a5bee2e3d762b78c9ce5c8b7fa35e81cf" target="_top" xlink:title="sends convergence to other participant via m2n ">
<polygon fill="#ffffff" stroke="#000000" points="207,-497 207,-538 326,-538 326,-497 207,-497"/>
<text text-anchor="start" x="215" y="-526" font-family="Helvetica,sans-Serif" font-size="10.00" fill="#000000">precice::cplscheme</text>
<text text-anchor="start" x="215" y="-515" font-family="Helvetica,sans-Serif" font-size="10.00" fill="#000000">::BaseCouplingScheme</text>
<text text-anchor="middle" x="266.5" y="-504" font-family="Helvetica,sans-Serif" font-size="10.00" fill="#000000">::sendConvergence</text>
</a>
</g>
</g>
<!-- Node3&#45;&gt;Node27 -->
<g id="edge26" class="edge">
<title>Node3&#45;&gt;Node27</title>
<path fill="none" stroke="#191970" d="M78.686,-760.8411C88.8596,-715.7771 119.0478,-607.8609 185,-547.5 188.8633,-543.9642 193.1786,-540.8356 197.7521,-538.0689"/>
<polygon fill="#191970" stroke="#191970" points="199.674,-541.009 206.8147,-533.1821 196.3516,-534.8477 199.674,-541.009"/>
</g>
<!-- Node28 -->
<g id="node26" class="node">
<title>Node28</title>
<g id="a_node26"><a xlink:href="classprecice_1_1cplscheme_1_1BaseCouplingScheme.html#a69facd34bc23797fe69daab51df26b8c" target="_top" xlink:title="Returns true, when the coupled simulation is still ongoing. ">
<polygon fill="#ffffff" stroke="#000000" points="207,-437 207,-478 326,-478 326,-437 207,-437"/>
<text text-anchor="start" x="215" y="-466" font-family="Helvetica,sans-Serif" font-size="10.00" fill="#000000">precice::cplscheme</text>
<text text-anchor="start" x="215" y="-455" font-family="Helvetica,sans-Serif" font-size="10.00" fill="#000000">::BaseCouplingScheme</text>
<text text-anchor="middle" x="266.5" y="-444" font-family="Helvetica,sans-Serif" font-size="10.00" fill="#000000">::isCouplingOngoing</text>
</a>
</g>
</g>
<!-- Node3&#45;&gt;Node28 -->
<g id="edge27" class="edge">
<title>Node3&#45;&gt;Node28</title>
<path fill="none" stroke="#191970" d="M76.4221,-760.9102C82.429,-708.1023 105.4961,-566.4643 185,-487.5 188.8779,-483.6484 193.2917,-480.2861 198.0119,-477.3517"/>
<polygon fill="#191970" stroke="#191970" points="199.7178,-480.408 206.7896,-472.5187 196.3415,-474.276 199.7178,-480.408"/>
</g>
<!-- Node31 -->
<g id="node29" class="node">
<title>Node31</title>
<g id="a_node29"><a xlink:href="classprecice_1_1cplscheme_1_1SerialCouplingScheme.html#a2e5a29de7a6610336338700f49f10189" target="_top" xlink:title="Receives and sets the time window size, if this participant is the one to receive. ">
<polygon fill="#ffffff" stroke="#000000" points="185,-557 185,-598 348,-598 348,-557 185,-557"/>
<text text-anchor="start" x="193" y="-586" font-family="Helvetica,sans-Serif" font-size="10.00" fill="#000000">precice::cplscheme</text>
<text text-anchor="start" x="193" y="-575" font-family="Helvetica,sans-Serif" font-size="10.00" fill="#000000">::SerialCouplingScheme</text>
<text text-anchor="middle" x="266.5" y="-564" font-family="Helvetica,sans-Serif" font-size="10.00" fill="#000000">::receiveAndSetTimeWindowSize</text>
</a>
</g>
</g>
<!-- Node3&#45;&gt;Node31 -->
<g id="edge30" class="edge">
<title>Node3&#45;&gt;Node31</title>
<path fill="none" stroke="#191970" d="M82.3111,-760.9959C97.0319,-724.9642 132.2218,-650.0796 185,-607.5 186.7639,-606.077 188.6016,-604.7176 190.4984,-603.4194"/>
<polygon fill="#191970" stroke="#191970" points="192.4558,-606.3247 199.1477,-598.1107 188.7941,-600.3588 192.4558,-606.3247"/>
</g>
<!-- Node10&#45;&gt;Node4 -->
<g id="edge8" class="edge">
<title>Node10&#45;&gt;Node4</title>
<path fill="none" stroke="#191970" d="M494.0516,-924.9901C527.9207,-900.6603 584.4767,-860.0336 621.7581,-833.2526"/>
<polygon fill="#191970" stroke="#191970" points="624.2515,-835.7709 630.3313,-827.0941 620.1676,-830.0857 624.2515,-835.7709"/>
</g>
<!-- Node15 -->
<g id="node13" class="node">
<title>Node15</title>
<g id="a_node13"><a xlink:href="classprecice_1_1cplscheme_1_1BaseCouplingScheme.html#af524236355c3b4a48237511b820996f2" target="_top" xlink:title="Measure whether coupling scheme has converged or not. ">
<polygon fill="#ffffff" stroke="#000000" points="406,-146 406,-187 525,-187 525,-146 406,-146"/>
<text text-anchor="start" x="414" y="-175" font-family="Helvetica,sans-Serif" font-size="10.00" fill="#000000">precice::cplscheme</text>
<text text-anchor="start" x="414" y="-164" font-family="Helvetica,sans-Serif" font-size="10.00" fill="#000000">::BaseCouplingScheme</text>
<text text-anchor="middle" x="465.5" y="-153" font-family="Helvetica,sans-Serif" font-size="10.00" fill="#000000">::measureConvergence</text>
</a>
</g>
</g>
<!-- Node14&#45;&gt;Node15 -->
<g id="edge13" class="edge">
<title>Node14&#45;&gt;Node15</title>
<path fill="none" stroke="#191970" d="M281.8329,-295.9349C302.4308,-269.5938 341.4055,-224.0618 384,-196.5 387.9835,-193.9224 392.2191,-191.5252 396.5847,-189.303"/>
<polygon fill="#191970" stroke="#191970" points="398.1533,-192.4328 405.6892,-184.9856 395.1539,-186.1079 398.1533,-192.4328"/>
</g>
<!-- Node19 -->
<g id="node17" class="node">
<title>Node19</title>
<g id="a_node17"><a xlink:href="classprecice_1_1cplscheme_1_1BaseCouplingScheme.html#ac6f5a4957406b58fbcb83f3744b34200" target="_top" xlink:title="compares _iterations with _maxIterations ">
<polygon fill="#ffffff" stroke="#000000" points="405,-446 405,-487 526,-487 526,-446 405,-446"/>
<text text-anchor="start" x="413" y="-475" font-family="Helvetica,sans-Serif" font-size="10.00" fill="#000000">precice::cplscheme</text>
<text text-anchor="start" x="413" y="-464" font-family="Helvetica,sans-Serif" font-size="10.00" fill="#000000">::BaseCouplingScheme</text>
<text text-anchor="middle" x="465.5" y="-453" font-family="Helvetica,sans-Serif" font-size="10.00" fill="#000000">::maxIterationsReached</text>
</a>
</g>
</g>
<!-- Node14&#45;&gt;Node19 -->
<g id="edge18" class="edge">
<title>Node14&#45;&gt;Node19</title>
<path fill="none" stroke="#191970" d="M281.8329,-337.0651C302.4308,-363.4062 341.4055,-408.9382 384,-436.5 387.7323,-438.9151 391.6859,-441.1718 395.7604,-443.2746"/>
<polygon fill="#191970" stroke="#191970" points="394.305,-446.4582 404.8344,-447.6338 397.3362,-440.1486 394.305,-446.4582"/>
</g>
<!-- Node20 -->
<g id="node18" class="node">
<title>Node20</title>
<g id="a_node18"><a xlink:href="classprecice_1_1cplscheme_1_1BaseCouplingScheme.html#a25488a257431c0708ec77032cf8c7ee6" target="_top" xlink:title="Getter for _acceleration. ">
<polygon fill="#ffffff" stroke="#000000" points="406,-386 406,-427 525,-427 525,-386 406,-386"/>
<text text-anchor="start" x="414" y="-415" font-family="Helvetica,sans-Serif" font-size="10.00" fill="#000000">precice::cplscheme</text>
<text text-anchor="start" x="414" y="-404" font-family="Helvetica,sans-Serif" font-size="10.00" fill="#000000">::BaseCouplingScheme</text>
<text text-anchor="middle" x="465.5" y="-393" font-family="Helvetica,sans-Serif" font-size="10.00" fill="#000000">::getAcceleration</text>
</a>
</g>
</g>
<!-- Node14&#45;&gt;Node20 -->
<g id="edge19" class="edge">
<title>Node14&#45;&gt;Node20</title>
<path fill="none" stroke="#191970" d="M304.0476,-337.1232C326.8462,-349.279 356.7201,-364.5649 384,-376.5 388.3469,-378.4018 392.8566,-380.2893 397.4234,-382.1374"/>
<polygon fill="#191970" stroke="#191970" points="396.2575,-385.4401 406.8437,-385.8673 398.8345,-378.9317 396.2575,-385.4401"/>
</g>
<!-- Node21 -->
<g id="node19" class="node">
<title>Node21</title>
<g id="a_node19"><a xlink:href="classprecice_1_1cplscheme_1_1BaseCouplingScheme.html#a48e6572ae47ce1b4006fcde6885916a3" target="_top" xlink:title="interface to provide accelerated data, depending on coupling scheme being used ">
<polygon fill="#ffffff" stroke="#000000" points="406,-326 406,-367 525,-367 525,-326 406,-326"/>
<text text-anchor="start" x="414" y="-355" font-family="Helvetica,sans-Serif" font-size="10.00" fill="#000000">precice::cplscheme</text>
<text text-anchor="start" x="414" y="-344" font-family="Helvetica,sans-Serif" font-size="10.00" fill="#000000">::BaseCouplingScheme</text>
<text text-anchor="middle" x="465.5" y="-333" font-family="Helvetica,sans-Serif" font-size="10.00" fill="#000000">::getAccelerationData</text>
</a>
</g>
</g>
<!-- Node14&#45;&gt;Node21 -->
<g id="edge20" class="edge">
<title>Node14&#45;&gt;Node21</title>
<path fill="none" stroke="#191970" d="M326.2066,-325.501C348.1467,-328.8085 373.1774,-332.582 395.9113,-336.0092"/>
<polygon fill="#191970" stroke="#191970" points="395.4255,-339.4755 405.8356,-337.5054 396.4691,-332.5537 395.4255,-339.4755"/>
</g>
<!-- Node22 -->
<g id="node20" class="node">
<title>Node22</title>
<g id="a_node20"><a xlink:href="classprecice_1_1cplscheme_1_1BaseCouplingScheme.html#af285b3e6ffae9af1d4c4b89f1b66da1c" target="_top" xlink:title="Reset all convergence measurements after convergence. ">
<polygon fill="#ffffff" stroke="#000000" points="384,-266 384,-307 547,-307 547,-266 384,-266"/>
<text text-anchor="start" x="392" y="-295" font-family="Helvetica,sans-Serif" font-size="10.00" fill="#000000">precice::cplscheme</text>
<text text-anchor="start" x="392" y="-284" font-family="Helvetica,sans-Serif" font-size="10.00" fill="#000000">::BaseCouplingScheme</text>
<text text-anchor="middle" x="465.5" y="-273" font-family="Helvetica,sans-Serif" font-size="10.00" fill="#000000">::newConvergenceMeasurements</text>
</a>
</g>
</g>
<!-- Node14&#45;&gt;Node22 -->
<g id="edge21" class="edge">
<title>Node14&#45;&gt;Node22</title>
<path fill="none" stroke="#191970" d="M326.2066,-307.499C341.1863,-305.2408 357.6067,-302.7653 373.7532,-300.3312"/>
<polygon fill="#191970" stroke="#191970" points="374.3895,-303.7749 383.756,-298.8232 373.3459,-296.8531 374.3895,-303.7749"/>
</g>
<!-- Node23 -->
<g id="node21" class="node">
<title>Node23</title>
<g id="a_node21"><a xlink:href="classprecice_1_1cplscheme_1_1BaseCouplingScheme.html#ac074864e6b98ffeb355f3c8734e93631" target="_top" xlink:title="used for storing send/receive data at end of acceleration, if not converged. ">
<polygon fill="#ffffff" stroke="#000000" points="406,-206 406,-247 525,-247 525,-206 406,-206"/>
<text text-anchor="start" x="414" y="-235" font-family="Helvetica,sans-Serif" font-size="10.00" fill="#000000">precice::cplscheme</text>
<text text-anchor="start" x="414" y="-224" font-family="Helvetica,sans-Serif" font-size="10.00" fill="#000000">::BaseCouplingScheme</text>
<text text-anchor="middle" x="465.5" y="-213" font-family="Helvetica,sans-Serif" font-size="10.00" fill="#000000">::storeData</text>
</a>
</g>
</g>
<!-- Node14&#45;&gt;Node23 -->
<g id="edge22" class="edge">
<title>Node14&#45;&gt;Node23</title>
<path fill="none" stroke="#191970" d="M304.0476,-295.8768C326.8462,-283.721 356.7201,-268.4351 384,-256.5 388.3469,-254.5982 392.8566,-252.7107 397.4234,-250.8626"/>
<polygon fill="#191970" stroke="#191970" points="398.8345,-254.0683 406.8437,-247.1327 396.2575,-247.5599 398.8345,-254.0683"/>
</g>
<!-- Node24 -->
<g id="node22" class="node">
<title>Node24</title>
<g id="a_node22"><a xlink:href="classprecice_1_1cplscheme_1_1BaseCouplingScheme.html#a5618883d7d1d86bf69ad86c7ce22c6b8" target="_top" xlink:title="Extrapolate coupling data from values of previous time windows. ">
<polygon fill="#ffffff" stroke="#000000" points="406,-50 406,-91 525,-91 525,-50 406,-50"/>
<text text-anchor="start" x="414" y="-79" font-family="Helvetica,sans-Serif" font-size="10.00" fill="#000000">precice::cplscheme</text>
<text text-anchor="start" x="414" y="-68" font-family="Helvetica,sans-Serif" font-size="10.00" fill="#000000">::BaseCouplingScheme</text>
<text text-anchor="middle" x="465.5" y="-57" font-family="Helvetica,sans-Serif" font-size="10.00" fill="#000000">::extrapolateData</text>
</a>
</g>
</g>
<!-- Node14&#45;&gt;Node24 -->
<g id="edge23" class="edge">
<title>Node14&#45;&gt;Node24</title>
<path fill="none" stroke="#191970" d="M277.1662,-295.8914C295.8789,-260.8582 337.1181,-188.4449 384,-136.5 396.8487,-122.2637 412.921,-108.5695 427.3891,-97.3813"/>
<polygon fill="#191970" stroke="#191970" points="429.8268,-99.9257 435.6859,-91.0983 425.6008,-94.3453 429.8268,-99.9257"/>
</g>
<!-- Node15&#45;&gt;Node4 -->
<g id="edge14" class="edge">
<title>Node15&#45;&gt;Node4</title>
<path fill="none" stroke="#191970" d="M525.0117,-179.9556C533.3479,-184.0787 541.0761,-189.4646 547,-196.5 585.0814,-241.7268 640.2633,-658.386 655.1689,-775.8211"/>
<polygon fill="#191970" stroke="#191970" points="651.7195,-776.4419 656.4454,-785.9243 658.6643,-775.5644 651.7195,-776.4419"/>
</g>
<!-- Node16 -->
<g id="node14" class="node">
<title>Node16</title>
<g id="a_node14"><a xlink:href="classprecice_1_1utils_1_1MasterSlave.html#a3837ad42361b53d7e930443ba07a9eb5" target="_top" xlink:title="True if this process is running a slave. ">
<polygon fill="#ffffff" stroke="#000000" points="592.5,-230.5 592.5,-260.5 725.5,-260.5 725.5,-230.5 592.5,-230.5"/>
<text text-anchor="start" x="600.5" y="-248.5" font-family="Helvetica,sans-Serif" font-size="10.00" fill="#000000">precice::utils::MasterSlave</text>
<text text-anchor="middle" x="659" y="-237.5" font-family="Helvetica,sans-Serif" font-size="10.00" fill="#000000">::isSlave</text>
</a>
</g>
</g>
<!-- Node15&#45;&gt;Node16 -->
<g id="edge15" class="edge">
<title>Node15&#45;&gt;Node16</title>
<path fill="none" stroke="#191970" d="M525.3987,-186.6984C532.7875,-189.7281 540.1455,-193.0151 547,-196.5 564.1414,-205.2149 565.7091,-212.0856 583,-220.5 587.5665,-222.7222 592.3789,-224.8197 597.2738,-226.7826"/>
<polygon fill="#191970" stroke="#191970" points="596.1547,-230.1016 606.7456,-230.3891 598.6456,-223.5597 596.1547,-230.1016"/>
</g>
<!-- Node17 -->
<g id="node15" class="node">
<title>Node17</title>
<g id="a_node15"><a xlink:href="structprecice_1_1cplscheme_1_1CouplingData.html#ac14cbd9a1355d6c86be7a19d7a79e235" target="_top" xlink:title="Returns a reference to the data values. ">
<polygon fill="#ffffff" stroke="#000000" points="601,-181.5 601,-211.5 717,-211.5 717,-181.5 601,-181.5"/>
<text text-anchor="start" x="609" y="-199.5" font-family="Helvetica,sans-Serif" font-size="10.00" fill="#000000">precice::cplscheme</text>
<text text-anchor="middle" x="659" y="-188.5" font-family="Helvetica,sans-Serif" font-size="10.00" fill="#000000">::CouplingData::values</text>
</a>
</g>
</g>
<!-- Node15&#45;&gt;Node17 -->
<g id="edge16" class="edge">
<title>Node15&#45;&gt;Node17</title>
<path fill="none" stroke="#191970" d="M525.1353,-175.7458C545.9375,-178.9709 569.4379,-182.6144 590.8772,-185.9383"/>
<polygon fill="#191970" stroke="#191970" points="590.4711,-189.4171 600.8893,-187.4906 591.5436,-182.4997 590.4711,-189.4171"/>
</g>
<!-- Node18 -->
<g id="node16" class="node">
<title>Node18</title>
<g id="a_node16"><a xlink:href="structprecice_1_1cplscheme_1_1BaseCouplingScheme_1_1ConvergenceMeasureContext.html#aa757b77a95cff3bb99a713fb3e1e66d0" target="_top" xlink:title="precice::cplscheme\l::BaseCouplingScheme\l::ConvergenceMeasureContext\l::logHeader">
<polygon fill="#ffffff" stroke="#000000" points="583,-110.5 583,-162.5 735,-162.5 735,-110.5 583,-110.5"/>
<text text-anchor="start" x="591" y="-150.5" font-family="Helvetica,sans-Serif" font-size="10.00" fill="#000000">precice::cplscheme</text>
<text text-anchor="start" x="591" y="-139.5" font-family="Helvetica,sans-Serif" font-size="10.00" fill="#000000">::BaseCouplingScheme</text>
<text text-anchor="start" x="591" y="-128.5" font-family="Helvetica,sans-Serif" font-size="10.00" fill="#000000">::ConvergenceMeasureContext</text>
<text text-anchor="middle" x="659" y="-117.5" font-family="Helvetica,sans-Serif" font-size="10.00" fill="#000000">::logHeader</text>
</a>
</g>
</g>
<!-- Node15&#45;&gt;Node18 -->
<g id="edge17" class="edge">
<title>Node15&#45;&gt;Node18</title>
<path fill="none" stroke="#191970" d="M525.1353,-157.2542C540.2165,-154.916 556.7159,-152.358 572.82,-149.8612"/>
<polygon fill="#191970" stroke="#191970" points="573.4341,-153.3079 582.7797,-148.3171 572.3615,-146.3906 573.4341,-153.3079"/>
</g>
<!-- Node25 -->
<g id="node23" class="node">
<title>Node25</title>
<g id="a_node23"><a xlink:href="classprecice_1_1cplscheme_1_1BaseCouplingScheme.html#aa6ca8960fe204d4eae9bbafa3ff77fd9" target="_top" xlink:title="getter for _timeWindows ">
<polygon fill="#ffffff" stroke="#000000" points="599.5,-50 599.5,-91 718.5,-91 718.5,-50 599.5,-50"/>
<text text-anchor="start" x="607.5" y="-79" font-family="Helvetica,sans-Serif" font-size="10.00" fill="#000000">precice::cplscheme</text>
<text text-anchor="start" x="607.5" y="-68" font-family="Helvetica,sans-Serif" font-size="10.00" fill="#000000">::BaseCouplingScheme</text>
<text text-anchor="middle" x="659" y="-57" font-family="Helvetica,sans-Serif" font-size="10.00" fill="#000000">::getTimeWindows</text>
</a>
</g>
</g>
<!-- Node24&#45;&gt;Node25 -->
<g id="edge24" class="edge">
<title>Node24&#45;&gt;Node25</title>
<path fill="none" stroke="#191970" d="M525.1353,-70.5C545.3662,-70.5 568.1492,-70.5 589.1063,-70.5"/>
<polygon fill="#191970" stroke="#191970" points="589.2286,-74.0001 599.2285,-70.5 589.2285,-67.0001 589.2286,-74.0001"/>
</g>
<!-- Node26 -->
<g id="node24" class="node">
<title>Node26</title>
<g id="a_node24"><a xlink:href="namespaceprecice_1_1utils.html#ad91190b2974c945c80111b15584681c9" target="_top" xlink:title="precice::utils::shiftSet\lFirst">
<polygon fill="#ffffff" stroke="#000000" points="603,-.5 603,-30.5 715,-30.5 715,-.5 603,-.5"/>
<text text-anchor="start" x="611" y="-18.5" font-family="Helvetica,sans-Serif" font-size="10.00" fill="#000000">precice::utils::shiftSet</text>
<text text-anchor="middle" x="659" y="-7.5" font-family="Helvetica,sans-Serif" font-size="10.00" fill="#000000">First</text>
</a>
</g>
</g>
<!-- Node24&#45;&gt;Node26 -->
<g id="edge25" class="edge">
<title>Node24&#45;&gt;Node26</title>
<path fill="none" stroke="#191970" d="M525.1353,-53.5494C547.6735,-47.1432 573.3789,-39.8368 596.1987,-33.3505"/>
<polygon fill="#191970" stroke="#191970" points="597.4582,-36.6312 606.1203,-30.5304 595.5443,-29.8979 597.4582,-36.6312"/>
</g>
<!-- Node29 -->
<g id="node27" class="node">
<title>Node29</title>
<g id="a_node27"><a xlink:href="namespaceprecice_1_1math.html#abdb7ef543f323c2e8a0d48d1774739e6" target="_top" xlink:title="precice::math::greater">
<polygon fill="#ffffff" stroke="#000000" points="409.5,-506 409.5,-525 521.5,-525 521.5,-506 409.5,-506"/>
<text text-anchor="middle" x="465.5" y="-513" font-family="Helvetica,sans-Serif" font-size="10.00" fill="#000000">precice::math::greater</text>
</a>
</g>
</g>
<!-- Node28&#45;&gt;Node29 -->
<g id="edge28" class="edge">
<title>Node28&#45;&gt;Node29</title>
<path fill="none" stroke="#191970" d="M324.7459,-478.0015C343.5463,-484.3041 364.5538,-491.0184 384,-496.5 392.8316,-498.9895 402.266,-501.4071 411.4682,-503.6366"/>
<polygon fill="#191970" stroke="#191970" points="410.7848,-507.0716 421.3229,-505.9767 412.402,-500.261 410.7848,-507.0716"/>
</g>
<!-- Node30 -->
<g id="node28" class="node">
<title>Node30</title>
<g id="a_node28"><a xlink:href="namespaceprecice_1_1math.html#a0e86802cfe992deba131d789d035b5b7" target="_top" xlink:title="Compares two Eigen::MatrixBase for equality up to tolerance. ">
<polygon fill="#ffffff" stroke="#000000" points="410.5,-544 410.5,-563 520.5,-563 520.5,-544 410.5,-544"/>
<text text-anchor="middle" x="465.5" y="-551" font-family="Helvetica,sans-Serif" font-size="10.00" fill="#000000">precice::math::equals</text>
</a>
</g>
</g>
<!-- Node28&#45;&gt;Node30 -->
<g id="edge29" class="edge">
<title>Node28&#45;&gt;Node30</title>
<path fill="none" stroke="#191970" d="M326.407,-475.0385C334.029,-478.5442 341.4449,-482.6709 348,-487.5 369.1845,-503.1065 361.8916,-520.2324 384,-534.5 389.0832,-537.7805 394.6691,-540.4964 400.4596,-542.7448"/>
<polygon fill="#191970" stroke="#191970" points="399.7508,-546.2004 410.3452,-546.1041 402.0032,-539.5726 399.7508,-546.2004"/>
</g>
<!-- Node31&#45;&gt;Node4 -->
<g id="edge33" class="edge">
<title>Node31&#45;&gt;Node4</title>
<path fill="none" stroke="#191970" d="M327.7644,-598.1147C334.7025,-601.0162 341.5801,-604.159 348,-607.5 365.2797,-616.4927 367.7656,-621.7342 384,-632.5 465.3985,-686.4792 562.2678,-746.9029 616.5933,-780.4513"/>
<polygon fill="#191970" stroke="#191970" points="614.9123,-783.5267 625.2607,-785.7986 618.5878,-777.5692 614.9123,-783.5267"/>
</g>
<!-- Node31&#45;&gt;Node6 -->
<g id="edge31" class="edge">
<title>Node31&#45;&gt;Node6</title>
<path fill="none" stroke="#191970" d="M336.2931,-598.1083C340.5283,-600.86 344.4887,-603.9748 348,-607.5 381.0407,-640.671 357.098,-668.1818 384,-706.5 394.9756,-722.1332 410.4249,-736.255 424.9256,-747.5263"/>
<polygon fill="#191970" stroke="#191970" points="423.2143,-750.6181 433.3128,-753.8231 427.4171,-745.0202 423.2143,-750.6181"/>
</g>
<!-- Node31&#45;&gt;Node30 -->
<g id="edge32" class="edge">
<title>Node31&#45;&gt;Node30</title>
<path fill="none" stroke="#191970" d="M348.0151,-567.669C365.3483,-565.5786 383.4348,-563.3973 400.0751,-561.3904"/>
<polygon fill="#191970" stroke="#191970" points="400.7206,-564.838 410.2295,-560.1658 399.8824,-557.8884 400.7206,-564.838"/>
</g>
<!-- Node32 -->
<g id="node30" class="node">
<title>Node32</title>
<g id="a_node30"><a xlink:href="classprecice_1_1cplscheme_1_1BaseCouplingScheme.html#a1337cc34f923d8bf9c1d50a18f3c9207" target="_top" xlink:title="Setter for _timeWindowSize. ">
<polygon fill="#ffffff" stroke="#000000" points="406,-582 406,-623 525,-623 525,-582 406,-582"/>
<text text-anchor="start" x="414" y="-611" font-family="Helvetica,sans-Serif" font-size="10.00" fill="#000000">precice::cplscheme</text>
<text text-anchor="start" x="414" y="-600" font-family="Helvetica,sans-Serif" font-size="10.00" fill="#000000">::BaseCouplingScheme</text>
<text text-anchor="middle" x="465.5" y="-589" font-family="Helvetica,sans-Serif" font-size="10.00" fill="#000000">::setTimeWindowSize</text>
</a>
</g>
</g>
<!-- Node31&#45;&gt;Node32 -->
<g id="edge34" class="edge">
<title>Node31&#45;&gt;Node32</title>
<path fill="none" stroke="#191970" d="M348.0151,-587.7406C363.8641,-589.7317 380.3428,-591.8019 395.7699,-593.7399"/>
<polygon fill="#191970" stroke="#191970" points="395.3803,-597.2184 405.7386,-594.9923 396.2529,-590.273 395.3803,-597.2184"/>
</g>
</g>
</svg>
        <g id="navigator" transform="translate(0 0)" fill="#404254">
                <rect fill="#f2f5e9" fill-opacity="0.5" stroke="#606060" stroke-width=".5" x="0" y="0" width="60" height="60"/>
                <use id="zoomplus" xlink:href="#zoomPlus" x="17" y="9" onmousedown="handleZoom(evt,'in')"/>
                <use id="zoomminus" xlink:href="#zoomMin" x="42" y="9" onmousedown="handleZoom(evt,'out')"/>
                <use id="reset" xlink:href="#resetDef" x="30" y="36" onmousedown="handleReset()"/>
                <g id="arrowUp" xlink:href="#dirArrow" transform="translate(30 24)" onmousedown="handlePan(0,-1)">
                  <use xlink:href="#rim" fill="#404040">
                        <set attributeName="fill" to="#808080" begin="arrowUp.mouseover" end="arrowUp.mouseout"/>
                  </use>
                  <path fill="none" stroke="white" stroke-width="1.5" d="M0,-3.0v7 M-2.5,-0.5L0,-3.0L2.5,-0.5"/>
                </g>
                <g id="arrowRight" xlink:href="#dirArrow" transform="rotate(90) translate(36 -43)" onmousedown="handlePan(1,0)">
                  <use xlink:href="#rim" fill="#404040">
                        <set attributeName="fill" to="#808080" begin="arrowRight.mouseover" end="arrowRight.mouseout"/>
                  </use>
                  <path fill="none" stroke="white" stroke-width="1.5" d="M0,-3.0v7 M-2.5,-0.5L0,-3.0L2.5,-0.5"/>
                </g>
                <g id="arrowDown" xlink:href="#dirArrow" transform="rotate(180) translate(-30 -48)" onmousedown="handlePan(0,1)">
                  <use xlink:href="#rim" fill="#404040">
                        <set attributeName="fill" to="#808080" begin="arrowDown.mouseover" end="arrowDown.mouseout"/>
                  </use>
                  <path fill="none" stroke="white" stroke-width="1.5" d="M0,-3.0v7 M-2.5,-0.5L0,-3.0L2.5,-0.5"/>
                </g>
                <g id="arrowLeft" xlink:href="#dirArrow" transform="rotate(270) translate(-36 17)" onmousedown="handlePan(-1,0)">
                  <use xlink:href="#rim" fill="#404040">
                        <set attributeName="fill" to="#808080" begin="arrowLeft.mouseover" end="arrowLeft.mouseout"/>
                  </use>
                  <path fill="none" stroke="white" stroke-width="1.5" d="M0,-3.0v7 M-2.5,-0.5L0,-3.0L2.5,-0.5"/>
                </g>
        </g>
        <svg viewBox="0 0 15 15" width="100%" height="30px" preserveAspectRatio="xMaxYMin meet">
         <g id="arrow_out" transform="scale(0.3 0.3)">
          <a xlink:href="classprecice_1_1cplscheme_1_1SerialCouplingScheme_a97330800bb740dfe030abe89b814d780_cgraph_org.svg" target="_base">
           <rect id="button" ry="5" rx="5" y="6" x="6" height="38" width="38"
                fill="#f2f5e9" fill-opacity="0.5" stroke="#606060" stroke-width="1.0"/>
           <path id="arrow"
             d="M 11.500037,31.436501 C 11.940474,20.09759 22.043105,11.32322 32.158766,21.979434 L 37.068811,17.246167 C 37.068811,17.246167 37.088388,32 37.088388,32 L 22.160133,31.978069 C 22.160133,31.978069 26.997745,27.140456 26.997745,27.140456 C 18.528582,18.264221 13.291696,25.230495 11.500037,31.436501 z"
             style="fill:#404040;"/>
          </a>
         </g>
        </svg>
</svg>
