<?xml version="1.0" encoding="UTF-8" standalone="no"?>
<!DOCTYPE svg PUBLIC "-//W3C//DTD SVG 1.1//EN"
 "http://www.w3.org/Graphics/SVG/1.1/DTD/svg11.dtd">
<!-- Generated by graphviz version 2.40.1 (20161225.0304)
 -->
<!-- Title: precice::m2n::M2N::requestMasterConnection Pages: 1 -->
<svg width="305pt" height="88pt"
 viewBox="0.00 0.00 305.00 88.00" xmlns="http://www.w3.org/2000/svg" xmlns:xlink="http://www.w3.org/1999/xlink">
<g id="graph0" class="graph" transform="scale(1 1) rotate(0) translate(4 84)">
<title>precice::m2n::M2N::requestMasterConnection</title>
<polygon fill="#ffffff" stroke="transparent" points="-4,4 -4,-84 301,-84 301,4 -4,4"/>
<!-- Node52 -->
<g id="node1" class="node">
<title>Node52</title>
<polygon fill="#bfbfbf" stroke="#000000" points="0,-24.5 0,-54.5 128,-54.5 128,-24.5 0,-24.5"/>
<text text-anchor="start" x="8" y="-42.5" font-family="Helvetica,sans-Serif" font-size="10.00" fill="#000000">precice::m2n::M2N::</text>
<text text-anchor="middle" x="64" y="-31.5" font-family="Helvetica,sans-Serif" font-size="10.00" fill="#000000">requestMasterConnection</text>
</g>
<!-- Node53 -->
<g id="node2" class="node">
<title>Node53</title>
<g id="a_node2"><a xlink:href="classprecice_1_1utils_1_1MasterSlave.html#a3837ad42361b53d7e930443ba07a9eb5" target="_top" xlink:title="True if this process is running a slave. ">
<polygon fill="#ffffff" stroke="#000000" points="164,-49.5 164,-79.5 297,-79.5 297,-49.5 164,-49.5"/>
<text text-anchor="start" x="172" y="-67.5" font-family="Helvetica,sans-Serif" font-size="10.00" fill="#000000">precice::utils::MasterSlave</text>
<text text-anchor="middle" x="230.5" y="-56.5" font-family="Helvetica,sans-Serif" font-size="10.00" fill="#000000">::isSlave</text>
</a>
</g>
</g>
<!-- Node52&#45;&gt;Node53 -->
<g id="edge1" class="edge">
<title>Node52&#45;&gt;Node53</title>
<path fill="none" stroke="#191970" d="M128.3732,-49.1657C136.7264,-50.4199 145.3472,-51.7143 153.8747,-52.9947"/>
<polygon fill="#191970" stroke="#191970" points="153.4119,-56.4644 163.8207,-54.4881 154.4513,-49.542 153.4119,-56.4644"/>
</g>
<!-- Node54 -->
<g id="node3" class="node">
<title>Node54</title>
<g id="a_node3"><a xlink:href="classprecice_1_1utils_1_1MasterSlave.html#aa796073fbcec95eb3e1f7010e366eabc" target="_top" xlink:title="precice::utils::MasterSlave\l::broadcast">
<polygon fill="#ffffff" stroke="#000000" points="164,-.5 164,-30.5 297,-30.5 297,-.5 164,-.5"/>
<text text-anchor="start" x="172" y="-18.5" font-family="Helvetica,sans-Serif" font-size="10.00" fill="#000000">precice::utils::MasterSlave</text>
<text text-anchor="middle" x="230.5" y="-7.5" font-family="Helvetica,sans-Serif" font-size="10.00" fill="#000000">::broadcast</text>
</a>
</g>
</g>
<!-- Node52&#45;&gt;Node54 -->
<g id="edge2" class="edge">
<title>Node52&#45;&gt;Node54</title>
<path fill="none" stroke="#191970" d="M128.3732,-30.221C136.7264,-29.0169 145.3472,-27.7743 153.8747,-26.5451"/>
<polygon fill="#191970" stroke="#191970" points="154.4224,-30.0024 163.8207,-25.1114 153.4237,-23.074 154.4224,-30.0024"/>
</g>
</g>
</svg>
