<?xml version="1.0" encoding="UTF-8" standalone="no"?>
<!DOCTYPE svg PUBLIC "-//W3C//DTD SVG 1.1//EN"
 "http://www.w3.org/Graphics/SVG/1.1/DTD/svg11.dtd">
<!-- Generated by graphviz version 2.40.1 (20161225.0304)
 -->
<!-- Title: precice::com::MPIPortsCommunication Pages: 1 -->
<!--zoomable 148 -->
<svg id="main" version="1.1" xmlns="http://www.w3.org/2000/svg" xmlns:xlink="http://www.w3.org/1999/xlink" xml:space="preserve" onload="init(evt)">
<style type="text/css"><![CDATA[
.edge:hover path { stroke: red; }
.edge:hover polygon { stroke: red; fill: red; }
]]></style>
<script type="text/javascript"><![CDATA[
var edges = document.getElementsByTagName('g');
if (edges && edges.length) {
  for (var i=0;i<edges.length;i++) {
    if (edges[i].id.substr(0,4)=='edge') {
      edges[i].setAttribute('class','edge');
    }
  }
}
]]></script>
        <defs>
                <circle id="rim" cx="0" cy="0" r="7"/>
                <circle id="rim2" cx="0" cy="0" r="3.5"/>
                <g id="zoomPlus">
                        <use xlink:href="#rim" fill="#404040">
                                <set attributeName="fill" to="#808080" begin="zoomplus.mouseover" end="zoomplus.mouseout"/>
                        </use>
                        <path d="M-4,0h8M0,-4v8" fill="none" stroke="white" stroke-width="1.5" pointer-events="none"/>
                </g>
                <g id="zoomMin">
                        <use xlink:href="#rim" fill="#404040">
                                <set attributeName="fill" to="#808080" begin="zoomminus.mouseover" end="zoomminus.mouseout"/>
                        </use>
                        <path d="M-4,0h8" fill="none" stroke="white" stroke-width="1.5" pointer-events="none"/>
                </g>
                <g id="dirArrow">
                        <path fill="none" stroke="white" stroke-width="1.5" d="M0,-3.0v7 M-2.5,-0.5L0,-3.0L2.5,-0.5"/>
                </g>
               <g id="resetDef">
                       <use xlink:href="#rim2" fill="#404040">
                               <set attributeName="fill" to="#808080" begin="reset.mouseover" end="reset.mouseout"/>
                       </use>
               </g>
        </defs>

<script type="text/javascript">
var viewWidth = 1528;
var viewHeight = 148;
var sectionId = 'dynsection-1';
</script>
<script xlink:href="svgpan.js"/>
<svg id="graph" class="graph">
<g id="viewport">
<title>precice::com::MPIPortsCommunication</title>
<polygon fill="#ffffff" stroke="transparent" points="-4,4 -4,-143.5 1524,-143.5 1524,4 -4,4"/>
<!-- Node3 -->
<g id="node1" class="node">
<title>Node3</title>
<polygon fill="#bfbfbf" stroke="#000000" points="1316,-74 1316,-93 1520,-93 1520,-74 1316,-74"/>
<text text-anchor="middle" x="1418" y="-81" font-family="Helvetica,sans-Serif" font-size="10.00" fill="#000000">precice::com::MPIPortsCommunication</text>
</g>
<!-- Node4 -->
<g id="node2" class="node">
<title>Node4</title>
<g id="a_node2"><a xlink:href="classprecice_1_1com_1_1MPICommunication.html" target="_top" xlink:title="Provides implementation for basic MPI point&#45;to&#45;point communication. ">
<polygon fill="#ffffff" stroke="#000000" points="1012,-96 1012,-115 1191,-115 1191,-96 1012,-96"/>
<text text-anchor="middle" x="1101.5" y="-103" font-family="Helvetica,sans-Serif" font-size="10.00" fill="#000000">precice::com::MPICommunication</text>
</a>
</g>
</g>
<!-- Node4&#45;&gt;Node3 -->
<g id="edge1" class="edge">
<title>Node4&#45;&gt;Node3</title>
<path fill="none" stroke="#191970" d="M1201.5049,-98.5486C1237.9891,-96.0126 1279.2734,-93.1429 1315.9345,-90.5946"/>
<polygon fill="#191970" stroke="#191970" points="1201.0828,-95.0694 1191.3496,-99.2545 1201.5683,-102.0526 1201.0828,-95.0694"/>
</g>
<!-- Node5 -->
<g id="node3" class="node">
<title>Node5</title>
<g id="a_node3"><a xlink:href="classprecice_1_1com_1_1Communication.html" target="_top" xlink:title="Interface for all interprocess communication classes. ">
<polygon fill="#ffffff" stroke="#000000" points="790,-50 790,-69 952,-69 952,-50 790,-50"/>
<text text-anchor="middle" x="871" y="-57" font-family="Helvetica,sans-Serif" font-size="10.00" fill="#000000">precice::com::Communication</text>
</a>
</g>
</g>
<!-- Node5&#45;&gt;Node4 -->
<g id="edge2" class="edge">
<title>Node5&#45;&gt;Node4</title>
<path fill="none" stroke="#191970" d="M928.8077,-71.0365C967.3865,-78.7355 1017.5026,-88.737 1053.8014,-95.981"/>
<polygon fill="#191970" stroke="#191970" points="929.2514,-67.5561 918.7597,-69.0312 927.8814,-74.4207 929.2514,-67.5561"/>
</g>
<!-- Node6 -->
<g id="node4" class="node">
<title>Node6</title>
<g id="a_node4"><a xlink:href="classprecice_1_1logging_1_1Logger.html" target="_top" xlink:title="This class provides a leightweight logger. ">
<polygon fill="#ffffff" stroke="#000000" points="597,-96 597,-115 730,-115 730,-96 597,-96"/>
<text text-anchor="middle" x="663.5" y="-103" font-family="Helvetica,sans-Serif" font-size="10.00" fill="#000000">precice::logging::Logger</text>
</a>
</g>
</g>
<!-- Node6&#45;&gt;Node3 -->
<g id="edge9" class="edge">
<title>Node6&#45;&gt;Node3</title>
<path fill="none" stroke="#9a32cd" stroke-dasharray="5,2" d="M723.9546,-116.5705C732.0167,-117.7371 740.193,-118.764 748,-119.5 766.5895,-121.2525 771.3321,-120.1096 790,-120.5 968.1921,-124.2266 1013.2595,-137.7155 1191,-124.5 1238.9519,-120.9346 1250.6662,-116.9625 1298,-108.5 1323.7666,-103.8934 1352.4752,-97.9422 1375.3504,-93.0019"/>
<polygon fill="#9a32cd" stroke="#9a32cd" points="724.2532,-113.0757 713.8401,-115.0294 723.1987,-119.9958 724.2532,-113.0757"/>
<text text-anchor="middle" x="982" y="-131.5" font-family="Helvetica,sans-Serif" font-size="10.00" fill="#000000"> _log</text>
</g>
<!-- Node6&#45;&gt;Node4 -->
<g id="edge7" class="edge">
<title>Node6&#45;&gt;Node4</title>
<path fill="none" stroke="#9a32cd" stroke-dasharray="5,2" d="M740.4467,-105.5C816.2555,-105.5 932.0096,-105.5 1011.9168,-105.5"/>
<polygon fill="#9a32cd" stroke="#9a32cd" points="740.0228,-102.0001 730.0228,-105.5 740.0227,-109.0001 740.0228,-102.0001"/>
<text text-anchor="middle" x="871" y="-108.5" font-family="Helvetica,sans-Serif" font-size="10.00" fill="#000000"> _log</text>
</g>
<!-- Node6&#45;&gt;Node5 -->
<g id="edge3" class="edge">
<title>Node6&#45;&gt;Node5</title>
<path fill="none" stroke="#9a32cd" stroke-dasharray="5,2" d="M702.5431,-92.8977C716.7558,-88.5896 733.0112,-83.9839 748,-80.5 766.8851,-76.1105 787.5993,-72.2235 806.5553,-69.0241"/>
<polygon fill="#9a32cd" stroke="#9a32cd" points="701.1278,-89.6713 692.6024,-95.9617 703.1897,-96.3608 701.1278,-89.6713"/>
<text text-anchor="middle" x="760" y="-83.5" font-family="Helvetica,sans-Serif" font-size="10.00" fill="#000000"> _log</text>
</g>
<!-- Node7 -->
<g id="node5" class="node">
<title>Node7</title>
<polygon fill="#ffffff" stroke="#bfbfbf" points="360,-90.5 360,-120.5 530,-120.5 530,-90.5 360,-90.5"/>
<text text-anchor="start" x="368" y="-108.5" font-family="Helvetica,sans-Serif" font-size="10.00" fill="#000000">std::unique_ptr&lt; precice</text>
<text text-anchor="middle" x="445" y="-97.5" font-family="Helvetica,sans-Serif" font-size="10.00" fill="#000000">::logging::Logger::LoggerImpl &gt;</text>
</g>
<!-- Node7&#45;&gt;Node6 -->
<g id="edge4" class="edge">
<title>Node7&#45;&gt;Node6</title>
<path fill="none" stroke="#9a32cd" stroke-dasharray="5,2" d="M540.3183,-105.5C559.3929,-105.5 579.0434,-105.5 596.8926,-105.5"/>
<polygon fill="#9a32cd" stroke="#9a32cd" points="540.1035,-102.0001 530.1035,-105.5 540.1034,-109.0001 540.1035,-102.0001"/>
<text text-anchor="middle" x="563.5" y="-108.5" font-family="Helvetica,sans-Serif" font-size="10.00" fill="#000000"> _impl</text>
</g>
<!-- Node8 -->
<g id="node6" class="node">
<title>Node8</title>
<g id="a_node6"><a xlink:href="classprecice_1_1logging_1_1Logger_1_1LoggerImpl.html" target="_top" xlink:title="precice::logging::Logger\l::LoggerImpl">
<polygon fill="#ffffff" stroke="#000000" points="174,-90.5 174,-120.5 307,-120.5 307,-90.5 174,-90.5"/>
<text text-anchor="start" x="182" y="-108.5" font-family="Helvetica,sans-Serif" font-size="10.00" fill="#000000">precice::logging::Logger</text>
<text text-anchor="middle" x="240.5" y="-97.5" font-family="Helvetica,sans-Serif" font-size="10.00" fill="#000000">::LoggerImpl</text>
</a>
</g>
</g>
<!-- Node8&#45;&gt;Node7 -->
<g id="edge5" class="edge">
<title>Node8&#45;&gt;Node7</title>
<path fill="none" stroke="#9a32cd" stroke-dasharray="5,2" d="M317.5686,-105.5C331.3458,-105.5 345.7733,-105.5 359.7637,-105.5"/>
<polygon fill="#9a32cd" stroke="#9a32cd" points="317.178,-102.0001 307.178,-105.5 317.1779,-109.0001 317.178,-102.0001"/>
<text text-anchor="middle" x="333.5" y="-108.5" font-family="Helvetica,sans-Serif" font-size="10.00" fill="#000000"> ptr</text>
</g>
<!-- Node9 -->
<g id="node7" class="node">
<title>Node9</title>
<polygon fill="#ffffff" stroke="#bfbfbf" points="0,-79.5 0,-131.5 137,-131.5 137,-79.5 0,-79.5"/>
<text text-anchor="start" x="8" y="-119.5" font-family="Helvetica,sans-Serif" font-size="10.00" fill="#000000">boost::log::sources</text>
<text text-anchor="start" x="8" y="-108.5" font-family="Helvetica,sans-Serif" font-size="10.00" fill="#000000">::severity_logger&lt; boost</text>
<text text-anchor="start" x="8" y="-97.5" font-family="Helvetica,sans-Serif" font-size="10.00" fill="#000000">::log::trivial::severity</text>
<text text-anchor="middle" x="68.5" y="-86.5" font-family="Helvetica,sans-Serif" font-size="10.00" fill="#000000">_level &gt;</text>
</g>
<!-- Node9&#45;&gt;Node8 -->
<g id="edge6" class="edge">
<title>Node9&#45;&gt;Node8</title>
<path fill="none" stroke="#191970" d="M147.6486,-105.5C156.3766,-105.5 165.1993,-105.5 173.7541,-105.5"/>
<polygon fill="#191970" stroke="#191970" points="147.468,-102.0001 137.4679,-105.5 147.4679,-109.0001 147.468,-102.0001"/>
</g>
<!-- Node10 -->
<g id="node8" class="node">
<title>Node10</title>
<polygon fill="#ffffff" stroke="#bfbfbf" points="1048,-46.5 1048,-76.5 1155,-76.5 1155,-46.5 1048,-46.5"/>
<text text-anchor="start" x="1056" y="-64.5" font-family="Helvetica,sans-Serif" font-size="10.00" fill="#000000">std::map&lt; int, MPI</text>
<text text-anchor="middle" x="1101.5" y="-53.5" font-family="Helvetica,sans-Serif" font-size="10.00" fill="#000000">_Comm &gt;</text>
</g>
<!-- Node10&#45;&gt;Node3 -->
<g id="edge8" class="edge">
<title>Node10&#45;&gt;Node3</title>
<path fill="none" stroke="#9a32cd" stroke-dasharray="5,2" d="M1165.2772,-65.9332C1208.4554,-68.9345 1266.4352,-72.9647 1315.9686,-76.4078"/>
<polygon fill="#9a32cd" stroke="#9a32cd" points="1165.4086,-62.4339 1155.1899,-65.232 1164.9231,-69.4171 1165.4086,-62.4339"/>
<text text-anchor="middle" x="1253.5" y="-77.5" font-family="Helvetica,sans-Serif" font-size="10.00" fill="#000000"> _communicators</text>
</g>
<!-- Node11 -->
<g id="node9" class="node">
<title>Node11</title>
<g id="a_node9"><a xlink:title="STL class. ">
<polygon fill="#ffffff" stroke="#bfbfbf" points="1069,-7 1069,-26 1134,-26 1134,-7 1069,-7"/>
<text text-anchor="middle" x="1101.5" y="-14" font-family="Helvetica,sans-Serif" font-size="10.00" fill="#000000">std::string</text>
</a>
</g>
</g>
<!-- Node11&#45;&gt;Node3 -->
<g id="edge10" class="edge">
<title>Node11&#45;&gt;Node3</title>
<path fill="none" stroke="#9a32cd" stroke-dasharray="5,2" d="M1144.1578,-19.6958C1184.2585,-23.2745 1245.7604,-30.2469 1298,-42.5 1332.2945,-50.544 1370.5959,-64.5486 1394.4992,-73.9209"/>
<polygon fill="#9a32cd" stroke="#9a32cd" points="1144.456,-16.2086 1134.1924,-18.8371 1143.855,-23.1827 1144.456,-16.2086"/>
<text text-anchor="middle" x="1253.5" y="-56.5" font-family="Helvetica,sans-Serif" font-size="10.00" fill="#000000"> _portName</text>
<text text-anchor="middle" x="1253.5" y="-45.5" font-family="Helvetica,sans-Serif" font-size="10.00" fill="#000000">_addressDirectory</text>
</g>
<!-- Node12 -->
<g id="node10" class="node">
<title>Node12</title>
<g id="a_node10"><a xlink:title="STL class. ">
<polygon fill="#ffffff" stroke="#bfbfbf" points="819,-.5 819,-30.5 923,-30.5 923,-.5 819,-.5"/>
<text text-anchor="start" x="827" y="-18.5" font-family="Helvetica,sans-Serif" font-size="10.00" fill="#000000">std::basic_string&lt;</text>
<text text-anchor="middle" x="871" y="-7.5" font-family="Helvetica,sans-Serif" font-size="10.00" fill="#000000"> char &gt;</text>
</a>
</g>
</g>
<!-- Node12&#45;&gt;Node11 -->
<g id="edge11" class="edge">
<title>Node12&#45;&gt;Node11</title>
<path fill="none" stroke="#191970" d="M933.2659,-15.7701C977.0005,-15.9599 1033.7465,-16.2061 1068.8824,-16.3585"/>
<polygon fill="#191970" stroke="#191970" points="933.0312,-12.2692 923.0161,-15.7257 933.0008,-19.2691 933.0312,-12.2692"/>
</g>
</g>
</svg>
        <g id="navigator" transform="translate(0 0)" fill="#404254">
                <rect fill="#f2f5e9" fill-opacity="0.5" stroke="#606060" stroke-width=".5" x="0" y="0" width="60" height="60"/>
                <use id="zoomplus" xlink:href="#zoomPlus" x="17" y="9" onmousedown="handleZoom(evt,'in')"/>
                <use id="zoomminus" xlink:href="#zoomMin" x="42" y="9" onmousedown="handleZoom(evt,'out')"/>
                <use id="reset" xlink:href="#resetDef" x="30" y="36" onmousedown="handleReset()"/>
                <g id="arrowUp" xlink:href="#dirArrow" transform="translate(30 24)" onmousedown="handlePan(0,-1)">
                  <use xlink:href="#rim" fill="#404040">
                        <set attributeName="fill" to="#808080" begin="arrowUp.mouseover" end="arrowUp.mouseout"/>
                  </use>
                  <path fill="none" stroke="white" stroke-width="1.5" d="M0,-3.0v7 M-2.5,-0.5L0,-3.0L2.5,-0.5"/>
                </g>
                <g id="arrowRight" xlink:href="#dirArrow" transform="rotate(90) translate(36 -43)" onmousedown="handlePan(1,0)">
                  <use xlink:href="#rim" fill="#404040">
                        <set attributeName="fill" to="#808080" begin="arrowRight.mouseover" end="arrowRight.mouseout"/>
                  </use>
                  <path fill="none" stroke="white" stroke-width="1.5" d="M0,-3.0v7 M-2.5,-0.5L0,-3.0L2.5,-0.5"/>
                </g>
                <g id="arrowDown" xlink:href="#dirArrow" transform="rotate(180) translate(-30 -48)" onmousedown="handlePan(0,1)">
                  <use xlink:href="#rim" fill="#404040">
                        <set attributeName="fill" to="#808080" begin="arrowDown.mouseover" end="arrowDown.mouseout"/>
                  </use>
                  <path fill="none" stroke="white" stroke-width="1.5" d="M0,-3.0v7 M-2.5,-0.5L0,-3.0L2.5,-0.5"/>
                </g>
                <g id="arrowLeft" xlink:href="#dirArrow" transform="rotate(270) translate(-36 17)" onmousedown="handlePan(-1,0)">
                  <use xlink:href="#rim" fill="#404040">
                        <set attributeName="fill" to="#808080" begin="arrowLeft.mouseover" end="arrowLeft.mouseout"/>
                  </use>
                  <path fill="none" stroke="white" stroke-width="1.5" d="M0,-3.0v7 M-2.5,-0.5L0,-3.0L2.5,-0.5"/>
                </g>
        </g>
        <svg viewBox="0 0 15 15" width="100%" height="30px" preserveAspectRatio="xMaxYMin meet">
         <g id="arrow_out" transform="scale(0.3 0.3)">
          <a xlink:href="classprecice_1_1com_1_1MPIPortsCommunication__coll__graph_org.svg" target="_base">
           <rect id="button" ry="5" rx="5" y="6" x="6" height="38" width="38"
                fill="#f2f5e9" fill-opacity="0.5" stroke="#606060" stroke-width="1.0"/>
           <path id="arrow"
             d="M 11.500037,31.436501 C 11.940474,20.09759 22.043105,11.32322 32.158766,21.979434 L 37.068811,17.246167 C 37.068811,17.246167 37.088388,32 37.088388,32 L 22.160133,31.978069 C 22.160133,31.978069 26.997745,27.140456 26.997745,27.140456 C 18.528582,18.264221 13.291696,25.230495 11.500037,31.436501 z"
             style="fill:#404040;"/>
          </a>
         </g>
        </svg>
</svg>
