<?xml version="1.0" encoding="UTF-8" standalone="no"?>
<!DOCTYPE svg PUBLIC "-//W3C//DTD SVG 1.1//EN"
 "http://www.w3.org/Graphics/SVG/1.1/DTD/svg11.dtd">
<!-- Generated by graphviz version 2.40.1 (20161225.0304)
 -->
<!-- Title: precice::mesh::Mesh::getCommunicationMap Pages: 1 -->
<!--zoomable 568 -->
<svg id="main" version="1.1" xmlns="http://www.w3.org/2000/svg" xmlns:xlink="http://www.w3.org/1999/xlink" xml:space="preserve" onload="init(evt)">
<style type="text/css"><![CDATA[
.edge:hover path { stroke: red; }
.edge:hover polygon { stroke: red; fill: red; }
]]></style>
<script type="text/javascript"><![CDATA[
var edges = document.getElementsByTagName('g');
if (edges && edges.length) {
  for (var i=0;i<edges.length;i++) {
    if (edges[i].id.substr(0,4)=='edge') {
      edges[i].setAttribute('class','edge');
    }
  }
}
]]></script>
        <defs>
                <circle id="rim" cx="0" cy="0" r="7"/>
                <circle id="rim2" cx="0" cy="0" r="3.5"/>
                <g id="zoomPlus">
                        <use xlink:href="#rim" fill="#404040">
                                <set attributeName="fill" to="#808080" begin="zoomplus.mouseover" end="zoomplus.mouseout"/>
                        </use>
                        <path d="M-4,0h8M0,-4v8" fill="none" stroke="white" stroke-width="1.5" pointer-events="none"/>
                </g>
                <g id="zoomMin">
                        <use xlink:href="#rim" fill="#404040">
                                <set attributeName="fill" to="#808080" begin="zoomminus.mouseover" end="zoomminus.mouseout"/>
                        </use>
                        <path d="M-4,0h8" fill="none" stroke="white" stroke-width="1.5" pointer-events="none"/>
                </g>
                <g id="dirArrow">
                        <path fill="none" stroke="white" stroke-width="1.5" d="M0,-3.0v7 M-2.5,-0.5L0,-3.0L2.5,-0.5"/>
                </g>
               <g id="resetDef">
                       <use xlink:href="#rim2" fill="#404040">
                               <set attributeName="fill" to="#808080" begin="reset.mouseover" end="reset.mouseout"/>
                       </use>
               </g>
        </defs>

<script type="text/javascript">
var viewWidth = 627;
var viewHeight = 568;
var sectionId = 'dynsection-9';
</script>
<script xlink:href="svgpan.js"/>
<svg id="graph" class="graph">
<g id="viewport">
<title>precice::mesh::Mesh::getCommunicationMap</title>
<polygon fill="#ffffff" stroke="transparent" points="-4,4 -4,-564 623,-564 623,4 -4,4"/>
<!-- Node43 -->
<g id="node1" class="node">
<title>Node43</title>
<polygon fill="#bfbfbf" stroke="#000000" points="0,-195.5 0,-225.5 136,-225.5 136,-195.5 0,-195.5"/>
<text text-anchor="start" x="8" y="-213.5" font-family="Helvetica,sans-Serif" font-size="10.00" fill="#000000">precice::mesh::Mesh</text>
<text text-anchor="middle" x="68" y="-202.5" font-family="Helvetica,sans-Serif" font-size="10.00" fill="#000000">::getCommunicationMap</text>
</g>
<!-- Node44 -->
<g id="node2" class="node">
<title>Node44</title>
<g id="a_node2"><a xlink:href="classprecice_1_1mesh_1_1Mesh.html#a2dc2ab8d228560250e46daee200be2e5" target="_top" xlink:title="precice::mesh::Mesh\l::addMesh">
<polygon fill="#ffffff" stroke="#000000" points="172,-269.5 172,-299.5 288,-299.5 288,-269.5 172,-269.5"/>
<text text-anchor="start" x="180" y="-287.5" font-family="Helvetica,sans-Serif" font-size="10.00" fill="#000000">precice::mesh::Mesh</text>
<text text-anchor="middle" x="230" y="-276.5" font-family="Helvetica,sans-Serif" font-size="10.00" fill="#000000">::addMesh</text>
</a>
</g>
</g>
<!-- Node43&#45;&gt;Node44 -->
<g id="edge1" class="edge">
<title>Node43&#45;&gt;Node44</title>
<path fill="none" stroke="#191970" d="M98.2809,-225.6089C118.9189,-235.7701 146.9417,-249.3024 172,-260.5 175.6455,-262.129 179.4356,-263.7834 183.2542,-265.4225"/>
<polygon fill="#191970" stroke="#191970" points="182.166,-268.7626 192.739,-269.4421 184.8975,-262.3175 182.166,-268.7626"/>
</g>
<!-- Node58 -->
<g id="node16" class="node">
<title>Node58</title>
<g id="a_node16"><a xlink:href="classprecice_1_1mesh_1_1Mesh.html#ad74be4ce192152dbb4ac6df72320091d" target="_top" xlink:title="Returns the bounding box of the mesh. ">
<polygon fill="#ffffff" stroke="#000000" points="172,-220.5 172,-250.5 288,-250.5 288,-220.5 172,-220.5"/>
<text text-anchor="start" x="180" y="-238.5" font-family="Helvetica,sans-Serif" font-size="10.00" fill="#000000">precice::mesh::Mesh</text>
<text text-anchor="middle" x="230" y="-227.5" font-family="Helvetica,sans-Serif" font-size="10.00" fill="#000000">::getBoundingBox</text>
</a>
</g>
</g>
<!-- Node43&#45;&gt;Node58 -->
<g id="edge15" class="edge">
<title>Node43&#45;&gt;Node58</title>
<path fill="none" stroke="#191970" d="M136.2331,-221.0298C144.6553,-222.3295 153.2664,-223.6584 161.6897,-224.9583"/>
<polygon fill="#191970" stroke="#191970" points="161.4291,-228.4594 171.8459,-226.5256 162.4967,-221.5413 161.4291,-228.4594"/>
</g>
<!-- Node59 -->
<g id="node17" class="node">
<title>Node59</title>
<g id="a_node17"><a xlink:href="classprecice_1_1mesh_1_1Mesh.html#a4df26d9eee51002f9b7229d0f814b96c" target="_top" xlink:title="precice::mesh::Mesh\l::operator==">
<polygon fill="#ffffff" stroke="#000000" points="172,-171.5 172,-201.5 288,-201.5 288,-171.5 172,-171.5"/>
<text text-anchor="start" x="180" y="-189.5" font-family="Helvetica,sans-Serif" font-size="10.00" fill="#000000">precice::mesh::Mesh</text>
<text text-anchor="middle" x="230" y="-178.5" font-family="Helvetica,sans-Serif" font-size="10.00" fill="#000000">::operator==</text>
</a>
</g>
</g>
<!-- Node43&#45;&gt;Node59 -->
<g id="edge16" class="edge">
<title>Node43&#45;&gt;Node59</title>
<path fill="none" stroke="#191970" d="M136.2331,-200.3914C144.6553,-199.1437 153.2664,-197.8679 161.6897,-196.62"/>
<polygon fill="#191970" stroke="#191970" points="162.4668,-200.0432 171.8459,-195.1154 161.4409,-193.1188 162.4668,-200.0432"/>
</g>
<!-- Node60 -->
<g id="node18" class="node">
<title>Node60</title>
<g id="a_node18"><a xlink:href="classprecice_1_1mesh_1_1Mesh.html#a2e70ad91be51ad81b199657cda575500" target="_top" xlink:title="precice::mesh::Mesh\l::operator!=">
<polygon fill="#ffffff" stroke="#000000" points="172,-122.5 172,-152.5 288,-152.5 288,-122.5 172,-122.5"/>
<text text-anchor="start" x="180" y="-140.5" font-family="Helvetica,sans-Serif" font-size="10.00" fill="#000000">precice::mesh::Mesh</text>
<text text-anchor="middle" x="230" y="-129.5" font-family="Helvetica,sans-Serif" font-size="10.00" fill="#000000">::operator!=</text>
</a>
</g>
</g>
<!-- Node43&#45;&gt;Node60 -->
<g id="edge17" class="edge">
<title>Node43&#45;&gt;Node60</title>
<path fill="none" stroke="#191970" d="M100.2276,-195.3692C120.7196,-185.8119 147.8471,-173.277 172,-162.5 176.3402,-160.5634 180.8734,-158.5659 185.4097,-156.5837"/>
<polygon fill="#191970" stroke="#191970" points="186.8891,-159.7571 194.6649,-152.5607 184.0986,-153.3373 186.8891,-159.7571"/>
</g>
<!-- Node45 -->
<g id="node3" class="node">
<title>Node45</title>
<g id="a_node3"><a xlink:href="classprecice_1_1mesh_1_1Mesh.html#a136f6b4ce235025e418fab0ca5f350ff" target="_top" xlink:title="precice::mesh::Mesh\l::getDimensions">
<polygon fill="#ffffff" stroke="#000000" points="338,-529.5 338,-559.5 454,-559.5 454,-529.5 338,-529.5"/>
<text text-anchor="start" x="346" y="-547.5" font-family="Helvetica,sans-Serif" font-size="10.00" fill="#000000">precice::mesh::Mesh</text>
<text text-anchor="middle" x="396" y="-536.5" font-family="Helvetica,sans-Serif" font-size="10.00" fill="#000000">::getDimensions</text>
</a>
</g>
</g>
<!-- Node44&#45;&gt;Node45 -->
<g id="edge2" class="edge">
<title>Node44&#45;&gt;Node45</title>
<path fill="none" stroke="#191970" d="M231.6404,-299.6368C236.934,-341.0853 257.3032,-457.5191 324,-520.5 325.6735,-522.0803 327.4539,-523.5566 329.3187,-524.9359"/>
<polygon fill="#191970" stroke="#191970" points="327.6401,-528.0149 337.967,-530.3825 331.3705,-522.0917 327.6401,-528.0149"/>
</g>
<!-- Node46 -->
<g id="node4" class="node">
<title>Node46</title>
<g id="a_node4"><a xlink:href="classprecice_1_1mesh_1_1Mesh.html#a13faa9b03e5d20918ed6528db1415fa3" target="_top" xlink:title="Returns modifieable container holding all vertices. ">
<polygon fill="#ffffff" stroke="#000000" points="338,-480.5 338,-510.5 454,-510.5 454,-480.5 338,-480.5"/>
<text text-anchor="start" x="346" y="-498.5" font-family="Helvetica,sans-Serif" font-size="10.00" fill="#000000">precice::mesh::Mesh</text>
<text text-anchor="middle" x="396" y="-487.5" font-family="Helvetica,sans-Serif" font-size="10.00" fill="#000000">::vertices</text>
</a>
</g>
</g>
<!-- Node44&#45;&gt;Node46 -->
<g id="edge3" class="edge">
<title>Node44&#45;&gt;Node46</title>
<path fill="none" stroke="#191970" d="M233.3745,-299.5398C242.0593,-334.8067 268.499,-423.4681 324,-471.5 325.7,-472.9712 327.4932,-474.3529 329.3596,-475.6505"/>
<polygon fill="#191970" stroke="#191970" points="327.5771,-478.6626 337.9504,-480.8178 331.1852,-472.6642 327.5771,-478.6626"/>
</g>
<!-- Node47 -->
<g id="node5" class="node">
<title>Node47</title>
<g id="a_node5"><a xlink:href="classprecice_1_1mesh_1_1Mesh.html#af6e6d684553dc5d0f0a23cacb77b3fc7" target="_top" xlink:title="Creates and initializes a Vertex object. ">
<polygon fill="#ffffff" stroke="#000000" points="338,-431.5 338,-461.5 454,-461.5 454,-431.5 338,-431.5"/>
<text text-anchor="start" x="346" y="-449.5" font-family="Helvetica,sans-Serif" font-size="10.00" fill="#000000">precice::mesh::Mesh</text>
<text text-anchor="middle" x="396" y="-438.5" font-family="Helvetica,sans-Serif" font-size="10.00" fill="#000000">::createVertex</text>
</a>
</g>
</g>
<!-- Node44&#45;&gt;Node47 -->
<g id="edge4" class="edge">
<title>Node44&#45;&gt;Node47</title>
<path fill="none" stroke="#191970" d="M236.3626,-299.7694C248.9253,-328.0935 279.6007,-388.937 324,-422.5 325.8361,-423.888 327.7569,-425.1983 329.7423,-426.4351"/>
<polygon fill="#191970" stroke="#191970" points="328.347,-429.6616 338.7983,-431.3996 331.712,-423.5234 328.347,-429.6616"/>
</g>
<!-- Node48 -->
<g id="node6" class="node">
<title>Node48</title>
<g id="a_node6"><a xlink:href="classprecice_1_1mesh_1_1Vertex.html#a94c37cf5c30d40459a3afa2f2aabe8f4" target="_top" xlink:title="precice::mesh::Vertex\l::setGlobalIndex">
<polygon fill="#ffffff" stroke="#000000" points="335,-382.5 335,-412.5 457,-412.5 457,-382.5 335,-382.5"/>
<text text-anchor="start" x="343" y="-400.5" font-family="Helvetica,sans-Serif" font-size="10.00" fill="#000000">precice::mesh::Vertex</text>
<text text-anchor="middle" x="396" y="-389.5" font-family="Helvetica,sans-Serif" font-size="10.00" fill="#000000">::setGlobalIndex</text>
</a>
</g>
</g>
<!-- Node44&#45;&gt;Node48 -->
<g id="edge5" class="edge">
<title>Node44&#45;&gt;Node48</title>
<path fill="none" stroke="#191970" d="M242.5063,-299.6127C259.2441,-318.9638 290.7041,-352.3908 324,-372.5 327.4068,-374.5576 331.007,-376.4767 334.7081,-378.2617"/>
<polygon fill="#191970" stroke="#191970" points="333.504,-381.5567 344.0633,-382.4242 336.3497,-375.1612 333.504,-381.5567"/>
</g>
<!-- Node49 -->
<g id="node7" class="node">
<title>Node49</title>
<g id="a_node7"><a xlink:href="classprecice_1_1mesh_1_1Vertex.html#a8849612f86b9793b3caef4daca461fbc" target="_top" xlink:title="precice::mesh::Vertex::tag">
<polygon fill="#ffffff" stroke="#000000" points="324,-344 324,-363 468,-363 468,-344 324,-344"/>
<text text-anchor="middle" x="396" y="-351" font-family="Helvetica,sans-Serif" font-size="10.00" fill="#000000">precice::mesh::Vertex::tag</text>
</a>
</g>
</g>
<!-- Node44&#45;&gt;Node49 -->
<g id="edge6" class="edge">
<title>Node44&#45;&gt;Node49</title>
<path fill="none" stroke="#191970" d="M254.7808,-299.7182C273.3123,-310.5879 299.561,-324.9245 324,-334.5 330.2272,-336.9399 336.878,-339.1696 343.5268,-341.1745"/>
<polygon fill="#191970" stroke="#191970" points="342.64,-344.5611 353.2171,-343.9491 344.567,-337.8315 342.64,-344.5611"/>
</g>
<!-- Node50 -->
<g id="node8" class="node">
<title>Node50</title>
<g id="a_node8"><a xlink:href="classprecice_1_1mesh_1_1Vertex.html#aa06ca0490b8a690055001524232ebc81" target="_top" xlink:title="precice::mesh::Vertex\l::setOwner">
<polygon fill="#ffffff" stroke="#000000" points="335,-294.5 335,-324.5 457,-324.5 457,-294.5 335,-294.5"/>
<text text-anchor="start" x="343" y="-312.5" font-family="Helvetica,sans-Serif" font-size="10.00" fill="#000000">precice::mesh::Vertex</text>
<text text-anchor="middle" x="396" y="-301.5" font-family="Helvetica,sans-Serif" font-size="10.00" fill="#000000">::setOwner</text>
</a>
</g>
</g>
<!-- Node44&#45;&gt;Node50 -->
<g id="edge7" class="edge">
<title>Node44&#45;&gt;Node50</title>
<path fill="none" stroke="#191970" d="M288.0587,-293.2438C299.8917,-295.0259 312.4703,-296.9202 324.7029,-298.7625"/>
<polygon fill="#191970" stroke="#191970" points="324.4631,-302.2658 334.8728,-300.2941 325.5056,-295.3438 324.4631,-302.2658"/>
</g>
<!-- Node51 -->
<g id="node9" class="node">
<title>Node51</title>
<g id="a_node9"><a xlink:href="classprecice_1_1mesh_1_1Mesh.html#aec6f303d7791f8a64e2b78180531c89e" target="_top" xlink:title="Returns modifiable container holding all edges. ">
<polygon fill="#ffffff" stroke="#000000" points="338,-245.5 338,-275.5 454,-275.5 454,-245.5 338,-245.5"/>
<text text-anchor="start" x="346" y="-263.5" font-family="Helvetica,sans-Serif" font-size="10.00" fill="#000000">precice::mesh::Mesh</text>
<text text-anchor="middle" x="396" y="-252.5" font-family="Helvetica,sans-Serif" font-size="10.00" fill="#000000">::edges</text>
</a>
</g>
</g>
<!-- Node44&#45;&gt;Node51 -->
<g id="edge8" class="edge">
<title>Node44&#45;&gt;Node51</title>
<path fill="none" stroke="#191970" d="M288.0587,-276.106C300.9479,-274.2425 314.7218,-272.2511 327.9694,-270.3357"/>
<polygon fill="#191970" stroke="#191970" points="328.5778,-273.7843 337.974,-268.8893 327.5761,-266.8563 328.5778,-273.7843"/>
</g>
<!-- Node52 -->
<g id="node10" class="node">
<title>Node52</title>
<g id="a_node10"><a xlink:href="classprecice_1_1mesh_1_1Vertex.html#aeccde29fd990bdba5a5792372c341ef4" target="_top" xlink:title="Returns the unique (among vertices of one mesh on one processor) ID of the vertex. ">
<polygon fill="#ffffff" stroke="#000000" points="335,-196.5 335,-226.5 457,-226.5 457,-196.5 335,-196.5"/>
<text text-anchor="start" x="343" y="-214.5" font-family="Helvetica,sans-Serif" font-size="10.00" fill="#000000">precice::mesh::Vertex</text>
<text text-anchor="middle" x="396" y="-203.5" font-family="Helvetica,sans-Serif" font-size="10.00" fill="#000000">::getID</text>
</a>
</g>
</g>
<!-- Node44&#45;&gt;Node52 -->
<g id="edge9" class="edge">
<title>Node44&#45;&gt;Node52</title>
<path fill="none" stroke="#191970" d="M269.4816,-269.3859C275.7723,-266.6302 282.1353,-263.6295 288,-260.5 304.9654,-251.4471 306.7787,-245.0559 324,-236.5 328.3623,-234.3327 332.9589,-232.2718 337.6321,-230.3314"/>
<polygon fill="#191970" stroke="#191970" points="339.2652,-233.4497 347.2817,-226.5225 336.6951,-226.9385 339.2652,-233.4497"/>
</g>
<!-- Node53 -->
<g id="node11" class="node">
<title>Node53</title>
<g id="a_node11"><a xlink:href="classprecice_1_1mesh_1_1Mesh.html#ae05c5234aa9adc6f47a814622039c28e" target="_top" xlink:title="Creates and initializes an Edge object. ">
<polygon fill="#ffffff" stroke="#000000" points="338,-147.5 338,-177.5 454,-177.5 454,-147.5 338,-147.5"/>
<text text-anchor="start" x="346" y="-165.5" font-family="Helvetica,sans-Serif" font-size="10.00" fill="#000000">precice::mesh::Mesh</text>
<text text-anchor="middle" x="396" y="-154.5" font-family="Helvetica,sans-Serif" font-size="10.00" fill="#000000">::createEdge</text>
</a>
</g>
</g>
<!-- Node44&#45;&gt;Node53 -->
<g id="edge10" class="edge">
<title>Node44&#45;&gt;Node53</title>
<path fill="none" stroke="#191970" d="M275.6678,-269.4626C280.1238,-266.8958 284.3407,-263.9261 288,-260.5 314.4074,-235.7757 296.8851,-211.4462 324,-187.5 325.9092,-185.8139 327.9384,-184.24 330.0588,-182.771"/>
<polygon fill="#191970" stroke="#191970" points="331.8679,-185.7672 338.628,-177.6092 328.256,-179.771 331.8679,-185.7672"/>
</g>
<!-- Node54 -->
<g id="node12" class="node">
<title>Node54</title>
<g id="a_node12"><a xlink:href="classprecice_1_1mesh_1_1Mesh.html#ad24f3877f1ea7cd5cd5f93a6f2e4d3f9" target="_top" xlink:title="Returns modifiable container holding all triangles. ">
<polygon fill="#ffffff" stroke="#000000" points="338,-98.5 338,-128.5 454,-128.5 454,-98.5 338,-98.5"/>
<text text-anchor="start" x="346" y="-116.5" font-family="Helvetica,sans-Serif" font-size="10.00" fill="#000000">precice::mesh::Mesh</text>
<text text-anchor="middle" x="396" y="-105.5" font-family="Helvetica,sans-Serif" font-size="10.00" fill="#000000">::triangles</text>
</a>
</g>
</g>
<!-- Node44&#45;&gt;Node54 -->
<g id="edge11" class="edge">
<title>Node44&#45;&gt;Node54</title>
<path fill="none" stroke="#191970" d="M277.4109,-269.3587C281.3205,-266.8343 284.9386,-263.9024 288,-260.5 325.814,-218.4744 284.9804,-179.4087 324,-138.5 325.6325,-136.7885 327.388,-135.1941 329.2415,-133.7088"/>
<polygon fill="#191970" stroke="#191970" points="331.5748,-136.3574 337.9171,-127.8706 327.6667,-130.5499 331.5748,-136.3574"/>
</g>
<!-- Node55 -->
<g id="node13" class="node">
<title>Node55</title>
<g id="a_node13"><a xlink:href="classprecice_1_1mesh_1_1Edge.html#afa1ea37b099b78a89f3cb32f016cd605" target="_top" xlink:title="Returns the (among edges) unique ID of the edge. ">
<polygon fill="#ffffff" stroke="#000000" points="338.5,-49.5 338.5,-79.5 453.5,-79.5 453.5,-49.5 338.5,-49.5"/>
<text text-anchor="start" x="346.5" y="-67.5" font-family="Helvetica,sans-Serif" font-size="10.00" fill="#000000">precice::mesh::Edge</text>
<text text-anchor="middle" x="396" y="-56.5" font-family="Helvetica,sans-Serif" font-size="10.00" fill="#000000">::getID</text>
</a>
</g>
</g>
<!-- Node44&#45;&gt;Node55 -->
<g id="edge12" class="edge">
<title>Node44&#45;&gt;Node55</title>
<path fill="none" stroke="#191970" d="M277.9738,-269.4232C281.718,-266.8894 285.1457,-263.9374 288,-260.5 337.6153,-200.7478 272.6688,-147.7847 324,-89.5 325.76,-87.5016 327.6883,-85.6629 329.7474,-83.9711"/>
<polygon fill="#191970" stroke="#191970" points="331.9828,-86.6825 338.2598,-78.1473 328.0302,-80.9052 331.9828,-86.6825"/>
</g>
<!-- Node56 -->
<g id="node14" class="node">
<title>Node56</title>
<g id="a_node14"><a xlink:href="classprecice_1_1mesh_1_1Mesh.html#a00c3db2576c63d8c6f351175ddc0a4d0" target="_top" xlink:title="Creates and initializes a Triangle object. ">
<polygon fill="#ffffff" stroke="#000000" points="338,-.5 338,-30.5 454,-30.5 454,-.5 338,-.5"/>
<text text-anchor="start" x="346" y="-18.5" font-family="Helvetica,sans-Serif" font-size="10.00" fill="#000000">precice::mesh::Mesh</text>
<text text-anchor="middle" x="396" y="-7.5" font-family="Helvetica,sans-Serif" font-size="10.00" fill="#000000">::createTriangle</text>
</a>
</g>
</g>
<!-- Node44&#45;&gt;Node56 -->
<g id="edge13" class="edge">
<title>Node44&#45;&gt;Node56</title>
<path fill="none" stroke="#191970" d="M278.4135,-269.372C282.0163,-266.8517 285.2932,-263.9168 288,-260.5 349.796,-182.4945 259.4899,-115.2763 324,-39.5 325.6816,-37.5248 327.5303,-35.7114 329.5106,-34.0467"/>
<polygon fill="#191970" stroke="#191970" points="331.5131,-36.9173 337.7253,-28.3348 327.5168,-31.1701 331.5131,-36.9173"/>
</g>
<!-- Node57 -->
<g id="node15" class="node">
<title>Node57</title>
<g id="a_node15"><a xlink:href="classprecice_1_1mesh_1_1Edge.html#af27f4bd02d0b67cc5c3d04e2cf1ddee7" target="_top" xlink:title="Checks whether both edges share a vertex. ">
<polygon fill="#ffffff" stroke="#000000" points="504,-.5 504,-30.5 619,-30.5 619,-.5 504,-.5"/>
<text text-anchor="start" x="512" y="-18.5" font-family="Helvetica,sans-Serif" font-size="10.00" fill="#000000">precice::mesh::Edge</text>
<text text-anchor="middle" x="561.5" y="-7.5" font-family="Helvetica,sans-Serif" font-size="10.00" fill="#000000">::connectedTo</text>
</a>
</g>
</g>
<!-- Node56&#45;&gt;Node57 -->
<g id="edge14" class="edge">
<title>Node56&#45;&gt;Node57</title>
<path fill="none" stroke="#191970" d="M454.3491,-15.5C467.053,-15.5 480.5995,-15.5 493.6363,-15.5"/>
<polygon fill="#191970" stroke="#191970" points="493.9564,-19.0001 503.9564,-15.5 493.9564,-12.0001 493.9564,-19.0001"/>
</g>
</g>
</svg>
        <g id="navigator" transform="translate(0 0)" fill="#404254">
                <rect fill="#f2f5e9" fill-opacity="0.5" stroke="#606060" stroke-width=".5" x="0" y="0" width="60" height="60"/>
                <use id="zoomplus" xlink:href="#zoomPlus" x="17" y="9" onmousedown="handleZoom(evt,'in')"/>
                <use id="zoomminus" xlink:href="#zoomMin" x="42" y="9" onmousedown="handleZoom(evt,'out')"/>
                <use id="reset" xlink:href="#resetDef" x="30" y="36" onmousedown="handleReset()"/>
                <g id="arrowUp" xlink:href="#dirArrow" transform="translate(30 24)" onmousedown="handlePan(0,-1)">
                  <use xlink:href="#rim" fill="#404040">
                        <set attributeName="fill" to="#808080" begin="arrowUp.mouseover" end="arrowUp.mouseout"/>
                  </use>
                  <path fill="none" stroke="white" stroke-width="1.5" d="M0,-3.0v7 M-2.5,-0.5L0,-3.0L2.5,-0.5"/>
                </g>
                <g id="arrowRight" xlink:href="#dirArrow" transform="rotate(90) translate(36 -43)" onmousedown="handlePan(1,0)">
                  <use xlink:href="#rim" fill="#404040">
                        <set attributeName="fill" to="#808080" begin="arrowRight.mouseover" end="arrowRight.mouseout"/>
                  </use>
                  <path fill="none" stroke="white" stroke-width="1.5" d="M0,-3.0v7 M-2.5,-0.5L0,-3.0L2.5,-0.5"/>
                </g>
                <g id="arrowDown" xlink:href="#dirArrow" transform="rotate(180) translate(-30 -48)" onmousedown="handlePan(0,1)">
                  <use xlink:href="#rim" fill="#404040">
                        <set attributeName="fill" to="#808080" begin="arrowDown.mouseover" end="arrowDown.mouseout"/>
                  </use>
                  <path fill="none" stroke="white" stroke-width="1.5" d="M0,-3.0v7 M-2.5,-0.5L0,-3.0L2.5,-0.5"/>
                </g>
                <g id="arrowLeft" xlink:href="#dirArrow" transform="rotate(270) translate(-36 17)" onmousedown="handlePan(-1,0)">
                  <use xlink:href="#rim" fill="#404040">
                        <set attributeName="fill" to="#808080" begin="arrowLeft.mouseover" end="arrowLeft.mouseout"/>
                  </use>
                  <path fill="none" stroke="white" stroke-width="1.5" d="M0,-3.0v7 M-2.5,-0.5L0,-3.0L2.5,-0.5"/>
                </g>
        </g>
        <svg viewBox="0 0 15 15" width="100%" height="30px" preserveAspectRatio="xMaxYMin meet">
         <g id="arrow_out" transform="scale(0.3 0.3)">
          <a xlink:href="classprecice_1_1mesh_1_1Mesh_a7ba22c6b21d147b6f858d889922ab300_cgraph_org.svg" target="_base">
           <rect id="button" ry="5" rx="5" y="6" x="6" height="38" width="38"
                fill="#f2f5e9" fill-opacity="0.5" stroke="#606060" stroke-width="1.0"/>
           <path id="arrow"
             d="M 11.500037,31.436501 C 11.940474,20.09759 22.043105,11.32322 32.158766,21.979434 L 37.068811,17.246167 C 37.068811,17.246167 37.088388,32 37.088388,32 L 22.160133,31.978069 C 22.160133,31.978069 26.997745,27.140456 26.997745,27.140456 C 18.528582,18.264221 13.291696,25.230495 11.500037,31.436501 z"
             style="fill:#404040;"/>
          </a>
         </g>
        </svg>
</svg>
