<?xml version="1.0" encoding="UTF-8" standalone="no"?>
<!DOCTYPE svg PUBLIC "-//W3C//DTD SVG 1.1//EN"
 "http://www.w3.org/Graphics/SVG/1.1/DTD/svg11.dtd">
<!-- Generated by graphviz version 2.40.1 (20161225.0304)
 -->
<!-- Title: src/com/CommunicateMesh.hpp Pages: 1 -->
<svg width="1158pt" height="162pt"
 viewBox="0.00 0.00 1157.50 162.00" xmlns="http://www.w3.org/2000/svg" xmlns:xlink="http://www.w3.org/1999/xlink">
<g id="graph0" class="graph" transform="scale(1 1) rotate(0) translate(4 158)">
<title>src/com/CommunicateMesh.hpp</title>
<polygon fill="#ffffff" stroke="transparent" points="-4,4 -4,-158 1153.5,-158 1153.5,4 -4,4"/>
<!-- Node50 -->
<g id="node1" class="node">
<title>Node50</title>
<polygon fill="#bfbfbf" stroke="#000000" points="484.5,-134.5 484.5,-153.5 657.5,-153.5 657.5,-134.5 484.5,-134.5"/>
<text text-anchor="middle" x="571" y="-141.5" font-family="Helvetica,sans-Serif" font-size="10.00" fill="#000000">src/com/CommunicateMesh.hpp</text>
</g>
<!-- Node51 -->
<g id="node2" class="node">
<title>Node51</title>
<g id="a_node2"><a xlink:href="CommunicateMesh_8cpp.html" target="_top" xlink:title="src/com/CommunicateMesh.cpp">
<polygon fill="#ffffff" stroke="#000000" points="0,-73 0,-92 172,-92 172,-73 0,-73"/>
<text text-anchor="middle" x="86" y="-80" font-family="Helvetica,sans-Serif" font-size="10.00" fill="#000000">src/com/CommunicateMesh.cpp</text>
</a>
</g>
</g>
<!-- Node50&#45;&gt;Node51 -->
<g id="edge1" class="edge">
<title>Node50&#45;&gt;Node51</title>
<path fill="none" stroke="#191970" d="M474.0769,-133.7756C395.0722,-125.1512 280.6666,-112.0015 181,-98 168.2575,-96.2099 154.5859,-94.0944 141.6968,-92.0112"/>
<polygon fill="#191970" stroke="#191970" points="474.1798,-137.3074 484.4997,-134.9096 474.937,-130.3485 474.1798,-137.3074"/>
</g>
<!-- Node52 -->
<g id="node3" class="node">
<title>Node52</title>
<g id="a_node3"><a xlink:href="CommunicateMeshTest_8cpp.html" target="_top" xlink:title="src/com/tests/Communicate\lMeshTest.cpp">
<polygon fill="#ffffff" stroke="#000000" points="190.5,-67.5 190.5,-97.5 343.5,-97.5 343.5,-67.5 190.5,-67.5"/>
<text text-anchor="start" x="198.5" y="-85.5" font-family="Helvetica,sans-Serif" font-size="10.00" fill="#000000">src/com/tests/Communicate</text>
<text text-anchor="middle" x="267" y="-74.5" font-family="Helvetica,sans-Serif" font-size="10.00" fill="#000000">MeshTest.cpp</text>
</a>
</g>
</g>
<!-- Node50&#45;&gt;Node52 -->
<g id="edge2" class="edge">
<title>Node50&#45;&gt;Node52</title>
<path fill="none" stroke="#191970" d="M513.7579,-132.4198C464.9312,-122.542 394.4031,-108.274 341.2418,-97.5193"/>
<polygon fill="#191970" stroke="#191970" points="513.3381,-135.9057 523.8335,-134.4581 514.7261,-129.0447 513.3381,-135.9057"/>
</g>
<!-- Node53 -->
<g id="node4" class="node">
<title>Node53</title>
<g id="a_node4"><a xlink:href="PointToPointCommunication_8cpp.html" target="_top" xlink:title="src/m2n/PointToPointCommunication.cpp">
<polygon fill="#ffffff" stroke="#000000" points="362,-73 362,-92 578,-92 578,-73 362,-73"/>
<text text-anchor="middle" x="470" y="-80" font-family="Helvetica,sans-Serif" font-size="10.00" fill="#000000">src/m2n/PointToPointCommunication.cpp</text>
</a>
</g>
</g>
<!-- Node50&#45;&gt;Node53 -->
<g id="edge3" class="edge">
<title>Node50&#45;&gt;Node53</title>
<path fill="none" stroke="#191970" d="M546.5326,-129.1015C527.5946,-117.57 501.9341,-101.945 485.6704,-92.0419"/>
<polygon fill="#191970" stroke="#191970" points="544.8573,-132.1792 555.2188,-134.3906 548.4979,-126.2004 544.8573,-132.1792"/>
</g>
<!-- Node54 -->
<g id="node5" class="node">
<title>Node54</title>
<g id="a_node5"><a xlink:href="RadialBasisFctMapping_8hpp.html" target="_top" xlink:title="src/mapping/RadialBasisFct\lMapping.hpp">
<polygon fill="#ffffff" stroke="#000000" points="596.5,-67.5 596.5,-97.5 747.5,-97.5 747.5,-67.5 596.5,-67.5"/>
<text text-anchor="start" x="604.5" y="-85.5" font-family="Helvetica,sans-Serif" font-size="10.00" fill="#000000">src/mapping/RadialBasisFct</text>
<text text-anchor="middle" x="672" y="-74.5" font-family="Helvetica,sans-Serif" font-size="10.00" fill="#000000">Mapping.hpp</text>
</a>
</g>
</g>
<!-- Node50&#45;&gt;Node54 -->
<g id="edge4" class="edge">
<title>Node50&#45;&gt;Node54</title>
<path fill="none" stroke="#191970" d="M595.4312,-129.1236C611.1523,-119.5508 631.5175,-107.1502 647.2926,-97.5446"/>
<polygon fill="#191970" stroke="#191970" points="593.5021,-126.2004 586.7813,-134.3906 597.1427,-132.1792 593.5021,-126.2004"/>
</g>
<!-- Node57 -->
<g id="node8" class="node">
<title>Node57</title>
<g id="a_node8"><a xlink:href="ProvidedPartition_8cpp.html" target="_top" xlink:title="src/partition/ProvidedPartition.cpp">
<polygon fill="#ffffff" stroke="#000000" points="766,-73 766,-92 948,-92 948,-73 766,-73"/>
<text text-anchor="middle" x="857" y="-80" font-family="Helvetica,sans-Serif" font-size="10.00" fill="#000000">src/partition/ProvidedPartition.cpp</text>
</a>
</g>
</g>
<!-- Node50&#45;&gt;Node57 -->
<g id="edge7" class="edge">
<title>Node50&#45;&gt;Node57</title>
<path fill="none" stroke="#191970" d="M625.1635,-132.3529C679.4306,-120.6836 761.963,-102.9363 812.5222,-92.0643"/>
<polygon fill="#191970" stroke="#191970" points="624.4144,-128.9339 615.3737,-134.4581 625.8861,-135.7775 624.4144,-128.9339"/>
</g>
<!-- Node58 -->
<g id="node9" class="node">
<title>Node58</title>
<g id="a_node9"><a xlink:href="ReceivedPartition_8cpp.html" target="_top" xlink:title="src/partition/ReceivedPartition.cpp">
<polygon fill="#ffffff" stroke="#000000" points="966.5,-73 966.5,-92 1149.5,-92 1149.5,-73 966.5,-73"/>
<text text-anchor="middle" x="1058" y="-80" font-family="Helvetica,sans-Serif" font-size="10.00" fill="#000000">src/partition/ReceivedPartition.cpp</text>
</a>
</g>
</g>
<!-- Node50&#45;&gt;Node58 -->
<g id="edge8" class="edge">
<title>Node50&#45;&gt;Node58</title>
<path fill="none" stroke="#191970" d="M668.0339,-133.352C746.1644,-124.5579 858.7651,-111.3873 957,-98 970.3589,-96.1795 984.6876,-94.0738 998.2328,-92.0127"/>
<polygon fill="#191970" stroke="#191970" points="667.2701,-129.9157 657.7231,-134.5097 668.0512,-136.872 667.2701,-129.9157"/>
</g>
<!-- Node55 -->
<g id="node6" class="node">
<title>Node55</title>
<g id="a_node6"><a xlink:href="MappingConfiguration_8cpp.html" target="_top" xlink:title="src/mapping/config\l/MappingConfiguration.cpp">
<polygon fill="#ffffff" stroke="#000000" points="519,-.5 519,-30.5 665,-30.5 665,-.5 519,-.5"/>
<text text-anchor="start" x="527" y="-18.5" font-family="Helvetica,sans-Serif" font-size="10.00" fill="#000000">src/mapping/config</text>
<text text-anchor="middle" x="592" y="-7.5" font-family="Helvetica,sans-Serif" font-size="10.00" fill="#000000">/MappingConfiguration.cpp</text>
</a>
</g>
</g>
<!-- Node54&#45;&gt;Node55 -->
<g id="edge5" class="edge">
<title>Node54&#45;&gt;Node55</title>
<path fill="none" stroke="#191970" d="M646.0667,-60.7808C634.3144,-50.9383 620.7056,-39.541 610.0814,-30.6432"/>
<polygon fill="#191970" stroke="#191970" points="643.933,-63.5592 653.8468,-67.2967 648.4275,-58.1927 643.933,-63.5592"/>
</g>
<!-- Node56 -->
<g id="node7" class="node">
<title>Node56</title>
<g id="a_node7"><a xlink:href="RadialBasisFctMappingTest_8cpp.html" target="_top" xlink:title="src/mapping/tests/Radial\lBasisFctMappingTest.cpp">
<polygon fill="#ffffff" stroke="#000000" points="683,-.5 683,-30.5 821,-30.5 821,-.5 683,-.5"/>
<text text-anchor="start" x="691" y="-18.5" font-family="Helvetica,sans-Serif" font-size="10.00" fill="#000000">src/mapping/tests/Radial</text>
<text text-anchor="middle" x="752" y="-7.5" font-family="Helvetica,sans-Serif" font-size="10.00" fill="#000000">BasisFctMappingTest.cpp</text>
</a>
</g>
</g>
<!-- Node54&#45;&gt;Node56 -->
<g id="edge6" class="edge">
<title>Node54&#45;&gt;Node56</title>
<path fill="none" stroke="#191970" d="M697.9333,-60.7808C709.6856,-50.9383 723.2944,-39.541 733.9186,-30.6432"/>
<polygon fill="#191970" stroke="#191970" points="695.5725,-58.1927 690.1532,-67.2967 700.067,-63.5592 695.5725,-58.1927"/>
</g>
</g>
</svg>
