<?xml version="1.0" encoding="UTF-8" standalone="no"?>
<!DOCTYPE svg PUBLIC "-//W3C//DTD SVG 1.1//EN"
 "http://www.w3.org/Graphics/SVG/1.1/DTD/svg11.dtd">
<!-- Generated by graphviz version 2.40.1 (20161225.0304)
 -->
<!-- Title: BOOST_AUTO_TEST_CASE Pages: 1 -->
<svg width="536pt" height="404pt"
 viewBox="0.00 0.00 536.00 403.50" xmlns="http://www.w3.org/2000/svg" xmlns:xlink="http://www.w3.org/1999/xlink">
<g id="graph0" class="graph" transform="scale(1 1) rotate(0) translate(4 399.5)">
<title>BOOST_AUTO_TEST_CASE</title>
<polygon fill="#ffffff" stroke="transparent" points="-4,4 -4,-399.5 532,-399.5 532,4 -4,4"/>
<!-- Node13 -->
<g id="node1" class="node">
<title>Node13</title>
<polygon fill="#bfbfbf" stroke="#000000" points="0,-184.5 0,-203.5 143,-203.5 143,-184.5 0,-184.5"/>
<text text-anchor="middle" x="71.5" y="-191.5" font-family="Helvetica,sans-Serif" font-size="10.00" fill="#000000">BOOST_AUTO_TEST_CASE</text>
</g>
<!-- Node14 -->
<g id="node2" class="node">
<title>Node14</title>
<g id="a_node2"><a xlink:href="namespaceprecice_1_1testing.html#a08533fd83bad3d7f27ea7f4a35a14aa4" target="_top" xlink:title="precice::testing::nextMeshID">
<polygon fill="#ffffff" stroke="#000000" points="179,-370.5 179,-389.5 334,-389.5 334,-370.5 179,-370.5"/>
<text text-anchor="middle" x="256.5" y="-377.5" font-family="Helvetica,sans-Serif" font-size="10.00" fill="#000000">precice::testing::nextMeshID</text>
</a>
</g>
</g>
<!-- Node13&#45;&gt;Node14 -->
<g id="edge1" class="edge">
<title>Node13&#45;&gt;Node14</title>
<path fill="none" stroke="#191970" d="M74.8069,-203.7497C85.1489,-232.6969 119.7717,-318.7488 179,-361 181.7067,-362.9308 184.587,-364.6666 187.5846,-366.227"/>
<polygon fill="#191970" stroke="#191970" points="186.3171,-369.4945 196.8731,-370.4013 189.1866,-363.1097 186.3171,-369.4945"/>
</g>
<!-- Node16 -->
<g id="node4" class="node">
<title>Node16</title>
<g id="a_node4"><a xlink:href="classprecice_1_1mesh_1_1Mesh.html#af6e6d684553dc5d0f0a23cacb77b3fc7" target="_top" xlink:title="Creates and initializes a Vertex object. ">
<polygon fill="#ffffff" stroke="#000000" points="198.5,-321 198.5,-351 314.5,-351 314.5,-321 198.5,-321"/>
<text text-anchor="start" x="206.5" y="-339" font-family="Helvetica,sans-Serif" font-size="10.00" fill="#000000">precice::mesh::Mesh</text>
<text text-anchor="middle" x="256.5" y="-328" font-family="Helvetica,sans-Serif" font-size="10.00" fill="#000000">::createVertex</text>
</a>
</g>
</g>
<!-- Node13&#45;&gt;Node16 -->
<g id="edge3" class="edge">
<title>Node13&#45;&gt;Node16</title>
<path fill="none" stroke="#191970" d="M77.525,-203.5282C92.1364,-225.8639 131.7538,-281.9747 179,-312 182.1577,-314.0067 185.4945,-315.8554 188.9392,-317.5573"/>
<polygon fill="#191970" stroke="#191970" points="187.7032,-320.8385 198.2607,-321.7268 190.5614,-314.4486 187.7032,-320.8385"/>
</g>
<!-- Node17 -->
<g id="node5" class="node">
<title>Node17</title>
<g id="a_node5"><a xlink:href="classprecice_1_1mesh_1_1Mesh.html#ae05c5234aa9adc6f47a814622039c28e" target="_top" xlink:title="Creates and initializes an Edge object. ">
<polygon fill="#ffffff" stroke="#000000" points="198.5,-272 198.5,-302 314.5,-302 314.5,-272 198.5,-272"/>
<text text-anchor="start" x="206.5" y="-290" font-family="Helvetica,sans-Serif" font-size="10.00" fill="#000000">precice::mesh::Mesh</text>
<text text-anchor="middle" x="256.5" y="-279" font-family="Helvetica,sans-Serif" font-size="10.00" fill="#000000">::createEdge</text>
</a>
</g>
</g>
<!-- Node13&#45;&gt;Node17 -->
<g id="edge4" class="edge">
<title>Node13&#45;&gt;Node17</title>
<path fill="none" stroke="#191970" d="M84.0809,-203.6952C103.5095,-218.2819 142.405,-245.9738 179,-263 183.0607,-264.8893 187.3083,-266.6795 191.6336,-268.3661"/>
<polygon fill="#191970" stroke="#191970" points="190.5913,-271.7121 201.1846,-271.8911 193.0151,-265.1451 190.5913,-271.7121"/>
</g>
<!-- Node18 -->
<g id="node6" class="node">
<title>Node18</title>
<g id="a_node6"><a xlink:href="classprecice_1_1mesh_1_1Mesh.html#a00c3db2576c63d8c6f351175ddc0a4d0" target="_top" xlink:title="Creates and initializes a Triangle object. ">
<polygon fill="#ffffff" stroke="#000000" points="198.5,-223 198.5,-253 314.5,-253 314.5,-223 198.5,-223"/>
<text text-anchor="start" x="206.5" y="-241" font-family="Helvetica,sans-Serif" font-size="10.00" fill="#000000">precice::mesh::Mesh</text>
<text text-anchor="middle" x="256.5" y="-230" font-family="Helvetica,sans-Serif" font-size="10.00" fill="#000000">::createTriangle</text>
</a>
</g>
</g>
<!-- Node13&#45;&gt;Node18 -->
<g id="edge5" class="edge">
<title>Node13&#45;&gt;Node18</title>
<path fill="none" stroke="#191970" d="M111.6422,-203.5473C134.0693,-208.8813 162.619,-215.6715 188.4338,-221.8113"/>
<polygon fill="#191970" stroke="#191970" points="187.6366,-225.2193 198.1751,-224.1281 189.2564,-218.4092 187.6366,-225.2193"/>
</g>
<!-- Node20 -->
<g id="node8" class="node">
<title>Node20</title>
<g id="a_node8"><a xlink:href="classprecice_1_1com_1_1CommunicateMesh.html#ace810ddd981fb3e2553a232a6afbf335" target="_top" xlink:title="Sends a constructed mesh to the receiver with given rank. ">
<polygon fill="#ffffff" stroke="#000000" points="180,-135 180,-165 333,-165 333,-135 180,-135"/>
<text text-anchor="start" x="188" y="-153" font-family="Helvetica,sans-Serif" font-size="10.00" fill="#000000">precice::com::Communicate</text>
<text text-anchor="middle" x="256.5" y="-142" font-family="Helvetica,sans-Serif" font-size="10.00" fill="#000000">Mesh::sendMesh</text>
</a>
</g>
</g>
<!-- Node13&#45;&gt;Node20 -->
<g id="edge7" class="edge">
<title>Node13&#45;&gt;Node20</title>
<path fill="none" stroke="#191970" d="M111.6422,-184.4527C132.5641,-179.4767 158.8143,-173.2334 183.2017,-167.4331"/>
<polygon fill="#191970" stroke="#191970" points="184.2382,-170.7843 193.157,-165.0654 182.6185,-163.9743 184.2382,-170.7843"/>
</g>
<!-- Node23 -->
<g id="node11" class="node">
<title>Node23</title>
<g id="a_node11"><a xlink:href="classprecice_1_1mesh_1_1Mesh.html#a13faa9b03e5d20918ed6528db1415fa3" target="_top" xlink:title="Returns modifieable container holding all vertices. ">
<polygon fill="#ffffff" stroke="#000000" points="391,-235 391,-265 507,-265 507,-235 391,-235"/>
<text text-anchor="start" x="399" y="-253" font-family="Helvetica,sans-Serif" font-size="10.00" fill="#000000">precice::mesh::Mesh</text>
<text text-anchor="middle" x="449" y="-242" font-family="Helvetica,sans-Serif" font-size="10.00" fill="#000000">::vertices</text>
</a>
</g>
</g>
<!-- Node13&#45;&gt;Node23 -->
<g id="edge13" class="edge">
<title>Node13&#45;&gt;Node23</title>
<path fill="none" stroke="#191970" d="M143.1732,-194.7281C196.3116,-196.4086 270.2664,-201.1537 334,-214 350.533,-217.3324 353.9299,-220.8816 370,-226 376.095,-227.9413 382.4655,-229.935 388.8304,-231.9039"/>
<polygon fill="#191970" stroke="#191970" points="388.2002,-235.3719 398.7873,-234.9665 390.2582,-228.6812 388.2002,-235.3719"/>
</g>
<!-- Node24 -->
<g id="node12" class="node">
<title>Node24</title>
<g id="a_node12"><a xlink:href="classprecice_1_1mesh_1_1Mesh.html#aec6f303d7791f8a64e2b78180531c89e" target="_top" xlink:title="Returns modifiable container holding all edges. ">
<polygon fill="#ffffff" stroke="#000000" points="391,-88 391,-118 507,-118 507,-88 391,-88"/>
<text text-anchor="start" x="399" y="-106" font-family="Helvetica,sans-Serif" font-size="10.00" fill="#000000">precice::mesh::Mesh</text>
<text text-anchor="middle" x="449" y="-95" font-family="Helvetica,sans-Serif" font-size="10.00" fill="#000000">::edges</text>
</a>
</g>
</g>
<!-- Node13&#45;&gt;Node24 -->
<g id="edge16" class="edge">
<title>Node13&#45;&gt;Node24</title>
<path fill="none" stroke="#191970" d="M82.4846,-184.4653C100.9607,-169.0587 140.0682,-139.0962 179,-126 245.0086,-103.7954 324.9619,-99.5802 380.6597,-99.974"/>
<polygon fill="#191970" stroke="#191970" points="380.7264,-103.475 390.7686,-100.0979 380.8122,-96.4755 380.7264,-103.475"/>
</g>
<!-- Node25 -->
<g id="node13" class="node">
<title>Node25</title>
<g id="a_node13"><a xlink:href="classprecice_1_1mesh_1_1Mesh.html#ad24f3877f1ea7cd5cd5f93a6f2e4d3f9" target="_top" xlink:title="Returns modifiable container holding all triangles. ">
<polygon fill="#ffffff" stroke="#000000" points="391,-39 391,-69 507,-69 507,-39 391,-39"/>
<text text-anchor="start" x="399" y="-57" font-family="Helvetica,sans-Serif" font-size="10.00" fill="#000000">precice::mesh::Mesh</text>
<text text-anchor="middle" x="449" y="-46" font-family="Helvetica,sans-Serif" font-size="10.00" fill="#000000">::triangles</text>
</a>
</g>
</g>
<!-- Node13&#45;&gt;Node25 -->
<g id="edge17" class="edge">
<title>Node13&#45;&gt;Node25</title>
<path fill="none" stroke="#191970" d="M78.8483,-184.2084C94.6594,-163.9413 134.1317,-117.4949 179,-96 242.8373,-65.4177 323.9847,-56.2174 380.5759,-53.8632"/>
<polygon fill="#191970" stroke="#191970" points="380.9774,-57.3513 390.8473,-53.4997 380.7297,-50.3556 380.9774,-57.3513"/>
</g>
<!-- Node26 -->
<g id="node14" class="node">
<title>Node26</title>
<g id="a_node14"><a xlink:href="namespaceprecice_1_1testing.html#a6a116337529290bbb1bf2545b5fb315a" target="_top" xlink:title="equals to be used in tests. Prints both operatorans on failure ">
<polygon fill="#ffffff" stroke="#000000" points="191.5,-8.5 191.5,-27.5 321.5,-27.5 321.5,-8.5 191.5,-8.5"/>
<text text-anchor="middle" x="256.5" y="-15.5" font-family="Helvetica,sans-Serif" font-size="10.00" fill="#000000">precice::testing::equals</text>
</a>
</g>
</g>
<!-- Node13&#45;&gt;Node26 -->
<g id="edge14" class="edge">
<title>Node13&#45;&gt;Node26</title>
<path fill="none" stroke="#191970" d="M75.8101,-184.4314C88.0845,-158.232 125.8036,-84.65 179,-45 186.7156,-39.2492 195.7543,-34.6535 204.881,-31.0037"/>
<polygon fill="#191970" stroke="#191970" points="206.1817,-34.2548 214.372,-27.5339 203.7782,-27.6804 206.1817,-34.2548"/>
</g>
<!-- Node15 -->
<g id="node3" class="node">
<title>Node15</title>
<g id="a_node3"><a xlink:href="classprecice_1_1utils_1_1ManageUniqueIDs.html#a02be264c279698ae293587b6576088b5" target="_top" xlink:title="precice::utils::ManageUnique\lIDs::getFreeID">
<polygon fill="#ffffff" stroke="#000000" points="370,-365 370,-395 528,-395 528,-365 370,-365"/>
<text text-anchor="start" x="378" y="-383" font-family="Helvetica,sans-Serif" font-size="10.00" fill="#000000">precice::utils::ManageUnique</text>
<text text-anchor="middle" x="449" y="-372" font-family="Helvetica,sans-Serif" font-size="10.00" fill="#000000">IDs::getFreeID</text>
</a>
</g>
</g>
<!-- Node14&#45;&gt;Node15 -->
<g id="edge2" class="edge">
<title>Node14&#45;&gt;Node15</title>
<path fill="none" stroke="#191970" d="M334.2422,-380C342.5509,-380 351.0508,-380 359.4814,-380"/>
<polygon fill="#191970" stroke="#191970" points="359.7132,-383.5001 369.7132,-380 359.7131,-376.5001 359.7132,-383.5001"/>
</g>
<!-- Node19 -->
<g id="node7" class="node">
<title>Node19</title>
<g id="a_node7"><a xlink:href="classprecice_1_1mesh_1_1Edge.html#af27f4bd02d0b67cc5c3d04e2cf1ddee7" target="_top" xlink:title="Checks whether both edges share a vertex. ">
<polygon fill="#ffffff" stroke="#000000" points="391.5,-284 391.5,-314 506.5,-314 506.5,-284 391.5,-284"/>
<text text-anchor="start" x="399.5" y="-302" font-family="Helvetica,sans-Serif" font-size="10.00" fill="#000000">precice::mesh::Edge</text>
<text text-anchor="middle" x="449" y="-291" font-family="Helvetica,sans-Serif" font-size="10.00" fill="#000000">::connectedTo</text>
</a>
</g>
</g>
<!-- Node18&#45;&gt;Node19 -->
<g id="edge6" class="edge">
<title>Node18&#45;&gt;Node19</title>
<path fill="none" stroke="#191970" d="M303.655,-253.1306C313.6779,-256.3692 324.1934,-259.784 334,-263 350.0257,-268.2556 353.9299,-269.8816 370,-275 376.095,-276.9413 382.4655,-278.935 388.8304,-280.9039"/>
<polygon fill="#191970" stroke="#191970" points="388.2002,-284.3719 398.7873,-283.9665 390.2582,-277.6812 388.2002,-284.3719"/>
</g>
<!-- Node21 -->
<g id="node9" class="node">
<title>Node21</title>
<g id="a_node9"><a xlink:href="classprecice_1_1mesh_1_1Mesh.html#a3185fe962ba3e8fe0b3cf451681e6a48" target="_top" xlink:title="Returns the name of the mesh, as set in the config file. ">
<polygon fill="#ffffff" stroke="#000000" points="391,-186 391,-216 507,-216 507,-186 391,-186"/>
<text text-anchor="start" x="399" y="-204" font-family="Helvetica,sans-Serif" font-size="10.00" fill="#000000">precice::mesh::Mesh</text>
<text text-anchor="middle" x="449" y="-193" font-family="Helvetica,sans-Serif" font-size="10.00" fill="#000000">::getName</text>
</a>
</g>
</g>
<!-- Node20&#45;&gt;Node21 -->
<g id="edge8" class="edge">
<title>Node20&#45;&gt;Node21</title>
<path fill="none" stroke="#191970" d="M313.2152,-165.0258C334.9519,-170.7847 359.9446,-177.4061 382.5152,-183.3859"/>
<polygon fill="#191970" stroke="#191970" points="381.795,-186.8157 392.3578,-185.9935 383.5877,-180.0492 381.795,-186.8157"/>
</g>
<!-- Node22 -->
<g id="node10" class="node">
<title>Node22</title>
<g id="a_node10"><a xlink:href="classprecice_1_1mesh_1_1Mesh.html#a136f6b4ce235025e418fab0ca5f350ff" target="_top" xlink:title="precice::mesh::Mesh\l::getDimensions">
<polygon fill="#ffffff" stroke="#000000" points="391,-137 391,-167 507,-167 507,-137 391,-137"/>
<text text-anchor="start" x="399" y="-155" font-family="Helvetica,sans-Serif" font-size="10.00" fill="#000000">precice::mesh::Mesh</text>
<text text-anchor="middle" x="449" y="-144" font-family="Helvetica,sans-Serif" font-size="10.00" fill="#000000">::getDimensions</text>
</a>
</g>
</g>
<!-- Node20&#45;&gt;Node22 -->
<g id="edge9" class="edge">
<title>Node20&#45;&gt;Node22</title>
<path fill="none" stroke="#191970" d="M333.1342,-150.7962C348.7238,-150.9582 365.0303,-151.1276 380.3227,-151.2865"/>
<polygon fill="#191970" stroke="#191970" points="380.6905,-154.7904 390.7264,-151.3946 380.7633,-147.7908 380.6905,-154.7904"/>
</g>
<!-- Node20&#45;&gt;Node23 -->
<g id="edge10" class="edge">
<title>Node20&#45;&gt;Node23</title>
<path fill="none" stroke="#191970" d="M307.344,-165.1449C316.6873,-169.1579 326.0034,-174.0705 334,-180 354.8536,-195.463 348.5858,-211.3232 370,-226 373.6912,-228.5299 377.657,-230.7996 381.7755,-232.8351"/>
<polygon fill="#191970" stroke="#191970" points="380.4284,-236.0664 390.9882,-236.9268 383.2698,-229.669 380.4284,-236.0664"/>
</g>
<!-- Node20&#45;&gt;Node24 -->
<g id="edge11" class="edge">
<title>Node20&#45;&gt;Node24</title>
<path fill="none" stroke="#191970" d="M317.9375,-134.9997C337.9839,-130.1052 360.3589,-124.6422 380.867,-119.6351"/>
<polygon fill="#191970" stroke="#191970" points="381.8817,-122.9902 390.7662,-117.2181 380.2214,-116.19 381.8817,-122.9902"/>
</g>
<!-- Node20&#45;&gt;Node25 -->
<g id="edge12" class="edge">
<title>Node20&#45;&gt;Node25</title>
<path fill="none" stroke="#191970" d="M276.9368,-134.9879C298.997,-119.3275 335.6067,-94.8877 370,-79 374.979,-76.7 380.2271,-74.5306 385.5537,-72.5039"/>
<polygon fill="#191970" stroke="#191970" points="386.9767,-75.711 395.1854,-69.0126 384.5912,-69.13 386.9767,-75.711"/>
</g>
<!-- Node27 -->
<g id="node15" class="node">
<title>Node27</title>
<g id="a_node15"><a xlink:href="namespaceprecice_1_1math.html#a0e86802cfe992deba131d789d035b5b7" target="_top" xlink:title="Compares two Eigen::MatrixBase for equality up to tolerance. ">
<polygon fill="#ffffff" stroke="#000000" points="388,-.5 388,-19.5 510,-19.5 510,-.5 388,-.5"/>
<text text-anchor="middle" x="449" y="-7.5" font-family="Helvetica,sans-Serif" font-size="10.00" fill="#000000">precice::math::equals</text>
</a>
</g>
</g>
<!-- Node26&#45;&gt;Node27 -->
<g id="edge15" class="edge">
<title>Node26&#45;&gt;Node27</title>
<path fill="none" stroke="#191970" d="M321.6717,-15.2916C339.7098,-14.5419 359.3792,-13.7245 377.7443,-12.9613"/>
<polygon fill="#191970" stroke="#191970" points="377.9482,-16.4559 387.7942,-12.5436 377.6575,-9.462 377.9482,-16.4559"/>
</g>
</g>
</svg>
