<?xml version="1.0" encoding="UTF-8" standalone="no"?>
<!DOCTYPE svg PUBLIC "-//W3C//DTD SVG 1.1//EN"
 "http://www.w3.org/Graphics/SVG/1.1/DTD/svg11.dtd">
<!-- Generated by graphviz version 2.40.1 (20161225.0304)
 -->
<!-- Title: src/logging/config/LogConfiguration.hpp Pages: 1 -->
<svg width="705pt" height="173pt"
 viewBox="0.00 0.00 705.00 173.00" xmlns="http://www.w3.org/2000/svg" xmlns:xlink="http://www.w3.org/1999/xlink">
<g id="graph0" class="graph" transform="scale(1 1) rotate(0) translate(4 169)">
<title>src/logging/config/LogConfiguration.hpp</title>
<polygon fill="#ffffff" stroke="transparent" points="-4,4 -4,-169 701,-169 701,4 -4,4"/>
<!-- Node39 -->
<g id="node1" class="node">
<title>Node39</title>
<polygon fill="#bfbfbf" stroke="#000000" points="198.5,-134.5 198.5,-164.5 310.5,-164.5 310.5,-134.5 198.5,-134.5"/>
<text text-anchor="start" x="206.5" y="-152.5" font-family="Helvetica,sans-Serif" font-size="10.00" fill="#000000">src/logging/config</text>
<text text-anchor="middle" x="254.5" y="-141.5" font-family="Helvetica,sans-Serif" font-size="10.00" fill="#000000">/LogConfiguration.hpp</text>
</g>
<!-- Node40 -->
<g id="node2" class="node">
<title>Node40</title>
<g id="a_node2"><a xlink:href="config_2LogConfiguration_8cpp.html" target="_top" xlink:title="src/logging/config\l/LogConfiguration.cpp">
<polygon fill="#ffffff" stroke="#000000" points="137.5,-67.5 137.5,-97.5 249.5,-97.5 249.5,-67.5 137.5,-67.5"/>
<text text-anchor="start" x="145.5" y="-85.5" font-family="Helvetica,sans-Serif" font-size="10.00" fill="#000000">src/logging/config</text>
<text text-anchor="middle" x="193.5" y="-74.5" font-family="Helvetica,sans-Serif" font-size="10.00" fill="#000000">/LogConfiguration.cpp</text>
</a>
</g>
</g>
<!-- Node39&#45;&gt;Node40 -->
<g id="edge1" class="edge">
<title>Node39&#45;&gt;Node40</title>
<path fill="none" stroke="#191970" d="M233.6858,-126.6385C224.9699,-117.0653 215.0765,-106.1987 207.2871,-97.6432"/>
<polygon fill="#191970" stroke="#191970" points="231.3379,-129.2585 240.6582,-134.2967 236.514,-124.5459 231.3379,-129.2585"/>
</g>
<!-- Node41 -->
<g id="node3" class="node">
<title>Node41</title>
<g id="a_node3"><a xlink:href="Configuration_8hpp.html" target="_top" xlink:title="src/precice/config\l/Configuration.hpp">
<polygon fill="#ffffff" stroke="#000000" points="267.5,-67.5 267.5,-97.5 363.5,-97.5 363.5,-67.5 267.5,-67.5"/>
<text text-anchor="start" x="275.5" y="-85.5" font-family="Helvetica,sans-Serif" font-size="10.00" fill="#000000">src/precice/config</text>
<text text-anchor="middle" x="315.5" y="-74.5" font-family="Helvetica,sans-Serif" font-size="10.00" fill="#000000">/Configuration.hpp</text>
</a>
</g>
</g>
<!-- Node39&#45;&gt;Node41 -->
<g id="edge2" class="edge">
<title>Node39&#45;&gt;Node41</title>
<path fill="none" stroke="#191970" d="M275.3142,-126.6385C284.0301,-117.0653 293.9235,-106.1987 301.7129,-97.6432"/>
<polygon fill="#191970" stroke="#191970" points="272.486,-124.5459 268.3418,-134.2967 277.6621,-129.2585 272.486,-124.5459"/>
</g>
<!-- Node42 -->
<g id="node4" class="node">
<title>Node42</title>
<g id="a_node4"><a xlink:href="drivers_2main_8cpp.html" target="_top" xlink:title="src/drivers/main.cpp">
<polygon fill="#ffffff" stroke="#000000" points="0,-6 0,-25 105,-25 105,-6 0,-6"/>
<text text-anchor="middle" x="52.5" y="-13" font-family="Helvetica,sans-Serif" font-size="10.00" fill="#000000">src/drivers/main.cpp</text>
</a>
</g>
</g>
<!-- Node41&#45;&gt;Node42 -->
<g id="edge3" class="edge">
<title>Node41&#45;&gt;Node42</title>
<path fill="none" stroke="#191970" d="M257.3553,-66.7842C227.347,-59.2019 141.2065,-37.6709 90.529,-25.0047"/>
<polygon fill="#191970" stroke="#191970" points="256.7619,-70.2448 267.3165,-69.3228 258.4906,-63.4616 256.7619,-70.2448"/>
</g>
<!-- Node43 -->
<g id="node5" class="node">
<title>Node43</title>
<g id="a_node5"><a xlink:href="Configuration_8cpp.html" target="_top" xlink:title="src/precice/config\l/Configuration.cpp">
<polygon fill="#ffffff" stroke="#000000" points="123.5,-.5 123.5,-30.5 219.5,-30.5 219.5,-.5 123.5,-.5"/>
<text text-anchor="start" x="131.5" y="-18.5" font-family="Helvetica,sans-Serif" font-size="10.00" fill="#000000">src/precice/config</text>
<text text-anchor="middle" x="171.5" y="-7.5" font-family="Helvetica,sans-Serif" font-size="10.00" fill="#000000">/Configuration.cpp</text>
</a>
</g>
</g>
<!-- Node41&#45;&gt;Node43 -->
<g id="edge4" class="edge">
<title>Node41&#45;&gt;Node43</title>
<path fill="none" stroke="#191970" d="M273.9983,-63.1902C251.8144,-52.8685 224.8919,-40.3421 204.2068,-30.7177"/>
<polygon fill="#191970" stroke="#191970" points="272.6404,-66.4187 283.1836,-67.4639 275.5934,-60.072 272.6404,-66.4187"/>
</g>
<!-- Node44 -->
<g id="node6" class="node">
<title>Node44</title>
<g id="a_node6"><a xlink:href="SolverInterfaceImpl_8cpp.html" target="_top" xlink:title="src/precice/impl/SolverInterface\lImpl.cpp">
<polygon fill="#ffffff" stroke="#000000" points="238,-.5 238,-30.5 393,-30.5 393,-.5 238,-.5"/>
<text text-anchor="start" x="246" y="-18.5" font-family="Helvetica,sans-Serif" font-size="10.00" fill="#000000">src/precice/impl/SolverInterface</text>
<text text-anchor="middle" x="315.5" y="-7.5" font-family="Helvetica,sans-Serif" font-size="10.00" fill="#000000">Impl.cpp</text>
</a>
</g>
</g>
<!-- Node41&#45;&gt;Node44 -->
<g id="edge5" class="edge">
<title>Node41&#45;&gt;Node44</title>
<path fill="none" stroke="#191970" d="M315.5,-57.0249C315.5,-48.128 315.5,-38.4287 315.5,-30.6432"/>
<polygon fill="#191970" stroke="#191970" points="312.0001,-57.2966 315.5,-67.2967 319.0001,-57.2967 312.0001,-57.2966"/>
</g>
<!-- Node45 -->
<g id="node7" class="node">
<title>Node45</title>
<g id="a_node7"><a xlink:href="ParallelTests_8cpp.html" target="_top" xlink:title="src/precice/tests/Parallel\lTests.cpp">
<polygon fill="#ffffff" stroke="#000000" points="411,-.5 411,-30.5 536,-30.5 536,-.5 411,-.5"/>
<text text-anchor="start" x="419" y="-18.5" font-family="Helvetica,sans-Serif" font-size="10.00" fill="#000000">src/precice/tests/Parallel</text>
<text text-anchor="middle" x="473.5" y="-7.5" font-family="Helvetica,sans-Serif" font-size="10.00" fill="#000000">Tests.cpp</text>
</a>
</g>
</g>
<!-- Node41&#45;&gt;Node45 -->
<g id="edge6" class="edge">
<title>Node41&#45;&gt;Node45</title>
<path fill="none" stroke="#191970" d="M360.4202,-63.4516C384.9748,-53.0392 414.9636,-40.3224 437.8871,-30.6017"/>
<polygon fill="#191970" stroke="#191970" points="358.7983,-60.3376 350.9583,-67.4639 361.5312,-66.7821 358.7983,-60.3376"/>
</g>
<!-- Node46 -->
<g id="node8" class="node">
<title>Node46</title>
<g id="a_node8"><a xlink:href="PrinterTest_8cpp.html" target="_top" xlink:title="src/xml/tests/PrinterTest.cpp">
<polygon fill="#ffffff" stroke="#000000" points="554,-6 554,-25 697,-25 697,-6 554,-6"/>
<text text-anchor="middle" x="625.5" y="-13" font-family="Helvetica,sans-Serif" font-size="10.00" fill="#000000">src/xml/tests/PrinterTest.cpp</text>
</a>
</g>
</g>
<!-- Node41&#45;&gt;Node46 -->
<g id="edge7" class="edge">
<title>Node41&#45;&gt;Node46</title>
<path fill="none" stroke="#191970" d="M373.717,-69.9176C433.9875,-56.8914 526.8045,-36.831 581.3097,-25.0508"/>
<polygon fill="#191970" stroke="#191970" points="372.6323,-66.5712 363.5974,-72.1048 374.1111,-73.4132 372.6323,-66.5712"/>
</g>
</g>
</svg>
