<?xml version="1.0" encoding="UTF-8" standalone="no"?>
<!DOCTYPE svg PUBLIC "-//W3C//DTD SVG 1.1//EN"
 "http://www.w3.org/Graphics/SVG/1.1/DTD/svg11.dtd">
<!-- Generated by graphviz version 2.40.1 (20161225.0304)
 -->
<!-- Title: src/math/differences.hpp Pages: 1 -->
<svg width="4927pt" height="452pt"
 viewBox="0.00 0.00 4926.76 452.00" xmlns="http://www.w3.org/2000/svg" xmlns:xlink="http://www.w3.org/1999/xlink">
<g id="graph0" class="graph" transform="scale(1 1) rotate(0) translate(4 448)">
<title>src/math/differences.hpp</title>
<polygon fill="#ffffff" stroke="transparent" points="-4,4 -4,-448 4922.7577,-448 4922.7577,4 -4,4"/>
<!-- Node26 -->
<g id="node1" class="node">
<title>Node26</title>
<polygon fill="#bfbfbf" stroke="#000000" points="1714,-424.5 1714,-443.5 1851,-443.5 1851,-424.5 1714,-424.5"/>
<text text-anchor="middle" x="1782.5" y="-431.5" font-family="Helvetica,sans-Serif" font-size="10.00" fill="#000000">src/math/differences.hpp</text>
</g>
<!-- Node27 -->
<g id="node2" class="node">
<title>Node27</title>
<g id="a_node2"><a xlink:href="ResidualSumPreconditioner_8cpp.html" target="_top" xlink:title="src/acceleration/impl\l/ResidualSumPreconditioner.cpp">
<polygon fill="#ffffff" stroke="#000000" points="0,-352 0,-382 173,-382 173,-352 0,-352"/>
<text text-anchor="start" x="8" y="-370" font-family="Helvetica,sans-Serif" font-size="10.00" fill="#000000">src/acceleration/impl</text>
<text text-anchor="middle" x="86.5" y="-359" font-family="Helvetica,sans-Serif" font-size="10.00" fill="#000000">/ResidualSumPreconditioner.cpp</text>
</a>
</g>
</g>
<!-- Node26&#45;&gt;Node27 -->
<g id="edge1" class="edge">
<title>Node26&#45;&gt;Node27</title>
<path fill="none" stroke="#191970" d="M1703.7705,-433.5654C1425.0804,-431.7402 486.1129,-423.0726 187.5,-388 175.4045,-386.5794 162.6085,-384.4318 150.3376,-382.0436"/>
<polygon fill="#191970" stroke="#191970" points="1703.7752,-437.0654 1713.7976,-433.63 1703.8204,-430.0655 1703.7752,-437.0654"/>
</g>
<!-- Node28 -->
<g id="node3" class="node">
<title>Node28</title>
<g id="a_node3"><a xlink:href="BaseCouplingScheme_8cpp.html" target="_top" xlink:title="src/cplscheme/BaseCoupling\lScheme.cpp">
<polygon fill="#ffffff" stroke="#000000" points="1650.5,-67.5 1650.5,-97.5 1806.5,-97.5 1806.5,-67.5 1650.5,-67.5"/>
<text text-anchor="start" x="1658.5" y="-85.5" font-family="Helvetica,sans-Serif" font-size="10.00" fill="#000000">src/cplscheme/BaseCoupling</text>
<text text-anchor="middle" x="1728.5" y="-74.5" font-family="Helvetica,sans-Serif" font-size="10.00" fill="#000000">Scheme.cpp</text>
</a>
</g>
</g>
<!-- Node26&#45;&gt;Node28 -->
<g id="edge2" class="edge">
<title>Node26&#45;&gt;Node28</title>
<path fill="none" stroke="#191970" d="M1703.7791,-431.5031C1526.0938,-425.5613 1098.3068,-409.4591 955.5,-388 775.7732,-360.993 638.0593,-403.3584 577.5,-232 571.2801,-214.4001 564.9294,-203.7994 577.5,-190 649.6807,-110.7637 1402.8884,-88.9114 1650.2637,-83.8481"/>
<polygon fill="#191970" stroke="#191970" points="1703.7297,-435.0033 1713.8405,-431.8376 1703.9624,-428.0071 1703.7297,-435.0033"/>
</g>
<!-- Node29 -->
<g id="node4" class="node">
<title>Node29</title>
<g id="a_node4"><a xlink:href="AbsoluteConvergenceMeasure_8cpp.html" target="_top" xlink:title="src/cplscheme/impl\l/AbsoluteConvergenceMeasure.cpp">
<polygon fill="#ffffff" stroke="#000000" points="229.5,-352 229.5,-382 417.5,-382 417.5,-352 229.5,-352"/>
<text text-anchor="start" x="237.5" y="-370" font-family="Helvetica,sans-Serif" font-size="10.00" fill="#000000">src/cplscheme/impl</text>
<text text-anchor="middle" x="323.5" y="-359" font-family="Helvetica,sans-Serif" font-size="10.00" fill="#000000">/AbsoluteConvergenceMeasure.cpp</text>
</a>
</g>
</g>
<!-- Node26&#45;&gt;Node29 -->
<g id="edge3" class="edge">
<title>Node26&#45;&gt;Node29</title>
<path fill="none" stroke="#191970" d="M1703.8805,-432.9561C1454.1025,-429.3824 680.4735,-416.2649 431.5,-388 418.689,-386.5456 405.1253,-384.3982 392.0966,-382.0244"/>
<polygon fill="#191970" stroke="#191970" points="1703.9138,-436.4569 1713.9625,-433.0993 1704.0132,-429.4576 1703.9138,-436.4569"/>
</g>
<!-- Node30 -->
<g id="node5" class="node">
<title>Node30</title>
<g id="a_node5"><a xlink:href="RelativeConvergenceMeasure_8hpp.html" target="_top" xlink:title="src/cplscheme/impl\l/RelativeConvergenceMeasure.hpp">
<polygon fill="#ffffff" stroke="#000000" points="650,-274 650,-304 835,-304 835,-274 650,-274"/>
<text text-anchor="start" x="658" y="-292" font-family="Helvetica,sans-Serif" font-size="10.00" fill="#000000">src/cplscheme/impl</text>
<text text-anchor="middle" x="742.5" y="-281" font-family="Helvetica,sans-Serif" font-size="10.00" fill="#000000">/RelativeConvergenceMeasure.hpp</text>
</a>
</g>
</g>
<!-- Node26&#45;&gt;Node30 -->
<g id="edge4" class="edge">
<title>Node26&#45;&gt;Node30</title>
<path fill="none" stroke="#191970" d="M1703.5181,-431.3164C1549.1009,-425.5961 1218.1398,-410.8324 1171.5,-388 1148.8909,-376.9318 1155.7934,-357.6912 1133.5,-346 1024.7259,-288.9559 980.8686,-328.8545 859.5,-310 847.7743,-308.1784 835.4135,-306.1157 823.2943,-304.012"/>
<polygon fill="#191970" stroke="#191970" points="1703.7555,-434.8274 1713.8771,-431.6964 1704.0121,-427.8321 1703.7555,-434.8274"/>
</g>
<!-- Node34 -->
<g id="node9" class="node">
<title>Node34</title>
<g id="a_node9"><a xlink:href="ResidualRelativeConvergenceMeasure_8hpp.html" target="_top" xlink:title="src/cplscheme/impl\l/ResidualRelativeConvergence\lMeasure.hpp">
<polygon fill="#ffffff" stroke="#000000" points="473.5,-346.5 473.5,-387.5 637.5,-387.5 637.5,-346.5 473.5,-346.5"/>
<text text-anchor="start" x="481.5" y="-375.5" font-family="Helvetica,sans-Serif" font-size="10.00" fill="#000000">src/cplscheme/impl</text>
<text text-anchor="start" x="481.5" y="-364.5" font-family="Helvetica,sans-Serif" font-size="10.00" fill="#000000">/ResidualRelativeConvergence</text>
<text text-anchor="middle" x="555.5" y="-353.5" font-family="Helvetica,sans-Serif" font-size="10.00" fill="#000000">Measure.hpp</text>
</a>
</g>
</g>
<!-- Node26&#45;&gt;Node34 -->
<g id="edge8" class="edge">
<title>Node26&#45;&gt;Node34</title>
<path fill="none" stroke="#191970" d="M1703.6922,-432.5872C1481.9331,-428.3265 855.4747,-414.253 651.5,-388 646.9313,-387.412 642.2584,-386.7144 637.5542,-385.9369"/>
<polygon fill="#191970" stroke="#191970" points="1703.878,-436.0913 1713.9429,-432.7827 1704.0115,-429.0926 1703.878,-436.0913"/>
</g>
<!-- Node35 -->
<g id="node10" class="node">
<title>Node35</title>
<g id="a_node10"><a xlink:href="ResidualRelativeConvergenceMeasure_8cpp.html" target="_top" xlink:title="src/cplscheme/impl\l/ResidualRelativeConvergence\lMeasure.cpp">
<polygon fill="#ffffff" stroke="#000000" points="186.5,-268.5 186.5,-309.5 350.5,-309.5 350.5,-268.5 186.5,-268.5"/>
<text text-anchor="start" x="194.5" y="-297.5" font-family="Helvetica,sans-Serif" font-size="10.00" fill="#000000">src/cplscheme/impl</text>
<text text-anchor="start" x="194.5" y="-286.5" font-family="Helvetica,sans-Serif" font-size="10.00" fill="#000000">/ResidualRelativeConvergence</text>
<text text-anchor="middle" x="268.5" y="-275.5" font-family="Helvetica,sans-Serif" font-size="10.00" fill="#000000">Measure.cpp</text>
</a>
</g>
</g>
<!-- Node26&#45;&gt;Node35 -->
<g id="edge12" class="edge">
<title>Node26&#45;&gt;Node35</title>
<path fill="none" stroke="#191970" d="M1703.5254,-433.1538C1389.7014,-429.6069 246.5815,-414.8608 220.5,-388 198.8108,-365.6626 224.2011,-331.6348 245.5112,-309.8595"/>
<polygon fill="#191970" stroke="#191970" points="1703.8561,-436.6576 1713.8948,-433.2703 1703.9348,-429.6581 1703.8561,-436.6576"/>
</g>
<!-- Node37 -->
<g id="node12" class="node">
<title>Node37</title>
<g id="a_node12"><a xlink:href="SerialCouplingScheme_8cpp.html" target="_top" xlink:title="src/cplscheme/SerialCoupling\lScheme.cpp">
<polygon fill="#ffffff" stroke="#000000" points="964.5,-352 964.5,-382 1124.5,-382 1124.5,-352 964.5,-352"/>
<text text-anchor="start" x="972.5" y="-370" font-family="Helvetica,sans-Serif" font-size="10.00" fill="#000000">src/cplscheme/SerialCoupling</text>
<text text-anchor="middle" x="1044.5" y="-359" font-family="Helvetica,sans-Serif" font-size="10.00" fill="#000000">Scheme.cpp</text>
</a>
</g>
</g>
<!-- Node26&#45;&gt;Node37 -->
<g id="edge13" class="edge">
<title>Node26&#45;&gt;Node37</title>
<path fill="none" stroke="#191970" d="M1703.6434,-432.1348C1581.8348,-428.4068 1340.8275,-417.6588 1138.5,-388 1127.8285,-386.4357 1116.5673,-384.3266 1105.691,-382.0464"/>
<polygon fill="#191970" stroke="#191970" points="1703.8865,-435.6435 1713.9864,-432.4432 1704.0951,-428.6466 1703.8865,-435.6435"/>
</g>
<!-- Node38 -->
<g id="node13" class="node">
<title>Node38</title>
<g id="a_node13"><a xlink:href="NearestProjectionMapping_8cpp.html" target="_top" xlink:title="src/mapping/NearestProjection\lMapping.cpp">
<polygon fill="#ffffff" stroke="#000000" points="4722,-67.5 4722,-97.5 4889,-97.5 4889,-67.5 4722,-67.5"/>
<text text-anchor="start" x="4730" y="-85.5" font-family="Helvetica,sans-Serif" font-size="10.00" fill="#000000">src/mapping/NearestProjection</text>
<text text-anchor="middle" x="4805.5" y="-74.5" font-family="Helvetica,sans-Serif" font-size="10.00" fill="#000000">Mapping.cpp</text>
</a>
</g>
</g>
<!-- Node26&#45;&gt;Node38 -->
<g id="edge14" class="edge">
<title>Node26&#45;&gt;Node38</title>
<path fill="none" stroke="#191970" d="M1861.435,-433.4842C2265.4026,-430.7234 4092.2459,-416.7335 4343.5,-388 4553.4303,-363.9923 4808.5,-500.2986 4808.5,-289 4808.5,-289 4808.5,-289 4808.5,-211 4808.5,-169.9402 4806.9502,-121.5206 4806.0784,-97.5324"/>
<polygon fill="#191970" stroke="#191970" points="1861.2851,-429.985 1851.3091,-433.5531 1861.3327,-436.9849 1861.2851,-429.985"/>
</g>
<!-- Node39 -->
<g id="node14" class="node">
<title>Node39</title>
<g id="a_node14"><a xlink:href="barycenter_8cpp.html" target="_top" xlink:title="src/math/barycenter.cpp">
<polygon fill="#ffffff" stroke="#000000" points="2188.5,-201.5 2188.5,-220.5 2322.5,-220.5 2322.5,-201.5 2188.5,-201.5"/>
<text text-anchor="middle" x="2255.5" y="-208.5" font-family="Helvetica,sans-Serif" font-size="10.00" fill="#000000">src/math/barycenter.cpp</text>
</a>
</g>
</g>
<!-- Node26&#45;&gt;Node39 -->
<g id="edge15" class="edge">
<title>Node26&#45;&gt;Node39</title>
<path fill="none" stroke="#191970" d="M1861.5843,-430.1814C1947.3836,-424.8353 2077.8363,-412.8393 2120.5,-388 2138.7024,-377.4024 2223.8003,-256.5007 2248.6626,-220.8416"/>
<polygon fill="#191970" stroke="#191970" points="1861.1214,-426.7029 1851.3512,-430.8008 1861.5444,-433.6901 1861.1214,-426.7029"/>
</g>
<!-- Node40 -->
<g id="node15" class="node">
<title>Node40</title>
<g id="a_node15"><a xlink:href="geometry_8hpp.html" target="_top" xlink:title="src/math/geometry.hpp">
<polygon fill="#ffffff" stroke="#000000" points="1982,-357.5 1982,-376.5 2111,-376.5 2111,-357.5 1982,-357.5"/>
<text text-anchor="middle" x="2046.5" y="-364.5" font-family="Helvetica,sans-Serif" font-size="10.00" fill="#000000">src/math/geometry.hpp</text>
</a>
</g>
</g>
<!-- Node26&#45;&gt;Node40 -->
<g id="edge16" class="edge">
<title>Node26&#45;&gt;Node40</title>
<path fill="none" stroke="#191970" d="M1829.8681,-421.9785C1881.0355,-408.9929 1961.5394,-388.562 2008.6577,-376.6039"/>
<polygon fill="#191970" stroke="#191970" points="1828.8761,-418.6193 1820.0444,-424.4717 1830.5981,-425.4042 1828.8761,-418.6193"/>
</g>
<!-- Node42 -->
<g id="node17" class="node">
<title>Node42</title>
<g id="a_node17"><a xlink:href="BarycenterTest_8cpp.html" target="_top" xlink:title="src/math/tests/Barycenter\lTest.cpp">
<polygon fill="#ffffff" stroke="#000000" points="1875,-196 1875,-226 2018,-226 2018,-196 1875,-196"/>
<text text-anchor="start" x="1883" y="-214" font-family="Helvetica,sans-Serif" font-size="10.00" fill="#000000">src/math/tests/Barycenter</text>
<text text-anchor="middle" x="1946.5" y="-203" font-family="Helvetica,sans-Serif" font-size="10.00" fill="#000000">Test.cpp</text>
</a>
</g>
</g>
<!-- Node26&#45;&gt;Node42 -->
<g id="edge48" class="edge">
<title>Node26&#45;&gt;Node42</title>
<path fill="none" stroke="#191970" d="M1795.6608,-416.1046C1827.1024,-373.3517 1906.1388,-265.8814 1935.3887,-226.1087"/>
<polygon fill="#191970" stroke="#191970" points="1792.6519,-414.2883 1789.5469,-424.418 1798.2911,-418.4356 1792.6519,-414.2883"/>
</g>
<!-- Node43 -->
<g id="node18" class="node">
<title>Node43</title>
<g id="a_node18"><a xlink:href="FindClosest_8cpp.html" target="_top" xlink:title="src/query/FindClosest.cpp">
<polygon fill="#ffffff" stroke="#000000" points="2753.5,-134.5 2753.5,-153.5 2893.5,-153.5 2893.5,-134.5 2753.5,-134.5"/>
<text text-anchor="middle" x="2823.5" y="-141.5" font-family="Helvetica,sans-Serif" font-size="10.00" fill="#000000">src/query/FindClosest.cpp</text>
</a>
</g>
</g>
<!-- Node26&#45;&gt;Node43 -->
<g id="edge134" class="edge">
<title>Node26&#45;&gt;Node43</title>
<path fill="none" stroke="#191970" d="M1861.5259,-429.193C1937.0492,-423.4248 2053.6981,-411.4386 2152.5,-388 2253.0324,-364.1508 2300.3152,-384.8885 2371.5,-310 2409.8622,-269.6418 2364.724,-225.6464 2407.5,-190 2433.4916,-168.3405 2641.8577,-153.8488 2753.4714,-147.5599"/>
<polygon fill="#191970" stroke="#191970" points="1860.8606,-425.7327 1851.1483,-429.9661 1861.3807,-432.7134 1860.8606,-425.7327"/>
</g>
<!-- Node44 -->
<g id="node19" class="node">
<title>Node44</title>
<g id="a_node19"><a xlink:href="FindClosestEdge_8cpp.html" target="_top" xlink:title="src/query/FindClosestEdge.cpp">
<polygon fill="#ffffff" stroke="#000000" points="2416.5,-201.5 2416.5,-220.5 2580.5,-220.5 2580.5,-201.5 2416.5,-201.5"/>
<text text-anchor="middle" x="2498.5" y="-208.5" font-family="Helvetica,sans-Serif" font-size="10.00" fill="#000000">src/query/FindClosestEdge.cpp</text>
</a>
</g>
</g>
<!-- Node26&#45;&gt;Node44 -->
<g id="edge135" class="edge">
<title>Node26&#45;&gt;Node44</title>
<path fill="none" stroke="#191970" d="M1861.2012,-432.3938C2018.3975,-428.5796 2360.0236,-417.0259 2404.5,-388 2466.5634,-347.4966 2490.4234,-251.8605 2496.6878,-220.8755"/>
<polygon fill="#191970" stroke="#191970" points="1861.0325,-428.8967 1851.1188,-432.6339 1861.1993,-435.8947 1861.0325,-428.8967"/>
</g>
<!-- Node45 -->
<g id="node20" class="node">
<title>Node45</title>
<g id="a_node20"><a xlink:href="FindClosestTriangle_8cpp.html" target="_top" xlink:title="src/query/FindClosestTriangle.cpp">
<polygon fill="#ffffff" stroke="#000000" points="4335,-134.5 4335,-153.5 4514,-153.5 4514,-134.5 4335,-134.5"/>
<text text-anchor="middle" x="4424.5" y="-141.5" font-family="Helvetica,sans-Serif" font-size="10.00" fill="#000000">src/query/FindClosestTriangle.cpp</text>
</a>
</g>
</g>
<!-- Node26&#45;&gt;Node45 -->
<g id="edge136" class="edge">
<title>Node26&#45;&gt;Node45</title>
<path fill="none" stroke="#191970" d="M1861.3805,-433.6985C2283.24,-431.9474 4255.8321,-421.9528 4308.5,-388 4395.4272,-331.9616 4418.6675,-191.4379 4423.4415,-153.5421"/>
<polygon fill="#191970" stroke="#191970" points="1861.1007,-430.1996 1851.1153,-433.7408 1861.1296,-437.1995 1861.1007,-430.1996"/>
</g>
<!-- Node47 -->
<g id="node22" class="node">
<title>Node47</title>
<g id="a_node22"><a xlink:href="GeometryTest_8cpp.html" target="_top" xlink:title="src/math/tests/GeometryTest.cpp">
<polygon fill="#ffffff" stroke="#000000" points="1564.5,-201.5 1564.5,-220.5 1742.5,-220.5 1742.5,-201.5 1564.5,-201.5"/>
<text text-anchor="middle" x="1653.5" y="-208.5" font-family="Helvetica,sans-Serif" font-size="10.00" fill="#000000">src/math/tests/GeometryTest.cpp</text>
</a>
</g>
</g>
<!-- Node26&#45;&gt;Node47 -->
<g id="edge50" class="edge">
<title>Node26&#45;&gt;Node47</title>
<path fill="none" stroke="#191970" d="M1762.4197,-417.5834C1737.1938,-395.7777 1694.5468,-354.7654 1672.5,-310 1657.5765,-279.6983 1654.3557,-238.8168 1653.6743,-220.5306"/>
<polygon fill="#191970" stroke="#191970" points="1760.3597,-420.4254 1770.2518,-424.2197 1764.885,-415.0847 1760.3597,-420.4254"/>
</g>
<!-- Node49 -->
<g id="node24" class="node">
<title>Node49</title>
<g id="a_node24"><a xlink:href="RTreeAdapterTests_8cpp.html" target="_top" xlink:title="src/mesh/tests/RTreeAdapter\lTests.cpp">
<polygon fill="#ffffff" stroke="#000000" points="2399,-67.5 2399,-97.5 2554,-97.5 2554,-67.5 2399,-67.5"/>
<text text-anchor="start" x="2407" y="-85.5" font-family="Helvetica,sans-Serif" font-size="10.00" fill="#000000">src/mesh/tests/RTreeAdapter</text>
<text text-anchor="middle" x="2476.5" y="-74.5" font-family="Helvetica,sans-Serif" font-size="10.00" fill="#000000">Tests.cpp</text>
</a>
</g>
</g>
<!-- Node26&#45;&gt;Node49 -->
<g id="edge109" class="edge">
<title>Node26&#45;&gt;Node49</title>
<path fill="none" stroke="#191970" d="M1703.808,-429.8153C1619.5961,-424.1694 1492.4513,-411.9326 1450.5,-388 1370.8516,-342.5618 1330.37,-257.4415 1392.5,-190 1460.5326,-116.1511 2161.7166,-90.8472 2398.7187,-84.3677"/>
<polygon fill="#191970" stroke="#191970" points="1703.6495,-433.3123 1713.8564,-430.4715 1704.1057,-426.3272 1703.6495,-433.3123"/>
</g>
<!-- Node51 -->
<g id="node26" class="node">
<title>Node51</title>
<g id="a_node26"><a xlink:href="SolverInterfaceImpl_8cpp.html" target="_top" xlink:title="src/precice/impl/SolverInterface\lImpl.cpp">
<polygon fill="#ffffff" stroke="#000000" points="2472,-.5 2472,-30.5 2643,-30.5 2643,-.5 2472,-.5"/>
<text text-anchor="start" x="2480" y="-18.5" font-family="Helvetica,sans-Serif" font-size="10.00" fill="#000000">src/precice/impl/SolverInterface</text>
<text text-anchor="middle" x="2557.5" y="-7.5" font-family="Helvetica,sans-Serif" font-size="10.00" fill="#000000">Impl.cpp</text>
</a>
</g>
</g>
<!-- Node26&#45;&gt;Node51 -->
<g id="edge133" class="edge">
<title>Node26&#45;&gt;Node51</title>
<path fill="none" stroke="#191970" d="M1703.879,-432.5696C1423.5193,-427.3034 488.1498,-408.247 464.5,-388 430.4658,-358.8627 445.5,-333.803 445.5,-289 445.5,-289 445.5,-289 445.5,-144 445.5,-108.8551 436.2359,-89.1772 463.5,-67 503.0832,-34.8021 2083.6252,-19.4704 2471.9873,-16.1848"/>
<polygon fill="#191970" stroke="#191970" points="1703.9061,-436.0706 1713.9699,-432.7585 1704.0372,-429.0719 1703.9061,-436.0706"/>
</g>
<!-- Node52 -->
<g id="node27" class="node">
<title>Node52</title>
<g id="a_node27"><a xlink:href="math_8hpp.html" target="_top" xlink:title="src/math/math.hpp">
<polygon fill="#ffffff" stroke="#000000" points="1181,-357.5 1181,-376.5 1290,-376.5 1290,-357.5 1181,-357.5"/>
<text text-anchor="middle" x="1235.5" y="-364.5" font-family="Helvetica,sans-Serif" font-size="10.00" fill="#000000">src/math/math.hpp</text>
</a>
</g>
</g>
<!-- Node26&#45;&gt;Node52 -->
<g id="edge30" class="edge">
<title>Node26&#45;&gt;Node52</title>
<path fill="none" stroke="#191970" d="M1703.6668,-428.8434C1612.9993,-422.2541 1459.8653,-409.1047 1329.5,-388 1310.8473,-384.9803 1290.3465,-380.5348 1273.2635,-376.5106"/>
<polygon fill="#191970" stroke="#191970" points="1703.6413,-432.3505 1713.8664,-429.5761 1704.1429,-425.3685 1703.6413,-432.3505"/>
</g>
<!-- Node61 -->
<g id="node31" class="node">
<title>Node61</title>
<g id="a_node31"><a xlink:href="Testing_8hpp.html" target="_top" xlink:title="src/testing/Testing.hpp">
<polygon fill="#ffffff" stroke="#ff0000" points="1719.5,-279.5 1719.5,-298.5 1845.5,-298.5 1845.5,-279.5 1719.5,-279.5"/>
<text text-anchor="middle" x="1782.5" y="-286.5" font-family="Helvetica,sans-Serif" font-size="10.00" fill="#000000">src/testing/Testing.hpp</text>
</a>
</g>
</g>
<!-- Node26&#45;&gt;Node61 -->
<g id="edge137" class="edge">
<title>Node26&#45;&gt;Node61</title>
<path fill="none" stroke="#191970" d="M1782.5,-414.3268C1782.5,-382.8513 1782.5,-322.3195 1782.5,-298.739"/>
<polygon fill="#191970" stroke="#191970" points="1779.0001,-414.4861 1782.5,-424.4861 1786.0001,-414.4862 1779.0001,-414.4861"/>
</g>
<!-- Node92 -->
<g id="node32" class="node">
<title>Node92</title>
<g id="a_node32"><a xlink:href="DifferencesTest_8cpp.html" target="_top" xlink:title="src/math/tests/Differences\lTest.cpp">
<polygon fill="#ffffff" stroke="#000000" points="1401,-196 1401,-226 1546,-226 1546,-196 1401,-196"/>
<text text-anchor="start" x="1409" y="-214" font-family="Helvetica,sans-Serif" font-size="10.00" fill="#000000">src/math/tests/Differences</text>
<text text-anchor="middle" x="1473.5" y="-203" font-family="Helvetica,sans-Serif" font-size="10.00" fill="#000000">Test.cpp</text>
</a>
</g>
</g>
<!-- Node26&#45;&gt;Node92 -->
<g id="edge49" class="edge">
<title>Node26&#45;&gt;Node92</title>
<path fill="none" stroke="#191970" d="M1718.8524,-422.6104C1620.3507,-403.5433 1438.3474,-362.077 1400.5,-310 1389.5259,-294.8999 1392.3147,-284.7763 1400.5,-268 1409.3841,-249.7916 1427.207,-235.699 1443.0175,-226.0816"/>
<polygon fill="#191970" stroke="#191970" points="1718.2166,-426.0521 1728.6964,-424.4951 1719.533,-419.177 1718.2166,-426.0521"/>
</g>
<!-- Node121 -->
<g id="node36" class="node">
<title>Node121</title>
<g id="a_node36"><a xlink:href="Edge_8hpp.html" target="_top" xlink:title="src/mesh/Edge.hpp">
<polygon fill="#ffffff" stroke="#ff0000" points="3441,-279.5 3441,-298.5 3550,-298.5 3550,-279.5 3441,-279.5"/>
<text text-anchor="middle" x="3495.5" y="-286.5" font-family="Helvetica,sans-Serif" font-size="10.00" fill="#000000">src/mesh/Edge.hpp</text>
</a>
</g>
</g>
<!-- Node26&#45;&gt;Node121 -->
<g id="edge51" class="edge">
<title>Node26&#45;&gt;Node121</title>
<path fill="none" stroke="#191970" d="M1861.3329,-432.1915C2022.559,-428.0374 2401.5266,-415.9397 2718.5,-388 2990.4383,-364.0299 3313.6863,-316.7747 3440.5468,-297.4939"/>
<polygon fill="#191970" stroke="#191970" points="1860.9387,-428.7003 1851.0311,-432.4537 1861.1169,-435.698 1860.9387,-428.7003"/>
</g>
<!-- Node127 -->
<g id="node42" class="node">
<title>Node127</title>
<g id="a_node42"><a xlink:href="Edge_8cpp.html" target="_top" xlink:title="src/mesh/Edge.cpp">
<polygon fill="#ffffff" stroke="#000000" points="3116.5,-201.5 3116.5,-220.5 3224.5,-220.5 3224.5,-201.5 3116.5,-201.5"/>
<text text-anchor="middle" x="3170.5" y="-208.5" font-family="Helvetica,sans-Serif" font-size="10.00" fill="#000000">src/mesh/Edge.cpp</text>
</a>
</g>
</g>
<!-- Node26&#45;&gt;Node127 -->
<g id="edge107" class="edge">
<title>Node26&#45;&gt;Node127</title>
<path fill="none" stroke="#191970" d="M1861.499,-432.5109C1985.1822,-429.2705 2231.7878,-419.1461 2438.5,-388 2740.4023,-342.5113 2813.6968,-315.0295 3107.5,-232 3119.4822,-228.6138 3132.567,-224.3472 3143.6916,-220.5456"/>
<polygon fill="#191970" stroke="#191970" points="1861.2708,-429.0155 1851.3629,-432.7682 1861.4485,-436.0132 1861.2708,-429.0155"/>
</g>
<!-- Node217 -->
<g id="node48" class="node">
<title>Node217</title>
<g id="a_node48"><a xlink:href="Triangle_8hpp.html" target="_top" xlink:title="src/mesh/Triangle.hpp">
<polygon fill="#ffffff" stroke="#ff0000" points="3965,-201.5 3965,-220.5 4088,-220.5 4088,-201.5 3965,-201.5"/>
<text text-anchor="middle" x="4026.5" y="-208.5" font-family="Helvetica,sans-Serif" font-size="10.00" fill="#000000">src/mesh/Triangle.hpp</text>
</a>
</g>
</g>
<!-- Node26&#45;&gt;Node217 -->
<g id="edge108" class="edge">
<title>Node26&#45;&gt;Node217</title>
<path fill="none" stroke="#191970" d="M1861.6144,-433.2917C2284.5969,-429.4148 4260.7757,-410.1277 4282.5,-388 4319.8639,-349.9423 4315.8635,-309.6091 4282.5,-268 4258.6092,-238.2048 4156.1063,-222.9827 4088.2745,-216.0286"/>
<polygon fill="#191970" stroke="#191970" points="1861.2891,-429.7945 1851.3215,-433.3859 1861.3531,-436.7942 1861.2891,-429.7945"/>
</g>
<!-- Node218 -->
<g id="node49" class="node">
<title>Node218</title>
<g id="a_node49"><a xlink:href="Triangle_8cpp.html" target="_top" xlink:title="src/mesh/Triangle.cpp">
<polygon fill="#ffffff" stroke="#000000" points="3852.5,-134.5 3852.5,-153.5 3974.5,-153.5 3974.5,-134.5 3852.5,-134.5"/>
<text text-anchor="middle" x="3913.5" y="-141.5" font-family="Helvetica,sans-Serif" font-size="10.00" fill="#000000">src/mesh/Triangle.cpp</text>
</a>
</g>
</g>
<!-- Node26&#45;&gt;Node218 -->
<g id="edge110" class="edge">
<title>Node26&#45;&gt;Node218</title>
<path fill="none" stroke="#191970" d="M1861.5306,-433.1531C2228.5869,-429.1007 3751.0271,-410.9368 3794.5,-388 3868.1993,-349.1154 3869.1266,-309.9795 3898.5,-232 3908.7707,-204.7337 3912.0459,-170.0558 3913.0612,-153.557"/>
<polygon fill="#191970" stroke="#191970" points="1861.2286,-429.6561 1851.2677,-433.266 1861.3057,-436.6557 1861.2286,-429.6561"/>
</g>
<!-- Node219 -->
<g id="node50" class="node">
<title>Node219</title>
<g id="a_node50"><a xlink:href="Vertex_8hpp.html" target="_top" xlink:title="src/mesh/Vertex.hpp">
<polygon fill="#ffffff" stroke="#ff0000" points="3669.5,-357.5 3669.5,-376.5 3785.5,-376.5 3785.5,-357.5 3669.5,-357.5"/>
<text text-anchor="middle" x="3727.5" y="-364.5" font-family="Helvetica,sans-Serif" font-size="10.00" fill="#000000">src/mesh/Vertex.hpp</text>
</a>
</g>
</g>
<!-- Node26&#45;&gt;Node219 -->
<g id="edge111" class="edge">
<title>Node26&#45;&gt;Node219</title>
<path fill="none" stroke="#191970" d="M1861.2461,-431.3547C2069.1472,-424.3628 2650.0008,-404.778 3133.5,-388 3329.9576,-381.1827 3562.9557,-372.8828 3669.3243,-369.0819"/>
<polygon fill="#191970" stroke="#191970" points="1860.9146,-427.8637 1851.0379,-431.6979 1861.15,-434.8598 1860.9146,-427.8637"/>
</g>
<!-- Node31 -->
<g id="node6" class="node">
<title>Node31</title>
<g id="a_node6"><a xlink:href="CouplingSchemeConfiguration_8cpp.html" target="_top" xlink:title="src/cplscheme/config\l/CouplingSchemeConfiguration.cpp">
<polygon fill="#ffffff" stroke="#000000" points="473,-67.5 473,-97.5 660,-97.5 660,-67.5 473,-67.5"/>
<text text-anchor="start" x="481" y="-85.5" font-family="Helvetica,sans-Serif" font-size="10.00" fill="#000000">src/cplscheme/config</text>
<text text-anchor="middle" x="566.5" y="-74.5" font-family="Helvetica,sans-Serif" font-size="10.00" fill="#000000">/CouplingSchemeConfiguration.cpp</text>
</a>
</g>
</g>
<!-- Node30&#45;&gt;Node31 -->
<g id="edge5" class="edge">
<title>Node30&#45;&gt;Node31</title>
<path fill="none" stroke="#191970" d="M666.0334,-271.2527C628.5616,-260.9193 589.0363,-246.9937 577.5,-232 546.712,-191.9851 556.27,-126.763 562.7055,-97.518"/>
<polygon fill="#191970" stroke="#191970" points="665.4425,-274.7181 676.0084,-273.9351 667.2604,-267.9583 665.4425,-274.7181"/>
</g>
<!-- Node32 -->
<g id="node7" class="node">
<title>Node32</title>
<g id="a_node7"><a xlink:href="RelativeConvergenceMeasure_8cpp.html" target="_top" xlink:title="src/cplscheme/impl\l/RelativeConvergenceMeasure.cpp">
<polygon fill="#ffffff" stroke="#000000" points="587,-196 587,-226 772,-226 772,-196 587,-196"/>
<text text-anchor="start" x="595" y="-214" font-family="Helvetica,sans-Serif" font-size="10.00" fill="#000000">src/cplscheme/impl</text>
<text text-anchor="middle" x="679.5" y="-203" font-family="Helvetica,sans-Serif" font-size="10.00" fill="#000000">/RelativeConvergenceMeasure.cpp</text>
</a>
</g>
</g>
<!-- Node30&#45;&gt;Node32 -->
<g id="edge6" class="edge">
<title>Node30&#45;&gt;Node32</title>
<path fill="none" stroke="#191970" d="M723.9324,-266.0116C713.576,-253.1894 700.9627,-237.5729 691.8247,-226.2592"/>
<polygon fill="#191970" stroke="#191970" points="721.3468,-268.3806 730.353,-273.9608 726.7924,-263.9822 721.3468,-268.3806"/>
</g>
<!-- Node33 -->
<g id="node8" class="node">
<title>Node33</title>
<g id="a_node8"><a xlink:href="RelativeConvergenceMeasureTest_8cpp.html" target="_top" xlink:title="src/cplscheme/tests\l/RelativeConvergenceMeasure\lTest.cpp">
<polygon fill="#ffffff" stroke="#000000" points="1142.5,-190.5 1142.5,-231.5 1306.5,-231.5 1306.5,-190.5 1142.5,-190.5"/>
<text text-anchor="start" x="1150.5" y="-219.5" font-family="Helvetica,sans-Serif" font-size="10.00" fill="#000000">src/cplscheme/tests</text>
<text text-anchor="start" x="1150.5" y="-208.5" font-family="Helvetica,sans-Serif" font-size="10.00" fill="#000000">/RelativeConvergenceMeasure</text>
<text text-anchor="middle" x="1224.5" y="-197.5" font-family="Helvetica,sans-Serif" font-size="10.00" fill="#000000">Test.cpp</text>
</a>
</g>
</g>
<!-- Node30&#45;&gt;Node33 -->
<g id="edge7" class="edge">
<title>Node30&#45;&gt;Node33</title>
<path fill="none" stroke="#191970" d="M845.3884,-273.3608C857.5579,-271.5391 869.8041,-269.7189 881.5,-268 993.4347,-251.5494 1022.2799,-252.7387 1133.5,-232 1136.369,-231.465 1139.2845,-230.9015 1142.2257,-230.316"/>
<polygon fill="#191970" stroke="#191970" points="844.5681,-269.9446 835.1978,-274.8892 845.6064,-276.8672 844.5681,-269.9446"/>
</g>
<!-- Node34&#45;&gt;Node31 -->
<g id="edge9" class="edge">
<title>Node34&#45;&gt;Node31</title>
<path fill="none" stroke="#191970" d="M552.2634,-336.0905C548.2156,-291.306 542.9058,-205.8665 552.5,-134 554.1674,-121.5098 558.0144,-107.7558 561.2545,-97.6058"/>
<polygon fill="#191970" stroke="#191970" points="548.8037,-336.6827 553.2299,-346.3087 555.7726,-336.0235 548.8037,-336.6827"/>
</g>
<!-- Node34&#45;&gt;Node35 -->
<g id="edge10" class="edge">
<title>Node34&#45;&gt;Node35</title>
<path fill="none" stroke="#191970" d="M469.9905,-343.7605C430.0314,-332.9005 382.8599,-320.0804 344.2079,-309.5757"/>
<polygon fill="#191970" stroke="#191970" points="469.1508,-347.1592 479.7187,-346.4044 470.9867,-340.4042 469.1508,-347.1592"/>
</g>
<!-- Node36 -->
<g id="node11" class="node">
<title>Node36</title>
<g id="a_node11"><a xlink:href="ResidualRelativeConvergenceMeasureTest_8cpp.html" target="_top" xlink:title="src/cplscheme/tests\l/ResidualRelativeConvergence\lMeasureTest.cpp">
<polygon fill="#ffffff" stroke="#000000" points="960.5,-190.5 960.5,-231.5 1124.5,-231.5 1124.5,-190.5 960.5,-190.5"/>
<text text-anchor="start" x="968.5" y="-219.5" font-family="Helvetica,sans-Serif" font-size="10.00" fill="#000000">src/cplscheme/tests</text>
<text text-anchor="start" x="968.5" y="-208.5" font-family="Helvetica,sans-Serif" font-size="10.00" fill="#000000">/ResidualRelativeConvergence</text>
<text text-anchor="middle" x="1042.5" y="-197.5" font-family="Helvetica,sans-Serif" font-size="10.00" fill="#000000">MeasureTest.cpp</text>
</a>
</g>
</g>
<!-- Node34&#45;&gt;Node36 -->
<g id="edge11" class="edge">
<title>Node34&#45;&gt;Node36</title>
<path fill="none" stroke="#191970" d="M572.2172,-337.5508C587.0076,-314.4886 610.8285,-283.7613 640.5,-268 763.3841,-202.7246 814.3847,-255.6809 951.5,-232 954.3759,-231.5033 957.2973,-230.9726 960.2435,-230.4152"/>
<polygon fill="#191970" stroke="#191970" points="569.1026,-335.9325 566.8121,-346.2768 575.0535,-339.6187 569.1026,-335.9325"/>
</g>
<!-- Node40&#45;&gt;Node39 -->
<g id="edge17" class="edge">
<title>Node40&#45;&gt;Node39</title>
<path fill="none" stroke="#191970" d="M2071.9614,-352.3121C2090.3743,-341.3494 2115.5868,-325.6261 2136.5,-310 2159.2082,-293.0326 2162.776,-286.2105 2184.5,-268 2204.8515,-250.94 2229.0688,-231.7234 2243.3134,-220.5279"/>
<polygon fill="#191970" stroke="#191970" points="2070.1028,-349.3448 2063.2647,-357.4375 2073.657,-355.3754 2070.1028,-349.3448"/>
</g>
<!-- Node41 -->
<g id="node16" class="node">
<title>Node41</title>
<g id="a_node16"><a xlink:href="barycenter_8hpp.html" target="_top" xlink:title="src/math/barycenter.hpp">
<polygon fill="#ffffff" stroke="#000000" points="2227,-279.5 2227,-298.5 2362,-298.5 2362,-279.5 2227,-279.5"/>
<text text-anchor="middle" x="2294.5" y="-286.5" font-family="Helvetica,sans-Serif" font-size="10.00" fill="#000000">src/math/barycenter.hpp</text>
</a>
</g>
</g>
<!-- Node40&#45;&gt;Node41 -->
<g id="edge18" class="edge">
<title>Node40&#45;&gt;Node41</title>
<path fill="none" stroke="#191970" d="M2086.6656,-354.3673C2136.306,-338.7546 2219.6596,-312.5385 2264.2299,-298.5204"/>
<polygon fill="#191970" stroke="#191970" points="2085.3989,-351.0966 2076.9097,-357.4357 2087.4991,-357.7741 2085.3989,-351.0966"/>
</g>
<!-- Node46 -->
<g id="node21" class="node">
<title>Node46</title>
<g id="a_node21"><a xlink:href="geometry_8cpp.html" target="_top" xlink:title="src/math/geometry.cpp">
<polygon fill="#ffffff" stroke="#000000" points="1409.5,-279.5 1409.5,-298.5 1537.5,-298.5 1537.5,-279.5 1409.5,-279.5"/>
<text text-anchor="middle" x="1473.5" y="-286.5" font-family="Helvetica,sans-Serif" font-size="10.00" fill="#000000">src/math/geometry.cpp</text>
</a>
</g>
</g>
<!-- Node40&#45;&gt;Node46 -->
<g id="edge24" class="edge">
<title>Node40&#45;&gt;Node46</title>
<path fill="none" stroke="#191970" d="M1971.925,-361.8784C1874.5829,-354.4035 1699.2146,-338.2278 1551.5,-310 1535.9347,-307.0255 1518.9132,-302.5853 1504.7537,-298.5529"/>
<polygon fill="#191970" stroke="#191970" points="1971.7258,-365.3733 1981.9618,-362.6395 1972.2551,-358.3933 1971.7258,-365.3733"/>
</g>
<!-- Node40&#45;&gt;Node47 -->
<g id="edge25" class="edge">
<title>Node40&#45;&gt;Node47</title>
<path fill="none" stroke="#191970" d="M1971.5952,-361.7021C1885.7747,-354.3705 1751.677,-338.6703 1710.5,-310 1678.4361,-287.6749 1661.9664,-241.0839 1656.078,-220.7941"/>
<polygon fill="#191970" stroke="#191970" points="1971.5558,-365.2109 1981.8123,-362.5551 1972.1382,-358.2352 1971.5558,-365.2109"/>
</g>
<!-- Node48 -->
<g id="node23" class="node">
<title>Node48</title>
<g id="a_node23"><a xlink:href="Mesh_8cpp.html" target="_top" xlink:title="src/mesh/Mesh.cpp">
<polygon fill="#ffffff" stroke="#000000" points="3058.5,-73 3058.5,-92 3168.5,-92 3168.5,-73 3058.5,-73"/>
<text text-anchor="middle" x="3113.5" y="-80" font-family="Helvetica,sans-Serif" font-size="10.00" fill="#000000">src/mesh/Mesh.cpp</text>
</a>
</g>
</g>
<!-- Node40&#45;&gt;Node48 -->
<g id="edge26" class="edge">
<title>Node40&#45;&gt;Node48</title>
<path fill="none" stroke="#191970" d="M2059.0196,-348.6867C2088.7823,-305.4003 2162.5464,-199.6679 2179.5,-190 2341.0886,-97.8534 2827.0651,-122.2004 3011.5,-98 3026.6843,-96.0076 3043.1036,-93.6171 3058.2392,-91.3167"/>
<polygon fill="#191970" stroke="#191970" points="2055.9888,-346.9176 2053.2186,-357.1439 2061.7614,-350.8771 2055.9888,-346.9176"/>
</g>
<!-- Node40&#45;&gt;Node49 -->
<g id="edge27" class="edge">
<title>Node40&#45;&gt;Node49</title>
<path fill="none" stroke="#191970" d="M2042.7994,-347.3165C2037.2501,-311.3122 2031.2342,-234.4667 2070.5,-190 2113.5146,-141.2879 2293.4643,-108.2932 2398.802,-92.7448"/>
<polygon fill="#191970" stroke="#191970" points="2039.4004,-348.2063 2044.5268,-357.4784 2046.3014,-347.0332 2039.4004,-348.2063"/>
</g>
<!-- Node50 -->
<g id="node25" class="node">
<title>Node50</title>
<g id="a_node25"><a xlink:href="RTreeTests_8cpp.html" target="_top" xlink:title="src/mesh/tests/RTreeTests.cpp">
<polygon fill="#ffffff" stroke="#000000" points="2840.5,-73 2840.5,-92 3002.5,-92 3002.5,-73 2840.5,-73"/>
<text text-anchor="middle" x="2921.5" y="-80" font-family="Helvetica,sans-Serif" font-size="10.00" fill="#000000">src/mesh/tests/RTreeTests.cpp</text>
</a>
</g>
</g>
<!-- Node40&#45;&gt;Node50 -->
<g id="edge28" class="edge">
<title>Node40&#45;&gt;Node50</title>
<path fill="none" stroke="#191970" d="M2051.1212,-347.4408C2063.3957,-300.4648 2101.6952,-181.651 2184.5,-134 2212.5531,-117.8565 2654.6652,-95.1485 2840.359,-86.268"/>
<polygon fill="#191970" stroke="#191970" points="2047.6913,-346.7297 2048.6613,-357.28 2054.4823,-348.4275 2047.6913,-346.7297"/>
</g>
<!-- Node40&#45;&gt;Node51 -->
<g id="edge29" class="edge">
<title>Node40&#45;&gt;Node51</title>
<path fill="none" stroke="#191970" d="M1972.0355,-359.4396C1896.0332,-350.8412 1775.0094,-334.7055 1672.5,-310 1615.1139,-296.1696 1603.3,-284.0688 1546.5,-268 1478.8647,-248.8659 1436.1807,-287.0694 1392.5,-232 1380.8998,-217.3754 1382.648,-205.8551 1392.5,-190 1457.6457,-85.1592 1522.1369,-98.4326 1641.5,-67 1720.3911,-46.2251 2259.6797,-25.7181 2471.9327,-18.3558"/>
<polygon fill="#191970" stroke="#191970" points="1971.6677,-362.9202 1981.9945,-360.5523 1972.445,-355.9635 1971.6677,-362.9202"/>
</g>
<!-- Node41&#45;&gt;Node39 -->
<g id="edge19" class="edge">
<title>Node41&#45;&gt;Node39</title>
<path fill="none" stroke="#191970" d="M2285.093,-270.186C2277.2794,-254.5589 2266.4811,-232.9623 2260.3213,-220.6426"/>
<polygon fill="#191970" stroke="#191970" points="2282.1151,-272.0567 2289.7178,-279.4357 2288.3761,-268.9261 2282.1151,-272.0567"/>
</g>
<!-- Node41&#45;&gt;Node42 -->
<g id="edge20" class="edge">
<title>Node41&#45;&gt;Node42</title>
<path fill="none" stroke="#191970" d="M2242.0297,-277.2394C2181.0692,-263.5759 2080.3547,-241.0019 2013.7139,-226.0652"/>
<polygon fill="#191970" stroke="#191970" points="2241.305,-280.6637 2251.8284,-279.4357 2242.836,-273.8332 2241.305,-280.6637"/>
</g>
<!-- Node41&#45;&gt;Node43 -->
<g id="edge21" class="edge">
<title>Node41&#45;&gt;Node43</title>
<path fill="none" stroke="#191970" d="M2306.6082,-270.8535C2324.2796,-244.9703 2356.9371,-199.5177 2374.5,-190 2406.966,-172.4059 2635.0592,-155.7816 2753.0855,-148.2381"/>
<polygon fill="#191970" stroke="#191970" points="2303.531,-269.156 2300.8314,-279.4011 2309.3307,-273.0757 2303.531,-269.156"/>
</g>
<!-- Node41&#45;&gt;Node44 -->
<g id="edge22" class="edge">
<title>Node41&#45;&gt;Node44</title>
<path fill="none" stroke="#191970" d="M2329.0868,-275.7756C2370.0854,-260.0997 2437.397,-234.3629 2473.6004,-220.5204"/>
<polygon fill="#191970" stroke="#191970" points="2327.6049,-272.595 2319.5144,-279.4357 2330.1049,-279.1334 2327.6049,-272.595"/>
</g>
<!-- Node41&#45;&gt;Node45 -->
<g id="edge23" class="edge">
<title>Node41&#45;&gt;Node45</title>
<path fill="none" stroke="#191970" d="M2372.2481,-287.6023C2695.6548,-281.6442 3925.5469,-257.5037 4097.5,-232 4211.192,-215.1375 4341.9419,-172.7087 4397.3919,-153.5962"/>
<polygon fill="#191970" stroke="#191970" points="2371.9698,-284.1068 2362.0359,-287.79 2372.0985,-291.1056 2371.9698,-284.1068"/>
</g>
<!-- Node52&#45;&gt;Node30 -->
<g id="edge32" class="edge">
<title>Node52&#45;&gt;Node30</title>
<path fill="none" stroke="#191970" d="M1198.7196,-354.4475C1188.3944,-351.2966 1177.0931,-348.1924 1166.5,-346 1027.2157,-317.1729 989.0494,-331.8395 848.5,-310 837.3772,-308.2717 825.6455,-306.1999 814.2012,-304.0407"/>
<polygon fill="#191970" stroke="#191970" points="1197.6754,-357.7881 1208.265,-357.4546 1199.7788,-351.1116 1197.6754,-357.7881"/>
</g>
<!-- Node52&#45;&gt;Node46 -->
<g id="edge36" class="edge">
<title>Node52&#45;&gt;Node46</title>
<path fill="none" stroke="#191970" d="M1274.3448,-354.2693C1322.0186,-338.6451 1401.7667,-312.5092 1444.4505,-298.5204"/>
<polygon fill="#191970" stroke="#191970" points="1273.0961,-350.9953 1264.6835,-357.4357 1275.2762,-357.6472 1273.0961,-350.9953"/>
</g>
<!-- Node53 -->
<g id="node28" class="node">
<title>Node53</title>
<g id="a_node28"><a xlink:href="AitkenAcceleration_8cpp.html" target="_top" xlink:title="src/acceleration/AitkenAcceleration.cpp">
<polygon fill="#ffffff" stroke="#000000" points="1106,-279.5 1106,-298.5 1315,-298.5 1315,-279.5 1106,-279.5"/>
<text text-anchor="middle" x="1210.5" y="-286.5" font-family="Helvetica,sans-Serif" font-size="10.00" fill="#000000">src/acceleration/AitkenAcceleration.cpp</text>
</a>
</g>
</g>
<!-- Node52&#45;&gt;Node53 -->
<g id="edge31" class="edge">
<title>Node52&#45;&gt;Node53</title>
<path fill="none" stroke="#191970" d="M1229.3262,-347.7379C1224.3296,-332.1484 1217.5016,-310.845 1213.5906,-298.6426"/>
<polygon fill="#191970" stroke="#191970" points="1226.0493,-348.9811 1232.4345,-357.4357 1232.7152,-346.8446 1226.0493,-348.9811"/>
</g>
<!-- Node54 -->
<g id="node29" class="node">
<title>Node54</title>
<g id="a_node29"><a xlink:href="BasisFunctions_8hpp.html" target="_top" xlink:title="src/mapping/impl/BasisFunctions.hpp">
<polygon fill="#ffffff" stroke="#ff0000" points="891,-279.5 891,-298.5 1088,-298.5 1088,-279.5 891,-279.5"/>
<text text-anchor="middle" x="989.5" y="-286.5" font-family="Helvetica,sans-Serif" font-size="10.00" fill="#000000">src/mapping/impl/BasisFunctions.hpp</text>
</a>
</g>
</g>
<!-- Node52&#45;&gt;Node54 -->
<g id="edge33" class="edge">
<title>Node52&#45;&gt;Node54</title>
<path fill="none" stroke="#191970" d="M1195.6583,-354.3673C1146.4182,-338.7546 1063.7368,-312.5385 1019.526,-298.5204"/>
<polygon fill="#191970" stroke="#191970" points="1194.7454,-357.7495 1205.3356,-357.4357 1196.8611,-351.0769 1194.7454,-357.7495"/>
</g>
<!-- Node56 -->
<g id="node30" class="node">
<title>Node56</title>
<g id="a_node30"><a xlink:href="PetRadialBasisFctMapping_8hpp.html" target="_top" xlink:title="src/mapping/PetRadialBasis\lFctMapping.hpp">
<polygon fill="#ffffff" stroke="#ff0000" points="790.5,-196 790.5,-226 942.5,-226 942.5,-196 790.5,-196"/>
<text text-anchor="start" x="798.5" y="-214" font-family="Helvetica,sans-Serif" font-size="10.00" fill="#000000">src/mapping/PetRadialBasis</text>
<text text-anchor="middle" x="866.5" y="-203" font-family="Helvetica,sans-Serif" font-size="10.00" fill="#000000">FctMapping.hpp</text>
</a>
</g>
</g>
<!-- Node52&#45;&gt;Node56 -->
<g id="edge35" class="edge">
<title>Node52&#45;&gt;Node56</title>
<path fill="none" stroke="#191970" d="M1198.1114,-354.3582C1187.9465,-351.2688 1176.8778,-348.2179 1166.5,-346 1104.0731,-332.6586 927.1938,-354.5779 881.5,-310 859.1024,-288.1494 860.7857,-248.0821 863.7591,-226.218"/>
<polygon fill="#191970" stroke="#191970" points="1197.3268,-357.7801 1207.9159,-357.4309 1199.4203,-351.1004 1197.3268,-357.7801"/>
</g>
<!-- Node52&#45;&gt;Node61 -->
<g id="edge37" class="edge">
<title>Node52&#45;&gt;Node61</title>
<path fill="none" stroke="#191970" d="M1300.4183,-357.7429C1406.1887,-342.6605 1614.3959,-312.971 1719.1461,-298.034"/>
<polygon fill="#191970" stroke="#191970" points="1299.6061,-354.3232 1290.2003,-359.2 1300.5943,-361.2531 1299.6061,-354.3232"/>
</g>
<!-- Node54&#45;&gt;Node56 -->
<g id="edge34" class="edge">
<title>Node54&#45;&gt;Node56</title>
<path fill="none" stroke="#191970" d="M965.8322,-273.9911C944.2025,-260.2747 912.3632,-240.084 890.5991,-226.2824"/>
<polygon fill="#191970" stroke="#191970" points="964.0983,-277.036 974.4178,-279.4357 967.8471,-271.1244 964.0983,-277.036"/>
</g>
<!-- Node61&#45;&gt;Node33 -->
<g id="edge38" class="edge">
<title>Node61&#45;&gt;Node33</title>
<path fill="none" stroke="#191970" d="M1709.2141,-278.7557C1605.2931,-264.2291 1415.6867,-237.725 1306.9702,-222.5281"/>
<polygon fill="#191970" stroke="#191970" points="1708.9162,-282.248 1719.3045,-280.1662 1709.8854,-275.3154 1708.9162,-282.248"/>
</g>
<!-- Node61&#45;&gt;Node36 -->
<g id="edge39" class="edge">
<title>Node61&#45;&gt;Node36</title>
<path fill="none" stroke="#191970" d="M1709.3886,-282.4601C1662.776,-278.299 1601.0894,-272.808 1546.5,-268 1362.9589,-251.8346 1315.4891,-260.7857 1133.5,-232 1130.6173,-231.544 1127.6902,-231.0484 1124.739,-230.5209"/>
<polygon fill="#191970" stroke="#191970" points="1709.1254,-285.9505 1719.3971,-283.3538 1709.748,-278.9782 1709.1254,-285.9505"/>
</g>
<!-- Node61&#45;&gt;Node42 -->
<g id="edge40" class="edge">
<title>Node61&#45;&gt;Node42</title>
<path fill="none" stroke="#191970" d="M1811.7995,-275.0649C1840.7418,-261.2996 1884.8824,-240.3059 1914.6725,-226.1375"/>
<polygon fill="#191970" stroke="#191970" points="1810.137,-271.9798 1802.6096,-279.4357 1813.1436,-278.3013 1810.137,-271.9798"/>
</g>
<!-- Node61&#45;&gt;Node47 -->
<g id="edge42" class="edge">
<title>Node61&#45;&gt;Node47</title>
<path fill="none" stroke="#191970" d="M1757.7968,-274.0632C1731.7754,-258.3293 1691.5687,-234.0183 1669.4473,-220.6426"/>
<polygon fill="#191970" stroke="#191970" points="1756.3138,-277.2565 1766.6821,-279.4357 1759.9357,-271.2664 1756.3138,-277.2565"/>
</g>
<!-- Node61&#45;&gt;Node49 -->
<g id="edge45" class="edge">
<title>Node61&#45;&gt;Node49</title>
<path fill="none" stroke="#191970" d="M1782.3744,-269.3437C1783.3344,-235.6005 1790.6613,-167.0977 1832.5,-134 1854.409,-116.6683 2232.3375,-95.118 2398.819,-86.4152"/>
<polygon fill="#191970" stroke="#191970" points="1778.8746,-269.3111 1782.2522,-279.3531 1785.8741,-269.3966 1778.8746,-269.3111"/>
</g>
<!-- Node61&#45;&gt;Node50 -->
<g id="edge46" class="edge">
<title>Node61&#45;&gt;Node50</title>
<path fill="none" stroke="#191970" d="M1792.8169,-270.5222C1806.5431,-247.7681 1833.0211,-209.719 1866.5,-190 1975.8508,-125.5928 2020.693,-150.6876 2146.5,-134 2278.7542,-116.4572 2669.581,-95.2651 2840.238,-86.5461"/>
<polygon fill="#191970" stroke="#191970" points="1789.7473,-268.8381 1787.7317,-279.2395 1795.7937,-272.3653 1789.7473,-268.8381"/>
</g>
<!-- Node61&#45;&gt;Node92 -->
<g id="edge41" class="edge">
<title>Node61&#45;&gt;Node92</title>
<path fill="none" stroke="#191970" d="M1734.3499,-276.979C1688.3886,-265.4881 1617.1997,-247.6469 1555.5,-232 1547.9503,-230.0854 1540.012,-228.0635 1532.1696,-226.0607"/>
<polygon fill="#191970" stroke="#191970" points="1733.7799,-280.4442 1744.3302,-279.4736 1735.4774,-273.6531 1733.7799,-280.4442"/>
</g>
<!-- Node95 -->
<g id="node33" class="node">
<title>Node95</title>
<g id="a_node33"><a xlink:href="EdgeTest_8cpp.html" target="_top" xlink:title="src/mesh/tests/EdgeTest.cpp">
<polygon fill="#ffffff" stroke="#000000" points="2943,-201.5 2943,-220.5 3098,-220.5 3098,-201.5 2943,-201.5"/>
<text text-anchor="middle" x="3020.5" y="-208.5" font-family="Helvetica,sans-Serif" font-size="10.00" fill="#000000">src/mesh/tests/EdgeTest.cpp</text>
</a>
</g>
</g>
<!-- Node61&#45;&gt;Node95 -->
<g id="edge43" class="edge">
<title>Node61&#45;&gt;Node95</title>
<path fill="none" stroke="#191970" d="M1855.6154,-285.4509C2059.505,-275.4788 2631.6999,-246.9627 2819.5,-232 2860.2458,-228.7536 2905.5329,-224.113 2942.7897,-220.0193"/>
<polygon fill="#191970" stroke="#191970" points="1855.4251,-281.9559 1845.6078,-285.9399 1855.7668,-288.9476 1855.4251,-281.9559"/>
</g>
<!-- Node96 -->
<g id="node34" class="node">
<title>Node96</title>
<g id="a_node34"><a xlink:href="MeshTest_8cpp.html" target="_top" xlink:title="src/mesh/tests/MeshTest.cpp">
<polygon fill="#ffffff" stroke="#000000" points="3689.5,-6 3689.5,-25 3845.5,-25 3845.5,-6 3689.5,-6"/>
<text text-anchor="middle" x="3767.5" y="-13" font-family="Helvetica,sans-Serif" font-size="10.00" fill="#000000">src/mesh/tests/MeshTest.cpp</text>
</a>
</g>
</g>
<!-- Node61&#45;&gt;Node96 -->
<g id="edge44" class="edge">
<title>Node61&#45;&gt;Node96</title>
<path fill="none" stroke="#191970" d="M1778.689,-269.2374C1773.3375,-234.7482 1768.4781,-164.3544 1810.5,-134 2020.8524,17.9473 2131.7609,-86.7529 2390.5,-67 2883.9704,-29.327 3479.117,-18.9103 3689.3564,-16.2997"/>
<polygon fill="#191970" stroke="#191970" points="1775.3019,-270.1907 1780.4557,-279.4475 1782.1994,-268.9972 1775.3019,-270.1907"/>
</g>
<!-- Node97 -->
<g id="node35" class="node">
<title>Node97</title>
<g id="a_node35"><a xlink:href="TriangleTest_8cpp.html" target="_top" xlink:title="src/mesh/tests/TriangleTest.cpp">
<polygon fill="#ffffff" stroke="#000000" points="3272,-134.5 3272,-153.5 3441,-153.5 3441,-134.5 3272,-134.5"/>
<text text-anchor="middle" x="3356.5" y="-141.5" font-family="Helvetica,sans-Serif" font-size="10.00" fill="#000000">src/mesh/tests/TriangleTest.cpp</text>
</a>
</g>
</g>
<!-- Node61&#45;&gt;Node97 -->
<g id="edge47" class="edge">
<title>Node61&#45;&gt;Node97</title>
<path fill="none" stroke="#191970" d="M1835.8927,-277.2406C1885.627,-266.1302 1961.7722,-248.7192 2027.5,-232 2095.424,-214.7221 2110.2459,-200.7734 2179.5,-190 2286.3424,-173.3793 3020.0175,-152.824 3271.8559,-146.18"/>
<polygon fill="#191970" stroke="#191970" points="1835.0009,-273.8534 1826.0017,-279.4449 1836.5236,-280.6858 1835.0009,-273.8534"/>
</g>
<!-- Node121&#45;&gt;Node43 -->
<g id="edge105" class="edge">
<title>Node121&#45;&gt;Node43</title>
<path fill="none" stroke="#191970" d="M3430.7732,-281.144C3385.3274,-273.5433 3324.3638,-259.0331 3276.5,-232 3253.2389,-218.8623 3257.6396,-201.4436 3233.5,-190 3203.5657,-175.8094 3002.7807,-158.106 2893.7103,-149.3776"/>
<polygon fill="#191970" stroke="#191970" points="3430.3778,-284.6252 3440.8058,-282.7524 3431.486,-277.7135 3430.3778,-284.6252"/>
</g>
<!-- Node121&#45;&gt;Node44 -->
<g id="edge106" class="edge">
<title>Node121&#45;&gt;Node44</title>
<path fill="none" stroke="#191970" d="M3430.7973,-286.838C3286.4485,-281.5569 2927.2828,-265.8773 2628.5,-232 2602.6032,-229.0637 2573.9914,-224.5782 2550.2179,-220.5055"/>
<polygon fill="#191970" stroke="#191970" points="3430.6954,-290.3365 3440.8155,-287.2003 3430.9485,-283.341 3430.6954,-290.3365"/>
</g>
<!-- Node121&#45;&gt;Node48 -->
<g id="edge79" class="edge">
<title>Node121&#45;&gt;Node48</title>
<path fill="none" stroke="#191970" d="M3472.3184,-273.641C3456.5321,-262.7574 3435.4982,-247.4059 3418.5,-232 3399.8478,-215.0951 3402.1967,-202.7645 3380.5,-190 3319.544,-154.1386 3290.6895,-181.4228 3225.5,-154 3186.1615,-137.4517 3145.1894,-107.4813 3125.4886,-92.1299"/>
<polygon fill="#191970" stroke="#191970" points="3470.6988,-276.7721 3480.9366,-279.4994 3474.6341,-270.983 3470.6988,-276.7721"/>
</g>
<!-- Node121&#45;&gt;Node49 -->
<g id="edge97" class="edge">
<title>Node121&#45;&gt;Node49</title>
<path fill="none" stroke="#191970" d="M3430.7877,-279.215C3391.8413,-271.1009 3342.5938,-256.7457 3304.5,-232 3283.8827,-218.607 3290.0029,-201.9193 3268.5,-190 3174.9323,-138.1345 3136.2385,-170.2577 3030.5,-154 2973.5896,-145.2498 2959.5345,-141.9009 2902.5,-134 2781.1119,-117.1843 2639.8283,-100.7147 2554.3399,-91.0897"/>
<polygon fill="#191970" stroke="#191970" points="3430.4753,-282.7215 3440.9666,-281.2437 3431.8436,-275.8565 3430.4753,-282.7215"/>
</g>
<!-- Node121&#45;&gt;Node50 -->
<g id="edge98" class="edge">
<title>Node121&#45;&gt;Node50</title>
<path fill="none" stroke="#191970" d="M3453.2149,-276.3682C3423.7703,-266.5822 3384.2474,-251.4237 3352.5,-232 3328.3196,-217.206 3330.1664,-202.033 3304.5,-190 3212.4077,-146.8249 3175.8862,-183.3432 3078.5,-154 3064.52,-149.7877 2980.7438,-110.5072 2941.613,-92.0267"/>
<polygon fill="#191970" stroke="#191970" points="3452.1961,-279.7172 3462.7883,-279.4793 3454.3597,-273.0599 3452.1961,-279.7172"/>
</g>
<!-- Node121&#45;&gt;Node51 -->
<g id="edge102" class="edge">
<title>Node121&#45;&gt;Node51</title>
<path fill="none" stroke="#191970" d="M3460.3485,-275.6573C3436.5184,-265.6664 3405.0197,-250.5535 3380.5,-232 3360.4261,-216.8106 3364.232,-202.7042 3342.5,-190 3279.9487,-153.4334 3252.5181,-176.0518 3183.5,-154 3122.015,-134.3551 3104.8602,-131.19 3049.5,-98 3030.8063,-86.7926 3031.587,-75.4601 3011.5,-67 2947.0757,-39.8663 2756.1647,-25.6834 2643.4703,-19.4801"/>
<polygon fill="#191970" stroke="#191970" points="3459.1424,-278.9454 3469.7232,-279.4908 3461.7919,-272.4662 3459.1424,-278.9454"/>
</g>
<!-- Node121&#45;&gt;Node95 -->
<g id="edge95" class="edge">
<title>Node121&#45;&gt;Node95</title>
<path fill="none" stroke="#191970" d="M3430.8752,-281.3338C3353.6159,-271.7478 3220.5657,-253.9038 3107.5,-232 3090.7202,-228.7493 3072.2976,-224.4149 3056.7421,-220.5283"/>
<polygon fill="#191970" stroke="#191970" points="3430.5841,-284.8243 3440.9373,-282.5746 3431.4409,-277.8769 3430.5841,-284.8243"/>
</g>
<!-- Node121&#45;&gt;Node96 -->
<g id="edge96" class="edge">
<title>Node121&#45;&gt;Node96</title>
<path fill="none" stroke="#191970" d="M3527.7364,-275.3413C3596.8288,-245.7424 3754.0325,-176.537 3767.5,-154 3792.6619,-111.8932 3777.722,-48.9452 3770.6145,-25.11"/>
<polygon fill="#191970" stroke="#191970" points="3526.0307,-272.2639 3518.2094,-279.4107 3528.7804,-278.7012 3526.0307,-272.2639"/>
</g>
<!-- Node121&#45;&gt;Node97 -->
<g id="edge99" class="edge">
<title>Node121&#45;&gt;Node97</title>
<path fill="none" stroke="#191970" d="M3511.5209,-271.5362C3528.8578,-250.4569 3551.6219,-214.762 3532.5,-190 3519.3258,-172.94 3470.1628,-160.9948 3427.1353,-153.5603"/>
<polygon fill="#191970" stroke="#191970" points="3508.6643,-269.4896 3504.7878,-279.3498 3513.9671,-274.0591 3508.6643,-269.4896"/>
</g>
<!-- Node122 -->
<g id="node37" class="node">
<title>Node122</title>
<g id="a_node37"><a xlink:href="ComputeCurvatureAction_8cpp.html" target="_top" xlink:title="src/action/ComputeCurvature\lAction.cpp">
<polygon fill="#ffffff" stroke="#000000" points="4390,-67.5 4390,-97.5 4549,-97.5 4549,-67.5 4390,-67.5"/>
<text text-anchor="start" x="4398" y="-85.5" font-family="Helvetica,sans-Serif" font-size="10.00" fill="#000000">src/action/ComputeCurvature</text>
<text text-anchor="middle" x="4469.5" y="-74.5" font-family="Helvetica,sans-Serif" font-size="10.00" fill="#000000">Action.cpp</text>
</a>
</g>
</g>
<!-- Node121&#45;&gt;Node122 -->
<g id="edge52" class="edge">
<title>Node121&#45;&gt;Node122</title>
<path fill="none" stroke="#191970" d="M3560.2685,-286.3084C3680.3662,-280.6953 3945.4961,-265.3847 4166.5,-232 4186.5735,-228.9677 4510.7688,-169.8131 4523.5,-154 4538.8156,-134.9768 4515.0355,-112.3946 4494.3526,-97.7736"/>
<polygon fill="#191970" stroke="#191970" points="3559.9701,-282.8184 3550.1417,-286.7747 3560.2922,-289.8109 3559.9701,-282.8184"/>
</g>
<!-- Node123 -->
<g id="node38" class="node">
<title>Node123</title>
<g id="a_node38"><a xlink:href="ScaleByAreaAction_8cpp.html" target="_top" xlink:title="src/action/ScaleByAreaAction.cpp">
<polygon fill="#ffffff" stroke="#000000" points="3503,-73 3503,-92 3682,-92 3682,-73 3503,-73"/>
<text text-anchor="middle" x="3592.5" y="-80" font-family="Helvetica,sans-Serif" font-size="10.00" fill="#000000">src/action/ScaleByAreaAction.cpp</text>
</a>
</g>
</g>
<!-- Node121&#45;&gt;Node123 -->
<g id="edge53" class="edge">
<title>Node121&#45;&gt;Node123</title>
<path fill="none" stroke="#191970" d="M3501.9588,-269.5604C3507.9399,-247.5105 3513.3546,-211.7968 3494.5,-190 3425.3881,-110.1035 3194.819,-214.2672 3263.5,-134 3263.5,-134 3436.7103,-106.8865 3531.7729,-92.0059"/>
<polygon fill="#191970" stroke="#191970" points="3498.518,-268.8492 3498.993,-279.4333 3505.222,-270.863 3498.518,-268.8492"/>
</g>
<!-- Node124 -->
<g id="node39" class="node">
<title>Node124</title>
<g id="a_node39"><a xlink:href="CommunicateMesh_8cpp.html" target="_top" xlink:title="src/com/CommunicateMesh.cpp">
<polygon fill="#ffffff" stroke="#000000" points="3312.5,-73 3312.5,-92 3484.5,-92 3484.5,-73 3312.5,-73"/>
<text text-anchor="middle" x="3398.5" y="-80" font-family="Helvetica,sans-Serif" font-size="10.00" fill="#000000">src/com/CommunicateMesh.cpp</text>
</a>
</g>
</g>
<!-- Node121&#45;&gt;Node124 -->
<g id="edge54" class="edge">
<title>Node121&#45;&gt;Node124</title>
<path fill="none" stroke="#191970" d="M3493.4123,-269.1024C3489.9089,-246.3253 3480.6555,-209.6398 3456.5,-190 3383.026,-130.2615 3307.5409,-226.3955 3246.5,-154 3240.7702,-147.2043 3241.3204,-141.2238 3246.5,-134 3259.0827,-116.4515 3312.1506,-101.2736 3352.0659,-92.0288"/>
<polygon fill="#191970" stroke="#191970" points="3489.9789,-269.8418 3494.7397,-279.3067 3496.9204,-268.9387 3489.9789,-269.8418"/>
</g>
<!-- Node125 -->
<g id="node40" class="node">
<title>Node125</title>
<g id="a_node40"><a xlink:href="ExportVTK_8cpp.html" target="_top" xlink:title="src/io/ExportVTK.cpp">
<polygon fill="#ffffff" stroke="#000000" points="4052,-73 4052,-92 4169,-92 4169,-73 4052,-73"/>
<text text-anchor="middle" x="4110.5" y="-80" font-family="Helvetica,sans-Serif" font-size="10.00" fill="#000000">src/io/ExportVTK.cpp</text>
</a>
</g>
</g>
<!-- Node121&#45;&gt;Node125 -->
<g id="edge55" class="edge">
<title>Node121&#45;&gt;Node125</title>
<path fill="none" stroke="#191970" d="M3560.3177,-287.4636C3708.1162,-283.3186 4060.2191,-269.5677 4097.5,-232 4135.6709,-193.5354 4120.3961,-118.8824 4113.3261,-92.2398"/>
<polygon fill="#191970" stroke="#191970" points="3559.9367,-283.9727 3550.0365,-287.7457 3560.1287,-290.97 3559.9367,-283.9727"/>
</g>
<!-- Node126 -->
<g id="node41" class="node">
<title>Node126</title>
<g id="a_node41"><a xlink:href="ExportVTKXML_8cpp.html" target="_top" xlink:title="src/io/ExportVTKXML.cpp">
<polygon fill="#ffffff" stroke="#000000" points="4567,-73 4567,-92 4704,-92 4704,-73 4567,-73"/>
<text text-anchor="middle" x="4635.5" y="-80" font-family="Helvetica,sans-Serif" font-size="10.00" fill="#000000">src/io/ExportVTKXML.cpp</text>
</a>
</g>
</g>
<!-- Node121&#45;&gt;Node126 -->
<g id="edge56" class="edge">
<title>Node121&#45;&gt;Node126</title>
<path fill="none" stroke="#191970" d="M3560.5346,-286.2514C3724.0922,-279.0296 4149.3922,-258.2524 4288.5,-232 4403.2916,-210.3366 4435.3874,-206.981 4539.5,-154 4573.5789,-136.6579 4608.2631,-107.308 4625.0773,-92.1705"/>
<polygon fill="#191970" stroke="#191970" points="3559.9826,-282.7722 3550.1457,-286.7074 3560.2896,-289.7654 3559.9826,-282.7722"/>
</g>
<!-- Node121&#45;&gt;Node127 -->
<g id="edge57" class="edge">
<title>Node121&#45;&gt;Node127</title>
<path fill="none" stroke="#191970" d="M3436.8019,-277.3979C3384.4982,-266.7238 3306.0113,-249.8796 3238.5,-232 3225.6006,-228.5837 3211.4825,-224.3124 3199.4698,-220.5155"/>
<polygon fill="#191970" stroke="#191970" points="3436.406,-280.8889 3446.9025,-279.4489 3437.7991,-274.0289 3436.406,-280.8889"/>
</g>
<!-- Node128 -->
<g id="node43" class="node">
<title>Node128</title>
<g id="a_node43"><a xlink:href="RTreeAdapter_8hpp.html" target="_top" xlink:title="src/mesh/impl/RTreeAdapter.hpp">
<polygon fill="#ffffff" stroke="#ff0000" points="2637,-201.5 2637,-220.5 2810,-220.5 2810,-201.5 2637,-201.5"/>
<text text-anchor="middle" x="2723.5" y="-208.5" font-family="Helvetica,sans-Serif" font-size="10.00" fill="#000000">src/mesh/impl/RTreeAdapter.hpp</text>
</a>
</g>
</g>
<!-- Node121&#45;&gt;Node128 -->
<g id="edge58" class="edge">
<title>Node121&#45;&gt;Node128</title>
<path fill="none" stroke="#191970" d="M3430.8609,-282.4691C3292.2902,-268.4684 2966.5559,-235.5575 2810.2121,-219.7611"/>
<polygon fill="#191970" stroke="#191970" points="3430.6057,-285.9611 3440.9069,-283.4841 3431.3094,-278.9965 3430.6057,-285.9611"/>
</g>
<!-- Node134 -->
<g id="node44" class="node">
<title>Node134</title>
<g id="a_node44"><a xlink:href="Mesh_8hpp.html" target="_top" xlink:title="src/mesh/Mesh.hpp">
<polygon fill="#ffffff" stroke="#ff0000" points="3648.5,-134.5 3648.5,-153.5 3758.5,-153.5 3758.5,-134.5 3648.5,-134.5"/>
<text text-anchor="middle" x="3703.5" y="-141.5" font-family="Helvetica,sans-Serif" font-size="10.00" fill="#000000">src/mesh/Mesh.hpp</text>
</a>
</g>
</g>
<!-- Node121&#45;&gt;Node134 -->
<g id="edge60" class="edge">
<title>Node121&#45;&gt;Node134</title>
<path fill="none" stroke="#191970" d="M3517.5095,-273.6568C3560.5126,-243.6787 3654.5607,-178.1163 3689.8023,-153.5489"/>
<polygon fill="#191970" stroke="#191970" points="3515.3493,-270.8962 3509.1475,-279.4861 3519.3525,-276.6386 3515.3493,-270.8962"/>
</g>
<!-- Node211 -->
<g id="node45" class="node">
<title>Node211</title>
<g id="a_node45"><a xlink:href="Utils_8hpp.html" target="_top" xlink:title="src/mesh/Utils.hpp">
<polygon fill="#ffffff" stroke="#ff0000" points="3187,-73 3187,-92 3294,-92 3294,-73 3187,-73"/>
<text text-anchor="middle" x="3240.5" y="-80" font-family="Helvetica,sans-Serif" font-size="10.00" fill="#000000">src/mesh/Utils.hpp</text>
</a>
</g>
</g>
<!-- Node121&#45;&gt;Node211 -->
<g id="edge101" class="edge">
<title>Node121&#45;&gt;Node211</title>
<path fill="none" stroke="#191970" d="M3483.5526,-270.6862C3466.4361,-245.0094 3435.1668,-200.2884 3418.5,-190 3348.7066,-146.9165 3289.5336,-217.402 3237.5,-154 3222.9974,-136.3288 3230.8921,-107.1229 3236.48,-92.0925"/>
<polygon fill="#191970" stroke="#191970" points="3480.7339,-272.7694 3489.1651,-279.1854 3486.5752,-268.912 3480.7339,-272.7694"/>
</g>
<!-- Node215 -->
<g id="node46" class="node">
<title>Node215</title>
<g id="a_node46"><a xlink:href="WatchIntegral_8cpp.html" target="_top" xlink:title="src/precice/impl/WatchIntegral.cpp">
<polygon fill="#ffffff" stroke="#000000" points="4187,-73 4187,-92 4372,-92 4372,-73 4187,-73"/>
<text text-anchor="middle" x="4279.5" y="-80" font-family="Helvetica,sans-Serif" font-size="10.00" fill="#000000">src/precice/impl/WatchIntegral.cpp</text>
</a>
</g>
</g>
<!-- Node121&#45;&gt;Node215 -->
<g id="edge103" class="edge">
<title>Node121&#45;&gt;Node215</title>
<path fill="none" stroke="#191970" d="M3560.5473,-285.4931C3710.4576,-277.0664 4071.2692,-254.6903 4121.5,-232 4193.772,-199.3533 4253.793,-119.6671 4273.0295,-92.084"/>
<polygon fill="#191970" stroke="#191970" points="3559.9145,-282.0229 3550.1254,-286.0755 3560.3052,-289.012 3559.9145,-282.0229"/>
</g>
<!-- Node216 -->
<g id="node47" class="node">
<title>Node216</title>
<g id="a_node47"><a xlink:href="WatchPoint_8cpp.html" target="_top" xlink:title="src/precice/impl/WatchPoint.cpp">
<polygon fill="#ffffff" stroke="#000000" points="3820.5,-73 3820.5,-92 3992.5,-92 3992.5,-73 3820.5,-73"/>
<text text-anchor="middle" x="3906.5" y="-80" font-family="Helvetica,sans-Serif" font-size="10.00" fill="#000000">src/precice/impl/WatchPoint.cpp</text>
</a>
</g>
</g>
<!-- Node121&#45;&gt;Node216 -->
<g id="edge104" class="edge">
<title>Node121&#45;&gt;Node216</title>
<path fill="none" stroke="#191970" d="M3560.4807,-282.9032C3608.1078,-276.0971 3672.8429,-261.8123 3722.5,-232 3744.0822,-219.0429 3741.8262,-206.881 3760.5,-190 3804.8654,-149.894 3863.7989,-110.1048 3891.2376,-92.2542"/>
<polygon fill="#191970" stroke="#191970" points="3559.7257,-279.4735 3550.2858,-284.2838 3560.6651,-286.4101 3559.7257,-279.4735"/>
</g>
<!-- Node121&#45;&gt;Node217 -->
<g id="edge80" class="edge">
<title>Node121&#45;&gt;Node217</title>
<path fill="none" stroke="#191970" d="M3560.2957,-279.482C3663.3908,-264.3381 3863.4301,-234.9538 3964.6461,-220.0859"/>
<polygon fill="#191970" stroke="#191970" points="3559.7115,-276.0302 3550.3263,-280.9464 3560.7289,-282.9558 3559.7115,-276.0302"/>
</g>
<!-- Node121&#45;&gt;Node218 -->
<g id="edge100" class="edge">
<title>Node121&#45;&gt;Node218</title>
<path fill="none" stroke="#191970" d="M3560.1173,-280.8253C3614.7901,-272.571 3694.5419,-257.3487 3760.5,-232 3815.7041,-210.7843 3874.6321,-171.5409 3900.2924,-153.5107"/>
<polygon fill="#191970" stroke="#191970" points="3559.5919,-277.3648 3550.2096,-282.2863 3560.6132,-284.2899 3559.5919,-277.3648"/>
</g>
<!-- Node128&#45;&gt;Node49 -->
<g id="edge59" class="edge">
<title>Node128&#45;&gt;Node49</title>
<path fill="none" stroke="#191970" d="M2695.943,-196.6636C2648.9665,-172.2245 2553.8076,-122.7187 2505.7202,-97.7016"/>
<polygon fill="#191970" stroke="#191970" points="2694.4482,-199.8313 2704.9349,-201.3416 2697.6789,-193.6214 2694.4482,-199.8313"/>
</g>
<!-- Node134&#45;&gt;Node28 -->
<g id="edge64" class="edge">
<title>Node134&#45;&gt;Node28</title>
<path fill="none" stroke="#191970" d="M3637.9911,-141.2379C3586.9166,-139.1263 3514.2049,-136.2116 3450.5,-134 2816.0594,-111.975 2049.9312,-91.0703 1806.6006,-84.5685"/>
<polygon fill="#191970" stroke="#191970" points="3638.0927,-144.745 3648.2291,-141.6624 3638.3827,-137.7511 3638.0927,-144.745"/>
</g>
<!-- Node134&#45;&gt;Node31 -->
<g id="edge65" class="edge">
<title>Node134&#45;&gt;Node31</title>
<path fill="none" stroke="#191970" d="M3637.998,-141.0216C3586.9272,-138.7936 3514.217,-135.8279 3450.5,-134 2888.1428,-117.8671 1091.2939,-90.3813 660.1461,-83.8989"/>
<polygon fill="#191970" stroke="#191970" points="3638.0913,-144.529 3648.2352,-141.4709 3638.3983,-137.5357 3638.0913,-144.529"/>
</g>
<!-- Node134&#45;&gt;Node38 -->
<g id="edge68" class="edge">
<title>Node134&#45;&gt;Node38</title>
<path fill="none" stroke="#191970" d="M3768.8759,-138.9229C3792.3931,-137.2043 3819.1284,-135.3743 3843.5,-134 4229.8837,-112.2113 4328.5988,-138.2265 4713.5,-98 4716.2386,-97.7138 4719.0192,-97.3972 4721.8242,-97.0556"/>
<polygon fill="#191970" stroke="#191970" points="3768.3802,-135.4499 3758.665,-139.6768 3768.8956,-142.4309 3768.3802,-135.4499"/>
</g>
<!-- Node134&#45;&gt;Node48 -->
<g id="edge69" class="edge">
<title>Node134&#45;&gt;Node48</title>
<path fill="none" stroke="#191970" d="M3637.865,-134.385C3636.7351,-134.2529 3635.6127,-134.1244 3634.5,-134 3432.4619,-111.4086 3379.3147,-129.6736 3178.5,-98 3168.874,-96.4817 3158.5668,-94.291 3149.0618,-92.0326"/>
<polygon fill="#191970" stroke="#191970" points="3637.8256,-137.9066 3648.1792,-135.6589 3638.6837,-130.9594 3637.8256,-137.9066"/>
</g>
<!-- Node134&#45;&gt;Node49 -->
<g id="edge71" class="edge">
<title>Node134&#45;&gt;Node49</title>
<path fill="none" stroke="#191970" d="M3638.208,-140.7274C3429.5345,-130.2682 2779.3009,-97.6771 2554.1597,-86.3925"/>
<polygon fill="#191970" stroke="#191970" points="3638.232,-144.2329 3648.3947,-141.238 3638.5824,-137.2417 3638.232,-144.2329"/>
</g>
<!-- Node134&#45;&gt;Node50 -->
<g id="edge72" class="edge">
<title>Node134&#45;&gt;Node50</title>
<path fill="none" stroke="#191970" d="M3637.9507,-137.5866C3624.2599,-136.3278 3609.9127,-135.0679 3596.5,-134 3353.6316,-114.6627 3292.0816,-120.653 3049.5,-98 3031.5585,-96.3246 3012.2438,-94.1702 2994.1935,-92.0037"/>
<polygon fill="#191970" stroke="#191970" points="3637.9847,-141.1048 3648.2658,-138.5459 3638.6329,-134.1349 3637.9847,-141.1048"/>
</g>
<!-- Node134&#45;&gt;Node51 -->
<g id="edge76" class="edge">
<title>Node134&#45;&gt;Node51</title>
<path fill="none" stroke="#191970" d="M3706.6386,-124.3038C3708.2316,-106.5259 3707.194,-81.0672 3691.5,-67 3652.6103,-32.1416 2900.4447,-19.6992 2643.0366,-16.4519"/>
<polygon fill="#191970" stroke="#191970" points="3703.1384,-124.0896 3705.3771,-134.4452 3710.0848,-124.9537 3703.1384,-124.0896"/>
</g>
<!-- Node134&#45;&gt;Node96 -->
<g id="edge70" class="edge">
<title>Node134&#45;&gt;Node96</title>
<path fill="none" stroke="#191970" d="M3712.8239,-125.2794C3726.6297,-97.56 3752.0184,-46.5841 3762.6338,-25.2705"/>
<polygon fill="#191970" stroke="#191970" points="3709.6357,-123.83 3708.3104,-134.3416 3715.9016,-126.9508 3709.6357,-123.83"/>
</g>
<!-- Node134&#45;&gt;Node122 -->
<g id="edge61" class="edge">
<title>Node134&#45;&gt;Node122</title>
<path fill="none" stroke="#191970" d="M3768.8975,-139.2676C3792.4168,-137.5819 3819.1479,-135.6845 3843.5,-134 4082.5746,-117.4629 4143.5943,-126.8269 4381.5,-98 4384.2721,-97.6641 4387.0894,-97.2988 4389.9318,-96.9099"/>
<polygon fill="#191970" stroke="#191970" points="3768.4091,-135.7936 3758.6854,-140.0008 3768.9104,-142.7756 3768.4091,-135.7936"/>
</g>
<!-- Node134&#45;&gt;Node123 -->
<g id="edge62" class="edge">
<title>Node134&#45;&gt;Node123</title>
<path fill="none" stroke="#191970" d="M3677.1759,-129.415C3656.3107,-117.8546 3627.7584,-102.035 3609.722,-92.0419"/>
<polygon fill="#191970" stroke="#191970" points="3675.7128,-132.6057 3686.1563,-134.3906 3679.1053,-126.4827 3675.7128,-132.6057"/>
</g>
<!-- Node134&#45;&gt;Node124 -->
<g id="edge63" class="edge">
<title>Node134&#45;&gt;Node124</title>
<path fill="none" stroke="#191970" d="M3646.0828,-132.4224C3588.1261,-120.7361 3499.6841,-102.9027 3445.6817,-92.0137"/>
<polygon fill="#191970" stroke="#191970" points="3645.6838,-135.9124 3656.1784,-134.4581 3647.0675,-129.0505 3645.6838,-135.9124"/>
</g>
<!-- Node134&#45;&gt;Node125 -->
<g id="edge66" class="edge">
<title>Node134&#45;&gt;Node125</title>
<path fill="none" stroke="#191970" d="M3769.0189,-134.0997C3847.1622,-122.2918 3976.6175,-102.7304 4051.68,-91.388"/>
<polygon fill="#191970" stroke="#191970" points="3768.1782,-130.6869 3758.8134,-135.6418 3769.2241,-137.6084 3768.1782,-130.6869"/>
</g>
<!-- Node134&#45;&gt;Node126 -->
<g id="edge67" class="edge">
<title>Node134&#45;&gt;Node126</title>
<path fill="none" stroke="#191970" d="M3768.883,-139.0442C3792.4009,-137.3371 3819.1348,-135.4834 3843.5,-134 4161.0923,-114.6642 4242.7815,-137.5035 4558.5,-98 4570.1364,-96.544 4582.6444,-94.317 4594.1251,-92.0014"/>
<polygon fill="#191970" stroke="#191970" points="3768.3899,-135.5708 3758.6717,-139.7907 3768.9003,-142.5522 3768.3899,-135.5708"/>
</g>
<!-- Node134&#45;&gt;Node211 -->
<g id="edge73" class="edge">
<title>Node134&#45;&gt;Node211</title>
<path fill="none" stroke="#191970" d="M3637.8596,-134.4308C3636.7313,-134.2846 3635.6108,-134.1408 3634.5,-134 3487.6969,-115.3848 3449.224,-123.7334 3303.5,-98 3294.4045,-96.3938 3284.672,-94.2263 3275.6438,-92.0219"/>
<polygon fill="#191970" stroke="#191970" points="3637.7874,-137.952 3648.162,-135.8032 3638.7118,-131.0133 3637.7874,-137.952"/>
</g>
<!-- Node134&#45;&gt;Node215 -->
<g id="edge77" class="edge">
<title>Node134&#45;&gt;Node215</title>
<path fill="none" stroke="#191970" d="M3769.0718,-138.8132C3860.8219,-131.291 4032.6478,-116.2396 4178.5,-98 4192.3183,-96.272 4207.1589,-94.1462 4221.0957,-92.0292"/>
<polygon fill="#191970" stroke="#191970" points="3768.5089,-135.3474 3758.8266,-139.6491 3769.0782,-142.3243 3768.5089,-135.3474"/>
</g>
<!-- Node134&#45;&gt;Node216 -->
<g id="edge78" class="edge">
<title>Node134&#45;&gt;Node216</title>
<path fill="none" stroke="#191970" d="M3745.0901,-131.4001C3783.6197,-119.7273 3840.0869,-102.6202 3875.004,-92.0419"/>
<polygon fill="#191970" stroke="#191970" points="3743.7744,-128.1415 3735.2188,-134.3906 3745.804,-134.8408 3743.7744,-128.1415"/>
</g>
<!-- Node211&#45;&gt;Node51 -->
<g id="edge75" class="edge">
<title>Node211&#45;&gt;Node51</title>
<path fill="none" stroke="#191970" d="M3195.8749,-70.5968C3189.7326,-69.2297 3183.4818,-67.978 3177.5,-67 2988.1617,-36.0449 2763.0841,-23.2527 2643.0145,-18.3213"/>
<polygon fill="#191970" stroke="#191970" points="3195.5081,-74.1056 3206.0429,-72.9787 3197.1047,-67.2901 3195.5081,-74.1056"/>
</g>
<!-- Node211&#45;&gt;Node96 -->
<g id="edge74" class="edge">
<title>Node211&#45;&gt;Node96</title>
<path fill="none" stroke="#191970" d="M3285.5901,-70.6523C3291.5868,-69.2985 3297.6743,-68.0354 3303.5,-67 3438.162,-43.067 3596.9074,-28.3086 3689.4726,-21.0287"/>
<polygon fill="#191970" stroke="#191970" points="3284.5788,-67.2946 3275.6463,-72.992 3286.1821,-74.1085 3284.5788,-67.2946"/>
</g>
<!-- Node217&#45;&gt;Node43 -->
<g id="edge93" class="edge">
<title>Node217&#45;&gt;Node43</title>
<path fill="none" stroke="#191970" d="M3954.573,-206.9941C3740.0363,-195.0457 3106.3644,-159.7539 2893.8701,-147.9192"/>
<polygon fill="#191970" stroke="#191970" points="3954.5934,-210.5006 3964.7726,-207.5621 3954.9827,-203.5114 3954.5934,-210.5006"/>
</g>
<!-- Node217&#45;&gt;Node45 -->
<g id="edge94" class="edge">
<title>Node217&#45;&gt;Node45</title>
<path fill="none" stroke="#191970" d="M4086.9372,-199.6156C4104.2232,-196.4277 4123.0946,-193.0124 4140.5,-190 4217.1547,-176.7333 4305.6584,-162.5827 4363.2197,-153.5343"/>
<polygon fill="#191970" stroke="#191970" points="4086.1615,-196.1997 4076.9657,-201.4616 4087.4358,-203.0827 4086.1615,-196.1997"/>
</g>
<!-- Node217&#45;&gt;Node48 -->
<g id="edge85" class="edge">
<title>Node217&#45;&gt;Node48</title>
<path fill="none" stroke="#191970" d="M3954.6979,-206.6481C3875.9734,-200.4516 3746.5968,-186.0517 3639.5,-154 3619.3077,-147.9569 3616.8653,-139.4314 3596.5,-134 3416.332,-85.9493 3362.5838,-127.7076 3178.5,-98 3168.994,-96.4659 3158.8195,-94.2973 3149.409,-92.0668"/>
<polygon fill="#191970" stroke="#191970" points="3954.7512,-210.1622 3964.9887,-207.4339 3955.2843,-203.1826 3954.7512,-210.1622"/>
</g>
<!-- Node217&#45;&gt;Node49 -->
<g id="edge87" class="edge">
<title>Node217&#45;&gt;Node49</title>
<path fill="none" stroke="#191970" d="M3954.8604,-207.5061C3827.7443,-200.6435 3568.066,-183.4519 3482.5,-154 3466.6416,-148.5415 3466.4939,-139.0478 3450.5,-134 3429.2046,-127.279 2781.3395,-96.6513 2554.2325,-86.0914"/>
<polygon fill="#191970" stroke="#191970" points="3954.7178,-211.0034 3964.89,-208.041 3955.0906,-204.0133 3954.7178,-211.0034"/>
</g>
<!-- Node217&#45;&gt;Node50 -->
<g id="edge88" class="edge">
<title>Node217&#45;&gt;Node50</title>
<path fill="none" stroke="#191970" d="M3954.6753,-202.4123C3869.1908,-191.9757 3722.1996,-173.3488 3596.5,-154 3545.6583,-146.174 3533.5176,-140.5823 3482.5,-134 3290.979,-109.2901 3241.6101,-117.6108 3049.5,-98 3032.2417,-96.2383 3013.7017,-94.1226 2996.2379,-92.0289"/>
<polygon fill="#191970" stroke="#191970" points="3954.4399,-205.9094 3964.7897,-203.6439 3955.2862,-198.9607 3954.4399,-205.9094"/>
</g>
<!-- Node217&#45;&gt;Node96 -->
<g id="edge86" class="edge">
<title>Node217&#45;&gt;Node96</title>
<path fill="none" stroke="#191970" d="M4029.3179,-191.4234C4032.5603,-160.6044 4033.8299,-100.8095 4001.5,-67 3980.1902,-44.7149 3905.0875,-30.9695 3845.6415,-23.3466"/>
<polygon fill="#191970" stroke="#191970" points="4025.8422,-191.0119 4028.0926,-201.365 4032.7896,-191.8682 4025.8422,-191.0119"/>
</g>
<!-- Node217&#45;&gt;Node97 -->
<g id="edge89" class="edge">
<title>Node217&#45;&gt;Node97</title>
<path fill="none" stroke="#191970" d="M3954.5389,-203.8842C3846.1098,-193.1498 3634.3769,-172.1398 3454.5,-154 3450.1609,-153.5624 3445.7139,-153.1128 3441.2236,-152.6579"/>
<polygon fill="#191970" stroke="#191970" points="3954.4089,-207.3883 3964.7051,-204.8905 3955.0985,-200.4224 3954.4089,-207.3883"/>
</g>
<!-- Node217&#45;&gt;Node122 -->
<g id="edge81" class="edge">
<title>Node217&#45;&gt;Node122</title>
<path fill="none" stroke="#191970" d="M4069.1435,-198.6305C4150.8729,-174.9234 4329.2888,-123.1707 4417.7073,-97.5234"/>
<polygon fill="#191970" stroke="#191970" points="4068.0641,-195.2992 4059.4351,-201.4466 4070.0143,-202.0221 4068.0641,-195.2992"/>
</g>
<!-- Node217&#45;&gt;Node125 -->
<g id="edge82" class="edge">
<title>Node217&#45;&gt;Node125</title>
<path fill="none" stroke="#191970" d="M4038.5,-192.6428C4056.565,-165.0077 4090.1193,-113.6776 4104.1131,-92.2705"/>
<polygon fill="#191970" stroke="#191970" points="4035.3557,-191.0562 4032.8137,-201.3416 4041.2149,-194.8864 4035.3557,-191.0562"/>
</g>
<!-- Node217&#45;&gt;Node126 -->
<g id="edge83" class="edge">
<title>Node217&#45;&gt;Node126</title>
<path fill="none" stroke="#191970" d="M4087.5182,-199.4812C4138.1086,-189.3351 4211.6525,-173.2033 4274.5,-154 4298.1808,-146.7642 4302.5742,-140.3791 4326.5,-134 4427.323,-107.1185 4455.7722,-116.3003 4558.5,-98 4568.7029,-96.1824 4579.6342,-94.0779 4589.9622,-92.0171"/>
<polygon fill="#191970" stroke="#191970" points="4086.5259,-196.1098 4077.4,-201.492 4087.8904,-202.9756 4086.5259,-196.1098"/>
</g>
<!-- Node217&#45;&gt;Node134 -->
<g id="edge84" class="edge">
<title>Node217&#45;&gt;Node134</title>
<path fill="none" stroke="#191970" d="M3970.4755,-199.3788C3907.8901,-186.3967 3807.7441,-165.6234 3749.5377,-153.5496"/>
<polygon fill="#191970" stroke="#191970" points="3970.0625,-202.8676 3980.565,-201.4717 3971.4843,-196.0135 3970.0625,-202.8676"/>
</g>
<!-- Node217&#45;&gt;Node215 -->
<g id="edge91" class="edge">
<title>Node217&#45;&gt;Node215</title>
<path fill="none" stroke="#191970" d="M4054.5126,-196.7722C4106.4679,-170.3839 4216.4845,-114.5059 4260.6083,-92.0952"/>
<polygon fill="#191970" stroke="#191970" points="4052.8471,-193.6926 4045.5161,-201.3416 4056.017,-199.9337 4052.8471,-193.6926"/>
</g>
<!-- Node217&#45;&gt;Node216 -->
<g id="edge92" class="edge">
<title>Node217&#45;&gt;Node216</title>
<path fill="none" stroke="#191970" d="M4018.8448,-191.7922C4011.5436,-175.1599 3999.3226,-151.1453 3983.5,-134 3966.8123,-115.9173 3942.5678,-101.0536 3925.7599,-92.0203"/>
<polygon fill="#191970" stroke="#191970" points="4015.6416,-193.2043 4022.7432,-201.0667 4022.0947,-190.4917 4015.6416,-193.2043"/>
</g>
<!-- Node217&#45;&gt;Node218 -->
<g id="edge90" class="edge">
<title>Node217&#45;&gt;Node218</title>
<path fill="none" stroke="#191970" d="M4001.5574,-196.211C3979.6567,-183.2256 3948.443,-164.7184 3929.6601,-153.5817"/>
<polygon fill="#191970" stroke="#191970" points="3999.9231,-199.311 4010.3099,-201.4005 4003.4932,-193.2898 3999.9231,-199.311"/>
</g>
<!-- Node219&#45;&gt;Node38 -->
<g id="edge117" class="edge">
<title>Node219&#45;&gt;Node38</title>
<path fill="none" stroke="#191970" d="M3795.6985,-364.2852C3973.9719,-356.8713 4444.6523,-335.1464 4510.5,-310 4637.08,-261.6606 4754.0492,-140.0797 4792.3656,-97.5065"/>
<polygon fill="#191970" stroke="#191970" points="3795.4987,-360.7904 3785.6519,-364.7007 3795.788,-367.7844 3795.4987,-360.7904"/>
</g>
<!-- Node219&#45;&gt;Node43 -->
<g id="edge130" class="edge">
<title>Node219&#45;&gt;Node43</title>
<path fill="none" stroke="#191970" d="M3659.0672,-366.4048C3471.8583,-364.2062 2961.152,-354.1807 2900.5,-310 2854.0703,-276.1793 2878.5915,-241.1741 2852.5,-190 2845.8104,-176.8795 2836.505,-162.6681 2830.2558,-153.5674"/>
<polygon fill="#191970" stroke="#191970" points="3659.2938,-369.9075 3669.3329,-366.5212 3659.3733,-362.9079 3659.2938,-369.9075"/>
</g>
<!-- Node219&#45;&gt;Node44 -->
<g id="edge131" class="edge">
<title>Node219&#45;&gt;Node44</title>
<path fill="none" stroke="#191970" d="M3659.2511,-366.466C3429.2136,-364.2682 2691.2275,-353.8383 2594.5,-310 2551.1054,-290.3329 2517.1666,-241.4199 2504.2045,-220.6134"/>
<polygon fill="#191970" stroke="#191970" points="3659.4613,-369.968 3669.4936,-366.5616 3659.5267,-362.9683 3659.4613,-369.968"/>
</g>
<!-- Node219&#45;&gt;Node45 -->
<g id="edge132" class="edge">
<title>Node219&#45;&gt;Node45</title>
<path fill="none" stroke="#191970" d="M3795.7972,-363.3048C3909.8093,-356.4016 4133.5953,-339.5104 4206.5,-310 4299.9819,-272.1604 4388.1368,-183.1513 4415.6786,-153.6723"/>
<polygon fill="#191970" stroke="#191970" points="3795.555,-359.813 3785.7813,-363.9027 3795.9721,-366.8005 3795.555,-359.813"/>
</g>
<!-- Node219&#45;&gt;Node49 -->
<g id="edge123" class="edge">
<title>Node219&#45;&gt;Node49</title>
<path fill="none" stroke="#191970" d="M3658.9205,-366.6284C3466.2262,-365.0093 2929.8215,-356.3434 2866.5,-310 2820.2785,-276.1716 2861.3862,-229.0684 2819.5,-190 2798.2226,-170.154 2625.9049,-122.1702 2533.91,-97.5793"/>
<polygon fill="#191970" stroke="#191970" points="3659.1746,-370.1305 3669.2023,-366.7108 3659.2307,-363.1307 3659.1746,-370.1305"/>
</g>
<!-- Node219&#45;&gt;Node50 -->
<g id="edge124" class="edge">
<title>Node219&#45;&gt;Node50</title>
<path fill="none" stroke="#191970" d="M3659.144,-360.3497C3475.4263,-341.7964 2981.6597,-287.198 2934.5,-232 2899.4688,-190.9978 2912.5899,-118.5572 2918.8962,-92.3282"/>
<polygon fill="#191970" stroke="#191970" points="3658.9263,-363.8454 3669.2263,-361.3631 3659.6264,-356.8804 3658.9263,-363.8454"/>
</g>
<!-- Node219&#45;&gt;Node51 -->
<g id="edge127" class="edge">
<title>Node219&#45;&gt;Node51</title>
<path fill="none" stroke="#191970" d="M3659.2475,-364.7685C3453.7133,-357.7967 2849.5288,-335.3667 2764.5,-310 2697.728,-290.0799 2683.0486,-275.3562 2628.5,-232 2608.5584,-216.15 2610.1171,-204.9607 2589.5,-190 2510.6367,-132.7732 2442.9888,-180.0929 2390.5,-98 2365.9378,-59.5846 2419.0935,-38.459 2471.8072,-27.231"/>
<polygon fill="#191970" stroke="#191970" points="3659.1992,-368.2688 3669.3117,-365.1084 3659.4355,-361.2728 3659.1992,-368.2688"/>
</g>
<!-- Node219&#45;&gt;Node95 -->
<g id="edge121" class="edge">
<title>Node219&#45;&gt;Node95</title>
<path fill="none" stroke="#191970" d="M3664.2778,-355.6291C3604.4299,-344.6655 3512.1396,-327.2417 3432.5,-310 3287.3173,-278.5684 3251.9218,-266.7608 3107.5,-232 3091.9403,-228.2549 3074.8176,-224.124 3059.9086,-220.5239"/>
<polygon fill="#191970" stroke="#191970" points="3663.8639,-359.1114 3674.3301,-357.4658 3665.1221,-352.2254 3663.8639,-359.1114"/>
</g>
<!-- Node219&#45;&gt;Node96 -->
<g id="edge122" class="edge">
<title>Node219&#45;&gt;Node96</title>
<path fill="none" stroke="#191970" d="M3795.8063,-365.2811C4048.5953,-358.0285 4916.5,-324.8389 4916.5,-211 4916.5,-211 4916.5,-211 4916.5,-144 4916.5,-108.8551 4925.5307,-89.4611 4898.5,-67 4858.0602,-33.3966 4094.8975,-19.9861 3845.5732,-16.4903"/>
<polygon fill="#191970" stroke="#191970" points="3795.55,-361.7869 3785.6528,-365.5679 3795.7477,-368.7841 3795.55,-361.7869"/>
</g>
<!-- Node219&#45;&gt;Node97 -->
<g id="edge125" class="edge">
<title>Node219&#45;&gt;Node97</title>
<path fill="none" stroke="#191970" d="M3705.8038,-351.0808C3691.3328,-340.1075 3672.1628,-324.8727 3656.5,-310 3604.6829,-260.7967 3610.8512,-226.6333 3549.5,-190 3526.6537,-176.3583 3461.087,-162.4279 3412.6861,-153.5261"/>
<polygon fill="#191970" stroke="#191970" points="3704.0318,-354.1265 3714.1335,-357.3212 3708.2288,-348.5243 3704.0318,-354.1265"/>
</g>
<!-- Node219&#45;&gt;Node121 -->
<g id="edge118" class="edge">
<title>Node219&#45;&gt;Node121</title>
<path fill="none" stroke="#191970" d="M3689.3424,-354.1711C3642.8374,-338.5358 3565.3379,-312.48 3523.8172,-298.5204"/>
<polygon fill="#191970" stroke="#191970" points="3688.4582,-357.5663 3699.0522,-357.4357 3690.689,-350.9313 3688.4582,-357.5663"/>
</g>
<!-- Node219&#45;&gt;Node122 -->
<g id="edge112" class="edge">
<title>Node219&#45;&gt;Node122</title>
<path fill="none" stroke="#191970" d="M3796.0946,-365.4969C3945.6358,-361.536 4296.5582,-348.3354 4408.5,-310 4468.6789,-289.3912 4494.3208,-285.6471 4528.5,-232 4552.0504,-195.0356 4559.2812,-173.1113 4539.5,-134 4531.5331,-118.2478 4516.227,-106.1369 4501.9543,-97.6292"/>
<polygon fill="#191970" stroke="#191970" points="3795.5878,-362.0088 3785.6817,-365.7664 3795.7689,-369.0064 3795.5878,-362.0088"/>
</g>
<!-- Node219&#45;&gt;Node123 -->
<g id="edge113" class="edge">
<title>Node219&#45;&gt;Node123</title>
<path fill="none" stroke="#191970" d="M3726.7933,-347.153C3724.7172,-312.6098 3716.555,-240.3212 3684.5,-190 3670.7394,-168.398 3656.7473,-172.9349 3639.5,-154 3621.4943,-134.2324 3605.573,-106.9145 3597.7067,-92.4367"/>
<polygon fill="#191970" stroke="#191970" points="3723.3068,-347.5167 3727.2898,-357.3343 3730.2985,-347.1757 3723.3068,-347.5167"/>
</g>
<!-- Node219&#45;&gt;Node124 -->
<g id="edge114" class="edge">
<title>Node219&#45;&gt;Node124</title>
<path fill="none" stroke="#191970" d="M3714.4074,-349.1217C3699.6583,-329.1232 3674.8264,-295.8764 3652.5,-268 3624.1119,-232.5551 3621.4081,-219.0456 3586.5,-190 3532.5983,-145.1506 3457.4549,-108.5942 3420.6271,-92.0507"/>
<polygon fill="#191970" stroke="#191970" points="3711.6854,-351.3282 3720.4293,-357.3111 3717.3249,-347.1813 3711.6854,-351.3282"/>
</g>
<!-- Node219&#45;&gt;Node125 -->
<g id="edge115" class="edge">
<title>Node219&#45;&gt;Node125</title>
<path fill="none" stroke="#191970" d="M3795.7056,-363.2419C3918.869,-355.8651 4173.4099,-337.752 4257.5,-310 4387.6487,-267.0474 4455.3779,-272.9243 4523.5,-154 4527.9182,-146.2869 4529.4503,-140.6035 4523.5,-134 4471.9,-76.7355 4254.5481,-110.5882 4178.5,-98 4168.7044,-96.3785 4158.2073,-94.2055 4148.4632,-92.0007"/>
<polygon fill="#191970" stroke="#191970" points="3795.4119,-359.7531 3785.6365,-363.8386 3795.8261,-366.7408 3795.4119,-359.7531"/>
</g>
<!-- Node219&#45;&gt;Node126 -->
<g id="edge116" class="edge">
<title>Node219&#45;&gt;Node126</title>
<path fill="none" stroke="#191970" d="M3795.9249,-364.2787C3967.5319,-357.0934 4406.8372,-336.3427 4467.5,-310 4566.5784,-266.9754 4619.4381,-129.8848 4632.3455,-92.1789"/>
<polygon fill="#191970" stroke="#191970" points="3795.5944,-360.7893 3785.7486,-364.702 3795.8854,-367.7833 3795.5944,-360.7893"/>
</g>
<!-- Node219&#45;&gt;Node128 -->
<g id="edge119" class="edge">
<title>Node219&#45;&gt;Node128</title>
<path fill="none" stroke="#191970" d="M3659.1742,-365.4259C3461.7913,-360.4973 2900.0009,-343.6459 2824.5,-310 2779.8695,-290.111 2743.5949,-241.3211 2729.6539,-220.5804"/>
<polygon fill="#191970" stroke="#191970" points="3659.331,-368.9308 3669.4145,-365.6791 3659.504,-361.9329 3659.331,-368.9308"/>
</g>
<!-- Node219&#45;&gt;Node134 -->
<g id="edge120" class="edge">
<title>Node219&#45;&gt;Node134</title>
<path fill="none" stroke="#191970" d="M3756.4752,-352.1598C3772.029,-342.4712 3789.7578,-328.2293 3798.5,-310 3821.5622,-261.9107 3826.8268,-235.1889 3798.5,-190 3786.918,-171.5235 3765.576,-160.2847 3746.0505,-153.5472"/>
<polygon fill="#191970" stroke="#191970" points="3754.5083,-349.2557 3747.653,-357.3338 3758.0496,-355.2939 3754.5083,-349.2557"/>
</g>
<!-- Node219&#45;&gt;Node215 -->
<g id="edge128" class="edge">
<title>Node219&#45;&gt;Node215</title>
<path fill="none" stroke="#191970" d="M3795.8361,-363.8393C3933.3508,-356.955 4238.9364,-338.8682 4339.5,-310 4413.626,-288.7211 4438.6916,-285.2248 4494.5,-232 4529.0505,-199.049 4568.7898,-170.9057 4538.5,-134 4532.083,-126.1815 4411.4,-104.6637 4337.0633,-92.0531"/>
<polygon fill="#191970" stroke="#191970" points="3795.6483,-360.3442 3785.8338,-364.335 3795.9949,-367.3356 3795.6483,-360.3442"/>
</g>
<!-- Node219&#45;&gt;Node216 -->
<g id="edge129" class="edge">
<title>Node219&#45;&gt;Node216</title>
<path fill="none" stroke="#191970" d="M3781.7753,-355.1819C3875.285,-333.5998 4060.3418,-285.112 4097.5,-232 4144.8737,-164.2864 4007.3674,-112.5337 3940.5992,-92.0643"/>
<polygon fill="#191970" stroke="#191970" points="3780.8982,-351.792 3771.9299,-357.4328 3782.4584,-358.616 3780.8982,-351.792"/>
</g>
<!-- Node219&#45;&gt;Node218 -->
<g id="edge126" class="edge">
<title>Node219&#45;&gt;Node218</title>
<path fill="none" stroke="#191970" d="M3758.7219,-352.9789C3778.2322,-343.065 3802.9034,-328.3 3820.5,-310 3868.3538,-260.2335 3900.0576,-181.0842 3910.0858,-153.699"/>
<polygon fill="#191970" stroke="#191970" points="3757.0471,-349.9021 3749.6123,-357.4503 3760.1315,-356.1859 3757.0471,-349.9021"/>
</g>
</g>
</svg>
