<?xml version="1.0" encoding="UTF-8" standalone="no"?>
<!DOCTYPE svg PUBLIC "-//W3C//DTD SVG 1.1//EN"
 "http://www.w3.org/Graphics/SVG/1.1/DTD/svg11.dtd">
<!-- Generated by graphviz version 2.40.1 (20161225.0304)
 -->
<!-- Title: src/query Pages: 1 -->
<svg width="536pt" height="447pt"
 viewBox="0.00 0.00 536.00 447.00" xmlns="http://www.w3.org/2000/svg" xmlns:xlink="http://www.w3.org/1999/xlink">
<g id="graph0" class="graph" transform="scale(1 1) rotate(0) translate(4 443)">
<title>src/query</title>
<polygon fill="#ffffff" stroke="transparent" points="-4,4 -4,-443 532,-443 532,4 -4,4"/>
<g id="clust1" class="cluster">
<title>clusterdir_68267d1309a1af8e8297ef4c3efbcdba</title>
<g id="a_clust1"><a xlink:href="dir_68267d1309a1af8e8297ef4c3efbcdba.html" target="_top" xlink:title="src">
<polygon fill="#ddddee" stroke="#000000" points="362,-272 362,-431 520,-431 520,-272 362,-272"/>
<text text-anchor="middle" x="441" y="-419" font-family="Helvetica,sans-Serif" font-size="10.00" fill="#000000">src</text>
</a>
</g>
</g>
<g id="clust2" class="cluster">
<title>clusterdir_cc12abc95cb54c18d5c8d7ca0d3d5af5</title>
<g id="a_clust2"><a xlink:href="dir_cc12abc95cb54c18d5c8d7ca0d3d5af5.html" target="_top">
<polygon fill="#eeeeff" stroke="#000000" points="370,-280 370,-404 512,-404 512,-280 370,-280"/>
</a>
</g>
</g>
<!-- dir_cc12abc95cb54c18d5c8d7ca0d3d5af5 -->
<g id="node1" class="node">
<title>dir_cc12abc95cb54c18d5c8d7ca0d3d5af5</title>
<text text-anchor="middle" x="405" y="-375.5" font-family="Helvetica,sans-Serif" font-size="10.00" fill="#000000">query</text>
</g>
<!-- dir_d0f9e8246559ec349d883278ea295df5 -->
<g id="node2" class="node">
<title>dir_d0f9e8246559ec349d883278ea295df5</title>
<g id="a_node2"><a xlink:href="dir_d0f9e8246559ec349d883278ea295df5.html" target="_top" xlink:title="impl">
<polygon fill="#ffffff" stroke="#000000" points="504,-324 450,-324 450,-288 504,-288 504,-324"/>
<text text-anchor="middle" x="477" y="-303.5" font-family="Helvetica,sans-Serif" font-size="10.00" fill="#000000">impl</text>
</a>
</g>
</g>
<!-- dir_cc12abc95cb54c18d5c8d7ca0d3d5af5&#45;&gt;dir_d0f9e8246559ec349d883278ea295df5 -->
<g id="edge9" class="edge">
<title>dir_cc12abc95cb54c18d5c8d7ca0d3d5af5&#45;&gt;dir_d0f9e8246559ec349d883278ea295df5</title>
<path fill="none" stroke="#000000" d="M423.1686,-359.8314C431.7152,-351.2848 442.0557,-340.9443 451.3802,-331.6198"/>
<polygon fill="#000000" stroke="#000000" points="453.9905,-333.9592 458.5867,-324.4133 449.0408,-329.0095 453.9905,-333.9592"/>
<g id="a_edge9&#45;headlabel"><a xlink:href="dir_000041_000042.html" target="_top" xlink:title="2">
<text text-anchor="middle" x="453.4564" y="-336.0087" font-family="Helvetica,sans-Serif" font-size="10.00" fill="#000000">2</text>
</a>
</g>
</g>
<!-- dir_ae9a93452e2a84339148a16bcf2eb561 -->
<g id="node5" class="node">
<title>dir_ae9a93452e2a84339148a16bcf2eb561</title>
<g id="a_node5"><a xlink:href="dir_ae9a93452e2a84339148a16bcf2eb561.html" target="_top" xlink:title="math">
<polygon fill="#ffffff" stroke="#ff0000" points="197,-324 143,-324 143,-288 197,-288 197,-324"/>
<text text-anchor="middle" x="170" y="-303.5" font-family="Helvetica,sans-Serif" font-size="10.00" fill="#000000">math</text>
</a>
</g>
</g>
<!-- dir_cc12abc95cb54c18d5c8d7ca0d3d5af5&#45;&gt;dir_ae9a93452e2a84339148a16bcf2eb561 -->
<g id="edge10" class="edge">
<title>dir_cc12abc95cb54c18d5c8d7ca0d3d5af5&#45;&gt;dir_ae9a93452e2a84339148a16bcf2eb561</title>
<path fill="none" stroke="#000000" d="M377.9504,-371.7617C340.1111,-362.7447 269.4497,-344.8459 211,-324 209.5813,-323.494 208.1426,-322.9616 206.6949,-322.4095"/>
<polygon fill="#000000" stroke="#000000" points="207.7126,-319.0461 197.1291,-318.5546 205.0961,-325.5388 207.7126,-319.0461"/>
<g id="a_edge10&#45;headlabel"><a xlink:href="dir_000041_000034.html" target="_top" xlink:title="9">
<text text-anchor="middle" x="212.1079" y="-315.2562" font-family="Helvetica,sans-Serif" font-size="10.00" fill="#000000">9</text>
</a>
</g>
</g>
<!-- dir_b3320b59a4aa4a7431bc8488b87009bf -->
<g id="node8" class="node">
<title>dir_b3320b59a4aa4a7431bc8488b87009bf</title>
<g id="a_node8"><a xlink:href="dir_b3320b59a4aa4a7431bc8488b87009bf.html" target="_top" xlink:title="logging">
<polygon fill="#ffffff" stroke="#ff0000" points="248,-36 194,-36 194,0 248,0 248,-36"/>
<text text-anchor="middle" x="221" y="-15.5" font-family="Helvetica,sans-Serif" font-size="10.00" fill="#000000">logging</text>
</a>
</g>
</g>
<!-- dir_cc12abc95cb54c18d5c8d7ca0d3d5af5&#45;&gt;dir_b3320b59a4aa4a7431bc8488b87009bf -->
<g id="edge11" class="edge">
<title>dir_cc12abc95cb54c18d5c8d7ca0d3d5af5&#45;&gt;dir_b3320b59a4aa4a7431bc8488b87009bf</title>
<path fill="none" stroke="#000000" d="M377.5303,-374.7533C313.8068,-366.9381 157.7252,-346.0838 110,-324 52.6725,-297.473 0,-297.1674 0,-234 0,-234 0,-234 0,-162 0,-75.2415 121.0364,-38.0291 183.9629,-24.5451"/>
<polygon fill="#000000" stroke="#000000" points="184.8069,-27.945 193.9011,-22.5093 183.4021,-21.0874 184.8069,-27.945"/>
<g id="a_edge11&#45;headlabel"><a xlink:href="dir_000041_000027.html" target="_top" xlink:title="8">
<text text-anchor="middle" x="181.8552" y="-28.9478" font-family="Helvetica,sans-Serif" font-size="10.00" fill="#000000">8</text>
</a>
</g>
</g>
<!-- dir_313caf1132e152dd9b58bea13a4052ca -->
<g id="node9" class="node">
<title>dir_313caf1132e152dd9b58bea13a4052ca</title>
<g id="a_node9"><a xlink:href="dir_313caf1132e152dd9b58bea13a4052ca.html" target="_top" xlink:title="utils">
<polygon fill="#ffffff" stroke="#ff0000" points="206,-108 152,-108 152,-72 206,-72 206,-108"/>
<text text-anchor="middle" x="179" y="-87.5" font-family="Helvetica,sans-Serif" font-size="10.00" fill="#000000">utils</text>
</a>
</g>
</g>
<!-- dir_cc12abc95cb54c18d5c8d7ca0d3d5af5&#45;&gt;dir_313caf1132e152dd9b58bea13a4052ca -->
<g id="edge12" class="edge">
<title>dir_cc12abc95cb54c18d5c8d7ca0d3d5af5&#45;&gt;dir_313caf1132e152dd9b58bea13a4052ca</title>
<path fill="none" stroke="#000000" d="M377.5507,-376.7806C314.9484,-373.3655 164.6561,-361.3673 134,-324 84.3097,-263.4315 132.7609,-164.4231 161.3458,-116.9909"/>
<polygon fill="#000000" stroke="#000000" points="164.4865,-118.5663 166.7629,-108.2189 158.5306,-114.8882 164.4865,-118.5663"/>
<g id="a_edge12&#45;headlabel"><a xlink:href="dir_000041_000045.html" target="_top" xlink:title="4">
<text text-anchor="middle" x="165.0136" y="-120.6165" font-family="Helvetica,sans-Serif" font-size="10.00" fill="#000000">4</text>
</a>
</g>
</g>
<!-- dir_7be0d8c199b9408ae01f5d77515b8def -->
<g id="node4" class="node">
<title>dir_7be0d8c199b9408ae01f5d77515b8def</title>
<g id="a_node4"><a xlink:href="dir_7be0d8c199b9408ae01f5d77515b8def.html" target="_top" xlink:title="mesh">
<polygon fill="#ffffff" stroke="#ff0000" points="346,-180 292,-180 292,-144 346,-144 346,-180"/>
<text text-anchor="middle" x="319" y="-159.5" font-family="Helvetica,sans-Serif" font-size="10.00" fill="#000000">mesh</text>
</a>
</g>
</g>
<!-- dir_d0f9e8246559ec349d883278ea295df5&#45;&gt;dir_7be0d8c199b9408ae01f5d77515b8def -->
<g id="edge5" class="edge">
<title>dir_d0f9e8246559ec349d883278ea295df5&#45;&gt;dir_7be0d8c199b9408ae01f5d77515b8def</title>
<path fill="none" stroke="#000000" d="M465.9848,-287.8364C453.5955,-268.4306 432.0388,-237.5577 408,-216 392.2197,-201.8484 372.2187,-189.3297 355.1762,-179.9179"/>
<polygon fill="#000000" stroke="#000000" points="356.5236,-176.6686 346.0582,-175.0181 353.2101,-182.8347 356.5236,-176.6686"/>
<g id="a_edge5&#45;headlabel"><a xlink:href="dir_000042_000011.html" target="_top" xlink:title="2">
<text text-anchor="middle" x="361.034" y="-173.3691" font-family="Helvetica,sans-Serif" font-size="10.00" fill="#000000">2</text>
</a>
</g>
</g>
<!-- dir_967678997ddd4a2d16133ebb5884dc05 -->
<g id="node3" class="node">
<title>dir_967678997ddd4a2d16133ebb5884dc05</title>
<g id="a_node3"><a xlink:href="dir_967678997ddd4a2d16133ebb5884dc05.html" target="_top" xlink:title="tests">
<polygon fill="#ffffff" stroke="#000000" points="504,-396 450,-396 450,-360 504,-360 504,-396"/>
<text text-anchor="middle" x="477" y="-375.5" font-family="Helvetica,sans-Serif" font-size="10.00" fill="#000000">tests</text>
</a>
</g>
</g>
<!-- dir_967678997ddd4a2d16133ebb5884dc05&#45;&gt;dir_d0f9e8246559ec349d883278ea295df5 -->
<g id="edge23" class="edge">
<title>dir_967678997ddd4a2d16133ebb5884dc05&#45;&gt;dir_d0f9e8246559ec349d883278ea295df5</title>
<path fill="none" stroke="#000000" d="M477,-359.8314C477,-352.131 477,-342.9743 477,-334.4166"/>
<polygon fill="#000000" stroke="#000000" points="480.5001,-334.4132 477,-324.4133 473.5001,-334.4133 480.5001,-334.4132"/>
<g id="a_edge23&#45;headlabel"><a xlink:href="dir_000043_000042.html" target="_top" xlink:title="1">
<text text-anchor="middle" x="483.3393" y="-335.5079" font-family="Helvetica,sans-Serif" font-size="10.00" fill="#000000">1</text>
</a>
</g>
</g>
<!-- dir_967678997ddd4a2d16133ebb5884dc05&#45;&gt;dir_7be0d8c199b9408ae01f5d77515b8def -->
<g id="edge22" class="edge">
<title>dir_967678997ddd4a2d16133ebb5884dc05&#45;&gt;dir_7be0d8c199b9408ae01f5d77515b8def</title>
<path fill="none" stroke="#000000" d="M449.956,-360.7249C436.2542,-351.0662 420.02,-338.1393 408,-324 372.4357,-282.1652 344.6524,-223.8808 330.137,-189.8263"/>
<polygon fill="#000000" stroke="#000000" points="333.3193,-188.364 326.2316,-180.489 326.8614,-191.0651 333.3193,-188.364"/>
<g id="a_edge22&#45;headlabel"><a xlink:href="dir_000043_000011.html" target="_top" xlink:title="17">
<text text-anchor="middle" x="337.3256" y="-188.0846" font-family="Helvetica,sans-Serif" font-size="10.00" fill="#000000">17</text>
</a>
</g>
</g>
<!-- dir_967678997ddd4a2d16133ebb5884dc05&#45;&gt;dir_ae9a93452e2a84339148a16bcf2eb561 -->
<g id="edge24" class="edge">
<title>dir_967678997ddd4a2d16133ebb5884dc05&#45;&gt;dir_ae9a93452e2a84339148a16bcf2eb561</title>
<path fill="none" stroke="#000000" d="M449.8203,-363.4292C446.89,-362.1553 443.9141,-360.9803 441,-360 358.7107,-332.3188 334.008,-341.6471 249,-324 235.1709,-321.1292 220.0371,-317.7414 206.7494,-314.6837"/>
<polygon fill="#000000" stroke="#000000" points="207.5322,-311.2724 197.0002,-312.4239 205.9515,-318.0916 207.5322,-311.2724"/>
<g id="a_edge24&#45;headlabel"><a xlink:href="dir_000043_000034.html" target="_top" xlink:title="3">
<text text-anchor="middle" x="211.6751" y="-306.8181" font-family="Helvetica,sans-Serif" font-size="10.00" fill="#000000">3</text>
</a>
</g>
</g>
<!-- dir_c184e51c84f2c3f0345bbc8a0d75d3e1 -->
<g id="node6" class="node">
<title>dir_c184e51c84f2c3f0345bbc8a0d75d3e1</title>
<g id="a_node6"><a xlink:href="dir_c184e51c84f2c3f0345bbc8a0d75d3e1.html" target="_top" xlink:title="io">
<polygon fill="#ffffff" stroke="#ff0000" points="345,-324 291,-324 291,-288 345,-288 345,-324"/>
<text text-anchor="middle" x="318" y="-303.5" font-family="Helvetica,sans-Serif" font-size="10.00" fill="#000000">io</text>
</a>
</g>
</g>
<!-- dir_967678997ddd4a2d16133ebb5884dc05&#45;&gt;dir_c184e51c84f2c3f0345bbc8a0d75d3e1 -->
<g id="edge25" class="edge">
<title>dir_967678997ddd4a2d16133ebb5884dc05&#45;&gt;dir_c184e51c84f2c3f0345bbc8a0d75d3e1</title>
<path fill="none" stroke="#000000" d="M449.9439,-364.2907C446.9366,-362.821 443.91,-361.3652 441,-360 412.1094,-346.4458 378.9618,-331.9533 354.3623,-321.3981"/>
<polygon fill="#000000" stroke="#000000" points="355.6186,-318.1288 345.0479,-317.4142 352.8658,-324.5648 355.6186,-318.1288"/>
<g id="a_edge25&#45;headlabel"><a xlink:href="dir_000043_000008.html" target="_top" xlink:title="2">
<text text-anchor="middle" x="360.0401" y="-314.4318" font-family="Helvetica,sans-Serif" font-size="10.00" fill="#000000">2</text>
</a>
</g>
</g>
<!-- dir_3513c77e68d0de165c8b48f945306dcb -->
<g id="node7" class="node">
<title>dir_3513c77e68d0de165c8b48f945306dcb</title>
<g id="a_node7"><a xlink:href="dir_3513c77e68d0de165c8b48f945306dcb.html" target="_top" xlink:title="testing">
<polygon fill="#ffffff" stroke="#ff0000" points="252,-252 198,-252 198,-216 252,-216 252,-252"/>
<text text-anchor="middle" x="225" y="-231.5" font-family="Helvetica,sans-Serif" font-size="10.00" fill="#000000">testing</text>
</a>
</g>
</g>
<!-- dir_967678997ddd4a2d16133ebb5884dc05&#45;&gt;dir_3513c77e68d0de165c8b48f945306dcb -->
<g id="edge26" class="edge">
<title>dir_967678997ddd4a2d16133ebb5884dc05&#45;&gt;dir_3513c77e68d0de165c8b48f945306dcb</title>
<path fill="none" stroke="#000000" d="M449.7817,-363.5407C446.8589,-362.2451 443.8953,-361.0345 441,-360 372.7689,-335.6217 341.2028,-365.7708 282,-324 281.8069,-323.8638 258.6057,-287.1834 241.8671,-260.6984"/>
<polygon fill="#000000" stroke="#000000" points="244.7818,-258.7587 236.4809,-252.1748 238.8642,-262.4981 244.7818,-258.7587"/>
<g id="a_edge26&#45;headlabel"><a xlink:href="dir_000043_000024.html" target="_top" xlink:title="8">
<text text-anchor="middle" x="249.1021" y="-257.7807" font-family="Helvetica,sans-Serif" font-size="10.00" fill="#000000">8</text>
</a>
</g>
</g>
<!-- dir_967678997ddd4a2d16133ebb5884dc05&#45;&gt;dir_b3320b59a4aa4a7431bc8488b87009bf -->
<g id="edge27" class="edge">
<title>dir_967678997ddd4a2d16133ebb5884dc05&#45;&gt;dir_b3320b59a4aa4a7431bc8488b87009bf</title>
<path fill="none" stroke="#000000" d="M463.297,-359.6221C456.0926,-349.453 447.4449,-336.3962 441,-324 384.9512,-216.1947 421.826,-156.9983 335,-72 313.5433,-50.995 282.3695,-37 258.042,-28.5313"/>
<polygon fill="#000000" stroke="#000000" points="259.0132,-25.1661 248.4198,-25.3418 256.8107,-31.8105 259.0132,-25.1661"/>
<g id="a_edge27&#45;headlabel"><a xlink:href="dir_000043_000027.html" target="_top" xlink:title="3">
<text text-anchor="middle" x="263.3186" y="-21.102" font-family="Helvetica,sans-Serif" font-size="10.00" fill="#000000">3</text>
</a>
</g>
</g>
<!-- dir_7be0d8c199b9408ae01f5d77515b8def&#45;&gt;dir_ae9a93452e2a84339148a16bcf2eb561 -->
<g id="edge1" class="edge">
<title>dir_7be0d8c199b9408ae01f5d77515b8def&#45;&gt;dir_ae9a93452e2a84339148a16bcf2eb561</title>
<path fill="none" stroke="#000000" d="M291.969,-165.7028C262.1583,-171.2608 214.9822,-184.684 189,-216 174.8041,-233.1101 170.4292,-258.2274 169.3919,-277.5827"/>
<polygon fill="#000000" stroke="#000000" points="165.8912,-277.5638 169.1178,-287.6554 172.8886,-277.7543 165.8912,-277.5638"/>
<g id="a_edge1&#45;headlabel"><a xlink:href="dir_000011_000034.html" target="_top" xlink:title="6">
<text text-anchor="middle" x="163.1506" y="-271.3934" font-family="Helvetica,sans-Serif" font-size="10.00" fill="#000000">6</text>
</a>
</g>
</g>
<!-- dir_7be0d8c199b9408ae01f5d77515b8def&#45;&gt;dir_3513c77e68d0de165c8b48f945306dcb -->
<g id="edge2" class="edge">
<title>dir_7be0d8c199b9408ae01f5d77515b8def&#45;&gt;dir_3513c77e68d0de165c8b48f945306dcb</title>
<path fill="none" stroke="#000000" d="M301.3847,-180.0423C289.8377,-189.6079 274.5016,-201.4473 260.5514,-211.5966"/>
<polygon fill="#000000" stroke="#000000" points="258.1788,-208.991 252.0909,-217.6621 262.2574,-214.68 258.1788,-208.991"/>
<g id="a_edge2&#45;headlabel"><a xlink:href="dir_000011_000024.html" target="_top" xlink:title="12">
<text text-anchor="middle" x="259.4459" y="-202.0891" font-family="Helvetica,sans-Serif" font-size="10.00" fill="#000000">12</text>
</a>
</g>
</g>
<!-- dir_7be0d8c199b9408ae01f5d77515b8def&#45;&gt;dir_b3320b59a4aa4a7431bc8488b87009bf -->
<g id="edge3" class="edge">
<title>dir_7be0d8c199b9408ae01f5d77515b8def&#45;&gt;dir_b3320b59a4aa4a7431bc8488b87009bf</title>
<path fill="none" stroke="#000000" d="M313.0124,-143.6651C306.2863,-124.6663 294.1604,-94.6392 278,-72 270.5134,-61.5119 260.7836,-51.4064 251.4881,-42.8309"/>
<polygon fill="#000000" stroke="#000000" points="253.6341,-40.0552 243.8408,-36.0127 248.9757,-45.2801 253.6341,-40.0552"/>
<g id="a_edge3&#45;headlabel"><a xlink:href="dir_000011_000027.html" target="_top" xlink:title="16">
<text text-anchor="middle" x="258.2066" y="-37.8281" font-family="Helvetica,sans-Serif" font-size="10.00" fill="#000000">16</text>
</a>
</g>
</g>
<!-- dir_7be0d8c199b9408ae01f5d77515b8def&#45;&gt;dir_313caf1132e152dd9b58bea13a4052ca -->
<g id="edge4" class="edge">
<title>dir_7be0d8c199b9408ae01f5d77515b8def&#45;&gt;dir_313caf1132e152dd9b58bea13a4052ca</title>
<path fill="none" stroke="#000000" d="M291.6742,-147.9468C269.8967,-136.7469 239.2083,-120.9642 215.3569,-108.6978"/>
<polygon fill="#000000" stroke="#000000" points="216.7505,-105.4788 206.2568,-104.0178 213.549,-111.7038 216.7505,-105.4788"/>
<g id="a_edge4&#45;headlabel"><a xlink:href="dir_000011_000045.html" target="_top" xlink:title="17">
<text text-anchor="middle" x="221.2456" y="-102.0978" font-family="Helvetica,sans-Serif" font-size="10.00" fill="#000000">17</text>
</a>
</g>
</g>
<!-- dir_ae9a93452e2a84339148a16bcf2eb561&#45;&gt;dir_3513c77e68d0de165c8b48f945306dcb -->
<g id="edge6" class="edge">
<title>dir_ae9a93452e2a84339148a16bcf2eb561&#45;&gt;dir_3513c77e68d0de165c8b48f945306dcb</title>
<path fill="none" stroke="#000000" d="M177.9264,-287.8314C183.5094,-279.454 191.0357,-269.3531 198.4838,-260.1749"/>
<polygon fill="#000000" stroke="#000000" points="201.2404,-262.3344 204.9583,-252.4133 195.865,-257.8504 201.2404,-262.3344"/>
<g id="a_edge6&#45;headlabel"><a xlink:href="dir_000034_000024.html" target="_top" xlink:title="6">
<text text-anchor="middle" x="201.1181" y="-264.4134" font-family="Helvetica,sans-Serif" font-size="10.00" fill="#000000">6</text>
</a>
</g>
</g>
<!-- dir_ae9a93452e2a84339148a16bcf2eb561&#45;&gt;dir_b3320b59a4aa4a7431bc8488b87009bf -->
<g id="edge7" class="edge">
<title>dir_ae9a93452e2a84339148a16bcf2eb561&#45;&gt;dir_b3320b59a4aa4a7431bc8488b87009bf</title>
<path fill="none" stroke="#000000" d="M161.2401,-287.7071C142.8725,-246.5179 105.0411,-144.4471 143,-72 151.8819,-55.0483 168.7701,-42.3602 184.5669,-33.5576"/>
<polygon fill="#000000" stroke="#000000" points="186.4166,-36.5407 193.673,-28.8208 183.1863,-30.3306 186.4166,-36.5407"/>
<g id="a_edge7&#45;headlabel"><a xlink:href="dir_000034_000027.html" target="_top" xlink:title="4">
<text text-anchor="middle" x="184.5379" y="-38.2183" font-family="Helvetica,sans-Serif" font-size="10.00" fill="#000000">4</text>
</a>
</g>
</g>
<!-- dir_ae9a93452e2a84339148a16bcf2eb561&#45;&gt;dir_313caf1132e152dd9b58bea13a4052ca -->
<g id="edge8" class="edge">
<title>dir_ae9a93452e2a84339148a16bcf2eb561&#45;&gt;dir_313caf1132e152dd9b58bea13a4052ca</title>
<path fill="none" stroke="#000000" d="M161.646,-287.5068C160.3533,-277.08 160.1094,-263.814 160,-252 159.8519,-236.0007 159.3666,-231.9875 160,-216 161.3303,-182.4249 164.6469,-143.9355 169.0237,-118.423"/>
<polygon fill="#000000" stroke="#000000" points="172.5121,-118.8166 170.9617,-108.3358 165.6378,-117.4958 172.5121,-118.8166"/>
<g id="a_edge8&#45;headlabel"><a xlink:href="dir_000034_000045.html" target="_top" xlink:title="7">
<text text-anchor="middle" x="174.6222" y="-120.3823" font-family="Helvetica,sans-Serif" font-size="10.00" fill="#000000">7</text>
</a>
</g>
</g>
<!-- dir_c184e51c84f2c3f0345bbc8a0d75d3e1&#45;&gt;dir_7be0d8c199b9408ae01f5d77515b8def -->
<g id="edge13" class="edge">
<title>dir_c184e51c84f2c3f0345bbc8a0d75d3e1&#45;&gt;dir_7be0d8c199b9408ae01f5d77515b8def</title>
<path fill="none" stroke="#000000" d="M318.1267,-287.7623C318.2972,-263.201 318.6024,-219.2474 318.8031,-190.3541"/>
<polygon fill="#000000" stroke="#000000" points="322.3048,-190.1137 318.8744,-180.0896 315.3049,-190.065 322.3048,-190.1137"/>
<g id="a_edge13&#45;headlabel"><a xlink:href="dir_000008_000011.html" target="_top" xlink:title="14">
<text text-anchor="middle" x="325.1191" y="-191.2279" font-family="Helvetica,sans-Serif" font-size="10.00" fill="#000000">14</text>
</a>
</g>
</g>
<!-- dir_c184e51c84f2c3f0345bbc8a0d75d3e1&#45;&gt;dir_3513c77e68d0de165c8b48f945306dcb -->
<g id="edge14" class="edge">
<title>dir_c184e51c84f2c3f0345bbc8a0d75d3e1&#45;&gt;dir_3513c77e68d0de165c8b48f945306dcb</title>
<path fill="none" stroke="#000000" d="M296.498,-287.7509C290.271,-282.5803 283.42,-277.0002 277,-272 271.1171,-267.4182 264.7706,-262.6448 258.601,-258.0906"/>
<polygon fill="#000000" stroke="#000000" points="260.4941,-255.1388 250.358,-252.0548 256.3585,-260.7866 260.4941,-255.1388"/>
<g id="a_edge14&#45;headlabel"><a xlink:href="dir_000008_000024.html" target="_top" xlink:title="10">
<text text-anchor="middle" x="265.0717" y="-252.4716" font-family="Helvetica,sans-Serif" font-size="10.00" fill="#000000">10</text>
</a>
</g>
</g>
<!-- dir_c184e51c84f2c3f0345bbc8a0d75d3e1&#45;&gt;dir_b3320b59a4aa4a7431bc8488b87009bf -->
<g id="edge15" class="edge">
<title>dir_c184e51c84f2c3f0345bbc8a0d75d3e1&#45;&gt;dir_b3320b59a4aa4a7431bc8488b87009bf</title>
<path fill="none" stroke="#000000" d="M328.4895,-287.7389C344.4965,-257.4403 371.5094,-195.0567 355,-144 339.3071,-95.4684 291.0318,-58.447 256.9416,-37.4655"/>
<polygon fill="#000000" stroke="#000000" points="258.5554,-34.3526 248.1757,-32.2282 254.9651,-40.3618 258.5554,-34.3526"/>
<g id="a_edge15&#45;headlabel"><a xlink:href="dir_000008_000027.html" target="_top" xlink:title="12">
<text text-anchor="middle" x="263.0974" y="-31.2589" font-family="Helvetica,sans-Serif" font-size="10.00" fill="#000000">12</text>
</a>
</g>
</g>
<!-- dir_c184e51c84f2c3f0345bbc8a0d75d3e1&#45;&gt;dir_313caf1132e152dd9b58bea13a4052ca -->
<g id="edge16" class="edge">
<title>dir_c184e51c84f2c3f0345bbc8a0d75d3e1&#45;&gt;dir_313caf1132e152dd9b58bea13a4052ca</title>
<path fill="none" stroke="#000000" d="M306.4941,-287.6864C295.028,-269.471 276.8877,-240.746 261,-216 238.9265,-181.6191 213.1867,-142.1709 196.5183,-116.7087"/>
<polygon fill="#000000" stroke="#000000" points="199.4288,-114.7644 191.0217,-108.3169 193.5731,-118.5999 199.4288,-114.7644"/>
<g id="a_edge16&#45;headlabel"><a xlink:href="dir_000008_000045.html" target="_top" xlink:title="7">
<text text-anchor="middle" x="203.7735" y="-113.7157" font-family="Helvetica,sans-Serif" font-size="10.00" fill="#000000">7</text>
</a>
</g>
</g>
<!-- dir_3513c77e68d0de165c8b48f945306dcb&#45;&gt;dir_cc12abc95cb54c18d5c8d7ca0d3d5af5 -->
<g id="edge19" class="edge">
<title>dir_3513c77e68d0de165c8b48f945306dcb&#45;&gt;dir_cc12abc95cb54c18d5c8d7ca0d3d5af5</title>
<path fill="none" stroke="#000000" d="M225.0353,-252.2606C226.0558,-272.3354 230.7203,-304.3418 249,-324 279.9964,-357.334 332.5762,-370.0916 368.0284,-374.9738"/>
<polygon fill="#000000" stroke="#000000" points="367.6361,-378.4519 377.9892,-376.2016 368.4925,-371.5044 367.6361,-378.4519"/>
<g id="a_edge19&#45;headlabel"><a xlink:href="dir_000024_000041.html" target="_top" xlink:title="1">
<text text-anchor="middle" x="363.7211" y="-378.3301" font-family="Helvetica,sans-Serif" font-size="10.00" fill="#000000">1</text>
</a>
</g>
</g>
<!-- dir_3513c77e68d0de165c8b48f945306dcb&#45;&gt;dir_7be0d8c199b9408ae01f5d77515b8def -->
<g id="edge17" class="edge">
<title>dir_3513c77e68d0de165c8b48f945306dcb&#45;&gt;dir_7be0d8c199b9408ae01f5d77515b8def</title>
<path fill="none" stroke="#000000" d="M242.7678,-215.8314C254.2709,-206.3097 269.4906,-194.5615 283.3541,-184.4722"/>
<polygon fill="#000000" stroke="#000000" points="285.6793,-187.1116 291.7655,-178.4393 281.5996,-181.4234 285.6793,-187.1116"/>
<g id="a_edge17&#45;headlabel"><a xlink:href="dir_000024_000011.html" target="_top" xlink:title="1">
<text text-anchor="middle" x="284.4131" y="-189.0138" font-family="Helvetica,sans-Serif" font-size="10.00" fill="#000000">1</text>
</a>
</g>
</g>
<!-- dir_3513c77e68d0de165c8b48f945306dcb&#45;&gt;dir_ae9a93452e2a84339148a16bcf2eb561 -->
<g id="edge18" class="edge">
<title>dir_3513c77e68d0de165c8b48f945306dcb&#45;&gt;dir_ae9a93452e2a84339148a16bcf2eb561</title>
<path fill="none" stroke="#000000" d="M216.9103,-252.4133C211.2898,-260.8239 203.7456,-270.9323 196.2991,-280.0923"/>
<polygon fill="#000000" stroke="#000000" points="193.5584,-277.9138 189.8312,-287.8314 198.9296,-282.4027 193.5584,-277.9138"/>
<g id="a_edge18&#45;headlabel"><a xlink:href="dir_000024_000034.html" target="_top" xlink:title="3">
<text text-anchor="middle" x="193.6849" y="-270.8348" font-family="Helvetica,sans-Serif" font-size="10.00" fill="#000000">3</text>
</a>
</g>
</g>
<!-- dir_3513c77e68d0de165c8b48f945306dcb&#45;&gt;dir_b3320b59a4aa4a7431bc8488b87009bf -->
<g id="edge20" class="edge">
<title>dir_3513c77e68d0de165c8b48f945306dcb&#45;&gt;dir_b3320b59a4aa4a7431bc8488b87009bf</title>
<path fill="none" stroke="#000000" d="M225.1698,-215.7271C225.2987,-197.5427 225.3942,-168.8406 225,-144 224.4682,-110.4913 223.1415,-71.9888 222.1611,-46.4552"/>
<polygon fill="#000000" stroke="#000000" points="225.6544,-46.2138 221.7654,-36.3586 218.6598,-46.488 225.6544,-46.2138"/>
<g id="a_edge20&#45;headlabel"><a xlink:href="dir_000024_000027.html" target="_top" xlink:title="3">
<text text-anchor="middle" x="228.6322" y="-47.1945" font-family="Helvetica,sans-Serif" font-size="10.00" fill="#000000">3</text>
</a>
</g>
</g>
<!-- dir_3513c77e68d0de165c8b48f945306dcb&#45;&gt;dir_313caf1132e152dd9b58bea13a4052ca -->
<g id="edge21" class="edge">
<title>dir_3513c77e68d0de165c8b48f945306dcb&#45;&gt;dir_313caf1132e152dd9b58bea13a4052ca</title>
<path fill="none" stroke="#000000" d="M214.5009,-215.7623C204.1497,-191.0928 189.7534,-146.8598 182.4638,-117.9731"/>
<polygon fill="#000000" stroke="#000000" points="185.8331,-117.0123 180.1203,-108.0896 179.022,-118.6274 185.8331,-117.0123"/>
<g id="a_edge21&#45;headlabel"><a xlink:href="dir_000024_000045.html" target="_top" xlink:title="10">
<text text-anchor="middle" x="189.425" y="-117.3549" font-family="Helvetica,sans-Serif" font-size="10.00" fill="#000000">10</text>
</a>
</g>
</g>
<!-- dir_b3320b59a4aa4a7431bc8488b87009bf&#45;&gt;dir_313caf1132e152dd9b58bea13a4052ca -->
<g id="edge28" class="edge">
<title>dir_b3320b59a4aa4a7431bc8488b87009bf&#45;&gt;dir_313caf1132e152dd9b58bea13a4052ca</title>
<path fill="none" stroke="#000000" d="M216.2349,-36.4133C212.2573,-44.569 206.759,-54.3212 201.1477,-63.257"/>
<polygon fill="#000000" stroke="#000000" points="198.086,-61.5443 195.5508,-71.8314 203.9478,-65.3706 198.086,-61.5443"/>
<g id="a_edge28&#45;headlabel"><a xlink:href="dir_000027_000045.html" target="_top" xlink:title="3">
<text text-anchor="middle" x="197.6732" y="-54.4823" font-family="Helvetica,sans-Serif" font-size="10.00" fill="#000000">3</text>
</a>
</g>
</g>
<!-- dir_313caf1132e152dd9b58bea13a4052ca&#45;&gt;dir_ae9a93452e2a84339148a16bcf2eb561 -->
<g id="edge29" class="edge">
<title>dir_313caf1132e152dd9b58bea13a4052ca&#45;&gt;dir_ae9a93452e2a84339148a16bcf2eb561</title>
<path fill="none" stroke="#000000" d="M183.2117,-108.3358C183.6351,-132.8382 179.5203,-177.6285 178,-216 177.3666,-231.9875 177.8519,-236.0007 178,-252 178.0761,-260.2144 178.2172,-269.1309 178.0092,-277.3067"/>
<polygon fill="#000000" stroke="#000000" points="174.503,-277.3447 177.4998,-287.5068 181.4943,-277.6939 174.503,-277.3447"/>
<g id="a_edge29&#45;headlabel"><a xlink:href="dir_000045_000034.html" target="_top" xlink:title="8">
<text text-anchor="middle" x="171.8465" y="-271.1129" font-family="Helvetica,sans-Serif" font-size="10.00" fill="#000000">8</text>
</a>
</g>
</g>
<!-- dir_313caf1132e152dd9b58bea13a4052ca&#45;&gt;dir_3513c77e68d0de165c8b48f945306dcb -->
<g id="edge30" class="edge">
<title>dir_313caf1132e152dd9b58bea13a4052ca&#45;&gt;dir_3513c77e68d0de165c8b48f945306dcb</title>
<path fill="none" stroke="#000000" d="M189.4369,-108.0896C199.7718,-132.6805 214.1742,-176.905 221.4923,-205.8531"/>
<polygon fill="#000000" stroke="#000000" points="218.1299,-206.8425 223.8472,-215.7623 224.9402,-205.224 218.1299,-206.8425"/>
<g id="a_edge30&#45;headlabel"><a xlink:href="dir_000045_000024.html" target="_top" xlink:title="18">
<text text-anchor="middle" x="214.5365" y="-201.5018" font-family="Helvetica,sans-Serif" font-size="10.00" fill="#000000">18</text>
</a>
</g>
</g>
<!-- dir_313caf1132e152dd9b58bea13a4052ca&#45;&gt;dir_b3320b59a4aa4a7431bc8488b87009bf -->
<g id="edge31" class="edge">
<title>dir_313caf1132e152dd9b58bea13a4052ca&#45;&gt;dir_b3320b59a4aa4a7431bc8488b87009bf</title>
<path fill="none" stroke="#000000" d="M183.646,-71.8314C187.593,-63.7079 193.0748,-53.9637 198.6837,-45.0118"/>
<polygon fill="#000000" stroke="#000000" points="201.759,-46.7031 204.2829,-36.4133 195.8931,-42.8833 201.759,-46.7031"/>
<g id="a_edge31&#45;headlabel"><a xlink:href="dir_000045_000027.html" target="_top" xlink:title="11">
<text text-anchor="middle" x="202.1768" y="-48.7647" font-family="Helvetica,sans-Serif" font-size="10.00" fill="#000000">11</text>
</a>
</g>
</g>
</g>
</svg>
