<?xml version="1.0" encoding="UTF-8" standalone="no"?>
<!DOCTYPE svg PUBLIC "-//W3C//DTD SVG 1.1//EN"
 "http://www.w3.org/Graphics/SVG/1.1/DTD/svg11.dtd">
<!-- Generated by graphviz version 2.40.1 (20161225.0304)
 -->
<!-- Title: src/utils Pages: 1 -->
<svg width="315pt" height="267pt"
 viewBox="0.00 0.00 314.87 267.00" xmlns="http://www.w3.org/2000/svg" xmlns:xlink="http://www.w3.org/1999/xlink">
<g id="graph0" class="graph" transform="scale(1 1) rotate(0) translate(4 263)">
<title>src/utils</title>
<polygon fill="#ffffff" stroke="transparent" points="-4,4 -4,-263 310.8654,-263 310.8654,4 -4,4"/>
<g id="clust1" class="cluster">
<title>clusterdir_68267d1309a1af8e8297ef4c3efbcdba</title>
<g id="a_clust1"><a xlink:href="dir_68267d1309a1af8e8297ef4c3efbcdba.html" target="_top" xlink:title="src">
<polygon fill="#ddddee" stroke="#000000" points="8,-128 8,-215 166,-215 166,-128 8,-128"/>
<text text-anchor="middle" x="87" y="-203" font-family="Helvetica,sans-Serif" font-size="10.00" fill="#000000">src</text>
</a>
</g>
</g>
<g id="clust2" class="cluster">
<title>clusterdir_313caf1132e152dd9b58bea13a4052ca</title>
<g id="a_clust2"><a xlink:href="dir_313caf1132e152dd9b58bea13a4052ca.html" target="_top">
<polygon fill="#eeeeff" stroke="#000000" points="16,-136 16,-188 158,-188 158,-136 16,-136"/>
</a>
</g>
</g>
<!-- dir_313caf1132e152dd9b58bea13a4052ca -->
<g id="node1" class="node">
<title>dir_313caf1132e152dd9b58bea13a4052ca</title>
<text text-anchor="middle" x="51" y="-159.5" font-family="Helvetica,sans-Serif" font-size="10.00" fill="#000000">utils</text>
</g>
<!-- dir_b3320b59a4aa4a7431bc8488b87009bf -->
<g id="node6" class="node">
<title>dir_b3320b59a4aa4a7431bc8488b87009bf</title>
<g id="a_node6"><a xlink:href="dir_b3320b59a4aa4a7431bc8488b87009bf.html" target="_top" xlink:title="logging">
<polygon fill="#ffffff" stroke="#ff0000" points="220,-36 166,-36 166,0 220,0 220,-36"/>
<text text-anchor="middle" x="193" y="-15.5" font-family="Helvetica,sans-Serif" font-size="10.00" fill="#000000">logging</text>
</a>
</g>
</g>
<!-- dir_313caf1132e152dd9b58bea13a4052ca&#45;&gt;dir_b3320b59a4aa4a7431bc8488b87009bf -->
<g id="edge16" class="edge">
<title>dir_313caf1132e152dd9b58bea13a4052ca&#45;&gt;dir_b3320b59a4aa4a7431bc8488b87009bf</title>
<path fill="none" stroke="#000000" d="M57.6508,-143.9667C65.5793,-124.3885 80.3938,-93.0999 101,-72 116.7574,-55.8651 138.3406,-42.8617 156.6419,-33.6614"/>
<polygon fill="#000000" stroke="#000000" points="158.3866,-36.7055 165.8649,-29.2005 155.3386,-30.4039 158.3866,-36.7055"/>
<g id="a_edge16&#45;headlabel"><a xlink:href="dir_000044_000027.html" target="_top" xlink:title="11">
<text text-anchor="middle" x="156.3869" y="-38.3266" font-family="Helvetica,sans-Serif" font-size="10.00" fill="#000000">11</text>
</a>
</g>
</g>
<!-- dir_7d726f5d71fc5d89b5839395dd23efbe -->
<g id="node2" class="node">
<title>dir_7d726f5d71fc5d89b5839395dd23efbe</title>
<g id="a_node2"><a xlink:href="dir_7d726f5d71fc5d89b5839395dd23efbe.html" target="_top" xlink:title="tests">
<polygon fill="#ffffff" stroke="#000000" points="150,-180 96,-180 96,-144 150,-144 150,-180"/>
<text text-anchor="middle" x="123" y="-159.5" font-family="Helvetica,sans-Serif" font-size="10.00" fill="#000000">tests</text>
</a>
</g>
</g>
<!-- dir_541eb0a6c58a7690acc5b848a4b1b724 -->
<g id="node3" class="node">
<title>dir_541eb0a6c58a7690acc5b848a4b1b724</title>
<g id="a_node3"><a xlink:href="dir_541eb0a6c58a7690acc5b848a4b1b724.html" target="_top" xlink:title="com">
<polygon fill="#ffffff" stroke="#ff0000" points="220,-259 166,-259 166,-223 220,-223 220,-259"/>
<text text-anchor="middle" x="193" y="-238.5" font-family="Helvetica,sans-Serif" font-size="10.00" fill="#000000">com</text>
</a>
</g>
</g>
<!-- dir_7d726f5d71fc5d89b5839395dd23efbe&#45;&gt;dir_541eb0a6c58a7690acc5b848a4b1b724 -->
<g id="edge5" class="edge">
<title>dir_7d726f5d71fc5d89b5839395dd23efbe&#45;&gt;dir_541eb0a6c58a7690acc5b848a4b1b724</title>
<path fill="none" stroke="#000000" d="M139.1473,-180.2234C148.3199,-190.5753 159.9549,-203.7062 170.0612,-215.1119"/>
<polygon fill="#000000" stroke="#000000" points="167.5131,-217.5138 176.7646,-222.6772 172.7523,-212.8715 167.5131,-217.5138"/>
<g id="a_edge5&#45;headlabel"><a xlink:href="dir_000045_000005.html" target="_top" xlink:title="2">
<text text-anchor="middle" x="163.0042" y="-214.2064" font-family="Helvetica,sans-Serif" font-size="10.00" fill="#000000">2</text>
</a>
</g>
</g>
<!-- dir_ae9a93452e2a84339148a16bcf2eb561 -->
<g id="node4" class="node">
<title>dir_ae9a93452e2a84339148a16bcf2eb561</title>
<g id="a_node4"><a xlink:href="dir_ae9a93452e2a84339148a16bcf2eb561.html" target="_top" xlink:title="math">
<polygon fill="#ffffff" stroke="#ff0000" points="284,-180 230,-180 230,-144 284,-144 284,-180"/>
<text text-anchor="middle" x="257" y="-159.5" font-family="Helvetica,sans-Serif" font-size="10.00" fill="#000000">math</text>
</a>
</g>
</g>
<!-- dir_7d726f5d71fc5d89b5839395dd23efbe&#45;&gt;dir_ae9a93452e2a84339148a16bcf2eb561 -->
<g id="edge6" class="edge">
<title>dir_7d726f5d71fc5d89b5839395dd23efbe&#45;&gt;dir_ae9a93452e2a84339148a16bcf2eb561</title>
<path fill="none" stroke="#000000" d="M150.2188,-162C173.3518,-162 196.4848,-162 219.6178,-162"/>
<polygon fill="#000000" stroke="#000000" points="219.8876,-165.5001 229.8876,-162 219.8875,-158.5001 219.8876,-165.5001"/>
<g id="a_edge6&#45;headlabel"><a xlink:href="dir_000045_000034.html" target="_top" xlink:title="8">
<text text-anchor="middle" x="216.293" y="-165.8393" font-family="Helvetica,sans-Serif" font-size="10.00" fill="#000000">8</text>
</a>
</g>
</g>
<!-- dir_3513c77e68d0de165c8b48f945306dcb -->
<g id="node5" class="node">
<title>dir_3513c77e68d0de165c8b48f945306dcb</title>
<g id="a_node5"><a xlink:href="dir_3513c77e68d0de165c8b48f945306dcb.html" target="_top" xlink:title="testing">
<polygon fill="#ffffff" stroke="#ff0000" points="220,-108 166,-108 166,-72 220,-72 220,-108"/>
<text text-anchor="middle" x="193" y="-87.5" font-family="Helvetica,sans-Serif" font-size="10.00" fill="#000000">testing</text>
</a>
</g>
</g>
<!-- dir_7d726f5d71fc5d89b5839395dd23efbe&#45;&gt;dir_3513c77e68d0de165c8b48f945306dcb -->
<g id="edge7" class="edge">
<title>dir_7d726f5d71fc5d89b5839395dd23efbe&#45;&gt;dir_3513c77e68d0de165c8b48f945306dcb</title>
<path fill="none" stroke="#000000" d="M140.664,-143.8314C148.9732,-135.2848 159.0264,-124.9443 168.0918,-115.6198"/>
<polygon fill="#000000" stroke="#000000" points="170.6369,-118.023 175.0982,-108.4133 165.6179,-113.1435 170.6369,-118.023"/>
<g id="a_edge7&#45;headlabel"><a xlink:href="dir_000045_000024.html" target="_top" xlink:title="18">
<text text-anchor="middle" x="170.1669" y="-120.0795" font-family="Helvetica,sans-Serif" font-size="10.00" fill="#000000">18</text>
</a>
</g>
</g>
<!-- dir_541eb0a6c58a7690acc5b848a4b1b724&#45;&gt;dir_313caf1132e152dd9b58bea13a4052ca -->
<g id="edge4" class="edge">
<title>dir_541eb0a6c58a7690acc5b848a4b1b724&#45;&gt;dir_313caf1132e152dd9b58bea13a4052ca</title>
<path fill="none" stroke="#000000" d="M165.7184,-236.6007C138.7035,-231.844 99.6034,-223.7589 87,-215 77.5169,-208.4096 69.8046,-198.4478 63.9865,-188.933"/>
<polygon fill="#000000" stroke="#000000" points="66.9517,-187.0656 58.9928,-180.0722 60.8534,-190.5024 66.9517,-187.0656"/>
<g id="a_edge4&#45;headlabel"><a xlink:href="dir_000005_000044.html" target="_top" xlink:title="22">
<text text-anchor="middle" x="71.19" y="-186.3031" font-family="Helvetica,sans-Serif" font-size="10.00" fill="#000000">22</text>
</a>
</g>
</g>
<!-- dir_541eb0a6c58a7690acc5b848a4b1b724&#45;&gt;dir_ae9a93452e2a84339148a16bcf2eb561 -->
<g id="edge1" class="edge">
<title>dir_541eb0a6c58a7690acc5b848a4b1b724&#45;&gt;dir_ae9a93452e2a84339148a16bcf2eb561</title>
<path fill="none" stroke="#000000" d="M209.2398,-222.9488C211.5374,-220.3066 213.8483,-217.6 216,-215 223.0091,-206.5307 230.4303,-197.0921 237.0044,-188.5539"/>
<polygon fill="#000000" stroke="#000000" points="239.9565,-190.4552 243.2494,-180.3851 234.3954,-186.2038 239.9565,-190.4552"/>
<g id="a_edge1&#45;headlabel"><a xlink:href="dir_000005_000034.html" target="_top" xlink:title="3">
<text text-anchor="middle" x="240.029" y="-192.5353" font-family="Helvetica,sans-Serif" font-size="10.00" fill="#000000">3</text>
</a>
</g>
</g>
<!-- dir_541eb0a6c58a7690acc5b848a4b1b724&#45;&gt;dir_3513c77e68d0de165c8b48f945306dcb -->
<g id="edge2" class="edge">
<title>dir_541eb0a6c58a7690acc5b848a4b1b724&#45;&gt;dir_3513c77e68d0de165c8b48f945306dcb</title>
<path fill="none" stroke="#000000" d="M188.4155,-222.7859C185.8346,-196.824 185.5607,-148.9387 187.5938,-118.3233"/>
<polygon fill="#000000" stroke="#000000" points="191.0885,-118.5291 188.4091,-108.2787 184.1114,-117.9627 191.0885,-118.5291"/>
<g id="a_edge2&#45;headlabel"><a xlink:href="dir_000005_000024.html" target="_top" xlink:title="12">
<text text-anchor="middle" x="193.6277" y="-119.8417" font-family="Helvetica,sans-Serif" font-size="10.00" fill="#000000">12</text>
</a>
</g>
</g>
<!-- dir_541eb0a6c58a7690acc5b848a4b1b724&#45;&gt;dir_b3320b59a4aa4a7431bc8488b87009bf -->
<g id="edge3" class="edge">
<title>dir_541eb0a6c58a7690acc5b848a4b1b724&#45;&gt;dir_b3320b59a4aa4a7431bc8488b87009bf</title>
<path fill="none" stroke="#000000" d="M220.4432,-237.6354C246.8918,-233.762 284.1668,-226.4236 293,-215 336.0706,-159.299 265.9492,-82.1829 222.8252,-43.0068"/>
<polygon fill="#000000" stroke="#000000" points="224.9167,-40.1827 215.1206,-36.147 220.2619,-45.4108 224.9167,-40.1827"/>
<g id="a_edge3&#45;headlabel"><a xlink:href="dir_000005_000027.html" target="_top" xlink:title="22">
<text text-anchor="middle" x="229.4894" y="-37.9524" font-family="Helvetica,sans-Serif" font-size="10.00" fill="#000000">22</text>
</a>
</g>
</g>
<!-- dir_ae9a93452e2a84339148a16bcf2eb561&#45;&gt;dir_313caf1132e152dd9b58bea13a4052ca -->
<g id="edge10" class="edge">
<title>dir_ae9a93452e2a84339148a16bcf2eb561&#45;&gt;dir_313caf1132e152dd9b58bea13a4052ca</title>
<path fill="none" stroke="#000000" d="M248.799,-180.2261C240.7132,-195.2756 226.7015,-214.8191 207,-219 182.8707,-224.1206 120.1293,-224.1206 96,-219 91.7181,-218.0913 90.3587,-217.8071 87,-215 78.4224,-207.831 71.0314,-198.1226 65.2172,-188.9734"/>
<polygon fill="#000000" stroke="#000000" points="68.0697,-186.9231 59.943,-180.1255 62.0569,-190.5073 68.0697,-186.9231"/>
<g id="a_edge10&#45;headlabel"><a xlink:href="dir_000034_000044.html" target="_top" xlink:title="7">
<text text-anchor="middle" x="72.349" y="-186.0571" font-family="Helvetica,sans-Serif" font-size="10.00" fill="#000000">7</text>
</a>
</g>
</g>
<!-- dir_ae9a93452e2a84339148a16bcf2eb561&#45;&gt;dir_3513c77e68d0de165c8b48f945306dcb -->
<g id="edge8" class="edge">
<title>dir_ae9a93452e2a84339148a16bcf2eb561&#45;&gt;dir_3513c77e68d0de165c8b48f945306dcb</title>
<path fill="none" stroke="#000000" d="M234.8977,-143.8314C226.6348,-135.454 217.4665,-125.3531 209.7452,-116.1749"/>
<polygon fill="#000000" stroke="#000000" points="212.4341,-113.9341 203.3913,-108.4133 207.0175,-118.3683 212.4341,-113.9341"/>
<g id="a_edge8&#45;headlabel"><a xlink:href="dir_000034_000024.html" target="_top" xlink:title="6">
<text text-anchor="middle" x="216.908" y="-112.4171" font-family="Helvetica,sans-Serif" font-size="10.00" fill="#000000">6</text>
</a>
</g>
</g>
<!-- dir_ae9a93452e2a84339148a16bcf2eb561&#45;&gt;dir_b3320b59a4aa4a7431bc8488b87009bf -->
<g id="edge9" class="edge">
<title>dir_ae9a93452e2a84339148a16bcf2eb561&#45;&gt;dir_b3320b59a4aa4a7431bc8488b87009bf</title>
<path fill="none" stroke="#000000" d="M252.9774,-143.8419C248.4882,-125.2477 240.3362,-95.7819 229,-72 224.5381,-62.6396 218.6318,-53.0304 212.8961,-44.561"/>
<polygon fill="#000000" stroke="#000000" points="215.65,-42.3917 207.0484,-36.2058 209.915,-46.4055 215.65,-42.3917"/>
<g id="a_edge9&#45;headlabel"><a xlink:href="dir_000034_000027.html" target="_top" xlink:title="4">
<text text-anchor="middle" x="220.0372" y="-41.2086" font-family="Helvetica,sans-Serif" font-size="10.00" fill="#000000">4</text>
</a>
</g>
</g>
<!-- dir_3513c77e68d0de165c8b48f945306dcb&#45;&gt;dir_313caf1132e152dd9b58bea13a4052ca -->
<g id="edge14" class="edge">
<title>dir_3513c77e68d0de165c8b48f945306dcb&#45;&gt;dir_313caf1132e152dd9b58bea13a4052ca</title>
<path fill="none" stroke="#000000" d="M165.8134,-99.4347C135.5877,-109.9709 90.5197,-125.8395 87,-128 82.8238,-130.5635 78.7226,-133.671 74.87,-136.9531"/>
<polygon fill="#000000" stroke="#000000" points="72.3827,-134.4849 67.3669,-143.8173 77.1077,-139.6497 72.3827,-134.4849"/>
<g id="a_edge14&#45;headlabel"><a xlink:href="dir_000024_000044.html" target="_top" xlink:title="10">
<text text-anchor="middle" x="73.1184" y="-127.4638" font-family="Helvetica,sans-Serif" font-size="10.00" fill="#000000">10</text>
</a>
</g>
</g>
<!-- dir_3513c77e68d0de165c8b48f945306dcb&#45;&gt;dir_541eb0a6c58a7690acc5b848a4b1b724 -->
<g id="edge11" class="edge">
<title>dir_3513c77e68d0de165c8b48f945306dcb&#45;&gt;dir_541eb0a6c58a7690acc5b848a4b1b724</title>
<path fill="none" stroke="#000000" d="M197.5909,-108.2787C200.168,-134.2769 200.4381,-182.166 198.4012,-212.7528"/>
<polygon fill="#000000" stroke="#000000" points="194.9074,-212.5348 197.5845,-222.7859 201.8844,-213.1028 194.9074,-212.5348"/>
<g id="a_edge11&#45;headlabel"><a xlink:href="dir_000024_000005.html" target="_top" xlink:title="8">
<text text-anchor="middle" x="192.3691" y="-206.2218" font-family="Helvetica,sans-Serif" font-size="10.00" fill="#000000">8</text>
</a>
</g>
</g>
<!-- dir_3513c77e68d0de165c8b48f945306dcb&#45;&gt;dir_ae9a93452e2a84339148a16bcf2eb561 -->
<g id="edge12" class="edge">
<title>dir_3513c77e68d0de165c8b48f945306dcb&#45;&gt;dir_ae9a93452e2a84339148a16bcf2eb561</title>
<path fill="none" stroke="#000000" d="M215.3434,-108.4133C223.54,-116.7389 232.6014,-126.7282 240.2458,-135.8144"/>
<polygon fill="#000000" stroke="#000000" points="237.7623,-138.3063 246.8025,-143.8314 243.1809,-133.8747 237.7623,-138.3063"/>
<g id="a_edge12&#45;headlabel"><a xlink:href="dir_000024_000034.html" target="_top" xlink:title="3">
<text text-anchor="middle" x="233.2888" y="-134.8213" font-family="Helvetica,sans-Serif" font-size="10.00" fill="#000000">3</text>
</a>
</g>
</g>
<!-- dir_3513c77e68d0de165c8b48f945306dcb&#45;&gt;dir_b3320b59a4aa4a7431bc8488b87009bf -->
<g id="edge13" class="edge">
<title>dir_3513c77e68d0de165c8b48f945306dcb&#45;&gt;dir_b3320b59a4aa4a7431bc8488b87009bf</title>
<path fill="none" stroke="#000000" d="M193,-71.8314C193,-64.131 193,-54.9743 193,-46.4166"/>
<polygon fill="#000000" stroke="#000000" points="196.5001,-46.4132 193,-36.4133 189.5001,-46.4133 196.5001,-46.4132"/>
<g id="a_edge13&#45;headlabel"><a xlink:href="dir_000024_000027.html" target="_top" xlink:title="3">
<text text-anchor="middle" x="199.3393" y="-47.5079" font-family="Helvetica,sans-Serif" font-size="10.00" fill="#000000">3</text>
</a>
</g>
</g>
<!-- dir_b3320b59a4aa4a7431bc8488b87009bf&#45;&gt;dir_313caf1132e152dd9b58bea13a4052ca -->
<g id="edge15" class="edge">
<title>dir_b3320b59a4aa4a7431bc8488b87009bf&#45;&gt;dir_313caf1132e152dd9b58bea13a4052ca</title>
<path fill="none" stroke="#000000" d="M175.1616,-36.0896C150.1678,-61.4355 104.6059,-107.639 76.1704,-136.4751"/>
<polygon fill="#000000" stroke="#000000" points="73.5137,-134.1844 68.9844,-143.7623 78.498,-139.0994 73.5137,-134.1844"/>
<g id="a_edge15&#45;headlabel"><a xlink:href="dir_000027_000044.html" target="_top" xlink:title="3">
<text text-anchor="middle" x="74.016" y="-127.1314" font-family="Helvetica,sans-Serif" font-size="10.00" fill="#000000">3</text>
</a>
</g>
</g>
</g>
</svg>
