<?xml version="1.0" encoding="UTF-8" standalone="no"?>
<!DOCTYPE svg PUBLIC "-//W3C//DTD SVG 1.1//EN"
 "http://www.w3.org/Graphics/SVG/1.1/DTD/svg11.dtd">
<!-- Generated by graphviz version 2.40.1 (20161225.0304)
 -->
<!-- Title: src/com Pages: 1 -->
<svg width="686pt" height="591pt"
 viewBox="0.00 0.00 686.00 591.00" xmlns="http://www.w3.org/2000/svg" xmlns:xlink="http://www.w3.org/1999/xlink">
<g id="graph0" class="graph" transform="scale(1 1) rotate(0) translate(4 587)">
<title>src/com</title>
<polygon fill="#ffffff" stroke="transparent" points="-4,4 -4,-587 682,-587 682,4 -4,4"/>
<g id="clust1" class="cluster">
<title>clusterdir_68267d1309a1af8e8297ef4c3efbcdba</title>
<g id="a_clust1"><a xlink:href="dir_68267d1309a1af8e8297ef4c3efbcdba.html" target="_top" xlink:title="src">
<polygon fill="#ddddee" stroke="#000000" points="241,-488 241,-575 471,-575 471,-488 241,-488"/>
<text text-anchor="middle" x="356" y="-563" font-family="Helvetica,sans-Serif" font-size="10.00" fill="#000000">src</text>
</a>
</g>
</g>
<g id="clust2" class="cluster">
<title>clusterdir_541eb0a6c58a7690acc5b848a4b1b724</title>
<g id="a_clust2"><a xlink:href="dir_541eb0a6c58a7690acc5b848a4b1b724.html" target="_top">
<polygon fill="#eeeeff" stroke="#000000" points="249,-496 249,-548 463,-548 463,-496 249,-496"/>
</a>
</g>
</g>
<!-- dir_541eb0a6c58a7690acc5b848a4b1b724 -->
<g id="node1" class="node">
<title>dir_541eb0a6c58a7690acc5b848a4b1b724</title>
<text text-anchor="middle" x="428" y="-519.5" font-family="Helvetica,sans-Serif" font-size="10.00" fill="#000000">com</text>
</g>
<!-- dir_7be0d8c199b9408ae01f5d77515b8def -->
<g id="node4" class="node">
<title>dir_7be0d8c199b9408ae01f5d77515b8def</title>
<g id="a_node4"><a xlink:href="dir_7be0d8c199b9408ae01f5d77515b8def.html" target="_top" xlink:title="mesh">
<polygon fill="#ffffff" stroke="#ff0000" points="455,-468 401,-468 401,-432 455,-432 455,-468"/>
<text text-anchor="middle" x="428" y="-447.5" font-family="Helvetica,sans-Serif" font-size="10.00" fill="#000000">mesh</text>
</a>
</g>
</g>
<!-- dir_541eb0a6c58a7690acc5b848a4b1b724&#45;&gt;dir_7be0d8c199b9408ae01f5d77515b8def -->
<g id="edge1" class="edge">
<title>dir_541eb0a6c58a7690acc5b848a4b1b724&#45;&gt;dir_7be0d8c199b9408ae01f5d77515b8def</title>
<path fill="none" stroke="#000000" d="M428,-503.8314C428,-496.131 428,-486.9743 428,-478.4166"/>
<polygon fill="#000000" stroke="#000000" points="431.5001,-478.4132 428,-468.4133 424.5001,-478.4133 431.5001,-478.4132"/>
<g id="a_edge1&#45;headlabel"><a xlink:href="dir_000005_000011.html" target="_top" xlink:title="9">
<text text-anchor="middle" x="434.3393" y="-479.5079" font-family="Helvetica,sans-Serif" font-size="10.00" fill="#000000">9</text>
</a>
</g>
</g>
<!-- dir_b3320b59a4aa4a7431bc8488b87009bf -->
<g id="node9" class="node">
<title>dir_b3320b59a4aa4a7431bc8488b87009bf</title>
<g id="a_node9"><a xlink:href="dir_b3320b59a4aa4a7431bc8488b87009bf.html" target="_top" xlink:title="logging">
<polygon fill="#ffffff" stroke="#ff0000" points="340,-36 286,-36 286,0 340,0 340,-36"/>
<text text-anchor="middle" x="313" y="-15.5" font-family="Helvetica,sans-Serif" font-size="10.00" fill="#000000">logging</text>
</a>
</g>
</g>
<!-- dir_541eb0a6c58a7690acc5b848a4b1b724&#45;&gt;dir_b3320b59a4aa4a7431bc8488b87009bf -->
<g id="edge2" class="edge">
<title>dir_541eb0a6c58a7690acc5b848a4b1b724&#45;&gt;dir_b3320b59a4aa4a7431bc8488b87009bf</title>
<path fill="none" stroke="#000000" d="M455.2303,-519.1758C520.0248,-510.8005 678,-479.9289 678,-378 678,-378 678,-378 678,-162 678,-92.0611 443.1747,-41.6741 350.2287,-24.4697"/>
<polygon fill="#000000" stroke="#000000" points="350.6018,-20.9801 340.1361,-22.6292 349.3459,-27.8666 350.6018,-20.9801"/>
<g id="a_edge2&#45;headlabel"><a xlink:href="dir_000005_000027.html" target="_top" xlink:title="22">
<text text-anchor="middle" x="354.6475" y="-16.3317" font-family="Helvetica,sans-Serif" font-size="10.00" fill="#000000">22</text>
</a>
</g>
</g>
<!-- dir_313caf1132e152dd9b58bea13a4052ca -->
<g id="node10" class="node">
<title>dir_313caf1132e152dd9b58bea13a4052ca</title>
<g id="a_node10"><a xlink:href="dir_313caf1132e152dd9b58bea13a4052ca.html" target="_top" xlink:title="utils">
<polygon fill="#ffffff" stroke="#ff0000" points="340,-108 286,-108 286,-72 340,-72 340,-108"/>
<text text-anchor="middle" x="313" y="-87.5" font-family="Helvetica,sans-Serif" font-size="10.00" fill="#000000">utils</text>
</a>
</g>
</g>
<!-- dir_541eb0a6c58a7690acc5b848a4b1b724&#45;&gt;dir_313caf1132e152dd9b58bea13a4052ca -->
<g id="edge3" class="edge">
<title>dir_541eb0a6c58a7690acc5b848a4b1b724&#45;&gt;dir_313caf1132e152dd9b58bea13a4052ca</title>
<path fill="none" stroke="#000000" d="M453.9507,-503.918C466.3421,-494.3195 480.6807,-481.6887 491,-468 512.19,-439.8913 516.494,-430.3914 524,-396 548.0395,-285.8536 570.2242,-227.9728 495,-144 475.7412,-122.5014 397.6421,-105.1433 350.2316,-96.3234"/>
<polygon fill="#000000" stroke="#000000" points="350.7913,-92.8679 340.3264,-94.5216 349.5385,-99.7549 350.7913,-92.8679"/>
<g id="a_edge3&#45;headlabel"><a xlink:href="dir_000005_000044.html" target="_top" xlink:title="22">
<text text-anchor="middle" x="354.836" y="-88.2177" font-family="Helvetica,sans-Serif" font-size="10.00" fill="#000000">22</text>
</a>
</g>
</g>
<!-- dir_f9016d5ec7088aa0a43fbcc426b9a698 -->
<g id="node2" class="node">
<title>dir_f9016d5ec7088aa0a43fbcc426b9a698</title>
<g id="a_node2"><a xlink:href="dir_f9016d5ec7088aa0a43fbcc426b9a698.html" target="_top" xlink:title="config">
<polygon fill="#ffffff" stroke="#000000" points="311,-540 257,-540 257,-504 311,-504 311,-540"/>
<text text-anchor="middle" x="284" y="-519.5" font-family="Helvetica,sans-Serif" font-size="10.00" fill="#000000">config</text>
</a>
</g>
</g>
<!-- dir_c43b215a2ade73e6562bd37d8a11c12a -->
<g id="node5" class="node">
<title>dir_c43b215a2ade73e6562bd37d8a11c12a</title>
<g id="a_node5"><a xlink:href="dir_c43b215a2ade73e6562bd37d8a11c12a.html" target="_top" xlink:title="xml">
<polygon fill="#ffffff" stroke="#ff0000" points="224,-396 170,-396 170,-360 224,-360 224,-396"/>
<text text-anchor="middle" x="197" y="-375.5" font-family="Helvetica,sans-Serif" font-size="10.00" fill="#000000">xml</text>
</a>
</g>
</g>
<!-- dir_f9016d5ec7088aa0a43fbcc426b9a698&#45;&gt;dir_c43b215a2ade73e6562bd37d8a11c12a -->
<g id="edge4" class="edge">
<title>dir_f9016d5ec7088aa0a43fbcc426b9a698&#45;&gt;dir_c43b215a2ade73e6562bd37d8a11c12a</title>
<path fill="none" stroke="#000000" d="M272.9814,-503.7623C257.8808,-478.7682 230.6475,-433.6924 213.2164,-404.8409"/>
<polygon fill="#000000" stroke="#000000" points="216.0961,-402.8389 207.9291,-396.0896 210.1046,-406.4587 216.0961,-402.8389"/>
<g id="a_edge4&#45;headlabel"><a xlink:href="dir_000019_000046.html" target="_top" xlink:title="2">
<text text-anchor="middle" x="220.385" y="-401.9473" font-family="Helvetica,sans-Serif" font-size="10.00" fill="#000000">2</text>
</a>
</g>
</g>
<!-- dir_f9016d5ec7088aa0a43fbcc426b9a698&#45;&gt;dir_b3320b59a4aa4a7431bc8488b87009bf -->
<g id="edge5" class="edge">
<title>dir_f9016d5ec7088aa0a43fbcc426b9a698&#45;&gt;dir_b3320b59a4aa4a7431bc8488b87009bf</title>
<path fill="none" stroke="#000000" d="M256.7689,-520.7699C185.686,-515.9569 0,-492.4326 0,-378 0,-378 0,-378 0,-162 0,-101.8522 193.17,-47.3373 276.0039,-26.7255"/>
<polygon fill="#000000" stroke="#000000" points="276.895,-30.1108 285.7708,-24.3254 275.2245,-23.313 276.895,-30.1108"/>
<g id="a_edge5&#45;headlabel"><a xlink:href="dir_000019_000027.html" target="_top" xlink:title="2">
<text text-anchor="middle" x="274.0818" y="-31.2257" font-family="Helvetica,sans-Serif" font-size="10.00" fill="#000000">2</text>
</a>
</g>
</g>
<!-- dir_f9016d5ec7088aa0a43fbcc426b9a698&#45;&gt;dir_313caf1132e152dd9b58bea13a4052ca -->
<g id="edge6" class="edge">
<title>dir_f9016d5ec7088aa0a43fbcc426b9a698&#45;&gt;dir_313caf1132e152dd9b58bea13a4052ca</title>
<path fill="none" stroke="#000000" d="M256.7338,-518.9569C192.6847,-510.1436 38,-478.4594 38,-378 38,-378 38,-378 38,-306 38,-186.4114 200.824,-122.9721 275.895,-100.0784"/>
<polygon fill="#000000" stroke="#000000" points="277.2883,-103.3158 285.8793,-97.1154 275.2968,-96.6051 277.2883,-103.3158"/>
<g id="a_edge6&#45;headlabel"><a xlink:href="dir_000019_000044.html" target="_top" xlink:title="2">
<text text-anchor="middle" x="274.65" y="-104.5604" font-family="Helvetica,sans-Serif" font-size="10.00" fill="#000000">2</text>
</a>
</g>
</g>
<!-- dir_e006ce88d12a024087c48b77c66baf3c -->
<g id="node3" class="node">
<title>dir_e006ce88d12a024087c48b77c66baf3c</title>
<g id="a_node3"><a xlink:href="dir_e006ce88d12a024087c48b77c66baf3c.html" target="_top" xlink:title="tests">
<polygon fill="#ffffff" stroke="#000000" points="383,-540 329,-540 329,-504 383,-504 383,-540"/>
<text text-anchor="middle" x="356" y="-519.5" font-family="Helvetica,sans-Serif" font-size="10.00" fill="#000000">tests</text>
</a>
</g>
</g>
<!-- dir_e006ce88d12a024087c48b77c66baf3c&#45;&gt;dir_7be0d8c199b9408ae01f5d77515b8def -->
<g id="edge12" class="edge">
<title>dir_e006ce88d12a024087c48b77c66baf3c&#45;&gt;dir_7be0d8c199b9408ae01f5d77515b8def</title>
<path fill="none" stroke="#000000" d="M374.1686,-503.8314C382.7152,-495.2848 393.0557,-484.9443 402.3802,-475.6198"/>
<polygon fill="#000000" stroke="#000000" points="404.9905,-477.9592 409.5867,-468.4133 400.0408,-473.0095 404.9905,-477.9592"/>
<g id="a_edge12&#45;headlabel"><a xlink:href="dir_000020_000011.html" target="_top" xlink:title="3">
<text text-anchor="middle" x="404.4564" y="-480.0087" font-family="Helvetica,sans-Serif" font-size="10.00" fill="#000000">3</text>
</a>
</g>
</g>
<!-- dir_ae9a93452e2a84339148a16bcf2eb561 -->
<g id="node6" class="node">
<title>dir_ae9a93452e2a84339148a16bcf2eb561</title>
<g id="a_node6"><a xlink:href="dir_ae9a93452e2a84339148a16bcf2eb561.html" target="_top" xlink:title="math">
<polygon fill="#ffffff" stroke="#ff0000" points="290,-324 236,-324 236,-288 290,-288 290,-324"/>
<text text-anchor="middle" x="263" y="-303.5" font-family="Helvetica,sans-Serif" font-size="10.00" fill="#000000">math</text>
</a>
</g>
</g>
<!-- dir_e006ce88d12a024087c48b77c66baf3c&#45;&gt;dir_ae9a93452e2a84339148a16bcf2eb561 -->
<g id="edge13" class="edge">
<title>dir_e006ce88d12a024087c48b77c66baf3c&#45;&gt;dir_ae9a93452e2a84339148a16bcf2eb561</title>
<path fill="none" stroke="#000000" d="M348.2308,-503.9555C331.9559,-466.1556 294.194,-378.4506 274.8646,-333.5564"/>
<polygon fill="#000000" stroke="#000000" points="277.9818,-331.9458 270.8125,-324.1451 271.5524,-334.714 277.9818,-331.9458"/>
<g id="a_edge13&#45;headlabel"><a xlink:href="dir_000020_000034.html" target="_top" xlink:title="3">
<text text-anchor="middle" x="282.0111" y="-331.6246" font-family="Helvetica,sans-Serif" font-size="10.00" fill="#000000">3</text>
</a>
</g>
</g>
<!-- dir_3513c77e68d0de165c8b48f945306dcb -->
<g id="node7" class="node">
<title>dir_3513c77e68d0de165c8b48f945306dcb</title>
<g id="a_node7"><a xlink:href="dir_3513c77e68d0de165c8b48f945306dcb.html" target="_top" xlink:title="testing">
<polygon fill="#ffffff" stroke="#ff0000" points="462,-252 408,-252 408,-216 462,-216 462,-252"/>
<text text-anchor="middle" x="435" y="-231.5" font-family="Helvetica,sans-Serif" font-size="10.00" fill="#000000">testing</text>
</a>
</g>
</g>
<!-- dir_e006ce88d12a024087c48b77c66baf3c&#45;&gt;dir_3513c77e68d0de165c8b48f945306dcb -->
<g id="edge14" class="edge">
<title>dir_e006ce88d12a024087c48b77c66baf3c&#45;&gt;dir_3513c77e68d0de165c8b48f945306dcb</title>
<path fill="none" stroke="#000000" d="M360.9418,-503.9843C374.3256,-455.1929 411.3445,-320.2377 427.4037,-261.6927"/>
<polygon fill="#000000" stroke="#000000" points="430.79,-262.5785 430.0601,-252.0089 424.0393,-260.7268 430.79,-262.5785"/>
<g id="a_edge14&#45;headlabel"><a xlink:href="dir_000020_000024.html" target="_top" xlink:title="12">
<text text-anchor="middle" x="432.5773" y="-264.2962" font-family="Helvetica,sans-Serif" font-size="10.00" fill="#000000">12</text>
</a>
</g>
</g>
<!-- dir_674392b9e8b7e1553d8d6e614bc96d17 -->
<g id="node8" class="node">
<title>dir_674392b9e8b7e1553d8d6e614bc96d17</title>
<g id="a_node8"><a xlink:href="dir_674392b9e8b7e1553d8d6e614bc96d17.html" target="_top" xlink:title="m2n">
<polygon fill="#ffffff" stroke="#ff0000" points="486,-180 432,-180 432,-144 486,-144 486,-180"/>
<text text-anchor="middle" x="459" y="-159.5" font-family="Helvetica,sans-Serif" font-size="10.00" fill="#000000">m2n</text>
</a>
</g>
</g>
<!-- dir_e006ce88d12a024087c48b77c66baf3c&#45;&gt;dir_674392b9e8b7e1553d8d6e614bc96d17 -->
<g id="edge15" class="edge">
<title>dir_e006ce88d12a024087c48b77c66baf3c&#45;&gt;dir_674392b9e8b7e1553d8d6e614bc96d17</title>
<path fill="none" stroke="#000000" d="M371.8281,-503.8655C377.6681,-498.0946 384.6633,-492.1414 392,-488 420.922,-471.6742 441.874,-492.768 464,-468 538.8995,-384.1569 512.5894,-325.2365 486,-216 483.7666,-206.8247 479.7612,-197.4194 475.5075,-189.0823"/>
<polygon fill="#000000" stroke="#000000" points="478.5284,-187.3108 470.6808,-180.1927 472.3766,-190.6509 478.5284,-187.3108"/>
<g id="a_edge15&#45;headlabel"><a xlink:href="dir_000020_000009.html" target="_top" xlink:title="2">
<text text-anchor="middle" x="482.7387" y="-186.615" font-family="Helvetica,sans-Serif" font-size="10.00" fill="#000000">2</text>
</a>
</g>
</g>
<!-- dir_e006ce88d12a024087c48b77c66baf3c&#45;&gt;dir_313caf1132e152dd9b58bea13a4052ca -->
<g id="edge16" class="edge">
<title>dir_e006ce88d12a024087c48b77c66baf3c&#45;&gt;dir_313caf1132e152dd9b58bea13a4052ca</title>
<path fill="none" stroke="#000000" d="M338.413,-503.8379C332.7733,-498.4484 326.3406,-492.7276 320,-488 242.3912,-430.1335 132,-474.8073 132,-378 132,-378 132,-378 132,-306 132,-216.5067 224.4084,-144.6261 277.1693,-110.879"/>
<polygon fill="#000000" stroke="#000000" points="279.2855,-113.6834 285.9025,-105.409 275.5697,-107.751 279.2855,-113.6834"/>
<g id="a_edge16&#45;headlabel"><a xlink:href="dir_000020_000044.html" target="_top" xlink:title="4">
<text text-anchor="middle" x="277.7463" y="-115.4977" font-family="Helvetica,sans-Serif" font-size="10.00" fill="#000000">4</text>
</a>
</g>
</g>
<!-- dir_7be0d8c199b9408ae01f5d77515b8def&#45;&gt;dir_c43b215a2ade73e6562bd37d8a11c12a -->
<g id="edge7" class="edge">
<title>dir_7be0d8c199b9408ae01f5d77515b8def&#45;&gt;dir_c43b215a2ade73e6562bd37d8a11c12a</title>
<path fill="none" stroke="#000000" d="M400.5941,-441.4579C359.0639,-428.5134 280.1217,-403.908 233.6826,-389.4335"/>
<polygon fill="#000000" stroke="#000000" points="234.6013,-386.0539 224.0128,-386.4196 232.5183,-392.7368 234.6013,-386.0539"/>
<g id="a_edge7&#45;headlabel"><a xlink:href="dir_000011_000046.html" target="_top" xlink:title="7">
<text text-anchor="middle" x="238.8779" y="-381.9128" font-family="Helvetica,sans-Serif" font-size="10.00" fill="#000000">7</text>
</a>
</g>
</g>
<!-- dir_7be0d8c199b9408ae01f5d77515b8def&#45;&gt;dir_ae9a93452e2a84339148a16bcf2eb561 -->
<g id="edge8" class="edge">
<title>dir_7be0d8c199b9408ae01f5d77515b8def&#45;&gt;dir_ae9a93452e2a84339148a16bcf2eb561</title>
<path fill="none" stroke="#000000" d="M407.1026,-431.7623C377.8437,-406.2272 324.5675,-359.7316 291.635,-330.9906"/>
<polygon fill="#000000" stroke="#000000" points="293.5633,-328.028 283.7277,-324.0896 288.9606,-333.302 293.5633,-328.028"/>
<g id="a_edge8&#45;headlabel"><a xlink:href="dir_000011_000034.html" target="_top" xlink:title="9">
<text text-anchor="middle" x="298.1385" y="-325.7524" font-family="Helvetica,sans-Serif" font-size="10.00" fill="#000000">9</text>
</a>
</g>
</g>
<!-- dir_7be0d8c199b9408ae01f5d77515b8def&#45;&gt;dir_3513c77e68d0de165c8b48f945306dcb -->
<g id="edge9" class="edge">
<title>dir_7be0d8c199b9408ae01f5d77515b8def&#45;&gt;dir_3513c77e68d0de165c8b48f945306dcb</title>
<path fill="none" stroke="#000000" d="M424.6389,-431.9555C422.4003,-394.3144 424.9645,-307.1867 429.3647,-262.1246"/>
<polygon fill="#000000" stroke="#000000" points="432.8481,-262.4665 430.4568,-252.1451 425.8896,-261.7049 432.8481,-262.4665"/>
<g id="a_edge9&#45;headlabel"><a xlink:href="dir_000011_000024.html" target="_top" xlink:title="16">
<text text-anchor="middle" x="435.2795" y="-263.8486" font-family="Helvetica,sans-Serif" font-size="10.00" fill="#000000">16</text>
</a>
</g>
</g>
<!-- dir_7be0d8c199b9408ae01f5d77515b8def&#45;&gt;dir_b3320b59a4aa4a7431bc8488b87009bf -->
<g id="edge10" class="edge">
<title>dir_7be0d8c199b9408ae01f5d77515b8def&#45;&gt;dir_b3320b59a4aa4a7431bc8488b87009bf</title>
<path fill="none" stroke="#000000" d="M445.8313,-431.9472C454.6376,-422.0757 464.6988,-409.1932 471,-396 519.8736,-293.67 544.3802,-252.3781 511,-144 499.6063,-107.0074 492.5676,-95.7465 462,-72 428.8651,-46.2591 382.3346,-32.0237 350.1253,-24.7204"/>
<polygon fill="#000000" stroke="#000000" points="350.7186,-21.2681 340.2061,-22.587 349.2466,-28.1116 350.7186,-21.2681"/>
<g id="a_edge10&#45;headlabel"><a xlink:href="dir_000011_000027.html" target="_top" xlink:title="18">
<text text-anchor="middle" x="354.8298" y="-16.748" font-family="Helvetica,sans-Serif" font-size="10.00" fill="#000000">18</text>
</a>
</g>
</g>
<!-- dir_7be0d8c199b9408ae01f5d77515b8def&#45;&gt;dir_313caf1132e152dd9b58bea13a4052ca -->
<g id="edge11" class="edge">
<title>dir_7be0d8c199b9408ae01f5d77515b8def&#45;&gt;dir_313caf1132e152dd9b58bea13a4052ca</title>
<path fill="none" stroke="#000000" d="M422.139,-431.6526C403.3364,-372.7923 344.4481,-188.4463 321.9027,-117.8694"/>
<polygon fill="#000000" stroke="#000000" points="325.2262,-116.7712 318.8492,-108.3104 318.5582,-118.9013 325.2262,-116.7712"/>
<g id="a_edge11&#45;headlabel"><a xlink:href="dir_000011_000044.html" target="_top" xlink:title="18">
<text text-anchor="middle" x="329.0246" y="-116.8314" font-family="Helvetica,sans-Serif" font-size="10.00" fill="#000000">18</text>
</a>
</g>
</g>
<!-- dir_c43b215a2ade73e6562bd37d8a11c12a&#45;&gt;dir_ae9a93452e2a84339148a16bcf2eb561 -->
<g id="edge17" class="edge">
<title>dir_c43b215a2ade73e6562bd37d8a11c12a&#45;&gt;dir_ae9a93452e2a84339148a16bcf2eb561</title>
<path fill="none" stroke="#000000" d="M213.6546,-359.8314C221.4114,-351.3694 230.7802,-341.1489 239.261,-331.8971"/>
<polygon fill="#000000" stroke="#000000" points="241.9439,-334.1499 246.1212,-324.4133 236.7838,-329.4198 241.9439,-334.1499"/>
<g id="a_edge17&#45;headlabel"><a xlink:href="dir_000046_000034.html" target="_top" xlink:title="2">
<text text-anchor="middle" x="241.608" y="-336.2182" font-family="Helvetica,sans-Serif" font-size="10.00" fill="#000000">2</text>
</a>
</g>
</g>
<!-- dir_c43b215a2ade73e6562bd37d8a11c12a&#45;&gt;dir_3513c77e68d0de165c8b48f945306dcb -->
<g id="edge18" class="edge">
<title>dir_c43b215a2ade73e6562bd37d8a11c12a&#45;&gt;dir_3513c77e68d0de165c8b48f945306dcb</title>
<path fill="none" stroke="#000000" d="M224.3013,-365.4907C245.3689,-355.3825 274.89,-340.2115 299,-324 319.6836,-310.0924 321.5927,-302.31 342,-288 360.0942,-275.312 381.3382,-262.8126 398.9509,-253.0399"/>
<polygon fill="#000000" stroke="#000000" points="400.7083,-256.068 407.7942,-248.1915 397.343,-249.93 400.7083,-256.068"/>
<g id="a_edge18&#45;headlabel"><a xlink:href="dir_000046_000024.html" target="_top" xlink:title="6">
<text text-anchor="middle" x="398.9213" y="-257.7857" font-family="Helvetica,sans-Serif" font-size="10.00" fill="#000000">6</text>
</a>
</g>
</g>
<!-- dir_c43b215a2ade73e6562bd37d8a11c12a&#45;&gt;dir_b3320b59a4aa4a7431bc8488b87009bf -->
<g id="edge19" class="edge">
<title>dir_c43b215a2ade73e6562bd37d8a11c12a&#45;&gt;dir_b3320b59a4aa4a7431bc8488b87009bf</title>
<path fill="none" stroke="#000000" d="M187.8228,-359.9795C183.6381,-341.7448 181.6216,-312.7847 185,-288 198.6296,-188.0093 203.5019,-158.7862 255,-72 261.2583,-61.4533 269.7969,-51.1559 278.4815,-42.4294"/>
<polygon fill="#000000" stroke="#000000" points="280.9337,-44.9274 285.7641,-35.4977 276.1076,-39.857 280.9337,-44.9274"/>
<g id="a_edge19&#45;headlabel"><a xlink:href="dir_000046_000027.html" target="_top" xlink:title="6">
<text text-anchor="middle" x="280.2876" y="-46.9622" font-family="Helvetica,sans-Serif" font-size="10.00" fill="#000000">6</text>
</a>
</g>
</g>
<!-- dir_c43b215a2ade73e6562bd37d8a11c12a&#45;&gt;dir_313caf1132e152dd9b58bea13a4052ca -->
<g id="edge20" class="edge">
<title>dir_c43b215a2ade73e6562bd37d8a11c12a&#45;&gt;dir_313caf1132e152dd9b58bea13a4052ca</title>
<path fill="none" stroke="#000000" d="M196.1855,-359.6591C195.8801,-341.1753 196.8194,-312.0254 204,-288 223.7335,-221.9745 267.6881,-153.3573 293.3456,-116.776"/>
<polygon fill="#000000" stroke="#000000" points="296.5094,-118.366 299.4486,-108.187 290.8032,-114.3114 296.5094,-118.366"/>
<g id="a_edge20&#45;headlabel"><a xlink:href="dir_000046_000044.html" target="_top" xlink:title="6">
<text text-anchor="middle" x="296.7419" y="-120.4408" font-family="Helvetica,sans-Serif" font-size="10.00" fill="#000000">6</text>
</a>
</g>
</g>
<!-- dir_ae9a93452e2a84339148a16bcf2eb561&#45;&gt;dir_3513c77e68d0de165c8b48f945306dcb -->
<g id="edge21" class="edge">
<title>dir_ae9a93452e2a84339148a16bcf2eb561&#45;&gt;dir_3513c77e68d0de165c8b48f945306dcb</title>
<path fill="none" stroke="#000000" d="M290.2049,-290.0545C291.8203,-289.3572 293.4263,-288.6697 295,-288 329.7251,-273.2226 369.8758,-256.7639 398.4157,-245.9459"/>
<polygon fill="#000000" stroke="#000000" points="399.8552,-249.1444 407.9984,-242.3666 397.4059,-242.5869 399.8552,-249.1444"/>
<g id="a_edge21&#45;headlabel"><a xlink:href="dir_000034_000024.html" target="_top" xlink:title="6">
<text text-anchor="middle" x="397.4812" y="-250.5619" font-family="Helvetica,sans-Serif" font-size="10.00" fill="#000000">6</text>
</a>
</g>
</g>
<!-- dir_ae9a93452e2a84339148a16bcf2eb561&#45;&gt;dir_b3320b59a4aa4a7431bc8488b87009bf -->
<g id="edge22" class="edge">
<title>dir_ae9a93452e2a84339148a16bcf2eb561&#45;&gt;dir_b3320b59a4aa4a7431bc8488b87009bf</title>
<path fill="none" stroke="#000000" d="M260.9398,-287.7827C257.0627,-247.5876 251.2257,-148.7775 277,-72 280.2468,-62.3282 285.7006,-52.7427 291.3939,-44.3923"/>
<polygon fill="#000000" stroke="#000000" points="294.3052,-46.3393 297.3311,-36.1857 288.6338,-42.2361 294.3052,-46.3393"/>
<g id="a_edge22&#45;headlabel"><a xlink:href="dir_000034_000027.html" target="_top" xlink:title="4">
<text text-anchor="middle" x="294.4986" y="-48.4158" font-family="Helvetica,sans-Serif" font-size="10.00" fill="#000000">4</text>
</a>
</g>
</g>
<!-- dir_ae9a93452e2a84339148a16bcf2eb561&#45;&gt;dir_313caf1132e152dd9b58bea13a4052ca -->
<g id="edge23" class="edge">
<title>dir_ae9a93452e2a84339148a16bcf2eb561&#45;&gt;dir_313caf1132e152dd9b58bea13a4052ca</title>
<path fill="none" stroke="#000000" d="M263.2311,-287.9555C268.4969,-250.235 288.479,-162.8188 301.8504,-117.8399"/>
<polygon fill="#000000" stroke="#000000" points="305.2377,-118.7326 304.8446,-108.1451 298.5495,-116.6669 305.2377,-118.7326"/>
<g id="a_edge23&#45;headlabel"><a xlink:href="dir_000034_000044.html" target="_top" xlink:title="7">
<text text-anchor="middle" x="306.8899" y="-120.505" font-family="Helvetica,sans-Serif" font-size="10.00" fill="#000000">7</text>
</a>
</g>
</g>
<!-- dir_3513c77e68d0de165c8b48f945306dcb&#45;&gt;dir_541eb0a6c58a7690acc5b848a4b1b724 -->
<g id="edge24" class="edge">
<title>dir_3513c77e68d0de165c8b48f945306dcb&#45;&gt;dir_541eb0a6c58a7690acc5b848a4b1b724</title>
<path fill="none" stroke="#000000" d="M443.2166,-252.0989C447.5061,-262.4023 452.3918,-275.6763 455,-288 479.7237,-404.8195 473.4121,-436.9141 464,-468 461.0436,-477.7645 455.6748,-487.3771 449.97,-495.7238"/>
<polygon fill="#000000" stroke="#000000" points="447.0586,-493.7761 443.9905,-503.9169 452.7129,-497.9027 447.0586,-493.7761"/>
<g id="a_edge24&#45;headlabel"><a xlink:href="dir_000024_000005.html" target="_top" xlink:title="8">
<text text-anchor="middle" x="446.8842" y="-486.6987" font-family="Helvetica,sans-Serif" font-size="10.00" fill="#000000">8</text>
</a>
</g>
</g>
<!-- dir_3513c77e68d0de165c8b48f945306dcb&#45;&gt;dir_7be0d8c199b9408ae01f5d77515b8def -->
<g id="edge25" class="edge">
<title>dir_3513c77e68d0de165c8b48f945306dcb&#45;&gt;dir_7be0d8c199b9408ae01f5d77515b8def</title>
<path fill="none" stroke="#000000" d="M438.3671,-252.1451C440.5972,-289.8741 438.027,-377.0083 433.6236,-421.9956"/>
<polygon fill="#000000" stroke="#000000" points="430.1424,-421.6334 432.5307,-431.9555 437.1006,-422.3969 430.1424,-421.6334"/>
<g id="a_edge25&#45;headlabel"><a xlink:href="dir_000024_000011.html" target="_top" xlink:title="2">
<text text-anchor="middle" x="427.712" y="-415.2505" font-family="Helvetica,sans-Serif" font-size="10.00" fill="#000000">2</text>
</a>
</g>
</g>
<!-- dir_3513c77e68d0de165c8b48f945306dcb&#45;&gt;dir_ae9a93452e2a84339148a16bcf2eb561 -->
<g id="edge26" class="edge">
<title>dir_3513c77e68d0de165c8b48f945306dcb&#45;&gt;dir_ae9a93452e2a84339148a16bcf2eb561</title>
<path fill="none" stroke="#000000" d="M407.832,-247.999C382.9696,-258.7771 345.5947,-274.1292 313,-288 308.6679,-289.8435 304.0909,-291.8222 299.5082,-293.7689"/>
<polygon fill="#000000" stroke="#000000" points="298.0504,-290.5846 290.17,-297.6663 300.7466,-297.0446 298.0504,-290.5846"/>
<g id="a_edge26&#45;headlabel"><a xlink:href="dir_000024_000034.html" target="_top" xlink:title="3">
<text text-anchor="middle" x="300.2741" y="-284.08" font-family="Helvetica,sans-Serif" font-size="10.00" fill="#000000">3</text>
</a>
</g>
</g>
<!-- dir_3513c77e68d0de165c8b48f945306dcb&#45;&gt;dir_674392b9e8b7e1553d8d6e614bc96d17 -->
<g id="edge27" class="edge">
<title>dir_3513c77e68d0de165c8b48f945306dcb&#45;&gt;dir_674392b9e8b7e1553d8d6e614bc96d17</title>
<path fill="none" stroke="#000000" d="M435.1038,-215.8314C436.9601,-207.9617 439.8764,-198.5712 443.1216,-189.8533"/>
<polygon fill="#000000" stroke="#000000" points="446.4329,-190.9984 446.8862,-180.4133 439.9309,-188.4054 446.4329,-190.9984"/>
<g id="a_edge27&#45;headlabel"><a xlink:href="dir_000024_000009.html" target="_top" xlink:title="7">
<text text-anchor="middle" x="447.7387" y="-192.889" font-family="Helvetica,sans-Serif" font-size="10.00" fill="#000000">7</text>
</a>
</g>
</g>
<!-- dir_3513c77e68d0de165c8b48f945306dcb&#45;&gt;dir_b3320b59a4aa4a7431bc8488b87009bf -->
<g id="edge28" class="edge">
<title>dir_3513c77e68d0de165c8b48f945306dcb&#45;&gt;dir_b3320b59a4aa4a7431bc8488b87009bf</title>
<path fill="none" stroke="#000000" d="M462.016,-217.479C474.547,-208.1877 488.1582,-195.3624 495,-180 501.5094,-165.384 502.1194,-158.3288 495,-144 465.6687,-84.9665 393.9362,-48.475 349.7905,-30.8204"/>
<polygon fill="#000000" stroke="#000000" points="350.8671,-27.484 340.278,-27.1363 348.339,-34.0116 350.8671,-27.484"/>
<g id="a_edge28&#45;headlabel"><a xlink:href="dir_000024_000027.html" target="_top" xlink:title="3">
<text text-anchor="middle" x="355.2445" y="-23.6345" font-family="Helvetica,sans-Serif" font-size="10.00" fill="#000000">3</text>
</a>
</g>
</g>
<!-- dir_3513c77e68d0de165c8b48f945306dcb&#45;&gt;dir_313caf1132e152dd9b58bea13a4052ca -->
<g id="edge29" class="edge">
<title>dir_3513c77e68d0de165c8b48f945306dcb&#45;&gt;dir_313caf1132e152dd9b58bea13a4052ca</title>
<path fill="none" stroke="#000000" d="M413.9432,-215.8293C397.2376,-197.4777 373.9626,-168.4286 353,-144 345.0472,-134.7322 336.13,-124.7811 328.5862,-115.9777"/>
<polygon fill="#000000" stroke="#000000" points="331.2228,-113.6749 322.1114,-108.2682 325.8624,-118.1768 331.2228,-113.6749"/>
<g id="a_edge29&#45;headlabel"><a xlink:href="dir_000024_000044.html" target="_top" xlink:title="10">
<text text-anchor="middle" x="335.7087" y="-112.1015" font-family="Helvetica,sans-Serif" font-size="10.00" fill="#000000">10</text>
</a>
</g>
</g>
<!-- dir_674392b9e8b7e1553d8d6e614bc96d17&#45;&gt;dir_7be0d8c199b9408ae01f5d77515b8def -->
<g id="edge30" class="edge">
<title>dir_674392b9e8b7e1553d8d6e614bc96d17&#45;&gt;dir_7be0d8c199b9408ae01f5d77515b8def</title>
<path fill="none" stroke="#000000" d="M464.1191,-180.3273C466.752,-190.7022 469.6796,-203.9716 471,-216 479.7729,-295.9189 475.139,-318.7092 453,-396 450.4646,-404.8515 446.6645,-414.0849 442.7875,-422.3613"/>
<polygon fill="#000000" stroke="#000000" points="439.5379,-421.0385 438.2722,-431.5574 445.8214,-424.1237 439.5379,-421.0385"/>
<g id="a_edge30&#45;headlabel"><a xlink:href="dir_000009_000011.html" target="_top" xlink:title="15">
<text text-anchor="middle" x="438.5735" y="-414.0605" font-family="Helvetica,sans-Serif" font-size="10.00" fill="#000000">15</text>
</a>
</g>
</g>
<!-- dir_674392b9e8b7e1553d8d6e614bc96d17&#45;&gt;dir_c43b215a2ade73e6562bd37d8a11c12a -->
<g id="edge31" class="edge">
<title>dir_674392b9e8b7e1553d8d6e614bc96d17&#45;&gt;dir_c43b215a2ade73e6562bd37d8a11c12a</title>
<path fill="none" stroke="#000000" d="M431.8437,-169.4969C383.6374,-184.1777 282.936,-221.2534 227,-288 212.2721,-305.5743 204.6906,-330.6509 200.8385,-349.8725"/>
<polygon fill="#000000" stroke="#000000" points="197.3667,-349.4054 199.0604,-359.8639 204.2584,-350.6319 197.3667,-349.4054"/>
<g id="a_edge31&#45;headlabel"><a xlink:href="dir_000009_000046.html" target="_top" xlink:title="3">
<text text-anchor="middle" x="195.2011" y="-342.8689" font-family="Helvetica,sans-Serif" font-size="10.00" fill="#000000">3</text>
</a>
</g>
</g>
<!-- dir_674392b9e8b7e1553d8d6e614bc96d17&#45;&gt;dir_3513c77e68d0de165c8b48f945306dcb -->
<g id="edge32" class="edge">
<title>dir_674392b9e8b7e1553d8d6e614bc96d17&#45;&gt;dir_3513c77e68d0de165c8b48f945306dcb</title>
<path fill="none" stroke="#000000" d="M458.8383,-180.4133C456.9601,-188.3141 454.0295,-197.7132 450.7776,-206.417"/>
<polygon fill="#000000" stroke="#000000" points="447.4761,-205.2468 447.0086,-215.8314 453.9746,-207.8485 447.4761,-205.2468"/>
<g id="a_edge32&#45;headlabel"><a xlink:href="dir_000009_000024.html" target="_top" xlink:title="4">
<text text-anchor="middle" x="446.1761" y="-198.3545" font-family="Helvetica,sans-Serif" font-size="10.00" fill="#000000">4</text>
</a>
</g>
</g>
<!-- dir_674392b9e8b7e1553d8d6e614bc96d17&#45;&gt;dir_b3320b59a4aa4a7431bc8488b87009bf -->
<g id="edge33" class="edge">
<title>dir_674392b9e8b7e1553d8d6e614bc96d17&#45;&gt;dir_b3320b59a4aa4a7431bc8488b87009bf</title>
<path fill="none" stroke="#000000" d="M440.509,-143.7623C414.729,-118.3354 367.877,-72.1253 338.7091,-43.3569"/>
<polygon fill="#000000" stroke="#000000" points="340.9183,-40.6199 331.3409,-36.0896 336.0028,-45.6037 340.9183,-40.6199"/>
<g id="a_edge33&#45;headlabel"><a xlink:href="dir_000009_000027.html" target="_top" xlink:title="10">
<text text-anchor="middle" x="345.4713" y="-38.6226" font-family="Helvetica,sans-Serif" font-size="10.00" fill="#000000">10</text>
</a>
</g>
</g>
<!-- dir_674392b9e8b7e1553d8d6e614bc96d17&#45;&gt;dir_313caf1132e152dd9b58bea13a4052ca -->
<g id="edge34" class="edge">
<title>dir_674392b9e8b7e1553d8d6e614bc96d17&#45;&gt;dir_313caf1132e152dd9b58bea13a4052ca</title>
<path fill="none" stroke="#000000" d="M431.8807,-148.6261C408.6719,-137.1807 375.0582,-120.604 349.4908,-107.9955"/>
<polygon fill="#000000" stroke="#000000" points="350.9863,-104.8305 340.4695,-103.5466 347.8902,-111.1086 350.9863,-104.8305"/>
<g id="a_edge34&#45;headlabel"><a xlink:href="dir_000009_000044.html" target="_top" xlink:title="14">
<text text-anchor="middle" x="355.4659" y="-101.3739" font-family="Helvetica,sans-Serif" font-size="10.00" fill="#000000">14</text>
</a>
</g>
</g>
<!-- dir_b3320b59a4aa4a7431bc8488b87009bf&#45;&gt;dir_c43b215a2ade73e6562bd37d8a11c12a -->
<g id="edge35" class="edge">
<title>dir_b3320b59a4aa4a7431bc8488b87009bf&#45;&gt;dir_c43b215a2ade73e6562bd37d8a11c12a</title>
<path fill="none" stroke="#000000" d="M300.8428,-36.4667C292.0033,-46.254 280.7522,-58.9357 273,-72 221.5019,-158.7862 216.6296,-188.0093 203,-288 200.1891,-308.6216 201.1129,-332.1338 201.3817,-349.9537"/>
<polygon fill="#000000" stroke="#000000" points="197.8817,-349.9959 201.4283,-359.9795 204.8817,-349.9633 197.8817,-349.9959"/>
<g id="a_edge35&#45;headlabel"><a xlink:href="dir_000027_000046.html" target="_top" xlink:title="3">
<text text-anchor="middle" x="195.0259" y="-343.9145" font-family="Helvetica,sans-Serif" font-size="10.00" fill="#000000">3</text>
</a>
</g>
</g>
<!-- dir_b3320b59a4aa4a7431bc8488b87009bf&#45;&gt;dir_313caf1132e152dd9b58bea13a4052ca -->
<g id="edge36" class="edge">
<title>dir_b3320b59a4aa4a7431bc8488b87009bf&#45;&gt;dir_313caf1132e152dd9b58bea13a4052ca</title>
<path fill="none" stroke="#000000" d="M318.976,-36.4133C319.7071,-44.0593 319.9203,-53.1084 319.6155,-61.5726"/>
<polygon fill="#000000" stroke="#000000" points="316.1048,-61.6264 318.9524,-71.8314 323.0902,-62.078 316.1048,-61.6264"/>
<g id="a_edge36&#45;headlabel"><a xlink:href="dir_000027_000044.html" target="_top" xlink:title="3">
<text text-anchor="middle" x="313.5032" y="-55.3562" font-family="Helvetica,sans-Serif" font-size="10.00" fill="#000000">3</text>
</a>
</g>
</g>
<!-- dir_313caf1132e152dd9b58bea13a4052ca&#45;&gt;dir_ae9a93452e2a84339148a16bcf2eb561 -->
<g id="edge37" class="edge">
<title>dir_313caf1132e152dd9b58bea13a4052ca&#45;&gt;dir_ae9a93452e2a84339148a16bcf2eb561</title>
<path fill="none" stroke="#000000" d="M312.7549,-108.1451C307.4629,-145.9537 287.4736,-233.3762 274.114,-278.2797"/>
<polygon fill="#000000" stroke="#000000" points="270.7326,-277.3678 271.1229,-287.9555 277.4203,-279.4353 270.7326,-277.3678"/>
<g id="a_edge37&#45;headlabel"><a xlink:href="dir_000044_000034.html" target="_top" xlink:title="8">
<text text-anchor="middle" x="269.0816" y="-270.595" font-family="Helvetica,sans-Serif" font-size="10.00" fill="#000000">8</text>
</a>
</g>
</g>
<!-- dir_313caf1132e152dd9b58bea13a4052ca&#45;&gt;dir_3513c77e68d0de165c8b48f945306dcb -->
<g id="edge38" class="edge">
<title>dir_313caf1132e152dd9b58bea13a4052ca&#45;&gt;dir_3513c77e68d0de165c8b48f945306dcb</title>
<path fill="none" stroke="#000000" d="M337.7127,-108.0221C348.389,-118.4138 360.5302,-131.799 371,-144 389.0147,-164.9934 408.7372,-189.3991 421.7414,-207.4952"/>
<polygon fill="#000000" stroke="#000000" points="418.96,-209.6256 427.5487,-215.8293 424.7032,-205.6237 418.96,-209.6256"/>
<g id="a_edge38&#45;headlabel"><a xlink:href="dir_000044_000024.html" target="_top" xlink:title="18">
<text text-anchor="middle" x="414.5754" y="-205.7996" font-family="Helvetica,sans-Serif" font-size="10.00" fill="#000000">18</text>
</a>
</g>
</g>
<!-- dir_313caf1132e152dd9b58bea13a4052ca&#45;&gt;dir_b3320b59a4aa4a7431bc8488b87009bf -->
<g id="edge39" class="edge">
<title>dir_313caf1132e152dd9b58bea13a4052ca&#45;&gt;dir_b3320b59a4aa4a7431bc8488b87009bf</title>
<path fill="none" stroke="#000000" d="M307.0476,-71.8314C306.2972,-64.131 306.0763,-54.9743 306.3849,-46.4166"/>
<polygon fill="#000000" stroke="#000000" points="309.8792,-46.6161 307.024,-36.4133 302.8935,-46.1697 309.8792,-46.6161"/>
<g id="a_edge39&#45;headlabel"><a xlink:href="dir_000044_000027.html" target="_top" xlink:title="11">
<text text-anchor="middle" x="312.4836" y="-47.8844" font-family="Helvetica,sans-Serif" font-size="10.00" fill="#000000">11</text>
</a>
</g>
</g>
</g>
</svg>
