<?xml version="1.0" encoding="UTF-8" standalone="no"?>
<!DOCTYPE svg PUBLIC "-//W3C//DTD SVG 1.1//EN"
 "http://www.w3.org/Graphics/SVG/1.1/DTD/svg11.dtd">
<!-- Generated by graphviz version 2.40.1 (20161225.0304)
 -->
<!-- Title: src/query/tests Pages: 1 -->
<svg width="274pt" height="439pt"
 viewBox="0.00 0.00 273.90 439.00" xmlns="http://www.w3.org/2000/svg" xmlns:xlink="http://www.w3.org/1999/xlink">
<g id="graph0" class="graph" transform="scale(1 1) rotate(0) translate(4 435)">
<title>src/query/tests</title>
<polygon fill="#ffffff" stroke="transparent" points="-4,4 -4,-435 269.904,-435 269.904,4 -4,4"/>
<g id="clust1" class="cluster">
<title>clusterdir_cc12abc95cb54c18d5c8d7ca0d3d5af5</title>
<g id="a_clust1"><a xlink:href="dir_cc12abc95cb54c18d5c8d7ca0d3d5af5.html" target="_top" xlink:title="query">
<polygon fill="#ddddee" stroke="#000000" points="101.904,-352 101.904,-423 171.904,-423 171.904,-352 101.904,-352"/>
<text text-anchor="middle" x="136.904" y="-411" font-family="Helvetica,sans-Serif" font-size="10.00" fill="#000000">query</text>
</a>
</g>
</g>
<!-- dir_967678997ddd4a2d16133ebb5884dc05 -->
<g id="node1" class="node">
<title>dir_967678997ddd4a2d16133ebb5884dc05</title>
<g id="a_node1"><a xlink:href="dir_967678997ddd4a2d16133ebb5884dc05.html" target="_top" xlink:title="tests">
<polygon fill="#eeeeff" stroke="#000000" points="163.904,-396 109.904,-396 109.904,-360 163.904,-360 163.904,-396"/>
<text text-anchor="middle" x="136.904" y="-375.5" font-family="Helvetica,sans-Serif" font-size="10.00" fill="#000000">tests</text>
</a>
</g>
</g>
<!-- dir_7be0d8c199b9408ae01f5d77515b8def -->
<g id="node2" class="node">
<title>dir_7be0d8c199b9408ae01f5d77515b8def</title>
<g id="a_node2"><a xlink:href="dir_7be0d8c199b9408ae01f5d77515b8def.html" target="_top" xlink:title="mesh">
<polygon fill="#ffffff" stroke="#ff0000" points="123.904,-252 69.904,-252 69.904,-216 123.904,-216 123.904,-252"/>
<text text-anchor="middle" x="96.904" y="-231.5" font-family="Helvetica,sans-Serif" font-size="10.00" fill="#000000">mesh</text>
</a>
</g>
</g>
<!-- dir_967678997ddd4a2d16133ebb5884dc05&#45;&gt;dir_7be0d8c199b9408ae01f5d77515b8def -->
<g id="edge13" class="edge">
<title>dir_967678997ddd4a2d16133ebb5884dc05&#45;&gt;dir_7be0d8c199b9408ae01f5d77515b8def</title>
<path fill="none" stroke="#000000" d="M109.8131,-365.6565C93.5556,-356.6445 74.2675,-342.7271 64.904,-324 54.6429,-303.4778 64.8207,-278.8494 76.3416,-260.5479"/>
<polygon fill="#000000" stroke="#000000" points="79.3366,-262.3665 82.0215,-252.1175 73.5312,-258.4551 79.3366,-262.3665"/>
<g id="a_edge13&#45;headlabel"><a xlink:href="dir_000042_000011.html" target="_top" xlink:title="16">
<text text-anchor="middle" x="79.6828" y="-264.434" font-family="Helvetica,sans-Serif" font-size="10.00" fill="#000000">16</text>
</a>
</g>
</g>
<!-- dir_d0f9e8246559ec349d883278ea295df5 -->
<g id="node3" class="node">
<title>dir_d0f9e8246559ec349d883278ea295df5</title>
<g id="a_node3"><a xlink:href="dir_d0f9e8246559ec349d883278ea295df5.html" target="_top" xlink:title="impl">
<polygon fill="none" stroke="#000000" points="127.904,-324 73.904,-324 73.904,-288 127.904,-288 127.904,-324"/>
<text text-anchor="middle" x="100.904" y="-303.5" font-family="Helvetica,sans-Serif" font-size="10.00" fill="#000000">impl</text>
</a>
</g>
</g>
<!-- dir_967678997ddd4a2d16133ebb5884dc05&#45;&gt;dir_d0f9e8246559ec349d883278ea295df5 -->
<g id="edge14" class="edge">
<title>dir_967678997ddd4a2d16133ebb5884dc05&#45;&gt;dir_d0f9e8246559ec349d883278ea295df5</title>
<path fill="none" stroke="#000000" d="M127.8197,-359.8314C123.8425,-351.8771 119.0885,-342.369 114.6901,-333.5723"/>
<polygon fill="#000000" stroke="#000000" points="117.7133,-331.7923 110.1106,-324.4133 111.4523,-334.9228 117.7133,-331.7923"/>
<g id="a_edge14&#45;headlabel"><a xlink:href="dir_000042_000041.html" target="_top" xlink:title="2">
<text text-anchor="middle" x="121.8603" y="-331.2377" font-family="Helvetica,sans-Serif" font-size="10.00" fill="#000000">2</text>
</a>
</g>
</g>
<!-- dir_ae9a93452e2a84339148a16bcf2eb561 -->
<g id="node4" class="node">
<title>dir_ae9a93452e2a84339148a16bcf2eb561</title>
<g id="a_node4"><a xlink:href="dir_ae9a93452e2a84339148a16bcf2eb561.html" target="_top" xlink:title="math">
<polygon fill="#ffffff" stroke="#ff0000" points="67.904,-180 13.904,-180 13.904,-144 67.904,-144 67.904,-180"/>
<text text-anchor="middle" x="40.904" y="-159.5" font-family="Helvetica,sans-Serif" font-size="10.00" fill="#000000">math</text>
</a>
</g>
</g>
<!-- dir_967678997ddd4a2d16133ebb5884dc05&#45;&gt;dir_ae9a93452e2a84339148a16bcf2eb561 -->
<g id="edge15" class="edge">
<title>dir_967678997ddd4a2d16133ebb5884dc05&#45;&gt;dir_ae9a93452e2a84339148a16bcf2eb561</title>
<path fill="none" stroke="#000000" d="M109.5234,-367.0075C91.3941,-358.2056 68.8342,-344.0047 56.904,-324 32.2166,-282.6039 33.321,-224.4669 36.8094,-190.2657"/>
<polygon fill="#000000" stroke="#000000" points="40.3183,-190.3912 37.9961,-180.054 33.3651,-189.5831 40.3183,-190.3912"/>
<g id="a_edge15&#45;headlabel"><a xlink:href="dir_000042_000034.html" target="_top" xlink:title="3">
<text text-anchor="middle" x="42.7238" y="-191.7895" font-family="Helvetica,sans-Serif" font-size="10.00" fill="#000000">3</text>
</a>
</g>
</g>
<!-- dir_c184e51c84f2c3f0345bbc8a0d75d3e1 -->
<g id="node5" class="node">
<title>dir_c184e51c84f2c3f0345bbc8a0d75d3e1</title>
<g id="a_node5"><a xlink:href="dir_c184e51c84f2c3f0345bbc8a0d75d3e1.html" target="_top" xlink:title="io">
<polygon fill="#ffffff" stroke="#ff0000" points="199.904,-324 145.904,-324 145.904,-288 199.904,-288 199.904,-324"/>
<text text-anchor="middle" x="172.904" y="-303.5" font-family="Helvetica,sans-Serif" font-size="10.00" fill="#000000">io</text>
</a>
</g>
</g>
<!-- dir_967678997ddd4a2d16133ebb5884dc05&#45;&gt;dir_c184e51c84f2c3f0345bbc8a0d75d3e1 -->
<g id="edge16" class="edge">
<title>dir_967678997ddd4a2d16133ebb5884dc05&#45;&gt;dir_c184e51c84f2c3f0345bbc8a0d75d3e1</title>
<path fill="none" stroke="#000000" d="M145.9883,-359.8314C149.9654,-351.8771 154.7195,-342.369 159.1178,-333.5723"/>
<polygon fill="#000000" stroke="#000000" points="162.3557,-334.9228 163.6973,-324.4133 156.0947,-331.7923 162.3557,-334.9228"/>
<g id="a_edge16&#45;headlabel"><a xlink:href="dir_000042_000008.html" target="_top" xlink:title="2">
<text text-anchor="middle" x="163.2877" y="-336.9077" font-family="Helvetica,sans-Serif" font-size="10.00" fill="#000000">2</text>
</a>
</g>
</g>
<!-- dir_3513c77e68d0de165c8b48f945306dcb -->
<g id="node6" class="node">
<title>dir_3513c77e68d0de165c8b48f945306dcb</title>
<g id="a_node6"><a xlink:href="dir_3513c77e68d0de165c8b48f945306dcb.html" target="_top" xlink:title="testing">
<polygon fill="#ffffff" stroke="#ff0000" points="131.904,-108 77.904,-108 77.904,-72 131.904,-72 131.904,-108"/>
<text text-anchor="middle" x="104.904" y="-87.5" font-family="Helvetica,sans-Serif" font-size="10.00" fill="#000000">testing</text>
</a>
</g>
</g>
<!-- dir_967678997ddd4a2d16133ebb5884dc05&#45;&gt;dir_3513c77e68d0de165c8b48f945306dcb -->
<g id="edge17" class="edge">
<title>dir_967678997ddd4a2d16133ebb5884dc05&#45;&gt;dir_3513c77e68d0de165c8b48f945306dcb</title>
<path fill="none" stroke="#000000" d="M163.9949,-365.6565C180.2523,-356.6445 199.5404,-342.7271 208.904,-324 216.0594,-309.6892 212.2707,-303.6418 208.904,-288 194.1287,-219.3541 179.0828,-204.7702 143.904,-144 138.5159,-134.6922 131.8956,-125.0205 125.6495,-116.4778"/>
<polygon fill="#000000" stroke="#000000" points="128.3776,-114.2815 119.5876,-108.3666 122.7705,-118.472 128.3776,-114.2815"/>
<g id="a_edge17&#45;headlabel"><a xlink:href="dir_000042_000024.html" target="_top" xlink:title="8">
<text text-anchor="middle" x="132.8038" y="-112.9612" font-family="Helvetica,sans-Serif" font-size="10.00" fill="#000000">8</text>
</a>
</g>
</g>
<!-- dir_b3320b59a4aa4a7431bc8488b87009bf -->
<g id="node7" class="node">
<title>dir_b3320b59a4aa4a7431bc8488b87009bf</title>
<g id="a_node7"><a xlink:href="dir_b3320b59a4aa4a7431bc8488b87009bf.html" target="_top" xlink:title="logging">
<polygon fill="#ffffff" stroke="#ff0000" points="131.904,-36 77.904,-36 77.904,0 131.904,0 131.904,-36"/>
<text text-anchor="middle" x="104.904" y="-15.5" font-family="Helvetica,sans-Serif" font-size="10.00" fill="#000000">logging</text>
</a>
</g>
</g>
<!-- dir_967678997ddd4a2d16133ebb5884dc05&#45;&gt;dir_b3320b59a4aa4a7431bc8488b87009bf -->
<g id="edge18" class="edge">
<title>dir_967678997ddd4a2d16133ebb5884dc05&#45;&gt;dir_b3320b59a4aa4a7431bc8488b87009bf</title>
<path fill="none" stroke="#000000" d="M164.0896,-366.5625C183.1684,-357.3937 208.164,-342.9354 224.904,-324 254.0172,-291.0687 265.904,-277.9551 265.904,-234 265.904,-234 265.904,-234 265.904,-162 265.904,-95.6924 189.097,-52.2848 141.5837,-31.7761"/>
<polygon fill="#000000" stroke="#000000" points="142.7919,-28.4877 132.2154,-27.8634 140.0941,-34.947 142.7919,-28.4877"/>
<g id="a_edge18&#45;headlabel"><a xlink:href="dir_000042_000027.html" target="_top" xlink:title="3">
<text text-anchor="middle" x="147.203" y="-24.753" font-family="Helvetica,sans-Serif" font-size="10.00" fill="#000000">3</text>
</a>
</g>
</g>
<!-- dir_7be0d8c199b9408ae01f5d77515b8def&#45;&gt;dir_ae9a93452e2a84339148a16bcf2eb561 -->
<g id="edge1" class="edge">
<title>dir_7be0d8c199b9408ae01f5d77515b8def&#45;&gt;dir_ae9a93452e2a84339148a16bcf2eb561</title>
<path fill="none" stroke="#000000" d="M82.7728,-215.8314C76.3229,-207.5386 68.5594,-197.557 61.4788,-188.4533"/>
<polygon fill="#000000" stroke="#000000" points="64.1276,-186.158 55.2254,-180.4133 58.6021,-190.4556 64.1276,-186.158"/>
<g id="a_edge1&#45;headlabel"><a xlink:href="dir_000011_000034.html" target="_top" xlink:title="7">
<text text-anchor="middle" x="68.5756" y="-184.7523" font-family="Helvetica,sans-Serif" font-size="10.00" fill="#000000">7</text>
</a>
</g>
</g>
<!-- dir_7be0d8c199b9408ae01f5d77515b8def&#45;&gt;dir_3513c77e68d0de165c8b48f945306dcb -->
<g id="edge2" class="edge">
<title>dir_7be0d8c199b9408ae01f5d77515b8def&#45;&gt;dir_3513c77e68d0de165c8b48f945306dcb</title>
<path fill="none" stroke="#000000" d="M93.244,-215.7623C92.1487,-191.201 94.3158,-147.2474 97.8313,-118.3541"/>
<polygon fill="#000000" stroke="#000000" points="101.3478,-118.4728 99.2407,-108.0896 94.4129,-117.5205 101.3478,-118.4728"/>
<g id="a_edge2&#45;headlabel"><a xlink:href="dir_000011_000024.html" target="_top" xlink:title="12">
<text text-anchor="middle" x="103.6718" y="-119.9202" font-family="Helvetica,sans-Serif" font-size="10.00" fill="#000000">12</text>
</a>
</g>
</g>
<!-- dir_7be0d8c199b9408ae01f5d77515b8def&#45;&gt;dir_b3320b59a4aa4a7431bc8488b87009bf -->
<g id="edge3" class="edge">
<title>dir_7be0d8c199b9408ae01f5d77515b8def&#45;&gt;dir_b3320b59a4aa4a7431bc8488b87009bf</title>
<path fill="none" stroke="#000000" d="M69.7465,-226.2923C47.921,-218.5041 18.7078,-204.1083 4.904,-180 -3.0463,-166.115 .3416,-159.3357 4.904,-144 17.1004,-103.0036 50.4957,-65.9625 75.3593,-42.8176"/>
<polygon fill="#000000" stroke="#000000" points="77.7168,-45.4046 82.7688,-36.0918 73.0119,-40.2215 77.7168,-45.4046"/>
<g id="a_edge3&#45;headlabel"><a xlink:href="dir_000011_000027.html" target="_top" xlink:title="16">
<text text-anchor="middle" x="76.9635" y="-47.4229" font-family="Helvetica,sans-Serif" font-size="10.00" fill="#000000">16</text>
</a>
</g>
</g>
<!-- dir_d0f9e8246559ec349d883278ea295df5&#45;&gt;dir_7be0d8c199b9408ae01f5d77515b8def -->
<g id="edge4" class="edge">
<title>dir_d0f9e8246559ec349d883278ea295df5&#45;&gt;dir_7be0d8c199b9408ae01f5d77515b8def</title>
<path fill="none" stroke="#000000" d="M99.8946,-287.8314C99.4668,-280.131 98.9581,-270.9743 98.4827,-262.4166"/>
<polygon fill="#000000" stroke="#000000" points="101.9763,-262.2037 97.9269,-252.4133 94.9871,-262.592 101.9763,-262.2037"/>
<g id="a_edge4&#45;headlabel"><a xlink:href="dir_000041_000011.html" target="_top" xlink:title="4">
<text text-anchor="middle" x="105.0105" y="-263.1353" font-family="Helvetica,sans-Serif" font-size="10.00" fill="#000000">4</text>
</a>
</g>
</g>
<!-- dir_ae9a93452e2a84339148a16bcf2eb561&#45;&gt;dir_3513c77e68d0de165c8b48f945306dcb -->
<g id="edge5" class="edge">
<title>dir_ae9a93452e2a84339148a16bcf2eb561&#45;&gt;dir_3513c77e68d0de165c8b48f945306dcb</title>
<path fill="none" stroke="#000000" d="M51.1015,-143.8314C57.7986,-135.3694 66.6983,-125.1489 75.3764,-115.8971"/>
<polygon fill="#000000" stroke="#000000" points="78.1603,-118.0511 82.5606,-108.4133 73.1105,-113.2034 78.1603,-118.0511"/>
<g id="a_edge5&#45;headlabel"><a xlink:href="dir_000034_000024.html" target="_top" xlink:title="6">
<text text-anchor="middle" x="77.7192" y="-120.1105" font-family="Helvetica,sans-Serif" font-size="10.00" fill="#000000">6</text>
</a>
</g>
</g>
<!-- dir_ae9a93452e2a84339148a16bcf2eb561&#45;&gt;dir_b3320b59a4aa4a7431bc8488b87009bf -->
<g id="edge6" class="edge">
<title>dir_ae9a93452e2a84339148a16bcf2eb561&#45;&gt;dir_b3320b59a4aa4a7431bc8488b87009bf</title>
<path fill="none" stroke="#000000" d="M44.9265,-143.8419C49.4158,-125.2477 57.5678,-95.7819 68.904,-72 73.3658,-62.6396 79.2722,-53.0304 85.0079,-44.561"/>
<polygon fill="#000000" stroke="#000000" points="87.989,-46.4055 90.8555,-36.2058 82.254,-42.3917 87.989,-46.4055"/>
<g id="a_edge6&#45;headlabel"><a xlink:href="dir_000034_000027.html" target="_top" xlink:title="4">
<text text-anchor="middle" x="88.254" y="-48.4785" font-family="Helvetica,sans-Serif" font-size="10.00" fill="#000000">4</text>
</a>
</g>
</g>
<!-- dir_c184e51c84f2c3f0345bbc8a0d75d3e1&#45;&gt;dir_7be0d8c199b9408ae01f5d77515b8def -->
<g id="edge7" class="edge">
<title>dir_c184e51c84f2c3f0345bbc8a0d75d3e1&#45;&gt;dir_7be0d8c199b9408ae01f5d77515b8def</title>
<path fill="none" stroke="#000000" d="M153.726,-287.8314C144.5452,-279.1337 133.4033,-268.5783 123.4264,-259.1265"/>
<polygon fill="#000000" stroke="#000000" points="125.7425,-256.4995 116.0759,-252.1628 120.9283,-261.5811 125.7425,-256.4995"/>
<g id="a_edge7&#45;headlabel"><a xlink:href="dir_000008_000011.html" target="_top" xlink:title="14">
<text text-anchor="middle" x="130.3047" y="-254.4104" font-family="Helvetica,sans-Serif" font-size="10.00" fill="#000000">14</text>
</a>
</g>
</g>
<!-- dir_c184e51c84f2c3f0345bbc8a0d75d3e1&#45;&gt;dir_3513c77e68d0de165c8b48f945306dcb -->
<g id="edge8" class="edge">
<title>dir_c184e51c84f2c3f0345bbc8a0d75d3e1&#45;&gt;dir_3513c77e68d0de165c8b48f945306dcb</title>
<path fill="none" stroke="#000000" d="M167.7266,-287.9386C159.0597,-257.927 140.8895,-195.9466 123.904,-144 121.1372,-135.5382 117.9803,-126.3865 115.0451,-118.0637"/>
<polygon fill="#000000" stroke="#000000" points="118.2654,-116.6732 111.6158,-108.4249 111.6703,-119.0196 118.2654,-116.6732"/>
<g id="a_edge8&#45;headlabel"><a xlink:href="dir_000008_000024.html" target="_top" xlink:title="10">
<text text-anchor="middle" x="122.1452" y="-116.6082" font-family="Helvetica,sans-Serif" font-size="10.00" fill="#000000">10</text>
</a>
</g>
</g>
<!-- dir_c184e51c84f2c3f0345bbc8a0d75d3e1&#45;&gt;dir_b3320b59a4aa4a7431bc8488b87009bf -->
<g id="edge9" class="edge">
<title>dir_c184e51c84f2c3f0345bbc8a0d75d3e1&#45;&gt;dir_b3320b59a4aa4a7431bc8488b87009bf</title>
<path fill="none" stroke="#000000" d="M173.3865,-287.923C173.8419,-247.5963 171.4975,-147.8648 140.904,-72 137.0884,-62.5382 131.4682,-53.014 125.7974,-44.6554"/>
<polygon fill="#000000" stroke="#000000" points="128.589,-42.5416 119.9429,-36.4182 122.8833,-46.5969 128.589,-42.5416"/>
<g id="a_edge9&#45;headlabel"><a xlink:href="dir_000008_000027.html" target="_top" xlink:title="12">
<text text-anchor="middle" x="132.9857" y="-41.3268" font-family="Helvetica,sans-Serif" font-size="10.00" fill="#000000">12</text>
</a>
</g>
</g>
<!-- dir_3513c77e68d0de165c8b48f945306dcb&#45;&gt;dir_7be0d8c199b9408ae01f5d77515b8def -->
<g id="edge10" class="edge">
<title>dir_3513c77e68d0de165c8b48f945306dcb&#45;&gt;dir_7be0d8c199b9408ae01f5d77515b8def</title>
<path fill="none" stroke="#000000" d="M108.5573,-108.0896C109.6706,-132.6805 107.4888,-176.905 103.9514,-205.8531"/>
<polygon fill="#000000" stroke="#000000" points="100.4837,-205.379 102.5904,-215.7623 107.4186,-206.3316 100.4837,-205.379"/>
<g id="a_edge10&#45;headlabel"><a xlink:href="dir_000024_000011.html" target="_top" xlink:title="1">
<text text-anchor="middle" x="98.1599" y="-198.9315" font-family="Helvetica,sans-Serif" font-size="10.00" fill="#000000">1</text>
</a>
</g>
</g>
<!-- dir_3513c77e68d0de165c8b48f945306dcb&#45;&gt;dir_ae9a93452e2a84339148a16bcf2eb561 -->
<g id="edge11" class="edge">
<title>dir_3513c77e68d0de165c8b48f945306dcb&#45;&gt;dir_ae9a93452e2a84339148a16bcf2eb561</title>
<path fill="none" stroke="#000000" d="M94.5126,-108.4133C87.7734,-116.9088 78.8549,-127.1366 70.1813,-136.3696"/>
<polygon fill="#000000" stroke="#000000" points="67.4146,-134.1972 63.0063,-143.8314 72.4604,-139.049 67.4146,-134.1972"/>
<g id="a_edge11&#45;headlabel"><a xlink:href="dir_000024_000034.html" target="_top" xlink:title="3">
<text text-anchor="middle" x="67.8595" y="-127.1382" font-family="Helvetica,sans-Serif" font-size="10.00" fill="#000000">3</text>
</a>
</g>
</g>
<!-- dir_3513c77e68d0de165c8b48f945306dcb&#45;&gt;dir_b3320b59a4aa4a7431bc8488b87009bf -->
<g id="edge12" class="edge">
<title>dir_3513c77e68d0de165c8b48f945306dcb&#45;&gt;dir_b3320b59a4aa4a7431bc8488b87009bf</title>
<path fill="none" stroke="#000000" d="M104.904,-71.8314C104.904,-64.131 104.904,-54.9743 104.904,-46.4166"/>
<polygon fill="#000000" stroke="#000000" points="108.4041,-46.4132 104.904,-36.4133 101.4041,-46.4133 108.4041,-46.4132"/>
<g id="a_edge12&#45;headlabel"><a xlink:href="dir_000024_000027.html" target="_top" xlink:title="3">
<text text-anchor="middle" x="111.2433" y="-47.5079" font-family="Helvetica,sans-Serif" font-size="10.00" fill="#000000">3</text>
</a>
</g>
</g>
</g>
</svg>
