<?xml version="1.0" encoding="UTF-8" standalone="no"?>
<!DOCTYPE svg PUBLIC "-//W3C//DTD SVG 1.1//EN"
 "http://www.w3.org/Graphics/SVG/1.1/DTD/svg11.dtd">
<!-- Generated by graphviz version 2.40.1 (20161225.0304)
 -->
<!-- Title: src/testing Pages: 1 -->
<svg width="459pt" height="519pt"
 viewBox="0.00 0.00 459.00 519.00" xmlns="http://www.w3.org/2000/svg" xmlns:xlink="http://www.w3.org/1999/xlink">
<g id="graph0" class="graph" transform="scale(1 1) rotate(0) translate(4 515)">
<title>src/testing</title>
<polygon fill="#ffffff" stroke="transparent" points="-4,4 -4,-515 455,-515 455,4 -4,4"/>
<g id="clust1" class="cluster">
<title>clusterdir_68267d1309a1af8e8297ef4c3efbcdba</title>
<g id="a_clust1"><a xlink:href="dir_68267d1309a1af8e8297ef4c3efbcdba.html" target="_top" xlink:title="src">
<polygon fill="#ddddee" stroke="#000000" points="182,-416 182,-503 340,-503 340,-416 182,-416"/>
<text text-anchor="middle" x="261" y="-491" font-family="Helvetica,sans-Serif" font-size="10.00" fill="#000000">src</text>
</a>
</g>
</g>
<g id="clust2" class="cluster">
<title>clusterdir_3513c77e68d0de165c8b48f945306dcb</title>
<g id="a_clust2"><a xlink:href="dir_3513c77e68d0de165c8b48f945306dcb.html" target="_top">
<polygon fill="#eeeeff" stroke="#000000" points="190,-424 190,-476 332,-476 332,-424 190,-424"/>
</a>
</g>
</g>
<!-- dir_3513c77e68d0de165c8b48f945306dcb -->
<g id="node1" class="node">
<title>dir_3513c77e68d0de165c8b48f945306dcb</title>
<text text-anchor="middle" x="297" y="-447.5" font-family="Helvetica,sans-Serif" font-size="10.00" fill="#000000">testing</text>
</g>
<!-- dir_541eb0a6c58a7690acc5b848a4b1b724 -->
<g id="node3" class="node">
<title>dir_541eb0a6c58a7690acc5b848a4b1b724</title>
<g id="a_node3"><a xlink:href="dir_541eb0a6c58a7690acc5b848a4b1b724.html" target="_top" xlink:title="com">
<polygon fill="#ffffff" stroke="#ff0000" points="214,-396 160,-396 160,-360 214,-360 214,-396"/>
<text text-anchor="middle" x="187" y="-375.5" font-family="Helvetica,sans-Serif" font-size="10.00" fill="#000000">com</text>
</a>
</g>
</g>
<!-- dir_3513c77e68d0de165c8b48f945306dcb&#45;&gt;dir_541eb0a6c58a7690acc5b848a4b1b724 -->
<g id="edge15" class="edge">
<title>dir_3513c77e68d0de165c8b48f945306dcb&#45;&gt;dir_541eb0a6c58a7690acc5b848a4b1b724</title>
<path fill="none" stroke="#000000" d="M279.9227,-431.992C274.2037,-426.4901 267.5975,-420.6665 261,-416 249.3492,-407.7593 235.6676,-400.2187 223.2587,-394.0655"/>
<polygon fill="#000000" stroke="#000000" points="224.6007,-390.8272 214.0723,-389.642 221.5637,-397.134 224.6007,-390.8272"/>
<g id="a_edge15&#45;headlabel"><a xlink:href="dir_000024_000005.html" target="_top" xlink:title="8">
<text text-anchor="middle" x="229.0712" y="-387.3285" font-family="Helvetica,sans-Serif" font-size="10.00" fill="#000000">8</text>
</a>
</g>
</g>
<!-- dir_7be0d8c199b9408ae01f5d77515b8def -->
<g id="node4" class="node">
<title>dir_7be0d8c199b9408ae01f5d77515b8def</title>
<g id="a_node4"><a xlink:href="dir_7be0d8c199b9408ae01f5d77515b8def.html" target="_top" xlink:title="mesh">
<polygon fill="#ffffff" stroke="#ff0000" points="252,-252 198,-252 198,-216 252,-216 252,-252"/>
<text text-anchor="middle" x="225" y="-231.5" font-family="Helvetica,sans-Serif" font-size="10.00" fill="#000000">mesh</text>
</a>
</g>
</g>
<!-- dir_3513c77e68d0de165c8b48f945306dcb&#45;&gt;dir_7be0d8c199b9408ae01f5d77515b8def -->
<g id="edge16" class="edge">
<title>dir_3513c77e68d0de165c8b48f945306dcb&#45;&gt;dir_7be0d8c199b9408ae01f5d77515b8def</title>
<path fill="none" stroke="#000000" d="M302.4195,-431.76C310.6488,-400.4111 322.9575,-335.1405 299,-288 290.8847,-272.0318 275.5874,-259.6621 260.998,-250.8153"/>
<polygon fill="#000000" stroke="#000000" points="262.5022,-247.6449 252.0761,-245.7615 259.0521,-253.7356 262.5022,-247.6449"/>
<g id="a_edge16&#45;headlabel"><a xlink:href="dir_000024_000011.html" target="_top" xlink:title="2">
<text text-anchor="middle" x="267.0292" y="-244.4461" font-family="Helvetica,sans-Serif" font-size="10.00" fill="#000000">2</text>
</a>
</g>
</g>
<!-- dir_ae9a93452e2a84339148a16bcf2eb561 -->
<g id="node5" class="node">
<title>dir_ae9a93452e2a84339148a16bcf2eb561</title>
<g id="a_node5"><a xlink:href="dir_ae9a93452e2a84339148a16bcf2eb561.html" target="_top" xlink:title="math">
<polygon fill="#ffffff" stroke="#ff0000" points="159,-180 105,-180 105,-144 159,-144 159,-180"/>
<text text-anchor="middle" x="132" y="-159.5" font-family="Helvetica,sans-Serif" font-size="10.00" fill="#000000">math</text>
</a>
</g>
</g>
<!-- dir_3513c77e68d0de165c8b48f945306dcb&#45;&gt;dir_ae9a93452e2a84339148a16bcf2eb561 -->
<g id="edge17" class="edge">
<title>dir_3513c77e68d0de165c8b48f945306dcb&#45;&gt;dir_ae9a93452e2a84339148a16bcf2eb561</title>
<path fill="none" stroke="#000000" d="M309.6122,-431.9415C315.8767,-421.866 322.7812,-408.7967 326,-396 331.87,-372.663 319.9137,-290.2386 319,-288 303.4719,-249.9556 293.8469,-240.6895 261,-216 233.1712,-195.0824 196.0456,-180.6558 168.7687,-172.0114"/>
<polygon fill="#000000" stroke="#000000" points="169.7868,-168.6628 159.2004,-169.0869 167.7406,-175.3571 169.7868,-168.6628"/>
<g id="a_edge17&#45;headlabel"><a xlink:href="dir_000024_000034.html" target="_top" xlink:title="3">
<text text-anchor="middle" x="174.0543" y="-164.4981" font-family="Helvetica,sans-Serif" font-size="10.00" fill="#000000">3</text>
</a>
</g>
</g>
<!-- dir_674392b9e8b7e1553d8d6e614bc96d17 -->
<g id="node6" class="node">
<title>dir_674392b9e8b7e1553d8d6e614bc96d17</title>
<g id="a_node6"><a xlink:href="dir_674392b9e8b7e1553d8d6e614bc96d17.html" target="_top" xlink:title="m2n">
<polygon fill="#ffffff" stroke="#ff0000" points="290,-324 236,-324 236,-288 290,-288 290,-324"/>
<text text-anchor="middle" x="263" y="-303.5" font-family="Helvetica,sans-Serif" font-size="10.00" fill="#000000">m2n</text>
</a>
</g>
</g>
<!-- dir_3513c77e68d0de165c8b48f945306dcb&#45;&gt;dir_674392b9e8b7e1553d8d6e614bc96d17 -->
<g id="edge18" class="edge">
<title>dir_3513c77e68d0de165c8b48f945306dcb&#45;&gt;dir_674392b9e8b7e1553d8d6e614bc96d17</title>
<path fill="none" stroke="#000000" d="M292.6939,-431.7623C286.8691,-407.0928 276.4252,-362.8598 269.6048,-333.9731"/>
<polygon fill="#000000" stroke="#000000" points="272.9755,-333.0177 267.2712,-324.0896 266.1628,-334.6263 272.9755,-333.0177"/>
<g id="a_edge18&#45;headlabel"><a xlink:href="dir_000024_000009.html" target="_top" xlink:title="7">
<text text-anchor="middle" x="276.5647" y="-333.3637" font-family="Helvetica,sans-Serif" font-size="10.00" fill="#000000">7</text>
</a>
</g>
</g>
<!-- dir_b3320b59a4aa4a7431bc8488b87009bf -->
<g id="node7" class="node">
<title>dir_b3320b59a4aa4a7431bc8488b87009bf</title>
<g id="a_node7"><a xlink:href="dir_b3320b59a4aa4a7431bc8488b87009bf.html" target="_top" xlink:title="logging">
<polygon fill="#ffffff" stroke="#ff0000" points="223,-108 169,-108 169,-72 223,-72 223,-108"/>
<text text-anchor="middle" x="196" y="-87.5" font-family="Helvetica,sans-Serif" font-size="10.00" fill="#000000">logging</text>
</a>
</g>
</g>
<!-- dir_3513c77e68d0de165c8b48f945306dcb&#45;&gt;dir_b3320b59a4aa4a7431bc8488b87009bf -->
<g id="edge19" class="edge">
<title>dir_3513c77e68d0de165c8b48f945306dcb&#45;&gt;dir_b3320b59a4aa4a7431bc8488b87009bf</title>
<path fill="none" stroke="#000000" d="M317.4026,-431.5625C326.4941,-421.9675 336.2162,-409.4441 341,-396 347.0568,-378.978 340.3678,-302.4523 336,-288 314.6936,-217.5001 299.6989,-201.7565 254,-144 245.8634,-133.7165 235.7456,-123.605 226.2499,-114.963"/>
<polygon fill="#000000" stroke="#000000" points="228.2833,-112.0885 218.4769,-108.0777 223.6418,-117.3284 228.2833,-112.0885"/>
<g id="a_edge19&#45;headlabel"><a xlink:href="dir_000024_000027.html" target="_top" xlink:title="3">
<text text-anchor="middle" x="232.8567" y="-109.8466" font-family="Helvetica,sans-Serif" font-size="10.00" fill="#000000">3</text>
</a>
</g>
</g>
<!-- dir_313caf1132e152dd9b58bea13a4052ca -->
<g id="node8" class="node">
<title>dir_313caf1132e152dd9b58bea13a4052ca</title>
<g id="a_node8"><a xlink:href="dir_313caf1132e152dd9b58bea13a4052ca.html" target="_top" xlink:title="utils">
<polygon fill="#ffffff" stroke="#ff0000" points="191,-36 137,-36 137,0 191,0 191,-36"/>
<text text-anchor="middle" x="164" y="-15.5" font-family="Helvetica,sans-Serif" font-size="10.00" fill="#000000">utils</text>
</a>
</g>
</g>
<!-- dir_3513c77e68d0de165c8b48f945306dcb&#45;&gt;dir_313caf1132e152dd9b58bea13a4052ca -->
<g id="edge20" class="edge">
<title>dir_3513c77e68d0de165c8b48f945306dcb&#45;&gt;dir_313caf1132e152dd9b58bea13a4052ca</title>
<path fill="none" stroke="#000000" d="M324.1776,-439.3288C368.388,-419.9763 451,-374.6317 451,-306 451,-306 451,-306 451,-162 451,-51.5224 279.0049,-25.7969 201.3098,-19.8119"/>
<polygon fill="#000000" stroke="#000000" points="201.2199,-16.2972 191.0003,-19.0917 200.732,-23.2802 201.2199,-16.2972"/>
<g id="a_edge20&#45;headlabel"><a xlink:href="dir_000024_000044.html" target="_top" xlink:title="10">
<text text-anchor="middle" x="205.0036" y="-11.2153" font-family="Helvetica,sans-Serif" font-size="10.00" fill="#000000">10</text>
</a>
</g>
</g>
<!-- dir_0f2b2448c4cc8cb3bb09db1a1f620a61 -->
<g id="node2" class="node">
<title>dir_0f2b2448c4cc8cb3bb09db1a1f620a61</title>
<g id="a_node2"><a xlink:href="dir_0f2b2448c4cc8cb3bb09db1a1f620a61.html" target="_top" xlink:title="tests">
<polygon fill="#ffffff" stroke="#000000" points="252,-468 198,-468 198,-432 252,-432 252,-468"/>
<text text-anchor="middle" x="225" y="-447.5" font-family="Helvetica,sans-Serif" font-size="10.00" fill="#000000">tests</text>
</a>
</g>
</g>
<!-- dir_0f2b2448c4cc8cb3bb09db1a1f620a61&#45;&gt;dir_541eb0a6c58a7690acc5b848a4b1b724 -->
<g id="edge9" class="edge">
<title>dir_0f2b2448c4cc8cb3bb09db1a1f620a61&#45;&gt;dir_541eb0a6c58a7690acc5b848a4b1b724</title>
<path fill="none" stroke="#000000" d="M215.411,-431.8314C211.1683,-423.7925 206.0879,-414.1666 201.404,-405.2918"/>
<polygon fill="#000000" stroke="#000000" points="204.4811,-403.6235 196.7181,-396.4133 198.2904,-406.8908 204.4811,-403.6235"/>
<g id="a_edge9&#45;headlabel"><a xlink:href="dir_000043_000005.html" target="_top" xlink:title="2">
<text text-anchor="middle" x="208.6699" y="-402.9772" font-family="Helvetica,sans-Serif" font-size="10.00" fill="#000000">2</text>
</a>
</g>
</g>
<!-- dir_0f2b2448c4cc8cb3bb09db1a1f620a61&#45;&gt;dir_ae9a93452e2a84339148a16bcf2eb561 -->
<g id="edge10" class="edge">
<title>dir_0f2b2448c4cc8cb3bb09db1a1f620a61&#45;&gt;dir_ae9a93452e2a84339148a16bcf2eb561</title>
<path fill="none" stroke="#000000" d="M197.6456,-437.1776C181.3505,-428.0531 161.7988,-414.1883 151,-396 112.198,-330.6463 119.8428,-236.3438 126.8572,-189.9422"/>
<polygon fill="#000000" stroke="#000000" points="130.3225,-190.4374 128.4626,-180.0071 123.4121,-189.3207 130.3225,-190.4374"/>
<g id="a_edge10&#45;headlabel"><a xlink:href="dir_000043_000034.html" target="_top" xlink:title="1">
<text text-anchor="middle" x="132.5521" y="-191.9389" font-family="Helvetica,sans-Serif" font-size="10.00" fill="#000000">1</text>
</a>
</g>
</g>
<!-- dir_0f2b2448c4cc8cb3bb09db1a1f620a61&#45;&gt;dir_674392b9e8b7e1553d8d6e614bc96d17 -->
<g id="edge11" class="edge">
<title>dir_0f2b2448c4cc8cb3bb09db1a1f620a61&#45;&gt;dir_674392b9e8b7e1553d8d6e614bc96d17</title>
<path fill="none" stroke="#000000" d="M229.8127,-431.7623C236.3227,-407.0928 247.9953,-362.8598 255.6182,-333.9731"/>
<polygon fill="#000000" stroke="#000000" points="259.0589,-334.6517 258.2264,-324.0896 252.2906,-332.8656 259.0589,-334.6517"/>
<g id="a_edge11&#45;headlabel"><a xlink:href="dir_000043_000009.html" target="_top" xlink:title="1">
<text text-anchor="middle" x="260.8871" y="-336.3517" font-family="Helvetica,sans-Serif" font-size="10.00" fill="#000000">1</text>
</a>
</g>
</g>
<!-- dir_0f2b2448c4cc8cb3bb09db1a1f620a61&#45;&gt;dir_313caf1132e152dd9b58bea13a4052ca -->
<g id="edge12" class="edge">
<title>dir_0f2b2448c4cc8cb3bb09db1a1f620a61&#45;&gt;dir_313caf1132e152dd9b58bea13a4052ca</title>
<path fill="none" stroke="#000000" d="M197.8597,-445.7417C138.0166,-434.6492 0,-398.987 0,-306 0,-306 0,-306 0,-162 0,-94.6487 79.0683,-51.4025 127.4025,-31.2583"/>
<polygon fill="#000000" stroke="#000000" points="128.9517,-34.4075 136.9187,-27.4235 126.3353,-27.9149 128.9517,-34.4075"/>
<g id="a_edge12&#45;headlabel"><a xlink:href="dir_000043_000044.html" target="_top" xlink:title="1">
<text text-anchor="middle" x="126.6789" y="-35.8845" font-family="Helvetica,sans-Serif" font-size="10.00" fill="#000000">1</text>
</a>
</g>
</g>
<!-- dir_541eb0a6c58a7690acc5b848a4b1b724&#45;&gt;dir_7be0d8c199b9408ae01f5d77515b8def -->
<g id="edge1" class="edge">
<title>dir_541eb0a6c58a7690acc5b848a4b1b724&#45;&gt;dir_7be0d8c199b9408ae01f5d77515b8def</title>
<path fill="none" stroke="#000000" d="M191.8127,-359.7623C198.3227,-335.0928 209.9953,-290.8598 217.6182,-261.9731"/>
<polygon fill="#000000" stroke="#000000" points="221.0589,-262.6517 220.2264,-252.0896 214.2906,-260.8656 221.0589,-262.6517"/>
<g id="a_edge1&#45;headlabel"><a xlink:href="dir_000005_000011.html" target="_top" xlink:title="9">
<text text-anchor="middle" x="222.8871" y="-264.3517" font-family="Helvetica,sans-Serif" font-size="10.00" fill="#000000">9</text>
</a>
</g>
</g>
<!-- dir_541eb0a6c58a7690acc5b848a4b1b724&#45;&gt;dir_ae9a93452e2a84339148a16bcf2eb561 -->
<g id="edge2" class="edge">
<title>dir_541eb0a6c58a7690acc5b848a4b1b724&#45;&gt;dir_ae9a93452e2a84339148a16bcf2eb561</title>
<path fill="none" stroke="#000000" d="M174.2797,-359.835C167.8062,-349.7283 160.3957,-336.6632 156,-324 140.3356,-278.8735 134.8948,-223.2042 133.0052,-190.2664"/>
<polygon fill="#000000" stroke="#000000" points="136.4877,-189.8277 132.4909,-180.0156 129.4965,-190.1785 136.4877,-189.8277"/>
<g id="a_edge2&#45;headlabel"><a xlink:href="dir_000005_000034.html" target="_top" xlink:title="3">
<text text-anchor="middle" x="139.5034" y="-190.7755" font-family="Helvetica,sans-Serif" font-size="10.00" fill="#000000">3</text>
</a>
</g>
</g>
<!-- dir_541eb0a6c58a7690acc5b848a4b1b724&#45;&gt;dir_674392b9e8b7e1553d8d6e614bc96d17 -->
<g id="edge3" class="edge">
<title>dir_541eb0a6c58a7690acc5b848a4b1b724&#45;&gt;dir_674392b9e8b7e1553d8d6e614bc96d17</title>
<path fill="none" stroke="#000000" d="M200.2256,-359.8314C208.6405,-351.0485 219.7439,-340.3712 230.3171,-330.8489"/>
<polygon fill="#000000" stroke="#000000" points="232.7047,-333.4097 237.8763,-324.1628 228.067,-328.1664 232.7047,-333.4097"/>
<g id="a_edge3&#45;headlabel"><a xlink:href="dir_000005_000009.html" target="_top" xlink:title="2">
<text text-anchor="middle" x="231.8933" y="-335.4179" font-family="Helvetica,sans-Serif" font-size="10.00" fill="#000000">2</text>
</a>
</g>
</g>
<!-- dir_541eb0a6c58a7690acc5b848a4b1b724&#45;&gt;dir_b3320b59a4aa4a7431bc8488b87009bf -->
<g id="edge4" class="edge">
<title>dir_541eb0a6c58a7690acc5b848a4b1b724&#45;&gt;dir_b3320b59a4aa4a7431bc8488b87009bf</title>
<path fill="none" stroke="#000000" d="M186.9689,-359.5297C186.9766,-329.4483 187.2352,-268.0053 189,-216 190.1378,-182.4716 192.4189,-143.9729 194.0685,-118.4456"/>
<polygon fill="#000000" stroke="#000000" points="197.5685,-118.5598 194.7316,-108.3518 190.5835,-118.1008 197.5685,-118.5598"/>
<g id="a_edge4&#45;headlabel"><a xlink:href="dir_000005_000027.html" target="_top" xlink:title="22">
<text text-anchor="middle" x="200.1661" y="-119.8327" font-family="Helvetica,sans-Serif" font-size="10.00" fill="#000000">22</text>
</a>
</g>
</g>
<!-- dir_541eb0a6c58a7690acc5b848a4b1b724&#45;&gt;dir_313caf1132e152dd9b58bea13a4052ca -->
<g id="edge5" class="edge">
<title>dir_541eb0a6c58a7690acc5b848a4b1b724&#45;&gt;dir_313caf1132e152dd9b58bea13a4052ca</title>
<path fill="none" stroke="#000000" d="M161.238,-359.7476C151.3923,-349.8214 141.068,-336.9503 134,-324 101.7475,-264.9058 97.5758,-246.4868 87,-180 84.4866,-164.1987 83.0812,-159.5127 87,-144 96.3673,-106.9196 119.0376,-68.8975 137.5906,-44.4597"/>
<polygon fill="#000000" stroke="#000000" points="140.5003,-46.4226 143.9527,-36.4061 135.0074,-42.0834 140.5003,-46.4226"/>
<g id="a_edge5&#45;headlabel"><a xlink:href="dir_000005_000044.html" target="_top" xlink:title="22">
<text text-anchor="middle" x="140.5" y="-48.5033" font-family="Helvetica,sans-Serif" font-size="10.00" fill="#000000">22</text>
</a>
</g>
</g>
<!-- dir_7be0d8c199b9408ae01f5d77515b8def&#45;&gt;dir_ae9a93452e2a84339148a16bcf2eb561 -->
<g id="edge6" class="edge">
<title>dir_7be0d8c199b9408ae01f5d77515b8def&#45;&gt;dir_ae9a93452e2a84339148a16bcf2eb561</title>
<path fill="none" stroke="#000000" d="M201.5322,-215.8314C189.9673,-206.8779 175.8596,-195.9558 163.3817,-186.2955"/>
<polygon fill="#000000" stroke="#000000" points="165.5102,-183.5171 155.4603,-180.1628 161.225,-189.0521 165.5102,-183.5171"/>
<g id="a_edge6&#45;headlabel"><a xlink:href="dir_000011_000034.html" target="_top" xlink:title="9">
<text text-anchor="middle" x="170.0906" y="-180.9725" font-family="Helvetica,sans-Serif" font-size="10.00" fill="#000000">9</text>
</a>
</g>
</g>
<!-- dir_7be0d8c199b9408ae01f5d77515b8def&#45;&gt;dir_b3320b59a4aa4a7431bc8488b87009bf -->
<g id="edge7" class="edge">
<title>dir_7be0d8c199b9408ae01f5d77515b8def&#45;&gt;dir_b3320b59a4aa4a7431bc8488b87009bf</title>
<path fill="none" stroke="#000000" d="M221.3271,-215.7623C216.359,-191.0928 207.4509,-146.8598 201.6335,-117.9731"/>
<polygon fill="#000000" stroke="#000000" points="205.0485,-117.2018 199.643,-108.0896 198.1863,-118.5838 205.0485,-117.2018"/>
<g id="a_edge7&#45;headlabel"><a xlink:href="dir_000011_000027.html" target="_top" xlink:title="18">
<text text-anchor="middle" x="208.5415" y="-117.6651" font-family="Helvetica,sans-Serif" font-size="10.00" fill="#000000">18</text>
</a>
</g>
</g>
<!-- dir_7be0d8c199b9408ae01f5d77515b8def&#45;&gt;dir_313caf1132e152dd9b58bea13a4052ca -->
<g id="edge8" class="edge">
<title>dir_7be0d8c199b9408ae01f5d77515b8def&#45;&gt;dir_313caf1132e152dd9b58bea13a4052ca</title>
<path fill="none" stroke="#000000" d="M231.0903,-215.8699C240.45,-184.6868 255.012,-119.6596 232,-72 225.0765,-57.6608 212.2901,-45.9615 199.6575,-37.1646"/>
<polygon fill="#000000" stroke="#000000" points="201.3018,-34.059 191.0104,-31.5415 197.4856,-39.9273 201.3018,-34.059"/>
<g id="a_edge8&#45;headlabel"><a xlink:href="dir_000011_000044.html" target="_top" xlink:title="18">
<text text-anchor="middle" x="205.8631" y="-31.1383" font-family="Helvetica,sans-Serif" font-size="10.00" fill="#000000">18</text>
</a>
</g>
</g>
<!-- dir_ae9a93452e2a84339148a16bcf2eb561&#45;&gt;dir_b3320b59a4aa4a7431bc8488b87009bf -->
<g id="edge13" class="edge">
<title>dir_ae9a93452e2a84339148a16bcf2eb561&#45;&gt;dir_b3320b59a4aa4a7431bc8488b87009bf</title>
<path fill="none" stroke="#000000" d="M148.1499,-143.8314C155.6717,-135.3694 164.7565,-125.1489 172.9804,-115.8971"/>
<polygon fill="#000000" stroke="#000000" points="175.6049,-118.2127 179.6327,-108.4133 170.373,-113.5621 175.6049,-118.2127"/>
<g id="a_edge13&#45;headlabel"><a xlink:href="dir_000034_000027.html" target="_top" xlink:title="4">
<text text-anchor="middle" x="175.3389" y="-120.2856" font-family="Helvetica,sans-Serif" font-size="10.00" fill="#000000">4</text>
</a>
</g>
</g>
<!-- dir_ae9a93452e2a84339148a16bcf2eb561&#45;&gt;dir_313caf1132e152dd9b58bea13a4052ca -->
<g id="edge14" class="edge">
<title>dir_ae9a93452e2a84339148a16bcf2eb561&#45;&gt;dir_313caf1132e152dd9b58bea13a4052ca</title>
<path fill="none" stroke="#000000" d="M131.3797,-143.7623C134.3911,-119.0928 143.9544,-74.8598 152.3117,-45.9731"/>
<polygon fill="#000000" stroke="#000000" points="155.7564,-46.6755 155.3218,-36.0896 149.0601,-44.6361 155.7564,-46.6755"/>
<g id="a_edge14&#45;headlabel"><a xlink:href="dir_000034_000044.html" target="_top" xlink:title="7">
<text text-anchor="middle" x="157.4253" y="-48.4414" font-family="Helvetica,sans-Serif" font-size="10.00" fill="#000000">7</text>
</a>
</g>
</g>
<!-- dir_674392b9e8b7e1553d8d6e614bc96d17&#45;&gt;dir_541eb0a6c58a7690acc5b848a4b1b724 -->
<g id="edge21" class="edge">
<title>dir_674392b9e8b7e1553d8d6e614bc96d17&#45;&gt;dir_541eb0a6c58a7690acc5b848a4b1b724</title>
<path fill="none" stroke="#000000" d="M249.5398,-324.4133C241.1399,-333.1637 230.1219,-343.7519 219.6311,-353.1978"/>
<polygon fill="#000000" stroke="#000000" points="217.3025,-350.5847 212.1304,-359.8314 221.9399,-355.8283 217.3025,-350.5847"/>
<g id="a_edge21&#45;headlabel"><a xlink:href="dir_000009_000005.html" target="_top" xlink:title="23">
<text text-anchor="middle" x="218.1142" y="-343.5766" font-family="Helvetica,sans-Serif" font-size="10.00" fill="#000000">23</text>
</a>
</g>
</g>
<!-- dir_674392b9e8b7e1553d8d6e614bc96d17&#45;&gt;dir_7be0d8c199b9408ae01f5d77515b8def -->
<g id="edge22" class="edge">
<title>dir_674392b9e8b7e1553d8d6e614bc96d17&#45;&gt;dir_7be0d8c199b9408ae01f5d77515b8def</title>
<path fill="none" stroke="#000000" d="M253.411,-287.8314C249.1683,-279.7925 244.0879,-270.1666 239.404,-261.2918"/>
<polygon fill="#000000" stroke="#000000" points="242.4811,-259.6235 234.7181,-252.4133 236.2904,-262.8908 242.4811,-259.6235"/>
<g id="a_edge22&#45;headlabel"><a xlink:href="dir_000009_000011.html" target="_top" xlink:title="15">
<text text-anchor="middle" x="246.6699" y="-258.9772" font-family="Helvetica,sans-Serif" font-size="10.00" fill="#000000">15</text>
</a>
</g>
</g>
<!-- dir_674392b9e8b7e1553d8d6e614bc96d17&#45;&gt;dir_b3320b59a4aa4a7431bc8488b87009bf -->
<g id="edge23" class="edge">
<title>dir_674392b9e8b7e1553d8d6e614bc96d17&#45;&gt;dir_b3320b59a4aa4a7431bc8488b87009bf</title>
<path fill="none" stroke="#000000" d="M264.9049,-287.7631C266.2927,-269.3602 267.0153,-240.2719 261,-216 251.8771,-179.1885 230.1898,-141.0454 214.3671,-116.5085"/>
<polygon fill="#000000" stroke="#000000" points="217.2605,-114.5382 208.8372,-108.1118 211.4144,-118.3884 217.2605,-114.5382"/>
<g id="a_edge23&#45;headlabel"><a xlink:href="dir_000009_000027.html" target="_top" xlink:title="10">
<text text-anchor="middle" x="221.6087" y="-113.4786" font-family="Helvetica,sans-Serif" font-size="10.00" fill="#000000">10</text>
</a>
</g>
</g>
<!-- dir_674392b9e8b7e1553d8d6e614bc96d17&#45;&gt;dir_313caf1132e152dd9b58bea13a4052ca -->
<g id="edge24" class="edge">
<title>dir_674392b9e8b7e1553d8d6e614bc96d17&#45;&gt;dir_313caf1132e152dd9b58bea13a4052ca</title>
<path fill="none" stroke="#000000" d="M269.3948,-287.7647C272.6846,-277.4187 276.3442,-264.1474 278,-252 288.9169,-171.9103 297.6082,-138.734 252,-72 239.5115,-53.7268 218.5976,-40.5184 200.2914,-31.74"/>
<polygon fill="#000000" stroke="#000000" points="201.5687,-28.4766 191.0145,-27.55 198.6873,-34.856 201.5687,-28.4766"/>
<g id="a_edge24&#45;headlabel"><a xlink:href="dir_000009_000044.html" target="_top" xlink:title="14">
<text text-anchor="middle" x="206.0134" y="-24.8686" font-family="Helvetica,sans-Serif" font-size="10.00" fill="#000000">14</text>
</a>
</g>
</g>
<!-- dir_b3320b59a4aa4a7431bc8488b87009bf&#45;&gt;dir_313caf1132e152dd9b58bea13a4052ca -->
<g id="edge25" class="edge">
<title>dir_b3320b59a4aa4a7431bc8488b87009bf&#45;&gt;dir_313caf1132e152dd9b58bea13a4052ca</title>
<path fill="none" stroke="#000000" d="M181.9727,-71.8314C177.7081,-63.9617 173.3207,-54.5712 169.7853,-45.8533"/>
<polygon fill="#000000" stroke="#000000" points="173.0244,-44.5239 166.2077,-36.4133 166.4787,-47.0046 173.0244,-44.5239"/>
<g id="a_edge25&#45;headlabel"><a xlink:href="dir_000027_000044.html" target="_top" xlink:title="3">
<text text-anchor="middle" x="176.9533" y="-44.379" font-family="Helvetica,sans-Serif" font-size="10.00" fill="#000000">3</text>
</a>
</g>
</g>
<!-- dir_313caf1132e152dd9b58bea13a4052ca&#45;&gt;dir_541eb0a6c58a7690acc5b848a4b1b724 -->
<g id="edge26" class="edge">
<title>dir_313caf1132e152dd9b58bea13a4052ca&#45;&gt;dir_541eb0a6c58a7690acc5b848a4b1b724</title>
<path fill="none" stroke="#000000" d="M156.4934,-36.4061C142.5684,-59.9185 115.4717,-102.5476 105,-144 101.0812,-159.5127 102.4866,-164.1987 105,-180 115.5758,-246.4868 119.7475,-264.9058 152,-324 157.301,-333.7128 164.4337,-343.3809 171.0005,-351.7956"/>
<polygon fill="#000000" stroke="#000000" points="168.3412,-354.0755 177.2898,-359.7476 173.8316,-349.7331 168.3412,-354.0755"/>
<g id="a_edge26&#45;headlabel"><a xlink:href="dir_000044_000005.html" target="_top" xlink:title="5">
<text text-anchor="middle" x="163.8844" y="-350.5174" font-family="Helvetica,sans-Serif" font-size="10.00" fill="#000000">5</text>
</a>
</g>
</g>
<!-- dir_313caf1132e152dd9b58bea13a4052ca&#45;&gt;dir_ae9a93452e2a84339148a16bcf2eb561 -->
<g id="edge27" class="edge">
<title>dir_313caf1132e152dd9b58bea13a4052ca&#45;&gt;dir_ae9a93452e2a84339148a16bcf2eb561</title>
<path fill="none" stroke="#000000" d="M164.6384,-36.0896C161.6532,-60.6805 152.1007,-104.905 143.7385,-133.8531"/>
<polygon fill="#000000" stroke="#000000" points="140.2861,-133.1766 140.726,-143.7623 146.9834,-135.2127 140.2861,-133.1766"/>
<g id="a_edge27&#45;headlabel"><a xlink:href="dir_000044_000034.html" target="_top" xlink:title="8">
<text text-anchor="middle" x="138.6151" y="-126.4116" font-family="Helvetica,sans-Serif" font-size="10.00" fill="#000000">8</text>
</a>
</g>
</g>
<!-- dir_313caf1132e152dd9b58bea13a4052ca&#45;&gt;dir_b3320b59a4aa4a7431bc8488b87009bf -->
<g id="edge28" class="edge">
<title>dir_313caf1132e152dd9b58bea13a4052ca&#45;&gt;dir_b3320b59a4aa4a7431bc8488b87009bf</title>
<path fill="none" stroke="#000000" d="M178.1597,-36.4133C182.4267,-44.3141 186.8065,-53.7132 190.3241,-62.417"/>
<polygon fill="#000000" stroke="#000000" points="187.0717,-63.7115 193.8774,-71.8314 193.6207,-61.2396 187.0717,-63.7115"/>
<g id="a_edge28&#45;headlabel"><a xlink:href="dir_000044_000027.html" target="_top" xlink:title="11">
<text text-anchor="middle" x="183.1461" y="-58.851" font-family="Helvetica,sans-Serif" font-size="10.00" fill="#000000">11</text>
</a>
</g>
</g>
</g>
</svg>
