<?xml version="1.0" encoding="UTF-8" standalone="no"?>
<!DOCTYPE svg PUBLIC "-//W3C//DTD SVG 1.1//EN"
 "http://www.w3.org/Graphics/SVG/1.1/DTD/svg11.dtd">
<!-- Generated by graphviz version 2.40.1 (20161225.0304)
 -->
<!-- Title: src/io/tests Pages: 1 -->
<svg width="396pt" height="511pt"
 viewBox="0.00 0.00 396.45 511.00" xmlns="http://www.w3.org/2000/svg" xmlns:xlink="http://www.w3.org/1999/xlink">
<g id="graph0" class="graph" transform="scale(1 1) rotate(0) translate(4 507)">
<title>src/io/tests</title>
<polygon fill="#ffffff" stroke="transparent" points="-4,4 -4,-507 392.4507,-507 392.4507,4 -4,4"/>
<g id="clust1" class="cluster">
<title>clusterdir_c184e51c84f2c3f0345bbc8a0d75d3e1</title>
<g id="a_clust1"><a xlink:href="dir_c184e51c84f2c3f0345bbc8a0d75d3e1.html" target="_top" xlink:title="io">
<polygon fill="#ddddee" stroke="#000000" points="182,-424 182,-495 252,-495 252,-424 182,-424"/>
<text text-anchor="middle" x="217" y="-483" font-family="Helvetica,sans-Serif" font-size="10.00" fill="#000000">io</text>
</a>
</g>
</g>
<!-- dir_71a18a1e1d3621ada823fed970fe0eff -->
<g id="node1" class="node">
<title>dir_71a18a1e1d3621ada823fed970fe0eff</title>
<g id="a_node1"><a xlink:href="dir_71a18a1e1d3621ada823fed970fe0eff.html" target="_top" xlink:title="tests">
<polygon fill="#eeeeff" stroke="#000000" points="244,-468 190,-468 190,-432 244,-432 244,-468"/>
<text text-anchor="middle" x="217" y="-447.5" font-family="Helvetica,sans-Serif" font-size="10.00" fill="#000000">tests</text>
</a>
</g>
</g>
<!-- dir_541eb0a6c58a7690acc5b848a4b1b724 -->
<g id="node2" class="node">
<title>dir_541eb0a6c58a7690acc5b848a4b1b724</title>
<g id="a_node2"><a xlink:href="dir_541eb0a6c58a7690acc5b848a4b1b724.html" target="_top" xlink:title="com">
<polygon fill="#ffffff" stroke="#ff0000" points="338,-396 284,-396 284,-360 338,-360 338,-396"/>
<text text-anchor="middle" x="311" y="-375.5" font-family="Helvetica,sans-Serif" font-size="10.00" fill="#000000">com</text>
</a>
</g>
</g>
<!-- dir_71a18a1e1d3621ada823fed970fe0eff&#45;&gt;dir_541eb0a6c58a7690acc5b848a4b1b724 -->
<g id="edge10" class="edge">
<title>dir_71a18a1e1d3621ada823fed970fe0eff&#45;&gt;dir_541eb0a6c58a7690acc5b848a4b1b724</title>
<path fill="none" stroke="#000000" d="M240.7202,-431.8314C252.4094,-422.8779 266.6688,-411.9558 279.2809,-402.2955"/>
<polygon fill="#000000" stroke="#000000" points="281.4769,-405.0222 287.2874,-396.1628 277.2203,-399.4651 281.4769,-405.0222"/>
<g id="a_edge10&#45;headlabel"><a xlink:href="dir_000026_000005.html" target="_top" xlink:title="1">
<text text-anchor="middle" x="280.3497" y="-406.962" font-family="Helvetica,sans-Serif" font-size="10.00" fill="#000000">1</text>
</a>
</g>
</g>
<!-- dir_7be0d8c199b9408ae01f5d77515b8def -->
<g id="node3" class="node">
<title>dir_7be0d8c199b9408ae01f5d77515b8def</title>
<g id="a_node3"><a xlink:href="dir_7be0d8c199b9408ae01f5d77515b8def.html" target="_top" xlink:title="mesh">
<polygon fill="#ffffff" stroke="#ff0000" points="244,-324 190,-324 190,-288 244,-288 244,-324"/>
<text text-anchor="middle" x="217" y="-303.5" font-family="Helvetica,sans-Serif" font-size="10.00" fill="#000000">mesh</text>
</a>
</g>
</g>
<!-- dir_71a18a1e1d3621ada823fed970fe0eff&#45;&gt;dir_7be0d8c199b9408ae01f5d77515b8def -->
<g id="edge11" class="edge">
<title>dir_71a18a1e1d3621ada823fed970fe0eff&#45;&gt;dir_7be0d8c199b9408ae01f5d77515b8def</title>
<path fill="none" stroke="#000000" d="M217,-431.7623C217,-407.201 217,-363.2474 217,-334.3541"/>
<polygon fill="#000000" stroke="#000000" points="220.5001,-334.0896 217,-324.0896 213.5001,-334.0897 220.5001,-334.0896"/>
<g id="a_edge11&#45;headlabel"><a xlink:href="dir_000026_000011.html" target="_top" xlink:title="2">
<text text-anchor="middle" x="223.3393" y="-335.1842" font-family="Helvetica,sans-Serif" font-size="10.00" fill="#000000">2</text>
</a>
</g>
</g>
<!-- dir_204ef1561b97ecb563366b59b06c0b80 -->
<g id="node4" class="node">
<title>dir_204ef1561b97ecb563366b59b06c0b80</title>
<g id="a_node4"><a xlink:href="dir_204ef1561b97ecb563366b59b06c0b80.html" target="_top" xlink:title="config">
<polygon fill="none" stroke="#000000" points="96,-324 42,-324 42,-288 96,-288 96,-324"/>
<text text-anchor="middle" x="69" y="-303.5" font-family="Helvetica,sans-Serif" font-size="10.00" fill="#000000">config</text>
</a>
</g>
</g>
<!-- dir_71a18a1e1d3621ada823fed970fe0eff&#45;&gt;dir_204ef1561b97ecb563366b59b06c0b80 -->
<g id="edge12" class="edge">
<title>dir_71a18a1e1d3621ada823fed970fe0eff&#45;&gt;dir_204ef1561b97ecb563366b59b06c0b80</title>
<path fill="none" stroke="#000000" d="M189.6868,-441.9581C165.9694,-433.7611 132.0579,-418.9564 110,-396 93.3615,-378.6837 82.6655,-353.4247 76.3852,-334.0705"/>
<polygon fill="#000000" stroke="#000000" points="79.67,-332.8415 73.4181,-324.2878 72.9713,-334.8733 79.67,-332.8415"/>
<g id="a_edge12&#45;headlabel"><a xlink:href="dir_000026_000025.html" target="_top" xlink:title="1">
<text text-anchor="middle" x="83.4303" y="-332.9573" font-family="Helvetica,sans-Serif" font-size="10.00" fill="#000000">1</text>
</a>
</g>
</g>
<!-- dir_c43b215a2ade73e6562bd37d8a11c12a -->
<g id="node5" class="node">
<title>dir_c43b215a2ade73e6562bd37d8a11c12a</title>
<g id="a_node5"><a xlink:href="dir_c43b215a2ade73e6562bd37d8a11c12a.html" target="_top" xlink:title="xml">
<polygon fill="#ffffff" stroke="#ff0000" points="142,-252 88,-252 88,-216 142,-216 142,-252"/>
<text text-anchor="middle" x="115" y="-231.5" font-family="Helvetica,sans-Serif" font-size="10.00" fill="#000000">xml</text>
</a>
</g>
</g>
<!-- dir_71a18a1e1d3621ada823fed970fe0eff&#45;&gt;dir_c43b215a2ade73e6562bd37d8a11c12a -->
<g id="edge13" class="edge">
<title>dir_71a18a1e1d3621ada823fed970fe0eff&#45;&gt;dir_c43b215a2ade73e6562bd37d8a11c12a</title>
<path fill="none" stroke="#000000" d="M204.8301,-431.8708C189.1743,-407.9584 161.8733,-364.1945 144,-324 134.9811,-303.7178 127.3991,-279.7531 122.2522,-261.6542"/>
<polygon fill="#000000" stroke="#000000" points="125.6223,-260.7092 119.5803,-252.0061 118.8762,-262.5775 125.6223,-260.7092"/>
<g id="a_edge13&#45;headlabel"><a xlink:href="dir_000026_000046.html" target="_top" xlink:title="1">
<text text-anchor="middle" x="129.3179" y="-260.9157" font-family="Helvetica,sans-Serif" font-size="10.00" fill="#000000">1</text>
</a>
</g>
</g>
<!-- dir_3513c77e68d0de165c8b48f945306dcb -->
<g id="node6" class="node">
<title>dir_3513c77e68d0de165c8b48f945306dcb</title>
<g id="a_node6"><a xlink:href="dir_3513c77e68d0de165c8b48f945306dcb.html" target="_top" xlink:title="testing">
<polygon fill="#ffffff" stroke="#ff0000" points="252,-180 198,-180 198,-144 252,-144 252,-180"/>
<text text-anchor="middle" x="225" y="-159.5" font-family="Helvetica,sans-Serif" font-size="10.00" fill="#000000">testing</text>
</a>
</g>
</g>
<!-- dir_71a18a1e1d3621ada823fed970fe0eff&#45;&gt;dir_3513c77e68d0de165c8b48f945306dcb -->
<g id="edge14" class="edge">
<title>dir_71a18a1e1d3621ada823fed970fe0eff&#45;&gt;dir_3513c77e68d0de165c8b48f945306dcb</title>
<path fill="none" stroke="#000000" d="M244.1676,-447.391C275.0521,-442.8084 324.1388,-430.2513 347,-396 395.1648,-323.8382 305.3152,-230.3934 255.2807,-186.6388"/>
<polygon fill="#000000" stroke="#000000" points="257.4847,-183.918 247.6196,-180.054 252.9219,-189.2266 257.4847,-183.918"/>
<g id="a_edge14&#45;headlabel"><a xlink:href="dir_000026_000024.html" target="_top" xlink:title="10">
<text text-anchor="middle" x="262.0614" y="-181.6078" font-family="Helvetica,sans-Serif" font-size="10.00" fill="#000000">10</text>
</a>
</g>
</g>
<!-- dir_b3320b59a4aa4a7431bc8488b87009bf -->
<g id="node7" class="node">
<title>dir_b3320b59a4aa4a7431bc8488b87009bf</title>
<g id="a_node7"><a xlink:href="dir_b3320b59a4aa4a7431bc8488b87009bf.html" target="_top" xlink:title="logging">
<polygon fill="#ffffff" stroke="#ff0000" points="197,-36 143,-36 143,0 197,0 197,-36"/>
<text text-anchor="middle" x="170" y="-15.5" font-family="Helvetica,sans-Serif" font-size="10.00" fill="#000000">logging</text>
</a>
</g>
</g>
<!-- dir_71a18a1e1d3621ada823fed970fe0eff&#45;&gt;dir_b3320b59a4aa4a7431bc8488b87009bf -->
<g id="edge15" class="edge">
<title>dir_71a18a1e1d3621ada823fed970fe0eff&#45;&gt;dir_b3320b59a4aa4a7431bc8488b87009bf</title>
<path fill="none" stroke="#000000" d="M189.9556,-445.2346C131.7849,-433.2674 0,-396.2018 0,-306 0,-306 0,-306 0,-162 0,-92.7403 83.1722,-49.918 133.1649,-30.4344"/>
<polygon fill="#000000" stroke="#000000" points="134.5621,-33.6482 142.6866,-26.8479 132.0947,-27.0975 134.5621,-33.6482"/>
<g id="a_edge15&#45;headlabel"><a xlink:href="dir_000026_000027.html" target="_top" xlink:title="1">
<text text-anchor="middle" x="132.199" y="-35.0722" font-family="Helvetica,sans-Serif" font-size="10.00" fill="#000000">1</text>
</a>
</g>
</g>
<!-- dir_313caf1132e152dd9b58bea13a4052ca -->
<g id="node8" class="node">
<title>dir_313caf1132e152dd9b58bea13a4052ca</title>
<g id="a_node8"><a xlink:href="dir_313caf1132e152dd9b58bea13a4052ca.html" target="_top" xlink:title="utils">
<polygon fill="#ffffff" stroke="#ff0000" points="290,-108 236,-108 236,-72 290,-72 290,-108"/>
<text text-anchor="middle" x="263" y="-87.5" font-family="Helvetica,sans-Serif" font-size="10.00" fill="#000000">utils</text>
</a>
</g>
</g>
<!-- dir_71a18a1e1d3621ada823fed970fe0eff&#45;&gt;dir_313caf1132e152dd9b58bea13a4052ca -->
<g id="edge16" class="edge">
<title>dir_71a18a1e1d3621ada823fed970fe0eff&#45;&gt;dir_313caf1132e152dd9b58bea13a4052ca</title>
<path fill="none" stroke="#000000" d="M244.0472,-444.1631C283.1949,-435.1042 352.5571,-416.5498 367,-396 430.9627,-304.9921 333.4876,-171.4264 286.2546,-115.7965"/>
<polygon fill="#000000" stroke="#000000" points="288.8572,-113.4552 279.6755,-108.1687 283.5565,-118.0272 288.8572,-113.4552"/>
<g id="a_edge16&#45;headlabel"><a xlink:href="dir_000026_000044.html" target="_top" xlink:title="1">
<text text-anchor="middle" x="293.3549" y="-111.8228" font-family="Helvetica,sans-Serif" font-size="10.00" fill="#000000">1</text>
</a>
</g>
</g>
<!-- dir_541eb0a6c58a7690acc5b848a4b1b724&#45;&gt;dir_7be0d8c199b9408ae01f5d77515b8def -->
<g id="edge1" class="edge">
<title>dir_541eb0a6c58a7690acc5b848a4b1b724&#45;&gt;dir_7be0d8c199b9408ae01f5d77515b8def</title>
<path fill="none" stroke="#000000" d="M287.2798,-359.8314C275.5906,-350.8779 261.3312,-339.9558 248.7191,-330.2955"/>
<polygon fill="#000000" stroke="#000000" points="250.7797,-327.4651 240.7126,-324.1628 246.5231,-333.0222 250.7797,-327.4651"/>
<g id="a_edge1&#45;headlabel"><a xlink:href="dir_000005_000011.html" target="_top" xlink:title="9">
<text text-anchor="middle" x="255.3598" y="-324.8968" font-family="Helvetica,sans-Serif" font-size="10.00" fill="#000000">9</text>
</a>
</g>
</g>
<!-- dir_541eb0a6c58a7690acc5b848a4b1b724&#45;&gt;dir_c43b215a2ade73e6562bd37d8a11c12a -->
<g id="edge2" class="edge">
<title>dir_541eb0a6c58a7690acc5b848a4b1b724&#45;&gt;dir_c43b215a2ade73e6562bd37d8a11c12a</title>
<path fill="none" stroke="#000000" d="M283.8823,-371.3973C255.9226,-363.5853 212.1338,-348.4574 181,-324 159.1647,-306.8471 141.0939,-280.6958 129.4152,-260.9955"/>
<polygon fill="#000000" stroke="#000000" points="132.3708,-259.1137 124.3579,-252.1823 126.2994,-262.5978 132.3708,-259.1137"/>
<g id="a_edge2&#45;headlabel"><a xlink:href="dir_000005_000046.html" target="_top" xlink:title="2">
<text text-anchor="middle" x="136.6224" y="-258.3184" font-family="Helvetica,sans-Serif" font-size="10.00" fill="#000000">2</text>
</a>
</g>
</g>
<!-- dir_541eb0a6c58a7690acc5b848a4b1b724&#45;&gt;dir_3513c77e68d0de165c8b48f945306dcb -->
<g id="edge3" class="edge">
<title>dir_541eb0a6c58a7690acc5b848a4b1b724&#45;&gt;dir_3513c77e68d0de165c8b48f945306dcb</title>
<path fill="none" stroke="#000000" d="M299.8697,-359.9555C281.3856,-322.235 246.3279,-234.8188 231.3792,-189.8399"/>
<polygon fill="#000000" stroke="#000000" points="234.6566,-188.5981 228.2693,-180.1451 227.9911,-190.7363 234.6566,-188.5981"/>
<g id="a_edge3&#45;headlabel"><a xlink:href="dir_000005_000024.html" target="_top" xlink:title="12">
<text text-anchor="middle" x="238.4581" y="-188.6537" font-family="Helvetica,sans-Serif" font-size="10.00" fill="#000000">12</text>
</a>
</g>
</g>
<!-- dir_541eb0a6c58a7690acc5b848a4b1b724&#45;&gt;dir_b3320b59a4aa4a7431bc8488b87009bf -->
<g id="edge4" class="edge">
<title>dir_541eb0a6c58a7690acc5b848a4b1b724&#45;&gt;dir_b3320b59a4aa4a7431bc8488b87009bf</title>
<path fill="none" stroke="#000000" d="M319.5151,-359.9594C323.8979,-349.6742 328.7776,-336.3991 331,-324 350.9182,-212.8715 368.486,-160.9829 299,-72 276.7441,-43.4994 236.7204,-29.8836 207.1366,-23.4798"/>
<polygon fill="#000000" stroke="#000000" points="207.6435,-20.0123 197.154,-21.503 206.2836,-26.879 207.6435,-20.0123"/>
<g id="a_edge4&#45;headlabel"><a xlink:href="dir_000005_000027.html" target="_top" xlink:title="22">
<text text-anchor="middle" x="211.7211" y="-15.4254" font-family="Helvetica,sans-Serif" font-size="10.00" fill="#000000">22</text>
</a>
</g>
</g>
<!-- dir_541eb0a6c58a7690acc5b848a4b1b724&#45;&gt;dir_313caf1132e152dd9b58bea13a4052ca -->
<g id="edge5" class="edge">
<title>dir_541eb0a6c58a7690acc5b848a4b1b724&#45;&gt;dir_313caf1132e152dd9b58bea13a4052ca</title>
<path fill="none" stroke="#000000" d="M303.9054,-359.6585C301.3192,-341.422 300.1544,-312.6813 297,-288 288.7237,-223.2418 282.642,-207.6218 268,-144 266.0756,-135.6383 263.8065,-126.5968 262.0347,-118.3475"/>
<polygon fill="#000000" stroke="#000000" points="265.4527,-117.5876 260.1198,-108.4327 258.5797,-118.915 265.4527,-117.5876"/>
<g id="a_edge5&#45;headlabel"><a xlink:href="dir_000005_000044.html" target="_top" xlink:title="22">
<text text-anchor="middle" x="268.922" y="-118.0786" font-family="Helvetica,sans-Serif" font-size="10.00" fill="#000000">22</text>
</a>
</g>
</g>
<!-- dir_7be0d8c199b9408ae01f5d77515b8def&#45;&gt;dir_c43b215a2ade73e6562bd37d8a11c12a -->
<g id="edge6" class="edge">
<title>dir_7be0d8c199b9408ae01f5d77515b8def&#45;&gt;dir_c43b215a2ade73e6562bd37d8a11c12a</title>
<path fill="none" stroke="#000000" d="M191.2611,-287.8314C178.4563,-278.7927 162.8091,-267.7476 149.0281,-258.0198"/>
<polygon fill="#000000" stroke="#000000" points="150.9188,-255.0703 140.7307,-252.1628 146.882,-260.7891 150.9188,-255.0703"/>
<g id="a_edge6&#45;headlabel"><a xlink:href="dir_000011_000046.html" target="_top" xlink:title="7">
<text text-anchor="middle" x="155.4928" y="-252.3236" font-family="Helvetica,sans-Serif" font-size="10.00" fill="#000000">7</text>
</a>
</g>
</g>
<!-- dir_7be0d8c199b9408ae01f5d77515b8def&#45;&gt;dir_3513c77e68d0de165c8b48f945306dcb -->
<g id="edge7" class="edge">
<title>dir_7be0d8c199b9408ae01f5d77515b8def&#45;&gt;dir_3513c77e68d0de165c8b48f945306dcb</title>
<path fill="none" stroke="#000000" d="M213.34,-287.7623C212.2447,-263.201 214.4119,-219.2474 217.9274,-190.3541"/>
<polygon fill="#000000" stroke="#000000" points="221.4438,-190.4728 219.3367,-180.0896 214.5089,-189.5205 221.4438,-190.4728"/>
<g id="a_edge7&#45;headlabel"><a xlink:href="dir_000011_000024.html" target="_top" xlink:title="12">
<text text-anchor="middle" x="223.7678" y="-191.9202" font-family="Helvetica,sans-Serif" font-size="10.00" fill="#000000">12</text>
</a>
</g>
</g>
<!-- dir_7be0d8c199b9408ae01f5d77515b8def&#45;&gt;dir_b3320b59a4aa4a7431bc8488b87009bf -->
<g id="edge8" class="edge">
<title>dir_7be0d8c199b9408ae01f5d77515b8def&#45;&gt;dir_b3320b59a4aa4a7431bc8488b87009bf</title>
<path fill="none" stroke="#000000" d="M212.3304,-287.7523C206.2268,-263.3475 195.546,-218.6649 189,-180 181.1008,-133.3423 175.4183,-78.5684 172.4244,-46.1556"/>
<polygon fill="#000000" stroke="#000000" points="175.8984,-45.7092 171.5128,-36.0647 168.9268,-46.3391 175.8984,-45.7092"/>
<g id="a_edge8&#45;headlabel"><a xlink:href="dir_000011_000027.html" target="_top" xlink:title="16">
<text text-anchor="middle" x="179.0495" y="-46.5339" font-family="Helvetica,sans-Serif" font-size="10.00" fill="#000000">16</text>
</a>
</g>
</g>
<!-- dir_7be0d8c199b9408ae01f5d77515b8def&#45;&gt;dir_313caf1132e152dd9b58bea13a4052ca -->
<g id="edge9" class="edge">
<title>dir_7be0d8c199b9408ae01f5d77515b8def&#45;&gt;dir_313caf1132e152dd9b58bea13a4052ca</title>
<path fill="none" stroke="#000000" d="M227.3345,-287.9727C232.8882,-277.6916 239.4993,-264.4162 244,-252 255.2051,-221.0883 256.8341,-212.6149 261,-180 263.6361,-159.3618 264.0714,-135.8503 263.882,-118.0348"/>
<polygon fill="#000000" stroke="#000000" points="267.3811,-117.9483 263.7038,-108.0121 260.3822,-118.0728 267.3811,-117.9483"/>
<g id="a_edge9&#45;headlabel"><a xlink:href="dir_000011_000044.html" target="_top" xlink:title="17">
<text text-anchor="middle" x="270.2837" y="-118.9919" font-family="Helvetica,sans-Serif" font-size="10.00" fill="#000000">17</text>
</a>
</g>
</g>
<!-- dir_204ef1561b97ecb563366b59b06c0b80&#45;&gt;dir_c43b215a2ade73e6562bd37d8a11c12a -->
<g id="edge17" class="edge">
<title>dir_204ef1561b97ecb563366b59b06c0b80&#45;&gt;dir_c43b215a2ade73e6562bd37d8a11c12a</title>
<path fill="none" stroke="#000000" d="M80.6077,-287.8314C85.7978,-279.7079 92.0232,-269.9637 97.7425,-261.0118"/>
<polygon fill="#000000" stroke="#000000" points="100.8015,-262.7246 103.236,-252.4133 94.9026,-258.9559 100.8015,-262.7246"/>
<g id="a_edge17&#45;headlabel"><a xlink:href="dir_000025_000046.html" target="_top" xlink:title="4">
<text text-anchor="middle" x="101.2589" y="-264.7824" font-family="Helvetica,sans-Serif" font-size="10.00" fill="#000000">4</text>
</a>
</g>
</g>
<!-- dir_204ef1561b97ecb563366b59b06c0b80&#45;&gt;dir_b3320b59a4aa4a7431bc8488b87009bf -->
<g id="edge18" class="edge">
<title>dir_204ef1561b97ecb563366b59b06c0b80&#45;&gt;dir_b3320b59a4aa4a7431bc8488b87009bf</title>
<path fill="none" stroke="#000000" d="M69.3609,-287.7583C70.1103,-269.3515 72.3554,-240.2604 79,-216 96.6426,-151.5847 133.2279,-81.8516 154.2399,-44.7682"/>
<polygon fill="#000000" stroke="#000000" points="157.2909,-46.4835 159.2254,-36.0668 151.2171,-43.0035 157.2909,-46.4835"/>
<g id="a_edge18&#45;headlabel"><a xlink:href="dir_000025_000027.html" target="_top" xlink:title="1">
<text text-anchor="middle" x="157.9675" y="-48.5139" font-family="Helvetica,sans-Serif" font-size="10.00" fill="#000000">1</text>
</a>
</g>
</g>
<!-- dir_c43b215a2ade73e6562bd37d8a11c12a&#45;&gt;dir_3513c77e68d0de165c8b48f945306dcb -->
<g id="edge19" class="edge">
<title>dir_c43b215a2ade73e6562bd37d8a11c12a&#45;&gt;dir_3513c77e68d0de165c8b48f945306dcb</title>
<path fill="none" stroke="#000000" d="M142.191,-216.2022C156.3378,-206.9425 173.8157,-195.5025 189.063,-185.5224"/>
<polygon fill="#000000" stroke="#000000" points="191.2903,-188.2476 197.7406,-179.8425 187.4567,-182.3907 191.2903,-188.2476"/>
<g id="a_edge19&#45;headlabel"><a xlink:href="dir_000046_000024.html" target="_top" xlink:title="6">
<text text-anchor="middle" x="189.8377" y="-190.0918" font-family="Helvetica,sans-Serif" font-size="10.00" fill="#000000">6</text>
</a>
</g>
</g>
<!-- dir_c43b215a2ade73e6562bd37d8a11c12a&#45;&gt;dir_b3320b59a4aa4a7431bc8488b87009bf -->
<g id="edge20" class="edge">
<title>dir_c43b215a2ade73e6562bd37d8a11c12a&#45;&gt;dir_b3320b59a4aa4a7431bc8488b87009bf</title>
<path fill="none" stroke="#000000" d="M114.0348,-215.5268C118.2006,-185.4414 133.681,-123.9929 147,-72 149.1529,-63.5958 151.5133,-54.4613 154.058,-46.1366"/>
<polygon fill="#000000" stroke="#000000" points="157.4322,-47.0808 157.2518,-36.4875 150.7867,-44.8812 157.4322,-47.0808"/>
<g id="a_edge20&#45;headlabel"><a xlink:href="dir_000046_000027.html" target="_top" xlink:title="6">
<text text-anchor="middle" x="158.9982" y="-48.8855" font-family="Helvetica,sans-Serif" font-size="10.00" fill="#000000">6</text>
</a>
</g>
</g>
<!-- dir_c43b215a2ade73e6562bd37d8a11c12a&#45;&gt;dir_313caf1132e152dd9b58bea13a4052ca -->
<g id="edge21" class="edge">
<title>dir_c43b215a2ade73e6562bd37d8a11c12a&#45;&gt;dir_313caf1132e152dd9b58bea13a4052ca</title>
<path fill="none" stroke="#000000" d="M127.7089,-215.9576C141.5778,-196.9307 165.0216,-166.6323 189,-144 200.6526,-133.0015 214.5949,-122.2963 227.2197,-113.3569"/>
<polygon fill="#000000" stroke="#000000" points="229.4851,-116.0451 235.7052,-107.4683 225.4942,-110.2942 229.4851,-116.0451"/>
<g id="a_edge21&#45;headlabel"><a xlink:href="dir_000046_000044.html" target="_top" xlink:title="6">
<text text-anchor="middle" x="228.1506" y="-117.927" font-family="Helvetica,sans-Serif" font-size="10.00" fill="#000000">6</text>
</a>
</g>
</g>
<!-- dir_3513c77e68d0de165c8b48f945306dcb&#45;&gt;dir_541eb0a6c58a7690acc5b848a4b1b724 -->
<g id="edge22" class="edge">
<title>dir_3513c77e68d0de165c8b48f945306dcb&#45;&gt;dir_541eb0a6c58a7690acc5b848a4b1b724</title>
<path fill="none" stroke="#000000" d="M236.1796,-180.1451C254.693,-217.9537 289.7475,-305.3762 304.6606,-350.2797"/>
<polygon fill="#000000" stroke="#000000" points="301.3765,-351.5008 307.7615,-359.9555 308.0425,-349.3644 301.3765,-351.5008"/>
<g id="a_edge22&#45;headlabel"><a xlink:href="dir_000024_000005.html" target="_top" xlink:title="8">
<text text-anchor="middle" x="297.5756" y="-346.4442" font-family="Helvetica,sans-Serif" font-size="10.00" fill="#000000">8</text>
</a>
</g>
</g>
<!-- dir_3513c77e68d0de165c8b48f945306dcb&#45;&gt;dir_7be0d8c199b9408ae01f5d77515b8def -->
<g id="edge23" class="edge">
<title>dir_3513c77e68d0de165c8b48f945306dcb&#45;&gt;dir_7be0d8c199b9408ae01f5d77515b8def</title>
<path fill="none" stroke="#000000" d="M228.6533,-180.0896C229.7666,-204.6805 227.5848,-248.905 224.0474,-277.8531"/>
<polygon fill="#000000" stroke="#000000" points="220.5797,-277.379 222.6864,-287.7623 227.5146,-278.3316 220.5797,-277.379"/>
<g id="a_edge23&#45;headlabel"><a xlink:href="dir_000024_000011.html" target="_top" xlink:title="1">
<text text-anchor="middle" x="218.2559" y="-270.9315" font-family="Helvetica,sans-Serif" font-size="10.00" fill="#000000">1</text>
</a>
</g>
</g>
<!-- dir_3513c77e68d0de165c8b48f945306dcb&#45;&gt;dir_b3320b59a4aa4a7431bc8488b87009bf -->
<g id="edge24" class="edge">
<title>dir_3513c77e68d0de165c8b48f945306dcb&#45;&gt;dir_b3320b59a4aa4a7431bc8488b87009bf</title>
<path fill="none" stroke="#000000" d="M218.0342,-143.7623C208.5705,-118.9846 191.5689,-74.4714 180.5393,-45.5939"/>
<polygon fill="#000000" stroke="#000000" points="183.747,-44.1826 176.9092,-36.0896 177.2077,-46.6803 183.747,-44.1826"/>
<g id="a_edge24&#45;headlabel"><a xlink:href="dir_000024_000027.html" target="_top" xlink:title="3">
<text text-anchor="middle" x="187.6819" y="-44.0275" font-family="Helvetica,sans-Serif" font-size="10.00" fill="#000000">3</text>
</a>
</g>
</g>
<!-- dir_3513c77e68d0de165c8b48f945306dcb&#45;&gt;dir_313caf1132e152dd9b58bea13a4052ca -->
<g id="edge25" class="edge">
<title>dir_3513c77e68d0de165c8b48f945306dcb&#45;&gt;dir_313caf1132e152dd9b58bea13a4052ca</title>
<path fill="none" stroke="#000000" d="M228.6366,-143.8314C232.1324,-135.7079 237.0727,-125.9637 242.1844,-117.0118"/>
<polygon fill="#000000" stroke="#000000" points="245.1955,-118.7958 247.3059,-108.4133 239.1815,-115.2137 245.1955,-118.7958"/>
<g id="a_edge25&#45;headlabel"><a xlink:href="dir_000024_000044.html" target="_top" xlink:title="10">
<text text-anchor="middle" x="245.7954" y="-120.837" font-family="Helvetica,sans-Serif" font-size="10.00" fill="#000000">10</text>
</a>
</g>
</g>
<!-- dir_b3320b59a4aa4a7431bc8488b87009bf&#45;&gt;dir_c43b215a2ade73e6562bd37d8a11c12a -->
<g id="edge26" class="edge">
<title>dir_b3320b59a4aa4a7431bc8488b87009bf&#45;&gt;dir_c43b215a2ade73e6562bd37d8a11c12a</title>
<path fill="none" stroke="#000000" d="M173.1056,-36.4875C171.4671,-46.9126 168.0283,-60.1787 165,-72 152.9816,-118.9155 139.2035,-173.5299 128.5755,-205.8535"/>
<polygon fill="#000000" stroke="#000000" points="125.191,-204.9321 125.2418,-215.5268 131.8091,-207.2129 125.191,-204.9321"/>
<g id="a_edge26&#45;headlabel"><a xlink:href="dir_000027_000046.html" target="_top" xlink:title="3">
<text text-anchor="middle" x="123.6778" y="-198.1086" font-family="Helvetica,sans-Serif" font-size="10.00" fill="#000000">3</text>
</a>
</g>
</g>
<!-- dir_b3320b59a4aa4a7431bc8488b87009bf&#45;&gt;dir_313caf1132e152dd9b58bea13a4052ca -->
<g id="edge27" class="edge">
<title>dir_b3320b59a4aa4a7431bc8488b87009bf&#45;&gt;dir_313caf1132e152dd9b58bea13a4052ca</title>
<path fill="none" stroke="#000000" d="M197.0062,-34.4393C209.8378,-43.5855 224.9996,-55.1507 237.6135,-65.3585"/>
<polygon fill="#000000" stroke="#000000" points="235.5377,-68.183 245.4846,-71.8314 239.9839,-62.7763 235.5377,-68.183"/>
<g id="a_edge27&#45;headlabel"><a xlink:href="dir_000027_000044.html" target="_top" xlink:title="3">
<text text-anchor="middle" x="230.9579" y="-65.5928" font-family="Helvetica,sans-Serif" font-size="10.00" fill="#000000">3</text>
</a>
</g>
</g>
<!-- dir_313caf1132e152dd9b58bea13a4052ca&#45;&gt;dir_541eb0a6c58a7690acc5b848a4b1b724 -->
<g id="edge28" class="edge">
<title>dir_313caf1132e152dd9b58bea13a4052ca&#45;&gt;dir_541eb0a6c58a7690acc5b848a4b1b724</title>
<path fill="none" stroke="#000000" d="M275.9737,-108.4327C279.8289,-118.8406 283.2631,-132.1078 286,-144 300.642,-207.6218 306.7237,-223.2418 315,-288 317.6245,-308.5356 318.8718,-331.8814 318.2223,-349.6489"/>
<polygon fill="#000000" stroke="#000000" points="314.7274,-349.4585 317.5927,-359.6585 321.7136,-349.898 314.7274,-349.4585"/>
<g id="a_edge28&#45;headlabel"><a xlink:href="dir_000044_000005.html" target="_top" xlink:title="5">
<text text-anchor="middle" x="312.1193" y="-343.1928" font-family="Helvetica,sans-Serif" font-size="10.00" fill="#000000">5</text>
</a>
</g>
</g>
<!-- dir_313caf1132e152dd9b58bea13a4052ca&#45;&gt;dir_3513c77e68d0de165c8b48f945306dcb -->
<g id="edge29" class="edge">
<title>dir_313caf1132e152dd9b58bea13a4052ca&#45;&gt;dir_3513c77e68d0de165c8b48f945306dcb</title>
<path fill="none" stroke="#000000" d="M259.2579,-108.4133C255.77,-116.484 250.88,-126.1182 245.8218,-134.9775"/>
<polygon fill="#000000" stroke="#000000" points="242.6576,-133.45 240.5414,-143.8314 248.6696,-137.0355 242.6576,-133.45"/>
<g id="a_edge29&#45;headlabel"><a xlink:href="dir_000044_000024.html" target="_top" xlink:title="18">
<text text-anchor="middle" x="242.0602" y="-126.4085" font-family="Helvetica,sans-Serif" font-size="10.00" fill="#000000">18</text>
</a>
</g>
</g>
<!-- dir_313caf1132e152dd9b58bea13a4052ca&#45;&gt;dir_b3320b59a4aa4a7431bc8488b87009bf -->
<g id="edge30" class="edge">
<title>dir_313caf1132e152dd9b58bea13a4052ca&#45;&gt;dir_b3320b59a4aa4a7431bc8488b87009bf</title>
<path fill="none" stroke="#000000" d="M235.883,-73.4817C223.084,-64.3544 207.9855,-52.8362 195.4132,-42.6631"/>
<polygon fill="#000000" stroke="#000000" points="197.513,-39.8584 187.5658,-36.2108 193.0672,-45.2654 197.513,-39.8584"/>
<g id="a_edge30&#45;headlabel"><a xlink:href="dir_000044_000027.html" target="_top" xlink:title="11">
<text text-anchor="middle" x="202.0927" y="-37.4481" font-family="Helvetica,sans-Serif" font-size="10.00" fill="#000000">11</text>
</a>
</g>
</g>
</g>
</svg>
