<?xml version="1.0" encoding="UTF-8" standalone="no"?>
<!DOCTYPE svg PUBLIC "-//W3C//DTD SVG 1.1//EN"
 "http://www.w3.org/Graphics/SVG/1.1/DTD/svg11.dtd">
<!-- Generated by graphviz version 2.40.1 (20161225.0304)
 -->
<!-- Title: src/utils/Event.hpp Pages: 1 -->
<svg width="1430pt" height="263pt"
 viewBox="0.00 0.00 1429.50 263.00" xmlns="http://www.w3.org/2000/svg" xmlns:xlink="http://www.w3.org/1999/xlink">
<g id="graph0" class="graph" transform="scale(1 1) rotate(0) translate(4 259)">
<title>src/utils/Event.hpp</title>
<polygon fill="#ffffff" stroke="transparent" points="-4,4 -4,-259 1425.5,-259 1425.5,4 -4,4"/>
<!-- Node0 -->
<g id="node1" class="node">
<title>Node0</title>
<polygon fill="#bfbfbf" stroke="#000000" points="105.5,-235.5 105.5,-254.5 212.5,-254.5 212.5,-235.5 105.5,-235.5"/>
<text text-anchor="middle" x="159" y="-242.5" font-family="Helvetica,sans-Serif" font-size="10.00" fill="#000000">src/utils/Event.hpp</text>
</g>
<!-- Node1 -->
<g id="node2" class="node">
<title>Node1</title>
<polygon fill="#ffffff" stroke="#bfbfbf" points="0,-179.5 0,-198.5 50,-198.5 50,-179.5 0,-179.5"/>
<text text-anchor="middle" x="25" y="-186.5" font-family="Helvetica,sans-Serif" font-size="10.00" fill="#000000">chrono</text>
</g>
<!-- Node0&#45;&gt;Node1 -->
<g id="edge1" class="edge">
<title>Node0&#45;&gt;Node1</title>
<path fill="none" stroke="#191970" d="M135.9646,-235.3733C114.2612,-226.3032 81.5382,-212.6279 57.245,-202.4755"/>
<polygon fill="#191970" stroke="#191970" points="58.3111,-199.1278 47.7348,-198.5011 55.6119,-205.5865 58.3111,-199.1278"/>
</g>
<!-- Node2 -->
<g id="node3" class="node">
<title>Node2</title>
<polygon fill="#ffffff" stroke="#bfbfbf" points="68,-179.5 68,-198.5 106,-198.5 106,-179.5 68,-179.5"/>
<text text-anchor="middle" x="87" y="-186.5" font-family="Helvetica,sans-Serif" font-size="10.00" fill="#000000">map</text>
</g>
<!-- Node0&#45;&gt;Node2 -->
<g id="edge2" class="edge">
<title>Node0&#45;&gt;Node2</title>
<path fill="none" stroke="#191970" d="M146.4586,-235.2455C135.7213,-226.8943 120.0527,-214.7076 107.4953,-204.9408"/>
<polygon fill="#191970" stroke="#191970" points="109.4401,-202.0194 99.3977,-198.6427 105.1425,-207.5449 109.4401,-202.0194"/>
</g>
<!-- Node3 -->
<g id="node4" class="node">
<title>Node3</title>
<polygon fill="#ffffff" stroke="#bfbfbf" points="169,-.5 169,-19.5 213,-19.5 213,-.5 169,-.5"/>
<text text-anchor="middle" x="191" y="-7.5" font-family="Helvetica,sans-Serif" font-size="10.00" fill="#000000">string</text>
</g>
<!-- Node0&#45;&gt;Node3 -->
<g id="edge3" class="edge">
<title>Node0&#45;&gt;Node3</title>
<path fill="none" stroke="#191970" d="M156.8675,-235.1477C154.3564,-222.2371 150.7906,-198.8974 153,-179 159.1158,-123.9223 176.1163,-60.5711 185.1627,-29.3951"/>
<polygon fill="#191970" stroke="#191970" points="188.5278,-30.3576 187.9999,-19.7759 181.8138,-28.3772 188.5278,-30.3576"/>
</g>
<!-- Node4 -->
<g id="node5" class="node">
<title>Node4</title>
<polygon fill="#ffffff" stroke="#bfbfbf" points="162.5,-179.5 162.5,-198.5 207.5,-198.5 207.5,-179.5 162.5,-179.5"/>
<text text-anchor="middle" x="185" y="-186.5" font-family="Helvetica,sans-Serif" font-size="10.00" fill="#000000">utility</text>
</g>
<!-- Node0&#45;&gt;Node4 -->
<g id="edge4" class="edge">
<title>Node0&#45;&gt;Node4</title>
<path fill="none" stroke="#191970" d="M163.5289,-235.2455C167.0334,-227.6973 171.9927,-217.0158 176.2623,-207.8197"/>
<polygon fill="#191970" stroke="#191970" points="179.4864,-209.1867 180.523,-198.6427 173.1373,-206.2389 179.4864,-209.1867"/>
</g>
<!-- Node5 -->
<g id="node6" class="node">
<title>Node5</title>
<polygon fill="#ffffff" stroke="#bfbfbf" points="225.5,-179.5 225.5,-198.5 272.5,-198.5 272.5,-179.5 225.5,-179.5"/>
<text text-anchor="middle" x="249" y="-186.5" font-family="Helvetica,sans-Serif" font-size="10.00" fill="#000000">vector</text>
</g>
<!-- Node0&#45;&gt;Node5 -->
<g id="edge5" class="edge">
<title>Node0&#45;&gt;Node5</title>
<path fill="none" stroke="#191970" d="M174.6768,-235.2455C188.4856,-226.6534 208.8193,-214.0014 224.7292,-204.1018"/>
<polygon fill="#191970" stroke="#191970" points="226.8613,-206.8974 233.5028,-198.6427 223.1632,-200.954 226.8613,-206.8974"/>
</g>
<!-- Node6 -->
<g id="node7" class="node">
<title>Node6</title>
<g id="a_node7"><a xlink:href="Logger_8hpp.html" target="_top" xlink:title="logging/Logger.hpp">
<polygon fill="#ffffff" stroke="#000000" points="414.5,-179.5 414.5,-198.5 523.5,-198.5 523.5,-179.5 414.5,-179.5"/>
<text text-anchor="middle" x="469" y="-186.5" font-family="Helvetica,sans-Serif" font-size="10.00" fill="#000000">logging/Logger.hpp</text>
</a>
</g>
</g>
<!-- Node0&#45;&gt;Node6 -->
<g id="edge6" class="edge">
<title>Node0&#45;&gt;Node6</title>
<path fill="none" stroke="#191970" d="M211.9387,-235.4369C265.773,-225.712 349.1761,-210.6456 406.2887,-200.3285"/>
<polygon fill="#191970" stroke="#191970" points="407.0612,-203.7457 416.2797,-198.5237 405.8167,-196.8572 407.0612,-203.7457"/>
</g>
<!-- Node6&#45;&gt;Node3 -->
<g id="edge8" class="edge">
<title>Node6&#45;&gt;Node3</title>
<path fill="none" stroke="#191970" d="M414.4128,-184.4386C352.3362,-176.1336 252.8921,-152.7505 201,-87 188.379,-71.0083 187.1742,-47.0636 188.3053,-30.1286"/>
<polygon fill="#191970" stroke="#191970" points="191.8349,-30.0075 189.3499,-19.7082 184.8698,-29.3092 191.8349,-30.0075"/>
</g>
<!-- Node7 -->
<g id="node8" class="node">
<title>Node7</title>
<polygon fill="#ffffff" stroke="#bfbfbf" points="440,-123.5 440,-142.5 498,-142.5 498,-123.5 440,-123.5"/>
<text text-anchor="middle" x="469" y="-130.5" font-family="Helvetica,sans-Serif" font-size="10.00" fill="#000000">memory</text>
</g>
<!-- Node6&#45;&gt;Node7 -->
<g id="edge7" class="edge">
<title>Node6&#45;&gt;Node7</title>
<path fill="none" stroke="#191970" d="M469,-179.2455C469,-171.9382 469,-161.6944 469,-152.7046"/>
<polygon fill="#191970" stroke="#191970" points="472.5001,-152.6426 469,-142.6427 465.5001,-152.6427 472.5001,-152.6426"/>
</g>
<!-- Node8 -->
<g id="node9" class="node">
<title>Node8</title>
<g id="a_node9"><a xlink:href="LogMacros_8hpp.html" target="_top" xlink:title="LogMacros.hpp">
<polygon fill="#ffffff" stroke="#000000" points="640.5,-123.5 640.5,-142.5 729.5,-142.5 729.5,-123.5 640.5,-123.5"/>
<text text-anchor="middle" x="685" y="-130.5" font-family="Helvetica,sans-Serif" font-size="10.00" fill="#000000">LogMacros.hpp</text>
</a>
</g>
</g>
<!-- Node6&#45;&gt;Node8 -->
<g id="edge9" class="edge">
<title>Node6&#45;&gt;Node8</title>
<path fill="none" stroke="#191970" d="M506.1317,-179.3733C542.8267,-169.8598 599.0639,-155.2797 638.6651,-145.0127"/>
<polygon fill="#191970" stroke="#191970" points="639.5512,-148.3988 648.3528,-142.5011 637.7944,-141.6228 639.5512,-148.3988"/>
</g>
<!-- Node8&#45;&gt;Node3 -->
<g id="edge16" class="edge">
<title>Node8&#45;&gt;Node3</title>
<path fill="none" stroke="#191970" d="M640.3206,-129.6652C528.7745,-121.1827 245.774,-98.6352 229,-87 209.7379,-73.639 199.8016,-47.6381 195.0021,-29.5675"/>
<polygon fill="#191970" stroke="#191970" points="198.3916,-28.6914 192.689,-19.7622 191.5786,-30.2987 198.3916,-28.6914"/>
</g>
<!-- Node9 -->
<g id="node10" class="node">
<title>Node9</title>
<polygon fill="#ffffff" stroke="#bfbfbf" points="238,-56.5 238,-86.5 348,-86.5 348,-56.5 238,-56.5"/>
<text text-anchor="start" x="246" y="-74.5" font-family="Helvetica,sans-Serif" font-size="10.00" fill="#000000">boost/preprocessor</text>
<text text-anchor="middle" x="293" y="-63.5" font-family="Helvetica,sans-Serif" font-size="10.00" fill="#000000">/control/if.hpp</text>
</g>
<!-- Node8&#45;&gt;Node9 -->
<g id="edge10" class="edge">
<title>Node8&#45;&gt;Node9</title>
<path fill="none" stroke="#191970" d="M640.4737,-128.1623C579.093,-121.1843 464.8653,-107.0907 358.0624,-87.0942"/>
<polygon fill="#191970" stroke="#191970" points="358.5599,-83.6263 348.0832,-85.2042 357.2572,-90.5041 358.5599,-83.6263"/>
</g>
<!-- Node10 -->
<g id="node11" class="node">
<title>Node10</title>
<polygon fill="#ffffff" stroke="#bfbfbf" points="366,-56.5 366,-86.5 482,-86.5 482,-56.5 366,-56.5"/>
<text text-anchor="start" x="374" y="-74.5" font-family="Helvetica,sans-Serif" font-size="10.00" fill="#000000">boost/preprocessor</text>
<text text-anchor="middle" x="424" y="-63.5" font-family="Helvetica,sans-Serif" font-size="10.00" fill="#000000">/facilities/empty.hpp</text>
</g>
<!-- Node8&#45;&gt;Node10 -->
<g id="edge11" class="edge">
<title>Node8&#45;&gt;Node10</title>
<path fill="none" stroke="#191970" d="M644.5051,-123.4581C603.7828,-113.8626 540.2626,-98.8952 491.8373,-87.4846"/>
<polygon fill="#191970" stroke="#191970" points="492.5922,-84.0668 482.056,-85.1799 490.9867,-90.8802 492.5922,-84.0668"/>
</g>
<!-- Node11 -->
<g id="node12" class="node">
<title>Node11</title>
<polygon fill="#ffffff" stroke="#bfbfbf" points="500.5,-56.5 500.5,-86.5 611.5,-86.5 611.5,-56.5 500.5,-56.5"/>
<text text-anchor="start" x="508.5" y="-74.5" font-family="Helvetica,sans-Serif" font-size="10.00" fill="#000000">boost/preprocessor</text>
<text text-anchor="middle" x="556" y="-63.5" font-family="Helvetica,sans-Serif" font-size="10.00" fill="#000000">/seq/for_each_i.hpp</text>
</g>
<!-- Node8&#45;&gt;Node11 -->
<g id="edge12" class="edge">
<title>Node8&#45;&gt;Node11</title>
<path fill="none" stroke="#191970" d="M664.8438,-123.3906C646.6577,-114.7205 619.3559,-101.7046 596.6463,-90.8779"/>
<polygon fill="#191970" stroke="#191970" points="598.0898,-87.6887 587.557,-86.5446 595.0774,-94.0074 598.0898,-87.6887"/>
</g>
<!-- Node12 -->
<g id="node13" class="node">
<title>Node12</title>
<polygon fill="#ffffff" stroke="#bfbfbf" points="630,-56.5 630,-86.5 740,-86.5 740,-56.5 630,-56.5"/>
<text text-anchor="start" x="638" y="-74.5" font-family="Helvetica,sans-Serif" font-size="10.00" fill="#000000">boost/preprocessor</text>
<text text-anchor="middle" x="685" y="-63.5" font-family="Helvetica,sans-Serif" font-size="10.00" fill="#000000">/stringize.hpp</text>
</g>
<!-- Node8&#45;&gt;Node12 -->
<g id="edge13" class="edge">
<title>Node8&#45;&gt;Node12</title>
<path fill="none" stroke="#191970" d="M685,-123.3906C685,-116.2234 685,-106.0862 685,-96.671"/>
<polygon fill="#191970" stroke="#191970" points="688.5001,-96.5446 685,-86.5446 681.5001,-96.5446 688.5001,-96.5446"/>
</g>
<!-- Node13 -->
<g id="node14" class="node">
<title>Node13</title>
<polygon fill="#ffffff" stroke="#bfbfbf" points="758.5,-56.5 758.5,-86.5 873.5,-86.5 873.5,-56.5 758.5,-56.5"/>
<text text-anchor="start" x="766.5" y="-74.5" font-family="Helvetica,sans-Serif" font-size="10.00" fill="#000000">boost/preprocessor</text>
<text text-anchor="middle" x="816" y="-63.5" font-family="Helvetica,sans-Serif" font-size="10.00" fill="#000000">/variadic/to_seq.hpp</text>
</g>
<!-- Node8&#45;&gt;Node13 -->
<g id="edge14" class="edge">
<title>Node8&#45;&gt;Node13</title>
<path fill="none" stroke="#191970" d="M705.4688,-123.3906C723.9367,-114.7205 751.6618,-101.7046 774.7236,-90.8779"/>
<polygon fill="#191970" stroke="#191970" points="776.3891,-93.9625 783.9538,-86.5446 773.4143,-87.6261 776.3891,-93.9625"/>
</g>
<!-- Node14 -->
<g id="node15" class="node">
<title>Node14</title>
<polygon fill="#ffffff" stroke="#bfbfbf" points="892,-62 892,-81 1028,-81 1028,-62 892,-62"/>
<text text-anchor="middle" x="960" y="-69" font-family="Helvetica,sans-Serif" font-size="10.00" fill="#000000">boost/vmd/is_empty.hpp</text>
</g>
<!-- Node8&#45;&gt;Node14 -->
<g id="edge15" class="edge">
<title>Node8&#45;&gt;Node14</title>
<path fill="none" stroke="#191970" d="M727.667,-123.4581C776.0378,-112.6406 854.9369,-94.9959 907.1607,-83.3168"/>
<polygon fill="#191970" stroke="#191970" points="908.2378,-86.6624 917.2329,-81.0643 906.7101,-79.8312 908.2378,-86.6624"/>
</g>
<!-- Node15 -->
<g id="node16" class="node">
<title>Node15</title>
<g id="a_node16"><a xlink:href="Tracer_8hpp.html" target="_top" xlink:title="logging/Tracer.hpp">
<polygon fill="#ffffff" stroke="#000000" points="1316.5,-62 1316.5,-81 1421.5,-81 1421.5,-62 1316.5,-62"/>
<text text-anchor="middle" x="1369" y="-69" font-family="Helvetica,sans-Serif" font-size="10.00" fill="#000000">logging/Tracer.hpp</text>
</a>
</g>
</g>
<!-- Node8&#45;&gt;Node15 -->
<g id="edge17" class="edge">
<title>Node8&#45;&gt;Node15</title>
<path fill="none" stroke="#191970" d="M729.8037,-132.3103C832.5194,-130.1583 1092.6488,-121.4598 1307,-87 1312.9651,-86.041 1319.1977,-84.7887 1325.3141,-83.4113"/>
<polygon fill="#191970" stroke="#191970" points="1326.5118,-86.7241 1335.4302,-81.0047 1324.8916,-79.9142 1326.5118,-86.7241"/>
</g>
<!-- Node16 -->
<g id="node17" class="node">
<title>Node16</title>
<polygon fill="#ffffff" stroke="#bfbfbf" points="1046,-62 1046,-81 1190,-81 1190,-62 1046,-62"/>
<text text-anchor="middle" x="1118" y="-69" font-family="Helvetica,sans-Serif" font-size="10.00" fill="#000000">prettyprint/prettyprint.hpp</text>
</g>
<!-- Node8&#45;&gt;Node16 -->
<g id="edge19" class="edge">
<title>Node8&#45;&gt;Node16</title>
<path fill="none" stroke="#191970" d="M729.5756,-128.031C796.5051,-120.3768 926.8645,-104.7181 1037,-87 1044.6533,-85.7688 1052.6923,-84.3651 1060.6115,-82.9169"/>
<polygon fill="#191970" stroke="#191970" points="1061.3501,-86.3396 1070.5405,-81.0684 1060.0688,-79.4579 1061.3501,-86.3396"/>
</g>
<!-- Node17 -->
<g id="node18" class="node">
<title>Node17</title>
<g id="a_node18"><a xlink:href="String_8hpp.html" target="_top" xlink:title="utils/String.hpp">
<polygon fill="#ffffff" stroke="#000000" points="1208,-62 1208,-81 1298,-81 1298,-62 1208,-62"/>
<text text-anchor="middle" x="1253" y="-69" font-family="Helvetica,sans-Serif" font-size="10.00" fill="#000000">utils/String.hpp</text>
</a>
</g>
</g>
<!-- Node8&#45;&gt;Node17 -->
<g id="edge20" class="edge">
<title>Node8&#45;&gt;Node17</title>
<path fill="none" stroke="#191970" d="M729.7347,-131.8542C819.4565,-128.9295 1027.4759,-118.9906 1199,-87 1203.7821,-86.1081 1208.7506,-84.9754 1213.6512,-83.7296"/>
<polygon fill="#191970" stroke="#191970" points="1214.7957,-87.0458 1223.5337,-81.0544 1212.9666,-80.289 1214.7957,-87.0458"/>
</g>
<!-- Node15&#45;&gt;Node6 -->
<g id="edge18" class="edge">
<title>Node15&#45;&gt;Node6</title>
<path fill="none" stroke="#191970" d="M1334.0816,-81.0333C1325.2887,-83.2116 1315.8369,-85.3641 1307,-87 1021.2448,-139.8998 675.405,-172.0458 533.9967,-183.8511"/>
<polygon fill="#191970" stroke="#191970" points="533.4452,-180.3848 523.7687,-184.6992 534.0237,-187.3608 533.4452,-180.3848"/>
</g>
<!-- Node17&#45;&gt;Node3 -->
<g id="edge22" class="edge">
<title>Node17&#45;&gt;Node3</title>
<path fill="none" stroke="#191970" d="M1224.419,-61.9493C1216.2926,-59.6034 1207.3737,-57.3734 1199,-56 1004.6286,-24.1211 373.958,-12.7539 223.4632,-10.4609"/>
<polygon fill="#191970" stroke="#191970" points="223.1325,-6.9557 213.0813,-10.3057 223.0278,-13.9549 223.1325,-6.9557"/>
</g>
<!-- Node18 -->
<g id="node19" class="node">
<title>Node18</title>
<polygon fill="#ffffff" stroke="#bfbfbf" points="1225,-.5 1225,-19.5 1281,-19.5 1281,-.5 1225,-.5"/>
<text text-anchor="middle" x="1253" y="-7.5" font-family="Helvetica,sans-Serif" font-size="10.00" fill="#000000">sstream</text>
</g>
<!-- Node17&#45;&gt;Node18 -->
<g id="edge21" class="edge">
<title>Node17&#45;&gt;Node18</title>
<path fill="none" stroke="#191970" d="M1253,-61.8906C1253,-53.3657 1253,-40.6392 1253,-29.9235"/>
<polygon fill="#191970" stroke="#191970" points="1256.5001,-29.7448 1253,-19.7449 1249.5001,-29.7449 1256.5001,-29.7448"/>
</g>
</g>
</svg>
