<?xml version="1.0" encoding="UTF-8" standalone="no"?>
<!DOCTYPE svg PUBLIC "-//W3C//DTD SVG 1.1//EN"
 "http://www.w3.org/Graphics/SVG/1.1/DTD/svg11.dtd">
<!-- Generated by graphviz version 2.40.1 (20161225.0304)
 -->
<!-- Title: runSimpleExplicitCoupling Pages: 1 -->
<!--zoomable 186 -->
<svg id="main" version="1.1" xmlns="http://www.w3.org/2000/svg" xmlns:xlink="http://www.w3.org/1999/xlink" xml:space="preserve" onload="init(evt)">
<style type="text/css"><![CDATA[
.edge:hover path { stroke: red; }
.edge:hover polygon { stroke: red; fill: red; }
]]></style>
<script type="text/javascript"><![CDATA[
var edges = document.getElementsByTagName('g');
if (edges && edges.length) {
  for (var i=0;i<edges.length;i++) {
    if (edges[i].id.substr(0,4)=='edge') {
      edges[i].setAttribute('class','edge');
    }
  }
}
]]></script>
        <defs>
                <circle id="rim" cx="0" cy="0" r="7"/>
                <circle id="rim2" cx="0" cy="0" r="3.5"/>
                <g id="zoomPlus">
                        <use xlink:href="#rim" fill="#404040">
                                <set attributeName="fill" to="#808080" begin="zoomplus.mouseover" end="zoomplus.mouseout"/>
                        </use>
                        <path d="M-4,0h8M0,-4v8" fill="none" stroke="white" stroke-width="1.5" pointer-events="none"/>
                </g>
                <g id="zoomMin">
                        <use xlink:href="#rim" fill="#404040">
                                <set attributeName="fill" to="#808080" begin="zoomminus.mouseover" end="zoomminus.mouseout"/>
                        </use>
                        <path d="M-4,0h8" fill="none" stroke="white" stroke-width="1.5" pointer-events="none"/>
                </g>
                <g id="dirArrow">
                        <path fill="none" stroke="white" stroke-width="1.5" d="M0,-3.0v7 M-2.5,-0.5L0,-3.0L2.5,-0.5"/>
                </g>
               <g id="resetDef">
                       <use xlink:href="#rim2" fill="#404040">
                               <set attributeName="fill" to="#808080" begin="reset.mouseover" end="reset.mouseout"/>
                       </use>
               </g>
        </defs>

<script type="text/javascript">
var viewWidth = 520;
var viewHeight = 186;
var sectionId = 'dynsection-9';
</script>
<script xlink:href="svgpan.js"/>
<svg id="graph" class="graph">
<g id="viewport">
<title>runSimpleExplicitCoupling</title>
<polygon fill="#ffffff" stroke="transparent" points="-4,4 -4,-182 516,-182 516,4 -4,4"/>
<!-- Node208 -->
<g id="node1" class="node">
<title>Node208</title>
<polygon fill="#bfbfbf" stroke="#000000" points="0,-79.5 0,-98.5 145,-98.5 145,-79.5 0,-79.5"/>
<text text-anchor="middle" x="72.5" y="-86.5" font-family="Helvetica,sans-Serif" font-size="10.00" fill="#000000">runSimpleExplicitCoupling</text>
</g>
<!-- Node209 -->
<g id="node2" class="node">
<title>Node209</title>
<g id="a_node2"><a xlink:href="RTreeTests_8cpp.html#a9849f5c774ff22e557184d988b1cf9ea" target="_top" xlink:title="BOOST_TEST">
<polygon fill="#ffffff" stroke="#000000" points="227.5,-158.5 227.5,-177.5 307.5,-177.5 307.5,-158.5 227.5,-158.5"/>
<text text-anchor="middle" x="267.5" y="-165.5" font-family="Helvetica,sans-Serif" font-size="10.00" fill="#000000">BOOST_TEST</text>
</a>
</g>
</g>
<!-- Node208&#45;&gt;Node209 -->
<g id="edge1" class="edge">
<title>Node208&#45;&gt;Node209</title>
<path fill="none" stroke="#191970" d="M86.5955,-98.5501C106.6989,-111.7527 145.1505,-135.4783 181,-149 192.4639,-153.3239 205.1723,-156.797 217.2395,-159.5299"/>
<polygon fill="#191970" stroke="#191970" points="216.6733,-162.9878 227.1838,-161.6539 218.1355,-156.1422 216.6733,-162.9878"/>
</g>
<!-- Node210 -->
<g id="node3" class="node">
<title>Node210</title>
<g id="a_node3"><a xlink:href="namespaceprecice_1_1cplscheme_1_1constants.html#ae6a2667f9452de16a239be70945c8172" target="_top" xlink:title="precice::cplscheme\l::constants::actionWriteIteration\lCheckpoint">
<polygon fill="#ffffff" stroke="#000000" points="181,-98.5 181,-139.5 354,-139.5 354,-98.5 181,-98.5"/>
<text text-anchor="start" x="189" y="-127.5" font-family="Helvetica,sans-Serif" font-size="10.00" fill="#000000">precice::cplscheme</text>
<text text-anchor="start" x="189" y="-116.5" font-family="Helvetica,sans-Serif" font-size="10.00" fill="#000000">::constants::actionWriteIteration</text>
<text text-anchor="middle" x="267.5" y="-105.5" font-family="Helvetica,sans-Serif" font-size="10.00" fill="#000000">Checkpoint</text>
</a>
</g>
</g>
<!-- Node208&#45;&gt;Node210 -->
<g id="edge2" class="edge">
<title>Node208&#45;&gt;Node210</title>
<path fill="none" stroke="#191970" d="M134.4671,-98.5334C146.0828,-100.3204 158.4779,-102.2274 170.8546,-104.1315"/>
<polygon fill="#191970" stroke="#191970" points="170.3454,-107.5942 180.7613,-105.6556 171.4098,-100.6756 170.3454,-107.5942"/>
</g>
<!-- Node211 -->
<g id="node4" class="node">
<title>Node211</title>
<g id="a_node4"><a xlink:href="namespaceprecice_1_1cplscheme_1_1constants.html#a6ee5e554181352c02568f33215195519" target="_top" xlink:title="precice::cplscheme\l::constants::actionReadIteration\lCheckpoint">
<polygon fill="#ffffff" stroke="#000000" points="182,-38.5 182,-79.5 353,-79.5 353,-38.5 182,-38.5"/>
<text text-anchor="start" x="190" y="-67.5" font-family="Helvetica,sans-Serif" font-size="10.00" fill="#000000">precice::cplscheme</text>
<text text-anchor="start" x="190" y="-56.5" font-family="Helvetica,sans-Serif" font-size="10.00" fill="#000000">::constants::actionReadIteration</text>
<text text-anchor="middle" x="267.5" y="-45.5" font-family="Helvetica,sans-Serif" font-size="10.00" fill="#000000">Checkpoint</text>
</a>
</g>
</g>
<!-- Node208&#45;&gt;Node211 -->
<g id="edge3" class="edge">
<title>Node208&#45;&gt;Node211</title>
<path fill="none" stroke="#191970" d="M134.4671,-79.4666C146.3468,-77.639 159.0417,-75.6859 171.6984,-73.7387"/>
<polygon fill="#191970" stroke="#191970" points="172.4729,-77.1608 181.8244,-72.1809 171.4085,-70.2422 172.4729,-77.1608"/>
</g>
<!-- Node212 -->
<g id="node5" class="node">
<title>Node212</title>
<g id="a_node5"><a xlink:href="namespaceprecice_1_1testing.html#a6a116337529290bbb1bf2545b5fb315a" target="_top" xlink:title="equals to be used in tests. Prints both operatorans on failure ">
<polygon fill="#ffffff" stroke="#000000" points="202.5,-.5 202.5,-19.5 332.5,-19.5 332.5,-.5 202.5,-.5"/>
<text text-anchor="middle" x="267.5" y="-7.5" font-family="Helvetica,sans-Serif" font-size="10.00" fill="#000000">precice::testing::equals</text>
</a>
</g>
</g>
<!-- Node208&#45;&gt;Node212 -->
<g id="edge4" class="edge">
<title>Node208&#45;&gt;Node212</title>
<path fill="none" stroke="#191970" d="M86.5955,-79.4499C106.6989,-66.2473 145.1505,-42.5217 181,-29 187.8244,-26.426 195.0898,-24.1535 202.3984,-22.1592"/>
<polygon fill="#191970" stroke="#191970" points="203.5349,-25.4812 212.3542,-19.6099 201.7985,-18.7 203.5349,-25.4812"/>
</g>
<!-- Node213 -->
<g id="node6" class="node">
<title>Node213</title>
<g id="a_node6"><a xlink:href="namespaceprecice_1_1math.html#a0e86802cfe992deba131d789d035b5b7" target="_top" xlink:title="Compares two Eigen::MatrixBase for equality up to tolerance. ">
<polygon fill="#ffffff" stroke="#000000" points="390,-.5 390,-19.5 512,-19.5 512,-.5 390,-.5"/>
<text text-anchor="middle" x="451" y="-7.5" font-family="Helvetica,sans-Serif" font-size="10.00" fill="#000000">precice::math::equals</text>
</a>
</g>
</g>
<!-- Node212&#45;&gt;Node213 -->
<g id="edge5" class="edge">
<title>Node212&#45;&gt;Node213</title>
<path fill="none" stroke="#191970" d="M332.7119,-10C348.0071,-10 364.3788,-10 379.9165,-10"/>
<polygon fill="#191970" stroke="#191970" points="379.9868,-13.5001 389.9868,-10 379.9868,-6.5001 379.9868,-13.5001"/>
</g>
</g>
</svg>
        <g id="navigator" transform="translate(0 0)" fill="#404254">
                <rect fill="#f2f5e9" fill-opacity="0.5" stroke="#606060" stroke-width=".5" x="0" y="0" width="60" height="60"/>
                <use id="zoomplus" xlink:href="#zoomPlus" x="17" y="9" onmousedown="handleZoom(evt,'in')"/>
                <use id="zoomminus" xlink:href="#zoomMin" x="42" y="9" onmousedown="handleZoom(evt,'out')"/>
                <use id="reset" xlink:href="#resetDef" x="30" y="36" onmousedown="handleReset()"/>
                <g id="arrowUp" xlink:href="#dirArrow" transform="translate(30 24)" onmousedown="handlePan(0,-1)">
                  <use xlink:href="#rim" fill="#404040">
                        <set attributeName="fill" to="#808080" begin="arrowUp.mouseover" end="arrowUp.mouseout"/>
                  </use>
                  <path fill="none" stroke="white" stroke-width="1.5" d="M0,-3.0v7 M-2.5,-0.5L0,-3.0L2.5,-0.5"/>
                </g>
                <g id="arrowRight" xlink:href="#dirArrow" transform="rotate(90) translate(36 -43)" onmousedown="handlePan(1,0)">
                  <use xlink:href="#rim" fill="#404040">
                        <set attributeName="fill" to="#808080" begin="arrowRight.mouseover" end="arrowRight.mouseout"/>
                  </use>
                  <path fill="none" stroke="white" stroke-width="1.5" d="M0,-3.0v7 M-2.5,-0.5L0,-3.0L2.5,-0.5"/>
                </g>
                <g id="arrowDown" xlink:href="#dirArrow" transform="rotate(180) translate(-30 -48)" onmousedown="handlePan(0,1)">
                  <use xlink:href="#rim" fill="#404040">
                        <set attributeName="fill" to="#808080" begin="arrowDown.mouseover" end="arrowDown.mouseout"/>
                  </use>
                  <path fill="none" stroke="white" stroke-width="1.5" d="M0,-3.0v7 M-2.5,-0.5L0,-3.0L2.5,-0.5"/>
                </g>
                <g id="arrowLeft" xlink:href="#dirArrow" transform="rotate(270) translate(-36 17)" onmousedown="handlePan(-1,0)">
                  <use xlink:href="#rim" fill="#404040">
                        <set attributeName="fill" to="#808080" begin="arrowLeft.mouseover" end="arrowLeft.mouseout"/>
                  </use>
                  <path fill="none" stroke="white" stroke-width="1.5" d="M0,-3.0v7 M-2.5,-0.5L0,-3.0L2.5,-0.5"/>
                </g>
        </g>
        <svg viewBox="0 0 15 15" width="100%" height="30px" preserveAspectRatio="xMaxYMin meet">
         <g id="arrow_out" transform="scale(0.3 0.3)">
          <a xlink:href="ExplicitCouplingSchemeTest_8cpp_a5b377f30bc8a11e5be7d31d0c7ea2d12_cgraph_org.svg" target="_base">
           <rect id="button" ry="5" rx="5" y="6" x="6" height="38" width="38"
                fill="#f2f5e9" fill-opacity="0.5" stroke="#606060" stroke-width="1.0"/>
           <path id="arrow"
             d="M 11.500037,31.436501 C 11.940474,20.09759 22.043105,11.32322 32.158766,21.979434 L 37.068811,17.246167 C 37.068811,17.246167 37.088388,32 37.088388,32 L 22.160133,31.978069 C 22.160133,31.978069 26.997745,27.140456 26.997745,27.140456 C 18.528582,18.264221 13.291696,25.230495 11.500037,31.436501 z"
             style="fill:#404040;"/>
          </a>
         </g>
        </svg>
</svg>
