<?xml version="1.0" encoding="UTF-8" standalone="no"?>
<!DOCTYPE svg PUBLIC "-//W3C//DTD SVG 1.1//EN"
 "http://www.w3.org/Graphics/SVG/1.1/DTD/svg11.dtd">
<!-- Generated by graphviz version 2.40.1 (20161225.0304)
 -->
<!-- Title: src/io/Export.hpp Pages: 1 -->
<svg width="855pt" height="162pt"
 viewBox="0.00 0.00 855.00 162.00" xmlns="http://www.w3.org/2000/svg" xmlns:xlink="http://www.w3.org/1999/xlink">
<g id="graph0" class="graph" transform="scale(1 1) rotate(0) translate(4 158)">
<title>src/io/Export.hpp</title>
<polygon fill="#ffffff" stroke="transparent" points="-4,4 -4,-158 851,-158 851,4 -4,4"/>
<!-- Node2 -->
<g id="node1" class="node">
<title>Node2</title>
<polygon fill="#bfbfbf" stroke="#000000" points="404.5,-134.5 404.5,-153.5 502.5,-153.5 502.5,-134.5 404.5,-134.5"/>
<text text-anchor="middle" x="453.5" y="-141.5" font-family="Helvetica,sans-Serif" font-size="10.00" fill="#000000">src/io/Export.hpp</text>
</g>
<!-- Node3 -->
<g id="node2" class="node">
<title>Node3</title>
<g id="a_node2"><a xlink:href="ExportVTK_8hpp.html" target="_top" xlink:title="src/io/ExportVTK.hpp">
<polygon fill="#ffffff" stroke="#000000" points="289.5,-73 289.5,-92 407.5,-92 407.5,-73 289.5,-73"/>
<text text-anchor="middle" x="348.5" y="-80" font-family="Helvetica,sans-Serif" font-size="10.00" fill="#000000">src/io/ExportVTK.hpp</text>
</a>
</g>
</g>
<!-- Node2&#45;&gt;Node3 -->
<g id="edge1" class="edge">
<title>Node2&#45;&gt;Node3</title>
<path fill="none" stroke="#191970" d="M428.3316,-129.2585C408.6183,-117.7122 381.7757,-101.99 364.791,-92.0419"/>
<polygon fill="#191970" stroke="#191970" points="426.696,-132.3566 437.0938,-134.3906 430.2338,-126.3164 426.696,-132.3566"/>
</g>
<!-- Node4 -->
<g id="node3" class="node">
<title>Node4</title>
<g id="a_node3"><a xlink:href="ExportVTK_8cpp.html" target="_top" xlink:title="src/io/ExportVTK.cpp">
<polygon fill="#ffffff" stroke="#000000" points="0,-6 0,-25 117,-25 117,-6 0,-6"/>
<text text-anchor="middle" x="58.5" y="-13" font-family="Helvetica,sans-Serif" font-size="10.00" fill="#000000">src/io/ExportVTK.cpp</text>
</a>
</g>
</g>
<!-- Node2&#45;&gt;Node4 -->
<g id="edge5" class="edge">
<title>Node2&#45;&gt;Node4</title>
<path fill="none" stroke="#191970" d="M394.2349,-134.0095C352.3909,-126.189 295.3107,-113.9642 246.5,-98 182.3024,-77.0033 110.1333,-41.8859 76.9712,-25.0582"/>
<polygon fill="#191970" stroke="#191970" points="393.7932,-137.4869 404.2614,-135.8537 395.0595,-130.6023 393.7932,-137.4869"/>
</g>
<!-- Node5 -->
<g id="node4" class="node">
<title>Node5</title>
<g id="a_node4"><a xlink:href="ExportVTKTest_8cpp.html" target="_top" xlink:title="src/io/tests/ExportVTKTest.cpp">
<polygon fill="#ffffff" stroke="#000000" points="135,-6 135,-25 298,-25 298,-6 135,-6"/>
<text text-anchor="middle" x="216.5" y="-13" font-family="Helvetica,sans-Serif" font-size="10.00" fill="#000000">src/io/tests/ExportVTKTest.cpp</text>
</a>
</g>
</g>
<!-- Node2&#45;&gt;Node5 -->
<g id="edge11" class="edge">
<title>Node2&#45;&gt;Node5</title>
<path fill="none" stroke="#191970" d="M393.9926,-137.8463C358.6717,-131.9457 314.3308,-120.4293 280.5,-98 251.6427,-78.8681 230.2199,-42.3605 221.2016,-25.0548"/>
<polygon fill="#191970" stroke="#191970" points="393.7499,-141.3507 404.17,-139.4346 394.8293,-134.4344 393.7499,-141.3507"/>
</g>
<!-- Node7 -->
<g id="node6" class="node">
<title>Node7</title>
<g id="a_node6"><a xlink:href="ExportVTKXML_8hpp.html" target="_top" xlink:title="src/io/ExportVTKXML.hpp">
<polygon fill="#ffffff" stroke="#000000" points="481.5,-73 481.5,-92 619.5,-92 619.5,-73 481.5,-73"/>
<text text-anchor="middle" x="550.5" y="-80" font-family="Helvetica,sans-Serif" font-size="10.00" fill="#000000">src/io/ExportVTKXML.hpp</text>
</a>
</g>
</g>
<!-- Node2&#45;&gt;Node7 -->
<g id="edge6" class="edge">
<title>Node2&#45;&gt;Node7</title>
<path fill="none" stroke="#191970" d="M477.496,-128.786C495.6337,-117.2864 519.9726,-101.855 535.4502,-92.0419"/>
<polygon fill="#191970" stroke="#191970" points="475.2277,-126.08 468.6563,-134.3906 478.976,-131.9919 475.2277,-126.08"/>
</g>
<!-- Node8 -->
<g id="node7" class="node">
<title>Node8</title>
<g id="a_node7"><a xlink:href="ExportVTKXML_8cpp.html" target="_top" xlink:title="src/io/ExportVTKXML.cpp">
<polygon fill="#ffffff" stroke="#000000" points="491,-6 491,-25 628,-25 628,-6 491,-6"/>
<text text-anchor="middle" x="559.5" y="-13" font-family="Helvetica,sans-Serif" font-size="10.00" fill="#000000">src/io/ExportVTKXML.cpp</text>
</a>
</g>
</g>
<!-- Node2&#45;&gt;Node8 -->
<g id="edge10" class="edge">
<title>Node2&#45;&gt;Node8</title>
<path fill="none" stroke="#191970" d="M454.2043,-124.2287C455.7091,-107.5179 460.088,-83.7013 472.5,-67 487.3669,-46.9954 512.5088,-33.338 531.9527,-25.1413"/>
<polygon fill="#191970" stroke="#191970" points="450.6938,-124.2875 453.5584,-134.4877 457.68,-124.7274 450.6938,-124.2875"/>
</g>
<!-- Node9 -->
<g id="node8" class="node">
<title>Node9</title>
<g id="a_node8"><a xlink:href="ExportVTKXMLTest_8cpp.html" target="_top" xlink:title="src/io/tests/ExportVTKXMLTest.cpp">
<polygon fill="#ffffff" stroke="#000000" points="646.5,-6 646.5,-25 828.5,-25 828.5,-6 646.5,-6"/>
<text text-anchor="middle" x="737.5" y="-13" font-family="Helvetica,sans-Serif" font-size="10.00" fill="#000000">src/io/tests/ExportVTKXMLTest.cpp</text>
</a>
</g>
</g>
<!-- Node2&#45;&gt;Node9 -->
<g id="edge12" class="edge">
<title>Node2&#45;&gt;Node9</title>
<path fill="none" stroke="#191970" d="M512.6574,-134.7811C547.6357,-127.8106 592.0706,-116.2455 628.5,-98 648.2978,-88.0844 649.9127,-80.452 667.5,-67 687.0337,-52.0592 710.0712,-35.2659 724.2315,-25.0364"/>
<polygon fill="#191970" stroke="#191970" points="511.7533,-131.3907 502.5923,-136.713 513.0728,-138.2652 511.7533,-131.3907"/>
</g>
<!-- Node10 -->
<g id="node9" class="node">
<title>Node10</title>
<g id="a_node9"><a xlink:href="SolverInterfaceImpl_8cpp.html" target="_top" xlink:title="src/precice/impl/SolverInterface\lImpl.cpp">
<polygon fill="#ffffff" stroke="#000000" points="676,-67.5 676,-97.5 847,-97.5 847,-67.5 676,-67.5"/>
<text text-anchor="start" x="684" y="-85.5" font-family="Helvetica,sans-Serif" font-size="10.00" fill="#000000">src/precice/impl/SolverInterface</text>
<text text-anchor="middle" x="761.5" y="-74.5" font-family="Helvetica,sans-Serif" font-size="10.00" fill="#000000">Impl.cpp</text>
</a>
</g>
</g>
<!-- Node2&#45;&gt;Node10 -->
<g id="edge13" class="edge">
<title>Node2&#45;&gt;Node10</title>
<path fill="none" stroke="#191970" d="M511.1851,-132.4817C560.6654,-122.6017 632.3079,-108.2965 686.2813,-97.5193"/>
<polygon fill="#191970" stroke="#191970" points="510.4081,-129.0677 501.2871,-134.4581 511.7788,-135.9322 510.4081,-129.0677"/>
</g>
<!-- Node3&#45;&gt;Node4 -->
<g id="edge2" class="edge">
<title>Node3&#45;&gt;Node4</title>
<path fill="none" stroke="#191970" d="M297.1304,-70.6425C251.9309,-60.2078 184.3461,-44.6018 125.5,-31 117.1246,-29.0641 108.1606,-26.9911 99.6015,-25.0112"/>
<polygon fill="#191970" stroke="#191970" points="296.457,-74.079 306.9881,-72.9181 298.0317,-67.2584 296.457,-74.079"/>
</g>
<!-- Node3&#45;&gt;Node5 -->
<g id="edge3" class="edge">
<title>Node3&#45;&gt;Node5</title>
<path fill="none" stroke="#191970" d="M320.3855,-68.2298C294.7596,-55.2227 257.6122,-36.3676 235.3773,-25.0817"/>
<polygon fill="#191970" stroke="#191970" points="319.0864,-71.4954 329.5876,-72.9005 322.2547,-65.2534 319.0864,-71.4954"/>
</g>
<!-- Node6 -->
<g id="node5" class="node">
<title>Node6</title>
<g id="a_node5"><a xlink:href="ParticipantConfiguration_8cpp.html" target="_top" xlink:title="src/precice/config\l/ParticipantConfiguration.cpp">
<polygon fill="#ffffff" stroke="#000000" points="316,-.5 316,-30.5 473,-30.5 473,-.5 316,-.5"/>
<text text-anchor="start" x="324" y="-18.5" font-family="Helvetica,sans-Serif" font-size="10.00" fill="#000000">src/precice/config</text>
<text text-anchor="middle" x="394.5" y="-7.5" font-family="Helvetica,sans-Serif" font-size="10.00" fill="#000000">/ParticipantConfiguration.cpp</text>
</a>
</g>
</g>
<!-- Node3&#45;&gt;Node6 -->
<g id="edge4" class="edge">
<title>Node3&#45;&gt;Node6</title>
<path fill="none" stroke="#191970" d="M360.925,-64.4026C368.2089,-53.7936 377.3014,-40.5502 384.1866,-30.5218"/>
<polygon fill="#191970" stroke="#191970" points="357.8654,-62.6755 355.0907,-72.9005 363.6362,-66.6375 357.8654,-62.6755"/>
</g>
<!-- Node7&#45;&gt;Node6 -->
<g id="edge9" class="edge">
<title>Node7&#45;&gt;Node6</title>
<path fill="none" stroke="#191970" d="M518.7791,-68.8763C492.8545,-57.742 456.2457,-42.019 429.476,-30.5218"/>
<polygon fill="#191970" stroke="#191970" points="517.5794,-72.1701 528.149,-72.9005 520.3418,-65.7382 517.5794,-72.1701"/>
</g>
<!-- Node7&#45;&gt;Node8 -->
<g id="edge7" class="edge">
<title>Node7&#45;&gt;Node8</title>
<path fill="none" stroke="#191970" d="M553.1212,-62.9863C554.7947,-50.5286 556.8906,-34.9258 558.2129,-25.0817"/>
<polygon fill="#191970" stroke="#191970" points="549.652,-62.5236 551.7895,-72.9005 556.5897,-63.4555 549.652,-62.5236"/>
</g>
<!-- Node7&#45;&gt;Node9 -->
<g id="edge8" class="edge">
<title>Node7&#45;&gt;Node9</title>
<path fill="none" stroke="#191970" d="M587.0181,-69.416C623.3665,-56.3928 678.2863,-36.7156 710.7572,-25.0817"/>
<polygon fill="#191970" stroke="#191970" points="585.526,-66.2326 577.2925,-72.9005 587.8871,-72.8224 585.526,-66.2326"/>
</g>
</g>
</svg>
