<?xml version="1.0" encoding="UTF-8" standalone="no"?>
<!DOCTYPE svg PUBLIC "-//W3C//DTD SVG 1.1//EN"
 "http://www.w3.org/Graphics/SVG/1.1/DTD/svg11.dtd">
<!-- Generated by graphviz version 2.40.1 (20161225.0304)
 -->
<!-- Title: src/mesh/Filter.hpp Pages: 1 -->
<svg width="405pt" height="162pt"
 viewBox="0.00 0.00 405.00 162.00" xmlns="http://www.w3.org/2000/svg" xmlns:xlink="http://www.w3.org/1999/xlink">
<g id="graph0" class="graph" transform="scale(1 1) rotate(0) translate(4 158)">
<title>src/mesh/Filter.hpp</title>
<polygon fill="#ffffff" stroke="transparent" points="-4,4 -4,-158 401,-158 401,4 -4,4"/>
<!-- Node51 -->
<g id="node1" class="node">
<title>Node51</title>
<polygon fill="#bfbfbf" stroke="#000000" points="177,-134.5 177,-153.5 278,-153.5 278,-134.5 177,-134.5"/>
<text text-anchor="middle" x="227.5" y="-141.5" font-family="Helvetica,sans-Serif" font-size="10.00" fill="#000000">src/mesh/Filter.hpp</text>
</g>
<!-- Node52 -->
<g id="node2" class="node">
<title>Node52</title>
<g id="a_node2"><a xlink:href="RadialBasisFctMapping_8hpp.html" target="_top" xlink:title="src/mapping/RadialBasisFct\lMapping.hpp">
<polygon fill="#ffffff" stroke="#000000" points="71.5,-67.5 71.5,-97.5 211.5,-97.5 211.5,-67.5 71.5,-67.5"/>
<text text-anchor="start" x="79.5" y="-85.5" font-family="Helvetica,sans-Serif" font-size="10.00" fill="#000000">src/mapping/RadialBasisFct</text>
<text text-anchor="middle" x="141.5" y="-74.5" font-family="Helvetica,sans-Serif" font-size="10.00" fill="#000000">Mapping.hpp</text>
</a>
</g>
</g>
<!-- Node51&#45;&gt;Node52 -->
<g id="edge1" class="edge">
<title>Node51&#45;&gt;Node52</title>
<path fill="none" stroke="#191970" d="M205.5621,-128.3119C192.3416,-118.8577 175.5936,-106.8809 162.538,-97.5446"/>
<polygon fill="#191970" stroke="#191970" points="203.8924,-131.4207 214.0625,-134.3906 207.9643,-125.7268 203.8924,-131.4207"/>
</g>
<!-- Node55 -->
<g id="node5" class="node">
<title>Node55</title>
<g id="a_node5"><a xlink:href="ReceivedPartition_8cpp.html" target="_top" xlink:title="src/partition/ReceivedPartition.cpp">
<polygon fill="#ffffff" stroke="#000000" points="230,-73 230,-92 397,-92 397,-73 230,-73"/>
<text text-anchor="middle" x="313.5" y="-80" font-family="Helvetica,sans-Serif" font-size="10.00" fill="#000000">src/partition/ReceivedPartition.cpp</text>
</a>
</g>
</g>
<!-- Node51&#45;&gt;Node55 -->
<g id="edge4" class="edge">
<title>Node51&#45;&gt;Node55</title>
<path fill="none" stroke="#191970" d="M249.2188,-128.4685C265.2509,-117.0037 286.5604,-101.765 300.1569,-92.0419"/>
<polygon fill="#191970" stroke="#191970" points="247.0357,-125.7268 240.9375,-134.3906 251.1076,-131.4207 247.0357,-125.7268"/>
</g>
<!-- Node53 -->
<g id="node3" class="node">
<title>Node53</title>
<g id="a_node3"><a xlink:href="MappingConfiguration_8cpp.html" target="_top" xlink:title="src/mapping/config\l/MappingConfiguration.cpp">
<polygon fill="#ffffff" stroke="#000000" points="0,-.5 0,-30.5 133,-30.5 133,-.5 0,-.5"/>
<text text-anchor="start" x="8" y="-18.5" font-family="Helvetica,sans-Serif" font-size="10.00" fill="#000000">src/mapping/config</text>
<text text-anchor="middle" x="66.5" y="-7.5" font-family="Helvetica,sans-Serif" font-size="10.00" fill="#000000">/MappingConfiguration.cpp</text>
</a>
</g>
</g>
<!-- Node52&#45;&gt;Node53 -->
<g id="edge2" class="edge">
<title>Node52&#45;&gt;Node53</title>
<path fill="none" stroke="#191970" d="M116.8692,-60.4965C105.9246,-50.7193 93.3157,-39.4554 83.4513,-30.6432"/>
<polygon fill="#191970" stroke="#191970" points="114.6919,-63.2447 124.4813,-67.2967 119.3555,-58.0243 114.6919,-63.2447"/>
</g>
<!-- Node54 -->
<g id="node4" class="node">
<title>Node54</title>
<g id="a_node4"><a xlink:href="RadialBasisFctMappingTest_8cpp.html" target="_top" xlink:title="src/mapping/tests/Radial\lBasisFctMappingTest.cpp">
<polygon fill="#ffffff" stroke="#000000" points="151,-.5 151,-30.5 282,-30.5 282,-.5 151,-.5"/>
<text text-anchor="start" x="159" y="-18.5" font-family="Helvetica,sans-Serif" font-size="10.00" fill="#000000">src/mapping/tests/Radial</text>
<text text-anchor="middle" x="216.5" y="-7.5" font-family="Helvetica,sans-Serif" font-size="10.00" fill="#000000">BasisFctMappingTest.cpp</text>
</a>
</g>
</g>
<!-- Node52&#45;&gt;Node54 -->
<g id="edge3" class="edge">
<title>Node52&#45;&gt;Node54</title>
<path fill="none" stroke="#191970" d="M166.1308,-60.4965C177.0754,-50.7193 189.6843,-39.4554 199.5487,-30.6432"/>
<polygon fill="#191970" stroke="#191970" points="163.6445,-58.0243 158.5187,-67.2967 168.3081,-63.2447 163.6445,-58.0243"/>
</g>
</g>
</svg>
