<?xml version="1.0" encoding="UTF-8" standalone="no"?>
<!DOCTYPE svg PUBLIC "-//W3C//DTD SVG 1.1//EN"
 "http://www.w3.org/Graphics/SVG/1.1/DTD/svg11.dtd">
<!-- Generated by graphviz version 2.40.1 (20161225.0304)
 -->
<!-- Title: BOOST_AUTO_TEST_CASE Pages: 1 -->
<!--zoomable 1201 -->
<svg id="main" version="1.1" xmlns="http://www.w3.org/2000/svg" xmlns:xlink="http://www.w3.org/1999/xlink" xml:space="preserve" onload="init(evt)">
<style type="text/css"><![CDATA[
.edge:hover path { stroke: red; }
.edge:hover polygon { stroke: red; fill: red; }
]]></style>
<script type="text/javascript"><![CDATA[
var edges = document.getElementsByTagName('g');
if (edges && edges.length) {
  for (var i=0;i<edges.length;i++) {
    if (edges[i].id.substr(0,4)=='edge') {
      edges[i].setAttribute('class','edge');
    }
  }
}
]]></script>
        <defs>
                <circle id="rim" cx="0" cy="0" r="7"/>
                <circle id="rim2" cx="0" cy="0" r="3.5"/>
                <g id="zoomPlus">
                        <use xlink:href="#rim" fill="#404040">
                                <set attributeName="fill" to="#808080" begin="zoomplus.mouseover" end="zoomplus.mouseout"/>
                        </use>
                        <path d="M-4,0h8M0,-4v8" fill="none" stroke="white" stroke-width="1.5" pointer-events="none"/>
                </g>
                <g id="zoomMin">
                        <use xlink:href="#rim" fill="#404040">
                                <set attributeName="fill" to="#808080" begin="zoomminus.mouseover" end="zoomminus.mouseout"/>
                        </use>
                        <path d="M-4,0h8" fill="none" stroke="white" stroke-width="1.5" pointer-events="none"/>
                </g>
                <g id="dirArrow">
                        <path fill="none" stroke="white" stroke-width="1.5" d="M0,-3.0v7 M-2.5,-0.5L0,-3.0L2.5,-0.5"/>
                </g>
               <g id="resetDef">
                       <use xlink:href="#rim2" fill="#404040">
                               <set attributeName="fill" to="#808080" begin="reset.mouseover" end="reset.mouseout"/>
                       </use>
               </g>
        </defs>

<script type="text/javascript">
var viewWidth = 874;
var viewHeight = 1201;
var sectionId = 'dynsection-8';
</script>
<script xlink:href="svgpan.js"/>
<svg id="graph" class="graph">
<g id="viewport">
<title>BOOST_AUTO_TEST_CASE</title>
<polygon fill="#ffffff" stroke="transparent" points="-4,4 -4,-1197 870,-1197 870,4 -4,4"/>
<!-- Node279 -->
<g id="node1" class="node">
<title>Node279</title>
<polygon fill="#bfbfbf" stroke="#000000" points="0,-534.5 0,-553.5 148,-553.5 148,-534.5 0,-534.5"/>
<text text-anchor="middle" x="74" y="-541.5" font-family="Helvetica,sans-Serif" font-size="10.00" fill="#000000">BOOST_AUTO_TEST_CASE</text>
</g>
<!-- Node280 -->
<g id="node2" class="node">
<title>Node280</title>
<g id="a_node2"><a xlink:href="namespaceprecice_1_1testing.html#a08533fd83bad3d7f27ea7f4a35a14aa4" target="_top" xlink:title="precice::testing::nextMeshID">
<polygon fill="#ffffff" stroke="#000000" points="184,-1173.5 184,-1192.5 327,-1192.5 327,-1173.5 184,-1173.5"/>
<text text-anchor="middle" x="255.5" y="-1180.5" font-family="Helvetica,sans-Serif" font-size="10.00" fill="#000000">precice::testing::nextMeshID</text>
</a>
</g>
</g>
<!-- Node279&#45;&gt;Node280 -->
<g id="edge1" class="edge">
<title>Node279&#45;&gt;Node280</title>
<path fill="none" stroke="#191970" d="M74.4183,-553.7885C77.6461,-624.9301 100.7357,-1062.5131 184,-1159 187.2507,-1162.767 191.1118,-1165.9444 195.3304,-1168.6244"/>
<polygon fill="#191970" stroke="#191970" points="193.9386,-1171.8484 204.4108,-1173.4561 197.2269,-1165.6688 193.9386,-1171.8484"/>
</g>
<!-- Node282 -->
<g id="node4" class="node">
<title>Node282</title>
<g id="a_node4"><a xlink:href="classprecice_1_1mesh_1_1Mesh.html#ae99d0d5d776e7c676acb72830df4aa45" target="_top" xlink:title="precice::mesh::Mesh\l::createVertex">
<polygon fill="#ffffff" stroke="#000000" points="201.5,-573 201.5,-603 309.5,-603 309.5,-573 201.5,-573"/>
<text text-anchor="start" x="209.5" y="-591" font-family="Helvetica,sans-Serif" font-size="10.00" fill="#000000">precice::mesh::Mesh</text>
<text text-anchor="middle" x="255.5" y="-580" font-family="Helvetica,sans-Serif" font-size="10.00" fill="#000000">::createVertex</text>
</a>
</g>
</g>
<!-- Node279&#45;&gt;Node282 -->
<g id="edge3" class="edge">
<title>Node279&#45;&gt;Node282</title>
<path fill="none" stroke="#191970" d="M113.3828,-553.5473C136.2176,-559.083 165.5221,-566.1872 191.5827,-572.5049"/>
<polygon fill="#191970" stroke="#191970" points="190.8484,-575.9282 201.3916,-574.8828 192.4977,-569.1253 190.8484,-575.9282"/>
</g>
<!-- Node283 -->
<g id="node5" class="node">
<title>Node283</title>
<g id="a_node5"><a xlink:href="classprecice_1_1mesh_1_1Mesh.html#ae05c5234aa9adc6f47a814622039c28e" target="_top" xlink:title="Creates and initializes an Edge object. ">
<polygon fill="#ffffff" stroke="#000000" points="561.5,-1041 561.5,-1071 669.5,-1071 669.5,-1041 561.5,-1041"/>
<text text-anchor="start" x="569.5" y="-1059" font-family="Helvetica,sans-Serif" font-size="10.00" fill="#000000">precice::mesh::Mesh</text>
<text text-anchor="middle" x="615.5" y="-1048" font-family="Helvetica,sans-Serif" font-size="10.00" fill="#000000">::createEdge</text>
</a>
</g>
</g>
<!-- Node279&#45;&gt;Node283 -->
<g id="edge45" class="edge">
<title>Node279&#45;&gt;Node283</title>
<path fill="none" stroke="#191970" d="M75.2448,-553.7C84.0142,-617.5103 142.7136,-978.7062 363,-1114 417.9143,-1147.7269 448.6314,-1139.069 508,-1114 529.1367,-1105.0748 524.3491,-1088.8431 544,-1077 546.4932,-1075.4974 549.1004,-1074.0968 551.7824,-1072.7917"/>
<polygon fill="#191970" stroke="#191970" points="553.3653,-1075.9198 561.132,-1068.7137 550.5667,-1069.5036 553.3653,-1075.9198"/>
</g>
<!-- Node302 -->
<g id="node24" class="node">
<title>Node302</title>
<g id="a_node24"><a xlink:href="classprecice_1_1mesh_1_1Mesh.html#a02278d8459bfbf8c9dd137070e670e9a" target="_top" xlink:title="Necessary before any geom. operations can be performed on the mesh. ">
<polygon fill="#ffffff" stroke="#000000" points="381.5,-39 381.5,-69 489.5,-69 489.5,-39 381.5,-39"/>
<text text-anchor="start" x="389.5" y="-57" font-family="Helvetica,sans-Serif" font-size="10.00" fill="#000000">precice::mesh::Mesh</text>
<text text-anchor="middle" x="435.5" y="-46" font-family="Helvetica,sans-Serif" font-size="10.00" fill="#000000">::computeState</text>
</a>
</g>
</g>
<!-- Node279&#45;&gt;Node302 -->
<g id="edge46" class="edge">
<title>Node279&#45;&gt;Node302</title>
<path fill="none" stroke="#191970" d="M148.1885,-548.6471C213.7364,-550.9893 302.6014,-549.2671 327,-525 397.6569,-454.724 301.449,-156.3746 363,-78 365.7177,-74.5394 368.9493,-71.5728 372.5157,-69.0301"/>
<polygon fill="#191970" stroke="#191970" points="374.5116,-71.9169 381.361,-63.8338 370.9659,-65.8813 374.5116,-71.9169"/>
</g>
<!-- Node314 -->
<g id="node36" class="node">
<title>Node314</title>
<g id="a_node36"><a xlink:href="classprecice_1_1query_1_1FindClosest.html#ade2b0fbde246e0c0eef4a57d9838df9f" target="_top" xlink:title="Returns ClosestElement found, error when no visitable has been found. ">
<polygon fill="#ffffff" stroke="#000000" points="187,-485 187,-515 324,-515 324,-485 187,-485"/>
<text text-anchor="start" x="195" y="-503" font-family="Helvetica,sans-Serif" font-size="10.00" fill="#000000">precice::query::FindClosest</text>
<text text-anchor="middle" x="255.5" y="-492" font-family="Helvetica,sans-Serif" font-size="10.00" fill="#000000">::getClosest</text>
</a>
</g>
</g>
<!-- Node279&#45;&gt;Node314 -->
<g id="edge47" class="edge">
<title>Node279&#45;&gt;Node314</title>
<path fill="none" stroke="#191970" d="M113.3828,-534.4527C133.9088,-529.4767 159.6624,-523.2334 183.5885,-517.4331"/>
<polygon fill="#191970" stroke="#191970" points="184.4615,-520.8229 193.3554,-515.0654 182.8122,-514.02 184.4615,-520.8229"/>
</g>
<!-- Node315 -->
<g id="node37" class="node">
<title>Node315</title>
<g id="a_node37"><a xlink:href="RTreeTests_8cpp.html#a9849f5c774ff22e557184d988b1cf9ea" target="_top" xlink:title="BOOST_TEST">
<polygon fill="#ffffff" stroke="#000000" points="214.5,-446.5 214.5,-465.5 296.5,-465.5 296.5,-446.5 214.5,-446.5"/>
<text text-anchor="middle" x="255.5" y="-453.5" font-family="Helvetica,sans-Serif" font-size="10.00" fill="#000000">BOOST_TEST</text>
</a>
</g>
</g>
<!-- Node279&#45;&gt;Node315 -->
<g id="edge48" class="edge">
<title>Node279&#45;&gt;Node315</title>
<path fill="none" stroke="#191970" d="M86.8793,-534.3523C106.7674,-519.8555 146.5772,-492.4084 184,-476 190.5738,-473.1177 197.6709,-470.5429 204.7526,-468.2784"/>
<polygon fill="#191970" stroke="#191970" points="205.7867,-471.6223 214.3493,-465.3828 203.7646,-464.9207 205.7867,-471.6223"/>
</g>
<!-- Node316 -->
<g id="node38" class="node">
<title>Node316</title>
<g id="a_node38"><a xlink:href="namespaceprecice_1_1testing.html#a6a116337529290bbb1bf2545b5fb315a" target="_top" xlink:title="equals to be used in tests. Prints both operatorans on failure ">
<polygon fill="#ffffff" stroke="#000000" points="196.5,-204.5 196.5,-223.5 314.5,-223.5 314.5,-204.5 196.5,-204.5"/>
<text text-anchor="middle" x="255.5" y="-211.5" font-family="Helvetica,sans-Serif" font-size="10.00" fill="#000000">precice::testing::equals</text>
</a>
</g>
</g>
<!-- Node279&#45;&gt;Node316 -->
<g id="edge49" class="edge">
<title>Node279&#45;&gt;Node316</title>
<path fill="none" stroke="#191970" d="M79.2362,-534.4796C104.2324,-489.0321 211.5964,-293.8247 245.3217,-232.5061"/>
<polygon fill="#191970" stroke="#191970" points="248.4901,-234.0079 250.2426,-223.559 242.3566,-230.6344 248.4901,-234.0079"/>
</g>
<!-- Node281 -->
<g id="node3" class="node">
<title>Node281</title>
<g id="a_node3"><a xlink:href="classprecice_1_1utils_1_1ManageUniqueIDs.html#a02be264c279698ae293587b6576088b5" target="_top" xlink:title="precice::utils::ManageUnique\lIDs::getFreeID">
<polygon fill="#ffffff" stroke="#000000" points="723,-919 723,-949 866,-949 866,-919 723,-919"/>
<text text-anchor="start" x="731" y="-937" font-family="Helvetica,sans-Serif" font-size="10.00" fill="#000000">precice::utils::ManageUnique</text>
<text text-anchor="middle" x="794.5" y="-926" font-family="Helvetica,sans-Serif" font-size="10.00" fill="#000000">IDs::getFreeID</text>
</a>
</g>
</g>
<!-- Node280&#45;&gt;Node281 -->
<g id="edge2" class="edge">
<title>Node280&#45;&gt;Node281</title>
<path fill="none" stroke="#191970" d="M327.3719,-1184.0865C420.2119,-1181.801 582.2943,-1164.8365 687,-1081 730.1675,-1046.4363 764.5295,-990.4828 781.9678,-958.502"/>
<polygon fill="#191970" stroke="#191970" points="785.2066,-959.8669 786.8274,-949.3968 779.0311,-956.5709 785.2066,-959.8669"/>
</g>
<!-- Node282&#45;&gt;Node281 -->
<g id="edge4" class="edge">
<title>Node282&#45;&gt;Node281</title>
<path fill="none" stroke="#191970" d="M264.1687,-603.0865C280.036,-629.1236 316.4421,-682.0059 363,-706 491.9254,-772.4431 566.2168,-664.7014 687,-745 745.974,-784.2069 776.2435,-867.448 788.2085,-909.1302"/>
<polygon fill="#191970" stroke="#191970" points="784.8358,-910.066 790.8624,-918.7799 791.5852,-908.2097 784.8358,-910.066"/>
</g>
<!-- Node282&#45;&gt;Node283 -->
<g id="edge5" class="edge">
<title>Node282&#45;&gt;Node283</title>
<path fill="none" stroke="#191970" d="M256.2936,-603.1033C260.6628,-679.7586 284.5222,-1024.6016 363,-1088 425.0952,-1138.1637 525.292,-1101.5933 578.8935,-1075.7208"/>
<polygon fill="#191970" stroke="#191970" points="580.6186,-1078.7722 588.0261,-1071.1973 577.5116,-1072.4995 580.6186,-1078.7722"/>
</g>
<!-- Node284 -->
<g id="node6" class="node">
<title>Node284</title>
<g id="a_node6"><a xlink:href="classprecice_1_1mesh_1_1Mesh.html#aaeeb91bf6152969a12f3901841e1db0c" target="_top" xlink:title="Creates and initializes an Edge object or returns an already existing one. ">
<polygon fill="#ffffff" stroke="#000000" points="381.5,-852 381.5,-882 489.5,-882 489.5,-852 381.5,-852"/>
<text text-anchor="start" x="389.5" y="-870" font-family="Helvetica,sans-Serif" font-size="10.00" fill="#000000">precice::mesh::Mesh</text>
<text text-anchor="middle" x="435.5" y="-859" font-family="Helvetica,sans-Serif" font-size="10.00" fill="#000000">::createUniqueEdge</text>
</a>
</g>
</g>
<!-- Node282&#45;&gt;Node284 -->
<g id="edge7" class="edge">
<title>Node282&#45;&gt;Node284</title>
<path fill="none" stroke="#191970" d="M257.4866,-603.1101C264.0276,-646.8051 288.8872,-774.5417 363,-843 365.794,-845.5808 368.8722,-847.8846 372.1359,-849.941"/>
<polygon fill="#191970" stroke="#191970" points="370.6816,-853.1339 381.1402,-854.8272 374.0202,-846.9814 370.6816,-853.1339"/>
</g>
<!-- Node288 -->
<g id="node10" class="node">
<title>Node288</title>
<g id="a_node10"><a xlink:href="classprecice_1_1mesh_1_1Mesh.html#a00c3db2576c63d8c6f351175ddc0a4d0" target="_top" xlink:title="Creates and initializes a Triangle object. ">
<polygon fill="#ffffff" stroke="#000000" points="381.5,-754 381.5,-784 489.5,-784 489.5,-754 381.5,-754"/>
<text text-anchor="start" x="389.5" y="-772" font-family="Helvetica,sans-Serif" font-size="10.00" fill="#000000">precice::mesh::Mesh</text>
<text text-anchor="middle" x="435.5" y="-761" font-family="Helvetica,sans-Serif" font-size="10.00" fill="#000000">::createTriangle</text>
</a>
</g>
</g>
<!-- Node282&#45;&gt;Node288 -->
<g id="edge12" class="edge">
<title>Node282&#45;&gt;Node288</title>
<path fill="none" stroke="#191970" d="M262.7667,-603.4397C277.6047,-633.4529 314.153,-700.1234 363,-739 367.8961,-742.8968 373.3696,-746.361 379.0555,-749.4225"/>
<polygon fill="#191970" stroke="#191970" points="377.5982,-752.6064 388.1131,-753.9062 380.7038,-746.333 377.5982,-752.6064"/>
</g>
<!-- Node290 -->
<g id="node12" class="node">
<title>Node290</title>
<g id="a_node12"><a xlink:href="classprecice_1_1mesh_1_1Mesh.html#a6e387c9e2c5ccd43dcf81d57795ba935" target="_top" xlink:title="precice::mesh::Mesh\l::createData">
<polygon fill="#ffffff" stroke="#000000" points="381.5,-617 381.5,-647 489.5,-647 489.5,-617 381.5,-617"/>
<text text-anchor="start" x="389.5" y="-635" font-family="Helvetica,sans-Serif" font-size="10.00" fill="#000000">precice::mesh::Mesh</text>
<text text-anchor="middle" x="435.5" y="-624" font-family="Helvetica,sans-Serif" font-size="10.00" fill="#000000">::createData</text>
</a>
</g>
</g>
<!-- Node282&#45;&gt;Node290 -->
<g id="edge15" class="edge">
<title>Node282&#45;&gt;Node290</title>
<path fill="none" stroke="#191970" d="M309.5059,-601.2015C328.9953,-605.9655 351.1808,-611.3886 371.4469,-616.3426"/>
<polygon fill="#191970" stroke="#191970" points="370.6762,-619.7572 381.2213,-618.7319 372.3385,-612.9574 370.6762,-619.7572"/>
</g>
<!-- Node291 -->
<g id="node13" class="node">
<title>Node291</title>
<g id="a_node13"><a xlink:href="classprecice_1_1mesh_1_1Mesh.html#aceb3eabb4f8e40a44d5d1c2822ba7b56" target="_top" xlink:title="precice::mesh::Mesh\l::data">
<polygon fill="#ffffff" stroke="#000000" points="561.5,-573 561.5,-603 669.5,-603 669.5,-573 561.5,-573"/>
<text text-anchor="start" x="569.5" y="-591" font-family="Helvetica,sans-Serif" font-size="10.00" fill="#000000">precice::mesh::Mesh</text>
<text text-anchor="middle" x="615.5" y="-580" font-family="Helvetica,sans-Serif" font-size="10.00" fill="#000000">::data</text>
</a>
</g>
</g>
<!-- Node282&#45;&gt;Node291 -->
<g id="edge18" class="edge">
<title>Node282&#45;&gt;Node291</title>
<path fill="none" stroke="#191970" d="M309.7854,-588C374.4298,-588 482.2819,-588 551.0861,-588"/>
<polygon fill="#191970" stroke="#191970" points="551.3624,-591.5001 561.3624,-588 551.3624,-584.5001 551.3624,-591.5001"/>
</g>
<!-- Node293 -->
<g id="node15" class="node">
<title>Node293</title>
<g id="a_node15"><a xlink:href="classprecice_1_1mesh_1_1Mesh.html#a3185fe962ba3e8fe0b3cf451681e6a48" target="_top" xlink:title="Returns the name of the mesh, as set in the config file. ">
<polygon fill="#ffffff" stroke="#000000" points="381.5,-382 381.5,-412 489.5,-412 489.5,-382 381.5,-382"/>
<text text-anchor="start" x="389.5" y="-400" font-family="Helvetica,sans-Serif" font-size="10.00" fill="#000000">precice::mesh::Mesh</text>
<text text-anchor="middle" x="435.5" y="-389" font-family="Helvetica,sans-Serif" font-size="10.00" fill="#000000">::getName</text>
</a>
</g>
</g>
<!-- Node282&#45;&gt;Node293 -->
<g id="edge19" class="edge">
<title>Node282&#45;&gt;Node293</title>
<path fill="none" stroke="#191970" d="M307.7337,-572.8858C314.9531,-568.9775 321.6976,-564.0928 327,-558 368.0475,-510.8339 320.4367,-467.8028 363,-422 365.7756,-419.0131 368.9247,-416.3831 372.3182,-414.0673"/>
<polygon fill="#191970" stroke="#191970" points="374.2834,-416.9738 381.1833,-408.9338 370.7756,-410.9161 374.2834,-416.9738"/>
</g>
<!-- Node294 -->
<g id="node16" class="node">
<title>Node294</title>
<g id="a_node16"><a xlink:href="classprecice_1_1mesh_1_1Mesh.html#a18fcc2df2cfeba56e8f0af79c63a75e8" target="_top" xlink:title="precice::mesh::Mesh\l::isFlipNormals">
<polygon fill="#ffffff" stroke="#000000" points="381.5,-333 381.5,-363 489.5,-363 489.5,-333 381.5,-333"/>
<text text-anchor="start" x="389.5" y="-351" font-family="Helvetica,sans-Serif" font-size="10.00" fill="#000000">precice::mesh::Mesh</text>
<text text-anchor="middle" x="435.5" y="-340" font-family="Helvetica,sans-Serif" font-size="10.00" fill="#000000">::isFlipNormals</text>
</a>
</g>
</g>
<!-- Node282&#45;&gt;Node294 -->
<g id="edge20" class="edge">
<title>Node282&#45;&gt;Node294</title>
<path fill="none" stroke="#191970" d="M308.4537,-572.9919C315.4889,-569.0763 321.9883,-564.1614 327,-558 379.8565,-493.0178 308.0531,-436.2245 363,-373 365.8002,-369.7779 369.0363,-366.9708 372.555,-364.5252"/>
<polygon fill="#191970" stroke="#191970" points="374.3522,-367.5288 381.2066,-359.4498 370.8102,-361.491 374.3522,-367.5288"/>
</g>
<!-- Node295 -->
<g id="node17" class="node">
<title>Node295</title>
<g id="a_node17"><a xlink:href="classprecice_1_1mesh_1_1Mesh.html#a65ef730ba5ebf191074453fb1b4ebce3" target="_top" xlink:title="precice::mesh::Mesh\l::setFlipNormals">
<polygon fill="#ffffff" stroke="#000000" points="381.5,-284 381.5,-314 489.5,-314 489.5,-284 381.5,-284"/>
<text text-anchor="start" x="389.5" y="-302" font-family="Helvetica,sans-Serif" font-size="10.00" fill="#000000">precice::mesh::Mesh</text>
<text text-anchor="middle" x="435.5" y="-291" font-family="Helvetica,sans-Serif" font-size="10.00" fill="#000000">::setFlipNormals</text>
</a>
</g>
</g>
<!-- Node282&#45;&gt;Node295 -->
<g id="edge21" class="edge">
<title>Node282&#45;&gt;Node295</title>
<path fill="none" stroke="#191970" d="M309.0276,-572.9647C315.8955,-569.0582 322.1939,-564.1532 327,-558 391.7707,-475.0738 295.5604,-404.7706 363,-324 365.784,-320.6657 369.0359,-317.7752 372.5912,-315.2696"/>
<polygon fill="#191970" stroke="#191970" points="374.5274,-318.191 381.3602,-310.0939 370.9693,-312.1627 374.5274,-318.191"/>
</g>
<!-- Node296 -->
<g id="node18" class="node">
<title>Node296</title>
<g id="a_node18"><a xlink:href="classprecice_1_1mesh_1_1Mesh.html#a5e5005a7a807ec5947892eeb6279d12d" target="_top" xlink:title="Returns the base ID of the mesh. ">
<polygon fill="#ffffff" stroke="#000000" points="381.5,-235 381.5,-265 489.5,-265 489.5,-235 381.5,-235"/>
<text text-anchor="start" x="389.5" y="-253" font-family="Helvetica,sans-Serif" font-size="10.00" fill="#000000">precice::mesh::Mesh</text>
<text text-anchor="middle" x="435.5" y="-242" font-family="Helvetica,sans-Serif" font-size="10.00" fill="#000000">::getID</text>
</a>
</g>
</g>
<!-- Node282&#45;&gt;Node296 -->
<g id="edge22" class="edge">
<title>Node282&#45;&gt;Node296</title>
<path fill="none" stroke="#191970" d="M309.5262,-572.8726C316.2356,-568.9838 322.3562,-564.1083 327,-558 403.7351,-457.0655 283.0152,-373.3793 363,-275 365.7402,-271.6296 368.9594,-268.7123 372.4912,-266.1872"/>
<polygon fill="#191970" stroke="#191970" points="374.4263,-269.1083 381.2205,-260.9788 370.8396,-263.097 374.4263,-269.1083"/>
</g>
<!-- Node297 -->
<g id="node19" class="node">
<title>Node297</title>
<g id="a_node19"><a xlink:href="classprecice_1_1mesh_1_1Mesh.html#af5ee0ce0045f0f62382eadc5f4f5b105" target="_top" xlink:title="Returns true if the given vertexID is valid. ">
<polygon fill="#ffffff" stroke="#000000" points="381.5,-431 381.5,-461 489.5,-461 489.5,-431 381.5,-431"/>
<text text-anchor="start" x="389.5" y="-449" font-family="Helvetica,sans-Serif" font-size="10.00" fill="#000000">precice::mesh::Mesh</text>
<text text-anchor="middle" x="435.5" y="-438" font-family="Helvetica,sans-Serif" font-size="10.00" fill="#000000">::isValidVertexID</text>
</a>
</g>
</g>
<!-- Node282&#45;&gt;Node297 -->
<g id="edge23" class="edge">
<title>Node282&#45;&gt;Node297</title>
<path fill="none" stroke="#191970" d="M305.5732,-572.9931C313.4158,-569.0355 320.923,-564.107 327,-558 356.5167,-528.3373 332.5319,-499.6846 363,-471 365.9158,-468.2549 369.1472,-465.8098 372.5798,-463.632"/>
<polygon fill="#191970" stroke="#191970" points="374.3838,-466.6344 381.4618,-458.7507 371.0124,-460.4997 374.3838,-466.6344"/>
</g>
<!-- Node299 -->
<g id="node21" class="node">
<title>Node299</title>
<g id="a_node21"><a xlink:href="classprecice_1_1mesh_1_1Mesh.html#ad9bd3b09bef6dd82132602821a2df178" target="_top" xlink:title="Returns true if the given edgeID is valid. ">
<polygon fill="#ffffff" stroke="#000000" points="381.5,-803 381.5,-833 489.5,-833 489.5,-803 381.5,-803"/>
<text text-anchor="start" x="389.5" y="-821" font-family="Helvetica,sans-Serif" font-size="10.00" fill="#000000">precice::mesh::Mesh</text>
<text text-anchor="middle" x="435.5" y="-810" font-family="Helvetica,sans-Serif" font-size="10.00" fill="#000000">::isValidEdgeID</text>
</a>
</g>
</g>
<!-- Node282&#45;&gt;Node299 -->
<g id="edge25" class="edge">
<title>Node282&#45;&gt;Node299</title>
<path fill="none" stroke="#191970" d="M259.1713,-603.1675C269.1167,-641.0427 300.1564,-740.5549 363,-794 365.8438,-796.4185 368.939,-798.5953 372.196,-800.5543"/>
<polygon fill="#191970" stroke="#191970" points="370.6529,-803.6972 381.1336,-805.2478 373.9074,-797.4997 370.6529,-803.6972"/>
</g>
<!-- Node300 -->
<g id="node22" class="node">
<title>Node300</title>
<g id="a_node22"><a xlink:href="classprecice_1_1mesh_1_1Mesh.html#afa920f8d8d32076837ae5e3dc28b0eea" target="_top" xlink:title="Allocates memory for the vertex data values. ">
<polygon fill="#ffffff" stroke="#000000" points="381.5,-666 381.5,-696 489.5,-696 489.5,-666 381.5,-666"/>
<text text-anchor="start" x="389.5" y="-684" font-family="Helvetica,sans-Serif" font-size="10.00" fill="#000000">precice::mesh::Mesh</text>
<text text-anchor="middle" x="435.5" y="-673" font-family="Helvetica,sans-Serif" font-size="10.00" fill="#000000">::allocateDataValues</text>
</a>
</g>
</g>
<!-- Node282&#45;&gt;Node300 -->
<g id="edge27" class="edge">
<title>Node282&#45;&gt;Node300</title>
<path fill="none" stroke="#191970" d="M275.6112,-603.1021C296.5642,-618.2982 330.7748,-641.6255 363,-657 366.8367,-658.8305 370.8496,-660.5789 374.9344,-662.2371"/>
<polygon fill="#191970" stroke="#191970" points="373.9572,-665.6113 384.5469,-665.9388 376.4727,-659.0789 373.9572,-665.6113"/>
</g>
<!-- Node282&#45;&gt;Node302 -->
<g id="edge30" class="edge">
<title>Node282&#45;&gt;Node302</title>
<path fill="none" stroke="#191970" d="M309.815,-573.0864C316.4834,-569.1671 322.5155,-564.2262 327,-558 389.5156,-471.2038 297.165,-162.3062 363,-78 365.7082,-74.532 368.9327,-71.5598 372.494,-69.0131"/>
<polygon fill="#191970" stroke="#191970" points="374.4894,-71.9 381.3309,-63.8102 370.9378,-65.8678 374.4894,-71.9"/>
</g>
<!-- Node303 -->
<g id="node25" class="node">
<title>Node303</title>
<g id="a_node25"><a xlink:href="classprecice_1_1mesh_1_1Mesh.html#a988baa22e8e6fcaa9efc64e7943cb2fc" target="_top" xlink:title="Computes the boundingBox for the vertices. ">
<polygon fill="#ffffff" stroke="#000000" points="376.5,-186 376.5,-216 494.5,-216 494.5,-186 376.5,-186"/>
<text text-anchor="start" x="384.5" y="-204" font-family="Helvetica,sans-Serif" font-size="10.00" fill="#000000">precice::mesh::Mesh</text>
<text text-anchor="middle" x="435.5" y="-193" font-family="Helvetica,sans-Serif" font-size="10.00" fill="#000000">::computeBoundingBox</text>
</a>
</g>
</g>
<!-- Node282&#45;&gt;Node303 -->
<g id="edge31" class="edge">
<title>Node282&#45;&gt;Node303</title>
<path fill="none" stroke="#191970" d="M309.6291,-572.9501C316.3239,-569.0502 322.4129,-564.151 327,-558 415.7275,-439.0207 270.4409,-342.0235 363,-226 364.4842,-224.1396 366.1145,-222.4171 367.8635,-220.8223"/>
<polygon fill="#191970" stroke="#191970" points="370.271,-223.3936 376.2052,-214.6166 366.0928,-217.7773 370.271,-223.3936"/>
</g>
<!-- Node305 -->
<g id="node27" class="node">
<title>Node305</title>
<g id="a_node27"><a xlink:href="classprecice_1_1mesh_1_1Mesh.html#a20584f10c9c7568d038b8a4bb9d7a7c8" target="_top" xlink:title="Removes all mesh elements and data values (does not remove data). ">
<polygon fill="#ffffff" stroke="#000000" points="381.5,-529 381.5,-559 489.5,-559 489.5,-529 381.5,-529"/>
<text text-anchor="start" x="389.5" y="-547" font-family="Helvetica,sans-Serif" font-size="10.00" fill="#000000">precice::mesh::Mesh</text>
<text text-anchor="middle" x="435.5" y="-536" font-family="Helvetica,sans-Serif" font-size="10.00" fill="#000000">::clear</text>
</a>
</g>
</g>
<!-- Node282&#45;&gt;Node305 -->
<g id="edge33" class="edge">
<title>Node282&#45;&gt;Node305</title>
<path fill="none" stroke="#191970" d="M309.5059,-574.7985C328.9953,-570.0345 351.1808,-564.6114 371.4469,-559.6574"/>
<polygon fill="#191970" stroke="#191970" points="372.3385,-563.0426 381.2213,-557.2681 370.6762,-556.2428 372.3385,-563.0426"/>
</g>
<!-- Node307 -->
<g id="node29" class="node">
<title>Node307</title>
<g id="a_node29"><a xlink:href="classprecice_1_1mesh_1_1Mesh.html#a7dedd0a7f11c247b1739858d910f9cb9" target="_top" xlink:title="Returns a mapping from rank to used (not necessarily owned) vertex IDs. ">
<polygon fill="#ffffff" stroke="#000000" points="378.5,-137 378.5,-167 492.5,-167 492.5,-137 378.5,-137"/>
<text text-anchor="start" x="386.5" y="-155" font-family="Helvetica,sans-Serif" font-size="10.00" fill="#000000">precice::mesh::Mesh</text>
<text text-anchor="middle" x="435.5" y="-144" font-family="Helvetica,sans-Serif" font-size="10.00" fill="#000000">::getVertexDistribution</text>
</a>
</g>
</g>
<!-- Node282&#45;&gt;Node307 -->
<g id="edge36" class="edge">
<title>Node282&#45;&gt;Node307</title>
<path fill="none" stroke="#191970" d="M309.7076,-573.0082C316.3912,-569.1001 322.4563,-564.1831 327,-558 377.491,-489.2921 309.8821,-242.6979 363,-176 364.9359,-173.5692 367.125,-171.3823 369.5047,-169.4151"/>
<polygon fill="#191970" stroke="#191970" points="371.8967,-172.0242 378.2392,-163.5375 367.9887,-166.2166 371.8967,-172.0242"/>
</g>
<!-- Node308 -->
<g id="node30" class="node">
<title>Node308</title>
<g id="a_node30"><a xlink:href="classprecice_1_1mesh_1_1Mesh.html#a590d8e05844921733090cd5906657a93" target="_top" xlink:title="precice::mesh::Mesh\l::getVertexOffsets">
<polygon fill="#ffffff" stroke="#000000" points="381.5,-88 381.5,-118 489.5,-118 489.5,-88 381.5,-88"/>
<text text-anchor="start" x="389.5" y="-106" font-family="Helvetica,sans-Serif" font-size="10.00" fill="#000000">precice::mesh::Mesh</text>
<text text-anchor="middle" x="435.5" y="-95" font-family="Helvetica,sans-Serif" font-size="10.00" fill="#000000">::getVertexOffsets</text>
</a>
</g>
</g>
<!-- Node282&#45;&gt;Node308 -->
<g id="edge37" class="edge">
<title>Node282&#45;&gt;Node308</title>
<path fill="none" stroke="#191970" d="M309.7673,-573.0518C316.4424,-569.1375 322.4892,-564.2072 327,-558 383.5014,-480.2506 303.5255,-202.4995 363,-127 365.7229,-123.5435 368.9582,-120.5798 372.5274,-118.0393"/>
<polygon fill="#191970" stroke="#191970" points="374.5236,-120.9261 381.3773,-112.8466 370.9811,-114.8886 374.5236,-120.9261"/>
</g>
<!-- Node309 -->
<g id="node31" class="node">
<title>Node309</title>
<g id="a_node31"><a xlink:href="classprecice_1_1mesh_1_1Mesh.html#a806bdb0fb238bd542e8108a041363da5" target="_top" xlink:title="Only used for tests. ">
<polygon fill="#ffffff" stroke="#000000" points="381.5,-1048 381.5,-1078 489.5,-1078 489.5,-1048 381.5,-1048"/>
<text text-anchor="start" x="389.5" y="-1066" font-family="Helvetica,sans-Serif" font-size="10.00" fill="#000000">precice::mesh::Mesh</text>
<text text-anchor="middle" x="435.5" y="-1055" font-family="Helvetica,sans-Serif" font-size="10.00" fill="#000000">::setVertexOffsets</text>
</a>
</g>
</g>
<!-- Node282&#45;&gt;Node309 -->
<g id="edge38" class="edge">
<title>Node282&#45;&gt;Node309</title>
<path fill="none" stroke="#191970" d="M257.1537,-603.3035C265.1297,-674.4557 301.7701,-972.2852 363,-1039 365.8744,-1042.1319 369.1661,-1044.8558 372.7254,-1047.2247"/>
<polygon fill="#191970" stroke="#191970" points="371.0145,-1050.278 381.4457,-1052.1329 374.448,-1044.1779 371.0145,-1050.278"/>
</g>
<!-- Node310 -->
<g id="node32" class="node">
<title>Node310</title>
<g id="a_node32"><a xlink:href="classprecice_1_1mesh_1_1Mesh.html#a0fbbc8211e87e48c5d12789c41ad9af1" target="_top" xlink:title="precice::mesh::Mesh\l::getGlobalNumberOfVertices">
<polygon fill="#ffffff" stroke="#000000" points="363,-999 363,-1029 508,-1029 508,-999 363,-999"/>
<text text-anchor="start" x="371" y="-1017" font-family="Helvetica,sans-Serif" font-size="10.00" fill="#000000">precice::mesh::Mesh</text>
<text text-anchor="middle" x="435.5" y="-1006" font-family="Helvetica,sans-Serif" font-size="10.00" fill="#000000">::getGlobalNumberOfVertices</text>
</a>
</g>
</g>
<!-- Node282&#45;&gt;Node310 -->
<g id="edge39" class="edge">
<title>Node282&#45;&gt;Node310</title>
<path fill="none" stroke="#191970" d="M257.643,-603.3966C267.1787,-669.8536 307.7278,-931.403 363,-990 363.9211,-990.9765 364.8828,-991.9134 365.8804,-992.8121"/>
<polygon fill="#191970" stroke="#191970" points="364.0457,-995.81 374.1542,-998.9831 368.2308,-990.1988 364.0457,-995.81"/>
</g>
<!-- Node311 -->
<g id="node33" class="node">
<title>Node311</title>
<g id="a_node33"><a xlink:href="classprecice_1_1mesh_1_1Mesh.html#a02f0fe049261bbe1e82e0a00746b9313" target="_top" xlink:title="precice::mesh::Mesh\l::setGlobalNumberOfVertices">
<polygon fill="#ffffff" stroke="#000000" points="363,-950 363,-980 508,-980 508,-950 363,-950"/>
<text text-anchor="start" x="371" y="-968" font-family="Helvetica,sans-Serif" font-size="10.00" fill="#000000">precice::mesh::Mesh</text>
<text text-anchor="middle" x="435.5" y="-957" font-family="Helvetica,sans-Serif" font-size="10.00" fill="#000000">::setGlobalNumberOfVertices</text>
</a>
</g>
</g>
<!-- Node282&#45;&gt;Node311 -->
<g id="edge40" class="edge">
<title>Node282&#45;&gt;Node311</title>
<path fill="none" stroke="#191970" d="M258.2058,-603.1501C269.3636,-664.0742 313.5498,-890.345 363,-941 363.9377,-941.9606 364.9147,-942.8827 365.9264,-943.768"/>
<polygon fill="#191970" stroke="#191970" points="364.1416,-946.7981 374.2851,-949.8575 368.2635,-941.1403 364.1416,-946.7981"/>
</g>
<!-- Node312 -->
<g id="node34" class="node">
<title>Node312</title>
<g id="a_node34"><a xlink:href="classprecice_1_1mesh_1_1Mesh.html#ab453e0fcd860442aa942ddced2cee24f" target="_top" xlink:title="precice::mesh::Mesh\l::getOwnedVertexData">
<polygon fill="#ffffff" stroke="#000000" points="377.5,-480 377.5,-510 493.5,-510 493.5,-480 377.5,-480"/>
<text text-anchor="start" x="385.5" y="-498" font-family="Helvetica,sans-Serif" font-size="10.00" fill="#000000">precice::mesh::Mesh</text>
<text text-anchor="middle" x="435.5" y="-487" font-family="Helvetica,sans-Serif" font-size="10.00" fill="#000000">::getOwnedVertexData</text>
</a>
</g>
</g>
<!-- Node282&#45;&gt;Node312 -->
<g id="edge41" class="edge">
<title>Node282&#45;&gt;Node312</title>
<path fill="none" stroke="#191970" d="M299.3548,-572.9906C308.8637,-568.825 318.5842,-563.8176 327,-558 346.1371,-544.771 343.4418,-532.5981 363,-520 366.1515,-517.97 369.4869,-516.0841 372.9274,-514.3352"/>
<polygon fill="#191970" stroke="#191970" points="374.6283,-517.4044 382.2265,-510.0207 371.6822,-511.0546 374.6283,-517.4044"/>
</g>
<!-- Node313 -->
<g id="node35" class="node">
<title>Node313</title>
<g id="a_node35"><a xlink:href="classprecice_1_1mesh_1_1Mesh.html#a708f813fb1d2ea852818cdaf55d5b922" target="_top" xlink:title="precice::mesh::Mesh\l::tagAll">
<polygon fill="#ffffff" stroke="#000000" points="381.5,-901 381.5,-931 489.5,-931 489.5,-901 381.5,-901"/>
<text text-anchor="start" x="389.5" y="-919" font-family="Helvetica,sans-Serif" font-size="10.00" fill="#000000">precice::mesh::Mesh</text>
<text text-anchor="middle" x="435.5" y="-908" font-family="Helvetica,sans-Serif" font-size="10.00" fill="#000000">::tagAll</text>
</a>
</g>
</g>
<!-- Node282&#45;&gt;Node313 -->
<g id="edge44" class="edge">
<title>Node282&#45;&gt;Node313</title>
<path fill="none" stroke="#191970" d="M256.3221,-603.0921C259.8049,-652.0542 277.4381,-808.1504 363,-892 365.8482,-894.7912 369.028,-897.2579 372.4221,-899.4377"/>
<polygon fill="#191970" stroke="#191970" points="370.785,-902.5317 381.2335,-904.2867 374.16,-896.399 370.785,-902.5317"/>
</g>
<!-- Node283&#45;&gt;Node281 -->
<g id="edge6" class="edge">
<title>Node283&#45;&gt;Node281</title>
<path fill="none" stroke="#191970" d="M637.8085,-1040.7953C669.6027,-1019.1255 728.0565,-979.2855 763.882,-954.8681"/>
<polygon fill="#191970" stroke="#191970" points="766.1805,-957.5372 772.4726,-949.0131 762.2382,-951.7529 766.1805,-957.5372"/>
</g>
<!-- Node284&#45;&gt;Node283 -->
<g id="edge11" class="edge">
<title>Node284&#45;&gt;Node283</title>
<path fill="none" stroke="#191970" d="M489.5568,-879.7309C496.297,-882.9469 502.6784,-886.9697 508,-892 538.709,-921.0282 521.1394,-944.4603 544,-980 556.9357,-1000.1102 575.5397,-1019.6867 590.528,-1033.9337"/>
<polygon fill="#191970" stroke="#191970" points="588.2815,-1036.6242 597.9872,-1040.8728 593.0494,-1031.499 588.2815,-1036.6242"/>
</g>
<!-- Node285 -->
<g id="node7" class="node">
<title>Node285</title>
<g id="a_node7"><a xlink:href="classprecice_1_1mesh_1_1Vertex.html#aeccde29fd990bdba5a5792372c341ef4" target="_top" xlink:title="Returns the unique (among vertices of one mesh on one processor) ID of the vertex. ">
<polygon fill="#ffffff" stroke="#000000" points="559,-940 559,-970 672,-970 672,-940 559,-940"/>
<text text-anchor="start" x="567" y="-958" font-family="Helvetica,sans-Serif" font-size="10.00" fill="#000000">precice::mesh::Vertex</text>
<text text-anchor="middle" x="615.5" y="-947" font-family="Helvetica,sans-Serif" font-size="10.00" fill="#000000">::getID</text>
</a>
</g>
</g>
<!-- Node284&#45;&gt;Node285 -->
<g id="edge8" class="edge">
<title>Node284&#45;&gt;Node285</title>
<path fill="none" stroke="#191970" d="M489.1997,-882.1107C495.7713,-884.9334 502.204,-888.2133 508,-892 527.7479,-904.9021 524.1993,-918.1791 544,-931 546.5554,-932.6546 549.2364,-934.2066 551.9991,-935.6611"/>
<polygon fill="#191970" stroke="#191970" points="550.5144,-938.8306 561.0467,-939.9801 553.53,-932.5135 550.5144,-938.8306"/>
</g>
<!-- Node286 -->
<g id="node8" class="node">
<title>Node286</title>
<g id="a_node8"><a xlink:href="classprecice_1_1mesh_1_1Mesh.html#aec6f303d7791f8a64e2b78180531c89e" target="_top" xlink:title="Returns modifiable container holding all edges. ">
<polygon fill="#ffffff" stroke="#000000" points="561.5,-842 561.5,-872 669.5,-872 669.5,-842 561.5,-842"/>
<text text-anchor="start" x="569.5" y="-860" font-family="Helvetica,sans-Serif" font-size="10.00" fill="#000000">precice::mesh::Mesh</text>
<text text-anchor="middle" x="615.5" y="-849" font-family="Helvetica,sans-Serif" font-size="10.00" fill="#000000">::edges</text>
</a>
</g>
</g>
<!-- Node284&#45;&gt;Node286 -->
<g id="edge9" class="edge">
<title>Node284&#45;&gt;Node286</title>
<path fill="none" stroke="#191970" d="M489.5059,-863.9997C508.9067,-862.9218 530.9792,-861.6956 551.1704,-860.5739"/>
<polygon fill="#191970" stroke="#191970" points="551.4309,-864.0649 561.2213,-860.0155 551.0426,-857.0757 551.4309,-864.0649"/>
</g>
<!-- Node287 -->
<g id="node9" class="node">
<title>Node287</title>
<g id="a_node9"><a xlink:href="classprecice_1_1mesh_1_1Edge.html#a7fc88e0289fecf4c41c230d20311dcdb" target="_top" xlink:title="Returns the edge&#39;s vertex with index 0 or 1. ">
<polygon fill="#ffffff" stroke="#000000" points="562,-891 562,-921 669,-921 669,-891 562,-891"/>
<text text-anchor="start" x="570" y="-909" font-family="Helvetica,sans-Serif" font-size="10.00" fill="#000000">precice::mesh::Edge</text>
<text text-anchor="middle" x="615.5" y="-898" font-family="Helvetica,sans-Serif" font-size="10.00" fill="#000000">::vertex</text>
</a>
</g>
</g>
<!-- Node284&#45;&gt;Node287 -->
<g id="edge10" class="edge">
<title>Node284&#45;&gt;Node287</title>
<path fill="none" stroke="#191970" d="M489.5059,-878.7013C509.1733,-882.9625 531.5862,-887.8187 552.0017,-892.242"/>
<polygon fill="#191970" stroke="#191970" points="551.3282,-895.6772 561.8426,-894.3742 552.8105,-888.836 551.3282,-895.6772"/>
</g>
<!-- Node288&#45;&gt;Node281 -->
<g id="edge14" class="edge">
<title>Node288&#45;&gt;Node281</title>
<path fill="none" stroke="#191970" d="M489.7705,-782.0798C561.0477,-799.3652 678.2478,-828.1992 687,-833 723.1938,-852.8532 756.4313,-887.752 776.0839,-910.8757"/>
<polygon fill="#191970" stroke="#191970" points="773.6026,-913.3656 782.6901,-918.8126 778.9828,-908.8875 773.6026,-913.3656"/>
</g>
<!-- Node289 -->
<g id="node11" class="node">
<title>Node289</title>
<g id="a_node11"><a xlink:href="classprecice_1_1mesh_1_1Edge.html#af27f4bd02d0b67cc5c3d04e2cf1ddee7" target="_top" xlink:title="Checks whether both edges share a vertex. ">
<polygon fill="#ffffff" stroke="#000000" points="562,-754 562,-784 669,-784 669,-754 562,-754"/>
<text text-anchor="start" x="570" y="-772" font-family="Helvetica,sans-Serif" font-size="10.00" fill="#000000">precice::mesh::Edge</text>
<text text-anchor="middle" x="615.5" y="-761" font-family="Helvetica,sans-Serif" font-size="10.00" fill="#000000">::connectedTo</text>
</a>
</g>
</g>
<!-- Node288&#45;&gt;Node289 -->
<g id="edge13" class="edge">
<title>Node288&#45;&gt;Node289</title>
<path fill="none" stroke="#191970" d="M489.5059,-769C509.0839,-769 531.3825,-769 551.7232,-769"/>
<polygon fill="#191970" stroke="#191970" points="551.8426,-772.5001 561.8426,-769 551.8425,-765.5001 551.8426,-772.5001"/>
</g>
<!-- Node290&#45;&gt;Node291 -->
<g id="edge16" class="edge">
<title>Node290&#45;&gt;Node291</title>
<path fill="none" stroke="#191970" d="M489.5059,-618.7985C508.9953,-614.0345 531.1808,-608.6114 551.4469,-603.6574"/>
<polygon fill="#191970" stroke="#191970" points="552.3385,-607.0426 561.2213,-601.2681 550.6762,-600.2428 552.3385,-607.0426"/>
</g>
<!-- Node292 -->
<g id="node14" class="node">
<title>Node292</title>
<g id="a_node14"><a xlink:href="classprecice_1_1mesh_1_1Data.html#a571e94df898349b76b6c4ce8db34ccd1" target="_top" xlink:title="Returns the number of created (and still existing) Data objects. ">
<polygon fill="#ffffff" stroke="#000000" points="563,-622 563,-652 668,-652 668,-622 563,-622"/>
<text text-anchor="start" x="571" y="-640" font-family="Helvetica,sans-Serif" font-size="10.00" fill="#000000">precice::mesh::Data</text>
<text text-anchor="middle" x="615.5" y="-629" font-family="Helvetica,sans-Serif" font-size="10.00" fill="#000000">::getDataCount</text>
</a>
</g>
</g>
<!-- Node290&#45;&gt;Node292 -->
<g id="edge17" class="edge">
<title>Node290&#45;&gt;Node292</title>
<path fill="none" stroke="#191970" d="M489.5059,-633.5002C509.3496,-634.0514 531.9884,-634.6802 552.5504,-635.2514"/>
<polygon fill="#191970" stroke="#191970" points="552.6776,-638.7562 562.7709,-635.5353 552.872,-631.7589 552.6776,-638.7562"/>
</g>
<!-- Node298 -->
<g id="node20" class="node">
<title>Node298</title>
<g id="a_node20"><a xlink:href="classprecice_1_1mesh_1_1Mesh.html#a13faa9b03e5d20918ed6528db1415fa3" target="_top" xlink:title="Returns modifieable container holding all vertices. ">
<polygon fill="#ffffff" stroke="#000000" points="561.5,-453 561.5,-483 669.5,-483 669.5,-453 561.5,-453"/>
<text text-anchor="start" x="569.5" y="-471" font-family="Helvetica,sans-Serif" font-size="10.00" fill="#000000">precice::mesh::Mesh</text>
<text text-anchor="middle" x="615.5" y="-460" font-family="Helvetica,sans-Serif" font-size="10.00" fill="#000000">::vertices</text>
</a>
</g>
</g>
<!-- Node297&#45;&gt;Node298 -->
<g id="edge24" class="edge">
<title>Node297&#45;&gt;Node298</title>
<path fill="none" stroke="#191970" d="M489.5059,-452.6007C508.9067,-454.9719 530.9792,-457.6697 551.1704,-460.1375"/>
<polygon fill="#191970" stroke="#191970" points="550.8706,-463.6268 561.2213,-461.3659 551.7199,-456.6785 550.8706,-463.6268"/>
</g>
<!-- Node299&#45;&gt;Node286 -->
<g id="edge26" class="edge">
<title>Node299&#45;&gt;Node286</title>
<path fill="none" stroke="#191970" d="M489.5059,-829.7013C508.9953,-833.924 531.1808,-838.7308 551.4469,-843.1218"/>
<polygon fill="#191970" stroke="#191970" points="550.7069,-846.5426 561.2213,-845.2396 552.1893,-839.7014 550.7069,-846.5426"/>
</g>
<!-- Node300&#45;&gt;Node291 -->
<g id="edge28" class="edge">
<title>Node300&#45;&gt;Node291</title>
<path fill="none" stroke="#191970" d="M489.7957,-666.8484C496.1992,-664.0885 502.4283,-660.8313 508,-657 528.8198,-642.6837 523.3003,-627.4894 544,-613 546.833,-611.017 549.8384,-609.1775 552.9509,-607.4731"/>
<polygon fill="#191970" stroke="#191970" points="554.5409,-610.5915 561.9521,-603.0202 551.4369,-604.3173 554.5409,-610.5915"/>
</g>
<!-- Node301 -->
<g id="node23" class="node">
<title>Node301</title>
<g id="a_node23"><a xlink:href="namespaceprecice_1_1utils.html#a70a03ea1367189736d49351c6385c8c9" target="_top" xlink:title="precice::utils::append">
<polygon fill="#ffffff" stroke="#000000" points="560.5,-671.5 560.5,-690.5 670.5,-690.5 670.5,-671.5 560.5,-671.5"/>
<text text-anchor="middle" x="615.5" y="-678.5" font-family="Helvetica,sans-Serif" font-size="10.00" fill="#000000">precice::utils::append</text>
</a>
</g>
</g>
<!-- Node300&#45;&gt;Node301 -->
<g id="edge29" class="edge">
<title>Node300&#45;&gt;Node301</title>
<path fill="none" stroke="#191970" d="M489.5059,-681C508.5536,-681 530.1765,-681 550.066,-681"/>
<polygon fill="#191970" stroke="#191970" points="550.2862,-684.5001 560.2861,-681 550.2861,-677.5001 550.2862,-684.5001"/>
</g>
<!-- Node304 -->
<g id="node26" class="node">
<title>Node304</title>
<g id="a_node26"><a xlink:href="classprecice_1_1mesh_1_1BoundingBox.html#a7aeb328ca8291253c4fd22d0d4cb0a18" target="_top" xlink:title="Expand bounding box using another bounding box. ">
<polygon fill="#ffffff" stroke="#000000" points="544.5,-186 544.5,-216 686.5,-216 686.5,-186 544.5,-186"/>
<text text-anchor="start" x="552.5" y="-204" font-family="Helvetica,sans-Serif" font-size="10.00" fill="#000000">precice::mesh::BoundingBox</text>
<text text-anchor="middle" x="615.5" y="-193" font-family="Helvetica,sans-Serif" font-size="10.00" fill="#000000">::expandBy</text>
</a>
</g>
</g>
<!-- Node303&#45;&gt;Node304 -->
<g id="edge32" class="edge">
<title>Node303&#45;&gt;Node304</title>
<path fill="none" stroke="#191970" d="M494.9376,-201C507.5043,-201 520.9731,-201 534.1895,-201"/>
<polygon fill="#191970" stroke="#191970" points="534.228,-204.5001 544.228,-201 534.2279,-197.5001 534.228,-204.5001"/>
</g>
<!-- Node305&#45;&gt;Node291 -->
<g id="edge35" class="edge">
<title>Node305&#45;&gt;Node291</title>
<path fill="none" stroke="#191970" d="M489.5059,-557.2015C508.9953,-561.9655 531.1808,-567.3886 551.4469,-572.3426"/>
<polygon fill="#191970" stroke="#191970" points="550.6762,-575.7572 561.2213,-574.7319 552.3385,-568.9574 550.6762,-575.7572"/>
</g>
<!-- Node306 -->
<g id="node28" class="node">
<title>Node306</title>
<g id="a_node28"><a xlink:href="classprecice_1_1utils_1_1ManageUniqueIDs.html#af8eca33b69c8ee473d27f639bd29c25c" target="_top" xlink:title="Resets all retrieved and inserted IDs. ">
<polygon fill="#ffffff" stroke="#000000" points="544,-524 544,-554 687,-554 687,-524 544,-524"/>
<text text-anchor="start" x="552" y="-542" font-family="Helvetica,sans-Serif" font-size="10.00" fill="#000000">precice::utils::ManageUnique</text>
<text text-anchor="middle" x="615.5" y="-531" font-family="Helvetica,sans-Serif" font-size="10.00" fill="#000000">IDs::resetIDs</text>
</a>
</g>
</g>
<!-- Node305&#45;&gt;Node306 -->
<g id="edge34" class="edge">
<title>Node305&#45;&gt;Node306</title>
<path fill="none" stroke="#191970" d="M489.5059,-542.4998C503.3888,-542.1142 518.6396,-541.6906 533.5903,-541.2753"/>
<polygon fill="#191970" stroke="#191970" points="533.9734,-544.7661 543.8724,-540.9897 533.779,-537.7688 533.9734,-544.7661"/>
</g>
<!-- Node312&#45;&gt;Node291 -->
<g id="edge42" class="edge">
<title>Node312&#45;&gt;Node291</title>
<path fill="none" stroke="#191970" d="M490.1732,-510.1186C496.4441,-512.9214 502.5381,-516.1942 508,-520 528.7308,-534.4449 523.2101,-549.6404 544,-564 546.5571,-565.7662 549.2546,-567.4112 552.0445,-568.9422"/>
<polygon fill="#191970" stroke="#191970" points="550.6928,-572.1778 561.2106,-573.4533 553.7839,-565.8973 550.6928,-572.1778"/>
</g>
<!-- Node312&#45;&gt;Node298 -->
<g id="edge43" class="edge">
<title>Node312&#45;&gt;Node298</title>
<path fill="none" stroke="#191970" d="M493.9408,-486.2339C512.3011,-483.4798 532.6676,-480.4249 551.3983,-477.6153"/>
<polygon fill="#191970" stroke="#191970" points="551.9476,-481.0721 561.3177,-476.1273 550.9091,-474.1496 551.9476,-481.0721"/>
</g>
<!-- Node317 -->
<g id="node39" class="node">
<title>Node317</title>
<g id="a_node39"><a xlink:href="namespaceprecice_1_1math.html#a0e86802cfe992deba131d789d035b5b7" target="_top" xlink:title="Compares two Eigen::MatrixBase for equality up to tolerance. ">
<polygon fill="#ffffff" stroke="#000000" points="380.5,-.5 380.5,-19.5 490.5,-19.5 490.5,-.5 380.5,-.5"/>
<text text-anchor="middle" x="435.5" y="-7.5" font-family="Helvetica,sans-Serif" font-size="10.00" fill="#000000">precice::math::equals</text>
</a>
</g>
</g>
<!-- Node316&#45;&gt;Node317 -->
<g id="edge50" class="edge">
<title>Node316&#45;&gt;Node317</title>
<path fill="none" stroke="#191970" d="M258.25,-204.1497C267.4259,-173.1646 300.0287,-76.9063 363,-29 365.508,-27.092 368.1904,-25.3749 370.9917,-23.8298"/>
<polygon fill="#191970" stroke="#191970" points="372.72,-26.8846 380.275,-19.4567 369.7369,-20.552 372.72,-26.8846"/>
</g>
</g>
</svg>
        <g id="navigator" transform="translate(0 0)" fill="#404254">
                <rect fill="#f2f5e9" fill-opacity="0.5" stroke="#606060" stroke-width=".5" x="0" y="0" width="60" height="60"/>
                <use id="zoomplus" xlink:href="#zoomPlus" x="17" y="9" onmousedown="handleZoom(evt,'in')"/>
                <use id="zoomminus" xlink:href="#zoomMin" x="42" y="9" onmousedown="handleZoom(evt,'out')"/>
                <use id="reset" xlink:href="#resetDef" x="30" y="36" onmousedown="handleReset()"/>
                <g id="arrowUp" xlink:href="#dirArrow" transform="translate(30 24)" onmousedown="handlePan(0,-1)">
                  <use xlink:href="#rim" fill="#404040">
                        <set attributeName="fill" to="#808080" begin="arrowUp.mouseover" end="arrowUp.mouseout"/>
                  </use>
                  <path fill="none" stroke="white" stroke-width="1.5" d="M0,-3.0v7 M-2.5,-0.5L0,-3.0L2.5,-0.5"/>
                </g>
                <g id="arrowRight" xlink:href="#dirArrow" transform="rotate(90) translate(36 -43)" onmousedown="handlePan(1,0)">
                  <use xlink:href="#rim" fill="#404040">
                        <set attributeName="fill" to="#808080" begin="arrowRight.mouseover" end="arrowRight.mouseout"/>
                  </use>
                  <path fill="none" stroke="white" stroke-width="1.5" d="M0,-3.0v7 M-2.5,-0.5L0,-3.0L2.5,-0.5"/>
                </g>
                <g id="arrowDown" xlink:href="#dirArrow" transform="rotate(180) translate(-30 -48)" onmousedown="handlePan(0,1)">
                  <use xlink:href="#rim" fill="#404040">
                        <set attributeName="fill" to="#808080" begin="arrowDown.mouseover" end="arrowDown.mouseout"/>
                  </use>
                  <path fill="none" stroke="white" stroke-width="1.5" d="M0,-3.0v7 M-2.5,-0.5L0,-3.0L2.5,-0.5"/>
                </g>
                <g id="arrowLeft" xlink:href="#dirArrow" transform="rotate(270) translate(-36 17)" onmousedown="handlePan(-1,0)">
                  <use xlink:href="#rim" fill="#404040">
                        <set attributeName="fill" to="#808080" begin="arrowLeft.mouseover" end="arrowLeft.mouseout"/>
                  </use>
                  <path fill="none" stroke="white" stroke-width="1.5" d="M0,-3.0v7 M-2.5,-0.5L0,-3.0L2.5,-0.5"/>
                </g>
        </g>
        <svg viewBox="0 0 15 15" width="100%" height="30px" preserveAspectRatio="xMaxYMin meet">
         <g id="arrow_out" transform="scale(0.3 0.3)">
          <a xlink:href="FindClosestTest_8cpp_ab5530558c31eb995f352a1ae3ba8010c_cgraph_org.svg" target="_base">
           <rect id="button" ry="5" rx="5" y="6" x="6" height="38" width="38"
                fill="#f2f5e9" fill-opacity="0.5" stroke="#606060" stroke-width="1.0"/>
           <path id="arrow"
             d="M 11.500037,31.436501 C 11.940474,20.09759 22.043105,11.32322 32.158766,21.979434 L 37.068811,17.246167 C 37.068811,17.246167 37.088388,32 37.088388,32 L 22.160133,31.978069 C 22.160133,31.978069 26.997745,27.140456 26.997745,27.140456 C 18.528582,18.264221 13.291696,25.230495 11.500037,31.436501 z"
             style="fill:#404040;"/>
          </a>
         </g>
        </svg>
</svg>
