<?xml version="1.0" encoding="UTF-8" standalone="no"?>
<!DOCTYPE svg PUBLIC "-//W3C//DTD SVG 1.1//EN"
 "http://www.w3.org/Graphics/SVG/1.1/DTD/svg11.dtd">
<!-- Generated by graphviz version 2.40.1 (20161225.0304)
 -->
<!-- Title: BOOST_AUTO_TEST_CASE Pages: 1 -->
<svg width="874pt" height="1212pt"
 viewBox="0.00 0.00 874.00 1211.90" xmlns="http://www.w3.org/2000/svg" xmlns:xlink="http://www.w3.org/1999/xlink">
<g id="graph0" class="graph" transform="scale(1 1) rotate(0) translate(4 1207.9009)">
<title>BOOST_AUTO_TEST_CASE</title>
<polygon fill="#ffffff" stroke="transparent" points="-4,4 -4,-1207.9009 870,-1207.9009 870,4 -4,4"/>
<!-- Node202 -->
<g id="node1" class="node">
<title>Node202</title>
<polygon fill="#bfbfbf" stroke="#000000" points="0,-597.5 0,-616.5 148,-616.5 148,-597.5 0,-597.5"/>
<text text-anchor="middle" x="74" y="-604.5" font-family="Helvetica,sans-Serif" font-size="10.00" fill="#000000">BOOST_AUTO_TEST_CASE</text>
</g>
<!-- Node203 -->
<g id="node2" class="node">
<title>Node203</title>
<g id="a_node2"><a xlink:href="namespaceprecice_1_1testing.html#a08533fd83bad3d7f27ea7f4a35a14aa4" target="_top" xlink:title="precice::testing::nextMeshID">
<polygon fill="#ffffff" stroke="#000000" points="184,-1169.5 184,-1188.5 327,-1188.5 327,-1169.5 184,-1169.5"/>
<text text-anchor="middle" x="255.5" y="-1176.5" font-family="Helvetica,sans-Serif" font-size="10.00" fill="#000000">precice::testing::nextMeshID</text>
</a>
</g>
</g>
<!-- Node202&#45;&gt;Node203 -->
<g id="edge1" class="edge">
<title>Node202&#45;&gt;Node203</title>
<path fill="none" stroke="#191970" d="M74.7233,-616.8717C79.7693,-683.2796 111.6549,-1064.8523 184,-1151 188.8331,-1156.7552 195.0049,-1161.3335 201.6915,-1164.9741"/>
<polygon fill="#191970" stroke="#191970" points="200.5128,-1168.2876 211.0512,-1169.3799 203.4941,-1161.9542 200.5128,-1168.2876"/>
</g>
<!-- Node205 -->
<g id="node4" class="node">
<title>Node205</title>
<g id="a_node4"><a xlink:href="classprecice_1_1mesh_1_1Mesh.html#ae99d0d5d776e7c676acb72830df4aa45" target="_top" xlink:title="precice::mesh::Mesh\l::createVertex">
<polygon fill="#ffffff" stroke="#000000" points="201.5,-592 201.5,-622 309.5,-622 309.5,-592 201.5,-592"/>
<text text-anchor="start" x="209.5" y="-610" font-family="Helvetica,sans-Serif" font-size="10.00" fill="#000000">precice::mesh::Mesh</text>
<text text-anchor="middle" x="255.5" y="-599" font-family="Helvetica,sans-Serif" font-size="10.00" fill="#000000">::createVertex</text>
</a>
</g>
</g>
<!-- Node202&#45;&gt;Node205 -->
<g id="edge3" class="edge">
<title>Node202&#45;&gt;Node205</title>
<path fill="none" stroke="#191970" d="M148.0848,-607C162.4402,-607 177.3719,-607 191.3755,-607"/>
<polygon fill="#191970" stroke="#191970" points="191.3868,-610.5001 201.3868,-607 191.3867,-603.5001 191.3868,-610.5001"/>
</g>
<!-- Node206 -->
<g id="node5" class="node">
<title>Node206</title>
<g id="a_node5"><a xlink:href="classprecice_1_1mesh_1_1Mesh.html#ae05c5234aa9adc6f47a814622039c28e" target="_top" xlink:title="Creates and initializes an Edge object. ">
<polygon fill="#ffffff" stroke="#000000" points="561.5,-753 561.5,-783 669.5,-783 669.5,-753 561.5,-753"/>
<text text-anchor="start" x="569.5" y="-771" font-family="Helvetica,sans-Serif" font-size="10.00" fill="#000000">precice::mesh::Mesh</text>
<text text-anchor="middle" x="615.5" y="-760" font-family="Helvetica,sans-Serif" font-size="10.00" fill="#000000">::createEdge</text>
</a>
</g>
</g>
<!-- Node202&#45;&gt;Node206 -->
<g id="edge45" class="edge">
<title>Node202&#45;&gt;Node206</title>
<path fill="none" stroke="#191970" d="M76.2945,-616.8541C90.3127,-674.5061 170.2768,-969.2622 363,-1077 419.2514,-1108.4462 458.4856,-1118.2482 508,-1077 576.0494,-1020.3111 511.7331,-963.4815 544,-881 557.1412,-847.408 580.6691,-812.9666 597.1348,-791.0811"/>
<polygon fill="#191970" stroke="#191970" points="599.9758,-793.1279 603.2778,-783.0607 594.4185,-788.8714 599.9758,-793.1279"/>
</g>
<!-- Node211 -->
<g id="node10" class="node">
<title>Node211</title>
<g id="a_node10"><a xlink:href="classprecice_1_1mesh_1_1Mesh.html#a00c3db2576c63d8c6f351175ddc0a4d0" target="_top" xlink:title="Creates and initializes a Triangle object. ">
<polygon fill="#ffffff" stroke="#000000" points="381.5,-1125 381.5,-1155 489.5,-1155 489.5,-1125 381.5,-1125"/>
<text text-anchor="start" x="389.5" y="-1143" font-family="Helvetica,sans-Serif" font-size="10.00" fill="#000000">precice::mesh::Mesh</text>
<text text-anchor="middle" x="435.5" y="-1132" font-family="Helvetica,sans-Serif" font-size="10.00" fill="#000000">::createTriangle</text>
</a>
</g>
</g>
<!-- Node202&#45;&gt;Node211 -->
<g id="edge46" class="edge">
<title>Node202&#45;&gt;Node211</title>
<path fill="none" stroke="#191970" d="M74.637,-616.7559C79.0227,-680.745 106.8936,-1040.0025 184,-1110 234.0366,-1155.4235 314.636,-1157.1207 371.0696,-1151.2216"/>
<polygon fill="#191970" stroke="#191970" points="371.7796,-1154.663 381.3129,-1150.0405 370.9778,-1147.709 371.7796,-1154.663"/>
</g>
<!-- Node225 -->
<g id="node24" class="node">
<title>Node225</title>
<g id="a_node24"><a xlink:href="classprecice_1_1mesh_1_1Mesh.html#a02278d8459bfbf8c9dd137070e670e9a" target="_top" xlink:title="Necessary before any geom. operations can be performed on the mesh. ">
<polygon fill="#ffffff" stroke="#000000" points="381.5,-39 381.5,-69 489.5,-69 489.5,-39 381.5,-39"/>
<text text-anchor="start" x="389.5" y="-57" font-family="Helvetica,sans-Serif" font-size="10.00" fill="#000000">precice::mesh::Mesh</text>
<text text-anchor="middle" x="435.5" y="-46" font-family="Helvetica,sans-Serif" font-size="10.00" fill="#000000">::computeState</text>
</a>
</g>
</g>
<!-- Node202&#45;&gt;Node225 -->
<g id="edge47" class="edge">
<title>Node202&#45;&gt;Node225</title>
<path fill="none" stroke="#191970" d="M117.7424,-597.4977C188.3203,-581.9711 320.1682,-552.0794 327,-544 394.0638,-464.6892 298.9826,-159.7895 363,-78 365.7121,-74.535 368.9394,-71.5651 372.5029,-69.02"/>
<polygon fill="#191970" stroke="#191970" points="374.4984,-71.9069 381.3432,-63.8198 370.9493,-65.8733 374.4984,-71.9069"/>
</g>
<!-- Node237 -->
<g id="node36" class="node">
<title>Node237</title>
<g id="a_node36"><a xlink:href="RTreeTests_8cpp.html#a9849f5c774ff22e557184d988b1cf9ea" target="_top" xlink:title="BOOST_TEST">
<polygon fill="#ffffff" stroke="#000000" points="214.5,-515.5 214.5,-534.5 296.5,-534.5 296.5,-515.5 214.5,-515.5"/>
<text text-anchor="middle" x="255.5" y="-522.5" font-family="Helvetica,sans-Serif" font-size="10.00" fill="#000000">BOOST_TEST</text>
</a>
</g>
</g>
<!-- Node202&#45;&gt;Node237 -->
<g id="edge48" class="edge">
<title>Node202&#45;&gt;Node237</title>
<path fill="none" stroke="#191970" d="M90.3634,-597.2988C111.5012,-585.0198 149.6652,-563.7005 184,-549 193.4791,-544.9415 203.8923,-541.1089 213.7678,-537.7472"/>
<polygon fill="#191970" stroke="#191970" points="215.0186,-541.0199 223.4097,-534.5515 212.8163,-534.3753 215.0186,-541.0199"/>
</g>
<!-- Node238 -->
<g id="node37" class="node">
<title>Node238</title>
<g id="a_node37"><a xlink:href="namespaceprecice_1_1testing.html#a6a116337529290bbb1bf2545b5fb315a" target="_top" xlink:title="equals to be used in tests. Prints both operatorans on failure ">
<polygon fill="#ffffff" stroke="#000000" points="196.5,-251.5 196.5,-270.5 314.5,-270.5 314.5,-251.5 196.5,-251.5"/>
<text text-anchor="middle" x="255.5" y="-258.5" font-family="Helvetica,sans-Serif" font-size="10.00" fill="#000000">precice::testing::equals</text>
</a>
</g>
</g>
<!-- Node202&#45;&gt;Node238 -->
<g id="edge49" class="edge">
<title>Node202&#45;&gt;Node238</title>
<path fill="none" stroke="#191970" d="M79.0438,-597.3849C103.7711,-550.2463 212.3416,-343.2745 245.7093,-279.6644"/>
<polygon fill="#191970" stroke="#191970" points="248.8486,-281.2141 250.3946,-270.7327 242.6497,-277.9624 248.8486,-281.2141"/>
</g>
<!-- Node204 -->
<g id="node3" class="node">
<title>Node204</title>
<g id="a_node3"><a xlink:href="classprecice_1_1utils_1_1ManageUniqueIDs.html#a02be264c279698ae293587b6576088b5" target="_top" xlink:title="precice::utils::ManageUnique\lIDs::getFreeID">
<polygon fill="#ffffff" stroke="#000000" points="723,-961 723,-991 866,-991 866,-961 723,-961"/>
<text text-anchor="start" x="731" y="-979" font-family="Helvetica,sans-Serif" font-size="10.00" fill="#000000">precice::utils::ManageUnique</text>
<text text-anchor="middle" x="794.5" y="-968" font-family="Helvetica,sans-Serif" font-size="10.00" fill="#000000">IDs::getFreeID</text>
</a>
</g>
</g>
<!-- Node203&#45;&gt;Node204 -->
<g id="edge2" class="edge">
<title>Node203&#45;&gt;Node204</title>
<path fill="none" stroke="#191970" d="M299.5619,-1188.5479C382.3785,-1203.9616 563.979,-1225.508 687,-1150 742.9773,-1115.6421 774.1849,-1040.0947 787.1932,-1000.8171"/>
<polygon fill="#191970" stroke="#191970" points="790.5526,-1001.802 790.2492,-991.2115 783.8821,-999.6797 790.5526,-1001.802"/>
</g>
<!-- Node205&#45;&gt;Node204 -->
<g id="edge4" class="edge">
<title>Node205&#45;&gt;Node204</title>
<path fill="none" stroke="#191970" d="M260.5832,-622.196C272.7064,-656.103 306.5867,-738.376 363,-782 422.5565,-828.0546 621.2999,-844.2374 687,-881 721.4572,-900.2806 754.463,-932.1129 774.6012,-953.5574"/>
<polygon fill="#191970" stroke="#191970" points="772.064,-955.9689 781.4172,-960.9456 777.2089,-951.2223 772.064,-955.9689"/>
</g>
<!-- Node205&#45;&gt;Node206 -->
<g id="edge5" class="edge">
<title>Node205&#45;&gt;Node206</title>
<path fill="none" stroke="#191970" d="M261.2351,-622.2066C273.9929,-653.6078 308.0079,-725.17 363,-755 420.9058,-786.4105 497.6969,-785.4606 551.3296,-779.2971"/>
<polygon fill="#191970" stroke="#191970" points="551.9066,-782.7525 561.3995,-778.0477 551.0446,-775.8057 551.9066,-782.7525"/>
</g>
<!-- Node207 -->
<g id="node6" class="node">
<title>Node207</title>
<g id="a_node6"><a xlink:href="classprecice_1_1mesh_1_1Mesh.html#aaeeb91bf6152969a12f3901841e1db0c" target="_top" xlink:title="Creates and initializes an Edge object or returns an already existing one. ">
<polygon fill="#ffffff" stroke="#000000" points="381.5,-519 381.5,-549 489.5,-549 489.5,-519 381.5,-519"/>
<text text-anchor="start" x="389.5" y="-537" font-family="Helvetica,sans-Serif" font-size="10.00" fill="#000000">precice::mesh::Mesh</text>
<text text-anchor="middle" x="435.5" y="-526" font-family="Helvetica,sans-Serif" font-size="10.00" fill="#000000">::createUniqueEdge</text>
</a>
</g>
</g>
<!-- Node205&#45;&gt;Node207 -->
<g id="edge7" class="edge">
<title>Node205&#45;&gt;Node207</title>
<path fill="none" stroke="#191970" d="M292.8138,-591.8938C303.884,-587.2644 315.9898,-582.0556 327,-577 343.2566,-569.5353 346.5086,-565.9307 363,-559 368.1398,-556.8399 373.538,-554.7176 378.9725,-552.6784"/>
<polygon fill="#191970" stroke="#191970" points="380.5543,-555.8269 388.7459,-549.1077 378.152,-549.252 380.5543,-555.8269"/>
</g>
<!-- Node205&#45;&gt;Node211 -->
<g id="edge12" class="edge">
<title>Node205&#45;&gt;Node211</title>
<path fill="none" stroke="#191970" d="M257.717,-622.4539C268.2309,-694.3766 314.575,-996.2378 363,-1077 372.8921,-1093.4978 388.5909,-1107.9199 402.8544,-1118.7869"/>
<polygon fill="#191970" stroke="#191970" points="400.8931,-1121.6886 411.032,-1124.7632 405.0234,-1116.037 400.8931,-1121.6886"/>
</g>
<!-- Node213 -->
<g id="node12" class="node">
<title>Node213</title>
<g id="a_node12"><a xlink:href="classprecice_1_1mesh_1_1Mesh.html#a6e387c9e2c5ccd43dcf81d57795ba935" target="_top" xlink:title="precice::mesh::Mesh\l::createData">
<polygon fill="#ffffff" stroke="#000000" points="381.5,-323 381.5,-353 489.5,-353 489.5,-323 381.5,-323"/>
<text text-anchor="start" x="389.5" y="-341" font-family="Helvetica,sans-Serif" font-size="10.00" fill="#000000">precice::mesh::Mesh</text>
<text text-anchor="middle" x="435.5" y="-330" font-family="Helvetica,sans-Serif" font-size="10.00" fill="#000000">::createData</text>
</a>
</g>
</g>
<!-- Node205&#45;&gt;Node213 -->
<g id="edge15" class="edge">
<title>Node205&#45;&gt;Node213</title>
<path fill="none" stroke="#191970" d="M308.9546,-591.9073C315.8326,-588.0087 322.1533,-583.1212 327,-577 387.143,-501.0416 299.9561,-435.5686 363,-362 365.8147,-358.7154 369.0894,-355.8783 372.6613,-353.4278"/>
<polygon fill="#191970" stroke="#191970" points="374.5244,-356.3941 381.4581,-348.3832 371.0421,-350.3217 374.5244,-356.3941"/>
</g>
<!-- Node214 -->
<g id="node13" class="node">
<title>Node214</title>
<g id="a_node13"><a xlink:href="classprecice_1_1mesh_1_1Mesh.html#aceb3eabb4f8e40a44d5d1c2822ba7b56" target="_top" xlink:title="precice::mesh::Mesh\l::data">
<polygon fill="#ffffff" stroke="#000000" points="561.5,-279 561.5,-309 669.5,-309 669.5,-279 561.5,-279"/>
<text text-anchor="start" x="569.5" y="-297" font-family="Helvetica,sans-Serif" font-size="10.00" fill="#000000">precice::mesh::Mesh</text>
<text text-anchor="middle" x="615.5" y="-286" font-family="Helvetica,sans-Serif" font-size="10.00" fill="#000000">::data</text>
</a>
</g>
</g>
<!-- Node205&#45;&gt;Node214 -->
<g id="edge18" class="edge">
<title>Node205&#45;&gt;Node214</title>
<path fill="none" stroke="#191970" d="M309.4765,-591.8346C316.193,-587.9512 322.3287,-583.0873 327,-577 399.0917,-483.0537 276.7739,-394.1675 363,-313 389.2064,-288.3311 485.1871,-287.4462 550.9643,-290.0125"/>
<polygon fill="#191970" stroke="#191970" points="551.1065,-293.5216 561.2465,-290.4508 551.4047,-286.528 551.1065,-293.5216"/>
</g>
<!-- Node216 -->
<g id="node15" class="node">
<title>Node216</title>
<g id="a_node15"><a xlink:href="classprecice_1_1mesh_1_1Mesh.html#a3185fe962ba3e8fe0b3cf451681e6a48" target="_top" xlink:title="Returns the name of the mesh, as set in the config file. ">
<polygon fill="#ffffff" stroke="#000000" points="381.5,-88 381.5,-118 489.5,-118 489.5,-88 381.5,-88"/>
<text text-anchor="start" x="389.5" y="-106" font-family="Helvetica,sans-Serif" font-size="10.00" fill="#000000">precice::mesh::Mesh</text>
<text text-anchor="middle" x="435.5" y="-95" font-family="Helvetica,sans-Serif" font-size="10.00" fill="#000000">::getName</text>
</a>
</g>
</g>
<!-- Node205&#45;&gt;Node216 -->
<g id="edge19" class="edge">
<title>Node205&#45;&gt;Node216</title>
<path fill="none" stroke="#191970" d="M309.787,-592.0661C316.4593,-588.1498 322.5001,-583.2151 327,-577 385.8331,-495.7432 301.0596,-205.9138 363,-127 365.7168,-123.5387 368.9477,-120.5715 372.5136,-118.0285"/>
<polygon fill="#191970" stroke="#191970" points="374.5095,-120.9153 381.3581,-112.8315 370.9632,-114.88 374.5095,-120.9153"/>
</g>
<!-- Node217 -->
<g id="node16" class="node">
<title>Node217</title>
<g id="a_node16"><a xlink:href="classprecice_1_1mesh_1_1Mesh.html#a18fcc2df2cfeba56e8f0af79c63a75e8" target="_top" xlink:title="precice::mesh::Mesh\l::isFlipNormals">
<polygon fill="#ffffff" stroke="#000000" points="381.5,-1037 381.5,-1067 489.5,-1067 489.5,-1037 381.5,-1037"/>
<text text-anchor="start" x="389.5" y="-1055" font-family="Helvetica,sans-Serif" font-size="10.00" fill="#000000">precice::mesh::Mesh</text>
<text text-anchor="middle" x="435.5" y="-1044" font-family="Helvetica,sans-Serif" font-size="10.00" fill="#000000">::isFlipNormals</text>
</a>
</g>
</g>
<!-- Node205&#45;&gt;Node217 -->
<g id="edge20" class="edge">
<title>Node205&#45;&gt;Node217</title>
<path fill="none" stroke="#191970" d="M257.418,-622.1936C266.2892,-690.2253 305.3754,-966.2135 363,-1028 365.7694,-1030.9694 368.9138,-1033.5719 372.3037,-1035.8526"/>
<polygon fill="#191970" stroke="#191970" points="370.7387,-1038.9888 381.1625,-1040.8851 374.1964,-1032.9024 370.7387,-1038.9888"/>
</g>
<!-- Node218 -->
<g id="node17" class="node">
<title>Node218</title>
<g id="a_node17"><a xlink:href="classprecice_1_1mesh_1_1Mesh.html#a65ef730ba5ebf191074453fb1b4ebce3" target="_top" xlink:title="precice::mesh::Mesh\l::setFlipNormals">
<polygon fill="#ffffff" stroke="#000000" points="381.5,-988 381.5,-1018 489.5,-1018 489.5,-988 381.5,-988"/>
<text text-anchor="start" x="389.5" y="-1006" font-family="Helvetica,sans-Serif" font-size="10.00" fill="#000000">precice::mesh::Mesh</text>
<text text-anchor="middle" x="435.5" y="-995" font-family="Helvetica,sans-Serif" font-size="10.00" fill="#000000">::setFlipNormals</text>
</a>
</g>
</g>
<!-- Node205&#45;&gt;Node218 -->
<g id="edge21" class="edge">
<title>Node205&#45;&gt;Node218</title>
<path fill="none" stroke="#191970" d="M257.9468,-622.0971C268.4142,-684.9688 311.257,-925.2328 363,-979 365.8156,-981.9257 368.995,-984.4949 372.411,-986.7509"/>
<polygon fill="#191970" stroke="#191970" points="370.8819,-989.906 381.317,-991.7387 374.3024,-983.7986 370.8819,-989.906"/>
</g>
<!-- Node219 -->
<g id="node18" class="node">
<title>Node219</title>
<g id="a_node18"><a xlink:href="classprecice_1_1mesh_1_1Mesh.html#a5e5005a7a807ec5947892eeb6279d12d" target="_top" xlink:title="Returns the base ID of the mesh. ">
<polygon fill="#ffffff" stroke="#000000" points="381.5,-939 381.5,-969 489.5,-969 489.5,-939 381.5,-939"/>
<text text-anchor="start" x="389.5" y="-957" font-family="Helvetica,sans-Serif" font-size="10.00" fill="#000000">precice::mesh::Mesh</text>
<text text-anchor="middle" x="435.5" y="-946" font-family="Helvetica,sans-Serif" font-size="10.00" fill="#000000">::getID</text>
</a>
</g>
</g>
<!-- Node205&#45;&gt;Node219 -->
<g id="edge22" class="edge">
<title>Node205&#45;&gt;Node219</title>
<path fill="none" stroke="#191970" d="M255.9694,-622.2927C258.3732,-673.4192 273.0785,-840.2228 363,-930 365.8221,-932.8176 368.982,-935.3044 372.3611,-937.4993"/>
<polygon fill="#191970" stroke="#191970" points="370.7034,-940.5822 381.1453,-942.3759 374.1011,-934.462 370.7034,-940.5822"/>
</g>
<!-- Node220 -->
<g id="node19" class="node">
<title>Node220</title>
<g id="a_node19"><a xlink:href="classprecice_1_1mesh_1_1Mesh.html#af5ee0ce0045f0f62382eadc5f4f5b105" target="_top" xlink:title="Returns true if the given vertexID is valid. ">
<polygon fill="#ffffff" stroke="#000000" points="381.5,-137 381.5,-167 489.5,-167 489.5,-137 381.5,-137"/>
<text text-anchor="start" x="389.5" y="-155" font-family="Helvetica,sans-Serif" font-size="10.00" fill="#000000">precice::mesh::Mesh</text>
<text text-anchor="middle" x="435.5" y="-144" font-family="Helvetica,sans-Serif" font-size="10.00" fill="#000000">::isValidVertexID</text>
</a>
</g>
</g>
<!-- Node205&#45;&gt;Node220 -->
<g id="edge23" class="edge">
<title>Node205&#45;&gt;Node220</title>
<path fill="none" stroke="#191970" d="M309.7324,-592.0264C316.4125,-588.1157 322.47,-583.1932 327,-577 379.8211,-504.7869 307.4179,-246.11 363,-176 365.7336,-172.5519 368.9768,-169.5945 372.5517,-167.0585"/>
<polygon fill="#191970" stroke="#191970" points="374.5486,-169.9453 381.4111,-161.8733 371.0126,-163.9039 374.5486,-169.9453"/>
</g>
<!-- Node222 -->
<g id="node21" class="node">
<title>Node222</title>
<g id="a_node21"><a xlink:href="classprecice_1_1mesh_1_1Mesh.html#ad9bd3b09bef6dd82132602821a2df178" target="_top" xlink:title="Returns true if the given edgeID is valid. ">
<polygon fill="#ffffff" stroke="#000000" points="381.5,-421 381.5,-451 489.5,-451 489.5,-421 381.5,-421"/>
<text text-anchor="start" x="389.5" y="-439" font-family="Helvetica,sans-Serif" font-size="10.00" fill="#000000">precice::mesh::Mesh</text>
<text text-anchor="middle" x="435.5" y="-428" font-family="Helvetica,sans-Serif" font-size="10.00" fill="#000000">::isValidEdgeID</text>
</a>
</g>
</g>
<!-- Node205&#45;&gt;Node222 -->
<g id="edge25" class="edge">
<title>Node205&#45;&gt;Node222</title>
<path fill="none" stroke="#191970" d="M307.1601,-591.8919C314.5421,-587.975 321.4873,-583.086 327,-577 363.5247,-536.677 324.9388,-498.876 363,-460 365.8406,-457.0986 369.0391,-454.5479 372.4692,-452.3056"/>
<polygon fill="#191970" stroke="#191970" points="374.3596,-455.2592 381.4008,-447.3426 370.9596,-449.1404 374.3596,-455.2592"/>
</g>
<!-- Node223 -->
<g id="node22" class="node">
<title>Node223</title>
<g id="a_node22"><a xlink:href="classprecice_1_1mesh_1_1Mesh.html#afa920f8d8d32076837ae5e3dc28b0eea" target="_top" xlink:title="Allocates memory for the vertex data values. ">
<polygon fill="#ffffff" stroke="#000000" points="381.5,-372 381.5,-402 489.5,-402 489.5,-372 381.5,-372"/>
<text text-anchor="start" x="389.5" y="-390" font-family="Helvetica,sans-Serif" font-size="10.00" fill="#000000">precice::mesh::Mesh</text>
<text text-anchor="middle" x="435.5" y="-379" font-family="Helvetica,sans-Serif" font-size="10.00" fill="#000000">::allocateDataValues</text>
</a>
</g>
</g>
<!-- Node205&#45;&gt;Node223 -->
<g id="edge27" class="edge">
<title>Node205&#45;&gt;Node223</title>
<path fill="none" stroke="#191970" d="M308.3373,-591.8962C315.388,-587.9934 321.9227,-583.1075 327,-577 375.2599,-518.9471 312.5248,-467.1374 363,-411 365.7633,-407.9267 368.9286,-405.246 372.3571,-402.9078"/>
<polygon fill="#191970" stroke="#191970" points="374.3965,-405.7736 381.3421,-397.7729 370.9232,-399.6961 374.3965,-405.7736"/>
</g>
<!-- Node205&#45;&gt;Node225 -->
<g id="edge30" class="edge">
<title>Node205&#45;&gt;Node225</title>
<path fill="none" stroke="#191970" d="M309.8311,-592.0979C316.4971,-588.177 322.5244,-583.2326 327,-577 391.8484,-486.6948 294.6978,-165.7221 363,-78 365.7033,-74.5281 368.9241,-71.5531 372.4828,-69.0044"/>
<polygon fill="#191970" stroke="#191970" points="374.4779,-71.8913 381.3154,-63.7981 370.9233,-65.8609 374.4779,-71.8913"/>
</g>
<!-- Node226 -->
<g id="node25" class="node">
<title>Node226</title>
<g id="a_node25"><a xlink:href="classprecice_1_1mesh_1_1Mesh.html#a988baa22e8e6fcaa9efc64e7943cb2fc" target="_top" xlink:title="Computes the boundingBox for the vertices. ">
<polygon fill="#ffffff" stroke="#000000" points="376.5,-890 376.5,-920 494.5,-920 494.5,-890 376.5,-890"/>
<text text-anchor="start" x="384.5" y="-908" font-family="Helvetica,sans-Serif" font-size="10.00" fill="#000000">precice::mesh::Mesh</text>
<text text-anchor="middle" x="435.5" y="-897" font-family="Helvetica,sans-Serif" font-size="10.00" fill="#000000">::computeBoundingBox</text>
</a>
</g>
</g>
<!-- Node205&#45;&gt;Node226 -->
<g id="edge31" class="edge">
<title>Node205&#45;&gt;Node226</title>
<path fill="none" stroke="#191970" d="M257.0028,-622.2222C262.3464,-668.14 284.5362,-806.6779 363,-881 364.48,-882.4018 366.0437,-883.7219 367.6757,-884.9649"/>
<polygon fill="#191970" stroke="#191970" points="366.0356,-888.0721 376.3342,-890.5598 369.8347,-882.1928 366.0356,-888.0721"/>
</g>
<!-- Node228 -->
<g id="node27" class="node">
<title>Node228</title>
<g id="a_node27"><a xlink:href="classprecice_1_1mesh_1_1Mesh.html#a20584f10c9c7568d038b8a4bb9d7a7c8" target="_top" xlink:title="Removes all mesh elements and data values (does not remove data). ">
<polygon fill="#ffffff" stroke="#000000" points="381.5,-235 381.5,-265 489.5,-265 489.5,-235 381.5,-235"/>
<text text-anchor="start" x="389.5" y="-253" font-family="Helvetica,sans-Serif" font-size="10.00" fill="#000000">precice::mesh::Mesh</text>
<text text-anchor="middle" x="435.5" y="-242" font-family="Helvetica,sans-Serif" font-size="10.00" fill="#000000">::clear</text>
</a>
</g>
</g>
<!-- Node205&#45;&gt;Node228 -->
<g id="edge33" class="edge">
<title>Node205&#45;&gt;Node228</title>
<path fill="none" stroke="#191970" d="M309.5589,-591.8974C316.2637,-588.0051 322.3742,-583.122 327,-577 407.1593,-470.9128 282.5794,-385.8892 363,-280 365.8102,-276.2998 369.1586,-273.0531 372.8519,-270.2047"/>
<polygon fill="#191970" stroke="#191970" points="374.9748,-272.9979 381.4132,-264.5838 371.1329,-267.1464 374.9748,-272.9979"/>
</g>
<!-- Node230 -->
<g id="node29" class="node">
<title>Node230</title>
<g id="a_node29"><a xlink:href="classprecice_1_1mesh_1_1Mesh.html#a7dedd0a7f11c247b1739858d910f9cb9" target="_top" xlink:title="Returns a mapping from rank to used (not necessarily owned) vertex IDs. ">
<polygon fill="#ffffff" stroke="#000000" points="378.5,-841 378.5,-871 492.5,-871 492.5,-841 378.5,-841"/>
<text text-anchor="start" x="386.5" y="-859" font-family="Helvetica,sans-Serif" font-size="10.00" fill="#000000">precice::mesh::Mesh</text>
<text text-anchor="middle" x="435.5" y="-848" font-family="Helvetica,sans-Serif" font-size="10.00" fill="#000000">::getVertexDistribution</text>
</a>
</g>
</g>
<!-- Node205&#45;&gt;Node230 -->
<g id="edge36" class="edge">
<title>Node205&#45;&gt;Node230</title>
<path fill="none" stroke="#191970" d="M258.9883,-622.2527C268.6831,-661.3876 299.5177,-766.4544 363,-826 367.0362,-829.7859 371.6171,-833.1257 376.4683,-836.0656"/>
<polygon fill="#191970" stroke="#191970" points="374.975,-839.2375 385.4329,-840.9357 378.3166,-833.0866 374.975,-839.2375"/>
</g>
<!-- Node231 -->
<g id="node30" class="node">
<title>Node231</title>
<g id="a_node30"><a xlink:href="classprecice_1_1mesh_1_1Mesh.html#a590d8e05844921733090cd5906657a93" target="_top" xlink:title="precice::mesh::Mesh\l::getVertexOffsets">
<polygon fill="#ffffff" stroke="#000000" points="381.5,-715 381.5,-745 489.5,-745 489.5,-715 381.5,-715"/>
<text text-anchor="start" x="389.5" y="-733" font-family="Helvetica,sans-Serif" font-size="10.00" fill="#000000">precice::mesh::Mesh</text>
<text text-anchor="middle" x="435.5" y="-722" font-family="Helvetica,sans-Serif" font-size="10.00" fill="#000000">::getVertexOffsets</text>
</a>
</g>
</g>
<!-- Node205&#45;&gt;Node231 -->
<g id="edge37" class="edge">
<title>Node205&#45;&gt;Node231</title>
<path fill="none" stroke="#191970" d="M268.2031,-622.2293C286.8977,-643.7405 323.8606,-682.9639 363,-706 365.8566,-707.6813 368.8467,-709.2631 371.9169,-710.7488"/>
<polygon fill="#191970" stroke="#191970" points="370.7549,-714.0623 381.3148,-714.921 373.5952,-707.6644 370.7549,-714.0623"/>
</g>
<!-- Node232 -->
<g id="node31" class="node">
<title>Node232</title>
<g id="a_node31"><a xlink:href="classprecice_1_1mesh_1_1Mesh.html#a806bdb0fb238bd542e8108a041363da5" target="_top" xlink:title="Only used for tests. ">
<polygon fill="#ffffff" stroke="#000000" points="381.5,-666 381.5,-696 489.5,-696 489.5,-666 381.5,-666"/>
<text text-anchor="start" x="389.5" y="-684" font-family="Helvetica,sans-Serif" font-size="10.00" fill="#000000">precice::mesh::Mesh</text>
<text text-anchor="middle" x="435.5" y="-673" font-family="Helvetica,sans-Serif" font-size="10.00" fill="#000000">::setVertexOffsets</text>
</a>
</g>
</g>
<!-- Node205&#45;&gt;Node232 -->
<g id="edge38" class="edge">
<title>Node205&#45;&gt;Node232</title>
<path fill="none" stroke="#191970" d="M285.6725,-622.1767C306.997,-632.6193 336.4041,-646.4538 363,-657 367.7316,-658.8763 372.6745,-660.7295 377.659,-662.5245"/>
<polygon fill="#191970" stroke="#191970" points="376.6561,-665.8818 387.251,-665.8951 378.9769,-659.2777 376.6561,-665.8818"/>
</g>
<!-- Node233 -->
<g id="node32" class="node">
<title>Node233</title>
<g id="a_node32"><a xlink:href="classprecice_1_1mesh_1_1Mesh.html#a0fbbc8211e87e48c5d12789c41ad9af1" target="_top" xlink:title="precice::mesh::Mesh\l::getGlobalNumberOfVertices">
<polygon fill="#ffffff" stroke="#000000" points="363,-617 363,-647 508,-647 508,-617 363,-617"/>
<text text-anchor="start" x="371" y="-635" font-family="Helvetica,sans-Serif" font-size="10.00" fill="#000000">precice::mesh::Mesh</text>
<text text-anchor="middle" x="435.5" y="-624" font-family="Helvetica,sans-Serif" font-size="10.00" fill="#000000">::getGlobalNumberOfVertices</text>
</a>
</g>
</g>
<!-- Node205&#45;&gt;Node233 -->
<g id="edge39" class="edge">
<title>Node205&#45;&gt;Node233</title>
<path fill="none" stroke="#191970" d="M309.5059,-614.5008C323.1364,-616.3939 338.0855,-618.4702 352.7746,-620.5104"/>
<polygon fill="#191970" stroke="#191970" points="352.4965,-624.0053 362.8829,-621.9143 353.4595,-617.0718 352.4965,-624.0053"/>
</g>
<!-- Node234 -->
<g id="node33" class="node">
<title>Node234</title>
<g id="a_node33"><a xlink:href="classprecice_1_1mesh_1_1Mesh.html#a02f0fe049261bbe1e82e0a00746b9313" target="_top" xlink:title="precice::mesh::Mesh\l::setGlobalNumberOfVertices">
<polygon fill="#ffffff" stroke="#000000" points="363,-568 363,-598 508,-598 508,-568 363,-568"/>
<text text-anchor="start" x="371" y="-586" font-family="Helvetica,sans-Serif" font-size="10.00" fill="#000000">precice::mesh::Mesh</text>
<text text-anchor="middle" x="435.5" y="-575" font-family="Helvetica,sans-Serif" font-size="10.00" fill="#000000">::setGlobalNumberOfVertices</text>
</a>
</g>
</g>
<!-- Node205&#45;&gt;Node234 -->
<g id="edge40" class="edge">
<title>Node205&#45;&gt;Node234</title>
<path fill="none" stroke="#191970" d="M309.5059,-599.7992C323.1364,-597.9818 338.0855,-595.9886 352.7746,-594.0301"/>
<polygon fill="#191970" stroke="#191970" points="353.4332,-597.4733 362.8829,-592.6823 352.508,-590.5347 353.4332,-597.4733"/>
</g>
<!-- Node235 -->
<g id="node34" class="node">
<title>Node235</title>
<g id="a_node34"><a xlink:href="classprecice_1_1mesh_1_1Mesh.html#ab453e0fcd860442aa942ddced2cee24f" target="_top" xlink:title="precice::mesh::Mesh\l::getOwnedVertexData">
<polygon fill="#ffffff" stroke="#000000" points="377.5,-186 377.5,-216 493.5,-216 493.5,-186 377.5,-186"/>
<text text-anchor="start" x="385.5" y="-204" font-family="Helvetica,sans-Serif" font-size="10.00" fill="#000000">precice::mesh::Mesh</text>
<text text-anchor="middle" x="435.5" y="-193" font-family="Helvetica,sans-Serif" font-size="10.00" fill="#000000">::getOwnedVertexData</text>
</a>
</g>
</g>
<!-- Node205&#45;&gt;Node235 -->
<g id="edge41" class="edge">
<title>Node205&#45;&gt;Node235</title>
<path fill="none" stroke="#191970" d="M309.6631,-591.9753C316.353,-588.0719 322.4317,-583.165 327,-577 420.6276,-450.6484 264.5422,-347.6251 363,-225 364.7069,-222.8742 366.6073,-220.935 368.6592,-219.1662"/>
<polygon fill="#191970" stroke="#191970" points="371.0558,-221.7605 377.235,-213.1542 367.0376,-216.0286 371.0558,-221.7605"/>
</g>
<!-- Node236 -->
<g id="node35" class="node">
<title>Node236</title>
<g id="a_node35"><a xlink:href="classprecice_1_1mesh_1_1Mesh.html#a708f813fb1d2ea852818cdaf55d5b922" target="_top" xlink:title="precice::mesh::Mesh\l::tagAll">
<polygon fill="#ffffff" stroke="#000000" points="381.5,-470 381.5,-500 489.5,-500 489.5,-470 381.5,-470"/>
<text text-anchor="start" x="389.5" y="-488" font-family="Helvetica,sans-Serif" font-size="10.00" fill="#000000">precice::mesh::Mesh</text>
<text text-anchor="middle" x="435.5" y="-477" font-family="Helvetica,sans-Serif" font-size="10.00" fill="#000000">::tagAll</text>
</a>
</g>
</g>
<!-- Node205&#45;&gt;Node236 -->
<g id="edge44" class="edge">
<title>Node205&#45;&gt;Node236</title>
<path fill="none" stroke="#191970" d="M304.3567,-591.8602C312.5138,-587.8923 320.4425,-582.9946 327,-577 352.2394,-553.9271 336.8847,-531.0766 363,-509 365.8509,-506.59 368.9518,-504.4197 372.213,-502.4657"/>
<polygon fill="#191970" stroke="#191970" points="373.9231,-505.5211 381.1591,-497.7822 370.6764,-499.3196 373.9231,-505.5211"/>
</g>
<!-- Node206&#45;&gt;Node204 -->
<g id="edge6" class="edge">
<title>Node206&#45;&gt;Node204</title>
<path fill="none" stroke="#191970" d="M663.3371,-783.0939C671.7801,-787.0953 680.0723,-792.0167 687,-798 736.9474,-841.1384 770.379,-913.4376 785.412,-951.2508"/>
<polygon fill="#191970" stroke="#191970" points="782.2911,-952.8844 789.1627,-960.9487 788.8199,-950.3594 782.2911,-952.8844"/>
</g>
<!-- Node207&#45;&gt;Node206 -->
<g id="edge11" class="edge">
<title>Node207&#45;&gt;Node206</title>
<path fill="none" stroke="#191970" d="M489.5333,-547.339C496.1985,-550.4584 502.566,-554.2924 508,-559 566.4057,-609.5983 597.2288,-699.7146 609.3154,-743.1879"/>
<polygon fill="#191970" stroke="#191970" points="605.9598,-744.1878 611.9279,-752.9417 612.7214,-742.3766 605.9598,-744.1878"/>
</g>
<!-- Node208 -->
<g id="node7" class="node">
<title>Node208</title>
<g id="a_node7"><a xlink:href="classprecice_1_1mesh_1_1Vertex.html#aeccde29fd990bdba5a5792372c341ef4" target="_top" xlink:title="Returns the unique (among vertices of one mesh on one processor) ID of the vertex. ">
<polygon fill="#ffffff" stroke="#000000" points="559,-495 559,-525 672,-525 672,-495 559,-495"/>
<text text-anchor="start" x="567" y="-513" font-family="Helvetica,sans-Serif" font-size="10.00" fill="#000000">precice::mesh::Vertex</text>
<text text-anchor="middle" x="615.5" y="-502" font-family="Helvetica,sans-Serif" font-size="10.00" fill="#000000">::getID</text>
</a>
</g>
</g>
<!-- Node207&#45;&gt;Node208 -->
<g id="edge8" class="edge">
<title>Node207&#45;&gt;Node208</title>
<path fill="none" stroke="#191970" d="M489.5059,-526.7992C508.1127,-524.3183 529.1768,-521.5098 548.6821,-518.9091"/>
<polygon fill="#191970" stroke="#191970" points="549.269,-522.3619 558.7187,-517.5708 548.3438,-515.4233 549.269,-522.3619"/>
</g>
<!-- Node209 -->
<g id="node8" class="node">
<title>Node209</title>
<g id="a_node8"><a xlink:href="classprecice_1_1mesh_1_1Mesh.html#aec6f303d7791f8a64e2b78180531c89e" target="_top" xlink:title="Returns modifiable container holding all edges. ">
<polygon fill="#ffffff" stroke="#000000" points="561.5,-433 561.5,-463 669.5,-463 669.5,-433 561.5,-433"/>
<text text-anchor="start" x="569.5" y="-451" font-family="Helvetica,sans-Serif" font-size="10.00" fill="#000000">precice::mesh::Mesh</text>
<text text-anchor="middle" x="615.5" y="-440" font-family="Helvetica,sans-Serif" font-size="10.00" fill="#000000">::edges</text>
</a>
</g>
</g>
<!-- Node207&#45;&gt;Node209 -->
<g id="edge9" class="edge">
<title>Node207&#45;&gt;Node209</title>
<path fill="none" stroke="#191970" d="M484.9454,-518.8583C492.7971,-515.9127 500.7227,-512.6058 508,-509 525.2305,-500.4625 527.4355,-494.7671 544,-485 554.0569,-479.07 565.1632,-473.0706 575.5634,-467.6784"/>
<polygon fill="#191970" stroke="#191970" points="577.172,-470.7869 584.477,-463.113 573.981,-464.5565 577.172,-470.7869"/>
</g>
<!-- Node210 -->
<g id="node9" class="node">
<title>Node210</title>
<g id="a_node9"><a xlink:href="classprecice_1_1mesh_1_1Edge.html#a7fc88e0289fecf4c41c230d20311dcdb" target="_top" xlink:title="Returns the edge&#39;s vertex with index 0 or 1. ">
<polygon fill="#ffffff" stroke="#000000" points="562,-544 562,-574 669,-574 669,-544 562,-544"/>
<text text-anchor="start" x="570" y="-562" font-family="Helvetica,sans-Serif" font-size="10.00" fill="#000000">precice::mesh::Edge</text>
<text text-anchor="middle" x="615.5" y="-551" font-family="Helvetica,sans-Serif" font-size="10.00" fill="#000000">::vertex</text>
</a>
</g>
</g>
<!-- Node207&#45;&gt;Node210 -->
<g id="edge10" class="edge">
<title>Node207&#45;&gt;Node210</title>
<path fill="none" stroke="#191970" d="M489.5059,-541.5008C509.0839,-544.22 531.3825,-547.317 551.7232,-550.1421"/>
<polygon fill="#191970" stroke="#191970" points="551.4561,-553.6385 561.8426,-551.5476 552.4192,-546.7051 551.4561,-553.6385"/>
</g>
<!-- Node211&#45;&gt;Node204 -->
<g id="edge14" class="edge">
<title>Node211&#45;&gt;Node204</title>
<path fill="none" stroke="#191970" d="M489.6993,-1148.317C543.2672,-1153.8093 625.847,-1154.7359 687,-1121 735.9485,-1093.9969 768.8789,-1034.2178 784.3466,-1000.454"/>
<polygon fill="#191970" stroke="#191970" points="787.5638,-1001.833 788.4153,-991.2724 781.164,-998.9969 787.5638,-1001.833"/>
</g>
<!-- Node212 -->
<g id="node11" class="node">
<title>Node212</title>
<g id="a_node11"><a xlink:href="classprecice_1_1mesh_1_1Edge.html#af27f4bd02d0b67cc5c3d04e2cf1ddee7" target="_top" xlink:title="Checks whether both edges share a vertex. ">
<polygon fill="#ffffff" stroke="#000000" points="562,-1081 562,-1111 669,-1111 669,-1081 562,-1081"/>
<text text-anchor="start" x="570" y="-1099" font-family="Helvetica,sans-Serif" font-size="10.00" fill="#000000">precice::mesh::Edge</text>
<text text-anchor="middle" x="615.5" y="-1088" font-family="Helvetica,sans-Serif" font-size="10.00" fill="#000000">::connectedTo</text>
</a>
</g>
</g>
<!-- Node211&#45;&gt;Node212 -->
<g id="edge13" class="edge">
<title>Node211&#45;&gt;Node212</title>
<path fill="none" stroke="#191970" d="M489.5059,-1126.7985C509.1733,-1121.991 531.5862,-1116.5123 552.0017,-1111.5218"/>
<polygon fill="#191970" stroke="#191970" points="552.9597,-1114.8908 561.8426,-1109.1163 551.2975,-1108.091 552.9597,-1114.8908"/>
</g>
<!-- Node213&#45;&gt;Node214 -->
<g id="edge16" class="edge">
<title>Node213&#45;&gt;Node214</title>
<path fill="none" stroke="#191970" d="M489.5059,-324.7985C508.9953,-320.0345 531.1808,-314.6114 551.4469,-309.6574"/>
<polygon fill="#191970" stroke="#191970" points="552.3385,-313.0426 561.2213,-307.2681 550.6762,-306.2428 552.3385,-313.0426"/>
</g>
<!-- Node215 -->
<g id="node14" class="node">
<title>Node215</title>
<g id="a_node14"><a xlink:href="classprecice_1_1mesh_1_1Data.html#a571e94df898349b76b6c4ce8db34ccd1" target="_top" xlink:title="Returns the number of created (and still existing) Data objects. ">
<polygon fill="#ffffff" stroke="#000000" points="563,-328 563,-358 668,-358 668,-328 563,-328"/>
<text text-anchor="start" x="571" y="-346" font-family="Helvetica,sans-Serif" font-size="10.00" fill="#000000">precice::mesh::Data</text>
<text text-anchor="middle" x="615.5" y="-335" font-family="Helvetica,sans-Serif" font-size="10.00" fill="#000000">::getDataCount</text>
</a>
</g>
</g>
<!-- Node213&#45;&gt;Node215 -->
<g id="edge17" class="edge">
<title>Node213&#45;&gt;Node215</title>
<path fill="none" stroke="#191970" d="M489.5059,-339.5002C509.3496,-340.0514 531.9884,-340.6802 552.5504,-341.2514"/>
<polygon fill="#191970" stroke="#191970" points="552.6776,-344.7562 562.7709,-341.5353 552.872,-337.7589 552.6776,-344.7562"/>
</g>
<!-- Node221 -->
<g id="node20" class="node">
<title>Node221</title>
<g id="a_node20"><a xlink:href="classprecice_1_1mesh_1_1Mesh.html#a13faa9b03e5d20918ed6528db1415fa3" target="_top" xlink:title="Returns modifieable container holding all vertices. ">
<polygon fill="#ffffff" stroke="#000000" points="561.5,-159 561.5,-189 669.5,-189 669.5,-159 561.5,-159"/>
<text text-anchor="start" x="569.5" y="-177" font-family="Helvetica,sans-Serif" font-size="10.00" fill="#000000">precice::mesh::Mesh</text>
<text text-anchor="middle" x="615.5" y="-166" font-family="Helvetica,sans-Serif" font-size="10.00" fill="#000000">::vertices</text>
</a>
</g>
</g>
<!-- Node220&#45;&gt;Node221 -->
<g id="edge24" class="edge">
<title>Node220&#45;&gt;Node221</title>
<path fill="none" stroke="#191970" d="M489.5059,-158.6007C508.9067,-160.9719 530.9792,-163.6697 551.1704,-166.1375"/>
<polygon fill="#191970" stroke="#191970" points="550.8706,-169.6268 561.2213,-167.3659 551.7199,-162.6785 550.8706,-169.6268"/>
</g>
<!-- Node222&#45;&gt;Node209 -->
<g id="edge26" class="edge">
<title>Node222&#45;&gt;Node209</title>
<path fill="none" stroke="#191970" d="M489.5059,-439.6004C508.9067,-440.8938 530.9792,-442.3653 551.1704,-443.7114"/>
<polygon fill="#191970" stroke="#191970" points="551.0106,-447.2084 561.2213,-444.3814 551.4763,-440.2239 551.0106,-447.2084"/>
</g>
<!-- Node223&#45;&gt;Node214 -->
<g id="edge28" class="edge">
<title>Node223&#45;&gt;Node214</title>
<path fill="none" stroke="#191970" d="M489.7968,-372.0491C496.2001,-369.2093 502.4288,-365.8819 508,-362 528.7308,-347.5551 523.2101,-332.3596 544,-318 546.5571,-316.2338 549.2546,-314.5888 552.0445,-313.0578"/>
<polygon fill="#191970" stroke="#191970" points="553.7839,-316.1027 561.2106,-308.5467 550.6928,-309.8222 553.7839,-316.1027"/>
</g>
<!-- Node224 -->
<g id="node23" class="node">
<title>Node224</title>
<g id="a_node23"><a xlink:href="namespaceprecice_1_1utils.html#a70a03ea1367189736d49351c6385c8c9" target="_top" xlink:title="precice::utils::append">
<polygon fill="#ffffff" stroke="#000000" points="560.5,-377.5 560.5,-396.5 670.5,-396.5 670.5,-377.5 560.5,-377.5"/>
<text text-anchor="middle" x="615.5" y="-384.5" font-family="Helvetica,sans-Serif" font-size="10.00" fill="#000000">precice::utils::append</text>
</a>
</g>
</g>
<!-- Node223&#45;&gt;Node224 -->
<g id="edge29" class="edge">
<title>Node223&#45;&gt;Node224</title>
<path fill="none" stroke="#191970" d="M489.5059,-387C508.5536,-387 530.1765,-387 550.066,-387"/>
<polygon fill="#191970" stroke="#191970" points="550.2862,-390.5001 560.2861,-387 550.2861,-383.5001 550.2862,-390.5001"/>
</g>
<!-- Node227 -->
<g id="node26" class="node">
<title>Node227</title>
<g id="a_node26"><a xlink:href="classprecice_1_1mesh_1_1BoundingBox.html#a7aeb328ca8291253c4fd22d0d4cb0a18" target="_top" xlink:title="Expand bounding box using another bounding box. ">
<polygon fill="#ffffff" stroke="#000000" points="544.5,-890 544.5,-920 686.5,-920 686.5,-890 544.5,-890"/>
<text text-anchor="start" x="552.5" y="-908" font-family="Helvetica,sans-Serif" font-size="10.00" fill="#000000">precice::mesh::BoundingBox</text>
<text text-anchor="middle" x="615.5" y="-897" font-family="Helvetica,sans-Serif" font-size="10.00" fill="#000000">::expandBy</text>
</a>
</g>
</g>
<!-- Node226&#45;&gt;Node227 -->
<g id="edge32" class="edge">
<title>Node226&#45;&gt;Node227</title>
<path fill="none" stroke="#191970" d="M494.9376,-905C507.5043,-905 520.9731,-905 534.1895,-905"/>
<polygon fill="#191970" stroke="#191970" points="534.228,-908.5001 544.228,-905 534.2279,-901.5001 534.228,-908.5001"/>
</g>
<!-- Node228&#45;&gt;Node214 -->
<g id="edge35" class="edge">
<title>Node228&#45;&gt;Node214</title>
<path fill="none" stroke="#191970" d="M489.5059,-263.2015C508.9953,-267.9655 531.1808,-273.3886 551.4469,-278.3426"/>
<polygon fill="#191970" stroke="#191970" points="550.6762,-281.7572 561.2213,-280.7319 552.3385,-274.9574 550.6762,-281.7572"/>
</g>
<!-- Node229 -->
<g id="node28" class="node">
<title>Node229</title>
<g id="a_node28"><a xlink:href="classprecice_1_1utils_1_1ManageUniqueIDs.html#af8eca33b69c8ee473d27f639bd29c25c" target="_top" xlink:title="Resets all retrieved and inserted IDs. ">
<polygon fill="#ffffff" stroke="#000000" points="544,-230 544,-260 687,-260 687,-230 544,-230"/>
<text text-anchor="start" x="552" y="-248" font-family="Helvetica,sans-Serif" font-size="10.00" fill="#000000">precice::utils::ManageUnique</text>
<text text-anchor="middle" x="615.5" y="-237" font-family="Helvetica,sans-Serif" font-size="10.00" fill="#000000">IDs::resetIDs</text>
</a>
</g>
</g>
<!-- Node228&#45;&gt;Node229 -->
<g id="edge34" class="edge">
<title>Node228&#45;&gt;Node229</title>
<path fill="none" stroke="#191970" d="M489.5059,-248.4998C503.3888,-248.1142 518.6396,-247.6906 533.5903,-247.2753"/>
<polygon fill="#191970" stroke="#191970" points="533.9734,-250.7661 543.8724,-246.9897 533.779,-243.7688 533.9734,-250.7661"/>
</g>
<!-- Node235&#45;&gt;Node214 -->
<g id="edge42" class="edge">
<title>Node235&#45;&gt;Node214</title>
<path fill="none" stroke="#191970" d="M492.0477,-216.1464C497.6557,-218.6858 503.0838,-221.6195 508,-225 528.8198,-239.3163 523.3003,-254.5106 544,-269 546.833,-270.983 549.8384,-272.8225 552.9509,-274.5269"/>
<polygon fill="#191970" stroke="#191970" points="551.4369,-277.6827 561.9521,-278.9798 554.5409,-271.4085 551.4369,-277.6827"/>
</g>
<!-- Node235&#45;&gt;Node221 -->
<g id="edge43" class="edge">
<title>Node235&#45;&gt;Node221</title>
<path fill="none" stroke="#191970" d="M493.9408,-192.2339C512.3011,-189.4798 532.6676,-186.4249 551.3983,-183.6153"/>
<polygon fill="#191970" stroke="#191970" points="551.9476,-187.0721 561.3177,-182.1273 550.9091,-180.1496 551.9476,-187.0721"/>
</g>
<!-- Node239 -->
<g id="node38" class="node">
<title>Node239</title>
<g id="a_node38"><a xlink:href="namespaceprecice_1_1math.html#a0e86802cfe992deba131d789d035b5b7" target="_top" xlink:title="Compares two Eigen::MatrixBase for equality up to tolerance. ">
<polygon fill="#ffffff" stroke="#000000" points="380.5,-.5 380.5,-19.5 490.5,-19.5 490.5,-.5 380.5,-.5"/>
<text text-anchor="middle" x="435.5" y="-7.5" font-family="Helvetica,sans-Serif" font-size="10.00" fill="#000000">precice::math::equals</text>
</a>
</g>
</g>
<!-- Node238&#45;&gt;Node239 -->
<g id="edge50" class="edge">
<title>Node238&#45;&gt;Node239</title>
<path fill="none" stroke="#191970" d="M256.9961,-251.2864C263.0089,-215.6701 288.7716,-91.091 363,-29 365.545,-26.8711 368.3024,-24.9778 371.2045,-23.2943"/>
<polygon fill="#191970" stroke="#191970" points="372.8386,-26.3913 380.2777,-18.8474 369.7578,-20.1056 372.8386,-26.3913"/>
</g>
</g>
</svg>
