<?xml version="1.0" encoding="UTF-8" standalone="no"?>
<!DOCTYPE svg PUBLIC "-//W3C//DTD SVG 1.1//EN"
 "http://www.w3.org/Graphics/SVG/1.1/DTD/svg11.dtd">
<!-- Generated by graphviz version 2.40.1 (20161225.0304)
 -->
<!-- Title: src/m2n/GatherScatterComFactory.hpp Pages: 1 -->
<svg width="502pt" height="106pt"
 viewBox="0.00 0.00 502.00 106.00" xmlns="http://www.w3.org/2000/svg" xmlns:xlink="http://www.w3.org/1999/xlink">
<g id="graph0" class="graph" transform="scale(1 1) rotate(0) translate(4 102)">
<title>src/m2n/GatherScatterComFactory.hpp</title>
<polygon fill="#ffffff" stroke="transparent" points="-4,4 -4,-102 498,-102 498,4 -4,4"/>
<!-- Node53 -->
<g id="node1" class="node">
<title>Node53</title>
<polygon fill="#bfbfbf" stroke="#000000" points="200.5,-67.5 200.5,-97.5 337.5,-97.5 337.5,-67.5 200.5,-67.5"/>
<text text-anchor="start" x="208.5" y="-85.5" font-family="Helvetica,sans-Serif" font-size="10.00" fill="#000000">src/m2n/GatherScatterCom</text>
<text text-anchor="middle" x="269" y="-74.5" font-family="Helvetica,sans-Serif" font-size="10.00" fill="#000000">Factory.hpp</text>
</g>
<!-- Node54 -->
<g id="node2" class="node">
<title>Node54</title>
<g id="a_node2"><a xlink:href="M2NConfiguration_8cpp.html" target="_top" xlink:title="src/m2n/config/M2NConfiguration.cpp">
<polygon fill="#ffffff" stroke="#000000" points="0,-6 0,-25 182,-25 182,-6 0,-6"/>
<text text-anchor="middle" x="91" y="-13" font-family="Helvetica,sans-Serif" font-size="10.00" fill="#000000">src/m2n/config/M2NConfiguration.cpp</text>
</a>
</g>
</g>
<!-- Node53&#45;&gt;Node54 -->
<g id="edge1" class="edge">
<title>Node53&#45;&gt;Node54</title>
<path fill="none" stroke="#191970" d="M219.4203,-63.838C185.885,-51.2151 142.9917,-35.0699 116.2529,-25.0053"/>
<polygon fill="#191970" stroke="#191970" points="218.4614,-67.2167 229.0533,-67.4639 220.9273,-60.6654 218.4614,-67.2167"/>
</g>
<!-- Node55 -->
<g id="node3" class="node">
<title>Node55</title>
<g id="a_node3"><a xlink:href="GatherScatterComFactory_8cpp.html" target="_top" xlink:title="src/m2n/GatherScatterCom\lFactory.cpp">
<polygon fill="#ffffff" stroke="#000000" points="200.5,-.5 200.5,-30.5 337.5,-30.5 337.5,-.5 200.5,-.5"/>
<text text-anchor="start" x="208.5" y="-18.5" font-family="Helvetica,sans-Serif" font-size="10.00" fill="#000000">src/m2n/GatherScatterCom</text>
<text text-anchor="middle" x="269" y="-7.5" font-family="Helvetica,sans-Serif" font-size="10.00" fill="#000000">Factory.cpp</text>
</a>
</g>
</g>
<!-- Node53&#45;&gt;Node55 -->
<g id="edge2" class="edge">
<title>Node53&#45;&gt;Node55</title>
<path fill="none" stroke="#191970" d="M269,-57.0249C269,-48.128 269,-38.4287 269,-30.6432"/>
<polygon fill="#191970" stroke="#191970" points="265.5001,-57.2966 269,-67.2967 272.5001,-57.2967 265.5001,-57.2966"/>
</g>
<!-- Node56 -->
<g id="node4" class="node">
<title>Node56</title>
<g id="a_node4"><a xlink:href="TestContext_8cpp.html" target="_top" xlink:title="src/testing/TestContext.cpp">
<polygon fill="#ffffff" stroke="#000000" points="356,-6 356,-25 494,-25 494,-6 356,-6"/>
<text text-anchor="middle" x="425" y="-13" font-family="Helvetica,sans-Serif" font-size="10.00" fill="#000000">src/testing/TestContext.cpp</text>
</a>
</g>
</g>
<!-- Node53&#45;&gt;Node56 -->
<g id="edge3" class="edge">
<title>Node53&#45;&gt;Node56</title>
<path fill="none" stroke="#191970" d="M313.5617,-63.3613C342.6868,-50.8525 379.4844,-35.0484 402.6386,-25.1039"/>
<polygon fill="#191970" stroke="#191970" points="311.8166,-60.3016 304.0094,-67.4639 314.5791,-66.7335 311.8166,-60.3016"/>
</g>
</g>
</svg>
