<?xml version="1.0" encoding="UTF-8" standalone="no"?>
<!DOCTYPE svg PUBLIC "-//W3C//DTD SVG 1.1//EN"
 "http://www.w3.org/Graphics/SVG/1.1/DTD/svg11.dtd">
<!-- Generated by graphviz version 2.40.1 (20161225.0304)
 -->
<!-- Title: BOOST_AUTO_TEST_CASE Pages: 1 -->
<svg width="658pt" height="100pt"
 viewBox="0.00 0.00 658.00 99.50" xmlns="http://www.w3.org/2000/svg" xmlns:xlink="http://www.w3.org/1999/xlink">
<g id="graph0" class="graph" transform="scale(1 1) rotate(0) translate(4 95.5)">
<title>BOOST_AUTO_TEST_CASE</title>
<polygon fill="#ffffff" stroke="transparent" points="-4,4 -4,-95.5 654,-95.5 654,4 -4,4"/>
<!-- Node32 -->
<g id="node1" class="node">
<title>Node32</title>
<polygon fill="#bfbfbf" stroke="#000000" points="0,-22.5 0,-41.5 143,-41.5 143,-22.5 0,-22.5"/>
<text text-anchor="middle" x="71.5" y="-29.5" font-family="Helvetica,sans-Serif" font-size="10.00" fill="#000000">BOOST_AUTO_TEST_CASE</text>
</g>
<!-- Node33 -->
<g id="node2" class="node">
<title>Node33</title>
<g id="a_node2"><a xlink:href="namespaceprecice_1_1math_1_1geometry.html#a52c8c8370c44a21db76385b14e5d2a3c" target="_top" xlink:title="Tests if a vertex is contained in a triangle. ">
<polygon fill="#ffffff" stroke="#000000" points="179,-39 179,-69 316,-69 316,-39 179,-39"/>
<text text-anchor="start" x="187" y="-57" font-family="Helvetica,sans-Serif" font-size="10.00" fill="#000000">precice::math::geometry</text>
<text text-anchor="middle" x="247.5" y="-46" font-family="Helvetica,sans-Serif" font-size="10.00" fill="#000000">::containedInTriangle</text>
</a>
</g>
</g>
<!-- Node32&#45;&gt;Node33 -->
<g id="edge1" class="edge">
<title>Node32&#45;&gt;Node33</title>
<path fill="none" stroke="#191970" d="M143.0859,-40.9482C151.5679,-42.0085 160.2607,-43.0951 168.8341,-44.1668"/>
<polygon fill="#191970" stroke="#191970" points="168.4668,-47.648 178.8238,-45.4155 169.3351,-40.7021 168.4668,-47.648"/>
</g>
<!-- Node37 -->
<g id="node6" class="node">
<title>Node37</title>
<g id="a_node6"><a xlink:href="RTreeTests_8cpp.html#a9849f5c774ff22e557184d988b1cf9ea" target="_top" xlink:title="BOOST_TEST">
<polygon fill="#ffffff" stroke="#000000" points="207.5,-.5 207.5,-19.5 287.5,-19.5 287.5,-.5 207.5,-.5"/>
<text text-anchor="middle" x="247.5" y="-7.5" font-family="Helvetica,sans-Serif" font-size="10.00" fill="#000000">BOOST_TEST</text>
</a>
</g>
</g>
<!-- Node32&#45;&gt;Node37 -->
<g id="edge5" class="edge">
<title>Node32&#45;&gt;Node37</title>
<path fill="none" stroke="#191970" d="M143.0859,-23.0518C161.2127,-20.7859 180.3027,-18.3997 197.1308,-16.2961"/>
<polygon fill="#191970" stroke="#191970" points="197.7989,-19.74 207.2875,-15.0266 196.9306,-12.794 197.7989,-19.74"/>
</g>
<!-- Node34 -->
<g id="node3" class="node">
<title>Node34</title>
<g id="a_node3"><a xlink:href="namespaceprecice_1_1math_1_1geometry.html#a1968ac923376d52e8e95b94b55c61a7e" target="_top" xlink:title="Computes the signed area of a triangle in 2D. ">
<polygon fill="#ffffff" stroke="#000000" points="352,-61 352,-91 489,-91 489,-61 352,-61"/>
<text text-anchor="start" x="360" y="-79" font-family="Helvetica,sans-Serif" font-size="10.00" fill="#000000">precice::math::geometry</text>
<text text-anchor="middle" x="420.5" y="-68" font-family="Helvetica,sans-Serif" font-size="10.00" fill="#000000">::triangleArea</text>
</a>
</g>
</g>
<!-- Node33&#45;&gt;Node34 -->
<g id="edge2" class="edge">
<title>Node33&#45;&gt;Node34</title>
<path fill="none" stroke="#191970" d="M316.3713,-62.7582C324.7692,-63.8261 333.3987,-64.9235 341.9246,-66.0078"/>
<polygon fill="#191970" stroke="#191970" points="341.504,-69.4824 351.8657,-67.2719 342.3871,-62.5383 341.504,-69.4824"/>
</g>
<!-- Node35 -->
<g id="node4" class="node">
<title>Node35</title>
<g id="a_node4"><a xlink:href="namespaceprecice_1_1math.html#a123796aca6a6eb851f51fe62a98e9ba4" target="_top" xlink:title="Return the sign, one of {&#45;1, 0, 1}. ">
<polygon fill="#ffffff" stroke="#000000" points="365.5,-22.5 365.5,-41.5 475.5,-41.5 475.5,-22.5 365.5,-22.5"/>
<text text-anchor="middle" x="420.5" y="-29.5" font-family="Helvetica,sans-Serif" font-size="10.00" fill="#000000">precice::math::sign</text>
</a>
</g>
</g>
<!-- Node33&#45;&gt;Node35 -->
<g id="edge3" class="edge">
<title>Node33&#45;&gt;Node35</title>
<path fill="none" stroke="#191970" d="M316.3713,-45.2418C329.234,-43.6061 342.6398,-41.9013 355.3848,-40.2805"/>
<polygon fill="#191970" stroke="#191970" points="355.9628,-43.7353 365.4413,-39.0017 355.0796,-36.7912 355.9628,-43.7353"/>
</g>
<!-- Node36 -->
<g id="node5" class="node">
<title>Node36</title>
<g id="a_node5"><a xlink:href="namespaceprecice_1_1math.html#abdb7ef543f323c2e8a0d48d1774739e6" target="_top" xlink:title="precice::math::greater">
<polygon fill="#ffffff" stroke="#000000" points="525,-22.5 525,-41.5 650,-41.5 650,-22.5 525,-22.5"/>
<text text-anchor="middle" x="587.5" y="-29.5" font-family="Helvetica,sans-Serif" font-size="10.00" fill="#000000">precice::math::greater</text>
</a>
</g>
</g>
<!-- Node35&#45;&gt;Node36 -->
<g id="edge4" class="edge">
<title>Node35&#45;&gt;Node36</title>
<path fill="none" stroke="#191970" d="M475.6449,-32C488.0893,-32 501.4871,-32 514.5361,-32"/>
<polygon fill="#191970" stroke="#191970" points="514.9016,-35.5001 524.9015,-32 514.9015,-28.5001 514.9016,-35.5001"/>
</g>
</g>
</svg>
