<?xml version="1.0" encoding="UTF-8" standalone="no"?>
<!DOCTYPE svg PUBLIC "-//W3C//DTD SVG 1.1//EN"
 "http://www.w3.org/Graphics/SVG/1.1/DTD/svg11.dtd">
<!-- Generated by graphviz version 2.40.1 (20161225.0304)
 -->
<!-- Title: BOOST_AUTO_TEST_CASE Pages: 1 -->
<!--zoomable 129 -->
<svg id="main" version="1.1" xmlns="http://www.w3.org/2000/svg" xmlns:xlink="http://www.w3.org/1999/xlink" xml:space="preserve" onload="init(evt)">
<style type="text/css"><![CDATA[
.edge:hover path { stroke: red; }
.edge:hover polygon { stroke: red; fill: red; }
]]></style>
<script type="text/javascript"><![CDATA[
var edges = document.getElementsByTagName('g');
if (edges && edges.length) {
  for (var i=0;i<edges.length;i++) {
    if (edges[i].id.substr(0,4)=='edge') {
      edges[i].setAttribute('class','edge');
    }
  }
}
]]></script>
        <defs>
                <circle id="rim" cx="0" cy="0" r="7"/>
                <circle id="rim2" cx="0" cy="0" r="3.5"/>
                <g id="zoomPlus">
                        <use xlink:href="#rim" fill="#404040">
                                <set attributeName="fill" to="#808080" begin="zoomplus.mouseover" end="zoomplus.mouseout"/>
                        </use>
                        <path d="M-4,0h8M0,-4v8" fill="none" stroke="white" stroke-width="1.5" pointer-events="none"/>
                </g>
                <g id="zoomMin">
                        <use xlink:href="#rim" fill="#404040">
                                <set attributeName="fill" to="#808080" begin="zoomminus.mouseover" end="zoomminus.mouseout"/>
                        </use>
                        <path d="M-4,0h8" fill="none" stroke="white" stroke-width="1.5" pointer-events="none"/>
                </g>
                <g id="dirArrow">
                        <path fill="none" stroke="white" stroke-width="1.5" d="M0,-3.0v7 M-2.5,-0.5L0,-3.0L2.5,-0.5"/>
                </g>
               <g id="resetDef">
                       <use xlink:href="#rim2" fill="#404040">
                               <set attributeName="fill" to="#808080" begin="reset.mouseover" end="reset.mouseout"/>
                       </use>
               </g>
        </defs>

<script type="text/javascript">
var viewWidth = 503;
var viewHeight = 129;
var sectionId = 'dynsection-9';
</script>
<script xlink:href="svgpan.js"/>
<svg id="graph" class="graph">
<g id="viewport">
<title>BOOST_AUTO_TEST_CASE</title>
<polygon fill="#ffffff" stroke="transparent" points="-4,4 -4,-125 499,-125 499,4 -4,4"/>
<!-- Node38 -->
<g id="node1" class="node">
<title>Node38</title>
<polygon fill="#bfbfbf" stroke="#000000" points="0,-38.5 0,-57.5 143,-57.5 143,-38.5 0,-38.5"/>
<text text-anchor="middle" x="71.5" y="-45.5" font-family="Helvetica,sans-Serif" font-size="10.00" fill="#000000">BOOST_AUTO_TEST_CASE</text>
</g>
<!-- Node39 -->
<g id="node2" class="node">
<title>Node39</title>
<g id="a_node2"><a xlink:href="namespaceprecice_1_1math_1_1geometry.html#a434742d93f28ccbb5c416ec37adccab3" target="_top" xlink:title="Tests, if a vertex is contained in a hyperrectangle. ">
<polygon fill="#ffffff" stroke="#000000" points="179,-77 179,-107 334,-107 334,-77 179,-77"/>
<text text-anchor="start" x="187" y="-95" font-family="Helvetica,sans-Serif" font-size="10.00" fill="#000000">precice::math::geometry</text>
<text text-anchor="middle" x="256.5" y="-84" font-family="Helvetica,sans-Serif" font-size="10.00" fill="#000000">::containedInHyperrectangle</text>
</a>
</g>
</g>
<!-- Node38&#45;&gt;Node39 -->
<g id="edge1" class="edge">
<title>Node38&#45;&gt;Node39</title>
<path fill="none" stroke="#191970" d="M111.6422,-57.5473C132.5641,-62.5233 158.8143,-68.7666 183.2017,-74.5669"/>
<polygon fill="#191970" stroke="#191970" points="182.6185,-78.0257 193.157,-76.9346 184.2382,-71.2157 182.6185,-78.0257"/>
</g>
<!-- Node42 -->
<g id="node5" class="node">
<title>Node42</title>
<g id="a_node5"><a xlink:href="RTreeTests_8cpp.html#a9849f5c774ff22e557184d988b1cf9ea" target="_top" xlink:title="BOOST_TEST">
<polygon fill="#ffffff" stroke="#000000" points="216.5,-38.5 216.5,-57.5 296.5,-57.5 296.5,-38.5 216.5,-38.5"/>
<text text-anchor="middle" x="256.5" y="-45.5" font-family="Helvetica,sans-Serif" font-size="10.00" fill="#000000">BOOST_TEST</text>
</a>
</g>
</g>
<!-- Node38&#45;&gt;Node42 -->
<g id="edge4" class="edge">
<title>Node38&#45;&gt;Node42</title>
<path fill="none" stroke="#191970" d="M143.0258,-48C164.1418,-48 186.7971,-48 206.2689,-48"/>
<polygon fill="#191970" stroke="#191970" points="206.4317,-51.5001 216.4316,-48 206.4316,-44.5001 206.4317,-51.5001"/>
</g>
<!-- Node43 -->
<g id="node6" class="node">
<title>Node43</title>
<g id="a_node6"><a xlink:href="MPIPortsCommunicationTest_8cpp.html#a5ded28ea5c98cb27bf0cfcf344588d46" target="_top" xlink:title="BOOST_AUTO_TEST_SUITE">
<polygon fill="#ffffff" stroke="#000000" points="183.5,-.5 183.5,-19.5 329.5,-19.5 329.5,-.5 183.5,-.5"/>
<text text-anchor="middle" x="256.5" y="-7.5" font-family="Helvetica,sans-Serif" font-size="10.00" fill="#000000">BOOST_AUTO_TEST_SUITE</text>
</a>
</g>
</g>
<!-- Node38&#45;&gt;Node43 -->
<g id="edge5" class="edge">
<title>Node38&#45;&gt;Node43</title>
<path fill="none" stroke="#191970" d="M118.1833,-38.411C143.1459,-33.2835 174.0642,-26.9328 200.334,-21.5368"/>
<polygon fill="#191970" stroke="#191970" points="201.0611,-24.9606 210.1524,-19.5201 199.6526,-18.1038 201.0611,-24.9606"/>
</g>
<!-- Node40 -->
<g id="node3" class="node">
<title>Node40</title>
<g id="a_node3"><a xlink:href="namespaceprecice_1_1math.html#abdb7ef543f323c2e8a0d48d1774739e6" target="_top" xlink:title="precice::math::greater">
<polygon fill="#ffffff" stroke="#000000" points="370,-101.5 370,-120.5 495,-120.5 495,-101.5 370,-101.5"/>
<text text-anchor="middle" x="432.5" y="-108.5" font-family="Helvetica,sans-Serif" font-size="10.00" fill="#000000">precice::math::greater</text>
</a>
</g>
</g>
<!-- Node39&#45;&gt;Node40 -->
<g id="edge2" class="edge">
<title>Node39&#45;&gt;Node40</title>
<path fill="none" stroke="#191970" d="M334.2085,-100.389C342.7192,-101.3078 351.3602,-102.2406 359.807,-103.1525"/>
<polygon fill="#191970" stroke="#191970" points="359.6742,-106.6584 369.9922,-104.252 360.4256,-99.6988 359.6742,-106.6584"/>
</g>
<!-- Node41 -->
<g id="node4" class="node">
<title>Node41</title>
<g id="a_node4"><a xlink:href="namespaceprecice_1_1math.html#a0e86802cfe992deba131d789d035b5b7" target="_top" xlink:title="Compares two Eigen::MatrixBase for equality up to tolerance. ">
<polygon fill="#ffffff" stroke="#000000" points="371.5,-63.5 371.5,-82.5 493.5,-82.5 493.5,-63.5 371.5,-63.5"/>
<text text-anchor="middle" x="432.5" y="-70.5" font-family="Helvetica,sans-Serif" font-size="10.00" fill="#000000">precice::math::equals</text>
</a>
</g>
</g>
<!-- Node39&#45;&gt;Node41 -->
<g id="edge3" class="edge">
<title>Node39&#45;&gt;Node41</title>
<path fill="none" stroke="#191970" d="M334.2085,-83.611C343.2408,-82.6359 352.4198,-81.645 361.3577,-80.6801"/>
<polygon fill="#191970" stroke="#191970" points="361.7593,-84.1572 371.3258,-79.604 361.0079,-77.1976 361.7593,-84.1572"/>
</g>
</g>
</svg>
        <g id="navigator" transform="translate(0 0)" fill="#404254">
                <rect fill="#f2f5e9" fill-opacity="0.5" stroke="#606060" stroke-width=".5" x="0" y="0" width="60" height="60"/>
                <use id="zoomplus" xlink:href="#zoomPlus" x="17" y="9" onmousedown="handleZoom(evt,'in')"/>
                <use id="zoomminus" xlink:href="#zoomMin" x="42" y="9" onmousedown="handleZoom(evt,'out')"/>
                <use id="reset" xlink:href="#resetDef" x="30" y="36" onmousedown="handleReset()"/>
                <g id="arrowUp" xlink:href="#dirArrow" transform="translate(30 24)" onmousedown="handlePan(0,-1)">
                  <use xlink:href="#rim" fill="#404040">
                        <set attributeName="fill" to="#808080" begin="arrowUp.mouseover" end="arrowUp.mouseout"/>
                  </use>
                  <path fill="none" stroke="white" stroke-width="1.5" d="M0,-3.0v7 M-2.5,-0.5L0,-3.0L2.5,-0.5"/>
                </g>
                <g id="arrowRight" xlink:href="#dirArrow" transform="rotate(90) translate(36 -43)" onmousedown="handlePan(1,0)">
                  <use xlink:href="#rim" fill="#404040">
                        <set attributeName="fill" to="#808080" begin="arrowRight.mouseover" end="arrowRight.mouseout"/>
                  </use>
                  <path fill="none" stroke="white" stroke-width="1.5" d="M0,-3.0v7 M-2.5,-0.5L0,-3.0L2.5,-0.5"/>
                </g>
                <g id="arrowDown" xlink:href="#dirArrow" transform="rotate(180) translate(-30 -48)" onmousedown="handlePan(0,1)">
                  <use xlink:href="#rim" fill="#404040">
                        <set attributeName="fill" to="#808080" begin="arrowDown.mouseover" end="arrowDown.mouseout"/>
                  </use>
                  <path fill="none" stroke="white" stroke-width="1.5" d="M0,-3.0v7 M-2.5,-0.5L0,-3.0L2.5,-0.5"/>
                </g>
                <g id="arrowLeft" xlink:href="#dirArrow" transform="rotate(270) translate(-36 17)" onmousedown="handlePan(-1,0)">
                  <use xlink:href="#rim" fill="#404040">
                        <set attributeName="fill" to="#808080" begin="arrowLeft.mouseover" end="arrowLeft.mouseout"/>
                  </use>
                  <path fill="none" stroke="white" stroke-width="1.5" d="M0,-3.0v7 M-2.5,-0.5L0,-3.0L2.5,-0.5"/>
                </g>
        </g>
        <svg viewBox="0 0 15 15" width="100%" height="30px" preserveAspectRatio="xMaxYMin meet">
         <g id="arrow_out" transform="scale(0.3 0.3)">
          <a xlink:href="GeometryTest_8cpp_aefa3ea7858c7dd5f6fde26e5063416bc_cgraph_org.svg" target="_base">
           <rect id="button" ry="5" rx="5" y="6" x="6" height="38" width="38"
                fill="#f2f5e9" fill-opacity="0.5" stroke="#606060" stroke-width="1.0"/>
           <path id="arrow"
             d="M 11.500037,31.436501 C 11.940474,20.09759 22.043105,11.32322 32.158766,21.979434 L 37.068811,17.246167 C 37.068811,17.246167 37.088388,32 37.088388,32 L 22.160133,31.978069 C 22.160133,31.978069 26.997745,27.140456 26.997745,27.140456 C 18.528582,18.264221 13.291696,25.230495 11.500037,31.436501 z"
             style="fill:#404040;"/>
          </a>
         </g>
        </svg>
</svg>
