<?xml version="1.0" encoding="UTF-8" standalone="no"?>
<!DOCTYPE svg PUBLIC "-//W3C//DTD SVG 1.1//EN"
 "http://www.w3.org/Graphics/SVG/1.1/DTD/svg11.dtd">
<!-- Generated by graphviz version 2.40.1 (20161225.0304)
 -->
<!-- Title: Graphical Class Hierarchy Pages: 1 -->
<svg width="310pt" height="88pt"
 viewBox="0.00 0.00 310.00 88.00" xmlns="http://www.w3.org/2000/svg" xmlns:xlink="http://www.w3.org/1999/xlink">
<g id="graph0" class="graph" transform="scale(1 1) rotate(0) translate(4 84)">
<title>Graphical Class Hierarchy</title>
<polygon fill="#ffffff" stroke="transparent" points="-4,4 -4,-84 306,-84 306,4 -4,4"/>
<!-- Node0 -->
<g id="node1" class="node">
<title>Node0</title>
<g id="a_node1"><a xlink:href="classprecice_1_1m2n_1_1DistributedComFactory.html" target="_top" xlink:title="precice::m2n::Distributed\lComFactory">
<polygon fill="#ffffff" stroke="#000000" points="0,-24.5 0,-54.5 126,-54.5 126,-24.5 0,-24.5"/>
<text text-anchor="start" x="8" y="-42.5" font-family="Helvetica,sans-Serif" font-size="10.00" fill="#000000">precice::m2n::Distributed</text>
<text text-anchor="middle" x="63" y="-31.5" font-family="Helvetica,sans-Serif" font-size="10.00" fill="#000000">ComFactory</text>
</a>
</g>
</g>
<!-- Node1 -->
<g id="node2" class="node">
<title>Node1</title>
<g id="a_node2"><a xlink:href="classprecice_1_1m2n_1_1GatherScatterComFactory.html" target="_top" xlink:title="precice::m2n::GatherScatter\lComFactory">
<polygon fill="#ffffff" stroke="#000000" points="162,-49.5 162,-79.5 302,-79.5 302,-49.5 162,-49.5"/>
<text text-anchor="start" x="170" y="-67.5" font-family="Helvetica,sans-Serif" font-size="10.00" fill="#000000">precice::m2n::GatherScatter</text>
<text text-anchor="middle" x="232" y="-56.5" font-family="Helvetica,sans-Serif" font-size="10.00" fill="#000000">ComFactory</text>
</a>
</g>
</g>
<!-- Node0&#45;&gt;Node1 -->
<g id="edge1" class="edge">
<title>Node0&#45;&gt;Node1</title>
<path fill="none" stroke="#191970" d="M136.3229,-50.3466C144.8457,-51.6073 153.5228,-52.891 161.9993,-54.1449"/>
<polygon fill="#191970" stroke="#191970" points="136.8147,-46.8813 126.4102,-48.8802 135.7903,-53.806 136.8147,-46.8813"/>
</g>
<!-- Node2 -->
<g id="node3" class="node">
<title>Node2</title>
<g id="a_node3"><a xlink:href="classprecice_1_1m2n_1_1PointToPointComFactory.html" target="_top" xlink:title="precice::m2n::PointToPoint\lComFactory">
<polygon fill="#ffffff" stroke="#000000" points="164.5,-.5 164.5,-30.5 299.5,-30.5 299.5,-.5 164.5,-.5"/>
<text text-anchor="start" x="172.5" y="-18.5" font-family="Helvetica,sans-Serif" font-size="10.00" fill="#000000">precice::m2n::PointToPoint</text>
<text text-anchor="middle" x="232" y="-7.5" font-family="Helvetica,sans-Serif" font-size="10.00" fill="#000000">ComFactory</text>
</a>
</g>
</g>
<!-- Node0&#45;&gt;Node2 -->
<g id="edge2" class="edge">
<title>Node0&#45;&gt;Node2</title>
<path fill="none" stroke="#191970" d="M136.3767,-29.0796C145.6473,-27.7631 155.0996,-26.4208 164.2768,-25.1175"/>
<polygon fill="#191970" stroke="#191970" points="135.8187,-25.6237 126.4102,-30.495 136.803,-32.5541 135.8187,-25.6237"/>
</g>
</g>
</svg>
