<?xml version="1.0" encoding="UTF-8" standalone="no"?>
<!DOCTYPE svg PUBLIC "-//W3C//DTD SVG 1.1//EN"
 "http://www.w3.org/Graphics/SVG/1.1/DTD/svg11.dtd">
<!-- Generated by graphviz version 2.40.1 (20161225.0304)
 -->
<!-- Title: src/mapping/config/MappingConfiguration.cpp Pages: 1 -->
<svg width="2863pt" height="632pt"
 viewBox="0.00 0.00 2862.82 632.00" xmlns="http://www.w3.org/2000/svg" xmlns:xlink="http://www.w3.org/1999/xlink">
<g id="graph0" class="graph" transform="scale(1 1) rotate(0) translate(4 628)">
<title>src/mapping/config/MappingConfiguration.cpp</title>
<polygon fill="#ffffff" stroke="transparent" points="-4,4 -4,-628 2858.8151,-628 2858.8151,4 -4,4"/>
<!-- Node0 -->
<g id="node1" class="node">
<title>Node0</title>
<polygon fill="#bfbfbf" stroke="#000000" points="1426.0205,-593.5 1426.0205,-623.5 1559.0205,-623.5 1559.0205,-593.5 1426.0205,-593.5"/>
<text text-anchor="start" x="1434.0205" y="-611.5" font-family="Helvetica,sans-Serif" font-size="10.00" fill="#000000">src/mapping/config</text>
<text text-anchor="middle" x="1492.5205" y="-600.5" font-family="Helvetica,sans-Serif" font-size="10.00" fill="#000000">/MappingConfiguration.cpp</text>
</g>
<!-- Node1 -->
<g id="node2" class="node">
<title>Node1</title>
<g id="a_node2"><a xlink:href="MappingConfiguration_8hpp.html" target="_top" xlink:title="MappingConfiguration.hpp">
<polygon fill="#ffffff" stroke="#000000" points="2404.5205,-465 2404.5205,-484 2534.5205,-484 2534.5205,-465 2404.5205,-465"/>
<text text-anchor="middle" x="2469.5205" y="-472" font-family="Helvetica,sans-Serif" font-size="10.00" fill="#000000">MappingConfiguration.hpp</text>
</a>
</g>
</g>
<!-- Node0&#45;&gt;Node1 -->
<g id="edge1" class="edge">
<title>Node0&#45;&gt;Node1</title>
<path fill="none" stroke="#191970" d="M1559.0739,-607.4838C1754.1794,-604.1155 2315.7204,-591.5022 2390.5205,-557 2420.5231,-543.161 2444.9355,-512.3901 2458.3256,-492.589"/>
<polygon fill="#191970" stroke="#191970" points="2461.3174,-494.4084 2463.8365,-484.1174 2455.4496,-490.5914 2461.3174,-494.4084"/>
</g>
<!-- Node5 -->
<g id="node6" class="node">
<title>Node5</title>
<polygon fill="#ffffff" stroke="#bfbfbf" points="2048.5205,-123.5 2048.5205,-142.5 2100.5205,-142.5 2100.5205,-123.5 2048.5205,-123.5"/>
<text text-anchor="middle" x="2074.5205" y="-130.5" font-family="Helvetica,sans-Serif" font-size="10.00" fill="#000000">memory</text>
</g>
<!-- Node0&#45;&gt;Node5 -->
<g id="edge58" class="edge">
<title>Node0&#45;&gt;Node5</title>
<path fill="none" stroke="#191970" d="M1559.2639,-606.8398C1772.9909,-601.2916 2431.9437,-582.3069 2524.5205,-557 2600.5558,-536.2149 2681.5205,-553.325 2681.5205,-474.5 2681.5205,-474.5 2681.5205,-474.5 2681.5205,-245 2681.5205,-232.5763 2760.0825,-237.0944 2499.5205,-179 2357.9853,-147.4436 2184.9216,-137.2607 2110.9075,-134.2079"/>
<polygon fill="#191970" stroke="#191970" points="2110.8514,-130.7031 2100.7216,-133.8075 2110.5764,-137.6977 2110.8514,-130.7031"/>
</g>
<!-- Node6 -->
<g id="node7" class="node">
<title>Node6</title>
<g id="a_node7"><a xlink:href="LogMacros_8hpp.html" target="_top" xlink:title="LogMacros.hpp">
<polygon fill="#ffffff" stroke="#000000" points="717.0205,-123.5 717.0205,-142.5 800.0205,-142.5 800.0205,-123.5 717.0205,-123.5"/>
<text text-anchor="middle" x="758.5205" y="-130.5" font-family="Helvetica,sans-Serif" font-size="10.00" fill="#000000">LogMacros.hpp</text>
</a>
</g>
</g>
<!-- Node0&#45;&gt;Node6 -->
<g id="edge62" class="edge">
<title>Node0&#45;&gt;Node6</title>
<path fill="none" stroke="#191970" d="M1425.9238,-606.9185C1190.0362,-601.1412 402.4504,-580.2947 291.5205,-557 192.5734,-536.2217 79.5205,-575.6053 79.5205,-474.5 79.5205,-474.5 79.5205,-474.5 79.5205,-301 79.5205,-171.9781 547.3389,-141.3963 706.3512,-134.7281"/>
<polygon fill="#191970" stroke="#191970" points="706.9631,-138.2063 716.8136,-134.3054 706.6805,-131.2121 706.9631,-138.2063"/>
</g>
<!-- Node19 -->
<g id="node19" class="node">
<title>Node19</title>
<g id="a_node19"><a xlink:href="XMLTag_8hpp.html" target="_top" xlink:title="xml/XMLTag.hpp">
<polygon fill="#ffffff" stroke="#ff0000" points="2280.0205,-403.5 2280.0205,-422.5 2371.0205,-422.5 2371.0205,-403.5 2280.0205,-403.5"/>
<text text-anchor="middle" x="2325.5205" y="-410.5" font-family="Helvetica,sans-Serif" font-size="10.00" fill="#000000">xml/XMLTag.hpp</text>
</a>
</g>
</g>
<!-- Node0&#45;&gt;Node19 -->
<g id="edge153" class="edge">
<title>Node0&#45;&gt;Node19</title>
<path fill="none" stroke="#191970" d="M1559.3363,-606.9734C1756.7658,-602.1398 2325.4237,-585.768 2352.5205,-557 2382.3842,-525.2944 2363.9444,-501.0307 2352.5205,-459 2349.8029,-449.0015 2344.303,-438.9556 2338.9721,-430.8139"/>
<polygon fill="#191970" stroke="#191970" points="2341.7815,-428.7239 2333.1824,-422.5346 2336.045,-432.7354 2341.7815,-428.7239"/>
</g>
<!-- Node20 -->
<g id="node20" class="node">
<title>Node20</title>
<polygon fill="#ffffff" stroke="#bfbfbf" points="523.0205,-291.5 523.0205,-310.5 588.0205,-310.5 588.0205,-291.5 523.0205,-291.5"/>
<text text-anchor="middle" x="555.5205" y="-298.5" font-family="Helvetica,sans-Serif" font-size="10.00" fill="#000000">Eigen/Core</text>
</g>
<!-- Node0&#45;&gt;Node20 -->
<g id="edge55" class="edge">
<title>Node0&#45;&gt;Node20</title>
<path fill="none" stroke="#191970" d="M1425.9522,-607.4964C1210.1597,-603.9215 542.0289,-590.2042 510.5205,-557 446.7339,-489.7805 514.2368,-365.6771 543.4433,-319.2025"/>
<polygon fill="#191970" stroke="#191970" points="546.4158,-321.051 548.8789,-310.7465 540.5274,-317.2659 546.4158,-321.051"/>
</g>
<!-- Node23 -->
<g id="node22" class="node">
<title>Node23</title>
<g id="a_node22"><a xlink:href="ConfigParser_8hpp.html" target="_top" xlink:title="xml/ConfigParser.hpp">
<polygon fill="#ffffff" stroke="#000000" points="2270.0205,-347.5 2270.0205,-366.5 2381.0205,-366.5 2381.0205,-347.5 2270.0205,-347.5"/>
<text text-anchor="middle" x="2325.5205" y="-354.5" font-family="Helvetica,sans-Serif" font-size="10.00" fill="#000000">xml/ConfigParser.hpp</text>
</a>
</g>
</g>
<!-- Node0&#45;&gt;Node23 -->
<g id="edge151" class="edge">
<title>Node0&#45;&gt;Node23</title>
<path fill="none" stroke="#191970" d="M1559.3286,-606.5443C1758.7895,-600.4626 2341.265,-580.8525 2423.5205,-557 2482.1869,-539.9879 2512.5993,-542.6787 2543.5205,-490 2582.5577,-423.4944 2467.9053,-385.9633 2390.3916,-368.7358"/>
<polygon fill="#191970" stroke="#191970" points="2390.7059,-365.2233 2380.1929,-366.5374 2389.2308,-372.0661 2390.7059,-365.2233"/>
</g>
<!-- Node24 -->
<g id="node23" class="node">
<title>Node24</title>
<g id="a_node23"><a xlink:href="XMLAttribute_8hpp.html" target="_top" xlink:title="xml/XMLAttribute.hpp">
<polygon fill="#ffffff" stroke="#ff0000" points="2064.0205,-347.5 2064.0205,-366.5 2175.0205,-366.5 2175.0205,-347.5 2064.0205,-347.5"/>
<text text-anchor="middle" x="2119.5205" y="-354.5" font-family="Helvetica,sans-Serif" font-size="10.00" fill="#000000">xml/XMLAttribute.hpp</text>
</a>
</g>
</g>
<!-- Node0&#45;&gt;Node24 -->
<g id="edge152" class="edge">
<title>Node0&#45;&gt;Node24</title>
<path fill="none" stroke="#191970" d="M1559.1676,-605.823C1703.3529,-599.6198 2040.2136,-582.7938 2151.5205,-557 2230.2331,-538.7595 2275.1201,-556.8371 2320.5205,-490 2328.2622,-478.6029 2327.729,-470.7416 2320.5205,-459 2310.8112,-443.185 2205.1287,-394.8028 2151.0343,-370.8008"/>
<polygon fill="#191970" stroke="#191970" points="2152.1301,-367.4585 2141.5688,-366.6162 2149.2997,-373.8608 2152.1301,-367.4585"/>
</g>
<!-- Node25 -->
<g id="node24" class="node">
<title>Node25</title>
<polygon fill="#ffffff" stroke="#bfbfbf" points="2327.5205,-291.5 2327.5205,-310.5 2383.5205,-310.5 2383.5205,-291.5 2327.5205,-291.5"/>
<text text-anchor="middle" x="2355.5205" y="-298.5" font-family="Helvetica,sans-Serif" font-size="10.00" fill="#000000">algorithm</text>
</g>
<!-- Node0&#45;&gt;Node25 -->
<g id="edge56" class="edge">
<title>Node0&#45;&gt;Node25</title>
<path fill="none" stroke="#191970" d="M1559.2864,-607.4931C1767.5333,-604.0105 2396.3692,-590.7844 2481.5205,-557 2533.5223,-536.3679 2585.2108,-509.2023 2560.5205,-459 2524.5283,-385.8177 2436.5302,-336.9867 2388.3583,-314.7625"/>
<polygon fill="#191970" stroke="#191970" points="2389.5546,-311.4628 2378.9993,-310.5488 2386.6808,-317.8457 2389.5546,-311.4628"/>
</g>
<!-- Node29 -->
<g id="node25" class="node">
<title>Node29</title>
<polygon fill="#ffffff" stroke="#bfbfbf" points="1797.5205,-291.5 1797.5205,-310.5 1837.5205,-310.5 1837.5205,-291.5 1797.5205,-291.5"/>
<text text-anchor="middle" x="1817.5205" y="-298.5" font-family="Helvetica,sans-Serif" font-size="10.00" fill="#000000">utility</text>
</g>
<!-- Node0&#45;&gt;Node29 -->
<g id="edge61" class="edge">
<title>Node0&#45;&gt;Node29</title>
<path fill="none" stroke="#191970" d="M1559.4965,-603.3087C1685.5624,-591.9699 1950.2482,-560.1811 2003.5205,-490 2059.5162,-416.2311 1912.6448,-341.6887 1847.1659,-313.143"/>
<polygon fill="#191970" stroke="#191970" points="1848.3342,-309.836 1837.7638,-309.1168 1845.5786,-316.2708 1848.3342,-309.836"/>
</g>
<!-- Node30 -->
<g id="node26" class="node">
<title>Node30</title>
<g id="a_node26"><a xlink:href="assertion_8hpp.html" target="_top" xlink:title="utils/assertion.hpp">
<polygon fill="#ffffff" stroke="#ff0000" points="705.5205,-291.5 705.5205,-310.5 801.5205,-310.5 801.5205,-291.5 705.5205,-291.5"/>
<text text-anchor="middle" x="753.5205" y="-298.5" font-family="Helvetica,sans-Serif" font-size="10.00" fill="#000000">utils/assertion.hpp</text>
</a>
</g>
</g>
<!-- Node0&#45;&gt;Node30 -->
<g id="edge150" class="edge">
<title>Node0&#45;&gt;Node30</title>
<path fill="none" stroke="#191970" d="M1425.9537,-607.1442C1207.9003,-602.4448 523.6127,-585.5613 428.5205,-557 372.6018,-540.2046 344.42,-540.7327 315.5205,-490 288.3194,-442.2489 328.1076,-374.0006 364.5205,-347 390.5305,-327.7133 593.1528,-311.6631 695.1985,-304.709"/>
<polygon fill="#191970" stroke="#191970" points="695.6033,-308.1897 705.3452,-304.0249 695.1324,-301.2056 695.6033,-308.1897"/>
</g>
<!-- Node36 -->
<g id="node27" class="node">
<title>Node36</title>
<g id="a_node27"><a xlink:href="Parallel_8hpp.html" target="_top" xlink:title="Parallel.hpp">
<polygon fill="#ffffff" stroke="#ff0000" points="885.5205,-235.5 885.5205,-254.5 953.5205,-254.5 953.5205,-235.5 885.5205,-235.5"/>
<text text-anchor="middle" x="919.5205" y="-242.5" font-family="Helvetica,sans-Serif" font-size="10.00" fill="#000000">Parallel.hpp</text>
</a>
</g>
</g>
<!-- Node0&#45;&gt;Node36 -->
<g id="edge148" class="edge">
<title>Node0&#45;&gt;Node36</title>
<path fill="none" stroke="#191970" d="M1425.8534,-606.5935C1237.1028,-600.8886 710.928,-582.7383 684.5205,-557 581.1572,-456.2558 812.1261,-307.3551 892.9291,-260.0191"/>
<polygon fill="#191970" stroke="#191970" points="895.1081,-262.8016 902.0061,-254.7599 891.5988,-256.7448 895.1081,-262.8016"/>
</g>
<!-- Node41 -->
<g id="node29" class="node">
<title>Node41</title>
<polygon fill="#ffffff" stroke="#bfbfbf" points="195.0205,-291.5 195.0205,-310.5 224.0205,-310.5 224.0205,-291.5 195.0205,-291.5"/>
<text text-anchor="middle" x="209.5205" y="-298.5" font-family="Helvetica,sans-Serif" font-size="10.00" fill="#000000">list</text>
</g>
<!-- Node0&#45;&gt;Node41 -->
<g id="edge57" class="edge">
<title>Node0&#45;&gt;Node41</title>
<path fill="none" stroke="#191970" d="M1425.9652,-607.1231C1187.9126,-601.9908 390.3054,-582.9286 342.5205,-557 251.244,-507.4724 238.2618,-465.8781 206.5205,-367 201.6999,-351.9833 202.9232,-334.0577 205.0885,-320.6801"/>
<polygon fill="#191970" stroke="#191970" points="208.5607,-321.1581 207.017,-310.6764 201.6873,-319.833 208.5607,-321.1581"/>
</g>
<!-- Node42 -->
<g id="node30" class="node">
<title>Node42</title>
<polygon fill="#ffffff" stroke="#bfbfbf" points="1579.5205,-532 1579.5205,-551 1631.5205,-551 1631.5205,-532 1579.5205,-532"/>
<text text-anchor="middle" x="1605.5205" y="-539" font-family="Helvetica,sans-Serif" font-size="10.00" fill="#000000">ostream</text>
</g>
<!-- Node0&#45;&gt;Node42 -->
<g id="edge59" class="edge">
<title>Node0&#45;&gt;Node42</title>
<path fill="none" stroke="#191970" d="M1517.8799,-593.4639C1536.5836,-582.3741 1561.9086,-567.3584 1580.5256,-556.32"/>
<polygon fill="#191970" stroke="#191970" points="1582.5062,-559.2147 1589.3228,-551.1039 1578.9361,-553.1935 1582.5062,-559.2147"/>
</g>
<!-- Node43 -->
<g id="node31" class="node">
<title>Node43</title>
<polygon fill="#ffffff" stroke="#bfbfbf" points="1650.0205,-532 1650.0205,-551 1699.0205,-551 1699.0205,-532 1650.0205,-532"/>
<text text-anchor="middle" x="1674.5205" y="-539" font-family="Helvetica,sans-Serif" font-size="10.00" fill="#000000">string.h</text>
</g>
<!-- Node0&#45;&gt;Node43 -->
<g id="edge60" class="edge">
<title>Node0&#45;&gt;Node43</title>
<path fill="none" stroke="#191970" d="M1539.2593,-593.4731C1568.5909,-583.7389 1607.062,-570.4143 1640.5205,-557 1641.9129,-556.4417 1643.3312,-555.8579 1644.7594,-555.2576"/>
<polygon fill="#191970" stroke="#191970" points="1646.393,-558.3634 1654.1572,-551.1546 1643.5921,-551.9482 1646.393,-558.3634"/>
</g>
<!-- Node44 -->
<g id="node32" class="node">
<title>Node44</title>
<g id="a_node32"><a xlink:href="Mapping_8hpp.html" target="_top" xlink:title="mapping/Mapping.hpp">
<polygon fill="#ffffff" stroke="#000000" points="773.5205,-403.5 773.5205,-422.5 885.5205,-422.5 885.5205,-403.5 773.5205,-403.5"/>
<text text-anchor="middle" x="829.5205" y="-410.5" font-family="Helvetica,sans-Serif" font-size="10.00" fill="#000000">mapping/Mapping.hpp</text>
</a>
</g>
</g>
<!-- Node0&#45;&gt;Node44 -->
<g id="edge63" class="edge">
<title>Node0&#45;&gt;Node44</title>
<path fill="none" stroke="#191970" d="M1425.8119,-605.7724C1264.6244,-598.8577 863.0513,-579.579 806.5205,-557 753.7801,-535.9349 693.4476,-506.5369 724.5205,-459 734.8107,-443.2576 751.8116,-432.8694 769.1667,-426.0275"/>
<polygon fill="#191970" stroke="#191970" points="770.5676,-429.2436 778.8044,-422.5799 768.2099,-422.6526 770.5676,-429.2436"/>
</g>
<!-- Node45 -->
<g id="node33" class="node">
<title>Node45</title>
<g id="a_node33"><a xlink:href="Mesh_8hpp.html" target="_top" xlink:title="mesh/Mesh.hpp">
<polygon fill="#ffffff" stroke="#ff0000" points="786.5205,-347.5 786.5205,-366.5 872.5205,-366.5 872.5205,-347.5 786.5205,-347.5"/>
<text text-anchor="middle" x="829.5205" y="-354.5" font-family="Helvetica,sans-Serif" font-size="10.00" fill="#000000">mesh/Mesh.hpp</text>
</a>
</g>
</g>
<!-- Node0&#45;&gt;Node45 -->
<g id="edge137" class="edge">
<title>Node0&#45;&gt;Node45</title>
<path fill="none" stroke="#191970" d="M1425.9772,-606.4169C1241.493,-600.3401 735.3621,-581.5031 709.5205,-557 659.3495,-509.4278 681.3546,-450.5776 731.5205,-403 747.0818,-388.2416 768.2416,-377.5005 786.9171,-370.1277"/>
<polygon fill="#191970" stroke="#191970" points="788.2737,-373.3572 796.4139,-366.5758 785.8215,-366.8007 788.2737,-373.3572"/>
</g>
<!-- Node63 -->
<g id="node34" class="node">
<title>Node63</title>
<g id="a_node34"><a xlink:href="NearestNeighborMapping_8hpp.html" target="_top" xlink:title="mapping/NearestNeighborMapping.hpp">
<polygon fill="#ffffff" stroke="#000000" points="2126.0205,-465 2126.0205,-484 2311.0205,-484 2311.0205,-465 2126.0205,-465"/>
<text text-anchor="middle" x="2218.5205" y="-472" font-family="Helvetica,sans-Serif" font-size="10.00" fill="#000000">mapping/NearestNeighborMapping.hpp</text>
</a>
</g>
</g>
<!-- Node0&#45;&gt;Node63 -->
<g id="edge76" class="edge">
<title>Node0&#45;&gt;Node63</title>
<path fill="none" stroke="#191970" d="M1559.0229,-607.741C1697.6946,-605.3883 2013.0981,-595.8052 2112.5205,-557 2149.3701,-542.6174 2183.9256,-511.0729 2203.0481,-491.4246"/>
<polygon fill="#191970" stroke="#191970" points="2205.6948,-493.7202 2210.0389,-484.0568 2200.6168,-488.902 2205.6948,-493.7202"/>
</g>
<!-- Node64 -->
<g id="node35" class="node">
<title>Node64</title>
<g id="a_node35"><a xlink:href="NearestProjectionMapping_8hpp.html" target="_top" xlink:title="mapping/NearestProjection\lMapping.hpp">
<polygon fill="#ffffff" stroke="#000000" points="324.5205,-459.5 324.5205,-489.5 458.5205,-489.5 458.5205,-459.5 324.5205,-459.5"/>
<text text-anchor="start" x="332.5205" y="-477.5" font-family="Helvetica,sans-Serif" font-size="10.00" fill="#000000">mapping/NearestProjection</text>
<text text-anchor="middle" x="391.5205" y="-466.5" font-family="Helvetica,sans-Serif" font-size="10.00" fill="#000000">Mapping.hpp</text>
</a>
</g>
</g>
<!-- Node0&#45;&gt;Node64 -->
<g id="edge81" class="edge">
<title>Node0&#45;&gt;Node64</title>
<path fill="none" stroke="#191970" d="M1425.7782,-607.9334C1212.9122,-605.7395 558.9885,-595.8748 472.5205,-557 444.6127,-544.453 421.2199,-517.5952 406.8608,-497.9191"/>
<polygon fill="#191970" stroke="#191970" points="409.7118,-495.8888 401.0942,-489.7254 403.9874,-499.9175 409.7118,-495.8888"/>
</g>
<!-- Node70 -->
<g id="node37" class="node">
<title>Node70</title>
<g id="a_node37"><a xlink:href="PetRadialBasisFctMapping_8hpp.html" target="_top" xlink:title="mapping/PetRadialBasisFct\lMapping.hpp">
<polygon fill="#ffffff" stroke="#000000" points="1423.5205,-526.5 1423.5205,-556.5 1561.5205,-556.5 1561.5205,-526.5 1423.5205,-526.5"/>
<text text-anchor="start" x="1431.5205" y="-544.5" font-family="Helvetica,sans-Serif" font-size="10.00" fill="#000000">mapping/PetRadialBasisFct</text>
<text text-anchor="middle" x="1492.5205" y="-533.5" font-family="Helvetica,sans-Serif" font-size="10.00" fill="#000000">Mapping.hpp</text>
</a>
</g>
</g>
<!-- Node0&#45;&gt;Node70 -->
<g id="edge93" class="edge">
<title>Node0&#45;&gt;Node70</title>
<path fill="none" stroke="#191970" d="M1492.5205,-593.2967C1492.5205,-585.5013 1492.5205,-575.7991 1492.5205,-566.9064"/>
<polygon fill="#191970" stroke="#191970" points="1496.0206,-566.6431 1492.5205,-556.6432 1489.0206,-566.6432 1496.0206,-566.6431"/>
</g>
<!-- Node74 -->
<g id="node41" class="node">
<title>Node74</title>
<g id="a_node41"><a xlink:href="BasisFunctions_8hpp.html" target="_top" xlink:title="impl/BasisFunctions.hpp">
<polygon fill="#ffffff" stroke="#000000" points="1310.5205,-465 1310.5205,-484 1434.5205,-484 1434.5205,-465 1310.5205,-465"/>
<text text-anchor="middle" x="1372.5205" y="-472" font-family="Helvetica,sans-Serif" font-size="10.00" fill="#000000">impl/BasisFunctions.hpp</text>
</a>
</g>
</g>
<!-- Node0&#45;&gt;Node74 -->
<g id="edge136" class="edge">
<title>Node0&#45;&gt;Node74</title>
<path fill="none" stroke="#191970" d="M1462.0031,-593.2954C1446.3426,-584.3558 1427.8169,-571.8855 1414.5205,-557 1397.7726,-538.2504 1385.8107,-511.6124 1379.039,-493.7261"/>
<polygon fill="#191970" stroke="#191970" points="1382.2546,-492.325 1375.5757,-484.1005 1375.668,-494.6949 1382.2546,-492.325"/>
</g>
<!-- Node84 -->
<g id="node46" class="node">
<title>Node84</title>
<g id="a_node46"><a xlink:href="Petsc_8hpp.html" target="_top" xlink:title="utils/Petsc.hpp">
<polygon fill="#ffffff" stroke="#ff0000" points="985.5205,-347.5 985.5205,-366.5 1067.5205,-366.5 1067.5205,-347.5 985.5205,-347.5"/>
<text text-anchor="middle" x="1026.5205" y="-354.5" font-family="Helvetica,sans-Serif" font-size="10.00" fill="#000000">utils/Petsc.hpp</text>
</a>
</g>
</g>
<!-- Node0&#45;&gt;Node84 -->
<g id="edge149" class="edge">
<title>Node0&#45;&gt;Node84</title>
<path fill="none" stroke="#191970" d="M1425.7546,-607.7968C1252.4416,-605.4308 797.812,-595.577 742.5205,-557 705.1637,-530.936 695.8709,-501.3988 712.5205,-459 724.9351,-427.3858 734.6832,-419.227 764.5205,-403 800.046,-383.6795 909.581,-369.2655 975.2391,-362.0869"/>
<polygon fill="#191970" stroke="#191970" points="975.8131,-365.5454 985.3821,-360.9972 975.0654,-358.5855 975.8131,-365.5454"/>
</g>
<!-- Node92 -->
<g id="node48" class="node">
<title>Node92</title>
<g id="a_node48"><a xlink:href="RadialBasisFctMapping_8hpp.html" target="_top" xlink:title="mapping/RadialBasisFctMapping.hpp">
<polygon fill="#ffffff" stroke="#ff0000" points="816.0205,-532 816.0205,-551 995.0205,-551 995.0205,-532 816.0205,-532"/>
<text text-anchor="middle" x="905.5205" y="-539" font-family="Helvetica,sans-Serif" font-size="10.00" fill="#000000">mapping/RadialBasisFctMapping.hpp</text>
</a>
</g>
</g>
<!-- Node0&#45;&gt;Node92 -->
<g id="edge126" class="edge">
<title>Node0&#45;&gt;Node92</title>
<path fill="none" stroke="#191970" d="M1425.7556,-600.8795C1321.2259,-588.9485 1118.5905,-565.8197 999.4103,-552.2166"/>
<polygon fill="#191970" stroke="#191970" points="999.5391,-548.7086 989.2067,-551.0519 998.7452,-555.6635 999.5391,-548.7086"/>
</g>
<!-- Node104 -->
<g id="node50" class="node">
<title>Node104</title>
<g id="a_node50"><a xlink:href="MeshConfiguration_8hpp.html" target="_top" xlink:title="mesh/config/MeshConfiguration.hpp">
<polygon fill="#ffffff" stroke="#ff0000" points="1821.0205,-465 1821.0205,-484 1994.0205,-484 1994.0205,-465 1821.0205,-465"/>
<text text-anchor="middle" x="1907.5205" y="-472" font-family="Helvetica,sans-Serif" font-size="10.00" fill="#000000">mesh/config/MeshConfiguration.hpp</text>
</a>
</g>
</g>
<!-- Node0&#45;&gt;Node104 -->
<g id="edge138" class="edge">
<title>Node0&#45;&gt;Node104</title>
<path fill="none" stroke="#191970" d="M1559.4513,-595.4146C1602.5026,-586.296 1659.3803,-572.9325 1708.5205,-557 1770.2446,-536.9875 1839.7069,-506.2082 1878.0686,-488.4476"/>
<polygon fill="#191970" stroke="#191970" points="1879.9943,-491.4116 1887.58,-484.0151 1877.0375,-485.0668 1879.9943,-491.4116"/>
</g>
<!-- Node2 -->
<g id="node3" class="node">
<title>Node2</title>
<polygon fill="#ffffff" stroke="#bfbfbf" points="1322.0205,-.5 1322.0205,-19.5 1363.0205,-19.5 1363.0205,-.5 1322.0205,-.5"/>
<text text-anchor="middle" x="1342.5205" y="-7.5" font-family="Helvetica,sans-Serif" font-size="10.00" fill="#000000">string</text>
</g>
<!-- Node1&#45;&gt;Node2 -->
<g id="edge2" class="edge">
<title>Node1&#45;&gt;Node2</title>
<path fill="none" stroke="#191970" d="M2518.7022,-464.9854C2600.9585,-447.651 2757.5205,-407.9637 2757.5205,-357 2757.5205,-357 2757.5205,-357 2757.5205,-133 2757.5205,-117.309 3073.6937,-163.2143 2564.5205,-56 2444.9123,-30.8146 1551.5796,-13.7162 1373.389,-10.5364"/>
<polygon fill="#191970" stroke="#191970" points="1373.437,-7.0368 1363.3765,-10.359 1373.3129,-14.0357 1373.437,-7.0368"/>
</g>
<!-- Node3 -->
<g id="node4" class="node">
<title>Node3</title>
<polygon fill="#ffffff" stroke="#bfbfbf" points="1889.5205,-179.5 1889.5205,-198.5 1933.5205,-198.5 1933.5205,-179.5 1889.5205,-179.5"/>
<text text-anchor="middle" x="1911.5205" y="-186.5" font-family="Helvetica,sans-Serif" font-size="10.00" fill="#000000">vector</text>
</g>
<!-- Node1&#45;&gt;Node3 -->
<g id="edge3" class="edge">
<title>Node1&#45;&gt;Node3</title>
<path fill="none" stroke="#191970" d="M2468.4487,-464.7767C2464.5425,-434.1827 2448.2353,-339.0746 2392.5205,-291 2324.1522,-232.0071 2040.2635,-200.856 1943.7799,-191.8199"/>
<polygon fill="#191970" stroke="#191970" points="1944.0191,-188.3273 1933.7405,-190.8967 1943.3779,-195.2978 1944.0191,-188.3273"/>
</g>
<!-- Node4 -->
<g id="node5" class="node">
<title>Node4</title>
<g id="a_node5"><a xlink:href="Logger_8hpp.html" target="_top" xlink:title="logging/Logger.hpp">
<polygon fill="#ffffff" stroke="#000000" points="1331.5205,-179.5 1331.5205,-198.5 1429.5205,-198.5 1429.5205,-179.5 1331.5205,-179.5"/>
<text text-anchor="middle" x="1380.5205" y="-186.5" font-family="Helvetica,sans-Serif" font-size="10.00" fill="#000000">logging/Logger.hpp</text>
</a>
</g>
</g>
<!-- Node1&#45;&gt;Node4 -->
<g id="edge4" class="edge">
<title>Node1&#45;&gt;Node4</title>
<path fill="none" stroke="#191970" d="M2404.3738,-467.6609C2206.0818,-446.704 1621.0741,-383.7843 1583.5205,-367 1539.9919,-347.5452 1437.4486,-246.6017 1397.1749,-205.97"/>
<polygon fill="#191970" stroke="#191970" points="1399.503,-203.3464 1389.9863,-198.6898 1394.522,-208.2647 1399.503,-203.3464"/>
</g>
<!-- Node17 -->
<g id="node17" class="node">
<title>Node17</title>
<g id="a_node17"><a xlink:href="mapping_2SharedPointer_8hpp.html" target="_top" xlink:title="mapping/SharedPointer.hpp">
<polygon fill="#ffffff" stroke="#000000" points="2516.0205,-235.5 2516.0205,-254.5 2653.0205,-254.5 2653.0205,-235.5 2516.0205,-235.5"/>
<text text-anchor="middle" x="2584.5205" y="-242.5" font-family="Helvetica,sans-Serif" font-size="10.00" fill="#000000">mapping/SharedPointer.hpp</text>
</a>
</g>
</g>
<!-- Node1&#45;&gt;Node17 -->
<g id="edge20" class="edge">
<title>Node1&#45;&gt;Node17</title>
<path fill="none" stroke="#191970" d="M2489.0899,-464.9822C2505.0288,-456.2326 2526.8907,-441.7792 2539.5205,-423 2573.0825,-373.097 2581.6167,-300.067 2583.7843,-265.1049"/>
<polygon fill="#191970" stroke="#191970" points="2587.2959,-264.9591 2584.3022,-254.796 2580.3047,-264.6077 2587.2959,-264.9591"/>
</g>
<!-- Node18 -->
<g id="node18" class="node">
<title>Node18</title>
<g id="a_node18"><a xlink:href="mesh_2SharedPointer_8hpp.html" target="_top" xlink:title="mesh/SharedPointer.hpp">
<polygon fill="#ffffff" stroke="#000000" points="1199.5205,-291.5 1199.5205,-310.5 1323.5205,-310.5 1323.5205,-291.5 1199.5205,-291.5"/>
<text text-anchor="middle" x="1261.5205" y="-298.5" font-family="Helvetica,sans-Serif" font-size="10.00" fill="#000000">mesh/SharedPointer.hpp</text>
</a>
</g>
</g>
<!-- Node1&#45;&gt;Node18 -->
<g id="edge22" class="edge">
<title>Node1&#45;&gt;Node18</title>
<path fill="none" stroke="#191970" d="M2404.2057,-467.3791C2207.0401,-445.8209 1626.1912,-381.8315 1541.5205,-367 1457.4646,-352.2762 1360.8794,-327.8053 1305.9353,-313.1578"/>
<polygon fill="#191970" stroke="#191970" points="1306.7382,-309.7495 1296.173,-310.5416 1304.9262,-316.5109 1306.7382,-309.7495"/>
</g>
<!-- Node1&#45;&gt;Node19 -->
<g id="edge24" class="edge">
<title>Node1&#45;&gt;Node19</title>
<path fill="none" stroke="#191970" d="M2447.0205,-464.8906C2422.9267,-454.6005 2384.4992,-438.1888 2357.3197,-426.5809"/>
<polygon fill="#191970" stroke="#191970" points="2358.4336,-423.2508 2347.8625,-422.5419 2355.6842,-429.6883 2358.4336,-423.2508"/>
</g>
<!-- Node4&#45;&gt;Node2 -->
<g id="edge6" class="edge">
<title>Node4&#45;&gt;Node2</title>
<path fill="none" stroke="#191970" d="M1379.1592,-179.2398C1375.9889,-157.1332 1367.5376,-101.6148 1356.5205,-56 1354.3947,-47.1983 1351.5569,-37.5971 1348.9922,-29.4539"/>
<polygon fill="#191970" stroke="#191970" points="1352.2701,-28.2151 1345.8607,-19.7789 1345.6102,-30.3707 1352.2701,-28.2151"/>
</g>
<!-- Node4&#45;&gt;Node5 -->
<g id="edge5" class="edge">
<title>Node4&#45;&gt;Node5</title>
<path fill="none" stroke="#191970" d="M1429.5977,-185.0399C1561.6353,-174.3856 1922.2623,-145.286 2038.1449,-135.9352"/>
<polygon fill="#191970" stroke="#191970" points="2038.582,-139.4114 2048.268,-135.1184 2038.0189,-132.4341 2038.582,-139.4114"/>
</g>
<!-- Node4&#45;&gt;Node6 -->
<g id="edge7" class="edge">
<title>Node4&#45;&gt;Node6</title>
<path fill="none" stroke="#191970" d="M1331.4535,-184.5824C1216.1716,-174.2033 928.8905,-148.3388 810.6384,-137.6923"/>
<polygon fill="#191970" stroke="#191970" points="810.6764,-134.1816 800.4028,-136.7708 810.0486,-141.1534 810.6764,-134.1816"/>
</g>
<!-- Node6&#45;&gt;Node2 -->
<g id="edge14" class="edge">
<title>Node6&#45;&gt;Node2</title>
<path fill="none" stroke="#191970" d="M776.9012,-123.3675C793.2395,-114.5571 817.559,-100.8268 837.5205,-87 855.4379,-74.5891 855.3716,-64.3115 875.5205,-56 954.9475,-23.236 1220.5171,-13.2349 1311.5731,-10.7288"/>
<polygon fill="#191970" stroke="#191970" points="1311.884,-14.2219 1321.7882,-10.4593 1311.6993,-7.2244 1311.884,-14.2219"/>
</g>
<!-- Node7 -->
<g id="node8" class="node">
<title>Node7</title>
<polygon fill="#ffffff" stroke="#bfbfbf" points="606.5205,-56.5 606.5205,-86.5 706.5205,-86.5 706.5205,-56.5 606.5205,-56.5"/>
<text text-anchor="start" x="614.5205" y="-74.5" font-family="Helvetica,sans-Serif" font-size="10.00" fill="#000000">boost/preprocessor</text>
<text text-anchor="middle" x="656.5205" y="-63.5" font-family="Helvetica,sans-Serif" font-size="10.00" fill="#000000">/control/if.hpp</text>
</g>
<!-- Node6&#45;&gt;Node7 -->
<g id="edge8" class="edge">
<title>Node6&#45;&gt;Node7</title>
<path fill="none" stroke="#191970" d="M742.583,-123.3906C728.6507,-114.9903 707.9521,-102.5103 690.3456,-91.8945"/>
<polygon fill="#191970" stroke="#191970" points="691.8436,-88.7108 681.4725,-86.5446 688.2291,-94.7054 691.8436,-88.7108"/>
</g>
<!-- Node8 -->
<g id="node9" class="node">
<title>Node8</title>
<polygon fill="#ffffff" stroke="#bfbfbf" points="724.5205,-56.5 724.5205,-86.5 828.5205,-86.5 828.5205,-56.5 724.5205,-56.5"/>
<text text-anchor="start" x="732.5205" y="-74.5" font-family="Helvetica,sans-Serif" font-size="10.00" fill="#000000">boost/preprocessor</text>
<text text-anchor="middle" x="776.5205" y="-63.5" font-family="Helvetica,sans-Serif" font-size="10.00" fill="#000000">/facilities/empty.hpp</text>
</g>
<!-- Node6&#45;&gt;Node8 -->
<g id="edge9" class="edge">
<title>Node6&#45;&gt;Node8</title>
<path fill="none" stroke="#191970" d="M761.333,-123.3906C763.4533,-116.1463 766.4616,-105.8679 769.2422,-96.3676"/>
<polygon fill="#191970" stroke="#191970" points="772.6672,-97.1251 772.1172,-86.5446 765.9491,-95.1588 772.6672,-97.1251"/>
</g>
<!-- Node9 -->
<g id="node10" class="node">
<title>Node9</title>
<polygon fill="#ffffff" stroke="#bfbfbf" points="78.5205,-56.5 78.5205,-86.5 180.5205,-86.5 180.5205,-56.5 78.5205,-56.5"/>
<text text-anchor="start" x="86.5205" y="-74.5" font-family="Helvetica,sans-Serif" font-size="10.00" fill="#000000">boost/preprocessor</text>
<text text-anchor="middle" x="129.5205" y="-63.5" font-family="Helvetica,sans-Serif" font-size="10.00" fill="#000000">/seq/for_each_i.hpp</text>
</g>
<!-- Node6&#45;&gt;Node9 -->
<g id="edge10" class="edge">
<title>Node6&#45;&gt;Node9</title>
<path fill="none" stroke="#191970" d="M716.9007,-128.298C700.5787,-126.5259 681.6816,-124.5628 664.5205,-123 456.9708,-104.0995 400.1542,-121.0656 190.8624,-87.0383"/>
<polygon fill="#191970" stroke="#191970" points="191.2153,-83.5494 180.7796,-85.3791 190.0786,-90.4565 191.2153,-83.5494"/>
</g>
<!-- Node10 -->
<g id="node11" class="node">
<title>Node10</title>
<polygon fill="#ffffff" stroke="#bfbfbf" points="984.5205,-56.5 984.5205,-86.5 1084.5205,-86.5 1084.5205,-56.5 984.5205,-56.5"/>
<text text-anchor="start" x="992.5205" y="-74.5" font-family="Helvetica,sans-Serif" font-size="10.00" fill="#000000">boost/preprocessor</text>
<text text-anchor="middle" x="1034.5205" y="-63.5" font-family="Helvetica,sans-Serif" font-size="10.00" fill="#000000">/stringize.hpp</text>
</g>
<!-- Node6&#45;&gt;Node10 -->
<g id="edge11" class="edge">
<title>Node6&#45;&gt;Node10</title>
<path fill="none" stroke="#191970" d="M800.2536,-124.7726C841.991,-116.4064 908.2417,-102.7545 974.5663,-87.1688"/>
<polygon fill="#191970" stroke="#191970" points="975.4232,-90.5628 984.3496,-84.8557 973.8125,-83.7506 975.4232,-90.5628"/>
</g>
<!-- Node11 -->
<g id="node12" class="node">
<title>Node11</title>
<polygon fill="#ffffff" stroke="#bfbfbf" points="198.5205,-56.5 198.5205,-86.5 302.5205,-86.5 302.5205,-56.5 198.5205,-56.5"/>
<text text-anchor="start" x="206.5205" y="-74.5" font-family="Helvetica,sans-Serif" font-size="10.00" fill="#000000">boost/preprocessor</text>
<text text-anchor="middle" x="250.5205" y="-63.5" font-family="Helvetica,sans-Serif" font-size="10.00" fill="#000000">/variadic/to_seq.hpp</text>
</g>
<!-- Node6&#45;&gt;Node11 -->
<g id="edge12" class="edge">
<title>Node6&#45;&gt;Node11</title>
<path fill="none" stroke="#191970" d="M716.9924,-125.1796C712.1232,-124.3827 707.2183,-123.6346 702.5205,-123 532.7871,-100.0735 485.2614,-115.9652 312.5781,-87.0096"/>
<polygon fill="#191970" stroke="#191970" points="313.0939,-83.5471 302.6483,-85.3187 311.9188,-90.4478 313.0939,-83.5471"/>
</g>
<!-- Node12 -->
<g id="node13" class="node">
<title>Node12</title>
<polygon fill="#ffffff" stroke="#bfbfbf" points="320.5205,-62 320.5205,-81 444.5205,-81 444.5205,-62 320.5205,-62"/>
<text text-anchor="middle" x="382.5205" y="-69" font-family="Helvetica,sans-Serif" font-size="10.00" fill="#000000">boost/vmd/is_empty.hpp</text>
</g>
<!-- Node6&#45;&gt;Node12 -->
<g id="edge13" class="edge">
<title>Node6&#45;&gt;Node12</title>
<path fill="none" stroke="#191970" d="M716.9567,-125.4199C712.094,-124.5799 707.2003,-123.7559 702.5205,-123 592.134,-105.1693 563.546,-106.9372 453.5205,-87 447.1658,-85.8485 440.5138,-84.5378 433.9373,-83.1776"/>
<polygon fill="#191970" stroke="#191970" points="434.2268,-79.6614 423.7188,-81.0151 432.7775,-86.5097 434.2268,-79.6614"/>
</g>
<!-- Node13 -->
<g id="node14" class="node">
<title>Node13</title>
<g id="a_node14"><a xlink:href="Tracer_8hpp.html" target="_top" xlink:title="logging/Tracer.hpp">
<polygon fill="#ffffff" stroke="#000000" points="1179.0205,-62 1179.0205,-81 1276.0205,-81 1276.0205,-62 1179.0205,-62"/>
<text text-anchor="middle" x="1227.5205" y="-69" font-family="Helvetica,sans-Serif" font-size="10.00" fill="#000000">logging/Tracer.hpp</text>
</a>
</g>
</g>
<!-- Node6&#45;&gt;Node13 -->
<g id="edge15" class="edge">
<title>Node6&#45;&gt;Node13</title>
<path fill="none" stroke="#191970" d="M800.1411,-127.5423C883.7418,-116.5797 1072.2807,-91.8566 1168.5467,-79.2332"/>
<polygon fill="#191970" stroke="#191970" points="1169.2326,-82.6733 1178.6926,-77.9028 1168.3224,-75.7328 1169.2326,-82.6733"/>
</g>
<!-- Node14 -->
<g id="node15" class="node">
<title>Node14</title>
<polygon fill="#ffffff" stroke="#bfbfbf" points="463.0205,-62 463.0205,-81 588.0205,-81 588.0205,-62 463.0205,-62"/>
<text text-anchor="middle" x="525.5205" y="-69" font-family="Helvetica,sans-Serif" font-size="10.00" fill="#000000">prettyprint/prettyprint.hpp</text>
</g>
<!-- Node6&#45;&gt;Node14 -->
<g id="edge17" class="edge">
<title>Node6&#45;&gt;Node14</title>
<path fill="none" stroke="#191970" d="M722.3699,-123.4581C681.8136,-112.7533 615.9275,-95.3628 571.6798,-83.6837"/>
<polygon fill="#191970" stroke="#191970" points="572.318,-80.2323 561.7559,-81.0643 570.5315,-87.0005 572.318,-80.2323"/>
</g>
<!-- Node15 -->
<g id="node16" class="node">
<title>Node15</title>
<g id="a_node16"><a xlink:href="String_8hpp.html" target="_top" xlink:title="utils/String.hpp">
<polygon fill="#ffffff" stroke="#ff0000" points="884.5205,-62 884.5205,-81 966.5205,-81 966.5205,-62 884.5205,-62"/>
<text text-anchor="middle" x="925.5205" y="-69" font-family="Helvetica,sans-Serif" font-size="10.00" fill="#000000">utils/String.hpp</text>
</a>
</g>
</g>
<!-- Node6&#45;&gt;Node15 -->
<g id="edge18" class="edge">
<title>Node6&#45;&gt;Node15</title>
<path fill="none" stroke="#191970" d="M784.6143,-123.3906C812.9241,-112.9652 858.2973,-96.2559 889.8797,-84.6252"/>
<polygon fill="#191970" stroke="#191970" points="891.4356,-87.7821 899.61,-81.0419 889.0165,-81.2133 891.4356,-87.7821"/>
</g>
<!-- Node13&#45;&gt;Node4 -->
<g id="edge16" class="edge">
<title>Node13&#45;&gt;Node4</title>
<path fill="none" stroke="#191970" d="M1240.2141,-81.2484C1266.5908,-101.505 1327.5429,-148.3146 1359.7352,-173.0375"/>
<polygon fill="#191970" stroke="#191970" points="1357.937,-176.0695 1367.9999,-179.3845 1362.2006,-170.5177 1357.937,-176.0695"/>
</g>
<!-- Node15&#45;&gt;Node2 -->
<g id="edge19" class="edge">
<title>Node15&#45;&gt;Node2</title>
<path fill="none" stroke="#191970" d="M953.3213,-61.9319C960.4883,-59.7283 968.2361,-57.5728 975.5205,-56 1098.6403,-29.4169 1248.5496,-16.5645 1311.9123,-12.0081"/>
<polygon fill="#191970" stroke="#191970" points="1312.2875,-15.4905 1322.0182,-11.2996 1311.7979,-8.5076 1312.2875,-15.4905"/>
</g>
<!-- Node17&#45;&gt;Node5 -->
<g id="edge21" class="edge">
<title>Node17&#45;&gt;Node5</title>
<path fill="none" stroke="#191970" d="M2571.1454,-235.4472C2549.6261,-220.6161 2505.4705,-192.3696 2463.5205,-179 2398.1217,-158.1572 2193.9837,-141.5826 2110.574,-135.5048"/>
<polygon fill="#191970" stroke="#191970" points="2110.7802,-132.0107 2100.5545,-134.7831 2110.2772,-138.9926 2110.7802,-132.0107"/>
</g>
<!-- Node18&#45;&gt;Node5 -->
<g id="edge23" class="edge">
<title>Node18&#45;&gt;Node5</title>
<path fill="none" stroke="#191970" d="M1288.511,-291.3972C1354.4054,-268.3348 1529.1158,-209.4816 1679.5205,-179 1810.172,-152.5217 1968.4483,-139.8168 2038.3508,-135.1715"/>
<polygon fill="#191970" stroke="#191970" points="2038.6495,-138.6596 2048.4017,-134.519 2038.196,-131.6743 2038.6495,-138.6596"/>
</g>
<!-- Node19&#45;&gt;Node2 -->
<g id="edge28" class="edge">
<title>Node19&#45;&gt;Node2</title>
<path fill="none" stroke="#191970" d="M2367.2395,-403.4948C2415.239,-389.7992 2487.5205,-359.4685 2487.5205,-301 2487.5205,-301 2487.5205,-301 2487.5205,-133 2487.5205,-37.336 2380.1371,-75.6861 2286.5205,-56 2106.1606,-18.073 1515.4086,-11.2875 1373.4141,-10.1943"/>
<polygon fill="#191970" stroke="#191970" points="1373.2706,-6.6932 1363.2453,-10.12 1373.2194,-13.693 1373.2706,-6.6932"/>
</g>
<!-- Node19&#45;&gt;Node3 -->
<g id="edge29" class="edge">
<title>Node19&#45;&gt;Node3</title>
<path fill="none" stroke="#191970" d="M2307.7314,-403.375C2242.5742,-368.1209 2016.6896,-245.9031 1938.4481,-203.5695"/>
<polygon fill="#191970" stroke="#191970" points="1939.704,-200.2696 1929.2433,-198.5891 1936.3729,-206.4262 1939.704,-200.2696"/>
</g>
<!-- Node19&#45;&gt;Node4 -->
<g id="edge30" class="edge">
<title>Node19&#45;&gt;Node4</title>
<path fill="none" stroke="#191970" d="M2279.9715,-412.3057C2131.9567,-409.7419 1670.7124,-399.2224 1612.5205,-367 1549.2868,-331.9858 1575.6921,-277.9018 1517.5205,-235 1494.7033,-218.1722 1465.3364,-207.2376 1439.6477,-200.2723"/>
<polygon fill="#191970" stroke="#191970" points="1440.1921,-196.7987 1429.636,-197.7038 1438.4526,-203.5791 1440.1921,-196.7987"/>
</g>
<!-- Node19&#45;&gt;Node5 -->
<g id="edge27" class="edge">
<title>Node19&#45;&gt;Node5</title>
<path fill="none" stroke="#191970" d="M2350.913,-403.4421C2387.1908,-387.9427 2449.5205,-353.6516 2449.5205,-301 2449.5205,-301 2449.5205,-301 2449.5205,-245 2449.5205,-174.7505 2204.8556,-144.9141 2110.7758,-136.038"/>
<polygon fill="#191970" stroke="#191970" points="2110.8699,-132.532 2100.592,-135.104 2110.2306,-139.5027 2110.8699,-132.532"/>
</g>
<!-- Node19&#45;&gt;Node20 -->
<g id="edge25" class="edge">
<title>Node19&#45;&gt;Node20</title>
<path fill="none" stroke="#191970" d="M2279.8356,-412.3854C2039.6933,-409.0554 928.7443,-392.3823 777.5205,-367 748.1306,-362.067 742.0506,-355.61 713.5205,-347 674.526,-335.2319 629.9603,-322.3044 598.1232,-313.1587"/>
<polygon fill="#191970" stroke="#191970" points="598.8343,-309.7216 588.2569,-310.3285 596.9041,-316.4503 598.8343,-309.7216"/>
</g>
<!-- Node21 -->
<g id="node21" class="node">
<title>Node21</title>
<polygon fill="#ffffff" stroke="#bfbfbf" points="1894.0205,-291.5 1894.0205,-310.5 1929.0205,-310.5 1929.0205,-291.5 1894.0205,-291.5"/>
<text text-anchor="middle" x="1911.5205" y="-298.5" font-family="Helvetica,sans-Serif" font-size="10.00" fill="#000000">map</text>
</g>
<!-- Node19&#45;&gt;Node21 -->
<g id="edge26" class="edge">
<title>Node19&#45;&gt;Node21</title>
<path fill="none" stroke="#191970" d="M2279.7713,-408.8813C2225.3805,-403.1495 2132.3092,-390.691 2055.5205,-367 2012.551,-353.743 1965.7245,-330.4947 1937.4988,-315.4272"/>
<polygon fill="#191970" stroke="#191970" points="1939.1338,-312.3324 1928.6722,-310.6573 1935.8058,-318.4907 1939.1338,-312.3324"/>
</g>
<!-- Node19&#45;&gt;Node23 -->
<g id="edge31" class="edge">
<title>Node19&#45;&gt;Node23</title>
<path fill="none" stroke="#191970" d="M2320.2537,-403.2455C2318.8426,-395.9382 2318.4384,-385.6944 2319.041,-376.7046"/>
<polygon fill="#191970" stroke="#191970" points="2322.5316,-376.9945 2320.2754,-366.6427 2315.5837,-376.1421 2322.5316,-376.9945"/>
</g>
<!-- Node19&#45;&gt;Node24 -->
<g id="edge38" class="edge">
<title>Node19&#45;&gt;Node24</title>
<path fill="none" stroke="#191970" d="M2290.1078,-403.3733C2255.26,-393.9001 2201.9323,-379.4032 2164.1912,-369.1435"/>
<polygon fill="#191970" stroke="#191970" points="2165.039,-365.747 2154.4711,-366.5011 2163.2027,-372.5019 2165.039,-365.747"/>
</g>
<!-- Node23&#45;&gt;Node2 -->
<g id="edge34" class="edge">
<title>Node23&#45;&gt;Node2</title>
<path fill="none" stroke="#191970" d="M2346.575,-347.4265C2361.4695,-339.6271 2380.8023,-327.2514 2392.5205,-311 2410.3735,-286.2407 2411.5205,-275.5246 2411.5205,-245 2411.5205,-245 2411.5205,-245 2411.5205,-133 2411.5205,-25.6115 1549.1162,-11.9039 1373.5077,-10.2259"/>
<polygon fill="#191970" stroke="#191970" points="1373.4258,-6.7251 1363.3949,-10.1355 1373.3632,-13.7248 1373.4258,-6.7251"/>
</g>
<!-- Node23&#45;&gt;Node3 -->
<g id="edge35" class="edge">
<title>Node23&#45;&gt;Node3</title>
<path fill="none" stroke="#191970" d="M2309.6087,-347.4759C2266.3555,-321.707 2147.0285,-251.4477 2104.5205,-235 2050.0506,-213.9238 1983.0681,-200.5869 1944.0437,-193.9832"/>
<polygon fill="#191970" stroke="#191970" points="1944.2477,-190.4697 1933.8119,-192.2983 1943.1103,-197.3767 1944.2477,-190.4697"/>
</g>
<!-- Node23&#45;&gt;Node4 -->
<g id="edge36" class="edge">
<title>Node23&#45;&gt;Node4</title>
<path fill="none" stroke="#191970" d="M2285.725,-347.4266C2192.1537,-325.1777 1950.6601,-269.2751 1746.5205,-235 1638.9183,-216.9335 1512.4335,-202.5403 1439.857,-194.9329"/>
<polygon fill="#191970" stroke="#191970" points="1439.8574,-191.4141 1429.5488,-193.8601 1439.1328,-198.3765 1439.8574,-191.4141"/>
</g>
<!-- Node23&#45;&gt;Node5 -->
<g id="edge33" class="edge">
<title>Node23&#45;&gt;Node5</title>
<path fill="none" stroke="#191970" d="M2314.7353,-347.375C2275.795,-312.6235 2142.1675,-193.3702 2092.929,-149.4283"/>
<polygon fill="#191970" stroke="#191970" points="2095.0569,-146.6362 2085.2655,-142.5891 2090.396,-151.8589 2095.0569,-146.6362"/>
</g>
<!-- Node23&#45;&gt;Node19 -->
<g id="edge37" class="edge">
<title>Node23&#45;&gt;Node19</title>
<path fill="none" stroke="#191970" d="M2330.7656,-366.6427C2332.187,-373.9199 2332.6015,-384.155 2332.0092,-393.1575"/>
<polygon fill="#191970" stroke="#191970" points="2328.5152,-392.8972 2330.7874,-403.2455 2335.4644,-393.739 2328.5152,-392.8972"/>
</g>
<!-- Node23&#45;&gt;Node21 -->
<g id="edge32" class="edge">
<title>Node23&#45;&gt;Node21</title>
<path fill="none" stroke="#191970" d="M2269.6866,-349.4476C2179.9946,-337.3153 2007.0475,-313.9215 1939.5084,-304.7858"/>
<polygon fill="#191970" stroke="#191970" points="1939.6202,-301.2691 1929.2412,-303.397 1938.6818,-308.206 1939.6202,-301.2691"/>
</g>
<!-- Node24&#45;&gt;Node2 -->
<g id="edge41" class="edge">
<title>Node24&#45;&gt;Node2</title>
<path fill="none" stroke="#191970" d="M2120.4164,-347.1632C2122.6928,-321.2874 2128.5205,-249.1695 2128.5205,-189 2128.5205,-189 2128.5205,-189 2128.5205,-133 2128.5205,-55.0994 1518.0887,-18.9756 1373.1314,-11.4956"/>
<polygon fill="#191970" stroke="#191970" points="1373.3049,-8 1363.1401,-10.9877 1372.9494,-14.991 1373.3049,-8"/>
</g>
<!-- Node24&#45;&gt;Node3 -->
<g id="edge43" class="edge">
<title>Node24&#45;&gt;Node3</title>
<path fill="none" stroke="#191970" d="M2105.9662,-347.4525C2093.2344,-338.3659 2073.7649,-324.164 2057.5205,-311 2017.8908,-278.8852 2010.8959,-267.4262 1971.5205,-235 1958.9249,-224.6273 1944.4138,-213.4816 1932.8177,-204.7594"/>
<polygon fill="#191970" stroke="#191970" points="1934.7033,-201.7991 1924.5982,-198.6149 1930.512,-207.4057 1934.7033,-201.7991"/>
</g>
<!-- Node24&#45;&gt;Node4 -->
<g id="edge44" class="edge">
<title>Node24&#45;&gt;Node4</title>
<path fill="none" stroke="#191970" d="M2097.0607,-347.411C2063.2334,-333.2914 1996.9436,-306.8694 1938.5205,-291 1759.8118,-242.4577 1542.5726,-210.194 1439.829,-196.4852"/>
<polygon fill="#191970" stroke="#191970" points="1440.0275,-192.981 1429.6547,-195.1385 1439.1089,-199.9205 1440.0275,-192.981"/>
</g>
<!-- Node24&#45;&gt;Node21 -->
<g id="edge40" class="edge">
<title>Node24&#45;&gt;Node21</title>
<path fill="none" stroke="#191970" d="M2083.764,-347.3733C2042.6759,-336.3111 1976.1437,-318.3986 1938.9395,-308.382"/>
<polygon fill="#191970" stroke="#191970" points="1939.8353,-304.9986 1929.2692,-305.7785 1938.0154,-311.758 1939.8353,-304.9986"/>
</g>
<!-- Node24&#45;&gt;Node25 -->
<g id="edge39" class="edge">
<title>Node24&#45;&gt;Node25</title>
<path fill="none" stroke="#191970" d="M2159.8222,-347.4369C2203.9422,-336.9677 2274.1499,-320.3083 2317.3906,-310.0478"/>
<polygon fill="#191970" stroke="#191970" points="2318.3213,-313.4242 2327.243,-307.7099 2316.7051,-306.6133 2318.3213,-313.4242"/>
</g>
<!-- Node24&#45;&gt;Node29 -->
<g id="edge42" class="edge">
<title>Node24&#45;&gt;Node29</title>
<path fill="none" stroke="#191970" d="M2067.948,-347.4369C2004.5895,-335.6883 1899.1893,-316.1439 1847.6968,-306.5956"/>
<polygon fill="#191970" stroke="#191970" points="1848.3239,-303.1523 1837.8533,-304.7703 1847.0476,-310.035 1848.3239,-303.1523"/>
</g>
<!-- Node24&#45;&gt;Node30 -->
<g id="edge45" class="edge">
<title>Node24&#45;&gt;Node30</title>
<path fill="none" stroke="#191970" d="M2063.8532,-354.7179C1843.9551,-345.703 1036.8483,-312.6152 812.0074,-303.3977"/>
<polygon fill="#191970" stroke="#191970" points="811.8805,-299.8897 801.7455,-302.977 811.5937,-306.8838 811.8805,-299.8897"/>
</g>
<!-- Node30&#45;&gt;Node9 -->
<g id="edge46" class="edge">
<title>Node30&#45;&gt;Node9</title>
<path fill="none" stroke="#191970" d="M732.2301,-291.3408C684.4848,-269.842 565.0086,-216.949 462.5205,-179 368.5819,-144.2167 257.504,-109.643 190.3382,-89.4394"/>
<polygon fill="#191970" stroke="#191970" points="191.3384,-86.0855 180.7544,-86.5646 189.327,-92.7903 191.3384,-86.0855"/>
</g>
<!-- Node30&#45;&gt;Node10 -->
<g id="edge47" class="edge">
<title>Node30&#45;&gt;Node10</title>
<path fill="none" stroke="#191970" d="M765.1628,-291.2732C797.4465,-264.3298 890.9065,-186.5254 969.5205,-123 981.8658,-113.0242 995.6324,-102.0898 1007.3068,-92.8724"/>
<polygon fill="#191970" stroke="#191970" points="1009.701,-95.4418 1015.3877,-86.5024 1005.3675,-89.9444 1009.701,-95.4418"/>
</g>
<!-- Node30&#45;&gt;Node11 -->
<g id="edge48" class="edge">
<title>Node30&#45;&gt;Node11</title>
<path fill="none" stroke="#191970" d="M751.9565,-291.1607C746.4759,-260.2739 725.0758,-164.8196 664.5205,-123 602.0455,-79.8547 404.5849,-99.1654 312.7836,-86.8541"/>
<polygon fill="#191970" stroke="#191970" points="313.0723,-83.3572 302.6542,-85.2844 312.0003,-90.2746 313.0723,-83.3572"/>
</g>
<!-- Node30&#45;&gt;Node36 -->
<g id="edge49" class="edge">
<title>Node30&#45;&gt;Node36</title>
<path fill="none" stroke="#191970" d="M782.0569,-291.3733C809.5407,-282.1016 851.2891,-268.0178 881.5657,-257.804"/>
<polygon fill="#191970" stroke="#191970" points="882.9999,-261.0141 891.3565,-254.5011 880.7623,-254.3813 882.9999,-261.0141"/>
</g>
<!-- Node36&#45;&gt;Node2 -->
<g id="edge52" class="edge">
<title>Node36&#45;&gt;Node2</title>
<path fill="none" stroke="#191970" d="M932.2208,-235.2942C982.1796,-197.1278 1162.7804,-59.2859 1169.5205,-56 1216.356,-33.1672 1276.046,-20.5116 1311.6656,-14.496"/>
<polygon fill="#191970" stroke="#191970" points="1312.594,-17.8913 1321.9063,-12.8383 1311.4755,-10.9813 1312.594,-17.8913"/>
</g>
<!-- Node36&#45;&gt;Node3 -->
<g id="edge53" class="edge">
<title>Node36&#45;&gt;Node3</title>
<path fill="none" stroke="#191970" d="M953.6674,-243.0724C1106.7249,-234.432 1728.6585,-199.3229 1878.7888,-190.8478"/>
<polygon fill="#191970" stroke="#191970" points="1879.3719,-194.3205 1889.1587,-190.2624 1878.9773,-187.3316 1879.3719,-194.3205"/>
</g>
<!-- Node36&#45;&gt;Node4 -->
<g id="edge54" class="edge">
<title>Node36&#45;&gt;Node4</title>
<path fill="none" stroke="#191970" d="M953.5356,-237.4994C958.2213,-236.5875 962.9813,-235.724 967.5205,-235 1034.1794,-224.3685 1224.0588,-204.7011 1321.4016,-194.8883"/>
<polygon fill="#191970" stroke="#191970" points="1321.7797,-198.368 1331.379,-193.8844 1321.0788,-191.4032 1321.7797,-198.368"/>
</g>
<!-- Node36&#45;&gt;Node5 -->
<g id="edge51" class="edge">
<title>Node36&#45;&gt;Node5</title>
<path fill="none" stroke="#191970" d="M953.5686,-237.6921C958.2491,-236.7502 962.9989,-235.8271 967.5205,-235 1124.6421,-206.2583 1163.7358,-196.3404 1322.5205,-179 1596.8435,-149.0421 1929.7547,-137.22 2038.374,-133.9882"/>
<polygon fill="#191970" stroke="#191970" points="2038.5748,-137.4839 2048.4684,-133.6936 2038.3705,-130.4869 2038.5748,-137.4839"/>
</g>
<!-- Node37 -->
<g id="node28" class="node">
<title>Node37</title>
<polygon fill="#ffffff" stroke="#bfbfbf" points="409.0205,-179.5 409.0205,-198.5 454.0205,-198.5 454.0205,-179.5 409.0205,-179.5"/>
<text text-anchor="middle" x="431.5205" y="-186.5" font-family="Helvetica,sans-Serif" font-size="10.00" fill="#000000">iosfwd</text>
</g>
<!-- Node36&#45;&gt;Node37 -->
<g id="edge50" class="edge">
<title>Node36&#45;&gt;Node37</title>
<path fill="none" stroke="#191970" d="M885.2053,-241.0622C795.0391,-230.7152 552.319,-202.8621 464.1209,-192.741"/>
<polygon fill="#191970" stroke="#191970" points="464.4855,-189.26 454.1517,-191.597 463.6874,-196.2143 464.4855,-189.26"/>
</g>
<!-- Node44&#45;&gt;Node18 -->
<g id="edge75" class="edge">
<title>Node44&#45;&gt;Node18</title>
<path fill="none" stroke="#191970" d="M886.0063,-405.0913C936.4433,-397.4134 1012.0849,-384.3763 1076.5205,-367 1130.9927,-352.3105 1192.3255,-329.0419 1228.9001,-314.4182"/>
<polygon fill="#191970" stroke="#191970" points="1230.5657,-317.5207 1238.5333,-310.5372 1227.9498,-311.0278 1230.5657,-317.5207"/>
</g>
<!-- Node44&#45;&gt;Node37 -->
<g id="edge64" class="edge">
<title>Node44&#45;&gt;Node37</title>
<path fill="none" stroke="#191970" d="M773.4225,-409.8304C646.3262,-402.3793 346.2562,-383.1595 331.5205,-367 291.9907,-323.6506 299.8705,-284.3969 331.5205,-235 346.2486,-212.0134 375.6802,-200.3569 398.8184,-194.5434"/>
<polygon fill="#191970" stroke="#191970" points="399.6277,-197.9488 408.609,-192.3286 398.0831,-191.1213 399.6277,-197.9488"/>
</g>
<!-- Node44&#45;&gt;Node45 -->
<g id="edge65" class="edge">
<title>Node44&#45;&gt;Node45</title>
<path fill="none" stroke="#191970" d="M829.5205,-403.2455C829.5205,-395.9382 829.5205,-385.6944 829.5205,-376.7046"/>
<polygon fill="#191970" stroke="#191970" points="833.0206,-376.6426 829.5205,-366.6427 826.0206,-376.6427 833.0206,-376.6426"/>
</g>
<!-- Node45&#45;&gt;Node2 -->
<g id="edge70" class="edge">
<title>Node45&#45;&gt;Node2</title>
<path fill="none" stroke="#191970" d="M831.1736,-347.4778C835.3732,-325.5754 848.1901,-270.7608 876.5205,-235 949.0125,-143.4951 1002.48,-160.0745 1093.5205,-87 1109.2136,-74.4038 1108.69,-65.328 1126.5205,-56 1187.1223,-24.2964 1268.1454,-14.4405 1311.7056,-11.3785"/>
<polygon fill="#191970" stroke="#191970" points="1312.1764,-14.8559 1321.9379,-10.7372 1311.7385,-7.8696 1312.1764,-14.8559"/>
</g>
<!-- Node45&#45;&gt;Node3 -->
<g id="edge71" class="edge">
<title>Node45&#45;&gt;Node3</title>
<path fill="none" stroke="#191970" d="M872.7882,-353.6956C977.8326,-345.568 1244.1811,-324.3001 1332.5205,-311 1543.1251,-279.2922 1792.356,-218.9266 1879.5226,-197.1163"/>
<polygon fill="#191970" stroke="#191970" points="1880.4893,-200.4823 1889.3358,-194.6522 1878.7844,-193.6931 1880.4893,-200.4823"/>
</g>
<!-- Node45&#45;&gt;Node4 -->
<g id="edge72" class="edge">
<title>Node45&#45;&gt;Node4</title>
<path fill="none" stroke="#191970" d="M860.7234,-347.4862C954.5645,-318.8741 1234.2176,-233.6078 1339.67,-201.4553"/>
<polygon fill="#191970" stroke="#191970" points="1340.7747,-204.7777 1349.3192,-198.5133 1338.7331,-198.082 1340.7747,-204.7777"/>
</g>
<!-- Node45&#45;&gt;Node18 -->
<g id="edge73" class="edge">
<title>Node45&#45;&gt;Node18</title>
<path fill="none" stroke="#191970" d="M872.5422,-351.4738C939.4732,-342.8691 1072.5879,-325.726 1185.5205,-311 1186.7824,-310.8355 1188.0561,-310.6692 1189.3389,-310.5017"/>
<polygon fill="#191970" stroke="#191970" points="1189.8469,-313.9652 1199.3085,-309.1978 1188.9391,-307.0243 1189.8469,-313.9652"/>
</g>
<!-- Node45&#45;&gt;Node20 -->
<g id="edge66" class="edge">
<title>Node45&#45;&gt;Node20</title>
<path fill="none" stroke="#191970" d="M786.3999,-348.3914C740.7183,-339.2411 666.4976,-324.288 602.5205,-311 601.0656,-310.6978 599.5856,-310.3893 598.091,-310.0767"/>
<polygon fill="#191970" stroke="#191970" points="598.6343,-306.6145 588.128,-307.9805 597.1931,-313.4645 598.6343,-306.6145"/>
</g>
<!-- Node45&#45;&gt;Node21 -->
<g id="edge69" class="edge">
<title>Node45&#45;&gt;Node21</title>
<path fill="none" stroke="#191970" d="M872.5981,-353.7671C901.8892,-351.6432 941.5285,-348.9138 976.5205,-347 1362.9405,-325.8653 1461.3422,-348.4809 1846.5205,-311 1858.8751,-309.7978 1872.4592,-307.8132 1884.0004,-305.9275"/>
<polygon fill="#191970" stroke="#191970" points="1884.6544,-309.3667 1893.9311,-304.2488 1883.4876,-302.4646 1884.6544,-309.3667"/>
</g>
<!-- Node45&#45;&gt;Node30 -->
<g id="edge74" class="edge">
<title>Node45&#45;&gt;Node30</title>
<path fill="none" stroke="#191970" d="M816.2823,-347.2455C804.8395,-338.814 788.0909,-326.4729 774.773,-316.6598"/>
<polygon fill="#191970" stroke="#191970" points="776.7338,-313.757 766.607,-310.6427 772.5814,-319.3924 776.7338,-313.757"/>
</g>
<!-- Node45&#45;&gt;Node37 -->
<g id="edge67" class="edge">
<title>Node45&#45;&gt;Node37</title>
<path fill="none" stroke="#191970" d="M799.0992,-347.4237C771.937,-338.6502 731.2045,-324.9425 696.5205,-311 608.5912,-275.6536 507.6309,-226.8028 459.6608,-203.0706"/>
<polygon fill="#191970" stroke="#191970" points="461.036,-199.8458 450.5224,-198.5359 457.9244,-206.1162 461.036,-199.8458"/>
</g>
<!-- Node45&#45;&gt;Node41 -->
<g id="edge68" class="edge">
<title>Node45&#45;&gt;Node41</title>
<path fill="none" stroke="#191970" d="M786.4156,-353.1066C665.961,-342.2269 328.4864,-311.7453 234.2427,-303.233"/>
<polygon fill="#191970" stroke="#191970" points="234.4951,-299.7416 224.2207,-302.3278 233.8653,-306.7132 234.4951,-299.7416"/>
</g>
<!-- Node63&#45;&gt;Node2 -->
<g id="edge77" class="edge">
<title>Node63&#45;&gt;Node2</title>
<path fill="none" stroke="#191970" d="M2290.0354,-464.9678C2428.4598,-444.5058 2719.5205,-390.8035 2719.5205,-301 2719.5205,-301 2719.5205,-301 2719.5205,-133 2719.5205,16.3082 2540.4191,-76.4684 2392.5205,-56 2188.1968,-27.7226 1525.7866,-13.5132 1373.7993,-10.579"/>
<polygon fill="#191970" stroke="#191970" points="1373.4279,-7.0713 1363.3629,-10.3798 1373.2943,-14.0701 1373.4279,-7.0713"/>
</g>
<!-- Node63&#45;&gt;Node3 -->
<g id="edge78" class="edge">
<title>Node63&#45;&gt;Node3</title>
<path fill="none" stroke="#191970" d="M2266.4193,-464.9876C2308.5075,-455.646 2365.3444,-440.3083 2380.5205,-423 2402.9813,-397.3835 2409.1061,-375.5529 2390.5205,-347 2386.3278,-340.5587 2144.8426,-237.3356 2137.5205,-235 2070.0675,-213.4839 1987.9736,-199.7447 1943.6457,-193.3042"/>
<polygon fill="#191970" stroke="#191970" points="1944.1328,-189.8384 1933.7397,-191.8958 1943.1474,-196.7687 1944.1328,-189.8384"/>
</g>
<!-- Node63&#45;&gt;Node4 -->
<g id="edge79" class="edge">
<title>Node63&#45;&gt;Node4</title>
<path fill="none" stroke="#191970" d="M2128.3933,-464.9919C1948.1029,-445.3896 1555.7759,-399.5929 1503.5205,-367 1441.733,-328.4617 1402.9893,-246.2141 1387.8216,-208.558"/>
<polygon fill="#191970" stroke="#191970" points="1390.9099,-206.8432 1384.0195,-198.795 1384.3871,-209.3835 1390.9099,-206.8432"/>
</g>
<!-- Node63&#45;&gt;Node44 -->
<g id="edge80" class="edge">
<title>Node63&#45;&gt;Node44</title>
<path fill="none" stroke="#191970" d="M2125.9645,-467.1595C2088.0335,-464.3253 2043.6884,-461.2342 2003.5205,-459 1893.1398,-452.8603 1127.7749,-424.1304 895.9293,-415.4744"/>
<polygon fill="#191970" stroke="#191970" points="895.7454,-411.9651 885.6218,-415.0896 895.4842,-418.9603 895.7454,-411.9651"/>
</g>
<!-- Node64&#45;&gt;Node2 -->
<g id="edge83" class="edge">
<title>Node64&#45;&gt;Node2</title>
<path fill="none" stroke="#191970" d="M325.3423,-459.4076C299.4585,-451.3976 270.5275,-439.6663 247.5205,-423 96.9128,-313.8991 -87.5215,-184.9124 46.5205,-56 70.074,-33.3479 1117.437,-13.9385 1311.6958,-10.53"/>
<polygon fill="#191970" stroke="#191970" points="1311.8487,-14.028 1321.7861,-10.354 1311.7265,-7.0291 1311.8487,-14.028"/>
</g>
<!-- Node64&#45;&gt;Node3 -->
<g id="edge84" class="edge">
<title>Node64&#45;&gt;Node3</title>
<path fill="none" stroke="#191970" d="M458.7059,-471.4051C680.0014,-461.1769 1374.7044,-428.7818 1422.5205,-423 1552.8412,-407.242 1596.5781,-428.5562 1712.5205,-367 1754.7118,-344.5998 1753.2081,-323.17 1788.5205,-291 1823.375,-259.2471 1866.1645,-224.6972 1890.9897,-205.06"/>
<polygon fill="#191970" stroke="#191970" points="1893.2904,-207.7032 1898.979,-198.7651 1888.9581,-202.2049 1893.2904,-207.7032"/>
</g>
<!-- Node64&#45;&gt;Node4 -->
<g id="edge86" class="edge">
<title>Node64&#45;&gt;Node4</title>
<path fill="none" stroke="#191970" d="M435.0343,-459.4633C506.314,-434.9817 652.5423,-385.3857 777.5205,-347 951.5459,-293.5501 994.988,-279.4749 1171.5205,-235 1222.7181,-222.1015 1281.4775,-209.3485 1323.6272,-200.554"/>
<polygon fill="#191970" stroke="#191970" points="1324.3528,-203.9781 1333.4318,-198.5172 1322.9289,-197.1244 1324.3528,-203.9781"/>
</g>
<!-- Node64&#45;&gt;Node41 -->
<g id="edge82" class="edge">
<title>Node64&#45;&gt;Node41</title>
<path fill="none" stroke="#191970" d="M346.2742,-459.4672C305.4501,-443.3763 247.366,-413.6655 217.5205,-367 208.786,-353.3429 207.2276,-334.8048 207.6004,-320.8526"/>
<polygon fill="#191970" stroke="#191970" points="211.0964,-321.0221 208.2131,-310.8272 204.1095,-320.595 211.0964,-321.0221"/>
</g>
<!-- Node64&#45;&gt;Node44 -->
<g id="edge85" class="edge">
<title>Node64&#45;&gt;Node44</title>
<path fill="none" stroke="#191970" d="M458.9981,-465.0254C541.8118,-453.3975 681.3237,-433.8084 763.4766,-422.2733"/>
<polygon fill="#191970" stroke="#191970" points="764.0323,-425.7297 773.4485,-420.8731 763.0589,-418.7977 764.0323,-425.7297"/>
</g>
<!-- Node65 -->
<g id="node36" class="node">
<title>Node65</title>
<g id="a_node36"><a xlink:href="FindClosest_8hpp.html" target="_top" xlink:title="query/FindClosest.hpp">
<polygon fill="#ffffff" stroke="#ff0000" points="374.0205,-347.5 374.0205,-366.5 489.0205,-366.5 489.0205,-347.5 374.0205,-347.5"/>
<text text-anchor="middle" x="431.5205" y="-354.5" font-family="Helvetica,sans-Serif" font-size="10.00" fill="#000000">query/FindClosest.hpp</text>
</a>
</g>
</g>
<!-- Node64&#45;&gt;Node65 -->
<g id="edge87" class="edge">
<title>Node64&#45;&gt;Node65</title>
<path fill="none" stroke="#191970" d="M396.7498,-459.1389C403.9893,-437.873 417.0625,-399.4702 424.9518,-376.2956"/>
<polygon fill="#191970" stroke="#191970" points="428.3568,-377.1539 428.2662,-366.5595 421.7302,-374.898 428.3568,-377.1539"/>
</g>
<!-- Node65&#45;&gt;Node2 -->
<g id="edge90" class="edge">
<title>Node65&#45;&gt;Node2</title>
<path fill="none" stroke="#191970" d="M401.416,-347.4284C294.5043,-312.0526 -54.0353,-184.1011 69.5205,-56 91.7817,-32.9198 1119.1631,-13.8937 1311.6308,-10.5287"/>
<polygon fill="#191970" stroke="#191970" points="1311.9447,-14.0238 1321.8823,-10.3505 1311.823,-7.0249 1311.9447,-14.0238"/>
</g>
<!-- Node65&#45;&gt;Node3 -->
<g id="edge91" class="edge">
<title>Node65&#45;&gt;Node3</title>
<path fill="none" stroke="#191970" d="M489.1313,-350.9843C571.4938,-342.3472 727.6388,-325.8364 860.5205,-311 1262.7038,-266.0959 1751.0265,-208.1269 1879.379,-192.8349"/>
<polygon fill="#191970" stroke="#191970" points="1879.8251,-196.3066 1889.3405,-191.6476 1878.9966,-189.3558 1879.8251,-196.3066"/>
</g>
<!-- Node65&#45;&gt;Node4 -->
<g id="edge92" class="edge">
<title>Node65&#45;&gt;Node4</title>
<path fill="none" stroke="#191970" d="M489.2747,-348.8685C494.0921,-348.2237 498.8889,-347.5931 503.5205,-347 639.787,-329.5495 676.3339,-340.4457 810.5205,-311 916.9142,-287.6531 937.3526,-259.3528 1043.5205,-235 1139.597,-212.962 1253.6679,-200.1056 1321.4141,-193.8272"/>
<polygon fill="#191970" stroke="#191970" points="1321.8307,-197.3038 1331.4724,-192.9119 1321.1963,-190.3326 1321.8307,-197.3038"/>
</g>
<!-- Node65&#45;&gt;Node20 -->
<g id="edge88" class="edge">
<title>Node65&#45;&gt;Node20</title>
<path fill="none" stroke="#191970" d="M452.8369,-347.3733C472.7421,-338.3838 502.6641,-324.8706 525.0805,-314.7471"/>
<polygon fill="#191970" stroke="#191970" points="526.8092,-317.8068 534.4823,-310.5011 523.928,-311.4272 526.8092,-317.8068"/>
</g>
<!-- Node65&#45;&gt;Node37 -->
<g id="edge89" class="edge">
<title>Node65&#45;&gt;Node37</title>
<path fill="none" stroke="#191970" d="M431.5205,-347.4862C431.5205,-320.9293 431.5205,-245.5651 431.5205,-209.1655"/>
<polygon fill="#191970" stroke="#191970" points="435.0206,-208.8278 431.5205,-198.8279 428.0206,-208.8279 435.0206,-208.8278"/>
</g>
<!-- Node70&#45;&gt;Node1 -->
<g id="edge100" class="edge">
<title>Node70&#45;&gt;Node1</title>
<path fill="none" stroke="#191970" d="M1561.757,-527.1882C1564.7122,-526.7524 1567.6427,-526.353 1570.5205,-526 1901.7546,-485.3666 1987.7619,-515.2744 2320.5205,-490 2344.5733,-488.1731 2370.7557,-485.6354 2394.3672,-483.1417"/>
<polygon fill="#191970" stroke="#191970" points="2394.7442,-486.6214 2404.3153,-482.0779 2393.9998,-479.6611 2394.7442,-486.6214"/>
</g>
<!-- Node70&#45;&gt;Node3 -->
<g id="edge97" class="edge">
<title>Node70&#45;&gt;Node3</title>
<path fill="none" stroke="#191970" d="M1561.7718,-527.3015C1564.7229,-526.8347 1567.6486,-526.3978 1570.5205,-526 1620.6447,-519.0567 1990.1823,-527.1689 2024.5205,-490 2029.4243,-484.692 2028.2262,-424.7018 2022.5205,-403 2001.9077,-324.5983 1948.9441,-242.3299 1924.3832,-206.9274"/>
<polygon fill="#191970" stroke="#191970" points="1927.1386,-204.7611 1918.5226,-198.5955 1921.4131,-208.7884 1927.1386,-204.7611"/>
</g>
<!-- Node70&#45;&gt;Node21 -->
<g id="edge95" class="edge">
<title>Node70&#45;&gt;Node21</title>
<path fill="none" stroke="#191970" d="M1561.7737,-527.3154C1564.7244,-526.8448 1567.6493,-526.4033 1570.5205,-526 1618.3283,-519.2845 1970.8282,-525.5231 2003.5205,-490 2052.4322,-436.853 1970.722,-352.9137 1931.1297,-317.5629"/>
<polygon fill="#191970" stroke="#191970" points="1933.2136,-314.7356 1923.3826,-310.7854 1928.6045,-320.004 1933.2136,-314.7356"/>
</g>
<!-- Node70&#45;&gt;Node44 -->
<g id="edge94" class="edge">
<title>Node70&#45;&gt;Node44</title>
<path fill="none" stroke="#191970" d="M1423.5062,-534.9055C1341.5958,-526.3387 1210.4478,-510.0769 1165.5205,-490 1145.6211,-481.1075 1147.4334,-467.8621 1127.5205,-459 1087.2097,-441.06 970.7746,-426.8008 895.9467,-419.1537"/>
<polygon fill="#191970" stroke="#191970" points="895.9771,-415.6391 885.6765,-418.1188 895.2752,-422.6038 895.9771,-415.6391"/>
</g>
<!-- Node71 -->
<g id="node38" class="node">
<title>Node71</title>
<polygon fill="#ffffff" stroke="#bfbfbf" points="1713.0205,-465 1713.0205,-484 1764.0205,-484 1764.0205,-465 1713.0205,-465"/>
<text text-anchor="middle" x="1738.5205" y="-472" font-family="Helvetica,sans-Serif" font-size="10.00" fill="#000000">numeric</text>
</g>
<!-- Node70&#45;&gt;Node71 -->
<g id="edge96" class="edge">
<title>Node70&#45;&gt;Node71</title>
<path fill="none" stroke="#191970" d="M1561.8242,-527.8349C1603.4304,-518.8321 1657.1166,-505.7984 1703.5205,-490 1705.3606,-489.3735 1707.2372,-488.6879 1709.1178,-487.9647"/>
<polygon fill="#191970" stroke="#191970" points="1710.4932,-491.1835 1718.4051,-484.137 1707.8259,-484.7116 1710.4932,-491.1835"/>
</g>
<!-- Node72 -->
<g id="node39" class="node">
<title>Node72</title>
<polygon fill="#ffffff" stroke="#bfbfbf" points="896.5205,-465 896.5205,-484 990.5205,-484 990.5205,-465 896.5205,-465"/>
<text text-anchor="middle" x="943.5205" y="-472" font-family="Helvetica,sans-Serif" font-size="10.00" fill="#000000">boost/version.hpp</text>
</g>
<!-- Node70&#45;&gt;Node72 -->
<g id="edge98" class="edge">
<title>Node70&#45;&gt;Node72</title>
<path fill="none" stroke="#191970" d="M1423.4082,-537.9064C1327.5651,-532.1018 1149.1826,-518.3262 999.5205,-490 994.5073,-489.0512 989.2891,-487.8722 984.1426,-486.5911"/>
<polygon fill="#191970" stroke="#191970" points="984.9678,-483.1892 974.4068,-484.0353 983.1903,-489.9598 984.9678,-483.1892"/>
</g>
<!-- Node73 -->
<g id="node40" class="node">
<title>Node73</title>
<polygon fill="#ffffff" stroke="#bfbfbf" points="1008.5205,-459.5 1008.5205,-489.5 1118.5205,-489.5 1118.5205,-459.5 1008.5205,-459.5"/>
<text text-anchor="start" x="1016.5205" y="-477.5" font-family="Helvetica,sans-Serif" font-size="10.00" fill="#000000">boost/function_output</text>
<text text-anchor="middle" x="1063.5205" y="-466.5" font-family="Helvetica,sans-Serif" font-size="10.00" fill="#000000">_iterator.hpp</text>
</g>
<!-- Node70&#45;&gt;Node73 -->
<g id="edge99" class="edge">
<title>Node70&#45;&gt;Node73</title>
<path fill="none" stroke="#191970" d="M1423.2433,-533.2373C1350.5613,-524.1837 1233.1207,-508.4653 1132.5205,-490 1131.2639,-489.7693 1129.9953,-489.5318 1128.718,-489.2884"/>
<polygon fill="#191970" stroke="#191970" points="1129.2934,-485.8344 1118.8034,-487.3217 1127.9313,-492.7006 1129.2934,-485.8344"/>
</g>
<!-- Node70&#45;&gt;Node74 -->
<g id="edge101" class="edge">
<title>Node70&#45;&gt;Node74</title>
<path fill="none" stroke="#191970" d="M1465.5902,-526.4639C1445.5464,-515.2728 1418.3422,-500.0838 1398.524,-489.0186"/>
<polygon fill="#191970" stroke="#191970" points="1400.1591,-485.923 1389.7216,-484.1039 1396.7466,-492.0349 1400.1591,-485.923"/>
</g>
<!-- Node75 -->
<g id="node42" class="node">
<title>Node75</title>
<g id="a_node42"><a xlink:href="math_8hpp.html" target="_top" xlink:title="math/math.hpp">
<polygon fill="#ffffff" stroke="#ff0000" points="1331.5205,-403.5 1331.5205,-422.5 1413.5205,-422.5 1413.5205,-403.5 1331.5205,-403.5"/>
<text text-anchor="middle" x="1372.5205" y="-410.5" font-family="Helvetica,sans-Serif" font-size="10.00" fill="#000000">math/math.hpp</text>
</a>
</g>
</g>
<!-- Node70&#45;&gt;Node75 -->
<g id="edge104" class="edge">
<title>Node70&#45;&gt;Node75</title>
<path fill="none" stroke="#191970" d="M1561.8286,-527.6501C1564.7643,-527.0878 1567.6711,-526.5357 1570.5205,-526 1663.8939,-508.445 1837.1311,-529.5724 1773.5205,-459 1721.764,-401.579 1504.049,-433.9222 1427.5205,-423 1426.2505,-422.8187 1424.965,-422.6295 1423.6689,-422.4337"/>
<polygon fill="#191970" stroke="#191970" points="1424.0378,-418.9483 1413.6103,-420.8239 1422.9315,-425.8603 1424.0378,-418.9483"/>
</g>
<!-- Node79 -->
<g id="node43" class="node">
<title>Node79</title>
<g id="a_node43"><a xlink:href="RTree_8hpp.html" target="_top" xlink:title="mesh/RTree.hpp">
<polygon fill="#ffffff" stroke="#ff0000" points="1110.0205,-403.5 1110.0205,-422.5 1199.0205,-422.5 1199.0205,-403.5 1110.0205,-403.5"/>
<text text-anchor="middle" x="1154.5205" y="-410.5" font-family="Helvetica,sans-Serif" font-size="10.00" fill="#000000">mesh/RTree.hpp</text>
</a>
</g>
</g>
<!-- Node70&#45;&gt;Node79 -->
<g id="edge105" class="edge">
<title>Node70&#45;&gt;Node79</title>
<path fill="none" stroke="#191970" d="M1487.9278,-526.211C1481.36,-507.1716 1467.3657,-475.1858 1443.5205,-459 1424.4868,-446.0802 1287.7277,-428.4166 1209.3502,-419.1886"/>
<polygon fill="#191970" stroke="#191970" points="1209.5009,-415.6825 1199.1622,-417.9978 1208.6883,-422.6351 1209.5009,-415.6825"/>
</g>
<!-- Node82 -->
<g id="node44" class="node">
<title>Node82</title>
<g id="a_node44"><a xlink:href="BBUtils_8hpp.html" target="_top" xlink:title="mesh/impl/BBUtils.hpp">
<polygon fill="#ffffff" stroke="#ff0000" points="1175.0205,-465 1175.0205,-484 1292.0205,-484 1292.0205,-465 1175.0205,-465"/>
<text text-anchor="middle" x="1233.5205" y="-472" font-family="Helvetica,sans-Serif" font-size="10.00" fill="#000000">mesh/impl/BBUtils.hpp</text>
</a>
</g>
</g>
<!-- Node70&#45;&gt;Node82 -->
<g id="edge112" class="edge">
<title>Node70&#45;&gt;Node82</title>
<path fill="none" stroke="#191970" d="M1434.3958,-526.4639C1387.7664,-514.4015 1323.1823,-497.6944 1279.9582,-486.5128"/>
<polygon fill="#191970" stroke="#191970" points="1280.8227,-483.1213 1270.2648,-484.0053 1279.0696,-489.8983 1280.8227,-483.1213"/>
</g>
<!-- Node83 -->
<g id="node45" class="node">
<title>Node83</title>
<polygon fill="#ffffff" stroke="#bfbfbf" points="1566.5205,-465 1566.5205,-484 1694.5205,-484 1694.5205,-465 1566.5205,-465"/>
<text text-anchor="middle" x="1630.5205" y="-472" font-family="Helvetica,sans-Serif" font-size="10.00" fill="#000000">precice/impl/versions.hpp</text>
</g>
<!-- Node70&#45;&gt;Node83 -->
<g id="edge114" class="edge">
<title>Node70&#45;&gt;Node83</title>
<path fill="none" stroke="#191970" d="M1523.4904,-526.4639C1546.8536,-515.1209 1578.6764,-499.6707 1601.5399,-488.5703"/>
<polygon fill="#191970" stroke="#191970" points="1603.2721,-491.62 1610.7393,-484.1039 1600.2148,-485.323 1603.2721,-491.62"/>
</g>
<!-- Node70&#45;&gt;Node84 -->
<g id="edge115" class="edge">
<title>Node70&#45;&gt;Node84</title>
<path fill="none" stroke="#191970" d="M1493.0964,-526.4179C1492.9369,-507.8962 1489.7097,-476.759 1471.5205,-459 1467.9465,-455.5105 1193.8597,-394.2229 1077.67,-368.3633"/>
<polygon fill="#191970" stroke="#191970" points="1078.1145,-364.8766 1067.593,-366.1212 1076.5942,-371.7096 1078.1145,-364.8766"/>
</g>
<!-- Node90 -->
<g id="node47" class="node">
<title>Node90</title>
<g id="a_node47"><a xlink:href="Event_8hpp.html" target="_top" xlink:title="utils/Event.hpp">
<polygon fill="#ffffff" stroke="#ff0000" points="1621.5205,-347.5 1621.5205,-366.5 1703.5205,-366.5 1703.5205,-347.5 1621.5205,-347.5"/>
<text text-anchor="middle" x="1662.5205" y="-354.5" font-family="Helvetica,sans-Serif" font-size="10.00" fill="#000000">utils/Event.hpp</text>
</a>
</g>
</g>
<!-- Node70&#45;&gt;Node90 -->
<g id="edge120" class="edge">
<title>Node70&#45;&gt;Node90</title>
<path fill="none" stroke="#191970" d="M1503.4584,-526.4159C1515.94,-509.4972 1537.254,-481.4829 1557.5205,-459 1586.1886,-427.1967 1622.5997,-393.0763 1644.1459,-373.463"/>
<polygon fill="#191970" stroke="#191970" points="1646.5625,-375.9965 1651.6287,-366.6914 1641.8655,-370.8062 1646.5625,-375.9965"/>
</g>
<!-- Node74&#45;&gt;Node4 -->
<g id="edge102" class="edge">
<title>Node74&#45;&gt;Node4</title>
<path fill="none" stroke="#191970" d="M1358.4681,-464.9575C1346.3621,-455.8082 1329.7334,-440.7839 1322.5205,-423 1319.1796,-414.7628 1321.3476,-411.8112 1322.5205,-403 1332.3208,-329.3757 1360.2974,-245.163 1373.483,-208.1492"/>
<polygon fill="#191970" stroke="#191970" points="1376.8183,-209.2176 1376.9236,-198.6233 1370.2346,-206.8396 1376.8183,-209.2176"/>
</g>
<!-- Node74&#45;&gt;Node75 -->
<g id="edge103" class="edge">
<title>Node74&#45;&gt;Node75</title>
<path fill="none" stroke="#191970" d="M1372.5205,-464.8906C1372.5205,-456.3657 1372.5205,-443.6392 1372.5205,-432.9235"/>
<polygon fill="#191970" stroke="#191970" points="1376.0206,-432.7448 1372.5205,-422.7449 1369.0206,-432.7449 1376.0206,-432.7448"/>
</g>
<!-- Node79&#45;&gt;Node5 -->
<g id="edge109" class="edge">
<title>Node79&#45;&gt;Node5</title>
<path fill="none" stroke="#191970" d="M1199.0769,-410.1323C1232.9289,-408.0059 1280.6459,-405.1205 1322.5205,-403 1370.3898,-400.5759 2151.3431,-401.592 2184.5205,-367 2216.8498,-333.2923 2123.9423,-199.7744 2088.0341,-150.9786"/>
<polygon fill="#191970" stroke="#191970" points="2090.6215,-148.5921 2081.8504,-142.6492 2085.0011,-152.7647 2090.6215,-148.5921"/>
</g>
<!-- Node79&#45;&gt;Node18 -->
<g id="edge111" class="edge">
<title>Node79&#45;&gt;Node18</title>
<path fill="none" stroke="#191970" d="M1163.6433,-403.4509C1181.8055,-384.4401 1222.6926,-341.6423 1245.4552,-317.816"/>
<polygon fill="#191970" stroke="#191970" points="1248.0437,-320.1733 1252.4208,-310.5249 1242.9822,-315.3378 1248.0437,-320.1733"/>
</g>
<!-- Node79&#45;&gt;Node20 -->
<g id="edge106" class="edge">
<title>Node79&#45;&gt;Node20</title>
<path fill="none" stroke="#191970" d="M1109.7482,-411.802C1031.8607,-408.9084 866.8064,-399.1827 731.5205,-367 678.498,-354.3866 619.7495,-330.1401 585.3138,-314.8078"/>
<polygon fill="#191970" stroke="#191970" points="586.4109,-311.4633 575.8557,-310.5476 583.536,-317.8458 586.4109,-311.4633"/>
</g>
<!-- Node79&#45;&gt;Node21 -->
<g id="edge108" class="edge">
<title>Node79&#45;&gt;Node21</title>
<path fill="none" stroke="#191970" d="M1199.4506,-409.9136C1323.1441,-401.3297 1662.8162,-377.1401 1712.5205,-367 1775.7067,-354.1095 1846.7464,-327.4503 1884.5064,-312.254"/>
<polygon fill="#191970" stroke="#191970" points="1885.8583,-315.4826 1893.8026,-308.4727 1883.2209,-308.9984 1885.8583,-315.4826"/>
</g>
<!-- Node79&#45;&gt;Node37 -->
<g id="edge107" class="edge">
<title>Node79&#45;&gt;Node37</title>
<path fill="none" stroke="#191970" d="M1109.7448,-411.218C944.447,-404.5358 377.403,-380.6544 364.5205,-367 320.2575,-320.0846 382.554,-241.1278 414.562,-206.3437"/>
<polygon fill="#191970" stroke="#191970" points="417.2948,-208.5471 421.6056,-198.8689 412.2003,-203.7465 417.2948,-208.5471"/>
</g>
<!-- Node79&#45;&gt;Node45 -->
<g id="edge110" class="edge">
<title>Node79&#45;&gt;Node45</title>
<path fill="none" stroke="#191970" d="M1110.0121,-405.3309C1050.8101,-395.1299 946.2755,-377.1178 882.9018,-366.198"/>
<polygon fill="#191970" stroke="#191970" points="883.1645,-362.6918 872.7154,-364.4428 881.9758,-369.5901 883.1645,-362.6918"/>
</g>
<!-- Node82&#45;&gt;Node79 -->
<g id="edge113" class="edge">
<title>Node82&#45;&gt;Node79</title>
<path fill="none" stroke="#191970" d="M1221.1768,-464.8906C1208.7702,-455.2324 1189.4362,-440.1812 1174.7792,-428.771"/>
<polygon fill="#191970" stroke="#191970" points="1176.8184,-425.923 1166.7776,-422.5419 1172.5184,-431.4466 1176.8184,-425.923"/>
</g>
<!-- Node84&#45;&gt;Node2 -->
<g id="edge118" class="edge">
<title>Node84&#45;&gt;Node2</title>
<path fill="none" stroke="#191970" d="M1027.9525,-347.2528C1030.1289,-334.0576 1034.9501,-309.9796 1043.5205,-291 1055.899,-263.5871 1060.6142,-256.6245 1081.5205,-235 1159.1281,-154.7265 1204.955,-165.3332 1284.5205,-87 1302.8646,-68.9401 1320.1031,-44.7853 1330.9424,-28.3792"/>
<polygon fill="#191970" stroke="#191970" points="1334.0516,-30.0168 1336.545,-19.7195 1328.1743,-26.2144 1334.0516,-30.0168"/>
</g>
<!-- Node84&#45;&gt;Node4 -->
<g id="edge116" class="edge">
<title>Node84&#45;&gt;Node4</title>
<path fill="none" stroke="#191970" d="M1046.5674,-347.4862C1105.9366,-319.311 1281.0658,-236.1988 1351.094,-202.9651"/>
<polygon fill="#191970" stroke="#191970" points="1352.7211,-206.0671 1360.2547,-198.6177 1349.7198,-199.7432 1352.7211,-206.0671"/>
</g>
<!-- Node84&#45;&gt;Node29 -->
<g id="edge119" class="edge">
<title>Node84&#45;&gt;Node29</title>
<path fill="none" stroke="#191970" d="M1067.658,-354.0876C1207.8739,-344.1608 1665.1444,-311.7877 1787.2926,-303.14"/>
<polygon fill="#191970" stroke="#191970" points="1787.6908,-306.6207 1797.4186,-302.4231 1787.1964,-299.6382 1787.6908,-306.6207"/>
</g>
<!-- Node84&#45;&gt;Node36 -->
<g id="edge117" class="edge">
<title>Node84&#45;&gt;Node36</title>
<path fill="none" stroke="#191970" d="M1017.3977,-347.4509C999.2356,-328.4401 958.3485,-285.6423 935.5858,-261.816"/>
<polygon fill="#191970" stroke="#191970" points="938.0588,-259.3378 928.6202,-254.5249 932.9973,-264.1733 938.0588,-259.3378"/>
</g>
<!-- Node90&#45;&gt;Node2 -->
<g id="edge122" class="edge">
<title>Node90&#45;&gt;Node2</title>
<path fill="none" stroke="#191970" d="M1660.4635,-347.4362C1657.2769,-334.0316 1650.2594,-309.2536 1638.5205,-291 1560.6447,-169.9055 1419.9193,-64.0167 1365.1716,-25.4816"/>
<polygon fill="#191970" stroke="#191970" points="1367.0579,-22.53 1356.8533,-19.681 1363.0539,-28.2718 1367.0579,-22.53"/>
</g>
<!-- Node90&#45;&gt;Node3 -->
<g id="edge124" class="edge">
<title>Node90&#45;&gt;Node3</title>
<path fill="none" stroke="#191970" d="M1671.6055,-347.2962C1692.881,-325.0118 1748.3241,-269.4493 1803.5205,-235 1827.6588,-219.9347 1857.5915,-207.6199 1879.8185,-199.5364"/>
<polygon fill="#191970" stroke="#191970" points="1881.1845,-202.7656 1889.4402,-196.1254 1878.8455,-196.1679 1881.1845,-202.7656"/>
</g>
<!-- Node90&#45;&gt;Node4 -->
<g id="edge125" class="edge">
<title>Node90&#45;&gt;Node4</title>
<path fill="none" stroke="#191970" d="M1656.915,-347.3461C1642.9415,-324.1701 1604.1591,-265.0839 1555.5205,-235 1520.5051,-213.3423 1475.4743,-201.8036 1439.8609,-195.6994"/>
<polygon fill="#191970" stroke="#191970" points="1440.0381,-192.1829 1429.6084,-194.0461 1438.9237,-199.0936 1440.0381,-192.1829"/>
</g>
<!-- Node90&#45;&gt;Node21 -->
<g id="edge121" class="edge">
<title>Node90&#45;&gt;Node21</title>
<path fill="none" stroke="#191970" d="M1703.6378,-347.7527C1754.6814,-336.273 1840.3326,-317.0101 1884.0469,-307.1788"/>
<polygon fill="#191970" stroke="#191970" points="1884.9734,-310.5579 1893.9617,-304.949 1883.4374,-303.7285 1884.9734,-310.5579"/>
</g>
<!-- Node90&#45;&gt;Node29 -->
<g id="edge123" class="edge">
<title>Node90&#45;&gt;Node29</title>
<path fill="none" stroke="#191970" d="M1689.166,-347.3733C1716.5752,-337.4706 1759.1786,-322.0784 1787.6969,-311.775"/>
<polygon fill="#191970" stroke="#191970" points="1788.933,-315.0499 1797.1487,-308.3601 1786.5544,-308.4664 1788.933,-315.0499"/>
</g>
<!-- Node92&#45;&gt;Node20 -->
<g id="edge128" class="edge">
<title>Node92&#45;&gt;Node20</title>
<path fill="none" stroke="#191970" d="M839.465,-531.9532C803.4554,-524.5539 759.2769,-511.752 724.5205,-490 651.2221,-444.1267 590.9015,-357.3642 566.803,-319.4787"/>
<polygon fill="#191970" stroke="#191970" points="569.495,-317.182 561.2268,-310.5572 563.559,-320.8921 569.495,-317.182"/>
</g>
<!-- Node92&#45;&gt;Node44 -->
<g id="edge127" class="edge">
<title>Node92&#45;&gt;Node44</title>
<path fill="none" stroke="#191970" d="M848.6544,-531.9685C804.1328,-523.2105 747.4807,-508.7524 733.5205,-490 725.2932,-478.9484 726.1789,-470.6588 733.5205,-459 743.2345,-443.5737 759.7155,-433.2059 776.3065,-426.2886"/>
<polygon fill="#191970" stroke="#191970" points="777.9257,-429.418 786.0373,-422.6024 775.4459,-422.8719 777.9257,-429.418"/>
</g>
<!-- Node92&#45;&gt;Node72 -->
<g id="edge130" class="edge">
<title>Node92&#45;&gt;Node72</title>
<path fill="none" stroke="#191970" d="M910.965,-531.9005C916.7214,-521.751 925.9418,-505.4941 933.1029,-492.8679"/>
<polygon fill="#191970" stroke="#191970" points="936.1971,-494.5067 938.0861,-484.0817 930.1082,-491.0533 936.1971,-494.5067"/>
</g>
<!-- Node92&#45;&gt;Node73 -->
<g id="edge131" class="edge">
<title>Node92&#45;&gt;Node73</title>
<path fill="none" stroke="#191970" d="M928.1581,-531.9005C951.7188,-521.9096 989.2355,-506.0006 1018.8032,-493.4624"/>
<polygon fill="#191970" stroke="#191970" points="1020.256,-496.6481 1028.096,-489.5218 1017.5232,-490.2036 1020.256,-496.6481"/>
</g>
<!-- Node92&#45;&gt;Node74 -->
<g id="edge132" class="edge">
<title>Node92&#45;&gt;Node74</title>
<path fill="none" stroke="#191970" d="M994.8642,-531.9787C1075.1304,-522.9198 1196.0807,-508.0187 1300.5205,-490 1307.2085,-488.8461 1314.2183,-487.5044 1321.129,-486.1024"/>
<polygon fill="#191970" stroke="#191970" points="1322.0571,-489.4843 1331.134,-484.0199 1320.6306,-482.6312 1322.0571,-489.4843"/>
</g>
<!-- Node92&#45;&gt;Node79 -->
<g id="edge133" class="edge">
<title>Node92&#45;&gt;Node79</title>
<path fill="none" stroke="#191970" d="M891.933,-531.958C870.6777,-515.9008 834.0115,-482.8935 854.5205,-459 870.2565,-440.6673 1017.4261,-424.9923 1099.6269,-417.5766"/>
<polygon fill="#191970" stroke="#191970" points="1100.1518,-421.0437 1109.8021,-416.6708 1099.5311,-414.0713 1100.1518,-421.0437"/>
</g>
<!-- Node92&#45;&gt;Node82 -->
<g id="edge134" class="edge">
<title>Node92&#45;&gt;Node82</title>
<path fill="none" stroke="#191970" d="M952.1666,-531.9717C1011.3456,-519.8833 1113.337,-499.0497 1176.9094,-486.0638"/>
<polygon fill="#191970" stroke="#191970" points="1177.6729,-489.4802 1186.7701,-484.0496 1176.2719,-482.6219 1177.6729,-489.4802"/>
</g>
<!-- Node92&#45;&gt;Node90 -->
<g id="edge135" class="edge">
<title>Node92&#45;&gt;Node90</title>
<path fill="none" stroke="#191970" d="M898.6728,-531.75C887.6667,-514.7806 869.0562,-479.658 887.5205,-459 935.2086,-405.6461 1136.6822,-433.1351 1207.5205,-423 1258.8758,-415.6524 1271.2509,-410.9236 1322.5205,-403 1424.6364,-387.2183 1544.4772,-371.7029 1611.1336,-363.3393"/>
<polygon fill="#191970" stroke="#191970" points="1611.8759,-366.7739 1621.364,-362.0595 1611.0069,-359.828 1611.8759,-366.7739"/>
</g>
<!-- Node93 -->
<g id="node49" class="node">
<title>Node93</title>
<polygon fill="#ffffff" stroke="#bfbfbf" points="743.0205,-465 743.0205,-484 802.0205,-484 802.0205,-465 743.0205,-465"/>
<text text-anchor="middle" x="772.5205" y="-472" font-family="Helvetica,sans-Serif" font-size="10.00" fill="#000000">Eigen/QR</text>
</g>
<!-- Node92&#45;&gt;Node93 -->
<g id="edge129" class="edge">
<title>Node92&#45;&gt;Node93</title>
<path fill="none" stroke="#191970" d="M886.4648,-531.9005C864.0457,-520.6067 826.6151,-501.7506 800.8073,-488.7497"/>
<polygon fill="#191970" stroke="#191970" points="802.0463,-485.4549 791.5408,-484.0817 798.897,-491.7065 802.0463,-485.4549"/>
</g>
<!-- Node104&#45;&gt;Node2 -->
<g id="edge142" class="edge">
<title>Node104&#45;&gt;Node2</title>
<path fill="none" stroke="#191970" d="M1839.4352,-464.9848C1824.3263,-462.9452 1808.3863,-460.8492 1793.5205,-459 1651.934,-441.3877 1612.9717,-457.4702 1474.5205,-423 1472.4633,-422.4878 1191.7133,-312.7526 1190.5205,-311 1185.5192,-303.6515 1188.1539,-299.5681 1190.5205,-291 1218.6468,-189.1697 1266.0708,-181.8837 1312.5205,-87 1321.8486,-67.9454 1330.4101,-45.2119 1335.9782,-29.4075"/>
<polygon fill="#191970" stroke="#191970" points="1339.3734,-30.2981 1339.3274,-19.7034 1332.7564,-28.0143 1339.3734,-30.2981"/>
</g>
<!-- Node104&#45;&gt;Node3 -->
<g id="edge144" class="edge">
<title>Node104&#45;&gt;Node3</title>
<path fill="none" stroke="#191970" d="M1904.7241,-464.9439C1897.1191,-437.7381 1877.1736,-357.5378 1885.5205,-291 1889.2032,-261.6431 1898.627,-228.6218 1905.0572,-208.3129"/>
<polygon fill="#191970" stroke="#191970" points="1908.4224,-209.282 1908.1834,-198.6899 1901.7649,-207.1192 1908.4224,-209.282"/>
</g>
<!-- Node104&#45;&gt;Node4 -->
<g id="edge145" class="edge">
<title>Node104&#45;&gt;Node4</title>
<path fill="none" stroke="#191970" d="M1842.3843,-464.9777C1754.0605,-451.9572 1604.4156,-429.4727 1579.5205,-423 1509.8425,-404.8839 1475.958,-420.2637 1427.5205,-367 1386.3844,-321.7653 1380.4823,-244.7411 1380.1266,-208.6956"/>
<polygon fill="#191970" stroke="#191970" points="1383.6272,-208.539 1380.1684,-198.5247 1376.6272,-208.5102 1383.6272,-208.539"/>
</g>
<!-- Node104&#45;&gt;Node5 -->
<g id="edge141" class="edge">
<title>Node104&#45;&gt;Node5</title>
<path fill="none" stroke="#191970" d="M1863.5475,-464.9361C1788.7742,-447.6838 1642.0583,-409.2017 1612.5205,-367 1607.4235,-359.7177 1608.4155,-354.8843 1612.5205,-347 1696.6373,-185.4405 1944.6655,-145.3162 2038.2367,-135.8096"/>
<polygon fill="#191970" stroke="#191970" points="2038.7278,-139.2787 2048.3488,-134.8417 2038.0608,-132.3106 2038.7278,-139.2787"/>
</g>
<!-- Node104&#45;&gt;Node18 -->
<g id="edge146" class="edge">
<title>Node104&#45;&gt;Node18</title>
<path fill="none" stroke="#191970" d="M1842.3843,-464.9777C1754.0605,-451.9572 1604.4156,-429.4727 1579.5205,-423 1509.8425,-404.8839 1494.7541,-392.7461 1427.5205,-367 1381.1257,-349.2338 1327.7965,-327.8597 1294.3766,-314.349"/>
<polygon fill="#191970" stroke="#191970" points="1295.6702,-311.0968 1285.0875,-310.5889 1293.0436,-317.5854 1295.6702,-311.0968"/>
</g>
<!-- Node104&#45;&gt;Node19 -->
<g id="edge147" class="edge">
<title>Node104&#45;&gt;Node19</title>
<path fill="none" stroke="#191970" d="M1972.3744,-464.9581C2054.0135,-452.9466 2192.8651,-432.5175 2269.8919,-421.1846"/>
<polygon fill="#191970" stroke="#191970" points="2270.4982,-424.6332 2279.8822,-419.7147 2269.4792,-417.7077 2270.4982,-424.6332"/>
</g>
<!-- Node104&#45;&gt;Node21 -->
<g id="edge140" class="edge">
<title>Node104&#45;&gt;Node21</title>
<path fill="none" stroke="#191970" d="M1907.7413,-464.9248C1908.3736,-437.499 1910.201,-358.232 1911.0618,-320.8964"/>
<polygon fill="#191970" stroke="#191970" points="1914.564,-320.8376 1911.2955,-310.7595 1907.5658,-320.6762 1914.564,-320.8376"/>
</g>
<!-- Node104&#45;&gt;Node29 -->
<g id="edge143" class="edge">
<title>Node104&#45;&gt;Node29</title>
<path fill="none" stroke="#191970" d="M1883.8009,-464.9978C1866.288,-456.6626 1843.4966,-442.7657 1831.5205,-423 1812.2731,-391.2334 1812.7391,-346.2011 1815.0011,-320.6711"/>
<polygon fill="#191970" stroke="#191970" points="1818.4815,-321.0401 1816.0652,-310.7245 1811.5212,-320.2954 1818.4815,-321.0401"/>
</g>
<!-- Node104&#45;&gt;Node41 -->
<g id="edge139" class="edge">
<title>Node104&#45;&gt;Node41</title>
<path fill="none" stroke="#191970" d="M1834.5984,-464.9991C1814.8111,-462.7123 1793.3701,-460.4997 1773.5205,-459 1326.0661,-425.1925 1212.0675,-455.5587 764.5205,-423 537.5331,-406.4868 451.2088,-483.1983 255.5205,-367 237.3941,-356.2367 224.6515,-335.222 217.2453,-319.786"/>
<polygon fill="#191970" stroke="#191970" points="220.4211,-318.314 213.1461,-310.6118 214.0301,-321.1697 220.4211,-318.314"/>
</g>
</g>
</svg>
