<?xml version="1.0" encoding="UTF-8" standalone="no"?>
<!DOCTYPE svg PUBLIC "-//W3C//DTD SVG 1.1//EN"
 "http://www.w3.org/Graphics/SVG/1.1/DTD/svg11.dtd">
<!-- Generated by graphviz version 2.40.1 (20161225.0304)
 -->
<!-- Title: BOOST_AUTO_TEST_CASE Pages: 1 -->
<svg width="687pt" height="372pt"
 viewBox="0.00 0.00 687.00 372.00" xmlns="http://www.w3.org/2000/svg" xmlns:xlink="http://www.w3.org/1999/xlink">
<g id="graph0" class="graph" transform="scale(1 1) rotate(0) translate(4 368)">
<title>BOOST_AUTO_TEST_CASE</title>
<polygon fill="#ffffff" stroke="transparent" points="-4,4 -4,-368 683,-368 683,4 -4,4"/>
<!-- Node128 -->
<g id="node1" class="node">
<title>Node128</title>
<polygon fill="#bfbfbf" stroke="#000000" points="0,-167 0,-186 143,-186 143,-167 0,-167"/>
<text text-anchor="middle" x="71.5" y="-174" font-family="Helvetica,sans-Serif" font-size="10.00" fill="#000000">BOOST_AUTO_TEST_CASE</text>
</g>
<!-- Node129 -->
<g id="node2" class="node">
<title>Node129</title>
<g id="a_node2"><a xlink:href="namespaceprecice_1_1testing.html#a08533fd83bad3d7f27ea7f4a35a14aa4" target="_top" xlink:title="precice::testing::nextMeshID">
<polygon fill="#ffffff" stroke="#000000" points="179,-337 179,-356 334,-356 334,-337 179,-337"/>
<text text-anchor="middle" x="256.5" y="-344" font-family="Helvetica,sans-Serif" font-size="10.00" fill="#000000">precice::testing::nextMeshID</text>
</a>
</g>
</g>
<!-- Node128&#45;&gt;Node129 -->
<g id="edge1" class="edge">
<title>Node128&#45;&gt;Node129</title>
<path fill="none" stroke="#191970" d="M75.7088,-186.1695C87.7243,-212.6147 124.843,-286.681 179,-324.5 183.8485,-327.8858 189.2095,-330.7533 194.7814,-333.1814"/>
<polygon fill="#191970" stroke="#191970" points="193.7152,-336.5217 204.3045,-336.8667 196.2416,-329.9935 193.7152,-336.5217"/>
</g>
<!-- Node131 -->
<g id="node4" class="node">
<title>Node131</title>
<g id="a_node4"><a xlink:href="classprecice_1_1mesh_1_1Mesh.html#a6e387c9e2c5ccd43dcf81d57795ba935" target="_top" xlink:title="precice::mesh::Mesh\l::createData">
<polygon fill="#ffffff" stroke="#000000" points="198.5,-284.5 198.5,-314.5 314.5,-314.5 314.5,-284.5 198.5,-284.5"/>
<text text-anchor="start" x="206.5" y="-302.5" font-family="Helvetica,sans-Serif" font-size="10.00" fill="#000000">precice::mesh::Mesh</text>
<text text-anchor="middle" x="256.5" y="-291.5" font-family="Helvetica,sans-Serif" font-size="10.00" fill="#000000">::createData</text>
</a>
</g>
</g>
<!-- Node128&#45;&gt;Node131 -->
<g id="edge3" class="edge">
<title>Node128&#45;&gt;Node131</title>
<path fill="none" stroke="#191970" d="M79.3449,-186.1773C95.7829,-205.8394 135.9011,-250.6923 179,-275.5 182.1777,-277.3291 185.5106,-279.0344 188.9341,-280.6221"/>
<polygon fill="#191970" stroke="#191970" points="187.5921,-283.8548 198.1638,-284.5546 190.336,-277.4149 187.5921,-283.8548"/>
</g>
<!-- Node134 -->
<g id="node7" class="node">
<title>Node134</title>
<g id="a_node7"><a xlink:href="classprecice_1_1mesh_1_1Mesh.html#af6e6d684553dc5d0f0a23cacb77b3fc7" target="_top" xlink:title="Creates and initializes a Vertex object. ">
<polygon fill="#ffffff" stroke="#000000" points="198.5,-235.5 198.5,-265.5 314.5,-265.5 314.5,-235.5 198.5,-235.5"/>
<text text-anchor="start" x="206.5" y="-253.5" font-family="Helvetica,sans-Serif" font-size="10.00" fill="#000000">precice::mesh::Mesh</text>
<text text-anchor="middle" x="256.5" y="-242.5" font-family="Helvetica,sans-Serif" font-size="10.00" fill="#000000">::createVertex</text>
</a>
</g>
</g>
<!-- Node128&#45;&gt;Node134 -->
<g id="edge6" class="edge">
<title>Node128&#45;&gt;Node134</title>
<path fill="none" stroke="#191970" d="M90.196,-186.1385C111.3819,-196.8374 147.1175,-214.2134 179,-226.5 184.0929,-228.4627 189.4198,-230.3811 194.793,-232.2236"/>
<polygon fill="#191970" stroke="#191970" points="193.8806,-235.6088 204.4743,-235.4515 196.0947,-228.9682 193.8806,-235.6088"/>
</g>
<!-- Node135 -->
<g id="node8" class="node">
<title>Node135</title>
<g id="a_node8"><a xlink:href="classprecice_1_1mesh_1_1Mesh.html#a13faa9b03e5d20918ed6528db1415fa3" target="_top" xlink:title="Returns modifieable container holding all vertices. ">
<polygon fill="#ffffff" stroke="#000000" points="198.5,-186.5 198.5,-216.5 314.5,-216.5 314.5,-186.5 198.5,-186.5"/>
<text text-anchor="start" x="206.5" y="-204.5" font-family="Helvetica,sans-Serif" font-size="10.00" fill="#000000">precice::mesh::Mesh</text>
<text text-anchor="middle" x="256.5" y="-193.5" font-family="Helvetica,sans-Serif" font-size="10.00" fill="#000000">::vertices</text>
</a>
</g>
</g>
<!-- Node128&#45;&gt;Node135 -->
<g id="edge7" class="edge">
<title>Node128&#45;&gt;Node135</title>
<path fill="none" stroke="#191970" d="M141.9683,-186.0227C157.068,-188.0632 172.9993,-190.2161 188.0224,-192.2463"/>
<polygon fill="#191970" stroke="#191970" points="187.8778,-195.7585 198.2564,-193.6292 188.8153,-188.8215 187.8778,-195.7585"/>
</g>
<!-- Node136 -->
<g id="node9" class="node">
<title>Node136</title>
<g id="a_node9"><a xlink:href="classprecice_1_1mesh_1_1Mesh.html#ae05c5234aa9adc6f47a814622039c28e" target="_top" xlink:title="Creates and initializes an Edge object. ">
<polygon fill="#ffffff" stroke="#000000" points="198.5,-137.5 198.5,-167.5 314.5,-167.5 314.5,-137.5 198.5,-137.5"/>
<text text-anchor="start" x="206.5" y="-155.5" font-family="Helvetica,sans-Serif" font-size="10.00" fill="#000000">precice::mesh::Mesh</text>
<text text-anchor="middle" x="256.5" y="-144.5" font-family="Helvetica,sans-Serif" font-size="10.00" fill="#000000">::createEdge</text>
</a>
</g>
</g>
<!-- Node128&#45;&gt;Node136 -->
<g id="edge8" class="edge">
<title>Node128&#45;&gt;Node136</title>
<path fill="none" stroke="#191970" d="M143.0258,-167.221C157.8962,-165.2918 173.53,-163.2637 188.2777,-161.3505"/>
<polygon fill="#191970" stroke="#191970" points="188.8592,-164.8044 198.3258,-160.0469 187.9586,-157.8626 188.8592,-164.8044"/>
</g>
<!-- Node137 -->
<g id="node10" class="node">
<title>Node137</title>
<g id="a_node10"><a xlink:href="classprecice_1_1mesh_1_1Mesh.html#aec6f303d7791f8a64e2b78180531c89e" target="_top" xlink:title="Returns modifiable container holding all edges. ">
<polygon fill="#ffffff" stroke="#000000" points="198.5,-88.5 198.5,-118.5 314.5,-118.5 314.5,-88.5 198.5,-88.5"/>
<text text-anchor="start" x="206.5" y="-106.5" font-family="Helvetica,sans-Serif" font-size="10.00" fill="#000000">precice::mesh::Mesh</text>
<text text-anchor="middle" x="256.5" y="-95.5" font-family="Helvetica,sans-Serif" font-size="10.00" fill="#000000">::edges</text>
</a>
</g>
</g>
<!-- Node128&#45;&gt;Node137 -->
<g id="edge9" class="edge">
<title>Node128&#45;&gt;Node137</title>
<path fill="none" stroke="#191970" d="M91.4368,-166.819C112.8155,-156.6226 147.8907,-140.423 179,-128.5 184.891,-126.2422 191.0832,-124.0118 197.2925,-121.868"/>
<polygon fill="#191970" stroke="#191970" points="198.6706,-125.0968 207.0233,-118.5789 196.429,-118.4654 198.6706,-125.0968"/>
</g>
<!-- Node138 -->
<g id="node11" class="node">
<title>Node138</title>
<g id="a_node11"><a xlink:href="namespaceprecice_1_1mesh.html#ad25fbe418df4389fce244ba338d49536" target="_top" xlink:title="precice::mesh::asChain">
<polygon fill="#ffffff" stroke="#000000" points="191.5,-50 191.5,-69 321.5,-69 321.5,-50 191.5,-50"/>
<text text-anchor="middle" x="256.5" y="-57" font-family="Helvetica,sans-Serif" font-size="10.00" fill="#000000">precice::mesh::asChain</text>
</a>
</g>
</g>
<!-- Node128&#45;&gt;Node138 -->
<g id="edge10" class="edge">
<title>Node128&#45;&gt;Node138</title>
<path fill="none" stroke="#191970" d="M79.2961,-166.8576C95.6439,-147.2966 135.6047,-102.8323 179,-79.5 184.1747,-76.7177 189.7542,-74.3089 195.4635,-72.2261"/>
<polygon fill="#191970" stroke="#191970" points="196.7529,-75.4862 205.146,-69.0204 194.5527,-68.8409 196.7529,-75.4862"/>
</g>
<!-- Node142 -->
<g id="node15" class="node">
<title>Node142</title>
<g id="a_node15"><a xlink:href="namespaceprecice_1_1utils.html#a5b6e7c7682a521aedca3fe44cc5c060c" target="_top" xlink:title="Function that generates an array from given elements. ">
<polygon fill="#ffffff" stroke="#000000" points="200,-.5 200,-30.5 313,-30.5 313,-.5 200,-.5"/>
<text text-anchor="start" x="208" y="-18.5" font-family="Helvetica,sans-Serif" font-size="10.00" fill="#000000">precice::utils::make</text>
<text text-anchor="middle" x="256.5" y="-7.5" font-family="Helvetica,sans-Serif" font-size="10.00" fill="#000000">_array</text>
</a>
</g>
</g>
<!-- Node128&#45;&gt;Node142 -->
<g id="edge14" class="edge">
<title>Node128&#45;&gt;Node142</title>
<path fill="none" stroke="#191970" d="M76.5657,-166.6479C89.8739,-141.7317 128.3229,-75.6916 179,-40.5 182.5272,-38.0506 186.3085,-35.8305 190.2339,-33.8197"/>
<polygon fill="#191970" stroke="#191970" points="191.9881,-36.8651 199.6029,-29.4986 189.0563,-30.5086 191.9881,-36.8651"/>
</g>
<!-- Node130 -->
<g id="node3" class="node">
<title>Node130</title>
<g id="a_node3"><a xlink:href="classprecice_1_1utils_1_1ManageUniqueIDs.html#a02be264c279698ae293587b6576088b5" target="_top" xlink:title="precice::utils::ManageUnique\lIDs::getFreeID">
<polygon fill="#ffffff" stroke="#000000" points="370,-333.5 370,-363.5 528,-363.5 528,-333.5 370,-333.5"/>
<text text-anchor="start" x="378" y="-351.5" font-family="Helvetica,sans-Serif" font-size="10.00" fill="#000000">precice::utils::ManageUnique</text>
<text text-anchor="middle" x="449" y="-340.5" font-family="Helvetica,sans-Serif" font-size="10.00" fill="#000000">IDs::getFreeID</text>
</a>
</g>
</g>
<!-- Node129&#45;&gt;Node130 -->
<g id="edge2" class="edge">
<title>Node129&#45;&gt;Node130</title>
<path fill="none" stroke="#191970" d="M334.2422,-347.3077C342.5509,-347.394 351.0508,-347.4823 359.4814,-347.5699"/>
<polygon fill="#191970" stroke="#191970" points="359.6773,-351.0721 369.7132,-347.6762 359.7501,-344.0724 359.6773,-351.0721"/>
</g>
<!-- Node132 -->
<g id="node5" class="node">
<title>Node132</title>
<g id="a_node5"><a xlink:href="classprecice_1_1mesh_1_1Mesh.html#aceb3eabb4f8e40a44d5d1c2822ba7b56" target="_top" xlink:title="precice::mesh::Mesh\l::data">
<polygon fill="#ffffff" stroke="#000000" points="391,-284.5 391,-314.5 507,-314.5 507,-284.5 391,-284.5"/>
<text text-anchor="start" x="399" y="-302.5" font-family="Helvetica,sans-Serif" font-size="10.00" fill="#000000">precice::mesh::Mesh</text>
<text text-anchor="middle" x="449" y="-291.5" font-family="Helvetica,sans-Serif" font-size="10.00" fill="#000000">::data</text>
</a>
</g>
</g>
<!-- Node131&#45;&gt;Node132 -->
<g id="edge4" class="edge">
<title>Node131&#45;&gt;Node132</title>
<path fill="none" stroke="#191970" d="M314.5174,-299.5C335.3513,-299.5 359.0389,-299.5 380.6676,-299.5"/>
<polygon fill="#191970" stroke="#191970" points="380.7693,-303.0001 390.7693,-299.5 380.7692,-296.0001 380.7693,-303.0001"/>
</g>
<!-- Node133 -->
<g id="node6" class="node">
<title>Node133</title>
<g id="a_node6"><a xlink:href="classprecice_1_1mesh_1_1Data.html#a571e94df898349b76b6c4ce8db34ccd1" target="_top" xlink:title="Returns the number of created (and still existing) Data objects. ">
<polygon fill="#ffffff" stroke="#000000" points="392,-235.5 392,-265.5 506,-265.5 506,-235.5 392,-235.5"/>
<text text-anchor="start" x="400" y="-253.5" font-family="Helvetica,sans-Serif" font-size="10.00" fill="#000000">precice::mesh::Data</text>
<text text-anchor="middle" x="449" y="-242.5" font-family="Helvetica,sans-Serif" font-size="10.00" fill="#000000">::getDataCount</text>
</a>
</g>
</g>
<!-- Node131&#45;&gt;Node133 -->
<g id="edge5" class="edge">
<title>Node131&#45;&gt;Node133</title>
<path fill="none" stroke="#191970" d="M314.5174,-284.7319C335.7336,-279.3315 359.9092,-273.1777 381.8561,-267.5912"/>
<polygon fill="#191970" stroke="#191970" points="382.9368,-270.9278 391.7643,-265.0691 381.21,-264.1441 382.9368,-270.9278"/>
</g>
<!-- Node139 -->
<g id="node12" class="node">
<title>Node139</title>
<g id="a_node12"><a xlink:href="namespaceprecice_1_1utils_1_1petsc.html#af4f3b4ed0340a1790eefec6187535621" target="_top" xlink:title="precice::utils::petsc\l::swap">
<polygon fill="#ffffff" stroke="#000000" points="393.5,-66.5 393.5,-96.5 504.5,-96.5 504.5,-66.5 393.5,-66.5"/>
<text text-anchor="start" x="401.5" y="-84.5" font-family="Helvetica,sans-Serif" font-size="10.00" fill="#000000">precice::utils::petsc</text>
<text text-anchor="middle" x="449" y="-73.5" font-family="Helvetica,sans-Serif" font-size="10.00" fill="#000000">::swap</text>
</a>
</g>
</g>
<!-- Node138&#45;&gt;Node139 -->
<g id="edge11" class="edge">
<title>Node138&#45;&gt;Node139</title>
<path fill="none" stroke="#191970" d="M321.6717,-66.9482C341.4558,-69.2092 363.2024,-71.6946 383.038,-73.9615"/>
<polygon fill="#191970" stroke="#191970" points="382.8832,-77.4665 393.216,-75.1247 383.6781,-70.5118 382.8832,-77.4665"/>
</g>
<!-- Node140 -->
<g id="node13" class="node">
<title>Node140</title>
<g id="a_node13"><a xlink:href="namespaceprecice_1_1mesh.html#aeb5d253b5d4bc794c6744fe62636bd89" target="_top" xlink:title="precice::mesh::sharedVertex">
<polygon fill="#ffffff" stroke="#000000" points="371.5,-28 371.5,-47 526.5,-47 526.5,-28 371.5,-28"/>
<text text-anchor="middle" x="449" y="-35" font-family="Helvetica,sans-Serif" font-size="10.00" fill="#000000">precice::mesh::sharedVertex</text>
</a>
</g>
</g>
<!-- Node138&#45;&gt;Node140 -->
<g id="edge12" class="edge">
<title>Node138&#45;&gt;Node140</title>
<path fill="none" stroke="#191970" d="M321.6717,-52.0518C334.3618,-50.6015 347.8592,-49.0589 361.1419,-47.5409"/>
<polygon fill="#191970" stroke="#191970" points="361.7025,-50.9997 371.2404,-46.3868 360.9077,-44.045 361.7025,-50.9997"/>
</g>
<!-- Node141 -->
<g id="node14" class="node">
<title>Node141</title>
<g id="a_node14"><a xlink:href="classprecice_1_1mesh_1_1Edge.html#a7fc88e0289fecf4c41c230d20311dcdb" target="_top" xlink:title="Returns the edge&#39;s vertex with index 0 or 1. ">
<polygon fill="#ffffff" stroke="#000000" points="564,-22.5 564,-52.5 679,-52.5 679,-22.5 564,-22.5"/>
<text text-anchor="start" x="572" y="-40.5" font-family="Helvetica,sans-Serif" font-size="10.00" fill="#000000">precice::mesh::Edge</text>
<text text-anchor="middle" x="621.5" y="-29.5" font-family="Helvetica,sans-Serif" font-size="10.00" fill="#000000">::vertex</text>
</a>
</g>
</g>
<!-- Node140&#45;&gt;Node141 -->
<g id="edge13" class="edge">
<title>Node140&#45;&gt;Node141</title>
<path fill="none" stroke="#191970" d="M526.6713,-37.5C535.6698,-37.5 544.794,-37.5 553.6471,-37.5"/>
<polygon fill="#191970" stroke="#191970" points="553.8914,-41.0001 563.8914,-37.5 553.8914,-34.0001 553.8914,-41.0001"/>
</g>
</g>
</svg>
