<?xml version="1.0" encoding="UTF-8" standalone="no"?>
<!DOCTYPE svg PUBLIC "-//W3C//DTD SVG 1.1//EN"
 "http://www.w3.org/Graphics/SVG/1.1/DTD/svg11.dtd">
<!-- Generated by graphviz version 2.40.1 (20161225.0304)
 -->
<!-- Title: BOOST_AUTO_TEST_CASE Pages: 1 -->
<svg width="874pt" height="1215pt"
 viewBox="0.00 0.00 874.00 1214.90" xmlns="http://www.w3.org/2000/svg" xmlns:xlink="http://www.w3.org/1999/xlink">
<g id="graph0" class="graph" transform="scale(1 1) rotate(0) translate(4 1210.8959)">
<title>BOOST_AUTO_TEST_CASE</title>
<polygon fill="#ffffff" stroke="transparent" points="-4,4 -4,-1210.8959 870,-1210.8959 870,4 -4,4"/>
<!-- Node293 -->
<g id="node1" class="node">
<title>Node293</title>
<polygon fill="#bfbfbf" stroke="#000000" points="0,-346.5 0,-365.5 148,-365.5 148,-346.5 0,-346.5"/>
<text text-anchor="middle" x="74" y="-353.5" font-family="Helvetica,sans-Serif" font-size="10.00" fill="#000000">BOOST_AUTO_TEST_CASE</text>
</g>
<!-- Node294 -->
<g id="node2" class="node">
<title>Node294</title>
<g id="a_node2"><a xlink:href="namespaceprecice_1_1testing.html#a08533fd83bad3d7f27ea7f4a35a14aa4" target="_top" xlink:title="precice::testing::nextMeshID">
<polygon fill="#ffffff" stroke="#000000" points="184,-1063.5 184,-1082.5 327,-1082.5 327,-1063.5 184,-1063.5"/>
<text text-anchor="middle" x="255.5" y="-1070.5" font-family="Helvetica,sans-Serif" font-size="10.00" fill="#000000">precice::testing::nextMeshID</text>
</a>
</g>
</g>
<!-- Node293&#45;&gt;Node294 -->
<g id="edge1" class="edge">
<title>Node293&#45;&gt;Node294</title>
<path fill="none" stroke="#191970" d="M75.0686,-365.7796C81.275,-420.9796 114.8329,-698.7965 184,-915 200.7414,-967.3306 229.9463,-1025.3395 245.3392,-1054.3409"/>
<polygon fill="#191970" stroke="#191970" points="242.352,-1056.1762 250.1648,-1063.3324 248.5199,-1052.866 242.352,-1056.1762"/>
</g>
<!-- Node296 -->
<g id="node4" class="node">
<title>Node296</title>
<g id="a_node4"><a xlink:href="classprecice_1_1mesh_1_1Mesh.html#a6e387c9e2c5ccd43dcf81d57795ba935" target="_top" xlink:title="precice::mesh::Mesh\l::createData">
<polygon fill="#ffffff" stroke="#000000" points="381.5,-1124 381.5,-1154 489.5,-1154 489.5,-1124 381.5,-1124"/>
<text text-anchor="start" x="389.5" y="-1142" font-family="Helvetica,sans-Serif" font-size="10.00" fill="#000000">precice::mesh::Mesh</text>
<text text-anchor="middle" x="435.5" y="-1131" font-family="Helvetica,sans-Serif" font-size="10.00" fill="#000000">::createData</text>
</a>
</g>
</g>
<!-- Node293&#45;&gt;Node296 -->
<g id="edge3" class="edge">
<title>Node293&#45;&gt;Node296</title>
<path fill="none" stroke="#191970" d="M77.4411,-365.7481C108.0088,-452.2496 332.6277,-1085.9395 363,-1115 365.8814,-1117.757 369.0866,-1120.1974 372.4996,-1122.3576"/>
<polygon fill="#191970" stroke="#191970" points="370.889,-1125.4658 381.3457,-1127.1708 374.2346,-1119.317 370.889,-1125.4658"/>
</g>
<!-- Node299 -->
<g id="node7" class="node">
<title>Node299</title>
<g id="a_node7"><a xlink:href="classprecice_1_1mesh_1_1Mesh.html#ae99d0d5d776e7c676acb72830df4aa45" target="_top" xlink:title="precice::mesh::Mesh\l::createVertex">
<polygon fill="#ffffff" stroke="#000000" points="201.5,-581 201.5,-611 309.5,-611 309.5,-581 201.5,-581"/>
<text text-anchor="start" x="209.5" y="-599" font-family="Helvetica,sans-Serif" font-size="10.00" fill="#000000">precice::mesh::Mesh</text>
<text text-anchor="middle" x="255.5" y="-588" font-family="Helvetica,sans-Serif" font-size="10.00" fill="#000000">::createVertex</text>
</a>
</g>
</g>
<!-- Node293&#45;&gt;Node299 -->
<g id="edge6" class="edge">
<title>Node293&#45;&gt;Node299</title>
<path fill="none" stroke="#191970" d="M81.3398,-365.7055C107.8589,-400.7722 199.1841,-521.5326 237.9142,-572.746"/>
<polygon fill="#191970" stroke="#191970" points="235.2616,-575.0411 244.0851,-580.906 240.8448,-570.8188 235.2616,-575.0411"/>
</g>
<!-- Node312 -->
<g id="node20" class="node">
<title>Node312</title>
<g id="a_node20"><a xlink:href="classprecice_1_1mesh_1_1Mesh.html#a13faa9b03e5d20918ed6528db1415fa3" target="_top" xlink:title="Returns modifieable container holding all vertices. ">
<polygon fill="#ffffff" stroke="#000000" points="561.5,-126 561.5,-156 669.5,-156 669.5,-126 561.5,-126"/>
<text text-anchor="start" x="569.5" y="-144" font-family="Helvetica,sans-Serif" font-size="10.00" fill="#000000">precice::mesh::Mesh</text>
<text text-anchor="middle" x="615.5" y="-133" font-family="Helvetica,sans-Serif" font-size="10.00" fill="#000000">::vertices</text>
</a>
</g>
</g>
<!-- Node293&#45;&gt;Node312 -->
<g id="edge47" class="edge">
<title>Node293&#45;&gt;Node312</title>
<path fill="none" stroke="#191970" d="M76.2921,-346.2777C84.6746,-312.7523 116.7525,-200.6541 184,-139 292.7311,-39.3127 374.6972,-3.8306 508,-67 530.833,-77.8201 523.7511,-95.887 544,-111 549.1682,-114.8573 554.9059,-118.3215 560.8191,-121.4047"/>
<polygon fill="#191970" stroke="#191970" points="559.6723,-124.7378 570.199,-125.9378 562.7182,-118.4352 559.6723,-124.7378"/>
</g>
<!-- Node314 -->
<g id="node22" class="node">
<title>Node314</title>
<g id="a_node22"><a xlink:href="classprecice_1_1mesh_1_1Mesh.html#afa920f8d8d32076837ae5e3dc28b0eea" target="_top" xlink:title="Allocates memory for the vertex data values. ">
<polygon fill="#ffffff" stroke="#000000" points="381.5,-77 381.5,-107 489.5,-107 489.5,-77 381.5,-77"/>
<text text-anchor="start" x="389.5" y="-95" font-family="Helvetica,sans-Serif" font-size="10.00" fill="#000000">precice::mesh::Mesh</text>
<text text-anchor="middle" x="435.5" y="-84" font-family="Helvetica,sans-Serif" font-size="10.00" fill="#000000">::allocateDataValues</text>
</a>
</g>
</g>
<!-- Node293&#45;&gt;Node314 -->
<g id="edge48" class="edge">
<title>Node293&#45;&gt;Node314</title>
<path fill="none" stroke="#191970" d="M82.994,-346.2637C116.5168,-310.5092 238.6636,-184.9552 363,-116 366.2031,-114.2236 369.5591,-112.5512 372.9977,-110.9809"/>
<polygon fill="#191970" stroke="#191970" points="374.4035,-114.1865 382.2448,-107.0616 371.6718,-107.7415 374.4035,-114.1865"/>
</g>
<!-- Node328 -->
<g id="node36" class="node">
<title>Node328</title>
<g id="a_node36"><a xlink:href="RTreeTests_8cpp.html#a9849f5c774ff22e557184d988b1cf9ea" target="_top" xlink:title="BOOST_TEST">
<polygon fill="#ffffff" stroke="#000000" points="214.5,-.5 214.5,-19.5 296.5,-19.5 296.5,-.5 214.5,-.5"/>
<text text-anchor="middle" x="255.5" y="-7.5" font-family="Helvetica,sans-Serif" font-size="10.00" fill="#000000">BOOST_TEST</text>
</a>
</g>
</g>
<!-- Node293&#45;&gt;Node328 -->
<g id="edge46" class="edge">
<title>Node293&#45;&gt;Node328</title>
<path fill="none" stroke="#191970" d="M74.3424,-346.2506C76.3887,-303.0734 90.3904,-127.1112 184,-34 189.8739,-28.1573 197.2121,-23.7367 204.9319,-20.3921"/>
<polygon fill="#191970" stroke="#191970" points="206.327,-23.6071 214.4648,-16.8228 203.8724,-17.0515 206.327,-23.6071"/>
</g>
<!-- Node295 -->
<g id="node3" class="node">
<title>Node295</title>
<g id="a_node3"><a xlink:href="classprecice_1_1utils_1_1ManageUniqueIDs.html#a02be264c279698ae293587b6576088b5" target="_top" xlink:title="precice::utils::ManageUnique\lIDs::getFreeID">
<polygon fill="#ffffff" stroke="#000000" points="723,-1009 723,-1039 866,-1039 866,-1009 723,-1009"/>
<text text-anchor="start" x="731" y="-1027" font-family="Helvetica,sans-Serif" font-size="10.00" fill="#000000">precice::utils::ManageUnique</text>
<text text-anchor="middle" x="794.5" y="-1016" font-family="Helvetica,sans-Serif" font-size="10.00" fill="#000000">IDs::getFreeID</text>
</a>
</g>
</g>
<!-- Node294&#45;&gt;Node295 -->
<g id="edge2" class="edge">
<title>Node294&#45;&gt;Node295</title>
<path fill="none" stroke="#191970" d="M262.7906,-1082.6317C278.4926,-1102.4724 317.77,-1147.4265 363,-1164 498.2087,-1213.544 557.8397,-1227.668 687,-1164 735.8226,-1139.9335 768.6474,-1081.8645 784.1701,-1048.5644"/>
<polygon fill="#191970" stroke="#191970" points="787.5214,-1049.6458 788.4306,-1039.0901 781.1372,-1046.7749 787.5214,-1049.6458"/>
</g>
<!-- Node297 -->
<g id="node5" class="node">
<title>Node297</title>
<g id="a_node5"><a xlink:href="classprecice_1_1mesh_1_1Mesh.html#aceb3eabb4f8e40a44d5d1c2822ba7b56" target="_top" xlink:title="precice::mesh::Mesh\l::data">
<polygon fill="#ffffff" stroke="#000000" points="561.5,-248 561.5,-278 669.5,-278 669.5,-248 561.5,-248"/>
<text text-anchor="start" x="569.5" y="-266" font-family="Helvetica,sans-Serif" font-size="10.00" fill="#000000">precice::mesh::Mesh</text>
<text text-anchor="middle" x="615.5" y="-255" font-family="Helvetica,sans-Serif" font-size="10.00" fill="#000000">::data</text>
</a>
</g>
</g>
<!-- Node296&#45;&gt;Node297 -->
<g id="edge4" class="edge">
<title>Node296&#45;&gt;Node297</title>
<path fill="none" stroke="#191970" d="M489.8421,-1129.3227C496.8891,-1125.8789 503.2828,-1121.2402 508,-1115 563.5304,-1041.54 488.6228,-360.5756 544,-287 546.4545,-283.7389 549.3714,-280.9161 552.6016,-278.4733"/>
<polygon fill="#191970" stroke="#191970" points="554.5349,-281.3928 561.1917,-273.1504 550.8478,-275.4426 554.5349,-281.3928"/>
</g>
<!-- Node298 -->
<g id="node6" class="node">
<title>Node298</title>
<g id="a_node6"><a xlink:href="classprecice_1_1mesh_1_1Data.html#a571e94df898349b76b6c4ce8db34ccd1" target="_top" xlink:title="Returns the number of created (and still existing) Data objects. ">
<polygon fill="#ffffff" stroke="#000000" points="563,-1124 563,-1154 668,-1154 668,-1124 563,-1124"/>
<text text-anchor="start" x="571" y="-1142" font-family="Helvetica,sans-Serif" font-size="10.00" fill="#000000">precice::mesh::Data</text>
<text text-anchor="middle" x="615.5" y="-1131" font-family="Helvetica,sans-Serif" font-size="10.00" fill="#000000">::getDataCount</text>
</a>
</g>
</g>
<!-- Node296&#45;&gt;Node298 -->
<g id="edge5" class="edge">
<title>Node296&#45;&gt;Node298</title>
<path fill="none" stroke="#191970" d="M489.5059,-1139C509.3496,-1139 531.9884,-1139 552.5504,-1139"/>
<polygon fill="#191970" stroke="#191970" points="552.7709,-1142.5001 562.7709,-1139 552.7709,-1135.5001 552.7709,-1142.5001"/>
</g>
<!-- Node299&#45;&gt;Node295 -->
<g id="edge7" class="edge">
<title>Node299&#45;&gt;Node295</title>
<path fill="none" stroke="#191970" d="M274.6479,-611.2032C291.5652,-625.8407 315.3109,-649.5991 327,-676 358.1173,-746.2813 306.8969,-967.4625 363,-1020 411.7191,-1065.6228 601.6689,-1049.6726 712.6405,-1035.7612"/>
<polygon fill="#191970" stroke="#191970" points="713.319,-1039.2031 722.796,-1034.4662 712.4335,-1032.2593 713.319,-1039.2031"/>
</g>
<!-- Node299&#45;&gt;Node296 -->
<g id="edge18" class="edge">
<title>Node299&#45;&gt;Node296</title>
<path fill="none" stroke="#191970" d="M259.6741,-611.0461C271.4605,-653.905 305.5303,-780.4117 327,-887 347.2572,-987.5688 296.6082,-1036.7914 363,-1115 365.7994,-1118.2976 369.0627,-1121.1445 372.6263,-1123.602"/>
<polygon fill="#191970" stroke="#191970" points="370.9966,-1126.7023 381.4093,-1128.6584 374.4891,-1120.6358 370.9966,-1126.7023"/>
</g>
<!-- Node299&#45;&gt;Node297 -->
<g id="edge19" class="edge">
<title>Node299&#45;&gt;Node297</title>
<path fill="none" stroke="#191970" d="M285.0697,-580.9206C306.3622,-570.4606 335.9793,-556.717 363,-547 425.7977,-524.4172 463.2602,-557.5165 508,-508 574.7172,-434.1595 479.5693,-362.8439 544,-287 546.5962,-283.9439 549.5945,-281.2755 552.8615,-278.9459"/>
<polygon fill="#191970" stroke="#191970" points="554.6594,-281.9489 561.46,-273.8247 551.0774,-275.9348 554.6594,-281.9489"/>
</g>
<!-- Node300 -->
<g id="node8" class="node">
<title>Node300</title>
<g id="a_node8"><a xlink:href="classprecice_1_1mesh_1_1Mesh.html#ae05c5234aa9adc6f47a814622039c28e" target="_top" xlink:title="Creates and initializes an Edge object. ">
<polygon fill="#ffffff" stroke="#000000" points="561.5,-987 561.5,-1017 669.5,-1017 669.5,-987 561.5,-987"/>
<text text-anchor="start" x="569.5" y="-1005" font-family="Helvetica,sans-Serif" font-size="10.00" fill="#000000">precice::mesh::Mesh</text>
<text text-anchor="middle" x="615.5" y="-994" font-family="Helvetica,sans-Serif" font-size="10.00" fill="#000000">::createEdge</text>
</a>
</g>
</g>
<!-- Node299&#45;&gt;Node300 -->
<g id="edge8" class="edge">
<title>Node299&#45;&gt;Node300</title>
<path fill="none" stroke="#191970" d="M259.1654,-611.3441C276.2051,-682.3962 347.5009,-976.5275 363,-989 415.3143,-1031.0986 495.2714,-1027.5255 551.153,-1017.8319"/>
<polygon fill="#191970" stroke="#191970" points="552.0963,-1021.217 561.2951,-1015.9603 550.8259,-1014.3332 552.0963,-1021.217"/>
</g>
<!-- Node301 -->
<g id="node9" class="node">
<title>Node301</title>
<g id="a_node9"><a xlink:href="classprecice_1_1mesh_1_1Mesh.html#aaeeb91bf6152969a12f3901841e1db0c" target="_top" xlink:title="Creates and initializes an Edge object or returns an already existing one. ">
<polygon fill="#ffffff" stroke="#000000" points="381.5,-655 381.5,-685 489.5,-685 489.5,-655 381.5,-655"/>
<text text-anchor="start" x="389.5" y="-673" font-family="Helvetica,sans-Serif" font-size="10.00" fill="#000000">precice::mesh::Mesh</text>
<text text-anchor="middle" x="435.5" y="-662" font-family="Helvetica,sans-Serif" font-size="10.00" fill="#000000">::createUniqueEdge</text>
</a>
</g>
</g>
<!-- Node299&#45;&gt;Node301 -->
<g id="edge10" class="edge">
<title>Node299&#45;&gt;Node301</title>
<path fill="none" stroke="#191970" d="M286.6737,-611.1661C307.9514,-621.2801 336.9037,-634.5808 363,-645 368.4657,-647.1822 374.2055,-649.3562 379.9616,-651.4598"/>
<polygon fill="#191970" stroke="#191970" points="379.0244,-654.8418 389.6189,-654.9224 381.387,-648.2526 379.0244,-654.8418"/>
</g>
<!-- Node305 -->
<g id="node13" class="node">
<title>Node305</title>
<g id="a_node13"><a xlink:href="classprecice_1_1mesh_1_1Mesh.html#a00c3db2576c63d8c6f351175ddc0a4d0" target="_top" xlink:title="Creates and initializes a Triangle object. ">
<polygon fill="#ffffff" stroke="#000000" points="381.5,-557 381.5,-587 489.5,-587 489.5,-557 381.5,-557"/>
<text text-anchor="start" x="389.5" y="-575" font-family="Helvetica,sans-Serif" font-size="10.00" fill="#000000">precice::mesh::Mesh</text>
<text text-anchor="middle" x="435.5" y="-564" font-family="Helvetica,sans-Serif" font-size="10.00" fill="#000000">::createTriangle</text>
</a>
</g>
</g>
<!-- Node299&#45;&gt;Node305 -->
<g id="edge15" class="edge">
<title>Node299&#45;&gt;Node305</title>
<path fill="none" stroke="#191970" d="M309.5059,-588.7992C328.9067,-586.2124 350.9792,-583.2694 371.1704,-580.5773"/>
<polygon fill="#191970" stroke="#191970" points="371.7717,-584.0282 381.2213,-579.2372 370.8465,-577.0896 371.7717,-584.0282"/>
</g>
<!-- Node307 -->
<g id="node15" class="node">
<title>Node307</title>
<g id="a_node15"><a xlink:href="classprecice_1_1mesh_1_1Mesh.html#a3185fe962ba3e8fe0b3cf451681e6a48" target="_top" xlink:title="Returns the name of the mesh, as set in the config file. ">
<polygon fill="#ffffff" stroke="#000000" points="381.5,-469 381.5,-499 489.5,-499 489.5,-469 381.5,-469"/>
<text text-anchor="start" x="389.5" y="-487" font-family="Helvetica,sans-Serif" font-size="10.00" fill="#000000">precice::mesh::Mesh</text>
<text text-anchor="middle" x="435.5" y="-476" font-family="Helvetica,sans-Serif" font-size="10.00" fill="#000000">::getName</text>
</a>
</g>
</g>
<!-- Node299&#45;&gt;Node307 -->
<g id="edge20" class="edge">
<title>Node299&#45;&gt;Node307</title>
<path fill="none" stroke="#191970" d="M272.3937,-580.8787C292.7787,-563.1799 328.6134,-533.7793 363,-514 369.8079,-510.084 377.2268,-506.4103 384.6361,-503.0682"/>
<polygon fill="#191970" stroke="#191970" points="386.1884,-506.21 393.9693,-499.0191 383.4024,-499.7883 386.1884,-506.21"/>
</g>
<!-- Node308 -->
<g id="node16" class="node">
<title>Node308</title>
<g id="a_node16"><a xlink:href="classprecice_1_1mesh_1_1Mesh.html#a18fcc2df2cfeba56e8f0af79c63a75e8" target="_top" xlink:title="precice::mesh::Mesh\l::isFlipNormals">
<polygon fill="#ffffff" stroke="#000000" points="381.5,-420 381.5,-450 489.5,-450 489.5,-420 381.5,-420"/>
<text text-anchor="start" x="389.5" y="-438" font-family="Helvetica,sans-Serif" font-size="10.00" fill="#000000">precice::mesh::Mesh</text>
<text text-anchor="middle" x="435.5" y="-427" font-family="Helvetica,sans-Serif" font-size="10.00" fill="#000000">::isFlipNormals</text>
</a>
</g>
</g>
<!-- Node299&#45;&gt;Node308 -->
<g id="edge21" class="edge">
<title>Node299&#45;&gt;Node308</title>
<path fill="none" stroke="#191970" d="M263.392,-580.8517C278.785,-552.7504 315.5076,-492.3758 363,-459 365.8526,-456.9953 368.8842,-455.1492 372.0278,-453.4503"/>
<polygon fill="#191970" stroke="#191970" points="373.6542,-456.5516 381.1286,-449.0426 370.6029,-450.2516 373.6542,-456.5516"/>
</g>
<!-- Node309 -->
<g id="node17" class="node">
<title>Node309</title>
<g id="a_node17"><a xlink:href="classprecice_1_1mesh_1_1Mesh.html#a65ef730ba5ebf191074453fb1b4ebce3" target="_top" xlink:title="precice::mesh::Mesh\l::setFlipNormals">
<polygon fill="#ffffff" stroke="#000000" points="381.5,-371 381.5,-401 489.5,-401 489.5,-371 381.5,-371"/>
<text text-anchor="start" x="389.5" y="-389" font-family="Helvetica,sans-Serif" font-size="10.00" fill="#000000">precice::mesh::Mesh</text>
<text text-anchor="middle" x="435.5" y="-378" font-family="Helvetica,sans-Serif" font-size="10.00" fill="#000000">::setFlipNormals</text>
</a>
</g>
</g>
<!-- Node299&#45;&gt;Node309 -->
<g id="edge22" class="edge">
<title>Node299&#45;&gt;Node309</title>
<path fill="none" stroke="#191970" d="M260.1171,-580.7502C271.5826,-545.4352 304.7148,-457.4434 363,-410 365.8952,-407.6433 369.0306,-405.5148 372.3182,-403.5926"/>
<polygon fill="#191970" stroke="#191970" points="374.0196,-406.6535 381.3163,-398.9717 370.8218,-400.4266 374.0196,-406.6535"/>
</g>
<!-- Node310 -->
<g id="node18" class="node">
<title>Node310</title>
<g id="a_node18"><a xlink:href="classprecice_1_1mesh_1_1Mesh.html#a5e5005a7a807ec5947892eeb6279d12d" target="_top" xlink:title="Returns the base ID of the mesh. ">
<polygon fill="#ffffff" stroke="#000000" points="381.5,-322 381.5,-352 489.5,-352 489.5,-322 381.5,-322"/>
<text text-anchor="start" x="389.5" y="-340" font-family="Helvetica,sans-Serif" font-size="10.00" fill="#000000">precice::mesh::Mesh</text>
<text text-anchor="middle" x="435.5" y="-329" font-family="Helvetica,sans-Serif" font-size="10.00" fill="#000000">::getID</text>
</a>
</g>
</g>
<!-- Node299&#45;&gt;Node310 -->
<g id="edge23" class="edge">
<title>Node299&#45;&gt;Node310</title>
<path fill="none" stroke="#191970" d="M258.0913,-580.8818C265.9731,-539.4923 293.5064,-423.2816 363,-361 365.8325,-358.4615 368.9405,-356.1905 372.2269,-354.159"/>
<polygon fill="#191970" stroke="#191970" points="374.1068,-357.1228 381.2755,-349.3215 370.8065,-350.9496 374.1068,-357.1228"/>
</g>
<!-- Node311 -->
<g id="node19" class="node">
<title>Node311</title>
<g id="a_node19"><a xlink:href="classprecice_1_1mesh_1_1Mesh.html#af5ee0ce0045f0f62382eadc5f4f5b105" target="_top" xlink:title="Returns true if the given vertexID is valid. ">
<polygon fill="#ffffff" stroke="#000000" points="381.5,-126 381.5,-156 489.5,-156 489.5,-126 381.5,-126"/>
<text text-anchor="start" x="389.5" y="-144" font-family="Helvetica,sans-Serif" font-size="10.00" fill="#000000">precice::mesh::Mesh</text>
<text text-anchor="middle" x="435.5" y="-133" font-family="Helvetica,sans-Serif" font-size="10.00" fill="#000000">::isValidVertexID</text>
</a>
</g>
</g>
<!-- Node299&#45;&gt;Node311 -->
<g id="edge24" class="edge">
<title>Node299&#45;&gt;Node311</title>
<path fill="none" stroke="#191970" d="M260.3994,-580.7416C272.7009,-542.0894 305.4436,-437.0633 327,-348 346.4997,-267.4341 308.1754,-227.1722 363,-165 365.7335,-161.9001 368.8763,-159.1994 372.2881,-156.8464"/>
<polygon fill="#191970" stroke="#191970" points="374.3271,-159.711 381.2432,-151.6849 370.8315,-153.6462 374.3271,-159.711"/>
</g>
<!-- Node313 -->
<g id="node21" class="node">
<title>Node313</title>
<g id="a_node21"><a xlink:href="classprecice_1_1mesh_1_1Mesh.html#ad9bd3b09bef6dd82132602821a2df178" target="_top" xlink:title="Returns true if the given edgeID is valid. ">
<polygon fill="#ffffff" stroke="#000000" points="381.5,-606 381.5,-636 489.5,-636 489.5,-606 381.5,-606"/>
<text text-anchor="start" x="389.5" y="-624" font-family="Helvetica,sans-Serif" font-size="10.00" fill="#000000">precice::mesh::Mesh</text>
<text text-anchor="middle" x="435.5" y="-613" font-family="Helvetica,sans-Serif" font-size="10.00" fill="#000000">::isValidEdgeID</text>
</a>
</g>
</g>
<!-- Node299&#45;&gt;Node313 -->
<g id="edge26" class="edge">
<title>Node299&#45;&gt;Node313</title>
<path fill="none" stroke="#191970" d="M309.5059,-603.5008C328.9067,-606.1954 350.9792,-609.261 371.1704,-612.0653"/>
<polygon fill="#191970" stroke="#191970" points="370.8349,-615.5523 381.2213,-613.4613 371.7979,-608.6188 370.8349,-615.5523"/>
</g>
<!-- Node299&#45;&gt;Node314 -->
<g id="edge28" class="edge">
<title>Node299&#45;&gt;Node314</title>
<path fill="none" stroke="#191970" d="M260.6178,-580.7921C273.4246,-542.2569 307.2423,-437.4795 327,-348 349.4982,-246.1092 295.5773,-195.6372 363,-116 365.795,-112.6987 369.0551,-109.849 372.6163,-107.3895"/>
<polygon fill="#191970" stroke="#191970" points="374.479,-110.3557 381.3953,-102.3297 370.9836,-104.2908 374.479,-110.3557"/>
</g>
<!-- Node316 -->
<g id="node24" class="node">
<title>Node316</title>
<g id="a_node24"><a xlink:href="classprecice_1_1mesh_1_1Mesh.html#a02278d8459bfbf8c9dd137070e670e9a" target="_top" xlink:title="Necessary before any geom. operations can be performed on the mesh. ">
<polygon fill="#ffffff" stroke="#000000" points="381.5,-224 381.5,-254 489.5,-254 489.5,-224 381.5,-224"/>
<text text-anchor="start" x="389.5" y="-242" font-family="Helvetica,sans-Serif" font-size="10.00" fill="#000000">precice::mesh::Mesh</text>
<text text-anchor="middle" x="435.5" y="-231" font-family="Helvetica,sans-Serif" font-size="10.00" fill="#000000">::computeState</text>
</a>
</g>
</g>
<!-- Node299&#45;&gt;Node316 -->
<g id="edge31" class="edge">
<title>Node299&#45;&gt;Node316</title>
<path fill="none" stroke="#191970" d="M259.5397,-580.7873C276.1346,-518.7292 339.301,-286.8755 363,-263 365.8605,-260.1182 369.0741,-257.5825 372.5155,-255.3512"/>
<polygon fill="#191970" stroke="#191970" points="374.4051,-258.306 381.4674,-250.4083 371.0215,-252.1781 374.4051,-258.306"/>
</g>
<!-- Node317 -->
<g id="node25" class="node">
<title>Node317</title>
<g id="a_node25"><a xlink:href="classprecice_1_1mesh_1_1Mesh.html#a988baa22e8e6fcaa9efc64e7943cb2fc" target="_top" xlink:title="Computes the boundingBox for the vertices. ">
<polygon fill="#ffffff" stroke="#000000" points="376.5,-1075 376.5,-1105 494.5,-1105 494.5,-1075 376.5,-1075"/>
<text text-anchor="start" x="384.5" y="-1093" font-family="Helvetica,sans-Serif" font-size="10.00" fill="#000000">precice::mesh::Mesh</text>
<text text-anchor="middle" x="435.5" y="-1082" font-family="Helvetica,sans-Serif" font-size="10.00" fill="#000000">::computeBoundingBox</text>
</a>
</g>
</g>
<!-- Node299&#45;&gt;Node317 -->
<g id="edge32" class="edge">
<title>Node299&#45;&gt;Node317</title>
<path fill="none" stroke="#191970" d="M259.4131,-611.102C270.5126,-654.108 302.9488,-780.9644 327,-887 344.3724,-963.5905 312.8994,-999.52 363,-1060 365.9138,-1063.5175 369.3081,-1066.6281 373.0071,-1069.3783"/>
<polygon fill="#191970" stroke="#191970" points="371.2162,-1072.3877 381.5231,-1074.8409 374.9956,-1066.4956 371.2162,-1072.3877"/>
</g>
<!-- Node319 -->
<g id="node27" class="node">
<title>Node319</title>
<g id="a_node27"><a xlink:href="classprecice_1_1mesh_1_1Mesh.html#a20584f10c9c7568d038b8a4bb9d7a7c8" target="_top" xlink:title="Removes all mesh elements and data values (does not remove data). ">
<polygon fill="#ffffff" stroke="#000000" points="381.5,-273 381.5,-303 489.5,-303 489.5,-273 381.5,-273"/>
<text text-anchor="start" x="389.5" y="-291" font-family="Helvetica,sans-Serif" font-size="10.00" fill="#000000">precice::mesh::Mesh</text>
<text text-anchor="middle" x="435.5" y="-280" font-family="Helvetica,sans-Serif" font-size="10.00" fill="#000000">::clear</text>
</a>
</g>
</g>
<!-- Node299&#45;&gt;Node319 -->
<g id="edge34" class="edge">
<title>Node299&#45;&gt;Node319</title>
<path fill="none" stroke="#191970" d="M256.7519,-580.9021C261.4464,-534.032 282.1308,-389.5286 363,-312 365.8787,-309.2402 369.0818,-306.7976 372.4933,-304.6358"/>
<polygon fill="#191970" stroke="#191970" points="374.2285,-307.6762 381.3366,-299.8196 370.8805,-301.5288 374.2285,-307.6762"/>
</g>
<!-- Node321 -->
<g id="node29" class="node">
<title>Node321</title>
<g id="a_node29"><a xlink:href="classprecice_1_1mesh_1_1Mesh.html#a7dedd0a7f11c247b1739858d910f9cb9" target="_top" xlink:title="Returns a mapping from rank to used (not necessarily owned) vertex IDs. ">
<polygon fill="#ffffff" stroke="#000000" points="378.5,-949 378.5,-979 492.5,-979 492.5,-949 378.5,-949"/>
<text text-anchor="start" x="386.5" y="-967" font-family="Helvetica,sans-Serif" font-size="10.00" fill="#000000">precice::mesh::Mesh</text>
<text text-anchor="middle" x="435.5" y="-956" font-family="Helvetica,sans-Serif" font-size="10.00" fill="#000000">::getVertexDistribution</text>
</a>
</g>
</g>
<!-- Node299&#45;&gt;Node321 -->
<g id="edge37" class="edge">
<title>Node299&#45;&gt;Node321</title>
<path fill="none" stroke="#191970" d="M258.338,-611.173C269.8328,-671.1495 314.6324,-890.8131 363,-940 365.0481,-942.0827 367.2806,-943.9848 369.6506,-945.7217"/>
<polygon fill="#191970" stroke="#191970" points="367.829,-948.7105 378.1703,-951.0143 371.5228,-942.7644 367.829,-948.7105"/>
</g>
<!-- Node322 -->
<g id="node30" class="node">
<title>Node322</title>
<g id="a_node30"><a xlink:href="classprecice_1_1mesh_1_1Mesh.html#a590d8e05844921733090cd5906657a93" target="_top" xlink:title="precice::mesh::Mesh\l::getVertexOffsets">
<polygon fill="#ffffff" stroke="#000000" points="381.5,-900 381.5,-930 489.5,-930 489.5,-900 381.5,-900"/>
<text text-anchor="start" x="389.5" y="-918" font-family="Helvetica,sans-Serif" font-size="10.00" fill="#000000">precice::mesh::Mesh</text>
<text text-anchor="middle" x="435.5" y="-907" font-family="Helvetica,sans-Serif" font-size="10.00" fill="#000000">::getVertexOffsets</text>
</a>
</g>
</g>
<!-- Node299&#45;&gt;Node322 -->
<g id="edge38" class="edge">
<title>Node299&#45;&gt;Node322</title>
<path fill="none" stroke="#191970" d="M256.5284,-611.3282C260.5926,-659.6119 279.6878,-810.1319 363,-891 365.8615,-893.7776 369.0515,-896.2338 372.4532,-898.4058"/>
<polygon fill="#191970" stroke="#191970" points="370.8267,-901.5055 381.2785,-903.2406 374.1899,-895.3664 370.8267,-901.5055"/>
</g>
<!-- Node323 -->
<g id="node31" class="node">
<title>Node323</title>
<g id="a_node31"><a xlink:href="classprecice_1_1mesh_1_1Mesh.html#a806bdb0fb238bd542e8108a041363da5" target="_top" xlink:title="Only used for tests. ">
<polygon fill="#ffffff" stroke="#000000" points="381.5,-851 381.5,-881 489.5,-881 489.5,-851 381.5,-851"/>
<text text-anchor="start" x="389.5" y="-869" font-family="Helvetica,sans-Serif" font-size="10.00" fill="#000000">precice::mesh::Mesh</text>
<text text-anchor="middle" x="435.5" y="-858" font-family="Helvetica,sans-Serif" font-size="10.00" fill="#000000">::setVertexOffsets</text>
</a>
</g>
</g>
<!-- Node299&#45;&gt;Node323 -->
<g id="edge39" class="edge">
<title>Node299&#45;&gt;Node323</title>
<path fill="none" stroke="#191970" d="M257.7608,-611.1945C264.9174,-653.9382 291.0156,-776.3712 363,-842 365.8107,-844.5626 368.9019,-846.8522 372.1755,-848.8979"/>
<polygon fill="#191970" stroke="#191970" points="370.7359,-852.098 381.1991,-853.763 374.058,-845.9365 370.7359,-852.098"/>
</g>
<!-- Node324 -->
<g id="node32" class="node">
<title>Node324</title>
<g id="a_node32"><a xlink:href="classprecice_1_1mesh_1_1Mesh.html#a0fbbc8211e87e48c5d12789c41ad9af1" target="_top" xlink:title="precice::mesh::Mesh\l::getGlobalNumberOfVertices">
<polygon fill="#ffffff" stroke="#000000" points="363,-802 363,-832 508,-832 508,-802 363,-802"/>
<text text-anchor="start" x="371" y="-820" font-family="Helvetica,sans-Serif" font-size="10.00" fill="#000000">precice::mesh::Mesh</text>
<text text-anchor="middle" x="435.5" y="-809" font-family="Helvetica,sans-Serif" font-size="10.00" fill="#000000">::getGlobalNumberOfVertices</text>
</a>
</g>
</g>
<!-- Node299&#45;&gt;Node324 -->
<g id="edge40" class="edge">
<title>Node299&#45;&gt;Node324</title>
<path fill="none" stroke="#191970" d="M259.5286,-611.0475C270.1031,-647.678 302.1267,-742.1961 363,-793 364.5269,-794.2743 366.1237,-795.4817 367.7771,-796.6256"/>
<polygon fill="#191970" stroke="#191970" points="366.0775,-799.6875 376.453,-801.8323 369.6796,-793.6854 366.0775,-799.6875"/>
</g>
<!-- Node325 -->
<g id="node33" class="node">
<title>Node325</title>
<g id="a_node33"><a xlink:href="classprecice_1_1mesh_1_1Mesh.html#a02f0fe049261bbe1e82e0a00746b9313" target="_top" xlink:title="precice::mesh::Mesh\l::setGlobalNumberOfVertices">
<polygon fill="#ffffff" stroke="#000000" points="363,-753 363,-783 508,-783 508,-753 363,-753"/>
<text text-anchor="start" x="371" y="-771" font-family="Helvetica,sans-Serif" font-size="10.00" fill="#000000">precice::mesh::Mesh</text>
<text text-anchor="middle" x="435.5" y="-760" font-family="Helvetica,sans-Serif" font-size="10.00" fill="#000000">::setGlobalNumberOfVertices</text>
</a>
</g>
</g>
<!-- Node299&#45;&gt;Node325 -->
<g id="edge41" class="edge">
<title>Node299&#45;&gt;Node325</title>
<path fill="none" stroke="#191970" d="M262.6774,-611.2819C277.3589,-640.9404 313.6456,-706.581 363,-743 365.6247,-744.9368 368.4111,-746.7319 371.3041,-748.3946"/>
<polygon fill="#191970" stroke="#191970" points="369.7547,-751.5334 380.2482,-752.9951 372.9565,-745.3086 369.7547,-751.5334"/>
</g>
<!-- Node326 -->
<g id="node34" class="node">
<title>Node326</title>
<g id="a_node34"><a xlink:href="classprecice_1_1mesh_1_1Mesh.html#ab453e0fcd860442aa942ddced2cee24f" target="_top" xlink:title="precice::mesh::Mesh\l::getOwnedVertexData">
<polygon fill="#ffffff" stroke="#000000" points="377.5,-175 377.5,-205 493.5,-205 493.5,-175 377.5,-175"/>
<text text-anchor="start" x="385.5" y="-193" font-family="Helvetica,sans-Serif" font-size="10.00" fill="#000000">precice::mesh::Mesh</text>
<text text-anchor="middle" x="435.5" y="-182" font-family="Helvetica,sans-Serif" font-size="10.00" fill="#000000">::getOwnedVertexData</text>
</a>
</g>
</g>
<!-- Node299&#45;&gt;Node326 -->
<g id="edge42" class="edge">
<title>Node299&#45;&gt;Node326</title>
<path fill="none" stroke="#191970" d="M259.9486,-580.93C271.3326,-542.2888 302.3588,-436.4922 327,-348 343.5423,-288.5928 320.6598,-258.835 363,-214 364.7922,-212.1022 366.7375,-210.3544 368.8018,-208.7447"/>
<polygon fill="#191970" stroke="#191970" points="370.8305,-211.6 377.2815,-203.1955 366.9974,-205.7426 370.8305,-211.6"/>
</g>
<!-- Node327 -->
<g id="node35" class="node">
<title>Node327</title>
<g id="a_node35"><a xlink:href="classprecice_1_1mesh_1_1Mesh.html#a708f813fb1d2ea852818cdaf55d5b922" target="_top" xlink:title="precice::mesh::Mesh\l::tagAll">
<polygon fill="#ffffff" stroke="#000000" points="381.5,-704 381.5,-734 489.5,-734 489.5,-704 381.5,-704"/>
<text text-anchor="start" x="389.5" y="-722" font-family="Helvetica,sans-Serif" font-size="10.00" fill="#000000">precice::mesh::Mesh</text>
<text text-anchor="middle" x="435.5" y="-711" font-family="Helvetica,sans-Serif" font-size="10.00" fill="#000000">::tagAll</text>
</a>
</g>
</g>
<!-- Node299&#45;&gt;Node327 -->
<g id="edge45" class="edge">
<title>Node299&#45;&gt;Node327</title>
<path fill="none" stroke="#191970" d="M268.2751,-611.0026C287.0572,-632.2078 324.1257,-670.9279 363,-694 366.4438,-696.0439 370.0791,-697.9526 373.8135,-699.7297"/>
<polygon fill="#191970" stroke="#191970" points="372.6845,-703.0567 383.2475,-703.878 375.5022,-696.6488 372.6845,-703.0567"/>
</g>
<!-- Node300&#45;&gt;Node295 -->
<g id="edge9" class="edge">
<title>Node300&#45;&gt;Node295</title>
<path fill="none" stroke="#191970" d="M669.6917,-1008.6604C683.3194,-1010.3353 698.2477,-1012.1701 712.8921,-1013.97"/>
<polygon fill="#191970" stroke="#191970" points="712.6134,-1017.462 722.9657,-1015.2081 713.4673,-1010.5143 712.6134,-1017.462"/>
</g>
<!-- Node301&#45;&gt;Node300 -->
<g id="edge14" class="edge">
<title>Node301&#45;&gt;Node300</title>
<path fill="none" stroke="#191970" d="M489.7858,-681.6936C496.4914,-684.8607 502.8022,-688.8854 508,-694 549.7774,-735.1091 594.2711,-911.0783 609.7796,-976.965"/>
<polygon fill="#191970" stroke="#191970" points="606.4171,-977.9579 612.0947,-986.903 613.2346,-976.3696 606.4171,-977.9579"/>
</g>
<!-- Node302 -->
<g id="node10" class="node">
<title>Node302</title>
<g id="a_node10"><a xlink:href="classprecice_1_1mesh_1_1Vertex.html#aeccde29fd990bdba5a5792372c341ef4" target="_top" xlink:title="Returns the unique (among vertices of one mesh on one processor) ID of the vertex. ">
<polygon fill="#ffffff" stroke="#000000" points="559,-655 559,-685 672,-685 672,-655 559,-655"/>
<text text-anchor="start" x="567" y="-673" font-family="Helvetica,sans-Serif" font-size="10.00" fill="#000000">precice::mesh::Vertex</text>
<text text-anchor="middle" x="615.5" y="-662" font-family="Helvetica,sans-Serif" font-size="10.00" fill="#000000">::getID</text>
</a>
</g>
</g>
<!-- Node301&#45;&gt;Node302 -->
<g id="edge11" class="edge">
<title>Node301&#45;&gt;Node302</title>
<path fill="none" stroke="#191970" d="M489.5059,-670C508.1127,-670 529.1768,-670 548.6821,-670"/>
<polygon fill="#191970" stroke="#191970" points="548.7187,-673.5001 558.7187,-670 548.7187,-666.5001 548.7187,-673.5001"/>
</g>
<!-- Node303 -->
<g id="node11" class="node">
<title>Node303</title>
<g id="a_node11"><a xlink:href="classprecice_1_1mesh_1_1Mesh.html#aec6f303d7791f8a64e2b78180531c89e" target="_top" xlink:title="Returns modifiable container holding all edges. ">
<polygon fill="#ffffff" stroke="#000000" points="561.5,-606 561.5,-636 669.5,-636 669.5,-606 561.5,-606"/>
<text text-anchor="start" x="569.5" y="-624" font-family="Helvetica,sans-Serif" font-size="10.00" fill="#000000">precice::mesh::Mesh</text>
<text text-anchor="middle" x="615.5" y="-613" font-family="Helvetica,sans-Serif" font-size="10.00" fill="#000000">::edges</text>
</a>
</g>
</g>
<!-- Node301&#45;&gt;Node303 -->
<g id="edge12" class="edge">
<title>Node301&#45;&gt;Node303</title>
<path fill="none" stroke="#191970" d="M489.5059,-655.2984C508.9953,-649.9929 531.1808,-643.9536 551.4469,-638.4367"/>
<polygon fill="#191970" stroke="#191970" points="552.4918,-641.7797 561.2213,-635.7759 550.6531,-635.0255 552.4918,-641.7797"/>
</g>
<!-- Node304 -->
<g id="node12" class="node">
<title>Node304</title>
<g id="a_node12"><a xlink:href="classprecice_1_1mesh_1_1Edge.html#a7fc88e0289fecf4c41c230d20311dcdb" target="_top" xlink:title="Returns the edge&#39;s vertex with index 0 or 1. ">
<polygon fill="#ffffff" stroke="#000000" points="562,-704 562,-734 669,-734 669,-704 562,-704"/>
<text text-anchor="start" x="570" y="-722" font-family="Helvetica,sans-Serif" font-size="10.00" fill="#000000">precice::mesh::Edge</text>
<text text-anchor="middle" x="615.5" y="-711" font-family="Helvetica,sans-Serif" font-size="10.00" fill="#000000">::vertex</text>
</a>
</g>
</g>
<!-- Node301&#45;&gt;Node304 -->
<g id="edge13" class="edge">
<title>Node301&#45;&gt;Node304</title>
<path fill="none" stroke="#191970" d="M489.5059,-684.7016C509.1733,-690.0555 531.5862,-696.1568 552.0017,-701.7143"/>
<polygon fill="#191970" stroke="#191970" points="551.2743,-705.1436 561.8426,-704.3933 553.113,-698.3894 551.2743,-705.1436"/>
</g>
<!-- Node305&#45;&gt;Node295 -->
<g id="edge17" class="edge">
<title>Node305&#45;&gt;Node295</title>
<path fill="none" stroke="#191970" d="M489.7274,-558.0125C554.4293,-542.7626 657.5723,-523.4663 687,-547 759.075,-604.6393 786.2658,-908.4657 792.823,-998.7061"/>
<polygon fill="#191970" stroke="#191970" points="789.3434,-999.1203 793.5375,-1008.8496 796.3261,-998.6283 789.3434,-999.1203"/>
</g>
<!-- Node306 -->
<g id="node14" class="node">
<title>Node306</title>
<g id="a_node14"><a xlink:href="classprecice_1_1mesh_1_1Edge.html#af27f4bd02d0b67cc5c3d04e2cf1ddee7" target="_top" xlink:title="Checks whether both edges share a vertex. ">
<polygon fill="#ffffff" stroke="#000000" points="562,-557 562,-587 669,-587 669,-557 562,-557"/>
<text text-anchor="start" x="570" y="-575" font-family="Helvetica,sans-Serif" font-size="10.00" fill="#000000">precice::mesh::Edge</text>
<text text-anchor="middle" x="615.5" y="-564" font-family="Helvetica,sans-Serif" font-size="10.00" fill="#000000">::connectedTo</text>
</a>
</g>
</g>
<!-- Node305&#45;&gt;Node306 -->
<g id="edge16" class="edge">
<title>Node305&#45;&gt;Node306</title>
<path fill="none" stroke="#191970" d="M489.5059,-572C509.0839,-572 531.3825,-572 551.7232,-572"/>
<polygon fill="#191970" stroke="#191970" points="551.8426,-575.5001 561.8426,-572 551.8425,-568.5001 551.8426,-575.5001"/>
</g>
<!-- Node311&#45;&gt;Node312 -->
<g id="edge25" class="edge">
<title>Node311&#45;&gt;Node312</title>
<path fill="none" stroke="#191970" d="M489.5059,-141C508.9067,-141 530.9792,-141 551.1704,-141"/>
<polygon fill="#191970" stroke="#191970" points="551.2214,-144.5001 561.2213,-141 551.2213,-137.5001 551.2214,-144.5001"/>
</g>
<!-- Node313&#45;&gt;Node303 -->
<g id="edge27" class="edge">
<title>Node313&#45;&gt;Node303</title>
<path fill="none" stroke="#191970" d="M489.5059,-621C508.9067,-621 530.9792,-621 551.1704,-621"/>
<polygon fill="#191970" stroke="#191970" points="551.2214,-624.5001 561.2213,-621 551.2213,-617.5001 551.2214,-624.5001"/>
</g>
<!-- Node314&#45;&gt;Node297 -->
<g id="edge29" class="edge">
<title>Node314&#45;&gt;Node297</title>
<path fill="none" stroke="#191970" d="M489.6249,-105.6987C496.127,-108.5404 502.4272,-111.9408 508,-116 508.3821,-116.2783 568.276,-198.3006 598.4855,-239.687"/>
<polygon fill="#191970" stroke="#191970" points="595.7266,-241.8438 604.4492,-247.8576 601.3806,-237.7168 595.7266,-241.8438"/>
</g>
<!-- Node315 -->
<g id="node23" class="node">
<title>Node315</title>
<g id="a_node23"><a xlink:href="namespaceprecice_1_1utils.html#a70a03ea1367189736d49351c6385c8c9" target="_top" xlink:title="precice::utils::append">
<polygon fill="#ffffff" stroke="#000000" points="560.5,-82.5 560.5,-101.5 670.5,-101.5 670.5,-82.5 560.5,-82.5"/>
<text text-anchor="middle" x="615.5" y="-89.5" font-family="Helvetica,sans-Serif" font-size="10.00" fill="#000000">precice::utils::append</text>
</a>
</g>
</g>
<!-- Node314&#45;&gt;Node315 -->
<g id="edge30" class="edge">
<title>Node314&#45;&gt;Node315</title>
<path fill="none" stroke="#191970" d="M489.5059,-92C508.5536,-92 530.1765,-92 550.066,-92"/>
<polygon fill="#191970" stroke="#191970" points="550.2862,-95.5001 560.2861,-92 550.2861,-88.5001 550.2862,-95.5001"/>
</g>
<!-- Node318 -->
<g id="node26" class="node">
<title>Node318</title>
<g id="a_node26"><a xlink:href="classprecice_1_1mesh_1_1BoundingBox.html#a7aeb328ca8291253c4fd22d0d4cb0a18" target="_top" xlink:title="Expand bounding box using another bounding box. ">
<polygon fill="#ffffff" stroke="#000000" points="544.5,-1075 544.5,-1105 686.5,-1105 686.5,-1075 544.5,-1075"/>
<text text-anchor="start" x="552.5" y="-1093" font-family="Helvetica,sans-Serif" font-size="10.00" fill="#000000">precice::mesh::BoundingBox</text>
<text text-anchor="middle" x="615.5" y="-1082" font-family="Helvetica,sans-Serif" font-size="10.00" fill="#000000">::expandBy</text>
</a>
</g>
</g>
<!-- Node317&#45;&gt;Node318 -->
<g id="edge33" class="edge">
<title>Node317&#45;&gt;Node318</title>
<path fill="none" stroke="#191970" d="M494.9376,-1090C507.5043,-1090 520.9731,-1090 534.1895,-1090"/>
<polygon fill="#191970" stroke="#191970" points="534.228,-1093.5001 544.228,-1090 534.2279,-1086.5001 534.228,-1093.5001"/>
</g>
<!-- Node319&#45;&gt;Node297 -->
<g id="edge36" class="edge">
<title>Node319&#45;&gt;Node297</title>
<path fill="none" stroke="#191970" d="M489.5059,-280.4992C508.9067,-277.8046 530.9792,-274.739 551.1704,-271.9347"/>
<polygon fill="#191970" stroke="#191970" points="551.7979,-275.3812 561.2213,-270.5387 550.8349,-268.4477 551.7979,-275.3812"/>
</g>
<!-- Node320 -->
<g id="node28" class="node">
<title>Node320</title>
<g id="a_node28"><a xlink:href="classprecice_1_1utils_1_1ManageUniqueIDs.html#af8eca33b69c8ee473d27f639bd29c25c" target="_top" xlink:title="Resets all retrieved and inserted IDs. ">
<polygon fill="#ffffff" stroke="#000000" points="544,-297 544,-327 687,-327 687,-297 544,-297"/>
<text text-anchor="start" x="552" y="-315" font-family="Helvetica,sans-Serif" font-size="10.00" fill="#000000">precice::utils::ManageUnique</text>
<text text-anchor="middle" x="615.5" y="-304" font-family="Helvetica,sans-Serif" font-size="10.00" fill="#000000">IDs::resetIDs</text>
</a>
</g>
</g>
<!-- Node319&#45;&gt;Node320 -->
<g id="edge35" class="edge">
<title>Node319&#45;&gt;Node320</title>
<path fill="none" stroke="#191970" d="M489.5059,-295.2008C503.3888,-297.0518 518.6396,-299.0853 533.5903,-301.0787"/>
<polygon fill="#191970" stroke="#191970" points="533.4975,-304.5972 543.8724,-302.4496 534.4227,-297.6586 533.4975,-304.5972"/>
</g>
<!-- Node326&#45;&gt;Node297 -->
<g id="edge43" class="edge">
<title>Node326&#45;&gt;Node297</title>
<path fill="none" stroke="#191970" d="M483.3408,-205.0229C491.6189,-207.8537 500.1001,-210.9024 508,-214 530.7486,-222.9198 555.6049,-234.1492 575.6808,-243.607"/>
<polygon fill="#191970" stroke="#191970" points="574.2973,-246.8245 584.8321,-247.951 577.2991,-240.5008 574.2973,-246.8245"/>
</g>
<!-- Node326&#45;&gt;Node312 -->
<g id="edge44" class="edge">
<title>Node326&#45;&gt;Node312</title>
<path fill="none" stroke="#191970" d="M490.9747,-174.8986C510.1505,-169.6785 531.7909,-163.7875 551.588,-158.3983"/>
<polygon fill="#191970" stroke="#191970" points="552.714,-161.7192 561.4436,-155.7154 550.8753,-154.965 552.714,-161.7192"/>
</g>
</g>
</svg>
