<?xml version="1.0" encoding="UTF-8" standalone="no"?>
<!DOCTYPE svg PUBLIC "-//W3C//DTD SVG 1.1//EN"
 "http://www.w3.org/Graphics/SVG/1.1/DTD/svg11.dtd">
<!-- Generated by graphviz version 2.40.1 (20161225.0304)
 -->
<!-- Title: src/mesh/Mesh.cpp Pages: 1 -->
<svg width="3018pt" height="520pt"
 viewBox="0.00 0.00 3017.97 520.00" xmlns="http://www.w3.org/2000/svg" xmlns:xlink="http://www.w3.org/1999/xlink">
<g id="graph0" class="graph" transform="scale(1 1) rotate(0) translate(4 516)">
<title>src/mesh/Mesh.cpp</title>
<polygon fill="#ffffff" stroke="transparent" points="-4,4 -4,-516 3013.9749,-516 3013.9749,4 -4,4"/>
<!-- Node0 -->
<g id="node1" class="node">
<title>Node0</title>
<polygon fill="#bfbfbf" stroke="#000000" points="2354.4749,-492.5 2354.4749,-511.5 2457.4749,-511.5 2457.4749,-492.5 2354.4749,-492.5"/>
<text text-anchor="middle" x="2405.9749" y="-499.5" font-family="Helvetica,sans-Serif" font-size="10.00" fill="#000000">src/mesh/Mesh.cpp</text>
</g>
<!-- Node1 -->
<g id="node2" class="node">
<title>Node1</title>
<g id="a_node2"><a xlink:href="Mesh_8hpp.html" target="_top" xlink:title="Mesh.hpp">
<polygon fill="#ffffff" stroke="#000000" points="1265.4749,-369.5 1265.4749,-388.5 1324.4749,-388.5 1324.4749,-369.5 1265.4749,-369.5"/>
<text text-anchor="middle" x="1294.9749" y="-376.5" font-family="Helvetica,sans-Serif" font-size="10.00" fill="#000000">Mesh.hpp</text>
</a>
</g>
</g>
<!-- Node0&#45;&gt;Node1 -->
<g id="edge1" class="edge">
<title>Node0&#45;&gt;Node1</title>
<path fill="none" stroke="#191970" d="M2354.3372,-500.3864C2199.7652,-495.3482 1742.345,-478.8688 1594.9749,-456 1499.7357,-441.2208 1390.797,-409.3908 1334.0295,-391.6311"/>
<polygon fill="#191970" stroke="#191970" points="1334.9723,-388.2586 1324.3827,-388.5911 1332.8683,-394.9349 1334.9723,-388.2586"/>
</g>
<!-- Node2 -->
<g id="node3" class="node">
<title>Node2</title>
<polygon fill="#ffffff" stroke="#bfbfbf" points="1919.4749,-67.5 1919.4749,-86.5 1984.4749,-86.5 1984.4749,-67.5 1919.4749,-67.5"/>
<text text-anchor="middle" x="1951.9749" y="-74.5" font-family="Helvetica,sans-Serif" font-size="10.00" fill="#000000">Eigen/Core</text>
</g>
<!-- Node0&#45;&gt;Node2 -->
<g id="edge74" class="edge">
<title>Node0&#45;&gt;Node2</title>
<path fill="none" stroke="#191970" d="M2457.7237,-499.5244C2562.231,-494.0936 2794.981,-479.6943 2870.9749,-456 2938.3971,-434.9783 3009.9749,-449.6233 3009.9749,-379 3009.9749,-379 3009.9749,-379 3009.9749,-200 3009.9749,-95.9905 2192.8002,-79.7961 1994.7984,-77.3988"/>
<polygon fill="#191970" stroke="#191970" points="1994.5469,-73.8957 1984.5071,-77.28 1994.466,-80.8953 1994.5469,-73.8957"/>
</g>
<!-- Node9 -->
<g id="node10" class="node">
<title>Node9</title>
<polygon fill="#ffffff" stroke="#bfbfbf" points="1145.9749,-252 1145.9749,-271 1189.9749,-271 1189.9749,-252 1145.9749,-252"/>
<text text-anchor="middle" x="1167.9749" y="-259" font-family="Helvetica,sans-Serif" font-size="10.00" fill="#000000">vector</text>
</g>
<!-- Node0&#45;&gt;Node9 -->
<g id="edge83" class="edge">
<title>Node0&#45;&gt;Node9</title>
<path fill="none" stroke="#191970" d="M2354.4416,-500.793C2089.3797,-494.0481 887.9738,-456.763 784.9749,-333 779.2889,-326.1676 779.1233,-319.6911 784.9749,-313 790.7701,-306.3734 1044.6331,-275.9809 1135.801,-265.2583"/>
<polygon fill="#191970" stroke="#191970" points="1136.3157,-268.722 1145.8394,-264.0799 1135.4995,-261.7698 1136.3157,-268.722"/>
</g>
<!-- Node11 -->
<g id="node12" class="node">
<title>Node11</title>
<polygon fill="#ffffff" stroke="#bfbfbf" points="1563.9749,-190.5 1563.9749,-209.5 1615.9749,-209.5 1615.9749,-190.5 1563.9749,-190.5"/>
<text text-anchor="middle" x="1589.9749" y="-197.5" font-family="Helvetica,sans-Serif" font-size="10.00" fill="#000000">memory</text>
</g>
<!-- Node0&#45;&gt;Node11 -->
<g id="edge79" class="edge">
<title>Node0&#45;&gt;Node11</title>
<path fill="none" stroke="#191970" d="M2354.4733,-498.4264C2252.8242,-491.0972 2029.7747,-473.5699 1954.9749,-456 1803.8144,-420.4936 1735.9622,-444.575 1627.9749,-333 1597.7502,-301.771 1591.2686,-248.2275 1590.0654,-219.5266"/>
<polygon fill="#191970" stroke="#191970" points="1593.5642,-219.4325 1589.8221,-209.5206 1586.5663,-219.6027 1593.5642,-219.4325"/>
</g>
<!-- Node12 -->
<g id="node13" class="node">
<title>Node12</title>
<g id="a_node13"><a xlink:href="LogMacros_8hpp.html" target="_top" xlink:title="LogMacros.hpp">
<polygon fill="#ffffff" stroke="#000000" points="580.4749,-190.5 580.4749,-209.5 663.4749,-209.5 663.4749,-190.5 580.4749,-190.5"/>
<text text-anchor="middle" x="621.9749" y="-197.5" font-family="Helvetica,sans-Serif" font-size="10.00" fill="#000000">LogMacros.hpp</text>
</a>
</g>
</g>
<!-- Node0&#45;&gt;Node12 -->
<g id="edge101" class="edge">
<title>Node0&#45;&gt;Node12</title>
<path fill="none" stroke="#191970" d="M2354.312,-501.6126C2090.0754,-499.4987 887.7269,-488.2433 515.9749,-456 285.8454,-436.0401 1.9749,-609.9936 1.9749,-379 1.9749,-379 1.9749,-379 1.9749,-323 1.9749,-287.7513 -5.9248,-268.7787 20.9749,-246 62.4204,-210.904 431.8473,-202.479 570.0786,-200.5476"/>
<polygon fill="#191970" stroke="#191970" points="570.4494,-204.0431 580.4016,-200.4095 570.3557,-197.0437 570.4494,-204.0431"/>
</g>
<!-- Node26 -->
<g id="node26" class="node">
<title>Node26</title>
<polygon fill="#ffffff" stroke="#bfbfbf" points="2729.9749,-129 2729.9749,-148 2769.9749,-148 2769.9749,-129 2729.9749,-129"/>
<text text-anchor="middle" x="2749.9749" y="-136" font-family="Helvetica,sans-Serif" font-size="10.00" fill="#000000">utility</text>
</g>
<!-- Node0&#45;&gt;Node26 -->
<g id="edge82" class="edge">
<title>Node0&#45;&gt;Node26</title>
<path fill="none" stroke="#191970" d="M2457.6155,-498.7471C2526.7925,-493.5994 2653.0032,-481.429 2757.9749,-456 2856.2141,-432.2019 2971.9749,-480.0806 2971.9749,-379 2971.9749,-379 2971.9749,-379 2971.9749,-261.5 2971.9749,-174.8342 2840.9242,-148.7337 2780.201,-141.2916"/>
<polygon fill="#191970" stroke="#191970" points="2780.3979,-137.7916 2770.0675,-140.1438 2779.61,-144.7471 2780.3979,-137.7916"/>
</g>
<!-- Node36 -->
<g id="node29" class="node">
<title>Node36</title>
<g id="a_node29"><a xlink:href="Data_8hpp.html" target="_top" xlink:title="mesh/Data.hpp">
<polygon fill="#ffffff" stroke="#000000" points="227.4749,-313.5 227.4749,-332.5 310.4749,-332.5 310.4749,-313.5 227.4749,-313.5"/>
<text text-anchor="middle" x="268.9749" y="-320.5" font-family="Helvetica,sans-Serif" font-size="10.00" fill="#000000">mesh/Data.hpp</text>
</a>
</g>
</g>
<!-- Node0&#45;&gt;Node36 -->
<g id="edge107" class="edge">
<title>Node0&#45;&gt;Node36</title>
<path fill="none" stroke="#191970" d="M2354.2253,-501.6377C2080.7823,-499.5915 810.1631,-488.3972 637.9749,-456 506.1167,-431.1909 358.6456,-365.7859 297.703,-336.9706"/>
<polygon fill="#191970" stroke="#191970" points="298.8801,-333.6545 288.347,-332.5117 295.8684,-339.9735 298.8801,-333.6545"/>
</g>
<!-- Node38 -->
<g id="node31" class="node">
<title>Node38</title>
<g id="a_node31"><a xlink:href="Edge_8hpp.html" target="_top" xlink:title="mesh/Edge.hpp">
<polygon fill="#ffffff" stroke="#000000" points="2015.4749,-252 2015.4749,-271 2100.4749,-271 2100.4749,-252 2015.4749,-252"/>
<text text-anchor="middle" x="2057.9749" y="-259" font-family="Helvetica,sans-Serif" font-size="10.00" fill="#000000">mesh/Edge.hpp</text>
</a>
</g>
</g>
<!-- Node0&#45;&gt;Node38 -->
<g id="edge84" class="edge">
<title>Node0&#45;&gt;Node38</title>
<path fill="none" stroke="#191970" d="M2403.1566,-492.2676C2393.4999,-460.7569 2358.6041,-360.8028 2291.9749,-313 2263.3796,-292.4844 2170.3528,-276.5895 2110.5635,-268.1701"/>
<polygon fill="#191970" stroke="#191970" points="2110.9246,-264.6868 2100.5395,-266.7845 2109.966,-271.6209 2110.9246,-264.6868"/>
</g>
<!-- Node39 -->
<g id="node32" class="node">
<title>Node39</title>
<polygon fill="#ffffff" stroke="#bfbfbf" points="2385.9749,-190.5 2385.9749,-209.5 2423.9749,-209.5 2423.9749,-190.5 2385.9749,-190.5"/>
<text text-anchor="middle" x="2404.9749" y="-197.5" font-family="Helvetica,sans-Serif" font-size="10.00" fill="#000000">array</text>
</g>
<!-- Node0&#45;&gt;Node39 -->
<g id="edge76" class="edge">
<title>Node0&#45;&gt;Node39</title>
<path fill="none" stroke="#191970" d="M2423.9084,-492.3561C2439.8449,-483.5382 2463.556,-469.8033 2482.9749,-456 2500.4609,-443.5707 2500.936,-434.8876 2519.9749,-425 2575.0831,-396.3803 2595.4607,-406.7216 2654.9749,-389 2731.216,-366.2977 2752.915,-366.6966 2824.9749,-333 2875.3709,-309.4339 2952.5054,-287.0679 2914.9749,-246 2882.3934,-210.3474 2537.6345,-202.077 2434.1688,-200.3915"/>
<polygon fill="#191970" stroke="#191970" points="2434.168,-196.8911 2424.1152,-200.2363 2434.06,-203.8903 2434.168,-196.8911"/>
</g>
<!-- Node41 -->
<g id="node34" class="node">
<title>Node41</title>
<g id="a_node34"><a xlink:href="Triangle_8hpp.html" target="_top" xlink:title="mesh/Triangle.hpp">
<polygon fill="#ffffff" stroke="#000000" points="2023.4749,-313.5 2023.4749,-332.5 2120.4749,-332.5 2120.4749,-313.5 2023.4749,-313.5"/>
<text text-anchor="middle" x="2071.9749" y="-320.5" font-family="Helvetica,sans-Serif" font-size="10.00" fill="#000000">mesh/Triangle.hpp</text>
</a>
</g>
</g>
<!-- Node0&#45;&gt;Node41 -->
<g id="edge100" class="edge">
<title>Node0&#45;&gt;Node41</title>
<path fill="none" stroke="#191970" d="M2384.8132,-492.3253C2365.2355,-483.2653 2335.4073,-469.1828 2309.9749,-456 2231.0862,-415.1082 2139.9156,-362.67 2096.8969,-337.6084"/>
<polygon fill="#191970" stroke="#191970" points="2098.6299,-334.5673 2088.229,-332.5492 2095.1013,-340.6129 2098.6299,-334.5673"/>
</g>
<!-- Node42 -->
<g id="node35" class="node">
<title>Node42</title>
<polygon fill="#ffffff" stroke="#bfbfbf" points="2627.9749,-252 2627.9749,-271 2683.9749,-271 2683.9749,-252 2627.9749,-252"/>
<text text-anchor="middle" x="2655.9749" y="-259" font-family="Helvetica,sans-Serif" font-size="10.00" fill="#000000">algorithm</text>
</g>
<!-- Node0&#45;&gt;Node42 -->
<g id="edge75" class="edge">
<title>Node0&#45;&gt;Node42</title>
<path fill="none" stroke="#191970" d="M2415.1426,-492.4317C2432.7944,-474.156 2471.1527,-435.1915 2486.9749,-425 2522.8465,-401.8944 2543.2687,-416.4034 2575.9749,-389 2612.0305,-358.7904 2636.9343,-308.0272 2648.5428,-280.5503"/>
<polygon fill="#191970" stroke="#191970" points="2651.7998,-281.8323 2652.3364,-271.2511 2645.3184,-279.1882 2651.7998,-281.8323"/>
</g>
<!-- Node47 -->
<g id="node39" class="node">
<title>Node47</title>
<polygon fill="#ffffff" stroke="#bfbfbf" points="2550.4749,-252 2550.4749,-271 2609.4749,-271 2609.4749,-252 2550.4749,-252"/>
<text text-anchor="middle" x="2579.9749" y="-259" font-family="Helvetica,sans-Serif" font-size="10.00" fill="#000000">functional</text>
</g>
<!-- Node0&#45;&gt;Node47 -->
<g id="edge78" class="edge">
<title>Node0&#45;&gt;Node47</title>
<path fill="none" stroke="#191970" d="M2457.7614,-497.7585C2539.762,-490.5125 2691.9032,-474.7052 2707.9749,-456 2734.8275,-424.7476 2637.7421,-319.9283 2597.0821,-278.5283"/>
<polygon fill="#191970" stroke="#191970" points="2599.4962,-275.9919 2589.972,-271.3506 2594.5231,-280.9182 2599.4962,-275.9919"/>
</g>
<!-- Node50 -->
<g id="node41" class="node">
<title>Node50</title>
<polygon fill="#ffffff" stroke="#bfbfbf" points="2528.9749,-425.5 2528.9749,-455.5 2628.9749,-455.5 2628.9749,-425.5 2528.9749,-425.5"/>
<text text-anchor="start" x="2536.9749" y="-443.5" font-family="Helvetica,sans-Serif" font-size="10.00" fill="#000000">boost/container/flat</text>
<text text-anchor="middle" x="2578.9749" y="-432.5" font-family="Helvetica,sans-Serif" font-size="10.00" fill="#000000">_map.hpp</text>
</g>
<!-- Node0&#45;&gt;Node50 -->
<g id="edge77" class="edge">
<title>Node0&#45;&gt;Node50</title>
<path fill="none" stroke="#191970" d="M2433.0062,-492.3906C2458.0456,-483.4893 2495.9707,-470.0073 2526.8878,-459.0165"/>
<polygon fill="#191970" stroke="#191970" points="2528.4044,-462.192 2536.6544,-455.5446 2526.0597,-455.5964 2528.4044,-462.192"/>
</g>
<!-- Node51 -->
<g id="node42" class="node">
<title>Node51</title>
<polygon fill="#ffffff" stroke="#bfbfbf" points="2646.9749,-431 2646.9749,-450 2698.9749,-450 2698.9749,-431 2646.9749,-431"/>
<text text-anchor="middle" x="2672.9749" y="-438" font-family="Helvetica,sans-Serif" font-size="10.00" fill="#000000">ostream</text>
</g>
<!-- Node0&#45;&gt;Node51 -->
<g id="edge80" class="edge">
<title>Node0&#45;&gt;Node51</title>
<path fill="none" stroke="#191970" d="M2457.4793,-495.1316C2505.0427,-488.0073 2577.2917,-475.1924 2637.9749,-456 2639.8758,-455.3988 2641.8118,-454.7257 2643.7486,-454.0057"/>
<polygon fill="#191970" stroke="#191970" points="2645.334,-457.1394 2653.2803,-450.1318 2642.6984,-450.6546 2645.334,-457.1394"/>
</g>
<!-- Node52 -->
<g id="node43" class="node">
<title>Node52</title>
<polygon fill="#ffffff" stroke="#bfbfbf" points="2843.9749,-252 2843.9749,-271 2905.9749,-271 2905.9749,-252 2843.9749,-252"/>
<text text-anchor="middle" x="2874.9749" y="-259" font-family="Helvetica,sans-Serif" font-size="10.00" fill="#000000">type_traits</text>
</g>
<!-- Node0&#45;&gt;Node52 -->
<g id="edge81" class="edge">
<title>Node0&#45;&gt;Node52</title>
<path fill="none" stroke="#191970" d="M2457.6361,-499.0494C2535.7288,-493.8397 2679.455,-481.1063 2723.9749,-456 2797.6218,-414.4681 2847.6022,-321.0142 2866.5256,-280.6574"/>
<polygon fill="#191970" stroke="#191970" points="2869.7853,-281.9449 2870.7566,-271.3947 2863.4181,-279.0365 2869.7853,-281.9449"/>
</g>
<!-- Node53 -->
<g id="node44" class="node">
<title>Node53</title>
<g id="a_node44"><a xlink:href="RTree_8hpp.html" target="_top" xlink:title="RTree.hpp">
<polygon fill="#ffffff" stroke="#000000" points="1963.9749,-431 1963.9749,-450 2025.9749,-450 2025.9749,-431 1963.9749,-431"/>
<text text-anchor="middle" x="1994.9749" y="-438" font-family="Helvetica,sans-Serif" font-size="10.00" fill="#000000">RTree.hpp</text>
</a>
</g>
</g>
<!-- Node0&#45;&gt;Node53 -->
<g id="edge85" class="edge">
<title>Node0&#45;&gt;Node53</title>
<path fill="none" stroke="#191970" d="M2354.3377,-494.2733C2271.7666,-481.9177 2111.6495,-457.9586 2036.1996,-446.6687"/>
<polygon fill="#191970" stroke="#191970" points="2036.54,-443.1807 2026.1321,-445.1622 2035.504,-450.1036 2036.54,-443.1807"/>
</g>
<!-- Node56 -->
<g id="node47" class="node">
<title>Node56</title>
<g id="a_node47"><a xlink:href="geometry_8hpp.html" target="_top" xlink:title="math/geometry.hpp">
<polygon fill="#ffffff" stroke="#000000" points="2354.4749,-252 2354.4749,-271 2455.4749,-271 2455.4749,-252 2354.4749,-252"/>
<text text-anchor="middle" x="2404.9749" y="-259" font-family="Helvetica,sans-Serif" font-size="10.00" fill="#000000">math/geometry.hpp</text>
</a>
</g>
</g>
<!-- Node0&#45;&gt;Node56 -->
<g id="edge102" class="edge">
<title>Node0&#45;&gt;Node56</title>
<path fill="none" stroke="#191970" d="M2405.9345,-492.2742C2405.785,-456.3148 2405.2616,-330.4298 2405.0574,-281.3266"/>
<polygon fill="#191970" stroke="#191970" points="2408.5564,-281.0686 2405.0148,-271.0833 2401.5565,-281.0978 2408.5564,-281.0686"/>
</g>
<!-- Node57 -->
<g id="node48" class="node">
<title>Node57</title>
<g id="a_node48"><a xlink:href="EigenHelperFunctions_8hpp.html" target="_top" xlink:title="utils/EigenHelperFunctions.hpp">
<polygon fill="#ffffff" stroke="#000000" points="2414.9749,-369.5 2414.9749,-388.5 2566.9749,-388.5 2566.9749,-369.5 2414.9749,-369.5"/>
<text text-anchor="middle" x="2490.9749" y="-376.5" font-family="Helvetica,sans-Serif" font-size="10.00" fill="#000000">utils/EigenHelperFunctions.hpp</text>
</a>
</g>
</g>
<!-- Node0&#45;&gt;Node57 -->
<g id="edge108" class="edge">
<title>Node0&#45;&gt;Node57</title>
<path fill="none" stroke="#191970" d="M2410.4731,-492.3318C2417.6567,-477.3097 2432.589,-447.7288 2448.9749,-425 2456.3555,-414.7626 2465.7352,-404.2994 2473.7576,-395.9438"/>
<polygon fill="#191970" stroke="#191970" points="2476.4089,-398.2395 2480.9238,-388.6547 2471.4172,-393.332 2476.4089,-398.2395"/>
</g>
<!-- Node1&#45;&gt;Node2 -->
<g id="edge2" class="edge">
<title>Node1&#45;&gt;Node2</title>
<path fill="none" stroke="#191970" d="M1308.1497,-369.3108C1331.3292,-351.0345 1376.9749,-309.0125 1376.9749,-261.5 1376.9749,-261.5 1376.9749,-261.5 1376.9749,-200 1376.9749,-145.5823 1775.8773,-96.4845 1909.1805,-81.5966"/>
<polygon fill="#191970" stroke="#191970" points="1909.8592,-85.0429 1919.413,-80.4628 1909.0883,-78.0854 1909.8592,-85.0429"/>
</g>
<!-- Node3 -->
<g id="node4" class="node">
<title>Node3</title>
<polygon fill="#ffffff" stroke="#bfbfbf" points="965.9749,-313.5 965.9749,-332.5 1063.9749,-332.5 1063.9749,-313.5 965.9749,-313.5"/>
<text text-anchor="middle" x="1014.9749" y="-320.5" font-family="Helvetica,sans-Serif" font-size="10.00" fill="#000000">boost/signals2.hpp</text>
</g>
<!-- Node1&#45;&gt;Node3 -->
<g id="edge3" class="edge">
<title>Node1&#45;&gt;Node3</title>
<path fill="none" stroke="#191970" d="M1265.2751,-373.06C1219.5066,-363.9063 1130.907,-346.1864 1072.3457,-334.4742"/>
<polygon fill="#191970" stroke="#191970" points="1072.9901,-331.0338 1062.4979,-332.5046 1071.6173,-337.8979 1072.9901,-331.0338"/>
</g>
<!-- Node4 -->
<g id="node5" class="node">
<title>Node4</title>
<polygon fill="#ffffff" stroke="#bfbfbf" points="1082.4749,-313.5 1082.4749,-332.5 1125.4749,-332.5 1125.4749,-313.5 1082.4749,-313.5"/>
<text text-anchor="middle" x="1103.9749" y="-320.5" font-family="Helvetica,sans-Serif" font-size="10.00" fill="#000000">deque</text>
</g>
<!-- Node1&#45;&gt;Node4 -->
<g id="edge4" class="edge">
<title>Node1&#45;&gt;Node4</title>
<path fill="none" stroke="#191970" d="M1265.1869,-370.9064C1234.7467,-362.5445 1185.8935,-348.8741 1135.3565,-333.3469"/>
<polygon fill="#191970" stroke="#191970" points="1136.1564,-329.9308 1125.5688,-330.3225 1134.0898,-336.6188 1136.1564,-329.9308"/>
</g>
<!-- Node5 -->
<g id="node6" class="node">
<title>Node5</title>
<polygon fill="#ffffff" stroke="#bfbfbf" points="1303.4749,-252 1303.4749,-271 1348.4749,-271 1348.4749,-252 1303.4749,-252"/>
<text text-anchor="middle" x="1325.9749" y="-259" font-family="Helvetica,sans-Serif" font-size="10.00" fill="#000000">iosfwd</text>
</g>
<!-- Node1&#45;&gt;Node5 -->
<g id="edge5" class="edge">
<title>Node1&#45;&gt;Node5</title>
<path fill="none" stroke="#191970" d="M1301.8075,-369.298C1307.7302,-360.3325 1315.962,-346.41 1319.9749,-333 1324.9909,-316.2384 1326.309,-296.3469 1326.4769,-281.8052"/>
<polygon fill="#191970" stroke="#191970" points="1329.9748,-281.4305 1326.4138,-271.4521 1322.9749,-281.4733 1329.9748,-281.4305"/>
</g>
<!-- Node6 -->
<g id="node7" class="node">
<title>Node6</title>
<polygon fill="#ffffff" stroke="#bfbfbf" points="1143.4749,-313.5 1143.4749,-332.5 1172.4749,-332.5 1172.4749,-313.5 1143.4749,-313.5"/>
<text text-anchor="middle" x="1157.9749" y="-320.5" font-family="Helvetica,sans-Serif" font-size="10.00" fill="#000000">list</text>
</g>
<!-- Node1&#45;&gt;Node6 -->
<g id="edge6" class="edge">
<title>Node1&#45;&gt;Node6</title>
<path fill="none" stroke="#191970" d="M1271.1431,-369.3646C1248.258,-360.0963 1212.7237,-345.6643 1181.9749,-333 1181.881,-332.9613 1181.7869,-332.9226 1181.6926,-332.8837"/>
<polygon fill="#191970" stroke="#191970" points="1183.2684,-329.7481 1172.6902,-329.1537 1180.5889,-336.215 1183.2684,-329.7481"/>
</g>
<!-- Node7 -->
<g id="node8" class="node">
<title>Node7</title>
<polygon fill="#ffffff" stroke="#bfbfbf" points="1817.4749,-313.5 1817.4749,-332.5 1852.4749,-332.5 1852.4749,-313.5 1817.4749,-313.5"/>
<text text-anchor="middle" x="1834.9749" y="-320.5" font-family="Helvetica,sans-Serif" font-size="10.00" fill="#000000">map</text>
</g>
<!-- Node1&#45;&gt;Node7 -->
<g id="edge7" class="edge">
<title>Node1&#45;&gt;Node7</title>
<path fill="none" stroke="#191970" d="M1324.4932,-378.512C1403.0793,-376.7442 1623.6308,-368.7195 1802.9749,-333 1804.4377,-332.7087 1805.9283,-332.3755 1807.4264,-332.0117"/>
<polygon fill="#191970" stroke="#191970" points="1808.5143,-335.342 1817.2086,-329.2872 1806.6362,-328.5986 1808.5143,-335.342"/>
</g>
<!-- Node8 -->
<g id="node9" class="node">
<title>Node8</title>
<polygon fill="#ffffff" stroke="#bfbfbf" points="760.4749,-67.5 760.4749,-86.5 801.4749,-86.5 801.4749,-67.5 760.4749,-67.5"/>
<text text-anchor="middle" x="780.9749" y="-74.5" font-family="Helvetica,sans-Serif" font-size="10.00" fill="#000000">string</text>
</g>
<!-- Node1&#45;&gt;Node8 -->
<g id="edge8" class="edge">
<title>Node1&#45;&gt;Node8</title>
<path fill="none" stroke="#191970" d="M1265.2546,-378.8121C1155.7733,-377.816 779.4769,-371.5893 743.9749,-333 737.9567,-326.4584 741.7729,-321.6118 743.9749,-313 763.9303,-234.9572 811.0196,-232.0428 830.9749,-154 834.3881,-140.6517 836.5113,-135.6165 830.9749,-123 825.6427,-110.8487 815.341,-100.4938 805.4674,-92.7031"/>
<polygon fill="#191970" stroke="#191970" points="807.5258,-89.8723 797.3927,-86.7788 803.385,-95.5162 807.5258,-89.8723"/>
</g>
<!-- Node1&#45;&gt;Node9 -->
<g id="edge9" class="edge">
<title>Node1&#45;&gt;Node9</title>
<path fill="none" stroke="#191970" d="M1265.3524,-377.1643C1186.6923,-371.9898 977.1804,-356.1415 956.9749,-333 951.1287,-326.3042 951.3584,-319.8896 956.9749,-313 1007.149,-251.4537 1056.2268,-300.8244 1131.9749,-277 1134.0846,-276.3365 1136.2388,-275.5916 1138.3922,-274.7967"/>
<polygon fill="#191970" stroke="#191970" points="1139.6963,-278.0448 1147.688,-271.0891 1137.1029,-271.5429 1139.6963,-278.0448"/>
</g>
<!-- Node10 -->
<g id="node11" class="node">
<title>Node10</title>
<g id="a_node11"><a xlink:href="Logger_8hpp.html" target="_top" xlink:title="logging/Logger.hpp">
<polygon fill="#ffffff" stroke="#000000" points="915.9749,-252 915.9749,-271 1013.9749,-271 1013.9749,-252 915.9749,-252"/>
<text text-anchor="middle" x="964.9749" y="-259" font-family="Helvetica,sans-Serif" font-size="10.00" fill="#000000">logging/Logger.hpp</text>
</a>
</g>
</g>
<!-- Node1&#45;&gt;Node10 -->
<g id="edge10" class="edge">
<title>Node1&#45;&gt;Node10</title>
<path fill="none" stroke="#191970" d="M1265.3135,-378.7738C1156.9404,-377.6441 786.9018,-371.0108 751.9749,-333 745.9607,-326.4547 746.4775,-319.985 751.9749,-313 770.8029,-289.0773 849.3339,-274.9382 905.5627,-267.6997"/>
<polygon fill="#191970" stroke="#191970" points="906.2918,-271.136 915.7829,-266.4276 905.4271,-264.1896 906.2918,-271.136"/>
</g>
<!-- Node23 -->
<g id="node23" class="node">
<title>Node23</title>
<g id="a_node23"><a xlink:href="BoundingBox_8hpp.html" target="_top" xlink:title="mesh/BoundingBox.hpp">
<polygon fill="#ffffff" stroke="#000000" points="1190.9749,-313.5 1190.9749,-332.5 1310.9749,-332.5 1310.9749,-313.5 1190.9749,-313.5"/>
<text text-anchor="middle" x="1250.9749" y="-320.5" font-family="Helvetica,sans-Serif" font-size="10.00" fill="#000000">mesh/BoundingBox.hpp</text>
</a>
</g>
</g>
<!-- Node1&#45;&gt;Node23 -->
<g id="edge26" class="edge">
<title>Node1&#45;&gt;Node23</title>
<path fill="none" stroke="#191970" d="M1287.3107,-369.2455C1281.1276,-361.3761 1272.2686,-350.101 1264.8461,-340.6542"/>
<polygon fill="#191970" stroke="#191970" points="1267.4817,-338.3435 1258.5513,-332.6427 1261.9775,-342.6683 1267.4817,-338.3435"/>
</g>
<!-- Node24 -->
<g id="node24" class="node">
<title>Node24</title>
<g id="a_node24"><a xlink:href="Vertex_8hpp.html" target="_top" xlink:title="mesh/Vertex.hpp">
<polygon fill="#ffffff" stroke="#000000" points="1751.4749,-190.5 1751.4749,-209.5 1842.4749,-209.5 1842.4749,-190.5 1751.4749,-190.5"/>
<text text-anchor="middle" x="1796.9749" y="-197.5" font-family="Helvetica,sans-Serif" font-size="10.00" fill="#000000">mesh/Vertex.hpp</text>
</a>
</g>
</g>
<!-- Node1&#45;&gt;Node24 -->
<g id="edge66" class="edge">
<title>Node1&#45;&gt;Node24</title>
<path fill="none" stroke="#191970" d="M1324.9068,-370.4254C1345.5829,-363.2362 1372.5682,-351.1836 1390.9749,-333 1421.6591,-302.6878 1398.8435,-271.0225 1433.9749,-246 1458.4996,-228.5322 1645.7962,-211.7075 1741.3179,-204.154"/>
<polygon fill="#191970" stroke="#191970" points="1741.6857,-207.636 1751.3817,-203.3657 1741.1389,-200.6574 1741.6857,-207.636"/>
</g>
<!-- Node28 -->
<g id="node28" class="node">
<title>Node28</title>
<g id="a_node28"><a xlink:href="assertion_8hpp.html" target="_top" xlink:title="utils/assertion.hpp">
<polygon fill="#ffffff" stroke="#ff0000" points="1449.9749,-67.5 1449.9749,-86.5 1545.9749,-86.5 1545.9749,-67.5 1449.9749,-67.5"/>
<text text-anchor="middle" x="1497.9749" y="-74.5" font-family="Helvetica,sans-Serif" font-size="10.00" fill="#000000">utils/assertion.hpp</text>
</a>
</g>
</g>
<!-- Node1&#45;&gt;Node28 -->
<g id="edge73" class="edge">
<title>Node1&#45;&gt;Node28</title>
<path fill="none" stroke="#191970" d="M1265.3375,-378.6013C1161.3338,-376.8994 817.5101,-368.6018 784.9749,-333 778.9785,-326.4384 779.1786,-319.739 784.9749,-313 819.8555,-272.4466 972.6157,-295.0326 1022.9749,-277 1048.3062,-267.9294 1051.289,-258.7643 1074.9749,-246 1185.3912,-186.4971 1211.5144,-166.9928 1328.9749,-123 1366.6523,-108.8886 1410.5278,-97.0761 1444.1297,-88.9557"/>
<polygon fill="#191970" stroke="#191970" points="1445.2925,-92.2768 1454.2098,-86.5556 1443.671,-85.4671 1445.2925,-92.2768"/>
</g>
<!-- Node1&#45;&gt;Node36 -->
<g id="edge43" class="edge">
<title>Node1&#45;&gt;Node36</title>
<path fill="none" stroke="#191970" d="M1265.3753,-377.3844C1122.6749,-369.5957 505.0873,-335.8872 320.9699,-325.8379"/>
<polygon fill="#191970" stroke="#191970" points="320.9199,-322.3301 310.7439,-325.2798 320.5383,-329.3197 320.9199,-322.3301"/>
</g>
<!-- Node1&#45;&gt;Node38 -->
<g id="edge48" class="edge">
<title>Node1&#45;&gt;Node38</title>
<path fill="none" stroke="#191970" d="M1324.7905,-377.6198C1415.3003,-373.1937 1685.8327,-358.1558 1769.9749,-333 1788.2605,-327.5332 1790.0067,-319.4333 1807.9749,-313 1873.9384,-289.3826 1953.7825,-275.2936 2005.2006,-267.9721"/>
<polygon fill="#191970" stroke="#191970" points="2005.9857,-271.3967 2015.4092,-266.5543 2005.0228,-264.4633 2005.9857,-271.3967"/>
</g>
<!-- Node40 -->
<g id="node33" class="node">
<title>Node40</title>
<g id="a_node33"><a xlink:href="mesh_2SharedPointer_8hpp.html" target="_top" xlink:title="mesh/SharedPointer.hpp">
<polygon fill="#ffffff" stroke="#000000" points="1636.9749,-313.5 1636.9749,-332.5 1760.9749,-332.5 1760.9749,-313.5 1636.9749,-313.5"/>
<text text-anchor="middle" x="1698.9749" y="-320.5" font-family="Helvetica,sans-Serif" font-size="10.00" fill="#000000">mesh/SharedPointer.hpp</text>
</a>
</g>
</g>
<!-- Node1&#45;&gt;Node40 -->
<g id="edge55" class="edge">
<title>Node1&#45;&gt;Node40</title>
<path fill="none" stroke="#191970" d="M1324.682,-374.8822C1387.8484,-366.1265 1537.0491,-345.4452 1626.8344,-332.9997"/>
<polygon fill="#191970" stroke="#191970" points="1627.5175,-336.4386 1636.9422,-331.5986 1626.5563,-329.5048 1627.5175,-336.4386"/>
</g>
<!-- Node1&#45;&gt;Node41 -->
<g id="edge57" class="edge">
<title>Node1&#45;&gt;Node41</title>
<path fill="none" stroke="#191970" d="M1324.4855,-376.8731C1439.2445,-368.6022 1857.1198,-338.4851 2012.9022,-327.2575"/>
<polygon fill="#191970" stroke="#191970" points="2013.4959,-330.7239 2023.2184,-326.514 2012.9927,-323.742 2013.4959,-330.7239"/>
</g>
<!-- Node45 -->
<g id="node37" class="node">
<title>Node45</title>
<g id="a_node37"><a xlink:href="ManageUniqueIDs_8hpp.html" target="_top" xlink:title="utils/ManageUniqueIDs.hpp">
<polygon fill="#ffffff" stroke="#000000" points="1443.4749,-313.5 1443.4749,-332.5 1580.4749,-332.5 1580.4749,-313.5 1443.4749,-313.5"/>
<text text-anchor="middle" x="1511.9749" y="-320.5" font-family="Helvetica,sans-Serif" font-size="10.00" fill="#000000">utils/ManageUniqueIDs.hpp</text>
</a>
</g>
</g>
<!-- Node1&#45;&gt;Node45 -->
<g id="edge67" class="edge">
<title>Node1&#45;&gt;Node45</title>
<path fill="none" stroke="#191970" d="M1324.6929,-371.3309C1360.9072,-361.9852 1422.5267,-346.0834 1465.1432,-335.0856"/>
<polygon fill="#191970" stroke="#191970" points="1466.1953,-338.4289 1475.0035,-332.541 1464.4461,-331.6509 1466.1953,-338.4289"/>
</g>
<!-- Node48 -->
<g id="node40" class="node">
<title>Node48</title>
<g id="a_node40"><a xlink:href="PointerVector_8hpp.html" target="_top" xlink:title="utils/PointerVector.hpp">
<polygon fill="#ffffff" stroke="#ff0000" points="793.9749,-313.5 793.9749,-332.5 909.9749,-332.5 909.9749,-313.5 793.9749,-313.5"/>
<text text-anchor="middle" x="851.9749" y="-320.5" font-family="Helvetica,sans-Serif" font-size="10.00" fill="#000000">utils/PointerVector.hpp</text>
</a>
</g>
</g>
<!-- Node1&#45;&gt;Node48 -->
<g id="edge70" class="edge">
<title>Node1&#45;&gt;Node48</title>
<path fill="none" stroke="#191970" d="M1265.1405,-375.4512C1202.1055,-367.9201 1050.7435,-349.6614 923.9749,-333 922.7081,-332.8335 921.4288,-332.6645 920.14,-332.4935"/>
<polygon fill="#191970" stroke="#191970" points="920.5004,-329.0106 910.1239,-331.1507 919.5702,-335.9485 920.5004,-329.0106"/>
</g>
<!-- Node10&#45;&gt;Node8 -->
<g id="edge12" class="edge">
<title>Node10&#45;&gt;Node8</title>
<path fill="none" stroke="#191970" d="M975.2598,-251.7373C999.5144,-227.5534 1055.7841,-163.8727 1021.9749,-123 995.6493,-91.1743 870.9079,-81.1692 811.9654,-78.1885"/>
<polygon fill="#191970" stroke="#191970" points="811.9168,-74.6824 801.7638,-77.71 811.5888,-81.6747 811.9168,-74.6824"/>
</g>
<!-- Node10&#45;&gt;Node11 -->
<g id="edge11" class="edge">
<title>Node10&#45;&gt;Node11</title>
<path fill="none" stroke="#191970" d="M1014.0176,-256.6742C1135.3192,-244.7381 1447.2742,-214.0418 1553.7387,-203.5657"/>
<polygon fill="#191970" stroke="#191970" points="1554.3554,-207.022 1563.9646,-202.5594 1553.6699,-200.0556 1554.3554,-207.022"/>
</g>
<!-- Node10&#45;&gt;Node12 -->
<g id="edge13" class="edge">
<title>Node10&#45;&gt;Node12</title>
<path fill="none" stroke="#191970" d="M915.8314,-252.6885C851.4766,-241.1497 739.1592,-221.0112 673.5989,-209.2562"/>
<polygon fill="#191970" stroke="#191970" points="673.9536,-205.764 663.4928,-207.4442 672.7181,-212.6542 673.9536,-205.764"/>
</g>
<!-- Node12&#45;&gt;Node8 -->
<g id="edge20" class="edge">
<title>Node12&#45;&gt;Node8</title>
<path fill="none" stroke="#191970" d="M638.2113,-190.4037C652.8988,-181.5092 674.9258,-167.6318 692.9749,-154 718.5904,-134.6537 746.1358,-109.8295 763.4541,-93.6757"/>
<polygon fill="#191970" stroke="#191970" points="766.1934,-95.9043 771.081,-86.5041 761.3982,-90.8046 766.1934,-95.9043"/>
</g>
<!-- Node13 -->
<g id="node14" class="node">
<title>Node13</title>
<polygon fill="#ffffff" stroke="#bfbfbf" points="461.9749,-123.5 461.9749,-153.5 561.9749,-153.5 561.9749,-123.5 461.9749,-123.5"/>
<text text-anchor="start" x="469.9749" y="-141.5" font-family="Helvetica,sans-Serif" font-size="10.00" fill="#000000">boost/preprocessor</text>
<text text-anchor="middle" x="511.9749" y="-130.5" font-family="Helvetica,sans-Serif" font-size="10.00" fill="#000000">/control/if.hpp</text>
</g>
<!-- Node12&#45;&gt;Node13 -->
<g id="edge14" class="edge">
<title>Node12&#45;&gt;Node13</title>
<path fill="none" stroke="#191970" d="M604.7874,-190.3906C589.5557,-181.8747 566.8247,-169.166 547.671,-158.4573"/>
<polygon fill="#191970" stroke="#191970" points="549.3204,-155.3697 538.884,-153.5446 545.9044,-161.4796 549.3204,-155.3697"/>
</g>
<!-- Node14 -->
<g id="node15" class="node">
<title>Node14</title>
<polygon fill="#ffffff" stroke="#bfbfbf" points="579.9749,-123.5 579.9749,-153.5 683.9749,-153.5 683.9749,-123.5 579.9749,-123.5"/>
<text text-anchor="start" x="587.9749" y="-141.5" font-family="Helvetica,sans-Serif" font-size="10.00" fill="#000000">boost/preprocessor</text>
<text text-anchor="middle" x="631.9749" y="-130.5" font-family="Helvetica,sans-Serif" font-size="10.00" fill="#000000">/facilities/empty.hpp</text>
</g>
<!-- Node12&#45;&gt;Node14 -->
<g id="edge15" class="edge">
<title>Node12&#45;&gt;Node14</title>
<path fill="none" stroke="#191970" d="M623.5374,-190.3906C624.7029,-183.2234 626.3512,-173.0862 627.8821,-163.671"/>
<polygon fill="#191970" stroke="#191970" points="631.3783,-163.9767 629.5287,-153.5446 624.469,-162.8532 631.3783,-163.9767"/>
</g>
<!-- Node15 -->
<g id="node16" class="node">
<title>Node15</title>
<polygon fill="#ffffff" stroke="#bfbfbf" points="308.9749,-.5 308.9749,-30.5 410.9749,-30.5 410.9749,-.5 308.9749,-.5"/>
<text text-anchor="start" x="316.9749" y="-18.5" font-family="Helvetica,sans-Serif" font-size="10.00" fill="#000000">boost/preprocessor</text>
<text text-anchor="middle" x="359.9749" y="-7.5" font-family="Helvetica,sans-Serif" font-size="10.00" fill="#000000">/seq/for_each_i.hpp</text>
</g>
<!-- Node12&#45;&gt;Node15 -->
<g id="edge16" class="edge">
<title>Node12&#45;&gt;Node15</title>
<path fill="none" stroke="#191970" d="M580.1873,-198.1289C452.5983,-192.2162 75.6613,-173.1876 57.9749,-154 31.7683,-125.5689 33.0372,-96.5503 57.9749,-67 73.3282,-48.8069 214.9108,-30.8724 298.6576,-21.7329"/>
<polygon fill="#191970" stroke="#191970" points="299.2548,-25.1888 308.8214,-20.6358 298.5035,-18.2293 299.2548,-25.1888"/>
</g>
<!-- Node16 -->
<g id="node17" class="node">
<title>Node16</title>
<polygon fill="#ffffff" stroke="#bfbfbf" points="942.9749,-.5 942.9749,-30.5 1042.9749,-30.5 1042.9749,-.5 942.9749,-.5"/>
<text text-anchor="start" x="950.9749" y="-18.5" font-family="Helvetica,sans-Serif" font-size="10.00" fill="#000000">boost/preprocessor</text>
<text text-anchor="middle" x="992.9749" y="-7.5" font-family="Helvetica,sans-Serif" font-size="10.00" fill="#000000">/stringize.hpp</text>
</g>
<!-- Node12&#45;&gt;Node16 -->
<g id="edge17" class="edge">
<title>Node12&#45;&gt;Node16</title>
<path fill="none" stroke="#191970" d="M580.213,-198.9042C472.9833,-195.6619 194.4283,-184.3688 166.9749,-154 157.7355,-143.7794 157.883,-133.3519 166.9749,-123 217.555,-65.4106 750.8715,-29.4788 932.6665,-18.8304"/>
<polygon fill="#191970" stroke="#191970" points="933.0702,-22.313 942.8504,-18.2389 932.6642,-15.3247 933.0702,-22.313"/>
</g>
<!-- Node17 -->
<g id="node18" class="node">
<title>Node17</title>
<polygon fill="#ffffff" stroke="#bfbfbf" points="1317.9749,-.5 1317.9749,-30.5 1421.9749,-30.5 1421.9749,-.5 1317.9749,-.5"/>
<text text-anchor="start" x="1325.9749" y="-18.5" font-family="Helvetica,sans-Serif" font-size="10.00" fill="#000000">boost/preprocessor</text>
<text text-anchor="middle" x="1369.9749" y="-7.5" font-family="Helvetica,sans-Serif" font-size="10.00" fill="#000000">/variadic/to_seq.hpp</text>
</g>
<!-- Node12&#45;&gt;Node17 -->
<g id="edge18" class="edge">
<title>Node12&#45;&gt;Node17</title>
<path fill="none" stroke="#191970" d="M663.7615,-192.9754C706.3461,-185.3126 774.0422,-171.7342 830.9749,-154 865.804,-143.151 872.2088,-134.0491 906.9749,-123 1047.8245,-78.2364 1218.2082,-43.4912 1307.8644,-26.6558"/>
<polygon fill="#191970" stroke="#191970" points="1308.6762,-30.0648 1317.8643,-24.7895 1307.3919,-23.1836 1308.6762,-30.0648"/>
</g>
<!-- Node18 -->
<g id="node19" class="node">
<title>Node18</title>
<polygon fill="#ffffff" stroke="#bfbfbf" points="175.9749,-129 175.9749,-148 299.9749,-148 299.9749,-129 175.9749,-129"/>
<text text-anchor="middle" x="237.9749" y="-136" font-family="Helvetica,sans-Serif" font-size="10.00" fill="#000000">boost/vmd/is_empty.hpp</text>
</g>
<!-- Node12&#45;&gt;Node18 -->
<g id="edge19" class="edge">
<title>Node12&#45;&gt;Node18</title>
<path fill="none" stroke="#191970" d="M580.3087,-194.807C520.1847,-187.1028 405.6929,-171.6426 308.9749,-154 302.7031,-152.8559 296.1409,-151.5596 289.6473,-150.2157"/>
<polygon fill="#191970" stroke="#191970" points="290.0592,-146.7254 279.5513,-148.0797 288.6103,-153.5738 290.0592,-146.7254"/>
</g>
<!-- Node19 -->
<g id="node20" class="node">
<title>Node19</title>
<g id="a_node20"><a xlink:href="Tracer_8hpp.html" target="_top" xlink:title="logging/Tracer.hpp">
<polygon fill="#ffffff" stroke="#000000" points="916.4749,-129 916.4749,-148 1013.4749,-148 1013.4749,-129 916.4749,-129"/>
<text text-anchor="middle" x="964.9749" y="-136" font-family="Helvetica,sans-Serif" font-size="10.00" fill="#000000">logging/Tracer.hpp</text>
</a>
</g>
</g>
<!-- Node12&#45;&gt;Node19 -->
<g id="edge21" class="edge">
<title>Node12&#45;&gt;Node19</title>
<path fill="none" stroke="#191970" d="M663.6906,-192.5204C724.44,-181.628 837.5113,-161.3543 906.5291,-148.9794"/>
<polygon fill="#191970" stroke="#191970" points="907.1557,-152.4229 916.381,-147.2129 905.9202,-145.5328 907.1557,-152.4229"/>
</g>
<!-- Node20 -->
<g id="node21" class="node">
<title>Node20</title>
<polygon fill="#ffffff" stroke="#bfbfbf" points="318.4749,-129 318.4749,-148 443.4749,-148 443.4749,-129 318.4749,-129"/>
<text text-anchor="middle" x="380.9749" y="-136" font-family="Helvetica,sans-Serif" font-size="10.00" fill="#000000">prettyprint/prettyprint.hpp</text>
</g>
<!-- Node12&#45;&gt;Node20 -->
<g id="edge23" class="edge">
<title>Node12&#45;&gt;Node20</title>
<path fill="none" stroke="#191970" d="M584.5831,-190.4581C542.546,-179.7308 474.1989,-162.2895 428.4304,-150.61"/>
<polygon fill="#191970" stroke="#191970" points="429.0094,-147.1457 418.4545,-148.0643 427.2785,-153.9283 429.0094,-147.1457"/>
</g>
<!-- Node21 -->
<g id="node22" class="node">
<title>Node21</title>
<g id="a_node22"><a xlink:href="String_8hpp.html" target="_top" xlink:title="utils/String.hpp">
<polygon fill="#ffffff" stroke="#ff0000" points="739.9749,-129 739.9749,-148 821.9749,-148 821.9749,-129 739.9749,-129"/>
<text text-anchor="middle" x="780.9749" y="-136" font-family="Helvetica,sans-Serif" font-size="10.00" fill="#000000">utils/String.hpp</text>
</a>
</g>
</g>
<!-- Node12&#45;&gt;Node21 -->
<g id="edge24" class="edge">
<title>Node12&#45;&gt;Node21</title>
<path fill="none" stroke="#191970" d="M646.8187,-190.3906C673.6557,-180.0103 716.5983,-163.4004 746.6502,-151.7766"/>
<polygon fill="#191970" stroke="#191970" points="748.2416,-154.9138 756.3057,-148.0419 745.7164,-148.3851 748.2416,-154.9138"/>
</g>
<!-- Node19&#45;&gt;Node10 -->
<g id="edge22" class="edge">
<title>Node19&#45;&gt;Node10</title>
<path fill="none" stroke="#191970" d="M964.9749,-148.1068C964.9749,-168.186 964.9749,-214.9497 964.9749,-241.7305"/>
<polygon fill="#191970" stroke="#191970" points="961.475,-241.8484 964.9749,-251.8484 968.475,-241.8484 961.475,-241.8484"/>
</g>
<!-- Node21&#45;&gt;Node8 -->
<g id="edge25" class="edge">
<title>Node21&#45;&gt;Node8</title>
<path fill="none" stroke="#191970" d="M780.9749,-128.8906C780.9749,-120.3657 780.9749,-107.6392 780.9749,-96.9235"/>
<polygon fill="#191970" stroke="#191970" points="784.475,-96.7448 780.9749,-86.7449 777.475,-96.7449 784.475,-96.7448"/>
</g>
<!-- Node23&#45;&gt;Node2 -->
<g id="edge27" class="edge">
<title>Node23&#45;&gt;Node2</title>
<path fill="none" stroke="#191970" d="M1251.0618,-313.3073C1251.5304,-298.2523 1253.8023,-268.6283 1263.9749,-246 1278.3616,-213.9979 1331.9426,-139.3739 1362.9749,-123 1387.0982,-110.2716 1777.8791,-86.9314 1909.2657,-79.4065"/>
<polygon fill="#191970" stroke="#191970" points="1909.5726,-82.8947 1919.3569,-78.8304 1909.1736,-75.9061 1909.5726,-82.8947"/>
</g>
<!-- Node23&#45;&gt;Node5 -->
<g id="edge28" class="edge">
<title>Node23&#45;&gt;Node5</title>
<path fill="none" stroke="#191970" d="M1262.6937,-313.3906C1274.2937,-303.8786 1292.2729,-289.1357 1306.107,-277.7917"/>
<polygon fill="#191970" stroke="#191970" points="1308.5776,-280.2921 1314.091,-271.2449 1304.139,-274.8792 1308.5776,-280.2921"/>
</g>
<!-- Node23&#45;&gt;Node9 -->
<g id="edge29" class="edge">
<title>Node23&#45;&gt;Node9</title>
<path fill="none" stroke="#191970" d="M1238.0062,-313.3906C1224.9715,-303.7324 1204.6585,-288.6812 1189.2594,-277.271"/>
<polygon fill="#191970" stroke="#191970" points="1190.9711,-274.1832 1180.8526,-271.0419 1186.8036,-279.8075 1190.9711,-274.1832"/>
</g>
<!-- Node23&#45;&gt;Node10 -->
<g id="edge30" class="edge">
<title>Node23&#45;&gt;Node10</title>
<path fill="none" stroke="#191970" d="M1206.6012,-313.4581C1156.086,-302.5956 1073.5562,-284.8488 1019.2503,-273.1711"/>
<polygon fill="#191970" stroke="#191970" points="1019.9651,-269.7449 1009.4527,-271.0643 1018.4934,-276.5884 1019.9651,-269.7449"/>
</g>
<!-- Node23&#45;&gt;Node24 -->
<g id="edge31" class="edge">
<title>Node23&#45;&gt;Node24</title>
<path fill="none" stroke="#191970" d="M1253.2117,-313.4463C1257.7116,-296.5895 1269.583,-261.8538 1293.9749,-246 1312.5017,-233.9584 1613.7373,-212.3583 1740.9653,-203.7195"/>
<polygon fill="#191970" stroke="#191970" points="1741.5317,-207.1893 1751.2726,-203.0222 1741.0592,-200.2053 1741.5317,-207.1893"/>
</g>
<!-- Node24&#45;&gt;Node2 -->
<g id="edge32" class="edge">
<title>Node24&#45;&gt;Node2</title>
<path fill="none" stroke="#191970" d="M1798.4497,-190.3301C1801.3974,-174.2175 1809.4915,-141.7946 1828.9749,-123 1850.8483,-101.9 1883.2934,-90.3015 1909.3693,-84.0305"/>
<polygon fill="#191970" stroke="#191970" points="1910.3754,-87.3924 1919.3772,-81.8051 1908.8559,-80.5593 1910.3754,-87.3924"/>
</g>
<!-- Node25 -->
<g id="node25" class="node">
<title>Node25</title>
<polygon fill="#ffffff" stroke="#bfbfbf" points="1922.9749,-6 1922.9749,-25 1976.9749,-25 1976.9749,-6 1922.9749,-6"/>
<text text-anchor="middle" x="1949.9749" y="-13" font-family="Helvetica,sans-Serif" font-size="10.00" fill="#000000">iostream</text>
</g>
<!-- Node24&#45;&gt;Node25 -->
<g id="edge33" class="edge">
<title>Node24&#45;&gt;Node25</title>
<path fill="none" stroke="#191970" d="M1795.7752,-190.245C1794.3684,-174.8468 1793.6068,-144.455 1805.9749,-123 1831.8244,-78.159 1884.6467,-46.2895 1918.6259,-29.4111"/>
<polygon fill="#191970" stroke="#191970" points="1920.1842,-32.5454 1927.672,-25.0498 1917.1442,-26.24 1920.1842,-32.5454"/>
</g>
<!-- Node24&#45;&gt;Node26 -->
<g id="edge34" class="edge">
<title>Node24&#45;&gt;Node26</title>
<path fill="none" stroke="#191970" d="M1842.6191,-197.0544C2009.0766,-186.3124 2581.0008,-149.4044 2719.5619,-140.4626"/>
<polygon fill="#191970" stroke="#191970" points="2720.0952,-143.9356 2729.849,-139.7988 2719.6443,-136.9501 2720.0952,-143.9356"/>
</g>
<!-- Node27 -->
<g id="node27" class="node">
<title>Node27</title>
<g id="a_node27"><a xlink:href="differences_8hpp.html" target="_top" xlink:title="math/differences.hpp">
<polygon fill="#ffffff" stroke="#000000" points="1837.9749,-129 1837.9749,-148 1945.9749,-148 1945.9749,-129 1837.9749,-129"/>
<text text-anchor="middle" x="1891.9749" y="-136" font-family="Helvetica,sans-Serif" font-size="10.00" fill="#000000">math/differences.hpp</text>
</a>
</g>
</g>
<!-- Node24&#45;&gt;Node27 -->
<g id="edge35" class="edge">
<title>Node24&#45;&gt;Node27</title>
<path fill="none" stroke="#191970" d="M1811.8187,-190.3906C1827.0168,-180.5519 1850.8598,-165.1167 1868.5956,-153.6351"/>
<polygon fill="#191970" stroke="#191970" points="1870.7429,-156.4144 1877.2354,-148.0419 1866.9389,-150.5382 1870.7429,-156.4144"/>
</g>
<!-- Node24&#45;&gt;Node28 -->
<g id="edge42" class="edge">
<title>Node24&#45;&gt;Node28</title>
<path fill="none" stroke="#191970" d="M1773.5129,-190.3484C1720.5669,-168.5679 1591.6953,-115.5538 1530.8351,-90.5177"/>
<polygon fill="#191970" stroke="#191970" points="1531.9076,-87.1744 1521.328,-86.6068 1529.2445,-93.648 1531.9076,-87.1744"/>
</g>
<!-- Node27&#45;&gt;Node2 -->
<g id="edge36" class="edge">
<title>Node27&#45;&gt;Node2</title>
<path fill="none" stroke="#191970" d="M1901.3499,-128.8906C1910.4549,-119.5581 1924.4724,-105.1902 1935.4507,-93.9374"/>
<polygon fill="#191970" stroke="#191970" points="1937.9897,-96.3468 1942.4678,-86.7449 1932.9793,-91.4586 1937.9897,-96.3468"/>
</g>
<!-- Node27&#45;&gt;Node28 -->
<g id="edge37" class="edge">
<title>Node27&#45;&gt;Node28</title>
<path fill="none" stroke="#191970" d="M1837.6046,-130.0133C1763.8119,-118.4948 1632.4714,-97.9937 1556.5589,-86.1445"/>
<polygon fill="#191970" stroke="#191970" points="1556.6472,-82.6159 1546.227,-84.5317 1555.5675,-89.5322 1556.6472,-82.6159"/>
</g>
<!-- Node28&#45;&gt;Node15 -->
<g id="edge39" class="edge">
<title>Node28&#45;&gt;Node15</title>
<path fill="none" stroke="#191970" d="M1449.8034,-74.3967C1267.9863,-64.5709 623.5056,-29.7418 421.1991,-18.8087"/>
<polygon fill="#191970" stroke="#191970" points="421.2267,-15.3052 411.0524,-18.2603 420.8489,-22.295 421.2267,-15.3052"/>
</g>
<!-- Node28&#45;&gt;Node16 -->
<g id="edge40" class="edge">
<title>Node28&#45;&gt;Node16</title>
<path fill="none" stroke="#191970" d="M1449.5534,-71.1031C1356.8289,-59.8109 1154.4359,-35.1631 1053.1797,-22.8319"/>
<polygon fill="#191970" stroke="#191970" points="1053.4634,-19.3406 1043.1136,-21.606 1052.6171,-26.2893 1053.4634,-19.3406"/>
</g>
<!-- Node28&#45;&gt;Node17 -->
<g id="edge41" class="edge">
<title>Node28&#45;&gt;Node17</title>
<path fill="none" stroke="#191970" d="M1477.9749,-67.3906C1459.9299,-58.7205 1432.8398,-45.7046 1410.3061,-34.8779"/>
<polygon fill="#191970" stroke="#191970" points="1411.8166,-31.7206 1401.2873,-30.5446 1408.7851,-38.0302 1411.8166,-31.7206"/>
</g>
<!-- Node28&#45;&gt;Node25 -->
<g id="edge38" class="edge">
<title>Node28&#45;&gt;Node25</title>
<path fill="none" stroke="#191970" d="M1546.3469,-70.4184C1637.0165,-58.0817 1830.7298,-31.7247 1912.413,-20.6108"/>
<polygon fill="#191970" stroke="#191970" points="1913.2814,-24.0249 1922.7182,-19.2086 1912.3376,-17.0888 1913.2814,-24.0249"/>
</g>
<!-- Node36&#45;&gt;Node2 -->
<g id="edge44" class="edge">
<title>Node36&#45;&gt;Node2</title>
<path fill="none" stroke="#191970" d="M256.9385,-313.4401C219.1496,-282.359 108.7591,-182.7354 166.9749,-123 167.9565,-121.9928 1636.5963,-84.9454 1908.838,-78.0863"/>
<polygon fill="#191970" stroke="#191970" points="1909.1936,-81.5786 1919.1022,-77.8278 1909.0172,-74.5808 1909.1936,-81.5786"/>
</g>
<!-- Node36&#45;&gt;Node8 -->
<g id="edge46" class="edge">
<title>Node36&#45;&gt;Node8</title>
<path fill="none" stroke="#191970" d="M227.3874,-314.3759C191.9739,-306.0887 145.1074,-292.5543 133.9749,-277 94.1397,-221.3422 87.3251,-173.0843 133.9749,-123 155.2297,-100.1804 624.2485,-82.4067 750.1212,-78.0355"/>
<polygon fill="#191970" stroke="#191970" points="750.3594,-81.5295 760.2331,-77.6877 750.1187,-74.5336 750.3594,-81.5295"/>
</g>
<!-- Node36&#45;&gt;Node10 -->
<g id="edge47" class="edge">
<title>Node36&#45;&gt;Node10</title>
<path fill="none" stroke="#191970" d="M310.6867,-319.3143C429.0194,-308.8581 767.1862,-278.977 905.2111,-266.7809"/>
<polygon fill="#191970" stroke="#191970" points="905.9306,-270.231 915.5837,-265.8643 905.3144,-263.2582 905.9306,-270.231"/>
</g>
<!-- Node37 -->
<g id="node30" class="node">
<title>Node37</title>
<polygon fill="#ffffff" stroke="#bfbfbf" points="29.9749,-252 29.9749,-271 81.9749,-271 81.9749,-252 29.9749,-252"/>
<text text-anchor="middle" x="55.9749" y="-259" font-family="Helvetica,sans-Serif" font-size="10.00" fill="#000000">stddef.h</text>
</g>
<!-- Node36&#45;&gt;Node37 -->
<g id="edge45" class="edge">
<title>Node36&#45;&gt;Node37</title>
<path fill="none" stroke="#191970" d="M228.0587,-313.4653C192.7687,-304.9228 140.5973,-291.5295 95.9749,-277 93.7044,-276.2607 91.3751,-275.4634 89.0375,-274.6343"/>
<polygon fill="#191970" stroke="#191970" points="90.1028,-271.2967 79.5096,-271.1137 87.6766,-277.8628 90.1028,-271.2967"/>
</g>
<!-- Node38&#45;&gt;Node2 -->
<g id="edge49" class="edge">
<title>Node38&#45;&gt;Node2</title>
<path fill="none" stroke="#191970" d="M2058.1754,-251.7468C2058.1929,-227.5845 2055.2614,-163.9494 2025.9749,-123 2016.0855,-109.1722 2000.6178,-98.6201 1986.3755,-91.1325"/>
<polygon fill="#191970" stroke="#191970" points="1987.7821,-87.924 1977.264,-86.651 1984.6926,-94.2053 1987.7821,-87.924"/>
</g>
<!-- Node38&#45;&gt;Node24 -->
<g id="edge53" class="edge">
<title>Node38&#45;&gt;Node24</title>
<path fill="none" stroke="#191970" d="M2017.4801,-251.9581C1971.6674,-241.1632 1897.0012,-223.5694 1847.4343,-211.8899"/>
<polygon fill="#191970" stroke="#191970" points="1848.101,-208.4512 1837.5648,-209.5643 1846.4955,-215.2646 1848.101,-208.4512"/>
</g>
<!-- Node38&#45;&gt;Node25 -->
<g id="edge51" class="edge">
<title>Node38&#45;&gt;Node25</title>
<path fill="none" stroke="#191970" d="M2060.7059,-251.7261C2063.4277,-241.44 2067.4195,-224.7292 2068.9749,-210 2073.1524,-170.4428 2067.7901,-157.4903 2047.9749,-123 2026.8911,-86.3014 1991.413,-51.5815 1969.4228,-31.9773"/>
<polygon fill="#191970" stroke="#191970" points="1971.5438,-29.1825 1961.7133,-25.2313 1966.9342,-34.4505 1971.5438,-29.1825"/>
</g>
<!-- Node38&#45;&gt;Node27 -->
<g id="edge52" class="edge">
<title>Node38&#45;&gt;Node27</title>
<path fill="none" stroke="#191970" d="M2044.9492,-251.8484C2016.3423,-230.6517 1947.8122,-179.8734 1913.0152,-154.0901"/>
<polygon fill="#191970" stroke="#191970" points="1915.0586,-151.2481 1904.9402,-148.1068 1910.8912,-156.8724 1915.0586,-151.2481"/>
</g>
<!-- Node38&#45;&gt;Node28 -->
<g id="edge54" class="edge">
<title>Node38&#45;&gt;Node28</title>
<path fill="none" stroke="#191970" d="M2054.1879,-251.961C2043.3029,-225.9607 2009.1932,-153.7441 1954.9749,-123 1921.0138,-103.7425 1671.567,-87.0287 1556.2012,-80.2367"/>
<polygon fill="#191970" stroke="#191970" points="1556.3186,-76.7376 1546.1317,-79.649 1555.9107,-83.7258 1556.3186,-76.7376"/>
</g>
<!-- Node38&#45;&gt;Node39 -->
<g id="edge50" class="edge">
<title>Node38&#45;&gt;Node39</title>
<path fill="none" stroke="#191970" d="M2100.524,-253.9589C2171.8866,-241.311 2313.9134,-216.1391 2375.4293,-205.2365"/>
<polygon fill="#191970" stroke="#191970" points="2376.3707,-208.6243 2385.6064,-203.4328 2375.149,-201.7317 2376.3707,-208.6243"/>
</g>
<!-- Node40&#45;&gt;Node11 -->
<g id="edge56" class="edge">
<title>Node40&#45;&gt;Node11</title>
<path fill="none" stroke="#191970" d="M1680.7624,-313.3617C1666.4703,-305.1291 1646.7536,-292.221 1632.9749,-277 1617.3176,-259.7037 1605.0651,-235.7178 1597.7114,-219.1336"/>
<polygon fill="#191970" stroke="#191970" points="1600.9144,-217.7218 1593.7791,-209.89 1594.4731,-220.4621 1600.9144,-217.7218"/>
</g>
<!-- Node41&#45;&gt;Node2 -->
<g id="edge58" class="edge">
<title>Node41&#45;&gt;Node2</title>
<path fill="none" stroke="#191970" d="M2051.1547,-313.4095C2036.4427,-305.6017 2017.3838,-293.2228 2005.9749,-277 1966.0383,-220.212 1955.6262,-135.3518 1952.9203,-97.0412"/>
<polygon fill="#191970" stroke="#191970" points="1956.3944,-96.502 1952.3038,-86.7287 1949.4069,-96.9198 1956.3944,-96.502"/>
</g>
<!-- Node41&#45;&gt;Node25 -->
<g id="edge61" class="edge">
<title>Node41&#45;&gt;Node25</title>
<path fill="none" stroke="#191970" d="M2083.1252,-313.3293C2092.042,-304.8007 2103.8671,-291.5 2108.9749,-277 2126.1737,-228.177 2085.399,-153.4012 2069.9749,-123 2056.0185,-95.4914 2051.3704,-88.212 2028.9749,-67 2013.5733,-52.4122 1993.5247,-39.3983 1977.4785,-30.1021"/>
<polygon fill="#191970" stroke="#191970" points="1978.9888,-26.9357 1968.5587,-25.0745 1975.5516,-33.0338 1978.9888,-26.9357"/>
</g>
<!-- Node41&#45;&gt;Node27 -->
<g id="edge62" class="edge">
<title>Node41&#45;&gt;Node27</title>
<path fill="none" stroke="#191970" d="M2023.1371,-315.2406C2018.3518,-314.4825 2013.5692,-313.7257 2008.9749,-313 1958.092,-304.9621 1813.4531,-316.1522 1779.9749,-277 1735.0757,-224.491 1842.6328,-217.9241 1850.9749,-210 1866.4009,-195.347 1877.7387,-173.5954 1884.5335,-157.9341"/>
<polygon fill="#191970" stroke="#191970" points="1887.9578,-158.8074 1888.5061,-148.2267 1881.4793,-156.1561 1887.9578,-158.8074"/>
</g>
<!-- Node41&#45;&gt;Node28 -->
<g id="edge65" class="edge">
<title>Node41&#45;&gt;Node28</title>
<path fill="none" stroke="#191970" d="M2023.1437,-315.198C2018.3571,-314.4485 2013.5724,-313.7054 2008.9749,-313 1901.0591,-296.4419 1866.7846,-318.9215 1765.9749,-277 1710.2454,-253.825 1568.2497,-136.3599 1516.8832,-93.0589"/>
<polygon fill="#191970" stroke="#191970" points="1519.0743,-90.3281 1509.1776,-86.5457 1514.5555,-95.6742 1519.0743,-90.3281"/>
</g>
<!-- Node41&#45;&gt;Node38 -->
<g id="edge63" class="edge">
<title>Node41&#45;&gt;Node38</title>
<path fill="none" stroke="#191970" d="M2069.7874,-313.3906C2067.8264,-304.776 2064.8886,-291.8708 2062.4335,-281.0858"/>
<polygon fill="#191970" stroke="#191970" points="2065.8257,-280.2185 2060.1933,-271.2449 2059.0003,-281.7723 2065.8257,-280.2185"/>
</g>
<!-- Node41&#45;&gt;Node39 -->
<g id="edge60" class="edge">
<title>Node41&#45;&gt;Node39</title>
<path fill="none" stroke="#191970" d="M2087.8616,-313.4684C2114.9502,-297.5596 2172.1815,-265.4293 2223.9749,-246 2276.0565,-226.4626 2339.6237,-212.452 2375.8903,-205.3352"/>
<polygon fill="#191970" stroke="#191970" points="2376.6357,-208.7561 2385.7948,-203.4305 2375.3137,-201.8821 2376.6357,-208.7561"/>
</g>
<!-- Node41&#45;&gt;Node42 -->
<g id="edge59" class="edge">
<title>Node41&#45;&gt;Node42</title>
<path fill="none" stroke="#191970" d="M2120.6583,-314.2528C2123.8064,-313.7966 2126.9324,-313.3734 2129.9749,-313 2346.2737,-286.4554 2407.0481,-327.7622 2618.9749,-277 2621.6143,-276.3678 2624.3074,-275.5689 2626.9768,-274.6688"/>
<polygon fill="#191970" stroke="#191970" points="2628.3008,-277.9098 2636.402,-271.0818 2625.811,-271.3676 2628.3008,-277.9098"/>
</g>
<!-- Node43 -->
<g id="node36" class="node">
<title>Node43</title>
<g id="a_node36"><a xlink:href="RangeAccessor_8hpp.html" target="_top" xlink:title="mesh/RangeAccessor.hpp">
<polygon fill="#ffffff" stroke="#ff0000" points="1788.9749,-252 1788.9749,-271 1920.9749,-271 1920.9749,-252 1788.9749,-252"/>
<text text-anchor="middle" x="1854.9749" y="-259" font-family="Helvetica,sans-Serif" font-size="10.00" fill="#000000">mesh/RangeAccessor.hpp</text>
</a>
</g>
</g>
<!-- Node41&#45;&gt;Node43 -->
<g id="edge64" class="edge">
<title>Node41&#45;&gt;Node43</title>
<path fill="none" stroke="#191970" d="M2038.0687,-313.3906C2000.407,-302.7169 1939.5048,-285.4566 1898.3864,-273.8033"/>
<polygon fill="#191970" stroke="#191970" points="1899.2186,-270.4013 1888.6431,-271.0419 1897.3098,-277.1361 1899.2186,-270.4013"/>
</g>
<!-- Node46 -->
<g id="node38" class="node">
<title>Node46</title>
<polygon fill="#ffffff" stroke="#bfbfbf" points="1442.9749,-246.5 1442.9749,-276.5 1542.9749,-276.5 1542.9749,-246.5 1442.9749,-246.5"/>
<text text-anchor="start" x="1450.9749" y="-264.5" font-family="Helvetica,sans-Serif" font-size="10.00" fill="#000000">boost/container/flat</text>
<text text-anchor="middle" x="1492.9749" y="-253.5" font-family="Helvetica,sans-Serif" font-size="10.00" fill="#000000">_set.hpp</text>
</g>
<!-- Node45&#45;&gt;Node46 -->
<g id="edge68" class="edge">
<title>Node45&#45;&gt;Node46</title>
<path fill="none" stroke="#191970" d="M1509.0062,-313.3906C1506.7681,-306.1463 1503.5927,-295.8679 1500.6576,-286.3676"/>
<polygon fill="#191970" stroke="#191970" points="1503.9188,-285.0659 1497.6229,-276.5446 1497.2307,-287.1322 1503.9188,-285.0659"/>
</g>
<!-- Node45&#45;&gt;Node47 -->
<g id="edge69" class="edge">
<title>Node45&#45;&gt;Node47</title>
<path fill="none" stroke="#191970" d="M1580.637,-316.5891C1596.193,-315.2736 1612.6446,-313.99 1627.9749,-313 1999.5449,-289.0045 2094.0875,-309.9019 2464.9749,-277 2490.094,-274.7717 2518.1435,-271.0166 2540.252,-267.7606"/>
<polygon fill="#191970" stroke="#191970" points="2540.9027,-271.2023 2550.2738,-266.2593 2539.8656,-264.2795 2540.9027,-271.2023"/>
</g>
<!-- Node48&#45;&gt;Node9 -->
<g id="edge71" class="edge">
<title>Node48&#45;&gt;Node9</title>
<path fill="none" stroke="#191970" d="M910.1768,-314.213C985.9208,-302.6579 1111.1128,-283.1053 1131.9749,-277 1134.1505,-276.3633 1136.3695,-275.6299 1138.5837,-274.8356"/>
<polygon fill="#191970" stroke="#191970" points="1140.0943,-278.0023 1148.1115,-271.0759 1137.5248,-271.4909 1140.0943,-278.0023"/>
</g>
<!-- Node48&#45;&gt;Node28 -->
<g id="edge72" class="edge">
<title>Node48&#45;&gt;Node28</title>
<path fill="none" stroke="#191970" d="M910.3745,-315.2124C956.022,-308.1152 1020.628,-295.8302 1074.9749,-277 1104.0852,-266.9139 1109.2439,-259.4211 1136.9749,-246 1259.0715,-186.9086 1405.8357,-119.2287 1467.9119,-90.7555"/>
<polygon fill="#191970" stroke="#191970" points="1469.4988,-93.8783 1477.1309,-86.5297 1466.582,-87.515 1469.4988,-93.8783"/>
</g>
<!-- Node53&#45;&gt;Node1 -->
<g id="edge92" class="edge">
<title>Node53&#45;&gt;Node1</title>
<path fill="none" stroke="#191970" d="M1963.5375,-437.738C1849.9433,-427.7579 1460.8222,-393.5709 1334.7469,-382.4943"/>
<polygon fill="#191970" stroke="#191970" points="1335.0177,-379.0046 1324.7497,-381.6159 1334.405,-385.9778 1335.0177,-379.0046"/>
</g>
<!-- Node53&#45;&gt;Node2 -->
<g id="edge86" class="edge">
<title>Node53&#45;&gt;Node2</title>
<path fill="none" stroke="#191970" d="M1993.3555,-430.6185C1990.6625,-416.2094 1984.2978,-388.9762 1971.9749,-369 1953.3295,-338.7745 1946.0247,-330.238 1914.9749,-313 1855.411,-279.9316 1816.6534,-322.5311 1765.9749,-277 1742.4458,-255.8607 1747.3881,-241.1639 1741.9749,-210 1728.3046,-131.2992 1844.1871,-96.8755 1909.426,-83.8443"/>
<polygon fill="#191970" stroke="#191970" points="1910.268,-87.2469 1919.434,-81.9331 1908.9549,-80.3711 1910.268,-87.2469"/>
</g>
<!-- Node53&#45;&gt;Node5 -->
<g id="edge88" class="edge">
<title>Node53&#45;&gt;Node5</title>
<path fill="none" stroke="#191970" d="M1985.1481,-430.8044C1955.5391,-401.6374 1868.737,-316.488 1860.9749,-313 1774.1162,-273.9684 1528.5896,-287.7686 1433.9749,-277 1408.6973,-274.123 1380.2161,-269.9984 1358.8505,-266.7272"/>
<polygon fill="#191970" stroke="#191970" points="1359.0982,-263.224 1348.6804,-265.1524 1358.027,-270.1415 1359.0982,-263.224"/>
</g>
<!-- Node53&#45;&gt;Node7 -->
<g id="edge89" class="edge">
<title>Node53&#45;&gt;Node7</title>
<path fill="none" stroke="#191970" d="M1975.1934,-430.9023C1956.3869,-421.3872 1927.6809,-405.8305 1904.9749,-389 1885.0087,-374.2003 1864.6041,-354.3076 1851.0161,-340.2423"/>
<polygon fill="#191970" stroke="#191970" points="1853.2862,-337.5505 1843.8582,-332.7168 1848.2141,-342.3748 1853.2862,-337.5505"/>
</g>
<!-- Node53&#45;&gt;Node11 -->
<g id="edge90" class="edge">
<title>Node53&#45;&gt;Node11</title>
<path fill="none" stroke="#191970" d="M1990.2423,-430.9254C1977.4348,-406.1976 1939.4276,-340.2346 1885.9749,-313 1799.6485,-269.0159 1757.6605,-320.2721 1670.9749,-277 1656.0326,-269.541 1624.5585,-237.2946 1605.5433,-216.9706"/>
<polygon fill="#191970" stroke="#191970" points="1608.0649,-214.5425 1598.6972,-209.5931 1602.9338,-219.304 1608.0649,-214.5425"/>
</g>
<!-- Node53&#45;&gt;Node40 -->
<g id="edge93" class="edge">
<title>Node53&#45;&gt;Node40</title>
<path fill="none" stroke="#191970" d="M1971.0028,-430.984C1918.4621,-410.1275 1793.0441,-360.3416 1732.6321,-336.3605"/>
<polygon fill="#191970" stroke="#191970" points="1733.7567,-333.0413 1723.1709,-332.6048 1731.174,-339.5475 1733.7567,-333.0413"/>
</g>
<!-- Node53&#45;&gt;Node41 -->
<g id="edge94" class="edge">
<title>Node53&#45;&gt;Node41</title>
<path fill="none" stroke="#191970" d="M2001.2762,-430.8845C2014.0794,-411.3471 2043.3237,-366.7211 2059.9101,-341.4106"/>
<polygon fill="#191970" stroke="#191970" points="2063.0329,-343.0309 2065.5866,-332.7484 2057.1781,-339.194 2063.0329,-343.0309"/>
</g>
<!-- Node53&#45;&gt;Node52 -->
<g id="edge91" class="edge">
<title>Node53&#45;&gt;Node52</title>
<path fill="none" stroke="#191970" d="M2026.061,-439.4914C2113.3342,-436.2852 2367.8232,-424.3643 2575.9749,-389 2675.87,-372.0282 2707.8136,-381.1385 2796.9749,-333 2822.303,-319.3253 2845.8467,-295.6049 2860.3019,-279.2587"/>
<polygon fill="#191970" stroke="#191970" points="2863.1285,-281.3397 2866.9939,-271.4752 2857.8205,-276.7761 2863.1285,-281.3397"/>
</g>
<!-- Node54 -->
<g id="node45" class="node">
<title>Node54</title>
<polygon fill="#ffffff" stroke="#bfbfbf" points="2233.4749,-252 2233.4749,-271 2336.4749,-271 2336.4749,-252 2233.4749,-252"/>
<text text-anchor="middle" x="2284.9749" y="-259" font-family="Helvetica,sans-Serif" font-size="10.00" fill="#000000">boost/geometry.hpp</text>
</g>
<!-- Node53&#45;&gt;Node54 -->
<g id="edge87" class="edge">
<title>Node53&#45;&gt;Node54</title>
<path fill="none" stroke="#191970" d="M2026.0879,-433.9362C2095.6939,-418.5553 2260.3641,-378.0595 2291.9749,-333 2302.5673,-317.9012 2298.587,-296.3886 2293.3351,-280.9099"/>
<polygon fill="#191970" stroke="#191970" points="2296.504,-279.398 2289.6594,-271.3108 2289.9669,-281.9012 2296.504,-279.398"/>
</g>
<!-- Node55 -->
<g id="node46" class="node">
<title>Node55</title>
<g id="a_node46"><a xlink:href="RTreeAdapter_8hpp.html" target="_top" xlink:title="mesh/impl/RTreeAdapter.hpp">
<polygon fill="#ffffff" stroke="#000000" points="2138.9749,-313.5 2138.9749,-332.5 2282.9749,-332.5 2282.9749,-313.5 2138.9749,-313.5"/>
<text text-anchor="middle" x="2210.9749" y="-320.5" font-family="Helvetica,sans-Serif" font-size="10.00" fill="#000000">mesh/impl/RTreeAdapter.hpp</text>
</a>
</g>
</g>
<!-- Node53&#45;&gt;Node55 -->
<g id="edge95" class="edge">
<title>Node53&#45;&gt;Node55</title>
<path fill="none" stroke="#191970" d="M2012.6511,-430.8845C2050.5594,-410.2631 2139.8476,-361.692 2184.5335,-337.3837"/>
<polygon fill="#191970" stroke="#191970" points="2186.2456,-340.4367 2193.3575,-332.5836 2182.9005,-334.2876 2186.2456,-340.4367"/>
</g>
<!-- Node55&#45;&gt;Node2 -->
<g id="edge96" class="edge">
<title>Node55&#45;&gt;Node2</title>
<path fill="none" stroke="#191970" d="M2205.3344,-313.4044C2186.592,-282.2141 2123.294,-182.2938 2047.9749,-123 2030.4154,-109.1765 2008.0253,-98.1488 1989.2859,-90.3599"/>
<polygon fill="#191970" stroke="#191970" points="1990.4485,-87.0553 1979.8641,-86.5844 1987.8447,-93.553 1990.4485,-87.0553"/>
</g>
<!-- Node55&#45;&gt;Node24 -->
<g id="edge99" class="edge">
<title>Node55&#45;&gt;Node24</title>
<path fill="none" stroke="#191970" d="M2157.2369,-313.4848C2115.5038,-305.4873 2056.4387,-292.8325 2005.9749,-277 1971.1682,-266.0797 1964.1143,-258.8556 1929.9749,-246 1898.4477,-234.128 1862.2986,-221.7001 1835.6527,-212.7592"/>
<polygon fill="#191970" stroke="#191970" points="1836.5288,-209.3618 1825.9351,-209.5116 1834.3101,-216.0008 1836.5288,-209.3618"/>
</g>
<!-- Node55&#45;&gt;Node38 -->
<g id="edge98" class="edge">
<title>Node55&#45;&gt;Node38</title>
<path fill="none" stroke="#191970" d="M2187.0687,-313.3906C2161.2444,-303.0103 2119.9223,-286.4004 2091.0044,-274.7766"/>
<polygon fill="#191970" stroke="#191970" points="2092.2972,-271.5241 2081.7133,-271.0419 2089.6864,-278.019 2092.2972,-271.5241"/>
</g>
<!-- Node55&#45;&gt;Node54 -->
<g id="edge97" class="edge">
<title>Node55&#45;&gt;Node54</title>
<path fill="none" stroke="#191970" d="M2222.5374,-313.3906C2233.9828,-303.8786 2251.7223,-289.1357 2265.3719,-277.7917"/>
<polygon fill="#191970" stroke="#191970" points="2267.7958,-280.3283 2273.2494,-271.2449 2263.3216,-274.9447 2267.7958,-280.3283"/>
</g>
<!-- Node56&#45;&gt;Node2 -->
<g id="edge103" class="edge">
<title>Node56&#45;&gt;Node2</title>
<path fill="none" stroke="#191970" d="M2392.7039,-251.6718C2360.2416,-226.192 2268.5826,-157.5862 2180.9749,-123 2118.7325,-98.4277 2041.5802,-86.4205 1994.6029,-80.9895"/>
<polygon fill="#191970" stroke="#191970" points="1994.8062,-77.4907 1984.4814,-79.8676 1994.0349,-84.4481 1994.8062,-77.4907"/>
</g>
<!-- Node56&#45;&gt;Node27 -->
<g id="edge105" class="edge">
<title>Node56&#45;&gt;Node27</title>
<path fill="none" stroke="#191970" d="M2369.4499,-251.9909C2361.7219,-249.9716 2353.5826,-247.8824 2345.9749,-246 2277.3227,-229.0133 2259.8114,-226.2242 2190.9749,-210 2103.0701,-189.2816 2000.7404,-164.7141 1941.4601,-150.4376"/>
<polygon fill="#191970" stroke="#191970" points="1942.1568,-147.0054 1931.6152,-148.066 1940.5173,-153.8107 1942.1568,-147.0054"/>
</g>
<!-- Node56&#45;&gt;Node28 -->
<g id="edge106" class="edge">
<title>Node56&#45;&gt;Node28</title>
<path fill="none" stroke="#191970" d="M2382.4246,-251.9756C2320.6333,-226.3274 2142.8816,-155.5538 1987.9749,-123 1834.3944,-90.7248 1648.9602,-81.0835 1556.437,-78.2119"/>
<polygon fill="#191970" stroke="#191970" points="1556.2595,-74.7052 1546.1607,-77.9091 1556.0533,-81.7022 1556.2595,-74.7052"/>
</g>
<!-- Node56&#45;&gt;Node39 -->
<g id="edge104" class="edge">
<title>Node56&#45;&gt;Node39</title>
<path fill="none" stroke="#191970" d="M2404.9749,-251.8906C2404.9749,-243.3657 2404.9749,-230.6392 2404.9749,-219.9235"/>
<polygon fill="#191970" stroke="#191970" points="2408.475,-219.7448 2404.9749,-209.7449 2401.475,-219.7449 2408.475,-219.7448"/>
</g>
<!-- Node57&#45;&gt;Node2 -->
<g id="edge109" class="edge">
<title>Node57&#45;&gt;Node2</title>
<path fill="none" stroke="#191970" d="M2495.2854,-369.4765C2503.8033,-349.7595 2521.9749,-302.8508 2521.9749,-261.5 2521.9749,-261.5 2521.9749,-261.5 2521.9749,-200 2521.9749,-146.0963 2127.4437,-96.7485 1994.8509,-81.686"/>
<polygon fill="#191970" stroke="#191970" points="1994.997,-78.1803 1984.6679,-80.5382 1994.2129,-85.1363 1994.997,-78.1803"/>
</g>
<!-- Node57&#45;&gt;Node9 -->
<g id="edge111" class="edge">
<title>Node57&#45;&gt;Node9</title>
<path fill="none" stroke="#191970" d="M2414.8875,-372.4623C2320.6744,-364.1829 2155.333,-349.0504 2013.9749,-333 1945.8343,-325.263 1929.2331,-319.6208 1860.9749,-313 1609.6471,-288.622 1545.3934,-300.4252 1293.9749,-277 1262.1001,-274.0301 1225.8334,-269.4406 1200.4198,-266.0253"/>
<polygon fill="#191970" stroke="#191970" points="1200.6174,-262.5201 1190.2372,-264.6417 1199.6749,-269.4564 1200.6174,-262.5201"/>
</g>
<!-- Node57&#45;&gt;Node28 -->
<g id="edge119" class="edge">
<title>Node57&#45;&gt;Node28</title>
<path fill="none" stroke="#191970" d="M2491.6266,-369.2851C2493.1918,-336.945 2493.2512,-232.5715 2432.9749,-190 2398.6699,-165.7713 2102.6197,-128.4386 2060.9749,-123 1877.6472,-99.0582 1659.0055,-85.4322 1556.4854,-79.9126"/>
<polygon fill="#191970" stroke="#191970" points="1556.5117,-76.4092 1546.3398,-79.3725 1556.1395,-83.3993 1556.5117,-76.4092"/>
</g>
<!-- Node58 -->
<g id="node49" class="node">
<title>Node58</title>
<polygon fill="#ffffff" stroke="#bfbfbf" points="2778.4749,-252 2778.4749,-271 2825.4749,-271 2825.4749,-252 2778.4749,-252"/>
<text text-anchor="middle" x="2801.9749" y="-259" font-family="Helvetica,sans-Serif" font-size="10.00" fill="#000000">iterator</text>
</g>
<!-- Node57&#45;&gt;Node58 -->
<g id="edge110" class="edge">
<title>Node57&#45;&gt;Node58</title>
<path fill="none" stroke="#191970" d="M2567.0863,-375.2971C2640.5009,-370.2425 2744.9327,-358.6738 2775.9749,-333 2791.3569,-320.2782 2797.6388,-297.6594 2800.2042,-281.2621"/>
<polygon fill="#191970" stroke="#191970" points="2803.7068,-281.4544 2801.4526,-271.1021 2796.759,-280.6006 2803.7068,-281.4544"/>
</g>
<!-- Node59 -->
<g id="node50" class="node">
<title>Node59</title>
<g id="a_node50"><a xlink:href="algorithm_8hpp.html" target="_top" xlink:title="utils/algorithm.hpp">
<polygon fill="#ffffff" stroke="#000000" points="2670.9749,-313.5 2670.9749,-332.5 2766.9749,-332.5 2766.9749,-313.5 2670.9749,-313.5"/>
<text text-anchor="middle" x="2718.9749" y="-320.5" font-family="Helvetica,sans-Serif" font-size="10.00" fill="#000000">utils/algorithm.hpp</text>
</a>
</g>
</g>
<!-- Node57&#45;&gt;Node59 -->
<g id="edge112" class="edge">
<title>Node57&#45;&gt;Node59</title>
<path fill="none" stroke="#191970" d="M2529.9105,-369.4369C2568.767,-359.8932 2628.5679,-345.2052 2670.4838,-334.9101"/>
<polygon fill="#191970" stroke="#191970" points="2671.3235,-338.308 2680.2,-332.5237 2669.6538,-331.51 2671.3235,-338.308"/>
</g>
<!-- Node59&#45;&gt;Node26 -->
<g id="edge118" class="edge">
<title>Node59&#45;&gt;Node26</title>
<path fill="none" stroke="#191970" d="M2720.598,-313.3402C2725.4841,-284.26 2740.1228,-197.136 2746.7054,-157.959"/>
<polygon fill="#191970" stroke="#191970" points="2750.1625,-158.5059 2748.368,-148.0641 2743.2593,-157.3459 2750.1625,-158.5059"/>
</g>
<!-- Node59&#45;&gt;Node39 -->
<g id="edge114" class="edge">
<title>Node59&#45;&gt;Node39</title>
<path fill="none" stroke="#191970" d="M2718.7493,-313.4756C2717.8067,-296.9808 2713.3406,-263.2155 2692.9749,-246 2654.2389,-213.2557 2499.7416,-203.5895 2434.3983,-200.9342"/>
<polygon fill="#191970" stroke="#191970" points="2434.475,-197.4347 2424.3495,-200.5531 2434.2097,-204.4297 2434.475,-197.4347"/>
</g>
<!-- Node59&#45;&gt;Node42 -->
<g id="edge113" class="edge">
<title>Node59&#45;&gt;Node42</title>
<path fill="none" stroke="#191970" d="M2709.1312,-313.3906C2699.571,-304.0581 2684.8527,-289.6902 2673.3254,-278.4374"/>
<polygon fill="#191970" stroke="#191970" points="2675.5581,-275.7257 2665.9575,-271.2449 2670.6684,-280.7348 2675.5581,-275.7257"/>
</g>
<!-- Node59&#45;&gt;Node47 -->
<g id="edge115" class="edge">
<title>Node59&#45;&gt;Node47</title>
<path fill="none" stroke="#191970" d="M2697.2562,-313.3906C2674.101,-303.1457 2637.2308,-286.8326 2611.0158,-275.2339"/>
<polygon fill="#191970" stroke="#191970" points="2612.1022,-271.8874 2601.5412,-271.0419 2609.2699,-278.2888 2612.1022,-271.8874"/>
</g>
<!-- Node59&#45;&gt;Node52 -->
<g id="edge117" class="edge">
<title>Node59&#45;&gt;Node52</title>
<path fill="none" stroke="#191970" d="M2743.3499,-313.3906C2769.6806,-303.0103 2811.8129,-286.4004 2841.2978,-274.7766"/>
<polygon fill="#191970" stroke="#191970" points="2842.7516,-277.9657 2850.7711,-271.0419 2840.1843,-271.4534 2842.7516,-277.9657"/>
</g>
<!-- Node59&#45;&gt;Node58 -->
<g id="edge116" class="edge">
<title>Node59&#45;&gt;Node58</title>
<path fill="none" stroke="#191970" d="M2731.9437,-313.3906C2744.9784,-303.7324 2765.2914,-288.6812 2780.6905,-277.271"/>
<polygon fill="#191970" stroke="#191970" points="2783.1462,-279.8075 2789.0973,-271.0419 2778.9788,-274.1832 2783.1462,-279.8075"/>
</g>
</g>
</svg>
