<?xml version="1.0" encoding="UTF-8" standalone="no"?>
<!DOCTYPE svg PUBLIC "-//W3C//DTD SVG 1.1//EN"
 "http://www.w3.org/Graphics/SVG/1.1/DTD/svg11.dtd">
<!-- Generated by graphviz version 2.40.1 (20161225.0304)
 -->
<!-- Title: src/mesh/config/MeshConfiguration.cpp Pages: 1 -->
<!--zoomable 610 -->
<svg id="main" version="1.1" xmlns="http://www.w3.org/2000/svg" xmlns:xlink="http://www.w3.org/1999/xlink" xml:space="preserve" onload="init(evt)">
<style type="text/css"><![CDATA[
.edge:hover path { stroke: red; }
.edge:hover polygon { stroke: red; fill: red; }
]]></style>
<script type="text/javascript"><![CDATA[
var edges = document.getElementsByTagName('g');
if (edges && edges.length) {
  for (var i=0;i<edges.length;i++) {
    if (edges[i].id.substr(0,4)=='edge') {
      edges[i].setAttribute('class','edge');
    }
  }
}
]]></script>
        <defs>
                <circle id="rim" cx="0" cy="0" r="7"/>
                <circle id="rim2" cx="0" cy="0" r="3.5"/>
                <g id="zoomPlus">
                        <use xlink:href="#rim" fill="#404040">
                                <set attributeName="fill" to="#808080" begin="zoomplus.mouseover" end="zoomplus.mouseout"/>
                        </use>
                        <path d="M-4,0h8M0,-4v8" fill="none" stroke="white" stroke-width="1.5" pointer-events="none"/>
                </g>
                <g id="zoomMin">
                        <use xlink:href="#rim" fill="#404040">
                                <set attributeName="fill" to="#808080" begin="zoomminus.mouseover" end="zoomminus.mouseout"/>
                        </use>
                        <path d="M-4,0h8" fill="none" stroke="white" stroke-width="1.5" pointer-events="none"/>
                </g>
                <g id="dirArrow">
                        <path fill="none" stroke="white" stroke-width="1.5" d="M0,-3.0v7 M-2.5,-0.5L0,-3.0L2.5,-0.5"/>
                </g>
               <g id="resetDef">
                       <use xlink:href="#rim2" fill="#404040">
                               <set attributeName="fill" to="#808080" begin="reset.mouseover" end="reset.mouseout"/>
                       </use>
               </g>
        </defs>

<script type="text/javascript">
var viewWidth = 2594;
var viewHeight = 610;
var sectionId = 'dynsection-0';
</script>
<script xlink:href="svgpan.js"/>
<svg id="graph" class="graph">
<g id="viewport">
<title>src/mesh/config/MeshConfiguration.cpp</title>
<polygon fill="#ffffff" stroke="transparent" points="-4,4 -4,-606 2589.5127,-606 2589.5127,4 -4,4"/>
<!-- Node0 -->
<g id="node1" class="node">
<title>Node0</title>
<polygon fill="#bfbfbf" stroke="#000000" points="1216.5127,-582.5 1216.5127,-601.5 1423.5127,-601.5 1423.5127,-582.5 1216.5127,-582.5"/>
<text text-anchor="middle" x="1320.0127" y="-589.5" font-family="Helvetica,sans-Serif" font-size="10.00" fill="#000000">src/mesh/config/MeshConfiguration.cpp</text>
</g>
<!-- Node1 -->
<g id="node2" class="node">
<title>Node1</title>
<g id="a_node2"><a xlink:href="MeshConfiguration_8hpp.html" target="_top" xlink:title="MeshConfiguration.hpp">
<polygon fill="#ffffff" stroke="#000000" points="284.0127,-470.5 284.0127,-489.5 412.0127,-489.5 412.0127,-470.5 284.0127,-470.5"/>
<text text-anchor="middle" x="348.0127" y="-477.5" font-family="Helvetica,sans-Serif" font-size="10.00" fill="#000000">MeshConfiguration.hpp</text>
</a>
</g>
</g>
<!-- Node0&#45;&gt;Node1 -->
<g id="edge1" class="edge">
<title>Node0&#45;&gt;Node1</title>
<path fill="none" stroke="#191970" d="M1216.3788,-589.2253C1086.0107,-584.7151 855.5257,-573.3577 660.0127,-546 565.159,-532.7274 456.0288,-507.2545 395.2307,-492.1309"/>
<polygon fill="#191970" stroke="#191970" points="395.727,-488.6472 385.1764,-489.6144 394.0273,-495.4377 395.727,-488.6472"/>
</g>
<!-- Node9 -->
<g id="node10" class="node">
<title>Node9</title>
<g id="a_node10"><a xlink:href="LogMacros_8hpp.html" target="_top" xlink:title="LogMacros.hpp">
<polygon fill="#ffffff" stroke="#000000" points="1672.5127,-123.5 1672.5127,-142.5 1761.5127,-142.5 1761.5127,-123.5 1672.5127,-123.5"/>
<text text-anchor="middle" x="1717.0127" y="-130.5" font-family="Helvetica,sans-Serif" font-size="10.00" fill="#000000">LogMacros.hpp</text>
</a>
</g>
</g>
<!-- Node0&#45;&gt;Node9 -->
<g id="edge71" class="edge">
<title>Node0&#45;&gt;Node9</title>
<path fill="none" stroke="#191970" d="M1423.7828,-585.3234C1619.255,-571.6849 2026.2656,-537.8262 2068.0127,-490 2130.4265,-418.4976 1840.8235,-282.9155 1822.0127,-266 1782.2898,-230.2796 1746.0892,-178.3148 1728.4007,-151.1241"/>
<polygon fill="#191970" stroke="#191970" points="1731.2841,-149.1366 1722.9407,-142.6068 1725.391,-152.9144 1731.2841,-149.1366"/>
</g>
<!-- Node19 -->
<g id="node20" class="node">
<title>Node19</title>
<polygon fill="#ffffff" stroke="#bfbfbf" points="2407.0127,-.5 2407.0127,-19.5 2463.0127,-19.5 2463.0127,-.5 2407.0127,-.5"/>
<text text-anchor="middle" x="2435.0127" y="-7.5" font-family="Helvetica,sans-Serif" font-size="10.00" fill="#000000">sstream</text>
</g>
<!-- Node0&#45;&gt;Node19 -->
<g id="edge69" class="edge">
<title>Node0&#45;&gt;Node19</title>
<path fill="none" stroke="#191970" d="M1423.8901,-588.4159C1619.2075,-581.3465 2034.3511,-564.6628 2177.0127,-546 2318.8442,-527.4458 2492.0127,-623.04 2492.0127,-480 2492.0127,-480 2492.0127,-480 2492.0127,-133 2492.0127,-92.2759 2465.9725,-50.411 2449.0934,-27.552"/>
<polygon fill="#191970" stroke="#191970" points="2451.7923,-25.3194 2442.9383,-19.5006 2446.2312,-29.5708 2451.7923,-25.3194"/>
</g>
<!-- Node27 -->
<g id="node26" class="node">
<title>Node27</title>
<g id="a_node26"><a xlink:href="ConfigParser_8hpp.html" target="_top" xlink:title="xml/ConfigParser.hpp">
<polygon fill="#ffffff" stroke="#000000" points="393.5127,-358.5 393.5127,-377.5 512.5127,-377.5 512.5127,-358.5 393.5127,-358.5"/>
<text text-anchor="middle" x="453.0127" y="-365.5" font-family="Helvetica,sans-Serif" font-size="10.00" fill="#000000">xml/ConfigParser.hpp</text>
</a>
</g>
</g>
<!-- Node0&#45;&gt;Node27 -->
<g id="edge129" class="edge">
<title>Node0&#45;&gt;Node27</title>
<path fill="none" stroke="#191970" d="M1216.3505,-589.2626C1067.1153,-584.5508 783.25,-572.7078 543.0127,-546 389.9315,-528.9816 350.9394,-525.2905 201.0127,-490 119.0461,-470.7063 69.9874,-501.7738 20.0127,-434 -27.0236,-370.2112 281.2965,-386.73 383.3008,-377.9708"/>
<polygon fill="#191970" stroke="#191970" points="383.7401,-381.4442 393.3303,-376.9412 383.0251,-374.4808 383.7401,-381.4442"/>
</g>
<!-- Node28 -->
<g id="node27" class="node">
<title>Node28</title>
<g id="a_node27"><a xlink:href="XMLAttribute_8hpp.html" target="_top" xlink:title="xml/XMLAttribute.hpp">
<polygon fill="#ffffff" stroke="#ff0000" points="759.0127,-358.5 759.0127,-377.5 881.0127,-377.5 881.0127,-358.5 759.0127,-358.5"/>
<text text-anchor="middle" x="820.0127" y="-365.5" font-family="Helvetica,sans-Serif" font-size="10.00" fill="#000000">xml/XMLAttribute.hpp</text>
</a>
</g>
</g>
<!-- Node0&#45;&gt;Node28 -->
<g id="edge130" class="edge">
<title>Node0&#45;&gt;Node28</title>
<path fill="none" stroke="#191970" d="M1275.4372,-582.4724C1211.4427,-567.8067 1090.8061,-536.4427 996.0127,-490 934.3667,-459.7975 870.0893,-409.6972 839.0448,-384.1133"/>
<polygon fill="#191970" stroke="#191970" points="841.125,-381.291 831.1997,-377.5844 836.6472,-386.6715 841.125,-381.291"/>
</g>
<!-- Node33 -->
<g id="node29" class="node">
<title>Node33</title>
<g id="a_node29"><a xlink:href="assertion_8hpp.html" target="_top" xlink:title="utils/assertion.hpp">
<polygon fill="#ffffff" stroke="#000000" points="2005.5127,-302.5 2005.5127,-321.5 2112.5127,-321.5 2112.5127,-302.5 2005.5127,-302.5"/>
<text text-anchor="middle" x="2059.0127" y="-309.5" font-family="Helvetica,sans-Serif" font-size="10.00" fill="#000000">utils/assertion.hpp</text>
</a>
</g>
</g>
<!-- Node0&#45;&gt;Node33 -->
<g id="edge128" class="edge">
<title>Node0&#45;&gt;Node33</title>
<path fill="none" stroke="#191970" d="M1423.6014,-589.8515C1629.1115,-585.0555 2074.2291,-571.814 2139.0127,-546 2181.1987,-529.1904 2217.0127,-525.4117 2217.0127,-480 2217.0127,-480 2217.0127,-480 2217.0127,-424 2217.0127,-370.0084 2154.8471,-339.6835 2108.5037,-324.5781"/>
<polygon fill="#191970" stroke="#191970" points="2109.4711,-321.2136 2098.8827,-321.5827 2107.3902,-327.8972 2109.4711,-321.2136"/>
</g>
<!-- Node43 -->
<g id="node37" class="node">
<title>Node43</title>
<polygon fill="#ffffff" stroke="#bfbfbf" points="2520.5127,-526.5 2520.5127,-545.5 2585.5127,-545.5 2585.5127,-526.5 2520.5127,-526.5"/>
<text text-anchor="middle" x="2553.0127" y="-533.5" font-family="Helvetica,sans-Serif" font-size="10.00" fill="#000000">stdexcept</text>
</g>
<!-- Node0&#45;&gt;Node43 -->
<g id="edge70" class="edge">
<title>Node0&#45;&gt;Node43</title>
<path fill="none" stroke="#191970" d="M1423.8603,-590.25C1672.7851,-585.687 2298.2197,-571.9421 2506.0127,-546 2507.3165,-545.8372 2508.6377,-545.6566 2509.9694,-545.461"/>
<polygon fill="#191970" stroke="#191970" points="2510.9906,-548.8378 2520.2641,-543.7141 2509.8194,-541.9365 2510.9906,-548.8378"/>
</g>
<!-- Node44 -->
<g id="node38" class="node">
<title>Node44</title>
<g id="a_node38"><a xlink:href="Data_8hpp.html" target="_top" xlink:title="mesh/Data.hpp">
<polygon fill="#ffffff" stroke="#000000" points="1386.5127,-414.5 1386.5127,-433.5 1477.5127,-433.5 1477.5127,-414.5 1386.5127,-414.5"/>
<text text-anchor="middle" x="1432.0127" y="-421.5" font-family="Helvetica,sans-Serif" font-size="10.00" fill="#000000">mesh/Data.hpp</text>
</a>
</g>
</g>
<!-- Node0&#45;&gt;Node44 -->
<g id="edge72" class="edge">
<title>Node0&#45;&gt;Node44</title>
<path fill="none" stroke="#191970" d="M1326.3552,-582.4862C1344.3663,-555.4695 1396.0523,-477.9405 1419.8059,-442.3102"/>
<polygon fill="#191970" stroke="#191970" points="1422.8259,-444.0899 1425.4607,-433.8279 1417.0015,-440.2069 1422.8259,-444.0899"/>
</g>
<!-- Node46 -->
<g id="node40" class="node">
<title>Node46</title>
<g id="a_node40"><a xlink:href="Mesh_8hpp.html" target="_top" xlink:title="mesh/Mesh.hpp">
<polygon fill="#ffffff" stroke="#000000" points="1496.5127,-526.5 1496.5127,-545.5 1589.5127,-545.5 1589.5127,-526.5 1496.5127,-526.5"/>
<text text-anchor="middle" x="1543.0127" y="-533.5" font-family="Helvetica,sans-Serif" font-size="10.00" fill="#000000">mesh/Mesh.hpp</text>
</a>
</g>
</g>
<!-- Node0&#45;&gt;Node46 -->
<g id="edge77" class="edge">
<title>Node0&#45;&gt;Node46</title>
<path fill="none" stroke="#191970" d="M1358.0943,-582.4369C1396.0185,-572.9133 1454.3416,-558.2672 1495.3252,-547.9753"/>
<polygon fill="#191970" stroke="#191970" points="1496.2417,-551.3539 1505.088,-545.5237 1494.5367,-544.5647 1496.2417,-551.3539"/>
</g>
<!-- Node59 -->
<g id="node48" class="node">
<title>Node59</title>
<g id="a_node48"><a xlink:href="DataConfiguration_8hpp.html" target="_top" xlink:title="mesh/config/DataConfiguration.hpp">
<polygon fill="#ffffff" stroke="#000000" points="1005.0127,-470.5 1005.0127,-489.5 1193.0127,-489.5 1193.0127,-470.5 1005.0127,-470.5"/>
<text text-anchor="middle" x="1099.0127" y="-477.5" font-family="Helvetica,sans-Serif" font-size="10.00" fill="#000000">mesh/config/DataConfiguration.hpp</text>
</a>
</g>
</g>
<!-- Node0&#45;&gt;Node59 -->
<g id="edge116" class="edge">
<title>Node0&#45;&gt;Node59</title>
<path fill="none" stroke="#191970" d="M1301.1703,-582.4509C1262.1899,-562.6961 1172.5278,-517.2565 1126.8523,-494.1088"/>
<polygon fill="#191970" stroke="#191970" points="1128.3094,-490.9235 1117.8073,-489.5249 1125.145,-497.1674 1128.3094,-490.9235"/>
</g>
<!-- Node60 -->
<g id="node49" class="node">
<title>Node60</title>
<g id="a_node49"><a xlink:href="Helpers_8hpp.html" target="_top" xlink:title="utils/Helpers.hpp">
<polygon fill="#ffffff" stroke="#000000" points="276.5127,-358.5 276.5127,-377.5 375.5127,-377.5 375.5127,-358.5 276.5127,-358.5"/>
<text text-anchor="middle" x="326.0127" y="-365.5" font-family="Helvetica,sans-Serif" font-size="10.00" fill="#000000">utils/Helpers.hpp</text>
</a>
</g>
</g>
<!-- Node0&#45;&gt;Node60 -->
<g id="edge122" class="edge">
<title>Node0&#45;&gt;Node60</title>
<path fill="none" stroke="#191970" d="M1216.2946,-588.6007C1006.0673,-581.4384 536.1167,-563.9699 376.0127,-546 233.835,-530.0421 182.9077,-561.5482 59.0127,-490 24.6205,-470.1389 -13.9552,-444.0492 12.0127,-414 28.3694,-395.0725 179.5566,-379.8488 266.0329,-372.5999"/>
<polygon fill="#191970" stroke="#191970" points="266.567,-376.0678 276.2446,-371.7558 265.9902,-369.0916 266.567,-376.0678"/>
</g>
<!-- Node2 -->
<g id="node3" class="node">
<title>Node2</title>
<polygon fill="#ffffff" stroke="#bfbfbf" points="332.0127,-414.5 332.0127,-433.5 364.0127,-433.5 364.0127,-414.5 332.0127,-414.5"/>
<text text-anchor="middle" x="348.0127" y="-421.5" font-family="Helvetica,sans-Serif" font-size="10.00" fill="#000000">list</text>
</g>
<!-- Node1&#45;&gt;Node2 -->
<g id="edge2" class="edge">
<title>Node1&#45;&gt;Node2</title>
<path fill="none" stroke="#191970" d="M348.0127,-470.2455C348.0127,-462.9382 348.0127,-452.6944 348.0127,-443.7046"/>
<polygon fill="#191970" stroke="#191970" points="351.5128,-443.6426 348.0127,-433.6427 344.5128,-443.6427 351.5128,-443.6426"/>
</g>
<!-- Node3 -->
<g id="node4" class="node">
<title>Node3</title>
<polygon fill="#ffffff" stroke="#bfbfbf" points="551.0127,-302.5 551.0127,-321.5 589.0127,-321.5 589.0127,-302.5 551.0127,-302.5"/>
<text text-anchor="middle" x="570.0127" y="-309.5" font-family="Helvetica,sans-Serif" font-size="10.00" fill="#000000">map</text>
</g>
<!-- Node1&#45;&gt;Node3 -->
<g id="edge3" class="edge">
<title>Node1&#45;&gt;Node3</title>
<path fill="none" stroke="#191970" d="M338.9723,-470.4786C326.9771,-456.6795 308.8734,-430.9266 323.0127,-414 380.6336,-345.0199 445.8845,-425.7799 522.0127,-378 539.9289,-366.7553 553.2733,-346.1789 561.2849,-330.9795"/>
<polygon fill="#191970" stroke="#191970" points="564.4701,-332.4342 565.774,-321.9199 558.1979,-329.3263 564.4701,-332.4342"/>
</g>
<!-- Node4 -->
<g id="node5" class="node">
<title>Node4</title>
<polygon fill="#ffffff" stroke="#bfbfbf" points="233.0127,-123.5 233.0127,-142.5 291.0127,-142.5 291.0127,-123.5 233.0127,-123.5"/>
<text text-anchor="middle" x="262.0127" y="-130.5" font-family="Helvetica,sans-Serif" font-size="10.00" fill="#000000">memory</text>
</g>
<!-- Node1&#45;&gt;Node4 -->
<g id="edge4" class="edge">
<title>Node1&#45;&gt;Node4</title>
<path fill="none" stroke="#191970" d="M322.6038,-470.4308C265.6604,-448.737 131.8642,-396.2855 120.0127,-378 90.6121,-332.6386 -97.106,-484.0512 140.0127,-179 159.7219,-153.6442 195.0562,-142.2644 222.6432,-137.1574"/>
<polygon fill="#191970" stroke="#191970" points="223.4877,-140.5657 232.7882,-135.4911 222.3531,-133.6582 223.4877,-140.5657"/>
</g>
<!-- Node5 -->
<g id="node6" class="node">
<title>Node5</title>
<polygon fill="#ffffff" stroke="#bfbfbf" points="983.0127,-.5 983.0127,-19.5 1027.0127,-19.5 1027.0127,-.5 983.0127,-.5"/>
<text text-anchor="middle" x="1005.0127" y="-7.5" font-family="Helvetica,sans-Serif" font-size="10.00" fill="#000000">string</text>
</g>
<!-- Node1&#45;&gt;Node5 -->
<g id="edge5" class="edge">
<title>Node1&#45;&gt;Node5</title>
<path fill="none" stroke="#191970" d="M283.9928,-474.7626C194.2014,-466.8575 39.5798,-450.9865 20.0127,-434 -3.038,-413.9895 1.0127,-398.5246 1.0127,-368 1.0127,-368 1.0127,-368 1.0127,-133 1.0127,-32.7482 799.8639,-13.4789 972.4117,-10.4861"/>
<polygon fill="#191970" stroke="#191970" points="972.6949,-13.982 982.635,-10.3154 972.5779,-6.9829 972.6949,-13.982"/>
</g>
<!-- Node6 -->
<g id="node7" class="node">
<title>Node6</title>
<polygon fill="#ffffff" stroke="#bfbfbf" points="993.5127,-302.5 993.5127,-321.5 1038.5127,-321.5 1038.5127,-302.5 993.5127,-302.5"/>
<text text-anchor="middle" x="1016.0127" y="-309.5" font-family="Helvetica,sans-Serif" font-size="10.00" fill="#000000">utility</text>
</g>
<!-- Node1&#45;&gt;Node6 -->
<g id="edge6" class="edge">
<title>Node1&#45;&gt;Node6</title>
<path fill="none" stroke="#191970" d="M412.4599,-472.4288C542.5374,-456.5218 831.8371,-417.8004 923.0127,-378 951.5486,-365.5434 980.1212,-343.4838 997.9164,-328.3209"/>
<polygon fill="#191970" stroke="#191970" points="1000.4997,-330.7122 1005.7391,-321.5035 995.9006,-325.435 1000.4997,-330.7122"/>
</g>
<!-- Node7 -->
<g id="node8" class="node">
<title>Node7</title>
<polygon fill="#ffffff" stroke="#bfbfbf" points="688.5127,-179.5 688.5127,-198.5 735.5127,-198.5 735.5127,-179.5 688.5127,-179.5"/>
<text text-anchor="middle" x="712.0127" y="-186.5" font-family="Helvetica,sans-Serif" font-size="10.00" fill="#000000">vector</text>
</g>
<!-- Node1&#45;&gt;Node7 -->
<g id="edge7" class="edge">
<title>Node1&#45;&gt;Node7</title>
<path fill="none" stroke="#191970" d="M332.6341,-470.4089C290.8331,-443.1728 181.3657,-363.3648 229.0127,-302 284.8125,-230.1351 577.5543,-199.9198 678.0823,-191.5592"/>
<polygon fill="#191970" stroke="#191970" points="678.6007,-195.0288 688.2849,-190.7314 678.0345,-188.0517 678.6007,-195.0288"/>
</g>
<!-- Node8 -->
<g id="node9" class="node">
<title>Node8</title>
<g id="a_node9"><a xlink:href="Logger_8hpp.html" target="_top" xlink:title="logging/Logger.hpp">
<polygon fill="#ffffff" stroke="#000000" points="1110.5127,-179.5 1110.5127,-198.5 1219.5127,-198.5 1219.5127,-179.5 1110.5127,-179.5"/>
<text text-anchor="middle" x="1165.0127" y="-186.5" font-family="Helvetica,sans-Serif" font-size="10.00" fill="#000000">logging/Logger.hpp</text>
</a>
</g>
</g>
<!-- Node1&#45;&gt;Node8 -->
<g id="edge8" class="edge">
<title>Node1&#45;&gt;Node8</title>
<path fill="none" stroke="#191970" d="M412.3237,-475.8585C492.6116,-469.9647 633.8909,-457.2068 753.0127,-434 844.0371,-416.267 868.7609,-414.497 954.0127,-378 1039.5928,-341.3624 1071.2879,-337.4088 1131.0127,-266 1145.1635,-249.0808 1154.447,-225.3454 1159.6836,-208.713"/>
<polygon fill="#191970" stroke="#191970" points="1163.0905,-209.533 1162.5508,-198.9519 1156.3743,-207.5601 1163.0905,-209.533"/>
</g>
<!-- Node20 -->
<g id="node21" class="node">
<title>Node20</title>
<g id="a_node21"><a xlink:href="mesh_2SharedPointer_8hpp.html" target="_top" xlink:title="mesh/SharedPointer.hpp">
<polygon fill="#ffffff" stroke="#000000" points="29.5127,-414.5 29.5127,-433.5 164.5127,-433.5 164.5127,-414.5 29.5127,-414.5"/>
<text text-anchor="middle" x="97.0127" y="-421.5" font-family="Helvetica,sans-Serif" font-size="10.00" fill="#000000">mesh/SharedPointer.hpp</text>
</a>
</g>
</g>
<!-- Node1&#45;&gt;Node20 -->
<g id="edge25" class="edge">
<title>Node1&#45;&gt;Node20</title>
<path fill="none" stroke="#191970" d="M305.1494,-470.4369C262.1025,-460.8328 195.7054,-446.0191 149.5217,-435.7152"/>
<polygon fill="#191970" stroke="#191970" points="150.2213,-432.2853 139.6991,-433.5237 148.697,-439.1173 150.2213,-432.2853"/>
</g>
<!-- Node21 -->
<g id="node22" class="node">
<title>Node21</title>
<g id="a_node22"><a xlink:href="ManageUniqueIDs_8hpp.html" target="_top" xlink:title="utils/ManageUniqueIDs.hpp">
<polygon fill="#ffffff" stroke="#ff0000" points="382.0127,-414.5 382.0127,-433.5 532.0127,-433.5 532.0127,-414.5 382.0127,-414.5"/>
<text text-anchor="middle" x="457.0127" y="-421.5" font-family="Helvetica,sans-Serif" font-size="10.00" fill="#000000">utils/ManageUniqueIDs.hpp</text>
</a>
</g>
</g>
<!-- Node1&#45;&gt;Node21 -->
<g id="edge27" class="edge">
<title>Node1&#45;&gt;Node21</title>
<path fill="none" stroke="#191970" d="M366.999,-470.2455C384.1919,-461.4125 409.7364,-448.2887 429.2259,-438.2758"/>
<polygon fill="#191970" stroke="#191970" points="430.9485,-441.3257 438.2439,-433.6427 427.7496,-435.0993 430.9485,-441.3257"/>
</g>
<!-- Node24 -->
<g id="node23" class="node">
<title>Node24</title>
<g id="a_node23"><a xlink:href="XMLTag_8hpp.html" target="_top" xlink:title="xml/XMLTag.hpp">
<polygon fill="#ffffff" stroke="#000000" points="550.5127,-414.5 550.5127,-433.5 645.5127,-433.5 645.5127,-414.5 550.5127,-414.5"/>
<text text-anchor="middle" x="598.0127" y="-421.5" font-family="Helvetica,sans-Serif" font-size="10.00" fill="#000000">xml/XMLTag.hpp</text>
</a>
</g>
</g>
<!-- Node1&#45;&gt;Node24 -->
<g id="edge28" class="edge">
<title>Node1&#45;&gt;Node24</title>
<path fill="none" stroke="#191970" d="M390.7051,-470.4369C433.5806,-460.8328 499.7131,-446.0191 545.7129,-435.7152"/>
<polygon fill="#191970" stroke="#191970" points="546.5032,-439.1249 555.4963,-433.5237 544.973,-432.2942 546.5032,-439.1249"/>
</g>
<!-- Node8&#45;&gt;Node4 -->
<g id="edge9" class="edge">
<title>Node8&#45;&gt;Node4</title>
<path fill="none" stroke="#191970" d="M1110.2228,-185.6022C943.5876,-175.2682 445.4773,-144.3777 301.4332,-135.4447"/>
<polygon fill="#191970" stroke="#191970" points="301.4925,-131.9417 291.295,-134.816 301.0591,-138.9283 301.4925,-131.9417"/>
</g>
<!-- Node8&#45;&gt;Node5 -->
<g id="edge10" class="edge">
<title>Node8&#45;&gt;Node5</title>
<path fill="none" stroke="#191970" d="M1150.8324,-179.438C1127.1055,-162.879 1078.9246,-126.7975 1048.0127,-87 1033.8361,-68.7484 1021.4286,-45.2518 1013.6321,-29.0398"/>
<polygon fill="#191970" stroke="#191970" points="1016.6088,-27.1425 1009.2024,-19.5665 1010.2678,-30.1076 1016.6088,-27.1425"/>
</g>
<!-- Node8&#45;&gt;Node9 -->
<g id="edge11" class="edge">
<title>Node8&#45;&gt;Node9</title>
<path fill="none" stroke="#191970" d="M1219.7047,-183.4515C1325.3965,-172.7292 1556.5748,-149.2763 1662.2905,-138.5515"/>
<polygon fill="#191970" stroke="#191970" points="1662.8291,-142.0149 1672.4248,-137.5234 1662.1226,-135.0507 1662.8291,-142.0149"/>
</g>
<!-- Node9&#45;&gt;Node5 -->
<g id="edge18" class="edge">
<title>Node9&#45;&gt;Node5</title>
<path fill="none" stroke="#191970" d="M1672.4454,-129.2711C1575.3871,-120.9458 1351.0101,-100.5163 1319.0127,-87 1298.9346,-78.5187 1300.8721,-64.9814 1281.0127,-56 1237.9163,-36.5098 1100.6816,-20.054 1037.4642,-13.2939"/>
<polygon fill="#191970" stroke="#191970" points="1037.5801,-9.7868 1027.2683,-12.2193 1036.8464,-16.7483 1037.5801,-9.7868"/>
</g>
<!-- Node10 -->
<g id="node11" class="node">
<title>Node10</title>
<polygon fill="#ffffff" stroke="#bfbfbf" points="1886.0127,-56.5 1886.0127,-86.5 1996.0127,-86.5 1996.0127,-56.5 1886.0127,-56.5"/>
<text text-anchor="start" x="1894.0127" y="-74.5" font-family="Helvetica,sans-Serif" font-size="10.00" fill="#000000">boost/preprocessor</text>
<text text-anchor="middle" x="1941.0127" y="-63.5" font-family="Helvetica,sans-Serif" font-size="10.00" fill="#000000">/control/if.hpp</text>
</g>
<!-- Node9&#45;&gt;Node10 -->
<g id="edge12" class="edge">
<title>Node9&#45;&gt;Node10</title>
<path fill="none" stroke="#191970" d="M1752.0127,-123.3906C1785.2055,-114.2774 1835.8867,-100.3627 1876.414,-89.2358"/>
<polygon fill="#191970" stroke="#191970" points="1877.4996,-92.5673 1886.2161,-86.5446 1875.6463,-85.8171 1877.4996,-92.5673"/>
</g>
<!-- Node11 -->
<g id="node12" class="node">
<title>Node11</title>
<polygon fill="#ffffff" stroke="#bfbfbf" points="1436.0127,-56.5 1436.0127,-86.5 1552.0127,-86.5 1552.0127,-56.5 1436.0127,-56.5"/>
<text text-anchor="start" x="1444.0127" y="-74.5" font-family="Helvetica,sans-Serif" font-size="10.00" fill="#000000">boost/preprocessor</text>
<text text-anchor="middle" x="1494.0127" y="-63.5" font-family="Helvetica,sans-Serif" font-size="10.00" fill="#000000">/facilities/empty.hpp</text>
</g>
<!-- Node9&#45;&gt;Node11 -->
<g id="edge13" class="edge">
<title>Node9&#45;&gt;Node11</title>
<path fill="none" stroke="#191970" d="M1682.1689,-123.3906C1649.1242,-114.2774 1598.6693,-100.3627 1558.323,-89.2358"/>
<polygon fill="#191970" stroke="#191970" points="1559.1352,-85.8292 1548.5646,-86.5446 1557.2742,-92.5773 1559.1352,-85.8292"/>
</g>
<!-- Node12 -->
<g id="node13" class="node">
<title>Node12</title>
<polygon fill="#ffffff" stroke="#bfbfbf" points="2014.5127,-56.5 2014.5127,-86.5 2125.5127,-86.5 2125.5127,-56.5 2014.5127,-56.5"/>
<text text-anchor="start" x="2022.5127" y="-74.5" font-family="Helvetica,sans-Serif" font-size="10.00" fill="#000000">boost/preprocessor</text>
<text text-anchor="middle" x="2070.0127" y="-63.5" font-family="Helvetica,sans-Serif" font-size="10.00" fill="#000000">/seq/for_each_i.hpp</text>
</g>
<!-- Node9&#45;&gt;Node12 -->
<g id="edge14" class="edge">
<title>Node9&#45;&gt;Node12</title>
<path fill="none" stroke="#191970" d="M1761.6025,-126.9463C1816.3681,-119.2751 1912.3001,-105.0738 2004.3587,-87.0395"/>
<polygon fill="#191970" stroke="#191970" points="2005.2732,-90.4265 2014.4042,-85.053 2003.9152,-83.5595 2005.2732,-90.4265"/>
</g>
<!-- Node13 -->
<g id="node14" class="node">
<title>Node13</title>
<polygon fill="#ffffff" stroke="#bfbfbf" points="2144.0127,-56.5 2144.0127,-86.5 2254.0127,-86.5 2254.0127,-56.5 2144.0127,-56.5"/>
<text text-anchor="start" x="2152.0127" y="-74.5" font-family="Helvetica,sans-Serif" font-size="10.00" fill="#000000">boost/preprocessor</text>
<text text-anchor="middle" x="2199.0127" y="-63.5" font-family="Helvetica,sans-Serif" font-size="10.00" fill="#000000">/stringize.hpp</text>
</g>
<!-- Node9&#45;&gt;Node13 -->
<g id="edge15" class="edge">
<title>Node9&#45;&gt;Node13</title>
<path fill="none" stroke="#191970" d="M1761.5127,-129.9835C1836.3961,-124.4988 1992.4635,-111.3149 2133.7993,-87.074"/>
<polygon fill="#191970" stroke="#191970" points="2134.696,-90.4707 2143.9487,-85.3095 2133.497,-83.5741 2134.696,-90.4707"/>
</g>
<!-- Node14 -->
<g id="node15" class="node">
<title>Node14</title>
<polygon fill="#ffffff" stroke="#bfbfbf" points="2272.5127,-56.5 2272.5127,-86.5 2387.5127,-86.5 2387.5127,-56.5 2272.5127,-56.5"/>
<text text-anchor="start" x="2280.5127" y="-74.5" font-family="Helvetica,sans-Serif" font-size="10.00" fill="#000000">boost/preprocessor</text>
<text text-anchor="middle" x="2330.0127" y="-63.5" font-family="Helvetica,sans-Serif" font-size="10.00" fill="#000000">/variadic/to_seq.hpp</text>
</g>
<!-- Node9&#45;&gt;Node14 -->
<g id="edge16" class="edge">
<title>Node9&#45;&gt;Node14</title>
<path fill="none" stroke="#191970" d="M1761.8601,-131.3979C1853.8824,-127.6415 2070.7685,-116.3802 2262.3997,-86.9394"/>
<polygon fill="#191970" stroke="#191970" points="2263.029,-90.3837 2272.3716,-85.3872 2261.9523,-83.467 2263.029,-90.3837"/>
</g>
<!-- Node15 -->
<g id="node16" class="node">
<title>Node15</title>
<polygon fill="#ffffff" stroke="#bfbfbf" points="1570.0127,-62 1570.0127,-81 1706.0127,-81 1706.0127,-62 1570.0127,-62"/>
<text text-anchor="middle" x="1638.0127" y="-69" font-family="Helvetica,sans-Serif" font-size="10.00" fill="#000000">boost/vmd/is_empty.hpp</text>
</g>
<!-- Node9&#45;&gt;Node15 -->
<g id="edge17" class="edge">
<title>Node9&#45;&gt;Node15</title>
<path fill="none" stroke="#191970" d="M1704.6689,-123.3906C1692.2624,-113.7324 1672.9283,-98.6812 1658.2714,-87.271"/>
<polygon fill="#191970" stroke="#191970" points="1660.3106,-84.423 1650.2697,-81.0419 1656.0106,-89.9466 1660.3106,-84.423"/>
</g>
<!-- Node16 -->
<g id="node17" class="node">
<title>Node16</title>
<g id="a_node17"><a xlink:href="Tracer_8hpp.html" target="_top" xlink:title="logging/Tracer.hpp">
<polygon fill="#ffffff" stroke="#000000" points="1166.5127,-62 1166.5127,-81 1271.5127,-81 1271.5127,-62 1166.5127,-62"/>
<text text-anchor="middle" x="1219.0127" y="-69" font-family="Helvetica,sans-Serif" font-size="10.00" fill="#000000">logging/Tracer.hpp</text>
</a>
</g>
</g>
<!-- Node9&#45;&gt;Node16 -->
<g id="edge19" class="edge">
<title>Node9&#45;&gt;Node16</title>
<path fill="none" stroke="#191970" d="M1672.408,-130.0277C1593.9008,-124.3988 1426.0774,-110.5869 1286.0127,-87 1279.7544,-85.9461 1273.2063,-84.6616 1266.7587,-83.2877"/>
<polygon fill="#191970" stroke="#191970" points="1267.2856,-79.8196 1256.7654,-81.0753 1265.7725,-86.6542 1267.2856,-79.8196"/>
</g>
<!-- Node17 -->
<g id="node18" class="node">
<title>Node17</title>
<polygon fill="#ffffff" stroke="#bfbfbf" points="1724.0127,-62 1724.0127,-81 1868.0127,-81 1868.0127,-62 1724.0127,-62"/>
<text text-anchor="middle" x="1796.0127" y="-69" font-family="Helvetica,sans-Serif" font-size="10.00" fill="#000000">prettyprint/prettyprint.hpp</text>
</g>
<!-- Node9&#45;&gt;Node17 -->
<g id="edge21" class="edge">
<title>Node9&#45;&gt;Node17</title>
<path fill="none" stroke="#191970" d="M1729.3564,-123.3906C1741.7629,-113.7324 1761.097,-98.6812 1775.754,-87.271"/>
<polygon fill="#191970" stroke="#191970" points="1778.0147,-89.9466 1783.7556,-81.0419 1773.7147,-84.423 1778.0147,-89.9466"/>
</g>
<!-- Node18 -->
<g id="node19" class="node">
<title>Node18</title>
<g id="a_node19"><a xlink:href="String_8hpp.html" target="_top" xlink:title="utils/String.hpp">
<polygon fill="#ffffff" stroke="#000000" points="1328.0127,-62 1328.0127,-81 1418.0127,-81 1418.0127,-62 1328.0127,-62"/>
<text text-anchor="middle" x="1373.0127" y="-69" font-family="Helvetica,sans-Serif" font-size="10.00" fill="#000000">utils/String.hpp</text>
</a>
</g>
</g>
<!-- Node9&#45;&gt;Node18 -->
<g id="edge22" class="edge">
<title>Node9&#45;&gt;Node18</title>
<path fill="none" stroke="#191970" d="M1672.4774,-127.6554C1615.2768,-120.3984 1513.1071,-106.1093 1427.0127,-87 1422.6088,-86.0225 1418.0337,-84.8923 1413.4928,-83.6965"/>
<polygon fill="#191970" stroke="#191970" points="1414.2565,-80.2768 1403.6869,-81.0076 1412.4053,-87.0276 1414.2565,-80.2768"/>
</g>
<!-- Node16&#45;&gt;Node8 -->
<g id="edge20" class="edge">
<title>Node16&#45;&gt;Node8</title>
<path fill="none" stroke="#191970" d="M1214.5325,-81.2484C1205.5812,-100.7259 1185.3474,-144.7531 1173.7034,-170.0896"/>
<polygon fill="#191970" stroke="#191970" points="1170.4274,-168.8365 1169.4317,-179.3845 1176.7879,-171.7597 1170.4274,-168.8365"/>
</g>
<!-- Node18&#45;&gt;Node5 -->
<g id="edge24" class="edge">
<title>Node18&#45;&gt;Node5</title>
<path fill="none" stroke="#191970" d="M1339.1546,-61.9285C1330.9646,-59.8011 1322.2086,-57.6814 1314.0127,-56 1213.9359,-35.4691 1093.8434,-20.2474 1037.3688,-13.6371"/>
<polygon fill="#191970" stroke="#191970" points="1037.601,-10.1407 1027.2647,-12.4672 1036.7958,-17.0942 1037.601,-10.1407"/>
</g>
<!-- Node18&#45;&gt;Node19 -->
<g id="edge23" class="edge">
<title>Node18&#45;&gt;Node19</title>
<path fill="none" stroke="#191970" d="M1401.5937,-61.9493C1409.7201,-59.6034 1418.6389,-57.3734 1427.0127,-56 1618.8159,-24.5424 2235.465,-13.0579 2396.3347,-10.5566"/>
<polygon fill="#191970" stroke="#191970" points="2396.7458,-14.0508 2406.6911,-10.3983 2396.6387,-7.0516 2396.7458,-14.0508"/>
</g>
<!-- Node20&#45;&gt;Node4 -->
<g id="edge26" class="edge">
<title>Node20&#45;&gt;Node4</title>
<path fill="none" stroke="#191970" d="M96.5806,-414.2422C95.5202,-378.376 96.5128,-252.1357 158.0127,-179 174.4308,-159.4756 200.7697,-147.9417 222.8323,-141.3061"/>
<polygon fill="#191970" stroke="#191970" points="223.9171,-144.6373 232.6172,-138.5908 222.0454,-137.8922 223.9171,-144.6373"/>
</g>
<!-- Node24&#45;&gt;Node3 -->
<g id="edge30" class="edge">
<title>Node24&#45;&gt;Node3</title>
<path fill="none" stroke="#191970" d="M595.6254,-414.4509C591.038,-396.1013 580.9104,-355.5908 574.855,-331.3693"/>
<polygon fill="#191970" stroke="#191970" points="578.2148,-330.3774 572.3939,-321.5249 571.4238,-332.0752 578.2148,-330.3774"/>
</g>
<!-- Node24&#45;&gt;Node4 -->
<g id="edge31" class="edge">
<title>Node24&#45;&gt;Node4</title>
<path fill="none" stroke="#191970" d="M550.4557,-415.4744C547.2628,-414.9583 544.0928,-414.4617 541.0127,-414 413.0058,-394.8107 370.8833,-429.2224 252.0127,-378 209.6816,-359.7592 172.0127,-358.0938 172.0127,-312 172.0127,-312 172.0127,-312 172.0127,-250.5 172.0127,-206.4458 212.3785,-168.6987 239.0435,-148.5696"/>
<polygon fill="#191970" stroke="#191970" points="241.1262,-151.3826 247.151,-142.6675 237.0064,-145.7234 241.1262,-151.3826"/>
</g>
<!-- Node24&#45;&gt;Node5 -->
<g id="edge33" class="edge">
<title>Node24&#45;&gt;Node5</title>
<path fill="none" stroke="#191970" d="M550.4658,-415.4053C547.2704,-414.9059 544.0971,-414.4319 541.0127,-414 465.1123,-403.3719 261.6207,-420.7533 198.0127,-378 143.2401,-341.1853 141.9472,-299.0098 158.0127,-235 172.0777,-178.9603 176.8936,-156.4374 224.0127,-123 347.6286,-35.2776 841.06,-14.7781 972.6321,-10.8311"/>
<polygon fill="#191970" stroke="#191970" points="972.9594,-14.3232 982.8543,-10.5363 972.7576,-7.3261 972.9594,-14.3232"/>
</g>
<!-- Node24&#45;&gt;Node7 -->
<g id="edge34" class="edge">
<title>Node24&#45;&gt;Node7</title>
<path fill="none" stroke="#191970" d="M601.351,-414.2107C611.27,-385.6461 642.18,-300.2956 679.0127,-235 684.4739,-225.3186 691.5502,-215.2136 697.7489,-206.9488"/>
<polygon fill="#191970" stroke="#191970" points="700.6872,-208.8694 704.0126,-198.81 695.1399,-204.6001 700.6872,-208.8694"/>
</g>
<!-- Node24&#45;&gt;Node8 -->
<g id="edge35" class="edge">
<title>Node24&#45;&gt;Node8</title>
<path fill="none" stroke="#191970" d="M645.7414,-417.8461C722.7625,-407.7116 868.0914,-387.6712 890.0127,-378 939.4829,-356.1747 937.2491,-327.3436 985.0127,-302 1032.6971,-276.6984 1056.1313,-295.994 1101.0127,-266 1123.9379,-250.6792 1143.025,-224.7814 1154.2285,-207.2966"/>
<polygon fill="#191970" stroke="#191970" points="1157.3415,-208.9167 1159.6159,-198.5689 1151.3849,-205.2398 1157.3415,-208.9167"/>
</g>
<!-- Node25 -->
<g id="node24" class="node">
<title>Node25</title>
<polygon fill="#ffffff" stroke="#bfbfbf" points="1662.5127,-302.5 1662.5127,-321.5 1731.5127,-321.5 1731.5127,-302.5 1662.5127,-302.5"/>
<text text-anchor="middle" x="1697.0127" y="-309.5" font-family="Helvetica,sans-Serif" font-size="10.00" fill="#000000">Eigen/Core</text>
</g>
<!-- Node24&#45;&gt;Node25 -->
<g id="edge29" class="edge">
<title>Node24&#45;&gt;Node25</title>
<path fill="none" stroke="#191970" d="M645.7251,-417.8198C742.0638,-405.4597 966.7643,-377.2325 1156.0127,-358 1339.9977,-339.3024 1559.7201,-322.2467 1652.3475,-315.2977"/>
<polygon fill="#191970" stroke="#191970" points="1652.7703,-318.7759 1662.4813,-314.5398 1652.2481,-311.7954 1652.7703,-318.7759"/>
</g>
<!-- Node26 -->
<g id="node25" class="node">
<title>Node26</title>
<polygon fill="#ffffff" stroke="#bfbfbf" points="238.0127,-302.5 238.0127,-321.5 270.0127,-321.5 270.0127,-302.5 238.0127,-302.5"/>
<text text-anchor="middle" x="254.0127" y="-309.5" font-family="Helvetica,sans-Serif" font-size="10.00" fill="#000000">set</text>
</g>
<!-- Node24&#45;&gt;Node26 -->
<g id="edge32" class="edge">
<title>Node24&#45;&gt;Node26</title>
<path fill="none" stroke="#191970" d="M550.4518,-415.5001C547.2599,-414.9777 544.0911,-414.4728 541.0127,-414 480.53,-404.7109 312.9342,-419.5512 268.0127,-378 255.5417,-366.4647 252.7077,-346.8165 252.594,-331.9502"/>
<polygon fill="#191970" stroke="#191970" points="256.0994,-331.8348 252.9228,-321.7274 249.103,-331.6097 256.0994,-331.8348"/>
</g>
<!-- Node24&#45;&gt;Node27 -->
<g id="edge36" class="edge">
<title>Node24&#45;&gt;Node27</title>
<path fill="none" stroke="#191970" d="M567.8442,-414.3733C542.4726,-405.2629 506.6503,-391.5062 481.7054,-381.3404"/>
<polygon fill="#191970" stroke="#191970" points="482.9756,-378.0783 472.3965,-377.5011 480.3066,-384.5495 482.9756,-378.0783"/>
</g>
<!-- Node24&#45;&gt;Node28 -->
<g id="edge43" class="edge">
<title>Node24&#45;&gt;Node28</title>
<path fill="none" stroke="#191970" d="M635.9236,-414.4369C673.6777,-404.9133 731.7392,-390.2672 772.5391,-379.9753"/>
<polygon fill="#191970" stroke="#191970" points="773.4179,-383.3633 782.2581,-377.5237 771.7057,-376.576 773.4179,-383.3633"/>
</g>
<!-- Node27&#45;&gt;Node3 -->
<g id="edge37" class="edge">
<title>Node27&#45;&gt;Node3</title>
<path fill="none" stroke="#191970" d="M473.1257,-358.3733C492.0496,-349.3156 520.5688,-335.6655 541.7709,-325.5174"/>
<polygon fill="#191970" stroke="#191970" points="543.4279,-328.6047 550.9368,-321.1303 540.4057,-322.2906 543.4279,-328.6047"/>
</g>
<!-- Node27&#45;&gt;Node4 -->
<g id="edge38" class="edge">
<title>Node27&#45;&gt;Node4</title>
<path fill="none" stroke="#191970" d="M445.2887,-358.4967C416.3743,-322.9214 314.2504,-197.2715 276.3281,-150.6133"/>
<polygon fill="#191970" stroke="#191970" points="278.856,-148.1742 269.8328,-142.6216 273.4239,-152.5893 278.856,-148.1742"/>
</g>
<!-- Node27&#45;&gt;Node5 -->
<g id="edge39" class="edge">
<title>Node27&#45;&gt;Node5</title>
<path fill="none" stroke="#191970" d="M448.7938,-358.1174C437.7809,-331.3931 409.0127,-255.2431 409.0127,-189 409.0127,-189 409.0127,-189 409.0127,-133 409.0127,-74.9326 848.5439,-25.8885 972.7028,-13.1929"/>
<polygon fill="#191970" stroke="#191970" points="973.1404,-16.6665 982.7365,-12.1761 972.4346,-9.7022 973.1404,-16.6665"/>
</g>
<!-- Node27&#45;&gt;Node7 -->
<g id="edge40" class="edge">
<title>Node27&#45;&gt;Node7</title>
<path fill="none" stroke="#191970" d="M461.6304,-358.4526C483.3594,-334.8357 542.9467,-272.857 603.0127,-235 626.8212,-219.9945 656.3681,-207.8744 678.6907,-199.8494"/>
<polygon fill="#191970" stroke="#191970" points="680.1093,-203.0612 688.3921,-196.4548 677.7973,-196.454 680.1093,-203.0612"/>
</g>
<!-- Node27&#45;&gt;Node8 -->
<g id="edge41" class="edge">
<title>Node27&#45;&gt;Node8</title>
<path fill="none" stroke="#191970" d="M497.8596,-358.4523C562.0065,-344.9583 683.7363,-319.9539 788.0127,-302 896.0415,-283.4001 933.3224,-313.7119 1032.0127,-266 1050.1296,-257.2413 1048.3213,-246.2399 1065.0127,-235 1084.8102,-221.6684 1109.0931,-210.3959 1128.7722,-202.3466"/>
<polygon fill="#191970" stroke="#191970" points="1130.3132,-205.5003 1138.3084,-198.5485 1127.7231,-198.9971 1130.3132,-205.5003"/>
</g>
<!-- Node27&#45;&gt;Node24 -->
<g id="edge42" class="edge">
<title>Node27&#45;&gt;Node24</title>
<path fill="none" stroke="#191970" d="M482.8311,-377.5011C508.106,-386.5685 543.9298,-400.3201 568.9744,-410.5189"/>
<polygon fill="#191970" stroke="#191970" points="567.749,-413.7994 578.3283,-414.3733 570.4159,-407.3273 567.749,-413.7994"/>
</g>
<!-- Node28&#45;&gt;Node3 -->
<g id="edge45" class="edge">
<title>Node28&#45;&gt;Node3</title>
<path fill="none" stroke="#191970" d="M777.3202,-358.4369C726.5588,-347.0663 643.1983,-328.3936 599.2438,-318.5478"/>
<polygon fill="#191970" stroke="#191970" points="599.7387,-315.072 589.2154,-316.3014 598.2085,-321.9027 599.7387,-315.072"/>
</g>
<!-- Node28&#45;&gt;Node5 -->
<g id="edge47" class="edge">
<title>Node28&#45;&gt;Node5</title>
<path fill="none" stroke="#191970" d="M836.1496,-358.4508C854.2505,-346.4013 879.8717,-324.5178 870.0127,-302 860.5517,-280.3913 843.6179,-285.9387 831.0127,-266 811.8576,-235.7011 807.0127,-224.846 807.0127,-189 807.0127,-189 807.0127,-189 807.0127,-133 807.0127,-56.0144 916.3543,-25.5239 972.5292,-14.9392"/>
<polygon fill="#191970" stroke="#191970" points="973.4516,-18.3301 982.6844,-13.1336 972.2261,-11.4382 973.4516,-18.3301"/>
</g>
<!-- Node28&#45;&gt;Node6 -->
<g id="edge48" class="edge">
<title>Node28&#45;&gt;Node6</title>
<path fill="none" stroke="#191970" d="M853.7063,-358.3733C890.0669,-347.9845 947.5732,-331.5541 983.4772,-321.2959"/>
<polygon fill="#191970" stroke="#191970" points="984.7834,-324.5628 993.437,-318.4502 982.8603,-317.8321 984.7834,-324.5628"/>
</g>
<!-- Node28&#45;&gt;Node7 -->
<g id="edge49" class="edge">
<title>Node28&#45;&gt;Node7</title>
<path fill="none" stroke="#191970" d="M812.7114,-358.4085C805.9243,-349.2909 795.7295,-335.0679 788.0127,-322 766.081,-284.8604 767.2131,-271.9796 745.0127,-235 739.2171,-225.3462 731.9999,-215.1205 725.7941,-206.7682"/>
<polygon fill="#191970" stroke="#191970" points="728.401,-204.4131 719.5723,-198.5559 722.8214,-208.6403 728.401,-204.4131"/>
</g>
<!-- Node28&#45;&gt;Node8 -->
<g id="edge50" class="edge">
<title>Node28&#45;&gt;Node8</title>
<path fill="none" stroke="#191970" d="M836.9772,-358.3402C861.5643,-344.5992 908.7867,-319.1742 951.0127,-302 1000.2305,-281.982 1017.9093,-290.5842 1065.0127,-266 1096.6548,-249.4853 1128.5174,-222.8112 1147.5084,-205.5933"/>
<polygon fill="#191970" stroke="#191970" points="1150.0748,-207.9876 1155.0513,-198.6342 1145.3281,-202.8427 1150.0748,-207.9876"/>
</g>
<!-- Node28&#45;&gt;Node19 -->
<g id="edge46" class="edge">
<title>Node28&#45;&gt;Node19</title>
<path fill="none" stroke="#191970" d="M869.4761,-358.4932C915.7232,-349.4926 986.6666,-335.3991 1048.0127,-322 1319.2147,-262.7647 1382.7668,-227.9498 1656.0127,-179 1819.3435,-149.7406 2261.7668,-183.1334 2397.0127,-87 2416.1199,-73.4185 2426.0916,-47.468 2430.9414,-29.4691"/>
<polygon fill="#191970" stroke="#191970" points="2434.3537,-30.2486 2433.2855,-19.7077 2427.5472,-28.614 2434.3537,-30.2486"/>
</g>
<!-- Node29 -->
<g id="node28" class="node">
<title>Node29</title>
<polygon fill="#ffffff" stroke="#bfbfbf" points="797.0127,-302.5 797.0127,-321.5 861.0127,-321.5 861.0127,-302.5 797.0127,-302.5"/>
<text text-anchor="middle" x="829.0127" y="-309.5" font-family="Helvetica,sans-Serif" font-size="10.00" fill="#000000">algorithm</text>
</g>
<!-- Node28&#45;&gt;Node29 -->
<g id="edge44" class="edge">
<title>Node28&#45;&gt;Node29</title>
<path fill="none" stroke="#191970" d="M821.5803,-358.2455C822.7547,-350.9382 824.4011,-340.6944 825.8458,-331.7046"/>
<polygon fill="#191970" stroke="#191970" points="829.3317,-332.0714 827.4629,-321.6427 822.4204,-330.9606 829.3317,-332.0714"/>
</g>
<!-- Node28&#45;&gt;Node33 -->
<g id="edge51" class="edge">
<title>Node28&#45;&gt;Node33</title>
<path fill="none" stroke="#191970" d="M881.0322,-365.2421C1090.8117,-355.7605 1781.2238,-324.5554 1995.2034,-314.884"/>
<polygon fill="#191970" stroke="#191970" points="1995.4973,-318.3744 2005.329,-314.4264 1995.1812,-311.3816 1995.4973,-318.3744"/>
</g>
<!-- Node33&#45;&gt;Node10 -->
<g id="edge56" class="edge">
<title>Node33&#45;&gt;Node10</title>
<path fill="none" stroke="#191970" d="M2110.3608,-302.4847C2147.6655,-294.4058 2193.5395,-281.6439 2205.0127,-266 2213.1608,-254.8898 2211.7164,-247.0369 2205.0127,-235 2162.0983,-157.9445 2066.2145,-112.6017 2002.5901,-89.9085"/>
<polygon fill="#191970" stroke="#191970" points="2003.653,-86.5726 1993.0582,-86.5915 2001.3523,-93.1838 2003.653,-86.5726"/>
</g>
<!-- Node33&#45;&gt;Node12 -->
<g id="edge58" class="edge">
<title>Node33&#45;&gt;Node12</title>
<path fill="none" stroke="#191970" d="M2108.6268,-302.4751C2158.7565,-292.3503 2229.9508,-276.3956 2238.0127,-266 2276.961,-215.7771 2275.7979,-174.1037 2238.0127,-123 2231.5421,-114.2487 2180.0796,-99.2506 2135.7973,-87.6897"/>
<polygon fill="#191970" stroke="#191970" points="2136.4536,-84.2444 2125.8959,-85.1298 2134.7014,-91.0215 2136.4536,-84.2444"/>
</g>
<!-- Node33&#45;&gt;Node13 -->
<g id="edge59" class="edge">
<title>Node33&#45;&gt;Node13</title>
<path fill="none" stroke="#191970" d="M2112.5964,-302.7048C2168.7103,-292.5168 2250.2014,-276.2589 2261.0127,-266 2307.1257,-222.2431 2294.6247,-174.9677 2258.0127,-123 2250.1037,-111.7739 2239.2518,-101.3897 2229.0101,-92.9304"/>
<polygon fill="#191970" stroke="#191970" points="2231.0067,-90.0469 2220.9952,-86.5797 2226.6594,-95.5333 2231.0067,-90.0469"/>
</g>
<!-- Node33&#45;&gt;Node14 -->
<g id="edge60" class="edge">
<title>Node33&#45;&gt;Node14</title>
<path fill="none" stroke="#191970" d="M2112.589,-302.635C2177.7037,-291.0343 2279.7408,-272.0592 2286.0127,-266 2332.5254,-221.064 2334.5854,-138.1411 2332.301,-96.598"/>
<polygon fill="#191970" stroke="#191970" points="2335.7853,-96.2476 2331.6131,-86.5089 2328.8015,-96.7238 2335.7853,-96.2476"/>
</g>
<!-- Node33&#45;&gt;Node19 -->
<g id="edge54" class="edge">
<title>Node33&#45;&gt;Node19</title>
<path fill="none" stroke="#191970" d="M2112.5325,-302.7093C2185.2361,-290.0204 2306.7371,-268.5445 2311.0127,-266 2393.1069,-217.1445 2410.6652,-180.5521 2430.0127,-87 2433.986,-67.7874 2435.0496,-45.3567 2435.2322,-29.6779"/>
<polygon fill="#191970" stroke="#191970" points="2438.7322,-29.5993 2435.2386,-19.5971 2431.7322,-29.5949 2438.7322,-29.5993"/>
</g>
<!-- Node34 -->
<g id="node30" class="node">
<title>Node34</title>
<polygon fill="#ffffff" stroke="#bfbfbf" points="1831.0127,-241 1831.0127,-260 1883.0127,-260 1883.0127,-241 1831.0127,-241"/>
<text text-anchor="middle" x="1857.0127" y="-248" font-family="Helvetica,sans-Serif" font-size="10.00" fill="#000000">cassert</text>
</g>
<!-- Node33&#45;&gt;Node34 -->
<g id="edge52" class="edge">
<title>Node33&#45;&gt;Node34</title>
<path fill="none" stroke="#191970" d="M2018.6243,-302.4477C1984.7137,-294.0386 1935.1851,-280.8443 1893.0127,-266 1891.1352,-265.3392 1889.2168,-264.627 1887.2913,-263.8838"/>
<polygon fill="#191970" stroke="#191970" points="1888.3433,-260.5332 1877.7617,-260.0041 1885.7038,-267.0165 1888.3433,-260.5332"/>
</g>
<!-- Node35 -->
<g id="node31" class="node">
<title>Node35</title>
<polygon fill="#ffffff" stroke="#bfbfbf" points="2404.0127,-241 2404.0127,-260 2464.0127,-260 2464.0127,-241 2404.0127,-241"/>
<text text-anchor="middle" x="2434.0127" y="-248" font-family="Helvetica,sans-Serif" font-size="10.00" fill="#000000">iostream</text>
</g>
<!-- Node33&#45;&gt;Node35 -->
<g id="edge53" class="edge">
<title>Node33&#45;&gt;Node35</title>
<path fill="none" stroke="#191970" d="M2112.8272,-304.0355C2117.6233,-303.341 2122.4052,-302.6541 2127.0127,-302 2243.8203,-285.4172 2275.3419,-293.7421 2390.0127,-266 2393.2401,-265.2192 2396.5624,-264.2909 2399.8664,-263.2824"/>
<polygon fill="#191970" stroke="#191970" points="2401.2006,-266.5282 2409.6099,-260.0836 2399.0171,-259.8775 2401.2006,-266.5282"/>
</g>
<!-- Node36 -->
<g id="node32" class="node">
<title>Node36</title>
<polygon fill="#ffffff" stroke="#bfbfbf" points="1901.5127,-241 1901.5127,-260 2048.5127,-260 2048.5127,-241 1901.5127,-241"/>
<text text-anchor="middle" x="1975.0127" y="-248" font-family="Helvetica,sans-Serif" font-size="10.00" fill="#000000">boost/current_function.hpp</text>
</g>
<!-- Node33&#45;&gt;Node36 -->
<g id="edge55" class="edge">
<title>Node33&#45;&gt;Node36</title>
<path fill="none" stroke="#191970" d="M2045.8877,-302.3906C2032.5726,-292.6421 2011.7533,-277.3994 1996.1179,-265.9521"/>
<polygon fill="#191970" stroke="#191970" points="1998.1817,-263.1253 1988.0455,-260.0419 1994.0465,-268.7734 1998.1817,-263.1253"/>
</g>
<!-- Node37 -->
<g id="node33" class="node">
<title>Node37</title>
<polygon fill="#ffffff" stroke="#bfbfbf" points="2066.5127,-235.5 2066.5127,-265.5 2195.5127,-265.5 2195.5127,-235.5 2066.5127,-235.5"/>
<text text-anchor="start" x="2074.5127" y="-253.5" font-family="Helvetica,sans-Serif" font-size="10.00" fill="#000000">boost/preprocessor</text>
<text text-anchor="middle" x="2131.0127" y="-242.5" font-family="Helvetica,sans-Serif" font-size="10.00" fill="#000000">/facilities/is_empty.hpp</text>
</g>
<!-- Node33&#45;&gt;Node37 -->
<g id="edge57" class="edge">
<title>Node33&#45;&gt;Node37</title>
<path fill="none" stroke="#191970" d="M2070.2627,-302.3906C2079.7363,-294.2986 2093.6421,-282.4207 2105.7594,-272.0705"/>
<polygon fill="#191970" stroke="#191970" points="2108.0689,-274.7008 2113.3995,-265.5446 2103.5225,-269.3782 2108.0689,-274.7008"/>
</g>
<!-- Node38 -->
<g id="node34" class="node">
<title>Node38</title>
<g id="a_node34"><a xlink:href="Parallel_8hpp.html" target="_top" xlink:title="Parallel.hpp">
<polygon fill="#ffffff" stroke="#ff0000" points="949.0127,-241 949.0127,-260 1023.0127,-260 1023.0127,-241 949.0127,-241"/>
<text text-anchor="middle" x="986.0127" y="-248" font-family="Helvetica,sans-Serif" font-size="10.00" fill="#000000">Parallel.hpp</text>
</a>
</g>
</g>
<!-- Node33&#45;&gt;Node38 -->
<g id="edge61" class="edge">
<title>Node33&#45;&gt;Node38</title>
<path fill="none" stroke="#191970" d="M2005.4353,-308.9292C1820.1508,-298.3094 1208.3239,-263.242 1033.2163,-253.2055"/>
<polygon fill="#191970" stroke="#191970" points="1033.2228,-249.7002 1023.0389,-252.6222 1032.8222,-256.6888 1033.2228,-249.7002"/>
</g>
<!-- Node41 -->
<g id="node36" class="node">
<title>Node41</title>
<g id="a_node36"><a xlink:href="stacktrace_8hpp.html" target="_top" xlink:title="stacktrace.hpp">
<polygon fill="#ffffff" stroke="#000000" points="1485.5127,-123.5 1485.5127,-142.5 1574.5127,-142.5 1574.5127,-123.5 1485.5127,-123.5"/>
<text text-anchor="middle" x="1530.0127" y="-130.5" font-family="Helvetica,sans-Serif" font-size="10.00" fill="#000000">stacktrace.hpp</text>
</a>
</g>
</g>
<!-- Node33&#45;&gt;Node41 -->
<g id="edge67" class="edge">
<title>Node33&#45;&gt;Node41</title>
<path fill="none" stroke="#191970" d="M2005.455,-304.9302C1945.8083,-296.4769 1853.6174,-281.5147 1822.0127,-266 1769.4309,-240.1877 1775.0372,-205.9177 1723.0127,-179 1679.5314,-156.5026 1624.8416,-144.807 1584.7914,-138.8536"/>
<polygon fill="#191970" stroke="#191970" points="1585.0734,-135.3588 1574.6823,-137.4261 1584.0946,-142.2901 1585.0734,-135.3588"/>
</g>
<!-- Node38&#45;&gt;Node4 -->
<g id="edge63" class="edge">
<title>Node38&#45;&gt;Node4</title>
<path fill="none" stroke="#191970" d="M960.0399,-240.9647C916.3122,-225.3282 824.9297,-194.4348 745.0127,-179 582.1904,-147.5532 384.1506,-137.2688 301.3529,-134.1956"/>
<polygon fill="#191970" stroke="#191970" points="301.2604,-130.6901 291.1421,-133.8318 301.0111,-137.6857 301.2604,-130.6901"/>
</g>
<!-- Node38&#45;&gt;Node5 -->
<g id="edge64" class="edge">
<title>Node38&#45;&gt;Node5</title>
<path fill="none" stroke="#191970" d="M986.781,-240.7742C989.6219,-204.8148 999.5671,-78.9298 1003.4463,-29.8266"/>
<polygon fill="#191970" stroke="#191970" points="1006.957,-29.8279 1004.2556,-19.5833 999.9788,-29.2765 1006.957,-29.8279"/>
</g>
<!-- Node38&#45;&gt;Node7 -->
<g id="edge65" class="edge">
<title>Node38&#45;&gt;Node7</title>
<path fill="none" stroke="#191970" d="M956.2073,-240.9412C949.2834,-238.8602 941.9181,-236.7576 935.0127,-235 868.4778,-218.0649 789.5808,-202.9359 745.7198,-194.9571"/>
<polygon fill="#191970" stroke="#191970" points="746.0744,-191.4647 735.6117,-193.1324 744.8308,-198.3533 746.0744,-191.4647"/>
</g>
<!-- Node38&#45;&gt;Node8 -->
<g id="edge66" class="edge">
<title>Node38&#45;&gt;Node8</title>
<path fill="none" stroke="#191970" d="M1013.9814,-240.8906C1044.5882,-230.3749 1093.8025,-213.466 1127.6867,-201.8243"/>
<polygon fill="#191970" stroke="#191970" points="1128.9202,-205.1014 1137.2403,-198.5419 1126.6456,-198.4812 1128.9202,-205.1014"/>
</g>
<!-- Node39 -->
<g id="node35" class="node">
<title>Node39</title>
<polygon fill="#ffffff" stroke="#bfbfbf" points="1664.5127,-179.5 1664.5127,-198.5 1713.5127,-198.5 1713.5127,-179.5 1664.5127,-179.5"/>
<text text-anchor="middle" x="1689.0127" y="-186.5" font-family="Helvetica,sans-Serif" font-size="10.00" fill="#000000">iosfwd</text>
</g>
<!-- Node38&#45;&gt;Node39 -->
<g id="edge62" class="edge">
<title>Node38&#45;&gt;Node39</title>
<path fill="none" stroke="#191970" d="M1023.3126,-247.2369C1145.9294,-236.5101 1535.4879,-202.4307 1654.2851,-192.038"/>
<polygon fill="#191970" stroke="#191970" points="1654.6298,-195.5214 1664.2867,-191.1631 1654.0197,-188.548 1654.6298,-195.5214"/>
</g>
<!-- Node41&#45;&gt;Node5 -->
<g id="edge68" class="edge">
<title>Node41&#45;&gt;Node5</title>
<path fill="none" stroke="#191970" d="M1485.4849,-130.2126C1400.1685,-124.4277 1216.9004,-109.7321 1158.0127,-87 1135.696,-78.3852 1134.9303,-67.6061 1114.0127,-56 1089.0926,-42.1732 1059.1662,-29.8217 1036.9806,-21.408"/>
<polygon fill="#191970" stroke="#191970" points="1037.9704,-18.0417 1027.3777,-17.8281 1035.5252,-24.6008 1037.9704,-18.0417"/>
</g>
<!-- Node44&#45;&gt;Node5 -->
<g id="edge75" class="edge">
<title>Node44&#45;&gt;Node5</title>
<path fill="none" stroke="#191970" d="M1427.7842,-414.1327C1421.8527,-400.8013 1410.288,-376.5696 1397.0127,-358 1333.5602,-269.242 1312.8549,-248.8189 1229.0127,-179 1170.9393,-130.6399 1145.4405,-133.6856 1086.0127,-87 1061.8867,-68.047 1036.6614,-43.1303 1020.8994,-26.8482"/>
<polygon fill="#191970" stroke="#191970" points="1023.4133,-24.4129 1013.9682,-19.6128 1018.3584,-29.2552 1023.4133,-24.4129"/>
</g>
<!-- Node44&#45;&gt;Node8 -->
<g id="edge76" class="edge">
<title>Node44&#45;&gt;Node8</title>
<path fill="none" stroke="#191970" d="M1424.235,-414.1389C1413.5323,-400.8145 1393.3816,-376.5907 1374.0127,-358 1310.1212,-296.6759 1226.0956,-233.3949 1186.9032,-204.762"/>
<polygon fill="#191970" stroke="#191970" points="1188.5217,-201.6116 1178.3751,-198.5626 1184.4057,-207.2736 1188.5217,-201.6116"/>
</g>
<!-- Node44&#45;&gt;Node25 -->
<g id="edge73" class="edge">
<title>Node44&#45;&gt;Node25</title>
<path fill="none" stroke="#191970" d="M1454.6064,-414.4509C1501.7388,-394.5308 1610.6647,-348.4942 1664.9942,-325.5323"/>
<polygon fill="#191970" stroke="#191970" points="1666.6275,-328.6418 1674.4761,-321.5249 1663.9024,-322.1941 1666.6275,-328.6418"/>
</g>
<!-- Node45 -->
<g id="node39" class="node">
<title>Node45</title>
<polygon fill="#ffffff" stroke="#bfbfbf" points="1309.0127,-358.5 1309.0127,-377.5 1365.0127,-377.5 1365.0127,-358.5 1309.0127,-358.5"/>
<text text-anchor="middle" x="1337.0127" y="-365.5" font-family="Helvetica,sans-Serif" font-size="10.00" fill="#000000">stddef.h</text>
</g>
<!-- Node44&#45;&gt;Node45 -->
<g id="edge74" class="edge">
<title>Node44&#45;&gt;Node45</title>
<path fill="none" stroke="#191970" d="M1415.4649,-414.2455C1400.7528,-405.5731 1379.0239,-392.7645 1362.1622,-382.825"/>
<polygon fill="#191970" stroke="#191970" points="1363.7628,-379.7057 1353.3708,-377.6427 1360.2081,-385.736 1363.7628,-379.7057"/>
</g>
<!-- Node46&#45;&gt;Node2 -->
<g id="edge82" class="edge">
<title>Node46&#45;&gt;Node2</title>
<path fill="none" stroke="#191970" d="M1496.4468,-534.6583C1335.1681,-529.8537 801.0337,-512.5857 631.0127,-490 517.8782,-474.9712 486.8856,-468.6984 373.9975,-433.9577"/>
<polygon fill="#191970" stroke="#191970" points="374.8664,-430.563 364.279,-430.9594 372.8028,-437.252 374.8664,-430.563"/>
</g>
<!-- Node46&#45;&gt;Node3 -->
<g id="edge83" class="edge">
<title>Node46&#45;&gt;Node3</title>
<path fill="none" stroke="#191970" d="M1496.3692,-534.9603C1340.0419,-531.2348 840.6958,-517.3009 774.0127,-490 687.8337,-454.7173 612.8633,-367.4382 583.3667,-329.7735"/>
<polygon fill="#191970" stroke="#191970" points="586.0418,-327.5108 577.167,-321.7239 580.496,-331.7821 586.0418,-327.5108"/>
</g>
<!-- Node46&#45;&gt;Node5 -->
<g id="edge84" class="edge">
<title>Node46&#45;&gt;Node5</title>
<path fill="none" stroke="#191970" d="M1541.5024,-526.4769C1539.3349,-513.5357 1534.9408,-489.7446 1529.0127,-470 1521.3231,-444.3888 1520.5541,-437.0584 1507.0127,-414 1490.702,-386.226 1483.3243,-381.2298 1461.0127,-358 1346.335,-238.6029 1310.7299,-213.3556 1172.0127,-123 1146.5905,-106.4409 1137.934,-105.6618 1114.0127,-87 1098.4002,-74.8201 1097.728,-68.0468 1082.0127,-56 1066.5587,-44.1536 1047.8301,-32.9048 1032.7133,-24.4963"/>
<polygon fill="#191970" stroke="#191970" points="1034.2839,-21.3661 1023.8293,-19.6479 1030.9305,-27.5107 1034.2839,-21.3661"/>
</g>
<!-- Node46&#45;&gt;Node7 -->
<g id="edge85" class="edge">
<title>Node46&#45;&gt;Node7</title>
<path fill="none" stroke="#191970" d="M1496.4672,-535.3464C1401.5275,-533.2999 1179.0363,-524.8519 996.0127,-490 911.2045,-473.8506 887.4642,-472.1379 810.0127,-434 750.1452,-404.5207 724.1798,-387.2107 710.0127,-322 701.4714,-282.685 705.4818,-235.2837 708.9158,-209.0105"/>
<polygon fill="#191970" stroke="#191970" points="712.4207,-209.2218 710.3598,-198.8294 705.4901,-208.2387 712.4207,-209.2218"/>
</g>
<!-- Node46&#45;&gt;Node8 -->
<g id="edge86" class="edge">
<title>Node46&#45;&gt;Node8</title>
<path fill="none" stroke="#191970" d="M1540.2781,-526.3032C1533.7856,-504.5019 1515.7972,-450.6606 1487.0127,-414 1407.8834,-313.2194 1369.6862,-302.8839 1261.0127,-235 1240.991,-222.4933 1217.049,-211.015 1198.0834,-202.6526"/>
<polygon fill="#191970" stroke="#191970" points="1199.2338,-199.3367 1188.6664,-198.5747 1196.4521,-205.7603 1199.2338,-199.3367"/>
</g>
<!-- Node46&#45;&gt;Node20 -->
<g id="edge103" class="edge">
<title>Node46&#45;&gt;Node20</title>
<path fill="none" stroke="#191970" d="M1496.3691,-535.1867C1281.9782,-531.3299 396.4228,-514.0638 275.0127,-490 220.429,-479.1814 160.4208,-453.926 125.8844,-437.9817"/>
<polygon fill="#191970" stroke="#191970" points="126.9717,-434.6261 116.4312,-433.555 124.0031,-440.9655 126.9717,-434.6261"/>
</g>
<!-- Node46&#45;&gt;Node21 -->
<g id="edge111" class="edge">
<title>Node46&#45;&gt;Node21</title>
<path fill="none" stroke="#191970" d="M1496.4526,-534.4209C1347.6087,-529.2035 884.4265,-511.6136 736.0127,-490 650.8712,-477.6008 553.5034,-451.8543 499.2398,-436.4389"/>
<polygon fill="#191970" stroke="#191970" points="499.8771,-432.9808 489.3,-433.5934 497.9506,-439.7105 499.8771,-432.9808"/>
</g>
<!-- Node46&#45;&gt;Node25 -->
<g id="edge78" class="edge">
<title>Node46&#45;&gt;Node25</title>
<path fill="none" stroke="#191970" d="M1549.6298,-526.375C1573.2254,-492.0543 1653.4843,-375.3139 1684.571,-330.097"/>
<polygon fill="#191970" stroke="#191970" points="1687.6389,-331.8124 1690.4201,-321.5891 1681.8706,-327.8467 1687.6389,-331.8124"/>
</g>
<!-- Node46&#45;&gt;Node33 -->
<g id="edge115" class="edge">
<title>Node46&#45;&gt;Node33</title>
<path fill="none" stroke="#191970" d="M1589.8363,-535.4264C1712.5105,-533.4403 2036.0266,-524.9112 2068.0127,-490 2108.3453,-445.979 2082.7658,-367.1957 2067.7202,-331.0607"/>
<polygon fill="#191970" stroke="#191970" points="2070.8403,-329.4587 2063.6461,-321.681 2064.4198,-332.2475 2070.8403,-329.4587"/>
</g>
<!-- Node46&#45;&gt;Node39 -->
<g id="edge81" class="edge">
<title>Node46&#45;&gt;Node39</title>
<path fill="none" stroke="#191970" d="M1589.7818,-534.8417C1658.2575,-532.0474 1780.6558,-522.5147 1808.0127,-490 1883.9193,-399.7819 1755.4599,-255.2522 1706.6433,-206.0437"/>
<polygon fill="#191970" stroke="#191970" points="1708.8437,-203.2964 1699.2799,-198.7374 1703.9133,-208.2654 1708.8437,-203.2964"/>
</g>
<!-- Node46&#45;&gt;Node44 -->
<g id="edge97" class="edge">
<title>Node46&#45;&gt;Node44</title>
<path fill="none" stroke="#191970" d="M1531.5099,-526.4969C1520.7365,-517.4417 1504.3429,-503.261 1491.0127,-490 1475.1318,-474.2016 1458.2096,-454.9989 1446.5794,-441.3893"/>
<polygon fill="#191970" stroke="#191970" points="1449.214,-439.0845 1440.0785,-433.7186 1443.8738,-443.6103 1449.214,-439.0845"/>
</g>
<!-- Node47 -->
<g id="node41" class="node">
<title>Node47</title>
<polygon fill="#ffffff" stroke="#bfbfbf" points="1609.0127,-470.5 1609.0127,-489.5 1717.0127,-489.5 1717.0127,-470.5 1609.0127,-470.5"/>
<text text-anchor="middle" x="1663.0127" y="-477.5" font-family="Helvetica,sans-Serif" font-size="10.00" fill="#000000">boost/signals2.hpp</text>
</g>
<!-- Node46&#45;&gt;Node47 -->
<g id="edge79" class="edge">
<title>Node46&#45;&gt;Node47</title>
<path fill="none" stroke="#191970" d="M1563.6414,-526.3733C1582.9045,-517.3838 1611.8613,-503.8706 1633.5546,-493.7471"/>
<polygon fill="#191970" stroke="#191970" points="1635.0714,-496.9017 1642.6531,-489.5011 1632.1111,-490.5584 1635.0714,-496.9017"/>
</g>
<!-- Node48 -->
<g id="node42" class="node">
<title>Node48</title>
<polygon fill="#ffffff" stroke="#bfbfbf" points="1735.5127,-470.5 1735.5127,-489.5 1782.5127,-489.5 1782.5127,-470.5 1735.5127,-470.5"/>
<text text-anchor="middle" x="1759.0127" y="-477.5" font-family="Helvetica,sans-Serif" font-size="10.00" fill="#000000">deque</text>
</g>
<!-- Node46&#45;&gt;Node48 -->
<g id="edge80" class="edge">
<title>Node46&#45;&gt;Node48</title>
<path fill="none" stroke="#191970" d="M1583.1405,-526.4996C1618.2089,-518.0661 1670.7114,-505.1261 1725.3901,-490.0792"/>
<polygon fill="#191970" stroke="#191970" points="1726.5558,-493.3882 1735.2592,-487.3466 1724.6879,-486.642 1726.5558,-493.3882"/>
</g>
<!-- Node49 -->
<g id="node43" class="node">
<title>Node49</title>
<g id="a_node43"><a xlink:href="BoundingBox_8hpp.html" target="_top" xlink:title="mesh/BoundingBox.hpp">
<polygon fill="#ffffff" stroke="#000000" points="1641.0127,-414.5 1641.0127,-433.5 1773.0127,-433.5 1773.0127,-414.5 1641.0127,-414.5"/>
<text text-anchor="middle" x="1707.0127" y="-421.5" font-family="Helvetica,sans-Serif" font-size="10.00" fill="#000000">mesh/BoundingBox.hpp</text>
</a>
</g>
</g>
<!-- Node46&#45;&gt;Node49 -->
<g id="edge87" class="edge">
<title>Node46&#45;&gt;Node49</title>
<path fill="none" stroke="#191970" d="M1589.6684,-534.2563C1654.5104,-530.7407 1766.775,-520.3271 1792.0127,-490 1810.0756,-468.2945 1777.1811,-449.2131 1747.2035,-437.2232"/>
<polygon fill="#191970" stroke="#191970" points="1748.2323,-433.8699 1737.6413,-433.5852 1745.7431,-440.4124 1748.2323,-433.8699"/>
</g>
<!-- Node50 -->
<g id="node44" class="node">
<title>Node50</title>
<g id="a_node44"><a xlink:href="Vertex_8hpp.html" target="_top" xlink:title="mesh/Vertex.hpp">
<polygon fill="#ffffff" stroke="#ff0000" points="1839.5127,-358.5 1839.5127,-377.5 1938.5127,-377.5 1938.5127,-358.5 1839.5127,-358.5"/>
<text text-anchor="middle" x="1889.0127" y="-365.5" font-family="Helvetica,sans-Serif" font-size="10.00" fill="#000000">mesh/Vertex.hpp</text>
</a>
</g>
</g>
<!-- Node46&#45;&gt;Node50 -->
<g id="edge110" class="edge">
<title>Node46&#45;&gt;Node50</title>
<path fill="none" stroke="#191970" d="M1589.6508,-532.2342C1673.6159,-525.0312 1843.3591,-508.3753 1863.0127,-490 1891.1112,-463.729 1892.7346,-415.1803 1891.0949,-387.9161"/>
<polygon fill="#191970" stroke="#191970" points="1894.5601,-387.3446 1890.2601,-377.6616 1887.5831,-387.9127 1894.5601,-387.3446"/>
</g>
<!-- Node52 -->
<g id="node45" class="node">
<title>Node52</title>
<g id="a_node45"><a xlink:href="Edge_8hpp.html" target="_top" xlink:title="mesh/Edge.hpp">
<polygon fill="#ffffff" stroke="#ff0000" points="1922.0127,-414.5 1922.0127,-433.5 2014.0127,-433.5 2014.0127,-414.5 1922.0127,-414.5"/>
<text text-anchor="middle" x="1968.0127" y="-421.5" font-family="Helvetica,sans-Serif" font-size="10.00" fill="#000000">mesh/Edge.hpp</text>
</a>
</g>
</g>
<!-- Node46&#45;&gt;Node52 -->
<g id="edge98" class="edge">
<title>Node46&#45;&gt;Node52</title>
<path fill="none" stroke="#191970" d="M1589.7935,-533.6919C1673.9508,-528.9354 1847.13,-516.217 1901.0127,-490 1923.5955,-479.0121 1943.2283,-457.4022 1955.3036,-441.9008"/>
<polygon fill="#191970" stroke="#191970" points="1958.3202,-443.711 1961.5052,-433.6062 1952.7139,-439.5194 1958.3202,-443.711"/>
</g>
<!-- Node54 -->
<g id="node46" class="node">
<title>Node54</title>
<g id="a_node46"><a xlink:href="Triangle_8hpp.html" target="_top" xlink:title="mesh/Triangle.hpp">
<polygon fill="#ffffff" stroke="#ff0000" points="1953.0127,-470.5 1953.0127,-489.5 2059.0127,-489.5 2059.0127,-470.5 1953.0127,-470.5"/>
<text text-anchor="middle" x="2006.0127" y="-477.5" font-family="Helvetica,sans-Serif" font-size="10.00" fill="#000000">mesh/Triangle.hpp</text>
</a>
</g>
</g>
<!-- Node46&#45;&gt;Node54 -->
<g id="edge104" class="edge">
<title>Node46&#45;&gt;Node54</title>
<path fill="none" stroke="#191970" d="M1589.7092,-531.073C1663.8318,-523.1404 1812.9398,-506.7263 1939.0127,-490 1940.2915,-489.8303 1941.5837,-489.6569 1942.8858,-489.4802"/>
<polygon fill="#191970" stroke="#191970" points="1943.5818,-492.9172 1953.0049,-488.0741 1942.6183,-485.9838 1943.5818,-492.9172"/>
</g>
<!-- Node57 -->
<g id="node47" class="node">
<title>Node57</title>
<g id="a_node47"><a xlink:href="PointerVector_8hpp.html" target="_top" xlink:title="utils/PointerVector.hpp">
<polygon fill="#ffffff" stroke="#ff0000" points="1165.0127,-358.5 1165.0127,-377.5 1291.0127,-377.5 1291.0127,-358.5 1165.0127,-358.5"/>
<text text-anchor="middle" x="1228.0127" y="-365.5" font-family="Helvetica,sans-Serif" font-size="10.00" fill="#000000">utils/PointerVector.hpp</text>
</a>
</g>
</g>
<!-- Node46&#45;&gt;Node57 -->
<g id="edge112" class="edge">
<title>Node46&#45;&gt;Node57</title>
<path fill="none" stroke="#191970" d="M1525.1744,-526.4862C1472.5619,-498.4263 1317.7835,-415.8778 1254.9665,-382.3754"/>
<polygon fill="#191970" stroke="#191970" points="1256.5164,-379.2353 1246.0458,-377.6177 1253.2222,-385.4118 1256.5164,-379.2353"/>
</g>
<!-- Node49&#45;&gt;Node7 -->
<g id="edge90" class="edge">
<title>Node49&#45;&gt;Node7</title>
<path fill="none" stroke="#191970" d="M1658.946,-414.4569C1496.2861,-382.1159 974.6793,-278.0061 940.0127,-266 910.9011,-255.9178 906.8425,-245.8617 878.0127,-235 822.0908,-213.9313 803.1759,-216.8892 745.3339,-200.1878"/>
<polygon fill="#191970" stroke="#191970" points="746.2872,-196.82 735.7048,-197.3319 744.2967,-203.531 746.2872,-196.82"/>
</g>
<!-- Node49&#45;&gt;Node8 -->
<g id="edge91" class="edge">
<title>Node49&#45;&gt;Node8</title>
<path fill="none" stroke="#191970" d="M1699.2949,-414.4592C1672.9717,-382.6694 1582.8009,-279.833 1483.0127,-235 1439.0636,-215.2545 1309.6315,-201.2116 1230.0925,-194.166"/>
<polygon fill="#191970" stroke="#191970" points="1229.9593,-190.6412 1219.6931,-193.2595 1229.3513,-197.6148 1229.9593,-190.6412"/>
</g>
<!-- Node49&#45;&gt;Node25 -->
<g id="edge88" class="edge">
<title>Node49&#45;&gt;Node25</title>
<path fill="none" stroke="#191970" d="M1706.1601,-414.4509C1704.5291,-396.184 1700.9372,-355.9553 1698.7714,-331.6976"/>
<polygon fill="#191970" stroke="#191970" points="1702.2386,-331.174 1697.8631,-321.5249 1695.2664,-331.7966 1702.2386,-331.174"/>
</g>
<!-- Node49&#45;&gt;Node39 -->
<g id="edge89" class="edge">
<title>Node49&#45;&gt;Node39</title>
<path fill="none" stroke="#191970" d="M1713.6333,-414.3919C1727.0758,-393.6404 1755.1416,-343.1792 1741.0127,-302 1734.4344,-282.8274 1722.4015,-283.9643 1713.0127,-266 1703.3691,-247.5483 1696.8315,-224.5553 1693.0451,-208.5207"/>
<polygon fill="#191970" stroke="#191970" points="1696.443,-207.6766 1690.8589,-198.6729 1689.6094,-209.1937 1696.443,-207.6766"/>
</g>
<!-- Node49&#45;&gt;Node50 -->
<g id="edge92" class="edge">
<title>Node49&#45;&gt;Node50</title>
<path fill="none" stroke="#191970" d="M1738.2996,-414.3733C1768.6944,-405.021 1815.002,-390.7725 1848.2626,-380.5385"/>
<polygon fill="#191970" stroke="#191970" points="1849.6055,-383.7873 1858.134,-377.5011 1847.5469,-377.0968 1849.6055,-383.7873"/>
</g>
<!-- Node50&#45;&gt;Node6 -->
<g id="edge95" class="edge">
<title>Node50&#45;&gt;Node6</title>
<path fill="none" stroke="#191970" d="M1839.2584,-364.8084C1679.4475,-354.5571 1181.877,-322.6396 1048.944,-314.1124"/>
<polygon fill="#191970" stroke="#191970" points="1048.8165,-310.5972 1038.6129,-313.4497 1048.3683,-317.5828 1048.8165,-310.5972"/>
</g>
<!-- Node50&#45;&gt;Node25 -->
<g id="edge93" class="edge">
<title>Node50&#45;&gt;Node25</title>
<path fill="none" stroke="#191970" d="M1856.0067,-358.3733C1823.8036,-348.9807 1774.6684,-334.6496 1739.5487,-324.4064"/>
<polygon fill="#191970" stroke="#191970" points="1740.168,-320.9412 1729.5879,-321.5011 1738.2079,-327.6612 1740.168,-320.9412"/>
</g>
<!-- Node50&#45;&gt;Node33 -->
<g id="edge96" class="edge">
<title>Node50&#45;&gt;Node33</title>
<path fill="none" stroke="#191970" d="M1918.2367,-358.3733C1946.5051,-349.0613 1989.5092,-334.8953 2020.547,-324.671"/>
<polygon fill="#191970" stroke="#191970" points="2021.7671,-327.9542 2030.17,-321.5011 2019.5769,-321.3056 2021.7671,-327.9542"/>
</g>
<!-- Node50&#45;&gt;Node35 -->
<g id="edge94" class="edge">
<title>Node50&#45;&gt;Node35</title>
<path fill="none" stroke="#191970" d="M1938.5293,-361.75C1986.3062,-354.9008 2060.27,-342.1281 2122.0127,-322 2142.0519,-315.4672 2144.8583,-308.1684 2165.0127,-302 2261.8506,-272.3621 2291.856,-290.9252 2390.0127,-266 2393.1526,-265.2027 2396.3855,-264.2761 2399.6057,-263.2801"/>
<polygon fill="#191970" stroke="#191970" points="2400.7204,-266.598 2409.1224,-260.1438 2398.5294,-259.9497 2400.7204,-266.598"/>
</g>
<!-- Node52&#45;&gt;Node25 -->
<g id="edge99" class="edge">
<title>Node52&#45;&gt;Node25</title>
<path fill="none" stroke="#191970" d="M1968.0397,-414.2821C1967.518,-399.7493 1964.2663,-372.5138 1948.0127,-358 1918.1971,-331.3761 1805.698,-319.4299 1741.8972,-314.6978"/>
<polygon fill="#191970" stroke="#191970" points="1741.9405,-311.1921 1731.7173,-313.9733 1741.4435,-318.1744 1741.9405,-311.1921"/>
</g>
<!-- Node52&#45;&gt;Node33 -->
<g id="edge102" class="edge">
<title>Node52&#45;&gt;Node33</title>
<path fill="none" stroke="#191970" d="M1975.7713,-414.4509C1991.0833,-395.6054 2025.3875,-353.3849 2044.8411,-329.4419"/>
<polygon fill="#191970" stroke="#191970" points="2047.6841,-331.4931 2051.2737,-321.5249 2042.2513,-327.079 2047.6841,-331.4931"/>
</g>
<!-- Node52&#45;&gt;Node35 -->
<g id="edge100" class="edge">
<title>Node52&#45;&gt;Node35</title>
<path fill="none" stroke="#191970" d="M1993.7306,-414.4248C2072.2602,-385.1868 2309.037,-297.0306 2398.9031,-263.5719"/>
<polygon fill="#191970" stroke="#191970" points="2400.2239,-266.8149 2408.3742,-260.0457 2397.7814,-260.2549 2400.2239,-266.8149"/>
</g>
<!-- Node52&#45;&gt;Node50 -->
<g id="edge101" class="edge">
<title>Node52&#45;&gt;Node50</title>
<path fill="none" stroke="#191970" d="M1954.2519,-414.2455C1942.3574,-405.814 1924.9477,-393.4729 1911.1041,-383.6598"/>
<polygon fill="#191970" stroke="#191970" points="1912.798,-380.5704 1902.6157,-377.6427 1908.7499,-386.2811 1912.798,-380.5704"/>
</g>
<!-- Node54&#45;&gt;Node25 -->
<g id="edge105" class="edge">
<title>Node54&#45;&gt;Node25</title>
<path fill="none" stroke="#191970" d="M1985.8964,-470.4433C1966.9507,-461.3502 1937.8493,-447.1438 1913.0127,-434 1843.0592,-396.9799 1762.2326,-350.2427 1722.1901,-326.8155"/>
<polygon fill="#191970" stroke="#191970" points="1723.7698,-323.6845 1713.3726,-321.6475 1720.2302,-329.7237 1723.7698,-323.6845"/>
</g>
<!-- Node54&#45;&gt;Node29 -->
<g id="edge106" class="edge">
<title>Node54&#45;&gt;Node29</title>
<path fill="none" stroke="#191970" d="M1952.9413,-477.1104C1822.4342,-469.8439 1488.4695,-450.2302 1378.0127,-434 1186.4392,-405.8507 962.2155,-348.1003 870.894,-323.5038"/>
<polygon fill="#191970" stroke="#191970" points="871.7597,-320.1123 861.1928,-320.8807 869.9325,-326.8696 871.7597,-320.1123"/>
</g>
<!-- Node54&#45;&gt;Node33 -->
<g id="edge109" class="edge">
<title>Node54&#45;&gt;Node33</title>
<path fill="none" stroke="#191970" d="M2009.8528,-470.1969C2013.4312,-460.9297 2018.8287,-446.6057 2023.0127,-434 2034.9572,-398.0125 2047.0739,-355.4169 2053.7585,-331.2669"/>
<polygon fill="#191970" stroke="#191970" points="2057.1513,-332.1289 2056.4274,-321.5589 2050.4017,-330.2733 2057.1513,-332.1289"/>
</g>
<!-- Node54&#45;&gt;Node35 -->
<g id="edge107" class="edge">
<title>Node54&#45;&gt;Node35</title>
<path fill="none" stroke="#191970" d="M2023.8584,-470.4309C2090.7505,-434.5623 2326.8696,-307.9517 2407.1011,-264.9304"/>
<polygon fill="#191970" stroke="#191970" points="2408.9318,-267.9202 2416.0908,-260.11 2405.6238,-261.7511 2408.9318,-267.9202"/>
</g>
<!-- Node54&#45;&gt;Node52 -->
<g id="edge108" class="edge">
<title>Node54&#45;&gt;Node52</title>
<path fill="none" stroke="#191970" d="M1999.3936,-470.2455C1994.1081,-462.4564 1986.5585,-451.3308 1980.1889,-441.9439"/>
<polygon fill="#191970" stroke="#191970" points="1983.0671,-439.9522 1974.5559,-433.6427 1977.2748,-443.8827 1983.0671,-439.9522"/>
</g>
<!-- Node57&#45;&gt;Node7 -->
<g id="edge113" class="edge">
<title>Node57&#45;&gt;Node7</title>
<path fill="none" stroke="#191970" d="M1204.4,-358.4686C1170.2482,-344.8838 1104.9183,-319.6474 1048.0127,-302 986.238,-282.8427 968.5467,-285.9167 907.0127,-266 848.045,-246.9139 781.2466,-219.1502 743.1252,-202.6976"/>
<polygon fill="#191970" stroke="#191970" points="744.1852,-199.3423 733.6184,-198.5721 741.3986,-205.7638 744.1852,-199.3423"/>
</g>
<!-- Node57&#45;&gt;Node33 -->
<g id="edge114" class="edge">
<title>Node57&#45;&gt;Node33</title>
<path fill="none" stroke="#191970" d="M1291.1957,-358.9425C1294.1739,-358.6044 1297.1243,-358.2877 1300.0127,-358 1556.77,-332.4279 1863.9064,-319.0895 1994.8194,-314.2107"/>
<polygon fill="#191970" stroke="#191970" points="1995.1989,-317.6992 2005.0631,-313.8329 1994.9408,-310.704 1995.1989,-317.6992"/>
</g>
<!-- Node59&#45;&gt;Node5 -->
<g id="edge117" class="edge">
<title>Node59&#45;&gt;Node5</title>
<path fill="none" stroke="#191970" d="M1099.1893,-470.3935C1099.1956,-440.9858 1095.162,-351.2073 1048.0127,-302 1013.0077,-265.4671 969.5969,-307.046 940.0127,-266 885.3304,-190.1324 959.0314,-72.6671 991.2622,-28.0366"/>
<polygon fill="#191970" stroke="#191970" points="994.155,-30.0111 997.2777,-19.8869 988.523,-25.854 994.155,-30.0111"/>
</g>
<!-- Node59&#45;&gt;Node7 -->
<g id="edge118" class="edge">
<title>Node59&#45;&gt;Node7</title>
<path fill="none" stroke="#191970" d="M1041.0394,-470.4879C952.3923,-454.7634 789.2761,-420.7912 750.0127,-378 706.3338,-330.3967 706.9199,-247.1243 709.8509,-209.0391"/>
<polygon fill="#191970" stroke="#191970" points="713.3656,-209.0366 710.7894,-198.7597 706.3946,-208.4001 713.3656,-209.0366"/>
</g>
<!-- Node59&#45;&gt;Node8 -->
<g id="edge119" class="edge">
<title>Node59&#45;&gt;Node8</title>
<path fill="none" stroke="#191970" d="M1104.1791,-470.1216C1119.4308,-440.3312 1164.1223,-348.3557 1179.0127,-266 1181.464,-252.442 1181.0405,-248.6277 1179.0127,-235 1177.6799,-226.0439 1174.9632,-216.419 1172.2746,-208.3"/>
<polygon fill="#191970" stroke="#191970" points="1175.5062,-206.9402 1168.875,-198.6772 1168.906,-209.272 1175.5062,-206.9402"/>
</g>
<!-- Node59&#45;&gt;Node24 -->
<g id="edge121" class="edge">
<title>Node59&#45;&gt;Node24</title>
<path fill="none" stroke="#191970" d="M1013.7411,-470.4686C911.7742,-459.0711 743.8759,-440.3041 655.8961,-430.47"/>
<polygon fill="#191970" stroke="#191970" points="656.1575,-426.9775 645.8306,-429.3449 655.3798,-433.9342 656.1575,-426.9775"/>
</g>
<!-- Node59&#45;&gt;Node44 -->
<g id="edge120" class="edge">
<title>Node59&#45;&gt;Node44</title>
<path fill="none" stroke="#191970" d="M1155.879,-470.4369C1217.427,-460.0865 1314.9551,-443.6854 1376.1203,-433.3993"/>
<polygon fill="#191970" stroke="#191970" points="1377.0756,-436.7879 1386.3566,-431.6779 1375.9146,-429.8848 1377.0756,-436.7879"/>
</g>
<!-- Node60&#45;&gt;Node3 -->
<g id="edge125" class="edge">
<title>Node60&#45;&gt;Node3</title>
<path fill="none" stroke="#191970" d="M367.6805,-358.4369C417.0979,-347.0952 498.1707,-328.4883 541.1556,-318.6229"/>
<polygon fill="#191970" stroke="#191970" points="542.0087,-322.0182 550.9724,-316.3699 540.4428,-315.1956 542.0087,-322.0182"/>
</g>
<!-- Node60&#45;&gt;Node7 -->
<g id="edge127" class="edge">
<title>Node60&#45;&gt;Node7</title>
<path fill="none" stroke="#191970" d="M339.9958,-358.3757C375.0832,-334.5834 470.2626,-272.2359 557.0127,-235 597.5113,-217.6167 646.6368,-204.2532 678.5736,-196.5175"/>
<polygon fill="#191970" stroke="#191970" points="679.3857,-199.9221 688.306,-194.2057 677.7679,-193.1116 679.3857,-199.9221"/>
</g>
<!-- Node60&#45;&gt;Node26 -->
<g id="edge126" class="edge">
<title>Node60&#45;&gt;Node26</title>
<path fill="none" stroke="#191970" d="M313.4712,-358.2455C302.7339,-349.8943 287.0653,-337.7076 274.508,-327.9408"/>
<polygon fill="#191970" stroke="#191970" points="276.4527,-325.0194 266.4104,-321.6427 272.1551,-330.5449 276.4527,-325.0194"/>
</g>
<!-- Node60&#45;&gt;Node29 -->
<g id="edge123" class="edge">
<title>Node60&#45;&gt;Node29</title>
<path fill="none" stroke="#191970" d="M375.5515,-359.3647C378.7499,-358.8811 381.9245,-358.4212 385.0127,-358 532.1675,-337.9278 707.8262,-322.1287 786.8427,-315.4539"/>
<polygon fill="#191970" stroke="#191970" points="787.2179,-318.9349 796.89,-314.6105 786.6322,-311.9594 787.2179,-318.9349"/>
</g>
<!-- Node61 -->
<g id="node50" class="node">
<title>Node61</title>
<polygon fill="#ffffff" stroke="#bfbfbf" points="288.0127,-302.5 288.0127,-321.5 332.0127,-321.5 332.0127,-302.5 288.0127,-302.5"/>
<text text-anchor="middle" x="310.0127" y="-309.5" font-family="Helvetica,sans-Serif" font-size="10.00" fill="#000000">limits</text>
</g>
<!-- Node60&#45;&gt;Node61 -->
<g id="edge124" class="edge">
<title>Node60&#45;&gt;Node61</title>
<path fill="none" stroke="#191970" d="M323.2257,-358.2455C321.1149,-350.8579 318.1466,-340.4689 315.558,-331.4087"/>
<polygon fill="#191970" stroke="#191970" points="318.8803,-330.2964 312.7677,-321.6427 312.1497,-332.2195 318.8803,-330.2964"/>
</g>
</g>
</svg>
        <g id="navigator" transform="translate(0 0)" fill="#404254">
                <rect fill="#f2f5e9" fill-opacity="0.5" stroke="#606060" stroke-width=".5" x="0" y="0" width="60" height="60"/>
                <use id="zoomplus" xlink:href="#zoomPlus" x="17" y="9" onmousedown="handleZoom(evt,'in')"/>
                <use id="zoomminus" xlink:href="#zoomMin" x="42" y="9" onmousedown="handleZoom(evt,'out')"/>
                <use id="reset" xlink:href="#resetDef" x="30" y="36" onmousedown="handleReset()"/>
                <g id="arrowUp" xlink:href="#dirArrow" transform="translate(30 24)" onmousedown="handlePan(0,-1)">
                  <use xlink:href="#rim" fill="#404040">
                        <set attributeName="fill" to="#808080" begin="arrowUp.mouseover" end="arrowUp.mouseout"/>
                  </use>
                  <path fill="none" stroke="white" stroke-width="1.5" d="M0,-3.0v7 M-2.5,-0.5L0,-3.0L2.5,-0.5"/>
                </g>
                <g id="arrowRight" xlink:href="#dirArrow" transform="rotate(90) translate(36 -43)" onmousedown="handlePan(1,0)">
                  <use xlink:href="#rim" fill="#404040">
                        <set attributeName="fill" to="#808080" begin="arrowRight.mouseover" end="arrowRight.mouseout"/>
                  </use>
                  <path fill="none" stroke="white" stroke-width="1.5" d="M0,-3.0v7 M-2.5,-0.5L0,-3.0L2.5,-0.5"/>
                </g>
                <g id="arrowDown" xlink:href="#dirArrow" transform="rotate(180) translate(-30 -48)" onmousedown="handlePan(0,1)">
                  <use xlink:href="#rim" fill="#404040">
                        <set attributeName="fill" to="#808080" begin="arrowDown.mouseover" end="arrowDown.mouseout"/>
                  </use>
                  <path fill="none" stroke="white" stroke-width="1.5" d="M0,-3.0v7 M-2.5,-0.5L0,-3.0L2.5,-0.5"/>
                </g>
                <g id="arrowLeft" xlink:href="#dirArrow" transform="rotate(270) translate(-36 17)" onmousedown="handlePan(-1,0)">
                  <use xlink:href="#rim" fill="#404040">
                        <set attributeName="fill" to="#808080" begin="arrowLeft.mouseover" end="arrowLeft.mouseout"/>
                  </use>
                  <path fill="none" stroke="white" stroke-width="1.5" d="M0,-3.0v7 M-2.5,-0.5L0,-3.0L2.5,-0.5"/>
                </g>
        </g>
        <svg viewBox="0 0 15 15" width="100%" height="30px" preserveAspectRatio="xMaxYMin meet">
         <g id="arrow_out" transform="scale(0.3 0.3)">
          <a xlink:href="MeshConfiguration_8cpp__incl_org.svg" target="_base">
           <rect id="button" ry="5" rx="5" y="6" x="6" height="38" width="38"
                fill="#f2f5e9" fill-opacity="0.5" stroke="#606060" stroke-width="1.0"/>
           <path id="arrow"
             d="M 11.500037,31.436501 C 11.940474,20.09759 22.043105,11.32322 32.158766,21.979434 L 37.068811,17.246167 C 37.068811,17.246167 37.088388,32 37.088388,32 L 22.160133,31.978069 C 22.160133,31.978069 26.997745,27.140456 26.997745,27.140456 C 18.528582,18.264221 13.291696,25.230495 11.500037,31.436501 z"
             style="fill:#404040;"/>
          </a>
         </g>
        </svg>
</svg>
