<?xml version="1.0" encoding="UTF-8" standalone="no"?>
<!DOCTYPE svg PUBLIC "-//W3C//DTD SVG 1.1//EN"
 "http://www.w3.org/Graphics/SVG/1.1/DTD/svg11.dtd">
<!-- Generated by graphviz version 2.40.1 (20161225.0304)
 -->
<!-- Title: BOOST_AUTO_TEST_CASE Pages: 1 -->
<svg width="536pt" height="321pt"
 viewBox="0.00 0.00 536.00 320.50" xmlns="http://www.w3.org/2000/svg" xmlns:xlink="http://www.w3.org/1999/xlink">
<g id="graph0" class="graph" transform="scale(1 1) rotate(0) translate(4 316.5)">
<title>BOOST_AUTO_TEST_CASE</title>
<polygon fill="#ffffff" stroke="transparent" points="-4,4 -4,-316.5 532,-316.5 532,4 -4,4"/>
<!-- Node116 -->
<g id="node1" class="node">
<title>Node116</title>
<polygon fill="#bfbfbf" stroke="#000000" points="0,-142.5 0,-161.5 143,-161.5 143,-142.5 0,-142.5"/>
<text text-anchor="middle" x="71.5" y="-149.5" font-family="Helvetica,sans-Serif" font-size="10.00" fill="#000000">BOOST_AUTO_TEST_CASE</text>
</g>
<!-- Node117 -->
<g id="node2" class="node">
<title>Node117</title>
<g id="a_node2"><a xlink:href="namespaceprecice_1_1testing.html#a08533fd83bad3d7f27ea7f4a35a14aa4" target="_top" xlink:title="precice::testing::nextMeshID">
<polygon fill="#ffffff" stroke="#000000" points="179,-286.5 179,-305.5 334,-305.5 334,-286.5 179,-286.5"/>
<text text-anchor="middle" x="256.5" y="-293.5" font-family="Helvetica,sans-Serif" font-size="10.00" fill="#000000">precice::testing::nextMeshID</text>
</a>
</g>
</g>
<!-- Node116&#45;&gt;Node117 -->
<g id="edge1" class="edge">
<title>Node116&#45;&gt;Node117</title>
<path fill="none" stroke="#191970" d="M77.1374,-161.7097C91.189,-185.0238 130.1786,-244.4881 179,-275 183.9225,-278.0764 189.2941,-280.7076 194.8384,-282.957"/>
<polygon fill="#191970" stroke="#191970" points="193.6895,-286.2634 204.2835,-286.3935 196.0829,-279.6853 193.6895,-286.2634"/>
</g>
<!-- Node119 -->
<g id="node4" class="node">
<title>Node119</title>
<g id="a_node4"><a xlink:href="classprecice_1_1mesh_1_1Mesh.html#a6e387c9e2c5ccd43dcf81d57795ba935" target="_top" xlink:title="precice::mesh::Mesh\l::createData">
<polygon fill="#ffffff" stroke="#000000" points="198.5,-235 198.5,-265 314.5,-265 314.5,-235 198.5,-235"/>
<text text-anchor="start" x="206.5" y="-253" font-family="Helvetica,sans-Serif" font-size="10.00" fill="#000000">precice::mesh::Mesh</text>
<text text-anchor="middle" x="256.5" y="-242" font-family="Helvetica,sans-Serif" font-size="10.00" fill="#000000">::createData</text>
</a>
</g>
</g>
<!-- Node116&#45;&gt;Node119 -->
<g id="edge3" class="edge">
<title>Node116&#45;&gt;Node119</title>
<path fill="none" stroke="#191970" d="M83.017,-161.6977C101.9403,-177.2082 141.2855,-207.7076 179,-226 182.8495,-227.8671 186.8766,-229.629 190.9849,-231.2844"/>
<polygon fill="#191970" stroke="#191970" points="190.0816,-234.6848 200.673,-234.9531 192.5606,-228.1385 190.0816,-234.6848"/>
</g>
<!-- Node122 -->
<g id="node7" class="node">
<title>Node122</title>
<g id="a_node7"><a xlink:href="classprecice_1_1mesh_1_1Mesh.html#af6e6d684553dc5d0f0a23cacb77b3fc7" target="_top" xlink:title="Creates and initializes a Vertex object. ">
<polygon fill="#ffffff" stroke="#000000" points="198.5,-186 198.5,-216 314.5,-216 314.5,-186 198.5,-186"/>
<text text-anchor="start" x="206.5" y="-204" font-family="Helvetica,sans-Serif" font-size="10.00" fill="#000000">precice::mesh::Mesh</text>
<text text-anchor="middle" x="256.5" y="-193" font-family="Helvetica,sans-Serif" font-size="10.00" fill="#000000">::createVertex</text>
</a>
</g>
</g>
<!-- Node116&#45;&gt;Node122 -->
<g id="edge6" class="edge">
<title>Node116&#45;&gt;Node122</title>
<path fill="none" stroke="#191970" d="M107.609,-161.564C131.0307,-167.7676 162.2523,-176.0371 190.0547,-183.401"/>
<polygon fill="#191970" stroke="#191970" points="189.165,-186.7859 199.7278,-185.963 190.9573,-180.0193 189.165,-186.7859"/>
</g>
<!-- Node123 -->
<g id="node8" class="node">
<title>Node123</title>
<g id="a_node8"><a xlink:href="classprecice_1_1mesh_1_1Mesh.html#a13faa9b03e5d20918ed6528db1415fa3" target="_top" xlink:title="Returns modifieable container holding all vertices. ">
<polygon fill="#ffffff" stroke="#000000" points="198.5,-137 198.5,-167 314.5,-167 314.5,-137 198.5,-137"/>
<text text-anchor="start" x="206.5" y="-155" font-family="Helvetica,sans-Serif" font-size="10.00" fill="#000000">precice::mesh::Mesh</text>
<text text-anchor="middle" x="256.5" y="-144" font-family="Helvetica,sans-Serif" font-size="10.00" fill="#000000">::vertices</text>
</a>
</g>
</g>
<!-- Node116&#45;&gt;Node123 -->
<g id="edge7" class="edge">
<title>Node116&#45;&gt;Node123</title>
<path fill="none" stroke="#191970" d="M143.0258,-152C157.8962,-152 173.53,-152 188.2777,-152"/>
<polygon fill="#191970" stroke="#191970" points="188.3258,-155.5001 198.3258,-152 188.3258,-148.5001 188.3258,-155.5001"/>
</g>
<!-- Node124 -->
<g id="node9" class="node">
<title>Node124</title>
<g id="a_node9"><a xlink:href="classprecice_1_1mesh_1_1Mesh.html#afa920f8d8d32076837ae5e3dc28b0eea" target="_top" xlink:title="Allocates memory for the vertex data values. ">
<polygon fill="#ffffff" stroke="#000000" points="198,-39 198,-69 315,-69 315,-39 198,-39"/>
<text text-anchor="start" x="206" y="-57" font-family="Helvetica,sans-Serif" font-size="10.00" fill="#000000">precice::mesh::Mesh</text>
<text text-anchor="middle" x="256.5" y="-46" font-family="Helvetica,sans-Serif" font-size="10.00" fill="#000000">::allocateDataValues</text>
</a>
</g>
</g>
<!-- Node116&#45;&gt;Node124 -->
<g id="edge8" class="edge">
<title>Node116&#45;&gt;Node124</title>
<path fill="none" stroke="#191970" d="M83.066,-142.4955C102.0581,-127.2818 141.4979,-97.3145 179,-79 183.5674,-76.7695 188.3804,-74.6724 193.2801,-72.7152"/>
<polygon fill="#191970" stroke="#191970" points="194.653,-75.938 202.7674,-69.1257 192.1759,-69.3909 194.653,-75.938"/>
</g>
<!-- Node126 -->
<g id="node11" class="node">
<title>Node126</title>
<g id="a_node11"><a xlink:href="classprecice_1_1mesh_1_1Mesh.html#a20584f10c9c7568d038b8a4bb9d7a7c8" target="_top" xlink:title="Removes all mesh elements and data values (does not remove data). ">
<polygon fill="#ffffff" stroke="#000000" points="198.5,-88 198.5,-118 314.5,-118 314.5,-88 198.5,-88"/>
<text text-anchor="start" x="206.5" y="-106" font-family="Helvetica,sans-Serif" font-size="10.00" fill="#000000">precice::mesh::Mesh</text>
<text text-anchor="middle" x="256.5" y="-95" font-family="Helvetica,sans-Serif" font-size="10.00" fill="#000000">::clear</text>
</a>
</g>
</g>
<!-- Node116&#45;&gt;Node126 -->
<g id="edge11" class="edge">
<title>Node116&#45;&gt;Node126</title>
<path fill="none" stroke="#191970" d="M107.609,-142.436C131.0307,-136.2324 162.2523,-127.9629 190.0547,-120.599"/>
<polygon fill="#191970" stroke="#191970" points="190.9573,-123.9807 199.7278,-118.037 189.165,-117.2141 190.9573,-123.9807"/>
</g>
<!-- Node127 -->
<g id="node12" class="node">
<title>Node127</title>
<g id="a_node12"><a xlink:href="MPIPortsCommunicationTest_8cpp.html#a5ded28ea5c98cb27bf0cfcf344588d46" target="_top" xlink:title="BOOST_AUTO_TEST_SUITE">
<polygon fill="#ffffff" stroke="#000000" points="183.5,-.5 183.5,-19.5 329.5,-19.5 329.5,-.5 183.5,-.5"/>
<text text-anchor="middle" x="256.5" y="-7.5" font-family="Helvetica,sans-Serif" font-size="10.00" fill="#000000">BOOST_AUTO_TEST_SUITE</text>
</a>
</g>
</g>
<!-- Node116&#45;&gt;Node127 -->
<g id="edge13" class="edge">
<title>Node116&#45;&gt;Node127</title>
<path fill="none" stroke="#191970" d="M77.0904,-142.2141C91.0376,-118.7307 129.8131,-58.9191 179,-29 182.5951,-26.8132 186.4281,-24.8778 190.392,-23.1651"/>
<polygon fill="#191970" stroke="#191970" points="191.7366,-26.3982 199.8282,-19.5589 189.2377,-19.8594 191.7366,-26.3982"/>
</g>
<!-- Node118 -->
<g id="node3" class="node">
<title>Node118</title>
<g id="a_node3"><a xlink:href="classprecice_1_1utils_1_1ManageUniqueIDs.html#a02be264c279698ae293587b6576088b5" target="_top" xlink:title="precice::utils::ManageUnique\lIDs::getFreeID">
<polygon fill="#ffffff" stroke="#000000" points="370,-282 370,-312 528,-312 528,-282 370,-282"/>
<text text-anchor="start" x="378" y="-300" font-family="Helvetica,sans-Serif" font-size="10.00" fill="#000000">precice::utils::ManageUnique</text>
<text text-anchor="middle" x="449" y="-289" font-family="Helvetica,sans-Serif" font-size="10.00" fill="#000000">IDs::getFreeID</text>
</a>
</g>
</g>
<!-- Node117&#45;&gt;Node118 -->
<g id="edge2" class="edge">
<title>Node117&#45;&gt;Node118</title>
<path fill="none" stroke="#191970" d="M334.2422,-296.4039C342.5509,-296.447 351.0508,-296.4912 359.4814,-296.535"/>
<polygon fill="#191970" stroke="#191970" points="359.6951,-300.036 369.7132,-296.5881 359.7315,-293.0361 359.6951,-300.036"/>
</g>
<!-- Node120 -->
<g id="node5" class="node">
<title>Node120</title>
<g id="a_node5"><a xlink:href="classprecice_1_1mesh_1_1Mesh.html#aceb3eabb4f8e40a44d5d1c2822ba7b56" target="_top" xlink:title="precice::mesh::Mesh\l::data">
<polygon fill="#ffffff" stroke="#000000" points="391,-88 391,-118 507,-118 507,-88 391,-88"/>
<text text-anchor="start" x="399" y="-106" font-family="Helvetica,sans-Serif" font-size="10.00" fill="#000000">precice::mesh::Mesh</text>
<text text-anchor="middle" x="449" y="-95" font-family="Helvetica,sans-Serif" font-size="10.00" fill="#000000">::data</text>
</a>
</g>
</g>
<!-- Node119&#45;&gt;Node120 -->
<g id="edge4" class="edge">
<title>Node119&#45;&gt;Node120</title>
<path fill="none" stroke="#191970" d="M314.6921,-235.652C321.4386,-232.9328 328.0318,-229.7389 334,-226 376.0264,-199.6717 412.8529,-154.2254 432.9165,-126.5598"/>
<polygon fill="#191970" stroke="#191970" points="435.8836,-128.4267 438.827,-118.2489 430.1791,-124.3698 435.8836,-128.4267"/>
</g>
<!-- Node121 -->
<g id="node6" class="node">
<title>Node121</title>
<g id="a_node6"><a xlink:href="classprecice_1_1mesh_1_1Data.html#a571e94df898349b76b6c4ce8db34ccd1" target="_top" xlink:title="Returns the number of created (and still existing) Data objects. ">
<polygon fill="#ffffff" stroke="#000000" points="392,-233 392,-263 506,-263 506,-233 392,-233"/>
<text text-anchor="start" x="400" y="-251" font-family="Helvetica,sans-Serif" font-size="10.00" fill="#000000">precice::mesh::Data</text>
<text text-anchor="middle" x="449" y="-240" font-family="Helvetica,sans-Serif" font-size="10.00" fill="#000000">::getDataCount</text>
</a>
</g>
</g>
<!-- Node119&#45;&gt;Node121 -->
<g id="edge5" class="edge">
<title>Node119&#45;&gt;Node121</title>
<path fill="none" stroke="#191970" d="M314.5174,-249.3972C335.638,-249.1778 359.6914,-248.9279 381.5594,-248.7007"/>
<polygon fill="#191970" stroke="#191970" points="381.8013,-252.1985 391.7643,-248.5947 381.7285,-245.1988 381.8013,-252.1985"/>
</g>
<!-- Node124&#45;&gt;Node120 -->
<g id="edge9" class="edge">
<title>Node124&#45;&gt;Node120</title>
<path fill="none" stroke="#191970" d="M315.0404,-68.9012C335.8558,-74.1997 359.4661,-80.2096 381.0051,-85.6922"/>
<polygon fill="#191970" stroke="#191970" points="380.1837,-89.0947 390.7381,-88.1697 381.9105,-82.311 380.1837,-89.0947"/>
</g>
<!-- Node125 -->
<g id="node10" class="node">
<title>Node125</title>
<g id="a_node10"><a xlink:href="namespaceprecice_1_1utils.html#a70a03ea1367189736d49351c6385c8c9" target="_top" xlink:title="precice::utils::append">
<polygon fill="#ffffff" stroke="#000000" points="388.5,-44.5 388.5,-63.5 509.5,-63.5 509.5,-44.5 388.5,-44.5"/>
<text text-anchor="middle" x="449" y="-51.5" font-family="Helvetica,sans-Serif" font-size="10.00" fill="#000000">precice::utils::append</text>
</a>
</g>
</g>
<!-- Node124&#45;&gt;Node125 -->
<g id="edge10" class="edge">
<title>Node124&#45;&gt;Node125</title>
<path fill="none" stroke="#191970" d="M315.0404,-54C335.0028,-54 357.5359,-54 378.3472,-54"/>
<polygon fill="#191970" stroke="#191970" points="378.4066,-57.5001 388.4066,-54 378.4065,-50.5001 378.4066,-57.5001"/>
</g>
<!-- Node126&#45;&gt;Node120 -->
<g id="edge12" class="edge">
<title>Node126&#45;&gt;Node120</title>
<path fill="none" stroke="#191970" d="M314.5174,-103C335.3513,-103 359.0389,-103 380.6676,-103"/>
<polygon fill="#191970" stroke="#191970" points="380.7693,-106.5001 390.7693,-103 380.7692,-99.5001 380.7693,-106.5001"/>
</g>
</g>
</svg>
