<?xml version="1.0" encoding="UTF-8" standalone="no"?>
<!DOCTYPE svg PUBLIC "-//W3C//DTD SVG 1.1//EN"
 "http://www.w3.org/Graphics/SVG/1.1/DTD/svg11.dtd">
<!-- Generated by graphviz version 2.40.1 (20161225.0304)
 -->
<!-- Title: src/cplscheme/impl/MinIterationConvergenceMeasure.hpp Pages: 1 -->
<!--zoomable 117 -->
<svg id="main" version="1.1" xmlns="http://www.w3.org/2000/svg" xmlns:xlink="http://www.w3.org/1999/xlink" xml:space="preserve" onload="init(evt)">
<style type="text/css"><![CDATA[
.edge:hover path { stroke: red; }
.edge:hover polygon { stroke: red; fill: red; }
]]></style>
<script type="text/javascript"><![CDATA[
var edges = document.getElementsByTagName('g');
if (edges && edges.length) {
  for (var i=0;i<edges.length;i++) {
    if (edges[i].id.substr(0,4)=='edge') {
      edges[i].setAttribute('class','edge');
    }
  }
}
]]></script>
        <defs>
                <circle id="rim" cx="0" cy="0" r="7"/>
                <circle id="rim2" cx="0" cy="0" r="3.5"/>
                <g id="zoomPlus">
                        <use xlink:href="#rim" fill="#404040">
                                <set attributeName="fill" to="#808080" begin="zoomplus.mouseover" end="zoomplus.mouseout"/>
                        </use>
                        <path d="M-4,0h8M0,-4v8" fill="none" stroke="white" stroke-width="1.5" pointer-events="none"/>
                </g>
                <g id="zoomMin">
                        <use xlink:href="#rim" fill="#404040">
                                <set attributeName="fill" to="#808080" begin="zoomminus.mouseover" end="zoomminus.mouseout"/>
                        </use>
                        <path d="M-4,0h8" fill="none" stroke="white" stroke-width="1.5" pointer-events="none"/>
                </g>
                <g id="dirArrow">
                        <path fill="none" stroke="white" stroke-width="1.5" d="M0,-3.0v7 M-2.5,-0.5L0,-3.0L2.5,-0.5"/>
                </g>
               <g id="resetDef">
                       <use xlink:href="#rim2" fill="#404040">
                               <set attributeName="fill" to="#808080" begin="reset.mouseover" end="reset.mouseout"/>
                       </use>
               </g>
        </defs>

<script type="text/javascript">
var viewWidth = 910;
var viewHeight = 117;
var sectionId = 'dynsection-1';
</script>
<script xlink:href="svgpan.js"/>
<svg id="graph" class="graph">
<g id="viewport">
<title>src/cplscheme/impl/MinIterationConvergenceMeasure.hpp</title>
<polygon fill="#ffffff" stroke="transparent" points="-4,4 -4,-113 906,-113 906,4 -4,4"/>
<!-- Node33 -->
<g id="node1" class="node">
<title>Node33</title>
<polygon fill="#bfbfbf" stroke="#000000" points="382.5,-78.5 382.5,-108.5 567.5,-108.5 567.5,-78.5 382.5,-78.5"/>
<text text-anchor="start" x="390.5" y="-96.5" font-family="Helvetica,sans-Serif" font-size="10.00" fill="#000000">src/cplscheme/impl</text>
<text text-anchor="middle" x="475" y="-85.5" font-family="Helvetica,sans-Serif" font-size="10.00" fill="#000000">/MinIterationConvergenceMeasure.hpp</text>
</g>
<!-- Node34 -->
<g id="node2" class="node">
<title>Node34</title>
<g id="a_node2"><a xlink:href="CouplingSchemeConfiguration_8cpp.html" target="_top" xlink:title="src/cplscheme/config\l/CouplingSchemeConfiguration.cpp">
<polygon fill="#ffffff" stroke="#000000" points="0,-6 0,-36 170,-36 170,-6 0,-6"/>
<text text-anchor="start" x="8" y="-24" font-family="Helvetica,sans-Serif" font-size="10.00" fill="#000000">src/cplscheme/config</text>
<text text-anchor="middle" x="85" y="-13" font-family="Helvetica,sans-Serif" font-size="10.00" fill="#000000">/CouplingSchemeConfiguration.cpp</text>
</a>
</g>
</g>
<!-- Node33&#45;&gt;Node34 -->
<g id="edge1" class="edge">
<title>Node33&#45;&gt;Node34</title>
<path fill="none" stroke="#191970" d="M372.3527,-76.8742C315.2895,-67.3223 243.0705,-54.723 179,-42 169.7332,-40.1598 159.978,-38.109 150.4016,-36.0301"/>
<polygon fill="#191970" stroke="#191970" points="372.0224,-80.3674 382.4622,-78.5611 373.1746,-73.4628 372.0224,-80.3674"/>
</g>
<!-- Node35 -->
<g id="node3" class="node">
<title>Node35</title>
<g id="a_node3"><a xlink:href="MinIterationConvergenceMeasure_8cpp.html" target="_top" xlink:title="src/cplscheme/impl\l/MinIterationConvergenceMeasure.cpp">
<polygon fill="#ffffff" stroke="#000000" points="188.5,-6 188.5,-36 373.5,-36 373.5,-6 188.5,-6"/>
<text text-anchor="start" x="196.5" y="-24" font-family="Helvetica,sans-Serif" font-size="10.00" fill="#000000">src/cplscheme/impl</text>
<text text-anchor="middle" x="281" y="-13" font-family="Helvetica,sans-Serif" font-size="10.00" fill="#000000">/MinIterationConvergenceMeasure.cpp</text>
</a>
</g>
</g>
<!-- Node33&#45;&gt;Node35 -->
<g id="edge2" class="edge">
<title>Node33&#45;&gt;Node35</title>
<path fill="none" stroke="#191970" d="M425.098,-74.8511C392.8014,-62.7814 351.3063,-47.2743 321.1454,-36.0028"/>
<polygon fill="#191970" stroke="#191970" points="424.2106,-78.2558 434.8031,-78.478 426.6611,-71.6987 424.2106,-78.2558"/>
</g>
<!-- Node36 -->
<g id="node4" class="node">
<title>Node36</title>
<g id="a_node4"><a xlink:href="MinIterationConvergenceMeasureTest_8cpp.html" target="_top" xlink:title="src/cplscheme/tests\l/MinIterationConvergenceMeasure\lTest.cpp">
<polygon fill="#ffffff" stroke="#000000" points="392,-.5 392,-41.5 558,-41.5 558,-.5 392,-.5"/>
<text text-anchor="start" x="400" y="-29.5" font-family="Helvetica,sans-Serif" font-size="10.00" fill="#000000">src/cplscheme/tests</text>
<text text-anchor="start" x="400" y="-18.5" font-family="Helvetica,sans-Serif" font-size="10.00" fill="#000000">/MinIterationConvergenceMeasure</text>
<text text-anchor="middle" x="475" y="-7.5" font-family="Helvetica,sans-Serif" font-size="10.00" fill="#000000">Test.cpp</text>
</a>
</g>
</g>
<!-- Node33&#45;&gt;Node36 -->
<g id="edge3" class="edge">
<title>Node33&#45;&gt;Node36</title>
<path fill="none" stroke="#191970" d="M475,-68.4016C475,-59.6173 475,-49.8652 475,-41.5015"/>
<polygon fill="#191970" stroke="#191970" points="471.5001,-68.4779 475,-78.478 478.5001,-68.478 471.5001,-68.4779"/>
</g>
<!-- Node37 -->
<g id="node5" class="node">
<title>Node37</title>
<g id="a_node5"><a xlink:href="ParallelImplicitCouplingSchemeTest_8cpp.html" target="_top" xlink:title="src/cplscheme/tests\l/ParallelImplicitCouplingScheme\lTest.cpp">
<polygon fill="#ffffff" stroke="#000000" points="576,-.5 576,-41.5 734,-41.5 734,-.5 576,-.5"/>
<text text-anchor="start" x="584" y="-29.5" font-family="Helvetica,sans-Serif" font-size="10.00" fill="#000000">src/cplscheme/tests</text>
<text text-anchor="start" x="584" y="-18.5" font-family="Helvetica,sans-Serif" font-size="10.00" fill="#000000">/ParallelImplicitCouplingScheme</text>
<text text-anchor="middle" x="655" y="-7.5" font-family="Helvetica,sans-Serif" font-size="10.00" fill="#000000">Test.cpp</text>
</a>
</g>
</g>
<!-- Node33&#45;&gt;Node37 -->
<g id="edge4" class="edge">
<title>Node33&#45;&gt;Node37</title>
<path fill="none" stroke="#191970" d="M521.6655,-74.7042C546.9387,-64.5247 578.2004,-51.9332 604.0997,-41.5015"/>
<polygon fill="#191970" stroke="#191970" points="520.2643,-71.4952 512.2961,-78.478 522.8796,-77.9883 520.2643,-71.4952"/>
</g>
<!-- Node38 -->
<g id="node6" class="node">
<title>Node38</title>
<g id="a_node6"><a xlink:href="SerialImplicitCouplingSchemeTest_8cpp.html" target="_top" xlink:title="src/cplscheme/tests\l/SerialImplicitCouplingScheme\lTest.cpp">
<polygon fill="#ffffff" stroke="#000000" points="752,-.5 752,-41.5 902,-41.5 902,-.5 752,-.5"/>
<text text-anchor="start" x="760" y="-29.5" font-family="Helvetica,sans-Serif" font-size="10.00" fill="#000000">src/cplscheme/tests</text>
<text text-anchor="start" x="760" y="-18.5" font-family="Helvetica,sans-Serif" font-size="10.00" fill="#000000">/SerialImplicitCouplingScheme</text>
<text text-anchor="middle" x="827" y="-7.5" font-family="Helvetica,sans-Serif" font-size="10.00" fill="#000000">Test.cpp</text>
</a>
</g>
</g>
<!-- Node33&#45;&gt;Node38 -->
<g id="edge5" class="edge">
<title>Node33&#45;&gt;Node38</title>
<path fill="none" stroke="#191970" d="M569.8342,-76.5937C621.2231,-67.1013 685.7487,-54.6472 743,-42 745.9357,-41.3515 748.9253,-40.6761 751.9426,-39.9821"/>
<polygon fill="#191970" stroke="#191970" points="568.9389,-73.1996 559.7376,-78.4519 570.2059,-80.084 568.9389,-73.1996"/>
</g>
</g>
</svg>
        <g id="navigator" transform="translate(0 0)" fill="#404254">
                <rect fill="#f2f5e9" fill-opacity="0.5" stroke="#606060" stroke-width=".5" x="0" y="0" width="60" height="60"/>
                <use id="zoomplus" xlink:href="#zoomPlus" x="17" y="9" onmousedown="handleZoom(evt,'in')"/>
                <use id="zoomminus" xlink:href="#zoomMin" x="42" y="9" onmousedown="handleZoom(evt,'out')"/>
                <use id="reset" xlink:href="#resetDef" x="30" y="36" onmousedown="handleReset()"/>
                <g id="arrowUp" xlink:href="#dirArrow" transform="translate(30 24)" onmousedown="handlePan(0,-1)">
                  <use xlink:href="#rim" fill="#404040">
                        <set attributeName="fill" to="#808080" begin="arrowUp.mouseover" end="arrowUp.mouseout"/>
                  </use>
                  <path fill="none" stroke="white" stroke-width="1.5" d="M0,-3.0v7 M-2.5,-0.5L0,-3.0L2.5,-0.5"/>
                </g>
                <g id="arrowRight" xlink:href="#dirArrow" transform="rotate(90) translate(36 -43)" onmousedown="handlePan(1,0)">
                  <use xlink:href="#rim" fill="#404040">
                        <set attributeName="fill" to="#808080" begin="arrowRight.mouseover" end="arrowRight.mouseout"/>
                  </use>
                  <path fill="none" stroke="white" stroke-width="1.5" d="M0,-3.0v7 M-2.5,-0.5L0,-3.0L2.5,-0.5"/>
                </g>
                <g id="arrowDown" xlink:href="#dirArrow" transform="rotate(180) translate(-30 -48)" onmousedown="handlePan(0,1)">
                  <use xlink:href="#rim" fill="#404040">
                        <set attributeName="fill" to="#808080" begin="arrowDown.mouseover" end="arrowDown.mouseout"/>
                  </use>
                  <path fill="none" stroke="white" stroke-width="1.5" d="M0,-3.0v7 M-2.5,-0.5L0,-3.0L2.5,-0.5"/>
                </g>
                <g id="arrowLeft" xlink:href="#dirArrow" transform="rotate(270) translate(-36 17)" onmousedown="handlePan(-1,0)">
                  <use xlink:href="#rim" fill="#404040">
                        <set attributeName="fill" to="#808080" begin="arrowLeft.mouseover" end="arrowLeft.mouseout"/>
                  </use>
                  <path fill="none" stroke="white" stroke-width="1.5" d="M0,-3.0v7 M-2.5,-0.5L0,-3.0L2.5,-0.5"/>
                </g>
        </g>
        <svg viewBox="0 0 15 15" width="100%" height="30px" preserveAspectRatio="xMaxYMin meet">
         <g id="arrow_out" transform="scale(0.3 0.3)">
          <a xlink:href="MinIterationConvergenceMeasure_8hpp__dep__incl_org.svg" target="_base">
           <rect id="button" ry="5" rx="5" y="6" x="6" height="38" width="38"
                fill="#f2f5e9" fill-opacity="0.5" stroke="#606060" stroke-width="1.0"/>
           <path id="arrow"
             d="M 11.500037,31.436501 C 11.940474,20.09759 22.043105,11.32322 32.158766,21.979434 L 37.068811,17.246167 C 37.068811,17.246167 37.088388,32 37.088388,32 L 22.160133,31.978069 C 22.160133,31.978069 26.997745,27.140456 26.997745,27.140456 C 18.528582,18.264221 13.291696,25.230495 11.500037,31.436501 z"
             style="fill:#404040;"/>
          </a>
         </g>
        </svg>
</svg>
