<?xml version="1.0" encoding="UTF-8" standalone="no"?>
<!DOCTYPE svg PUBLIC "-//W3C//DTD SVG 1.1//EN"
 "http://www.w3.org/Graphics/SVG/1.1/DTD/svg11.dtd">
<!-- Generated by graphviz version 2.40.1 (20161225.0304)
 -->
<!-- Title: src/com/MPIPortsCommunication.hpp Pages: 1 -->
<!--zoomable 374 -->
<svg id="main" version="1.1" xmlns="http://www.w3.org/2000/svg" xmlns:xlink="http://www.w3.org/1999/xlink" xml:space="preserve" onload="init(evt)">
<style type="text/css"><![CDATA[
.edge:hover path { stroke: red; }
.edge:hover polygon { stroke: red; fill: red; }
]]></style>
<script type="text/javascript"><![CDATA[
var edges = document.getElementsByTagName('g');
if (edges && edges.length) {
  for (var i=0;i<edges.length;i++) {
    if (edges[i].id.substr(0,4)=='edge') {
      edges[i].setAttribute('class','edge');
    }
  }
}
]]></script>
        <defs>
                <circle id="rim" cx="0" cy="0" r="7"/>
                <circle id="rim2" cx="0" cy="0" r="3.5"/>
                <g id="zoomPlus">
                        <use xlink:href="#rim" fill="#404040">
                                <set attributeName="fill" to="#808080" begin="zoomplus.mouseover" end="zoomplus.mouseout"/>
                        </use>
                        <path d="M-4,0h8M0,-4v8" fill="none" stroke="white" stroke-width="1.5" pointer-events="none"/>
                </g>
                <g id="zoomMin">
                        <use xlink:href="#rim" fill="#404040">
                                <set attributeName="fill" to="#808080" begin="zoomminus.mouseover" end="zoomminus.mouseout"/>
                        </use>
                        <path d="M-4,0h8" fill="none" stroke="white" stroke-width="1.5" pointer-events="none"/>
                </g>
                <g id="dirArrow">
                        <path fill="none" stroke="white" stroke-width="1.5" d="M0,-3.0v7 M-2.5,-0.5L0,-3.0L2.5,-0.5"/>
                </g>
               <g id="resetDef">
                       <use xlink:href="#rim2" fill="#404040">
                               <set attributeName="fill" to="#808080" begin="reset.mouseover" end="reset.mouseout"/>
                       </use>
               </g>
        </defs>

<script type="text/javascript">
var viewWidth = 1569;
var viewHeight = 374;
var sectionId = 'dynsection-1';
</script>
<script xlink:href="svgpan.js"/>
<svg id="graph" class="graph">
<g id="viewport">
<title>src/com/MPIPortsCommunication.hpp</title>
<polygon fill="#ffffff" stroke="transparent" points="-4,4 -4,-370 1564.5,-370 1564.5,4 -4,4"/>
<!-- Node24 -->
<g id="node1" class="node">
<title>Node24</title>
<polygon fill="#bfbfbf" stroke="#000000" points="801.5,-346.5 801.5,-365.5 984.5,-365.5 984.5,-346.5 801.5,-346.5"/>
<text text-anchor="middle" x="893" y="-353.5" font-family="Helvetica,sans-Serif" font-size="10.00" fill="#000000">src/com/MPIPortsCommunication.hpp</text>
</g>
<!-- Node25 -->
<g id="node2" class="node">
<title>Node25</title>
<g id="a_node2"><a xlink:href="ParallelMatrixOperations_8hpp.html" target="_top" xlink:title="src/acceleration/impl\l/ParallelMatrixOperations.hpp">
<polygon fill="#ffffff" stroke="#000000" points="477.5,-279.5 477.5,-309.5 622.5,-309.5 622.5,-279.5 477.5,-279.5"/>
<text text-anchor="start" x="485.5" y="-297.5" font-family="Helvetica,sans-Serif" font-size="10.00" fill="#000000">src/acceleration/impl</text>
<text text-anchor="middle" x="550" y="-286.5" font-family="Helvetica,sans-Serif" font-size="10.00" fill="#000000">/ParallelMatrixOperations.hpp</text>
</a>
</g>
</g>
<!-- Node24&#45;&gt;Node25 -->
<g id="edge1" class="edge">
<title>Node24&#45;&gt;Node25</title>
<path fill="none" stroke="#191970" d="M829.92,-344.6897C771.3797,-334.1935 684.2696,-318.5746 622.8025,-307.5535"/>
<polygon fill="#191970" stroke="#191970" points="829.3218,-348.1382 839.7826,-346.4581 830.5573,-341.2481 829.3218,-348.1382"/>
</g>
<!-- Node35 -->
<g id="node12" class="node">
<title>Node35</title>
<g id="a_node12"><a xlink:href="MVQNAcceleration_8cpp.html" target="_top" xlink:title="src/acceleration/MVQNAcceleration.cpp">
<polygon fill="#ffffff" stroke="#000000" points="657.5,-84 657.5,-103 848.5,-103 848.5,-84 657.5,-84"/>
<text text-anchor="middle" x="753" y="-91" font-family="Helvetica,sans-Serif" font-size="10.00" fill="#000000">src/acceleration/MVQNAcceleration.cpp</text>
</a>
</g>
</g>
<!-- Node24&#45;&gt;Node35 -->
<g id="edge18" class="edge">
<title>Node24&#45;&gt;Node35</title>
<path fill="none" stroke="#191970" d="M852.8118,-342.4569C836.7389,-335.1676 819.3776,-324.6066 808,-310 781.7857,-276.3461 760.0083,-140.6441 754.4018,-103.1434"/>
<polygon fill="#191970" stroke="#191970" points="851.4982,-345.7014 862.0715,-346.3765 854.2269,-339.2551 851.4982,-345.7014"/>
</g>
<!-- Node37 -->
<g id="node14" class="node">
<title>Node37</title>
<g id="a_node14"><a xlink:href="ParallelMatrixOperationsTest_8cpp.html" target="_top" xlink:title="src/acceleration/test\l/ParallelMatrixOperationsTest.cpp">
<polygon fill="#ffffff" stroke="#000000" points="597,-212.5 597,-242.5 761,-242.5 761,-212.5 597,-212.5"/>
<text text-anchor="start" x="605" y="-230.5" font-family="Helvetica,sans-Serif" font-size="10.00" fill="#000000">src/acceleration/test</text>
<text text-anchor="middle" x="679" y="-219.5" font-family="Helvetica,sans-Serif" font-size="10.00" fill="#000000">/ParallelMatrixOperationsTest.cpp</text>
</a>
</g>
</g>
<!-- Node24&#45;&gt;Node37 -->
<g id="edge19" class="edge">
<title>Node24&#45;&gt;Node37</title>
<path fill="none" stroke="#191970" d="M850.5055,-343.3309C827.3053,-335.4714 798.5859,-324.1641 775,-310 742.973,-290.7667 711.1478,-260.6969 693.3797,-242.6643"/>
<polygon fill="#191970" stroke="#191970" points="849.4864,-346.6801 860.0795,-346.4864 851.6777,-340.0319 849.4864,-346.6801"/>
</g>
<!-- Node38 -->
<g id="node15" class="node">
<title>Node38</title>
<g id="a_node15"><a xlink:href="CommunicationConfiguration_8cpp.html" target="_top" xlink:title="src/com/config/Communication\lConfiguration.cpp">
<polygon fill="#ffffff" stroke="#000000" points="817,-279.5 817,-309.5 969,-309.5 969,-279.5 817,-279.5"/>
<text text-anchor="start" x="825" y="-297.5" font-family="Helvetica,sans-Serif" font-size="10.00" fill="#000000">src/com/config/Communication</text>
<text text-anchor="middle" x="893" y="-286.5" font-family="Helvetica,sans-Serif" font-size="10.00" fill="#000000">Configuration.cpp</text>
</a>
</g>
</g>
<!-- Node24&#45;&gt;Node38 -->
<g id="edge20" class="edge">
<title>Node24&#45;&gt;Node38</title>
<path fill="none" stroke="#191970" d="M893,-336.3693C893,-327.681 893,-317.6241 893,-309.5446"/>
<polygon fill="#191970" stroke="#191970" points="889.5001,-336.3906 893,-346.3906 896.5001,-336.3907 889.5001,-336.3906"/>
</g>
<!-- Node39 -->
<g id="node16" class="node">
<title>Node39</title>
<g id="a_node16"><a xlink:href="MPIPortsCommunication_8cpp.html" target="_top" xlink:title="src/com/MPIPortsCommunication.cpp">
<polygon fill="#ffffff" stroke="#000000" points="987.5,-285 987.5,-304 1170.5,-304 1170.5,-285 987.5,-285"/>
<text text-anchor="middle" x="1079" y="-292" font-family="Helvetica,sans-Serif" font-size="10.00" fill="#000000">src/com/MPIPortsCommunication.cpp</text>
</a>
</g>
</g>
<!-- Node24&#45;&gt;Node39 -->
<g id="edge21" class="edge">
<title>Node24&#45;&gt;Node39</title>
<path fill="none" stroke="#191970" d="M931.5587,-343.2507C966.8501,-331.5818 1018.2847,-314.5752 1050.1416,-304.0419"/>
<polygon fill="#191970" stroke="#191970" points="930.4582,-339.9282 922.0625,-346.3906 932.6557,-346.5743 930.4582,-339.9282"/>
</g>
<!-- Node40 -->
<g id="node17" class="node">
<title>Node40</title>
<g id="a_node17"><a xlink:href="MPIPortsCommunicationFactory_8cpp.html" target="_top" xlink:title="src/com/MPIPortsCommunication\lFactory.cpp">
<polygon fill="#ffffff" stroke="#000000" points="1189,-279.5 1189,-309.5 1353,-309.5 1353,-279.5 1189,-279.5"/>
<text text-anchor="start" x="1197" y="-297.5" font-family="Helvetica,sans-Serif" font-size="10.00" fill="#000000">src/com/MPIPortsCommunication</text>
<text text-anchor="middle" x="1271" y="-286.5" font-family="Helvetica,sans-Serif" font-size="10.00" fill="#000000">Factory.cpp</text>
</a>
</g>
</g>
<!-- Node24&#45;&gt;Node40 -->
<g id="edge22" class="edge">
<title>Node24&#45;&gt;Node40</title>
<path fill="none" stroke="#191970" d="M963.6717,-344.8701C1021.7827,-335.671 1106.2622,-322.1889 1180,-310 1182.8461,-309.5295 1185.7418,-309.0486 1188.6662,-308.561"/>
<polygon fill="#191970" stroke="#191970" points="962.828,-341.46 953.4977,-346.4796 963.9218,-348.374 962.828,-341.46"/>
</g>
<!-- Node41 -->
<g id="node18" class="node">
<title>Node41</title>
<g id="a_node18"><a xlink:href="MPIPortsCommunicationTest_8cpp.html" target="_top" xlink:title="src/com/tests/MPIPortsCommunication\lTest.cpp">
<polygon fill="#ffffff" stroke="#000000" points="1371.5,-279.5 1371.5,-309.5 1560.5,-309.5 1560.5,-279.5 1371.5,-279.5"/>
<text text-anchor="start" x="1379.5" y="-297.5" font-family="Helvetica,sans-Serif" font-size="10.00" fill="#000000">src/com/tests/MPIPortsCommunication</text>
<text text-anchor="middle" x="1466" y="-286.5" font-family="Helvetica,sans-Serif" font-size="10.00" fill="#000000">Test.cpp</text>
</a>
</g>
</g>
<!-- Node24&#45;&gt;Node41 -->
<g id="edge23" class="edge">
<title>Node24&#45;&gt;Node41</title>
<path fill="none" stroke="#191970" d="M995.0077,-347.481C1090.122,-339.1855 1235.8677,-325.5749 1362,-310 1365.08,-309.6197 1368.2095,-309.2215 1371.3684,-308.8096"/>
<polygon fill="#191970" stroke="#191970" points="994.4752,-344.0139 984.8157,-348.3664 995.0811,-350.9877 994.4752,-344.0139"/>
</g>
<!-- Node26 -->
<g id="node3" class="node">
<title>Node26</title>
<g id="a_node3"><a xlink:href="ParallelMatrixOperations_8cpp.html" target="_top" xlink:title="src/acceleration/impl\l/ParallelMatrixOperations.cpp">
<polygon fill="#ffffff" stroke="#000000" points="223.5,-212.5 223.5,-242.5 368.5,-242.5 368.5,-212.5 223.5,-212.5"/>
<text text-anchor="start" x="231.5" y="-230.5" font-family="Helvetica,sans-Serif" font-size="10.00" fill="#000000">src/acceleration/impl</text>
<text text-anchor="middle" x="296" y="-219.5" font-family="Helvetica,sans-Serif" font-size="10.00" fill="#000000">/ParallelMatrixOperations.cpp</text>
</a>
</g>
</g>
<!-- Node25&#45;&gt;Node26 -->
<g id="edge2" class="edge">
<title>Node25&#45;&gt;Node26</title>
<path fill="none" stroke="#191970" d="M483.2299,-276.8874C442.8169,-266.2273 391.815,-252.774 353.2512,-242.6017"/>
<polygon fill="#191970" stroke="#191970" points="482.4355,-280.2975 492.9974,-279.4639 484.2209,-273.529 482.4355,-280.2975"/>
</g>
<!-- Node27 -->
<g id="node4" class="node">
<title>Node27</title>
<g id="a_node4"><a xlink:href="SVDFactorization_8hpp.html" target="_top" xlink:title="src/acceleration/impl\l/SVDFactorization.hpp">
<polygon fill="#ffffff" stroke="#000000" points="387,-212.5 387,-242.5 503,-242.5 503,-212.5 387,-212.5"/>
<text text-anchor="start" x="395" y="-230.5" font-family="Helvetica,sans-Serif" font-size="10.00" fill="#000000">src/acceleration/impl</text>
<text text-anchor="middle" x="445" y="-219.5" font-family="Helvetica,sans-Serif" font-size="10.00" fill="#000000">/SVDFactorization.hpp</text>
</a>
</g>
</g>
<!-- Node25&#45;&gt;Node27 -->
<g id="edge3" class="edge">
<title>Node25&#45;&gt;Node27</title>
<path fill="none" stroke="#191970" d="M517.9924,-274.0761C502.1661,-263.9774 483.3929,-251.9983 468.8487,-242.7177"/>
<polygon fill="#191970" stroke="#191970" points="516.1232,-277.0352 526.436,-279.4639 519.8887,-271.1342 516.1232,-277.0352"/>
</g>
<!-- Node29 -->
<g id="node6" class="node">
<title>Node29</title>
<g id="a_node6"><a xlink:href="MVQNAcceleration_8hpp.html" target="_top" xlink:title="src/acceleration/MVQNAcceleration.hpp">
<polygon fill="#ffffff" stroke="#000000" points="349.5,-151 349.5,-170 540.5,-170 540.5,-151 349.5,-151"/>
<text text-anchor="middle" x="445" y="-158" font-family="Helvetica,sans-Serif" font-size="10.00" fill="#000000">src/acceleration/MVQNAcceleration.hpp</text>
</a>
</g>
</g>
<!-- Node25&#45;&gt;Node29 -->
<g id="edge16" class="edge">
<title>Node25&#45;&gt;Node29</title>
<path fill="none" stroke="#191970" d="M542.2054,-269.8252C535.9075,-252.4555 525.8139,-229.3095 512,-212 497.9069,-194.3406 476.5238,-179.291 461.7214,-170.1018"/>
<polygon fill="#191970" stroke="#191970" points="538.9033,-270.9859 545.4743,-279.2969 545.5203,-268.7021 538.9033,-270.9859"/>
</g>
<!-- Node25&#45;&gt;Node35 -->
<g id="edge15" class="edge">
<title>Node25&#45;&gt;Node35</title>
<path fill="none" stroke="#191970" d="M557.6237,-269.6865C563.8401,-252.2507 573.9066,-229.0827 588,-212 630.4193,-160.5832 700.1386,-120.497 733.7267,-103.0363"/>
<polygon fill="#191970" stroke="#191970" points="554.2943,-268.6065 554.4071,-279.2007 560.9256,-270.8484 554.2943,-268.6065"/>
</g>
<!-- Node25&#45;&gt;Node37 -->
<g id="edge17" class="edge">
<title>Node25&#45;&gt;Node37</title>
<path fill="none" stroke="#191970" d="M587.9793,-274.7743C607.6967,-264.5335 631.4179,-252.2132 649.7002,-242.7177"/>
<polygon fill="#191970" stroke="#191970" points="586.2113,-271.7486 578.9501,-279.4639 589.4378,-277.9607 586.2113,-271.7486"/>
</g>
<!-- Node28 -->
<g id="node5" class="node">
<title>Node28</title>
<g id="a_node5"><a xlink:href="SVDFactorization_8cpp.html" target="_top" xlink:title="src/acceleration/impl\l/SVDFactorization.cpp">
<polygon fill="#ffffff" stroke="#000000" points="215,-145.5 215,-175.5 331,-175.5 331,-145.5 215,-145.5"/>
<text text-anchor="start" x="223" y="-163.5" font-family="Helvetica,sans-Serif" font-size="10.00" fill="#000000">src/acceleration/impl</text>
<text text-anchor="middle" x="273" y="-152.5" font-family="Helvetica,sans-Serif" font-size="10.00" fill="#000000">/SVDFactorization.cpp</text>
</a>
</g>
</g>
<!-- Node27&#45;&gt;Node28 -->
<g id="edge4" class="edge">
<title>Node27&#45;&gt;Node28</title>
<path fill="none" stroke="#191970" d="M396.8078,-208.7275C369.9477,-198.2645 336.9441,-185.4084 311.7685,-175.6017"/>
<polygon fill="#191970" stroke="#191970" points="395.8114,-212.0954 406.3998,-212.4639 398.3522,-205.5728 395.8114,-212.0954"/>
</g>
<!-- Node27&#45;&gt;Node29 -->
<g id="edge5" class="edge">
<title>Node27&#45;&gt;Node29</title>
<path fill="none" stroke="#191970" d="M445,-202.1199C445,-190.9072 445,-178.4031 445,-170.055"/>
<polygon fill="#191970" stroke="#191970" points="441.5001,-202.2966 445,-212.2967 448.5001,-202.2967 441.5001,-202.2966"/>
</g>
<!-- Node30 -->
<g id="node7" class="node">
<title>Node30</title>
<g id="a_node7"><a xlink:href="AccelerationConfiguration_8cpp.html" target="_top" xlink:title="src/acceleration/config\l/AccelerationConfiguration.cpp">
<polygon fill="#ffffff" stroke="#000000" points="0,-6 0,-36 150,-36 150,-6 0,-6"/>
<text text-anchor="start" x="8" y="-24" font-family="Helvetica,sans-Serif" font-size="10.00" fill="#000000">src/acceleration/config</text>
<text text-anchor="middle" x="75" y="-13" font-family="Helvetica,sans-Serif" font-size="10.00" fill="#000000">/AccelerationConfiguration.cpp</text>
</a>
</g>
</g>
<!-- Node29&#45;&gt;Node30 -->
<g id="edge6" class="edge">
<title>Node29&#45;&gt;Node30</title>
<path fill="none" stroke="#191970" d="M392.1669,-148.6369C354.2668,-139.481 302.2883,-125.5937 258,-109 200.8888,-87.6019 137.3945,-54.9368 102.2258,-36.0049"/>
<polygon fill="#191970" stroke="#191970" points="391.4352,-152.0605 401.9745,-150.9767 393.0597,-145.2516 391.4352,-152.0605"/>
</g>
<!-- Node31 -->
<g id="node8" class="node">
<title>Node31</title>
<g id="a_node8"><a xlink:href="AccelerationConfiguration_8hpp.html" target="_top" xlink:title="src/acceleration/config\l/AccelerationConfiguration.hpp">
<polygon fill="#ffffff" stroke="#000000" points="267,-78.5 267,-108.5 417,-108.5 417,-78.5 267,-78.5"/>
<text text-anchor="start" x="275" y="-96.5" font-family="Helvetica,sans-Serif" font-size="10.00" fill="#000000">src/acceleration/config</text>
<text text-anchor="middle" x="342" y="-85.5" font-family="Helvetica,sans-Serif" font-size="10.00" fill="#000000">/AccelerationConfiguration.hpp</text>
</a>
</g>
</g>
<!-- Node29&#45;&gt;Node31 -->
<g id="edge7" class="edge">
<title>Node29&#45;&gt;Node31</title>
<path fill="none" stroke="#191970" d="M421.5195,-145.2263C404.6118,-134.2281 381.9115,-119.4618 365.0932,-108.5218"/>
<polygon fill="#191970" stroke="#191970" points="419.9515,-148.3817 430.2426,-150.9005 423.7685,-142.5138 419.9515,-148.3817"/>
</g>
<!-- Node33 -->
<g id="node10" class="node">
<title>Node33</title>
<g id="a_node10"><a xlink:href="ParallelImplicitCouplingSchemeTest_8cpp.html" target="_top" xlink:title="src/cplscheme/tests\l/ParallelImplicitCouplingScheme\lTest.cpp">
<polygon fill="#ffffff" stroke="#000000" points="524,-.5 524,-41.5 682,-41.5 682,-.5 524,-.5"/>
<text text-anchor="start" x="532" y="-29.5" font-family="Helvetica,sans-Serif" font-size="10.00" fill="#000000">src/cplscheme/tests</text>
<text text-anchor="start" x="532" y="-18.5" font-family="Helvetica,sans-Serif" font-size="10.00" fill="#000000">/ParallelImplicitCouplingScheme</text>
<text text-anchor="middle" x="603" y="-7.5" font-family="Helvetica,sans-Serif" font-size="10.00" fill="#000000">Test.cpp</text>
</a>
</g>
</g>
<!-- Node29&#45;&gt;Node33 -->
<g id="edge14" class="edge">
<title>Node29&#45;&gt;Node33</title>
<path fill="none" stroke="#191970" d="M444.3495,-140.7606C444.7902,-122.4839 448.2275,-95.5569 463,-78 473.2641,-65.8012 505.3209,-52.3422 536.1723,-41.5671"/>
<polygon fill="#191970" stroke="#191970" points="440.8498,-140.8749 444.3878,-150.8616 447.8498,-140.8483 440.8498,-140.8749"/>
</g>
<!-- Node29&#45;&gt;Node35 -->
<g id="edge12" class="edge">
<title>Node29&#45;&gt;Node35</title>
<path fill="none" stroke="#191970" d="M498.7776,-148.8016C558.3901,-135.834 653.4212,-115.1616 708.8506,-103.1039"/>
<polygon fill="#191970" stroke="#191970" points="497.8293,-145.426 488.8018,-150.9717 499.3173,-152.266 497.8293,-145.426"/>
</g>
<!-- Node36 -->
<g id="node13" class="node">
<title>Node36</title>
<g id="a_node13"><a xlink:href="AccelerationMasterSlaveTest_8cpp.html" target="_top" xlink:title="src/acceleration/test\l/AccelerationMasterSlaveTest.cpp">
<polygon fill="#ffffff" stroke="#000000" points="472.5,-78.5 472.5,-108.5 639.5,-108.5 639.5,-78.5 472.5,-78.5"/>
<text text-anchor="start" x="480.5" y="-96.5" font-family="Helvetica,sans-Serif" font-size="10.00" fill="#000000">src/acceleration/test</text>
<text text-anchor="middle" x="556" y="-85.5" font-family="Helvetica,sans-Serif" font-size="10.00" fill="#000000">/AccelerationMasterSlaveTest.cpp</text>
</a>
</g>
</g>
<!-- Node29&#45;&gt;Node36 -->
<g id="edge13" class="edge">
<title>Node29&#45;&gt;Node36</title>
<path fill="none" stroke="#191970" d="M469.5486,-145.6824C487.8443,-134.639 512.7369,-119.6138 531.1132,-108.5218"/>
<polygon fill="#191970" stroke="#191970" points="467.6562,-142.7364 460.9036,-150.9005 471.2736,-148.7293 467.6562,-142.7364"/>
</g>
<!-- Node31&#45;&gt;Node30 -->
<g id="edge8" class="edge">
<title>Node31&#45;&gt;Node30</title>
<path fill="none" stroke="#191970" d="M277.0261,-75.8573C232.0833,-63.6537 172.9248,-47.5901 130.2517,-36.0028"/>
<polygon fill="#191970" stroke="#191970" points="276.1097,-79.2351 286.6774,-78.478 277.9441,-72.4797 276.1097,-79.2351"/>
</g>
<!-- Node32 -->
<g id="node9" class="node">
<title>Node32</title>
<g id="a_node9"><a xlink:href="CouplingSchemeConfiguration_8cpp.html" target="_top" xlink:title="src/cplscheme/config\l/CouplingSchemeConfiguration.cpp">
<polygon fill="#ffffff" stroke="#000000" points="168,-6 168,-36 338,-36 338,-6 168,-6"/>
<text text-anchor="start" x="176" y="-24" font-family="Helvetica,sans-Serif" font-size="10.00" fill="#000000">src/cplscheme/config</text>
<text text-anchor="middle" x="253" y="-13" font-family="Helvetica,sans-Serif" font-size="10.00" fill="#000000">/CouplingSchemeConfiguration.cpp</text>
</a>
</g>
</g>
<!-- Node31&#45;&gt;Node32 -->
<g id="edge9" class="edge">
<title>Node31&#45;&gt;Node32</title>
<path fill="none" stroke="#191970" d="M315.5864,-71.9833C301.3677,-60.4007 284.1804,-46.3998 271.4172,-36.0028"/>
<polygon fill="#191970" stroke="#191970" points="313.5955,-74.8758 323.5591,-78.478 318.0165,-69.4486 313.5955,-74.8758"/>
</g>
<!-- Node31&#45;&gt;Node33 -->
<g id="edge10" class="edge">
<title>Node31&#45;&gt;Node33</title>
<path fill="none" stroke="#191970" d="M405.8235,-75.7712C443.1064,-65.4149 490.3171,-52.3008 529.1946,-41.5015"/>
<polygon fill="#191970" stroke="#191970" points="404.7778,-72.4291 396.0794,-78.478 406.6513,-79.1738 404.7778,-72.4291"/>
</g>
<!-- Node34 -->
<g id="node11" class="node">
<title>Node34</title>
<g id="a_node11"><a xlink:href="SerialImplicitCouplingSchemeTest_8cpp.html" target="_top" xlink:title="src/cplscheme/tests\l/SerialImplicitCouplingScheme\lTest.cpp">
<polygon fill="#ffffff" stroke="#000000" points="356,-.5 356,-41.5 506,-41.5 506,-.5 356,-.5"/>
<text text-anchor="start" x="364" y="-29.5" font-family="Helvetica,sans-Serif" font-size="10.00" fill="#000000">src/cplscheme/tests</text>
<text text-anchor="start" x="364" y="-18.5" font-family="Helvetica,sans-Serif" font-size="10.00" fill="#000000">/SerialImplicitCouplingScheme</text>
<text text-anchor="middle" x="431" y="-7.5" font-family="Helvetica,sans-Serif" font-size="10.00" fill="#000000">Test.cpp</text>
</a>
</g>
</g>
<!-- Node31&#45;&gt;Node34 -->
<g id="edge11" class="edge">
<title>Node31&#45;&gt;Node34</title>
<path fill="none" stroke="#191970" d="M368.2702,-72.1001C380.1387,-62.432 394.0987,-51.06 405.8326,-41.5015"/>
<polygon fill="#191970" stroke="#191970" points="365.9835,-69.4486 360.4409,-78.478 370.4045,-74.8758 365.9835,-69.4486"/>
</g>
</g>
</svg>
        <g id="navigator" transform="translate(0 0)" fill="#404254">
                <rect fill="#f2f5e9" fill-opacity="0.5" stroke="#606060" stroke-width=".5" x="0" y="0" width="60" height="60"/>
                <use id="zoomplus" xlink:href="#zoomPlus" x="17" y="9" onmousedown="handleZoom(evt,'in')"/>
                <use id="zoomminus" xlink:href="#zoomMin" x="42" y="9" onmousedown="handleZoom(evt,'out')"/>
                <use id="reset" xlink:href="#resetDef" x="30" y="36" onmousedown="handleReset()"/>
                <g id="arrowUp" xlink:href="#dirArrow" transform="translate(30 24)" onmousedown="handlePan(0,-1)">
                  <use xlink:href="#rim" fill="#404040">
                        <set attributeName="fill" to="#808080" begin="arrowUp.mouseover" end="arrowUp.mouseout"/>
                  </use>
                  <path fill="none" stroke="white" stroke-width="1.5" d="M0,-3.0v7 M-2.5,-0.5L0,-3.0L2.5,-0.5"/>
                </g>
                <g id="arrowRight" xlink:href="#dirArrow" transform="rotate(90) translate(36 -43)" onmousedown="handlePan(1,0)">
                  <use xlink:href="#rim" fill="#404040">
                        <set attributeName="fill" to="#808080" begin="arrowRight.mouseover" end="arrowRight.mouseout"/>
                  </use>
                  <path fill="none" stroke="white" stroke-width="1.5" d="M0,-3.0v7 M-2.5,-0.5L0,-3.0L2.5,-0.5"/>
                </g>
                <g id="arrowDown" xlink:href="#dirArrow" transform="rotate(180) translate(-30 -48)" onmousedown="handlePan(0,1)">
                  <use xlink:href="#rim" fill="#404040">
                        <set attributeName="fill" to="#808080" begin="arrowDown.mouseover" end="arrowDown.mouseout"/>
                  </use>
                  <path fill="none" stroke="white" stroke-width="1.5" d="M0,-3.0v7 M-2.5,-0.5L0,-3.0L2.5,-0.5"/>
                </g>
                <g id="arrowLeft" xlink:href="#dirArrow" transform="rotate(270) translate(-36 17)" onmousedown="handlePan(-1,0)">
                  <use xlink:href="#rim" fill="#404040">
                        <set attributeName="fill" to="#808080" begin="arrowLeft.mouseover" end="arrowLeft.mouseout"/>
                  </use>
                  <path fill="none" stroke="white" stroke-width="1.5" d="M0,-3.0v7 M-2.5,-0.5L0,-3.0L2.5,-0.5"/>
                </g>
        </g>
        <svg viewBox="0 0 15 15" width="100%" height="30px" preserveAspectRatio="xMaxYMin meet">
         <g id="arrow_out" transform="scale(0.3 0.3)">
          <a xlink:href="MPIPortsCommunication_8hpp__dep__incl_org.svg" target="_base">
           <rect id="button" ry="5" rx="5" y="6" x="6" height="38" width="38"
                fill="#f2f5e9" fill-opacity="0.5" stroke="#606060" stroke-width="1.0"/>
           <path id="arrow"
             d="M 11.500037,31.436501 C 11.940474,20.09759 22.043105,11.32322 32.158766,21.979434 L 37.068811,17.246167 C 37.068811,17.246167 37.088388,32 37.088388,32 L 22.160133,31.978069 C 22.160133,31.978069 26.997745,27.140456 26.997745,27.140456 C 18.528582,18.264221 13.291696,25.230495 11.500037,31.436501 z"
             style="fill:#404040;"/>
          </a>
         </g>
        </svg>
</svg>
