<?xml version="1.0" encoding="UTF-8" standalone="no"?>
<!DOCTYPE svg PUBLIC "-//W3C//DTD SVG 1.1//EN"
 "http://www.w3.org/Graphics/SVG/1.1/DTD/svg11.dtd">
<!-- Generated by graphviz version 2.40.1 (20161225.0304)
 -->
<!-- Title: src/com/MPISinglePortsCommunication.cpp Pages: 1 -->
<!--zoomable 442 -->
<svg id="main" version="1.1" xmlns="http://www.w3.org/2000/svg" xmlns:xlink="http://www.w3.org/1999/xlink" xml:space="preserve" onload="init(evt)">
<style type="text/css"><![CDATA[
.edge:hover path { stroke: red; }
.edge:hover polygon { stroke: red; fill: red; }
]]></style>
<script type="text/javascript"><![CDATA[
var edges = document.getElementsByTagName('g');
if (edges && edges.length) {
  for (var i=0;i<edges.length;i++) {
    if (edges[i].id.substr(0,4)=='edge') {
      edges[i].setAttribute('class','edge');
    }
  }
}
]]></script>
        <defs>
                <circle id="rim" cx="0" cy="0" r="7"/>
                <circle id="rim2" cx="0" cy="0" r="3.5"/>
                <g id="zoomPlus">
                        <use xlink:href="#rim" fill="#404040">
                                <set attributeName="fill" to="#808080" begin="zoomplus.mouseover" end="zoomplus.mouseout"/>
                        </use>
                        <path d="M-4,0h8M0,-4v8" fill="none" stroke="white" stroke-width="1.5" pointer-events="none"/>
                </g>
                <g id="zoomMin">
                        <use xlink:href="#rim" fill="#404040">
                                <set attributeName="fill" to="#808080" begin="zoomminus.mouseover" end="zoomminus.mouseout"/>
                        </use>
                        <path d="M-4,0h8" fill="none" stroke="white" stroke-width="1.5" pointer-events="none"/>
                </g>
                <g id="dirArrow">
                        <path fill="none" stroke="white" stroke-width="1.5" d="M0,-3.0v7 M-2.5,-0.5L0,-3.0L2.5,-0.5"/>
                </g>
               <g id="resetDef">
                       <use xlink:href="#rim2" fill="#404040">
                               <set attributeName="fill" to="#808080" begin="reset.mouseover" end="reset.mouseout"/>
                       </use>
               </g>
        </defs>

<script type="text/javascript">
var viewWidth = 2436;
var viewHeight = 442;
var sectionId = 'dynsection-0';
</script>
<script xlink:href="svgpan.js"/>
<svg id="graph" class="graph">
<g id="viewport">
<title>src/com/MPISinglePortsCommunication.cpp</title>
<polygon fill="#ffffff" stroke="transparent" points="-4,4 -4,-438 2431.5,-438 2431.5,4 -4,4"/>
<!-- Node0 -->
<g id="node1" class="node">
<title>Node0</title>
<polygon fill="#bfbfbf" stroke="#000000" points="666.5,-414.5 666.5,-433.5 893.5,-433.5 893.5,-414.5 666.5,-414.5"/>
<text text-anchor="middle" x="780" y="-421.5" font-family="Helvetica,sans-Serif" font-size="10.00" fill="#000000">src/com/MPISinglePortsCommunication.cpp</text>
</g>
<!-- Node1 -->
<g id="node2" class="node">
<title>Node1</title>
<g id="a_node2"><a xlink:href="MPISinglePortsCommunication_8hpp.html" target="_top" xlink:title="MPISinglePortsCommunication.hpp">
<polygon fill="#ffffff" stroke="#000000" points="250.5,-358.5 250.5,-377.5 437.5,-377.5 437.5,-358.5 250.5,-358.5"/>
<text text-anchor="middle" x="344" y="-365.5" font-family="Helvetica,sans-Serif" font-size="10.00" fill="#000000">MPISinglePortsCommunication.hpp</text>
</a>
</g>
</g>
<!-- Node0&#45;&gt;Node1 -->
<g id="edge1" class="edge">
<title>Node0&#45;&gt;Node1</title>
<path fill="none" stroke="#191970" d="M705.5443,-414.4369C628.5749,-404.5509 508.6293,-389.145 428.2398,-378.8198"/>
<polygon fill="#191970" stroke="#191970" points="428.513,-375.3262 418.1486,-377.5237 427.6212,-382.2692 428.513,-375.3262"/>
</g>
<!-- Node3 -->
<g id="node4" class="node">
<title>Node3</title>
<polygon fill="#ffffff" stroke="#bfbfbf" points="476,-179.5 476,-198.5 520,-198.5 520,-179.5 476,-179.5"/>
<text text-anchor="middle" x="498" y="-186.5" font-family="Helvetica,sans-Serif" font-size="10.00" fill="#000000">mpi.h</text>
</g>
<!-- Node0&#45;&gt;Node3 -->
<g id="edge43" class="edge">
<title>Node0&#45;&gt;Node3</title>
<path fill="none" stroke="#191970" d="M666.4547,-415.0896C611.3927,-408.4028 553.0801,-397.0161 534,-378 510.3273,-354.4069 501.6665,-252.2079 499.0133,-208.7137"/>
<polygon fill="#191970" stroke="#191970" points="502.4981,-208.3445 498.4395,-198.5579 495.5093,-208.7394 502.4981,-208.3445"/>
</g>
<!-- Node12 -->
<g id="node13" class="node">
<title>Node12</title>
<polygon fill="#ffffff" stroke="#bfbfbf" points="557,-62 557,-81 615,-81 615,-62 557,-62"/>
<text text-anchor="middle" x="586" y="-69" font-family="Helvetica,sans-Serif" font-size="10.00" fill="#000000">memory</text>
</g>
<!-- Node0&#45;&gt;Node12 -->
<g id="edge42" class="edge">
<title>Node0&#45;&gt;Node12</title>
<path fill="none" stroke="#191970" d="M721.5475,-414.4817C674.4492,-405.9494 612.7738,-392.5619 592,-378 563.1318,-357.7641 548,-347.2543 548,-312 548,-312 548,-312 548,-189 548,-152.7454 564.5805,-113.1181 575.837,-90.3929"/>
<polygon fill="#191970" stroke="#191970" points="579.0965,-91.7076 580.5555,-81.2137 572.8708,-88.5073 579.0965,-91.7076"/>
</g>
<!-- Node14 -->
<g id="node15" class="node">
<title>Node14</title>
<g id="a_node15"><a xlink:href="LogMacros_8hpp.html" target="_top" xlink:title="LogMacros.hpp">
<polygon fill="#ffffff" stroke="#000000" points="1232.5,-123.5 1232.5,-142.5 1321.5,-142.5 1321.5,-123.5 1232.5,-123.5"/>
<text text-anchor="middle" x="1277" y="-130.5" font-family="Helvetica,sans-Serif" font-size="10.00" fill="#000000">LogMacros.hpp</text>
</a>
</g>
</g>
<!-- Node0&#45;&gt;Node14 -->
<g id="edge50" class="edge">
<title>Node0&#45;&gt;Node14</title>
<path fill="none" stroke="#191970" d="M868.0923,-414.4438C975.2452,-400.3173 1142,-369.152 1142,-312 1142,-312 1142,-312 1142,-250.5 1142,-198.2571 1200.2343,-163.9534 1240.2082,-146.5603"/>
<polygon fill="#191970" stroke="#191970" points="1241.8032,-149.6872 1249.6807,-142.6023 1239.1044,-143.2283 1241.8032,-149.6872"/>
</g>
<!-- Node25 -->
<g id="node26" class="node">
<title>Node25</title>
<polygon fill="#ffffff" stroke="#bfbfbf" points="614.5,-358.5 614.5,-377.5 733.5,-377.5 733.5,-358.5 614.5,-358.5"/>
<text text-anchor="middle" x="674" y="-365.5" font-family="Helvetica,sans-Serif" font-size="10.00" fill="#000000">boost/filesystem.hpp</text>
</g>
<!-- Node0&#45;&gt;Node25 -->
<g id="edge41" class="edge">
<title>Node0&#45;&gt;Node25</title>
<path fill="none" stroke="#191970" d="M761.5362,-414.2455C744.8926,-405.4527 720.2007,-392.4079 701.2808,-382.4125"/>
<polygon fill="#191970" stroke="#191970" points="702.7291,-379.2193 692.2522,-377.6427 699.4592,-385.4086 702.7291,-379.2193"/>
</g>
<!-- Node26 -->
<g id="node27" class="node">
<title>Node26</title>
<polygon fill="#ffffff" stroke="#bfbfbf" points="751.5,-358.5 751.5,-377.5 808.5,-377.5 808.5,-358.5 751.5,-358.5"/>
<text text-anchor="middle" x="780" y="-365.5" font-family="Helvetica,sans-Serif" font-size="10.00" fill="#000000">ostream</text>
</g>
<!-- Node0&#45;&gt;Node26 -->
<g id="edge44" class="edge">
<title>Node0&#45;&gt;Node26</title>
<path fill="none" stroke="#191970" d="M780,-414.2455C780,-406.9382 780,-396.6944 780,-387.7046"/>
<polygon fill="#191970" stroke="#191970" points="783.5001,-387.6426 780,-377.6427 776.5001,-387.6427 783.5001,-387.6426"/>
</g>
<!-- Node27 -->
<g id="node28" class="node">
<title>Node27</title>
<polygon fill="#ffffff" stroke="#bfbfbf" points="783.5,-302.5 783.5,-321.5 828.5,-321.5 828.5,-302.5 783.5,-302.5"/>
<text text-anchor="middle" x="806" y="-309.5" font-family="Helvetica,sans-Serif" font-size="10.00" fill="#000000">utility</text>
</g>
<!-- Node0&#45;&gt;Node27 -->
<g id="edge45" class="edge">
<title>Node0&#45;&gt;Node27</title>
<path fill="none" stroke="#191970" d="M791.4453,-414.3916C800.5993,-405.901 812.7419,-392.6212 818,-378 823.4733,-362.7806 819.4768,-344.6508 814.6743,-331.2472"/>
<polygon fill="#191970" stroke="#191970" points="817.7953,-329.6275 810.8154,-321.6569 811.3013,-332.2405 817.7953,-329.6275"/>
</g>
<!-- Node28 -->
<g id="node29" class="node">
<title>Node28</title>
<g id="a_node29"><a xlink:href="ConnectionInfoPublisher_8hpp.html" target="_top" xlink:title="ConnectionInfoPublisher.hpp">
<polygon fill="#ffffff" stroke="#000000" points="865.5,-358.5 865.5,-377.5 1020.5,-377.5 1020.5,-358.5 865.5,-358.5"/>
<text text-anchor="middle" x="943" y="-365.5" font-family="Helvetica,sans-Serif" font-size="10.00" fill="#000000">ConnectionInfoPublisher.hpp</text>
</a>
</g>
</g>
<!-- Node0&#45;&gt;Node28 -->
<g id="edge46" class="edge">
<title>Node0&#45;&gt;Node28</title>
<path fill="none" stroke="#191970" d="M808.0207,-414.3733C835.0078,-405.1016 876.0017,-391.0178 905.7311,-380.804"/>
<polygon fill="#191970" stroke="#191970" points="907.0248,-384.0605 915.3449,-377.5011 904.7503,-377.4403 907.0248,-384.0605"/>
</g>
<!-- Node29 -->
<g id="node30" class="node">
<title>Node29</title>
<g id="a_node30"><a xlink:href="MasterSlave_8hpp.html" target="_top" xlink:title="utils/MasterSlave.hpp">
<polygon fill="#ffffff" stroke="#000000" points="885,-241 885,-260 1007,-260 1007,-241 885,-241"/>
<text text-anchor="middle" x="946" y="-248" font-family="Helvetica,sans-Serif" font-size="10.00" fill="#000000">utils/MasterSlave.hpp</text>
</a>
</g>
</g>
<!-- Node0&#45;&gt;Node29 -->
<g id="edge51" class="edge">
<title>Node0&#45;&gt;Node29</title>
<path fill="none" stroke="#191970" d="M893.8247,-417.0255C951.1263,-410.8872 1012.1727,-399.4068 1030,-378 1061.2758,-340.4444 1003.9294,-290.8496 969.3918,-266.0376"/>
<polygon fill="#191970" stroke="#191970" points="971.3706,-263.1504 961.1703,-260.2858 967.3578,-268.8862 971.3706,-263.1504"/>
</g>
<!-- Node31 -->
<g id="node32" class="node">
<title>Node31</title>
<g id="a_node32"><a xlink:href="Parallel_8hpp.html" target="_top" xlink:title="utils/Parallel.hpp">
<polygon fill="#ffffff" stroke="#000000" points="576,-241 576,-260 674,-260 674,-241 576,-241"/>
<text text-anchor="middle" x="625" y="-248" font-family="Helvetica,sans-Serif" font-size="10.00" fill="#000000">utils/Parallel.hpp</text>
</a>
</g>
</g>
<!-- Node0&#45;&gt;Node31 -->
<g id="edge55" class="edge">
<title>Node0&#45;&gt;Node31</title>
<path fill="none" stroke="#191970" d="M711.0922,-414.4968C668.3297,-407.0278 619.1057,-395.0207 606,-378 581.4229,-346.0811 600.8018,-296.0124 614.4733,-269.0984"/>
<polygon fill="#191970" stroke="#191970" points="617.707,-270.473 619.3301,-260.0032 611.5322,-267.1757 617.707,-270.473"/>
</g>
<!-- Node33 -->
<g id="node34" class="node">
<title>Node33</title>
<g id="a_node34"><a xlink:href="assertion_8hpp.html" target="_top" xlink:title="utils/assertion.hpp">
<polygon fill="#ffffff" stroke="#000000" points="1903.5,-302.5 1903.5,-321.5 2010.5,-321.5 2010.5,-302.5 1903.5,-302.5"/>
<text text-anchor="middle" x="1957" y="-309.5" font-family="Helvetica,sans-Serif" font-size="10.00" fill="#000000">utils/assertion.hpp</text>
</a>
</g>
</g>
<!-- Node0&#45;&gt;Node33 -->
<g id="edge62" class="edge">
<title>Node0&#45;&gt;Node33</title>
<path fill="none" stroke="#191970" d="M879.8426,-414.4993C1115.1454,-392.1085 1699.2149,-336.5301 1893.2181,-318.0693"/>
<polygon fill="#191970" stroke="#191970" points="1893.6295,-321.5461 1903.2529,-317.1144 1892.9663,-314.5775 1893.6295,-321.5461"/>
</g>
<!-- Node2 -->
<g id="node3" class="node">
<title>Node2</title>
<polygon fill="#ffffff" stroke="#bfbfbf" points="394,-302.5 394,-321.5 432,-321.5 432,-302.5 394,-302.5"/>
<text text-anchor="middle" x="413" y="-309.5" font-family="Helvetica,sans-Serif" font-size="10.00" fill="#000000">map</text>
</g>
<!-- Node1&#45;&gt;Node2 -->
<g id="edge2" class="edge">
<title>Node1&#45;&gt;Node2</title>
<path fill="none" stroke="#191970" d="M356.0189,-358.2455C366.2098,-349.9746 381.0362,-337.9416 393.0107,-328.2232"/>
<polygon fill="#191970" stroke="#191970" points="395.5598,-330.662 401.1188,-321.6427 391.1486,-325.2268 395.5598,-330.662"/>
</g>
<!-- Node1&#45;&gt;Node3 -->
<g id="edge3" class="edge">
<title>Node1&#45;&gt;Node3</title>
<path fill="none" stroke="#191970" d="M378.6831,-358.3889C399.0628,-351.2219 424.066,-339.5888 441,-322 472.3787,-289.4081 487.8174,-236.8507 494.2141,-208.5487"/>
<polygon fill="#191970" stroke="#191970" points="497.6598,-209.1708 496.2996,-198.6636 490.8106,-207.7257 497.6598,-209.1708"/>
</g>
<!-- Node4 -->
<g id="node5" class="node">
<title>Node4</title>
<polygon fill="#ffffff" stroke="#bfbfbf" points="28,-179.5 28,-198.5 60,-198.5 60,-179.5 28,-179.5"/>
<text text-anchor="middle" x="44" y="-186.5" font-family="Helvetica,sans-Serif" font-size="10.00" fill="#000000">set</text>
</g>
<!-- Node1&#45;&gt;Node4 -->
<g id="edge4" class="edge">
<title>Node1&#45;&gt;Node4</title>
<path fill="none" stroke="#191970" d="M305.5788,-358.4593C278.2033,-350.7812 241.0795,-338.5407 211,-322 150.4393,-288.6977 89.4996,-233.3457 60.8639,-205.7344"/>
<polygon fill="#191970" stroke="#191970" points="63.2751,-203.1971 53.671,-198.7236 58.3892,-208.2099 63.2751,-203.1971"/>
</g>
<!-- Node5 -->
<g id="node6" class="node">
<title>Node5</title>
<polygon fill="#ffffff" stroke="#bfbfbf" points="116,-179.5 116,-198.5 172,-198.5 172,-179.5 116,-179.5"/>
<text text-anchor="middle" x="144" y="-186.5" font-family="Helvetica,sans-Serif" font-size="10.00" fill="#000000">stddef.h</text>
</g>
<!-- Node1&#45;&gt;Node5 -->
<g id="edge5" class="edge">
<title>Node1&#45;&gt;Node5</title>
<path fill="none" stroke="#191970" d="M307.851,-358.4809C285.1792,-351.2013 256.3138,-339.4142 235,-322 195.636,-289.8381 166.3101,-236.3361 152.6014,-207.9847"/>
<polygon fill="#191970" stroke="#191970" points="155.6888,-206.3251 148.2678,-198.7635 149.3535,-209.3025 155.6888,-206.3251"/>
</g>
<!-- Node6 -->
<g id="node7" class="node">
<title>Node6</title>
<polygon fill="#ffffff" stroke="#bfbfbf" points="746,-.5 746,-19.5 790,-19.5 790,-.5 746,-.5"/>
<text text-anchor="middle" x="768" y="-7.5" font-family="Helvetica,sans-Serif" font-size="10.00" fill="#000000">string</text>
</g>
<!-- Node1&#45;&gt;Node6 -->
<g id="edge6" class="edge">
<title>Node1&#45;&gt;Node6</title>
<path fill="none" stroke="#191970" d="M273.5564,-358.4898C172.9146,-342.8967 0,-307.7723 0,-250.5 0,-250.5 0,-250.5 0,-133 0,-31.5011 115.8045,-77.5008 215,-56 315.5959,-34.1957 633.5582,-16.7416 735.9172,-11.5676"/>
<polygon fill="#191970" stroke="#191970" points="736.1428,-15.0607 745.9552,-11.0647 735.7926,-8.0695 736.1428,-15.0607"/>
</g>
<!-- Node7 -->
<g id="node8" class="node">
<title>Node7</title>
<g id="a_node8"><a xlink:href="MPICommunication_8hpp.html" target="_top" xlink:title="MPICommunication.hpp">
<polygon fill="#ffffff" stroke="#000000" points="244,-302.5 244,-321.5 376,-321.5 376,-302.5 244,-302.5"/>
<text text-anchor="middle" x="310" y="-309.5" font-family="Helvetica,sans-Serif" font-size="10.00" fill="#000000">MPICommunication.hpp</text>
</a>
</g>
</g>
<!-- Node1&#45;&gt;Node7 -->
<g id="edge7" class="edge">
<title>Node1&#45;&gt;Node7</title>
<path fill="none" stroke="#191970" d="M338.0777,-358.2455C333.3973,-350.5367 326.7327,-339.5598 321.0711,-330.2348"/>
<polygon fill="#191970" stroke="#191970" points="324.0361,-328.3741 315.8545,-321.6427 318.0525,-332.007 324.0361,-328.3741"/>
</g>
<!-- Node13 -->
<g id="node14" class="node">
<title>Node13</title>
<g id="a_node14"><a xlink:href="Logger_8hpp.html" target="_top" xlink:title="logging/Logger.hpp">
<polygon fill="#ffffff" stroke="#000000" points="758.5,-179.5 758.5,-198.5 867.5,-198.5 867.5,-179.5 758.5,-179.5"/>
<text text-anchor="middle" x="813" y="-186.5" font-family="Helvetica,sans-Serif" font-size="10.00" fill="#000000">logging/Logger.hpp</text>
</a>
</g>
</g>
<!-- Node1&#45;&gt;Node13 -->
<g id="edge40" class="edge">
<title>Node1&#45;&gt;Node13</title>
<path fill="none" stroke="#191970" d="M410.1845,-358.4702C487.3711,-345.4705 617.2326,-317.655 718,-266 748.8009,-250.2109 778.9001,-223.3035 796.6995,-205.8425"/>
<polygon fill="#191970" stroke="#191970" points="799.3828,-208.1086 803.9704,-198.5585 794.4286,-203.1633 799.3828,-208.1086"/>
</g>
<!-- Node7&#45;&gt;Node3 -->
<g id="edge8" class="edge">
<title>Node7&#45;&gt;Node3</title>
<path fill="none" stroke="#191970" d="M336.1276,-302.392C356.9522,-294.1766 386.4256,-281.2768 410,-266 437.2315,-248.3534 464.7647,-222.7241 481.6064,-205.9605"/>
<polygon fill="#191970" stroke="#191970" points="484.4243,-208.0886 488.9671,-198.5171 479.4469,-203.1665 484.4243,-208.0886"/>
</g>
<!-- Node7&#45;&gt;Node6 -->
<g id="edge9" class="edge">
<title>Node7&#45;&gt;Node6</title>
<path fill="none" stroke="#191970" d="M262.7015,-302.4896C191.1011,-285.7293 67.4967,-246.1954 107,-179 163.9691,-82.095 220.8123,-89.865 328,-56 404.1926,-31.9276 647.1982,-16.5982 735.5189,-11.7021"/>
<polygon fill="#191970" stroke="#191970" points="735.9453,-15.1841 745.7395,-11.144 735.5636,-8.1945 735.9453,-15.1841"/>
</g>
<!-- Node8 -->
<g id="node9" class="node">
<title>Node8</title>
<polygon fill="#ffffff" stroke="#bfbfbf" points="285.5,-123.5 285.5,-142.5 332.5,-142.5 332.5,-123.5 285.5,-123.5"/>
<text text-anchor="middle" x="309" y="-130.5" font-family="Helvetica,sans-Serif" font-size="10.00" fill="#000000">vector</text>
</g>
<!-- Node7&#45;&gt;Node8 -->
<g id="edge10" class="edge">
<title>Node7&#45;&gt;Node8</title>
<path fill="none" stroke="#191970" d="M270.1328,-302.3369C251.1645,-295.5199 230.2211,-284.2455 219,-266 192.2059,-222.4329 250.032,-173.0072 284.9581,-148.4928"/>
<polygon fill="#191970" stroke="#191970" points="286.9908,-151.343 293.2787,-142.8158 283.0456,-145.5606 286.9908,-151.343"/>
</g>
<!-- Node9 -->
<g id="node10" class="node">
<title>Node9</title>
<g id="a_node10"><a xlink:href="Communication_8hpp.html" target="_top" xlink:title="com/Communication.hpp">
<polygon fill="#ffffff" stroke="#000000" points="228.5,-241 228.5,-260 367.5,-260 367.5,-241 228.5,-241"/>
<text text-anchor="middle" x="298" y="-248" font-family="Helvetica,sans-Serif" font-size="10.00" fill="#000000">com/Communication.hpp</text>
</a>
</g>
</g>
<!-- Node7&#45;&gt;Node9 -->
<g id="edge11" class="edge">
<title>Node7&#45;&gt;Node9</title>
<path fill="none" stroke="#191970" d="M308.125,-302.3906C306.4441,-293.776 303.926,-280.8708 301.8216,-270.0858"/>
<polygon fill="#191970" stroke="#191970" points="305.2518,-269.3895 299.9014,-260.2449 298.3814,-270.7301 305.2518,-269.3895"/>
</g>
<!-- Node11 -->
<g id="node12" class="node">
<title>Node11</title>
<g id="a_node12"><a xlink:href="com_2SharedPointer_8hpp.html" target="_top" xlink:title="com/SharedPointer.hpp">
<polygon fill="#ffffff" stroke="#000000" points="383.5,-123.5 383.5,-142.5 512.5,-142.5 512.5,-123.5 383.5,-123.5"/>
<text text-anchor="middle" x="448" y="-130.5" font-family="Helvetica,sans-Serif" font-size="10.00" fill="#000000">com/SharedPointer.hpp</text>
</a>
</g>
</g>
<!-- Node7&#45;&gt;Node11 -->
<g id="edge38" class="edge">
<title>Node7&#45;&gt;Node11</title>
<path fill="none" stroke="#191970" d="M327.8489,-302.4626C342.1212,-294.1996 361.9914,-281.2001 376,-266 407.8889,-231.3987 430.4149,-180.0642 441.0594,-152.3812"/>
<polygon fill="#191970" stroke="#191970" points="444.4541,-153.2944 444.6644,-142.7017 437.8943,-150.8512 444.4541,-153.2944"/>
</g>
<!-- Node7&#45;&gt;Node13 -->
<g id="edge39" class="edge">
<title>Node7&#45;&gt;Node13</title>
<path fill="none" stroke="#191970" d="M376.2476,-303.1219C379.2051,-302.7398 382.1331,-302.3643 385,-302 517.3433,-285.1839 558.7382,-314.5442 683,-266 704.9446,-257.4271 705.9828,-247.4247 726,-235 744.7398,-223.3682 766.703,-211.7702 783.8732,-203.1298"/>
<polygon fill="#191970" stroke="#191970" points="785.4756,-206.2418 792.8683,-198.6524 782.3563,-199.9752 785.4756,-206.2418"/>
</g>
<!-- Node9&#45;&gt;Node4 -->
<g id="edge12" class="edge">
<title>Node9&#45;&gt;Node4</title>
<path fill="none" stroke="#191970" d="M258.5912,-240.9581C206.0875,-228.2456 114.6421,-206.1043 70.0064,-195.2968"/>
<polygon fill="#191970" stroke="#191970" points="70.7608,-191.8784 60.218,-192.9268 69.1135,-198.6818 70.7608,-191.8784"/>
</g>
<!-- Node9&#45;&gt;Node5 -->
<g id="edge13" class="edge">
<title>Node9&#45;&gt;Node5</title>
<path fill="none" stroke="#191970" d="M273.9375,-240.8906C247.9444,-230.5103 206.3522,-213.9004 177.2453,-202.2766"/>
<polygon fill="#191970" stroke="#191970" points="178.4785,-199.0003 167.8935,-198.5419 175.8823,-205.5011 178.4785,-199.0003"/>
</g>
<!-- Node9&#45;&gt;Node6 -->
<g id="edge14" class="edge">
<title>Node9&#45;&gt;Node6</title>
<path fill="none" stroke="#191970" d="M291.9452,-240.9834C278.1884,-218.0337 247.8757,-158.8927 276,-123 333.5653,-49.5344 635.9086,-20.0947 735.8775,-12.2761"/>
<polygon fill="#191970" stroke="#191970" points="736.2725,-15.7562 745.9776,-11.5064 735.7405,-8.7764 736.2725,-15.7562"/>
</g>
<!-- Node9&#45;&gt;Node8 -->
<g id="edge15" class="edge">
<title>Node9&#45;&gt;Node8</title>
<path fill="none" stroke="#191970" d="M296.4277,-240.7238C294.4669,-226.8969 291.745,-200.8741 295,-179 296.3327,-170.0439 299.0494,-160.419 301.7381,-152.3"/>
<polygon fill="#191970" stroke="#191970" points="305.1067,-153.272 305.1376,-142.6772 298.5064,-150.9402 305.1067,-153.272"/>
</g>
<!-- Node10 -->
<g id="node11" class="node">
<title>Node10</title>
<g id="a_node11"><a xlink:href="Request_8hpp.html" target="_top" xlink:title="Request.hpp">
<polygon fill="#ffffff" stroke="#000000" points="304.5,-179.5 304.5,-198.5 381.5,-198.5 381.5,-179.5 304.5,-179.5"/>
<text text-anchor="middle" x="343" y="-186.5" font-family="Helvetica,sans-Serif" font-size="10.00" fill="#000000">Request.hpp</text>
</a>
</g>
</g>
<!-- Node9&#45;&gt;Node10 -->
<g id="edge16" class="edge">
<title>Node9&#45;&gt;Node10</title>
<path fill="none" stroke="#191970" d="M305.0313,-240.8906C311.663,-231.8273 321.7696,-218.0149 329.8887,-206.9188"/>
<polygon fill="#191970" stroke="#191970" points="332.7891,-208.882 335.8696,-198.7449 327.1399,-204.7484 332.7891,-208.882"/>
</g>
<!-- Node9&#45;&gt;Node11 -->
<g id="edge20" class="edge">
<title>Node9&#45;&gt;Node11</title>
<path fill="none" stroke="#191970" d="M319.7387,-240.9302C339.2417,-231.7626 368.0824,-216.7266 390,-199 407.483,-184.86 424.0624,-165.1213 434.9823,-150.9196"/>
<polygon fill="#191970" stroke="#191970" points="437.8038,-152.991 441.0076,-142.8922 432.2053,-148.7889 437.8038,-152.991"/>
</g>
<!-- Node9&#45;&gt;Node13 -->
<g id="edge21" class="edge">
<title>Node9&#45;&gt;Node13</title>
<path fill="none" stroke="#191970" d="M367.723,-242.1739C467.9103,-230.2097 651.2065,-208.321 748.443,-196.7092"/>
<polygon fill="#191970" stroke="#191970" points="748.9211,-200.1771 758.4356,-195.5159 748.0911,-193.2265 748.9211,-200.1771"/>
</g>
<!-- Node10&#45;&gt;Node8 -->
<g id="edge17" class="edge">
<title>Node10&#45;&gt;Node8</title>
<path fill="none" stroke="#191970" d="M337.0777,-179.2455C332.3973,-171.5367 325.7327,-160.5598 320.0711,-151.2348"/>
<polygon fill="#191970" stroke="#191970" points="323.0361,-149.3741 314.8545,-142.6427 317.0525,-153.007 323.0361,-149.3741"/>
</g>
<!-- Node10&#45;&gt;Node11 -->
<g id="edge18" class="edge">
<title>Node10&#45;&gt;Node11</title>
<path fill="none" stroke="#191970" d="M361.2896,-179.2455C377.7762,-170.4527 402.2352,-157.4079 420.9765,-147.4125"/>
<polygon fill="#191970" stroke="#191970" points="422.7435,-150.4368 429.92,-142.6427 419.4494,-144.2604 422.7435,-150.4368"/>
</g>
<!-- Node11&#45;&gt;Node12 -->
<g id="edge19" class="edge">
<title>Node11&#45;&gt;Node12</title>
<path fill="none" stroke="#191970" d="M469.5625,-123.3906C492.5512,-113.1457 529.156,-96.8326 555.1824,-85.2339"/>
<polygon fill="#191970" stroke="#191970" points="556.8796,-88.3095 564.5889,-81.0419 554.0302,-81.9156 556.8796,-88.3095"/>
</g>
<!-- Node13&#45;&gt;Node6 -->
<g id="edge23" class="edge">
<title>Node13&#45;&gt;Node6</title>
<path fill="none" stroke="#191970" d="M810.5806,-179.3762C803.4691,-151.0883 782.5304,-67.7987 772.9215,-29.5767"/>
<polygon fill="#191970" stroke="#191970" points="776.2639,-28.5163 770.4314,-19.6714 769.4752,-30.223 776.2639,-28.5163"/>
</g>
<!-- Node13&#45;&gt;Node12 -->
<g id="edge22" class="edge">
<title>Node13&#45;&gt;Node12</title>
<path fill="none" stroke="#191970" d="M794.4236,-179.3845C754.5015,-158.7199 660.3567,-109.9886 613.4939,-85.7314"/>
<polygon fill="#191970" stroke="#191970" points="615.0044,-82.5722 604.5147,-81.0836 611.7866,-88.7888 615.0044,-82.5722"/>
</g>
<!-- Node13&#45;&gt;Node14 -->
<g id="edge24" class="edge">
<title>Node13&#45;&gt;Node14</title>
<path fill="none" stroke="#191970" d="M867.5911,-182.4114C956.7699,-171.6485 1132.6971,-150.4159 1222.0852,-139.6276"/>
<polygon fill="#191970" stroke="#191970" points="1222.7766,-143.0697 1232.2851,-138.3966 1221.9378,-136.1201 1222.7766,-143.0697"/>
</g>
<!-- Node14&#45;&gt;Node6 -->
<g id="edge31" class="edge">
<title>Node14&#45;&gt;Node6</title>
<path fill="none" stroke="#191970" d="M1232.385,-128.7926C1162.3209,-121.707 1030.0398,-106.2618 987,-87 967.1055,-78.0965 968.4661,-65.8046 949,-56 900.5063,-31.5748 838.0013,-19.4209 800.5693,-13.9357"/>
<polygon fill="#191970" stroke="#191970" points="800.6418,-10.4122 790.2549,-12.5009 799.6772,-17.3454 800.6418,-10.4122"/>
</g>
<!-- Node15 -->
<g id="node16" class="node">
<title>Node15</title>
<polygon fill="#ffffff" stroke="#bfbfbf" points="1554,-56.5 1554,-86.5 1664,-86.5 1664,-56.5 1554,-56.5"/>
<text text-anchor="start" x="1562" y="-74.5" font-family="Helvetica,sans-Serif" font-size="10.00" fill="#000000">boost/preprocessor</text>
<text text-anchor="middle" x="1609" y="-63.5" font-family="Helvetica,sans-Serif" font-size="10.00" fill="#000000">/control/if.hpp</text>
</g>
<!-- Node14&#45;&gt;Node15 -->
<g id="edge25" class="edge">
<title>Node14&#45;&gt;Node15</title>
<path fill="none" stroke="#191970" d="M1321.7482,-126.2675C1373.0675,-118.3361 1459.9347,-104.2706 1543.9336,-87.1445"/>
<polygon fill="#191970" stroke="#191970" points="1544.8052,-90.5386 1553.8953,-85.096 1543.3952,-83.6821 1544.8052,-90.5386"/>
</g>
<!-- Node16 -->
<g id="node17" class="node">
<title>Node16</title>
<polygon fill="#ffffff" stroke="#bfbfbf" points="996,-56.5 996,-86.5 1112,-86.5 1112,-56.5 996,-56.5"/>
<text text-anchor="start" x="1004" y="-74.5" font-family="Helvetica,sans-Serif" font-size="10.00" fill="#000000">boost/preprocessor</text>
<text text-anchor="middle" x="1054" y="-63.5" font-family="Helvetica,sans-Serif" font-size="10.00" fill="#000000">/facilities/empty.hpp</text>
</g>
<!-- Node14&#45;&gt;Node16 -->
<g id="edge26" class="edge">
<title>Node14&#45;&gt;Node16</title>
<path fill="none" stroke="#191970" d="M1242.1563,-123.3906C1209.1116,-114.2774 1158.6566,-100.3627 1118.3103,-89.2358"/>
<polygon fill="#191970" stroke="#191970" points="1119.1226,-85.8292 1108.5519,-86.5446 1117.2615,-92.5773 1119.1226,-85.8292"/>
</g>
<!-- Node17 -->
<g id="node18" class="node">
<title>Node17</title>
<polygon fill="#ffffff" stroke="#bfbfbf" points="1682.5,-56.5 1682.5,-86.5 1793.5,-86.5 1793.5,-56.5 1682.5,-56.5"/>
<text text-anchor="start" x="1690.5" y="-74.5" font-family="Helvetica,sans-Serif" font-size="10.00" fill="#000000">boost/preprocessor</text>
<text text-anchor="middle" x="1738" y="-63.5" font-family="Helvetica,sans-Serif" font-size="10.00" fill="#000000">/seq/for_each_i.hpp</text>
</g>
<!-- Node14&#45;&gt;Node17 -->
<g id="edge27" class="edge">
<title>Node14&#45;&gt;Node17</title>
<path fill="none" stroke="#191970" d="M1321.791,-129.5376C1393.6429,-123.6038 1539.236,-110.0213 1672.4451,-86.9601"/>
<polygon fill="#191970" stroke="#191970" points="1673.1759,-90.3854 1682.4212,-85.2109 1671.967,-83.4906 1673.1759,-90.3854"/>
</g>
<!-- Node18 -->
<g id="node19" class="node">
<title>Node18</title>
<polygon fill="#ffffff" stroke="#bfbfbf" points="1812,-56.5 1812,-86.5 1922,-86.5 1922,-56.5 1812,-56.5"/>
<text text-anchor="start" x="1820" y="-74.5" font-family="Helvetica,sans-Serif" font-size="10.00" fill="#000000">boost/preprocessor</text>
<text text-anchor="middle" x="1867" y="-63.5" font-family="Helvetica,sans-Serif" font-size="10.00" fill="#000000">/stringize.hpp</text>
</g>
<!-- Node14&#45;&gt;Node18 -->
<g id="edge28" class="edge">
<title>Node14&#45;&gt;Node18</title>
<path fill="none" stroke="#191970" d="M1321.6152,-131.3626C1411.0046,-127.5938 1618.4734,-116.3945 1801.853,-87.0283"/>
<polygon fill="#191970" stroke="#191970" points="1802.6398,-90.4465 1811.9495,-85.3889 1801.5178,-83.537 1802.6398,-90.4465"/>
</g>
<!-- Node19 -->
<g id="node20" class="node">
<title>Node19</title>
<polygon fill="#ffffff" stroke="#bfbfbf" points="1940.5,-56.5 1940.5,-86.5 2055.5,-86.5 2055.5,-56.5 1940.5,-56.5"/>
<text text-anchor="start" x="1948.5" y="-74.5" font-family="Helvetica,sans-Serif" font-size="10.00" fill="#000000">boost/preprocessor</text>
<text text-anchor="middle" x="1998" y="-63.5" font-family="Helvetica,sans-Serif" font-size="10.00" fill="#000000">/variadic/to_seq.hpp</text>
</g>
<!-- Node14&#45;&gt;Node19 -->
<g id="edge29" class="edge">
<title>Node14&#45;&gt;Node19</title>
<path fill="none" stroke="#191970" d="M1321.6705,-132.2726C1426.3766,-130.0508 1695.8443,-121.3338 1930.2869,-86.9367"/>
<polygon fill="#191970" stroke="#191970" points="1930.9901,-90.3707 1940.3669,-85.4386 1929.961,-83.4468 1930.9901,-90.3707"/>
</g>
<!-- Node20 -->
<g id="node21" class="node">
<title>Node20</title>
<polygon fill="#ffffff" stroke="#bfbfbf" points="1130,-62 1130,-81 1266,-81 1266,-62 1130,-62"/>
<text text-anchor="middle" x="1198" y="-69" font-family="Helvetica,sans-Serif" font-size="10.00" fill="#000000">boost/vmd/is_empty.hpp</text>
</g>
<!-- Node14&#45;&gt;Node20 -->
<g id="edge30" class="edge">
<title>Node14&#45;&gt;Node20</title>
<path fill="none" stroke="#191970" d="M1264.6563,-123.3906C1252.2497,-113.7324 1232.9157,-98.6812 1218.2587,-87.271"/>
<polygon fill="#191970" stroke="#191970" points="1220.2979,-84.423 1210.2571,-81.0419 1215.9979,-89.9466 1220.2979,-84.423"/>
</g>
<!-- Node21 -->
<g id="node22" class="node">
<title>Node21</title>
<g id="a_node22"><a xlink:href="Tracer_8hpp.html" target="_top" xlink:title="logging/Tracer.hpp">
<polygon fill="#ffffff" stroke="#000000" points="834.5,-62 834.5,-81 939.5,-81 939.5,-62 834.5,-62"/>
<text text-anchor="middle" x="887" y="-69" font-family="Helvetica,sans-Serif" font-size="10.00" fill="#000000">logging/Tracer.hpp</text>
</a>
</g>
</g>
<!-- Node14&#45;&gt;Node21 -->
<g id="edge32" class="edge">
<title>Node14&#45;&gt;Node21</title>
<path fill="none" stroke="#191970" d="M1232.3925,-127.877C1169.8952,-120.4202 1052.8353,-105.435 954,-87 947.9152,-85.8651 941.5472,-84.5541 935.2601,-83.185"/>
<polygon fill="#191970" stroke="#191970" points="936.0222,-79.769 925.4994,-81.0026 934.4947,-86.6004 936.0222,-79.769"/>
</g>
<!-- Node22 -->
<g id="node23" class="node">
<title>Node22</title>
<polygon fill="#ffffff" stroke="#bfbfbf" points="1284,-62 1284,-81 1428,-81 1428,-62 1284,-62"/>
<text text-anchor="middle" x="1356" y="-69" font-family="Helvetica,sans-Serif" font-size="10.00" fill="#000000">prettyprint/prettyprint.hpp</text>
</g>
<!-- Node14&#45;&gt;Node22 -->
<g id="edge34" class="edge">
<title>Node14&#45;&gt;Node22</title>
<path fill="none" stroke="#191970" d="M1289.3438,-123.3906C1301.7503,-113.7324 1321.0843,-98.6812 1335.7413,-87.271"/>
<polygon fill="#191970" stroke="#191970" points="1338.0021,-89.9466 1343.7429,-81.0419 1333.7021,-84.423 1338.0021,-89.9466"/>
</g>
<!-- Node23 -->
<g id="node24" class="node">
<title>Node23</title>
<g id="a_node24"><a xlink:href="String_8hpp.html" target="_top" xlink:title="utils/String.hpp">
<polygon fill="#ffffff" stroke="#000000" points="1446,-62 1446,-81 1536,-81 1536,-62 1446,-62"/>
<text text-anchor="middle" x="1491" y="-69" font-family="Helvetica,sans-Serif" font-size="10.00" fill="#000000">utils/String.hpp</text>
</a>
</g>
</g>
<!-- Node14&#45;&gt;Node23 -->
<g id="edge35" class="edge">
<title>Node14&#45;&gt;Node23</title>
<path fill="none" stroke="#191970" d="M1310.4375,-123.3906C1347.5,-112.7395 1407.3849,-95.5296 1447.9312,-83.8772"/>
<polygon fill="#191970" stroke="#191970" points="1449.153,-87.1679 1457.7973,-81.0419 1447.2196,-80.4402 1449.153,-87.1679"/>
</g>
<!-- Node21&#45;&gt;Node13 -->
<g id="edge33" class="edge">
<title>Node21&#45;&gt;Node13</title>
<path fill="none" stroke="#191970" d="M880.8606,-81.2484C868.4849,-100.899 840.372,-145.5378 824.4868,-170.7608"/>
<polygon fill="#191970" stroke="#191970" points="821.4233,-169.0575 819.0557,-179.3845 827.3465,-172.7879 821.4233,-169.0575"/>
</g>
<!-- Node23&#45;&gt;Node6 -->
<g id="edge37" class="edge">
<title>Node23&#45;&gt;Node6</title>
<path fill="none" stroke="#191970" d="M1462.117,-61.9945C1454.0661,-59.6789 1445.2613,-57.4529 1437,-56 1312.1901,-34.0501 915.8451,-16.1661 800.0556,-11.3066"/>
<polygon fill="#191970" stroke="#191970" points="800.1853,-7.8091 790.0483,-10.8899 799.894,-14.803 800.1853,-7.8091"/>
</g>
<!-- Node24 -->
<g id="node25" class="node">
<title>Node24</title>
<polygon fill="#ffffff" stroke="#bfbfbf" points="1778,-.5 1778,-19.5 1834,-19.5 1834,-.5 1778,-.5"/>
<text text-anchor="middle" x="1806" y="-7.5" font-family="Helvetica,sans-Serif" font-size="10.00" fill="#000000">sstream</text>
</g>
<!-- Node23&#45;&gt;Node24 -->
<g id="edge36" class="edge">
<title>Node23&#45;&gt;Node24</title>
<path fill="none" stroke="#191970" d="M1522.2645,-61.9231C1529.6788,-59.8198 1537.5874,-57.7121 1545,-56 1623.6397,-37.8367 1717.0538,-22.967 1768.0721,-15.4053"/>
<polygon fill="#191970" stroke="#191970" points="1768.6092,-18.8641 1777.9943,-13.9478 1767.5918,-11.9384 1768.6092,-18.8641"/>
</g>
<!-- Node28&#45;&gt;Node6 -->
<g id="edge47" class="edge">
<title>Node28&#45;&gt;Node6</title>
<path fill="none" stroke="#191970" d="M953.0673,-358.484C969.9837,-341.7177 1003.4882,-304.9806 1016,-266 1027.9485,-228.7746 1026.9636,-209.8908 1003,-179 948.6574,-108.9484 893.6794,-144.27 826,-87 806.1355,-70.1908 789.0054,-45.3957 778.6159,-28.5162"/>
<polygon fill="#191970" stroke="#191970" points="781.435,-26.4098 773.3079,-19.6126 775.4224,-29.9943 781.435,-26.4098"/>
</g>
<!-- Node28&#45;&gt;Node13 -->
<g id="edge49" class="edge">
<title>Node28&#45;&gt;Node13</title>
<path fill="none" stroke="#191970" d="M936.0106,-358.3762C915.2018,-329.7241 853.4124,-244.6448 826.1619,-207.1229"/>
<polygon fill="#191970" stroke="#191970" points="828.7323,-204.706 820.0239,-198.6714 823.0684,-208.8194 828.7323,-204.706"/>
</g>
<!-- Node28&#45;&gt;Node27 -->
<g id="edge48" class="edge">
<title>Node28&#45;&gt;Node27</title>
<path fill="none" stroke="#191970" d="M919.4489,-358.3733C897.0259,-349.2077 863.098,-335.3393 838.1851,-325.156"/>
<polygon fill="#191970" stroke="#191970" points="839.3695,-321.859 828.7886,-321.315 836.7208,-328.3386 839.3695,-321.859"/>
</g>
<!-- Node29&#45;&gt;Node11 -->
<g id="edge53" class="edge">
<title>Node29&#45;&gt;Node11</title>
<path fill="none" stroke="#191970" d="M939.9794,-240.8069C929.4377,-224.7934 905.9768,-193.1767 877,-179 816.4414,-149.3722 628.9413,-138.6667 522.9581,-134.9216"/>
<polygon fill="#191970" stroke="#191970" points="522.7628,-131.413 512.6493,-134.5702 522.5243,-138.4089 522.7628,-131.413"/>
</g>
<!-- Node29&#45;&gt;Node13 -->
<g id="edge54" class="edge">
<title>Node29&#45;&gt;Node13</title>
<path fill="none" stroke="#191970" d="M925.2188,-240.8906C903.1606,-230.6908 868.095,-214.4763 843.0331,-202.8875"/>
<polygon fill="#191970" stroke="#191970" points="844.1809,-199.5622 833.6353,-198.5419 841.2429,-205.9158 844.1809,-199.5622"/>
</g>
<!-- Node30 -->
<g id="node31" class="node">
<title>Node30</title>
<polygon fill="#ffffff" stroke="#bfbfbf" points="924.5,-179.5 924.5,-198.5 993.5,-198.5 993.5,-179.5 924.5,-179.5"/>
<text text-anchor="middle" x="959" y="-186.5" font-family="Helvetica,sans-Serif" font-size="10.00" fill="#000000">Eigen/Core</text>
</g>
<!-- Node29&#45;&gt;Node30 -->
<g id="edge52" class="edge">
<title>Node29&#45;&gt;Node30</title>
<path fill="none" stroke="#191970" d="M948.0313,-240.8906C949.8522,-232.276 952.5802,-219.3708 954.8599,-208.5858"/>
<polygon fill="#191970" stroke="#191970" points="958.2962,-209.2525 956.9401,-198.7449 951.4476,-207.8048 958.2962,-209.2525"/>
</g>
<!-- Node31&#45;&gt;Node3 -->
<g id="edge61" class="edge">
<title>Node31&#45;&gt;Node3</title>
<path fill="none" stroke="#191970" d="M605.1563,-240.8906C584.1864,-230.7359 550.9056,-214.6196 526.9964,-203.0416"/>
<polygon fill="#191970" stroke="#191970" points="528.2301,-199.7502 517.7044,-198.5419 525.1792,-206.0504 528.2301,-199.7502"/>
</g>
<!-- Node31&#45;&gt;Node6 -->
<g id="edge58" class="edge">
<title>Node31&#45;&gt;Node6</title>
<path fill="none" stroke="#191970" d="M651.1332,-240.9027C670.3089,-232.5897 695.5942,-218.7655 711,-199 751.4787,-147.0663 763.3041,-66.6329 766.6852,-29.7279"/>
<polygon fill="#191970" stroke="#191970" points="770.1745,-29.9998 767.4858,-19.7519 763.197,-29.4398 770.1745,-29.9998"/>
</g>
<!-- Node31&#45;&gt;Node8 -->
<g id="edge59" class="edge">
<title>Node31&#45;&gt;Node8</title>
<path fill="none" stroke="#191970" d="M615.2976,-240.946C598.9519,-225.4244 564.2443,-194.8721 529,-179 496.0617,-164.1664 395.6845,-146.7268 342.6516,-138.2106"/>
<polygon fill="#191970" stroke="#191970" points="343.1358,-134.7437 332.7102,-136.6297 342.0365,-141.6568 343.1358,-134.7437"/>
</g>
<!-- Node31&#45;&gt;Node12 -->
<g id="edge57" class="edge">
<title>Node31&#45;&gt;Node12</title>
<path fill="none" stroke="#191970" d="M622.9032,-240.8762C616.7399,-212.5883 598.593,-129.2987 590.2653,-91.0767"/>
<polygon fill="#191970" stroke="#191970" points="593.6559,-90.1971 588.1072,-81.1714 586.8163,-91.6873 593.6559,-90.1971"/>
</g>
<!-- Node31&#45;&gt;Node13 -->
<g id="edge60" class="edge">
<title>Node31&#45;&gt;Node13</title>
<path fill="none" stroke="#191970" d="M654.375,-240.8906C686.6586,-230.3298 738.6535,-213.3208 774.2547,-201.6747"/>
<polygon fill="#191970" stroke="#191970" points="775.4151,-204.9776 783.8313,-198.5419 773.2387,-198.3246 775.4151,-204.9776"/>
</g>
<!-- Node32 -->
<g id="node33" class="node">
<title>Node32</title>
<polygon fill="#ffffff" stroke="#bfbfbf" points="652.5,-179.5 652.5,-198.5 701.5,-198.5 701.5,-179.5 652.5,-179.5"/>
<text text-anchor="middle" x="677" y="-186.5" font-family="Helvetica,sans-Serif" font-size="10.00" fill="#000000">iosfwd</text>
</g>
<!-- Node31&#45;&gt;Node32 -->
<g id="edge56" class="edge">
<title>Node31&#45;&gt;Node32</title>
<path fill="none" stroke="#191970" d="M633.125,-240.8906C640.8642,-231.7376 652.6987,-217.7409 662.1272,-206.59"/>
<polygon fill="#191970" stroke="#191970" points="664.9765,-208.6409 668.7604,-198.7449 659.6311,-204.1213 664.9765,-208.6409"/>
</g>
<!-- Node33&#45;&gt;Node15 -->
<g id="edge67" class="edge">
<title>Node33&#45;&gt;Node15</title>
<path fill="none" stroke="#191970" d="M1903.4666,-305.792C1846.5276,-298.3548 1761.0108,-284.5389 1734,-266 1671.6299,-223.1922 1633.3462,-138.0024 1617.487,-96.0316"/>
<polygon fill="#191970" stroke="#191970" points="1620.7497,-94.7628 1614.0205,-86.5793 1614.1777,-97.173 1620.7497,-94.7628"/>
</g>
<!-- Node33&#45;&gt;Node17 -->
<g id="edge69" class="edge">
<title>Node33&#45;&gt;Node17</title>
<path fill="none" stroke="#191970" d="M1948.1437,-302.2742C1916.0132,-266.9894 1805.0394,-145.1209 1758.6432,-94.1698"/>
<polygon fill="#191970" stroke="#191970" points="1761.094,-91.6628 1751.7733,-86.6255 1755.9183,-96.3758 1761.094,-91.6628"/>
</g>
<!-- Node33&#45;&gt;Node18 -->
<g id="edge70" class="edge">
<title>Node33&#45;&gt;Node18</title>
<path fill="none" stroke="#191970" d="M1956.5305,-302.3661C1954.7767,-273.516 1946.8966,-185.9232 1914,-123 1908.4181,-112.3232 1900.0721,-102.1638 1891.955,-93.7333"/>
<polygon fill="#191970" stroke="#191970" points="1894.2228,-91.0536 1884.6508,-86.5119 1889.3014,-96.0315 1894.2228,-91.0536"/>
</g>
<!-- Node33&#45;&gt;Node19 -->
<g id="edge71" class="edge">
<title>Node33&#45;&gt;Node19</title>
<path fill="none" stroke="#191970" d="M1958.658,-302.2742C1964.5743,-267.5702 1984.7693,-149.1096 1993.6966,-96.7429"/>
<polygon fill="#191970" stroke="#191970" points="1997.191,-97.0715 1995.4214,-86.6255 1990.2906,-95.895 1997.191,-97.0715"/>
</g>
<!-- Node33&#45;&gt;Node24 -->
<g id="edge65" class="edge">
<title>Node33&#45;&gt;Node24</title>
<path fill="none" stroke="#191970" d="M1970.9155,-302.19C2002.4265,-278.9589 2078.4034,-216.9502 2103,-143 2112.7015,-113.8321 2085.4006,-58.9592 2082,-56 2047.1285,-25.6548 1911.5637,-15.005 1844.2958,-11.5377"/>
<polygon fill="#191970" stroke="#191970" points="1844.2707,-8.0324 1834.112,-11.041 1843.9296,-15.0241 1844.2707,-8.0324"/>
</g>
<!-- Node33&#45;&gt;Node31 -->
<g id="edge72" class="edge">
<title>Node33&#45;&gt;Node31</title>
<path fill="none" stroke="#191970" d="M1903.2741,-310.0781C1745.5548,-304.3578 1270.1705,-286.5553 876,-266 810.3281,-262.5753 735.0438,-257.8148 684.1927,-254.4759"/>
<polygon fill="#191970" stroke="#191970" points="684.2503,-250.9722 674.0418,-253.807 683.79,-257.9571 684.2503,-250.9722"/>
</g>
<!-- Node34 -->
<g id="node35" class="node">
<title>Node34</title>
<polygon fill="#ffffff" stroke="#bfbfbf" points="2132,-241 2132,-260 2184,-260 2184,-241 2132,-241"/>
<text text-anchor="middle" x="2158" y="-248" font-family="Helvetica,sans-Serif" font-size="10.00" fill="#000000">cassert</text>
</g>
<!-- Node33&#45;&gt;Node34 -->
<g id="edge63" class="edge">
<title>Node33&#45;&gt;Node34</title>
<path fill="none" stroke="#191970" d="M1994.0622,-302.4435C2026.886,-293.7354 2075.9749,-280.1131 2118,-266 2120.2636,-265.2398 2122.5877,-264.4269 2124.9216,-263.5864"/>
<polygon fill="#191970" stroke="#191970" points="2126.2919,-266.811 2134.4411,-260.0403 2123.8484,-260.2513 2126.2919,-266.811"/>
</g>
<!-- Node35 -->
<g id="node36" class="node">
<title>Node35</title>
<polygon fill="#ffffff" stroke="#bfbfbf" points="2202,-241 2202,-260 2262,-260 2262,-241 2202,-241"/>
<text text-anchor="middle" x="2232" y="-248" font-family="Helvetica,sans-Serif" font-size="10.00" fill="#000000">iostream</text>
</g>
<!-- Node33&#45;&gt;Node35 -->
<g id="edge64" class="edge">
<title>Node33&#45;&gt;Node35</title>
<path fill="none" stroke="#191970" d="M2010.6348,-304.4582C2058.9153,-296.9844 2131.516,-284.0399 2193,-266 2195.4469,-265.282 2197.9538,-264.4707 2200.4584,-263.6049"/>
<polygon fill="#191970" stroke="#191970" points="2201.8153,-266.8347 2209.9761,-260.0781 2199.383,-260.2708 2201.8153,-266.8347"/>
</g>
<!-- Node36 -->
<g id="node37" class="node">
<title>Node36</title>
<polygon fill="#ffffff" stroke="#bfbfbf" points="2280.5,-241 2280.5,-260 2427.5,-260 2427.5,-241 2280.5,-241"/>
<text text-anchor="middle" x="2354" y="-248" font-family="Helvetica,sans-Serif" font-size="10.00" fill="#000000">boost/current_function.hpp</text>
</g>
<!-- Node33&#45;&gt;Node36 -->
<g id="edge66" class="edge">
<title>Node33&#45;&gt;Node36</title>
<path fill="none" stroke="#191970" d="M2010.7152,-304.7829C2073.3181,-296.2206 2179.8328,-281.1845 2271,-266 2278.6252,-264.73 2286.6309,-263.3255 2294.5367,-261.8958"/>
<polygon fill="#191970" stroke="#191970" points="2295.2547,-265.3226 2304.4613,-260.0796 2293.9946,-258.4369 2295.2547,-265.3226"/>
</g>
<!-- Node37 -->
<g id="node38" class="node">
<title>Node37</title>
<polygon fill="#ffffff" stroke="#bfbfbf" points="1742.5,-235.5 1742.5,-265.5 1871.5,-265.5 1871.5,-235.5 1742.5,-235.5"/>
<text text-anchor="start" x="1750.5" y="-253.5" font-family="Helvetica,sans-Serif" font-size="10.00" fill="#000000">boost/preprocessor</text>
<text text-anchor="middle" x="1807" y="-242.5" font-family="Helvetica,sans-Serif" font-size="10.00" fill="#000000">/facilities/is_empty.hpp</text>
</g>
<!-- Node33&#45;&gt;Node37 -->
<g id="edge68" class="edge">
<title>Node33&#45;&gt;Node37</title>
<path fill="none" stroke="#191970" d="M1933.5625,-302.3906C1912.134,-293.6049 1879.8212,-280.3567 1853.2097,-269.446"/>
<polygon fill="#191970" stroke="#191970" points="1854.2744,-266.0998 1843.6941,-265.5446 1851.6189,-272.5766 1854.2744,-266.0998"/>
</g>
<!-- Node38 -->
<g id="node39" class="node">
<title>Node38</title>
<g id="a_node39"><a xlink:href="stacktrace_8hpp.html" target="_top" xlink:title="stacktrace.hpp">
<polygon fill="#ffffff" stroke="#000000" points="2004.5,-123.5 2004.5,-142.5 2093.5,-142.5 2093.5,-123.5 2004.5,-123.5"/>
<text text-anchor="middle" x="2049" y="-130.5" font-family="Helvetica,sans-Serif" font-size="10.00" fill="#000000">stacktrace.hpp</text>
</a>
</g>
</g>
<!-- Node33&#45;&gt;Node38 -->
<g id="edge73" class="edge">
<title>Node33&#45;&gt;Node38</title>
<path fill="none" stroke="#191970" d="M1964.9605,-302.1675C1972.0658,-293.1141 1982.4803,-279.136 1990,-266 2012.1699,-227.2718 2031.8381,-178.6589 2041.8999,-152.2464"/>
<polygon fill="#191970" stroke="#191970" points="2045.2543,-153.2696 2045.4931,-142.6774 2038.7011,-150.8087 2045.2543,-153.2696"/>
</g>
<!-- Node38&#45;&gt;Node6 -->
<g id="edge74" class="edge">
<title>Node38&#45;&gt;Node6</title>
<path fill="none" stroke="#191970" d="M2055.5602,-123.497C2065.8412,-107.3385 2082.826,-74.4694 2065,-56 2042.3372,-32.5192 997.912,-13.8555 800.1344,-10.5286"/>
<polygon fill="#191970" stroke="#191970" points="800.1464,-7.0284 790.0893,-10.3606 800.0293,-14.0274 800.1464,-7.0284"/>
</g>
</g>
</svg>
        <g id="navigator" transform="translate(0 0)" fill="#404254">
                <rect fill="#f2f5e9" fill-opacity="0.5" stroke="#606060" stroke-width=".5" x="0" y="0" width="60" height="60"/>
                <use id="zoomplus" xlink:href="#zoomPlus" x="17" y="9" onmousedown="handleZoom(evt,'in')"/>
                <use id="zoomminus" xlink:href="#zoomMin" x="42" y="9" onmousedown="handleZoom(evt,'out')"/>
                <use id="reset" xlink:href="#resetDef" x="30" y="36" onmousedown="handleReset()"/>
                <g id="arrowUp" xlink:href="#dirArrow" transform="translate(30 24)" onmousedown="handlePan(0,-1)">
                  <use xlink:href="#rim" fill="#404040">
                        <set attributeName="fill" to="#808080" begin="arrowUp.mouseover" end="arrowUp.mouseout"/>
                  </use>
                  <path fill="none" stroke="white" stroke-width="1.5" d="M0,-3.0v7 M-2.5,-0.5L0,-3.0L2.5,-0.5"/>
                </g>
                <g id="arrowRight" xlink:href="#dirArrow" transform="rotate(90) translate(36 -43)" onmousedown="handlePan(1,0)">
                  <use xlink:href="#rim" fill="#404040">
                        <set attributeName="fill" to="#808080" begin="arrowRight.mouseover" end="arrowRight.mouseout"/>
                  </use>
                  <path fill="none" stroke="white" stroke-width="1.5" d="M0,-3.0v7 M-2.5,-0.5L0,-3.0L2.5,-0.5"/>
                </g>
                <g id="arrowDown" xlink:href="#dirArrow" transform="rotate(180) translate(-30 -48)" onmousedown="handlePan(0,1)">
                  <use xlink:href="#rim" fill="#404040">
                        <set attributeName="fill" to="#808080" begin="arrowDown.mouseover" end="arrowDown.mouseout"/>
                  </use>
                  <path fill="none" stroke="white" stroke-width="1.5" d="M0,-3.0v7 M-2.5,-0.5L0,-3.0L2.5,-0.5"/>
                </g>
                <g id="arrowLeft" xlink:href="#dirArrow" transform="rotate(270) translate(-36 17)" onmousedown="handlePan(-1,0)">
                  <use xlink:href="#rim" fill="#404040">
                        <set attributeName="fill" to="#808080" begin="arrowLeft.mouseover" end="arrowLeft.mouseout"/>
                  </use>
                  <path fill="none" stroke="white" stroke-width="1.5" d="M0,-3.0v7 M-2.5,-0.5L0,-3.0L2.5,-0.5"/>
                </g>
        </g>
        <svg viewBox="0 0 15 15" width="100%" height="30px" preserveAspectRatio="xMaxYMin meet">
         <g id="arrow_out" transform="scale(0.3 0.3)">
          <a xlink:href="MPISinglePortsCommunication_8cpp__incl_org.svg" target="_base">
           <rect id="button" ry="5" rx="5" y="6" x="6" height="38" width="38"
                fill="#f2f5e9" fill-opacity="0.5" stroke="#606060" stroke-width="1.0"/>
           <path id="arrow"
             d="M 11.500037,31.436501 C 11.940474,20.09759 22.043105,11.32322 32.158766,21.979434 L 37.068811,17.246167 C 37.068811,17.246167 37.088388,32 37.088388,32 L 22.160133,31.978069 C 22.160133,31.978069 26.997745,27.140456 26.997745,27.140456 C 18.528582,18.264221 13.291696,25.230495 11.500037,31.436501 z"
             style="fill:#404040;"/>
          </a>
         </g>
        </svg>
</svg>
