<?xml version="1.0" encoding="UTF-8" standalone="no"?>
<!DOCTYPE svg PUBLIC "-//W3C//DTD SVG 1.1//EN"
 "http://www.w3.org/Graphics/SVG/1.1/DTD/svg11.dtd">
<!-- Generated by graphviz version 2.40.1 (20161225.0304)
 -->
<!-- Title: precice::testing::com::masterslave::TestSendAndReceiveVectors Pages: 1 -->
<svg width="580pt" height="78pt"
 viewBox="0.00 0.00 580.00 77.50" xmlns="http://www.w3.org/2000/svg" xmlns:xlink="http://www.w3.org/1999/xlink">
<g id="graph0" class="graph" transform="scale(1 1) rotate(0) translate(4 73.5)">
<title>precice::testing::com::masterslave::TestSendAndReceiveVectors</title>
<polygon fill="#ffffff" stroke="transparent" points="-4,4 -4,-73.5 576,-73.5 576,4 -4,4"/>
<!-- Node18 -->
<g id="node1" class="node">
<title>Node18</title>
<polygon fill="#bfbfbf" stroke="#000000" points="0,-11.5 0,-52.5 190,-52.5 190,-11.5 0,-11.5"/>
<text text-anchor="start" x="8" y="-40.5" font-family="Helvetica,sans-Serif" font-size="10.00" fill="#000000">precice::testing::com</text>
<text text-anchor="start" x="8" y="-29.5" font-family="Helvetica,sans-Serif" font-size="10.00" fill="#000000">::masterslave::TestSendAndReceive</text>
<text text-anchor="middle" x="95" y="-18.5" font-family="Helvetica,sans-Serif" font-size="10.00" fill="#000000">Vectors</text>
</g>
<!-- Node19 -->
<g id="node2" class="node">
<title>Node19</title>
<g id="a_node2"><a xlink:href="classprecice_1_1testing_1_1TestContext.html#ae29e764c55d02af8024417f307aba70b" target="_top" xlink:title="precice::testing::TestContext\l::isMaster">
<polygon fill="#ffffff" stroke="#000000" points="226,-39 226,-69 381,-69 381,-39 226,-39"/>
<text text-anchor="start" x="234" y="-57" font-family="Helvetica,sans-Serif" font-size="10.00" fill="#000000">precice::testing::TestContext</text>
<text text-anchor="middle" x="303.5" y="-46" font-family="Helvetica,sans-Serif" font-size="10.00" fill="#000000">::isMaster</text>
</a>
</g>
</g>
<!-- Node18&#45;&gt;Node19 -->
<g id="edge1" class="edge">
<title>Node18&#45;&gt;Node19</title>
<path fill="none" stroke="#191970" d="M190.0979,-42.0343C198.5734,-42.9286 207.1302,-43.8315 215.542,-44.7191"/>
<polygon fill="#191970" stroke="#191970" points="215.4031,-48.2238 225.7152,-45.7925 216.1377,-41.2624 215.4031,-48.2238"/>
</g>
<!-- Node21 -->
<g id="node4" class="node">
<title>Node21</title>
<g id="a_node4"><a xlink:href="namespaceprecice_1_1testing.html#a6a116337529290bbb1bf2545b5fb315a" target="_top" xlink:title="equals to be used in tests. Prints both operatorans on failure ">
<polygon fill="#ffffff" stroke="#000000" points="238.5,-.5 238.5,-19.5 368.5,-19.5 368.5,-.5 238.5,-.5"/>
<text text-anchor="middle" x="303.5" y="-7.5" font-family="Helvetica,sans-Serif" font-size="10.00" fill="#000000">precice::testing::equals</text>
</a>
</g>
</g>
<!-- Node18&#45;&gt;Node21 -->
<g id="edge3" class="edge">
<title>Node18&#45;&gt;Node21</title>
<path fill="none" stroke="#191970" d="M190.0979,-21.9657C202.8519,-20.6199 215.7899,-19.2548 228.1407,-17.9516"/>
<polygon fill="#191970" stroke="#191970" points="228.7827,-21.4034 238.3602,-16.8733 228.0481,-14.442 228.7827,-21.4034"/>
</g>
<!-- Node20 -->
<g id="node3" class="node">
<title>Node20</title>
<g id="a_node3"><a xlink:href="classprecice_1_1testing_1_1TestContext.html#a8fefcbe2f6def4d4cc9816d238b2797e" target="_top" xlink:title="Check wheater this context has a given rank inside the Partiticipant. ">
<polygon fill="#ffffff" stroke="#000000" points="417,-39 417,-69 572,-69 572,-39 417,-39"/>
<text text-anchor="start" x="425" y="-57" font-family="Helvetica,sans-Serif" font-size="10.00" fill="#000000">precice::testing::TestContext</text>
<text text-anchor="middle" x="494.5" y="-46" font-family="Helvetica,sans-Serif" font-size="10.00" fill="#000000">::isRank</text>
</a>
</g>
</g>
<!-- Node19&#45;&gt;Node20 -->
<g id="edge2" class="edge">
<title>Node19&#45;&gt;Node20</title>
<path fill="none" stroke="#191970" d="M381.187,-54C389.6495,-54 398.3055,-54 406.8763,-54"/>
<polygon fill="#191970" stroke="#191970" points="406.8819,-57.5001 416.8818,-54 406.8818,-50.5001 406.8819,-57.5001"/>
</g>
<!-- Node22 -->
<g id="node5" class="node">
<title>Node22</title>
<g id="a_node5"><a xlink:href="namespaceprecice_1_1math.html#a0e86802cfe992deba131d789d035b5b7" target="_top" xlink:title="Compares two Eigen::MatrixBase for equality up to tolerance. ">
<polygon fill="#ffffff" stroke="#000000" points="433.5,-.5 433.5,-19.5 555.5,-19.5 555.5,-.5 433.5,-.5"/>
<text text-anchor="middle" x="494.5" y="-7.5" font-family="Helvetica,sans-Serif" font-size="10.00" fill="#000000">precice::math::equals</text>
</a>
</g>
</g>
<!-- Node21&#45;&gt;Node22 -->
<g id="edge4" class="edge">
<title>Node21&#45;&gt;Node22</title>
<path fill="none" stroke="#191970" d="M368.6972,-10C386.3048,-10 405.4456,-10 423.3608,-10"/>
<polygon fill="#191970" stroke="#191970" points="423.4571,-13.5001 433.4571,-10 423.457,-6.5001 423.4571,-13.5001"/>
</g>
</g>
</svg>
