<?xml version="1.0" encoding="UTF-8" standalone="no"?>
<!DOCTYPE svg PUBLIC "-//W3C//DTD SVG 1.1//EN"
 "http://www.w3.org/Graphics/SVG/1.1/DTD/svg11.dtd">
<!-- Generated by graphviz version 2.40.1 (20161225.0304)
 -->
<!-- Title: precice::utils::statistics::operator&lt;&lt; Pages: 1 -->
<svg width="688pt" height="237pt"
 viewBox="0.00 0.00 688.00 236.65" xmlns="http://www.w3.org/2000/svg" xmlns:xlink="http://www.w3.org/1999/xlink">
<g id="graph0" class="graph" transform="scale(1 1) rotate(0) translate(4 232.648)">
<title>precice::utils::statistics::operator&lt;&lt;</title>
<polygon fill="#ffffff" stroke="transparent" points="-4,4 -4,-232.648 684,-232.648 684,4 -4,4"/>
<!-- Node0 -->
<g id="node1" class="node">
<title>Node0</title>
<polygon fill="#bfbfbf" stroke="#000000" points="0,-122.5 0,-152.5 118,-152.5 118,-122.5 0,-122.5"/>
<text text-anchor="start" x="8" y="-140.5" font-family="Helvetica,sans-Serif" font-size="10.00" fill="#000000">precice::utils::statistics</text>
<text text-anchor="middle" x="59" y="-129.5" font-family="Helvetica,sans-Serif" font-size="10.00" fill="#000000">::operator&lt;&lt;</text>
</g>
<!-- Node1 -->
<g id="node2" class="node">
<title>Node1</title>
<g id="a_node2"><a xlink:href="classprecice_1_1utils_1_1statistics_1_1DistanceAccumulator.html#ab62a4d99f3b8c512aeb45a3a9ae0547b" target="_top" xlink:title="Returns count == 0. ">
<polygon fill="#ffffff" stroke="#000000" points="349,-123.5 349,-153.5 498,-153.5 498,-123.5 349,-123.5"/>
<text text-anchor="start" x="357" y="-141.5" font-family="Helvetica,sans-Serif" font-size="10.00" fill="#000000">precice::utils::statistics</text>
<text text-anchor="middle" x="423.5" y="-130.5" font-family="Helvetica,sans-Serif" font-size="10.00" fill="#000000">::DistanceAccumulator::empty</text>
</a>
</g>
</g>
<!-- Node0&#45;&gt;Node1 -->
<g id="edge1" class="edge">
<title>Node0&#45;&gt;Node1</title>
<path fill="none" stroke="#191970" d="M80.4149,-152.6689C98.9085,-164.7803 126.8593,-180.7938 154,-187.5 222.6034,-204.4513 243.8666,-202.1408 313,-187.5 339.6468,-181.8569 367.6779,-169.3403 388.84,-158.3706"/>
<polygon fill="#191970" stroke="#191970" points="390.5704,-161.4146 397.7568,-153.6296 387.2841,-155.2339 390.5704,-161.4146"/>
</g>
<!-- Node2 -->
<g id="node3" class="node">
<title>Node2</title>
<g id="a_node3"><a xlink:href="classprecice_1_1utils_1_1statistics_1_1DistanceAccumulator.html#ac9b87639f46a763b1f35cce56f78edd7" target="_top" xlink:title="Returns how many values have been accumulated. ">
<polygon fill="#ffffff" stroke="#000000" points="534,-164.5 534,-194.5 680,-194.5 680,-164.5 534,-164.5"/>
<text text-anchor="start" x="542" y="-182.5" font-family="Helvetica,sans-Serif" font-size="10.00" fill="#000000">precice::utils::statistics</text>
<text text-anchor="middle" x="607" y="-171.5" font-family="Helvetica,sans-Serif" font-size="10.00" fill="#000000">::DistanceAccumulator::count</text>
</a>
</g>
</g>
<!-- Node0&#45;&gt;Node2 -->
<g id="edge11" class="edge">
<title>Node0&#45;&gt;Node2</title>
<path fill="none" stroke="#191970" d="M73.4132,-152.604C90.6948,-169.5104 121.4296,-195.9199 154,-206.5 288.3804,-250.1518 456.7959,-219.3934 545.6124,-197.0572"/>
<polygon fill="#191970" stroke="#191970" points="546.7027,-200.3909 555.5201,-194.517 544.9641,-193.6102 546.7027,-200.3909"/>
</g>
<!-- Node3 -->
<g id="node4" class="node">
<title>Node3</title>
<g id="a_node4"><a xlink:href="classprecice_1_1utils_1_1statistics_1_1DistanceAccumulator.html#a0e1ff9fefc20e18333e8148e0a485e54" target="_top" xlink:title="Returns the minimum of all accumulated values. ">
<polygon fill="#ffffff" stroke="#000000" points="164.5,-147.5 164.5,-177.5 302.5,-177.5 302.5,-147.5 164.5,-147.5"/>
<text text-anchor="start" x="172.5" y="-165.5" font-family="Helvetica,sans-Serif" font-size="10.00" fill="#000000">precice::utils::statistics</text>
<text text-anchor="middle" x="233.5" y="-154.5" font-family="Helvetica,sans-Serif" font-size="10.00" fill="#000000">::DistanceAccumulator::min</text>
</a>
</g>
</g>
<!-- Node0&#45;&gt;Node3 -->
<g id="edge3" class="edge">
<title>Node0&#45;&gt;Node3</title>
<path fill="none" stroke="#191970" d="M118.0777,-145.9639C129.6646,-147.6239 141.994,-149.3903 154.1191,-151.1274"/>
<polygon fill="#191970" stroke="#191970" points="153.84,-154.6231 164.2353,-152.5767 154.8328,-147.6938 153.84,-154.6231"/>
</g>
<!-- Node4 -->
<g id="node5" class="node">
<title>Node4</title>
<g id="a_node5"><a xlink:href="classprecice_1_1utils_1_1statistics_1_1DistanceAccumulator.html#a44afe34d4835d0acdea3066db8e3db5d" target="_top" xlink:title="Returns the maximum of all accumulated values. ">
<polygon fill="#ffffff" stroke="#000000" points="163,-98.5 163,-128.5 304,-128.5 304,-98.5 163,-98.5"/>
<text text-anchor="start" x="171" y="-116.5" font-family="Helvetica,sans-Serif" font-size="10.00" fill="#000000">precice::utils::statistics</text>
<text text-anchor="middle" x="233.5" y="-105.5" font-family="Helvetica,sans-Serif" font-size="10.00" fill="#000000">::DistanceAccumulator::max</text>
</a>
</g>
</g>
<!-- Node0&#45;&gt;Node4 -->
<g id="edge5" class="edge">
<title>Node0&#45;&gt;Node4</title>
<path fill="none" stroke="#191970" d="M118.0777,-129.3747C129.1664,-127.8496 140.9351,-126.231 152.5539,-124.633"/>
<polygon fill="#191970" stroke="#191970" points="153.2752,-128.0668 162.705,-123.2368 152.3213,-121.1321 153.2752,-128.0668"/>
</g>
<!-- Node5 -->
<g id="node6" class="node">
<title>Node5</title>
<g id="a_node6"><a xlink:href="classprecice_1_1utils_1_1statistics_1_1DistanceAccumulator.html#a1749bf70ba662e62affd86e05bfddf3a" target="_top" xlink:title="Returns the mean of all accumulated values. ">
<polygon fill="#ffffff" stroke="#000000" points="160.5,-49.5 160.5,-79.5 306.5,-79.5 306.5,-49.5 160.5,-49.5"/>
<text text-anchor="start" x="168.5" y="-67.5" font-family="Helvetica,sans-Serif" font-size="10.00" fill="#000000">precice::utils::statistics</text>
<text text-anchor="middle" x="233.5" y="-56.5" font-family="Helvetica,sans-Serif" font-size="10.00" fill="#000000">::DistanceAccumulator::mean</text>
</a>
</g>
</g>
<!-- Node0&#45;&gt;Node5 -->
<g id="edge7" class="edge">
<title>Node0&#45;&gt;Node5</title>
<path fill="none" stroke="#191970" d="M85.8885,-122.4301C104.6176,-112.3045 130.3781,-99.1068 154,-89.5 159.717,-87.1749 165.736,-84.9306 171.7977,-82.8047"/>
<polygon fill="#191970" stroke="#191970" points="172.9801,-86.0995 181.3211,-79.5667 170.7267,-79.4721 172.9801,-86.0995"/>
</g>
<!-- Node6 -->
<g id="node7" class="node">
<title>Node6</title>
<g id="a_node7"><a xlink:href="classprecice_1_1utils_1_1statistics_1_1DistanceAccumulator.html#a9ef2624188712f091e7d8b179e9cff01" target="_top" xlink:title="Returns the sample variance based on all accumulated values. ">
<polygon fill="#ffffff" stroke="#000000" points="154,-.5 154,-30.5 313,-30.5 313,-.5 154,-.5"/>
<text text-anchor="start" x="162" y="-18.5" font-family="Helvetica,sans-Serif" font-size="10.00" fill="#000000">precice::utils::statistics</text>
<text text-anchor="middle" x="233.5" y="-7.5" font-family="Helvetica,sans-Serif" font-size="10.00" fill="#000000">::DistanceAccumulator::variance</text>
</a>
</g>
</g>
<!-- Node0&#45;&gt;Node6 -->
<g id="edge9" class="edge">
<title>Node0&#45;&gt;Node6</title>
<path fill="none" stroke="#191970" d="M69.7818,-122.2238C85.7621,-100.6856 117.7747,-61.5638 154,-39.5 156.7705,-37.8126 159.6681,-36.2364 162.649,-34.7649"/>
<polygon fill="#191970" stroke="#191970" points="164.1085,-37.9463 171.7983,-30.658 161.2419,-31.5601 164.1085,-37.9463"/>
</g>
<!-- Node1&#45;&gt;Node2 -->
<g id="edge2" class="edge">
<title>Node1&#45;&gt;Node2</title>
<path fill="none" stroke="#191970" d="M490.7867,-153.5341C503.5022,-156.3751 516.894,-159.3673 529.884,-162.2697"/>
<polygon fill="#191970" stroke="#191970" points="529.1989,-165.7029 539.7215,-164.4677 530.7253,-158.8713 529.1989,-165.7029"/>
</g>
<!-- Node3&#45;&gt;Node1 -->
<g id="edge4" class="edge">
<title>Node3&#45;&gt;Node1</title>
<path fill="none" stroke="#191970" d="M302.6318,-153.7676C314.4028,-152.2807 326.7474,-150.7214 338.8643,-149.1908"/>
<polygon fill="#191970" stroke="#191970" points="339.4889,-152.6398 348.9715,-147.9141 338.6116,-145.695 339.4889,-152.6398"/>
</g>
<!-- Node4&#45;&gt;Node1 -->
<g id="edge6" class="edge">
<title>Node4&#45;&gt;Node1</title>
<path fill="none" stroke="#191970" d="M304.249,-122.8091C315.5102,-124.2908 327.2587,-125.8367 338.8019,-127.3555"/>
<polygon fill="#191970" stroke="#191970" points="338.5045,-130.8465 348.8756,-128.681 339.4177,-123.9063 338.5045,-130.8465"/>
</g>
<!-- Node5&#45;&gt;Node1 -->
<g id="edge8" class="edge">
<title>Node5&#45;&gt;Node1</title>
<path fill="none" stroke="#191970" d="M284.2604,-79.5225C293.872,-82.6317 303.7957,-86.0247 313,-89.5 336.4949,-98.3712 362.1707,-109.6561 382.8542,-119.1596"/>
<polygon fill="#191970" stroke="#191970" points="381.4353,-122.3596 391.9804,-123.3856 384.3768,-116.0075 381.4353,-122.3596"/>
</g>
<!-- Node6&#45;&gt;Node1 -->
<g id="edge10" class="edge">
<title>Node6&#45;&gt;Node1</title>
<path fill="none" stroke="#191970" d="M293.7145,-30.5721C300.4009,-33.1481 306.9667,-36.1104 313,-39.5 348.7996,-59.613 382.8641,-93.0685 403.4712,-115.4487"/>
<polygon fill="#191970" stroke="#191970" points="401.1297,-118.0777 410.4327,-123.1477 406.3219,-113.3828 401.1297,-118.0777"/>
</g>
</g>
</svg>
