<?xml version="1.0" encoding="UTF-8" standalone="no"?>
<!DOCTYPE svg PUBLIC "-//W3C//DTD SVG 1.1//EN"
 "http://www.w3.org/Graphics/SVG/1.1/DTD/svg11.dtd">
<!-- Generated by graphviz version 2.40.1 (20161225.0304)
 -->
<!-- Title: BOOST_AUTO_TEST_CASE Pages: 1 -->
<svg width="780pt" height="529pt"
 viewBox="0.00 0.00 780.00 529.00" xmlns="http://www.w3.org/2000/svg" xmlns:xlink="http://www.w3.org/1999/xlink">
<g id="graph0" class="graph" transform="scale(1 1) rotate(0) translate(4 525)">
<title>BOOST_AUTO_TEST_CASE</title>
<polygon fill="#ffffff" stroke="transparent" points="-4,4 -4,-525 776,-525 776,4 -4,4"/>
<!-- Node80 -->
<g id="node1" class="node">
<title>Node80</title>
<polygon fill="#bfbfbf" stroke="#000000" points="0,-324 0,-343 143,-343 143,-324 0,-324"/>
<text text-anchor="middle" x="71.5" y="-331" font-family="Helvetica,sans-Serif" font-size="10.00" fill="#000000">BOOST_AUTO_TEST_CASE</text>
</g>
<!-- Node81 -->
<g id="node2" class="node">
<title>Node81</title>
<g id="a_node2"><a xlink:href="namespaceprecice_1_1testing.html#a08533fd83bad3d7f27ea7f4a35a14aa4" target="_top" xlink:title="precice::testing::nextMeshID">
<polygon fill="#ffffff" stroke="#000000" points="200,-469 200,-488 355,-488 355,-469 200,-469"/>
<text text-anchor="middle" x="277.5" y="-476" font-family="Helvetica,sans-Serif" font-size="10.00" fill="#000000">precice::testing::nextMeshID</text>
</a>
</g>
</g>
<!-- Node80&#45;&gt;Node81 -->
<g id="edge1" class="edge">
<title>Node80&#45;&gt;Node81</title>
<path fill="none" stroke="#191970" d="M80.1679,-343.2849C97.4618,-362.3703 138.1161,-405.0915 179,-432.5 198.7141,-445.7163 222.8284,-457.0482 242.2628,-465.1578"/>
<polygon fill="#191970" stroke="#191970" points="241.0869,-468.458 251.6686,-468.9858 243.7257,-461.9743 241.0869,-468.458"/>
</g>
<!-- Node83 -->
<g id="node4" class="node">
<title>Node83</title>
<g id="a_node4"><a xlink:href="classprecice_1_1mapping_1_1Mapping.html#a5bf2ecf9adb1ae66977c1223f841a61f" target="_top" xlink:title="Sets input and output meshes carrying data to be mapped. ">
<polygon fill="#ffffff" stroke="#000000" points="203.5,-392.5 203.5,-422.5 351.5,-422.5 351.5,-392.5 203.5,-392.5"/>
<text text-anchor="start" x="211.5" y="-410.5" font-family="Helvetica,sans-Serif" font-size="10.00" fill="#000000">precice::mapping::Mapping</text>
<text text-anchor="middle" x="277.5" y="-399.5" font-family="Helvetica,sans-Serif" font-size="10.00" fill="#000000">::setMeshes</text>
</a>
</g>
</g>
<!-- Node80&#45;&gt;Node83 -->
<g id="edge3" class="edge">
<title>Node80&#45;&gt;Node83</title>
<path fill="none" stroke="#191970" d="M89.3068,-343.1074C110.2687,-354.102 146.3674,-372.0602 179,-383.5 185.3053,-385.7104 191.9065,-387.793 198.5772,-389.737"/>
<polygon fill="#191970" stroke="#191970" points="197.8002,-393.1541 208.3739,-392.485 199.6907,-386.4142 197.8002,-393.1541"/>
</g>
<!-- Node86 -->
<g id="node7" class="node">
<title>Node86</title>
<g id="a_node7"><a xlink:href="RTreeTests_8cpp.html#a9849f5c774ff22e557184d988b1cf9ea" target="_top" xlink:title="BOOST_TEST">
<polygon fill="#ffffff" stroke="#000000" points="237.5,-231 237.5,-250 317.5,-250 317.5,-231 237.5,-231"/>
<text text-anchor="middle" x="277.5" y="-238" font-family="Helvetica,sans-Serif" font-size="10.00" fill="#000000">BOOST_TEST</text>
</a>
</g>
</g>
<!-- Node80&#45;&gt;Node86 -->
<g id="edge6" class="edge">
<title>Node80&#45;&gt;Node86</title>
<path fill="none" stroke="#191970" d="M82.5424,-323.7623C101.1016,-307.9391 140.3259,-276.7797 179,-260.5 194.04,-254.169 211.2358,-249.7946 227.0055,-246.792"/>
<polygon fill="#191970" stroke="#191970" points="227.8838,-250.1913 237.1254,-245.0103 226.67,-243.2973 227.8838,-250.1913"/>
</g>
<!-- Node87 -->
<g id="node8" class="node">
<title>Node87</title>
<g id="a_node8"><a xlink:href="classprecice_1_1mapping_1_1NearestProjectionMapping.html#aa6532b47130173689c2d8586b68190ae" target="_top" xlink:title="Returns true, if the mapping has been computed. ">
<polygon fill="#ffffff" stroke="#000000" points="187.5,-171 187.5,-212 367.5,-212 367.5,-171 187.5,-171"/>
<text text-anchor="start" x="195.5" y="-200" font-family="Helvetica,sans-Serif" font-size="10.00" fill="#000000">precice::mapping::Nearest</text>
<text text-anchor="start" x="195.5" y="-189" font-family="Helvetica,sans-Serif" font-size="10.00" fill="#000000">ProjectionMapping::hasComputed</text>
<text text-anchor="middle" x="277.5" y="-178" font-family="Helvetica,sans-Serif" font-size="10.00" fill="#000000">Mapping</text>
</a>
</g>
</g>
<!-- Node80&#45;&gt;Node87 -->
<g id="edge7" class="edge">
<title>Node80&#45;&gt;Node87</title>
<path fill="none" stroke="#191970" d="M78.0878,-323.8163C93.2917,-302.2013 133.0675,-249.7101 179,-221.5 181.9454,-219.691 185.0078,-217.9842 188.1527,-216.3744"/>
<polygon fill="#191970" stroke="#191970" points="189.6638,-219.5315 197.2055,-212.0902 186.6694,-213.2042 189.6638,-219.5315"/>
</g>
<!-- Node88 -->
<g id="node9" class="node">
<title>Node88</title>
<g id="a_node9"><a xlink:href="classprecice_1_1mapping_1_1NearestProjectionMapping.html#ac68a625b7801db678418f9ae4cd5acb2" target="_top" xlink:title="Computes the projections and interpolation relations. ">
<polygon fill="#ffffff" stroke="#000000" points="179,-269.5 179,-299.5 376,-299.5 376,-269.5 179,-269.5"/>
<text text-anchor="start" x="187" y="-287.5" font-family="Helvetica,sans-Serif" font-size="10.00" fill="#000000">precice::mapping::Nearest</text>
<text text-anchor="middle" x="277.5" y="-276.5" font-family="Helvetica,sans-Serif" font-size="10.00" fill="#000000">ProjectionMapping::computeMapping</text>
</a>
</g>
</g>
<!-- Node80&#45;&gt;Node88 -->
<g id="edge8" class="edge">
<title>Node80&#45;&gt;Node88</title>
<path fill="none" stroke="#191970" d="M111.7079,-323.936C138.016,-317.6782 173.1618,-309.3183 204.3225,-301.9063"/>
<polygon fill="#191970" stroke="#191970" points="205.3648,-305.2561 214.2834,-299.537 203.7449,-298.4461 205.3648,-305.2561"/>
</g>
<!-- Node98 -->
<g id="node19" class="node">
<title>Node98</title>
<g id="a_node19"><a xlink:href="classprecice_1_1mapping_1_1NearestProjectionMapping.html#a5cf6fa54acfcf2e3f3cd8e086af121e0" target="_top" xlink:title="Uses projection and interpolation relations to map data values. ">
<polygon fill="#ffffff" stroke="#000000" points="205,-343.5 205,-373.5 350,-373.5 350,-343.5 205,-343.5"/>
<text text-anchor="start" x="213" y="-361.5" font-family="Helvetica,sans-Serif" font-size="10.00" fill="#000000">precice::mapping::Nearest</text>
<text text-anchor="middle" x="277.5" y="-350.5" font-family="Helvetica,sans-Serif" font-size="10.00" fill="#000000">ProjectionMapping::map</text>
</a>
</g>
</g>
<!-- Node80&#45;&gt;Node98 -->
<g id="edge22" class="edge">
<title>Node80&#45;&gt;Node98</title>
<path fill="none" stroke="#191970" d="M143.2596,-342.2087C159.9549,-344.2348 177.8598,-346.4077 194.9782,-348.4852"/>
<polygon fill="#191970" stroke="#191970" points="194.6025,-351.9652 204.9513,-349.6956 195.4459,-345.0162 194.6025,-351.9652"/>
</g>
<!-- Node82 -->
<g id="node3" class="node">
<title>Node82</title>
<g id="a_node3"><a xlink:href="classprecice_1_1utils_1_1ManageUniqueIDs.html#a02be264c279698ae293587b6576088b5" target="_top" xlink:title="precice::utils::ManageUnique\lIDs::getFreeID">
<polygon fill="#ffffff" stroke="#000000" points="415,-490.5 415,-520.5 573,-520.5 573,-490.5 415,-490.5"/>
<text text-anchor="start" x="423" y="-508.5" font-family="Helvetica,sans-Serif" font-size="10.00" fill="#000000">precice::utils::ManageUnique</text>
<text text-anchor="middle" x="494" y="-497.5" font-family="Helvetica,sans-Serif" font-size="10.00" fill="#000000">IDs::getFreeID</text>
</a>
</g>
</g>
<!-- Node81&#45;&gt;Node82 -->
<g id="edge2" class="edge">
<title>Node81&#45;&gt;Node82</title>
<path fill="none" stroke="#191970" d="M353.8298,-488.0192C370.1622,-490.056 387.5592,-492.2256 404.3416,-494.3186"/>
<polygon fill="#191970" stroke="#191970" points="404.3404,-497.8455 414.6967,-495.61 405.2067,-490.8993 404.3404,-497.8455"/>
</g>
<!-- Node84 -->
<g id="node5" class="node">
<title>Node84</title>
<g id="a_node5"><a xlink:href="classprecice_1_1mapping_1_1Mapping.html#a61c3c55af467ada2bdd735efa0f960e4" target="_top" xlink:title="Returns pointer to input mesh. ">
<polygon fill="#ffffff" stroke="#000000" points="420,-441.5 420,-471.5 568,-471.5 568,-441.5 420,-441.5"/>
<text text-anchor="start" x="428" y="-459.5" font-family="Helvetica,sans-Serif" font-size="10.00" fill="#000000">precice::mapping::Mapping</text>
<text text-anchor="middle" x="494" y="-448.5" font-family="Helvetica,sans-Serif" font-size="10.00" fill="#000000">::input</text>
</a>
</g>
</g>
<!-- Node83&#45;&gt;Node84 -->
<g id="edge4" class="edge">
<title>Node83&#45;&gt;Node84</title>
<path fill="none" stroke="#191970" d="M343.9285,-422.5346C367.3074,-427.8259 393.7617,-433.8133 417.8769,-439.2712"/>
<polygon fill="#191970" stroke="#191970" points="417.1712,-442.7 427.6972,-441.4938 418.7165,-435.8726 417.1712,-442.7"/>
</g>
<!-- Node85 -->
<g id="node6" class="node">
<title>Node85</title>
<g id="a_node6"><a xlink:href="classprecice_1_1mapping_1_1Mapping.html#a07a71a54b71eda6d54510c94fb188e70" target="_top" xlink:title="Returns pointer to output mesh. ">
<polygon fill="#ffffff" stroke="#000000" points="420,-392.5 420,-422.5 568,-422.5 568,-392.5 420,-392.5"/>
<text text-anchor="start" x="428" y="-410.5" font-family="Helvetica,sans-Serif" font-size="10.00" fill="#000000">precice::mapping::Mapping</text>
<text text-anchor="middle" x="494" y="-399.5" font-family="Helvetica,sans-Serif" font-size="10.00" fill="#000000">::output</text>
</a>
</g>
</g>
<!-- Node83&#45;&gt;Node85 -->
<g id="edge5" class="edge">
<title>Node83&#45;&gt;Node85</title>
<path fill="none" stroke="#191970" d="M351.7041,-407.5C370.3808,-407.5 390.5628,-407.5 409.6943,-407.5"/>
<polygon fill="#191970" stroke="#191970" points="409.8929,-411.0001 419.8928,-407.5 409.8928,-404.0001 409.8929,-411.0001"/>
</g>
<!-- Node88&#45;&gt;Node84 -->
<g id="edge9" class="edge">
<title>Node88&#45;&gt;Node84</title>
<path fill="none" stroke="#191970" d="M323.8991,-299.5698C342.1953,-307.4914 362.1136,-318.8752 376,-334.5 406.8245,-369.1833 378.1038,-400.812 412,-432.5 413.1513,-433.5763 414.3483,-434.6046 415.5852,-435.587"/>
<polygon fill="#191970" stroke="#191970" points="414.0159,-438.7496 424.2667,-441.4277 417.9233,-432.9417 414.0159,-438.7496"/>
</g>
<!-- Node88&#45;&gt;Node85 -->
<g id="edge10" class="edge">
<title>Node88&#45;&gt;Node85</title>
<path fill="none" stroke="#191970" d="M317.4649,-299.6629C336.4662,-308.0953 358.7421,-319.862 376,-334.5 396.6087,-351.9801 389.8649,-367.9981 412,-383.5 414.1263,-384.9891 416.345,-386.3867 418.6337,-387.6985"/>
<polygon fill="#191970" stroke="#191970" points="417.2604,-390.9268 427.76,-392.344 420.4358,-384.6884 417.2604,-390.9268"/>
</g>
<!-- Node89 -->
<g id="node10" class="node">
<title>Node89</title>
<g id="a_node10"><a xlink:href="classprecice_1_1mapping_1_1Mapping.html#a6afbd9aaac2ab09b078db271cfd977a1" target="_top" xlink:title="Returns the constraint (consistent/conservative) of the mapping. ">
<polygon fill="#ffffff" stroke="#000000" points="420,-294.5 420,-324.5 568,-324.5 568,-294.5 420,-294.5"/>
<text text-anchor="start" x="428" y="-312.5" font-family="Helvetica,sans-Serif" font-size="10.00" fill="#000000">precice::mapping::Mapping</text>
<text text-anchor="middle" x="494" y="-301.5" font-family="Helvetica,sans-Serif" font-size="10.00" fill="#000000">::getConstraint</text>
</a>
</g>
</g>
<!-- Node88&#45;&gt;Node89 -->
<g id="edge11" class="edge">
<title>Node88&#45;&gt;Node89</title>
<path fill="none" stroke="#191970" d="M376.2467,-295.9026C387.4321,-297.1942 398.7539,-298.5016 409.7294,-299.769"/>
<polygon fill="#191970" stroke="#191970" points="409.3622,-303.2498 419.6977,-300.9201 410.1652,-296.296 409.3622,-303.2498"/>
</g>
<!-- Node90 -->
<g id="node11" class="node">
<title>Node90</title>
<g id="a_node11"><a xlink:href="classprecice_1_1mapping_1_1Mapping.html#a393912fe4919edd098e96f66ffbe0d52" target="_top" xlink:title="precice::mapping::Mapping\l::getDimensions">
<polygon fill="#ffffff" stroke="#000000" points="420,-98.5 420,-128.5 568,-128.5 568,-98.5 420,-98.5"/>
<text text-anchor="start" x="428" y="-116.5" font-family="Helvetica,sans-Serif" font-size="10.00" fill="#000000">precice::mapping::Mapping</text>
<text text-anchor="middle" x="494" y="-105.5" font-family="Helvetica,sans-Serif" font-size="10.00" fill="#000000">::getDimensions</text>
</a>
</g>
</g>
<!-- Node88&#45;&gt;Node90 -->
<g id="edge12" class="edge">
<title>Node88&#45;&gt;Node90</title>
<path fill="none" stroke="#191970" d="M362.8741,-269.2895C367.6208,-266.5252 372.0549,-263.288 376,-259.5 416.4716,-220.64 372.4601,-178.3076 412,-138.5 413.4553,-137.0349 414.9936,-135.6552 416.6019,-134.3559"/>
<polygon fill="#191970" stroke="#191970" points="418.881,-137.0377 425.1636,-128.5066 414.9322,-131.2578 418.881,-137.0377"/>
</g>
<!-- Node91 -->
<g id="node12" class="node">
<title>Node91</title>
<g id="a_node12"><a xlink:href="classprecice_1_1query_1_1rtree.html#a4046bc6eea8b0dabf56ee581044e4c38" target="_top" xlink:title="precice::query::rtree\l::getEdgeRTree">
<polygon fill="#ffffff" stroke="#000000" points="437,-147.5 437,-177.5 551,-177.5 551,-147.5 437,-147.5"/>
<text text-anchor="start" x="445" y="-165.5" font-family="Helvetica,sans-Serif" font-size="10.00" fill="#000000">precice::query::rtree</text>
<text text-anchor="middle" x="494" y="-154.5" font-family="Helvetica,sans-Serif" font-size="10.00" fill="#000000">::getEdgeRTree</text>
</a>
</g>
</g>
<!-- Node88&#45;&gt;Node91 -->
<g id="edge13" class="edge">
<title>Node88&#45;&gt;Node91</title>
<path fill="none" stroke="#191970" d="M360.2263,-269.4321C365.8543,-266.6534 371.1902,-263.3725 376,-259.5 403.8675,-237.0634 384.6716,-210.5903 412,-187.5 416.5882,-183.6233 421.7678,-180.3476 427.2383,-177.5798"/>
<polygon fill="#191970" stroke="#191970" points="428.9528,-180.6478 436.6663,-173.3846 426.1071,-174.2523 428.9528,-180.6478"/>
</g>
<!-- Node93 -->
<g id="node14" class="node">
<title>Node93</title>
<g id="a_node14"><a xlink:href="namespaceprecice_1_1query.html#af26087a458327ddbe22c10a6ee27dfd4" target="_top" xlink:title="Generates the InterpolationElements for directly projecting a Vertex on another Vertex. ">
<polygon fill="#ffffff" stroke="#000000" points="427,-196.5 427,-226.5 561,-226.5 561,-196.5 427,-196.5"/>
<text text-anchor="start" x="435" y="-214.5" font-family="Helvetica,sans-Serif" font-size="10.00" fill="#000000">precice::query::generate</text>
<text text-anchor="middle" x="494" y="-203.5" font-family="Helvetica,sans-Serif" font-size="10.00" fill="#000000">InterpolationElements</text>
</a>
</g>
</g>
<!-- Node88&#45;&gt;Node93 -->
<g id="edge15" class="edge">
<title>Node88&#45;&gt;Node93</title>
<path fill="none" stroke="#191970" d="M348.3699,-269.4374C357.8196,-266.5854 367.2569,-263.2849 376,-259.5 393.4241,-251.9571 394.7594,-244.4534 412,-236.5 416.9834,-234.2011 422.2325,-232.0457 427.5674,-230.0403"/>
<polygon fill="#191970" stroke="#191970" points="428.9824,-233.2516 437.224,-226.5938 426.6294,-226.6589 428.9824,-233.2516"/>
</g>
<!-- Node94 -->
<g id="node15" class="node">
<title>Node94</title>
<g id="a_node15"><a xlink:href="classprecice_1_1query_1_1rtree.html#a78e38a8b4ee5583b0a3154a394a2459b" target="_top" xlink:title="Returns the pointer to boost::geometry::rtree for the given mesh vertices. ">
<polygon fill="#ffffff" stroke="#000000" points="437,-49.5 437,-79.5 551,-79.5 551,-49.5 437,-49.5"/>
<text text-anchor="start" x="445" y="-67.5" font-family="Helvetica,sans-Serif" font-size="10.00" fill="#000000">precice::query::rtree</text>
<text text-anchor="middle" x="494" y="-56.5" font-family="Helvetica,sans-Serif" font-size="10.00" fill="#000000">::getVertexRTree</text>
</a>
</g>
</g>
<!-- Node88&#45;&gt;Node94 -->
<g id="edge16" class="edge">
<title>Node88&#45;&gt;Node94</title>
<path fill="none" stroke="#191970" d="M363.6846,-269.3728C368.1723,-266.5818 372.3327,-263.3165 376,-259.5 429.511,-203.8114 359.8228,-146.4402 412,-89.5 416.421,-84.6754 421.7423,-80.7706 427.5243,-77.6119"/>
<polygon fill="#191970" stroke="#191970" points="429.3358,-80.6294 436.9261,-73.2376 426.3829,-74.2827 429.3358,-80.6294"/>
</g>
<!-- Node95 -->
<g id="node16" class="node">
<title>Node95</title>
<g id="a_node16"><a xlink:href="classprecice_1_1utils_1_1statistics_1_1DistanceAccumulator.html#ab62a4d99f3b8c512aeb45a3a9ae0547b" target="_top" xlink:title="Returns count == 0. ">
<polygon fill="#ffffff" stroke="#000000" points="412,-.5 412,-30.5 576,-30.5 576,-.5 412,-.5"/>
<text text-anchor="start" x="420" y="-18.5" font-family="Helvetica,sans-Serif" font-size="10.00" fill="#000000">precice::utils::statistics</text>
<text text-anchor="middle" x="494" y="-7.5" font-family="Helvetica,sans-Serif" font-size="10.00" fill="#000000">::DistanceAccumulator::empty</text>
</a>
</g>
</g>
<!-- Node88&#45;&gt;Node95 -->
<g id="edge18" class="edge">
<title>Node88&#45;&gt;Node95</title>
<path fill="none" stroke="#191970" d="M364.3368,-269.2841C368.6029,-266.5079 372.5417,-263.2707 376,-259.5 442.9694,-186.4822 346.3621,-113.717 412,-39.5 412.7616,-38.6389 413.5522,-37.8079 414.3694,-37.006"/>
<polygon fill="#191970" stroke="#191970" points="416.7902,-39.55 422.3757,-30.5471 412.395,-34.1019 416.7902,-39.55"/>
</g>
<!-- Node97 -->
<g id="node18" class="node">
<title>Node97</title>
<g id="a_node18"><a xlink:href="classprecice_1_1query_1_1rtree.html#a1000ab0c480b961031abc18c2000a4b1" target="_top" xlink:title="precice::query::rtree\l::getTriangleRTree">
<polygon fill="#ffffff" stroke="#000000" points="437,-245.5 437,-275.5 551,-275.5 551,-245.5 437,-245.5"/>
<text text-anchor="start" x="445" y="-263.5" font-family="Helvetica,sans-Serif" font-size="10.00" fill="#000000">precice::query::rtree</text>
<text text-anchor="middle" x="494" y="-252.5" font-family="Helvetica,sans-Serif" font-size="10.00" fill="#000000">::getTriangleRTree</text>
</a>
</g>
</g>
<!-- Node88&#45;&gt;Node97 -->
<g id="edge20" class="edge">
<title>Node88&#45;&gt;Node97</title>
<path fill="none" stroke="#191970" d="M376.2467,-273.5535C393.2627,-271.6672 410.5942,-269.7459 426.5421,-267.978"/>
<polygon fill="#191970" stroke="#191970" points="427.2517,-271.4209 436.8052,-266.8403 426.4804,-264.4635 427.2517,-271.4209"/>
</g>
<!-- Node92 -->
<g id="node13" class="node">
<title>Node92</title>
<g id="a_node13"><a xlink:href="classprecice_1_1query_1_1rtree.html#ab9696984e7cbd37945bb5b8b77655f24" target="_top" xlink:title="precice::query::rtree\l::cacheEntry">
<polygon fill="#ffffff" stroke="#000000" points="635,-147.5 635,-177.5 749,-177.5 749,-147.5 635,-147.5"/>
<text text-anchor="start" x="643" y="-165.5" font-family="Helvetica,sans-Serif" font-size="10.00" fill="#000000">precice::query::rtree</text>
<text text-anchor="middle" x="692" y="-154.5" font-family="Helvetica,sans-Serif" font-size="10.00" fill="#000000">::cacheEntry</text>
</a>
</g>
</g>
<!-- Node91&#45;&gt;Node92 -->
<g id="edge14" class="edge">
<title>Node91&#45;&gt;Node92</title>
<path fill="none" stroke="#191970" d="M551.0042,-162.5C573.9958,-162.5 600.697,-162.5 624.6393,-162.5"/>
<polygon fill="#191970" stroke="#191970" points="624.7126,-166.0001 634.7125,-162.5 624.7125,-159.0001 624.7126,-166.0001"/>
</g>
<!-- Node94&#45;&gt;Node92 -->
<g id="edge17" class="edge">
<title>Node94&#45;&gt;Node92</title>
<path fill="none" stroke="#191970" d="M550.7538,-79.6422C559.3536,-82.5529 568.014,-85.849 576,-89.5 607.47,-103.8875 640.6182,-125.4853 663.3831,-141.4591"/>
<polygon fill="#191970" stroke="#191970" points="661.3953,-144.3402 671.5744,-147.279 665.4497,-138.6339 661.3953,-144.3402"/>
</g>
<!-- Node96 -->
<g id="node17" class="node">
<title>Node96</title>
<g id="a_node17"><a xlink:href="classprecice_1_1utils_1_1statistics_1_1DistanceAccumulator.html#ac9b87639f46a763b1f35cce56f78edd7" target="_top" xlink:title="Returns how many values have been accumulated. ">
<polygon fill="#ffffff" stroke="#000000" points="612,-.5 612,-30.5 772,-30.5 772,-.5 612,-.5"/>
<text text-anchor="start" x="620" y="-18.5" font-family="Helvetica,sans-Serif" font-size="10.00" fill="#000000">precice::utils::statistics</text>
<text text-anchor="middle" x="692" y="-7.5" font-family="Helvetica,sans-Serif" font-size="10.00" fill="#000000">::DistanceAccumulator::count</text>
</a>
</g>
</g>
<!-- Node95&#45;&gt;Node96 -->
<g id="edge19" class="edge">
<title>Node95&#45;&gt;Node96</title>
<path fill="none" stroke="#191970" d="M576.2497,-15.5C584.6343,-15.5 593.1841,-15.5 601.6489,-15.5"/>
<polygon fill="#191970" stroke="#191970" points="601.9151,-19.0001 611.9151,-15.5 601.9151,-12.0001 601.9151,-19.0001"/>
</g>
<!-- Node97&#45;&gt;Node92 -->
<g id="edge21" class="edge">
<title>Node97&#45;&gt;Node92</title>
<path fill="none" stroke="#191970" d="M551.222,-246.0218C559.6736,-243.2348 568.1666,-240.0574 576,-236.5 607.8221,-222.0485 641.1598,-199.9447 663.8866,-183.6559"/>
<polygon fill="#191970" stroke="#191970" points="666.0174,-186.4341 672.052,-177.7258 661.904,-180.7701 666.0174,-186.4341"/>
</g>
<!-- Node98&#45;&gt;Node84 -->
<g id="edge23" class="edge">
<title>Node98&#45;&gt;Node84</title>
<path fill="none" stroke="#191970" d="M350.1979,-370.7811C359.3137,-374.0647 368.1718,-378.2261 376,-383.5 398.4119,-398.599 389.8649,-416.9981 412,-432.5 414.1263,-433.9891 416.345,-435.3867 418.6337,-436.6985"/>
<polygon fill="#191970" stroke="#191970" points="417.2604,-439.9268 427.76,-441.344 420.4358,-433.6884 417.2604,-439.9268"/>
</g>
<!-- Node98&#45;&gt;Node85 -->
<g id="edge25" class="edge">
<title>Node98&#45;&gt;Node85</title>
<path fill="none" stroke="#191970" d="M343.9285,-373.5346C367.3074,-378.8259 393.7617,-384.8133 417.8769,-390.2712"/>
<polygon fill="#191970" stroke="#191970" points="417.1712,-393.7 427.6972,-392.4938 418.7165,-386.8726 417.1712,-393.7"/>
</g>
<!-- Node98&#45;&gt;Node89 -->
<g id="edge26" class="edge">
<title>Node98&#45;&gt;Node89</title>
<path fill="none" stroke="#191970" d="M343.9285,-343.4654C367.3074,-338.1741 393.7617,-332.1867 417.8769,-326.7288"/>
<polygon fill="#191970" stroke="#191970" points="418.7165,-330.1274 427.6972,-324.5062 417.1712,-323.3 418.7165,-330.1274"/>
</g>
<!-- Node99 -->
<g id="node20" class="node">
<title>Node99</title>
<g id="a_node20"><a xlink:href="namespaceprecice_1_1utils_1_1petsc.html#a931b5a402aa2dec020afa7af6167d67e" target="_top" xlink:title="precice::utils::petsc\l::getName">
<polygon fill="#ffffff" stroke="#000000" points="438.5,-343.5 438.5,-373.5 549.5,-373.5 549.5,-343.5 438.5,-343.5"/>
<text text-anchor="start" x="446.5" y="-361.5" font-family="Helvetica,sans-Serif" font-size="10.00" fill="#000000">precice::utils::petsc</text>
<text text-anchor="middle" x="494" y="-350.5" font-family="Helvetica,sans-Serif" font-size="10.00" fill="#000000">::getName</text>
</a>
</g>
</g>
<!-- Node98&#45;&gt;Node99 -->
<g id="edge24" class="edge">
<title>Node98&#45;&gt;Node99</title>
<path fill="none" stroke="#191970" d="M350.1936,-358.5C375.3457,-358.5 403.3788,-358.5 427.9663,-358.5"/>
<polygon fill="#191970" stroke="#191970" points="428.2745,-362.0001 438.2744,-358.5 428.2744,-355.0001 428.2745,-362.0001"/>
</g>
</g>
</svg>
