<?xml version="1.0" encoding="UTF-8" standalone="no"?>
<!DOCTYPE svg PUBLIC "-//W3C//DTD SVG 1.1//EN"
 "http://www.w3.org/Graphics/SVG/1.1/DTD/svg11.dtd">
<!-- Generated by graphviz version 2.40.1 (20161225.0304)
 -->
<!-- Title: src/mapping/tests/NearestProjectionMappingTest.cpp Pages: 1 -->
<!--zoomable 688 -->
<svg id="main" version="1.1" xmlns="http://www.w3.org/2000/svg" xmlns:xlink="http://www.w3.org/1999/xlink" xml:space="preserve" onload="init(evt)">
<style type="text/css"><![CDATA[
.edge:hover path { stroke: red; }
.edge:hover polygon { stroke: red; fill: red; }
]]></style>
<script type="text/javascript"><![CDATA[
var edges = document.getElementsByTagName('g');
if (edges && edges.length) {
  for (var i=0;i<edges.length;i++) {
    if (edges[i].id.substr(0,4)=='edge') {
      edges[i].setAttribute('class','edge');
    }
  }
}
]]></script>
        <defs>
                <circle id="rim" cx="0" cy="0" r="7"/>
                <circle id="rim2" cx="0" cy="0" r="3.5"/>
                <g id="zoomPlus">
                        <use xlink:href="#rim" fill="#404040">
                                <set attributeName="fill" to="#808080" begin="zoomplus.mouseover" end="zoomplus.mouseout"/>
                        </use>
                        <path d="M-4,0h8M0,-4v8" fill="none" stroke="white" stroke-width="1.5" pointer-events="none"/>
                </g>
                <g id="zoomMin">
                        <use xlink:href="#rim" fill="#404040">
                                <set attributeName="fill" to="#808080" begin="zoomminus.mouseover" end="zoomminus.mouseout"/>
                        </use>
                        <path d="M-4,0h8" fill="none" stroke="white" stroke-width="1.5" pointer-events="none"/>
                </g>
                <g id="dirArrow">
                        <path fill="none" stroke="white" stroke-width="1.5" d="M0,-3.0v7 M-2.5,-0.5L0,-3.0L2.5,-0.5"/>
                </g>
               <g id="resetDef">
                       <use xlink:href="#rim2" fill="#404040">
                               <set attributeName="fill" to="#808080" begin="reset.mouseover" end="reset.mouseout"/>
                       </use>
               </g>
        </defs>

<script type="text/javascript">
var viewWidth = 2637;
var viewHeight = 688;
var sectionId = 'dynsection-0';
</script>
<script xlink:href="svgpan.js"/>
<svg id="graph" class="graph">
<g id="viewport">
<title>src/mapping/tests/NearestProjectionMappingTest.cpp</title>
<polygon fill="#ffffff" stroke="transparent" points="-4,4 -4,-684 2633,-684 2633,4 -4,4"/>
<!-- Node0 -->
<g id="node1" class="node">
<title>Node0</title>
<polygon fill="#bfbfbf" stroke="#000000" points="827,-649.5 827,-679.5 973,-679.5 973,-649.5 827,-649.5"/>
<text text-anchor="start" x="835" y="-667.5" font-family="Helvetica,sans-Serif" font-size="10.00" fill="#000000">src/mapping/tests/Nearest</text>
<text text-anchor="middle" x="900" y="-656.5" font-family="Helvetica,sans-Serif" font-size="10.00" fill="#000000">ProjectionMappingTest.cpp</text>
</g>
<!-- Node1 -->
<g id="node2" class="node">
<title>Node1</title>
<polygon fill="#ffffff" stroke="#bfbfbf" points="987.5,-185 987.5,-204 1056.5,-204 1056.5,-185 987.5,-185"/>
<text text-anchor="middle" x="1022" y="-192" font-family="Helvetica,sans-Serif" font-size="10.00" fill="#000000">Eigen/Core</text>
</g>
<!-- Node0&#45;&gt;Node1 -->
<g id="edge1" class="edge">
<title>Node0&#45;&gt;Node1</title>
<path fill="none" stroke="#191970" d="M903.9514,-649.1915C909.78,-625.2273 920,-577.317 920,-536 920,-536 920,-536 920,-480 920,-373.5913 983.6116,-257.1966 1010.3653,-212.9491"/>
<polygon fill="#191970" stroke="#191970" points="1013.3615,-214.7583 1015.6194,-204.4069 1007.3991,-211.091 1013.3615,-214.7583"/>
</g>
<!-- Node2 -->
<g id="node3" class="node">
<title>Node2</title>
<polygon fill="#ffffff" stroke="#bfbfbf" points="264,-358.5 264,-377.5 328,-377.5 328,-358.5 264,-358.5"/>
<text text-anchor="middle" x="296" y="-365.5" font-family="Helvetica,sans-Serif" font-size="10.00" fill="#000000">algorithm</text>
</g>
<!-- Node0&#45;&gt;Node2 -->
<g id="edge2" class="edge">
<title>Node0&#45;&gt;Node2</title>
<path fill="none" stroke="#191970" d="M855.2171,-649.4732C771.2174,-620.9207 584.7084,-555.7827 432,-490 380.156,-467.667 355.1359,-476.5147 318,-434 306.7146,-421.08 301.1798,-402.1806 298.4884,-387.9136"/>
<polygon fill="#191970" stroke="#191970" points="301.889,-387.0057 296.8841,-377.6676 294.9733,-388.0887 301.889,-387.0057"/>
</g>
<!-- Node3 -->
<g id="node4" class="node">
<title>Node3</title>
<polygon fill="#ffffff" stroke="#bfbfbf" points="1562,-.5 1562,-19.5 1620,-19.5 1620,-.5 1562,-.5"/>
<text text-anchor="middle" x="1591" y="-7.5" font-family="Helvetica,sans-Serif" font-size="10.00" fill="#000000">memory</text>
</g>
<!-- Node0&#45;&gt;Node3 -->
<g id="edge3" class="edge">
<title>Node0&#45;&gt;Node3</title>
<path fill="none" stroke="#191970" d="M826.7844,-662.3801C640.9826,-656.6387 161.11,-639.4208 94,-613 43.7491,-593.2165 0,-590.005 0,-536 0,-536 0,-536 0,-127.5 0,27.7863 187.8576,-74.8139 342,-56 584.5841,-26.3914 1367.2602,-13.2739 1551.7725,-10.55"/>
<polygon fill="#191970" stroke="#191970" points="1551.8858,-14.0488 1561.8336,-10.4031 1551.7835,-7.0495 1551.8858,-14.0488"/>
</g>
<!-- Node4 -->
<g id="node5" class="node">
<title>Node4</title>
<polygon fill="#ffffff" stroke="#bfbfbf" points="176.5,-588 176.5,-607 233.5,-607 233.5,-588 176.5,-588"/>
<text text-anchor="middle" x="205" y="-595" font-family="Helvetica,sans-Serif" font-size="10.00" fill="#000000">ostream</text>
</g>
<!-- Node0&#45;&gt;Node4 -->
<g id="edge4" class="edge">
<title>Node0&#45;&gt;Node4</title>
<path fill="none" stroke="#191970" d="M826.9881,-661.1913C680.7653,-654.1613 356.7062,-636.4423 248,-613 244.5602,-612.2582 241.0219,-611.3083 237.5224,-610.2447"/>
<polygon fill="#191970" stroke="#191970" points="238.4705,-606.8714 227.8767,-607.0244 236.2536,-613.5111 238.4705,-606.8714"/>
</g>
<!-- Node5 -->
<g id="node6" class="node">
<title>Node5</title>
<g id="a_node6"><a xlink:href="Mapping_8hpp.html" target="_top" xlink:title="mapping/Mapping.hpp">
<polygon fill="#ffffff" stroke="#000000" points="108.5,-526.5 108.5,-545.5 233.5,-545.5 233.5,-526.5 108.5,-526.5"/>
<text text-anchor="middle" x="171" y="-533.5" font-family="Helvetica,sans-Serif" font-size="10.00" fill="#000000">mapping/Mapping.hpp</text>
</a>
</g>
</g>
<!-- Node0&#45;&gt;Node5 -->
<g id="edge5" class="edge">
<title>Node0&#45;&gt;Node5</title>
<path fill="none" stroke="#191970" d="M826.971,-662.0296C645.9181,-655.5517 189.2906,-636.9116 167,-613 152.7894,-597.7559 157.3427,-572.5748 163.093,-555.1811"/>
<polygon fill="#191970" stroke="#191970" points="166.4815,-556.1091 166.671,-545.516 159.9169,-553.6789 166.4815,-556.1091"/>
</g>
<!-- Node7 -->
<g id="node8" class="node">
<title>Node7</title>
<g id="a_node8"><a xlink:href="Mesh_8hpp.html" target="_top" xlink:title="mesh/Mesh.hpp">
<polygon fill="#ffffff" stroke="#000000" points="948.5,-470.5 948.5,-489.5 1041.5,-489.5 1041.5,-470.5 948.5,-470.5"/>
<text text-anchor="middle" x="995" y="-477.5" font-family="Helvetica,sans-Serif" font-size="10.00" fill="#000000">mesh/Mesh.hpp</text>
</a>
</g>
</g>
<!-- Node0&#45;&gt;Node7 -->
<g id="edge89" class="edge">
<title>Node0&#45;&gt;Node7</title>
<path fill="none" stroke="#191970" d="M911.0581,-649.1114C918.0432,-639.074 927.0321,-625.5521 934,-613 955.7811,-573.7631 976.5496,-525.3436 987.3307,-499.0998"/>
<polygon fill="#191970" stroke="#191970" points="990.67,-500.1791 991.1946,-489.5973 984.1856,-497.5424 990.67,-500.1791"/>
</g>
<!-- Node31 -->
<g id="node21" class="node">
<title>Node31</title>
<g id="a_node21"><a xlink:href="assertion_8hpp.html" target="_top" xlink:title="utils/assertion.hpp">
<polygon fill="#ffffff" stroke="#ff0000" points="433.5,-185 433.5,-204 540.5,-204 540.5,-185 433.5,-185"/>
<text text-anchor="middle" x="487" y="-192" font-family="Helvetica,sans-Serif" font-size="10.00" fill="#000000">utils/assertion.hpp</text>
</a>
</g>
</g>
<!-- Node0&#45;&gt;Node31 -->
<g id="edge129" class="edge">
<title>Node0&#45;&gt;Node31</title>
<path fill="none" stroke="#191970" d="M826.8753,-651.9308C780.0511,-643.0381 718.2985,-629.732 665,-613 464.6101,-550.0914 327.8699,-574.9862 255,-378 221.3661,-287.0788 363.4875,-230.4685 440.449,-207.0065"/>
<polygon fill="#191970" stroke="#191970" points="441.8124,-210.2526 450.3994,-204.0467 439.8166,-203.5432 441.8124,-210.2526"/>
</g>
<!-- Node38 -->
<g id="node29" class="node">
<title>Node38</title>
<g id="a_node29"><a xlink:href="Data_8hpp.html" target="_top" xlink:title="mesh/Data.hpp">
<polygon fill="#ffffff" stroke="#000000" points="1352.5,-246.5 1352.5,-265.5 1443.5,-265.5 1443.5,-246.5 1352.5,-246.5"/>
<text text-anchor="middle" x="1398" y="-253.5" font-family="Helvetica,sans-Serif" font-size="10.00" fill="#000000">mesh/Data.hpp</text>
</a>
</g>
</g>
<!-- Node0&#45;&gt;Node38 -->
<g id="edge88" class="edge">
<title>Node0&#45;&gt;Node38</title>
<path fill="none" stroke="#191970" d="M973.1495,-656.4125C1132.9423,-637.7569 1499,-589.2128 1499,-536 1499,-536 1499,-536 1499,-480 1499,-371.1946 1357.8152,-420.6893 1312,-322 1300.7284,-297.7202 1328.5278,-280.0468 1355.4628,-269.1335"/>
<polygon fill="#191970" stroke="#191970" points="1356.7815,-272.3767 1364.8885,-265.5556 1354.2973,-265.8323 1356.7815,-272.3767"/>
</g>
<!-- Node42 -->
<g id="node33" class="node">
<title>Node42</title>
<g id="a_node33"><a xlink:href="mesh_2SharedPointer_8hpp.html" target="_top" xlink:title="mesh/SharedPointer.hpp">
<polygon fill="#ffffff" stroke="#000000" points="28.5,-185 28.5,-204 163.5,-204 163.5,-185 28.5,-185"/>
<text text-anchor="middle" x="96" y="-192" font-family="Helvetica,sans-Serif" font-size="10.00" fill="#000000">mesh/SharedPointer.hpp</text>
</a>
</g>
</g>
<!-- Node0&#45;&gt;Node42 -->
<g id="edge90" class="edge">
<title>Node0&#45;&gt;Node42</title>
<path fill="none" stroke="#191970" d="M826.9434,-662.438C651.0128,-657.0496 213.9111,-640.9926 154,-613 110.9982,-592.908 80,-583.4641 80,-536 80,-536 80,-536 80,-312 80,-277.3228 86.9266,-237.411 91.6649,-214.1651"/>
<polygon fill="#191970" stroke="#191970" points="95.13,-214.696 93.7753,-204.1881 88.2815,-213.2473 95.13,-214.696"/>
</g>
<!-- Node51 -->
<g id="node37" class="node">
<title>Node51</title>
<g id="a_node37"><a xlink:href="NearestProjectionMapping_8hpp.html" target="_top" xlink:title="mapping/NearestProjection\lMapping.hpp">
<polygon fill="#ffffff" stroke="#000000" points="1912.5,-582.5 1912.5,-612.5 2061.5,-612.5 2061.5,-582.5 1912.5,-582.5"/>
<text text-anchor="start" x="1920.5" y="-600.5" font-family="Helvetica,sans-Serif" font-size="10.00" fill="#000000">mapping/NearestProjection</text>
<text text-anchor="middle" x="1987" y="-589.5" font-family="Helvetica,sans-Serif" font-size="10.00" fill="#000000">Mapping.hpp</text>
</a>
</g>
</g>
<!-- Node0&#45;&gt;Node51 -->
<g id="edge74" class="edge">
<title>Node0&#45;&gt;Node51</title>
<path fill="none" stroke="#191970" d="M973.009,-659.9999C1167.041,-648.0403 1694.8146,-615.5096 1901.9443,-602.7426"/>
<polygon fill="#191970" stroke="#191970" points="1902.3915,-606.2218 1912.1572,-602.1131 1901.9608,-599.2351 1902.3915,-606.2218"/>
</g>
<!-- Node57 -->
<g id="node39" class="node">
<title>Node57</title>
<g id="a_node39"><a xlink:href="constants_8hpp.html" target="_top" xlink:title="math/constants.hpp">
<polygon fill="#ffffff" stroke="#000000" points="1845.5,-246.5 1845.5,-265.5 1958.5,-265.5 1958.5,-246.5 1845.5,-246.5"/>
<text text-anchor="middle" x="1902" y="-253.5" font-family="Helvetica,sans-Serif" font-size="10.00" fill="#000000">math/constants.hpp</text>
</a>
</g>
</g>
<!-- Node0&#45;&gt;Node57 -->
<g id="edge86" class="edge">
<title>Node0&#45;&gt;Node57</title>
<path fill="none" stroke="#191970" d="M973.1548,-662.7543C1221.6566,-656.6325 2020.7855,-635.3006 2071,-613 2114.9455,-593.4835 2147,-584.0843 2147,-536 2147,-536 2147,-536 2147,-368 2147,-325.51 2023.5721,-286.9129 1951.9296,-268.0884"/>
<polygon fill="#191970" stroke="#191970" points="1952.7405,-264.683 1942.1824,-265.5651 1950.9861,-271.4596 1952.7405,-264.683"/>
</g>
<!-- Node59 -->
<g id="node41" class="node">
<title>Node59</title>
<g id="a_node41"><a xlink:href="Utils_8hpp.html" target="_top" xlink:title="mesh/Utils.hpp">
<polygon fill="#ffffff" stroke="#000000" points="743,-526.5 743,-545.5 833,-545.5 833,-526.5 743,-526.5"/>
<text text-anchor="middle" x="788" y="-533.5" font-family="Helvetica,sans-Serif" font-size="10.00" fill="#000000">mesh/Utils.hpp</text>
</a>
</g>
</g>
<!-- Node0&#45;&gt;Node59 -->
<g id="edge91" class="edge">
<title>Node0&#45;&gt;Node59</title>
<path fill="none" stroke="#191970" d="M886.7123,-649.2548C865.7844,-625.2437 825.262,-578.7515 803.2036,-553.4434"/>
<polygon fill="#191970" stroke="#191970" points="805.6947,-550.9746 796.4857,-545.7358 800.4177,-555.574 805.6947,-550.9746"/>
</g>
<!-- Node60 -->
<g id="node42" class="node">
<title>Node60</title>
<g id="a_node42"><a xlink:href="TestContext_8hpp.html" target="_top" xlink:title="testing/TestContext.hpp">
<polygon fill="#ffffff" stroke="#000000" points="2175,-302.5 2175,-321.5 2307,-321.5 2307,-302.5 2175,-302.5"/>
<text text-anchor="middle" x="2241" y="-309.5" font-family="Helvetica,sans-Serif" font-size="10.00" fill="#000000">testing/TestContext.hpp</text>
</a>
</g>
</g>
<!-- Node0&#45;&gt;Node60 -->
<g id="edge97" class="edge">
<title>Node0&#45;&gt;Node60</title>
<path fill="none" stroke="#191970" d="M973.0026,-663.3326C1234.1124,-658.9224 2108.9469,-642.0358 2161,-613 2197.0638,-592.8832 2213,-577.2951 2213,-536 2213,-536 2213,-536 2213,-424 2213,-390.5848 2224.8754,-353.1911 2233.1585,-331.1729"/>
<polygon fill="#191970" stroke="#191970" points="2236.4868,-332.2719 2236.8685,-321.6839 2229.9674,-329.7229 2236.4868,-332.2719"/>
</g>
<!-- Node68 -->
<g id="node47" class="node">
<title>Node68</title>
<g id="a_node47"><a xlink:href="Testing_8hpp.html" target="_top" xlink:title="testing/Testing.hpp">
<polygon fill="#ffffff" stroke="#000000" points="1607.5,-358.5 1607.5,-377.5 1716.5,-377.5 1716.5,-358.5 1607.5,-358.5"/>
<text text-anchor="middle" x="1662" y="-365.5" font-family="Helvetica,sans-Serif" font-size="10.00" fill="#000000">testing/Testing.hpp</text>
</a>
</g>
</g>
<!-- Node0&#45;&gt;Node68 -->
<g id="edge115" class="edge">
<title>Node0&#45;&gt;Node68</title>
<path fill="none" stroke="#191970" d="M973.1991,-663.5394C1113.8382,-660.8474 1416.4451,-650.7202 1513,-613 1564.9206,-592.7167 1612,-591.7419 1612,-536 1612,-536 1612,-536 1612,-480 1612,-444.2001 1633.5643,-407.1175 1648.3693,-385.8769"/>
<polygon fill="#191970" stroke="#191970" points="1651.3739,-387.6952 1654.4061,-377.5435 1645.7051,-383.5886 1651.3739,-387.6952"/>
</g>
<!-- Node6 -->
<g id="node7" class="node">
<title>Node6</title>
<polygon fill="#ffffff" stroke="#bfbfbf" points="1022.5,-56.5 1022.5,-75.5 1071.5,-75.5 1071.5,-56.5 1022.5,-56.5"/>
<text text-anchor="middle" x="1047" y="-63.5" font-family="Helvetica,sans-Serif" font-size="10.00" fill="#000000">iosfwd</text>
</g>
<!-- Node5&#45;&gt;Node6 -->
<g id="edge6" class="edge">
<title>Node5&#45;&gt;Node6</title>
<path fill="none" stroke="#191970" d="M174.0986,-526.2275C179.9401,-506.9094 192,-462.3796 192,-424 192,-424 192,-424 192,-256 192,-190.2402 175.5964,-154.2353 226,-112 256.5544,-86.3972 858.9364,-70.4502 1011.913,-66.8028"/>
<polygon fill="#191970" stroke="#191970" points="1012.2221,-70.2966 1022.1366,-66.5615 1012.0568,-63.2985 1012.2221,-70.2966"/>
</g>
<!-- Node5&#45;&gt;Node7 -->
<g id="edge7" class="edge">
<title>Node5&#45;&gt;Node7</title>
<path fill="none" stroke="#191970" d="M233.6102,-531.7449C388.7535,-521.2012 789.174,-493.9882 938.0992,-483.867"/>
<polygon fill="#191970" stroke="#191970" points="938.6408,-487.3384 948.3804,-483.1683 938.1661,-480.3545 938.6408,-487.3384"/>
</g>
<!-- Node5&#45;&gt;Node42 -->
<g id="edge73" class="edge">
<title>Node5&#45;&gt;Node42</title>
<path fill="none" stroke="#191970" d="M165.8356,-526.4283C156.0998,-507.4624 136,-463.5212 136,-424 136,-424 136,-424 136,-312 136,-275.3963 118.3892,-235.636 106.5381,-213.0237"/>
<polygon fill="#191970" stroke="#191970" points="109.581,-211.2928 101.731,-204.1774 103.4304,-214.6351 109.581,-211.2928"/>
</g>
<!-- Node7&#45;&gt;Node1 -->
<g id="edge8" class="edge">
<title>Node7&#45;&gt;Node1</title>
<path fill="none" stroke="#191970" d="M1041.5247,-472.4329C1064.1189,-466.1611 1089.2897,-454.7417 1103,-434 1151.9109,-360.005 1073.1332,-253.5957 1037.777,-212.0522"/>
<polygon fill="#191970" stroke="#191970" points="1040.3458,-209.6723 1031.1438,-204.4213 1035.0628,-214.2647 1040.3458,-209.6723"/>
</g>
<!-- Node7&#45;&gt;Node6 -->
<g id="edge11" class="edge">
<title>Node7&#45;&gt;Node6</title>
<path fill="none" stroke="#191970" d="M948.2329,-478.4736C821.3288,-474.011 477.0389,-459.6556 433,-434 399.208,-414.3139 246.5098,-180.3761 235,-143 230.9451,-129.8324 225.5372,-122.0141 235,-112 262.0796,-83.3429 860.198,-69.6721 1012.1448,-66.6541"/>
<polygon fill="#191970" stroke="#191970" points="1012.3704,-70.1505 1022.2999,-66.4552 1012.2332,-63.1518 1012.3704,-70.1505"/>
</g>
<!-- Node8 -->
<g id="node9" class="node">
<title>Node8</title>
<polygon fill="#ffffff" stroke="#bfbfbf" points="986,-414.5 986,-433.5 1094,-433.5 1094,-414.5 986,-414.5"/>
<text text-anchor="middle" x="1040" y="-421.5" font-family="Helvetica,sans-Serif" font-size="10.00" fill="#000000">boost/signals2.hpp</text>
</g>
<!-- Node7&#45;&gt;Node8 -->
<g id="edge9" class="edge">
<title>Node7&#45;&gt;Node8</title>
<path fill="none" stroke="#191970" d="M1002.8384,-470.2455C1009.162,-462.3761 1018.2224,-451.101 1025.8136,-441.6542"/>
<polygon fill="#191970" stroke="#191970" points="1028.7158,-443.6302 1032.2514,-433.6427 1023.2592,-439.2454 1028.7158,-443.6302"/>
</g>
<!-- Node9 -->
<g id="node10" class="node">
<title>Node9</title>
<polygon fill="#ffffff" stroke="#bfbfbf" points="462.5,-414.5 462.5,-433.5 509.5,-433.5 509.5,-414.5 462.5,-414.5"/>
<text text-anchor="middle" x="486" y="-421.5" font-family="Helvetica,sans-Serif" font-size="10.00" fill="#000000">deque</text>
</g>
<!-- Node7&#45;&gt;Node9 -->
<g id="edge10" class="edge">
<title>Node7&#45;&gt;Node9</title>
<path fill="none" stroke="#191970" d="M948.2719,-478.5475C864.2307,-475.2734 682.0303,-465.1576 519.8127,-433.7782"/>
<polygon fill="#191970" stroke="#191970" points="520.1384,-430.2752 509.6509,-431.7791 518.7872,-437.1436 520.1384,-430.2752"/>
</g>
<!-- Node10 -->
<g id="node11" class="node">
<title>Node10</title>
<polygon fill="#ffffff" stroke="#bfbfbf" points="1927,-414.5 1927,-433.5 1959,-433.5 1959,-414.5 1927,-414.5"/>
<text text-anchor="middle" x="1943" y="-421.5" font-family="Helvetica,sans-Serif" font-size="10.00" fill="#000000">list</text>
</g>
<!-- Node7&#45;&gt;Node10 -->
<g id="edge12" class="edge">
<title>Node7&#45;&gt;Node10</title>
<path fill="none" stroke="#191970" d="M1041.6966,-479.333C1204.0458,-476.753 1743.2366,-465.9292 1913,-434 1914.2747,-433.7603 1915.5696,-433.4796 1916.8701,-433.1676"/>
<polygon fill="#191970" stroke="#191970" points="1918.0742,-436.4629 1926.708,-430.3222 1916.1292,-429.7385 1918.0742,-436.4629"/>
</g>
<!-- Node11 -->
<g id="node12" class="node">
<title>Node11</title>
<polygon fill="#ffffff" stroke="#bfbfbf" points="1958,-185 1958,-204 1996,-204 1996,-185 1958,-185"/>
<text text-anchor="middle" x="1977" y="-192" font-family="Helvetica,sans-Serif" font-size="10.00" fill="#000000">map</text>
</g>
<!-- Node7&#45;&gt;Node11 -->
<g id="edge13" class="edge">
<title>Node7&#45;&gt;Node11</title>
<path fill="none" stroke="#191970" d="M1041.501,-476.9445C1127.4098,-470.9887 1316.683,-456.4149 1475,-434 1711.6584,-400.4934 1804.7775,-458.4793 2001,-322 2032.003,-300.4364 2055.0453,-280.1866 2039,-246 2031.8025,-230.6648 2017.5471,-218.3165 2004.5187,-209.5595"/>
<polygon fill="#191970" stroke="#191970" points="2006.1261,-206.4359 1995.7969,-204.0782 2002.4013,-212.3627 2006.1261,-206.4359"/>
</g>
<!-- Node12 -->
<g id="node13" class="node">
<title>Node12</title>
<polygon fill="#ffffff" stroke="#bfbfbf" points="2240,-.5 2240,-19.5 2284,-19.5 2284,-.5 2240,-.5"/>
<text text-anchor="middle" x="2262" y="-7.5" font-family="Helvetica,sans-Serif" font-size="10.00" fill="#000000">string</text>
</g>
<!-- Node7&#45;&gt;Node12 -->
<g id="edge14" class="edge">
<title>Node7&#45;&gt;Node12</title>
<path fill="none" stroke="#191970" d="M1041.7613,-477.6869C1254.4318,-466.7134 2131.0127,-416.464 2387,-322 2487.3067,-284.985 2591,-301.4185 2591,-194.5 2591,-194.5 2591,-194.5 2591,-127.5 2591,-64.8923 2377.0321,-26.8472 2294.2043,-14.4652"/>
<polygon fill="#191970" stroke="#191970" points="2294.4991,-10.9711 2284.0975,-12.985 2293.4847,-17.8973 2294.4991,-10.9711"/>
</g>
<!-- Node13 -->
<g id="node14" class="node">
<title>Node13</title>
<polygon fill="#ffffff" stroke="#bfbfbf" points="1880.5,-56.5 1880.5,-75.5 1927.5,-75.5 1927.5,-56.5 1880.5,-56.5"/>
<text text-anchor="middle" x="1904" y="-63.5" font-family="Helvetica,sans-Serif" font-size="10.00" fill="#000000">vector</text>
</g>
<!-- Node7&#45;&gt;Node13 -->
<g id="edge15" class="edge">
<title>Node7&#45;&gt;Node13</title>
<path fill="none" stroke="#191970" d="M1041.722,-473.5633C1200.2962,-451.7066 1709.0574,-381.4922 1726,-378 1818.0849,-359.0193 1848.9334,-369.6246 1930,-322 1965.9503,-300.8801 2000.956,-284.5211 1985,-246 1976.3409,-225.095 1960.7138,-229.3594 1949,-210 1924.5805,-169.6421 1912.2483,-114.8015 1907.082,-85.8282"/>
<polygon fill="#191970" stroke="#191970" points="1910.498,-85.0352 1905.3919,-75.7519 1903.5944,-86.1932 1910.498,-85.0352"/>
</g>
<!-- Node14 -->
<g id="node15" class="node">
<title>Node14</title>
<g id="a_node15"><a xlink:href="Logger_8hpp.html" target="_top" xlink:title="logging/Logger.hpp">
<polygon fill="#ffffff" stroke="#ff0000" points="1494.5,-56.5 1494.5,-75.5 1603.5,-75.5 1603.5,-56.5 1494.5,-56.5"/>
<text text-anchor="middle" x="1549" y="-63.5" font-family="Helvetica,sans-Serif" font-size="10.00" fill="#000000">logging/Logger.hpp</text>
</a>
</g>
</g>
<!-- Node7&#45;&gt;Node14 -->
<g id="edge16" class="edge">
<title>Node7&#45;&gt;Node14</title>
<path fill="none" stroke="#191970" d="M1041.7193,-475.1437C1076.3677,-469.6716 1123.3938,-458.1412 1158,-434 1272.8364,-353.8905 1237.9601,-271.5827 1343,-179 1395.7739,-132.4848 1470.931,-97.3591 1514.3642,-79.3869"/>
<polygon fill="#191970" stroke="#191970" points="1515.7089,-82.6185 1523.651,-75.6061 1513.0694,-76.1352 1515.7089,-82.6185"/>
</g>
<!-- Node26 -->
<g id="node16" class="node">
<title>Node26</title>
<g id="a_node16"><a xlink:href="BoundingBox_8hpp.html" target="_top" xlink:title="mesh/BoundingBox.hpp">
<polygon fill="#ffffff" stroke="#000000" points="962,-358.5 962,-377.5 1094,-377.5 1094,-358.5 962,-358.5"/>
<text text-anchor="middle" x="1028" y="-365.5" font-family="Helvetica,sans-Serif" font-size="10.00" fill="#000000">mesh/BoundingBox.hpp</text>
</a>
</g>
</g>
<!-- Node7&#45;&gt;Node26 -->
<g id="edge19" class="edge">
<title>Node7&#45;&gt;Node26</title>
<path fill="none" stroke="#191970" d="M988.3367,-470.288C980.1991,-457.1326 968.5061,-433.0997 977,-414 982.4508,-401.7432 992.9599,-391.3755 1003.0289,-383.6036"/>
<polygon fill="#191970" stroke="#191970" points="1005.1744,-386.3721 1011.2627,-377.7012 1001.096,-380.6828 1005.1744,-386.3721"/>
</g>
<!-- Node27 -->
<g id="node17" class="node">
<title>Node27</title>
<g id="a_node17"><a xlink:href="Vertex_8hpp.html" target="_top" xlink:title="mesh/Vertex.hpp">
<polygon fill="#ffffff" stroke="#000000" points="748.5,-302.5 748.5,-321.5 847.5,-321.5 847.5,-302.5 748.5,-302.5"/>
<text text-anchor="middle" x="798" y="-309.5" font-family="Helvetica,sans-Serif" font-size="10.00" fill="#000000">mesh/Vertex.hpp</text>
</a>
</g>
</g>
<!-- Node7&#45;&gt;Node27 -->
<g id="edge67" class="edge">
<title>Node7&#45;&gt;Node27</title>
<path fill="none" stroke="#191970" d="M983.844,-470.4862C951.6244,-443.0096 858.1396,-363.2866 817.3806,-328.5276"/>
<polygon fill="#191970" stroke="#191970" points="819.4044,-325.6536 809.5244,-321.8279 814.8622,-330.9798 819.4044,-325.6536"/>
</g>
<!-- Node7&#45;&gt;Node31 -->
<g id="edge72" class="edge">
<title>Node7&#45;&gt;Node31</title>
<path fill="none" stroke="#191970" d="M948.1324,-478.9634C823.593,-475.802 491.2852,-464.5632 453,-434 428.9431,-414.7953 432,-398.7824 432,-368 432,-368 432,-368 432,-312 432,-273.5957 456.399,-234.2244 472.6952,-212.2111"/>
<polygon fill="#191970" stroke="#191970" points="475.5714,-214.2122 478.8846,-204.1487 470.0189,-209.9496 475.5714,-214.2122"/>
</g>
<!-- Node7&#45;&gt;Node38 -->
<g id="edge45" class="edge">
<title>Node7&#45;&gt;Node38</title>
<path fill="none" stroke="#191970" d="M1041.5557,-476.3237C1102.0012,-470.6598 1203.0769,-457.8682 1231,-434 1278.452,-393.4389 1235.3045,-346.5824 1279,-302 1296.0168,-284.6378 1320.3165,-273.7077 1342.5261,-266.8858"/>
<polygon fill="#191970" stroke="#191970" points="1343.5628,-270.2298 1352.2183,-264.1196 1341.6416,-263.4985 1343.5628,-270.2298"/>
</g>
<!-- Node40 -->
<g id="node31" class="node">
<title>Node40</title>
<g id="a_node31"><a xlink:href="Edge_8hpp.html" target="_top" xlink:title="mesh/Edge.hpp">
<polygon fill="#ffffff" stroke="#000000" points="690,-358.5 690,-377.5 782,-377.5 782,-358.5 690,-358.5"/>
<text text-anchor="middle" x="736" y="-365.5" font-family="Helvetica,sans-Serif" font-size="10.00" fill="#000000">mesh/Edge.hpp</text>
</a>
</g>
</g>
<!-- Node7&#45;&gt;Node40 -->
<g id="edge50" class="edge">
<title>Node7&#45;&gt;Node40</title>
<path fill="none" stroke="#191970" d="M948.1997,-470.8969C915.0571,-463.4586 870.084,-451.3256 833,-434 804.0343,-420.4673 774.1231,-398.718 755.3148,-383.9151"/>
<polygon fill="#191970" stroke="#191970" points="757.4917,-381.1744 747.4977,-377.657 753.1169,-386.639 757.4917,-381.1744"/>
</g>
<!-- Node7&#45;&gt;Node42 -->
<g id="edge57" class="edge">
<title>Node7&#45;&gt;Node42</title>
<path fill="none" stroke="#191970" d="M948.1323,-479.0175C812.7274,-475.8302 427.5798,-464.1816 380,-434 347.2279,-413.2115 363.3058,-386.5338 337,-358 302.7407,-320.839 174.9967,-241.9965 120.6857,-209.2445"/>
<polygon fill="#191970" stroke="#191970" points="122.4032,-206.1933 112.0294,-204.04 118.7962,-212.1924 122.4032,-206.1933"/>
</g>
<!-- Node43 -->
<g id="node34" class="node">
<title>Node43</title>
<g id="a_node34"><a xlink:href="Triangle_8hpp.html" target="_top" xlink:title="mesh/Triangle.hpp">
<polygon fill="#ffffff" stroke="#ff0000" points="528,-414.5 528,-433.5 634,-433.5 634,-414.5 528,-414.5"/>
<text text-anchor="middle" x="581" y="-421.5" font-family="Helvetica,sans-Serif" font-size="10.00" fill="#000000">mesh/Triangle.hpp</text>
</a>
</g>
</g>
<!-- Node7&#45;&gt;Node43 -->
<g id="edge59" class="edge">
<title>Node7&#45;&gt;Node43</title>
<path fill="none" stroke="#191970" d="M948.3137,-473.6849C873.8124,-463.6075 727.9246,-443.8739 644.1666,-432.5443"/>
<polygon fill="#191970" stroke="#191970" points="644.3991,-429.0439 634.0202,-431.1718 643.4607,-435.9808 644.3991,-429.0439"/>
</g>
<!-- Node46 -->
<g id="node35" class="node">
<title>Node46</title>
<g id="a_node35"><a xlink:href="ManageUniqueIDs_8hpp.html" target="_top" xlink:title="utils/ManageUniqueIDs.hpp">
<polygon fill="#ffffff" stroke="#ff0000" points="1321,-302.5 1321,-321.5 1471,-321.5 1471,-302.5 1321,-302.5"/>
<text text-anchor="middle" x="1396" y="-309.5" font-family="Helvetica,sans-Serif" font-size="10.00" fill="#000000">utils/ManageUniqueIDs.hpp</text>
</a>
</g>
</g>
<!-- Node7&#45;&gt;Node46 -->
<g id="edge68" class="edge">
<title>Node7&#45;&gt;Node46</title>
<path fill="none" stroke="#191970" d="M1041.7304,-475.5175C1109.1767,-468.4837 1229.9984,-453.6072 1269,-434 1319.0654,-408.8308 1362.5398,-357.167 1383.1985,-329.8469"/>
<polygon fill="#191970" stroke="#191970" points="1386.174,-331.7097 1389.3064,-321.5885 1380.546,-327.5473 1386.174,-331.7097"/>
</g>
<!-- Node49 -->
<g id="node36" class="node">
<title>Node49</title>
<g id="a_node36"><a xlink:href="PointerVector_8hpp.html" target="_top" xlink:title="utils/PointerVector.hpp">
<polygon fill="#ffffff" stroke="#ff0000" points="1132,-246.5 1132,-265.5 1258,-265.5 1258,-246.5 1132,-246.5"/>
<text text-anchor="middle" x="1195" y="-253.5" font-family="Helvetica,sans-Serif" font-size="10.00" fill="#000000">utils/PointerVector.hpp</text>
</a>
</g>
</g>
<!-- Node7&#45;&gt;Node49 -->
<g id="edge69" class="edge">
<title>Node7&#45;&gt;Node49</title>
<path fill="none" stroke="#191970" d="M1037.9749,-470.4869C1074.0896,-461.7022 1121.9931,-447.9411 1136,-434 1180.1414,-390.066 1191.258,-312.3987 1194.0576,-275.9449"/>
<polygon fill="#191970" stroke="#191970" points="1197.5703,-275.8526 1194.7057,-265.6524 1190.5841,-275.4127 1197.5703,-275.8526"/>
</g>
<!-- Node14&#45;&gt;Node3 -->
<g id="edge17" class="edge">
<title>Node14&#45;&gt;Node3</title>
<path fill="none" stroke="#191970" d="M1556.3158,-56.2455C1562.2179,-48.3761 1570.6742,-37.101 1577.7594,-27.6542"/>
<polygon fill="#191970" stroke="#191970" points="1580.568,-29.7427 1583.768,-19.6427 1574.9679,-25.5427 1580.568,-29.7427"/>
</g>
<!-- Node14&#45;&gt;Node12 -->
<g id="edge18" class="edge">
<title>Node14&#45;&gt;Node12</title>
<path fill="none" stroke="#191970" d="M1603.764,-61.6988C1744.9709,-50.6082 2118.1698,-21.2966 2229.9319,-12.5187"/>
<polygon fill="#191970" stroke="#191970" points="2230.2197,-16.0069 2239.9149,-11.7346 2229.6715,-9.0284 2230.2197,-16.0069"/>
</g>
<!-- Node26&#45;&gt;Node1 -->
<g id="edge20" class="edge">
<title>Node26&#45;&gt;Node1</title>
<path fill="none" stroke="#191970" d="M1027.6689,-358.4248C1026.7204,-330.999 1023.9792,-251.732 1022.6881,-214.3964"/>
<polygon fill="#191970" stroke="#191970" points="1026.1811,-214.1326 1022.3375,-204.2595 1019.1853,-214.3746 1026.1811,-214.1326"/>
</g>
<!-- Node26&#45;&gt;Node6 -->
<g id="edge21" class="edge">
<title>Node26&#45;&gt;Node6</title>
<path fill="none" stroke="#191970" d="M1020.8817,-358.4419C1000.4883,-329.8034 945.35,-242.7405 978,-179 990.484,-154.6283 1012.6664,-165.6872 1028,-143 1039.5268,-125.9453 1044.0703,-102.55 1045.8558,-86.0361"/>
<polygon fill="#191970" stroke="#191970" points="1049.3608,-86.1214 1046.7032,-75.8653 1042.3849,-85.5401 1049.3608,-86.1214"/>
</g>
<!-- Node26&#45;&gt;Node13 -->
<g id="edge22" class="edge">
<title>Node26&#45;&gt;Node13</title>
<path fill="none" stroke="#191970" d="M1094.227,-365.0937C1240.6172,-358.4091 1587.9197,-341.0467 1704,-322 1738.4669,-316.3446 1745.9391,-309.7334 1780,-302 1862.9622,-283.1637 1913.7951,-331.5695 1968,-266 1995.1891,-233.1105 1925.3377,-226.151 1916,-210 1893.276,-170.6952 1896.6838,-114.9967 1900.6329,-85.7263"/>
<polygon fill="#191970" stroke="#191970" points="1904.1345,-85.979 1902.1742,-75.5671 1897.2137,-84.9289 1904.1345,-85.979"/>
</g>
<!-- Node26&#45;&gt;Node14 -->
<g id="edge23" class="edge">
<title>Node26&#45;&gt;Node14</title>
<path fill="none" stroke="#191970" d="M1033.674,-358.4759C1047.0682,-336.5693 1082.5821,-281.7468 1123,-246 1209.8986,-169.1443 1239.3311,-155.1923 1347,-112 1391.3138,-94.2231 1443.987,-82.5135 1484.4339,-75.3588"/>
<polygon fill="#191970" stroke="#191970" points="1485.1794,-78.7821 1494.4411,-73.6371 1483.9924,-71.8834 1485.1794,-78.7821"/>
</g>
<!-- Node26&#45;&gt;Node27 -->
<g id="edge24" class="edge">
<title>Node26&#45;&gt;Node27</title>
<path fill="none" stroke="#191970" d="M988.7229,-358.4369C949.5256,-348.8932 889.2,-334.2052 846.9165,-323.9101"/>
<polygon fill="#191970" stroke="#191970" points="847.6592,-320.4888 837.1151,-321.5237 846.0032,-327.2901 847.6592,-320.4888"/>
</g>
<!-- Node27&#45;&gt;Node1 -->
<g id="edge25" class="edge">
<title>Node27&#45;&gt;Node1</title>
<path fill="none" stroke="#191970" d="M804.7668,-302.4877C815.3889,-288.2235 837.3281,-261.334 862,-246 897.7127,-223.8039 943.9134,-210.2785 977.481,-202.6951"/>
<polygon fill="#191970" stroke="#191970" points="978.4363,-206.0693 987.4673,-200.5293 976.9527,-199.2284 978.4363,-206.0693"/>
</g>
<!-- Node28 -->
<g id="node18" class="node">
<title>Node28</title>
<polygon fill="#ffffff" stroke="#bfbfbf" points="959,-118 959,-137 1019,-137 1019,-118 959,-118"/>
<text text-anchor="middle" x="989" y="-125" font-family="Helvetica,sans-Serif" font-size="10.00" fill="#000000">iostream</text>
</g>
<!-- Node27&#45;&gt;Node28 -->
<g id="edge26" class="edge">
<title>Node27&#45;&gt;Node28</title>
<path fill="none" stroke="#191970" d="M748.1771,-303.1997C707.7403,-293.7051 660.5314,-275.7949 681,-246 753.255,-140.8227 829.9522,-188.9421 949,-143 950.876,-142.276 952.8012,-141.5323 954.7444,-140.7812"/>
<polygon fill="#191970" stroke="#191970" points="956.4026,-143.8925 964.4656,-137.0194 953.8763,-137.3642 956.4026,-143.8925"/>
</g>
<!-- Node29 -->
<g id="node19" class="node">
<title>Node29</title>
<polygon fill="#ffffff" stroke="#bfbfbf" points="1461.5,-246.5 1461.5,-265.5 1506.5,-265.5 1506.5,-246.5 1461.5,-246.5"/>
<text text-anchor="middle" x="1484" y="-253.5" font-family="Helvetica,sans-Serif" font-size="10.00" fill="#000000">utility</text>
</g>
<!-- Node27&#45;&gt;Node29 -->
<g id="edge27" class="edge">
<title>Node27&#45;&gt;Node29</title>
<path fill="none" stroke="#191970" d="M847.5941,-310.0716C976.1889,-304.8295 1319.0142,-289.2531 1451.5552,-265.8097"/>
<polygon fill="#191970" stroke="#191970" points="1452.2884,-269.2334 1461.4784,-263.9615 1451.0066,-262.3517 1452.2884,-269.2334"/>
</g>
<!-- Node30 -->
<g id="node20" class="node">
<title>Node30</title>
<g id="a_node20"><a xlink:href="differences_8hpp.html" target="_top" xlink:title="math/differences.hpp">
<polygon fill="#ffffff" stroke="#000000" points="690,-246.5 690,-265.5 810,-265.5 810,-246.5 690,-246.5"/>
<text text-anchor="middle" x="750" y="-253.5" font-family="Helvetica,sans-Serif" font-size="10.00" fill="#000000">math/differences.hpp</text>
</a>
</g>
</g>
<!-- Node27&#45;&gt;Node30 -->
<g id="edge28" class="edge">
<title>Node27&#45;&gt;Node30</title>
<path fill="none" stroke="#191970" d="M789.639,-302.2455C782.825,-294.2958 773.0319,-282.8706 764.8848,-273.3656"/>
<polygon fill="#191970" stroke="#191970" points="767.4305,-270.9575 758.2651,-265.6427 762.1157,-275.513 767.4305,-270.9575"/>
</g>
<!-- Node27&#45;&gt;Node31 -->
<g id="edge44" class="edge">
<title>Node27&#45;&gt;Node31</title>
<path fill="none" stroke="#191970" d="M762.7449,-302.4863C732.0908,-293.9075 686.6539,-280.4502 648,-266 600.7496,-248.3362 547.5528,-223.7534 515.6859,-208.4997"/>
<polygon fill="#191970" stroke="#191970" points="517.0397,-205.267 506.5112,-204.0832 514.0035,-211.5743 517.0397,-205.267"/>
</g>
<!-- Node30&#45;&gt;Node1 -->
<g id="edge29" class="edge">
<title>Node30&#45;&gt;Node1</title>
<path fill="none" stroke="#191970" d="M792.2016,-246.4581C842.5627,-235.0713 926.3813,-216.1197 977.6656,-204.5241"/>
<polygon fill="#191970" stroke="#191970" points="978.4872,-207.9268 987.4691,-202.3075 976.9434,-201.0992 978.4872,-207.9268"/>
</g>
<!-- Node30&#45;&gt;Node31 -->
<g id="edge30" class="edge">
<title>Node30&#45;&gt;Node31</title>
<path fill="none" stroke="#191970" d="M709.1948,-246.4581C663.0311,-235.6632 587.7928,-218.0694 537.846,-206.3899"/>
<polygon fill="#191970" stroke="#191970" points="538.4352,-202.9333 527.9009,-204.0643 536.8413,-209.7494 538.4352,-202.9333"/>
</g>
<!-- Node31&#45;&gt;Node28 -->
<g id="edge32" class="edge">
<title>Node31&#45;&gt;Node28</title>
<path fill="none" stroke="#191970" d="M524.5928,-184.9927C534.4372,-182.7614 545.0746,-180.5775 555,-179 728.6609,-151.3995 777.806,-183.1563 949,-143 951.855,-142.3303 954.778,-141.4999 957.6806,-140.5742"/>
<polygon fill="#191970" stroke="#191970" points="959.0833,-143.7905 967.342,-137.1539 956.7472,-137.1918 959.0833,-143.7905"/>
</g>
<!-- Node32 -->
<g id="node22" class="node">
<title>Node32</title>
<polygon fill="#ffffff" stroke="#bfbfbf" points="244,-118 244,-137 296,-137 296,-118 244,-118"/>
<text text-anchor="middle" x="270" y="-125" font-family="Helvetica,sans-Serif" font-size="10.00" fill="#000000">cassert</text>
</g>
<!-- Node31&#45;&gt;Node32 -->
<g id="edge31" class="edge">
<title>Node31&#45;&gt;Node32</title>
<path fill="none" stroke="#191970" d="M447.0822,-184.9347C409.8628,-175.6107 353.031,-160.3331 305,-143 303.1716,-142.3402 301.3041,-141.6288 299.4303,-140.8862"/>
<polygon fill="#191970" stroke="#191970" points="300.7367,-137.6389 290.1606,-137.0081 298.0349,-144.0965 300.7367,-137.6389"/>
</g>
<!-- Node25 -->
<g id="node23" class="node">
<title>Node25</title>
<polygon fill="#ffffff" stroke="#bfbfbf" points="314,-118 314,-137 370,-137 370,-118 314,-118"/>
<text text-anchor="middle" x="342" y="-125" font-family="Helvetica,sans-Serif" font-size="10.00" fill="#000000">sstream</text>
</g>
<!-- Node31&#45;&gt;Node25 -->
<g id="edge33" class="edge">
<title>Node31&#45;&gt;Node25</title>
<path fill="none" stroke="#191970" d="M466.225,-184.9005C441.5677,-173.5072 400.2549,-154.4178 372.0982,-141.4075"/>
<polygon fill="#191970" stroke="#191970" points="373.2823,-138.099 362.7364,-137.0817 370.3461,-144.4535 373.2823,-138.099"/>
</g>
<!-- Node33 -->
<g id="node24" class="node">
<title>Node33</title>
<polygon fill="#ffffff" stroke="#bfbfbf" points="388.5,-118 388.5,-137 535.5,-137 535.5,-118 388.5,-118"/>
<text text-anchor="middle" x="462" y="-125" font-family="Helvetica,sans-Serif" font-size="10.00" fill="#000000">boost/current_function.hpp</text>
</g>
<!-- Node31&#45;&gt;Node33 -->
<g id="edge34" class="edge">
<title>Node31&#45;&gt;Node33</title>
<path fill="none" stroke="#191970" d="M483.4181,-184.9005C479.7052,-174.95 473.802,-159.1292 469.1324,-146.6147"/>
<polygon fill="#191970" stroke="#191970" points="472.3504,-145.2271 465.5752,-137.0817 465.7921,-147.6743 472.3504,-145.2271"/>
</g>
<!-- Node16 -->
<g id="node25" class="node">
<title>Node16</title>
<polygon fill="#ffffff" stroke="#bfbfbf" points="554,-112.5 554,-142.5 664,-142.5 664,-112.5 554,-112.5"/>
<text text-anchor="start" x="562" y="-130.5" font-family="Helvetica,sans-Serif" font-size="10.00" fill="#000000">boost/preprocessor</text>
<text text-anchor="middle" x="609" y="-119.5" font-family="Helvetica,sans-Serif" font-size="10.00" fill="#000000">/control/if.hpp</text>
</g>
<!-- Node31&#45;&gt;Node16 -->
<g id="edge35" class="edge">
<title>Node31&#45;&gt;Node16</title>
<path fill="none" stroke="#191970" d="M504.4796,-184.9005C522.1996,-175.1691 550.1431,-159.823 572.6803,-147.4461"/>
<polygon fill="#191970" stroke="#191970" points="574.5665,-150.4033 581.6469,-142.5218 571.1969,-144.2677 574.5665,-150.4033"/>
</g>
<!-- Node34 -->
<g id="node26" class="node">
<title>Node34</title>
<polygon fill="#ffffff" stroke="#bfbfbf" points="682.5,-112.5 682.5,-142.5 811.5,-142.5 811.5,-112.5 682.5,-112.5"/>
<text text-anchor="start" x="690.5" y="-130.5" font-family="Helvetica,sans-Serif" font-size="10.00" fill="#000000">boost/preprocessor</text>
<text text-anchor="middle" x="747" y="-119.5" font-family="Helvetica,sans-Serif" font-size="10.00" fill="#000000">/facilities/is_empty.hpp</text>
</g>
<!-- Node31&#45;&gt;Node34 -->
<g id="edge36" class="edge">
<title>Node31&#45;&gt;Node34</title>
<path fill="none" stroke="#191970" d="M523.9755,-184.9717C564.1948,-174.6075 629.3603,-157.8148 678.8907,-145.0512"/>
<polygon fill="#191970" stroke="#191970" points="679.766,-148.4401 688.5763,-142.5553 678.0192,-141.6615 679.766,-148.4401"/>
</g>
<!-- Node18 -->
<g id="node27" class="node">
<title>Node18</title>
<polygon fill="#ffffff" stroke="#bfbfbf" points="829.5,-112.5 829.5,-142.5 940.5,-142.5 940.5,-112.5 829.5,-112.5"/>
<text text-anchor="start" x="837.5" y="-130.5" font-family="Helvetica,sans-Serif" font-size="10.00" fill="#000000">boost/preprocessor</text>
<text text-anchor="middle" x="885" y="-119.5" font-family="Helvetica,sans-Serif" font-size="10.00" fill="#000000">/seq/for_each_i.hpp</text>
</g>
<!-- Node31&#45;&gt;Node18 -->
<g id="edge37" class="edge">
<title>Node31&#45;&gt;Node18</title>
<path fill="none" stroke="#191970" d="M526.072,-184.9673C535.5096,-182.8385 545.5882,-180.7085 555,-179 668.7507,-158.3517 701.388,-164.448 819.2613,-143.0135"/>
<polygon fill="#191970" stroke="#191970" points="820.2103,-146.3975 829.4082,-141.1393 818.9388,-139.5139 820.2103,-146.3975"/>
</g>
<!-- Node35 -->
<g id="node28" class="node">
<title>Node35</title>
<g id="a_node28"><a xlink:href="Parallel_8hpp.html" target="_top" xlink:title="Parallel.hpp">
<polygon fill="#ffffff" stroke="#ff0000" points="1676,-118 1676,-137 1750,-137 1750,-118 1676,-118"/>
<text text-anchor="middle" x="1713" y="-125" font-family="Helvetica,sans-Serif" font-size="10.00" fill="#000000">Parallel.hpp</text>
</a>
</g>
</g>
<!-- Node31&#45;&gt;Node35 -->
<g id="edge38" class="edge">
<title>Node31&#45;&gt;Node35</title>
<path fill="none" stroke="#191970" d="M540.8642,-191.5564C745.5274,-180.3717 1473.0562,-140.6128 1665.8354,-130.0775"/>
<polygon fill="#191970" stroke="#191970" points="1666.1324,-133.5666 1675.9265,-129.526 1665.7504,-126.577 1666.1324,-133.5666"/>
</g>
<!-- Node35&#45;&gt;Node3 -->
<g id="edge40" class="edge">
<title>Node35&#45;&gt;Node3</title>
<path fill="none" stroke="#191970" d="M1707.7069,-117.8385C1699.3719,-103.2263 1682.056,-75.179 1662,-56 1649.2354,-43.7936 1632.7969,-32.905 1618.9524,-24.7894"/>
<polygon fill="#191970" stroke="#191970" points="1620.2842,-21.521 1609.8592,-19.6318 1616.8307,-27.6098 1620.2842,-21.521"/>
</g>
<!-- Node35&#45;&gt;Node6 -->
<g id="edge39" class="edge">
<title>Node35&#45;&gt;Node6</title>
<path fill="none" stroke="#191970" d="M1675.7659,-124.0617C1558.204,-113.2058 1195.9685,-79.7561 1081.8238,-69.2157"/>
<polygon fill="#191970" stroke="#191970" points="1081.8481,-65.7031 1071.5686,-68.2687 1081.2044,-72.6735 1081.8481,-65.7031"/>
</g>
<!-- Node35&#45;&gt;Node12 -->
<g id="edge41" class="edge">
<title>Node35&#45;&gt;Node12</title>
<path fill="none" stroke="#191970" d="M1721.4349,-117.775C1736.0183,-101.7146 1767.6948,-70.0304 1802,-56 1879.8884,-24.1446 2138.8233,-13.6118 2229.9425,-10.8438"/>
<polygon fill="#191970" stroke="#191970" points="2230.0616,-14.3419 2239.9548,-10.5507 2229.8567,-7.3449 2230.0616,-14.3419"/>
</g>
<!-- Node35&#45;&gt;Node13 -->
<g id="edge42" class="edge">
<title>Node35&#45;&gt;Node13</title>
<path fill="none" stroke="#191970" d="M1742.8438,-117.8906C1777.5606,-106.7122 1834.714,-88.3094 1870.8036,-76.6889"/>
<polygon fill="#191970" stroke="#191970" points="1871.9421,-79.9993 1880.3881,-73.6028 1869.7966,-73.3362 1871.9421,-79.9993"/>
</g>
<!-- Node35&#45;&gt;Node14 -->
<g id="edge43" class="edge">
<title>Node35&#45;&gt;Node14</title>
<path fill="none" stroke="#191970" d="M1687.375,-117.8906C1659.5737,-107.4652 1615.0156,-90.7559 1584.0006,-79.1252"/>
<polygon fill="#191970" stroke="#191970" points="1585.0373,-75.776 1574.4451,-75.5419 1582.5794,-82.3303 1585.0373,-75.776"/>
</g>
<!-- Node38&#45;&gt;Node1 -->
<g id="edge46" class="edge">
<title>Node38&#45;&gt;Node1</title>
<path fill="none" stroke="#191970" d="M1352.2709,-248.5204C1279.6143,-236.6364 1138.6836,-213.5852 1066.6864,-201.8091"/>
<polygon fill="#191970" stroke="#191970" points="1067.0142,-198.3163 1056.5803,-200.1561 1065.8842,-205.2245 1067.0142,-198.3163"/>
</g>
<!-- Node38&#45;&gt;Node12 -->
<g id="edge48" class="edge">
<title>Node38&#45;&gt;Node12</title>
<path fill="none" stroke="#191970" d="M1443.6033,-247.1452C1514.1041,-232.2852 1652.5319,-198.3933 1759,-143 1815.2278,-113.7457 1813.299,-79.9076 1872,-56 1936.8096,-29.6045 2148.4584,-15.9623 2229.7752,-11.593"/>
<polygon fill="#191970" stroke="#191970" points="2230.1123,-15.0802 2239.9148,-11.0602 2229.7449,-8.0898 2230.1123,-15.0802"/>
</g>
<!-- Node38&#45;&gt;Node14 -->
<g id="edge49" class="edge">
<title>Node38&#45;&gt;Node14</title>
<path fill="none" stroke="#191970" d="M1405.6957,-246.3167C1429.7214,-216.0857 1503.5925,-123.1353 1534.8242,-83.8371"/>
<polygon fill="#191970" stroke="#191970" points="1537.657,-85.8981 1541.1387,-75.8917 1532.1768,-81.5428 1537.657,-85.8981"/>
</g>
<!-- Node39 -->
<g id="node30" class="node">
<title>Node39</title>
<polygon fill="#ffffff" stroke="#bfbfbf" points="1352,-185 1352,-204 1408,-204 1408,-185 1352,-185"/>
<text text-anchor="middle" x="1380" y="-192" font-family="Helvetica,sans-Serif" font-size="10.00" fill="#000000">stddef.h</text>
</g>
<!-- Node38&#45;&gt;Node39 -->
<g id="edge47" class="edge">
<title>Node38&#45;&gt;Node39</title>
<path fill="none" stroke="#191970" d="M1395.1875,-246.3906C1392.6661,-237.776 1388.889,-224.8708 1385.7324,-214.0858"/>
<polygon fill="#191970" stroke="#191970" points="1389.0203,-212.8591 1382.8522,-204.2449 1382.3021,-214.8254 1389.0203,-212.8591"/>
</g>
<!-- Node40&#45;&gt;Node1 -->
<g id="edge51" class="edge">
<title>Node40&#45;&gt;Node1</title>
<path fill="none" stroke="#191970" d="M781.1468,-358.4894C805.4371,-351.5775 834.6928,-340.1675 856,-322 885.6998,-296.6765 870.727,-271.8156 900,-246 922.1485,-226.4674 952.7852,-213.5705 977.8161,-205.5677"/>
<polygon fill="#191970" stroke="#191970" points="978.9065,-208.8944 987.4548,-202.6354 976.8691,-202.1975 978.9065,-208.8944"/>
</g>
<!-- Node40&#45;&gt;Node27 -->
<g id="edge55" class="edge">
<title>Node40&#45;&gt;Node27</title>
<path fill="none" stroke="#191970" d="M746.7996,-358.2455C755.8678,-350.0549 769.0206,-338.1749 779.7245,-328.5069"/>
<polygon fill="#191970" stroke="#191970" points="782.2491,-330.9429 787.3242,-321.6427 777.5571,-325.7482 782.2491,-330.9429"/>
</g>
<!-- Node40&#45;&gt;Node28 -->
<g id="edge53" class="edge">
<title>Node40&#45;&gt;Node28</title>
<path fill="none" stroke="#191970" d="M727.5208,-358.4733C712.9628,-341.4041 683.7445,-303.8423 673,-266 661.5704,-225.7449 674.7805,-203.086 709,-179 797.2017,-116.9176 844.7454,-170.6544 949,-143 951.767,-142.266 954.6048,-141.403 957.4298,-140.4663"/>
<polygon fill="#191970" stroke="#191970" points="958.6357,-143.7522 966.8638,-137.0778 956.2694,-137.1643 958.6357,-143.7522"/>
</g>
<!-- Node40&#45;&gt;Node30 -->
<g id="edge54" class="edge">
<title>Node40&#45;&gt;Node30</title>
<path fill="none" stroke="#191970" d="M735.8685,-358.1062C735.829,-345.1508 736.2135,-321.7626 739,-302 740.2435,-293.1806 742.408,-283.5766 744.4899,-275.4362"/>
<polygon fill="#191970" stroke="#191970" points="747.8729,-276.3334 747.0946,-265.7672 741.1139,-274.5125 747.8729,-276.3334"/>
</g>
<!-- Node40&#45;&gt;Node31 -->
<g id="edge56" class="edge">
<title>Node40&#45;&gt;Node31</title>
<path fill="none" stroke="#191970" d="M721.6191,-358.3864C707.8188,-349.134 686.4152,-334.713 668,-322 610.2166,-282.109 542.7352,-234.2266 508.8192,-210.0699"/>
<polygon fill="#191970" stroke="#191970" points="510.7366,-207.1385 500.5618,-204.1849 506.6739,-212.839 510.7366,-207.1385"/>
</g>
<!-- Node41 -->
<g id="node32" class="node">
<title>Node41</title>
<polygon fill="#ffffff" stroke="#bfbfbf" points="574,-302.5 574,-321.5 616,-321.5 616,-302.5 574,-302.5"/>
<text text-anchor="middle" x="595" y="-309.5" font-family="Helvetica,sans-Serif" font-size="10.00" fill="#000000">array</text>
</g>
<!-- Node40&#45;&gt;Node41 -->
<g id="edge52" class="edge">
<title>Node40&#45;&gt;Node41</title>
<path fill="none" stroke="#191970" d="M711.7612,-358.3733C687.8832,-348.8898 651.329,-334.3718 625.4917,-324.1102"/>
<polygon fill="#191970" stroke="#191970" points="626.7485,-320.8434 616.1627,-320.4051 624.1647,-327.3491 626.7485,-320.8434"/>
</g>
<!-- Node42&#45;&gt;Node3 -->
<g id="edge58" class="edge">
<title>Node42&#45;&gt;Node3</title>
<path fill="none" stroke="#191970" d="M100.5439,-184.9548C109.6821,-166.9765 132.1658,-128.4279 164,-112 290.502,-46.7191 1334.8399,-16.559 1551.6707,-10.9697"/>
<polygon fill="#191970" stroke="#191970" points="1552.0289,-14.4618 1561.9363,-10.7076 1551.8501,-7.4641 1552.0289,-14.4618"/>
</g>
<!-- Node43&#45;&gt;Node1 -->
<g id="edge60" class="edge">
<title>Node43&#45;&gt;Node1</title>
<path fill="none" stroke="#191970" d="M634.3548,-417.6628C677.7723,-411.2567 739.9899,-399.1937 791,-378 885.1004,-338.9031 972.4576,-249.7453 1006.7181,-211.951"/>
<polygon fill="#191970" stroke="#191970" points="1009.5024,-214.088 1013.5603,-204.301 1004.2849,-209.4213 1009.5024,-214.088"/>
</g>
<!-- Node43&#45;&gt;Node2 -->
<g id="edge61" class="edge">
<title>Node43&#45;&gt;Node2</title>
<path fill="none" stroke="#191970" d="M532.3306,-414.4369C477.6304,-403.6888 389.7248,-386.4161 337.9431,-376.2415"/>
<polygon fill="#191970" stroke="#191970" points="338.5762,-372.799 328.089,-374.3052 337.2265,-379.6677 338.5762,-372.799"/>
</g>
<!-- Node43&#45;&gt;Node28 -->
<g id="edge63" class="edge">
<title>Node43&#45;&gt;Node28</title>
<path fill="none" stroke="#191970" d="M572.5023,-414.2186C565.4597,-405.4179 555.9829,-391.786 552,-378 542.6248,-345.5494 539.1375,-333.2329 552,-302 581.3201,-230.8043 605.0009,-213.1704 674,-179 784.4616,-124.2961 829.5647,-173.4875 949,-143 951.7737,-142.292 954.6163,-141.4471 957.4445,-140.5225"/>
<polygon fill="#191970" stroke="#191970" points="958.6416,-143.8116 966.8838,-137.1545 956.2892,-137.2187 958.6416,-143.8116"/>
</g>
<!-- Node43&#45;&gt;Node30 -->
<g id="edge64" class="edge">
<title>Node43&#45;&gt;Node30</title>
<path fill="none" stroke="#191970" d="M575.4397,-414.21C563.5001,-391.7443 538.5542,-335.8267 565,-302 579.3381,-283.6602 633.7833,-271.5858 679.9264,-264.429"/>
<polygon fill="#191970" stroke="#191970" points="680.5583,-267.8735 689.9305,-262.9325 679.5227,-260.9506 680.5583,-267.8735"/>
</g>
<!-- Node43&#45;&gt;Node31 -->
<g id="edge66" class="edge">
<title>Node43&#45;&gt;Node31</title>
<path fill="none" stroke="#191970" d="M544.901,-414.3948C526.3764,-407.4712 505.3676,-396.0802 494,-378 461.6917,-326.6134 473.5687,-250.1624 481.778,-214.3528"/>
<polygon fill="#191970" stroke="#191970" points="485.2759,-214.7831 484.2538,-204.2377 478.4766,-213.1188 485.2759,-214.7831"/>
</g>
<!-- Node43&#45;&gt;Node40 -->
<g id="edge65" class="edge">
<title>Node43&#45;&gt;Node40</title>
<path fill="none" stroke="#191970" d="M607.6454,-414.3733C633.1964,-405.1419 671.9512,-391.1402 700.1909,-380.9375"/>
<polygon fill="#191970" stroke="#191970" points="701.4865,-384.1909 709.7022,-377.5011 699.1079,-377.6074 701.4865,-384.1909"/>
</g>
<!-- Node43&#45;&gt;Node41 -->
<g id="edge62" class="edge">
<title>Node43&#45;&gt;Node41</title>
<path fill="none" stroke="#191970" d="M582.1936,-414.4509C584.477,-396.184 589.5056,-355.9553 592.5378,-331.6976"/>
<polygon fill="#191970" stroke="#191970" points="596.0419,-331.8818 593.8094,-321.5249 589.096,-331.0135 596.0419,-331.8818"/>
</g>
<!-- Node49&#45;&gt;Node13 -->
<g id="edge70" class="edge">
<title>Node49&#45;&gt;Node13</title>
<path fill="none" stroke="#191970" d="M1208.9024,-246.3495C1234.2287,-229.3391 1290.158,-194.3683 1343,-179 1521.1965,-127.1742 1581.0236,-195.5768 1759,-143 1783.3613,-135.8033 1844.0916,-101.3004 1878.7367,-81.0044"/>
<polygon fill="#191970" stroke="#191970" points="1880.9217,-83.7796 1887.7647,-75.6911 1877.3712,-77.7469 1880.9217,-83.7796"/>
</g>
<!-- Node49&#45;&gt;Node31 -->
<g id="edge71" class="edge">
<title>Node49&#45;&gt;Node31</title>
<path fill="none" stroke="#191970" d="M1131.8585,-250.5153C997.7506,-238.866 685.7723,-211.7662 550.9515,-200.0551"/>
<polygon fill="#191970" stroke="#191970" points="551.0468,-196.5503 540.7814,-199.1717 550.441,-203.524 551.0468,-196.5503"/>
</g>
<!-- Node51&#45;&gt;Node5 -->
<g id="edge78" class="edge">
<title>Node51&#45;&gt;Node5</title>
<path fill="none" stroke="#191970" d="M1912.425,-594.9745C1617.5802,-584.9894 535.123,-548.3313 243.6799,-538.4614"/>
<polygon fill="#191970" stroke="#191970" points="243.7614,-534.9622 233.6487,-538.1216 243.5244,-541.9582 243.7614,-534.9622"/>
</g>
<!-- Node51&#45;&gt;Node10 -->
<g id="edge75" class="edge">
<title>Node51&#45;&gt;Node10</title>
<path fill="none" stroke="#191970" d="M1982.7368,-582.2023C1979.9113,-571.9712 1976.1575,-558.199 1973,-546 1963.658,-509.907 1953.4167,-467.6227 1947.6419,-443.5057"/>
<polygon fill="#191970" stroke="#191970" points="1950.9823,-442.4249 1945.2555,-433.5111 1944.1737,-444.0506 1950.9823,-442.4249"/>
</g>
<!-- Node51&#45;&gt;Node12 -->
<g id="edge76" class="edge">
<title>Node51&#45;&gt;Node12</title>
<path fill="none" stroke="#191970" d="M2061.5871,-591.5791C2230.7609,-577.1492 2629,-537.1152 2629,-480 2629,-480 2629,-480 2629,-127.5 2629,-72.5015 2578.7924,-77.0943 2528,-56 2486.1489,-38.619 2355.7313,-21.2474 2294.4408,-13.7898"/>
<polygon fill="#191970" stroke="#191970" points="2294.5291,-10.2753 2284.1826,-12.5558 2293.693,-17.2252 2294.5291,-10.2753"/>
</g>
<!-- Node51&#45;&gt;Node13 -->
<g id="edge77" class="edge">
<title>Node51&#45;&gt;Node13</title>
<path fill="none" stroke="#191970" d="M2061.5766,-593.6863C2215.2701,-581.399 2553,-529.638 2553,-312 2553,-312 2553,-312 2553,-256 2553,-126.547 2071.3943,-79.1312 1937.9287,-68.4765"/>
<polygon fill="#191970" stroke="#191970" points="1938.1101,-64.9801 1927.8679,-67.6909 1937.5651,-71.9589 1938.1101,-64.9801"/>
</g>
<!-- Node51&#45;&gt;Node14 -->
<g id="edge79" class="edge">
<title>Node51&#45;&gt;Node14</title>
<path fill="none" stroke="#191970" d="M1989.7637,-582.3964C1997.8661,-532.7985 2015.8946,-373.9871 1930,-302 1848.6804,-233.8472 1789.676,-311.8671 1694,-266 1623.7176,-232.3066 1606.9344,-211.087 1569,-143 1558.9503,-124.9622 1553.8176,-101.7321 1551.2863,-85.5257"/>
<polygon fill="#191970" stroke="#191970" points="1554.7483,-85.0093 1549.921,-75.5781 1547.8134,-85.9612 1554.7483,-85.0093"/>
</g>
<!-- Node52 -->
<g id="node38" class="node">
<title>Node52</title>
<g id="a_node38"><a xlink:href="FindClosest_8hpp.html" target="_top" xlink:title="query/FindClosest.hpp">
<polygon fill="#ffffff" stroke="#ff0000" points="1703,-246.5 1703,-265.5 1827,-265.5 1827,-246.5 1703,-246.5"/>
<text text-anchor="middle" x="1765" y="-253.5" font-family="Helvetica,sans-Serif" font-size="10.00" fill="#000000">query/FindClosest.hpp</text>
</a>
</g>
</g>
<!-- Node51&#45;&gt;Node52 -->
<g id="edge80" class="edge">
<title>Node51&#45;&gt;Node52</title>
<path fill="none" stroke="#191970" d="M1995.2454,-582.42C2006.4215,-560.5326 2025,-518.3768 2025,-480 2025,-480 2025,-480 2025,-368 2025,-327.7538 1997.8772,-322.0832 1963,-302 1940.9438,-289.2994 1880.8846,-276.3075 1832.6491,-267.3846"/>
<polygon fill="#191970" stroke="#191970" points="1833.0192,-263.8944 1822.5535,-265.5438 1831.7635,-270.7809 1833.0192,-263.8944"/>
</g>
<!-- Node52&#45;&gt;Node1 -->
<g id="edge81" class="edge">
<title>Node52&#45;&gt;Node1</title>
<path fill="none" stroke="#191970" d="M1702.7572,-250.1767C1687.4702,-248.7777 1671.1459,-247.3099 1656,-246 1435.02,-226.8887 1170.5252,-206.0645 1066.8243,-197.9794"/>
<polygon fill="#191970" stroke="#191970" points="1066.9588,-194.4794 1056.7172,-197.1921 1066.4151,-201.4583 1066.9588,-194.4794"/>
</g>
<!-- Node52&#45;&gt;Node6 -->
<g id="edge82" class="edge">
<title>Node52&#45;&gt;Node6</title>
<path fill="none" stroke="#191970" d="M1728.9022,-246.4477C1605.6644,-213.836 1202.5117,-107.1521 1081.5893,-75.1532"/>
<polygon fill="#191970" stroke="#191970" points="1082.312,-71.724 1071.7493,-72.5493 1080.5212,-78.4911 1082.312,-71.724"/>
</g>
<!-- Node52&#45;&gt;Node12 -->
<g id="edge83" class="edge">
<title>Node52&#45;&gt;Node12</title>
<path fill="none" stroke="#191970" d="M1755.0081,-246.1883C1740.4717,-230.7123 1716.8941,-200.216 1733,-179 1768.9912,-131.5896 1805.0746,-160.3956 1862,-143 1999.8006,-100.8901 2162.2462,-44.8808 2229.9137,-21.2618"/>
<polygon fill="#191970" stroke="#191970" points="2231.2843,-24.4905 2239.5693,-17.8868 2228.9745,-17.8825 2231.2843,-24.4905"/>
</g>
<!-- Node52&#45;&gt;Node13 -->
<g id="edge84" class="edge">
<title>Node52&#45;&gt;Node13</title>
<path fill="none" stroke="#191970" d="M1741.8888,-246.4901C1726.9702,-238.9878 1708.7669,-226.9445 1700,-210 1693.6687,-197.7631 1691.6583,-189.9656 1700,-179 1736.2976,-131.2847 1778.5079,-173.7057 1830,-143 1855.4938,-127.7976 1878.0418,-101.4959 1891.3582,-83.9226"/>
<polygon fill="#191970" stroke="#191970" points="1894.3477,-85.7649 1897.4471,-75.6336 1888.7062,-81.6209 1894.3477,-85.7649"/>
</g>
<!-- Node52&#45;&gt;Node14 -->
<g id="edge85" class="edge">
<title>Node52&#45;&gt;Node14</title>
<path fill="none" stroke="#191970" d="M1744.8622,-246.4607C1710.7937,-229.5361 1641.099,-191.431 1596,-143 1579.7368,-125.5353 1566.1826,-101.5815 1557.8743,-85.0508"/>
<polygon fill="#191970" stroke="#191970" points="1560.9188,-83.3079 1553.4017,-75.8417 1554.6222,-86.3661 1560.9188,-83.3079"/>
</g>
<!-- Node58 -->
<g id="node40" class="node">
<title>Node58</title>
<polygon fill="#ffffff" stroke="#bfbfbf" points="1742,-179.5 1742,-209.5 1864,-209.5 1864,-179.5 1742,-179.5"/>
<text text-anchor="start" x="1750" y="-197.5" font-family="Helvetica,sans-Serif" font-size="10.00" fill="#000000">boost/math/constants</text>
<text text-anchor="middle" x="1803" y="-186.5" font-family="Helvetica,sans-Serif" font-size="10.00" fill="#000000">/constants.hpp</text>
</g>
<!-- Node57&#45;&gt;Node58 -->
<g id="edge87" class="edge">
<title>Node57&#45;&gt;Node58</title>
<path fill="none" stroke="#191970" d="M1886.5313,-246.3906C1873.0087,-237.9903 1852.9189,-225.5103 1835.8302,-214.8945"/>
<polygon fill="#191970" stroke="#191970" points="1837.5595,-211.8484 1827.2181,-209.5446 1833.8656,-217.7945 1837.5595,-211.8484"/>
</g>
<!-- Node59&#45;&gt;Node2 -->
<g id="edge92" class="edge">
<title>Node59&#45;&gt;Node2</title>
<path fill="none" stroke="#191970" d="M742.7644,-529.8695C643.0251,-515.6898 407.8476,-478.4203 342,-434 324.8782,-422.4498 312.1882,-402.2214 304.523,-387.1944"/>
<polygon fill="#191970" stroke="#191970" points="307.4986,-385.3038 300.0264,-377.7926 301.1837,-388.3241 307.4986,-385.3038"/>
</g>
<!-- Node59&#45;&gt;Node7 -->
<g id="edge95" class="edge">
<title>Node59&#45;&gt;Node7</title>
<path fill="none" stroke="#191970" d="M823.5846,-526.3733C858.6016,-516.9001 912.1881,-502.4032 950.1125,-492.1435"/>
<polygon fill="#191970" stroke="#191970" points="951.1408,-495.4912 959.8798,-489.5011 949.3127,-488.7341 951.1408,-495.4912"/>
</g>
<!-- Node59&#45;&gt;Node29 -->
<g id="edge96" class="edge">
<title>Node59&#45;&gt;Node29</title>
<path fill="none" stroke="#191970" d="M833.2955,-532.7014C924.3806,-524.8408 1134.9373,-500.4316 1298,-434 1385.9588,-398.1657 1431.1816,-403.4715 1480,-322 1488.2872,-308.1697 1488.685,-289.6485 1487.3558,-275.7468"/>
<polygon fill="#191970" stroke="#191970" points="1490.8169,-275.2215 1486.0373,-265.7661 1483.8772,-276.1384 1490.8169,-275.2215"/>
</g>
<!-- Node59&#45;&gt;Node40 -->
<g id="edge94" class="edge">
<title>Node59&#45;&gt;Node40</title>
<path fill="none" stroke="#191970" d="M785.0553,-526.4862C776.7997,-499.8144 753.306,-423.9117 742.0961,-387.695"/>
<polygon fill="#191970" stroke="#191970" points="745.3424,-386.3458 739.042,-377.8279 738.6554,-388.4157 745.3424,-386.3458"/>
</g>
<!-- Node59&#45;&gt;Node41 -->
<g id="edge93" class="edge">
<title>Node59&#45;&gt;Node41</title>
<path fill="none" stroke="#191970" d="M779.707,-526.375C749.9504,-491.8389 648.2864,-373.8453 609.8662,-329.2541"/>
<polygon fill="#191970" stroke="#191970" points="612.441,-326.8804 603.2621,-321.5891 607.1379,-331.4496 612.441,-326.8804"/>
</g>
<!-- Node60&#45;&gt;Node12 -->
<g id="edge99" class="edge">
<title>Node60&#45;&gt;Node12</title>
<path fill="none" stroke="#191970" d="M2307.2612,-302.5709C2337.7261,-295.9197 2373.1853,-284.7199 2401,-266 2427.2592,-248.3271 2434.6539,-239.9138 2445,-210 2474.9461,-123.4162 2353.5372,-52.8671 2293.6396,-24.0308"/>
<polygon fill="#191970" stroke="#191970" points="2294.7829,-20.7006 2284.2447,-19.6071 2291.8009,-27.0337 2294.7829,-20.7006"/>
</g>
<!-- Node60&#45;&gt;Node13 -->
<g id="edge102" class="edge">
<title>Node60&#45;&gt;Node13</title>
<path fill="none" stroke="#191970" d="M2242.5328,-302.3316C2244.2375,-289.2256 2246.0238,-265.2484 2240,-246 2215.6751,-168.2724 2188.1258,-147.8594 2115,-112 2056.8134,-83.4665 1981.0079,-72.4935 1937.9032,-68.3755"/>
<polygon fill="#191970" stroke="#191970" points="1937.9495,-64.866 1927.6796,-67.4698 1937.3316,-71.8387 1937.9495,-64.866"/>
</g>
<!-- Node60&#45;&gt;Node29 -->
<g id="edge101" class="edge">
<title>Node60&#45;&gt;Node29</title>
<path fill="none" stroke="#191970" d="M2174.8387,-309.8296C2024.3217,-304.5716 1658.9897,-289.9197 1516.4298,-265.5548"/>
<polygon fill="#191970" stroke="#191970" points="1517.0174,-262.1045 1506.5565,-263.7838 1515.7814,-268.9945 1517.0174,-262.1045"/>
</g>
<!-- Node60&#45;&gt;Node35 -->
<g id="edge114" class="edge">
<title>Node60&#45;&gt;Node35</title>
<path fill="none" stroke="#191970" d="M2239.5695,-302.0721C2237.3298,-288.6721 2232.1589,-264.3629 2222,-246 2202.6497,-211.0229 2197.5048,-197.3639 2162,-179 2092.8387,-143.2282 1861.0311,-131.9681 1760.3474,-128.7138"/>
<polygon fill="#191970" stroke="#191970" points="1760.2676,-125.2098 1750.1637,-128.3977 1760.0503,-132.2064 1760.2676,-125.2098"/>
</g>
<!-- Node61 -->
<g id="node43" class="node">
<title>Node61</title>
<polygon fill="#ffffff" stroke="#bfbfbf" points="2307.5,-246.5 2307.5,-265.5 2372.5,-265.5 2372.5,-246.5 2307.5,-246.5"/>
<text text-anchor="middle" x="2340" y="-253.5" font-family="Helvetica,sans-Serif" font-size="10.00" fill="#000000">stdexcept</text>
</g>
<!-- Node60&#45;&gt;Node61 -->
<g id="edge98" class="edge">
<title>Node60&#45;&gt;Node61</title>
<path fill="none" stroke="#191970" d="M2258.2445,-302.2455C2273.5761,-293.5731 2296.2199,-280.7645 2313.7916,-270.825"/>
<polygon fill="#191970" stroke="#191970" points="2315.9724,-273.6126 2322.9531,-265.6427 2312.5259,-267.5198 2315.9724,-273.6126"/>
</g>
<!-- Node62 -->
<g id="node44" class="node">
<title>Node62</title>
<polygon fill="#ffffff" stroke="#bfbfbf" points="2366.5,-185 2366.5,-204 2435.5,-204 2435.5,-185 2366.5,-185"/>
<text text-anchor="middle" x="2401" y="-192" font-family="Helvetica,sans-Serif" font-size="10.00" fill="#000000">type_traits</text>
</g>
<!-- Node60&#45;&gt;Node62 -->
<g id="edge100" class="edge">
<title>Node60&#45;&gt;Node62</title>
<path fill="none" stroke="#191970" d="M2285.2462,-302.432C2321.366,-293.7681 2368.5526,-280.2169 2382,-266 2395.068,-252.1841 2399.3755,-230.4321 2400.6846,-214.5455"/>
<polygon fill="#191970" stroke="#191970" points="2404.1973,-214.3707 2401.1904,-204.2116 2397.2057,-214.0285 2404.1973,-214.3707"/>
</g>
<!-- Node63 -->
<g id="node45" class="node">
<title>Node63</title>
<g id="a_node45"><a xlink:href="M2N_8hpp.html" target="_top" xlink:title="m2n/M2N.hpp">
<polygon fill="#ffffff" stroke="#ff0000" points="2129,-246.5 2129,-265.5 2213,-265.5 2213,-246.5 2129,-246.5"/>
<text text-anchor="middle" x="2171" y="-253.5" font-family="Helvetica,sans-Serif" font-size="10.00" fill="#000000">m2n/M2N.hpp</text>
</a>
</g>
</g>
<!-- Node60&#45;&gt;Node63 -->
<g id="edge103" class="edge">
<title>Node60&#45;&gt;Node63</title>
<path fill="none" stroke="#191970" d="M2228.8069,-302.2455C2218.3679,-293.8943 2203.1345,-281.7076 2190.926,-271.9408"/>
<polygon fill="#191970" stroke="#191970" points="2193.0485,-269.1566 2183.0533,-265.6427 2188.6756,-274.6227 2193.0485,-269.1566"/>
</g>
<!-- Node66 -->
<g id="node46" class="node">
<title>Node66</title>
<g id="a_node46"><a xlink:href="m2n_2SharedPointer_8hpp.html" target="_top" xlink:title="SharedPointer.hpp">
<polygon fill="#ffffff" stroke="#000000" points="2014.5,-185 2014.5,-204 2119.5,-204 2119.5,-185 2014.5,-185"/>
<text text-anchor="middle" x="2067" y="-192" font-family="Helvetica,sans-Serif" font-size="10.00" fill="#000000">SharedPointer.hpp</text>
</a>
</g>
</g>
<!-- Node60&#45;&gt;Node66 -->
<g id="edge113" class="edge">
<title>Node60&#45;&gt;Node66</title>
<path fill="none" stroke="#191970" d="M2199.13,-302.4387C2174.3679,-295.3125 2143.3814,-283.7047 2120,-266 2101.2297,-251.7868 2086.0272,-229.1624 2076.7953,-213.1751"/>
<polygon fill="#191970" stroke="#191970" points="2079.7419,-211.2709 2071.8402,-204.213 2073.6159,-214.658 2079.7419,-211.2709"/>
</g>
<!-- Node63&#45;&gt;Node3 -->
<g id="edge105" class="edge">
<title>Node63&#45;&gt;Node3</title>
<path fill="none" stroke="#191970" d="M2175.2577,-246.3556C2181.2251,-231.3654 2190.3547,-201.8265 2181,-179 2165.1495,-140.3229 2150.6596,-133.8072 2115,-112 2044.2475,-68.7322 2017.9622,-73.9762 1937,-56 1827.1661,-31.6133 1694.6545,-18.4041 1630.1305,-12.9865"/>
<polygon fill="#191970" stroke="#191970" points="1630.2554,-9.485 1620.0021,-12.1536 1629.6816,-16.4615 1630.2554,-9.485"/>
</g>
<!-- Node63&#45;&gt;Node11 -->
<g id="edge104" class="edge">
<title>Node63&#45;&gt;Node11</title>
<path fill="none" stroke="#191970" d="M2128.8015,-246.9324C2094.9567,-239.0227 2046.5745,-226.2704 2006,-210 2004.9668,-209.5857 2003.9227,-209.1445 2002.8754,-208.6831"/>
<polygon fill="#191970" stroke="#191970" points="2004.0932,-205.3834 1993.5697,-204.1563 2001.0311,-211.6781 2004.0932,-205.3834"/>
</g>
<!-- Node63&#45;&gt;Node12 -->
<g id="edge106" class="edge">
<title>Node63&#45;&gt;Node12</title>
<path fill="none" stroke="#191970" d="M2193.8286,-246.4714C2208.9647,-238.8979 2227.8446,-226.7783 2238,-210 2272.9549,-152.2491 2268.8412,-67.8781 2264.7027,-29.8664"/>
<polygon fill="#191970" stroke="#191970" points="2268.1408,-29.1439 2263.4608,-19.6388 2261.1918,-29.9878 2268.1408,-29.1439"/>
</g>
<!-- Node63&#45;&gt;Node13 -->
<g id="edge108" class="edge">
<title>Node63&#45;&gt;Node13</title>
<path fill="none" stroke="#191970" d="M2172.6899,-246.3904C2174.8957,-230.6519 2176.8932,-199.1218 2162,-179 2107.4768,-105.3349 1994.5026,-78.9653 1937.8868,-70.1237"/>
<polygon fill="#191970" stroke="#191970" points="1938.0756,-66.614 1927.6733,-68.6246 1937.059,-73.5398 1938.0756,-66.614"/>
</g>
<!-- Node63&#45;&gt;Node14 -->
<g id="edge111" class="edge">
<title>Node63&#45;&gt;Node14</title>
<path fill="none" stroke="#191970" d="M2168.9072,-246.4206C2164.6577,-229.5229 2153.2857,-194.7247 2129,-179 2042.5598,-123.031 1764.4892,-176.1707 1667,-143 1628.1559,-129.7833 1589.5563,-100.8297 1567.5567,-82.4353"/>
<polygon fill="#191970" stroke="#191970" points="1569.5872,-79.5666 1559.7115,-75.7297 1565.039,-84.8877 1569.5872,-79.5666"/>
</g>
<!-- Node63&#45;&gt;Node42 -->
<g id="edge112" class="edge">
<title>Node63&#45;&gt;Node42</title>
<path fill="none" stroke="#191970" d="M2128.6342,-253.5929C2087.5769,-251.3358 2023.5386,-248.0151 1968,-246 1282.0426,-221.1118 1109.9819,-234.2021 424,-210 338.4193,-206.9806 240.3403,-202.1679 173.8959,-198.706"/>
<polygon fill="#191970" stroke="#191970" points="173.6797,-195.19 163.5104,-198.1625 173.3138,-202.1805 173.6797,-195.19"/>
</g>
<!-- Node63&#45;&gt;Node62 -->
<g id="edge107" class="edge">
<title>Node63&#45;&gt;Node62</title>
<path fill="none" stroke="#191970" d="M2206.6851,-246.4581C2247.0705,-235.6594 2312.9,-218.0572 2356.5795,-206.3777"/>
<polygon fill="#191970" stroke="#191970" points="2357.6045,-209.7266 2366.361,-203.7622 2355.7962,-202.9642 2357.6045,-209.7266"/>
</g>
<!-- Node63&#45;&gt;Node66 -->
<g id="edge109" class="edge">
<title>Node63&#45;&gt;Node66</title>
<path fill="none" stroke="#191970" d="M2154.75,-246.3906C2137.8831,-236.4165 2111.2901,-220.6908 2091.7965,-209.1633"/>
<polygon fill="#191970" stroke="#191970" points="2093.5251,-206.1194 2083.1359,-204.0419 2089.962,-212.1447 2093.5251,-206.1194"/>
</g>
<!-- Node66&#45;&gt;Node3 -->
<g id="edge110" class="edge">
<title>Node66&#45;&gt;Node3</title>
<path fill="none" stroke="#191970" d="M2032.4239,-184.9542C2023.5388,-182.7502 2013.9582,-180.5889 2005,-179 1930.6249,-165.8081 1730.2293,-184.3247 1667,-143 1656.2615,-135.9816 1618.5352,-63.986 1600.6043,-28.9499"/>
<polygon fill="#191970" stroke="#191970" points="1603.5766,-27.0738 1595.918,-19.7529 1597.3396,-30.2519 1603.5766,-27.0738"/>
</g>
<!-- Node68&#45;&gt;Node1 -->
<g id="edge116" class="edge">
<title>Node68&#45;&gt;Node1</title>
<path fill="none" stroke="#191970" d="M1645.9618,-358.4385C1621.2509,-344.11 1572.0033,-317.1377 1527,-302 1448.4334,-275.5726 1424.8179,-284.4277 1344,-266 1309.527,-258.1396 1301.4214,-254.0834 1267,-246 1197.2766,-229.6265 1115.8049,-212.9942 1066.596,-203.2201"/>
<polygon fill="#191970" stroke="#191970" points="1067.0903,-199.7501 1056.6009,-201.241 1065.7306,-206.6168 1067.0903,-199.7501"/>
</g>
<!-- Node68&#45;&gt;Node12 -->
<g id="edge118" class="edge">
<title>Node68&#45;&gt;Node12</title>
<path fill="none" stroke="#191970" d="M1716.6191,-366.4615C1870.0983,-361.8475 2297.8591,-346.8862 2356,-322 2449.0326,-282.1789 2497.2445,-198.057 2444,-112 2410.3725,-57.6492 2336.6363,-29.7639 2294.0581,-17.6819"/>
<polygon fill="#191970" stroke="#191970" points="2294.7689,-14.2483 2284.2015,-15.0096 2292.9372,-21.0044 2294.7689,-14.2483"/>
</g>
<!-- Node68&#45;&gt;Node30 -->
<g id="edge120" class="edge">
<title>Node68&#45;&gt;Node30</title>
<path fill="none" stroke="#191970" d="M1641.5457,-358.3905C1608.4443,-343.3466 1540.7081,-314.6484 1480,-302 1355.3118,-276.0215 977.8144,-262.5116 820.2564,-257.8807"/>
<polygon fill="#191970" stroke="#191970" points="820.2989,-254.3806 810.2014,-257.5885 820.0955,-261.3776 820.2989,-254.3806"/>
</g>
<!-- Node68&#45;&gt;Node46 -->
<g id="edge125" class="edge">
<title>Node68&#45;&gt;Node46</title>
<path fill="none" stroke="#191970" d="M1616.5752,-358.4369C1570.7645,-348.7925 1500.0002,-333.8948 1451.0325,-323.5858"/>
<polygon fill="#191970" stroke="#191970" points="1451.744,-320.1589 1441.2374,-321.5237 1450.3019,-327.0088 1451.744,-320.1589"/>
</g>
<!-- Node68&#45;&gt;Node60 -->
<g id="edge124" class="edge">
<title>Node68&#45;&gt;Node60</title>
<path fill="none" stroke="#191970" d="M1716.7317,-362.7064C1820.5451,-352.6658 2046.249,-330.836 2164.791,-319.3708"/>
<polygon fill="#191970" stroke="#191970" points="2165.2606,-322.8418 2174.8772,-318.3953 2164.5867,-315.8743 2165.2606,-322.8418"/>
</g>
<!-- Node68&#45;&gt;Node62 -->
<g id="edge119" class="edge">
<title>Node68&#45;&gt;Node62</title>
<path fill="none" stroke="#191970" d="M1716.7065,-365.745C1863.7109,-359.4613 2259.9708,-340.9655 2316,-322 2358.8512,-307.4952 2379.5448,-305.8283 2401,-266 2409.527,-250.1709 2408.405,-229.3649 2405.8229,-214.2812"/>
<polygon fill="#191970" stroke="#191970" points="2409.2461,-213.5512 2403.8018,-204.4622 2402.3898,-214.9625 2409.2461,-213.5512"/>
</g>
<!-- Node69 -->
<g id="node48" class="node">
<title>Node69</title>
<polygon fill="#ffffff" stroke="#bfbfbf" points="1789,-302.5 1789,-321.5 1921,-321.5 1921,-302.5 1789,-302.5"/>
<text text-anchor="middle" x="1855" y="-309.5" font-family="Helvetica,sans-Serif" font-size="10.00" fill="#000000">boost/test/unit_test.hpp</text>
</g>
<!-- Node68&#45;&gt;Node69 -->
<g id="edge117" class="edge">
<title>Node68&#45;&gt;Node69</title>
<path fill="none" stroke="#191970" d="M1695.1779,-358.3733C1727.5487,-348.9807 1776.9398,-334.6496 1812.2424,-324.4064"/>
<polygon fill="#191970" stroke="#191970" points="1813.6265,-327.6492 1822.2551,-321.5011 1811.6758,-320.9264 1813.6265,-327.6492"/>
</g>
<!-- Node70 -->
<g id="node49" class="node">
<title>Node70</title>
<g id="a_node49"><a xlink:href="math_8hpp.html" target="_top" xlink:title="math/math.hpp">
<polygon fill="#ffffff" stroke="#ff0000" points="1603,-302.5 1603,-321.5 1695,-321.5 1695,-302.5 1603,-302.5"/>
<text text-anchor="middle" x="1649" y="-309.5" font-family="Helvetica,sans-Serif" font-size="10.00" fill="#000000">math/math.hpp</text>
</a>
</g>
</g>
<!-- Node68&#45;&gt;Node70 -->
<g id="edge121" class="edge">
<title>Node68&#45;&gt;Node70</title>
<path fill="none" stroke="#191970" d="M1659.7356,-358.2455C1658.0206,-350.8579 1655.6088,-340.4689 1653.5056,-331.4087"/>
<polygon fill="#191970" stroke="#191970" points="1656.9092,-330.5922 1651.2385,-321.6427 1650.0905,-332.1751 1656.9092,-330.5922"/>
</g>
<!-- Node72 -->
<g id="node50" class="node">
<title>Node72</title>
<g id="a_node50"><a xlink:href="MasterSlave_8hpp.html" target="_top" xlink:title="utils/MasterSlave.hpp">
<polygon fill="#ffffff" stroke="#ff0000" points="1525,-246.5 1525,-265.5 1647,-265.5 1647,-246.5 1525,-246.5"/>
<text text-anchor="middle" x="1586" y="-253.5" font-family="Helvetica,sans-Serif" font-size="10.00" fill="#000000">utils/MasterSlave.hpp</text>
</a>
</g>
</g>
<!-- Node68&#45;&gt;Node72 -->
<g id="edge126" class="edge">
<title>Node68&#45;&gt;Node72</title>
<path fill="none" stroke="#191970" d="M1675.6928,-358.4741C1692.5785,-345.5295 1717.4881,-321.7348 1704,-302 1695.4448,-289.4827 1661.8624,-277.1021 1632.7004,-268.3437"/>
<polygon fill="#191970" stroke="#191970" points="1633.603,-264.9611 1623.0228,-265.5173 1631.6406,-271.6804 1633.603,-264.9611"/>
</g>
<!-- Node70&#45;&gt;Node30 -->
<g id="edge123" class="edge">
<title>Node70&#45;&gt;Node30</title>
<path fill="none" stroke="#191970" d="M1602.7445,-308.4469C1576.4399,-306.4645 1542.8819,-303.9993 1513,-302 1258.1306,-284.9477 955.1716,-267.5325 820.5295,-259.9406"/>
<polygon fill="#191970" stroke="#191970" points="820.534,-256.4354 810.3529,-259.3675 820.1403,-263.4244 820.534,-256.4354"/>
</g>
<!-- Node70&#45;&gt;Node57 -->
<g id="edge122" class="edge">
<title>Node70&#45;&gt;Node57</title>
<path fill="none" stroke="#191970" d="M1692.2048,-302.4369C1735.5947,-292.8328 1802.5209,-278.0191 1849.0726,-267.7152"/>
<polygon fill="#191970" stroke="#191970" points="1849.9662,-271.1022 1858.9734,-265.5237 1848.4533,-264.2676 1849.9662,-271.1022"/>
</g>
<!-- Node72&#45;&gt;Node1 -->
<g id="edge127" class="edge">
<title>Node72&#45;&gt;Node1</title>
<path fill="none" stroke="#191970" d="M1524.9348,-247.137C1521.9151,-246.7425 1518.9241,-246.3611 1516,-246 1350.7066,-225.5848 1153.6272,-206.6592 1066.8191,-198.5968"/>
<polygon fill="#191970" stroke="#191970" points="1067.0691,-195.1051 1056.789,-197.6681 1066.4237,-202.0753 1067.0691,-195.1051"/>
</g>
<!-- Node72&#45;&gt;Node14 -->
<g id="edge128" class="edge">
<title>Node72&#45;&gt;Node14</title>
<path fill="none" stroke="#191970" d="M1572.9994,-246.4436C1562.3822,-237.9848 1547.7499,-224.7223 1539,-210 1523.1864,-183.3926 1524.2628,-173.657 1520,-143 1518.1025,-129.3535 1516.1759,-125.2364 1520,-112 1522.8938,-101.9836 1528.6878,-92.0485 1534.3413,-83.9887"/>
<polygon fill="#191970" stroke="#191970" points="1537.2979,-85.88 1540.5023,-75.7814 1531.6997,-81.6776 1537.2979,-85.88"/>
</g>
</g>
</svg>
        <g id="navigator" transform="translate(0 0)" fill="#404254">
                <rect fill="#f2f5e9" fill-opacity="0.5" stroke="#606060" stroke-width=".5" x="0" y="0" width="60" height="60"/>
                <use id="zoomplus" xlink:href="#zoomPlus" x="17" y="9" onmousedown="handleZoom(evt,'in')"/>
                <use id="zoomminus" xlink:href="#zoomMin" x="42" y="9" onmousedown="handleZoom(evt,'out')"/>
                <use id="reset" xlink:href="#resetDef" x="30" y="36" onmousedown="handleReset()"/>
                <g id="arrowUp" xlink:href="#dirArrow" transform="translate(30 24)" onmousedown="handlePan(0,-1)">
                  <use xlink:href="#rim" fill="#404040">
                        <set attributeName="fill" to="#808080" begin="arrowUp.mouseover" end="arrowUp.mouseout"/>
                  </use>
                  <path fill="none" stroke="white" stroke-width="1.5" d="M0,-3.0v7 M-2.5,-0.5L0,-3.0L2.5,-0.5"/>
                </g>
                <g id="arrowRight" xlink:href="#dirArrow" transform="rotate(90) translate(36 -43)" onmousedown="handlePan(1,0)">
                  <use xlink:href="#rim" fill="#404040">
                        <set attributeName="fill" to="#808080" begin="arrowRight.mouseover" end="arrowRight.mouseout"/>
                  </use>
                  <path fill="none" stroke="white" stroke-width="1.5" d="M0,-3.0v7 M-2.5,-0.5L0,-3.0L2.5,-0.5"/>
                </g>
                <g id="arrowDown" xlink:href="#dirArrow" transform="rotate(180) translate(-30 -48)" onmousedown="handlePan(0,1)">
                  <use xlink:href="#rim" fill="#404040">
                        <set attributeName="fill" to="#808080" begin="arrowDown.mouseover" end="arrowDown.mouseout"/>
                  </use>
                  <path fill="none" stroke="white" stroke-width="1.5" d="M0,-3.0v7 M-2.5,-0.5L0,-3.0L2.5,-0.5"/>
                </g>
                <g id="arrowLeft" xlink:href="#dirArrow" transform="rotate(270) translate(-36 17)" onmousedown="handlePan(-1,0)">
                  <use xlink:href="#rim" fill="#404040">
                        <set attributeName="fill" to="#808080" begin="arrowLeft.mouseover" end="arrowLeft.mouseout"/>
                  </use>
                  <path fill="none" stroke="white" stroke-width="1.5" d="M0,-3.0v7 M-2.5,-0.5L0,-3.0L2.5,-0.5"/>
                </g>
        </g>
        <svg viewBox="0 0 15 15" width="100%" height="30px" preserveAspectRatio="xMaxYMin meet">
         <g id="arrow_out" transform="scale(0.3 0.3)">
          <a xlink:href="NearestProjectionMappingTest_8cpp__incl_org.svg" target="_base">
           <rect id="button" ry="5" rx="5" y="6" x="6" height="38" width="38"
                fill="#f2f5e9" fill-opacity="0.5" stroke="#606060" stroke-width="1.0"/>
           <path id="arrow"
             d="M 11.500037,31.436501 C 11.940474,20.09759 22.043105,11.32322 32.158766,21.979434 L 37.068811,17.246167 C 37.068811,17.246167 37.088388,32 37.088388,32 L 22.160133,31.978069 C 22.160133,31.978069 26.997745,27.140456 26.997745,27.140456 C 18.528582,18.264221 13.291696,25.230495 11.500037,31.436501 z"
             style="fill:#404040;"/>
          </a>
         </g>
        </svg>
</svg>
