<?xml version="1.0" encoding="UTF-8" standalone="no"?>
<!DOCTYPE svg PUBLIC "-//W3C//DTD SVG 1.1//EN"
 "http://www.w3.org/Graphics/SVG/1.1/DTD/svg11.dtd">
<!-- Generated by graphviz version 2.40.1 (20161225.0304)
 -->
<!-- Title: BOOST_AUTO_TEST_CASE Pages: 1 -->
<svg width="762pt" height="652pt"
 viewBox="0.00 0.00 762.00 652.00" xmlns="http://www.w3.org/2000/svg" xmlns:xlink="http://www.w3.org/1999/xlink">
<g id="graph0" class="graph" transform="scale(1 1) rotate(0) translate(4 648)">
<title>BOOST_AUTO_TEST_CASE</title>
<polygon fill="#ffffff" stroke="transparent" points="-4,4 -4,-648 758,-648 758,4 -4,4"/>
<!-- Node0 -->
<g id="node1" class="node">
<title>Node0</title>
<polygon fill="#bfbfbf" stroke="#000000" points="0,-389 0,-408 143,-408 143,-389 0,-389"/>
<text text-anchor="middle" x="71.5" y="-396" font-family="Helvetica,sans-Serif" font-size="10.00" fill="#000000">BOOST_AUTO_TEST_CASE</text>
</g>
<!-- Node1 -->
<g id="node2" class="node">
<title>Node1</title>
<g id="a_node2"><a xlink:href="namespaceprecice_1_1testing.html#a08533fd83bad3d7f27ea7f4a35a14aa4" target="_top" xlink:title="precice::testing::nextMeshID">
<polygon fill="#ffffff" stroke="#000000" points="200,-564 200,-583 355,-583 355,-564 200,-564"/>
<text text-anchor="middle" x="277.5" y="-571" font-family="Helvetica,sans-Serif" font-size="10.00" fill="#000000">precice::testing::nextMeshID</text>
</a>
</g>
</g>
<!-- Node0&#45;&gt;Node1 -->
<g id="edge1" class="edge">
<title>Node0&#45;&gt;Node1</title>
<path fill="none" stroke="#191970" d="M82.0159,-408.2275C101.0744,-425.7809 142.7138,-463.7835 179,-494.5 205.526,-516.9544 236.9743,-541.8955 257.075,-557.6315"/>
<polygon fill="#191970" stroke="#191970" points="255.1641,-560.58 265.2003,-563.9748 259.4717,-555.0622 255.1641,-560.58"/>
</g>
<!-- Node3 -->
<g id="node4" class="node">
<title>Node3</title>
<g id="a_node4"><a xlink:href="classprecice_1_1mapping_1_1Mapping.html#a5bf2ecf9adb1ae66977c1223f841a61f" target="_top" xlink:title="Sets input and output meshes carrying data to be mapped. ">
<polygon fill="#ffffff" stroke="#000000" points="417,-525.5 417,-555.5 565,-555.5 565,-525.5 417,-525.5"/>
<text text-anchor="start" x="425" y="-543.5" font-family="Helvetica,sans-Serif" font-size="10.00" fill="#000000">precice::mapping::Mapping</text>
<text text-anchor="middle" x="491" y="-532.5" font-family="Helvetica,sans-Serif" font-size="10.00" fill="#000000">::setMeshes</text>
</a>
</g>
</g>
<!-- Node0&#45;&gt;Node3 -->
<g id="edge3" class="edge">
<title>Node0&#45;&gt;Node3</title>
<path fill="none" stroke="#191970" d="M99.676,-408.0375C168.625,-431.3766 346.7729,-491.6794 436.9709,-522.2113"/>
<polygon fill="#191970" stroke="#191970" points="435.8765,-525.5358 446.4708,-525.4269 438.1209,-518.9054 435.8765,-525.5358"/>
</g>
<!-- Node6 -->
<g id="node7" class="node">
<title>Node6</title>
<g id="a_node7"><a xlink:href="classprecice_1_1mapping_1_1NearestProjectionMapping.html#ac68a625b7801db678418f9ae4cd5acb2" target="_top" xlink:title="Computes the projections and interpolation relations. ">
<polygon fill="#ffffff" stroke="#000000" points="179,-191.5 179,-221.5 376,-221.5 376,-191.5 179,-191.5"/>
<text text-anchor="start" x="187" y="-209.5" font-family="Helvetica,sans-Serif" font-size="10.00" fill="#000000">precice::mapping::Nearest</text>
<text text-anchor="middle" x="277.5" y="-198.5" font-family="Helvetica,sans-Serif" font-size="10.00" fill="#000000">ProjectionMapping::computeMapping</text>
</a>
</g>
</g>
<!-- Node0&#45;&gt;Node6 -->
<g id="edge6" class="edge">
<title>Node0&#45;&gt;Node6</title>
<path fill="none" stroke="#191970" d="M81.7156,-388.9787C113.116,-359.7123 208.8027,-270.5286 253.7296,-228.6549"/>
<polygon fill="#191970" stroke="#191970" points="256.3192,-231.0258 261.2482,-221.6473 251.5465,-225.9051 256.3192,-231.0258"/>
</g>
<!-- Node15 -->
<g id="node16" class="node">
<title>Node15</title>
<g id="a_node16"><a xlink:href="classprecice_1_1mapping_1_1NearestProjectionMapping.html#a5cf6fa54acfcf2e3f3cd8e086af121e0" target="_top" xlink:title="Uses projection and interpolation relations to map data values. ">
<polygon fill="#ffffff" stroke="#000000" points="205,-361.5 205,-391.5 350,-391.5 350,-361.5 205,-361.5"/>
<text text-anchor="start" x="213" y="-379.5" font-family="Helvetica,sans-Serif" font-size="10.00" fill="#000000">precice::mapping::Nearest</text>
<text text-anchor="middle" x="277.5" y="-368.5" font-family="Helvetica,sans-Serif" font-size="10.00" fill="#000000">ProjectionMapping::map</text>
</a>
</g>
</g>
<!-- Node0&#45;&gt;Node15 -->
<g id="edge19" class="edge">
<title>Node0&#45;&gt;Node15</title>
<path fill="none" stroke="#191970" d="M143.2596,-390.8364C159.9549,-389.0534 177.8598,-387.1412 194.9782,-385.313"/>
<polygon fill="#191970" stroke="#191970" points="195.3796,-388.7901 204.9513,-384.2479 194.6362,-381.8297 195.3796,-388.7901"/>
</g>
<!-- Node2 -->
<g id="node3" class="node">
<title>Node2</title>
<g id="a_node3"><a xlink:href="classprecice_1_1utils_1_1ManageUniqueIDs.html#a02be264c279698ae293587b6576088b5" target="_top" xlink:title="precice::utils::ManageUnique\lIDs::getFreeID">
<polygon fill="#ffffff" stroke="#000000" points="412,-613.5 412,-643.5 570,-643.5 570,-613.5 412,-613.5"/>
<text text-anchor="start" x="420" y="-631.5" font-family="Helvetica,sans-Serif" font-size="10.00" fill="#000000">precice::utils::ManageUnique</text>
<text text-anchor="middle" x="491" y="-620.5" font-family="Helvetica,sans-Serif" font-size="10.00" fill="#000000">IDs::getFreeID</text>
</a>
</g>
</g>
<!-- Node1&#45;&gt;Node2 -->
<g id="edge2" class="edge">
<title>Node1&#45;&gt;Node2</title>
<path fill="none" stroke="#191970" d="M314.6889,-583.0803C344.3923,-590.7322 386.8228,-601.6628 422.6157,-610.8834"/>
<polygon fill="#191970" stroke="#191970" points="421.962,-614.3293 432.519,-613.4346 423.7084,-607.5506 421.962,-614.3293"/>
</g>
<!-- Node4 -->
<g id="node5" class="node">
<title>Node4</title>
<g id="a_node5"><a xlink:href="classprecice_1_1mapping_1_1Mapping.html#a61c3c55af467ada2bdd735efa0f960e4" target="_top" xlink:title="Returns pointer to input mesh. ">
<polygon fill="#ffffff" stroke="#000000" points="606,-525.5 606,-555.5 754,-555.5 754,-525.5 606,-525.5"/>
<text text-anchor="start" x="614" y="-543.5" font-family="Helvetica,sans-Serif" font-size="10.00" fill="#000000">precice::mapping::Mapping</text>
<text text-anchor="middle" x="680" y="-532.5" font-family="Helvetica,sans-Serif" font-size="10.00" fill="#000000">::input</text>
</a>
</g>
</g>
<!-- Node3&#45;&gt;Node4 -->
<g id="edge4" class="edge">
<title>Node3&#45;&gt;Node4</title>
<path fill="none" stroke="#191970" d="M565.1554,-540.5C575.1609,-540.5 585.4859,-540.5 595.6524,-540.5"/>
<polygon fill="#191970" stroke="#191970" points="595.7483,-544.0001 605.7483,-540.5 595.7482,-537.0001 595.7483,-544.0001"/>
</g>
<!-- Node5 -->
<g id="node6" class="node">
<title>Node5</title>
<g id="a_node6"><a xlink:href="classprecice_1_1mapping_1_1Mapping.html#a07a71a54b71eda6d54510c94fb188e70" target="_top" xlink:title="Returns pointer to output mesh. ">
<polygon fill="#ffffff" stroke="#000000" points="606,-476.5 606,-506.5 754,-506.5 754,-476.5 606,-476.5"/>
<text text-anchor="start" x="614" y="-494.5" font-family="Helvetica,sans-Serif" font-size="10.00" fill="#000000">precice::mapping::Mapping</text>
<text text-anchor="middle" x="680" y="-483.5" font-family="Helvetica,sans-Serif" font-size="10.00" fill="#000000">::output</text>
</a>
</g>
</g>
<!-- Node3&#45;&gt;Node5 -->
<g id="edge5" class="edge">
<title>Node3&#45;&gt;Node5</title>
<path fill="none" stroke="#191970" d="M548.9907,-525.4654C569.0371,-520.2682 591.6738,-514.3994 612.4214,-509.0204"/>
<polygon fill="#191970" stroke="#191970" points="613.3174,-512.4039 622.119,-506.5062 611.5606,-505.6279 613.3174,-512.4039"/>
</g>
<!-- Node6&#45;&gt;Node4 -->
<g id="edge7" class="edge">
<title>Node6&#45;&gt;Node4</title>
<path fill="none" stroke="#191970" d="M289.1442,-221.6612C308.6864,-247.5357 348.6275,-302.2999 376,-352.5 395.4446,-388.1607 383.0821,-407.9775 412,-436.5 441.8029,-465.8955 547.6224,-501.4227 617.0384,-522.4237"/>
<polygon fill="#191970" stroke="#191970" points="616.4185,-525.8919 627.0025,-525.4144 618.4308,-519.1873 616.4185,-525.8919"/>
</g>
<!-- Node6&#45;&gt;Node5 -->
<g id="edge8" class="edge">
<title>Node6&#45;&gt;Node5</title>
<path fill="none" stroke="#191970" d="M287.6599,-221.5222C318.2326,-266.6879 407.5535,-398.35 412,-401.5 471.385,-443.5692 503.4636,-415.0162 570,-444.5 587.3587,-452.1921 588.8305,-459.3944 606,-467.5 610.0247,-469.4 614.2394,-471.2086 618.5285,-472.9177"/>
<polygon fill="#191970" stroke="#191970" points="617.4006,-476.233 627.9921,-476.4974 619.8772,-469.6858 617.4006,-476.233"/>
</g>
<!-- Node7 -->
<g id="node8" class="node">
<title>Node7</title>
<g id="a_node8"><a xlink:href="classprecice_1_1mapping_1_1Mapping.html#aeea2d39f5e6ce0eaa97ebe436ff89991" target="_top" xlink:title="Checks whether the mapping has the given constraint or not. ">
<polygon fill="#ffffff" stroke="#000000" points="417,-235.5 417,-265.5 565,-265.5 565,-235.5 417,-235.5"/>
<text text-anchor="start" x="425" y="-253.5" font-family="Helvetica,sans-Serif" font-size="10.00" fill="#000000">precice::mapping::Mapping</text>
<text text-anchor="middle" x="491" y="-242.5" font-family="Helvetica,sans-Serif" font-size="10.00" fill="#000000">::hasConstraint</text>
</a>
</g>
</g>
<!-- Node6&#45;&gt;Node7 -->
<g id="edge9" class="edge">
<title>Node6&#45;&gt;Node7</title>
<path fill="none" stroke="#191970" d="M350.3774,-221.5192C368.9966,-225.3564 389.1495,-229.5097 408.2253,-233.4411"/>
<polygon fill="#191970" stroke="#191970" points="407.5881,-236.8832 418.0888,-235.4738 409.0011,-230.0273 407.5881,-236.8832"/>
</g>
<!-- Node9 -->
<g id="node10" class="node">
<title>Node9</title>
<g id="a_node10"><a xlink:href="classprecice_1_1mapping_1_1Mapping.html#a393912fe4919edd098e96f66ffbe0d52" target="_top" xlink:title="precice::mapping::Mapping\l::getDimensions">
<polygon fill="#ffffff" stroke="#000000" points="606,-191.5 606,-221.5 754,-221.5 754,-191.5 606,-191.5"/>
<text text-anchor="start" x="614" y="-209.5" font-family="Helvetica,sans-Serif" font-size="10.00" fill="#000000">precice::mapping::Mapping</text>
<text text-anchor="middle" x="680" y="-198.5" font-family="Helvetica,sans-Serif" font-size="10.00" fill="#000000">::getDimensions</text>
</a>
</g>
</g>
<!-- Node6&#45;&gt;Node9 -->
<g id="edge11" class="edge">
<title>Node6&#45;&gt;Node9</title>
<path fill="none" stroke="#191970" d="M376.2202,-206.5C443.6042,-206.5 531.9128,-206.5 595.9371,-206.5"/>
<polygon fill="#191970" stroke="#191970" points="595.9973,-210.0001 605.9972,-206.5 595.9972,-203.0001 595.9973,-210.0001"/>
</g>
<!-- Node10 -->
<g id="node11" class="node">
<title>Node10</title>
<g id="a_node11"><a xlink:href="classprecice_1_1query_1_1Index.html#aa59f088f155ac04036b622702544e21c" target="_top" xlink:title="Get n number of closest edges to the given vertex. ">
<polygon fill="#ffffff" stroke="#000000" points="432,-.5 432,-30.5 550,-30.5 550,-.5 432,-.5"/>
<text text-anchor="start" x="440" y="-18.5" font-family="Helvetica,sans-Serif" font-size="10.00" fill="#000000">precice::query::Index</text>
<text text-anchor="middle" x="491" y="-7.5" font-family="Helvetica,sans-Serif" font-size="10.00" fill="#000000">::getClosestEdges</text>
</a>
</g>
</g>
<!-- Node6&#45;&gt;Node10 -->
<g id="edge12" class="edge">
<title>Node6&#45;&gt;Node10</title>
<path fill="none" stroke="#191970" d="M285.6762,-191.0191C303.8601,-158.0895 350.9104,-80.7451 412,-39.5 415.3134,-37.2629 418.8426,-35.2284 422.5011,-33.3789"/>
<polygon fill="#191970" stroke="#191970" points="424.1532,-36.4728 431.8125,-29.1526 421.26,-30.0986 424.1532,-36.4728"/>
</g>
<!-- Node12 -->
<g id="node13" class="node">
<title>Node12</title>
<g id="a_node13"><a xlink:href="namespaceprecice_1_1query.html#af26087a458327ddbe22c10a6ee27dfd4" target="_top" xlink:title="Generates the InterpolationElements for directly projecting a Vertex on another Vertex. ">
<polygon fill="#ffffff" stroke="#000000" points="424,-147.5 424,-177.5 558,-177.5 558,-147.5 424,-147.5"/>
<text text-anchor="start" x="432" y="-165.5" font-family="Helvetica,sans-Serif" font-size="10.00" fill="#000000">precice::query::generate</text>
<text text-anchor="middle" x="491" y="-154.5" font-family="Helvetica,sans-Serif" font-size="10.00" fill="#000000">InterpolationElements</text>
</a>
</g>
</g>
<!-- Node6&#45;&gt;Node12 -->
<g id="edge14" class="edge">
<title>Node6&#45;&gt;Node12</title>
<path fill="none" stroke="#191970" d="M350.3774,-191.4808C370.8284,-187.266 393.1298,-182.67 413.8218,-178.4056"/>
<polygon fill="#191970" stroke="#191970" points="414.7476,-181.7884 423.8353,-176.3419 413.3346,-174.9325 414.7476,-181.7884"/>
</g>
<!-- Node13 -->
<g id="node14" class="node">
<title>Node13</title>
<g id="a_node14"><a xlink:href="classprecice_1_1query_1_1Index.html#a73907e53b52a1b774bef741de1d3a09a" target="_top" xlink:title="Get n number of closest vertices to the given vertex. ">
<polygon fill="#ffffff" stroke="#000000" points="432,-98.5 432,-128.5 550,-128.5 550,-98.5 432,-98.5"/>
<text text-anchor="start" x="440" y="-116.5" font-family="Helvetica,sans-Serif" font-size="10.00" fill="#000000">precice::query::Index</text>
<text text-anchor="middle" x="491" y="-105.5" font-family="Helvetica,sans-Serif" font-size="10.00" fill="#000000">::getClosestVertex</text>
</a>
</g>
</g>
<!-- Node6&#45;&gt;Node13 -->
<g id="edge15" class="edge">
<title>Node6&#45;&gt;Node13</title>
<path fill="none" stroke="#191970" d="M304.2054,-191.3777C330.9235,-176.6388 373.4784,-154.2127 412,-138.5 417.6819,-136.1824 423.6637,-133.943 429.6876,-131.8202"/>
<polygon fill="#191970" stroke="#191970" points="430.8208,-135.1317 439.1515,-128.5857 428.5569,-128.5079 430.8208,-135.1317"/>
</g>
<!-- Node14 -->
<g id="node15" class="node">
<title>Node14</title>
<g id="a_node15"><a xlink:href="classprecice_1_1query_1_1Index.html#a7db5e8ae3d9855930220aa2713220105" target="_top" xlink:title="Get n number of closest triangles to the given vertex. ">
<polygon fill="#ffffff" stroke="#000000" points="432,-49.5 432,-79.5 550,-79.5 550,-49.5 432,-49.5"/>
<text text-anchor="start" x="440" y="-67.5" font-family="Helvetica,sans-Serif" font-size="10.00" fill="#000000">precice::query::Index</text>
<text text-anchor="middle" x="491" y="-56.5" font-family="Helvetica,sans-Serif" font-size="10.00" fill="#000000">::getClosestTriangles</text>
</a>
</g>
</g>
<!-- Node6&#45;&gt;Node14 -->
<g id="edge17" class="edge">
<title>Node6&#45;&gt;Node14</title>
<path fill="none" stroke="#191970" d="M290.8432,-191.1558C313.3841,-166.1486 361.5054,-116.5818 412,-88.5 415.261,-86.6864 418.6757,-84.9935 422.179,-83.4155"/>
<polygon fill="#191970" stroke="#191970" points="423.7184,-86.5663 431.6151,-79.5028 421.0371,-80.1001 423.7184,-86.5663"/>
</g>
<!-- Node8 -->
<g id="node9" class="node">
<title>Node8</title>
<g id="a_node9"><a xlink:href="classprecice_1_1mapping_1_1Mapping.html#a6afbd9aaac2ab09b078db271cfd977a1" target="_top" xlink:title="Returns the constraint (consistent/conservative) of the mapping. ">
<polygon fill="#ffffff" stroke="#000000" points="606,-241.5 606,-271.5 754,-271.5 754,-241.5 606,-241.5"/>
<text text-anchor="start" x="614" y="-259.5" font-family="Helvetica,sans-Serif" font-size="10.00" fill="#000000">precice::mapping::Mapping</text>
<text text-anchor="middle" x="680" y="-248.5" font-family="Helvetica,sans-Serif" font-size="10.00" fill="#000000">::getConstraint</text>
</a>
</g>
</g>
<!-- Node7&#45;&gt;Node8 -->
<g id="edge10" class="edge">
<title>Node7&#45;&gt;Node8</title>
<path fill="none" stroke="#191970" d="M565.1554,-252.8541C575.1609,-253.1718 585.4859,-253.4996 595.6524,-253.8223"/>
<polygon fill="#191970" stroke="#191970" points="595.6422,-257.3236 605.7483,-254.1428 595.8644,-250.3272 595.6422,-257.3236"/>
</g>
<!-- Node11 -->
<g id="node12" class="node">
<title>Node11</title>
<g id="a_node12"><a xlink:href="classprecice_1_1query_1_1impl_1_1Indexer.html#a5f4415898dcb95c16b0aedf0c3e3168d" target="_top" xlink:title="precice::query::impl\l::Indexer::instance">
<polygon fill="#ffffff" stroke="#000000" points="623.5,-49.5 623.5,-79.5 736.5,-79.5 736.5,-49.5 623.5,-49.5"/>
<text text-anchor="start" x="631.5" y="-67.5" font-family="Helvetica,sans-Serif" font-size="10.00" fill="#000000">precice::query::impl</text>
<text text-anchor="middle" x="680" y="-56.5" font-family="Helvetica,sans-Serif" font-size="10.00" fill="#000000">::Indexer::instance</text>
</a>
</g>
</g>
<!-- Node10&#45;&gt;Node11 -->
<g id="edge13" class="edge">
<title>Node10&#45;&gt;Node11</title>
<path fill="none" stroke="#191970" d="M548.9907,-30.5346C569.4118,-35.829 592.5209,-41.8202 613.5828,-47.2807"/>
<polygon fill="#191970" stroke="#191970" points="612.8584,-50.7086 623.4168,-49.8303 614.6152,-43.9326 612.8584,-50.7086"/>
</g>
<!-- Node13&#45;&gt;Node11 -->
<g id="edge16" class="edge">
<title>Node13&#45;&gt;Node11</title>
<path fill="none" stroke="#191970" d="M548.9907,-98.4654C569.4118,-93.171 592.5209,-87.1798 613.5828,-81.7193"/>
<polygon fill="#191970" stroke="#191970" points="614.6152,-85.0674 623.4168,-79.1697 612.8584,-78.2914 614.6152,-85.0674"/>
</g>
<!-- Node14&#45;&gt;Node11 -->
<g id="edge18" class="edge">
<title>Node14&#45;&gt;Node11</title>
<path fill="none" stroke="#191970" d="M550.0234,-64.5C570.037,-64.5 592.5342,-64.5 613.1155,-64.5"/>
<polygon fill="#191970" stroke="#191970" points="613.3618,-68.0001 623.3618,-64.5 613.3618,-61.0001 613.3618,-68.0001"/>
</g>
<!-- Node15&#45;&gt;Node4 -->
<g id="edge20" class="edge">
<title>Node15&#45;&gt;Node4</title>
<path fill="none" stroke="#191970" d="M282.6508,-391.5088C296.516,-429.2259 338.6238,-527.6579 412,-565.5 482.9148,-602.0727 578.4562,-578.7369 634.2253,-559.1386"/>
<polygon fill="#191970" stroke="#191970" points="635.6152,-562.3577 643.8266,-555.6626 633.2323,-555.7758 635.6152,-562.3577"/>
</g>
<!-- Node15&#45;&gt;Node5 -->
<g id="edge22" class="edge">
<title>Node15&#45;&gt;Node5</title>
<path fill="none" stroke="#191970" d="M307.5583,-391.5043C334.393,-404.4016 375.0493,-422.7309 412,-434.5 472.3581,-453.7245 542.4403,-468.3722 595.7975,-478.0026"/>
<polygon fill="#191970" stroke="#191970" points="595.4396,-481.4939 605.8984,-479.802 596.6673,-474.6024 595.4396,-481.4939"/>
</g>
<!-- Node15&#45;&gt;Node7 -->
<g id="edge23" class="edge">
<title>Node15&#45;&gt;Node7</title>
<path fill="none" stroke="#191970" d="M295.653,-361.2145C320.6046,-340.766 367.483,-304.3256 412,-280.5 419.5305,-276.4696 427.7217,-272.7209 435.8835,-269.3341"/>
<polygon fill="#191970" stroke="#191970" points="437.4214,-272.4887 445.41,-265.5293 434.825,-265.988 437.4214,-272.4887"/>
</g>
<!-- Node15&#45;&gt;Node8 -->
<g id="edge24" class="edge">
<title>Node15&#45;&gt;Node8</title>
<path fill="none" stroke="#191970" d="M310.4233,-361.4111C337.3407,-349.4725 376.5979,-332.9598 412,-321.5 472.5504,-301.8996 542.4804,-285.1284 595.7221,-273.5332"/>
<polygon fill="#191970" stroke="#191970" points="596.7656,-276.8886 605.8013,-271.3564 595.2878,-270.0464 596.7656,-276.8886"/>
</g>
<!-- Node16 -->
<g id="node17" class="node">
<title>Node16</title>
<g id="a_node17"><a xlink:href="namespaceprecice_1_1utils_1_1petsc.html#a931b5a402aa2dec020afa7af6167d67e" target="_top" xlink:title="precice::utils::petsc\l::getName">
<polygon fill="#ffffff" stroke="#000000" points="624.5,-290.5 624.5,-320.5 735.5,-320.5 735.5,-290.5 624.5,-290.5"/>
<text text-anchor="start" x="632.5" y="-308.5" font-family="Helvetica,sans-Serif" font-size="10.00" fill="#000000">precice::utils::petsc</text>
<text text-anchor="middle" x="680" y="-297.5" font-family="Helvetica,sans-Serif" font-size="10.00" fill="#000000">::getName</text>
</a>
</g>
</g>
<!-- Node15&#45;&gt;Node16 -->
<g id="edge21" class="edge">
<title>Node15&#45;&gt;Node16</title>
<path fill="none" stroke="#191970" d="M350.088,-363.5068C370.1432,-359.928 391.9131,-356.0535 412,-352.5 480.9355,-340.3049 559.8713,-326.4784 614.1268,-316.9962"/>
<polygon fill="#191970" stroke="#191970" points="615.0519,-320.3877 624.3002,-315.2186 613.847,-313.4921 615.0519,-320.3877"/>
</g>
<!-- Node17 -->
<g id="node18" class="node">
<title>Node17</title>
<g id="a_node18"><a xlink:href="classprecice_1_1mapping_1_1Mapping.html#a1e001e2dd6f5fc0b7b1c48f56aad61d3" target="_top" xlink:title="Scales the consistently mapped output data such that the surface integral of the values on input mesh...">
<polygon fill="#ffffff" stroke="#000000" points="417,-361.5 417,-391.5 565,-391.5 565,-361.5 417,-361.5"/>
<text text-anchor="start" x="425" y="-379.5" font-family="Helvetica,sans-Serif" font-size="10.00" fill="#000000">precice::mapping::Mapping</text>
<text text-anchor="middle" x="491" y="-368.5" font-family="Helvetica,sans-Serif" font-size="10.00" fill="#000000">::scaleConsistentMapping</text>
</a>
</g>
</g>
<!-- Node15&#45;&gt;Node17 -->
<g id="edge25" class="edge">
<title>Node15&#45;&gt;Node17</title>
<path fill="none" stroke="#191970" d="M350.0793,-376.5C368.319,-376.5 388.0466,-376.5 406.8011,-376.5"/>
<polygon fill="#191970" stroke="#191970" points="406.8045,-380.0001 416.8044,-376.5 406.8044,-373.0001 406.8045,-380.0001"/>
</g>
<!-- Node17&#45;&gt;Node4 -->
<g id="edge28" class="edge">
<title>Node17&#45;&gt;Node4</title>
<path fill="none" stroke="#191970" d="M512.8779,-391.5724C530.0292,-404.2088 553.6508,-423.5154 570,-444.5 591.9883,-472.7226 578.877,-493.1689 606,-516.5 607.4975,-517.7881 609.0653,-519.0074 610.6907,-520.1615"/>
<polygon fill="#191970" stroke="#191970" points="608.8829,-523.1585 619.2367,-525.4056 612.544,-517.1922 608.8829,-523.1585"/>
</g>
<!-- Node17&#45;&gt;Node5 -->
<g id="edge31" class="edge">
<title>Node17&#45;&gt;Node5</title>
<path fill="none" stroke="#191970" d="M545.5405,-391.6017C554.293,-395.5487 562.8203,-400.4492 570,-406.5 594.0718,-426.787 581.4355,-447.8125 606,-467.5 607.7554,-468.9069 609.5956,-470.2323 611.5022,-471.4808"/>
<polygon fill="#191970" stroke="#191970" points="609.8122,-474.5463 620.2295,-476.4775 613.2902,-468.4714 609.8122,-474.5463"/>
</g>
<!-- Node17&#45;&gt;Node9 -->
<g id="edge29" class="edge">
<title>Node17&#45;&gt;Node9</title>
<path fill="none" stroke="#191970" d="M502.6887,-361.4098C530.6096,-325.4261 599.364,-237.2114 606,-232.5 609.2789,-230.172 612.7861,-228.0352 616.4252,-226.0763"/>
<polygon fill="#191970" stroke="#191970" points="618.2293,-229.0908 625.688,-221.5662 615.1649,-222.7971 618.2293,-229.0908"/>
</g>
<!-- Node17&#45;&gt;Node16 -->
<g id="edge30" class="edge">
<title>Node17&#45;&gt;Node16</title>
<path fill="none" stroke="#191970" d="M532.1719,-361.3576C544.4018,-356.7272 557.7906,-351.527 570,-346.5 586.1905,-339.8339 589.6886,-336.8644 606,-330.5 611.5842,-328.3212 617.4462,-326.1494 623.3236,-324.0472"/>
<polygon fill="#191970" stroke="#191970" points="624.9069,-327.2009 633.1831,-320.5862 622.5883,-320.596 624.9069,-327.2009"/>
</g>
<!-- Node18 -->
<g id="node19" class="node">
<title>Node18</title>
<g id="a_node19"><a xlink:href="classprecice_1_1utils_1_1MasterSlave.html#a5e934392c32335daa8e2b4a01bc75fd3" target="_top" xlink:title="True if this process is running the master. ">
<polygon fill="#ffffff" stroke="#000000" points="607.5,-427.5 607.5,-457.5 752.5,-457.5 752.5,-427.5 607.5,-427.5"/>
<text text-anchor="start" x="615.5" y="-445.5" font-family="Helvetica,sans-Serif" font-size="10.00" fill="#000000">precice::utils::MasterSlave</text>
<text text-anchor="middle" x="680" y="-434.5" font-family="Helvetica,sans-Serif" font-size="10.00" fill="#000000">::isMaster</text>
</a>
</g>
</g>
<!-- Node17&#45;&gt;Node18 -->
<g id="edge26" class="edge">
<title>Node17&#45;&gt;Node18</title>
<path fill="none" stroke="#191970" d="M531.0538,-391.5358C553.0982,-399.7082 580.9815,-409.8776 606,-418.5 611.4807,-420.3889 617.2037,-422.319 622.9339,-424.2235"/>
<polygon fill="#191970" stroke="#191970" points="621.9492,-427.5841 632.5424,-427.3926 624.1419,-420.9364 621.9492,-427.5841"/>
</g>
<!-- Node19 -->
<g id="node20" class="node">
<title>Node19</title>
<g id="a_node20"><a xlink:href="classprecice_1_1utils_1_1MasterSlave.html#a3837ad42361b53d7e930443ba07a9eb5" target="_top" xlink:title="True if this process is running a slave. ">
<polygon fill="#ffffff" stroke="#000000" points="607.5,-378.5 607.5,-408.5 752.5,-408.5 752.5,-378.5 607.5,-378.5"/>
<text text-anchor="start" x="615.5" y="-396.5" font-family="Helvetica,sans-Serif" font-size="10.00" fill="#000000">precice::utils::MasterSlave</text>
<text text-anchor="middle" x="680" y="-385.5" font-family="Helvetica,sans-Serif" font-size="10.00" fill="#000000">::isSlave</text>
</a>
</g>
</g>
<!-- Node17&#45;&gt;Node19 -->
<g id="edge27" class="edge">
<title>Node17&#45;&gt;Node19</title>
<path fill="none" stroke="#191970" d="M565.1554,-383.1701C575.657,-384.1147 586.5106,-385.0909 597.1633,-386.0491"/>
<polygon fill="#191970" stroke="#191970" points="597.0239,-389.5506 607.2972,-386.9606 597.651,-382.5787 597.0239,-389.5506"/>
</g>
<!-- Node20 -->
<g id="node21" class="node">
<title>Node20</title>
<g id="a_node21"><a xlink:href="namespaceprecice_1_1mesh.html#a821683799e9865ccd4b81f40a56c3d2d" target="_top" xlink:title="Given the data and the mesh, this function returns the surface integral. Assumes no overlap exists fo...">
<polygon fill="#ffffff" stroke="#000000" points="612.5,-340 612.5,-359 747.5,-359 747.5,-340 612.5,-340"/>
<text text-anchor="middle" x="680" y="-347" font-family="Helvetica,sans-Serif" font-size="10.00" fill="#000000">precice::mesh::integrate</text>
</a>
</g>
</g>
<!-- Node17&#45;&gt;Node20 -->
<g id="edge32" class="edge">
<title>Node17&#45;&gt;Node20</title>
<path fill="none" stroke="#191970" d="M565.1554,-365.9064C577.7221,-364.1111 590.7928,-362.2439 603.4203,-360.44"/>
<polygon fill="#191970" stroke="#191970" points="604.0297,-363.8885 613.4342,-359.0094 603.0397,-356.9589 604.0297,-363.8885"/>
</g>
</g>
</svg>
