<?xml version="1.0" encoding="UTF-8" standalone="no"?>
<!DOCTYPE svg PUBLIC "-//W3C//DTD SVG 1.1//EN"
 "http://www.w3.org/Graphics/SVG/1.1/DTD/svg11.dtd">
<!-- Generated by graphviz version 2.40.1 (20161225.0304)
 -->
<!-- Title: src/utils/networking.hpp Pages: 1 -->
<!--zoomable 162 -->
<svg id="main" version="1.1" xmlns="http://www.w3.org/2000/svg" xmlns:xlink="http://www.w3.org/1999/xlink" xml:space="preserve" onload="init(evt)">
<style type="text/css"><![CDATA[
.edge:hover path { stroke: red; }
.edge:hover polygon { stroke: red; fill: red; }
]]></style>
<script type="text/javascript"><![CDATA[
var edges = document.getElementsByTagName('g');
if (edges && edges.length) {
  for (var i=0;i<edges.length;i++) {
    if (edges[i].id.substr(0,4)=='edge') {
      edges[i].setAttribute('class','edge');
    }
  }
}
]]></script>
        <defs>
                <circle id="rim" cx="0" cy="0" r="7"/>
                <circle id="rim2" cx="0" cy="0" r="3.5"/>
                <g id="zoomPlus">
                        <use xlink:href="#rim" fill="#404040">
                                <set attributeName="fill" to="#808080" begin="zoomplus.mouseover" end="zoomplus.mouseout"/>
                        </use>
                        <path d="M-4,0h8M0,-4v8" fill="none" stroke="white" stroke-width="1.5" pointer-events="none"/>
                </g>
                <g id="zoomMin">
                        <use xlink:href="#rim" fill="#404040">
                                <set attributeName="fill" to="#808080" begin="zoomminus.mouseover" end="zoomminus.mouseout"/>
                        </use>
                        <path d="M-4,0h8" fill="none" stroke="white" stroke-width="1.5" pointer-events="none"/>
                </g>
                <g id="dirArrow">
                        <path fill="none" stroke="white" stroke-width="1.5" d="M0,-3.0v7 M-2.5,-0.5L0,-3.0L2.5,-0.5"/>
                </g>
               <g id="resetDef">
                       <use xlink:href="#rim2" fill="#404040">
                               <set attributeName="fill" to="#808080" begin="reset.mouseover" end="reset.mouseout"/>
                       </use>
               </g>
        </defs>

<script type="text/javascript">
var viewWidth = 2061;
var viewHeight = 162;
var sectionId = 'dynsection-1';
</script>
<script xlink:href="svgpan.js"/>
<svg id="graph" class="graph">
<g id="viewport">
<title>src/utils/networking.hpp</title>
<polygon fill="#ffffff" stroke="transparent" points="-4,4 -4,-158 2057,-158 2057,4 -4,4"/>
<!-- Node2 -->
<g id="node1" class="node">
<title>Node2</title>
<polygon fill="#bfbfbf" stroke="#000000" points="970.5,-134.5 970.5,-153.5 1090.5,-153.5 1090.5,-134.5 970.5,-134.5"/>
<text text-anchor="middle" x="1030.5" y="-141.5" font-family="Helvetica,sans-Serif" font-size="10.00" fill="#000000">src/utils/networking.hpp</text>
</g>
<!-- Node3 -->
<g id="node2" class="node">
<title>Node3</title>
<g id="a_node2"><a xlink:href="SocketCommunication_8hpp.html" target="_top" xlink:title="src/com/SocketCommunication.hpp">
<polygon fill="#ffffff" stroke="#000000" points="458,-73 458,-92 631,-92 631,-73 458,-73"/>
<text text-anchor="middle" x="544.5" y="-80" font-family="Helvetica,sans-Serif" font-size="10.00" fill="#000000">src/com/SocketCommunication.hpp</text>
</a>
</g>
</g>
<!-- Node2&#45;&gt;Node3 -->
<g id="edge1" class="edge">
<title>Node2&#45;&gt;Node3</title>
<path fill="none" stroke="#191970" d="M960.2561,-135.1111C869.7355,-123.6563 712.9788,-103.8199 619.9838,-92.052"/>
<polygon fill="#191970" stroke="#191970" points="960.0591,-138.614 970.4194,-136.3972 960.938,-131.6694 960.0591,-138.614"/>
</g>
<!-- Node5 -->
<g id="node4" class="node">
<title>Node5</title>
<g id="a_node4"><a xlink:href="SocketCommunication_8cpp.html" target="_top" xlink:title="src/com/SocketCommunication.cpp">
<polygon fill="#ffffff" stroke="#000000" points="0,-6 0,-25 173,-25 173,-6 0,-6"/>
<text text-anchor="middle" x="86.5" y="-13" font-family="Helvetica,sans-Serif" font-size="10.00" fill="#000000">src/com/SocketCommunication.cpp</text>
</a>
</g>
</g>
<!-- Node2&#45;&gt;Node5 -->
<g id="edge7" class="edge">
<title>Node2&#45;&gt;Node5</title>
<path fill="none" stroke="#191970" d="M959.9772,-141.729C850.1203,-137.4496 631.7104,-125.9658 448.5,-98 326.4751,-79.3738 184.445,-42.4493 120.6214,-25.0252"/>
<polygon fill="#191970" stroke="#191970" points="960.1388,-145.2376 970.2648,-142.121 960.4054,-138.2427 960.1388,-145.2376"/>
</g>
<!-- Node6 -->
<g id="node5" class="node">
<title>Node6</title>
<g id="a_node5"><a xlink:href="SocketCommunicationFactory_8cpp.html" target="_top" xlink:title="src/com/SocketCommunication\lFactory.cpp">
<polygon fill="#ffffff" stroke="#000000" points="559.5,-.5 559.5,-30.5 713.5,-30.5 713.5,-.5 559.5,-.5"/>
<text text-anchor="start" x="567.5" y="-18.5" font-family="Helvetica,sans-Serif" font-size="10.00" fill="#000000">src/com/SocketCommunication</text>
<text text-anchor="middle" x="636.5" y="-7.5" font-family="Helvetica,sans-Serif" font-size="10.00" fill="#000000">Factory.cpp</text>
</a>
</g>
</g>
<!-- Node2&#45;&gt;Node6 -->
<g id="edge15" class="edge">
<title>Node2&#45;&gt;Node6</title>
<path fill="none" stroke="#191970" d="M991.4574,-131.2666C918.2717,-107.3976 760.8025,-56.0403 682.5639,-30.5234"/>
<polygon fill="#191970" stroke="#191970" points="990.6154,-134.6734 1001.2079,-134.4466 992.786,-128.0183 990.6154,-134.6734"/>
</g>
<!-- Node9 -->
<g id="node8" class="node">
<title>Node9</title>
<g id="a_node8"><a xlink:href="SocketCommunicationFactory_8hpp.html" target="_top" xlink:title="src/com/SocketCommunication\lFactory.hpp">
<polygon fill="#ffffff" stroke="#000000" points="1006.5,-67.5 1006.5,-97.5 1160.5,-97.5 1160.5,-67.5 1006.5,-67.5"/>
<text text-anchor="start" x="1014.5" y="-85.5" font-family="Helvetica,sans-Serif" font-size="10.00" fill="#000000">src/com/SocketCommunication</text>
<text text-anchor="middle" x="1083.5" y="-74.5" font-family="Helvetica,sans-Serif" font-size="10.00" fill="#000000">Factory.hpp</text>
</a>
</g>
</g>
<!-- Node2&#45;&gt;Node9 -->
<g id="edge8" class="edge">
<title>Node2&#45;&gt;Node9</title>
<path fill="none" stroke="#191970" d="M1045.4509,-126.6514C1053.3507,-117.4845 1062.953,-106.3423 1070.5347,-97.5446"/>
<polygon fill="#191970" stroke="#191970" points="1042.6582,-124.5306 1038.7813,-134.3906 1047.9608,-129.1003 1042.6582,-124.5306"/>
</g>
<!-- Node10 -->
<g id="node9" class="node">
<title>Node10</title>
<g id="a_node9"><a xlink:href="M2NConfiguration_8cpp.html" target="_top" xlink:title="src/m2n/config/M2NConfiguration.cpp">
<polygon fill="#ffffff" stroke="#000000" points="887.5,-6 887.5,-25 1069.5,-25 1069.5,-6 887.5,-6"/>
<text text-anchor="middle" x="978.5" y="-13" font-family="Helvetica,sans-Serif" font-size="10.00" fill="#000000">src/m2n/config/M2NConfiguration.cpp</text>
</a>
</g>
</g>
<!-- Node2&#45;&gt;Node10 -->
<g id="edge16" class="edge">
<title>Node2&#45;&gt;Node10</title>
<path fill="none" stroke="#191970" d="M1015.409,-126.4703C1009.0497,-118.2869 1002.0764,-108.1297 997.5,-98 986.2447,-73.0865 981.3148,-40.8242 979.4603,-25.0436"/>
<polygon fill="#191970" stroke="#191970" points="1012.9001,-128.9325 1021.9261,-134.4808 1018.3301,-124.5148 1012.9001,-128.9325"/>
</g>
<!-- Node14 -->
<g id="node13" class="node">
<title>Node14</title>
<g id="a_node13"><a xlink:href="ParticipantConfiguration_8hpp.html" target="_top" xlink:title="src/precice/config\l/ParticipantConfiguration.hpp">
<polygon fill="#ffffff" stroke="#000000" points="1556,-67.5 1556,-97.5 1699,-97.5 1699,-67.5 1556,-67.5"/>
<text text-anchor="start" x="1564" y="-85.5" font-family="Helvetica,sans-Serif" font-size="10.00" fill="#000000">src/precice/config</text>
<text text-anchor="middle" x="1627.5" y="-74.5" font-family="Helvetica,sans-Serif" font-size="10.00" fill="#000000">/ParticipantConfiguration.hpp</text>
</a>
</g>
</g>
<!-- Node2&#45;&gt;Node14 -->
<g id="edge17" class="edge">
<title>Node2&#45;&gt;Node14</title>
<path fill="none" stroke="#191970" d="M1100.7989,-136.7581C1215.1698,-124.9762 1440.3226,-101.7821 1555.6722,-89.8993"/>
<polygon fill="#191970" stroke="#191970" points="1100.3409,-133.2867 1090.7522,-137.7931 1101.0583,-140.2499 1100.3409,-133.2867"/>
</g>
<!-- Node15 -->
<g id="node14" class="node">
<title>Node15</title>
<g id="a_node14"><a xlink:href="ParticipantConfiguration_8cpp.html" target="_top" xlink:title="src/precice/config\l/ParticipantConfiguration.cpp">
<polygon fill="#ffffff" stroke="#000000" points="1556,-.5 1556,-30.5 1699,-30.5 1699,-.5 1556,-.5"/>
<text text-anchor="start" x="1564" y="-18.5" font-family="Helvetica,sans-Serif" font-size="10.00" fill="#000000">src/precice/config</text>
<text text-anchor="middle" x="1627.5" y="-7.5" font-family="Helvetica,sans-Serif" font-size="10.00" fill="#000000">/ParticipantConfiguration.cpp</text>
</a>
</g>
</g>
<!-- Node2&#45;&gt;Node15 -->
<g id="edge21" class="edge">
<title>Node2&#45;&gt;Node15</title>
<path fill="none" stroke="#191970" d="M1084.9754,-132.2746C1193.6958,-108.8733 1437.4563,-56.4056 1557.7027,-30.5234"/>
<polygon fill="#191970" stroke="#191970" points="1083.9239,-128.9206 1074.8843,-134.4466 1085.3969,-135.7639 1083.9239,-128.9206"/>
</g>
<!-- Node18 -->
<g id="node17" class="node">
<title>Node18</title>
<g id="a_node17"><a xlink:href="networking_8cpp.html" target="_top" xlink:title="src/utils/networking.cpp">
<polygon fill="#ffffff" stroke="#000000" points="1717.5,-73 1717.5,-92 1837.5,-92 1837.5,-73 1717.5,-73"/>
<text text-anchor="middle" x="1777.5" y="-80" font-family="Helvetica,sans-Serif" font-size="10.00" fill="#000000">src/utils/networking.cpp</text>
</a>
</g>
</g>
<!-- Node2&#45;&gt;Node18 -->
<g id="edge22" class="edge">
<title>Node2&#45;&gt;Node18</title>
<path fill="none" stroke="#191970" d="M1100.7671,-142.774C1224.3,-139.8314 1488.1948,-130.0252 1708.5,-98 1718.706,-96.5164 1729.6433,-94.3376 1739.7331,-92.0795"/>
<polygon fill="#191970" stroke="#191970" points="1100.6023,-139.2768 1090.6856,-143.0063 1100.7636,-146.2749 1100.6023,-139.2768"/>
</g>
<!-- Node4 -->
<g id="node3" class="node">
<title>Node4</title>
<g id="a_node3"><a xlink:href="CommunicationConfiguration_8cpp.html" target="_top" xlink:title="src/com/config/Communication\lConfiguration.cpp">
<polygon fill="#ffffff" stroke="#000000" points="191.5,-.5 191.5,-30.5 343.5,-30.5 343.5,-.5 191.5,-.5"/>
<text text-anchor="start" x="199.5" y="-18.5" font-family="Helvetica,sans-Serif" font-size="10.00" fill="#000000">src/com/config/Communication</text>
<text text-anchor="middle" x="267.5" y="-7.5" font-family="Helvetica,sans-Serif" font-size="10.00" fill="#000000">Configuration.cpp</text>
</a>
</g>
</g>
<!-- Node3&#45;&gt;Node4 -->
<g id="edge2" class="edge">
<title>Node3&#45;&gt;Node4</title>
<path fill="none" stroke="#191970" d="M495.3264,-70.606C449.122,-59.4302 379.7848,-42.6591 329.7438,-30.5553"/>
<polygon fill="#191970" stroke="#191970" points="494.5642,-74.0225 505.1068,-72.9717 496.21,-67.2187 494.5642,-74.0225"/>
</g>
<!-- Node3&#45;&gt;Node5 -->
<g id="edge3" class="edge">
<title>Node3&#45;&gt;Node5</title>
<path fill="none" stroke="#191970" d="M464.6117,-71.573C391.2187,-61.4303 279.455,-45.7224 182.5,-31 170.1485,-29.1245 156.9163,-27.0381 144.3445,-25.0195"/>
<polygon fill="#191970" stroke="#191970" points="464.3228,-75.0662 474.7075,-72.9665 465.2801,-68.132 464.3228,-75.0662"/>
</g>
<!-- Node3&#45;&gt;Node6 -->
<g id="edge4" class="edge">
<title>Node3&#45;&gt;Node6</title>
<path fill="none" stroke="#191970" d="M565.8937,-66.9198C580.9499,-55.955 600.99,-41.3605 615.8731,-30.5218"/>
<polygon fill="#191970" stroke="#191970" points="563.7045,-64.1843 557.6814,-72.9005 567.8254,-69.8428 563.7045,-64.1843"/>
</g>
<!-- Node7 -->
<g id="node6" class="node">
<title>Node7</title>
<g id="a_node6"><a xlink:href="SocketCommunicationTest_8cpp.html" target="_top" xlink:title="src/com/tests/SocketCommunication\lTest.cpp">
<polygon fill="#ffffff" stroke="#000000" points="362,-.5 362,-30.5 541,-30.5 541,-.5 362,-.5"/>
<text text-anchor="start" x="370" y="-18.5" font-family="Helvetica,sans-Serif" font-size="10.00" fill="#000000">src/com/tests/SocketCommunication</text>
<text text-anchor="middle" x="451.5" y="-7.5" font-family="Helvetica,sans-Serif" font-size="10.00" fill="#000000">Test.cpp</text>
</a>
</g>
</g>
<!-- Node3&#45;&gt;Node7 -->
<g id="edge5" class="edge">
<title>Node3&#45;&gt;Node7</title>
<path fill="none" stroke="#191970" d="M522.8738,-66.9198C507.6539,-55.955 487.396,-41.3605 472.3511,-30.5218"/>
<polygon fill="#191970" stroke="#191970" points="521.0158,-69.8949 531.1754,-72.9005 525.1075,-64.2154 521.0158,-69.8949"/>
</g>
<!-- Node8 -->
<g id="node7" class="node">
<title>Node8</title>
<g id="a_node7"><a xlink:href="TestContext_8cpp.html" target="_top" xlink:title="src/testing/TestContext.cpp">
<polygon fill="#ffffff" stroke="#000000" points="731.5,-6 731.5,-25 869.5,-25 869.5,-6 731.5,-6"/>
<text text-anchor="middle" x="800.5" y="-13" font-family="Helvetica,sans-Serif" font-size="10.00" fill="#000000">src/testing/TestContext.cpp</text>
</a>
</g>
</g>
<!-- Node3&#45;&gt;Node8 -->
<g id="edge6" class="edge">
<title>Node3&#45;&gt;Node8</title>
<path fill="none" stroke="#191970" d="M590.7432,-70.3973C640.3747,-57.4078 718.2091,-37.0371 763.8044,-25.1039"/>
<polygon fill="#191970" stroke="#191970" points="589.6947,-67.0537 580.9067,-72.9717 591.467,-73.8257 589.6947,-67.0537"/>
</g>
<!-- Node9&#45;&gt;Node6 -->
<g id="edge9" class="edge">
<title>Node9&#45;&gt;Node6</title>
<path fill="none" stroke="#191970" d="M996.1672,-70.9528C922.9703,-61.0562 815.7685,-46.0526 722.5,-31 719.6543,-30.5407 716.7573,-30.0643 713.8323,-29.5757"/>
<polygon fill="#191970" stroke="#191970" points="995.8868,-74.4466 1006.265,-72.3149 996.8226,-67.5094 995.8868,-74.4466"/>
</g>
<!-- Node9&#45;&gt;Node8 -->
<g id="edge12" class="edge">
<title>Node9&#45;&gt;Node8</title>
<path fill="none" stroke="#191970" d="M1010.1116,-65.1254C956.0697,-52.331 884.6205,-35.4155 840.6492,-25.0053"/>
<polygon fill="#191970" stroke="#191970" points="1009.4519,-68.5659 1019.9893,-67.4639 1011.0646,-61.7542 1009.4519,-68.5659"/>
</g>
<!-- Node9&#45;&gt;Node10 -->
<g id="edge10" class="edge">
<title>Node9&#45;&gt;Node10</title>
<path fill="none" stroke="#191970" d="M1051.4428,-62.0445C1032.1913,-49.7601 1008.5935,-34.7025 993.5509,-25.1039"/>
<polygon fill="#191970" stroke="#191970" points="1049.6232,-65.0352 1059.936,-67.4639 1053.3887,-59.1342 1049.6232,-65.0352"/>
</g>
<!-- Node11 -->
<g id="node10" class="node">
<title>Node11</title>
<g id="a_node10"><a xlink:href="PointToPointCommunicationTest_8cpp.html" target="_top" xlink:title="src/m2n/tests/PointToPoint\lCommunicationTest.cpp">
<polygon fill="#ffffff" stroke="#000000" points="1087.5,-.5 1087.5,-30.5 1223.5,-30.5 1223.5,-.5 1087.5,-.5"/>
<text text-anchor="start" x="1095.5" y="-18.5" font-family="Helvetica,sans-Serif" font-size="10.00" fill="#000000">src/m2n/tests/PointToPoint</text>
<text text-anchor="middle" x="1155.5" y="-7.5" font-family="Helvetica,sans-Serif" font-size="10.00" fill="#000000">CommunicationTest.cpp</text>
</a>
</g>
</g>
<!-- Node9&#45;&gt;Node11 -->
<g id="edge11" class="edge">
<title>Node9&#45;&gt;Node11</title>
<path fill="none" stroke="#191970" d="M1107.452,-60.2113C1117.8871,-50.5009 1129.8488,-39.3698 1139.2267,-30.6432"/>
<polygon fill="#191970" stroke="#191970" points="1104.7743,-57.9221 1099.8379,-67.2967 1109.5429,-63.0466 1104.7743,-57.9221"/>
</g>
<!-- Node12 -->
<g id="node11" class="node">
<title>Node12</title>
<g id="a_node11"><a xlink:href="mainA_8cpp.html" target="_top" xlink:title="tools/testing/communication\l_dummies/mainA.cpp">
<polygon fill="#ffffff" stroke="#000000" points="1242,-.5 1242,-30.5 1381,-30.5 1381,-.5 1242,-.5"/>
<text text-anchor="start" x="1250" y="-18.5" font-family="Helvetica,sans-Serif" font-size="10.00" fill="#000000">tools/testing/communication</text>
<text text-anchor="middle" x="1311.5" y="-7.5" font-family="Helvetica,sans-Serif" font-size="10.00" fill="#000000">_dummies/mainA.cpp</text>
</a>
</g>
</g>
<!-- Node9&#45;&gt;Node12 -->
<g id="edge13" class="edge">
<title>Node9&#45;&gt;Node12</title>
<path fill="none" stroke="#191970" d="M1144.589,-64.5484C1180.6782,-53.9432 1225.8587,-40.6665 1260.1092,-30.6017"/>
<polygon fill="#191970" stroke="#191970" points="1143.2752,-61.2864 1134.6677,-67.4639 1145.2488,-68.0025 1143.2752,-61.2864"/>
</g>
<!-- Node13 -->
<g id="node12" class="node">
<title>Node13</title>
<g id="a_node12"><a xlink:href="mainB_8cpp.html" target="_top" xlink:title="tools/testing/communication\l_dummies/mainB.cpp">
<polygon fill="#ffffff" stroke="#000000" points="1399,-.5 1399,-30.5 1538,-30.5 1538,-.5 1399,-.5"/>
<text text-anchor="start" x="1407" y="-18.5" font-family="Helvetica,sans-Serif" font-size="10.00" fill="#000000">tools/testing/communication</text>
<text text-anchor="middle" x="1468.5" y="-7.5" font-family="Helvetica,sans-Serif" font-size="10.00" fill="#000000">_dummies/mainB.cpp</text>
</a>
</g>
</g>
<!-- Node9&#45;&gt;Node13 -->
<g id="edge14" class="edge">
<title>Node9&#45;&gt;Node13</title>
<path fill="none" stroke="#191970" d="M1170.6475,-68.4754C1231.9348,-58.4554 1315.8248,-44.4249 1389.5,-31 1392.5251,-30.4488 1395.6137,-29.8778 1398.7325,-29.2946"/>
<polygon fill="#191970" stroke="#191970" points="1169.9333,-65.0456 1160.6277,-70.1107 1171.0609,-71.9541 1169.9333,-65.0456"/>
</g>
<!-- Node14&#45;&gt;Node15 -->
<g id="edge18" class="edge">
<title>Node14&#45;&gt;Node15</title>
<path fill="none" stroke="#191970" d="M1627.5,-57.0249C1627.5,-48.128 1627.5,-38.4287 1627.5,-30.6432"/>
<polygon fill="#191970" stroke="#191970" points="1624.0001,-57.2966 1627.5,-67.2967 1631.0001,-57.2967 1624.0001,-57.2966"/>
</g>
<!-- Node16 -->
<g id="node15" class="node">
<title>Node16</title>
<g id="a_node15"><a xlink:href="SolverInterfaceConfiguration_8cpp.html" target="_top" xlink:title="src/precice/config\l/SolverInterfaceConfiguration.cpp">
<polygon fill="#ffffff" stroke="#000000" points="1717.5,-.5 1717.5,-30.5 1879.5,-30.5 1879.5,-.5 1717.5,-.5"/>
<text text-anchor="start" x="1725.5" y="-18.5" font-family="Helvetica,sans-Serif" font-size="10.00" fill="#000000">src/precice/config</text>
<text text-anchor="middle" x="1798.5" y="-7.5" font-family="Helvetica,sans-Serif" font-size="10.00" fill="#000000">/SolverInterfaceConfiguration.cpp</text>
</a>
</g>
</g>
<!-- Node14&#45;&gt;Node16 -->
<g id="edge19" class="edge">
<title>Node14&#45;&gt;Node16</title>
<path fill="none" stroke="#191970" d="M1675.412,-63.7275C1702.116,-53.2645 1734.9277,-40.4084 1759.9569,-30.6017"/>
<polygon fill="#191970" stroke="#191970" points="1673.9097,-60.5569 1665.8757,-67.4639 1676.4634,-67.0745 1673.9097,-60.5569"/>
</g>
<!-- Node17 -->
<g id="node16" class="node">
<title>Node17</title>
<g id="a_node16"><a xlink:href="SolverInterfaceImpl_8cpp.html" target="_top" xlink:title="src/precice/impl/SolverInterface\lImpl.cpp">
<polygon fill="#ffffff" stroke="#000000" points="1898,-.5 1898,-30.5 2053,-30.5 2053,-.5 1898,-.5"/>
<text text-anchor="start" x="1906" y="-18.5" font-family="Helvetica,sans-Serif" font-size="10.00" fill="#000000">src/precice/impl/SolverInterface</text>
<text text-anchor="middle" x="1975.5" y="-7.5" font-family="Helvetica,sans-Serif" font-size="10.00" fill="#000000">Impl.cpp</text>
</a>
</g>
</g>
<!-- Node14&#45;&gt;Node17 -->
<g id="edge20" class="edge">
<title>Node14&#45;&gt;Node17</title>
<path fill="none" stroke="#191970" d="M1709.2398,-66.7627C1766.2284,-55.7908 1841.7934,-41.2424 1897.8614,-30.4477"/>
<polygon fill="#191970" stroke="#191970" points="1708.3418,-63.3713 1699.1839,-68.6988 1709.6653,-70.245 1708.3418,-63.3713"/>
</g>
</g>
</svg>
        <g id="navigator" transform="translate(0 0)" fill="#404254">
                <rect fill="#f2f5e9" fill-opacity="0.5" stroke="#606060" stroke-width=".5" x="0" y="0" width="60" height="60"/>
                <use id="zoomplus" xlink:href="#zoomPlus" x="17" y="9" onmousedown="handleZoom(evt,'in')"/>
                <use id="zoomminus" xlink:href="#zoomMin" x="42" y="9" onmousedown="handleZoom(evt,'out')"/>
                <use id="reset" xlink:href="#resetDef" x="30" y="36" onmousedown="handleReset()"/>
                <g id="arrowUp" xlink:href="#dirArrow" transform="translate(30 24)" onmousedown="handlePan(0,-1)">
                  <use xlink:href="#rim" fill="#404040">
                        <set attributeName="fill" to="#808080" begin="arrowUp.mouseover" end="arrowUp.mouseout"/>
                  </use>
                  <path fill="none" stroke="white" stroke-width="1.5" d="M0,-3.0v7 M-2.5,-0.5L0,-3.0L2.5,-0.5"/>
                </g>
                <g id="arrowRight" xlink:href="#dirArrow" transform="rotate(90) translate(36 -43)" onmousedown="handlePan(1,0)">
                  <use xlink:href="#rim" fill="#404040">
                        <set attributeName="fill" to="#808080" begin="arrowRight.mouseover" end="arrowRight.mouseout"/>
                  </use>
                  <path fill="none" stroke="white" stroke-width="1.5" d="M0,-3.0v7 M-2.5,-0.5L0,-3.0L2.5,-0.5"/>
                </g>
                <g id="arrowDown" xlink:href="#dirArrow" transform="rotate(180) translate(-30 -48)" onmousedown="handlePan(0,1)">
                  <use xlink:href="#rim" fill="#404040">
                        <set attributeName="fill" to="#808080" begin="arrowDown.mouseover" end="arrowDown.mouseout"/>
                  </use>
                  <path fill="none" stroke="white" stroke-width="1.5" d="M0,-3.0v7 M-2.5,-0.5L0,-3.0L2.5,-0.5"/>
                </g>
                <g id="arrowLeft" xlink:href="#dirArrow" transform="rotate(270) translate(-36 17)" onmousedown="handlePan(-1,0)">
                  <use xlink:href="#rim" fill="#404040">
                        <set attributeName="fill" to="#808080" begin="arrowLeft.mouseover" end="arrowLeft.mouseout"/>
                  </use>
                  <path fill="none" stroke="white" stroke-width="1.5" d="M0,-3.0v7 M-2.5,-0.5L0,-3.0L2.5,-0.5"/>
                </g>
        </g>
        <svg viewBox="0 0 15 15" width="100%" height="30px" preserveAspectRatio="xMaxYMin meet">
         <g id="arrow_out" transform="scale(0.3 0.3)">
          <a xlink:href="networking_8hpp__dep__incl_org.svg" target="_base">
           <rect id="button" ry="5" rx="5" y="6" x="6" height="38" width="38"
                fill="#f2f5e9" fill-opacity="0.5" stroke="#606060" stroke-width="1.0"/>
           <path id="arrow"
             d="M 11.500037,31.436501 C 11.940474,20.09759 22.043105,11.32322 32.158766,21.979434 L 37.068811,17.246167 C 37.068811,17.246167 37.088388,32 37.088388,32 L 22.160133,31.978069 C 22.160133,31.978069 26.997745,27.140456 26.997745,27.140456 C 18.528582,18.264221 13.291696,25.230495 11.500037,31.436501 z"
             style="fill:#404040;"/>
          </a>
         </g>
        </svg>
</svg>
