<?xml version="1.0" encoding="UTF-8" standalone="no"?>
<!DOCTYPE svg PUBLIC "-//W3C//DTD SVG 1.1//EN"
 "http://www.w3.org/Graphics/SVG/1.1/DTD/svg11.dtd">
<!-- Generated by graphviz version 2.40.1 (20161225.0304)
 -->
<!-- Title: BOOST_AUTO_TEST_CASE Pages: 1 -->
<svg width="673pt" height="813pt"
 viewBox="0.00 0.00 673.00 812.50" xmlns="http://www.w3.org/2000/svg" xmlns:xlink="http://www.w3.org/1999/xlink">
<g id="graph0" class="graph" transform="scale(1 1) rotate(0) translate(4 808.5)">
<title>BOOST_AUTO_TEST_CASE</title>
<polygon fill="#ffffff" stroke="transparent" points="-4,4 -4,-808.5 669,-808.5 669,4 -4,4"/>
<!-- Node189 -->
<g id="node1" class="node">
<title>Node189</title>
<polygon fill="#bfbfbf" stroke="#000000" points="0,-387.5 0,-406.5 143,-406.5 143,-387.5 0,-387.5"/>
<text text-anchor="middle" x="71.5" y="-394.5" font-family="Helvetica,sans-Serif" font-size="10.00" fill="#000000">BOOST_AUTO_TEST_CASE</text>
</g>
<!-- Node190 -->
<g id="node2" class="node">
<title>Node190</title>
<g id="a_node2"><a xlink:href="ParallelTests_8cpp.html#a8b667de7a80eebc9271b6904862ad208" target="_top" xlink:title="tests for different QN settings if correct fixed point is reached ">
<polygon fill="#ffffff" stroke="#000000" points="179,-387.5 179,-406.5 246,-406.5 246,-387.5 179,-387.5"/>
<text text-anchor="middle" x="212.5" y="-394.5" font-family="Helvetica,sans-Serif" font-size="10.00" fill="#000000">runTestQN</text>
</a>
</g>
</g>
<!-- Node189&#45;&gt;Node190 -->
<g id="edge1" class="edge">
<title>Node189&#45;&gt;Node190</title>
<path fill="none" stroke="#191970" d="M143.2392,-397C151.8484,-397 160.4329,-397 168.479,-397"/>
<polygon fill="#191970" stroke="#191970" points="168.7032,-400.5001 178.7032,-397 168.7031,-393.5001 168.7032,-400.5001"/>
</g>
<!-- Node191 -->
<g id="node3" class="node">
<title>Node191</title>
<g id="a_node3"><a xlink:href="classprecice_1_1testing_1_1TestContext.html#a87ef3b67f676b69dfb8c4cfc2e8df819" target="_top" xlink:title="Check wheater this context has a given name. ">
<polygon fill="#ffffff" stroke="#000000" points="291.5,-774 291.5,-804 446.5,-804 446.5,-774 291.5,-774"/>
<text text-anchor="start" x="299.5" y="-792" font-family="Helvetica,sans-Serif" font-size="10.00" fill="#000000">precice::testing::TestContext</text>
<text text-anchor="middle" x="369" y="-781" font-family="Helvetica,sans-Serif" font-size="10.00" fill="#000000">::isNamed</text>
</a>
</g>
</g>
<!-- Node190&#45;&gt;Node191 -->
<g id="edge2" class="edge">
<title>Node190&#45;&gt;Node191</title>
<path fill="none" stroke="#191970" d="M212.9735,-406.5894C215.7505,-458.979 231.5746,-710.2325 282,-765 282.8955,-765.9726 283.8264,-766.9071 284.7895,-767.805"/>
<polygon fill="#191970" stroke="#191970" points="282.7064,-770.6188 292.7483,-773.9966 287.0046,-765.0938 282.7064,-770.6188"/>
</g>
<!-- Node192 -->
<g id="node4" class="node">
<title>Node192</title>
<g id="a_node4"><a xlink:href="classprecice_1_1SolverInterface.html#a46c45798758f01b9cfdd2885bc849764" target="_top" xlink:title="Returns the ID belonging to the mesh with given name. ">
<polygon fill="#ffffff" stroke="#000000" points="303,-725 303,-755 435,-755 435,-725 303,-725"/>
<text text-anchor="start" x="311" y="-743" font-family="Helvetica,sans-Serif" font-size="10.00" fill="#000000">precice::SolverInterface</text>
<text text-anchor="middle" x="369" y="-732" font-family="Helvetica,sans-Serif" font-size="10.00" fill="#000000">::getMeshID</text>
</a>
</g>
</g>
<!-- Node190&#45;&gt;Node192 -->
<g id="edge3" class="edge">
<title>Node190&#45;&gt;Node192</title>
<path fill="none" stroke="#191970" d="M213.2708,-406.5549C217.3333,-454.5957 237.7695,-669.2837 282,-716 285.4539,-719.648 289.4073,-722.7587 293.6809,-725.4094"/>
<polygon fill="#191970" stroke="#191970" points="292.3657,-728.6722 302.8455,-730.2292 295.624,-722.4767 292.3657,-728.6722"/>
</g>
<!-- Node193 -->
<g id="node5" class="node">
<title>Node193</title>
<g id="a_node5"><a xlink:href="classprecice_1_1SolverInterface.html#a2b2a961362828c0f3fbea0acf3e9f81c" target="_top" xlink:title="Returns the ID of the data associated with the given name and mesh. ">
<polygon fill="#ffffff" stroke="#000000" points="303,-676 303,-706 435,-706 435,-676 303,-676"/>
<text text-anchor="start" x="311" y="-694" font-family="Helvetica,sans-Serif" font-size="10.00" fill="#000000">precice::SolverInterface</text>
<text text-anchor="middle" x="369" y="-683" font-family="Helvetica,sans-Serif" font-size="10.00" fill="#000000">::getDataID</text>
</a>
</g>
</g>
<!-- Node190&#45;&gt;Node193 -->
<g id="edge4" class="edge">
<title>Node190&#45;&gt;Node193</title>
<path fill="none" stroke="#191970" d="M213.705,-406.7893C219.2887,-450.6157 243.9984,-628.338 282,-667 285.4563,-670.5164 289.3775,-673.5309 293.5971,-676.1139"/>
<polygon fill="#191970" stroke="#191970" points="292.1402,-679.3016 302.624,-680.832 295.3828,-673.0979 292.1402,-679.3016"/>
</g>
<!-- Node194 -->
<g id="node6" class="node">
<title>Node194</title>
<g id="a_node6"><a xlink:href="classprecice_1_1testing_1_1TestContext.html#ae29e764c55d02af8024417f307aba70b" target="_top" xlink:title="precice::testing::TestContext\l::isMaster">
<polygon fill="#ffffff" stroke="#000000" points="291.5,-627 291.5,-657 446.5,-657 446.5,-627 291.5,-627"/>
<text text-anchor="start" x="299.5" y="-645" font-family="Helvetica,sans-Serif" font-size="10.00" fill="#000000">precice::testing::TestContext</text>
<text text-anchor="middle" x="369" y="-634" font-family="Helvetica,sans-Serif" font-size="10.00" fill="#000000">::isMaster</text>
</a>
</g>
</g>
<!-- Node190&#45;&gt;Node194 -->
<g id="edge5" class="edge">
<title>Node190&#45;&gt;Node194</title>
<path fill="none" stroke="#191970" d="M214.2488,-406.5326C221.4604,-444.8595 250.0204,-587.1366 282,-618 283.0922,-619.0541 284.2263,-620.0627 285.3976,-621.0279"/>
<polygon fill="#191970" stroke="#191970" points="283.4194,-623.9155 293.6177,-626.7873 287.4362,-618.1826 283.4194,-623.9155"/>
</g>
<!-- Node196 -->
<g id="node8" class="node">
<title>Node196</title>
<g id="a_node8"><a xlink:href="classprecice_1_1SolverInterface.html#abb3b0bea8518a659ec58e95578ea3396" target="_top" xlink:title="Creates multiple mesh vertices. ">
<polygon fill="#ffffff" stroke="#000000" points="303,-578 303,-608 435,-608 435,-578 303,-578"/>
<text text-anchor="start" x="311" y="-596" font-family="Helvetica,sans-Serif" font-size="10.00" fill="#000000">precice::SolverInterface</text>
<text text-anchor="middle" x="369" y="-585" font-family="Helvetica,sans-Serif" font-size="10.00" fill="#000000">::setMeshVertices</text>
</a>
</g>
</g>
<!-- Node190&#45;&gt;Node196 -->
<g id="edge7" class="edge">
<title>Node190&#45;&gt;Node196</title>
<path fill="none" stroke="#191970" d="M213.4849,-406.8841C216.9511,-436.2581 231.2692,-523.7846 282,-569 285.6114,-572.2187 289.6171,-575.0102 293.8696,-577.4306"/>
<polygon fill="#191970" stroke="#191970" points="292.3822,-580.5996 302.8975,-581.8957 295.4856,-574.3251 292.3822,-580.5996"/>
</g>
<!-- Node197 -->
<g id="node9" class="node">
<title>Node197</title>
<g id="a_node9"><a xlink:href="classprecice_1_1SolverInterface.html#a31b18663881576c2cfe5a7a782f6ff7e" target="_top" xlink:title="Fully initializes preCICE. ">
<polygon fill="#ffffff" stroke="#000000" points="303,-529 303,-559 435,-559 435,-529 303,-529"/>
<text text-anchor="start" x="311" y="-547" font-family="Helvetica,sans-Serif" font-size="10.00" fill="#000000">precice::SolverInterface</text>
<text text-anchor="middle" x="369" y="-536" font-family="Helvetica,sans-Serif" font-size="10.00" fill="#000000">::initialize</text>
</a>
</g>
</g>
<!-- Node190&#45;&gt;Node197 -->
<g id="edge8" class="edge">
<title>Node190&#45;&gt;Node197</title>
<path fill="none" stroke="#191970" d="M215.1566,-406.6935C222.0474,-429.9715 242.7523,-489.3617 282,-520 285.5701,-522.787 289.4432,-525.2506 293.5054,-527.4283"/>
<polygon fill="#191970" stroke="#191970" points="292.1194,-530.6444 302.656,-531.7535 295.1108,-524.3157 292.1194,-530.6444"/>
</g>
<!-- Node198 -->
<g id="node10" class="node">
<title>Node198</title>
<g id="a_node10"><a xlink:href="classprecice_1_1SolverInterface.html#a9023201c7b33e20d75a4a700667e50ea" target="_top" xlink:title="Checks if the coupled simulation is still ongoing. ">
<polygon fill="#ffffff" stroke="#000000" points="303,-480 303,-510 435,-510 435,-480 303,-480"/>
<text text-anchor="start" x="311" y="-498" font-family="Helvetica,sans-Serif" font-size="10.00" fill="#000000">precice::SolverInterface</text>
<text text-anchor="middle" x="369" y="-487" font-family="Helvetica,sans-Serif" font-size="10.00" fill="#000000">::isCouplingOngoing</text>
</a>
</g>
</g>
<!-- Node190&#45;&gt;Node198 -->
<g id="edge9" class="edge">
<title>Node190&#45;&gt;Node198</title>
<path fill="none" stroke="#191970" d="M218.7752,-406.5184C229.7042,-422.3352 253.7813,-453.9712 282,-471 285.622,-473.1857 289.4478,-475.1774 293.3941,-476.9916"/>
<polygon fill="#191970" stroke="#191970" points="292.2049,-480.2879 302.7814,-480.9105 294.9016,-473.8282 292.2049,-480.2879"/>
</g>
<!-- Node199 -->
<g id="node11" class="node">
<title>Node199</title>
<g id="a_node11"><a xlink:href="classprecice_1_1SolverInterface.html#aeba10de9770482c7d68350c50e6019fd" target="_top" xlink:title="Checks if the provided action is required. ">
<polygon fill="#ffffff" stroke="#000000" points="303,-431 303,-461 435,-461 435,-431 303,-431"/>
<text text-anchor="start" x="311" y="-449" font-family="Helvetica,sans-Serif" font-size="10.00" fill="#000000">precice::SolverInterface</text>
<text text-anchor="middle" x="369" y="-438" font-family="Helvetica,sans-Serif" font-size="10.00" fill="#000000">::isActionRequired</text>
</a>
</g>
</g>
<!-- Node190&#45;&gt;Node199 -->
<g id="edge10" class="edge">
<title>Node190&#45;&gt;Node199</title>
<path fill="none" stroke="#191970" d="M237.7596,-406.6097C250.8755,-411.466 267.2109,-417.3077 282,-422 288.5222,-424.0694 295.3511,-426.1312 302.1921,-428.1277"/>
<polygon fill="#191970" stroke="#191970" points="301.6116,-431.6025 312.1893,-430.9995 303.5443,-424.8746 301.6116,-431.6025"/>
</g>
<!-- Node200 -->
<g id="node12" class="node">
<title>Node200</title>
<g id="a_node12"><a xlink:href="namespaceprecice_1_1constants.html#aabfafea9fb14455ca241267fda13f601" target="_top" xlink:title="precice::constants\l::actionWriteIterationCheckpoint">
<polygon fill="#ffffff" stroke="#000000" points="282,-382 282,-412 456,-412 456,-382 282,-382"/>
<text text-anchor="start" x="290" y="-400" font-family="Helvetica,sans-Serif" font-size="10.00" fill="#000000">precice::constants</text>
<text text-anchor="middle" x="369" y="-389" font-family="Helvetica,sans-Serif" font-size="10.00" fill="#000000">::actionWriteIterationCheckpoint</text>
</a>
</g>
</g>
<!-- Node190&#45;&gt;Node200 -->
<g id="edge11" class="edge">
<title>Node190&#45;&gt;Node200</title>
<path fill="none" stroke="#191970" d="M246.0732,-397C253.9221,-397 262.6729,-397 271.789,-397"/>
<polygon fill="#191970" stroke="#191970" points="271.7991,-400.5001 281.799,-397 271.799,-393.5001 271.7991,-400.5001"/>
</g>
<!-- Node202 -->
<g id="node14" class="node">
<title>Node202</title>
<g id="a_node14"><a xlink:href="classprecice_1_1SolverInterface.html#a9b8bc7489153814bae711d583725f691" target="_top" xlink:title="Indicates preCICE that a required action has been fulfilled by a solver. ">
<polygon fill="#ffffff" stroke="#000000" points="303,-333 303,-363 435,-363 435,-333 303,-333"/>
<text text-anchor="start" x="311" y="-351" font-family="Helvetica,sans-Serif" font-size="10.00" fill="#000000">precice::SolverInterface</text>
<text text-anchor="middle" x="369" y="-340" font-family="Helvetica,sans-Serif" font-size="10.00" fill="#000000">::markActionFulfilled</text>
</a>
</g>
</g>
<!-- Node190&#45;&gt;Node202 -->
<g id="edge13" class="edge">
<title>Node190&#45;&gt;Node202</title>
<path fill="none" stroke="#191970" d="M239.1233,-387.4382C252.0185,-382.9014 267.7593,-377.5015 282,-373 289.4806,-370.6354 297.3521,-368.2423 305.1775,-365.9218"/>
<polygon fill="#191970" stroke="#191970" points="306.423,-369.204 315.0322,-363.0289 304.4512,-362.4874 306.423,-369.204"/>
</g>
<!-- Node203 -->
<g id="node15" class="node">
<title>Node203</title>
<g id="a_node15"><a xlink:href="classprecice_1_1SolverInterface.html#add8748ec2dac96ad65efd0855c715179" target="_top" xlink:title="Checks if new data to be read is available. ">
<polygon fill="#ffffff" stroke="#000000" points="303,-284 303,-314 435,-314 435,-284 303,-284"/>
<text text-anchor="start" x="311" y="-302" font-family="Helvetica,sans-Serif" font-size="10.00" fill="#000000">precice::SolverInterface</text>
<text text-anchor="middle" x="369" y="-291" font-family="Helvetica,sans-Serif" font-size="10.00" fill="#000000">::isReadDataAvailable</text>
</a>
</g>
</g>
<!-- Node190&#45;&gt;Node203 -->
<g id="edge14" class="edge">
<title>Node190&#45;&gt;Node203</title>
<path fill="none" stroke="#191970" d="M219.004,-387.3947C230.0895,-371.7621 254.1656,-340.8702 282,-324 285.6287,-321.8007 289.4597,-319.7872 293.41,-317.9448"/>
<polygon fill="#191970" stroke="#191970" points="294.9722,-321.0839 302.8048,-313.9494 292.2327,-314.6422 294.9722,-321.0839"/>
</g>
<!-- Node204 -->
<g id="node16" class="node">
<title>Node204</title>
<g id="a_node16"><a xlink:href="classprecice_1_1SolverInterface.html#ae74197b9588c31447c8268401733510d" target="_top" xlink:title="Reads scalar data as a block. ">
<polygon fill="#ffffff" stroke="#000000" points="303,-235 303,-265 435,-265 435,-235 303,-235"/>
<text text-anchor="start" x="311" y="-253" font-family="Helvetica,sans-Serif" font-size="10.00" fill="#000000">precice::SolverInterface</text>
<text text-anchor="middle" x="369" y="-242" font-family="Helvetica,sans-Serif" font-size="10.00" fill="#000000">::readBlockScalarData</text>
</a>
</g>
</g>
<!-- Node190&#45;&gt;Node204 -->
<g id="edge15" class="edge">
<title>Node190&#45;&gt;Node204</title>
<path fill="none" stroke="#191970" d="M215.2017,-387.411C222.1926,-364.3792 243.103,-305.5888 282,-275 285.5708,-272.1919 289.4445,-269.6992 293.5071,-267.4864"/>
<polygon fill="#191970" stroke="#191970" points="295.1696,-270.5705 302.6584,-263.0759 292.1304,-264.2647 295.1696,-270.5705"/>
</g>
<!-- Node205 -->
<g id="node17" class="node">
<title>Node205</title>
<g id="a_node17"><a xlink:href="classprecice_1_1SolverInterface.html#aa6f5ca39f7c46ac72ad657cf672e28b8" target="_top" xlink:title="Writes scalar data given as block. ">
<polygon fill="#ffffff" stroke="#000000" points="303,-186 303,-216 435,-216 435,-186 303,-186"/>
<text text-anchor="start" x="311" y="-204" font-family="Helvetica,sans-Serif" font-size="10.00" fill="#000000">precice::SolverInterface</text>
<text text-anchor="middle" x="369" y="-193" font-family="Helvetica,sans-Serif" font-size="10.00" fill="#000000">::writeBlockScalarData</text>
</a>
</g>
</g>
<!-- Node190&#45;&gt;Node205 -->
<g id="edge16" class="edge">
<title>Node190&#45;&gt;Node205</title>
<path fill="none" stroke="#191970" d="M213.5264,-387.1969C217.1085,-358.0595 231.717,-271.2066 282,-226 285.6083,-222.756 289.6117,-219.9308 293.8624,-217.4707"/>
<polygon fill="#191970" stroke="#191970" points="295.5367,-220.5462 302.8876,-212.9163 292.3831,-214.2969 295.5367,-220.5462"/>
</g>
<!-- Node206 -->
<g id="node18" class="node">
<title>Node206</title>
<g id="a_node18"><a xlink:href="classprecice_1_1SolverInterface.html#a63bc0860c520c27da517cf594ddee586" target="_top" xlink:title="Advances preCICE after the solver has computed one timestep. ">
<polygon fill="#ffffff" stroke="#000000" points="303,-137 303,-167 435,-167 435,-137 303,-137"/>
<text text-anchor="start" x="311" y="-155" font-family="Helvetica,sans-Serif" font-size="10.00" fill="#000000">precice::SolverInterface</text>
<text text-anchor="middle" x="369" y="-144" font-family="Helvetica,sans-Serif" font-size="10.00" fill="#000000">::advance</text>
</a>
</g>
</g>
<!-- Node190&#45;&gt;Node206 -->
<g id="edge17" class="edge">
<title>Node190&#45;&gt;Node206</title>
<path fill="none" stroke="#191970" d="M214.3139,-387.2593C221.6659,-348.7613 250.3678,-207.815 282,-177 285.5424,-173.5491 289.5285,-170.5688 293.7958,-167.9957"/>
<polygon fill="#191970" stroke="#191970" points="295.6384,-170.9825 302.8975,-163.2652 292.4102,-164.7713 295.6384,-170.9825"/>
</g>
<!-- Node207 -->
<g id="node19" class="node">
<title>Node207</title>
<g id="a_node19"><a xlink:href="namespaceprecice_1_1constants.html#a30374d654fabb6a5525b16eebeb586b4" target="_top" xlink:title="precice::constants\l::actionReadIterationCheckpoint">
<polygon fill="#ffffff" stroke="#000000" points="282.5,-88 282.5,-118 455.5,-118 455.5,-88 282.5,-88"/>
<text text-anchor="start" x="290.5" y="-106" font-family="Helvetica,sans-Serif" font-size="10.00" fill="#000000">precice::constants</text>
<text text-anchor="middle" x="369" y="-95" font-family="Helvetica,sans-Serif" font-size="10.00" fill="#000000">::actionReadIterationCheckpoint</text>
</a>
</g>
</g>
<!-- Node190&#45;&gt;Node207 -->
<g id="edge18" class="edge">
<title>Node190&#45;&gt;Node207</title>
<path fill="none" stroke="#191970" d="M213.705,-387.2107C219.2887,-343.3843 243.9984,-165.662 282,-127 283.064,-125.9175 284.1721,-124.8826 285.3193,-123.8931"/>
<polygon fill="#191970" stroke="#191970" points="287.3856,-126.7181 293.4087,-118.0019 283.2647,-121.0597 287.3856,-126.7181"/>
</g>
<!-- Node209 -->
<g id="node21" class="node">
<title>Node209</title>
<g id="a_node21"><a xlink:href="classprecice_1_1SolverInterface.html#adc06b8677288d97d005b633c932fedef" target="_top" xlink:title="Finalizes preCICE. ">
<polygon fill="#ffffff" stroke="#000000" points="303,-39 303,-69 435,-69 435,-39 303,-39"/>
<text text-anchor="start" x="311" y="-57" font-family="Helvetica,sans-Serif" font-size="10.00" fill="#000000">precice::SolverInterface</text>
<text text-anchor="middle" x="369" y="-46" font-family="Helvetica,sans-Serif" font-size="10.00" fill="#000000">::finalize</text>
</a>
</g>
</g>
<!-- Node190&#45;&gt;Node209 -->
<g id="edge20" class="edge">
<title>Node190&#45;&gt;Node209</title>
<path fill="none" stroke="#191970" d="M213.2708,-387.4451C217.3333,-339.4043 237.7695,-124.7163 282,-78 285.4539,-74.352 289.4073,-71.2413 293.6809,-68.5906"/>
<polygon fill="#191970" stroke="#191970" points="295.624,-71.5233 302.8455,-63.7708 292.3657,-65.3278 295.624,-71.5233"/>
</g>
<!-- Node210 -->
<g id="node22" class="node">
<title>Node210</title>
<g id="a_node22"><a xlink:href="RTreeTests_8cpp.html#a9849f5c774ff22e557184d988b1cf9ea" target="_top" xlink:title="BOOST_TEST">
<polygon fill="#ffffff" stroke="#000000" points="329,-.5 329,-19.5 409,-19.5 409,-.5 329,-.5"/>
<text text-anchor="middle" x="369" y="-7.5" font-family="Helvetica,sans-Serif" font-size="10.00" fill="#000000">BOOST_TEST</text>
</a>
</g>
</g>
<!-- Node190&#45;&gt;Node210 -->
<g id="edge21" class="edge">
<title>Node190&#45;&gt;Node210</title>
<path fill="none" stroke="#191970" d="M212.9246,-387.3644C215.4416,-334.7288 230.1103,-82.3822 282,-29 291.6175,-19.1059 305.1034,-13.8012 318.5915,-11.0885"/>
<polygon fill="#191970" stroke="#191970" points="319.5029,-14.4887 328.8424,-9.4863 318.4218,-7.5727 319.5029,-14.4887"/>
</g>
<!-- Node195 -->
<g id="node7" class="node">
<title>Node195</title>
<g id="a_node7"><a xlink:href="classprecice_1_1testing_1_1TestContext.html#a8fefcbe2f6def4d4cc9816d238b2797e" target="_top" xlink:title="Check wheater this context has a given rank inside the Partiticipant. ">
<polygon fill="#ffffff" stroke="#000000" points="501,-627 501,-657 656,-657 656,-627 501,-627"/>
<text text-anchor="start" x="509" y="-645" font-family="Helvetica,sans-Serif" font-size="10.00" fill="#000000">precice::testing::TestContext</text>
<text text-anchor="middle" x="578.5" y="-634" font-family="Helvetica,sans-Serif" font-size="10.00" fill="#000000">::isRank</text>
</a>
</g>
</g>
<!-- Node194&#45;&gt;Node195 -->
<g id="edge6" class="edge">
<title>Node194&#45;&gt;Node195</title>
<path fill="none" stroke="#191970" d="M446.7124,-642C461.0937,-642 476.205,-642 490.8572,-642"/>
<polygon fill="#191970" stroke="#191970" points="490.9132,-645.5001 500.9132,-642 490.9131,-638.5001 490.9132,-645.5001"/>
</g>
<!-- Node201 -->
<g id="node13" class="node">
<title>Node201</title>
<g id="a_node13"><a xlink:href="namespaceprecice_1_1cplscheme_1_1constants.html#ae6a2667f9452de16a239be70945c8172" target="_top" xlink:title="precice::cplscheme\l::constants::actionWriteIteration\lCheckpoint">
<polygon fill="#ffffff" stroke="#000000" points="492,-376.5 492,-417.5 665,-417.5 665,-376.5 492,-376.5"/>
<text text-anchor="start" x="500" y="-405.5" font-family="Helvetica,sans-Serif" font-size="10.00" fill="#000000">precice::cplscheme</text>
<text text-anchor="start" x="500" y="-394.5" font-family="Helvetica,sans-Serif" font-size="10.00" fill="#000000">::constants::actionWriteIteration</text>
<text text-anchor="middle" x="578.5" y="-383.5" font-family="Helvetica,sans-Serif" font-size="10.00" fill="#000000">Checkpoint</text>
</a>
</g>
</g>
<!-- Node200&#45;&gt;Node201 -->
<g id="edge12" class="edge">
<title>Node200&#45;&gt;Node201</title>
<path fill="none" stroke="#191970" d="M456.0268,-397C464.5111,-397 473.1552,-397 481.7276,-397"/>
<polygon fill="#191970" stroke="#191970" points="481.7442,-400.5001 491.7441,-397 481.7441,-393.5001 481.7442,-400.5001"/>
</g>
<!-- Node208 -->
<g id="node20" class="node">
<title>Node208</title>
<g id="a_node20"><a xlink:href="namespaceprecice_1_1cplscheme_1_1constants.html#a6ee5e554181352c02568f33215195519" target="_top" xlink:title="precice::cplscheme\l::constants::actionReadIteration\lCheckpoint">
<polygon fill="#ffffff" stroke="#000000" points="493,-82.5 493,-123.5 664,-123.5 664,-82.5 493,-82.5"/>
<text text-anchor="start" x="501" y="-111.5" font-family="Helvetica,sans-Serif" font-size="10.00" fill="#000000">precice::cplscheme</text>
<text text-anchor="start" x="501" y="-100.5" font-family="Helvetica,sans-Serif" font-size="10.00" fill="#000000">::constants::actionReadIteration</text>
<text text-anchor="middle" x="578.5" y="-89.5" font-family="Helvetica,sans-Serif" font-size="10.00" fill="#000000">Checkpoint</text>
</a>
</g>
</g>
<!-- Node207&#45;&gt;Node208 -->
<g id="edge19" class="edge">
<title>Node207&#45;&gt;Node208</title>
<path fill="none" stroke="#191970" d="M455.7239,-103C464.6388,-103 473.7332,-103 482.7384,-103"/>
<polygon fill="#191970" stroke="#191970" points="482.8534,-106.5001 492.8533,-103 482.8533,-99.5001 482.8534,-106.5001"/>
</g>
</g>
</svg>
