<?xml version="1.0" encoding="UTF-8" standalone="no"?>
<!DOCTYPE svg PUBLIC "-//W3C//DTD SVG 1.1//EN"
 "http://www.w3.org/Graphics/SVG/1.1/DTD/svg11.dtd">
<!-- Generated by graphviz version 2.40.1 (20161225.0304)
 -->
<!-- Title: src/acceleration/impl/ParallelMatrixOperations.cpp Pages: 1 -->
<svg width="2561pt" height="520pt"
 viewBox="0.00 0.00 2560.50 520.00" xmlns="http://www.w3.org/2000/svg" xmlns:xlink="http://www.w3.org/1999/xlink">
<g id="graph0" class="graph" transform="scale(1 1) rotate(0) translate(4 516)">
<title>src/acceleration/impl/ParallelMatrixOperations.cpp</title>
<polygon fill="#ffffff" stroke="transparent" points="-4,4 -4,-516 2556.5,-516 2556.5,4 -4,4"/>
<!-- Node0 -->
<g id="node1" class="node">
<title>Node0</title>
<polygon fill="#bfbfbf" stroke="#000000" points="168,-481.5 168,-511.5 328,-511.5 328,-481.5 168,-481.5"/>
<text text-anchor="start" x="176" y="-499.5" font-family="Helvetica,sans-Serif" font-size="10.00" fill="#000000">src/acceleration/impl</text>
<text text-anchor="middle" x="248" y="-488.5" font-family="Helvetica,sans-Serif" font-size="10.00" fill="#000000">/ParallelMatrixOperations.cpp</text>
</g>
<!-- Node1 -->
<g id="node2" class="node">
<title>Node1</title>
<g id="a_node2"><a xlink:href="ParallelMatrixOperations_8hpp.html" target="_top" xlink:title="acceleration/impl/Parallel\lMatrixOperations.hpp">
<polygon fill="#ffffff" stroke="#000000" points="241,-414.5 241,-444.5 381,-444.5 381,-414.5 241,-414.5"/>
<text text-anchor="start" x="249" y="-432.5" font-family="Helvetica,sans-Serif" font-size="10.00" fill="#000000">acceleration/impl/Parallel</text>
<text text-anchor="middle" x="311" y="-421.5" font-family="Helvetica,sans-Serif" font-size="10.00" fill="#000000">MatrixOperations.hpp</text>
</a>
</g>
</g>
<!-- Node0&#45;&gt;Node1 -->
<g id="edge1" class="edge">
<title>Node0&#45;&gt;Node1</title>
<path fill="none" stroke="#191970" d="M262.2957,-481.2967C270.4312,-472.6446 280.7752,-461.6438 289.8361,-452.0076"/>
<polygon fill="#191970" stroke="#191970" points="292.4604,-454.326 296.7609,-444.6432 287.3608,-449.5308 292.4604,-454.326"/>
</g>
<!-- Node27 -->
<g id="node28" class="node">
<title>Node27</title>
<g id="a_node28"><a xlink:href="MasterSlave_8hpp.html" target="_top" xlink:title="utils/MasterSlave.hpp">
<polygon fill="#ffffff" stroke="#000000" points="104,-358.5 104,-377.5 226,-377.5 226,-358.5 104,-358.5"/>
<text text-anchor="middle" x="165" y="-365.5" font-family="Helvetica,sans-Serif" font-size="10.00" fill="#000000">utils/MasterSlave.hpp</text>
</a>
</g>
</g>
<!-- Node0&#45;&gt;Node27 -->
<g id="edge75" class="edge">
<title>Node0&#45;&gt;Node27</title>
<path fill="none" stroke="#191970" d="M238.1529,-481.2548C222.8461,-457.5568 193.3947,-411.9605 176.9135,-386.4444"/>
<polygon fill="#191970" stroke="#191970" points="179.6543,-384.2369 171.2885,-377.7358 173.7742,-388.0349 179.6543,-384.2369"/>
</g>
<!-- Node2 -->
<g id="node3" class="node">
<title>Node2</title>
<polygon fill="#ffffff" stroke="#bfbfbf" points="156.5,-302.5 156.5,-321.5 225.5,-321.5 225.5,-302.5 156.5,-302.5"/>
<text text-anchor="middle" x="191" y="-309.5" font-family="Helvetica,sans-Serif" font-size="10.00" fill="#000000">Eigen/Core</text>
</g>
<!-- Node1&#45;&gt;Node2 -->
<g id="edge2" class="edge">
<title>Node1&#45;&gt;Node2</title>
<path fill="none" stroke="#191970" d="M295.3121,-414.1389C272.8075,-392.1032 231.5115,-351.6675 208.1987,-328.8403"/>
<polygon fill="#191970" stroke="#191970" points="210.3567,-326.055 200.7629,-321.5595 205.4593,-331.0566 210.3567,-326.055"/>
</g>
<!-- Node3 -->
<g id="node4" class="node">
<title>Node3</title>
<polygon fill="#ffffff" stroke="#bfbfbf" points="338,-62 338,-81 396,-81 396,-62 338,-62"/>
<text text-anchor="middle" x="367" y="-69" font-family="Helvetica,sans-Serif" font-size="10.00" fill="#000000">memory</text>
</g>
<!-- Node1&#45;&gt;Node3 -->
<g id="edge3" class="edge">
<title>Node1&#45;&gt;Node3</title>
<path fill="none" stroke="#191970" d="M240.9355,-420.35C181.8353,-411.5128 102.8559,-396.7279 77,-378 49.4061,-358.0133 38,-346.0718 38,-312 38,-312 38,-312 38,-189 38,-128.095 240.4878,-90.4348 327.7538,-77.0324"/>
<polygon fill="#191970" stroke="#191970" points="328.4365,-80.4691 337.8034,-75.5183 327.3936,-73.5472 328.4365,-80.4691"/>
</g>
<!-- Node4 -->
<g id="node5" class="node">
<title>Node4</title>
<polygon fill="#ffffff" stroke="#bfbfbf" points="354,-179.5 354,-198.5 410,-198.5 410,-179.5 354,-179.5"/>
<text text-anchor="middle" x="382" y="-186.5" font-family="Helvetica,sans-Serif" font-size="10.00" fill="#000000">stddef.h</text>
</g>
<!-- Node1&#45;&gt;Node4 -->
<g id="edge4" class="edge">
<title>Node1&#45;&gt;Node4</title>
<path fill="none" stroke="#191970" d="M315.4414,-414.4556C327.7797,-372.6618 362.4683,-255.1602 376.2502,-208.4763"/>
<polygon fill="#191970" stroke="#191970" points="379.6648,-209.2713 379.1395,-198.6895 372.9513,-207.2893 379.6648,-209.2713"/>
</g>
<!-- Node5 -->
<g id="node6" class="node">
<title>Node5</title>
<polygon fill="#ffffff" stroke="#bfbfbf" points="879,-.5 879,-19.5 923,-19.5 923,-.5 879,-.5"/>
<text text-anchor="middle" x="901" y="-7.5" font-family="Helvetica,sans-Serif" font-size="10.00" fill="#000000">string</text>
</g>
<!-- Node1&#45;&gt;Node5 -->
<g id="edge5" class="edge">
<title>Node1&#45;&gt;Node5</title>
<path fill="none" stroke="#191970" d="M240.7035,-421.3449C174.571,-412.6625 81.185,-397.4924 50,-378 18.7941,-358.4945 0,-348.8004 0,-312 0,-312 0,-312 0,-133 0,-43.4895 707.1134,-16.0412 868.4841,-10.9426"/>
<polygon fill="#191970" stroke="#191970" points="868.8409,-14.4334 878.728,-10.6261 868.6246,-7.4367 868.8409,-14.4334"/>
</g>
<!-- Node6 -->
<g id="node7" class="node">
<title>Node6</title>
<polygon fill="#ffffff" stroke="#bfbfbf" points="630.5,-123.5 630.5,-142.5 677.5,-142.5 677.5,-123.5 630.5,-123.5"/>
<text text-anchor="middle" x="654" y="-130.5" font-family="Helvetica,sans-Serif" font-size="10.00" fill="#000000">vector</text>
</g>
<!-- Node1&#45;&gt;Node6 -->
<g id="edge6" class="edge">
<title>Node1&#45;&gt;Node6</title>
<path fill="none" stroke="#191970" d="M381.1877,-426.1898C494.442,-420.1262 712.0761,-405.282 784,-378 824.2401,-362.7362 843.2378,-360.2322 863,-322 885.8687,-277.7578 740.1538,-184.3355 679.5524,-147.9493"/>
<polygon fill="#191970" stroke="#191970" points="680.9786,-144.725 670.5959,-142.6155 677.3969,-150.7394 680.9786,-144.725"/>
</g>
<!-- Node7 -->
<g id="node8" class="node">
<title>Node7</title>
<g id="a_node8"><a xlink:href="Communication_8hpp.html" target="_top" xlink:title="com/Communication.hpp">
<polygon fill="#ffffff" stroke="#000000" points="434.5,-241 434.5,-260 573.5,-260 573.5,-241 434.5,-241"/>
<text text-anchor="middle" x="504" y="-248" font-family="Helvetica,sans-Serif" font-size="10.00" fill="#000000">com/Communication.hpp</text>
</a>
</g>
</g>
<!-- Node1&#45;&gt;Node7 -->
<g id="edge7" class="edge">
<title>Node1&#45;&gt;Node7</title>
<path fill="none" stroke="#191970" d="M327.4551,-414.2386C363.3883,-380.9119 448.6374,-301.8467 485.9668,-267.2251"/>
<polygon fill="#191970" stroke="#191970" points="488.6202,-269.5378 493.5722,-260.1714 483.8601,-264.4054 488.6202,-269.5378"/>
</g>
<!-- Node9 -->
<g id="node10" class="node">
<title>Node9</title>
<g id="a_node10"><a xlink:href="Request_8hpp.html" target="_top" xlink:title="Request.hpp">
<polygon fill="#ffffff" stroke="#000000" points="258.5,-179.5 258.5,-198.5 335.5,-198.5 335.5,-179.5 258.5,-179.5"/>
<text text-anchor="middle" x="297" y="-186.5" font-family="Helvetica,sans-Serif" font-size="10.00" fill="#000000">Request.hpp</text>
</a>
</g>
</g>
<!-- Node1&#45;&gt;Node9 -->
<g id="edge48" class="edge">
<title>Node1&#45;&gt;Node9</title>
<path fill="none" stroke="#191970" d="M304.7019,-414.1714C296.6287,-393.6154 283.0691,-355.7867 278,-322 272.2629,-283.7613 270.4755,-272.9275 278,-235 279.8648,-225.6003 283.6799,-215.7115 287.4054,-207.5215"/>
<polygon fill="#191970" stroke="#191970" points="290.5557,-209.0464 291.7682,-198.5212 284.2567,-205.993 290.5557,-209.0464"/>
</g>
<!-- Node10 -->
<g id="node11" class="node">
<title>Node10</title>
<g id="a_node11"><a xlink:href="com_2SharedPointer_8hpp.html" target="_top" xlink:title="com/SharedPointer.hpp">
<polygon fill="#ffffff" stroke="#000000" points="199.5,-123.5 199.5,-142.5 328.5,-142.5 328.5,-123.5 199.5,-123.5"/>
<text text-anchor="middle" x="264" y="-130.5" font-family="Helvetica,sans-Serif" font-size="10.00" fill="#000000">com/SharedPointer.hpp</text>
</a>
</g>
</g>
<!-- Node1&#45;&gt;Node10 -->
<g id="edge49" class="edge">
<title>Node1&#45;&gt;Node10</title>
<path fill="none" stroke="#191970" d="M240.7765,-420.5091C186.0056,-412.121 115.8423,-397.9001 95,-378 72.9226,-356.9206 76,-342.5246 76,-312 76,-312 76,-312 76,-250.5 76,-190.1702 146.4791,-159.6686 201.1312,-145.0857"/>
<polygon fill="#191970" stroke="#191970" points="202.3014,-148.3997 211.1312,-142.5444 200.5772,-141.6153 202.3014,-148.3997"/>
</g>
<!-- Node11 -->
<g id="node12" class="node">
<title>Node11</title>
<g id="a_node12"><a xlink:href="Logger_8hpp.html" target="_top" xlink:title="logging/Logger.hpp">
<polygon fill="#ffffff" stroke="#000000" points="768.5,-179.5 768.5,-198.5 877.5,-198.5 877.5,-179.5 768.5,-179.5"/>
<text text-anchor="middle" x="823" y="-186.5" font-family="Helvetica,sans-Serif" font-size="10.00" fill="#000000">logging/Logger.hpp</text>
</a>
</g>
</g>
<!-- Node1&#45;&gt;Node11 -->
<g id="edge51" class="edge">
<title>Node1&#45;&gt;Node11</title>
<path fill="none" stroke="#191970" d="M381.1091,-428.5198C528.9296,-425.7246 861.8284,-415.312 896,-378 938.9762,-331.0742 921.3382,-289.8017 889,-235 881.0607,-221.5457 867.4598,-211.067 854.6601,-203.532"/>
<polygon fill="#191970" stroke="#191970" points="856.0274,-200.2907 845.574,-198.5652 852.6698,-206.4329 856.0274,-200.2907"/>
</g>
<!-- Node12 -->
<g id="node13" class="node">
<title>Node12</title>
<g id="a_node13"><a xlink:href="LogMacros_8hpp.html" target="_top" xlink:title="LogMacros.hpp">
<polygon fill="#ffffff" stroke="#000000" points="1458.5,-123.5 1458.5,-142.5 1547.5,-142.5 1547.5,-123.5 1458.5,-123.5"/>
<text text-anchor="middle" x="1503" y="-130.5" font-family="Helvetica,sans-Serif" font-size="10.00" fill="#000000">LogMacros.hpp</text>
</a>
</g>
</g>
<!-- Node1&#45;&gt;Node12 -->
<g id="edge50" class="edge">
<title>Node1&#45;&gt;Node12</title>
<path fill="none" stroke="#191970" d="M381.1304,-428.6562C609.0122,-424.9962 1314,-406.0716 1314,-312 1314,-312 1314,-312 1314,-250.5 1314,-186.7155 1392.5981,-156.3331 1448.4225,-142.7981"/>
<polygon fill="#191970" stroke="#191970" points="1449.2532,-146.1985 1458.2096,-140.5387 1447.6786,-139.3778 1449.2532,-146.1985"/>
</g>
<!-- Node23 -->
<g id="node24" class="node">
<title>Node23</title>
<g id="a_node24"><a xlink:href="MPIPortsCommunication_8hpp.html" target="_top" xlink:title="com/MPIPortsCommunication.hpp">
<polygon fill="#ffffff" stroke="#000000" points="593.5,-358.5 593.5,-377.5 774.5,-377.5 774.5,-358.5 593.5,-358.5"/>
<text text-anchor="middle" x="684" y="-365.5" font-family="Helvetica,sans-Serif" font-size="10.00" fill="#000000">com/MPIPortsCommunication.hpp</text>
</a>
</g>
</g>
<!-- Node1&#45;&gt;Node23 -->
<g id="edge34" class="edge">
<title>Node1&#45;&gt;Node23</title>
<path fill="none" stroke="#191970" d="M381.1584,-417.9323C448.503,-406.8286 549.5452,-390.1688 616.1174,-379.1924"/>
<polygon fill="#191970" stroke="#191970" points="616.7907,-382.6288 626.0881,-377.5485 615.6519,-375.722 616.7907,-382.6288"/>
</g>
<!-- Node1&#45;&gt;Node27 -->
<g id="edge52" class="edge">
<title>Node1&#45;&gt;Node27</title>
<path fill="none" stroke="#191970" d="M275.2844,-414.4554C251.3513,-404.374 220.1095,-391.2139 196.9906,-381.4755"/>
<polygon fill="#191970" stroke="#191970" points="198.1993,-378.1868 187.6248,-377.5303 195.4819,-384.6379 198.1993,-378.1868"/>
</g>
<!-- Node28 -->
<g id="node29" class="node">
<title>Node28</title>
<g id="a_node29"><a xlink:href="assertion_8hpp.html" target="_top" xlink:title="utils/assertion.hpp">
<polygon fill="#ffffff" stroke="#000000" points="2036.5,-302.5 2036.5,-321.5 2143.5,-321.5 2143.5,-302.5 2036.5,-302.5"/>
<text text-anchor="middle" x="2090" y="-309.5" font-family="Helvetica,sans-Serif" font-size="10.00" fill="#000000">utils/assertion.hpp</text>
</a>
</g>
</g>
<!-- Node1&#45;&gt;Node28 -->
<g id="edge56" class="edge">
<title>Node1&#45;&gt;Node28</title>
<path fill="none" stroke="#191970" d="M381.024,-426.8187C546.078,-420.3098 972.3856,-402.3968 1328,-378 1587.255,-360.2139 1895.438,-331.0514 2026.2366,-318.3"/>
<polygon fill="#191970" stroke="#191970" points="2026.856,-321.7562 2036.4684,-317.3006 2026.1755,-314.7894 2026.856,-321.7562"/>
</g>
<!-- Node7&#45;&gt;Node4 -->
<g id="edge9" class="edge">
<title>Node7&#45;&gt;Node4</title>
<path fill="none" stroke="#191970" d="M484.9375,-240.8906C464.8828,-230.7811 433.1066,-214.7628 410.1616,-203.1962"/>
<polygon fill="#191970" stroke="#191970" points="411.4337,-199.918 400.9286,-198.5419 408.2827,-206.1687 411.4337,-199.918"/>
</g>
<!-- Node7&#45;&gt;Node5 -->
<g id="edge10" class="edge">
<title>Node7&#45;&gt;Node5</title>
<path fill="none" stroke="#191970" d="M504.9459,-240.8358C508.6558,-208.6089 525.2617,-104.1427 588,-56 631.5182,-22.606 797.6808,-13.319 868.6052,-10.8499"/>
<polygon fill="#191970" stroke="#191970" points="868.8641,-14.3435 878.7455,-10.5212 868.6373,-7.3471 868.8641,-14.3435"/>
</g>
<!-- Node7&#45;&gt;Node6 -->
<g id="edge11" class="edge">
<title>Node7&#45;&gt;Node6</title>
<path fill="none" stroke="#191970" d="M516.2751,-240.8845C541.9856,-220.7446 601.7298,-173.945 633.4143,-149.1255"/>
<polygon fill="#191970" stroke="#191970" points="635.8413,-151.6703 641.5553,-142.7484 631.5246,-146.1597 635.8413,-151.6703"/>
</g>
<!-- Node8 -->
<g id="node9" class="node">
<title>Node8</title>
<polygon fill="#ffffff" stroke="#bfbfbf" points="428,-179.5 428,-198.5 460,-198.5 460,-179.5 428,-179.5"/>
<text text-anchor="middle" x="444" y="-186.5" font-family="Helvetica,sans-Serif" font-size="10.00" fill="#000000">set</text>
</g>
<!-- Node7&#45;&gt;Node8 -->
<g id="edge8" class="edge">
<title>Node7&#45;&gt;Node8</title>
<path fill="none" stroke="#191970" d="M494.625,-240.8906C485.5201,-231.5581 471.5026,-217.1902 460.5243,-205.9374"/>
<polygon fill="#191970" stroke="#191970" points="462.9957,-203.4586 453.5072,-198.7449 457.9852,-208.3468 462.9957,-203.4586"/>
</g>
<!-- Node7&#45;&gt;Node9 -->
<g id="edge12" class="edge">
<title>Node7&#45;&gt;Node9</title>
<path fill="none" stroke="#191970" d="M471.6563,-240.8906C435.882,-230.2621 378.1253,-213.1025 338.9095,-201.4514"/>
<polygon fill="#191970" stroke="#191970" points="339.6993,-198.0349 329.1166,-198.5419 337.7057,-204.745 339.6993,-198.0349"/>
</g>
<!-- Node7&#45;&gt;Node10 -->
<g id="edge16" class="edge">
<title>Node7&#45;&gt;Node10</title>
<path fill="none" stroke="#191970" d="M502.1066,-240.9581C498.5114,-225.4539 489.1786,-194.9261 469,-179 448.8097,-163.0647 388.6471,-150.7261 338.6825,-142.8577"/>
<polygon fill="#191970" stroke="#191970" points="338.9331,-139.3552 328.5174,-141.2954 337.8697,-146.274 338.9331,-139.3552"/>
</g>
<!-- Node7&#45;&gt;Node11 -->
<g id="edge17" class="edge">
<title>Node7&#45;&gt;Node11</title>
<path fill="none" stroke="#191970" d="M553.4937,-240.9581C610.1541,-230.0345 702.9255,-212.1492 763.4799,-200.4749"/>
<polygon fill="#191970" stroke="#191970" points="764.496,-203.8435 773.6526,-198.5137 763.1708,-196.9701 764.496,-203.8435"/>
</g>
<!-- Node9&#45;&gt;Node6 -->
<g id="edge13" class="edge">
<title>Node9&#45;&gt;Node6</title>
<path fill="none" stroke="#191970" d="M335.7355,-180.7304C338.8657,-180.123 341.9832,-179.5383 345,-179 444.5691,-161.2322 563.0418,-144.9411 620.0435,-137.4034"/>
<polygon fill="#191970" stroke="#191970" points="620.8191,-140.8316 630.2771,-136.0571 619.9059,-133.8915 620.8191,-140.8316"/>
</g>
<!-- Node9&#45;&gt;Node10 -->
<g id="edge14" class="edge">
<title>Node9&#45;&gt;Node10</title>
<path fill="none" stroke="#191970" d="M291.2518,-179.2455C286.7565,-171.617 280.3752,-160.7881 274.9175,-151.5267"/>
<polygon fill="#191970" stroke="#191970" points="277.7747,-149.4811 269.6823,-142.6427 271.7439,-153.035 277.7747,-149.4811"/>
</g>
<!-- Node10&#45;&gt;Node3 -->
<g id="edge15" class="edge">
<title>Node10&#45;&gt;Node3</title>
<path fill="none" stroke="#191970" d="M280.0938,-123.3906C296.7228,-113.4616 322.8976,-97.833 342.1794,-86.3201"/>
<polygon fill="#191970" stroke="#191970" points="344.2276,-89.1736 351.0193,-81.0419 340.639,-83.1634 344.2276,-89.1736"/>
</g>
<!-- Node11&#45;&gt;Node3 -->
<g id="edge18" class="edge">
<title>Node11&#45;&gt;Node3</title>
<path fill="none" stroke="#191970" d="M807.3036,-179.4865C782.6171,-164.9694 732.801,-137.454 687,-123 588.8432,-92.0233 467.5831,-79.0208 406.3487,-74.1214"/>
<polygon fill="#191970" stroke="#191970" points="406.5793,-70.6289 396.34,-73.3506 406.0417,-77.6082 406.5793,-70.6289"/>
</g>
<!-- Node11&#45;&gt;Node5 -->
<g id="edge19" class="edge">
<title>Node11&#45;&gt;Node5</title>
<path fill="none" stroke="#191970" d="M827.1936,-179.3762C839.5731,-150.9669 876.1259,-67.0828 892.6827,-29.0871"/>
<polygon fill="#191970" stroke="#191970" points="895.9994,-30.237 896.7856,-19.6714 889.5822,-27.4407 895.9994,-30.237"/>
</g>
<!-- Node11&#45;&gt;Node12 -->
<g id="edge20" class="edge">
<title>Node11&#45;&gt;Node12</title>
<path fill="none" stroke="#191970" d="M877.7842,-184.4884C1005.2055,-173.9948 1320.3151,-148.0446 1447.9737,-137.5316"/>
<polygon fill="#191970" stroke="#191970" points="1448.6084,-140.9913 1458.2873,-136.6822 1448.0338,-134.0149 1448.6084,-140.9913"/>
</g>
<!-- Node12&#45;&gt;Node5 -->
<g id="edge27" class="edge">
<title>Node12&#45;&gt;Node5</title>
<path fill="none" stroke="#191970" d="M1512.1487,-123.4976C1526.331,-107.6318 1550.1889,-75.5632 1532,-56 1511.4017,-33.8454 1058.8579,-15.7522 933.1408,-11.1401"/>
<polygon fill="#191970" stroke="#191970" points="933.1208,-7.6371 923.0002,-10.7714 932.8664,-14.6325 933.1208,-7.6371"/>
</g>
<!-- Node13 -->
<g id="node14" class="node">
<title>Node13</title>
<polygon fill="#ffffff" stroke="#bfbfbf" points="1687,-56.5 1687,-86.5 1797,-86.5 1797,-56.5 1687,-56.5"/>
<text text-anchor="start" x="1695" y="-74.5" font-family="Helvetica,sans-Serif" font-size="10.00" fill="#000000">boost/preprocessor</text>
<text text-anchor="middle" x="1742" y="-63.5" font-family="Helvetica,sans-Serif" font-size="10.00" fill="#000000">/control/if.hpp</text>
</g>
<!-- Node12&#45;&gt;Node13 -->
<g id="edge21" class="edge">
<title>Node12&#45;&gt;Node13</title>
<path fill="none" stroke="#191970" d="M1540.0815,-123.4581C1576.5283,-114.0795 1632.9181,-99.5692 1676.8526,-88.2639"/>
<polygon fill="#191970" stroke="#191970" points="1677.7809,-91.6391 1686.5931,-85.7574 1676.0364,-84.8599 1677.7809,-91.6391"/>
</g>
<!-- Node14 -->
<g id="node15" class="node">
<title>Node14</title>
<polygon fill="#ffffff" stroke="#bfbfbf" points="1253,-56.5 1253,-86.5 1369,-86.5 1369,-56.5 1253,-56.5"/>
<text text-anchor="start" x="1261" y="-74.5" font-family="Helvetica,sans-Serif" font-size="10.00" fill="#000000">boost/preprocessor</text>
<text text-anchor="middle" x="1311" y="-63.5" font-family="Helvetica,sans-Serif" font-size="10.00" fill="#000000">/facilities/empty.hpp</text>
</g>
<!-- Node12&#45;&gt;Node14 -->
<g id="edge22" class="edge">
<title>Node12&#45;&gt;Node14</title>
<path fill="none" stroke="#191970" d="M1473,-123.3906C1444.97,-114.4123 1402.3905,-100.7735 1367.9182,-89.7316"/>
<polygon fill="#191970" stroke="#191970" points="1368.5595,-86.2619 1357.9685,-86.5446 1366.4242,-92.9283 1368.5595,-86.2619"/>
</g>
<!-- Node15 -->
<g id="node16" class="node">
<title>Node15</title>
<polygon fill="#ffffff" stroke="#bfbfbf" points="1815.5,-56.5 1815.5,-86.5 1926.5,-86.5 1926.5,-56.5 1815.5,-56.5"/>
<text text-anchor="start" x="1823.5" y="-74.5" font-family="Helvetica,sans-Serif" font-size="10.00" fill="#000000">boost/preprocessor</text>
<text text-anchor="middle" x="1871" y="-63.5" font-family="Helvetica,sans-Serif" font-size="10.00" fill="#000000">/seq/for_each_i.hpp</text>
</g>
<!-- Node12&#45;&gt;Node15 -->
<g id="edge23" class="edge">
<title>Node12&#45;&gt;Node15</title>
<path fill="none" stroke="#191970" d="M1547.6116,-127.4124C1604.9131,-119.9741 1707.6275,-105.7612 1805.3486,-87.0275"/>
<polygon fill="#191970" stroke="#191970" points="1806.2451,-90.419 1815.3972,-85.0815 1804.9141,-83.5467 1806.2451,-90.419"/>
</g>
<!-- Node16 -->
<g id="node17" class="node">
<title>Node16</title>
<polygon fill="#ffffff" stroke="#bfbfbf" points="1945,-56.5 1945,-86.5 2055,-86.5 2055,-56.5 1945,-56.5"/>
<text text-anchor="start" x="1953" y="-74.5" font-family="Helvetica,sans-Serif" font-size="10.00" fill="#000000">boost/preprocessor</text>
<text text-anchor="middle" x="2000" y="-63.5" font-family="Helvetica,sans-Serif" font-size="10.00" fill="#000000">/stringize.hpp</text>
</g>
<!-- Node12&#45;&gt;Node16 -->
<g id="edge24" class="edge">
<title>Node12&#45;&gt;Node16</title>
<path fill="none" stroke="#191970" d="M1547.5245,-130.2138C1624.5325,-124.973 1787.6811,-112.0149 1934.8224,-87.0619"/>
<polygon fill="#191970" stroke="#191970" points="1935.676,-90.4666 1944.9384,-85.3228 1934.4899,-83.5678 1935.676,-90.4666"/>
</g>
<!-- Node17 -->
<g id="node18" class="node">
<title>Node17</title>
<polygon fill="#ffffff" stroke="#bfbfbf" points="2073.5,-56.5 2073.5,-86.5 2188.5,-86.5 2188.5,-56.5 2073.5,-56.5"/>
<text text-anchor="start" x="2081.5" y="-74.5" font-family="Helvetica,sans-Serif" font-size="10.00" fill="#000000">boost/preprocessor</text>
<text text-anchor="middle" x="2131" y="-63.5" font-family="Helvetica,sans-Serif" font-size="10.00" fill="#000000">/variadic/to_seq.hpp</text>
</g>
<!-- Node12&#45;&gt;Node17 -->
<g id="edge25" class="edge">
<title>Node12&#45;&gt;Node17</title>
<path fill="none" stroke="#191970" d="M1547.6216,-131.5467C1641.3606,-128.0191 1865.6876,-117.0866 2063.372,-86.9388"/>
<polygon fill="#191970" stroke="#191970" points="2064.012,-90.3815 2073.3603,-85.3955 2062.9431,-83.4636 2064.012,-90.3815"/>
</g>
<!-- Node18 -->
<g id="node19" class="node">
<title>Node18</title>
<polygon fill="#ffffff" stroke="#bfbfbf" points="1387,-62 1387,-81 1523,-81 1523,-62 1387,-62"/>
<text text-anchor="middle" x="1455" y="-69" font-family="Helvetica,sans-Serif" font-size="10.00" fill="#000000">boost/vmd/is_empty.hpp</text>
</g>
<!-- Node12&#45;&gt;Node18 -->
<g id="edge26" class="edge">
<title>Node12&#45;&gt;Node18</title>
<path fill="none" stroke="#191970" d="M1495.5,-123.3906C1488.4262,-114.3273 1477.6458,-100.5149 1468.9854,-89.4188"/>
<polygon fill="#191970" stroke="#191970" points="1471.5176,-86.9746 1462.6057,-81.2449 1465.9994,-91.2815 1471.5176,-86.9746"/>
</g>
<!-- Node19 -->
<g id="node20" class="node">
<title>Node19</title>
<g id="a_node20"><a xlink:href="Tracer_8hpp.html" target="_top" xlink:title="logging/Tracer.hpp">
<polygon fill="#ffffff" stroke="#000000" points="929.5,-62 929.5,-81 1034.5,-81 1034.5,-62 929.5,-62"/>
<text text-anchor="middle" x="982" y="-69" font-family="Helvetica,sans-Serif" font-size="10.00" fill="#000000">logging/Tracer.hpp</text>
</a>
</g>
</g>
<!-- Node12&#45;&gt;Node19 -->
<g id="edge28" class="edge">
<title>Node12&#45;&gt;Node19</title>
<path fill="none" stroke="#191970" d="M1458.3672,-128.7886C1381.4164,-121.3791 1218.8554,-105.0737 1082,-87 1069.9576,-85.4096 1057.1257,-83.5477 1044.8092,-81.6769"/>
<polygon fill="#191970" stroke="#191970" points="1045.029,-78.1696 1034.6132,-80.1091 1043.965,-85.0883 1045.029,-78.1696"/>
</g>
<!-- Node20 -->
<g id="node21" class="node">
<title>Node20</title>
<polygon fill="#ffffff" stroke="#bfbfbf" points="1091,-62 1091,-81 1235,-81 1235,-62 1091,-62"/>
<text text-anchor="middle" x="1163" y="-69" font-family="Helvetica,sans-Serif" font-size="10.00" fill="#000000">prettyprint/prettyprint.hpp</text>
</g>
<!-- Node12&#45;&gt;Node20 -->
<g id="edge30" class="edge">
<title>Node12&#45;&gt;Node20</title>
<path fill="none" stroke="#191970" d="M1458.0493,-125.2032C1406.3677,-116.1956 1319.0017,-100.8358 1244,-87 1236.9336,-85.6964 1229.5247,-84.3083 1222.1792,-82.9187"/>
<polygon fill="#191970" stroke="#191970" points="1222.7176,-79.4585 1212.2401,-81.031 1221.4113,-86.3356 1222.7176,-79.4585"/>
</g>
<!-- Node21 -->
<g id="node22" class="node">
<title>Node21</title>
<g id="a_node22"><a xlink:href="String_8hpp.html" target="_top" xlink:title="utils/String.hpp">
<polygon fill="#ffffff" stroke="#000000" points="1579,-62 1579,-81 1669,-81 1669,-62 1579,-62"/>
<text text-anchor="middle" x="1624" y="-69" font-family="Helvetica,sans-Serif" font-size="10.00" fill="#000000">utils/String.hpp</text>
</a>
</g>
</g>
<!-- Node12&#45;&gt;Node21 -->
<g id="edge31" class="edge">
<title>Node12&#45;&gt;Node21</title>
<path fill="none" stroke="#191970" d="M1521.9063,-123.3906C1541.7966,-113.2811 1573.3123,-97.2628 1596.0692,-85.6962"/>
<polygon fill="#191970" stroke="#191970" points="1597.8978,-88.693 1605.2265,-81.0419 1594.726,-82.4528 1597.8978,-88.693"/>
</g>
<!-- Node19&#45;&gt;Node11 -->
<g id="edge29" class="edge">
<title>Node19&#45;&gt;Node11</title>
<path fill="none" stroke="#191970" d="M968.8086,-81.2484C941.2804,-101.5915 877.5131,-148.7151 844.1731,-173.3532"/>
<polygon fill="#191970" stroke="#191970" points="841.9738,-170.6264 836.0116,-179.3845 846.1341,-176.256 841.9738,-170.6264"/>
</g>
<!-- Node21&#45;&gt;Node5 -->
<g id="edge33" class="edge">
<title>Node21&#45;&gt;Node5</title>
<path fill="none" stroke="#191970" d="M1592.0838,-61.9475C1583.3711,-59.6608 1573.8827,-57.4612 1565,-56 1441.1484,-35.6268 1049.3347,-16.7053 933.5342,-11.4429"/>
<polygon fill="#191970" stroke="#191970" points="933.3553,-7.9314 923.2076,-10.9767 933.0395,-14.9243 933.3553,-7.9314"/>
</g>
<!-- Node22 -->
<g id="node23" class="node">
<title>Node22</title>
<polygon fill="#ffffff" stroke="#bfbfbf" points="1911,-.5 1911,-19.5 1967,-19.5 1967,-.5 1911,-.5"/>
<text text-anchor="middle" x="1939" y="-7.5" font-family="Helvetica,sans-Serif" font-size="10.00" fill="#000000">sstream</text>
</g>
<!-- Node21&#45;&gt;Node22 -->
<g id="edge32" class="edge">
<title>Node21&#45;&gt;Node22</title>
<path fill="none" stroke="#191970" d="M1655.2645,-61.9231C1662.6788,-59.8198 1670.5874,-57.7121 1678,-56 1756.6397,-37.8367 1850.0538,-22.967 1901.0721,-15.4053"/>
<polygon fill="#191970" stroke="#191970" points="1901.6092,-18.8641 1910.9943,-13.9478 1900.5918,-11.9384 1901.6092,-18.8641"/>
</g>
<!-- Node23&#45;&gt;Node4 -->
<g id="edge38" class="edge">
<title>Node23&#45;&gt;Node4</title>
<path fill="none" stroke="#191970" d="M593.3632,-359.5794C554.5416,-353.1692 509.7743,-341.8803 473,-322 441.759,-305.111 436.1998,-295.2096 416,-266 403.4543,-247.8585 393.8832,-224.3421 388.1402,-208.0954"/>
<polygon fill="#191970" stroke="#191970" points="391.4472,-206.9486 384.9263,-198.5983 384.8166,-209.1926 391.4472,-206.9486"/>
</g>
<!-- Node23&#45;&gt;Node5 -->
<g id="edge39" class="edge">
<title>Node23&#45;&gt;Node5</title>
<path fill="none" stroke="#191970" d="M748.8529,-358.4902C839.8289,-343.648 997.9565,-311.8454 1031,-266 1053.6088,-234.632 1047.3694,-214.0308 1031,-179 1004.0184,-121.259 955.081,-140.8564 921,-87 909.9585,-69.5517 904.9924,-46.2226 902.7713,-29.8318"/>
<polygon fill="#191970" stroke="#191970" points="906.2329,-29.2937 901.6313,-19.7503 899.2772,-30.0803 906.2329,-29.2937"/>
</g>
<!-- Node23&#45;&gt;Node8 -->
<g id="edge37" class="edge">
<title>Node23&#45;&gt;Node8</title>
<path fill="none" stroke="#191970" d="M644.6951,-358.4764C578.6428,-341.5568 450.1979,-304.4087 426,-266 414.7442,-248.1339 423.512,-223.9401 432.3051,-207.4718"/>
<polygon fill="#191970" stroke="#191970" points="435.3583,-209.1836 437.3341,-198.7746 429.2984,-205.6795 435.3583,-209.1836"/>
</g>
<!-- Node23&#45;&gt;Node11 -->
<g id="edge47" class="edge">
<title>Node23&#45;&gt;Node11</title>
<path fill="none" stroke="#191970" d="M691.4732,-358.3762C713.8169,-329.6027 780.3505,-243.9228 809.2953,-206.6485"/>
<polygon fill="#191970" stroke="#191970" points="812.1209,-208.7164 815.4898,-198.6714 806.5921,-204.423 812.1209,-208.7164"/>
</g>
<!-- Node24 -->
<g id="node25" class="node">
<title>Node24</title>
<polygon fill="#ffffff" stroke="#bfbfbf" points="816,-302.5 816,-321.5 854,-321.5 854,-302.5 816,-302.5"/>
<text text-anchor="middle" x="835" y="-309.5" font-family="Helvetica,sans-Serif" font-size="10.00" fill="#000000">map</text>
</g>
<!-- Node23&#45;&gt;Node24 -->
<g id="edge35" class="edge">
<title>Node23&#45;&gt;Node24</title>
<path fill="none" stroke="#191970" d="M709.9578,-358.3733C736.6933,-348.4581 778.2682,-333.0396 806.0508,-322.7361"/>
<polygon fill="#191970" stroke="#191970" points="807.4505,-325.9501 815.6094,-319.1912 805.0164,-319.3869 807.4505,-325.9501"/>
</g>
<!-- Node25 -->
<g id="node26" class="node">
<title>Node25</title>
<polygon fill="#ffffff" stroke="#bfbfbf" points="668,-179.5 668,-198.5 712,-198.5 712,-179.5 668,-179.5"/>
<text text-anchor="middle" x="690" y="-186.5" font-family="Helvetica,sans-Serif" font-size="10.00" fill="#000000">mpi.h</text>
</g>
<!-- Node23&#45;&gt;Node25 -->
<g id="edge36" class="edge">
<title>Node23&#45;&gt;Node25</title>
<path fill="none" stroke="#191970" d="M686.4865,-358.2105C688.7014,-348.9529 691.7755,-334.6354 693,-322 696.8812,-281.9498 694.0903,-234.814 691.9111,-208.7855"/>
<polygon fill="#191970" stroke="#191970" points="695.3867,-208.3556 691.0075,-198.7082 688.4147,-208.9809 695.3867,-208.3556"/>
</g>
<!-- Node26 -->
<g id="node27" class="node">
<title>Node26</title>
<g id="a_node27"><a xlink:href="MPICommunication_8hpp.html" target="_top" xlink:title="MPICommunication.hpp">
<polygon fill="#ffffff" stroke="#000000" points="552,-302.5 552,-321.5 684,-321.5 684,-302.5 552,-302.5"/>
<text text-anchor="middle" x="618" y="-309.5" font-family="Helvetica,sans-Serif" font-size="10.00" fill="#000000">MPICommunication.hpp</text>
</a>
</g>
</g>
<!-- Node23&#45;&gt;Node26 -->
<g id="edge40" class="edge">
<title>Node23&#45;&gt;Node26</title>
<path fill="none" stroke="#191970" d="M672.5037,-358.2455C662.7558,-349.9746 648.5741,-337.9416 637.1202,-328.2232"/>
<polygon fill="#191970" stroke="#191970" points="639.2541,-325.4437 629.3646,-321.6427 634.7253,-330.7813 639.2541,-325.4437"/>
</g>
<!-- Node26&#45;&gt;Node5 -->
<g id="edge42" class="edge">
<title>Node26&#45;&gt;Node5</title>
<path fill="none" stroke="#191970" d="M615.9083,-302.4857C611.5713,-281.8994 602,-231.6375 602,-189 602,-189 602,-189 602,-133 602,-75.9065 790.8114,-31.8807 868.3544,-16.2071"/>
<polygon fill="#191970" stroke="#191970" points="869.4006,-19.5677 878.5264,-14.1853 868.0359,-12.702 869.4006,-19.5677"/>
</g>
<!-- Node26&#45;&gt;Node6 -->
<g id="edge43" class="edge">
<title>Node26&#45;&gt;Node6</title>
<path fill="none" stroke="#191970" d="M619.9355,-302.3762C625.6247,-274.0883 642.3757,-190.7987 650.0628,-152.5767"/>
<polygon fill="#191970" stroke="#191970" points="653.5144,-153.1652 652.0549,-142.6714 646.6518,-151.785 653.5144,-153.1652"/>
</g>
<!-- Node26&#45;&gt;Node7 -->
<g id="edge44" class="edge">
<title>Node26&#45;&gt;Node7</title>
<path fill="none" stroke="#191970" d="M600.1875,-302.3906C581.5315,-292.3262 552.0203,-276.4057 530.6026,-264.8514"/>
<polygon fill="#191970" stroke="#191970" points="532.1502,-261.7095 521.6874,-260.0419 528.8266,-267.8702 532.1502,-261.7095"/>
</g>
<!-- Node26&#45;&gt;Node10 -->
<g id="edge45" class="edge">
<title>Node26&#45;&gt;Node10</title>
<path fill="none" stroke="#191970" d="M556.334,-302.4467C460.7623,-286.199 284.1737,-249.9237 249,-199 239.3418,-185.0171 245.3836,-165.7687 252.4688,-151.6671"/>
<polygon fill="#191970" stroke="#191970" points="255.5673,-153.2966 257.3604,-142.8546 249.4469,-149.8992 255.5673,-153.2966"/>
</g>
<!-- Node26&#45;&gt;Node11 -->
<g id="edge46" class="edge">
<title>Node26&#45;&gt;Node11</title>
<path fill="none" stroke="#191970" d="M632.4819,-302.4834C655.1641,-287.6642 700.559,-258.3504 740,-235 758.4871,-224.055 779.6771,-212.3243 796.019,-203.4485"/>
<polygon fill="#191970" stroke="#191970" points="797.8917,-206.4149 805.0236,-198.58 794.5624,-200.2573 797.8917,-206.4149"/>
</g>
<!-- Node26&#45;&gt;Node25 -->
<g id="edge41" class="edge">
<title>Node26&#45;&gt;Node25</title>
<path fill="none" stroke="#191970" d="M626.699,-302.2496C634.4603,-293.2515 645.8279,-279.3084 654,-266 665.5287,-247.2254 675.8545,-224.1606 682.4595,-208.195"/>
<polygon fill="#191970" stroke="#191970" points="685.7362,-209.4279 686.2378,-198.845 679.246,-206.8052 685.7362,-209.4279"/>
</g>
<!-- Node27&#45;&gt;Node2 -->
<g id="edge53" class="edge">
<title>Node27&#45;&gt;Node2</title>
<path fill="none" stroke="#191970" d="M169.5289,-358.2455C173.0334,-350.6973 177.9927,-340.0158 182.2623,-330.8197"/>
<polygon fill="#191970" stroke="#191970" points="185.4864,-332.1867 186.523,-321.6427 179.1373,-329.2389 185.4864,-332.1867"/>
</g>
<!-- Node27&#45;&gt;Node10 -->
<g id="edge54" class="edge">
<title>Node27&#45;&gt;Node10</title>
<path fill="none" stroke="#191970" d="M158.7461,-358.0948C151.3681,-345.1271 140.8382,-321.7257 147,-302 166.7435,-238.796 219.334,-178.4281 246.7824,-149.9904"/>
<polygon fill="#191970" stroke="#191970" points="249.2961,-152.4259 253.8093,-142.8404 244.3036,-147.5193 249.2961,-152.4259"/>
</g>
<!-- Node27&#45;&gt;Node11 -->
<g id="edge55" class="edge">
<title>Node27&#45;&gt;Node11</title>
<path fill="none" stroke="#191970" d="M226.3019,-365.253C356.5477,-359.0441 652.3028,-342.8327 693,-322 738.4433,-298.7378 731.6328,-270.8281 768,-235 778.7755,-224.3842 791.7135,-213.4821 802.3333,-204.9573"/>
<polygon fill="#191970" stroke="#191970" points="804.5959,-207.6302 810.2675,-198.6812 800.2532,-202.1401 804.5959,-207.6302"/>
</g>
<!-- Node28&#45;&gt;Node13 -->
<g id="edge61" class="edge">
<title>Node28&#45;&gt;Node13</title>
<path fill="none" stroke="#191970" d="M2075.927,-302.2742C2024.2399,-266.5538 1844.1552,-142.0986 1772.1197,-92.3155"/>
<polygon fill="#191970" stroke="#191970" points="1774.1029,-89.4315 1763.8864,-86.6255 1770.1231,-95.1902 1774.1029,-89.4315"/>
</g>
<!-- Node28&#45;&gt;Node15 -->
<g id="edge63" class="edge">
<title>Node28&#45;&gt;Node15</title>
<path fill="none" stroke="#191970" d="M2086.885,-302.0381C2075.7419,-266.944 2037.0341,-149.7275 2009,-123 1997.518,-112.0532 1964.7505,-99.6203 1934.0269,-89.7131"/>
<polygon fill="#191970" stroke="#191970" points="1934.743,-86.2688 1924.153,-86.5904 1932.6321,-92.943 1934.743,-86.2688"/>
</g>
<!-- Node28&#45;&gt;Node16 -->
<g id="edge64" class="edge">
<title>Node28&#45;&gt;Node16</title>
<path fill="none" stroke="#191970" d="M2089.5305,-302.3661C2087.7767,-273.516 2079.8966,-185.9232 2047,-123 2041.4181,-112.3232 2033.0721,-102.1638 2024.955,-93.7333"/>
<polygon fill="#191970" stroke="#191970" points="2027.2228,-91.0536 2017.6508,-86.5119 2022.3014,-96.0315 2027.2228,-91.0536"/>
</g>
<!-- Node28&#45;&gt;Node17 -->
<g id="edge65" class="edge">
<title>Node28&#45;&gt;Node17</title>
<path fill="none" stroke="#191970" d="M2091.658,-302.2742C2097.5743,-267.5702 2117.7693,-149.1096 2126.6966,-96.7429"/>
<polygon fill="#191970" stroke="#191970" points="2130.191,-97.0715 2128.4214,-86.6255 2123.2906,-95.895 2130.191,-97.0715"/>
</g>
<!-- Node28&#45;&gt;Node22 -->
<g id="edge59" class="edge">
<title>Node28&#45;&gt;Node22</title>
<path fill="none" stroke="#191970" d="M2103.9155,-302.19C2135.4265,-278.9589 2211.4034,-216.9502 2236,-143 2245.7015,-113.8321 2218.4006,-58.9592 2215,-56 2180.1285,-25.6548 2044.5637,-15.005 1977.2958,-11.5377"/>
<polygon fill="#191970" stroke="#191970" points="1977.2707,-8.0324 1967.112,-11.041 1976.9296,-15.0241 1977.2707,-8.0324"/>
</g>
<!-- Node29 -->
<g id="node30" class="node">
<title>Node29</title>
<polygon fill="#ffffff" stroke="#bfbfbf" points="2257,-241 2257,-260 2309,-260 2309,-241 2257,-241"/>
<text text-anchor="middle" x="2283" y="-248" font-family="Helvetica,sans-Serif" font-size="10.00" fill="#000000">cassert</text>
</g>
<!-- Node28&#45;&gt;Node29 -->
<g id="edge57" class="edge">
<title>Node28&#45;&gt;Node29</title>
<path fill="none" stroke="#191970" d="M2124.5761,-302.4343C2155.7466,-293.6146 2202.733,-279.8316 2243,-266 2245.1175,-265.2726 2247.2893,-264.5024 2249.4734,-263.7093"/>
<polygon fill="#191970" stroke="#191970" points="2250.8568,-266.9288 2258.998,-260.1486 2248.4055,-260.372 2250.8568,-266.9288"/>
</g>
<!-- Node30 -->
<g id="node31" class="node">
<title>Node30</title>
<polygon fill="#ffffff" stroke="#bfbfbf" points="2327,-241 2327,-260 2387,-260 2387,-241 2327,-241"/>
<text text-anchor="middle" x="2357" y="-248" font-family="Helvetica,sans-Serif" font-size="10.00" fill="#000000">iostream</text>
</g>
<!-- Node28&#45;&gt;Node30 -->
<g id="edge58" class="edge">
<title>Node28&#45;&gt;Node30</title>
<path fill="none" stroke="#191970" d="M2143.642,-303.9693C2190.2705,-296.3295 2259.3545,-283.4168 2318,-266 2320.4446,-265.274 2322.9497,-264.4568 2325.4531,-263.5869"/>
<polygon fill="#191970" stroke="#191970" points="2326.8132,-266.8154 2334.9684,-260.052 2324.3755,-260.2535 2326.8132,-266.8154"/>
</g>
<!-- Node31 -->
<g id="node32" class="node">
<title>Node31</title>
<polygon fill="#ffffff" stroke="#bfbfbf" points="2405.5,-241 2405.5,-260 2552.5,-260 2552.5,-241 2405.5,-241"/>
<text text-anchor="middle" x="2479" y="-248" font-family="Helvetica,sans-Serif" font-size="10.00" fill="#000000">boost/current_function.hpp</text>
</g>
<!-- Node28&#45;&gt;Node31 -->
<g id="edge60" class="edge">
<title>Node28&#45;&gt;Node31</title>
<path fill="none" stroke="#191970" d="M2143.7098,-304.5132C2204.8858,-295.8493 2307.7962,-280.8608 2396,-266 2403.6228,-264.7157 2411.6271,-263.3028 2419.5322,-261.8688"/>
<polygon fill="#191970" stroke="#191970" points="2420.2514,-265.2953 2429.4562,-260.0491 2418.9889,-258.4101 2420.2514,-265.2953"/>
</g>
<!-- Node32 -->
<g id="node33" class="node">
<title>Node32</title>
<polygon fill="#ffffff" stroke="#bfbfbf" points="1837.5,-235.5 1837.5,-265.5 1966.5,-265.5 1966.5,-235.5 1837.5,-235.5"/>
<text text-anchor="start" x="1845.5" y="-253.5" font-family="Helvetica,sans-Serif" font-size="10.00" fill="#000000">boost/preprocessor</text>
<text text-anchor="middle" x="1902" y="-242.5" font-family="Helvetica,sans-Serif" font-size="10.00" fill="#000000">/facilities/is_empty.hpp</text>
</g>
<!-- Node28&#45;&gt;Node32 -->
<g id="edge62" class="edge">
<title>Node28&#45;&gt;Node32</title>
<path fill="none" stroke="#191970" d="M2060.625,-302.3906C2033.179,-293.4123 1991.4865,-279.7735 1957.7324,-268.7316"/>
<polygon fill="#191970" stroke="#191970" points="1958.5826,-265.3273 1947.99,-265.5446 1956.4061,-271.9803 1958.5826,-265.3273"/>
</g>
<!-- Node33 -->
<g id="node34" class="node">
<title>Node33</title>
<g id="a_node34"><a xlink:href="Parallel_8hpp.html" target="_top" xlink:title="Parallel.hpp">
<polygon fill="#ffffff" stroke="#000000" points="948,-241 948,-260 1022,-260 1022,-241 948,-241"/>
<text text-anchor="middle" x="985" y="-248" font-family="Helvetica,sans-Serif" font-size="10.00" fill="#000000">Parallel.hpp</text>
</a>
</g>
</g>
<!-- Node28&#45;&gt;Node33 -->
<g id="edge66" class="edge">
<title>Node28&#45;&gt;Node33</title>
<path fill="none" stroke="#191970" d="M2036.3301,-309.0129C1846.907,-298.4704 1211.4357,-263.1025 1032.342,-253.1349"/>
<polygon fill="#191970" stroke="#191970" points="1032.3687,-249.631 1022.1896,-252.5698 1031.9796,-256.6202 1032.3687,-249.631"/>
</g>
<!-- Node35 -->
<g id="node36" class="node">
<title>Node35</title>
<g id="a_node36"><a xlink:href="stacktrace_8hpp.html" target="_top" xlink:title="stacktrace.hpp">
<polygon fill="#ffffff" stroke="#000000" points="2137.5,-123.5 2137.5,-142.5 2226.5,-142.5 2226.5,-123.5 2137.5,-123.5"/>
<text text-anchor="middle" x="2182" y="-130.5" font-family="Helvetica,sans-Serif" font-size="10.00" fill="#000000">stacktrace.hpp</text>
</a>
</g>
</g>
<!-- Node28&#45;&gt;Node35 -->
<g id="edge73" class="edge">
<title>Node28&#45;&gt;Node35</title>
<path fill="none" stroke="#191970" d="M2097.9605,-302.1675C2105.0658,-293.1141 2115.4803,-279.136 2123,-266 2145.1699,-227.2718 2164.8381,-178.6589 2174.8999,-152.2464"/>
<polygon fill="#191970" stroke="#191970" points="2178.2543,-153.2696 2178.4931,-142.6774 2171.7011,-150.8087 2178.2543,-153.2696"/>
</g>
<!-- Node33&#45;&gt;Node3 -->
<g id="edge68" class="edge">
<title>Node33&#45;&gt;Node3</title>
<path fill="none" stroke="#191970" d="M978.4109,-240.6018C967.6149,-225.1524 944.6712,-195.383 918,-179 831.0112,-125.5666 517.4095,-87.5967 406.3357,-75.5642"/>
<polygon fill="#191970" stroke="#191970" points="406.5494,-72.0671 396.2333,-74.4811 405.8032,-79.0272 406.5494,-72.0671"/>
</g>
<!-- Node33&#45;&gt;Node5 -->
<g id="edge69" class="edge">
<title>Node33&#45;&gt;Node5</title>
<path fill="none" stroke="#191970" d="M997.0647,-240.8733C1007.9301,-231.451 1023.3349,-216.0587 1031,-199 1057.1563,-140.7888 1081.5868,-107.5745 1044,-56 1030.8375,-37.9392 971.2061,-23.4438 933.2252,-15.8347"/>
<polygon fill="#191970" stroke="#191970" points="933.6276,-12.3475 923.1433,-13.8739 932.2912,-19.2187 933.6276,-12.3475"/>
</g>
<!-- Node33&#45;&gt;Node6 -->
<g id="edge70" class="edge">
<title>Node33&#45;&gt;Node6</title>
<path fill="none" stroke="#191970" d="M975.0746,-240.9093C958.3585,-225.335 922.8856,-194.7087 887,-179 820.2446,-149.7783 734.6117,-138.9801 687.9819,-135.0947"/>
<polygon fill="#191970" stroke="#191970" points="688.0632,-131.5906 677.8226,-134.3071 687.5221,-138.5696 688.0632,-131.5906"/>
</g>
<!-- Node33&#45;&gt;Node11 -->
<g id="edge71" class="edge">
<title>Node33&#45;&gt;Node11</title>
<path fill="none" stroke="#191970" d="M959.6875,-240.8906C932.2253,-230.4652 888.2105,-213.7559 857.5737,-202.1252"/>
<polygon fill="#191970" stroke="#191970" points="858.726,-198.819 848.1348,-198.5419 856.2415,-205.3633 858.726,-198.819"/>
</g>
<!-- Node33&#45;&gt;Node25 -->
<g id="edge72" class="edge">
<title>Node33&#45;&gt;Node25</title>
<path fill="none" stroke="#191970" d="M947.9367,-242.7733C889.64,-230.6199 777.4899,-207.2394 722.2957,-195.7328"/>
<polygon fill="#191970" stroke="#191970" points="722.8673,-192.2768 712.3634,-193.6622 721.4386,-199.1295 722.8673,-192.2768"/>
</g>
<!-- Node34 -->
<g id="node35" class="node">
<title>Node34</title>
<polygon fill="#ffffff" stroke="#bfbfbf" points="972.5,-179.5 972.5,-198.5 1021.5,-198.5 1021.5,-179.5 972.5,-179.5"/>
<text text-anchor="middle" x="997" y="-186.5" font-family="Helvetica,sans-Serif" font-size="10.00" fill="#000000">iosfwd</text>
</g>
<!-- Node33&#45;&gt;Node34 -->
<g id="edge67" class="edge">
<title>Node33&#45;&gt;Node34</title>
<path fill="none" stroke="#191970" d="M986.875,-240.8906C988.5559,-232.276 991.074,-219.3708 993.1784,-208.5858"/>
<polygon fill="#191970" stroke="#191970" points="996.6186,-209.2301 995.0986,-198.7449 989.7482,-207.8895 996.6186,-209.2301"/>
</g>
<!-- Node35&#45;&gt;Node5 -->
<g id="edge74" class="edge">
<title>Node35&#45;&gt;Node5</title>
<path fill="none" stroke="#191970" d="M2188.5602,-123.497C2198.8412,-107.3385 2215.826,-74.4694 2198,-56 2175.3372,-32.5192 1130.912,-13.8555 933.1344,-10.5286"/>
<polygon fill="#191970" stroke="#191970" points="933.1464,-7.0284 923.0893,-10.3606 933.0293,-14.0274 933.1464,-7.0284"/>
</g>
</g>
</svg>
