<?xml version="1.0" encoding="UTF-8" standalone="no"?>
<!DOCTYPE svg PUBLIC "-//W3C//DTD SVG 1.1//EN"
 "http://www.w3.org/Graphics/SVG/1.1/DTD/svg11.dtd">
<!-- Generated by graphviz version 2.40.1 (20161225.0304)
 -->
<!-- Title: src/precice/impl/Participant.cpp Pages: 1 -->
<svg width="3339pt" height="487pt"
 viewBox="0.00 0.00 3338.50 487.00" xmlns="http://www.w3.org/2000/svg" xmlns:xlink="http://www.w3.org/1999/xlink">
<g id="graph0" class="graph" transform="scale(1 1) rotate(0) translate(4 483)">
<title>src/precice/impl/Participant.cpp</title>
<polygon fill="#ffffff" stroke="transparent" points="-4,4 -4,-483 3334.5,-483 3334.5,4 -4,4"/>
<!-- Node0 -->
<g id="node1" class="node">
<title>Node0</title>
<polygon fill="#bfbfbf" stroke="#000000" points="2196.5,-459.5 2196.5,-478.5 2365.5,-478.5 2365.5,-459.5 2196.5,-459.5"/>
<text text-anchor="middle" x="2281" y="-466.5" font-family="Helvetica,sans-Serif" font-size="10.00" fill="#000000">src/precice/impl/Participant.cpp</text>
</g>
<!-- Node1 -->
<g id="node2" class="node">
<title>Node1</title>
<g id="a_node2"><a xlink:href="Participant_8hpp.html" target="_top" xlink:title="Participant.hpp">
<polygon fill="#ffffff" stroke="#000000" points="1510.5,-403.5 1510.5,-422.5 1599.5,-422.5 1599.5,-403.5 1510.5,-403.5"/>
<text text-anchor="middle" x="1555" y="-410.5" font-family="Helvetica,sans-Serif" font-size="10.00" fill="#000000">Participant.hpp</text>
</a>
</g>
</g>
<!-- Node0&#45;&gt;Node1 -->
<g id="edge1" class="edge">
<title>Node0&#45;&gt;Node1</title>
<path fill="none" stroke="#191970" d="M2196.2977,-462.4665C2045.8595,-450.8624 1736.0485,-426.9652 1610.0801,-417.2486"/>
<polygon fill="#191970" stroke="#191970" points="1610.1393,-413.7429 1599.8998,-416.4633 1609.6009,-420.7221 1610.1393,-413.7429"/>
</g>
<!-- Node6 -->
<g id="node7" class="node">
<title>Node6</title>
<polygon fill="#ffffff" stroke="#bfbfbf" points="2614.5,-235.5 2614.5,-254.5 2659.5,-254.5 2659.5,-235.5 2614.5,-235.5"/>
<text text-anchor="middle" x="2637" y="-242.5" font-family="Helvetica,sans-Serif" font-size="10.00" fill="#000000">utility</text>
</g>
<!-- Node0&#45;&gt;Node6 -->
<g id="edge73" class="edge">
<title>Node0&#45;&gt;Node6</title>
<path fill="none" stroke="#191970" d="M2365.7902,-463.8797C2465.6496,-456.9671 2620.2805,-443.1492 2638,-423 2677.2087,-378.415 2657.0028,-300.4956 2644.4786,-264.3877"/>
<polygon fill="#191970" stroke="#191970" points="2647.6265,-262.8035 2640.9127,-254.6074 2641.0499,-265.2013 2647.6265,-262.8035"/>
</g>
<!-- Node8 -->
<g id="node9" class="node">
<title>Node8</title>
<g id="a_node9"><a xlink:href="precice_2impl_2SharedPointer_8hpp.html" target="_top" xlink:title="SharedPointer.hpp">
<polygon fill="#ffffff" stroke="#000000" points="1400.5,-235.5 1400.5,-254.5 1505.5,-254.5 1505.5,-235.5 1400.5,-235.5"/>
<text text-anchor="middle" x="1453" y="-242.5" font-family="Helvetica,sans-Serif" font-size="10.00" fill="#000000">SharedPointer.hpp</text>
</a>
</g>
</g>
<!-- Node0&#45;&gt;Node8 -->
<g id="edge141" class="edge">
<title>Node0&#45;&gt;Node8</title>
<path fill="none" stroke="#191970" d="M2209.0581,-459.4521C2110.9008,-445.2677 1930.263,-415.0216 1782,-367 1704.036,-341.7479 1690.9389,-319.2215 1614,-291 1577.3064,-277.5406 1534.747,-265.5307 1502.6043,-257.1603"/>
<polygon fill="#191970" stroke="#191970" points="1503.1119,-253.6769 1492.555,-254.5732 1501.3667,-260.4559 1503.1119,-253.6769"/>
</g>
<!-- Node16 -->
<g id="node15" class="node">
<title>Node16</title>
<g id="a_node15"><a xlink:href="LogMacros_8hpp.html" target="_top" xlink:title="LogMacros.hpp">
<polygon fill="#ffffff" stroke="#000000" points="1393.5,-123.5 1393.5,-142.5 1482.5,-142.5 1482.5,-123.5 1393.5,-123.5"/>
<text text-anchor="middle" x="1438" y="-130.5" font-family="Helvetica,sans-Serif" font-size="10.00" fill="#000000">LogMacros.hpp</text>
</a>
</g>
</g>
<!-- Node0&#45;&gt;Node16 -->
<g id="edge125" class="edge">
<title>Node0&#45;&gt;Node16</title>
<path fill="none" stroke="#191970" d="M2196.2804,-467.4071C1955.1943,-461.9923 1278.5469,-440.3362 1214,-367 1158.7012,-304.1711 1149.8037,-243.6188 1203,-179 1225.4011,-151.7889 1321.2226,-140.4438 1383.3777,-135.8847"/>
<polygon fill="#191970" stroke="#191970" points="1383.6942,-139.3713 1393.4268,-135.1849 1383.2078,-132.3882 1383.6942,-139.3713"/>
</g>
<!-- Node54 -->
<g id="node28" class="node">
<title>Node54</title>
<g id="a_node28"><a xlink:href="Mesh_8hpp.html" target="_top" xlink:title="mesh/Mesh.hpp">
<polygon fill="#ffffff" stroke="#ff0000" points="2059.5,-291.5 2059.5,-310.5 2152.5,-310.5 2152.5,-291.5 2059.5,-291.5"/>
<text text-anchor="middle" x="2106" y="-298.5" font-family="Helvetica,sans-Serif" font-size="10.00" fill="#000000">mesh/Mesh.hpp</text>
</a>
</g>
</g>
<!-- Node0&#45;&gt;Node54 -->
<g id="edge127" class="edge">
<title>Node0&#45;&gt;Node54</title>
<path fill="none" stroke="#191970" d="M2271.4916,-459.3648C2250.8995,-438.5607 2200.5243,-388.0034 2157,-347 2146.4226,-337.0352 2134.3574,-326.1326 2124.6185,-317.4437"/>
<polygon fill="#191970" stroke="#191970" points="2126.8686,-314.761 2117.0686,-310.7348 2122.2188,-319.9936 2126.8686,-314.761"/>
</g>
<!-- Node57 -->
<g id="node30" class="node">
<title>Node57</title>
<g id="a_node30"><a xlink:href="Data_8hpp.html" target="_top" xlink:title="mesh/Data.hpp">
<polygon fill="#ffffff" stroke="#000000" points="458.5,-235.5 458.5,-254.5 549.5,-254.5 549.5,-235.5 458.5,-235.5"/>
<text text-anchor="middle" x="504" y="-242.5" font-family="Helvetica,sans-Serif" font-size="10.00" fill="#000000">mesh/Data.hpp</text>
</a>
</g>
</g>
<!-- Node0&#45;&gt;Node57 -->
<g id="edge126" class="edge">
<title>Node0&#45;&gt;Node57</title>
<path fill="none" stroke="#191970" d="M2196.2523,-468.3465C1898.4645,-465.7844 910.5554,-454.9425 772,-423 653.7552,-395.7399 602.4839,-402.6911 523,-311 511.9071,-298.2034 507.2746,-279.2904 505.3485,-264.9869"/>
<polygon fill="#191970" stroke="#191970" points="508.7978,-264.3074 504.3123,-254.7089 501.8331,-265.0096 508.7978,-264.3074"/>
</g>
<!-- Node63 -->
<g id="node31" class="node">
<title>Node63</title>
<g id="a_node31"><a xlink:href="ManageUniqueIDs_8hpp.html" target="_top" xlink:title="utils/ManageUniqueIDs.hpp">
<polygon fill="#ffffff" stroke="#ff0000" points="1872,-235.5 1872,-254.5 2022,-254.5 2022,-235.5 1872,-235.5"/>
<text text-anchor="middle" x="1947" y="-242.5" font-family="Helvetica,sans-Serif" font-size="10.00" fill="#000000">utils/ManageUniqueIDs.hpp</text>
</a>
</g>
</g>
<!-- Node0&#45;&gt;Node63 -->
<g id="edge142" class="edge">
<title>Node0&#45;&gt;Node63</title>
<path fill="none" stroke="#191970" d="M2266.7182,-459.4997C2252.7577,-450.2082 2230.9051,-435.6509 2212,-423 2122.1819,-362.8956 2015.439,-291.0781 1969.669,-260.2652"/>
<polygon fill="#191970" stroke="#191970" points="1971.6009,-257.3466 1961.351,-254.665 1967.6915,-263.1532 1971.6009,-257.3466"/>
</g>
<!-- Node36 -->
<g id="node33" class="node">
<title>Node36</title>
<g id="a_node33"><a xlink:href="assertion_8hpp.html" target="_top" xlink:title="utils/assertion.hpp">
<polygon fill="#ffffff" stroke="#ff0000" points="2050.5,-123.5 2050.5,-142.5 2157.5,-142.5 2157.5,-123.5 2050.5,-123.5"/>
<text text-anchor="middle" x="2104" y="-130.5" font-family="Helvetica,sans-Serif" font-size="10.00" fill="#000000">utils/assertion.hpp</text>
</a>
</g>
</g>
<!-- Node0&#45;&gt;Node36 -->
<g id="edge143" class="edge">
<title>Node0&#45;&gt;Node36</title>
<path fill="none" stroke="#191970" d="M2365.5699,-467.0403C2586.3274,-460.8068 3163,-436.8785 3163,-357 3163,-357 3163,-357 3163,-301 3163,-266.2309 3150.2024,-253.8708 3121,-235 3040.9394,-183.2644 2378.7978,-146.5178 2168.1126,-136.0461"/>
<polygon fill="#191970" stroke="#191970" points="2167.9939,-132.536 2157.8333,-135.5382 2167.6484,-139.5275 2167.9939,-132.536"/>
</g>
<!-- Node32 -->
<g id="node35" class="node">
<title>Node32</title>
<polygon fill="#ffffff" stroke="#bfbfbf" points="3191,-403.5 3191,-422.5 3255,-422.5 3255,-403.5 3191,-403.5"/>
<text text-anchor="middle" x="3223" y="-410.5" font-family="Helvetica,sans-Serif" font-size="10.00" fill="#000000">algorithm</text>
</g>
<!-- Node0&#45;&gt;Node32 -->
<g id="edge71" class="edge">
<title>Node0&#45;&gt;Node32</title>
<path fill="none" stroke="#191970" d="M2365.8155,-466.4101C2557.9708,-460.2558 3021.8366,-443.7083 3177,-423 3178.2759,-422.8297 3179.5689,-422.6425 3180.8721,-422.4412"/>
<polygon fill="#191970" stroke="#191970" points="3181.7065,-425.8481 3190.947,-420.6652 3180.4912,-418.9544 3181.7065,-425.8481"/>
</g>
<!-- Node70 -->
<g id="node36" class="node">
<title>Node70</title>
<polygon fill="#ffffff" stroke="#bfbfbf" points="3273.5,-403.5 3273.5,-422.5 3330.5,-422.5 3330.5,-403.5 3273.5,-403.5"/>
<text text-anchor="middle" x="3302" y="-410.5" font-family="Helvetica,sans-Serif" font-size="10.00" fill="#000000">ostream</text>
</g>
<!-- Node0&#45;&gt;Node70 -->
<g id="edge72" class="edge">
<title>Node0&#45;&gt;Node70</title>
<path fill="none" stroke="#191970" d="M2365.6317,-467.3279C2567.3745,-462.9796 3073.2404,-449.8474 3262.9402,-422.7878"/>
<polygon fill="#191970" stroke="#191970" points="3263.7091,-426.212 3273.086,-421.28 3262.6801,-419.2881 3263.7091,-426.212"/>
</g>
<!-- Node71 -->
<g id="node37" class="node">
<title>Node71</title>
<g id="a_node37"><a xlink:href="DataContext_8hpp.html" target="_top" xlink:title="DataContext.hpp">
<polygon fill="#ffffff" stroke="#000000" points="2802.5,-403.5 2802.5,-422.5 2901.5,-422.5 2901.5,-403.5 2802.5,-403.5"/>
<text text-anchor="middle" x="2852" y="-410.5" font-family="Helvetica,sans-Serif" font-size="10.00" fill="#000000">DataContext.hpp</text>
</a>
</g>
</g>
<!-- Node0&#45;&gt;Node71 -->
<g id="edge74" class="edge">
<title>Node0&#45;&gt;Node71</title>
<path fill="none" stroke="#191970" d="M2365.5602,-460.7069C2482.3141,-449.2564 2690.0048,-428.8874 2792.0448,-418.88"/>
<polygon fill="#191970" stroke="#191970" points="2792.5656,-422.3458 2802.1762,-417.8864 2791.8823,-415.3792 2792.5656,-422.3458"/>
</g>
<!-- Node72 -->
<g id="node38" class="node">
<title>Node72</title>
<g id="a_node38"><a xlink:href="MappingContext_8hpp.html" target="_top" xlink:title="MappingContext.hpp">
<polygon fill="#ffffff" stroke="#000000" points="2915.5,-347.5 2915.5,-366.5 3032.5,-366.5 3032.5,-347.5 2915.5,-347.5"/>
<text text-anchor="middle" x="2974" y="-354.5" font-family="Helvetica,sans-Serif" font-size="10.00" fill="#000000">MappingContext.hpp</text>
</a>
</g>
</g>
<!-- Node0&#45;&gt;Node72 -->
<g id="edge85" class="edge">
<title>Node0&#45;&gt;Node72</title>
<path fill="none" stroke="#191970" d="M2365.6541,-466.1551C2525.9052,-460.2815 2861.9149,-445.4552 2910,-423 2932.2439,-412.6123 2950.862,-390.8813 2962.1813,-375.1877"/>
<polygon fill="#191970" stroke="#191970" points="2965.1846,-376.9975 2967.9747,-366.7766 2959.4198,-373.0267 2965.1846,-376.9975"/>
</g>
<!-- Node74 -->
<g id="node40" class="node">
<title>Node74</title>
<g id="a_node40"><a xlink:href="MeshContext_8hpp.html" target="_top" xlink:title="MeshContext.hpp">
<polygon fill="#ffffff" stroke="#000000" points="2409.5,-403.5 2409.5,-422.5 2510.5,-422.5 2510.5,-403.5 2409.5,-403.5"/>
<text text-anchor="middle" x="2460" y="-410.5" font-family="Helvetica,sans-Serif" font-size="10.00" fill="#000000">MeshContext.hpp</text>
</a>
</g>
</g>
<!-- Node0&#45;&gt;Node74 -->
<g id="edge86" class="edge">
<title>Node0&#45;&gt;Node74</title>
<path fill="none" stroke="#191970" d="M2311.7712,-459.3733C2341.665,-450.021 2387.2093,-435.7725 2419.9217,-425.5385"/>
<polygon fill="#191970" stroke="#191970" points="2421.1315,-428.8273 2429.6303,-422.5011 2419.0414,-422.1466 2421.1315,-428.8273"/>
</g>
<!-- Node79 -->
<g id="node44" class="node">
<title>Node79</title>
<g id="a_node44"><a xlink:href="WatchIntegral_8hpp.html" target="_top" xlink:title="WatchIntegral.hpp">
<polygon fill="#ffffff" stroke="#000000" points="532.5,-291.5 532.5,-310.5 637.5,-310.5 637.5,-291.5 532.5,-291.5"/>
<text text-anchor="middle" x="585" y="-298.5" font-family="Helvetica,sans-Serif" font-size="10.00" fill="#000000">WatchIntegral.hpp</text>
</a>
</g>
</g>
<!-- Node0&#45;&gt;Node79 -->
<g id="edge102" class="edge">
<title>Node0&#45;&gt;Node79</title>
<path fill="none" stroke="#191970" d="M2196.3396,-468.4049C1906.3992,-466.078 963.9595,-456.0288 832,-423 743.1732,-400.7671 649.0607,-343.5545 607.2487,-316.1167"/>
<polygon fill="#191970" stroke="#191970" points="609.1796,-313.1975 598.9123,-310.5835 605.3085,-319.0298 609.1796,-313.1975"/>
</g>
<!-- Node82 -->
<g id="node46" class="node">
<title>Node82</title>
<g id="a_node46"><a xlink:href="WatchPoint_8hpp.html" target="_top" xlink:title="WatchPoint.hpp">
<polygon fill="#ffffff" stroke="#000000" points="384,-291.5 384,-310.5 476,-310.5 476,-291.5 384,-291.5"/>
<text text-anchor="middle" x="430" y="-298.5" font-family="Helvetica,sans-Serif" font-size="10.00" fill="#000000">WatchPoint.hpp</text>
</a>
</g>
</g>
<!-- Node0&#45;&gt;Node82 -->
<g id="edge113" class="edge">
<title>Node0&#45;&gt;Node82</title>
<path fill="none" stroke="#191970" d="M2196.2435,-468.0096C1845.7671,-463.766 526.3304,-446.2714 490,-423 454.2054,-400.0718 439.0792,-349.0254 433.256,-320.7698"/>
<polygon fill="#191970" stroke="#191970" points="436.6783,-320.0291 431.4023,-310.8414 429.7972,-321.3139 436.6783,-320.0291"/>
</g>
<!-- Node84 -->
<g id="node48" class="node">
<title>Node84</title>
<g id="a_node48"><a xlink:href="Action_8hpp.html" target="_top" xlink:title="action/Action.hpp">
<polygon fill="#ffffff" stroke="#000000" points="2528.5,-403.5 2528.5,-422.5 2629.5,-422.5 2629.5,-403.5 2528.5,-403.5"/>
<text text-anchor="middle" x="2579" y="-410.5" font-family="Helvetica,sans-Serif" font-size="10.00" fill="#000000">action/Action.hpp</text>
</a>
</g>
</g>
<!-- Node0&#45;&gt;Node84 -->
<g id="edge122" class="edge">
<title>Node0&#45;&gt;Node84</title>
<path fill="none" stroke="#191970" d="M2331.8894,-459.4369C2383.5327,-449.7321 2463.4826,-434.708 2518.3749,-424.3926"/>
<polygon fill="#191970" stroke="#191970" points="2519.1389,-427.8104 2528.3205,-422.5237 2517.8461,-420.9308 2519.1389,-427.8104"/>
</g>
<!-- Node85 -->
<g id="node49" class="node">
<title>Node85</title>
<g id="a_node49"><a xlink:href="DataConfiguration_8hpp.html" target="_top" xlink:title="mesh/config/DataConfiguration.hpp">
<polygon fill="#ffffff" stroke="#ff0000" points="694,-291.5 694,-310.5 882,-310.5 882,-291.5 694,-291.5"/>
<text text-anchor="middle" x="788" y="-298.5" font-family="Helvetica,sans-Serif" font-size="10.00" fill="#000000">mesh/config/DataConfiguration.hpp</text>
</a>
</g>
</g>
<!-- Node0&#45;&gt;Node85 -->
<g id="edge128" class="edge">
<title>Node0&#45;&gt;Node85</title>
<path fill="none" stroke="#191970" d="M2196.2436,-468.5287C1898.5316,-466.5794 915.4853,-457.5445 858,-423 820.12,-400.2369 800.8143,-348.6869 792.7521,-320.4274"/>
<polygon fill="#191970" stroke="#191970" points="796.0716,-319.2909 790.1187,-310.5266 789.3068,-321.0903 796.0716,-319.2909"/>
</g>
<!-- Node86 -->
<g id="node50" class="node">
<title>Node86</title>
<g id="a_node50"><a xlink:href="MeshConfiguration_8hpp.html" target="_top" xlink:title="mesh/config/MeshConfiguration.hpp">
<polygon fill="#ffffff" stroke="#ff0000" points="2285.5,-291.5 2285.5,-310.5 2476.5,-310.5 2476.5,-291.5 2285.5,-291.5"/>
<text text-anchor="middle" x="2381" y="-298.5" font-family="Helvetica,sans-Serif" font-size="10.00" fill="#000000">mesh/config/MeshConfiguration.hpp</text>
</a>
</g>
</g>
<!-- Node0&#45;&gt;Node86 -->
<g id="edge133" class="edge">
<title>Node0&#45;&gt;Node86</title>
<path fill="none" stroke="#191970" d="M2286.663,-459.4862C2302.6759,-432.5845 2348.5004,-355.5994 2369.829,-319.7673"/>
<polygon fill="#191970" stroke="#191970" points="2373.0427,-321.211 2375.1501,-310.8279 2367.0277,-317.6306 2373.0427,-321.211"/>
</g>
<!-- Node2 -->
<g id="node3" class="node">
<title>Node2</title>
<polygon fill="#ffffff" stroke="#bfbfbf" points="204.5,-179.5 204.5,-198.5 273.5,-198.5 273.5,-179.5 204.5,-179.5"/>
<text text-anchor="middle" x="239" y="-186.5" font-family="Helvetica,sans-Serif" font-size="10.00" fill="#000000">Eigen/Core</text>
</g>
<!-- Node1&#45;&gt;Node2 -->
<g id="edge2" class="edge">
<title>Node1&#45;&gt;Node2</title>
<path fill="none" stroke="#191970" d="M1510.2279,-411.9146C1270.1171,-405.6309 142.2099,-370.0959 45,-255 39.2644,-248.2091 39.4872,-241.9729 45,-235 63.2263,-211.9467 142.6245,-199.2376 194.0268,-193.2927"/>
<polygon fill="#191970" stroke="#191970" points="194.6708,-196.7427 204.2228,-192.1591 193.8973,-189.7856 194.6708,-196.7427"/>
</g>
<!-- Node3 -->
<g id="node4" class="node">
<title>Node3</title>
<polygon fill="#ffffff" stroke="#bfbfbf" points="1500,-123.5 1500,-142.5 1558,-142.5 1558,-123.5 1500,-123.5"/>
<text text-anchor="middle" x="1529" y="-130.5" font-family="Helvetica,sans-Serif" font-size="10.00" fill="#000000">memory</text>
</g>
<!-- Node1&#45;&gt;Node3 -->
<g id="edge3" class="edge">
<title>Node1&#45;&gt;Node3</title>
<path fill="none" stroke="#191970" d="M1510.4966,-411.2583C1446.692,-407.7207 1334.1192,-397.2517 1309,-367 1287.0814,-340.6029 1230.4384,-314.7262 1381,-179 1389.3083,-171.5104 1449.2697,-154.3417 1490.2743,-143.2285"/>
<polygon fill="#191970" stroke="#191970" points="1491.245,-146.5918 1499.9909,-140.6118 1489.4247,-139.8326 1491.245,-146.5918"/>
</g>
<!-- Node4 -->
<g id="node5" class="node">
<title>Node4</title>
<polygon fill="#ffffff" stroke="#bfbfbf" points="1212,-179.5 1212,-198.5 1268,-198.5 1268,-179.5 1212,-179.5"/>
<text text-anchor="middle" x="1240" y="-186.5" font-family="Helvetica,sans-Serif" font-size="10.00" fill="#000000">stddef.h</text>
</g>
<!-- Node1&#45;&gt;Node4 -->
<g id="edge4" class="edge">
<title>Node1&#45;&gt;Node4</title>
<path fill="none" stroke="#191970" d="M1510.3489,-411.6347C1440.1871,-408.5355 1308.7287,-398.5664 1276,-367 1232.4005,-324.9488 1233.9664,-245.7601 1237.4622,-208.861"/>
<polygon fill="#191970" stroke="#191970" points="1240.9484,-209.1775 1238.5612,-198.8551 1233.9903,-208.4132 1240.9484,-209.1775"/>
</g>
<!-- Node5 -->
<g id="node6" class="node">
<title>Node5</title>
<polygon fill="#ffffff" stroke="#bfbfbf" points="852,-.5 852,-19.5 896,-19.5 896,-.5 852,-.5"/>
<text text-anchor="middle" x="874" y="-7.5" font-family="Helvetica,sans-Serif" font-size="10.00" fill="#000000">string</text>
</g>
<!-- Node1&#45;&gt;Node5 -->
<g id="edge5" class="edge">
<title>Node1&#45;&gt;Node5</title>
<path fill="none" stroke="#191970" d="M1510.4177,-410.1546C1355.4704,-399.8965 841.3038,-362.669 685,-311 666.5047,-304.886 664.4456,-297.2624 646,-291 561.7195,-262.3859 514.9899,-314.727 449,-255 426.3686,-234.5165 430,-219.5246 430,-189 430,-189 430,-189 430,-133 430,-47.4428 740.0582,-18.9847 841.9675,-11.9419"/>
<polygon fill="#191970" stroke="#191970" points="842.2375,-15.4317 851.982,-11.273 841.7709,-8.4473 842.2375,-15.4317"/>
</g>
<!-- Node1&#45;&gt;Node6 -->
<g id="edge6" class="edge">
<title>Node1&#45;&gt;Node6</title>
<path fill="none" stroke="#191970" d="M1599.6963,-410.9293C1699.1962,-406.0193 1946.4069,-392.1563 2152,-367 2300.9671,-348.7724 2341.1084,-353.6458 2485,-311 2530.299,-297.5745 2580.0318,-274.2129 2609.8677,-259.1884"/>
<polygon fill="#191970" stroke="#191970" points="2611.5023,-262.2838 2618.8246,-254.6265 2608.3253,-256.0462 2611.5023,-262.2838"/>
</g>
<!-- Node7 -->
<g id="node8" class="node">
<title>Node7</title>
<polygon fill="#ffffff" stroke="#bfbfbf" points="2190.5,-179.5 2190.5,-198.5 2237.5,-198.5 2237.5,-179.5 2190.5,-179.5"/>
<text text-anchor="middle" x="2214" y="-186.5" font-family="Helvetica,sans-Serif" font-size="10.00" fill="#000000">vector</text>
</g>
<!-- Node1&#45;&gt;Node7 -->
<g id="edge7" class="edge">
<title>Node1&#45;&gt;Node7</title>
<path fill="none" stroke="#191970" d="M1599.6795,-412.2612C1710.8804,-409.925 1997.4725,-400.7156 2086,-367 2095.719,-363.2985 2154.5447,-319.1542 2161,-311 2185.9719,-279.4559 2201.5012,-234.3432 2208.8747,-208.7392"/>
<polygon fill="#191970" stroke="#191970" points="2212.3417,-209.3312 2211.6165,-198.7612 2205.5919,-207.4764 2212.3417,-209.3312"/>
</g>
<!-- Node1&#45;&gt;Node8 -->
<g id="edge8" class="edge">
<title>Node1&#45;&gt;Node8</title>
<path fill="none" stroke="#191970" d="M1589.2523,-403.4523C1620.6193,-392.8181 1659.927,-373.5614 1644,-347 1614.4626,-297.7407 1552.1471,-270.9472 1506.701,-257.3495"/>
<polygon fill="#191970" stroke="#191970" points="1507.5665,-253.9567 1496.9892,-254.5657 1505.6377,-260.6857 1507.5665,-253.9567"/>
</g>
<!-- Node9 -->
<g id="node10" class="node">
<title>Node9</title>
<g id="a_node10"><a xlink:href="action_2SharedPointer_8hpp.html" target="_top" xlink:title="action/SharedPointer.hpp">
<polygon fill="#ffffff" stroke="#000000" points="1318,-347.5 1318,-366.5 1456,-366.5 1456,-347.5 1318,-347.5"/>
<text text-anchor="middle" x="1387" y="-354.5" font-family="Helvetica,sans-Serif" font-size="10.00" fill="#000000">action/SharedPointer.hpp</text>
</a>
</g>
</g>
<!-- Node1&#45;&gt;Node9 -->
<g id="edge10" class="edge">
<title>Node1&#45;&gt;Node9</title>
<path fill="none" stroke="#191970" d="M1526.1198,-403.3733C1498.1839,-394.0613 1455.6858,-379.8953 1425.0131,-369.671"/>
<polygon fill="#191970" stroke="#191970" points="1426.097,-366.3431 1415.5034,-366.5011 1423.8834,-372.9839 1426.097,-366.3431"/>
</g>
<!-- Node10 -->
<g id="node11" class="node">
<title>Node10</title>
<g id="a_node11"><a xlink:href="cplscheme_2SharedPointer_8hpp.html" target="_top" xlink:title="cplscheme/SharedPointer.hpp">
<polygon fill="#ffffff" stroke="#000000" points="1474.5,-347.5 1474.5,-366.5 1635.5,-366.5 1635.5,-347.5 1474.5,-347.5"/>
<text text-anchor="middle" x="1555" y="-354.5" font-family="Helvetica,sans-Serif" font-size="10.00" fill="#000000">cplscheme/SharedPointer.hpp</text>
</a>
</g>
</g>
<!-- Node1&#45;&gt;Node10 -->
<g id="edge12" class="edge">
<title>Node1&#45;&gt;Node10</title>
<path fill="none" stroke="#191970" d="M1555,-403.2455C1555,-395.9382 1555,-385.6944 1555,-376.7046"/>
<polygon fill="#191970" stroke="#191970" points="1558.5001,-376.6426 1555,-366.6427 1551.5001,-376.6427 1558.5001,-376.6426"/>
</g>
<!-- Node11 -->
<g id="node12" class="node">
<title>Node11</title>
<g id="a_node12"><a xlink:href="ExportContext_8hpp.html" target="_top" xlink:title="io/ExportContext.hpp">
<polygon fill="#ffffff" stroke="#ff0000" points="688.5,-179.5 688.5,-198.5 807.5,-198.5 807.5,-179.5 688.5,-179.5"/>
<text text-anchor="middle" x="748" y="-186.5" font-family="Helvetica,sans-Serif" font-size="10.00" fill="#000000">io/ExportContext.hpp</text>
</a>
</g>
</g>
<!-- Node1&#45;&gt;Node11 -->
<g id="edge14" class="edge">
<title>Node1&#45;&gt;Node11</title>
<path fill="none" stroke="#191970" d="M1510.1522,-410.1515C1409.1993,-403.4868 1166.7155,-385.9965 1087,-367 996.1144,-345.3416 981.6207,-313.7414 891,-291 827.1583,-274.9788 640.6227,-304.29 597,-255 568.3209,-222.595 626.2414,-205.4424 678.4417,-196.831"/>
<polygon fill="#191970" stroke="#191970" points="679.098,-200.2711 688.4385,-195.2707 678.0184,-193.3548 679.098,-200.2711"/>
</g>
<!-- Node13 -->
<g id="node13" class="node">
<title>Node13</title>
<g id="a_node13"><a xlink:href="ExportConfiguration_8hpp.html" target="_top" xlink:title="io/config/ExportConfiguration.hpp">
<polygon fill="#ffffff" stroke="#ff0000" points="746.5,-235.5 746.5,-254.5 925.5,-254.5 925.5,-235.5 746.5,-235.5"/>
<text text-anchor="middle" x="836" y="-242.5" font-family="Helvetica,sans-Serif" font-size="10.00" fill="#000000">io/config/ExportConfiguration.hpp</text>
</a>
</g>
</g>
<!-- Node1&#45;&gt;Node13 -->
<g id="edge16" class="edge">
<title>Node1&#45;&gt;Node13</title>
<path fill="none" stroke="#191970" d="M1510.3701,-411.6615C1442.1821,-408.6317 1308.5469,-398.7956 1200,-367 1124.0634,-344.7566 1113.808,-316.7857 1039,-291 994.7497,-275.7473 943.3111,-264.1534 903.2856,-256.4205"/>
<polygon fill="#191970" stroke="#191970" points="903.8441,-252.9641 893.3668,-254.5379 902.5387,-259.8414 903.8441,-252.9641"/>
</g>
<!-- Node15 -->
<g id="node14" class="node">
<title>Node15</title>
<g id="a_node14"><a xlink:href="Logger_8hpp.html" target="_top" xlink:title="logging/Logger.hpp">
<polygon fill="#ffffff" stroke="#000000" points="968.5,-179.5 968.5,-198.5 1077.5,-198.5 1077.5,-179.5 968.5,-179.5"/>
<text text-anchor="middle" x="1023" y="-186.5" font-family="Helvetica,sans-Serif" font-size="10.00" fill="#000000">logging/Logger.hpp</text>
</a>
</g>
</g>
<!-- Node1&#45;&gt;Node15 -->
<g id="edge35" class="edge">
<title>Node1&#45;&gt;Node15</title>
<path fill="none" stroke="#191970" d="M1510.3929,-408.8328C1438.8168,-401.6934 1301.8085,-386.0361 1257,-367 1163.9703,-327.478 1074.8497,-242.593 1039.2547,-206.1721"/>
<polygon fill="#191970" stroke="#191970" points="1041.5822,-203.5439 1032.1184,-198.7808 1036.5463,-208.406 1041.5822,-203.5439"/>
</g>
<!-- Node46 -->
<g id="node25" class="node">
<title>Node46</title>
<g id="a_node25"><a xlink:href="mapping_2SharedPointer_8hpp.html" target="_top" xlink:title="mapping/SharedPointer.hpp">
<polygon fill="#ffffff" stroke="#000000" points="2945.5,-235.5 2945.5,-254.5 3096.5,-254.5 3096.5,-235.5 2945.5,-235.5"/>
<text text-anchor="middle" x="3021" y="-242.5" font-family="Helvetica,sans-Serif" font-size="10.00" fill="#000000">mapping/SharedPointer.hpp</text>
</a>
</g>
</g>
<!-- Node1&#45;&gt;Node46 -->
<g id="edge36" class="edge">
<title>Node1&#45;&gt;Node46</title>
<path fill="none" stroke="#191970" d="M1599.6299,-411.3214C1718.534,-406.6391 2052.8026,-392.1044 2330,-367 2403.1296,-360.377 2420.8967,-353.9073 2494,-347 2553.4251,-341.3851 2989.2317,-354.5983 3030,-311 3041.6799,-298.5093 3036.8634,-278.4269 3030.7111,-263.6911"/>
<polygon fill="#191970" stroke="#191970" points="3033.8242,-262.0853 3026.4248,-254.5025 3027.4805,-265.0446 3033.8242,-262.0853"/>
</g>
<!-- Node47 -->
<g id="node26" class="node">
<title>Node47</title>
<g id="a_node26"><a xlink:href="mesh_2SharedPointer_8hpp.html" target="_top" xlink:title="mesh/SharedPointer.hpp">
<polygon fill="#ffffff" stroke="#000000" points="2677.5,-235.5 2677.5,-254.5 2812.5,-254.5 2812.5,-235.5 2677.5,-235.5"/>
<text text-anchor="middle" x="2745" y="-242.5" font-family="Helvetica,sans-Serif" font-size="10.00" fill="#000000">mesh/SharedPointer.hpp</text>
</a>
</g>
</g>
<!-- Node1&#45;&gt;Node47 -->
<g id="edge38" class="edge">
<title>Node1&#45;&gt;Node47</title>
<path fill="none" stroke="#191970" d="M1599.8452,-412.1868C1711.2002,-409.7051 2009.0887,-400.2341 2255,-367 2377.3125,-350.4699 2407.3673,-341.3578 2527,-311 2590.6507,-294.8481 2663.4563,-271.8787 2706.7553,-257.7333"/>
<polygon fill="#191970" stroke="#191970" points="2707.9077,-261.0389 2716.3182,-254.5958 2705.7254,-254.3877 2707.9077,-261.0389"/>
</g>
<!-- Node48 -->
<g id="node27" class="node">
<title>Node48</title>
<g id="a_node27"><a xlink:href="ReceivedPartition_8hpp.html" target="_top" xlink:title="partition/ReceivedPartition.hpp">
<polygon fill="#ffffff" stroke="#ff0000" points="1910.5,-347.5 1910.5,-366.5 2077.5,-366.5 2077.5,-347.5 1910.5,-347.5"/>
<text text-anchor="middle" x="1994" y="-354.5" font-family="Helvetica,sans-Serif" font-size="10.00" fill="#000000">partition/ReceivedPartition.hpp</text>
</a>
</g>
</g>
<!-- Node1&#45;&gt;Node48 -->
<g id="edge40" class="edge">
<title>Node1&#45;&gt;Node48</title>
<path fill="none" stroke="#191970" d="M1599.5096,-407.3222C1671.9959,-398.0757 1816.7313,-379.6129 1909.2905,-367.8058"/>
<polygon fill="#191970" stroke="#191970" points="1909.9966,-371.2441 1919.4733,-366.5068 1909.1108,-364.3004 1909.9966,-371.2441"/>
</g>
<!-- Node1&#45;&gt;Node63 -->
<g id="edge66" class="edge">
<title>Node1&#45;&gt;Node63</title>
<path fill="none" stroke="#191970" d="M1577.1988,-403.4862C1643.2098,-375.1958 1838.4578,-291.5181 1915.3603,-258.5599"/>
<polygon fill="#191970" stroke="#191970" points="1916.7461,-261.7739 1924.5588,-254.6177 1913.9886,-255.3399 1916.7461,-261.7739"/>
</g>
<!-- Node66 -->
<g id="node32" class="node">
<title>Node66</title>
<g id="a_node32"><a xlink:href="PointerVector_8hpp.html" target="_top" xlink:title="utils/PointerVector.hpp">
<polygon fill="#ffffff" stroke="#ff0000" points="2242,-235.5 2242,-254.5 2368,-254.5 2368,-235.5 2242,-235.5"/>
<text text-anchor="middle" x="2305" y="-242.5" font-family="Helvetica,sans-Serif" font-size="10.00" fill="#000000">utils/PointerVector.hpp</text>
</a>
</g>
</g>
<!-- Node1&#45;&gt;Node66 -->
<g id="edge70" class="edge">
<title>Node1&#45;&gt;Node66</title>
<path fill="none" stroke="#191970" d="M1599.7664,-412.1933C1715.6704,-409.6536 2023.186,-399.9205 2119,-367 2154.5571,-354.783 2243.6274,-290.5725 2284.2369,-260.5283"/>
<polygon fill="#191970" stroke="#191970" points="2286.4117,-263.2728 2292.3531,-254.5007 2282.2381,-257.6531 2286.4117,-263.2728"/>
</g>
<!-- Node68 -->
<g id="node34" class="node">
<title>Node68</title>
<g id="a_node34"><a xlink:href="MasterSlave_8hpp.html" target="_top" xlink:title="utils/MasterSlave.hpp">
<polygon fill="#ffffff" stroke="#ff0000" points="606,-235.5 606,-254.5 728,-254.5 728,-235.5 606,-235.5"/>
<text text-anchor="middle" x="667" y="-242.5" font-family="Helvetica,sans-Serif" font-size="10.00" fill="#000000">utils/MasterSlave.hpp</text>
</a>
</g>
</g>
<!-- Node1&#45;&gt;Node68 -->
<g id="edge67" class="edge">
<title>Node1&#45;&gt;Node68</title>
<path fill="none" stroke="#191970" d="M1510.1983,-411.9925C1434.306,-409.3941 1276.1196,-400.1115 1147,-367 1060.8961,-344.9195 1047.6163,-314.9015 962,-291 940.8741,-285.1023 818.7241,-266.8944 738.3745,-255.2329"/>
<polygon fill="#191970" stroke="#191970" points="738.704,-251.7442 728.3054,-253.774 737.7002,-258.6718 738.704,-251.7442"/>
</g>
<!-- Node8&#45;&gt;Node3 -->
<g id="edge9" class="edge">
<title>Node8&#45;&gt;Node3</title>
<path fill="none" stroke="#191970" d="M1459.4797,-235.4509C1472.1556,-216.7707 1500.416,-175.1238 1516.734,-151.0761"/>
<polygon fill="#191970" stroke="#191970" points="1519.8178,-152.7649 1522.5367,-142.5249 1514.0255,-148.8344 1519.8178,-152.7649"/>
</g>
<!-- Node9&#45;&gt;Node3 -->
<g id="edge11" class="edge">
<title>Node9&#45;&gt;Node3</title>
<path fill="none" stroke="#191970" d="M1383.8738,-347.2663C1374.9824,-317.4922 1352.9849,-226.7714 1398,-179 1404.5918,-172.0046 1453.8245,-155.8688 1490.0032,-144.6984"/>
<polygon fill="#191970" stroke="#191970" points="1491.2796,-147.9679 1499.815,-141.6911 1489.2283,-141.2752 1491.2796,-147.9679"/>
</g>
<!-- Node10&#45;&gt;Node3 -->
<g id="edge13" class="edge">
<title>Node10&#45;&gt;Node3</title>
<path fill="none" stroke="#191970" d="M1522.321,-347.4264C1483.0414,-333.9596 1418.9312,-305.2646 1391,-255 1363.3322,-205.2094 1440.9781,-165.6425 1490.778,-146.1776"/>
<polygon fill="#191970" stroke="#191970" points="1492.2186,-149.3746 1500.3273,-142.5556 1489.736,-142.8296 1492.2186,-149.3746"/>
</g>
<!-- Node11&#45;&gt;Node5 -->
<g id="edge15" class="edge">
<title>Node11&#45;&gt;Node5</title>
<path fill="none" stroke="#191970" d="M752.0246,-179.2961C761.8171,-156.3582 788.5564,-97.5994 822,-56 830.9681,-44.8448 842.8052,-34.1407 852.9199,-25.8695"/>
<polygon fill="#191970" stroke="#191970" points="855.2467,-28.4914 860.9104,-19.5375 850.8991,-23.0052 855.2467,-28.4914"/>
</g>
<!-- Node13&#45;&gt;Node5 -->
<g id="edge17" class="edge">
<title>Node13&#45;&gt;Node5</title>
<path fill="none" stroke="#191970" d="M837.5367,-235.4967C843.2056,-200.4391 863.0189,-77.9096 870.8145,-29.7"/>
<polygon fill="#191970" stroke="#191970" points="874.3029,-30.0521 872.4442,-19.6216 867.3927,-28.9346 874.3029,-30.0521"/>
</g>
<!-- Node13&#45;&gt;Node11 -->
<g id="edge18" class="edge">
<title>Node13&#45;&gt;Node11</title>
<path fill="none" stroke="#191970" d="M820.6716,-235.2455C807.1697,-226.6534 787.2878,-214.0014 771.7314,-204.1018"/>
<polygon fill="#191970" stroke="#191970" points="773.4685,-201.0587 763.1528,-198.6427 769.7103,-206.9643 773.4685,-201.0587"/>
</g>
<!-- Node13&#45;&gt;Node15 -->
<g id="edge19" class="edge">
<title>Node13&#45;&gt;Node15</title>
<path fill="none" stroke="#191970" d="M868.1464,-235.3733C899.5109,-225.9807 947.3665,-211.6496 981.5716,-201.4064"/>
<polygon fill="#191970" stroke="#191970" points="982.6975,-204.7229 991.273,-198.5011 980.6893,-198.0171 982.6975,-204.7229"/>
</g>
<!-- Node15&#45;&gt;Node3 -->
<g id="edge20" class="edge">
<title>Node15&#45;&gt;Node3</title>
<path fill="none" stroke="#191970" d="M1077.7903,-186.4496C1163.694,-181.8305 1335.3632,-170.101 1489.5174,-143.0251"/>
<polygon fill="#191970" stroke="#191970" points="1490.4145,-146.4204 1499.6448,-141.2194 1489.1857,-139.5291 1490.4145,-146.4204"/>
</g>
<!-- Node15&#45;&gt;Node5 -->
<g id="edge21" class="edge">
<title>Node15&#45;&gt;Node5</title>
<path fill="none" stroke="#191970" d="M1005.7463,-179.4668C978.8065,-163.7133 926.8557,-129.7021 898,-87 886.2794,-69.6553 880.0632,-46.3087 876.9196,-29.8855"/>
<polygon fill="#191970" stroke="#191970" points="880.3285,-29.0537 875.2042,-19.7805 873.4273,-30.2253 880.3285,-29.0537"/>
</g>
<!-- Node15&#45;&gt;Node16 -->
<g id="edge22" class="edge">
<title>Node15&#45;&gt;Node16</title>
<path fill="none" stroke="#191970" d="M1077.6048,-181.0258C1082.4717,-180.3334 1087.3242,-179.6496 1092,-179 1194.9061,-164.703 1315.1657,-148.9238 1383.3786,-140.0603"/>
<polygon fill="#191970" stroke="#191970" points="1383.9966,-143.5095 1393.4628,-138.7511 1383.0953,-136.5677 1383.9966,-143.5095"/>
</g>
<!-- Node16&#45;&gt;Node5 -->
<g id="edge29" class="edge">
<title>Node16&#45;&gt;Node5</title>
<path fill="none" stroke="#191970" d="M1462.4712,-123.3462C1477.7107,-115.9011 1496.0612,-103.9799 1505,-87 1511.4181,-74.8084 1514.3815,-66.0903 1505,-56 1484.4017,-33.8454 1031.8579,-15.7522 906.1408,-11.1401"/>
<polygon fill="#191970" stroke="#191970" points="906.1208,-7.6371 896.0002,-10.7714 905.8664,-14.6325 906.1208,-7.6371"/>
</g>
<!-- Node17 -->
<g id="node16" class="node">
<title>Node17</title>
<polygon fill="#ffffff" stroke="#bfbfbf" points="1660,-56.5 1660,-86.5 1770,-86.5 1770,-56.5 1660,-56.5"/>
<text text-anchor="start" x="1668" y="-74.5" font-family="Helvetica,sans-Serif" font-size="10.00" fill="#000000">boost/preprocessor</text>
<text text-anchor="middle" x="1715" y="-63.5" font-family="Helvetica,sans-Serif" font-size="10.00" fill="#000000">/control/if.hpp</text>
</g>
<!-- Node16&#45;&gt;Node17 -->
<g id="edge23" class="edge">
<title>Node16&#45;&gt;Node17</title>
<path fill="none" stroke="#191970" d="M1482.5388,-123.7186C1523.575,-115.0914 1586.4103,-101.6911 1650.0571,-87.1877"/>
<polygon fill="#191970" stroke="#191970" points="1650.8942,-90.5867 1659.8626,-84.9459 1649.334,-83.7628 1650.8942,-90.5867"/>
</g>
<!-- Node18 -->
<g id="node17" class="node">
<title>Node18</title>
<polygon fill="#ffffff" stroke="#bfbfbf" points="1380,-56.5 1380,-86.5 1496,-86.5 1496,-56.5 1380,-56.5"/>
<text text-anchor="start" x="1388" y="-74.5" font-family="Helvetica,sans-Serif" font-size="10.00" fill="#000000">boost/preprocessor</text>
<text text-anchor="middle" x="1438" y="-63.5" font-family="Helvetica,sans-Serif" font-size="10.00" fill="#000000">/facilities/empty.hpp</text>
</g>
<!-- Node16&#45;&gt;Node18 -->
<g id="edge24" class="edge">
<title>Node16&#45;&gt;Node18</title>
<path fill="none" stroke="#191970" d="M1438,-123.3906C1438,-116.2234 1438,-106.0862 1438,-96.671"/>
<polygon fill="#191970" stroke="#191970" points="1441.5001,-96.5446 1438,-86.5446 1434.5001,-96.5446 1441.5001,-96.5446"/>
</g>
<!-- Node19 -->
<g id="node18" class="node">
<title>Node19</title>
<polygon fill="#ffffff" stroke="#bfbfbf" points="1788.5,-56.5 1788.5,-86.5 1899.5,-86.5 1899.5,-56.5 1788.5,-56.5"/>
<text text-anchor="start" x="1796.5" y="-74.5" font-family="Helvetica,sans-Serif" font-size="10.00" fill="#000000">boost/preprocessor</text>
<text text-anchor="middle" x="1844" y="-63.5" font-family="Helvetica,sans-Serif" font-size="10.00" fill="#000000">/seq/for_each_i.hpp</text>
</g>
<!-- Node16&#45;&gt;Node19 -->
<g id="edge25" class="edge">
<title>Node16&#45;&gt;Node19</title>
<path fill="none" stroke="#191970" d="M1482.7856,-124.3474C1485.5622,-123.8738 1488.3172,-123.4203 1491,-123 1615.2055,-103.5389 1650.3019,-109.6592 1778.2252,-87.0085"/>
<polygon fill="#191970" stroke="#191970" points="1779.1915,-90.3911 1788.4154,-85.1787 1777.9542,-83.5013 1779.1915,-90.3911"/>
</g>
<!-- Node20 -->
<g id="node19" class="node">
<title>Node20</title>
<polygon fill="#ffffff" stroke="#bfbfbf" points="1918,-56.5 1918,-86.5 2028,-86.5 2028,-56.5 1918,-56.5"/>
<text text-anchor="start" x="1926" y="-74.5" font-family="Helvetica,sans-Serif" font-size="10.00" fill="#000000">boost/preprocessor</text>
<text text-anchor="middle" x="1973" y="-63.5" font-family="Helvetica,sans-Serif" font-size="10.00" fill="#000000">/stringize.hpp</text>
</g>
<!-- Node16&#45;&gt;Node20 -->
<g id="edge26" class="edge">
<title>Node16&#45;&gt;Node20</title>
<path fill="none" stroke="#191970" d="M1482.7678,-124.2263C1485.5488,-123.7827 1488.3097,-123.369 1491,-123 1672.0578,-98.1675 1722.5899,-116.0039 1907.7252,-86.8619"/>
<polygon fill="#191970" stroke="#191970" points="1908.4717,-90.2871 1917.7936,-85.252 1907.3664,-83.3749 1908.4717,-90.2871"/>
</g>
<!-- Node21 -->
<g id="node20" class="node">
<title>Node21</title>
<polygon fill="#ffffff" stroke="#bfbfbf" points="2046.5,-56.5 2046.5,-86.5 2161.5,-86.5 2161.5,-56.5 2046.5,-56.5"/>
<text text-anchor="start" x="2054.5" y="-74.5" font-family="Helvetica,sans-Serif" font-size="10.00" fill="#000000">boost/preprocessor</text>
<text text-anchor="middle" x="2104" y="-63.5" font-family="Helvetica,sans-Serif" font-size="10.00" fill="#000000">/variadic/to_seq.hpp</text>
</g>
<!-- Node16&#45;&gt;Node21 -->
<g id="edge27" class="edge">
<title>Node16&#45;&gt;Node21</title>
<path fill="none" stroke="#191970" d="M1482.7593,-124.1619C1485.5424,-123.7343 1488.3061,-123.3417 1491,-123 1728.9622,-92.8177 1794.6274,-121.7102 2036.2205,-86.9379"/>
<polygon fill="#191970" stroke="#191970" points="2036.9805,-90.3641 2046.3693,-85.4548 2035.9683,-83.4376 2036.9805,-90.3641"/>
</g>
<!-- Node22 -->
<g id="node21" class="node">
<title>Node22</title>
<polygon fill="#ffffff" stroke="#bfbfbf" points="1064,-62 1064,-81 1200,-81 1200,-62 1064,-62"/>
<text text-anchor="middle" x="1132" y="-69" font-family="Helvetica,sans-Serif" font-size="10.00" fill="#000000">boost/vmd/is_empty.hpp</text>
</g>
<!-- Node16&#45;&gt;Node22 -->
<g id="edge28" class="edge">
<title>Node16&#45;&gt;Node22</title>
<path fill="none" stroke="#191970" d="M1393.2412,-124.0148C1347.0793,-114.7466 1273.0061,-99.8707 1209,-87 1202.6833,-85.7298 1196.0753,-84.4005 1189.4987,-83.0771"/>
<polygon fill="#191970" stroke="#191970" points="1189.7301,-79.5536 1179.2361,-81.0117 1188.349,-86.416 1189.7301,-79.5536"/>
</g>
<!-- Node23 -->
<g id="node22" class="node">
<title>Node23</title>
<g id="a_node22"><a xlink:href="Tracer_8hpp.html" target="_top" xlink:title="logging/Tracer.hpp">
<polygon fill="#ffffff" stroke="#000000" points="940.5,-62 940.5,-81 1045.5,-81 1045.5,-62 940.5,-62"/>
<text text-anchor="middle" x="993" y="-69" font-family="Helvetica,sans-Serif" font-size="10.00" fill="#000000">logging/Tracer.hpp</text>
</a>
</g>
</g>
<!-- Node16&#45;&gt;Node23 -->
<g id="edge30" class="edge">
<title>Node16&#45;&gt;Node23</title>
<path fill="none" stroke="#191970" d="M1393.4961,-129.4804C1321.8126,-123.4028 1176.5149,-109.3952 1055,-87 1049.4761,-85.9819 1043.7123,-84.7604 1038.0196,-83.4556"/>
<polygon fill="#191970" stroke="#191970" points="1038.456,-79.9615 1027.9165,-81.0432 1036.8302,-86.7701 1038.456,-79.9615"/>
</g>
<!-- Node24 -->
<g id="node23" class="node">
<title>Node24</title>
<polygon fill="#ffffff" stroke="#bfbfbf" points="1218,-62 1218,-81 1362,-81 1362,-62 1218,-62"/>
<text text-anchor="middle" x="1290" y="-69" font-family="Helvetica,sans-Serif" font-size="10.00" fill="#000000">prettyprint/prettyprint.hpp</text>
</g>
<!-- Node16&#45;&gt;Node24 -->
<g id="edge32" class="edge">
<title>Node16&#45;&gt;Node24</title>
<path fill="none" stroke="#191970" d="M1414.875,-123.3906C1390.0033,-113.0554 1350.2702,-96.5447 1322.3156,-84.9284"/>
<polygon fill="#191970" stroke="#191970" points="1323.5402,-81.6472 1312.9626,-81.0419 1320.854,-88.1113 1323.5402,-81.6472"/>
</g>
<!-- Node25 -->
<g id="node24" class="node">
<title>Node25</title>
<g id="a_node24"><a xlink:href="String_8hpp.html" target="_top" xlink:title="utils/String.hpp">
<polygon fill="#ffffff" stroke="#ff0000" points="1552,-62 1552,-81 1642,-81 1642,-62 1552,-62"/>
<text text-anchor="middle" x="1597" y="-69" font-family="Helvetica,sans-Serif" font-size="10.00" fill="#000000">utils/String.hpp</text>
</a>
</g>
</g>
<!-- Node16&#45;&gt;Node25 -->
<g id="edge33" class="edge">
<title>Node16&#45;&gt;Node25</title>
<path fill="none" stroke="#191970" d="M1462.8438,-123.3906C1489.6807,-113.0103 1532.6233,-96.4004 1562.6753,-84.7766"/>
<polygon fill="#191970" stroke="#191970" points="1564.2667,-87.9138 1572.3307,-81.0419 1561.7414,-81.3851 1564.2667,-87.9138"/>
</g>
<!-- Node23&#45;&gt;Node15 -->
<g id="edge31" class="edge">
<title>Node23&#45;&gt;Node15</title>
<path fill="none" stroke="#191970" d="M995.4889,-81.2484C1000.4177,-100.5527 1011.5036,-143.9723 1017.9982,-169.4095"/>
<polygon fill="#191970" stroke="#191970" points="1014.6799,-170.5612 1020.545,-179.3845 1021.4623,-168.8294 1014.6799,-170.5612"/>
</g>
<!-- Node25&#45;&gt;Node5 -->
<g id="edge34" class="edge">
<title>Node25&#45;&gt;Node5</title>
<path fill="none" stroke="#191970" d="M1565.0838,-61.9475C1556.3711,-59.6608 1546.8827,-57.4612 1538,-56 1414.1484,-35.6268 1022.3347,-16.7053 906.5342,-11.4429"/>
<polygon fill="#191970" stroke="#191970" points="906.3553,-7.9314 896.2076,-10.9767 906.0395,-14.9243 906.3553,-7.9314"/>
</g>
<!-- Node46&#45;&gt;Node3 -->
<g id="edge37" class="edge">
<title>Node46&#45;&gt;Node3</title>
<path fill="none" stroke="#191970" d="M2945.2915,-237.6505C2854.9672,-228.8117 2699.4075,-213.3663 2566,-199 2488.1659,-190.6182 2469.011,-185.5332 2391,-179 2074.2457,-152.4725 1690.6578,-138.3259 1568.4103,-134.254"/>
<polygon fill="#191970" stroke="#191970" points="1568.1748,-130.7444 1558.0648,-133.9128 1567.944,-137.7406 1568.1748,-130.7444"/>
</g>
<!-- Node47&#45;&gt;Node3 -->
<g id="edge39" class="edge">
<title>Node47&#45;&gt;Node3</title>
<path fill="none" stroke="#191970" d="M2677.4972,-236.1576C2597.1921,-225.513 2467.9657,-207.954 2420,-199 2381.4242,-191.7989 2372.8428,-184.5843 2334,-179 2183.5968,-157.377 1709.3728,-139.347 1568.7056,-134.3661"/>
<polygon fill="#191970" stroke="#191970" points="1568.5193,-130.8575 1558.4023,-134.0036 1568.273,-137.8532 1568.5193,-130.8575"/>
</g>
<!-- Node48&#45;&gt;Node5 -->
<g id="edge41" class="edge">
<title>Node48&#45;&gt;Node5</title>
<path fill="none" stroke="#191970" d="M1956.7394,-347.4339C1930.9452,-339.8433 1896.4525,-327.7185 1869,-311 1826.2811,-284.9842 1830.8977,-257.0436 1786,-235 1439.8225,-65.0357 1259.2761,-289.3895 931,-87 908.5272,-73.145 892.0088,-46.8687 882.7006,-28.901"/>
<polygon fill="#191970" stroke="#191970" points="885.7189,-27.1068 878.1707,-19.672 879.435,-30.1912 885.7189,-27.1068"/>
</g>
<!-- Node48&#45;&gt;Node7 -->
<g id="edge42" class="edge">
<title>Node48&#45;&gt;Node7</title>
<path fill="none" stroke="#191970" d="M1968.734,-347.3778C1920.2873,-327.585 1822.5664,-280.3506 1863,-235 1909.5933,-182.7406 2107.1925,-211.942 2176,-199 2177.4666,-198.7242 2178.9599,-198.4224 2180.4649,-198.1013"/>
<polygon fill="#191970" stroke="#191970" points="2181.4669,-201.4613 2190.402,-195.7679 2179.8667,-194.6466 2181.4669,-201.4613"/>
</g>
<!-- Node48&#45;&gt;Node15 -->
<g id="edge43" class="edge">
<title>Node48&#45;&gt;Node15</title>
<path fill="none" stroke="#191970" d="M1952.4518,-347.4128C1912.191,-338.1187 1849.4057,-323.6143 1795,-311 1756.7719,-302.1365 1747.2597,-299.7261 1709,-291 1637.5132,-274.6956 1616.2042,-281.9143 1548,-255 1531.6922,-248.5647 1530.6822,-240.391 1514,-235 1474.4294,-222.2123 1212.1126,-202.3393 1087.9428,-193.5012"/>
<polygon fill="#191970" stroke="#191970" points="1088.0287,-189.9986 1077.8062,-192.7824 1087.5335,-196.9811 1088.0287,-189.9986"/>
</g>
<!-- Node48&#45;&gt;Node47 -->
<g id="edge65" class="edge">
<title>Node48&#45;&gt;Node47</title>
<path fill="none" stroke="#191970" d="M2077.9231,-353.1071C2176.0994,-347.6383 2343.2625,-335.4768 2485,-311 2563.7322,-297.4037 2653.7089,-272.3888 2704.4984,-257.3665"/>
<polygon fill="#191970" stroke="#191970" points="2705.5337,-260.7102 2714.1189,-254.5016 2703.5359,-254.0013 2705.5337,-260.7102"/>
</g>
<!-- Node48&#45;&gt;Node54 -->
<g id="edge44" class="edge">
<title>Node48&#45;&gt;Node54</title>
<path fill="none" stroke="#191970" d="M2013.2535,-347.3733C2031.0712,-338.4644 2057.7747,-325.1127 2077.9594,-315.0203"/>
<polygon fill="#191970" stroke="#191970" points="2079.6187,-318.1038 2086.9978,-310.5011 2076.4882,-311.8428 2079.6187,-318.1038"/>
</g>
<!-- Node54&#45;&gt;Node2 -->
<g id="edge45" class="edge">
<title>Node54&#45;&gt;Node2</title>
<path fill="none" stroke="#191970" d="M2059.1869,-300.745C1772.5679,-299.0752 265.8851,-288.7026 233,-255 221.118,-242.8226 224.9649,-222.6916 230.3342,-207.8587"/>
<polygon fill="#191970" stroke="#191970" points="233.5752,-209.1799 234.12,-198.5991 227.0958,-206.5308 233.5752,-209.1799"/>
</g>
<!-- Node54&#45;&gt;Node5 -->
<g id="edge47" class="edge">
<title>Node54&#45;&gt;Node5</title>
<path fill="none" stroke="#191970" d="M2152.8833,-299.0308C2266.6373,-292.9803 2548,-269.8435 2548,-189 2548,-189 2548,-189 2548,-133 2548,27.578 2354.3293,-75.9861 2195,-56 1934.3391,-23.303 1083.2853,-12.2973 906.3845,-10.3369"/>
<polygon fill="#191970" stroke="#191970" points="906.2089,-6.8349 896.1713,-10.2256 906.1325,-13.8345 906.2089,-6.8349"/>
</g>
<!-- Node54&#45;&gt;Node7 -->
<g id="edge48" class="edge">
<title>Node54&#45;&gt;Node7</title>
<path fill="none" stroke="#191970" d="M2117.7204,-291.1615C2128.3095,-282.104 2144.1564,-268.1233 2157,-255 2172.2889,-239.3782 2188.4622,-220.385 2199.6596,-206.7917"/>
<polygon fill="#191970" stroke="#191970" points="2202.629,-208.6888 2206.2401,-198.7284 2197.2057,-204.2629 2202.629,-208.6888"/>
</g>
<!-- Node54&#45;&gt;Node15 -->
<g id="edge49" class="edge">
<title>Node54&#45;&gt;Node15</title>
<path fill="none" stroke="#191970" d="M2059.1317,-298.5998C1950.309,-292.732 1683.1657,-276.5502 1596,-255 1573.5644,-249.4532 1570.4427,-240.5181 1548,-235 1504.3685,-224.2721 1218.596,-202.9244 1087.9635,-193.5704"/>
<polygon fill="#191970" stroke="#191970" points="1087.9237,-190.0587 1077.6997,-192.8373 1087.4249,-197.0409 1087.9237,-190.0587"/>
</g>
<!-- Node54&#45;&gt;Node47 -->
<g id="edge55" class="edge">
<title>Node54&#45;&gt;Node47</title>
<path fill="none" stroke="#191970" d="M2152.6991,-297.9307C2247.5226,-291.5353 2469.6531,-275.7243 2667.4208,-255.0147"/>
<polygon fill="#191970" stroke="#191970" points="2667.8371,-258.4903 2677.4153,-253.9617 2667.1036,-251.5288 2667.8371,-258.4903"/>
</g>
<!-- Node55 -->
<g id="node29" class="node">
<title>Node55</title>
<polygon fill="#ffffff" stroke="#bfbfbf" points="2040,-235.5 2040,-254.5 2148,-254.5 2148,-235.5 2040,-235.5"/>
<text text-anchor="middle" x="2094" y="-242.5" font-family="Helvetica,sans-Serif" font-size="10.00" fill="#000000">boost/signals2.hpp</text>
</g>
<!-- Node54&#45;&gt;Node55 -->
<g id="edge46" class="edge">
<title>Node54&#45;&gt;Node55</title>
<path fill="none" stroke="#191970" d="M2103.9098,-291.2455C2102.3439,-283.9382 2100.1488,-273.6944 2098.2224,-264.7046"/>
<polygon fill="#191970" stroke="#191970" points="2101.584,-263.6873 2096.0663,-254.6427 2094.7393,-265.1541 2101.584,-263.6873"/>
</g>
<!-- Node54&#45;&gt;Node57 -->
<g id="edge50" class="edge">
<title>Node54&#45;&gt;Node57</title>
<path fill="none" stroke="#191970" d="M2059.3999,-300.0618C1838.1031,-295.5325 891.8197,-275.3141 597,-255 584.9762,-254.1715 572.1074,-252.9829 559.8941,-251.7126"/>
<polygon fill="#191970" stroke="#191970" points="560.1384,-248.2188 549.8222,-250.6324 559.3919,-255.1789 560.1384,-248.2188"/>
</g>
<!-- Node54&#45;&gt;Node63 -->
<g id="edge56" class="edge">
<title>Node54&#45;&gt;Node63</title>
<path fill="none" stroke="#191970" d="M2078.6669,-291.3733C2052.4566,-282.1419 2012.7016,-268.1402 1983.7332,-257.9375"/>
<polygon fill="#191970" stroke="#191970" points="1984.5712,-254.5219 1973.9764,-254.5011 1982.2458,-261.1244 1984.5712,-254.5219"/>
</g>
<!-- Node54&#45;&gt;Node66 -->
<g id="edge57" class="edge">
<title>Node54&#45;&gt;Node66</title>
<path fill="none" stroke="#191970" d="M2140.2093,-291.3733C2173.7297,-281.9404 2224.9505,-267.5265 2261.381,-257.2747"/>
<polygon fill="#191970" stroke="#191970" points="2262.5591,-260.5792 2271.2371,-254.5011 2260.6628,-253.8409 2262.5591,-260.5792"/>
</g>
<!-- Node54&#45;&gt;Node36 -->
<g id="edge64" class="edge">
<title>Node54&#45;&gt;Node36</title>
<path fill="none" stroke="#191970" d="M2152.7912,-296.334C2226.4777,-288.5098 2362.7012,-271.9305 2377,-255 2439.357,-181.1665 2266.6569,-150.2006 2167.7891,-138.8001"/>
<polygon fill="#191970" stroke="#191970" points="2167.9099,-135.292 2157.5836,-137.6622 2167.1342,-142.2489 2167.9099,-135.292"/>
</g>
<!-- Node57&#45;&gt;Node2 -->
<g id="edge51" class="edge">
<title>Node57&#45;&gt;Node2</title>
<path fill="none" stroke="#191970" d="M458.746,-235.4369C409.7525,-225.0835 332.11,-208.6761 283.4376,-198.3906"/>
<polygon fill="#191970" stroke="#191970" points="284.0195,-194.9363 273.5119,-196.2931 282.5722,-201.7851 284.0195,-194.9363"/>
</g>
<!-- Node57&#45;&gt;Node4 -->
<g id="edge52" class="edge">
<title>Node57&#45;&gt;Node4</title>
<path fill="none" stroke="#191970" d="M549.8517,-239.7411C564.866,-238.107 581.6345,-236.3753 597,-235 715.7559,-224.3708 1082.2536,-199.5696 1201.8356,-191.5503"/>
<polygon fill="#191970" stroke="#191970" points="1202.231,-195.0317 1211.9746,-190.8709 1201.763,-188.0474 1202.231,-195.0317"/>
</g>
<!-- Node57&#45;&gt;Node5 -->
<g id="edge53" class="edge">
<title>Node57&#45;&gt;Node5</title>
<path fill="none" stroke="#191970" d="M518.5945,-235.4194C561.3117,-207.4203 689.8901,-123.4499 798,-56 815.0128,-45.3857 834.348,-33.6878 849.2584,-24.7448"/>
<polygon fill="#191970" stroke="#191970" points="851.1269,-27.7055 857.9101,-19.5668 847.5321,-21.6991 851.1269,-27.7055"/>
</g>
<!-- Node57&#45;&gt;Node15 -->
<g id="edge54" class="edge">
<title>Node57&#45;&gt;Node15</title>
<path fill="none" stroke="#191970" d="M549.6029,-240.0795C642.0981,-230.0992 851.9992,-207.451 958.4746,-195.9623"/>
<polygon fill="#191970" stroke="#191970" points="958.8816,-199.4388 968.4484,-194.8861 958.1306,-192.4792 958.8816,-199.4388"/>
</g>
<!-- Node66&#45;&gt;Node7 -->
<g id="edge58" class="edge">
<title>Node66&#45;&gt;Node7</title>
<path fill="none" stroke="#191970" d="M2289.149,-235.2455C2275.1868,-226.6534 2254.6272,-214.0014 2238.5404,-204.1018"/>
<polygon fill="#191970" stroke="#191970" points="2240.0203,-200.9029 2229.6693,-198.6427 2236.3516,-206.8645 2240.0203,-200.9029"/>
</g>
<!-- Node66&#45;&gt;Node36 -->
<g id="edge59" class="edge">
<title>Node66&#45;&gt;Node36</title>
<path fill="none" stroke="#191970" d="M2298.9359,-235.4707C2289.371,-221.1843 2269.4387,-194.2663 2246,-179 2221.4506,-163.0103 2190.8896,-152.172 2164.4148,-145.0536"/>
<polygon fill="#191970" stroke="#191970" points="2165.0455,-141.602 2154.4892,-142.5046 2163.3043,-148.382 2165.0455,-141.602"/>
</g>
<!-- Node36&#45;&gt;Node17 -->
<g id="edge60" class="edge">
<title>Node36&#45;&gt;Node17</title>
<path fill="none" stroke="#191970" d="M2050.2529,-127.0128C1987.6712,-119.6806 1881.0209,-106.0709 1780.1409,-87.1115"/>
<polygon fill="#191970" stroke="#191970" points="1780.5618,-83.6289 1770.0841,-85.1997 1779.2545,-90.5058 1780.5618,-83.6289"/>
</g>
<!-- Node36&#45;&gt;Node19 -->
<g id="edge61" class="edge">
<title>Node36&#45;&gt;Node19</title>
<path fill="none" stroke="#191970" d="M2063.2838,-123.4255C2025.9105,-114.6303 1968.7326,-101.1574 1909.5642,-87.1309"/>
<polygon fill="#191970" stroke="#191970" points="1910.2049,-83.6858 1899.6671,-84.7838 1908.5896,-90.4969 1910.2049,-83.6858"/>
</g>
<!-- Node36&#45;&gt;Node20 -->
<g id="edge62" class="edge">
<title>Node36&#45;&gt;Node20</title>
<path fill="none" stroke="#191970" d="M2083.5313,-123.3906C2065.0633,-114.7205 2037.3382,-101.7046 2014.2764,-90.8779"/>
<polygon fill="#191970" stroke="#191970" points="2015.5857,-87.6261 2005.0462,-86.5446 2012.6109,-93.9625 2015.5857,-87.6261"/>
</g>
<!-- Node36&#45;&gt;Node21 -->
<g id="edge63" class="edge">
<title>Node36&#45;&gt;Node21</title>
<path fill="none" stroke="#191970" d="M2104,-123.3906C2104,-116.2234 2104,-106.0862 2104,-96.671"/>
<polygon fill="#191970" stroke="#191970" points="2107.5001,-96.5446 2104,-86.5446 2100.5001,-96.5446 2107.5001,-96.5446"/>
</g>
<!-- Node68&#45;&gt;Node2 -->
<g id="edge68" class="edge">
<title>Node68&#45;&gt;Node2</title>
<path fill="none" stroke="#191970" d="M605.678,-236.9766C518.5879,-225.5816 361.1048,-204.9763 283.9953,-194.8872"/>
<polygon fill="#191970" stroke="#191970" points="284.0335,-191.3625 273.6639,-193.5355 283.1253,-198.3033 284.0335,-191.3625"/>
</g>
<!-- Node68&#45;&gt;Node15 -->
<g id="edge69" class="edge">
<title>Node68&#45;&gt;Node15</title>
<path fill="none" stroke="#191970" d="M727.7941,-235.4369C791.8857,-225.3551 892.4722,-209.5325 958.0797,-199.2122"/>
<polygon fill="#191970" stroke="#191970" points="958.9633,-202.6163 968.298,-197.6048 957.8755,-195.7013 958.9633,-202.6163"/>
</g>
<!-- Node71&#45;&gt;Node5 -->
<g id="edge75" class="edge">
<title>Node71&#45;&gt;Node5</title>
<path fill="none" stroke="#191970" d="M2901.6465,-406.6429C2940.9053,-400.2865 2996.3467,-388.3007 3041,-367 3121.7122,-328.4983 3201,-334.425 3201,-245 3201,-245 3201,-245 3201,-133 3201,80.8669 2938.9473,-75.812 2726,-56 2352.4174,-21.2429 1121.5106,-11.6315 906.2598,-10.2009"/>
<polygon fill="#191970" stroke="#191970" points="906.2584,-6.7009 896.2357,-10.1353 906.2126,-13.7008 906.2584,-6.7009"/>
</g>
<!-- Node71&#45;&gt;Node47 -->
<g id="edge84" class="edge">
<title>Node71&#45;&gt;Node47</title>
<path fill="none" stroke="#191970" d="M2845.9406,-403.4862C2828.7335,-376.4695 2779.355,-298.9405 2756.6618,-263.3102"/>
<polygon fill="#191970" stroke="#191970" points="2759.5836,-261.3822 2751.2594,-254.8279 2753.6794,-265.1427 2759.5836,-261.3822"/>
</g>
<!-- Node71&#45;&gt;Node72 -->
<g id="edge76" class="edge">
<title>Node71&#45;&gt;Node72</title>
<path fill="none" stroke="#191970" d="M2872.9725,-403.3733C2892.5567,-394.3838 2921.9961,-380.8706 2944.051,-370.7471"/>
<polygon fill="#191970" stroke="#191970" points="2945.6729,-373.8538 2953.3011,-366.5011 2942.7527,-367.4919 2945.6729,-373.8538"/>
</g>
<!-- Node72&#45;&gt;Node46 -->
<g id="edge77" class="edge">
<title>Node72&#45;&gt;Node46</title>
<path fill="none" stroke="#191970" d="M3012.0976,-347.4497C3030.8946,-340.6063 3051.8748,-329.2734 3063,-311 3073.4286,-293.8707 3057.8547,-274.5444 3042.8045,-261.254"/>
<polygon fill="#191970" stroke="#191970" points="3044.6078,-258.2047 3034.6656,-254.5438 3040.1548,-263.6057 3044.6078,-258.2047"/>
</g>
<!-- Node73 -->
<g id="node39" class="node">
<title>Node73</title>
<g id="a_node39"><a xlink:href="MappingConfiguration_8hpp.html" target="_top" xlink:title="mapping/config/MappingConfiguration.hpp">
<polygon fill="#ffffff" stroke="#ff0000" points="2799,-291.5 2799,-310.5 3021,-310.5 3021,-291.5 2799,-291.5"/>
<text text-anchor="middle" x="2910" y="-298.5" font-family="Helvetica,sans-Serif" font-size="10.00" fill="#000000">mapping/config/MappingConfiguration.hpp</text>
</a>
</g>
</g>
<!-- Node72&#45;&gt;Node73 -->
<g id="edge78" class="edge">
<title>Node72&#45;&gt;Node73</title>
<path fill="none" stroke="#191970" d="M2962.8521,-347.2455C2953.4913,-339.0549 2939.9142,-327.1749 2928.8651,-317.5069"/>
<polygon fill="#191970" stroke="#191970" points="2930.8508,-314.5937 2921.0202,-310.6427 2926.2412,-319.8618 2930.8508,-314.5937"/>
</g>
<!-- Node73&#45;&gt;Node5 -->
<g id="edge79" class="edge">
<title>Node73&#45;&gt;Node5</title>
<path fill="none" stroke="#191970" d="M2911.0029,-291.4242C2912.9385,-272.0891 2917,-226.9907 2917,-189 2917,-189 2917,-189 2917,-133 2917,49.7877 2694.7189,-75.7385 2513,-56 2184.924,-20.364 1106.6666,-11.5456 906.2237,-10.1993"/>
<polygon fill="#191970" stroke="#191970" points="906.0844,-6.6984 896.0615,-10.1325 906.0383,-13.6983 906.0844,-6.6984"/>
</g>
<!-- Node73&#45;&gt;Node7 -->
<g id="edge80" class="edge">
<title>Node73&#45;&gt;Node7</title>
<path fill="none" stroke="#191970" d="M2905.1905,-291.2464C2897.1496,-276.14 2879.4205,-247.5233 2855,-235 2827.7511,-221.0263 2375.6695,-197.182 2247.5797,-190.6799"/>
<polygon fill="#191970" stroke="#191970" points="2247.7257,-187.1829 2237.5617,-190.1733 2247.3721,-194.174 2247.7257,-187.1829"/>
</g>
<!-- Node73&#45;&gt;Node15 -->
<g id="edge81" class="edge">
<title>Node73&#45;&gt;Node15</title>
<path fill="none" stroke="#191970" d="M2898.7506,-291.2828C2878.9388,-274.4105 2838.2875,-240.9246 2821,-235 2735.9451,-205.8508 1292.8432,-202.4942 1203,-199 1164.8793,-197.5174 1122.2529,-195.1796 1088.0537,-193.1371"/>
<polygon fill="#191970" stroke="#191970" points="1087.9176,-189.6226 1077.725,-192.514 1087.496,-196.6099 1087.9176,-189.6226"/>
</g>
<!-- Node73&#45;&gt;Node46 -->
<g id="edge82" class="edge">
<title>Node73&#45;&gt;Node46</title>
<path fill="none" stroke="#191970" d="M2929.0816,-291.3733C2946.7402,-282.4644 2973.2053,-269.1127 2993.2098,-259.0203"/>
<polygon fill="#191970" stroke="#191970" points="2994.8158,-262.1303 3002.1674,-254.5011 2991.6628,-255.8806 2994.8158,-262.1303"/>
</g>
<!-- Node73&#45;&gt;Node47 -->
<g id="edge83" class="edge">
<title>Node73&#45;&gt;Node47</title>
<path fill="none" stroke="#191970" d="M2881.6355,-291.3733C2854.3173,-282.1016 2812.8204,-268.0178 2782.7262,-257.804"/>
<polygon fill="#191970" stroke="#191970" points="2783.5887,-254.4008 2772.9944,-254.5011 2781.339,-261.0294 2783.5887,-254.4008"/>
</g>
<!-- Node74&#45;&gt;Node7 -->
<g id="edge87" class="edge">
<title>Node74&#45;&gt;Node7</title>
<path fill="none" stroke="#191970" d="M2419.1749,-403.4143C2375.0029,-390.6204 2306.7715,-363.2415 2276,-311 2243.0559,-255.0702 2343.4198,-302.6188 2377,-255 2382.1227,-247.7357 2382.4154,-242.0488 2377,-235 2341.1635,-188.3548 2305.2847,-214.3401 2247.6212,-200.3691"/>
<polygon fill="#191970" stroke="#191970" points="2248.3559,-196.9409 2237.7845,-197.6449 2246.4876,-203.687 2248.3559,-196.9409"/>
</g>
<!-- Node74&#45;&gt;Node8 -->
<g id="edge89" class="edge">
<title>Node74&#45;&gt;Node8</title>
<path fill="none" stroke="#191970" d="M2409.4743,-411.2023C2282.8241,-406.3757 1954.3622,-391.7922 1848,-367 1783.1359,-351.8807 1769.4358,-338.9905 1709,-311 1691.682,-302.9792 1688.9528,-297.4764 1671,-291 1642.9704,-280.8884 1569.718,-266.2863 1515.8288,-256.2613"/>
<polygon fill="#191970" stroke="#191970" points="1516.1378,-252.7592 1505.6681,-254.3825 1514.865,-259.6425 1516.1378,-252.7592"/>
</g>
<!-- Node74&#45;&gt;Node47 -->
<g id="edge98" class="edge">
<title>Node74&#45;&gt;Node47</title>
<path fill="none" stroke="#191970" d="M2509.8333,-403.442C2554.389,-394.2894 2615.8225,-379.9906 2637,-367 2659.8239,-352.9994 2707.9524,-292.9885 2731.4783,-262.673"/>
<polygon fill="#191970" stroke="#191970" points="2734.3412,-264.6921 2737.678,-254.6364 2728.7987,-260.4164 2734.3412,-264.6921"/>
</g>
<!-- Node74&#45;&gt;Node48 -->
<g id="edge99" class="edge">
<title>Node74&#45;&gt;Node48</title>
<path fill="none" stroke="#191970" d="M2409.2427,-406.9004C2331.0971,-397.5095 2180.2384,-379.3806 2083.4757,-367.7524"/>
<polygon fill="#191970" stroke="#191970" points="2083.7577,-364.2612 2073.4115,-366.543 2082.9224,-371.2112 2083.7577,-364.2612"/>
</g>
<!-- Node74&#45;&gt;Node72 -->
<g id="edge88" class="edge">
<title>Node74&#45;&gt;Node72</title>
<path fill="none" stroke="#191970" d="M2510.8128,-404.1425C2513.5793,-403.7368 2516.3219,-403.3527 2519,-403 2688.0705,-380.7363 2731.5974,-386.5764 2901,-367 2902.4693,-366.8302 2903.9548,-366.6554 2905.452,-366.4762"/>
<polygon fill="#191970" stroke="#191970" points="2905.9609,-369.9401 2915.4565,-365.2408 2905.1029,-362.9928 2905.9609,-369.9401"/>
</g>
<!-- Node75 -->
<g id="node41" class="node">
<title>Node75</title>
<g id="a_node41"><a xlink:href="Communication_8hpp.html" target="_top" xlink:title="com/Communication.hpp">
<polygon fill="#ffffff" stroke="#ff0000" points="1638.5,-235.5 1638.5,-254.5 1777.5,-254.5 1777.5,-235.5 1638.5,-235.5"/>
<text text-anchor="middle" x="1708" y="-242.5" font-family="Helvetica,sans-Serif" font-size="10.00" fill="#000000">com/Communication.hpp</text>
</a>
</g>
</g>
<!-- Node74&#45;&gt;Node75 -->
<g id="edge90" class="edge">
<title>Node74&#45;&gt;Node75</title>
<path fill="none" stroke="#191970" d="M2409.3626,-411.4331C2290.3271,-407.3319 1995.6425,-394.6322 1901,-367 1829.0443,-345.9915 1758.0832,-289.4513 1725.9097,-261.3356"/>
<polygon fill="#191970" stroke="#191970" points="1728.0418,-258.5481 1718.2406,-254.5248 1723.3936,-263.7821 1728.0418,-258.5481"/>
</g>
<!-- Node77 -->
<g id="node42" class="node">
<title>Node77</title>
<g id="a_node42"><a xlink:href="Mapping_8hpp.html" target="_top" xlink:title="mapping/Mapping.hpp">
<polygon fill="#ffffff" stroke="#ff0000" points="2503.5,-347.5 2503.5,-366.5 2628.5,-366.5 2628.5,-347.5 2503.5,-347.5"/>
<text text-anchor="middle" x="2566" y="-354.5" font-family="Helvetica,sans-Serif" font-size="10.00" fill="#000000">mapping/Mapping.hpp</text>
</a>
</g>
</g>
<!-- Node74&#45;&gt;Node77 -->
<g id="edge95" class="edge">
<title>Node74&#45;&gt;Node77</title>
<path fill="none" stroke="#191970" d="M2478.4638,-403.2455C2495.1074,-394.4527 2519.7993,-381.4079 2538.7192,-371.4125"/>
<polygon fill="#191970" stroke="#191970" points="2540.5408,-374.4086 2547.7478,-366.6427 2537.2709,-368.2193 2540.5408,-374.4086"/>
</g>
<!-- Node78 -->
<g id="node43" class="node">
<title>Node78</title>
<g id="a_node43"><a xlink:href="partition_2SharedPointer_8hpp.html" target="_top" xlink:title="partition/SharedPointer.hpp">
<polygon fill="#ffffff" stroke="#000000" points="2575.5,-179.5 2575.5,-198.5 2724.5,-198.5 2724.5,-179.5 2575.5,-179.5"/>
<text text-anchor="middle" x="2650" y="-186.5" font-family="Helvetica,sans-Serif" font-size="10.00" fill="#000000">partition/SharedPointer.hpp</text>
</a>
</g>
</g>
<!-- Node74&#45;&gt;Node78 -->
<g id="edge100" class="edge">
<title>Node74&#45;&gt;Node78</title>
<path fill="none" stroke="#191970" d="M2510.5539,-404.4306C2652.0121,-380.4262 3041.9518,-314.0708 3048,-311 3079.95,-294.7782 3091.9978,-287.9831 3106,-255 3109.4735,-246.8179 3111.9716,-241.5843 3106,-235 3078.3996,-204.5678 2778.8564,-203.3195 2738,-199 2737.0634,-198.901 2736.1213,-198.801 2735.1744,-198.7001"/>
<polygon fill="#191970" stroke="#191970" points="2735.2015,-195.1828 2724.8838,-197.5901 2734.4507,-202.1424 2735.2015,-195.1828"/>
</g>
<!-- Node75&#45;&gt;Node4 -->
<g id="edge91" class="edge">
<title>Node75&#45;&gt;Node4</title>
<path fill="none" stroke="#191970" d="M1638.441,-236.6767C1538.2851,-224.6922 1356.859,-202.9831 1278.1446,-193.5643"/>
<polygon fill="#191970" stroke="#191970" points="1278.5251,-190.085 1268.1801,-192.372 1277.6934,-197.0354 1278.5251,-190.085"/>
</g>
<!-- Node75&#45;&gt;Node5 -->
<g id="edge92" class="edge">
<title>Node75&#45;&gt;Node5</title>
<path fill="none" stroke="#191970" d="M1777.5151,-240.1079C1934.0785,-226.7582 2291.4916,-181.8803 2170,-56 2147.355,-32.537 1103.7348,-13.8589 906.1097,-10.529"/>
<polygon fill="#191970" stroke="#191970" points="906.1295,-7.029 896.0722,-10.3609 906.0122,-14.028 906.1295,-7.029"/>
</g>
<!-- Node75&#45;&gt;Node7 -->
<g id="edge93" class="edge">
<title>Node75&#45;&gt;Node7</title>
<path fill="none" stroke="#191970" d="M1777.6696,-238.7705C1898.5247,-227.8723 2137.8306,-205.853 2176,-199 2177.4688,-198.7363 2178.964,-198.4446 2180.4705,-198.1317"/>
<polygon fill="#191970" stroke="#191970" points="2181.4606,-201.4951 2190.4133,-195.8294 2179.8815,-194.6756 2181.4606,-201.4951"/>
</g>
<!-- Node75&#45;&gt;Node15 -->
<g id="edge94" class="edge">
<title>Node75&#45;&gt;Node15</title>
<path fill="none" stroke="#191970" d="M1638.3526,-236.4798C1633.4978,-235.9564 1628.6773,-235.4572 1624,-235 1429.2738,-215.9656 1198.4057,-200.1979 1088.0561,-193.0784"/>
<polygon fill="#191970" stroke="#191970" points="1087.9625,-189.5652 1077.7586,-192.4166 1087.5135,-196.5508 1087.9625,-189.5652"/>
</g>
<!-- Node77&#45;&gt;Node47 -->
<g id="edge97" class="edge">
<title>Node77&#45;&gt;Node47</title>
<path fill="none" stroke="#191970" d="M2581.2614,-347.4509C2612.4375,-327.9441 2683.6394,-283.3932 2721.0414,-259.9909"/>
<polygon fill="#191970" stroke="#191970" points="2723.1564,-262.7962 2729.7772,-254.5249 2719.4434,-256.8621 2723.1564,-262.7962"/>
</g>
<!-- Node77&#45;&gt;Node54 -->
<g id="edge96" class="edge">
<title>Node77&#45;&gt;Node54</title>
<path fill="none" stroke="#191970" d="M2503.4836,-349.3893C2413.6652,-338.4549 2249.4198,-318.4598 2162.8555,-307.9215"/>
<polygon fill="#191970" stroke="#191970" points="2163.0439,-304.4187 2152.6942,-306.6845 2162.1979,-311.3674 2163.0439,-304.4187"/>
</g>
<!-- Node78&#45;&gt;Node3 -->
<g id="edge101" class="edge">
<title>Node78&#45;&gt;Node3</title>
<path fill="none" stroke="#191970" d="M2575.1442,-185.2605C2357.7231,-174.3992 1731.3314,-143.1075 1568.2138,-134.9589"/>
<polygon fill="#191970" stroke="#191970" points="1568.3109,-131.4595 1558.1487,-134.4561 1567.9616,-138.4508 1568.3109,-131.4595"/>
</g>
<!-- Node79&#45;&gt;Node2 -->
<g id="edge103" class="edge">
<title>Node79&#45;&gt;Node2</title>
<path fill="none" stroke="#191970" d="M532.3695,-295.6202C428.2459,-284.8552 205.4741,-261.1671 200,-255 186.6077,-239.9124 202.7474,-219.553 218.1424,-205.4541"/>
<polygon fill="#191970" stroke="#191970" points="220.6743,-207.8926 225.9647,-198.7131 216.1046,-202.5899 220.6743,-207.8926"/>
</g>
<!-- Node79&#45;&gt;Node5 -->
<g id="edge104" class="edge">
<title>Node79&#45;&gt;Node5</title>
<path fill="none" stroke="#191970" d="M532.4067,-292.141C489.3958,-283.9316 433.0052,-270.6489 416,-255 393.0325,-233.8643 392,-220.2125 392,-189 392,-189 392,-189 392,-133 392,-97.154 388.226,-78.6615 416,-56 448.8992,-29.1567 742.845,-15.1792 841.717,-11.2065"/>
<polygon fill="#191970" stroke="#191970" points="842.1355,-14.6928 851.9899,-10.8018 841.8598,-7.6983 842.1355,-14.6928"/>
</g>
<!-- Node79&#45;&gt;Node7 -->
<g id="edge105" class="edge">
<title>Node79&#45;&gt;Node7</title>
<path fill="none" stroke="#191970" d="M637.6549,-295.4983C652.9205,-293.9673 669.6183,-292.3542 685,-291 895.0178,-272.5095 947.8575,-272.0156 1158,-255 1261.5973,-246.6116 1287.3235,-242.3454 1391,-235 1697.3041,-213.2986 2068.3395,-195.6589 2180.3904,-190.5187"/>
<polygon fill="#191970" stroke="#191970" points="2180.585,-194.0136 2190.4147,-190.0606 2180.2653,-187.0209 2180.585,-194.0136"/>
</g>
<!-- Node79&#45;&gt;Node15 -->
<g id="edge111" class="edge">
<title>Node79&#45;&gt;Node15</title>
<path fill="none" stroke="#191970" d="M637.8224,-295.6972C739.4924,-285.3466 953.6754,-262.7846 968,-255 987.9691,-244.1479 1003.6518,-222.832 1013.0761,-207.3533"/>
<polygon fill="#191970" stroke="#191970" points="1016.1515,-209.0265 1018.1177,-198.6157 1010.0884,-205.5281 1016.1515,-209.0265"/>
</g>
<!-- Node79&#45;&gt;Node47 -->
<g id="edge112" class="edge">
<title>Node79&#45;&gt;Node47</title>
<path fill="none" stroke="#191970" d="M637.6129,-294.9266C652.8777,-293.3848 669.5856,-291.9091 685,-291 1561.6195,-239.2981 1787.2066,-319.2527 2667.3786,-254.9445"/>
<polygon fill="#191970" stroke="#191970" points="2667.7206,-258.4289 2677.4372,-254.2054 2667.2076,-251.4477 2667.7206,-258.4289"/>
</g>
<!-- Node80 -->
<g id="node45" class="node">
<title>Node80</title>
<g id="a_node45"><a xlink:href="TXTTableWriter_8hpp.html" target="_top" xlink:title="io/TXTTableWriter.hpp">
<polygon fill="#ffffff" stroke="#ff0000" points="242,-235.5 242,-254.5 364,-254.5 364,-235.5 242,-235.5"/>
<text text-anchor="middle" x="303" y="-242.5" font-family="Helvetica,sans-Serif" font-size="10.00" fill="#000000">io/TXTTableWriter.hpp</text>
</a>
</g>
</g>
<!-- Node79&#45;&gt;Node80 -->
<g id="edge106" class="edge">
<title>Node79&#45;&gt;Node80</title>
<path fill="none" stroke="#191970" d="M536.8429,-291.4369C488.1752,-281.7724 412.9425,-266.8326 361.0179,-256.5213"/>
<polygon fill="#191970" stroke="#191970" points="361.4487,-253.0386 350.9585,-254.5237 360.0852,-259.9045 361.4487,-253.0386"/>
</g>
<!-- Node80&#45;&gt;Node2 -->
<g id="edge107" class="edge">
<title>Node80&#45;&gt;Node2</title>
<path fill="none" stroke="#191970" d="M291.8521,-235.2455C282.4913,-227.0549 268.9142,-215.1749 257.8651,-205.5069"/>
<polygon fill="#191970" stroke="#191970" points="259.8508,-202.5937 250.0202,-198.6427 255.2412,-207.8618 259.8508,-202.5937"/>
</g>
<!-- Node80&#45;&gt;Node5 -->
<g id="edge108" class="edge">
<title>Node80&#45;&gt;Node5</title>
<path fill="none" stroke="#191970" d="M303.5109,-235.0641C305.7489,-202.9298 317.5298,-101.282 378,-56 415.064,-28.2453 737.2658,-14.7343 841.5692,-11.06"/>
<polygon fill="#191970" stroke="#191970" points="841.9286,-14.5498 851.8018,-10.7067 841.687,-7.5539 841.9286,-14.5498"/>
</g>
<!-- Node80&#45;&gt;Node7 -->
<g id="edge109" class="edge">
<title>Node80&#45;&gt;Node7</title>
<path fill="none" stroke="#191970" d="M364.0573,-240.2395C390.202,-238.351 421.0839,-236.3192 449,-235 1146.6308,-202.0324 2000.5725,-191.3102 2179.9652,-189.3505"/>
<polygon fill="#191970" stroke="#191970" points="2180.1461,-192.8489 2190.1078,-189.2413 2180.0706,-185.8493 2180.1461,-192.8489"/>
</g>
<!-- Node80&#45;&gt;Node15 -->
<g id="edge110" class="edge">
<title>Node80&#45;&gt;Node15</title>
<path fill="none" stroke="#191970" d="M364.0762,-240.2496C498.7336,-229.7763 820.1088,-204.7804 958.1656,-194.0427"/>
<polygon fill="#191970" stroke="#191970" points="958.4816,-197.5288 968.18,-193.2638 957.9387,-190.5498 958.4816,-197.5288"/>
</g>
<!-- Node82&#45;&gt;Node2 -->
<g id="edge114" class="edge">
<title>Node82&#45;&gt;Node2</title>
<path fill="none" stroke="#191970" d="M383.8116,-298.6723C288.7585,-293.4087 78.3405,-279.134 57,-255 16.1061,-208.7531 127.5814,-194.8933 193.8345,-190.7533"/>
<polygon fill="#191970" stroke="#191970" points="194.2655,-194.2345 204.0492,-190.1689 193.8655,-187.2459 194.2655,-194.2345"/>
</g>
<!-- Node82&#45;&gt;Node5 -->
<g id="edge116" class="edge">
<title>Node82&#45;&gt;Node5</title>
<path fill="none" stroke="#191970" d="M383.7062,-300.1934C294.1252,-297.8768 100.9585,-288.9742 45,-255 14.6526,-236.5751 0,-224.5027 0,-189 0,-189 0,-189 0,-133 0,-41.4725 101.7842,-76.4409 191,-56 317.238,-27.0767 723.5684,-14.0604 841.5796,-10.8298"/>
<polygon fill="#191970" stroke="#191970" points="841.8695,-14.3234 851.7717,-10.5557 841.6812,-7.3259 841.8695,-14.3234"/>
</g>
<!-- Node82&#45;&gt;Node7 -->
<g id="edge117" class="edge">
<title>Node82&#45;&gt;Node7</title>
<path fill="none" stroke="#191970" d="M476.3349,-295.7811C491.2277,-294.1671 507.8032,-292.4371 523,-291 718.7786,-272.4864 768.1813,-273.0843 964,-255 1050.3119,-247.0289 1071.5525,-241.3333 1158,-235 1559.4178,-205.5913 2048.1554,-192.809 2179.9213,-189.7507"/>
<polygon fill="#191970" stroke="#191970" points="2180.2607,-193.244 2190.1779,-189.5157 2180.1003,-186.2458 2180.2607,-193.244"/>
</g>
<!-- Node82&#45;&gt;Node8 -->
<g id="edge118" class="edge">
<title>Node82&#45;&gt;Node8</title>
<path fill="none" stroke="#191970" d="M476.3096,-295.4885C491.201,-293.8588 507.7822,-292.1935 523,-291 848.7841,-265.4491 1239.9499,-251.5677 1390.1033,-246.8583"/>
<polygon fill="#191970" stroke="#191970" points="1390.6074,-250.3444 1400.4937,-246.535 1390.3896,-243.3478 1390.6074,-250.3444"/>
</g>
<!-- Node82&#45;&gt;Node15 -->
<g id="edge120" class="edge">
<title>Node82&#45;&gt;Node15</title>
<path fill="none" stroke="#191970" d="M476.3401,-295.8351C491.2332,-294.2239 507.8075,-292.482 523,-291 705.4998,-273.1972 762.5651,-320.0629 934,-255 949.0833,-249.2756 982.6091,-222.7186 1003.9345,-205.086"/>
<polygon fill="#191970" stroke="#191970" points="1006.2692,-207.6965 1011.7103,-198.6056 1001.7876,-202.3191 1006.2692,-207.6965"/>
</g>
<!-- Node82&#45;&gt;Node47 -->
<g id="edge121" class="edge">
<title>Node82&#45;&gt;Node47</title>
<path fill="none" stroke="#191970" d="M476.2886,-295.19C491.179,-293.5443 507.7647,-291.945 523,-291 1471.2698,-232.1809 1715.344,-323.8543 2667.2653,-254.9511"/>
<polygon fill="#191970" stroke="#191970" points="2667.7181,-258.4275 2677.4376,-254.2106 2667.2098,-251.446 2667.7181,-258.4275"/>
</g>
<!-- Node82&#45;&gt;Node80 -->
<g id="edge119" class="edge">
<title>Node82&#45;&gt;Node80</title>
<path fill="none" stroke="#191970" d="M408.1679,-291.3733C387.6897,-282.3435 356.8601,-268.7494 333.8681,-258.6111"/>
<polygon fill="#191970" stroke="#191970" points="335.1093,-255.3333 324.5472,-254.5011 332.285,-261.7383 335.1093,-255.3333"/>
</g>
<!-- Node83 -->
<g id="node47" class="node">
<title>Node83</title>
<polygon fill="#ffffff" stroke="#bfbfbf" points="66,-235.5 66,-254.5 110,-254.5 110,-235.5 66,-235.5"/>
<text text-anchor="middle" x="88" y="-242.5" font-family="Helvetica,sans-Serif" font-size="10.00" fill="#000000">limits</text>
</g>
<!-- Node82&#45;&gt;Node83 -->
<g id="edge115" class="edge">
<title>Node82&#45;&gt;Node83</title>
<path fill="none" stroke="#191970" d="M383.8059,-295.8339C323.6192,-288.6977 215.2897,-274.4652 124,-255 122.751,-254.7337 121.4812,-254.4492 120.2012,-254.1509"/>
<polygon fill="#191970" stroke="#191970" points="120.9169,-250.7218 110.3642,-251.6663 119.2026,-257.5087 120.9169,-250.7218"/>
</g>
<!-- Node84&#45;&gt;Node47 -->
<g id="edge124" class="edge">
<title>Node84&#45;&gt;Node47</title>
<path fill="none" stroke="#191970" d="M2606.9639,-403.3689C2626.4388,-395.6818 2652.19,-383.4684 2671,-367 2704.0902,-338.029 2726.8745,-290.5645 2737.7323,-264.1913"/>
<polygon fill="#191970" stroke="#191970" points="2741.1049,-265.181 2741.5368,-254.595 2734.5977,-262.6011 2741.1049,-265.181"/>
</g>
<!-- Node84&#45;&gt;Node77 -->
<g id="edge123" class="edge">
<title>Node84&#45;&gt;Node77</title>
<path fill="none" stroke="#191970" d="M2576.7356,-403.2455C2575.0206,-395.8579 2572.6088,-385.4689 2570.5056,-376.4087"/>
<polygon fill="#191970" stroke="#191970" points="2573.9092,-375.5922 2568.2385,-366.6427 2567.0905,-377.1751 2573.9092,-375.5922"/>
</g>
<!-- Node85&#45;&gt;Node5 -->
<g id="edge129" class="edge">
<title>Node85&#45;&gt;Node5</title>
<path fill="none" stroke="#191970" d="M693.7464,-294.3667C535.3871,-283.0806 232.0904,-260.7988 222,-255 190.9996,-237.1844 176,-224.755 176,-189 176,-189 176,-189 176,-133 176,-50.0554 265.7606,-77.0106 346,-56 440.5792,-31.2345 741.9682,-15.8875 841.6473,-11.3876"/>
<polygon fill="#191970" stroke="#191970" points="841.8859,-14.8805 851.7202,-10.939 841.5743,-7.8875 841.8859,-14.8805"/>
</g>
<!-- Node85&#45;&gt;Node7 -->
<g id="edge130" class="edge">
<title>Node85&#45;&gt;Node7</title>
<path fill="none" stroke="#191970" d="M863.0824,-291.4831C977.0235,-277.3352 1200.5064,-250.7374 1391,-235 1697.0294,-209.7177 2068.2506,-194.5001 2180.3689,-190.2375"/>
<polygon fill="#191970" stroke="#191970" points="2180.5383,-193.7337 2190.3993,-189.8592 2180.2745,-186.7386 2180.5383,-193.7337"/>
</g>
<!-- Node85&#45;&gt;Node15 -->
<g id="edge131" class="edge">
<title>Node85&#45;&gt;Node15</title>
<path fill="none" stroke="#191970" d="M879.2004,-291.4594C930.3884,-284.2833 987.5891,-272.6157 1006,-255 1018.3992,-243.1364 1022.2056,-223.5319 1023.1758,-208.7651"/>
<polygon fill="#191970" stroke="#191970" points="1026.6784,-208.7184 1023.4602,-198.6242 1019.6811,-208.5221 1026.6784,-208.7184"/>
</g>
<!-- Node85&#45;&gt;Node57 -->
<g id="edge132" class="edge">
<title>Node85&#45;&gt;Node57</title>
<path fill="none" stroke="#191970" d="M739.5014,-291.4369C689.7459,-281.6259 612.4202,-266.3786 560.0687,-256.0558"/>
<polygon fill="#191970" stroke="#191970" points="560.4352,-252.5607 549.947,-254.06 559.081,-259.4285 560.4352,-252.5607"/>
</g>
<!-- Node86&#45;&gt;Node3 -->
<g id="edge134" class="edge">
<title>Node86&#45;&gt;Node3</title>
<path fill="none" stroke="#191970" d="M2395.9429,-291.4886C2414.3757,-278.5606 2441.5886,-254.7845 2427,-235 2414.5063,-218.0565 2266.7037,-182.8115 2246,-179 2114.3014,-154.7545 1699.1391,-138.8204 1568.6547,-134.3116"/>
<polygon fill="#191970" stroke="#191970" points="1568.4515,-130.8026 1558.3376,-133.9584 1568.212,-137.7985 1568.4515,-130.8026"/>
</g>
<!-- Node86&#45;&gt;Node5 -->
<g id="edge135" class="edge">
<title>Node86&#45;&gt;Node5</title>
<path fill="none" stroke="#191970" d="M2412.8649,-291.4765C2456.2701,-278.5347 2536.4322,-254.743 2605,-235 2664.6708,-217.8187 2768.9211,-229.6505 2733,-179 2637.3758,-44.1651 2544.5175,-86.2075 2382,-56 2232.4196,-28.1972 1112.1879,-12.9704 906.4218,-10.3936"/>
<polygon fill="#191970" stroke="#191970" points="906.3085,-6.892 896.2657,-10.2674 906.2215,-13.8915 906.3085,-6.892"/>
</g>
<!-- Node86&#45;&gt;Node6 -->
<g id="edge136" class="edge">
<title>Node86&#45;&gt;Node6</title>
<path fill="none" stroke="#191970" d="M2430.3219,-291.4742C2474.8258,-282.6811 2542.0105,-268.9147 2600,-255 2601.4558,-254.6507 2602.9416,-254.2855 2604.4407,-253.91"/>
<polygon fill="#191970" stroke="#191970" points="2605.5527,-257.2375 2614.354,-251.3394 2603.7956,-250.4615 2605.5527,-257.2375"/>
</g>
<!-- Node86&#45;&gt;Node7 -->
<g id="edge137" class="edge">
<title>Node86&#45;&gt;Node7</title>
<path fill="none" stroke="#191970" d="M2391.2896,-291.2151C2404.4114,-277.548 2423.8366,-252.46 2410,-235 2390.1382,-209.9371 2298.531,-197.2012 2247.8907,-191.975"/>
<polygon fill="#191970" stroke="#191970" points="2248.0429,-188.4731 2237.747,-190.9721 2247.3541,-195.4391 2248.0429,-188.4731"/>
</g>
<!-- Node86&#45;&gt;Node15 -->
<g id="edge138" class="edge">
<title>Node86&#45;&gt;Node15</title>
<path fill="none" stroke="#191970" d="M2285.3016,-296.0959C2089.7978,-285.9461 1660.2618,-262.9233 1629,-255 1608.5688,-249.8217 1606.3772,-240.3867 1586,-235 1538.8843,-222.5449 1225.5026,-201.6983 1087.7548,-193.0008"/>
<polygon fill="#191970" stroke="#191970" points="1087.9504,-189.5063 1077.7503,-192.371 1087.5106,-196.4925 1087.9504,-189.5063"/>
</g>
<!-- Node86&#45;&gt;Node47 -->
<g id="edge139" class="edge">
<title>Node86&#45;&gt;Node47</title>
<path fill="none" stroke="#191970" d="M2443.1602,-291.4369C2506.8956,-281.6314 2605.928,-266.3957 2673.0246,-256.0731"/>
<polygon fill="#191970" stroke="#191970" points="2673.7447,-259.5036 2683.0961,-254.5237 2672.6802,-252.585 2673.7447,-259.5036"/>
</g>
<!-- Node86&#45;&gt;Node63 -->
<g id="edge140" class="edge">
<title>Node86&#45;&gt;Node63</title>
<path fill="none" stroke="#191970" d="M2306.8859,-291.4369C2230.2695,-281.5509 2110.8741,-266.145 2030.8534,-255.8198"/>
<polygon fill="#191970" stroke="#191970" points="2031.1742,-252.3322 2020.8084,-254.5237 2030.2783,-259.2747 2031.1742,-252.3322"/>
</g>
</g>
</svg>
