<?xml version="1.0" encoding="UTF-8" standalone="no"?>
<!DOCTYPE svg PUBLIC "-//W3C//DTD SVG 1.1//EN"
 "http://www.w3.org/Graphics/SVG/1.1/DTD/svg11.dtd">
<!-- Generated by graphviz version 2.40.1 (20161225.0304)
 -->
<!-- Title: src/precice/config/ParticipantConfiguration.hpp Pages: 1 -->
<svg width="551pt" height="106pt"
 viewBox="0.00 0.00 551.00 106.00" xmlns="http://www.w3.org/2000/svg" xmlns:xlink="http://www.w3.org/1999/xlink">
<g id="graph0" class="graph" transform="scale(1 1) rotate(0) translate(4 102)">
<title>src/precice/config/ParticipantConfiguration.hpp</title>
<polygon fill="#ffffff" stroke="transparent" points="-4,4 -4,-102 547,-102 547,4 -4,4"/>
<!-- Node72 -->
<g id="node1" class="node">
<title>Node72</title>
<polygon fill="#bfbfbf" stroke="#000000" points="185.5,-67.5 185.5,-97.5 343.5,-97.5 343.5,-67.5 185.5,-67.5"/>
<text text-anchor="start" x="193.5" y="-85.5" font-family="Helvetica,sans-Serif" font-size="10.00" fill="#000000">src/precice/config</text>
<text text-anchor="middle" x="264.5" y="-74.5" font-family="Helvetica,sans-Serif" font-size="10.00" fill="#000000">/ParticipantConfiguration.hpp</text>
</g>
<!-- Node73 -->
<g id="node2" class="node">
<title>Node73</title>
<g id="a_node2"><a xlink:href="ParticipantConfiguration_8cpp.html" target="_top" xlink:title="src/precice/config\l/ParticipantConfiguration.cpp">
<polygon fill="#ffffff" stroke="#000000" points="0,-.5 0,-30.5 157,-30.5 157,-.5 0,-.5"/>
<text text-anchor="start" x="8" y="-18.5" font-family="Helvetica,sans-Serif" font-size="10.00" fill="#000000">src/precice/config</text>
<text text-anchor="middle" x="78.5" y="-7.5" font-family="Helvetica,sans-Serif" font-size="10.00" fill="#000000">/ParticipantConfiguration.cpp</text>
</a>
</g>
</g>
<!-- Node72&#45;&gt;Node73 -->
<g id="edge1" class="edge">
<title>Node72&#45;&gt;Node73</title>
<path fill="none" stroke="#191970" d="M213.148,-64.0023C183.9655,-53.4903 147.8876,-40.4945 120.4241,-30.6017"/>
<polygon fill="#191970" stroke="#191970" points="212.1636,-67.3677 222.758,-67.4639 214.5359,-60.782 212.1636,-67.3677"/>
</g>
<!-- Node74 -->
<g id="node3" class="node">
<title>Node74</title>
<g id="a_node3"><a xlink:href="SolverInterfaceConfiguration_8cpp.html" target="_top" xlink:title="src/precice/config\l/SolverInterfaceConfiguration.cpp">
<polygon fill="#ffffff" stroke="#000000" points="175,-.5 175,-30.5 354,-30.5 354,-.5 175,-.5"/>
<text text-anchor="start" x="183" y="-18.5" font-family="Helvetica,sans-Serif" font-size="10.00" fill="#000000">src/precice/config</text>
<text text-anchor="middle" x="264.5" y="-7.5" font-family="Helvetica,sans-Serif" font-size="10.00" fill="#000000">/SolverInterfaceConfiguration.cpp</text>
</a>
</g>
</g>
<!-- Node72&#45;&gt;Node74 -->
<g id="edge2" class="edge">
<title>Node72&#45;&gt;Node74</title>
<path fill="none" stroke="#191970" d="M264.5,-57.0249C264.5,-48.128 264.5,-38.4287 264.5,-30.6432"/>
<polygon fill="#191970" stroke="#191970" points="261.0001,-57.2966 264.5,-67.2967 268.0001,-57.2967 261.0001,-57.2966"/>
</g>
<!-- Node75 -->
<g id="node4" class="node">
<title>Node75</title>
<g id="a_node4"><a xlink:href="SolverInterfaceImpl_8cpp.html" target="_top" xlink:title="src/precice/impl/SolverInterface\lImpl.cpp">
<polygon fill="#ffffff" stroke="#000000" points="372,-.5 372,-30.5 543,-30.5 543,-.5 372,-.5"/>
<text text-anchor="start" x="380" y="-18.5" font-family="Helvetica,sans-Serif" font-size="10.00" fill="#000000">src/precice/impl/SolverInterface</text>
<text text-anchor="middle" x="457.5" y="-7.5" font-family="Helvetica,sans-Serif" font-size="10.00" fill="#000000">Impl.cpp</text>
</a>
</g>
</g>
<!-- Node72&#45;&gt;Node75 -->
<g id="edge3" class="edge">
<title>Node72&#45;&gt;Node75</title>
<path fill="none" stroke="#191970" d="M317.39,-64.1392C347.7396,-53.6033 385.3771,-40.5375 413.9981,-30.6017"/>
<polygon fill="#191970" stroke="#191970" points="316.1121,-60.8779 307.813,-67.4639 318.4078,-67.4907 316.1121,-60.8779"/>
</g>
</g>
</svg>
