<?xml version="1.0" encoding="UTF-8" standalone="no"?>
<!DOCTYPE svg PUBLIC "-//W3C//DTD SVG 1.1//EN"
 "http://www.w3.org/Graphics/SVG/1.1/DTD/svg11.dtd">
<!-- Generated by graphviz version 2.40.1 (20161225.0304)
 -->
<!-- Title: perform3DTestConservativeMapping Pages: 1 -->
<!--zoomable 313 -->
<svg id="main" version="1.1" xmlns="http://www.w3.org/2000/svg" xmlns:xlink="http://www.w3.org/1999/xlink" xml:space="preserve" onload="init(evt)">
<style type="text/css"><![CDATA[
.edge:hover path { stroke: red; }
.edge:hover polygon { stroke: red; fill: red; }
]]></style>
<script type="text/javascript"><![CDATA[
var edges = document.getElementsByTagName('g');
if (edges && edges.length) {
  for (var i=0;i<edges.length;i++) {
    if (edges[i].id.substr(0,4)=='edge') {
      edges[i].setAttribute('class','edge');
    }
  }
}
]]></script>
        <defs>
                <circle id="rim" cx="0" cy="0" r="7"/>
                <circle id="rim2" cx="0" cy="0" r="3.5"/>
                <g id="zoomPlus">
                        <use xlink:href="#rim" fill="#404040">
                                <set attributeName="fill" to="#808080" begin="zoomplus.mouseover" end="zoomplus.mouseout"/>
                        </use>
                        <path d="M-4,0h8M0,-4v8" fill="none" stroke="white" stroke-width="1.5" pointer-events="none"/>
                </g>
                <g id="zoomMin">
                        <use xlink:href="#rim" fill="#404040">
                                <set attributeName="fill" to="#808080" begin="zoomminus.mouseover" end="zoomminus.mouseout"/>
                        </use>
                        <path d="M-4,0h8" fill="none" stroke="white" stroke-width="1.5" pointer-events="none"/>
                </g>
                <g id="dirArrow">
                        <path fill="none" stroke="white" stroke-width="1.5" d="M0,-3.0v7 M-2.5,-0.5L0,-3.0L2.5,-0.5"/>
                </g>
               <g id="resetDef">
                       <use xlink:href="#rim2" fill="#404040">
                               <set attributeName="fill" to="#808080" begin="reset.mouseover" end="reset.mouseout"/>
                       </use>
               </g>
        </defs>

<script type="text/javascript">
var viewWidth = 567;
var viewHeight = 313;
var sectionId = 'dynsection-39';
</script>
<script xlink:href="svgpan.js"/>
<svg id="graph" class="graph">
<g id="viewport">
<title>perform3DTestConservativeMapping</title>
<polygon fill="#ffffff" stroke="transparent" points="-4,4 -4,-308.5 563,-308.5 563,4 -4,4"/>
<!-- Node819 -->
<g id="node1" class="node">
<title>Node819</title>
<polygon fill="#bfbfbf" stroke="#000000" points="0,-137 0,-167 153,-167 153,-137 0,-137"/>
<text text-anchor="start" x="8" y="-155" font-family="Helvetica,sans-Serif" font-size="10.00" fill="#000000">perform3DTestConservative</text>
<text text-anchor="middle" x="76.5" y="-144" font-family="Helvetica,sans-Serif" font-size="10.00" fill="#000000">Mapping</text>
</g>
<!-- Node820 -->
<g id="node2" class="node">
<title>Node820</title>
<g id="a_node2"><a xlink:href="namespaceprecice_1_1testing.html#a08533fd83bad3d7f27ea7f4a35a14aa4" target="_top" xlink:title="precice::testing::nextMeshID">
<polygon fill="#ffffff" stroke="#000000" points="199.5,-276.5 199.5,-295.5 354.5,-295.5 354.5,-276.5 199.5,-276.5"/>
<text text-anchor="middle" x="277" y="-283.5" font-family="Helvetica,sans-Serif" font-size="10.00" fill="#000000">precice::testing::nextMeshID</text>
</a>
</g>
</g>
<!-- Node819&#45;&gt;Node820 -->
<g id="edge1" class="edge">
<title>Node819&#45;&gt;Node820</title>
<path fill="none" stroke="#191970" d="M87.4156,-167.2809C105.623,-191.6032 144.604,-238.9286 189,-264 195.5049,-267.6734 202.6207,-270.7409 209.8976,-273.3008"/>
<polygon fill="#191970" stroke="#191970" points="209.2876,-276.78 219.8784,-276.4863 211.416,-270.1114 209.2876,-276.78"/>
</g>
<!-- Node822 -->
<g id="node4" class="node">
<title>Node822</title>
<g id="a_node4"><a xlink:href="PetRadialBasisFctMappingTest_8cpp.html#a091feb1893c75899e59fa939e678debe" target="_top" xlink:title="addGlobalIndex">
<polygon fill="#ffffff" stroke="#000000" points="230.5,-235.5 230.5,-254.5 323.5,-254.5 323.5,-235.5 230.5,-235.5"/>
<text text-anchor="middle" x="277" y="-242.5" font-family="Helvetica,sans-Serif" font-size="10.00" fill="#000000">addGlobalIndex</text>
</a>
</g>
</g>
<!-- Node819&#45;&gt;Node822 -->
<g id="edge3" class="edge">
<title>Node819&#45;&gt;Node822</title>
<path fill="none" stroke="#191970" d="M94.7838,-167.1366C116.0934,-184.0073 152.999,-210.8963 189,-226 198.83,-230.124 209.6683,-233.3992 220.28,-235.9852"/>
<polygon fill="#191970" stroke="#191970" points="219.8189,-239.4691 230.3443,-238.2585 221.3612,-232.6411 219.8189,-239.4691"/>
</g>
<!-- Node824 -->
<g id="node6" class="node">
<title>Node824</title>
<g id="a_node6"><a xlink:href="classprecice_1_1mapping_1_1Mapping.html#a5bf2ecf9adb1ae66977c1223f841a61f" target="_top" xlink:title="Sets input and output meshes carrying data to be mapped. ">
<polygon fill="#ffffff" stroke="#000000" points="203,-186 203,-216 351,-216 351,-186 203,-186"/>
<text text-anchor="start" x="211" y="-204" font-family="Helvetica,sans-Serif" font-size="10.00" fill="#000000">precice::mapping::Mapping</text>
<text text-anchor="middle" x="277" y="-193" font-family="Helvetica,sans-Serif" font-size="10.00" fill="#000000">::setMeshes</text>
</a>
</g>
</g>
<!-- Node819&#45;&gt;Node824 -->
<g id="edge5" class="edge">
<title>Node819&#45;&gt;Node824</title>
<path fill="none" stroke="#191970" d="M138.0192,-167.0346C159.3817,-172.2554 183.5168,-178.1537 205.6082,-183.5526"/>
<polygon fill="#191970" stroke="#191970" points="205.0521,-187.0197 215.5971,-185.9938 206.714,-180.2198 205.0521,-187.0197"/>
</g>
<!-- Node827 -->
<g id="node9" class="node">
<title>Node827</title>
<g id="a_node9"><a xlink:href="classprecice_1_1mapping_1_1Mapping.html#ae7fcb351e225322b05e4cd7c45215b52" target="_top" xlink:title="Returns true, if the mapping has been computed. ">
<polygon fill="#ffffff" stroke="#000000" points="203,-137 203,-167 351,-167 351,-137 203,-137"/>
<text text-anchor="start" x="211" y="-155" font-family="Helvetica,sans-Serif" font-size="10.00" fill="#000000">precice::mapping::Mapping</text>
<text text-anchor="middle" x="277" y="-144" font-family="Helvetica,sans-Serif" font-size="10.00" fill="#000000">::hasComputedMapping</text>
</a>
</g>
</g>
<!-- Node819&#45;&gt;Node827 -->
<g id="edge8" class="edge">
<title>Node819&#45;&gt;Node827</title>
<path fill="none" stroke="#191970" d="M153.1587,-152C165.9817,-152 179.3506,-152 192.3601,-152"/>
<polygon fill="#191970" stroke="#191970" points="192.699,-155.5001 202.699,-152 192.699,-148.5001 192.699,-155.5001"/>
</g>
<!-- Node828 -->
<g id="node10" class="node">
<title>Node828</title>
<g id="a_node10"><a xlink:href="classprecice_1_1mesh_1_1Vertex.html#a38d26bf077919b0b6d59298720adcb2f" target="_top" xlink:title="Sets the coordinates of the vertex. ">
<polygon fill="#ffffff" stroke="#000000" points="216,-88 216,-118 338,-118 338,-88 216,-88"/>
<text text-anchor="start" x="224" y="-106" font-family="Helvetica,sans-Serif" font-size="10.00" fill="#000000">precice::mesh::Vertex</text>
<text text-anchor="middle" x="277" y="-95" font-family="Helvetica,sans-Serif" font-size="10.00" fill="#000000">::setCoords</text>
</a>
</g>
</g>
<!-- Node819&#45;&gt;Node828 -->
<g id="edge9" class="edge">
<title>Node819&#45;&gt;Node828</title>
<path fill="none" stroke="#191970" d="M138.0192,-136.9654C159.5782,-131.6966 183.961,-125.7377 206.2173,-120.2985"/>
<polygon fill="#191970" stroke="#191970" points="207.0589,-123.6959 215.9421,-117.9219 205.397,-116.896 207.0589,-123.6959"/>
</g>
<!-- Node829 -->
<g id="node11" class="node">
<title>Node829</title>
<g id="a_node11"><a xlink:href="classprecice_1_1mapping_1_1Mapping.html#abf2679ec4bbb86bd2380b088528cc1ff" target="_top" xlink:title="Computes the mapping coefficients from the in&#45; and output mesh. ">
<polygon fill="#ffffff" stroke="#000000" points="203,-39 203,-69 351,-69 351,-39 203,-39"/>
<text text-anchor="start" x="211" y="-57" font-family="Helvetica,sans-Serif" font-size="10.00" fill="#000000">precice::mapping::Mapping</text>
<text text-anchor="middle" x="277" y="-46" font-family="Helvetica,sans-Serif" font-size="10.00" fill="#000000">::computeMapping</text>
</a>
</g>
</g>
<!-- Node819&#45;&gt;Node829 -->
<g id="edge10" class="edge">
<title>Node819&#45;&gt;Node829</title>
<path fill="none" stroke="#191970" d="M95.3222,-136.9129C116.8273,-120.3416 153.6298,-93.967 189,-78 193.3706,-76.027 197.9385,-74.185 202.5958,-72.4705"/>
<polygon fill="#191970" stroke="#191970" points="203.942,-75.7084 212.2468,-69.1295 201.652,-69.0935 203.942,-75.7084"/>
</g>
<!-- Node830 -->
<g id="node12" class="node">
<title>Node830</title>
<g id="a_node12"><a xlink:href="classprecice_1_1mapping_1_1Mapping.html#a843b62d737d4e113bfa4db18682eb6fe" target="_top" xlink:title="Maps input data to output data from input mesh to output mesh. ">
<polygon fill="#ffffff" stroke="#000000" points="189,-.5 189,-19.5 365,-19.5 365,-.5 189,-.5"/>
<text text-anchor="middle" x="277" y="-7.5" font-family="Helvetica,sans-Serif" font-size="10.00" fill="#000000">precice::mapping::Mapping::map</text>
</a>
</g>
</g>
<!-- Node819&#45;&gt;Node830 -->
<g id="edge11" class="edge">
<title>Node819&#45;&gt;Node830</title>
<path fill="none" stroke="#191970" d="M85.8377,-136.732C102.8543,-110.2999 141.5701,-56.2385 189,-29 192.9179,-26.75 197.073,-24.7659 201.3617,-23.0163"/>
<polygon fill="#191970" stroke="#191970" points="202.7164,-26.2481 210.924,-19.5485 200.3299,-19.6675 202.7164,-26.2481"/>
</g>
<!-- Node821 -->
<g id="node3" class="node">
<title>Node821</title>
<g id="a_node3"><a xlink:href="classprecice_1_1utils_1_1ManageUniqueIDs.html#a02be264c279698ae293587b6576088b5" target="_top" xlink:title="precice::utils::ManageUnique\lIDs::getFreeID">
<polygon fill="#ffffff" stroke="#000000" points="401,-274 401,-304 559,-304 559,-274 401,-274"/>
<text text-anchor="start" x="409" y="-292" font-family="Helvetica,sans-Serif" font-size="10.00" fill="#000000">precice::utils::ManageUnique</text>
<text text-anchor="middle" x="480" y="-281" font-family="Helvetica,sans-Serif" font-size="10.00" fill="#000000">IDs::getFreeID</text>
</a>
</g>
</g>
<!-- Node820&#45;&gt;Node821 -->
<g id="edge2" class="edge">
<title>Node820&#45;&gt;Node821</title>
<path fill="none" stroke="#191970" d="M354.6145,-287.147C366.4195,-287.3215 378.6816,-287.5027 390.7114,-287.6805"/>
<polygon fill="#191970" stroke="#191970" points="390.6961,-291.1805 400.7467,-287.8288 390.7996,-284.1813 390.6961,-291.1805"/>
</g>
<!-- Node823 -->
<g id="node5" class="node">
<title>Node823</title>
<g id="a_node5"><a xlink:href="MPIPortsCommunicationTest_8cpp.html#a5ded28ea5c98cb27bf0cfcf344588d46" target="_top" xlink:title="BOOST_AUTO_TEST_SUITE">
<polygon fill="#ffffff" stroke="#000000" points="407,-235.5 407,-254.5 553,-254.5 553,-235.5 407,-235.5"/>
<text text-anchor="middle" x="480" y="-242.5" font-family="Helvetica,sans-Serif" font-size="10.00" fill="#000000">BOOST_AUTO_TEST_SUITE</text>
</a>
</g>
</g>
<!-- Node822&#45;&gt;Node823 -->
<g id="edge4" class="edge">
<title>Node822&#45;&gt;Node823</title>
<path fill="none" stroke="#191970" d="M323.5723,-245C345.2802,-245 371.7848,-245 396.7635,-245"/>
<polygon fill="#191970" stroke="#191970" points="396.9846,-248.5001 406.9846,-245 396.9845,-241.5001 396.9846,-248.5001"/>
</g>
<!-- Node825 -->
<g id="node7" class="node">
<title>Node825</title>
<g id="a_node7"><a xlink:href="classprecice_1_1mapping_1_1Mapping.html#a61c3c55af467ada2bdd735efa0f960e4" target="_top" xlink:title="Returns pointer to input mesh. ">
<polygon fill="#ffffff" stroke="#000000" points="406,-186 406,-216 554,-216 554,-186 406,-186"/>
<text text-anchor="start" x="414" y="-204" font-family="Helvetica,sans-Serif" font-size="10.00" fill="#000000">precice::mapping::Mapping</text>
<text text-anchor="middle" x="480" y="-193" font-family="Helvetica,sans-Serif" font-size="10.00" fill="#000000">::input</text>
</a>
</g>
</g>
<!-- Node824&#45;&gt;Node825 -->
<g id="edge6" class="edge">
<title>Node824&#45;&gt;Node825</title>
<path fill="none" stroke="#191970" d="M351.1494,-201C365.5972,-201 380.8441,-201 395.5949,-201"/>
<polygon fill="#191970" stroke="#191970" points="395.7119,-204.5001 405.7119,-201 395.7119,-197.5001 395.7119,-204.5001"/>
</g>
<!-- Node826 -->
<g id="node8" class="node">
<title>Node826</title>
<g id="a_node8"><a xlink:href="classprecice_1_1mapping_1_1Mapping.html#a07a71a54b71eda6d54510c94fb188e70" target="_top" xlink:title="Returns pointer to output mesh. ">
<polygon fill="#ffffff" stroke="#000000" points="406,-137 406,-167 554,-167 554,-137 406,-137"/>
<text text-anchor="start" x="414" y="-155" font-family="Helvetica,sans-Serif" font-size="10.00" fill="#000000">precice::mapping::Mapping</text>
<text text-anchor="middle" x="480" y="-144" font-family="Helvetica,sans-Serif" font-size="10.00" fill="#000000">::output</text>
</a>
</g>
</g>
<!-- Node824&#45;&gt;Node826 -->
<g id="edge7" class="edge">
<title>Node824&#45;&gt;Node826</title>
<path fill="none" stroke="#191970" d="M339.2863,-185.9654C361.0125,-180.7211 385.5714,-174.7931 408.0201,-169.3745"/>
<polygon fill="#191970" stroke="#191970" points="408.932,-172.755 417.8315,-167.0062 407.2894,-165.9504 408.932,-172.755"/>
</g>
</g>
</svg>
        <g id="navigator" transform="translate(0 0)" fill="#404254">
                <rect fill="#f2f5e9" fill-opacity="0.5" stroke="#606060" stroke-width=".5" x="0" y="0" width="60" height="60"/>
                <use id="zoomplus" xlink:href="#zoomPlus" x="17" y="9" onmousedown="handleZoom(evt,'in')"/>
                <use id="zoomminus" xlink:href="#zoomMin" x="42" y="9" onmousedown="handleZoom(evt,'out')"/>
                <use id="reset" xlink:href="#resetDef" x="30" y="36" onmousedown="handleReset()"/>
                <g id="arrowUp" xlink:href="#dirArrow" transform="translate(30 24)" onmousedown="handlePan(0,-1)">
                  <use xlink:href="#rim" fill="#404040">
                        <set attributeName="fill" to="#808080" begin="arrowUp.mouseover" end="arrowUp.mouseout"/>
                  </use>
                  <path fill="none" stroke="white" stroke-width="1.5" d="M0,-3.0v7 M-2.5,-0.5L0,-3.0L2.5,-0.5"/>
                </g>
                <g id="arrowRight" xlink:href="#dirArrow" transform="rotate(90) translate(36 -43)" onmousedown="handlePan(1,0)">
                  <use xlink:href="#rim" fill="#404040">
                        <set attributeName="fill" to="#808080" begin="arrowRight.mouseover" end="arrowRight.mouseout"/>
                  </use>
                  <path fill="none" stroke="white" stroke-width="1.5" d="M0,-3.0v7 M-2.5,-0.5L0,-3.0L2.5,-0.5"/>
                </g>
                <g id="arrowDown" xlink:href="#dirArrow" transform="rotate(180) translate(-30 -48)" onmousedown="handlePan(0,1)">
                  <use xlink:href="#rim" fill="#404040">
                        <set attributeName="fill" to="#808080" begin="arrowDown.mouseover" end="arrowDown.mouseout"/>
                  </use>
                  <path fill="none" stroke="white" stroke-width="1.5" d="M0,-3.0v7 M-2.5,-0.5L0,-3.0L2.5,-0.5"/>
                </g>
                <g id="arrowLeft" xlink:href="#dirArrow" transform="rotate(270) translate(-36 17)" onmousedown="handlePan(-1,0)">
                  <use xlink:href="#rim" fill="#404040">
                        <set attributeName="fill" to="#808080" begin="arrowLeft.mouseover" end="arrowLeft.mouseout"/>
                  </use>
                  <path fill="none" stroke="white" stroke-width="1.5" d="M0,-3.0v7 M-2.5,-0.5L0,-3.0L2.5,-0.5"/>
                </g>
        </g>
        <svg viewBox="0 0 15 15" width="100%" height="30px" preserveAspectRatio="xMaxYMin meet">
         <g id="arrow_out" transform="scale(0.3 0.3)">
          <a xlink:href="PetRadialBasisFctMappingTest_8cpp_a65695d085606d48f66f1d1ed28919237_cgraph_org.svg" target="_base">
           <rect id="button" ry="5" rx="5" y="6" x="6" height="38" width="38"
                fill="#f2f5e9" fill-opacity="0.5" stroke="#606060" stroke-width="1.0"/>
           <path id="arrow"
             d="M 11.500037,31.436501 C 11.940474,20.09759 22.043105,11.32322 32.158766,21.979434 L 37.068811,17.246167 C 37.068811,17.246167 37.088388,32 37.088388,32 L 22.160133,31.978069 C 22.160133,31.978069 26.997745,27.140456 26.997745,27.140456 C 18.528582,18.264221 13.291696,25.230495 11.500037,31.436501 z"
             style="fill:#404040;"/>
          </a>
         </g>
        </svg>
</svg>
