<?xml version="1.0" encoding="UTF-8" standalone="no"?>
<!DOCTYPE svg PUBLIC "-//W3C//DTD SVG 1.1//EN"
 "http://www.w3.org/Graphics/SVG/1.1/DTD/svg11.dtd">
<!-- Generated by graphviz version 2.40.1 (20161225.0304)
 -->
<!-- Title: BOOST_AUTO_TEST_SUITE_END Pages: 1 -->
<svg width="566pt" height="126pt"
 viewBox="0.00 0.00 566.00 126.00" xmlns="http://www.w3.org/2000/svg" xmlns:xlink="http://www.w3.org/1999/xlink">
<g id="graph0" class="graph" transform="scale(1 1) rotate(0) translate(4 122)">
<title>BOOST_AUTO_TEST_SUITE_END</title>
<polygon fill="#ffffff" stroke="transparent" points="-4,4 -4,-122 562,-122 562,4 -4,4"/>
<!-- Node770 -->
<g id="node1" class="node">
<title>Node770</title>
<polygon fill="#bfbfbf" stroke="#000000" points="0,-50 0,-69 173,-69 173,-50 0,-50"/>
<text text-anchor="middle" x="86.5" y="-57" font-family="Helvetica,sans-Serif" font-size="10.00" fill="#000000">BOOST_AUTO_TEST_SUITE_END</text>
</g>
<!-- Node771 -->
<g id="node2" class="node">
<title>Node771</title>
<g id="a_node2"><a xlink:href="namespaceprecice_1_1testing.html#a08533fd83bad3d7f27ea7f4a35a14aa4" target="_top" xlink:title="precice::testing::nextMeshID">
<polygon fill="#ffffff" stroke="#000000" points="209,-91 209,-110 364,-110 364,-91 209,-91"/>
<text text-anchor="middle" x="286.5" y="-98" font-family="Helvetica,sans-Serif" font-size="10.00" fill="#000000">precice::testing::nextMeshID</text>
</a>
</g>
</g>
<!-- Node770&#45;&gt;Node771 -->
<g id="edge1" class="edge">
<title>Node770&#45;&gt;Node771</title>
<path fill="none" stroke="#191970" d="M132.8867,-69.0093C161.812,-74.939 199.234,-82.6105 229.9001,-88.897"/>
<polygon fill="#191970" stroke="#191970" points="229.5197,-92.3917 240.0188,-90.9714 230.9255,-85.5344 229.5197,-92.3917"/>
</g>
<!-- Node773 -->
<g id="node4" class="node">
<title>Node773</title>
<g id="a_node4"><a xlink:href="PetRadialBasisFctMappingTest_8cpp.html#a091feb1893c75899e59fa939e678debe" target="_top" xlink:title="addGlobalIndex">
<polygon fill="#ffffff" stroke="#000000" points="240,-50 240,-69 333,-69 333,-50 240,-50"/>
<text text-anchor="middle" x="286.5" y="-57" font-family="Helvetica,sans-Serif" font-size="10.00" fill="#000000">addGlobalIndex</text>
</a>
</g>
</g>
<!-- Node770&#45;&gt;Node773 -->
<g id="edge3" class="edge">
<title>Node770&#45;&gt;Node773</title>
<path fill="none" stroke="#191970" d="M173.0597,-59.5C192.2101,-59.5 212.0303,-59.5 229.6418,-59.5"/>
<polygon fill="#191970" stroke="#191970" points="229.7342,-63.0001 239.7342,-59.5 229.7341,-56.0001 229.7342,-63.0001"/>
</g>
<!-- Node775 -->
<g id="node6" class="node">
<title>Node775</title>
<g id="a_node6"><a xlink:href="classprecice_1_1mesh_1_1Vertex.html#a38d26bf077919b0b6d59298720adcb2f" target="_top" xlink:title="Sets the coordinates of the vertex. ">
<polygon fill="#ffffff" stroke="#000000" points="225.5,-.5 225.5,-30.5 347.5,-30.5 347.5,-.5 225.5,-.5"/>
<text text-anchor="start" x="233.5" y="-18.5" font-family="Helvetica,sans-Serif" font-size="10.00" fill="#000000">precice::mesh::Vertex</text>
<text text-anchor="middle" x="286.5" y="-7.5" font-family="Helvetica,sans-Serif" font-size="10.00" fill="#000000">::setCoords</text>
</a>
</g>
</g>
<!-- Node770&#45;&gt;Node775 -->
<g id="edge5" class="edge">
<title>Node770&#45;&gt;Node775</title>
<path fill="none" stroke="#191970" d="M129.897,-49.9527C154.8699,-44.4586 186.8651,-37.4197 215.4187,-31.1379"/>
<polygon fill="#191970" stroke="#191970" points="216.3433,-34.5182 225.3577,-28.9513 214.8392,-27.6817 216.3433,-34.5182"/>
</g>
<!-- Node772 -->
<g id="node3" class="node">
<title>Node772</title>
<g id="a_node3"><a xlink:href="classprecice_1_1utils_1_1ManageUniqueIDs.html#a02be264c279698ae293587b6576088b5" target="_top" xlink:title="precice::utils::ManageUnique\lIDs::getFreeID">
<polygon fill="#ffffff" stroke="#000000" points="400,-87.5 400,-117.5 558,-117.5 558,-87.5 400,-87.5"/>
<text text-anchor="start" x="408" y="-105.5" font-family="Helvetica,sans-Serif" font-size="10.00" fill="#000000">precice::utils::ManageUnique</text>
<text text-anchor="middle" x="479" y="-94.5" font-family="Helvetica,sans-Serif" font-size="10.00" fill="#000000">IDs::getFreeID</text>
</a>
</g>
</g>
<!-- Node771&#45;&gt;Node772 -->
<g id="edge2" class="edge">
<title>Node771&#45;&gt;Node772</title>
<path fill="none" stroke="#191970" d="M364.2422,-101.3077C372.5509,-101.394 381.0508,-101.4823 389.4814,-101.5699"/>
<polygon fill="#191970" stroke="#191970" points="389.6773,-105.0721 399.7132,-101.6762 389.7501,-98.0724 389.6773,-105.0721"/>
</g>
<!-- Node774 -->
<g id="node5" class="node">
<title>Node774</title>
<g id="a_node5"><a xlink:href="MPIPortsCommunicationTest_8cpp.html#a5ded28ea5c98cb27bf0cfcf344588d46" target="_top" xlink:title="BOOST_AUTO_TEST_SUITE">
<polygon fill="#ffffff" stroke="#000000" points="406,-49 406,-68 552,-68 552,-49 406,-49"/>
<text text-anchor="middle" x="479" y="-56" font-family="Helvetica,sans-Serif" font-size="10.00" fill="#000000">BOOST_AUTO_TEST_SUITE</text>
</a>
</g>
</g>
<!-- Node773&#45;&gt;Node774 -->
<g id="edge4" class="edge">
<title>Node773&#45;&gt;Node774</title>
<path fill="none" stroke="#191970" d="M333.0989,-59.2579C351.9263,-59.1601 374.2442,-59.0442 395.6892,-58.9328"/>
<polygon fill="#191970" stroke="#191970" points="395.8134,-62.4323 405.795,-58.8803 395.777,-55.4324 395.8134,-62.4323"/>
</g>
</g>
</svg>
