<?xml version="1.0" encoding="UTF-8" standalone="no"?>
<!DOCTYPE svg PUBLIC "-//W3C//DTD SVG 1.1//EN"
 "http://www.w3.org/Graphics/SVG/1.1/DTD/svg11.dtd">
<!-- Generated by graphviz version 2.40.1 (20161225.0304)
 -->
<!-- Title: src/m2n/PointToPointComFactory.hpp Pages: 1 -->
<svg width="548pt" height="84pt"
 viewBox="0.00 0.00 548.00 84.00" xmlns="http://www.w3.org/2000/svg" xmlns:xlink="http://www.w3.org/1999/xlink">
<g id="graph0" class="graph" transform="scale(1 1) rotate(0) translate(4 80)">
<title>src/m2n/PointToPointComFactory.hpp</title>
<polygon fill="#ffffff" stroke="transparent" points="-4,4 -4,-80 544,-80 544,4 -4,4"/>
<!-- Node53 -->
<g id="node1" class="node">
<title>Node53</title>
<polygon fill="#bfbfbf" stroke="#000000" points="200,-56.5 200,-75.5 384,-75.5 384,-56.5 200,-56.5"/>
<text text-anchor="middle" x="292" y="-63.5" font-family="Helvetica,sans-Serif" font-size="10.00" fill="#000000">src/m2n/PointToPointComFactory.hpp</text>
</g>
<!-- Node54 -->
<g id="node2" class="node">
<title>Node54</title>
<g id="a_node2"><a xlink:href="M2NConfiguration_8cpp.html" target="_top" xlink:title="src/m2n/config/M2NConfiguration.cpp">
<polygon fill="#ffffff" stroke="#000000" points="0,-.5 0,-19.5 182,-19.5 182,-.5 0,-.5"/>
<text text-anchor="middle" x="91" y="-7.5" font-family="Helvetica,sans-Serif" font-size="10.00" fill="#000000">src/m2n/config/M2NConfiguration.cpp</text>
</a>
</g>
</g>
<!-- Node53&#45;&gt;Node54 -->
<g id="edge1" class="edge">
<title>Node53&#45;&gt;Node54</title>
<path fill="none" stroke="#191970" d="M247.4506,-53.5882C210.5216,-43.2996 158.7998,-28.8895 125.1022,-19.5011"/>
<polygon fill="#191970" stroke="#191970" points="246.8744,-57.0609 257.4469,-56.3733 248.7531,-50.3177 246.8744,-57.0609"/>
</g>
<!-- Node55 -->
<g id="node3" class="node">
<title>Node55</title>
<g id="a_node3"><a xlink:href="PointToPointComFactory_8cpp.html" target="_top" xlink:title="src/m2n/PointToPointComFactory.cpp">
<polygon fill="#ffffff" stroke="#000000" points="200,-.5 200,-19.5 384,-19.5 384,-.5 200,-.5"/>
<text text-anchor="middle" x="292" y="-7.5" font-family="Helvetica,sans-Serif" font-size="10.00" fill="#000000">src/m2n/PointToPointComFactory.cpp</text>
</a>
</g>
</g>
<!-- Node53&#45;&gt;Node55 -->
<g id="edge2" class="edge">
<title>Node53&#45;&gt;Node55</title>
<path fill="none" stroke="#191970" d="M292,-46.1575C292,-37.155 292,-26.9199 292,-19.6427"/>
<polygon fill="#191970" stroke="#191970" points="288.5001,-46.2455 292,-56.2455 295.5001,-46.2456 288.5001,-46.2455"/>
</g>
<!-- Node56 -->
<g id="node4" class="node">
<title>Node56</title>
<g id="a_node4"><a xlink:href="TestContext_8cpp.html" target="_top" xlink:title="src/testing/TestContext.cpp">
<polygon fill="#ffffff" stroke="#000000" points="402,-.5 402,-19.5 540,-19.5 540,-.5 402,-.5"/>
<text text-anchor="middle" x="471" y="-7.5" font-family="Helvetica,sans-Serif" font-size="10.00" fill="#000000">src/testing/TestContext.cpp</text>
</a>
</g>
</g>
<!-- Node53&#45;&gt;Node56 -->
<g id="edge3" class="edge">
<title>Node53&#45;&gt;Node56</title>
<path fill="none" stroke="#191970" d="M332.5195,-53.3235C365.3466,-43.0536 410.8776,-28.8093 440.6303,-19.5011"/>
<polygon fill="#191970" stroke="#191970" points="331.27,-50.0471 322.7712,-56.3733 333.3601,-56.7278 331.27,-50.0471"/>
</g>
</g>
</svg>
