<?xml version="1.0" encoding="UTF-8" standalone="no"?>
<!DOCTYPE svg PUBLIC "-//W3C//DTD SVG 1.1//EN"
 "http://www.w3.org/Graphics/SVG/1.1/DTD/svg11.dtd">
<!-- Generated by graphviz version 2.40.1 (20161225.0304)
 -->
<!-- Title: src/m2n/PointToPointCommunication.hpp Pages: 1 -->
<svg width="1893pt" height="744pt"
 viewBox="0.00 0.00 1892.63 744.00" xmlns="http://www.w3.org/2000/svg" xmlns:xlink="http://www.w3.org/1999/xlink">
<g id="graph0" class="graph" transform="scale(1 1) rotate(0) translate(4 740)">
<title>src/m2n/PointToPointCommunication.hpp</title>
<polygon fill="#ffffff" stroke="transparent" points="-4,4 -4,-740 1888.6324,-740 1888.6324,4 -4,4"/>
<!-- Node0 -->
<g id="node1" class="node">
<title>Node0</title>
<polygon fill="#bfbfbf" stroke="#000000" points="230.5,-716.5 230.5,-735.5 428.5,-735.5 428.5,-716.5 230.5,-716.5"/>
<text text-anchor="middle" x="329.5" y="-723.5" font-family="Helvetica,sans-Serif" font-size="10.00" fill="#000000">src/m2n/PointToPointCommunication.hpp</text>
</g>
<!-- Node1 -->
<g id="node2" class="node">
<title>Node1</title>
<polygon fill="#ffffff" stroke="#bfbfbf" points="0,-660.5 0,-679.5 49,-679.5 49,-660.5 0,-660.5"/>
<text text-anchor="middle" x="24.5" y="-667.5" font-family="Helvetica,sans-Serif" font-size="10.00" fill="#000000">cstddef</text>
</g>
<!-- Node0&#45;&gt;Node1 -->
<g id="edge1" class="edge">
<title>Node0&#45;&gt;Node1</title>
<path fill="none" stroke="#191970" d="M266.0765,-716.4906C212.0127,-708.0366 132.3527,-694.7561 63.5,-680 62.0476,-679.6887 60.5677,-679.3602 59.0747,-679.0195"/>
<polygon fill="#191970" stroke="#191970" points="59.728,-675.577 49.1873,-676.6466 58.0944,-682.3837 59.728,-675.577"/>
</g>
<!-- Node2 -->
<g id="node3" class="node">
<title>Node2</title>
<polygon fill="#ffffff" stroke="#bfbfbf" points="258,-548.5 258,-567.5 287,-567.5 287,-548.5 258,-548.5"/>
<text text-anchor="middle" x="272.5" y="-555.5" font-family="Helvetica,sans-Serif" font-size="10.00" fill="#000000">list</text>
</g>
<!-- Node0&#45;&gt;Node2 -->
<g id="edge2" class="edge">
<title>Node0&#45;&gt;Node2</title>
<path fill="none" stroke="#191970" d="M328.9969,-716.4124C327.5971,-695.2772 322.555,-643.4264 305.5,-604 301.1442,-593.9306 294.3128,-583.8966 287.9928,-575.7816"/>
<polygon fill="#191970" stroke="#191970" points="290.5184,-573.3413 281.4771,-567.8182 285.1008,-577.7741 290.5184,-573.3413"/>
</g>
<!-- Node3 -->
<g id="node4" class="node">
<title>Node3</title>
<polygon fill="#ffffff" stroke="#bfbfbf" points="184.5,-123.5 184.5,-142.5 236.5,-142.5 236.5,-123.5 184.5,-123.5"/>
<text text-anchor="middle" x="210.5" y="-130.5" font-family="Helvetica,sans-Serif" font-size="10.00" fill="#000000">memory</text>
</g>
<!-- Node0&#45;&gt;Node3 -->
<g id="edge3" class="edge">
<title>Node0&#45;&gt;Node3</title>
<path fill="none" stroke="#191970" d="M248.9007,-716.4649C188.2382,-704.2641 115.5,-676.5857 115.5,-614 115.5,-614 115.5,-614 115.5,-250.5 115.5,-205.762 157.661,-168.4849 185.8091,-148.5828"/>
<polygon fill="#191970" stroke="#191970" points="188.0884,-151.2652 194.3845,-142.7441 184.1488,-145.479 188.0884,-151.2652"/>
</g>
<!-- Node4 -->
<g id="node5" class="node">
<title>Node4</title>
<polygon fill="#ffffff" stroke="#bfbfbf" points="670,-.5 670,-19.5 711,-19.5 711,-.5 670,-.5"/>
<text text-anchor="middle" x="690.5" y="-7.5" font-family="Helvetica,sans-Serif" font-size="10.00" fill="#000000">string</text>
</g>
<!-- Node0&#45;&gt;Node4 -->
<g id="edge4" class="edge">
<title>Node0&#45;&gt;Node4</title>
<path fill="none" stroke="#191970" d="M268.9565,-716.4884C219.199,-707.8606 153.3231,-694.3308 130.5,-680 98.6395,-659.9945 77.5,-651.6206 77.5,-614 77.5,-614 77.5,-614 77.5,-133 77.5,-72.9475 535.5824,-24.8048 659.7654,-12.857"/>
<polygon fill="#191970" stroke="#191970" points="660.1303,-16.3381 669.7531,-11.9051 659.4662,-9.3697 660.1303,-16.3381"/>
</g>
<!-- Node5 -->
<g id="node6" class="node">
<title>Node5</title>
<polygon fill="#ffffff" stroke="#bfbfbf" points="700.5,-369.5 700.5,-388.5 740.5,-388.5 740.5,-369.5 700.5,-369.5"/>
<text text-anchor="middle" x="720.5" y="-376.5" font-family="Helvetica,sans-Serif" font-size="10.00" fill="#000000">utility</text>
</g>
<!-- Node0&#45;&gt;Node5 -->
<g id="edge5" class="edge">
<title>Node0&#45;&gt;Node5</title>
<path fill="none" stroke="#191970" d="M325.3843,-716.3047C316.397,-695.384 294.0127,-644.6132 271.5,-604 258.4554,-580.4673 233.0095,-569.9999 248.5,-548 251.8947,-543.1789 587.9987,-425.3374 690.9001,-389.3444"/>
<polygon fill="#191970" stroke="#191970" points="692.099,-392.633 700.3832,-386.0282 689.7883,-386.0254 692.099,-392.633"/>
</g>
<!-- Node6 -->
<g id="node7" class="node">
<title>Node6</title>
<polygon fill="#ffffff" stroke="#bfbfbf" points="1679.5,-179.5 1679.5,-198.5 1723.5,-198.5 1723.5,-179.5 1679.5,-179.5"/>
<text text-anchor="middle" x="1701.5" y="-186.5" font-family="Helvetica,sans-Serif" font-size="10.00" fill="#000000">vector</text>
</g>
<!-- Node0&#45;&gt;Node6 -->
<g id="edge6" class="edge">
<title>Node0&#45;&gt;Node6</title>
<path fill="none" stroke="#191970" d="M428.8473,-720.5889C682.8439,-706.3119 1351.2592,-665.8385 1569.5,-624 1698.2568,-599.3163 1835.5,-627.6015 1835.5,-496.5 1835.5,-496.5 1835.5,-496.5 1835.5,-317.5 1835.5,-261.0437 1772.7699,-221.6873 1733.15,-202.4603"/>
<polygon fill="#191970" stroke="#191970" points="1734.1685,-199.0729 1723.6274,-198.0076 1731.2035,-205.4139 1734.1685,-199.0729"/>
</g>
<!-- Node7 -->
<g id="node8" class="node">
<title>Node7</title>
<g id="a_node8"><a xlink:href="DistributedCommunication_8hpp.html" target="_top" xlink:title="DistributedCommunication.hpp">
<polygon fill="#ffffff" stroke="#000000" points="830,-660.5 830,-679.5 981,-679.5 981,-660.5 830,-660.5"/>
<text text-anchor="middle" x="905.5" y="-667.5" font-family="Helvetica,sans-Serif" font-size="10.00" fill="#000000">DistributedCommunication.hpp</text>
</a>
</g>
</g>
<!-- Node0&#45;&gt;Node7 -->
<g id="edge7" class="edge">
<title>Node0&#45;&gt;Node7</title>
<path fill="none" stroke="#191970" d="M427.5368,-716.4686C537.7125,-705.7571 714.8397,-688.5364 819.7259,-678.3391"/>
<polygon fill="#191970" stroke="#191970" points="820.3442,-681.7956 829.9585,-677.3443 819.6667,-674.8285 820.3442,-681.7956"/>
</g>
<!-- Node9 -->
<g id="node10" class="node">
<title>Node9</title>
<g id="a_node10"><a xlink:href="Mesh_8hpp.html" target="_top" xlink:title="mesh/Mesh.hpp">
<polygon fill="#ffffff" stroke="#000000" points="862.5,-604.5 862.5,-623.5 948.5,-623.5 948.5,-604.5 862.5,-604.5"/>
<text text-anchor="middle" x="905.5" y="-611.5" font-family="Helvetica,sans-Serif" font-size="10.00" fill="#000000">mesh/Mesh.hpp</text>
</a>
</g>
</g>
<!-- Node0&#45;&gt;Node9 -->
<g id="edge100" class="edge">
<title>Node0&#45;&gt;Node9</title>
<path fill="none" stroke="#191970" d="M378.6094,-716.4509C486.1162,-695.5468 741.5335,-645.8824 852.5057,-624.3044"/>
<polygon fill="#191970" stroke="#191970" points="853.3196,-627.7118 862.4677,-622.3674 851.9835,-620.8405 853.3196,-627.7118"/>
</g>
<!-- Node14 -->
<g id="node15" class="node">
<title>Node14</title>
<g id="a_node15"><a xlink:href="Logger_8hpp.html" target="_top" xlink:title="logging/Logger.hpp">
<polygon fill="#ffffff" stroke="#000000" points="1532.5,-179.5 1532.5,-198.5 1630.5,-198.5 1630.5,-179.5 1532.5,-179.5"/>
<text text-anchor="middle" x="1581.5" y="-186.5" font-family="Helvetica,sans-Serif" font-size="10.00" fill="#000000">logging/Logger.hpp</text>
</a>
</g>
</g>
<!-- Node0&#45;&gt;Node14 -->
<g id="edge99" class="edge">
<title>Node0&#45;&gt;Node14</title>
<path fill="none" stroke="#191970" d="M428.7013,-722.6398C735.966,-711.1926 1656.3634,-668.6972 1740.5,-568 1839.0345,-450.0709 1659.2418,-262.3227 1599.6898,-205.6981"/>
<polygon fill="#191970" stroke="#191970" points="1601.8131,-202.8907 1592.1263,-198.5992 1597.0226,-207.9948 1601.8131,-202.8907"/>
</g>
<!-- Node42 -->
<g id="node41" class="node">
<title>Node42</title>
<g id="a_node41"><a xlink:href="mesh_2SharedPointer_8hpp.html" target="_top" xlink:title="mesh/SharedPointer.hpp">
<polygon fill="#ffffff" stroke="#000000" points="305.5,-548.5 305.5,-567.5 429.5,-567.5 429.5,-548.5 305.5,-548.5"/>
<text text-anchor="middle" x="367.5" y="-555.5" font-family="Helvetica,sans-Serif" font-size="10.00" fill="#000000">mesh/SharedPointer.hpp</text>
</a>
</g>
</g>
<!-- Node0&#45;&gt;Node42 -->
<g id="edge101" class="edge">
<title>Node0&#45;&gt;Node42</title>
<path fill="none" stroke="#191970" d="M332.7947,-716.21C335.8351,-706.952 340.3433,-692.6342 343.5,-680 352.4441,-644.2027 360.1439,-601.8192 364.2736,-577.6036"/>
<polygon fill="#191970" stroke="#191970" points="367.7551,-578.0051 365.9579,-567.5639 360.8516,-576.847 367.7551,-578.0051"/>
</g>
<!-- Node52 -->
<g id="node50" class="node">
<title>Node52</title>
<g id="a_node50"><a xlink:href="com_2SharedPointer_8hpp.html" target="_top" xlink:title="com/SharedPointer.hpp">
<polygon fill="#ffffff" stroke="#000000" points="144,-604.5 144,-623.5 263,-623.5 263,-604.5 144,-604.5"/>
<text text-anchor="middle" x="203.5" y="-611.5" font-family="Helvetica,sans-Serif" font-size="10.00" fill="#000000">com/SharedPointer.hpp</text>
</a>
</g>
</g>
<!-- Node0&#45;&gt;Node52 -->
<g id="edge97" class="edge">
<title>Node0&#45;&gt;Node52</title>
<path fill="none" stroke="#191970" d="M318.7329,-716.498C308.209,-707.2052 291.7382,-692.647 277.5,-680 258.4959,-663.1197 236.7961,-643.7552 221.8325,-630.3878"/>
<polygon fill="#191970" stroke="#191970" points="224.0612,-627.6856 214.2723,-623.6324 219.3971,-632.9054 224.0612,-627.6856"/>
</g>
<!-- Node7&#45;&gt;Node6 -->
<g id="edge9" class="edge">
<title>Node7&#45;&gt;Node6</title>
<path fill="none" stroke="#191970" d="M981.3102,-665.8408C1176.6799,-654.4185 1685.8978,-619.9237 1740.5,-568 1784.4835,-526.1741 1771.5,-495.6956 1771.5,-435 1771.5,-435 1771.5,-435 1771.5,-317.5 1771.5,-273.1535 1738.9523,-229.5371 1718.2445,-206.2749"/>
<polygon fill="#191970" stroke="#191970" points="1720.5821,-203.6466 1711.2332,-198.6618 1715.4331,-208.3887 1720.5821,-203.6466"/>
</g>
<!-- Node8 -->
<g id="node9" class="node">
<title>Node8</title>
<polygon fill="#ffffff" stroke="#bfbfbf" points="1696,-548.5 1696,-567.5 1731,-567.5 1731,-548.5 1696,-548.5"/>
<text text-anchor="middle" x="1713.5" y="-555.5" font-family="Helvetica,sans-Serif" font-size="10.00" fill="#000000">map</text>
</g>
<!-- Node7&#45;&gt;Node8 -->
<g id="edge8" class="edge">
<title>Node7&#45;&gt;Node8</title>
<path fill="none" stroke="#191970" d="M981.1578,-664.4086C1120.8259,-653.1272 1428.042,-623.8243 1681.5,-568 1682.9566,-567.6792 1684.4422,-567.3224 1685.9364,-566.9401"/>
<polygon fill="#191970" stroke="#191970" points="1687.048,-570.2627 1695.7062,-564.1565 1685.1299,-563.5306 1687.048,-570.2627"/>
</g>
<!-- Node7&#45;&gt;Node9 -->
<g id="edge10" class="edge">
<title>Node7&#45;&gt;Node9</title>
<path fill="none" stroke="#191970" d="M905.5,-660.2455C905.5,-652.9382 905.5,-642.6944 905.5,-633.7046"/>
<polygon fill="#191970" stroke="#191970" points="909.0001,-633.6426 905.5,-623.6427 902.0001,-633.6427 909.0001,-633.6426"/>
</g>
<!-- Node7&#45;&gt;Node42 -->
<g id="edge96" class="edge">
<title>Node7&#45;&gt;Node42</title>
<path fill="none" stroke="#191970" d="M859.6304,-660.4509C761.1635,-639.9522 529.8505,-591.7979 423.1788,-569.5911"/>
<polygon fill="#191970" stroke="#191970" points="423.7569,-566.1365 413.2535,-567.5249 422.3302,-572.9896 423.7569,-566.1365"/>
</g>
<!-- Node9&#45;&gt;Node2 -->
<g id="edge15" class="edge">
<title>Node9&#45;&gt;Node2</title>
<path fill="none" stroke="#191970" d="M862.3514,-612.5276C745.2676,-608.2568 422.5606,-594.5853 297.3173,-567.3311"/>
<polygon fill="#191970" stroke="#191970" points="297.763,-563.8419 287.2317,-565.0003 296.1868,-570.6622 297.763,-563.8419"/>
</g>
<!-- Node9&#45;&gt;Node4 -->
<g id="edge17" class="edge">
<title>Node9&#45;&gt;Node4</title>
<path fill="none" stroke="#191970" d="M862.4225,-612.1199C759.4497,-607.2433 505.4263,-592.8098 476.5,-568 451.5419,-546.5937 457.5,-529.3806 457.5,-496.5 457.5,-496.5 457.5,-496.5 457.5,-133 457.5,-42.6277 596.2776,-18.4864 659.6271,-12.1742"/>
<polygon fill="#191970" stroke="#191970" points="660.1803,-15.6384 669.8228,-11.2483 659.5472,-8.6671 660.1803,-15.6384"/>
</g>
<!-- Node9&#45;&gt;Node6 -->
<g id="edge18" class="edge">
<title>Node9&#45;&gt;Node6</title>
<path fill="none" stroke="#191970" d="M948.8445,-612.2965C1081.572,-606.8737 1476.6975,-589.1225 1530.5,-568 1675.7362,-510.9814 1677.1963,-418.6472 1709.5,-266 1713.5752,-246.7432 1710.3695,-224.3189 1706.8797,-208.6536"/>
<polygon fill="#191970" stroke="#191970" points="1710.1875,-207.4501 1704.3884,-198.5833 1703.3924,-209.1312 1710.1875,-207.4501"/>
</g>
<!-- Node9&#45;&gt;Node8 -->
<g id="edge16" class="edge">
<title>Node9&#45;&gt;Node8</title>
<path fill="none" stroke="#191970" d="M948.842,-612.8201C1090.5394,-608.7447 1539.1225,-594.0624 1681.5,-568 1682.9671,-567.7314 1684.4612,-567.4164 1685.962,-567.067"/>
<polygon fill="#191970" stroke="#191970" points="1687.0311,-570.4032 1695.753,-564.3882 1685.1838,-563.6514 1687.0311,-570.4032"/>
</g>
<!-- Node10 -->
<g id="node11" class="node">
<title>Node10</title>
<polygon fill="#ffffff" stroke="#bfbfbf" points="1229,-308 1229,-327 1294,-327 1294,-308 1229,-308"/>
<text text-anchor="middle" x="1261.5" y="-315" font-family="Helvetica,sans-Serif" font-size="10.00" fill="#000000">Eigen/Core</text>
</g>
<!-- Node9&#45;&gt;Node10 -->
<g id="edge11" class="edge">
<title>Node9&#45;&gt;Node10</title>
<path fill="none" stroke="#191970" d="M948.8288,-610.0041C1045.8012,-600.0729 1275.4323,-570.7278 1321.5,-512 1343.5087,-483.943 1293.5251,-379.2399 1271.3823,-336.178"/>
<polygon fill="#191970" stroke="#191970" points="1274.3682,-334.334 1266.645,-327.0811 1268.1596,-337.5671 1274.3682,-334.334"/>
</g>
<!-- Node11 -->
<g id="node12" class="node">
<title>Node11</title>
<polygon fill="#ffffff" stroke="#bfbfbf" points="641.5,-548.5 641.5,-567.5 739.5,-567.5 739.5,-548.5 641.5,-548.5"/>
<text text-anchor="middle" x="690.5" y="-555.5" font-family="Helvetica,sans-Serif" font-size="10.00" fill="#000000">boost/signals2.hpp</text>
</g>
<!-- Node9&#45;&gt;Node11 -->
<g id="edge12" class="edge">
<title>Node9&#45;&gt;Node11</title>
<path fill="none" stroke="#191970" d="M868.5402,-604.3733C832.0925,-594.8799 776.2754,-580.3415 736.8711,-570.0781"/>
<polygon fill="#191970" stroke="#191970" points="737.5369,-566.6348 726.9775,-567.5011 735.7724,-573.4087 737.5369,-566.6348"/>
</g>
<!-- Node12 -->
<g id="node13" class="node">
<title>Node12</title>
<polygon fill="#ffffff" stroke="#bfbfbf" points="758,-548.5 758,-567.5 801,-567.5 801,-548.5 758,-548.5"/>
<text text-anchor="middle" x="779.5" y="-555.5" font-family="Helvetica,sans-Serif" font-size="10.00" fill="#000000">deque</text>
</g>
<!-- Node9&#45;&gt;Node12 -->
<g id="edge13" class="edge">
<title>Node9&#45;&gt;Node12</title>
<path fill="none" stroke="#191970" d="M883.8398,-604.3733C863.5228,-595.3435 832.936,-581.7494 810.125,-571.6111"/>
<polygon fill="#191970" stroke="#191970" points="811.4372,-568.3642 800.8775,-567.5011 808.5941,-574.7609 811.4372,-568.3642"/>
</g>
<!-- Node13 -->
<g id="node14" class="node">
<title>Node13</title>
<polygon fill="#ffffff" stroke="#bfbfbf" points="1337,-179.5 1337,-198.5 1382,-198.5 1382,-179.5 1337,-179.5"/>
<text text-anchor="middle" x="1359.5" y="-186.5" font-family="Helvetica,sans-Serif" font-size="10.00" fill="#000000">iosfwd</text>
</g>
<!-- Node9&#45;&gt;Node13 -->
<g id="edge14" class="edge">
<title>Node9&#45;&gt;Node13</title>
<path fill="none" stroke="#191970" d="M948.8199,-608.8969C1044.1581,-596.8208 1267.9328,-563.577 1321.5,-512 1365.7853,-469.36 1359.5,-440.4765 1359.5,-379 1359.5,-379 1359.5,-379 1359.5,-317.5 1359.5,-279.0012 1359.5,-234.0145 1359.5,-208.7812"/>
<polygon fill="#191970" stroke="#191970" points="1363.0001,-208.6718 1359.5,-198.6719 1356.0001,-208.6719 1363.0001,-208.6718"/>
</g>
<!-- Node9&#45;&gt;Node14 -->
<g id="edge19" class="edge">
<title>Node9&#45;&gt;Node14</title>
<path fill="none" stroke="#191970" d="M948.7232,-613.4338C1066.806,-611.4429 1392.7393,-602.8554 1493.5,-568 1535.9037,-553.3316 1550.5277,-547.857 1577.5,-512 1611.9744,-466.1698 1607.7302,-445.6743 1616.5,-389 1626.9932,-321.1882 1627.2029,-300.0963 1605.5,-235 1602.3465,-225.5414 1597.4333,-215.6626 1592.8716,-207.4951"/>
<polygon fill="#191970" stroke="#191970" points="1595.8708,-205.6903 1587.8045,-198.8211 1589.8265,-209.2212 1595.8708,-205.6903"/>
</g>
<!-- Node26 -->
<g id="node26" class="node">
<title>Node26</title>
<g id="a_node26"><a xlink:href="BoundingBox_8hpp.html" target="_top" xlink:title="mesh/BoundingBox.hpp">
<polygon fill="#ffffff" stroke="#000000" points="1428.5,-487 1428.5,-506 1548.5,-506 1548.5,-487 1428.5,-487"/>
<text text-anchor="middle" x="1488.5" y="-494" font-family="Helvetica,sans-Serif" font-size="10.00" fill="#000000">mesh/BoundingBox.hpp</text>
</a>
</g>
</g>
<!-- Node9&#45;&gt;Node26 -->
<g id="edge35" class="edge">
<title>Node9&#45;&gt;Node26</title>
<path fill="none" stroke="#191970" d="M948.8788,-611.7348C1064.2355,-605.4786 1372.6465,-587.153 1414.5,-568 1440.3678,-556.1624 1462.6871,-531.3859 1475.8634,-514.348"/>
<polygon fill="#191970" stroke="#191970" points="1478.7257,-516.3642 1481.8907,-506.2531 1473.1112,-512.1837 1478.7257,-516.3642"/>
</g>
<!-- Node27 -->
<g id="node27" class="node">
<title>Node27</title>
<g id="a_node27"><a xlink:href="Vertex_8hpp.html" target="_top" xlink:title="mesh/Vertex.hpp">
<polygon fill="#ffffff" stroke="#000000" points="873,-425.5 873,-444.5 964,-444.5 964,-425.5 873,-425.5"/>
<text text-anchor="middle" x="918.5" y="-432.5" font-family="Helvetica,sans-Serif" font-size="10.00" fill="#000000">mesh/Vertex.hpp</text>
</a>
</g>
</g>
<!-- Node9&#45;&gt;Node27 -->
<g id="edge87" class="edge">
<title>Node9&#45;&gt;Node27</title>
<path fill="none" stroke="#191970" d="M903.927,-604.09C901.3155,-590.2743 894.977,-565.0108 881.5,-548 863.3577,-525.1005 840.394,-537.7 826.5,-512 819.9477,-499.88 819.2566,-492.7201 826.5,-481 835.9961,-465.6351 852.3505,-455.2306 868.6612,-448.2655"/>
<polygon fill="#191970" stroke="#191970" points="870.1576,-451.4389 878.2075,-444.5505 867.6189,-444.9155 870.1576,-451.4389"/>
</g>
<!-- Node30 -->
<g id="node30" class="node">
<title>Node30</title>
<g id="a_node30"><a xlink:href="assertion_8hpp.html" target="_top" xlink:title="utils/assertion.hpp">
<polygon fill="#ffffff" stroke="#000000" points="758.5,-308 758.5,-327 854.5,-327 854.5,-308 758.5,-308"/>
<text text-anchor="middle" x="806.5" y="-315" font-family="Helvetica,sans-Serif" font-size="10.00" fill="#000000">utils/assertion.hpp</text>
</a>
</g>
</g>
<!-- Node9&#45;&gt;Node30 -->
<g id="edge95" class="edge">
<title>Node9&#45;&gt;Node30</title>
<path fill="none" stroke="#191970" d="M895.5931,-604.2805C874.3663,-583.2126 825.6776,-533.508 816.5,-512 791.2342,-452.7891 798.0189,-374.0677 803.1556,-337.6082"/>
<polygon fill="#191970" stroke="#191970" points="806.6748,-337.7475 804.7228,-327.3341 799.7548,-336.6919 806.6748,-337.7475"/>
</g>
<!-- Node38 -->
<g id="node37" class="node">
<title>Node38</title>
<g id="a_node37"><a xlink:href="Data_8hpp.html" target="_top" xlink:title="mesh/Data.hpp">
<polygon fill="#ffffff" stroke="#000000" points="1524,-369.5 1524,-388.5 1607,-388.5 1607,-369.5 1524,-369.5"/>
<text text-anchor="middle" x="1565.5" y="-376.5" font-family="Helvetica,sans-Serif" font-size="10.00" fill="#000000">mesh/Data.hpp</text>
</a>
</g>
</g>
<!-- Node9&#45;&gt;Node38 -->
<g id="edge64" class="edge">
<title>Node9&#45;&gt;Node38</title>
<path fill="none" stroke="#191970" d="M948.7227,-612.3391C1059.1964,-607.7682 1349.7089,-593.6113 1442.5,-568 1497.2999,-552.8747 1525.9254,-559.2742 1557.5,-512 1580.4228,-477.6795 1575.2796,-426.5956 1570.057,-398.7852"/>
<polygon fill="#191970" stroke="#191970" points="1573.4271,-397.7998 1567.9669,-388.7203 1566.5733,-399.2231 1573.4271,-397.7998"/>
</g>
<!-- Node40 -->
<g id="node39" class="node">
<title>Node40</title>
<g id="a_node39"><a xlink:href="Edge_8hpp.html" target="_top" xlink:title="mesh/Edge.hpp">
<polygon fill="#ffffff" stroke="#000000" points="835,-487 835,-506 920,-506 920,-487 835,-487"/>
<text text-anchor="middle" x="877.5" y="-494" font-family="Helvetica,sans-Serif" font-size="10.00" fill="#000000">mesh/Edge.hpp</text>
</a>
</g>
</g>
<!-- Node9&#45;&gt;Node40 -->
<g id="edge69" class="edge">
<title>Node9&#45;&gt;Node40</title>
<path fill="none" stroke="#191970" d="M910.773,-604.3821C917.2048,-591.3334 926.4152,-567.421 919.5,-548 914.7834,-534.7536 905.0385,-522.4474 896.1221,-513.1885"/>
<polygon fill="#191970" stroke="#191970" points="898.5503,-510.6677 888.9556,-506.174 893.6538,-515.6702 898.5503,-510.6677"/>
</g>
<!-- Node9&#45;&gt;Node42 -->
<g id="edge76" class="edge">
<title>Node9&#45;&gt;Node42</title>
<path fill="none" stroke="#191970" d="M862.4579,-610.172C780.7209,-602.801 597.4388,-585.7867 443.5,-568 442.2358,-567.8539 440.96,-567.7048 439.6753,-567.5531"/>
<polygon fill="#191970" stroke="#191970" points="440.0416,-564.072 429.6937,-566.346 439.2012,-571.0214 440.0416,-564.072"/>
</g>
<!-- Node43 -->
<g id="node42" class="node">
<title>Node43</title>
<g id="a_node42"><a xlink:href="Triangle_8hpp.html" target="_top" xlink:title="mesh/Triangle.hpp">
<polygon fill="#ffffff" stroke="#000000" points="976,-548.5 976,-567.5 1073,-567.5 1073,-548.5 976,-548.5"/>
<text text-anchor="middle" x="1024.5" y="-555.5" font-family="Helvetica,sans-Serif" font-size="10.00" fill="#000000">mesh/Triangle.hpp</text>
</a>
</g>
</g>
<!-- Node9&#45;&gt;Node43 -->
<g id="edge78" class="edge">
<title>Node9&#45;&gt;Node43</title>
<path fill="none" stroke="#191970" d="M925.9568,-604.3733C944.9738,-595.4241 973.5175,-581.9917 994.9976,-571.8835"/>
<polygon fill="#191970" stroke="#191970" points="996.7522,-574.926 1004.3101,-567.5011 993.7716,-568.5923 996.7522,-574.926"/>
</g>
<!-- Node47 -->
<g id="node45" class="node">
<title>Node47</title>
<g id="a_node45"><a xlink:href="ManageUniqueIDs_8hpp.html" target="_top" xlink:title="utils/ManageUniqueIDs.hpp">
<polygon fill="#ffffff" stroke="#000000" points="486,-548.5 486,-567.5 623,-567.5 623,-548.5 486,-548.5"/>
<text text-anchor="middle" x="554.5" y="-555.5" font-family="Helvetica,sans-Serif" font-size="10.00" fill="#000000">utils/ManageUniqueIDs.hpp</text>
</a>
</g>
</g>
<!-- Node9&#45;&gt;Node47 -->
<g id="edge88" class="edge">
<title>Node9&#45;&gt;Node47</title>
<path fill="none" stroke="#191970" d="M862.4605,-607.1333C803.1374,-597.6686 695.5387,-580.5019 624.5402,-569.1745"/>
<polygon fill="#191970" stroke="#191970" points="624.7672,-565.6665 614.3407,-567.5472 623.6643,-572.5791 624.7672,-565.6665"/>
</g>
<!-- Node50 -->
<g id="node48" class="node">
<title>Node50</title>
<g id="a_node48"><a xlink:href="PointerVector_8hpp.html" target="_top" xlink:title="utils/PointerVector.hpp">
<polygon fill="#ffffff" stroke="#000000" points="566.5,-369.5 566.5,-388.5 682.5,-388.5 682.5,-369.5 566.5,-369.5"/>
<text text-anchor="middle" x="624.5" y="-376.5" font-family="Helvetica,sans-Serif" font-size="10.00" fill="#000000">utils/PointerVector.hpp</text>
</a>
</g>
</g>
<!-- Node9&#45;&gt;Node50 -->
<g id="edge91" class="edge">
<title>Node9&#45;&gt;Node50</title>
<path fill="none" stroke="#191970" d="M892.0751,-604.4472C873.7677,-591.4723 839.8846,-567.6432 810.5,-548 785.9019,-531.5565 777.431,-530.6983 754.5,-512 708.8884,-474.8075 662.3245,-423.1529 639.2872,-396.4853"/>
<polygon fill="#191970" stroke="#191970" points="641.8291,-394.0725 632.6653,-388.7549 636.5128,-398.6265 641.8291,-394.0725"/>
</g>
<!-- Node14&#45;&gt;Node3 -->
<g id="edge20" class="edge">
<title>Node14&#45;&gt;Node3</title>
<path fill="none" stroke="#191970" d="M1532.3001,-186.2259C1493.9464,-184.108 1439.3459,-181.1908 1391.5,-179 1274.8782,-173.66 432.2552,-141.4603 246.617,-134.3773"/>
<polygon fill="#191970" stroke="#191970" points="246.6849,-130.8774 236.5587,-133.9936 246.418,-137.8723 246.6849,-130.8774"/>
</g>
<!-- Node14&#45;&gt;Node4 -->
<g id="edge21" class="edge">
<title>Node14&#45;&gt;Node4</title>
<path fill="none" stroke="#191970" d="M1630.6269,-183.6813C1730.968,-171.074 1943.8722,-134.3728 1868.5,-56 1848.0044,-34.6884 904.1554,-14.3603 721.076,-10.6139"/>
<polygon fill="#191970" stroke="#191970" points="721.1232,-7.1143 711.054,-10.4099 720.9806,-14.1128 721.1232,-7.1143"/>
</g>
<!-- Node15 -->
<g id="node16" class="node">
<title>Node15</title>
<g id="a_node16"><a xlink:href="LogMacros_8hpp.html" target="_top" xlink:title="LogMacros.hpp">
<polygon fill="#ffffff" stroke="#000000" points="1326,-123.5 1326,-142.5 1409,-142.5 1409,-123.5 1326,-123.5"/>
<text text-anchor="middle" x="1367.5" y="-130.5" font-family="Helvetica,sans-Serif" font-size="10.00" fill="#000000">LogMacros.hpp</text>
</a>
</g>
</g>
<!-- Node14&#45;&gt;Node15 -->
<g id="edge22" class="edge">
<title>Node14&#45;&gt;Node15</title>
<path fill="none" stroke="#191970" d="M1544.7121,-179.3733C1508.4339,-169.8799 1452.8764,-155.3415 1413.6554,-145.0781"/>
<polygon fill="#191970" stroke="#191970" points="1414.3682,-141.6468 1403.8079,-142.5011 1412.596,-148.4188 1414.3682,-141.6468"/>
</g>
<!-- Node15&#45;&gt;Node4 -->
<g id="edge29" class="edge">
<title>Node15&#45;&gt;Node4</title>
<path fill="none" stroke="#191970" d="M1409.1459,-130.5134C1496.9453,-124.8459 1694.6262,-109.6823 1714.5,-87 1723.5797,-76.6372 1724.0212,-65.9586 1714.5,-56 1679.3015,-19.1849 887.8728,-11.4267 721.1541,-10.1989"/>
<polygon fill="#191970" stroke="#191970" points="721.1154,-6.6986 711.0907,-10.1272 721.0655,-13.6984 721.1154,-6.6986"/>
</g>
<!-- Node16 -->
<g id="node17" class="node">
<title>Node16</title>
<polygon fill="#ffffff" stroke="#bfbfbf" points="1197.5,-56.5 1197.5,-86.5 1297.5,-86.5 1297.5,-56.5 1197.5,-56.5"/>
<text text-anchor="start" x="1205.5" y="-74.5" font-family="Helvetica,sans-Serif" font-size="10.00" fill="#000000">boost/preprocessor</text>
<text text-anchor="middle" x="1247.5" y="-63.5" font-family="Helvetica,sans-Serif" font-size="10.00" fill="#000000">/control/if.hpp</text>
</g>
<!-- Node15&#45;&gt;Node16 -->
<g id="edge23" class="edge">
<title>Node15&#45;&gt;Node16</title>
<path fill="none" stroke="#191970" d="M1348.75,-123.3906C1331.9831,-114.7976 1306.8866,-101.9356 1285.8748,-91.1671"/>
<polygon fill="#191970" stroke="#191970" points="1287.351,-87.9908 1276.8553,-86.5446 1284.1583,-94.2203 1287.351,-87.9908"/>
</g>
<!-- Node17 -->
<g id="node18" class="node">
<title>Node17</title>
<polygon fill="#ffffff" stroke="#bfbfbf" points="1315.5,-56.5 1315.5,-86.5 1419.5,-86.5 1419.5,-56.5 1315.5,-56.5"/>
<text text-anchor="start" x="1323.5" y="-74.5" font-family="Helvetica,sans-Serif" font-size="10.00" fill="#000000">boost/preprocessor</text>
<text text-anchor="middle" x="1367.5" y="-63.5" font-family="Helvetica,sans-Serif" font-size="10.00" fill="#000000">/facilities/empty.hpp</text>
</g>
<!-- Node15&#45;&gt;Node17 -->
<g id="edge24" class="edge">
<title>Node15&#45;&gt;Node17</title>
<path fill="none" stroke="#191970" d="M1367.5,-123.3906C1367.5,-116.2234 1367.5,-106.0862 1367.5,-96.671"/>
<polygon fill="#191970" stroke="#191970" points="1371.0001,-96.5446 1367.5,-86.5446 1364.0001,-96.5446 1371.0001,-96.5446"/>
</g>
<!-- Node18 -->
<g id="node19" class="node">
<title>Node18</title>
<polygon fill="#ffffff" stroke="#bfbfbf" points="859.5,-56.5 859.5,-86.5 961.5,-86.5 961.5,-56.5 859.5,-56.5"/>
<text text-anchor="start" x="867.5" y="-74.5" font-family="Helvetica,sans-Serif" font-size="10.00" fill="#000000">boost/preprocessor</text>
<text text-anchor="middle" x="910.5" y="-63.5" font-family="Helvetica,sans-Serif" font-size="10.00" fill="#000000">/seq/for_each_i.hpp</text>
</g>
<!-- Node15&#45;&gt;Node18 -->
<g id="edge25" class="edge">
<title>Node15&#45;&gt;Node18</title>
<path fill="none" stroke="#191970" d="M1325.8607,-126.0892C1318.7432,-124.9943 1311.4158,-123.921 1304.5,-123 1159.682,-103.7142 1119.1206,-113.3076 971.6486,-87.052"/>
<polygon fill="#191970" stroke="#191970" points="972.2408,-83.6024 961.7781,-85.2701 970.9972,-90.4911 972.2408,-83.6024"/>
</g>
<!-- Node19 -->
<g id="node20" class="node">
<title>Node19</title>
<polygon fill="#ffffff" stroke="#bfbfbf" points="979.5,-56.5 979.5,-86.5 1079.5,-86.5 1079.5,-56.5 979.5,-56.5"/>
<text text-anchor="start" x="987.5" y="-74.5" font-family="Helvetica,sans-Serif" font-size="10.00" fill="#000000">boost/preprocessor</text>
<text text-anchor="middle" x="1029.5" y="-63.5" font-family="Helvetica,sans-Serif" font-size="10.00" fill="#000000">/stringize.hpp</text>
</g>
<!-- Node15&#45;&gt;Node19 -->
<g id="edge26" class="edge">
<title>Node15&#45;&gt;Node19</title>
<path fill="none" stroke="#191970" d="M1325.9763,-126.374C1259.8529,-115.7926 1134.2319,-95.558 1089.5693,-87.0089"/>
<polygon fill="#191970" stroke="#191970" points="1090.1293,-83.5515 1079.6357,-85.0122 1088.7499,-90.4143 1090.1293,-83.5515"/>
</g>
<!-- Node20 -->
<g id="node21" class="node">
<title>Node20</title>
<polygon fill="#ffffff" stroke="#bfbfbf" points="737.5,-56.5 737.5,-86.5 841.5,-86.5 841.5,-56.5 737.5,-56.5"/>
<text text-anchor="start" x="745.5" y="-74.5" font-family="Helvetica,sans-Serif" font-size="10.00" fill="#000000">boost/preprocessor</text>
<text text-anchor="middle" x="789.5" y="-63.5" font-family="Helvetica,sans-Serif" font-size="10.00" fill="#000000">/variadic/to_seq.hpp</text>
</g>
<!-- Node15&#45;&gt;Node20 -->
<g id="edge27" class="edge">
<title>Node15&#45;&gt;Node20</title>
<path fill="none" stroke="#191970" d="M1325.8817,-125.9225C1318.7618,-124.8469 1311.4281,-123.8233 1304.5,-123 1106.7416,-99.5008 1051.9521,-119.3802 851.5831,-86.9965"/>
<polygon fill="#191970" stroke="#191970" points="852.0549,-83.5272 841.6203,-85.363 850.9222,-90.435 852.0549,-83.5272"/>
</g>
<!-- Node21 -->
<g id="node22" class="node">
<title>Node21</title>
<polygon fill="#ffffff" stroke="#bfbfbf" points="1437.5,-62 1437.5,-81 1561.5,-81 1561.5,-62 1437.5,-62"/>
<text text-anchor="middle" x="1499.5" y="-69" font-family="Helvetica,sans-Serif" font-size="10.00" fill="#000000">boost/vmd/is_empty.hpp</text>
</g>
<!-- Node15&#45;&gt;Node21 -->
<g id="edge28" class="edge">
<title>Node15&#45;&gt;Node21</title>
<path fill="none" stroke="#191970" d="M1388.125,-123.3906C1410.0173,-113.1908 1444.8193,-96.9763 1469.6927,-85.3875"/>
<polygon fill="#191970" stroke="#191970" points="1471.4335,-88.4377 1479.0198,-81.0419 1468.4772,-82.0926 1471.4335,-88.4377"/>
</g>
<!-- Node22 -->
<g id="node23" class="node">
<title>Node22</title>
<g id="a_node23"><a xlink:href="Tracer_8hpp.html" target="_top" xlink:title="logging/Tracer.hpp">
<polygon fill="#ffffff" stroke="#000000" points="1762,-62 1762,-81 1859,-81 1859,-62 1762,-62"/>
<text text-anchor="middle" x="1810.5" y="-69" font-family="Helvetica,sans-Serif" font-size="10.00" fill="#000000">logging/Tracer.hpp</text>
</a>
</g>
</g>
<!-- Node15&#45;&gt;Node22 -->
<g id="edge30" class="edge">
<title>Node15&#45;&gt;Node22</title>
<path fill="none" stroke="#191970" d="M1409.0762,-129.6232C1479.2333,-123.556 1625.4215,-109.3222 1747.5,-87 1753.2495,-85.9487 1759.2566,-84.6868 1765.1806,-83.3428"/>
<polygon fill="#191970" stroke="#191970" points="1766.0812,-86.7265 1775.0119,-81.0261 1764.4757,-79.9131 1766.0812,-86.7265"/>
</g>
<!-- Node23 -->
<g id="node24" class="node">
<title>Node23</title>
<polygon fill="#ffffff" stroke="#bfbfbf" points="1580,-62 1580,-81 1705,-81 1705,-62 1580,-62"/>
<text text-anchor="middle" x="1642.5" y="-69" font-family="Helvetica,sans-Serif" font-size="10.00" fill="#000000">prettyprint/prettyprint.hpp</text>
</g>
<!-- Node15&#45;&gt;Node23 -->
<g id="edge32" class="edge">
<title>Node15&#45;&gt;Node23</title>
<path fill="none" stroke="#191970" d="M1409.2666,-123.6595C1457.6835,-112.8317 1537.5395,-94.973 1590.0839,-83.2222"/>
<polygon fill="#191970" stroke="#191970" points="1590.8921,-86.628 1599.8871,-81.0298 1589.3643,-79.7967 1590.8921,-86.628"/>
</g>
<!-- Node24 -->
<g id="node25" class="node">
<title>Node24</title>
<g id="a_node25"><a xlink:href="String_8hpp.html" target="_top" xlink:title="utils/String.hpp">
<polygon fill="#ffffff" stroke="#ff0000" points="1097.5,-62 1097.5,-81 1179.5,-81 1179.5,-62 1097.5,-62"/>
<text text-anchor="middle" x="1138.5" y="-69" font-family="Helvetica,sans-Serif" font-size="10.00" fill="#000000">utils/String.hpp</text>
</a>
</g>
</g>
<!-- Node15&#45;&gt;Node24 -->
<g id="edge33" class="edge">
<title>Node15&#45;&gt;Node24</title>
<path fill="none" stroke="#191970" d="M1328.2427,-123.4997C1291.8769,-114.56 1236.3503,-100.5563 1188.5,-87 1185.1185,-86.042 1181.6177,-85.0197 1178.1108,-83.9745"/>
<polygon fill="#191970" stroke="#191970" points="1178.8905,-80.5536 1168.3051,-81.0021 1176.8598,-87.2526 1178.8905,-80.5536"/>
</g>
<!-- Node22&#45;&gt;Node14 -->
<g id="edge31" class="edge">
<title>Node22&#45;&gt;Node14</title>
<path fill="none" stroke="#191970" d="M1791.8222,-81.0836C1751.6047,-101.7192 1656.6341,-150.4486 1609.3093,-174.7311"/>
<polygon fill="#191970" stroke="#191970" points="1607.5394,-171.7053 1600.24,-179.3845 1610.735,-177.9333 1607.5394,-171.7053"/>
</g>
<!-- Node24&#45;&gt;Node4 -->
<g id="edge34" class="edge">
<title>Node24&#45;&gt;Node4</title>
<path fill="none" stroke="#191970" d="M1110.9715,-61.9639C1103.7315,-59.733 1095.8808,-57.5565 1088.5,-56 953.4329,-27.5168 788.6004,-15.5509 721.3183,-11.6105"/>
<polygon fill="#191970" stroke="#191970" points="721.1927,-8.0978 711.0105,-11.0255 720.7961,-15.0865 721.1927,-8.0978"/>
</g>
<!-- Node26&#45;&gt;Node6 -->
<g id="edge38" class="edge">
<title>Node26&#45;&gt;Node6</title>
<path fill="none" stroke="#191970" d="M1488.1119,-486.5817C1487.4081,-456.1137 1488.933,-362.2977 1530.5,-302 1565.4097,-251.3594 1631.1356,-217.5877 1670.1482,-200.9919"/>
<polygon fill="#191970" stroke="#191970" points="1671.5526,-204.1987 1679.4561,-197.1429 1668.8776,-197.73 1671.5526,-204.1987"/>
</g>
<!-- Node26&#45;&gt;Node10 -->
<g id="edge36" class="edge">
<title>Node26&#45;&gt;Node10</title>
<path fill="none" stroke="#191970" d="M1462.9239,-486.9308C1440.7526,-477.9635 1408.4058,-463.2249 1383.5,-445 1338.6297,-412.1661 1296.0648,-361.8077 1275.0872,-335.2732"/>
<polygon fill="#191970" stroke="#191970" points="1277.738,-332.9809 1268.8284,-327.2476 1272.2181,-337.2856 1277.738,-332.9809"/>
</g>
<!-- Node26&#45;&gt;Node13 -->
<g id="edge37" class="edge">
<title>Node26&#45;&gt;Node13</title>
<path fill="none" stroke="#191970" d="M1473.4732,-486.8726C1447.6266,-469.0016 1397.5,-428.0232 1397.5,-379 1397.5,-379 1397.5,-379 1397.5,-317.5 1397.5,-277.195 1380.096,-232.5903 1368.8445,-207.9654"/>
<polygon fill="#191970" stroke="#191970" points="1371.9056,-206.2511 1364.4678,-198.7058 1365.5769,-209.2425 1371.9056,-206.2511"/>
</g>
<!-- Node26&#45;&gt;Node14 -->
<g id="edge39" class="edge">
<title>Node26&#45;&gt;Node14</title>
<path fill="none" stroke="#191970" d="M1480.6797,-486.8018C1465.9368,-467.5067 1435.5,-422.4143 1435.5,-379 1435.5,-379 1435.5,-379 1435.5,-317.5 1435.5,-259.2674 1501.7575,-221.1771 1545.0023,-202.518"/>
<polygon fill="#191970" stroke="#191970" points="1546.4915,-205.6894 1554.3807,-198.6176 1543.8033,-199.2261 1546.4915,-205.6894"/>
</g>
<!-- Node26&#45;&gt;Node27 -->
<g id="edge40" class="edge">
<title>Node26&#45;&gt;Node27</title>
<path fill="none" stroke="#191970" d="M1428.3087,-490.0057C1317.2776,-478.026 1081.772,-452.6162 974.1987,-441.0096"/>
<polygon fill="#191970" stroke="#191970" points="974.514,-437.5234 964.1962,-439.9304 973.7631,-444.483 974.514,-437.5234"/>
</g>
<!-- Node27&#45;&gt;Node5 -->
<g id="edge43" class="edge">
<title>Node27&#45;&gt;Node5</title>
<path fill="none" stroke="#191970" d="M884.4626,-425.3733C846.7246,-414.6999 786.4386,-397.6493 750.4364,-387.4669"/>
<polygon fill="#191970" stroke="#191970" points="751.1048,-384.0187 740.5297,-384.665 749.1997,-390.7545 751.1048,-384.0187"/>
</g>
<!-- Node27&#45;&gt;Node10 -->
<g id="edge41" class="edge">
<title>Node27&#45;&gt;Node10</title>
<path fill="none" stroke="#191970" d="M924.3213,-425.0691C933.5689,-410.2581 953.0925,-382.6642 977.5,-369 1018.2053,-346.2117 1149.9308,-329.3292 1218.7439,-321.8164"/>
<polygon fill="#191970" stroke="#191970" points="1219.2542,-325.2818 1228.8233,-320.7339 1218.5067,-318.3218 1219.2542,-325.2818"/>
</g>
<!-- Node28 -->
<g id="node28" class="node">
<title>Node28</title>
<polygon fill="#ffffff" stroke="#bfbfbf" points="1273.5,-241 1273.5,-260 1327.5,-260 1327.5,-241 1273.5,-241"/>
<text text-anchor="middle" x="1300.5" y="-248" font-family="Helvetica,sans-Serif" font-size="10.00" fill="#000000">iostream</text>
</g>
<!-- Node27&#45;&gt;Node28 -->
<g id="edge42" class="edge">
<title>Node27&#45;&gt;Node28</title>
<path fill="none" stroke="#191970" d="M920.2996,-425.4818C923.4861,-411.2098 931.4605,-384.3103 948.5,-369 1056.8077,-271.6838 1122.2603,-314.6441 1259.5,-266 1261.7392,-265.2063 1264.0419,-264.3757 1266.3595,-263.529"/>
<polygon fill="#191970" stroke="#191970" points="1267.6863,-266.77 1275.8449,-260.0108 1265.2519,-260.2069 1267.6863,-266.77"/>
</g>
<!-- Node29 -->
<g id="node29" class="node">
<title>Node29</title>
<g id="a_node29"><a xlink:href="differences_8hpp.html" target="_top" xlink:title="math/differences.hpp">
<polygon fill="#ffffff" stroke="#000000" points="986.5,-369.5 986.5,-388.5 1094.5,-388.5 1094.5,-369.5 986.5,-369.5"/>
<text text-anchor="middle" x="1040.5" y="-376.5" font-family="Helvetica,sans-Serif" font-size="10.00" fill="#000000">math/differences.hpp</text>
</a>
</g>
</g>
<!-- Node27&#45;&gt;Node29 -->
<g id="edge44" class="edge">
<title>Node27&#45;&gt;Node29</title>
<path fill="none" stroke="#191970" d="M939.4725,-425.3733C959.0567,-416.3838 988.4961,-402.8706 1010.551,-392.7471"/>
<polygon fill="#191970" stroke="#191970" points="1012.1729,-395.8538 1019.8011,-388.5011 1009.2527,-389.4919 1012.1729,-395.8538"/>
</g>
<!-- Node27&#45;&gt;Node30 -->
<g id="edge63" class="edge">
<title>Node27&#45;&gt;Node30</title>
<path fill="none" stroke="#191970" d="M909.3346,-425.3845C890.3835,-405.5028 846.6681,-359.6406 822.7908,-334.5908"/>
<polygon fill="#191970" stroke="#191970" points="825.2252,-332.072 815.7921,-327.2484 820.1583,-336.9017 825.2252,-332.072"/>
</g>
<!-- Node29&#45;&gt;Node10 -->
<g id="edge45" class="edge">
<title>Node29&#45;&gt;Node10</title>
<path fill="none" stroke="#191970" d="M1075.0313,-369.3906C1113.9178,-358.5693 1177.1328,-340.9778 1219.0147,-329.3228"/>
<polygon fill="#191970" stroke="#191970" points="1219.9571,-332.6936 1228.6527,-326.6408 1218.0804,-325.9499 1219.9571,-332.6936"/>
</g>
<!-- Node29&#45;&gt;Node30 -->
<g id="edge46" class="edge">
<title>Node29&#45;&gt;Node30</title>
<path fill="none" stroke="#191970" d="M1004.1942,-369.4581C963.3781,-358.7308 897.0162,-341.2895 852.577,-329.61"/>
<polygon fill="#191970" stroke="#191970" points="853.4522,-326.2212 842.8909,-327.0643 851.6728,-332.9913 853.4522,-326.2212"/>
</g>
<!-- Node30&#45;&gt;Node18 -->
<g id="edge50" class="edge">
<title>Node30&#45;&gt;Node18</title>
<path fill="none" stroke="#191970" d="M758.2908,-311.7154C702.8808,-302.7864 622.6822,-281.5441 648.5,-235 691.1726,-158.0704 786.7713,-112.5896 849.9233,-89.8465"/>
<polygon fill="#191970" stroke="#191970" points="851.1071,-93.1404 859.3809,-86.5226 848.7861,-86.5364 851.1071,-93.1404"/>
</g>
<!-- Node30&#45;&gt;Node19 -->
<g id="edge52" class="edge">
<title>Node30&#45;&gt;Node19</title>
<path fill="none" stroke="#191970" d="M840.7449,-307.9983C849.7211,-305.7669 859.4278,-303.5816 868.5,-302 947.2687,-288.2679 1172.865,-325.299 1226.5,-266 1287.408,-198.66 1151.1339,-124.7854 1075.5358,-90.694"/>
<polygon fill="#191970" stroke="#191970" points="1076.7487,-87.4031 1066.1889,-86.5417 1073.9067,-93.8003 1076.7487,-87.4031"/>
</g>
<!-- Node30&#45;&gt;Node20 -->
<g id="edge54" class="edge">
<title>Node30&#45;&gt;Node20</title>
<path fill="none" stroke="#191970" d="M758.2468,-311.2005C707.5466,-303.4749 632.7831,-288.5604 615.5,-266 597.0213,-241.8789 558.5207,-202.1951 619.5,-123 632.9836,-105.4885 684.6616,-91.4417 727.5368,-82.4695"/>
<polygon fill="#191970" stroke="#191970" points="728.2733,-85.8914 737.3736,-80.466 726.8762,-79.0323 728.2733,-85.8914"/>
</g>
<!-- Node30&#45;&gt;Node28 -->
<g id="edge48" class="edge">
<title>Node30&#45;&gt;Node28</title>
<path fill="none" stroke="#191970" d="M840.7359,-307.946C849.7122,-305.7154 859.4213,-303.5434 868.5,-302 1040.5443,-272.7515 1089.4495,-305.2116 1259.5,-266 1262.517,-265.3043 1265.6107,-264.4382 1268.6805,-263.4735"/>
<polygon fill="#191970" stroke="#191970" points="1269.9803,-266.7273 1278.2813,-260.1436 1267.6865,-260.1137 1269.9803,-266.7273"/>
</g>
<!-- Node31 -->
<g id="node31" class="node">
<title>Node31</title>
<polygon fill="#ffffff" stroke="#bfbfbf" points="782,-241 782,-260 831,-260 831,-241 782,-241"/>
<text text-anchor="middle" x="806.5" y="-248" font-family="Helvetica,sans-Serif" font-size="10.00" fill="#000000">cassert</text>
</g>
<!-- Node30&#45;&gt;Node31 -->
<g id="edge47" class="edge">
<title>Node30&#45;&gt;Node31</title>
<path fill="none" stroke="#191970" d="M806.5,-307.9005C806.5,-298.149 806.5,-282.7597 806.5,-270.3695"/>
<polygon fill="#191970" stroke="#191970" points="810.0001,-270.0816 806.5,-260.0817 803.0001,-270.0817 810.0001,-270.0816"/>
</g>
<!-- Node32 -->
<g id="node32" class="node">
<title>Node32</title>
<polygon fill="#ffffff" stroke="#bfbfbf" points="849.5,-241 849.5,-260 981.5,-260 981.5,-241 849.5,-241"/>
<text text-anchor="middle" x="915.5" y="-248" font-family="Helvetica,sans-Serif" font-size="10.00" fill="#000000">boost/current_function.hpp</text>
</g>
<!-- Node30&#45;&gt;Node32 -->
<g id="edge49" class="edge">
<title>Node30&#45;&gt;Node32</title>
<path fill="none" stroke="#191970" d="M822.117,-307.9005C840.1669,-296.8057 870.0896,-278.4128 891.1908,-265.4424"/>
<polygon fill="#191970" stroke="#191970" points="893.2255,-268.3001 899.9119,-260.0817 889.5598,-262.3366 893.2255,-268.3001"/>
</g>
<!-- Node33 -->
<g id="node33" class="node">
<title>Node33</title>
<polygon fill="#ffffff" stroke="#bfbfbf" points="999.5,-235.5 999.5,-265.5 1099.5,-265.5 1099.5,-235.5 999.5,-235.5"/>
<text text-anchor="start" x="1007.5" y="-253.5" font-family="Helvetica,sans-Serif" font-size="10.00" fill="#000000">boost/preprocessor</text>
<text text-anchor="middle" x="1049.5" y="-242.5" font-family="Helvetica,sans-Serif" font-size="10.00" fill="#000000">/seq/seq.hpp</text>
</g>
<!-- Node30&#45;&gt;Node33 -->
<g id="edge51" class="edge">
<title>Node30&#45;&gt;Node33</title>
<path fill="none" stroke="#191970" d="M841.0579,-307.9717C879.7142,-297.3134 943.0275,-279.8566 989.7487,-266.9746"/>
<polygon fill="#191970" stroke="#191970" points="990.7418,-270.3315 999.4518,-264.2993 988.8812,-263.5833 990.7418,-270.3315"/>
</g>
<!-- Node34 -->
<g id="node34" class="node">
<title>Node34</title>
<polygon fill="#ffffff" stroke="#bfbfbf" points="1117.5,-235.5 1117.5,-265.5 1217.5,-265.5 1217.5,-235.5 1117.5,-235.5"/>
<text text-anchor="start" x="1125.5" y="-253.5" font-family="Helvetica,sans-Serif" font-size="10.00" fill="#000000">boost/preprocessor</text>
<text text-anchor="middle" x="1167.5" y="-242.5" font-family="Helvetica,sans-Serif" font-size="10.00" fill="#000000">/variadic/elem.hpp</text>
</g>
<!-- Node30&#45;&gt;Node34 -->
<g id="edge53" class="edge">
<title>Node30&#45;&gt;Node34</title>
<path fill="none" stroke="#191970" d="M842.1038,-307.9768C850.7094,-305.8476 859.9042,-303.715 868.5,-302 971.1763,-281.514 1001.1119,-287.358 1107.5266,-266.0658"/>
<polygon fill="#191970" stroke="#191970" points="1108.2733,-269.4857 1117.3748,-264.0623 1106.8778,-262.6262 1108.2733,-269.4857"/>
</g>
<!-- Node35 -->
<g id="node35" class="node">
<title>Node35</title>
<g id="a_node35"><a xlink:href="Parallel_8hpp.html" target="_top" xlink:title="Parallel.hpp">
<polygon fill="#ffffff" stroke="#ff0000" points="657.5,-241 657.5,-260 725.5,-260 725.5,-241 657.5,-241"/>
<text text-anchor="middle" x="691.5" y="-248" font-family="Helvetica,sans-Serif" font-size="10.00" fill="#000000">Parallel.hpp</text>
</a>
</g>
</g>
<!-- Node30&#45;&gt;Node35 -->
<g id="edge55" class="edge">
<title>Node30&#45;&gt;Node35</title>
<path fill="none" stroke="#191970" d="M790.0233,-307.9005C770.8945,-296.7559 739.1267,-278.2477 716.8484,-265.2682"/>
<polygon fill="#191970" stroke="#191970" points="718.3486,-262.0916 707.9461,-260.0817 714.8247,-268.1399 718.3486,-262.0916"/>
</g>
<!-- Node37 -->
<g id="node36" class="node">
<title>Node37</title>
<g id="a_node36"><a xlink:href="stacktrace_8hpp.html" target="_top" xlink:title="stacktrace.hpp">
<polygon fill="#ffffff" stroke="#000000" points="486,-123.5 486,-142.5 567,-142.5 567,-123.5 486,-123.5"/>
<text text-anchor="middle" x="526.5" y="-130.5" font-family="Helvetica,sans-Serif" font-size="10.00" fill="#000000">stacktrace.hpp</text>
</a>
</g>
</g>
<!-- Node30&#45;&gt;Node37 -->
<g id="edge61" class="edge">
<title>Node30&#45;&gt;Node37</title>
<path fill="none" stroke="#191970" d="M758.3018,-312.0399C699.3697,-304.4683 604.164,-289.0542 577.5,-266 543.6449,-236.7282 532.1689,-182.3746 528.3502,-153.0309"/>
<polygon fill="#191970" stroke="#191970" points="531.7937,-152.3316 527.1998,-142.7845 524.8374,-153.1126 531.7937,-152.3316"/>
</g>
<!-- Node35&#45;&gt;Node3 -->
<g id="edge57" class="edge">
<title>Node35&#45;&gt;Node3</title>
<path fill="none" stroke="#191970" d="M657.2933,-242.1439C569.3586,-220.663 336.0559,-163.6712 246.3449,-141.7563"/>
<polygon fill="#191970" stroke="#191970" points="247.174,-138.356 236.629,-139.3829 245.5128,-145.156 247.174,-138.356"/>
</g>
<!-- Node35&#45;&gt;Node4 -->
<g id="edge58" class="edge">
<title>Node35&#45;&gt;Node4</title>
<path fill="none" stroke="#191970" d="M691.4596,-240.7742C691.31,-204.8148 690.7866,-78.9298 690.5824,-29.8266"/>
<polygon fill="#191970" stroke="#191970" points="694.0815,-29.5686 690.5398,-19.5833 687.0816,-29.5978 694.0815,-29.5686"/>
</g>
<!-- Node35&#45;&gt;Node6 -->
<g id="edge59" class="edge">
<title>Node35&#45;&gt;Node6</title>
<path fill="none" stroke="#191970" d="M716.5815,-240.9803C723.8703,-238.6041 731.9131,-236.3505 739.5,-235 1133.6243,-164.8428 1241.1779,-238.9438 1639.5,-199 1649.2993,-198.0173 1659.9023,-196.4831 1669.5218,-194.9089"/>
<polygon fill="#191970" stroke="#191970" points="1670.2201,-198.3405 1679.4895,-193.2093 1669.0434,-191.4401 1670.2201,-198.3405"/>
</g>
<!-- Node35&#45;&gt;Node13 -->
<g id="edge56" class="edge">
<title>Node35&#45;&gt;Node13</title>
<path fill="none" stroke="#191970" d="M717.1108,-240.9854C724.2669,-238.6697 732.1091,-236.446 739.5,-235 853.6738,-212.6628 1215.1988,-195.3266 1326.5381,-190.4081"/>
<polygon fill="#191970" stroke="#191970" points="1326.9729,-193.8925 1336.8102,-189.9583 1326.6666,-186.8992 1326.9729,-193.8925"/>
</g>
<!-- Node35&#45;&gt;Node14 -->
<g id="edge60" class="edge">
<title>Node35&#45;&gt;Node14</title>
<path fill="none" stroke="#191970" d="M716.8433,-240.9709C724.0661,-238.6253 732.0092,-236.3899 739.5,-235 749.1344,-233.2124 1332.0436,-202.2162 1522.2144,-192.1379"/>
<polygon fill="#191970" stroke="#191970" points="1522.5056,-195.6275 1532.3063,-191.6032 1522.1351,-188.6373 1522.5056,-195.6275"/>
</g>
<!-- Node37&#45;&gt;Node4 -->
<g id="edge62" class="edge">
<title>Node37&#45;&gt;Node4</title>
<path fill="none" stroke="#191970" d="M539.3688,-123.3484C567.5113,-102.2415 634.7624,-51.8032 669.2744,-25.9192"/>
<polygon fill="#191970" stroke="#191970" points="671.791,-28.4068 677.691,-19.6068 667.5909,-22.8068 671.791,-28.4068"/>
</g>
<!-- Node38&#45;&gt;Node4 -->
<g id="edge67" class="edge">
<title>Node38&#45;&gt;Node4</title>
<path fill="none" stroke="#191970" d="M1557.8859,-369.486C1527.2883,-331.362 1413.8596,-191.1092 1391.5,-179 1129.9082,-37.3311 969.7326,-261.0895 728.5,-87 709.4908,-73.2817 699.4967,-47.3624 694.615,-29.408"/>
<polygon fill="#191970" stroke="#191970" points="698.0122,-28.5657 692.2514,-19.6739 691.2099,-30.2174 698.0122,-28.5657"/>
</g>
<!-- Node38&#45;&gt;Node10 -->
<g id="edge65" class="edge">
<title>Node38&#45;&gt;Node10</title>
<path fill="none" stroke="#191970" d="M1523.8675,-370.5776C1466.1881,-358.9089 1362.5053,-337.9336 1304.2425,-326.1469"/>
<polygon fill="#191970" stroke="#191970" points="1304.7544,-322.6796 1294.2589,-324.1272 1303.3663,-329.5407 1304.7544,-322.6796"/>
</g>
<!-- Node38&#45;&gt;Node14 -->
<g id="edge68" class="edge">
<title>Node38&#45;&gt;Node14</title>
<path fill="none" stroke="#191970" d="M1576.059,-369.2076C1584.5009,-360.6048 1595.6906,-347.2634 1600.5,-333 1615.0028,-289.9882 1599.7169,-236.2686 1589.3633,-208.1646"/>
<polygon fill="#191970" stroke="#191970" points="1592.5827,-206.7859 1585.709,-198.7234 1586.0546,-209.3126 1592.5827,-206.7859"/>
</g>
<!-- Node39 -->
<g id="node38" class="node">
<title>Node39</title>
<polygon fill="#ffffff" stroke="#bfbfbf" points="1539.5,-308 1539.5,-327 1591.5,-327 1591.5,-308 1539.5,-308"/>
<text text-anchor="middle" x="1565.5" y="-315" font-family="Helvetica,sans-Serif" font-size="10.00" fill="#000000">stddef.h</text>
</g>
<!-- Node38&#45;&gt;Node39 -->
<g id="edge66" class="edge">
<title>Node38&#45;&gt;Node39</title>
<path fill="none" stroke="#191970" d="M1565.5,-369.3906C1565.5,-360.8657 1565.5,-348.1392 1565.5,-337.4235"/>
<polygon fill="#191970" stroke="#191970" points="1569.0001,-337.2448 1565.5,-327.2449 1562.0001,-337.2449 1569.0001,-337.2448"/>
</g>
<!-- Node40&#45;&gt;Node10 -->
<g id="edge70" class="edge">
<title>Node40&#45;&gt;Node10</title>
<path fill="none" stroke="#191970" d="M900.8442,-486.9626C925.3218,-476.8694 964.8339,-460.3139 998.5,-445 1084.9228,-405.6884 1185.5104,-355.7305 1233.389,-331.6896"/>
<polygon fill="#191970" stroke="#191970" points="1235.1506,-334.7214 1242.5122,-327.1018 1232.0057,-328.4677 1235.1506,-334.7214"/>
</g>
<!-- Node40&#45;&gt;Node27 -->
<g id="edge74" class="edge">
<title>Node40&#45;&gt;Node27</title>
<path fill="none" stroke="#191970" d="M883.9063,-486.8906C889.8886,-477.917 898.9747,-464.2879 906.3339,-453.2491"/>
<polygon fill="#191970" stroke="#191970" points="909.3686,-455.0068 912.0034,-444.7449 903.5442,-451.1239 909.3686,-455.0068"/>
</g>
<!-- Node40&#45;&gt;Node28 -->
<g id="edge72" class="edge">
<title>Node40&#45;&gt;Node28</title>
<path fill="none" stroke="#191970" d="M872.39,-486.8611C865.6431,-472.7542 855.6007,-445.8938 864.5,-425 895.4171,-352.4127 921.5557,-336.521 992.5,-302 1095.4196,-251.92 1135.6145,-290.1265 1247.5,-266 1252.6967,-264.8794 1258.1289,-263.517 1263.4508,-262.0701"/>
<polygon fill="#191970" stroke="#191970" points="1264.7963,-265.3263 1273.4579,-259.225 1262.8819,-258.5932 1264.7963,-265.3263"/>
</g>
<!-- Node40&#45;&gt;Node29 -->
<g id="edge73" class="edge">
<title>Node40&#45;&gt;Node29</title>
<path fill="none" stroke="#191970" d="M899.5178,-486.8984C919.686,-477.6034 949.901,-462.3927 973.5,-445 993.0574,-430.586 1012.5149,-410.6307 1025.3814,-396.4453"/>
<polygon fill="#191970" stroke="#191970" points="1028.1118,-398.642 1032.1463,-388.8453 1022.8832,-393.9878 1028.1118,-398.642"/>
</g>
<!-- Node40&#45;&gt;Node30 -->
<g id="edge75" class="edge">
<title>Node40&#45;&gt;Node30</title>
<path fill="none" stroke="#191970" d="M865.4479,-486.7988C854.5406,-477.3239 838.9322,-461.896 830.5,-445 812.8893,-409.7129 808.1414,-363.0526 806.8993,-337.0831"/>
<polygon fill="#191970" stroke="#191970" points="810.3948,-336.8889 806.5479,-327.0172 803.399,-337.1332 810.3948,-336.8889"/>
</g>
<!-- Node41 -->
<g id="node40" class="node">
<title>Node41</title>
<polygon fill="#ffffff" stroke="#bfbfbf" points="1058.5,-425.5 1058.5,-444.5 1096.5,-444.5 1096.5,-425.5 1058.5,-425.5"/>
<text text-anchor="middle" x="1077.5" y="-432.5" font-family="Helvetica,sans-Serif" font-size="10.00" fill="#000000">array</text>
</g>
<!-- Node40&#45;&gt;Node41 -->
<g id="edge71" class="edge">
<title>Node40&#45;&gt;Node41</title>
<path fill="none" stroke="#191970" d="M908.75,-486.8906C947.0107,-475.1254 1011.2961,-455.3577 1048.501,-443.9172"/>
<polygon fill="#191970" stroke="#191970" points="1049.7028,-447.2094 1058.2324,-440.9248 1047.6453,-440.5186 1049.7028,-447.2094"/>
</g>
<!-- Node42&#45;&gt;Node3 -->
<g id="edge77" class="edge">
<title>Node42&#45;&gt;Node3</title>
<path fill="none" stroke="#191970" d="M334.2043,-548.3942C288.1184,-532.8156 210.5,-497.3263 210.5,-435 210.5,-435 210.5,-435 210.5,-250.5 210.5,-216.1399 210.5,-176.128 210.5,-152.7764"/>
<polygon fill="#191970" stroke="#191970" points="214.0001,-152.7489 210.5,-142.7489 207.0001,-152.749 214.0001,-152.7489"/>
</g>
<!-- Node43&#45;&gt;Node10 -->
<g id="edge79" class="edge">
<title>Node43&#45;&gt;Node10</title>
<path fill="none" stroke="#191970" d="M1073.0094,-553.4614C1149.4031,-545.8193 1290.6366,-529.4944 1305.5,-512 1314.4208,-501.5001 1310.7725,-493.729 1305.5,-481 1296.8409,-460.095 1278.8098,-465.6235 1269.5,-445 1253.5226,-409.6061 1255.6583,-362.9851 1258.6043,-337.0511"/>
<polygon fill="#191970" stroke="#191970" points="1262.0924,-337.3677 1259.9093,-327.0002 1255.1507,-336.4663 1262.0924,-337.3677"/>
</g>
<!-- Node43&#45;&gt;Node28 -->
<g id="edge82" class="edge">
<title>Node43&#45;&gt;Node28</title>
<path fill="none" stroke="#191970" d="M1030.209,-548.1387C1039.5354,-532.5947 1059.2452,-502.0069 1081.5,-481 1102.7454,-460.9459 1116.3482,-466.1527 1136.5,-445 1187.3426,-391.6323 1169.4551,-355.1742 1220.5,-302 1235.0346,-286.8591 1254.8491,-274.0611 1271.1218,-265.0103"/>
<polygon fill="#191970" stroke="#191970" points="1273.0699,-267.937 1280.2268,-260.1249 1269.7603,-261.7688 1273.0699,-267.937"/>
</g>
<!-- Node43&#45;&gt;Node29 -->
<g id="edge83" class="edge">
<title>Node43&#45;&gt;Node29</title>
<path fill="none" stroke="#191970" d="M1018.4298,-548.0357C1009.7423,-532.3507 996.2954,-501.5731 1010.5,-481 1036.1543,-443.8439 1079.8457,-482.1561 1105.5,-445 1119.2941,-425.0215 1094.2168,-405.6547 1071.3157,-393.1255"/>
<polygon fill="#191970" stroke="#191970" points="1072.8963,-390.0026 1062.4069,-388.512 1069.6773,-396.2185 1072.8963,-390.0026"/>
</g>
<!-- Node43&#45;&gt;Node30 -->
<g id="edge86" class="edge">
<title>Node43&#45;&gt;Node30</title>
<path fill="none" stroke="#191970" d="M1025.1178,-548.3276C1026.6044,-532.4987 1031.6294,-500.8417 1048.5,-481 1071.6751,-453.7436 1101.6909,-475.4338 1120.5,-445 1133.2422,-424.3827 1115.5372,-379.6403 1103.5,-369 1068.9543,-338.4631 941.249,-325.5646 865.0003,-320.4906"/>
<polygon fill="#191970" stroke="#191970" points="864.8008,-316.9708 854.5979,-319.8256 864.3542,-323.9566 864.8008,-316.9708"/>
</g>
<!-- Node43&#45;&gt;Node40 -->
<g id="edge84" class="edge">
<title>Node43&#45;&gt;Node40</title>
<path fill="none" stroke="#191970" d="M1001.5313,-548.3906C976.8276,-538.0554 937.363,-521.5447 909.5973,-509.9284"/>
<polygon fill="#191970" stroke="#191970" points="910.8835,-506.6727 900.3075,-506.0419 908.1818,-513.1303 910.8835,-506.6727"/>
</g>
<!-- Node43&#45;&gt;Node41 -->
<g id="edge81" class="edge">
<title>Node43&#45;&gt;Node41</title>
<path fill="none" stroke="#191970" d="M1007.4433,-548.377C995.1911,-540.4014 979.6292,-527.8248 972.5,-512 966.8408,-499.4381 964.9616,-492.5326 972.5,-481 981.2767,-467.5729 1020.6348,-452.8159 1048.58,-443.728"/>
<polygon fill="#191970" stroke="#191970" points="1049.8086,-447.0102 1058.2814,-440.6493 1047.6911,-440.3381 1049.8086,-447.0102"/>
</g>
<!-- Node44 -->
<g id="node43" class="node">
<title>Node44</title>
<polygon fill="#ffffff" stroke="#bfbfbf" points="1090.5,-487 1090.5,-506 1146.5,-506 1146.5,-487 1090.5,-487"/>
<text text-anchor="middle" x="1118.5" y="-494" font-family="Helvetica,sans-Serif" font-size="10.00" fill="#000000">algorithm</text>
</g>
<!-- Node43&#45;&gt;Node44 -->
<g id="edge80" class="edge">
<title>Node43&#45;&gt;Node44</title>
<path fill="none" stroke="#191970" d="M1039.1875,-548.3906C1054.2256,-538.5519 1077.8176,-523.1167 1095.3667,-511.6351"/>
<polygon fill="#191970" stroke="#191970" points="1097.4637,-514.4457 1103.9156,-506.0419 1093.6313,-508.588 1097.4637,-514.4457"/>
</g>
<!-- Node45 -->
<g id="node44" class="node">
<title>Node45</title>
<g id="a_node44"><a xlink:href="RangeAccessor_8hpp.html" target="_top" xlink:title="mesh/RangeAccessor.hpp">
<polygon fill="#ffffff" stroke="#ff0000" points="1164.5,-487 1164.5,-506 1296.5,-506 1296.5,-487 1164.5,-487"/>
<text text-anchor="middle" x="1230.5" y="-494" font-family="Helvetica,sans-Serif" font-size="10.00" fill="#000000">mesh/RangeAccessor.hpp</text>
</a>
</g>
</g>
<!-- Node43&#45;&gt;Node45 -->
<g id="edge85" class="edge">
<title>Node43&#45;&gt;Node45</title>
<path fill="none" stroke="#191970" d="M1056.6875,-548.3906C1092.2133,-537.7846 1149.5226,-520.6753 1188.5441,-509.0257"/>
<polygon fill="#191970" stroke="#191970" points="1189.9577,-512.2564 1198.5385,-506.0419 1187.9552,-505.5489 1189.9577,-512.2564"/>
</g>
<!-- Node48 -->
<g id="node46" class="node">
<title>Node48</title>
<polygon fill="#ffffff" stroke="#bfbfbf" points="495.5,-481.5 495.5,-511.5 595.5,-511.5 595.5,-481.5 495.5,-481.5"/>
<text text-anchor="start" x="503.5" y="-499.5" font-family="Helvetica,sans-Serif" font-size="10.00" fill="#000000">boost/container/flat</text>
<text text-anchor="middle" x="545.5" y="-488.5" font-family="Helvetica,sans-Serif" font-size="10.00" fill="#000000">_set.hpp</text>
</g>
<!-- Node47&#45;&gt;Node48 -->
<g id="edge89" class="edge">
<title>Node47&#45;&gt;Node48</title>
<path fill="none" stroke="#191970" d="M553.0938,-548.3906C552.0449,-541.2234 550.5614,-531.0862 549.1836,-521.671"/>
<polygon fill="#191970" stroke="#191970" points="552.6128,-520.9324 547.7016,-511.5446 545.6866,-521.946 552.6128,-520.9324"/>
</g>
<!-- Node49 -->
<g id="node47" class="node">
<title>Node49</title>
<polygon fill="#ffffff" stroke="#bfbfbf" points="614,-487 614,-506 673,-506 673,-487 614,-487"/>
<text text-anchor="middle" x="643.5" y="-494" font-family="Helvetica,sans-Serif" font-size="10.00" fill="#000000">functional</text>
</g>
<!-- Node47&#45;&gt;Node49 -->
<g id="edge90" class="edge">
<title>Node47&#45;&gt;Node49</title>
<path fill="none" stroke="#191970" d="M568.4063,-548.3906C582.5138,-538.6421 604.5724,-523.3994 621.1385,-511.9521"/>
<polygon fill="#191970" stroke="#191970" points="623.4542,-514.6063 629.6914,-506.0419 619.4747,-508.8474 623.4542,-514.6063"/>
</g>
<!-- Node50&#45;&gt;Node6 -->
<g id="edge93" class="edge">
<title>Node50&#45;&gt;Node6</title>
<path fill="none" stroke="#191970" d="M639.4619,-369.4422C652.6908,-360.681 672.207,-346.9808 687.5,-333 730.2696,-293.9003 721.2209,-259.9985 773.5,-235 860.3833,-193.4547 1543.6828,-208.6844 1639.5,-199 1649.2986,-198.0096 1659.9013,-196.4732 1669.5209,-194.8993"/>
<polygon fill="#191970" stroke="#191970" points="1670.2186,-198.3309 1679.4886,-193.2008 1669.0428,-191.4304 1670.2186,-198.3309"/>
</g>
<!-- Node50&#45;&gt;Node30 -->
<g id="edge94" class="edge">
<title>Node50&#45;&gt;Node30</title>
<path fill="none" stroke="#191970" d="M652.9375,-369.3906C684.0572,-358.8749 734.0964,-341.966 768.5485,-330.3243"/>
<polygon fill="#191970" stroke="#191970" points="769.9089,-333.5591 778.2622,-327.0419 767.668,-326.9274 769.9089,-333.5591"/>
</g>
<!-- Node51 -->
<g id="node49" class="node">
<title>Node51</title>
<polygon fill="#ffffff" stroke="#bfbfbf" points="570.5,-302.5 570.5,-332.5 678.5,-332.5 678.5,-302.5 570.5,-302.5"/>
<text text-anchor="start" x="578.5" y="-320.5" font-family="Helvetica,sans-Serif" font-size="10.00" fill="#000000">boost/iterator/indirect</text>
<text text-anchor="middle" x="624.5" y="-309.5" font-family="Helvetica,sans-Serif" font-size="10.00" fill="#000000">_iterator.hpp</text>
</g>
<!-- Node50&#45;&gt;Node51 -->
<g id="edge92" class="edge">
<title>Node50&#45;&gt;Node51</title>
<path fill="none" stroke="#191970" d="M624.5,-369.3906C624.5,-362.2234 624.5,-352.0862 624.5,-342.671"/>
<polygon fill="#191970" stroke="#191970" points="628.0001,-342.5446 624.5,-332.5446 621.0001,-342.5446 628.0001,-342.5446"/>
</g>
<!-- Node52&#45;&gt;Node3 -->
<g id="edge98" class="edge">
<title>Node52&#45;&gt;Node3</title>
<path fill="none" stroke="#191970" d="M199.1896,-604.4765C190.6716,-584.7595 172.5,-537.8508 172.5,-496.5 172.5,-496.5 172.5,-496.5 172.5,-250.5 172.5,-214.2454 189.0805,-174.6181 200.337,-151.8929"/>
<polygon fill="#191970" stroke="#191970" points="203.5965,-153.2076 205.0555,-142.7137 197.3708,-150.0073 203.5965,-153.2076"/>
</g>
</g>
</svg>
