<?xml version="1.0" encoding="UTF-8" standalone="no"?>
<!DOCTYPE svg PUBLIC "-//W3C//DTD SVG 1.1//EN"
 "http://www.w3.org/Graphics/SVG/1.1/DTD/svg11.dtd">
<!-- Generated by graphviz version 2.40.1 (20161225.0304)
 -->
<!-- Title: runEmptyConnectionTest Pages: 1 -->
<svg width="542pt" height="411pt"
 viewBox="0.00 0.00 542.00 410.50" xmlns="http://www.w3.org/2000/svg" xmlns:xlink="http://www.w3.org/1999/xlink">
<g id="graph0" class="graph" transform="scale(1 1) rotate(0) translate(4 406.5)">
<title>runEmptyConnectionTest</title>
<polygon fill="#ffffff" stroke="transparent" points="-4,4 -4,-406.5 538,-406.5 538,4 -4,4"/>
<!-- Node239 -->
<g id="node1" class="node">
<title>Node239</title>
<polygon fill="#bfbfbf" stroke="#000000" points="0,-202 0,-221 128,-221 128,-202 0,-202"/>
<text text-anchor="middle" x="64" y="-209" font-family="Helvetica,sans-Serif" font-size="10.00" fill="#000000">runEmptyConnectionTest</text>
</g>
<!-- Node240 -->
<g id="node2" class="node">
<title>Node240</title>
<g id="a_node2"><a xlink:href="RTreeTests_8cpp.html#a9849f5c774ff22e557184d988b1cf9ea" target="_top" xlink:title="BOOST_TEST">
<polygon fill="#ffffff" stroke="#000000" points="217,-383 217,-402 299,-402 299,-383 217,-383"/>
<text text-anchor="middle" x="258" y="-390" font-family="Helvetica,sans-Serif" font-size="10.00" fill="#000000">BOOST_TEST</text>
</a>
</g>
</g>
<!-- Node239&#45;&gt;Node240 -->
<g id="edge1" class="edge">
<title>Node239&#45;&gt;Node240</title>
<path fill="none" stroke="#191970" d="M66.8795,-221.0612C75.9508,-249.4302 106.7825,-333.6285 164,-373.5 176.4306,-382.1622 191.9015,-387.0669 206.6805,-389.7909"/>
<polygon fill="#191970" stroke="#191970" points="206.3385,-393.2795 216.7557,-391.3478 207.4075,-386.3616 206.3385,-393.2795"/>
</g>
<!-- Node241 -->
<g id="node3" class="node">
<title>Node241</title>
<g id="a_node3"><a xlink:href="classprecice_1_1testing_1_1TestContext.html#ab410f680ed3f84ee3994cbb1eb49a217" target="_top" xlink:title="Check wheater this context has a given size. ">
<polygon fill="#ffffff" stroke="#000000" points="186.5,-333.5 186.5,-363.5 329.5,-363.5 329.5,-333.5 186.5,-333.5"/>
<text text-anchor="start" x="194.5" y="-351.5" font-family="Helvetica,sans-Serif" font-size="10.00" fill="#000000">precice::testing::TestContext</text>
<text text-anchor="middle" x="258" y="-340.5" font-family="Helvetica,sans-Serif" font-size="10.00" fill="#000000">::hasSize</text>
</a>
</g>
</g>
<!-- Node239&#45;&gt;Node241 -->
<g id="edge2" class="edge">
<title>Node239&#45;&gt;Node241</title>
<path fill="none" stroke="#191970" d="M69.8853,-221.3155C83.5311,-243.2005 119.5799,-296.2083 164,-323.5 168.1006,-326.0194 172.4532,-328.2877 176.9509,-330.3296"/>
<polygon fill="#191970" stroke="#191970" points="175.7735,-333.63 186.3525,-334.2107 178.4446,-327.1596 175.7735,-333.63"/>
</g>
<!-- Node242 -->
<g id="node4" class="node">
<title>Node242</title>
<g id="a_node4"><a xlink:href="namespaceprecice_1_1testing.html#a08533fd83bad3d7f27ea7f4a35a14aa4" target="_top" xlink:title="precice::testing::nextMeshID">
<polygon fill="#ffffff" stroke="#000000" points="186.5,-295 186.5,-314 329.5,-314 329.5,-295 186.5,-295"/>
<text text-anchor="middle" x="258" y="-302" font-family="Helvetica,sans-Serif" font-size="10.00" fill="#000000">precice::testing::nextMeshID</text>
</a>
</g>
</g>
<!-- Node239&#45;&gt;Node242 -->
<g id="edge3" class="edge">
<title>Node239&#45;&gt;Node242</title>
<path fill="none" stroke="#191970" d="M73.8346,-221.1546C90.7468,-237.1719 127.0938,-269.0959 164,-285.5 169.6911,-288.0296 175.726,-290.2256 181.8827,-292.1315"/>
<polygon fill="#191970" stroke="#191970" points="181.0504,-295.5334 191.6259,-294.894 182.9599,-288.7989 181.0504,-295.5334"/>
</g>
<!-- Node244 -->
<g id="node6" class="node">
<title>Node244</title>
<g id="a_node6"><a xlink:href="classprecice_1_1testing_1_1TestContext.html#a87ef3b67f676b69dfb8c4cfc2e8df819" target="_top" xlink:title="Check wheater this context has a given name. ">
<polygon fill="#ffffff" stroke="#000000" points="186.5,-245.5 186.5,-275.5 329.5,-275.5 329.5,-245.5 186.5,-245.5"/>
<text text-anchor="start" x="194.5" y="-263.5" font-family="Helvetica,sans-Serif" font-size="10.00" fill="#000000">precice::testing::TestContext</text>
<text text-anchor="middle" x="258" y="-252.5" font-family="Helvetica,sans-Serif" font-size="10.00" fill="#000000">::isNamed</text>
</a>
</g>
</g>
<!-- Node239&#45;&gt;Node244 -->
<g id="edge5" class="edge">
<title>Node239&#45;&gt;Node244</title>
<path fill="none" stroke="#191970" d="M101.8657,-221.064C126.534,-227.2947 159.4534,-235.6094 188.704,-242.9974"/>
<polygon fill="#191970" stroke="#191970" points="187.9132,-246.4075 198.4659,-245.463 189.6275,-239.6207 187.9132,-246.4075"/>
</g>
<!-- Node245 -->
<g id="node7" class="node">
<title>Node245</title>
<g id="a_node7"><a xlink:href="classprecice_1_1testing_1_1TestContext.html#ae29e764c55d02af8024417f307aba70b" target="_top" xlink:title="precice::testing::TestContext\l::isMaster">
<polygon fill="#ffffff" stroke="#000000" points="186.5,-196.5 186.5,-226.5 329.5,-226.5 329.5,-196.5 186.5,-196.5"/>
<text text-anchor="start" x="194.5" y="-214.5" font-family="Helvetica,sans-Serif" font-size="10.00" fill="#000000">precice::testing::TestContext</text>
<text text-anchor="middle" x="258" y="-203.5" font-family="Helvetica,sans-Serif" font-size="10.00" fill="#000000">::isMaster</text>
</a>
</g>
</g>
<!-- Node239&#45;&gt;Node245 -->
<g id="edge6" class="edge">
<title>Node239&#45;&gt;Node245</title>
<path fill="none" stroke="#191970" d="M128.0605,-211.5C143.361,-211.5 159.9022,-211.5 175.8906,-211.5"/>
<polygon fill="#191970" stroke="#191970" points="176.2988,-215.0001 186.2988,-211.5 176.2987,-208.0001 176.2988,-215.0001"/>
</g>
<!-- Node247 -->
<g id="node9" class="node">
<title>Node247</title>
<g id="a_node9"><a xlink:href="classprecice_1_1m2n_1_1PointToPointCommunication.html#a5b6a7029e4c856f839db54da26aeb60b" target="_top" xlink:title="Requests connection from participant, which has to call acceptConnection(). Only initial connection i...">
<polygon fill="#ffffff" stroke="#000000" points="164,-98.5 164,-128.5 352,-128.5 352,-98.5 164,-98.5"/>
<text text-anchor="start" x="172" y="-116.5" font-family="Helvetica,sans-Serif" font-size="10.00" fill="#000000">precice::m2n::PointToPoint</text>
<text text-anchor="middle" x="258" y="-105.5" font-family="Helvetica,sans-Serif" font-size="10.00" fill="#000000">Communication::requestPreConnection</text>
</a>
</g>
</g>
<!-- Node239&#45;&gt;Node247 -->
<g id="edge8" class="edge">
<title>Node239&#45;&gt;Node247</title>
<path fill="none" stroke="#191970" d="M74.2027,-201.794C91.3674,-185.9915 127.7152,-154.7387 164,-137.5 168.1337,-135.5361 172.449,-133.7187 176.8605,-132.0388"/>
<polygon fill="#191970" stroke="#191970" points="178.3802,-135.2138 186.6392,-128.5776 176.0445,-128.615 178.3802,-135.2138"/>
</g>
<!-- Node250 -->
<g id="node12" class="node">
<title>Node250</title>
<g id="a_node12"><a xlink:href="classprecice_1_1m2n_1_1PointToPointCommunication.html#a2525800224276b27a2d12e96cf600686" target="_top" xlink:title="Broadcasts an int to connected ranks on remote participant. ">
<polygon fill="#ffffff" stroke="#000000" points="180,-49.5 180,-79.5 336,-79.5 336,-49.5 180,-49.5"/>
<text text-anchor="start" x="188" y="-67.5" font-family="Helvetica,sans-Serif" font-size="10.00" fill="#000000">precice::m2n::PointToPoint</text>
<text text-anchor="middle" x="258" y="-56.5" font-family="Helvetica,sans-Serif" font-size="10.00" fill="#000000">Communication::broadcastSend</text>
</a>
</g>
</g>
<!-- Node239&#45;&gt;Node250 -->
<g id="edge11" class="edge">
<title>Node239&#45;&gt;Node250</title>
<path fill="none" stroke="#191970" d="M69.0322,-201.7379C81.6331,-178.3075 116.9371,-118.6046 164,-88.5 166.6116,-86.8295 169.3335,-85.2751 172.1365,-83.8288"/>
<polygon fill="#191970" stroke="#191970" points="173.7276,-86.9491 181.328,-79.5677 170.7834,-80.5983 173.7276,-86.9491"/>
</g>
<!-- Node251 -->
<g id="node13" class="node">
<title>Node251</title>
<g id="a_node13"><a xlink:href="classprecice_1_1m2n_1_1PointToPointCommunication.html#aa528e41612b6b8d7cc3febc335c1268e" target="_top" xlink:title="Accepts connection from participant, which has to call requestPreConnection(). Only initial connectio...">
<polygon fill="#ffffff" stroke="#000000" points="165.5,-147.5 165.5,-177.5 350.5,-177.5 350.5,-147.5 165.5,-147.5"/>
<text text-anchor="start" x="173.5" y="-165.5" font-family="Helvetica,sans-Serif" font-size="10.00" fill="#000000">precice::m2n::PointToPoint</text>
<text text-anchor="middle" x="258" y="-154.5" font-family="Helvetica,sans-Serif" font-size="10.00" fill="#000000">Communication::acceptPreConnection</text>
</a>
</g>
</g>
<!-- Node239&#45;&gt;Node251 -->
<g id="edge12" class="edge">
<title>Node239&#45;&gt;Node251</title>
<path fill="none" stroke="#191970" d="M101.8657,-201.936C126.534,-195.7053 159.4534,-187.3906 188.704,-180.0026"/>
<polygon fill="#191970" stroke="#191970" points="189.6275,-183.3793 198.4659,-177.537 187.9132,-176.5925 189.6275,-183.3793"/>
</g>
<!-- Node252 -->
<g id="node14" class="node">
<title>Node252</title>
<g id="a_node14"><a xlink:href="classprecice_1_1m2n_1_1PointToPointCommunication.html#a74803c3982c4cec7cceb249694271576" target="_top" xlink:title="Receives an int per connected rank on remote participant [out] itemToReceive received ints from remot...">
<polygon fill="#ffffff" stroke="#000000" points="167.5,-.5 167.5,-30.5 348.5,-30.5 348.5,-.5 167.5,-.5"/>
<text text-anchor="start" x="175.5" y="-18.5" font-family="Helvetica,sans-Serif" font-size="10.00" fill="#000000">precice::m2n::PointToPoint</text>
<text text-anchor="middle" x="258" y="-7.5" font-family="Helvetica,sans-Serif" font-size="10.00" fill="#000000">Communication::broadcastReceiveAll</text>
</a>
</g>
</g>
<!-- Node239&#45;&gt;Node252 -->
<g id="edge15" class="edge">
<title>Node239&#45;&gt;Node252</title>
<path fill="none" stroke="#191970" d="M66.6691,-201.9157C75.3375,-172.631 105.5755,-83.6454 164,-39.5 165.8561,-38.0975 167.7856,-36.7765 169.7752,-35.5322"/>
<polygon fill="#191970" stroke="#191970" points="171.7607,-38.435 178.8416,-30.5539 168.3915,-32.2991 171.7607,-38.435"/>
</g>
<!-- Node243 -->
<g id="node5" class="node">
<title>Node243</title>
<g id="a_node5"><a xlink:href="classprecice_1_1utils_1_1ManageUniqueIDs.html#a02be264c279698ae293587b6576088b5" target="_top" xlink:title="precice::utils::ManageUnique\lIDs::getFreeID">
<polygon fill="#ffffff" stroke="#000000" points="389.5,-289.5 389.5,-319.5 532.5,-319.5 532.5,-289.5 389.5,-289.5"/>
<text text-anchor="start" x="397.5" y="-307.5" font-family="Helvetica,sans-Serif" font-size="10.00" fill="#000000">precice::utils::ManageUnique</text>
<text text-anchor="middle" x="461" y="-296.5" font-family="Helvetica,sans-Serif" font-size="10.00" fill="#000000">IDs::getFreeID</text>
</a>
</g>
</g>
<!-- Node242&#45;&gt;Node243 -->
<g id="edge4" class="edge">
<title>Node242&#45;&gt;Node243</title>
<path fill="none" stroke="#191970" d="M329.5702,-304.5C345.6404,-304.5 362.8099,-304.5 379.2592,-304.5"/>
<polygon fill="#191970" stroke="#191970" points="379.3919,-308.0001 389.3919,-304.5 379.3918,-301.0001 379.3919,-308.0001"/>
</g>
<!-- Node246 -->
<g id="node8" class="node">
<title>Node246</title>
<g id="a_node8"><a xlink:href="classprecice_1_1testing_1_1TestContext.html#a8fefcbe2f6def4d4cc9816d238b2797e" target="_top" xlink:title="Check wheater this context has a given rank inside the Partiticipant. ">
<polygon fill="#ffffff" stroke="#000000" points="389.5,-196.5 389.5,-226.5 532.5,-226.5 532.5,-196.5 389.5,-196.5"/>
<text text-anchor="start" x="397.5" y="-214.5" font-family="Helvetica,sans-Serif" font-size="10.00" fill="#000000">precice::testing::TestContext</text>
<text text-anchor="middle" x="461" y="-203.5" font-family="Helvetica,sans-Serif" font-size="10.00" fill="#000000">::isRank</text>
</a>
</g>
</g>
<!-- Node245&#45;&gt;Node246 -->
<g id="edge7" class="edge">
<title>Node245&#45;&gt;Node246</title>
<path fill="none" stroke="#191970" d="M329.5702,-211.5C345.6404,-211.5 362.8099,-211.5 379.2592,-211.5"/>
<polygon fill="#191970" stroke="#191970" points="379.3919,-215.0001 389.3919,-211.5 379.3918,-208.0001 379.3919,-215.0001"/>
</g>
<!-- Node248 -->
<g id="node10" class="node">
<title>Node248</title>
<g id="a_node10"><a xlink:href="classprecice_1_1m2n_1_1PointToPointCommunication.html#a3a8e2e7fc421ffb7a8a8e0730f875909" target="_top" xlink:title="Returns true, if a connection to a remote participant has been established. ">
<polygon fill="#ffffff" stroke="#000000" points="388,-147.5 388,-177.5 534,-177.5 534,-147.5 388,-147.5"/>
<text text-anchor="start" x="396" y="-165.5" font-family="Helvetica,sans-Serif" font-size="10.00" fill="#000000">precice::m2n::PointToPoint</text>
<text text-anchor="middle" x="461" y="-154.5" font-family="Helvetica,sans-Serif" font-size="10.00" fill="#000000">Communication::isConnected</text>
</a>
</g>
</g>
<!-- Node247&#45;&gt;Node248 -->
<g id="edge9" class="edge">
<title>Node247&#45;&gt;Node248</title>
<path fill="none" stroke="#191970" d="M320.2863,-128.5346C342.0125,-133.7789 366.5714,-139.7069 389.0201,-145.1255"/>
<polygon fill="#191970" stroke="#191970" points="388.2894,-148.5496 398.8315,-147.4938 389.932,-141.745 388.2894,-148.5496"/>
</g>
<!-- Node249 -->
<g id="node11" class="node">
<title>Node249</title>
<g id="a_node11"><a xlink:href="classprecice_1_1utils_1_1MasterSlave.html#af0deae7c83eae7f8e6908a2879bfb0e3" target="_top" xlink:title="Current rank. ">
<polygon fill="#ffffff" stroke="#000000" points="394.5,-98.5 394.5,-128.5 527.5,-128.5 527.5,-98.5 394.5,-98.5"/>
<text text-anchor="start" x="402.5" y="-116.5" font-family="Helvetica,sans-Serif" font-size="10.00" fill="#000000">precice::utils::MasterSlave</text>
<text text-anchor="middle" x="461" y="-105.5" font-family="Helvetica,sans-Serif" font-size="10.00" fill="#000000">::getRank</text>
</a>
</g>
</g>
<!-- Node247&#45;&gt;Node249 -->
<g id="edge10" class="edge">
<title>Node247&#45;&gt;Node249</title>
<path fill="none" stroke="#191970" d="M352.0718,-113.5C362.918,-113.5 373.8778,-113.5 384.4524,-113.5"/>
<polygon fill="#191970" stroke="#191970" points="384.4567,-117.0001 394.4566,-113.5 384.4566,-110.0001 384.4567,-117.0001"/>
</g>
<!-- Node251&#45;&gt;Node248 -->
<g id="edge13" class="edge">
<title>Node251&#45;&gt;Node248</title>
<path fill="none" stroke="#191970" d="M350.5893,-162.5C359.5332,-162.5 368.5701,-162.5 377.4193,-162.5"/>
<polygon fill="#191970" stroke="#191970" points="377.7045,-166.0001 387.7045,-162.5 377.7045,-159.0001 377.7045,-166.0001"/>
</g>
<!-- Node251&#45;&gt;Node249 -->
<g id="edge14" class="edge">
<title>Node251&#45;&gt;Node249</title>
<path fill="none" stroke="#191970" d="M320.2863,-147.4654C342.0125,-142.2211 366.5714,-136.2931 389.0201,-130.8745"/>
<polygon fill="#191970" stroke="#191970" points="389.932,-134.255 398.8315,-128.5062 388.2894,-127.4504 389.932,-134.255"/>
</g>
</g>
</svg>
