<?xml version="1.0" encoding="UTF-8" standalone="no"?>
<!DOCTYPE svg PUBLIC "-//W3C//DTD SVG 1.1//EN"
 "http://www.w3.org/Graphics/SVG/1.1/DTD/svg11.dtd">
<!-- Generated by graphviz version 2.40.1 (20161225.0304)
 -->
<!-- Title: src/acceleration/test/PreconditionerTest.cpp Pages: 1 -->
<!--zoomable 453 -->
<svg id="main" version="1.1" xmlns="http://www.w3.org/2000/svg" xmlns:xlink="http://www.w3.org/1999/xlink" xml:space="preserve" onload="init(evt)">
<style type="text/css"><![CDATA[
.edge:hover path { stroke: red; }
.edge:hover polygon { stroke: red; fill: red; }
]]></style>
<script type="text/javascript"><![CDATA[
var edges = document.getElementsByTagName('g');
if (edges && edges.length) {
  for (var i=0;i<edges.length;i++) {
    if (edges[i].id.substr(0,4)=='edge') {
      edges[i].setAttribute('class','edge');
    }
  }
}
]]></script>
        <defs>
                <circle id="rim" cx="0" cy="0" r="7"/>
                <circle id="rim2" cx="0" cy="0" r="3.5"/>
                <g id="zoomPlus">
                        <use xlink:href="#rim" fill="#404040">
                                <set attributeName="fill" to="#808080" begin="zoomplus.mouseover" end="zoomplus.mouseout"/>
                        </use>
                        <path d="M-4,0h8M0,-4v8" fill="none" stroke="white" stroke-width="1.5" pointer-events="none"/>
                </g>
                <g id="zoomMin">
                        <use xlink:href="#rim" fill="#404040">
                                <set attributeName="fill" to="#808080" begin="zoomminus.mouseover" end="zoomminus.mouseout"/>
                        </use>
                        <path d="M-4,0h8" fill="none" stroke="white" stroke-width="1.5" pointer-events="none"/>
                </g>
                <g id="dirArrow">
                        <path fill="none" stroke="white" stroke-width="1.5" d="M0,-3.0v7 M-2.5,-0.5L0,-3.0L2.5,-0.5"/>
                </g>
               <g id="resetDef">
                       <use xlink:href="#rim2" fill="#404040">
                               <set attributeName="fill" to="#808080" begin="reset.mouseover" end="reset.mouseout"/>
                       </use>
               </g>
        </defs>

<script type="text/javascript">
var viewWidth = 3332;
var viewHeight = 453;
var sectionId = 'dynsection-0';
</script>
<script xlink:href="svgpan.js"/>
<svg id="graph" class="graph">
<g id="viewport">
<title>src/acceleration/test/PreconditionerTest.cpp</title>
<polygon fill="#ffffff" stroke="transparent" points="-4,4 -4,-449 3327.9667,-449 3327.9667,4 -4,4"/>
<!-- Node0 -->
<g id="node1" class="node">
<title>Node0</title>
<polygon fill="#bfbfbf" stroke="#000000" points="1129.4667,-414.5 1129.4667,-444.5 1259.4667,-444.5 1259.4667,-414.5 1129.4667,-414.5"/>
<text text-anchor="start" x="1137.4667" y="-432.5" font-family="Helvetica,sans-Serif" font-size="10.00" fill="#000000">src/acceleration/test</text>
<text text-anchor="middle" x="1194.4667" y="-421.5" font-family="Helvetica,sans-Serif" font-size="10.00" fill="#000000">/PreconditionerTest.cpp</text>
</g>
<!-- Node1 -->
<g id="node2" class="node">
<title>Node1</title>
<polygon fill="#ffffff" stroke="#bfbfbf" points="837.9667,-179.5 837.9667,-198.5 906.9667,-198.5 906.9667,-179.5 837.9667,-179.5"/>
<text text-anchor="middle" x="872.4667" y="-186.5" font-family="Helvetica,sans-Serif" font-size="10.00" fill="#000000">Eigen/Core</text>
</g>
<!-- Node0&#45;&gt;Node1 -->
<g id="edge1" class="edge">
<title>Node0&#45;&gt;Node1</title>
<path fill="none" stroke="#191970" d="M1129.2191,-421.3589C1027.4741,-407.1745 838.4955,-374.3439 798.4667,-322 768.8293,-283.2446 820.4392,-231.2068 851.5142,-205.2072"/>
<polygon fill="#191970" stroke="#191970" points="854.0957,-207.6195 859.6499,-198.5972 849.6816,-202.1866 854.0957,-207.6195"/>
</g>
<!-- Node2 -->
<g id="node3" class="node">
<title>Node2</title>
<polygon fill="#ffffff" stroke="#bfbfbf" points="649.4667,-358.5 649.4667,-377.5 713.4667,-377.5 713.4667,-358.5 649.4667,-358.5"/>
<text text-anchor="middle" x="681.4667" y="-365.5" font-family="Helvetica,sans-Serif" font-size="10.00" fill="#000000">algorithm</text>
</g>
<!-- Node0&#45;&gt;Node2 -->
<g id="edge2" class="edge">
<title>Node0&#45;&gt;Node2</title>
<path fill="none" stroke="#191970" d="M1129.204,-424.4645C1038.6532,-416.9868 869.9527,-401.2791 727.4667,-378 726.1963,-377.7925 724.9082,-377.5726 723.6092,-377.3427"/>
<polygon fill="#191970" stroke="#191970" points="724.0348,-373.8608 713.5557,-375.4226 722.7215,-380.7365 724.0348,-373.8608"/>
</g>
<!-- Node3 -->
<g id="node4" class="node">
<title>Node3</title>
<polygon fill="#ffffff" stroke="#bfbfbf" points="174.4667,-235.5 174.4667,-254.5 230.4667,-254.5 230.4667,-235.5 174.4667,-235.5"/>
<text text-anchor="middle" x="202.4667" y="-242.5" font-family="Helvetica,sans-Serif" font-size="10.00" fill="#000000">stddef.h</text>
</g>
<!-- Node0&#45;&gt;Node3 -->
<g id="edge3" class="edge">
<title>Node0&#45;&gt;Node3</title>
<path fill="none" stroke="#191970" d="M1129.4626,-427.7067C1025.3398,-423.8859 815.1133,-412.2675 640.4667,-378 487.0379,-347.8956 310.7353,-285.5072 237.3409,-258.2391"/>
<polygon fill="#191970" stroke="#191970" points="238.2733,-254.8513 227.6807,-254.6316 235.8243,-261.4089 238.2733,-254.8513"/>
</g>
<!-- Node4 -->
<g id="node5" class="node">
<title>Node4</title>
<polygon fill="#ffffff" stroke="#bfbfbf" points="2507.9667,-56.5 2507.9667,-75.5 2554.9667,-75.5 2554.9667,-56.5 2507.9667,-56.5"/>
<text text-anchor="middle" x="2531.4667" y="-63.5" font-family="Helvetica,sans-Serif" font-size="10.00" fill="#000000">vector</text>
</g>
<!-- Node0&#45;&gt;Node4 -->
<g id="edge4" class="edge">
<title>Node0&#45;&gt;Node4</title>
<path fill="none" stroke="#191970" d="M1259.8367,-424.95C1358.4672,-417.6479 1551.069,-401.686 1713.4667,-378 1843.3623,-359.0545 1875.7989,-352.541 2003.4667,-322 2108.6772,-296.8313 2139.3837,-300.6339 2237.4667,-255 2292.3425,-229.4686 2294.8631,-202.905 2350.4667,-179 2417.8278,-150.0401 2458.7423,-193.9543 2511.4667,-143 2526.783,-128.1978 2530.9039,-103.286 2531.7595,-85.8168"/>
<polygon fill="#191970" stroke="#191970" points="2535.2628,-85.6516 2531.9351,-75.5929 2528.2638,-85.5313 2535.2628,-85.6516"/>
</g>
<!-- Node5 -->
<g id="node6" class="node">
<title>Node5</title>
<g id="a_node6"><a xlink:href="ConstantPreconditioner_8hpp.html" target="_top" xlink:title="acceleration/impl/Constant\lPreconditioner.hpp">
<polygon fill="#ffffff" stroke="#000000" points="603.4667,-291.5 603.4667,-321.5 751.4667,-321.5 751.4667,-291.5 603.4667,-291.5"/>
<text text-anchor="start" x="611.4667" y="-309.5" font-family="Helvetica,sans-Serif" font-size="10.00" fill="#000000">acceleration/impl/Constant</text>
<text text-anchor="middle" x="677.4667" y="-298.5" font-family="Helvetica,sans-Serif" font-size="10.00" fill="#000000">Preconditioner.hpp</text>
</a>
</g>
</g>
<!-- Node0&#45;&gt;Node5 -->
<g id="edge5" class="edge">
<title>Node0&#45;&gt;Node5</title>
<path fill="none" stroke="#191970" d="M1129.3551,-426.1114C1025.9993,-419.995 829.5256,-405.1513 765.4667,-378 739.2192,-366.875 714.5064,-345.4554 697.9918,-328.9488"/>
<polygon fill="#191970" stroke="#191970" points="700.486,-326.4934 691.0048,-321.7651 695.468,-331.3739 700.486,-326.4934"/>
</g>
<!-- Node7 -->
<g id="node8" class="node">
<title>Node7</title>
<g id="a_node8"><a xlink:href="Preconditioner_8hpp.html" target="_top" xlink:title="acceleration/impl/Preconditioner.hpp">
<polygon fill="#ffffff" stroke="#000000" points="1286.9667,-235.5 1286.9667,-254.5 1481.9667,-254.5 1481.9667,-235.5 1286.9667,-235.5"/>
<text text-anchor="middle" x="1384.4667" y="-242.5" font-family="Helvetica,sans-Serif" font-size="10.00" fill="#000000">acceleration/impl/Preconditioner.hpp</text>
</a>
</g>
</g>
<!-- Node0&#45;&gt;Node7 -->
<g id="edge52" class="edge">
<title>Node0&#45;&gt;Node7</title>
<path fill="none" stroke="#191970" d="M1259.6802,-415.4186C1308.9154,-400.9968 1373.1635,-373.1904 1404.4667,-322 1415.5496,-303.876 1406.0946,-279.7342 1396.7805,-263.3486"/>
<polygon fill="#191970" stroke="#191970" points="1399.6853,-261.3904 1391.4691,-254.7014 1393.7207,-265.0542 1399.6853,-261.3904"/>
</g>
<!-- Node8 -->
<g id="node9" class="node">
<title>Node8</title>
<g id="a_node9"><a xlink:href="cplscheme_2SharedPointer_8hpp.html" target="_top" xlink:title="cplscheme/SharedPointer.hpp">
<polygon fill="#ffffff" stroke="#000000" points="2372.9667,-179.5 2372.9667,-198.5 2533.9667,-198.5 2533.9667,-179.5 2372.9667,-179.5"/>
<text text-anchor="middle" x="2453.4667" y="-186.5" font-family="Helvetica,sans-Serif" font-size="10.00" fill="#000000">cplscheme/SharedPointer.hpp</text>
</a>
</g>
</g>
<!-- Node0&#45;&gt;Node8 -->
<g id="edge70" class="edge">
<title>Node0&#45;&gt;Node8</title>
<path fill="none" stroke="#191970" d="M1259.5813,-428.8393C1466.1808,-426.3736 2105.2765,-415.8092 2308.4667,-378 2421.6622,-356.9368 2495.35,-362.5468 2536.4667,-255 2539.641,-246.6972 2540.9784,-242.6588 2536.4667,-235 2527.6721,-220.071 2512.095,-209.6447 2496.7925,-202.541"/>
<polygon fill="#191970" stroke="#191970" points="2497.9357,-199.224 2487.3632,-198.5368 2495.1996,-205.6672 2497.9357,-199.224"/>
</g>
<!-- Node31 -->
<g id="node31" class="node">
<title>Node31</title>
<g id="a_node31"><a xlink:href="ResidualPreconditioner_8hpp.html" target="_top" xlink:title="acceleration/impl/Residual\lPreconditioner.hpp">
<polygon fill="#ffffff" stroke="#000000" points="971.4667,-291.5 971.4667,-321.5 1117.4667,-321.5 1117.4667,-291.5 971.4667,-291.5"/>
<text text-anchor="start" x="979.4667" y="-309.5" font-family="Helvetica,sans-Serif" font-size="10.00" fill="#000000">acceleration/impl/Residual</text>
<text text-anchor="middle" x="1044.4667" y="-298.5" font-family="Helvetica,sans-Serif" font-size="10.00" fill="#000000">Preconditioner.hpp</text>
</a>
</g>
</g>
<!-- Node0&#45;&gt;Node31 -->
<g id="edge53" class="edge">
<title>Node0&#45;&gt;Node31</title>
<path fill="none" stroke="#191970" d="M1176.0737,-414.4178C1149.7587,-392.8395 1101.2157,-353.0342 1071.0097,-328.2653"/>
<polygon fill="#191970" stroke="#191970" points="1072.9621,-325.34 1063.0101,-321.7056 1068.5235,-330.7529 1072.9621,-325.34"/>
</g>
<!-- Node32 -->
<g id="node32" class="node">
<title>Node32</title>
<g id="a_node32"><a xlink:href="ResidualSumPreconditioner_8hpp.html" target="_top" xlink:title="acceleration/impl/Residual\lSumPreconditioner.hpp">
<polygon fill="#ffffff" stroke="#000000" points="807.4667,-291.5 807.4667,-321.5 953.4667,-321.5 953.4667,-291.5 807.4667,-291.5"/>
<text text-anchor="start" x="815.4667" y="-309.5" font-family="Helvetica,sans-Serif" font-size="10.00" fill="#000000">acceleration/impl/Residual</text>
<text text-anchor="middle" x="880.4667" y="-298.5" font-family="Helvetica,sans-Serif" font-size="10.00" fill="#000000">SumPreconditioner.hpp</text>
</a>
</g>
</g>
<!-- Node0&#45;&gt;Node32 -->
<g id="edge58" class="edge">
<title>Node0&#45;&gt;Node32</title>
<path fill="none" stroke="#191970" d="M1155.9641,-414.4178C1098.6039,-391.9487 990.7918,-349.7165 928.4012,-325.2769"/>
<polygon fill="#191970" stroke="#191970" points="929.3802,-321.9015 918.7925,-321.513 926.8271,-328.4193 929.3802,-321.9015"/>
</g>
<!-- Node33 -->
<g id="node33" class="node">
<title>Node33</title>
<g id="a_node33"><a xlink:href="ValuePreconditioner_8hpp.html" target="_top" xlink:title="acceleration/impl/ValuePreconditioner.hpp">
<polygon fill="#ffffff" stroke="#000000" points="1173.4667,-297 1173.4667,-316 1395.4667,-316 1395.4667,-297 1173.4667,-297"/>
<text text-anchor="middle" x="1284.4667" y="-304" font-family="Helvetica,sans-Serif" font-size="10.00" fill="#000000">acceleration/impl/ValuePreconditioner.hpp</text>
</a>
</g>
</g>
<!-- Node0&#45;&gt;Node33 -->
<g id="edge65" class="edge">
<title>Node0&#45;&gt;Node33</title>
<path fill="none" stroke="#191970" d="M1205.5024,-414.4178C1222.151,-391.6648 1253.628,-348.6461 1271.3991,-324.3591"/>
<polygon fill="#191970" stroke="#191970" points="1274.3989,-326.1864 1277.4794,-316.0493 1268.7497,-322.0528 1274.3989,-326.1864"/>
</g>
<!-- Node34 -->
<g id="node34" class="node">
<title>Node34</title>
<g id="a_node34"><a xlink:href="TestContext_8hpp.html" target="_top" xlink:title="testing/TestContext.hpp">
<polygon fill="#ffffff" stroke="#000000" points="2335.4667,-297 2335.4667,-316 2467.4667,-316 2467.4667,-297 2335.4667,-297"/>
<text text-anchor="middle" x="2401.4667" y="-304" font-family="Helvetica,sans-Serif" font-size="10.00" fill="#000000">testing/TestContext.hpp</text>
</a>
</g>
</g>
<!-- Node0&#45;&gt;Node34 -->
<g id="edge71" class="edge">
<title>Node0&#45;&gt;Node34</title>
<path fill="none" stroke="#191970" d="M1259.8328,-428.0773C1478.1036,-423.0909 2173.5172,-405.2202 2270.4667,-378 2312.2349,-366.2729 2355.4057,-339.2994 2380.2765,-322.0402"/>
<polygon fill="#191970" stroke="#191970" points="2382.4343,-324.801 2388.575,-316.1672 2378.3905,-319.0871 2382.4343,-324.801"/>
</g>
<!-- Node63 -->
<g id="node45" class="node">
<title>Node63</title>
<g id="a_node45"><a xlink:href="Testing_8hpp.html" target="_top" xlink:title="testing/Testing.hpp">
<polygon fill="#ffffff" stroke="#000000" points="1594.9667,-358.5 1594.9667,-377.5 1703.9667,-377.5 1703.9667,-358.5 1594.9667,-358.5"/>
<text text-anchor="middle" x="1649.4667" y="-365.5" font-family="Helvetica,sans-Serif" font-size="10.00" fill="#000000">testing/Testing.hpp</text>
</a>
</g>
</g>
<!-- Node0&#45;&gt;Node63 -->
<g id="edge99" class="edge">
<title>Node0&#45;&gt;Node63</title>
<path fill="none" stroke="#191970" d="M1259.6571,-420.6885C1346.2856,-408.9794 1498.4299,-388.4149 1584.7956,-376.7413"/>
<polygon fill="#191970" stroke="#191970" points="1585.2958,-380.2056 1594.7368,-375.3976 1584.3581,-373.2686 1585.2958,-380.2056"/>
</g>
<!-- Node5&#45;&gt;Node1 -->
<g id="edge6" class="edge">
<title>Node5&#45;&gt;Node1</title>
<path fill="none" stroke="#191970" d="M693.3121,-291.3369C710.1906,-275.7564 738.1832,-251.5095 765.4667,-235 787.4203,-221.7156 813.9018,-210.2981 835.0274,-202.161"/>
<polygon fill="#191970" stroke="#191970" points="836.4975,-205.3474 844.6221,-198.5473 834.0302,-198.7966 836.4975,-205.3474"/>
</g>
<!-- Node5&#45;&gt;Node3 -->
<g id="edge7" class="edge">
<title>Node5&#45;&gt;Node3</title>
<path fill="none" stroke="#191970" d="M603.1489,-300.2892C516.5915,-292.4489 369.496,-277.2433 244.4667,-255 243.2214,-254.7785 241.9577,-254.5427 240.6836,-254.2955"/>
<polygon fill="#191970" stroke="#191970" points="241.3467,-250.8584 230.8403,-252.2243 239.9053,-257.7084 241.3467,-250.8584"/>
</g>
<!-- Node5&#45;&gt;Node4 -->
<g id="edge9" class="edge">
<title>Node5&#45;&gt;Node4</title>
<path fill="none" stroke="#191970" d="M751.8492,-296.6781C865.2906,-281.9191 1088.4142,-253.7559 1278.4667,-235 1341.6436,-228.7652 2359.4326,-168.7341 2417.4667,-143 2435.8623,-134.8428 2434.27,-123.9418 2450.4667,-112 2466.897,-99.886 2486.8174,-88.5346 2502.7916,-80.139"/>
<polygon fill="#191970" stroke="#191970" points="2504.4004,-83.2474 2511.6847,-75.5539 2501.1926,-77.0256 2504.4004,-83.2474"/>
</g>
<!-- Node6 -->
<g id="node7" class="node">
<title>Node6</title>
<polygon fill="#ffffff" stroke="#bfbfbf" points="183.4667,-.5 183.4667,-19.5 227.4667,-19.5 227.4667,-.5 183.4667,-.5"/>
<text text-anchor="middle" x="205.4667" y="-7.5" font-family="Helvetica,sans-Serif" font-size="10.00" fill="#000000">string</text>
</g>
<!-- Node5&#45;&gt;Node6 -->
<g id="edge8" class="edge">
<title>Node5&#45;&gt;Node6</title>
<path fill="none" stroke="#191970" d="M603.2755,-305.3049C480.4012,-302.2933 240.7275,-291.7492 165.4667,-255 67.1309,-206.9835 -46.9344,-142.2126 20.4667,-56 39.0861,-32.184 125.3402,-18.9337 173.2181,-13.2975"/>
<polygon fill="#191970" stroke="#191970" points="173.8337,-16.7503 183.3768,-12.1481 173.0467,-9.7947 173.8337,-16.7503"/>
</g>
<!-- Node5&#45;&gt;Node7 -->
<g id="edge10" class="edge">
<title>Node5&#45;&gt;Node7</title>
<path fill="none" stroke="#191970" d="M751.6293,-296.4154C767.0914,-294.477 783.2987,-292.5659 798.4667,-291 965.1595,-273.7913 1159.1209,-259.7323 1276.7781,-251.8631"/>
<polygon fill="#191970" stroke="#191970" points="1277.1235,-255.3479 1286.8687,-251.1909 1276.6582,-248.3634 1277.1235,-255.3479"/>
</g>
<!-- Node18 -->
<g id="node19" class="node">
<title>Node18</title>
<g id="a_node19"><a xlink:href="Logger_8hpp.html" target="_top" xlink:title="Logger.hpp">
<polygon fill="#ffffff" stroke="#000000" points="2100.4667,-56.5 2100.4667,-75.5 2170.4667,-75.5 2170.4667,-56.5 2100.4667,-56.5"/>
<text text-anchor="middle" x="2135.4667" y="-63.5" font-family="Helvetica,sans-Serif" font-size="10.00" fill="#000000">Logger.hpp</text>
</a>
</g>
</g>
<!-- Node5&#45;&gt;Node18 -->
<g id="edge51" class="edge">
<title>Node5&#45;&gt;Node18</title>
<path fill="none" stroke="#191970" d="M616.4796,-291.4434C510.001,-262.5446 308.8504,-194.7682 389.4667,-112 404.7504,-96.3084 1816.0595,-71.4483 2089.7786,-66.7719"/>
<polygon fill="#191970" stroke="#191970" points="2090.195,-70.2654 2100.1339,-66.5954 2090.0756,-63.2664 2090.195,-70.2654"/>
</g>
<!-- Node7&#45;&gt;Node1 -->
<g id="edge11" class="edge">
<title>Node7&#45;&gt;Node1</title>
<path fill="none" stroke="#191970" d="M1294.9019,-235.4801C1208.879,-226.2955 1075.2665,-211.9218 959.4667,-199 945.7403,-197.4683 930.8004,-195.7644 917.2366,-194.2035"/>
<polygon fill="#191970" stroke="#191970" points="917.5107,-190.712 907.1755,-193.0429 916.7085,-197.6658 917.5107,-190.712"/>
</g>
<!-- Node7&#45;&gt;Node4 -->
<g id="edge12" class="edge">
<title>Node7&#45;&gt;Node4</title>
<path fill="none" stroke="#191970" d="M1482.0675,-235.6653C1484.8978,-235.4354 1487.7022,-235.213 1490.4667,-235 1757.7082,-214.4098 1827.2117,-237.4936 2092.4667,-199 2131.3021,-193.3642 2139.8588,-186.0272 2178.4667,-179 2298.4387,-157.1635 2340.4435,-195.5836 2450.4667,-143 2479.0506,-129.3388 2504.1236,-101.7799 2518.536,-83.6092"/>
<polygon fill="#191970" stroke="#191970" points="2521.4128,-85.6095 2524.7235,-75.5452 2515.8592,-81.3482 2521.4128,-85.6095"/>
</g>
<!-- Node7&#45;&gt;Node8 -->
<g id="edge13" class="edge">
<title>Node7&#45;&gt;Node8</title>
<path fill="none" stroke="#191970" d="M1482.0643,-235.6212C1484.8954,-235.4041 1487.701,-235.1964 1490.4667,-235 1810.7435,-212.2555 2191.7628,-197.7682 2362.652,-191.9345"/>
<polygon fill="#191970" stroke="#191970" points="2362.9842,-195.4254 2372.8596,-191.5878 2362.7466,-188.4294 2362.9842,-195.4254"/>
</g>
<!-- Node10 -->
<g id="node11" class="node">
<title>Node10</title>
<g id="a_node11"><a xlink:href="LogMacros_8hpp.html" target="_top" xlink:title="logging/LogMacros.hpp">
<polygon fill="#ffffff" stroke="#000000" points="1001.4667,-179.5 1001.4667,-198.5 1129.4667,-198.5 1129.4667,-179.5 1001.4667,-179.5"/>
<text text-anchor="middle" x="1065.4667" y="-186.5" font-family="Helvetica,sans-Serif" font-size="10.00" fill="#000000">logging/LogMacros.hpp</text>
</a>
</g>
</g>
<!-- Node7&#45;&gt;Node10 -->
<g id="edge15" class="edge">
<title>Node7&#45;&gt;Node10</title>
<path fill="none" stroke="#191970" d="M1329.9911,-235.4369C1274.4791,-225.6918 1188.4138,-210.5832 1129.6339,-200.2645"/>
<polygon fill="#191970" stroke="#191970" points="1130.1722,-196.8055 1119.7176,-198.5237 1128.9618,-203.7001 1130.1722,-196.8055"/>
</g>
<!-- Node7&#45;&gt;Node18 -->
<g id="edge32" class="edge">
<title>Node7&#45;&gt;Node18</title>
<path fill="none" stroke="#191970" d="M1481.1288,-235.4599C1586.0247,-224.934 1746.6709,-208.2612 1807.4667,-199 1871.2749,-189.2799 2040.2279,-180.9089 2092.4667,-143 2111.9538,-128.8585 2123.7253,-103.036 2129.9071,-85.2191"/>
<polygon fill="#191970" stroke="#191970" points="2133.2807,-86.1601 2132.9851,-75.5694 2126.6117,-84.0329 2133.2807,-86.1601"/>
</g>
<!-- Node22 -->
<g id="node23" class="node">
<title>Node22</title>
<g id="a_node23"><a xlink:href="assertion_8hpp.html" target="_top" xlink:title="utils/assertion.hpp">
<polygon fill="#ffffff" stroke="#000000" points="1505.9667,-179.5 1505.9667,-198.5 1612.9667,-198.5 1612.9667,-179.5 1505.9667,-179.5"/>
<text text-anchor="middle" x="1559.4667" y="-186.5" font-family="Helvetica,sans-Serif" font-size="10.00" fill="#000000">utils/assertion.hpp</text>
</a>
</g>
</g>
<!-- Node7&#45;&gt;Node22 -->
<g id="edge33" class="edge">
<title>Node7&#45;&gt;Node22</title>
<path fill="none" stroke="#191970" d="M1414.5502,-235.3733C1443.6501,-226.0613 1487.919,-211.8953 1519.8697,-201.671"/>
<polygon fill="#191970" stroke="#191970" points="1521.3182,-204.8824 1529.7757,-198.5011 1519.1847,-198.2155 1521.3182,-204.8824"/>
</g>
<!-- Node9 -->
<g id="node10" class="node">
<title>Node9</title>
<polygon fill="#ffffff" stroke="#bfbfbf" points="2842.4667,-.5 2842.4667,-19.5 2900.4667,-19.5 2900.4667,-.5 2842.4667,-.5"/>
<text text-anchor="middle" x="2871.4667" y="-7.5" font-family="Helvetica,sans-Serif" font-size="10.00" fill="#000000">memory</text>
</g>
<!-- Node8&#45;&gt;Node9 -->
<g id="edge14" class="edge">
<title>Node8&#45;&gt;Node9</title>
<path fill="none" stroke="#191970" d="M2490.1588,-179.4375C2520.6678,-171.0689 2564.9955,-157.9365 2602.4667,-143 2694.6024,-106.2736 2798.4737,-50.6148 2845.6679,-24.4954"/>
<polygon fill="#191970" stroke="#191970" points="2847.5533,-27.4517 2854.5926,-19.5335 2844.1518,-21.3337 2847.5533,-27.4517"/>
</g>
<!-- Node10&#45;&gt;Node6 -->
<g id="edge22" class="edge">
<title>Node10&#45;&gt;Node6</title>
<path fill="none" stroke="#191970" d="M1001.2372,-180.3563C996.5816,-179.8554 991.9546,-179.3956 987.4667,-179 905.023,-171.732 308.3167,-194.4223 243.4667,-143 209.0955,-115.7457 204.4274,-59.6711 204.5734,-29.7805"/>
<polygon fill="#191970" stroke="#191970" points="208.0738,-29.8019 204.8132,-19.7213 201.0758,-29.635 208.0738,-29.8019"/>
</g>
<!-- Node11 -->
<g id="node12" class="node">
<title>Node11</title>
<polygon fill="#ffffff" stroke="#bfbfbf" points="1272.4667,-112.5 1272.4667,-142.5 1382.4667,-142.5 1382.4667,-112.5 1272.4667,-112.5"/>
<text text-anchor="start" x="1280.4667" y="-130.5" font-family="Helvetica,sans-Serif" font-size="10.00" fill="#000000">boost/preprocessor</text>
<text text-anchor="middle" x="1327.4667" y="-119.5" font-family="Helvetica,sans-Serif" font-size="10.00" fill="#000000">/control/if.hpp</text>
</g>
<!-- Node10&#45;&gt;Node11 -->
<g id="edge16" class="edge">
<title>Node10&#45;&gt;Node11</title>
<path fill="none" stroke="#191970" d="M1107.211,-179.421C1145.1863,-170.6801 1203.0526,-157.2948 1262.3952,-143.2435"/>
<polygon fill="#191970" stroke="#191970" points="1263.3937,-146.6038 1272.3165,-140.8913 1261.7788,-139.7926 1263.3937,-146.6038"/>
</g>
<!-- Node12 -->
<g id="node13" class="node">
<title>Node12</title>
<polygon fill="#ffffff" stroke="#bfbfbf" points="560.4667,-112.5 560.4667,-142.5 676.4667,-142.5 676.4667,-112.5 560.4667,-112.5"/>
<text text-anchor="start" x="568.4667" y="-130.5" font-family="Helvetica,sans-Serif" font-size="10.00" fill="#000000">boost/preprocessor</text>
<text text-anchor="middle" x="618.4667" y="-119.5" font-family="Helvetica,sans-Serif" font-size="10.00" fill="#000000">/facilities/empty.hpp</text>
</g>
<!-- Node10&#45;&gt;Node12 -->
<g id="edge17" class="edge">
<title>Node10&#45;&gt;Node12</title>
<path fill="none" stroke="#191970" d="M1001.1993,-180.7148C996.5525,-180.1298 991.9379,-179.5531 987.4667,-179 856.5918,-162.8104 820.3749,-166.0913 686.7133,-143.1061"/>
<polygon fill="#191970" stroke="#191970" points="686.9441,-139.5938 676.4926,-141.3304 685.7459,-146.4905 686.9441,-139.5938"/>
</g>
<!-- Node13 -->
<g id="node14" class="node">
<title>Node13</title>
<polygon fill="#ffffff" stroke="#bfbfbf" points="1400.9667,-112.5 1400.9667,-142.5 1511.9667,-142.5 1511.9667,-112.5 1400.9667,-112.5"/>
<text text-anchor="start" x="1408.9667" y="-130.5" font-family="Helvetica,sans-Serif" font-size="10.00" fill="#000000">boost/preprocessor</text>
<text text-anchor="middle" x="1456.4667" y="-119.5" font-family="Helvetica,sans-Serif" font-size="10.00" fill="#000000">/seq/for_each_i.hpp</text>
</g>
<!-- Node10&#45;&gt;Node13 -->
<g id="edge18" class="edge">
<title>Node10&#45;&gt;Node13</title>
<path fill="none" stroke="#191970" d="M1129.4737,-181.7705C1193.2298,-174.162 1294.0784,-161.0291 1390.9105,-142.9955"/>
<polygon fill="#191970" stroke="#191970" points="1391.6915,-146.4101 1400.8713,-141.1202 1390.3963,-139.5309 1391.6915,-146.4101"/>
</g>
<!-- Node14 -->
<g id="node15" class="node">
<title>Node14</title>
<polygon fill="#ffffff" stroke="#bfbfbf" points="1010.4667,-112.5 1010.4667,-142.5 1120.4667,-142.5 1120.4667,-112.5 1010.4667,-112.5"/>
<text text-anchor="start" x="1018.4667" y="-130.5" font-family="Helvetica,sans-Serif" font-size="10.00" fill="#000000">boost/preprocessor</text>
<text text-anchor="middle" x="1065.4667" y="-119.5" font-family="Helvetica,sans-Serif" font-size="10.00" fill="#000000">/stringize.hpp</text>
</g>
<!-- Node10&#45;&gt;Node14 -->
<g id="edge19" class="edge">
<title>Node10&#45;&gt;Node14</title>
<path fill="none" stroke="#191970" d="M1065.4667,-179.3906C1065.4667,-172.2234 1065.4667,-162.0862 1065.4667,-152.671"/>
<polygon fill="#191970" stroke="#191970" points="1068.9668,-152.5446 1065.4667,-142.5446 1061.9668,-152.5446 1068.9668,-152.5446"/>
</g>
<!-- Node15 -->
<g id="node16" class="node">
<title>Node15</title>
<polygon fill="#ffffff" stroke="#bfbfbf" points="1138.9667,-112.5 1138.9667,-142.5 1253.9667,-142.5 1253.9667,-112.5 1138.9667,-112.5"/>
<text text-anchor="start" x="1146.9667" y="-130.5" font-family="Helvetica,sans-Serif" font-size="10.00" fill="#000000">boost/preprocessor</text>
<text text-anchor="middle" x="1196.4667" y="-119.5" font-family="Helvetica,sans-Serif" font-size="10.00" fill="#000000">/variadic/to_seq.hpp</text>
</g>
<!-- Node10&#45;&gt;Node15 -->
<g id="edge20" class="edge">
<title>Node10&#45;&gt;Node15</title>
<path fill="none" stroke="#191970" d="M1085.9354,-179.3906C1104.4034,-170.7205 1132.1285,-157.7046 1155.1902,-146.8779"/>
<polygon fill="#191970" stroke="#191970" points="1156.8558,-149.9625 1164.4205,-142.5446 1153.881,-143.6261 1156.8558,-149.9625"/>
</g>
<!-- Node16 -->
<g id="node17" class="node">
<title>Node16</title>
<polygon fill="#ffffff" stroke="#bfbfbf" points="694.4667,-118 694.4667,-137 830.4667,-137 830.4667,-118 694.4667,-118"/>
<text text-anchor="middle" x="762.4667" y="-125" font-family="Helvetica,sans-Serif" font-size="10.00" fill="#000000">boost/vmd/is_empty.hpp</text>
</g>
<!-- Node10&#45;&gt;Node16 -->
<g id="edge21" class="edge">
<title>Node10&#45;&gt;Node16</title>
<path fill="none" stroke="#191970" d="M1018.4554,-179.4581C964.8265,-168.573 877.1391,-150.7751 819.6105,-139.0985"/>
<polygon fill="#191970" stroke="#191970" points="820.0847,-135.6234 809.5883,-137.0643 818.6922,-142.4836 820.0847,-135.6234"/>
</g>
<!-- Node17 -->
<g id="node18" class="node">
<title>Node17</title>
<g id="a_node18"><a xlink:href="Tracer_8hpp.html" target="_top" xlink:title="logging/Tracer.hpp">
<polygon fill="#ffffff" stroke="#000000" points="848.9667,-118 848.9667,-137 953.9667,-137 953.9667,-118 848.9667,-118"/>
<text text-anchor="middle" x="901.4667" y="-125" font-family="Helvetica,sans-Serif" font-size="10.00" fill="#000000">logging/Tracer.hpp</text>
</a>
</g>
</g>
<!-- Node10&#45;&gt;Node17 -->
<g id="edge23" class="edge">
<title>Node10&#45;&gt;Node17</title>
<path fill="none" stroke="#191970" d="M1039.8417,-179.3906C1012.0404,-168.9652 967.4823,-152.2559 936.4673,-140.6252"/>
<polygon fill="#191970" stroke="#191970" points="937.504,-137.276 926.9117,-137.0419 935.0461,-143.8303 937.504,-137.276"/>
</g>
<!-- Node19 -->
<g id="node20" class="node">
<title>Node19</title>
<polygon fill="#ffffff" stroke="#bfbfbf" points="398.4667,-118 398.4667,-137 542.4667,-137 542.4667,-118 398.4667,-118"/>
<text text-anchor="middle" x="470.4667" y="-125" font-family="Helvetica,sans-Serif" font-size="10.00" fill="#000000">prettyprint/prettyprint.hpp</text>
</g>
<!-- Node10&#45;&gt;Node19 -->
<g id="edge28" class="edge">
<title>Node10&#45;&gt;Node19</title>
<path fill="none" stroke="#191970" d="M1001.2204,-180.53C996.5687,-179.9884 991.9472,-179.4719 987.4667,-179 794.0992,-158.6321 744.1157,-169.3095 551.4667,-143 543.1058,-141.8582 534.3014,-140.4206 525.7009,-138.8839"/>
<polygon fill="#191970" stroke="#191970" points="526.206,-135.4181 515.7371,-137.0462 524.9364,-142.302 526.206,-135.4181"/>
</g>
<!-- Node20 -->
<g id="node21" class="node">
<title>Node20</title>
<g id="a_node21"><a xlink:href="String_8hpp.html" target="_top" xlink:title="utils/String.hpp">
<polygon fill="#ffffff" stroke="#000000" points="252.4667,-118 252.4667,-137 342.4667,-137 342.4667,-118 252.4667,-118"/>
<text text-anchor="middle" x="297.4667" y="-125" font-family="Helvetica,sans-Serif" font-size="10.00" fill="#000000">utils/String.hpp</text>
</a>
</g>
</g>
<!-- Node10&#45;&gt;Node20 -->
<g id="edge29" class="edge">
<title>Node10&#45;&gt;Node20</title>
<path fill="none" stroke="#191970" d="M1001.2317,-180.4165C996.5774,-179.9015 991.9522,-179.4221 987.4667,-179 722.3787,-154.0565 654.0119,-173.1607 389.4667,-143 377.5226,-141.6383 364.7713,-139.7633 352.6848,-137.7872"/>
<polygon fill="#191970" stroke="#191970" points="353.1627,-134.3185 342.7208,-136.1124 352.0024,-141.2216 353.1627,-134.3185"/>
</g>
<!-- Node17&#45;&gt;Node18 -->
<g id="edge24" class="edge">
<title>Node17&#45;&gt;Node18</title>
<path fill="none" stroke="#191970" d="M937.0523,-117.9596C947.1362,-115.6138 958.1719,-113.3812 968.4667,-112 1191.2157,-82.1145 1903.2879,-69.4936 2090.1878,-66.6471"/>
<polygon fill="#191970" stroke="#191970" points="2090.272,-70.1463 2100.2181,-66.4961 2090.1665,-63.1471 2090.272,-70.1463"/>
</g>
<!-- Node18&#45;&gt;Node6 -->
<g id="edge26" class="edge">
<title>Node18&#45;&gt;Node6</title>
<path fill="none" stroke="#191970" d="M2100.3204,-64.9802C1860.5561,-58.0233 468.3466,-17.6276 237.8022,-10.9382"/>
<polygon fill="#191970" stroke="#191970" points="237.8085,-7.437 227.7112,-10.6454 237.6055,-14.4341 237.8085,-7.437"/>
</g>
<!-- Node18&#45;&gt;Node9 -->
<g id="edge25" class="edge">
<title>Node18&#45;&gt;Node9</title>
<path fill="none" stroke="#191970" d="M2170.4703,-63.3367C2293.148,-54.0025 2703.1636,-22.8057 2832.2225,-12.986"/>
<polygon fill="#191970" stroke="#191970" points="2832.7227,-16.4581 2842.4283,-12.2094 2832.1915,-9.4783 2832.7227,-16.4581"/>
</g>
<!-- Node18&#45;&gt;Node10 -->
<g id="edge27" class="edge">
<title>Node18&#45;&gt;Node10</title>
<path fill="none" stroke="#191970" d="M2100.3703,-66.0731C1913.2943,-66.6307 1040.4469,-71.4065 1001.4667,-112 991.9238,-121.9378 995.1803,-130.74 1001.4667,-143 1008.3997,-156.5211 1021.3603,-166.9674 1033.8148,-174.4623"/>
<polygon fill="#191970" stroke="#191970" points="1032.2594,-177.6021 1042.7007,-179.3999 1035.6595,-171.4832 1032.2594,-177.6021"/>
</g>
<!-- Node20&#45;&gt;Node6 -->
<g id="edge31" class="edge">
<title>Node20&#45;&gt;Node6</title>
<path fill="none" stroke="#191970" d="M289.9379,-117.8845C274.5058,-98.1749 239.0822,-52.9328 219.3615,-27.7461"/>
<polygon fill="#191970" stroke="#191970" points="222.0202,-25.4643 213.0995,-19.7484 216.5086,-29.7798 222.0202,-25.4643"/>
</g>
<!-- Node21 -->
<g id="node22" class="node">
<title>Node21</title>
<polygon fill="#ffffff" stroke="#bfbfbf" points="596.4667,-56.5 596.4667,-75.5 652.4667,-75.5 652.4667,-56.5 596.4667,-56.5"/>
<text text-anchor="middle" x="624.4667" y="-63.5" font-family="Helvetica,sans-Serif" font-size="10.00" fill="#000000">sstream</text>
</g>
<!-- Node20&#45;&gt;Node21 -->
<g id="edge30" class="edge">
<title>Node20&#45;&gt;Node21</title>
<path fill="none" stroke="#191970" d="M331.6634,-117.9779C339.7626,-115.8723 348.3934,-113.7499 356.4667,-112 437.6135,-94.4116 533.761,-79.2779 585.9935,-71.5281"/>
<polygon fill="#191970" stroke="#191970" points="586.761,-74.9529 596.1443,-70.0332 585.741,-68.0276 586.761,-74.9529"/>
</g>
<!-- Node22&#45;&gt;Node11 -->
<g id="edge38" class="edge">
<title>Node22&#45;&gt;Node11</title>
<path fill="none" stroke="#191970" d="M1523.4712,-179.4581C1488.5205,-170.1931 1434.677,-155.92 1392.2611,-144.6761"/>
<polygon fill="#191970" stroke="#191970" points="1393.1345,-141.2868 1382.5715,-142.1075 1391.3408,-148.0531 1393.1345,-141.2868"/>
</g>
<!-- Node22&#45;&gt;Node13 -->
<g id="edge40" class="edge">
<title>Node22&#45;&gt;Node13</title>
<path fill="none" stroke="#191970" d="M1543.3729,-179.3906C1529.3041,-170.9903 1508.4025,-158.5103 1490.6234,-147.8945"/>
<polygon fill="#191970" stroke="#191970" points="1492.0436,-144.6661 1481.6633,-142.5446 1488.455,-150.6763 1492.0436,-144.6661"/>
</g>
<!-- Node22&#45;&gt;Node14 -->
<g id="edge41" class="edge">
<title>Node22&#45;&gt;Node14</title>
<path fill="none" stroke="#191970" d="M1505.6583,-185.4396C1426.0021,-179.6832 1271.8912,-166.6898 1130.8196,-142.9043"/>
<polygon fill="#191970" stroke="#191970" points="1131.1328,-139.4072 1120.6862,-141.1731 1129.9539,-146.3072 1131.1328,-139.4072"/>
</g>
<!-- Node22&#45;&gt;Node15 -->
<g id="edge42" class="edge">
<title>Node22&#45;&gt;Node15</title>
<path fill="none" stroke="#191970" d="M1505.7893,-181.8623C1448.4201,-173.9639 1354.6048,-160.275 1264.0382,-143.0271"/>
<polygon fill="#191970" stroke="#191970" points="1264.6339,-139.5776 1254.1531,-141.1276 1263.313,-146.4518 1264.6339,-139.5776"/>
</g>
<!-- Node22&#45;&gt;Node21 -->
<g id="edge36" class="edge">
<title>Node22&#45;&gt;Node21</title>
<path fill="none" stroke="#191970" d="M1557.9104,-179.3887C1554.6004,-162.4404 1545.1306,-127.5647 1521.4667,-112 1485.095,-88.0769 829.4256,-70.8836 662.7509,-66.8866"/>
<polygon fill="#191970" stroke="#191970" points="662.5717,-63.3815 652.4912,-66.6425 662.4051,-70.3795 662.5717,-63.3815"/>
</g>
<!-- Node23 -->
<g id="node24" class="node">
<title>Node23</title>
<polygon fill="#ffffff" stroke="#bfbfbf" points="1754.4667,-118 1754.4667,-137 1806.4667,-137 1806.4667,-118 1754.4667,-118"/>
<text text-anchor="middle" x="1780.4667" y="-125" font-family="Helvetica,sans-Serif" font-size="10.00" fill="#000000">cassert</text>
</g>
<!-- Node22&#45;&gt;Node23 -->
<g id="edge34" class="edge">
<title>Node22&#45;&gt;Node23</title>
<path fill="none" stroke="#191970" d="M1607.9174,-179.4453C1645.85,-171.3859 1699.6732,-158.6687 1745.4667,-143 1747.3058,-142.3707 1749.1816,-141.6829 1751.0617,-140.9581"/>
<polygon fill="#191970" stroke="#191970" points="1752.4388,-144.1762 1760.3476,-137.1262 1749.7686,-137.7055 1752.4388,-144.1762"/>
</g>
<!-- Node24 -->
<g id="node25" class="node">
<title>Node24</title>
<polygon fill="#ffffff" stroke="#bfbfbf" points="1824.4667,-118 1824.4667,-137 1884.4667,-137 1884.4667,-118 1824.4667,-118"/>
<text text-anchor="middle" x="1854.4667" y="-125" font-family="Helvetica,sans-Serif" font-size="10.00" fill="#000000">iostream</text>
</g>
<!-- Node22&#45;&gt;Node24 -->
<g id="edge35" class="edge">
<title>Node22&#45;&gt;Node24</title>
<path fill="none" stroke="#191970" d="M1613.1286,-182.5472C1665.424,-175.5154 1746.8599,-162.5828 1815.4667,-143 1817.9188,-142.3001 1820.4295,-141.5018 1822.9368,-140.6452"/>
<polygon fill="#191970" stroke="#191970" points="1824.2864,-143.878 1832.4597,-137.1365 1821.8663,-137.3096 1824.2864,-143.878"/>
</g>
<!-- Node25 -->
<g id="node26" class="node">
<title>Node25</title>
<polygon fill="#ffffff" stroke="#bfbfbf" points="1902.9667,-118 1902.9667,-137 2049.9667,-137 2049.9667,-118 1902.9667,-118"/>
<text text-anchor="middle" x="1976.4667" y="-125" font-family="Helvetica,sans-Serif" font-size="10.00" fill="#000000">boost/current_function.hpp</text>
</g>
<!-- Node22&#45;&gt;Node25 -->
<g id="edge37" class="edge">
<title>Node22&#45;&gt;Node25</title>
<path fill="none" stroke="#191970" d="M1613.0927,-182.4158C1679.1698,-174.1183 1794.8092,-158.9964 1893.4667,-143 1901.199,-141.7463 1909.3198,-140.3406 1917.3299,-138.901"/>
<polygon fill="#191970" stroke="#191970" points="1918.1695,-142.3057 1927.3792,-137.0683 1916.9135,-135.4193 1918.1695,-142.3057"/>
</g>
<!-- Node26 -->
<g id="node27" class="node">
<title>Node26</title>
<polygon fill="#ffffff" stroke="#bfbfbf" points="1606.9667,-112.5 1606.9667,-142.5 1735.9667,-142.5 1735.9667,-112.5 1606.9667,-112.5"/>
<text text-anchor="start" x="1614.9667" y="-130.5" font-family="Helvetica,sans-Serif" font-size="10.00" fill="#000000">boost/preprocessor</text>
<text text-anchor="middle" x="1671.4667" y="-119.5" font-family="Helvetica,sans-Serif" font-size="10.00" fill="#000000">/facilities/is_empty.hpp</text>
</g>
<!-- Node22&#45;&gt;Node26 -->
<g id="edge39" class="edge">
<title>Node22&#45;&gt;Node26</title>
<path fill="none" stroke="#191970" d="M1576.9667,-179.3906C1592.4754,-170.8747 1615.6197,-158.166 1635.1216,-147.4573"/>
<polygon fill="#191970" stroke="#191970" points="1636.9876,-150.4257 1644.0684,-142.5446 1633.6183,-144.2899 1636.9876,-150.4257"/>
</g>
<!-- Node27 -->
<g id="node28" class="node">
<title>Node27</title>
<g id="a_node28"><a xlink:href="Parallel_8hpp.html" target="_top" xlink:title="Parallel.hpp">
<polygon fill="#ffffff" stroke="#ff0000" points="2334.4667,-118 2334.4667,-137 2408.4667,-137 2408.4667,-118 2334.4667,-118"/>
<text text-anchor="middle" x="2371.4667" y="-125" font-family="Helvetica,sans-Serif" font-size="10.00" fill="#000000">Parallel.hpp</text>
</a>
</g>
</g>
<!-- Node22&#45;&gt;Node27 -->
<g id="edge43" class="edge">
<title>Node22&#45;&gt;Node27</title>
<path fill="none" stroke="#191970" d="M1613.0583,-184.941C1762.5684,-173.6173 2182.54,-141.8091 2324.1567,-131.0832"/>
<polygon fill="#191970" stroke="#191970" points="2324.5499,-134.5635 2334.257,-130.3182 2324.0212,-127.5835 2324.5499,-134.5635"/>
</g>
<!-- Node30 -->
<g id="node30" class="node">
<title>Node30</title>
<g id="a_node30"><a xlink:href="stacktrace_8hpp.html" target="_top" xlink:title="stacktrace.hpp">
<polygon fill="#ffffff" stroke="#000000" points="1245.9667,-56.5 1245.9667,-75.5 1334.9667,-75.5 1334.9667,-56.5 1245.9667,-56.5"/>
<text text-anchor="middle" x="1290.4667" y="-63.5" font-family="Helvetica,sans-Serif" font-size="10.00" fill="#000000">stacktrace.hpp</text>
</a>
</g>
</g>
<!-- Node22&#45;&gt;Node30 -->
<g id="edge49" class="edge">
<title>Node22&#45;&gt;Node30</title>
<path fill="none" stroke="#191970" d="M1562.22,-179.2966C1566.1557,-163.1347 1571.2016,-130.6411 1554.4667,-112 1527.3435,-81.7873 1414.4857,-71.3895 1345.4086,-67.8314"/>
<polygon fill="#191970" stroke="#191970" points="1345.2911,-64.3217 1335.1341,-67.3357 1344.9538,-71.3136 1345.2911,-64.3217"/>
</g>
<!-- Node27&#45;&gt;Node4 -->
<g id="edge47" class="edge">
<title>Node27&#45;&gt;Node4</title>
<path fill="none" stroke="#191970" d="M2396.4667,-117.8906C2423.8673,-107.3585 2467.9521,-90.4134 2498.244,-78.77"/>
<polygon fill="#191970" stroke="#191970" points="2499.8656,-81.8964 2507.9441,-75.0415 2497.3541,-75.3624 2499.8656,-81.8964"/>
</g>
<!-- Node27&#45;&gt;Node6 -->
<g id="edge46" class="edge">
<title>Node27&#45;&gt;Node6</title>
<path fill="none" stroke="#191970" d="M2367.9468,-117.8823C2361.433,-101.6799 2345.8062,-69.4014 2320.4667,-56 2272.3577,-30.5565 499.2979,-12.7861 237.5995,-10.2995"/>
<polygon fill="#191970" stroke="#191970" points="237.6294,-6.7997 227.5967,-10.2049 237.5632,-13.7994 237.6294,-6.7997"/>
</g>
<!-- Node27&#45;&gt;Node9 -->
<g id="edge45" class="edge">
<title>Node27&#45;&gt;Node9</title>
<path fill="none" stroke="#191970" d="M2384.491,-117.9433C2406.7811,-102.1307 2454.2275,-70.8024 2499.4667,-56 2560.7061,-35.9622 2749.8018,-19.3992 2832.3009,-12.9255"/>
<polygon fill="#191970" stroke="#191970" points="2832.5839,-16.4142 2842.283,-12.1508 2832.0422,-9.4352 2832.5839,-16.4142"/>
</g>
<!-- Node27&#45;&gt;Node18 -->
<g id="edge48" class="edge">
<title>Node27&#45;&gt;Node18</title>
<path fill="none" stroke="#191970" d="M2334.8506,-117.9581C2293.2042,-107.1053 2225.1874,-89.3806 2180.3741,-77.7026"/>
<polygon fill="#191970" stroke="#191970" points="2181.1854,-74.2972 2170.626,-75.1623 2179.4202,-81.071 2181.1854,-74.2972"/>
</g>
<!-- Node28 -->
<g id="node29" class="node">
<title>Node28</title>
<polygon fill="#ffffff" stroke="#bfbfbf" points="2372.9667,-56.5 2372.9667,-75.5 2421.9667,-75.5 2421.9667,-56.5 2372.9667,-56.5"/>
<text text-anchor="middle" x="2397.4667" y="-63.5" font-family="Helvetica,sans-Serif" font-size="10.00" fill="#000000">iosfwd</text>
</g>
<!-- Node27&#45;&gt;Node28 -->
<g id="edge44" class="edge">
<title>Node27&#45;&gt;Node28</title>
<path fill="none" stroke="#191970" d="M2375.5292,-117.8906C2379.2091,-109.1862 2384.7408,-96.1015 2389.3287,-85.2494"/>
<polygon fill="#191970" stroke="#191970" points="2392.6766,-86.3185 2393.3469,-75.7449 2386.2291,-83.5927 2392.6766,-86.3185"/>
</g>
<!-- Node30&#45;&gt;Node6 -->
<g id="edge50" class="edge">
<title>Node30&#45;&gt;Node6</title>
<path fill="none" stroke="#191970" d="M1245.9106,-63.7003C1065.8034,-54.4045 393.7996,-19.7204 237.9081,-11.6744"/>
<polygon fill="#191970" stroke="#191970" points="237.7568,-8.162 227.5897,-11.1418 237.3959,-15.1527 237.7568,-8.162"/>
</g>
<!-- Node31&#45;&gt;Node1 -->
<g id="edge54" class="edge">
<title>Node31&#45;&gt;Node1</title>
<path fill="none" stroke="#191970" d="M1022.3328,-291.3795C989.4909,-268.9439 928.1814,-227.0609 895.0703,-204.4415"/>
<polygon fill="#191970" stroke="#191970" points="896.7577,-201.3554 886.5262,-198.6046 892.8091,-207.1355 896.7577,-201.3554"/>
</g>
<!-- Node31&#45;&gt;Node6 -->
<g id="edge55" class="edge">
<title>Node31&#45;&gt;Node6</title>
<path fill="none" stroke="#191970" d="M971.1558,-292.6051C968.2216,-292.0608 965.3165,-291.524 962.4667,-291 870.5496,-274.0983 194.4565,-214.6634 134.4667,-143 109.6469,-113.3505 115.9984,-89.9711 134.4667,-56 142.9259,-40.4399 159.1692,-29.3323 173.9864,-21.935"/>
<polygon fill="#191970" stroke="#191970" points="175.7958,-24.9555 183.4214,-17.6001 172.8733,-18.5947 175.7958,-24.9555"/>
</g>
<!-- Node31&#45;&gt;Node7 -->
<g id="edge56" class="edge">
<title>Node31&#45;&gt;Node7</title>
<path fill="none" stroke="#191970" d="M1117.823,-293.2311C1178.5955,-282.2385 1264.0422,-266.7827 1321.6908,-256.355"/>
<polygon fill="#191970" stroke="#191970" points="1322.5454,-259.7573 1331.7627,-254.5332 1321.2994,-252.8691 1322.5454,-259.7573"/>
</g>
<!-- Node31&#45;&gt;Node18 -->
<g id="edge57" class="edge">
<title>Node31&#45;&gt;Node18</title>
<path fill="none" stroke="#191970" d="M1117.694,-296.4377C1133.1247,-294.4868 1149.3177,-292.565 1164.4667,-291 1370.2136,-269.7446 1423.6449,-283.838 1628.4667,-255 1751.1167,-237.7314 1780.7967,-226.9282 1901.4667,-199 1998.5058,-176.541 2049.2885,-214.6615 2118.4667,-143 2133.052,-127.8911 2136.2618,-103.2418 2136.4919,-85.9105"/>
<polygon fill="#191970" stroke="#191970" points="2139.9884,-85.6849 2136.3025,-75.7519 2132.9896,-85.8155 2139.9884,-85.6849"/>
</g>
<!-- Node32&#45;&gt;Node1 -->
<g id="edge59" class="edge">
<title>Node32&#45;&gt;Node1</title>
<path fill="none" stroke="#191970" d="M879.4208,-291.1389C877.9795,-269.9692 875.3819,-231.8174 873.8019,-208.6112"/>
<polygon fill="#191970" stroke="#191970" points="877.2888,-208.2986 873.1175,-198.5595 870.305,-208.7742 877.2888,-208.2986"/>
</g>
<!-- Node32&#45;&gt;Node3 -->
<g id="edge60" class="edge">
<title>Node32&#45;&gt;Node3</title>
<path fill="none" stroke="#191970" d="M807.2486,-296.3469C791.8173,-294.4023 775.6217,-292.5061 760.4667,-291 531.7028,-268.2654 471.7174,-289.7406 244.4667,-255 243.2163,-254.8089 241.9483,-254.5995 240.6704,-254.375"/>
<polygon fill="#191970" stroke="#191970" points="241.2994,-250.9317 230.8089,-252.4144 239.9344,-257.7973 241.2994,-250.9317"/>
</g>
<!-- Node32&#45;&gt;Node4 -->
<g id="edge62" class="edge">
<title>Node32&#45;&gt;Node4</title>
<path fill="none" stroke="#191970" d="M953.7092,-292.1564C956.6623,-291.7363 959.59,-291.3481 962.4667,-291 1256.7524,-255.3926 1332.9954,-278.8483 1628.4667,-255 1860.6011,-236.2638 1918.739,-230.657 2149.4667,-199 2168.1609,-196.4351 2468.8316,-153.564 2484.4667,-143 2504.9695,-129.1471 2518.0669,-103.065 2525.0903,-85.1248"/>
<polygon fill="#191970" stroke="#191970" points="2528.4051,-86.2507 2528.5338,-75.6567 2521.8266,-83.8582 2528.4051,-86.2507"/>
</g>
<!-- Node32&#45;&gt;Node6 -->
<g id="edge61" class="edge">
<title>Node32&#45;&gt;Node6</title>
<path fill="none" stroke="#191970" d="M807.3561,-296.7535C641.5577,-274.4173 246.9209,-219.8531 189.4667,-199 144.1133,-182.5389 120.2054,-185.0045 96.4667,-143 77.4422,-109.3372 75.0915,-88.2213 96.4667,-56 113.4319,-30.4263 147.724,-19.035 173.3383,-13.9826"/>
<polygon fill="#191970" stroke="#191970" points="174.1131,-17.4004 183.3633,-12.2348 172.9108,-10.5044 174.1131,-17.4004"/>
</g>
<!-- Node32&#45;&gt;Node7 -->
<g id="edge63" class="edge">
<title>Node32&#45;&gt;Node7</title>
<path fill="none" stroke="#191970" d="M953.7361,-292.3562C956.6818,-291.8808 959.6006,-291.4264 962.4667,-291 1021.4323,-282.227 1174.4048,-266.1713 1279.0183,-255.5413"/>
<polygon fill="#191970" stroke="#191970" points="1279.3909,-259.0215 1288.9865,-254.5299 1278.6842,-252.0573 1279.3909,-259.0215"/>
</g>
<!-- Node32&#45;&gt;Node18 -->
<g id="edge64" class="edge">
<title>Node32&#45;&gt;Node18</title>
<path fill="none" stroke="#191970" d="M953.5539,-291.6518C1033.1828,-275.8774 1164.4569,-251.047 1278.4667,-235 1321.7291,-228.9107 2020.3132,-162.3836 2059.4667,-143 2066.8178,-139.3607 2099.5233,-104.8359 2119.5588,-83.27"/>
<polygon fill="#191970" stroke="#191970" points="2122.3133,-85.4467 2126.538,-75.7306 2117.1764,-80.6914 2122.3133,-85.4467"/>
</g>
<!-- Node33&#45;&gt;Node1 -->
<g id="edge66" class="edge">
<title>Node33&#45;&gt;Node1</title>
<path fill="none" stroke="#191970" d="M1271.3909,-296.8135C1249.4713,-281.1015 1203.3854,-250.2816 1159.4667,-235 1058.4274,-199.8431 1026.8003,-217.7021 921.4667,-199 920.0241,-198.7439 918.5588,-198.4781 917.08,-198.2049"/>
<polygon fill="#191970" stroke="#191970" points="917.7024,-194.7606 907.2233,-196.3219 916.3889,-201.6363 917.7024,-194.7606"/>
</g>
<!-- Node33&#45;&gt;Node6 -->
<g id="edge67" class="edge">
<title>Node33&#45;&gt;Node6</title>
<path fill="none" stroke="#191970" d="M1275.8299,-296.9716C1260.9248,-281.2007 1228.6659,-249.9323 1194.4667,-235 1097.6318,-192.7193 1060.6056,-229.5871 959.4667,-199 939.2919,-192.8986 936.9304,-184.048 916.4667,-179 836.112,-159.1781 229.5575,-202.9201 172.4667,-143 145.7941,-115.0056 160.6287,-92.81 172.4667,-56 175.8613,-45.4445 182.6724,-35.2592 189.2298,-27.1676"/>
<polygon fill="#191970" stroke="#191970" points="191.9137,-29.4149 195.8175,-19.5654 186.6236,-24.8307 191.9137,-29.4149"/>
</g>
<!-- Node33&#45;&gt;Node7 -->
<g id="edge68" class="edge">
<title>Node33&#45;&gt;Node7</title>
<path fill="none" stroke="#191970" d="M1300.0917,-296.8906C1316.2364,-286.9616 1341.6488,-271.333 1360.369,-259.8201"/>
<polygon fill="#191970" stroke="#191970" points="1362.2669,-262.7619 1368.9514,-254.5419 1358.5998,-256.7992 1362.2669,-262.7619"/>
</g>
<!-- Node33&#45;&gt;Node18 -->
<g id="edge69" class="edge">
<title>Node33&#45;&gt;Node18</title>
<path fill="none" stroke="#191970" d="M1395.8701,-296.9921C1421.3613,-294.9198 1448.3458,-292.8082 1473.4667,-291 1602.4916,-281.7129 1936.3093,-307.6547 2054.4667,-255 2119.344,-226.0886 2140.9955,-208.5002 2168.4667,-143 2173.7955,-130.2944 2172.6848,-125.1162 2168.4667,-112 2165.0721,-101.4445 2158.2609,-91.2592 2151.7036,-83.1676"/>
<polygon fill="#191970" stroke="#191970" points="2154.3098,-80.8307 2145.1159,-75.5654 2149.0197,-85.4149 2154.3098,-80.8307"/>
</g>
<!-- Node34&#45;&gt;Node4 -->
<g id="edge76" class="edge">
<title>Node34&#45;&gt;Node4</title>
<path fill="none" stroke="#191970" d="M2393.5066,-296.9838C2375.3057,-274.035 2334.4553,-214.8957 2364.4667,-179 2422.3983,-109.7096 2506.535,-212.2904 2564.4667,-143 2579.2179,-125.3564 2563.1559,-100.1316 2548.7179,-83.4224"/>
<polygon fill="#191970" stroke="#191970" points="2551.2356,-80.9892 2541.9028,-75.9743 2546.0713,-85.7147 2551.2356,-80.9892"/>
</g>
<!-- Node34&#45;&gt;Node6 -->
<g id="edge73" class="edge">
<title>Node34&#45;&gt;Node6</title>
<path fill="none" stroke="#191970" d="M2335.3562,-299.5828C2201.8721,-285.7937 1890.5497,-254.5321 1628.4667,-235 1487.2986,-224.4793 1129.4418,-234.7343 992.4667,-199 972.8486,-193.882 971.104,-184.0434 951.4667,-179 872.2722,-158.6608 278.6402,-196.1027 216.4667,-143 184.2854,-115.5138 192.4285,-59.5382 199.7348,-29.7234"/>
<polygon fill="#191970" stroke="#191970" points="203.2151,-30.2555 202.4083,-19.6914 196.4512,-28.4529 203.2151,-30.2555"/>
</g>
<!-- Node34&#45;&gt;Node27 -->
<g id="edge98" class="edge">
<title>Node34&#45;&gt;Node27</title>
<path fill="none" stroke="#191970" d="M2391.5964,-296.9247C2381.8102,-287.0631 2366.8205,-270.9279 2356.4667,-255 2341.5111,-231.9931 2336.3836,-225.7951 2330.4667,-199 2328.55,-190.3202 2327.5343,-187.3913 2330.4667,-179 2335.0155,-165.9829 2344.3841,-153.796 2353.0187,-144.5484"/>
<polygon fill="#191970" stroke="#191970" points="2355.7197,-146.7953 2360.2782,-137.2313 2350.7505,-141.8652 2355.7197,-146.7953"/>
</g>
<!-- Node35 -->
<g id="node35" class="node">
<title>Node35</title>
<polygon fill="#ffffff" stroke="#bfbfbf" points="2398.9667,-235.5 2398.9667,-254.5 2463.9667,-254.5 2463.9667,-235.5 2398.9667,-235.5"/>
<text text-anchor="middle" x="2431.4667" y="-242.5" font-family="Helvetica,sans-Serif" font-size="10.00" fill="#000000">stdexcept</text>
</g>
<!-- Node34&#45;&gt;Node35 -->
<g id="edge72" class="edge">
<title>Node34&#45;&gt;Node35</title>
<path fill="none" stroke="#191970" d="M2406.1542,-296.8906C2410.444,-288.0965 2416.9149,-274.8312 2422.2401,-263.9145"/>
<polygon fill="#191970" stroke="#191970" points="2425.4745,-265.2671 2426.7131,-254.7449 2419.1831,-262.1981 2425.4745,-265.2671"/>
</g>
<!-- Node36 -->
<g id="node36" class="node">
<title>Node36</title>
<polygon fill="#ffffff" stroke="#bfbfbf" points="2698.9667,-179.5 2698.9667,-198.5 2767.9667,-198.5 2767.9667,-179.5 2698.9667,-179.5"/>
<text text-anchor="middle" x="2733.4667" y="-186.5" font-family="Helvetica,sans-Serif" font-size="10.00" fill="#000000">type_traits</text>
</g>
<!-- Node34&#45;&gt;Node36 -->
<g id="edge74" class="edge">
<title>Node34&#45;&gt;Node36</title>
<path fill="none" stroke="#191970" d="M2428.3544,-296.984C2487.5281,-276.0415 2629.1183,-225.9305 2696.5506,-202.0652"/>
<polygon fill="#191970" stroke="#191970" points="2698.0687,-205.2407 2706.328,-198.6048 2695.7332,-198.6418 2698.0687,-205.2407"/>
</g>
<!-- Node37 -->
<g id="node37" class="node">
<title>Node37</title>
<polygon fill="#ffffff" stroke="#bfbfbf" points="2481.9667,-235.5 2481.9667,-254.5 2526.9667,-254.5 2526.9667,-235.5 2481.9667,-235.5"/>
<text text-anchor="middle" x="2504.4667" y="-242.5" font-family="Helvetica,sans-Serif" font-size="10.00" fill="#000000">utility</text>
</g>
<!-- Node34&#45;&gt;Node37 -->
<g id="edge75" class="edge">
<title>Node34&#45;&gt;Node37</title>
<path fill="none" stroke="#191970" d="M2417.5604,-296.8906C2434.1895,-286.9616 2460.3643,-271.333 2479.6461,-259.8201"/>
<polygon fill="#191970" stroke="#191970" points="2481.6943,-262.6736 2488.4859,-254.5419 2478.1057,-256.6634 2481.6943,-262.6736"/>
</g>
<!-- Node38 -->
<g id="node38" class="node">
<title>Node38</title>
<g id="a_node38"><a xlink:href="M2N_8hpp.html" target="_top" xlink:title="m2n/M2N.hpp">
<polygon fill="#ffffff" stroke="#000000" points="2881.4667,-235.5 2881.4667,-254.5 2965.4667,-254.5 2965.4667,-235.5 2881.4667,-235.5"/>
<text text-anchor="middle" x="2923.4667" y="-242.5" font-family="Helvetica,sans-Serif" font-size="10.00" fill="#000000">m2n/M2N.hpp</text>
</a>
</g>
</g>
<!-- Node34&#45;&gt;Node38 -->
<g id="edge77" class="edge">
<title>Node34&#45;&gt;Node38</title>
<path fill="none" stroke="#191970" d="M2467.5783,-298.711C2572.663,-286.3303 2775.6741,-262.4123 2871.2722,-251.1494"/>
<polygon fill="#191970" stroke="#191970" points="2871.7627,-254.6159 2881.2844,-249.9697 2870.9435,-247.6639 2871.7627,-254.6159"/>
</g>
<!-- Node61 -->
<g id="node43" class="node">
<title>Node61</title>
<g id="a_node43"><a xlink:href="m2n_2SharedPointer_8hpp.html" target="_top" xlink:title="SharedPointer.hpp">
<polygon fill="#ffffff" stroke="#000000" points="3218.9667,-179.5 3218.9667,-198.5 3323.9667,-198.5 3323.9667,-179.5 3218.9667,-179.5"/>
<text text-anchor="middle" x="3271.4667" y="-186.5" font-family="Helvetica,sans-Serif" font-size="10.00" fill="#000000">SharedPointer.hpp</text>
</a>
</g>
</g>
<!-- Node34&#45;&gt;Node61 -->
<g id="edge97" class="edge">
<title>Node34&#45;&gt;Node61</title>
<path fill="none" stroke="#191970" d="M2467.5438,-303.3369C2574.5378,-297.5937 2792.1262,-283.3331 2974.4667,-255 3064.3254,-241.0372 3167.6469,-216.0047 3225.6828,-201.1065"/>
<polygon fill="#191970" stroke="#191970" points="3226.8265,-204.4261 3235.634,-198.5372 3225.0765,-197.6484 3226.8265,-204.4261"/>
</g>
<!-- Node38&#45;&gt;Node4 -->
<g id="edge82" class="edge">
<title>Node38&#45;&gt;Node4</title>
<path fill="none" stroke="#191970" d="M2914.6749,-235.1907C2901.5203,-221.0331 2875.3715,-194.8378 2848.4667,-179 2752.9941,-122.7991 2625.0411,-87.8591 2565.1008,-73.5174"/>
<polygon fill="#191970" stroke="#191970" points="2565.5971,-70.0387 2555.0614,-71.1567 2563.9947,-76.8529 2565.5971,-70.0387"/>
</g>
<!-- Node38&#45;&gt;Node6 -->
<g id="edge80" class="edge">
<title>Node38&#45;&gt;Node6</title>
<path fill="none" stroke="#191970" d="M2907.5455,-235.2712C2878.0955,-217.3124 2817.6257,-180.6248 2812.4667,-179 2605.4558,-113.8028 2532.4464,-208.2963 2325.4667,-143 2316.4621,-140.1593 2188.5401,-58.6125 2179.4667,-56 2082.2917,-28.0206 486.784,-12.5359 237.976,-10.2863"/>
<polygon fill="#191970" stroke="#191970" points="237.8128,-6.7848 227.7817,-10.1948 237.7499,-13.7845 237.8128,-6.7848"/>
</g>
<!-- Node38&#45;&gt;Node9 -->
<g id="edge79" class="edge">
<title>Node38&#45;&gt;Node9</title>
<path fill="none" stroke="#191970" d="M2965.8535,-235.8697C3020.6326,-223.9208 3109.7225,-203.9186 3115.4667,-199 3165.418,-156.2285 3196.0597,-106.1037 3153.4667,-56 3137.9255,-37.7184 2984.7892,-20.7946 2910.9236,-13.6191"/>
<polygon fill="#191970" stroke="#191970" points="2910.9148,-10.1023 2900.6264,-12.6322 2910.2468,-17.0704 2910.9148,-10.1023"/>
</g>
<!-- Node38&#45;&gt;Node18 -->
<g id="edge94" class="edge">
<title>Node38&#45;&gt;Node18</title>
<path fill="none" stroke="#191970" d="M2901.7215,-235.4044C2880.8454,-226.1649 2848.4444,-211.753 2820.4667,-199 2801.288,-190.2578 2797.8638,-184.311 2777.4667,-179 2568.2925,-124.5356 2501.0682,-199.6182 2292.4667,-143 2279.0459,-139.3574 2204.4096,-101.484 2163.0608,-80.246"/>
<polygon fill="#191970" stroke="#191970" points="2164.5423,-77.0722 2154.0488,-75.6099 2161.34,-83.2968 2164.5423,-77.0722"/>
</g>
<!-- Node38&#45;&gt;Node36 -->
<g id="edge81" class="edge">
<title>Node38&#45;&gt;Node36</title>
<path fill="none" stroke="#191970" d="M2890.8045,-235.3733C2858.9369,-225.9807 2810.3135,-211.6496 2775.5597,-201.4064"/>
<polygon fill="#191970" stroke="#191970" points="2776.2842,-197.9711 2765.7026,-198.5011 2774.3052,-204.6855 2776.2842,-197.9711"/>
</g>
<!-- Node39 -->
<g id="node39" class="node">
<title>Node39</title>
<polygon fill="#ffffff" stroke="#bfbfbf" points="3106.4667,-56.5 3106.4667,-75.5 3144.4667,-75.5 3144.4667,-56.5 3106.4667,-56.5"/>
<text text-anchor="middle" x="3125.4667" y="-63.5" font-family="Helvetica,sans-Serif" font-size="10.00" fill="#000000">map</text>
</g>
<!-- Node38&#45;&gt;Node39 -->
<g id="edge78" class="edge">
<title>Node38&#45;&gt;Node39</title>
<path fill="none" stroke="#191970" d="M2965.6375,-235.8979C3013.1785,-225.2908 3085.109,-208.0634 3094.4667,-199 3125.288,-169.1479 3128.0244,-115.0345 3126.9811,-85.8813"/>
<polygon fill="#191970" stroke="#191970" points="3130.4655,-85.4994 3126.4227,-75.7063 3123.4761,-85.8831 3130.4655,-85.4994"/>
</g>
<!-- Node40 -->
<g id="node40" class="node">
<title>Node40</title>
<g id="a_node40"><a xlink:href="DistributedComFactory_8hpp.html" target="_top" xlink:title="DistributedComFactory.hpp">
<polygon fill="#ffffff" stroke="#000000" points="2900.4667,-179.5 2900.4667,-198.5 3048.4667,-198.5 3048.4667,-179.5 2900.4667,-179.5"/>
<text text-anchor="middle" x="2974.4667" y="-186.5" font-family="Helvetica,sans-Serif" font-size="10.00" fill="#000000">DistributedComFactory.hpp</text>
</a>
</g>
</g>
<!-- Node38&#45;&gt;Node40 -->
<g id="edge83" class="edge">
<title>Node38&#45;&gt;Node40</title>
<path fill="none" stroke="#191970" d="M2932.3502,-235.2455C2939.6633,-227.2155 2950.2058,-215.6394 2958.9134,-206.0781"/>
<polygon fill="#191970" stroke="#191970" points="2961.5393,-208.3928 2965.685,-198.6427 2956.3639,-203.6795 2961.5393,-208.3928"/>
</g>
<!-- Node41 -->
<g id="node41" class="node">
<title>Node41</title>
<g id="a_node41"><a xlink:href="DistributedCommunication_8hpp.html" target="_top" xlink:title="DistributedCommunication.hpp">
<polygon fill="#ffffff" stroke="#ff0000" points="2917.9667,-118 2917.9667,-137 3086.9667,-137 3086.9667,-118 2917.9667,-118"/>
<text text-anchor="middle" x="3002.4667" y="-125" font-family="Helvetica,sans-Serif" font-size="10.00" fill="#000000">DistributedCommunication.hpp</text>
</a>
</g>
</g>
<!-- Node38&#45;&gt;Node41 -->
<g id="edge95" class="edge">
<title>Node38&#45;&gt;Node41</title>
<path fill="none" stroke="#191970" d="M2965.7774,-236.0895C3000.8045,-227.7535 3046.5328,-214.3135 3057.4667,-199 3071.6404,-179.1488 3048.2094,-156.9869 3027.6846,-142.6738"/>
<polygon fill="#191970" stroke="#191970" points="3029.4554,-139.6487 3019.1843,-137.0498 3025.5929,-145.4866 3029.4554,-139.6487"/>
</g>
<!-- Node52 -->
<g id="node42" class="node">
<title>Node52</title>
<g id="a_node42"><a xlink:href="mesh_2SharedPointer_8hpp.html" target="_top" xlink:title="mesh/SharedPointer.hpp">
<polygon fill="#ffffff" stroke="#000000" points="2934.9667,-56.5 2934.9667,-75.5 3069.9667,-75.5 3069.9667,-56.5 2934.9667,-56.5"/>
<text text-anchor="middle" x="3002.4667" y="-63.5" font-family="Helvetica,sans-Serif" font-size="10.00" fill="#000000">mesh/SharedPointer.hpp</text>
</a>
</g>
</g>
<!-- Node38&#45;&gt;Node52 -->
<g id="edge96" class="edge">
<title>Node38&#45;&gt;Node52</title>
<path fill="none" stroke="#191970" d="M2960.3489,-235.4574C3001.9446,-224.4215 3064.9377,-206.7771 3073.4667,-199 3093.3484,-180.8708 3091.257,-169.3972 3096.4667,-143 3099.1344,-129.483 3103.7601,-123.689 3096.4667,-112 3086.8992,-96.6664 3070.5737,-86.3037 3054.1869,-79.3641"/>
<polygon fill="#191970" stroke="#191970" points="3055.1718,-75.9927 3044.5821,-75.6619 3052.6541,-82.5243 3055.1718,-75.9927"/>
</g>
<!-- Node38&#45;&gt;Node61 -->
<g id="edge90" class="edge">
<title>Node38&#45;&gt;Node61</title>
<path fill="none" stroke="#191970" d="M2965.7904,-238.1893C3026.4758,-228.4238 3138.6228,-210.3772 3208.901,-199.068"/>
<polygon fill="#191970" stroke="#191970" points="3209.6381,-202.4945 3218.955,-197.4502 3208.5259,-195.5834 3209.6381,-202.4945"/>
</g>
<!-- Node62 -->
<g id="node44" class="node">
<title>Node62</title>
<g id="a_node44"><a xlink:href="com_2SharedPointer_8hpp.html" target="_top" xlink:title="com/SharedPointer.hpp">
<polygon fill="#ffffff" stroke="#000000" points="2551.9667,-179.5 2551.9667,-198.5 2680.9667,-198.5 2680.9667,-179.5 2551.9667,-179.5"/>
<text text-anchor="middle" x="2616.4667" y="-186.5" font-family="Helvetica,sans-Serif" font-size="10.00" fill="#000000">com/SharedPointer.hpp</text>
</a>
</g>
</g>
<!-- Node38&#45;&gt;Node62 -->
<g id="edge92" class="edge">
<title>Node38&#45;&gt;Node62</title>
<path fill="none" stroke="#191970" d="M2881.4233,-237.3309C2829.1084,-227.7881 2739.319,-211.4095 2678.9423,-200.3962"/>
<polygon fill="#191970" stroke="#191970" points="2679.2377,-196.8924 2668.772,-198.541 2677.9815,-203.7788 2679.2377,-196.8924"/>
</g>
<!-- Node40&#45;&gt;Node9 -->
<g id="edge89" class="edge">
<title>Node40&#45;&gt;Node9</title>
<path fill="none" stroke="#191970" d="M2954.3357,-179.452C2939.8409,-171.5918 2920.8988,-159.1287 2909.4667,-143 2884.69,-108.0447 2875.9915,-57.2108 2872.9947,-29.6103"/>
<polygon fill="#191970" stroke="#191970" points="2876.4768,-29.2548 2872.0537,-19.6275 2869.5077,-29.9118 2876.4768,-29.2548"/>
</g>
<!-- Node40&#45;&gt;Node41 -->
<g id="edge84" class="edge">
<title>Node40&#45;&gt;Node41</title>
<path fill="none" stroke="#191970" d="M2978.8417,-179.3906C2982.8455,-170.5965 2988.885,-157.3312 2993.8552,-146.4145"/>
<polygon fill="#191970" stroke="#191970" points="2997.0717,-147.7963 2998.03,-137.2449 2990.7009,-144.8957 2997.0717,-147.7963"/>
</g>
<!-- Node41&#45;&gt;Node4 -->
<g id="edge86" class="edge">
<title>Node41&#45;&gt;Node4</title>
<path fill="none" stroke="#191970" d="M2929.6476,-117.9918C2826.3146,-104.4993 2641.2648,-80.3367 2565.3629,-70.4259"/>
<polygon fill="#191970" stroke="#191970" points="2565.7661,-66.949 2555.3971,-69.1247 2564.8597,-73.89 2565.7661,-66.949"/>
</g>
<!-- Node41&#45;&gt;Node39 -->
<g id="edge85" class="edge">
<title>Node41&#45;&gt;Node39</title>
<path fill="none" stroke="#191970" d="M3021.6854,-117.8906C3041.9948,-107.7359 3074.2274,-91.6196 3097.3835,-80.0416"/>
<polygon fill="#191970" stroke="#191970" points="3099.0039,-83.1446 3106.3829,-75.5419 3095.8733,-76.8836 3099.0039,-83.1446"/>
</g>
<!-- Node41&#45;&gt;Node52 -->
<g id="edge87" class="edge">
<title>Node41&#45;&gt;Node52</title>
<path fill="none" stroke="#191970" d="M3002.4667,-117.8906C3002.4667,-109.3657 3002.4667,-96.6392 3002.4667,-85.9235"/>
<polygon fill="#191970" stroke="#191970" points="3005.9668,-85.7448 3002.4667,-75.7449 2998.9668,-85.7449 3005.9668,-85.7448"/>
</g>
<!-- Node52&#45;&gt;Node9 -->
<g id="edge88" class="edge">
<title>Node52&#45;&gt;Node9</title>
<path fill="none" stroke="#191970" d="M2979.947,-56.3733C2958.7295,-47.3032 2926.7391,-33.6279 2902.9898,-23.4755"/>
<polygon fill="#191970" stroke="#191970" points="2904.2634,-20.2136 2893.6925,-19.5011 2901.5118,-26.6502 2904.2634,-20.2136"/>
</g>
<!-- Node61&#45;&gt;Node9 -->
<g id="edge91" class="edge">
<title>Node61&#45;&gt;Node9</title>
<path fill="none" stroke="#191970" d="M3269.7557,-179.3062C3264.7748,-154.2208 3247.7924,-86.9769 3204.4667,-56 3158.104,-22.8517 2988.6521,-13.5082 2910.918,-10.9411"/>
<polygon fill="#191970" stroke="#191970" points="2910.6837,-7.4322 2900.5805,-10.622 2910.4677,-14.4289 2910.6837,-7.4322"/>
</g>
<!-- Node62&#45;&gt;Node9 -->
<g id="edge93" class="edge">
<title>Node62&#45;&gt;Node9</title>
<path fill="none" stroke="#191970" d="M2641.8546,-179.4346C2662.4591,-171.1552 2691.8591,-158.1475 2715.4667,-143 2770.8109,-107.4891 2827.5269,-53.9584 2854.8065,-26.9158"/>
<polygon fill="#191970" stroke="#191970" points="2857.4005,-29.2714 2861.9949,-19.7246 2852.4498,-24.3226 2857.4005,-29.2714"/>
</g>
<!-- Node63&#45;&gt;Node1 -->
<g id="edge100" class="edge">
<title>Node63&#45;&gt;Node1</title>
<path fill="none" stroke="#191970" d="M1594.6662,-366.7898C1484.7093,-363.7155 1241.1482,-353.4691 1164.4667,-322 1144.3027,-313.725 1145.2383,-302.0764 1126.4667,-291 1056.4905,-249.7098 966.683,-218.0742 914.7496,-201.6155"/>
<polygon fill="#191970" stroke="#191970" points="915.7848,-198.2722 905.1958,-198.6239 913.693,-204.9523 915.7848,-198.2722"/>
</g>
<!-- Node63&#45;&gt;Node6 -->
<g id="edge102" class="edge">
<title>Node63&#45;&gt;Node6</title>
<path fill="none" stroke="#191970" d="M1594.8073,-366.7616C1312.6977,-360.0192 34.4667,-325.0524 34.4667,-245 34.4667,-245 34.4667,-245 34.4667,-127.5 34.4667,-60.7473 124.076,-29.0655 173.5583,-16.6594"/>
<polygon fill="#191970" stroke="#191970" points="174.5455,-20.0223 183.4615,-14.299 172.9225,-13.213 174.5455,-20.0223"/>
</g>
<!-- Node63&#45;&gt;Node34 -->
<g id="edge109" class="edge">
<title>Node63&#45;&gt;Node34</title>
<path fill="none" stroke="#191970" d="M1704.142,-363.9192C1807.4132,-356.1595 2038.2348,-338.5691 2232.4667,-322 2262.7976,-319.4126 2296.1734,-316.389 2325.1959,-313.7027"/>
<polygon fill="#191970" stroke="#191970" points="2325.6341,-317.1772 2335.2678,-312.7679 2324.9871,-310.2072 2325.6341,-317.1772"/>
</g>
<!-- Node63&#45;&gt;Node36 -->
<g id="edge103" class="edge">
<title>Node63&#45;&gt;Node36</title>
<path fill="none" stroke="#191970" d="M1703.9809,-362.4897C1773.7024,-355.0821 1898.0433,-340.6588 2003.4667,-322 2177.0614,-291.2757 2216.7236,-264.8742 2390.4667,-235 2519.5833,-212.7991 2556.4179,-221.775 2688.6872,-199.1622"/>
<polygon fill="#191970" stroke="#191970" points="2689.5468,-202.5654 2698.7995,-197.4042 2688.3478,-195.6688 2689.5468,-202.5654"/>
</g>
<!-- Node64 -->
<g id="node46" class="node">
<title>Node64</title>
<polygon fill="#ffffff" stroke="#bfbfbf" points="1630.4667,-297 1630.4667,-316 1762.4667,-316 1762.4667,-297 1630.4667,-297"/>
<text text-anchor="middle" x="1696.4667" y="-304" font-family="Helvetica,sans-Serif" font-size="10.00" fill="#000000">boost/test/unit_test.hpp</text>
</g>
<!-- Node63&#45;&gt;Node64 -->
<g id="edge101" class="edge">
<title>Node63&#45;&gt;Node64</title>
<path fill="none" stroke="#191970" d="M1656.8104,-358.3906C1663.7369,-349.3273 1674.2927,-335.5149 1682.7727,-324.4188"/>
<polygon fill="#191970" stroke="#191970" points="1685.7281,-326.3155 1689.0194,-316.2449 1680.1663,-322.065 1685.7281,-326.3155"/>
</g>
<!-- Node48 -->
<g id="node47" class="node">
<title>Node48</title>
<g id="a_node47"><a xlink:href="differences_8hpp.html" target="_top" xlink:title="math/differences.hpp">
<polygon fill="#ffffff" stroke="#000000" points="1499.4667,-235.5 1499.4667,-254.5 1619.4667,-254.5 1619.4667,-235.5 1499.4667,-235.5"/>
<text text-anchor="middle" x="1559.4667" y="-242.5" font-family="Helvetica,sans-Serif" font-size="10.00" fill="#000000">math/differences.hpp</text>
</a>
</g>
</g>
<!-- Node63&#45;&gt;Node48 -->
<g id="edge104" class="edge">
<title>Node63&#45;&gt;Node48</title>
<path fill="none" stroke="#191970" d="M1642.4045,-358.3484C1627.3548,-337.7804 1591.925,-289.3596 1572.6,-262.9489"/>
<polygon fill="#191970" stroke="#191970" points="1575.2258,-260.6103 1566.496,-254.6068 1569.5765,-264.7439 1575.2258,-260.6103"/>
</g>
<!-- Node65 -->
<g id="node48" class="node">
<title>Node65</title>
<g id="a_node48"><a xlink:href="math_8hpp.html" target="_top" xlink:title="math/math.hpp">
<polygon fill="#ffffff" stroke="#ff0000" points="1482.4667,-297 1482.4667,-316 1574.4667,-316 1574.4667,-297 1482.4667,-297"/>
<text text-anchor="middle" x="1528.4667" y="-304" font-family="Helvetica,sans-Serif" font-size="10.00" fill="#000000">math/math.hpp</text>
</a>
</g>
</g>
<!-- Node63&#45;&gt;Node65 -->
<g id="edge107" class="edge">
<title>Node63&#45;&gt;Node65</title>
<path fill="none" stroke="#191970" d="M1630.5604,-358.3906C1610.6701,-348.2811 1579.1544,-332.2628 1556.3975,-320.6962"/>
<polygon fill="#191970" stroke="#191970" points="1557.7406,-317.4528 1547.2402,-316.0419 1554.5689,-323.693 1557.7406,-317.4528"/>
</g>
<!-- Node56 -->
<g id="node49" class="node">
<title>Node56</title>
<g id="a_node49"><a xlink:href="ManageUniqueIDs_8hpp.html" target="_top" xlink:title="utils/ManageUniqueIDs.hpp">
<polygon fill="#ffffff" stroke="#ff0000" points="1780.4667,-297 1780.4667,-316 1930.4667,-316 1930.4667,-297 1780.4667,-297"/>
<text text-anchor="middle" x="1855.4667" y="-304" font-family="Helvetica,sans-Serif" font-size="10.00" fill="#000000">utils/ManageUniqueIDs.hpp</text>
</a>
</g>
</g>
<!-- Node63&#45;&gt;Node56 -->
<g id="edge110" class="edge">
<title>Node63&#45;&gt;Node56</title>
<path fill="none" stroke="#191970" d="M1681.6542,-358.3906C1717.18,-347.7846 1774.4893,-330.6753 1813.5108,-319.0257"/>
<polygon fill="#191970" stroke="#191970" points="1814.9244,-322.2564 1823.5052,-316.0419 1812.9218,-315.5489 1814.9244,-322.2564"/>
</g>
<!-- Node69 -->
<g id="node50" class="node">
<title>Node69</title>
<g id="a_node50"><a xlink:href="MasterSlave_8hpp.html" target="_top" xlink:title="utils/MasterSlave.hpp">
<polygon fill="#ffffff" stroke="#000000" points="2106.4667,-235.5 2106.4667,-254.5 2228.4667,-254.5 2228.4667,-235.5 2106.4667,-235.5"/>
<text text-anchor="middle" x="2167.4667" y="-242.5" font-family="Helvetica,sans-Serif" font-size="10.00" fill="#000000">utils/MasterSlave.hpp</text>
</a>
</g>
</g>
<!-- Node63&#45;&gt;Node69 -->
<g id="edge111" class="edge">
<title>Node63&#45;&gt;Node69</title>
<path fill="none" stroke="#191970" d="M1703.9936,-362.1304C1762.6919,-355.1684 1858.5385,-341.9333 1939.4667,-322 2010.1821,-304.5822 2090.3077,-275.1832 2134.2405,-258.1954"/>
<polygon fill="#191970" stroke="#191970" points="2135.5186,-261.4539 2143.5677,-254.5646 2132.9792,-254.9307 2135.5186,-261.4539"/>
</g>
<!-- Node48&#45;&gt;Node1 -->
<g id="edge105" class="edge">
<title>Node48&#45;&gt;Node1</title>
<path fill="none" stroke="#191970" d="M1499.4295,-235.9102C1496.7406,-235.5854 1494.0769,-235.2798 1491.4667,-235 1255.8315,-209.7406 1195.4712,-220.5367 959.4667,-199 945.7123,-197.7448 930.7642,-196.1212 917.2016,-194.5488"/>
<polygon fill="#191970" stroke="#191970" points="917.484,-191.0579 907.143,-193.3632 916.6645,-198.0098 917.484,-191.0579"/>
</g>
<!-- Node48&#45;&gt;Node22 -->
<g id="edge106" class="edge">
<title>Node48&#45;&gt;Node22</title>
<path fill="none" stroke="#191970" d="M1559.4667,-235.2455C1559.4667,-227.9382 1559.4667,-217.6944 1559.4667,-208.7046"/>
<polygon fill="#191970" stroke="#191970" points="1562.9668,-208.6426 1559.4667,-198.6427 1555.9668,-208.6427 1562.9668,-208.6426"/>
</g>
<!-- Node65&#45;&gt;Node48 -->
<g id="edge108" class="edge">
<title>Node65&#45;&gt;Node48</title>
<path fill="none" stroke="#191970" d="M1533.3104,-296.8906C1537.7432,-288.0965 1544.4298,-274.8312 1549.9325,-263.9145"/>
<polygon fill="#191970" stroke="#191970" points="1553.1788,-265.25 1554.5546,-254.7449 1546.928,-262.0992 1553.1788,-265.25"/>
</g>
<!-- Node69&#45;&gt;Node1 -->
<g id="edge112" class="edge">
<title>Node69&#45;&gt;Node1</title>
<path fill="none" stroke="#191970" d="M2106.2577,-243.5538C1932.0027,-239.2319 1418.3417,-225.0684 992.4667,-199 967.4954,-197.4715 939.6474,-195.1868 917.0693,-193.1869"/>
<polygon fill="#191970" stroke="#191970" points="917.3685,-189.6997 907.0956,-192.2918 916.7427,-196.6717 917.3685,-189.6997"/>
</g>
<!-- Node69&#45;&gt;Node18 -->
<g id="edge114" class="edge">
<title>Node69&#45;&gt;Node18</title>
<path fill="none" stroke="#191970" d="M2175.0394,-235.4435C2191.9787,-212.824 2229.6824,-154.7036 2206.4667,-112 2198.829,-97.9511 2184.8458,-87.5317 2171.2959,-80.1958"/>
<polygon fill="#191970" stroke="#191970" points="2172.5797,-76.9253 2162.0677,-75.603 2169.4607,-83.1921 2172.5797,-76.9253"/>
</g>
<!-- Node69&#45;&gt;Node62 -->
<g id="edge113" class="edge">
<title>Node69&#45;&gt;Node62</title>
<path fill="none" stroke="#191970" d="M2228.7193,-237.7809C2301.0584,-229.1937 2425.3083,-214.2516 2541.4605,-199.2479"/>
<polygon fill="#191970" stroke="#191970" points="2542.1265,-202.6909 2551.5944,-197.936 2541.2278,-195.7489 2542.1265,-202.6909"/>
</g>
</g>
</svg>
        <g id="navigator" transform="translate(0 0)" fill="#404254">
                <rect fill="#f2f5e9" fill-opacity="0.5" stroke="#606060" stroke-width=".5" x="0" y="0" width="60" height="60"/>
                <use id="zoomplus" xlink:href="#zoomPlus" x="17" y="9" onmousedown="handleZoom(evt,'in')"/>
                <use id="zoomminus" xlink:href="#zoomMin" x="42" y="9" onmousedown="handleZoom(evt,'out')"/>
                <use id="reset" xlink:href="#resetDef" x="30" y="36" onmousedown="handleReset()"/>
                <g id="arrowUp" xlink:href="#dirArrow" transform="translate(30 24)" onmousedown="handlePan(0,-1)">
                  <use xlink:href="#rim" fill="#404040">
                        <set attributeName="fill" to="#808080" begin="arrowUp.mouseover" end="arrowUp.mouseout"/>
                  </use>
                  <path fill="none" stroke="white" stroke-width="1.5" d="M0,-3.0v7 M-2.5,-0.5L0,-3.0L2.5,-0.5"/>
                </g>
                <g id="arrowRight" xlink:href="#dirArrow" transform="rotate(90) translate(36 -43)" onmousedown="handlePan(1,0)">
                  <use xlink:href="#rim" fill="#404040">
                        <set attributeName="fill" to="#808080" begin="arrowRight.mouseover" end="arrowRight.mouseout"/>
                  </use>
                  <path fill="none" stroke="white" stroke-width="1.5" d="M0,-3.0v7 M-2.5,-0.5L0,-3.0L2.5,-0.5"/>
                </g>
                <g id="arrowDown" xlink:href="#dirArrow" transform="rotate(180) translate(-30 -48)" onmousedown="handlePan(0,1)">
                  <use xlink:href="#rim" fill="#404040">
                        <set attributeName="fill" to="#808080" begin="arrowDown.mouseover" end="arrowDown.mouseout"/>
                  </use>
                  <path fill="none" stroke="white" stroke-width="1.5" d="M0,-3.0v7 M-2.5,-0.5L0,-3.0L2.5,-0.5"/>
                </g>
                <g id="arrowLeft" xlink:href="#dirArrow" transform="rotate(270) translate(-36 17)" onmousedown="handlePan(-1,0)">
                  <use xlink:href="#rim" fill="#404040">
                        <set attributeName="fill" to="#808080" begin="arrowLeft.mouseover" end="arrowLeft.mouseout"/>
                  </use>
                  <path fill="none" stroke="white" stroke-width="1.5" d="M0,-3.0v7 M-2.5,-0.5L0,-3.0L2.5,-0.5"/>
                </g>
        </g>
        <svg viewBox="0 0 15 15" width="100%" height="30px" preserveAspectRatio="xMaxYMin meet">
         <g id="arrow_out" transform="scale(0.3 0.3)">
          <a xlink:href="PreconditionerTest_8cpp__incl_org.svg" target="_base">
           <rect id="button" ry="5" rx="5" y="6" x="6" height="38" width="38"
                fill="#f2f5e9" fill-opacity="0.5" stroke="#606060" stroke-width="1.0"/>
           <path id="arrow"
             d="M 11.500037,31.436501 C 11.940474,20.09759 22.043105,11.32322 32.158766,21.979434 L 37.068811,17.246167 C 37.068811,17.246167 37.088388,32 37.088388,32 L 22.160133,31.978069 C 22.160133,31.978069 26.997745,27.140456 26.997745,27.140456 C 18.528582,18.264221 13.291696,25.230495 11.500037,31.436501 z"
             style="fill:#404040;"/>
          </a>
         </g>
        </svg>
</svg>
