<?xml version="1.0" encoding="UTF-8" standalone="no"?>
<!DOCTYPE svg PUBLIC "-//W3C//DTD SVG 1.1//EN"
 "http://www.w3.org/Graphics/SVG/1.1/DTD/svg11.dtd">
<!-- Generated by graphviz version 2.40.1 (20161225.0304)
 -->
<!-- Title: BOOST_AUTO_TEST_CASE Pages: 1 -->
<!--zoomable 568 -->
<svg id="main" version="1.1" xmlns="http://www.w3.org/2000/svg" xmlns:xlink="http://www.w3.org/1999/xlink" xml:space="preserve" onload="init(evt)">
<style type="text/css"><![CDATA[
.edge:hover path { stroke: red; }
.edge:hover polygon { stroke: red; fill: red; }
]]></style>
<script type="text/javascript"><![CDATA[
var edges = document.getElementsByTagName('g');
if (edges && edges.length) {
  for (var i=0;i<edges.length;i++) {
    if (edges[i].id.substr(0,4)=='edge') {
      edges[i].setAttribute('class','edge');
    }
  }
}
]]></script>
        <defs>
                <circle id="rim" cx="0" cy="0" r="7"/>
                <circle id="rim2" cx="0" cy="0" r="3.5"/>
                <g id="zoomPlus">
                        <use xlink:href="#rim" fill="#404040">
                                <set attributeName="fill" to="#808080" begin="zoomplus.mouseover" end="zoomplus.mouseout"/>
                        </use>
                        <path d="M-4,0h8M0,-4v8" fill="none" stroke="white" stroke-width="1.5" pointer-events="none"/>
                </g>
                <g id="zoomMin">
                        <use xlink:href="#rim" fill="#404040">
                                <set attributeName="fill" to="#808080" begin="zoomminus.mouseover" end="zoomminus.mouseout"/>
                        </use>
                        <path d="M-4,0h8" fill="none" stroke="white" stroke-width="1.5" pointer-events="none"/>
                </g>
                <g id="dirArrow">
                        <path fill="none" stroke="white" stroke-width="1.5" d="M0,-3.0v7 M-2.5,-0.5L0,-3.0L2.5,-0.5"/>
                </g>
               <g id="resetDef">
                       <use xlink:href="#rim2" fill="#404040">
                               <set attributeName="fill" to="#808080" begin="reset.mouseover" end="reset.mouseout"/>
                       </use>
               </g>
        </defs>

<script type="text/javascript">
var viewWidth = 1035;
var viewHeight = 568;
var sectionId = 'dynsection-5';
</script>
<script xlink:href="svgpan.js"/>
<svg id="graph" class="graph">
<g id="viewport">
<title>BOOST_AUTO_TEST_CASE</title>
<polygon fill="#ffffff" stroke="transparent" points="-4,4 -4,-564 1031,-564 1031,4 -4,4"/>
<!-- Node107 -->
<g id="node1" class="node">
<title>Node107</title>
<polygon fill="#bfbfbf" stroke="#000000" points="0,-302 0,-321 143,-321 143,-302 0,-302"/>
<text text-anchor="middle" x="71.5" y="-309" font-family="Helvetica,sans-Serif" font-size="10.00" fill="#000000">BOOST_AUTO_TEST_CASE</text>
</g>
<!-- Node108 -->
<g id="node2" class="node">
<title>Node108</title>
<g id="a_node2"><a xlink:href="namespaceprecice_1_1testing.html#a08533fd83bad3d7f27ea7f4a35a14aa4" target="_top" xlink:title="precice::testing::nextMeshID">
<polygon fill="#ffffff" stroke="#000000" points="182.5,-466 182.5,-485 337.5,-485 337.5,-466 182.5,-466"/>
<text text-anchor="middle" x="260" y="-473" font-family="Helvetica,sans-Serif" font-size="10.00" fill="#000000">precice::testing::nextMeshID</text>
</a>
</g>
</g>
<!-- Node107&#45;&gt;Node108 -->
<g id="edge1" class="edge">
<title>Node107&#45;&gt;Node108</title>
<path fill="none" stroke="#191970" d="M82.4493,-321.0262C113.4227,-347.9739 201.9452,-424.9908 241.0437,-459.0075"/>
<polygon fill="#191970" stroke="#191970" points="239.1788,-462.0242 249.0205,-465.9475 243.7734,-456.7432 239.1788,-462.0242"/>
</g>
<!-- Node110 -->
<g id="node4" class="node">
<title>Node110</title>
<g id="a_node4"><a xlink:href="classprecice_1_1partition_1_1Partition.html#abfdabe3f93448f7d5baf1698e9bd4301" target="_top" xlink:title="precice::partition\l::Partition::addM2N">
<polygon fill="#ffffff" stroke="#000000" points="205.5,-324.5 205.5,-354.5 314.5,-354.5 314.5,-324.5 205.5,-324.5"/>
<text text-anchor="start" x="213.5" y="-342.5" font-family="Helvetica,sans-Serif" font-size="10.00" fill="#000000">precice::partition</text>
<text text-anchor="middle" x="260" y="-331.5" font-family="Helvetica,sans-Serif" font-size="10.00" fill="#000000">::Partition::addM2N</text>
</a>
</g>
</g>
<!-- Node107&#45;&gt;Node110 -->
<g id="edge3" class="edge">
<title>Node107&#45;&gt;Node110</title>
<path fill="none" stroke="#191970" d="M135.5805,-321.0186C154.8489,-323.8807 175.9979,-327.0222 195.3057,-329.8902"/>
<polygon fill="#191970" stroke="#191970" points="194.8091,-333.3548 205.2149,-331.3622 195.8377,-326.4308 194.8091,-333.3548"/>
</g>
<!-- Node111 -->
<g id="node5" class="node">
<title>Node111</title>
<g id="a_node5"><a xlink:href="classprecice_1_1partition_1_1ProvidedPartition.html#ae4cf01bbf9586608b5df3997054f1e65" target="_top" xlink:title="Intersections between bounding boxes around each rank are computed. ">
<polygon fill="#ffffff" stroke="#000000" points="189.5,-264 189.5,-305 330.5,-305 330.5,-264 189.5,-264"/>
<text text-anchor="start" x="197.5" y="-293" font-family="Helvetica,sans-Serif" font-size="10.00" fill="#000000">precice::partition</text>
<text text-anchor="start" x="197.5" y="-282" font-family="Helvetica,sans-Serif" font-size="10.00" fill="#000000">::ProvidedPartition</text>
<text text-anchor="middle" x="260" y="-271" font-family="Helvetica,sans-Serif" font-size="10.00" fill="#000000">::compareBoundingBoxes</text>
</a>
</g>
</g>
<!-- Node107&#45;&gt;Node111 -->
<g id="edge4" class="edge">
<title>Node107&#45;&gt;Node111</title>
<path fill="none" stroke="#191970" d="M137.958,-301.9808C151.3492,-300.0627 165.5625,-298.0269 179.3767,-296.0482"/>
<polygon fill="#191970" stroke="#191970" points="179.945,-299.5026 189.3477,-294.62 178.9524,-292.5733 179.945,-299.5026"/>
</g>
<!-- Node123 -->
<g id="node17" class="node">
<title>Node123</title>
<g id="a_node17"><a xlink:href="ProvidedPartitionTest_8cpp.html#a660c0594637884c9c8bda3abb3281942" target="_top" xlink:title="tearDownParallelEnvironment">
<polygon fill="#ffffff" stroke="#000000" points="179,-128 179,-147 341,-147 341,-128 179,-128"/>
<text text-anchor="middle" x="260" y="-135" font-family="Helvetica,sans-Serif" font-size="10.00" fill="#000000">tearDownParallelEnvironment</text>
</a>
</g>
</g>
<!-- Node107&#45;&gt;Node123 -->
<g id="edge17" class="edge">
<title>Node107&#45;&gt;Node123</title>
<path fill="none" stroke="#191970" d="M81.9031,-301.8972C112.599,-273.5624 203.0682,-190.0524 241.9279,-154.1819"/>
<polygon fill="#191970" stroke="#191970" points="244.4226,-156.6423 249.3967,-147.2877 239.6747,-151.4987 244.4226,-156.6423"/>
</g>
<!-- Node109 -->
<g id="node3" class="node">
<title>Node109</title>
<g id="a_node3"><a xlink:href="classprecice_1_1utils_1_1ManageUniqueIDs.html#a02be264c279698ae293587b6576088b5" target="_top" xlink:title="precice::utils::ManageUnique\lIDs::getFreeID">
<polygon fill="#ffffff" stroke="#000000" points="422,-529.5 422,-559.5 580,-559.5 580,-529.5 422,-529.5"/>
<text text-anchor="start" x="430" y="-547.5" font-family="Helvetica,sans-Serif" font-size="10.00" fill="#000000">precice::utils::ManageUnique</text>
<text text-anchor="middle" x="501" y="-536.5" font-family="Helvetica,sans-Serif" font-size="10.00" fill="#000000">IDs::getFreeID</text>
</a>
</g>
</g>
<!-- Node108&#45;&gt;Node109 -->
<g id="edge2" class="edge">
<title>Node108&#45;&gt;Node109</title>
<path fill="none" stroke="#191970" d="M281.6028,-485.1312C304.7909,-495.1541 342.8996,-510.7246 377,-520.5 388.1979,-523.71 400.0881,-526.6213 411.9012,-529.2196"/>
<polygon fill="#191970" stroke="#191970" points="411.2791,-532.6656 421.7892,-531.3283 412.7391,-525.8195 411.2791,-532.6656"/>
</g>
<!-- Node112 -->
<g id="node6" class="node">
<title>Node112</title>
<g id="a_node6"><a xlink:href="classprecice_1_1utils_1_1MasterSlave.html#a3837ad42361b53d7e930443ba07a9eb5" target="_top" xlink:title="True if this process is running a slave. ">
<polygon fill="#ffffff" stroke="#000000" points="428.5,-480.5 428.5,-510.5 573.5,-510.5 573.5,-480.5 428.5,-480.5"/>
<text text-anchor="start" x="436.5" y="-498.5" font-family="Helvetica,sans-Serif" font-size="10.00" fill="#000000">precice::utils::MasterSlave</text>
<text text-anchor="middle" x="501" y="-487.5" font-family="Helvetica,sans-Serif" font-size="10.00" fill="#000000">::isSlave</text>
</a>
</g>
</g>
<!-- Node111&#45;&gt;Node112 -->
<g id="edge5" class="edge">
<title>Node111&#45;&gt;Node112</title>
<path fill="none" stroke="#191970" d="M329.099,-305.0651C333.4834,-308.0823 337.5234,-311.5394 341,-315.5 386.2285,-367.025 328.5653,-416.9766 377,-465.5 388.3382,-476.8589 403.1924,-484.1911 418.6638,-488.866"/>
<polygon fill="#191970" stroke="#191970" points="417.7869,-492.2544 428.3508,-491.4456 419.5882,-485.4901 417.7869,-492.2544"/>
</g>
<!-- Node113 -->
<g id="node7" class="node">
<title>Node113</title>
<g id="a_node7"><a xlink:href="classprecice_1_1com_1_1CommunicateBoundingBox.html#a00779b10325bdd0855b491a6d71038b5" target="_top" xlink:title="precice::com::Communicate\lBoundingBox::sendBoundingBox">
<polygon fill="#ffffff" stroke="#000000" points="661,-340.5 661,-370.5 836,-370.5 836,-340.5 661,-340.5"/>
<text text-anchor="start" x="669" y="-358.5" font-family="Helvetica,sans-Serif" font-size="10.00" fill="#000000">precice::com::Communicate</text>
<text text-anchor="middle" x="748.5" y="-347.5" font-family="Helvetica,sans-Serif" font-size="10.00" fill="#000000">BoundingBox::sendBoundingBox</text>
</a>
</g>
</g>
<!-- Node111&#45;&gt;Node113 -->
<g id="edge6" class="edge">
<title>Node111&#45;&gt;Node113</title>
<path fill="none" stroke="#191970" d="M328.4422,-305.0614C333.0347,-308.0821 337.2976,-311.5408 341,-315.5 378.1603,-355.2381 333.2365,-400.1774 377,-432.5 465.6616,-497.9832 519.0324,-462.8285 625,-432.5 662.5923,-421.7409 699.8654,-395.8517 723.468,-377.0565"/>
<polygon fill="#191970" stroke="#191970" points="725.68,-379.769 731.2245,-370.7408 721.26,-374.3408 725.68,-379.769"/>
</g>
<!-- Node115 -->
<g id="node9" class="node">
<title>Node115</title>
<g id="a_node9"><a xlink:href="classprecice_1_1utils_1_1MasterSlave.html#af0deae7c83eae7f8e6908a2879bfb0e3" target="_top" xlink:title="Current rank. ">
<polygon fill="#ffffff" stroke="#000000" points="428.5,-392.5 428.5,-422.5 573.5,-422.5 573.5,-392.5 428.5,-392.5"/>
<text text-anchor="start" x="436.5" y="-410.5" font-family="Helvetica,sans-Serif" font-size="10.00" fill="#000000">precice::utils::MasterSlave</text>
<text text-anchor="middle" x="501" y="-399.5" font-family="Helvetica,sans-Serif" font-size="10.00" fill="#000000">::getRank</text>
</a>
</g>
</g>
<!-- Node111&#45;&gt;Node115 -->
<g id="edge8" class="edge">
<title>Node111&#45;&gt;Node115</title>
<path fill="none" stroke="#191970" d="M326.456,-305.1695C331.6666,-308.1809 336.6034,-311.6071 341,-315.5 366.6025,-338.1693 349.5212,-363.1457 377,-383.5 389.1412,-392.4934 403.7303,-398.3841 418.5697,-402.1909"/>
<polygon fill="#191970" stroke="#191970" points="417.8081,-405.607 428.3343,-404.4033 419.3549,-398.78 417.8081,-405.607"/>
</g>
<!-- Node116 -->
<g id="node10" class="node">
<title>Node116</title>
<g id="a_node10"><a xlink:href="classprecice_1_1utils_1_1MasterSlave.html#ae8671e778dec26782120295d51bb3fde" target="_top" xlink:title="Number of ranks. This includes ranks from both participants, e.g. minimal size is 2...">
<polygon fill="#ffffff" stroke="#000000" points="428.5,-343.5 428.5,-373.5 573.5,-373.5 573.5,-343.5 428.5,-343.5"/>
<text text-anchor="start" x="436.5" y="-361.5" font-family="Helvetica,sans-Serif" font-size="10.00" fill="#000000">precice::utils::MasterSlave</text>
<text text-anchor="middle" x="501" y="-350.5" font-family="Helvetica,sans-Serif" font-size="10.00" fill="#000000">::getSize</text>
</a>
</g>
</g>
<!-- Node111&#45;&gt;Node116 -->
<g id="edge9" class="edge">
<title>Node111&#45;&gt;Node116</title>
<path fill="none" stroke="#191970" d="M316.5706,-305.1507C324.8313,-308.4545 333.1829,-311.9568 341,-315.5 357.478,-322.969 359.9344,-328.4939 377,-334.5 390.0655,-339.0983 404.233,-342.8886 418.1631,-345.9896"/>
<polygon fill="#191970" stroke="#191970" points="417.7367,-349.477 428.2453,-348.1276 419.1889,-342.6292 417.7367,-349.477"/>
</g>
<!-- Node117 -->
<g id="node11" class="node">
<title>Node117</title>
<g id="a_node11"><a xlink:href="classprecice_1_1com_1_1CommunicateBoundingBox.html#a98b475f8c420f0e4cd72beb6a6922957" target="_top" xlink:title="precice::com::Communicate\lBoundingBox::receiveBoundingBox">
<polygon fill="#ffffff" stroke="#000000" points="407,-294.5 407,-324.5 595,-324.5 595,-294.5 407,-294.5"/>
<text text-anchor="start" x="415" y="-312.5" font-family="Helvetica,sans-Serif" font-size="10.00" fill="#000000">precice::com::Communicate</text>
<text text-anchor="middle" x="501" y="-301.5" font-family="Helvetica,sans-Serif" font-size="10.00" fill="#000000">BoundingBox::receiveBoundingBox</text>
</a>
</g>
</g>
<!-- Node111&#45;&gt;Node117 -->
<g id="edge10" class="edge">
<title>Node111&#45;&gt;Node117</title>
<path fill="none" stroke="#191970" d="M330.6796,-291.8319C351.2756,-293.9684 374.2284,-296.3494 396.4452,-298.6541"/>
<polygon fill="#191970" stroke="#191970" points="396.2822,-302.1558 406.5899,-299.7064 397.0045,-295.1932 396.2822,-302.1558"/>
</g>
<!-- Node118 -->
<g id="node12" class="node">
<title>Node118</title>
<g id="a_node12"><a xlink:href="classprecice_1_1com_1_1CommunicateBoundingBox.html#a3349494fb981fb3d75309ccec6f0565b" target="_top" xlink:title="precice::com::Communicate\lBoundingBox::sendBoundingBoxMap">
<polygon fill="#ffffff" stroke="#000000" points="403.5,-245.5 403.5,-275.5 598.5,-275.5 598.5,-245.5 403.5,-245.5"/>
<text text-anchor="start" x="411.5" y="-263.5" font-family="Helvetica,sans-Serif" font-size="10.00" fill="#000000">precice::com::Communicate</text>
<text text-anchor="middle" x="501" y="-252.5" font-family="Helvetica,sans-Serif" font-size="10.00" fill="#000000">BoundingBox::sendBoundingBoxMap</text>
</a>
</g>
</g>
<!-- Node111&#45;&gt;Node118 -->
<g id="edge11" class="edge">
<title>Node111&#45;&gt;Node118</title>
<path fill="none" stroke="#191970" d="M330.6796,-277.4614C350.3435,-275.5031 372.1557,-273.331 393.4246,-271.2129"/>
<polygon fill="#191970" stroke="#191970" points="393.8742,-274.6855 403.4782,-270.2117 393.1805,-267.72 393.8742,-274.6855"/>
</g>
<!-- Node119 -->
<g id="node13" class="node">
<title>Node119</title>
<g id="a_node13"><a xlink:href="classprecice_1_1utils_1_1MasterSlave.html#a5e934392c32335daa8e2b4a01bc75fd3" target="_top" xlink:title="True if this process is running the master. ">
<polygon fill="#ffffff" stroke="#000000" points="428.5,-196.5 428.5,-226.5 573.5,-226.5 573.5,-196.5 428.5,-196.5"/>
<text text-anchor="start" x="436.5" y="-214.5" font-family="Helvetica,sans-Serif" font-size="10.00" fill="#000000">precice::utils::MasterSlave</text>
<text text-anchor="middle" x="501" y="-203.5" font-family="Helvetica,sans-Serif" font-size="10.00" fill="#000000">::isMaster</text>
</a>
</g>
</g>
<!-- Node111&#45;&gt;Node119 -->
<g id="edge13" class="edge">
<title>Node111&#45;&gt;Node119</title>
<path fill="none" stroke="#191970" d="M303.1095,-263.9427C324.8726,-254.2132 351.9176,-243.0915 377,-235.5 390.1727,-231.5131 404.34,-228.0385 418.2224,-225.0647"/>
<polygon fill="#191970" stroke="#191970" points="419.1787,-228.4411 428.2622,-222.9876 417.7605,-221.5862 419.1787,-228.4411"/>
</g>
<!-- Node120 -->
<g id="node14" class="node">
<title>Node120</title>
<g id="a_node14"><a xlink:href="classprecice_1_1com_1_1CommunicateBoundingBox.html#ae1a34e853e3ec293917646a323c3c0c8" target="_top" xlink:title="precice::com::Communicate\lBoundingBox::receiveConnectionMap">
<polygon fill="#ffffff" stroke="#000000" points="402,-147.5 402,-177.5 600,-177.5 600,-147.5 402,-147.5"/>
<text text-anchor="start" x="410" y="-165.5" font-family="Helvetica,sans-Serif" font-size="10.00" fill="#000000">precice::com::Communicate</text>
<text text-anchor="middle" x="501" y="-154.5" font-family="Helvetica,sans-Serif" font-size="10.00" fill="#000000">BoundingBox::receiveConnectionMap</text>
</a>
</g>
</g>
<!-- Node111&#45;&gt;Node120 -->
<g id="edge14" class="edge">
<title>Node111&#45;&gt;Node120</title>
<path fill="none" stroke="#191970" d="M278.4885,-263.6881C299.8799,-240.997 337.2845,-205.4024 377,-186.5 381.8879,-184.1736 386.9863,-182.0727 392.209,-180.1755"/>
<polygon fill="#191970" stroke="#191970" points="393.3627,-183.4802 401.7257,-176.9756 391.1317,-176.8452 393.3627,-183.4802"/>
</g>
<!-- Node121 -->
<g id="node15" class="node">
<title>Node121</title>
<g id="a_node15"><a xlink:href="classprecice_1_1com_1_1CommunicateBoundingBox.html#af5ba03bc76edd9b63f13dc733500378c" target="_top" xlink:title="precice::com::Communicate\lBoundingBox::broadcastSendConnectionMap">
<polygon fill="#ffffff" stroke="#000000" points="384,-98.5 384,-128.5 618,-128.5 618,-98.5 384,-98.5"/>
<text text-anchor="start" x="392" y="-116.5" font-family="Helvetica,sans-Serif" font-size="10.00" fill="#000000">precice::com::Communicate</text>
<text text-anchor="middle" x="501" y="-105.5" font-family="Helvetica,sans-Serif" font-size="10.00" fill="#000000">BoundingBox::broadcastSendConnectionMap</text>
</a>
</g>
</g>
<!-- Node111&#45;&gt;Node121 -->
<g id="edge15" class="edge">
<title>Node111&#45;&gt;Node121</title>
<path fill="none" stroke="#191970" d="M270.2383,-263.8038C287.4805,-231.277 325.5347,-168.6913 377,-137.5 379.8128,-135.7952 382.7217,-134.2079 385.7058,-132.73"/>
<polygon fill="#191970" stroke="#191970" points="387.1749,-135.9071 394.8627,-128.6168 384.3066,-129.5217 387.1749,-135.9071"/>
</g>
<!-- Node122 -->
<g id="node16" class="node">
<title>Node122</title>
<g id="a_node16"><a xlink:href="classprecice_1_1com_1_1CommunicateBoundingBox.html#afcaa0572224982292e9e9f5d9be99dcf" target="_top" xlink:title="precice::com::Communicate\lBoundingBox::broadcastReceiveConnectionMap">
<polygon fill="#ffffff" stroke="#000000" points="377,-49.5 377,-79.5 625,-79.5 625,-49.5 377,-49.5"/>
<text text-anchor="start" x="385" y="-67.5" font-family="Helvetica,sans-Serif" font-size="10.00" fill="#000000">precice::com::Communicate</text>
<text text-anchor="middle" x="501" y="-56.5" font-family="Helvetica,sans-Serif" font-size="10.00" fill="#000000">BoundingBox::broadcastReceiveConnectionMap</text>
</a>
</g>
</g>
<!-- Node111&#45;&gt;Node122 -->
<g id="edge16" class="edge">
<title>Node111&#45;&gt;Node122</title>
<path fill="none" stroke="#191970" d="M273.6883,-263.9628C290.2114,-238.9289 318.5713,-195.1733 341,-156.5 358.1558,-126.9186 349.5212,-108.8543 377,-88.5 378.8611,-87.1214 380.7797,-85.8158 382.748,-84.5793"/>
<polygon fill="#191970" stroke="#191970" points="384.6508,-87.5254 391.671,-79.5902 381.2346,-81.4156 384.6508,-87.5254"/>
</g>
<!-- Node114 -->
<g id="node8" class="node">
<title>Node114</title>
<g id="a_node8"><a xlink:href="classprecice_1_1mesh_1_1BoundingBox.html#a993a69cf28a33d10c5c07471ffe174d8" target="_top" xlink:title="Return data as std::vector. ">
<polygon fill="#ffffff" stroke="#000000" points="872,-340.5 872,-370.5 1027,-370.5 1027,-340.5 872,-340.5"/>
<text text-anchor="start" x="880" y="-358.5" font-family="Helvetica,sans-Serif" font-size="10.00" fill="#000000">precice::mesh::BoundingBox</text>
<text text-anchor="middle" x="949.5" y="-347.5" font-family="Helvetica,sans-Serif" font-size="10.00" fill="#000000">::dataVector</text>
</a>
</g>
</g>
<!-- Node113&#45;&gt;Node114 -->
<g id="edge7" class="edge">
<title>Node113&#45;&gt;Node114</title>
<path fill="none" stroke="#191970" d="M836.0768,-355.5C844.6691,-355.5 853.3895,-355.5 861.9812,-355.5"/>
<polygon fill="#191970" stroke="#191970" points="861.9926,-359.0001 871.9926,-355.5 861.9925,-352.0001 861.9926,-359.0001"/>
</g>
<!-- Node118&#45;&gt;Node113 -->
<g id="edge12" class="edge">
<title>Node118&#45;&gt;Node113</title>
<path fill="none" stroke="#191970" d="M592.6739,-275.5513C603.7141,-278.3657 614.713,-281.6596 625,-285.5 658.7245,-298.0901 694.1691,-319.1009 718.3924,-334.8249"/>
<polygon fill="#191970" stroke="#191970" points="716.5088,-337.7752 726.7852,-340.3534 720.3595,-331.9295 716.5088,-337.7752"/>
</g>
<!-- Node124 -->
<g id="node18" class="node">
<title>Node124</title>
<g id="a_node18"><a xlink:href="classprecice_1_1mesh_1_1Data.html#a29a6012e68e0ef47b5b2f0f0fb5b91c1" target="_top" xlink:title="Sets the data counter to zero. ">
<polygon fill="#ffffff" stroke="#000000" points="444,-.5 444,-30.5 558,-30.5 558,-.5 444,-.5"/>
<text text-anchor="start" x="452" y="-18.5" font-family="Helvetica,sans-Serif" font-size="10.00" fill="#000000">precice::mesh::Data</text>
<text text-anchor="middle" x="501" y="-7.5" font-family="Helvetica,sans-Serif" font-size="10.00" fill="#000000">::resetDataCount</text>
</a>
</g>
</g>
<!-- Node123&#45;&gt;Node124 -->
<g id="edge18" class="edge">
<title>Node123&#45;&gt;Node124</title>
<path fill="none" stroke="#191970" d="M268.2687,-127.8578C285.9901,-107.8734 329.8677,-61.9324 377,-39.5 394.5381,-31.1528 414.7855,-25.7087 433.7674,-22.158"/>
<polygon fill="#191970" stroke="#191970" points="434.5949,-25.5671 443.8561,-20.4212 433.4073,-18.6686 434.5949,-25.5671"/>
</g>
</g>
</svg>
        <g id="navigator" transform="translate(0 0)" fill="#404254">
                <rect fill="#f2f5e9" fill-opacity="0.5" stroke="#606060" stroke-width=".5" x="0" y="0" width="60" height="60"/>
                <use id="zoomplus" xlink:href="#zoomPlus" x="17" y="9" onmousedown="handleZoom(evt,'in')"/>
                <use id="zoomminus" xlink:href="#zoomMin" x="42" y="9" onmousedown="handleZoom(evt,'out')"/>
                <use id="reset" xlink:href="#resetDef" x="30" y="36" onmousedown="handleReset()"/>
                <g id="arrowUp" xlink:href="#dirArrow" transform="translate(30 24)" onmousedown="handlePan(0,-1)">
                  <use xlink:href="#rim" fill="#404040">
                        <set attributeName="fill" to="#808080" begin="arrowUp.mouseover" end="arrowUp.mouseout"/>
                  </use>
                  <path fill="none" stroke="white" stroke-width="1.5" d="M0,-3.0v7 M-2.5,-0.5L0,-3.0L2.5,-0.5"/>
                </g>
                <g id="arrowRight" xlink:href="#dirArrow" transform="rotate(90) translate(36 -43)" onmousedown="handlePan(1,0)">
                  <use xlink:href="#rim" fill="#404040">
                        <set attributeName="fill" to="#808080" begin="arrowRight.mouseover" end="arrowRight.mouseout"/>
                  </use>
                  <path fill="none" stroke="white" stroke-width="1.5" d="M0,-3.0v7 M-2.5,-0.5L0,-3.0L2.5,-0.5"/>
                </g>
                <g id="arrowDown" xlink:href="#dirArrow" transform="rotate(180) translate(-30 -48)" onmousedown="handlePan(0,1)">
                  <use xlink:href="#rim" fill="#404040">
                        <set attributeName="fill" to="#808080" begin="arrowDown.mouseover" end="arrowDown.mouseout"/>
                  </use>
                  <path fill="none" stroke="white" stroke-width="1.5" d="M0,-3.0v7 M-2.5,-0.5L0,-3.0L2.5,-0.5"/>
                </g>
                <g id="arrowLeft" xlink:href="#dirArrow" transform="rotate(270) translate(-36 17)" onmousedown="handlePan(-1,0)">
                  <use xlink:href="#rim" fill="#404040">
                        <set attributeName="fill" to="#808080" begin="arrowLeft.mouseover" end="arrowLeft.mouseout"/>
                  </use>
                  <path fill="none" stroke="white" stroke-width="1.5" d="M0,-3.0v7 M-2.5,-0.5L0,-3.0L2.5,-0.5"/>
                </g>
        </g>
        <svg viewBox="0 0 15 15" width="100%" height="30px" preserveAspectRatio="xMaxYMin meet">
         <g id="arrow_out" transform="scale(0.3 0.3)">
          <a xlink:href="ProvidedPartitionTest_8cpp_ad2f3c56e63f7eeb785ba8247ca11f04b_cgraph_org.svg" target="_base">
           <rect id="button" ry="5" rx="5" y="6" x="6" height="38" width="38"
                fill="#f2f5e9" fill-opacity="0.5" stroke="#606060" stroke-width="1.0"/>
           <path id="arrow"
             d="M 11.500037,31.436501 C 11.940474,20.09759 22.043105,11.32322 32.158766,21.979434 L 37.068811,17.246167 C 37.068811,17.246167 37.088388,32 37.088388,32 L 22.160133,31.978069 C 22.160133,31.978069 26.997745,27.140456 26.997745,27.140456 C 18.528582,18.264221 13.291696,25.230495 11.500037,31.436501 z"
             style="fill:#404040;"/>
          </a>
         </g>
        </svg>
</svg>
