<?xml version="1.0" encoding="UTF-8" standalone="no"?>
<!DOCTYPE svg PUBLIC "-//W3C//DTD SVG 1.1//EN"
 "http://www.w3.org/Graphics/SVG/1.1/DTD/svg11.dtd">
<!-- Generated by graphviz version 2.40.1 (20161225.0304)
 -->
<!-- Title: BOOST_AUTO_TEST_CASE Pages: 1 -->
<svg width="775pt" height="416pt"
 viewBox="0.00 0.00 775.00 415.50" xmlns="http://www.w3.org/2000/svg" xmlns:xlink="http://www.w3.org/1999/xlink">
<g id="graph0" class="graph" transform="scale(1 1) rotate(0) translate(4 411.5)">
<title>BOOST_AUTO_TEST_CASE</title>
<polygon fill="#ffffff" stroke="transparent" points="-4,4 -4,-411.5 771,-411.5 771,4 -4,4"/>
<!-- Node236 -->
<g id="node1" class="node">
<title>Node236</title>
<polygon fill="#bfbfbf" stroke="#000000" points="0,-235.5 0,-254.5 143,-254.5 143,-235.5 0,-235.5"/>
<text text-anchor="middle" x="71.5" y="-242.5" font-family="Helvetica,sans-Serif" font-size="10.00" fill="#000000">BOOST_AUTO_TEST_CASE</text>
</g>
<!-- Node237 -->
<g id="node2" class="node">
<title>Node237</title>
<g id="a_node2"><a xlink:href="RadialBasisFctMappingTest_8cpp.html#a2201bafe4655348e36cd1ff12deba24c" target="_top" xlink:title="perform2DTestConsistentMapping\lVector">
<polygon fill="#ffffff" stroke="#000000" points="179,-367 179,-397 361,-397 361,-367 179,-367"/>
<text text-anchor="start" x="187" y="-385" font-family="Helvetica,sans-Serif" font-size="10.00" fill="#000000">perform2DTestConsistentMapping</text>
<text text-anchor="middle" x="270" y="-374" font-family="Helvetica,sans-Serif" font-size="10.00" fill="#000000">Vector</text>
</a>
</g>
</g>
<!-- Node236&#45;&gt;Node237 -->
<g id="edge1" class="edge">
<title>Node236&#45;&gt;Node237</title>
<path fill="none" stroke="#191970" d="M78.0327,-254.7749C93.1237,-276.5765 132.6835,-329.4248 179,-357 182.6426,-359.1687 186.4786,-361.1544 190.4315,-362.9719"/>
<polygon fill="#191970" stroke="#191970" points="189.2561,-366.2743 199.8316,-366.9147 191.9637,-359.8191 189.2561,-366.2743"/>
</g>
<!-- Node248 -->
<g id="node13" class="node">
<title>Node248</title>
<g id="a_node13"><a xlink:href="RadialBasisFctMappingTest_8cpp.html#a5423d88d692cb548f7ad7207ed87dffb" target="_top" xlink:title="perform3DTestConsistentMapping">
<polygon fill="#ffffff" stroke="#000000" points="179,-328.5 179,-347.5 361,-347.5 361,-328.5 179,-328.5"/>
<text text-anchor="middle" x="270" y="-335.5" font-family="Helvetica,sans-Serif" font-size="10.00" fill="#000000">perform3DTestConsistentMapping</text>
</a>
</g>
</g>
<!-- Node236&#45;&gt;Node248 -->
<g id="edge12" class="edge">
<title>Node236&#45;&gt;Node248</title>
<path fill="none" stroke="#191970" d="M82.2294,-254.5968C100.6417,-270.5289 140.0472,-302.3306 179,-319 185.0812,-321.6024 191.5476,-323.8585 198.12,-325.8124"/>
<polygon fill="#191970" stroke="#191970" points="197.2232,-329.1957 207.7927,-328.4643 199.074,-322.4448 197.2232,-329.1957"/>
</g>
<!-- Node249 -->
<g id="node14" class="node">
<title>Node249</title>
<g id="a_node14"><a xlink:href="RadialBasisFctMappingTest_8cpp.html#a20a0621775b46ccae21c2e6032bf3900" target="_top" xlink:title="perform2DTestScaledConsistent\lMapping">
<polygon fill="#ffffff" stroke="#000000" points="183.5,-83 183.5,-113 356.5,-113 356.5,-83 183.5,-83"/>
<text text-anchor="start" x="191.5" y="-101" font-family="Helvetica,sans-Serif" font-size="10.00" fill="#000000">perform2DTestScaledConsistent</text>
<text text-anchor="middle" x="270" y="-90" font-family="Helvetica,sans-Serif" font-size="10.00" fill="#000000">Mapping</text>
</a>
</g>
</g>
<!-- Node236&#45;&gt;Node249 -->
<g id="edge20" class="edge">
<title>Node236&#45;&gt;Node249</title>
<path fill="none" stroke="#191970" d="M77.1652,-235.3814C91.2785,-212.2837 130.3949,-153.3582 179,-123 182.3438,-120.9115 185.8629,-118.9948 189.4949,-117.236"/>
<polygon fill="#191970" stroke="#191970" points="190.9736,-120.4093 198.72,-113.1813 188.1569,-114.0009 190.9736,-120.4093"/>
</g>
<!-- Node253 -->
<g id="node18" class="node">
<title>Node253</title>
<g id="a_node18"><a xlink:href="RadialBasisFctMappingTest_8cpp.html#a0745d5d9b8dcea11e1bbc20b5c1a7257" target="_top" xlink:title="perform3DTestScaledConsistent\lMapping">
<polygon fill="#ffffff" stroke="#000000" points="183.5,-132 183.5,-162 356.5,-162 356.5,-132 183.5,-132"/>
<text text-anchor="start" x="191.5" y="-150" font-family="Helvetica,sans-Serif" font-size="10.00" fill="#000000">perform3DTestScaledConsistent</text>
<text text-anchor="middle" x="270" y="-139" font-family="Helvetica,sans-Serif" font-size="10.00" fill="#000000">Mapping</text>
</a>
</g>
</g>
<!-- Node236&#45;&gt;Node253 -->
<g id="edge30" class="edge">
<title>Node236&#45;&gt;Node253</title>
<path fill="none" stroke="#191970" d="M82.9752,-235.3044C101.84,-219.8224 141.1047,-189.4864 179,-172 184.2417,-169.5813 189.7643,-167.3548 195.3912,-165.3134"/>
<polygon fill="#191970" stroke="#191970" points="196.5991,-168.5994 204.9283,-162.0515 194.3337,-161.9761 196.5991,-168.5994"/>
</g>
<!-- Node254 -->
<g id="node19" class="node">
<title>Node254</title>
<g id="a_node19"><a xlink:href="RadialBasisFctMappingTest_8cpp.html#a98631e0f8282d85bafc9d8a601cef301" target="_top" xlink:title="perform2DTestConservative\lMapping">
<polygon fill="#ffffff" stroke="#000000" points="193.5,-181 193.5,-211 346.5,-211 346.5,-181 193.5,-181"/>
<text text-anchor="start" x="201.5" y="-199" font-family="Helvetica,sans-Serif" font-size="10.00" fill="#000000">perform2DTestConservative</text>
<text text-anchor="middle" x="270" y="-188" font-family="Helvetica,sans-Serif" font-size="10.00" fill="#000000">Mapping</text>
</a>
</g>
</g>
<!-- Node236&#45;&gt;Node254 -->
<g id="edge38" class="edge">
<title>Node236&#45;&gt;Node254</title>
<path fill="none" stroke="#191970" d="M110.244,-235.436C135.4845,-229.2053 169.1675,-220.8906 199.0966,-213.5026"/>
<polygon fill="#191970" stroke="#191970" points="200.2152,-216.8316 209.085,-211.037 198.5375,-210.0356 200.2152,-216.8316"/>
</g>
<!-- Node257 -->
<g id="node22" class="node">
<title>Node257</title>
<g id="a_node22"><a xlink:href="RadialBasisFctMappingTest_8cpp.html#a10fcc20a01095297078f359afc02b89f" target="_top" xlink:title="perform2DTestConservative\lMappingVector">
<polygon fill="#ffffff" stroke="#000000" points="193.5,-230 193.5,-260 346.5,-260 346.5,-230 193.5,-230"/>
<text text-anchor="start" x="201.5" y="-248" font-family="Helvetica,sans-Serif" font-size="10.00" fill="#000000">perform2DTestConservative</text>
<text text-anchor="middle" x="270" y="-237" font-family="Helvetica,sans-Serif" font-size="10.00" fill="#000000">MappingVector</text>
</a>
</g>
</g>
<!-- Node236&#45;&gt;Node257 -->
<g id="edge48" class="edge">
<title>Node236&#45;&gt;Node257</title>
<path fill="none" stroke="#191970" d="M143.1631,-245C156.1716,-245 169.867,-245 183.2539,-245"/>
<polygon fill="#191970" stroke="#191970" points="183.4145,-248.5001 193.4145,-245 183.4144,-241.5001 183.4145,-248.5001"/>
</g>
<!-- Node258 -->
<g id="node23" class="node">
<title>Node258</title>
<g id="a_node23"><a xlink:href="RadialBasisFctMappingTest_8cpp.html#a65695d085606d48f66f1d1ed28919237" target="_top" xlink:title="perform3DTestConservative\lMapping">
<polygon fill="#ffffff" stroke="#000000" points="193.5,-279 193.5,-309 346.5,-309 346.5,-279 193.5,-279"/>
<text text-anchor="start" x="201.5" y="-297" font-family="Helvetica,sans-Serif" font-size="10.00" fill="#000000">perform3DTestConservative</text>
<text text-anchor="middle" x="270" y="-286" font-family="Helvetica,sans-Serif" font-size="10.00" fill="#000000">Mapping</text>
</a>
</g>
</g>
<!-- Node236&#45;&gt;Node258 -->
<g id="edge57" class="edge">
<title>Node236&#45;&gt;Node258</title>
<path fill="none" stroke="#191970" d="M110.244,-254.564C135.4845,-260.7947 169.1675,-269.1094 199.0966,-276.4974"/>
<polygon fill="#191970" stroke="#191970" points="198.5375,-279.9644 209.085,-278.963 200.2152,-273.1684 198.5375,-279.9644"/>
</g>
<!-- Node238 -->
<g id="node3" class="node">
<title>Node238</title>
<g id="a_node3"><a xlink:href="namespaceprecice_1_1testing.html#a08533fd83bad3d7f27ea7f4a35a14aa4" target="_top" xlink:title="precice::testing::nextMeshID">
<polygon fill="#ffffff" stroke="#000000" points="407.5,-202.5 407.5,-221.5 562.5,-221.5 562.5,-202.5 407.5,-202.5"/>
<text text-anchor="middle" x="485" y="-209.5" font-family="Helvetica,sans-Serif" font-size="10.00" fill="#000000">precice::testing::nextMeshID</text>
</a>
</g>
</g>
<!-- Node237&#45;&gt;Node238 -->
<g id="edge2" class="edge">
<title>Node237&#45;&gt;Node238</title>
<path fill="none" stroke="#191970" d="M348.1062,-366.7977C352.7934,-364.042 357.1575,-360.8036 361,-357 402.3918,-316.0278 354.488,-270.8087 397,-231 398.4974,-229.5978 400.0726,-228.2895 401.7136,-227.069"/>
<polygon fill="#191970" stroke="#191970" points="403.7604,-229.9181 410.4125,-221.6718 400.0699,-223.97 403.7604,-229.9181"/>
</g>
<!-- Node240 -->
<g id="node5" class="node">
<title>Node240</title>
<g id="a_node5"><a xlink:href="RadialBasisFctMappingTest_8cpp.html#a091feb1893c75899e59fa939e678debe" target="_top" xlink:title="addGlobalIndex">
<polygon fill="#ffffff" stroke="#000000" points="438.5,-164.5 438.5,-183.5 531.5,-183.5 531.5,-164.5 438.5,-164.5"/>
<text text-anchor="middle" x="485" y="-171.5" font-family="Helvetica,sans-Serif" font-size="10.00" fill="#000000">addGlobalIndex</text>
</a>
</g>
</g>
<!-- Node237&#45;&gt;Node240 -->
<g id="edge4" class="edge">
<title>Node237&#45;&gt;Node240</title>
<path fill="none" stroke="#191970" d="M348.7991,-366.8079C353.2613,-364.0449 357.3904,-360.8024 361,-357 412.377,-302.878 344.1419,-245.6765 397,-193 405.4762,-184.5529 416.7535,-179.459 428.3983,-176.468"/>
<polygon fill="#191970" stroke="#191970" points="429.1372,-179.8893 438.2129,-174.4228 427.7092,-173.0365 429.1372,-179.8893"/>
</g>
<!-- Node241 -->
<g id="node6" class="node">
<title>Node241</title>
<g id="a_node6"><a xlink:href="classprecice_1_1mapping_1_1Mapping.html#a5bf2ecf9adb1ae66977c1223f841a61f" target="_top" xlink:title="Sets input and output meshes carrying data to be mapped. ">
<polygon fill="#ffffff" stroke="#000000" points="411,-115 411,-145 559,-145 559,-115 411,-115"/>
<text text-anchor="start" x="419" y="-133" font-family="Helvetica,sans-Serif" font-size="10.00" fill="#000000">precice::mapping::Mapping</text>
<text text-anchor="middle" x="485" y="-122" font-family="Helvetica,sans-Serif" font-size="10.00" fill="#000000">::setMeshes</text>
</a>
</g>
</g>
<!-- Node237&#45;&gt;Node241 -->
<g id="edge5" class="edge">
<title>Node237&#45;&gt;Node241</title>
<path fill="none" stroke="#191970" d="M348.9741,-366.9709C353.3947,-364.169 357.4666,-360.8734 361,-357 422.458,-289.6281 335.8352,-222.6382 397,-155 398.6012,-153.2293 400.3178,-151.5804 402.1307,-150.045"/>
<polygon fill="#191970" stroke="#191970" points="404.5029,-152.6536 410.6368,-144.015 400.4546,-146.9429 404.5029,-152.6536"/>
</g>
<!-- Node244 -->
<g id="node9" class="node">
<title>Node244</title>
<g id="a_node9"><a xlink:href="classprecice_1_1mapping_1_1Mapping.html#ae7fcb351e225322b05e4cd7c45215b52" target="_top" xlink:title="Returns true, if the mapping has been computed. ">
<polygon fill="#ffffff" stroke="#000000" points="411,-328 411,-358 559,-358 559,-328 411,-328"/>
<text text-anchor="start" x="419" y="-346" font-family="Helvetica,sans-Serif" font-size="10.00" fill="#000000">precice::mapping::Mapping</text>
<text text-anchor="middle" x="485" y="-335" font-family="Helvetica,sans-Serif" font-size="10.00" fill="#000000">::hasComputedMapping</text>
</a>
</g>
</g>
<!-- Node237&#45;&gt;Node244 -->
<g id="edge8" class="edge">
<title>Node237&#45;&gt;Node244</title>
<path fill="none" stroke="#191970" d="M352.8171,-366.9774C368.4402,-364.1434 384.7985,-361.1761 400.4732,-358.3328"/>
<polygon fill="#191970" stroke="#191970" points="401.4458,-361.7135 410.6605,-356.4848 400.1963,-354.8259 401.4458,-361.7135"/>
</g>
<!-- Node245 -->
<g id="node10" class="node">
<title>Node245</title>
<g id="a_node10"><a xlink:href="classprecice_1_1mesh_1_1Vertex.html#a38d26bf077919b0b6d59298720adcb2f" target="_top" xlink:title="Sets the coordinates of the vertex. ">
<polygon fill="#ffffff" stroke="#000000" points="424,-377 424,-407 546,-407 546,-377 424,-377"/>
<text text-anchor="start" x="432" y="-395" font-family="Helvetica,sans-Serif" font-size="10.00" fill="#000000">precice::mesh::Vertex</text>
<text text-anchor="middle" x="485" y="-384" font-family="Helvetica,sans-Serif" font-size="10.00" fill="#000000">::setCoords</text>
</a>
</g>
</g>
<!-- Node237&#45;&gt;Node245 -->
<g id="edge9" class="edge">
<title>Node237&#45;&gt;Node245</title>
<path fill="none" stroke="#191970" d="M361.1794,-386.2409C378.7134,-387.0564 396.8406,-387.8996 413.6359,-388.6807"/>
<polygon fill="#191970" stroke="#191970" points="413.7523,-392.1898 423.9041,-389.1583 414.0776,-385.1974 413.7523,-392.1898"/>
</g>
<!-- Node246 -->
<g id="node11" class="node">
<title>Node246</title>
<g id="a_node11"><a xlink:href="classprecice_1_1mapping_1_1Mapping.html#abf2679ec4bbb86bd2380b088528cc1ff" target="_top" xlink:title="Computes the mapping coefficients from the in&#45; and output mesh. ">
<polygon fill="#ffffff" stroke="#000000" points="411,-279 411,-309 559,-309 559,-279 411,-279"/>
<text text-anchor="start" x="419" y="-297" font-family="Helvetica,sans-Serif" font-size="10.00" fill="#000000">precice::mapping::Mapping</text>
<text text-anchor="middle" x="485" y="-286" font-family="Helvetica,sans-Serif" font-size="10.00" fill="#000000">::computeMapping</text>
</a>
</g>
</g>
<!-- Node237&#45;&gt;Node246 -->
<g id="edge10" class="edge">
<title>Node237&#45;&gt;Node246</title>
<path fill="none" stroke="#191970" d="M340.1939,-366.9572C347.4581,-364.1672 354.5368,-360.8766 361,-357 380.951,-345.0336 377.1012,-331.0529 397,-319 400.5914,-316.8246 404.3796,-314.8319 408.2856,-313.0074"/>
<polygon fill="#191970" stroke="#191970" points="409.7486,-316.1885 417.5761,-309.0485 407.0045,-309.7488 409.7486,-316.1885"/>
</g>
<!-- Node247 -->
<g id="node12" class="node">
<title>Node247</title>
<g id="a_node12"><a xlink:href="classprecice_1_1mapping_1_1Mapping.html#a843b62d737d4e113bfa4db18682eb6fe" target="_top" xlink:title="Maps input data to output data from input mesh to output mesh. ">
<polygon fill="#ffffff" stroke="#000000" points="397,-240.5 397,-259.5 573,-259.5 573,-240.5 397,-240.5"/>
<text text-anchor="middle" x="485" y="-247.5" font-family="Helvetica,sans-Serif" font-size="10.00" fill="#000000">precice::mapping::Mapping::map</text>
</a>
</g>
</g>
<!-- Node237&#45;&gt;Node247 -->
<g id="edge11" class="edge">
<title>Node237&#45;&gt;Node247</title>
<path fill="none" stroke="#191970" d="M346.3112,-366.9931C351.6009,-364.2039 356.5785,-360.9037 361,-357 392.3695,-329.3041 365.0203,-296.989 397,-270 399.4358,-267.9443 402.0402,-266.089 404.7711,-264.4153"/>
<polygon fill="#191970" stroke="#191970" points="406.6261,-267.3952 413.871,-259.6646 403.3865,-261.1899 406.6261,-267.3952"/>
</g>
<!-- Node239 -->
<g id="node4" class="node">
<title>Node239</title>
<g id="a_node4"><a xlink:href="classprecice_1_1utils_1_1ManageUniqueIDs.html#a02be264c279698ae293587b6576088b5" target="_top" xlink:title="precice::utils::ManageUnique\lIDs::getFreeID">
<polygon fill="#ffffff" stroke="#000000" points="609,-213 609,-243 767,-243 767,-213 609,-213"/>
<text text-anchor="start" x="617" y="-231" font-family="Helvetica,sans-Serif" font-size="10.00" fill="#000000">precice::utils::ManageUnique</text>
<text text-anchor="middle" x="688" y="-220" font-family="Helvetica,sans-Serif" font-size="10.00" fill="#000000">IDs::getFreeID</text>
</a>
</g>
</g>
<!-- Node238&#45;&gt;Node239 -->
<g id="edge3" class="edge">
<title>Node238&#45;&gt;Node239</title>
<path fill="none" stroke="#191970" d="M562.6145,-218.1174C574.4195,-219.0478 586.6816,-220.0143 598.7114,-220.9625"/>
<polygon fill="#191970" stroke="#191970" points="598.5026,-224.4568 608.7467,-221.7534 599.0527,-217.4784 598.5026,-224.4568"/>
</g>
<!-- Node242 -->
<g id="node7" class="node">
<title>Node242</title>
<g id="a_node7"><a xlink:href="classprecice_1_1mapping_1_1Mapping.html#a61c3c55af467ada2bdd735efa0f960e4" target="_top" xlink:title="Returns pointer to input mesh. ">
<polygon fill="#ffffff" stroke="#000000" points="614,-115 614,-145 762,-145 762,-115 614,-115"/>
<text text-anchor="start" x="622" y="-133" font-family="Helvetica,sans-Serif" font-size="10.00" fill="#000000">precice::mapping::Mapping</text>
<text text-anchor="middle" x="688" y="-122" font-family="Helvetica,sans-Serif" font-size="10.00" fill="#000000">::input</text>
</a>
</g>
</g>
<!-- Node241&#45;&gt;Node242 -->
<g id="edge6" class="edge">
<title>Node241&#45;&gt;Node242</title>
<path fill="none" stroke="#191970" d="M559.1494,-130C573.5972,-130 588.8441,-130 603.5949,-130"/>
<polygon fill="#191970" stroke="#191970" points="603.7119,-133.5001 613.7119,-130 603.7119,-126.5001 603.7119,-133.5001"/>
</g>
<!-- Node243 -->
<g id="node8" class="node">
<title>Node243</title>
<g id="a_node8"><a xlink:href="classprecice_1_1mapping_1_1Mapping.html#a07a71a54b71eda6d54510c94fb188e70" target="_top" xlink:title="Returns pointer to output mesh. ">
<polygon fill="#ffffff" stroke="#000000" points="614,-164 614,-194 762,-194 762,-164 614,-164"/>
<text text-anchor="start" x="622" y="-182" font-family="Helvetica,sans-Serif" font-size="10.00" fill="#000000">precice::mapping::Mapping</text>
<text text-anchor="middle" x="688" y="-171" font-family="Helvetica,sans-Serif" font-size="10.00" fill="#000000">::output</text>
</a>
</g>
</g>
<!-- Node241&#45;&gt;Node243 -->
<g id="edge7" class="edge">
<title>Node241&#45;&gt;Node243</title>
<path fill="none" stroke="#191970" d="M547.2863,-145.0346C569.0125,-150.2789 593.5714,-156.2069 616.0201,-161.6255"/>
<polygon fill="#191970" stroke="#191970" points="615.2894,-165.0496 625.8315,-163.9938 616.932,-158.245 615.2894,-165.0496"/>
</g>
<!-- Node248&#45;&gt;Node238 -->
<g id="edge13" class="edge">
<title>Node248&#45;&gt;Node238</title>
<path fill="none" stroke="#191970" d="M345.7701,-328.4632C351.2464,-325.933 356.4103,-322.8202 361,-319 393.4787,-291.9664 364.6135,-258.144 397,-231 398.9915,-229.3309 401.0954,-227.7984 403.2889,-226.3919"/>
<polygon fill="#191970" stroke="#191970" points="405.0364,-229.4256 412.144,-221.5686 401.688,-223.2784 405.0364,-229.4256"/>
</g>
<!-- Node248&#45;&gt;Node240 -->
<g id="edge14" class="edge">
<title>Node248&#45;&gt;Node240</title>
<path fill="none" stroke="#191970" d="M347.5457,-328.3473C352.4258,-325.8166 356.9818,-322.737 361,-319 403.6473,-279.3363 354.488,-232.8087 397,-193 405.5592,-184.9851 416.6595,-180.036 428.0764,-177.0443"/>
<polygon fill="#191970" stroke="#191970" points="429.0892,-180.4069 438.1351,-174.8912 427.624,-173.5619 429.0892,-180.4069"/>
</g>
<!-- Node248&#45;&gt;Node241 -->
<g id="edge15" class="edge">
<title>Node248&#45;&gt;Node241</title>
<path fill="none" stroke="#191970" d="M348.2366,-328.3947C352.8932,-325.8431 357.2147,-322.7467 361,-319 414.0371,-266.5038 345.8585,-209.3446 397,-155 398.6361,-153.2615 400.3834,-151.6409 402.2233,-150.1304"/>
<polygon fill="#191970" stroke="#191970" points="404.5864,-152.7519 410.8252,-144.1887 400.608,-146.9924 404.5864,-152.7519"/>
</g>
<!-- Node248&#45;&gt;Node244 -->
<g id="edge16" class="edge">
<title>Node248&#45;&gt;Node244</title>
<path fill="none" stroke="#191970" d="M361.1794,-340.1205C374.274,-340.425 387.6995,-340.7372 400.6539,-341.0385"/>
<polygon fill="#191970" stroke="#191970" points="400.8482,-344.5438 410.9269,-341.2774 401.011,-337.5457 400.8482,-344.5438"/>
</g>
<!-- Node248&#45;&gt;Node245 -->
<g id="edge17" class="edge">
<title>Node248&#45;&gt;Node245</title>
<path fill="none" stroke="#191970" d="M315.9411,-347.5855C330.3994,-350.7391 346.4009,-354.3709 361,-358 377.1154,-362.006 380.9896,-363.5931 397,-368 404.4073,-370.0389 412.1677,-372.1669 419.8811,-374.2772"/>
<polygon fill="#191970" stroke="#191970" points="419.0274,-377.6721 429.5964,-376.9325 420.873,-370.9198 419.0274,-377.6721"/>
</g>
<!-- Node248&#45;&gt;Node246 -->
<g id="edge18" class="edge">
<title>Node248&#45;&gt;Node246</title>
<path fill="none" stroke="#191970" d="M316.6518,-328.4527C341.3986,-323.3882 372.56,-317.011 401.325,-311.1242"/>
<polygon fill="#191970" stroke="#191970" points="402.29,-314.4993 411.3852,-309.0654 400.8864,-307.6415 402.29,-314.4993"/>
</g>
<!-- Node248&#45;&gt;Node247 -->
<g id="edge19" class="edge">
<title>Node248&#45;&gt;Node247</title>
<path fill="none" stroke="#191970" d="M341.571,-328.3934C348.4193,-325.923 355.0272,-322.841 361,-319 383.7293,-304.3832 374.4006,-284.8168 397,-270 400.8632,-267.4672 405.0038,-265.2525 409.3067,-263.3163"/>
<polygon fill="#191970" stroke="#191970" points="410.9286,-266.4388 418.9411,-259.5069 408.3546,-259.9291 410.9286,-266.4388"/>
</g>
<!-- Node249&#45;&gt;Node238 -->
<g id="edge21" class="edge">
<title>Node249&#45;&gt;Node238</title>
<path fill="none" stroke="#191970" d="M345.5142,-113.1954C351.047,-115.9403 356.2937,-119.179 361,-123 388.1599,-145.0508 369.2391,-171.7108 397,-193 399.3255,-194.7834 401.7824,-196.4074 404.339,-197.886"/>
<polygon fill="#191970" stroke="#191970" points="402.8565,-201.0575 413.3695,-202.3721 405.9709,-194.7885 402.8565,-201.0575"/>
</g>
<!-- Node249&#45;&gt;Node240 -->
<g id="edge22" class="edge">
<title>Node249&#45;&gt;Node240</title>
<path fill="none" stroke="#191970" d="M338.4355,-113.0897C346.2561,-115.8896 353.9446,-119.1696 361,-123 379.8135,-133.2139 377.9105,-145.3117 397,-155 406.7106,-159.9283 417.6536,-163.5814 428.439,-166.2883"/>
<polygon fill="#191970" stroke="#191970" points="427.7331,-169.717 438.2598,-168.5177 429.2828,-162.8907 427.7331,-169.717"/>
</g>
<!-- Node249&#45;&gt;Node241 -->
<g id="edge23" class="edge">
<title>Node249&#45;&gt;Node241</title>
<path fill="none" stroke="#191970" d="M356.5194,-110.8773C371.1196,-113.0504 386.2571,-115.3034 400.7972,-117.4675"/>
<polygon fill="#191970" stroke="#191970" points="400.3477,-120.9391 410.754,-118.9494 401.3783,-114.0153 400.3477,-120.9391"/>
</g>
<!-- Node249&#45;&gt;Node244 -->
<g id="edge24" class="edge">
<title>Node249&#45;&gt;Node244</title>
<path fill="none" stroke="#191970" d="M348.9507,-113.0506C353.3769,-115.8473 357.4564,-119.136 361,-123 420.8621,-188.2753 337.0772,-253.7803 397,-319 398.6105,-320.7528 400.3352,-322.3825 402.1552,-323.8976"/>
<polygon fill="#191970" stroke="#191970" points="400.4787,-326.9949 410.6867,-329.8317 404.4758,-321.2483 400.4787,-326.9949"/>
</g>
<!-- Node249&#45;&gt;Node246 -->
<g id="edge25" class="edge">
<title>Node249&#45;&gt;Node246</title>
<path fill="none" stroke="#191970" d="M348.2659,-113.0439C352.9156,-115.8368 357.2276,-119.1268 361,-123 407.6307,-170.8763 350.5777,-220.9216 397,-269 398.6582,-270.7174 400.4251,-272.3193 402.2822,-273.8134"/>
<polygon fill="#191970" stroke="#191970" points="400.7061,-276.9738 410.945,-279.697 404.6391,-271.1831 400.7061,-276.9738"/>
</g>
<!-- Node249&#45;&gt;Node247 -->
<g id="edge26" class="edge">
<title>Node249&#45;&gt;Node247</title>
<path fill="none" stroke="#191970" d="M347.4893,-113.1492C352.3824,-115.913 356.9568,-119.1681 361,-123 397.7236,-157.8048 359.3254,-197.2269 397,-231 398.7021,-232.5258 400.4969,-233.9393 402.3683,-235.2483"/>
<polygon fill="#191970" stroke="#191970" points="400.6215,-238.2815 411.0139,-240.3429 404.1753,-232.2506 400.6215,-238.2815"/>
</g>
<!-- Node250 -->
<g id="node15" class="node">
<title>Node250</title>
<g id="a_node15"><a xlink:href="RadialBasisFctMappingTest_8cpp.html#a5fe8cc401dc268d058f12ada538cbce3" target="_top" xlink:title="testSerialScaledConsistent">
<polygon fill="#ffffff" stroke="#000000" points="411.5,-38.5 411.5,-57.5 558.5,-57.5 558.5,-38.5 411.5,-38.5"/>
<text text-anchor="middle" x="485" y="-45.5" font-family="Helvetica,sans-Serif" font-size="10.00" fill="#000000">testSerialScaledConsistent</text>
</a>
</g>
</g>
<!-- Node249&#45;&gt;Node250 -->
<g id="edge27" class="edge">
<title>Node249&#45;&gt;Node250</title>
<path fill="none" stroke="#191970" d="M330.3236,-82.9256C351.3903,-77.7541 375.2131,-72.0101 397,-67 407.6126,-64.5595 418.9667,-62.0401 429.8726,-59.6655"/>
<polygon fill="#191970" stroke="#191970" points="430.6951,-63.0686 439.7281,-57.5319 429.2139,-56.2271 430.6951,-63.0686"/>
</g>
<!-- Node251 -->
<g id="node16" class="node">
<title>Node251</title>
<g id="a_node16"><a xlink:href="namespaceprecice_1_1mesh.html#a821683799e9865ccd4b81f40a56c3d2d" target="_top" xlink:title="Given the data and the mesh, this function returns the surface integral. Assumes no overlap exists fo...">
<polygon fill="#ffffff" stroke="#000000" points="620.5,-38.5 620.5,-57.5 755.5,-57.5 755.5,-38.5 620.5,-38.5"/>
<text text-anchor="middle" x="688" y="-45.5" font-family="Helvetica,sans-Serif" font-size="10.00" fill="#000000">precice::mesh::integrate</text>
</a>
</g>
</g>
<!-- Node250&#45;&gt;Node251 -->
<g id="edge28" class="edge">
<title>Node250&#45;&gt;Node251</title>
<path fill="none" stroke="#191970" d="M558.5747,-48C575.3004,-48 593.1232,-48 610.025,-48"/>
<polygon fill="#191970" stroke="#191970" points="610.4117,-51.5001 620.4117,-48 610.4116,-44.5001 610.4117,-51.5001"/>
</g>
<!-- Node252 -->
<g id="node17" class="node">
<title>Node252</title>
<g id="a_node17"><a xlink:href="MPIPortsCommunicationTest_8cpp.html#a5ded28ea5c98cb27bf0cfcf344588d46" target="_top" xlink:title="BOOST_AUTO_TEST_SUITE">
<polygon fill="#ffffff" stroke="#000000" points="615,-.5 615,-19.5 761,-19.5 761,-.5 615,-.5"/>
<text text-anchor="middle" x="688" y="-7.5" font-family="Helvetica,sans-Serif" font-size="10.00" fill="#000000">BOOST_AUTO_TEST_SUITE</text>
</a>
</g>
</g>
<!-- Node250&#45;&gt;Node252 -->
<g id="edge29" class="edge">
<title>Node250&#45;&gt;Node252</title>
<path fill="none" stroke="#191970" d="M535.9634,-38.46C563.5941,-33.2878 597.9328,-26.8599 626.9811,-21.4222"/>
<polygon fill="#191970" stroke="#191970" points="627.8303,-24.8242 637.0156,-19.5439 626.5423,-17.9437 627.8303,-24.8242"/>
</g>
<!-- Node253&#45;&gt;Node238 -->
<g id="edge31" class="edge">
<title>Node253&#45;&gt;Node238</title>
<path fill="none" stroke="#191970" d="M333.3832,-162.1206C342.7789,-165.0183 352.2404,-168.3162 361,-172 378.0748,-179.1807 379.7327,-186.2955 397,-193 403.7113,-195.6059 410.8566,-197.8891 418.0622,-199.8815"/>
<polygon fill="#191970" stroke="#191970" points="417.3329,-203.3079 427.8905,-202.421 419.0841,-196.5305 417.3329,-203.3079"/>
</g>
<!-- Node253&#45;&gt;Node240 -->
<g id="edge32" class="edge">
<title>Node253&#45;&gt;Node240</title>
<path fill="none" stroke="#191970" d="M356.5194,-157.8652C380.6951,-160.9012 406.3437,-164.1222 428.3144,-166.8813"/>
<polygon fill="#191970" stroke="#191970" points="428.0976,-170.3815 438.4558,-168.1549 428.9699,-163.4361 428.0976,-170.3815"/>
</g>
<!-- Node253&#45;&gt;Node241 -->
<g id="edge33" class="edge">
<title>Node253&#45;&gt;Node241</title>
<path fill="none" stroke="#191970" d="M356.5194,-140.1589C370.9792,-139.0156 385.966,-137.8306 400.3776,-136.6911"/>
<polygon fill="#191970" stroke="#191970" points="401.061,-140.148 410.754,-135.8706 400.5092,-133.1698 401.061,-140.148"/>
</g>
<!-- Node253&#45;&gt;Node244 -->
<g id="edge34" class="edge">
<title>Node253&#45;&gt;Node244</title>
<path fill="none" stroke="#191970" d="M348.2729,-162.0371C352.921,-164.8316 357.2307,-168.1238 361,-172 407.8938,-220.2226 350.0614,-270.821 397,-319 398.661,-320.7049 400.4304,-322.2924 402.2897,-323.7703"/>
<polygon fill="#191970" stroke="#191970" points="400.7029,-326.9198 410.9601,-329.5731 404.5962,-321.1024 400.7029,-326.9198"/>
</g>
<!-- Node253&#45;&gt;Node246 -->
<g id="edge35" class="edge">
<title>Node253&#45;&gt;Node246</title>
<path fill="none" stroke="#191970" d="M346.9098,-162.0643C351.9994,-164.8438 356.7722,-168.1259 361,-172 394.9033,-203.0666 363.232,-237.7864 397,-269 398.7057,-270.5767 400.5037,-272.0548 402.378,-273.4405"/>
<polygon fill="#191970" stroke="#191970" points="400.7169,-276.5318 411.0337,-278.9429 404.4722,-270.6244 400.7169,-276.5318"/>
</g>
<!-- Node253&#45;&gt;Node247 -->
<g id="edge36" class="edge">
<title>Node253&#45;&gt;Node247</title>
<path fill="none" stroke="#191970" d="M344.3055,-162.1498C350.2351,-164.9027 355.896,-168.1558 361,-172 385.5372,-190.4805 371.9598,-213.207 397,-231 399.6756,-232.9012 402.5043,-234.6183 405.4432,-236.1688"/>
<polygon fill="#191970" stroke="#191970" points="403.9975,-239.3563 414.5467,-240.3377 406.912,-232.9918 403.9975,-239.3563"/>
</g>
<!-- Node253&#45;&gt;Node250 -->
<g id="edge37" class="edge">
<title>Node253&#45;&gt;Node250</title>
<path fill="none" stroke="#191970" d="M345.567,-131.954C351.0236,-129.4197 356.2426,-126.459 361,-123 384.9313,-105.6003 372.6814,-83.8542 397,-67 399.7619,-65.0858 402.6806,-63.3591 405.7103,-61.802"/>
<polygon fill="#191970" stroke="#191970" points="407.3787,-64.8903 415.0864,-57.6211 404.5279,-58.4971 407.3787,-64.8903"/>
</g>
<!-- Node254&#45;&gt;Node238 -->
<g id="edge39" class="edge">
<title>Node254&#45;&gt;Node238</title>
<path fill="none" stroke="#191970" d="M346.7094,-201.7086C362.9879,-202.92 380.2951,-204.208 396.9573,-205.448"/>
<polygon fill="#191970" stroke="#191970" points="397.0012,-208.9608 407.2334,-206.2127 397.5208,-201.9801 397.0012,-208.9608"/>
</g>
<!-- Node254&#45;&gt;Node240 -->
<g id="edge40" class="edge">
<title>Node254&#45;&gt;Node240</title>
<path fill="none" stroke="#191970" d="M346.7094,-188.1507C373.6314,-185.3959 403.3672,-182.3531 428.3449,-179.7973"/>
<polygon fill="#191970" stroke="#191970" points="428.7865,-183.2705 438.3782,-178.7706 428.0738,-176.3068 428.7865,-183.2705"/>
</g>
<!-- Node254&#45;&gt;Node241 -->
<g id="edge41" class="edge">
<title>Node254&#45;&gt;Node241</title>
<path fill="none" stroke="#191970" d="M333.1249,-180.9615C342.5563,-178.2519 352.0965,-175.2452 361,-172 377.6244,-165.9406 380.4337,-161.2165 397,-155 403.394,-152.6006 410.1229,-150.302 416.8936,-148.1379"/>
<polygon fill="#191970" stroke="#191970" points="418.2922,-151.3688 426.8095,-145.0675 416.2216,-144.6821 418.2922,-151.3688"/>
</g>
<!-- Node254&#45;&gt;Node244 -->
<g id="edge42" class="edge">
<title>Node254&#45;&gt;Node244</title>
<path fill="none" stroke="#191970" d="M346.9242,-211.0486C352.0106,-213.8317 356.7786,-217.1189 361,-221 395.1584,-252.4053 362.8124,-287.6265 397,-319 398.5314,-320.4053 400.137,-321.7296 401.8053,-322.9775"/>
<polygon fill="#191970" stroke="#191970" points="400.3027,-326.1707 410.6149,-328.6016 404.0695,-320.2705 400.3027,-326.1707"/>
</g>
<!-- Node254&#45;&gt;Node245 -->
<g id="edge43" class="edge">
<title>Node254&#45;&gt;Node245</title>
<path fill="none" stroke="#191970" d="M346.5681,-210.0427C351.8683,-213.0421 356.7738,-216.654 361,-221 407.8938,-269.2226 350.0614,-319.821 397,-368 401.9003,-373.0298 407.7433,-377.0371 414.0554,-380.2254"/>
<polygon fill="#191970" stroke="#191970" points="413.0154,-383.5884 423.584,-384.3342 415.7872,-377.1605 413.0154,-383.5884"/>
</g>
<!-- Node254&#45;&gt;Node246 -->
<g id="edge44" class="edge">
<title>Node254&#45;&gt;Node246</title>
<path fill="none" stroke="#191970" d="M342.5308,-211.0841C349.0405,-213.8529 355.3117,-217.1276 361,-221 383.0435,-236.0065 375.0219,-253.8979 397,-269 399.9023,-270.9943 402.9619,-272.8306 406.1299,-274.5215"/>
<polygon fill="#191970" stroke="#191970" points="404.7728,-277.7521 415.304,-278.9116 407.7944,-271.4379 404.7728,-277.7521"/>
</g>
<!-- Node254&#45;&gt;Node247 -->
<g id="edge45" class="edge">
<title>Node254&#45;&gt;Node247</title>
<path fill="none" stroke="#191970" d="M324.8647,-211.0457C336.7797,-214.3207 349.3136,-217.7716 361,-221 377.0063,-225.4218 380.8773,-227.0238 397,-231 407.1199,-233.4958 417.939,-235.9806 428.4063,-238.2908"/>
<polygon fill="#191970" stroke="#191970" points="427.7839,-241.7372 438.2998,-240.4469 429.2744,-234.8978 427.7839,-241.7372"/>
</g>
<!-- Node255 -->
<g id="node20" class="node">
<title>Node255</title>
<g id="a_node20"><a xlink:href="namespaceprecice_1_1testing.html#a6a116337529290bbb1bf2545b5fb315a" target="_top" xlink:title="equals to be used in tests. Prints both operatorans on failure ">
<polygon fill="#ffffff" stroke="#000000" points="420,-76.5 420,-95.5 550,-95.5 550,-76.5 420,-76.5"/>
<text text-anchor="middle" x="485" y="-83.5" font-family="Helvetica,sans-Serif" font-size="10.00" fill="#000000">precice::testing::equals</text>
</a>
</g>
</g>
<!-- Node254&#45;&gt;Node255 -->
<g id="edge46" class="edge">
<title>Node254&#45;&gt;Node255</title>
<path fill="none" stroke="#191970" d="M346.746,-180.8876C351.811,-178.366 356.6273,-175.4264 361,-172 387.3005,-151.3911 370.349,-126.1537 397,-106 401.1121,-102.8904 405.6211,-100.2497 410.357,-98.0088"/>
<polygon fill="#191970" stroke="#191970" points="411.7774,-101.2092 419.6993,-94.174 409.1192,-94.7335 411.7774,-101.2092"/>
</g>
<!-- Node256 -->
<g id="node21" class="node">
<title>Node256</title>
<g id="a_node21"><a xlink:href="namespaceprecice_1_1math.html#a0e86802cfe992deba131d789d035b5b7" target="_top" xlink:title="Compares two Eigen::MatrixBase for equality up to tolerance. ">
<polygon fill="#ffffff" stroke="#000000" points="627,-76.5 627,-95.5 749,-95.5 749,-76.5 627,-76.5"/>
<text text-anchor="middle" x="688" y="-83.5" font-family="Helvetica,sans-Serif" font-size="10.00" fill="#000000">precice::math::equals</text>
</a>
</g>
</g>
<!-- Node255&#45;&gt;Node256 -->
<g id="edge47" class="edge">
<title>Node255&#45;&gt;Node256</title>
<path fill="none" stroke="#191970" d="M550.0681,-86C571.2924,-86 594.9673,-86 616.6288,-86"/>
<polygon fill="#191970" stroke="#191970" points="616.7513,-89.5001 626.7513,-86 616.7513,-82.5001 616.7513,-89.5001"/>
</g>
<!-- Node257&#45;&gt;Node238 -->
<g id="edge49" class="edge">
<title>Node257&#45;&gt;Node238</title>
<path fill="none" stroke="#191970" d="M346.7094,-233.226C368.2597,-229.9183 391.613,-226.3338 412.8855,-223.0687"/>
<polygon fill="#191970" stroke="#191970" points="413.4672,-226.5205 422.8204,-221.5438 412.4052,-219.6016 413.4672,-226.5205"/>
</g>
<!-- Node257&#45;&gt;Node240 -->
<g id="edge50" class="edge">
<title>Node257&#45;&gt;Node240</title>
<path fill="none" stroke="#191970" d="M339.1617,-229.9392C346.6943,-227.3694 354.1171,-224.4054 361,-221 379.1677,-212.0112 378.6337,-201.5758 397,-193 406.659,-188.4899 417.4174,-185.0344 428.0039,-182.3916"/>
<polygon fill="#191970" stroke="#191970" points="429.0879,-185.7344 438.0597,-180.099 427.5318,-178.9095 429.0879,-185.7344"/>
</g>
<!-- Node257&#45;&gt;Node241 -->
<g id="edge51" class="edge">
<title>Node257&#45;&gt;Node241</title>
<path fill="none" stroke="#191970" d="M346.746,-229.8876C351.811,-227.366 356.6273,-224.4264 361,-221 387.3005,-200.3911 370.8958,-175.857 397,-155 399.2684,-153.1876 401.6615,-151.5066 404.1501,-149.9474"/>
<polygon fill="#191970" stroke="#191970" points="405.8697,-152.996 412.9359,-145.1018 402.4891,-146.8665 405.8697,-152.996"/>
</g>
<!-- Node257&#45;&gt;Node244 -->
<g id="edge52" class="edge">
<title>Node257&#45;&gt;Node244</title>
<path fill="none" stroke="#191970" d="M342.571,-260.0253C349.0726,-262.8061 355.3309,-266.0996 361,-270 383.2632,-285.3174 374.7226,-303.7033 397,-319 399.1703,-320.4902 401.4299,-321.8881 403.7579,-323.1994"/>
<polygon fill="#191970" stroke="#191970" points="402.524,-326.4956 413.0332,-327.8397 405.6559,-320.2353 402.524,-326.4956"/>
</g>
<!-- Node257&#45;&gt;Node245 -->
<g id="edge53" class="edge">
<title>Node257&#45;&gt;Node245</title>
<path fill="none" stroke="#191970" d="M346.9242,-260.0486C352.0106,-262.8317 356.7786,-266.1189 361,-270 395.1584,-301.4053 362.8124,-336.6265 397,-368 402.0954,-372.676 408.0133,-376.455 414.3248,-379.5071"/>
<polygon fill="#191970" stroke="#191970" points="413.2278,-382.8422 423.8035,-383.4783 415.9328,-376.386 413.2278,-382.8422"/>
</g>
<!-- Node257&#45;&gt;Node246 -->
<g id="edge54" class="edge">
<title>Node257&#45;&gt;Node246</title>
<path fill="none" stroke="#191970" d="M335.9682,-260.0346C359.1851,-265.3259 385.4562,-271.3133 409.4043,-276.7712"/>
<polygon fill="#191970" stroke="#191970" points="408.6288,-280.1841 419.1565,-278.9938 410.1843,-273.3591 408.6288,-280.1841"/>
</g>
<!-- Node257&#45;&gt;Node247 -->
<g id="edge55" class="edge">
<title>Node257&#45;&gt;Node247</title>
<path fill="none" stroke="#191970" d="M346.7094,-246.7839C359.6828,-247.0856 373.3097,-247.4026 386.7426,-247.7149"/>
<polygon fill="#191970" stroke="#191970" points="386.8843,-251.2191 396.963,-247.9526 387.0472,-244.221 386.8843,-251.2191"/>
</g>
<!-- Node257&#45;&gt;Node255 -->
<g id="edge56" class="edge">
<title>Node257&#45;&gt;Node255</title>
<path fill="none" stroke="#191970" d="M346.6851,-231.2933C351.891,-228.4587 356.7472,-225.0635 361,-221 399.7224,-184.0011 357.6472,-142.3277 397,-106 400.9285,-102.3735 405.3734,-99.3584 410.1271,-96.8562"/>
<polygon fill="#191970" stroke="#191970" points="411.8769,-99.9088 419.595,-92.6506 409.0352,-93.5115 411.8769,-99.9088"/>
</g>
<!-- Node258&#45;&gt;Node238 -->
<g id="edge58" class="edge">
<title>Node258&#45;&gt;Node238</title>
<path fill="none" stroke="#191970" d="M342.599,-278.9572C349.0242,-276.4163 355.2599,-273.4535 361,-270 381.2129,-257.8392 376.5174,-242.7007 397,-231 400.923,-228.759 405.0821,-226.7818 409.3739,-225.0375"/>
<polygon fill="#191970" stroke="#191970" points="410.7269,-228.2701 418.9413,-221.5787 408.347,-221.687 410.7269,-228.2701"/>
</g>
<!-- Node258&#45;&gt;Node240 -->
<g id="edge59" class="edge">
<title>Node258&#45;&gt;Node240</title>
<path fill="none" stroke="#191970" d="M346.5477,-279.4172C351.7198,-276.7765 356.6102,-273.665 361,-270 389.9994,-245.7885 367.4607,-216.5497 397,-193 405.9798,-185.841 417.0543,-181.2263 428.2812,-178.2852"/>
<polygon fill="#191970" stroke="#191970" points="429.1273,-181.6828 438.1377,-176.1095 427.6184,-174.8473 429.1273,-181.6828"/>
</g>
<!-- Node258&#45;&gt;Node241 -->
<g id="edge60" class="edge">
<title>Node258&#45;&gt;Node241</title>
<path fill="none" stroke="#191970" d="M346.6851,-280.2933C351.891,-277.4587 356.7472,-274.0635 361,-270 399.7224,-233.0011 358.6296,-192.3638 397,-155 398.6641,-153.3795 400.4254,-151.8626 402.2671,-150.4427"/>
<polygon fill="#191970" stroke="#191970" points="404.3807,-153.2416 410.8071,-144.8182 400.5305,-147.3956 404.3807,-153.2416"/>
</g>
<!-- Node258&#45;&gt;Node244 -->
<g id="edge61" class="edge">
<title>Node258&#45;&gt;Node244</title>
<path fill="none" stroke="#191970" d="M335.9682,-309.0346C359.1851,-314.3259 385.4562,-320.3133 409.4043,-325.7712"/>
<polygon fill="#191970" stroke="#191970" points="408.6288,-329.1841 419.1565,-327.9938 410.1843,-322.3591 408.6288,-329.1841"/>
</g>
<!-- Node258&#45;&gt;Node245 -->
<g id="edge62" class="edge">
<title>Node258&#45;&gt;Node245</title>
<path fill="none" stroke="#191970" d="M342.571,-309.0253C349.0726,-311.8061 355.3309,-315.0996 361,-319 383.2632,-334.3174 374.7226,-352.7033 397,-368 402.3116,-371.6472 408.1577,-374.7413 414.2342,-377.366"/>
<polygon fill="#191970" stroke="#191970" points="413.3398,-380.7726 423.929,-381.1161 415.8652,-374.2441 413.3398,-380.7726"/>
</g>
<!-- Node258&#45;&gt;Node246 -->
<g id="edge63" class="edge">
<title>Node258&#45;&gt;Node246</title>
<path fill="none" stroke="#191970" d="M346.7094,-294C364.1496,-294 382.7706,-294 400.5139,-294"/>
<polygon fill="#191970" stroke="#191970" points="400.844,-297.5001 410.844,-294 400.844,-290.5001 400.844,-297.5001"/>
</g>
<!-- Node258&#45;&gt;Node247 -->
<g id="edge64" class="edge">
<title>Node258&#45;&gt;Node247</title>
<path fill="none" stroke="#191970" d="M343.3895,-278.9808C371.2041,-273.2885 402.4177,-266.9006 428.4472,-261.5736"/>
<polygon fill="#191970" stroke="#191970" points="429.4237,-264.9464 438.5189,-259.5124 428.0202,-258.0885 429.4237,-264.9464"/>
</g>
</g>
</svg>
