<?xml version="1.0" encoding="UTF-8" standalone="no"?>
<!DOCTYPE svg PUBLIC "-//W3C//DTD SVG 1.1//EN"
 "http://www.w3.org/Graphics/SVG/1.1/DTD/svg11.dtd">
<!-- Generated by graphviz version 2.40.1 (20161225.0304)
 -->
<!-- Title: BOOST_AUTO_TEST_CASE Pages: 1 -->
<!--zoomable 264 -->
<svg id="main" version="1.1" xmlns="http://www.w3.org/2000/svg" xmlns:xlink="http://www.w3.org/1999/xlink" xml:space="preserve" onload="init(evt)">
<style type="text/css"><![CDATA[
.edge:hover path { stroke: red; }
.edge:hover polygon { stroke: red; fill: red; }
]]></style>
<script type="text/javascript"><![CDATA[
var edges = document.getElementsByTagName('g');
if (edges && edges.length) {
  for (var i=0;i<edges.length;i++) {
    if (edges[i].id.substr(0,4)=='edge') {
      edges[i].setAttribute('class','edge');
    }
  }
}
]]></script>
        <defs>
                <circle id="rim" cx="0" cy="0" r="7"/>
                <circle id="rim2" cx="0" cy="0" r="3.5"/>
                <g id="zoomPlus">
                        <use xlink:href="#rim" fill="#404040">
                                <set attributeName="fill" to="#808080" begin="zoomplus.mouseover" end="zoomplus.mouseout"/>
                        </use>
                        <path d="M-4,0h8M0,-4v8" fill="none" stroke="white" stroke-width="1.5" pointer-events="none"/>
                </g>
                <g id="zoomMin">
                        <use xlink:href="#rim" fill="#404040">
                                <set attributeName="fill" to="#808080" begin="zoomminus.mouseover" end="zoomminus.mouseout"/>
                        </use>
                        <path d="M-4,0h8" fill="none" stroke="white" stroke-width="1.5" pointer-events="none"/>
                </g>
                <g id="dirArrow">
                        <path fill="none" stroke="white" stroke-width="1.5" d="M0,-3.0v7 M-2.5,-0.5L0,-3.0L2.5,-0.5"/>
                </g>
               <g id="resetDef">
                       <use xlink:href="#rim2" fill="#404040">
                               <set attributeName="fill" to="#808080" begin="reset.mouseover" end="reset.mouseout"/>
                       </use>
               </g>
        </defs>

<script type="text/javascript">
var viewWidth = 682;
var viewHeight = 264;
var sectionId = 'dynsection-8';
</script>
<script xlink:href="svgpan.js"/>
<svg id="graph" class="graph">
<g id="viewport">
<title>BOOST_AUTO_TEST_CASE</title>
<polygon fill="#ffffff" stroke="transparent" points="-4,4 -4,-259.5 678,-259.5 678,4 -4,4"/>
<!-- Node85 -->
<g id="node1" class="node">
<title>Node85</title>
<polygon fill="#bfbfbf" stroke="#000000" points="0,-117.5 0,-136.5 143,-136.5 143,-117.5 0,-117.5"/>
<text text-anchor="middle" x="71.5" y="-124.5" font-family="Helvetica,sans-Serif" font-size="10.00" fill="#000000">BOOST_AUTO_TEST_CASE</text>
</g>
<!-- Node86 -->
<g id="node2" class="node">
<title>Node86</title>
<g id="a_node2"><a xlink:href="RadialBasisFctMappingTest_8cpp.html#aa7669e1df52fca7b42839a0fd234e995" target="_top" xlink:title="testDistributed">
<polygon fill="#ffffff" stroke="#000000" points="179,-117.5 179,-136.5 268,-136.5 268,-117.5 179,-117.5"/>
<text text-anchor="middle" x="223.5" y="-124.5" font-family="Helvetica,sans-Serif" font-size="10.00" fill="#000000">testDistributed</text>
</a>
</g>
</g>
<!-- Node85&#45;&gt;Node86 -->
<g id="edge1" class="edge">
<title>Node85&#45;&gt;Node86</title>
<path fill="none" stroke="#191970" d="M143.0491,-127C151.6034,-127 160.2331,-127 168.5028,-127"/>
<polygon fill="#191970" stroke="#191970" points="168.7524,-130.5001 178.7523,-127 168.7523,-123.5001 168.7524,-130.5001"/>
</g>
<!-- Node87 -->
<g id="node3" class="node">
<title>Node87</title>
<g id="a_node3"><a xlink:href="namespaceprecice_1_1testing.html#a08533fd83bad3d7f27ea7f4a35a14aa4" target="_top" xlink:title="precice::testing::nextMeshID">
<polygon fill="#ffffff" stroke="#000000" points="314.5,-227.5 314.5,-246.5 469.5,-246.5 469.5,-227.5 314.5,-227.5"/>
<text text-anchor="middle" x="392" y="-234.5" font-family="Helvetica,sans-Serif" font-size="10.00" fill="#000000">precice::testing::nextMeshID</text>
</a>
</g>
</g>
<!-- Node86&#45;&gt;Node87 -->
<g id="edge2" class="edge">
<title>Node86&#45;&gt;Node87</title>
<path fill="none" stroke="#191970" d="M229.4892,-136.6484C241.3497,-154.914 269.6714,-194.5422 304,-215 310.1383,-218.6581 316.8653,-221.7105 323.7793,-224.2571"/>
<polygon fill="#191970" stroke="#191970" points="322.6922,-227.5841 333.2859,-227.4256 324.9057,-220.9432 322.6922,-227.5841"/>
</g>
<!-- Node89 -->
<g id="node5" class="node">
<title>Node89</title>
<g id="a_node5"><a xlink:href="RadialBasisFctMappingTest_8cpp.html#abe9a39799512d3777b5369d9a52fab13" target="_top" xlink:title="getDistributedMesh">
<polygon fill="#ffffff" stroke="#000000" points="336,-186.5 336,-205.5 448,-205.5 448,-186.5 336,-186.5"/>
<text text-anchor="middle" x="392" y="-193.5" font-family="Helvetica,sans-Serif" font-size="10.00" fill="#000000">getDistributedMesh</text>
</a>
</g>
</g>
<!-- Node86&#45;&gt;Node89 -->
<g id="edge4" class="edge">
<title>Node86&#45;&gt;Node89</title>
<path fill="none" stroke="#191970" d="M235.8717,-136.5875C251.0799,-147.9073 278.0706,-166.5163 304,-177 310.9519,-179.8108 318.3889,-182.2354 325.8849,-184.3198"/>
<polygon fill="#191970" stroke="#191970" points="325.1796,-187.7524 335.7374,-186.8678 326.9323,-180.9754 325.1796,-187.7524"/>
</g>
<!-- Node91 -->
<g id="node7" class="node">
<title>Node91</title>
<g id="a_node7"><a xlink:href="classprecice_1_1mapping_1_1Mapping.html#a5bf2ecf9adb1ae66977c1223f841a61f" target="_top" xlink:title="Sets input and output meshes carrying data to be mapped. ">
<polygon fill="#ffffff" stroke="#000000" points="318,-137 318,-167 466,-167 466,-137 318,-137"/>
<text text-anchor="start" x="326" y="-155" font-family="Helvetica,sans-Serif" font-size="10.00" fill="#000000">precice::mapping::Mapping</text>
<text text-anchor="middle" x="392" y="-144" font-family="Helvetica,sans-Serif" font-size="10.00" fill="#000000">::setMeshes</text>
</a>
</g>
</g>
<!-- Node86&#45;&gt;Node91 -->
<g id="edge6" class="edge">
<title>Node86&#45;&gt;Node91</title>
<path fill="none" stroke="#191970" d="M268.2125,-133.6339C280.4516,-135.4498 294.1303,-137.4793 307.807,-139.5085"/>
<polygon fill="#191970" stroke="#191970" points="307.3394,-142.9773 317.7448,-140.9829 308.3667,-136.0531 307.3394,-142.9773"/>
</g>
<!-- Node94 -->
<g id="node10" class="node">
<title>Node94</title>
<g id="a_node10"><a xlink:href="classprecice_1_1mapping_1_1Mapping.html#ae7fcb351e225322b05e4cd7c45215b52" target="_top" xlink:title="Returns true, if the mapping has been computed. ">
<polygon fill="#ffffff" stroke="#000000" points="318,-88 318,-118 466,-118 466,-88 318,-88"/>
<text text-anchor="start" x="326" y="-106" font-family="Helvetica,sans-Serif" font-size="10.00" fill="#000000">precice::mapping::Mapping</text>
<text text-anchor="middle" x="392" y="-95" font-family="Helvetica,sans-Serif" font-size="10.00" fill="#000000">::hasComputedMapping</text>
</a>
</g>
</g>
<!-- Node86&#45;&gt;Node94 -->
<g id="edge9" class="edge">
<title>Node86&#45;&gt;Node94</title>
<path fill="none" stroke="#191970" d="M268.2125,-120.6315C280.4516,-118.8882 294.1303,-116.9399 307.807,-114.9919"/>
<polygon fill="#191970" stroke="#191970" points="308.3383,-118.4516 317.7448,-113.5764 307.3511,-111.5216 308.3383,-118.4516"/>
</g>
<!-- Node95 -->
<g id="node11" class="node">
<title>Node95</title>
<g id="a_node11"><a xlink:href="classprecice_1_1mapping_1_1Mapping.html#abf2679ec4bbb86bd2380b088528cc1ff" target="_top" xlink:title="Computes the mapping coefficients from the in&#45; and output mesh. ">
<polygon fill="#ffffff" stroke="#000000" points="318,-39 318,-69 466,-69 466,-39 318,-39"/>
<text text-anchor="start" x="326" y="-57" font-family="Helvetica,sans-Serif" font-size="10.00" fill="#000000">precice::mapping::Mapping</text>
<text text-anchor="middle" x="392" y="-46" font-family="Helvetica,sans-Serif" font-size="10.00" fill="#000000">::computeMapping</text>
</a>
</g>
</g>
<!-- Node86&#45;&gt;Node95 -->
<g id="edge10" class="edge">
<title>Node86&#45;&gt;Node95</title>
<path fill="none" stroke="#191970" d="M236.5472,-117.4634C251.9745,-106.5748 278.7533,-88.8687 304,-78 308.6976,-75.9777 313.6106,-74.0836 318.6098,-72.3177"/>
<polygon fill="#191970" stroke="#191970" points="319.9216,-75.5696 328.2959,-69.0795 317.7021,-68.9308 319.9216,-75.5696"/>
</g>
<!-- Node96 -->
<g id="node12" class="node">
<title>Node96</title>
<g id="a_node12"><a xlink:href="classprecice_1_1mapping_1_1Mapping.html#a843b62d737d4e113bfa4db18682eb6fe" target="_top" xlink:title="Maps input data to output data from input mesh to output mesh. ">
<polygon fill="#ffffff" stroke="#000000" points="304,-.5 304,-19.5 480,-19.5 480,-.5 304,-.5"/>
<text text-anchor="middle" x="392" y="-7.5" font-family="Helvetica,sans-Serif" font-size="10.00" fill="#000000">precice::mapping::Mapping::map</text>
</a>
</g>
</g>
<!-- Node86&#45;&gt;Node96 -->
<g id="edge11" class="edge">
<title>Node86&#45;&gt;Node96</title>
<path fill="none" stroke="#191970" d="M228.4565,-117.3835C239.2627,-97.4477 266.9735,-51.5935 304,-29 307.6024,-26.8018 311.4237,-24.856 315.3778,-23.1337"/>
<polygon fill="#191970" stroke="#191970" points="316.7279,-26.3645 324.8044,-19.5073 314.2145,-19.8313 316.7279,-26.3645"/>
</g>
<!-- Node88 -->
<g id="node4" class="node">
<title>Node88</title>
<g id="a_node4"><a xlink:href="classprecice_1_1utils_1_1ManageUniqueIDs.html#a02be264c279698ae293587b6576088b5" target="_top" xlink:title="precice::utils::ManageUnique\lIDs::getFreeID">
<polygon fill="#ffffff" stroke="#000000" points="516,-225 516,-255 674,-255 674,-225 516,-225"/>
<text text-anchor="start" x="524" y="-243" font-family="Helvetica,sans-Serif" font-size="10.00" fill="#000000">precice::utils::ManageUnique</text>
<text text-anchor="middle" x="595" y="-232" font-family="Helvetica,sans-Serif" font-size="10.00" fill="#000000">IDs::getFreeID</text>
</a>
</g>
</g>
<!-- Node87&#45;&gt;Node88 -->
<g id="edge3" class="edge">
<title>Node87&#45;&gt;Node88</title>
<path fill="none" stroke="#191970" d="M469.6145,-238.147C481.4195,-238.3215 493.6816,-238.5027 505.7114,-238.6805"/>
<polygon fill="#191970" stroke="#191970" points="505.6961,-242.1805 515.7467,-238.8288 505.7996,-235.1813 505.6961,-242.1805"/>
</g>
<!-- Node90 -->
<g id="node6" class="node">
<title>Node90</title>
<g id="a_node6"><a xlink:href="RadialBasisFctMappingTest_8cpp.html#a091feb1893c75899e59fa939e678debe" target="_top" xlink:title="addGlobalIndex">
<polygon fill="#ffffff" stroke="#000000" points="548.5,-186.5 548.5,-205.5 641.5,-205.5 641.5,-186.5 548.5,-186.5"/>
<text text-anchor="middle" x="595" y="-193.5" font-family="Helvetica,sans-Serif" font-size="10.00" fill="#000000">addGlobalIndex</text>
</a>
</g>
</g>
<!-- Node89&#45;&gt;Node90 -->
<g id="edge5" class="edge">
<title>Node89&#45;&gt;Node90</title>
<path fill="none" stroke="#191970" d="M448.008,-196C476.1242,-196 510.1124,-196 538.3211,-196"/>
<polygon fill="#191970" stroke="#191970" points="538.4307,-199.5001 548.4307,-196 538.4306,-192.5001 538.4307,-199.5001"/>
</g>
<!-- Node92 -->
<g id="node8" class="node">
<title>Node92</title>
<g id="a_node8"><a xlink:href="classprecice_1_1mapping_1_1Mapping.html#a61c3c55af467ada2bdd735efa0f960e4" target="_top" xlink:title="Returns pointer to input mesh. ">
<polygon fill="#ffffff" stroke="#000000" points="521,-137 521,-167 669,-167 669,-137 521,-137"/>
<text text-anchor="start" x="529" y="-155" font-family="Helvetica,sans-Serif" font-size="10.00" fill="#000000">precice::mapping::Mapping</text>
<text text-anchor="middle" x="595" y="-144" font-family="Helvetica,sans-Serif" font-size="10.00" fill="#000000">::input</text>
</a>
</g>
</g>
<!-- Node91&#45;&gt;Node92 -->
<g id="edge7" class="edge">
<title>Node91&#45;&gt;Node92</title>
<path fill="none" stroke="#191970" d="M466.1494,-152C480.5972,-152 495.8441,-152 510.5949,-152"/>
<polygon fill="#191970" stroke="#191970" points="510.7119,-155.5001 520.7119,-152 510.7119,-148.5001 510.7119,-155.5001"/>
</g>
<!-- Node93 -->
<g id="node9" class="node">
<title>Node93</title>
<g id="a_node9"><a xlink:href="classprecice_1_1mapping_1_1Mapping.html#a07a71a54b71eda6d54510c94fb188e70" target="_top" xlink:title="Returns pointer to output mesh. ">
<polygon fill="#ffffff" stroke="#000000" points="521,-88 521,-118 669,-118 669,-88 521,-88"/>
<text text-anchor="start" x="529" y="-106" font-family="Helvetica,sans-Serif" font-size="10.00" fill="#000000">precice::mapping::Mapping</text>
<text text-anchor="middle" x="595" y="-95" font-family="Helvetica,sans-Serif" font-size="10.00" fill="#000000">::output</text>
</a>
</g>
</g>
<!-- Node91&#45;&gt;Node93 -->
<g id="edge8" class="edge">
<title>Node91&#45;&gt;Node93</title>
<path fill="none" stroke="#191970" d="M454.2863,-136.9654C476.0125,-131.7211 500.5714,-125.7931 523.0201,-120.3745"/>
<polygon fill="#191970" stroke="#191970" points="523.932,-123.755 532.8315,-118.0062 522.2894,-116.9504 523.932,-123.755"/>
</g>
</g>
</svg>
        <g id="navigator" transform="translate(0 0)" fill="#404254">
                <rect fill="#f2f5e9" fill-opacity="0.5" stroke="#606060" stroke-width=".5" x="0" y="0" width="60" height="60"/>
                <use id="zoomplus" xlink:href="#zoomPlus" x="17" y="9" onmousedown="handleZoom(evt,'in')"/>
                <use id="zoomminus" xlink:href="#zoomMin" x="42" y="9" onmousedown="handleZoom(evt,'out')"/>
                <use id="reset" xlink:href="#resetDef" x="30" y="36" onmousedown="handleReset()"/>
                <g id="arrowUp" xlink:href="#dirArrow" transform="translate(30 24)" onmousedown="handlePan(0,-1)">
                  <use xlink:href="#rim" fill="#404040">
                        <set attributeName="fill" to="#808080" begin="arrowUp.mouseover" end="arrowUp.mouseout"/>
                  </use>
                  <path fill="none" stroke="white" stroke-width="1.5" d="M0,-3.0v7 M-2.5,-0.5L0,-3.0L2.5,-0.5"/>
                </g>
                <g id="arrowRight" xlink:href="#dirArrow" transform="rotate(90) translate(36 -43)" onmousedown="handlePan(1,0)">
                  <use xlink:href="#rim" fill="#404040">
                        <set attributeName="fill" to="#808080" begin="arrowRight.mouseover" end="arrowRight.mouseout"/>
                  </use>
                  <path fill="none" stroke="white" stroke-width="1.5" d="M0,-3.0v7 M-2.5,-0.5L0,-3.0L2.5,-0.5"/>
                </g>
                <g id="arrowDown" xlink:href="#dirArrow" transform="rotate(180) translate(-30 -48)" onmousedown="handlePan(0,1)">
                  <use xlink:href="#rim" fill="#404040">
                        <set attributeName="fill" to="#808080" begin="arrowDown.mouseover" end="arrowDown.mouseout"/>
                  </use>
                  <path fill="none" stroke="white" stroke-width="1.5" d="M0,-3.0v7 M-2.5,-0.5L0,-3.0L2.5,-0.5"/>
                </g>
                <g id="arrowLeft" xlink:href="#dirArrow" transform="rotate(270) translate(-36 17)" onmousedown="handlePan(-1,0)">
                  <use xlink:href="#rim" fill="#404040">
                        <set attributeName="fill" to="#808080" begin="arrowLeft.mouseover" end="arrowLeft.mouseout"/>
                  </use>
                  <path fill="none" stroke="white" stroke-width="1.5" d="M0,-3.0v7 M-2.5,-0.5L0,-3.0L2.5,-0.5"/>
                </g>
        </g>
        <svg viewBox="0 0 15 15" width="100%" height="30px" preserveAspectRatio="xMaxYMin meet">
         <g id="arrow_out" transform="scale(0.3 0.3)">
          <a xlink:href="RadialBasisFctMappingTest_8cpp_a08793fb0f901e5475b48a027f2232680_cgraph_org.svg" target="_base">
           <rect id="button" ry="5" rx="5" y="6" x="6" height="38" width="38"
                fill="#f2f5e9" fill-opacity="0.5" stroke="#606060" stroke-width="1.0"/>
           <path id="arrow"
             d="M 11.500037,31.436501 C 11.940474,20.09759 22.043105,11.32322 32.158766,21.979434 L 37.068811,17.246167 C 37.068811,17.246167 37.088388,32 37.088388,32 L 22.160133,31.978069 C 22.160133,31.978069 26.997745,27.140456 26.997745,27.140456 C 18.528582,18.264221 13.291696,25.230495 11.500037,31.436501 z"
             style="fill:#404040;"/>
          </a>
         </g>
        </svg>
</svg>
