<?xml version="1.0" encoding="UTF-8" standalone="no"?>
<!DOCTYPE svg PUBLIC "-//W3C//DTD SVG 1.1//EN"
 "http://www.w3.org/Graphics/SVG/1.1/DTD/svg11.dtd">
<!-- Generated by graphviz version 2.40.1 (20161225.0304)
 -->
<!-- Title: src/mapping/RadialBasisFctMapping.hpp Pages: 1 -->
<svg width="2867pt" height="498pt"
 viewBox="0.00 0.00 2867.48 498.00" xmlns="http://www.w3.org/2000/svg" xmlns:xlink="http://www.w3.org/1999/xlink">
<g id="graph0" class="graph" transform="scale(1 1) rotate(0) translate(4 494)">
<title>src/mapping/RadialBasisFctMapping.hpp</title>
<polygon fill="#ffffff" stroke="transparent" points="-4,4 -4,-494 2863.4836,-494 2863.4836,4 -4,4"/>
<!-- Node0 -->
<g id="node1" class="node">
<title>Node0</title>
<polygon fill="#bfbfbf" stroke="#000000" points="1453,-459.5 1453,-489.5 1593,-489.5 1593,-459.5 1453,-459.5"/>
<text text-anchor="start" x="1461" y="-477.5" font-family="Helvetica,sans-Serif" font-size="10.00" fill="#000000">src/mapping/RadialBasisFct</text>
<text text-anchor="middle" x="1523" y="-466.5" font-family="Helvetica,sans-Serif" font-size="10.00" fill="#000000">Mapping.hpp</text>
</g>
<!-- Node1 -->
<g id="node2" class="node">
<title>Node1</title>
<g id="a_node2"><a xlink:href="Mapping_8hpp.html" target="_top" xlink:title="Mapping.hpp">
<polygon fill="#ffffff" stroke="#000000" points="1418,-342 1418,-361 1490,-361 1490,-342 1418,-342"/>
<text text-anchor="middle" x="1454" y="-349" font-family="Helvetica,sans-Serif" font-size="10.00" fill="#000000">Mapping.hpp</text>
</a>
</g>
</g>
<!-- Node0&#45;&gt;Node1 -->
<g id="edge1" class="edge">
<title>Node0&#45;&gt;Node1</title>
<path fill="none" stroke="#191970" d="M1514.5392,-459.4178C1501.8878,-436.8652 1478.0673,-394.4026 1464.381,-370.0053"/>
<polygon fill="#191970" stroke="#191970" points="1467.302,-368.0583 1459.3569,-361.0493 1461.197,-371.4831 1467.302,-368.0583"/>
</g>
<!-- Node4 -->
<g id="node5" class="node">
<title>Node4</title>
<polygon fill="#ffffff" stroke="#bfbfbf" points="1898.5,-.5 1898.5,-19.5 1963.5,-19.5 1963.5,-.5 1898.5,-.5"/>
<text text-anchor="middle" x="1931" y="-7.5" font-family="Helvetica,sans-Serif" font-size="10.00" fill="#000000">Eigen/Core</text>
</g>
<!-- Node0&#45;&gt;Node4 -->
<g id="edge120" class="edge">
<title>Node0&#45;&gt;Node4</title>
<path fill="none" stroke="#191970" d="M1593.2495,-472.2459C1726.0171,-467.2967 2003.2924,-453.4098 2034,-423 2074.4729,-382.9196 2094.9033,-213.0139 2060,-168 2020.6321,-117.2282 1962.0201,-180.5995 1920,-132 1895.1959,-103.3121 1910.2863,-55.3922 1921.7266,-28.9546"/>
<polygon fill="#191970" stroke="#191970" points="1925.003,-30.2062 1925.9877,-19.6573 1918.6395,-27.2897 1925.003,-30.2062"/>
</g>
<!-- Node51 -->
<g id="node28" class="node">
<title>Node51</title>
<g id="a_node28"><a xlink:href="CommunicateMesh_8hpp.html" target="_top" xlink:title="com/CommunicateMesh.hpp">
<polygon fill="#ffffff" stroke="#000000" points="135,-342 135,-361 277,-361 277,-342 135,-342"/>
<text text-anchor="middle" x="206" y="-349" font-family="Helvetica,sans-Serif" font-size="10.00" fill="#000000">com/CommunicateMesh.hpp</text>
</a>
</g>
</g>
<!-- Node0&#45;&gt;Node51 -->
<g id="edge54" class="edge">
<title>Node0&#45;&gt;Node51</title>
<path fill="none" stroke="#191970" d="M1452.8567,-471.4891C1315.5638,-465.2425 1001.8075,-449.2287 739,-423 573.0623,-406.4391 379.2102,-378.181 277.1766,-362.6103"/>
<polygon fill="#191970" stroke="#191970" points="277.4082,-359.1051 266.9938,-361.052 276.3492,-366.0245 277.4082,-359.1051"/>
</g>
<!-- Node53 -->
<g id="node30" class="node">
<title>Node53</title>
<g id="a_node30"><a xlink:href="Communication_8hpp.html" target="_top" xlink:title="com/Communication.hpp">
<polygon fill="#ffffff" stroke="#000000" points="337.5,-280.5 337.5,-299.5 462.5,-299.5 462.5,-280.5 337.5,-280.5"/>
<text text-anchor="middle" x="400" y="-287.5" font-family="Helvetica,sans-Serif" font-size="10.00" fill="#000000">com/Communication.hpp</text>
</a>
</g>
</g>
<!-- Node0&#45;&gt;Node53 -->
<g id="edge60" class="edge">
<title>Node0&#45;&gt;Node53</title>
<path fill="none" stroke="#191970" d="M1452.6827,-468.4443C1362.7364,-460.2702 1202.2815,-444.2473 1066,-423 835.2511,-387.0245 562.8889,-327.1024 451.4338,-301.8238"/>
<polygon fill="#191970" stroke="#191970" points="451.9991,-298.3631 441.4721,-299.5594 450.4475,-305.189 451.9991,-298.3631"/>
</g>
<!-- Node56 -->
<g id="node33" class="node">
<title>Node56</title>
<g id="a_node33"><a xlink:href="BasisFunctions_8hpp.html" target="_top" xlink:title="impl/BasisFunctions.hpp">
<polygon fill="#ffffff" stroke="#000000" points="844,-224.5 844,-243.5 968,-243.5 968,-224.5 844,-224.5"/>
<text text-anchor="middle" x="906" y="-231.5" font-family="Helvetica,sans-Serif" font-size="10.00" fill="#000000">impl/BasisFunctions.hpp</text>
</a>
</g>
</g>
<!-- Node0&#45;&gt;Node56 -->
<g id="edge70" class="edge">
<title>Node0&#45;&gt;Node56</title>
<path fill="none" stroke="#191970" d="M1478.4248,-459.4715C1449.1813,-449.4676 1410.1705,-435.8486 1376,-423 1210.1614,-360.6425 1014.2763,-279.3864 938.332,-247.5914"/>
<polygon fill="#191970" stroke="#191970" points="939.4173,-244.2514 928.8416,-243.6141 936.7116,-250.7073 939.4173,-244.2514"/>
</g>
<!-- Node61 -->
<g id="node37" class="node">
<title>Node61</title>
<g id="a_node37"><a xlink:href="Filter_8hpp.html" target="_top" xlink:title="mesh/Filter.hpp">
<polygon fill="#ffffff" stroke="#000000" points="1516,-403.5 1516,-422.5 1600,-422.5 1600,-403.5 1516,-403.5"/>
<text text-anchor="middle" x="1558" y="-410.5" font-family="Helvetica,sans-Serif" font-size="10.00" fill="#000000">mesh/Filter.hpp</text>
</a>
</g>
</g>
<!-- Node0&#45;&gt;Node61 -->
<g id="edge78" class="edge">
<title>Node0&#45;&gt;Node61</title>
<path fill="none" stroke="#191970" d="M1531.6517,-459.2977C1536.4088,-450.9388 1542.3498,-440.4997 1547.3857,-431.6509"/>
<polygon fill="#191970" stroke="#191970" points="1550.4917,-433.2692 1552.3961,-422.8469 1544.4079,-429.8069 1550.4917,-433.2692"/>
</g>
<!-- Node63 -->
<g id="node39" class="node">
<title>Node63</title>
<g id="a_node39"><a xlink:href="RTree_8hpp.html" target="_top" xlink:title="mesh/RTree.hpp">
<polygon fill="#ffffff" stroke="#000000" points="2083.5,-342 2083.5,-361 2172.5,-361 2172.5,-342 2083.5,-342"/>
<text text-anchor="middle" x="2128" y="-349" font-family="Helvetica,sans-Serif" font-size="10.00" fill="#000000">mesh/RTree.hpp</text>
</a>
</g>
</g>
<!-- Node0&#45;&gt;Node63 -->
<g id="edge81" class="edge">
<title>Node0&#45;&gt;Node63</title>
<path fill="none" stroke="#191970" d="M1593.159,-470.7994C1730.6755,-463.1195 2025.8877,-444.3739 2067,-423 2089.6309,-411.2344 2107.3685,-387.1778 2117.7505,-370.2275"/>
<polygon fill="#191970" stroke="#191970" points="2120.9903,-371.6188 2122.9946,-361.2153 2114.94,-368.0982 2120.9903,-371.6188"/>
</g>
<!-- Node67 -->
<g id="node43" class="node">
<title>Node67</title>
<g id="a_node43"><a xlink:href="BBUtils_8hpp.html" target="_top" xlink:title="mesh/impl/BBUtils.hpp">
<polygon fill="#ffffff" stroke="#000000" points="1907.5,-403.5 1907.5,-422.5 2024.5,-422.5 2024.5,-403.5 1907.5,-403.5"/>
<text text-anchor="middle" x="1966" y="-410.5" font-family="Helvetica,sans-Serif" font-size="10.00" fill="#000000">mesh/impl/BBUtils.hpp</text>
</a>
</g>
</g>
<!-- Node0&#45;&gt;Node67 -->
<g id="edge96" class="edge">
<title>Node0&#45;&gt;Node67</title>
<path fill="none" stroke="#191970" d="M1593.1947,-464.7551C1676.5714,-453.1803 1814.7369,-433.9993 1897.4052,-422.5228"/>
<polygon fill="#191970" stroke="#191970" points="1898.0279,-425.97 1907.4516,-421.128 1897.0653,-419.0365 1898.0279,-425.97"/>
</g>
<!-- Node68 -->
<g id="node44" class="node">
<title>Node68</title>
<g id="a_node44"><a xlink:href="EigenHelperFunctions_8hpp.html" target="_top" xlink:title="utils/EigenHelperFunctions.hpp">
<polygon fill="#ffffff" stroke="#000000" points="2680,-224.5 2680,-243.5 2832,-243.5 2832,-224.5 2680,-224.5"/>
<text text-anchor="middle" x="2756" y="-231.5" font-family="Helvetica,sans-Serif" font-size="10.00" fill="#000000">utils/EigenHelperFunctions.hpp</text>
</a>
</g>
</g>
<!-- Node0&#45;&gt;Node68 -->
<g id="edge99" class="edge">
<title>Node0&#45;&gt;Node68</title>
<path fill="none" stroke="#191970" d="M1593.3357,-472.3852C1701.5343,-468.1813 1914.9674,-456.1151 2093,-423 2337.0246,-377.61 2620.7647,-281.7338 2719.7434,-246.9517"/>
<polygon fill="#191970" stroke="#191970" points="2721.0119,-250.2157 2729.2783,-243.5887 2718.6835,-243.6142 2721.0119,-250.2157"/>
</g>
<!-- Node71 -->
<g id="node47" class="node">
<title>Node71</title>
<g id="a_node47"><a xlink:href="Event_8hpp.html" target="_top" xlink:title="utils/Event.hpp">
<polygon fill="#ffffff" stroke="#000000" points="986,-224.5 986,-243.5 1068,-243.5 1068,-224.5 986,-224.5"/>
<text text-anchor="middle" x="1027" y="-231.5" font-family="Helvetica,sans-Serif" font-size="10.00" fill="#000000">utils/Event.hpp</text>
</a>
</g>
</g>
<!-- Node0&#45;&gt;Node71 -->
<g id="edge109" class="edge">
<title>Node0&#45;&gt;Node71</title>
<path fill="none" stroke="#191970" d="M1491.973,-459.4556C1402.1305,-415.8929 1142.6537,-290.0781 1055.7501,-247.9403"/>
<polygon fill="#191970" stroke="#191970" points="1057.2474,-244.7766 1046.7223,-243.5629 1054.1933,-251.0752 1057.2474,-244.7766"/>
</g>
<!-- Node73 -->
<g id="node49" class="node">
<title>Node73</title>
<g id="a_node49"><a xlink:href="MasterSlave_8hpp.html" target="_top" xlink:title="utils/MasterSlave.hpp">
<polygon fill="#ffffff" stroke="#000000" points="28.5,-224.5 28.5,-243.5 139.5,-243.5 139.5,-224.5 28.5,-224.5"/>
<text text-anchor="middle" x="84" y="-231.5" font-family="Helvetica,sans-Serif" font-size="10.00" fill="#000000">utils/MasterSlave.hpp</text>
</a>
</g>
</g>
<!-- Node0&#45;&gt;Node73 -->
<g id="edge116" class="edge">
<title>Node0&#45;&gt;Node73</title>
<path fill="none" stroke="#191970" d="M1452.616,-473.7838C1183.3662,-470.4164 228.6127,-452.4928 126,-367 92.1678,-338.8124 85.2083,-283.5544 84.0148,-253.912"/>
<polygon fill="#191970" stroke="#191970" points="87.5071,-253.508 83.7949,-243.5848 80.5086,-253.657 87.5071,-253.508"/>
</g>
<!-- Node74 -->
<g id="node50" class="node">
<title>Node74</title>
<polygon fill="#ffffff" stroke="#bfbfbf" points="2675.5,-403.5 2675.5,-422.5 2734.5,-422.5 2734.5,-403.5 2675.5,-403.5"/>
<text text-anchor="middle" x="2705" y="-410.5" font-family="Helvetica,sans-Serif" font-size="10.00" fill="#000000">Eigen/QR</text>
</g>
<!-- Node0&#45;&gt;Node74 -->
<g id="edge121" class="edge">
<title>Node0&#45;&gt;Node74</title>
<path fill="none" stroke="#191970" d="M1593.1258,-472.965C1807.6365,-468.0106 2453.0062,-451.1134 2661,-423 2662.4556,-422.8033 2663.934,-422.5817 2665.424,-422.34"/>
<polygon fill="#191970" stroke="#191970" points="2666.1172,-425.7712 2675.3091,-420.5024 2664.8378,-418.8891 2666.1172,-425.7712"/>
</g>
<!-- Node2 -->
<g id="node3" class="node">
<title>Node2</title>
<polygon fill="#ffffff" stroke="#bfbfbf" points="2005.5,-168.5 2005.5,-187.5 2050.5,-187.5 2050.5,-168.5 2005.5,-168.5"/>
<text text-anchor="middle" x="2028" y="-175.5" font-family="Helvetica,sans-Serif" font-size="10.00" fill="#000000">iosfwd</text>
</g>
<!-- Node1&#45;&gt;Node2 -->
<g id="edge2" class="edge">
<title>Node1&#45;&gt;Node2</title>
<path fill="none" stroke="#191970" d="M1479.491,-341.9525C1485.8084,-339.7998 1492.6021,-337.6626 1499,-336 1724.0379,-277.5194 1846.9595,-405.739 2014,-244 2026.2044,-232.183 2029.0739,-212.5723 2029.2684,-197.7914"/>
<polygon fill="#191970" stroke="#191970" points="2032.7633,-197.545 2029.006,-187.6388 2025.7656,-197.7259 2032.7633,-197.545"/>
</g>
<!-- Node3 -->
<g id="node4" class="node">
<title>Node3</title>
<g id="a_node4"><a xlink:href="Mesh_8hpp.html" target="_top" xlink:title="mesh/Mesh.hpp">
<polygon fill="#ffffff" stroke="#000000" points="1502,-280.5 1502,-299.5 1588,-299.5 1588,-280.5 1502,-280.5"/>
<text text-anchor="middle" x="1545" y="-287.5" font-family="Helvetica,sans-Serif" font-size="10.00" fill="#000000">mesh/Mesh.hpp</text>
</a>
</g>
</g>
<!-- Node1&#45;&gt;Node3 -->
<g id="edge3" class="edge">
<title>Node1&#45;&gt;Node3</title>
<path fill="none" stroke="#191970" d="M1468.2188,-341.8906C1482.6434,-332.1421 1505.1976,-316.8994 1522.136,-305.4521"/>
<polygon fill="#191970" stroke="#191970" points="1524.5556,-308.0412 1530.8811,-299.5419 1520.6359,-302.2415 1524.5556,-308.0412"/>
</g>
<!-- Node41 -->
<g id="node23" class="node">
<title>Node41</title>
<g id="a_node23"><a xlink:href="mesh_2SharedPointer_8hpp.html" target="_top" xlink:title="mesh/SharedPointer.hpp">
<polygon fill="#ffffff" stroke="#000000" points="524,-224.5 524,-243.5 648,-243.5 648,-224.5 524,-224.5"/>
<text text-anchor="middle" x="586" y="-231.5" font-family="Helvetica,sans-Serif" font-size="10.00" fill="#000000">mesh/SharedPointer.hpp</text>
</a>
</g>
</g>
<!-- Node1&#45;&gt;Node41 -->
<g id="edge53" class="edge">
<title>Node1&#45;&gt;Node41</title>
<path fill="none" stroke="#191970" d="M1417.8547,-351.3483C1266.3891,-350.4343 687.4927,-344.0636 620,-300 604.0198,-289.5671 595.1511,-269.1246 590.5134,-253.7409"/>
<polygon fill="#191970" stroke="#191970" points="593.7846,-252.4207 587.8429,-243.6488 587.0175,-254.2114 593.7846,-252.4207"/>
</g>
<!-- Node3&#45;&gt;Node2 -->
<g id="edge7" class="edge">
<title>Node3&#45;&gt;Node2</title>
<path fill="none" stroke="#191970" d="M1588.2352,-287.7965C1693.6608,-282.1064 1957.7811,-265.8263 1991,-244 2007.4127,-233.2161 2017.2743,-212.519 2022.6389,-197.1647"/>
<polygon fill="#191970" stroke="#191970" points="2025.9931,-198.1654 2025.6596,-187.5759 2019.3166,-196.0621 2025.9931,-198.1654"/>
</g>
<!-- Node3&#45;&gt;Node4 -->
<g id="edge4" class="edge">
<title>Node3&#45;&gt;Node4</title>
<path fill="none" stroke="#191970" d="M1501.8385,-287.5355C1411.939,-281.9609 1211.2465,-267.0477 1191,-244 1185.1335,-237.3219 1185.6585,-231.105 1191,-224 1277.6342,-108.7622 1743.2298,-35.8399 1888.0099,-15.6957"/>
<polygon fill="#191970" stroke="#191970" points="1888.8369,-19.1149 1898.2656,-14.2827 1887.8815,-12.1804 1888.8369,-19.1149"/>
</g>
<!-- Node5 -->
<g id="node6" class="node">
<title>Node5</title>
<polygon fill="#ffffff" stroke="#bfbfbf" points="1356,-224.5 1356,-243.5 1454,-243.5 1454,-224.5 1356,-224.5"/>
<text text-anchor="middle" x="1405" y="-231.5" font-family="Helvetica,sans-Serif" font-size="10.00" fill="#000000">boost/signals2.hpp</text>
</g>
<!-- Node3&#45;&gt;Node5 -->
<g id="edge5" class="edge">
<title>Node3&#45;&gt;Node5</title>
<path fill="none" stroke="#191970" d="M1520.9331,-280.3733C1498.1572,-271.2629 1463.7656,-257.5062 1438.351,-247.3404"/>
<polygon fill="#191970" stroke="#191970" points="1439.3375,-243.9654 1428.7528,-243.5011 1436.7377,-250.4648 1439.3375,-243.9654"/>
</g>
<!-- Node6 -->
<g id="node7" class="node">
<title>Node6</title>
<polygon fill="#ffffff" stroke="#bfbfbf" points="1548.5,-224.5 1548.5,-243.5 1591.5,-243.5 1591.5,-224.5 1548.5,-224.5"/>
<text text-anchor="middle" x="1570" y="-231.5" font-family="Helvetica,sans-Serif" font-size="10.00" fill="#000000">deque</text>
</g>
<!-- Node3&#45;&gt;Node6 -->
<g id="edge6" class="edge">
<title>Node3&#45;&gt;Node6</title>
<path fill="none" stroke="#191970" d="M1549.3547,-280.2455C1552.7244,-272.6973 1557.493,-262.0158 1561.5983,-252.8197"/>
<polygon fill="#191970" stroke="#191970" points="1564.8147,-254.2009 1565.6952,-243.6427 1558.4227,-251.3473 1564.8147,-254.2009"/>
</g>
<!-- Node7 -->
<g id="node8" class="node">
<title>Node7</title>
<polygon fill="#ffffff" stroke="#bfbfbf" points="1609.5,-224.5 1609.5,-243.5 1638.5,-243.5 1638.5,-224.5 1609.5,-224.5"/>
<text text-anchor="middle" x="1624" y="-231.5" font-family="Helvetica,sans-Serif" font-size="10.00" fill="#000000">list</text>
</g>
<!-- Node3&#45;&gt;Node7 -->
<g id="edge8" class="edge">
<title>Node3&#45;&gt;Node7</title>
<path fill="none" stroke="#191970" d="M1558.7607,-280.2455C1570.6552,-271.814 1588.065,-259.4729 1601.9085,-249.6598"/>
<polygon fill="#191970" stroke="#191970" points="1604.2628,-252.2811 1610.3969,-243.6427 1600.2146,-246.5704 1604.2628,-252.2811"/>
</g>
<!-- Node8 -->
<g id="node9" class="node">
<title>Node8</title>
<polygon fill="#ffffff" stroke="#bfbfbf" points="1649.5,-168.5 1649.5,-187.5 1684.5,-187.5 1684.5,-168.5 1649.5,-168.5"/>
<text text-anchor="middle" x="1667" y="-175.5" font-family="Helvetica,sans-Serif" font-size="10.00" fill="#000000">map</text>
</g>
<!-- Node3&#45;&gt;Node8 -->
<g id="edge9" class="edge">
<title>Node3&#45;&gt;Node8</title>
<path fill="none" stroke="#191970" d="M1532.0809,-280.3841C1515.8524,-267.1313 1491.756,-242.7633 1506,-224 1541.9912,-176.5896 1577.9193,-204.8793 1635,-188 1636.4652,-187.5667 1637.9663,-187.1172 1639.4807,-186.6592"/>
<polygon fill="#191970" stroke="#191970" points="1640.8963,-189.8856 1649.4244,-183.599 1638.8372,-183.1953 1640.8963,-189.8856"/>
</g>
<!-- Node9 -->
<g id="node10" class="node">
<title>Node9</title>
<polygon fill="#ffffff" stroke="#bfbfbf" points="796.5,-56.5 796.5,-75.5 837.5,-75.5 837.5,-56.5 796.5,-56.5"/>
<text text-anchor="middle" x="817" y="-63.5" font-family="Helvetica,sans-Serif" font-size="10.00" fill="#000000">string</text>
</g>
<!-- Node3&#45;&gt;Node9 -->
<g id="edge10" class="edge">
<title>Node3&#45;&gt;Node9</title>
<path fill="none" stroke="#191970" d="M1501.8889,-288.7264C1407.876,-285.406 1187.4479,-274.5162 1120,-244 1040.899,-208.2115 1051.6963,-154.5188 976,-112 934.8542,-88.8883 881.0652,-76.4988 847.7874,-70.5859"/>
<polygon fill="#191970" stroke="#191970" points="848.1892,-67.1043 837.7457,-68.8884 847.0224,-74.0063 848.1892,-67.1043"/>
</g>
<!-- Node10 -->
<g id="node11" class="node">
<title>Node10</title>
<polygon fill="#ffffff" stroke="#bfbfbf" points="1703,-168.5 1703,-187.5 1747,-187.5 1747,-168.5 1703,-168.5"/>
<text text-anchor="middle" x="1725" y="-175.5" font-family="Helvetica,sans-Serif" font-size="10.00" fill="#000000">vector</text>
</g>
<!-- Node3&#45;&gt;Node10 -->
<g id="edge11" class="edge">
<title>Node3&#45;&gt;Node10</title>
<path fill="none" stroke="#191970" d="M1540.3216,-280.2908C1534.3178,-266.2579 1526.1184,-240.2164 1539,-224 1581.0991,-171.0024 1622.1573,-203.7584 1692.9924,-187.8799"/>
<polygon fill="#191970" stroke="#191970" points="1693.8717,-191.2679 1702.7164,-185.4349 1692.1647,-184.4792 1693.8717,-191.2679"/>
</g>
<!-- Node11 -->
<g id="node12" class="node">
<title>Node11</title>
<g id="a_node12"><a xlink:href="Logger_8hpp.html" target="_top" xlink:title="logging/Logger.hpp">
<polygon fill="#ffffff" stroke="#000000" points="729,-168.5 729,-187.5 827,-187.5 827,-168.5 729,-168.5"/>
<text text-anchor="middle" x="778" y="-175.5" font-family="Helvetica,sans-Serif" font-size="10.00" fill="#000000">logging/Logger.hpp</text>
</a>
</g>
</g>
<!-- Node3&#45;&gt;Node11 -->
<g id="edge12" class="edge">
<title>Node3&#45;&gt;Node11</title>
<path fill="none" stroke="#191970" d="M1501.8094,-289.1786C1337.5474,-285.8474 759.6082,-272.1583 733,-244 718.4298,-228.581 737.3391,-208.0236 754.9198,-193.9739"/>
<polygon fill="#191970" stroke="#191970" points="757.4213,-196.4708 763.2912,-187.6506 753.2021,-190.8851 757.4213,-196.4708"/>
</g>
<!-- Node24 -->
<g id="node15" class="node">
<title>Node24</title>
<g id="a_node15"><a xlink:href="BoundingBox_8hpp.html" target="_top" xlink:title="mesh/BoundingBox.hpp">
<polygon fill="#ffffff" stroke="#000000" points="1829,-224.5 1829,-243.5 1949,-243.5 1949,-224.5 1829,-224.5"/>
<text text-anchor="middle" x="1889" y="-231.5" font-family="Helvetica,sans-Serif" font-size="10.00" fill="#000000">mesh/BoundingBox.hpp</text>
</a>
</g>
</g>
<!-- Node3&#45;&gt;Node24 -->
<g id="edge17" class="edge">
<title>Node3&#45;&gt;Node24</title>
<path fill="none" stroke="#191970" d="M1588.2195,-282.9643C1646.6112,-273.4586 1751.3357,-256.4105 1820.5047,-245.1504"/>
<polygon fill="#191970" stroke="#191970" points="1821.1346,-248.594 1830.4422,-243.5327 1820.0098,-241.685 1821.1346,-248.594"/>
</g>
<!-- Node25 -->
<g id="node16" class="node">
<title>Node25</title>
<g id="a_node16"><a xlink:href="Vertex_8hpp.html" target="_top" xlink:title="mesh/Vertex.hpp">
<polygon fill="#ffffff" stroke="#ff0000" points="2215.5,-112.5 2215.5,-131.5 2306.5,-131.5 2306.5,-112.5 2215.5,-112.5"/>
<text text-anchor="middle" x="2261" y="-119.5" font-family="Helvetica,sans-Serif" font-size="10.00" fill="#000000">mesh/Vertex.hpp</text>
</a>
</g>
</g>
<!-- Node3&#45;&gt;Node25 -->
<g id="edge47" class="edge">
<title>Node3&#45;&gt;Node25</title>
<path fill="none" stroke="#191970" d="M1588.003,-287.5071C1687.6117,-281.4086 1927.9717,-264.7114 1958,-244 1989.2526,-222.4441 1966.4259,-190.5079 1997,-168 2001.2019,-164.9067 2129.2248,-143.5486 2205.4193,-131.051"/>
<polygon fill="#191970" stroke="#191970" points="2206.0503,-134.4944 2215.3529,-129.4237 2204.9186,-127.5865 2206.0503,-134.4944"/>
</g>
<!-- Node29 -->
<g id="node19" class="node">
<title>Node29</title>
<g id="a_node19"><a xlink:href="assertion_8hpp.html" target="_top" xlink:title="utils/assertion.hpp">
<polygon fill="#ffffff" stroke="#ff0000" points="2455,-.5 2455,-19.5 2551,-19.5 2551,-.5 2455,-.5"/>
<text text-anchor="middle" x="2503" y="-7.5" font-family="Helvetica,sans-Serif" font-size="10.00" fill="#000000">utils/assertion.hpp</text>
</a>
</g>
</g>
<!-- Node3&#45;&gt;Node29 -->
<g id="edge52" class="edge">
<title>Node3&#45;&gt;Node29</title>
<path fill="none" stroke="#191970" d="M1588.189,-289.1343C1769.7132,-285.3415 2463.2638,-269.2455 2502,-244 2573.9787,-197.0894 2582.5121,-134.2331 2547,-56 2541.824,-44.5973 2532.6097,-34.2766 2523.946,-26.3141"/>
<polygon fill="#191970" stroke="#191970" points="2526.1352,-23.5803 2516.2761,-19.7012 2521.5642,-28.8819 2526.1352,-23.5803"/>
</g>
<!-- Node37 -->
<g id="node20" class="node">
<title>Node37</title>
<g id="a_node20"><a xlink:href="Data_8hpp.html" target="_top" xlink:title="mesh/Data.hpp">
<polygon fill="#ffffff" stroke="#000000" points="742.5,-224.5 742.5,-243.5 825.5,-243.5 825.5,-224.5 742.5,-224.5"/>
<text text-anchor="middle" x="784" y="-231.5" font-family="Helvetica,sans-Serif" font-size="10.00" fill="#000000">mesh/Data.hpp</text>
</a>
</g>
</g>
<!-- Node3&#45;&gt;Node37 -->
<g id="edge29" class="edge">
<title>Node3&#45;&gt;Node37</title>
<path fill="none" stroke="#191970" d="M1501.9963,-289.1434C1392.4904,-286.55 1094.1222,-276.9042 835.6282,-243.9106"/>
<polygon fill="#191970" stroke="#191970" points="836.0426,-240.4352 825.6769,-242.6263 835.1466,-247.3776 836.0426,-240.4352"/>
</g>
<!-- Node39 -->
<g id="node22" class="node">
<title>Node39</title>
<g id="a_node22"><a xlink:href="Edge_8hpp.html" target="_top" xlink:title="mesh/Edge.hpp">
<polygon fill="#ffffff" stroke="#ff0000" points="2259.5,-168.5 2259.5,-187.5 2344.5,-187.5 2344.5,-168.5 2259.5,-168.5"/>
<text text-anchor="middle" x="2302" y="-175.5" font-family="Helvetica,sans-Serif" font-size="10.00" fill="#000000">mesh/Edge.hpp</text>
</a>
</g>
</g>
<!-- Node3&#45;&gt;Node39 -->
<g id="edge34" class="edge">
<title>Node3&#45;&gt;Node39</title>
<path fill="none" stroke="#191970" d="M1588.2382,-287.6079C1671.2122,-282.6095 1858.3556,-269.361 2014,-244 2100.9247,-229.8363 2200.7956,-204.9843 2257.149,-190.1514"/>
<polygon fill="#191970" stroke="#191970" points="2258.0452,-193.5348 2266.8167,-187.5925 2256.254,-186.7678 2258.0452,-193.5348"/>
</g>
<!-- Node3&#45;&gt;Node41 -->
<g id="edge39" class="edge">
<title>Node3&#45;&gt;Node41</title>
<path fill="none" stroke="#191970" d="M1501.8788,-288.1577C1377.4414,-282.7323 1007.0203,-265.8166 700,-244 686.445,-243.0368 671.9953,-241.8744 658.0966,-240.6881"/>
<polygon fill="#191970" stroke="#191970" points="658.3588,-237.1978 648.0943,-239.8225 657.7553,-244.1717 658.3588,-237.1978"/>
</g>
<!-- Node42 -->
<g id="node24" class="node">
<title>Node42</title>
<g id="a_node24"><a xlink:href="Triangle_8hpp.html" target="_top" xlink:title="mesh/Triangle.hpp">
<polygon fill="#ffffff" stroke="#ff0000" points="2395.5,-224.5 2395.5,-243.5 2492.5,-243.5 2492.5,-224.5 2395.5,-224.5"/>
<text text-anchor="middle" x="2444" y="-231.5" font-family="Helvetica,sans-Serif" font-size="10.00" fill="#000000">mesh/Triangle.hpp</text>
</a>
</g>
</g>
<!-- Node3&#45;&gt;Node42 -->
<g id="edge41" class="edge">
<title>Node3&#45;&gt;Node42</title>
<path fill="none" stroke="#191970" d="M1588.0327,-289.408C1710.8561,-287.3436 2073.693,-278.6381 2385.1954,-243.9534"/>
<polygon fill="#191970" stroke="#191970" points="2385.7783,-247.41 2395.3245,-242.8143 2384.996,-240.4538 2385.7783,-247.41"/>
</g>
<!-- Node46 -->
<g id="node26" class="node">
<title>Node46</title>
<g id="a_node26"><a xlink:href="ManageUniqueIDs_8hpp.html" target="_top" xlink:title="utils/ManageUniqueIDs.hpp">
<polygon fill="#ffffff" stroke="#ff0000" points="1200.5,-224.5 1200.5,-243.5 1337.5,-243.5 1337.5,-224.5 1200.5,-224.5"/>
<text text-anchor="middle" x="1269" y="-231.5" font-family="Helvetica,sans-Serif" font-size="10.00" fill="#000000">utils/ManageUniqueIDs.hpp</text>
</a>
</g>
</g>
<!-- Node3&#45;&gt;Node46 -->
<g id="edge48" class="edge">
<title>Node3&#45;&gt;Node46</title>
<path fill="none" stroke="#191970" d="M1501.875,-281.25C1454.5438,-271.6466 1378.3529,-256.1875 1326.0932,-245.5841"/>
<polygon fill="#191970" stroke="#191970" points="1326.4723,-242.0898 1315.976,-243.5314 1325.0803,-248.95 1326.4723,-242.0898"/>
</g>
<!-- Node49 -->
<g id="node27" class="node">
<title>Node49</title>
<g id="a_node27"><a xlink:href="PointerVector_8hpp.html" target="_top" xlink:title="utils/PointerVector.hpp">
<polygon fill="#ffffff" stroke="#ff0000" points="1695,-224.5 1695,-243.5 1811,-243.5 1811,-224.5 1695,-224.5"/>
<text text-anchor="middle" x="1753" y="-231.5" font-family="Helvetica,sans-Serif" font-size="10.00" fill="#000000">utils/PointerVector.hpp</text>
</a>
</g>
</g>
<!-- Node3&#45;&gt;Node49 -->
<g id="edge49" class="edge">
<title>Node3&#45;&gt;Node49</title>
<path fill="none" stroke="#191970" d="M1580.7565,-280.3733C1615.9426,-270.9001 1669.7881,-256.4032 1707.8956,-246.1435"/>
<polygon fill="#191970" stroke="#191970" points="1708.9639,-249.4806 1717.7101,-243.5011 1707.144,-242.7213 1708.9639,-249.4806"/>
</g>
<!-- Node11&#45;&gt;Node9 -->
<g id="edge14" class="edge">
<title>Node11&#45;&gt;Node9</title>
<path fill="none" stroke="#191970" d="M782.3576,-168.2374C786.4033,-158.9989 792.4672,-144.6942 797,-132 802.4732,-116.6722 807.7732,-99.0129 811.5406,-85.8201"/>
<polygon fill="#191970" stroke="#191970" points="814.9817,-86.5117 814.3149,-75.9379 808.2422,-84.6196 814.9817,-86.5117"/>
</g>
<!-- Node12 -->
<g id="node13" class="node">
<title>Node12</title>
<polygon fill="#ffffff" stroke="#bfbfbf" points="585,-112.5 585,-131.5 637,-131.5 637,-112.5 585,-112.5"/>
<text text-anchor="middle" x="611" y="-119.5" font-family="Helvetica,sans-Serif" font-size="10.00" fill="#000000">memory</text>
</g>
<!-- Node11&#45;&gt;Node12 -->
<g id="edge13" class="edge">
<title>Node11&#45;&gt;Node12</title>
<path fill="none" stroke="#191970" d="M749.2917,-168.3733C720.972,-158.8769 677.5976,-144.3321 646.989,-134.0682"/>
<polygon fill="#191970" stroke="#191970" points="647.7321,-130.6259 637.1382,-130.7649 645.5066,-137.2627 647.7321,-130.6259"/>
</g>
<!-- Node13 -->
<g id="node14" class="node">
<title>Node13</title>
<g id="a_node14"><a xlink:href="LogMacros_8hpp.html" target="_top" xlink:title="LogMacros.hpp">
<polygon fill="#ffffff" stroke="#ff0000" points="705.5,-112.5 705.5,-131.5 788.5,-131.5 788.5,-112.5 705.5,-112.5"/>
<text text-anchor="middle" x="747" y="-119.5" font-family="Helvetica,sans-Serif" font-size="10.00" fill="#000000">LogMacros.hpp</text>
</a>
</g>
</g>
<!-- Node11&#45;&gt;Node13 -->
<g id="edge15" class="edge">
<title>Node11&#45;&gt;Node13</title>
<path fill="none" stroke="#191970" d="M772.6002,-168.2455C768.3773,-160.617 762.3827,-149.7881 757.2559,-140.5267"/>
<polygon fill="#191970" stroke="#191970" points="760.2432,-138.6965 752.3379,-131.6427 754.119,-142.0867 760.2432,-138.6965"/>
</g>
<!-- Node13&#45;&gt;Node9 -->
<g id="edge16" class="edge">
<title>Node13&#45;&gt;Node9</title>
<path fill="none" stroke="#191970" d="M759.1931,-112.2455C769.6321,-103.8943 784.8655,-91.7076 797.074,-81.9408"/>
<polygon fill="#191970" stroke="#191970" points="799.3244,-84.6227 804.9467,-75.6427 794.9515,-79.1566 799.3244,-84.6227"/>
</g>
<!-- Node24&#45;&gt;Node2 -->
<g id="edge19" class="edge">
<title>Node24&#45;&gt;Node2</title>
<path fill="none" stroke="#191970" d="M1912.895,-224.3733C1935.7823,-215.1524 1970.4836,-201.1721 1995.8009,-190.9723"/>
<polygon fill="#191970" stroke="#191970" points="1997.3697,-194.1137 2005.3373,-187.1303 1994.7538,-187.6208 1997.3697,-194.1137"/>
</g>
<!-- Node24&#45;&gt;Node4 -->
<g id="edge18" class="edge">
<title>Node24&#45;&gt;Node4</title>
<path fill="none" stroke="#191970" d="M1881.5093,-224.3771C1860.6918,-196.3819 1805.9168,-113.3314 1841,-56 1851.5102,-38.8247 1870.681,-27.8044 1888.6367,-20.8722"/>
<polygon fill="#191970" stroke="#191970" points="1890.1529,-24.0491 1898.4243,-17.4284 1887.8295,-17.4459 1890.1529,-24.0491"/>
</g>
<!-- Node24&#45;&gt;Node10 -->
<g id="edge20" class="edge">
<title>Node24&#45;&gt;Node10</title>
<path fill="none" stroke="#191970" d="M1860.8074,-224.3733C1831.8446,-214.4835 1786.8473,-199.1186 1756.6738,-188.8154"/>
<polygon fill="#191970" stroke="#191970" points="1757.6484,-185.4499 1747.0539,-185.5306 1755.3864,-192.0743 1757.6484,-185.4499"/>
</g>
<!-- Node24&#45;&gt;Node11 -->
<g id="edge21" class="edge">
<title>Node24&#45;&gt;Node11</title>
<path fill="none" stroke="#191970" d="M1828.8326,-224.9093C1825.8492,-224.575 1822.8926,-224.2687 1820,-224 1434.6619,-188.1996 1336.5194,-207.2316 950,-188 912.5027,-186.1343 870.4279,-183.6942 837.2782,-181.6914"/>
<polygon fill="#191970" stroke="#191970" points="837.4857,-178.1977 827.2919,-181.085 837.0613,-185.1848 837.4857,-178.1977"/>
</g>
<!-- Node24&#45;&gt;Node25 -->
<g id="edge22" class="edge">
<title>Node24&#45;&gt;Node25</title>
<path fill="none" stroke="#191970" d="M1896.4688,-224.4794C1908.655,-209.6925 1934.3485,-181.5055 1963,-168 2058.1795,-123.1351 2093.0189,-148.1221 2197,-132 2199.6689,-131.5862 2202.4003,-131.162 2205.1589,-130.7331"/>
<polygon fill="#191970" stroke="#191970" points="2205.862,-134.1659 2215.2045,-129.1689 2204.785,-127.2492 2205.862,-134.1659"/>
</g>
<!-- Node25&#45;&gt;Node4 -->
<g id="edge23" class="edge">
<title>Node25&#45;&gt;Node4</title>
<path fill="none" stroke="#191970" d="M2259.9752,-112.1361C2257.8845,-97.4125 2251.7087,-69.9312 2234,-56 2194.4414,-24.8797 2047.8594,-14.6334 1974.0505,-11.4049"/>
<polygon fill="#191970" stroke="#191970" points="1973.846,-7.8936 1963.7101,-10.9779 1973.5571,-14.8876 1973.846,-7.8936"/>
</g>
<!-- Node27 -->
<g id="node17" class="node">
<title>Node27</title>
<polygon fill="#ffffff" stroke="#bfbfbf" points="2483,-56.5 2483,-75.5 2523,-75.5 2523,-56.5 2483,-56.5"/>
<text text-anchor="middle" x="2503" y="-63.5" font-family="Helvetica,sans-Serif" font-size="10.00" fill="#000000">utility</text>
</g>
<!-- Node25&#45;&gt;Node27 -->
<g id="edge24" class="edge">
<title>Node25&#45;&gt;Node27</title>
<path fill="none" stroke="#191970" d="M2306.6577,-112.8401C2348.943,-104.1351 2413.4838,-90.2851 2469,-76 2470.2737,-75.6723 2471.5717,-75.3295 2472.8811,-74.9766"/>
<polygon fill="#191970" stroke="#191970" points="2474.2484,-78.2279 2482.9271,-72.151 2472.353,-71.4894 2474.2484,-78.2279"/>
</g>
<!-- Node28 -->
<g id="node18" class="node">
<title>Node28</title>
<g id="a_node18"><a xlink:href="differences_8hpp.html" target="_top" xlink:title="math/differences.hpp">
<polygon fill="#ffffff" stroke="#000000" points="2319,-56.5 2319,-75.5 2427,-75.5 2427,-56.5 2319,-56.5"/>
<text text-anchor="middle" x="2373" y="-63.5" font-family="Helvetica,sans-Serif" font-size="10.00" fill="#000000">math/differences.hpp</text>
</a>
</g>
</g>
<!-- Node25&#45;&gt;Node28 -->
<g id="edge25" class="edge">
<title>Node25&#45;&gt;Node28</title>
<path fill="none" stroke="#191970" d="M2280.2535,-112.3733C2298.0712,-103.4644 2324.7747,-90.1127 2344.9594,-80.0203"/>
<polygon fill="#191970" stroke="#191970" points="2346.6187,-83.1038 2353.9978,-75.5011 2343.4882,-76.8428 2346.6187,-83.1038"/>
</g>
<!-- Node25&#45;&gt;Node29 -->
<g id="edge28" class="edge">
<title>Node25&#45;&gt;Node29</title>
<path fill="none" stroke="#191970" d="M2306.585,-116.6266C2343.4176,-110.7798 2395.5942,-98.9988 2436,-76 2457.5889,-63.7117 2477.1811,-42.7186 2489.5249,-27.7074"/>
<polygon fill="#191970" stroke="#191970" points="2492.4306,-29.6766 2495.9154,-19.6712 2486.9518,-25.3197 2492.4306,-29.6766"/>
</g>
<!-- Node28&#45;&gt;Node4 -->
<g id="edge26" class="edge">
<title>Node28&#45;&gt;Node4</title>
<path fill="none" stroke="#191970" d="M2318.8258,-57.9154C2314.1514,-57.2536 2309.4936,-56.6067 2305,-56 2185.0595,-39.8071 2043.1523,-22.995 1973.6664,-14.9153"/>
<polygon fill="#191970" stroke="#191970" points="1973.8874,-11.4175 1963.5506,-13.7413 1973.0804,-18.3709 1973.8874,-11.4175"/>
</g>
<!-- Node28&#45;&gt;Node29 -->
<g id="edge27" class="edge">
<title>Node28&#45;&gt;Node29</title>
<path fill="none" stroke="#191970" d="M2395.3478,-56.3733C2416.4033,-47.3032 2448.1495,-33.6279 2471.7175,-23.4755"/>
<polygon fill="#191970" stroke="#191970" points="2473.1444,-26.6719 2480.9438,-19.5011 2470.375,-20.243 2473.1444,-26.6719"/>
</g>
<!-- Node37&#45;&gt;Node4 -->
<g id="edge30" class="edge">
<title>Node37&#45;&gt;Node4</title>
<path fill="none" stroke="#191970" d="M800.166,-224.4438C858.2482,-190.2963 1056.643,-75.3146 1127,-56 1200.4759,-35.8292 1731.7988,-16.6558 1887.952,-11.407"/>
<polygon fill="#191970" stroke="#191970" points="1888.2341,-14.8996 1898.1115,-11.0674 1888.0002,-7.9036 1888.2341,-14.8996"/>
</g>
<!-- Node37&#45;&gt;Node9 -->
<g id="edge32" class="edge">
<title>Node37&#45;&gt;Node9</title>
<path fill="none" stroke="#191970" d="M801.0567,-224.377C813.3089,-216.4014 828.8708,-203.8248 836,-188 851.3312,-153.9688 837.0164,-109.79 826.2918,-85.0121"/>
<polygon fill="#191970" stroke="#191970" points="829.3582,-83.3017 822.0123,-75.667 822.9938,-86.2162 829.3582,-83.3017"/>
</g>
<!-- Node37&#45;&gt;Node11 -->
<g id="edge33" class="edge">
<title>Node37&#45;&gt;Node11</title>
<path fill="none" stroke="#191970" d="M782.9549,-224.2455C782.172,-216.9382 781.0744,-206.6944 780.1112,-197.7046"/>
<polygon fill="#191970" stroke="#191970" points="783.5786,-197.2129 779.0331,-187.6427 776.6185,-197.9587 783.5786,-197.2129"/>
</g>
<!-- Node38 -->
<g id="node21" class="node">
<title>Node38</title>
<polygon fill="#ffffff" stroke="#bfbfbf" points="659,-168.5 659,-187.5 711,-187.5 711,-168.5 659,-168.5"/>
<text text-anchor="middle" x="685" y="-175.5" font-family="Helvetica,sans-Serif" font-size="10.00" fill="#000000">stddef.h</text>
</g>
<!-- Node37&#45;&gt;Node38 -->
<g id="edge31" class="edge">
<title>Node37&#45;&gt;Node38</title>
<path fill="none" stroke="#191970" d="M766.7555,-224.2455C751.4239,-215.5731 728.7801,-202.7645 711.2084,-192.825"/>
<polygon fill="#191970" stroke="#191970" points="712.4741,-189.5198 702.0469,-187.6427 709.0276,-195.6126 712.4741,-189.5198"/>
</g>
<!-- Node39&#45;&gt;Node4 -->
<g id="edge35" class="edge">
<title>Node39&#45;&gt;Node4</title>
<path fill="none" stroke="#191970" d="M2259.367,-170.469C2254.5226,-169.6286 2249.6554,-168.791 2245,-168 2147.754,-151.4773 2106.8826,-188.4605 2026,-132 1994.177,-109.7858 2007.4247,-86.1597 1983,-56 1973.992,-44.8769 1962.1521,-34.1752 1952.0458,-25.8972"/>
<polygon fill="#191970" stroke="#191970" points="1954.0718,-23.0368 1944.0644,-19.5578 1949.718,-28.5181 1954.0718,-23.0368"/>
</g>
<!-- Node39&#45;&gt;Node25 -->
<g id="edge37" class="edge">
<title>Node39&#45;&gt;Node25</title>
<path fill="none" stroke="#191970" d="M2294.8583,-168.2455C2289.1556,-160.4564 2281.01,-149.3308 2274.1375,-139.9439"/>
<polygon fill="#191970" stroke="#191970" points="2276.7913,-137.6437 2268.0598,-131.6427 2271.1432,-141.7789 2276.7913,-137.6437"/>
</g>
<!-- Node39&#45;&gt;Node28 -->
<g id="edge36" class="edge">
<title>Node39&#45;&gt;Node28</title>
<path fill="none" stroke="#191970" d="M2308.0534,-168.4509C2319.8954,-149.7707 2346.2965,-108.1238 2361.541,-84.0761"/>
<polygon fill="#191970" stroke="#191970" points="2364.5638,-85.8448 2366.9619,-75.5249 2358.6517,-82.0969 2364.5638,-85.8448"/>
</g>
<!-- Node39&#45;&gt;Node29 -->
<g id="edge38" class="edge">
<title>Node39&#45;&gt;Node29</title>
<path fill="none" stroke="#191970" d="M2327.6299,-168.4466C2385.0693,-146.7862 2520.0319,-94.3998 2532,-76 2541.9463,-60.7086 2531.1668,-41.4356 2520.0375,-27.6714"/>
<polygon fill="#191970" stroke="#191970" points="2522.4604,-25.1251 2513.2448,-19.8979 2517.1893,-29.7311 2522.4604,-25.1251"/>
</g>
<!-- Node41&#45;&gt;Node12 -->
<g id="edge40" class="edge">
<title>Node41&#45;&gt;Node12</title>
<path fill="none" stroke="#191970" d="M588.1315,-224.4509C592.2274,-206.1013 601.2699,-165.5908 606.6765,-141.3693"/>
<polygon fill="#191970" stroke="#191970" points="610.1112,-142.0472 608.8739,-131.5249 603.2794,-140.5222 610.1112,-142.0472"/>
</g>
<!-- Node42&#45;&gt;Node4 -->
<g id="edge42" class="edge">
<title>Node42&#45;&gt;Node4</title>
<path fill="none" stroke="#191970" d="M2402.9036,-224.458C2363.7911,-215.3168 2303.3098,-201.0259 2251,-188 2216.69,-179.4563 2208.4201,-176.0887 2174,-168 2098.3936,-150.2326 2066.0945,-177.2889 2003,-132 1967.1941,-106.2987 1946.2352,-56.7941 1936.8833,-29.4081"/>
<polygon fill="#191970" stroke="#191970" points="1940.1756,-28.2141 1933.7651,-19.7788 1933.5161,-30.3707 1940.1756,-28.2141"/>
</g>
<!-- Node42&#45;&gt;Node28 -->
<g id="edge44" class="edge">
<title>Node42&#45;&gt;Node28</title>
<path fill="none" stroke="#191970" d="M2428.4637,-224.2831C2416.7565,-216.0931 2401.3414,-203.28 2393,-188 2375.1632,-155.3262 2372.3151,-110.9276 2372.3332,-85.6881"/>
<polygon fill="#191970" stroke="#191970" points="2375.8349,-85.6069 2372.4997,-75.5508 2368.8359,-85.4919 2375.8349,-85.6069"/>
</g>
<!-- Node42&#45;&gt;Node29 -->
<g id="edge46" class="edge">
<title>Node42&#45;&gt;Node29</title>
<path fill="none" stroke="#191970" d="M2492.6424,-231.5698C2566.4724,-227.0494 2702.4243,-215.215 2742,-188 2765.62,-171.7573 2766.6424,-159.7055 2774,-132 2776.2815,-123.4089 2778.9169,-119.4052 2774,-112 2749.0687,-74.4514 2626.1019,-39.4602 2554.6703,-21.8663"/>
<polygon fill="#191970" stroke="#191970" points="2555.4926,-18.4643 2544.9486,-19.5007 2553.8375,-25.2659 2555.4926,-18.4643"/>
</g>
<!-- Node42&#45;&gt;Node39 -->
<g id="edge45" class="edge">
<title>Node42&#45;&gt;Node39</title>
<path fill="none" stroke="#191970" d="M2419.5893,-224.3733C2396.3858,-215.2226 2361.2962,-201.3844 2335.4858,-191.2057"/>
<polygon fill="#191970" stroke="#191970" points="2336.6789,-187.9139 2326.0921,-187.5011 2334.1108,-194.4258 2336.6789,-187.9139"/>
</g>
<!-- Node43 -->
<g id="node25" class="node">
<title>Node43</title>
<polygon fill="#ffffff" stroke="#bfbfbf" points="2487,-112.5 2487,-131.5 2543,-131.5 2543,-112.5 2487,-112.5"/>
<text text-anchor="middle" x="2515" y="-119.5" font-family="Helvetica,sans-Serif" font-size="10.00" fill="#000000">algorithm</text>
</g>
<!-- Node42&#45;&gt;Node43 -->
<g id="edge43" class="edge">
<title>Node42&#45;&gt;Node43</title>
<path fill="none" stroke="#191970" d="M2469.7975,-224.4171C2485.5993,-217.058 2504.5488,-205.2068 2514,-188 2521.7488,-173.8926 2521.2959,-155.3983 2519.3085,-141.5774"/>
<polygon fill="#191970" stroke="#191970" points="2522.74,-140.884 2517.513,-131.6683 2515.8521,-142.1321 2522.74,-140.884"/>
</g>
<!-- Node49&#45;&gt;Node10 -->
<g id="edge50" class="edge">
<title>Node49&#45;&gt;Node10</title>
<path fill="none" stroke="#191970" d="M1748.1228,-224.2455C1744.3487,-216.6973 1739.0079,-206.0158 1734.4099,-196.8197"/>
<polygon fill="#191970" stroke="#191970" points="1737.424,-195.0217 1729.8213,-187.6427 1731.163,-198.1522 1737.424,-195.0217"/>
</g>
<!-- Node49&#45;&gt;Node29 -->
<g id="edge51" class="edge">
<title>Node49&#45;&gt;Node29</title>
<path fill="none" stroke="#191970" d="M1774.5367,-224.4951C1807.3053,-210.3626 1871.9125,-183.7846 1929,-168 2014.7866,-144.2801 2040.6155,-157.129 2126,-132 2210.8795,-107.0196 2225.8154,-83.2304 2310,-56 2354.5261,-41.5976 2406.1493,-29.5263 2444.7962,-21.3683"/>
<polygon fill="#191970" stroke="#191970" points="2445.7565,-24.7434 2454.8317,-19.2761 2444.3278,-17.8907 2445.7565,-24.7434"/>
</g>
<!-- Node51&#45;&gt;Node3 -->
<g id="edge59" class="edge">
<title>Node51&#45;&gt;Node3</title>
<path fill="none" stroke="#191970" d="M277.0451,-348.2369C515.242,-337.2966 1282.3273,-302.0645 1491.7474,-292.4459"/>
<polygon fill="#191970" stroke="#191970" points="1492.0427,-295.9361 1501.8715,-291.9809 1491.7214,-288.9435 1492.0427,-295.9361"/>
</g>
<!-- Node51&#45;&gt;Node9 -->
<g id="edge55" class="edge">
<title>Node51&#45;&gt;Node9</title>
<path fill="none" stroke="#191970" d="M140.2539,-341.9932C79.9666,-329.1213 0,-299.6704 0,-234 0,-234 0,-234 0,-178 0,-137.5389 637.2542,-81.1868 786.1524,-68.5721"/>
<polygon fill="#191970" stroke="#191970" points="786.7253,-72.0363 796.3958,-67.7081 786.137,-65.061 786.7253,-72.0363"/>
</g>
<!-- Node51&#45;&gt;Node11 -->
<g id="edge58" class="edge">
<title>Node51&#45;&gt;Node11</title>
<path fill="none" stroke="#191970" d="M209.0599,-341.9969C217.5255,-317.4413 243.806,-251.8587 291,-224 370.8109,-176.8876 609.5377,-198.6623 718.8341,-187.9034"/>
<polygon fill="#191970" stroke="#191970" points="719.4527,-191.3559 728.9974,-186.7572 718.6682,-184.4 719.4527,-191.3559"/>
</g>
<!-- Node52 -->
<g id="node29" class="node">
<title>Node52</title>
<g id="a_node29"><a xlink:href="com_2SharedPointer_8hpp.html" target="_top" xlink:title="com/SharedPointer.hpp">
<polygon fill="#ffffff" stroke="#000000" points="308.5,-168.5 308.5,-187.5 427.5,-187.5 427.5,-168.5 308.5,-168.5"/>
<text text-anchor="middle" x="368" y="-175.5" font-family="Helvetica,sans-Serif" font-size="10.00" fill="#000000">com/SharedPointer.hpp</text>
</a>
</g>
</g>
<!-- Node51&#45;&gt;Node52 -->
<g id="edge56" class="edge">
<title>Node51&#45;&gt;Node52</title>
<path fill="none" stroke="#191970" d="M200.8955,-341.9687C189.3629,-318.9865 164.3707,-259.7787 192,-224 205.2519,-206.8394 254.918,-194.8542 298.125,-187.4292"/>
<polygon fill="#191970" stroke="#191970" points="298.7917,-190.8666 308.084,-185.7769 297.6459,-183.961 298.7917,-190.8666"/>
</g>
<!-- Node52&#45;&gt;Node12 -->
<g id="edge57" class="edge">
<title>Node52&#45;&gt;Node12</title>
<path fill="none" stroke="#191970" d="M409.4971,-168.4369C455.9297,-157.7364 530.4241,-140.5689 574.6497,-130.377"/>
<polygon fill="#191970" stroke="#191970" points="575.714,-133.7236 584.6725,-128.0672 574.1419,-126.9024 575.714,-133.7236"/>
</g>
<!-- Node53&#45;&gt;Node9 -->
<g id="edge63" class="edge">
<title>Node53&#45;&gt;Node9</title>
<path fill="none" stroke="#191970" d="M345.982,-280.4617C325.1724,-273.8668 303.4332,-262.742 291,-244 280.5726,-228.2816 281.4307,-186.6112 299,-168 366.5366,-96.4582 685.0732,-73.1752 786.1468,-67.5228"/>
<polygon fill="#191970" stroke="#191970" points="786.51,-71.0084 796.3065,-66.9737 786.1321,-64.0186 786.51,-71.0084"/>
</g>
<!-- Node53&#45;&gt;Node10 -->
<g id="edge64" class="edge">
<title>Node53&#45;&gt;Node10</title>
<path fill="none" stroke="#191970" d="M462.7437,-287.9558C582.5186,-283.5624 851.8754,-271.3183 1077,-244 1128.0659,-237.8033 1139.9454,-230.2888 1191,-224 1410.1877,-197.001 1472.172,-229.7263 1692.8678,-187.7828"/>
<polygon fill="#191970" stroke="#191970" points="1693.6615,-191.1943 1702.8168,-185.8622 1692.3347,-184.3212 1693.6615,-191.1943"/>
</g>
<!-- Node53&#45;&gt;Node11 -->
<g id="edge69" class="edge">
<title>Node53&#45;&gt;Node11</title>
<path fill="none" stroke="#191970" d="M362.6289,-280.4291C325.7422,-269.2703 277.9538,-249.1112 301,-224 331.0525,-191.2548 641.0876,-193.6378 718.9158,-187.7313"/>
<polygon fill="#191970" stroke="#191970" points="719.3826,-191.2025 728.9966,-186.7503 718.7045,-184.2355 719.3826,-191.2025"/>
</g>
<!-- Node53&#45;&gt;Node38 -->
<g id="edge62" class="edge">
<title>Node53&#45;&gt;Node38</title>
<path fill="none" stroke="#191970" d="M416.0546,-280.4802C445.2082,-263.2389 504.7914,-228.2278 515,-224 559.5445,-205.5522 613.7137,-192.3778 648.7497,-184.9797"/>
<polygon fill="#191970" stroke="#191970" points="649.8904,-188.3181 658.9769,-182.8697 648.4759,-181.4625 649.8904,-188.3181"/>
</g>
<!-- Node53&#45;&gt;Node52 -->
<g id="edge68" class="edge">
<title>Node53&#45;&gt;Node52</title>
<path fill="none" stroke="#191970" d="M397.2717,-280.4509C392.0289,-262.1013 380.4545,-221.5908 373.5341,-197.3693"/>
<polygon fill="#191970" stroke="#191970" points="376.834,-196.1786 370.7214,-187.5249 370.1033,-198.1017 376.834,-196.1786"/>
</g>
<!-- Node54 -->
<g id="node31" class="node">
<title>Node54</title>
<polygon fill="#ffffff" stroke="#bfbfbf" points="310,-224.5 310,-243.5 340,-243.5 340,-224.5 310,-224.5"/>
<text text-anchor="middle" x="325" y="-231.5" font-family="Helvetica,sans-Serif" font-size="10.00" fill="#000000">set</text>
</g>
<!-- Node53&#45;&gt;Node54 -->
<g id="edge61" class="edge">
<title>Node53&#45;&gt;Node54</title>
<path fill="none" stroke="#191970" d="M386.936,-280.2455C375.6438,-271.814 359.1155,-259.4729 345.9729,-249.6598"/>
<polygon fill="#191970" stroke="#191970" points="348.0211,-246.8211 337.9143,-243.6427 343.8331,-252.4301 348.0211,-246.8211"/>
</g>
<!-- Node55 -->
<g id="node32" class="node">
<title>Node55</title>
<g id="a_node32"><a xlink:href="Request_8hpp.html" target="_top" xlink:title="Request.hpp">
<polygon fill="#ffffff" stroke="#000000" points="396,-224.5 396,-243.5 468,-243.5 468,-224.5 396,-224.5"/>
<text text-anchor="middle" x="432" y="-231.5" font-family="Helvetica,sans-Serif" font-size="10.00" fill="#000000">Request.hpp</text>
</a>
</g>
</g>
<!-- Node53&#45;&gt;Node55 -->
<g id="edge65" class="edge">
<title>Node53&#45;&gt;Node55</title>
<path fill="none" stroke="#191970" d="M405.574,-280.2455C409.9331,-272.617 416.1211,-261.7881 421.4133,-252.5267"/>
<polygon fill="#191970" stroke="#191970" points="424.5673,-254.0616 426.4899,-243.6427 418.4896,-250.5886 424.5673,-254.0616"/>
</g>
<!-- Node55&#45;&gt;Node10 -->
<g id="edge66" class="edge">
<title>Node55&#45;&gt;Node10</title>
<path fill="none" stroke="#191970" d="M468.2928,-228.9143C482.7918,-227.0692 499.6587,-225.1561 515,-224 773.1903,-204.5437 1419.6759,-231.9924 1692.8813,-187.652"/>
<polygon fill="#191970" stroke="#191970" points="1693.5578,-191.0874 1702.8375,-185.975 1692.3951,-184.1846 1693.5578,-191.0874"/>
</g>
<!-- Node55&#45;&gt;Node52 -->
<g id="edge67" class="edge">
<title>Node55&#45;&gt;Node52</title>
<path fill="none" stroke="#191970" d="M420.8521,-224.2455C411.4913,-216.0549 397.9142,-204.1749 386.8651,-194.5069"/>
<polygon fill="#191970" stroke="#191970" points="388.8508,-191.5937 379.0202,-187.6427 384.2412,-196.8618 388.8508,-191.5937"/>
</g>
<!-- Node56&#45;&gt;Node11 -->
<g id="edge71" class="edge">
<title>Node56&#45;&gt;Node11</title>
<path fill="none" stroke="#191970" d="M883.996,-224.3733C863.3565,-215.3435 832.2842,-201.7494 809.1111,-191.6111"/>
<polygon fill="#191970" stroke="#191970" points="810.2813,-188.3028 799.7169,-187.5011 807.4755,-194.7159 810.2813,-188.3028"/>
</g>
<!-- Node57 -->
<g id="node34" class="node">
<title>Node57</title>
<g id="a_node34"><a xlink:href="math_8hpp.html" target="_top" xlink:title="math/math.hpp">
<polygon fill="#ffffff" stroke="#000000" points="2035,-112.5 2035,-131.5 2117,-131.5 2117,-112.5 2035,-112.5"/>
<text text-anchor="middle" x="2076" y="-119.5" font-family="Helvetica,sans-Serif" font-size="10.00" fill="#000000">math/math.hpp</text>
</a>
</g>
</g>
<!-- Node56&#45;&gt;Node57 -->
<g id="edge72" class="edge">
<title>Node56&#45;&gt;Node57</title>
<path fill="none" stroke="#191970" d="M909.2411,-224.2195C914.8428,-209.0763 927.908,-180.41 950,-168 973.7322,-154.6687 1807.5765,-129.7406 2024.7254,-123.4636"/>
<polygon fill="#191970" stroke="#191970" points="2024.9969,-126.9573 2034.8918,-123.1703 2024.795,-119.9602 2024.9969,-126.9573"/>
</g>
<!-- Node57&#45;&gt;Node28 -->
<g id="edge74" class="edge">
<title>Node57&#45;&gt;Node28</title>
<path fill="none" stroke="#191970" d="M2117.2966,-114.2134C2167.8933,-104.6733 2254.0426,-88.4297 2312.2099,-77.4621"/>
<polygon fill="#191970" stroke="#191970" points="2313.1925,-80.8386 2322.3708,-75.5462 2311.8955,-73.9598 2313.1925,-80.8386"/>
</g>
<!-- Node58 -->
<g id="node35" class="node">
<title>Node58</title>
<g id="a_node35"><a xlink:href="constants_8hpp.html" target="_top" xlink:title="math/constants.hpp">
<polygon fill="#ffffff" stroke="#ff0000" points="2035.5,-56.5 2035.5,-75.5 2138.5,-75.5 2138.5,-56.5 2035.5,-56.5"/>
<text text-anchor="middle" x="2087" y="-63.5" font-family="Helvetica,sans-Serif" font-size="10.00" fill="#000000">math/constants.hpp</text>
</a>
</g>
</g>
<!-- Node57&#45;&gt;Node58 -->
<g id="edge73" class="edge">
<title>Node57&#45;&gt;Node58</title>
<path fill="none" stroke="#191970" d="M2077.9161,-112.2455C2079.3514,-104.9382 2081.3636,-94.6944 2083.1295,-85.7046"/>
<polygon fill="#191970" stroke="#191970" points="2086.6127,-86.1298 2085.1059,-75.6427 2079.744,-84.7805 2086.6127,-86.1298"/>
</g>
<!-- Node60 -->
<g id="node36" class="node">
<title>Node60</title>
<g id="a_node36"><a xlink:href="la_8hpp.html" target="_top" xlink:title="math/la.hpp">
<polygon fill="#ffffff" stroke="#000000" points="2157,-56.5 2157,-75.5 2225,-75.5 2225,-56.5 2157,-56.5"/>
<text text-anchor="middle" x="2191" y="-63.5" font-family="Helvetica,sans-Serif" font-size="10.00" fill="#000000">math/la.hpp</text>
</a>
</g>
</g>
<!-- Node57&#45;&gt;Node60 -->
<g id="edge75" class="edge">
<title>Node57&#45;&gt;Node60</title>
<path fill="none" stroke="#191970" d="M2095.7692,-112.3733C2114.1469,-103.4241 2141.7312,-89.9917 2162.4893,-79.8835"/>
<polygon fill="#191970" stroke="#191970" points="2164.0304,-83.026 2171.4888,-75.5011 2160.9657,-76.7325 2164.0304,-83.026"/>
</g>
<!-- Node60&#45;&gt;Node4 -->
<g id="edge76" class="edge">
<title>Node60&#45;&gt;Node4</title>
<path fill="none" stroke="#191970" d="M2156.7462,-57.9702C2153.7897,-57.2965 2150.8431,-56.6319 2148,-56 2087.6162,-42.5798 2017.579,-27.8912 1973.7736,-18.8091"/>
<polygon fill="#191970" stroke="#191970" points="1974.2643,-15.3365 1963.7624,-16.7364 1972.8451,-22.1912 1974.2643,-15.3365"/>
</g>
<!-- Node60&#45;&gt;Node29 -->
<g id="edge77" class="edge">
<title>Node60&#45;&gt;Node29</title>
<path fill="none" stroke="#191970" d="M2225.0608,-58.7598C2229.7393,-57.8075 2234.4852,-56.8634 2239,-56 2309.6184,-42.4953 2391.1829,-28.5321 2444.7431,-19.5854"/>
<polygon fill="#191970" stroke="#191970" points="2445.4508,-23.0158 2454.7394,-17.9195 2444.3001,-16.111 2445.4508,-23.0158"/>
</g>
<!-- Node61&#45;&gt;Node3 -->
<g id="edge80" class="edge">
<title>Node61&#45;&gt;Node3</title>
<path fill="none" stroke="#191970" d="M1578.1561,-403.4543C1591.8815,-395.7394 1608.9635,-383.4561 1617,-367 1623.046,-354.6197 1623.6191,-348.0836 1617,-336 1609.2413,-321.836 1595.0591,-311.3995 1581.3205,-304.0818"/>
<polygon fill="#191970" stroke="#191970" points="1582.4854,-300.7555 1571.9644,-299.5066 1579.4102,-307.0438 1582.4854,-300.7555"/>
</g>
<!-- Node62 -->
<g id="node38" class="node">
<title>Node62</title>
<polygon fill="#ffffff" stroke="#bfbfbf" points="1508,-336.5 1508,-366.5 1608,-366.5 1608,-336.5 1508,-336.5"/>
<text text-anchor="start" x="1516" y="-354.5" font-family="Helvetica,sans-Serif" font-size="10.00" fill="#000000">boost/container/flat</text>
<text text-anchor="middle" x="1558" y="-343.5" font-family="Helvetica,sans-Serif" font-size="10.00" fill="#000000">_map.hpp</text>
</g>
<!-- Node61&#45;&gt;Node62 -->
<g id="edge79" class="edge">
<title>Node61&#45;&gt;Node62</title>
<path fill="none" stroke="#191970" d="M1558,-403.3906C1558,-396.2234 1558,-386.0862 1558,-376.671"/>
<polygon fill="#191970" stroke="#191970" points="1561.5001,-376.5446 1558,-366.5446 1554.5001,-376.5446 1561.5001,-376.5446"/>
</g>
<!-- Node63&#45;&gt;Node2 -->
<g id="edge84" class="edge">
<title>Node63&#45;&gt;Node2</title>
<path fill="none" stroke="#191970" d="M2125.8424,-341.9147C2122.4791,-327.8746 2115.2876,-301.0966 2105,-280 2091.8166,-252.965 2085.196,-247.9499 2067,-224 2059.5893,-214.2459 2050.8062,-203.7993 2043.4531,-195.3306"/>
<polygon fill="#191970" stroke="#191970" points="2045.9095,-192.8235 2036.6805,-187.6201 2040.6502,-197.4431 2045.9095,-192.8235"/>
</g>
<!-- Node63&#45;&gt;Node3 -->
<g id="edge88" class="edge">
<title>Node63&#45;&gt;Node3</title>
<path fill="none" stroke="#191970" d="M2083.221,-346.7763C1977.4691,-335.6207 1712.5847,-307.6783 1598.5692,-295.651"/>
<polygon fill="#191970" stroke="#191970" points="1598.6536,-292.1405 1588.3416,-294.5721 1597.9192,-299.1019 1598.6536,-292.1405"/>
</g>
<!-- Node63&#45;&gt;Node4 -->
<g id="edge82" class="edge">
<title>Node63&#45;&gt;Node4</title>
<path fill="none" stroke="#191970" d="M2137.8108,-341.8992C2158.7448,-320.2068 2204.0708,-266.0275 2181,-224 2175.4229,-213.8404 2103.6894,-172.4787 2093,-168 2027.3721,-140.503 1987.3474,-182.2818 1937,-132 1910.2288,-105.2636 1917.8593,-56.5355 1924.943,-29.4564"/>
<polygon fill="#191970" stroke="#191970" points="1928.374,-30.187 1927.7483,-19.6107 1921.642,-28.2688 1928.374,-30.187"/>
</g>
<!-- Node63&#45;&gt;Node8 -->
<g id="edge85" class="edge">
<title>Node63&#45;&gt;Node8</title>
<path fill="none" stroke="#191970" d="M2083.4929,-346.3538C1983.0924,-333.8771 1743.28,-298.9388 1686,-244 1673.5196,-232.0297 1669.082,-212.4394 1667.58,-197.705"/>
<polygon fill="#191970" stroke="#191970" points="1671.0638,-197.341 1666.919,-187.5906 1664.0787,-197.7976 1671.0638,-197.341"/>
</g>
<!-- Node63&#45;&gt;Node12 -->
<g id="edge86" class="edge">
<title>Node63&#45;&gt;Node12</title>
<path fill="none" stroke="#191970" d="M2083.3976,-349.5824C1858.4222,-339.71 853.8076,-293.1736 724,-244 685.4299,-229.3889 677.4541,-218.78 650,-188 637.3106,-173.7734 626.6119,-154.8053 619.6487,-140.8551"/>
<polygon fill="#191970" stroke="#191970" points="622.7476,-139.223 615.2636,-131.7237 616.4375,-142.2533 622.7476,-139.223"/>
</g>
<!-- Node63&#45;&gt;Node41 -->
<g id="edge89" class="edge">
<title>Node63&#45;&gt;Node41</title>
<path fill="none" stroke="#191970" d="M2083.4833,-350.1373C1839.9163,-342.6573 678.967,-306.6807 662,-300 636.756,-290.0603 614.1792,-267.9031 600.3188,-252.0026"/>
<polygon fill="#191970" stroke="#191970" points="602.6593,-249.3463 593.5537,-243.9299 597.2942,-253.8425 602.6593,-249.3463"/>
</g>
<!-- Node63&#45;&gt;Node42 -->
<g id="edge90" class="edge">
<title>Node63&#45;&gt;Node42</title>
<path fill="none" stroke="#191970" d="M2153.5919,-341.984C2209.7982,-321.0845 2344.1273,-271.1362 2408.4667,-247.2125"/>
<polygon fill="#191970" stroke="#191970" points="2410.016,-250.3706 2418.1692,-243.6048 2407.5763,-243.8095 2410.016,-250.3706"/>
</g>
<!-- Node64 -->
<g id="node40" class="node">
<title>Node64</title>
<polygon fill="#ffffff" stroke="#bfbfbf" points="2401.5,-168.5 2401.5,-187.5 2504.5,-187.5 2504.5,-168.5 2401.5,-168.5"/>
<text text-anchor="middle" x="2453" y="-175.5" font-family="Helvetica,sans-Serif" font-size="10.00" fill="#000000">boost/geometry.hpp</text>
</g>
<!-- Node63&#45;&gt;Node64 -->
<g id="edge83" class="edge">
<title>Node63&#45;&gt;Node64</title>
<path fill="none" stroke="#191970" d="M2172.7479,-345.371C2263.0869,-331.9843 2462.07,-297.0239 2502,-244 2514.9109,-226.8554 2495.7419,-207.077 2477.7288,-193.6761"/>
<polygon fill="#191970" stroke="#191970" points="2479.3231,-190.5197 2469.1245,-187.6493 2475.3071,-196.2531 2479.3231,-190.5197"/>
</g>
<!-- Node65 -->
<g id="node41" class="node">
<title>Node65</title>
<polygon fill="#ffffff" stroke="#bfbfbf" points="2599,-112.5 2599,-131.5 2661,-131.5 2661,-112.5 2599,-112.5"/>
<text text-anchor="middle" x="2630" y="-119.5" font-family="Helvetica,sans-Serif" font-size="10.00" fill="#000000">type_traits</text>
</g>
<!-- Node63&#45;&gt;Node65 -->
<g id="edge87" class="edge">
<title>Node63&#45;&gt;Node65</title>
<path fill="none" stroke="#191970" d="M2172.6358,-346.9205C2275.8492,-335.4323 2526.6567,-302.0756 2585,-244 2613.2799,-215.8499 2623.9604,-168.4146 2627.863,-141.7432"/>
<polygon fill="#191970" stroke="#191970" points="2631.3503,-142.0648 2629.1521,-131.7006 2624.4073,-141.1735 2631.3503,-142.0648"/>
</g>
<!-- Node66 -->
<g id="node42" class="node">
<title>Node66</title>
<g id="a_node42"><a xlink:href="RTreeAdapter_8hpp.html" target="_top" xlink:title="mesh/impl/RTreeAdapter.hpp">
<polygon fill="#ffffff" stroke="#000000" points="2233,-224.5 2233,-243.5 2377,-243.5 2377,-224.5 2233,-224.5"/>
<text text-anchor="middle" x="2305" y="-231.5" font-family="Helvetica,sans-Serif" font-size="10.00" fill="#000000">mesh/impl/RTreeAdapter.hpp</text>
</a>
</g>
</g>
<!-- Node63&#45;&gt;Node66 -->
<g id="edge91" class="edge">
<title>Node63&#45;&gt;Node66</title>
<path fill="none" stroke="#191970" d="M2146.5757,-341.9692C2165.2891,-332.1422 2194.7813,-316.0334 2219,-300 2242.6539,-284.3406 2268.2666,-264.2416 2285.3317,-250.3593"/>
<polygon fill="#191970" stroke="#191970" points="2287.9097,-252.7715 2293.4209,-243.7228 2283.4698,-247.3597 2287.9097,-252.7715"/>
</g>
<!-- Node66&#45;&gt;Node4 -->
<g id="edge92" class="edge">
<title>Node66&#45;&gt;Node4</title>
<path fill="none" stroke="#191970" d="M2283.1392,-224.401C2250.5392,-210.3881 2187.0108,-184.2368 2131,-168 2054.3153,-145.7701 2011.244,-188.6686 1955,-132 1927.9895,-104.7856 1926.9072,-56.6027 1928.7761,-29.6509"/>
<polygon fill="#191970" stroke="#191970" points="1932.2771,-29.7973 1929.6908,-19.523 1925.3054,-29.1676 1932.2771,-29.7973"/>
</g>
<!-- Node66&#45;&gt;Node25 -->
<g id="edge95" class="edge">
<title>Node66&#45;&gt;Node25</title>
<path fill="none" stroke="#191970" d="M2287.0401,-224.3701C2274.3676,-216.4681 2258.3833,-203.9885 2251,-188 2244.1857,-173.2437 2247.8393,-154.8466 2252.5363,-141.2269"/>
<polygon fill="#191970" stroke="#191970" points="2255.8078,-142.471 2256.1754,-131.8825 2249.285,-139.9306 2255.8078,-142.471"/>
</g>
<!-- Node66&#45;&gt;Node39 -->
<g id="edge94" class="edge">
<title>Node66&#45;&gt;Node39</title>
<path fill="none" stroke="#191970" d="M2304.4774,-224.2455C2304.086,-216.9382 2303.5372,-206.6944 2303.0556,-197.7046"/>
<polygon fill="#191970" stroke="#191970" points="2306.5466,-197.4411 2302.5166,-187.6427 2299.5566,-197.8156 2306.5466,-197.4411"/>
</g>
<!-- Node66&#45;&gt;Node64 -->
<g id="edge93" class="edge">
<title>Node66&#45;&gt;Node64</title>
<path fill="none" stroke="#191970" d="M2330.4421,-224.3733C2354.7326,-215.1822 2391.5208,-201.2624 2418.4543,-191.0713"/>
<polygon fill="#191970" stroke="#191970" points="2419.7757,-194.3136 2427.8899,-187.5011 2417.2984,-187.7666 2419.7757,-194.3136"/>
</g>
<!-- Node67&#45;&gt;Node24 -->
<g id="edge97" class="edge">
<title>Node67&#45;&gt;Node24</title>
<path fill="none" stroke="#191970" d="M1961.8601,-403.3762C1949.6394,-374.9669 1913.5552,-291.0828 1897.2106,-253.0871"/>
<polygon fill="#191970" stroke="#191970" points="1900.3271,-251.4745 1893.1603,-243.6714 1893.8968,-254.2406 1900.3271,-251.4745"/>
</g>
<!-- Node67&#45;&gt;Node63 -->
<g id="edge98" class="edge">
<title>Node67&#45;&gt;Node63</title>
<path fill="none" stroke="#191970" d="M1991.3125,-403.3906C2018.7747,-392.9652 2062.7895,-376.2559 2093.4263,-364.6252"/>
<polygon fill="#191970" stroke="#191970" points="2094.7585,-367.8633 2102.8652,-361.0419 2092.274,-361.319 2094.7585,-367.8633"/>
</g>
<!-- Node68&#45;&gt;Node4 -->
<g id="edge100" class="edge">
<title>Node68&#45;&gt;Node4</title>
<path fill="none" stroke="#191970" d="M2761.8439,-224.1905C2774.4108,-201.6836 2800.7806,-145.6854 2774,-112 2723.6157,-48.6251 2138.9534,-18.9074 1974.055,-11.7501"/>
<polygon fill="#191970" stroke="#191970" points="1973.9513,-8.2425 1963.8106,-11.3112 1973.6516,-15.2361 1973.9513,-8.2425"/>
</g>
<!-- Node68&#45;&gt;Node10 -->
<g id="edge102" class="edge">
<title>Node68&#45;&gt;Node10</title>
<path fill="none" stroke="#191970" d="M2679.7694,-229.8594C2471.5984,-218.5524 1899.5237,-187.4795 1757.3237,-179.7557"/>
<polygon fill="#191970" stroke="#191970" points="1757.2744,-176.248 1747.0992,-179.2003 1756.8946,-183.2376 1757.2744,-176.248"/>
</g>
<!-- Node68&#45;&gt;Node29 -->
<g id="edge108" class="edge">
<title>Node68&#45;&gt;Node29</title>
<path fill="none" stroke="#191970" d="M2798.5505,-224.4528C2818.076,-217.7153 2839.418,-206.4765 2851,-188 2859.0016,-175.2352 2865.9612,-137.3271 2848,-112 2814.6887,-65.0278 2650.374,-32.8036 2561.0585,-18.4516"/>
<polygon fill="#191970" stroke="#191970" points="2561.5022,-14.9783 2551.0779,-16.872 2560.4079,-21.8922 2561.5022,-14.9783"/>
</g>
<!-- Node69 -->
<g id="node45" class="node">
<title>Node69</title>
<polygon fill="#ffffff" stroke="#bfbfbf" points="2717.5,-112.5 2717.5,-131.5 2764.5,-131.5 2764.5,-112.5 2717.5,-112.5"/>
<text text-anchor="middle" x="2741" y="-119.5" font-family="Helvetica,sans-Serif" font-size="10.00" fill="#000000">iterator</text>
</g>
<!-- Node68&#45;&gt;Node69 -->
<g id="edge101" class="edge">
<title>Node68&#45;&gt;Node69</title>
<path fill="none" stroke="#191970" d="M2754.7211,-224.4509C2752.2746,-206.184 2746.8869,-165.9553 2743.6381,-141.6976"/>
<polygon fill="#191970" stroke="#191970" points="2747.0722,-140.9718 2742.2757,-131.5249 2740.1341,-141.901 2747.0722,-140.9718"/>
</g>
<!-- Node70 -->
<g id="node46" class="node">
<title>Node70</title>
<g id="a_node46"><a xlink:href="algorithm_8hpp.html" target="_top" xlink:title="utils/algorithm.hpp">
<polygon fill="#ffffff" stroke="#ff0000" points="2637,-168.5 2637,-187.5 2733,-187.5 2733,-168.5 2637,-168.5"/>
<text text-anchor="middle" x="2685" y="-175.5" font-family="Helvetica,sans-Serif" font-size="10.00" fill="#000000">utils/algorithm.hpp</text>
</a>
</g>
</g>
<!-- Node68&#45;&gt;Node70 -->
<g id="edge103" class="edge">
<title>Node68&#45;&gt;Node70</title>
<path fill="none" stroke="#191970" d="M2743.6327,-224.2455C2733.0446,-215.8943 2717.5936,-203.7076 2705.2107,-193.9408"/>
<polygon fill="#191970" stroke="#191970" points="2707.2447,-191.0875 2697.2255,-187.6427 2702.9097,-196.5837 2707.2447,-191.0875"/>
</g>
<!-- Node70&#45;&gt;Node27 -->
<g id="edge107" class="edge">
<title>Node70&#45;&gt;Node27</title>
<path fill="none" stroke="#191970" d="M2685.6827,-168.0461C2686.0925,-153.7084 2684.6134,-127.2909 2670,-112 2651.2767,-92.4085 2576.1459,-77.6033 2533.3104,-70.5552"/>
<polygon fill="#191970" stroke="#191970" points="2533.5973,-67.0567 2523.1698,-68.9323 2532.491,-73.9687 2533.5973,-67.0567"/>
</g>
<!-- Node70&#45;&gt;Node43 -->
<g id="edge104" class="edge">
<title>Node70&#45;&gt;Node43</title>
<path fill="none" stroke="#191970" d="M2655.776,-168.3733C2627.3362,-159.0049 2583.9817,-144.7234 2552.9026,-134.4856"/>
<polygon fill="#191970" stroke="#191970" points="2553.8708,-131.1196 2543.2778,-131.315 2551.6807,-137.7681 2553.8708,-131.1196"/>
</g>
<!-- Node70&#45;&gt;Node65 -->
<g id="edge106" class="edge">
<title>Node70&#45;&gt;Node65</title>
<path fill="none" stroke="#191970" d="M2675.4197,-168.2455C2667.4542,-160.1352 2655.9359,-148.4075 2646.4921,-138.7919"/>
<polygon fill="#191970" stroke="#191970" points="2648.9747,-136.3247 2639.4705,-131.6427 2643.9805,-141.2297 2648.9747,-136.3247"/>
</g>
<!-- Node70&#45;&gt;Node69 -->
<g id="edge105" class="edge">
<title>Node70&#45;&gt;Node69</title>
<path fill="none" stroke="#191970" d="M2694.7545,-168.2455C2702.8648,-160.1352 2714.5925,-148.4075 2724.2081,-138.7919"/>
<polygon fill="#191970" stroke="#191970" points="2726.7611,-141.1887 2731.3573,-131.6427 2721.8113,-136.2389 2726.7611,-141.1887"/>
</g>
<!-- Node71&#45;&gt;Node8 -->
<g id="edge111" class="edge">
<title>Node71&#45;&gt;Node8</title>
<path fill="none" stroke="#191970" d="M1068.0069,-230.8606C1093.8307,-228.8859 1127.8645,-226.2874 1158,-224 1369.9931,-207.9089 1426.1873,-227.9655 1635,-188 1636.4649,-187.7196 1637.9572,-187.3952 1639.4567,-187.0383"/>
<polygon fill="#191970" stroke="#191970" points="1640.5356,-190.3714 1649.2431,-184.3358 1638.6723,-183.624 1640.5356,-190.3714"/>
</g>
<!-- Node71&#45;&gt;Node9 -->
<g id="edge112" class="edge">
<title>Node71&#45;&gt;Node9</title>
<path fill="none" stroke="#191970" d="M1027.579,-224.4487C1027.9184,-210.6126 1026.6171,-184.8138 1014,-168 972.2688,-112.3882 891.4287,-84.4865 847.3901,-72.8683"/>
<polygon fill="#191970" stroke="#191970" points="848.0999,-69.4377 837.5472,-70.3821 846.3856,-76.2246 848.0999,-69.4377"/>
</g>
<!-- Node71&#45;&gt;Node10 -->
<g id="edge114" class="edge">
<title>Node71&#45;&gt;Node10</title>
<path fill="none" stroke="#191970" d="M1068.0005,-230.7736C1093.8218,-228.7657 1127.8553,-226.1628 1158,-224 1392.8908,-207.1469 1457.7521,-232.282 1692.94,-187.7659"/>
<polygon fill="#191970" stroke="#191970" points="1693.6558,-191.1925 1702.8192,-185.8743 1692.3394,-184.3174 1693.6558,-191.1925"/>
</g>
<!-- Node71&#45;&gt;Node11 -->
<g id="edge115" class="edge">
<title>Node71&#45;&gt;Node11</title>
<path fill="none" stroke="#191970" d="M985.8827,-224.7527C943.2869,-215.173 876.5908,-200.173 830.2771,-189.7571"/>
<polygon fill="#191970" stroke="#191970" points="830.9533,-186.3218 820.429,-187.5423 829.4173,-193.1512 830.9533,-186.3218"/>
</g>
<!-- Node71&#45;&gt;Node27 -->
<g id="edge113" class="edge">
<title>Node71&#45;&gt;Node27</title>
<path fill="none" stroke="#191970" d="M1068.085,-224.8217C1069.7423,-224.5298 1071.3854,-224.2542 1073,-224 1323.5814,-184.5461 1388.2731,-189.8347 1641,-168 1856.3463,-149.3948 1912.5466,-166.0269 2126,-132 2162.6188,-126.1625 2170.6442,-119.2986 2207,-112 2232.7649,-106.8275 2402.3664,-81.1472 2472.6116,-70.5673"/>
<polygon fill="#191970" stroke="#191970" points="2473.2436,-74.0117 2482.6112,-69.0621 2472.2016,-67.0896 2473.2436,-74.0117"/>
</g>
<!-- Node72 -->
<g id="node48" class="node">
<title>Node72</title>
<polygon fill="#ffffff" stroke="#bfbfbf" points="959,-168.5 959,-187.5 1005,-187.5 1005,-168.5 959,-168.5"/>
<text text-anchor="middle" x="982" y="-175.5" font-family="Helvetica,sans-Serif" font-size="10.00" fill="#000000">chrono</text>
</g>
<!-- Node71&#45;&gt;Node72 -->
<g id="edge110" class="edge">
<title>Node71&#45;&gt;Node72</title>
<path fill="none" stroke="#191970" d="M1019.1616,-224.2455C1012.838,-216.3761 1003.7776,-205.101 996.1864,-195.6542"/>
<polygon fill="#191970" stroke="#191970" points="998.7408,-193.2454 989.7486,-187.6427 993.2842,-197.6302 998.7408,-193.2454"/>
</g>
<!-- Node73&#45;&gt;Node4 -->
<g id="edge117" class="edge">
<title>Node73&#45;&gt;Node4</title>
<path fill="none" stroke="#191970" d="M101.2457,-224.351C143.9594,-200.9226 258.6927,-140.8444 362,-112 661.097,-28.4891 1667.898,-12.8512 1888.1805,-10.4055"/>
<polygon fill="#191970" stroke="#191970" points="1888.4022,-13.9034 1898.3638,-10.2958 1888.3267,-6.9039 1888.4022,-13.9034"/>
</g>
<!-- Node73&#45;&gt;Node11 -->
<g id="edge119" class="edge">
<title>Node73&#45;&gt;Node11</title>
<path fill="none" stroke="#191970" d="M139.7533,-228.5774C156.5398,-227.015 175.0134,-225.3653 192,-224 423.1355,-205.4224 484.7289,-215.7172 718.5083,-188.0712"/>
<polygon fill="#191970" stroke="#191970" points="719.1747,-191.5166 728.6895,-186.8563 718.3452,-184.5659 719.1747,-191.5166"/>
</g>
<!-- Node73&#45;&gt;Node52 -->
<g id="edge118" class="edge">
<title>Node73&#45;&gt;Node52</title>
<path fill="none" stroke="#191970" d="M132.4986,-224.4369C181.5115,-214.7724 257.2777,-199.8326 309.5707,-189.5213"/>
<polygon fill="#191970" stroke="#191970" points="310.5674,-192.8922 319.7014,-187.5237 309.2132,-186.0244 310.5674,-192.8922"/>
</g>
</g>
</svg>
