<?xml version="1.0" encoding="UTF-8" standalone="no"?>
<!DOCTYPE svg PUBLIC "-//W3C//DTD SVG 1.1//EN"
 "http://www.w3.org/Graphics/SVG/1.1/DTD/svg11.dtd">
<!-- Generated by graphviz version 2.40.1 (20161225.0304)
 -->
<!-- Title: src/mapping/tests/RadialBasisFctMappingTest.cpp Pages: 1 -->
<svg width="3007pt" height="778pt"
 viewBox="0.00 0.00 3007.00 778.00" xmlns="http://www.w3.org/2000/svg" xmlns:xlink="http://www.w3.org/1999/xlink">
<g id="graph0" class="graph" transform="scale(1 1) rotate(0) translate(4 774)">
<title>src/mapping/tests/RadialBasisFctMappingTest.cpp</title>
<polygon fill="#ffffff" stroke="transparent" points="-4,4 -4,-774 3003,-774 3003,4 -4,4"/>
<!-- Node0 -->
<g id="node1" class="node">
<title>Node0</title>
<polygon fill="#bfbfbf" stroke="#000000" points="1105,-739.5 1105,-769.5 1243,-769.5 1243,-739.5 1105,-739.5"/>
<text text-anchor="start" x="1113" y="-757.5" font-family="Helvetica,sans-Serif" font-size="10.00" fill="#000000">src/mapping/tests/Radial</text>
<text text-anchor="middle" x="1174" y="-746.5" font-family="Helvetica,sans-Serif" font-size="10.00" fill="#000000">BasisFctMappingTest.cpp</text>
</g>
<!-- Node1 -->
<g id="node2" class="node">
<title>Node1</title>
<polygon fill="#ffffff" stroke="#bfbfbf" points="1202.5,-224.5 1202.5,-243.5 1271.5,-243.5 1271.5,-224.5 1202.5,-224.5"/>
<text text-anchor="middle" x="1237" y="-231.5" font-family="Helvetica,sans-Serif" font-size="10.00" fill="#000000">Eigen/Core</text>
</g>
<!-- Node0&#45;&gt;Node1 -->
<g id="edge1" class="edge">
<title>Node0&#45;&gt;Node1</title>
<path fill="none" stroke="#191970" d="M1243.193,-747.1953C1394.4498,-729.4917 1745.4942,-678.337 1801,-580 1846.806,-498.8476 1593.9972,-315.8941 1508,-280 1467.9736,-263.2935 1348.1553,-247.1197 1282.0399,-239.1453"/>
<polygon fill="#191970" stroke="#191970" points="1282.2545,-235.6462 1271.9103,-237.937 1281.4253,-242.5969 1282.2545,-235.6462"/>
</g>
<!-- Node2 -->
<g id="node3" class="node">
<title>Node2</title>
<polygon fill="#ffffff" stroke="#bfbfbf" points="620,-392.5 620,-411.5 684,-411.5 684,-392.5 620,-392.5"/>
<text text-anchor="middle" x="652" y="-399.5" font-family="Helvetica,sans-Serif" font-size="10.00" fill="#000000">algorithm</text>
</g>
<!-- Node0&#45;&gt;Node2 -->
<g id="edge2" class="edge">
<title>Node0&#45;&gt;Node2</title>
<path fill="none" stroke="#191970" d="M1104.6876,-749.8173C1023.2922,-743.3755 884.5811,-729.4463 768,-703 690.8333,-685.4948 670.6983,-680.4738 599,-647 504.7867,-603.0146 450.6304,-614.8153 400,-524 395.6716,-516.2362 395.0317,-511.3708 400,-504 424.3521,-467.8718 544.6463,-430.8029 609.8331,-412.9407"/>
<polygon fill="#191970" stroke="#191970" points="611.0614,-416.2342 619.7989,-410.2419 609.2316,-409.4775 611.0614,-416.2342"/>
</g>
<!-- Node3 -->
<g id="node4" class="node">
<title>Node3</title>
<polygon fill="#ffffff" stroke="#bfbfbf" points="2583,-56.5 2583,-75.5 2641,-75.5 2641,-56.5 2583,-56.5"/>
<text text-anchor="middle" x="2612" y="-63.5" font-family="Helvetica,sans-Serif" font-size="10.00" fill="#000000">memory</text>
</g>
<!-- Node0&#45;&gt;Node3 -->
<g id="edge3" class="edge">
<title>Node0&#45;&gt;Node3</title>
<path fill="none" stroke="#191970" d="M1243.4008,-754.0093C1535.6698,-751.7131 2658.339,-740.5091 2812,-703 2883.3569,-685.5816 2961,-704.9521 2961,-631.5 2961,-631.5 2961,-631.5 2961,-234 2961,-188.2481 2918.5669,-195.4973 2882,-168 2846.4337,-141.2551 2839.68,-130.0385 2799,-112 2750.53,-90.5073 2690.3486,-77.9902 2651.5673,-71.5765"/>
<polygon fill="#191970" stroke="#191970" points="2651.6504,-68.0456 2641.224,-69.9269 2650.5479,-74.9582 2651.6504,-68.0456"/>
</g>
<!-- Node4 -->
<g id="node5" class="node">
<title>Node4</title>
<polygon fill="#ffffff" stroke="#bfbfbf" points="202.5,-683.5 202.5,-702.5 259.5,-702.5 259.5,-683.5 202.5,-683.5"/>
<text text-anchor="middle" x="231" y="-690.5" font-family="Helvetica,sans-Serif" font-size="10.00" fill="#000000">ostream</text>
</g>
<!-- Node0&#45;&gt;Node4 -->
<g id="edge4" class="edge">
<title>Node0&#45;&gt;Node4</title>
<path fill="none" stroke="#191970" d="M1104.9972,-752.0842C923.2282,-745.475 434.2371,-726.0433 274,-703 272.5301,-702.7886 271.0364,-702.552 269.531,-702.295"/>
<polygon fill="#191970" stroke="#191970" points="270.0352,-698.8277 259.5517,-700.3591 268.7021,-705.6996 270.0352,-698.8277"/>
</g>
<!-- Node5 -->
<g id="node6" class="node">
<title>Node5</title>
<polygon fill="#ffffff" stroke="#bfbfbf" points="1147,-.5 1147,-19.5 1191,-19.5 1191,-.5 1147,-.5"/>
<text text-anchor="middle" x="1169" y="-7.5" font-family="Helvetica,sans-Serif" font-size="10.00" fill="#000000">string</text>
</g>
<!-- Node0&#45;&gt;Node5 -->
<g id="edge5" class="edge">
<title>Node0&#45;&gt;Node5</title>
<path fill="none" stroke="#191970" d="M1243.2247,-753.422C1553.4828,-748.462 2804.3414,-727.0472 2884,-703 2941.6164,-685.6068 2999,-691.6845 2999,-631.5 2999,-631.5 2999,-631.5 2999,-122 2999,1.9649 2850.8504,-72.5855 2728,-56 2571.8063,-34.9129 1410.1902,-14.1333 1201.1707,-10.5442"/>
<polygon fill="#191970" stroke="#191970" points="1201.2007,-7.0443 1191.1423,-10.3726 1201.0809,-14.0432 1201.2007,-7.0443"/>
</g>
<!-- Node6 -->
<g id="node7" class="node">
<title>Node6</title>
<polygon fill="#ffffff" stroke="#bfbfbf" points="2124.5,-224.5 2124.5,-243.5 2169.5,-243.5 2169.5,-224.5 2124.5,-224.5"/>
<text text-anchor="middle" x="2147" y="-231.5" font-family="Helvetica,sans-Serif" font-size="10.00" fill="#000000">utility</text>
</g>
<!-- Node0&#45;&gt;Node6 -->
<g id="edge6" class="edge">
<title>Node0&#45;&gt;Node6</title>
<path fill="none" stroke="#191970" d="M1243.2477,-753.5306C1474.4107,-749.3887 2205,-728.6163 2205,-631.5 2205,-631.5 2205,-631.5 2205,-346 2205,-309.0488 2179.798,-272.1465 2162.6192,-251.2847"/>
<polygon fill="#191970" stroke="#191970" points="2165.2216,-248.9426 2156.0625,-243.6171 2159.9015,-253.4919 2165.2216,-248.9426"/>
</g>
<!-- Node7 -->
<g id="node8" class="node">
<title>Node7</title>
<polygon fill="#ffffff" stroke="#bfbfbf" points="1864.5,-112.5 1864.5,-131.5 1911.5,-131.5 1911.5,-112.5 1864.5,-112.5"/>
<text text-anchor="middle" x="1888" y="-119.5" font-family="Helvetica,sans-Serif" font-size="10.00" fill="#000000">vector</text>
</g>
<!-- Node0&#45;&gt;Node7 -->
<g id="edge7" class="edge">
<title>Node0&#45;&gt;Node7</title>
<path fill="none" stroke="#191970" d="M1243.144,-752.8406C1466.686,-747.2775 2168.4383,-728.2109 2394,-703 2547.0285,-685.8961 2733,-785.4814 2733,-631.5 2733,-631.5 2733,-631.5 2733,-402 2733,-269.1379 2569.8049,-361.4358 2452,-300 2399.9582,-272.8599 2395.4547,-252.2374 2344,-224 2286.694,-192.5515 2271.0572,-185.2271 2208,-168 2106.0599,-140.1502 1980.9734,-128.3836 1921.9293,-124.1072"/>
<polygon fill="#191970" stroke="#191970" points="1921.9127,-120.5977 1911.6935,-123.3937 1921.4258,-127.5807 1921.9127,-120.5977"/>
</g>
<!-- Node8 -->
<g id="node9" class="node">
<title>Node8</title>
<g id="a_node9"><a xlink:href="Logger_8hpp.html" target="_top" xlink:title="logging/Logger.hpp">
<polygon fill="#ffffff" stroke="#000000" points="967.5,-112.5 967.5,-131.5 1076.5,-131.5 1076.5,-112.5 967.5,-112.5"/>
<text text-anchor="middle" x="1022" y="-119.5" font-family="Helvetica,sans-Serif" font-size="10.00" fill="#000000">logging/Logger.hpp</text>
</a>
</g>
</g>
<!-- Node0&#45;&gt;Node8 -->
<g id="edge8" class="edge">
<title>Node0&#45;&gt;Node8</title>
<path fill="none" stroke="#191970" d="M1104.8649,-752.8028C884.8781,-747.1592 213.2059,-727.9571 174,-703 143.642,-683.6751 136,-667.487 136,-631.5 136,-631.5 136,-631.5 136,-514 136,-411.5025 349.3237,-213.8387 441,-168 486.1943,-145.4026 814.593,-130.0633 956.7238,-124.4136"/>
<polygon fill="#191970" stroke="#191970" points="957.1823,-127.8983 967.0369,-124.0076 956.907,-120.9037 957.1823,-127.8983"/>
</g>
<!-- Node20 -->
<g id="node11" class="node">
<title>Node20</title>
<g id="a_node11"><a xlink:href="Mapping_8hpp.html" target="_top" xlink:title="mapping/Mapping.hpp">
<polygon fill="#ffffff" stroke="#000000" points="906.5,-560.5 906.5,-579.5 1031.5,-579.5 1031.5,-560.5 906.5,-560.5"/>
<text text-anchor="middle" x="969" y="-567.5" font-family="Helvetica,sans-Serif" font-size="10.00" fill="#000000">mapping/Mapping.hpp</text>
</a>
</g>
</g>
<!-- Node0&#45;&gt;Node20 -->
<g id="edge13" class="edge">
<title>Node0&#45;&gt;Node20</title>
<path fill="none" stroke="#191970" d="M1132.8829,-739.3482C1093.4252,-722.6965 1035.0885,-692.1663 1002,-647 989.0267,-629.2912 979.8798,-605.6973 974.5571,-589.314"/>
<polygon fill="#191970" stroke="#191970" points="977.893,-588.2541 971.6097,-579.7235 971.2018,-590.3105 977.893,-588.2541"/>
</g>
<!-- Node22 -->
<g id="node13" class="node">
<title>Node22</title>
<g id="a_node13"><a xlink:href="Mesh_8hpp.html" target="_top" xlink:title="mesh/Mesh.hpp">
<polygon fill="#ffffff" stroke="#000000" points="922.5,-504.5 922.5,-523.5 1015.5,-523.5 1015.5,-504.5 922.5,-504.5"/>
<text text-anchor="middle" x="969" y="-511.5" font-family="Helvetica,sans-Serif" font-size="10.00" fill="#000000">mesh/Mesh.hpp</text>
</a>
</g>
</g>
<!-- Node0&#45;&gt;Node22 -->
<g id="edge120" class="edge">
<title>Node0&#45;&gt;Node22</title>
<path fill="none" stroke="#191970" d="M1117.6764,-739.4666C1049.0918,-717.5849 937.5123,-669.4531 898,-580 888.1985,-557.8101 911.9432,-539.6846 934.5651,-528.0813"/>
<polygon fill="#191970" stroke="#191970" points="936.263,-531.1486 943.7609,-523.6632 933.2315,-524.8391 936.263,-531.1486"/>
</g>
<!-- Node28 -->
<g id="node19" class="node">
<title>Node28</title>
<g id="a_node19"><a xlink:href="Vertex_8hpp.html" target="_top" xlink:title="mesh/Vertex.hpp">
<polygon fill="#ffffff" stroke="#000000" points="733.5,-336.5 733.5,-355.5 832.5,-355.5 832.5,-336.5 733.5,-336.5"/>
<text text-anchor="middle" x="783" y="-343.5" font-family="Helvetica,sans-Serif" font-size="10.00" fill="#000000">mesh/Vertex.hpp</text>
</a>
</g>
</g>
<!-- Node0&#45;&gt;Node28 -->
<g id="edge122" class="edge">
<title>Node0&#45;&gt;Node28</title>
<path fill="none" stroke="#191970" d="M1104.7868,-753.0846C887.0491,-748.3429 228.3407,-731.6815 193,-703 167.4693,-682.28 174,-664.3806 174,-631.5 174,-631.5 174,-631.5 174,-514 174,-400.8213 569.8083,-360.9396 723.2368,-349.7317"/>
<polygon fill="#191970" stroke="#191970" points="723.6961,-353.2079 733.4212,-349.004 723.1971,-346.2257 723.6961,-353.2079"/>
</g>
<!-- Node38 -->
<g id="node24" class="node">
<title>Node38</title>
<g id="a_node24"><a xlink:href="Data_8hpp.html" target="_top" xlink:title="mesh/Data.hpp">
<polygon fill="#ffffff" stroke="#000000" points="143.5,-280.5 143.5,-299.5 234.5,-299.5 234.5,-280.5 143.5,-280.5"/>
<text text-anchor="middle" x="189" y="-287.5" font-family="Helvetica,sans-Serif" font-size="10.00" fill="#000000">mesh/Data.hpp</text>
</a>
</g>
</g>
<!-- Node0&#45;&gt;Node38 -->
<g id="edge119" class="edge">
<title>Node0&#45;&gt;Node38</title>
<path fill="none" stroke="#191970" d="M1104.7069,-753.2425C876.566,-748.8253 161.1833,-732.6597 122,-703 95.2732,-682.7692 98,-665.0202 98,-631.5 98,-631.5 98,-631.5 98,-514 98,-431.9642 151.0368,-344.6331 176.1309,-307.9041"/>
<polygon fill="#191970" stroke="#191970" points="179.0096,-309.8949 181.8594,-299.6905 173.268,-305.8905 179.0096,-309.8949"/>
</g>
<!-- Node42 -->
<g id="node27" class="node">
<title>Node42</title>
<g id="a_node27"><a xlink:href="mesh_2SharedPointer_8hpp.html" target="_top" xlink:title="mesh/SharedPointer.hpp">
<polygon fill="#ffffff" stroke="#000000" points="2759.5,-224.5 2759.5,-243.5 2894.5,-243.5 2894.5,-224.5 2759.5,-224.5"/>
<text text-anchor="middle" x="2827" y="-231.5" font-family="Helvetica,sans-Serif" font-size="10.00" fill="#000000">mesh/SharedPointer.hpp</text>
</a>
</g>
</g>
<!-- Node0&#45;&gt;Node42 -->
<g id="edge121" class="edge">
<title>Node0&#45;&gt;Node42</title>
<path fill="none" stroke="#191970" d="M1243.0637,-754.036C1527.5275,-751.8804 2600.4373,-741.265 2747,-703 2813.8364,-685.5502 2885,-700.5768 2885,-631.5 2885,-631.5 2885,-631.5 2885,-346 2885,-309.0488 2859.798,-272.1465 2842.6192,-251.2847"/>
<polygon fill="#191970" stroke="#191970" points="2845.2216,-248.9426 2836.0625,-243.6171 2839.9015,-253.4919 2845.2216,-248.9426"/>
</g>
<!-- Node51 -->
<g id="node31" class="node">
<title>Node51</title>
<g id="a_node31"><a xlink:href="RadialBasisFctMapping_8hpp.html" target="_top" xlink:title="mapping/RadialBasisFctMapping.hpp">
<polygon fill="#ffffff" stroke="#000000" points="1076,-683.5 1076,-702.5 1272,-702.5 1272,-683.5 1076,-683.5"/>
<text text-anchor="middle" x="1174" y="-690.5" font-family="Helvetica,sans-Serif" font-size="10.00" fill="#000000">mapping/RadialBasisFctMapping.hpp</text>
</a>
</g>
</g>
<!-- Node0&#45;&gt;Node51 -->
<g id="edge72" class="edge">
<title>Node0&#45;&gt;Node51</title>
<path fill="none" stroke="#191970" d="M1174,-739.2977C1174,-731.3834 1174,-721.6043 1174,-713.0759"/>
<polygon fill="#191970" stroke="#191970" points="1177.5001,-712.8469 1174,-702.8469 1170.5001,-712.847 1177.5001,-712.8469"/>
</g>
<!-- Node60 -->
<g id="node37" class="node">
<title>Node60</title>
<g id="a_node37"><a xlink:href="BasisFunctions_8hpp.html" target="_top" xlink:title="impl/BasisFunctions.hpp">
<polygon fill="#ffffff" stroke="#000000" points="409,-504.5 409,-523.5 543,-523.5 543,-504.5 409,-504.5"/>
<text text-anchor="middle" x="476" y="-511.5" font-family="Helvetica,sans-Serif" font-size="10.00" fill="#000000">impl/BasisFunctions.hpp</text>
</a>
</g>
</g>
<!-- Node0&#45;&gt;Node60 -->
<g id="edge118" class="edge">
<title>Node0&#45;&gt;Node60</title>
<path fill="none" stroke="#191970" d="M1104.6365,-748.9239C981.0031,-736.2398 718.1735,-696.6406 533,-580 513.6923,-567.8381 497.3618,-547.1197 487.1954,-532.1356"/>
<polygon fill="#191970" stroke="#191970" points="490.0778,-530.1479 481.6904,-523.6747 484.2104,-533.9655 490.0778,-530.1479"/>
</g>
<!-- Node78 -->
<g id="node46" class="node">
<title>Node78</title>
<g id="a_node46"><a xlink:href="TestContext_8hpp.html" target="_top" xlink:title="testing/TestContext.hpp">
<polygon fill="#ffffff" stroke="#000000" points="2383,-336.5 2383,-355.5 2515,-355.5 2515,-336.5 2383,-336.5"/>
<text text-anchor="middle" x="2449" y="-343.5" font-family="Helvetica,sans-Serif" font-size="10.00" fill="#000000">testing/TestContext.hpp</text>
</a>
</g>
</g>
<!-- Node0&#45;&gt;Node78 -->
<g id="edge123" class="edge">
<title>Node0&#45;&gt;Node78</title>
<path fill="none" stroke="#191970" d="M1243.3066,-752.5767C1540.8586,-743.8718 2695,-705.3477 2695,-631.5 2695,-631.5 2695,-631.5 2695,-570 2695,-457.966 2553.7841,-387.1125 2485.3395,-359.3508"/>
<polygon fill="#191970" stroke="#191970" points="2486.3807,-355.9986 2475.7946,-355.5677 2483.8014,-362.5061 2486.3807,-355.9986"/>
</g>
<!-- Node84 -->
<g id="node50" class="node">
<title>Node84</title>
<g id="a_node50"><a xlink:href="Testing_8hpp.html" target="_top" xlink:title="testing/Testing.hpp">
<polygon fill="#ffffff" stroke="#ff0000" points="1749.5,-392.5 1749.5,-411.5 1858.5,-411.5 1858.5,-392.5 1749.5,-392.5"/>
<text text-anchor="middle" x="1804" y="-399.5" font-family="Helvetica,sans-Serif" font-size="10.00" fill="#000000">testing/Testing.hpp</text>
</a>
</g>
</g>
<!-- Node0&#45;&gt;Node84 -->
<g id="edge141" class="edge">
<title>Node0&#45;&gt;Node84</title>
<path fill="none" stroke="#191970" d="M1243.2116,-751.7113C1388.9499,-745.413 1723.1377,-728.6121 1834,-703 1918.2738,-683.5306 2015,-717.9936 2015,-631.5 2015,-631.5 2015,-631.5 2015,-570 2015,-484.8834 1908.6169,-435.9395 1846.9275,-414.7132"/>
<polygon fill="#191970" stroke="#191970" points="1848.0273,-411.3906 1837.4336,-411.5432 1845.8103,-418.0302 1848.0273,-411.3906"/>
</g>
<!-- Node8&#45;&gt;Node3 -->
<g id="edge9" class="edge">
<title>Node8&#45;&gt;Node3</title>
<path fill="none" stroke="#191970" d="M1076.7314,-120.0724C1326.8392,-111.2635 2358.0674,-74.9435 2572.74,-67.3827"/>
<polygon fill="#191970" stroke="#191970" points="2573.0358,-70.8746 2582.9064,-67.0247 2572.7894,-63.8789 2573.0358,-70.8746"/>
</g>
<!-- Node8&#45;&gt;Node5 -->
<g id="edge10" class="edge">
<title>Node8&#45;&gt;Node5</title>
<path fill="none" stroke="#191970" d="M1028.2598,-112.4309C1037.7023,-98.5725 1056.7584,-72.7462 1078,-56 1096.0294,-41.7862 1119.1464,-30.1681 1137.5688,-22.1637"/>
<polygon fill="#191970" stroke="#191970" points="1139.1273,-25.3053 1146.99,-18.204 1136.415,-18.8521 1139.1273,-25.3053"/>
</g>
<!-- Node9 -->
<g id="node10" class="node">
<title>Node9</title>
<g id="a_node10"><a xlink:href="LogMacros_8hpp.html" target="_top" xlink:title="LogMacros.hpp">
<polygon fill="#ffffff" stroke="#ff0000" points="1086.5,-56.5 1086.5,-75.5 1175.5,-75.5 1175.5,-56.5 1086.5,-56.5"/>
<text text-anchor="middle" x="1131" y="-63.5" font-family="Helvetica,sans-Serif" font-size="10.00" fill="#000000">LogMacros.hpp</text>
</a>
</g>
</g>
<!-- Node8&#45;&gt;Node9 -->
<g id="edge11" class="edge">
<title>Node8&#45;&gt;Node9</title>
<path fill="none" stroke="#191970" d="M1040.9864,-112.2455C1058.1792,-103.4125 1083.7238,-90.2887 1103.2132,-80.2758"/>
<polygon fill="#191970" stroke="#191970" points="1104.9359,-83.3257 1112.2312,-75.6427 1101.737,-77.0993 1104.9359,-83.3257"/>
</g>
<!-- Node9&#45;&gt;Node5 -->
<g id="edge12" class="edge">
<title>Node9&#45;&gt;Node5</title>
<path fill="none" stroke="#191970" d="M1137.6191,-56.2455C1142.9046,-48.4564 1150.4541,-37.3308 1156.8238,-27.9439"/>
<polygon fill="#191970" stroke="#191970" points="1159.7379,-29.8827 1162.4568,-19.6427 1153.9455,-25.9522 1159.7379,-29.8827"/>
</g>
<!-- Node21 -->
<g id="node12" class="node">
<title>Node21</title>
<polygon fill="#ffffff" stroke="#bfbfbf" points="1562.5,-112.5 1562.5,-131.5 1611.5,-131.5 1611.5,-112.5 1562.5,-112.5"/>
<text text-anchor="middle" x="1587" y="-119.5" font-family="Helvetica,sans-Serif" font-size="10.00" fill="#000000">iosfwd</text>
</g>
<!-- Node20&#45;&gt;Node21 -->
<g id="edge14" class="edge">
<title>Node20&#45;&gt;Node21</title>
<path fill="none" stroke="#191970" d="M915.6544,-560.4276C804.2097,-539.1296 553.5552,-483.9739 512,-412 492.9459,-378.9982 486.6406,-392.4955 548,-280 581.2603,-219.021 592.704,-194.2814 657,-168 741.0176,-133.6573 1393.4019,-124.1681 1552.2281,-122.3565"/>
<polygon fill="#191970" stroke="#191970" points="1552.4211,-125.8547 1562.3816,-122.2436 1552.3432,-118.8551 1552.4211,-125.8547"/>
</g>
<!-- Node20&#45;&gt;Node22 -->
<g id="edge15" class="edge">
<title>Node20&#45;&gt;Node22</title>
<path fill="none" stroke="#191970" d="M969,-560.2455C969,-552.9382 969,-542.6944 969,-533.7046"/>
<polygon fill="#191970" stroke="#191970" points="972.5001,-533.6426 969,-523.6427 965.5001,-533.6427 972.5001,-533.6426"/>
</g>
<!-- Node20&#45;&gt;Node42 -->
<g id="edge71" class="edge">
<title>Node20&#45;&gt;Node42</title>
<path fill="none" stroke="#191970" d="M1031.8125,-561.1501C1034.9178,-560.7521 1037.9935,-560.3665 1041,-560 1666.4799,-483.7589 1827.9316,-505.9341 2451,-412 2578.2151,-392.821 2620.9613,-415.5541 2735,-356 2777.9323,-333.5796 2806.422,-281.0844 2819.2324,-252.8169"/>
<polygon fill="#191970" stroke="#191970" points="2822.4625,-254.1656 2823.2404,-243.5993 2816.0431,-251.3743 2822.4625,-254.1656"/>
</g>
<!-- Node22&#45;&gt;Node1 -->
<g id="edge16" class="edge">
<title>Node22&#45;&gt;Node1</title>
<path fill="none" stroke="#191970" d="M1015.6714,-507.8411C1071.2531,-499.8901 1160.2008,-485.0347 1189,-468 1217.2144,-451.3112 1224.2697,-442.2077 1237,-412 1259.5347,-358.5272 1249.0115,-287.7326 1241.8018,-253.7957"/>
<polygon fill="#191970" stroke="#191970" points="1245.1559,-252.7596 1239.5363,-243.7779 1238.3283,-254.3036 1245.1559,-252.7596"/>
</g>
<!-- Node22&#45;&gt;Node5 -->
<g id="edge22" class="edge">
<title>Node22&#45;&gt;Node5</title>
<path fill="none" stroke="#191970" d="M922.2072,-510.2686C838.4028,-503.2141 666.1208,-486.9203 609,-468 433.2632,-409.7903 310,-363.1264 310,-178 310,-178 310,-178 310,-122 310,-36.9994 979.9082,-14.7818 1136.5295,-10.749"/>
<polygon fill="#191970" stroke="#191970" points="1136.9937,-14.2386 1146.9029,-10.4895 1136.8185,-7.2408 1136.9937,-14.2386"/>
</g>
<!-- Node22&#45;&gt;Node7 -->
<g id="edge23" class="edge">
<title>Node22&#45;&gt;Node7</title>
<path fill="none" stroke="#191970" d="M1015.6436,-511.5041C1134.1183,-504.9684 1444.4288,-486.5709 1546,-468 1577.4083,-462.2574 1583.7202,-454.4053 1615,-448 1679.4832,-434.7954 1865.3773,-461.29 1909,-412 1944.4363,-371.9599 1906.8429,-199.5964 1892.821,-141.3311"/>
<polygon fill="#191970" stroke="#191970" points="1896.2052,-140.4355 1890.4295,-131.5534 1889.4056,-142.0987 1896.2052,-140.4355"/>
</g>
<!-- Node22&#45;&gt;Node8 -->
<g id="edge24" class="edge">
<title>Node22&#45;&gt;Node8</title>
<path fill="none" stroke="#191970" d="M922.4036,-509.5997C848.8071,-502.2142 709.2644,-486.3208 663,-468 556.616,-425.8716 477,-404.4218 477,-290 477,-290 477,-290 477,-234 477,-175.8389 534.7432,-186.1494 590,-168 656.5745,-146.1333 854.0957,-131.7755 957.4001,-125.5462"/>
<polygon fill="#191970" stroke="#191970" points="957.6241,-129.0392 967.3984,-124.951 957.208,-122.0515 957.6241,-129.0392"/>
</g>
<!-- Node22&#45;&gt;Node21 -->
<g id="edge19" class="edge">
<title>Node22&#45;&gt;Node21</title>
<path fill="none" stroke="#191970" d="M922.2339,-507.8848C833.7285,-495.224 647.3251,-462.991 611,-412 585.1386,-375.6973 430.6836,-361.8708 685,-168 720.0458,-141.2839 1389.2788,-126.0135 1551.7072,-122.6914"/>
<polygon fill="#191970" stroke="#191970" points="1552.16,-126.1831 1562.0871,-122.4814 1552.0183,-119.1845 1552.16,-126.1831"/>
</g>
<!-- Node23 -->
<g id="node14" class="node">
<title>Node23</title>
<polygon fill="#ffffff" stroke="#bfbfbf" points="816,-448.5 816,-467.5 924,-467.5 924,-448.5 816,-448.5"/>
<text text-anchor="middle" x="870" y="-455.5" font-family="Helvetica,sans-Serif" font-size="10.00" fill="#000000">boost/signals2.hpp</text>
</g>
<!-- Node22&#45;&gt;Node23 -->
<g id="edge17" class="edge">
<title>Node22&#45;&gt;Node23</title>
<path fill="none" stroke="#191970" d="M951.7555,-504.2455C936.4239,-495.5731 913.7801,-482.7645 896.2084,-472.825"/>
<polygon fill="#191970" stroke="#191970" points="897.4741,-469.5198 887.0469,-467.6427 894.0276,-475.6126 897.4741,-469.5198"/>
</g>
<!-- Node24 -->
<g id="node15" class="node">
<title>Node24</title>
<polygon fill="#ffffff" stroke="#bfbfbf" points="942.5,-448.5 942.5,-467.5 989.5,-467.5 989.5,-448.5 942.5,-448.5"/>
<text text-anchor="middle" x="966" y="-455.5" font-family="Helvetica,sans-Serif" font-size="10.00" fill="#000000">deque</text>
</g>
<!-- Node22&#45;&gt;Node24 -->
<g id="edge18" class="edge">
<title>Node22&#45;&gt;Node24</title>
<path fill="none" stroke="#191970" d="M968.4774,-504.2455C968.086,-496.9382 967.5372,-486.6944 967.0556,-477.7046"/>
<polygon fill="#191970" stroke="#191970" points="970.5466,-477.4411 966.5166,-467.6427 963.5566,-477.8156 970.5466,-477.4411"/>
</g>
<!-- Node25 -->
<g id="node16" class="node">
<title>Node25</title>
<polygon fill="#ffffff" stroke="#bfbfbf" points="1008,-448.5 1008,-467.5 1040,-467.5 1040,-448.5 1008,-448.5"/>
<text text-anchor="middle" x="1024" y="-455.5" font-family="Helvetica,sans-Serif" font-size="10.00" fill="#000000">list</text>
</g>
<!-- Node22&#45;&gt;Node25 -->
<g id="edge20" class="edge">
<title>Node22&#45;&gt;Node25</title>
<path fill="none" stroke="#191970" d="M978.5803,-504.2455C986.5458,-496.1352 998.0641,-484.4075 1007.5079,-474.7919"/>
<polygon fill="#191970" stroke="#191970" points="1010.0195,-477.2297 1014.5295,-467.6427 1005.0253,-472.3247 1010.0195,-477.2297"/>
</g>
<!-- Node26 -->
<g id="node17" class="node">
<title>Node26</title>
<polygon fill="#ffffff" stroke="#bfbfbf" points="1935,-224.5 1935,-243.5 1973,-243.5 1973,-224.5 1935,-224.5"/>
<text text-anchor="middle" x="1954" y="-231.5" font-family="Helvetica,sans-Serif" font-size="10.00" fill="#000000">map</text>
</g>
<!-- Node22&#45;&gt;Node26 -->
<g id="edge21" class="edge">
<title>Node22&#45;&gt;Node26</title>
<path fill="none" stroke="#191970" d="M1015.8288,-511.2036C1105.7146,-505.5186 1308.5509,-491.1534 1478,-468 1526.7997,-461.3321 1538.3046,-455.3918 1587,-448 1653.1664,-437.9562 1833.2476,-453.1831 1886,-412 1936.3343,-372.7046 1949.4236,-291.4654 1952.8175,-253.8778"/>
<polygon fill="#191970" stroke="#191970" points="1956.3224,-253.9453 1953.59,-243.7089 1949.3425,-253.415 1956.3224,-253.9453"/>
</g>
<!-- Node27 -->
<g id="node18" class="node">
<title>Node27</title>
<g id="a_node18"><a xlink:href="BoundingBox_8hpp.html" target="_top" xlink:title="mesh/BoundingBox.hpp">
<polygon fill="#ffffff" stroke="#000000" points="1077,-392.5 1077,-411.5 1209,-411.5 1209,-392.5 1077,-392.5"/>
<text text-anchor="middle" x="1143" y="-399.5" font-family="Helvetica,sans-Serif" font-size="10.00" fill="#000000">mesh/BoundingBox.hpp</text>
</a>
</g>
</g>
<!-- Node22&#45;&gt;Node27 -->
<g id="edge25" class="edge">
<title>Node22&#45;&gt;Node27</title>
<path fill="none" stroke="#191970" d="M1015.5978,-510.1233C1069.5991,-504.5513 1153.6708,-492.173 1173,-468 1184.6961,-453.3729 1172.6606,-433.4522 1160.5296,-419.3331"/>
<polygon fill="#191970" stroke="#191970" points="1162.9085,-416.75 1153.5547,-411.7743 1157.764,-421.4971 1162.9085,-416.75"/>
</g>
<!-- Node22&#45;&gt;Node28 -->
<g id="edge65" class="edge">
<title>Node22&#45;&gt;Node28</title>
<path fill="none" stroke="#191970" d="M922.2481,-505.961C878.1695,-497.6037 816.1022,-483.5816 797,-468 769.1057,-445.2468 763.7018,-427.6052 769,-392 770.3327,-383.0439 773.0494,-373.419 775.7381,-365.3"/>
<polygon fill="#191970" stroke="#191970" points="779.1067,-366.272 779.1376,-355.6772 772.5064,-363.9402 779.1067,-366.272"/>
</g>
<!-- Node31 -->
<g id="node22" class="node">
<title>Node31</title>
<g id="a_node22"><a xlink:href="assertion_8hpp.html" target="_top" xlink:title="utils/assertion.hpp">
<polygon fill="#ffffff" stroke="#ff0000" points="883.5,-224.5 883.5,-243.5 990.5,-243.5 990.5,-224.5 883.5,-224.5"/>
<text text-anchor="middle" x="937" y="-231.5" font-family="Helvetica,sans-Serif" font-size="10.00" fill="#000000">utils/assertion.hpp</text>
</a>
</g>
</g>
<!-- Node22&#45;&gt;Node31 -->
<g id="edge70" class="edge">
<title>Node22&#45;&gt;Node31</title>
<path fill="none" stroke="#191970" d="M922.2339,-507.8848C833.7285,-495.224 647.3251,-462.991 611,-412 538.9988,-310.929 759.468,-261.227 873.3797,-242.7776"/>
<polygon fill="#191970" stroke="#191970" points="874.0621,-246.2132 883.3914,-241.192 872.967,-239.2994 874.0621,-246.2132"/>
</g>
<!-- Node22&#45;&gt;Node38 -->
<g id="edge45" class="edge">
<title>Node22&#45;&gt;Node38</title>
<path fill="none" stroke="#191970" d="M922.117,-512.5182C786.6277,-507.9576 400.944,-492.9136 350,-468 276.4664,-432.0392 220.9824,-346.4535 199.1469,-308.5791"/>
<polygon fill="#191970" stroke="#191970" points="202.0678,-306.633 194.1103,-299.638 195.9688,-310.0686 202.0678,-306.633"/>
</g>
<!-- Node40 -->
<g id="node26" class="node">
<title>Node40</title>
<g id="a_node26"><a xlink:href="Edge_8hpp.html" target="_top" xlink:title="mesh/Edge.hpp">
<polygon fill="#ffffff" stroke="#ff0000" points="778,-392.5 778,-411.5 870,-411.5 870,-392.5 778,-392.5"/>
<text text-anchor="middle" x="824" y="-399.5" font-family="Helvetica,sans-Serif" font-size="10.00" fill="#000000">mesh/Edge.hpp</text>
</a>
</g>
</g>
<!-- Node22&#45;&gt;Node40 -->
<g id="edge50" class="edge">
<title>Node22&#45;&gt;Node40</title>
<path fill="none" stroke="#191970" d="M922.4816,-507.1097C879.74,-499.7149 820.9681,-486.4865 807,-468 796.5679,-454.1933 803.6036,-434.6213 811.5535,-420.3775"/>
<polygon fill="#191970" stroke="#191970" points="814.7517,-421.8575 816.9999,-411.5039 808.7859,-418.1957 814.7517,-421.8575"/>
</g>
<!-- Node22&#45;&gt;Node42 -->
<g id="edge56" class="edge">
<title>Node22&#45;&gt;Node42</title>
<path fill="none" stroke="#191970" d="M1015.6523,-511.1747C1122.0283,-504.6238 1390.6883,-487.4638 1615,-468 1736.7335,-457.4371 2599.0823,-409.3734 2709,-356 2734.1983,-343.7643 2787.0532,-282.4117 2812.5864,-251.6469"/>
<polygon fill="#191970" stroke="#191970" points="2815.3564,-253.789 2819.0179,-243.847 2809.9556,-249.3358 2815.3564,-253.789"/>
</g>
<!-- Node43 -->
<g id="node28" class="node">
<title>Node43</title>
<g id="a_node28"><a xlink:href="Triangle_8hpp.html" target="_top" xlink:title="mesh/Triangle.hpp">
<polygon fill="#ffffff" stroke="#ff0000" points="1058,-448.5 1058,-467.5 1164,-467.5 1164,-448.5 1058,-448.5"/>
<text text-anchor="middle" x="1111" y="-455.5" font-family="Helvetica,sans-Serif" font-size="10.00" fill="#000000">mesh/Triangle.hpp</text>
</a>
</g>
</g>
<!-- Node22&#45;&gt;Node43 -->
<g id="edge58" class="edge">
<title>Node22&#45;&gt;Node43</title>
<path fill="none" stroke="#191970" d="M993.4107,-504.3733C1016.6142,-495.2226 1051.7038,-481.3844 1077.5142,-471.2057"/>
<polygon fill="#191970" stroke="#191970" points="1078.8892,-474.4258 1086.9079,-467.5011 1076.3211,-467.9139 1078.8892,-474.4258"/>
</g>
<!-- Node46 -->
<g id="node29" class="node">
<title>Node46</title>
<g id="a_node29"><a xlink:href="ManageUniqueIDs_8hpp.html" target="_top" xlink:title="utils/ManageUniqueIDs.hpp">
<polygon fill="#ffffff" stroke="#ff0000" points="1303,-336.5 1303,-355.5 1453,-355.5 1453,-336.5 1303,-336.5"/>
<text text-anchor="middle" x="1378" y="-343.5" font-family="Helvetica,sans-Serif" font-size="10.00" fill="#000000">utils/ManageUniqueIDs.hpp</text>
</a>
</g>
</g>
<!-- Node22&#45;&gt;Node46 -->
<g id="edge66" class="edge">
<title>Node22&#45;&gt;Node46</title>
<path fill="none" stroke="#191970" d="M1015.7886,-511.7089C1093.2102,-507.194 1243.9133,-495.1279 1289,-468 1329.6365,-443.5497 1357.2819,-392.7395 1370.006,-365.0292"/>
<polygon fill="#191970" stroke="#191970" points="1373.3127,-366.2049 1374.148,-355.6431 1366.9086,-363.3788 1373.3127,-366.2049"/>
</g>
<!-- Node49 -->
<g id="node30" class="node">
<title>Node49</title>
<g id="a_node30"><a xlink:href="PointerVector_8hpp.html" target="_top" xlink:title="utils/PointerVector.hpp">
<polygon fill="#ffffff" stroke="#ff0000" points="1677,-280.5 1677,-299.5 1803,-299.5 1803,-280.5 1677,-280.5"/>
<text text-anchor="middle" x="1740" y="-287.5" font-family="Helvetica,sans-Serif" font-size="10.00" fill="#000000">utils/PointerVector.hpp</text>
</a>
</g>
</g>
<!-- Node22&#45;&gt;Node49 -->
<g id="edge67" class="edge">
<title>Node22&#45;&gt;Node49</title>
<path fill="none" stroke="#191970" d="M1015.6103,-508.6812C1114.0965,-497.446 1350.6215,-470.4808 1549,-448 1619.8852,-439.9671 1820.4683,-465.1975 1868,-412 1905.5848,-369.9351 1823.2694,-325.4021 1773.8125,-303.6158"/>
<polygon fill="#191970" stroke="#191970" points="1774.9738,-300.3053 1764.4046,-299.5694 1772.208,-306.7358 1774.9738,-300.3053"/>
</g>
<!-- Node27&#45;&gt;Node1 -->
<g id="edge26" class="edge">
<title>Node27&#45;&gt;Node1</title>
<path fill="none" stroke="#191970" d="M1144.5769,-392.3879C1148.4758,-370.7601 1160.1098,-317.2507 1185,-280 1192.7427,-268.4123 1204.0991,-257.9081 1214.2254,-249.8726"/>
<polygon fill="#191970" stroke="#191970" points="1216.4746,-252.5597 1222.3358,-243.7337 1212.25,-246.9782 1216.4746,-252.5597"/>
</g>
<!-- Node27&#45;&gt;Node7 -->
<g id="edge28" class="edge">
<title>Node27&#45;&gt;Node7</title>
<path fill="none" stroke="#191970" d="M1159.5404,-392.4977C1186.6307,-377.4666 1242.5976,-348.6185 1294,-336 1406.0616,-308.4906 1717.9753,-366.8874 1812,-300 1864.8527,-262.4015 1881.211,-180.3002 1886.0607,-142.1858"/>
<polygon fill="#191970" stroke="#191970" points="1889.5815,-142.1965 1887.2239,-131.8674 1882.6256,-141.4123 1889.5815,-142.1965"/>
</g>
<!-- Node27&#45;&gt;Node8 -->
<g id="edge29" class="edge">
<title>Node27&#45;&gt;Node8</title>
<path fill="none" stroke="#191970" d="M1076.7701,-400.0107C993.4004,-396.3074 846.2965,-385.7787 724,-356 644.8483,-336.7269 553,-371.4644 553,-290 553,-290 553,-290 553,-234 553,-151.8828 828.4441,-129.8499 957.156,-124.0369"/>
<polygon fill="#191970" stroke="#191970" points="957.4423,-127.5279 967.2819,-123.5994 957.1401,-120.5344 957.4423,-127.5279"/>
</g>
<!-- Node27&#45;&gt;Node21 -->
<g id="edge27" class="edge">
<title>Node27&#45;&gt;Node21</title>
<path fill="none" stroke="#191970" d="M1142.4098,-392.3654C1141.137,-362.0862 1141.7374,-268.2375 1194,-224 1249.0061,-177.4403 1466.8577,-140.1858 1552.3286,-127.0748"/>
<polygon fill="#191970" stroke="#191970" points="1552.9487,-130.5209 1562.3111,-125.5614 1551.8994,-123.6 1552.9487,-130.5209"/>
</g>
<!-- Node27&#45;&gt;Node28 -->
<g id="edge30" class="edge">
<title>Node27&#45;&gt;Node28</title>
<path fill="none" stroke="#191970" d="M1081.5228,-392.4369C1014.8048,-382.0585 908.9791,-365.5968 842.8895,-355.3161"/>
<polygon fill="#191970" stroke="#191970" points="843.0549,-351.7999 832.6357,-353.7211 841.9789,-358.7167 843.0549,-351.7999"/>
</g>
<!-- Node28&#45;&gt;Node1 -->
<g id="edge31" class="edge">
<title>Node28&#45;&gt;Node1</title>
<path fill="none" stroke="#191970" d="M795.5469,-336.4725C817.6157,-319.9009 862.7663,-286.8757 881,-280 937.0595,-258.8607 1109.7356,-243.5264 1192.2273,-237.2022"/>
<polygon fill="#191970" stroke="#191970" points="1192.5931,-240.6847 1202.3007,-236.4405 1192.0652,-233.7046 1192.5931,-240.6847"/>
</g>
<!-- Node28&#45;&gt;Node6 -->
<g id="edge33" class="edge">
<title>Node28&#45;&gt;Node6</title>
<path fill="none" stroke="#191970" d="M832.5725,-342.7843C867.1516,-340.6271 914.3737,-337.852 956,-336 1020.0789,-333.149 2055.1673,-333.2808 2110,-300 2126.7881,-289.8104 2136.5866,-269.0135 2141.8338,-253.4732"/>
<polygon fill="#191970" stroke="#191970" points="2145.2298,-254.3342 2144.7693,-243.7494 2138.5285,-252.3112 2145.2298,-254.3342"/>
</g>
<!-- Node29 -->
<g id="node20" class="node">
<title>Node29</title>
<polygon fill="#ffffff" stroke="#bfbfbf" points="694,-168.5 694,-187.5 754,-187.5 754,-168.5 694,-168.5"/>
<text text-anchor="middle" x="724" y="-175.5" font-family="Helvetica,sans-Serif" font-size="10.00" fill="#000000">iostream</text>
</g>
<!-- Node28&#45;&gt;Node29 -->
<g id="edge32" class="edge">
<title>Node28&#45;&gt;Node29</title>
<path fill="none" stroke="#191970" d="M779.6589,-336.4862C770.292,-309.8144 743.6357,-233.9117 730.9167,-197.695"/>
<polygon fill="#191970" stroke="#191970" points="734.0673,-196.1032 727.4515,-187.8279 727.4628,-198.4227 734.0673,-196.1032"/>
</g>
<!-- Node30 -->
<g id="node21" class="node">
<title>Node30</title>
<g id="a_node21"><a xlink:href="differences_8hpp.html" target="_top" xlink:title="math/differences.hpp">
<polygon fill="#ffffff" stroke="#000000" points="965,-280.5 965,-299.5 1085,-299.5 1085,-280.5 965,-280.5"/>
<text text-anchor="middle" x="1025" y="-287.5" font-family="Helvetica,sans-Serif" font-size="10.00" fill="#000000">math/differences.hpp</text>
</a>
</g>
</g>
<!-- Node28&#45;&gt;Node30 -->
<g id="edge34" class="edge">
<title>Node28&#45;&gt;Node30</title>
<path fill="none" stroke="#191970" d="M824.3263,-336.4369C865.7427,-326.8529 929.5777,-312.0812 974.0935,-301.78"/>
<polygon fill="#191970" stroke="#191970" points="974.8907,-305.1881 983.8441,-299.5237 973.3125,-298.3683 974.8907,-305.1881"/>
</g>
<!-- Node28&#45;&gt;Node31 -->
<g id="edge44" class="edge">
<title>Node28&#45;&gt;Node31</title>
<path fill="none" stroke="#191970" d="M789.8309,-336.4283C800.1022,-322.5666 820.7099,-296.7364 843,-280 860.94,-266.5298 883.4424,-255.3523 901.9324,-247.3894"/>
<polygon fill="#191970" stroke="#191970" points="903.3114,-250.6066 911.1903,-243.5233 900.6139,-244.1472 903.3114,-250.6066"/>
</g>
<!-- Node30&#45;&gt;Node1 -->
<g id="edge35" class="edge">
<title>Node30&#45;&gt;Node1</title>
<path fill="none" stroke="#191970" d="M1061.4441,-280.3733C1097.7416,-270.7852 1153.5211,-256.051 1192.4335,-245.7723"/>
<polygon fill="#191970" stroke="#191970" points="1193.6608,-249.0682 1202.4353,-243.1303 1191.873,-242.3004 1193.6608,-249.0682"/>
</g>
<!-- Node30&#45;&gt;Node31 -->
<g id="edge36" class="edge">
<title>Node30&#45;&gt;Node31</title>
<path fill="none" stroke="#191970" d="M1009.6716,-280.2455C996.1697,-271.6534 976.2878,-259.0014 960.7314,-249.1018"/>
<polygon fill="#191970" stroke="#191970" points="962.4685,-246.0587 952.1528,-243.6427 958.7103,-251.9643 962.4685,-246.0587"/>
</g>
<!-- Node31&#45;&gt;Node29 -->
<g id="edge37" class="edge">
<title>Node31&#45;&gt;Node29</title>
<path fill="none" stroke="#191970" d="M900.384,-224.3733C862.4152,-214.3909 803.2292,-198.8302 764.0409,-188.5272"/>
<polygon fill="#191970" stroke="#191970" points="764.8502,-185.1211 754.2889,-185.9633 763.0702,-191.891 764.8502,-185.1211"/>
</g>
<!-- Node35 -->
<g id="node23" class="node">
<title>Node35</title>
<g id="a_node23"><a xlink:href="Parallel_8hpp.html" target="_top" xlink:title="Parallel.hpp">
<polygon fill="#ffffff" stroke="#ff0000" points="1691,-168.5 1691,-187.5 1765,-187.5 1765,-168.5 1691,-168.5"/>
<text text-anchor="middle" x="1728" y="-175.5" font-family="Helvetica,sans-Serif" font-size="10.00" fill="#000000">Parallel.hpp</text>
</a>
</g>
</g>
<!-- Node31&#45;&gt;Node35 -->
<g id="edge38" class="edge">
<title>Node31&#45;&gt;Node35</title>
<path fill="none" stroke="#191970" d="M990.7468,-230.1949C1137.1481,-219.8302 1541.3162,-191.2166 1680.3144,-181.376"/>
<polygon fill="#191970" stroke="#191970" points="1680.901,-184.8433 1690.6289,-180.6457 1680.4066,-177.8608 1680.901,-184.8433"/>
</g>
<!-- Node35&#45;&gt;Node3 -->
<g id="edge40" class="edge">
<title>Node35&#45;&gt;Node3</title>
<path fill="none" stroke="#191970" d="M1741.7844,-168.4166C1764.4163,-153.2717 1811.4019,-124.2671 1856,-112 1993.0197,-74.3116 2437.5991,-67.473 2572.7007,-66.2572"/>
<polygon fill="#191970" stroke="#191970" points="2573.0136,-69.7548 2582.9836,-66.1703 2572.9544,-62.755 2573.0136,-69.7548"/>
</g>
<!-- Node35&#45;&gt;Node5 -->
<g id="edge41" class="edge">
<title>Node35&#45;&gt;Node5</title>
<path fill="none" stroke="#191970" d="M1715.5669,-168.405C1696.3452,-154.0327 1657.7808,-127.0039 1621,-112 1471.2009,-50.8928 1277.8133,-22.8468 1201.7692,-13.6291"/>
<polygon fill="#191970" stroke="#191970" points="1201.7623,-10.1039 1191.4202,-12.404 1200.9394,-17.0554 1201.7623,-10.1039"/>
</g>
<!-- Node35&#45;&gt;Node7 -->
<g id="edge42" class="edge">
<title>Node35&#45;&gt;Node7</title>
<path fill="none" stroke="#191970" d="M1755.505,-168.3733C1782.9991,-158.7503 1825.304,-143.9436 1854.6854,-133.6601"/>
<polygon fill="#191970" stroke="#191970" points="1856.2112,-136.8343 1864.4935,-130.2273 1853.8987,-130.2273 1856.2112,-136.8343"/>
</g>
<!-- Node35&#45;&gt;Node8 -->
<g id="edge43" class="edge">
<title>Node35&#45;&gt;Node8</title>
<path fill="none" stroke="#191970" d="M1690.7641,-170.1477C1686.143,-169.3361 1681.4722,-168.5932 1677,-168 1461.9979,-139.4826 1204.7911,-127.9456 1086.8661,-123.9008"/>
<polygon fill="#191970" stroke="#191970" points="1086.6863,-120.3928 1076.5743,-123.5547 1086.451,-127.3889 1086.6863,-120.3928"/>
</g>
<!-- Node35&#45;&gt;Node21 -->
<g id="edge39" class="edge">
<title>Node35&#45;&gt;Node21</title>
<path fill="none" stroke="#191970" d="M1703.7612,-168.3733C1680.7211,-159.2226 1645.8786,-145.3844 1620.2499,-135.2057"/>
<polygon fill="#191970" stroke="#191970" points="1621.5082,-131.9395 1610.9225,-131.5011 1618.9244,-138.4452 1621.5082,-131.9395"/>
</g>
<!-- Node38&#45;&gt;Node1 -->
<g id="edge46" class="edge">
<title>Node38&#45;&gt;Node1</title>
<path fill="none" stroke="#191970" d="M234.7051,-287.5577C407.6782,-278.3149 1021.0427,-245.5397 1192.2992,-236.3886"/>
<polygon fill="#191970" stroke="#191970" points="1192.6676,-239.874 1202.4666,-235.8453 1192.2941,-232.884 1192.6676,-239.874"/>
</g>
<!-- Node38&#45;&gt;Node5 -->
<g id="edge48" class="edge">
<title>Node38&#45;&gt;Node5</title>
<path fill="none" stroke="#191970" d="M152.8317,-280.491C108.1597,-266.3037 38,-234.9557 38,-178 38,-178 38,-178 38,-122 38,-18.6392 159.1149,-73.4037 261,-56 434.6244,-26.3421 995.6522,-13.4337 1136.6262,-10.6118"/>
<polygon fill="#191970" stroke="#191970" points="1136.8456,-14.1082 1146.7746,-10.4116 1136.7075,-7.1096 1136.8456,-14.1082"/>
</g>
<!-- Node38&#45;&gt;Node8 -->
<g id="edge49" class="edge">
<title>Node38&#45;&gt;Node8</title>
<path fill="none" stroke="#191970" d="M196.5236,-280.4051C216.0951,-256.2775 271.4468,-193.2107 334,-168 390.8361,-145.0934 796.8786,-129.4023 957.1628,-124.0382"/>
<polygon fill="#191970" stroke="#191970" points="957.4803,-127.5297 967.3587,-123.6998 957.2481,-120.5335 957.4803,-127.5297"/>
</g>
<!-- Node39 -->
<g id="node25" class="node">
<title>Node39</title>
<polygon fill="#ffffff" stroke="#bfbfbf" points="112,-112.5 112,-131.5 168,-131.5 168,-112.5 112,-112.5"/>
<text text-anchor="middle" x="140" y="-119.5" font-family="Helvetica,sans-Serif" font-size="10.00" fill="#000000">stddef.h</text>
</g>
<!-- Node38&#45;&gt;Node39 -->
<g id="edge47" class="edge">
<title>Node38&#45;&gt;Node39</title>
<path fill="none" stroke="#191970" d="M175.0589,-280.3907C153.0789,-264.2863 111.2057,-229.4984 95,-188 87.7214,-169.3615 102.9412,-150.7678 117.6112,-138.0888"/>
<polygon fill="#191970" stroke="#191970" points="119.9639,-140.6881 125.5583,-131.6907 115.5741,-135.2355 119.9639,-140.6881"/>
</g>
<!-- Node40&#45;&gt;Node1 -->
<g id="edge51" class="edge">
<title>Node40&#45;&gt;Node1</title>
<path fill="none" stroke="#191970" d="M831.0453,-392.4007C848.9386,-368.8168 898.7936,-307.9276 956,-280 996.8279,-260.0682 1123.8967,-245.0438 1192.3113,-238.1555"/>
<polygon fill="#191970" stroke="#191970" points="1192.758,-241.6284 1202.3641,-237.1594 1192.0677,-234.6625 1192.758,-241.6284"/>
</g>
<!-- Node40&#45;&gt;Node28 -->
<g id="edge54" class="edge">
<title>Node40&#45;&gt;Node28</title>
<path fill="none" stroke="#191970" d="M816.8583,-392.2455C811.1556,-384.4564 803.01,-373.3308 796.1375,-363.9439"/>
<polygon fill="#191970" stroke="#191970" points="798.7913,-361.6437 790.0598,-355.6427 793.1432,-365.7789 798.7913,-361.6437"/>
</g>
<!-- Node40&#45;&gt;Node29 -->
<g id="edge52" class="edge">
<title>Node40&#45;&gt;Node29</title>
<path fill="none" stroke="#191970" d="M777.8937,-394.3181C755.5053,-388.015 730.5683,-376.6021 717,-356 684.4731,-306.6112 704.4436,-231.6923 716.6335,-196.9382"/>
<polygon fill="#191970" stroke="#191970" points="719.9324,-198.1082 720.1001,-187.5147 713.3628,-195.6914 719.9324,-198.1082"/>
</g>
<!-- Node40&#45;&gt;Node30 -->
<g id="edge53" class="edge">
<title>Node40&#45;&gt;Node30</title>
<path fill="none" stroke="#191970" d="M841.1371,-392.4509C876.4416,-372.7788 957.4562,-327.6363 999.1563,-304.4005"/>
<polygon fill="#191970" stroke="#191970" points="1000.8744,-307.4498 1007.9062,-299.5249 997.4672,-301.335 1000.8744,-307.4498"/>
</g>
<!-- Node40&#45;&gt;Node31 -->
<g id="edge55" class="edge">
<title>Node40&#45;&gt;Node31</title>
<path fill="none" stroke="#191970" d="M782.5071,-392.4911C748.4006,-382.4617 708.0853,-364.1603 724,-336 754.2591,-282.4581 822.1861,-256.6417 873.2502,-244.4421"/>
<polygon fill="#191970" stroke="#191970" points="874.2444,-247.8056 883.2221,-242.1796 872.6955,-240.9791 874.2444,-247.8056"/>
</g>
<!-- Node42&#45;&gt;Node3 -->
<g id="edge57" class="edge">
<title>Node42&#45;&gt;Node3</title>
<path fill="none" stroke="#191970" d="M2814.8246,-224.4862C2779.4307,-196.8296 2676.2947,-116.2396 2632.2844,-81.8502"/>
<polygon fill="#191970" stroke="#191970" points="2634.343,-79.0169 2624.3083,-75.6177 2630.033,-84.5327 2634.343,-79.0169"/>
</g>
<!-- Node43&#45;&gt;Node1 -->
<g id="edge59" class="edge">
<title>Node43&#45;&gt;Node1</title>
<path fill="none" stroke="#191970" d="M1162.3177,-448.4359C1183.1061,-441.8132 1205.1881,-430.6743 1218,-412 1251.2133,-363.5894 1213.2614,-337.8954 1223,-280 1224.502,-271.0707 1227.2446,-261.45 1229.9068,-253.3268"/>
<polygon fill="#191970" stroke="#191970" points="1233.2773,-254.2896 1233.2491,-243.6948 1226.6642,-251.9948 1233.2773,-254.2896"/>
</g>
<!-- Node43&#45;&gt;Node2 -->
<g id="edge60" class="edge">
<title>Node43&#45;&gt;Node2</title>
<path fill="none" stroke="#191970" d="M1057.9297,-449.2338C1054.9112,-448.7995 1051.9186,-448.3847 1049,-448 893.5265,-427.5062 852.8617,-436.695 698,-412 696.7289,-411.7973 695.44,-411.5817 694.1405,-411.3555"/>
<polygon fill="#191970" stroke="#191970" points="694.5601,-407.8729 684.0839,-409.4541 693.2596,-414.7511 694.5601,-407.8729"/>
</g>
<!-- Node43&#45;&gt;Node29 -->
<g id="edge61" class="edge">
<title>Node43&#45;&gt;Node29</title>
<path fill="none" stroke="#191970" d="M1057.9173,-449.3236C1054.9019,-448.8665 1051.9134,-448.4221 1049,-448 924.8279,-430.0083 883.5891,-463.1053 769,-412 734.1748,-396.4684 722.307,-389.4496 704,-356 691.9295,-333.9455 697.7823,-325.0783 696,-300 693.6004,-266.2344 691.764,-256.5664 701,-224 703.6672,-214.5953 708.2598,-204.8213 712.6431,-196.714"/>
<polygon fill="#191970" stroke="#191970" points="715.8208,-198.2075 717.7425,-187.7884 709.7428,-194.735 715.8208,-198.2075"/>
</g>
<!-- Node43&#45;&gt;Node30 -->
<g id="edge62" class="edge">
<title>Node43&#45;&gt;Node30</title>
<path fill="none" stroke="#191970" d="M1097.7745,-448.3401C1087.5494,-440.0059 1074.1363,-426.9705 1068,-412 1055.1847,-380.7351 1078.4437,-367.4147 1066,-336 1061.6269,-324.9599 1053.3379,-314.8455 1045.3511,-306.9296"/>
<polygon fill="#191970" stroke="#191970" points="1047.343,-304.0051 1037.6211,-299.7937 1042.5948,-309.1485 1047.343,-304.0051"/>
</g>
<!-- Node43&#45;&gt;Node31 -->
<g id="edge64" class="edge">
<title>Node43&#45;&gt;Node31</title>
<path fill="none" stroke="#191970" d="M1084.3393,-448.4337C1048.7835,-434.1846 986.7601,-403.8178 956,-356 935.7959,-324.5919 934.2917,-279.4301 935.3925,-253.7808"/>
<polygon fill="#191970" stroke="#191970" points="938.8869,-253.9776 936.0002,-243.7836 931.8998,-253.5528 938.8869,-253.9776"/>
</g>
<!-- Node43&#45;&gt;Node40 -->
<g id="edge63" class="edge">
<title>Node43&#45;&gt;Node40</title>
<path fill="none" stroke="#191970" d="M1061.989,-448.4369C1011.6032,-438.6055 933.2397,-423.3151 880.3307,-412.9914"/>
<polygon fill="#191970" stroke="#191970" points="880.9176,-409.5399 870.4324,-411.06 879.5769,-416.4104 880.9176,-409.5399"/>
</g>
<!-- Node49&#45;&gt;Node7 -->
<g id="edge68" class="edge">
<title>Node49&#45;&gt;Node7</title>
<path fill="none" stroke="#191970" d="M1748.3812,-280.4862C1772.3842,-253.2396 1841.6468,-174.6172 1872.663,-139.4096"/>
<polygon fill="#191970" stroke="#191970" points="1875.358,-141.6451 1879.3421,-131.8279 1870.1055,-137.0179 1875.358,-141.6451"/>
</g>
<!-- Node49&#45;&gt;Node31 -->
<g id="edge69" class="edge">
<title>Node49&#45;&gt;Node31</title>
<path fill="none" stroke="#191970" d="M1676.9899,-285.6058C1527.1806,-275.1583 1151.0352,-248.9265 1000.6168,-238.4365"/>
<polygon fill="#191970" stroke="#191970" points="1000.8306,-234.943 990.6113,-237.7388 1000.3435,-241.9261 1000.8306,-234.943"/>
</g>
<!-- Node51&#45;&gt;Node1 -->
<g id="edge74" class="edge">
<title>Node51&#45;&gt;Node1</title>
<path fill="none" stroke="#191970" d="M1272.4017,-688.4215C1384.325,-682.1836 1554.2294,-669.1746 1574,-647 1592.9642,-625.7299 1607.8724,-459.0392 1462,-336 1403.6294,-286.7661 1359.7007,-338.917 1294,-300 1274.3669,-288.3706 1258.0942,-267.5577 1248.0303,-252.4058"/>
<polygon fill="#191970" stroke="#191970" points="1250.9052,-250.404 1242.5919,-243.8359 1244.9949,-254.1546 1250.9052,-250.404"/>
</g>
<!-- Node51&#45;&gt;Node20 -->
<g id="edge73" class="edge">
<title>Node51&#45;&gt;Node20</title>
<path fill="none" stroke="#191970" d="M1130.6399,-683.479C1103.679,-676.2495 1069.1094,-664.5178 1042,-647 1017.3626,-631.0796 995.1299,-605.1715 981.8434,-587.8614"/>
<polygon fill="#191970" stroke="#191970" points="984.5318,-585.6119 975.7455,-579.6915 978.9221,-589.7989 984.5318,-585.6119"/>
</g>
<!-- Node52 -->
<g id="node32" class="node">
<title>Node52</title>
<polygon fill="#ffffff" stroke="#bfbfbf" points="1093.5,-622 1093.5,-641 1154.5,-641 1154.5,-622 1093.5,-622"/>
<text text-anchor="middle" x="1124" y="-629" font-family="Helvetica,sans-Serif" font-size="10.00" fill="#000000">Eigen/QR</text>
</g>
<!-- Node51&#45;&gt;Node52 -->
<g id="edge75" class="edge">
<title>Node51&#45;&gt;Node52</title>
<path fill="none" stroke="#191970" d="M1166.1875,-683.3906C1158.746,-674.2376 1147.3666,-660.2409 1138.3008,-649.09"/>
<polygon fill="#191970" stroke="#191970" points="1140.9467,-646.7962 1131.9226,-641.2449 1135.5153,-651.212 1140.9467,-646.7962"/>
</g>
<!-- Node53 -->
<g id="node33" class="node">
<title>Node53</title>
<polygon fill="#ffffff" stroke="#bfbfbf" points="1173,-622 1173,-641 1277,-641 1277,-622 1173,-622"/>
<text text-anchor="middle" x="1225" y="-629" font-family="Helvetica,sans-Serif" font-size="10.00" fill="#000000">boost/version.hpp</text>
</g>
<!-- Node51&#45;&gt;Node53 -->
<g id="edge76" class="edge">
<title>Node51&#45;&gt;Node53</title>
<path fill="none" stroke="#191970" d="M1181.9688,-683.3906C1189.5591,-674.2376 1201.1661,-660.2409 1210.4132,-649.09"/>
<polygon fill="#191970" stroke="#191970" points="1213.2297,-651.1766 1216.9189,-641.2449 1207.8413,-646.7083 1213.2297,-651.1766"/>
</g>
<!-- Node54 -->
<g id="node34" class="node">
<title>Node54</title>
<polygon fill="#ffffff" stroke="#bfbfbf" points="1295.5,-616.5 1295.5,-646.5 1418.5,-646.5 1418.5,-616.5 1295.5,-616.5"/>
<text text-anchor="start" x="1303.5" y="-634.5" font-family="Helvetica,sans-Serif" font-size="10.00" fill="#000000">boost/function_output</text>
<text text-anchor="middle" x="1357" y="-623.5" font-family="Helvetica,sans-Serif" font-size="10.00" fill="#000000">_iterator.hpp</text>
</g>
<!-- Node51&#45;&gt;Node54 -->
<g id="edge77" class="edge">
<title>Node51&#45;&gt;Node54</title>
<path fill="none" stroke="#191970" d="M1202.5938,-683.3906C1229.3098,-674.4123 1269.8935,-660.7735 1302.7498,-649.7316"/>
<polygon fill="#191970" stroke="#191970" points="1303.8691,-653.0479 1312.2332,-646.5446 1301.6391,-646.4126 1303.8691,-653.0479"/>
</g>
<!-- Node55 -->
<g id="node35" class="node">
<title>Node55</title>
<g id="a_node35"><a xlink:href="CommunicateMesh_8hpp.html" target="_top" xlink:title="com/CommunicateMesh.hpp">
<polygon fill="#ffffff" stroke="#ff0000" points="542.5,-560.5 542.5,-579.5 697.5,-579.5 697.5,-560.5 542.5,-560.5"/>
<text text-anchor="middle" x="620" y="-567.5" font-family="Helvetica,sans-Serif" font-size="10.00" fill="#000000">com/CommunicateMesh.hpp</text>
</a>
</g>
</g>
<!-- Node51&#45;&gt;Node55 -->
<g id="edge78" class="edge">
<title>Node51&#45;&gt;Node55</title>
<path fill="none" stroke="#191970" d="M1080.1067,-683.4855C1003.721,-674.931 902.5035,-661.5094 864,-647 840.2357,-638.0448 839.3713,-625.9358 816,-616 777.7775,-599.7504 732.8093,-588.6751 695.5929,-581.4716"/>
<polygon fill="#191970" stroke="#191970" points="695.7878,-577.9471 685.3136,-579.5414 694.4959,-584.8268 695.7878,-577.9471"/>
</g>
<!-- Node57 -->
<g id="node36" class="node">
<title>Node57</title>
<g id="a_node36"><a xlink:href="Communication_8hpp.html" target="_top" xlink:title="com/Communication.hpp">
<polygon fill="#ffffff" stroke="#ff0000" points="104.5,-168.5 104.5,-187.5 243.5,-187.5 243.5,-168.5 104.5,-168.5"/>
<text text-anchor="middle" x="174" y="-175.5" font-family="Helvetica,sans-Serif" font-size="10.00" fill="#000000">com/Communication.hpp</text>
</a>
</g>
</g>
<!-- Node51&#45;&gt;Node57 -->
<g id="edge82" class="edge">
<title>Node51&#45;&gt;Node57</title>
<path fill="none" stroke="#191970" d="M1075.7306,-686.5393C914.0521,-673.0622 584.4183,-633.4841 329,-524 207.6816,-471.9974 169.5665,-427.1119 134,-300 123.5545,-262.6685 145.7621,-219.7541 161.0777,-196.0716"/>
<polygon fill="#191970" stroke="#191970" points="164.0248,-197.9614 166.72,-187.7151 158.2234,-194.0443 164.0248,-197.9614"/>
</g>
<!-- Node51&#45;&gt;Node60 -->
<g id="edge87" class="edge">
<title>Node51&#45;&gt;Node60</title>
<path fill="none" stroke="#191970" d="M1137.356,-683.4783C1102.4856,-674.3517 1048.5758,-660.0708 1002,-647 869.9799,-609.9506 839.1368,-592.8112 706,-560 650.5626,-546.3376 586.8566,-533.8421 540.5695,-525.3336"/>
<polygon fill="#191970" stroke="#191970" points="541.1381,-521.8797 530.672,-523.5262 539.8806,-528.7658 541.1381,-521.8797"/>
</g>
<!-- Node65 -->
<g id="node39" class="node">
<title>Node65</title>
<g id="a_node39"><a xlink:href="Filter_8hpp.html" target="_top" xlink:title="mesh/Filter.hpp">
<polygon fill="#ffffff" stroke="#ff0000" points="1049.5,-560.5 1049.5,-579.5 1140.5,-579.5 1140.5,-560.5 1049.5,-560.5"/>
<text text-anchor="middle" x="1095" y="-567.5" font-family="Helvetica,sans-Serif" font-size="10.00" fill="#000000">mesh/Filter.hpp</text>
</a>
</g>
</g>
<!-- Node51&#45;&gt;Node65 -->
<g id="edge91" class="edge">
<title>Node51&#45;&gt;Node65</title>
<path fill="none" stroke="#191970" d="M1134.4838,-683.442C1102.3863,-674.7844 1060.8757,-661.2371 1051,-647 1037.0737,-626.9234 1057.3217,-602.1483 1074.726,-586.215"/>
<polygon fill="#191970" stroke="#191970" points="1077.1305,-588.7626 1082.3895,-579.5651 1072.5427,-583.4756 1077.1305,-588.7626"/>
</g>
<!-- Node67 -->
<g id="node40" class="node">
<title>Node67</title>
<g id="a_node40"><a xlink:href="BBUtils_8hpp.html" target="_top" xlink:title="mesh/impl/BBUtils.hpp">
<polygon fill="#ffffff" stroke="#000000" points="1437,-622 1437,-641 1565,-641 1565,-622 1437,-622"/>
<text text-anchor="middle" x="1501" y="-629" font-family="Helvetica,sans-Serif" font-size="10.00" fill="#000000">mesh/impl/BBUtils.hpp</text>
</a>
</g>
</g>
<!-- Node51&#45;&gt;Node67 -->
<g id="edge93" class="edge">
<title>Node51&#45;&gt;Node67</title>
<path fill="none" stroke="#191970" d="M1229.5855,-683.4288C1281.1055,-674.4401 1359.8431,-660.4044 1428,-647 1434.1736,-645.7858 1440.6318,-644.4746 1447.0446,-643.1467"/>
<polygon fill="#191970" stroke="#191970" points="1447.9647,-646.5301 1457.037,-641.058 1446.5324,-639.6782 1447.9647,-646.5301"/>
</g>
<!-- Node68 -->
<g id="node41" class="node">
<title>Node68</title>
<g id="a_node41"><a xlink:href="RTree_8hpp.html" target="_top" xlink:title="query/RTree.hpp">
<polygon fill="#ffffff" stroke="#ff0000" points="1696.5,-560.5 1696.5,-579.5 1791.5,-579.5 1791.5,-560.5 1696.5,-560.5"/>
<text text-anchor="middle" x="1744" y="-567.5" font-family="Helvetica,sans-Serif" font-size="10.00" fill="#000000">query/RTree.hpp</text>
</a>
</g>
</g>
<!-- Node51&#45;&gt;Node68 -->
<g id="edge104" class="edge">
<title>Node51&#45;&gt;Node68</title>
<path fill="none" stroke="#191970" d="M1272.1851,-690.4547C1391.9184,-686.1633 1586.5565,-675.0134 1653,-647 1684.4205,-633.7527 1713.0915,-605.6612 1729.5366,-587.3209"/>
<polygon fill="#191970" stroke="#191970" points="1732.2719,-589.5094 1736.1981,-579.6689 1726.9922,-584.9132 1732.2719,-589.5094"/>
</g>
<!-- Node72 -->
<g id="node43" class="node">
<title>Node72</title>
<g id="a_node43"><a xlink:href="EigenHelperFunctions_8hpp.html" target="_top" xlink:title="utils/EigenHelperFunctions.hpp">
<polygon fill="#ffffff" stroke="#ff0000" points="1302.5,-280.5 1302.5,-299.5 1469.5,-299.5 1469.5,-280.5 1302.5,-280.5"/>
<text text-anchor="middle" x="1386" y="-287.5" font-family="Helvetica,sans-Serif" font-size="10.00" fill="#000000">utils/EigenHelperFunctions.hpp</text>
</a>
</g>
</g>
<!-- Node51&#45;&gt;Node72 -->
<g id="edge105" class="edge">
<title>Node51&#45;&gt;Node72</title>
<path fill="none" stroke="#191970" d="M1272.2545,-687.8289C1391.7245,-680.7328 1580.7642,-666.5902 1607,-647 1636.6949,-624.8269 1639,-607.0598 1639,-570 1639,-570 1639,-570 1639,-514 1639,-400.259 1493.8856,-330.3201 1423.4608,-303.0755"/>
<polygon fill="#191970" stroke="#191970" points="1424.6337,-299.7772 1414.0421,-299.5144 1422.158,-306.3248 1424.6337,-299.7772"/>
</g>
<!-- Node75 -->
<g id="node44" class="node">
<title>Node75</title>
<g id="a_node44"><a xlink:href="Event_8hpp.html" target="_top" xlink:title="utils/Event.hpp">
<polygon fill="#ffffff" stroke="#ff0000" points="2011.5,-280.5 2011.5,-299.5 2100.5,-299.5 2100.5,-280.5 2011.5,-280.5"/>
<text text-anchor="middle" x="2056" y="-287.5" font-family="Helvetica,sans-Serif" font-size="10.00" fill="#000000">utils/Event.hpp</text>
</a>
</g>
</g>
<!-- Node51&#45;&gt;Node75 -->
<g id="edge109" class="edge">
<title>Node51&#45;&gt;Node75</title>
<path fill="none" stroke="#191970" d="M1272.0027,-687.9379C1399.0517,-680.7398 1613.4056,-666.254 1690,-647 1824.9854,-613.0679 1853.6641,-586.5541 1978,-524 2029.9562,-497.8605 2091,-516.1611 2091,-458 2091,-458 2091,-458 2091,-402 2091,-367.8821 2076.0205,-330.4701 2065.6609,-308.676"/>
<polygon fill="#191970" stroke="#191970" points="2068.7308,-306.9879 2061.1644,-299.5717 2062.4545,-310.0877 2068.7308,-306.9879"/>
</g>
<!-- Node77 -->
<g id="node45" class="node">
<title>Node77</title>
<g id="a_node45"><a xlink:href="MasterSlave_8hpp.html" target="_top" xlink:title="utils/MasterSlave.hpp">
<polygon fill="#ffffff" stroke="#ff0000" points="1661,-336.5 1661,-355.5 1783,-355.5 1783,-336.5 1661,-336.5"/>
<text text-anchor="middle" x="1722" y="-343.5" font-family="Helvetica,sans-Serif" font-size="10.00" fill="#000000">utils/MasterSlave.hpp</text>
</a>
</g>
</g>
<!-- Node51&#45;&gt;Node77 -->
<g id="edge115" class="edge">
<title>Node51&#45;&gt;Node77</title>
<path fill="none" stroke="#191970" d="M1135.9024,-683.4497C1117.1054,-676.6063 1096.1252,-665.2734 1085,-647 1077.8352,-635.2317 1077.3926,-627.4871 1085,-616 1094.1402,-602.1985 1560.1391,-411.8538 1689.1857,-359.3362"/>
<polygon fill="#191970" stroke="#191970" points="1690.6276,-362.5282 1698.5714,-355.5178 1687.9896,-356.0443 1690.6276,-362.5282"/>
</g>
<!-- Node55&#45;&gt;Node5 -->
<g id="edge79" class="edge">
<title>Node55&#45;&gt;Node5</title>
<path fill="none" stroke="#191970" d="M542.4941,-564.7384C491.3123,-559.1477 423.6707,-547.643 368,-524 264.6838,-480.1222 0,-290.2475 0,-178 0,-178 0,-178 0,-122 0,-84.9295 18.0677,-73.0202 51,-56 100.4679,-30.4339 958.3871,-13.7601 1136.7027,-10.5619"/>
<polygon fill="#191970" stroke="#191970" points="1136.8313,-14.0602 1146.7674,-10.3828 1136.7066,-7.0613 1136.8313,-14.0602"/>
</g>
<!-- Node55&#45;&gt;Node8 -->
<g id="edge80" class="edge">
<title>Node55&#45;&gt;Node8</title>
<path fill="none" stroke="#191970" d="M551.6581,-560.4878C496.9892,-552.0081 425.4226,-538.6924 400,-524 371.1115,-507.3045 361.8921,-499.1747 350,-468 322.7098,-396.4597 203.5578,-624.3041 424,-224 439.5371,-195.786 441.4774,-182.963 470,-168 512.2245,-145.849 820.3443,-130.4104 957.0168,-124.5789"/>
<polygon fill="#191970" stroke="#191970" points="957.4985,-128.0618 967.3418,-124.1428 957.203,-121.068 957.4985,-128.0618"/>
</g>
<!-- Node55&#45;&gt;Node22 -->
<g id="edge81" class="edge">
<title>Node55&#45;&gt;Node22</title>
<path fill="none" stroke="#191970" d="M679.5987,-560.4369C744.8325,-549.9696 848.6317,-533.3141 912.5795,-523.0532"/>
<polygon fill="#191970" stroke="#191970" points="913.1693,-526.5034 922.4885,-521.4632 912.0603,-519.5918 913.1693,-526.5034"/>
</g>
<!-- Node57&#45;&gt;Node5 -->
<g id="edge84" class="edge">
<title>Node57&#45;&gt;Node5</title>
<path fill="none" stroke="#191970" d="M179.918,-168.378C195.4179,-144.187 239.907,-80.9838 296,-56 373.8577,-21.3223 987.2296,-12.0842 1136.3909,-10.3408"/>
<polygon fill="#191970" stroke="#191970" points="1136.7418,-13.8371 1146.7014,-10.2237 1136.6622,-6.8376 1136.7418,-13.8371"/>
</g>
<!-- Node57&#45;&gt;Node7 -->
<g id="edge85" class="edge">
<title>Node57&#45;&gt;Node7</title>
<path fill="none" stroke="#191970" d="M243.6541,-175.9255C452.4243,-169.6776 1091.2995,-150.3389 1621,-132 1704.9639,-129.0931 1803.7651,-125.294 1854.3818,-123.3201"/>
<polygon fill="#191970" stroke="#191970" points="1854.5731,-126.8154 1864.4288,-122.9276 1854.2998,-119.8208 1854.5731,-126.8154"/>
</g>
<!-- Node57&#45;&gt;Node8 -->
<g id="edge86" class="edge">
<title>Node57&#45;&gt;Node8</title>
<path fill="none" stroke="#191970" d="M243.6392,-169.3925C248.4959,-168.8898 253.3191,-168.4192 258,-168 516.3639,-144.8631 824.9511,-130.264 956.9309,-124.6355"/>
<polygon fill="#191970" stroke="#191970" points="957.4174,-128.1181 967.2603,-124.198 957.1211,-121.1244 957.4174,-128.1181"/>
</g>
<!-- Node57&#45;&gt;Node39 -->
<g id="edge83" class="edge">
<title>Node57&#45;&gt;Node39</title>
<path fill="none" stroke="#191970" d="M168.0777,-168.2455C163.3973,-160.5367 156.7327,-149.5598 151.0711,-140.2348"/>
<polygon fill="#191970" stroke="#191970" points="154.0361,-138.3741 145.8545,-131.6427 148.0525,-142.007 154.0361,-138.3741"/>
</g>
<!-- Node60&#45;&gt;Node8 -->
<g id="edge88" class="edge">
<title>Node60&#45;&gt;Node8</title>
<path fill="none" stroke="#191970" d="M469.4964,-504.42C458.0749,-486.9676 434.7909,-448.425 426,-412 399.2898,-301.3269 404.8436,-223.9462 504,-168 542.6142,-146.213 826.9477,-130.7777 957.1821,-124.774"/>
<polygon fill="#191970" stroke="#191970" points="957.5858,-128.2593 967.4159,-124.307 957.2667,-121.2666 957.5858,-128.2593"/>
</g>
<!-- Node61 -->
<g id="node38" class="node">
<title>Node61</title>
<g id="a_node38"><a xlink:href="math_8hpp.html" target="_top" xlink:title="math/math.hpp">
<polygon fill="#ffffff" stroke="#ff0000" points="965,-336.5 965,-355.5 1057,-355.5 1057,-336.5 965,-336.5"/>
<text text-anchor="middle" x="1011" y="-343.5" font-family="Helvetica,sans-Serif" font-size="10.00" fill="#000000">math/math.hpp</text>
</a>
</g>
</g>
<!-- Node60&#45;&gt;Node61 -->
<g id="edge89" class="edge">
<title>Node60&#45;&gt;Node61</title>
<path fill="none" stroke="#191970" d="M528.6185,-504.4574C606.6276,-489.4718 756.8882,-457.3747 879,-412 917.7164,-397.6136 960.0142,-375.175 986.0312,-360.5297"/>
<polygon fill="#191970" stroke="#191970" points="987.8822,-363.5034 994.843,-355.5159 984.4205,-357.4193 987.8822,-363.5034"/>
</g>
<!-- Node61&#45;&gt;Node30 -->
<g id="edge90" class="edge">
<title>Node61&#45;&gt;Node30</title>
<path fill="none" stroke="#191970" d="M1013.4386,-336.2455C1015.2855,-328.8579 1017.8828,-318.4689 1020.1478,-309.4087"/>
<polygon fill="#191970" stroke="#191970" points="1023.5594,-310.193 1022.5893,-299.6427 1016.7684,-308.4952 1023.5594,-310.193"/>
</g>
<!-- Node65&#45;&gt;Node22 -->
<g id="edge92" class="edge">
<title>Node65&#45;&gt;Node22</title>
<path fill="none" stroke="#191970" d="M1073.3398,-560.3733C1053.0228,-551.3435 1022.436,-537.7494 999.625,-527.6111"/>
<polygon fill="#191970" stroke="#191970" points="1000.9372,-524.3642 990.3775,-523.5011 998.0941,-530.7609 1000.9372,-524.3642"/>
</g>
<!-- Node67&#45;&gt;Node27 -->
<g id="edge94" class="edge">
<title>Node67&#45;&gt;Node27</title>
<path fill="none" stroke="#191970" d="M1486.073,-621.9309C1430.4623,-586.281 1235.023,-460.9924 1166.7523,-417.2267"/>
<polygon fill="#191970" stroke="#191970" points="1168.2983,-414.0604 1157.9908,-411.61 1164.5205,-419.9534 1168.2983,-414.0604"/>
</g>
<!-- Node67&#45;&gt;Node68 -->
<g id="edge95" class="edge">
<title>Node67&#45;&gt;Node68</title>
<path fill="none" stroke="#191970" d="M1538.7021,-621.9581C1581.1772,-611.2082 1650.292,-593.7162 1696.4413,-582.0365"/>
<polygon fill="#191970" stroke="#191970" points="1697.3738,-585.4109 1706.2094,-579.5643 1695.6563,-578.6248 1697.3738,-585.4109"/>
</g>
<!-- Node68&#45;&gt;Node1 -->
<g id="edge96" class="edge">
<title>Node68&#45;&gt;Node1</title>
<path fill="none" stroke="#191970" d="M1738.6574,-560.2724C1714.9017,-518.0851 1614.0538,-349.9416 1479,-280 1445.255,-262.5241 1341.7347,-247.1433 1281.5799,-239.3709"/>
<polygon fill="#191970" stroke="#191970" points="1281.9593,-235.8911 1271.5972,-238.0995 1281.0748,-242.835 1281.9593,-235.8911"/>
</g>
<!-- Node68&#45;&gt;Node3 -->
<g id="edge99" class="edge">
<title>Node68&#45;&gt;Node3</title>
<path fill="none" stroke="#191970" d="M1791.6104,-567.5555C1884.5183,-562.4109 2096.3568,-548.8424 2273,-524 2401.6946,-505.9009 2433.566,-498.0718 2560,-468 2649.3862,-446.7399 2672.0322,-441.6391 2759,-412 2833.3696,-386.6545 2923,-424.5699 2923,-346 2923,-346 2923,-346 2923,-290 2923,-157.4574 2734.7115,-95.5597 2651.1466,-74.6154"/>
<polygon fill="#191970" stroke="#191970" points="2651.8024,-71.1729 2641.2581,-72.2063 2650.1454,-77.9739 2651.8024,-71.1729"/>
</g>
<!-- Node68&#45;&gt;Node21 -->
<g id="edge97" class="edge">
<title>Node68&#45;&gt;Node21</title>
<path fill="none" stroke="#191970" d="M1761.8895,-560.3631C1803.6353,-536.4248 1902.724,-470.487 1886,-392 1880.3197,-365.342 1875.6936,-358.9567 1861,-336 1843.1715,-308.1455 1836.5979,-302.1059 1812,-280 1807.439,-275.9011 1665.1366,-176.5161 1609.2339,-137.5087"/>
<polygon fill="#191970" stroke="#191970" points="1610.9434,-134.4338 1600.7395,-131.5823 1606.9381,-140.1747 1610.9434,-134.4338"/>
</g>
<!-- Node68&#45;&gt;Node22 -->
<g id="edge101" class="edge">
<title>Node68&#45;&gt;Node22</title>
<path fill="none" stroke="#191970" d="M1696.3964,-566.5603C1560.677,-556.7534 1172.1837,-528.6817 1025.7605,-518.1014"/>
<polygon fill="#191970" stroke="#191970" points="1025.8694,-514.6002 1015.6432,-517.3703 1025.3649,-521.582 1025.8694,-514.6002"/>
</g>
<!-- Node68&#45;&gt;Node26 -->
<g id="edge98" class="edge">
<title>Node68&#45;&gt;Node26</title>
<path fill="none" stroke="#191970" d="M1791.7652,-564.1114C1845.3036,-556.7231 1927.9105,-542.7164 1953,-524 2023.5212,-471.392 2038.4242,-420.8065 2015,-336 2005.9964,-303.4027 1983.5181,-270.7358 1968.5094,-251.4498"/>
<polygon fill="#191970" stroke="#191970" points="1971.1935,-249.2022 1962.2143,-243.5786 1965.7267,-253.5743 1971.1935,-249.2022"/>
</g>
<!-- Node68&#45;&gt;Node42 -->
<g id="edge102" class="edge">
<title>Node68&#45;&gt;Node42</title>
<path fill="none" stroke="#191970" d="M1791.5955,-567.1652C1934.0048,-557.6421 2368.0111,-521.0206 2709,-412 2762.7684,-394.8092 2792.3726,-403.4187 2823,-356 2843.1317,-324.8313 2837.5966,-279.2287 2832.0868,-253.5163"/>
<polygon fill="#191970" stroke="#191970" points="2835.4306,-252.4471 2829.7257,-243.5193 2828.6181,-254.0561 2835.4306,-252.4471"/>
</g>
<!-- Node68&#45;&gt;Node43 -->
<g id="edge103" class="edge">
<title>Node68&#45;&gt;Node43</title>
<path fill="none" stroke="#191970" d="M1696.4221,-561.5818C1583.8858,-541.6702 1301.2924,-491.6694 1174.4087,-469.2192"/>
<polygon fill="#191970" stroke="#191970" points="1174.9061,-465.753 1164.4492,-467.457 1173.6864,-472.6459 1174.9061,-465.753"/>
</g>
<!-- Node70 -->
<g id="node42" class="node">
<title>Node70</title>
<polygon fill="#ffffff" stroke="#bfbfbf" points="2205.5,-224.5 2205.5,-243.5 2274.5,-243.5 2274.5,-224.5 2205.5,-224.5"/>
<text text-anchor="middle" x="2240" y="-231.5" font-family="Helvetica,sans-Serif" font-size="10.00" fill="#000000">type_traits</text>
</g>
<!-- Node68&#45;&gt;Node70 -->
<g id="edge100" class="edge">
<title>Node68&#45;&gt;Node70</title>
<path fill="none" stroke="#191970" d="M1791.5044,-564.2597C1850.3725,-556.5327 1946.7436,-541.6931 1978,-524 2101.4262,-454.1329 2197.9686,-305.0182 2229.2411,-252.6503"/>
<polygon fill="#191970" stroke="#191970" points="2232.4073,-254.1711 2234.464,-243.7778 2226.3748,-250.62 2232.4073,-254.1711"/>
</g>
<!-- Node72&#45;&gt;Node1 -->
<g id="edge106" class="edge">
<title>Node72&#45;&gt;Node1</title>
<path fill="none" stroke="#191970" d="M1360.386,-280.3733C1335.9313,-271.1822 1298.8946,-257.2624 1271.7791,-247.0713"/>
<polygon fill="#191970" stroke="#191970" points="1272.8719,-243.7431 1262.2798,-243.5011 1270.4091,-250.2956 1272.8719,-243.7431"/>
</g>
<!-- Node72&#45;&gt;Node7 -->
<g id="edge107" class="edge">
<title>Node72&#45;&gt;Node7</title>
<path fill="none" stroke="#191970" d="M1440.509,-280.459C1516.9703,-266.0139 1659.5378,-235.1751 1774,-188 1807.6361,-174.137 1843.49,-152.0171 1865.8167,-137.2554"/>
<polygon fill="#191970" stroke="#191970" points="1867.8755,-140.0889 1874.2335,-131.6138 1863.9781,-134.2743 1867.8755,-140.0889"/>
</g>
<!-- Node72&#45;&gt;Node31 -->
<g id="edge108" class="edge">
<title>Node72&#45;&gt;Node31</title>
<path fill="none" stroke="#191970" d="M1309.5789,-280.4686C1222.5549,-269.6149 1081.9458,-252.0779 1000.6347,-241.9366"/>
<polygon fill="#191970" stroke="#191970" points="1000.8923,-238.4417 990.536,-240.6771 1000.0259,-245.3879 1000.8923,-238.4417"/>
</g>
<!-- Node75&#45;&gt;Node5 -->
<g id="edge111" class="edge">
<title>Node75&#45;&gt;Node5</title>
<path fill="none" stroke="#191970" d="M2059.0986,-280.2275C2064.9401,-260.9094 2077,-216.3796 2077,-178 2077,-178 2077,-178 2077,-122 2077,-31.9457 1364.3929,-13.55 1201.7685,-10.5244"/>
<polygon fill="#191970" stroke="#191970" points="1201.5062,-7.0192 1191.4451,-10.3395 1201.3808,-14.0181 1201.5062,-7.0192"/>
</g>
<!-- Node75&#45;&gt;Node6 -->
<g id="edge112" class="edge">
<title>Node75&#45;&gt;Node6</title>
<path fill="none" stroke="#191970" d="M2071.851,-280.2455C2085.8132,-271.6534 2106.3728,-259.0014 2122.4596,-249.1018"/>
<polygon fill="#191970" stroke="#191970" points="2124.6484,-251.8645 2131.3307,-243.6427 2120.9797,-245.9029 2124.6484,-251.8645"/>
</g>
<!-- Node75&#45;&gt;Node7 -->
<g id="edge113" class="edge">
<title>Node75&#45;&gt;Node7</title>
<path fill="none" stroke="#191970" d="M2051.3353,-280.3577C2044.5246,-266.8601 2030.9225,-241.9721 2015,-224 1983.4932,-188.4377 1938.6416,-155.6213 1911.5311,-137.2634"/>
<polygon fill="#191970" stroke="#191970" points="1913.3223,-134.2509 1903.0622,-131.6089 1909.4353,-140.0726 1913.3223,-134.2509"/>
</g>
<!-- Node75&#45;&gt;Node8 -->
<g id="edge114" class="edge">
<title>Node75&#45;&gt;Node8</title>
<path fill="none" stroke="#191970" d="M2048.6015,-280.3258C2036.5117,-265.3283 2010.9478,-236.858 1982,-224 1845.9545,-163.5713 1796.5318,-207.8586 1649,-188 1593.6756,-180.553 1580.3839,-174.9905 1525,-168 1368.2385,-148.2137 1182.9631,-133.492 1086.9721,-126.5077"/>
<polygon fill="#191970" stroke="#191970" points="1087.0669,-123.0055 1076.8405,-125.7752 1086.5621,-129.9873 1087.0669,-123.0055"/>
</g>
<!-- Node75&#45;&gt;Node26 -->
<g id="edge110" class="edge">
<title>Node75&#45;&gt;Node26</title>
<path fill="none" stroke="#191970" d="M2038.233,-280.2455C2022.2905,-271.4928 1998.6741,-258.527 1980.5011,-248.5496"/>
<polygon fill="#191970" stroke="#191970" points="1982.0137,-245.3873 1971.5634,-243.6427 1978.6448,-251.5233 1982.0137,-245.3873"/>
</g>
<!-- Node77&#45;&gt;Node1 -->
<g id="edge116" class="edge">
<title>Node77&#45;&gt;Node1</title>
<path fill="none" stroke="#191970" d="M1695.0542,-336.4549C1669.6547,-327.3701 1630.584,-313.1694 1597,-300 1575.484,-291.5629 1571.2702,-286.1775 1549,-280 1455.9837,-254.1983 1343.1101,-242.118 1281.8449,-237.097"/>
<polygon fill="#191970" stroke="#191970" points="1281.9897,-233.5976 1271.7441,-236.2952 1281.4357,-240.5756 1281.9897,-233.5976"/>
</g>
<!-- Node77&#45;&gt;Node8 -->
<g id="edge117" class="edge">
<title>Node77&#45;&gt;Node8</title>
<path fill="none" stroke="#191970" d="M1704.974,-336.42C1679.8002,-322.548 1630.8876,-296.705 1587,-280 1404.5499,-210.5535 1178.5883,-156.5289 1076.5425,-133.7619"/>
<polygon fill="#191970" stroke="#191970" points="1076.9947,-130.2772 1066.4739,-131.5275 1075.4781,-137.1109 1076.9947,-130.2772"/>
</g>
<!-- Node78&#45;&gt;Node5 -->
<g id="edge125" class="edge">
<title>Node78&#45;&gt;Node5</title>
<path fill="none" stroke="#191970" d="M2515.055,-338.1572C2566.8734,-330.761 2633.5443,-318.0955 2654,-300 2737.1183,-226.4718 2784.2881,-135.6343 2707,-56 2679.8279,-28.003 1420.7587,-12.7896 1201.4156,-10.3496"/>
<polygon fill="#191970" stroke="#191970" points="1201.2448,-6.8476 1191.2067,-10.2369 1201.1675,-13.8472 1201.2448,-6.8476"/>
</g>
<!-- Node78&#45;&gt;Node6 -->
<g id="edge127" class="edge">
<title>Node78&#45;&gt;Node6</title>
<path fill="none" stroke="#191970" d="M2416.6536,-336.4261C2387.5003,-327.6009 2343.5725,-313.8146 2306,-300 2260.7489,-283.3621 2209.3932,-261.4862 2177.5936,-247.5798"/>
<polygon fill="#191970" stroke="#191970" points="2178.9443,-244.3504 2168.381,-243.5345 2176.1299,-250.7597 2178.9443,-244.3504"/>
</g>
<!-- Node78&#45;&gt;Node7 -->
<g id="edge128" class="edge">
<title>Node78&#45;&gt;Node7</title>
<path fill="none" stroke="#191970" d="M2441.4731,-336.19C2422.8479,-312.6676 2371.9691,-252.8702 2315,-224 2179.5696,-155.3681 1996.3586,-131.7855 1921.7295,-124.6996"/>
<polygon fill="#191970" stroke="#191970" points="1921.8014,-121.1918 1911.5252,-123.7705 1921.1666,-128.1629 1921.8014,-121.1918"/>
</g>
<!-- Node78&#45;&gt;Node35 -->
<g id="edge140" class="edge">
<title>Node78&#45;&gt;Node35</title>
<path fill="none" stroke="#191970" d="M2434.2045,-336.4203C2420.2904,-327.311 2398.9705,-313.0937 2381,-300 2336.7358,-267.748 2334.9904,-243.9872 2284,-224 2191.7597,-187.8436 1891.8813,-180.0985 1775.1264,-178.4459"/>
<polygon fill="#191970" stroke="#191970" points="1775.1119,-174.9455 1765.0662,-178.3123 1775.0188,-181.9449 1775.1119,-174.9455"/>
</g>
<!-- Node78&#45;&gt;Node70 -->
<g id="edge126" class="edge">
<title>Node78&#45;&gt;Node70</title>
<path fill="none" stroke="#191970" d="M2424.055,-336.4935C2402.2332,-327.869 2369.9096,-314.3412 2343,-300 2313.9388,-284.5121 2282.2956,-263.5735 2261.8593,-249.4688"/>
<polygon fill="#191970" stroke="#191970" points="2263.7744,-246.5373 2253.5677,-243.6958 2259.7746,-252.2821 2263.7744,-246.5373"/>
</g>
<!-- Node79 -->
<g id="node47" class="node">
<title>Node79</title>
<polygon fill="#ffffff" stroke="#bfbfbf" points="2563.5,-280.5 2563.5,-299.5 2628.5,-299.5 2628.5,-280.5 2563.5,-280.5"/>
<text text-anchor="middle" x="2596" y="-287.5" font-family="Helvetica,sans-Serif" font-size="10.00" fill="#000000">stdexcept</text>
</g>
<!-- Node78&#45;&gt;Node79 -->
<g id="edge124" class="edge">
<title>Node78&#45;&gt;Node79</title>
<path fill="none" stroke="#191970" d="M2474.2702,-336.3733C2498.3966,-327.1822 2534.9362,-313.2624 2561.6877,-303.0713"/>
<polygon fill="#191970" stroke="#191970" points="2562.9607,-306.3318 2571.0596,-299.5011 2560.4687,-299.7904 2562.9607,-306.3318"/>
</g>
<!-- Node80 -->
<g id="node48" class="node">
<title>Node80</title>
<g id="a_node48"><a xlink:href="M2N_8hpp.html" target="_top" xlink:title="m2n/M2N.hpp">
<polygon fill="#ffffff" stroke="#ff0000" points="2461,-280.5 2461,-299.5 2545,-299.5 2545,-280.5 2461,-280.5"/>
<text text-anchor="middle" x="2503" y="-287.5" font-family="Helvetica,sans-Serif" font-size="10.00" fill="#000000">m2n/M2N.hpp</text>
</a>
</g>
</g>
<!-- Node78&#45;&gt;Node80 -->
<g id="edge129" class="edge">
<title>Node78&#45;&gt;Node80</title>
<path fill="none" stroke="#191970" d="M2458.4061,-336.2455C2466.1493,-328.2155 2477.312,-316.6394 2486.5318,-307.0781"/>
<polygon fill="#191970" stroke="#191970" points="2489.2798,-309.2706 2493.7017,-299.6427 2484.2409,-304.4117 2489.2798,-309.2706"/>
</g>
<!-- Node83 -->
<g id="node49" class="node">
<title>Node83</title>
<g id="a_node49"><a xlink:href="m2n_2SharedPointer_8hpp.html" target="_top" xlink:title="SharedPointer.hpp">
<polygon fill="#ffffff" stroke="#000000" points="2559.5,-224.5 2559.5,-243.5 2664.5,-243.5 2664.5,-224.5 2559.5,-224.5"/>
<text text-anchor="middle" x="2612" y="-231.5" font-family="Helvetica,sans-Serif" font-size="10.00" fill="#000000">SharedPointer.hpp</text>
</a>
</g>
</g>
<!-- Node78&#45;&gt;Node83 -->
<g id="edge139" class="edge">
<title>Node78&#45;&gt;Node83</title>
<path fill="none" stroke="#191970" d="M2515.261,-338.5561C2563.4367,-331.6197 2622.7681,-319.3837 2638,-300 2649.2165,-285.7261 2638.8956,-266.0077 2628.1212,-251.8474"/>
<polygon fill="#191970" stroke="#191970" points="2630.5973,-249.348 2621.5424,-243.8471 2625.1906,-253.7941 2630.5973,-249.348"/>
</g>
<!-- Node80&#45;&gt;Node3 -->
<g id="edge131" class="edge">
<title>Node80&#45;&gt;Node3</title>
<path fill="none" stroke="#191970" d="M2507.6836,-280.375C2524.3144,-246.1979 2580.7163,-130.2894 2602.9159,-84.6683"/>
<polygon fill="#191970" stroke="#191970" points="2606.1054,-86.1125 2607.3339,-75.5891 2599.8111,-83.0496 2606.1054,-86.1125"/>
</g>
<!-- Node80&#45;&gt;Node5 -->
<g id="edge132" class="edge">
<title>Node80&#45;&gt;Node5</title>
<path fill="none" stroke="#191970" d="M2501.5672,-280.4373C2498.8022,-261.1257 2493,-216.0675 2493,-178 2493,-178 2493,-178 2493,-122 2493,-55.0388 1403.5503,-17.401 1201.1507,-10.9863"/>
<polygon fill="#191970" stroke="#191970" points="1201.2547,-7.488 1191.1496,-10.672 1201.0347,-14.4845 1201.2547,-7.488"/>
</g>
<!-- Node80&#45;&gt;Node7 -->
<g id="edge134" class="edge">
<title>Node80&#45;&gt;Node7</title>
<path fill="none" stroke="#191970" d="M2497.9202,-280.2638C2483.3785,-252.5644 2441.9322,-174.8704 2431,-168 2387.8834,-140.9034 2033.2073,-126.8476 1921.5339,-123.0635"/>
<polygon fill="#191970" stroke="#191970" points="1921.6151,-119.5644 1911.504,-122.7293 1921.3819,-126.5605 1921.6151,-119.5644"/>
</g>
<!-- Node80&#45;&gt;Node8 -->
<g id="edge137" class="edge">
<title>Node80&#45;&gt;Node8</title>
<path fill="none" stroke="#191970" d="M2478.1722,-280.4363C2438.0429,-265.4559 2356.1301,-236.8441 2284,-224 2020.1175,-177.0109 1946.9876,-228.2931 1682,-188 1645.3402,-182.4256 1637.6035,-173.9325 1601,-168 1415.858,-137.9934 1194.1004,-127.3071 1086.6694,-123.7065"/>
<polygon fill="#191970" stroke="#191970" points="1086.7435,-120.2072 1076.6348,-123.3798 1086.5156,-127.2034 1086.7435,-120.2072"/>
</g>
<!-- Node80&#45;&gt;Node26 -->
<g id="edge130" class="edge">
<title>Node80&#45;&gt;Node26</title>
<path fill="none" stroke="#191970" d="M2460.8325,-285.6988C2353.9471,-274.7961 2074.4322,-246.2845 1983.237,-236.9823"/>
<polygon fill="#191970" stroke="#191970" points="1983.3771,-233.4785 1973.0735,-235.9456 1982.6667,-240.4424 1983.3771,-233.4785"/>
</g>
<!-- Node80&#45;&gt;Node42 -->
<g id="edge138" class="edge">
<title>Node80&#45;&gt;Node42</title>
<path fill="none" stroke="#191970" d="M2545.2706,-281.7888C2548.5611,-281.1747 2551.8337,-280.5721 2555,-280 2624.1033,-267.5138 2703.2764,-254.2406 2758.3154,-245.1779"/>
<polygon fill="#191970" stroke="#191970" points="2759.004,-248.6117 2768.3037,-243.5358 2757.8684,-241.7045 2759.004,-248.6117"/>
</g>
<!-- Node80&#45;&gt;Node70 -->
<g id="edge133" class="edge">
<title>Node80&#45;&gt;Node70</title>
<path fill="none" stroke="#191970" d="M2460.7445,-281.0026C2412.4849,-270.7268 2333.8619,-253.9858 2284.6315,-243.5033"/>
<polygon fill="#191970" stroke="#191970" points="2285.1035,-240.0254 2274.5939,-241.366 2283.6457,-246.8719 2285.1035,-240.0254"/>
</g>
<!-- Node80&#45;&gt;Node83 -->
<g id="edge135" class="edge">
<title>Node80&#45;&gt;Node83</title>
<path fill="none" stroke="#191970" d="M2521.9864,-280.2455C2539.1792,-271.4125 2564.7238,-258.2887 2584.2132,-248.2758"/>
<polygon fill="#191970" stroke="#191970" points="2585.9359,-251.3257 2593.2312,-243.6427 2582.737,-245.0993 2585.9359,-251.3257"/>
</g>
<!-- Node83&#45;&gt;Node3 -->
<g id="edge136" class="edge">
<title>Node83&#45;&gt;Node3</title>
<path fill="none" stroke="#191970" d="M2612,-224.4862C2612,-197.9293 2612,-122.5651 2612,-86.1655"/>
<polygon fill="#191970" stroke="#191970" points="2615.5001,-85.8278 2612,-75.8279 2608.5001,-85.8279 2615.5001,-85.8278"/>
</g>
<!-- Node84&#45;&gt;Node1 -->
<g id="edge142" class="edge">
<title>Node84&#45;&gt;Node1</title>
<path fill="none" stroke="#191970" d="M1805.2007,-392.0888C1806.3437,-377.8043 1806.166,-351.4524 1792,-336 1788.0109,-331.6487 1592.787,-281.1651 1587,-280 1478.358,-258.1273 1348.5683,-244.2033 1281.7115,-237.9119"/>
<polygon fill="#191970" stroke="#191970" points="1281.8152,-234.4066 1271.5346,-236.9676 1281.1685,-241.3766 1281.8152,-234.4066"/>
</g>
<!-- Node84&#45;&gt;Node5 -->
<g id="edge143" class="edge">
<title>Node84&#45;&gt;Node5</title>
<path fill="none" stroke="#191970" d="M1858.6535,-400.9226C2004.0372,-397.6721 2397.7805,-386.2566 2524,-356 2585.1773,-341.3349 2610.9553,-345.879 2654,-300 2692.9496,-258.4859 2693,-234.9253 2693,-178 2693,-178 2693,-178 2693,-122 2693,-86.9903 2680.5168,-73.1582 2650,-56 2584.7073,-19.2888 1411.9343,-11.2998 1201.2702,-10.1588"/>
<polygon fill="#191970" stroke="#191970" points="1201.1836,-6.6584 1191.1652,-10.1053 1201.1466,-13.6583 1201.1836,-6.6584"/>
</g>
<!-- Node84&#45;&gt;Node30 -->
<g id="edge145" class="edge">
<title>Node84&#45;&gt;Node30</title>
<path fill="none" stroke="#191970" d="M1761.0132,-392.4739C1696.3965,-378.4345 1570.259,-352.1136 1462,-336 1333.1667,-316.8241 1181.7961,-302.7651 1095.2591,-295.5274"/>
<polygon fill="#191970" stroke="#191970" points="1095.5457,-292.0392 1085.2904,-294.6999 1094.9666,-299.0152 1095.5457,-292.0392"/>
</g>
<!-- Node84&#45;&gt;Node46 -->
<g id="edge148" class="edge">
<title>Node84&#45;&gt;Node46</title>
<path fill="none" stroke="#191970" d="M1749.1801,-394.7936C1675.9763,-385.1706 1545.6668,-368.0407 1460.5517,-356.8519"/>
<polygon fill="#191970" stroke="#191970" points="1460.7736,-353.351 1450.4027,-355.5177 1459.8612,-360.2913 1460.7736,-353.351"/>
</g>
<!-- Node84&#45;&gt;Node61 -->
<g id="edge146" class="edge">
<title>Node84&#45;&gt;Node61</title>
<path fill="none" stroke="#191970" d="M1749.4939,-398.1509C1605.116,-387.9552 1213.8539,-360.3251 1067.3726,-349.9809"/>
<polygon fill="#191970" stroke="#191970" points="1067.4775,-346.4797 1057.2557,-349.2665 1066.9843,-353.4623 1067.4775,-346.4797"/>
</g>
<!-- Node84&#45;&gt;Node70 -->
<g id="edge144" class="edge">
<title>Node84&#45;&gt;Node70</title>
<path fill="none" stroke="#191970" d="M1846.5322,-392.4621C1910.4582,-377.3246 2034.3291,-344.8549 2133,-300 2164.2942,-285.7739 2197.5828,-264.0707 2218.5665,-249.4755"/>
<polygon fill="#191970" stroke="#191970" points="2220.6065,-252.3197 2226.7644,-243.6981 2216.5741,-246.5978 2220.6065,-252.3197"/>
</g>
<!-- Node84&#45;&gt;Node77 -->
<g id="edge149" class="edge">
<title>Node84&#45;&gt;Node77</title>
<path fill="none" stroke="#191970" d="M1789.7167,-392.2455C1777.253,-383.7337 1758.9549,-371.2375 1744.5208,-361.3801"/>
<polygon fill="#191970" stroke="#191970" points="1746.3515,-358.392 1736.1196,-355.6427 1742.4038,-364.1726 1746.3515,-358.392"/>
</g>
<!-- Node84&#45;&gt;Node78 -->
<g id="edge147" class="edge">
<title>Node84&#45;&gt;Node78</title>
<path fill="none" stroke="#191970" d="M1858.7141,-397.2496C1973.7395,-387.2629 2240.8495,-364.072 2372.6486,-352.629"/>
<polygon fill="#191970" stroke="#191970" points="2373.0092,-356.1109 2382.669,-351.759 2372.4037,-349.1371 2373.0092,-356.1109"/>
</g>
</g>
</svg>
