<?xml version="1.0" encoding="UTF-8" standalone="no"?>
<!DOCTYPE svg PUBLIC "-//W3C//DTD SVG 1.1//EN"
 "http://www.w3.org/Graphics/SVG/1.1/DTD/svg11.dtd">
<!-- Generated by graphviz version 2.40.1 (20161225.0304)
 -->
<!-- Title: createSolidzMesh2D Pages: 1 -->
<svg width="264pt" height="78pt"
 viewBox="0.00 0.00 264.00 77.50" xmlns="http://www.w3.org/2000/svg" xmlns:xlink="http://www.w3.org/1999/xlink">
<g id="graph0" class="graph" transform="scale(1 1) rotate(0) translate(4 73.5)">
<title>createSolidzMesh2D</title>
<polygon fill="#ffffff" stroke="transparent" points="-4,4 -4,-73.5 260,-73.5 260,4 -4,4"/>
<!-- Node917 -->
<g id="node1" class="node">
<title>Node917</title>
<polygon fill="#bfbfbf" stroke="#000000" points="0,-28 0,-47 107,-47 107,-28 0,-28"/>
<text text-anchor="middle" x="53.5" y="-35" font-family="Helvetica,sans-Serif" font-size="10.00" fill="#000000">createSolidzMesh2D</text>
</g>
<!-- Node918 -->
<g id="node2" class="node">
<title>Node918</title>
<g id="a_node2"><a xlink:href="RTreeTests_8cpp.html#a9849f5c774ff22e557184d988b1cf9ea" target="_top" xlink:title="BOOST_TEST">
<polygon fill="#ffffff" stroke="#000000" points="158.5,-50 158.5,-69 240.5,-69 240.5,-50 158.5,-50"/>
<text text-anchor="middle" x="199.5" y="-57" font-family="Helvetica,sans-Serif" font-size="10.00" fill="#000000">BOOST_TEST</text>
</a>
</g>
</g>
<!-- Node917&#45;&gt;Node918 -->
<g id="edge1" class="edge">
<title>Node917&#45;&gt;Node918</title>
<path fill="none" stroke="#191970" d="M107.036,-45.5671C120.5253,-47.5997 134.9712,-49.7765 148.3406,-51.791"/>
<polygon fill="#191970" stroke="#191970" points="147.9108,-55.2657 158.3207,-53.2949 148.9539,-48.3439 147.9108,-55.2657"/>
</g>
<!-- Node919 -->
<g id="node3" class="node">
<title>Node919</title>
<g id="a_node3"><a xlink:href="classprecice_1_1mesh_1_1Vertex.html#a94c37cf5c30d40459a3afa2f2aabe8f4" target="_top" xlink:title="precice::mesh::Vertex\l::setGlobalIndex">
<polygon fill="#ffffff" stroke="#000000" points="143,-.5 143,-30.5 256,-30.5 256,-.5 143,-.5"/>
<text text-anchor="start" x="151" y="-18.5" font-family="Helvetica,sans-Serif" font-size="10.00" fill="#000000">precice::mesh::Vertex</text>
<text text-anchor="middle" x="199.5" y="-7.5" font-family="Helvetica,sans-Serif" font-size="10.00" fill="#000000">::setGlobalIndex</text>
</a>
</g>
</g>
<!-- Node917&#45;&gt;Node919 -->
<g id="edge2" class="edge">
<title>Node917&#45;&gt;Node919</title>
<path fill="none" stroke="#191970" d="M107.036,-29.4329C115.3422,-28.1813 124.0111,-26.875 132.568,-25.5856"/>
<polygon fill="#191970" stroke="#191970" points="133.1664,-29.0351 142.5332,-24.084 132.1233,-22.1132 133.1664,-29.0351"/>
</g>
</g>
</svg>
