<?xml version="1.0" encoding="UTF-8" standalone="no"?>
<!DOCTYPE svg PUBLIC "-//W3C//DTD SVG 1.1//EN"
 "http://www.w3.org/Graphics/SVG/1.1/DTD/svg11.dtd">
<!-- Generated by graphviz version 2.40.1 (20161225.0304)
 -->
<!-- Title: src/com/Request.hpp Pages: 1 -->
<svg width="190pt" height="140pt"
 viewBox="0.00 0.00 189.50 140.00" xmlns="http://www.w3.org/2000/svg" xmlns:xlink="http://www.w3.org/1999/xlink">
<g id="graph0" class="graph" transform="scale(1 1) rotate(0) translate(4 136)">
<title>src/com/Request.hpp</title>
<polygon fill="#ffffff" stroke="transparent" points="-4,4 -4,-136 185.5,-136 185.5,4 -4,4"/>
<!-- Node0 -->
<g id="node1" class="node">
<title>Node0</title>
<polygon fill="#bfbfbf" stroke="#000000" points="17,-112.5 17,-131.5 127,-131.5 127,-112.5 17,-112.5"/>
<text text-anchor="middle" x="72" y="-119.5" font-family="Helvetica,sans-Serif" font-size="10.00" fill="#000000">src/com/Request.hpp</text>
</g>
<!-- Node1 -->
<g id="node2" class="node">
<title>Node1</title>
<polygon fill="#ffffff" stroke="#bfbfbf" points="0,-56.5 0,-75.5 44,-75.5 44,-56.5 0,-56.5"/>
<text text-anchor="middle" x="22" y="-63.5" font-family="Helvetica,sans-Serif" font-size="10.00" fill="#000000">vector</text>
</g>
<!-- Node0&#45;&gt;Node1 -->
<g id="edge1" class="edge">
<title>Node0&#45;&gt;Node1</title>
<path fill="none" stroke="#191970" d="M63.2907,-112.2455C56.1927,-104.2958 45.9916,-92.8706 37.505,-83.3656"/>
<polygon fill="#191970" stroke="#191970" points="39.8805,-80.771 30.6095,-75.6427 34.6589,-85.4331 39.8805,-80.771"/>
</g>
<!-- Node2 -->
<g id="node3" class="node">
<title>Node2</title>
<g id="a_node3"><a xlink:href="com_2SharedPointer_8hpp.html" target="_top" xlink:title="com/SharedPointer.hpp">
<polygon fill="#ffffff" stroke="#000000" points="62.5,-56.5 62.5,-75.5 181.5,-75.5 181.5,-56.5 62.5,-56.5"/>
<text text-anchor="middle" x="122" y="-63.5" font-family="Helvetica,sans-Serif" font-size="10.00" fill="#000000">com/SharedPointer.hpp</text>
</a>
</g>
</g>
<!-- Node0&#45;&gt;Node2 -->
<g id="edge2" class="edge">
<title>Node0&#45;&gt;Node2</title>
<path fill="none" stroke="#191970" d="M80.7093,-112.2455C87.8073,-104.2958 98.0084,-92.8706 106.495,-83.3656"/>
<polygon fill="#191970" stroke="#191970" points="109.3411,-85.4331 113.3905,-75.6427 104.1195,-80.771 109.3411,-85.4331"/>
</g>
<!-- Node3 -->
<g id="node4" class="node">
<title>Node3</title>
<polygon fill="#ffffff" stroke="#bfbfbf" points="96,-.5 96,-19.5 148,-19.5 148,-.5 96,-.5"/>
<text text-anchor="middle" x="122" y="-7.5" font-family="Helvetica,sans-Serif" font-size="10.00" fill="#000000">memory</text>
</g>
<!-- Node2&#45;&gt;Node3 -->
<g id="edge3" class="edge">
<title>Node2&#45;&gt;Node3</title>
<path fill="none" stroke="#191970" d="M122,-56.2455C122,-48.9382 122,-38.6944 122,-29.7046"/>
<polygon fill="#191970" stroke="#191970" points="125.5001,-29.6426 122,-19.6427 118.5001,-29.6427 125.5001,-29.6426"/>
</g>
</g>
</svg>
