<?xml version="1.0" encoding="UTF-8" standalone="no"?>
<!DOCTYPE svg PUBLIC "-//W3C//DTD SVG 1.1//EN"
 "http://www.w3.org/Graphics/SVG/1.1/DTD/svg11.dtd">
<!-- Generated by graphviz version 2.40.1 (20161225.0304)
 -->
<!-- Title: src/cplscheme/impl/ResidualRelativeConvergenceMeasure.hpp Pages: 1 -->
<!--zoomable 464 -->
<svg id="main" version="1.1" xmlns="http://www.w3.org/2000/svg" xmlns:xlink="http://www.w3.org/1999/xlink" xml:space="preserve" onload="init(evt)">
<style type="text/css"><![CDATA[
.edge:hover path { stroke: red; }
.edge:hover polygon { stroke: red; fill: red; }
]]></style>
<script type="text/javascript"><![CDATA[
var edges = document.getElementsByTagName('g');
if (edges && edges.length) {
  for (var i=0;i<edges.length;i++) {
    if (edges[i].id.substr(0,4)=='edge') {
      edges[i].setAttribute('class','edge');
    }
  }
}
]]></script>
        <defs>
                <circle id="rim" cx="0" cy="0" r="7"/>
                <circle id="rim2" cx="0" cy="0" r="3.5"/>
                <g id="zoomPlus">
                        <use xlink:href="#rim" fill="#404040">
                                <set attributeName="fill" to="#808080" begin="zoomplus.mouseover" end="zoomplus.mouseout"/>
                        </use>
                        <path d="M-4,0h8M0,-4v8" fill="none" stroke="white" stroke-width="1.5" pointer-events="none"/>
                </g>
                <g id="zoomMin">
                        <use xlink:href="#rim" fill="#404040">
                                <set attributeName="fill" to="#808080" begin="zoomminus.mouseover" end="zoomminus.mouseout"/>
                        </use>
                        <path d="M-4,0h8" fill="none" stroke="white" stroke-width="1.5" pointer-events="none"/>
                </g>
                <g id="dirArrow">
                        <path fill="none" stroke="white" stroke-width="1.5" d="M0,-3.0v7 M-2.5,-0.5L0,-3.0L2.5,-0.5"/>
                </g>
               <g id="resetDef">
                       <use xlink:href="#rim2" fill="#404040">
                               <set attributeName="fill" to="#808080" begin="reset.mouseover" end="reset.mouseout"/>
                       </use>
               </g>
        </defs>

<script type="text/javascript">
var viewWidth = 1412;
var viewHeight = 464;
var sectionId = 'dynsection-0';
</script>
<script xlink:href="svgpan.js"/>
<svg id="graph" class="graph">
<g id="viewport">
<title>src/cplscheme/impl/ResidualRelativeConvergenceMeasure.hpp</title>
<polygon fill="#ffffff" stroke="transparent" points="-4,4 -4,-460 1408.1492,-460 1408.1492,4 -4,4"/>
<!-- Node0 -->
<g id="node1" class="node">
<title>Node0</title>
<polygon fill="#bfbfbf" stroke="#000000" points="280.8069,-414.5 280.8069,-455.5 444.8069,-455.5 444.8069,-414.5 280.8069,-414.5"/>
<text text-anchor="start" x="288.8069" y="-443.5" font-family="Helvetica,sans-Serif" font-size="10.00" fill="#000000">src/cplscheme/impl</text>
<text text-anchor="start" x="288.8069" y="-432.5" font-family="Helvetica,sans-Serif" font-size="10.00" fill="#000000">/ResidualRelativeConvergence</text>
<text text-anchor="middle" x="362.8069" y="-421.5" font-family="Helvetica,sans-Serif" font-size="10.00" fill="#000000">Measure.hpp</text>
</g>
<!-- Node1 -->
<g id="node2" class="node">
<title>Node1</title>
<polygon fill="#ffffff" stroke="#bfbfbf" points="276.3069,-241 276.3069,-260 345.3069,-260 345.3069,-241 276.3069,-241"/>
<text text-anchor="middle" x="310.8069" y="-248" font-family="Helvetica,sans-Serif" font-size="10.00" fill="#000000">Eigen/Core</text>
</g>
<!-- Node0&#45;&gt;Node1 -->
<g id="edge1" class="edge">
<title>Node0&#45;&gt;Node1</title>
<path fill="none" stroke="#191970" d="M357.1164,-414.2446C349.9173,-388.0572 337.0953,-341.6478 325.8069,-302 322.8054,-291.4579 319.393,-279.7229 316.582,-270.1206"/>
<polygon fill="#191970" stroke="#191970" points="319.8927,-268.9722 313.7179,-260.3627 313.176,-270.9437 319.8927,-268.9722"/>
</g>
<!-- Node2 -->
<g id="node3" class="node">
<title>Node2</title>
<polygon fill="#ffffff" stroke="#bfbfbf" points="176.8069,-358.5 176.8069,-377.5 220.8069,-377.5 220.8069,-358.5 176.8069,-358.5"/>
<text text-anchor="middle" x="198.8069" y="-365.5" font-family="Helvetica,sans-Serif" font-size="10.00" fill="#000000">limits</text>
</g>
<!-- Node0&#45;&gt;Node2 -->
<g id="edge2" class="edge">
<title>Node0&#45;&gt;Node2</title>
<path fill="none" stroke="#191970" d="M312.2633,-414.3511C285.5816,-403.4506 253.6625,-390.4105 230.4866,-380.9423"/>
<polygon fill="#191970" stroke="#191970" points="231.7111,-377.6618 221.1301,-377.1198 229.0637,-384.1419 231.7111,-377.6618"/>
</g>
<!-- Node3 -->
<g id="node4" class="node">
<title>Node3</title>
<polygon fill="#ffffff" stroke="#bfbfbf" points="239.3069,-358.5 239.3069,-377.5 296.3069,-377.5 296.3069,-358.5 239.3069,-358.5"/>
<text text-anchor="middle" x="267.8069" y="-365.5" font-family="Helvetica,sans-Serif" font-size="10.00" fill="#000000">ostream</text>
</g>
<!-- Node0&#45;&gt;Node3 -->
<g id="edge3" class="edge">
<title>Node0&#45;&gt;Node3</title>
<path fill="none" stroke="#191970" d="M333.5286,-414.3511C319.4425,-404.4167 302.8365,-392.7051 289.841,-383.5398"/>
<polygon fill="#191970" stroke="#191970" points="291.6856,-380.5579 281.4963,-377.6546 287.6512,-386.2784 291.6856,-380.5579"/>
</g>
<!-- Node4 -->
<g id="node5" class="node">
<title>Node4</title>
<polygon fill="#ffffff" stroke="#bfbfbf" points="856.8069,-.5 856.8069,-19.5 900.8069,-19.5 900.8069,-.5 856.8069,-.5"/>
<text text-anchor="middle" x="878.8069" y="-7.5" font-family="Helvetica,sans-Serif" font-size="10.00" fill="#000000">string</text>
</g>
<!-- Node0&#45;&gt;Node4 -->
<g id="edge4" class="edge">
<title>Node0&#45;&gt;Node4</title>
<path fill="none" stroke="#191970" d="M445.1443,-433.6993C688.0549,-428.7797 1384.8069,-406.4376 1384.8069,-312 1384.8069,-312 1384.8069,-312 1384.8069,-133 1384.8069,-97.7513 1392.5031,-79.017 1365.8069,-56 1331.4075,-26.3413 1014.4142,-14.1287 911.1545,-10.9157"/>
<polygon fill="#191970" stroke="#191970" points="911.1183,-7.4131 901.0167,-10.608 910.9059,-14.4098 911.1183,-7.4131"/>
</g>
<!-- Node5 -->
<g id="node6" class="node">
<title>Node5</title>
<g id="a_node6"><a xlink:href="CouplingData_8hpp.html" target="_top" xlink:title="../CouplingData.hpp">
<polygon fill="#ffffff" stroke="#000000" points="661.3069,-358.5 661.3069,-377.5 774.3069,-377.5 774.3069,-358.5 661.3069,-358.5"/>
<text text-anchor="middle" x="717.8069" y="-365.5" font-family="Helvetica,sans-Serif" font-size="10.00" fill="#000000">../CouplingData.hpp</text>
</a>
</g>
</g>
<!-- Node0&#45;&gt;Node5 -->
<g id="edge5" class="edge">
<title>Node0&#45;&gt;Node5</title>
<path fill="none" stroke="#191970" d="M445.1433,-419.4604C509.97,-407.2256 598.8405,-390.4528 657.2575,-379.4276"/>
<polygon fill="#191970" stroke="#191970" points="658.2613,-382.8001 667.4387,-377.5061 656.963,-375.9215 658.2613,-382.8001"/>
</g>
<!-- Node8 -->
<g id="node9" class="node">
<title>Node8</title>
<g id="a_node9"><a xlink:href="Logger_8hpp.html" target="_top" xlink:title="logging/Logger.hpp">
<polygon fill="#ffffff" stroke="#000000" points="127.3069,-179.5 127.3069,-198.5 236.3069,-198.5 236.3069,-179.5 127.3069,-179.5"/>
<text text-anchor="middle" x="181.8069" y="-186.5" font-family="Helvetica,sans-Serif" font-size="10.00" fill="#000000">logging/Logger.hpp</text>
</a>
</g>
</g>
<!-- Node0&#45;&gt;Node8 -->
<g id="edge51" class="edge">
<title>Node0&#45;&gt;Node8</title>
<path fill="none" stroke="#191970" d="M280.7594,-421.167C233.9579,-411.4201 181.8744,-396.7682 167.8069,-378 129.7302,-327.1998 157.0055,-245.6075 172.7494,-208.5001"/>
<polygon fill="#191970" stroke="#191970" points="176.1583,-209.4453 177.0008,-198.884 169.7561,-206.6148 176.1583,-209.4453"/>
</g>
<!-- Node32 -->
<g id="node33" class="node">
<title>Node32</title>
<g id="a_node33"><a xlink:href="ConvergenceMeasure_8hpp.html" target="_top" xlink:title="ConvergenceMeasure.hpp">
<polygon fill="#ffffff" stroke="#000000" points="382.3069,-302.5 382.3069,-321.5 525.3069,-321.5 525.3069,-302.5 382.3069,-302.5"/>
<text text-anchor="middle" x="453.8069" y="-309.5" font-family="Helvetica,sans-Serif" font-size="10.00" fill="#000000">ConvergenceMeasure.hpp</text>
</a>
</g>
</g>
<!-- Node0&#45;&gt;Node32 -->
<g id="edge49" class="edge">
<title>Node0&#45;&gt;Node32</title>
<path fill="none" stroke="#191970" d="M378.0383,-414.4126C395.5593,-390.7303 424.0397,-352.2348 440.6399,-329.7972"/>
<polygon fill="#191970" stroke="#191970" points="443.6311,-331.6389 446.765,-321.5182 438.0037,-327.4756 443.6311,-331.6389"/>
</g>
<!-- Node33 -->
<g id="node34" class="node">
<title>Node33</title>
<g id="a_node34"><a xlink:href="differences_8hpp.html" target="_top" xlink:title="math/differences.hpp">
<polygon fill="#ffffff" stroke="#000000" points="493.8069,-358.5 493.8069,-377.5 613.8069,-377.5 613.8069,-358.5 493.8069,-358.5"/>
<text text-anchor="middle" x="553.8069" y="-365.5" font-family="Helvetica,sans-Serif" font-size="10.00" fill="#000000">math/differences.hpp</text>
</a>
</g>
</g>
<!-- Node0&#45;&gt;Node33 -->
<g id="edge52" class="edge">
<title>Node0&#45;&gt;Node33</title>
<path fill="none" stroke="#191970" d="M421.4112,-414.4425C452.664,-403.4795 490.1463,-390.3312 517.2392,-380.8274"/>
<polygon fill="#191970" stroke="#191970" points="518.4423,-384.1146 526.72,-377.5017 516.1252,-377.5092 518.4423,-384.1146"/>
</g>
<!-- Node34 -->
<g id="node35" class="node">
<title>Node34</title>
<g id="a_node35"><a xlink:href="MasterSlave_8hpp.html" target="_top" xlink:title="utils/MasterSlave.hpp">
<polygon fill="#ffffff" stroke="#000000" points="194.8069,-302.5 194.8069,-321.5 316.8069,-321.5 316.8069,-302.5 194.8069,-302.5"/>
<text text-anchor="middle" x="255.8069" y="-309.5" font-family="Helvetica,sans-Serif" font-size="10.00" fill="#000000">utils/MasterSlave.hpp</text>
</a>
</g>
</g>
<!-- Node0&#45;&gt;Node34 -->
<g id="edge55" class="edge">
<title>Node0&#45;&gt;Node34</title>
<path fill="none" stroke="#191970" d="M348.6907,-414.3125C337.468,-398.3667 321.0131,-376.0629 304.8069,-358 295.5257,-347.6554 284.2736,-336.979 274.8939,-328.5188"/>
<polygon fill="#191970" stroke="#191970" points="277.0327,-325.7375 267.2296,-321.7187 272.387,-330.9736 277.0327,-325.7375"/>
</g>
<!-- Node5&#45;&gt;Node1 -->
<g id="edge6" class="edge">
<title>Node5&#45;&gt;Node1</title>
<path fill="none" stroke="#191970" d="M697.6936,-358.3068C667.3746,-344.0544 607.8588,-317.4649 554.8069,-302 470.1973,-277.3359 445.3177,-287.3309 359.8069,-266 356.1736,-265.0937 352.4147,-264.0679 348.6689,-262.9863"/>
<polygon fill="#191970" stroke="#191970" points="349.4645,-259.5706 338.8799,-260.0361 347.4446,-266.2728 349.4645,-259.5706"/>
</g>
<!-- Node6 -->
<g id="node7" class="node">
<title>Node6</title>
<g id="a_node7"><a xlink:href="Data_8hpp.html" target="_top" xlink:title="mesh/Data.hpp">
<polygon fill="#ffffff" stroke="#000000" points="672.3069,-302.5 672.3069,-321.5 763.3069,-321.5 763.3069,-302.5 672.3069,-302.5"/>
<text text-anchor="middle" x="717.8069" y="-309.5" font-family="Helvetica,sans-Serif" font-size="10.00" fill="#000000">mesh/Data.hpp</text>
</a>
</g>
</g>
<!-- Node5&#45;&gt;Node6 -->
<g id="edge7" class="edge">
<title>Node5&#45;&gt;Node6</title>
<path fill="none" stroke="#191970" d="M717.8069,-358.2455C717.8069,-350.9382 717.8069,-340.6944 717.8069,-331.7046"/>
<polygon fill="#191970" stroke="#191970" points="721.307,-331.6426 717.8069,-321.6427 714.307,-331.6427 721.307,-331.6426"/>
</g>
<!-- Node21 -->
<g id="node22" class="node">
<title>Node21</title>
<g id="a_node22"><a xlink:href="mesh_2SharedPointer_8hpp.html" target="_top" xlink:title="mesh/SharedPointer.hpp">
<polygon fill="#ffffff" stroke="#000000" points="792.3069,-302.5 792.3069,-321.5 927.3069,-321.5 927.3069,-302.5 792.3069,-302.5"/>
<text text-anchor="middle" x="859.8069" y="-309.5" font-family="Helvetica,sans-Serif" font-size="10.00" fill="#000000">mesh/SharedPointer.hpp</text>
</a>
</g>
</g>
<!-- Node5&#45;&gt;Node21 -->
<g id="edge28" class="edge">
<title>Node5&#45;&gt;Node21</title>
<path fill="none" stroke="#191970" d="M742.2176,-358.3733C765.4211,-349.2226 800.5107,-335.3844 826.3211,-325.2057"/>
<polygon fill="#191970" stroke="#191970" points="827.6961,-328.4258 835.7148,-321.5011 825.128,-321.9139 827.6961,-328.4258"/>
</g>
<!-- Node22 -->
<g id="node23" class="node">
<title>Node22</title>
<g id="a_node23"><a xlink:href="assertion_8hpp.html" target="_top" xlink:title="utils/assertion.hpp">
<polygon fill="#ffffff" stroke="#000000" points="951.3069,-302.5 951.3069,-321.5 1058.3069,-321.5 1058.3069,-302.5 951.3069,-302.5"/>
<text text-anchor="middle" x="1004.8069" y="-309.5" font-family="Helvetica,sans-Serif" font-size="10.00" fill="#000000">utils/assertion.hpp</text>
</a>
</g>
</g>
<!-- Node5&#45;&gt;Node22 -->
<g id="edge30" class="edge">
<title>Node5&#45;&gt;Node22</title>
<path fill="none" stroke="#191970" d="M766.8179,-358.4369C816.4516,-348.7522 893.2342,-333.7703 946.0903,-323.4569"/>
<polygon fill="#191970" stroke="#191970" points="946.8535,-326.8741 955.9981,-321.5237 945.5129,-320.0036 946.8535,-326.8741"/>
</g>
<!-- Node6&#45;&gt;Node1 -->
<g id="edge8" class="edge">
<title>Node6&#45;&gt;Node1</title>
<path fill="none" stroke="#191970" d="M672.2808,-306.3697C579.2703,-294.8368 374.8948,-269.3277 359.8069,-266 355.8997,-265.1382 351.8577,-264.1028 347.8482,-262.9809"/>
<polygon fill="#191970" stroke="#191970" points="348.6263,-259.5608 338.0434,-260.064 346.6302,-266.2702 348.6263,-259.5608"/>
</g>
<!-- Node6&#45;&gt;Node4 -->
<g id="edge10" class="edge">
<title>Node6&#45;&gt;Node4</title>
<path fill="none" stroke="#191970" d="M750.0969,-302.4498C774.5394,-294.5124 808.4565,-281.9517 835.8069,-266 854.6345,-255.019 854.7109,-245.5073 873.8069,-235 918.1359,-210.6087 934.4805,-216.8943 981.8069,-199 1041.4161,-176.4615 1060.6602,-178.1661 1113.8069,-143 1143.6897,-123.2271 1157.8047,-119.9831 1171.8069,-87 1177.1909,-74.3177 1180.7619,-66.4706 1171.8069,-56 1154.9804,-36.3257 983.7687,-19.1745 911.1211,-12.724"/>
<polygon fill="#191970" stroke="#191970" points="911.415,-9.2365 901.1478,-11.8509 910.8045,-16.2098 911.415,-9.2365"/>
</g>
<!-- Node7 -->
<g id="node8" class="node">
<title>Node7</title>
<polygon fill="#ffffff" stroke="#bfbfbf" points="882.8069,-241 882.8069,-260 938.8069,-260 938.8069,-241 882.8069,-241"/>
<text text-anchor="middle" x="910.8069" y="-248" font-family="Helvetica,sans-Serif" font-size="10.00" fill="#000000">stddef.h</text>
</g>
<!-- Node6&#45;&gt;Node7 -->
<g id="edge9" class="edge">
<title>Node6&#45;&gt;Node7</title>
<path fill="none" stroke="#191970" d="M750.9731,-302.4959C781.6848,-293.5536 828.5481,-279.5482 868.8069,-266 871.1918,-265.1974 873.6452,-264.3499 876.1116,-263.4818"/>
<polygon fill="#191970" stroke="#191970" points="877.3449,-266.7578 885.5718,-260.0817 874.9773,-260.1703 877.3449,-266.7578"/>
</g>
<!-- Node6&#45;&gt;Node8 -->
<g id="edge11" class="edge">
<title>Node6&#45;&gt;Node8</title>
<path fill="none" stroke="#191970" d="M672.1188,-308.1406C595.9774,-301.2593 446.6645,-285.7245 397.8069,-266 375.9603,-257.1802 376.0999,-245.0832 354.8069,-235 320.6973,-218.8476 280.0196,-207.6685 246.6807,-200.3789"/>
<polygon fill="#191970" stroke="#191970" points="247.0934,-196.8888 236.5851,-198.2403 245.6427,-203.7368 247.0934,-196.8888"/>
</g>
<!-- Node8&#45;&gt;Node4 -->
<g id="edge13" class="edge">
<title>Node8&#45;&gt;Node4</title>
<path fill="none" stroke="#191970" d="M150.3141,-179.4445C88.4135,-159.1966 -38.8625,-109.429 11.8069,-56 41.0547,-25.1593 691.9861,-12.9527 846.241,-10.4876"/>
<polygon fill="#191970" stroke="#191970" points="846.5299,-13.9836 856.4736,-10.3269 846.4198,-6.9845 846.5299,-13.9836"/>
</g>
<!-- Node9 -->
<g id="node10" class="node">
<title>Node9</title>
<polygon fill="#ffffff" stroke="#bfbfbf" points="646.8069,-123.5 646.8069,-142.5 704.8069,-142.5 704.8069,-123.5 646.8069,-123.5"/>
<text text-anchor="middle" x="675.8069" y="-130.5" font-family="Helvetica,sans-Serif" font-size="10.00" fill="#000000">memory</text>
</g>
<!-- Node8&#45;&gt;Node9 -->
<g id="edge12" class="edge">
<title>Node8&#45;&gt;Node9</title>
<path fill="none" stroke="#191970" d="M236.4112,-180.1057C239.2481,-179.7147 242.0596,-179.3432 244.8069,-179 416.054,-157.6094 463.963,-173.4431 636.5037,-143.1983"/>
<polygon fill="#191970" stroke="#191970" points="637.1928,-146.6307 646.425,-141.4329 635.9664,-139.739 637.1928,-146.6307"/>
</g>
<!-- Node10 -->
<g id="node11" class="node">
<title>Node10</title>
<g id="a_node11"><a xlink:href="LogMacros_8hpp.html" target="_top" xlink:title="LogMacros.hpp">
<polygon fill="#ffffff" stroke="#000000" points="540.3069,-123.5 540.3069,-142.5 629.3069,-142.5 629.3069,-123.5 540.3069,-123.5"/>
<text text-anchor="middle" x="584.8069" y="-130.5" font-family="Helvetica,sans-Serif" font-size="10.00" fill="#000000">LogMacros.hpp</text>
</a>
</g>
</g>
<!-- Node8&#45;&gt;Node10 -->
<g id="edge14" class="edge">
<title>Node8&#45;&gt;Node10</title>
<path fill="none" stroke="#191970" d="M236.4309,-180.251C239.2627,-179.822 242.0677,-179.4026 244.8069,-179 345.4252,-164.2099 463.0645,-148.687 530.2658,-139.9874"/>
<polygon fill="#191970" stroke="#191970" points="530.7383,-143.4555 540.2072,-138.7026 529.8411,-136.5132 530.7383,-143.4555"/>
</g>
<!-- Node10&#45;&gt;Node4 -->
<g id="edge21" class="edge">
<title>Node10&#45;&gt;Node4</title>
<path fill="none" stroke="#191970" d="M586.7554,-123.4146C590.6608,-106.8253 601.094,-72.9185 623.8069,-56 658.6059,-30.0787 785.768,-17.1023 846.325,-12.2811"/>
<polygon fill="#191970" stroke="#191970" points="846.7761,-15.7568 856.478,-11.4998 846.2389,-8.7774 846.7761,-15.7568"/>
</g>
<!-- Node11 -->
<g id="node12" class="node">
<title>Node11</title>
<polygon fill="#ffffff" stroke="#bfbfbf" points="740.8069,-56.5 740.8069,-86.5 850.8069,-86.5 850.8069,-56.5 740.8069,-56.5"/>
<text text-anchor="start" x="748.8069" y="-74.5" font-family="Helvetica,sans-Serif" font-size="10.00" fill="#000000">boost/preprocessor</text>
<text text-anchor="middle" x="795.8069" y="-63.5" font-family="Helvetica,sans-Serif" font-size="10.00" fill="#000000">/control/if.hpp</text>
</g>
<!-- Node10&#45;&gt;Node11 -->
<g id="edge15" class="edge">
<title>Node10&#45;&gt;Node11</title>
<path fill="none" stroke="#191970" d="M617.7757,-123.3906C648.8438,-114.3352 696.1771,-100.539 734.2297,-89.4479"/>
<polygon fill="#191970" stroke="#191970" points="735.5694,-92.7031 744.1905,-86.5446 733.6106,-85.9827 735.5694,-92.7031"/>
</g>
<!-- Node12 -->
<g id="node13" class="node">
<title>Node12</title>
<polygon fill="#ffffff" stroke="#bfbfbf" points="144.8069,-56.5 144.8069,-86.5 260.8069,-86.5 260.8069,-56.5 144.8069,-56.5"/>
<text text-anchor="start" x="152.8069" y="-74.5" font-family="Helvetica,sans-Serif" font-size="10.00" fill="#000000">boost/preprocessor</text>
<text text-anchor="middle" x="202.8069" y="-63.5" font-family="Helvetica,sans-Serif" font-size="10.00" fill="#000000">/facilities/empty.hpp</text>
</g>
<!-- Node10&#45;&gt;Node12 -->
<g id="edge16" class="edge">
<title>Node10&#45;&gt;Node12</title>
<path fill="none" stroke="#191970" d="M540.274,-127.6706C480.9921,-120.3177 372.7056,-105.9879 270.7,-87.0799"/>
<polygon fill="#191970" stroke="#191970" points="271.3233,-83.6358 260.8499,-85.2359 270.0351,-90.5163 271.3233,-83.6358"/>
</g>
<!-- Node13 -->
<g id="node14" class="node">
<title>Node13</title>
<polygon fill="#ffffff" stroke="#bfbfbf" points="907.3069,-56.5 907.3069,-86.5 1018.3069,-86.5 1018.3069,-56.5 907.3069,-56.5"/>
<text text-anchor="start" x="915.3069" y="-74.5" font-family="Helvetica,sans-Serif" font-size="10.00" fill="#000000">boost/preprocessor</text>
<text text-anchor="middle" x="962.8069" y="-63.5" font-family="Helvetica,sans-Serif" font-size="10.00" fill="#000000">/seq/for_each_i.hpp</text>
</g>
<!-- Node10&#45;&gt;Node13 -->
<g id="edge17" class="edge">
<title>Node10&#45;&gt;Node13</title>
<path fill="none" stroke="#191970" d="M629.3227,-124.5028C632.1922,-123.9853 635.0391,-123.4803 637.8069,-123 727.4326,-107.4471 831.3007,-91.3175 897.0193,-81.3458"/>
<polygon fill="#191970" stroke="#191970" points="897.868,-84.7573 907.2311,-79.7993 896.8198,-77.8362 897.868,-84.7573"/>
</g>
<!-- Node14 -->
<g id="node15" class="node">
<title>Node14</title>
<polygon fill="#ffffff" stroke="#bfbfbf" points="1036.8069,-56.5 1036.8069,-86.5 1146.8069,-86.5 1146.8069,-56.5 1036.8069,-56.5"/>
<text text-anchor="start" x="1044.8069" y="-74.5" font-family="Helvetica,sans-Serif" font-size="10.00" fill="#000000">boost/preprocessor</text>
<text text-anchor="middle" x="1091.8069" y="-63.5" font-family="Helvetica,sans-Serif" font-size="10.00" fill="#000000">/stringize.hpp</text>
</g>
<!-- Node10&#45;&gt;Node14 -->
<g id="edge18" class="edge">
<title>Node10&#45;&gt;Node14</title>
<path fill="none" stroke="#191970" d="M629.5773,-124.2451C632.3577,-123.7968 635.1177,-123.377 637.8069,-123 806.9932,-99.2844 854.3489,-114.9556 1026.835,-87.0044"/>
<polygon fill="#191970" stroke="#191970" points="1027.4549,-90.4495 1036.7536,-85.3718 1026.3179,-83.5425 1027.4549,-90.4495"/>
</g>
<!-- Node15 -->
<g id="node16" class="node">
<title>Node15</title>
<polygon fill="#ffffff" stroke="#bfbfbf" points="1241.3069,-56.5 1241.3069,-86.5 1356.3069,-86.5 1356.3069,-56.5 1241.3069,-56.5"/>
<text text-anchor="start" x="1249.3069" y="-74.5" font-family="Helvetica,sans-Serif" font-size="10.00" fill="#000000">boost/preprocessor</text>
<text text-anchor="middle" x="1298.8069" y="-63.5" font-family="Helvetica,sans-Serif" font-size="10.00" fill="#000000">/variadic/to_seq.hpp</text>
</g>
<!-- Node10&#45;&gt;Node15 -->
<g id="edge19" class="edge">
<title>Node10&#45;&gt;Node15</title>
<path fill="none" stroke="#191970" d="M629.5676,-124.1731C632.3504,-123.7428 635.1136,-123.3465 637.8069,-123 866.6984,-93.5556 925.9362,-107.4381 1155.8069,-87 1180.4008,-84.8133 1207.3287,-82.0036 1231.119,-79.3782"/>
<polygon fill="#191970" stroke="#191970" points="1231.5552,-82.8514 1241.1067,-78.2667 1230.781,-75.8943 1231.5552,-82.8514"/>
</g>
<!-- Node16 -->
<g id="node17" class="node">
<title>Node16</title>
<polygon fill="#ffffff" stroke="#bfbfbf" points="278.8069,-62 278.8069,-81 414.8069,-81 414.8069,-62 278.8069,-62"/>
<text text-anchor="middle" x="346.8069" y="-69" font-family="Helvetica,sans-Serif" font-size="10.00" fill="#000000">boost/vmd/is_empty.hpp</text>
</g>
<!-- Node10&#45;&gt;Node16 -->
<g id="edge20" class="edge">
<title>Node10&#45;&gt;Node16</title>
<path fill="none" stroke="#191970" d="M547.8805,-123.4581C506.3667,-112.7308 438.8704,-95.2895 393.6716,-83.61"/>
<polygon fill="#191970" stroke="#191970" points="394.3776,-80.1775 383.8199,-81.0643 392.6262,-86.9549 394.3776,-80.1775"/>
</g>
<!-- Node17 -->
<g id="node18" class="node">
<title>Node17</title>
<g id="a_node18"><a xlink:href="Tracer_8hpp.html" target="_top" xlink:title="logging/Tracer.hpp">
<polygon fill="#ffffff" stroke="#000000" points="21.3069,-62 21.3069,-81 126.3069,-81 126.3069,-62 21.3069,-62"/>
<text text-anchor="middle" x="73.8069" y="-69" font-family="Helvetica,sans-Serif" font-size="10.00" fill="#000000">logging/Tracer.hpp</text>
</a>
</g>
</g>
<!-- Node10&#45;&gt;Node17 -->
<g id="edge22" class="edge">
<title>Node10&#45;&gt;Node17</title>
<path fill="none" stroke="#191970" d="M540.2252,-130.5495C459.2138,-125.6279 282.6466,-112.7409 135.8069,-87 130.066,-85.9936 124.0706,-84.7476 118.1667,-83.4027"/>
<polygon fill="#191970" stroke="#191970" points="118.9175,-79.9837 108.3786,-81.0707 117.2952,-86.7931 118.9175,-79.9837"/>
</g>
<!-- Node18 -->
<g id="node19" class="node">
<title>Node18</title>
<polygon fill="#ffffff" stroke="#bfbfbf" points="432.8069,-62 432.8069,-81 576.8069,-81 576.8069,-62 432.8069,-62"/>
<text text-anchor="middle" x="504.8069" y="-69" font-family="Helvetica,sans-Serif" font-size="10.00" fill="#000000">prettyprint/prettyprint.hpp</text>
</g>
<!-- Node10&#45;&gt;Node18 -->
<g id="edge24" class="edge">
<title>Node10&#45;&gt;Node18</title>
<path fill="none" stroke="#191970" d="M572.3069,-123.3906C559.7434,-113.7324 540.1646,-98.6812 525.322,-87.271"/>
<polygon fill="#191970" stroke="#191970" points="527.2804,-84.3618 517.2191,-81.0419 523.0141,-89.9115 527.2804,-84.3618"/>
</g>
<!-- Node19 -->
<g id="node20" class="node">
<title>Node19</title>
<g id="a_node20"><a xlink:href="String_8hpp.html" target="_top" xlink:title="utils/String.hpp">
<polygon fill="#ffffff" stroke="#000000" points="632.8069,-62 632.8069,-81 722.8069,-81 722.8069,-62 632.8069,-62"/>
<text text-anchor="middle" x="677.8069" y="-69" font-family="Helvetica,sans-Serif" font-size="10.00" fill="#000000">utils/String.hpp</text>
</a>
</g>
</g>
<!-- Node10&#45;&gt;Node19 -->
<g id="edge25" class="edge">
<title>Node10&#45;&gt;Node19</title>
<path fill="none" stroke="#191970" d="M599.3382,-123.3906C614.2163,-113.5519 637.5573,-98.1167 654.9197,-86.6351"/>
<polygon fill="#191970" stroke="#191970" points="656.9671,-89.4773 663.3777,-81.0419 653.1059,-83.6385 656.9671,-89.4773"/>
</g>
<!-- Node17&#45;&gt;Node8 -->
<g id="edge23" class="edge">
<title>Node17&#45;&gt;Node8</title>
<path fill="none" stroke="#191970" d="M82.7671,-81.2484C101.0677,-101.1587 142.9471,-146.722 165.952,-171.7505"/>
<polygon fill="#191970" stroke="#191970" points="163.6247,-174.3905 172.9688,-179.3845 168.7785,-169.6535 163.6247,-174.3905"/>
</g>
<!-- Node19&#45;&gt;Node4 -->
<g id="edge27" class="edge">
<title>Node19&#45;&gt;Node4</title>
<path fill="none" stroke="#191970" d="M709.2132,-61.8906C746.656,-50.4342 808.8986,-31.3899 846.6634,-19.8349"/>
<polygon fill="#191970" stroke="#191970" points="848.0866,-23.0597 856.625,-16.787 846.0385,-16.366 848.0866,-23.0597"/>
</g>
<!-- Node20 -->
<g id="node21" class="node">
<title>Node20</title>
<polygon fill="#ffffff" stroke="#bfbfbf" points="1156.8069,-.5 1156.8069,-19.5 1212.8069,-19.5 1212.8069,-.5 1156.8069,-.5"/>
<text text-anchor="middle" x="1184.8069" y="-7.5" font-family="Helvetica,sans-Serif" font-size="10.00" fill="#000000">sstream</text>
</g>
<!-- Node19&#45;&gt;Node20 -->
<g id="edge26" class="edge">
<title>Node19&#45;&gt;Node20</title>
<path fill="none" stroke="#191970" d="M707.5678,-61.93C715.3867,-59.6996 723.8577,-57.5318 731.8069,-56 883.5991,-26.7506 1067.8189,-15.3457 1146.3533,-11.5906"/>
<polygon fill="#191970" stroke="#191970" points="1146.8917,-15.0695 1156.719,-11.1104 1146.5677,-8.077 1146.8917,-15.0695"/>
</g>
<!-- Node21&#45;&gt;Node9 -->
<g id="edge29" class="edge">
<title>Node21&#45;&gt;Node9</title>
<path fill="none" stroke="#191970" d="M897.4889,-302.3393C916.0782,-295.4646 936.8221,-284.137 947.8069,-266 954.9444,-254.2151 953.1909,-247.6823 947.8069,-235 933.8047,-202.0169 921.4264,-195.8571 889.8069,-179 833.7711,-149.126 759.7087,-138.6527 715.0291,-134.9813"/>
<polygon fill="#191970" stroke="#191970" points="715.1072,-131.4775 704.8743,-134.223 714.5859,-138.458 715.1072,-131.4775"/>
</g>
<!-- Node22&#45;&gt;Node11 -->
<g id="edge35" class="edge">
<title>Node22&#45;&gt;Node11</title>
<path fill="none" stroke="#191970" d="M1000.2828,-302.2064C993.2309,-287.2683 978.8578,-258.092 963.8069,-235 946.5235,-208.4828 941.6418,-201.9153 919.8069,-179 889.1254,-146.8004 849.7541,-113.8978 823.6994,-93.1226"/>
<polygon fill="#191970" stroke="#191970" points="825.7493,-90.2815 815.7359,-86.8198 821.4051,-95.7704 825.7493,-90.2815"/>
</g>
<!-- Node22&#45;&gt;Node13 -->
<g id="edge37" class="edge">
<title>Node22&#45;&gt;Node13</title>
<path fill="none" stroke="#191970" d="M1058.6694,-304.3213C1102.0495,-296.9044 1158.0024,-284.121 1171.8069,-266 1180.1561,-255.0401 1176.4514,-247.9713 1171.8069,-235 1150.0914,-174.3521 1131.1327,-161.9281 1079.8069,-123 1068.2996,-114.2723 1038.2504,-101.1071 1011.4877,-90.2727"/>
<polygon fill="#191970" stroke="#191970" points="1012.7787,-87.0195 1002.1943,-86.5487 1010.1749,-93.5172 1012.7787,-87.0195"/>
</g>
<!-- Node22&#45;&gt;Node14 -->
<g id="edge38" class="edge">
<title>Node22&#45;&gt;Node14</title>
<path fill="none" stroke="#191970" d="M1058.6487,-305.7812C1106.7478,-298.9863 1171.994,-286.2796 1187.8069,-266 1231.4221,-210.0646 1158.8826,-131.1441 1117.5054,-93.3447"/>
<polygon fill="#191970" stroke="#191970" points="1119.7181,-90.628 1109.933,-86.5659 1115.0492,-95.8435 1119.7181,-90.628"/>
</g>
<!-- Node22&#45;&gt;Node15 -->
<g id="edge39" class="edge">
<title>Node22&#45;&gt;Node15</title>
<path fill="none" stroke="#191970" d="M1058.5647,-305.2357C1110.7008,-297.7364 1185.151,-284.2465 1207.8069,-266 1262.1613,-222.2242 1285.6829,-138.4631 1294.3996,-96.6055"/>
<polygon fill="#191970" stroke="#191970" points="1297.8559,-97.1684 1296.35,-86.6811 1290.9873,-95.8185 1297.8559,-97.1684"/>
</g>
<!-- Node22&#45;&gt;Node20 -->
<g id="edge33" class="edge">
<title>Node22&#45;&gt;Node20</title>
<path fill="none" stroke="#191970" d="M1058.3746,-305.2774C1116.8351,-297.2554 1206.0804,-282.7982 1235.8069,-266 1329.4826,-213.0647 1359.9657,-187.3426 1398.8069,-87 1403.7805,-74.1512 1407.4653,-66.7173 1398.8069,-56 1377.1569,-29.2017 1278.8254,-17.2887 1223.2935,-12.6185"/>
<polygon fill="#191970" stroke="#191970" points="1223.3694,-9.1134 1213.1219,-11.8037 1222.8105,-16.0911 1223.3694,-9.1134"/>
</g>
<!-- Node23 -->
<g id="node24" class="node">
<title>Node23</title>
<polygon fill="#ffffff" stroke="#bfbfbf" points="1032.8069,-241 1032.8069,-260 1084.8069,-260 1084.8069,-241 1032.8069,-241"/>
<text text-anchor="middle" x="1058.8069" y="-248" font-family="Helvetica,sans-Serif" font-size="10.00" fill="#000000">cassert</text>
</g>
<!-- Node22&#45;&gt;Node23 -->
<g id="edge31" class="edge">
<title>Node22&#45;&gt;Node23</title>
<path fill="none" stroke="#191970" d="M1013.2444,-302.3906C1021.36,-293.1478 1033.8124,-278.966 1043.6493,-267.7628"/>
<polygon fill="#191970" stroke="#191970" points="1046.2824,-270.0686 1050.2504,-260.2449 1041.0223,-265.45 1046.2824,-270.0686"/>
</g>
<!-- Node24 -->
<g id="node25" class="node">
<title>Node24</title>
<polygon fill="#ffffff" stroke="#bfbfbf" points="1102.8069,-241 1102.8069,-260 1162.8069,-260 1162.8069,-241 1102.8069,-241"/>
<text text-anchor="middle" x="1132.8069" y="-248" font-family="Helvetica,sans-Serif" font-size="10.00" fill="#000000">iostream</text>
</g>
<!-- Node22&#45;&gt;Node24 -->
<g id="edge32" class="edge">
<title>Node22&#45;&gt;Node24</title>
<path fill="none" stroke="#191970" d="M1024.8069,-302.3906C1046.0358,-292.1908 1079.7832,-275.9763 1103.9029,-264.3875"/>
<polygon fill="#191970" stroke="#191970" points="1105.4495,-267.5275 1112.9473,-260.0419 1102.418,-261.2179 1105.4495,-267.5275"/>
</g>
<!-- Node25 -->
<g id="node26" class="node">
<title>Node25</title>
<polygon fill="#ffffff" stroke="#bfbfbf" points="440.3069,-241 440.3069,-260 587.3069,-260 587.3069,-241 440.3069,-241"/>
<text text-anchor="middle" x="513.8069" y="-248" font-family="Helvetica,sans-Serif" font-size="10.00" fill="#000000">boost/current_function.hpp</text>
</g>
<!-- Node22&#45;&gt;Node25 -->
<g id="edge34" class="edge">
<title>Node22&#45;&gt;Node25</title>
<path fill="none" stroke="#191970" d="M951.0127,-303.8837C946.2122,-303.2216 941.4238,-302.5837 936.8069,-302 786.051,-282.9418 747.1669,-287.9647 596.8069,-266 588.4666,-264.7816 579.6856,-263.3286 571.0827,-261.8078"/>
<polygon fill="#191970" stroke="#191970" points="571.5659,-258.3385 561.1024,-260.0014 570.3192,-265.2266 571.5659,-258.3385"/>
</g>
<!-- Node26 -->
<g id="node27" class="node">
<title>Node26</title>
<polygon fill="#ffffff" stroke="#bfbfbf" points="605.3069,-235.5 605.3069,-265.5 734.3069,-265.5 734.3069,-235.5 605.3069,-235.5"/>
<text text-anchor="start" x="613.3069" y="-253.5" font-family="Helvetica,sans-Serif" font-size="10.00" fill="#000000">boost/preprocessor</text>
<text text-anchor="middle" x="669.8069" y="-242.5" font-family="Helvetica,sans-Serif" font-size="10.00" fill="#000000">/facilities/is_empty.hpp</text>
</g>
<!-- Node22&#45;&gt;Node26 -->
<g id="edge36" class="edge">
<title>Node22&#45;&gt;Node26</title>
<path fill="none" stroke="#191970" d="M951.2289,-303.073C900.5696,-294.5158 822.1722,-280.9737 744.3378,-266.0673"/>
<polygon fill="#191970" stroke="#191970" points="744.8374,-262.5993 734.3563,-264.1474 743.5152,-269.4733 744.8374,-262.5993"/>
</g>
<!-- Node27 -->
<g id="node28" class="node">
<title>Node27</title>
<g id="a_node28"><a xlink:href="Parallel_8hpp.html" target="_top" xlink:title="Parallel.hpp">
<polygon fill="#ffffff" stroke="#000000" points="752.8069,-241 752.8069,-260 826.8069,-260 826.8069,-241 752.8069,-241"/>
<text text-anchor="middle" x="789.8069" y="-248" font-family="Helvetica,sans-Serif" font-size="10.00" fill="#000000">Parallel.hpp</text>
</a>
</g>
</g>
<!-- Node22&#45;&gt;Node27 -->
<g id="edge40" class="edge">
<title>Node22&#45;&gt;Node27</title>
<path fill="none" stroke="#191970" d="M971.2132,-302.3906C933.8986,-291.7169 873.5577,-274.4566 832.8183,-262.8033"/>
<polygon fill="#191970" stroke="#191970" points="833.7417,-259.4271 823.1648,-260.0419 831.8166,-266.1572 833.7417,-259.4271"/>
</g>
<!-- Node31 -->
<g id="node32" class="node">
<title>Node31</title>
<g id="a_node32"><a xlink:href="stacktrace_8hpp.html" target="_top" xlink:title="stacktrace.hpp">
<polygon fill="#ffffff" stroke="#000000" points="981.3069,-123.5 981.3069,-142.5 1070.3069,-142.5 1070.3069,-123.5 981.3069,-123.5"/>
<text text-anchor="middle" x="1025.8069" y="-130.5" font-family="Helvetica,sans-Serif" font-size="10.00" fill="#000000">stacktrace.hpp</text>
</a>
</g>
</g>
<!-- Node22&#45;&gt;Node31 -->
<g id="edge47" class="edge">
<title>Node22&#45;&gt;Node31</title>
<path fill="none" stroke="#191970" d="M951.0328,-303.7127C946.2281,-303.0871 941.4332,-302.5043 936.8069,-302 880.8847,-295.9035 470.1438,-307.1672 431.8069,-266 355.6962,-184.2704 810.1646,-146.8366 970.977,-136.2666"/>
<polygon fill="#191970" stroke="#191970" points="971.383,-139.7477 981.136,-135.609 970.9308,-132.7623 971.383,-139.7477"/>
</g>
<!-- Node27&#45;&gt;Node4 -->
<g id="edge43" class="edge">
<title>Node27&#45;&gt;Node4</title>
<path fill="none" stroke="#191970" d="M818.5837,-240.9801C882.1332,-219.7722 1032.5571,-168.5072 1079.8069,-143 1116.7277,-123.0688 1136.8843,-124.4477 1155.8069,-87 1162.0207,-74.703 1164.7156,-66.5101 1155.8069,-56 1140.0664,-37.43 980.2508,-19.8339 910.7746,-12.9973"/>
<polygon fill="#191970" stroke="#191970" points="911.1123,-9.5137 900.8208,-12.0309 910.4357,-16.481 911.1123,-9.5137"/>
</g>
<!-- Node27&#45;&gt;Node8 -->
<g id="edge45" class="edge">
<title>Node27&#45;&gt;Node8</title>
<path fill="none" stroke="#191970" d="M765.2925,-240.9633C758.4347,-238.6475 750.912,-236.4293 743.8069,-235 529.0128,-191.7913 467.4948,-223.493 246.3721,-199.0846"/>
<polygon fill="#191970" stroke="#191970" points="246.7332,-195.6032 236.4035,-197.9584 245.9473,-202.559 246.7332,-195.6032"/>
</g>
<!-- Node27&#45;&gt;Node9 -->
<g id="edge42" class="edge">
<title>Node27&#45;&gt;Node9</title>
<path fill="none" stroke="#191970" d="M759.9538,-240.9912C739.1802,-232.9243 712.3439,-219.37 695.8069,-199 685.0889,-185.7977 680.1075,-166.9292 677.7964,-152.7457"/>
<polygon fill="#191970" stroke="#191970" points="681.2326,-152.0304 676.4569,-142.573 674.2925,-152.9444 681.2326,-152.0304"/>
</g>
<!-- Node28 -->
<g id="node29" class="node">
<title>Node28</title>
<polygon fill="#ffffff" stroke="#bfbfbf" points="704.3069,-179.5 704.3069,-198.5 753.3069,-198.5 753.3069,-179.5 704.3069,-179.5"/>
<text text-anchor="middle" x="728.8069" y="-186.5" font-family="Helvetica,sans-Serif" font-size="10.00" fill="#000000">iosfwd</text>
</g>
<!-- Node27&#45;&gt;Node28 -->
<g id="edge41" class="edge">
<title>Node27&#45;&gt;Node28</title>
<path fill="none" stroke="#191970" d="M780.2757,-240.8906C771.019,-231.5581 756.7679,-217.1902 745.6066,-205.9374"/>
<polygon fill="#191970" stroke="#191970" points="747.9997,-203.38 738.4725,-198.7449 743.0297,-208.3095 747.9997,-203.38"/>
</g>
<!-- Node29 -->
<g id="node30" class="node">
<title>Node29</title>
<polygon fill="#ffffff" stroke="#bfbfbf" points="771.3069,-179.5 771.3069,-198.5 818.3069,-198.5 818.3069,-179.5 771.3069,-179.5"/>
<text text-anchor="middle" x="794.8069" y="-186.5" font-family="Helvetica,sans-Serif" font-size="10.00" fill="#000000">vector</text>
</g>
<!-- Node27&#45;&gt;Node29 -->
<g id="edge44" class="edge">
<title>Node27&#45;&gt;Node29</title>
<path fill="none" stroke="#191970" d="M790.5882,-240.8906C791.2812,-232.3657 792.3159,-219.6392 793.1871,-208.9235"/>
<polygon fill="#191970" stroke="#191970" points="796.6927,-208.9956 794.0146,-198.7449 789.7157,-208.4283 796.6927,-208.9956"/>
</g>
<!-- Node30 -->
<g id="node31" class="node">
<title>Node30</title>
<polygon fill="#ffffff" stroke="#bfbfbf" points="836.8069,-179.5 836.8069,-198.5 880.8069,-198.5 880.8069,-179.5 836.8069,-179.5"/>
<text text-anchor="middle" x="858.8069" y="-186.5" font-family="Helvetica,sans-Serif" font-size="10.00" fill="#000000">mpi.h</text>
</g>
<!-- Node27&#45;&gt;Node30 -->
<g id="edge46" class="edge">
<title>Node27&#45;&gt;Node30</title>
<path fill="none" stroke="#191970" d="M800.5882,-240.8906C811.1595,-231.4683 827.4894,-216.9134 840.1672,-205.6137"/>
<polygon fill="#191970" stroke="#191970" points="842.7373,-208.0114 847.8736,-198.7449 838.0797,-202.7858 842.7373,-208.0114"/>
</g>
<!-- Node31&#45;&gt;Node4 -->
<g id="edge48" class="edge">
<title>Node31&#45;&gt;Node4</title>
<path fill="none" stroke="#191970" d="M987.815,-123.4439C955.02,-114.4657 911.0441,-100.4368 898.8069,-87 884.5411,-71.3357 880.1907,-46.7966 878.995,-29.6429"/>
<polygon fill="#191970" stroke="#191970" points="882.4904,-29.456 878.5924,-19.6044 875.4961,-29.7366 882.4904,-29.456"/>
</g>
<!-- Node32&#45;&gt;Node1 -->
<g id="edge50" class="edge">
<title>Node32&#45;&gt;Node1</title>
<path fill="none" stroke="#191970" d="M431.4632,-302.3906C407.5366,-292.1005 369.376,-275.6888 342.3853,-264.0809"/>
<polygon fill="#191970" stroke="#191970" points="343.563,-260.7775 332.9938,-260.0419 340.7974,-267.208 343.563,-260.7775"/>
</g>
<!-- Node33&#45;&gt;Node1 -->
<g id="edge53" class="edge">
<title>Node33&#45;&gt;Node1</title>
<path fill="none" stroke="#191970" d="M553.9545,-358.3387C553.6181,-343.8799 550.7342,-316.7397 534.8069,-302 476.5273,-248.0661 436.6531,-286.0011 359.8069,-266 356.2289,-265.0687 352.5254,-264.0328 348.8307,-262.9506"/>
<polygon fill="#191970" stroke="#191970" points="349.7492,-259.5718 339.1638,-260.0176 347.7168,-266.2703 349.7492,-259.5718"/>
</g>
<!-- Node33&#45;&gt;Node22 -->
<g id="edge54" class="edge">
<title>Node33&#45;&gt;Node22</title>
<path fill="none" stroke="#191970" d="M613.9045,-361.2804C689.3749,-352.7272 822.7967,-337.227 936.8069,-322 938.1042,-321.8267 939.4152,-321.65 940.7363,-321.4703"/>
<polygon fill="#191970" stroke="#191970" points="941.5792,-324.887 951.0036,-320.0465 940.6176,-317.9533 941.5792,-324.887"/>
</g>
<!-- Node34&#45;&gt;Node1 -->
<g id="edge56" class="edge">
<title>Node34&#45;&gt;Node1</title>
<path fill="none" stroke="#191970" d="M264.4007,-302.3906C272.6666,-293.1478 285.3495,-278.966 295.3686,-267.7628"/>
<polygon fill="#191970" stroke="#191970" points="298.0347,-270.0321 302.092,-260.2449 292.8169,-265.3657 298.0347,-270.0321"/>
</g>
<!-- Node34&#45;&gt;Node8 -->
<g id="edge59" class="edge">
<title>Node34&#45;&gt;Node8</title>
<path fill="none" stroke="#191970" d="M250.0002,-302.3484C237.6801,-281.8703 208.7489,-233.782 192.8144,-207.2962"/>
<polygon fill="#191970" stroke="#191970" points="195.7409,-205.3712 187.5866,-198.6068 189.7428,-208.9799 195.7409,-205.3712"/>
</g>
<!-- Node35 -->
<g id="node36" class="node">
<title>Node35</title>
<g id="a_node36"><a xlink:href="com_2SharedPointer_8hpp.html" target="_top" xlink:title="com/SharedPointer.hpp">
<polygon fill="#ffffff" stroke="#000000" points="254.3069,-179.5 254.3069,-198.5 383.3069,-198.5 383.3069,-179.5 254.3069,-179.5"/>
<text text-anchor="middle" x="318.8069" y="-186.5" font-family="Helvetica,sans-Serif" font-size="10.00" fill="#000000">com/SharedPointer.hpp</text>
</a>
</g>
</g>
<!-- Node34&#45;&gt;Node35 -->
<g id="edge57" class="edge">
<title>Node34&#45;&gt;Node35</title>
<path fill="none" stroke="#191970" d="M255.1309,-302.3444C254.4946,-287.0823 255.0208,-256.8737 266.8069,-235 273.3283,-222.897 284.3615,-212.4472 294.5913,-204.5801"/>
<polygon fill="#191970" stroke="#191970" points="296.8178,-207.2896 302.8787,-198.5996 292.7215,-201.6132 296.8178,-207.2896"/>
</g>
<!-- Node35&#45;&gt;Node9 -->
<g id="edge58" class="edge">
<title>Node35&#45;&gt;Node9</title>
<path fill="none" stroke="#191970" d="M383.5989,-180.6314C458.1103,-170.8513 576.9633,-154.7353 636.7031,-143.2182"/>
<polygon fill="#191970" stroke="#191970" points="637.684,-146.5913 646.802,-141.1958 636.3094,-139.7276 637.684,-146.5913"/>
</g>
</g>
</svg>
        <g id="navigator" transform="translate(0 0)" fill="#404254">
                <rect fill="#f2f5e9" fill-opacity="0.5" stroke="#606060" stroke-width=".5" x="0" y="0" width="60" height="60"/>
                <use id="zoomplus" xlink:href="#zoomPlus" x="17" y="9" onmousedown="handleZoom(evt,'in')"/>
                <use id="zoomminus" xlink:href="#zoomMin" x="42" y="9" onmousedown="handleZoom(evt,'out')"/>
                <use id="reset" xlink:href="#resetDef" x="30" y="36" onmousedown="handleReset()"/>
                <g id="arrowUp" xlink:href="#dirArrow" transform="translate(30 24)" onmousedown="handlePan(0,-1)">
                  <use xlink:href="#rim" fill="#404040">
                        <set attributeName="fill" to="#808080" begin="arrowUp.mouseover" end="arrowUp.mouseout"/>
                  </use>
                  <path fill="none" stroke="white" stroke-width="1.5" d="M0,-3.0v7 M-2.5,-0.5L0,-3.0L2.5,-0.5"/>
                </g>
                <g id="arrowRight" xlink:href="#dirArrow" transform="rotate(90) translate(36 -43)" onmousedown="handlePan(1,0)">
                  <use xlink:href="#rim" fill="#404040">
                        <set attributeName="fill" to="#808080" begin="arrowRight.mouseover" end="arrowRight.mouseout"/>
                  </use>
                  <path fill="none" stroke="white" stroke-width="1.5" d="M0,-3.0v7 M-2.5,-0.5L0,-3.0L2.5,-0.5"/>
                </g>
                <g id="arrowDown" xlink:href="#dirArrow" transform="rotate(180) translate(-30 -48)" onmousedown="handlePan(0,1)">
                  <use xlink:href="#rim" fill="#404040">
                        <set attributeName="fill" to="#808080" begin="arrowDown.mouseover" end="arrowDown.mouseout"/>
                  </use>
                  <path fill="none" stroke="white" stroke-width="1.5" d="M0,-3.0v7 M-2.5,-0.5L0,-3.0L2.5,-0.5"/>
                </g>
                <g id="arrowLeft" xlink:href="#dirArrow" transform="rotate(270) translate(-36 17)" onmousedown="handlePan(-1,0)">
                  <use xlink:href="#rim" fill="#404040">
                        <set attributeName="fill" to="#808080" begin="arrowLeft.mouseover" end="arrowLeft.mouseout"/>
                  </use>
                  <path fill="none" stroke="white" stroke-width="1.5" d="M0,-3.0v7 M-2.5,-0.5L0,-3.0L2.5,-0.5"/>
                </g>
        </g>
        <svg viewBox="0 0 15 15" width="100%" height="30px" preserveAspectRatio="xMaxYMin meet">
         <g id="arrow_out" transform="scale(0.3 0.3)">
          <a xlink:href="ResidualRelativeConvergenceMeasure_8hpp__incl_org.svg" target="_base">
           <rect id="button" ry="5" rx="5" y="6" x="6" height="38" width="38"
                fill="#f2f5e9" fill-opacity="0.5" stroke="#606060" stroke-width="1.0"/>
           <path id="arrow"
             d="M 11.500037,31.436501 C 11.940474,20.09759 22.043105,11.32322 32.158766,21.979434 L 37.068811,17.246167 C 37.068811,17.246167 37.088388,32 37.088388,32 L 22.160133,31.978069 C 22.160133,31.978069 26.997745,27.140456 26.997745,27.140456 C 18.528582,18.264221 13.291696,25.230495 11.500037,31.436501 z"
             style="fill:#404040;"/>
          </a>
         </g>
        </svg>
</svg>
