<?xml version="1.0" encoding="UTF-8" standalone="no"?>
<!DOCTYPE svg PUBLIC "-//W3C//DTD SVG 1.1//EN"
 "http://www.w3.org/Graphics/SVG/1.1/DTD/svg11.dtd">
<!-- Generated by graphviz version 2.40.1 (20161225.0304)
 -->
<!-- Title: BOOST_AUTO_TEST_CASE Pages: 1 -->
<svg width="649pt" height="181pt"
 viewBox="0.00 0.00 649.00 180.50" xmlns="http://www.w3.org/2000/svg" xmlns:xlink="http://www.w3.org/1999/xlink">
<g id="graph0" class="graph" transform="scale(1 1) rotate(0) translate(4 176.5)">
<title>BOOST_AUTO_TEST_CASE</title>
<polygon fill="#ffffff" stroke="transparent" points="-4,4 -4,-176.5 645,-176.5 645,4 -4,4"/>
<!-- Node61 -->
<g id="node1" class="node">
<title>Node61</title>
<polygon fill="#bfbfbf" stroke="#000000" points="0,-65.5 0,-84.5 148,-84.5 148,-65.5 0,-65.5"/>
<text text-anchor="middle" x="74" y="-72.5" font-family="Helvetica,sans-Serif" font-size="10.00" fill="#000000">BOOST_AUTO_TEST_CASE</text>
</g>
<!-- Node62 -->
<g id="node2" class="node">
<title>Node62</title>
<g id="a_node2"><a xlink:href="classprecice_1_1mesh_1_1rtree.html#ac6dfbccfdc0f44db236c6f08276a6beb" target="_top" xlink:title="Returns the pointer to boost::geometry::rtree for the given mesh vertices. ">
<polygon fill="#ffffff" stroke="#000000" points="397,-98 397,-128 501,-128 501,-98 397,-98"/>
<text text-anchor="start" x="405" y="-116" font-family="Helvetica,sans-Serif" font-size="10.00" fill="#000000">precice::mesh::rtree</text>
<text text-anchor="middle" x="449" y="-105" font-family="Helvetica,sans-Serif" font-size="10.00" fill="#000000">::getVertexRTree</text>
</a>
</g>
</g>
<!-- Node61&#45;&gt;Node62 -->
<g id="edge1" class="edge">
<title>Node61&#45;&gt;Node62</title>
<path fill="none" stroke="#191970" d="M148.0879,-82.5076C217.7861,-89.5703 320.9743,-100.0267 386.587,-106.6755"/>
<polygon fill="#191970" stroke="#191970" points="386.482,-110.1827 396.7839,-107.7088 387.1877,-103.2183 386.482,-110.1827"/>
</g>
<!-- Node64 -->
<g id="node4" class="node">
<title>Node64</title>
<g id="a_node4"><a xlink:href="classprecice_1_1mesh_1_1rtree.html#a349b7d6d1289fa236bc90fb3f99eddd3" target="_top" xlink:title="precice::mesh::rtree\l::getEdgeRTree">
<polygon fill="#ffffff" stroke="#000000" points="397,-49 397,-79 501,-79 501,-49 397,-49"/>
<text text-anchor="start" x="405" y="-67" font-family="Helvetica,sans-Serif" font-size="10.00" fill="#000000">precice::mesh::rtree</text>
<text text-anchor="middle" x="449" y="-56" font-family="Helvetica,sans-Serif" font-size="10.00" fill="#000000">::getEdgeRTree</text>
</a>
</g>
</g>
<!-- Node61&#45;&gt;Node64 -->
<g id="edge3" class="edge">
<title>Node61&#45;&gt;Node64</title>
<path fill="none" stroke="#191970" d="M148.0879,-72.8268C217.7861,-70.7823 320.9743,-67.7554 386.587,-65.8308"/>
<polygon fill="#191970" stroke="#191970" points="386.8909,-69.3235 396.7839,-65.5317 386.6856,-62.3265 386.8909,-69.3235"/>
</g>
<!-- Node65 -->
<g id="node5" class="node">
<title>Node65</title>
<g id="a_node5"><a xlink:href="classprecice_1_1mesh_1_1rtree.html#af245dcf08a46997e454421204c177d02" target="_top" xlink:title="precice::mesh::rtree\l::getTriangleRTree">
<polygon fill="#ffffff" stroke="#000000" points="220.5,-142 220.5,-172 324.5,-172 324.5,-142 220.5,-142"/>
<text text-anchor="start" x="228.5" y="-160" font-family="Helvetica,sans-Serif" font-size="10.00" fill="#000000">precice::mesh::rtree</text>
<text text-anchor="middle" x="272.5" y="-149" font-family="Helvetica,sans-Serif" font-size="10.00" fill="#000000">::getTriangleRTree</text>
</a>
</g>
</g>
<!-- Node61&#45;&gt;Node65 -->
<g id="edge5" class="edge">
<title>Node61&#45;&gt;Node65</title>
<path fill="none" stroke="#191970" d="M92.7827,-84.6905C114.4494,-95.6775 151.2955,-113.7775 184,-127 194.0184,-131.0505 204.8149,-135.0242 215.3063,-138.6868"/>
<polygon fill="#191970" stroke="#191970" points="214.2297,-142.0176 224.8244,-141.9562 216.5038,-135.3973 214.2297,-142.0176"/>
</g>
<!-- Node66 -->
<g id="node6" class="node">
<title>Node66</title>
<g id="a_node6"><a xlink:href="RTreeTests_8cpp.html#a9849f5c774ff22e557184d988b1cf9ea" target="_top" xlink:title="BOOST_TEST">
<polygon fill="#ffffff" stroke="#000000" points="408,-.5 408,-19.5 490,-19.5 490,-.5 408,-.5"/>
<text text-anchor="middle" x="449" y="-7.5" font-family="Helvetica,sans-Serif" font-size="10.00" fill="#000000">BOOST_TEST</text>
</a>
</g>
</g>
<!-- Node61&#45;&gt;Node66 -->
<g id="edge7" class="edge">
<title>Node61&#45;&gt;Node66</title>
<path fill="none" stroke="#191970" d="M87.4203,-65.4853C107.3684,-51.9592 146.5275,-27.7334 184,-18 256.4043,.807 343.6839,-1.0414 397.7683,-4.8986"/>
<polygon fill="#191970" stroke="#191970" points="397.5614,-8.3929 407.7989,-5.6644 398.0944,-1.4132 397.5614,-8.3929"/>
</g>
<!-- Node67 -->
<g id="node7" class="node">
<title>Node67</title>
<g id="a_node7"><a xlink:href="RTreeTests_8cpp.html#abf2645dd826d0f65aff0bc3465d87b04" target="_top" xlink:title="BOOST_AUTO_TEST_SUITE_END">
<polygon fill="#ffffff" stroke="#000000" points="184,-27.5 184,-46.5 361,-46.5 361,-27.5 184,-27.5"/>
<text text-anchor="middle" x="272.5" y="-34.5" font-family="Helvetica,sans-Serif" font-size="10.00" fill="#000000">BOOST_AUTO_TEST_SUITE_END</text>
</a>
</g>
</g>
<!-- Node61&#45;&gt;Node67 -->
<g id="edge8" class="edge">
<title>Node61&#45;&gt;Node67</title>
<path fill="none" stroke="#191970" d="M123.8337,-65.46C150.7339,-60.3104 184.1362,-53.916 212.4614,-48.4935"/>
<polygon fill="#191970" stroke="#191970" points="213.4822,-51.8618 222.6458,-46.5439 212.166,-44.9866 213.4822,-51.8618"/>
</g>
<!-- Node63 -->
<g id="node3" class="node">
<title>Node63</title>
<g id="a_node3"><a xlink:href="classprecice_1_1mesh_1_1rtree.html#a1910046b733558367c5fc9022feef35e" target="_top" xlink:title="precice::mesh::rtree\l::cacheEntry">
<polygon fill="#ffffff" stroke="#000000" points="537,-98 537,-128 641,-128 641,-98 537,-98"/>
<text text-anchor="start" x="545" y="-116" font-family="Helvetica,sans-Serif" font-size="10.00" fill="#000000">precice::mesh::rtree</text>
<text text-anchor="middle" x="589" y="-105" font-family="Helvetica,sans-Serif" font-size="10.00" fill="#000000">::cacheEntry</text>
</a>
</g>
</g>
<!-- Node62&#45;&gt;Node63 -->
<g id="edge2" class="edge">
<title>Node62&#45;&gt;Node63</title>
<path fill="none" stroke="#191970" d="M501.1308,-113C509.4213,-113 518.0702,-113 526.5685,-113"/>
<polygon fill="#191970" stroke="#191970" points="526.8257,-116.5001 536.8256,-113 526.8256,-109.5001 526.8257,-116.5001"/>
</g>
<!-- Node64&#45;&gt;Node63 -->
<g id="edge4" class="edge">
<title>Node64&#45;&gt;Node63</title>
<path fill="none" stroke="#191970" d="M492.147,-79.1014C505.986,-83.9451 521.4754,-89.3664 535.9385,-94.4285"/>
<polygon fill="#191970" stroke="#191970" points="535.1597,-97.864 545.7545,-97.8641 537.4722,-91.257 535.1597,-97.864"/>
</g>
<!-- Node65&#45;&gt;Node63 -->
<g id="edge6" class="edge">
<title>Node65&#45;&gt;Node63</title>
<path fill="none" stroke="#191970" d="M324.6033,-155.5396C371.1628,-153.555 441.0779,-148.8965 501,-138 511.3022,-136.1266 522.1347,-133.56 532.541,-130.7815"/>
<polygon fill="#191970" stroke="#191970" points="533.6503,-134.1062 542.3563,-128.0684 531.7853,-127.3592 533.6503,-134.1062"/>
</g>
<!-- Node67&#45;&gt;Node64 -->
<g id="edge9" class="edge">
<title>Node67&#45;&gt;Node64</title>
<path fill="none" stroke="#191970" d="M334.7273,-46.5192C351.5763,-49.0967 369.8152,-51.8868 386.6699,-54.4651"/>
<polygon fill="#191970" stroke="#191970" points="386.5464,-57.9868 396.9607,-56.0393 387.6049,-51.0673 386.5464,-57.9868"/>
</g>
<!-- Node67&#45;&gt;Node66 -->
<g id="edge10" class="edge">
<title>Node67&#45;&gt;Node66</title>
<path fill="none" stroke="#191970" d="M334.7273,-27.4808C355.3493,-24.3262 378.0534,-20.853 397.7534,-17.8394"/>
<polygon fill="#191970" stroke="#191970" points="398.3987,-21.2815 407.7544,-16.3095 397.3401,-14.362 398.3987,-21.2815"/>
</g>
</g>
</svg>
