<?xml version="1.0" encoding="UTF-8" standalone="no"?>
<!DOCTYPE svg PUBLIC "-//W3C//DTD SVG 1.1//EN"
 "http://www.w3.org/Graphics/SVG/1.1/DTD/svg11.dtd">
<!-- Generated by graphviz version 2.40.1 (20161225.0304)
 -->
<!-- Title: BOOST_AUTO_TEST_CASE Pages: 1 -->
<svg width="454pt" height="88pt"
 viewBox="0.00 0.00 454.00 88.00" xmlns="http://www.w3.org/2000/svg" xmlns:xlink="http://www.w3.org/1999/xlink">
<g id="graph0" class="graph" transform="scale(1 1) rotate(0) translate(4 84)">
<title>BOOST_AUTO_TEST_CASE</title>
<polygon fill="#ffffff" stroke="transparent" points="-4,4 -4,-84 450,-84 450,4 -4,4"/>
<!-- Node0 -->
<g id="node1" class="node">
<title>Node0</title>
<polygon fill="#bfbfbf" stroke="#000000" points="0,-30 0,-49 143,-49 143,-30 0,-30"/>
<text text-anchor="middle" x="71.5" y="-37" font-family="Helvetica,sans-Serif" font-size="10.00" fill="#000000">BOOST_AUTO_TEST_CASE</text>
</g>
<!-- Node1 -->
<g id="node2" class="node">
<title>Node1</title>
<g id="a_node2"><a xlink:href="classprecice_1_1query_1_1Index.html#a73907e53b52a1b774bef741de1d3a09a" target="_top" xlink:title="Get n number of closest vertices to the given vertex. ">
<polygon fill="#ffffff" stroke="#000000" points="179,-49.5 179,-79.5 297,-79.5 297,-49.5 179,-49.5"/>
<text text-anchor="start" x="187" y="-67.5" font-family="Helvetica,sans-Serif" font-size="10.00" fill="#000000">precice::query::Index</text>
<text text-anchor="middle" x="238" y="-56.5" font-family="Helvetica,sans-Serif" font-size="10.00" fill="#000000">::getClosestVertex</text>
</a>
</g>
</g>
<!-- Node0&#45;&gt;Node1 -->
<g id="edge1" class="edge">
<title>Node0&#45;&gt;Node1</title>
<path fill="none" stroke="#191970" d="M134.9215,-49.0227C145.9682,-50.6814 157.5094,-52.4143 168.7041,-54.0952"/>
<polygon fill="#191970" stroke="#191970" points="168.4545,-57.5969 178.8634,-55.6206 169.494,-50.6745 168.4545,-57.5969"/>
</g>
<!-- Node3 -->
<g id="node4" class="node">
<title>Node3</title>
<g id="a_node4"><a xlink:href="classprecice_1_1query_1_1Index.html#a6f2e3068411c053c5b4f99a6e02bea1b" target="_top" xlink:title="Get n number of closest vertices to the given vertex. ">
<polygon fill="#ffffff" stroke="#000000" points="179,-.5 179,-30.5 297,-30.5 297,-.5 179,-.5"/>
<text text-anchor="start" x="187" y="-18.5" font-family="Helvetica,sans-Serif" font-size="10.00" fill="#000000">precice::query::Index</text>
<text text-anchor="middle" x="238" y="-7.5" font-family="Helvetica,sans-Serif" font-size="10.00" fill="#000000">::getClosestVertices</text>
</a>
</g>
</g>
<!-- Node0&#45;&gt;Node3 -->
<g id="edge3" class="edge">
<title>Node0&#45;&gt;Node3</title>
<path fill="none" stroke="#191970" d="M137.7836,-29.9456C147.9859,-28.475 158.5431,-26.9532 168.8068,-25.4738"/>
<polygon fill="#191970" stroke="#191970" points="169.5503,-28.9029 178.9486,-24.0119 168.5515,-21.9745 169.5503,-28.9029"/>
</g>
<!-- Node2 -->
<g id="node3" class="node">
<title>Node2</title>
<g id="a_node3"><a xlink:href="classprecice_1_1query_1_1impl_1_1Indexer.html#a5f4415898dcb95c16b0aedf0c3e3168d" target="_top" xlink:title="precice::query::impl\l::Indexer::instance">
<polygon fill="#ffffff" stroke="#000000" points="333,-24.5 333,-54.5 446,-54.5 446,-24.5 333,-24.5"/>
<text text-anchor="start" x="341" y="-42.5" font-family="Helvetica,sans-Serif" font-size="10.00" fill="#000000">precice::query::impl</text>
<text text-anchor="middle" x="389.5" y="-31.5" font-family="Helvetica,sans-Serif" font-size="10.00" fill="#000000">::Indexer::instance</text>
</a>
</g>
</g>
<!-- Node1&#45;&gt;Node2 -->
<g id="edge2" class="edge">
<title>Node1&#45;&gt;Node2</title>
<path fill="none" stroke="#191970" d="M297.0077,-54.7628C305.4874,-53.3635 314.2617,-51.9156 322.8763,-50.494"/>
<polygon fill="#191970" stroke="#191970" points="323.5917,-53.9234 332.8884,-48.8419 322.4519,-47.0168 323.5917,-53.9234"/>
</g>
<!-- Node3&#45;&gt;Node2 -->
<g id="edge4" class="edge">
<title>Node3&#45;&gt;Node2</title>
<path fill="none" stroke="#191970" d="M297.0077,-24.8477C305.4874,-26.1911 314.2617,-27.5811 322.8763,-28.9457"/>
<polygon fill="#191970" stroke="#191970" points="322.4639,-32.424 332.8884,-30.5318 323.5592,-25.5102 322.4639,-32.424"/>
</g>
</g>
</svg>
