<?xml version="1.0" encoding="UTF-8" standalone="no"?>
<!DOCTYPE svg PUBLIC "-//W3C//DTD SVG 1.1//EN"
 "http://www.w3.org/Graphics/SVG/1.1/DTD/svg11.dtd">
<!-- Generated by graphviz version 2.40.1 (20161225.0304)
 -->
<!-- Title: src/query/tests/RTreeTests.cpp Pages: 1 -->
<!--zoomable 711 -->
<svg id="main" version="1.1" xmlns="http://www.w3.org/2000/svg" xmlns:xlink="http://www.w3.org/1999/xlink" xml:space="preserve" onload="init(evt)">
<style type="text/css"><![CDATA[
.edge:hover path { stroke: red; }
.edge:hover polygon { stroke: red; fill: red; }
]]></style>
<script type="text/javascript"><![CDATA[
var edges = document.getElementsByTagName('g');
if (edges && edges.length) {
  for (var i=0;i<edges.length;i++) {
    if (edges[i].id.substr(0,4)=='edge') {
      edges[i].setAttribute('class','edge');
    }
  }
}
]]></script>
        <defs>
                <circle id="rim" cx="0" cy="0" r="7"/>
                <circle id="rim2" cx="0" cy="0" r="3.5"/>
                <g id="zoomPlus">
                        <use xlink:href="#rim" fill="#404040">
                                <set attributeName="fill" to="#808080" begin="zoomplus.mouseover" end="zoomplus.mouseout"/>
                        </use>
                        <path d="M-4,0h8M0,-4v8" fill="none" stroke="white" stroke-width="1.5" pointer-events="none"/>
                </g>
                <g id="zoomMin">
                        <use xlink:href="#rim" fill="#404040">
                                <set attributeName="fill" to="#808080" begin="zoomminus.mouseover" end="zoomminus.mouseout"/>
                        </use>
                        <path d="M-4,0h8" fill="none" stroke="white" stroke-width="1.5" pointer-events="none"/>
                </g>
                <g id="dirArrow">
                        <path fill="none" stroke="white" stroke-width="1.5" d="M0,-3.0v7 M-2.5,-0.5L0,-3.0L2.5,-0.5"/>
                </g>
               <g id="resetDef">
                       <use xlink:href="#rim2" fill="#404040">
                               <set attributeName="fill" to="#808080" begin="reset.mouseover" end="reset.mouseout"/>
                       </use>
               </g>
        </defs>

<script type="text/javascript">
var viewWidth = 2729;
var viewHeight = 711;
var sectionId = 'dynsection-0';
</script>
<script xlink:href="svgpan.js"/>
<svg id="graph" class="graph">
<g id="viewport">
<title>src/query/tests/RTreeTests.cpp</title>
<polygon fill="#ffffff" stroke="transparent" points="-4,4 -4,-707 2725,-707 2725,4 -4,4"/>
<!-- Node0 -->
<g id="node1" class="node">
<title>Node0</title>
<polygon fill="#bfbfbf" stroke="#000000" points="932.5,-683.5 932.5,-702.5 1095.5,-702.5 1095.5,-683.5 932.5,-683.5"/>
<text text-anchor="middle" x="1014" y="-690.5" font-family="Helvetica,sans-Serif" font-size="10.00" fill="#000000">src/query/tests/RTreeTests.cpp</text>
</g>
<!-- Node1 -->
<g id="node2" class="node">
<title>Node1</title>
<polygon fill="#ffffff" stroke="#bfbfbf" points="1067.5,-235.5 1067.5,-254.5 1136.5,-254.5 1136.5,-235.5 1067.5,-235.5"/>
<text text-anchor="middle" x="1102" y="-242.5" font-family="Helvetica,sans-Serif" font-size="10.00" fill="#000000">Eigen/Core</text>
</g>
<!-- Node0&#45;&gt;Node1 -->
<g id="edge1" class="edge">
<title>Node0&#45;&gt;Node1</title>
<path fill="none" stroke="#191970" d="M1014,-683.4116C1014,-664.0538 1014,-618.9167 1014,-581 1014,-581 1014,-581 1014,-525 1014,-471.6163 1072.9522,-318.0444 1094.3541,-264.0511"/>
<polygon fill="#191970" stroke="#191970" points="1097.6541,-265.2245 1098.1052,-254.6393 1091.1515,-262.6328 1097.6541,-265.2245"/>
</g>
<!-- Node2 -->
<g id="node3" class="node">
<title>Node2</title>
<polygon fill="#ffffff" stroke="#bfbfbf" points="28,-403.5 28,-422.5 92,-422.5 92,-403.5 28,-403.5"/>
<text text-anchor="middle" x="60" y="-410.5" font-family="Helvetica,sans-Serif" font-size="10.00" fill="#000000">algorithm</text>
</g>
<!-- Node0&#45;&gt;Node2 -->
<g id="edge2" class="edge">
<title>Node0&#45;&gt;Node2</title>
<path fill="none" stroke="#191970" d="M932.4842,-692.357C767.8527,-690.3282 401.1481,-681.9082 281,-647 222.5493,-630.0175 161,-641.8678 161,-581 161,-581 161,-581 161,-525 161,-480.8652 117.2112,-446.2933 87.2988,-427.8258"/>
<polygon fill="#191970" stroke="#191970" points="88.9108,-424.7126 78.525,-422.6188 85.3383,-430.7323 88.9108,-424.7126"/>
</g>
<!-- Node3 -->
<g id="node4" class="node">
<title>Node3</title>
<polygon fill="#ffffff" stroke="#bfbfbf" points="290.5,-627.5 290.5,-646.5 343.5,-646.5 343.5,-627.5 290.5,-627.5"/>
<text text-anchor="middle" x="317" y="-634.5" font-family="Helvetica,sans-Serif" font-size="10.00" fill="#000000">iterator</text>
</g>
<!-- Node0&#45;&gt;Node3 -->
<g id="edge3" class="edge">
<title>Node0&#45;&gt;Node3</title>
<path fill="none" stroke="#191970" d="M932.309,-689.3752C785.0261,-682.5074 479.428,-666.6537 353.7645,-646.7231"/>
<polygon fill="#191970" stroke="#191970" points="354.0392,-643.2208 343.6005,-645.0326 352.8907,-650.1259 354.0392,-643.2208"/>
</g>
<!-- Node4 -->
<g id="node5" class="node">
<title>Node4</title>
<polygon fill="#ffffff" stroke="#bfbfbf" points="362,-627.5 362,-646.5 406,-646.5 406,-627.5 362,-627.5"/>
<text text-anchor="middle" x="384" y="-634.5" font-family="Helvetica,sans-Serif" font-size="10.00" fill="#000000">limits</text>
</g>
<!-- Node0&#45;&gt;Node4 -->
<g id="edge4" class="edge">
<title>Node0&#45;&gt;Node4</title>
<path fill="none" stroke="#191970" d="M932.1875,-691.6614C817.0642,-688.6478 601.0736,-678.8505 420,-647 418.7423,-646.7788 417.465,-646.5324 416.1788,-646.2661"/>
<polygon fill="#191970" stroke="#191970" points="416.8533,-642.829 406.3148,-643.9201 415.2336,-649.639 416.8533,-642.829"/>
</g>
<!-- Node5 -->
<g id="node6" class="node">
<title>Node5</title>
<polygon fill="#ffffff" stroke="#bfbfbf" points="1156,-459.5 1156,-478.5 1188,-478.5 1188,-459.5 1156,-459.5"/>
<text text-anchor="middle" x="1172" y="-466.5" font-family="Helvetica,sans-Serif" font-size="10.00" fill="#000000">list</text>
</g>
<!-- Node0&#45;&gt;Node5 -->
<g id="edge5" class="edge">
<title>Node0&#45;&gt;Node5</title>
<path fill="none" stroke="#191970" d="M1078.3801,-683.4579C1119.842,-675.8458 1168.2889,-663.6857 1181,-647 1216.8547,-599.9339 1194.1248,-523.8678 1180.3252,-488.3844"/>
<polygon fill="#191970" stroke="#191970" points="1183.4162,-486.6945 1176.404,-478.7523 1176.9328,-489.3339 1183.4162,-486.6945"/>
</g>
<!-- Node6 -->
<g id="node7" class="node">
<title>Node6</title>
<polygon fill="#ffffff" stroke="#bfbfbf" points="2419,-67.5 2419,-86.5 2477,-86.5 2477,-67.5 2419,-67.5"/>
<text text-anchor="middle" x="2448" y="-74.5" font-family="Helvetica,sans-Serif" font-size="10.00" fill="#000000">memory</text>
</g>
<!-- Node0&#45;&gt;Node6 -->
<g id="edge6" class="edge">
<title>Node0&#45;&gt;Node6</title>
<path fill="none" stroke="#191970" d="M1095.6807,-691.7255C1410.4409,-686.6733 2530.8754,-667.3374 2604,-647 2661.5198,-631.0026 2721,-640.703 2721,-581 2721,-581 2721,-581 2721,-189 2721,-139.0934 2562.8676,-100.2776 2487.305,-84.5785"/>
<polygon fill="#191970" stroke="#191970" points="2487.7139,-81.0899 2477.2158,-82.518 2486.3132,-87.9483 2487.7139,-81.0899"/>
</g>
<!-- Node7 -->
<g id="node8" class="node">
<title>Node7</title>
<polygon fill="#ffffff" stroke="#bfbfbf" points="534,-627.5 534,-646.5 566,-646.5 566,-627.5 534,-627.5"/>
<text text-anchor="middle" x="550" y="-634.5" font-family="Helvetica,sans-Serif" font-size="10.00" fill="#000000">set</text>
</g>
<!-- Node0&#45;&gt;Node7 -->
<g id="edge7" class="edge">
<title>Node0&#45;&gt;Node7</title>
<path fill="none" stroke="#191970" d="M932.3789,-689.6121C844.5181,-684.7473 701.0655,-673.2695 580,-647 578.5581,-646.6871 577.0883,-646.3297 575.6124,-645.9406"/>
<polygon fill="#191970" stroke="#191970" points="576.5983,-642.5823 566.0137,-643.0481 574.5785,-649.2846 576.5983,-642.5823"/>
</g>
<!-- Node8 -->
<g id="node9" class="node">
<title>Node8</title>
<polygon fill="#ffffff" stroke="#bfbfbf" points="2079.5,-291.5 2079.5,-310.5 2124.5,-310.5 2124.5,-291.5 2079.5,-291.5"/>
<text text-anchor="middle" x="2102" y="-298.5" font-family="Helvetica,sans-Serif" font-size="10.00" fill="#000000">utility</text>
</g>
<!-- Node0&#45;&gt;Node8 -->
<g id="edge8" class="edge">
<title>Node0&#45;&gt;Node8</title>
<path fill="none" stroke="#191970" d="M1095.7238,-691.3803C1362.4456,-685.9183 2197.2669,-667.3742 2317,-647 2414.2843,-630.4457 2529,-679.6827 2529,-581 2529,-581 2529,-581 2529,-525 2529,-463.485 2372.5423,-373.4415 2317,-347 2243.5657,-312.0409 2213.9799,-331.6167 2134.4727,-311.9739"/>
<polygon fill="#191970" stroke="#191970" points="2135.0827,-308.5159 2124.5229,-309.3777 2133.3153,-315.2891 2135.0827,-308.5159"/>
</g>
<!-- Node9 -->
<g id="node10" class="node">
<title>Node9</title>
<polygon fill="#ffffff" stroke="#bfbfbf" points="1154.5,-123.5 1154.5,-142.5 1201.5,-142.5 1201.5,-123.5 1154.5,-123.5"/>
<text text-anchor="middle" x="1178" y="-130.5" font-family="Helvetica,sans-Serif" font-size="10.00" fill="#000000">vector</text>
</g>
<!-- Node0&#45;&gt;Node9 -->
<g id="edge9" class="edge">
<title>Node0&#45;&gt;Node9</title>
<path fill="none" stroke="#191970" d="M932.2639,-691.3723C752.7137,-687.3212 328.6814,-675.0239 188,-647 101.1514,-629.6997 0,-669.5549 0,-581 0,-581 0,-581 0,-469 0,-147.3779 344.2092,-221.5816 663,-179 843.7071,-154.8626 1061.8295,-140.0714 1144.2625,-134.989"/>
<polygon fill="#191970" stroke="#191970" points="1144.5372,-138.4788 1154.3056,-134.3766 1144.1111,-131.4918 1144.5372,-138.4788"/>
</g>
<!-- Node10 -->
<g id="node11" class="node">
<title>Node10</title>
<g id="a_node11"><a xlink:href="Logger_8hpp.html" target="_top" xlink:title="logging/Logger.hpp">
<polygon fill="#ffffff" stroke="#000000" points="1754.5,-123.5 1754.5,-142.5 1863.5,-142.5 1863.5,-123.5 1754.5,-123.5"/>
<text text-anchor="middle" x="1809" y="-130.5" font-family="Helvetica,sans-Serif" font-size="10.00" fill="#000000">logging/Logger.hpp</text>
</a>
</g>
</g>
<!-- Node0&#45;&gt;Node10 -->
<g id="edge10" class="edge">
<title>Node0&#45;&gt;Node10</title>
<path fill="none" stroke="#191970" d="M1095.5146,-690.8692C1297.919,-685.304 1819.5139,-669.2098 1992,-647 2132.1435,-628.9547 2303,-722.3005 2303,-581 2303,-581 2303,-581 2303,-413 2303,-382.4754 2306.7672,-367.3324 2284,-347 2212.3901,-283.0485 2160.0856,-346.7985 2071,-311 2018.6655,-289.9697 1881.9769,-188.352 1829.723,-148.7995"/>
<polygon fill="#191970" stroke="#191970" points="1831.6165,-145.8426 1821.5346,-142.5857 1827.385,-151.4189 1831.6165,-145.8426"/>
</g>
<!-- Node23 -->
<g id="node17" class="node">
<title>Node23</title>
<g id="a_node17"><a xlink:href="geometry_8hpp.html" target="_top" xlink:title="math/geometry.hpp">
<polygon fill="#ffffff" stroke="#000000" points="422,-403.5 422,-422.5 534,-422.5 534,-403.5 422,-403.5"/>
<text text-anchor="middle" x="478" y="-410.5" font-family="Helvetica,sans-Serif" font-size="10.00" fill="#000000">math/geometry.hpp</text>
</a>
</g>
</g>
<!-- Node0&#45;&gt;Node23 -->
<g id="edge18" class="edge">
<title>Node0&#45;&gt;Node23</title>
<path fill="none" stroke="#191970" d="M932.4096,-691.8373C808.9463,-689.0341 581.1787,-679.486 507,-647 466.9348,-629.4538 434,-624.7388 434,-581 434,-581 434,-581 434,-525 434,-490.0351 452.8067,-452.9171 465.8293,-431.4062"/>
<polygon fill="#191970" stroke="#191970" points="468.9537,-433.0126 471.3173,-422.6848 463.0291,-429.2845 468.9537,-433.0126"/>
</g>
<!-- Node35 -->
<g id="node24" class="node">
<title>Node35</title>
<g id="a_node24"><a xlink:href="Data_8hpp.html" target="_top" xlink:title="mesh/Data.hpp">
<polygon fill="#ffffff" stroke="#000000" points="1548.5,-291.5 1548.5,-310.5 1639.5,-310.5 1639.5,-291.5 1548.5,-291.5"/>
<text text-anchor="middle" x="1594" y="-298.5" font-family="Helvetica,sans-Serif" font-size="10.00" fill="#000000">mesh/Data.hpp</text>
</a>
</g>
</g>
<!-- Node0&#45;&gt;Node35 -->
<g id="edge34" class="edge">
<title>Node0&#45;&gt;Node35</title>
<path fill="none" stroke="#191970" d="M1095.7701,-691.6254C1322.0648,-686.7436 1940,-665.6619 1940,-581 1940,-581 1940,-581 1940,-525 1940,-493.7875 1936.8542,-482.2234 1916,-459 1874.6897,-412.9967 1703.7096,-343.2898 1629.0924,-314.336"/>
<polygon fill="#191970" stroke="#191970" points="1630.2346,-311.0252 1619.6451,-310.6883 1627.7132,-317.5554 1630.2346,-311.0252"/>
</g>
<!-- Node37 -->
<g id="node26" class="node">
<title>Node37</title>
<g id="a_node26"><a xlink:href="Edge_8hpp.html" target="_top" xlink:title="mesh/Edge.hpp">
<polygon fill="#ffffff" stroke="#000000" points="666,-403.5 666,-422.5 758,-422.5 758,-403.5 666,-403.5"/>
<text text-anchor="middle" x="712" y="-410.5" font-family="Helvetica,sans-Serif" font-size="10.00" fill="#000000">mesh/Edge.hpp</text>
</a>
</g>
</g>
<!-- Node0&#45;&gt;Node37 -->
<g id="edge39" class="edge">
<title>Node0&#45;&gt;Node37</title>
<path fill="none" stroke="#191970" d="M932.2234,-687.4785C837.3479,-680.2232 691.7033,-666.123 675,-647 620.4141,-584.5069 674.8398,-475.1885 700.3623,-431.6569"/>
<polygon fill="#191970" stroke="#191970" points="703.44,-433.3304 705.5975,-422.9575 697.4423,-429.721 703.44,-433.3304"/>
</g>
<!-- Node38 -->
<g id="node27" class="node">
<title>Node38</title>
<g id="a_node27"><a xlink:href="Vertex_8hpp.html" target="_top" xlink:title="mesh/Vertex.hpp">
<polygon fill="#ffffff" stroke="#000000" points="788.5,-347.5 788.5,-366.5 887.5,-366.5 887.5,-347.5 788.5,-347.5"/>
<text text-anchor="middle" x="838" y="-354.5" font-family="Helvetica,sans-Serif" font-size="10.00" fill="#000000">mesh/Vertex.hpp</text>
</a>
</g>
</g>
<!-- Node0&#45;&gt;Node38 -->
<g id="edge88" class="edge">
<title>Node0&#45;&gt;Node38</title>
<path fill="none" stroke="#191970" d="M985.5007,-683.4128C934.2501,-664.432 827.8817,-616.6845 785,-535 756.3686,-480.4607 799.9842,-408.1956 823.963,-375.0324"/>
<polygon fill="#191970" stroke="#191970" points="826.9574,-376.8717 830.1292,-366.7628 821.3457,-372.6874 826.9574,-376.8717"/>
</g>
<!-- Node39 -->
<g id="node28" class="node">
<title>Node39</title>
<g id="a_node28"><a xlink:href="Mesh_8hpp.html" target="_top" xlink:title="mesh/Mesh.hpp">
<polygon fill="#ffffff" stroke="#000000" points="1378.5,-515.5 1378.5,-534.5 1471.5,-534.5 1471.5,-515.5 1378.5,-515.5"/>
<text text-anchor="middle" x="1425" y="-522.5" font-family="Helvetica,sans-Serif" font-size="10.00" fill="#000000">mesh/Mesh.hpp</text>
</a>
</g>
</g>
<!-- Node0&#45;&gt;Node39 -->
<g id="edge51" class="edge">
<title>Node0&#45;&gt;Node39</title>
<path fill="none" stroke="#191970" d="M1077.1575,-683.4535C1117.256,-676.1889 1169.7436,-664.4283 1214,-647 1287.3173,-618.1275 1365.6177,-566.7052 1402.8568,-540.8167"/>
<polygon fill="#191970" stroke="#191970" points="1405.2359,-543.4231 1411.4117,-534.8143 1401.2154,-537.6929 1405.2359,-543.4231"/>
</g>
<!-- Node44 -->
<g id="node33" class="node">
<title>Node44</title>
<g id="a_node33"><a xlink:href="mesh_2SharedPointer_8hpp.html" target="_top" xlink:title="mesh/SharedPointer.hpp">
<polygon fill="#ffffff" stroke="#000000" points="2557.5,-235.5 2557.5,-254.5 2692.5,-254.5 2692.5,-235.5 2557.5,-235.5"/>
<text text-anchor="middle" x="2625" y="-242.5" font-family="Helvetica,sans-Serif" font-size="10.00" fill="#000000">mesh/SharedPointer.hpp</text>
</a>
</g>
</g>
<!-- Node0&#45;&gt;Node44 -->
<g id="edge86" class="edge">
<title>Node0&#45;&gt;Node44</title>
<path fill="none" stroke="#191970" d="M1095.7111,-692.0856C1405.9643,-688.419 2497.0402,-673.6778 2566,-647 2608.0373,-630.7374 2643,-626.0733 2643,-581 2643,-581 2643,-581 2643,-357 2643,-324.1472 2635.3569,-286.5528 2630.0316,-264.3462"/>
<polygon fill="#191970" stroke="#191970" points="2633.3935,-263.3622 2627.579,-254.5055 2626.6013,-265.0551 2633.3935,-263.3622"/>
</g>
<!-- Node45 -->
<g id="node34" class="node">
<title>Node45</title>
<g id="a_node34"><a xlink:href="Triangle_8hpp.html" target="_top" xlink:title="mesh/Triangle.hpp">
<polygon fill="#ffffff" stroke="#000000" points="462,-459.5 462,-478.5 568,-478.5 568,-459.5 462,-459.5"/>
<text text-anchor="middle" x="515" y="-466.5" font-family="Helvetica,sans-Serif" font-size="10.00" fill="#000000">mesh/Triangle.hpp</text>
</a>
</g>
</g>
<!-- Node0&#45;&gt;Node45 -->
<g id="edge87" class="edge">
<title>Node0&#45;&gt;Node45</title>
<path fill="none" stroke="#191970" d="M932.3387,-691.026C800.4974,-687.0084 552.6337,-675.6949 525,-647 483.7509,-604.1669 498.7834,-525.3699 508.853,-488.7149"/>
<polygon fill="#191970" stroke="#191970" points="512.311,-489.3587 511.7509,-478.7787 505.591,-487.3988 512.311,-489.3587"/>
</g>
<!-- Node53 -->
<g id="node38" class="node">
<title>Node53</title>
<g id="a_node38"><a xlink:href="Index_8hpp.html" target="_top" xlink:title="query/Index.hpp">
<polygon fill="#ffffff" stroke="#000000" points="890.5,-571.5 890.5,-590.5 985.5,-590.5 985.5,-571.5 890.5,-571.5"/>
<text text-anchor="middle" x="938" y="-578.5" font-family="Helvetica,sans-Serif" font-size="10.00" fill="#000000">query/Index.hpp</text>
</a>
</g>
</g>
<!-- Node0&#45;&gt;Node53 -->
<g id="edge89" class="edge">
<title>Node0&#45;&gt;Node53</title>
<path fill="none" stroke="#191970" d="M1007.5203,-683.4509C994.8444,-664.7707 966.584,-623.1238 950.266,-599.0761"/>
<polygon fill="#191970" stroke="#191970" points="952.9745,-596.8344 944.4633,-590.5249 947.1822,-600.7649 952.9745,-596.8344"/>
</g>
<!-- Node55 -->
<g id="node40" class="node">
<title>Node55</title>
<g id="a_node40"><a xlink:href="Indexer_8hpp.html" target="_top" xlink:title="query/impl/Indexer.hpp">
<polygon fill="#ffffff" stroke="#000000" points="1042.5,-627.5 1042.5,-646.5 1171.5,-646.5 1171.5,-627.5 1042.5,-627.5"/>
<text text-anchor="middle" x="1107" y="-634.5" font-family="Helvetica,sans-Serif" font-size="10.00" fill="#000000">query/impl/Indexer.hpp</text>
</a>
</g>
</g>
<!-- Node0&#45;&gt;Node55 -->
<g id="edge105" class="edge">
<title>Node0&#45;&gt;Node55</title>
<path fill="none" stroke="#191970" d="M1030.1994,-683.2455C1044.6018,-674.5731 1065.8732,-661.7645 1082.3799,-651.825"/>
<polygon fill="#191970" stroke="#191970" points="1084.225,-654.7996 1090.9863,-646.6427 1080.614,-648.8028 1084.225,-654.7996"/>
</g>
<!-- Node58 -->
<g id="node42" class="node">
<title>Node58</title>
<g id="a_node42"><a xlink:href="TestContext_8hpp.html" target="_top" xlink:title="testing/TestContext.hpp">
<polygon fill="#ffffff" stroke="#000000" points="2369,-347.5 2369,-366.5 2501,-366.5 2501,-347.5 2369,-347.5"/>
<text text-anchor="middle" x="2435" y="-354.5" font-family="Helvetica,sans-Serif" font-size="10.00" fill="#000000">testing/TestContext.hpp</text>
</a>
</g>
</g>
<!-- Node0&#45;&gt;Node58 -->
<g id="edge112" class="edge">
<title>Node0&#45;&gt;Node58</title>
<path fill="none" stroke="#191970" d="M1095.5136,-691.7798C1407.9889,-686.9477 2513.4429,-668.3722 2543,-647 2568.293,-628.711 2567,-612.2125 2567,-581 2567,-581 2567,-581 2567,-469 2567,-419.2672 2511.8473,-387.032 2472.8425,-370.4533"/>
<polygon fill="#191970" stroke="#191970" points="2473.8989,-367.1045 2463.3173,-366.5746 2471.2589,-373.5876 2473.8989,-367.1045"/>
</g>
<!-- Node66 -->
<g id="node47" class="node">
<title>Node66</title>
<g id="a_node47"><a xlink:href="Testing_8hpp.html" target="_top" xlink:title="testing/Testing.hpp">
<polygon fill="#ffffff" stroke="#000000" points="1991.5,-403.5 1991.5,-422.5 2100.5,-422.5 2100.5,-403.5 1991.5,-403.5"/>
<text text-anchor="middle" x="2046" y="-410.5" font-family="Helvetica,sans-Serif" font-size="10.00" fill="#000000">testing/Testing.hpp</text>
</a>
</g>
</g>
<!-- Node0&#45;&gt;Node66 -->
<g id="edge130" class="edge">
<title>Node0&#45;&gt;Node66</title>
<path fill="none" stroke="#191970" d="M1095.8843,-692.0203C1310.0149,-689.0317 1875.4862,-678.2467 1954,-647 1995.8787,-630.3332 2031,-626.0733 2031,-581 2031,-581 2031,-581 2031,-525 2031,-492.2739 2037.3693,-454.641 2041.807,-432.3923"/>
<polygon fill="#191970" stroke="#191970" points="2045.2485,-433.0329 2043.8509,-422.5307 2038.3942,-431.6123 2045.2485,-433.0329"/>
</g>
<!-- Node10&#45;&gt;Node6 -->
<g id="edge11" class="edge">
<title>Node10&#45;&gt;Node6</title>
<path fill="none" stroke="#191970" d="M1863.757,-128.2013C1989.9843,-117.1391 2298.9597,-90.0614 2408.6098,-80.452"/>
<polygon fill="#191970" stroke="#191970" points="2409.2303,-83.9112 2418.8865,-79.5514 2408.6191,-76.9379 2409.2303,-83.9112"/>
</g>
<!-- Node11 -->
<g id="node12" class="node">
<title>Node11</title>
<polygon fill="#ffffff" stroke="#bfbfbf" points="1706,-6 1706,-25 1750,-25 1750,-6 1706,-6"/>
<text text-anchor="middle" x="1728" y="-13" font-family="Helvetica,sans-Serif" font-size="10.00" fill="#000000">string</text>
</g>
<!-- Node10&#45;&gt;Node11 -->
<g id="edge12" class="edge">
<title>Node10&#45;&gt;Node11</title>
<path fill="none" stroke="#191970" d="M1802.3714,-123.3845C1788.8437,-103.761 1757.8683,-58.8274 1740.4617,-33.5772"/>
<polygon fill="#191970" stroke="#191970" points="1743.2775,-31.4951 1734.7202,-25.2484 1737.5142,-35.4682 1743.2775,-31.4951"/>
</g>
<!-- Node12 -->
<g id="node13" class="node">
<title>Node12</title>
<g id="a_node13"><a xlink:href="LogMacros_8hpp.html" target="_top" xlink:title="LogMacros.hpp">
<polygon fill="#ffffff" stroke="#ff0000" points="1029.5,-67.5 1029.5,-86.5 1118.5,-86.5 1118.5,-67.5 1029.5,-67.5"/>
<text text-anchor="middle" x="1074" y="-74.5" font-family="Helvetica,sans-Serif" font-size="10.00" fill="#000000">LogMacros.hpp</text>
</a>
</g>
</g>
<!-- Node10&#45;&gt;Node12 -->
<g id="edge13" class="edge">
<title>Node10&#45;&gt;Node12</title>
<path fill="none" stroke="#191970" d="M1754.356,-128.8366C1618.3356,-118.4732 1265.7168,-91.607 1129.1553,-81.2023"/>
<polygon fill="#191970" stroke="#191970" points="1129.1667,-77.6931 1118.9297,-80.4232 1128.6349,-84.6729 1129.1667,-77.6931"/>
</g>
<!-- Node12&#45;&gt;Node11 -->
<g id="edge17" class="edge">
<title>Node12&#45;&gt;Node11</title>
<path fill="none" stroke="#191970" d="M1118.6947,-72.7971C1242.4786,-61.1568 1587.7181,-28.6916 1695.4565,-18.5603"/>
<polygon fill="#191970" stroke="#191970" points="1696.0695,-22.0182 1705.6979,-17.5972 1695.4141,-15.0489 1696.0695,-22.0182"/>
</g>
<!-- Node13 -->
<g id="node14" class="node">
<title>Node13</title>
<polygon fill="#ffffff" stroke="#bfbfbf" points="448,-.5 448,-30.5 558,-30.5 558,-.5 448,-.5"/>
<text text-anchor="start" x="456" y="-18.5" font-family="Helvetica,sans-Serif" font-size="10.00" fill="#000000">boost/preprocessor</text>
<text text-anchor="middle" x="503" y="-7.5" font-family="Helvetica,sans-Serif" font-size="10.00" fill="#000000">/control/if.hpp</text>
</g>
<!-- Node12&#45;&gt;Node13 -->
<g id="edge14" class="edge">
<title>Node12&#45;&gt;Node13</title>
<path fill="none" stroke="#191970" d="M1029.1946,-72.1742C928.8995,-61.3718 685.9401,-35.2037 568.5919,-22.5646"/>
<polygon fill="#191970" stroke="#191970" points="568.6348,-19.0491 558.3174,-21.458 567.8851,-26.0088 568.6348,-19.0491"/>
</g>
<!-- Node14 -->
<g id="node15" class="node">
<title>Node14</title>
<polygon fill="#ffffff" stroke="#bfbfbf" points="1016,-.5 1016,-30.5 1132,-30.5 1132,-.5 1016,-.5"/>
<text text-anchor="start" x="1024" y="-18.5" font-family="Helvetica,sans-Serif" font-size="10.00" fill="#000000">boost/preprocessor</text>
<text text-anchor="middle" x="1074" y="-7.5" font-family="Helvetica,sans-Serif" font-size="10.00" fill="#000000">/facilities/empty.hpp</text>
</g>
<!-- Node12&#45;&gt;Node14 -->
<g id="edge15" class="edge">
<title>Node12&#45;&gt;Node14</title>
<path fill="none" stroke="#191970" d="M1074,-67.3906C1074,-60.2234 1074,-50.0862 1074,-40.671"/>
<polygon fill="#191970" stroke="#191970" points="1077.5001,-40.5446 1074,-30.5446 1070.5001,-40.5446 1077.5001,-40.5446"/>
</g>
<!-- Node15 -->
<g id="node16" class="node">
<title>Node15</title>
<polygon fill="#ffffff" stroke="#bfbfbf" points="783.5,-.5 783.5,-30.5 894.5,-30.5 894.5,-.5 783.5,-.5"/>
<text text-anchor="start" x="791.5" y="-18.5" font-family="Helvetica,sans-Serif" font-size="10.00" fill="#000000">boost/preprocessor</text>
<text text-anchor="middle" x="839" y="-7.5" font-family="Helvetica,sans-Serif" font-size="10.00" fill="#000000">/seq/for_each_i.hpp</text>
</g>
<!-- Node12&#45;&gt;Node15 -->
<g id="edge16" class="edge">
<title>Node12&#45;&gt;Node15</title>
<path fill="none" stroke="#191970" d="M1037.5391,-67.4581C1002.1364,-58.1931 947.5967,-43.92 904.6323,-32.6761"/>
<polygon fill="#191970" stroke="#191970" points="905.3778,-29.2534 894.8174,-30.1075 903.6055,-36.0253 905.3778,-29.2534"/>
</g>
<!-- Node23&#45;&gt;Node1 -->
<g id="edge19" class="edge">
<title>Node23&#45;&gt;Node1</title>
<path fill="none" stroke="#191970" d="M501.8827,-403.4552C537.8395,-389.392 608.2511,-363.041 670,-347 757.8393,-324.1812 784.469,-338.3647 871,-311 891.0962,-304.6448 894.113,-297.9824 914,-291 962.0209,-274.1396 1019.0292,-261.1276 1057.5797,-253.3123"/>
<polygon fill="#191970" stroke="#191970" points="1058.3308,-256.7315 1067.4528,-251.3426 1056.9612,-249.8668 1058.3308,-256.7315"/>
</g>
<!-- Node24 -->
<g id="node18" class="node">
<title>Node24</title>
<polygon fill="#ffffff" stroke="#bfbfbf" points="310,-347.5 310,-366.5 352,-366.5 352,-347.5 310,-347.5"/>
<text text-anchor="middle" x="331" y="-354.5" font-family="Helvetica,sans-Serif" font-size="10.00" fill="#000000">array</text>
</g>
<!-- Node23&#45;&gt;Node24 -->
<g id="edge20" class="edge">
<title>Node23&#45;&gt;Node24</title>
<path fill="none" stroke="#191970" d="M452.7298,-403.3733C427.4336,-393.7366 388.4914,-378.9015 361.4927,-368.6163"/>
<polygon fill="#191970" stroke="#191970" points="362.7245,-365.3402 352.1336,-365.0509 360.2325,-371.8816 362.7245,-365.3402"/>
</g>
<!-- Node25 -->
<g id="node19" class="node">
<title>Node25</title>
<g id="a_node19"><a xlink:href="differences_8hpp.html" target="_top" xlink:title="math/differences.hpp">
<polygon fill="#ffffff" stroke="#000000" points="560,-291.5 560,-310.5 680,-310.5 680,-291.5 560,-291.5"/>
<text text-anchor="middle" x="620" y="-298.5" font-family="Helvetica,sans-Serif" font-size="10.00" fill="#000000">math/differences.hpp</text>
</a>
</g>
</g>
<!-- Node23&#45;&gt;Node25 -->
<g id="edge21" class="edge">
<title>Node23&#45;&gt;Node25</title>
<path fill="none" stroke="#191970" d="M488.8804,-403.32C503.7505,-390.201 531.3883,-366.2091 556,-347 569.5408,-336.4316 585.1908,-325.1671 597.6255,-316.4303"/>
<polygon fill="#191970" stroke="#191970" points="599.8379,-319.1544 606.0355,-310.5614 595.8319,-313.414 599.8379,-319.1544"/>
</g>
<!-- Node26 -->
<g id="node20" class="node">
<title>Node26</title>
<g id="a_node20"><a xlink:href="assertion_8hpp.html" target="_top" xlink:title="utils/assertion.hpp">
<polygon fill="#ffffff" stroke="#ff0000" points="358.5,-235.5 358.5,-254.5 465.5,-254.5 465.5,-235.5 358.5,-235.5"/>
<text text-anchor="middle" x="412" y="-242.5" font-family="Helvetica,sans-Serif" font-size="10.00" fill="#000000">utils/assertion.hpp</text>
</a>
</g>
</g>
<!-- Node23&#45;&gt;Node26 -->
<g id="edge33" class="edge">
<title>Node23&#45;&gt;Node26</title>
<path fill="none" stroke="#191970" d="M449.5619,-403.3621C433.0721,-396.1374 413.701,-384.4529 404,-367 385.9535,-334.5328 396.3183,-289.4437 404.684,-264.1611"/>
<polygon fill="#191970" stroke="#191970" points="408.0193,-265.2277 408.0583,-254.6329 401.4208,-262.8909 408.0193,-265.2277"/>
</g>
<!-- Node25&#45;&gt;Node1 -->
<g id="edge22" class="edge">
<title>Node25&#45;&gt;Node1</title>
<path fill="none" stroke="#191970" d="M680.0711,-294.0208C778.0422,-282.6383 970.0206,-260.3337 1057.12,-250.2143"/>
<polygon fill="#191970" stroke="#191970" points="1057.6793,-253.6729 1067.2086,-249.0422 1056.8714,-246.7197 1057.6793,-253.6729"/>
</g>
<!-- Node25&#45;&gt;Node26 -->
<g id="edge23" class="edge">
<title>Node25&#45;&gt;Node26</title>
<path fill="none" stroke="#191970" d="M584.2435,-291.3733C549.0574,-281.9001 495.2119,-267.4032 457.1044,-257.1435"/>
<polygon fill="#191970" stroke="#191970" points="457.856,-253.7213 447.2899,-254.5011 456.0361,-260.4806 457.856,-253.7213"/>
</g>
<!-- Node26&#45;&gt;Node13 -->
<g id="edge25" class="edge">
<title>Node26&#45;&gt;Node13</title>
<path fill="none" stroke="#191970" d="M411.2213,-235.3436C409.4121,-207.2576 407.3146,-123.9855 440,-67 446.8892,-54.9889 457.7384,-44.6258 468.5052,-36.4094"/>
<polygon fill="#191970" stroke="#191970" points="470.577,-39.2306 476.6557,-30.553 466.4923,-33.5459 470.577,-39.2306"/>
</g>
<!-- Node26&#45;&gt;Node15 -->
<g id="edge26" class="edge">
<title>Node26&#45;&gt;Node15</title>
<path fill="none" stroke="#191970" d="M419.954,-235.4172C431.8593,-221.5418 455.5409,-195.6945 480,-179 579.0672,-111.3818 710.6082,-59.7595 783.8241,-33.8941"/>
<polygon fill="#191970" stroke="#191970" points="785.0438,-37.1754 793.3249,-30.5668 782.73,-30.5689 785.0438,-37.1754"/>
</g>
<!-- Node28 -->
<g id="node21" class="node">
<title>Node28</title>
<polygon fill="#ffffff" stroke="#bfbfbf" points="168,-179.5 168,-198.5 228,-198.5 228,-179.5 168,-179.5"/>
<text text-anchor="middle" x="198" y="-186.5" font-family="Helvetica,sans-Serif" font-size="10.00" fill="#000000">iostream</text>
</g>
<!-- Node26&#45;&gt;Node28 -->
<g id="edge24" class="edge">
<title>Node26&#45;&gt;Node28</title>
<path fill="none" stroke="#191970" d="M375.2121,-235.3733C336.9551,-225.3621 277.2583,-209.7405 237.889,-199.4383"/>
<polygon fill="#191970" stroke="#191970" points="238.6579,-196.0217 228.0976,-196.876 236.8857,-202.7936 238.6579,-196.0217"/>
</g>
<!-- Node31 -->
<g id="node22" class="node">
<title>Node31</title>
<g id="a_node22"><a xlink:href="Parallel_8hpp.html" target="_top" xlink:title="Parallel.hpp">
<polygon fill="#ffffff" stroke="#ff0000" points="1510,-179.5 1510,-198.5 1584,-198.5 1584,-179.5 1510,-179.5"/>
<text text-anchor="middle" x="1547" y="-186.5" font-family="Helvetica,sans-Serif" font-size="10.00" fill="#000000">Parallel.hpp</text>
</a>
</g>
</g>
<!-- Node26&#45;&gt;Node31 -->
<g id="edge27" class="edge">
<title>Node26&#45;&gt;Node31</title>
<path fill="none" stroke="#191970" d="M465.5999,-242.3554C658.7069,-232.8277 1317.0261,-200.3467 1499.6691,-191.3353"/>
<polygon fill="#191970" stroke="#191970" points="1499.9459,-194.826 1509.7612,-190.8373 1499.6008,-187.8345 1499.9459,-194.826"/>
</g>
<!-- Node31&#45;&gt;Node6 -->
<g id="edge29" class="edge">
<title>Node31&#45;&gt;Node6</title>
<path fill="none" stroke="#191970" d="M1569.4741,-179.4424C1605.819,-164.4705 1680.0883,-135.8702 1746,-123 1874.5457,-97.8996 2280.4183,-82.5703 2408.7199,-78.2573"/>
<polygon fill="#191970" stroke="#191970" points="2408.992,-81.7502 2418.8701,-77.9197 2408.7592,-74.7541 2408.992,-81.7502"/>
</g>
<!-- Node31&#45;&gt;Node9 -->
<g id="edge31" class="edge">
<title>Node31&#45;&gt;Node9</title>
<path fill="none" stroke="#191970" d="M1509.9926,-181.5183C1505.2893,-180.6338 1500.5363,-179.7723 1496,-179 1392.7199,-161.4159 1269.8256,-144.8743 1211.6838,-137.3097"/>
<polygon fill="#191970" stroke="#191970" points="1211.9671,-133.8172 1201.6003,-136.0034 1211.0678,-140.7592 1211.9671,-133.8172"/>
</g>
<!-- Node31&#45;&gt;Node10 -->
<g id="edge32" class="edge">
<title>Node31&#45;&gt;Node10</title>
<path fill="none" stroke="#191970" d="M1584.26,-181.036C1628.7621,-171.5241 1703.5728,-155.5341 1754.5537,-144.6374"/>
<polygon fill="#191970" stroke="#191970" points="1755.3686,-148.0423 1764.4161,-142.5294 1753.9054,-141.197 1755.3686,-148.0423"/>
</g>
<!-- Node31&#45;&gt;Node11 -->
<g id="edge30" class="edge">
<title>Node31&#45;&gt;Node11</title>
<path fill="none" stroke="#191970" d="M1548.4325,-179.3408C1552.2837,-156.6626 1564.9033,-99.4813 1598,-67 1624.8499,-40.6494 1666.8306,-27.3294 1695.7843,-20.92"/>
<polygon fill="#191970" stroke="#191970" points="1696.7191,-24.3011 1705.81,-18.8599 1695.3101,-17.4443 1696.7191,-24.3011"/>
</g>
<!-- Node32 -->
<g id="node23" class="node">
<title>Node32</title>
<polygon fill="#ffffff" stroke="#bfbfbf" points="1362.5,-123.5 1362.5,-142.5 1411.5,-142.5 1411.5,-123.5 1362.5,-123.5"/>
<text text-anchor="middle" x="1387" y="-130.5" font-family="Helvetica,sans-Serif" font-size="10.00" fill="#000000">iosfwd</text>
</g>
<!-- Node31&#45;&gt;Node32 -->
<g id="edge28" class="edge">
<title>Node31&#45;&gt;Node32</title>
<path fill="none" stroke="#191970" d="M1519.495,-179.3733C1492.3206,-169.8622 1450.6778,-155.2872 1421.3447,-145.0207"/>
<polygon fill="#191970" stroke="#191970" points="1422.1214,-141.5843 1411.5265,-141.5843 1419.8089,-148.1914 1422.1214,-141.5843"/>
</g>
<!-- Node35&#45;&gt;Node1 -->
<g id="edge35" class="edge">
<title>Node35&#45;&gt;Node1</title>
<path fill="none" stroke="#191970" d="M1548.1556,-295.7819C1453.998,-285.0648 1239.8654,-260.692 1146.6941,-250.0871"/>
<polygon fill="#191970" stroke="#191970" points="1147.0702,-246.6074 1136.7385,-248.954 1146.2785,-253.5625 1147.0702,-246.6074"/>
</g>
<!-- Node35&#45;&gt;Node10 -->
<g id="edge38" class="edge">
<title>Node35&#45;&gt;Node10</title>
<path fill="none" stroke="#191970" d="M1630.7953,-291.4311C1653.2263,-284.208 1681.4351,-272.5005 1702,-255 1732.4251,-229.1086 1723.1816,-208.6111 1750,-179 1760.4914,-167.4161 1774.1551,-156.559 1785.691,-148.3048"/>
<polygon fill="#191970" stroke="#191970" points="1787.7904,-151.1081 1794.0101,-142.5311 1783.7992,-145.3574 1787.7904,-151.1081"/>
</g>
<!-- Node35&#45;&gt;Node11 -->
<g id="edge37" class="edge">
<title>Node35&#45;&gt;Node11</title>
<path fill="none" stroke="#191970" d="M1610.8053,-291.3224C1637.843,-274.351 1688,-236.4704 1688,-189 1688,-189 1688,-189 1688,-133 1688,-96.3963 1705.6108,-56.636 1717.4619,-34.0237"/>
<polygon fill="#191970" stroke="#191970" points="1720.5696,-35.6351 1722.269,-25.1774 1714.419,-32.2928 1720.5696,-35.6351"/>
</g>
<!-- Node36 -->
<g id="node25" class="node">
<title>Node36</title>
<polygon fill="#ffffff" stroke="#bfbfbf" points="1566,-235.5 1566,-254.5 1622,-254.5 1622,-235.5 1566,-235.5"/>
<text text-anchor="middle" x="1594" y="-242.5" font-family="Helvetica,sans-Serif" font-size="10.00" fill="#000000">stddef.h</text>
</g>
<!-- Node35&#45;&gt;Node36 -->
<g id="edge36" class="edge">
<title>Node35&#45;&gt;Node36</title>
<path fill="none" stroke="#191970" d="M1594,-291.2455C1594,-283.9382 1594,-273.6944 1594,-264.7046"/>
<polygon fill="#191970" stroke="#191970" points="1597.5001,-264.6426 1594,-254.6427 1590.5001,-264.6427 1597.5001,-264.6426"/>
</g>
<!-- Node37&#45;&gt;Node1 -->
<g id="edge40" class="edge">
<title>Node37&#45;&gt;Node1</title>
<path fill="none" stroke="#191970" d="M719.1545,-403.2065C730.3944,-388.575 753.6455,-361.2123 780,-347 844.9183,-311.9912 872.7552,-336.3999 942,-311 959.9178,-304.4275 962.5931,-298.8261 980,-291 1007.581,-278.5995 1039.5997,-266.6144 1063.9134,-257.988"/>
<polygon fill="#191970" stroke="#191970" points="1065.2187,-261.2392 1073.4925,-254.6215 1062.8977,-254.6352 1065.2187,-261.2392"/>
</g>
<!-- Node37&#45;&gt;Node24 -->
<g id="edge41" class="edge">
<title>Node37&#45;&gt;Node24</title>
<path fill="none" stroke="#191970" d="M665.6628,-406.1893C586.9768,-394.6239 429.266,-371.4433 362.2651,-361.5954"/>
<polygon fill="#191970" stroke="#191970" points="362.7194,-358.1246 352.3167,-360.1332 361.7014,-365.0502 362.7194,-358.1246"/>
</g>
<!-- Node37&#45;&gt;Node25 -->
<g id="edge43" class="edge">
<title>Node37&#45;&gt;Node25</title>
<path fill="none" stroke="#191970" d="M704.1561,-403.4509C688.6758,-384.6054 653.9947,-342.3849 634.3273,-318.4419"/>
<polygon fill="#191970" stroke="#191970" points="636.876,-316.0306 627.824,-310.5249 631.4669,-320.4738 636.876,-316.0306"/>
</g>
<!-- Node37&#45;&gt;Node26 -->
<g id="edge50" class="edge">
<title>Node37&#45;&gt;Node26</title>
<path fill="none" stroke="#191970" d="M692.75,-403.4646C657.6088,-385.9287 580.8904,-347.0485 518,-311 489.0014,-294.3781 456.4828,-273.8374 435.2032,-260.1277"/>
<polygon fill="#191970" stroke="#191970" points="436.8398,-257.018 426.5424,-254.525 433.0377,-262.8954 436.8398,-257.018"/>
</g>
<!-- Node37&#45;&gt;Node28 -->
<g id="edge42" class="edge">
<title>Node37&#45;&gt;Node28</title>
<path fill="none" stroke="#191970" d="M679.3901,-403.4816C607.8691,-381.991 432.7796,-326.003 297,-255 268.5857,-240.1413 238.2308,-219.036 218.7356,-204.7224"/>
<polygon fill="#191970" stroke="#191970" points="220.7032,-201.824 210.5885,-198.6706 216.5291,-207.4434 220.7032,-201.824"/>
</g>
<!-- Node37&#45;&gt;Node38 -->
<g id="edge44" class="edge">
<title>Node37&#45;&gt;Node38</title>
<path fill="none" stroke="#191970" d="M733.6602,-403.3733C753.9772,-394.3435 784.564,-380.7494 807.375,-370.6111"/>
<polygon fill="#191970" stroke="#191970" points="808.9059,-373.7609 816.6225,-366.5011 806.0628,-367.3642 808.9059,-373.7609"/>
</g>
<!-- Node38&#45;&gt;Node1 -->
<g id="edge45" class="edge">
<title>Node38&#45;&gt;Node1</title>
<path fill="none" stroke="#191970" d="M873.3754,-347.4915C902.5084,-339.2006 944.6245,-326.1481 980,-311 1014.9818,-296.0205 1053.2626,-274.3858 1077.4404,-260.0199"/>
<polygon fill="#191970" stroke="#191970" points="1079.5075,-262.8614 1086.2825,-254.7158 1075.9066,-256.8586 1079.5075,-262.8614"/>
</g>
<!-- Node38&#45;&gt;Node8 -->
<g id="edge47" class="edge">
<title>Node38&#45;&gt;Node8</title>
<path fill="none" stroke="#191970" d="M887.5091,-348.1141C890.7148,-347.6919 893.8991,-347.3141 897,-347 1365.5415,-299.5448 1485.6782,-335.0939 1956,-311 1994.8688,-309.0088 2039.4984,-305.8199 2069.0766,-303.5797"/>
<polygon fill="#191970" stroke="#191970" points="2069.5504,-307.0538 2079.2544,-302.8013 2069.0165,-300.0742 2069.5504,-307.0538"/>
</g>
<!-- Node38&#45;&gt;Node25 -->
<g id="edge48" class="edge">
<title>Node38&#45;&gt;Node25</title>
<path fill="none" stroke="#191970" d="M800.5245,-347.3733C763.4897,-337.8598 706.7318,-323.2797 666.7639,-313.0127"/>
<polygon fill="#191970" stroke="#191970" points="667.5429,-309.5993 656.9865,-310.5011 665.8012,-316.3792 667.5429,-309.5993"/>
</g>
<!-- Node38&#45;&gt;Node26 -->
<g id="edge49" class="edge">
<title>Node38&#45;&gt;Node26</title>
<path fill="none" stroke="#191970" d="M813.0285,-347.4098C790.3438,-338.5194 756.0828,-324.6446 727,-311 709.7218,-302.8937 707.0891,-297.0854 689,-291 618.0616,-267.1353 532.5801,-255.3503 475.5145,-249.7394"/>
<polygon fill="#191970" stroke="#191970" points="475.8382,-246.2544 465.5523,-248.7942 475.177,-253.2231 475.8382,-246.2544"/>
</g>
<!-- Node38&#45;&gt;Node28 -->
<g id="edge46" class="edge">
<title>Node38&#45;&gt;Node28</title>
<path fill="none" stroke="#191970" d="M788.4253,-350.7645C730.9651,-343.1428 633.5841,-329.0068 551,-311 459.9748,-291.1527 436.7918,-286.1787 349,-255 305.4538,-239.5349 256.7473,-217.3115 226.7269,-203.0142"/>
<polygon fill="#191970" stroke="#191970" points="228.1971,-199.8377 217.6669,-198.6694 225.1702,-206.1494 228.1971,-199.8377"/>
</g>
<!-- Node39&#45;&gt;Node1 -->
<g id="edge52" class="edge">
<title>Node39&#45;&gt;Node1</title>
<path fill="none" stroke="#191970" d="M1424.2212,-515.2961C1421.9678,-493.0113 1413.6464,-437.4481 1385,-403 1320.0748,-324.9255 1206.0633,-278.4128 1144.4274,-257.76"/>
<polygon fill="#191970" stroke="#191970" points="1145.2308,-254.3402 1134.6381,-254.5503 1143.0498,-260.9918 1145.2308,-254.3402"/>
</g>
<!-- Node39&#45;&gt;Node5 -->
<g id="edge56" class="edge">
<title>Node39&#45;&gt;Node5</title>
<path fill="none" stroke="#191970" d="M1378.499,-517.0656C1333.1255,-508.9353 1262.317,-495.2129 1202,-479 1200.5751,-478.617 1199.1188,-478.2042 1197.6533,-477.7721"/>
<polygon fill="#191970" stroke="#191970" points="1198.6756,-474.4246 1188.0858,-474.7512 1196.5679,-481.0998 1198.6756,-474.4246"/>
</g>
<!-- Node39&#45;&gt;Node9 -->
<g id="edge59" class="edge">
<title>Node39&#45;&gt;Node9</title>
<path fill="none" stroke="#191970" d="M1414.4996,-515.2704C1398.8643,-501.212 1368.0679,-475.1392 1338,-459 1295.2726,-436.0658 1266.768,-459.6387 1235,-423 1165.781,-343.1683 1171.039,-204.1234 1175.7443,-152.7827"/>
<polygon fill="#191970" stroke="#191970" points="1179.2397,-153.0055 1176.77,-142.7025 1172.2756,-152.2968 1179.2397,-153.0055"/>
</g>
<!-- Node39&#45;&gt;Node10 -->
<g id="edge60" class="edge">
<title>Node39&#45;&gt;Node10</title>
<path fill="none" stroke="#191970" d="M1471.5799,-522.0386C1560.88,-515.897 1749.1274,-500.5285 1769,-479 1808.8485,-435.8311 1770.7977,-405.5183 1776,-347 1778.2211,-322.016 1779.4074,-315.824 1783,-291 1790.2379,-240.9879 1800.3061,-182.3368 1805.5359,-152.5311"/>
<polygon fill="#191970" stroke="#191970" points="1808.9976,-153.0542 1807.2873,-142.5983 1802.1039,-151.8385 1808.9976,-153.0542"/>
</g>
<!-- Node39&#45;&gt;Node11 -->
<g id="edge58" class="edge">
<title>Node39&#45;&gt;Node11</title>
<path fill="none" stroke="#191970" d="M1441.9841,-515.368C1469.3095,-498.4638 1520,-460.6798 1520,-413 1520,-413 1520,-413 1520,-357 1520,-300.339 1527.8654,-283.5968 1557,-235 1568.6348,-215.593 1578.2534,-216.1621 1593,-199 1606.1148,-183.737 1683.703,-76.7621 1714.961,-33.5466"/>
<polygon fill="#191970" stroke="#191970" points="1717.8653,-35.5031 1720.888,-25.3486 1712.1926,-31.4018 1717.8653,-35.5031"/>
</g>
<!-- Node39&#45;&gt;Node26 -->
<g id="edge85" class="edge">
<title>Node39&#45;&gt;Node26</title>
<path fill="none" stroke="#191970" d="M1378.4307,-518.2356C1338.1134,-511.3976 1278.7745,-498.95 1230,-479 1214.1265,-472.5073 1213.4073,-463.9924 1197,-459 863.2944,-357.4614 750.0998,-512.6284 413,-423 394.1744,-417.9946 391.4026,-411.7526 374,-403 341.6821,-386.7458 320.1029,-397.7201 301,-367 296.3061,-359.4515 297.4257,-355.1386 301,-347 318.2079,-307.8175 358.719,-277.0754 385.7438,-259.977"/>
<polygon fill="#191970" stroke="#191970" points="387.6418,-262.9189 394.3386,-254.709 383.9837,-256.9508 387.6418,-262.9189"/>
</g>
<!-- Node39&#45;&gt;Node32 -->
<g id="edge55" class="edge">
<title>Node39&#45;&gt;Node32</title>
<path fill="none" stroke="#191970" d="M1433.9063,-515.3544C1449.9375,-496.945 1482,-454.8901 1482,-413 1482,-413 1482,-413 1482,-357 1482,-274.4438 1426.6319,-187.3869 1400.4348,-150.8167"/>
<polygon fill="#191970" stroke="#191970" points="1403.1831,-148.6456 1394.4545,-142.6405 1397.5332,-152.7782 1403.1831,-148.6456"/>
</g>
<!-- Node39&#45;&gt;Node35 -->
<g id="edge67" class="edge">
<title>Node39&#45;&gt;Node35</title>
<path fill="none" stroke="#191970" d="M1469.3153,-515.4787C1491.3962,-508.6722 1516.9506,-497.3643 1534,-479 1576.2449,-433.497 1588.8403,-357.2202 1592.5215,-321.1135"/>
<polygon fill="#191970" stroke="#191970" points="1596.0308,-321.1626 1593.4297,-310.892 1589.0583,-320.5429 1596.0308,-321.1626"/>
</g>
<!-- Node39&#45;&gt;Node37 -->
<g id="edge68" class="edge">
<title>Node39&#45;&gt;Node37</title>
<path fill="none" stroke="#191970" d="M1391.4309,-515.4477C1361.4452,-506.6901 1316.4471,-492.9921 1278,-479 1256.2824,-471.0963 1252.4394,-464.5313 1230,-459 1143.7376,-437.7364 883.9533,-421.9796 768.4349,-415.83"/>
<polygon fill="#191970" stroke="#191970" points="768.5489,-412.3312 758.3784,-415.2995 768.1802,-419.3215 768.5489,-412.3312"/>
</g>
<!-- Node39&#45;&gt;Node38 -->
<g id="edge80" class="edge">
<title>Node39&#45;&gt;Node38</title>
<path fill="none" stroke="#191970" d="M1402.4338,-515.4572C1359.8128,-497.4412 1271.4082,-460.1122 1268,-459 1138.3338,-416.6868 981.3964,-383.9531 897.5925,-367.899"/>
<polygon fill="#191970" stroke="#191970" points="898.2198,-364.4557 887.7418,-366.0244 896.9111,-371.3323 898.2198,-364.4557"/>
</g>
<!-- Node40 -->
<g id="node29" class="node">
<title>Node40</title>
<polygon fill="#ffffff" stroke="#bfbfbf" points="1586,-459.5 1586,-478.5 1694,-478.5 1694,-459.5 1586,-459.5"/>
<text text-anchor="middle" x="1640" y="-466.5" font-family="Helvetica,sans-Serif" font-size="10.00" fill="#000000">boost/signals2.hpp</text>
</g>
<!-- Node39&#45;&gt;Node40 -->
<g id="edge53" class="edge">
<title>Node39&#45;&gt;Node40</title>
<path fill="none" stroke="#191970" d="M1461.9598,-515.3733C1498.4075,-505.8799 1554.2246,-491.3415 1593.6289,-481.0781"/>
<polygon fill="#191970" stroke="#191970" points="1594.7276,-484.4087 1603.5225,-478.5011 1592.9631,-477.6348 1594.7276,-484.4087"/>
</g>
<!-- Node41 -->
<g id="node30" class="node">
<title>Node41</title>
<polygon fill="#ffffff" stroke="#bfbfbf" points="1712.5,-459.5 1712.5,-478.5 1759.5,-478.5 1759.5,-459.5 1712.5,-459.5"/>
<text text-anchor="middle" x="1736" y="-466.5" font-family="Helvetica,sans-Serif" font-size="10.00" fill="#000000">deque</text>
</g>
<!-- Node39&#45;&gt;Node41 -->
<g id="edge54" class="edge">
<title>Node39&#45;&gt;Node41</title>
<path fill="none" stroke="#191970" d="M1471.6021,-519.1785C1525.115,-512.0754 1615.6458,-498.7816 1702.5508,-478.8523"/>
<polygon fill="#191970" stroke="#191970" points="1703.3599,-482.2576 1712.3069,-476.583 1701.7739,-475.4396 1703.3599,-482.2576"/>
</g>
<!-- Node42 -->
<g id="node31" class="node">
<title>Node42</title>
<polygon fill="#ffffff" stroke="#bfbfbf" points="1830,-235.5 1830,-254.5 1868,-254.5 1868,-235.5 1830,-235.5"/>
<text text-anchor="middle" x="1849" y="-242.5" font-family="Helvetica,sans-Serif" font-size="10.00" fill="#000000">map</text>
</g>
<!-- Node39&#45;&gt;Node42 -->
<g id="edge57" class="edge">
<title>Node39&#45;&gt;Node42</title>
<path fill="none" stroke="#191970" d="M1471.5799,-522.0386C1560.88,-515.897 1749.1274,-500.5285 1769,-479 1825.8312,-417.4332 1739.6902,-362.7252 1783,-291 1791.7988,-276.4284 1807.1785,-265.3054 1820.8789,-257.65"/>
<polygon fill="#191970" stroke="#191970" points="1822.7404,-260.6268 1829.994,-252.9043 1819.5078,-254.4179 1822.7404,-260.6268"/>
</g>
<!-- Node43 -->
<g id="node32" class="node">
<title>Node43</title>
<g id="a_node32"><a xlink:href="BoundingBox_8hpp.html" target="_top" xlink:title="mesh/BoundingBox.hpp">
<polygon fill="#ffffff" stroke="#000000" points="1244,-403.5 1244,-422.5 1376,-422.5 1376,-403.5 1244,-403.5"/>
<text text-anchor="middle" x="1310" y="-410.5" font-family="Helvetica,sans-Serif" font-size="10.00" fill="#000000">mesh/BoundingBox.hpp</text>
</a>
</g>
</g>
<!-- Node39&#45;&gt;Node43 -->
<g id="edge61" class="edge">
<title>Node39&#45;&gt;Node43</title>
<path fill="none" stroke="#191970" d="M1420.2721,-515.1249C1413.3245,-501.3506 1399.2894,-476.136 1382,-459 1369.2958,-446.4085 1352.5847,-435.4728 1338.4604,-427.4268"/>
<polygon fill="#191970" stroke="#191970" points="1340.0698,-424.3176 1329.6203,-422.5684 1336.6982,-430.4522 1340.0698,-424.3176"/>
</g>
<!-- Node39&#45;&gt;Node44 -->
<g id="edge69" class="edge">
<title>Node39&#45;&gt;Node44</title>
<path fill="none" stroke="#191970" d="M1471.7631,-522.4187C1655.2953,-511.6503 2325.313,-466.1701 2510,-367 2534.2737,-353.9659 2585.5358,-293.492 2610.5959,-262.8698"/>
<polygon fill="#191970" stroke="#191970" points="2613.6064,-264.7152 2617.2,-254.7484 2608.1754,-260.2988 2613.6064,-264.7152"/>
</g>
<!-- Node39&#45;&gt;Node45 -->
<g id="edge71" class="edge">
<title>Node39&#45;&gt;Node45</title>
<path fill="none" stroke="#191970" d="M1378.3068,-522.1266C1227.1799,-512.8265 751.1863,-483.5345 578.4332,-472.9036"/>
<polygon fill="#191970" stroke="#191970" points="578.4271,-469.3967 568.2309,-472.2758 577.997,-476.3835 578.4271,-469.3967"/>
</g>
<!-- Node48 -->
<g id="node36" class="node">
<title>Node48</title>
<g id="a_node36"><a xlink:href="ManageUniqueIDs_8hpp.html" target="_top" xlink:title="utils/ManageUniqueIDs.hpp">
<polygon fill="#ffffff" stroke="#ff0000" points="1785,-347.5 1785,-366.5 1935,-366.5 1935,-347.5 1785,-347.5"/>
<text text-anchor="middle" x="1860" y="-354.5" font-family="Helvetica,sans-Serif" font-size="10.00" fill="#000000">utils/ManageUniqueIDs.hpp</text>
</a>
</g>
</g>
<!-- Node39&#45;&gt;Node48 -->
<g id="edge81" class="edge">
<title>Node39&#45;&gt;Node48</title>
<path fill="none" stroke="#191970" d="M1471.7274,-522.9601C1574.6066,-518.0281 1813.6793,-503.984 1840,-479 1867.6508,-452.7534 1866.5592,-404.1953 1863.2991,-376.923"/>
<polygon fill="#191970" stroke="#191970" points="1866.7142,-376.0757 1861.8467,-366.6652 1859.7833,-377.0572 1866.7142,-376.0757"/>
</g>
<!-- Node51 -->
<g id="node37" class="node">
<title>Node51</title>
<g id="a_node37"><a xlink:href="PointerVector_8hpp.html" target="_top" xlink:title="utils/PointerVector.hpp">
<polygon fill="#ffffff" stroke="#ff0000" points="736,-291.5 736,-310.5 862,-310.5 862,-291.5 736,-291.5"/>
<text text-anchor="middle" x="799" y="-298.5" font-family="Helvetica,sans-Serif" font-size="10.00" fill="#000000">utils/PointerVector.hpp</text>
</a>
</g>
</g>
<!-- Node39&#45;&gt;Node51 -->
<g id="edge82" class="edge">
<title>Node39&#45;&gt;Node51</title>
<path fill="none" stroke="#191970" d="M1409.5111,-515.3842C1387.0509,-501.6968 1343.8689,-476.3365 1305,-459 1260.7122,-439.2466 1247.4875,-439.8075 1202,-423 1114.7492,-390.761 1096.008,-374.0117 1007,-347 959.43,-332.5637 904.4703,-320.6055 862.9959,-312.503"/>
<polygon fill="#191970" stroke="#191970" points="863.5057,-309.0369 853.0236,-310.5782 862.1791,-315.91 863.5057,-309.0369"/>
</g>
<!-- Node43&#45;&gt;Node1 -->
<g id="edge62" class="edge">
<title>Node43&#45;&gt;Node1</title>
<path fill="none" stroke="#191970" d="M1298.2211,-403.4862C1264.0508,-375.8872 1164.6168,-295.5751 1121.8909,-261.0657"/>
<polygon fill="#191970" stroke="#191970" points="1123.8862,-258.1783 1113.9076,-254.6177 1119.4878,-263.6239 1123.8862,-258.1783"/>
</g>
<!-- Node43&#45;&gt;Node9 -->
<g id="edge64" class="edge">
<title>Node43&#45;&gt;Node9</title>
<path fill="none" stroke="#191970" d="M1307.421,-403.4945C1302.4439,-384.2857 1292,-339.4032 1292,-301 1292,-301 1292,-301 1292,-245 1292,-198.4628 1243.0617,-164.828 1209.3136,-147.1659"/>
<polygon fill="#191970" stroke="#191970" points="1210.7576,-143.9746 1200.251,-142.6105 1207.6138,-150.2289 1210.7576,-143.9746"/>
</g>
<!-- Node43&#45;&gt;Node10 -->
<g id="edge65" class="edge">
<title>Node43&#45;&gt;Node10</title>
<path fill="none" stroke="#191970" d="M1321.1629,-403.431C1354.8802,-374.8753 1459.3681,-288.9119 1557,-235 1628.4659,-195.5369 1718.4005,-162.8364 1769.2214,-145.7756"/>
<polygon fill="#191970" stroke="#191970" points="1770.4624,-149.0515 1778.847,-142.5747 1768.2535,-142.4091 1770.4624,-149.0515"/>
</g>
<!-- Node43&#45;&gt;Node32 -->
<g id="edge63" class="edge">
<title>Node43&#45;&gt;Node32</title>
<path fill="none" stroke="#191970" d="M1312.9511,-403.2168C1318.5144,-383.8801 1330,-339.3189 1330,-301 1330,-301 1330,-301 1330,-245 1330,-208.1826 1354.7675,-171.2377 1371.6501,-150.3313"/>
<polygon fill="#191970" stroke="#191970" points="1374.3511,-152.5574 1378.0938,-142.6456 1368.9869,-148.06 1374.3511,-152.5574"/>
</g>
<!-- Node43&#45;&gt;Node38 -->
<g id="edge66" class="edge">
<title>Node43&#45;&gt;Node38</title>
<path fill="none" stroke="#191970" d="M1243.6898,-406.7889C1164.058,-399.0664 1026.2138,-384.8624 897.5766,-367.0102"/>
<polygon fill="#191970" stroke="#191970" points="897.931,-363.5258 887.5427,-365.6076 896.9618,-370.4584 897.931,-363.5258"/>
</g>
<!-- Node44&#45;&gt;Node6 -->
<g id="edge70" class="edge">
<title>Node44&#45;&gt;Node6</title>
<path fill="none" stroke="#191970" d="M2620.6351,-235.1827C2610.194,-212.6596 2581.7338,-156.6295 2543,-123 2526.6213,-108.7796 2505.0789,-97.8752 2486.6494,-90.2605"/>
<polygon fill="#191970" stroke="#191970" points="2487.9259,-87.0016 2477.3396,-86.5782 2485.3513,-93.511 2487.9259,-87.0016"/>
</g>
<!-- Node45&#45;&gt;Node1 -->
<g id="edge72" class="edge">
<title>Node45&#45;&gt;Node1</title>
<path fill="none" stroke="#191970" d="M529.9817,-459.4446C566.1987,-436.7419 661.9453,-379.0736 749,-347 816.1745,-322.2508 839.1593,-336.6371 906,-311 923.0894,-304.4453 925.0957,-298.0183 942,-291 979.6961,-275.3493 1024.4907,-262.9679 1057.0817,-255.0112"/>
<polygon fill="#191970" stroke="#191970" points="1058.3005,-258.3183 1067.2099,-252.5848 1056.6696,-251.511 1058.3005,-258.3183"/>
</g>
<!-- Node45&#45;&gt;Node2 -->
<g id="edge73" class="edge">
<title>Node45&#45;&gt;Node2</title>
<path fill="none" stroke="#191970" d="M461.8179,-464.7642C383.5579,-458.1367 232.9129,-443.8758 106,-423 104.7299,-422.7911 103.4419,-422.57 102.1431,-422.3391"/>
<polygon fill="#191970" stroke="#191970" points="102.5704,-418.8574 92.0905,-420.4136 101.2535,-425.7324 102.5704,-418.8574"/>
</g>
<!-- Node45&#45;&gt;Node24 -->
<g id="edge74" class="edge">
<title>Node45&#45;&gt;Node24</title>
<path fill="none" stroke="#191970" d="M461.9032,-464.5852C380.0699,-457.2373 230.8513,-441.4671 215,-423 187.674,-391.1646 257.0363,-371.3454 299.9813,-362.4707"/>
<polygon fill="#191970" stroke="#191970" points="300.8611,-365.8648 309.9962,-360.4981 299.5083,-358.9967 300.8611,-365.8648"/>
</g>
<!-- Node45&#45;&gt;Node25 -->
<g id="edge76" class="edge">
<title>Node45&#45;&gt;Node25</title>
<path fill="none" stroke="#191970" d="M520.9461,-459.4862C537.8316,-432.4695 586.2872,-354.9405 608.5562,-319.3102"/>
<polygon fill="#191970" stroke="#191970" points="611.5255,-321.1629 613.8576,-310.8279 605.5895,-317.4529 611.5255,-321.1629"/>
</g>
<!-- Node45&#45;&gt;Node26 -->
<g id="edge79" class="edge">
<title>Node45&#45;&gt;Node26</title>
<path fill="none" stroke="#191970" d="M461.8478,-464.8601C377.6839,-457.76 221.5248,-442.1578 205,-423 169.2717,-381.5789 126.7983,-406.0753 268,-291 290.9206,-272.3204 321.557,-261.173 348.6786,-254.5459"/>
<polygon fill="#191970" stroke="#191970" points="349.5222,-257.9434 358.491,-252.3033 347.9625,-251.1194 349.5222,-257.9434"/>
</g>
<!-- Node45&#45;&gt;Node28 -->
<g id="edge75" class="edge">
<title>Node45&#45;&gt;Node28</title>
<path fill="none" stroke="#191970" d="M461.7488,-466.1028C379.942,-460.9196 227.7875,-448.1661 180,-423 144.9238,-404.528 120,-396.6428 120,-357 120,-357 120,-357 120,-301 120,-260.9033 154.0809,-224.8785 177.1871,-205.0622"/>
<polygon fill="#191970" stroke="#191970" points="179.6337,-207.5811 185.1199,-198.5173 175.1789,-202.1816 179.6337,-207.5811"/>
</g>
<!-- Node45&#45;&gt;Node37 -->
<g id="edge77" class="edge">
<title>Node45&#45;&gt;Node37</title>
<path fill="none" stroke="#191970" d="M548.8655,-459.3733C582.049,-449.9404 632.755,-435.5265 668.8194,-425.2747"/>
<polygon fill="#191970" stroke="#191970" points="669.9145,-428.6021 678.5764,-422.5011 668.0005,-421.8689 669.9145,-428.6021"/>
</g>
<!-- Node46 -->
<g id="node35" class="node">
<title>Node46</title>
<g id="a_node35"><a xlink:href="RangeAccessor_8hpp.html" target="_top" xlink:title="mesh/RangeAccessor.hpp">
<polygon fill="#ffffff" stroke="#ff0000" points="224.5,-403.5 224.5,-422.5 365.5,-422.5 365.5,-403.5 224.5,-403.5"/>
<text text-anchor="middle" x="295" y="-410.5" font-family="Helvetica,sans-Serif" font-size="10.00" fill="#000000">mesh/RangeAccessor.hpp</text>
</a>
</g>
</g>
<!-- Node45&#45;&gt;Node46 -->
<g id="edge78" class="edge">
<title>Node45&#45;&gt;Node46</title>
<path fill="none" stroke="#191970" d="M477.1807,-459.3733C439.8062,-449.8598 382.5276,-435.2797 342.1929,-425.0127"/>
<polygon fill="#191970" stroke="#191970" points="342.8802,-421.5761 332.3258,-422.5011 341.1534,-428.3598 342.8802,-421.5761"/>
</g>
<!-- Node51&#45;&gt;Node9 -->
<g id="edge83" class="edge">
<title>Node51&#45;&gt;Node9</title>
<path fill="none" stroke="#191970" d="M820.4626,-291.4862C884.1545,-263.2534 1072.289,-179.8587 1146.9539,-146.7619"/>
<polygon fill="#191970" stroke="#191970" points="1148.5793,-149.8699 1156.303,-142.6177 1145.7426,-143.4704 1148.5793,-149.8699"/>
</g>
<!-- Node51&#45;&gt;Node26 -->
<g id="edge84" class="edge">
<title>Node51&#45;&gt;Node26</title>
<path fill="none" stroke="#191970" d="M735.9605,-291.878C664.3066,-281.5095 547.9778,-264.6764 475.9486,-254.2536"/>
<polygon fill="#191970" stroke="#191970" points="476.0516,-250.7321 465.6534,-252.7638 475.0491,-257.6599 476.0516,-250.7321"/>
</g>
<!-- Node53&#45;&gt;Node6 -->
<g id="edge90" class="edge">
<title>Node53&#45;&gt;Node6</title>
<path fill="none" stroke="#191970" d="M985.6163,-576.2935C1004.9616,-574.4799 1027.5358,-572.4887 1048,-571 1340.5525,-549.7183 1415.7169,-569.5552 1707,-535 1980.7236,-502.5279 2048.7414,-486.375 2317,-423 2403.9229,-402.4648 2446.9107,-430.222 2510,-367 2531.5615,-345.3932 2529,-331.5246 2529,-301 2529,-301 2529,-301 2529,-189 2529,-148.4297 2493.6719,-112.5972 2469.6782,-92.9394"/>
<polygon fill="#191970" stroke="#191970" points="2471.76,-90.1237 2461.7405,-86.6795 2467.4253,-95.6202 2471.76,-90.1237"/>
</g>
<!-- Node53&#45;&gt;Node9 -->
<g id="edge91" class="edge">
<title>Node53&#45;&gt;Node9</title>
<path fill="none" stroke="#191970" d="M890.2671,-575.0542C834.0017,-567.3713 744.5353,-552.8401 716,-535 603.28,-464.5281 493.8219,-414.5055 543,-291 555.6771,-259.1627 567.2752,-253.6871 596,-235 658.4503,-194.3727 681.3645,-195.5742 754,-179 896.4753,-146.4895 1071.2854,-136.7661 1143.8856,-134.0175"/>
<polygon fill="#191970" stroke="#191970" points="1144.3715,-137.5025 1154.24,-133.6472 1144.1213,-130.5069 1144.3715,-137.5025"/>
</g>
<!-- Node53&#45;&gt;Node10 -->
<g id="edge92" class="edge">
<title>Node53&#45;&gt;Node10</title>
<path fill="none" stroke="#191970" d="M985.6399,-576.5884C1004.9886,-574.8177 1027.559,-572.7789 1048,-571 1208.9132,-556.9967 1663.9623,-601.7038 1769,-479 1775.7968,-471.0601 1775.0652,-301.4098 1776,-291 1778.2486,-265.9592 1780.2274,-259.8569 1784,-235 1787.7826,-210.0772 1786.8356,-203.4429 1793,-179 1795.268,-170.007 1798.5298,-160.2756 1801.5174,-152.0895"/>
<polygon fill="#191970" stroke="#191970" points="1804.7976,-153.3103 1805.0597,-142.7187 1798.2498,-150.8351 1804.7976,-153.3103"/>
</g>
<!-- Node53&#45;&gt;Node37 -->
<g id="edge101" class="edge">
<title>Node53&#45;&gt;Node37</title>
<path fill="none" stroke="#191970" d="M890.3853,-576.5856C850.9093,-571.2722 794.4302,-559.74 751,-535 720.6878,-517.7327 709.2047,-511.2897 696,-479 689.7409,-463.6946 695.1422,-445.35 701.3061,-431.8901"/>
<polygon fill="#191970" stroke="#191970" points="704.5762,-433.181 705.9879,-422.6806 698.3362,-430.0088 704.5762,-433.181"/>
</g>
<!-- Node53&#45;&gt;Node38 -->
<g id="edge104" class="edge">
<title>Node53&#45;&gt;Node38</title>
<path fill="none" stroke="#191970" d="M937.2421,-571.3456C935.9925,-558.2555 932.9131,-534.2963 926,-515 906.6864,-461.0903 870.2268,-403.8001 850.8547,-375.3086"/>
<polygon fill="#191970" stroke="#191970" points="853.5457,-373.0453 844.9896,-366.7968 847.7816,-377.0172 853.5457,-373.0453"/>
</g>
<!-- Node53&#45;&gt;Node43 -->
<g id="edge100" class="edge">
<title>Node53&#45;&gt;Node43</title>
<path fill="none" stroke="#191970" d="M951.5482,-571.4345C983.9188,-548.9588 1068.8874,-492.1834 1147,-459 1181.6767,-444.2688 1222.4754,-432.7602 1254.5805,-424.9387"/>
<polygon fill="#191970" stroke="#191970" points="1255.7651,-428.2544 1264.6799,-422.5294 1254.1407,-421.4455 1255.7651,-428.2544"/>
</g>
<!-- Node53&#45;&gt;Node44 -->
<g id="edge102" class="edge">
<title>Node53&#45;&gt;Node44</title>
<path fill="none" stroke="#191970" d="M985.5964,-575.9896C1004.9388,-574.1318 1027.5162,-572.1896 1048,-571 1126.726,-566.4278 2399.5776,-575.9013 2467,-535 2569.2841,-472.95 2609.7964,-319.3915 2621.2823,-264.7187"/>
<polygon fill="#191970" stroke="#191970" points="2624.7725,-265.1142 2623.3044,-254.6215 2617.9088,-263.7395 2624.7725,-265.1142"/>
</g>
<!-- Node53&#45;&gt;Node45 -->
<g id="edge103" class="edge">
<title>Node53&#45;&gt;Node45</title>
<path fill="none" stroke="#191970" d="M890.4138,-578.7704C830.0636,-574.8116 723.4518,-564.0116 637,-535 600.1169,-522.6227 561.1988,-499.5827 537.5029,-484.2671"/>
<polygon fill="#191970" stroke="#191970" points="539.1904,-481.1879 528.9116,-478.6193 535.3451,-487.0372 539.1904,-481.1879"/>
</g>
<!-- Node54 -->
<g id="node39" class="node">
<title>Node54</title>
<g id="a_node39"><a xlink:href="Polation_8hpp.html" target="_top" xlink:title="mapping/Polation.hpp">
<polygon fill="#ffffff" stroke="#000000" points="793.5,-515.5 793.5,-534.5 916.5,-534.5 916.5,-515.5 793.5,-515.5"/>
<text text-anchor="middle" x="855" y="-522.5" font-family="Helvetica,sans-Serif" font-size="10.00" fill="#000000">mapping/Polation.hpp</text>
</a>
</g>
</g>
<!-- Node53&#45;&gt;Node54 -->
<g id="edge93" class="edge">
<title>Node53&#45;&gt;Node54</title>
<path fill="none" stroke="#191970" d="M923.5425,-571.2455C910.9268,-562.7337 892.4056,-550.2375 877.7955,-540.3801"/>
<polygon fill="#191970" stroke="#191970" points="879.5391,-537.3343 869.2918,-534.6427 875.6239,-543.1371 879.5391,-537.3343"/>
</g>
<!-- Node54&#45;&gt;Node1 -->
<g id="edge96" class="edge">
<title>Node54&#45;&gt;Node1</title>
<path fill="none" stroke="#191970" d="M864.9738,-515.3561C889.8251,-491.1751 956.1607,-425.6918 1007,-367 1037.8584,-331.3753 1071.0734,-287.2321 1088.8984,-263.0109"/>
<polygon fill="#191970" stroke="#191970" points="1091.8543,-264.8983 1094.9394,-254.7626 1086.207,-260.7622 1091.8543,-264.8983"/>
</g>
<!-- Node54&#45;&gt;Node9 -->
<g id="edge95" class="edge">
<title>Node54&#45;&gt;Node9</title>
<path fill="none" stroke="#191970" d="M850.406,-515.4015C839.1755,-492.8545 808.2087,-435.936 767,-403 746.6226,-386.7134 565.3846,-332.7618 551,-311 546.0984,-303.5847 545.5362,-298.0114 551,-291 625.9337,-194.8409 1025.0394,-148.1176 1144.3126,-136.1622"/>
<polygon fill="#191970" stroke="#191970" points="1144.7225,-139.6388 1154.3307,-135.1743 1144.0355,-132.6726 1144.7225,-139.6388"/>
</g>
<!-- Node54&#45;&gt;Node32 -->
<g id="edge94" class="edge">
<title>Node54&#45;&gt;Node32</title>
<path fill="none" stroke="#191970" d="M893.0809,-515.4683C948.6478,-501.7708 1055.3207,-476.2714 1147,-459 1199.5658,-449.0971 1349.9798,-463.4329 1385,-423 1453.3186,-344.1222 1412.3265,-202.8819 1394.2401,-151.9574"/>
<polygon fill="#191970" stroke="#191970" points="1397.5065,-150.6987 1390.7759,-142.5164 1390.9349,-153.11 1397.5065,-150.6987"/>
</g>
<!-- Node54&#45;&gt;Node37 -->
<g id="edge97" class="edge">
<title>Node54&#45;&gt;Node37</title>
<path fill="none" stroke="#191970" d="M842.8079,-515.4509C818.2185,-496.1921 762.4609,-452.5218 732.2926,-428.8935"/>
<polygon fill="#191970" stroke="#191970" points="734.1921,-425.9355 724.1612,-422.5249 729.8759,-431.4464 734.1921,-425.9355"/>
</g>
<!-- Node54&#45;&gt;Node38 -->
<g id="edge99" class="edge">
<title>Node54&#45;&gt;Node38</title>
<path fill="none" stroke="#191970" d="M854.0373,-515.4862C851.35,-488.9293 843.7239,-413.5651 840.0406,-377.1655"/>
<polygon fill="#191970" stroke="#191970" points="843.4836,-376.4247 838.9945,-366.8279 836.5191,-377.1295 843.4836,-376.4247"/>
</g>
<!-- Node54&#45;&gt;Node45 -->
<g id="edge98" class="edge">
<title>Node54&#45;&gt;Node45</title>
<path fill="none" stroke="#191970" d="M796.9382,-515.4369C736.1225,-505.4202 640.9012,-489.7367 578.2211,-479.4129"/>
<polygon fill="#191970" stroke="#191970" points="578.5029,-475.9122 568.067,-477.7404 577.3652,-482.8192 578.5029,-475.9122"/>
</g>
<!-- Node55&#45;&gt;Node42 -->
<g id="edge106" class="edge">
<title>Node55&#45;&gt;Node42</title>
<path fill="none" stroke="#191970" d="M1171.7602,-633.2319C1354.1763,-622.017 1862.5095,-586.4065 1916,-535 1976.9091,-476.4639 1995.011,-414.337 1944,-347 1908.3152,-299.8944 1851.6848,-358.1056 1816,-311 1804.4895,-295.8056 1817.5083,-275.977 1830.4304,-262.0347"/>
<polygon fill="#191970" stroke="#191970" points="1833.2698,-264.1431 1837.8414,-254.5853 1828.3073,-259.2062 1833.2698,-264.1431"/>
</g>
<!-- Node56 -->
<g id="node41" class="node">
<title>Node56</title>
<g id="a_node41"><a xlink:href="RTreeAdapter_8hpp.html" target="_top" xlink:title="RTreeAdapter.hpp">
<polygon fill="#ffffff" stroke="#ff0000" points="1056.5,-571.5 1056.5,-590.5 1157.5,-590.5 1157.5,-571.5 1056.5,-571.5"/>
<text text-anchor="middle" x="1107" y="-578.5" font-family="Helvetica,sans-Serif" font-size="10.00" fill="#000000">RTreeAdapter.hpp</text>
</a>
</g>
</g>
<!-- Node55&#45;&gt;Node56 -->
<g id="edge107" class="edge">
<title>Node55&#45;&gt;Node56</title>
<path fill="none" stroke="#191970" d="M1107,-627.2455C1107,-619.9382 1107,-609.6944 1107,-600.7046"/>
<polygon fill="#191970" stroke="#191970" points="1110.5001,-600.6426 1107,-590.6427 1103.5001,-600.6427 1110.5001,-600.6426"/>
</g>
<!-- Node56&#45;&gt;Node1 -->
<g id="edge108" class="edge">
<title>Node56&#45;&gt;Node1</title>
<path fill="none" stroke="#191970" d="M1108.5272,-571.4153C1114.1069,-534.77 1132.2364,-400.1121 1116,-291 1114.6673,-282.0439 1111.9506,-272.419 1109.2619,-264.3"/>
<polygon fill="#191970" stroke="#191970" points="1112.4936,-262.9402 1105.8624,-254.6772 1105.8933,-265.272 1112.4936,-262.9402"/>
</g>
<!-- Node56&#45;&gt;Node37 -->
<g id="edge109" class="edge">
<title>Node56&#45;&gt;Node37</title>
<path fill="none" stroke="#191970" d="M1056.2683,-576.1653C971.2681,-567.7099 807.1608,-549.7335 785,-535 747.9826,-510.3892 726.9203,-460.0276 717.6845,-432.326"/>
<polygon fill="#191970" stroke="#191970" points="720.9653,-431.0916 714.6221,-422.6054 714.2888,-433.195 720.9653,-431.0916"/>
</g>
<!-- Node56&#45;&gt;Node38 -->
<g id="edge111" class="edge">
<title>Node56&#45;&gt;Node38</title>
<path fill="none" stroke="#191970" d="M1095.4414,-571.375C1053.6223,-536.5517 909.906,-416.8771 857.4027,-373.1569"/>
<polygon fill="#191970" stroke="#191970" points="859.4398,-370.2986 849.5155,-366.5891 854.9604,-375.6778 859.4398,-370.2986"/>
</g>
<!-- Node56&#45;&gt;Node39 -->
<g id="edge110" class="edge">
<title>Node56&#45;&gt;Node39</title>
<path fill="none" stroke="#191970" d="M1157.7397,-572.0647C1215.1763,-561.9501 1308.5065,-545.5146 1368.2972,-534.9854"/>
<polygon fill="#191970" stroke="#191970" points="1369.0825,-538.4011 1378.3239,-533.2197 1367.8684,-531.5071 1369.0825,-538.4011"/>
</g>
<!-- Node58&#45;&gt;Node8 -->
<g id="edge116" class="edge">
<title>Node58&#45;&gt;Node8</title>
<path fill="none" stroke="#191970" d="M2368.7859,-348.8279C2308.5468,-340.8923 2217.3449,-327.6223 2139,-311 2137.5354,-310.6893 2136.0425,-310.3559 2134.5375,-310.0063"/>
<polygon fill="#191970" stroke="#191970" points="2135.1523,-306.5525 2124.6027,-307.5308 2133.4598,-313.3449 2135.1523,-306.5525"/>
</g>
<!-- Node58&#45;&gt;Node9 -->
<g id="edge117" class="edge">
<title>Node58&#45;&gt;Node9</title>
<path fill="none" stroke="#191970" d="M2368.8613,-348.5279C2301.8377,-339.429 2203.0431,-324.4609 2167,-311 2150.9338,-304.9998 2149.9285,-297.3566 2134,-291 2106.856,-280.1676 1905.8969,-239.3711 1877,-235 1692.194,-207.0453 1642.5625,-228.5193 1458,-199 1367.8433,-184.5802 1263.663,-157.098 1211.4638,-142.5629"/>
<polygon fill="#191970" stroke="#191970" points="1212.3102,-139.1653 1201.7366,-139.8363 1210.4208,-145.9055 1212.3102,-139.1653"/>
</g>
<!-- Node58&#45;&gt;Node11 -->
<g id="edge114" class="edge">
<title>Node58&#45;&gt;Node11</title>
<path fill="none" stroke="#191970" d="M2423.2118,-347.3946C2413.1247,-338.7066 2398.7328,-325.1413 2389,-311 2337.1147,-235.6128 2370.235,-187.1849 2305,-123 2259.865,-78.5915 2235.1994,-83.2454 2174,-67 2022.8512,-26.8776 1834.6775,-18.0125 1760.352,-16.0546"/>
<polygon fill="#191970" stroke="#191970" points="1760.3107,-12.5527 1750.23,-15.8129 1760.1436,-19.5507 1760.3107,-12.5527"/>
</g>
<!-- Node58&#45;&gt;Node31 -->
<g id="edge129" class="edge">
<title>Node58&#45;&gt;Node31</title>
<path fill="none" stroke="#191970" d="M2368.9629,-347.6721C2323.554,-340.251 2262.2539,-328.23 2210,-311 2189.9829,-304.3997 2186.6502,-298.6234 2167,-291 2089.6808,-261.0038 2070.2099,-251.8218 1989,-235 1847.2906,-205.6464 1675.9449,-194.6123 1594.4758,-190.8109"/>
<polygon fill="#191970" stroke="#191970" points="1594.2041,-187.2952 1584.0567,-190.3416 1593.8891,-194.2881 1594.2041,-187.2952"/>
</g>
<!-- Node59 -->
<g id="node43" class="node">
<title>Node59</title>
<polygon fill="#ffffff" stroke="#bfbfbf" points="2397.5,-291.5 2397.5,-310.5 2462.5,-310.5 2462.5,-291.5 2397.5,-291.5"/>
<text text-anchor="middle" x="2430" y="-298.5" font-family="Helvetica,sans-Serif" font-size="10.00" fill="#000000">stdexcept</text>
</g>
<!-- Node58&#45;&gt;Node59 -->
<g id="edge113" class="edge">
<title>Node58&#45;&gt;Node59</title>
<path fill="none" stroke="#191970" d="M2434.1291,-347.2455C2433.4766,-339.9382 2432.562,-329.6944 2431.7593,-320.7046"/>
<polygon fill="#191970" stroke="#191970" points="2435.2365,-320.2918 2430.861,-310.6427 2428.2642,-320.9143 2435.2365,-320.2918"/>
</g>
<!-- Node60 -->
<g id="node44" class="node">
<title>Node60</title>
<polygon fill="#ffffff" stroke="#bfbfbf" points="2117.5,-235.5 2117.5,-254.5 2186.5,-254.5 2186.5,-235.5 2117.5,-235.5"/>
<text text-anchor="middle" x="2152" y="-242.5" font-family="Helvetica,sans-Serif" font-size="10.00" fill="#000000">type_traits</text>
</g>
<!-- Node58&#45;&gt;Node60 -->
<g id="edge115" class="edge">
<title>Node58&#45;&gt;Node60</title>
<path fill="none" stroke="#191970" d="M2372.5101,-347.469C2335.2574,-340.3759 2287.6546,-328.7917 2248,-311 2219.0067,-297.9917 2189.4412,-276.0902 2170.9269,-261.1116"/>
<polygon fill="#191970" stroke="#191970" points="2172.9494,-258.2428 2163.0082,-254.5789 2168.4947,-263.6425 2172.9494,-258.2428"/>
</g>
<!-- Node61 -->
<g id="node45" class="node">
<title>Node61</title>
<g id="a_node45"><a xlink:href="M2N_8hpp.html" target="_top" xlink:title="m2n/M2N.hpp">
<polygon fill="#ffffff" stroke="#ff0000" points="2257,-291.5 2257,-310.5 2341,-310.5 2341,-291.5 2257,-291.5"/>
<text text-anchor="middle" x="2299" y="-298.5" font-family="Helvetica,sans-Serif" font-size="10.00" fill="#000000">m2n/M2N.hpp</text>
</a>
</g>
</g>
<!-- Node58&#45;&gt;Node61 -->
<g id="edge118" class="edge">
<title>Node58&#45;&gt;Node61</title>
<path fill="none" stroke="#191970" d="M2411.6208,-347.3733C2389.4955,-338.2629 2356.0866,-324.5062 2331.3981,-314.3404"/>
<polygon fill="#191970" stroke="#191970" points="2332.6536,-311.0723 2322.0742,-310.5011 2329.9883,-317.5451 2332.6536,-311.0723"/>
</g>
<!-- Node64 -->
<g id="node46" class="node">
<title>Node64</title>
<g id="a_node46"><a xlink:href="m2n_2SharedPointer_8hpp.html" target="_top" xlink:title="SharedPointer.hpp">
<polygon fill="#ffffff" stroke="#000000" points="2395.5,-235.5 2395.5,-254.5 2500.5,-254.5 2500.5,-235.5 2395.5,-235.5"/>
<text text-anchor="middle" x="2448" y="-242.5" font-family="Helvetica,sans-Serif" font-size="10.00" fill="#000000">SharedPointer.hpp</text>
</a>
</g>
</g>
<!-- Node58&#45;&gt;Node64 -->
<g id="edge128" class="edge">
<title>Node58&#45;&gt;Node64</title>
<path fill="none" stroke="#191970" d="M2446.1502,-347.3293C2455.0671,-338.8007 2466.8921,-325.5 2472,-311 2477.672,-294.8986 2469.9602,-276.6669 2461.8081,-263.4517"/>
<polygon fill="#191970" stroke="#191970" points="2464.4755,-261.1475 2455.9793,-254.8178 2458.6738,-265.0643 2464.4755,-261.1475"/>
</g>
<!-- Node61&#45;&gt;Node6 -->
<g id="edge120" class="edge">
<title>Node61&#45;&gt;Node6</title>
<path fill="none" stroke="#191970" d="M2305.4023,-291.375C2328.2318,-257.0543 2405.8849,-140.3139 2435.9623,-95.097"/>
<polygon fill="#191970" stroke="#191970" points="2438.9972,-96.8538 2441.6215,-86.5891 2433.1689,-92.9769 2438.9972,-96.8538"/>
</g>
<!-- Node61&#45;&gt;Node9 -->
<g id="edge123" class="edge">
<title>Node61&#45;&gt;Node9</title>
<path fill="none" stroke="#191970" d="M2284.2428,-291.2607C2256.9436,-273.284 2200.8782,-236.567 2196,-235 1901.5167,-140.4064 1801.1746,-273.5891 1501,-199 1480.5449,-193.9172 1478.1414,-185.2104 1458,-179 1371.6786,-152.3835 1265.3623,-140.2961 1211.9824,-135.5798"/>
<polygon fill="#191970" stroke="#191970" points="1211.9881,-132.0677 1201.7274,-134.7077 1211.3948,-139.0426 1211.9881,-132.0677"/>
</g>
<!-- Node61&#45;&gt;Node10 -->
<g id="edge126" class="edge">
<title>Node61&#45;&gt;Node10</title>
<path fill="none" stroke="#191970" d="M2291.4729,-291.3853C2279.6906,-276.9873 2255.4828,-249.9254 2229,-235 2114.5182,-170.4795 1960.1117,-146.5006 1873.9833,-137.7895"/>
<polygon fill="#191970" stroke="#191970" points="1874.1176,-134.2861 1863.8256,-136.8011 1873.4396,-141.2532 1874.1176,-134.2861"/>
</g>
<!-- Node61&#45;&gt;Node11 -->
<g id="edge121" class="edge">
<title>Node61&#45;&gt;Node11</title>
<path fill="none" stroke="#191970" d="M2297.8538,-291.4281C2295.6417,-272.0998 2291,-227.0133 2291,-189 2291,-189 2291,-189 2291,-133 2291,-78.3592 1879.3819,-31.2539 1760.0563,-18.7463"/>
<polygon fill="#191970" stroke="#191970" points="1760.3784,-15.261 1750.0703,-17.7091 1759.6552,-22.2236 1760.3784,-15.261"/>
</g>
<!-- Node61&#45;&gt;Node42 -->
<g id="edge119" class="edge">
<title>Node61&#45;&gt;Node42</title>
<path fill="none" stroke="#191970" d="M2256.6651,-295.7317C2166.1841,-284.4718 1955.9078,-258.3041 1878.3864,-248.657"/>
<polygon fill="#191970" stroke="#191970" points="1878.7108,-245.1704 1868.3551,-247.4086 1877.8463,-252.1168 1878.7108,-245.1704"/>
</g>
<!-- Node61&#45;&gt;Node44 -->
<g id="edge127" class="edge">
<title>Node61&#45;&gt;Node44</title>
<path fill="none" stroke="#191970" d="M2341.2846,-293.7364C2396.6401,-284.2275 2494.2538,-267.4595 2559.2859,-256.2883"/>
<polygon fill="#191970" stroke="#191970" points="2560.1689,-259.688 2569.432,-254.5454 2558.9837,-252.789 2560.1689,-259.688"/>
</g>
<!-- Node61&#45;&gt;Node60 -->
<g id="edge122" class="edge">
<title>Node61&#45;&gt;Node60</title>
<path fill="none" stroke="#191970" d="M2273.7298,-291.3733C2249.6034,-282.1822 2213.0638,-268.2624 2186.3123,-258.0713"/>
<polygon fill="#191970" stroke="#191970" points="2187.5313,-254.7904 2176.9404,-254.5011 2185.0393,-261.3318 2187.5313,-254.7904"/>
</g>
<!-- Node61&#45;&gt;Node64 -->
<g id="edge124" class="edge">
<title>Node61&#45;&gt;Node64</title>
<path fill="none" stroke="#191970" d="M2324.614,-291.3733C2349.0687,-282.1822 2386.1054,-268.2624 2413.2209,-258.0713"/>
<polygon fill="#191970" stroke="#191970" points="2414.5909,-261.2956 2422.7202,-254.5011 2412.1281,-254.7431 2414.5909,-261.2956"/>
</g>
<!-- Node64&#45;&gt;Node6 -->
<g id="edge125" class="edge">
<title>Node64&#45;&gt;Node6</title>
<path fill="none" stroke="#191970" d="M2448,-235.4862C2448,-208.9293 2448,-133.5651 2448,-97.1655"/>
<polygon fill="#191970" stroke="#191970" points="2451.5001,-96.8278 2448,-86.8279 2444.5001,-96.8279 2451.5001,-96.8278"/>
</g>
<!-- Node66&#45;&gt;Node1 -->
<g id="edge131" class="edge">
<title>Node66&#45;&gt;Node1</title>
<path fill="none" stroke="#191970" d="M2035.0414,-403.2727C2017.3345,-388.2025 1980.6954,-359.6343 1944,-347 1773.5528,-288.3147 1718.9875,-332.44 1540,-311 1395.68,-293.7126 1225.7024,-265.9739 1146.6294,-252.641"/>
<polygon fill="#191970" stroke="#191970" points="1146.9827,-249.1511 1136.539,-250.9345 1145.8153,-256.0531 1146.9827,-249.1511"/>
</g>
<!-- Node66&#45;&gt;Node11 -->
<g id="edge133" class="edge">
<title>Node66&#45;&gt;Node11</title>
<path fill="none" stroke="#191970" d="M2046.4068,-403.4623C2046.5806,-390.0888 2045.4294,-365.3474 2036,-347 2025.5123,-326.5934 2012.6031,-329.4763 1999,-311 1962.9392,-262.0207 1937,-249.8223 1937,-189 1937,-189 1937,-189 1937,-133 1937,-53.0588 1819.3801,-26.9327 1760.6132,-18.8682"/>
<polygon fill="#191970" stroke="#191970" points="1760.7287,-15.3547 1750.3667,-17.5636 1759.8445,-22.2986 1760.7287,-15.3547"/>
</g>
<!-- Node66&#45;&gt;Node25 -->
<g id="edge135" class="edge">
<title>Node66&#45;&gt;Node25</title>
<path fill="none" stroke="#191970" d="M1991.3196,-409.0867C1810.7823,-396.0989 1217.2982,-352.8661 727,-311 715.1636,-309.9893 702.5959,-308.8628 690.393,-307.7405"/>
<polygon fill="#191970" stroke="#191970" points="690.5325,-304.2385 680.2524,-306.8015 689.887,-311.2087 690.5325,-304.2385"/>
</g>
<!-- Node66&#45;&gt;Node48 -->
<g id="edge139" class="edge">
<title>Node66&#45;&gt;Node48</title>
<path fill="none" stroke="#191970" d="M2014.0255,-403.3733C1982.8287,-393.9807 1935.229,-379.6496 1901.2068,-369.4064"/>
<polygon fill="#191970" stroke="#191970" points="1902.1418,-366.0327 1891.5573,-366.5011 1900.1237,-372.7355 1902.1418,-366.0327"/>
</g>
<!-- Node66&#45;&gt;Node58 -->
<g id="edge138" class="edge">
<title>Node66&#45;&gt;Node58</title>
<path fill="none" stroke="#191970" d="M2100.9092,-405.0953C2168.3542,-395.386 2283.1295,-378.8631 2359.012,-367.9391"/>
<polygon fill="#191970" stroke="#191970" points="2359.5907,-371.392 2368.9899,-366.5027 2358.5932,-364.4634 2359.5907,-371.392"/>
</g>
<!-- Node66&#45;&gt;Node60 -->
<g id="edge134" class="edge">
<title>Node66&#45;&gt;Node60</title>
<path fill="none" stroke="#191970" d="M2060.3737,-403.1853C2071.0705,-394.9414 2084.8409,-382.1035 2091,-367 2104.1888,-334.658 2053.4286,-321.186 2071,-291 2079.6239,-276.185 2094.9934,-265.752 2110.0438,-258.6123"/>
<polygon fill="#191970" stroke="#191970" points="2111.5356,-261.7802 2119.3103,-254.5826 2108.7441,-255.3609 2111.5356,-261.7802"/>
</g>
<!-- Node67 -->
<g id="node48" class="node">
<title>Node67</title>
<polygon fill="#ffffff" stroke="#bfbfbf" points="2143,-347.5 2143,-366.5 2275,-366.5 2275,-347.5 2143,-347.5"/>
<text text-anchor="middle" x="2209" y="-354.5" font-family="Helvetica,sans-Serif" font-size="10.00" fill="#000000">boost/test/unit_test.hpp</text>
</g>
<!-- Node66&#45;&gt;Node67 -->
<g id="edge132" class="edge">
<title>Node66&#45;&gt;Node67</title>
<path fill="none" stroke="#191970" d="M2074.0207,-403.3733C2101.0078,-394.1016 2142.0017,-380.0178 2171.7311,-369.804"/>
<polygon fill="#191970" stroke="#191970" points="2173.0248,-373.0605 2181.3449,-366.5011 2170.7503,-366.4403 2173.0248,-373.0605"/>
</g>
<!-- Node68 -->
<g id="node49" class="node">
<title>Node68</title>
<g id="a_node49"><a xlink:href="math_8hpp.html" target="_top" xlink:title="math/math.hpp">
<polygon fill="#ffffff" stroke="#ff0000" points="906,-347.5 906,-366.5 998,-366.5 998,-347.5 906,-347.5"/>
<text text-anchor="middle" x="952" y="-354.5" font-family="Helvetica,sans-Serif" font-size="10.00" fill="#000000">math/math.hpp</text>
</a>
</g>
</g>
<!-- Node66&#45;&gt;Node68 -->
<g id="edge136" class="edge">
<title>Node66&#45;&gt;Node68</title>
<path fill="none" stroke="#191970" d="M1991.3741,-410.2038C1805.2564,-400.6767 1197.0131,-369.5418 1008.3357,-359.8837"/>
<polygon fill="#191970" stroke="#191970" points="1008.256,-356.3752 998.0901,-359.3593 1007.8981,-363.366 1008.256,-356.3752"/>
</g>
<!-- Node72 -->
<g id="node50" class="node">
<title>Node72</title>
<g id="a_node50"><a xlink:href="MasterSlave_8hpp.html" target="_top" xlink:title="utils/MasterSlave.hpp">
<polygon fill="#ffffff" stroke="#ff0000" points="1825,-291.5 1825,-310.5 1947,-310.5 1947,-291.5 1825,-291.5"/>
<text text-anchor="middle" x="1886" y="-298.5" font-family="Helvetica,sans-Serif" font-size="10.00" fill="#000000">utils/MasterSlave.hpp</text>
</a>
</g>
</g>
<!-- Node66&#45;&gt;Node72 -->
<g id="edge140" class="edge">
<title>Node66&#45;&gt;Node72</title>
<path fill="none" stroke="#191970" d="M2043.8866,-403.0528C2040.3435,-388.7234 2031.8717,-362.3161 2015,-347 1997.1341,-330.7813 1973.1611,-320.1926 1950.7304,-313.319"/>
<polygon fill="#191970" stroke="#191970" points="1951.4756,-309.8918 1940.8985,-310.5053 1949.5496,-316.6216 1951.4756,-309.8918"/>
</g>
<!-- Node68&#45;&gt;Node25 -->
<g id="edge137" class="edge">
<title>Node68&#45;&gt;Node25</title>
<path fill="none" stroke="#191970" d="M905.7956,-348.5463C902.82,-348.0182 899.8685,-347.4989 897,-347 826.2406,-334.6927 745.1813,-321.3157 689.1137,-312.1765"/>
<polygon fill="#191970" stroke="#191970" points="689.3762,-308.6732 678.9436,-310.5205 688.2512,-315.5822 689.3762,-308.6732"/>
</g>
<!-- Node72&#45;&gt;Node1 -->
<g id="edge141" class="edge">
<title>Node72&#45;&gt;Node1</title>
<path fill="none" stroke="#191970" d="M1824.8074,-296.6291C1672.7031,-285.7645 1280.1827,-257.7273 1146.9869,-248.2134"/>
<polygon fill="#191970" stroke="#191970" points="1146.9701,-244.7033 1136.7461,-247.4819 1146.4713,-251.6855 1146.9701,-244.7033"/>
</g>
<!-- Node72&#45;&gt;Node10 -->
<g id="edge142" class="edge">
<title>Node72&#45;&gt;Node10</title>
<path fill="none" stroke="#191970" d="M1886.023,-291.2693C1885.7561,-278.0928 1884.2036,-254.0359 1877,-235 1864.6543,-202.3757 1840.2441,-169.7164 1824.2778,-150.4393"/>
<polygon fill="#191970" stroke="#191970" points="1826.7456,-147.9377 1817.6098,-142.5722 1821.4056,-152.4638 1826.7456,-147.9377"/>
</g>
</g>
</svg>
        <g id="navigator" transform="translate(0 0)" fill="#404254">
                <rect fill="#f2f5e9" fill-opacity="0.5" stroke="#606060" stroke-width=".5" x="0" y="0" width="60" height="60"/>
                <use id="zoomplus" xlink:href="#zoomPlus" x="17" y="9" onmousedown="handleZoom(evt,'in')"/>
                <use id="zoomminus" xlink:href="#zoomMin" x="42" y="9" onmousedown="handleZoom(evt,'out')"/>
                <use id="reset" xlink:href="#resetDef" x="30" y="36" onmousedown="handleReset()"/>
                <g id="arrowUp" xlink:href="#dirArrow" transform="translate(30 24)" onmousedown="handlePan(0,-1)">
                  <use xlink:href="#rim" fill="#404040">
                        <set attributeName="fill" to="#808080" begin="arrowUp.mouseover" end="arrowUp.mouseout"/>
                  </use>
                  <path fill="none" stroke="white" stroke-width="1.5" d="M0,-3.0v7 M-2.5,-0.5L0,-3.0L2.5,-0.5"/>
                </g>
                <g id="arrowRight" xlink:href="#dirArrow" transform="rotate(90) translate(36 -43)" onmousedown="handlePan(1,0)">
                  <use xlink:href="#rim" fill="#404040">
                        <set attributeName="fill" to="#808080" begin="arrowRight.mouseover" end="arrowRight.mouseout"/>
                  </use>
                  <path fill="none" stroke="white" stroke-width="1.5" d="M0,-3.0v7 M-2.5,-0.5L0,-3.0L2.5,-0.5"/>
                </g>
                <g id="arrowDown" xlink:href="#dirArrow" transform="rotate(180) translate(-30 -48)" onmousedown="handlePan(0,1)">
                  <use xlink:href="#rim" fill="#404040">
                        <set attributeName="fill" to="#808080" begin="arrowDown.mouseover" end="arrowDown.mouseout"/>
                  </use>
                  <path fill="none" stroke="white" stroke-width="1.5" d="M0,-3.0v7 M-2.5,-0.5L0,-3.0L2.5,-0.5"/>
                </g>
                <g id="arrowLeft" xlink:href="#dirArrow" transform="rotate(270) translate(-36 17)" onmousedown="handlePan(-1,0)">
                  <use xlink:href="#rim" fill="#404040">
                        <set attributeName="fill" to="#808080" begin="arrowLeft.mouseover" end="arrowLeft.mouseout"/>
                  </use>
                  <path fill="none" stroke="white" stroke-width="1.5" d="M0,-3.0v7 M-2.5,-0.5L0,-3.0L2.5,-0.5"/>
                </g>
        </g>
        <svg viewBox="0 0 15 15" width="100%" height="30px" preserveAspectRatio="xMaxYMin meet">
         <g id="arrow_out" transform="scale(0.3 0.3)">
          <a xlink:href="RTreeTests_8cpp__incl_org.svg" target="_base">
           <rect id="button" ry="5" rx="5" y="6" x="6" height="38" width="38"
                fill="#f2f5e9" fill-opacity="0.5" stroke="#606060" stroke-width="1.0"/>
           <path id="arrow"
             d="M 11.500037,31.436501 C 11.940474,20.09759 22.043105,11.32322 32.158766,21.979434 L 37.068811,17.246167 C 37.068811,17.246167 37.088388,32 37.088388,32 L 22.160133,31.978069 C 22.160133,31.978069 26.997745,27.140456 26.997745,27.140456 C 18.528582,18.264221 13.291696,25.230495 11.500037,31.436501 z"
             style="fill:#404040;"/>
          </a>
         </g>
        </svg>
</svg>
