<?xml version="1.0" encoding="UTF-8" standalone="no"?>
<!DOCTYPE svg PUBLIC "-//W3C//DTD SVG 1.1//EN"
 "http://www.w3.org/Graphics/SVG/1.1/DTD/svg11.dtd">
<!-- Generated by graphviz version 2.40.1 (20161225.0304)
 -->
<!-- Title: src/action/ScaleByAreaAction.cpp Pages: 1 -->
<!--zoomable 856 -->
<svg id="main" version="1.1" xmlns="http://www.w3.org/2000/svg" xmlns:xlink="http://www.w3.org/1999/xlink" xml:space="preserve" onload="init(evt)">
<style type="text/css"><![CDATA[
.edge:hover path { stroke: red; }
.edge:hover polygon { stroke: red; fill: red; }
]]></style>
<script type="text/javascript"><![CDATA[
var edges = document.getElementsByTagName('g');
if (edges && edges.length) {
  for (var i=0;i<edges.length;i++) {
    if (edges[i].id.substr(0,4)=='edge') {
      edges[i].setAttribute('class','edge');
    }
  }
}
]]></script>
        <defs>
                <circle id="rim" cx="0" cy="0" r="7"/>
                <circle id="rim2" cx="0" cy="0" r="3.5"/>
                <g id="zoomPlus">
                        <use xlink:href="#rim" fill="#404040">
                                <set attributeName="fill" to="#808080" begin="zoomplus.mouseover" end="zoomplus.mouseout"/>
                        </use>
                        <path d="M-4,0h8M0,-4v8" fill="none" stroke="white" stroke-width="1.5" pointer-events="none"/>
                </g>
                <g id="zoomMin">
                        <use xlink:href="#rim" fill="#404040">
                                <set attributeName="fill" to="#808080" begin="zoomminus.mouseover" end="zoomminus.mouseout"/>
                        </use>
                        <path d="M-4,0h8" fill="none" stroke="white" stroke-width="1.5" pointer-events="none"/>
                </g>
                <g id="dirArrow">
                        <path fill="none" stroke="white" stroke-width="1.5" d="M0,-3.0v7 M-2.5,-0.5L0,-3.0L2.5,-0.5"/>
                </g>
               <g id="resetDef">
                       <use xlink:href="#rim2" fill="#404040">
                               <set attributeName="fill" to="#808080" begin="reset.mouseover" end="reset.mouseout"/>
                       </use>
               </g>
        </defs>

<script type="text/javascript">
var viewWidth = 1935;
var viewHeight = 856;
var sectionId = 'dynsection-0';
</script>
<script xlink:href="svgpan.js"/>
<svg id="graph" class="graph">
<g id="viewport">
<title>src/action/ScaleByAreaAction.cpp</title>
<polygon fill="#ffffff" stroke="transparent" points="-4,4 -4,-852 1930.6197,-852 1930.6197,4 -4,4"/>
<!-- Node0 -->
<g id="node1" class="node">
<title>Node0</title>
<polygon fill="#bfbfbf" stroke="#000000" points="723.1197,-828.5 723.1197,-847.5 902.1197,-847.5 902.1197,-828.5 723.1197,-828.5"/>
<text text-anchor="middle" x="812.6197" y="-835.5" font-family="Helvetica,sans-Serif" font-size="10.00" fill="#000000">src/action/ScaleByAreaAction.cpp</text>
</g>
<!-- Node1 -->
<g id="node2" class="node">
<title>Node1</title>
<g id="a_node2"><a xlink:href="ScaleByAreaAction_8hpp.html" target="_top" xlink:title="ScaleByAreaAction.hpp">
<polygon fill="#ffffff" stroke="#000000" points="1790.6197,-772.5 1790.6197,-791.5 1920.6197,-791.5 1920.6197,-772.5 1790.6197,-772.5"/>
<text text-anchor="middle" x="1855.6197" y="-779.5" font-family="Helvetica,sans-Serif" font-size="10.00" fill="#000000">ScaleByAreaAction.hpp</text>
</a>
</g>
</g>
<!-- Node0&#45;&gt;Node1 -->
<g id="edge1" class="edge">
<title>Node0&#45;&gt;Node1</title>
<path fill="none" stroke="#191970" d="M902.1539,-836.0661C1072.6333,-831.8653 1455.5059,-819.942 1776.6197,-792 1777.898,-791.8888 1779.1874,-791.7725 1780.4855,-791.6516"/>
<polygon fill="#191970" stroke="#191970" points="1780.9635,-795.1213 1790.5657,-790.644 1780.2672,-788.1561 1780.9635,-795.1213"/>
</g>
<!-- Node3 -->
<g id="node4" class="node">
<title>Node3</title>
<g id="a_node4"><a xlink:href="Action_8hpp.html" target="_top" xlink:title="Action.hpp">
<polygon fill="#ffffff" stroke="#000000" points="1756.6197,-716.5 1756.6197,-735.5 1824.6197,-735.5 1824.6197,-716.5 1756.6197,-716.5"/>
<text text-anchor="middle" x="1790.6197" y="-723.5" font-family="Helvetica,sans-Serif" font-size="10.00" fill="#000000">Action.hpp</text>
</a>
</g>
</g>
<!-- Node0&#45;&gt;Node3 -->
<g id="edge100" class="edge">
<title>Node0&#45;&gt;Node3</title>
<path fill="none" stroke="#191970" d="M902.2164,-835.5504C1127.4264,-829.1247 1701.8796,-810.9671 1738.6197,-792 1758.1844,-781.8998 1772.7551,-760.7663 1781.4194,-745.1211"/>
<polygon fill="#191970" stroke="#191970" points="1784.7549,-746.292 1786.2534,-735.8036 1778.5414,-743.0683 1784.7549,-746.292"/>
</g>
<!-- Node4 -->
<g id="node5" class="node">
<title>Node4</title>
<g id="a_node5"><a xlink:href="Mapping_8hpp.html" target="_top" xlink:title="mapping/Mapping.hpp">
<polygon fill="#ffffff" stroke="#000000" points="1581.1197,-660.5 1581.1197,-679.5 1706.1197,-679.5 1706.1197,-660.5 1581.1197,-660.5"/>
<text text-anchor="middle" x="1643.6197" y="-667.5" font-family="Helvetica,sans-Serif" font-size="10.00" fill="#000000">mapping/Mapping.hpp</text>
</a>
</g>
</g>
<!-- Node0&#45;&gt;Node4 -->
<g id="edge102" class="edge">
<title>Node0&#45;&gt;Node4</title>
<path fill="none" stroke="#191970" d="M874.3035,-828.4785C929.7356,-819.7147 1013.3025,-805.9898 1085.6197,-792 1273.6812,-755.6193 1495.6327,-704.6809 1593.2598,-681.8667"/>
<polygon fill="#191970" stroke="#191970" points="1594.2111,-685.2387 1603.1505,-679.5522 1592.616,-678.4229 1594.2111,-685.2387"/>
</g>
<!-- Node6 -->
<g id="node7" class="node">
<title>Node6</title>
<g id="a_node7"><a xlink:href="Mesh_8hpp.html" target="_top" xlink:title="mesh/Mesh.hpp">
<polygon fill="#ffffff" stroke="#000000" points="1217.1197,-604.5 1217.1197,-623.5 1310.1197,-623.5 1310.1197,-604.5 1217.1197,-604.5"/>
<text text-anchor="middle" x="1263.6197" y="-611.5" font-family="Helvetica,sans-Serif" font-size="10.00" fill="#000000">mesh/Mesh.hpp</text>
</a>
</g>
</g>
<!-- Node0&#45;&gt;Node6 -->
<g id="edge105" class="edge">
<title>Node0&#45;&gt;Node6</title>
<path fill="none" stroke="#191970" d="M831.9986,-828.375C903.2682,-792.9773 1151.059,-669.906 1235.3191,-628.0562"/>
<polygon fill="#191970" stroke="#191970" points="1236.9138,-631.1721 1244.313,-623.5891 1233.7999,-624.9028 1236.9138,-631.1721"/>
</g>
<!-- Node7 -->
<g id="node8" class="node">
<title>Node7</title>
<polygon fill="#ffffff" stroke="#bfbfbf" points="882.1197,-308 882.1197,-327 951.1197,-327 951.1197,-308 882.1197,-308"/>
<text text-anchor="middle" x="916.6197" y="-315" font-family="Helvetica,sans-Serif" font-size="10.00" fill="#000000">Eigen/Core</text>
</g>
<!-- Node0&#45;&gt;Node7 -->
<g id="edge98" class="edge">
<title>Node0&#45;&gt;Node7</title>
<path fill="none" stroke="#191970" d="M812.6197,-828.4116C812.6197,-809.0538 812.6197,-763.9167 812.6197,-726 812.6197,-726 812.6197,-726 812.6197,-614 812.6197,-556.4746 883.2086,-392.4883 908.0762,-336.5029"/>
<polygon fill="#191970" stroke="#191970" points="911.4017,-337.6395 912.2834,-327.0815 905.01,-334.7853 911.4017,-337.6395"/>
</g>
<!-- Node14 -->
<g id="node15" class="node">
<title>Node14</title>
<polygon fill="#ffffff" stroke="#bfbfbf" points="1556.6197,-123.5 1556.6197,-142.5 1614.6197,-142.5 1614.6197,-123.5 1556.6197,-123.5"/>
<text text-anchor="middle" x="1585.6197" y="-130.5" font-family="Helvetica,sans-Serif" font-size="10.00" fill="#000000">memory</text>
</g>
<!-- Node0&#45;&gt;Node14 -->
<g id="edge99" class="edge">
<title>Node0&#45;&gt;Node14</title>
<path fill="none" stroke="#191970" d="M891.9093,-828.4839C960.1221,-819.9776 1061.0753,-806.6259 1148.6197,-792 1417.0933,-747.1465 1734.6197,-886.1946 1734.6197,-614 1734.6197,-614 1734.6197,-614 1734.6197,-250.5 1734.6197,-194.2988 1668.4511,-160.8222 1624.3029,-144.7412"/>
<polygon fill="#191970" stroke="#191970" points="1625.297,-141.3811 1614.7021,-141.3887 1622.9893,-147.9898 1625.297,-141.3811"/>
</g>
<!-- Node15 -->
<g id="node16" class="node">
<title>Node15</title>
<g id="a_node16"><a xlink:href="LogMacros_8hpp.html" target="_top" xlink:title="LogMacros.hpp">
<polygon fill="#ffffff" stroke="#000000" points="630.1197,-123.5 630.1197,-142.5 719.1197,-142.5 719.1197,-123.5 630.1197,-123.5"/>
<text text-anchor="middle" x="674.6197" y="-130.5" font-family="Helvetica,sans-Serif" font-size="10.00" fill="#000000">LogMacros.hpp</text>
</a>
</g>
</g>
<!-- Node0&#45;&gt;Node15 -->
<g id="edge101" class="edge">
<title>Node0&#45;&gt;Node15</title>
<path fill="none" stroke="#191970" d="M722.7812,-831.8598C543.1193,-818.3711 156.6197,-782.7575 156.6197,-726 156.6197,-726 156.6197,-726 156.6197,-558 156.6197,-478.6819 210.5897,-470.4142 275.6197,-425 432.4662,-315.465 568.1962,-424.3 675.6197,-266 698.8563,-231.7584 689.0696,-180.28 681.1078,-152.4782"/>
<polygon fill="#191970" stroke="#191970" points="684.4017,-151.2821 678.1151,-142.754 677.7114,-153.3412 684.4017,-151.2821"/>
</g>
<!-- Node27 -->
<g id="node28" class="node">
<title>Node27</title>
<g id="a_node28"><a xlink:href="Vertex_8hpp.html" target="_top" xlink:title="mesh/Vertex.hpp">
<polygon fill="#ffffff" stroke="#000000" points="599.1197,-425.5 599.1197,-444.5 698.1197,-444.5 698.1197,-425.5 599.1197,-425.5"/>
<text text-anchor="middle" x="648.6197" y="-432.5" font-family="Helvetica,sans-Serif" font-size="10.00" fill="#000000">mesh/Vertex.hpp</text>
</a>
</g>
</g>
<!-- Node0&#45;&gt;Node27 -->
<g id="edge106" class="edge">
<title>Node0&#45;&gt;Node27</title>
<path fill="none" stroke="#191970" d="M790.3688,-828.3895C757.1927,-812.3825 698.6197,-776.9125 698.6197,-726 698.6197,-726 698.6197,-726 698.6197,-558 698.6197,-522.7513 693.911,-513.2216 679.6197,-481 675.204,-471.044 668.6397,-460.9071 662.687,-452.6922"/>
<polygon fill="#191970" stroke="#191970" points="665.4186,-450.5016 656.5983,-444.6319 659.8331,-454.7209 665.4186,-450.5016"/>
</g>
<!-- Node31 -->
<g id="node32" class="node">
<title>Node31</title>
<g id="a_node32"><a xlink:href="assertion_8hpp.html" target="_top" xlink:title="utils/assertion.hpp">
<polygon fill="#ffffff" stroke="#000000" points="368.1197,-308 368.1197,-327 475.1197,-327 475.1197,-308 368.1197,-308"/>
<text text-anchor="middle" x="421.6197" y="-315" font-family="Helvetica,sans-Serif" font-size="10.00" fill="#000000">utils/assertion.hpp</text>
</a>
</g>
</g>
<!-- Node0&#45;&gt;Node31 -->
<g id="edge107" class="edge">
<title>Node0&#45;&gt;Node31</title>
<path fill="none" stroke="#191970" d="M723.0801,-835.4844C552.6003,-830.1657 193.7517,-816.2341 142.6197,-792 106.2515,-774.7632 80.6197,-766.2462 80.6197,-726 80.6197,-726 80.6197,-726 80.6197,-435 80.6197,-377.0175 259.0785,-341.4343 357.794,-326.1866"/>
<polygon fill="#191970" stroke="#191970" points="358.6014,-329.6042 367.9634,-324.6441 357.5515,-322.6834 358.6014,-329.6042"/>
</g>
<!-- Node38 -->
<g id="node38" class="node">
<title>Node38</title>
<g id="a_node38"><a xlink:href="Data_8hpp.html" target="_top" xlink:title="mesh/Data.hpp">
<polygon fill="#ffffff" stroke="#000000" points="689.1197,-369.5 689.1197,-388.5 780.1197,-388.5 780.1197,-369.5 689.1197,-369.5"/>
<text text-anchor="middle" x="734.6197" y="-376.5" font-family="Helvetica,sans-Serif" font-size="10.00" fill="#000000">mesh/Data.hpp</text>
</a>
</g>
</g>
<!-- Node0&#45;&gt;Node38 -->
<g id="edge103" class="edge">
<title>Node0&#45;&gt;Node38</title>
<path fill="none" stroke="#191970" d="M807.0127,-828.4834C796.4424,-809.6141 774.6197,-765.8343 774.6197,-726 774.6197,-726 774.6197,-726 774.6197,-496.5 774.6197,-459.8963 757.0089,-420.136 745.1579,-397.5237"/>
<polygon fill="#191970" stroke="#191970" points="748.2007,-395.7928 740.3508,-388.6774 742.0501,-399.1351 748.2007,-395.7928"/>
</g>
<!-- Node40 -->
<g id="node40" class="node">
<title>Node40</title>
<g id="a_node40"><a xlink:href="Edge_8hpp.html" target="_top" xlink:title="mesh/Edge.hpp">
<polygon fill="#ffffff" stroke="#000000" points="578.6197,-487 578.6197,-506 670.6197,-506 670.6197,-487 578.6197,-487"/>
<text text-anchor="middle" x="624.6197" y="-494" font-family="Helvetica,sans-Serif" font-size="10.00" fill="#000000">mesh/Edge.hpp</text>
</a>
</g>
</g>
<!-- Node0&#45;&gt;Node40 -->
<g id="edge104" class="edge">
<title>Node0&#45;&gt;Node40</title>
<path fill="none" stroke="#191970" d="M752.7633,-828.4681C697.0706,-815.7875 622.6197,-787.3607 622.6197,-726 622.6197,-726 622.6197,-726 622.6197,-614 622.6197,-579.6349 623.4856,-539.6246 624.0778,-516.2746"/>
<polygon fill="#191970" stroke="#191970" points="627.5773,-516.3366 624.3416,-506.248 620.5798,-516.1524 627.5773,-516.3366"/>
</g>
<!-- Node2 -->
<g id="node3" class="node">
<title>Node2</title>
<polygon fill="#ffffff" stroke="#bfbfbf" points="1299.6197,-.5 1299.6197,-19.5 1343.6197,-19.5 1343.6197,-.5 1299.6197,-.5"/>
<text text-anchor="middle" x="1321.6197" y="-7.5" font-family="Helvetica,sans-Serif" font-size="10.00" fill="#000000">string</text>
</g>
<!-- Node1&#45;&gt;Node2 -->
<g id="edge2" class="edge">
<title>Node1&#45;&gt;Node2</title>
<path fill="none" stroke="#191970" d="M1867.3439,-772.2278C1887.5099,-754.249 1926.6197,-713.7424 1926.6197,-670 1926.6197,-670 1926.6197,-670 1926.6197,-133 1926.6197,-49.2449 1835.4866,-77.8051 1754.6197,-56 1678.7719,-35.5482 1440.6921,-17.9856 1353.7842,-12.1006"/>
<polygon fill="#191970" stroke="#191970" points="1353.9331,-8.6028 1343.7213,-11.4258 1353.4647,-15.5872 1353.9331,-8.6028"/>
</g>
<!-- Node1&#45;&gt;Node3 -->
<g id="edge3" class="edge">
<title>Node1&#45;&gt;Node3</title>
<path fill="none" stroke="#191970" d="M1844.2976,-772.2455C1834.6974,-763.9746 1820.7306,-751.9416 1809.4503,-742.2232"/>
<polygon fill="#191970" stroke="#191970" points="1811.6727,-739.5182 1801.8121,-735.6427 1807.1037,-744.8214 1811.6727,-739.5182"/>
</g>
<!-- Node13 -->
<g id="node14" class="node">
<title>Node13</title>
<g id="a_node14"><a xlink:href="Logger_8hpp.html" target="_top" xlink:title="logging/Logger.hpp">
<polygon fill="#ffffff" stroke="#000000" points="1198.1197,-179.5 1198.1197,-198.5 1307.1197,-198.5 1307.1197,-179.5 1198.1197,-179.5"/>
<text text-anchor="middle" x="1252.6197" y="-186.5" font-family="Helvetica,sans-Serif" font-size="10.00" fill="#000000">logging/Logger.hpp</text>
</a>
</g>
</g>
<!-- Node1&#45;&gt;Node13 -->
<g id="edge96" class="edge">
<title>Node1&#45;&gt;Node13</title>
<path fill="none" stroke="#191970" d="M1811.1428,-772.4725C1738.7562,-755.9645 1600.6908,-719.9562 1572.6197,-680 1567.5099,-672.7266 1572.3483,-668.8847 1572.6197,-660 1574.843,-587.2315 1582.6197,-569.3025 1582.6197,-496.5 1582.6197,-496.5 1582.6197,-496.5 1582.6197,-379 1582.6197,-251.7786 1427.2434,-333.8413 1319.6197,-266 1295.841,-251.0109 1275.8063,-225.0338 1264.0054,-207.4405"/>
<polygon fill="#191970" stroke="#191970" points="1266.6927,-205.1506 1258.3249,-198.6521 1260.8138,-208.9504 1266.6927,-205.1506"/>
</g>
<!-- Node42 -->
<g id="node42" class="node">
<title>Node42</title>
<g id="a_node42"><a xlink:href="mesh_2SharedPointer_8hpp.html" target="_top" xlink:title="mesh/SharedPointer.hpp">
<polygon fill="#ffffff" stroke="#000000" points="1763.1197,-548.5 1763.1197,-567.5 1898.1197,-567.5 1898.1197,-548.5 1763.1197,-548.5"/>
<text text-anchor="middle" x="1830.6197" y="-555.5" font-family="Helvetica,sans-Serif" font-size="10.00" fill="#000000">mesh/SharedPointer.hpp</text>
</a>
</g>
</g>
<!-- Node1&#45;&gt;Node42 -->
<g id="edge97" class="edge">
<title>Node1&#45;&gt;Node42</title>
<path fill="none" stroke="#191970" d="M1854.5455,-772.375C1850.7551,-738.4133 1837.9576,-623.7472 1832.8004,-577.5392"/>
<polygon fill="#191970" stroke="#191970" points="1836.2776,-577.1392 1831.69,-567.5891 1829.3208,-577.9157 1836.2776,-577.1392"/>
</g>
<!-- Node3&#45;&gt;Node4 -->
<g id="edge4" class="edge">
<title>Node3&#45;&gt;Node4</title>
<path fill="none" stroke="#191970" d="M1765.3495,-716.3733C1741.2231,-707.1822 1704.6835,-693.2624 1677.932,-683.0713"/>
<polygon fill="#191970" stroke="#191970" points="1679.1511,-679.7904 1668.5602,-679.5011 1676.6591,-686.3318 1679.1511,-679.7904"/>
</g>
<!-- Node3&#45;&gt;Node42 -->
<g id="edge95" class="edge">
<title>Node3&#45;&gt;Node42</title>
<path fill="none" stroke="#191970" d="M1792.8849,-716.4862C1799.2354,-689.8144 1817.3074,-613.9117 1825.9304,-577.695"/>
<polygon fill="#191970" stroke="#191970" points="1829.3683,-578.3666 1828.2798,-567.8279 1822.5587,-576.7452 1829.3683,-578.3666"/>
</g>
<!-- Node5 -->
<g id="node6" class="node">
<title>Node5</title>
<polygon fill="#ffffff" stroke="#bfbfbf" points="1558.1197,-179.5 1558.1197,-198.5 1607.1197,-198.5 1607.1197,-179.5 1558.1197,-179.5"/>
<text text-anchor="middle" x="1582.6197" y="-186.5" font-family="Helvetica,sans-Serif" font-size="10.00" fill="#000000">iosfwd</text>
</g>
<!-- Node4&#45;&gt;Node5 -->
<g id="edge5" class="edge">
<title>Node4&#45;&gt;Node5</title>
<path fill="none" stroke="#191970" d="M1651.901,-660.2442C1666.8072,-641.6512 1696.6197,-599.3024 1696.6197,-558 1696.6197,-558 1696.6197,-558 1696.6197,-496.5 1696.6197,-375.5921 1678.6576,-341.6086 1621.6197,-235 1615.989,-224.4757 1607.6394,-214.2027 1600.1089,-206.0441"/>
<polygon fill="#191970" stroke="#191970" points="1602.4451,-203.4248 1592.9825,-198.6594 1597.408,-208.2857 1602.4451,-203.4248"/>
</g>
<!-- Node4&#45;&gt;Node6 -->
<g id="edge6" class="edge">
<title>Node4&#45;&gt;Node6</title>
<path fill="none" stroke="#191970" d="M1580.8705,-660.7527C1508.3381,-650.0638 1390.0161,-632.6268 1320.2054,-622.3389"/>
<polygon fill="#191970" stroke="#191970" points="1320.6722,-618.87 1310.2687,-620.8746 1319.6516,-625.7952 1320.6722,-618.87"/>
</g>
<!-- Node4&#45;&gt;Node42 -->
<g id="edge94" class="edge">
<title>Node4&#45;&gt;Node42</title>
<path fill="none" stroke="#191970" d="M1659.5633,-660.4509C1692.2707,-640.8615 1767.1479,-596.0152 1806.0851,-572.6945"/>
<polygon fill="#191970" stroke="#191970" points="1807.936,-575.6658 1814.7166,-567.5249 1804.3392,-569.6605 1807.936,-575.6658"/>
</g>
<!-- Node6&#45;&gt;Node2 -->
<g id="edge13" class="edge">
<title>Node6&#45;&gt;Node2</title>
<path fill="none" stroke="#191970" d="M1310.2433,-609.3666C1379.3415,-602.0051 1505.2298,-586.5558 1546.6197,-568 1673.9271,-510.926 1810.6197,-270.1125 1810.6197,-250.5 1810.6197,-250.5 1810.6197,-250.5 1810.6197,-133 1810.6197,-38.5381 1463.0947,-15.9287 1353.9868,-11.1581"/>
<polygon fill="#191970" stroke="#191970" points="1354.0385,-7.6574 1343.9017,-10.7389 1353.7477,-14.6513 1354.0385,-7.6574"/>
</g>
<!-- Node6&#45;&gt;Node5 -->
<g id="edge10" class="edge">
<title>Node6&#45;&gt;Node5</title>
<path fill="none" stroke="#191970" d="M1310.2913,-611.739C1407.0603,-604.2841 1620.6197,-572.2807 1620.6197,-435 1620.6197,-435 1620.6197,-435 1620.6197,-317.5 1620.6197,-277.195 1603.2157,-232.5903 1591.9643,-207.9654"/>
<polygon fill="#191970" stroke="#191970" points="1595.0253,-206.2511 1587.5876,-198.7058 1588.6967,-209.2425 1595.0253,-206.2511"/>
</g>
<!-- Node6&#45;&gt;Node7 -->
<g id="edge7" class="edge">
<title>Node6&#45;&gt;Node7</title>
<path fill="none" stroke="#191970" d="M1217.0837,-609.133C1167.221,-602.8451 1092.8901,-590.0056 1075.6197,-568 1051.4716,-537.231 1116.5242,-518.5323 1119.6197,-512 1125.5198,-499.5494 1125.5676,-493.4278 1119.6197,-481 1083.7976,-406.152 995.1427,-354.6436 947.7196,-331.4406"/>
<polygon fill="#191970" stroke="#191970" points="949.0676,-328.2057 938.536,-327.0496 946.048,-334.5209 949.0676,-328.2057"/>
</g>
<!-- Node8 -->
<g id="node9" class="node">
<title>Node8</title>
<polygon fill="#ffffff" stroke="#bfbfbf" points="1084.6197,-548.5 1084.6197,-567.5 1192.6197,-567.5 1192.6197,-548.5 1084.6197,-548.5"/>
<text text-anchor="middle" x="1138.6197" y="-555.5" font-family="Helvetica,sans-Serif" font-size="10.00" fill="#000000">boost/signals2.hpp</text>
</g>
<!-- Node6&#45;&gt;Node8 -->
<g id="edge8" class="edge">
<title>Node6&#45;&gt;Node8</title>
<path fill="none" stroke="#191970" d="M1242.1315,-604.3733C1221.9757,-595.3435 1191.6317,-581.7494 1169.0017,-571.6111"/>
<polygon fill="#191970" stroke="#191970" points="1170.3846,-568.3955 1159.8276,-567.5011 1167.5227,-574.7838 1170.3846,-568.3955"/>
</g>
<!-- Node9 -->
<g id="node10" class="node">
<title>Node9</title>
<polygon fill="#ffffff" stroke="#bfbfbf" points="1211.1197,-548.5 1211.1197,-567.5 1258.1197,-567.5 1258.1197,-548.5 1211.1197,-548.5"/>
<text text-anchor="middle" x="1234.6197" y="-555.5" font-family="Helvetica,sans-Serif" font-size="10.00" fill="#000000">deque</text>
</g>
<!-- Node6&#45;&gt;Node9 -->
<g id="edge9" class="edge">
<title>Node6&#45;&gt;Node9</title>
<path fill="none" stroke="#191970" d="M1258.5683,-604.2455C1254.6178,-596.617 1249.01,-585.7881 1244.2139,-576.5267"/>
<polygon fill="#191970" stroke="#191970" points="1247.3198,-574.9131 1239.6133,-567.6427 1241.1039,-578.1321 1247.3198,-574.9131"/>
</g>
<!-- Node10 -->
<g id="node11" class="node">
<title>Node10</title>
<polygon fill="#ffffff" stroke="#bfbfbf" points="1276.6197,-548.5 1276.6197,-567.5 1308.6197,-567.5 1308.6197,-548.5 1276.6197,-548.5"/>
<text text-anchor="middle" x="1292.6197" y="-555.5" font-family="Helvetica,sans-Serif" font-size="10.00" fill="#000000">list</text>
</g>
<!-- Node6&#45;&gt;Node10 -->
<g id="edge11" class="edge">
<title>Node6&#45;&gt;Node10</title>
<path fill="none" stroke="#191970" d="M1268.6711,-604.2455C1272.6216,-596.617 1278.2295,-585.7881 1283.0255,-576.5267"/>
<polygon fill="#191970" stroke="#191970" points="1286.1356,-578.1321 1287.6262,-567.6427 1279.9196,-574.9131 1286.1356,-578.1321"/>
</g>
<!-- Node11 -->
<g id="node12" class="node">
<title>Node11</title>
<polygon fill="#ffffff" stroke="#bfbfbf" points="1326.6197,-548.5 1326.6197,-567.5 1364.6197,-567.5 1364.6197,-548.5 1326.6197,-548.5"/>
<text text-anchor="middle" x="1345.6197" y="-555.5" font-family="Helvetica,sans-Serif" font-size="10.00" fill="#000000">map</text>
</g>
<!-- Node6&#45;&gt;Node11 -->
<g id="edge12" class="edge">
<title>Node6&#45;&gt;Node11</title>
<path fill="none" stroke="#191970" d="M1277.903,-604.2455C1290.3668,-595.7337 1308.6648,-583.2375 1323.0989,-573.3801"/>
<polygon fill="#191970" stroke="#191970" points="1325.216,-576.1726 1331.5001,-567.6427 1321.2682,-570.392 1325.216,-576.1726"/>
</g>
<!-- Node12 -->
<g id="node13" class="node">
<title>Node12</title>
<polygon fill="#ffffff" stroke="#bfbfbf" points="1445.1197,-179.5 1445.1197,-198.5 1492.1197,-198.5 1492.1197,-179.5 1445.1197,-179.5"/>
<text text-anchor="middle" x="1468.6197" y="-186.5" font-family="Helvetica,sans-Serif" font-size="10.00" fill="#000000">vector</text>
</g>
<!-- Node6&#45;&gt;Node12 -->
<g id="edge14" class="edge">
<title>Node6&#45;&gt;Node12</title>
<path fill="none" stroke="#191970" d="M1310.1411,-607.5915C1361.3007,-599.8092 1439.4687,-585.5243 1463.6197,-568 1493.6328,-546.2221 1506.6197,-533.5818 1506.6197,-496.5 1506.6197,-496.5 1506.6197,-496.5 1506.6197,-317.5 1506.6197,-277.195 1489.2157,-232.5903 1477.9643,-207.9654"/>
<polygon fill="#191970" stroke="#191970" points="1481.0253,-206.2511 1473.5876,-198.7058 1474.6967,-209.2425 1481.0253,-206.2511"/>
</g>
<!-- Node6&#45;&gt;Node13 -->
<g id="edge15" class="edge">
<title>Node6&#45;&gt;Node13</title>
<path fill="none" stroke="#191970" d="M1310.4353,-608.6168C1351.3038,-601.4013 1402.2631,-584.9117 1389.6197,-548 1377.4051,-512.3399 1361.2444,-510.372 1337.6197,-481 1300.6348,-435.0175 1252.6197,-438.0108 1252.6197,-379 1252.6197,-379 1252.6197,-379 1252.6197,-317.5 1252.6197,-279.0012 1252.6197,-234.0145 1252.6197,-208.7812"/>
<polygon fill="#191970" stroke="#191970" points="1256.1198,-208.6718 1252.6197,-198.6719 1249.1198,-208.6719 1256.1198,-208.6718"/>
</g>
<!-- Node26 -->
<g id="node27" class="node">
<title>Node26</title>
<g id="a_node27"><a xlink:href="BoundingBox_8hpp.html" target="_top" xlink:title="mesh/BoundingBox.hpp">
<polygon fill="#ffffff" stroke="#000000" points="1196.6197,-487 1196.6197,-506 1328.6197,-506 1328.6197,-487 1196.6197,-487"/>
<text text-anchor="middle" x="1262.6197" y="-494" font-family="Helvetica,sans-Serif" font-size="10.00" fill="#000000">mesh/BoundingBox.hpp</text>
</a>
</g>
</g>
<!-- Node6&#45;&gt;Node26 -->
<g id="edge32" class="edge">
<title>Node6&#45;&gt;Node26</title>
<path fill="none" stroke="#191970" d="M1310.1497,-604.8734C1347.9519,-595.1537 1392.1954,-577.096 1373.6197,-548 1361.5306,-529.0641 1340.4876,-516.9845 1319.9513,-509.328"/>
<polygon fill="#191970" stroke="#191970" points="1320.8645,-505.9412 1310.2699,-506.0134 1318.5971,-512.5639 1320.8645,-505.9412"/>
</g>
<!-- Node6&#45;&gt;Node27 -->
<g id="edge85" class="edge">
<title>Node6&#45;&gt;Node27</title>
<path fill="none" stroke="#191970" d="M1216.9791,-611.9354C1121.1442,-607.2134 905.3151,-593.9757 836.6197,-568 831.922,-566.2237 718.7157,-485.254 670.2806,-450.5382"/>
<polygon fill="#191970" stroke="#191970" points="672.1977,-447.6061 662.0312,-444.6238 668.1189,-453.295 672.1977,-447.6061"/>
</g>
<!-- Node6&#45;&gt;Node31 -->
<g id="edge93" class="edge">
<title>Node6&#45;&gt;Node31</title>
<path fill="none" stroke="#191970" d="M1216.823,-613.1413C1041.3723,-609.719 428.424,-595.8658 345.6197,-568 303.7925,-553.924 284.2262,-551.026 263.6197,-512 245.5653,-477.8072 252.7235,-462.0996 263.6197,-425 271.9576,-396.611 276.979,-388.0487 299.6197,-369 321.1117,-350.9178 349.875,-338.3654 374.0749,-330.183"/>
<polygon fill="#191970" stroke="#191970" points="375.3462,-333.4505 383.7868,-327.0468 373.1951,-326.7892 375.3462,-333.4505"/>
</g>
<!-- Node6&#45;&gt;Node38 -->
<g id="edge62" class="edge">
<title>Node6&#45;&gt;Node38</title>
<path fill="none" stroke="#191970" d="M1216.857,-610.9145C1118.7401,-604.1012 898.0608,-586.8713 869.6197,-568 808.756,-527.6154 835.1314,-481.3203 788.6197,-425 779.4298,-413.8721 767.338,-403.2929 756.9267,-395.0919"/>
<polygon fill="#191970" stroke="#191970" points="758.7516,-392.082 748.6771,-388.8025 754.5076,-397.6488 758.7516,-392.082"/>
</g>
<!-- Node6&#45;&gt;Node40 -->
<g id="edge67" class="edge">
<title>Node6&#45;&gt;Node40</title>
<path fill="none" stroke="#191970" d="M1216.8716,-613.2425C1102.7495,-610.8813 812.6862,-601.6514 722.6197,-568 690.4557,-555.9826 659.5129,-530.2735 641.2805,-513.1855"/>
<polygon fill="#191970" stroke="#191970" points="643.4706,-510.4355 633.8392,-506.021 638.6155,-515.4782 643.4706,-510.4355"/>
</g>
<!-- Node6&#45;&gt;Node42 -->
<g id="edge74" class="edge">
<title>Node6&#45;&gt;Node42</title>
<path fill="none" stroke="#191970" d="M1310.5021,-609.3696C1407.9544,-599.7447 1633.2524,-577.4931 1752.8187,-565.6841"/>
<polygon fill="#191970" stroke="#191970" points="1753.3905,-569.1447 1762.998,-564.6787 1752.7024,-562.1786 1753.3905,-569.1447"/>
</g>
<!-- Node43 -->
<g id="node43" class="node">
<title>Node43</title>
<g id="a_node43"><a xlink:href="Triangle_8hpp.html" target="_top" xlink:title="mesh/Triangle.hpp">
<polygon fill="#ffffff" stroke="#000000" points="354.6197,-548.5 354.6197,-567.5 460.6197,-567.5 460.6197,-548.5 354.6197,-548.5"/>
<text text-anchor="middle" x="407.6197" y="-555.5" font-family="Helvetica,sans-Serif" font-size="10.00" fill="#000000">mesh/Triangle.hpp</text>
</a>
</g>
</g>
<!-- Node6&#45;&gt;Node43 -->
<g id="edge76" class="edge">
<title>Node6&#45;&gt;Node43</title>
<path fill="none" stroke="#191970" d="M1216.9896,-610.9494C1073.0948,-601.5358 635.8146,-572.9286 471.2015,-562.1596"/>
<polygon fill="#191970" stroke="#191970" points="470.9663,-558.6368 460.7591,-561.4764 470.5092,-565.6218 470.9663,-558.6368"/>
</g>
<!-- Node47 -->
<g id="node46" class="node">
<title>Node47</title>
<g id="a_node46"><a xlink:href="ManageUniqueIDs_8hpp.html" target="_top" xlink:title="utils/ManageUniqueIDs.hpp">
<polygon fill="#ffffff" stroke="#000000" points="878.6197,-548.5 878.6197,-567.5 1028.6197,-567.5 1028.6197,-548.5 878.6197,-548.5"/>
<text text-anchor="middle" x="953.6197" y="-555.5" font-family="Helvetica,sans-Serif" font-size="10.00" fill="#000000">utils/ManageUniqueIDs.hpp</text>
</a>
</g>
</g>
<!-- Node6&#45;&gt;Node47 -->
<g id="edge86" class="edge">
<title>Node6&#45;&gt;Node47</title>
<path fill="none" stroke="#191970" d="M1216.874,-605.5556C1163.4696,-595.9084 1075.8205,-580.075 1016.4705,-569.3537"/>
<polygon fill="#191970" stroke="#191970" points="1016.9293,-565.88 1006.4664,-567.5465 1015.6849,-572.7685 1016.9293,-565.88"/>
</g>
<!-- Node50 -->
<g id="node49" class="node">
<title>Node50</title>
<g id="a_node49"><a xlink:href="PointerVector_8hpp.html" target="_top" xlink:title="utils/PointerVector.hpp">
<polygon fill="#ffffff" stroke="#000000" points="1335.6197,-369.5 1335.6197,-388.5 1461.6197,-388.5 1461.6197,-369.5 1335.6197,-369.5"/>
<text text-anchor="middle" x="1398.6197" y="-376.5" font-family="Helvetica,sans-Serif" font-size="10.00" fill="#000000">utils/PointerVector.hpp</text>
</a>
</g>
</g>
<!-- Node6&#45;&gt;Node50 -->
<g id="edge89" class="edge">
<title>Node6&#45;&gt;Node50</title>
<path fill="none" stroke="#191970" d="M1310.185,-608.6392C1358.1812,-602.0422 1428.2492,-589.0514 1444.6197,-568 1485.1355,-515.8994 1436.9797,-433.1956 1411.9276,-396.9806"/>
<polygon fill="#191970" stroke="#191970" points="1414.7727,-394.942 1406.1242,-388.8219 1409.0685,-398.9994 1414.7727,-394.942"/>
</g>
<!-- Node13&#45;&gt;Node2 -->
<g id="edge17" class="edge">
<title>Node13&#45;&gt;Node2</title>
<path fill="none" stroke="#191970" d="M1260.9795,-179.4228C1275.3756,-162.2755 1304.4686,-124.5966 1316.6197,-87 1322.6533,-68.3316 1323.4199,-45.8225 1322.9711,-29.9769"/>
<polygon fill="#191970" stroke="#191970" points="1326.4568,-29.5898 1322.4875,-19.7666 1319.4646,-29.9211 1326.4568,-29.5898"/>
</g>
<!-- Node13&#45;&gt;Node14 -->
<g id="edge16" class="edge">
<title>Node13&#45;&gt;Node14</title>
<path fill="none" stroke="#191970" d="M1307.235,-179.8154C1374.4234,-168.5165 1486.8527,-149.6095 1546.1872,-139.6313"/>
<polygon fill="#191970" stroke="#191970" points="1546.9982,-143.0441 1556.2792,-137.9341 1545.8372,-136.1411 1546.9982,-143.0441"/>
</g>
<!-- Node13&#45;&gt;Node15 -->
<g id="edge18" class="edge">
<title>Node13&#45;&gt;Node15</title>
<path fill="none" stroke="#191970" d="M1197.9826,-183.7064C1087.8456,-173.0357 840.2788,-149.05 729.7406,-138.3404"/>
<polygon fill="#191970" stroke="#191970" points="729.7713,-134.8271 719.4803,-137.3464 729.0962,-141.7945 729.7713,-134.8271"/>
</g>
<!-- Node15&#45;&gt;Node2 -->
<g id="edge25" class="edge">
<title>Node15&#45;&gt;Node2</title>
<path fill="none" stroke="#191970" d="M670.468,-123.4827C664.1292,-107.3024 654.4745,-74.4015 671.6197,-56 692.904,-33.1562 1160.9823,-15.4992 1289.327,-11.0746"/>
<polygon fill="#191970" stroke="#191970" points="1289.4537,-14.5724 1299.3283,-10.733 1289.2146,-7.5765 1289.4537,-14.5724"/>
</g>
<!-- Node16 -->
<g id="node17" class="node">
<title>Node16</title>
<polygon fill="#ffffff" stroke="#bfbfbf" points="14.6197,-56.5 14.6197,-86.5 124.6197,-86.5 124.6197,-56.5 14.6197,-56.5"/>
<text text-anchor="start" x="22.6197" y="-74.5" font-family="Helvetica,sans-Serif" font-size="10.00" fill="#000000">boost/preprocessor</text>
<text text-anchor="middle" x="69.6197" y="-63.5" font-family="Helvetica,sans-Serif" font-size="10.00" fill="#000000">/control/if.hpp</text>
</g>
<!-- Node15&#45;&gt;Node16 -->
<g id="edge19" class="edge">
<title>Node15&#45;&gt;Node16</title>
<path fill="none" stroke="#191970" d="M629.8039,-131.505C538.4216,-127.9581 323.9263,-117.0861 134.7957,-87.0293"/>
<polygon fill="#191970" stroke="#191970" points="135.0983,-83.533 124.6688,-85.3974 133.9846,-90.4438 135.0983,-83.533"/>
</g>
<!-- Node17 -->
<g id="node18" class="node">
<title>Node17</title>
<polygon fill="#ffffff" stroke="#bfbfbf" points="680.6197,-56.5 680.6197,-86.5 796.6197,-86.5 796.6197,-56.5 680.6197,-56.5"/>
<text text-anchor="start" x="688.6197" y="-74.5" font-family="Helvetica,sans-Serif" font-size="10.00" fill="#000000">boost/preprocessor</text>
<text text-anchor="middle" x="738.6197" y="-63.5" font-family="Helvetica,sans-Serif" font-size="10.00" fill="#000000">/facilities/empty.hpp</text>
</g>
<!-- Node15&#45;&gt;Node17 -->
<g id="edge20" class="edge">
<title>Node15&#45;&gt;Node17</title>
<path fill="none" stroke="#191970" d="M684.6197,-123.3906C692.8804,-115.4527 704.932,-103.8718 715.5552,-93.6635"/>
<polygon fill="#191970" stroke="#191970" points="718.1782,-95.9971 722.9636,-86.5446 713.3279,-90.9498 718.1782,-95.9971"/>
</g>
<!-- Node18 -->
<g id="node19" class="node">
<title>Node18</title>
<polygon fill="#ffffff" stroke="#bfbfbf" points="143.1197,-56.5 143.1197,-86.5 254.1197,-86.5 254.1197,-56.5 143.1197,-56.5"/>
<text text-anchor="start" x="151.1197" y="-74.5" font-family="Helvetica,sans-Serif" font-size="10.00" fill="#000000">boost/preprocessor</text>
<text text-anchor="middle" x="198.6197" y="-63.5" font-family="Helvetica,sans-Serif" font-size="10.00" fill="#000000">/seq/for_each_i.hpp</text>
</g>
<!-- Node15&#45;&gt;Node18 -->
<g id="edge21" class="edge">
<title>Node15&#45;&gt;Node18</title>
<path fill="none" stroke="#191970" d="M629.9675,-129.8067C555.9981,-124.1241 403.2628,-110.7297 264.1846,-86.9561"/>
<polygon fill="#191970" stroke="#191970" points="264.6464,-83.4841 254.1958,-85.2264 263.452,-90.3814 264.6464,-83.4841"/>
</g>
<!-- Node19 -->
<g id="node20" class="node">
<title>Node19</title>
<polygon fill="#ffffff" stroke="#bfbfbf" points="272.6197,-56.5 272.6197,-86.5 382.6197,-86.5 382.6197,-56.5 272.6197,-56.5"/>
<text text-anchor="start" x="280.6197" y="-74.5" font-family="Helvetica,sans-Serif" font-size="10.00" fill="#000000">boost/preprocessor</text>
<text text-anchor="middle" x="327.6197" y="-63.5" font-family="Helvetica,sans-Serif" font-size="10.00" fill="#000000">/stringize.hpp</text>
</g>
<!-- Node15&#45;&gt;Node19 -->
<g id="edge22" class="edge">
<title>Node15&#45;&gt;Node19</title>
<path fill="none" stroke="#191970" d="M629.8246,-126.7995C575.89,-119.0949 482.3636,-104.9751 392.7745,-87.1476"/>
<polygon fill="#191970" stroke="#191970" points="393.2116,-83.6656 382.7181,-85.1273 391.8327,-90.5285 393.2116,-83.6656"/>
</g>
<!-- Node20 -->
<g id="node21" class="node">
<title>Node20</title>
<polygon fill="#ffffff" stroke="#bfbfbf" points="401.1197,-56.5 401.1197,-86.5 516.1197,-86.5 516.1197,-56.5 401.1197,-56.5"/>
<text text-anchor="start" x="409.1197" y="-74.5" font-family="Helvetica,sans-Serif" font-size="10.00" fill="#000000">boost/preprocessor</text>
<text text-anchor="middle" x="458.6197" y="-63.5" font-family="Helvetica,sans-Serif" font-size="10.00" fill="#000000">/variadic/to_seq.hpp</text>
</g>
<!-- Node15&#45;&gt;Node20 -->
<g id="edge23" class="edge">
<title>Node15&#45;&gt;Node20</title>
<path fill="none" stroke="#191970" d="M640.8697,-123.3906C608.93,-114.2967 560.1977,-100.4215 521.1593,-89.3064"/>
<polygon fill="#191970" stroke="#191970" points="522.0355,-85.9168 511.4593,-86.5446 520.1186,-92.6493 522.0355,-85.9168"/>
</g>
<!-- Node21 -->
<g id="node22" class="node">
<title>Node21</title>
<polygon fill="#ffffff" stroke="#bfbfbf" points="814.6197,-62 814.6197,-81 950.6197,-81 950.6197,-62 814.6197,-62"/>
<text text-anchor="middle" x="882.6197" y="-69" font-family="Helvetica,sans-Serif" font-size="10.00" fill="#000000">boost/vmd/is_empty.hpp</text>
</g>
<!-- Node15&#45;&gt;Node21 -->
<g id="edge24" class="edge">
<title>Node15&#45;&gt;Node21</title>
<path fill="none" stroke="#191970" d="M707.1197,-123.3906C743.0668,-112.7621 801.1025,-95.6025 840.5078,-83.9514"/>
<polygon fill="#191970" stroke="#191970" points="841.7508,-87.2337 850.348,-81.0419 839.7659,-80.521 841.7508,-87.2337"/>
</g>
<!-- Node22 -->
<g id="node23" class="node">
<title>Node22</title>
<g id="a_node23"><a xlink:href="Tracer_8hpp.html" target="_top" xlink:title="logging/Tracer.hpp">
<polygon fill="#ffffff" stroke="#000000" points="1169.1197,-62 1169.1197,-81 1274.1197,-81 1274.1197,-62 1169.1197,-62"/>
<text text-anchor="middle" x="1221.6197" y="-69" font-family="Helvetica,sans-Serif" font-size="10.00" fill="#000000">logging/Tracer.hpp</text>
</a>
</g>
</g>
<!-- Node15&#45;&gt;Node22 -->
<g id="edge26" class="edge">
<title>Node15&#45;&gt;Node22</title>
<path fill="none" stroke="#191970" d="M719.4366,-129.1537C800.0513,-122.0647 974.8022,-105.9201 1121.6197,-87 1133.667,-85.4475 1146.5012,-83.603 1158.8184,-81.7374"/>
<polygon fill="#191970" stroke="#191970" points="1159.662,-85.149 1169.0147,-80.1713 1158.5992,-78.2301 1159.662,-85.149"/>
</g>
<!-- Node23 -->
<g id="node24" class="node">
<title>Node23</title>
<polygon fill="#ffffff" stroke="#bfbfbf" points="968.6197,-62 968.6197,-81 1112.6197,-81 1112.6197,-62 968.6197,-62"/>
<text text-anchor="middle" x="1040.6197" y="-69" font-family="Helvetica,sans-Serif" font-size="10.00" fill="#000000">prettyprint/prettyprint.hpp</text>
</g>
<!-- Node15&#45;&gt;Node23 -->
<g id="edge28" class="edge">
<title>Node15&#45;&gt;Node23</title>
<path fill="none" stroke="#191970" d="M719.6068,-126.1523C775.8316,-117.4989 874.9708,-101.9272 959.6197,-87 966.7932,-85.735 974.3144,-84.3607 981.762,-82.9704"/>
<polygon fill="#191970" stroke="#191970" points="982.6532,-86.3641 991.8324,-81.0734 981.3573,-79.4851 982.6532,-86.3641"/>
</g>
<!-- Node24 -->
<g id="node25" class="node">
<title>Node24</title>
<g id="a_node25"><a xlink:href="String_8hpp.html" target="_top" xlink:title="utils/String.hpp">
<polygon fill="#ffffff" stroke="#000000" points="534.6197,-62 534.6197,-81 624.6197,-81 624.6197,-62 534.6197,-62"/>
<text text-anchor="middle" x="579.6197" y="-69" font-family="Helvetica,sans-Serif" font-size="10.00" fill="#000000">utils/String.hpp</text>
</a>
</g>
</g>
<!-- Node15&#45;&gt;Node24 -->
<g id="edge29" class="edge">
<title>Node15&#45;&gt;Node24</title>
<path fill="none" stroke="#191970" d="M659.776,-123.3906C644.5779,-113.5519 620.7349,-98.1167 602.9991,-86.6351"/>
<polygon fill="#191970" stroke="#191970" points="604.6558,-83.5382 594.3593,-81.0419 600.8517,-89.4144 604.6558,-83.5382"/>
</g>
<!-- Node22&#45;&gt;Node13 -->
<g id="edge27" class="edge">
<title>Node22&#45;&gt;Node13</title>
<path fill="none" stroke="#191970" d="M1224.1916,-81.2484C1229.2847,-100.5527 1240.7401,-143.9723 1247.4512,-169.4095"/>
<polygon fill="#191970" stroke="#191970" points="1244.1476,-170.6082 1250.0829,-179.3845 1250.916,-168.8225 1244.1476,-170.6082"/>
</g>
<!-- Node24&#45;&gt;Node2 -->
<g id="edge31" class="edge">
<title>Node24&#45;&gt;Node2</title>
<path fill="none" stroke="#191970" d="M611.534,-61.9361C620.2467,-59.6494 629.7357,-57.4526 638.6197,-56 766.4314,-35.1013 1171.656,-16.4461 1289.3036,-11.3618"/>
<polygon fill="#191970" stroke="#191970" points="1289.6233,-14.8514 1299.464,-10.9256 1289.3231,-7.8578 1289.6233,-14.8514"/>
</g>
<!-- Node25 -->
<g id="node26" class="node">
<title>Node25</title>
<polygon fill="#ffffff" stroke="#bfbfbf" points="254.6197,-.5 254.6197,-19.5 310.6197,-19.5 310.6197,-.5 254.6197,-.5"/>
<text text-anchor="middle" x="282.6197" y="-7.5" font-family="Helvetica,sans-Serif" font-size="10.00" fill="#000000">sstream</text>
</g>
<!-- Node24&#45;&gt;Node25 -->
<g id="edge30" class="edge">
<title>Node24&#45;&gt;Node25</title>
<path fill="none" stroke="#191970" d="M547.4596,-61.9314C539.9936,-59.8508 532.0552,-57.7509 524.6197,-56 453.067,-39.1507 368.5004,-24.1898 320.6538,-16.1776"/>
<polygon fill="#191970" stroke="#191970" points="321.173,-12.7159 310.7343,-14.5281 320.0247,-19.6211 321.173,-12.7159"/>
</g>
<!-- Node26&#45;&gt;Node5 -->
<g id="edge34" class="edge">
<title>Node26&#45;&gt;Node5</title>
<path fill="none" stroke="#191970" d="M1293.5569,-486.9024C1337.4631,-471.9857 1418.3159,-439.5819 1470.6197,-389 1526.5776,-334.8844 1562.4117,-246.6987 1576.2042,-208.104"/>
<polygon fill="#191970" stroke="#191970" points="1579.5294,-209.1977 1579.5084,-198.6029 1572.9178,-206.8984 1579.5294,-209.1977"/>
</g>
<!-- Node26&#45;&gt;Node7 -->
<g id="edge33" class="edge">
<title>Node26&#45;&gt;Node7</title>
<path fill="none" stroke="#191970" d="M1248.7313,-486.9413C1235.4044,-477.3379 1215.206,-461.6145 1200.6197,-445 1174.2625,-414.9776 1185.3384,-391.9246 1152.6197,-369 1122.245,-347.7177 1021.1793,-331.2591 961.6094,-323.1185"/>
<polygon fill="#191970" stroke="#191970" points="961.729,-319.6032 951.3525,-321.7428 960.7985,-326.5411 961.729,-319.6032"/>
</g>
<!-- Node26&#45;&gt;Node12 -->
<g id="edge35" class="edge">
<title>Node26&#45;&gt;Node12</title>
<path fill="none" stroke="#191970" d="M1261.9774,-486.9681C1260.4312,-456.0222 1259.8055,-357.184 1309.6197,-302 1341.8326,-266.3147 1372.9574,-294.5716 1411.6197,-266 1432.5293,-250.5478 1449.1563,-225.2561 1458.9344,-207.9029"/>
<polygon fill="#191970" stroke="#191970" points="1462.2115,-209.2 1463.8807,-198.7374 1456.0513,-205.8755 1462.2115,-209.2"/>
</g>
<!-- Node26&#45;&gt;Node13 -->
<g id="edge36" class="edge">
<title>Node26&#45;&gt;Node13</title>
<path fill="none" stroke="#191970" d="M1255.7425,-486.9843C1242.4701,-467.6531 1214.6197,-421.9698 1214.6197,-379 1214.6197,-379 1214.6197,-379 1214.6197,-317.5 1214.6197,-277.195 1232.0238,-232.5903 1243.2752,-207.9654"/>
<polygon fill="#191970" stroke="#191970" points="1246.5428,-209.2425 1247.6519,-198.7058 1240.2142,-206.2511 1246.5428,-209.2425"/>
</g>
<!-- Node26&#45;&gt;Node27 -->
<g id="edge37" class="edge">
<title>Node26&#45;&gt;Node27</title>
<path fill="none" stroke="#191970" d="M1196.4242,-489.1769C1172.2593,-486.5426 1144.7085,-483.5848 1119.6197,-481 971.8242,-465.7733 797.8027,-449.1047 708.3588,-440.6295"/>
<polygon fill="#191970" stroke="#191970" points="708.4246,-437.1202 698.1392,-439.662 707.7647,-444.089 708.4246,-437.1202"/>
</g>
<!-- Node27&#45;&gt;Node7 -->
<g id="edge38" class="edge">
<title>Node27&#45;&gt;Node7</title>
<path fill="none" stroke="#191970" d="M683.8333,-425.4692C712.5716,-417.2099 753.9458,-404.2123 788.6197,-389 826.6106,-372.3325 868.1098,-347.9066 893.2511,-332.3572"/>
<polygon fill="#191970" stroke="#191970" points="895.1067,-335.3248 901.7368,-327.0609 891.4003,-329.3866 895.1067,-335.3248"/>
</g>
<!-- Node28 -->
<g id="node29" class="node">
<title>Node28</title>
<polygon fill="#ffffff" stroke="#bfbfbf" points="34.6197,-241 34.6197,-260 94.6197,-260 94.6197,-241 34.6197,-241"/>
<text text-anchor="middle" x="64.6197" y="-248" font-family="Helvetica,sans-Serif" font-size="10.00" fill="#000000">iostream</text>
</g>
<!-- Node27&#45;&gt;Node28 -->
<g id="edge39" class="edge">
<title>Node27&#45;&gt;Node28</title>
<path fill="none" stroke="#191970" d="M599.0708,-429.4469C555.866,-423.3567 492.2113,-411.326 440.6197,-389 400.1173,-371.4727 394.7444,-358.3508 358.6197,-333 339.3348,-319.4666 337.3342,-311.1402 315.6197,-302 229.5526,-265.7723 198.9706,-289.5951 108.6197,-266 105.4853,-265.1814 102.2561,-264.2402 99.0383,-263.2348"/>
<polygon fill="#191970" stroke="#191970" points="100.1188,-259.9057 89.5255,-260.0836 97.9176,-266.5506 100.1188,-259.9057"/>
</g>
<!-- Node29 -->
<g id="node30" class="node">
<title>Node29</title>
<polygon fill="#ffffff" stroke="#bfbfbf" points="626.1197,-369.5 626.1197,-388.5 671.1197,-388.5 671.1197,-369.5 626.1197,-369.5"/>
<text text-anchor="middle" x="648.6197" y="-376.5" font-family="Helvetica,sans-Serif" font-size="10.00" fill="#000000">utility</text>
</g>
<!-- Node27&#45;&gt;Node29 -->
<g id="edge40" class="edge">
<title>Node27&#45;&gt;Node29</title>
<path fill="none" stroke="#191970" d="M648.6197,-425.2455C648.6197,-417.9382 648.6197,-407.6944 648.6197,-398.7046"/>
<polygon fill="#191970" stroke="#191970" points="652.1198,-398.6426 648.6197,-388.6427 645.1198,-398.6427 652.1198,-398.6426"/>
</g>
<!-- Node30 -->
<g id="node31" class="node">
<title>Node30</title>
<g id="a_node31"><a xlink:href="differences_8hpp.html" target="_top" xlink:title="math/differences.hpp">
<polygon fill="#ffffff" stroke="#000000" points="449.6197,-369.5 449.6197,-388.5 569.6197,-388.5 569.6197,-369.5 449.6197,-369.5"/>
<text text-anchor="middle" x="509.6197" y="-376.5" font-family="Helvetica,sans-Serif" font-size="10.00" fill="#000000">math/differences.hpp</text>
</a>
</g>
</g>
<!-- Node27&#45;&gt;Node30 -->
<g id="edge41" class="edge">
<title>Node27&#45;&gt;Node30</title>
<path fill="none" stroke="#191970" d="M624.7248,-425.3733C602.1115,-416.2629 567.9656,-402.5062 542.7325,-392.3404"/>
<polygon fill="#191970" stroke="#191970" points="543.7864,-388.9917 533.2029,-388.5011 541.1705,-395.4845 543.7864,-388.9917"/>
</g>
<!-- Node27&#45;&gt;Node31 -->
<g id="edge61" class="edge">
<title>Node27&#45;&gt;Node31</title>
<path fill="none" stroke="#191970" d="M640.6071,-425.0661C628.5699,-410.7533 604.461,-384.3667 578.6197,-369 547.5836,-350.5442 509.1101,-337.7866 478.0169,-329.5858"/>
<polygon fill="#191970" stroke="#191970" points="478.7547,-326.1619 468.1999,-327.0818 477.0246,-332.9448 478.7547,-326.1619"/>
</g>
<!-- Node30&#45;&gt;Node7 -->
<g id="edge42" class="edge">
<title>Node30&#45;&gt;Node7</title>
<path fill="none" stroke="#191970" d="M569.6468,-371.3489C634.9655,-362.8263 742.4123,-348.2318 834.6197,-333 846.7924,-330.9892 859.9401,-328.6011 872.0673,-326.3091"/>
<polygon fill="#191970" stroke="#191970" points="872.8049,-329.7316 881.9703,-324.4169 871.4911,-322.856 872.8049,-329.7316"/>
</g>
<!-- Node30&#45;&gt;Node31 -->
<g id="edge43" class="edge">
<title>Node30&#45;&gt;Node31</title>
<path fill="none" stroke="#191970" d="M495.8697,-369.3906C481.9207,-359.6421 460.1099,-344.3994 443.73,-332.9521"/>
<polygon fill="#191970" stroke="#191970" points="445.4748,-329.9015 435.2732,-327.0419 441.4649,-335.6392 445.4748,-329.9015"/>
</g>
<!-- Node31&#45;&gt;Node16 -->
<g id="edge48" class="edge">
<title>Node31&#45;&gt;Node16</title>
<path fill="none" stroke="#191970" d="M378.4031,-307.993C333.0293,-297.5008 265.1946,-280.2159 242.6197,-266 170.2704,-220.4399 110.3712,-135.9914 84.0348,-95.0171"/>
<polygon fill="#191970" stroke="#191970" points="86.9504,-93.0792 78.6443,-86.502 81.0359,-96.8234 86.9504,-93.0792"/>
</g>
<!-- Node31&#45;&gt;Node18 -->
<g id="edge50" class="edge">
<title>Node31&#45;&gt;Node18</title>
<path fill="none" stroke="#191970" d="M380.9874,-307.9627C341.6468,-298.0023 285.6635,-281.6738 269.6197,-266 221.7041,-219.1895 205.9254,-137.4683 200.8863,-96.4642"/>
<polygon fill="#191970" stroke="#191970" points="204.3622,-96.0524 199.7774,-86.501 197.4051,-96.8268 204.3622,-96.0524"/>
</g>
<!-- Node31&#45;&gt;Node19 -->
<g id="edge51" class="edge">
<title>Node31&#45;&gt;Node19</title>
<path fill="none" stroke="#191970" d="M382.4123,-307.9438C346.4142,-298.2825 296.99,-282.4638 285.6197,-266 249.0894,-213.1051 287.8567,-134.3412 311.7576,-95.2633"/>
<polygon fill="#191970" stroke="#191970" points="314.8059,-96.9908 317.1728,-86.6637 308.8824,-93.2607 314.8059,-96.9908"/>
</g>
<!-- Node31&#45;&gt;Node20 -->
<g id="edge52" class="edge">
<title>Node31&#45;&gt;Node20</title>
<path fill="none" stroke="#191970" d="M385.9634,-307.9964C351.9612,-298.1273 304.3804,-281.9285 293.6197,-266 285.907,-254.5833 288.3182,-247.7169 293.6197,-235 320.2928,-171.0191 385.5337,-119.2462 425.5259,-92.1319"/>
<polygon fill="#191970" stroke="#191970" points="427.5067,-95.0179 433.8962,-86.5665 423.631,-89.1888 427.5067,-95.0179"/>
</g>
<!-- Node31&#45;&gt;Node25 -->
<g id="edge46" class="edge">
<title>Node31&#45;&gt;Node25</title>
<path fill="none" stroke="#191970" d="M379.0625,-307.9615C315.4772,-293.6693 202.6462,-268.1341 198.6197,-266 95.2503,-211.2124 52.4152,-194.2245 5.6197,-87 .1087,-74.3724 -3.289,-66.5101 5.6197,-56 20.9043,-37.9679 172.0393,-20.854 244.3938,-13.6182"/>
<polygon fill="#191970" stroke="#191970" points="244.8641,-17.0889 254.4719,-12.6233 244.1764,-10.1227 244.8641,-17.0889"/>
</g>
<!-- Node31&#45;&gt;Node28 -->
<g id="edge45" class="edge">
<title>Node31&#45;&gt;Node28</title>
<path fill="none" stroke="#191970" d="M382.1755,-307.9597C372.8422,-305.8549 362.9031,-303.7373 353.6197,-302 245.4397,-281.7548 215.463,-292.4065 108.6197,-266 105.3961,-265.2033 102.0765,-264.2642 98.7743,-263.2488"/>
<polygon fill="#191970" stroke="#191970" points="99.6263,-259.8445 89.0332,-260.0395 97.4358,-266.4929 99.6263,-259.8445"/>
</g>
<!-- Node32 -->
<g id="node33" class="node">
<title>Node32</title>
<polygon fill="#ffffff" stroke="#bfbfbf" points="302.6197,-241 302.6197,-260 354.6197,-260 354.6197,-241 302.6197,-241"/>
<text text-anchor="middle" x="328.6197" y="-248" font-family="Helvetica,sans-Serif" font-size="10.00" fill="#000000">cassert</text>
</g>
<!-- Node31&#45;&gt;Node32 -->
<g id="edge44" class="edge">
<title>Node31&#45;&gt;Node32</title>
<path fill="none" stroke="#191970" d="M408.2951,-307.9005C393.102,-296.9549 368.0495,-278.9064 350.0913,-265.9688"/>
<polygon fill="#191970" stroke="#191970" points="352.0792,-263.0872 341.9197,-260.0817 347.9875,-268.7668 352.0792,-263.0872"/>
</g>
<!-- Node33 -->
<g id="node34" class="node">
<title>Node33</title>
<polygon fill="#ffffff" stroke="#bfbfbf" points="373.1197,-241 373.1197,-260 520.1197,-260 520.1197,-241 373.1197,-241"/>
<text text-anchor="middle" x="446.6197" y="-248" font-family="Helvetica,sans-Serif" font-size="10.00" fill="#000000">boost/current_function.hpp</text>
</g>
<!-- Node31&#45;&gt;Node33 -->
<g id="edge47" class="edge">
<title>Node31&#45;&gt;Node33</title>
<path fill="none" stroke="#191970" d="M425.2016,-307.9005C428.9145,-297.95 434.8178,-282.1292 439.4874,-269.6147"/>
<polygon fill="#191970" stroke="#191970" points="442.8277,-270.6743 443.0445,-260.0817 436.2694,-268.2271 442.8277,-270.6743"/>
</g>
<!-- Node34 -->
<g id="node35" class="node">
<title>Node34</title>
<polygon fill="#ffffff" stroke="#bfbfbf" points="538.1197,-235.5 538.1197,-265.5 667.1197,-265.5 667.1197,-235.5 538.1197,-235.5"/>
<text text-anchor="start" x="546.1197" y="-253.5" font-family="Helvetica,sans-Serif" font-size="10.00" fill="#000000">boost/preprocessor</text>
<text text-anchor="middle" x="602.6197" y="-242.5" font-family="Helvetica,sans-Serif" font-size="10.00" fill="#000000">/facilities/is_empty.hpp</text>
</g>
<!-- Node31&#45;&gt;Node34 -->
<g id="edge49" class="edge">
<title>Node31&#45;&gt;Node34</title>
<path fill="none" stroke="#191970" d="M447.5526,-307.9005C474.7768,-297.8231 518.2665,-281.7247 552.2707,-269.1375"/>
<polygon fill="#191970" stroke="#191970" points="553.8755,-272.2756 562.0386,-265.5218 551.4454,-265.7109 553.8755,-272.2756"/>
</g>
<!-- Node35 -->
<g id="node36" class="node">
<title>Node35</title>
<g id="a_node36"><a xlink:href="Parallel_8hpp.html" target="_top" xlink:title="Parallel.hpp">
<polygon fill="#ffffff" stroke="#ff0000" points="1328.6197,-241 1328.6197,-260 1402.6197,-260 1402.6197,-241 1328.6197,-241"/>
<text text-anchor="middle" x="1365.6197" y="-248" font-family="Helvetica,sans-Serif" font-size="10.00" fill="#000000">Parallel.hpp</text>
</a>
</g>
</g>
<!-- Node31&#45;&gt;Node35 -->
<g id="edge53" class="edge">
<title>Node31&#45;&gt;Node35</title>
<path fill="none" stroke="#191970" d="M475.4204,-313.6815C643.7463,-301.7347 1158.6008,-265.1931 1318.0424,-253.8768"/>
<polygon fill="#191970" stroke="#191970" points="1318.7344,-257.3366 1328.4615,-253.1373 1318.2387,-250.3541 1318.7344,-257.3366"/>
</g>
<!-- Node37 -->
<g id="node37" class="node">
<title>Node37</title>
<g id="a_node37"><a xlink:href="stacktrace_8hpp.html" target="_top" xlink:title="stacktrace.hpp">
<polygon fill="#ffffff" stroke="#000000" points="850.1197,-123.5 850.1197,-142.5 939.1197,-142.5 939.1197,-123.5 850.1197,-123.5"/>
<text text-anchor="middle" x="894.6197" y="-130.5" font-family="Helvetica,sans-Serif" font-size="10.00" fill="#000000">stacktrace.hpp</text>
</a>
</g>
</g>
<!-- Node31&#45;&gt;Node37 -->
<g id="edge59" class="edge">
<title>Node31&#45;&gt;Node37</title>
<path fill="none" stroke="#191970" d="M475.1851,-312.086C527.6632,-305.533 609.2049,-291.9824 675.6197,-266 754.2398,-235.2428 836.652,-176.9927 874.0243,-148.9175"/>
<polygon fill="#191970" stroke="#191970" points="876.2674,-151.609 882.119,-142.7767 872.0367,-146.0322 876.2674,-151.609"/>
</g>
<!-- Node35&#45;&gt;Node2 -->
<g id="edge56" class="edge">
<title>Node35&#45;&gt;Node2</title>
<path fill="none" stroke="#191970" d="M1364.1998,-240.7431C1359.9964,-212.2071 1347.0072,-126.4712 1332.6197,-56 1330.8581,-47.3714 1328.6419,-37.8989 1326.6611,-29.8041"/>
<polygon fill="#191970" stroke="#191970" points="1329.9887,-28.6828 1324.1709,-19.8283 1323.1971,-30.3782 1329.9887,-28.6828"/>
</g>
<!-- Node35&#45;&gt;Node5 -->
<g id="edge54" class="edge">
<title>Node35&#45;&gt;Node5</title>
<path fill="none" stroke="#191970" d="M1399.526,-240.8906C1440.075,-229.3986 1507.5648,-210.2713 1548.2972,-198.7274"/>
<polygon fill="#191970" stroke="#191970" points="1549.377,-202.0593 1558.0437,-195.9651 1547.4683,-195.3245 1549.377,-202.0593"/>
</g>
<!-- Node35&#45;&gt;Node12 -->
<g id="edge57" class="edge">
<title>Node35&#45;&gt;Node12</title>
<path fill="none" stroke="#191970" d="M1381.7135,-240.8906C1398.3426,-230.9616 1424.5174,-215.333 1443.7991,-203.8201"/>
<polygon fill="#191970" stroke="#191970" points="1445.8474,-206.6736 1452.639,-198.5419 1442.2587,-200.6634 1445.8474,-206.6736"/>
</g>
<!-- Node35&#45;&gt;Node13 -->
<g id="edge58" class="edge">
<title>Node35&#45;&gt;Node13</title>
<path fill="none" stroke="#191970" d="M1347.9635,-240.8906C1329.4711,-230.8262 1300.2188,-214.9057 1278.989,-203.3514"/>
<polygon fill="#191970" stroke="#191970" points="1280.6086,-200.2481 1270.152,-198.5419 1277.2623,-206.3965 1280.6086,-200.2481"/>
</g>
<!-- Node35&#45;&gt;Node14 -->
<g id="edge55" class="edge">
<title>Node35&#45;&gt;Node14</title>
<path fill="none" stroke="#191970" d="M1372.7742,-240.6686C1384.4504,-225.3107 1409.0809,-195.6643 1436.6197,-179 1470.7478,-158.3485 1514.9497,-146.2309 1546.3235,-139.6649"/>
<polygon fill="#191970" stroke="#191970" points="1547.3166,-143.0359 1556.4385,-137.6467 1545.9469,-136.1712 1547.3166,-143.0359"/>
</g>
<!-- Node37&#45;&gt;Node2 -->
<g id="edge60" class="edge">
<title>Node37&#45;&gt;Node2</title>
<path fill="none" stroke="#191970" d="M939.2024,-130.1522C986.4205,-125.7504 1062.2016,-114.6665 1121.6197,-87 1141.6925,-77.6536 1140.9285,-66.1255 1160.6197,-56 1202.4928,-34.4683 1255.8293,-21.7686 1289.3613,-15.3442"/>
<polygon fill="#191970" stroke="#191970" points="1290.3116,-18.7282 1299.5128,-13.4757 1289.0444,-11.8439 1290.3116,-18.7282"/>
</g>
<!-- Node38&#45;&gt;Node2 -->
<g id="edge65" class="edge">
<title>Node38&#45;&gt;Node2</title>
<path fill="none" stroke="#191970" d="M735.3349,-369.4288C737.0182,-353.4618 742.573,-321.2478 760.6197,-302 932.5169,-118.6624 1099.9369,-258.5282 1283.6197,-87 1300.3331,-71.3926 1310.6609,-46.8422 1316.2547,-29.6703"/>
<polygon fill="#191970" stroke="#191970" points="1319.7486,-30.2033 1319.2665,-19.6195 1313.0432,-28.1939 1319.7486,-30.2033"/>
</g>
<!-- Node38&#45;&gt;Node7 -->
<g id="edge63" class="edge">
<title>Node38&#45;&gt;Node7</title>
<path fill="none" stroke="#191970" d="M763.0572,-369.3906C794.177,-358.8749 844.2162,-341.966 878.6682,-330.3243"/>
<polygon fill="#191970" stroke="#191970" points="880.0287,-333.5591 888.3819,-327.0419 877.7877,-326.9274 880.0287,-333.5591"/>
</g>
<!-- Node38&#45;&gt;Node13 -->
<g id="edge66" class="edge">
<title>Node38&#45;&gt;Node13</title>
<path fill="none" stroke="#191970" d="M760.1836,-369.339C780.9496,-361.0042 810.6229,-347.9686 834.6197,-333 853.1128,-321.4645 853.3544,-312.1936 872.6197,-302 975.9641,-247.3189 1109.4785,-215.4507 1187.6187,-200.1968"/>
<polygon fill="#191970" stroke="#191970" points="1188.6403,-203.5647 1197.8011,-198.2421 1187.3206,-196.6902 1188.6403,-203.5647"/>
</g>
<!-- Node39 -->
<g id="node39" class="node">
<title>Node39</title>
<polygon fill="#ffffff" stroke="#bfbfbf" points="769.6197,-308 769.6197,-327 825.6197,-327 825.6197,-308 769.6197,-308"/>
<text text-anchor="middle" x="797.6197" y="-315" font-family="Helvetica,sans-Serif" font-size="10.00" fill="#000000">stddef.h</text>
</g>
<!-- Node38&#45;&gt;Node39 -->
<g id="edge64" class="edge">
<title>Node38&#45;&gt;Node39</title>
<path fill="none" stroke="#191970" d="M744.4635,-369.3906C754.0237,-360.0581 768.742,-345.6902 780.2692,-334.4374"/>
<polygon fill="#191970" stroke="#191970" points="782.9263,-336.7348 787.6372,-327.2449 778.0365,-331.7257 782.9263,-336.7348"/>
</g>
<!-- Node40&#45;&gt;Node7 -->
<g id="edge68" class="edge">
<title>Node40&#45;&gt;Node7</title>
<path fill="none" stroke="#191970" d="M644.5827,-486.9331C680.9557,-469.2267 760.0416,-429.4502 822.6197,-389 849.648,-371.5291 878.8697,-348.6033 897.4346,-333.4794"/>
<polygon fill="#191970" stroke="#191970" points="899.6622,-336.179 905.1683,-327.1272 895.2193,-330.7697 899.6622,-336.179"/>
</g>
<!-- Node40&#45;&gt;Node27 -->
<g id="edge72" class="edge">
<title>Node40&#45;&gt;Node27</title>
<path fill="none" stroke="#191970" d="M628.3697,-486.8906C631.7666,-478.1862 636.8728,-465.1015 641.1078,-454.2494"/>
<polygon fill="#191970" stroke="#191970" points="644.4419,-455.3331 644.8169,-444.7449 637.9209,-452.7882 644.4419,-455.3331"/>
</g>
<!-- Node40&#45;&gt;Node28 -->
<g id="edge70" class="edge">
<title>Node40&#45;&gt;Node28</title>
<path fill="none" stroke="#191970" d="M593.5066,-486.944C562.9058,-477.2827 515.036,-461.4641 474.6197,-445 327.4923,-385.0658 157.76,-298.8723 92.3199,-264.9743"/>
<polygon fill="#191970" stroke="#191970" points="93.5713,-261.6803 83.0835,-260.1779 90.3452,-267.8927 93.5713,-261.6803"/>
</g>
<!-- Node40&#45;&gt;Node30 -->
<g id="edge71" class="edge">
<title>Node40&#45;&gt;Node30</title>
<path fill="none" stroke="#191970" d="M615.2088,-486.8845C595.7501,-467.0028 550.8637,-421.1406 526.3469,-396.0908"/>
<polygon fill="#191970" stroke="#191970" points="528.6567,-393.447 519.1607,-388.7484 523.654,-398.3432 528.6567,-393.447"/>
</g>
<!-- Node40&#45;&gt;Node31 -->
<g id="edge73" class="edge">
<title>Node40&#45;&gt;Node31</title>
<path fill="none" stroke="#191970" d="M594.2025,-486.9898C553.0674,-472.5424 480.2963,-441.0958 440.6197,-389 429.2226,-374.0354 424.6474,-352.7924 422.8187,-337.3521"/>
<polygon fill="#191970" stroke="#191970" points="426.2971,-336.9532 421.9143,-327.3074 419.3253,-337.581 426.2971,-336.9532"/>
</g>
<!-- Node41 -->
<g id="node41" class="node">
<title>Node41</title>
<polygon fill="#ffffff" stroke="#bfbfbf" points="298.6197,-425.5 298.6197,-444.5 340.6197,-444.5 340.6197,-425.5 298.6197,-425.5"/>
<text text-anchor="middle" x="319.6197" y="-432.5" font-family="Helvetica,sans-Serif" font-size="10.00" fill="#000000">array</text>
</g>
<!-- Node40&#45;&gt;Node41 -->
<g id="edge69" class="edge">
<title>Node40&#45;&gt;Node41</title>
<path fill="none" stroke="#191970" d="M593.068,-486.9733C585.4329,-484.8443 577.2676,-482.7126 569.6197,-481 475.0754,-459.8284 449.1257,-466.342 354.6197,-445 353.3368,-444.7103 352.0311,-444.4016 350.7149,-444.0789"/>
<polygon fill="#191970" stroke="#191970" points="351.1824,-440.5825 340.6202,-441.4144 349.3958,-447.3507 351.1824,-440.5825"/>
</g>
<!-- Node42&#45;&gt;Node14 -->
<g id="edge75" class="edge">
<title>Node42&#45;&gt;Node14</title>
<path fill="none" stroke="#191970" d="M1822.3097,-548.2189C1806.2722,-528.3065 1772.6197,-481.0379 1772.6197,-435 1772.6197,-435 1772.6197,-435 1772.6197,-250.5 1772.6197,-216.9798 1772.8932,-202.1171 1748.6197,-179 1730.8669,-162.0928 1667.0831,-147.6943 1624.767,-139.7097"/>
<polygon fill="#191970" stroke="#191970" points="1625.2444,-136.2388 1614.7755,-137.8677 1623.9752,-143.1228 1625.2444,-136.2388"/>
</g>
<!-- Node43&#45;&gt;Node7 -->
<g id="edge77" class="edge">
<title>Node43&#45;&gt;Node7</title>
<path fill="none" stroke="#191970" d="M460.7489,-551.8968C528.3512,-543.6355 640.9823,-528.0706 679.6197,-512 766.3929,-475.9082 781.3939,-451.4542 851.6197,-389 870.4821,-372.2251 889.6267,-350.4685 902.2054,-335.3816"/>
<polygon fill="#191970" stroke="#191970" points="905.1549,-337.3052 908.801,-327.3575 899.7472,-332.8602 905.1549,-337.3052"/>
</g>
<!-- Node43&#45;&gt;Node28 -->
<g id="edge80" class="edge">
<title>Node43&#45;&gt;Node28</title>
<path fill="none" stroke="#191970" d="M354.4867,-549.1356C325.6596,-542.4227 290.5266,-530.9965 263.6197,-512 167.8801,-444.407 97.6519,-316.9078 73.641,-269.1704"/>
<polygon fill="#191970" stroke="#191970" points="76.6795,-267.4189 69.1102,-260.0057 70.4044,-270.5212 76.6795,-267.4189"/>
</g>
<!-- Node43&#45;&gt;Node30 -->
<g id="edge81" class="edge">
<title>Node43&#45;&gt;Node30</title>
<path fill="none" stroke="#191970" d="M374.0635,-548.3369C354.4133,-541.1509 330.4312,-529.5161 314.6197,-512 287.6621,-482.1361 264.2494,-456.2236 289.6197,-425 308.3061,-402.0024 382.2569,-390.1016 439.3196,-384.2254"/>
<polygon fill="#191970" stroke="#191970" points="439.7917,-387.6959 449.3998,-383.231 439.1044,-380.7297 439.7917,-387.6959"/>
</g>
<!-- Node43&#45;&gt;Node31 -->
<g id="edge84" class="edge">
<title>Node43&#45;&gt;Node31</title>
<path fill="none" stroke="#191970" d="M354.424,-550.5072C329.8608,-544.2764 302.4696,-532.871 285.6197,-512 261.1707,-481.7162 258.0602,-459.7351 275.6197,-425 298.9199,-378.9092 352.3259,-347.741 387.6762,-331.2999"/>
<polygon fill="#191970" stroke="#191970" points="389.4409,-334.3442 397.1279,-327.0531 386.5719,-327.9591 389.4409,-334.3442"/>
</g>
<!-- Node43&#45;&gt;Node40 -->
<g id="edge82" class="edge">
<title>Node43&#45;&gt;Node40</title>
<path fill="none" stroke="#191970" d="M441.526,-548.3906C479.1877,-537.7169 540.0899,-520.4566 581.2083,-508.8033"/>
<polygon fill="#191970" stroke="#191970" points="582.2849,-512.1361 590.9516,-506.0419 580.3761,-505.4013 582.2849,-512.1361"/>
</g>
<!-- Node43&#45;&gt;Node41 -->
<g id="edge79" class="edge">
<title>Node43&#45;&gt;Node41</title>
<path fill="none" stroke="#191970" d="M377.2052,-548.3959C359.736,-541.2315 339.0555,-529.5986 327.6197,-512 316.6716,-495.1519 315.7822,-471.7219 316.9371,-455.1434"/>
<polygon fill="#191970" stroke="#191970" points="320.4463,-455.2256 317.9646,-444.9256 313.4815,-454.5251 320.4463,-455.2256"/>
</g>
<!-- Node44 -->
<g id="node44" class="node">
<title>Node44</title>
<polygon fill="#ffffff" stroke="#bfbfbf" points="496.6197,-487 496.6197,-506 560.6197,-506 560.6197,-487 496.6197,-487"/>
<text text-anchor="middle" x="528.6197" y="-494" font-family="Helvetica,sans-Serif" font-size="10.00" fill="#000000">algorithm</text>
</g>
<!-- Node43&#45;&gt;Node44 -->
<g id="edge78" class="edge">
<title>Node43&#45;&gt;Node44</title>
<path fill="none" stroke="#191970" d="M426.526,-548.3906C446.4163,-538.2811 477.932,-522.2628 500.689,-510.6962"/>
<polygon fill="#191970" stroke="#191970" points="502.5175,-513.693 509.8462,-506.0419 499.3458,-507.4528 502.5175,-513.693"/>
</g>
<!-- Node45 -->
<g id="node45" class="node">
<title>Node45</title>
<g id="a_node45"><a xlink:href="RangeAccessor_8hpp.html" target="_top" xlink:title="mesh/RangeAccessor.hpp">
<polygon fill="#ffffff" stroke="#ff0000" points="337.1197,-487 337.1197,-506 478.1197,-506 478.1197,-487 337.1197,-487"/>
<text text-anchor="middle" x="407.6197" y="-494" font-family="Helvetica,sans-Serif" font-size="10.00" fill="#000000">mesh/RangeAccessor.hpp</text>
</a>
</g>
</g>
<!-- Node43&#45;&gt;Node45 -->
<g id="edge83" class="edge">
<title>Node43&#45;&gt;Node45</title>
<path fill="none" stroke="#191970" d="M407.6197,-548.3906C407.6197,-539.8657 407.6197,-527.1392 407.6197,-516.4235"/>
<polygon fill="#191970" stroke="#191970" points="411.1198,-516.2448 407.6197,-506.2449 404.1198,-516.2449 411.1198,-516.2448"/>
</g>
<!-- Node48 -->
<g id="node47" class="node">
<title>Node48</title>
<polygon fill="#ffffff" stroke="#bfbfbf" points="1000.1197,-481.5 1000.1197,-511.5 1111.1197,-511.5 1111.1197,-481.5 1000.1197,-481.5"/>
<text text-anchor="start" x="1008.1197" y="-499.5" font-family="Helvetica,sans-Serif" font-size="10.00" fill="#000000">boost/container/flat</text>
<text text-anchor="middle" x="1055.6197" y="-488.5" font-family="Helvetica,sans-Serif" font-size="10.00" fill="#000000">_set.hpp</text>
</g>
<!-- Node47&#45;&gt;Node48 -->
<g id="edge87" class="edge">
<title>Node47&#45;&gt;Node48</title>
<path fill="none" stroke="#191970" d="M969.5572,-548.3906C983.4895,-539.9903 1004.1881,-527.5103 1021.7947,-516.8945"/>
<polygon fill="#191970" stroke="#191970" points="1023.9111,-519.7054 1030.6677,-511.5446 1020.2967,-513.7108 1023.9111,-519.7054"/>
</g>
<!-- Node49 -->
<g id="node48" class="node">
<title>Node49</title>
<polygon fill="#ffffff" stroke="#bfbfbf" points="917.1197,-487 917.1197,-506 982.1197,-506 982.1197,-487 917.1197,-487"/>
<text text-anchor="middle" x="949.6197" y="-494" font-family="Helvetica,sans-Serif" font-size="10.00" fill="#000000">functional</text>
</g>
<!-- Node47&#45;&gt;Node49 -->
<g id="edge88" class="edge">
<title>Node47&#45;&gt;Node49</title>
<path fill="none" stroke="#191970" d="M952.9947,-548.3906C952.4403,-539.8657 951.6125,-527.1392 950.9156,-516.4235"/>
<polygon fill="#191970" stroke="#191970" points="954.3953,-515.9966 950.2535,-506.2449 947.4101,-516.451 954.3953,-515.9966"/>
</g>
<!-- Node50&#45;&gt;Node12 -->
<g id="edge91" class="edge">
<title>Node50&#45;&gt;Node12</title>
<path fill="none" stroke="#191970" d="M1414.289,-369.3544C1426.0696,-361.2036 1441.5185,-348.4087 1449.6197,-333 1470.7535,-292.8034 1471.5555,-237.8971 1470.1731,-208.8707"/>
<polygon fill="#191970" stroke="#191970" points="1473.6594,-208.5398 1469.5496,-198.7746 1466.6728,-208.9713 1473.6594,-208.5398"/>
</g>
<!-- Node50&#45;&gt;Node31 -->
<g id="edge92" class="edge">
<title>Node50&#45;&gt;Node31</title>
<path fill="none" stroke="#191970" d="M1335.2688,-375.0122C1158.7575,-363.9012 662.748,-332.6785 485.5453,-321.524"/>
<polygon fill="#191970" stroke="#191970" points="485.5403,-318.0168 475.3401,-320.8816 485.1004,-325.003 485.5403,-318.0168"/>
</g>
<!-- Node51 -->
<g id="node50" class="node">
<title>Node51</title>
<polygon fill="#ffffff" stroke="#bfbfbf" points="1318.6197,-302.5 1318.6197,-332.5 1440.6197,-332.5 1440.6197,-302.5 1318.6197,-302.5"/>
<text text-anchor="start" x="1326.6197" y="-320.5" font-family="Helvetica,sans-Serif" font-size="10.00" fill="#000000">boost/iterator/indirect</text>
<text text-anchor="middle" x="1379.6197" y="-309.5" font-family="Helvetica,sans-Serif" font-size="10.00" fill="#000000">_iterator.hpp</text>
</g>
<!-- Node50&#45;&gt;Node51 -->
<g id="edge90" class="edge">
<title>Node50&#45;&gt;Node51</title>
<path fill="none" stroke="#191970" d="M1395.651,-369.3906C1393.4129,-362.1463 1390.2374,-351.8679 1387.3024,-342.3676"/>
<polygon fill="#191970" stroke="#191970" points="1390.5636,-341.0659 1384.2677,-332.5446 1383.8755,-343.1322 1390.5636,-341.0659"/>
</g>
</g>
</svg>
        <g id="navigator" transform="translate(0 0)" fill="#404254">
                <rect fill="#f2f5e9" fill-opacity="0.5" stroke="#606060" stroke-width=".5" x="0" y="0" width="60" height="60"/>
                <use id="zoomplus" xlink:href="#zoomPlus" x="17" y="9" onmousedown="handleZoom(evt,'in')"/>
                <use id="zoomminus" xlink:href="#zoomMin" x="42" y="9" onmousedown="handleZoom(evt,'out')"/>
                <use id="reset" xlink:href="#resetDef" x="30" y="36" onmousedown="handleReset()"/>
                <g id="arrowUp" xlink:href="#dirArrow" transform="translate(30 24)" onmousedown="handlePan(0,-1)">
                  <use xlink:href="#rim" fill="#404040">
                        <set attributeName="fill" to="#808080" begin="arrowUp.mouseover" end="arrowUp.mouseout"/>
                  </use>
                  <path fill="none" stroke="white" stroke-width="1.5" d="M0,-3.0v7 M-2.5,-0.5L0,-3.0L2.5,-0.5"/>
                </g>
                <g id="arrowRight" xlink:href="#dirArrow" transform="rotate(90) translate(36 -43)" onmousedown="handlePan(1,0)">
                  <use xlink:href="#rim" fill="#404040">
                        <set attributeName="fill" to="#808080" begin="arrowRight.mouseover" end="arrowRight.mouseout"/>
                  </use>
                  <path fill="none" stroke="white" stroke-width="1.5" d="M0,-3.0v7 M-2.5,-0.5L0,-3.0L2.5,-0.5"/>
                </g>
                <g id="arrowDown" xlink:href="#dirArrow" transform="rotate(180) translate(-30 -48)" onmousedown="handlePan(0,1)">
                  <use xlink:href="#rim" fill="#404040">
                        <set attributeName="fill" to="#808080" begin="arrowDown.mouseover" end="arrowDown.mouseout"/>
                  </use>
                  <path fill="none" stroke="white" stroke-width="1.5" d="M0,-3.0v7 M-2.5,-0.5L0,-3.0L2.5,-0.5"/>
                </g>
                <g id="arrowLeft" xlink:href="#dirArrow" transform="rotate(270) translate(-36 17)" onmousedown="handlePan(-1,0)">
                  <use xlink:href="#rim" fill="#404040">
                        <set attributeName="fill" to="#808080" begin="arrowLeft.mouseover" end="arrowLeft.mouseout"/>
                  </use>
                  <path fill="none" stroke="white" stroke-width="1.5" d="M0,-3.0v7 M-2.5,-0.5L0,-3.0L2.5,-0.5"/>
                </g>
        </g>
        <svg viewBox="0 0 15 15" width="100%" height="30px" preserveAspectRatio="xMaxYMin meet">
         <g id="arrow_out" transform="scale(0.3 0.3)">
          <a xlink:href="ScaleByAreaAction_8cpp__incl_org.svg" target="_base">
           <rect id="button" ry="5" rx="5" y="6" x="6" height="38" width="38"
                fill="#f2f5e9" fill-opacity="0.5" stroke="#606060" stroke-width="1.0"/>
           <path id="arrow"
             d="M 11.500037,31.436501 C 11.940474,20.09759 22.043105,11.32322 32.158766,21.979434 L 37.068811,17.246167 C 37.068811,17.246167 37.088388,32 37.088388,32 L 22.160133,31.978069 C 22.160133,31.978069 26.997745,27.140456 26.997745,27.140456 C 18.528582,18.264221 13.291696,25.230495 11.500037,31.436501 z"
             style="fill:#404040;"/>
          </a>
         </g>
        </svg>
</svg>
