<?xml version="1.0" encoding="UTF-8" standalone="no"?>
<!DOCTYPE svg PUBLIC "-//W3C//DTD SVG 1.1//EN"
 "http://www.w3.org/Graphics/SVG/1.1/DTD/svg11.dtd">
<!-- Generated by graphviz version 2.40.1 (20161225.0304)
 -->
<!-- Title: BOOST_AUTO_TEST_CASE Pages: 1 -->
<!--zoomable 627 -->
<svg id="main" version="1.1" xmlns="http://www.w3.org/2000/svg" xmlns:xlink="http://www.w3.org/1999/xlink" xml:space="preserve" onload="init(evt)">
<style type="text/css"><![CDATA[
.edge:hover path { stroke: red; }
.edge:hover polygon { stroke: red; fill: red; }
]]></style>
<script type="text/javascript"><![CDATA[
var edges = document.getElementsByTagName('g');
if (edges && edges.length) {
  for (var i=0;i<edges.length;i++) {
    if (edges[i].id.substr(0,4)=='edge') {
      edges[i].setAttribute('class','edge');
    }
  }
}
]]></script>
        <defs>
                <circle id="rim" cx="0" cy="0" r="7"/>
                <circle id="rim2" cx="0" cy="0" r="3.5"/>
                <g id="zoomPlus">
                        <use xlink:href="#rim" fill="#404040">
                                <set attributeName="fill" to="#808080" begin="zoomplus.mouseover" end="zoomplus.mouseout"/>
                        </use>
                        <path d="M-4,0h8M0,-4v8" fill="none" stroke="white" stroke-width="1.5" pointer-events="none"/>
                </g>
                <g id="zoomMin">
                        <use xlink:href="#rim" fill="#404040">
                                <set attributeName="fill" to="#808080" begin="zoomminus.mouseover" end="zoomminus.mouseout"/>
                        </use>
                        <path d="M-4,0h8" fill="none" stroke="white" stroke-width="1.5" pointer-events="none"/>
                </g>
                <g id="dirArrow">
                        <path fill="none" stroke="white" stroke-width="1.5" d="M0,-3.0v7 M-2.5,-0.5L0,-3.0L2.5,-0.5"/>
                </g>
               <g id="resetDef">
                       <use xlink:href="#rim2" fill="#404040">
                               <set attributeName="fill" to="#808080" begin="reset.mouseover" end="reset.mouseout"/>
                       </use>
               </g>
        </defs>

<script type="text/javascript">
var viewWidth = 567;
var viewHeight = 627;
var sectionId = 'dynsection-32';
</script>
<script xlink:href="svgpan.js"/>
<svg id="graph" class="graph">
<g id="viewport">
<title>BOOST_AUTO_TEST_CASE</title>
<polygon fill="#ffffff" stroke="transparent" points="-4,4 -4,-623 563,-623 563,4 -4,4"/>
<!-- Node443 -->
<g id="node1" class="node">
<title>Node443</title>
<polygon fill="#bfbfbf" stroke="#000000" points="0,-300 0,-319 143,-319 143,-300 0,-300"/>
<text text-anchor="middle" x="71.5" y="-307" font-family="Helvetica,sans-Serif" font-size="10.00" fill="#000000">BOOST_AUTO_TEST_CASE</text>
</g>
<!-- Node444 -->
<g id="node2" class="node">
<title>Node444</title>
<g id="a_node2"><a xlink:href="SerialTests_8cpp.html#a5e244b5c8fe1c3fbca519ec308fe0587" target="_top" xlink:title="testQuadMappingNearestProjection">
<polygon fill="#ffffff" stroke="#000000" points="179,-300 179,-319 368,-319 368,-300 179,-300"/>
<text text-anchor="middle" x="273.5" y="-307" font-family="Helvetica,sans-Serif" font-size="10.00" fill="#000000">testQuadMappingNearestProjection</text>
</a>
</g>
</g>
<!-- Node443&#45;&gt;Node444 -->
<g id="edge1" class="edge">
<title>Node443&#45;&gt;Node444</title>
<path fill="none" stroke="#191970" d="M143.0019,-309.5C151.3225,-309.5 159.9358,-309.5 168.5875,-309.5"/>
<polygon fill="#191970" stroke="#191970" points="168.7462,-313.0001 178.7462,-309.5 168.7461,-306.0001 168.7462,-313.0001"/>
</g>
<!-- Node445 -->
<g id="node3" class="node">
<title>Node445</title>
<g id="a_node3"><a xlink:href="classprecice_1_1testing_1_1TestContext.html#a87ef3b67f676b69dfb8c4cfc2e8df819" target="_top" xlink:title="Check wheater this context has a given name. ">
<polygon fill="#ffffff" stroke="#000000" points="404,-588.5 404,-618.5 559,-618.5 559,-588.5 404,-588.5"/>
<text text-anchor="start" x="412" y="-606.5" font-family="Helvetica,sans-Serif" font-size="10.00" fill="#000000">precice::testing::TestContext</text>
<text text-anchor="middle" x="481.5" y="-595.5" font-family="Helvetica,sans-Serif" font-size="10.00" fill="#000000">::isNamed</text>
</a>
</g>
</g>
<!-- Node444&#45;&gt;Node445 -->
<g id="edge2" class="edge">
<title>Node444&#45;&gt;Node445</title>
<path fill="none" stroke="#191970" d="M275.2598,-319.0527C282.8941,-357.763 316.7763,-504.4618 404,-579.5 405.3581,-580.6683 406.7725,-581.7798 408.2343,-582.8372"/>
<polygon fill="#191970" stroke="#191970" points="406.7212,-586.0176 417.0626,-588.3211 410.4148,-580.0714 406.7212,-586.0176"/>
</g>
<!-- Node446 -->
<g id="node4" class="node">
<title>Node446</title>
<g id="a_node4"><a xlink:href="classprecice_1_1SolverInterface.html#a46c45798758f01b9cfdd2885bc849764" target="_top" xlink:title="Returns the ID belonging to the mesh with given name. ">
<polygon fill="#ffffff" stroke="#000000" points="415.5,-539.5 415.5,-569.5 547.5,-569.5 547.5,-539.5 415.5,-539.5"/>
<text text-anchor="start" x="423.5" y="-557.5" font-family="Helvetica,sans-Serif" font-size="10.00" fill="#000000">precice::SolverInterface</text>
<text text-anchor="middle" x="481.5" y="-546.5" font-family="Helvetica,sans-Serif" font-size="10.00" fill="#000000">::getMeshID</text>
</a>
</g>
</g>
<!-- Node444&#45;&gt;Node446 -->
<g id="edge3" class="edge">
<title>Node444&#45;&gt;Node446</title>
<path fill="none" stroke="#191970" d="M276.3817,-319.15C287.1202,-353.4388 328.1428,-470.5434 404,-530.5 405.6161,-531.7774 407.3005,-532.9871 409.0401,-534.1328"/>
<polygon fill="#191970" stroke="#191970" points="407.7207,-537.4105 418.1377,-539.3438 411.2,-531.3364 407.7207,-537.4105"/>
</g>
<!-- Node447 -->
<g id="node5" class="node">
<title>Node447</title>
<g id="a_node5"><a xlink:href="classprecice_1_1SolverInterface.html#a0f5dfe2e0932abeadc7276e0f7e0c443" target="_top" xlink:title="Creates a mesh vertex. ">
<polygon fill="#ffffff" stroke="#000000" points="415.5,-490.5 415.5,-520.5 547.5,-520.5 547.5,-490.5 415.5,-490.5"/>
<text text-anchor="start" x="423.5" y="-508.5" font-family="Helvetica,sans-Serif" font-size="10.00" fill="#000000">precice::SolverInterface</text>
<text text-anchor="middle" x="481.5" y="-497.5" font-family="Helvetica,sans-Serif" font-size="10.00" fill="#000000">::setMeshVertex</text>
</a>
</g>
</g>
<!-- Node444&#45;&gt;Node447 -->
<g id="edge4" class="edge">
<title>Node444&#45;&gt;Node447</title>
<path fill="none" stroke="#191970" d="M278.1745,-319.3694C292.5726,-348.7022 339.2208,-436.1258 404,-481.5 406.1199,-482.9848 408.3347,-484.3802 410.6199,-485.6912"/>
<polygon fill="#191970" stroke="#191970" points="409.2332,-488.9129 419.7314,-490.341 412.4151,-482.6779 409.2332,-488.9129"/>
</g>
<!-- Node448 -->
<g id="node6" class="node">
<title>Node448</title>
<g id="a_node6"><a xlink:href="classprecice_1_1SolverInterface.html#ac1431f702ad9c3aa898273db6afbd651" target="_top" xlink:title="Sets mesh edge from vertex IDs, returns edge ID. ">
<polygon fill="#ffffff" stroke="#000000" points="415.5,-441.5 415.5,-471.5 547.5,-471.5 547.5,-441.5 415.5,-441.5"/>
<text text-anchor="start" x="423.5" y="-459.5" font-family="Helvetica,sans-Serif" font-size="10.00" fill="#000000">precice::SolverInterface</text>
<text text-anchor="middle" x="481.5" y="-448.5" font-family="Helvetica,sans-Serif" font-size="10.00" fill="#000000">::setMeshEdge</text>
</a>
</g>
</g>
<!-- Node444&#45;&gt;Node448 -->
<g id="edge5" class="edge">
<title>Node444&#45;&gt;Node448</title>
<path fill="none" stroke="#191970" d="M280.9446,-319.0383C299.3371,-341.9719 349.4077,-400.6551 404,-432.5 407.0112,-434.2565 410.1646,-435.8977 413.4045,-437.4295"/>
<polygon fill="#191970" stroke="#191970" points="412.1505,-440.7005 422.718,-441.4615 414.9315,-434.2766 412.1505,-440.7005"/>
</g>
<!-- Node449 -->
<g id="node7" class="node">
<title>Node449</title>
<g id="a_node7"><a xlink:href="classprecice_1_1SolverInterface.html#aebc18aa8377710a718fe8e18650a04d6" target="_top" xlink:title="Sets mesh Quad from edge IDs. ">
<polygon fill="#ffffff" stroke="#000000" points="415.5,-392.5 415.5,-422.5 547.5,-422.5 547.5,-392.5 415.5,-392.5"/>
<text text-anchor="start" x="423.5" y="-410.5" font-family="Helvetica,sans-Serif" font-size="10.00" fill="#000000">precice::SolverInterface</text>
<text text-anchor="middle" x="481.5" y="-399.5" font-family="Helvetica,sans-Serif" font-size="10.00" fill="#000000">::setMeshQuad</text>
</a>
</g>
</g>
<!-- Node444&#45;&gt;Node449 -->
<g id="edge6" class="edge">
<title>Node444&#45;&gt;Node449</title>
<path fill="none" stroke="#191970" d="M287.8402,-319.0064C311.3164,-334.2484 359.7728,-364.3786 404,-383.5 408.4523,-385.4249 413.1092,-387.2663 417.8351,-389.0117"/>
<polygon fill="#191970" stroke="#191970" points="416.9941,-392.4265 427.5889,-392.4557 419.3248,-385.8259 416.9941,-392.4265"/>
</g>
<!-- Node450 -->
<g id="node8" class="node">
<title>Node450</title>
<g id="a_node8"><a xlink:href="classprecice_1_1SolverInterface.html#ae327bcc1ae62c01b7a02eb2d90e6da42" target="_top" xlink:title="Sets surface mesh quadrangle from vertex IDs. ">
<polygon fill="#ffffff" stroke="#000000" points="411.5,-343.5 411.5,-373.5 551.5,-373.5 551.5,-343.5 411.5,-343.5"/>
<text text-anchor="start" x="419.5" y="-361.5" font-family="Helvetica,sans-Serif" font-size="10.00" fill="#000000">precice::SolverInterface</text>
<text text-anchor="middle" x="481.5" y="-350.5" font-family="Helvetica,sans-Serif" font-size="10.00" fill="#000000">::setMeshQuadWithEdges</text>
</a>
</g>
</g>
<!-- Node444&#45;&gt;Node450 -->
<g id="edge7" class="edge">
<title>Node444&#45;&gt;Node450</title>
<path fill="none" stroke="#191970" d="M314.0983,-319.064C340.6617,-325.3218 376.1489,-333.6817 407.6121,-341.0937"/>
<polygon fill="#191970" stroke="#191970" points="407.1335,-344.5767 417.6696,-343.463 408.7386,-337.7632 407.1335,-344.5767"/>
</g>
<!-- Node451 -->
<g id="node9" class="node">
<title>Node451</title>
<g id="a_node9"><a xlink:href="structprecice_1_1testing_1_1WhiteboxAccessor.html#aa07fe7a3cff9b0c7c89c4377eb4452fb" target="_top" xlink:title="precice::testing::Whitebox\lAccessor::impl">
<polygon fill="#ffffff" stroke="#000000" points="409.5,-294.5 409.5,-324.5 553.5,-324.5 553.5,-294.5 409.5,-294.5"/>
<text text-anchor="start" x="417.5" y="-312.5" font-family="Helvetica,sans-Serif" font-size="10.00" fill="#000000">precice::testing::Whitebox</text>
<text text-anchor="middle" x="481.5" y="-301.5" font-family="Helvetica,sans-Serif" font-size="10.00" fill="#000000">Accessor::impl</text>
</a>
</g>
</g>
<!-- Node444&#45;&gt;Node451 -->
<g id="edge8" class="edge">
<title>Node444&#45;&gt;Node451</title>
<path fill="none" stroke="#191970" d="M368.0662,-309.5C378.4491,-309.5 388.9585,-309.5 399.1758,-309.5"/>
<polygon fill="#191970" stroke="#191970" points="399.2802,-313.0001 409.2802,-309.5 399.2802,-306.0001 399.2802,-313.0001"/>
</g>
<!-- Node452 -->
<g id="node10" class="node">
<title>Node452</title>
<g id="a_node10"><a xlink:href="classprecice_1_1SolverInterface.html#a31b18663881576c2cfe5a7a782f6ff7e" target="_top" xlink:title="Fully initializes preCICE. ">
<polygon fill="#ffffff" stroke="#000000" points="415.5,-245.5 415.5,-275.5 547.5,-275.5 547.5,-245.5 415.5,-245.5"/>
<text text-anchor="start" x="423.5" y="-263.5" font-family="Helvetica,sans-Serif" font-size="10.00" fill="#000000">precice::SolverInterface</text>
<text text-anchor="middle" x="481.5" y="-252.5" font-family="Helvetica,sans-Serif" font-size="10.00" fill="#000000">::initialize</text>
</a>
</g>
</g>
<!-- Node444&#45;&gt;Node452 -->
<g id="edge9" class="edge">
<title>Node444&#45;&gt;Node452</title>
<path fill="none" stroke="#191970" d="M314.0983,-299.936C340.6617,-293.6782 376.1489,-285.3183 407.6121,-277.9063"/>
<polygon fill="#191970" stroke="#191970" points="408.7386,-281.2368 417.6696,-275.537 407.1335,-274.4233 408.7386,-281.2368"/>
</g>
<!-- Node453 -->
<g id="node11" class="node">
<title>Node453</title>
<g id="a_node11"><a xlink:href="classprecice_1_1SolverInterface.html#a9023201c7b33e20d75a4a700667e50ea" target="_top" xlink:title="Checks if the coupled simulation is still ongoing. ">
<polygon fill="#ffffff" stroke="#000000" points="415.5,-196.5 415.5,-226.5 547.5,-226.5 547.5,-196.5 415.5,-196.5"/>
<text text-anchor="start" x="423.5" y="-214.5" font-family="Helvetica,sans-Serif" font-size="10.00" fill="#000000">precice::SolverInterface</text>
<text text-anchor="middle" x="481.5" y="-203.5" font-family="Helvetica,sans-Serif" font-size="10.00" fill="#000000">::isCouplingOngoing</text>
</a>
</g>
</g>
<!-- Node444&#45;&gt;Node453 -->
<g id="edge10" class="edge">
<title>Node444&#45;&gt;Node453</title>
<path fill="none" stroke="#191970" d="M288.2706,-299.9539C311.9527,-284.9474 360.212,-255.5854 404,-236.5 409.103,-234.2758 414.4697,-232.1444 419.8982,-230.1298"/>
<polygon fill="#191970" stroke="#191970" points="421.4505,-233.2921 429.6926,-226.635 419.098,-226.6993 421.4505,-233.2921"/>
</g>
<!-- Node454 -->
<g id="node12" class="node">
<title>Node454</title>
<g id="a_node12"><a xlink:href="classprecice_1_1SolverInterface.html#a2b2a961362828c0f3fbea0acf3e9f81c" target="_top" xlink:title="Returns the ID of the data associated with the given name and mesh. ">
<polygon fill="#ffffff" stroke="#000000" points="415.5,-147.5 415.5,-177.5 547.5,-177.5 547.5,-147.5 415.5,-147.5"/>
<text text-anchor="start" x="423.5" y="-165.5" font-family="Helvetica,sans-Serif" font-size="10.00" fill="#000000">precice::SolverInterface</text>
<text text-anchor="middle" x="481.5" y="-154.5" font-family="Helvetica,sans-Serif" font-size="10.00" fill="#000000">::getDataID</text>
</a>
</g>
</g>
<!-- Node444&#45;&gt;Node454 -->
<g id="edge11" class="edge">
<title>Node444&#45;&gt;Node454</title>
<path fill="none" stroke="#191970" d="M281.2626,-299.7464C299.9691,-276.8643 350.0052,-219.274 404,-187.5 407.6325,-185.3624 411.47,-183.3836 415.4154,-181.5557"/>
<polygon fill="#191970" stroke="#191970" points="416.9497,-184.7064 424.7719,-177.5604 414.2007,-178.2687 416.9497,-184.7064"/>
</g>
<!-- Node455 -->
<g id="node13" class="node">
<title>Node455</title>
<g id="a_node13"><a xlink:href="classprecice_1_1SolverInterface.html#a6d8fe3c8b19ecdd5de8a06b0efc40fda" target="_top" xlink:title="Writes scalar data to a vertex. ">
<polygon fill="#ffffff" stroke="#000000" points="415.5,-98.5 415.5,-128.5 547.5,-128.5 547.5,-98.5 415.5,-98.5"/>
<text text-anchor="start" x="423.5" y="-116.5" font-family="Helvetica,sans-Serif" font-size="10.00" fill="#000000">precice::SolverInterface</text>
<text text-anchor="middle" x="481.5" y="-105.5" font-family="Helvetica,sans-Serif" font-size="10.00" fill="#000000">::writeScalarData</text>
</a>
</g>
</g>
<!-- Node444&#45;&gt;Node455 -->
<g id="edge12" class="edge">
<title>Node444&#45;&gt;Node455</title>
<path fill="none" stroke="#191970" d="M278.2154,-299.7236C292.7277,-270.6607 339.6619,-183.9944 404,-138.5 406.7127,-136.5818 409.5804,-134.8052 412.5518,-133.1602"/>
<polygon fill="#191970" stroke="#191970" points="414.3221,-136.1891 421.7259,-128.6105 411.212,-129.9179 414.3221,-136.1891"/>
</g>
<!-- Node456 -->
<g id="node14" class="node">
<title>Node456</title>
<g id="a_node14"><a xlink:href="classprecice_1_1SolverInterface.html#a63bc0860c520c27da517cf594ddee586" target="_top" xlink:title="Advances preCICE after the solver has computed one timestep. ">
<polygon fill="#ffffff" stroke="#000000" points="415.5,-49.5 415.5,-79.5 547.5,-79.5 547.5,-49.5 415.5,-49.5"/>
<text text-anchor="start" x="423.5" y="-67.5" font-family="Helvetica,sans-Serif" font-size="10.00" fill="#000000">precice::SolverInterface</text>
<text text-anchor="middle" x="481.5" y="-56.5" font-family="Helvetica,sans-Serif" font-size="10.00" fill="#000000">::advance</text>
</a>
</g>
</g>
<!-- Node444&#45;&gt;Node456 -->
<g id="edge13" class="edge">
<title>Node444&#45;&gt;Node456</title>
<path fill="none" stroke="#191970" d="M276.4198,-299.9241C287.2867,-265.8934 328.6891,-149.6232 404,-89.5 406.2788,-87.6808 408.6934,-85.9924 411.2072,-84.4257"/>
<polygon fill="#191970" stroke="#191970" points="413.0009,-87.4337 420.083,-79.5536 409.6326,-81.2974 413.0009,-87.4337"/>
</g>
<!-- Node457 -->
<g id="node15" class="node">
<title>Node457</title>
<g id="a_node15"><a xlink:href="classprecice_1_1SolverInterface.html#adc06b8677288d97d005b633c932fedef" target="_top" xlink:title="Finalizes preCICE. ">
<polygon fill="#ffffff" stroke="#000000" points="415.5,-.5 415.5,-30.5 547.5,-30.5 547.5,-.5 415.5,-.5"/>
<text text-anchor="start" x="423.5" y="-18.5" font-family="Helvetica,sans-Serif" font-size="10.00" fill="#000000">precice::SolverInterface</text>
<text text-anchor="middle" x="481.5" y="-7.5" font-family="Helvetica,sans-Serif" font-size="10.00" fill="#000000">::finalize</text>
</a>
</g>
</g>
<!-- Node444&#45;&gt;Node457 -->
<g id="edge14" class="edge">
<title>Node444&#45;&gt;Node457</title>
<path fill="none" stroke="#191970" d="M275.3492,-299.748C283.2268,-260.8927 317.6195,-115.5885 404,-40.5 405.9606,-38.7957 408.039,-37.2073 410.2082,-35.7269"/>
<polygon fill="#191970" stroke="#191970" points="412.1497,-38.6448 418.9682,-30.5356 408.5809,-32.6228 412.1497,-38.6448"/>
</g>
</g>
</svg>
        <g id="navigator" transform="translate(0 0)" fill="#404254">
                <rect fill="#f2f5e9" fill-opacity="0.5" stroke="#606060" stroke-width=".5" x="0" y="0" width="60" height="60"/>
                <use id="zoomplus" xlink:href="#zoomPlus" x="17" y="9" onmousedown="handleZoom(evt,'in')"/>
                <use id="zoomminus" xlink:href="#zoomMin" x="42" y="9" onmousedown="handleZoom(evt,'out')"/>
                <use id="reset" xlink:href="#resetDef" x="30" y="36" onmousedown="handleReset()"/>
                <g id="arrowUp" xlink:href="#dirArrow" transform="translate(30 24)" onmousedown="handlePan(0,-1)">
                  <use xlink:href="#rim" fill="#404040">
                        <set attributeName="fill" to="#808080" begin="arrowUp.mouseover" end="arrowUp.mouseout"/>
                  </use>
                  <path fill="none" stroke="white" stroke-width="1.5" d="M0,-3.0v7 M-2.5,-0.5L0,-3.0L2.5,-0.5"/>
                </g>
                <g id="arrowRight" xlink:href="#dirArrow" transform="rotate(90) translate(36 -43)" onmousedown="handlePan(1,0)">
                  <use xlink:href="#rim" fill="#404040">
                        <set attributeName="fill" to="#808080" begin="arrowRight.mouseover" end="arrowRight.mouseout"/>
                  </use>
                  <path fill="none" stroke="white" stroke-width="1.5" d="M0,-3.0v7 M-2.5,-0.5L0,-3.0L2.5,-0.5"/>
                </g>
                <g id="arrowDown" xlink:href="#dirArrow" transform="rotate(180) translate(-30 -48)" onmousedown="handlePan(0,1)">
                  <use xlink:href="#rim" fill="#404040">
                        <set attributeName="fill" to="#808080" begin="arrowDown.mouseover" end="arrowDown.mouseout"/>
                  </use>
                  <path fill="none" stroke="white" stroke-width="1.5" d="M0,-3.0v7 M-2.5,-0.5L0,-3.0L2.5,-0.5"/>
                </g>
                <g id="arrowLeft" xlink:href="#dirArrow" transform="rotate(270) translate(-36 17)" onmousedown="handlePan(-1,0)">
                  <use xlink:href="#rim" fill="#404040">
                        <set attributeName="fill" to="#808080" begin="arrowLeft.mouseover" end="arrowLeft.mouseout"/>
                  </use>
                  <path fill="none" stroke="white" stroke-width="1.5" d="M0,-3.0v7 M-2.5,-0.5L0,-3.0L2.5,-0.5"/>
                </g>
        </g>
        <svg viewBox="0 0 15 15" width="100%" height="30px" preserveAspectRatio="xMaxYMin meet">
         <g id="arrow_out" transform="scale(0.3 0.3)">
          <a xlink:href="SerialTests_8cpp_a0c694449045059905fb4344da9c4a9f0_cgraph_org.svg" target="_base">
           <rect id="button" ry="5" rx="5" y="6" x="6" height="38" width="38"
                fill="#f2f5e9" fill-opacity="0.5" stroke="#606060" stroke-width="1.0"/>
           <path id="arrow"
             d="M 11.500037,31.436501 C 11.940474,20.09759 22.043105,11.32322 32.158766,21.979434 L 37.068811,17.246167 C 37.068811,17.246167 37.088388,32 37.088388,32 L 22.160133,31.978069 C 22.160133,31.978069 26.997745,27.140456 26.997745,27.140456 C 18.528582,18.264221 13.291696,25.230495 11.500037,31.436501 z"
             style="fill:#404040;"/>
          </a>
         </g>
        </svg>
</svg>
