<?xml version="1.0" encoding="UTF-8" standalone="no"?>
<!DOCTYPE svg PUBLIC "-//W3C//DTD SVG 1.1//EN"
 "http://www.w3.org/Graphics/SVG/1.1/DTD/svg11.dtd">
<!-- Generated by graphviz version 2.40.1 (20161225.0304)
 -->
<!-- Title: BOOST_AUTO_TEST_CASE Pages: 1 -->
<svg width="342pt" height="617pt"
 viewBox="0.00 0.00 342.00 616.50" xmlns="http://www.w3.org/2000/svg" xmlns:xlink="http://www.w3.org/1999/xlink">
<g id="graph0" class="graph" transform="scale(1 1) rotate(0) translate(4 612.5)">
<title>BOOST_AUTO_TEST_CASE</title>
<polygon fill="#ffffff" stroke="transparent" points="-4,4 -4,-612.5 338,-612.5 338,4 -4,4"/>
<!-- Node158 -->
<g id="node1" class="node">
<title>Node158</title>
<polygon fill="#bfbfbf" stroke="#000000" points="0,-300 0,-319 143,-319 143,-300 0,-300"/>
<text text-anchor="middle" x="71.5" y="-307" font-family="Helvetica,sans-Serif" font-size="10.00" fill="#000000">BOOST_AUTO_TEST_CASE</text>
</g>
<!-- Node159 -->
<g id="node2" class="node">
<title>Node159</title>
<g id="a_node2"><a xlink:href="RTreeTests_8cpp.html#a9849f5c774ff22e557184d988b1cf9ea" target="_top" xlink:title="BOOST_TEST">
<polygon fill="#ffffff" stroke="#000000" points="216.5,-589 216.5,-608 296.5,-608 296.5,-589 216.5,-589"/>
<text text-anchor="middle" x="256.5" y="-596" font-family="Helvetica,sans-Serif" font-size="10.00" fill="#000000">BOOST_TEST</text>
</a>
</g>
</g>
<!-- Node158&#45;&gt;Node159 -->
<g id="edge1" class="edge">
<title>Node158&#45;&gt;Node159</title>
<path fill="none" stroke="#191970" d="M72.2621,-319.1558C75.8861,-358.2656 94.8894,-506.2998 179,-579.5 186.7592,-586.2527 196.5369,-590.6866 206.5096,-593.5788"/>
<polygon fill="#191970" stroke="#191970" points="205.9376,-597.0412 216.4797,-595.9858 207.5804,-590.2367 205.9376,-597.0412"/>
</g>
<!-- Node160 -->
<g id="node3" class="node">
<title>Node160</title>
<g id="a_node3"><a xlink:href="classprecice_1_1SolverInterface.html#a0bc17ab3544ba0c600b25c024b11c58b" target="_top" xlink:title="Returns the number of spatial dimensions configured. ">
<polygon fill="#ffffff" stroke="#000000" points="190.5,-539.5 190.5,-569.5 322.5,-569.5 322.5,-539.5 190.5,-539.5"/>
<text text-anchor="start" x="198.5" y="-557.5" font-family="Helvetica,sans-Serif" font-size="10.00" fill="#000000">precice::SolverInterface</text>
<text text-anchor="middle" x="256.5" y="-546.5" font-family="Helvetica,sans-Serif" font-size="10.00" fill="#000000">::getDimensions</text>
</a>
</g>
</g>
<!-- Node158&#45;&gt;Node160 -->
<g id="edge2" class="edge">
<title>Node158&#45;&gt;Node160</title>
<path fill="none" stroke="#191970" d="M73.3325,-319.1265C80.3508,-353.3361 108.7373,-470.2062 179,-530.5 180.3595,-531.6666 181.7753,-532.7766 183.2383,-533.8326"/>
<polygon fill="#191970" stroke="#191970" points="181.7287,-537.0148 192.0719,-539.3103 185.4177,-531.0657 181.7287,-537.0148"/>
</g>
<!-- Node161 -->
<g id="node4" class="node">
<title>Node161</title>
<g id="a_node4"><a xlink:href="classprecice_1_1testing_1_1TestContext.html#a87ef3b67f676b69dfb8c4cfc2e8df819" target="_top" xlink:title="Check wheater this context has a given name. ">
<polygon fill="#ffffff" stroke="#000000" points="179,-490.5 179,-520.5 334,-520.5 334,-490.5 179,-490.5"/>
<text text-anchor="start" x="187" y="-508.5" font-family="Helvetica,sans-Serif" font-size="10.00" fill="#000000">precice::testing::TestContext</text>
<text text-anchor="middle" x="256.5" y="-497.5" font-family="Helvetica,sans-Serif" font-size="10.00" fill="#000000">::isNamed</text>
</a>
</g>
</g>
<!-- Node158&#45;&gt;Node161 -->
<g id="edge3" class="edge">
<title>Node158&#45;&gt;Node161</title>
<path fill="none" stroke="#191970" d="M74.8403,-319.3731C85.2758,-348.7161 120.1327,-436.1651 179,-481.5 180.8134,-482.8966 182.7089,-484.2125 184.6687,-485.4525"/>
<polygon fill="#191970" stroke="#191970" points="183.176,-488.6268 193.6185,-490.4167 186.5713,-482.5054 183.176,-488.6268"/>
</g>
<!-- Node162 -->
<g id="node5" class="node">
<title>Node162</title>
<g id="a_node5"><a xlink:href="classprecice_1_1SolverInterface.html#a46c45798758f01b9cfdd2885bc849764" target="_top" xlink:title="Returns the ID belonging to the mesh with given name. ">
<polygon fill="#ffffff" stroke="#000000" points="190.5,-441.5 190.5,-471.5 322.5,-471.5 322.5,-441.5 190.5,-441.5"/>
<text text-anchor="start" x="198.5" y="-459.5" font-family="Helvetica,sans-Serif" font-size="10.00" fill="#000000">precice::SolverInterface</text>
<text text-anchor="middle" x="256.5" y="-448.5" font-family="Helvetica,sans-Serif" font-size="10.00" fill="#000000">::getMeshID</text>
</a>
</g>
</g>
<!-- Node158&#45;&gt;Node162 -->
<g id="edge4" class="edge">
<title>Node158&#45;&gt;Node162</title>
<path fill="none" stroke="#191970" d="M77.2084,-319.0983C91.4177,-342.165 130.731,-401.1216 179,-432.5 181.4357,-434.0834 183.9819,-435.5674 186.6051,-436.9578"/>
<polygon fill="#191970" stroke="#191970" points="185.2392,-440.184 195.7716,-441.3327 188.2544,-433.8667 185.2392,-440.184"/>
</g>
<!-- Node163 -->
<g id="node6" class="node">
<title>Node163</title>
<g id="a_node6"><a xlink:href="classprecice_1_1SolverInterface.html#abb3b0bea8518a659ec58e95578ea3396" target="_top" xlink:title="Creates multiple mesh vertices. ">
<polygon fill="#ffffff" stroke="#000000" points="190.5,-392.5 190.5,-422.5 322.5,-422.5 322.5,-392.5 190.5,-392.5"/>
<text text-anchor="start" x="198.5" y="-410.5" font-family="Helvetica,sans-Serif" font-size="10.00" fill="#000000">precice::SolverInterface</text>
<text text-anchor="middle" x="256.5" y="-399.5" font-family="Helvetica,sans-Serif" font-size="10.00" fill="#000000">::setMeshVertices</text>
</a>
</g>
</g>
<!-- Node158&#45;&gt;Node163 -->
<g id="edge5" class="edge">
<title>Node158&#45;&gt;Node163</title>
<path fill="none" stroke="#191970" d="M83.017,-319.1977C101.9403,-334.7082 141.2855,-365.2076 179,-383.5 182.8495,-385.3671 186.8766,-387.129 190.9849,-388.7844"/>
<polygon fill="#191970" stroke="#191970" points="190.0816,-392.1848 200.673,-392.4531 192.5606,-385.6385 190.0816,-392.1848"/>
</g>
<!-- Node164 -->
<g id="node7" class="node">
<title>Node164</title>
<g id="a_node7"><a xlink:href="classprecice_1_1SolverInterface.html#ac1431f702ad9c3aa898273db6afbd651" target="_top" xlink:title="Sets mesh edge from vertex IDs, returns edge ID. ">
<polygon fill="#ffffff" stroke="#000000" points="190.5,-343.5 190.5,-373.5 322.5,-373.5 322.5,-343.5 190.5,-343.5"/>
<text text-anchor="start" x="198.5" y="-361.5" font-family="Helvetica,sans-Serif" font-size="10.00" fill="#000000">precice::SolverInterface</text>
<text text-anchor="middle" x="256.5" y="-350.5" font-family="Helvetica,sans-Serif" font-size="10.00" fill="#000000">::setMeshEdge</text>
</a>
</g>
</g>
<!-- Node158&#45;&gt;Node164 -->
<g id="edge6" class="edge">
<title>Node158&#45;&gt;Node164</title>
<path fill="none" stroke="#191970" d="M107.609,-319.064C131.0307,-325.2676 162.2523,-333.5371 190.0547,-340.901"/>
<polygon fill="#191970" stroke="#191970" points="189.165,-344.2859 199.7278,-343.463 190.9573,-337.5193 189.165,-344.2859"/>
</g>
<!-- Node165 -->
<g id="node8" class="node">
<title>Node165</title>
<g id="a_node8"><a xlink:href="classprecice_1_1SolverInterface.html#a31b18663881576c2cfe5a7a782f6ff7e" target="_top" xlink:title="Fully initializes preCICE. ">
<polygon fill="#ffffff" stroke="#000000" points="190.5,-294.5 190.5,-324.5 322.5,-324.5 322.5,-294.5 190.5,-294.5"/>
<text text-anchor="start" x="198.5" y="-312.5" font-family="Helvetica,sans-Serif" font-size="10.00" fill="#000000">precice::SolverInterface</text>
<text text-anchor="middle" x="256.5" y="-301.5" font-family="Helvetica,sans-Serif" font-size="10.00" fill="#000000">::initialize</text>
</a>
</g>
</g>
<!-- Node158&#45;&gt;Node165 -->
<g id="edge7" class="edge">
<title>Node158&#45;&gt;Node165</title>
<path fill="none" stroke="#191970" d="M143.0258,-309.5C155.1795,-309.5 167.8431,-309.5 180.1161,-309.5"/>
<polygon fill="#191970" stroke="#191970" points="180.3139,-313.0001 190.3138,-309.5 180.3138,-306.0001 180.3139,-313.0001"/>
</g>
<!-- Node166 -->
<g id="node9" class="node">
<title>Node166</title>
<g id="a_node9"><a xlink:href="classprecice_1_1SolverInterface.html#a2b2a961362828c0f3fbea0acf3e9f81c" target="_top" xlink:title="Returns the ID of the data associated with the given name and mesh. ">
<polygon fill="#ffffff" stroke="#000000" points="190.5,-245.5 190.5,-275.5 322.5,-275.5 322.5,-245.5 190.5,-245.5"/>
<text text-anchor="start" x="198.5" y="-263.5" font-family="Helvetica,sans-Serif" font-size="10.00" fill="#000000">precice::SolverInterface</text>
<text text-anchor="middle" x="256.5" y="-252.5" font-family="Helvetica,sans-Serif" font-size="10.00" fill="#000000">::getDataID</text>
</a>
</g>
</g>
<!-- Node158&#45;&gt;Node166 -->
<g id="edge8" class="edge">
<title>Node158&#45;&gt;Node166</title>
<path fill="none" stroke="#191970" d="M107.609,-299.936C131.0307,-293.7324 162.2523,-285.4629 190.0547,-278.099"/>
<polygon fill="#191970" stroke="#191970" points="190.9573,-281.4807 199.7278,-275.537 189.165,-274.7141 190.9573,-281.4807"/>
</g>
<!-- Node167 -->
<g id="node10" class="node">
<title>Node167</title>
<g id="a_node10"><a xlink:href="classprecice_1_1SolverInterface.html#a9023201c7b33e20d75a4a700667e50ea" target="_top" xlink:title="Checks if the coupled simulation is still ongoing. ">
<polygon fill="#ffffff" stroke="#000000" points="190.5,-196.5 190.5,-226.5 322.5,-226.5 322.5,-196.5 190.5,-196.5"/>
<text text-anchor="start" x="198.5" y="-214.5" font-family="Helvetica,sans-Serif" font-size="10.00" fill="#000000">precice::SolverInterface</text>
<text text-anchor="middle" x="256.5" y="-203.5" font-family="Helvetica,sans-Serif" font-size="10.00" fill="#000000">::isCouplingOngoing</text>
</a>
</g>
</g>
<!-- Node158&#45;&gt;Node167 -->
<g id="edge9" class="edge">
<title>Node158&#45;&gt;Node167</title>
<path fill="none" stroke="#191970" d="M83.066,-299.9955C102.0581,-284.7818 141.4979,-254.8145 179,-236.5 183.5674,-234.2695 188.3804,-232.1724 193.2801,-230.2152"/>
<polygon fill="#191970" stroke="#191970" points="194.653,-233.438 202.7674,-226.6257 192.1759,-226.8909 194.653,-233.438"/>
</g>
<!-- Node168 -->
<g id="node11" class="node">
<title>Node168</title>
<g id="a_node11"><a xlink:href="classprecice_1_1SolverInterface.html#a656fffa43139988acd89f466758b2e69" target="_top" xlink:title="Writes vector data to a vertex. ">
<polygon fill="#ffffff" stroke="#000000" points="190.5,-147.5 190.5,-177.5 322.5,-177.5 322.5,-147.5 190.5,-147.5"/>
<text text-anchor="start" x="198.5" y="-165.5" font-family="Helvetica,sans-Serif" font-size="10.00" fill="#000000">precice::SolverInterface</text>
<text text-anchor="middle" x="256.5" y="-154.5" font-family="Helvetica,sans-Serif" font-size="10.00" fill="#000000">::writeVectorData</text>
</a>
</g>
</g>
<!-- Node158&#45;&gt;Node168 -->
<g id="edge10" class="edge">
<title>Node158&#45;&gt;Node168</title>
<path fill="none" stroke="#191970" d="M77.4657,-299.6782C91.949,-276.6489 131.3095,-218.7636 179,-187.5 182.0778,-185.4823 185.331,-183.6165 188.6921,-181.8925"/>
<polygon fill="#191970" stroke="#191970" points="190.2073,-185.0479 197.7948,-177.6533 187.252,-178.7023 190.2073,-185.0479"/>
</g>
<!-- Node169 -->
<g id="node12" class="node">
<title>Node169</title>
<g id="a_node12"><a xlink:href="classprecice_1_1SolverInterface.html#a63bc0860c520c27da517cf594ddee586" target="_top" xlink:title="Advances preCICE after the solver has computed one timestep. ">
<polygon fill="#ffffff" stroke="#000000" points="190.5,-98.5 190.5,-128.5 322.5,-128.5 322.5,-98.5 190.5,-98.5"/>
<text text-anchor="start" x="198.5" y="-116.5" font-family="Helvetica,sans-Serif" font-size="10.00" fill="#000000">precice::SolverInterface</text>
<text text-anchor="middle" x="256.5" y="-105.5" font-family="Helvetica,sans-Serif" font-size="10.00" fill="#000000">::advance</text>
</a>
</g>
</g>
<!-- Node158&#45;&gt;Node169 -->
<g id="edge11" class="edge">
<title>Node158&#45;&gt;Node169</title>
<path fill="none" stroke="#191970" d="M74.8823,-299.7159C85.4347,-270.6317 120.5848,-183.912 179,-138.5 181.3021,-136.7104 183.7363,-135.0468 186.2663,-133.5007"/>
<polygon fill="#191970" stroke="#191970" points="188.0499,-136.5153 195.1852,-128.6835 184.7233,-130.3562 188.0499,-136.5153"/>
</g>
<!-- Node170 -->
<g id="node13" class="node">
<title>Node170</title>
<g id="a_node13"><a xlink:href="classprecice_1_1SolverInterface.html#adc06b8677288d97d005b633c932fedef" target="_top" xlink:title="Finalizes preCICE. ">
<polygon fill="#ffffff" stroke="#000000" points="190.5,-49.5 190.5,-79.5 322.5,-79.5 322.5,-49.5 190.5,-49.5"/>
<text text-anchor="start" x="198.5" y="-67.5" font-family="Helvetica,sans-Serif" font-size="10.00" fill="#000000">precice::SolverInterface</text>
<text text-anchor="middle" x="256.5" y="-56.5" font-family="Helvetica,sans-Serif" font-size="10.00" fill="#000000">::finalize</text>
</a>
</g>
</g>
<!-- Node158&#45;&gt;Node170 -->
<g id="edge12" class="edge">
<title>Node158&#45;&gt;Node170</title>
<path fill="none" stroke="#191970" d="M73.3713,-299.9449C80.5204,-265.9841 109.2939,-149.9206 179,-89.5 180.963,-87.7985 183.0435,-86.2124 185.2145,-84.7341"/>
<polygon fill="#191970" stroke="#191970" points="187.1549,-87.6528 193.9797,-79.5489 183.5909,-81.628 187.1549,-87.6528"/>
</g>
<!-- Node171 -->
<g id="node14" class="node">
<title>Node171</title>
<g id="a_node14"><a xlink:href="classprecice_1_1SolverInterface.html#aa527d37b96f3030ee9476b94cac9fe18" target="_top" xlink:title="Reads vector data form a vertex. ">
<polygon fill="#ffffff" stroke="#000000" points="190.5,-.5 190.5,-30.5 322.5,-30.5 322.5,-.5 190.5,-.5"/>
<text text-anchor="start" x="198.5" y="-18.5" font-family="Helvetica,sans-Serif" font-size="10.00" fill="#000000">precice::SolverInterface</text>
<text text-anchor="middle" x="256.5" y="-7.5" font-family="Helvetica,sans-Serif" font-size="10.00" fill="#000000">::readVectorData</text>
</a>
</g>
</g>
<!-- Node158&#45;&gt;Node171 -->
<g id="edge13" class="edge">
<title>Node158&#45;&gt;Node171</title>
<path fill="none" stroke="#191970" d="M72.4531,-299.7831C76.7712,-261.0617 97.9597,-116.1978 179,-40.5 180.6789,-38.9318 182.4569,-37.462 184.3147,-36.0843"/>
<polygon fill="#191970" stroke="#191970" points="186.3526,-38.9361 192.9112,-30.6153 182.5952,-33.03 186.3526,-38.9361"/>
</g>
</g>
</svg>
