<?xml version="1.0" encoding="UTF-8" standalone="no"?>
<!DOCTYPE svg PUBLIC "-//W3C//DTD SVG 1.1//EN"
 "http://www.w3.org/Graphics/SVG/1.1/DTD/svg11.dtd">
<!-- Generated by graphviz version 2.40.1 (20161225.0304)
 -->
<!-- Title: BOOST_AUTO_TEST_CASE Pages: 1 -->
<!--zoomable 791 -->
<svg id="main" version="1.1" xmlns="http://www.w3.org/2000/svg" xmlns:xlink="http://www.w3.org/1999/xlink" xml:space="preserve" onload="init(evt)">
<style type="text/css"><![CDATA[
.edge:hover path { stroke: red; }
.edge:hover polygon { stroke: red; fill: red; }
]]></style>
<script type="text/javascript"><![CDATA[
var edges = document.getElementsByTagName('g');
if (edges && edges.length) {
  for (var i=0;i<edges.length;i++) {
    if (edges[i].id.substr(0,4)=='edge') {
      edges[i].setAttribute('class','edge');
    }
  }
}
]]></script>
        <defs>
                <circle id="rim" cx="0" cy="0" r="7"/>
                <circle id="rim2" cx="0" cy="0" r="3.5"/>
                <g id="zoomPlus">
                        <use xlink:href="#rim" fill="#404040">
                                <set attributeName="fill" to="#808080" begin="zoomplus.mouseover" end="zoomplus.mouseout"/>
                        </use>
                        <path d="M-4,0h8M0,-4v8" fill="none" stroke="white" stroke-width="1.5" pointer-events="none"/>
                </g>
                <g id="zoomMin">
                        <use xlink:href="#rim" fill="#404040">
                                <set attributeName="fill" to="#808080" begin="zoomminus.mouseover" end="zoomminus.mouseout"/>
                        </use>
                        <path d="M-4,0h8" fill="none" stroke="white" stroke-width="1.5" pointer-events="none"/>
                </g>
                <g id="dirArrow">
                        <path fill="none" stroke="white" stroke-width="1.5" d="M0,-3.0v7 M-2.5,-0.5L0,-3.0L2.5,-0.5"/>
                </g>
               <g id="resetDef">
                       <use xlink:href="#rim2" fill="#404040">
                               <set attributeName="fill" to="#808080" begin="reset.mouseover" end="reset.mouseout"/>
                       </use>
               </g>
        </defs>

<script type="text/javascript">
var viewWidth = 648;
var viewHeight = 791;
var sectionId = 'dynsection-16';
</script>
<script xlink:href="svgpan.js"/>
<svg id="graph" class="graph">
<g id="viewport">
<title>BOOST_AUTO_TEST_CASE</title>
<polygon fill="#ffffff" stroke="transparent" points="-4,4 -4,-786.5 644,-786.5 644,4 -4,4"/>
<!-- Node205 -->
<g id="node1" class="node">
<title>Node205</title>
<polygon fill="#bfbfbf" stroke="#000000" points="0,-398 0,-417 148,-417 148,-398 0,-398"/>
<text text-anchor="middle" x="74" y="-405" font-family="Helvetica,sans-Serif" font-size="10.00" fill="#000000">BOOST_AUTO_TEST_CASE</text>
</g>
<!-- Node206 -->
<g id="node2" class="node">
<title>Node206</title>
<g id="a_node2"><a xlink:href="SerialTests_8cpp.html#a399e5e602d678b993c4099173acd38a2" target="_top" xlink:title="Tests stationary mapping with solver provided meshes. ">
<polygon fill="#ffffff" stroke="#000000" points="184,-392.5 184,-422.5 315,-422.5 315,-392.5 184,-392.5"/>
<text text-anchor="start" x="192" y="-410.5" font-family="Helvetica,sans-Serif" font-size="10.00" fill="#000000">runTestStationaryMapping</text>
<text text-anchor="middle" x="249.5" y="-399.5" font-family="Helvetica,sans-Serif" font-size="10.00" fill="#000000">WithSolverMesh</text>
</a>
</g>
</g>
<!-- Node205&#45;&gt;Node206 -->
<g id="edge1" class="edge">
<title>Node205&#45;&gt;Node206</title>
<path fill="none" stroke="#191970" d="M148.1734,-407.5C156.62,-407.5 165.2386,-407.5 173.7059,-407.5"/>
<polygon fill="#191970" stroke="#191970" points="173.9373,-411.0001 183.9373,-407.5 173.9372,-404.0001 173.9373,-411.0001"/>
</g>
<!-- Node207 -->
<g id="node3" class="node">
<title>Node207</title>
<g id="a_node3"><a xlink:href="namespaceprecice_1_1testing.html#a6a116337529290bbb1bf2545b5fb315a" target="_top" xlink:title="equals to be used in tests. Prints both operatorans on failure ">
<polygon fill="#ffffff" stroke="#000000" points="363.5,-763 363.5,-782 481.5,-782 481.5,-763 363.5,-763"/>
<text text-anchor="middle" x="422.5" y="-770" font-family="Helvetica,sans-Serif" font-size="10.00" fill="#000000">precice::testing::equals</text>
</a>
</g>
</g>
<!-- Node206&#45;&gt;Node207 -->
<g id="edge2" class="edge">
<title>Node206&#45;&gt;Node207</title>
<path fill="none" stroke="#191970" d="M252.0846,-422.528C262.5761,-481.933 303.6852,-699.5219 351,-748.5 354.8096,-752.4435 359.2859,-755.739 364.109,-758.4931"/>
<polygon fill="#191970" stroke="#191970" points="362.575,-761.6389 373.0959,-762.8885 365.6506,-755.3508 362.575,-761.6389"/>
</g>
<!-- Node208 -->
<g id="node4" class="node">
<title>Node208</title>
<g id="a_node4"><a xlink:href="namespaceprecice_1_1math.html#a0e86802cfe992deba131d789d035b5b7" target="_top" xlink:title="Compares two Eigen::MatrixBase for equality up to tolerance. ">
<polygon fill="#ffffff" stroke="#000000" points="530,-744 530,-763 640,-763 640,-744 530,-744"/>
<text text-anchor="middle" x="585" y="-751" font-family="Helvetica,sans-Serif" font-size="10.00" fill="#000000">precice::math::equals</text>
</a>
</g>
</g>
<!-- Node206&#45;&gt;Node208 -->
<g id="edge19" class="edge">
<title>Node206&#45;&gt;Node208</title>
<path fill="none" stroke="#191970" d="M252.3846,-422.8196C263.3542,-479.4241 304.223,-675.5596 351,-715.5 375.78,-736.6583 459.4256,-746.1805 519.6385,-750.3664"/>
<polygon fill="#191970" stroke="#191970" points="519.6283,-753.8733 529.8374,-751.0405 520.0901,-746.8885 519.6283,-753.8733"/>
</g>
<!-- Node209 -->
<g id="node5" class="node">
<title>Node209</title>
<g id="a_node5"><a xlink:href="RTreeTests_8cpp.html#a9849f5c774ff22e557184d988b1cf9ea" target="_top" xlink:title="BOOST_TEST">
<polygon fill="#ffffff" stroke="#000000" points="381.5,-687 381.5,-706 463.5,-706 463.5,-687 381.5,-687"/>
<text text-anchor="middle" x="422.5" y="-694" font-family="Helvetica,sans-Serif" font-size="10.00" fill="#000000">BOOST_TEST</text>
</a>
</g>
</g>
<!-- Node206&#45;&gt;Node209 -->
<g id="edge4" class="edge">
<title>Node206&#45;&gt;Node209</title>
<path fill="none" stroke="#191970" d="M250.5153,-422.6971C254.4163,-468.5036 272.463,-606.4379 351,-677.5 356.893,-682.8321 364.1142,-686.6966 371.6774,-689.4915"/>
<polygon fill="#191970" stroke="#191970" points="370.7783,-692.8769 381.366,-692.4896 372.8476,-686.1898 370.7783,-692.8769"/>
</g>
<!-- Node210 -->
<g id="node6" class="node">
<title>Node210</title>
<g id="a_node6"><a xlink:href="classprecice_1_1SolverInterface.html#a0bc17ab3544ba0c600b25c024b11c58b" target="_top" xlink:title="Returns the number of spatial dimensions configured. ">
<polygon fill="#ffffff" stroke="#000000" points="362.5,-637.5 362.5,-667.5 482.5,-667.5 482.5,-637.5 362.5,-637.5"/>
<text text-anchor="start" x="370.5" y="-655.5" font-family="Helvetica,sans-Serif" font-size="10.00" fill="#000000">precice::SolverInterface</text>
<text text-anchor="middle" x="422.5" y="-644.5" font-family="Helvetica,sans-Serif" font-size="10.00" fill="#000000">::getDimensions</text>
</a>
</g>
</g>
<!-- Node206&#45;&gt;Node210 -->
<g id="edge5" class="edge">
<title>Node206&#45;&gt;Node210</title>
<path fill="none" stroke="#191970" d="M252.1433,-422.5564C259.8784,-462.166 286.1501,-570.2247 351,-628.5 352.3057,-629.6733 353.6707,-630.7895 355.0852,-631.8514"/>
<polygon fill="#191970" stroke="#191970" points="353.3546,-634.8996 363.6601,-637.3587 357.1375,-629.0098 353.3546,-634.8996"/>
</g>
<!-- Node211 -->
<g id="node7" class="node">
<title>Node211</title>
<g id="a_node7"><a xlink:href="classprecice_1_1testing_1_1TestContext.html#a87ef3b67f676b69dfb8c4cfc2e8df819" target="_top" xlink:title="Check wheater this context has a given name. ">
<polygon fill="#ffffff" stroke="#000000" points="351,-588.5 351,-618.5 494,-618.5 494,-588.5 351,-588.5"/>
<text text-anchor="start" x="359" y="-606.5" font-family="Helvetica,sans-Serif" font-size="10.00" fill="#000000">precice::testing::TestContext</text>
<text text-anchor="middle" x="422.5" y="-595.5" font-family="Helvetica,sans-Serif" font-size="10.00" fill="#000000">::isNamed</text>
</a>
</g>
</g>
<!-- Node206&#45;&gt;Node211 -->
<g id="edge6" class="edge">
<title>Node206&#45;&gt;Node211</title>
<path fill="none" stroke="#191970" d="M254.2949,-422.5743C265.6316,-455.8267 297.2467,-535.964 351,-579.5 352.6026,-580.798 354.2786,-582.0271 356.013,-583.1909"/>
<polygon fill="#191970" stroke="#191970" points="354.698,-586.4752 365.1011,-588.4821 358.2201,-580.4258 354.698,-586.4752"/>
</g>
<!-- Node212 -->
<g id="node8" class="node">
<title>Node212</title>
<g id="a_node8"><a xlink:href="classprecice_1_1SolverInterface.html#a46c45798758f01b9cfdd2885bc849764" target="_top" xlink:title="Returns the ID belonging to the mesh with given name. ">
<polygon fill="#ffffff" stroke="#000000" points="362.5,-539.5 362.5,-569.5 482.5,-569.5 482.5,-539.5 362.5,-539.5"/>
<text text-anchor="start" x="370.5" y="-557.5" font-family="Helvetica,sans-Serif" font-size="10.00" fill="#000000">precice::SolverInterface</text>
<text text-anchor="middle" x="422.5" y="-546.5" font-family="Helvetica,sans-Serif" font-size="10.00" fill="#000000">::getMeshID</text>
</a>
</g>
</g>
<!-- Node206&#45;&gt;Node212 -->
<g id="edge7" class="edge">
<title>Node206&#45;&gt;Node212</title>
<path fill="none" stroke="#191970" d="M258.1016,-422.6826C273.4756,-448.4982 308.1109,-501.0091 351,-530.5 353.2489,-532.0464 355.6056,-533.5 358.0376,-534.8658"/>
<polygon fill="#191970" stroke="#191970" points="356.6094,-538.0653 367.1152,-539.4355 359.7569,-531.8128 356.6094,-538.0653"/>
</g>
<!-- Node213 -->
<g id="node9" class="node">
<title>Node213</title>
<g id="a_node9"><a xlink:href="classprecice_1_1SolverInterface.html#a2b2a961362828c0f3fbea0acf3e9f81c" target="_top" xlink:title="Returns the ID of the data associated with the given name and mesh. ">
<polygon fill="#ffffff" stroke="#000000" points="362.5,-490.5 362.5,-520.5 482.5,-520.5 482.5,-490.5 362.5,-490.5"/>
<text text-anchor="start" x="370.5" y="-508.5" font-family="Helvetica,sans-Serif" font-size="10.00" fill="#000000">precice::SolverInterface</text>
<text text-anchor="middle" x="422.5" y="-497.5" font-family="Helvetica,sans-Serif" font-size="10.00" fill="#000000">::getDataID</text>
</a>
</g>
</g>
<!-- Node206&#45;&gt;Node213 -->
<g id="edge8" class="edge">
<title>Node206&#45;&gt;Node213</title>
<path fill="none" stroke="#191970" d="M266.74,-422.6426C286.1079,-439.0162 319.0325,-464.9828 351,-481.5 354.4989,-483.3078 358.1627,-485.0222 361.9042,-486.64"/>
<polygon fill="#191970" stroke="#191970" points="360.7333,-489.942 371.3154,-490.4611 363.3666,-483.4562 360.7333,-489.942"/>
</g>
<!-- Node214 -->
<g id="node10" class="node">
<title>Node214</title>
<g id="a_node10"><a xlink:href="classprecice_1_1SolverInterface.html#a0f5dfe2e0932abeadc7276e0f7e0c443" target="_top" xlink:title="Creates a mesh vertex. ">
<polygon fill="#ffffff" stroke="#000000" points="362.5,-441.5 362.5,-471.5 482.5,-471.5 482.5,-441.5 362.5,-441.5"/>
<text text-anchor="start" x="370.5" y="-459.5" font-family="Helvetica,sans-Serif" font-size="10.00" fill="#000000">precice::SolverInterface</text>
<text text-anchor="middle" x="422.5" y="-448.5" font-family="Helvetica,sans-Serif" font-size="10.00" fill="#000000">::setMeshVertex</text>
</a>
</g>
</g>
<!-- Node206&#45;&gt;Node214 -->
<g id="edge9" class="edge">
<title>Node206&#45;&gt;Node214</title>
<path fill="none" stroke="#191970" d="M302.8173,-422.6014C320.7425,-427.6785 340.9084,-433.3902 359.5057,-438.6577"/>
<polygon fill="#191970" stroke="#191970" points="358.7834,-442.0907 369.3587,-441.4484 360.691,-435.3557 358.7834,-442.0907"/>
</g>
<!-- Node215 -->
<g id="node11" class="node">
<title>Node215</title>
<g id="a_node11"><a xlink:href="classprecice_1_1SolverInterface.html#a31b18663881576c2cfe5a7a782f6ff7e" target="_top" xlink:title="Fully initializes preCICE. ">
<polygon fill="#ffffff" stroke="#000000" points="362.5,-392.5 362.5,-422.5 482.5,-422.5 482.5,-392.5 362.5,-392.5"/>
<text text-anchor="start" x="370.5" y="-410.5" font-family="Helvetica,sans-Serif" font-size="10.00" fill="#000000">precice::SolverInterface</text>
<text text-anchor="middle" x="422.5" y="-399.5" font-family="Helvetica,sans-Serif" font-size="10.00" fill="#000000">::initialize</text>
</a>
</g>
</g>
<!-- Node206&#45;&gt;Node215 -->
<g id="edge10" class="edge">
<title>Node206&#45;&gt;Node215</title>
<path fill="none" stroke="#191970" d="M315.3974,-407.5C327.4826,-407.5 340.1374,-407.5 352.3419,-407.5"/>
<polygon fill="#191970" stroke="#191970" points="352.4653,-411.0001 362.4652,-407.5 352.4652,-404.0001 352.4653,-411.0001"/>
</g>
<!-- Node216 -->
<g id="node12" class="node">
<title>Node216</title>
<g id="a_node12"><a xlink:href="classprecice_1_1SolverInterface.html#a45e7a0a93a087819a1877449ce86b010" target="_top" xlink:title="Checks if new data has to be written before calling advance(). ">
<polygon fill="#ffffff" stroke="#000000" points="362.5,-343.5 362.5,-373.5 482.5,-373.5 482.5,-343.5 362.5,-343.5"/>
<text text-anchor="start" x="370.5" y="-361.5" font-family="Helvetica,sans-Serif" font-size="10.00" fill="#000000">precice::SolverInterface</text>
<text text-anchor="middle" x="422.5" y="-350.5" font-family="Helvetica,sans-Serif" font-size="10.00" fill="#000000">::isWriteDataRequired</text>
</a>
</g>
</g>
<!-- Node206&#45;&gt;Node216 -->
<g id="edge11" class="edge">
<title>Node206&#45;&gt;Node216</title>
<path fill="none" stroke="#191970" d="M302.8173,-392.3986C320.7425,-387.3215 340.9084,-381.6098 359.5057,-376.3423"/>
<polygon fill="#191970" stroke="#191970" points="360.691,-379.6443 369.3587,-373.5516 358.7834,-372.9093 360.691,-379.6443"/>
</g>
<!-- Node217 -->
<g id="node13" class="node">
<title>Node217</title>
<g id="a_node13"><a xlink:href="classprecice_1_1SolverInterface.html#add8748ec2dac96ad65efd0855c715179" target="_top" xlink:title="Checks if new data to be read is available. ">
<polygon fill="#ffffff" stroke="#000000" points="362.5,-294.5 362.5,-324.5 482.5,-324.5 482.5,-294.5 362.5,-294.5"/>
<text text-anchor="start" x="370.5" y="-312.5" font-family="Helvetica,sans-Serif" font-size="10.00" fill="#000000">precice::SolverInterface</text>
<text text-anchor="middle" x="422.5" y="-301.5" font-family="Helvetica,sans-Serif" font-size="10.00" fill="#000000">::isReadDataAvailable</text>
</a>
</g>
</g>
<!-- Node206&#45;&gt;Node217 -->
<g id="edge12" class="edge">
<title>Node206&#45;&gt;Node217</title>
<path fill="none" stroke="#191970" d="M267.1703,-392.3606C286.6493,-376.2726 319.4242,-350.936 351,-334.5 355.0461,-332.3939 359.3085,-330.3995 363.6542,-328.5253"/>
<polygon fill="#191970" stroke="#191970" points="365.3081,-331.6309 373.2493,-324.6175 362.6677,-325.148 365.3081,-331.6309"/>
</g>
<!-- Node218 -->
<g id="node14" class="node">
<title>Node218</title>
<g id="a_node14"><a xlink:href="classprecice_1_1SolverInterface.html#a656fffa43139988acd89f466758b2e69" target="_top" xlink:title="Writes vector data to a vertex. ">
<polygon fill="#ffffff" stroke="#000000" points="362.5,-245.5 362.5,-275.5 482.5,-275.5 482.5,-245.5 362.5,-245.5"/>
<text text-anchor="start" x="370.5" y="-263.5" font-family="Helvetica,sans-Serif" font-size="10.00" fill="#000000">precice::SolverInterface</text>
<text text-anchor="middle" x="422.5" y="-252.5" font-family="Helvetica,sans-Serif" font-size="10.00" fill="#000000">::writeVectorData</text>
</a>
</g>
</g>
<!-- Node206&#45;&gt;Node218 -->
<g id="edge13" class="edge">
<title>Node206&#45;&gt;Node218</title>
<path fill="none" stroke="#191970" d="M258.172,-392.4998C273.6521,-366.9831 308.4432,-315.0297 351,-285.5 353.8411,-283.5286 356.853,-281.6984 359.9705,-280.0012"/>
<polygon fill="#191970" stroke="#191970" points="361.5572,-283.1213 368.9823,-275.5636 358.4648,-276.8414 361.5572,-283.1213"/>
</g>
<!-- Node219 -->
<g id="node15" class="node">
<title>Node219</title>
<g id="a_node15"><a xlink:href="classprecice_1_1SolverInterface.html#a75f1858f05aba96d774840daaa59d86d" target="_top" xlink:title="Computes and maps all write data mapped from the mesh with given ID. ">
<polygon fill="#ffffff" stroke="#000000" points="362.5,-196.5 362.5,-226.5 482.5,-226.5 482.5,-196.5 362.5,-196.5"/>
<text text-anchor="start" x="370.5" y="-214.5" font-family="Helvetica,sans-Serif" font-size="10.00" fill="#000000">precice::SolverInterface</text>
<text text-anchor="middle" x="422.5" y="-203.5" font-family="Helvetica,sans-Serif" font-size="10.00" fill="#000000">::mapWriteDataFrom</text>
</a>
</g>
</g>
<!-- Node206&#45;&gt;Node219 -->
<g id="edge14" class="edge">
<title>Node206&#45;&gt;Node219</title>
<path fill="none" stroke="#191970" d="M254.447,-392.3131C265.9893,-359.2024 297.8284,-280.0051 351,-236.5 353.0482,-234.8241 355.2163,-233.2573 357.4727,-231.7926"/>
<polygon fill="#191970" stroke="#191970" points="359.5823,-234.6195 366.5471,-226.6356 356.1236,-228.5336 359.5823,-234.6195"/>
</g>
<!-- Node220 -->
<g id="node16" class="node">
<title>Node220</title>
<g id="a_node16"><a xlink:href="classprecice_1_1SolverInterface.html#a63bc0860c520c27da517cf594ddee586" target="_top" xlink:title="Advances preCICE after the solver has computed one timestep. ">
<polygon fill="#ffffff" stroke="#000000" points="362.5,-147.5 362.5,-177.5 482.5,-177.5 482.5,-147.5 362.5,-147.5"/>
<text text-anchor="start" x="370.5" y="-165.5" font-family="Helvetica,sans-Serif" font-size="10.00" fill="#000000">precice::SolverInterface</text>
<text text-anchor="middle" x="422.5" y="-154.5" font-family="Helvetica,sans-Serif" font-size="10.00" fill="#000000">::advance</text>
</a>
</g>
</g>
<!-- Node206&#45;&gt;Node220 -->
<g id="edge15" class="edge">
<title>Node206&#45;&gt;Node220</title>
<path fill="none" stroke="#191970" d="M252.2633,-392.269C260.2227,-352.7142 286.8623,-245.764 351,-187.5 352.7399,-185.9195 354.5854,-184.4378 356.5132,-183.0488"/>
<polygon fill="#191970" stroke="#191970" points="358.7613,-185.7735 365.4217,-177.534 355.0768,-179.8217 358.7613,-185.7735"/>
</g>
<!-- Node221 -->
<g id="node17" class="node">
<title>Node221</title>
<g id="a_node17"><a xlink:href="classprecice_1_1SolverInterface.html#ab38ee8ac998d6349f289ef93db6911a3" target="_top" xlink:title="Computes and maps all read data mapped to the mesh with given ID. ">
<polygon fill="#ffffff" stroke="#000000" points="362.5,-98.5 362.5,-128.5 482.5,-128.5 482.5,-98.5 362.5,-98.5"/>
<text text-anchor="start" x="370.5" y="-116.5" font-family="Helvetica,sans-Serif" font-size="10.00" fill="#000000">precice::SolverInterface</text>
<text text-anchor="middle" x="422.5" y="-105.5" font-family="Helvetica,sans-Serif" font-size="10.00" fill="#000000">::mapReadDataTo</text>
</a>
</g>
</g>
<!-- Node206&#45;&gt;Node221 -->
<g id="edge16" class="edge">
<title>Node206&#45;&gt;Node221</title>
<path fill="none" stroke="#191970" d="M250.8188,-392.3052C255.5473,-347.1017 275.622,-212.0577 351,-138.5 352.4823,-137.0535 354.0529,-135.6903 355.6952,-134.4058"/>
<polygon fill="#191970" stroke="#191970" points="358.0281,-137.0585 364.4287,-128.6156 354.16,-131.2242 358.0281,-137.0585"/>
</g>
<!-- Node222 -->
<g id="node18" class="node">
<title>Node222</title>
<g id="a_node18"><a xlink:href="classprecice_1_1SolverInterface.html#aa527d37b96f3030ee9476b94cac9fe18" target="_top" xlink:title="Reads vector data form a vertex. ">
<polygon fill="#ffffff" stroke="#000000" points="362.5,-49.5 362.5,-79.5 482.5,-79.5 482.5,-49.5 362.5,-49.5"/>
<text text-anchor="start" x="370.5" y="-67.5" font-family="Helvetica,sans-Serif" font-size="10.00" fill="#000000">precice::SolverInterface</text>
<text text-anchor="middle" x="422.5" y="-56.5" font-family="Helvetica,sans-Serif" font-size="10.00" fill="#000000">::readVectorData</text>
</a>
</g>
</g>
<!-- Node206&#45;&gt;Node222 -->
<g id="edge17" class="edge">
<title>Node206&#45;&gt;Node222</title>
<path fill="none" stroke="#191970" d="M252.4747,-392.3421C263.9278,-335.3681 306.7475,-134.982 351,-89.5 352.4099,-88.0509 353.9084,-86.6857 355.4797,-85.3995"/>
<polygon fill="#191970" stroke="#191970" points="357.6308,-88.1675 363.8703,-79.6048 353.6529,-82.4076 357.6308,-88.1675"/>
</g>
<!-- Node223 -->
<g id="node19" class="node">
<title>Node223</title>
<g id="a_node19"><a xlink:href="classprecice_1_1SolverInterface.html#adc06b8677288d97d005b633c932fedef" target="_top" xlink:title="Finalizes preCICE. ">
<polygon fill="#ffffff" stroke="#000000" points="362.5,-.5 362.5,-30.5 482.5,-30.5 482.5,-.5 362.5,-.5"/>
<text text-anchor="start" x="370.5" y="-18.5" font-family="Helvetica,sans-Serif" font-size="10.00" fill="#000000">precice::SolverInterface</text>
<text text-anchor="middle" x="422.5" y="-7.5" font-family="Helvetica,sans-Serif" font-size="10.00" fill="#000000">::finalize</text>
</a>
</g>
</g>
<!-- Node206&#45;&gt;Node223 -->
<g id="edge18" class="edge">
<title>Node206&#45;&gt;Node223</title>
<path fill="none" stroke="#191970" d="M251.8081,-392.2134C261.5323,-329.6574 300.9809,-93.9633 351,-40.5 352.2353,-39.1796 353.5442,-37.929 354.9152,-36.7444"/>
<polygon fill="#191970" stroke="#191970" points="357.2984,-39.3412 363.3664,-30.6561 353.2067,-33.6615 357.2984,-39.3412"/>
</g>
<!-- Node207&#45;&gt;Node208 -->
<g id="edge3" class="edge">
<title>Node207&#45;&gt;Node208</title>
<path fill="none" stroke="#191970" d="M481.6259,-765.5868C494.0853,-764.13 507.296,-762.5854 519.9591,-761.1048"/>
<polygon fill="#191970" stroke="#191970" points="520.4467,-764.5717 529.9725,-759.934 519.6337,-757.6191 520.4467,-764.5717"/>
</g>
</g>
</svg>
        <g id="navigator" transform="translate(0 0)" fill="#404254">
                <rect fill="#f2f5e9" fill-opacity="0.5" stroke="#606060" stroke-width=".5" x="0" y="0" width="60" height="60"/>
                <use id="zoomplus" xlink:href="#zoomPlus" x="17" y="9" onmousedown="handleZoom(evt,'in')"/>
                <use id="zoomminus" xlink:href="#zoomMin" x="42" y="9" onmousedown="handleZoom(evt,'out')"/>
                <use id="reset" xlink:href="#resetDef" x="30" y="36" onmousedown="handleReset()"/>
                <g id="arrowUp" xlink:href="#dirArrow" transform="translate(30 24)" onmousedown="handlePan(0,-1)">
                  <use xlink:href="#rim" fill="#404040">
                        <set attributeName="fill" to="#808080" begin="arrowUp.mouseover" end="arrowUp.mouseout"/>
                  </use>
                  <path fill="none" stroke="white" stroke-width="1.5" d="M0,-3.0v7 M-2.5,-0.5L0,-3.0L2.5,-0.5"/>
                </g>
                <g id="arrowRight" xlink:href="#dirArrow" transform="rotate(90) translate(36 -43)" onmousedown="handlePan(1,0)">
                  <use xlink:href="#rim" fill="#404040">
                        <set attributeName="fill" to="#808080" begin="arrowRight.mouseover" end="arrowRight.mouseout"/>
                  </use>
                  <path fill="none" stroke="white" stroke-width="1.5" d="M0,-3.0v7 M-2.5,-0.5L0,-3.0L2.5,-0.5"/>
                </g>
                <g id="arrowDown" xlink:href="#dirArrow" transform="rotate(180) translate(-30 -48)" onmousedown="handlePan(0,1)">
                  <use xlink:href="#rim" fill="#404040">
                        <set attributeName="fill" to="#808080" begin="arrowDown.mouseover" end="arrowDown.mouseout"/>
                  </use>
                  <path fill="none" stroke="white" stroke-width="1.5" d="M0,-3.0v7 M-2.5,-0.5L0,-3.0L2.5,-0.5"/>
                </g>
                <g id="arrowLeft" xlink:href="#dirArrow" transform="rotate(270) translate(-36 17)" onmousedown="handlePan(-1,0)">
                  <use xlink:href="#rim" fill="#404040">
                        <set attributeName="fill" to="#808080" begin="arrowLeft.mouseover" end="arrowLeft.mouseout"/>
                  </use>
                  <path fill="none" stroke="white" stroke-width="1.5" d="M0,-3.0v7 M-2.5,-0.5L0,-3.0L2.5,-0.5"/>
                </g>
        </g>
        <svg viewBox="0 0 15 15" width="100%" height="30px" preserveAspectRatio="xMaxYMin meet">
         <g id="arrow_out" transform="scale(0.3 0.3)">
          <a xlink:href="SerialTests_8cpp_ac640770900423217e58ff96487e9165e_cgraph_org.svg" target="_base">
           <rect id="button" ry="5" rx="5" y="6" x="6" height="38" width="38"
                fill="#f2f5e9" fill-opacity="0.5" stroke="#606060" stroke-width="1.0"/>
           <path id="arrow"
             d="M 11.500037,31.436501 C 11.940474,20.09759 22.043105,11.32322 32.158766,21.979434 L 37.068811,17.246167 C 37.068811,17.246167 37.088388,32 37.088388,32 L 22.160133,31.978069 C 22.160133,31.978069 26.997745,27.140456 26.997745,27.140456 C 18.528582,18.264221 13.291696,25.230495 11.500037,31.436501 z"
             style="fill:#404040;"/>
          </a>
         </g>
        </svg>
</svg>
