<?xml version="1.0" encoding="UTF-8" standalone="no"?>
<!DOCTYPE svg PUBLIC "-//W3C//DTD SVG 1.1//EN"
 "http://www.w3.org/Graphics/SVG/1.1/DTD/svg11.dtd">
<!-- Generated by graphviz version 2.40.1 (20161225.0304)
 -->
<!-- Title: BOOST_AUTO_TEST_CASE Pages: 1 -->
<svg width="567pt" height="666pt"
 viewBox="0.00 0.00 567.00 666.00" xmlns="http://www.w3.org/2000/svg" xmlns:xlink="http://www.w3.org/1999/xlink">
<g id="graph0" class="graph" transform="scale(1 1) rotate(0) translate(4 662)">
<title>BOOST_AUTO_TEST_CASE</title>
<polygon fill="#ffffff" stroke="transparent" points="-4,4 -4,-662 563,-662 563,4 -4,4"/>
<!-- Node454 -->
<g id="node1" class="node">
<title>Node454</title>
<polygon fill="#bfbfbf" stroke="#000000" points="0,-314 0,-333 143,-333 143,-314 0,-314"/>
<text text-anchor="middle" x="71.5" y="-321" font-family="Helvetica,sans-Serif" font-size="10.00" fill="#000000">BOOST_AUTO_TEST_CASE</text>
</g>
<!-- Node455 -->
<g id="node2" class="node">
<title>Node455</title>
<g id="a_node2"><a xlink:href="SerialTests_8cpp.html#a5e244b5c8fe1c3fbca519ec308fe0587" target="_top" xlink:title="testQuadMappingNearestProjection">
<polygon fill="#ffffff" stroke="#000000" points="179,-314 179,-333 368,-333 368,-314 179,-314"/>
<text text-anchor="middle" x="273.5" y="-321" font-family="Helvetica,sans-Serif" font-size="10.00" fill="#000000">testQuadMappingNearestProjection</text>
</a>
</g>
</g>
<!-- Node454&#45;&gt;Node455 -->
<g id="edge1" class="edge">
<title>Node454&#45;&gt;Node455</title>
<path fill="none" stroke="#191970" d="M143.0019,-323.5C151.3225,-323.5 159.9358,-323.5 168.5875,-323.5"/>
<polygon fill="#191970" stroke="#191970" points="168.7462,-327.0001 178.7462,-323.5 168.7461,-320.0001 168.7462,-327.0001"/>
</g>
<!-- Node456 -->
<g id="node3" class="node">
<title>Node456</title>
<g id="a_node3"><a xlink:href="classprecice_1_1testing_1_1TestContext.html#a87ef3b67f676b69dfb8c4cfc2e8df819" target="_top" xlink:title="Check wheater this context has a given name. ">
<polygon fill="#ffffff" stroke="#000000" points="404,-627.5 404,-657.5 559,-657.5 559,-627.5 404,-627.5"/>
<text text-anchor="start" x="412" y="-645.5" font-family="Helvetica,sans-Serif" font-size="10.00" fill="#000000">precice::testing::TestContext</text>
<text text-anchor="middle" x="481.5" y="-634.5" font-family="Helvetica,sans-Serif" font-size="10.00" fill="#000000">::isNamed</text>
</a>
</g>
</g>
<!-- Node455&#45;&gt;Node456 -->
<g id="edge2" class="edge">
<title>Node455&#45;&gt;Node456</title>
<path fill="none" stroke="#191970" d="M274.8377,-333.0768C281.0597,-373.9731 310.9233,-535.6543 404,-618.5 405.3382,-619.6911 406.7347,-620.823 408.1804,-621.8988"/>
<polygon fill="#191970" stroke="#191970" points="406.619,-625.0536 416.9355,-627.4663 410.3753,-619.1468 406.619,-625.0536"/>
</g>
<!-- Node457 -->
<g id="node4" class="node">
<title>Node457</title>
<g id="a_node4"><a xlink:href="classprecice_1_1SolverInterface.html#a46c45798758f01b9cfdd2885bc849764" target="_top" xlink:title="Returns the ID belonging to the mesh with given name. ">
<polygon fill="#ffffff" stroke="#000000" points="415.5,-578.5 415.5,-608.5 547.5,-608.5 547.5,-578.5 415.5,-578.5"/>
<text text-anchor="start" x="423.5" y="-596.5" font-family="Helvetica,sans-Serif" font-size="10.00" fill="#000000">precice::SolverInterface</text>
<text text-anchor="middle" x="481.5" y="-585.5" font-family="Helvetica,sans-Serif" font-size="10.00" fill="#000000">::getMeshID</text>
</a>
</g>
</g>
<!-- Node455&#45;&gt;Node457 -->
<g id="edge3" class="edge">
<title>Node455&#45;&gt;Node457</title>
<path fill="none" stroke="#191970" d="M275.78,-333.1988C284.9254,-369.9496 322.4563,-501.9679 404,-569.5 405.5459,-570.7802 407.1597,-571.9923 408.8293,-573.1398"/>
<polygon fill="#191970" stroke="#191970" points="407.2016,-576.2442 417.5838,-578.3564 410.7849,-570.2308 407.2016,-576.2442"/>
</g>
<!-- Node458 -->
<g id="node5" class="node">
<title>Node458</title>
<g id="a_node5"><a xlink:href="classprecice_1_1SolverInterface.html#a0f5dfe2e0932abeadc7276e0f7e0c443" target="_top" xlink:title="Creates a mesh vertex. ">
<polygon fill="#ffffff" stroke="#000000" points="415.5,-529.5 415.5,-559.5 547.5,-559.5 547.5,-529.5 415.5,-529.5"/>
<text text-anchor="start" x="423.5" y="-547.5" font-family="Helvetica,sans-Serif" font-size="10.00" fill="#000000">precice::SolverInterface</text>
<text text-anchor="middle" x="481.5" y="-536.5" font-family="Helvetica,sans-Serif" font-size="10.00" fill="#000000">::setMeshVertex</text>
</a>
</g>
</g>
<!-- Node455&#45;&gt;Node458 -->
<g id="edge4" class="edge">
<title>Node455&#45;&gt;Node458</title>
<path fill="none" stroke="#191970" d="M277.2118,-333.4169C289.7537,-365.5649 333.7401,-467.8579 404,-520.5 405.8775,-521.9067 407.8388,-523.232 409.865,-524.4805"/>
<polygon fill="#191970" stroke="#191970" points="408.6451,-527.7997 419.1063,-529.4768 411.9743,-521.642 408.6451,-527.7997"/>
</g>
<!-- Node459 -->
<g id="node6" class="node">
<title>Node459</title>
<g id="a_node6"><a xlink:href="classprecice_1_1SolverInterface.html#ac1431f702ad9c3aa898273db6afbd651" target="_top" xlink:title="Sets mesh edge from vertex IDs, returns edge ID. ">
<polygon fill="#ffffff" stroke="#000000" points="415.5,-480.5 415.5,-510.5 547.5,-510.5 547.5,-480.5 415.5,-480.5"/>
<text text-anchor="start" x="423.5" y="-498.5" font-family="Helvetica,sans-Serif" font-size="10.00" fill="#000000">precice::SolverInterface</text>
<text text-anchor="middle" x="481.5" y="-487.5" font-family="Helvetica,sans-Serif" font-size="10.00" fill="#000000">::setMeshEdge</text>
</a>
</g>
</g>
<!-- Node455&#45;&gt;Node459 -->
<g id="edge5" class="edge">
<title>Node455&#45;&gt;Node459</title>
<path fill="none" stroke="#191970" d="M279.2335,-333.0761C295.4152,-359.2828 344.1748,-432.7958 404,-471.5 406.5777,-473.1677 409.2783,-474.7253 412.0622,-476.1797"/>
<polygon fill="#191970" stroke="#191970" points="410.6501,-479.3833 421.1879,-480.4808 413.6345,-473.0514 410.6501,-479.3833"/>
</g>
<!-- Node460 -->
<g id="node7" class="node">
<title>Node460</title>
<g id="a_node7"><a xlink:href="classprecice_1_1SolverInterface.html#aebc18aa8377710a718fe8e18650a04d6" target="_top" xlink:title="Sets mesh Quad from edge IDs. ">
<polygon fill="#ffffff" stroke="#000000" points="415.5,-431.5 415.5,-461.5 547.5,-461.5 547.5,-431.5 415.5,-431.5"/>
<text text-anchor="start" x="423.5" y="-449.5" font-family="Helvetica,sans-Serif" font-size="10.00" fill="#000000">precice::SolverInterface</text>
<text text-anchor="middle" x="481.5" y="-438.5" font-family="Helvetica,sans-Serif" font-size="10.00" fill="#000000">::setMeshQuad</text>
</a>
</g>
</g>
<!-- Node455&#45;&gt;Node460 -->
<g id="edge6" class="edge">
<title>Node455&#45;&gt;Node460</title>
<path fill="none" stroke="#191970" d="M283.4755,-333.0675C304.2643,-352.527 354.4235,-397.0259 404,-422.5 407.5627,-424.3306 411.2902,-426.0507 415.1019,-427.6622"/>
<polygon fill="#191970" stroke="#191970" points="414.1175,-431.0362 424.7044,-431.4454 416.6834,-424.5234 414.1175,-431.0362"/>
</g>
<!-- Node461 -->
<g id="node8" class="node">
<title>Node461</title>
<g id="a_node8"><a xlink:href="classprecice_1_1SolverInterface.html#ae327bcc1ae62c01b7a02eb2d90e6da42" target="_top" xlink:title="Sets surface mesh quadrangle from vertex IDs. ">
<polygon fill="#ffffff" stroke="#000000" points="411.5,-382.5 411.5,-412.5 551.5,-412.5 551.5,-382.5 411.5,-382.5"/>
<text text-anchor="start" x="419.5" y="-400.5" font-family="Helvetica,sans-Serif" font-size="10.00" fill="#000000">precice::SolverInterface</text>
<text text-anchor="middle" x="481.5" y="-389.5" font-family="Helvetica,sans-Serif" font-size="10.00" fill="#000000">::setMeshQuadWithEdges</text>
</a>
</g>
</g>
<!-- Node455&#45;&gt;Node461 -->
<g id="edge7" class="edge">
<title>Node455&#45;&gt;Node461</title>
<path fill="none" stroke="#191970" d="M296.9048,-333.0001C322.8912,-343.423 366.1677,-360.4103 404,-373.5 409.6281,-375.4473 415.5111,-377.406 421.4114,-379.3193"/>
<polygon fill="#191970" stroke="#191970" points="420.7245,-382.7742 431.3155,-382.4862 422.8566,-376.1067 420.7245,-382.7742"/>
</g>
<!-- Node462 -->
<g id="node9" class="node">
<title>Node462</title>
<g id="a_node9"><a xlink:href="structprecice_1_1testing_1_1WhiteboxAccessor.html#aa07fe7a3cff9b0c7c89c4377eb4452fb" target="_top" xlink:title="precice::testing::Whitebox\lAccessor::impl">
<polygon fill="#ffffff" stroke="#000000" points="409.5,-333.5 409.5,-363.5 553.5,-363.5 553.5,-333.5 409.5,-333.5"/>
<text text-anchor="start" x="417.5" y="-351.5" font-family="Helvetica,sans-Serif" font-size="10.00" fill="#000000">precice::testing::Whitebox</text>
<text text-anchor="middle" x="481.5" y="-340.5" font-family="Helvetica,sans-Serif" font-size="10.00" fill="#000000">Accessor::impl</text>
</a>
</g>
</g>
<!-- Node455&#45;&gt;Node462 -->
<g id="edge8" class="edge">
<title>Node455&#45;&gt;Node462</title>
<path fill="none" stroke="#191970" d="M352.7292,-333.0227C367.9859,-334.8565 383.9977,-336.781 399.3448,-338.6256"/>
<polygon fill="#191970" stroke="#191970" points="398.9732,-342.106 409.3195,-339.8245 399.8086,-335.156 398.9732,-342.106"/>
</g>
<!-- Node463 -->
<g id="node10" class="node">
<title>Node463</title>
<g id="a_node10"><a xlink:href="classprecice_1_1SolverInterface.html#a31b18663881576c2cfe5a7a782f6ff7e" target="_top" xlink:title="Fully initializes preCICE. ">
<polygon fill="#ffffff" stroke="#000000" points="415.5,-284.5 415.5,-314.5 547.5,-314.5 547.5,-284.5 415.5,-284.5"/>
<text text-anchor="start" x="423.5" y="-302.5" font-family="Helvetica,sans-Serif" font-size="10.00" fill="#000000">precice::SolverInterface</text>
<text text-anchor="middle" x="481.5" y="-291.5" font-family="Helvetica,sans-Serif" font-size="10.00" fill="#000000">::initialize</text>
</a>
</g>
</g>
<!-- Node455&#45;&gt;Node463 -->
<g id="edge9" class="edge">
<title>Node455&#45;&gt;Node463</title>
<path fill="none" stroke="#191970" d="M356.0059,-313.9801C372.1951,-312.1121 389.111,-310.1603 405.0903,-308.3165"/>
<polygon fill="#191970" stroke="#191970" points="405.9057,-311.7457 415.4386,-307.1225 405.1033,-304.7919 405.9057,-311.7457"/>
</g>
<!-- Node464 -->
<g id="node11" class="node">
<title>Node464</title>
<g id="a_node11"><a xlink:href="RTreeTests_8cpp.html#a9849f5c774ff22e557184d988b1cf9ea" target="_top" xlink:title="BOOST_TEST">
<polygon fill="#ffffff" stroke="#000000" points="441.5,-246 441.5,-265 521.5,-265 521.5,-246 441.5,-246"/>
<text text-anchor="middle" x="481.5" y="-253" font-family="Helvetica,sans-Serif" font-size="10.00" fill="#000000">BOOST_TEST</text>
</a>
</g>
</g>
<!-- Node455&#45;&gt;Node464 -->
<g id="edge10" class="edge">
<title>Node455&#45;&gt;Node464</title>
<path fill="none" stroke="#191970" d="M297.3058,-313.9278C323.2795,-303.6764 366.2077,-287.2944 404,-275.5 412.8646,-272.7335 422.3823,-270.0485 431.608,-267.5909"/>
<polygon fill="#191970" stroke="#191970" points="432.6673,-270.9318 441.4597,-265.0203 430.9,-264.1585 432.6673,-270.9318"/>
</g>
<!-- Node465 -->
<g id="node12" class="node">
<title>Node465</title>
<g id="a_node12"><a xlink:href="classprecice_1_1SolverInterface.html#a9023201c7b33e20d75a4a700667e50ea" target="_top" xlink:title="Checks if the coupled simulation is still ongoing. ">
<polygon fill="#ffffff" stroke="#000000" points="415.5,-196.5 415.5,-226.5 547.5,-226.5 547.5,-196.5 415.5,-196.5"/>
<text text-anchor="start" x="423.5" y="-214.5" font-family="Helvetica,sans-Serif" font-size="10.00" fill="#000000">precice::SolverInterface</text>
<text text-anchor="middle" x="481.5" y="-203.5" font-family="Helvetica,sans-Serif" font-size="10.00" fill="#000000">::isCouplingOngoing</text>
</a>
</g>
</g>
<!-- Node455&#45;&gt;Node465 -->
<g id="edge11" class="edge">
<title>Node455&#45;&gt;Node465</title>
<path fill="none" stroke="#191970" d="M285.4099,-313.8973C307.5755,-296.4172 357.1699,-259.1228 404,-236.5 408.6544,-234.2515 413.5602,-232.1354 418.5506,-230.1596"/>
<polygon fill="#191970" stroke="#191970" points="420.0753,-233.3258 428.2078,-226.5352 417.6156,-226.7722 420.0753,-233.3258"/>
</g>
<!-- Node466 -->
<g id="node13" class="node">
<title>Node466</title>
<g id="a_node13"><a xlink:href="classprecice_1_1SolverInterface.html#a2b2a961362828c0f3fbea0acf3e9f81c" target="_top" xlink:title="Returns the ID of the data associated with the given name and mesh. ">
<polygon fill="#ffffff" stroke="#000000" points="415.5,-147.5 415.5,-177.5 547.5,-177.5 547.5,-147.5 415.5,-147.5"/>
<text text-anchor="start" x="423.5" y="-165.5" font-family="Helvetica,sans-Serif" font-size="10.00" fill="#000000">precice::SolverInterface</text>
<text text-anchor="middle" x="481.5" y="-154.5" font-family="Helvetica,sans-Serif" font-size="10.00" fill="#000000">::getDataID</text>
</a>
</g>
</g>
<!-- Node455&#45;&gt;Node466 -->
<g id="edge12" class="edge">
<title>Node455&#45;&gt;Node466</title>
<path fill="none" stroke="#191970" d="M280.2031,-313.694C297.6577,-288.8858 347.1302,-223.0783 404,-187.5 407.3428,-185.4087 410.8771,-183.4764 414.5215,-181.6932"/>
<polygon fill="#191970" stroke="#191970" points="416.0605,-184.8391 423.761,-177.5622 413.2033,-178.4487 416.0605,-184.8391"/>
</g>
<!-- Node467 -->
<g id="node14" class="node">
<title>Node467</title>
<g id="a_node14"><a xlink:href="classprecice_1_1SolverInterface.html#a6d8fe3c8b19ecdd5de8a06b0efc40fda" target="_top" xlink:title="Writes scalar data to a vertex. ">
<polygon fill="#ffffff" stroke="#000000" points="415.5,-98.5 415.5,-128.5 547.5,-128.5 547.5,-98.5 415.5,-98.5"/>
<text text-anchor="start" x="423.5" y="-116.5" font-family="Helvetica,sans-Serif" font-size="10.00" fill="#000000">precice::SolverInterface</text>
<text text-anchor="middle" x="481.5" y="-105.5" font-family="Helvetica,sans-Serif" font-size="10.00" fill="#000000">::writeScalarData</text>
</a>
</g>
</g>
<!-- Node455&#45;&gt;Node467 -->
<g id="edge13" class="edge">
<title>Node455&#45;&gt;Node467</title>
<path fill="none" stroke="#191970" d="M277.6008,-313.7939C291.0032,-283.2368 336.5625,-188.1097 404,-138.5 406.6193,-136.5732 409.3934,-134.7908 412.2736,-133.1424"/>
<polygon fill="#191970" stroke="#191970" points="413.8712,-136.2565 421.1828,-128.589 410.6855,-130.0234 413.8712,-136.2565"/>
</g>
<!-- Node468 -->
<g id="node15" class="node">
<title>Node468</title>
<g id="a_node15"><a xlink:href="classprecice_1_1SolverInterface.html#a63bc0860c520c27da517cf594ddee586" target="_top" xlink:title="Advances preCICE after the solver has computed one timestep. ">
<polygon fill="#ffffff" stroke="#000000" points="415.5,-49.5 415.5,-79.5 547.5,-79.5 547.5,-49.5 415.5,-49.5"/>
<text text-anchor="start" x="423.5" y="-67.5" font-family="Helvetica,sans-Serif" font-size="10.00" fill="#000000">precice::SolverInterface</text>
<text text-anchor="middle" x="481.5" y="-56.5" font-family="Helvetica,sans-Serif" font-size="10.00" fill="#000000">::advance</text>
</a>
</g>
</g>
<!-- Node455&#45;&gt;Node468 -->
<g id="edge14" class="edge">
<title>Node455&#45;&gt;Node468</title>
<path fill="none" stroke="#191970" d="M276.0904,-313.8144C286.0926,-278.2812 325.6029,-153.8167 404,-89.5 406.0562,-87.8131 408.2287,-86.2391 410.4894,-84.7706"/>
<polygon fill="#191970" stroke="#191970" points="412.6131,-87.5899 419.586,-79.6131 409.1606,-81.5005 412.6131,-87.5899"/>
</g>
<!-- Node469 -->
<g id="node16" class="node">
<title>Node469</title>
<g id="a_node16"><a xlink:href="classprecice_1_1SolverInterface.html#adc06b8677288d97d005b633c932fedef" target="_top" xlink:title="Finalizes preCICE. ">
<polygon fill="#ffffff" stroke="#000000" points="415.5,-.5 415.5,-30.5 547.5,-30.5 547.5,-.5 415.5,-.5"/>
<text text-anchor="start" x="423.5" y="-18.5" font-family="Helvetica,sans-Serif" font-size="10.00" fill="#000000">precice::SolverInterface</text>
<text text-anchor="middle" x="481.5" y="-7.5" font-family="Helvetica,sans-Serif" font-size="10.00" fill="#000000">::finalize</text>
</a>
</g>
</g>
<!-- Node455&#45;&gt;Node469 -->
<g id="edge15" class="edge">
<title>Node455&#45;&gt;Node469</title>
<path fill="none" stroke="#191970" d="M275.0858,-313.7978C282.1348,-273.7915 314.3299,-120.0049 404,-40.5 405.762,-38.9378 407.6227,-37.473 409.562,-36.0996"/>
<polygon fill="#191970" stroke="#191970" points="411.7901,-38.8403 418.5043,-30.6446 408.1446,-32.8644 411.7901,-38.8403"/>
</g>
</g>
</svg>
