<?xml version="1.0" encoding="UTF-8" standalone="no"?>
<!DOCTYPE svg PUBLIC "-//W3C//DTD SVG 1.1//EN"
 "http://www.w3.org/Graphics/SVG/1.1/DTD/svg11.dtd">
<!-- Generated by graphviz version 2.40.1 (20161225.0304)
 -->
<!-- Title: BOOST_AUTO_TEST_CASE Pages: 1 -->
<svg width="342pt" height="116pt"
 viewBox="0.00 0.00 342.00 116.00" xmlns="http://www.w3.org/2000/svg" xmlns:xlink="http://www.w3.org/1999/xlink">
<g id="graph0" class="graph" transform="scale(1 1) rotate(0) translate(4 112)">
<title>BOOST_AUTO_TEST_CASE</title>
<polygon fill="#ffffff" stroke="transparent" points="-4,4 -4,-112 338,-112 338,4 -4,4"/>
<!-- Node1 -->
<g id="node1" class="node">
<title>Node1</title>
<polygon fill="#bfbfbf" stroke="#000000" points="0,-44.5 0,-63.5 148,-63.5 148,-44.5 0,-44.5"/>
<text text-anchor="middle" x="74" y="-51.5" font-family="Helvetica,sans-Serif" font-size="10.00" fill="#000000">BOOST_AUTO_TEST_CASE</text>
</g>
<!-- Node2 -->
<g id="node2" class="node">
<title>Node2</title>
<g id="a_node2"><a xlink:href="RTreeTests_8cpp.html#a9849f5c774ff22e557184d988b1cf9ea" target="_top" xlink:title="BOOST_TEST">
<polygon fill="#ffffff" stroke="#000000" points="218,-88.5 218,-107.5 300,-107.5 300,-88.5 218,-88.5"/>
<text text-anchor="middle" x="259" y="-95.5" font-family="Helvetica,sans-Serif" font-size="10.00" fill="#000000">BOOST_TEST</text>
</a>
</g>
</g>
<!-- Node1&#45;&gt;Node2 -->
<g id="edge1" class="edge">
<title>Node1&#45;&gt;Node2</title>
<path fill="none" stroke="#191970" d="M114.1422,-63.5473C142.0214,-70.1781 179.362,-79.0591 209.1487,-86.1435"/>
<polygon fill="#191970" stroke="#191970" points="208.3976,-89.5624 218.9361,-88.4713 210.0173,-82.7524 208.3976,-89.5624"/>
</g>
<!-- Node3 -->
<g id="node3" class="node">
<title>Node3</title>
<g id="a_node3"><a xlink:href="classprecice_1_1SolverInterface.html#a0bc17ab3544ba0c600b25c024b11c58b" target="_top" xlink:title="Returns the number of spatial dimensions configured. ">
<polygon fill="#ffffff" stroke="#000000" points="199,-39 199,-69 319,-69 319,-39 199,-39"/>
<text text-anchor="start" x="207" y="-57" font-family="Helvetica,sans-Serif" font-size="10.00" fill="#000000">precice::SolverInterface</text>
<text text-anchor="middle" x="259" y="-46" font-family="Helvetica,sans-Serif" font-size="10.00" fill="#000000">::getDimensions</text>
</a>
</g>
</g>
<!-- Node1&#45;&gt;Node3 -->
<g id="edge2" class="edge">
<title>Node1&#45;&gt;Node3</title>
<path fill="none" stroke="#191970" d="M148.1806,-54C161.427,-54 175.1956,-54 188.3401,-54"/>
<polygon fill="#191970" stroke="#191970" points="188.7261,-57.5001 198.726,-54 188.726,-50.5001 188.7261,-57.5001"/>
</g>
<!-- Node4 -->
<g id="node4" class="node">
<title>Node4</title>
<g id="a_node4"><a xlink:href="MPIPortsCommunicationTest_8cpp.html#a5ded28ea5c98cb27bf0cfcf344588d46" target="_top" xlink:title="BOOST_AUTO_TEST_SUITE">
<polygon fill="#ffffff" stroke="#000000" points="184,-.5 184,-19.5 334,-19.5 334,-.5 184,-.5"/>
<text text-anchor="middle" x="259" y="-7.5" font-family="Helvetica,sans-Serif" font-size="10.00" fill="#000000">BOOST_AUTO_TEST_SUITE</text>
</a>
</g>
</g>
<!-- Node1&#45;&gt;Node4 -->
<g id="edge3" class="edge">
<title>Node1&#45;&gt;Node4</title>
<path fill="none" stroke="#191970" d="M114.1422,-44.4527C142.0214,-37.8219 179.362,-28.9409 209.1487,-21.8565"/>
<polygon fill="#191970" stroke="#191970" points="210.0173,-25.2476 218.9361,-19.5287 208.3976,-18.4376 210.0173,-25.2476"/>
</g>
</g>
</svg>
