<?xml version="1.0" encoding="UTF-8" standalone="no"?>
<!DOCTYPE svg PUBLIC "-//W3C//DTD SVG 1.1//EN"
 "http://www.w3.org/Graphics/SVG/1.1/DTD/svg11.dtd">
<!-- Generated by graphviz version 2.40.1 (20161225.0304)
 -->
<!-- Title: BOOST_AUTO_TEST_CASE Pages: 1 -->
<!--zoomable 651 -->
<svg id="main" version="1.1" xmlns="http://www.w3.org/2000/svg" xmlns:xlink="http://www.w3.org/1999/xlink" xml:space="preserve" onload="init(evt)">
<style type="text/css"><![CDATA[
.edge:hover path { stroke: red; }
.edge:hover polygon { stroke: red; fill: red; }
]]></style>
<script type="text/javascript"><![CDATA[
var edges = document.getElementsByTagName('g');
if (edges && edges.length) {
  for (var i=0;i<edges.length;i++) {
    if (edges[i].id.substr(0,4)=='edge') {
      edges[i].setAttribute('class','edge');
    }
  }
}
]]></script>
        <defs>
                <circle id="rim" cx="0" cy="0" r="7"/>
                <circle id="rim2" cx="0" cy="0" r="3.5"/>
                <g id="zoomPlus">
                        <use xlink:href="#rim" fill="#404040">
                                <set attributeName="fill" to="#808080" begin="zoomplus.mouseover" end="zoomplus.mouseout"/>
                        </use>
                        <path d="M-4,0h8M0,-4v8" fill="none" stroke="white" stroke-width="1.5" pointer-events="none"/>
                </g>
                <g id="zoomMin">
                        <use xlink:href="#rim" fill="#404040">
                                <set attributeName="fill" to="#808080" begin="zoomminus.mouseover" end="zoomminus.mouseout"/>
                        </use>
                        <path d="M-4,0h8" fill="none" stroke="white" stroke-width="1.5" pointer-events="none"/>
                </g>
                <g id="dirArrow">
                        <path fill="none" stroke="white" stroke-width="1.5" d="M0,-3.0v7 M-2.5,-0.5L0,-3.0L2.5,-0.5"/>
                </g>
               <g id="resetDef">
                       <use xlink:href="#rim2" fill="#404040">
                               <set attributeName="fill" to="#808080" begin="reset.mouseover" end="reset.mouseout"/>
                       </use>
               </g>
        </defs>

<script type="text/javascript">
var viewWidth = 360;
var viewHeight = 651;
var sectionId = 'dynsection-28';
</script>
<script xlink:href="svgpan.js"/>
<svg id="graph" class="graph">
<g id="viewport">
<title>BOOST_AUTO_TEST_CASE</title>
<polygon fill="#ffffff" stroke="transparent" points="-4,4 -4,-647 356,-647 356,4 -4,4"/>
<!-- Node387 -->
<g id="node1" class="node">
<title>Node387</title>
<polygon fill="#bfbfbf" stroke="#000000" points="0,-318 0,-337 143,-337 143,-318 0,-318"/>
<text text-anchor="middle" x="71.5" y="-325" font-family="Helvetica,sans-Serif" font-size="10.00" fill="#000000">BOOST_AUTO_TEST_CASE</text>
</g>
<!-- Node388 -->
<g id="node2" class="node">
<title>Node388</title>
<g id="a_node2"><a xlink:href="classprecice_1_1testing_1_1TestContext.html#a87ef3b67f676b69dfb8c4cfc2e8df819" target="_top" xlink:title="Check wheater this context has a given name. ">
<polygon fill="#ffffff" stroke="#000000" points="188,-612.5 188,-642.5 343,-642.5 343,-612.5 188,-612.5"/>
<text text-anchor="start" x="196" y="-630.5" font-family="Helvetica,sans-Serif" font-size="10.00" fill="#000000">precice::testing::TestContext</text>
<text text-anchor="middle" x="265.5" y="-619.5" font-family="Helvetica,sans-Serif" font-size="10.00" fill="#000000">::isNamed</text>
</a>
</g>
</g>
<!-- Node387&#45;&gt;Node388 -->
<g id="edge1" class="edge">
<title>Node387&#45;&gt;Node388</title>
<path fill="none" stroke="#191970" d="M72.2272,-337.0252C75.7482,-376.2905 94.5052,-527.1176 179,-603.5 180.3115,-604.6855 181.6765,-605.8131 183.0879,-606.8856"/>
<polygon fill="#191970" stroke="#191970" points="181.3363,-609.9216 191.6263,-612.4446 185.1556,-604.0553 181.3363,-609.9216"/>
</g>
<!-- Node389 -->
<g id="node3" class="node">
<title>Node389</title>
<g id="a_node3"><a xlink:href="classprecice_1_1SolverInterface.html#a46c45798758f01b9cfdd2885bc849764" target="_top" xlink:title="Returns the ID belonging to the mesh with given name. ">
<polygon fill="#ffffff" stroke="#000000" points="199.5,-563.5 199.5,-593.5 331.5,-593.5 331.5,-563.5 199.5,-563.5"/>
<text text-anchor="start" x="207.5" y="-581.5" font-family="Helvetica,sans-Serif" font-size="10.00" fill="#000000">precice::SolverInterface</text>
<text text-anchor="middle" x="265.5" y="-570.5" font-family="Helvetica,sans-Serif" font-size="10.00" fill="#000000">::getMeshID</text>
</a>
</g>
</g>
<!-- Node387&#45;&gt;Node389 -->
<g id="edge2" class="edge">
<title>Node387&#45;&gt;Node389</title>
<path fill="none" stroke="#191970" d="M73.1838,-337.4577C79.7003,-372.8316 106.6022,-493.5718 179,-554.5 182.4468,-557.4007 186.218,-559.9524 190.1965,-562.1968"/>
<polygon fill="#191970" stroke="#191970" points="188.6753,-565.3491 199.1918,-566.6357 191.7731,-559.0718 188.6753,-565.3491"/>
</g>
<!-- Node390 -->
<g id="node4" class="node">
<title>Node390</title>
<g id="a_node4"><a xlink:href="classprecice_1_1SolverInterface.html#a0f5dfe2e0932abeadc7276e0f7e0c443" target="_top" xlink:title="Creates a mesh vertex. ">
<polygon fill="#ffffff" stroke="#000000" points="199.5,-514.5 199.5,-544.5 331.5,-544.5 331.5,-514.5 199.5,-514.5"/>
<text text-anchor="start" x="207.5" y="-532.5" font-family="Helvetica,sans-Serif" font-size="10.00" fill="#000000">precice::SolverInterface</text>
<text text-anchor="middle" x="265.5" y="-521.5" font-family="Helvetica,sans-Serif" font-size="10.00" fill="#000000">::setMeshVertex</text>
</a>
</g>
</g>
<!-- Node387&#45;&gt;Node390 -->
<g id="edge3" class="edge">
<title>Node387&#45;&gt;Node390</title>
<path fill="none" stroke="#191970" d="M74.5319,-337.3676C84.3187,-367.527 118.029,-459.2391 179,-505.5 182.422,-508.0964 186.1099,-510.4119 189.9666,-512.477"/>
<polygon fill="#191970" stroke="#191970" points="188.6902,-515.7449 199.2268,-516.8551 191.6823,-509.4166 188.6902,-515.7449"/>
</g>
<!-- Node391 -->
<g id="node5" class="node">
<title>Node391</title>
<g id="a_node5"><a xlink:href="classprecice_1_1SolverInterface.html#a31b18663881576c2cfe5a7a782f6ff7e" target="_top" xlink:title="Fully initializes preCICE. ">
<polygon fill="#ffffff" stroke="#000000" points="199.5,-465.5 199.5,-495.5 331.5,-495.5 331.5,-465.5 199.5,-465.5"/>
<text text-anchor="start" x="207.5" y="-483.5" font-family="Helvetica,sans-Serif" font-size="10.00" fill="#000000">precice::SolverInterface</text>
<text text-anchor="middle" x="265.5" y="-472.5" font-family="Helvetica,sans-Serif" font-size="10.00" fill="#000000">::initialize</text>
</a>
</g>
</g>
<!-- Node387&#45;&gt;Node391 -->
<g id="edge4" class="edge">
<title>Node387&#45;&gt;Node391</title>
<path fill="none" stroke="#191970" d="M76.8202,-337.3121C90.4396,-361.4779 129.0385,-424.2394 179,-456.5 182.535,-458.7826 186.2865,-460.8506 190.1695,-462.724"/>
<polygon fill="#191970" stroke="#191970" points="188.8626,-465.9722 199.4287,-466.7514 191.6546,-459.5532 188.8626,-465.9722"/>
</g>
<!-- Node392 -->
<g id="node6" class="node">
<title>Node392</title>
<g id="a_node6"><a xlink:href="classprecice_1_1SolverInterface.html#a9023201c7b33e20d75a4a700667e50ea" target="_top" xlink:title="Checks if the coupled simulation is still ongoing. ">
<polygon fill="#ffffff" stroke="#000000" points="199.5,-416.5 199.5,-446.5 331.5,-446.5 331.5,-416.5 199.5,-416.5"/>
<text text-anchor="start" x="207.5" y="-434.5" font-family="Helvetica,sans-Serif" font-size="10.00" fill="#000000">precice::SolverInterface</text>
<text text-anchor="middle" x="265.5" y="-423.5" font-family="Helvetica,sans-Serif" font-size="10.00" fill="#000000">::isCouplingOngoing</text>
</a>
</g>
</g>
<!-- Node387&#45;&gt;Node392 -->
<g id="edge5" class="edge">
<title>Node387&#45;&gt;Node392</title>
<path fill="none" stroke="#191970" d="M81.6208,-337.0986C99.7347,-353.7767 139.5084,-388.169 179,-407.5 182.9653,-409.441 187.1122,-411.2463 191.3519,-412.9222"/>
<polygon fill="#191970" stroke="#191970" points="190.1541,-416.2108 200.7474,-416.3866 192.5759,-409.643 190.1541,-416.2108"/>
</g>
<!-- Node393 -->
<g id="node7" class="node">
<title>Node393</title>
<g id="a_node7"><a xlink:href="classprecice_1_1SolverInterface.html#aeba10de9770482c7d68350c50e6019fd" target="_top" xlink:title="Checks if the provided action is required. ">
<polygon fill="#ffffff" stroke="#000000" points="199.5,-367.5 199.5,-397.5 331.5,-397.5 331.5,-367.5 199.5,-367.5"/>
<text text-anchor="start" x="207.5" y="-385.5" font-family="Helvetica,sans-Serif" font-size="10.00" fill="#000000">precice::SolverInterface</text>
<text text-anchor="middle" x="265.5" y="-374.5" font-family="Helvetica,sans-Serif" font-size="10.00" fill="#000000">::isActionRequired</text>
</a>
</g>
</g>
<!-- Node387&#45;&gt;Node393 -->
<g id="edge6" class="edge">
<title>Node387&#45;&gt;Node393</title>
<path fill="none" stroke="#191970" d="M105.2922,-337.0803C132.0521,-344.6668 170.1796,-355.4762 202.5263,-364.6466"/>
<polygon fill="#191970" stroke="#191970" points="201.7849,-368.0743 212.3604,-367.4346 203.6942,-361.3397 201.7849,-368.0743"/>
</g>
<!-- Node394 -->
<g id="node8" class="node">
<title>Node394</title>
<g id="a_node8"><a xlink:href="namespaceprecice_1_1cplscheme_1_1constants.html#ae6a2667f9452de16a239be70945c8172" target="_top" xlink:title="precice::cplscheme\l::constants::actionWriteIteration\lCheckpoint">
<polygon fill="#ffffff" stroke="#000000" points="179,-307 179,-348 352,-348 352,-307 179,-307"/>
<text text-anchor="start" x="187" y="-336" font-family="Helvetica,sans-Serif" font-size="10.00" fill="#000000">precice::cplscheme</text>
<text text-anchor="start" x="187" y="-325" font-family="Helvetica,sans-Serif" font-size="10.00" fill="#000000">::constants::actionWriteIteration</text>
<text text-anchor="middle" x="265.5" y="-314" font-family="Helvetica,sans-Serif" font-size="10.00" fill="#000000">Checkpoint</text>
</a>
</g>
</g>
<!-- Node387&#45;&gt;Node394 -->
<g id="edge7" class="edge">
<title>Node387&#45;&gt;Node394</title>
<path fill="none" stroke="#191970" d="M143.1873,-327.5C151.5658,-327.5 160.2153,-327.5 168.8609,-327.5"/>
<polygon fill="#191970" stroke="#191970" points="168.992,-331.0001 178.9919,-327.5 168.9919,-324.0001 168.992,-331.0001"/>
</g>
<!-- Node395 -->
<g id="node9" class="node">
<title>Node395</title>
<g id="a_node9"><a xlink:href="classprecice_1_1SolverInterface.html#a9b8bc7489153814bae711d583725f691" target="_top" xlink:title="Indicates preCICE that a required action has been fulfilled by a solver. ">
<polygon fill="#ffffff" stroke="#000000" points="199.5,-257.5 199.5,-287.5 331.5,-287.5 331.5,-257.5 199.5,-257.5"/>
<text text-anchor="start" x="207.5" y="-275.5" font-family="Helvetica,sans-Serif" font-size="10.00" fill="#000000">precice::SolverInterface</text>
<text text-anchor="middle" x="265.5" y="-264.5" font-family="Helvetica,sans-Serif" font-size="10.00" fill="#000000">::markActionFulfilled</text>
</a>
</g>
</g>
<!-- Node387&#45;&gt;Node395 -->
<g id="edge8" class="edge">
<title>Node387&#45;&gt;Node395</title>
<path fill="none" stroke="#191970" d="M105.2922,-317.9197C132.0521,-310.3332 170.1796,-299.5238 202.5263,-290.3534"/>
<polygon fill="#191970" stroke="#191970" points="203.6942,-293.6603 212.3604,-287.5654 201.7849,-286.9257 203.6942,-293.6603"/>
</g>
<!-- Node396 -->
<g id="node10" class="node">
<title>Node396</title>
<g id="a_node10"><a xlink:href="namespaceprecice_1_1cplscheme_1_1constants.html#a6ee5e554181352c02568f33215195519" target="_top" xlink:title="precice::cplscheme\l::constants::actionReadIteration\lCheckpoint">
<polygon fill="#ffffff" stroke="#000000" points="180,-197 180,-238 351,-238 351,-197 180,-197"/>
<text text-anchor="start" x="188" y="-226" font-family="Helvetica,sans-Serif" font-size="10.00" fill="#000000">precice::cplscheme</text>
<text text-anchor="start" x="188" y="-215" font-family="Helvetica,sans-Serif" font-size="10.00" fill="#000000">::constants::actionReadIteration</text>
<text text-anchor="middle" x="265.5" y="-204" font-family="Helvetica,sans-Serif" font-size="10.00" fill="#000000">Checkpoint</text>
</a>
</g>
</g>
<!-- Node387&#45;&gt;Node396 -->
<g id="edge9" class="edge">
<title>Node387&#45;&gt;Node396</title>
<path fill="none" stroke="#191970" d="M82.3856,-317.8099C101.028,-301.6191 140.7639,-268.8426 179,-248.5 183.181,-246.2756 187.5556,-244.1502 192.0227,-242.1307"/>
<polygon fill="#191970" stroke="#191970" points="193.4913,-245.3091 201.2892,-238.1367 190.7206,-238.8808 193.4913,-245.3091"/>
</g>
<!-- Node397 -->
<g id="node11" class="node">
<title>Node397</title>
<g id="a_node11"><a xlink:href="classprecice_1_1SolverInterface.html#a2b2a961362828c0f3fbea0acf3e9f81c" target="_top" xlink:title="Returns the ID of the data associated with the given name and mesh. ">
<polygon fill="#ffffff" stroke="#000000" points="199.5,-147.5 199.5,-177.5 331.5,-177.5 331.5,-147.5 199.5,-147.5"/>
<text text-anchor="start" x="207.5" y="-165.5" font-family="Helvetica,sans-Serif" font-size="10.00" fill="#000000">precice::SolverInterface</text>
<text text-anchor="middle" x="265.5" y="-154.5" font-family="Helvetica,sans-Serif" font-size="10.00" fill="#000000">::getDataID</text>
</a>
</g>
</g>
<!-- Node387&#45;&gt;Node397 -->
<g id="edge10" class="edge">
<title>Node387&#45;&gt;Node397</title>
<path fill="none" stroke="#191970" d="M76.2325,-317.6356C89.0207,-292.0493 126.851,-223.0744 179,-187.5 182.4866,-185.1215 186.2,-182.9667 190.0535,-181.0147"/>
<polygon fill="#191970" stroke="#191970" points="191.6111,-184.1513 199.2585,-176.8187 188.7076,-177.7818 191.6111,-184.1513"/>
</g>
<!-- Node398 -->
<g id="node12" class="node">
<title>Node398</title>
<g id="a_node12"><a xlink:href="classprecice_1_1SolverInterface.html#a656fffa43139988acd89f466758b2e69" target="_top" xlink:title="Writes vector data to a vertex. ">
<polygon fill="#ffffff" stroke="#000000" points="199.5,-98.5 199.5,-128.5 331.5,-128.5 331.5,-98.5 199.5,-98.5"/>
<text text-anchor="start" x="207.5" y="-116.5" font-family="Helvetica,sans-Serif" font-size="10.00" fill="#000000">precice::SolverInterface</text>
<text text-anchor="middle" x="265.5" y="-105.5" font-family="Helvetica,sans-Serif" font-size="10.00" fill="#000000">::writeVectorData</text>
</a>
</g>
</g>
<!-- Node387&#45;&gt;Node398 -->
<g id="edge11" class="edge">
<title>Node387&#45;&gt;Node398</title>
<path fill="none" stroke="#191970" d="M74.108,-317.9456C83.0622,-286.9799 115.5556,-188.5063 179,-138.5 182.3838,-135.8329 186.0417,-133.4503 189.8754,-131.3219"/>
<polygon fill="#191970" stroke="#191970" points="191.6554,-134.3473 199.0936,-126.8025 188.5739,-128.062 191.6554,-134.3473"/>
</g>
<!-- Node399 -->
<g id="node13" class="node">
<title>Node399</title>
<g id="a_node13"><a xlink:href="classprecice_1_1SolverInterface.html#a63bc0860c520c27da517cf594ddee586" target="_top" xlink:title="Advances preCICE after the solver has computed one timestep. ">
<polygon fill="#ffffff" stroke="#000000" points="199.5,-49.5 199.5,-79.5 331.5,-79.5 331.5,-49.5 199.5,-49.5"/>
<text text-anchor="start" x="207.5" y="-67.5" font-family="Helvetica,sans-Serif" font-size="10.00" fill="#000000">precice::SolverInterface</text>
<text text-anchor="middle" x="265.5" y="-56.5" font-family="Helvetica,sans-Serif" font-size="10.00" fill="#000000">::advance</text>
</a>
</g>
</g>
<!-- Node387&#45;&gt;Node399 -->
<g id="edge12" class="edge">
<title>Node387&#45;&gt;Node399</title>
<path fill="none" stroke="#191970" d="M72.9649,-317.6029C78.8687,-281.3021 104.2995,-154.2218 179,-89.5 182.4151,-86.5411 186.1618,-83.9317 190.1217,-81.6305"/>
<polygon fill="#191970" stroke="#191970" points="191.7602,-84.7239 199.0853,-77.0693 188.5855,-78.4852 191.7602,-84.7239"/>
</g>
<!-- Node400 -->
<g id="node14" class="node">
<title>Node400</title>
<g id="a_node14"><a xlink:href="classprecice_1_1SolverInterface.html#adc06b8677288d97d005b633c932fedef" target="_top" xlink:title="Finalizes preCICE. ">
<polygon fill="#ffffff" stroke="#000000" points="199.5,-.5 199.5,-30.5 331.5,-30.5 331.5,-.5 199.5,-.5"/>
<text text-anchor="start" x="207.5" y="-18.5" font-family="Helvetica,sans-Serif" font-size="10.00" fill="#000000">precice::SolverInterface</text>
<text text-anchor="middle" x="265.5" y="-7.5" font-family="Helvetica,sans-Serif" font-size="10.00" fill="#000000">::finalize</text>
</a>
</g>
</g>
<!-- Node387&#45;&gt;Node400 -->
<g id="edge13" class="edge">
<title>Node387&#45;&gt;Node400</title>
<path fill="none" stroke="#191970" d="M72.0982,-317.9037C75.1347,-277.6431 92.3224,-120.7447 179,-40.5 182.3821,-37.3689 186.1326,-34.6274 190.1218,-32.2273"/>
<polygon fill="#191970" stroke="#191970" points="191.9378,-35.2276 199.1855,-27.4997 188.7005,-29.0211 191.9378,-35.2276"/>
</g>
</g>
</svg>
        <g id="navigator" transform="translate(0 0)" fill="#404254">
                <rect fill="#f2f5e9" fill-opacity="0.5" stroke="#606060" stroke-width=".5" x="0" y="0" width="60" height="60"/>
                <use id="zoomplus" xlink:href="#zoomPlus" x="17" y="9" onmousedown="handleZoom(evt,'in')"/>
                <use id="zoomminus" xlink:href="#zoomMin" x="42" y="9" onmousedown="handleZoom(evt,'out')"/>
                <use id="reset" xlink:href="#resetDef" x="30" y="36" onmousedown="handleReset()"/>
                <g id="arrowUp" xlink:href="#dirArrow" transform="translate(30 24)" onmousedown="handlePan(0,-1)">
                  <use xlink:href="#rim" fill="#404040">
                        <set attributeName="fill" to="#808080" begin="arrowUp.mouseover" end="arrowUp.mouseout"/>
                  </use>
                  <path fill="none" stroke="white" stroke-width="1.5" d="M0,-3.0v7 M-2.5,-0.5L0,-3.0L2.5,-0.5"/>
                </g>
                <g id="arrowRight" xlink:href="#dirArrow" transform="rotate(90) translate(36 -43)" onmousedown="handlePan(1,0)">
                  <use xlink:href="#rim" fill="#404040">
                        <set attributeName="fill" to="#808080" begin="arrowRight.mouseover" end="arrowRight.mouseout"/>
                  </use>
                  <path fill="none" stroke="white" stroke-width="1.5" d="M0,-3.0v7 M-2.5,-0.5L0,-3.0L2.5,-0.5"/>
                </g>
                <g id="arrowDown" xlink:href="#dirArrow" transform="rotate(180) translate(-30 -48)" onmousedown="handlePan(0,1)">
                  <use xlink:href="#rim" fill="#404040">
                        <set attributeName="fill" to="#808080" begin="arrowDown.mouseover" end="arrowDown.mouseout"/>
                  </use>
                  <path fill="none" stroke="white" stroke-width="1.5" d="M0,-3.0v7 M-2.5,-0.5L0,-3.0L2.5,-0.5"/>
                </g>
                <g id="arrowLeft" xlink:href="#dirArrow" transform="rotate(270) translate(-36 17)" onmousedown="handlePan(-1,0)">
                  <use xlink:href="#rim" fill="#404040">
                        <set attributeName="fill" to="#808080" begin="arrowLeft.mouseover" end="arrowLeft.mouseout"/>
                  </use>
                  <path fill="none" stroke="white" stroke-width="1.5" d="M0,-3.0v7 M-2.5,-0.5L0,-3.0L2.5,-0.5"/>
                </g>
        </g>
        <svg viewBox="0 0 15 15" width="100%" height="30px" preserveAspectRatio="xMaxYMin meet">
         <g id="arrow_out" transform="scale(0.3 0.3)">
          <a xlink:href="SerialTests_8cpp_a35eef329ed8de5f5e4c0835329abd074_cgraph_org.svg" target="_base">
           <rect id="button" ry="5" rx="5" y="6" x="6" height="38" width="38"
                fill="#f2f5e9" fill-opacity="0.5" stroke="#606060" stroke-width="1.0"/>
           <path id="arrow"
             d="M 11.500037,31.436501 C 11.940474,20.09759 22.043105,11.32322 32.158766,21.979434 L 37.068811,17.246167 C 37.068811,17.246167 37.088388,32 37.088388,32 L 22.160133,31.978069 C 22.160133,31.978069 26.997745,27.140456 26.997745,27.140456 C 18.528582,18.264221 13.291696,25.230495 11.500037,31.436501 z"
             style="fill:#404040;"/>
          </a>
         </g>
        </svg>
</svg>
