<?xml version="1.0" encoding="UTF-8" standalone="no"?>
<!DOCTYPE svg PUBLIC "-//W3C//DTD SVG 1.1//EN"
 "http://www.w3.org/Graphics/SVG/1.1/DTD/svg11.dtd">
<!-- Generated by graphviz version 2.40.1 (20161225.0304)
 -->
<!-- Title: src/com/SocketSendQueue.cpp Pages: 1 -->
<!--zoomable 386 -->
<svg id="main" version="1.1" xmlns="http://www.w3.org/2000/svg" xmlns:xlink="http://www.w3.org/1999/xlink" xml:space="preserve" onload="init(evt)">
<style type="text/css"><![CDATA[
.edge:hover path { stroke: red; }
.edge:hover polygon { stroke: red; fill: red; }
]]></style>
<script type="text/javascript"><![CDATA[
var edges = document.getElementsByTagName('g');
if (edges && edges.length) {
  for (var i=0;i<edges.length;i++) {
    if (edges[i].id.substr(0,4)=='edge') {
      edges[i].setAttribute('class','edge');
    }
  }
}
]]></script>
        <defs>
                <circle id="rim" cx="0" cy="0" r="7"/>
                <circle id="rim2" cx="0" cy="0" r="3.5"/>
                <g id="zoomPlus">
                        <use xlink:href="#rim" fill="#404040">
                                <set attributeName="fill" to="#808080" begin="zoomplus.mouseover" end="zoomplus.mouseout"/>
                        </use>
                        <path d="M-4,0h8M0,-4v8" fill="none" stroke="white" stroke-width="1.5" pointer-events="none"/>
                </g>
                <g id="zoomMin">
                        <use xlink:href="#rim" fill="#404040">
                                <set attributeName="fill" to="#808080" begin="zoomminus.mouseover" end="zoomminus.mouseout"/>
                        </use>
                        <path d="M-4,0h8" fill="none" stroke="white" stroke-width="1.5" pointer-events="none"/>
                </g>
                <g id="dirArrow">
                        <path fill="none" stroke="white" stroke-width="1.5" d="M0,-3.0v7 M-2.5,-0.5L0,-3.0L2.5,-0.5"/>
                </g>
               <g id="resetDef">
                       <use xlink:href="#rim2" fill="#404040">
                               <set attributeName="fill" to="#808080" begin="reset.mouseover" end="reset.mouseout"/>
                       </use>
               </g>
        </defs>

<script type="text/javascript">
var viewWidth = 1600;
var viewHeight = 386;
var sectionId = 'dynsection-0';
</script>
<script xlink:href="svgpan.js"/>
<svg id="graph" class="graph">
<g id="viewport">
<title>src/com/SocketSendQueue.cpp</title>
<polygon fill="#ffffff" stroke="transparent" points="-4,4 -4,-382 1596,-382 1596,4 -4,4"/>
<!-- Node0 -->
<g id="node1" class="node">
<title>Node0</title>
<polygon fill="#bfbfbf" stroke="#000000" points="732.5,-358.5 732.5,-377.5 899.5,-377.5 899.5,-358.5 732.5,-358.5"/>
<text text-anchor="middle" x="816" y="-365.5" font-family="Helvetica,sans-Serif" font-size="10.00" fill="#000000">src/com/SocketSendQueue.cpp</text>
</g>
<!-- Node1 -->
<g id="node2" class="node">
<title>Node1</title>
<polygon fill="#ffffff" stroke="#bfbfbf" points="134,-302.5 134,-321.5 198,-321.5 198,-302.5 134,-302.5"/>
<text text-anchor="middle" x="166" y="-309.5" font-family="Helvetica,sans-Serif" font-size="10.00" fill="#000000">algorithm</text>
</g>
<!-- Node0&#45;&gt;Node1 -->
<g id="edge1" class="edge">
<title>Node0&#45;&gt;Node1</title>
<path fill="none" stroke="#191970" d="M732.0594,-365.2674C615.0324,-360.627 396.4474,-348.9408 212,-322 210.7263,-321.814 209.4353,-321.613 208.1337,-321.3996"/>
<polygon fill="#191970" stroke="#191970" points="208.5332,-317.9147 198.0673,-319.5626 207.2766,-324.801 208.5332,-317.9147"/>
</g>
<!-- Node2 -->
<g id="node3" class="node">
<title>Node2</title>
<polygon fill="#ffffff" stroke="#bfbfbf" points="0,-179.5 0,-198.5 88,-198.5 88,-179.5 0,-179.5"/>
<text text-anchor="middle" x="44" y="-186.5" font-family="Helvetica,sans-Serif" font-size="10.00" fill="#000000">boost/asio.hpp</text>
</g>
<!-- Node0&#45;&gt;Node2 -->
<g id="edge2" class="edge">
<title>Node0&#45;&gt;Node2</title>
<path fill="none" stroke="#191970" d="M732.0399,-358.4772C619.6114,-344.4904 414.6415,-314.6471 245,-266 183.0756,-248.2423 113.4039,-219.4836 74.4997,-202.5926"/>
<polygon fill="#191970" stroke="#191970" points="75.8598,-199.3674 65.2952,-198.5679 73.0554,-205.7811 75.8598,-199.3674"/>
</g>
<!-- Node3 -->
<g id="node4" class="node">
<title>Node3</title>
<polygon fill="#ffffff" stroke="#bfbfbf" points="901.5,-179.5 901.5,-198.5 950.5,-198.5 950.5,-179.5 901.5,-179.5"/>
<text text-anchor="middle" x="926" y="-186.5" font-family="Helvetica,sans-Serif" font-size="10.00" fill="#000000">iosfwd</text>
</g>
<!-- Node0&#45;&gt;Node3 -->
<g id="edge3" class="edge">
<title>Node0&#45;&gt;Node3</title>
<path fill="none" stroke="#191970" d="M821.9141,-358.3762C839.4469,-329.8455 891.3624,-245.3648 914.5683,-207.6024"/>
<polygon fill="#191970" stroke="#191970" points="917.8029,-209.0238 920.0567,-198.6714 911.839,-205.3588 917.8029,-209.0238"/>
</g>
<!-- Node4 -->
<g id="node5" class="node">
<title>Node4</title>
<polygon fill="#ffffff" stroke="#bfbfbf" points="1115.5,-302.5 1115.5,-321.5 1152.5,-321.5 1152.5,-302.5 1115.5,-302.5"/>
<text text-anchor="middle" x="1134" y="-309.5" font-family="Helvetica,sans-Serif" font-size="10.00" fill="#000000">new</text>
</g>
<!-- Node0&#45;&gt;Node4 -->
<g id="edge4" class="edge">
<title>Node0&#45;&gt;Node4</title>
<path fill="none" stroke="#191970" d="M899.6883,-359.2273C955.8163,-352.3111 1031.3909,-341.0084 1105.3232,-322.074"/>
<polygon fill="#191970" stroke="#191970" points="1106.4781,-325.3899 1115.2696,-319.4772 1104.7098,-318.6169 1106.4781,-325.3899"/>
</g>
<!-- Node5 -->
<g id="node6" class="node">
<title>Node5</title>
<polygon fill="#ffffff" stroke="#bfbfbf" points="1170.5,-302.5 1170.5,-321.5 1215.5,-321.5 1215.5,-302.5 1170.5,-302.5"/>
<text text-anchor="middle" x="1193" y="-309.5" font-family="Helvetica,sans-Serif" font-size="10.00" fill="#000000">utility</text>
</g>
<!-- Node0&#45;&gt;Node5 -->
<g id="edge5" class="edge">
<title>Node0&#45;&gt;Node5</title>
<path fill="none" stroke="#191970" d="M899.5869,-361.1361C967.7193,-354.566 1066.4568,-342.8273 1160.4804,-322.0362"/>
<polygon fill="#191970" stroke="#191970" points="1161.4556,-325.4044 1170.4434,-319.7947 1159.919,-318.5751 1161.4556,-325.4044"/>
</g>
<!-- Node6 -->
<g id="node7" class="node">
<title>Node6</title>
<g id="a_node7"><a xlink:href="SocketSendQueue_8hpp.html" target="_top" xlink:title="SocketSendQueue.hpp">
<polygon fill="#ffffff" stroke="#000000" points="254,-241 254,-260 380,-260 380,-241 254,-241"/>
<text text-anchor="middle" x="317" y="-248" font-family="Helvetica,sans-Serif" font-size="10.00" fill="#000000">SocketSendQueue.hpp</text>
</a>
</g>
</g>
<!-- Node0&#45;&gt;Node6 -->
<g id="edge6" class="edge">
<title>Node0&#45;&gt;Node6</title>
<path fill="none" stroke="#191970" d="M775.5874,-358.484C685.0755,-337.1711 466.2696,-285.6487 367.2131,-262.3237"/>
<polygon fill="#191970" stroke="#191970" points="367.977,-258.908 357.441,-260.0227 366.3726,-265.7216 367.977,-258.908"/>
</g>
<!-- Node13 -->
<g id="node14" class="node">
<title>Node13</title>
<g id="a_node14"><a xlink:href="LogMacros_8hpp.html" target="_top" xlink:title="LogMacros.hpp">
<polygon fill="#ffffff" stroke="#000000" points="676.5,-123.5 676.5,-142.5 765.5,-142.5 765.5,-123.5 676.5,-123.5"/>
<text text-anchor="middle" x="721" y="-130.5" font-family="Helvetica,sans-Serif" font-size="10.00" fill="#000000">LogMacros.hpp</text>
</a>
</g>
</g>
<!-- Node0&#45;&gt;Node13 -->
<g id="edge30" class="edge">
<title>Node0&#45;&gt;Node13</title>
<path fill="none" stroke="#191970" d="M808.969,-358.3426C791.2807,-333.4468 744.9945,-264.4442 726,-199 721.6399,-183.9776 720.5029,-166.27 720.3942,-152.9803"/>
<polygon fill="#191970" stroke="#191970" points="723.8979,-152.6552 720.5081,-142.6173 716.8983,-152.5782 723.8979,-152.6552"/>
</g>
<!-- Node24 -->
<g id="node25" class="node">
<title>Node24</title>
<g id="a_node25"><a xlink:href="assertion_8hpp.html" target="_top" xlink:title="utils/assertion.hpp">
<polygon fill="#ffffff" stroke="#000000" points="990.5,-302.5 990.5,-321.5 1097.5,-321.5 1097.5,-302.5 990.5,-302.5"/>
<text text-anchor="middle" x="1044" y="-309.5" font-family="Helvetica,sans-Serif" font-size="10.00" fill="#000000">utils/assertion.hpp</text>
</a>
</g>
</g>
<!-- Node0&#45;&gt;Node24 -->
<g id="edge31" class="edge">
<title>Node0&#45;&gt;Node24</title>
<path fill="none" stroke="#191970" d="M854.9355,-358.4369C893.792,-348.8932 953.593,-334.2052 995.5089,-323.9101"/>
<polygon fill="#191970" stroke="#191970" points="996.3486,-327.308 1005.2251,-321.5237 994.6788,-320.51 996.3486,-327.308"/>
</g>
<!-- Node6&#45;&gt;Node2 -->
<g id="edge7" class="edge">
<title>Node6&#45;&gt;Node2</title>
<path fill="none" stroke="#191970" d="M274.6433,-240.9581C226.6243,-230.1406 148.299,-212.4959 96.455,-200.8168"/>
<polygon fill="#191970" stroke="#191970" points="96.9808,-197.3476 86.4561,-198.5643 95.4424,-204.1765 96.9808,-197.3476"/>
</g>
<!-- Node7 -->
<g id="node8" class="node">
<title>Node7</title>
<polygon fill="#ffffff" stroke="#bfbfbf" points="189.5,-179.5 189.5,-198.5 236.5,-198.5 236.5,-179.5 189.5,-179.5"/>
<text text-anchor="middle" x="213" y="-186.5" font-family="Helvetica,sans-Serif" font-size="10.00" fill="#000000">deque</text>
</g>
<!-- Node6&#45;&gt;Node7 -->
<g id="edge8" class="edge">
<title>Node6&#45;&gt;Node7</title>
<path fill="none" stroke="#191970" d="M300.75,-240.8906C283.8831,-230.9165 257.2901,-215.1908 237.7965,-203.6633"/>
<polygon fill="#191970" stroke="#191970" points="239.5251,-200.6194 229.1359,-198.5419 235.962,-206.6447 239.5251,-200.6194"/>
</g>
<!-- Node8 -->
<g id="node9" class="node">
<title>Node8</title>
<polygon fill="#ffffff" stroke="#bfbfbf" points="106.5,-179.5 106.5,-198.5 171.5,-198.5 171.5,-179.5 106.5,-179.5"/>
<text text-anchor="middle" x="139" y="-186.5" font-family="Helvetica,sans-Serif" font-size="10.00" fill="#000000">functional</text>
</g>
<!-- Node6&#45;&gt;Node8 -->
<g id="edge9" class="edge">
<title>Node6&#45;&gt;Node8</title>
<path fill="none" stroke="#191970" d="M289.1875,-240.8906C258.7517,-230.3749 209.8123,-213.466 176.1174,-201.8243"/>
<polygon fill="#191970" stroke="#191970" points="177.212,-198.4995 166.6172,-198.5419 174.926,-205.1157 177.212,-198.4995"/>
</g>
<!-- Node9 -->
<g id="node10" class="node">
<title>Node9</title>
<polygon fill="#ffffff" stroke="#bfbfbf" points="423,-123.5 423,-142.5 481,-142.5 481,-123.5 423,-123.5"/>
<text text-anchor="middle" x="452" y="-130.5" font-family="Helvetica,sans-Serif" font-size="10.00" fill="#000000">memory</text>
</g>
<!-- Node6&#45;&gt;Node9 -->
<g id="edge10" class="edge">
<title>Node6&#45;&gt;Node9</title>
<path fill="none" stroke="#191970" d="M325.891,-240.7782C339.0809,-226.568 364.8764,-199.5802 389,-179 401.7676,-168.1078 416.9368,-156.9819 429.1907,-148.4008"/>
<polygon fill="#191970" stroke="#191970" points="431.2862,-151.2072 437.5222,-142.642 427.3059,-145.4489 431.2862,-151.2072"/>
</g>
<!-- Node10 -->
<g id="node11" class="node">
<title>Node10</title>
<polygon fill="#ffffff" stroke="#bfbfbf" points="293,-179.5 293,-198.5 341,-198.5 341,-179.5 293,-179.5"/>
<text text-anchor="middle" x="317" y="-186.5" font-family="Helvetica,sans-Serif" font-size="10.00" fill="#000000">mutex</text>
</g>
<!-- Node6&#45;&gt;Node10 -->
<g id="edge11" class="edge">
<title>Node6&#45;&gt;Node10</title>
<path fill="none" stroke="#191970" d="M317,-240.8906C317,-232.3657 317,-219.6392 317,-208.9235"/>
<polygon fill="#191970" stroke="#191970" points="320.5001,-208.7448 317,-198.7449 313.5001,-208.7449 320.5001,-208.7448"/>
</g>
<!-- Node11 -->
<g id="node12" class="node">
<title>Node11</title>
<polygon fill="#ffffff" stroke="#bfbfbf" points="341,-.5 341,-19.5 385,-19.5 385,-.5 341,-.5"/>
<text text-anchor="middle" x="363" y="-7.5" font-family="Helvetica,sans-Serif" font-size="10.00" fill="#000000">string</text>
</g>
<!-- Node6&#45;&gt;Node11 -->
<g id="edge12" class="edge">
<title>Node6&#45;&gt;Node11</title>
<path fill="none" stroke="#191970" d="M307.8846,-240.7068C276.2053,-206.1398 174.1975,-90.092 200,-56 215.7376,-35.2065 287.9184,-21.1442 330.7715,-14.4677"/>
<polygon fill="#191970" stroke="#191970" points="331.3588,-17.9188 340.7253,-12.9673 330.3153,-10.997 331.3588,-17.9188"/>
</g>
<!-- Node12 -->
<g id="node13" class="node">
<title>Node12</title>
<g id="a_node13"><a xlink:href="Logger_8hpp.html" target="_top" xlink:title="logging/Logger.hpp">
<polygon fill="#ffffff" stroke="#000000" points="397.5,-179.5 397.5,-198.5 506.5,-198.5 506.5,-179.5 397.5,-179.5"/>
<text text-anchor="middle" x="452" y="-186.5" font-family="Helvetica,sans-Serif" font-size="10.00" fill="#000000">logging/Logger.hpp</text>
</a>
</g>
</g>
<!-- Node6&#45;&gt;Node12 -->
<g id="edge13" class="edge">
<title>Node6&#45;&gt;Node12</title>
<path fill="none" stroke="#191970" d="M338.0938,-240.8906C360.5827,-230.6457 396.3918,-214.3326 421.8524,-202.7339"/>
<polygon fill="#191970" stroke="#191970" points="423.4052,-205.8727 431.0544,-198.5419 420.5032,-199.5025 423.4052,-205.8727"/>
</g>
<!-- Node12&#45;&gt;Node9 -->
<g id="edge14" class="edge">
<title>Node12&#45;&gt;Node9</title>
<path fill="none" stroke="#191970" d="M452,-179.2455C452,-171.9382 452,-161.6944 452,-152.7046"/>
<polygon fill="#191970" stroke="#191970" points="455.5001,-152.6426 452,-142.6427 448.5001,-152.6427 455.5001,-152.6426"/>
</g>
<!-- Node12&#45;&gt;Node11 -->
<g id="edge15" class="edge">
<title>Node12&#45;&gt;Node11</title>
<path fill="none" stroke="#191970" d="M397.2938,-183.2872C339.3905,-173.9954 250.7301,-149.7737 209,-87 177.6616,-39.8583 276.9606,-20.3261 330.7692,-13.3525"/>
<polygon fill="#191970" stroke="#191970" points="331.3693,-16.8053 340.8722,-12.1207 330.5221,-9.8567 331.3693,-16.8053"/>
</g>
<!-- Node12&#45;&gt;Node13 -->
<g id="edge16" class="edge">
<title>Node12&#45;&gt;Node13</title>
<path fill="none" stroke="#191970" d="M497.9371,-179.4369C544.5453,-169.7341 616.6952,-154.714 666.2448,-144.3989"/>
<polygon fill="#191970" stroke="#191970" points="667.0714,-147.8019 676.1482,-142.3372 665.6447,-140.9488 667.0714,-147.8019"/>
</g>
<!-- Node13&#45;&gt;Node11 -->
<g id="edge23" class="edge">
<title>Node13&#45;&gt;Node11</title>
<path fill="none" stroke="#191970" d="M676.1971,-126.8221C639.2315,-120.4674 586.1933,-108.3945 544,-87 524.5603,-77.143 525.1511,-66.4066 506,-56 470.3337,-36.619 425.1755,-23.8008 395.2522,-16.7294"/>
<polygon fill="#191970" stroke="#191970" points="395.8721,-13.2809 385.3439,-14.4665 394.3135,-20.1052 395.8721,-13.2809"/>
</g>
<!-- Node14 -->
<g id="node15" class="node">
<title>Node14</title>
<polygon fill="#ffffff" stroke="#bfbfbf" points="949,-56.5 949,-86.5 1059,-86.5 1059,-56.5 949,-56.5"/>
<text text-anchor="start" x="957" y="-74.5" font-family="Helvetica,sans-Serif" font-size="10.00" fill="#000000">boost/preprocessor</text>
<text text-anchor="middle" x="1004" y="-63.5" font-family="Helvetica,sans-Serif" font-size="10.00" fill="#000000">/control/if.hpp</text>
</g>
<!-- Node13&#45;&gt;Node14 -->
<g id="edge17" class="edge">
<title>Node13&#45;&gt;Node14</title>
<path fill="none" stroke="#191970" d="M765.5473,-124.0586C807.6958,-115.5058 872.984,-102.0184 938.7398,-87.2498"/>
<polygon fill="#191970" stroke="#191970" points="939.8822,-90.5801 948.8671,-84.9657 938.3421,-83.7516 939.8822,-90.5801"/>
</g>
<!-- Node15 -->
<g id="node16" class="node">
<title>Node15</title>
<polygon fill="#ffffff" stroke="#bfbfbf" points="553,-56.5 553,-86.5 669,-86.5 669,-56.5 553,-56.5"/>
<text text-anchor="start" x="561" y="-74.5" font-family="Helvetica,sans-Serif" font-size="10.00" fill="#000000">boost/preprocessor</text>
<text text-anchor="middle" x="611" y="-63.5" font-family="Helvetica,sans-Serif" font-size="10.00" fill="#000000">/facilities/empty.hpp</text>
</g>
<!-- Node13&#45;&gt;Node15 -->
<g id="edge18" class="edge">
<title>Node13&#45;&gt;Node15</title>
<path fill="none" stroke="#191970" d="M703.8125,-123.3906C688.5807,-114.8747 665.8497,-102.166 646.696,-91.4573"/>
<polygon fill="#191970" stroke="#191970" points="648.3455,-88.3697 637.909,-86.5446 644.9295,-94.4796 648.3455,-88.3697"/>
</g>
<!-- Node16 -->
<g id="node17" class="node">
<title>Node16</title>
<polygon fill="#ffffff" stroke="#bfbfbf" points="1115.5,-56.5 1115.5,-86.5 1226.5,-86.5 1226.5,-56.5 1115.5,-56.5"/>
<text text-anchor="start" x="1123.5" y="-74.5" font-family="Helvetica,sans-Serif" font-size="10.00" fill="#000000">boost/preprocessor</text>
<text text-anchor="middle" x="1171" y="-63.5" font-family="Helvetica,sans-Serif" font-size="10.00" fill="#000000">/seq/for_each_i.hpp</text>
</g>
<!-- Node13&#45;&gt;Node16 -->
<g id="edge19" class="edge">
<title>Node13&#45;&gt;Node16</title>
<path fill="none" stroke="#191970" d="M765.6775,-127.3323C831.7868,-118.888 959.5425,-102.3483 1068,-87 1080.0298,-85.2976 1092.8399,-83.4212 1105.192,-81.5793"/>
<polygon fill="#191970" stroke="#191970" points="1106.062,-84.9881 1115.4329,-80.0448 1105.0246,-78.0654 1106.062,-84.9881"/>
</g>
<!-- Node17 -->
<g id="node18" class="node">
<title>Node17</title>
<polygon fill="#ffffff" stroke="#bfbfbf" points="1245,-56.5 1245,-86.5 1355,-86.5 1355,-56.5 1245,-56.5"/>
<text text-anchor="start" x="1253" y="-74.5" font-family="Helvetica,sans-Serif" font-size="10.00" fill="#000000">boost/preprocessor</text>
<text text-anchor="middle" x="1300" y="-63.5" font-family="Helvetica,sans-Serif" font-size="10.00" fill="#000000">/stringize.hpp</text>
</g>
<!-- Node13&#45;&gt;Node17 -->
<g id="edge20" class="edge">
<title>Node13&#45;&gt;Node17</title>
<path fill="none" stroke="#191970" d="M765.7129,-131.2426C853.7505,-127.3 1055.827,-115.8645 1234.8222,-87.0361"/>
<polygon fill="#191970" stroke="#191970" points="1235.6433,-90.4484 1244.9484,-85.3823 1234.515,-83.5399 1235.6433,-90.4484"/>
</g>
<!-- Node18 -->
<g id="node19" class="node">
<title>Node18</title>
<polygon fill="#ffffff" stroke="#bfbfbf" points="1423.5,-56.5 1423.5,-86.5 1538.5,-86.5 1538.5,-56.5 1423.5,-56.5"/>
<text text-anchor="start" x="1431.5" y="-74.5" font-family="Helvetica,sans-Serif" font-size="10.00" fill="#000000">boost/preprocessor</text>
<text text-anchor="middle" x="1481" y="-63.5" font-family="Helvetica,sans-Serif" font-size="10.00" fill="#000000">/variadic/to_seq.hpp</text>
</g>
<!-- Node13&#45;&gt;Node18 -->
<g id="edge21" class="edge">
<title>Node13&#45;&gt;Node18</title>
<path fill="none" stroke="#191970" d="M765.5143,-130.7421C870.1105,-125.2343 1139.6489,-109.8649 1364,-87 1380.0368,-85.3656 1397.2665,-83.2719 1413.4415,-81.1556"/>
<polygon fill="#191970" stroke="#191970" points="1413.9041,-84.625 1423.3563,-79.8388 1412.9825,-77.6859 1413.9041,-84.625"/>
</g>
<!-- Node19 -->
<g id="node20" class="node">
<title>Node19</title>
<polygon fill="#ffffff" stroke="#bfbfbf" points="687,-62 687,-81 823,-81 823,-62 687,-62"/>
<text text-anchor="middle" x="755" y="-69" font-family="Helvetica,sans-Serif" font-size="10.00" fill="#000000">boost/vmd/is_empty.hpp</text>
</g>
<!-- Node13&#45;&gt;Node19 -->
<g id="edge22" class="edge">
<title>Node13&#45;&gt;Node19</title>
<path fill="none" stroke="#191970" d="M726.3125,-123.3906C731.2239,-114.5068 738.6579,-101.0601 744.7275,-90.0811"/>
<polygon fill="#191970" stroke="#191970" points="747.8373,-91.6899 749.6126,-81.2449 741.7112,-88.3031 747.8373,-91.6899"/>
</g>
<!-- Node20 -->
<g id="node21" class="node">
<title>Node20</title>
<g id="a_node21"><a xlink:href="Tracer_8hpp.html" target="_top" xlink:title="logging/Tracer.hpp">
<polygon fill="#ffffff" stroke="#000000" points="229.5,-62 229.5,-81 334.5,-81 334.5,-62 229.5,-62"/>
<text text-anchor="middle" x="282" y="-69" font-family="Helvetica,sans-Serif" font-size="10.00" fill="#000000">logging/Tracer.hpp</text>
</a>
</g>
</g>
<!-- Node13&#45;&gt;Node20 -->
<g id="edge24" class="edge">
<title>Node13&#45;&gt;Node20</title>
<path fill="none" stroke="#191970" d="M676.4036,-127.0427C666.0942,-125.6903 655.1674,-124.2769 645,-123 511.3189,-106.2116 476.5057,-111.3869 344,-87 338.4759,-85.9833 332.7119,-84.7626 327.0191,-83.4583"/>
<polygon fill="#191970" stroke="#191970" points="327.4554,-79.9641 316.916,-81.0462 325.8298,-86.7728 327.4554,-79.9641"/>
</g>
<!-- Node21 -->
<g id="node22" class="node">
<title>Node21</title>
<polygon fill="#ffffff" stroke="#bfbfbf" points="353,-62 353,-81 497,-81 497,-62 353,-62"/>
<text text-anchor="middle" x="425" y="-69" font-family="Helvetica,sans-Serif" font-size="10.00" fill="#000000">prettyprint/prettyprint.hpp</text>
</g>
<!-- Node13&#45;&gt;Node21 -->
<g id="edge26" class="edge">
<title>Node13&#45;&gt;Node21</title>
<path fill="none" stroke="#191970" d="M676.3653,-123.7262C624.1069,-112.8685 537.5067,-94.8755 480.8429,-83.1025"/>
<polygon fill="#191970" stroke="#191970" points="481.4769,-79.6596 470.974,-81.052 480.0529,-86.5132 481.4769,-79.6596"/>
</g>
<!-- Node22 -->
<g id="node23" class="node">
<title>Node22</title>
<g id="a_node23"><a xlink:href="String_8hpp.html" target="_top" xlink:title="utils/String.hpp">
<polygon fill="#ffffff" stroke="#000000" points="841,-62 841,-81 931,-81 931,-62 841,-62"/>
<text text-anchor="middle" x="886" y="-69" font-family="Helvetica,sans-Serif" font-size="10.00" fill="#000000">utils/String.hpp</text>
</a>
</g>
</g>
<!-- Node13&#45;&gt;Node22 -->
<g id="edge27" class="edge">
<title>Node13&#45;&gt;Node22</title>
<path fill="none" stroke="#191970" d="M746.7813,-123.3906C774.752,-112.9652 819.5819,-96.2559 850.786,-84.6252"/>
<polygon fill="#191970" stroke="#191970" points="852.2519,-87.8141 860.3998,-81.0419 849.8071,-81.2549 852.2519,-87.8141"/>
</g>
<!-- Node20&#45;&gt;Node12 -->
<g id="edge25" class="edge">
<title>Node20&#45;&gt;Node12</title>
<path fill="none" stroke="#191970" d="M296.104,-81.2484C325.6619,-101.6781 394.2965,-149.1167 429.8154,-173.6665"/>
<polygon fill="#191970" stroke="#191970" points="427.8718,-176.5778 438.0882,-179.3845 431.8519,-170.8194 427.8718,-176.5778"/>
</g>
<!-- Node22&#45;&gt;Node11 -->
<g id="edge29" class="edge">
<title>Node22&#45;&gt;Node11</title>
<path fill="none" stroke="#191970" d="M856.525,-61.992C848.628,-59.7334 840.0476,-57.5364 832,-56 669.9998,-25.0717 472.3194,-14.3289 395.6026,-11.1593"/>
<polygon fill="#191970" stroke="#191970" points="395.3112,-7.6451 385.1801,-10.7451 395.0332,-14.6395 395.3112,-7.6451"/>
</g>
<!-- Node23 -->
<g id="node24" class="node">
<title>Node23</title>
<polygon fill="#ffffff" stroke="#bfbfbf" points="1211,-.5 1211,-19.5 1267,-19.5 1267,-.5 1211,-.5"/>
<text text-anchor="middle" x="1239" y="-7.5" font-family="Helvetica,sans-Serif" font-size="10.00" fill="#000000">sstream</text>
</g>
<!-- Node22&#45;&gt;Node23 -->
<g id="edge28" class="edge">
<title>Node22&#45;&gt;Node23</title>
<path fill="none" stroke="#191970" d="M916.6687,-61.9672C924.2472,-59.814 932.3786,-57.673 940,-56 1032.723,-35.6461 1143.5664,-21.1025 1200.7186,-14.3111"/>
<polygon fill="#191970" stroke="#191970" points="1201.2252,-17.7758 1210.7489,-13.1336 1200.409,-10.8235 1201.2252,-17.7758"/>
</g>
<!-- Node24&#45;&gt;Node14 -->
<g id="edge36" class="edge">
<title>Node24&#45;&gt;Node14</title>
<path fill="none" stroke="#191970" d="M1031.2752,-302.2466C1021.4593,-293.8582 1008.6367,-280.7955 1003,-266 981.1715,-208.7029 990.8112,-134.8362 998.2609,-96.73"/>
<polygon fill="#191970" stroke="#191970" points="1001.7703,-97.043 1000.3707,-86.541 994.9157,-95.6236 1001.7703,-97.043"/>
</g>
<!-- Node24&#45;&gt;Node16 -->
<g id="edge38" class="edge">
<title>Node24&#45;&gt;Node16</title>
<path fill="none" stroke="#191970" d="M1040.5982,-302.2846C1035.9316,-287.4487 1028.8876,-258.404 1036,-235 1054.4025,-174.4455 1108.9781,-121.4817 1142.8387,-93.2256"/>
<polygon fill="#191970" stroke="#191970" points="1145.4371,-95.6223 1150.9663,-86.5846 1141.008,-90.2016 1145.4371,-95.6223"/>
</g>
<!-- Node24&#45;&gt;Node17 -->
<g id="edge39" class="edge">
<title>Node24&#45;&gt;Node17</title>
<path fill="none" stroke="#191970" d="M1058.2458,-302.3377C1071.117,-293.3989 1090.3807,-279.4933 1106,-266 1172.9382,-208.1728 1244.714,-132.0437 1279.1815,-94.486"/>
<polygon fill="#191970" stroke="#191970" points="1282.1799,-96.3934 1286.3435,-86.6509 1277.0132,-91.6705 1282.1799,-96.3934"/>
</g>
<!-- Node24&#45;&gt;Node18 -->
<g id="edge40" class="edge">
<title>Node24&#45;&gt;Node18</title>
<path fill="none" stroke="#191970" d="M1097.5787,-303.2209C1100.7631,-302.7845 1103.9217,-302.3733 1107,-302 1154.3765,-296.2554 1502.6996,-301.1314 1535,-266 1579.7477,-217.3304 1529.2159,-134.7644 1499.5339,-94.693"/>
<polygon fill="#191970" stroke="#191970" points="1502.2165,-92.4382 1493.3827,-86.5888 1496.6407,-96.6703 1502.2165,-92.4382"/>
</g>
<!-- Node24&#45;&gt;Node23 -->
<g id="edge34" class="edge">
<title>Node24&#45;&gt;Node23</title>
<path fill="none" stroke="#191970" d="M1097.5769,-303.2066C1100.7618,-302.7738 1103.921,-302.3672 1107,-302 1206.3935,-290.1451 1473.768,-323.0745 1556,-266 1587.035,-244.4596 1592,-226.7778 1592,-189 1592,-189 1592,-189 1592,-133 1592,-93.5845 1580.5373,-78.2464 1548,-56 1504.6862,-26.3855 1350.335,-15.2595 1277.5323,-11.5916"/>
<polygon fill="#191970" stroke="#191970" points="1277.5626,-8.0891 1267.4056,-11.1033 1277.2253,-15.081 1277.5626,-8.0891"/>
</g>
<!-- Node25 -->
<g id="node26" class="node">
<title>Node25</title>
<polygon fill="#ffffff" stroke="#bfbfbf" points="1045,-241 1045,-260 1097,-260 1097,-241 1045,-241"/>
<text text-anchor="middle" x="1071" y="-248" font-family="Helvetica,sans-Serif" font-size="10.00" fill="#000000">cassert</text>
</g>
<!-- Node24&#45;&gt;Node25 -->
<g id="edge32" class="edge">
<title>Node24&#45;&gt;Node25</title>
<path fill="none" stroke="#191970" d="M1048.2188,-302.3906C1052.0796,-293.5965 1057.9034,-280.3312 1062.6961,-269.4145"/>
<polygon fill="#191970" stroke="#191970" points="1065.9066,-270.8083 1066.7218,-260.2449 1059.4971,-267.9943 1065.9066,-270.8083"/>
</g>
<!-- Node26 -->
<g id="node27" class="node">
<title>Node26</title>
<polygon fill="#ffffff" stroke="#bfbfbf" points="1153,-241 1153,-260 1213,-260 1213,-241 1153,-241"/>
<text text-anchor="middle" x="1183" y="-248" font-family="Helvetica,sans-Serif" font-size="10.00" fill="#000000">iostream</text>
</g>
<!-- Node24&#45;&gt;Node26 -->
<g id="edge33" class="edge">
<title>Node24&#45;&gt;Node26</title>
<path fill="none" stroke="#191970" d="M1065.7188,-302.3906C1088.874,-292.1457 1125.7441,-275.8326 1151.9591,-264.2339"/>
<polygon fill="#191970" stroke="#191970" points="1153.705,-267.2888 1161.4338,-260.0419 1150.8727,-260.8874 1153.705,-267.2888"/>
</g>
<!-- Node27 -->
<g id="node28" class="node">
<title>Node27</title>
<polygon fill="#ffffff" stroke="#bfbfbf" points="1231.5,-241 1231.5,-260 1378.5,-260 1378.5,-241 1231.5,-241"/>
<text text-anchor="middle" x="1305" y="-248" font-family="Helvetica,sans-Serif" font-size="10.00" fill="#000000">boost/current_function.hpp</text>
</g>
<!-- Node24&#45;&gt;Node27 -->
<g id="edge35" class="edge">
<title>Node24&#45;&gt;Node27</title>
<path fill="none" stroke="#191970" d="M1084.4949,-302.4581C1130.3075,-291.6632 1204.9737,-274.0694 1254.5406,-262.3899"/>
<polygon fill="#191970" stroke="#191970" points="1255.4794,-265.7646 1264.4101,-260.0643 1253.8739,-258.9512 1255.4794,-265.7646"/>
</g>
<!-- Node28 -->
<g id="node29" class="node">
<title>Node28</title>
<polygon fill="#ffffff" stroke="#bfbfbf" points="1396.5,-235.5 1396.5,-265.5 1525.5,-265.5 1525.5,-235.5 1396.5,-235.5"/>
<text text-anchor="start" x="1404.5" y="-253.5" font-family="Helvetica,sans-Serif" font-size="10.00" fill="#000000">boost/preprocessor</text>
<text text-anchor="middle" x="1461" y="-242.5" font-family="Helvetica,sans-Serif" font-size="10.00" fill="#000000">/facilities/is_empty.hpp</text>
</g>
<!-- Node24&#45;&gt;Node28 -->
<g id="edge37" class="edge">
<title>Node24&#45;&gt;Node28</title>
<path fill="none" stroke="#191970" d="M1097.5997,-303.3801C1100.7789,-302.9036 1103.9306,-302.4401 1107,-302 1228.4703,-284.5825 1262.1733,-286.9562 1386.2866,-266.2204"/>
<polygon fill="#191970" stroke="#191970" points="1386.8958,-269.6671 1396.174,-264.5519 1385.731,-262.7647 1386.8958,-269.6671"/>
</g>
<!-- Node29 -->
<g id="node30" class="node">
<title>Node29</title>
<g id="a_node30"><a xlink:href="Parallel_8hpp.html" target="_top" xlink:title="Parallel.hpp">
<polygon fill="#ffffff" stroke="#000000" points="784,-241 784,-260 858,-260 858,-241 784,-241"/>
<text text-anchor="middle" x="821" y="-248" font-family="Helvetica,sans-Serif" font-size="10.00" fill="#000000">Parallel.hpp</text>
</a>
</g>
</g>
<!-- Node24&#45;&gt;Node29 -->
<g id="edge41" class="edge">
<title>Node24&#45;&gt;Node29</title>
<path fill="none" stroke="#191970" d="M1009.1563,-302.3906C970.3714,-291.6944 907.6023,-274.3836 865.3441,-262.7294"/>
<polygon fill="#191970" stroke="#191970" points="866.1697,-259.3265 855.5991,-260.0419 864.3087,-266.0746 866.1697,-259.3265"/>
</g>
<!-- Node32 -->
<g id="node33" class="node">
<title>Node32</title>
<g id="a_node33"><a xlink:href="stacktrace_8hpp.html" target="_top" xlink:title="stacktrace.hpp">
<polygon fill="#ffffff" stroke="#000000" points="546.5,-123.5 546.5,-142.5 635.5,-142.5 635.5,-123.5 546.5,-123.5"/>
<text text-anchor="middle" x="591" y="-130.5" font-family="Helvetica,sans-Serif" font-size="10.00" fill="#000000">stacktrace.hpp</text>
</a>
</g>
</g>
<!-- Node24&#45;&gt;Node32 -->
<g id="edge48" class="edge">
<title>Node24&#45;&gt;Node32</title>
<path fill="none" stroke="#191970" d="M990.2914,-305.7418C923.3,-297.4316 812.9496,-281.9386 775,-266 706.279,-237.1375 638.6847,-178.3444 608.0498,-149.5875"/>
<polygon fill="#191970" stroke="#191970" points="610.4055,-146.9977 600.748,-142.6406 605.5805,-152.0692 610.4055,-146.9977"/>
</g>
<!-- Node29&#45;&gt;Node3 -->
<g id="edge42" class="edge">
<title>Node29&#45;&gt;Node3</title>
<path fill="none" stroke="#191970" d="M837.4063,-240.8906C854.4353,-230.9165 881.2841,-215.1908 900.9651,-203.6633"/>
<polygon fill="#191970" stroke="#191970" points="902.849,-206.6161 909.709,-198.5419 899.3112,-200.5759 902.849,-206.6161"/>
</g>
<!-- Node29&#45;&gt;Node9 -->
<g id="edge43" class="edge">
<title>Node29&#45;&gt;Node9</title>
<path fill="none" stroke="#191970" d="M791.1157,-240.984C724.7496,-219.8511 565.109,-169.0171 491.007,-145.4209"/>
<polygon fill="#191970" stroke="#191970" points="491.7277,-141.9773 481.1372,-142.2781 489.6038,-148.6473 491.7277,-141.9773"/>
</g>
<!-- Node29&#45;&gt;Node11 -->
<g id="edge44" class="edge">
<title>Node29&#45;&gt;Node11</title>
<path fill="none" stroke="#191970" d="M829.0902,-240.7851C841.6639,-226.1029 867.1492,-197.9657 893,-179 969.651,-122.7643 1132.9976,-125.3768 1068,-56 1044.7046,-31.1351 530.5771,-14.7754 395.348,-10.8921"/>
<polygon fill="#191970" stroke="#191970" points="395.3078,-7.3896 385.2124,-10.6041 395.1089,-14.3868 395.3078,-7.3896"/>
</g>
<!-- Node29&#45;&gt;Node12 -->
<g id="edge46" class="edge">
<title>Node29&#45;&gt;Node12</title>
<path fill="none" stroke="#191970" d="M783.9294,-244.3216C721.4,-233.9 594.2187,-212.7031 516.7136,-199.7856"/>
<polygon fill="#191970" stroke="#191970" points="517.0242,-196.2892 506.5849,-198.0975 515.8734,-203.1939 517.0242,-196.2892"/>
</g>
<!-- Node30 -->
<g id="node31" class="node">
<title>Node30</title>
<polygon fill="#ffffff" stroke="#bfbfbf" points="797.5,-179.5 797.5,-198.5 844.5,-198.5 844.5,-179.5 797.5,-179.5"/>
<text text-anchor="middle" x="821" y="-186.5" font-family="Helvetica,sans-Serif" font-size="10.00" fill="#000000">vector</text>
</g>
<!-- Node29&#45;&gt;Node30 -->
<g id="edge45" class="edge">
<title>Node29&#45;&gt;Node30</title>
<path fill="none" stroke="#191970" d="M821,-240.8906C821,-232.3657 821,-219.6392 821,-208.9235"/>
<polygon fill="#191970" stroke="#191970" points="824.5001,-208.7448 821,-198.7449 817.5001,-208.7449 824.5001,-208.7448"/>
</g>
<!-- Node31 -->
<g id="node32" class="node">
<title>Node31</title>
<polygon fill="#ffffff" stroke="#bfbfbf" points="735,-179.5 735,-198.5 779,-198.5 779,-179.5 735,-179.5"/>
<text text-anchor="middle" x="757" y="-186.5" font-family="Helvetica,sans-Serif" font-size="10.00" fill="#000000">mpi.h</text>
</g>
<!-- Node29&#45;&gt;Node31 -->
<g id="edge47" class="edge">
<title>Node29&#45;&gt;Node31</title>
<path fill="none" stroke="#191970" d="M811,-240.8906C801.2881,-231.5581 786.3361,-217.1902 774.6259,-205.9374"/>
<polygon fill="#191970" stroke="#191970" points="776.7766,-203.15 767.141,-198.7449 771.9264,-208.1974 776.7766,-203.15"/>
</g>
<!-- Node32&#45;&gt;Node11 -->
<g id="edge49" class="edge">
<title>Node32&#45;&gt;Node11</title>
<path fill="none" stroke="#191970" d="M546.2793,-128.2322C448.7907,-117.7359 225.3721,-93.0794 220,-87 184.8898,-47.2677 278.5177,-24.3597 330.6987,-14.9975"/>
<polygon fill="#191970" stroke="#191970" points="331.5754,-18.3983 340.8377,-13.2544 330.3892,-11.4995 331.5754,-18.3983"/>
</g>
</g>
</svg>
        <g id="navigator" transform="translate(0 0)" fill="#404254">
                <rect fill="#f2f5e9" fill-opacity="0.5" stroke="#606060" stroke-width=".5" x="0" y="0" width="60" height="60"/>
                <use id="zoomplus" xlink:href="#zoomPlus" x="17" y="9" onmousedown="handleZoom(evt,'in')"/>
                <use id="zoomminus" xlink:href="#zoomMin" x="42" y="9" onmousedown="handleZoom(evt,'out')"/>
                <use id="reset" xlink:href="#resetDef" x="30" y="36" onmousedown="handleReset()"/>
                <g id="arrowUp" xlink:href="#dirArrow" transform="translate(30 24)" onmousedown="handlePan(0,-1)">
                  <use xlink:href="#rim" fill="#404040">
                        <set attributeName="fill" to="#808080" begin="arrowUp.mouseover" end="arrowUp.mouseout"/>
                  </use>
                  <path fill="none" stroke="white" stroke-width="1.5" d="M0,-3.0v7 M-2.5,-0.5L0,-3.0L2.5,-0.5"/>
                </g>
                <g id="arrowRight" xlink:href="#dirArrow" transform="rotate(90) translate(36 -43)" onmousedown="handlePan(1,0)">
                  <use xlink:href="#rim" fill="#404040">
                        <set attributeName="fill" to="#808080" begin="arrowRight.mouseover" end="arrowRight.mouseout"/>
                  </use>
                  <path fill="none" stroke="white" stroke-width="1.5" d="M0,-3.0v7 M-2.5,-0.5L0,-3.0L2.5,-0.5"/>
                </g>
                <g id="arrowDown" xlink:href="#dirArrow" transform="rotate(180) translate(-30 -48)" onmousedown="handlePan(0,1)">
                  <use xlink:href="#rim" fill="#404040">
                        <set attributeName="fill" to="#808080" begin="arrowDown.mouseover" end="arrowDown.mouseout"/>
                  </use>
                  <path fill="none" stroke="white" stroke-width="1.5" d="M0,-3.0v7 M-2.5,-0.5L0,-3.0L2.5,-0.5"/>
                </g>
                <g id="arrowLeft" xlink:href="#dirArrow" transform="rotate(270) translate(-36 17)" onmousedown="handlePan(-1,0)">
                  <use xlink:href="#rim" fill="#404040">
                        <set attributeName="fill" to="#808080" begin="arrowLeft.mouseover" end="arrowLeft.mouseout"/>
                  </use>
                  <path fill="none" stroke="white" stroke-width="1.5" d="M0,-3.0v7 M-2.5,-0.5L0,-3.0L2.5,-0.5"/>
                </g>
        </g>
        <svg viewBox="0 0 15 15" width="100%" height="30px" preserveAspectRatio="xMaxYMin meet">
         <g id="arrow_out" transform="scale(0.3 0.3)">
          <a xlink:href="SocketSendQueue_8cpp__incl_org.svg" target="_base">
           <rect id="button" ry="5" rx="5" y="6" x="6" height="38" width="38"
                fill="#f2f5e9" fill-opacity="0.5" stroke="#606060" stroke-width="1.0"/>
           <path id="arrow"
             d="M 11.500037,31.436501 C 11.940474,20.09759 22.043105,11.32322 32.158766,21.979434 L 37.068811,17.246167 C 37.068811,17.246167 37.088388,32 37.088388,32 L 22.160133,31.978069 C 22.160133,31.978069 26.997745,27.140456 26.997745,27.140456 C 18.528582,18.264221 13.291696,25.230495 11.500037,31.436501 z"
             style="fill:#404040;"/>
          </a>
         </g>
        </svg>
</svg>
