<?xml version="1.0" encoding="UTF-8" standalone="no"?>
<!DOCTYPE svg PUBLIC "-//W3C//DTD SVG 1.1//EN"
 "http://www.w3.org/Graphics/SVG/1.1/DTD/svg11.dtd">
<!-- Generated by graphviz version 2.40.1 (20161225.0304)
 -->
<!-- Title: src/com/SocketCommunicationFactory.hpp Pages: 1 -->
<svg width="397pt" height="207pt"
 viewBox="0.00 0.00 396.67 207.00" xmlns="http://www.w3.org/2000/svg" xmlns:xlink="http://www.w3.org/1999/xlink">
<g id="graph0" class="graph" transform="scale(1 1) rotate(0) translate(4 203)">
<title>src/com/SocketCommunicationFactory.hpp</title>
<polygon fill="#ffffff" stroke="transparent" points="-4,4 -4,-203 392.674,-203 392.674,4 -4,4"/>
<!-- Node0 -->
<g id="node1" class="node">
<title>Node0</title>
<polygon fill="#bfbfbf" stroke="#000000" points="62.174,-168.5 62.174,-198.5 230.174,-198.5 230.174,-168.5 62.174,-168.5"/>
<text text-anchor="start" x="70.174" y="-186.5" font-family="Helvetica,sans-Serif" font-size="10.00" fill="#000000">src/com/SocketCommunication</text>
<text text-anchor="middle" x="146.174" y="-175.5" font-family="Helvetica,sans-Serif" font-size="10.00" fill="#000000">Factory.hpp</text>
</g>
<!-- Node1 -->
<g id="node2" class="node">
<title>Node1</title>
<g id="a_node2"><a xlink:href="CommunicationFactory_8hpp.html" target="_top" xlink:title="CommunicationFactory.hpp">
<polygon fill="#ffffff" stroke="#000000" points="147.674,-112.5 147.674,-131.5 296.674,-131.5 296.674,-112.5 147.674,-112.5"/>
<text text-anchor="middle" x="222.174" y="-119.5" font-family="Helvetica,sans-Serif" font-size="10.00" fill="#000000">CommunicationFactory.hpp</text>
</a>
</g>
</g>
<!-- Node0&#45;&gt;Node1 -->
<g id="edge1" class="edge">
<title>Node0&#45;&gt;Node1</title>
<path fill="none" stroke="#191970" d="M164.9605,-168.2977C176.2794,-159.1384 190.6845,-147.4816 202.2086,-138.1562"/>
<polygon fill="#191970" stroke="#191970" points="204.4335,-140.8583 210.0055,-131.8469 200.0301,-135.4167 204.4335,-140.8583"/>
</g>
<!-- Node3 -->
<g id="node4" class="node">
<title>Node3</title>
<polygon fill="#ffffff" stroke="#bfbfbf" points="49.174,-56.5 49.174,-75.5 93.174,-75.5 93.174,-56.5 49.174,-56.5"/>
<text text-anchor="middle" x="71.174" y="-63.5" font-family="Helvetica,sans-Serif" font-size="10.00" fill="#000000">string</text>
</g>
<!-- Node0&#45;&gt;Node3 -->
<g id="edge9" class="edge">
<title>Node0&#45;&gt;Node3</title>
<path fill="none" stroke="#191970" d="M83.9491,-168.4969C50.4241,-159.0198 13.959,-145.9574 4.174,-132 -10.0581,-111.6992 16.1646,-92.261 39.8585,-79.8043"/>
<polygon fill="#191970" stroke="#191970" points="41.6654,-82.8147 49.0599,-75.227 38.5477,-76.5473 41.6654,-82.8147"/>
</g>
<!-- Node4 -->
<g id="node5" class="node">
<title>Node4</title>
<g id="a_node5"><a xlink:href="com_2SharedPointer_8hpp.html" target="_top" xlink:title="com/SharedPointer.hpp">
<polygon fill="#ffffff" stroke="#000000" points="259.674,-56.5 259.674,-75.5 388.674,-75.5 388.674,-56.5 259.674,-56.5"/>
<text text-anchor="middle" x="324.174" y="-63.5" font-family="Helvetica,sans-Serif" font-size="10.00" fill="#000000">com/SharedPointer.hpp</text>
</a>
</g>
</g>
<!-- Node0&#45;&gt;Node4 -->
<g id="edge6" class="edge">
<title>Node0&#45;&gt;Node4</title>
<path fill="none" stroke="#191970" d="M213.4269,-168.4244C250.6328,-158.8239 291.9582,-145.6584 305.174,-132 317.0669,-119.7088 321.5974,-100.4712 323.2822,-85.9301"/>
<polygon fill="#191970" stroke="#191970" points="326.7743,-86.168 324.0907,-75.9187 319.797,-85.6045 326.7743,-86.168"/>
</g>
<!-- Node6 -->
<g id="node7" class="node">
<title>Node6</title>
<g id="a_node7"><a xlink:href="networking_8hpp.html" target="_top" xlink:title="utils/networking.hpp">
<polygon fill="#ffffff" stroke="#000000" points="13.174,-112.5 13.174,-131.5 129.174,-131.5 129.174,-112.5 13.174,-112.5"/>
<text text-anchor="middle" x="71.174" y="-119.5" font-family="Helvetica,sans-Serif" font-size="10.00" fill="#000000">utils/networking.hpp</text>
</a>
</g>
</g>
<!-- Node0&#45;&gt;Node6 -->
<g id="edge7" class="edge">
<title>Node0&#45;&gt;Node6</title>
<path fill="none" stroke="#191970" d="M127.6347,-168.2977C116.5732,-159.2274 102.5249,-147.7077 91.2087,-138.4285"/>
<polygon fill="#191970" stroke="#191970" points="93.1345,-135.4813 83.1825,-131.8469 88.6959,-140.8942 93.1345,-135.4813"/>
</g>
<!-- Node2 -->
<g id="node3" class="node">
<title>Node2</title>
<polygon fill="#ffffff" stroke="#bfbfbf" points="176.674,-56.5 176.674,-75.5 241.674,-75.5 241.674,-56.5 176.674,-56.5"/>
<text text-anchor="middle" x="209.174" y="-63.5" font-family="Helvetica,sans-Serif" font-size="10.00" fill="#000000">stdexcept</text>
</g>
<!-- Node1&#45;&gt;Node2 -->
<g id="edge2" class="edge">
<title>Node1&#45;&gt;Node2</title>
<path fill="none" stroke="#191970" d="M219.9096,-112.2455C218.1946,-104.8579 215.7829,-94.4689 213.6796,-85.4087"/>
<polygon fill="#191970" stroke="#191970" points="217.0832,-84.5922 211.4125,-75.6427 210.2645,-86.1751 217.0832,-84.5922"/>
</g>
<!-- Node1&#45;&gt;Node3 -->
<g id="edge3" class="edge">
<title>Node1&#45;&gt;Node3</title>
<path fill="none" stroke="#191970" d="M196.2162,-112.3733C170.3819,-102.7923 130.6918,-88.0728 102.9786,-77.7951"/>
<polygon fill="#191970" stroke="#191970" points="103.9513,-74.4229 93.3583,-74.2273 101.5172,-80.9861 103.9513,-74.4229"/>
</g>
<!-- Node1&#45;&gt;Node4 -->
<g id="edge4" class="edge">
<title>Node1&#45;&gt;Node4</title>
<path fill="none" stroke="#191970" d="M239.9411,-112.2455C255.8835,-103.4928 279.4999,-90.527 297.6729,-80.5496"/>
<polygon fill="#191970" stroke="#191970" points="299.5292,-83.5233 306.6106,-75.6427 296.1604,-77.3873 299.5292,-83.5233"/>
</g>
<!-- Node5 -->
<g id="node6" class="node">
<title>Node5</title>
<polygon fill="#ffffff" stroke="#bfbfbf" points="295.174,-.5 295.174,-19.5 353.174,-19.5 353.174,-.5 295.174,-.5"/>
<text text-anchor="middle" x="324.174" y="-7.5" font-family="Helvetica,sans-Serif" font-size="10.00" fill="#000000">memory</text>
</g>
<!-- Node4&#45;&gt;Node5 -->
<g id="edge5" class="edge">
<title>Node4&#45;&gt;Node5</title>
<path fill="none" stroke="#191970" d="M324.174,-56.2455C324.174,-48.9382 324.174,-38.6944 324.174,-29.7046"/>
<polygon fill="#191970" stroke="#191970" points="327.6741,-29.6426 324.174,-19.6427 320.6741,-29.6427 327.6741,-29.6426"/>
</g>
<!-- Node6&#45;&gt;Node3 -->
<g id="edge8" class="edge">
<title>Node6&#45;&gt;Node3</title>
<path fill="none" stroke="#191970" d="M71.174,-112.2455C71.174,-104.9382 71.174,-94.6944 71.174,-85.7046"/>
<polygon fill="#191970" stroke="#191970" points="74.6741,-85.6426 71.174,-75.6427 67.6741,-85.6427 74.6741,-85.6426"/>
</g>
</g>
</svg>
