<?xml version="1.0" encoding="UTF-8" standalone="no"?>
<!DOCTYPE svg PUBLIC "-//W3C//DTD SVG 1.1//EN"
 "http://www.w3.org/Graphics/SVG/1.1/DTD/svg11.dtd">
<!-- Generated by graphviz version 2.40.1 (20161225.0304)
 -->
<!-- Title: ExplicitCouplingSchemeFixture::ExplicitCouplingSchemeFixture Pages: 1 -->
<svg width="351pt" height="39pt"
 viewBox="0.00 0.00 351.00 39.00" xmlns="http://www.w3.org/2000/svg" xmlns:xlink="http://www.w3.org/1999/xlink">
<g id="graph0" class="graph" transform="scale(1 1) rotate(0) translate(4 35)">
<title>ExplicitCouplingSchemeFixture::ExplicitCouplingSchemeFixture</title>
<polygon fill="#ffffff" stroke="transparent" points="-4,4 -4,-35 347,-35 347,4 -4,4"/>
<!-- Node0 -->
<g id="node1" class="node">
<title>Node0</title>
<polygon fill="#bfbfbf" stroke="#000000" points="0,-.5 0,-30.5 173,-30.5 173,-.5 0,-.5"/>
<text text-anchor="start" x="8" y="-18.5" font-family="Helvetica,sans-Serif" font-size="10.00" fill="#000000">ExplicitCouplingSchemeFixture</text>
<text text-anchor="middle" x="86.5" y="-7.5" font-family="Helvetica,sans-Serif" font-size="10.00" fill="#000000">::ExplicitCouplingSchemeFixture</text>
</g>
<!-- Node1 -->
<g id="node2" class="node">
<title>Node1</title>
<g id="a_node2"><a xlink:href="namespaceprecice_1_1testing.html#ae1327e613df5bf60b9ff50eb80f9e42e" target="_top" xlink:title="Returns $PRECICE_ROOT/src, the base path to the sources. ">
<polygon fill="#ffffff" stroke="#000000" points="209,-.5 209,-30.5 343,-30.5 343,-.5 209,-.5"/>
<text text-anchor="start" x="217" y="-18.5" font-family="Helvetica,sans-Serif" font-size="10.00" fill="#000000">precice::testing::getPath</text>
<text text-anchor="middle" x="276" y="-7.5" font-family="Helvetica,sans-Serif" font-size="10.00" fill="#000000">ToSources</text>
</a>
</g>
</g>
<!-- Node0&#45;&gt;Node1 -->
<g id="edge1" class="edge">
<title>Node0&#45;&gt;Node1</title>
<path fill="none" stroke="#191970" d="M173.2086,-15.5C181.7307,-15.5 190.3402,-15.5 198.7586,-15.5"/>
<polygon fill="#191970" stroke="#191970" points="198.9139,-19.0001 208.9139,-15.5 198.9138,-12.0001 198.9139,-19.0001"/>
</g>
</g>
</svg>
