<?xml version="1.0" encoding="UTF-8" standalone="no"?>
<!DOCTYPE svg PUBLIC "-//W3C//DTD SVG 1.1//EN"
 "http://www.w3.org/Graphics/SVG/1.1/DTD/svg11.dtd">
<!-- Generated by graphviz version 2.40.1 (20161225.0304)
 -->
<!-- Title: CompositionalCouplingSchemeFixture::connect Pages: 1 -->
<svg width="960pt" height="480pt"
 viewBox="0.00 0.00 960.00 480.00" xmlns="http://www.w3.org/2000/svg" xmlns:xlink="http://www.w3.org/1999/xlink">
<g id="graph0" class="graph" transform="scale(1 1) rotate(0) translate(4 476)">
<title>CompositionalCouplingSchemeFixture::connect</title>
<polygon fill="#ffffff" stroke="transparent" points="-4,4 -4,-476 956,-476 956,4 -4,4"/>
<!-- Node2 -->
<g id="node1" class="node">
<title>Node2</title>
<polygon fill="#bfbfbf" stroke="#000000" points="0,-270 0,-300 153,-300 153,-270 0,-270"/>
<text text-anchor="start" x="8" y="-288" font-family="Helvetica,sans-Serif" font-size="10.00" fill="#000000">CompositionalCouplingScheme</text>
<text text-anchor="middle" x="76.5" y="-277" font-family="Helvetica,sans-Serif" font-size="10.00" fill="#000000">Fixture::connect</text>
</g>
<!-- Node3 -->
<g id="node2" class="node">
<title>Node3</title>
<g id="a_node2"><a xlink:href="RTreeTests_8cpp.html#a9849f5c774ff22e557184d988b1cf9ea" target="_top" xlink:title="BOOST_TEST">
<polygon fill="#ffffff" stroke="#000000" points="227.5,-452.5 227.5,-471.5 309.5,-471.5 309.5,-452.5 227.5,-452.5"/>
<text text-anchor="middle" x="268.5" y="-459.5" font-family="Helvetica,sans-Serif" font-size="10.00" fill="#000000">BOOST_TEST</text>
</a>
</g>
</g>
<!-- Node2&#45;&gt;Node3 -->
<g id="edge1" class="edge">
<title>Node2&#45;&gt;Node3</title>
<path fill="none" stroke="#191970" d="M82.9083,-300.3984C97.0288,-332.3397 134.0009,-405.91 189,-443 197.4711,-448.7127 207.4658,-452.7149 217.457,-455.5169"/>
<polygon fill="#191970" stroke="#191970" points="216.846,-458.9704 227.3904,-457.9378 218.5035,-452.1695 216.846,-458.9704"/>
</g>
<!-- Node4 -->
<g id="node3" class="node">
<title>Node4</title>
<g id="a_node3"><a xlink:href="MPIPortsCommunicationTest_8cpp.html#a5ded28ea5c98cb27bf0cfcf344588d46" target="_top" xlink:title="BOOST_AUTO_TEST_SUITE">
<polygon fill="#ffffff" stroke="#000000" points="193.5,-414.5 193.5,-433.5 343.5,-433.5 343.5,-414.5 193.5,-414.5"/>
<text text-anchor="middle" x="268.5" y="-421.5" font-family="Helvetica,sans-Serif" font-size="10.00" fill="#000000">BOOST_AUTO_TEST_SUITE</text>
</a>
</g>
</g>
<!-- Node2&#45;&gt;Node4 -->
<g id="edge2" class="edge">
<title>Node2&#45;&gt;Node4</title>
<path fill="none" stroke="#191970" d="M86.2689,-300.1957C103.6639,-325.9604 142.5735,-378.0394 189,-405 192.7275,-407.1646 196.6897,-409.0831 200.7784,-410.7833"/>
<polygon fill="#191970" stroke="#191970" points="199.904,-414.1912 210.4974,-414.3675 202.3261,-407.6235 199.904,-414.1912"/>
</g>
<!-- Node5 -->
<g id="node4" class="node">
<title>Node5</title>
<g id="a_node4"><a xlink:href="CompositionalCouplingSchemeTest_8cpp.html#a44f835bc372fa4588af069a718f5f855" target="_top" xlink:title="Test one explicit dummy coupling scheme. ">
<polygon fill="#ffffff" stroke="#000000" points="194.5,-376.5 194.5,-395.5 342.5,-395.5 342.5,-376.5 194.5,-376.5"/>
<text text-anchor="middle" x="268.5" y="-383.5" font-family="Helvetica,sans-Serif" font-size="10.00" fill="#000000">BOOST_AUTO_TEST_CASE</text>
</a>
</g>
</g>
<!-- Node2&#45;&gt;Node5 -->
<g id="edge3" class="edge">
<title>Node2&#45;&gt;Node5</title>
<path fill="none" stroke="#191970" d="M94.912,-300.2576C116.3394,-317.3602 153.3527,-344.9253 189,-362 198.2644,-366.4375 208.5301,-370.2641 218.5221,-373.4759"/>
<polygon fill="#191970" stroke="#191970" points="217.7895,-376.9117 228.3756,-376.4828 219.8326,-370.2164 217.7895,-376.9117"/>
</g>
<!-- Node6 -->
<g id="node5" class="node">
<title>Node6</title>
<g id="a_node5"><a xlink:href="namespaceprecice_1_1cplscheme_1_1constants.html#ae6a2667f9452de16a239be70945c8172" target="_top" xlink:title="precice::cplscheme\l::constants::actionWriteIteration\lCheckpoint">
<polygon fill="#ffffff" stroke="#000000" points="796,-229.5 796,-270.5 952,-270.5 952,-229.5 796,-229.5"/>
<text text-anchor="start" x="804" y="-258.5" font-family="Helvetica,sans-Serif" font-size="10.00" fill="#000000">precice::cplscheme</text>
<text text-anchor="start" x="804" y="-247.5" font-family="Helvetica,sans-Serif" font-size="10.00" fill="#000000">::constants::actionWriteIteration</text>
<text text-anchor="middle" x="874" y="-236.5" font-family="Helvetica,sans-Serif" font-size="10.00" fill="#000000">Checkpoint</text>
</a>
</g>
</g>
<!-- Node2&#45;&gt;Node6 -->
<g id="edge4" class="edge">
<title>Node2&#45;&gt;Node6</title>
<path fill="none" stroke="#191970" d="M126.0021,-300.0955C240.6227,-332.5189 531.8811,-400.3161 760,-329 792.4026,-318.8701 823.692,-295.9365 845.2663,-277.3746"/>
<polygon fill="#191970" stroke="#191970" points="847.8611,-279.7526 853.0413,-270.5105 843.2283,-274.5051 847.8611,-279.7526"/>
</g>
<!-- Node7 -->
<g id="node6" class="node">
<title>Node7</title>
<g id="a_node6"><a xlink:href="namespaceprecice_1_1cplscheme_1_1constants.html#a6ee5e554181352c02568f33215195519" target="_top" xlink:title="precice::cplscheme\l::constants::actionReadIteration\lCheckpoint">
<polygon fill="#ffffff" stroke="#000000" points="598.5,-278.5 598.5,-319.5 754.5,-319.5 754.5,-278.5 598.5,-278.5"/>
<text text-anchor="start" x="606.5" y="-307.5" font-family="Helvetica,sans-Serif" font-size="10.00" fill="#000000">precice::cplscheme</text>
<text text-anchor="start" x="606.5" y="-296.5" font-family="Helvetica,sans-Serif" font-size="10.00" fill="#000000">::constants::actionReadIteration</text>
<text text-anchor="middle" x="676.5" y="-285.5" font-family="Helvetica,sans-Serif" font-size="10.00" fill="#000000">Checkpoint</text>
</a>
</g>
</g>
<!-- Node2&#45;&gt;Node7 -->
<g id="edge5" class="edge">
<title>Node2&#45;&gt;Node7</title>
<path fill="none" stroke="#191970" d="M153.0359,-289.4617C165.0681,-290.0535 177.3695,-290.5946 189,-291 328.5095,-295.8633 490.5825,-297.7807 588.2538,-298.5294"/>
<polygon fill="#191970" stroke="#191970" points="588.3518,-302.0301 598.3776,-298.6046 588.4039,-295.0303 588.3518,-302.0301"/>
</g>
<!-- Node8 -->
<g id="node7" class="node">
<title>Node8</title>
<g id="a_node7"><a xlink:href="classprecice_1_1cplscheme_1_1CompositionalCouplingScheme.html#a145d221676a0ea9129a59327b31db18e" target="_top" xlink:title="Adds another coupling scheme in parallel to this scheme. ">
<polygon fill="#ffffff" stroke="#000000" points="189,-240.5 189,-281.5 348,-281.5 348,-240.5 189,-240.5"/>
<text text-anchor="start" x="197" y="-269.5" font-family="Helvetica,sans-Serif" font-size="10.00" fill="#000000">precice::cplscheme</text>
<text text-anchor="start" x="197" y="-258.5" font-family="Helvetica,sans-Serif" font-size="10.00" fill="#000000">::CompositionalCouplingScheme</text>
<text text-anchor="middle" x="268.5" y="-247.5" font-family="Helvetica,sans-Serif" font-size="10.00" fill="#000000">::addCouplingScheme</text>
</a>
</g>
</g>
<!-- Node2&#45;&gt;Node8 -->
<g id="edge6" class="edge">
<title>Node2&#45;&gt;Node8</title>
<path fill="none" stroke="#191970" d="M153.2112,-275.4111C161.6196,-274.36 170.2339,-273.2833 178.7816,-272.2148"/>
<polygon fill="#191970" stroke="#191970" points="179.2801,-275.6798 188.7688,-270.9664 178.4118,-268.7339 179.2801,-275.6798"/>
</g>
<!-- Node9 -->
<g id="node8" class="node">
<title>Node9</title>
<g id="a_node8"><a xlink:href="classprecice_1_1cplscheme_1_1CompositionalCouplingScheme.html#a1f400f2589fa78f349d3c261e59335c1" target="_top" xlink:title="Initializes the coupling scheme and establishes a communication connection to the coupling partner...">
<polygon fill="#ffffff" stroke="#000000" points="189,-180.5 189,-221.5 348,-221.5 348,-180.5 189,-180.5"/>
<text text-anchor="start" x="197" y="-209.5" font-family="Helvetica,sans-Serif" font-size="10.00" fill="#000000">precice::cplscheme</text>
<text text-anchor="start" x="197" y="-198.5" font-family="Helvetica,sans-Serif" font-size="10.00" fill="#000000">::CompositionalCouplingScheme</text>
<text text-anchor="middle" x="268.5" y="-187.5" font-family="Helvetica,sans-Serif" font-size="10.00" fill="#000000">::initialize</text>
</a>
</g>
</g>
<!-- Node2&#45;&gt;Node9 -->
<g id="edge7" class="edge">
<title>Node2&#45;&gt;Node9</title>
<path fill="none" stroke="#191970" d="M106.258,-269.8459C128.7506,-258.6052 160.5157,-243.1835 189,-231 193.4293,-229.1055 198.0223,-227.2061 202.665,-225.334"/>
<polygon fill="#191970" stroke="#191970" points="204.2239,-228.4809 212.2283,-221.5397 201.6424,-221.9743 204.2239,-228.4809"/>
</g>
<!-- Node12 -->
<g id="node11" class="node">
<title>Node12</title>
<g id="a_node11"><a xlink:href="classprecice_1_1cplscheme_1_1CompositionalCouplingScheme.html#a56fa0aafbd5ed141dbe236adb06c65da" target="_top" xlink:title="Returns true, when the coupled simulation is still ongoing. ">
<polygon fill="#ffffff" stroke="#000000" points="189,-120.5 189,-161.5 348,-161.5 348,-120.5 189,-120.5"/>
<text text-anchor="start" x="197" y="-149.5" font-family="Helvetica,sans-Serif" font-size="10.00" fill="#000000">precice::cplscheme</text>
<text text-anchor="start" x="197" y="-138.5" font-family="Helvetica,sans-Serif" font-size="10.00" fill="#000000">::CompositionalCouplingScheme</text>
<text text-anchor="middle" x="268.5" y="-127.5" font-family="Helvetica,sans-Serif" font-size="10.00" fill="#000000">::isCouplingOngoing</text>
</a>
</g>
</g>
<!-- Node2&#45;&gt;Node12 -->
<g id="edge13" class="edge">
<title>Node2&#45;&gt;Node12</title>
<path fill="none" stroke="#191970" d="M88.0117,-269.6371C106.7533,-245.5783 146.104,-198.8857 189,-171 191.5761,-169.3253 194.2593,-167.7246 197.015,-166.1968"/>
<polygon fill="#191970" stroke="#191970" points="198.729,-169.2511 206.0208,-161.5648 195.5273,-163.0263 198.729,-169.2511"/>
</g>
<!-- Node13 -->
<g id="node12" class="node">
<title>Node13</title>
<g id="a_node12"><a xlink:href="classprecice_1_1cplscheme_1_1CompositionalCouplingScheme.html#a8923cc95ddd9ae24632413e1f8b8dfb6" target="_top" xlink:title="Exchanges data and updates the state of the coupling scheme. ">
<polygon fill="#ffffff" stroke="#000000" points="189,-60.5 189,-101.5 348,-101.5 348,-60.5 189,-60.5"/>
<text text-anchor="start" x="197" y="-89.5" font-family="Helvetica,sans-Serif" font-size="10.00" fill="#000000">precice::cplscheme</text>
<text text-anchor="start" x="197" y="-78.5" font-family="Helvetica,sans-Serif" font-size="10.00" fill="#000000">::CompositionalCouplingScheme</text>
<text text-anchor="middle" x="268.5" y="-67.5" font-family="Helvetica,sans-Serif" font-size="10.00" fill="#000000">::advance</text>
</a>
</g>
</g>
<!-- Node2&#45;&gt;Node13 -->
<g id="edge14" class="edge">
<title>Node2&#45;&gt;Node13</title>
<path fill="none" stroke="#191970" d="M82.3587,-269.8993C96.0238,-236.5609 133.1454,-156.0607 189,-111 190.7725,-109.5701 192.6203,-108.2035 194.5278,-106.8978"/>
<polygon fill="#191970" stroke="#191970" points="196.5367,-109.7715 203.2266,-101.5559 192.8735,-103.8065 196.5367,-109.7715"/>
</g>
<!-- Node15 -->
<g id="node14" class="node">
<title>Node15</title>
<g id="a_node14"><a xlink:href="classprecice_1_1cplscheme_1_1CompositionalCouplingScheme.html#a3c8ac4fbe0245cede1e257c34d83f8e6" target="_top" xlink:title="Finalizes the coupling and disconnects communication. ">
<polygon fill="#ffffff" stroke="#000000" points="189,-.5 189,-41.5 348,-41.5 348,-.5 189,-.5"/>
<text text-anchor="start" x="197" y="-29.5" font-family="Helvetica,sans-Serif" font-size="10.00" fill="#000000">precice::cplscheme</text>
<text text-anchor="start" x="197" y="-18.5" font-family="Helvetica,sans-Serif" font-size="10.00" fill="#000000">::CompositionalCouplingScheme</text>
<text text-anchor="middle" x="268.5" y="-7.5" font-family="Helvetica,sans-Serif" font-size="10.00" fill="#000000">::finalize</text>
</a>
</g>
</g>
<!-- Node2&#45;&gt;Node15 -->
<g id="edge17" class="edge">
<title>Node2&#45;&gt;Node15</title>
<path fill="none" stroke="#191970" d="M79.6582,-269.7898C88.9593,-228.6773 120.0389,-114.1886 189,-51 190.3086,-49.8009 191.6698,-48.6483 193.0757,-47.5405"/>
<polygon fill="#191970" stroke="#191970" points="195.3279,-50.2384 201.5628,-41.6724 191.3469,-44.4806 195.3279,-50.2384"/>
</g>
<!-- Node10 -->
<g id="node9" class="node">
<title>Node10</title>
<g id="a_node9"><a xlink:href="classprecice_1_1cplscheme_1_1CompositionalCouplingScheme.html#a69d66f1a0dc05e6ae74f158542cf8fe8" target="_top" xlink:title="Determines the current set of active coupling schemes. ">
<polygon fill="#ffffff" stroke="#000000" points="384,-180.5 384,-221.5 557,-221.5 557,-180.5 384,-180.5"/>
<text text-anchor="start" x="392" y="-209.5" font-family="Helvetica,sans-Serif" font-size="10.00" fill="#000000">precice::cplscheme</text>
<text text-anchor="start" x="392" y="-198.5" font-family="Helvetica,sans-Serif" font-size="10.00" fill="#000000">::CompositionalCouplingScheme</text>
<text text-anchor="middle" x="470.5" y="-187.5" font-family="Helvetica,sans-Serif" font-size="10.00" fill="#000000">::determineActiveCouplingSchemes</text>
</a>
</g>
</g>
<!-- Node9&#45;&gt;Node10 -->
<g id="edge8" class="edge">
<title>Node9&#45;&gt;Node10</title>
<path fill="none" stroke="#191970" d="M348.0458,-201C356.4572,-201 365.0768,-201 373.6564,-201"/>
<polygon fill="#191970" stroke="#191970" points="373.6948,-204.5001 383.6947,-201 373.6947,-197.5001 373.6948,-204.5001"/>
</g>
<!-- Node10&#45;&gt;Node6 -->
<g id="edge9" class="edge">
<title>Node10&#45;&gt;Node6</title>
<path fill="none" stroke="#191970" d="M545.5634,-221.5484C561.1447,-225.2019 577.5294,-228.601 593,-231 657.0236,-240.928 730.0509,-245.6688 785.6096,-247.9324"/>
<polygon fill="#191970" stroke="#191970" points="785.646,-251.4364 795.7743,-248.3269 785.9176,-244.4416 785.646,-251.4364"/>
</g>
<!-- Node10&#45;&gt;Node7 -->
<g id="edge10" class="edge">
<title>Node10&#45;&gt;Node7</title>
<path fill="none" stroke="#191970" d="M508.7389,-221.6411C532.7101,-234.3362 564.3849,-250.6694 593,-264 600.3946,-267.4448 608.2228,-270.9314 616.0048,-274.3012"/>
<polygon fill="#191970" stroke="#191970" points="614.8717,-277.6233 625.4421,-278.343 617.6276,-271.1887 614.8717,-277.6233"/>
</g>
<!-- Node11 -->
<g id="node10" class="node">
<title>Node11</title>
<g id="a_node10"><a xlink:href="classprecice_1_1cplscheme_1_1CompositionalCouplingScheme.html#a4181a7d671462ed53726008af01150a1" target="_top" xlink:title="Advances the active set of coupling schemes. ">
<polygon fill="#ffffff" stroke="#000000" points="593,-180.5 593,-221.5 760,-221.5 760,-180.5 593,-180.5"/>
<text text-anchor="start" x="601" y="-209.5" font-family="Helvetica,sans-Serif" font-size="10.00" fill="#000000">precice::cplscheme</text>
<text text-anchor="start" x="601" y="-198.5" font-family="Helvetica,sans-Serif" font-size="10.00" fill="#000000">::CompositionalCouplingScheme</text>
<text text-anchor="middle" x="676.5" y="-187.5" font-family="Helvetica,sans-Serif" font-size="10.00" fill="#000000">::advanceActiveCouplingSchemes</text>
</a>
</g>
</g>
<!-- Node10&#45;&gt;Node11 -->
<g id="edge11" class="edge">
<title>Node10&#45;&gt;Node11</title>
<path fill="none" stroke="#191970" d="M557.2655,-201C565.63,-201 574.1411,-201 582.5704,-201"/>
<polygon fill="#191970" stroke="#191970" points="582.7966,-204.5001 592.7966,-201 582.7966,-197.5001 582.7966,-204.5001"/>
</g>
<!-- Node11&#45;&gt;Node6 -->
<g id="edge12" class="edge">
<title>Node11&#45;&gt;Node6</title>
<path fill="none" stroke="#191970" d="M759.3993,-221.5674C768.1429,-223.7367 777.0567,-225.9482 785.8568,-228.1316"/>
<polygon fill="#191970" stroke="#191970" points="785.1804,-231.5698 795.7289,-230.5808 786.866,-224.7758 785.1804,-231.5698"/>
</g>
<!-- Node13&#45;&gt;Node10 -->
<g id="edge15" class="edge">
<title>Node13&#45;&gt;Node10</title>
<path fill="none" stroke="#191970" d="M328.3378,-101.5422C335.0918,-104.4567 341.7765,-107.6224 348,-111 380.7821,-128.7914 414.7055,-154.3704 438.5178,-173.7151"/>
<polygon fill="#191970" stroke="#191970" points="436.5521,-176.63 446.5004,-180.2746 440.9963,-171.2217 436.5521,-176.63"/>
</g>
<!-- Node14 -->
<g id="node13" class="node">
<title>Node14</title>
<g id="a_node13"><a xlink:href="classprecice_1_1cplscheme_1_1CompositionalCouplingScheme.html#aed3db51571c982fb9f898dd44945e024" target="_top" xlink:title="Adds newly computed time. Has to be called before every advance. ">
<polygon fill="#ffffff" stroke="#000000" points="391,-60.5 391,-101.5 550,-101.5 550,-60.5 391,-60.5"/>
<text text-anchor="start" x="399" y="-89.5" font-family="Helvetica,sans-Serif" font-size="10.00" fill="#000000">precice::cplscheme</text>
<text text-anchor="start" x="399" y="-78.5" font-family="Helvetica,sans-Serif" font-size="10.00" fill="#000000">::CompositionalCouplingScheme</text>
<text text-anchor="middle" x="470.5" y="-67.5" font-family="Helvetica,sans-Serif" font-size="10.00" fill="#000000">::addComputedTime</text>
</a>
</g>
</g>
<!-- Node13&#45;&gt;Node14 -->
<g id="edge16" class="edge">
<title>Node13&#45;&gt;Node14</title>
<path fill="none" stroke="#191970" d="M348.0458,-81C358.6714,-81 369.6291,-81 380.4187,-81"/>
<polygon fill="#191970" stroke="#191970" points="380.6954,-84.5001 390.6954,-81 380.6954,-77.5001 380.6954,-84.5001"/>
</g>
</g>
</svg>
