<?xml version="1.0" encoding="UTF-8" standalone="no"?>
<!DOCTYPE svg PUBLIC "-//W3C//DTD SVG 1.1//EN"
 "http://www.w3.org/Graphics/SVG/1.1/DTD/svg11.dtd">
<!-- Generated by graphviz version 2.40.1 (20161225.0304)
 -->
<!-- Title: precice::query::InterpolationElement Pages: 1 -->
<svg width="161pt" height="106pt"
 viewBox="0.00 0.00 161.00 106.00" xmlns="http://www.w3.org/2000/svg" xmlns:xlink="http://www.w3.org/1999/xlink">
<g id="graph0" class="graph" transform="scale(1 1) rotate(0) translate(4 102)">
<title>precice::query::InterpolationElement</title>
<polygon fill="#ffffff" stroke="transparent" points="-4,4 -4,-102 157,-102 157,4 -4,4"/>
<!-- Node1 -->
<g id="node1" class="node">
<title>Node1</title>
<polygon fill="#bfbfbf" stroke="#000000" points="0,-.5 0,-30.5 153,-30.5 153,-.5 0,-.5"/>
<text text-anchor="start" x="8" y="-18.5" font-family="Helvetica,sans-Serif" font-size="10.00" fill="#000000">precice::query::Interpolation</text>
<text text-anchor="middle" x="76.5" y="-7.5" font-family="Helvetica,sans-Serif" font-size="10.00" fill="#000000">Element</text>
</g>
<!-- Node2 -->
<g id="node2" class="node">
<title>Node2</title>
<g id="a_node2"><a xlink:href="classprecice_1_1mesh_1_1Vertex.html" target="_top" xlink:title="Vertex of a mesh. ">
<polygon fill="#ffffff" stroke="#000000" points="15.5,-78.5 15.5,-97.5 137.5,-97.5 137.5,-78.5 15.5,-78.5"/>
<text text-anchor="middle" x="76.5" y="-85.5" font-family="Helvetica,sans-Serif" font-size="10.00" fill="#000000">precice::mesh::Vertex</text>
</a>
</g>
</g>
<!-- Node2&#45;&gt;Node1 -->
<g id="edge1" class="edge">
<title>Node2&#45;&gt;Node1</title>
<path fill="none" stroke="#9a32cd" stroke-dasharray="5,2" d="M76.5,-68.0177C76.5,-56.2164 76.5,-41.513 76.5,-30.668"/>
<polygon fill="#9a32cd" stroke="#9a32cd" points="73.0001,-68.2223 76.5,-78.2223 80.0001,-68.2224 73.0001,-68.2223"/>
<text text-anchor="middle" x="98.5" y="-52" font-family="Helvetica,sans-Serif" font-size="10.00" fill="#000000"> element</text>
</g>
</g>
</svg>
