<?xml version="1.0" encoding="UTF-8" standalone="no"?>
<!DOCTYPE svg PUBLIC "-//W3C//DTD SVG 1.1//EN"
 "http://www.w3.org/Graphics/SVG/1.1/DTD/svg11.dtd">
<!-- Generated by graphviz version 2.40.1 (20161225.0304)
 -->
<!-- Title: precice::query::InterpolationElement::InterpolationElement Pages: 1 -->
<svg width="501pt" height="39pt"
 viewBox="0.00 0.00 501.00 39.00" xmlns="http://www.w3.org/2000/svg" xmlns:xlink="http://www.w3.org/1999/xlink">
<g id="graph0" class="graph" transform="scale(1 1) rotate(0) translate(4 35)">
<title>precice::query::InterpolationElement::InterpolationElement</title>
<polygon fill="#ffffff" stroke="transparent" points="-4,4 -4,-35 497,-35 497,4 -4,4"/>
<!-- Node2 -->
<g id="node1" class="node">
<title>Node2</title>
<polygon fill="#bfbfbf" stroke="#000000" points="0,-.5 0,-30.5 148,-30.5 148,-.5 0,-.5"/>
<text text-anchor="start" x="8" y="-18.5" font-family="Helvetica,sans-Serif" font-size="10.00" fill="#000000">precice::query::Interpolation</text>
<text text-anchor="middle" x="74" y="-7.5" font-family="Helvetica,sans-Serif" font-size="10.00" fill="#000000">Element::InterpolationElement</text>
</g>
<!-- Node3 -->
<g id="node2" class="node">
<title>Node3</title>
<g id="a_node2"><a xlink:href="namespaceprecice_1_1mesh.html#ac9eb0be9c8594184b6dc6d8ac8c9e427" target="_top" xlink:title="precice::mesh::operator\&lt;\&lt;">
<polygon fill="#ffffff" stroke="#000000" points="184,-6 184,-25 315,-25 315,-6 184,-6"/>
<text text-anchor="middle" x="249.5" y="-13" font-family="Helvetica,sans-Serif" font-size="10.00" fill="#000000">precice::mesh::operator&lt;&lt;</text>
</a>
</g>
</g>
<!-- Node2&#45;&gt;Node3 -->
<g id="edge1" class="edge">
<title>Node2&#45;&gt;Node3</title>
<path fill="none" stroke="#191970" d="M148.1734,-15.5C156.62,-15.5 165.2386,-15.5 173.7059,-15.5"/>
<polygon fill="#191970" stroke="#191970" points="173.9373,-19.0001 183.9373,-15.5 173.9372,-12.0001 173.9373,-19.0001"/>
</g>
<!-- Node4 -->
<g id="node3" class="node">
<title>Node4</title>
<g id="a_node3"><a xlink:href="classprecice_1_1mesh_1_1BoundingBox.html#a162ff398c9a95bea24f447668b32b3cd" target="_top" xlink:title="Print bounds of bounding box, output operator overload. ">
<polygon fill="#ffffff" stroke="#000000" points="351,-.5 351,-30.5 493,-30.5 493,-.5 351,-.5"/>
<text text-anchor="start" x="359" y="-18.5" font-family="Helvetica,sans-Serif" font-size="10.00" fill="#000000">precice::mesh::BoundingBox</text>
<text text-anchor="middle" x="422" y="-7.5" font-family="Helvetica,sans-Serif" font-size="10.00" fill="#000000">::print</text>
</a>
</g>
</g>
<!-- Node3&#45;&gt;Node4 -->
<g id="edge2" class="edge">
<title>Node3&#45;&gt;Node4</title>
<path fill="none" stroke="#191970" d="M315.2069,-15.5C323.4651,-15.5 331.99,-15.5 340.4543,-15.5"/>
<polygon fill="#191970" stroke="#191970" points="340.7269,-19.0001 350.7268,-15.5 340.7268,-12.0001 340.7269,-19.0001"/>
</g>
</g>
</svg>
