<?xml version="1.0" encoding="UTF-8" standalone="no"?>
<!DOCTYPE svg PUBLIC "-//W3C//DTD SVG 1.1//EN"
 "http://www.w3.org/Graphics/SVG/1.1/DTD/svg11.dtd">
<!-- Generated by graphviz version 2.40.1 (20161225.0304)
 -->
<!-- Title: precice::acceleration::AccelerationConfiguration::ConfigurationData Pages: 1 -->
<svg width="321pt" height="196pt"
 viewBox="0.00 0.00 321.00 196.00" xmlns="http://www.w3.org/2000/svg" xmlns:xlink="http://www.w3.org/1999/xlink">
<g id="graph0" class="graph" transform="scale(1 1) rotate(0) translate(4 192)">
<title>precice::acceleration::AccelerationConfiguration::ConfigurationData</title>
<polygon fill="#ffffff" stroke="transparent" points="-4,4 -4,-192 317,-192 317,4 -4,4"/>
<!-- Node1 -->
<g id="node1" class="node">
<title>Node1</title>
<polygon fill="#bfbfbf" stroke="#000000" points="91,-.5 91,-41.5 225,-41.5 225,-.5 91,-.5"/>
<text text-anchor="start" x="99" y="-29.5" font-family="Helvetica,sans-Serif" font-size="10.00" fill="#000000">precice::acceleration</text>
<text text-anchor="start" x="99" y="-18.5" font-family="Helvetica,sans-Serif" font-size="10.00" fill="#000000">::AccelerationConfiguration</text>
<text text-anchor="middle" x="158" y="-7.5" font-family="Helvetica,sans-Serif" font-size="10.00" fill="#000000">::ConfigurationData</text>
</g>
<!-- Node2 -->
<g id="node2" class="node">
<title>Node2</title>
<polygon fill="#ffffff" stroke="#bfbfbf" points="0,-100.5 0,-119.5 118,-119.5 118,-100.5 0,-100.5"/>
<text text-anchor="middle" x="59" y="-107.5" font-family="Helvetica,sans-Serif" font-size="10.00" fill="#000000">std::map&lt; int, double &gt;</text>
</g>
<!-- Node2&#45;&gt;Node1 -->
<g id="edge1" class="edge">
<title>Node2&#45;&gt;Node1</title>
<path fill="none" stroke="#9a32cd" stroke-dasharray="5,2" d="M77.008,-93.5246C87.723,-83.7477 101.6031,-71.1283 114,-60 120.6846,-53.9995 127.9728,-47.5159 134.6596,-41.5905"/>
<polygon fill="#9a32cd" stroke="#9a32cd" points="74.5312,-91.0467 69.5082,-100.3752 79.2522,-96.2151 74.5312,-91.0467"/>
<text text-anchor="middle" x="134" y="-68.5" font-family="Helvetica,sans-Serif" font-size="10.00" fill="#000000"> scalings</text>
</g>
<!-- Node3 -->
<g id="node3" class="node">
<title>Node3</title>
<g id="a_node3"><a xlink:title="STL class. ">
<polygon fill="#ffffff" stroke="#bfbfbf" points="136,-100.5 136,-119.5 196,-119.5 196,-100.5 136,-100.5"/>
<text text-anchor="middle" x="166" y="-107.5" font-family="Helvetica,sans-Serif" font-size="10.00" fill="#000000">std::string</text>
</a>
</g>
</g>
<!-- Node3&#45;&gt;Node1 -->
<g id="edge2" class="edge">
<title>Node3&#45;&gt;Node1</title>
<path fill="none" stroke="#9a32cd" stroke-dasharray="5,2" d="M160.5341,-90.556C159.9099,-87.7063 159.3669,-84.7914 159,-82 157.2471,-68.6632 156.9873,-53.5464 157.1706,-41.6979"/>
<polygon fill="#9a32cd" stroke="#9a32cd" points="157.1417,-91.4176 162.9818,-100.2575 163.929,-89.7051 157.1417,-91.4176"/>
<text text-anchor="middle" x="202" y="-74" font-family="Helvetica,sans-Serif" font-size="10.00" fill="#000000"> preconditionerType</text>
<text text-anchor="middle" x="202" y="-63" font-family="Helvetica,sans-Serif" font-size="10.00" fill="#000000">type</text>
</g>
<!-- Node4 -->
<g id="node4" class="node">
<title>Node4</title>
<g id="a_node4"><a xlink:title="STL class. ">
<polygon fill="#ffffff" stroke="#bfbfbf" points="118.5,-157.5 118.5,-187.5 213.5,-187.5 213.5,-157.5 118.5,-157.5"/>
<text text-anchor="start" x="126.5" y="-175.5" font-family="Helvetica,sans-Serif" font-size="10.00" fill="#000000">std::basic_string&lt;</text>
<text text-anchor="middle" x="166" y="-164.5" font-family="Helvetica,sans-Serif" font-size="10.00" fill="#000000"> char &gt;</text>
</a>
</g>
</g>
<!-- Node4&#45;&gt;Node3 -->
<g id="edge3" class="edge">
<title>Node4&#45;&gt;Node3</title>
<path fill="none" stroke="#191970" d="M166,-147.3498C166,-137.6481 166,-127.1303 166,-119.7356"/>
<polygon fill="#191970" stroke="#191970" points="162.5001,-147.3705 166,-157.3705 169.5001,-147.3705 162.5001,-147.3705"/>
</g>
<!-- Node5 -->
<g id="node5" class="node">
<title>Node5</title>
<polygon fill="#ffffff" stroke="#bfbfbf" points="221,-100.5 221,-119.5 313,-119.5 313,-100.5 221,-100.5"/>
<text text-anchor="middle" x="267" y="-107.5" font-family="Helvetica,sans-Serif" font-size="10.00" fill="#000000">std::vector&lt; int &gt;</text>
</g>
<!-- Node5&#45;&gt;Node1 -->
<g id="edge4" class="edge">
<title>Node5&#45;&gt;Node1</title>
<path fill="none" stroke="#9a32cd" stroke-dasharray="5,2" d="M262.1502,-90.6524C258.7672,-80.4689 253.3326,-68.3904 245,-60 237.7685,-52.7183 228.9368,-46.6762 219.7041,-41.7002"/>
<polygon fill="#9a32cd" stroke="#9a32cd" points="258.8154,-91.7197 264.9683,-100.3448 265.5371,-89.7652 258.8154,-91.7197"/>
<text text-anchor="middle" x="277" y="-68.5" font-family="Helvetica,sans-Serif" font-size="10.00" fill="#000000"> dataIDs</text>
</g>
</g>
</svg>
