<?xml version="1.0" encoding="UTF-8" standalone="no"?>
<!DOCTYPE svg PUBLIC "-//W3C//DTD SVG 1.1//EN"
 "http://www.w3.org/Graphics/SVG/1.1/DTD/svg11.dtd">
<!-- Generated by graphviz version 2.40.1 (20161225.0304)
 -->
<!-- Title: CompositionalCouplingSchemeFixture::connect Pages: 1 -->
<svg width="1042pt" height="480pt"
 viewBox="0.00 0.00 1042.00 480.00" xmlns="http://www.w3.org/2000/svg" xmlns:xlink="http://www.w3.org/1999/xlink">
<g id="graph0" class="graph" transform="scale(1 1) rotate(0) translate(4 476)">
<title>CompositionalCouplingSchemeFixture::connect</title>
<polygon fill="#ffffff" stroke="transparent" points="-4,4 -4,-476 1038,-476 1038,4 -4,4"/>
<!-- Node2 -->
<g id="node1" class="node">
<title>Node2</title>
<polygon fill="#bfbfbf" stroke="#000000" points="0,-270 0,-300 169,-300 169,-270 0,-270"/>
<text text-anchor="start" x="8" y="-288" font-family="Helvetica,sans-Serif" font-size="10.00" fill="#000000">CompositionalCouplingScheme</text>
<text text-anchor="middle" x="84.5" y="-277" font-family="Helvetica,sans-Serif" font-size="10.00" fill="#000000">Fixture::connect</text>
</g>
<!-- Node3 -->
<g id="node2" class="node">
<title>Node3</title>
<g id="a_node2"><a xlink:href="RTreeTests_8cpp.html#a9849f5c774ff22e557184d988b1cf9ea" target="_top" xlink:title="BOOST_TEST">
<polygon fill="#ffffff" stroke="#000000" points="252.5,-452.5 252.5,-471.5 332.5,-471.5 332.5,-452.5 252.5,-452.5"/>
<text text-anchor="middle" x="292.5" y="-459.5" font-family="Helvetica,sans-Serif" font-size="10.00" fill="#000000">BOOST_TEST</text>
</a>
</g>
</g>
<!-- Node2&#45;&gt;Node3 -->
<g id="edge1" class="edge">
<title>Node2&#45;&gt;Node3</title>
<path fill="none" stroke="#191970" d="M91.3781,-300.0104C106.8009,-331.8719 147.3662,-406.3398 205,-443 216.0741,-450.0441 229.361,-454.5085 242.1967,-457.3286"/>
<polygon fill="#191970" stroke="#191970" points="241.8655,-460.8282 252.343,-459.2556 243.1717,-453.9511 241.8655,-460.8282"/>
</g>
<!-- Node4 -->
<g id="node3" class="node">
<title>Node4</title>
<g id="a_node3"><a xlink:href="MPIPortsCommunicationTest_8cpp.html#a5ded28ea5c98cb27bf0cfcf344588d46" target="_top" xlink:title="BOOST_AUTO_TEST_SUITE">
<polygon fill="#ffffff" stroke="#000000" points="219.5,-414.5 219.5,-433.5 365.5,-433.5 365.5,-414.5 219.5,-414.5"/>
<text text-anchor="middle" x="292.5" y="-421.5" font-family="Helvetica,sans-Serif" font-size="10.00" fill="#000000">BOOST_AUTO_TEST_SUITE</text>
</a>
</g>
</g>
<!-- Node2&#45;&gt;Node4 -->
<g id="edge2" class="edge">
<title>Node2&#45;&gt;Node4</title>
<path fill="none" stroke="#191970" d="M95.1709,-300.2844C114.1158,-326.1832 156.2513,-378.4588 205,-405 209.2153,-407.295 213.6865,-409.3128 218.2906,-411.0868"/>
<polygon fill="#191970" stroke="#191970" points="217.2938,-414.4453 227.8885,-414.3967 219.576,-407.8277 217.2938,-414.4453"/>
</g>
<!-- Node5 -->
<g id="node4" class="node">
<title>Node5</title>
<g id="a_node4"><a xlink:href="CompositionalCouplingSchemeTest_8cpp.html#a44f835bc372fa4588af069a718f5f855" target="_top" xlink:title="Test one explicit dummy coupling scheme. ">
<polygon fill="#ffffff" stroke="#000000" points="221,-376.5 221,-395.5 364,-395.5 364,-376.5 221,-376.5"/>
<text text-anchor="middle" x="292.5" y="-383.5" font-family="Helvetica,sans-Serif" font-size="10.00" fill="#000000">BOOST_AUTO_TEST_CASE</text>
</a>
</g>
</g>
<!-- Node2&#45;&gt;Node5 -->
<g id="edge3" class="edge">
<title>Node2&#45;&gt;Node5</title>
<path fill="none" stroke="#191970" d="M103.9157,-300.0366C126.9009,-317.1948 166.885,-345.0632 205,-362 215.2496,-366.5545 226.5666,-370.4321 237.5644,-373.657"/>
<polygon fill="#191970" stroke="#191970" points="236.9623,-377.1225 247.5348,-376.4358 238.8417,-370.3795 236.9623,-377.1225"/>
</g>
<!-- Node6 -->
<g id="node5" class="node">
<title>Node6</title>
<g id="a_node5"><a xlink:href="namespaceprecice_1_1cplscheme_1_1constants.html#ae6a2667f9452de16a239be70945c8172" target="_top" xlink:title="precice::cplscheme\l::constants::actionWriteIteration\lCheckpoint">
<polygon fill="#ffffff" stroke="#000000" points="861,-229.5 861,-270.5 1034,-270.5 1034,-229.5 861,-229.5"/>
<text text-anchor="start" x="869" y="-258.5" font-family="Helvetica,sans-Serif" font-size="10.00" fill="#000000">precice::cplscheme</text>
<text text-anchor="start" x="869" y="-247.5" font-family="Helvetica,sans-Serif" font-size="10.00" fill="#000000">::constants::actionWriteIteration</text>
<text text-anchor="middle" x="947.5" y="-236.5" font-family="Helvetica,sans-Serif" font-size="10.00" fill="#000000">Checkpoint</text>
</a>
</g>
</g>
<!-- Node2&#45;&gt;Node6 -->
<g id="edge4" class="edge">
<title>Node2&#45;&gt;Node6</title>
<path fill="none" stroke="#191970" d="M137.0472,-300.1009C260.2384,-332.9531 576.0663,-402.3074 825,-329 859.5273,-318.8322 893.5017,-295.5771 916.8798,-276.9155"/>
<polygon fill="#191970" stroke="#191970" points="919.1601,-279.5721 924.6906,-270.5352 914.7317,-274.1509 919.1601,-279.5721"/>
</g>
<!-- Node7 -->
<g id="node6" class="node">
<title>Node7</title>
<g id="a_node6"><a xlink:href="namespaceprecice_1_1cplscheme_1_1constants.html#a6ee5e554181352c02568f33215195519" target="_top" xlink:title="precice::cplscheme\l::constants::actionReadIteration\lCheckpoint">
<polygon fill="#ffffff" stroke="#000000" points="648.5,-278.5 648.5,-319.5 819.5,-319.5 819.5,-278.5 648.5,-278.5"/>
<text text-anchor="start" x="656.5" y="-307.5" font-family="Helvetica,sans-Serif" font-size="10.00" fill="#000000">precice::cplscheme</text>
<text text-anchor="start" x="656.5" y="-296.5" font-family="Helvetica,sans-Serif" font-size="10.00" fill="#000000">::constants::actionReadIteration</text>
<text text-anchor="middle" x="734" y="-285.5" font-family="Helvetica,sans-Serif" font-size="10.00" fill="#000000">Checkpoint</text>
</a>
</g>
</g>
<!-- Node2&#45;&gt;Node7 -->
<g id="edge5" class="edge">
<title>Node2&#45;&gt;Node7</title>
<path fill="none" stroke="#191970" d="M169.0835,-289.5825C181.1364,-290.1274 193.3811,-290.623 205,-291 356.4095,-295.9129 532.2961,-297.816 638.2757,-298.5483"/>
<polygon fill="#191970" stroke="#191970" points="638.2871,-302.0483 648.3104,-298.6156 638.3341,-295.0485 638.2871,-302.0483"/>
</g>
<!-- Node8 -->
<g id="node7" class="node">
<title>Node8</title>
<g id="a_node7"><a xlink:href="classprecice_1_1cplscheme_1_1CompositionalCouplingScheme.html#a145d221676a0ea9129a59327b31db18e" target="_top" xlink:title="Adds another coupling scheme in parallel to this scheme. ">
<polygon fill="#ffffff" stroke="#000000" points="205,-240.5 205,-281.5 380,-281.5 380,-240.5 205,-240.5"/>
<text text-anchor="start" x="213" y="-269.5" font-family="Helvetica,sans-Serif" font-size="10.00" fill="#000000">precice::cplscheme</text>
<text text-anchor="start" x="213" y="-258.5" font-family="Helvetica,sans-Serif" font-size="10.00" fill="#000000">::CompositionalCouplingScheme</text>
<text text-anchor="middle" x="292.5" y="-247.5" font-family="Helvetica,sans-Serif" font-size="10.00" fill="#000000">::addCouplingScheme</text>
</a>
</g>
</g>
<!-- Node2&#45;&gt;Node8 -->
<g id="edge6" class="edge">
<title>Node2&#45;&gt;Node8</title>
<path fill="none" stroke="#191970" d="M169.1016,-275.2383C177.5897,-274.2589 186.2566,-273.2589 194.8651,-272.2656"/>
<polygon fill="#191970" stroke="#191970" points="195.3969,-275.7275 204.9298,-271.1043 194.5945,-268.7737 195.3969,-275.7275"/>
</g>
<!-- Node9 -->
<g id="node8" class="node">
<title>Node9</title>
<g id="a_node8"><a xlink:href="classprecice_1_1cplscheme_1_1CompositionalCouplingScheme.html#a1f400f2589fa78f349d3c261e59335c1" target="_top" xlink:title="Initializes the coupling scheme and establishes a communication connection to the coupling partner...">
<polygon fill="#ffffff" stroke="#000000" points="205,-180.5 205,-221.5 380,-221.5 380,-180.5 205,-180.5"/>
<text text-anchor="start" x="213" y="-209.5" font-family="Helvetica,sans-Serif" font-size="10.00" fill="#000000">precice::cplscheme</text>
<text text-anchor="start" x="213" y="-198.5" font-family="Helvetica,sans-Serif" font-size="10.00" fill="#000000">::CompositionalCouplingScheme</text>
<text text-anchor="middle" x="292.5" y="-187.5" font-family="Helvetica,sans-Serif" font-size="10.00" fill="#000000">::initialize</text>
</a>
</g>
</g>
<!-- Node2&#45;&gt;Node9 -->
<g id="edge7" class="edge">
<title>Node2&#45;&gt;Node9</title>
<path fill="none" stroke="#191970" d="M115.8789,-269.9932C140.0037,-258.6872 174.2921,-243.1158 205,-231 210.0417,-229.0108 215.2748,-227.0247 220.5613,-225.0754"/>
<polygon fill="#191970" stroke="#191970" points="221.8976,-228.3139 230.1048,-221.6138 219.5107,-221.7334 221.8976,-228.3139"/>
</g>
<!-- Node12 -->
<g id="node11" class="node">
<title>Node12</title>
<g id="a_node11"><a xlink:href="classprecice_1_1cplscheme_1_1CompositionalCouplingScheme.html#a56fa0aafbd5ed141dbe236adb06c65da" target="_top" xlink:title="Returns true, when the coupled simulation is still ongoing. ">
<polygon fill="#ffffff" stroke="#000000" points="205,-120.5 205,-161.5 380,-161.5 380,-120.5 205,-120.5"/>
<text text-anchor="start" x="213" y="-149.5" font-family="Helvetica,sans-Serif" font-size="10.00" fill="#000000">precice::cplscheme</text>
<text text-anchor="start" x="213" y="-138.5" font-family="Helvetica,sans-Serif" font-size="10.00" fill="#000000">::CompositionalCouplingScheme</text>
<text text-anchor="middle" x="292.5" y="-127.5" font-family="Helvetica,sans-Serif" font-size="10.00" fill="#000000">::isCouplingOngoing</text>
</a>
</g>
</g>
<!-- Node2&#45;&gt;Node12 -->
<g id="edge13" class="edge">
<title>Node2&#45;&gt;Node12</title>
<path fill="none" stroke="#191970" d="M96.6456,-269.9204C116.7846,-245.8295 159.4131,-198.5741 205,-171 207.9758,-169.2001 211.0742,-167.4899 214.2534,-165.8674"/>
<polygon fill="#191970" stroke="#191970" points="215.8619,-168.9781 223.3913,-161.5244 212.8571,-162.6558 215.8619,-168.9781"/>
</g>
<!-- Node13 -->
<g id="node12" class="node">
<title>Node13</title>
<g id="a_node12"><a xlink:href="classprecice_1_1cplscheme_1_1CompositionalCouplingScheme.html#a8923cc95ddd9ae24632413e1f8b8dfb6" target="_top" xlink:title="Exchanges data and updates the state of the coupling scheme. ">
<polygon fill="#ffffff" stroke="#000000" points="205,-60.5 205,-101.5 380,-101.5 380,-60.5 205,-60.5"/>
<text text-anchor="start" x="213" y="-89.5" font-family="Helvetica,sans-Serif" font-size="10.00" fill="#000000">precice::cplscheme</text>
<text text-anchor="start" x="213" y="-78.5" font-family="Helvetica,sans-Serif" font-size="10.00" fill="#000000">::CompositionalCouplingScheme</text>
<text text-anchor="middle" x="292.5" y="-67.5" font-family="Helvetica,sans-Serif" font-size="10.00" fill="#000000">::advance</text>
</a>
</g>
</g>
<!-- Node2&#45;&gt;Node13 -->
<g id="edge14" class="edge">
<title>Node2&#45;&gt;Node13</title>
<path fill="none" stroke="#191970" d="M90.9751,-269.7779C106.0154,-236.1941 146.5402,-155.2296 205,-111 206.873,-109.5829 208.8175,-108.2299 210.8193,-106.9381"/>
<polygon fill="#191970" stroke="#191970" points="213.0257,-109.7045 219.9191,-101.6588 209.5129,-103.6497 213.0257,-109.7045"/>
</g>
<!-- Node15 -->
<g id="node14" class="node">
<title>Node15</title>
<g id="a_node14"><a xlink:href="classprecice_1_1cplscheme_1_1CompositionalCouplingScheme.html#a3c8ac4fbe0245cede1e257c34d83f8e6" target="_top" xlink:title="Finalizes the coupling and disconnects communication. ">
<polygon fill="#ffffff" stroke="#000000" points="205,-.5 205,-41.5 380,-41.5 380,-.5 205,-.5"/>
<text text-anchor="start" x="213" y="-29.5" font-family="Helvetica,sans-Serif" font-size="10.00" fill="#000000">precice::cplscheme</text>
<text text-anchor="start" x="213" y="-18.5" font-family="Helvetica,sans-Serif" font-size="10.00" fill="#000000">::CompositionalCouplingScheme</text>
<text text-anchor="middle" x="292.5" y="-7.5" font-family="Helvetica,sans-Serif" font-size="10.00" fill="#000000">::finalize</text>
</a>
</g>
</g>
<!-- Node2&#45;&gt;Node15 -->
<g id="edge17" class="edge">
<title>Node2&#45;&gt;Node15</title>
<path fill="none" stroke="#191970" d="M88.0364,-269.9606C98.4861,-228.7843 133.0931,-113.1539 205,-51 206.5035,-49.7004 208.0661,-48.4564 209.6786,-47.2656"/>
<polygon fill="#191970" stroke="#191970" points="211.6639,-50.1493 218.1139,-41.744 207.8301,-44.2924 211.6639,-50.1493"/>
</g>
<!-- Node10 -->
<g id="node9" class="node">
<title>Node10</title>
<g id="a_node9"><a xlink:href="classprecice_1_1cplscheme_1_1CompositionalCouplingScheme.html#a69d66f1a0dc05e6ae74f158542cf8fe8" target="_top" xlink:title="Determines the current set of active coupling schemes. ">
<polygon fill="#ffffff" stroke="#000000" points="416,-180.5 416,-221.5 607,-221.5 607,-180.5 416,-180.5"/>
<text text-anchor="start" x="424" y="-209.5" font-family="Helvetica,sans-Serif" font-size="10.00" fill="#000000">precice::cplscheme</text>
<text text-anchor="start" x="424" y="-198.5" font-family="Helvetica,sans-Serif" font-size="10.00" fill="#000000">::CompositionalCouplingScheme</text>
<text text-anchor="middle" x="511.5" y="-187.5" font-family="Helvetica,sans-Serif" font-size="10.00" fill="#000000">::determineActiveCouplingSchemes</text>
</a>
</g>
</g>
<!-- Node9&#45;&gt;Node10 -->
<g id="edge8" class="edge">
<title>Node9&#45;&gt;Node10</title>
<path fill="none" stroke="#191970" d="M380.3138,-201C388.6047,-201 397.0684,-201 405.5043,-201"/>
<polygon fill="#191970" stroke="#191970" points="405.767,-204.5001 415.767,-201 405.7669,-197.5001 405.767,-204.5001"/>
</g>
<!-- Node10&#45;&gt;Node6 -->
<g id="edge9" class="edge">
<title>Node10&#45;&gt;Node6</title>
<path fill="none" stroke="#191970" d="M592.1346,-221.5606C608.8564,-225.2132 626.4289,-228.6088 643,-231 712.0088,-240.9577 790.5589,-245.6986 850.5922,-247.9547"/>
<polygon fill="#191970" stroke="#191970" points="850.7007,-251.4608 860.8199,-248.3219 850.9519,-244.4653 850.7007,-251.4608"/>
</g>
<!-- Node10&#45;&gt;Node7 -->
<g id="edge10" class="edge">
<title>Node10&#45;&gt;Node7</title>
<path fill="none" stroke="#191970" d="M552.2782,-221.5696C578.0535,-234.3129 612.1977,-250.723 643,-264 651.3332,-267.592 660.1669,-271.2144 668.9261,-274.697"/>
<polygon fill="#191970" stroke="#191970" points="667.787,-278.0099 678.3742,-278.4131 670.3492,-271.4957 667.787,-278.0099"/>
</g>
<!-- Node11 -->
<g id="node10" class="node">
<title>Node11</title>
<g id="a_node10"><a xlink:href="classprecice_1_1cplscheme_1_1CompositionalCouplingScheme.html#a4181a7d671462ed53726008af01150a1" target="_top" xlink:title="Advances the active set of coupling schemes. ">
<polygon fill="#ffffff" stroke="#000000" points="643,-180.5 643,-221.5 825,-221.5 825,-180.5 643,-180.5"/>
<text text-anchor="start" x="651" y="-209.5" font-family="Helvetica,sans-Serif" font-size="10.00" fill="#000000">precice::cplscheme</text>
<text text-anchor="start" x="651" y="-198.5" font-family="Helvetica,sans-Serif" font-size="10.00" fill="#000000">::CompositionalCouplingScheme</text>
<text text-anchor="middle" x="734" y="-187.5" font-family="Helvetica,sans-Serif" font-size="10.00" fill="#000000">::advanceActiveCouplingSchemes</text>
</a>
</g>
</g>
<!-- Node10&#45;&gt;Node11 -->
<g id="edge11" class="edge">
<title>Node10&#45;&gt;Node11</title>
<path fill="none" stroke="#191970" d="M607.1513,-201C615.525,-201 624.0189,-201 632.4383,-201"/>
<polygon fill="#191970" stroke="#191970" points="632.658,-204.5001 642.658,-201 632.658,-197.5001 632.658,-204.5001"/>
</g>
<!-- Node11&#45;&gt;Node6 -->
<g id="edge12" class="edge">
<title>Node11&#45;&gt;Node6</title>
<path fill="none" stroke="#191970" d="M823.6152,-221.5674C832.6659,-223.6446 841.8854,-225.7606 851.0041,-227.8534"/>
<polygon fill="#191970" stroke="#191970" points="850.317,-231.2866 860.8465,-230.1123 851.8829,-224.464 850.317,-231.2866"/>
</g>
<!-- Node13&#45;&gt;Node10 -->
<g id="edge15" class="edge">
<title>Node13&#45;&gt;Node10</title>
<path fill="none" stroke="#191970" d="M358.7469,-101.5668C366.0365,-104.4598 373.2545,-107.6138 380,-111 415.0971,-128.6185 451.7042,-154.3707 477.3552,-173.819"/>
<polygon fill="#191970" stroke="#191970" points="475.5505,-176.8456 485.6162,-180.152 479.8093,-171.2902 475.5505,-176.8456"/>
</g>
<!-- Node14 -->
<g id="node13" class="node">
<title>Node14</title>
<g id="a_node13"><a xlink:href="classprecice_1_1cplscheme_1_1CompositionalCouplingScheme.html#aed3db51571c982fb9f898dd44945e024" target="_top" xlink:title="Adds newly computed time. Has to be called before every advance. ">
<polygon fill="#ffffff" stroke="#000000" points="424,-60.5 424,-101.5 599,-101.5 599,-60.5 424,-60.5"/>
<text text-anchor="start" x="432" y="-89.5" font-family="Helvetica,sans-Serif" font-size="10.00" fill="#000000">precice::cplscheme</text>
<text text-anchor="start" x="432" y="-78.5" font-family="Helvetica,sans-Serif" font-size="10.00" fill="#000000">::CompositionalCouplingScheme</text>
<text text-anchor="middle" x="511.5" y="-67.5" font-family="Helvetica,sans-Serif" font-size="10.00" fill="#000000">::addComputedTime</text>
</a>
</g>
</g>
<!-- Node13&#45;&gt;Node14 -->
<g id="edge16" class="edge">
<title>Node13&#45;&gt;Node14</title>
<path fill="none" stroke="#191970" d="M380.3138,-81C391.2468,-81 402.4803,-81 413.5544,-81"/>
<polygon fill="#191970" stroke="#191970" points="413.6665,-84.5001 423.6665,-81 413.6665,-77.5001 413.6665,-84.5001"/>
</g>
</g>
</svg>
