<?xml version="1.0" encoding="UTF-8" standalone="no"?>
<!DOCTYPE svg PUBLIC "-//W3C//DTD SVG 1.1//EN"
 "http://www.w3.org/Graphics/SVG/1.1/DTD/svg11.dtd">
<!-- Generated by graphviz version 2.40.1 (20161225.0304)
 -->
<!-- Title: src/io/TXTReader.cpp Pages: 1 -->
<!--zoomable 319 -->
<svg id="main" version="1.1" xmlns="http://www.w3.org/2000/svg" xmlns:xlink="http://www.w3.org/1999/xlink" xml:space="preserve" onload="init(evt)">
<style type="text/css"><![CDATA[
.edge:hover path { stroke: red; }
.edge:hover polygon { stroke: red; fill: red; }
]]></style>
<script type="text/javascript"><![CDATA[
var edges = document.getElementsByTagName('g');
if (edges && edges.length) {
  for (var i=0;i<edges.length;i++) {
    if (edges[i].id.substr(0,4)=='edge') {
      edges[i].setAttribute('class','edge');
    }
  }
}
]]></script>
        <defs>
                <circle id="rim" cx="0" cy="0" r="7"/>
                <circle id="rim2" cx="0" cy="0" r="3.5"/>
                <g id="zoomPlus">
                        <use xlink:href="#rim" fill="#404040">
                                <set attributeName="fill" to="#808080" begin="zoomplus.mouseover" end="zoomplus.mouseout"/>
                        </use>
                        <path d="M-4,0h8M0,-4v8" fill="none" stroke="white" stroke-width="1.5" pointer-events="none"/>
                </g>
                <g id="zoomMin">
                        <use xlink:href="#rim" fill="#404040">
                                <set attributeName="fill" to="#808080" begin="zoomminus.mouseover" end="zoomminus.mouseout"/>
                        </use>
                        <path d="M-4,0h8" fill="none" stroke="white" stroke-width="1.5" pointer-events="none"/>
                </g>
                <g id="dirArrow">
                        <path fill="none" stroke="white" stroke-width="1.5" d="M0,-3.0v7 M-2.5,-0.5L0,-3.0L2.5,-0.5"/>
                </g>
               <g id="resetDef">
                       <use xlink:href="#rim2" fill="#404040">
                               <set attributeName="fill" to="#808080" begin="reset.mouseover" end="reset.mouseout"/>
                       </use>
               </g>
        </defs>

<script type="text/javascript">
var viewWidth = 1379;
var viewHeight = 319;
var sectionId = 'dynsection-0';
</script>
<script xlink:href="svgpan.js"/>
<svg id="graph" class="graph">
<g id="viewport">
<title>src/io/TXTReader.cpp</title>
<polygon fill="#ffffff" stroke="transparent" points="-4,4 -4,-315 1374.5,-315 1374.5,4 -4,4"/>
<!-- Node0 -->
<g id="node1" class="node">
<title>Node0</title>
<polygon fill="#bfbfbf" stroke="#000000" points="210.5,-291.5 210.5,-310.5 328.5,-310.5 328.5,-291.5 210.5,-291.5"/>
<text text-anchor="middle" x="269.5" y="-298.5" font-family="Helvetica,sans-Serif" font-size="10.00" fill="#000000">src/io/TXTReader.cpp</text>
</g>
<!-- Node1 -->
<g id="node2" class="node">
<title>Node1</title>
<g id="a_node2"><a xlink:href="TXTReader_8hpp.html" target="_top" xlink:title="TXTReader.hpp">
<polygon fill="#ffffff" stroke="#000000" points="140,-235.5 140,-254.5 229,-254.5 229,-235.5 140,-235.5"/>
<text text-anchor="middle" x="184.5" y="-242.5" font-family="Helvetica,sans-Serif" font-size="10.00" fill="#000000">TXTReader.hpp</text>
</a>
</g>
</g>
<!-- Node0&#45;&gt;Node1 -->
<g id="edge1" class="edge">
<title>Node0&#45;&gt;Node1</title>
<path fill="none" stroke="#191970" d="M254.6941,-291.2455C241.7744,-282.7337 222.8069,-270.2375 207.8448,-260.3801"/>
<polygon fill="#191970" stroke="#191970" points="209.4124,-257.2216 199.1362,-254.6427 205.5613,-263.067 209.4124,-257.2216"/>
</g>
<!-- Node7 -->
<g id="node8" class="node">
<title>Node7</title>
<g id="a_node8"><a xlink:href="LogMacros_8hpp.html" target="_top" xlink:title="LogMacros.hpp">
<polygon fill="#ffffff" stroke="#000000" points="616,-123.5 616,-142.5 705,-142.5 705,-123.5 616,-123.5"/>
<text text-anchor="middle" x="660.5" y="-130.5" font-family="Helvetica,sans-Serif" font-size="10.00" fill="#000000">LogMacros.hpp</text>
</a>
</g>
</g>
<!-- Node0&#45;&gt;Node7 -->
<g id="edge22" class="edge">
<title>Node0&#45;&gt;Node7</title>
<path fill="none" stroke="#191970" d="M291.6421,-291.4862C357.3507,-263.2534 551.442,-179.8587 628.4709,-146.7619"/>
<polygon fill="#191970" stroke="#191970" points="630.31,-149.7811 638.1161,-142.6177 627.5465,-143.3497 630.31,-149.7811"/>
</g>
<!-- Node2 -->
<g id="node3" class="node">
<title>Node2</title>
<polygon fill="#ffffff" stroke="#bfbfbf" points="257,-179.5 257,-198.5 326,-198.5 326,-179.5 257,-179.5"/>
<text text-anchor="middle" x="291.5" y="-186.5" font-family="Helvetica,sans-Serif" font-size="10.00" fill="#000000">Eigen/Core</text>
</g>
<!-- Node1&#45;&gt;Node2 -->
<g id="edge2" class="edge">
<title>Node1&#45;&gt;Node2</title>
<path fill="none" stroke="#191970" d="M203.138,-235.2455C219.9386,-226.4527 244.8634,-213.4079 263.9618,-203.4125"/>
<polygon fill="#191970" stroke="#191970" points="265.8386,-206.3807 273.0756,-198.6427 262.5927,-200.1787 265.8386,-206.3807"/>
</g>
<!-- Node3 -->
<g id="node4" class="node">
<title>Node3</title>
<polygon fill="#ffffff" stroke="#bfbfbf" points="0,-179.5 0,-198.5 55,-198.5 55,-179.5 0,-179.5"/>
<text text-anchor="middle" x="27.5" y="-186.5" font-family="Helvetica,sans-Serif" font-size="10.00" fill="#000000">fstream</text>
</g>
<!-- Node1&#45;&gt;Node3 -->
<g id="edge3" class="edge">
<title>Node1&#45;&gt;Node3</title>
<path fill="none" stroke="#191970" d="M157.5107,-235.3733C131.6301,-226.1419 92.3752,-212.1402 63.7711,-201.9375"/>
<polygon fill="#191970" stroke="#191970" points="64.7317,-198.5642 54.1371,-198.5011 62.38,-205.1573 64.7317,-198.5642"/>
</g>
<!-- Node4 -->
<g id="node5" class="node">
<title>Node4</title>
<polygon fill="#ffffff" stroke="#bfbfbf" points="534.5,-.5 534.5,-19.5 578.5,-19.5 578.5,-.5 534.5,-.5"/>
<text text-anchor="middle" x="556.5" y="-7.5" font-family="Helvetica,sans-Serif" font-size="10.00" fill="#000000">string</text>
</g>
<!-- Node1&#45;&gt;Node4 -->
<g id="edge4" class="edge">
<title>Node1&#45;&gt;Node4</title>
<path fill="none" stroke="#191970" d="M161.734,-235.3999C147.0403,-227.8573 129.1158,-215.8029 120.5,-199 102.4395,-163.7775 21.3642,-167.2123 125.5,-56 152.6772,-26.9759 428.7579,-14.522 524.2264,-11.0609"/>
<polygon fill="#191970" stroke="#191970" points="524.5647,-14.5513 534.4349,-10.7004 524.3176,-7.5556 524.5647,-14.5513"/>
</g>
<!-- Node5 -->
<g id="node6" class="node">
<title>Node5</title>
<g id="a_node6"><a xlink:href="Logger_8hpp.html" target="_top" xlink:title="logging/Logger.hpp">
<polygon fill="#ffffff" stroke="#000000" points="130,-179.5 130,-198.5 239,-198.5 239,-179.5 130,-179.5"/>
<text text-anchor="middle" x="184.5" y="-186.5" font-family="Helvetica,sans-Serif" font-size="10.00" fill="#000000">logging/Logger.hpp</text>
</a>
</g>
</g>
<!-- Node1&#45;&gt;Node5 -->
<g id="edge5" class="edge">
<title>Node1&#45;&gt;Node5</title>
<path fill="none" stroke="#191970" d="M184.5,-235.2455C184.5,-227.9382 184.5,-217.6944 184.5,-208.7046"/>
<polygon fill="#191970" stroke="#191970" points="188.0001,-208.6426 184.5,-198.6427 181.0001,-208.6427 188.0001,-208.6426"/>
</g>
<!-- Node5&#45;&gt;Node4 -->
<g id="edge7" class="edge">
<title>Node5&#45;&gt;Node4</title>
<path fill="none" stroke="#191970" d="M175.6943,-179.3416C154.994,-155.4716 107.401,-92.9608 140.5,-56 165.9998,-27.5251 430.6296,-14.7824 524.0569,-11.1475"/>
<polygon fill="#191970" stroke="#191970" points="524.4636,-14.6346 534.3237,-10.7581 524.1982,-7.6397 524.4636,-14.6346"/>
</g>
<!-- Node6 -->
<g id="node7" class="node">
<title>Node6</title>
<polygon fill="#ffffff" stroke="#bfbfbf" points="212.5,-123.5 212.5,-142.5 270.5,-142.5 270.5,-123.5 212.5,-123.5"/>
<text text-anchor="middle" x="241.5" y="-130.5" font-family="Helvetica,sans-Serif" font-size="10.00" fill="#000000">memory</text>
</g>
<!-- Node5&#45;&gt;Node6 -->
<g id="edge6" class="edge">
<title>Node5&#45;&gt;Node6</title>
<path fill="none" stroke="#191970" d="M194.4286,-179.2455C202.6838,-171.1352 214.6209,-159.4075 224.4082,-149.7919"/>
<polygon fill="#191970" stroke="#191970" points="227.0046,-152.1476 231.6851,-142.6427 222.0989,-147.1542 227.0046,-152.1476"/>
</g>
<!-- Node5&#45;&gt;Node7 -->
<g id="edge8" class="edge">
<title>Node5&#45;&gt;Node7</title>
<path fill="none" stroke="#191970" d="M239.1129,-180.1721C241.9476,-179.7637 244.7563,-179.3704 247.5,-179 375.4534,-161.7287 526.3463,-146.1246 605.5729,-138.2974"/>
<polygon fill="#191970" stroke="#191970" points="606.1931,-141.7534 615.8022,-137.2908 605.5075,-134.7871 606.1931,-141.7534"/>
</g>
<!-- Node7&#45;&gt;Node4 -->
<g id="edge15" class="edge">
<title>Node7&#45;&gt;Node4</title>
<path fill="none" stroke="#191970" d="M705.2446,-129.5839C787.1367,-122.8752 954.3391,-106.8859 971.5,-87 980.5014,-76.5692 980.6901,-66.265 971.5,-56 946.0645,-27.5894 682.0689,-14.8053 588.8654,-11.1536"/>
<polygon fill="#191970" stroke="#191970" points="588.7495,-7.6467 578.6232,-10.7624 588.4823,-14.6416 588.7495,-7.6467"/>
</g>
<!-- Node8 -->
<g id="node9" class="node">
<title>Node8</title>
<polygon fill="#ffffff" stroke="#bfbfbf" points="1126.5,-56.5 1126.5,-86.5 1236.5,-86.5 1236.5,-56.5 1126.5,-56.5"/>
<text text-anchor="start" x="1134.5" y="-74.5" font-family="Helvetica,sans-Serif" font-size="10.00" fill="#000000">boost/preprocessor</text>
<text text-anchor="middle" x="1181.5" y="-63.5" font-family="Helvetica,sans-Serif" font-size="10.00" fill="#000000">/control/if.hpp</text>
</g>
<!-- Node7&#45;&gt;Node8 -->
<g id="edge9" class="edge">
<title>Node7&#45;&gt;Node8</title>
<path fill="none" stroke="#191970" d="M705.2102,-130.5433C785.5749,-125.6849 959.8612,-113.1335 1116.173,-87.0782"/>
<polygon fill="#191970" stroke="#191970" points="1117.165,-90.4603 1126.4418,-85.3424 1115.9983,-83.5582 1117.165,-90.4603"/>
</g>
<!-- Node9 -->
<g id="node10" class="node">
<title>Node9</title>
<polygon fill="#ffffff" stroke="#bfbfbf" points="1254.5,-56.5 1254.5,-86.5 1370.5,-86.5 1370.5,-56.5 1254.5,-56.5"/>
<text text-anchor="start" x="1262.5" y="-74.5" font-family="Helvetica,sans-Serif" font-size="10.00" fill="#000000">boost/preprocessor</text>
<text text-anchor="middle" x="1312.5" y="-63.5" font-family="Helvetica,sans-Serif" font-size="10.00" fill="#000000">/facilities/empty.hpp</text>
</g>
<!-- Node7&#45;&gt;Node9 -->
<g id="edge10" class="edge">
<title>Node7&#45;&gt;Node9</title>
<path fill="none" stroke="#191970" d="M705.1605,-131.7544C801.8057,-128.5721 1037.6225,-118.1822 1244.3645,-87.0226"/>
<polygon fill="#191970" stroke="#191970" points="1245.141,-90.4447 1254.4979,-85.4749 1244.0841,-83.5249 1245.141,-90.4447"/>
</g>
<!-- Node10 -->
<g id="node11" class="node">
<title>Node10</title>
<polygon fill="#ffffff" stroke="#bfbfbf" points="273,-56.5 273,-86.5 384,-86.5 384,-56.5 273,-56.5"/>
<text text-anchor="start" x="281" y="-74.5" font-family="Helvetica,sans-Serif" font-size="10.00" fill="#000000">boost/preprocessor</text>
<text text-anchor="middle" x="328.5" y="-63.5" font-family="Helvetica,sans-Serif" font-size="10.00" fill="#000000">/seq/for_each_i.hpp</text>
</g>
<!-- Node7&#45;&gt;Node10 -->
<g id="edge11" class="edge">
<title>Node7&#45;&gt;Node10</title>
<path fill="none" stroke="#191970" d="M615.9297,-126.2082C564.812,-118.2218 478.2787,-104.1034 394.1027,-87.0475"/>
<polygon fill="#191970" stroke="#191970" points="394.6157,-83.5801 384.1175,-85.008 393.2148,-90.4385 394.6157,-83.5801"/>
</g>
<!-- Node11 -->
<g id="node12" class="node">
<title>Node11</title>
<polygon fill="#ffffff" stroke="#bfbfbf" points="402.5,-56.5 402.5,-86.5 512.5,-86.5 512.5,-56.5 402.5,-56.5"/>
<text text-anchor="start" x="410.5" y="-74.5" font-family="Helvetica,sans-Serif" font-size="10.00" fill="#000000">boost/preprocessor</text>
<text text-anchor="middle" x="457.5" y="-63.5" font-family="Helvetica,sans-Serif" font-size="10.00" fill="#000000">/stringize.hpp</text>
</g>
<!-- Node7&#45;&gt;Node11 -->
<g id="edge12" class="edge">
<title>Node7&#45;&gt;Node11</title>
<path fill="none" stroke="#191970" d="M628.7813,-123.3906C598.891,-114.3352 553.3524,-100.539 516.7425,-89.4479"/>
<polygon fill="#191970" stroke="#191970" points="517.7447,-86.0944 507.1594,-86.5446 515.715,-92.7937 517.7447,-86.0944"/>
</g>
<!-- Node12 -->
<g id="node13" class="node">
<title>Node12</title>
<polygon fill="#ffffff" stroke="#bfbfbf" points="531,-56.5 531,-86.5 646,-86.5 646,-56.5 531,-56.5"/>
<text text-anchor="start" x="539" y="-74.5" font-family="Helvetica,sans-Serif" font-size="10.00" fill="#000000">boost/preprocessor</text>
<text text-anchor="middle" x="588.5" y="-63.5" font-family="Helvetica,sans-Serif" font-size="10.00" fill="#000000">/variadic/to_seq.hpp</text>
</g>
<!-- Node7&#45;&gt;Node12 -->
<g id="edge13" class="edge">
<title>Node7&#45;&gt;Node12</title>
<path fill="none" stroke="#191970" d="M649.25,-123.3906C639.7764,-115.2986 625.8706,-103.4207 613.7532,-93.0705"/>
<polygon fill="#191970" stroke="#191970" points="615.9902,-90.3782 606.1132,-86.5446 611.4437,-95.7008 615.9902,-90.3782"/>
</g>
<!-- Node13 -->
<g id="node14" class="node">
<title>Node13</title>
<polygon fill="#ffffff" stroke="#bfbfbf" points="664.5,-62 664.5,-81 800.5,-81 800.5,-62 664.5,-62"/>
<text text-anchor="middle" x="732.5" y="-69" font-family="Helvetica,sans-Serif" font-size="10.00" fill="#000000">boost/vmd/is_empty.hpp</text>
</g>
<!-- Node7&#45;&gt;Node13 -->
<g id="edge14" class="edge">
<title>Node7&#45;&gt;Node13</title>
<path fill="none" stroke="#191970" d="M671.75,-123.3906C682.886,-113.8786 700.146,-99.1357 713.4268,-87.7917"/>
<polygon fill="#191970" stroke="#191970" points="715.7608,-90.4011 721.0914,-81.2449 711.2144,-85.0784 715.7608,-90.4011"/>
</g>
<!-- Node14 -->
<g id="node15" class="node">
<title>Node14</title>
<g id="a_node15"><a xlink:href="Tracer_8hpp.html" target="_top" xlink:title="logging/Tracer.hpp">
<polygon fill="#ffffff" stroke="#000000" points="150,-62 150,-81 255,-81 255,-62 150,-62"/>
<text text-anchor="middle" x="202.5" y="-69" font-family="Helvetica,sans-Serif" font-size="10.00" fill="#000000">logging/Tracer.hpp</text>
</a>
</g>
</g>
<!-- Node7&#45;&gt;Node14 -->
<g id="edge16" class="edge">
<title>Node7&#45;&gt;Node14</title>
<path fill="none" stroke="#191970" d="M615.8557,-129.7818C542.0752,-124.027 390.2513,-110.3391 263.5,-87 258.0598,-85.9983 252.3857,-84.7866 246.783,-83.4871"/>
<polygon fill="#191970" stroke="#191970" points="247.384,-80.0316 236.8412,-81.0798 245.7366,-86.835 247.384,-80.0316"/>
</g>
<!-- Node15 -->
<g id="node16" class="node">
<title>Node15</title>
<polygon fill="#ffffff" stroke="#bfbfbf" points="818.5,-62 818.5,-81 962.5,-81 962.5,-62 818.5,-62"/>
<text text-anchor="middle" x="890.5" y="-69" font-family="Helvetica,sans-Serif" font-size="10.00" fill="#000000">prettyprint/prettyprint.hpp</text>
</g>
<!-- Node7&#45;&gt;Node15 -->
<g id="edge18" class="edge">
<title>Node7&#45;&gt;Node15</title>
<path fill="none" stroke="#191970" d="M696.1851,-123.4581C736.2193,-112.7533 801.2571,-95.3628 844.935,-83.6837"/>
<polygon fill="#191970" stroke="#191970" points="845.9747,-87.0287 854.7311,-81.0643 844.1664,-80.2663 845.9747,-87.0287"/>
</g>
<!-- Node16 -->
<g id="node17" class="node">
<title>Node16</title>
<g id="a_node17"><a xlink:href="String_8hpp.html" target="_top" xlink:title="utils/String.hpp">
<polygon fill="#ffffff" stroke="#000000" points="1018.5,-62 1018.5,-81 1108.5,-81 1108.5,-62 1018.5,-62"/>
<text text-anchor="middle" x="1063.5" y="-69" font-family="Helvetica,sans-Serif" font-size="10.00" fill="#000000">utils/String.hpp</text>
</a>
</g>
</g>
<!-- Node7&#45;&gt;Node16 -->
<g id="edge19" class="edge">
<title>Node7&#45;&gt;Node16</title>
<path fill="none" stroke="#191970" d="M705.0458,-128.8262C770.9025,-122.2539 897.9492,-108.0359 1004.5,-87 1009.5652,-86 1014.8408,-84.8188 1020.063,-83.5616"/>
<polygon fill="#191970" stroke="#191970" points="1021.1215,-86.9046 1029.9703,-81.0781 1019.4194,-80.1147 1021.1215,-86.9046"/>
</g>
<!-- Node14&#45;&gt;Node5 -->
<g id="edge17" class="edge">
<title>Node14&#45;&gt;Node5</title>
<path fill="none" stroke="#191970" d="M201.0066,-81.2484C198.0494,-100.5527 191.3979,-143.9723 187.5011,-169.4095"/>
<polygon fill="#191970" stroke="#191970" points="184.0277,-168.9698 185.973,-179.3845 190.947,-170.0298 184.0277,-168.9698"/>
</g>
<!-- Node16&#45;&gt;Node4 -->
<g id="edge21" class="edge">
<title>Node16&#45;&gt;Node4</title>
<path fill="none" stroke="#191970" d="M1030.9335,-61.9829C1022.3914,-59.7518 1013.1488,-57.5704 1004.5,-56 850.1554,-27.9756 662.5667,-15.6238 588.6437,-11.5918"/>
<polygon fill="#191970" stroke="#191970" points="588.7511,-8.0926 578.5793,-11.0564 588.3792,-15.0827 588.7511,-8.0926"/>
</g>
<!-- Node17 -->
<g id="node18" class="node">
<title>Node17</title>
<polygon fill="#ffffff" stroke="#bfbfbf" points="1035.5,-.5 1035.5,-19.5 1091.5,-19.5 1091.5,-.5 1035.5,-.5"/>
<text text-anchor="middle" x="1063.5" y="-7.5" font-family="Helvetica,sans-Serif" font-size="10.00" fill="#000000">sstream</text>
</g>
<!-- Node16&#45;&gt;Node17 -->
<g id="edge20" class="edge">
<title>Node16&#45;&gt;Node17</title>
<path fill="none" stroke="#191970" d="M1063.5,-61.8906C1063.5,-53.3657 1063.5,-40.6392 1063.5,-29.9235"/>
<polygon fill="#191970" stroke="#191970" points="1067.0001,-29.7448 1063.5,-19.7449 1060.0001,-29.7449 1067.0001,-29.7448"/>
</g>
</g>
</svg>
        <g id="navigator" transform="translate(0 0)" fill="#404254">
                <rect fill="#f2f5e9" fill-opacity="0.5" stroke="#606060" stroke-width=".5" x="0" y="0" width="60" height="60"/>
                <use id="zoomplus" xlink:href="#zoomPlus" x="17" y="9" onmousedown="handleZoom(evt,'in')"/>
                <use id="zoomminus" xlink:href="#zoomMin" x="42" y="9" onmousedown="handleZoom(evt,'out')"/>
                <use id="reset" xlink:href="#resetDef" x="30" y="36" onmousedown="handleReset()"/>
                <g id="arrowUp" xlink:href="#dirArrow" transform="translate(30 24)" onmousedown="handlePan(0,-1)">
                  <use xlink:href="#rim" fill="#404040">
                        <set attributeName="fill" to="#808080" begin="arrowUp.mouseover" end="arrowUp.mouseout"/>
                  </use>
                  <path fill="none" stroke="white" stroke-width="1.5" d="M0,-3.0v7 M-2.5,-0.5L0,-3.0L2.5,-0.5"/>
                </g>
                <g id="arrowRight" xlink:href="#dirArrow" transform="rotate(90) translate(36 -43)" onmousedown="handlePan(1,0)">
                  <use xlink:href="#rim" fill="#404040">
                        <set attributeName="fill" to="#808080" begin="arrowRight.mouseover" end="arrowRight.mouseout"/>
                  </use>
                  <path fill="none" stroke="white" stroke-width="1.5" d="M0,-3.0v7 M-2.5,-0.5L0,-3.0L2.5,-0.5"/>
                </g>
                <g id="arrowDown" xlink:href="#dirArrow" transform="rotate(180) translate(-30 -48)" onmousedown="handlePan(0,1)">
                  <use xlink:href="#rim" fill="#404040">
                        <set attributeName="fill" to="#808080" begin="arrowDown.mouseover" end="arrowDown.mouseout"/>
                  </use>
                  <path fill="none" stroke="white" stroke-width="1.5" d="M0,-3.0v7 M-2.5,-0.5L0,-3.0L2.5,-0.5"/>
                </g>
                <g id="arrowLeft" xlink:href="#dirArrow" transform="rotate(270) translate(-36 17)" onmousedown="handlePan(-1,0)">
                  <use xlink:href="#rim" fill="#404040">
                        <set attributeName="fill" to="#808080" begin="arrowLeft.mouseover" end="arrowLeft.mouseout"/>
                  </use>
                  <path fill="none" stroke="white" stroke-width="1.5" d="M0,-3.0v7 M-2.5,-0.5L0,-3.0L2.5,-0.5"/>
                </g>
        </g>
        <svg viewBox="0 0 15 15" width="100%" height="30px" preserveAspectRatio="xMaxYMin meet">
         <g id="arrow_out" transform="scale(0.3 0.3)">
          <a xlink:href="TXTReader_8cpp__incl_org.svg" target="_base">
           <rect id="button" ry="5" rx="5" y="6" x="6" height="38" width="38"
                fill="#f2f5e9" fill-opacity="0.5" stroke="#606060" stroke-width="1.0"/>
           <path id="arrow"
             d="M 11.500037,31.436501 C 11.940474,20.09759 22.043105,11.32322 32.158766,21.979434 L 37.068811,17.246167 C 37.068811,17.246167 37.088388,32 37.088388,32 L 22.160133,31.978069 C 22.160133,31.978069 26.997745,27.140456 26.997745,27.140456 C 18.528582,18.264221 13.291696,25.230495 11.500037,31.436501 z"
             style="fill:#404040;"/>
          </a>
         </g>
        </svg>
</svg>
