<?xml version="1.0" encoding="UTF-8" standalone="no"?>
<!DOCTYPE svg PUBLIC "-//W3C//DTD SVG 1.1//EN"
 "http://www.w3.org/Graphics/SVG/1.1/DTD/svg11.dtd">
<!-- Generated by graphviz version 2.40.1 (20161225.0304)
 -->
<!-- Title: src/xml/ValueParser.hpp Pages: 1 -->
<svg width="5306pt" height="486pt"
 viewBox="0.00 0.00 5305.85 486.00" xmlns="http://www.w3.org/2000/svg" xmlns:xlink="http://www.w3.org/1999/xlink">
<g id="graph0" class="graph" transform="scale(1 1) rotate(0) translate(4 482)">
<title>src/xml/ValueParser.hpp</title>
<polygon fill="#ffffff" stroke="transparent" points="-4,4 -4,-482 5301.8459,-482 5301.8459,4 -4,4"/>
<!-- Node5 -->
<g id="node1" class="node">
<title>Node5</title>
<polygon fill="#bfbfbf" stroke="#000000" points="982.8459,-458.5 982.8459,-477.5 1106.8459,-477.5 1106.8459,-458.5 982.8459,-458.5"/>
<text text-anchor="middle" x="1044.8459" y="-465.5" font-family="Helvetica,sans-Serif" font-size="10.00" fill="#000000">src/xml/ValueParser.hpp</text>
</g>
<!-- Node6 -->
<g id="node2" class="node">
<title>Node6</title>
<g id="a_node2"><a xlink:href="ParserTest_8cpp.html" target="_top" xlink:title="src/xml/tests/ParserTest.cpp">
<polygon fill="#ffffff" stroke="#000000" points="392.3459,-218 392.3459,-237 535.3459,-237 535.3459,-218 392.3459,-218"/>
<text text-anchor="middle" x="463.8459" y="-225" font-family="Helvetica,sans-Serif" font-size="10.00" fill="#000000">src/xml/tests/ParserTest.cpp</text>
</a>
</g>
</g>
<!-- Node5&#45;&gt;Node6 -->
<g id="edge1" class="edge">
<title>Node5&#45;&gt;Node6</title>
<path fill="none" stroke="#191970" d="M972.7134,-462.8023C872.9139,-455.1086 698.0921,-439.6789 636.8459,-422 532.9497,-392.01 475.5276,-403.2938 420.8459,-310 405.7363,-284.2211 434.9208,-252.6166 452.2712,-237.0689"/>
<polygon fill="#191970" stroke="#191970" points="972.485,-466.295 982.7227,-463.5674 973.0185,-459.3154 972.485,-466.295"/>
</g>
<!-- Node7 -->
<g id="node3" class="node">
<title>Node7</title>
<g id="a_node3"><a xlink:href="XMLTest_8cpp.html" target="_top" xlink:title="src/xml/tests/XMLTest.cpp">
<polygon fill="#ffffff" stroke="#000000" points="430.3459,-285 430.3459,-304 565.3459,-304 565.3459,-285 430.3459,-285"/>
<text text-anchor="middle" x="497.8459" y="-292" font-family="Helvetica,sans-Serif" font-size="10.00" fill="#000000">src/xml/tests/XMLTest.cpp</text>
</a>
</g>
</g>
<!-- Node5&#45;&gt;Node7 -->
<g id="edge2" class="edge">
<title>Node5&#45;&gt;Node7</title>
<path fill="none" stroke="#191970" d="M972.5599,-460.2521C851.1523,-446.1101 612.7876,-413.1632 543.8459,-366 521.1867,-350.4988 507.1711,-319.7784 501.2004,-304.1372"/>
<polygon fill="#191970" stroke="#191970" points="972.1803,-463.7314 982.5154,-461.4001 972.9822,-456.7775 972.1803,-463.7314"/>
</g>
<!-- Node8 -->
<g id="node4" class="node">
<title>Node8</title>
<g id="a_node4"><a xlink:href="ValueParser_8cpp.html" target="_top" xlink:title="src/xml/ValueParser.cpp">
<polygon fill="#ffffff" stroke="#000000" points="1805.8459,-402.5 1805.8459,-421.5 1929.8459,-421.5 1929.8459,-402.5 1805.8459,-402.5"/>
<text text-anchor="middle" x="1867.8459" y="-409.5" font-family="Helvetica,sans-Serif" font-size="10.00" fill="#000000">src/xml/ValueParser.cpp</text>
</a>
</g>
</g>
<!-- Node5&#45;&gt;Node8 -->
<g id="edge3" class="edge">
<title>Node5&#45;&gt;Node8</title>
<path fill="none" stroke="#191970" d="M1117.0307,-465.479C1251.1869,-460.373 1547.9319,-447.1028 1796.8459,-422 1799.6945,-421.7127 1802.6043,-421.3963 1805.5414,-421.0584"/>
<polygon fill="#191970" stroke="#191970" points="1116.7414,-461.9873 1106.8803,-465.8615 1117.0051,-468.9823 1116.7414,-461.9873"/>
</g>
<!-- Node9 -->
<g id="node5" class="node">
<title>Node9</title>
<g id="a_node5"><a xlink:href="XMLAttribute_8hpp.html" target="_top" xlink:title="src/xml/XMLAttribute.hpp">
<polygon fill="#ffffff" stroke="#000000" points="1659.8459,-402.5 1659.8459,-421.5 1787.8459,-421.5 1787.8459,-402.5 1659.8459,-402.5"/>
<text text-anchor="middle" x="1723.8459" y="-409.5" font-family="Helvetica,sans-Serif" font-size="10.00" fill="#000000">src/xml/XMLAttribute.hpp</text>
</a>
</g>
</g>
<!-- Node5&#45;&gt;Node9 -->
<g id="edge4" class="edge">
<title>Node5&#45;&gt;Node9</title>
<path fill="none" stroke="#191970" d="M1117.0053,-462.0487C1250.2262,-451.0614 1532.756,-427.76 1659.7099,-417.2896"/>
<polygon fill="#191970" stroke="#191970" points="1116.5811,-458.5717 1106.9026,-462.8819 1117.1565,-465.548 1116.5811,-458.5717"/>
</g>
<!-- Node9&#45;&gt;Node6 -->
<g id="edge18" class="edge">
<title>Node9&#45;&gt;Node6</title>
<path fill="none" stroke="#191970" d="M1649.6496,-409.5771C1469.8822,-403.4572 1014.7364,-386.4023 863.8459,-366 748.428,-350.394 711.2965,-363.5053 607.8459,-310 589.6822,-300.6056 590.8542,-290.3529 573.8459,-279 547.0121,-261.0887 512.9618,-246.1915 489.9059,-237.1035"/>
<polygon fill="#191970" stroke="#191970" points="1649.6905,-413.0804 1659.8033,-409.9211 1649.9276,-406.0844 1649.6905,-413.0804"/>
</g>
<!-- Node9&#45;&gt;Node7 -->
<g id="edge19" class="edge">
<title>Node9&#45;&gt;Node7</title>
<path fill="none" stroke="#191970" d="M1649.5813,-410.3702C1403.7989,-404.7991 629.5187,-385.7619 579.8459,-366 546.8518,-352.8736 518.0946,-320.4662 505.1453,-304.1759"/>
<polygon fill="#191970" stroke="#191970" points="1649.7649,-413.8751 1659.8414,-410.6019 1649.923,-406.8769 1649.7649,-413.8751"/>
</g>
<!-- Node10 -->
<g id="node6" class="node">
<title>Node10</title>
<g id="a_node6"><a xlink:href="AccelerationConfiguration_8cpp.html" target="_top" xlink:title="src/acceleration/config\l/AccelerationConfiguration.cpp">
<polygon fill="#ffffff" stroke="#000000" points="1761.8459,-212.5 1761.8459,-242.5 1911.8459,-242.5 1911.8459,-212.5 1761.8459,-212.5"/>
<text text-anchor="start" x="1769.8459" y="-230.5" font-family="Helvetica,sans-Serif" font-size="10.00" fill="#000000">src/acceleration/config</text>
<text text-anchor="middle" x="1836.8459" y="-219.5" font-family="Helvetica,sans-Serif" font-size="10.00" fill="#000000">/AccelerationConfiguration.cpp</text>
</a>
</g>
</g>
<!-- Node9&#45;&gt;Node10 -->
<g id="edge5" class="edge">
<title>Node9&#45;&gt;Node10</title>
<path fill="none" stroke="#191970" d="M1743.677,-395.7616C1764.9832,-377.2288 1798.2778,-344.933 1816.8459,-310 1828.3976,-288.2672 1833.389,-259.7809 1835.4634,-242.6007"/>
<polygon fill="#191970" stroke="#191970" points="1741.2367,-393.2425 1735.8885,-402.3884 1745.7728,-398.5739 1741.2367,-393.2425"/>
</g>
<!-- Node11 -->
<g id="node7" class="node">
<title>Node11</title>
<g id="a_node7"><a xlink:href="ActionConfiguration_8cpp.html" target="_top" xlink:title="src/action/config/Action\lConfiguration.cpp">
<polygon fill="#ffffff" stroke="#000000" points="3706.3459,-212.5 3706.3459,-242.5 3825.3459,-242.5 3825.3459,-212.5 3706.3459,-212.5"/>
<text text-anchor="start" x="3714.3459" y="-230.5" font-family="Helvetica,sans-Serif" font-size="10.00" fill="#000000">src/action/config/Action</text>
<text text-anchor="middle" x="3765.8459" y="-219.5" font-family="Helvetica,sans-Serif" font-size="10.00" fill="#000000">Configuration.cpp</text>
</a>
</g>
</g>
<!-- Node9&#45;&gt;Node11 -->
<g id="edge6" class="edge">
<title>Node9&#45;&gt;Node11</title>
<path fill="none" stroke="#191970" d="M1797.891,-401.9899C2181.7902,-368.1276 2280.7825,-384.0235 2661.8459,-366 2896.8015,-354.8871 3518.6793,-433.5354 3718.8459,-310 3743.3944,-294.8496 3756.3436,-261.8603 3762.0804,-242.5011"/>
<polygon fill="#191970" stroke="#191970" points="1797.5525,-398.5061 1787.9012,-402.8766 1798.1715,-405.4787 1797.5525,-398.5061"/>
</g>
<!-- Node12 -->
<g id="node8" class="node">
<title>Node12</title>
<g id="a_node8"><a xlink:href="CouplingSchemeConfiguration_8cpp.html" target="_top" xlink:title="src/cplscheme/config\l/CouplingSchemeConfiguration.cpp">
<polygon fill="#ffffff" stroke="#000000" points="1892.8459,-140 1892.8459,-170 2062.8459,-170 2062.8459,-140 1892.8459,-140"/>
<text text-anchor="start" x="1900.8459" y="-158" font-family="Helvetica,sans-Serif" font-size="10.00" fill="#000000">src/cplscheme/config</text>
<text text-anchor="middle" x="1977.8459" y="-147" font-family="Helvetica,sans-Serif" font-size="10.00" fill="#000000">/CouplingSchemeConfiguration.cpp</text>
</a>
</g>
</g>
<!-- Node9&#45;&gt;Node12 -->
<g id="edge7" class="edge">
<title>Node9&#45;&gt;Node12</title>
<path fill="none" stroke="#191970" d="M1649.4435,-408.9153C1507.4889,-402.6334 1202.9472,-387.1418 1099.8459,-366 1024.8067,-350.6126 1007.9657,-338.4539 936.8459,-310 920.2742,-303.3699 800.4819,-258.0242 790.8459,-243 783.4077,-231.4026 781.34,-221.9733 790.8459,-212 828.7895,-172.1906 1627.1802,-159.1519 1892.772,-155.9073"/>
<polygon fill="#191970" stroke="#191970" points="1649.6457,-412.4274 1659.7896,-409.3695 1649.9528,-405.4342 1649.6457,-412.4274"/>
</g>
<!-- Node13 -->
<g id="node9" class="node">
<title>Node13</title>
<g id="a_node9"><a xlink:href="ExportConfiguration_8cpp.html" target="_top" xlink:title="src/io/config/ExportConfiguration.cpp">
<polygon fill="#ffffff" stroke="#000000" points="1011.8459,-218 1011.8459,-237 1189.8459,-237 1189.8459,-218 1011.8459,-218"/>
<text text-anchor="middle" x="1100.8459" y="-225" font-family="Helvetica,sans-Serif" font-size="10.00" fill="#000000">src/io/config/ExportConfiguration.cpp</text>
</a>
</g>
</g>
<!-- Node9&#45;&gt;Node13 -->
<g id="edge8" class="edge">
<title>Node9&#45;&gt;Node13</title>
<path fill="none" stroke="#191970" d="M1649.7343,-407.0579C1473.0289,-394.5228 1038.4376,-358.9753 995.8459,-310 968.6906,-278.7747 1030.453,-250.9843 1070.337,-237.0198"/>
<polygon fill="#191970" stroke="#191970" points="1649.5077,-410.5505 1659.7289,-407.7618 1649.9995,-403.5678 1649.5077,-410.5505"/>
</g>
<!-- Node14 -->
<g id="node10" class="node">
<title>Node14</title>
<g id="a_node10"><a xlink:href="config_2LogConfiguration_8cpp.html" target="_top" xlink:title="src/logging/config\l/LogConfiguration.cpp">
<polygon fill="#ffffff" stroke="#000000" points="1555.8459,-212.5 1555.8459,-242.5 1667.8459,-242.5 1667.8459,-212.5 1555.8459,-212.5"/>
<text text-anchor="start" x="1563.8459" y="-230.5" font-family="Helvetica,sans-Serif" font-size="10.00" fill="#000000">src/logging/config</text>
<text text-anchor="middle" x="1611.8459" y="-219.5" font-family="Helvetica,sans-Serif" font-size="10.00" fill="#000000">/LogConfiguration.cpp</text>
</a>
</g>
</g>
<!-- Node9&#45;&gt;Node14 -->
<g id="edge9" class="edge">
<title>Node9&#45;&gt;Node14</title>
<path fill="none" stroke="#191970" d="M1712.7475,-393.7174C1690.6611,-357.334 1641.5711,-276.467 1621.095,-242.7363"/>
<polygon fill="#191970" stroke="#191970" points="1709.8009,-395.6082 1717.982,-402.3402 1715.7846,-391.9758 1709.8009,-395.6082"/>
</g>
<!-- Node15 -->
<g id="node11" class="node">
<title>Node15</title>
<g id="a_node11"><a xlink:href="M2NConfiguration_8cpp.html" target="_top" xlink:title="src/m2n/config/M2NConfiguration.cpp">
<polygon fill="#ffffff" stroke="#000000" points="2329.8459,-218 2329.8459,-237 2511.8459,-237 2511.8459,-218 2329.8459,-218"/>
<text text-anchor="middle" x="2420.8459" y="-225" font-family="Helvetica,sans-Serif" font-size="10.00" fill="#000000">src/m2n/config/M2NConfiguration.cpp</text>
</a>
</g>
</g>
<!-- Node9&#45;&gt;Node15 -->
<g id="edge10" class="edge">
<title>Node9&#45;&gt;Node15</title>
<path fill="none" stroke="#191970" d="M1769.8764,-399.8155C1899.8252,-365.4172 2267.6393,-268.0547 2384.6369,-237.0847"/>
<polygon fill="#191970" stroke="#191970" points="1768.6233,-396.5265 1759.8519,-402.469 1770.4146,-403.2935 1768.6233,-396.5265"/>
</g>
<!-- Node16 -->
<g id="node12" class="node">
<title>Node16</title>
<g id="a_node12"><a xlink:href="MappingConfiguration_8cpp.html" target="_top" xlink:title="src/mapping/config\l/MappingConfiguration.cpp">
<polygon fill="#ffffff" stroke="#000000" points="25.3459,-140 25.3459,-170 158.3459,-170 158.3459,-140 25.3459,-140"/>
<text text-anchor="start" x="33.3459" y="-158" font-family="Helvetica,sans-Serif" font-size="10.00" fill="#000000">src/mapping/config</text>
<text text-anchor="middle" x="91.8459" y="-147" font-family="Helvetica,sans-Serif" font-size="10.00" fill="#000000">/MappingConfiguration.cpp</text>
</a>
</g>
</g>
<!-- Node9&#45;&gt;Node16 -->
<g id="edge11" class="edge">
<title>Node9&#45;&gt;Node16</title>
<path fill="none" stroke="#191970" d="M1649.3939,-410.2419C1420.0792,-404.6616 726.4672,-386.5047 501.8459,-366 329.6501,-350.281 258.4642,-409.2104 116.8459,-310 78.8422,-283.3766 76.4296,-258.1907 80.8459,-212 82.208,-197.7536 85.4435,-181.7741 88.055,-170.3675"/>
<polygon fill="#191970" stroke="#191970" points="1649.5528,-413.7466 1659.6348,-410.4902 1649.7226,-406.7487 1649.5528,-413.7466"/>
</g>
<!-- Node17 -->
<g id="node13" class="node">
<title>Node17</title>
<g id="a_node13"><a xlink:href="DataConfiguration_8cpp.html" target="_top" xlink:title="src/mesh/config/DataConfiguration.cpp">
<polygon fill="#ffffff" stroke="#000000" points="4441.3459,-218 4441.3459,-237 4628.3459,-237 4628.3459,-218 4441.3459,-218"/>
<text text-anchor="middle" x="4534.8459" y="-225" font-family="Helvetica,sans-Serif" font-size="10.00" fill="#000000">src/mesh/config/DataConfiguration.cpp</text>
</a>
</g>
</g>
<!-- Node9&#45;&gt;Node17 -->
<g id="edge12" class="edge">
<title>Node9&#45;&gt;Node17</title>
<path fill="none" stroke="#191970" d="M1798.0904,-402.0211C2379.7064,-359.7292 3787.7891,-388.5394 4351.8459,-366 4540.9933,-358.4418 5072.4663,-448.1839 5201.8459,-310 5211.2626,-299.9425 5211.2238,-289.0937 5201.8459,-279 5164.7636,-239.0874 4767.1513,-247.3632 4712.8459,-243 4685.4816,-240.8014 4655.7643,-238.2705 4628.5911,-235.8998"/>
<polygon fill="#191970" stroke="#191970" points="1797.6071,-398.5472 1787.8929,-402.7763 1798.1242,-405.5281 1797.6071,-398.5472"/>
</g>
<!-- Node18 -->
<g id="node14" class="node">
<title>Node18</title>
<g id="a_node14"><a xlink:href="MeshConfiguration_8cpp.html" target="_top" xlink:title="src/mesh/config/MeshConfiguration.cpp">
<polygon fill="#ffffff" stroke="#000000" points="3843.8459,-218 3843.8459,-237 4033.8459,-237 4033.8459,-218 3843.8459,-218"/>
<text text-anchor="middle" x="3938.8459" y="-225" font-family="Helvetica,sans-Serif" font-size="10.00" fill="#000000">src/mesh/config/MeshConfiguration.cpp</text>
</a>
</g>
</g>
<!-- Node9&#45;&gt;Node18 -->
<g id="edge13" class="edge">
<title>Node9&#45;&gt;Node18</title>
<path fill="none" stroke="#191970" d="M1798.1563,-401.9898C2401.2461,-353.4499 2556.6868,-402.383 3156.8459,-366 3419.764,-350.0613 3491.6488,-375.2259 3746.8459,-310 3814.5102,-292.7057 3888.977,-254.7721 3921.7563,-237.0176"/>
<polygon fill="#191970" stroke="#191970" points="1797.581,-398.5249 1787.8965,-402.8215 1798.1466,-405.502 1797.581,-398.5249"/>
</g>
<!-- Node19 -->
<g id="node15" class="node">
<title>Node19</title>
<g id="a_node15"><a xlink:href="Configuration_8cpp.html" target="_top" xlink:title="src/precice/config\l/Configuration.cpp">
<polygon fill="#ffffff" stroke="#000000" points="4561.8459,-.5 4561.8459,-30.5 4657.8459,-30.5 4657.8459,-.5 4561.8459,-.5"/>
<text text-anchor="start" x="4569.8459" y="-18.5" font-family="Helvetica,sans-Serif" font-size="10.00" fill="#000000">src/precice/config</text>
<text text-anchor="middle" x="4609.8459" y="-7.5" font-family="Helvetica,sans-Serif" font-size="10.00" fill="#000000">/Configuration.cpp</text>
</a>
</g>
</g>
<!-- Node9&#45;&gt;Node19 -->
<g id="edge14" class="edge">
<title>Node9&#45;&gt;Node19</title>
<path fill="none" stroke="#191970" d="M1797.9177,-402.039C2519.8796,-350.7183 4284.2654,-446.6128 4984.8459,-366 5126.605,-349.6884 5297.8459,-437.1945 5297.8459,-294.5 5297.8459,-294.5 5297.8459,-294.5 5297.8459,-155 5297.8459,-89.6064 4814.265,-35.8104 4657.9513,-20.1294"/>
<polygon fill="#191970" stroke="#191970" points="1797.6128,-398.5518 1787.8922,-402.7661 1798.1192,-405.5335 1797.6128,-398.5518"/>
</g>
<!-- Node20 -->
<g id="node16" class="node">
<title>Node20</title>
<g id="a_node16"><a xlink:href="ParticipantConfiguration_8cpp.html" target="_top" xlink:title="src/precice/config\l/ParticipantConfiguration.cpp">
<polygon fill="#ffffff" stroke="#000000" points="1624.3459,-67.5 1624.3459,-97.5 1767.3459,-97.5 1767.3459,-67.5 1624.3459,-67.5"/>
<text text-anchor="start" x="1632.3459" y="-85.5" font-family="Helvetica,sans-Serif" font-size="10.00" fill="#000000">src/precice/config</text>
<text text-anchor="middle" x="1695.8459" y="-74.5" font-family="Helvetica,sans-Serif" font-size="10.00" fill="#000000">/ParticipantConfiguration.cpp</text>
</a>
</g>
</g>
<!-- Node9&#45;&gt;Node20 -->
<g id="edge15" class="edge">
<title>Node9&#45;&gt;Node20</title>
<path fill="none" stroke="#191970" d="M1649.4507,-410.7701C1407.2642,-406.5347 650.8344,-391.4009 543.8459,-366 456.2333,-345.1992 405.8181,-330.0685 382.8459,-243 325.9488,-27.3509 585.4454,-159.2826 789.8459,-134 1098.8406,-95.78 1470.6876,-85.8786 1624.2036,-83.3503"/>
<polygon fill="#191970" stroke="#191970" points="1649.5056,-414.2715 1659.5649,-410.9459 1649.6273,-407.2725 1649.5056,-414.2715"/>
</g>
<!-- Node21 -->
<g id="node17" class="node">
<title>Node21</title>
<g id="a_node17"><a xlink:href="SolverInterfaceConfiguration_8cpp.html" target="_top" xlink:title="src/precice/config\l/SolverInterfaceConfiguration.cpp">
<polygon fill="#ffffff" stroke="#000000" points="2985.8459,-67.5 2985.8459,-97.5 3147.8459,-97.5 3147.8459,-67.5 2985.8459,-67.5"/>
<text text-anchor="start" x="2993.8459" y="-85.5" font-family="Helvetica,sans-Serif" font-size="10.00" fill="#000000">src/precice/config</text>
<text text-anchor="middle" x="3066.8459" y="-74.5" font-family="Helvetica,sans-Serif" font-size="10.00" fill="#000000">/SolverInterfaceConfiguration.cpp</text>
</a>
</g>
</g>
<!-- Node9&#45;&gt;Node21 -->
<g id="edge16" class="edge">
<title>Node9&#45;&gt;Node21</title>
<path fill="none" stroke="#191970" d="M1798.049,-402.0175C3112.8286,-305.1483 3450.2902,-453.8794 4761.8459,-366 4966.4586,-352.2901 5083.9225,-463.5551 5219.8459,-310 5361.3424,-150.1488 3556.0591,-94.8458 3147.9017,-84.4221"/>
<polygon fill="#191970" stroke="#191970" points="1797.6067,-398.5406 1787.8924,-402.7692 1798.1235,-405.5215 1797.6067,-398.5406"/>
</g>
<!-- Node22 -->
<g id="node18" class="node">
<title>Node22</title>
<g id="a_node18"><a xlink:href="Printer_8cpp.html" target="_top" xlink:title="src/xml/Printer.cpp">
<polygon fill="#ffffff" stroke="#000000" points="5094.3459,-285 5094.3459,-304 5193.3459,-304 5193.3459,-285 5094.3459,-285"/>
<text text-anchor="middle" x="5143.8459" y="-292" font-family="Helvetica,sans-Serif" font-size="10.00" fill="#000000">src/xml/Printer.cpp</text>
</a>
</g>
</g>
<!-- Node9&#45;&gt;Node22 -->
<g id="edge17" class="edge">
<title>Node9&#45;&gt;Node22</title>
<path fill="none" stroke="#191970" d="M1797.908,-402.0207C2735.0321,-330.6042 2974.4156,-396.3478 3909.8459,-366 4430.1674,-349.1194 4564.5436,-384.0471 5079.8459,-310 5089.5777,-308.6016 5099.9936,-306.3935 5109.5357,-304.0775"/>
<polygon fill="#191970" stroke="#191970" points="1797.5975,-398.5342 1787.8938,-402.7871 1798.1317,-405.5138 1797.5975,-398.5342"/>
</g>
<!-- Node23 -->
<g id="node19" class="node">
<title>Node23</title>
<g id="a_node19"><a xlink:href="XMLTag_8hpp.html" target="_top" xlink:title="src/xml/XMLTag.hpp">
<polygon fill="#ffffff" stroke="#000000" points="2546.3459,-346.5 2546.3459,-365.5 2653.3459,-365.5 2653.3459,-346.5 2546.3459,-346.5"/>
<text text-anchor="middle" x="2599.8459" y="-353.5" font-family="Helvetica,sans-Serif" font-size="10.00" fill="#000000">src/xml/XMLTag.hpp</text>
</a>
</g>
</g>
<!-- Node9&#45;&gt;Node23 -->
<g id="edge20" class="edge">
<title>Node9&#45;&gt;Node23</title>
<path fill="none" stroke="#191970" d="M1798.1348,-401.9473C2086.2008,-374.4033 2418.4382,-361.7596 2546.1687,-357.611"/>
<polygon fill="#191970" stroke="#191970" points="1797.5244,-398.4899 1787.9065,-402.9335 1798.1962,-405.4576 1797.5244,-398.4899"/>
</g>
<!-- Node23&#45;&gt;Node6 -->
<g id="edge149" class="edge">
<title>Node23&#45;&gt;Node6</title>
<path fill="none" stroke="#191970" d="M2535.8597,-355.4976C2209.8486,-352.8099 745.3784,-339.1507 653.8459,-310 630.3548,-302.5187 629.846,-290.1264 607.8459,-279 571.8325,-260.7864 527.8194,-246.0457 498.0024,-237.0748"/>
<polygon fill="#191970" stroke="#191970" points="2536.0457,-358.9991 2546.074,-355.5812 2536.1031,-351.9993 2536.0457,-358.9991"/>
</g>
<!-- Node23&#45;&gt;Node7 -->
<g id="edge150" class="edge">
<title>Node23&#45;&gt;Node7</title>
<path fill="none" stroke="#191970" d="M2536.0264,-355.424C2240.5754,-352.6187 1003.6619,-339.3127 617.8459,-310 599.6228,-308.6155 579.9265,-306.3819 561.8629,-304.0361"/>
<polygon fill="#191970" stroke="#191970" points="2536.1038,-358.9248 2546.1364,-355.5194 2536.1699,-351.9251 2536.1038,-358.9248"/>
</g>
<!-- Node23&#45;&gt;Node10 -->
<g id="edge21" class="edge">
<title>Node23&#45;&gt;Node10</title>
<path fill="none" stroke="#191970" d="M2536.0074,-345.4351C2416.3098,-325.5952 2149.9993,-281.3089 1925.8459,-243 1921.3625,-242.2338 1916.7529,-241.4422 1912.103,-240.641"/>
<polygon fill="#191970" stroke="#191970" points="2535.6574,-348.9248 2546.0951,-347.1068 2536.8019,-342.0189 2535.6574,-348.9248"/>
</g>
<!-- Node23&#45;&gt;Node12 -->
<g id="edge46" class="edge">
<title>Node23&#45;&gt;Node12</title>
<path fill="none" stroke="#191970" d="M2535.9389,-355.6791C2326.2056,-354.2756 1660.253,-346.948 1448.8459,-310 1351.5056,-292.9877 1295.2498,-322.709 1236.8459,-243 1228.7027,-231.8862 1227.4846,-222.1091 1236.8459,-212 1258.8584,-188.2292 1702.5624,-166.6676 1892.6291,-158.4841"/>
<polygon fill="#191970" stroke="#191970" points="2536.144,-359.1804 2546.1665,-355.7452 2536.1894,-352.1805 2536.144,-359.1804"/>
</g>
<!-- Node23&#45;&gt;Node13 -->
<g id="edge69" class="edge">
<title>Node23&#45;&gt;Node13</title>
<path fill="none" stroke="#191970" d="M2536.1199,-354.8856C2274.9148,-350.1849 1297.0181,-331.2373 1234.8459,-310 1212.551,-302.3843 1211.6832,-291.7099 1191.8459,-279 1167.3899,-263.3309 1137.957,-247.131 1119.3215,-237.1845"/>
<polygon fill="#191970" stroke="#191970" points="2536.14,-358.3864 2546.2012,-355.0663 2536.2656,-351.3875 2536.14,-358.3864"/>
</g>
<!-- Node23&#45;&gt;Node16 -->
<g id="edge96" class="edge">
<title>Node23&#45;&gt;Node16</title>
<path fill="none" stroke="#191970" d="M2535.9457,-355.7877C2165.6601,-354.4307 307.7605,-345.8511 192.8459,-310 141.4227,-293.957 117.3181,-290.4647 91.8459,-243 79.4923,-219.9804 83.6423,-188.4495 87.7601,-170.0488"/>
<polygon fill="#191970" stroke="#191970" points="2536.1965,-359.2885 2546.2091,-355.8248 2536.2219,-352.2885 2536.1965,-359.2885"/>
</g>
<!-- Node23&#45;&gt;Node22 -->
<g id="edge148" class="edge">
<title>Node23&#45;&gt;Node22</title>
<path fill="none" stroke="#191970" d="M2663.6099,-355.6527C3027.5238,-353.559 4834.2208,-341.6326 5079.8459,-310 5089.9373,-308.7004 5100.7474,-306.431 5110.5568,-304.0232"/>
<polygon fill="#191970" stroke="#191970" points="2663.4974,-352.1532 2653.5176,-355.7103 2663.5375,-359.153 2663.4974,-352.1532"/>
</g>
<!-- Node24 -->
<g id="node20" class="node">
<title>Node24</title>
<g id="a_node20"><a xlink:href="AccelerationConfiguration_8hpp.html" target="_top" xlink:title="src/acceleration/config\l/AccelerationConfiguration.hpp">
<polygon fill="#ffffff" stroke="#000000" points="2432.8459,-279.5 2432.8459,-309.5 2582.8459,-309.5 2582.8459,-279.5 2432.8459,-279.5"/>
<text text-anchor="start" x="2440.8459" y="-297.5" font-family="Helvetica,sans-Serif" font-size="10.00" fill="#000000">src/acceleration/config</text>
<text text-anchor="middle" x="2507.8459" y="-286.5" font-family="Helvetica,sans-Serif" font-size="10.00" fill="#000000">/AccelerationConfiguration.hpp</text>
</a>
</g>
</g>
<!-- Node23&#45;&gt;Node24 -->
<g id="edge22" class="edge">
<title>Node23&#45;&gt;Node24</title>
<path fill="none" stroke="#191970" d="M2576.7844,-340.5839C2562.5795,-331.0882 2544.4525,-318.9707 2530.3516,-309.5446"/>
<polygon fill="#191970" stroke="#191970" points="2575.2122,-343.7429 2585.4709,-346.3906 2579.1024,-337.9234 2575.2122,-343.7429"/>
</g>
<!-- Node25 -->
<g id="node21" class="node">
<title>Node25</title>
<g id="a_node21"><a xlink:href="ParallelImplicitCouplingSchemeTest_8cpp.html" target="_top" xlink:title="src/cplscheme/tests\l/ParallelImplicitCouplingScheme\lTest.cpp">
<polygon fill="#ffffff" stroke="#000000" points="2704.8459,-134.5 2704.8459,-175.5 2862.8459,-175.5 2862.8459,-134.5 2704.8459,-134.5"/>
<text text-anchor="start" x="2712.8459" y="-163.5" font-family="Helvetica,sans-Serif" font-size="10.00" fill="#000000">src/cplscheme/tests</text>
<text text-anchor="start" x="2712.8459" y="-152.5" font-family="Helvetica,sans-Serif" font-size="10.00" fill="#000000">/ParallelImplicitCouplingScheme</text>
<text text-anchor="middle" x="2783.8459" y="-141.5" font-family="Helvetica,sans-Serif" font-size="10.00" fill="#000000">Test.cpp</text>
</a>
</g>
</g>
<!-- Node23&#45;&gt;Node25 -->
<g id="edge49" class="edge">
<title>Node23&#45;&gt;Node25</title>
<path fill="none" stroke="#191970" d="M2663.4613,-349.211C2713.0072,-342.457 2775.959,-330.1427 2791.8459,-310 2807.8235,-289.7423 2795.4205,-213.058 2788.1563,-175.7023"/>
<polygon fill="#191970" stroke="#191970" points="2662.8908,-345.7558 2653.4319,-350.5285 2663.8026,-352.6962 2662.8908,-345.7558"/>
</g>
<!-- Node26 -->
<g id="node22" class="node">
<title>Node26</title>
<g id="a_node22"><a xlink:href="SerialImplicitCouplingSchemeTest_8cpp.html" target="_top" xlink:title="src/cplscheme/tests\l/SerialImplicitCouplingScheme\lTest.cpp">
<polygon fill="#ffffff" stroke="#000000" points="3084.8459,-134.5 3084.8459,-175.5 3234.8459,-175.5 3234.8459,-134.5 3084.8459,-134.5"/>
<text text-anchor="start" x="3092.8459" y="-163.5" font-family="Helvetica,sans-Serif" font-size="10.00" fill="#000000">src/cplscheme/tests</text>
<text text-anchor="start" x="3092.8459" y="-152.5" font-family="Helvetica,sans-Serif" font-size="10.00" fill="#000000">/SerialImplicitCouplingScheme</text>
<text text-anchor="middle" x="3159.8459" y="-141.5" font-family="Helvetica,sans-Serif" font-size="10.00" fill="#000000">Test.cpp</text>
</a>
</g>
</g>
<!-- Node23&#45;&gt;Node26 -->
<g id="edge50" class="edge">
<title>Node23&#45;&gt;Node26</title>
<path fill="none" stroke="#191970" d="M2663.9764,-352.4386C2795.5801,-343.6803 3089.0851,-316.2135 3151.8459,-243 3167.621,-224.5976 3166.971,-195.3897 3164.1617,-175.7241"/>
<polygon fill="#191970" stroke="#191970" points="2663.4005,-348.9686 2653.6485,-353.1096 2663.8544,-355.9539 2663.4005,-348.9686"/>
</g>
<!-- Node27 -->
<g id="node23" class="node">
<title>Node27</title>
<g id="a_node23"><a xlink:href="ActionConfiguration_8hpp.html" target="_top" xlink:title="src/action/config/Action\lConfiguration.hpp">
<polygon fill="#ffffff" stroke="#000000" points="3591.3459,-279.5 3591.3459,-309.5 3710.3459,-309.5 3710.3459,-279.5 3591.3459,-279.5"/>
<text text-anchor="start" x="3599.3459" y="-297.5" font-family="Helvetica,sans-Serif" font-size="10.00" fill="#000000">src/action/config/Action</text>
<text text-anchor="middle" x="3650.8459" y="-286.5" font-family="Helvetica,sans-Serif" font-size="10.00" fill="#000000">Configuration.hpp</text>
</a>
</g>
</g>
<!-- Node23&#45;&gt;Node27 -->
<g id="edge27" class="edge">
<title>Node23&#45;&gt;Node27</title>
<path fill="none" stroke="#191970" d="M2663.3558,-354.4715C2851.3966,-349.7169 3403.2994,-334.0493 3581.8459,-310 3584.8878,-309.5903 3587.9937,-309.1127 3591.122,-308.5846"/>
<polygon fill="#191970" stroke="#191970" points="2663.2597,-350.9728 2653.3508,-354.7229 2663.4356,-357.9705 2663.2597,-350.9728"/>
</g>
<!-- Node28 -->
<g id="node24" class="node">
<title>Node28</title>
<g id="a_node24"><a xlink:href="ScaleActionTest_8cpp.html" target="_top" xlink:title="src/action/tests/ScaleAction\lTest.cpp">
<polygon fill="#ffffff" stroke="#000000" points="4207.8459,-212.5 4207.8459,-242.5 4347.8459,-242.5 4347.8459,-212.5 4207.8459,-212.5"/>
<text text-anchor="start" x="4215.8459" y="-230.5" font-family="Helvetica,sans-Serif" font-size="10.00" fill="#000000">src/action/tests/ScaleAction</text>
<text text-anchor="middle" x="4277.8459" y="-219.5" font-family="Helvetica,sans-Serif" font-size="10.00" fill="#000000">Test.cpp</text>
</a>
</g>
</g>
<!-- Node23&#45;&gt;Node28 -->
<g id="edge32" class="edge">
<title>Node23&#45;&gt;Node28</title>
<path fill="none" stroke="#191970" d="M2663.6781,-354.5511C2877.0424,-349.5464 3564.3913,-332.0775 3784.8459,-310 3936.6034,-294.8022 4112.3487,-261.5882 4207.62,-242.2581"/>
<polygon fill="#191970" stroke="#191970" points="2663.4962,-351.0543 2653.5807,-354.7869 2663.6598,-358.0524 2663.4962,-351.0543"/>
</g>
<!-- Node29 -->
<g id="node25" class="node">
<title>Node29</title>
<g id="a_node25"><a xlink:href="SummationActionTest_8cpp.html" target="_top" xlink:title="src/action/tests/Summation\lActionTest.cpp">
<polygon fill="#ffffff" stroke="#000000" points="4052.3459,-212.5 4052.3459,-242.5 4189.3459,-242.5 4189.3459,-212.5 4052.3459,-212.5"/>
<text text-anchor="start" x="4060.3459" y="-230.5" font-family="Helvetica,sans-Serif" font-size="10.00" fill="#000000">src/action/tests/Summation</text>
<text text-anchor="middle" x="4120.8459" y="-219.5" font-family="Helvetica,sans-Serif" font-size="10.00" fill="#000000">ActionTest.cpp</text>
</a>
</g>
</g>
<!-- Node23&#45;&gt;Node29 -->
<g id="edge33" class="edge">
<title>Node23&#45;&gt;Node29</title>
<path fill="none" stroke="#191970" d="M2663.7164,-355.4579C2869.4921,-353.3843 3513.6278,-344.2536 3718.8459,-310 3766.4197,-302.0593 3775.8399,-289.8053 3822.8459,-279 3919.4058,-256.8037 3945.3539,-260.6581 4042.8459,-243 4045.8347,-242.4587 4048.8858,-241.8959 4051.9665,-241.3194"/>
<polygon fill="#191970" stroke="#191970" points="2663.6388,-351.9584 2653.6738,-355.557 2663.7079,-358.9581 2663.6388,-351.9584"/>
</g>
<!-- Node30 -->
<g id="node26" class="node">
<title>Node30</title>
<g id="a_node26"><a xlink:href="CommunicationConfiguration_8hpp.html" target="_top" xlink:title="src/com/config/Communication\lConfiguration.hpp">
<polygon fill="#ffffff" stroke="#000000" points="697.8459,-279.5 697.8459,-309.5 849.8459,-309.5 849.8459,-279.5 697.8459,-279.5"/>
<text text-anchor="start" x="705.8459" y="-297.5" font-family="Helvetica,sans-Serif" font-size="10.00" fill="#000000">src/com/config/Communication</text>
<text text-anchor="middle" x="773.8459" y="-286.5" font-family="Helvetica,sans-Serif" font-size="10.00" fill="#000000">Configuration.hpp</text>
</a>
</g>
</g>
<!-- Node23&#45;&gt;Node30 -->
<g id="edge34" class="edge">
<title>Node23&#45;&gt;Node30</title>
<path fill="none" stroke="#191970" d="M2535.9227,-354.9439C2268.7824,-350.4238 1240.6022,-331.9348 916.8459,-310 895.1701,-308.5314 871.7115,-306.2709 850.1852,-303.9263"/>
<polygon fill="#191970" stroke="#191970" points="2536.1609,-358.4484 2546.2185,-355.1176 2536.279,-351.4494 2536.1609,-358.4484"/>
</g>
<!-- Node31 -->
<g id="node27" class="node">
<title>Node31</title>
<g id="a_node27"><a xlink:href="CommunicationConfiguration_8cpp.html" target="_top" xlink:title="src/com/config/Communication\lConfiguration.cpp">
<polygon fill="#ffffff" stroke="#000000" points="553.8459,-212.5 553.8459,-242.5 705.8459,-242.5 705.8459,-212.5 553.8459,-212.5"/>
<text text-anchor="start" x="561.8459" y="-230.5" font-family="Helvetica,sans-Serif" font-size="10.00" fill="#000000">src/com/config/Communication</text>
<text text-anchor="middle" x="629.8459" y="-219.5" font-family="Helvetica,sans-Serif" font-size="10.00" fill="#000000">Configuration.cpp</text>
</a>
</g>
</g>
<!-- Node23&#45;&gt;Node31 -->
<g id="edge37" class="edge">
<title>Node23&#45;&gt;Node31</title>
<path fill="none" stroke="#191970" d="M2535.7422,-355.2392C2207.7,-351.2499 730.5522,-332.0863 688.8459,-310 661.6135,-295.5786 644.0422,-262.3217 635.6491,-242.7201"/>
<polygon fill="#191970" stroke="#191970" points="2535.9772,-358.7422 2546.0189,-355.3638 2536.0621,-351.7427 2535.9772,-358.7422"/>
</g>
<!-- Node32 -->
<g id="node28" class="node">
<title>Node32</title>
<g id="a_node28"><a xlink:href="CouplingSchemeConfiguration_8hpp.html" target="_top" xlink:title="src/cplscheme/config\l/CouplingSchemeConfiguration.hpp">
<polygon fill="#ffffff" stroke="#000000" points="2947.8459,-212.5 2947.8459,-242.5 3117.8459,-242.5 3117.8459,-212.5 2947.8459,-212.5"/>
<text text-anchor="start" x="2955.8459" y="-230.5" font-family="Helvetica,sans-Serif" font-size="10.00" fill="#000000">src/cplscheme/config</text>
<text text-anchor="middle" x="3032.8459" y="-219.5" font-family="Helvetica,sans-Serif" font-size="10.00" fill="#000000">/CouplingSchemeConfiguration.hpp</text>
</a>
</g>
</g>
<!-- Node23&#45;&gt;Node32 -->
<g id="edge38" class="edge">
<title>Node23&#45;&gt;Node32</title>
<path fill="none" stroke="#191970" d="M2663.7015,-346.0308C2709.1489,-338.1903 2771.3835,-325.9325 2824.8459,-310 2888.3227,-291.083 2959.5104,-260.769 2999.981,-242.6302"/>
<polygon fill="#191970" stroke="#191970" points="2662.9606,-342.6064 2653.689,-347.7336 2664.1343,-349.5074 2662.9606,-342.6064"/>
</g>
<!-- Node33 -->
<g id="node29" class="node">
<title>Node33</title>
<g id="a_node29"><a xlink:href="CompositionalCouplingSchemeTest_8cpp.html" target="_top" xlink:title="src/cplscheme/tests\l/CompositionalCouplingScheme\lTest.cpp">
<polygon fill="#ffffff" stroke="#000000" points="3324.8459,-134.5 3324.8459,-175.5 3480.8459,-175.5 3480.8459,-134.5 3324.8459,-134.5"/>
<text text-anchor="start" x="3332.8459" y="-163.5" font-family="Helvetica,sans-Serif" font-size="10.00" fill="#000000">src/cplscheme/tests</text>
<text text-anchor="start" x="3332.8459" y="-152.5" font-family="Helvetica,sans-Serif" font-size="10.00" fill="#000000">/CompositionalCouplingScheme</text>
<text text-anchor="middle" x="3402.8459" y="-141.5" font-family="Helvetica,sans-Serif" font-size="10.00" fill="#000000">Test.cpp</text>
</a>
</g>
</g>
<!-- Node23&#45;&gt;Node33 -->
<g id="edge47" class="edge">
<title>Node23&#45;&gt;Node33</title>
<path fill="none" stroke="#191970" d="M2663.7586,-355.812C2954.3216,-354.7521 4152.5901,-348.1093 4525.8459,-310 4691.6653,-293.0699 4788.0299,-370.9573 4894.8459,-243 4903.6752,-232.4231 4904.4627,-221.8663 4894.8459,-212 4840.3459,-156.0856 3567.2557,-186.2174 3489.8459,-176 3486.9191,-175.6137 3483.9475,-175.169 3480.9538,-174.6768"/>
<polygon fill="#191970" stroke="#191970" points="2663.393,-352.3132 2653.4055,-355.8488 2663.4179,-359.3132 2663.393,-352.3132"/>
</g>
<!-- Node34 -->
<g id="node30" class="node">
<title>Node34</title>
<g id="a_node30"><a xlink:href="ExplicitCouplingSchemeTest_8cpp.html" target="_top" xlink:title="src/cplscheme/tests\l/ExplicitCouplingSchemeTest.cpp">
<polygon fill="#ffffff" stroke="#000000" points="3498.8459,-140 3498.8459,-170 3662.8459,-170 3662.8459,-140 3498.8459,-140"/>
<text text-anchor="start" x="3506.8459" y="-158" font-family="Helvetica,sans-Serif" font-size="10.00" fill="#000000">src/cplscheme/tests</text>
<text text-anchor="middle" x="3580.8459" y="-147" font-family="Helvetica,sans-Serif" font-size="10.00" fill="#000000">/ExplicitCouplingSchemeTest.cpp</text>
</a>
</g>
</g>
<!-- Node23&#45;&gt;Node34 -->
<g id="edge48" class="edge">
<title>Node23&#45;&gt;Node34</title>
<path fill="none" stroke="#191970" d="M2663.8068,-355.716C2994.3458,-354.0994 4501.4893,-344.8578 4706.8459,-310 4801.7645,-293.8883 4856.2674,-320.8975 4912.8459,-243 4920.9426,-231.8524 4922.4414,-221.887 4912.8459,-212 4866.2789,-164.0186 3776.4035,-182.3854 3709.8459,-176 3694.5997,-174.5373 3678.4251,-172.386 3662.8715,-170.0108"/>
<polygon fill="#191970" stroke="#191970" points="2663.4413,-352.2177 2653.4584,-355.766 2663.4752,-359.2176 2663.4413,-352.2177"/>
</g>
<!-- Node35 -->
<g id="node31" class="node">
<title>Node35</title>
<g id="a_node31"><a xlink:href="SolverInterfaceImpl_8cpp.html" target="_top" xlink:title="src/precice/impl/SolverInterface\lImpl.cpp">
<polygon fill="#ffffff" stroke="#000000" points="2757.3459,-.5 2757.3459,-30.5 2912.3459,-30.5 2912.3459,-.5 2757.3459,-.5"/>
<text text-anchor="start" x="2765.3459" y="-18.5" font-family="Helvetica,sans-Serif" font-size="10.00" fill="#000000">src/precice/impl/SolverInterface</text>
<text text-anchor="middle" x="2834.8459" y="-7.5" font-family="Helvetica,sans-Serif" font-size="10.00" fill="#000000">Impl.cpp</text>
</a>
</g>
</g>
<!-- Node23&#45;&gt;Node35 -->
<g id="edge130" class="edge">
<title>Node23&#45;&gt;Node35</title>
<path fill="none" stroke="#191970" d="M2663.8017,-355.4541C3031.1183,-352.2299 4857.8056,-334.9621 4909.8459,-310 4944.838,-293.2153 4952.6074,-279.4817 4965.8459,-243 5013.5819,-111.4521 4794.5278,-145.5073 4740.8459,-134 4382.8326,-57.2562 3223.7533,-24.7276 2912.4255,-17.2461"/>
<polygon fill="#191970" stroke="#191970" points="2663.585,-351.9557 2653.6161,-355.5432 2663.6463,-358.9555 2663.585,-351.9557"/>
</g>
<!-- Node36 -->
<g id="node32" class="node">
<title>Node36</title>
<g id="a_node32"><a xlink:href="ExportConfiguration_8hpp.html" target="_top" xlink:title="src/io/config/ExportConfiguration.hpp">
<polygon fill="#ffffff" stroke="#000000" points="1004.8459,-285 1004.8459,-304 1182.8459,-304 1182.8459,-285 1004.8459,-285"/>
<text text-anchor="middle" x="1093.8459" y="-292" font-family="Helvetica,sans-Serif" font-size="10.00" fill="#000000">src/io/config/ExportConfiguration.hpp</text>
</a>
</g>
</g>
<!-- Node23&#45;&gt;Node36 -->
<g id="edge51" class="edge">
<title>Node23&#45;&gt;Node36</title>
<path fill="none" stroke="#191970" d="M2535.8276,-354.8941C2297.5498,-350.6231 1462.1443,-334.2277 1196.8459,-310 1181.2687,-308.5774 1164.4587,-306.3466 1149.0276,-304.0161"/>
<polygon fill="#191970" stroke="#191970" points="2535.9939,-358.3975 2546.0547,-355.0765 2536.1188,-351.3986 2535.9939,-358.3975"/>
</g>
<!-- Node37 -->
<g id="node33" class="node">
<title>Node37</title>
<g id="a_node33"><a xlink:href="ExportConfigurationTest_8cpp.html" target="_top" xlink:title="src/io/tests/ExportConfiguration\lTest.cpp">
<polygon fill="#ffffff" stroke="#000000" points="800.3459,-212.5 800.3459,-242.5 955.3459,-242.5 955.3459,-212.5 800.3459,-212.5"/>
<text text-anchor="start" x="808.3459" y="-230.5" font-family="Helvetica,sans-Serif" font-size="10.00" fill="#000000">src/io/tests/ExportConfiguration</text>
<text text-anchor="middle" x="877.8459" y="-219.5" font-family="Helvetica,sans-Serif" font-size="10.00" fill="#000000">Test.cpp</text>
</a>
</g>
</g>
<!-- Node23&#45;&gt;Node37 -->
<g id="edge70" class="edge">
<title>Node23&#45;&gt;Node37</title>
<path fill="none" stroke="#191970" d="M2535.7673,-355.1896C2246.1159,-351.3953 1070.0212,-334.5327 995.8459,-310 954.0772,-296.1855 913.967,-262.3718 892.9771,-242.5873"/>
<polygon fill="#191970" stroke="#191970" points="2536.051,-358.6935 2546.0958,-355.3243 2536.1424,-351.6941 2536.051,-358.6935"/>
</g>
<!-- Node39 -->
<g id="node35" class="node">
<title>Node39</title>
<g id="a_node35"><a xlink:href="ParticipantConfiguration_8hpp.html" target="_top" xlink:title="src/precice/config\l/ParticipantConfiguration.hpp">
<polygon fill="#ffffff" stroke="#000000" points="2380.3459,-140 2380.3459,-170 2523.3459,-170 2523.3459,-140 2380.3459,-140"/>
<text text-anchor="start" x="2388.3459" y="-158" font-family="Helvetica,sans-Serif" font-size="10.00" fill="#000000">src/precice/config</text>
<text text-anchor="middle" x="2451.8459" y="-147" font-family="Helvetica,sans-Serif" font-size="10.00" fill="#000000">/ParticipantConfiguration.hpp</text>
</a>
</g>
</g>
<!-- Node23&#45;&gt;Node39 -->
<g id="edge128" class="edge">
<title>Node23&#45;&gt;Node39</title>
<path fill="none" stroke="#191970" d="M2536.3347,-347.64C2491.7703,-340.3198 2437.7538,-328.0101 2423.8459,-310 2375.2576,-247.0803 2500.9287,-271.6366 2520.8459,-243 2539.2475,-216.5425 2504.772,-187.3956 2478.257,-170.1718"/>
<polygon fill="#191970" stroke="#191970" points="2535.8373,-351.1047 2546.2623,-349.2155 2536.9346,-344.1913 2535.8373,-351.1047"/>
</g>
<!-- Node40 -->
<g id="node36" class="node">
<title>Node40</title>
<g id="a_node36"><a xlink:href="SolverInterfaceConfiguration_8hpp.html" target="_top" xlink:title="src/precice/config\l/SolverInterfaceConfiguration.hpp">
<polygon fill="#ffffff" stroke="#000000" points="3718.8459,-140 3718.8459,-170 3880.8459,-170 3880.8459,-140 3718.8459,-140"/>
<text text-anchor="start" x="3726.8459" y="-158" font-family="Helvetica,sans-Serif" font-size="10.00" fill="#000000">src/precice/config</text>
<text text-anchor="middle" x="3799.8459" y="-147" font-family="Helvetica,sans-Serif" font-size="10.00" fill="#000000">/SolverInterfaceConfiguration.hpp</text>
</a>
</g>
</g>
<!-- Node23&#45;&gt;Node40 -->
<g id="edge129" class="edge">
<title>Node23&#45;&gt;Node40</title>
<path fill="none" stroke="#191970" d="M2663.6182,-355.51C3014.6674,-352.707 4699.6648,-337.8421 4805.8459,-310 4866.8175,-294.0124 4898.4718,-297.0838 4930.8459,-243 4937.9222,-231.1783 4940.411,-221.9164 4930.8459,-212 4892.3288,-172.0685 3988.0692,-181.3361 3932.8459,-176 3915.9766,-174.37 3897.9951,-171.9789 3880.8842,-169.3886"/>
<polygon fill="#191970" stroke="#191970" points="2663.3538,-352.0119 2653.382,-355.5913 2663.4095,-359.0117 2663.3538,-352.0119"/>
</g>
<!-- Node41 -->
<g id="node37" class="node">
<title>Node41</title>
<g id="a_node37"><a xlink:href="Configuration_8hpp.html" target="_top" xlink:title="src/precice/config\l/Configuration.hpp">
<polygon fill="#ffffff" stroke="#ff0000" points="3860.8459,-67.5 3860.8459,-97.5 3956.8459,-97.5 3956.8459,-67.5 3860.8459,-67.5"/>
<text text-anchor="start" x="3868.8459" y="-85.5" font-family="Helvetica,sans-Serif" font-size="10.00" fill="#000000">src/precice/config</text>
<text text-anchor="middle" x="3908.8459" y="-74.5" font-family="Helvetica,sans-Serif" font-size="10.00" fill="#000000">/Configuration.hpp</text>
</a>
</g>
</g>
<!-- Node23&#45;&gt;Node41 -->
<g id="edge127" class="edge">
<title>Node23&#45;&gt;Node41</title>
<path fill="none" stroke="#191970" d="M2663.422,-355.2799C3025.5587,-351.1083 4813.7316,-329.5495 4866.8459,-310 4911.0121,-293.744 4928.678,-285.5226 4948.8459,-243 4954.7501,-230.5514 4957.9665,-222.3267 4948.8459,-212 4882.1859,-136.5247 4153.1166,-94.7451 3957.1171,-84.8241"/>
<polygon fill="#191970" stroke="#191970" points="2663.3356,-351.7805 2653.3765,-355.3953 2663.4161,-358.7801 2663.3356,-351.7805"/>
</g>
<!-- Node47 -->
<g id="node38" class="node">
<title>Node47</title>
<g id="a_node38"><a xlink:href="config_2LogConfiguration_8hpp.html" target="_top" xlink:title="src/logging/config\l/LogConfiguration.hpp">
<polygon fill="#ffffff" stroke="#000000" points="3214.8459,-279.5 3214.8459,-309.5 3326.8459,-309.5 3326.8459,-279.5 3214.8459,-279.5"/>
<text text-anchor="start" x="3222.8459" y="-297.5" font-family="Helvetica,sans-Serif" font-size="10.00" fill="#000000">src/logging/config</text>
<text text-anchor="middle" x="3270.8459" y="-286.5" font-family="Helvetica,sans-Serif" font-size="10.00" fill="#000000">/LogConfiguration.hpp</text>
</a>
</g>
</g>
<!-- Node23&#45;&gt;Node47 -->
<g id="edge71" class="edge">
<title>Node23&#45;&gt;Node47</title>
<path fill="none" stroke="#191970" d="M2663.8754,-354.0738C2774.0923,-350.0955 3006.554,-338.7985 3200.8459,-310 3205.4016,-309.3247 3210.1026,-308.5209 3214.8118,-307.6397"/>
<polygon fill="#191970" stroke="#191970" points="2663.4666,-350.5859 2653.5962,-354.4363 2663.7134,-357.5816 2663.4666,-350.5859"/>
</g>
<!-- Node48 -->
<g id="node39" class="node">
<title>Node48</title>
<g id="a_node39"><a xlink:href="M2NConfiguration_8hpp.html" target="_top" xlink:title="src/m2n/config/M2NConfiguration.hpp">
<polygon fill="#ffffff" stroke="#000000" points="2600.8459,-285 2600.8459,-304 2782.8459,-304 2782.8459,-285 2600.8459,-285"/>
<text text-anchor="middle" x="2691.8459" y="-292" font-family="Helvetica,sans-Serif" font-size="10.00" fill="#000000">src/m2n/config/M2NConfiguration.hpp</text>
</a>
</g>
</g>
<!-- Node23&#45;&gt;Node48 -->
<g id="edge74" class="edge">
<title>Node23&#45;&gt;Node48</title>
<path fill="none" stroke="#191970" d="M2622.605,-340.786C2639.8077,-329.2864 2662.8921,-313.855 2677.5718,-304.0419"/>
<polygon fill="#191970" stroke="#191970" points="2620.5893,-337.9234 2614.2209,-346.3906 2624.4796,-343.7429 2620.5893,-337.9234"/>
</g>
<!-- Node51 -->
<g id="node41" class="node">
<title>Node51</title>
<g id="a_node41"><a xlink:href="MappingConfiguration_8hpp.html" target="_top" xlink:title="src/mapping/config\l/MappingConfiguration.hpp">
<polygon fill="#ffffff" stroke="#ff0000" points="202.3459,-279.5 202.3459,-309.5 335.3459,-309.5 335.3459,-279.5 202.3459,-279.5"/>
<text text-anchor="start" x="210.3459" y="-297.5" font-family="Helvetica,sans-Serif" font-size="10.00" fill="#000000">src/mapping/config</text>
<text text-anchor="middle" x="268.8459" y="-286.5" font-family="Helvetica,sans-Serif" font-size="10.00" fill="#000000">/MappingConfiguration.hpp</text>
</a>
</g>
</g>
<!-- Node23&#45;&gt;Node51 -->
<g id="edge87" class="edge">
<title>Node23&#45;&gt;Node51</title>
<path fill="none" stroke="#191970" d="M2535.9399,-355.3466C2222.7895,-352.0386 848.189,-336.2569 420.8459,-310 392.9139,-308.2838 362.1892,-305.3497 335.7174,-302.493"/>
<polygon fill="#191970" stroke="#191970" points="2536.1602,-358.8491 2546.1965,-355.4545 2536.2339,-351.8494 2536.1602,-358.8491"/>
</g>
<!-- Node55 -->
<g id="node44" class="node">
<title>Node55</title>
<g id="a_node44"><a xlink:href="MappingConfigurationTest_8cpp.html" target="_top" xlink:title="src/mapping/tests/Mapping\lConfigurationTest.cpp">
<polygon fill="#ffffff" stroke="#000000" points="3287.8459,-212.5 3287.8459,-242.5 3421.8459,-242.5 3421.8459,-212.5 3287.8459,-212.5"/>
<text text-anchor="start" x="3295.8459" y="-230.5" font-family="Helvetica,sans-Serif" font-size="10.00" fill="#000000">src/mapping/tests/Mapping</text>
<text text-anchor="middle" x="3354.8459" y="-219.5" font-family="Helvetica,sans-Serif" font-size="10.00" fill="#000000">ConfigurationTest.cpp</text>
</a>
</g>
</g>
<!-- Node23&#45;&gt;Node55 -->
<g id="edge97" class="edge">
<title>Node23&#45;&gt;Node55</title>
<path fill="none" stroke="#191970" d="M2663.5934,-354.0734C2837.7599,-348.5381 3310.3877,-331.5929 3335.8459,-310 3355.2375,-293.5527 3357.097,-261.6588 3356.2645,-242.7066"/>
<polygon fill="#191970" stroke="#191970" points="2663.4308,-350.5767 2653.5463,-354.3905 2663.6517,-357.5732 2663.4308,-350.5767"/>
</g>
<!-- Node60 -->
<g id="node45" class="node">
<title>Node60</title>
<g id="a_node45"><a xlink:href="DataConfiguration_8hpp.html" target="_top" xlink:title="src/mesh/config/DataConfiguration.hpp">
<polygon fill="#ffffff" stroke="#ff0000" points="4233.3459,-285 4233.3459,-304 4420.3459,-304 4420.3459,-285 4233.3459,-285"/>
<text text-anchor="middle" x="4326.8459" y="-292" font-family="Helvetica,sans-Serif" font-size="10.00" fill="#000000">src/mesh/config/DataConfiguration.hpp</text>
</a>
</g>
</g>
<!-- Node23&#45;&gt;Node60 -->
<g id="edge98" class="edge">
<title>Node23&#45;&gt;Node60</title>
<path fill="none" stroke="#191970" d="M2663.533,-353.732C2925.6149,-344.3991 3921.6409,-308.9297 4233.1489,-297.8366"/>
<polygon fill="#191970" stroke="#191970" points="2663.2944,-350.2382 2653.4253,-354.092 2663.5436,-357.2338 2663.2944,-350.2382"/>
</g>
<!-- Node61 -->
<g id="node46" class="node">
<title>Node61</title>
<g id="a_node46"><a xlink:href="DataConfigurationTest_8cpp.html" target="_top" xlink:title="src/mesh/tests/DataConfiguration\lTest.cpp">
<polygon fill="#ffffff" stroke="#000000" points="4721.8459,-212.5 4721.8459,-242.5 4885.8459,-242.5 4885.8459,-212.5 4721.8459,-212.5"/>
<text text-anchor="start" x="4729.8459" y="-230.5" font-family="Helvetica,sans-Serif" font-size="10.00" fill="#000000">src/mesh/tests/DataConfiguration</text>
<text text-anchor="middle" x="4803.8459" y="-219.5" font-family="Helvetica,sans-Serif" font-size="10.00" fill="#000000">Test.cpp</text>
</a>
</g>
</g>
<!-- Node23&#45;&gt;Node61 -->
<g id="edge126" class="edge">
<title>Node23&#45;&gt;Node61</title>
<path fill="none" stroke="#191970" d="M2664.1704,-355.1132C2967.8938,-350.8276 4251.1232,-331.5825 4428.8459,-310 4545.1483,-295.8763 4678.5049,-262.2617 4750.6846,-242.5748"/>
<polygon fill="#191970" stroke="#191970" points="2663.7324,-351.619 2653.7827,-355.2594 2663.8309,-358.6183 2663.7324,-351.619"/>
</g>
<!-- Node62 -->
<g id="node47" class="node">
<title>Node62</title>
<g id="a_node47"><a xlink:href="MeshConfiguration_8hpp.html" target="_top" xlink:title="src/mesh/config/MeshConfiguration.hpp">
<polygon fill="#ffffff" stroke="#ff0000" points="3382.8459,-285 3382.8459,-304 3572.8459,-304 3572.8459,-285 3382.8459,-285"/>
<text text-anchor="middle" x="3477.8459" y="-292" font-family="Helvetica,sans-Serif" font-size="10.00" fill="#000000">src/mesh/config/MeshConfiguration.hpp</text>
</a>
</g>
</g>
<!-- Node23&#45;&gt;Node62 -->
<g id="edge110" class="edge">
<title>Node23&#45;&gt;Node62</title>
<path fill="none" stroke="#191970" d="M2663.9045,-353.9342C2795.9932,-349.2855 3108.1023,-336.2935 3368.8459,-310 3384.5354,-308.4179 3401.4327,-306.2457 3417.1299,-304.0281"/>
<polygon fill="#191970" stroke="#191970" points="2663.446,-350.4479 2653.5738,-354.2936 2663.6894,-357.4437 2663.446,-350.4479"/>
</g>
<!-- Node63 -->
<g id="node48" class="node">
<title>Node63</title>
<g id="a_node48"><a xlink:href="ConfigParser_8cpp.html" target="_top" xlink:title="src/xml/ConfigParser.cpp">
<polygon fill="#ffffff" stroke="#000000" points="1245.8459,-218 1245.8459,-237 1373.8459,-237 1373.8459,-218 1245.8459,-218"/>
<text text-anchor="middle" x="1309.8459" y="-225" font-family="Helvetica,sans-Serif" font-size="10.00" fill="#000000">src/xml/ConfigParser.cpp</text>
</a>
</g>
</g>
<!-- Node23&#45;&gt;Node63 -->
<g id="edge131" class="edge">
<title>Node23&#45;&gt;Node63</title>
<path fill="none" stroke="#191970" d="M2535.9485,-355.3756C2340.7738,-353.1182 1754.3226,-343.6428 1566.8459,-310 1477.8269,-294.0255 1376.9596,-255.2466 1332.7051,-237.1276"/>
<polygon fill="#191970" stroke="#191970" points="2536.0057,-358.8764 2546.0448,-355.49 2536.0851,-351.8769 2536.0057,-358.8764"/>
</g>
<!-- Node64 -->
<g id="node49" class="node">
<title>Node64</title>
<g id="a_node49"><a xlink:href="ConfigParser_8hpp.html" target="_top" xlink:title="src/xml/ConfigParser.hpp">
<polygon fill="#ffffff" stroke="#000000" points="1679.8459,-285 1679.8459,-304 1807.8459,-304 1807.8459,-285 1679.8459,-285"/>
<text text-anchor="middle" x="1743.8459" y="-292" font-family="Helvetica,sans-Serif" font-size="10.00" fill="#000000">src/xml/ConfigParser.hpp</text>
</a>
</g>
</g>
<!-- Node23&#45;&gt;Node64 -->
<g id="edge132" class="edge">
<title>Node23&#45;&gt;Node64</title>
<path fill="none" stroke="#191970" d="M2536.0239,-351.6781C2377.4342,-340.5746 1967.1444,-311.1018 1808.0998,-299.3941"/>
<polygon fill="#191970" stroke="#191970" points="2535.8809,-355.1765 2546.1006,-352.3825 2536.3691,-348.1936 2535.8809,-355.1765"/>
</g>
<!-- Node65 -->
<g id="node50" class="node">
<title>Node65</title>
<g id="a_node50"><a xlink:href="XMLTag_8cpp.html" target="_top" xlink:title="src/xml/XMLTag.cpp">
<polygon fill="#ffffff" stroke="#000000" points="1392.3459,-218 1392.3459,-237 1499.3459,-237 1499.3459,-218 1392.3459,-218"/>
<text text-anchor="middle" x="1445.8459" y="-225" font-family="Helvetica,sans-Serif" font-size="10.00" fill="#000000">src/xml/XMLTag.cpp</text>
</a>
</g>
</g>
<!-- Node23&#45;&gt;Node65 -->
<g id="edge151" class="edge">
<title>Node23&#45;&gt;Node65</title>
<path fill="none" stroke="#191970" d="M2535.9036,-355.338C2354.1137,-353.0587 1836.7534,-343.7106 1670.8459,-310 1592.1551,-294.0109 1504.231,-255.2395 1465.7215,-237.125"/>
<polygon fill="#191970" stroke="#191970" points="2536.0642,-358.8401 2546.1063,-355.4628 2536.1499,-351.8406 2536.0642,-358.8401"/>
</g>
<!-- Node24&#45;&gt;Node10 -->
<g id="edge23" class="edge">
<title>Node24&#45;&gt;Node10</title>
<path fill="none" stroke="#191970" d="M2422.7221,-289.2207C2309.1219,-281.6609 2101.823,-266.0682 1925.8459,-243 1921.3361,-242.4088 1916.706,-241.7527 1912.0406,-241.0539"/>
<polygon fill="#191970" stroke="#191970" points="2422.5393,-292.7162 2432.7484,-289.8832 2423.001,-285.7314 2422.5393,-292.7162"/>
</g>
<!-- Node24&#45;&gt;Node12 -->
<g id="edge24" class="edge">
<title>Node24&#45;&gt;Node12</title>
<path fill="none" stroke="#191970" d="M2422.3391,-288.3152C2282.2376,-277.8277 2017.6499,-256.3924 2001.8459,-243 1980.5827,-224.9814 1977.2127,-190.1447 1977.1829,-170.1313"/>
<polygon fill="#191970" stroke="#191970" points="2422.3849,-291.8282 2432.6175,-289.0817 2422.9055,-284.8476 2422.3849,-291.8282"/>
</g>
<!-- Node24&#45;&gt;Node25 -->
<g id="edge25" class="edge">
<title>Node24&#45;&gt;Node25</title>
<path fill="none" stroke="#191970" d="M2546.8641,-274.7788C2598.7953,-248.531 2690.1999,-202.3319 2743.026,-175.6318"/>
<polygon fill="#191970" stroke="#191970" points="2544.9909,-271.8039 2537.645,-279.4385 2548.1486,-278.0512 2544.9909,-271.8039"/>
</g>
<!-- Node24&#45;&gt;Node26 -->
<g id="edge26" class="edge">
<title>Node24&#45;&gt;Node26</title>
<path fill="none" stroke="#191970" d="M2588.3045,-277.2853C2715.4422,-250.0833 2961.0289,-197.5383 3084.7449,-171.0684"/>
<polygon fill="#191970" stroke="#191970" points="2587.2872,-273.9237 2578.2408,-279.4385 2588.7518,-280.7688 2587.2872,-273.9237"/>
</g>
<!-- Node27&#45;&gt;Node11 -->
<g id="edge28" class="edge">
<title>Node27&#45;&gt;Node11</title>
<path fill="none" stroke="#191970" d="M3685.4212,-274.3561C3702.8542,-264.1995 3723.649,-252.0843 3739.7259,-242.7177"/>
<polygon fill="#191970" stroke="#191970" points="3683.5327,-271.4056 3676.6541,-279.4639 3687.0566,-277.454 3683.5327,-271.4056"/>
</g>
<!-- Node27&#45;&gt;Node20 -->
<g id="edge31" class="edge">
<title>Node27&#45;&gt;Node20</title>
<path fill="none" stroke="#191970" d="M3581.1066,-279.333C3475.6228,-269.8067 2998.1409,-278.3654 2938.8459,-243 2890.0082,-213.8717 2920.8598,-162.8307 2871.8459,-134 2824.1482,-105.9435 2015.1103,-88.4933 1767.3648,-83.789"/>
<polygon fill="#191970" stroke="#191970" points="3580.791,-282.8194 3591.1173,-280.4493 3581.5669,-275.8625 3580.791,-282.8194"/>
</g>
<!-- Node27&#45;&gt;Node28 -->
<g id="edge29" class="edge">
<title>Node27&#45;&gt;Node28</title>
<path fill="none" stroke="#191970" d="M3720.7638,-288.1001C3862.9913,-275.0561 4174.5877,-246.3399 4197.8459,-243 4201.0667,-242.5375 4204.3545,-242.033 4207.6713,-241.4977"/>
<polygon fill="#191970" stroke="#191970" points="3720.0501,-284.6508 3710.4115,-289.0493 3720.6893,-291.6215 3720.0501,-284.6508"/>
</g>
<!-- Node27&#45;&gt;Node29 -->
<g id="edge30" class="edge">
<title>Node27&#45;&gt;Node29</title>
<path fill="none" stroke="#191970" d="M3720.432,-279.7307C3721.9153,-279.4787 3723.388,-279.2347 3724.8459,-279 3865.2743,-256.3952 3902.3028,-264.8804 4042.8459,-243 4045.8472,-242.5327 4048.9086,-242.0313 4051.9978,-241.5051"/>
<polygon fill="#191970" stroke="#191970" points="3719.7607,-276.2951 3710.531,-281.4972 3720.9903,-283.1863 3719.7607,-276.2951"/>
</g>
<!-- Node30&#45;&gt;Node20 -->
<g id="edge36" class="edge">
<title>Node30&#45;&gt;Node20</title>
<path fill="none" stroke="#191970" d="M759.8852,-270.2967C751.6477,-252.4865 745.0857,-228.587 757.8459,-212 840.2749,-104.8505 918.5976,-156.8134 1051.8459,-134 1257.7525,-98.7468 1504.9265,-87.5302 1624.3316,-84.035"/>
<polygon fill="#191970" stroke="#191970" points="756.8903,-272.1307 764.5219,-279.4798 763.139,-268.9756 756.8903,-272.1307"/>
</g>
<!-- Node30&#45;&gt;Node31 -->
<g id="edge35" class="edge">
<title>Node30&#45;&gt;Node31</title>
<path fill="none" stroke="#191970" d="M732.3442,-275.1902C710.1603,-264.8685 683.2378,-252.3421 662.5527,-242.7177"/>
<polygon fill="#191970" stroke="#191970" points="730.9863,-278.4187 741.5295,-279.4639 733.9393,-272.072 730.9863,-278.4187"/>
</g>
<!-- Node32&#45;&gt;Node12 -->
<g id="edge39" class="edge">
<title>Node32&#45;&gt;Node12</title>
<path fill="none" stroke="#191970" d="M2937.3027,-220.9342C2733.2036,-206.9085 2257.4531,-174.2147 2062.9797,-160.8504"/>
<polygon fill="#191970" stroke="#191970" points="2937.188,-224.4345 2947.4045,-221.6284 2937.668,-217.451 2937.188,-224.4345"/>
</g>
<!-- Node32&#45;&gt;Node21 -->
<g id="edge44" class="edge">
<title>Node32&#45;&gt;Node21</title>
<path fill="none" stroke="#191970" d="M3038.718,-202.4572C3045.8053,-172.232 3057.4949,-122.3792 3063.3194,-97.5392"/>
<polygon fill="#191970" stroke="#191970" points="3035.2956,-201.7215 3036.4202,-212.2565 3042.1108,-203.3196 3035.2956,-201.7215"/>
</g>
<!-- Node32&#45;&gt;Node25 -->
<g id="edge42" class="edge">
<title>Node32&#45;&gt;Node25</title>
<path fill="none" stroke="#191970" d="M2971.5022,-209.6389C2936.0048,-199.3033 2891.1902,-186.2549 2854.258,-175.5015"/>
<polygon fill="#191970" stroke="#191970" points="2970.6732,-213.0428 2981.2529,-212.478 2972.6301,-206.3219 2970.6732,-213.0428"/>
</g>
<!-- Node32&#45;&gt;Node26 -->
<g id="edge43" class="edge">
<title>Node32&#45;&gt;Node26</title>
<path fill="none" stroke="#191970" d="M3067.9113,-207.4823C3085.3457,-197.5296 3106.384,-185.5196 3123.9329,-175.5015"/>
<polygon fill="#191970" stroke="#191970" points="3066.1097,-204.4806 3059.1604,-212.478 3069.5801,-210.5598 3066.1097,-204.4806"/>
</g>
<!-- Node32&#45;&gt;Node33 -->
<g id="edge40" class="edge">
<title>Node32&#45;&gt;Node33</title>
<path fill="none" stroke="#191970" d="M3119.6807,-210.4851C3181.78,-198.317 3264.6532,-182.0783 3324.6876,-170.3148"/>
<polygon fill="#191970" stroke="#191970" points="3118.6505,-207.1203 3109.5101,-212.478 3119.9966,-213.9897 3118.6505,-207.1203"/>
</g>
<!-- Node32&#45;&gt;Node34 -->
<g id="edge41" class="edge">
<title>Node32&#45;&gt;Node34</title>
<path fill="none" stroke="#191970" d="M3128.1094,-218.0636C3241.0746,-206.6452 3422.525,-187.522 3489.8459,-176 3499.5946,-174.3315 3509.8642,-172.2658 3519.853,-170.087"/>
<polygon fill="#191970" stroke="#191970" points="3127.6715,-214.5899 3118.0733,-219.076 3128.3742,-221.5546 3127.6715,-214.5899"/>
</g>
<!-- Node32&#45;&gt;Node35 -->
<g id="edge45" class="edge">
<title>Node32&#45;&gt;Node35</title>
<path fill="none" stroke="#191970" d="M3011.5888,-204.7398C2970.9457,-161.223 2883.2146,-67.2887 2848.9565,-30.6084"/>
<polygon fill="#191970" stroke="#191970" points="3009.2226,-207.3342 3018.6062,-212.2535 3014.3384,-202.5562 3009.2226,-207.3342"/>
</g>
<!-- Node36&#45;&gt;Node13 -->
<g id="edge52" class="edge">
<title>Node36&#45;&gt;Node13</title>
<path fill="none" stroke="#191970" d="M1095.9242,-274.6079C1097.2191,-262.214 1098.8267,-246.8263 1099.8448,-237.0817"/>
<polygon fill="#191970" stroke="#191970" points="1092.407,-274.5909 1094.8488,-284.9005 1099.3691,-275.3184 1092.407,-274.5909"/>
</g>
<!-- Node36&#45;&gt;Node20 -->
<g id="edge54" class="edge">
<title>Node36&#45;&gt;Node20</title>
<path fill="none" stroke="#191970" d="M1058.9963,-280.8954C1024.6616,-265.5127 980.3684,-239.067 1002.8459,-212 1081.3826,-117.4277 1463.3516,-91.5375 1624.2103,-84.7726"/>
<polygon fill="#191970" stroke="#191970" points="1057.7842,-284.1843 1068.3527,-284.9321 1060.5573,-277.7569 1057.7842,-284.1843"/>
</g>
<!-- Node36&#45;&gt;Node37 -->
<g id="edge53" class="edge">
<title>Node36&#45;&gt;Node37</title>
<path fill="none" stroke="#191970" d="M1053.2023,-281.893C1017.1682,-270.7157 964.4829,-254.3735 926.2743,-242.5218"/>
<polygon fill="#191970" stroke="#191970" points="1052.3103,-285.2807 1062.8984,-284.9005 1054.3842,-278.595 1052.3103,-285.2807"/>
</g>
<!-- Node38 -->
<g id="node34" class="node">
<title>Node38</title>
<g id="a_node34"><a xlink:href="Participant_8hpp.html" target="_top" xlink:title="src/precice/impl/Participant.hpp">
<polygon fill="#ffffff" stroke="#ff0000" points="2119.8459,-218 2119.8459,-237 2273.8459,-237 2273.8459,-218 2119.8459,-218"/>
<text text-anchor="middle" x="2196.8459" y="-225" font-family="Helvetica,sans-Serif" font-size="10.00" fill="#000000">src/precice/impl/Participant.hpp</text>
</a>
</g>
</g>
<!-- Node36&#45;&gt;Node38 -->
<g id="edge55" class="edge">
<title>Node36&#45;&gt;Node38</title>
<path fill="none" stroke="#191970" d="M1193.3023,-288.4587C1410.7381,-275.2509 1924.5466,-244.0404 2119.7658,-232.1821"/>
<polygon fill="#191970" stroke="#191970" points="1192.9441,-284.9739 1183.1747,-289.0739 1193.3685,-291.961 1192.9441,-284.9739"/>
</g>
<!-- Node38&#45;&gt;Node20 -->
<g id="edge60" class="edge">
<title>Node38&#45;&gt;Node20</title>
<path fill="none" stroke="#191970" d="M2185.0139,-209.3233C2169.6436,-187.3924 2140.6216,-151.3142 2105.8459,-134 2048.0475,-105.2232 1868.8303,-91.453 1767.5142,-85.8131"/>
<polygon fill="#191970" stroke="#191970" points="2182.2293,-211.453 2190.7423,-217.7601 2188.0206,-207.5208 2182.2293,-211.453"/>
</g>
<!-- Node38&#45;&gt;Node21 -->
<g id="edge67" class="edge">
<title>Node38&#45;&gt;Node21</title>
<path fill="none" stroke="#191970" d="M2261.5581,-216.2957C2270.3869,-214.8203 2279.3361,-213.3523 2287.8459,-212 2396.1058,-194.7958 2427.4499,-209.4317 2531.8459,-176 2570.8419,-163.5119 2574.6474,-145.8374 2613.8459,-134 2681.3783,-113.6061 2874.4893,-96.6442 2985.56,-88.2222"/>
<polygon fill="#191970" stroke="#191970" points="2260.952,-212.8484 2251.6712,-217.9589 2262.1133,-219.7514 2260.952,-212.8484"/>
</g>
<!-- Node38&#45;&gt;Node35 -->
<g id="edge68" class="edge">
<title>Node38&#45;&gt;Node35</title>
<path fill="none" stroke="#191970" d="M2221.7877,-212.6558C2255.079,-193.1801 2316.1978,-158.5953 2370.8459,-134 2449.4478,-98.6239 2469.697,-89.7156 2552.8459,-67 2620.8983,-48.4086 2700.048,-34.6161 2757.141,-26.008"/>
<polygon fill="#191970" stroke="#191970" points="2219.62,-209.8703 2212.7754,-217.9575 2223.1693,-215.9038 2219.62,-209.8703"/>
</g>
<!-- Node38&#45;&gt;Node39 -->
<g id="edge56" class="edge">
<title>Node38&#45;&gt;Node39</title>
<path fill="none" stroke="#191970" d="M2240.2162,-215.1692C2283.981,-202.7263 2351.6318,-183.4922 2398.6194,-170.133"/>
<polygon fill="#191970" stroke="#191970" points="2239.1065,-211.8459 2230.4449,-217.9473 2241.0209,-218.5791 2239.1065,-211.8459"/>
</g>
<!-- Node38&#45;&gt;Node40 -->
<g id="edge61" class="edge">
<title>Node38&#45;&gt;Node40</title>
<path fill="none" stroke="#191970" d="M2273.4867,-216.7323C2289.128,-214.8694 2305.4954,-213.1611 2320.8459,-212 2919.7924,-166.6947 3073.8755,-232.7538 3671.8459,-176 3687.0905,-174.5531 3703.2677,-172.3932 3718.8064,-170.0011"/>
<polygon fill="#191970" stroke="#191970" points="2272.832,-213.2862 2263.331,-217.9746 2273.682,-220.2344 2272.832,-213.2862"/>
</g>
<!-- Node39&#45;&gt;Node20 -->
<g id="edge57" class="edge">
<title>Node39&#45;&gt;Node20</title>
<path fill="none" stroke="#191970" d="M2370.0446,-147.1553C2221.1891,-132.8801 1908.4273,-102.8864 1767.4465,-89.3665"/>
<polygon fill="#191970" stroke="#191970" points="2369.7532,-150.6433 2380.0417,-148.114 2370.4215,-143.6753 2369.7532,-150.6433"/>
</g>
<!-- Node39&#45;&gt;Node21 -->
<g id="edge58" class="edge">
<title>Node39&#45;&gt;Node21</title>
<path fill="none" stroke="#191970" d="M2533.6629,-140.3909C2547.7102,-138.0985 2562.1812,-135.8718 2575.8459,-134 2719.5691,-114.3126 2887.8665,-98.1467 2985.4235,-89.4512"/>
<polygon fill="#191970" stroke="#191970" points="2532.8213,-136.9825 2523.5266,-142.0677 2533.9638,-143.8886 2532.8213,-136.9825"/>
</g>
<!-- Node39&#45;&gt;Node35 -->
<g id="edge59" class="edge">
<title>Node39&#45;&gt;Node35</title>
<path fill="none" stroke="#191970" d="M2485.6552,-134.6985C2519.5839,-115.0558 2573.8455,-85.6009 2623.8459,-67 2666.7852,-51.0259 2716.4943,-38.6142 2756.875,-29.9815"/>
<polygon fill="#191970" stroke="#191970" points="2483.5148,-131.8953 2476.6452,-139.9613 2487.0454,-137.9397 2483.5148,-131.8953"/>
</g>
<!-- Node40&#45;&gt;Node21 -->
<g id="edge65" class="edge">
<title>Node40&#45;&gt;Node21</title>
<path fill="none" stroke="#191970" d="M3727.6805,-137.9687C3719.9987,-136.4789 3712.2791,-135.1162 3704.8459,-134 3506.0786,-104.1523 3269.6951,-90.773 3148.0755,-85.4909"/>
<polygon fill="#191970" stroke="#191970" points="3727.236,-141.4493 3737.7299,-139.9902 3728.6166,-134.5868 3727.236,-141.4493"/>
</g>
<!-- Node40&#45;&gt;Node35 -->
<g id="edge66" class="edge">
<title>Node40&#45;&gt;Node35</title>
<path fill="none" stroke="#191970" d="M3725.273,-137.9086C3718.3817,-136.5127 3711.4936,-135.1854 3704.8459,-134 3414.0871,-82.1523 3065.1051,-40.9081 2912.5776,-23.9156"/>
<polygon fill="#191970" stroke="#191970" points="3724.8423,-141.3936 3735.3443,-139.9944 3726.2619,-134.5391 3724.8423,-141.3936"/>
</g>
<!-- Node40&#45;&gt;Node41 -->
<g id="edge62" class="edge">
<title>Node40&#45;&gt;Node41</title>
<path fill="none" stroke="#191970" d="M3831.2226,-134.1302C3848.8202,-122.4253 3870.3665,-108.0941 3886.29,-97.5028"/>
<polygon fill="#191970" stroke="#191970" points="3828.8188,-131.5255 3822.4308,-139.978 3832.6955,-137.354 3828.8188,-131.5255"/>
</g>
<!-- Node41&#45;&gt;Node19 -->
<g id="edge63" class="edge">
<title>Node41&#45;&gt;Node19</title>
<path fill="none" stroke="#191970" d="M3967.2137,-76.9213C4102.7987,-63.9624 4436.9719,-32.0229 4561.7906,-20.093"/>
<polygon fill="#191970" stroke="#191970" points="3966.6501,-73.4592 3957.0285,-77.8948 3967.3161,-80.4274 3966.6501,-73.4592"/>
</g>
<!-- Node41&#45;&gt;Node35 -->
<g id="edge64" class="edge">
<title>Node41&#45;&gt;Node35</title>
<path fill="none" stroke="#191970" d="M3850.493,-78.8597C3669.4449,-67.5653 3117.168,-33.1123 2912.3527,-20.3352"/>
<polygon fill="#191970" stroke="#191970" points="3850.4133,-82.3615 3860.6119,-79.491 3850.8492,-75.3751 3850.4133,-82.3615"/>
</g>
<!-- Node47&#45;&gt;Node14 -->
<g id="edge72" class="edge">
<title>Node47&#45;&gt;Node14</title>
<path fill="none" stroke="#191970" d="M3204.4394,-292.3154C2916.596,-282.8376 1789.5434,-245.6358 1752.8459,-243 1724.8437,-240.9888 1693.8202,-237.6951 1668.0191,-234.66"/>
<polygon fill="#191970" stroke="#191970" points="3204.6129,-295.8229 3214.7227,-292.654 3204.8433,-288.8267 3204.6129,-295.8229"/>
</g>
<!-- Node47&#45;&gt;Node41 -->
<g id="edge73" class="edge">
<title>Node47&#45;&gt;Node41</title>
<path fill="none" stroke="#191970" d="M3337.0511,-281.1522C3387.6867,-270.8863 3459.2188,-256.2604 3521.8459,-243 3585.0423,-229.619 3600.368,-223.9746 3663.8459,-212 3713.8199,-202.5728 3853.1295,-211.1877 3889.8459,-176 3911.1331,-155.5991 3912.0035,-118.3647 3910.5577,-97.569"/>
<polygon fill="#191970" stroke="#191970" points="3336.3173,-277.7297 3327.2114,-283.1456 3337.7072,-284.5903 3336.3173,-277.7297"/>
</g>
<!-- Node48&#45;&gt;Node12 -->
<g id="edge76" class="edge">
<title>Node48&#45;&gt;Node12</title>
<path fill="none" stroke="#191970" d="M2626.2283,-283.4793C2614.7899,-281.8016 2602.989,-280.2245 2591.8459,-279 2469.6542,-265.5724 2147.0654,-303.1257 2039.8459,-243 2010.9936,-226.8204 1992.4,-190.9464 1983.6718,-170.3462"/>
<polygon fill="#191970" stroke="#191970" points="2625.752,-286.947 2636.1614,-284.9733 2626.7932,-280.0248 2625.752,-286.947"/>
</g>
<!-- Node48&#45;&gt;Node15 -->
<g id="edge81" class="edge">
<title>Node48&#45;&gt;Node15</title>
<path fill="none" stroke="#191970" d="M2643.5497,-282.5596C2591.0421,-269.578 2508.16,-249.0869 2459.6916,-237.1039"/>
<polygon fill="#191970" stroke="#191970" points="2642.7582,-285.9693 2653.306,-284.9717 2644.4383,-279.1738 2642.7582,-285.9693"/>
</g>
<!-- Node48&#45;&gt;Node21 -->
<g id="edge83" class="edge">
<title>Node48&#45;&gt;Node21</title>
<path fill="none" stroke="#191970" d="M2685.1188,-274.6954C2675.113,-241.1593 2660.9862,-173.04 2695.8459,-134 2714.8486,-112.7185 2882.1573,-96.4123 2985.4999,-88.2615"/>
<polygon fill="#191970" stroke="#191970" points="2681.917,-276.1774 2688.2774,-284.6507 2688.5892,-274.0604 2681.917,-276.1774"/>
</g>
<!-- Node48&#45;&gt;Node25 -->
<g id="edge79" class="edge">
<title>Node48&#45;&gt;Node25</title>
<path fill="none" stroke="#191970" d="M2694.2541,-274.8522C2697.1473,-257.2289 2703.2822,-231.2545 2715.8459,-212 2725.1057,-197.8089 2738.9627,-185.2893 2751.7567,-175.6248"/>
<polygon fill="#191970" stroke="#191970" points="2690.7767,-274.445 2692.8145,-284.842 2697.7052,-275.4435 2690.7767,-274.445"/>
</g>
<!-- Node48&#45;&gt;Node26 -->
<g id="edge80" class="edge">
<title>Node48&#45;&gt;Node26</title>
<path fill="none" stroke="#191970" d="M2792.9668,-288.0452C2913.2426,-279.5192 3101.0878,-263.1954 3126.8459,-243 3147.5191,-226.7913 3155.2416,-196.1641 3158.1262,-175.665"/>
<polygon fill="#191970" stroke="#191970" points="2792.7187,-284.5539 2782.9884,-288.7457 2793.209,-291.5367 2792.7187,-284.5539"/>
</g>
<!-- Node48&#45;&gt;Node32 -->
<g id="edge75" class="edge">
<title>Node48&#45;&gt;Node32</title>
<path fill="none" stroke="#191970" d="M2750.2481,-283.0251C2807.1095,-271.8529 2893.8431,-254.8114 2956.2209,-242.5553"/>
<polygon fill="#191970" stroke="#191970" points="2749.4783,-279.6093 2740.3407,-284.9717 2750.8279,-286.478 2749.4783,-279.6093"/>
</g>
<!-- Node48&#45;&gt;Node33 -->
<g id="edge77" class="edge">
<title>Node48&#45;&gt;Node33</title>
<path fill="none" stroke="#191970" d="M2793.3946,-287.7927C2908.1242,-279.3954 3087.2784,-263.5786 3151.8459,-243 3178.9505,-234.3614 3181.5884,-222.9465 3207.8459,-212 3245.2842,-196.3923 3288.4371,-183.3046 3324.6153,-173.6226"/>
<polygon fill="#191970" stroke="#191970" points="2792.9083,-284.3187 2783.1876,-288.5327 2793.4145,-291.3003 2792.9083,-284.3187"/>
</g>
<!-- Node48&#45;&gt;Node34 -->
<g id="edge78" class="edge">
<title>Node48&#45;&gt;Node34</title>
<path fill="none" stroke="#191970" d="M2793.1931,-291.4482C2895.4454,-286.6611 3057.2978,-274.3924 3193.8459,-243 3233.0353,-233.9903 3239.9789,-222.3125 3278.8459,-212 3370.7972,-187.6027 3396.5697,-194.7036 3489.8459,-176 3498.9074,-174.183 3508.4451,-172.134 3517.7977,-170.0465"/>
<polygon fill="#191970" stroke="#191970" points="2793.0108,-287.9528 2783.1796,-291.902 2793.3278,-294.9456 2793.0108,-287.9528"/>
</g>
<!-- Node48&#45;&gt;Node35 -->
<g id="edge86" class="edge">
<title>Node48&#45;&gt;Node35</title>
<path fill="none" stroke="#191970" d="M2625.4594,-283.4578C2614.2597,-281.811 2602.7369,-280.2496 2591.8459,-279 2538.6013,-272.8907 2147.3009,-282.2854 2110.8459,-243 2101.4741,-232.9006 2103.3567,-223.5645 2110.8459,-212 2156.9126,-140.8658 2206.8367,-167.1178 2284.8459,-134 2358.4596,-102.7482 2374.5118,-87.374 2451.8459,-67 2555.4881,-39.695 2678.9222,-26.4136 2757.0881,-20.2863"/>
<polygon fill="#191970" stroke="#191970" points="2625.217,-286.9606 2635.6265,-284.9877 2626.2587,-280.0386 2625.217,-286.9606"/>
</g>
<!-- Node48&#45;&gt;Node40 -->
<g id="edge82" class="edge">
<title>Node48&#45;&gt;Node40</title>
<path fill="none" stroke="#191970" d="M2793.1769,-292.7053C2936.1067,-288.9808 3204.737,-277.5993 3430.8459,-243 3545.9124,-225.3924 3677.988,-190.1494 3748.7341,-170.0165"/>
<polygon fill="#191970" stroke="#191970" points="2793.0136,-289.2082 2783.1055,-292.9604 2793.1909,-296.206 2793.0136,-289.2082"/>
</g>
<!-- Node49 -->
<g id="node40" class="node">
<title>Node49</title>
<g id="a_node40"><a xlink:href="SolverInterfaceImpl_8hpp.html" target="_top" xlink:title="src/precice/impl/SolverInterface\lImpl.hpp">
<polygon fill="#ffffff" stroke="#ff0000" points="2633.3459,-67.5 2633.3459,-97.5 2788.3459,-97.5 2788.3459,-67.5 2633.3459,-67.5"/>
<text text-anchor="start" x="2641.3459" y="-85.5" font-family="Helvetica,sans-Serif" font-size="10.00" fill="#000000">src/precice/impl/SolverInterface</text>
<text text-anchor="middle" x="2710.8459" y="-74.5" font-family="Helvetica,sans-Serif" font-size="10.00" fill="#000000">Impl.hpp</text>
</a>
</g>
</g>
<!-- Node48&#45;&gt;Node49 -->
<g id="edge84" class="edge">
<title>Node48&#45;&gt;Node49</title>
<path fill="none" stroke="#191970" d="M2668.6862,-278.5058C2657.729,-269.4964 2645.7698,-257.2043 2639.8459,-243 2634.5426,-230.2838 2638.7953,-225.7377 2639.8459,-212 2642.5203,-177.0276 2634.9408,-164.7318 2651.8459,-134 2659.9718,-119.228 2674.0682,-106.6835 2686.4448,-97.6744"/>
<polygon fill="#191970" stroke="#191970" points="2666.6986,-281.393 2676.7533,-284.7328 2670.9759,-275.8518 2666.6986,-281.393"/>
</g>
<!-- Node49&#45;&gt;Node35 -->
<g id="edge85" class="edge">
<title>Node49&#45;&gt;Node35</title>
<path fill="none" stroke="#191970" d="M2747.6107,-62.6352C2766.5126,-52.422 2789.1876,-40.1702 2806.6817,-30.7177"/>
<polygon fill="#191970" stroke="#191970" points="2745.808,-59.6309 2738.6739,-67.4639 2749.1356,-65.7894 2745.808,-59.6309"/>
</g>
<!-- Node51&#45;&gt;Node16 -->
<g id="edge88" class="edge">
<title>Node51&#45;&gt;Node16</title>
<path fill="none" stroke="#191970" d="M191.9985,-277.147C157.6996,-267.9067 122.4131,-255.8174 110.8459,-243 92.6253,-222.8102 90.3958,-189.4121 90.837,-170.0879"/>
<polygon fill="#191970" stroke="#191970" points="191.5421,-280.6457 202.103,-279.7982 193.3186,-273.8749 191.5421,-280.6457"/>
</g>
<!-- Node51&#45;&gt;Node20 -->
<g id="edge94" class="edge">
<title>Node51&#45;&gt;Node20</title>
<path fill="none" stroke="#191970" d="M280.3413,-270.3841C300.3593,-229.5192 342.0379,-149.5705 368.8459,-134 423.4226,-102.301 1355.7561,-87.1479 1624.1187,-83.4299"/>
<polygon fill="#191970" stroke="#191970" points="277.1805,-268.8808 275.9633,-279.4055 283.4782,-271.937 277.1805,-268.8808"/>
</g>
<!-- Node51&#45;&gt;Node35 -->
<g id="edge95" class="edge">
<title>Node51&#45;&gt;Node35</title>
<path fill="none" stroke="#191970" d="M192.7154,-276.9292C96.9415,-251.5573 -47.7607,-200.3365 15.8459,-134 113.3668,-32.2936 2313.502,-17.6842 2757.2597,-15.77"/>
<polygon fill="#191970" stroke="#191970" points="191.8401,-280.3179 202.3994,-279.4513 193.6044,-273.5439 191.8401,-280.3179"/>
</g>
<!-- Node52 -->
<g id="node42" class="node">
<title>Node52</title>
<g id="a_node42"><a xlink:href="PetRadialBasisFctMapping_8hpp.html" target="_top" xlink:title="src/mapping/PetRadialBasis\lFctMapping.hpp">
<polygon fill="#ffffff" stroke="#ff0000" points="119.8459,-212.5 119.8459,-242.5 259.8459,-242.5 259.8459,-212.5 119.8459,-212.5"/>
<text text-anchor="start" x="127.8459" y="-230.5" font-family="Helvetica,sans-Serif" font-size="10.00" fill="#000000">src/mapping/PetRadialBasis</text>
<text text-anchor="middle" x="189.8459" y="-219.5" font-family="Helvetica,sans-Serif" font-size="10.00" fill="#000000">FctMapping.hpp</text>
</a>
</g>
</g>
<!-- Node51&#45;&gt;Node52 -->
<g id="edge89" class="edge">
<title>Node51&#45;&gt;Node52</title>
<path fill="none" stroke="#191970" d="M243.2367,-272.7808C231.6313,-262.9383 218.1927,-251.541 207.7013,-242.6432"/>
<polygon fill="#191970" stroke="#191970" points="241.0292,-275.4978 250.9196,-279.2967 245.5568,-270.1593 241.0292,-275.4978"/>
</g>
<!-- Node53 -->
<g id="node43" class="node">
<title>Node53</title>
<g id="a_node43"><a xlink:href="PetRadialBasisFctMappingTest_8cpp.html" target="_top" xlink:title="src/mapping/tests/PetRadial\lBasisFctMappingTest.cpp">
<polygon fill="#ffffff" stroke="#000000" points="176.8459,-140 176.8459,-170 316.8459,-170 316.8459,-140 176.8459,-140"/>
<text text-anchor="start" x="184.8459" y="-158" font-family="Helvetica,sans-Serif" font-size="10.00" fill="#000000">src/mapping/tests/PetRadial</text>
<text text-anchor="middle" x="246.8459" y="-147" font-family="Helvetica,sans-Serif" font-size="10.00" fill="#000000">BasisFctMappingTest.cpp</text>
</a>
</g>
</g>
<!-- Node51&#45;&gt;Node53 -->
<g id="edge93" class="edge">
<title>Node51&#45;&gt;Node53</title>
<path fill="none" stroke="#191970" d="M271.2393,-269.0268C272.1958,-252.6078 272.3624,-230.8769 268.8459,-212 266.0874,-197.1923 259.6202,-181.2742 254.4074,-170.0336"/>
<polygon fill="#191970" stroke="#191970" points="267.7165,-269.2184 270.4865,-279.4447 274.6983,-269.723 267.7165,-269.2184"/>
</g>
<!-- Node51&#45;&gt;Node55 -->
<g id="edge92" class="edge">
<title>Node51&#45;&gt;Node55</title>
<path fill="none" stroke="#191970" d="M345.823,-285.3177C369.8195,-282.8138 396.3997,-280.4063 420.8459,-279 1621.6338,-209.9234 1925.0635,-291.8078 3126.8459,-243 3180.9572,-240.8024 3242.1856,-236.5416 3287.5571,-233.0426"/>
<polygon fill="#191970" stroke="#191970" points="345.284,-281.8552 335.7107,-286.394 346.025,-288.8159 345.284,-281.8552"/>
</g>
<!-- Node52&#45;&gt;Node16 -->
<g id="edge90" class="edge">
<title>Node52&#45;&gt;Node16</title>
<path fill="none" stroke="#191970" d="M161.1993,-206.3074C145.4589,-194.6627 126.3107,-180.4969 112.1255,-170.0028"/>
<polygon fill="#191970" stroke="#191970" points="159.4194,-209.3443 169.5402,-212.478 163.5826,-203.7168 159.4194,-209.3443"/>
</g>
<!-- Node52&#45;&gt;Node53 -->
<g id="edge91" class="edge">
<title>Node52&#45;&gt;Node53</title>
<path fill="none" stroke="#191970" d="M208.0511,-204.3443C216.8914,-193.1 227.2584,-179.9139 235.0506,-170.0028"/>
<polygon fill="#191970" stroke="#191970" points="205.0855,-202.4534 201.6563,-212.478 210.5884,-206.7799 205.0855,-202.4534"/>
</g>
<!-- Node60&#45;&gt;Node17 -->
<g id="edge106" class="edge">
<title>Node60&#45;&gt;Node17</title>
<path fill="none" stroke="#191970" d="M4366.1762,-281.8311C4406.5871,-268.8141 4468.5967,-248.8399 4505.0998,-237.0817"/>
<polygon fill="#191970" stroke="#191970" points="4365.0925,-278.503 4356.6472,-284.9005 4367.2387,-285.1659 4365.0925,-278.503"/>
</g>
<!-- Node60&#45;&gt;Node18 -->
<g id="edge107" class="edge">
<title>Node60&#45;&gt;Node18</title>
<path fill="none" stroke="#191970" d="M4261.398,-283.1984C4186.3549,-270.24 4064.6446,-249.223 3994.1482,-237.0496"/>
<polygon fill="#191970" stroke="#191970" points="4261.2172,-286.7189 4271.667,-284.9717 4262.4084,-279.821 4261.2172,-286.7189"/>
</g>
<!-- Node60&#45;&gt;Node21 -->
<g id="edge109" class="edge">
<title>Node60&#45;&gt;Node21</title>
<path fill="none" stroke="#191970" d="M4397.0376,-283.3843C4406.3874,-281.9077 4415.8487,-280.4156 4424.8459,-279 4530.023,-262.4512 4728.6854,-288.7061 4654.8459,-212 4581.9738,-136.2989 3805.0602,-220.4437 3709.8459,-176 3687.0355,-165.3527 3694.4007,-145.1786 3671.8459,-134 3660.2536,-128.2546 3310.4477,-101.0197 3148.1299,-88.6448"/>
<polygon fill="#191970" stroke="#191970" points="4396.2942,-279.9583 4386.963,-284.9761 4397.3867,-286.8725 4396.2942,-279.9583"/>
</g>
<!-- Node60&#45;&gt;Node25 -->
<g id="edge103" class="edge">
<title>Node60&#45;&gt;Node25</title>
<path fill="none" stroke="#191970" d="M4222.6903,-291.9891C3910.5121,-284.2844 3000.2711,-260.4455 2938.8459,-243 2890.0281,-229.1352 2840.146,-196.9194 2810.5982,-175.555"/>
<polygon fill="#191970" stroke="#191970" points="4223.0107,-295.4979 4233.0939,-292.2453 4223.1832,-288.5001 4223.0107,-295.4979"/>
</g>
<!-- Node60&#45;&gt;Node26 -->
<g id="edge104" class="edge">
<title>Node60&#45;&gt;Node26</title>
<path fill="none" stroke="#191970" d="M4342.8352,-276.6251C4357.3432,-258.2254 4374.0444,-229.8036 4356.8459,-212 4316.6404,-170.3801 3373.5088,-180.8661 3315.8459,-176 3289.432,-173.771 3260.638,-170.2161 3235.0597,-166.6603"/>
<polygon fill="#191970" stroke="#191970" points="4339.7655,-274.8411 4336.0474,-284.7621 4345.1408,-279.3251 4339.7655,-274.8411"/>
</g>
<!-- Node60&#45;&gt;Node28 -->
<g id="edge99" class="edge">
<title>Node60&#45;&gt;Node28</title>
<path fill="none" stroke="#191970" d="M4313.845,-276.7233C4306.0476,-266.0615 4296.2402,-252.6515 4288.832,-242.5218"/>
<polygon fill="#191970" stroke="#191970" points="4311.0971,-278.8949 4319.8254,-284.9005 4316.7473,-274.7627 4311.0971,-278.8949"/>
</g>
<!-- Node60&#45;&gt;Node29 -->
<g id="edge100" class="edge">
<title>Node60&#45;&gt;Node29</title>
<path fill="none" stroke="#191970" d="M4287.6425,-281.7494C4253.2889,-270.5761 4203.3162,-254.3229 4167.0322,-242.5218"/>
<polygon fill="#191970" stroke="#191970" points="4286.7389,-285.1359 4297.3311,-284.9005 4288.904,-278.4791 4286.7389,-285.1359"/>
</g>
<!-- Node60&#45;&gt;Node33 -->
<g id="edge101" class="edge">
<title>Node60&#45;&gt;Node33</title>
<path fill="none" stroke="#191970" d="M4352.2394,-279.1972C4377.7787,-261.9873 4410.6202,-233.6219 4389.8459,-212 4355.1766,-175.9162 3539.4073,-182.9041 3489.8459,-176 3486.9219,-175.5927 3483.9527,-175.1301 3480.9612,-174.6228"/>
<polygon fill="#191970" stroke="#191970" points="4350.0983,-276.414 4343.6102,-284.7899 4353.9055,-282.2882 4350.0983,-276.414"/>
</g>
<!-- Node60&#45;&gt;Node34 -->
<g id="edge102" class="edge">
<title>Node60&#45;&gt;Node34</title>
<path fill="none" stroke="#191970" d="M4430.5531,-283.9184C4515.3372,-274.1943 4623.358,-258.9134 4636.8459,-243 4645.7542,-232.4896 4646.404,-221.9232 4636.8459,-212 4599.8209,-173.5605 3729.7908,-182.7292 3676.8459,-176 3665.4218,-174.548 3653.3479,-172.4018 3641.7611,-170.0283"/>
<polygon fill="#191970" stroke="#191970" points="4430.1409,-280.4427 4420.5988,-285.0471 4430.9295,-287.3981 4430.1409,-280.4427"/>
</g>
<!-- Node60&#45;&gt;Node55 -->
<g id="edge105" class="edge">
<title>Node60&#45;&gt;Node55</title>
<path fill="none" stroke="#191970" d="M4222.9802,-287.3405C4022.8337,-273.5444 3588.7865,-243.6255 3422.0001,-232.1289"/>
<polygon fill="#191970" stroke="#191970" points="4222.9882,-290.8493 4233.2053,-288.0453 4223.4697,-283.8659 4222.9882,-290.8493"/>
</g>
<!-- Node60&#45;&gt;Node61 -->
<g id="edge108" class="edge">
<title>Node60&#45;&gt;Node61</title>
<path fill="none" stroke="#191970" d="M4411.5523,-283.6848C4488.8202,-273.6685 4606.1126,-258.086 4707.8459,-243 4712.3549,-242.3314 4716.9806,-241.6314 4721.6483,-240.914"/>
<polygon fill="#191970" stroke="#191970" points="4410.86,-280.2451 4401.3919,-284.9997 4411.7585,-287.1872 4410.86,-280.2451"/>
</g>
<!-- Node62&#45;&gt;Node10 -->
<g id="edge111" class="edge">
<title>Node62&#45;&gt;Node10</title>
<path fill="none" stroke="#191970" d="M3391.2602,-283.8892C3372.9851,-281.9751 3353.8003,-280.207 3335.8459,-279 2710.3868,-236.9526 2549.6487,-304.9446 1925.8459,-243 1921.3198,-242.5506 1916.677,-242.004 1912.0021,-241.3882"/>
<polygon fill="#191970" stroke="#191970" points="3390.99,-287.3802 3401.3059,-284.9649 3391.7354,-280.42 3390.99,-287.3802"/>
</g>
<!-- Node62&#45;&gt;Node11 -->
<g id="edge112" class="edge">
<title>Node62&#45;&gt;Node11</title>
<path fill="none" stroke="#191970" d="M3528.6778,-282.6745C3578.314,-271.1272 3653.8299,-253.5593 3706.2632,-241.3612"/>
<polygon fill="#191970" stroke="#191970" points="3527.7502,-279.2968 3518.8034,-284.9717 3529.3364,-286.1147 3527.7502,-279.2968"/>
</g>
<!-- Node62&#45;&gt;Node12 -->
<g id="edge115" class="edge">
<title>Node62&#45;&gt;Node12</title>
<path fill="none" stroke="#191970" d="M3385.7972,-283.8873C3369.1823,-282.1327 3352.0074,-280.4242 3335.8459,-279 3098.0086,-258.0415 3037.6628,-264.1883 2799.8459,-243 2675.5751,-231.9281 2644.8871,-225.4015 2520.8459,-212 2358.988,-194.5128 2169.9037,-174.8339 2062.9783,-163.7752"/>
<polygon fill="#191970" stroke="#191970" points="3385.7406,-287.4011 3396.056,-284.9835 3386.4845,-280.4407 3385.7406,-287.4011"/>
</g>
<!-- Node62&#45;&gt;Node16 -->
<g id="edge120" class="edge">
<title>Node62&#45;&gt;Node16</title>
<path fill="none" stroke="#191970" d="M3390.9385,-283.8984C3372.7593,-281.9941 3353.694,-280.2275 3335.8459,-279 2777.8241,-240.6221 2633.6953,-305.3911 2077.8459,-243 2007.1647,-235.0664 1991.5585,-219.6481 1920.8459,-212 1533.4674,-170.102 553.3912,-232.3233 167.8459,-176 158.4998,-174.6346 148.6706,-172.4797 139.2978,-170.06"/>
<polygon fill="#191970" stroke="#191970" points="3390.6178,-287.384 3400.9334,-284.968 3391.3627,-280.4237 3390.6178,-287.384"/>
</g>
<!-- Node62&#45;&gt;Node18 -->
<g id="edge122" class="edge">
<title>Node62&#45;&gt;Node18</title>
<path fill="none" stroke="#191970" d="M3551.485,-283.4684C3561.6822,-281.9573 3572.0238,-280.4335 3581.8459,-279 3693.797,-262.6611 3721.8835,-259.2611 3833.8459,-243 3847.0665,-241.0799 3861.2204,-239.0041 3874.7184,-237.015"/>
<polygon fill="#191970" stroke="#191970" points="3550.7381,-280.0409 3541.3605,-284.9715 3551.7661,-286.965 3550.7381,-280.0409"/>
</g>
<!-- Node62&#45;&gt;Node20 -->
<g id="edge123" class="edge">
<title>Node62&#45;&gt;Node20</title>
<path fill="none" stroke="#191970" d="M3390.9377,-283.909C3372.7586,-282.0039 3353.6936,-280.2344 3335.8459,-279 3267.9232,-274.3023 2165.9291,-283.0175 2110.8459,-243 2069.2193,-212.7587 2111.7999,-166.4189 2071.8459,-134 2048.6625,-115.1889 1869.8277,-97.1989 1767.3676,-88.2969"/>
<polygon fill="#191970" stroke="#191970" points="3390.617,-287.3946 3400.9327,-284.9788 3391.362,-280.4343 3390.617,-287.3946"/>
</g>
<!-- Node62&#45;&gt;Node21 -->
<g id="edge124" class="edge">
<title>Node62&#45;&gt;Node21</title>
<path fill="none" stroke="#191970" d="M3478.7707,-274.8088C3478.5313,-256.1549 3475.1083,-228.5954 3458.8459,-212 3412.9751,-165.19 3376.529,-200.7562 3315.8459,-176 3281.544,-162.0062 3277.8865,-148.6177 3243.8459,-134 3208.1166,-118.6571 3166.4323,-106.2774 3132.4937,-97.5042"/>
<polygon fill="#191970" stroke="#191970" points="3475.2705,-274.7979 3478.6058,-284.854 3482.2695,-274.9128 3475.2705,-274.7979"/>
</g>
<!-- Node62&#45;&gt;Node25 -->
<g id="edge118" class="edge">
<title>Node62&#45;&gt;Node25</title>
<path fill="none" stroke="#191970" d="M3385.477,-283.9071C3368.9607,-282.1586 3351.9022,-280.447 3335.8459,-279 3279.709,-273.941 2876.9901,-273.8928 2829.8459,-243 2806.4869,-227.6932 2794.2708,-196.5194 2788.4491,-175.6898"/>
<polygon fill="#191970" stroke="#191970" points="3385.3611,-287.4146 3395.6768,-284.9985 3386.106,-280.4543 3385.3611,-287.4146"/>
</g>
<!-- Node62&#45;&gt;Node26 -->
<g id="edge119" class="edge">
<title>Node62&#45;&gt;Node26</title>
<path fill="none" stroke="#191970" d="M3472.0167,-275.0995C3465.254,-256.0279 3452.2099,-227.5812 3430.8459,-212 3415.0167,-200.4555 3309.4787,-180.5038 3234.8877,-167.5312"/>
<polygon fill="#191970" stroke="#191970" points="3468.768,-276.425 3475.2144,-284.8331 3475.4184,-274.2402 3468.768,-276.425"/>
</g>
<!-- Node62&#45;&gt;Node28 -->
<g id="edge113" class="edge">
<title>Node62&#45;&gt;Node28</title>
<path fill="none" stroke="#191970" d="M3545.5137,-283.5186C3557.5896,-281.8149 3570.0716,-280.219 3581.8459,-279 3854.6328,-250.7584 3925.7365,-277.1579 4197.8459,-243 4201.0744,-242.5947 4204.3685,-242.1372 4207.6905,-241.64"/>
<polygon fill="#191970" stroke="#191970" points="3544.8856,-280.0729 3535.49,-284.9691 3545.8882,-287.0008 3544.8856,-280.0729"/>
</g>
<!-- Node62&#45;&gt;Node29 -->
<g id="edge114" class="edge">
<title>Node62&#45;&gt;Node29</title>
<path fill="none" stroke="#191970" d="M3546.9787,-283.5055C3558.6006,-281.8557 3570.5524,-280.2809 3581.8459,-279 3786.0492,-255.8385 3839.2602,-271.077 4042.8459,-243 4045.8548,-242.585 4048.9227,-242.1269 4052.017,-241.6361"/>
<polygon fill="#191970" stroke="#191970" points="3546.2702,-280.0715 3536.8753,-284.9691 3547.2738,-286.9992 3546.2702,-280.0715"/>
</g>
<!-- Node62&#45;&gt;Node33 -->
<g id="edge116" class="edge">
<title>Node62&#45;&gt;Node33</title>
<path fill="none" stroke="#191970" d="M3503.1821,-279.1469C3526.7491,-262.8581 3555.9791,-236.1863 3539.8459,-212 3531.3402,-199.2486 3501.1392,-186.0355 3471.2507,-175.5452"/>
<polygon fill="#191970" stroke="#191970" points="3500.9519,-276.4251 3494.5335,-284.8545 3504.8076,-282.2675 3500.9519,-276.4251"/>
</g>
<!-- Node62&#45;&gt;Node34 -->
<g id="edge117" class="edge">
<title>Node62&#45;&gt;Node34</title>
<path fill="none" stroke="#191970" d="M3510.4344,-280.22C3526.5762,-271.6061 3545.0791,-259.1497 3556.8459,-243 3572.8855,-220.986 3578.2058,-188.8287 3579.9704,-170.0956"/>
<polygon fill="#191970" stroke="#191970" points="3508.6209,-277.2148 3501.272,-284.8467 3511.7762,-283.4634 3508.6209,-277.2148"/>
</g>
<!-- Node62&#45;&gt;Node35 -->
<g id="edge125" class="edge">
<title>Node62&#45;&gt;Node35</title>
<path fill="none" stroke="#191970" d="M3510.9962,-281.0975C3562.7657,-260.324 3660.6277,-221.7255 3696.8459,-212 3791.2637,-186.6465 3831.7298,-229.0516 3913.8459,-176 3958.9303,-146.873 4002.9265,-105.8075 3965.8459,-67 3929.4798,-28.9403 3161.8035,-18.5141 2912.3762,-16.1256"/>
<polygon fill="#191970" stroke="#191970" points="3509.5624,-277.9016 3501.5899,-284.8794 3512.1737,-284.3963 3509.5624,-277.9016"/>
</g>
<!-- Node62&#45;&gt;Node55 -->
<g id="edge121" class="edge">
<title>Node62&#45;&gt;Node55</title>
<path fill="none" stroke="#191970" d="M3451.197,-279.9839C3430.8742,-268.9138 3402.9721,-253.7151 3382.4232,-242.5218"/>
<polygon fill="#191970" stroke="#191970" points="3449.767,-283.1906 3460.223,-284.9005 3453.1155,-277.0434 3449.767,-283.1906"/>
</g>
<!-- Node64&#45;&gt;Node6 -->
<g id="edge145" class="edge">
<title>Node64&#45;&gt;Node6</title>
<path fill="none" stroke="#191970" d="M1669.5718,-292.7333C1443.2528,-287.125 764.3334,-268.5752 544.8459,-243 532.6155,-241.5749 519.4612,-239.358 507.384,-237.0422"/>
<polygon fill="#191970" stroke="#191970" points="1669.5995,-296.235 1679.6828,-292.9827 1669.7722,-289.2371 1669.5995,-296.235"/>
</g>
<!-- Node64&#45;&gt;Node10 -->
<g id="edge133" class="edge">
<title>Node64&#45;&gt;Node10</title>
<path fill="none" stroke="#191970" d="M1765.4721,-278.9198C1780.692,-267.955 1800.9499,-253.3605 1815.9948,-242.5218"/>
<polygon fill="#191970" stroke="#191970" points="1763.2383,-276.2154 1757.1705,-284.9005 1767.3301,-281.8949 1763.2383,-276.2154"/>
</g>
<!-- Node64&#45;&gt;Node11 -->
<g id="edge134" class="edge">
<title>Node64&#45;&gt;Node11</title>
<path fill="none" stroke="#191970" d="M1818.4027,-292.6422C2054.6233,-286.6662 2807.6567,-266.9278 3430.8459,-243 3527.2777,-239.2974 3639.2718,-233.8917 3706.2514,-230.5404"/>
<polygon fill="#191970" stroke="#191970" points="1818.1208,-289.1481 1808.2124,-292.8995 1818.2976,-296.1458 1818.1208,-289.1481"/>
</g>
<!-- Node64&#45;&gt;Node12 -->
<g id="edge135" class="edge">
<title>Node64&#45;&gt;Node12</title>
<path fill="none" stroke="#191970" d="M1740.2299,-275.0692C1737.9821,-256.6086 1737.9014,-229.1886 1752.8459,-212 1771.3866,-190.6751 1837.144,-175.6079 1892.8178,-166.3423"/>
<polygon fill="#191970" stroke="#191970" points="1736.7767,-275.6414 1741.7505,-284.9962 1743.696,-274.5815 1736.7767,-275.6414"/>
</g>
<!-- Node64&#45;&gt;Node13 -->
<g id="edge136" class="edge">
<title>Node64&#45;&gt;Node13</title>
<path fill="none" stroke="#191970" d="M1669.6114,-287.2467C1570.7964,-277.5259 1390.6195,-259.5722 1236.8459,-243 1219.3618,-241.1157 1200.6219,-239.0257 1182.8132,-237.0062"/>
<polygon fill="#191970" stroke="#191970" points="1669.4975,-290.7523 1679.7919,-288.2474 1670.1823,-283.7859 1669.4975,-290.7523"/>
</g>
<!-- Node64&#45;&gt;Node14 -->
<g id="edge137" class="edge">
<title>Node64&#45;&gt;Node14</title>
<path fill="none" stroke="#191970" d="M1715.8372,-280.2834C1693.9798,-269.1892 1663.6931,-253.8164 1641.441,-242.5218"/>
<polygon fill="#191970" stroke="#191970" points="1714.4323,-283.4954 1724.9335,-284.9005 1717.6006,-277.2534 1714.4323,-283.4954"/>
</g>
<!-- Node64&#45;&gt;Node15 -->
<g id="edge138" class="edge">
<title>Node64&#45;&gt;Node15</title>
<path fill="none" stroke="#191970" d="M1818.1295,-289.1656C1927.3668,-281.0144 2137.6788,-264.1538 2315.8459,-243 2330.3015,-241.2837 2345.8344,-239.1506 2360.4032,-237.0214"/>
<polygon fill="#191970" stroke="#191970" points="1817.5914,-285.6958 1807.8781,-289.9271 1818.11,-292.6766 1817.5914,-285.6958"/>
</g>
<!-- Node64&#45;&gt;Node16 -->
<g id="edge139" class="edge">
<title>Node64&#45;&gt;Node16</title>
<path fill="none" stroke="#191970" d="M1671.0761,-282.9894C1632.7394,-275.0957 1585.7392,-262.4469 1546.8459,-243 1527.0415,-233.0977 1528.6514,-219.5765 1507.8459,-212 1367.8941,-161.0353 315.1553,-197.9961 167.8459,-176 158.5041,-174.6051 148.677,-172.4365 139.3048,-170.0127"/>
<polygon fill="#191970" stroke="#191970" points="1670.6429,-286.4718 1681.134,-284.9931 1672.0106,-279.6067 1670.6429,-286.4718"/>
</g>
<!-- Node64&#45;&gt;Node17 -->
<g id="edge140" class="edge">
<title>Node64&#45;&gt;Node17</title>
<path fill="none" stroke="#191970" d="M1818.2899,-292.7016C1943.3742,-289.7027 2203.6542,-283.5599 2423.8459,-279 3282.9218,-261.2095 3498.7806,-288.2969 4356.8459,-243 4384.2602,-241.5528 4413.9929,-239.2538 4441.1649,-236.8649"/>
<polygon fill="#191970" stroke="#191970" points="1817.9782,-289.208 1808.0651,-292.947 1818.1462,-296.206 1817.9782,-289.208"/>
</g>
<!-- Node64&#45;&gt;Node18 -->
<g id="edge141" class="edge">
<title>Node64&#45;&gt;Node18</title>
<path fill="none" stroke="#191970" d="M1818.3197,-292.7891C2184.9594,-284.3506 3782.6366,-247.3942 3833.8459,-243 3849.9102,-241.6216 3867.2597,-239.3746 3883.1391,-237.0139"/>
<polygon fill="#191970" stroke="#191970" points="1818.0067,-289.2952 1808.0899,-293.0245 1818.1678,-296.2934 1818.0067,-289.2952"/>
</g>
<!-- Node64&#45;&gt;Node20 -->
<g id="edge142" class="edge">
<title>Node64&#45;&gt;Node20</title>
<path fill="none" stroke="#191970" d="M1739.4396,-275.0391C1729.9586,-233.1644 1707.7924,-135.2635 1699.2691,-97.619"/>
<polygon fill="#191970" stroke="#191970" points="1736.0368,-275.8597 1741.6587,-284.8399 1742.864,-274.3139 1736.0368,-275.8597"/>
</g>
<!-- Node64&#45;&gt;Node21 -->
<g id="edge143" class="edge">
<title>Node64&#45;&gt;Node21</title>
<path fill="none" stroke="#191970" d="M1818.1353,-292.708C1945.703,-288.7553 2200.6207,-276.7776 2282.8459,-243 2303.007,-234.718 2300.8513,-220.6762 2320.8459,-212 2430.2866,-164.5107 2472.679,-210.6181 2586.8459,-176 2627.5525,-163.6568 2632.1113,-146.2506 2672.8459,-134 2778.0493,-102.3609 2904.8316,-90.1562 2985.635,-85.4503"/>
<polygon fill="#191970" stroke="#191970" points="1817.9474,-289.212 1808.0574,-293.0118 1818.1584,-296.2088 1817.9474,-289.212"/>
</g>
<!-- Node64&#45;&gt;Node23 -->
<g id="edge147" class="edge">
<title>Node64&#45;&gt;Node23</title>
<path fill="none" stroke="#191970" d="M1818.022,-299.5478C1987.3633,-311.4352 2398.8623,-341.0076 2546.2724,-351.8933"/>
<polygon fill="#191970" stroke="#191970" points="1818.1717,-296.0498 1807.9514,-298.8418 1817.682,-303.0327 1818.1717,-296.0498"/>
</g>
<!-- Node64&#45;&gt;Node63 -->
<g id="edge144" class="edge">
<title>Node64&#45;&gt;Node63</title>
<path fill="none" stroke="#191970" d="M1669.6942,-285.4094C1596.552,-276.0927 1481.6754,-260.521 1382.8459,-243 1372.8953,-241.2359 1362.2314,-239.1079 1352.2126,-237.0014"/>
<polygon fill="#191970" stroke="#191970" points="1669.371,-288.8964 1679.7318,-286.6821 1670.2515,-281.952 1669.371,-288.8964"/>
</g>
<!-- Node64&#45;&gt;Node65 -->
<g id="edge146" class="edge">
<title>Node64&#45;&gt;Node65</title>
<path fill="none" stroke="#191970" d="M1691.1457,-282.76C1644.5194,-272.3586 1574.6432,-256.7357 1513.8459,-243 1505.3422,-241.0788 1496.2429,-239.0122 1487.5557,-237.0339"/>
<polygon fill="#191970" stroke="#191970" points="1690.4989,-286.2016 1701.021,-284.9624 1692.0227,-279.3695 1690.4989,-286.2016"/>
</g>
</g>
</svg>
