<?xml version="1.0" encoding="UTF-8" standalone="no"?>
<!DOCTYPE svg PUBLIC "-//W3C//DTD SVG 1.1//EN"
 "http://www.w3.org/Graphics/SVG/1.1/DTD/svg11.dtd">
<!-- Generated by graphviz version 2.40.1 (20161225.0304)
 -->
<!-- Title: BOOST_AUTO_TEST_CASE Pages: 1 -->
<svg width="536pt" height="470pt"
 viewBox="0.00 0.00 536.00 469.50" xmlns="http://www.w3.org/2000/svg" xmlns:xlink="http://www.w3.org/1999/xlink">
<g id="graph0" class="graph" transform="scale(1 1) rotate(0) translate(4 465.5)">
<title>BOOST_AUTO_TEST_CASE</title>
<polygon fill="#ffffff" stroke="transparent" points="-4,4 -4,-465.5 532,-465.5 532,4 -4,4"/>
<!-- Node92 -->
<g id="node1" class="node">
<title>Node92</title>
<polygon fill="#bfbfbf" stroke="#000000" points="0,-191.5 0,-210.5 143,-210.5 143,-191.5 0,-191.5"/>
<text text-anchor="middle" x="71.5" y="-198.5" font-family="Helvetica,sans-Serif" font-size="10.00" fill="#000000">BOOST_AUTO_TEST_CASE</text>
</g>
<!-- Node93 -->
<g id="node2" class="node">
<title>Node93</title>
<g id="a_node2"><a xlink:href="namespaceprecice_1_1testing.html#a08533fd83bad3d7f27ea7f4a35a14aa4" target="_top" xlink:title="precice::testing::nextMeshID">
<polygon fill="#ffffff" stroke="#000000" points="179,-409.5 179,-428.5 334,-428.5 334,-409.5 179,-409.5"/>
<text text-anchor="middle" x="256.5" y="-416.5" font-family="Helvetica,sans-Serif" font-size="10.00" fill="#000000">precice::testing::nextMeshID</text>
</a>
</g>
</g>
<!-- Node92&#45;&gt;Node93 -->
<g id="edge1" class="edge">
<title>Node92&#45;&gt;Node93</title>
<path fill="none" stroke="#191970" d="M75.5427,-210.6581C87.6561,-238.6842 126.1142,-321.3135 179,-373 192.4366,-386.1319 210.3192,-397.0652 225.5207,-404.9732"/>
<polygon fill="#191970" stroke="#191970" points="224.0658,-408.1589 234.5756,-409.4988 227.1953,-401.8973 224.0658,-408.1589"/>
</g>
<!-- Node95 -->
<g id="node4" class="node">
<title>Node95</title>
<g id="a_node4"><a xlink:href="classprecice_1_1impl_1_1WatchIntegral.html#a16110defeac41dfbe311b6d7e59e3dab" target="_top" xlink:title="Adds surface area information based on mesh connectivity. ">
<polygon fill="#ffffff" stroke="#000000" points="180,-333 180,-363 333,-363 333,-333 180,-333"/>
<text text-anchor="start" x="188" y="-351" font-family="Helvetica,sans-Serif" font-size="10.00" fill="#000000">precice::impl::WatchIntegral</text>
<text text-anchor="middle" x="256.5" y="-340" font-family="Helvetica,sans-Serif" font-size="10.00" fill="#000000">::initialize</text>
</a>
</g>
</g>
<!-- Node92&#45;&gt;Node95 -->
<g id="edge3" class="edge">
<title>Node92&#45;&gt;Node95</title>
<path fill="none" stroke="#191970" d="M83.6384,-210.6451C113.0434,-234.0102 188.667,-294.1003 229.4579,-326.5125"/>
<polygon fill="#191970" stroke="#191970" points="227.3594,-329.3154 237.3661,-332.7963 231.7142,-323.8349 227.3594,-329.3154"/>
</g>
<!-- Node98 -->
<g id="node7" class="node">
<title>Node98</title>
<g id="a_node7"><a xlink:href="classprecice_1_1impl_1_1WatchIntegral.html#a98c1832c8ea8dca8bc03f0932346c952" target="_top" xlink:title="Writes one line with data of the integral over the mesh into the output file. ">
<polygon fill="#ffffff" stroke="#000000" points="180,-186 180,-216 333,-216 333,-186 180,-186"/>
<text text-anchor="start" x="188" y="-204" font-family="Helvetica,sans-Serif" font-size="10.00" fill="#000000">precice::impl::WatchIntegral</text>
<text text-anchor="middle" x="256.5" y="-193" font-family="Helvetica,sans-Serif" font-size="10.00" fill="#000000">::exportIntegralData</text>
</a>
</g>
</g>
<!-- Node92&#45;&gt;Node98 -->
<g id="edge6" class="edge">
<title>Node92&#45;&gt;Node98</title>
<path fill="none" stroke="#191970" d="M143.0258,-201C151.817,-201 160.8749,-201 169.8589,-201"/>
<polygon fill="#191970" stroke="#191970" points="169.9525,-204.5001 179.9525,-201 169.9524,-197.5001 169.9525,-204.5001"/>
</g>
<!-- Node105 -->
<g id="node14" class="node">
<title>Node105</title>
<g id="a_node14"><a xlink:href="namespaceprecice_1_1testing.html#a6a116337529290bbb1bf2545b5fb315a" target="_top" xlink:title="equals to be used in tests. Prints both operatorans on failure ">
<polygon fill="#ffffff" stroke="#000000" points="191.5,-120.5 191.5,-139.5 321.5,-139.5 321.5,-120.5 191.5,-120.5"/>
<text text-anchor="middle" x="256.5" y="-127.5" font-family="Helvetica,sans-Serif" font-size="10.00" fill="#000000">precice::testing::equals</text>
</a>
</g>
</g>
<!-- Node92&#45;&gt;Node105 -->
<g id="edge14" class="edge">
<title>Node92&#45;&gt;Node105</title>
<path fill="none" stroke="#191970" d="M96.4499,-191.4246C128.8143,-179.0037 185.4371,-157.2728 221.9288,-143.2679"/>
<polygon fill="#191970" stroke="#191970" points="223.5686,-146.3875 231.6506,-139.5368 221.0605,-139.8523 223.5686,-146.3875"/>
</g>
<!-- Node106 -->
<g id="node15" class="node">
<title>Node106</title>
<g id="a_node15"><a xlink:href="namespaceprecice_1_1math.html#a0e86802cfe992deba131d789d035b5b7" target="_top" xlink:title="Compares two Eigen::MatrixBase for equality up to tolerance. ">
<polygon fill="#ffffff" stroke="#000000" points="388,-.5 388,-19.5 510,-19.5 510,-.5 388,-.5"/>
<text text-anchor="middle" x="449" y="-7.5" font-family="Helvetica,sans-Serif" font-size="10.00" fill="#000000">precice::math::equals</text>
</a>
</g>
</g>
<!-- Node92&#45;&gt;Node106 -->
<g id="edge16" class="edge">
<title>Node92&#45;&gt;Node106</title>
<path fill="none" stroke="#191970" d="M81.1123,-191.2494C99.0486,-173.4644 139.3969,-135.3502 179,-111 257.6959,-62.6133 282.3308,-58.1279 370,-29 377.6138,-26.4703 385.7438,-24.1269 393.7849,-22.0118"/>
<polygon fill="#191970" stroke="#191970" points="394.6745,-25.397 403.5084,-19.5478 392.9551,-18.6115 394.6745,-25.397"/>
</g>
<!-- Node94 -->
<g id="node3" class="node">
<title>Node94</title>
<g id="a_node3"><a xlink:href="classprecice_1_1utils_1_1ManageUniqueIDs.html#a02be264c279698ae293587b6576088b5" target="_top" xlink:title="precice::utils::ManageUnique\lIDs::getFreeID">
<polygon fill="#ffffff" stroke="#000000" points="370,-431 370,-461 528,-461 528,-431 370,-431"/>
<text text-anchor="start" x="378" y="-449" font-family="Helvetica,sans-Serif" font-size="10.00" fill="#000000">precice::utils::ManageUnique</text>
<text text-anchor="middle" x="449" y="-438" font-family="Helvetica,sans-Serif" font-size="10.00" fill="#000000">IDs::getFreeID</text>
</a>
</g>
</g>
<!-- Node93&#45;&gt;Node94 -->
<g id="edge2" class="edge">
<title>Node93&#45;&gt;Node94</title>
<path fill="none" stroke="#191970" d="M324.3683,-428.5192C335.8694,-430.1323 347.9643,-431.8288 359.9113,-433.5044"/>
<polygon fill="#191970" stroke="#191970" points="359.5064,-436.9818 369.8956,-434.9048 360.4787,-430.0497 359.5064,-436.9818"/>
</g>
<!-- Node96 -->
<g id="node5" class="node">
<title>Node96</title>
<g id="a_node5"><a xlink:href="classprecice_1_1utils_1_1MasterSlave.html#a3837ad42361b53d7e930443ba07a9eb5" target="_top" xlink:title="True if this process is running a slave. ">
<polygon fill="#ffffff" stroke="#000000" points="376.5,-333 376.5,-363 521.5,-363 521.5,-333 376.5,-333"/>
<text text-anchor="start" x="384.5" y="-351" font-family="Helvetica,sans-Serif" font-size="10.00" fill="#000000">precice::utils::MasterSlave</text>
<text text-anchor="middle" x="449" y="-340" font-family="Helvetica,sans-Serif" font-size="10.00" fill="#000000">::isSlave</text>
</a>
</g>
</g>
<!-- Node95&#45;&gt;Node96 -->
<g id="edge4" class="edge">
<title>Node95&#45;&gt;Node96</title>
<path fill="none" stroke="#191970" d="M333.1342,-348C344.0515,-348 355.3204,-348 366.3464,-348"/>
<polygon fill="#191970" stroke="#191970" points="366.3869,-351.5001 376.3869,-348 366.3869,-344.5001 366.3869,-351.5001"/>
</g>
<!-- Node97 -->
<g id="node6" class="node">
<title>Node97</title>
<g id="a_node6"><a xlink:href="classprecice_1_1io_1_1TXTTableWriter.html#aa00e05bba3dca26c391d9df7ec0170cf" target="_top" xlink:title="Adds a data entry to the table. ">
<polygon fill="#ffffff" stroke="#000000" points="376,-382 376,-412 522,-412 522,-382 376,-382"/>
<text text-anchor="start" x="384" y="-400" font-family="Helvetica,sans-Serif" font-size="10.00" fill="#000000">precice::io::TXTTableWriter</text>
<text text-anchor="middle" x="449" y="-389" font-family="Helvetica,sans-Serif" font-size="10.00" fill="#000000">::addData</text>
</a>
</g>
</g>
<!-- Node95&#45;&gt;Node97 -->
<g id="edge5" class="edge">
<title>Node95&#45;&gt;Node97</title>
<path fill="none" stroke="#191970" d="M315.5646,-363.0346C335.9823,-368.2318 359.0381,-374.1006 380.17,-379.4796"/>
<polygon fill="#191970" stroke="#191970" points="379.4927,-382.9188 390.0471,-381.9938 381.2196,-376.1351 379.4927,-382.9188"/>
</g>
<!-- Node98&#45;&gt;Node96 -->
<g id="edge7" class="edge">
<title>Node98&#45;&gt;Node96</title>
<path fill="none" stroke="#191970" d="M266.4751,-216.2806C284.2049,-242.2442 323.7246,-294.9721 370,-324 372.6468,-325.6603 375.4155,-327.2118 378.2664,-328.6611"/>
<polygon fill="#191970" stroke="#191970" points="377.0531,-331.9554 387.6012,-332.9497 379.9754,-325.5945 377.0531,-331.9554"/>
</g>
<!-- Node99 -->
<g id="node8" class="node">
<title>Node99</title>
<g id="a_node8"><a xlink:href="classprecice_1_1io_1_1TXTTableWriter.html#adc48b2e227c529b370bf016996c5f9d1" target="_top" xlink:title="Writes a integral scalar data value associated to the entry name. ">
<polygon fill="#ffffff" stroke="#000000" points="376,-284 376,-314 522,-314 522,-284 376,-284"/>
<text text-anchor="start" x="384" y="-302" font-family="Helvetica,sans-Serif" font-size="10.00" fill="#000000">precice::io::TXTTableWriter</text>
<text text-anchor="middle" x="449" y="-291" font-family="Helvetica,sans-Serif" font-size="10.00" fill="#000000">::writeData</text>
</a>
</g>
</g>
<!-- Node98&#45;&gt;Node99 -->
<g id="edge8" class="edge">
<title>Node98&#45;&gt;Node99</title>
<path fill="none" stroke="#191970" d="M275.9945,-216.1856C297.8417,-232.5968 334.8238,-258.5962 370,-275 374.0557,-276.8913 378.297,-278.6782 382.6184,-280.3581"/>
<polygon fill="#191970" stroke="#191970" points="381.5721,-283.7023 392.1657,-283.8636 383.9849,-277.1313 381.5721,-283.7023"/>
</g>
<!-- Node100 -->
<g id="node9" class="node">
<title>Node100</title>
<g id="a_node9"><a xlink:href="classprecice_1_1impl_1_1WatchIntegral.html#a1fec41e0dfa5de7ad9804063b0b9ea29" target="_top" xlink:title="precice::impl::WatchIntegral\l::calculateVectorData">
<polygon fill="#ffffff" stroke="#000000" points="372.5,-235 372.5,-265 525.5,-265 525.5,-235 372.5,-235"/>
<text text-anchor="start" x="380.5" y="-253" font-family="Helvetica,sans-Serif" font-size="10.00" fill="#000000">precice::impl::WatchIntegral</text>
<text text-anchor="middle" x="449" y="-242" font-family="Helvetica,sans-Serif" font-size="10.00" fill="#000000">::calculateVectorData</text>
</a>
</g>
</g>
<!-- Node98&#45;&gt;Node100 -->
<g id="edge9" class="edge">
<title>Node98&#45;&gt;Node100</title>
<path fill="none" stroke="#191970" d="M315.5646,-216.0346C335.9823,-221.2318 359.0381,-227.1006 380.17,-232.4796"/>
<polygon fill="#191970" stroke="#191970" points="379.4927,-235.9188 390.0471,-234.9938 381.2196,-229.1351 379.4927,-235.9188"/>
</g>
<!-- Node101 -->
<g id="node10" class="node">
<title>Node101</title>
<g id="a_node10"><a xlink:href="classprecice_1_1utils_1_1MasterSlave.html#ae8671e778dec26782120295d51bb3fde" target="_top" xlink:title="Number of ranks. This includes ranks from both participants, e.g. minimal size is 2...">
<polygon fill="#ffffff" stroke="#000000" points="376.5,-186 376.5,-216 521.5,-216 521.5,-186 376.5,-186"/>
<text text-anchor="start" x="384.5" y="-204" font-family="Helvetica,sans-Serif" font-size="10.00" fill="#000000">precice::utils::MasterSlave</text>
<text text-anchor="middle" x="449" y="-193" font-family="Helvetica,sans-Serif" font-size="10.00" fill="#000000">::getSize</text>
</a>
</g>
</g>
<!-- Node98&#45;&gt;Node101 -->
<g id="edge10" class="edge">
<title>Node98&#45;&gt;Node101</title>
<path fill="none" stroke="#191970" d="M333.1342,-201C344.0515,-201 355.3204,-201 366.3464,-201"/>
<polygon fill="#191970" stroke="#191970" points="366.3869,-204.5001 376.3869,-201 366.3869,-197.5001 366.3869,-204.5001"/>
</g>
<!-- Node102 -->
<g id="node11" class="node">
<title>Node102</title>
<g id="a_node11"><a xlink:href="classprecice_1_1utils_1_1MasterSlave.html#a2633ea74e009a3743307da856f1c41ba" target="_top" xlink:title="precice::utils::MasterSlave\l::reduceSum">
<polygon fill="#ffffff" stroke="#000000" points="376.5,-137 376.5,-167 521.5,-167 521.5,-137 376.5,-137"/>
<text text-anchor="start" x="384.5" y="-155" font-family="Helvetica,sans-Serif" font-size="10.00" fill="#000000">precice::utils::MasterSlave</text>
<text text-anchor="middle" x="449" y="-144" font-family="Helvetica,sans-Serif" font-size="10.00" fill="#000000">::reduceSum</text>
</a>
</g>
</g>
<!-- Node98&#45;&gt;Node102 -->
<g id="edge11" class="edge">
<title>Node98&#45;&gt;Node102</title>
<path fill="none" stroke="#191970" d="M315.5646,-185.9654C335.9823,-180.7682 359.0381,-174.8994 380.17,-169.5204"/>
<polygon fill="#191970" stroke="#191970" points="381.2196,-172.8649 390.0471,-167.0062 379.4927,-166.0812 381.2196,-172.8649"/>
</g>
<!-- Node103 -->
<g id="node12" class="node">
<title>Node103</title>
<g id="a_node12"><a xlink:href="classprecice_1_1impl_1_1WatchIntegral.html#a44051e5035f7ba901bfccd445b451174" target="_top" xlink:title="precice::impl::WatchIntegral\l::calculateScalarData">
<polygon fill="#ffffff" stroke="#000000" points="372.5,-88 372.5,-118 525.5,-118 525.5,-88 372.5,-88"/>
<text text-anchor="start" x="380.5" y="-106" font-family="Helvetica,sans-Serif" font-size="10.00" fill="#000000">precice::impl::WatchIntegral</text>
<text text-anchor="middle" x="449" y="-95" font-family="Helvetica,sans-Serif" font-size="10.00" fill="#000000">::calculateScalarData</text>
</a>
</g>
</g>
<!-- Node98&#45;&gt;Node103 -->
<g id="edge12" class="edge">
<title>Node98&#45;&gt;Node103</title>
<path fill="none" stroke="#191970" d="M278.2963,-185.9955C305.7463,-167.2745 351.55,-136.6639 370,-128 374.883,-125.707 380.0306,-123.5493 385.2605,-121.5365"/>
<polygon fill="#191970" stroke="#191970" points="386.5366,-124.7966 394.7239,-118.0721 384.1301,-118.2233 386.5366,-124.7966"/>
</g>
<!-- Node104 -->
<g id="node13" class="node">
<title>Node104</title>
<g id="a_node13"><a xlink:href="classprecice_1_1impl_1_1WatchIntegral.html#a47043dc3ec321e4fd3db8714523dda79" target="_top" xlink:title="precice::impl::WatchIntegral\l::calculateSurfaceArea">
<polygon fill="#ffffff" stroke="#000000" points="372.5,-39 372.5,-69 525.5,-69 525.5,-39 372.5,-39"/>
<text text-anchor="start" x="380.5" y="-57" font-family="Helvetica,sans-Serif" font-size="10.00" fill="#000000">precice::impl::WatchIntegral</text>
<text text-anchor="middle" x="449" y="-46" font-family="Helvetica,sans-Serif" font-size="10.00" fill="#000000">::calculateSurfaceArea</text>
</a>
</g>
</g>
<!-- Node98&#45;&gt;Node104 -->
<g id="edge13" class="edge">
<title>Node98&#45;&gt;Node104</title>
<path fill="none" stroke="#191970" d="M286.0324,-185.9697C301.7394,-176.8796 320.5325,-164.1273 334,-149 357.2625,-122.8704 343.2681,-101.5679 370,-79 372.0198,-77.2948 374.1567,-75.7056 376.3834,-74.2245"/>
<polygon fill="#191970" stroke="#191970" points="378.4568,-77.0686 385.3599,-69.0313 374.9514,-71.0095 378.4568,-77.0686"/>
</g>
<!-- Node105&#45;&gt;Node106 -->
<g id="edge15" class="edge">
<title>Node105&#45;&gt;Node106</title>
<path fill="none" stroke="#191970" d="M264.4688,-120.2141C281.5606,-99.9045 323.9479,-53.0693 370,-29 374.4948,-26.6508 379.2853,-24.5867 384.1997,-22.7739"/>
<polygon fill="#191970" stroke="#191970" points="385.3775,-26.0707 393.7581,-19.5888 383.1645,-19.4297 385.3775,-26.0707"/>
</g>
</g>
</svg>
