<?xml version="1.0" encoding="UTF-8" standalone="no"?>
<!DOCTYPE svg PUBLIC "-//W3C//DTD SVG 1.1//EN"
 "http://www.w3.org/Graphics/SVG/1.1/DTD/svg11.dtd">
<!-- Generated by graphviz version 2.40.1 (20161225.0304)
 -->
<!-- Title: BOOST_AUTO_TEST_CASE Pages: 1 -->
<!--zoomable 421 -->
<svg id="main" version="1.1" xmlns="http://www.w3.org/2000/svg" xmlns:xlink="http://www.w3.org/1999/xlink" xml:space="preserve" onload="init(evt)">
<style type="text/css"><![CDATA[
.edge:hover path { stroke: red; }
.edge:hover polygon { stroke: red; fill: red; }
]]></style>
<script type="text/javascript"><![CDATA[
var edges = document.getElementsByTagName('g');
if (edges && edges.length) {
  for (var i=0;i<edges.length;i++) {
    if (edges[i].id.substr(0,4)=='edge') {
      edges[i].setAttribute('class','edge');
    }
  }
}
]]></script>
        <defs>
                <circle id="rim" cx="0" cy="0" r="7"/>
                <circle id="rim2" cx="0" cy="0" r="3.5"/>
                <g id="zoomPlus">
                        <use xlink:href="#rim" fill="#404040">
                                <set attributeName="fill" to="#808080" begin="zoomplus.mouseover" end="zoomplus.mouseout"/>
                        </use>
                        <path d="M-4,0h8M0,-4v8" fill="none" stroke="white" stroke-width="1.5" pointer-events="none"/>
                </g>
                <g id="zoomMin">
                        <use xlink:href="#rim" fill="#404040">
                                <set attributeName="fill" to="#808080" begin="zoomminus.mouseover" end="zoomminus.mouseout"/>
                        </use>
                        <path d="M-4,0h8" fill="none" stroke="white" stroke-width="1.5" pointer-events="none"/>
                </g>
                <g id="dirArrow">
                        <path fill="none" stroke="white" stroke-width="1.5" d="M0,-3.0v7 M-2.5,-0.5L0,-3.0L2.5,-0.5"/>
                </g>
               <g id="resetDef">
                       <use xlink:href="#rim2" fill="#404040">
                               <set attributeName="fill" to="#808080" begin="reset.mouseover" end="reset.mouseout"/>
                       </use>
               </g>
        </defs>

<script type="text/javascript">
var viewWidth = 707;
var viewHeight = 421;
var sectionId = 'dynsection-5';
</script>
<script xlink:href="svgpan.js"/>
<svg id="graph" class="graph">
<g id="viewport">
<title>BOOST_AUTO_TEST_CASE</title>
<polygon fill="#ffffff" stroke="transparent" points="-4,4 -4,-416.5 703,-416.5 703,4 -4,4"/>
<!-- Node60 -->
<g id="node1" class="node">
<title>Node60</title>
<polygon fill="#bfbfbf" stroke="#000000" points="0,-141.5 0,-160.5 143,-160.5 143,-141.5 0,-141.5"/>
<text text-anchor="middle" x="71.5" y="-148.5" font-family="Helvetica,sans-Serif" font-size="10.00" fill="#000000">BOOST_AUTO_TEST_CASE</text>
</g>
<!-- Node61 -->
<g id="node2" class="node">
<title>Node61</title>
<g id="a_node2"><a xlink:href="namespaceprecice_1_1testing.html#a08533fd83bad3d7f27ea7f4a35a14aa4" target="_top" xlink:title="precice::testing::nextMeshID">
<polygon fill="#ffffff" stroke="#000000" points="179,-360.5 179,-379.5 334,-379.5 334,-360.5 179,-360.5"/>
<text text-anchor="middle" x="256.5" y="-367.5" font-family="Helvetica,sans-Serif" font-size="10.00" fill="#000000">precice::testing::nextMeshID</text>
</a>
</g>
</g>
<!-- Node60&#45;&gt;Node61 -->
<g id="edge1" class="edge">
<title>Node60&#45;&gt;Node61</title>
<path fill="none" stroke="#191970" d="M75.5278,-160.7157C87.6008,-188.9088 125.9605,-272.0282 179,-324 192.3269,-337.0586 210.0546,-347.9328 225.1912,-355.824"/>
<polygon fill="#191970" stroke="#191970" points="223.7099,-358.9965 234.2186,-360.3449 226.8444,-352.7375 223.7099,-358.9965"/>
</g>
<!-- Node63 -->
<g id="node4" class="node">
<title>Node63</title>
<g id="a_node4"><a xlink:href="classprecice_1_1impl_1_1WatchIntegral.html#a16110defeac41dfbe311b6d7e59e3dab" target="_top" xlink:title="Adds surface area information based on mesh connectivity. ">
<polygon fill="#ffffff" stroke="#000000" points="180,-284 180,-314 333,-314 333,-284 180,-284"/>
<text text-anchor="start" x="188" y="-302" font-family="Helvetica,sans-Serif" font-size="10.00" fill="#000000">precice::impl::WatchIntegral</text>
<text text-anchor="middle" x="256.5" y="-291" font-family="Helvetica,sans-Serif" font-size="10.00" fill="#000000">::initialize</text>
</a>
</g>
</g>
<!-- Node60&#45;&gt;Node63 -->
<g id="edge3" class="edge">
<title>Node60&#45;&gt;Node63</title>
<path fill="none" stroke="#191970" d="M83.6384,-160.7107C113.1186,-184.2949 189.0541,-245.0433 229.7702,-277.6162"/>
<polygon fill="#191970" stroke="#191970" points="227.6621,-280.4118 237.6572,-283.9258 232.035,-274.9457 227.6621,-280.4118"/>
</g>
<!-- Node66 -->
<g id="node7" class="node">
<title>Node66</title>
<g id="a_node7"><a xlink:href="classprecice_1_1impl_1_1WatchIntegral.html#a98c1832c8ea8dca8bc03f0932346c952" target="_top" xlink:title="Writes one line with data of the integral over the mesh into the output file. ">
<polygon fill="#ffffff" stroke="#000000" points="180,-161 180,-191 333,-191 333,-161 180,-161"/>
<text text-anchor="start" x="188" y="-179" font-family="Helvetica,sans-Serif" font-size="10.00" fill="#000000">precice::impl::WatchIntegral</text>
<text text-anchor="middle" x="256.5" y="-168" font-family="Helvetica,sans-Serif" font-size="10.00" fill="#000000">::exportIntegralData</text>
</a>
</g>
</g>
<!-- Node60&#45;&gt;Node66 -->
<g id="edge6" class="edge">
<title>Node60&#45;&gt;Node66</title>
<path fill="none" stroke="#191970" d="M141.9683,-160.5227C151.0419,-161.7489 160.4157,-163.0156 169.7123,-164.2719"/>
<polygon fill="#191970" stroke="#191970" points="169.3732,-167.7578 179.7519,-165.6286 170.3107,-160.8209 169.3732,-167.7578"/>
</g>
<!-- Node73 -->
<g id="node14" class="node">
<title>Node73</title>
<g id="a_node14"><a xlink:href="classprecice_1_1utils_1_1MasterSlave.html#a5e934392c32335daa8e2b4a01bc75fd3" target="_top" xlink:title="True if this process is running the master. ">
<polygon fill="#ffffff" stroke="#000000" points="184,-112 184,-142 329,-142 329,-112 184,-112"/>
<text text-anchor="start" x="192" y="-130" font-family="Helvetica,sans-Serif" font-size="10.00" fill="#000000">precice::utils::MasterSlave</text>
<text text-anchor="middle" x="256.5" y="-119" font-family="Helvetica,sans-Serif" font-size="10.00" fill="#000000">::isMaster</text>
</a>
</g>
</g>
<!-- Node60&#45;&gt;Node73 -->
<g id="edge14" class="edge">
<title>Node60&#45;&gt;Node73</title>
<path fill="none" stroke="#191970" d="M143.0258,-141.721C153.0919,-140.4151 163.5078,-139.0639 173.7619,-137.7336"/>
<polygon fill="#191970" stroke="#191970" points="174.4765,-141.1703 183.9431,-136.4128 173.5759,-134.2285 174.4765,-141.1703"/>
</g>
<!-- Node74 -->
<g id="node15" class="node">
<title>Node74</title>
<g id="a_node15"><a xlink:href="namespaceprecice_1_1testing.html#a6a116337529290bbb1bf2545b5fb315a" target="_top" xlink:title="equals to be used in tests. Prints both operatorans on failure ">
<polygon fill="#ffffff" stroke="#000000" points="191.5,-70.5 191.5,-89.5 321.5,-89.5 321.5,-70.5 191.5,-70.5"/>
<text text-anchor="middle" x="256.5" y="-77.5" font-family="Helvetica,sans-Serif" font-size="10.00" fill="#000000">precice::testing::equals</text>
</a>
</g>
</g>
<!-- Node60&#45;&gt;Node74 -->
<g id="edge15" class="edge">
<title>Node60&#45;&gt;Node74</title>
<path fill="none" stroke="#191970" d="M90.1679,-141.4439C111.3287,-130.86 147.0417,-113.7431 179,-102 188.5508,-98.4905 198.9321,-95.199 208.9005,-92.285"/>
<polygon fill="#191970" stroke="#191970" points="210.0238,-95.6044 218.6852,-89.5028 208.1092,-88.8713 210.0238,-95.6044"/>
</g>
<!-- Node75 -->
<g id="node16" class="node">
<title>Node75</title>
<g id="a_node16"><a xlink:href="namespaceprecice_1_1math.html#a0e86802cfe992deba131d789d035b5b7" target="_top" xlink:title="Compares two Eigen::MatrixBase for equality up to tolerance. ">
<polygon fill="#ffffff" stroke="#000000" points="388,-.5 388,-19.5 510,-19.5 510,-.5 388,-.5"/>
<text text-anchor="middle" x="449" y="-7.5" font-family="Helvetica,sans-Serif" font-size="10.00" fill="#000000">precice::math::equals</text>
</a>
</g>
</g>
<!-- Node60&#45;&gt;Node75 -->
<g id="edge17" class="edge">
<title>Node60&#45;&gt;Node75</title>
<path fill="none" stroke="#191970" d="M79.8509,-141.2733C96.5892,-122.4658 136.3147,-81.1923 179,-61 242.1263,-31.1382 321.3449,-18.7516 377.61,-13.6191"/>
<polygon fill="#191970" stroke="#191970" points="378.175,-17.0836 387.8397,-12.7426 377.5774,-10.1092 378.175,-17.0836"/>
</g>
<!-- Node62 -->
<g id="node3" class="node">
<title>Node62</title>
<g id="a_node3"><a xlink:href="classprecice_1_1utils_1_1ManageUniqueIDs.html#a02be264c279698ae293587b6576088b5" target="_top" xlink:title="precice::utils::ManageUnique\lIDs::getFreeID">
<polygon fill="#ffffff" stroke="#000000" points="370,-382 370,-412 528,-412 528,-382 370,-382"/>
<text text-anchor="start" x="378" y="-400" font-family="Helvetica,sans-Serif" font-size="10.00" fill="#000000">precice::utils::ManageUnique</text>
<text text-anchor="middle" x="449" y="-389" font-family="Helvetica,sans-Serif" font-size="10.00" fill="#000000">IDs::getFreeID</text>
</a>
</g>
</g>
<!-- Node61&#45;&gt;Node62 -->
<g id="edge2" class="edge">
<title>Node61&#45;&gt;Node62</title>
<path fill="none" stroke="#191970" d="M324.3683,-379.5192C335.8694,-381.1323 347.9643,-382.8288 359.9113,-384.5044"/>
<polygon fill="#191970" stroke="#191970" points="359.5064,-387.9818 369.8956,-385.9048 360.4787,-381.0497 359.5064,-387.9818"/>
</g>
<!-- Node64 -->
<g id="node5" class="node">
<title>Node64</title>
<g id="a_node5"><a xlink:href="classprecice_1_1utils_1_1MasterSlave.html#a3837ad42361b53d7e930443ba07a9eb5" target="_top" xlink:title="True if this process is running a slave. ">
<polygon fill="#ffffff" stroke="#000000" points="376.5,-284 376.5,-314 521.5,-314 521.5,-284 376.5,-284"/>
<text text-anchor="start" x="384.5" y="-302" font-family="Helvetica,sans-Serif" font-size="10.00" fill="#000000">precice::utils::MasterSlave</text>
<text text-anchor="middle" x="449" y="-291" font-family="Helvetica,sans-Serif" font-size="10.00" fill="#000000">::isSlave</text>
</a>
</g>
</g>
<!-- Node63&#45;&gt;Node64 -->
<g id="edge4" class="edge">
<title>Node63&#45;&gt;Node64</title>
<path fill="none" stroke="#191970" d="M333.1342,-299C344.0515,-299 355.3204,-299 366.3464,-299"/>
<polygon fill="#191970" stroke="#191970" points="366.3869,-302.5001 376.3869,-299 366.3869,-295.5001 366.3869,-302.5001"/>
</g>
<!-- Node65 -->
<g id="node6" class="node">
<title>Node65</title>
<g id="a_node6"><a xlink:href="classprecice_1_1io_1_1TXTTableWriter.html#aa00e05bba3dca26c391d9df7ec0170cf" target="_top" xlink:title="Adds a data entry to the table. ">
<polygon fill="#ffffff" stroke="#000000" points="376,-333 376,-363 522,-363 522,-333 376,-333"/>
<text text-anchor="start" x="384" y="-351" font-family="Helvetica,sans-Serif" font-size="10.00" fill="#000000">precice::io::TXTTableWriter</text>
<text text-anchor="middle" x="449" y="-340" font-family="Helvetica,sans-Serif" font-size="10.00" fill="#000000">::addData</text>
</a>
</g>
</g>
<!-- Node63&#45;&gt;Node65 -->
<g id="edge5" class="edge">
<title>Node63&#45;&gt;Node65</title>
<path fill="none" stroke="#191970" d="M315.5646,-314.0346C335.9823,-319.2318 359.0381,-325.1006 380.17,-330.4796"/>
<polygon fill="#191970" stroke="#191970" points="379.4927,-333.9188 390.0471,-332.9938 381.2196,-327.1351 379.4927,-333.9188"/>
</g>
<!-- Node66&#45;&gt;Node64 -->
<g id="edge7" class="edge">
<title>Node66&#45;&gt;Node64</title>
<path fill="none" stroke="#191970" d="M270.0173,-191.3235C289.8831,-212.9492 329.0633,-252.3107 370,-275 373.2636,-276.8089 376.6803,-278.498 380.1853,-280.0731"/>
<polygon fill="#191970" stroke="#191970" points="379.0463,-283.3896 389.6247,-283.9799 381.7233,-276.9217 379.0463,-283.3896"/>
</g>
<!-- Node67 -->
<g id="node8" class="node">
<title>Node67</title>
<g id="a_node8"><a xlink:href="classprecice_1_1io_1_1TXTTableWriter.html#adc48b2e227c529b370bf016996c5f9d1" target="_top" xlink:title="Writes a integral scalar data value associated to the entry name. ">
<polygon fill="#ffffff" stroke="#000000" points="376,-235 376,-265 522,-265 522,-235 376,-235"/>
<text text-anchor="start" x="384" y="-253" font-family="Helvetica,sans-Serif" font-size="10.00" fill="#000000">precice::io::TXTTableWriter</text>
<text text-anchor="middle" x="449" y="-242" font-family="Helvetica,sans-Serif" font-size="10.00" fill="#000000">::writeData</text>
</a>
</g>
</g>
<!-- Node66&#45;&gt;Node67 -->
<g id="edge8" class="edge">
<title>Node66&#45;&gt;Node67</title>
<path fill="none" stroke="#191970" d="M287.882,-191.0415C310.4393,-201.552 341.734,-215.5235 370,-226 375.4246,-228.0106 381.1023,-229.9837 386.8185,-231.8812"/>
<polygon fill="#191970" stroke="#191970" points="385.8449,-235.2449 396.4368,-234.9965 388.0018,-228.5854 385.8449,-235.2449"/>
</g>
<!-- Node68 -->
<g id="node9" class="node">
<title>Node68</title>
<g id="a_node9"><a xlink:href="classprecice_1_1impl_1_1WatchIntegral.html#a1dbea53615dfaa386fc4502061c3a2a5" target="_top" xlink:title="precice::impl::WatchIntegral\l::calculateIntegral">
<polygon fill="#ffffff" stroke="#000000" points="372.5,-186 372.5,-216 525.5,-216 525.5,-186 372.5,-186"/>
<text text-anchor="start" x="380.5" y="-204" font-family="Helvetica,sans-Serif" font-size="10.00" fill="#000000">precice::impl::WatchIntegral</text>
<text text-anchor="middle" x="449" y="-193" font-family="Helvetica,sans-Serif" font-size="10.00" fill="#000000">::calculateIntegral</text>
</a>
</g>
</g>
<!-- Node66&#45;&gt;Node68 -->
<g id="edge9" class="edge">
<title>Node66&#45;&gt;Node68</title>
<path fill="none" stroke="#191970" d="M333.1342,-185.9525C342.7057,-187.1955 352.5474,-188.4737 362.2587,-189.7349"/>
<polygon fill="#191970" stroke="#191970" points="361.9475,-193.2238 372.315,-191.0409 362.849,-186.2821 361.9475,-193.2238"/>
</g>
<!-- Node70 -->
<g id="node11" class="node">
<title>Node70</title>
<g id="a_node11"><a xlink:href="classprecice_1_1utils_1_1MasterSlave.html#ae8671e778dec26782120295d51bb3fde" target="_top" xlink:title="Number of ranks. This includes ranks from both participants, e.g. minimal size is 2...">
<polygon fill="#ffffff" stroke="#000000" points="376.5,-137 376.5,-167 521.5,-167 521.5,-137 376.5,-137"/>
<text text-anchor="start" x="384.5" y="-155" font-family="Helvetica,sans-Serif" font-size="10.00" fill="#000000">precice::utils::MasterSlave</text>
<text text-anchor="middle" x="449" y="-144" font-family="Helvetica,sans-Serif" font-size="10.00" fill="#000000">::getSize</text>
</a>
</g>
</g>
<!-- Node66&#45;&gt;Node70 -->
<g id="edge11" class="edge">
<title>Node66&#45;&gt;Node70</title>
<path fill="none" stroke="#191970" d="M333.1342,-166.4456C344.0515,-165.0845 355.3204,-163.6795 366.3464,-162.3049"/>
<polygon fill="#191970" stroke="#191970" points="366.8968,-165.7634 376.3869,-161.0531 366.0307,-158.8172 366.8968,-165.7634"/>
</g>
<!-- Node71 -->
<g id="node12" class="node">
<title>Node71</title>
<g id="a_node12"><a xlink:href="classprecice_1_1utils_1_1MasterSlave.html#a2633ea74e009a3743307da856f1c41ba" target="_top" xlink:title="precice::utils::MasterSlave\l::reduceSum">
<polygon fill="#ffffff" stroke="#000000" points="376.5,-88 376.5,-118 521.5,-118 521.5,-88 376.5,-88"/>
<text text-anchor="start" x="384.5" y="-106" font-family="Helvetica,sans-Serif" font-size="10.00" fill="#000000">precice::utils::MasterSlave</text>
<text text-anchor="middle" x="449" y="-95" font-family="Helvetica,sans-Serif" font-size="10.00" fill="#000000">::reduceSum</text>
</a>
</g>
</g>
<!-- Node66&#45;&gt;Node71 -->
<g id="edge12" class="edge">
<title>Node66&#45;&gt;Node71</title>
<path fill="none" stroke="#191970" d="M309.7922,-160.9648C318.0471,-158.0233 326.362,-154.6898 334,-151 351.3151,-142.6354 352.614,-135.2162 370,-127 374.0459,-125.088 378.2799,-123.2854 382.5959,-121.594"/>
<polygon fill="#191970" stroke="#191970" points="383.9673,-124.8186 392.1343,-118.0694 381.541,-118.2525 383.9673,-124.8186"/>
</g>
<!-- Node72 -->
<g id="node13" class="node">
<title>Node72</title>
<g id="a_node13"><a xlink:href="classprecice_1_1impl_1_1WatchIntegral.html#ad509475bc558fa97bf90f9ad6daee7e0" target="_top" xlink:title="precice::impl::WatchIntegral\l::calculateSurfaceArea">
<polygon fill="#ffffff" stroke="#000000" points="372.5,-39 372.5,-69 525.5,-69 525.5,-39 372.5,-39"/>
<text text-anchor="start" x="380.5" y="-57" font-family="Helvetica,sans-Serif" font-size="10.00" fill="#000000">precice::impl::WatchIntegral</text>
<text text-anchor="middle" x="449" y="-46" font-family="Helvetica,sans-Serif" font-size="10.00" fill="#000000">::calculateSurfaceArea</text>
</a>
</g>
</g>
<!-- Node66&#45;&gt;Node72 -->
<g id="edge13" class="edge">
<title>Node66&#45;&gt;Node72</title>
<path fill="none" stroke="#191970" d="M319.0055,-160.9339C324.4007,-158.1614 329.5061,-154.881 334,-151 361.3785,-127.3556 342.4202,-101.4094 370,-78 371.5163,-76.713 373.1003,-75.495 374.7402,-74.3423"/>
<polygon fill="#191970" stroke="#191970" points="376.6255,-77.2922 383.3511,-69.1059 372.9884,-71.3113 376.6255,-77.2922"/>
</g>
<!-- Node69 -->
<g id="node10" class="node">
<title>Node69</title>
<g id="a_node10"><a xlink:href="namespaceprecice_1_1mesh.html#a821683799e9865ccd4b81f40a56c3d2d" target="_top" xlink:title="Given the data and the mesh, this function returns the surface integral. Assumes no overlap exists fo...">
<polygon fill="#ffffff" stroke="#000000" points="564,-191.5 564,-210.5 699,-210.5 699,-191.5 564,-191.5"/>
<text text-anchor="middle" x="631.5" y="-198.5" font-family="Helvetica,sans-Serif" font-size="10.00" fill="#000000">precice::mesh::integrate</text>
</a>
</g>
</g>
<!-- Node68&#45;&gt;Node69 -->
<g id="edge10" class="edge">
<title>Node68&#45;&gt;Node69</title>
<path fill="none" stroke="#191970" d="M525.6032,-201C534.9157,-201 544.4372,-201 553.7659,-201"/>
<polygon fill="#191970" stroke="#191970" points="553.794,-204.5001 563.794,-201 553.7939,-197.5001 553.794,-204.5001"/>
</g>
<!-- Node74&#45;&gt;Node75 -->
<g id="edge16" class="edge">
<title>Node74&#45;&gt;Node75</title>
<path fill="none" stroke="#191970" d="M286.1255,-70.4057C300.8042,-65.2796 318.6311,-58.4868 334,-51 350.8573,-42.7881 352.6733,-36.1686 370,-29 376.1304,-26.4637 382.6747,-24.218 389.2739,-22.2417"/>
<polygon fill="#191970" stroke="#191970" points="390.2532,-25.6022 398.9399,-19.5367 388.3666,-18.8612 390.2532,-25.6022"/>
</g>
</g>
</svg>
        <g id="navigator" transform="translate(0 0)" fill="#404254">
                <rect fill="#f2f5e9" fill-opacity="0.5" stroke="#606060" stroke-width=".5" x="0" y="0" width="60" height="60"/>
                <use id="zoomplus" xlink:href="#zoomPlus" x="17" y="9" onmousedown="handleZoom(evt,'in')"/>
                <use id="zoomminus" xlink:href="#zoomMin" x="42" y="9" onmousedown="handleZoom(evt,'out')"/>
                <use id="reset" xlink:href="#resetDef" x="30" y="36" onmousedown="handleReset()"/>
                <g id="arrowUp" xlink:href="#dirArrow" transform="translate(30 24)" onmousedown="handlePan(0,-1)">
                  <use xlink:href="#rim" fill="#404040">
                        <set attributeName="fill" to="#808080" begin="arrowUp.mouseover" end="arrowUp.mouseout"/>
                  </use>
                  <path fill="none" stroke="white" stroke-width="1.5" d="M0,-3.0v7 M-2.5,-0.5L0,-3.0L2.5,-0.5"/>
                </g>
                <g id="arrowRight" xlink:href="#dirArrow" transform="rotate(90) translate(36 -43)" onmousedown="handlePan(1,0)">
                  <use xlink:href="#rim" fill="#404040">
                        <set attributeName="fill" to="#808080" begin="arrowRight.mouseover" end="arrowRight.mouseout"/>
                  </use>
                  <path fill="none" stroke="white" stroke-width="1.5" d="M0,-3.0v7 M-2.5,-0.5L0,-3.0L2.5,-0.5"/>
                </g>
                <g id="arrowDown" xlink:href="#dirArrow" transform="rotate(180) translate(-30 -48)" onmousedown="handlePan(0,1)">
                  <use xlink:href="#rim" fill="#404040">
                        <set attributeName="fill" to="#808080" begin="arrowDown.mouseover" end="arrowDown.mouseout"/>
                  </use>
                  <path fill="none" stroke="white" stroke-width="1.5" d="M0,-3.0v7 M-2.5,-0.5L0,-3.0L2.5,-0.5"/>
                </g>
                <g id="arrowLeft" xlink:href="#dirArrow" transform="rotate(270) translate(-36 17)" onmousedown="handlePan(-1,0)">
                  <use xlink:href="#rim" fill="#404040">
                        <set attributeName="fill" to="#808080" begin="arrowLeft.mouseover" end="arrowLeft.mouseout"/>
                  </use>
                  <path fill="none" stroke="white" stroke-width="1.5" d="M0,-3.0v7 M-2.5,-0.5L0,-3.0L2.5,-0.5"/>
                </g>
        </g>
        <svg viewBox="0 0 15 15" width="100%" height="30px" preserveAspectRatio="xMaxYMin meet">
         <g id="arrow_out" transform="scale(0.3 0.3)">
          <a xlink:href="WatchIntegralTest_8cpp_a06469d551c91a25b2c257d2c5fc15b4f_cgraph_org.svg" target="_base">
           <rect id="button" ry="5" rx="5" y="6" x="6" height="38" width="38"
                fill="#f2f5e9" fill-opacity="0.5" stroke="#606060" stroke-width="1.0"/>
           <path id="arrow"
             d="M 11.500037,31.436501 C 11.940474,20.09759 22.043105,11.32322 32.158766,21.979434 L 37.068811,17.246167 C 37.068811,17.246167 37.088388,32 37.088388,32 L 22.160133,31.978069 C 22.160133,31.978069 26.997745,27.140456 26.997745,27.140456 C 18.528582,18.264221 13.291696,25.230495 11.500037,31.436501 z"
             style="fill:#404040;"/>
          </a>
         </g>
        </svg>
</svg>
