<?xml version="1.0" encoding="UTF-8" standalone="no"?>
<!DOCTYPE svg PUBLIC "-//W3C//DTD SVG 1.1//EN"
 "http://www.w3.org/Graphics/SVG/1.1/DTD/svg11.dtd">
<!-- Generated by graphviz version 2.40.1 (20161225.0304)
 -->
<!-- Title: src/mapping/impl/BasisFunctions.hpp Pages: 1 -->
<svg width="1300pt" height="509pt"
 viewBox="0.00 0.00 1299.50 509.00" xmlns="http://www.w3.org/2000/svg" xmlns:xlink="http://www.w3.org/1999/xlink">
<g id="graph0" class="graph" transform="scale(1 1) rotate(0) translate(4 505)">
<title>src/mapping/impl/BasisFunctions.hpp</title>
<polygon fill="#ffffff" stroke="transparent" points="-4,4 -4,-505 1295.5,-505 1295.5,4 -4,4"/>
<!-- Node0 -->
<g id="node1" class="node">
<title>Node0</title>
<polygon fill="#bfbfbf" stroke="#000000" points="408,-481.5 408,-500.5 588,-500.5 588,-481.5 408,-481.5"/>
<text text-anchor="middle" x="498" y="-488.5" font-family="Helvetica,sans-Serif" font-size="10.00" fill="#000000">src/mapping/impl/BasisFunctions.hpp</text>
</g>
<!-- Node1 -->
<g id="node2" class="node">
<title>Node1</title>
<g id="a_node2"><a xlink:href="Logger_8hpp.html" target="_top" xlink:title="logging/Logger.hpp">
<polygon fill="#ffffff" stroke="#000000" points="607,-179.5 607,-198.5 705,-198.5 705,-179.5 607,-179.5"/>
<text text-anchor="middle" x="656" y="-186.5" font-family="Helvetica,sans-Serif" font-size="10.00" fill="#000000">logging/Logger.hpp</text>
</a>
</g>
</g>
<!-- Node0&#45;&gt;Node1 -->
<g id="edge1" class="edge">
<title>Node0&#45;&gt;Node1</title>
<path fill="none" stroke="#191970" d="M486.914,-481.4418C467.4093,-463.4968 429,-422.6211 429,-379 429,-379 429,-379 429,-317.5 429,-279.7713 422.0673,-261.4213 449,-235 469.6767,-214.7158 543.1457,-201.9879 596.6938,-195.1909"/>
<polygon fill="#191970" stroke="#191970" points="597.2816,-198.6451 606.7794,-193.9502 596.4269,-191.6975 597.2816,-198.6451"/>
</g>
<!-- Node15 -->
<g id="node16" class="node">
<title>Node15</title>
<g id="a_node16"><a xlink:href="math_8hpp.html" target="_top" xlink:title="math/math.hpp">
<polygon fill="#ffffff" stroke="#000000" points="588,-425.5 588,-444.5 670,-444.5 670,-425.5 588,-425.5"/>
<text text-anchor="middle" x="629" y="-432.5" font-family="Helvetica,sans-Serif" font-size="10.00" fill="#000000">math/math.hpp</text>
</a>
</g>
</g>
<!-- Node0&#45;&gt;Node15 -->
<g id="edge18" class="edge">
<title>Node0&#45;&gt;Node15</title>
<path fill="none" stroke="#191970" d="M520.5197,-481.3733C541.7372,-472.3032 573.7276,-458.6279 597.4769,-448.4755"/>
<polygon fill="#191970" stroke="#191970" points="598.9548,-451.6502 606.7742,-444.5011 596.2033,-445.2136 598.9548,-451.6502"/>
</g>
<!-- Node2 -->
<g id="node3" class="node">
<title>Node2</title>
<polygon fill="#ffffff" stroke="#bfbfbf" points="940,-123.5 940,-142.5 992,-142.5 992,-123.5 940,-123.5"/>
<text text-anchor="middle" x="966" y="-130.5" font-family="Helvetica,sans-Serif" font-size="10.00" fill="#000000">memory</text>
</g>
<!-- Node1&#45;&gt;Node2 -->
<g id="edge2" class="edge">
<title>Node1&#45;&gt;Node2</title>
<path fill="none" stroke="#191970" d="M705.4821,-181.7285C759.7919,-173.4783 849.4472,-159.0659 926,-143 927.261,-142.7354 928.5424,-142.4585 929.8352,-142.1724"/>
<polygon fill="#191970" stroke="#191970" points="930.8696,-145.5253 939.816,-139.8496 929.2829,-138.7075 930.8696,-145.5253"/>
</g>
<!-- Node3 -->
<g id="node4" class="node">
<title>Node3</title>
<polygon fill="#ffffff" stroke="#bfbfbf" points="891.5,-.5 891.5,-19.5 932.5,-19.5 932.5,-.5 891.5,-.5"/>
<text text-anchor="middle" x="912" y="-7.5" font-family="Helvetica,sans-Serif" font-size="10.00" fill="#000000">string</text>
</g>
<!-- Node1&#45;&gt;Node3 -->
<g id="edge3" class="edge">
<title>Node1&#45;&gt;Node3</title>
<path fill="none" stroke="#191970" d="M705.4524,-181.0756C759.5404,-169.7707 844.9176,-143.7219 893,-87 906.4552,-71.1271 910.6457,-47.1609 911.8209,-30.1884"/>
<polygon fill="#191970" stroke="#191970" points="915.336,-29.8702 912.2296,-19.741 908.3413,-29.5965 915.336,-29.8702"/>
</g>
<!-- Node4 -->
<g id="node5" class="node">
<title>Node4</title>
<g id="a_node5"><a xlink:href="LogMacros_8hpp.html" target="_top" xlink:title="LogMacros.hpp">
<polygon fill="#ffffff" stroke="#000000" points="504.5,-123.5 504.5,-142.5 587.5,-142.5 587.5,-123.5 504.5,-123.5"/>
<text text-anchor="middle" x="546" y="-130.5" font-family="Helvetica,sans-Serif" font-size="10.00" fill="#000000">LogMacros.hpp</text>
</a>
</g>
</g>
<!-- Node1&#45;&gt;Node4 -->
<g id="edge4" class="edge">
<title>Node1&#45;&gt;Node4</title>
<path fill="none" stroke="#191970" d="M636.8395,-179.2455C619.4889,-170.4125 593.7099,-157.2887 574.0417,-147.2758"/>
<polygon fill="#191970" stroke="#191970" points="575.4405,-144.0605 564.941,-142.6427 572.2647,-150.2986 575.4405,-144.0605"/>
</g>
<!-- Node4&#45;&gt;Node3 -->
<g id="edge11" class="edge">
<title>Node4&#45;&gt;Node3</title>
<path fill="none" stroke="#191970" d="M504.4064,-129.3558C439.1264,-122.1408 324.247,-102.5135 367,-56 401.9411,-17.9855 770.934,-11.3614 881.1097,-10.2289"/>
<polygon fill="#191970" stroke="#191970" points="881.2669,-13.7276 891.2333,-10.133 881.2006,-6.728 881.2669,-13.7276"/>
</g>
<!-- Node5 -->
<g id="node6" class="node">
<title>Node5</title>
<polygon fill="#ffffff" stroke="#bfbfbf" points="376,-56.5 376,-86.5 476,-86.5 476,-56.5 376,-56.5"/>
<text text-anchor="start" x="384" y="-74.5" font-family="Helvetica,sans-Serif" font-size="10.00" fill="#000000">boost/preprocessor</text>
<text text-anchor="middle" x="426" y="-63.5" font-family="Helvetica,sans-Serif" font-size="10.00" fill="#000000">/control/if.hpp</text>
</g>
<!-- Node4&#45;&gt;Node5 -->
<g id="edge5" class="edge">
<title>Node4&#45;&gt;Node5</title>
<path fill="none" stroke="#191970" d="M527.25,-123.3906C510.4831,-114.7976 485.3866,-101.9356 464.3748,-91.1671"/>
<polygon fill="#191970" stroke="#191970" points="465.851,-87.9908 455.3553,-86.5446 462.6583,-94.2203 465.851,-87.9908"/>
</g>
<!-- Node6 -->
<g id="node7" class="node">
<title>Node6</title>
<polygon fill="#ffffff" stroke="#bfbfbf" points="494,-56.5 494,-86.5 598,-86.5 598,-56.5 494,-56.5"/>
<text text-anchor="start" x="502" y="-74.5" font-family="Helvetica,sans-Serif" font-size="10.00" fill="#000000">boost/preprocessor</text>
<text text-anchor="middle" x="546" y="-63.5" font-family="Helvetica,sans-Serif" font-size="10.00" fill="#000000">/facilities/empty.hpp</text>
</g>
<!-- Node4&#45;&gt;Node6 -->
<g id="edge6" class="edge">
<title>Node4&#45;&gt;Node6</title>
<path fill="none" stroke="#191970" d="M546,-123.3906C546,-116.2234 546,-106.0862 546,-96.671"/>
<polygon fill="#191970" stroke="#191970" points="549.5001,-96.5446 546,-86.5446 542.5001,-96.5446 549.5001,-96.5446"/>
</g>
<!-- Node7 -->
<g id="node8" class="node">
<title>Node7</title>
<polygon fill="#ffffff" stroke="#bfbfbf" points="940,-56.5 940,-86.5 1042,-86.5 1042,-56.5 940,-56.5"/>
<text text-anchor="start" x="948" y="-74.5" font-family="Helvetica,sans-Serif" font-size="10.00" fill="#000000">boost/preprocessor</text>
<text text-anchor="middle" x="991" y="-63.5" font-family="Helvetica,sans-Serif" font-size="10.00" fill="#000000">/seq/for_each_i.hpp</text>
</g>
<!-- Node4&#45;&gt;Node7 -->
<g id="edge7" class="edge">
<title>Node4&#45;&gt;Node7</title>
<path fill="none" stroke="#191970" d="M587.7095,-127.8138C652.9179,-119.6283 782.947,-102.9952 893,-87 904.9191,-85.2677 917.6381,-83.3253 929.8309,-81.4169"/>
<polygon fill="#191970" stroke="#191970" points="930.5867,-84.8411 939.92,-79.8272 929.4971,-77.9264 930.5867,-84.8411"/>
</g>
<!-- Node8 -->
<g id="node9" class="node">
<title>Node8</title>
<polygon fill="#ffffff" stroke="#bfbfbf" points="1060,-56.5 1060,-86.5 1160,-86.5 1160,-56.5 1060,-56.5"/>
<text text-anchor="start" x="1068" y="-74.5" font-family="Helvetica,sans-Serif" font-size="10.00" fill="#000000">boost/preprocessor</text>
<text text-anchor="middle" x="1110" y="-63.5" font-family="Helvetica,sans-Serif" font-size="10.00" fill="#000000">/stringize.hpp</text>
</g>
<!-- Node4&#45;&gt;Node8 -->
<g id="edge8" class="edge">
<title>Node4&#45;&gt;Node8</title>
<path fill="none" stroke="#191970" d="M587.5469,-131.5503C672.6553,-128.0792 873,-117.336 1049.9058,-87.0049"/>
<polygon fill="#191970" stroke="#191970" points="1050.6612,-90.4261 1059.9132,-85.2635 1049.4612,-83.5297 1050.6612,-90.4261"/>
</g>
<!-- Node9 -->
<g id="node10" class="node">
<title>Node9</title>
<polygon fill="#ffffff" stroke="#bfbfbf" points="0,-56.5 0,-86.5 104,-86.5 104,-56.5 0,-56.5"/>
<text text-anchor="start" x="8" y="-74.5" font-family="Helvetica,sans-Serif" font-size="10.00" fill="#000000">boost/preprocessor</text>
<text text-anchor="middle" x="52" y="-63.5" font-family="Helvetica,sans-Serif" font-size="10.00" fill="#000000">/variadic/to_seq.hpp</text>
</g>
<!-- Node4&#45;&gt;Node9 -->
<g id="edge9" class="edge">
<title>Node4&#45;&gt;Node9</title>
<path fill="none" stroke="#191970" d="M504.2235,-130.5552C428.3951,-125.6869 262.9608,-113.0878 114.3522,-87.0836"/>
<polygon fill="#191970" stroke="#191970" points="114.5942,-83.5719 104.1363,-85.2698 113.3705,-90.4641 114.5942,-83.5719"/>
</g>
<!-- Node10 -->
<g id="node11" class="node">
<title>Node10</title>
<polygon fill="#ffffff" stroke="#bfbfbf" points="616,-62 616,-81 740,-81 740,-62 616,-62"/>
<text text-anchor="middle" x="678" y="-69" font-family="Helvetica,sans-Serif" font-size="10.00" fill="#000000">boost/vmd/is_empty.hpp</text>
</g>
<!-- Node4&#45;&gt;Node10 -->
<g id="edge10" class="edge">
<title>Node4&#45;&gt;Node10</title>
<path fill="none" stroke="#191970" d="M566.625,-123.3906C588.5173,-113.1908 623.3193,-96.9763 648.1927,-85.3875"/>
<polygon fill="#191970" stroke="#191970" points="649.9335,-88.4377 657.5198,-81.0419 646.9772,-82.0926 649.9335,-88.4377"/>
</g>
<!-- Node11 -->
<g id="node12" class="node">
<title>Node11</title>
<g id="a_node12"><a xlink:href="Tracer_8hpp.html" target="_top" xlink:title="logging/Tracer.hpp">
<polygon fill="#ffffff" stroke="#000000" points="122.5,-62 122.5,-81 219.5,-81 219.5,-62 122.5,-62"/>
<text text-anchor="middle" x="171" y="-69" font-family="Helvetica,sans-Serif" font-size="10.00" fill="#000000">logging/Tracer.hpp</text>
</a>
</g>
</g>
<!-- Node4&#45;&gt;Node11 -->
<g id="edge12" class="edge">
<title>Node4&#45;&gt;Node11</title>
<path fill="none" stroke="#191970" d="M504.4444,-128.5421C443.6138,-121.6617 326.9161,-107.116 229,-87 224.0228,-85.9775 218.838,-84.7823 213.705,-83.5173"/>
<polygon fill="#191970" stroke="#191970" points="214.5219,-80.1137 203.9664,-81.0257 212.7867,-86.8952 214.5219,-80.1137"/>
</g>
<!-- Node12 -->
<g id="node13" class="node">
<title>Node12</title>
<polygon fill="#ffffff" stroke="#bfbfbf" points="758.5,-62 758.5,-81 883.5,-81 883.5,-62 758.5,-62"/>
<text text-anchor="middle" x="821" y="-69" font-family="Helvetica,sans-Serif" font-size="10.00" fill="#000000">prettyprint/prettyprint.hpp</text>
</g>
<!-- Node4&#45;&gt;Node12 -->
<g id="edge14" class="edge">
<title>Node4&#45;&gt;Node12</title>
<path fill="none" stroke="#191970" d="M587.7666,-123.6595C636.1835,-112.8317 716.0395,-94.973 768.5839,-83.2222"/>
<polygon fill="#191970" stroke="#191970" points="769.3921,-86.628 778.3871,-81.0298 767.8643,-79.7967 769.3921,-86.628"/>
</g>
<!-- Node13 -->
<g id="node14" class="node">
<title>Node13</title>
<g id="a_node14"><a xlink:href="String_8hpp.html" target="_top" xlink:title="utils/String.hpp">
<polygon fill="#ffffff" stroke="#000000" points="238,-62 238,-81 320,-81 320,-62 238,-62"/>
<text text-anchor="middle" x="279" y="-69" font-family="Helvetica,sans-Serif" font-size="10.00" fill="#000000">utils/String.hpp</text>
</a>
</g>
</g>
<!-- Node4&#45;&gt;Node13 -->
<g id="edge15" class="edge">
<title>Node4&#45;&gt;Node13</title>
<path fill="none" stroke="#191970" d="M504.3914,-124.7537C461.5191,-116.0741 392.8371,-101.6594 334,-87 329.8848,-85.9747 325.6102,-84.8596 321.3443,-83.7132"/>
<polygon fill="#191970" stroke="#191970" points="322.0548,-80.2789 311.4852,-81.0094 320.2034,-87.0296 322.0548,-80.2789"/>
</g>
<!-- Node11&#45;&gt;Node1 -->
<g id="edge13" class="edge">
<title>Node11&#45;&gt;Node1</title>
<path fill="none" stroke="#191970" d="M206.2333,-81.0767C213.7381,-83.0715 221.6238,-85.1337 229,-87 364.163,-121.1977 524.1849,-158.6032 604.5267,-177.1713"/>
<polygon fill="#191970" stroke="#191970" points="603.8588,-180.6091 614.3899,-179.4486 605.4337,-173.7885 603.8588,-180.6091"/>
</g>
<!-- Node13&#45;&gt;Node3 -->
<g id="edge17" class="edge">
<title>Node13&#45;&gt;Node3</title>
<path fill="none" stroke="#191970" d="M308.7253,-61.9797C316.8474,-59.693 325.6994,-57.4852 334,-56 540.6826,-19.0184 794.2689,-11.7627 881.1245,-10.3436"/>
<polygon fill="#191970" stroke="#191970" points="881.3904,-13.8401 891.3372,-10.1917 881.2862,-6.8409 881.3904,-13.8401"/>
</g>
<!-- Node14 -->
<g id="node15" class="node">
<title>Node14</title>
<polygon fill="#ffffff" stroke="#bfbfbf" points="253,-.5 253,-19.5 305,-19.5 305,-.5 253,-.5"/>
<text text-anchor="middle" x="279" y="-7.5" font-family="Helvetica,sans-Serif" font-size="10.00" fill="#000000">sstream</text>
</g>
<!-- Node13&#45;&gt;Node14 -->
<g id="edge16" class="edge">
<title>Node13&#45;&gt;Node14</title>
<path fill="none" stroke="#191970" d="M279,-61.8906C279,-53.3657 279,-40.6392 279,-29.9235"/>
<polygon fill="#191970" stroke="#191970" points="282.5001,-29.7448 279,-19.7449 275.5001,-29.7449 282.5001,-29.7448"/>
</g>
<!-- Node16 -->
<g id="node17" class="node">
<title>Node16</title>
<g id="a_node17"><a xlink:href="constants_8hpp.html" target="_top" xlink:title="math/constants.hpp">
<polygon fill="#ffffff" stroke="#000000" points="515.5,-369.5 515.5,-388.5 618.5,-388.5 618.5,-369.5 515.5,-369.5"/>
<text text-anchor="middle" x="567" y="-376.5" font-family="Helvetica,sans-Serif" font-size="10.00" fill="#000000">math/constants.hpp</text>
</a>
</g>
</g>
<!-- Node15&#45;&gt;Node16 -->
<g id="edge19" class="edge">
<title>Node15&#45;&gt;Node16</title>
<path fill="none" stroke="#191970" d="M618.2004,-425.2455C609.1322,-417.0549 595.9794,-405.1749 585.2755,-395.5069"/>
<polygon fill="#191970" stroke="#191970" points="587.4429,-392.7482 577.6758,-388.6427 582.7509,-397.9429 587.4429,-392.7482"/>
</g>
<!-- Node18 -->
<g id="node19" class="node">
<title>Node18</title>
<g id="a_node19"><a xlink:href="differences_8hpp.html" target="_top" xlink:title="math/differences.hpp">
<polygon fill="#ffffff" stroke="#000000" points="637,-369.5 637,-388.5 745,-388.5 745,-369.5 637,-369.5"/>
<text text-anchor="middle" x="691" y="-376.5" font-family="Helvetica,sans-Serif" font-size="10.00" fill="#000000">math/differences.hpp</text>
</a>
</g>
</g>
<!-- Node15&#45;&gt;Node18 -->
<g id="edge21" class="edge">
<title>Node15&#45;&gt;Node18</title>
<path fill="none" stroke="#191970" d="M639.7996,-425.2455C648.8678,-417.0549 662.0206,-405.1749 672.7245,-395.5069"/>
<polygon fill="#191970" stroke="#191970" points="675.2491,-397.9429 680.3242,-388.6427 670.5571,-392.7482 675.2491,-397.9429"/>
</g>
<!-- Node31 -->
<g id="node32" class="node">
<title>Node31</title>
<g id="a_node32"><a xlink:href="la_8hpp.html" target="_top" xlink:title="math/la.hpp">
<polygon fill="#ffffff" stroke="#000000" points="763,-369.5 763,-388.5 831,-388.5 831,-369.5 763,-369.5"/>
<text text-anchor="middle" x="797" y="-376.5" font-family="Helvetica,sans-Serif" font-size="10.00" fill="#000000">math/la.hpp</text>
</a>
</g>
</g>
<!-- Node15&#45;&gt;Node31 -->
<g id="edge41" class="edge">
<title>Node15&#45;&gt;Node31</title>
<path fill="none" stroke="#191970" d="M657.8802,-425.3733C685.8161,-416.0613 728.3142,-401.8953 758.9869,-391.671"/>
<polygon fill="#191970" stroke="#191970" points="760.1166,-394.9839 768.4966,-388.5011 757.903,-388.3431 760.1166,-394.9839"/>
</g>
<!-- Node17 -->
<g id="node18" class="node">
<title>Node17</title>
<polygon fill="#ffffff" stroke="#bfbfbf" points="511.5,-302.5 511.5,-332.5 622.5,-332.5 622.5,-302.5 511.5,-302.5"/>
<text text-anchor="start" x="519.5" y="-320.5" font-family="Helvetica,sans-Serif" font-size="10.00" fill="#000000">boost/math/constants</text>
<text text-anchor="middle" x="567" y="-309.5" font-family="Helvetica,sans-Serif" font-size="10.00" fill="#000000">/constants.hpp</text>
</g>
<!-- Node16&#45;&gt;Node17 -->
<g id="edge20" class="edge">
<title>Node16&#45;&gt;Node17</title>
<path fill="none" stroke="#191970" d="M567,-369.3906C567,-362.2234 567,-352.0862 567,-342.671"/>
<polygon fill="#191970" stroke="#191970" points="570.5001,-342.5446 567,-332.5446 563.5001,-342.5446 570.5001,-342.5446"/>
</g>
<!-- Node19 -->
<g id="node20" class="node">
<title>Node19</title>
<polygon fill="#ffffff" stroke="#bfbfbf" points="661.5,-308 661.5,-327 726.5,-327 726.5,-308 661.5,-308"/>
<text text-anchor="middle" x="694" y="-315" font-family="Helvetica,sans-Serif" font-size="10.00" fill="#000000">Eigen/Core</text>
</g>
<!-- Node18&#45;&gt;Node19 -->
<g id="edge22" class="edge">
<title>Node18&#45;&gt;Node19</title>
<path fill="none" stroke="#191970" d="M691.4688,-369.3906C691.8846,-360.8657 692.5054,-348.1392 693.0281,-337.4235"/>
<polygon fill="#191970" stroke="#191970" points="696.5332,-337.4035 693.5246,-327.2449 689.5415,-337.0624 696.5332,-337.4035"/>
</g>
<!-- Node20 -->
<g id="node21" class="node">
<title>Node20</title>
<g id="a_node21"><a xlink:href="assertion_8hpp.html" target="_top" xlink:title="utils/assertion.hpp">
<polygon fill="#ffffff" stroke="#000000" points="749,-308 749,-327 845,-327 845,-308 749,-308"/>
<text text-anchor="middle" x="797" y="-315" font-family="Helvetica,sans-Serif" font-size="10.00" fill="#000000">utils/assertion.hpp</text>
</a>
</g>
</g>
<!-- Node18&#45;&gt;Node20 -->
<g id="edge23" class="edge">
<title>Node18&#45;&gt;Node20</title>
<path fill="none" stroke="#191970" d="M707.5625,-369.3906C724.7537,-359.4165 751.8582,-343.6908 771.7266,-332.1633"/>
<polygon fill="#191970" stroke="#191970" points="773.6606,-335.0877 780.5538,-327.0419 770.1477,-329.033 773.6606,-335.0877"/>
</g>
<!-- Node20&#45;&gt;Node7 -->
<g id="edge27" class="edge">
<title>Node20&#45;&gt;Node7</title>
<path fill="none" stroke="#191970" d="M845.1698,-315.1633C913.5124,-310.7248 1033.3132,-298.4194 1060,-266 1102.8367,-213.9615 1045.4578,-133.3749 1012.0168,-94.297"/>
<polygon fill="#191970" stroke="#191970" points="1014.5099,-91.8312 1005.2889,-86.6135 1009.2434,-96.4426 1014.5099,-91.8312"/>
</g>
<!-- Node20&#45;&gt;Node8 -->
<g id="edge29" class="edge">
<title>Node20&#45;&gt;Node8</title>
<path fill="none" stroke="#191970" d="M845.0292,-315.3747C917.3185,-311.1278 1049.048,-298.9707 1081,-266 1125.275,-220.3134 1120.4588,-138.0799 1114.5605,-96.7138"/>
<polygon fill="#191970" stroke="#191970" points="1117.9911,-95.9973 1112.9876,-86.6584 1111.0752,-97.0792 1117.9911,-95.9973"/>
</g>
<!-- Node20&#45;&gt;Node9 -->
<g id="edge31" class="edge">
<title>Node20&#45;&gt;Node9</title>
<path fill="none" stroke="#191970" d="M762.6481,-307.9777C753.997,-305.7991 744.6967,-303.6438 736,-302 609.6815,-278.1243 572.1809,-302.7815 449,-266 305.7131,-223.2149 150.5731,-132.8933 84.6197,-92.176"/>
<polygon fill="#191970" stroke="#191970" points="86.2573,-89.073 75.9158,-86.7699 82.5639,-95.0193 86.2573,-89.073"/>
</g>
<!-- Node21 -->
<g id="node22" class="node">
<title>Node21</title>
<polygon fill="#ffffff" stroke="#bfbfbf" points="457.5,-241 457.5,-260 506.5,-260 506.5,-241 457.5,-241"/>
<text text-anchor="middle" x="482" y="-248" font-family="Helvetica,sans-Serif" font-size="10.00" fill="#000000">cassert</text>
</g>
<!-- Node20&#45;&gt;Node21 -->
<g id="edge24" class="edge">
<title>Node20&#45;&gt;Node21</title>
<path fill="none" stroke="#191970" d="M761.6392,-307.9626C753.2657,-305.8576 744.3436,-303.7393 736,-302 639.0068,-281.7809 610.7992,-294.8028 516,-266 514.0913,-265.4201 512.1506,-264.7559 510.2131,-264.0359"/>
<polygon fill="#191970" stroke="#191970" points="511.2938,-260.6953 500.7155,-260.1046 508.6166,-267.1631 511.2938,-260.6953"/>
</g>
<!-- Node22 -->
<g id="node23" class="node">
<title>Node22</title>
<polygon fill="#ffffff" stroke="#bfbfbf" points="525,-241 525,-260 579,-260 579,-241 525,-241"/>
<text text-anchor="middle" x="552" y="-248" font-family="Helvetica,sans-Serif" font-size="10.00" fill="#000000">iostream</text>
</g>
<!-- Node20&#45;&gt;Node22 -->
<g id="edge25" class="edge">
<title>Node20&#45;&gt;Node22</title>
<path fill="none" stroke="#191970" d="M759.5939,-307.9309C751.8002,-305.9552 743.6348,-303.8985 736,-302 670.3049,-285.664 652.2039,-287.4611 588,-266 586.1123,-265.369 584.186,-264.6799 582.2545,-263.9541"/>
<polygon fill="#191970" stroke="#191970" points="583.2934,-260.5996 572.7094,-260.1196 580.6839,-267.0951 583.2934,-260.5996"/>
</g>
<!-- Node23 -->
<g id="node24" class="node">
<title>Node23</title>
<polygon fill="#ffffff" stroke="#bfbfbf" points="597,-241 597,-260 729,-260 729,-241 597,-241"/>
<text text-anchor="middle" x="663" y="-248" font-family="Helvetica,sans-Serif" font-size="10.00" fill="#000000">boost/current_function.hpp</text>
</g>
<!-- Node20&#45;&gt;Node23 -->
<g id="edge26" class="edge">
<title>Node20&#45;&gt;Node23</title>
<path fill="none" stroke="#191970" d="M777.8011,-307.9005C755.1138,-296.5569 717.1687,-277.5844 691.1565,-264.5783"/>
<polygon fill="#191970" stroke="#191970" points="692.6729,-261.4234 682.1633,-260.0817 689.5423,-267.6843 692.6729,-261.4234"/>
</g>
<!-- Node24 -->
<g id="node25" class="node">
<title>Node24</title>
<polygon fill="#ffffff" stroke="#bfbfbf" points="747,-235.5 747,-265.5 847,-265.5 847,-235.5 747,-235.5"/>
<text text-anchor="start" x="755" y="-253.5" font-family="Helvetica,sans-Serif" font-size="10.00" fill="#000000">boost/preprocessor</text>
<text text-anchor="middle" x="797" y="-242.5" font-family="Helvetica,sans-Serif" font-size="10.00" fill="#000000">/seq/seq.hpp</text>
</g>
<!-- Node20&#45;&gt;Node24 -->
<g id="edge28" class="edge">
<title>Node20&#45;&gt;Node24</title>
<path fill="none" stroke="#191970" d="M797,-307.9005C797,-299.5099 797,-286.9451 797,-275.7085"/>
<polygon fill="#191970" stroke="#191970" points="800.5001,-275.5217 797,-265.5218 793.5001,-275.5218 800.5001,-275.5217"/>
</g>
<!-- Node25 -->
<g id="node26" class="node">
<title>Node25</title>
<polygon fill="#ffffff" stroke="#bfbfbf" points="865,-235.5 865,-265.5 965,-265.5 965,-235.5 865,-235.5"/>
<text text-anchor="start" x="873" y="-253.5" font-family="Helvetica,sans-Serif" font-size="10.00" fill="#000000">boost/preprocessor</text>
<text text-anchor="middle" x="915" y="-242.5" font-family="Helvetica,sans-Serif" font-size="10.00" fill="#000000">/variadic/elem.hpp</text>
</g>
<!-- Node20&#45;&gt;Node25 -->
<g id="edge30" class="edge">
<title>Node20&#45;&gt;Node25</title>
<path fill="none" stroke="#191970" d="M813.9065,-307.9005C830.9693,-298.2123 857.8328,-282.9593 879.5802,-270.6113"/>
<polygon fill="#191970" stroke="#191970" points="881.5759,-273.503 888.5438,-265.5218 878.1196,-267.4158 881.5759,-273.503"/>
</g>
<!-- Node26 -->
<g id="node27" class="node">
<title>Node26</title>
<g id="a_node27"><a xlink:href="Parallel_8hpp.html" target="_top" xlink:title="Parallel.hpp">
<polygon fill="#ffffff" stroke="#000000" points="983,-241 983,-260 1051,-260 1051,-241 983,-241"/>
<text text-anchor="middle" x="1017" y="-248" font-family="Helvetica,sans-Serif" font-size="10.00" fill="#000000">Parallel.hpp</text>
</a>
</g>
</g>
<!-- Node20&#45;&gt;Node26 -->
<g id="edge32" class="edge">
<title>Node20&#45;&gt;Node26</title>
<path fill="none" stroke="#191970" d="M832.1258,-307.9812C867.9834,-298.1002 925.1547,-281.8922 974,-266 976.4431,-265.2051 978.9559,-264.3634 981.4818,-263.4994"/>
<polygon fill="#191970" stroke="#191970" points="982.8868,-266.7159 991.1689,-260.1085 980.574,-260.109 982.8868,-266.7159"/>
</g>
<!-- Node30 -->
<g id="node31" class="node">
<title>Node30</title>
<g id="a_node31"><a xlink:href="stacktrace_8hpp.html" target="_top" xlink:title="stacktrace.hpp">
<polygon fill="#ffffff" stroke="#000000" points="1210.5,-123.5 1210.5,-142.5 1291.5,-142.5 1291.5,-123.5 1210.5,-123.5"/>
<text text-anchor="middle" x="1251" y="-130.5" font-family="Helvetica,sans-Serif" font-size="10.00" fill="#000000">stacktrace.hpp</text>
</a>
</g>
</g>
<!-- Node20&#45;&gt;Node30 -->
<g id="edge39" class="edge">
<title>Node20&#45;&gt;Node30</title>
<path fill="none" stroke="#191970" d="M845.0392,-315.3488C930.8913,-310.7451 1106.493,-297.66 1158,-266 1202.2318,-238.8119 1230.9728,-181.8524 1243.6059,-152.0687"/>
<polygon fill="#191970" stroke="#191970" points="1246.8665,-153.3418 1247.4016,-142.7605 1240.3846,-150.6986 1246.8665,-153.3418"/>
</g>
<!-- Node26&#45;&gt;Node1 -->
<g id="edge37" class="edge">
<title>Node26&#45;&gt;Node1</title>
<path fill="none" stroke="#191970" d="M993.1585,-240.9379C986.9936,-238.7342 980.3131,-236.5772 974,-235 885.1275,-212.7976 779.4226,-200.1514 715.049,-193.9372"/>
<polygon fill="#191970" stroke="#191970" points="715.3663,-190.4517 705.0812,-192.9946 714.7072,-197.4206 715.3663,-190.4517"/>
</g>
<!-- Node26&#45;&gt;Node2 -->
<g id="edge34" class="edge">
<title>Node26&#45;&gt;Node2</title>
<path fill="none" stroke="#191970" d="M1010.0511,-240.6427C1003.1933,-230.5618 992.7786,-214.2594 986,-199 979.3166,-183.955 974.0429,-166.0315 970.5927,-152.6619"/>
<polygon fill="#191970" stroke="#191970" points="973.9209,-151.5395 968.1324,-142.6657 967.1238,-153.2124 973.9209,-151.5395"/>
</g>
<!-- Node26&#45;&gt;Node3 -->
<g id="edge35" class="edge">
<title>Node26&#45;&gt;Node3</title>
<path fill="none" stroke="#191970" d="M1035.1848,-240.8077C1086.8104,-212.097 1226.8974,-125.1805 1169,-56 1140.4591,-21.897 1004.6851,-13.0479 942.8294,-10.7747"/>
<polygon fill="#191970" stroke="#191970" points="942.6371,-7.2665 932.5264,-10.4324 942.4046,-14.2627 942.6371,-7.2665"/>
</g>
<!-- Node27 -->
<g id="node28" class="node">
<title>Node27</title>
<polygon fill="#ffffff" stroke="#bfbfbf" points="994.5,-179.5 994.5,-198.5 1039.5,-198.5 1039.5,-179.5 994.5,-179.5"/>
<text text-anchor="middle" x="1017" y="-186.5" font-family="Helvetica,sans-Serif" font-size="10.00" fill="#000000">iosfwd</text>
</g>
<!-- Node26&#45;&gt;Node27 -->
<g id="edge33" class="edge">
<title>Node26&#45;&gt;Node27</title>
<path fill="none" stroke="#191970" d="M1017,-240.8906C1017,-232.3657 1017,-219.6392 1017,-208.9235"/>
<polygon fill="#191970" stroke="#191970" points="1020.5001,-208.7448 1017,-198.7449 1013.5001,-208.7449 1020.5001,-208.7448"/>
</g>
<!-- Node28 -->
<g id="node29" class="node">
<title>Node28</title>
<polygon fill="#ffffff" stroke="#bfbfbf" points="834,-179.5 834,-198.5 878,-198.5 878,-179.5 834,-179.5"/>
<text text-anchor="middle" x="856" y="-186.5" font-family="Helvetica,sans-Serif" font-size="10.00" fill="#000000">vector</text>
</g>
<!-- Node26&#45;&gt;Node28 -->
<g id="edge36" class="edge">
<title>Node26&#45;&gt;Node28</title>
<path fill="none" stroke="#191970" d="M991.8438,-240.8906C963.7952,-230.1764 918.3724,-212.8255 887.8618,-201.1708"/>
<polygon fill="#191970" stroke="#191970" points="888.7236,-197.7534 878.133,-197.4545 886.2257,-204.2926 888.7236,-197.7534"/>
</g>
<!-- Node29 -->
<g id="node30" class="node">
<title>Node29</title>
<polygon fill="#ffffff" stroke="#bfbfbf" points="896.5,-179.5 896.5,-198.5 937.5,-198.5 937.5,-179.5 896.5,-179.5"/>
<text text-anchor="middle" x="917" y="-186.5" font-family="Helvetica,sans-Serif" font-size="10.00" fill="#000000">mpi.h</text>
</g>
<!-- Node26&#45;&gt;Node29 -->
<g id="edge38" class="edge">
<title>Node26&#45;&gt;Node29</title>
<path fill="none" stroke="#191970" d="M1001.375,-240.8906C985.2302,-230.9616 959.8178,-215.333 941.0977,-203.8201"/>
<polygon fill="#191970" stroke="#191970" points="942.8669,-200.7992 932.5153,-198.5419 939.1998,-206.7619 942.8669,-200.7992"/>
</g>
<!-- Node30&#45;&gt;Node3 -->
<g id="edge40" class="edge">
<title>Node30&#45;&gt;Node3</title>
<path fill="none" stroke="#191970" d="M1247.833,-123.314C1241.8141,-106.5692 1227.0387,-72.4292 1202,-56 1159.709,-28.2506 1008.7135,-15.8808 942.9641,-11.7217"/>
<polygon fill="#191970" stroke="#191970" points="943.0039,-8.2177 932.8093,-11.1022 942.5776,-15.2047 943.0039,-8.2177"/>
</g>
<!-- Node31&#45;&gt;Node19 -->
<g id="edge42" class="edge">
<title>Node31&#45;&gt;Node19</title>
<path fill="none" stroke="#191970" d="M780.9063,-369.3906C764.2772,-359.4616 738.1024,-343.833 718.8206,-332.3201"/>
<polygon fill="#191970" stroke="#191970" points="720.361,-329.1634 709.9807,-327.0419 716.7724,-335.1736 720.361,-329.1634"/>
</g>
<!-- Node31&#45;&gt;Node20 -->
<g id="edge43" class="edge">
<title>Node31&#45;&gt;Node20</title>
<path fill="none" stroke="#191970" d="M797,-369.3906C797,-360.8657 797,-348.1392 797,-337.4235"/>
<polygon fill="#191970" stroke="#191970" points="800.5001,-337.2448 797,-327.2449 793.5001,-337.2449 800.5001,-337.2448"/>
</g>
</g>
</svg>
