<?xml version="1.0" encoding="UTF-8" standalone="no"?>
<!DOCTYPE svg PUBLIC "-//W3C//DTD SVG 1.1//EN"
 "http://www.w3.org/Graphics/SVG/1.1/DTD/svg11.dtd">
<!-- Generated by graphviz version 2.40.1 (20161225.0304)
 -->
<!-- Title: BOOST_AUTO_TEST_CASE Pages: 1 -->
<svg width="512pt" height="78pt"
 viewBox="0.00 0.00 512.00 77.50" xmlns="http://www.w3.org/2000/svg" xmlns:xlink="http://www.w3.org/1999/xlink">
<g id="graph0" class="graph" transform="scale(1 1) rotate(0) translate(4 73.5)">
<title>BOOST_AUTO_TEST_CASE</title>
<polygon fill="#ffffff" stroke="transparent" points="-4,4 -4,-73.5 508,-73.5 508,4 -4,4"/>
<!-- Node8 -->
<g id="node1" class="node">
<title>Node8</title>
<polygon fill="#bfbfbf" stroke="#000000" points="0,-22.5 0,-41.5 148,-41.5 148,-22.5 0,-22.5"/>
<text text-anchor="middle" x="74" y="-29.5" font-family="Helvetica,sans-Serif" font-size="10.00" fill="#000000">BOOST_AUTO_TEST_CASE</text>
</g>
<!-- Node9 -->
<g id="node2" class="node">
<title>Node9</title>
<g id="a_node2"><a xlink:href="classprecice_1_1mesh_1_1BoundingBox.html#adea1f81626a574ad0cb5d794cee8b1f6" target="_top" xlink:title="Increase the size of bounding box by safety margin. ">
<polygon fill="#ffffff" stroke="#000000" points="184,-39 184,-69 326,-69 326,-39 184,-39"/>
<text text-anchor="start" x="192" y="-57" font-family="Helvetica,sans-Serif" font-size="10.00" fill="#000000">precice::mesh::BoundingBox</text>
<text text-anchor="middle" x="255" y="-46" font-family="Helvetica,sans-Serif" font-size="10.00" fill="#000000">::scaleBy</text>
</a>
</g>
</g>
<!-- Node8&#45;&gt;Node9 -->
<g id="edge1" class="edge">
<title>Node8&#45;&gt;Node9</title>
<path fill="none" stroke="#191970" d="M148.1419,-41.0117C156.6325,-42.0437 165.3218,-43.0999 173.8973,-44.1422"/>
<polygon fill="#191970" stroke="#191970" points="173.544,-47.6249 183.8932,-45.3572 174.3886,-40.6761 173.544,-47.6249"/>
</g>
<!-- Node11 -->
<g id="node4" class="node">
<title>Node11</title>
<g id="a_node4"><a xlink:href="RTreeTests_8cpp.html#a9849f5c774ff22e557184d988b1cf9ea" target="_top" xlink:title="BOOST_TEST">
<polygon fill="#ffffff" stroke="#000000" points="214,-.5 214,-19.5 296,-19.5 296,-.5 214,-.5"/>
<text text-anchor="middle" x="255" y="-7.5" font-family="Helvetica,sans-Serif" font-size="10.00" fill="#000000">BOOST_TEST</text>
</a>
</g>
</g>
<!-- Node8&#45;&gt;Node11 -->
<g id="edge3" class="edge">
<title>Node8&#45;&gt;Node11</title>
<path fill="none" stroke="#191970" d="M148.1419,-22.9883C166.737,-20.7281 186.2852,-18.3521 203.504,-16.2592"/>
<polygon fill="#191970" stroke="#191970" points="204.3901,-19.6773 213.8947,-14.9962 203.5454,-12.7285 204.3901,-19.6773"/>
</g>
<!-- Node10 -->
<g id="node3" class="node">
<title>Node10</title>
<g id="a_node3"><a xlink:href="classprecice_1_1mesh_1_1BoundingBox.html#a47cc0759796a01675620119783a11d8d" target="_top" xlink:title="Check whether the bounding box is at default state or not. ">
<polygon fill="#ffffff" stroke="#000000" points="362,-39 362,-69 504,-69 504,-39 362,-39"/>
<text text-anchor="start" x="370" y="-57" font-family="Helvetica,sans-Serif" font-size="10.00" fill="#000000">precice::mesh::BoundingBox</text>
<text text-anchor="middle" x="433" y="-46" font-family="Helvetica,sans-Serif" font-size="10.00" fill="#000000">::empty</text>
</a>
</g>
</g>
<!-- Node9&#45;&gt;Node10 -->
<g id="edge2" class="edge">
<title>Node9&#45;&gt;Node10</title>
<path fill="none" stroke="#191970" d="M326.1177,-54C334.609,-54 343.3268,-54 351.9445,-54"/>
<polygon fill="#191970" stroke="#191970" points="351.9953,-57.5001 361.9953,-54 351.9952,-50.5001 351.9953,-57.5001"/>
</g>
</g>
</svg>
