<?xml version="1.0" encoding="UTF-8" standalone="no"?>
<!DOCTYPE svg PUBLIC "-//W3C//DTD SVG 1.1//EN"
 "http://www.w3.org/Graphics/SVG/1.1/DTD/svg11.dtd">
<!-- Generated by graphviz version 2.40.1 (20161225.0304)
 -->
<!-- Title: precice::mesh::Mesh::clear Pages: 1 -->
<svg width="318pt" height="88pt"
 viewBox="0.00 0.00 318.00 88.00" xmlns="http://www.w3.org/2000/svg" xmlns:xlink="http://www.w3.org/1999/xlink">
<g id="graph0" class="graph" transform="scale(1 1) rotate(0) translate(4 84)">
<title>precice::mesh::Mesh::clear</title>
<polygon fill="#ffffff" stroke="transparent" points="-4,4 -4,-84 314,-84 314,4 -4,4"/>
<!-- Node46 -->
<g id="node1" class="node">
<title>Node46</title>
<polygon fill="#bfbfbf" stroke="#000000" points="0,-24.5 0,-54.5 116,-54.5 116,-24.5 0,-24.5"/>
<text text-anchor="start" x="8" y="-42.5" font-family="Helvetica,sans-Serif" font-size="10.00" fill="#000000">precice::mesh::Mesh</text>
<text text-anchor="middle" x="58" y="-31.5" font-family="Helvetica,sans-Serif" font-size="10.00" fill="#000000">::clear</text>
</g>
<!-- Node47 -->
<g id="node2" class="node">
<title>Node47</title>
<g id="a_node2"><a xlink:href="classprecice_1_1utils_1_1ManageUniqueIDs.html#af8eca33b69c8ee473d27f639bd29c25c" target="_top" xlink:title="Resets all retrieved and inserted IDs. ">
<polygon fill="#ffffff" stroke="#000000" points="152,-49.5 152,-79.5 310,-79.5 310,-49.5 152,-49.5"/>
<text text-anchor="start" x="160" y="-67.5" font-family="Helvetica,sans-Serif" font-size="10.00" fill="#000000">precice::utils::ManageUnique</text>
<text text-anchor="middle" x="231" y="-56.5" font-family="Helvetica,sans-Serif" font-size="10.00" fill="#000000">IDs::resetIDs</text>
</a>
</g>
</g>
<!-- Node46&#45;&gt;Node47 -->
<g id="edge1" class="edge">
<title>Node46&#45;&gt;Node47</title>
<path fill="none" stroke="#191970" d="M116.0878,-47.8942C124.4322,-49.1 133.1735,-50.3632 141.9498,-51.6315"/>
<polygon fill="#191970" stroke="#191970" points="141.4563,-55.0964 151.8541,-53.0627 142.4575,-48.1684 141.4563,-55.0964"/>
</g>
<!-- Node48 -->
<g id="node3" class="node">
<title>Node48</title>
<g id="a_node3"><a xlink:href="classprecice_1_1mesh_1_1Mesh.html#aceb3eabb4f8e40a44d5d1c2822ba7b56" target="_top" xlink:title="precice::mesh::Mesh\l::data">
<polygon fill="#ffffff" stroke="#000000" points="173,-.5 173,-30.5 289,-30.5 289,-.5 173,-.5"/>
<text text-anchor="start" x="181" y="-18.5" font-family="Helvetica,sans-Serif" font-size="10.00" fill="#000000">precice::mesh::Mesh</text>
<text text-anchor="middle" x="231" y="-7.5" font-family="Helvetica,sans-Serif" font-size="10.00" fill="#000000">::data</text>
</a>
</g>
</g>
<!-- Node46&#45;&gt;Node48 -->
<g id="edge2" class="edge">
<title>Node46&#45;&gt;Node48</title>
<path fill="none" stroke="#191970" d="M116.0878,-31.4416C131.0649,-29.3638 147.3206,-27.1087 162.7626,-24.9665"/>
<polygon fill="#191970" stroke="#191970" points="163.3469,-28.419 172.7711,-23.578 162.385,-21.4854 163.3469,-28.419"/>
</g>
</g>
</svg>
