<?xml version="1.0" encoding="UTF-8" standalone="no"?>
<!DOCTYPE svg PUBLIC "-//W3C//DTD SVG 1.1//EN"
 "http://www.w3.org/Graphics/SVG/1.1/DTD/svg11.dtd">
<!-- Generated by graphviz version 2.40.1 (20161225.0304)
 -->
<!-- Title: precice::cplscheme::ParallelCouplingScheme::exchangeInitialData Pages: 1 -->
<svg width="531pt" height="612pt"
 viewBox="0.00 0.00 531.00 611.50" xmlns="http://www.w3.org/2000/svg" xmlns:xlink="http://www.w3.org/1999/xlink">
<g id="graph0" class="graph" transform="scale(1 1) rotate(0) translate(4 607.5)">
<title>precice::cplscheme::ParallelCouplingScheme::exchangeInitialData</title>
<polygon fill="#ffffff" stroke="transparent" points="-4,4 -4,-607.5 527,-607.5 527,4 -4,4"/>
<!-- Node25 -->
<g id="node1" class="node">
<title>Node25</title>
<polygon fill="#bfbfbf" stroke="#000000" points="0,-292 0,-333 140,-333 140,-292 0,-292"/>
<text text-anchor="start" x="8" y="-321" font-family="Helvetica,sans-Serif" font-size="10.00" fill="#000000">precice::cplscheme</text>
<text text-anchor="start" x="8" y="-310" font-family="Helvetica,sans-Serif" font-size="10.00" fill="#000000">::ParallelCouplingScheme</text>
<text text-anchor="middle" x="70" y="-299" font-family="Helvetica,sans-Serif" font-size="10.00" fill="#000000">::exchangeInitialData</text>
</g>
<!-- Node26 -->
<g id="node2" class="node">
<title>Node26</title>
<g id="a_node2"><a xlink:href="classprecice_1_1cplscheme_1_1BaseCouplingScheme.html#af880c679675d59efcf00b0b9fd984f6e" target="_top" xlink:title="Getter for _doesFirstStep. ">
<polygon fill="#ffffff" stroke="#000000" points="193,-562 193,-603 321,-603 321,-562 193,-562"/>
<text text-anchor="start" x="201" y="-591" font-family="Helvetica,sans-Serif" font-size="10.00" fill="#000000">precice::cplscheme</text>
<text text-anchor="start" x="201" y="-580" font-family="Helvetica,sans-Serif" font-size="10.00" fill="#000000">::BaseCouplingScheme</text>
<text text-anchor="middle" x="257" y="-569" font-family="Helvetica,sans-Serif" font-size="10.00" fill="#000000">::doesFirstStep</text>
</a>
</g>
</g>
<!-- Node25&#45;&gt;Node26 -->
<g id="edge1" class="edge">
<title>Node25&#45;&gt;Node26</title>
<path fill="none" stroke="#191970" d="M73.5381,-333.3129C82.4084,-379.2652 109.8083,-490.24 176,-552.5 178.4577,-554.8117 181.1091,-556.9489 183.9012,-558.9242"/>
<polygon fill="#191970" stroke="#191970" points="182.309,-562.0561 192.6463,-564.3777 186.0131,-556.1163 182.309,-562.0561"/>
</g>
<!-- Node27 -->
<g id="node3" class="node">
<title>Node27</title>
<g id="a_node3"><a xlink:href="classprecice_1_1cplscheme_1_1BaseCouplingScheme.html#a451d5b7ad0672e0a2a4eea89eda25e1d" target="_top" xlink:title="Getter for _sendsInitializedData. ">
<polygon fill="#ffffff" stroke="#000000" points="193,-502 193,-543 321,-543 321,-502 193,-502"/>
<text text-anchor="start" x="201" y="-531" font-family="Helvetica,sans-Serif" font-size="10.00" fill="#000000">precice::cplscheme</text>
<text text-anchor="start" x="201" y="-520" font-family="Helvetica,sans-Serif" font-size="10.00" fill="#000000">::BaseCouplingScheme</text>
<text text-anchor="middle" x="257" y="-509" font-family="Helvetica,sans-Serif" font-size="10.00" fill="#000000">::sendsInitializedData</text>
</a>
</g>
</g>
<!-- Node25&#45;&gt;Node27 -->
<g id="edge2" class="edge">
<title>Node25&#45;&gt;Node27</title>
<path fill="none" stroke="#191970" d="M76.8599,-333.1148C90.1873,-370.1416 123.0105,-448.1705 176,-492.5 178.5304,-494.6169 181.2241,-496.5915 184.0344,-498.4326"/>
<polygon fill="#191970" stroke="#191970" points="182.3731,-501.5159 192.768,-503.5645 185.9194,-495.4807 182.3731,-501.5159"/>
</g>
<!-- Node28 -->
<g id="node4" class="node">
<title>Node28</title>
<g id="a_node4"><a xlink:href="classprecice_1_1cplscheme_1_1BaseCouplingScheme.html#a880fa19d4fdcfa6e5e9c2abf82aff10b" target="_top" xlink:title="Sends data sendDataIDs given in mapCouplingData with communication. ">
<polygon fill="#ffffff" stroke="#000000" points="193,-442 193,-483 321,-483 321,-442 193,-442"/>
<text text-anchor="start" x="201" y="-471" font-family="Helvetica,sans-Serif" font-size="10.00" fill="#000000">precice::cplscheme</text>
<text text-anchor="start" x="201" y="-460" font-family="Helvetica,sans-Serif" font-size="10.00" fill="#000000">::BaseCouplingScheme</text>
<text text-anchor="middle" x="257" y="-449" font-family="Helvetica,sans-Serif" font-size="10.00" fill="#000000">::sendData</text>
</a>
</g>
</g>
<!-- Node25&#45;&gt;Node28 -->
<g id="edge3" class="edge">
<title>Node25&#45;&gt;Node28</title>
<path fill="none" stroke="#191970" d="M83.3808,-333.1304C101.4746,-359.5422 136.1077,-405.1504 176,-432.5 178.5162,-434.2251 181.144,-435.8654 183.8498,-437.4236"/>
<polygon fill="#191970" stroke="#191970" points="182.2408,-440.532 192.7154,-442.1236 185.5196,-434.3473 182.2408,-440.532"/>
</g>
<!-- Node29 -->
<g id="node5" class="node">
<title>Node29</title>
<g id="a_node5"><a xlink:href="classprecice_1_1cplscheme_1_1BiCouplingScheme.html#ae90273efd5e7a1ba0b91b5e09fd971ac" target="_top" xlink:title="precice::cplscheme\l::BiCouplingScheme::\lgetM2N">
<polygon fill="#ffffff" stroke="#000000" points="197,-382 197,-423 317,-423 317,-382 197,-382"/>
<text text-anchor="start" x="205" y="-411" font-family="Helvetica,sans-Serif" font-size="10.00" fill="#000000">precice::cplscheme</text>
<text text-anchor="start" x="205" y="-400" font-family="Helvetica,sans-Serif" font-size="10.00" fill="#000000">::BiCouplingScheme::</text>
<text text-anchor="middle" x="257" y="-389" font-family="Helvetica,sans-Serif" font-size="10.00" fill="#000000">getM2N</text>
</a>
</g>
</g>
<!-- Node25&#45;&gt;Node29 -->
<g id="edge4" class="edge">
<title>Node25&#45;&gt;Node29</title>
<path fill="none" stroke="#191970" d="M103.1676,-333.0977C123.7089,-345.3912 150.8768,-360.829 176,-372.5 180.0885,-374.3993 184.3338,-376.2663 188.6427,-378.0823"/>
<polygon fill="#191970" stroke="#191970" points="187.5603,-381.421 198.1409,-381.9692 190.2115,-374.9425 187.5603,-381.421"/>
</g>
<!-- Node30 -->
<g id="node6" class="node">
<title>Node30</title>
<g id="a_node6"><a xlink:href="classprecice_1_1cplscheme_1_1BiCouplingScheme.html#a66197fbf9e9032a824e128cd55aefa7f" target="_top" xlink:title="Returns all data to be sent. ">
<polygon fill="#ffffff" stroke="#000000" points="197,-322 197,-363 317,-363 317,-322 197,-322"/>
<text text-anchor="start" x="205" y="-351" font-family="Helvetica,sans-Serif" font-size="10.00" fill="#000000">precice::cplscheme</text>
<text text-anchor="start" x="205" y="-340" font-family="Helvetica,sans-Serif" font-size="10.00" fill="#000000">::BiCouplingScheme::</text>
<text text-anchor="middle" x="257" y="-329" font-family="Helvetica,sans-Serif" font-size="10.00" fill="#000000">getSendData</text>
</a>
</g>
</g>
<!-- Node25&#45;&gt;Node30 -->
<g id="edge5" class="edge">
<title>Node25&#45;&gt;Node30</title>
<path fill="none" stroke="#191970" d="M140.1639,-323.7562C155.4665,-326.2112 171.6601,-328.8091 186.9579,-331.2633"/>
<polygon fill="#191970" stroke="#191970" points="186.4349,-334.7241 196.8631,-332.8524 187.5438,-327.8125 186.4349,-334.7241"/>
</g>
<!-- Node31 -->
<g id="node7" class="node">
<title>Node31</title>
<g id="a_node7"><a xlink:href="classprecice_1_1cplscheme_1_1BaseCouplingScheme.html#a6b68d793c7aa834a9a7fdd4ce0a80d26" target="_top" xlink:title="Getter for _receivesInitializedData. ">
<polygon fill="#ffffff" stroke="#000000" points="189.5,-262 189.5,-303 324.5,-303 324.5,-262 189.5,-262"/>
<text text-anchor="start" x="197.5" y="-291" font-family="Helvetica,sans-Serif" font-size="10.00" fill="#000000">precice::cplscheme</text>
<text text-anchor="start" x="197.5" y="-280" font-family="Helvetica,sans-Serif" font-size="10.00" fill="#000000">::BaseCouplingScheme</text>
<text text-anchor="middle" x="257" y="-269" font-family="Helvetica,sans-Serif" font-size="10.00" fill="#000000">::receivesInitializedData</text>
</a>
</g>
</g>
<!-- Node25&#45;&gt;Node31 -->
<g id="edge6" class="edge">
<title>Node25&#45;&gt;Node31</title>
<path fill="none" stroke="#191970" d="M140.1639,-301.2438C152.8392,-299.2103 166.1257,-297.0788 179.0082,-295.0121"/>
<polygon fill="#191970" stroke="#191970" points="179.9143,-298.4115 189.2336,-293.3716 178.8054,-291.4999 179.9143,-298.4115"/>
</g>
<!-- Node32 -->
<g id="node8" class="node">
<title>Node32</title>
<g id="a_node8"><a xlink:href="classprecice_1_1cplscheme_1_1BaseCouplingScheme.html#a2f09f06c2213a480c33a3c4d75ab5575" target="_top" xlink:title="Receives data receiveDataIDs given in mapCouplingData with communication. ">
<polygon fill="#ffffff" stroke="#000000" points="193,-202 193,-243 321,-243 321,-202 193,-202"/>
<text text-anchor="start" x="201" y="-231" font-family="Helvetica,sans-Serif" font-size="10.00" fill="#000000">precice::cplscheme</text>
<text text-anchor="start" x="201" y="-220" font-family="Helvetica,sans-Serif" font-size="10.00" fill="#000000">::BaseCouplingScheme</text>
<text text-anchor="middle" x="257" y="-209" font-family="Helvetica,sans-Serif" font-size="10.00" fill="#000000">::receiveData</text>
</a>
</g>
</g>
<!-- Node25&#45;&gt;Node32 -->
<g id="edge7" class="edge">
<title>Node25&#45;&gt;Node32</title>
<path fill="none" stroke="#191970" d="M103.1676,-291.9023C123.7089,-279.6088 150.8768,-264.171 176,-252.5 180.0885,-250.6007 184.3338,-248.7337 188.6427,-246.9177"/>
<polygon fill="#191970" stroke="#191970" points="190.2115,-250.0575 198.1409,-243.0308 187.5603,-243.579 190.2115,-250.0575"/>
</g>
<!-- Node33 -->
<g id="node9" class="node">
<title>Node33</title>
<g id="a_node9"><a xlink:href="classprecice_1_1cplscheme_1_1BiCouplingScheme.html#a9f50278c80ab37222105c81b74bb1f7c" target="_top" xlink:title="Returns all data to be received. ">
<polygon fill="#ffffff" stroke="#000000" points="197,-142 197,-183 317,-183 317,-142 197,-142"/>
<text text-anchor="start" x="205" y="-171" font-family="Helvetica,sans-Serif" font-size="10.00" fill="#000000">precice::cplscheme</text>
<text text-anchor="start" x="205" y="-160" font-family="Helvetica,sans-Serif" font-size="10.00" fill="#000000">::BiCouplingScheme::</text>
<text text-anchor="middle" x="257" y="-149" font-family="Helvetica,sans-Serif" font-size="10.00" fill="#000000">getReceiveData</text>
</a>
</g>
</g>
<!-- Node25&#45;&gt;Node33 -->
<g id="edge8" class="edge">
<title>Node25&#45;&gt;Node33</title>
<path fill="none" stroke="#191970" d="M83.3808,-291.8696C101.4746,-265.4578 136.1077,-219.8496 176,-192.5 179.7182,-189.9508 183.6802,-187.5867 187.7774,-185.3992"/>
<polygon fill="#191970" stroke="#191970" points="189.5005,-188.4519 196.9207,-180.8895 186.4041,-182.174 189.5005,-188.4519"/>
</g>
<!-- Node34 -->
<g id="node10" class="node">
<title>Node34</title>
<g id="a_node10"><a xlink:href="classprecice_1_1cplscheme_1_1BaseCouplingScheme.html#ab41a2ded419b560b9cccb511a7d01e08" target="_top" xlink:title="Used to set flag after data has been received using receiveData(). ">
<polygon fill="#ffffff" stroke="#000000" points="176,-82 176,-123 338,-123 338,-82 176,-82"/>
<text text-anchor="start" x="184" y="-111" font-family="Helvetica,sans-Serif" font-size="10.00" fill="#000000">precice::cplscheme</text>
<text text-anchor="start" x="184" y="-100" font-family="Helvetica,sans-Serif" font-size="10.00" fill="#000000">::BaseCouplingScheme</text>
<text text-anchor="middle" x="257" y="-89" font-family="Helvetica,sans-Serif" font-size="10.00" fill="#000000">::checkDataHasBeenReceived</text>
</a>
</g>
</g>
<!-- Node25&#45;&gt;Node34 -->
<g id="edge9" class="edge">
<title>Node25&#45;&gt;Node34</title>
<path fill="none" stroke="#191970" d="M76.8599,-291.8852C90.1873,-254.8584 123.0105,-176.8295 176,-132.5 177.5528,-131.201 179.167,-129.9556 180.8319,-128.7617"/>
<polygon fill="#191970" stroke="#191970" points="182.9815,-131.542 189.5289,-123.2123 179.2162,-125.6409 182.9815,-131.542"/>
</g>
<!-- Node35 -->
<g id="node11" class="node">
<title>Node35</title>
<g id="a_node11"><a xlink:href="classprecice_1_1cplscheme_1_1BaseCouplingScheme.html#a375b0092b382e99362e597491768debc" target="_top" xlink:title="Set old coupling data values to current values. ">
<polygon fill="#ffffff" stroke="#000000" points="193,-22 193,-63 321,-63 321,-22 193,-22"/>
<text text-anchor="start" x="201" y="-51" font-family="Helvetica,sans-Serif" font-size="10.00" fill="#000000">precice::cplscheme</text>
<text text-anchor="start" x="201" y="-40" font-family="Helvetica,sans-Serif" font-size="10.00" fill="#000000">::BaseCouplingScheme</text>
<text text-anchor="middle" x="257" y="-29" font-family="Helvetica,sans-Serif" font-size="10.00" fill="#000000">::updateOldValues</text>
</a>
</g>
</g>
<!-- Node25&#45;&gt;Node35 -->
<g id="edge10" class="edge">
<title>Node25&#45;&gt;Node35</title>
<path fill="none" stroke="#191970" d="M73.5381,-291.6871C82.4084,-245.7348 109.8083,-134.76 176,-72.5 178.4577,-70.1883 181.1091,-68.0511 183.9012,-66.0758"/>
<polygon fill="#191970" stroke="#191970" points="186.0131,-68.8837 192.6463,-60.6223 182.309,-62.9439 186.0131,-68.8837"/>
</g>
<!-- Node36 -->
<g id="node12" class="node">
<title>Node36</title>
<g id="a_node12"><a xlink:href="classprecice_1_1cplscheme_1_1BaseCouplingScheme.html#ae946bdd4f164ab6a38b62c058123eee6" target="_top" xlink:title="Function to determine whether coupling scheme is an implicit coupling scheme. ">
<polygon fill="#ffffff" stroke="#000000" points="374,-50 374,-91 523,-91 523,-50 374,-50"/>
<text text-anchor="start" x="382" y="-79" font-family="Helvetica,sans-Serif" font-size="10.00" fill="#000000">precice::cplscheme</text>
<text text-anchor="start" x="382" y="-68" font-family="Helvetica,sans-Serif" font-size="10.00" fill="#000000">::BaseCouplingScheme</text>
<text text-anchor="middle" x="448.5" y="-57" font-family="Helvetica,sans-Serif" font-size="10.00" fill="#000000">::isImplicitCouplingScheme</text>
</a>
</g>
</g>
<!-- Node35&#45;&gt;Node36 -->
<g id="edge11" class="edge">
<title>Node35&#45;&gt;Node36</title>
<path fill="none" stroke="#191970" d="M321.033,-51.8625C334.8147,-53.8776 349.5846,-56.0372 364.009,-58.1462"/>
<polygon fill="#191970" stroke="#191970" points="363.5223,-61.6122 373.9235,-59.5959 364.5351,-54.6858 363.5223,-61.6122"/>
</g>
<!-- Node37 -->
<g id="node13" class="node">
<title>Node37</title>
<g id="a_node13"><a xlink:href="namespaceprecice_1_1utils.html#ad91190b2974c945c80111b15584681c9" target="_top" xlink:title="precice::utils::shiftSet\lFirst">
<polygon fill="#ffffff" stroke="#000000" points="387.5,-.5 387.5,-30.5 509.5,-30.5 509.5,-.5 387.5,-.5"/>
<text text-anchor="start" x="395.5" y="-18.5" font-family="Helvetica,sans-Serif" font-size="10.00" fill="#000000">precice::utils::shiftSet</text>
<text text-anchor="middle" x="448.5" y="-7.5" font-family="Helvetica,sans-Serif" font-size="10.00" fill="#000000">First</text>
</a>
</g>
</g>
<!-- Node35&#45;&gt;Node37 -->
<g id="edge12" class="edge">
<title>Node35&#45;&gt;Node37</title>
<path fill="none" stroke="#191970" d="M321.033,-33.4719C339.1061,-30.9237 358.8789,-28.1359 377.343,-25.5326"/>
<polygon fill="#191970" stroke="#191970" points="378.0337,-28.9699 387.447,-24.108 377.0563,-22.0385 378.0337,-28.9699"/>
</g>
</g>
</svg>
