<?xml version="1.0" encoding="UTF-8" standalone="no"?>
<!DOCTYPE svg PUBLIC "-//W3C//DTD SVG 1.1//EN"
 "http://www.w3.org/Graphics/SVG/1.1/DTD/svg11.dtd">
<!-- Generated by graphviz version 2.40.1 (20161225.0304)
 -->
<!-- Title: precice::mesh::Triangle::Triangle Pages: 1 -->
<svg width="302pt" height="186pt"
 viewBox="0.00 0.00 302.00 186.00" xmlns="http://www.w3.org/2000/svg" xmlns:xlink="http://www.w3.org/1999/xlink">
<g id="graph0" class="graph" transform="scale(1 1) rotate(0) translate(4 182)">
<title>precice::mesh::Triangle::Triangle</title>
<polygon fill="#ffffff" stroke="transparent" points="-4,4 -4,-182 298,-182 298,4 -4,4"/>
<!-- Node0 -->
<g id="node1" class="node">
<title>Node0</title>
<polygon fill="#bfbfbf" stroke="#000000" points="0,-73.5 0,-103.5 129,-103.5 129,-73.5 0,-73.5"/>
<text text-anchor="start" x="8" y="-91.5" font-family="Helvetica,sans-Serif" font-size="10.00" fill="#000000">precice::mesh::Triangle</text>
<text text-anchor="middle" x="64.5" y="-80.5" font-family="Helvetica,sans-Serif" font-size="10.00" fill="#000000">::Triangle</text>
</g>
<!-- Node1 -->
<g id="node2" class="node">
<title>Node1</title>
<g id="a_node2"><a xlink:href="classprecice_1_1mesh_1_1Triangle.html#a1e79e7718d33ccedfae62d2e85331e76" target="_top" xlink:title="Returns dimensionalty of space the triangle is embedded in. ">
<polygon fill="#ffffff" stroke="#000000" points="165,-147.5 165,-177.5 294,-177.5 294,-147.5 165,-147.5"/>
<text text-anchor="start" x="173" y="-165.5" font-family="Helvetica,sans-Serif" font-size="10.00" fill="#000000">precice::mesh::Triangle</text>
<text text-anchor="middle" x="229.5" y="-154.5" font-family="Helvetica,sans-Serif" font-size="10.00" fill="#000000">::getDimensions</text>
</a>
</g>
</g>
<!-- Node0&#45;&gt;Node1 -->
<g id="edge1" class="edge">
<title>Node0&#45;&gt;Node1</title>
<path fill="none" stroke="#191970" d="M92.7136,-103.5357C112.6523,-113.9136 140.1453,-127.7287 165,-138.5 169.0562,-140.2578 173.2873,-142.0089 177.558,-143.7184"/>
<polygon fill="#191970" stroke="#191970" points="176.3301,-146.9963 186.918,-147.381 178.8809,-140.4776 176.3301,-146.9963"/>
</g>
<!-- Node2 -->
<g id="node3" class="node">
<title>Node2</title>
<g id="a_node3"><a xlink:href="classprecice_1_1mesh_1_1Triangle.html#a0efee1f0385ffb41ce8951bf211ea26a" target="_top" xlink:title="Returns triangle edge with index 0, 1 or 2. ">
<polygon fill="#ffffff" stroke="#000000" points="165,-98.5 165,-128.5 294,-128.5 294,-98.5 165,-98.5"/>
<text text-anchor="start" x="173" y="-116.5" font-family="Helvetica,sans-Serif" font-size="10.00" fill="#000000">precice::mesh::Triangle</text>
<text text-anchor="middle" x="229.5" y="-105.5" font-family="Helvetica,sans-Serif" font-size="10.00" fill="#000000">::edge</text>
</a>
</g>
</g>
<!-- Node0&#45;&gt;Node2 -->
<g id="edge2" class="edge">
<title>Node0&#45;&gt;Node2</title>
<path fill="none" stroke="#191970" d="M129.2388,-98.3089C137.6748,-99.5871 146.3708,-100.9047 154.9511,-102.2047"/>
<polygon fill="#191970" stroke="#191970" points="154.5364,-105.6817 164.9479,-103.7194 155.5851,-98.7607 154.5364,-105.6817"/>
</g>
<!-- Node3 -->
<g id="node4" class="node">
<title>Node3</title>
<g id="a_node4"><a xlink:href="classprecice_1_1mesh_1_1Edge.html#a7fc88e0289fecf4c41c230d20311dcdb" target="_top" xlink:title="Returns the edge&#39;s vertex with index 0 or 1. ">
<polygon fill="#ffffff" stroke="#000000" points="172,-49.5 172,-79.5 287,-79.5 287,-49.5 172,-49.5"/>
<text text-anchor="start" x="180" y="-67.5" font-family="Helvetica,sans-Serif" font-size="10.00" fill="#000000">precice::mesh::Edge</text>
<text text-anchor="middle" x="229.5" y="-56.5" font-family="Helvetica,sans-Serif" font-size="10.00" fill="#000000">::vertex</text>
</a>
</g>
</g>
<!-- Node0&#45;&gt;Node3 -->
<g id="edge3" class="edge">
<title>Node0&#45;&gt;Node3</title>
<path fill="none" stroke="#191970" d="M129.2388,-79.0834C139.9121,-77.531 151.0018,-75.9179 161.7466,-74.355"/>
<polygon fill="#191970" stroke="#191970" points="162.5257,-77.7786 171.9177,-72.8756 161.518,-70.8515 162.5257,-77.7786"/>
</g>
<!-- Node4 -->
<g id="node5" class="node">
<title>Node4</title>
<g id="a_node5"><a xlink:href="classprecice_1_1mesh_1_1Triangle.html#ac4d5ab22ef769607eb78676efe7dd11e" target="_top" xlink:title="Returns triangle vertex with index 0, 1 or 2. ">
<polygon fill="#ffffff" stroke="#000000" points="165,-.5 165,-30.5 294,-30.5 294,-.5 165,-.5"/>
<text text-anchor="start" x="173" y="-18.5" font-family="Helvetica,sans-Serif" font-size="10.00" fill="#000000">precice::mesh::Triangle</text>
<text text-anchor="middle" x="229.5" y="-7.5" font-family="Helvetica,sans-Serif" font-size="10.00" fill="#000000">::vertex</text>
</a>
</g>
</g>
<!-- Node0&#45;&gt;Node4 -->
<g id="edge4" class="edge">
<title>Node0&#45;&gt;Node4</title>
<path fill="none" stroke="#191970" d="M94.571,-73.403C114.3983,-63.6317 141.0359,-50.8493 165,-40.5 169.7702,-38.4399 174.7703,-36.3621 179.7864,-34.3313"/>
<polygon fill="#191970" stroke="#191970" points="181.4026,-37.455 189.3961,-30.5012 178.8109,-30.9525 181.4026,-37.455"/>
</g>
</g>
</svg>
