<?xml version="1.0" encoding="UTF-8" standalone="no"?>
<!DOCTYPE svg PUBLIC "-//W3C//DTD SVG 1.1//EN"
 "http://www.w3.org/Graphics/SVG/1.1/DTD/svg11.dtd">
<!-- Generated by graphviz version 2.40.1 (20161225.0304)
 -->
<!-- Title: precice::mapping::RadialBasisFctMapping::map Pages: 1 -->
<!--zoomable 325 -->
<svg id="main" version="1.1" xmlns="http://www.w3.org/2000/svg" xmlns:xlink="http://www.w3.org/1999/xlink" xml:space="preserve" onload="init(evt)">
<style type="text/css"><![CDATA[
.edge:hover path { stroke: red; }
.edge:hover polygon { stroke: red; fill: red; }
]]></style>
<script type="text/javascript"><![CDATA[
var edges = document.getElementsByTagName('g');
if (edges && edges.length) {
  for (var i=0;i<edges.length;i++) {
    if (edges[i].id.substr(0,4)=='edge') {
      edges[i].setAttribute('class','edge');
    }
  }
}
]]></script>
        <defs>
                <circle id="rim" cx="0" cy="0" r="7"/>
                <circle id="rim2" cx="0" cy="0" r="3.5"/>
                <g id="zoomPlus">
                        <use xlink:href="#rim" fill="#404040">
                                <set attributeName="fill" to="#808080" begin="zoomplus.mouseover" end="zoomplus.mouseout"/>
                        </use>
                        <path d="M-4,0h8M0,-4v8" fill="none" stroke="white" stroke-width="1.5" pointer-events="none"/>
                </g>
                <g id="zoomMin">
                        <use xlink:href="#rim" fill="#404040">
                                <set attributeName="fill" to="#808080" begin="zoomminus.mouseover" end="zoomminus.mouseout"/>
                        </use>
                        <path d="M-4,0h8" fill="none" stroke="white" stroke-width="1.5" pointer-events="none"/>
                </g>
                <g id="dirArrow">
                        <path fill="none" stroke="white" stroke-width="1.5" d="M0,-3.0v7 M-2.5,-0.5L0,-3.0L2.5,-0.5"/>
                </g>
               <g id="resetDef">
                       <use xlink:href="#rim2" fill="#404040">
                               <set attributeName="fill" to="#808080" begin="reset.mouseover" end="reset.mouseout"/>
                       </use>
               </g>
        </defs>

<script type="text/javascript">
var viewWidth = 514;
var viewHeight = 325;
var sectionId = 'dynsection-4';
</script>
<script xlink:href="svgpan.js"/>
<svg id="graph" class="graph">
<g id="viewport">
<title>precice::mapping::RadialBasisFctMapping::map</title>
<polygon fill="#ffffff" stroke="transparent" points="-4,4 -4,-321 510,-321 510,4 -4,4"/>
<!-- Node62 -->
<g id="node1" class="node">
<title>Node62</title>
<polygon fill="#bfbfbf" stroke="#000000" points="0,-147.5 0,-177.5 125,-177.5 125,-147.5 0,-147.5"/>
<text text-anchor="start" x="8" y="-165.5" font-family="Helvetica,sans-Serif" font-size="10.00" fill="#000000">precice::mapping::Radial</text>
<text text-anchor="middle" x="62.5" y="-154.5" font-family="Helvetica,sans-Serif" font-size="10.00" fill="#000000">BasisFctMapping::map</text>
</g>
<!-- Node63 -->
<g id="node2" class="node">
<title>Node63</title>
<g id="a_node2"><a xlink:href="classprecice_1_1mapping_1_1Mapping.html#a61c3c55af467ada2bdd735efa0f960e4" target="_top" xlink:title="Returns pointer to input mesh. ">
<polygon fill="#ffffff" stroke="#000000" points="372,-237.5 372,-267.5 506,-267.5 506,-237.5 372,-237.5"/>
<text text-anchor="start" x="380" y="-255.5" font-family="Helvetica,sans-Serif" font-size="10.00" fill="#000000">precice::mapping::Mapping</text>
<text text-anchor="middle" x="439" y="-244.5" font-family="Helvetica,sans-Serif" font-size="10.00" fill="#000000">::input</text>
</a>
</g>
</g>
<!-- Node62&#45;&gt;Node63 -->
<g id="edge1" class="edge">
<title>Node62&#45;&gt;Node63</title>
<path fill="none" stroke="#191970" d="M76.8194,-177.711C94.6221,-195.4698 126.8546,-224.0011 161,-236.5 225.7751,-260.2109 304.7041,-262.4614 361.8874,-259.8078"/>
<polygon fill="#191970" stroke="#191970" points="362.1416,-263.2994 371.9445,-259.2804 361.7749,-256.309 362.1416,-263.2994"/>
</g>
<!-- Node64 -->
<g id="node3" class="node">
<title>Node64</title>
<g id="a_node3"><a xlink:href="namespaceprecice_1_1utils_1_1petsc.html#a931b5a402aa2dec020afa7af6167d67e" target="_top" xlink:title="precice::utils::petsc\l::getName">
<polygon fill="#ffffff" stroke="#000000" points="197.5,-98.5 197.5,-128.5 299.5,-128.5 299.5,-98.5 197.5,-98.5"/>
<text text-anchor="start" x="205.5" y="-116.5" font-family="Helvetica,sans-Serif" font-size="10.00" fill="#000000">precice::utils::petsc</text>
<text text-anchor="middle" x="248.5" y="-105.5" font-family="Helvetica,sans-Serif" font-size="10.00" fill="#000000">::getName</text>
</a>
</g>
</g>
<!-- Node62&#45;&gt;Node64 -->
<g id="edge2" class="edge">
<title>Node62&#45;&gt;Node64</title>
<path fill="none" stroke="#191970" d="M119.5702,-147.4654C141.0546,-141.8055 165.5621,-135.3492 187.3996,-129.5963"/>
<polygon fill="#191970" stroke="#191970" points="188.4463,-132.9401 197.2247,-127.008 186.663,-126.1711 188.4463,-132.9401"/>
</g>
<!-- Node65 -->
<g id="node4" class="node">
<title>Node65</title>
<g id="a_node4"><a xlink:href="classprecice_1_1mapping_1_1Mapping.html#a07a71a54b71eda6d54510c94fb188e70" target="_top" xlink:title="Returns pointer to output mesh. ">
<polygon fill="#ffffff" stroke="#000000" points="372,-286.5 372,-316.5 506,-316.5 506,-286.5 372,-286.5"/>
<text text-anchor="start" x="380" y="-304.5" font-family="Helvetica,sans-Serif" font-size="10.00" fill="#000000">precice::mapping::Mapping</text>
<text text-anchor="middle" x="439" y="-293.5" font-family="Helvetica,sans-Serif" font-size="10.00" fill="#000000">::output</text>
</a>
</g>
</g>
<!-- Node62&#45;&gt;Node65 -->
<g id="edge3" class="edge">
<title>Node62&#45;&gt;Node65</title>
<path fill="none" stroke="#191970" d="M72.5016,-177.7395C88.3102,-200.4322 121.381,-242.5656 161,-262.5 223.6322,-294.0136 303.6634,-302.4245 361.759,-303.7464"/>
<polygon fill="#191970" stroke="#191970" points="361.9225,-307.2494 371.9777,-303.9113 362.0355,-300.2503 361.9225,-307.2494"/>
</g>
<!-- Node66 -->
<g id="node5" class="node">
<title>Node66</title>
<g id="a_node5"><a xlink:href="classprecice_1_1mapping_1_1Mapping.html#a393912fe4919edd098e96f66ffbe0d52" target="_top" xlink:title="precice::mapping::Mapping\l::getDimensions">
<polygon fill="#ffffff" stroke="#000000" points="181.5,-49.5 181.5,-79.5 315.5,-79.5 315.5,-49.5 181.5,-49.5"/>
<text text-anchor="start" x="189.5" y="-67.5" font-family="Helvetica,sans-Serif" font-size="10.00" fill="#000000">precice::mapping::Mapping</text>
<text text-anchor="middle" x="248.5" y="-56.5" font-family="Helvetica,sans-Serif" font-size="10.00" fill="#000000">::getDimensions</text>
</a>
</g>
</g>
<!-- Node62&#45;&gt;Node66 -->
<g id="edge4" class="edge">
<title>Node62&#45;&gt;Node66</title>
<path fill="none" stroke="#191970" d="M78.6428,-147.29C97.1697,-130.6086 129.1225,-104.1355 161,-88.5 165.0063,-86.535 169.1974,-84.7109 173.4833,-83.0208"/>
<polygon fill="#191970" stroke="#191970" points="174.8024,-86.265 182.9825,-79.5318 172.3889,-79.6942 174.8024,-86.265"/>
</g>
<!-- Node67 -->
<g id="node6" class="node">
<title>Node67</title>
<g id="a_node6"><a xlink:href="classprecice_1_1mapping_1_1Mapping.html#a6afbd9aaac2ab09b078db271cfd977a1" target="_top" xlink:title="Returns the constraint (consistent/conservative) of the mapping. ">
<polygon fill="#ffffff" stroke="#000000" points="181.5,-.5 181.5,-30.5 315.5,-30.5 315.5,-.5 181.5,-.5"/>
<text text-anchor="start" x="189.5" y="-18.5" font-family="Helvetica,sans-Serif" font-size="10.00" fill="#000000">precice::mapping::Mapping</text>
<text text-anchor="middle" x="248.5" y="-7.5" font-family="Helvetica,sans-Serif" font-size="10.00" fill="#000000">::getConstraint</text>
</a>
</g>
</g>
<!-- Node62&#45;&gt;Node67 -->
<g id="edge5" class="edge">
<title>Node62&#45;&gt;Node67</title>
<path fill="none" stroke="#191970" d="M70.3313,-147.472C84.6973,-121.4113 117.7964,-67.9065 161,-39.5 164.383,-37.2757 167.9688,-35.256 171.6824,-33.4225"/>
<polygon fill="#191970" stroke="#191970" points="173.4078,-36.4863 181.1345,-29.2372 170.5737,-30.0857 173.4078,-36.4863"/>
</g>
<!-- Node68 -->
<g id="node7" class="node">
<title>Node68</title>
<g id="a_node7"><a xlink:href="classprecice_1_1mapping_1_1RadialBasisFctMapping.html#a88d6006eb2d54481929cec60f2ad6950" target="_top" xlink:title="precice::mapping::Radial\lBasisFctMapping::mapConservative">
<polygon fill="#ffffff" stroke="#000000" points="161,-147.5 161,-177.5 336,-177.5 336,-147.5 161,-147.5"/>
<text text-anchor="start" x="169" y="-165.5" font-family="Helvetica,sans-Serif" font-size="10.00" fill="#000000">precice::mapping::Radial</text>
<text text-anchor="middle" x="248.5" y="-154.5" font-family="Helvetica,sans-Serif" font-size="10.00" fill="#000000">BasisFctMapping::mapConservative</text>
</a>
</g>
</g>
<!-- Node62&#45;&gt;Node68 -->
<g id="edge6" class="edge">
<title>Node62&#45;&gt;Node68</title>
<path fill="none" stroke="#191970" d="M125.2118,-162.5C133.4743,-162.5 142.0948,-162.5 150.7704,-162.5"/>
<polygon fill="#191970" stroke="#191970" points="150.9619,-166.0001 160.9619,-162.5 150.9618,-159.0001 150.9619,-166.0001"/>
</g>
<!-- Node72 -->
<g id="node11" class="node">
<title>Node72</title>
<g id="a_node11"><a xlink:href="classprecice_1_1mapping_1_1RadialBasisFctMapping.html#aabed59f2625f19a481753d71aa2f9ff0" target="_top" xlink:title="precice::mapping::Radial\lBasisFctMapping::mapConsistent">
<polygon fill="#ffffff" stroke="#000000" points="166.5,-196.5 166.5,-226.5 330.5,-226.5 330.5,-196.5 166.5,-196.5"/>
<text text-anchor="start" x="174.5" y="-214.5" font-family="Helvetica,sans-Serif" font-size="10.00" fill="#000000">precice::mapping::Radial</text>
<text text-anchor="middle" x="248.5" y="-203.5" font-family="Helvetica,sans-Serif" font-size="10.00" fill="#000000">BasisFctMapping::mapConsistent</text>
</a>
</g>
</g>
<!-- Node62&#45;&gt;Node72 -->
<g id="edge12" class="edge">
<title>Node62&#45;&gt;Node72</title>
<path fill="none" stroke="#191970" d="M119.5702,-177.5346C139.2092,-182.7083 161.3742,-188.5475 181.7168,-193.9066"/>
<polygon fill="#191970" stroke="#191970" points="180.976,-197.3308 191.5377,-196.4938 182.7593,-190.5617 180.976,-197.3308"/>
</g>
<!-- Node68&#45;&gt;Node63 -->
<g id="edge8" class="edge">
<title>Node68&#45;&gt;Node63</title>
<path fill="none" stroke="#191970" d="M316.143,-177.5224C323.1,-180.3163 329.8591,-183.6134 336,-187.5 356.4905,-200.4688 351.9463,-214.8656 372,-228.5 374.2687,-230.0425 376.6478,-231.4979 379.1011,-232.8698"/>
<polygon fill="#191970" stroke="#191970" points="377.7395,-236.1029 388.2447,-237.4781 380.89,-229.8519 377.7395,-236.1029"/>
</g>
<!-- Node68&#45;&gt;Node65 -->
<g id="edge9" class="edge">
<title>Node68&#45;&gt;Node65</title>
<path fill="none" stroke="#191970" d="M321.9416,-177.7122C327.0132,-180.4554 331.7781,-183.689 336,-187.5 367.9794,-216.3672 340.9855,-247.5985 372,-277.5 373.1119,-278.572 374.2749,-279.5965 375.4814,-280.5756"/>
<polygon fill="#191970" stroke="#191970" points="373.7655,-283.6424 383.995,-286.4009 377.7185,-277.8653 373.7655,-283.6424"/>
</g>
<!-- Node69 -->
<g id="node8" class="node">
<title>Node69</title>
<g id="a_node8"><a xlink:href="classprecice_1_1utils_1_1MasterSlave.html#a3837ad42361b53d7e930443ba07a9eb5" target="_top" xlink:title="True if this process is running a slave. ">
<polygon fill="#ffffff" stroke="#000000" points="372.5,-188.5 372.5,-218.5 505.5,-218.5 505.5,-188.5 372.5,-188.5"/>
<text text-anchor="start" x="380.5" y="-206.5" font-family="Helvetica,sans-Serif" font-size="10.00" fill="#000000">precice::utils::MasterSlave</text>
<text text-anchor="middle" x="439" y="-195.5" font-family="Helvetica,sans-Serif" font-size="10.00" fill="#000000">::isSlave</text>
</a>
</g>
</g>
<!-- Node68&#45;&gt;Node69 -->
<g id="edge7" class="edge">
<title>Node68&#45;&gt;Node69</title>
<path fill="none" stroke="#191970" d="M318.3535,-177.5341C332.6757,-180.6165 347.8243,-183.8769 362.3701,-187.0075"/>
<polygon fill="#191970" stroke="#191970" points="361.8138,-190.4678 372.3264,-189.1503 363.2867,-183.6245 361.8138,-190.4678"/>
</g>
<!-- Node70 -->
<g id="node9" class="node">
<title>Node70</title>
<g id="a_node9"><a xlink:href="classprecice_1_1utils_1_1MasterSlave.html#ae8671e778dec26782120295d51bb3fde" target="_top" xlink:title="Number of ranks. This includes ranks from both participants, e.g. minimal size is 2...">
<polygon fill="#ffffff" stroke="#000000" points="372.5,-139.5 372.5,-169.5 505.5,-169.5 505.5,-139.5 372.5,-139.5"/>
<text text-anchor="start" x="380.5" y="-157.5" font-family="Helvetica,sans-Serif" font-size="10.00" fill="#000000">precice::utils::MasterSlave</text>
<text text-anchor="middle" x="439" y="-146.5" font-family="Helvetica,sans-Serif" font-size="10.00" fill="#000000">::getSize</text>
</a>
</g>
</g>
<!-- Node68&#45;&gt;Node70 -->
<g id="edge10" class="edge">
<title>Node68&#45;&gt;Node70</title>
<path fill="none" stroke="#191970" d="M336.2226,-158.8161C344.8311,-158.4546 353.5221,-158.0896 362.012,-157.7331"/>
<polygon fill="#191970" stroke="#191970" points="362.4047,-161.2198 372.249,-157.3032 362.1109,-154.2259 362.4047,-161.2198"/>
</g>
<!-- Node71 -->
<g id="node10" class="node">
<title>Node71</title>
<g id="a_node10"><a xlink:href="classprecice_1_1utils_1_1MasterSlave.html#a5e934392c32335daa8e2b4a01bc75fd3" target="_top" xlink:title="True if this process is running the master. ">
<polygon fill="#ffffff" stroke="#000000" points="372.5,-90.5 372.5,-120.5 505.5,-120.5 505.5,-90.5 372.5,-90.5"/>
<text text-anchor="start" x="380.5" y="-108.5" font-family="Helvetica,sans-Serif" font-size="10.00" fill="#000000">precice::utils::MasterSlave</text>
<text text-anchor="middle" x="439" y="-97.5" font-family="Helvetica,sans-Serif" font-size="10.00" fill="#000000">::isMaster</text>
</a>
</g>
</g>
<!-- Node68&#45;&gt;Node71 -->
<g id="edge11" class="edge">
<title>Node68&#45;&gt;Node71</title>
<path fill="none" stroke="#191970" d="M301.7695,-147.4909C313.0836,-144.2441 324.9476,-140.7953 336,-137.5 350.8673,-133.0673 366.8997,-128.152 381.7859,-123.5308"/>
<polygon fill="#191970" stroke="#191970" points="382.8712,-126.8587 391.379,-120.5445 380.7906,-120.175 382.8712,-126.8587"/>
</g>
<!-- Node72&#45;&gt;Node63 -->
<g id="edge14" class="edge">
<title>Node72&#45;&gt;Node63</title>
<path fill="none" stroke="#191970" d="M318.3535,-226.5341C332.5031,-229.5794 347.4594,-232.7983 361.8441,-235.8943"/>
<polygon fill="#191970" stroke="#191970" points="361.1818,-239.3318 371.6944,-238.0143 362.6547,-232.4885 361.1818,-239.3318"/>
</g>
<!-- Node72&#45;&gt;Node65 -->
<g id="edge15" class="edge">
<title>Node72&#45;&gt;Node65</title>
<path fill="none" stroke="#191970" d="M273.9696,-226.5354C298.5638,-240.7098 337.1088,-262.0279 372,-277.5 376.0485,-279.2953 380.2769,-281.0583 384.5552,-282.763"/>
<polygon fill="#191970" stroke="#191970" points="383.3615,-286.0538 393.9509,-286.3913 385.8832,-279.5238 383.3615,-286.0538"/>
</g>
<!-- Node72&#45;&gt;Node69 -->
<g id="edge13" class="edge">
<title>Node72&#45;&gt;Node69</title>
<path fill="none" stroke="#191970" d="M330.6714,-208.0492C341.0939,-207.6115 351.7293,-207.1649 362.0657,-206.7308"/>
<polygon fill="#191970" stroke="#191970" points="362.4392,-210.2183 372.2835,-206.3017 362.1454,-203.2245 362.4392,-210.2183"/>
</g>
<!-- Node72&#45;&gt;Node70 -->
<g id="edge17" class="edge">
<title>Node72&#45;&gt;Node70</title>
<path fill="none" stroke="#191970" d="M304.6145,-196.4875C315.0688,-193.5833 325.8834,-190.5066 336,-187.5 351.5033,-182.8926 368.2341,-177.6498 383.6114,-172.7209"/>
<polygon fill="#191970" stroke="#191970" points="385.0495,-175.9348 393.4945,-169.537 382.903,-169.272 385.0495,-175.9348"/>
</g>
<!-- Node72&#45;&gt;Node71 -->
<g id="edge16" class="edge">
<title>Node72&#45;&gt;Node71</title>
<path fill="none" stroke="#191970" d="M321.2294,-196.3086C326.4607,-193.807 331.4566,-190.8934 336,-187.5 360.3081,-169.3448 348.4018,-148.5688 372,-129.5 373.5857,-128.2187 375.2453,-127.0028 376.9627,-125.8493"/>
<polygon fill="#191970" stroke="#191970" points="379.0933,-128.6579 385.957,-120.5869 375.5583,-122.616 379.0933,-128.6579"/>
</g>
</g>
</svg>
        <g id="navigator" transform="translate(0 0)" fill="#404254">
                <rect fill="#f2f5e9" fill-opacity="0.5" stroke="#606060" stroke-width=".5" x="0" y="0" width="60" height="60"/>
                <use id="zoomplus" xlink:href="#zoomPlus" x="17" y="9" onmousedown="handleZoom(evt,'in')"/>
                <use id="zoomminus" xlink:href="#zoomMin" x="42" y="9" onmousedown="handleZoom(evt,'out')"/>
                <use id="reset" xlink:href="#resetDef" x="30" y="36" onmousedown="handleReset()"/>
                <g id="arrowUp" xlink:href="#dirArrow" transform="translate(30 24)" onmousedown="handlePan(0,-1)">
                  <use xlink:href="#rim" fill="#404040">
                        <set attributeName="fill" to="#808080" begin="arrowUp.mouseover" end="arrowUp.mouseout"/>
                  </use>
                  <path fill="none" stroke="white" stroke-width="1.5" d="M0,-3.0v7 M-2.5,-0.5L0,-3.0L2.5,-0.5"/>
                </g>
                <g id="arrowRight" xlink:href="#dirArrow" transform="rotate(90) translate(36 -43)" onmousedown="handlePan(1,0)">
                  <use xlink:href="#rim" fill="#404040">
                        <set attributeName="fill" to="#808080" begin="arrowRight.mouseover" end="arrowRight.mouseout"/>
                  </use>
                  <path fill="none" stroke="white" stroke-width="1.5" d="M0,-3.0v7 M-2.5,-0.5L0,-3.0L2.5,-0.5"/>
                </g>
                <g id="arrowDown" xlink:href="#dirArrow" transform="rotate(180) translate(-30 -48)" onmousedown="handlePan(0,1)">
                  <use xlink:href="#rim" fill="#404040">
                        <set attributeName="fill" to="#808080" begin="arrowDown.mouseover" end="arrowDown.mouseout"/>
                  </use>
                  <path fill="none" stroke="white" stroke-width="1.5" d="M0,-3.0v7 M-2.5,-0.5L0,-3.0L2.5,-0.5"/>
                </g>
                <g id="arrowLeft" xlink:href="#dirArrow" transform="rotate(270) translate(-36 17)" onmousedown="handlePan(-1,0)">
                  <use xlink:href="#rim" fill="#404040">
                        <set attributeName="fill" to="#808080" begin="arrowLeft.mouseover" end="arrowLeft.mouseout"/>
                  </use>
                  <path fill="none" stroke="white" stroke-width="1.5" d="M0,-3.0v7 M-2.5,-0.5L0,-3.0L2.5,-0.5"/>
                </g>
        </g>
        <svg viewBox="0 0 15 15" width="100%" height="30px" preserveAspectRatio="xMaxYMin meet">
         <g id="arrow_out" transform="scale(0.3 0.3)">
          <a xlink:href="classprecice_1_1mapping_1_1RadialBasisFctMapping_ace1aa1fcfdac16ae82b48a015f23c875_cgraph_org.svg" target="_base">
           <rect id="button" ry="5" rx="5" y="6" x="6" height="38" width="38"
                fill="#f2f5e9" fill-opacity="0.5" stroke="#606060" stroke-width="1.0"/>
           <path id="arrow"
             d="M 11.500037,31.436501 C 11.940474,20.09759 22.043105,11.32322 32.158766,21.979434 L 37.068811,17.246167 C 37.068811,17.246167 37.088388,32 37.088388,32 L 22.160133,31.978069 C 22.160133,31.978069 26.997745,27.140456 26.997745,27.140456 C 18.528582,18.264221 13.291696,25.230495 11.500037,31.436501 z"
             style="fill:#404040;"/>
          </a>
         </g>
        </svg>
</svg>
