<?xml version="1.0" encoding="UTF-8" standalone="no"?>
<!DOCTYPE svg PUBLIC "-//W3C//DTD SVG 1.1//EN"
 "http://www.w3.org/Graphics/SVG/1.1/DTD/svg11.dtd">
<!-- Generated by graphviz version 2.40.1 (20161225.0304)
 -->
<!-- Title: precice::utils::Event::stop Pages: 1 -->
<svg width="330pt" height="116pt"
 viewBox="0.00 0.00 330.00 116.00" xmlns="http://www.w3.org/2000/svg" xmlns:xlink="http://www.w3.org/1999/xlink">
<g id="graph0" class="graph" transform="scale(1 1) rotate(0) translate(4 112)">
<title>precice::utils::Event::stop</title>
<polygon fill="#ffffff" stroke="transparent" points="-4,4 -4,-112 326,-112 326,4 -4,4"/>
<!-- Node21 -->
<g id="node1" class="node">
<title>Node21</title>
<polygon fill="#bfbfbf" stroke="#000000" points="0,-39 0,-69 113,-69 113,-39 0,-39"/>
<text text-anchor="start" x="8" y="-57" font-family="Helvetica,sans-Serif" font-size="10.00" fill="#000000">precice::utils::Event</text>
<text text-anchor="middle" x="56.5" y="-46" font-family="Helvetica,sans-Serif" font-size="10.00" fill="#000000">::stop</text>
</g>
<!-- Node22 -->
<g id="node2" class="node">
<title>Node22</title>
<g id="a_node2"><a xlink:href="MPI__Mock_8hpp.html#a38a750883860adf3d7cee6f56442261a" target="_top" xlink:title="MPI_Barrier">
<polygon fill="#ffffff" stroke="#000000" points="199.5,-88.5 199.5,-107.5 271.5,-107.5 271.5,-88.5 199.5,-88.5"/>
<text text-anchor="middle" x="235.5" y="-95.5" font-family="Helvetica,sans-Serif" font-size="10.00" fill="#000000">MPI_Barrier</text>
</a>
</g>
</g>
<!-- Node21&#45;&gt;Node22 -->
<g id="edge1" class="edge">
<title>Node21&#45;&gt;Node22</title>
<path fill="none" stroke="#191970" d="M110.6804,-69.1079C123.2326,-72.4788 136.5583,-75.9541 149,-79 161.9625,-82.1734 176.0788,-85.3791 189.0763,-88.2303"/>
<polygon fill="#191970" stroke="#191970" points="188.7017,-91.7305 199.2168,-90.4336 190.188,-84.8901 188.7017,-91.7305"/>
</g>
<!-- Node23 -->
<g id="node3" class="node">
<title>Node23</title>
<g id="a_node3"><a xlink:href="classprecice_1_1utils_1_1EventRegistry.html#ab22976bb8c5bd6a86f052f4705a48cb1" target="_top" xlink:title="Returns the only instance (singleton) of the EventRegistry class. ">
<polygon fill="#ffffff" stroke="#000000" points="159.5,-39 159.5,-69 311.5,-69 311.5,-39 159.5,-39"/>
<text text-anchor="start" x="167.5" y="-57" font-family="Helvetica,sans-Serif" font-size="10.00" fill="#000000">precice::utils::EventRegistry</text>
<text text-anchor="middle" x="235.5" y="-46" font-family="Helvetica,sans-Serif" font-size="10.00" fill="#000000">::instance</text>
</a>
</g>
</g>
<!-- Node21&#45;&gt;Node23 -->
<g id="edge2" class="edge">
<title>Node21&#45;&gt;Node23</title>
<path fill="none" stroke="#191970" d="M113.1367,-54C124.5795,-54 136.8545,-54 149.0538,-54"/>
<polygon fill="#191970" stroke="#191970" points="149.2635,-57.5001 159.2634,-54 149.2634,-50.5001 149.2635,-57.5001"/>
</g>
<!-- Node24 -->
<g id="node4" class="node">
<title>Node24</title>
<g id="a_node4"><a xlink:href="classprecice_1_1utils_1_1EventRegistry.html#ae2cd83819174207b743e580c381dd022" target="_top" xlink:title="Records the event. ">
<polygon fill="#ffffff" stroke="#000000" points="149,-.5 149,-19.5 322,-19.5 322,-.5 149,-.5"/>
<text text-anchor="middle" x="235.5" y="-7.5" font-family="Helvetica,sans-Serif" font-size="10.00" fill="#000000">precice::utils::EventRegistry::put</text>
</a>
</g>
</g>
<!-- Node21&#45;&gt;Node24 -->
<g id="edge3" class="edge">
<title>Node21&#45;&gt;Node24</title>
<path fill="none" stroke="#191970" d="M113.1851,-39.0378C125.006,-35.9892 137.3986,-32.8457 149,-30 160.1151,-27.2736 172.0591,-24.4462 183.4163,-21.8059"/>
<polygon fill="#191970" stroke="#191970" points="184.2559,-25.2042 193.2101,-19.5409 182.6786,-18.3842 184.2559,-25.2042"/>
</g>
</g>
</svg>
