<?xml version="1.0" encoding="UTF-8" standalone="no"?>
<!DOCTYPE svg PUBLIC "-//W3C//DTD SVG 1.1//EN"
 "http://www.w3.org/Graphics/SVG/1.1/DTD/svg11.dtd">
<!-- Generated by graphviz version 2.40.1 (20161225.0304)
 -->
<!-- Title: precice::cplscheme::CompositionalCouplingScheme::initialize Pages: 1 -->
<!--zoomable 127 -->
<svg id="main" version="1.1" xmlns="http://www.w3.org/2000/svg" xmlns:xlink="http://www.w3.org/1999/xlink" xml:space="preserve" onload="init(evt)">
<style type="text/css"><![CDATA[
.edge:hover path { stroke: red; }
.edge:hover polygon { stroke: red; fill: red; }
]]></style>
<script type="text/javascript"><![CDATA[
var edges = document.getElementsByTagName('g');
if (edges && edges.length) {
  for (var i=0;i<edges.length;i++) {
    if (edges[i].id.substr(0,4)=='edge') {
      edges[i].setAttribute('class','edge');
    }
  }
}
]]></script>
        <defs>
                <circle id="rim" cx="0" cy="0" r="7"/>
                <circle id="rim2" cx="0" cy="0" r="3.5"/>
                <g id="zoomPlus">
                        <use xlink:href="#rim" fill="#404040">
                                <set attributeName="fill" to="#808080" begin="zoomplus.mouseover" end="zoomplus.mouseout"/>
                        </use>
                        <path d="M-4,0h8M0,-4v8" fill="none" stroke="white" stroke-width="1.5" pointer-events="none"/>
                </g>
                <g id="zoomMin">
                        <use xlink:href="#rim" fill="#404040">
                                <set attributeName="fill" to="#808080" begin="zoomminus.mouseover" end="zoomminus.mouseout"/>
                        </use>
                        <path d="M-4,0h8" fill="none" stroke="white" stroke-width="1.5" pointer-events="none"/>
                </g>
                <g id="dirArrow">
                        <path fill="none" stroke="white" stroke-width="1.5" d="M0,-3.0v7 M-2.5,-0.5L0,-3.0L2.5,-0.5"/>
                </g>
               <g id="resetDef">
                       <use xlink:href="#rim2" fill="#404040">
                               <set attributeName="fill" to="#808080" begin="reset.mouseover" end="reset.mouseout"/>
                       </use>
               </g>
        </defs>

<script type="text/javascript">
var viewWidth = 837;
var viewHeight = 127;
var sectionId = 'dynsection-6';
</script>
<script xlink:href="svgpan.js"/>
<svg id="graph" class="graph">
<g id="viewport">
<title>precice::cplscheme::CompositionalCouplingScheme::initialize</title>
<polygon fill="#ffffff" stroke="transparent" points="-4,4 -4,-122.8694 833,-122.8694 833,4 -4,4"/>
<!-- Node52 -->
<g id="node1" class="node">
<title>Node52</title>
<polygon fill="#bfbfbf" stroke="#000000" points="0,-60.5 0,-101.5 175,-101.5 175,-60.5 0,-60.5"/>
<text text-anchor="start" x="8" y="-89.5" font-family="Helvetica,sans-Serif" font-size="10.00" fill="#000000">precice::cplscheme</text>
<text text-anchor="start" x="8" y="-78.5" font-family="Helvetica,sans-Serif" font-size="10.00" fill="#000000">::CompositionalCouplingScheme</text>
<text text-anchor="middle" x="87.5" y="-67.5" font-family="Helvetica,sans-Serif" font-size="10.00" fill="#000000">::initialize</text>
</g>
<!-- Node53 -->
<g id="node2" class="node">
<title>Node53</title>
<g id="a_node2"><a xlink:href="classprecice_1_1cplscheme_1_1CompositionalCouplingScheme.html#a69d66f1a0dc05e6ae74f158542cf8fe8" target="_top" xlink:title="Determines the current set of active coupling schemes. ">
<polygon fill="#ffffff" stroke="#000000" points="211,-60.5 211,-101.5 402,-101.5 402,-60.5 211,-60.5"/>
<text text-anchor="start" x="219" y="-89.5" font-family="Helvetica,sans-Serif" font-size="10.00" fill="#000000">precice::cplscheme</text>
<text text-anchor="start" x="219" y="-78.5" font-family="Helvetica,sans-Serif" font-size="10.00" fill="#000000">::CompositionalCouplingScheme</text>
<text text-anchor="middle" x="306.5" y="-67.5" font-family="Helvetica,sans-Serif" font-size="10.00" fill="#000000">::determineActiveCouplingSchemes</text>
</a>
</g>
</g>
<!-- Node52&#45;&gt;Node53 -->
<g id="edge1" class="edge">
<title>Node52&#45;&gt;Node53</title>
<path fill="none" stroke="#191970" d="M175.3138,-81C183.6047,-81 192.0684,-81 200.5043,-81"/>
<polygon fill="#191970" stroke="#191970" points="200.767,-84.5001 210.767,-81 200.7669,-77.5001 200.767,-84.5001"/>
</g>
<!-- Node54 -->
<g id="node3" class="node">
<title>Node54</title>
<g id="a_node3"><a xlink:href="namespaceprecice_1_1cplscheme_1_1constants.html#ae6a2667f9452de16a239be70945c8172" target="_top" xlink:title="precice::cplscheme\l::constants::actionWriteIteration\lCheckpoint">
<polygon fill="#ffffff" stroke="#000000" points="656,-54.5 656,-95.5 829,-95.5 829,-54.5 656,-54.5"/>
<text text-anchor="start" x="664" y="-83.5" font-family="Helvetica,sans-Serif" font-size="10.00" fill="#000000">precice::cplscheme</text>
<text text-anchor="start" x="664" y="-72.5" font-family="Helvetica,sans-Serif" font-size="10.00" fill="#000000">::constants::actionWriteIteration</text>
<text text-anchor="middle" x="742.5" y="-61.5" font-family="Helvetica,sans-Serif" font-size="10.00" fill="#000000">Checkpoint</text>
</a>
</g>
</g>
<!-- Node53&#45;&gt;Node54 -->
<g id="edge2" class="edge">
<title>Node53&#45;&gt;Node54</title>
<path fill="none" stroke="#191970" d="M383.1867,-101.5308C401.0469,-105.464 420.0826,-108.9821 438,-111 518.3807,-120.0526 539.9358,-122.5209 620,-111 638.2348,-108.3761 657.5408,-103.6616 675.3006,-98.4906"/>
<polygon fill="#191970" stroke="#191970" points="676.4202,-101.8088 684.9914,-95.5811 674.4073,-95.1045 676.4202,-101.8088"/>
</g>
<!-- Node55 -->
<g id="node4" class="node">
<title>Node55</title>
<g id="a_node4"><a xlink:href="namespaceprecice_1_1cplscheme_1_1constants.html#a6ee5e554181352c02568f33215195519" target="_top" xlink:title="precice::cplscheme\l::constants::actionReadIteration\lCheckpoint">
<polygon fill="#ffffff" stroke="#000000" points="443.5,-60.5 443.5,-101.5 614.5,-101.5 614.5,-60.5 443.5,-60.5"/>
<text text-anchor="start" x="451.5" y="-89.5" font-family="Helvetica,sans-Serif" font-size="10.00" fill="#000000">precice::cplscheme</text>
<text text-anchor="start" x="451.5" y="-78.5" font-family="Helvetica,sans-Serif" font-size="10.00" fill="#000000">::constants::actionReadIteration</text>
<text text-anchor="middle" x="529" y="-67.5" font-family="Helvetica,sans-Serif" font-size="10.00" fill="#000000">Checkpoint</text>
</a>
</g>
</g>
<!-- Node53&#45;&gt;Node55 -->
<g id="edge3" class="edge">
<title>Node53&#45;&gt;Node55</title>
<path fill="none" stroke="#191970" d="M402.1513,-81C412.3985,-81 422.8257,-81 433.0761,-81"/>
<polygon fill="#191970" stroke="#191970" points="433.2542,-84.5001 443.2542,-81 433.2541,-77.5001 433.2542,-84.5001"/>
</g>
<!-- Node56 -->
<g id="node5" class="node">
<title>Node56</title>
<g id="a_node5"><a xlink:href="classprecice_1_1cplscheme_1_1CompositionalCouplingScheme.html#a4181a7d671462ed53726008af01150a1" target="_top" xlink:title="Advances the active set of coupling schemes. ">
<polygon fill="#ffffff" stroke="#000000" points="438,-.5 438,-41.5 620,-41.5 620,-.5 438,-.5"/>
<text text-anchor="start" x="446" y="-29.5" font-family="Helvetica,sans-Serif" font-size="10.00" fill="#000000">precice::cplscheme</text>
<text text-anchor="start" x="446" y="-18.5" font-family="Helvetica,sans-Serif" font-size="10.00" fill="#000000">::CompositionalCouplingScheme</text>
<text text-anchor="middle" x="529" y="-7.5" font-family="Helvetica,sans-Serif" font-size="10.00" fill="#000000">::advanceActiveCouplingSchemes</text>
</a>
</g>
</g>
<!-- Node53&#45;&gt;Node56 -->
<g id="edge4" class="edge">
<title>Node53&#45;&gt;Node56</title>
<path fill="none" stroke="#191970" d="M382.7606,-60.4353C402.2202,-55.1878 423.2699,-49.5115 443.1727,-44.1444"/>
<polygon fill="#191970" stroke="#191970" points="444.0952,-47.5208 452.8391,-41.5378 442.2727,-40.7622 444.0952,-47.5208"/>
</g>
<!-- Node56&#45;&gt;Node54 -->
<g id="edge5" class="edge">
<title>Node56&#45;&gt;Node54</title>
<path fill="none" stroke="#191970" d="M610.3242,-41.5691C623.7895,-44.9749 637.8278,-48.5255 651.5128,-51.9868"/>
<polygon fill="#191970" stroke="#191970" points="650.8489,-55.4291 661.4019,-54.4881 652.5654,-48.6428 650.8489,-55.4291"/>
</g>
</g>
</svg>
        <g id="navigator" transform="translate(0 0)" fill="#404254">
                <rect fill="#f2f5e9" fill-opacity="0.5" stroke="#606060" stroke-width=".5" x="0" y="0" width="60" height="60"/>
                <use id="zoomplus" xlink:href="#zoomPlus" x="17" y="9" onmousedown="handleZoom(evt,'in')"/>
                <use id="zoomminus" xlink:href="#zoomMin" x="42" y="9" onmousedown="handleZoom(evt,'out')"/>
                <use id="reset" xlink:href="#resetDef" x="30" y="36" onmousedown="handleReset()"/>
                <g id="arrowUp" xlink:href="#dirArrow" transform="translate(30 24)" onmousedown="handlePan(0,-1)">
                  <use xlink:href="#rim" fill="#404040">
                        <set attributeName="fill" to="#808080" begin="arrowUp.mouseover" end="arrowUp.mouseout"/>
                  </use>
                  <path fill="none" stroke="white" stroke-width="1.5" d="M0,-3.0v7 M-2.5,-0.5L0,-3.0L2.5,-0.5"/>
                </g>
                <g id="arrowRight" xlink:href="#dirArrow" transform="rotate(90) translate(36 -43)" onmousedown="handlePan(1,0)">
                  <use xlink:href="#rim" fill="#404040">
                        <set attributeName="fill" to="#808080" begin="arrowRight.mouseover" end="arrowRight.mouseout"/>
                  </use>
                  <path fill="none" stroke="white" stroke-width="1.5" d="M0,-3.0v7 M-2.5,-0.5L0,-3.0L2.5,-0.5"/>
                </g>
                <g id="arrowDown" xlink:href="#dirArrow" transform="rotate(180) translate(-30 -48)" onmousedown="handlePan(0,1)">
                  <use xlink:href="#rim" fill="#404040">
                        <set attributeName="fill" to="#808080" begin="arrowDown.mouseover" end="arrowDown.mouseout"/>
                  </use>
                  <path fill="none" stroke="white" stroke-width="1.5" d="M0,-3.0v7 M-2.5,-0.5L0,-3.0L2.5,-0.5"/>
                </g>
                <g id="arrowLeft" xlink:href="#dirArrow" transform="rotate(270) translate(-36 17)" onmousedown="handlePan(-1,0)">
                  <use xlink:href="#rim" fill="#404040">
                        <set attributeName="fill" to="#808080" begin="arrowLeft.mouseover" end="arrowLeft.mouseout"/>
                  </use>
                  <path fill="none" stroke="white" stroke-width="1.5" d="M0,-3.0v7 M-2.5,-0.5L0,-3.0L2.5,-0.5"/>
                </g>
        </g>
        <svg viewBox="0 0 15 15" width="100%" height="30px" preserveAspectRatio="xMaxYMin meet">
         <g id="arrow_out" transform="scale(0.3 0.3)">
          <a xlink:href="classprecice_1_1cplscheme_1_1CompositionalCouplingScheme_a1f400f2589fa78f349d3c261e59335c1_cgraph_org.svg" target="_base">
           <rect id="button" ry="5" rx="5" y="6" x="6" height="38" width="38"
                fill="#f2f5e9" fill-opacity="0.5" stroke="#606060" stroke-width="1.0"/>
           <path id="arrow"
             d="M 11.500037,31.436501 C 11.940474,20.09759 22.043105,11.32322 32.158766,21.979434 L 37.068811,17.246167 C 37.068811,17.246167 37.088388,32 37.088388,32 L 22.160133,31.978069 C 22.160133,31.978069 26.997745,27.140456 26.997745,27.140456 C 18.528582,18.264221 13.291696,25.230495 11.500037,31.436501 z"
             style="fill:#404040;"/>
          </a>
         </g>
        </svg>
</svg>
