<?xml version="1.0" encoding="UTF-8" standalone="no"?>
<!DOCTYPE svg PUBLIC "-//W3C//DTD SVG 1.1//EN"
 "http://www.w3.org/Graphics/SVG/1.1/DTD/svg11.dtd">
<!-- Generated by graphviz version 2.40.1 (20161225.0304)
 -->
<!-- Title: precice::com::ConnectionInfoPublisher Pages: 1 -->
<svg width="284pt" height="385pt"
 viewBox="0.00 0.00 284.00 385.00" xmlns="http://www.w3.org/2000/svg" xmlns:xlink="http://www.w3.org/1999/xlink">
<g id="graph0" class="graph" transform="scale(1 1) rotate(0) translate(4 381)">
<title>precice::com::ConnectionInfoPublisher</title>
<polygon fill="#ffffff" stroke="transparent" points="-4,4 -4,-381 280,-381 280,4 -4,4"/>
<!-- Node3 -->
<g id="node1" class="node">
<title>Node3</title>
<polygon fill="#bfbfbf" stroke="#000000" points="87,-.5 87,-30.5 215,-30.5 215,-.5 87,-.5"/>
<text text-anchor="start" x="95" y="-18.5" font-family="Helvetica,sans-Serif" font-size="10.00" fill="#000000">precice::com::Connection</text>
<text text-anchor="middle" x="151" y="-7.5" font-family="Helvetica,sans-Serif" font-size="10.00" fill="#000000">InfoPublisher</text>
</g>
<!-- Node4 -->
<g id="node2" class="node">
<title>Node4</title>
<g id="a_node2"><a xlink:href="classprecice_1_1logging_1_1Logger.html" target="_top" xlink:title="This class provides a leightweight logger. ">
<polygon fill="#ffffff" stroke="#000000" points="38,-111.5 38,-130.5 158,-130.5 158,-111.5 38,-111.5"/>
<text text-anchor="middle" x="98" y="-118.5" font-family="Helvetica,sans-Serif" font-size="10.00" fill="#000000">precice::logging::Logger</text>
</a>
</g>
</g>
<!-- Node4&#45;&gt;Node3 -->
<g id="edge1" class="edge">
<title>Node4&#45;&gt;Node3</title>
<path fill="none" stroke="#9a32cd" stroke-dasharray="5,2" d="M107.3974,-102.2939C117.6701,-81.8453 133.9291,-49.4807 143.4205,-30.5875"/>
<polygon fill="#9a32cd" stroke="#9a32cd" points="104.2527,-100.7569 102.8911,-111.2639 110.5078,-103.8993 104.2527,-100.7569"/>
<text text-anchor="middle" x="145" y="-68.5" font-family="Helvetica,sans-Serif" font-size="10.00" fill="#000000"> _log</text>
</g>
<!-- Node5 -->
<g id="node3" class="node">
<title>Node5</title>
<polygon fill="#ffffff" stroke="#bfbfbf" points="0,-178.5 0,-208.5 152,-208.5 152,-178.5 0,-178.5"/>
<text text-anchor="start" x="8" y="-196.5" font-family="Helvetica,sans-Serif" font-size="10.00" fill="#000000">std::unique_ptr&lt; precice</text>
<text text-anchor="middle" x="76" y="-185.5" font-family="Helvetica,sans-Serif" font-size="10.00" fill="#000000">::logging::Logger::LoggerImpl &gt;</text>
</g>
<!-- Node5&#45;&gt;Node4 -->
<g id="edge2" class="edge">
<title>Node5&#45;&gt;Node4</title>
<path fill="none" stroke="#9a32cd" stroke-dasharray="5,2" d="M83.5283,-168.6908C87.4633,-155.7233 92.0586,-140.5795 94.9972,-130.8957"/>
<polygon fill="#9a32cd" stroke="#9a32cd" points="80.113,-167.8925 80.5584,-178.478 86.8114,-169.9251 80.113,-167.8925"/>
<text text-anchor="middle" x="102.5" y="-152" font-family="Helvetica,sans-Serif" font-size="10.00" fill="#000000"> _impl</text>
</g>
<!-- Node6 -->
<g id="node4" class="node">
<title>Node6</title>
<g id="a_node4"><a xlink:href="classprecice_1_1logging_1_1Logger_1_1LoggerImpl.html" target="_top" xlink:title="precice::logging::Logger\l::LoggerImpl">
<polygon fill="#ffffff" stroke="#000000" points="16,-256.5 16,-286.5 136,-286.5 136,-256.5 16,-256.5"/>
<text text-anchor="start" x="24" y="-274.5" font-family="Helvetica,sans-Serif" font-size="10.00" fill="#000000">precice::logging::Logger</text>
<text text-anchor="middle" x="76" y="-263.5" font-family="Helvetica,sans-Serif" font-size="10.00" fill="#000000">::LoggerImpl</text>
</a>
</g>
</g>
<!-- Node6&#45;&gt;Node5 -->
<g id="edge3" class="edge">
<title>Node6&#45;&gt;Node5</title>
<path fill="none" stroke="#9a32cd" stroke-dasharray="5,2" d="M76,-246.2875C76,-233.9187 76,-219.4264 76,-208.7592"/>
<polygon fill="#9a32cd" stroke="#9a32cd" points="72.5001,-246.4608 76,-256.4608 79.5001,-246.4608 72.5001,-246.4608"/>
<text text-anchor="middle" x="83.5" y="-230" font-family="Helvetica,sans-Serif" font-size="10.00" fill="#000000"> ptr</text>
</g>
<!-- Node7 -->
<g id="node5" class="node">
<title>Node7</title>
<polygon fill="#ffffff" stroke="#bfbfbf" points="15,-324.5 15,-376.5 137,-376.5 137,-324.5 15,-324.5"/>
<text text-anchor="start" x="23" y="-364.5" font-family="Helvetica,sans-Serif" font-size="10.00" fill="#000000">boost::log::sources</text>
<text text-anchor="start" x="23" y="-353.5" font-family="Helvetica,sans-Serif" font-size="10.00" fill="#000000">::severity_logger&lt; boost</text>
<text text-anchor="start" x="23" y="-342.5" font-family="Helvetica,sans-Serif" font-size="10.00" fill="#000000">::log::trivial::severity</text>
<text text-anchor="middle" x="76" y="-331.5" font-family="Helvetica,sans-Serif" font-size="10.00" fill="#000000">_level &gt;</text>
</g>
<!-- Node7&#45;&gt;Node6 -->
<g id="edge4" class="edge">
<title>Node7&#45;&gt;Node6</title>
<path fill="none" stroke="#191970" d="M76,-314.0152C76,-304.4501 76,-294.648 76,-286.8696"/>
<polygon fill="#191970" stroke="#191970" points="72.5001,-314.1941 76,-324.1941 79.5001,-314.1942 72.5001,-314.1941"/>
</g>
<!-- Node8 -->
<g id="node6" class="node">
<title>Node8</title>
<g id="a_node6"><a xlink:title="STL class. ">
<polygon fill="#ffffff" stroke="#bfbfbf" points="184,-111.5 184,-130.5 244,-130.5 244,-111.5 184,-111.5"/>
<text text-anchor="middle" x="214" y="-118.5" font-family="Helvetica,sans-Serif" font-size="10.00" fill="#000000">std::string</text>
</a>
</g>
</g>
<!-- Node8&#45;&gt;Node3 -->
<g id="edge5" class="edge">
<title>Node8&#45;&gt;Node3</title>
<path fill="none" stroke="#9a32cd" stroke-dasharray="5,2" d="M202.9956,-102.5721C190.7944,-82.1398 171.3431,-49.5666 160.0096,-30.5875"/>
<polygon fill="#9a32cd" stroke="#9a32cd" points="200.054,-104.4727 208.186,-111.2639 206.064,-100.8838 200.054,-104.4727"/>
<text text-anchor="middle" x="237" y="-85" font-family="Helvetica,sans-Serif" font-size="10.00" fill="#000000"> addressDirectory</text>
<text text-anchor="middle" x="237" y="-74" font-family="Helvetica,sans-Serif" font-size="10.00" fill="#000000">tag</text>
<text text-anchor="middle" x="237" y="-63" font-family="Helvetica,sans-Serif" font-size="10.00" fill="#000000">requesterName</text>
<text text-anchor="middle" x="237" y="-52" font-family="Helvetica,sans-Serif" font-size="10.00" fill="#000000">acceptorName</text>
</g>
<!-- Node9 -->
<g id="node7" class="node">
<title>Node9</title>
<g id="a_node7"><a xlink:title="STL class. ">
<polygon fill="#ffffff" stroke="#bfbfbf" points="170.5,-178.5 170.5,-208.5 265.5,-208.5 265.5,-178.5 170.5,-178.5"/>
<text text-anchor="start" x="178.5" y="-196.5" font-family="Helvetica,sans-Serif" font-size="10.00" fill="#000000">std::basic_string&lt;</text>
<text text-anchor="middle" x="218" y="-185.5" font-family="Helvetica,sans-Serif" font-size="10.00" fill="#000000"> char &gt;</text>
</a>
</g>
</g>
<!-- Node9&#45;&gt;Node8 -->
<g id="edge6" class="edge">
<title>Node9&#45;&gt;Node8</title>
<path fill="none" stroke="#191970" d="M216.6099,-168.305C215.8993,-155.424 215.075,-140.4836 214.546,-130.8957"/>
<polygon fill="#191970" stroke="#191970" points="213.1255,-168.686 217.1712,-178.478 220.1149,-168.3003 213.1255,-168.686"/>
</g>
</g>
</svg>
