<?xml version="1.0" encoding="UTF-8" standalone="no"?>
<!DOCTYPE svg PUBLIC "-//W3C//DTD SVG 1.1//EN"
 "http://www.w3.org/Graphics/SVG/1.1/DTD/svg11.dtd">
<!-- Generated by graphviz version 2.40.1 (20161225.0304)
 -->
<!-- Title: precice::query::FindClosestTriangle::find Pages: 1 -->
<svg width="375pt" height="186pt"
 viewBox="0.00 0.00 375.00 186.00" xmlns="http://www.w3.org/2000/svg" xmlns:xlink="http://www.w3.org/1999/xlink">
<g id="graph0" class="graph" transform="scale(1 1) rotate(0) translate(4 182)">
<title>precice::query::FindClosestTriangle::find</title>
<polygon fill="#ffffff" stroke="transparent" points="-4,4 -4,-182 371,-182 371,4 -4,4"/>
<!-- Node1 -->
<g id="node1" class="node">
<title>Node1</title>
<polygon fill="#bfbfbf" stroke="#000000" points="0,-73.5 0,-103.5 146,-103.5 146,-73.5 0,-73.5"/>
<text text-anchor="start" x="8" y="-91.5" font-family="Helvetica,sans-Serif" font-size="10.00" fill="#000000">precice::query::FindClosest</text>
<text text-anchor="middle" x="73" y="-80.5" font-family="Helvetica,sans-Serif" font-size="10.00" fill="#000000">Triangle::find</text>
</g>
<!-- Node2 -->
<g id="node2" class="node">
<title>Node2</title>
<g id="a_node2"><a xlink:href="namespaceprecice_1_1math_1_1barycenter.html#af0f7cdd892c9cccdabcca70ceeeb08ca" target="_top" xlink:title="precice::math::barycenter\l::calcBarycentricCoordsForTriangle">
<polygon fill="#ffffff" stroke="#000000" points="182,-147.5 182,-177.5 367,-177.5 367,-147.5 182,-147.5"/>
<text text-anchor="start" x="190" y="-165.5" font-family="Helvetica,sans-Serif" font-size="10.00" fill="#000000">precice::math::barycenter</text>
<text text-anchor="middle" x="274.5" y="-154.5" font-family="Helvetica,sans-Serif" font-size="10.00" fill="#000000">::calcBarycentricCoordsForTriangle</text>
</a>
</g>
</g>
<!-- Node1&#45;&gt;Node2 -->
<g id="edge1" class="edge">
<title>Node1&#45;&gt;Node2</title>
<path fill="none" stroke="#191970" d="M102.0249,-103.5168C123.6574,-114.2864 154.1481,-128.586 182,-138.5 187.9492,-140.6176 194.1742,-142.6361 200.4614,-144.5381"/>
<polygon fill="#191970" stroke="#191970" points="199.7816,-147.9857 210.3618,-147.4286 201.7434,-141.2663 199.7816,-147.9857"/>
</g>
<!-- Node3 -->
<g id="node3" class="node">
<title>Node3</title>
<g id="a_node3"><a xlink:href="classprecice_1_1mesh_1_1Triangle.html#ac4d5ab22ef769607eb78676efe7dd11e" target="_top" xlink:title="Returns triangle vertex with index 0, 1 or 2. ">
<polygon fill="#ffffff" stroke="#000000" points="210,-98.5 210,-128.5 339,-128.5 339,-98.5 210,-98.5"/>
<text text-anchor="start" x="218" y="-116.5" font-family="Helvetica,sans-Serif" font-size="10.00" fill="#000000">precice::mesh::Triangle</text>
<text text-anchor="middle" x="274.5" y="-105.5" font-family="Helvetica,sans-Serif" font-size="10.00" fill="#000000">::vertex</text>
</a>
</g>
</g>
<!-- Node1&#45;&gt;Node3 -->
<g id="edge2" class="edge">
<title>Node1&#45;&gt;Node3</title>
<path fill="none" stroke="#191970" d="M146.031,-97.5609C163.4489,-99.7219 182.0652,-102.0317 199.5671,-104.2031"/>
<polygon fill="#191970" stroke="#191970" points="199.3707,-107.7055 209.7256,-105.4635 200.2327,-100.7588 199.3707,-107.7055"/>
</g>
<!-- Node4 -->
<g id="node4" class="node">
<title>Node4</title>
<g id="a_node4"><a xlink:href="classprecice_1_1mesh_1_1Vertex.html#a382386665b94b9ae8ded5fca26fd2b0b" target="_top" xlink:title="Returns the coordinates of the vertex. ">
<polygon fill="#ffffff" stroke="#000000" points="213.5,-49.5 213.5,-79.5 335.5,-79.5 335.5,-49.5 213.5,-49.5"/>
<text text-anchor="start" x="221.5" y="-67.5" font-family="Helvetica,sans-Serif" font-size="10.00" fill="#000000">precice::mesh::Vertex</text>
<text text-anchor="middle" x="274.5" y="-56.5" font-family="Helvetica,sans-Serif" font-size="10.00" fill="#000000">::getCoords</text>
</a>
</g>
</g>
<!-- Node1&#45;&gt;Node4 -->
<g id="edge3" class="edge">
<title>Node1&#45;&gt;Node4</title>
<path fill="none" stroke="#191970" d="M146.031,-79.8015C164.657,-77.583 184.6535,-75.2013 203.192,-72.9933"/>
<polygon fill="#191970" stroke="#191970" points="203.8074,-76.4448 213.3233,-71.7866 202.9795,-69.4939 203.8074,-76.4448"/>
</g>
<!-- Node5 -->
<g id="node5" class="node">
<title>Node5</title>
<g id="a_node5"><a xlink:href="classprecice_1_1mesh_1_1Triangle.html#aaa0de2be16c8a87d7c6e0b5ea8b777c3" target="_top" xlink:title="Returns the outer normal of the triangle. ">
<polygon fill="#ffffff" stroke="#000000" points="210,-.5 210,-30.5 339,-30.5 339,-.5 210,-.5"/>
<text text-anchor="start" x="218" y="-18.5" font-family="Helvetica,sans-Serif" font-size="10.00" fill="#000000">precice::mesh::Triangle</text>
<text text-anchor="middle" x="274.5" y="-7.5" font-family="Helvetica,sans-Serif" font-size="10.00" fill="#000000">::getNormal</text>
</a>
</g>
</g>
<!-- Node1&#45;&gt;Node5 -->
<g id="edge4" class="edge">
<title>Node1&#45;&gt;Node5</title>
<path fill="none" stroke="#191970" d="M103.9761,-73.3616C125.5211,-63.2056 155.0931,-49.9995 182,-40.5 188.902,-38.0633 196.1639,-35.7256 203.4583,-33.525"/>
<polygon fill="#191970" stroke="#191970" points="204.7826,-36.7842 213.3943,-30.6127 202.8136,-30.0668 204.7826,-36.7842"/>
</g>
</g>
</svg>
