<?xml version="1.0" encoding="UTF-8" standalone="no"?>
<!DOCTYPE svg PUBLIC "-//W3C//DTD SVG 1.1//EN"
 "http://www.w3.org/Graphics/SVG/1.1/DTD/svg11.dtd">
<!-- Generated by graphviz version 2.40.1 (20161225.0304)
 -->
<!-- Title: precice::utils::EventRegistry::collect Pages: 1 -->
<svg width="467pt" height="116pt"
 viewBox="0.00 0.00 467.00 115.50" xmlns="http://www.w3.org/2000/svg" xmlns:xlink="http://www.w3.org/1999/xlink">
<g id="graph0" class="graph" transform="scale(1 1) rotate(0) translate(4 111.5)">
<title>precice::utils::EventRegistry::collect</title>
<polygon fill="#ffffff" stroke="transparent" points="-4,4 -4,-111.5 463,-111.5 463,4 -4,4"/>
<!-- Node3 -->
<g id="node1" class="node">
<title>Node3</title>
<polygon fill="#bfbfbf" stroke="#000000" points="0,-44.5 0,-74.5 140,-74.5 140,-44.5 0,-44.5"/>
<text text-anchor="start" x="8" y="-62.5" font-family="Helvetica,sans-Serif" font-size="10.00" fill="#000000">precice::utils::EventRegistry</text>
<text text-anchor="middle" x="70" y="-51.5" font-family="Helvetica,sans-Serif" font-size="10.00" fill="#000000">::collect</text>
</g>
<!-- Node4 -->
<g id="node2" class="node">
<title>Node4</title>
<g id="a_node2"><a xlink:href="MPI__Mock_8hpp.html#a3199e776e016cbaaed648c2e8c32dd04" target="_top" xlink:title="MPI_Comm_rank">
<polygon fill="#ffffff" stroke="#000000" points="190.5,-88 190.5,-107 283.5,-107 283.5,-88 190.5,-88"/>
<text text-anchor="middle" x="237" y="-95" font-family="Helvetica,sans-Serif" font-size="10.00" fill="#000000">MPI_Comm_rank</text>
</a>
</g>
</g>
<!-- Node3&#45;&gt;Node4 -->
<g id="edge1" class="edge">
<title>Node3&#45;&gt;Node4</title>
<path fill="none" stroke="#191970" d="M136.0028,-74.5186C152.3067,-78.2285 169.5424,-82.1504 185.0701,-85.6836"/>
<polygon fill="#191970" stroke="#191970" points="184.473,-89.1371 195.0003,-87.9432 186.0262,-82.3116 184.473,-89.1371"/>
</g>
<!-- Node5 -->
<g id="node3" class="node">
<title>Node5</title>
<g id="a_node3"><a xlink:href="MPI__Mock_8hpp.html#af02c1da1e2be331e53ac3e5f8ccfedb6" target="_top" xlink:title="MPI_Comm_size">
<polygon fill="#ffffff" stroke="#000000" points="191,-50 191,-69 283,-69 283,-50 191,-50"/>
<text text-anchor="middle" x="237" y="-57" font-family="Helvetica,sans-Serif" font-size="10.00" fill="#000000">MPI_Comm_size</text>
</a>
</g>
</g>
<!-- Node3&#45;&gt;Node5 -->
<g id="edge2" class="edge">
<title>Node3&#45;&gt;Node5</title>
<path fill="none" stroke="#191970" d="M140.339,-59.5C153.8438,-59.5 167.8197,-59.5 180.8056,-59.5"/>
<polygon fill="#191970" stroke="#191970" points="180.9798,-63.0001 190.9798,-59.5 180.9797,-56.0001 180.9798,-63.0001"/>
</g>
<!-- Node6 -->
<g id="node4" class="node">
<title>Node6</title>
<g id="a_node4"><a xlink:href="classprecice_1_1utils_1_1RankData.html#ac074d43c683f609c87c7da2ff76e2c66" target="_top" xlink:title="Adds aggregated data for a specific event. ">
<polygon fill="#ffffff" stroke="#000000" points="176,-.5 176,-30.5 298,-30.5 298,-.5 176,-.5"/>
<text text-anchor="start" x="184" y="-18.5" font-family="Helvetica,sans-Serif" font-size="10.00" fill="#000000">precice::utils::RankData</text>
<text text-anchor="middle" x="237" y="-7.5" font-family="Helvetica,sans-Serif" font-size="10.00" fill="#000000">::addEventData</text>
</a>
</g>
</g>
<!-- Node3&#45;&gt;Node6 -->
<g id="edge3" class="edge">
<title>Node3&#45;&gt;Node6</title>
<path fill="none" stroke="#191970" d="M127.0048,-44.4808C140.9007,-40.8196 155.8887,-36.8706 170.195,-33.1013"/>
<polygon fill="#191970" stroke="#191970" points="171.1905,-36.4586 179.9687,-30.5262 169.407,-29.6896 171.1905,-36.4586"/>
</g>
<!-- Node7 -->
<g id="node5" class="node">
<title>Node7</title>
<g id="a_node5"><a xlink:href="classprecice_1_1utils_1_1EventData.html#a4ca585aa2ed87be8bbfd4fc292692684" target="_top" xlink:title="precice::utils::EventData\l::getName">
<polygon fill="#ffffff" stroke="#000000" points="334,-.5 334,-30.5 459,-30.5 459,-.5 334,-.5"/>
<text text-anchor="start" x="342" y="-18.5" font-family="Helvetica,sans-Serif" font-size="10.00" fill="#000000">precice::utils::EventData</text>
<text text-anchor="middle" x="396.5" y="-7.5" font-family="Helvetica,sans-Serif" font-size="10.00" fill="#000000">::getName</text>
</a>
</g>
</g>
<!-- Node6&#45;&gt;Node7 -->
<g id="edge4" class="edge">
<title>Node6&#45;&gt;Node7</title>
<path fill="none" stroke="#191970" d="M298.2107,-15.5C306.5175,-15.5 315.1083,-15.5 323.595,-15.5"/>
<polygon fill="#191970" stroke="#191970" points="323.8692,-19.0001 333.8691,-15.5 323.8691,-12.0001 323.8692,-19.0001"/>
</g>
</g>
</svg>
