<?xml version="1.0" encoding="UTF-8" standalone="no"?>
<!DOCTYPE svg PUBLIC "-//W3C//DTD SVG 1.1//EN"
 "http://www.w3.org/Graphics/SVG/1.1/DTD/svg11.dtd">
<!-- Generated by graphviz version 2.40.1 (20161225.0304)
 -->
<!-- Title: precice::acceleration::BaseQNAcceleration::applyFilter Pages: 1 -->
<!--zoomable 315 -->
<svg id="main" version="1.1" xmlns="http://www.w3.org/2000/svg" xmlns:xlink="http://www.w3.org/1999/xlink" xml:space="preserve" onload="init(evt)">
<style type="text/css"><![CDATA[
.edge:hover path { stroke: red; }
.edge:hover polygon { stroke: red; fill: red; }
]]></style>
<script type="text/javascript"><![CDATA[
var edges = document.getElementsByTagName('g');
if (edges && edges.length) {
  for (var i=0;i<edges.length;i++) {
    if (edges[i].id.substr(0,4)=='edge') {
      edges[i].setAttribute('class','edge');
    }
  }
}
]]></script>
        <defs>
                <circle id="rim" cx="0" cy="0" r="7"/>
                <circle id="rim2" cx="0" cy="0" r="3.5"/>
                <g id="zoomPlus">
                        <use xlink:href="#rim" fill="#404040">
                                <set attributeName="fill" to="#808080" begin="zoomplus.mouseover" end="zoomplus.mouseout"/>
                        </use>
                        <path d="M-4,0h8M0,-4v8" fill="none" stroke="white" stroke-width="1.5" pointer-events="none"/>
                </g>
                <g id="zoomMin">
                        <use xlink:href="#rim" fill="#404040">
                                <set attributeName="fill" to="#808080" begin="zoomminus.mouseover" end="zoomminus.mouseout"/>
                        </use>
                        <path d="M-4,0h8" fill="none" stroke="white" stroke-width="1.5" pointer-events="none"/>
                </g>
                <g id="dirArrow">
                        <path fill="none" stroke="white" stroke-width="1.5" d="M0,-3.0v7 M-2.5,-0.5L0,-3.0L2.5,-0.5"/>
                </g>
               <g id="resetDef">
                       <use xlink:href="#rim2" fill="#404040">
                               <set attributeName="fill" to="#808080" begin="reset.mouseover" end="reset.mouseout"/>
                       </use>
               </g>
        </defs>

<script type="text/javascript">
var viewWidth = 1037;
var viewHeight = 315;
var sectionId = 'dynsection-2';
</script>
<script xlink:href="svgpan.js"/>
<svg id="graph" class="graph">
<g id="viewport">
<title>precice::acceleration::BaseQNAcceleration::applyFilter</title>
<polygon fill="#ffffff" stroke="transparent" points="-4,4 -4,-311 1033,-311 1033,4 -4,4"/>
<!-- Node2 -->
<g id="node1" class="node">
<title>Node2</title>
<polygon fill="#bfbfbf" stroke="#000000" points="0,-202 0,-243 122,-243 122,-202 0,-202"/>
<text text-anchor="start" x="8" y="-231" font-family="Helvetica,sans-Serif" font-size="10.00" fill="#000000">precice::acceleration</text>
<text text-anchor="start" x="8" y="-220" font-family="Helvetica,sans-Serif" font-size="10.00" fill="#000000">::BaseQNAcceleration</text>
<text text-anchor="middle" x="61" y="-209" font-family="Helvetica,sans-Serif" font-size="10.00" fill="#000000">::applyFilter</text>
</g>
<!-- Node3 -->
<g id="node2" class="node">
<title>Node3</title>
<g id="a_node2"><a xlink:href="classprecice_1_1acceleration_1_1impl_1_1QRFactorization.html#a503d02ec1ea2e3d63f27959092e016e3" target="_top" xlink:title="filters the least squares system, i.e., the decomposition Q*R = V according to the defined filter tec...">
<polygon fill="#ffffff" stroke="#000000" points="158.5,-202 158.5,-243 285.5,-243 285.5,-202 158.5,-202"/>
<text text-anchor="start" x="166.5" y="-231" font-family="Helvetica,sans-Serif" font-size="10.00" fill="#000000">precice::acceleration</text>
<text text-anchor="start" x="166.5" y="-220" font-family="Helvetica,sans-Serif" font-size="10.00" fill="#000000">::impl::QRFactorization</text>
<text text-anchor="middle" x="222" y="-209" font-family="Helvetica,sans-Serif" font-size="10.00" fill="#000000">::applyFilter</text>
</a>
</g>
</g>
<!-- Node2&#45;&gt;Node3 -->
<g id="edge1" class="edge">
<title>Node2&#45;&gt;Node3</title>
<path fill="none" stroke="#191970" d="M122.3265,-222.5C130.8214,-222.5 139.6187,-222.5 148.3094,-222.5"/>
<polygon fill="#191970" stroke="#191970" points="148.4381,-226.0001 158.4381,-222.5 148.438,-219.0001 148.4381,-226.0001"/>
</g>
<!-- Node4 -->
<g id="node3" class="node">
<title>Node4</title>
<g id="a_node3"><a xlink:href="classprecice_1_1acceleration_1_1impl_1_1QRFactorization.html#a8a1d26479a03fe3a6f477a19d6fb7d80" target="_top" xlink:title="precice::acceleration\l::impl::QRFactorization::cols">
<polygon fill="#ffffff" stroke="#000000" points="326,-276.5 326,-306.5 478,-306.5 478,-276.5 326,-276.5"/>
<text text-anchor="start" x="334" y="-294.5" font-family="Helvetica,sans-Serif" font-size="10.00" fill="#000000">precice::acceleration</text>
<text text-anchor="middle" x="402" y="-283.5" font-family="Helvetica,sans-Serif" font-size="10.00" fill="#000000">::impl::QRFactorization::cols</text>
</a>
</g>
</g>
<!-- Node2&#45;&gt;Node4 -->
<g id="edge20" class="edge">
<title>Node2&#45;&gt;Node4</title>
<path fill="none" stroke="#191970" d="M122.2178,-242.8679C134.0112,-246.383 146.327,-249.7764 158,-252.5 209.8621,-264.6006 268.8031,-274.1364 315.7619,-280.7493"/>
<polygon fill="#191970" stroke="#191970" points="315.5111,-284.248 325.8977,-282.1577 316.4745,-277.3146 315.5111,-284.248"/>
</g>
<!-- Node15 -->
<g id="node14" class="node">
<title>Node15</title>
<g id="a_node14"><a xlink:href="classprecice_1_1acceleration_1_1BaseQNAcceleration.html#a9aa3dd1560886ab6b15e317396cdc814" target="_top" xlink:title="Removes one iteration from V,W matrices and adapts _matrixCols. ">
<polygon fill="#ffffff" stroke="#000000" points="158,-128 158,-169 286,-169 286,-128 158,-128"/>
<text text-anchor="start" x="166" y="-157" font-family="Helvetica,sans-Serif" font-size="10.00" fill="#000000">precice::acceleration</text>
<text text-anchor="start" x="166" y="-146" font-family="Helvetica,sans-Serif" font-size="10.00" fill="#000000">::BaseQNAcceleration</text>
<text text-anchor="middle" x="222" y="-135" font-family="Helvetica,sans-Serif" font-size="10.00" fill="#000000">::removeMatrixColumn</text>
</a>
</g>
</g>
<!-- Node2&#45;&gt;Node15 -->
<g id="edge18" class="edge">
<title>Node2&#45;&gt;Node15</title>
<path fill="none" stroke="#191970" d="M105.8475,-201.8869C125.2123,-192.9863 148.0265,-182.5003 168.286,-173.1884"/>
<polygon fill="#191970" stroke="#191970" points="169.7685,-176.3591 177.393,-169.0026 166.8451,-169.9987 169.7685,-176.3591"/>
</g>
<!-- Node3&#45;&gt;Node4 -->
<g id="edge2" class="edge">
<title>Node3&#45;&gt;Node4</title>
<path fill="none" stroke="#191970" d="M265.8675,-243.0685C283.1781,-250.8502 303.3518,-259.5085 322,-266.5 328.225,-268.8338 334.7761,-271.1309 341.3387,-273.33"/>
<polygon fill="#191970" stroke="#191970" points="340.3324,-276.6833 350.9251,-276.4747 342.5143,-270.0321 340.3324,-276.6833"/>
</g>
<!-- Node5 -->
<g id="node4" class="node">
<title>Node5</title>
<g id="a_node4"><a xlink:href="classprecice_1_1acceleration_1_1impl_1_1QRFactorization.html#afe9ed35bac0657cd5e3c417e45d22229" target="_top" xlink:title="updates the factorization A=Q[1:n,1:m]R[1:m,1:n] when the kth column of A is deleted. Returns the deleted column v(1:n) ">
<polygon fill="#ffffff" stroke="#000000" points="338.5,-216 338.5,-257 465.5,-257 465.5,-216 338.5,-216"/>
<text text-anchor="start" x="346.5" y="-245" font-family="Helvetica,sans-Serif" font-size="10.00" fill="#000000">precice::acceleration</text>
<text text-anchor="start" x="346.5" y="-234" font-family="Helvetica,sans-Serif" font-size="10.00" fill="#000000">::impl::QRFactorization</text>
<text text-anchor="middle" x="402" y="-223" font-family="Helvetica,sans-Serif" font-size="10.00" fill="#000000">::deleteColumn</text>
</a>
</g>
</g>
<!-- Node3&#45;&gt;Node5 -->
<g id="edge3" class="edge">
<title>Node3&#45;&gt;Node5</title>
<path fill="none" stroke="#191970" d="M285.7146,-227.4556C299.468,-228.5253 314.119,-229.6648 328.2207,-230.7616"/>
<polygon fill="#191970" stroke="#191970" points="328.1297,-234.265 338.371,-231.5511 328.6726,-227.2861 328.1297,-234.265"/>
</g>
<!-- Node8 -->
<g id="node7" class="node">
<title>Node8</title>
<g id="a_node7"><a xlink:href="classprecice_1_1acceleration_1_1impl_1_1QRFactorization.html#a26b961bbfc8c11c20dcd1c419a30aed5" target="_top" xlink:title="inserts a new column at arbitrary position and updates the QR factorization This function works on th...">
<polygon fill="#ffffff" stroke="#000000" points="338.5,-156 338.5,-197 465.5,-197 465.5,-156 338.5,-156"/>
<text text-anchor="start" x="346.5" y="-185" font-family="Helvetica,sans-Serif" font-size="10.00" fill="#000000">precice::acceleration</text>
<text text-anchor="start" x="346.5" y="-174" font-family="Helvetica,sans-Serif" font-size="10.00" fill="#000000">::impl::QRFactorization</text>
<text text-anchor="middle" x="402" y="-163" font-family="Helvetica,sans-Serif" font-size="10.00" fill="#000000">::insertColumn</text>
</a>
</g>
</g>
<!-- Node3&#45;&gt;Node8 -->
<g id="edge6" class="edge">
<title>Node3&#45;&gt;Node8</title>
<path fill="none" stroke="#191970" d="M277.9664,-201.8961C293.9265,-197.3767 311.561,-192.7541 328.4025,-188.6589"/>
<polygon fill="#191970" stroke="#191970" points="329.2968,-192.0438 338.2082,-186.3134 327.6683,-185.2358 329.2968,-192.0438"/>
</g>
<!-- Node6 -->
<g id="node5" class="node">
<title>Node6</title>
<g id="a_node5"><a xlink:href="classprecice_1_1acceleration_1_1impl_1_1QRFactorization.html#a578cba38a6933c05977b041f79686027" target="_top" xlink:title="computes parameters for givens matrix G for which (x,y)G = (z,0). replaces (x,y) by (z...">
<polygon fill="#ffffff" stroke="#000000" points="518,-241 518,-282 645,-282 645,-241 518,-241"/>
<text text-anchor="start" x="526" y="-270" font-family="Helvetica,sans-Serif" font-size="10.00" fill="#000000">precice::acceleration</text>
<text text-anchor="start" x="526" y="-259" font-family="Helvetica,sans-Serif" font-size="10.00" fill="#000000">::impl::QRFactorization</text>
<text text-anchor="middle" x="581.5" y="-248" font-family="Helvetica,sans-Serif" font-size="10.00" fill="#000000">::computeReflector</text>
</a>
</g>
</g>
<!-- Node5&#45;&gt;Node6 -->
<g id="edge4" class="edge">
<title>Node5&#45;&gt;Node6</title>
<path fill="none" stroke="#191970" d="M465.5376,-245.3492C479.1716,-247.2481 493.6903,-249.2702 507.6759,-251.2181"/>
<polygon fill="#191970" stroke="#191970" points="507.3579,-254.7075 517.7452,-252.6205 508.3236,-247.7744 507.3579,-254.7075"/>
</g>
<!-- Node7 -->
<g id="node6" class="node">
<title>Node7</title>
<g id="a_node6"><a xlink:href="classprecice_1_1acceleration_1_1impl_1_1QRFactorization.html#ad884293e8b5217e714e662acbc14f05b" target="_top" xlink:title="this procedure replaces the two column matrix [p(k:l&#45;1), q(k:l&#45;1)] by [p(k:l), q(k:l)]*G, where G is the Givens matrix grot, determined by sigma and gamma. ">
<polygon fill="#ffffff" stroke="#000000" points="518,-181 518,-222 645,-222 645,-181 518,-181"/>
<text text-anchor="start" x="526" y="-210" font-family="Helvetica,sans-Serif" font-size="10.00" fill="#000000">precice::acceleration</text>
<text text-anchor="start" x="526" y="-199" font-family="Helvetica,sans-Serif" font-size="10.00" fill="#000000">::impl::QRFactorization</text>
<text text-anchor="middle" x="581.5" y="-188" font-family="Helvetica,sans-Serif" font-size="10.00" fill="#000000">::applyReflector</text>
</a>
</g>
</g>
<!-- Node5&#45;&gt;Node7 -->
<g id="edge5" class="edge">
<title>Node5&#45;&gt;Node7</title>
<path fill="none" stroke="#191970" d="M465.5376,-224.1111C479.1716,-221.4526 493.6903,-218.6217 507.6759,-215.8947"/>
<polygon fill="#191970" stroke="#191970" points="508.5999,-219.2805 517.7452,-213.9313 507.2601,-212.4099 508.5999,-219.2805"/>
</g>
<!-- Node8&#45;&gt;Node3 -->
<g id="edge7" class="edge">
<title>Node8&#45;&gt;Node3</title>
<path fill="none" stroke="#191970" d="M346.1484,-197.0713C330.1436,-201.6053 312.4471,-206.2446 295.5512,-210.3524"/>
<polygon fill="#191970" stroke="#191970" points="294.6263,-206.9748 285.7146,-212.7047 296.2544,-213.7828 294.6263,-206.9748"/>
</g>
<!-- Node8&#45;&gt;Node6 -->
<g id="edge16" class="edge">
<title>Node8&#45;&gt;Node6</title>
<path fill="none" stroke="#191970" d="M461.7027,-197.0037C468.6588,-199.943 475.5627,-203.1251 482,-206.5 499.2524,-215.545 501.1357,-221.7505 518,-231.5 520.7973,-233.1171 523.6958,-234.7209 526.6448,-236.2968"/>
<polygon fill="#191970" stroke="#191970" points="525.1018,-239.4392 535.5917,-240.9263 528.3187,-233.2221 525.1018,-239.4392"/>
</g>
<!-- Node8&#45;&gt;Node7 -->
<g id="edge17" class="edge">
<title>Node8&#45;&gt;Node7</title>
<path fill="none" stroke="#191970" d="M465.5376,-185.3492C479.1716,-187.2481 493.6903,-189.2702 507.6759,-191.2181"/>
<polygon fill="#191970" stroke="#191970" points="507.3579,-194.7075 517.7452,-192.6205 508.3236,-187.7744 507.3579,-194.7075"/>
</g>
<!-- Node9 -->
<g id="node8" class="node">
<title>Node9</title>
<g id="a_node8"><a xlink:href="classprecice_1_1utils_1_1MasterSlave.html#afe25fce87eaede8702580df7aa2d4d25" target="_top" xlink:title="The l2 norm of a vector is calculated on distributed data. ">
<polygon fill="#ffffff" stroke="#000000" points="692,-137.5 692,-167.5 837,-167.5 837,-137.5 692,-137.5"/>
<text text-anchor="start" x="700" y="-155.5" font-family="Helvetica,sans-Serif" font-size="10.00" fill="#000000">precice::utils::MasterSlave</text>
<text text-anchor="middle" x="764.5" y="-144.5" font-family="Helvetica,sans-Serif" font-size="10.00" fill="#000000">::l2norm</text>
</a>
</g>
</g>
<!-- Node8&#45;&gt;Node9 -->
<g id="edge8" class="edge">
<title>Node8&#45;&gt;Node9</title>
<path fill="none" stroke="#191970" d="M465.5575,-172.2921C525.5967,-168.317 615.9906,-162.3323 681.6556,-157.9849"/>
<polygon fill="#191970" stroke="#191970" points="682.2267,-161.4548 691.9736,-157.3017 681.7642,-154.4701 682.2267,-161.4548"/>
</g>
<!-- Node11 -->
<g id="node10" class="node">
<title>Node11</title>
<g id="a_node10"><a xlink:href="classprecice_1_1acceleration_1_1impl_1_1QRFactorization.html#a2cd325b18076ac5703d0d7db81ed4db9" target="_top" xlink:title="assuming Q(1:n,1:m) has nearly orthonormal columns, this procedure orthogonlizes v(1:n) to the column...">
<polygon fill="#ffffff" stroke="#000000" points="518,-83 518,-124 645,-124 645,-83 518,-83"/>
<text text-anchor="start" x="526" y="-112" font-family="Helvetica,sans-Serif" font-size="10.00" fill="#000000">precice::acceleration</text>
<text text-anchor="start" x="526" y="-101" font-family="Helvetica,sans-Serif" font-size="10.00" fill="#000000">::impl::QRFactorization</text>
<text text-anchor="middle" x="581.5" y="-90" font-family="Helvetica,sans-Serif" font-size="10.00" fill="#000000">::orthogonalize</text>
</a>
</g>
</g>
<!-- Node8&#45;&gt;Node11 -->
<g id="edge10" class="edge">
<title>Node8&#45;&gt;Node11</title>
<path fill="none" stroke="#191970" d="M458.0844,-155.8675C466.1347,-152.7901 474.2962,-149.6069 482,-146.5 496.3165,-140.7262 511.6745,-134.2375 525.9366,-128.0848"/>
<polygon fill="#191970" stroke="#191970" points="527.345,-131.2891 535.1285,-124.1011 524.5613,-124.8663 527.345,-131.2891"/>
</g>
<!-- Node10 -->
<g id="node9" class="node">
<title>Node10</title>
<g id="a_node9"><a xlink:href="classprecice_1_1utils_1_1MasterSlave.html#a5495a21e8779643af56152273c123ae2" target="_top" xlink:title="precice::utils::MasterSlave\l::allreduceSum">
<polygon fill="#ffffff" stroke="#000000" points="884,-115.5 884,-145.5 1029,-145.5 1029,-115.5 884,-115.5"/>
<text text-anchor="start" x="892" y="-133.5" font-family="Helvetica,sans-Serif" font-size="10.00" fill="#000000">precice::utils::MasterSlave</text>
<text text-anchor="middle" x="956.5" y="-122.5" font-family="Helvetica,sans-Serif" font-size="10.00" fill="#000000">::allreduceSum</text>
</a>
</g>
</g>
<!-- Node9&#45;&gt;Node10 -->
<g id="edge9" class="edge">
<title>Node9&#45;&gt;Node10</title>
<path fill="none" stroke="#191970" d="M837.087,-144.1827C849.0337,-142.8138 861.4957,-141.3859 873.6696,-139.991"/>
<polygon fill="#191970" stroke="#191970" points="874.2739,-143.4447 883.8104,-138.829 873.4769,-136.4902 874.2739,-143.4447"/>
</g>
<!-- Node11&#45;&gt;Node9 -->
<g id="edge13" class="edge">
<title>Node11&#45;&gt;Node9</title>
<path fill="none" stroke="#191970" d="M645.2476,-120.569C662.4071,-125.1636 681.0048,-130.1434 698.2948,-134.7729"/>
<polygon fill="#191970" stroke="#191970" points="697.738,-138.2471 708.3031,-137.4527 699.5486,-131.4853 697.738,-138.2471"/>
</g>
<!-- Node12 -->
<g id="node11" class="node">
<title>Node12</title>
<g id="a_node11"><a xlink:href="classprecice_1_1utils_1_1MasterSlave.html#a5e934392c32335daa8e2b4a01bc75fd3" target="_top" xlink:title="True if this process is running the master. ">
<polygon fill="#ffffff" stroke="#000000" points="692,-49.5 692,-79.5 837,-79.5 837,-49.5 692,-49.5"/>
<text text-anchor="start" x="700" y="-67.5" font-family="Helvetica,sans-Serif" font-size="10.00" fill="#000000">precice::utils::MasterSlave</text>
<text text-anchor="middle" x="764.5" y="-56.5" font-family="Helvetica,sans-Serif" font-size="10.00" fill="#000000">::isMaster</text>
</a>
</g>
</g>
<!-- Node11&#45;&gt;Node12 -->
<g id="edge11" class="edge">
<title>Node11&#45;&gt;Node12</title>
<path fill="none" stroke="#191970" d="M645.2476,-89.9144C657.8241,-87.2342 671.1731,-84.3893 684.2137,-81.6102"/>
<polygon fill="#191970" stroke="#191970" points="685.057,-85.0092 694.1078,-79.5016 683.5979,-78.1629 685.057,-85.0092"/>
</g>
<!-- Node13 -->
<g id="node12" class="node">
<title>Node13</title>
<g id="a_node12"><a xlink:href="classprecice_1_1utils_1_1MasterSlave.html#a3837ad42361b53d7e930443ba07a9eb5" target="_top" xlink:title="True if this process is running a slave. ">
<polygon fill="#ffffff" stroke="#000000" points="692,-.5 692,-30.5 837,-30.5 837,-.5 692,-.5"/>
<text text-anchor="start" x="700" y="-18.5" font-family="Helvetica,sans-Serif" font-size="10.00" fill="#000000">precice::utils::MasterSlave</text>
<text text-anchor="middle" x="764.5" y="-7.5" font-family="Helvetica,sans-Serif" font-size="10.00" fill="#000000">::isSlave</text>
</a>
</g>
</g>
<!-- Node11&#45;&gt;Node13 -->
<g id="edge12" class="edge">
<title>Node11&#45;&gt;Node13</title>
<path fill="none" stroke="#191970" d="M608.9782,-82.7036C628.2892,-68.889 655.186,-51.2059 681,-39.5 685.3229,-37.5397 689.8447,-35.6987 694.4512,-33.9773"/>
<polygon fill="#191970" stroke="#191970" points="695.7236,-37.2399 703.9892,-30.6118 693.3943,-30.6388 695.7236,-37.2399"/>
</g>
<!-- Node14 -->
<g id="node13" class="node">
<title>Node14</title>
<g id="a_node13"><a xlink:href="classprecice_1_1utils_1_1MasterSlave.html#a441fadb15cda8247ff6f8f586941f3aa" target="_top" xlink:title="precice::utils::MasterSlave::dot">
<polygon fill="#ffffff" stroke="#000000" points="681,-99 681,-118 848,-118 848,-99 681,-99"/>
<text text-anchor="middle" x="764.5" y="-106" font-family="Helvetica,sans-Serif" font-size="10.00" fill="#000000">precice::utils::MasterSlave::dot</text>
</a>
</g>
</g>
<!-- Node11&#45;&gt;Node14 -->
<g id="edge14" class="edge">
<title>Node11&#45;&gt;Node14</title>
<path fill="none" stroke="#191970" d="M645.2476,-105.2417C653.4772,-105.4666 662.0376,-105.7005 670.6259,-105.9351"/>
<polygon fill="#191970" stroke="#191970" points="670.6106,-109.4359 680.7025,-106.2104 670.8018,-102.4385 670.6106,-109.4359"/>
</g>
<!-- Node14&#45;&gt;Node10 -->
<g id="edge15" class="edge">
<title>Node14&#45;&gt;Node10</title>
<path fill="none" stroke="#191970" d="M847.5973,-118.0216C856.2657,-119.0148 865.0771,-120.0245 873.7418,-121.0173"/>
<polygon fill="#191970" stroke="#191970" points="873.4951,-124.5118 883.8286,-122.1731 874.292,-117.5573 873.4951,-124.5118"/>
</g>
<!-- Node16 -->
<g id="node15" class="node">
<title>Node16</title>
<g id="a_node15"><a xlink:href="namespaceprecice_1_1utils.html#a0b9acdd5db07c6b42d9e999e112db8b8" target="_top" xlink:title="precice::utils::removeColumn\lFromMatrix">
<polygon fill="#ffffff" stroke="#000000" points="322,-106.5 322,-136.5 482,-136.5 482,-106.5 322,-106.5"/>
<text text-anchor="start" x="330" y="-124.5" font-family="Helvetica,sans-Serif" font-size="10.00" fill="#000000">precice::utils::removeColumn</text>
<text text-anchor="middle" x="402" y="-113.5" font-family="Helvetica,sans-Serif" font-size="10.00" fill="#000000">FromMatrix</text>
</a>
</g>
</g>
<!-- Node15&#45;&gt;Node16 -->
<g id="edge19" class="edge">
<title>Node15&#45;&gt;Node16</title>
<path fill="none" stroke="#191970" d="M286.2218,-138.8667C294.4945,-137.6258 303.0846,-136.3373 311.6786,-135.0482"/>
<polygon fill="#191970" stroke="#191970" points="312.38,-138.4822 321.7501,-133.5375 311.3416,-131.5597 312.38,-138.4822"/>
</g>
</g>
</svg>
        <g id="navigator" transform="translate(0 0)" fill="#404254">
                <rect fill="#f2f5e9" fill-opacity="0.5" stroke="#606060" stroke-width=".5" x="0" y="0" width="60" height="60"/>
                <use id="zoomplus" xlink:href="#zoomPlus" x="17" y="9" onmousedown="handleZoom(evt,'in')"/>
                <use id="zoomminus" xlink:href="#zoomMin" x="42" y="9" onmousedown="handleZoom(evt,'out')"/>
                <use id="reset" xlink:href="#resetDef" x="30" y="36" onmousedown="handleReset()"/>
                <g id="arrowUp" xlink:href="#dirArrow" transform="translate(30 24)" onmousedown="handlePan(0,-1)">
                  <use xlink:href="#rim" fill="#404040">
                        <set attributeName="fill" to="#808080" begin="arrowUp.mouseover" end="arrowUp.mouseout"/>
                  </use>
                  <path fill="none" stroke="white" stroke-width="1.5" d="M0,-3.0v7 M-2.5,-0.5L0,-3.0L2.5,-0.5"/>
                </g>
                <g id="arrowRight" xlink:href="#dirArrow" transform="rotate(90) translate(36 -43)" onmousedown="handlePan(1,0)">
                  <use xlink:href="#rim" fill="#404040">
                        <set attributeName="fill" to="#808080" begin="arrowRight.mouseover" end="arrowRight.mouseout"/>
                  </use>
                  <path fill="none" stroke="white" stroke-width="1.5" d="M0,-3.0v7 M-2.5,-0.5L0,-3.0L2.5,-0.5"/>
                </g>
                <g id="arrowDown" xlink:href="#dirArrow" transform="rotate(180) translate(-30 -48)" onmousedown="handlePan(0,1)">
                  <use xlink:href="#rim" fill="#404040">
                        <set attributeName="fill" to="#808080" begin="arrowDown.mouseover" end="arrowDown.mouseout"/>
                  </use>
                  <path fill="none" stroke="white" stroke-width="1.5" d="M0,-3.0v7 M-2.5,-0.5L0,-3.0L2.5,-0.5"/>
                </g>
                <g id="arrowLeft" xlink:href="#dirArrow" transform="rotate(270) translate(-36 17)" onmousedown="handlePan(-1,0)">
                  <use xlink:href="#rim" fill="#404040">
                        <set attributeName="fill" to="#808080" begin="arrowLeft.mouseover" end="arrowLeft.mouseout"/>
                  </use>
                  <path fill="none" stroke="white" stroke-width="1.5" d="M0,-3.0v7 M-2.5,-0.5L0,-3.0L2.5,-0.5"/>
                </g>
        </g>
        <svg viewBox="0 0 15 15" width="100%" height="30px" preserveAspectRatio="xMaxYMin meet">
         <g id="arrow_out" transform="scale(0.3 0.3)">
          <a xlink:href="classprecice_1_1acceleration_1_1BaseQNAcceleration_a3e23afa5b5496a0d74c1d322dd947522_cgraph_org.svg" target="_base">
           <rect id="button" ry="5" rx="5" y="6" x="6" height="38" width="38"
                fill="#f2f5e9" fill-opacity="0.5" stroke="#606060" stroke-width="1.0"/>
           <path id="arrow"
             d="M 11.500037,31.436501 C 11.940474,20.09759 22.043105,11.32322 32.158766,21.979434 L 37.068811,17.246167 C 37.068811,17.246167 37.088388,32 37.088388,32 L 22.160133,31.978069 C 22.160133,31.978069 26.997745,27.140456 26.997745,27.140456 C 18.528582,18.264221 13.291696,25.230495 11.500037,31.436501 z"
             style="fill:#404040;"/>
          </a>
         </g>
        </svg>
</svg>
