<?xml version="1.0" encoding="UTF-8" standalone="no"?>
<!DOCTYPE svg PUBLIC "-//W3C//DTD SVG 1.1//EN"
 "http://www.w3.org/Graphics/SVG/1.1/DTD/svg11.dtd">
<!-- Generated by graphviz version 2.40.1 (20161225.0304)
 -->
<!-- Title: precice::m2n::GatherScatterCommunication Pages: 1 -->
<svg width="318pt" height="363pt"
 viewBox="0.00 0.00 318.00 363.00" xmlns="http://www.w3.org/2000/svg" xmlns:xlink="http://www.w3.org/1999/xlink">
<g id="graph0" class="graph" transform="scale(1 1) rotate(0) translate(4 359)">
<title>precice::m2n::GatherScatterCommunication</title>
<polygon fill="#ffffff" stroke="transparent" points="-4,4 -4,-359 314,-359 314,4 -4,4"/>
<!-- Node2 -->
<g id="node1" class="node">
<title>Node2</title>
<polygon fill="#bfbfbf" stroke="#000000" points="9.5,-.5 9.5,-30.5 162.5,-30.5 162.5,-.5 9.5,-.5"/>
<text text-anchor="start" x="17.5" y="-18.5" font-family="Helvetica,sans-Serif" font-size="10.00" fill="#000000">precice::m2n::GatherScatter</text>
<text text-anchor="middle" x="86" y="-7.5" font-family="Helvetica,sans-Serif" font-size="10.00" fill="#000000">Communication</text>
</g>
<!-- Node3 -->
<g id="node2" class="node">
<title>Node3</title>
<g id="a_node2"><a xlink:href="classprecice_1_1m2n_1_1DistributedCommunication.html" target="_top" xlink:title="Interface for all distributed solver to solver communication classes. ">
<polygon fill="#ffffff" stroke="#000000" points="0,-78.5 0,-108.5 140,-108.5 140,-78.5 0,-78.5"/>
<text text-anchor="start" x="8" y="-96.5" font-family="Helvetica,sans-Serif" font-size="10.00" fill="#000000">precice::m2n::Distributed</text>
<text text-anchor="middle" x="70" y="-85.5" font-family="Helvetica,sans-Serif" font-size="10.00" fill="#000000">Communication</text>
</a>
</g>
</g>
<!-- Node3&#45;&gt;Node2 -->
<g id="edge1" class="edge">
<title>Node3&#45;&gt;Node2</title>
<path fill="none" stroke="#191970" d="M75.0951,-68.6616C77.6489,-56.2119 80.6597,-41.5342 82.8699,-30.7592"/>
<polygon fill="#191970" stroke="#191970" points="71.6659,-67.9615 73.085,-78.4608 78.5231,-69.3681 71.6659,-67.9615"/>
</g>
<!-- Node4 -->
<g id="node3" class="node">
<title>Node4</title>
<g id="a_node3"><a xlink:href="classprecice_1_1logging_1_1Logger.html" target="_top" xlink:title="This class provides a leightweight logger. ">
<polygon fill="#ffffff" stroke="#000000" points="158.5,-84 158.5,-103 291.5,-103 291.5,-84 158.5,-84"/>
<text text-anchor="middle" x="225" y="-91" font-family="Helvetica,sans-Serif" font-size="10.00" fill="#000000">precice::logging::Logger</text>
</a>
</g>
</g>
<!-- Node4&#45;&gt;Node2 -->
<g id="edge2" class="edge">
<title>Node4&#45;&gt;Node2</title>
<path fill="none" stroke="#9a32cd" stroke-dasharray="5,2" d="M199.2005,-79.0226C174.6626,-65.2531 137.8953,-44.6211 112.9757,-30.6375"/>
<polygon fill="#9a32cd" stroke="#9a32cd" points="197.5223,-82.0942 207.9559,-83.9357 200.9479,-75.9897 197.5223,-82.0942"/>
<text text-anchor="middle" x="175" y="-52" font-family="Helvetica,sans-Serif" font-size="10.00" fill="#000000"> _log</text>
</g>
<!-- Node5 -->
<g id="node4" class="node">
<title>Node5</title>
<polygon fill="#ffffff" stroke="#bfbfbf" points="140,-156.5 140,-186.5 310,-186.5 310,-156.5 140,-156.5"/>
<text text-anchor="start" x="148" y="-174.5" font-family="Helvetica,sans-Serif" font-size="10.00" fill="#000000">std::unique_ptr&lt; precice</text>
<text text-anchor="middle" x="225" y="-163.5" font-family="Helvetica,sans-Serif" font-size="10.00" fill="#000000">::logging::Logger::LoggerImpl &gt;</text>
</g>
<!-- Node5&#45;&gt;Node4 -->
<g id="edge3" class="edge">
<title>Node5&#45;&gt;Node4</title>
<path fill="none" stroke="#9a32cd" stroke-dasharray="5,2" d="M225,-146.3962C225,-131.6331 225,-113.8138 225,-103.0839"/>
<polygon fill="#9a32cd" stroke="#9a32cd" points="221.5001,-146.4608 225,-156.4608 228.5001,-146.4609 221.5001,-146.4608"/>
<text text-anchor="middle" x="240.5" y="-130" font-family="Helvetica,sans-Serif" font-size="10.00" fill="#000000"> _impl</text>
</g>
<!-- Node6 -->
<g id="node5" class="node">
<title>Node6</title>
<g id="a_node5"><a xlink:href="classprecice_1_1logging_1_1Logger_1_1LoggerImpl.html" target="_top" xlink:title="precice::logging::Logger\l::LoggerImpl">
<polygon fill="#ffffff" stroke="#000000" points="158.5,-234.5 158.5,-264.5 291.5,-264.5 291.5,-234.5 158.5,-234.5"/>
<text text-anchor="start" x="166.5" y="-252.5" font-family="Helvetica,sans-Serif" font-size="10.00" fill="#000000">precice::logging::Logger</text>
<text text-anchor="middle" x="225" y="-241.5" font-family="Helvetica,sans-Serif" font-size="10.00" fill="#000000">::LoggerImpl</text>
</a>
</g>
</g>
<!-- Node6&#45;&gt;Node5 -->
<g id="edge4" class="edge">
<title>Node6&#45;&gt;Node5</title>
<path fill="none" stroke="#9a32cd" stroke-dasharray="5,2" d="M225,-224.2875C225,-211.9187 225,-197.4264 225,-186.7592"/>
<polygon fill="#9a32cd" stroke="#9a32cd" points="221.5001,-224.4608 225,-234.4608 228.5001,-224.4608 221.5001,-224.4608"/>
<text text-anchor="middle" x="233.5" y="-208" font-family="Helvetica,sans-Serif" font-size="10.00" fill="#000000"> ptr</text>
</g>
<!-- Node7 -->
<g id="node6" class="node">
<title>Node7</title>
<polygon fill="#ffffff" stroke="#bfbfbf" points="156.5,-302.5 156.5,-354.5 293.5,-354.5 293.5,-302.5 156.5,-302.5"/>
<text text-anchor="start" x="164.5" y="-342.5" font-family="Helvetica,sans-Serif" font-size="10.00" fill="#000000">boost::log::sources</text>
<text text-anchor="start" x="164.5" y="-331.5" font-family="Helvetica,sans-Serif" font-size="10.00" fill="#000000">::severity_logger&lt; boost</text>
<text text-anchor="start" x="164.5" y="-320.5" font-family="Helvetica,sans-Serif" font-size="10.00" fill="#000000">::log::trivial::severity</text>
<text text-anchor="middle" x="225" y="-309.5" font-family="Helvetica,sans-Serif" font-size="10.00" fill="#000000">_level &gt;</text>
</g>
<!-- Node7&#45;&gt;Node6 -->
<g id="edge5" class="edge">
<title>Node7&#45;&gt;Node6</title>
<path fill="none" stroke="#191970" d="M225,-292.0152C225,-282.4501 225,-272.648 225,-264.8696"/>
<polygon fill="#191970" stroke="#191970" points="221.5001,-292.1941 225,-302.1941 228.5001,-292.1942 221.5001,-292.1941"/>
</g>
</g>
</svg>
