<?xml version="1.0" encoding="UTF-8" standalone="no"?>
<!DOCTYPE svg PUBLIC "-//W3C//DTD SVG 1.1//EN"
 "http://www.w3.org/Graphics/SVG/1.1/DTD/svg11.dtd">
<!-- Generated by graphviz version 2.40.1 (20161225.0304)
 -->
<!-- Title: precice::acceleration::IQNILSAcceleration Pages: 1 -->
<svg width="130pt" height="173pt"
 viewBox="0.00 0.00 130.00 173.00" xmlns="http://www.w3.org/2000/svg" xmlns:xlink="http://www.w3.org/1999/xlink">
<g id="graph0" class="graph" transform="scale(1 1) rotate(0) translate(4 169)">
<title>precice::acceleration::IQNILSAcceleration</title>
<polygon fill="#ffffff" stroke="transparent" points="-4,4 -4,-169 126,-169 126,4 -4,4"/>
<!-- Node0 -->
<g id="node1" class="node">
<title>Node0</title>
<polygon fill="#bfbfbf" stroke="#000000" points="2,-.5 2,-30.5 120,-30.5 120,-.5 2,-.5"/>
<text text-anchor="start" x="10" y="-18.5" font-family="Helvetica,sans-Serif" font-size="10.00" fill="#000000">precice::acceleration</text>
<text text-anchor="middle" x="61" y="-7.5" font-family="Helvetica,sans-Serif" font-size="10.00" fill="#000000">::IQNILSAcceleration</text>
</g>
<!-- Node1 -->
<g id="node2" class="node">
<title>Node1</title>
<g id="a_node2"><a xlink:href="classprecice_1_1acceleration_1_1BaseQNAcceleration.html" target="_top" xlink:title="Base Class for quasi&#45;Newton acceleration schemes. ">
<polygon fill="#ffffff" stroke="#000000" points="0,-67.5 0,-97.5 122,-97.5 122,-67.5 0,-67.5"/>
<text text-anchor="start" x="8" y="-85.5" font-family="Helvetica,sans-Serif" font-size="10.00" fill="#000000">precice::acceleration</text>
<text text-anchor="middle" x="61" y="-74.5" font-family="Helvetica,sans-Serif" font-size="10.00" fill="#000000">::BaseQNAcceleration</text>
</a>
</g>
</g>
<!-- Node1&#45;&gt;Node0 -->
<g id="edge1" class="edge">
<title>Node1&#45;&gt;Node0</title>
<path fill="none" stroke="#191970" d="M61,-57.0249C61,-48.128 61,-38.4287 61,-30.6432"/>
<polygon fill="#191970" stroke="#191970" points="57.5001,-57.2966 61,-67.2967 64.5001,-57.2967 57.5001,-57.2966"/>
</g>
<!-- Node2 -->
<g id="node3" class="node">
<title>Node2</title>
<g id="a_node3"><a xlink:href="classprecice_1_1acceleration_1_1Acceleration.html" target="_top" xlink:title="precice::acceleration\l::Acceleration">
<polygon fill="#ffffff" stroke="#000000" points="2,-134.5 2,-164.5 120,-164.5 120,-134.5 2,-134.5"/>
<text text-anchor="start" x="10" y="-152.5" font-family="Helvetica,sans-Serif" font-size="10.00" fill="#000000">precice::acceleration</text>
<text text-anchor="middle" x="61" y="-141.5" font-family="Helvetica,sans-Serif" font-size="10.00" fill="#000000">::Acceleration</text>
</a>
</g>
</g>
<!-- Node2&#45;&gt;Node1 -->
<g id="edge2" class="edge">
<title>Node2&#45;&gt;Node1</title>
<path fill="none" stroke="#191970" d="M61,-124.0249C61,-115.128 61,-105.4287 61,-97.6432"/>
<polygon fill="#191970" stroke="#191970" points="57.5001,-124.2966 61,-134.2967 64.5001,-124.2967 57.5001,-124.2966"/>
</g>
</g>
</svg>
