<?xml version="1.0" encoding="UTF-8" standalone="no"?>
<!DOCTYPE svg PUBLIC "-//W3C//DTD SVG 1.1//EN"
 "http://www.w3.org/Graphics/SVG/1.1/DTD/svg11.dtd">
<!-- Generated by graphviz version 2.40.1 (20161225.0304)
 -->
<!-- Title: precice::acceleration::impl::ParallelMatrixOperations::multiply Pages: 1 -->
<svg width="330pt" height="137pt"
 viewBox="0.00 0.00 330.00 137.00" xmlns="http://www.w3.org/2000/svg" xmlns:xlink="http://www.w3.org/1999/xlink">
<g id="graph0" class="graph" transform="scale(1 1) rotate(0) translate(4 133)">
<title>precice::acceleration::impl::ParallelMatrixOperations::multiply</title>
<polygon fill="#ffffff" stroke="transparent" points="-4,4 -4,-133 326,-133 326,4 -4,4"/>
<!-- Node39 -->
<g id="node1" class="node">
<title>Node39</title>
<polygon fill="#bfbfbf" stroke="#000000" points="0,-44 0,-85 153,-85 153,-44 0,-44"/>
<text text-anchor="start" x="8" y="-73" font-family="Helvetica,sans-Serif" font-size="10.00" fill="#000000">precice::acceleration</text>
<text text-anchor="start" x="8" y="-62" font-family="Helvetica,sans-Serif" font-size="10.00" fill="#000000">::impl::ParallelMatrixOperations</text>
<text text-anchor="middle" x="76.5" y="-51" font-family="Helvetica,sans-Serif" font-size="10.00" fill="#000000">::multiply</text>
</g>
<!-- Node40 -->
<g id="node2" class="node">
<title>Node40</title>
<g id="a_node2"><a xlink:href="classprecice_1_1utils_1_1MasterSlave.html#a5e934392c32335daa8e2b4a01bc75fd3" target="_top" xlink:title="True if this process is running the master. ">
<polygon fill="#ffffff" stroke="#000000" points="189,-98.5 189,-128.5 322,-128.5 322,-98.5 189,-98.5"/>
<text text-anchor="start" x="197" y="-116.5" font-family="Helvetica,sans-Serif" font-size="10.00" fill="#000000">precice::utils::MasterSlave</text>
<text text-anchor="middle" x="255.5" y="-105.5" font-family="Helvetica,sans-Serif" font-size="10.00" fill="#000000">::isMaster</text>
</a>
</g>
</g>
<!-- Node39&#45;&gt;Node40 -->
<g id="edge1" class="edge">
<title>Node39&#45;&gt;Node40</title>
<path fill="none" stroke="#191970" d="M151.6341,-85.0674C164.6189,-88.6219 178.0179,-92.2898 190.6992,-95.7612"/>
<polygon fill="#191970" stroke="#191970" points="190.1246,-99.2326 200.6939,-98.4972 191.9728,-92.481 190.1246,-99.2326"/>
</g>
<!-- Node41 -->
<g id="node3" class="node">
<title>Node41</title>
<g id="a_node3"><a xlink:href="classprecice_1_1utils_1_1MasterSlave.html#a3837ad42361b53d7e930443ba07a9eb5" target="_top" xlink:title="True if this process is running a slave. ">
<polygon fill="#ffffff" stroke="#000000" points="189,-49.5 189,-79.5 322,-79.5 322,-49.5 189,-49.5"/>
<text text-anchor="start" x="197" y="-67.5" font-family="Helvetica,sans-Serif" font-size="10.00" fill="#000000">precice::utils::MasterSlave</text>
<text text-anchor="middle" x="255.5" y="-56.5" font-family="Helvetica,sans-Serif" font-size="10.00" fill="#000000">::isSlave</text>
</a>
</g>
</g>
<!-- Node39&#45;&gt;Node41 -->
<g id="edge2" class="edge">
<title>Node39&#45;&gt;Node41</title>
<path fill="none" stroke="#191970" d="M153.1911,-64.5C161.6237,-64.5 170.2112,-64.5 178.6458,-64.5"/>
<polygon fill="#191970" stroke="#191970" points="178.8376,-68.0001 188.8376,-64.5 178.8375,-61.0001 178.8376,-68.0001"/>
</g>
<!-- Node42 -->
<g id="node4" class="node">
<title>Node42</title>
<g id="a_node4"><a xlink:href="classprecice_1_1utils_1_1MasterSlave.html#a5495a21e8779643af56152273c123ae2" target="_top" xlink:title="precice::utils::MasterSlave\l::allreduceSum">
<polygon fill="#ffffff" stroke="#000000" points="189,-.5 189,-30.5 322,-30.5 322,-.5 189,-.5"/>
<text text-anchor="start" x="197" y="-18.5" font-family="Helvetica,sans-Serif" font-size="10.00" fill="#000000">precice::utils::MasterSlave</text>
<text text-anchor="middle" x="255.5" y="-7.5" font-family="Helvetica,sans-Serif" font-size="10.00" fill="#000000">::allreduceSum</text>
</a>
</g>
</g>
<!-- Node39&#45;&gt;Node42 -->
<g id="edge3" class="edge">
<title>Node39&#45;&gt;Node42</title>
<path fill="none" stroke="#191970" d="M151.6341,-43.9326C164.6189,-40.3781 178.0179,-36.7102 190.6992,-33.2388"/>
<polygon fill="#191970" stroke="#191970" points="191.9728,-36.519 200.6939,-30.5028 190.1246,-29.7674 191.9728,-36.519"/>
</g>
</g>
</svg>
