<?xml version="1.0" encoding="UTF-8" standalone="no"?>
<!DOCTYPE svg PUBLIC "-//W3C//DTD SVG 1.1//EN"
 "http://www.w3.org/Graphics/SVG/1.1/DTD/svg11.dtd">
<!-- Generated by graphviz version 2.40.1 (20161225.0304)
 -->
<!-- Title: precice::acceleration::AitkenAcceleration::initialize Pages: 1 -->
<svg width="499pt" height="100pt"
 viewBox="0.00 0.00 499.00 99.50" xmlns="http://www.w3.org/2000/svg" xmlns:xlink="http://www.w3.org/1999/xlink">
<g id="graph0" class="graph" transform="scale(1 1) rotate(0) translate(4 95.5)">
<title>precice::acceleration::AitkenAcceleration::initialize</title>
<polygon fill="#ffffff" stroke="transparent" points="-4,4 -4,-95.5 495,-95.5 495,4 -4,4"/>
<!-- Node14 -->
<g id="node1" class="node">
<title>Node14</title>
<polygon fill="#bfbfbf" stroke="#000000" points="0,-11.5 0,-52.5 118,-52.5 118,-11.5 0,-11.5"/>
<text text-anchor="start" x="8" y="-40.5" font-family="Helvetica,sans-Serif" font-size="10.00" fill="#000000">precice::acceleration</text>
<text text-anchor="start" x="8" y="-29.5" font-family="Helvetica,sans-Serif" font-size="10.00" fill="#000000">::AitkenAcceleration</text>
<text text-anchor="middle" x="59" y="-18.5" font-family="Helvetica,sans-Serif" font-size="10.00" fill="#000000">::initialize</text>
</g>
<!-- Node15 -->
<g id="node2" class="node">
<title>Node15</title>
<g id="a_node2"><a xlink:href="classprecice_1_1acceleration_1_1Acceleration.html#a3dcd51bdc9d092fa639077056493b76c" target="_top" xlink:title="Checks if all dataIDs are contained in cplData. ">
<polygon fill="#ffffff" stroke="#000000" points="154,-39 154,-69 311,-69 311,-39 154,-39"/>
<text text-anchor="start" x="162" y="-57" font-family="Helvetica,sans-Serif" font-size="10.00" fill="#000000">precice::acceleration</text>
<text text-anchor="middle" x="232.5" y="-46" font-family="Helvetica,sans-Serif" font-size="10.00" fill="#000000">::Acceleration::checkDataIDs</text>
</a>
</g>
</g>
<!-- Node14&#45;&gt;Node15 -->
<g id="edge1" class="edge">
<title>Node14&#45;&gt;Node15</title>
<path fill="none" stroke="#191970" d="M118.2236,-39.5096C126.4788,-40.5564 135.1051,-41.6502 143.7578,-42.7474"/>
<polygon fill="#191970" stroke="#191970" points="143.546,-46.2485 153.9068,-44.0343 144.4266,-39.3041 143.546,-46.2485"/>
</g>
<!-- Node18 -->
<g id="node5" class="node">
<title>Node18</title>
<g id="a_node5"><a xlink:href="namespaceprecice_1_1utils.html#a70a03ea1367189736d49351c6385c8c9" target="_top" xlink:title="precice::utils::append">
<polygon fill="#ffffff" stroke="#000000" points="172,-.5 172,-19.5 293,-19.5 293,-.5 172,-.5"/>
<text text-anchor="middle" x="232.5" y="-7.5" font-family="Helvetica,sans-Serif" font-size="10.00" fill="#000000">precice::utils::append</text>
</a>
</g>
</g>
<!-- Node14&#45;&gt;Node18 -->
<g id="edge4" class="edge">
<title>Node14&#45;&gt;Node18</title>
<path fill="none" stroke="#191970" d="M118.2236,-24.4904C132.1265,-22.7275 147.0818,-20.8311 161.4434,-19.0101"/>
<polygon fill="#191970" stroke="#191970" points="162.2922,-22.4305 171.7724,-17.7003 161.4116,-15.4862 162.2922,-22.4305"/>
</g>
<!-- Node16 -->
<g id="node3" class="node">
<title>Node16</title>
<g id="a_node3"><a xlink:href="classprecice_1_1acceleration_1_1Acceleration.html#a249bfb8884e09425c28bbc8e3120ca46" target="_top" xlink:title="precice::acceleration\l::Acceleration::getDataIDs">
<polygon fill="#ffffff" stroke="#000000" points="347,-61 347,-91 491,-91 491,-61 347,-61"/>
<text text-anchor="start" x="355" y="-79" font-family="Helvetica,sans-Serif" font-size="10.00" fill="#000000">precice::acceleration</text>
<text text-anchor="middle" x="419" y="-68" font-family="Helvetica,sans-Serif" font-size="10.00" fill="#000000">::Acceleration::getDataIDs</text>
</a>
</g>
</g>
<!-- Node15&#45;&gt;Node16 -->
<g id="edge2" class="edge">
<title>Node15&#45;&gt;Node16</title>
<path fill="none" stroke="#191970" d="M311.0523,-63.2662C319.5668,-64.2706 328.2491,-65.2948 336.8054,-66.3041"/>
<polygon fill="#191970" stroke="#191970" points="336.4331,-69.7844 346.7743,-67.4801 337.2533,-62.8326 336.4331,-69.7844"/>
</g>
<!-- Node17 -->
<g id="node4" class="node">
<title>Node17</title>
<g id="a_node4"><a xlink:href="namespaceprecice_1_1utils.html#a434eabaa71f97a31726281a4df77bbcf" target="_top" xlink:title="Returns true, if given element is in vector, otherwise false. ">
<polygon fill="#ffffff" stroke="#000000" points="352.5,-22.5 352.5,-41.5 485.5,-41.5 485.5,-22.5 352.5,-22.5"/>
<text text-anchor="middle" x="419" y="-29.5" font-family="Helvetica,sans-Serif" font-size="10.00" fill="#000000">precice::utils::contained</text>
</a>
</g>
</g>
<!-- Node15&#45;&gt;Node17 -->
<g id="edge3" class="edge">
<title>Node15&#45;&gt;Node17</title>
<path fill="none" stroke="#191970" d="M311.0523,-44.7338C321.3556,-43.5184 331.9045,-42.274 342.1786,-41.062"/>
<polygon fill="#191970" stroke="#191970" points="342.8209,-44.5106 352.3419,-39.8631 342.0007,-37.5588 342.8209,-44.5106"/>
</g>
</g>
</svg>
