<?xml version="1.0" encoding="UTF-8" standalone="no"?>
<!DOCTYPE svg PUBLIC "-//W3C//DTD SVG 1.1//EN"
 "http://www.w3.org/Graphics/SVG/1.1/DTD/svg11.dtd">
<!-- Generated by graphviz version 2.40.1 (20161225.0304)
 -->
<!-- Title: precice::acceleration::MVQNAcceleration::removeMatrixColumn Pages: 1 -->
<svg width="556pt" height="74pt"
 viewBox="0.00 0.00 556.00 74.00" xmlns="http://www.w3.org/2000/svg" xmlns:xlink="http://www.w3.org/1999/xlink">
<g id="graph0" class="graph" transform="scale(1 1) rotate(0) translate(4 70)">
<title>precice::acceleration::MVQNAcceleration::removeMatrixColumn</title>
<polygon fill="#ffffff" stroke="transparent" points="-4,4 -4,-70 552,-70 552,4 -4,4"/>
<!-- Node76 -->
<g id="node1" class="node">
<title>Node76</title>
<polygon fill="#bfbfbf" stroke="#000000" points="0,-24.5 0,-65.5 188,-65.5 188,-24.5 0,-24.5"/>
<text text-anchor="start" x="8" y="-53.5" font-family="Helvetica,sans-Serif" font-size="10.00" fill="#000000">precice::acceleration</text>
<text text-anchor="start" x="8" y="-42.5" font-family="Helvetica,sans-Serif" font-size="10.00" fill="#000000">::MVQNAcceleration::removeMatrix</text>
<text text-anchor="middle" x="94" y="-31.5" font-family="Helvetica,sans-Serif" font-size="10.00" fill="#000000">Column</text>
</g>
<!-- Node77 -->
<g id="node2" class="node">
<title>Node77</title>
<g id="a_node2"><a xlink:href="namespaceprecice_1_1utils.html#a0b9acdd5db07c6b42d9e999e112db8b8" target="_top" xlink:title="precice::utils::removeColumn\lFromMatrix">
<polygon fill="#ffffff" stroke="#000000" points="388,-30 388,-60 548,-60 548,-30 388,-30"/>
<text text-anchor="start" x="396" y="-48" font-family="Helvetica,sans-Serif" font-size="10.00" fill="#000000">precice::utils::removeColumn</text>
<text text-anchor="middle" x="468" y="-37" font-family="Helvetica,sans-Serif" font-size="10.00" fill="#000000">FromMatrix</text>
</a>
</g>
</g>
<!-- Node76&#45;&gt;Node77 -->
<g id="edge1" class="edge">
<title>Node76&#45;&gt;Node77</title>
<path fill="none" stroke="#191970" d="M188.0643,-49.8556C200.1541,-50.3285 212.3675,-50.7317 224,-51 280.8738,-52.3118 295.1301,-52.4698 352,-51 360.3314,-50.7847 368.996,-50.4825 377.669,-50.1271"/>
<polygon fill="#191970" stroke="#191970" points="377.9955,-53.6164 387.8349,-49.6875 377.693,-46.6229 377.9955,-53.6164"/>
</g>
<!-- Node78 -->
<g id="node3" class="node">
<title>Node78</title>
<g id="a_node3"><a xlink:href="classprecice_1_1acceleration_1_1BaseQNAcceleration.html#a9aa3dd1560886ab6b15e317396cdc814" target="_top" xlink:title="Removes one iteration from V,W matrices and adapts _matrixCols. ">
<polygon fill="#ffffff" stroke="#000000" points="224,-.5 224,-41.5 352,-41.5 352,-.5 224,-.5"/>
<text text-anchor="start" x="232" y="-29.5" font-family="Helvetica,sans-Serif" font-size="10.00" fill="#000000">precice::acceleration</text>
<text text-anchor="start" x="232" y="-18.5" font-family="Helvetica,sans-Serif" font-size="10.00" fill="#000000">::BaseQNAcceleration</text>
<text text-anchor="middle" x="288" y="-7.5" font-family="Helvetica,sans-Serif" font-size="10.00" fill="#000000">::removeMatrixColumn</text>
</a>
</g>
</g>
<!-- Node76&#45;&gt;Node78 -->
<g id="edge2" class="edge">
<title>Node76&#45;&gt;Node78</title>
<path fill="none" stroke="#191970" d="M188.1586,-33.3515C196.7378,-32.2902 205.3467,-31.2252 213.7165,-30.1897"/>
<polygon fill="#191970" stroke="#191970" points="214.2945,-33.645 223.7891,-28.9436 213.435,-26.6979 214.2945,-33.645"/>
</g>
<!-- Node78&#45;&gt;Node77 -->
<g id="edge3" class="edge">
<title>Node78&#45;&gt;Node77</title>
<path fill="none" stroke="#191970" d="M352.2218,-29.5629C360.4945,-30.6659 369.0846,-31.8113 377.6786,-32.9571"/>
<polygon fill="#191970" stroke="#191970" points="377.3753,-36.4476 387.7501,-34.3 378.3005,-29.509 377.3753,-36.4476"/>
</g>
</g>
</svg>
