<?xml version="1.0" encoding="UTF-8" standalone="no"?>
<!DOCTYPE svg PUBLIC "-//W3C//DTD SVG 1.1//EN"
 "http://www.w3.org/Graphics/SVG/1.1/DTD/svg11.dtd">
<!-- Generated by graphviz version 2.40.1 (20161225.0304)
 -->
<!-- Title: precice::impl::SolverInterfaceImpl::initializeData Pages: 1 -->
<svg width="533pt" height="333pt"
 viewBox="0.00 0.00 533.00 333.00" xmlns="http://www.w3.org/2000/svg" xmlns:xlink="http://www.w3.org/1999/xlink">
<g id="graph0" class="graph" transform="scale(1 1) rotate(0) translate(4 329)">
<title>precice::impl::SolverInterfaceImpl::initializeData</title>
<polygon fill="#ffffff" stroke="transparent" points="-4,4 -4,-329 529,-329 529,4 -4,4"/>
<!-- Node157 -->
<g id="node1" class="node">
<title>Node157</title>
<polygon fill="#bfbfbf" stroke="#000000" points="0,-147.5 0,-177.5 144,-177.5 144,-147.5 0,-147.5"/>
<text text-anchor="start" x="8" y="-165.5" font-family="Helvetica,sans-Serif" font-size="10.00" fill="#000000">precice::impl::SolverInterface</text>
<text text-anchor="middle" x="72" y="-154.5" font-family="Helvetica,sans-Serif" font-size="10.00" fill="#000000">Impl::initializeData</text>
</g>
<!-- Node158 -->
<g id="node2" class="node">
<title>Node158</title>
<g id="a_node2"><a xlink:href="classprecice_1_1impl_1_1SolverInterfaceImpl.html#a243e8b8c66f4efbb3600f2ca6ef324f5" target="_top" xlink:title="Returns true, if provided name of action is required. ">
<polygon fill="#ffffff" stroke="#000000" points="180,-294.5 180,-324.5 324,-324.5 324,-294.5 180,-294.5"/>
<text text-anchor="start" x="188" y="-312.5" font-family="Helvetica,sans-Serif" font-size="10.00" fill="#000000">precice::impl::SolverInterface</text>
<text text-anchor="middle" x="252" y="-301.5" font-family="Helvetica,sans-Serif" font-size="10.00" fill="#000000">Impl::isActionRequired</text>
</a>
</g>
</g>
<!-- Node157&#45;&gt;Node158 -->
<g id="edge1" class="edge">
<title>Node157&#45;&gt;Node158</title>
<path fill="none" stroke="#191970" d="M81.3904,-177.671C98.108,-203.4691 135.4882,-255.9543 180,-285.5 182.4186,-287.1054 184.9541,-288.6122 187.5685,-290.0255"/>
<polygon fill="#191970" stroke="#191970" points="186.1837,-293.2441 196.7064,-294.4779 189.2499,-286.9513 186.1837,-293.2441"/>
</g>
<!-- Node159 -->
<g id="node3" class="node">
<title>Node159</title>
<g id="a_node3"><a xlink:href="namespaceprecice_1_1constants.html#a1aac0b0276d629965b0a52a6f2c6c017" target="_top" xlink:title="precice::constants\l::actionWriteInitialData">
<polygon fill="#ffffff" stroke="#000000" points="194,-245.5 194,-275.5 310,-275.5 310,-245.5 194,-245.5"/>
<text text-anchor="start" x="202" y="-263.5" font-family="Helvetica,sans-Serif" font-size="10.00" fill="#000000">precice::constants</text>
<text text-anchor="middle" x="252" y="-252.5" font-family="Helvetica,sans-Serif" font-size="10.00" fill="#000000">::actionWriteInitialData</text>
</a>
</g>
</g>
<!-- Node157&#45;&gt;Node159 -->
<g id="edge2" class="edge">
<title>Node157&#45;&gt;Node159</title>
<path fill="none" stroke="#191970" d="M90.5072,-177.5768C111.2583,-193.8928 146.4158,-219.8092 180,-236.5 183.7168,-238.3472 187.609,-240.1032 191.5772,-241.7624"/>
<polygon fill="#191970" stroke="#191970" points="190.341,-245.0372 200.9275,-245.4558 192.9127,-238.5267 190.341,-245.0372"/>
</g>
<!-- Node161 -->
<g id="node5" class="node">
<title>Node161</title>
<g id="a_node5"><a xlink:href="classprecice_1_1impl_1_1SolverInterfaceImpl.html#ab0a4b1f4e62612bb6dd3e72237906c7a" target="_top" xlink:title="Performs all data actions with given timing. ">
<polygon fill="#ffffff" stroke="#000000" points="180,-196.5 180,-226.5 324,-226.5 324,-196.5 180,-196.5"/>
<text text-anchor="start" x="188" y="-214.5" font-family="Helvetica,sans-Serif" font-size="10.00" fill="#000000">precice::impl::SolverInterface</text>
<text text-anchor="middle" x="252" y="-203.5" font-family="Helvetica,sans-Serif" font-size="10.00" fill="#000000">Impl::performDataActions</text>
</a>
</g>
</g>
<!-- Node157&#45;&gt;Node161 -->
<g id="edge4" class="edge">
<title>Node157&#45;&gt;Node161</title>
<path fill="none" stroke="#191970" d="M127.4747,-177.6014C146.297,-182.7253 167.494,-188.4956 186.9914,-193.8032"/>
<polygon fill="#191970" stroke="#191970" points="186.1403,-197.1988 196.7085,-196.4484 187.979,-190.4446 186.1403,-197.1988"/>
</g>
<!-- Node162 -->
<g id="node6" class="node">
<title>Node162</title>
<g id="a_node6"><a xlink:href="classprecice_1_1impl_1_1SolverInterfaceImpl.html#aaccb9dbb5e740d3a5fce6b6353b4a748" target="_top" xlink:title="Computes, performs, and resets all suitable write mappings. ">
<polygon fill="#ffffff" stroke="#000000" points="180,-147.5 180,-177.5 324,-177.5 324,-147.5 180,-147.5"/>
<text text-anchor="start" x="188" y="-165.5" font-family="Helvetica,sans-Serif" font-size="10.00" fill="#000000">precice::impl::SolverInterface</text>
<text text-anchor="middle" x="252" y="-154.5" font-family="Helvetica,sans-Serif" font-size="10.00" fill="#000000">Impl::mapWrittenData</text>
</a>
</g>
</g>
<!-- Node157&#45;&gt;Node162 -->
<g id="edge5" class="edge">
<title>Node157&#45;&gt;Node162</title>
<path fill="none" stroke="#191970" d="M144.1757,-162.5C152.5199,-162.5 161.0771,-162.5 169.5445,-162.5"/>
<polygon fill="#191970" stroke="#191970" points="169.8081,-166.0001 179.8081,-162.5 169.808,-159.0001 169.8081,-166.0001"/>
</g>
<!-- Node164 -->
<g id="node8" class="node">
<title>Node164</title>
<g id="a_node8"><a xlink:href="classprecice_1_1impl_1_1SolverInterfaceImpl.html#a29ccbd72d7e3b9d68d40ecd000120644" target="_top" xlink:title="Computes, performs, and resets all suitable read mappings. ">
<polygon fill="#ffffff" stroke="#000000" points="180,-98.5 180,-128.5 324,-128.5 324,-98.5 180,-98.5"/>
<text text-anchor="start" x="188" y="-116.5" font-family="Helvetica,sans-Serif" font-size="10.00" fill="#000000">precice::impl::SolverInterface</text>
<text text-anchor="middle" x="252" y="-105.5" font-family="Helvetica,sans-Serif" font-size="10.00" fill="#000000">Impl::mapReadData</text>
</a>
</g>
</g>
<!-- Node157&#45;&gt;Node164 -->
<g id="edge7" class="edge">
<title>Node157&#45;&gt;Node164</title>
<path fill="none" stroke="#191970" d="M127.4747,-147.3986C146.297,-142.2747 167.494,-136.5044 186.9914,-131.1968"/>
<polygon fill="#191970" stroke="#191970" points="187.979,-134.5554 196.7085,-128.5516 186.1403,-127.8012 187.979,-134.5554"/>
</g>
<!-- Node165 -->
<g id="node9" class="node">
<title>Node165</title>
<g id="a_node9"><a xlink:href="classprecice_1_1impl_1_1SolverInterfaceImpl.html#a01b1dda0bbae4956961f43887a40113d" target="_top" xlink:title="Resets written data, displacements and mesh neighbors to export. ">
<polygon fill="#ffffff" stroke="#000000" points="180,-49.5 180,-79.5 324,-79.5 324,-49.5 180,-49.5"/>
<text text-anchor="start" x="188" y="-67.5" font-family="Helvetica,sans-Serif" font-size="10.00" fill="#000000">precice::impl::SolverInterface</text>
<text text-anchor="middle" x="252" y="-56.5" font-family="Helvetica,sans-Serif" font-size="10.00" fill="#000000">Impl::resetWrittenData</text>
</a>
</g>
</g>
<!-- Node157&#45;&gt;Node165 -->
<g id="edge9" class="edge">
<title>Node157&#45;&gt;Node165</title>
<path fill="none" stroke="#191970" d="M90.9613,-147.4319C111.824,-131.4048 146.8135,-106.12 180,-89.5 184.2852,-87.354 188.799,-85.3148 193.391,-83.3951"/>
<polygon fill="#191970" stroke="#191970" points="194.8766,-86.5711 202.8783,-79.6268 192.2925,-80.0655 194.8766,-86.5711"/>
</g>
<!-- Node166 -->
<g id="node10" class="node">
<title>Node166</title>
<g id="a_node10"><a xlink:href="classprecice_1_1impl_1_1SolverInterfaceImpl.html#a02541527b0685d76f04d20606c7c20cb" target="_top" xlink:title="Sets the location for all output of preCICE. ">
<polygon fill="#ffffff" stroke="#000000" points="180,-.5 180,-30.5 324,-30.5 324,-.5 180,-.5"/>
<text text-anchor="start" x="188" y="-18.5" font-family="Helvetica,sans-Serif" font-size="10.00" fill="#000000">precice::impl::SolverInterface</text>
<text text-anchor="middle" x="252" y="-7.5" font-family="Helvetica,sans-Serif" font-size="10.00" fill="#000000">Impl::exportMesh</text>
</a>
</g>
</g>
<!-- Node157&#45;&gt;Node166 -->
<g id="edge10" class="edge">
<title>Node157&#45;&gt;Node166</title>
<path fill="none" stroke="#191970" d="M81.3904,-147.329C98.108,-121.5309 135.4882,-69.0457 180,-39.5 182.4186,-37.8946 184.9541,-36.3878 187.5685,-34.9745"/>
<polygon fill="#191970" stroke="#191970" points="189.2499,-38.0487 196.7064,-30.5221 186.1837,-31.7559 189.2499,-38.0487"/>
</g>
<!-- Node160 -->
<g id="node4" class="node">
<title>Node160</title>
<g id="a_node4"><a xlink:href="namespaceprecice_1_1cplscheme_1_1constants.html#aa14baa0c72d55e7f653bd1290d668a53" target="_top" xlink:title="precice::cplscheme\l::constants::actionWriteInitialData">
<polygon fill="#ffffff" stroke="#000000" points="360,-245.5 360,-275.5 525,-275.5 525,-245.5 360,-245.5"/>
<text text-anchor="start" x="368" y="-263.5" font-family="Helvetica,sans-Serif" font-size="10.00" fill="#000000">precice::cplscheme</text>
<text text-anchor="middle" x="442.5" y="-252.5" font-family="Helvetica,sans-Serif" font-size="10.00" fill="#000000">::constants::actionWriteInitialData</text>
</a>
</g>
</g>
<!-- Node159&#45;&gt;Node160 -->
<g id="edge3" class="edge">
<title>Node159&#45;&gt;Node160</title>
<path fill="none" stroke="#191970" d="M310.1914,-260.5C322.66,-260.5 336.1324,-260.5 349.5442,-260.5"/>
<polygon fill="#191970" stroke="#191970" points="349.7707,-264.0001 359.7707,-260.5 349.7707,-257.0001 349.7707,-264.0001"/>
</g>
<!-- Node163 -->
<g id="node7" class="node">
<title>Node163</title>
<g id="a_node7"><a xlink:href="namespaceprecice_1_1utils.html#a2db8a33320c83e3e58b6c3a671b39c89" target="_top" xlink:title="precice::utils::previewRange">
<polygon fill="#ffffff" stroke="#000000" points="372.5,-128 372.5,-147 512.5,-147 512.5,-128 372.5,-128"/>
<text text-anchor="middle" x="442.5" y="-135" font-family="Helvetica,sans-Serif" font-size="10.00" fill="#000000">precice::utils::previewRange</text>
</a>
</g>
</g>
<!-- Node162&#45;&gt;Node163 -->
<g id="edge6" class="edge">
<title>Node162&#45;&gt;Node163</title>
<path fill="none" stroke="#191970" d="M324.0199,-153.0486C336.4907,-151.412 349.5273,-149.7011 362.2016,-148.0378"/>
<polygon fill="#191970" stroke="#191970" points="362.8113,-151.4879 372.2708,-146.7164 361.9004,-144.5474 362.8113,-151.4879"/>
</g>
<!-- Node164&#45;&gt;Node163 -->
<g id="edge8" class="edge">
<title>Node164&#45;&gt;Node163</title>
<path fill="none" stroke="#191970" d="M324.0199,-122.5734C336.4907,-124.1445 349.5273,-125.7869 362.2016,-127.3837"/>
<polygon fill="#191970" stroke="#191970" points="361.9117,-130.8747 372.2708,-128.6522 362.7868,-123.9296 361.9117,-130.8747"/>
</g>
<!-- Node167 -->
<g id="node11" class="node">
<title>Node167</title>
<g id="a_node11"><a xlink:href="namespaceprecice_1_1io_1_1constants.html#ad48a2f8ef5a7f56190e47623c170f40f" target="_top" xlink:title="precice::io::constants\l::exportAll">
<polygon fill="#ffffff" stroke="#000000" points="387.5,-.5 387.5,-30.5 497.5,-30.5 497.5,-.5 387.5,-.5"/>
<text text-anchor="start" x="395.5" y="-18.5" font-family="Helvetica,sans-Serif" font-size="10.00" fill="#000000">precice::io::constants</text>
<text text-anchor="middle" x="442.5" y="-7.5" font-family="Helvetica,sans-Serif" font-size="10.00" fill="#000000">::exportAll</text>
</a>
</g>
</g>
<!-- Node166&#45;&gt;Node167 -->
<g id="edge11" class="edge">
<title>Node166&#45;&gt;Node167</title>
<path fill="none" stroke="#191970" d="M324.0199,-15.5C341.3835,-15.5 359.844,-15.5 376.8964,-15.5"/>
<polygon fill="#191970" stroke="#191970" points="377.3096,-19.0001 387.3096,-15.5 377.3095,-12.0001 377.3096,-19.0001"/>
</g>
</g>
</svg>
