<?xml version="1.0" encoding="UTF-8" standalone="no"?>
<!DOCTYPE svg PUBLIC "-//W3C//DTD SVG 1.1//EN"
 "http://www.w3.org/Graphics/SVG/1.1/DTD/svg11.dtd">
<!-- Generated by graphviz version 2.40.1 (20161225.0304)
 -->
<!-- Title: precice::cplscheme::BiCouplingScheme::receiveConvergence Pages: 1 -->
<svg width="292pt" height="50pt"
 viewBox="0.00 0.00 292.00 50.00" xmlns="http://www.w3.org/2000/svg" xmlns:xlink="http://www.w3.org/1999/xlink">
<g id="graph0" class="graph" transform="scale(1 1) rotate(0) translate(4 46)">
<title>precice::cplscheme::BiCouplingScheme::receiveConvergence</title>
<polygon fill="#ffffff" stroke="transparent" points="-4,4 -4,-46 288,-46 288,4 -4,4"/>
<!-- Node16 -->
<g id="node1" class="node">
<title>Node16</title>
<polygon fill="#bfbfbf" stroke="#000000" points="0,-.5 0,-41.5 120,-41.5 120,-.5 0,-.5"/>
<text text-anchor="start" x="8" y="-29.5" font-family="Helvetica,sans-Serif" font-size="10.00" fill="#000000">precice::cplscheme</text>
<text text-anchor="start" x="8" y="-18.5" font-family="Helvetica,sans-Serif" font-size="10.00" fill="#000000">::BiCouplingScheme::</text>
<text text-anchor="middle" x="60" y="-7.5" font-family="Helvetica,sans-Serif" font-size="10.00" fill="#000000">receiveConvergence</text>
</g>
<!-- Node17 -->
<g id="node2" class="node">
<title>Node17</title>
<g id="a_node2"><a xlink:href="classprecice_1_1cplscheme_1_1BaseCouplingScheme.html#af880c679675d59efcf00b0b9fd984f6e" target="_top" xlink:title="Getter for _doesFirstStep. ">
<polygon fill="#ffffff" stroke="#000000" points="156,-.5 156,-41.5 284,-41.5 284,-.5 156,-.5"/>
<text text-anchor="start" x="164" y="-29.5" font-family="Helvetica,sans-Serif" font-size="10.00" fill="#000000">precice::cplscheme</text>
<text text-anchor="start" x="164" y="-18.5" font-family="Helvetica,sans-Serif" font-size="10.00" fill="#000000">::BaseCouplingScheme</text>
<text text-anchor="middle" x="220" y="-7.5" font-family="Helvetica,sans-Serif" font-size="10.00" fill="#000000">::doesFirstStep</text>
</a>
</g>
</g>
<!-- Node16&#45;&gt;Node17 -->
<g id="edge1" class="edge">
<title>Node16&#45;&gt;Node17</title>
<path fill="none" stroke="#191970" d="M120.0333,-21C128.4462,-21 137.1738,-21 145.8105,-21"/>
<polygon fill="#191970" stroke="#191970" points="145.8834,-24.5001 155.8834,-21 145.8833,-17.5001 145.8834,-24.5001"/>
</g>
</g>
</svg>
