<?xml version="1.0" encoding="UTF-8" standalone="no"?>
<!DOCTYPE svg PUBLIC "-//W3C//DTD SVG 1.1//EN"
 "http://www.w3.org/Graphics/SVG/1.1/DTD/svg11.dtd">
<!-- Generated by graphviz version 2.40.1 (20161225.0304)
 -->
<!-- Title: precice::acceleration::MVQNAcceleration::pseudoInverse Pages: 1 -->
<svg width="543pt" height="258pt"
 viewBox="0.00 0.00 543.00 258.00" xmlns="http://www.w3.org/2000/svg" xmlns:xlink="http://www.w3.org/1999/xlink">
<g id="graph0" class="graph" transform="scale(1 1) rotate(0) translate(4 254)">
<title>precice::acceleration::MVQNAcceleration::pseudoInverse</title>
<polygon fill="#ffffff" stroke="transparent" points="-4,4 -4,-254 539,-254 539,4 -4,4"/>
<!-- Node70 -->
<g id="node1" class="node">
<title>Node70</title>
<polygon fill="#bfbfbf" stroke="#000000" points="0,-105 0,-135 176,-135 176,-105 0,-105"/>
<text text-anchor="start" x="8" y="-123" font-family="Helvetica,sans-Serif" font-size="10.00" fill="#000000">precice::acceleration</text>
<text text-anchor="middle" x="88" y="-112" font-family="Helvetica,sans-Serif" font-size="10.00" fill="#000000">::MVQNAcceleration::pseudoInverse</text>
</g>
<!-- Node71 -->
<g id="node2" class="node">
<title>Node71</title>
<g id="a_node2"><a xlink:href="classprecice_1_1acceleration_1_1impl_1_1QRFactorization.html#ae70002a9cc23b7109d55676eabe9028f" target="_top" xlink:title="returns a matrix representation of the orthogonal matrix Q ">
<polygon fill="#ffffff" stroke="#000000" points="225.5,-208.5 225.5,-249.5 343.5,-249.5 343.5,-208.5 225.5,-208.5"/>
<text text-anchor="start" x="233.5" y="-237.5" font-family="Helvetica,sans-Serif" font-size="10.00" fill="#000000">precice::acceleration</text>
<text text-anchor="start" x="233.5" y="-226.5" font-family="Helvetica,sans-Serif" font-size="10.00" fill="#000000">::impl::QRFactorization</text>
<text text-anchor="middle" x="284.5" y="-215.5" font-family="Helvetica,sans-Serif" font-size="10.00" fill="#000000">::matrixQ</text>
</a>
</g>
</g>
<!-- Node70&#45;&gt;Node71 -->
<g id="edge1" class="edge">
<title>Node70&#45;&gt;Node71</title>
<path fill="none" stroke="#191970" d="M109.2645,-135.1747C133.4324,-152.0303 174.4119,-179.441 212,-199 215.4363,-200.7881 219.0038,-202.5491 222.631,-204.267"/>
<polygon fill="#191970" stroke="#191970" points="221.1804,-207.4522 231.7292,-208.4393 224.0983,-201.0894 221.1804,-207.4522"/>
</g>
<!-- Node72 -->
<g id="node3" class="node">
<title>Node72</title>
<g id="a_node3"><a xlink:href="classprecice_1_1acceleration_1_1impl_1_1QRFactorization.html#a3195a3c721aa585aeb5207127e4e24c9" target="_top" xlink:title="returns a matrix representation of the upper triangular matrix R ">
<polygon fill="#ffffff" stroke="#000000" points="225.5,-148.5 225.5,-189.5 343.5,-189.5 343.5,-148.5 225.5,-148.5"/>
<text text-anchor="start" x="233.5" y="-177.5" font-family="Helvetica,sans-Serif" font-size="10.00" fill="#000000">precice::acceleration</text>
<text text-anchor="start" x="233.5" y="-166.5" font-family="Helvetica,sans-Serif" font-size="10.00" fill="#000000">::impl::QRFactorization</text>
<text text-anchor="middle" x="284.5" y="-155.5" font-family="Helvetica,sans-Serif" font-size="10.00" fill="#000000">::matrixR</text>
</a>
</g>
</g>
<!-- Node70&#45;&gt;Node72 -->
<g id="edge2" class="edge">
<title>Node70&#45;&gt;Node72</title>
<path fill="none" stroke="#191970" d="M148.2919,-135.0346C169.5217,-140.3286 193.5455,-146.3192 215.4418,-151.7794"/>
<polygon fill="#191970" stroke="#191970" points="214.7851,-155.2227 225.3348,-154.2463 216.4788,-148.4307 214.7851,-155.2227"/>
</g>
<!-- Node73 -->
<g id="node4" class="node">
<title>Node73</title>
<g id="a_node4"><a xlink:href="classprecice_1_1acceleration_1_1impl_1_1QRFactorization.html#a8a1d26479a03fe3a6f477a19d6fb7d80" target="_top" xlink:title="precice::acceleration\l::impl::QRFactorization::cols">
<polygon fill="#ffffff" stroke="#000000" points="393,-55 393,-85 535,-85 535,-55 393,-55"/>
<text text-anchor="start" x="401" y="-73" font-family="Helvetica,sans-Serif" font-size="10.00" fill="#000000">precice::acceleration</text>
<text text-anchor="middle" x="464" y="-62" font-family="Helvetica,sans-Serif" font-size="10.00" fill="#000000">::impl::QRFactorization::cols</text>
</a>
</g>
</g>
<!-- Node70&#45;&gt;Node73 -->
<g id="edge3" class="edge">
<title>Node70&#45;&gt;Node73</title>
<path fill="none" stroke="#191970" d="M176.1063,-118.4665C228.9113,-116.3867 297.1951,-111.6515 357,-101 374.5881,-97.8675 393.4145,-92.9595 410.2958,-87.9652"/>
<polygon fill="#191970" stroke="#191970" points="411.432,-91.2781 419.9864,-85.0274 409.4011,-84.5792 411.432,-91.2781"/>
</g>
<!-- Node74 -->
<g id="node5" class="node">
<title>Node74</title>
<g id="a_node5"><a xlink:href="classprecice_1_1acceleration_1_1impl_1_1QRFactorization.html#a66a9bc32b0651f4cc31470f792fedebe" target="_top" xlink:title="precice::acceleration\l::impl::QRFactorization::rows">
<polygon fill="#ffffff" stroke="#000000" points="212,-61 212,-91 357,-91 357,-61 212,-61"/>
<text text-anchor="start" x="220" y="-79" font-family="Helvetica,sans-Serif" font-size="10.00" fill="#000000">precice::acceleration</text>
<text text-anchor="middle" x="284.5" y="-68" font-family="Helvetica,sans-Serif" font-size="10.00" fill="#000000">::impl::QRFactorization::rows</text>
</a>
</g>
</g>
<!-- Node70&#45;&gt;Node74 -->
<g id="edge4" class="edge">
<title>Node70&#45;&gt;Node74</title>
<path fill="none" stroke="#191970" d="M155.0746,-104.9808C171.8967,-101.214 190.0792,-97.1426 207.3489,-93.2756"/>
<polygon fill="#191970" stroke="#191970" points="208.4008,-96.6268 217.3943,-91.0262 206.8712,-89.7959 208.4008,-96.6268"/>
</g>
<!-- Node75 -->
<g id="node6" class="node">
<title>Node75</title>
<g id="a_node6"><a xlink:href="classprecice_1_1acceleration_1_1BaseQNAcceleration.html#a2354cc9c97ebd8ff1ba76b5959e79f20" target="_top" xlink:title=": computes number of cols in least squares system, i.e, number of cols in _matrixV, _matrixW, _qrV, etc.. This is necessary only for master&#45;slave mode, when some procs do not have any nodes on the coupling interface. In this case, the matrices are not constructed and we have no information about the number of cols. This info is needed for master&#45;slave communication. Number of its =! _cols in general. ">
<polygon fill="#ffffff" stroke="#000000" points="227.5,-.5 227.5,-41.5 341.5,-41.5 341.5,-.5 227.5,-.5"/>
<text text-anchor="start" x="235.5" y="-29.5" font-family="Helvetica,sans-Serif" font-size="10.00" fill="#000000">precice::acceleration</text>
<text text-anchor="start" x="235.5" y="-18.5" font-family="Helvetica,sans-Serif" font-size="10.00" fill="#000000">::BaseQNAcceleration</text>
<text text-anchor="middle" x="284.5" y="-7.5" font-family="Helvetica,sans-Serif" font-size="10.00" fill="#000000">::getLSSystemCols</text>
</a>
</g>
</g>
<!-- Node70&#45;&gt;Node75 -->
<g id="edge5" class="edge">
<title>Node70&#45;&gt;Node75</title>
<path fill="none" stroke="#191970" d="M113.7389,-104.9235C138.553,-90.6197 177.338,-68.8649 212,-52 216.3122,-49.9019 220.8017,-47.7975 225.3395,-45.7279"/>
<polygon fill="#191970" stroke="#191970" points="226.986,-48.8255 234.6799,-41.5416 224.123,-42.4377 226.986,-48.8255"/>
</g>
<!-- Node75&#45;&gt;Node73 -->
<g id="edge6" class="edge">
<title>Node75&#45;&gt;Node73</title>
<path fill="none" stroke="#191970" d="M341.7884,-36.6386C359.9653,-41.6006 380.1952,-47.1229 398.8812,-52.2238"/>
<polygon fill="#191970" stroke="#191970" points="398.2168,-55.6705 408.7856,-54.9275 400.0603,-48.9176 398.2168,-55.6705"/>
</g>
</g>
</svg>
