<?xml version="1.0" encoding="UTF-8" standalone="no"?>
<!DOCTYPE svg PUBLIC "-//W3C//DTD SVG 1.1//EN"
 "http://www.w3.org/Graphics/SVG/1.1/DTD/svg11.dtd">
<!-- Generated by graphviz version 2.40.1 (20161225.0304)
 -->
<!-- Title: precice::acceleration::impl::QRFactorization::reset Pages: 1 -->
<svg width="327pt" height="88pt"
 viewBox="0.00 0.00 327.00 88.00" xmlns="http://www.w3.org/2000/svg" xmlns:xlink="http://www.w3.org/1999/xlink">
<g id="graph0" class="graph" transform="scale(1 1) rotate(0) translate(4 84)">
<title>precice::acceleration::impl::QRFactorization::reset</title>
<polygon fill="#ffffff" stroke="transparent" points="-4,4 -4,-84 323,-84 323,4 -4,4"/>
<!-- Node120 -->
<g id="node1" class="node">
<title>Node120</title>
<polygon fill="#bfbfbf" stroke="#000000" points="0,-19 0,-60 127,-60 127,-19 0,-19"/>
<text text-anchor="start" x="8" y="-48" font-family="Helvetica,sans-Serif" font-size="10.00" fill="#000000">precice::acceleration</text>
<text text-anchor="start" x="8" y="-37" font-family="Helvetica,sans-Serif" font-size="10.00" fill="#000000">::impl::QRFactorization</text>
<text text-anchor="middle" x="63.5" y="-26" font-family="Helvetica,sans-Serif" font-size="10.00" fill="#000000">::reset</text>
</g>
<!-- Node121 -->
<g id="node2" class="node">
<title>Node121</title>
<g id="a_node2"><a xlink:href="classprecice_1_1acceleration_1_1impl_1_1QRFactorization.html#a66a9bc32b0651f4cc31470f792fedebe" target="_top" xlink:title="precice::acceleration\l::impl::QRFactorization::rows">
<polygon fill="#ffffff" stroke="#000000" points="163,-49.5 163,-79.5 319,-79.5 319,-49.5 163,-49.5"/>
<text text-anchor="start" x="171" y="-67.5" font-family="Helvetica,sans-Serif" font-size="10.00" fill="#000000">precice::acceleration</text>
<text text-anchor="middle" x="241" y="-56.5" font-family="Helvetica,sans-Serif" font-size="10.00" fill="#000000">::impl::QRFactorization::rows</text>
</a>
</g>
</g>
<!-- Node120&#45;&gt;Node121 -->
<g id="edge1" class="edge">
<title>Node120&#45;&gt;Node121</title>
<path fill="none" stroke="#191970" d="M127.0802,-48.455C135.4455,-49.6332 144.1361,-50.8572 152.8194,-52.0802"/>
<polygon fill="#191970" stroke="#191970" points="152.5991,-55.5836 162.9895,-53.5126 153.5754,-48.652 152.5991,-55.5836"/>
</g>
<!-- Node122 -->
<g id="node3" class="node">
<title>Node122</title>
<g id="a_node3"><a xlink:href="classprecice_1_1acceleration_1_1impl_1_1QRFactorization.html#a8a1d26479a03fe3a6f477a19d6fb7d80" target="_top" xlink:title="precice::acceleration\l::impl::QRFactorization::cols">
<polygon fill="#ffffff" stroke="#000000" points="165,-.5 165,-30.5 317,-30.5 317,-.5 165,-.5"/>
<text text-anchor="start" x="173" y="-18.5" font-family="Helvetica,sans-Serif" font-size="10.00" fill="#000000">precice::acceleration</text>
<text text-anchor="middle" x="241" y="-7.5" font-family="Helvetica,sans-Serif" font-size="10.00" fill="#000000">::impl::QRFactorization::cols</text>
</a>
</g>
</g>
<!-- Node120&#45;&gt;Node122 -->
<g id="edge2" class="edge">
<title>Node120&#45;&gt;Node122</title>
<path fill="none" stroke="#191970" d="M127.0802,-30.9032C136.0657,-29.6883 145.4264,-28.4226 154.7503,-27.1619"/>
<polygon fill="#191970" stroke="#191970" points="155.393,-30.607 164.8338,-25.7985 154.455,-23.6701 155.393,-30.607"/>
</g>
</g>
</svg>
