<?xml version="1.0" encoding="UTF-8" standalone="no"?>
<!DOCTYPE svg PUBLIC "-//W3C//DTD SVG 1.1//EN"
 "http://www.w3.org/Graphics/SVG/1.1/DTD/svg11.dtd">
<!-- Generated by graphviz version 2.40.1 (20161225.0304)
 -->
<!-- Title: precice::utils::EventRegistry::writeSummary Pages: 1 -->
<svg width="303pt" height="230pt"
 viewBox="0.00 0.00 303.00 229.50" xmlns="http://www.w3.org/2000/svg" xmlns:xlink="http://www.w3.org/1999/xlink">
<g id="graph0" class="graph" transform="scale(1 1) rotate(0) translate(4 225.5)">
<title>precice::utils::EventRegistry::writeSummary</title>
<polygon fill="#ffffff" stroke="transparent" points="-4,4 -4,-225.5 299,-225.5 299,4 -4,4"/>
<!-- Node28 -->
<g id="node1" class="node">
<title>Node28</title>
<polygon fill="#bfbfbf" stroke="#000000" points="0,-101.5 0,-131.5 140,-131.5 140,-101.5 0,-101.5"/>
<text text-anchor="start" x="8" y="-119.5" font-family="Helvetica,sans-Serif" font-size="10.00" fill="#000000">precice::utils::EventRegistry</text>
<text text-anchor="middle" x="70" y="-108.5" font-family="Helvetica,sans-Serif" font-size="10.00" fill="#000000">::writeSummary</text>
</g>
<!-- Node29 -->
<g id="node2" class="node">
<title>Node29</title>
<g id="a_node2"><a xlink:href="MPI__Mock_8hpp.html#a3199e776e016cbaaed648c2e8c32dd04" target="_top" xlink:title="MPI_Comm_rank">
<polygon fill="#ffffff" stroke="#000000" points="189,-202 189,-221 282,-221 282,-202 189,-202"/>
<text text-anchor="middle" x="235.5" y="-209" font-family="Helvetica,sans-Serif" font-size="10.00" fill="#000000">MPI_Comm_rank</text>
</a>
</g>
</g>
<!-- Node28&#45;&gt;Node29 -->
<g id="edge1" class="edge">
<title>Node28&#45;&gt;Node29</title>
<path fill="none" stroke="#191970" d="M87.2745,-131.5147C107.3962,-148.3541 142.2091,-175.5236 176,-192.5 180.3149,-194.6678 184.9291,-196.6563 189.6078,-198.4624"/>
<polygon fill="#191970" stroke="#191970" points="188.6324,-201.8308 199.227,-201.9122 190.9956,-195.2417 188.6324,-201.8308"/>
</g>
<!-- Node30 -->
<g id="node3" class="node">
<title>Node30</title>
<g id="a_node3"><a xlink:href="MPI__Mock_8hpp.html#af02c1da1e2be331e53ac3e5f8ccfedb6" target="_top" xlink:title="MPI_Comm_size">
<polygon fill="#ffffff" stroke="#000000" points="189.5,-164 189.5,-183 281.5,-183 281.5,-164 189.5,-164"/>
<text text-anchor="middle" x="235.5" y="-171" font-family="Helvetica,sans-Serif" font-size="10.00" fill="#000000">MPI_Comm_size</text>
</a>
</g>
</g>
<!-- Node28&#45;&gt;Node30 -->
<g id="edge2" class="edge">
<title>Node28&#45;&gt;Node30</title>
<path fill="none" stroke="#191970" d="M110.9076,-131.5435C130.5389,-138.6657 154.4291,-147.1919 176,-154.5 182.1333,-156.5779 188.643,-158.7203 195.0196,-160.784"/>
<polygon fill="#191970" stroke="#191970" points="194.2662,-164.218 204.8574,-163.9417 196.4056,-157.5529 194.2662,-164.218"/>
</g>
<!-- Node31 -->
<g id="node4" class="node">
<title>Node31</title>
<g id="a_node4"><a xlink:href="classTable.html#aa73077c1a7e9ce4e2de334a3f5c8ed45" target="_top" xlink:title="Adds a column of given name, width and float precision. ">
<polygon fill="#ffffff" stroke="#000000" points="187.5,-126 187.5,-145 283.5,-145 283.5,-126 187.5,-126"/>
<text text-anchor="middle" x="235.5" y="-133" font-family="Helvetica,sans-Serif" font-size="10.00" fill="#000000">Table::addColumn</text>
</a>
</g>
</g>
<!-- Node28&#45;&gt;Node31 -->
<g id="edge3" class="edge">
<title>Node28&#45;&gt;Node31</title>
<path fill="none" stroke="#191970" d="M140.1869,-124.5577C152.452,-125.9658 165.0942,-127.4172 177.0014,-128.7842"/>
<polygon fill="#191970" stroke="#191970" points="176.9143,-132.2971 187.2483,-129.9605 177.7128,-125.3427 176.9143,-132.2971"/>
</g>
<!-- Node32 -->
<g id="node5" class="node">
<title>Node32</title>
<g id="a_node5"><a xlink:href="classTable.html#ae192f86f5d8c8efe4d55ee04c90f437f" target="_top" xlink:title="Prints the formatted header. ">
<polygon fill="#ffffff" stroke="#000000" points="187,-88 187,-107 284,-107 284,-88 187,-88"/>
<text text-anchor="middle" x="235.5" y="-95" font-family="Helvetica,sans-Serif" font-size="10.00" fill="#000000">Table::printHeader</text>
</a>
</g>
</g>
<!-- Node28&#45;&gt;Node32 -->
<g id="edge4" class="edge">
<title>Node28&#45;&gt;Node32</title>
<path fill="none" stroke="#191970" d="M140.1869,-108.4423C152.3157,-107.0499 164.8133,-105.6151 176.6042,-104.2614"/>
<polygon fill="#191970" stroke="#191970" points="177.2216,-107.7137 186.7571,-103.0959 176.4231,-100.7593 177.2216,-107.7137"/>
</g>
<!-- Node33 -->
<g id="node6" class="node">
<title>Node33</title>
<g id="a_node6"><a xlink:href="classTable.html#af88f3aa27d389f173a6bc40a31085f94" target="_top" xlink:title="Prints a line, accepting arbitrary arguments. ">
<polygon fill="#ffffff" stroke="#000000" points="192.5,-50 192.5,-69 278.5,-69 278.5,-50 192.5,-50"/>
<text text-anchor="middle" x="235.5" y="-57" font-family="Helvetica,sans-Serif" font-size="10.00" fill="#000000">Table::printRow</text>
</a>
</g>
</g>
<!-- Node28&#45;&gt;Node33 -->
<g id="edge5" class="edge">
<title>Node28&#45;&gt;Node33</title>
<path fill="none" stroke="#191970" d="M110.9076,-101.4565C130.5389,-94.3343 154.4291,-85.8081 176,-78.5 182.1333,-76.4221 188.643,-74.2797 195.0196,-72.216"/>
<polygon fill="#191970" stroke="#191970" points="196.4056,-75.4471 204.8574,-69.0583 194.2662,-68.782 196.4056,-75.4471"/>
</g>
<!-- Node34 -->
<g id="node7" class="node">
<title>Node34</title>
<g id="a_node7"><a xlink:href="namespaceprecice_1_1utils.html#a77c64db16723fbf473ec64720ea97578" target="_top" xlink:title="precice::utils::getGlobal\lStats">
<polygon fill="#ffffff" stroke="#000000" points="176,-.5 176,-30.5 295,-30.5 295,-.5 176,-.5"/>
<text text-anchor="start" x="184" y="-18.5" font-family="Helvetica,sans-Serif" font-size="10.00" fill="#000000">precice::utils::getGlobal</text>
<text text-anchor="middle" x="235.5" y="-7.5" font-family="Helvetica,sans-Serif" font-size="10.00" fill="#000000">Stats</text>
</a>
</g>
</g>
<!-- Node28&#45;&gt;Node34 -->
<g id="edge6" class="edge">
<title>Node28&#45;&gt;Node34</title>
<path fill="none" stroke="#191970" d="M88.298,-101.4306C108.7818,-85.0369 143.39,-58.7364 176,-40.5 179.4762,-38.556 183.1343,-36.6698 186.8567,-34.8629"/>
<polygon fill="#191970" stroke="#191970" points="188.572,-37.9257 196.175,-30.547 185.63,-31.5739 188.572,-37.9257"/>
</g>
</g>
</svg>
