<?xml version="1.0" encoding="UTF-8" standalone="no"?>
<!DOCTYPE svg PUBLIC "-//W3C//DTD SVG 1.1//EN"
 "http://www.w3.org/Graphics/SVG/1.1/DTD/svg11.dtd">
<!-- Generated by graphviz version 2.40.1 (20161225.0304)
 -->
<!-- Title: precice::io::ExportVTK Pages: 1 -->
<svg width="258pt" height="341pt"
 viewBox="0.00 0.00 258.00 341.00" xmlns="http://www.w3.org/2000/svg" xmlns:xlink="http://www.w3.org/1999/xlink">
<g id="graph0" class="graph" transform="scale(1 1) rotate(0) translate(4 337)">
<title>precice::io::ExportVTK</title>
<polygon fill="#ffffff" stroke="transparent" points="-4,4 -4,-337 254,-337 254,4 -4,4"/>
<!-- Node2 -->
<g id="node1" class="node">
<title>Node2</title>
<polygon fill="#bfbfbf" stroke="#000000" points="29,-.5 29,-19.5 145,-19.5 145,-.5 29,-.5"/>
<text text-anchor="middle" x="87" y="-7.5" font-family="Helvetica,sans-Serif" font-size="10.00" fill="#000000">precice::io::ExportVTK</text>
</g>
<!-- Node3 -->
<g id="node2" class="node">
<title>Node3</title>
<g id="a_node2"><a xlink:href="classprecice_1_1io_1_1Export.html" target="_top" xlink:title="Abstract base class of all classes exporting container data structures. ">
<polygon fill="#ffffff" stroke="#000000" points="0,-67.5 0,-86.5 96,-86.5 96,-67.5 0,-67.5"/>
<text text-anchor="middle" x="48" y="-74.5" font-family="Helvetica,sans-Serif" font-size="10.00" fill="#000000">precice::io::Export</text>
</a>
</g>
</g>
<!-- Node3&#45;&gt;Node2 -->
<g id="edge1" class="edge">
<title>Node3&#45;&gt;Node2</title>
<path fill="none" stroke="#191970" d="M58.7047,-58.6099C66.0567,-45.9795 75.5188,-29.7241 81.4226,-19.5817"/>
<polygon fill="#191970" stroke="#191970" points="55.5936,-56.9973 53.5877,-67.4005 61.6434,-60.5188 55.5936,-56.9973"/>
</g>
<!-- Node4 -->
<g id="node3" class="node">
<title>Node4</title>
<g id="a_node3"><a xlink:href="classprecice_1_1logging_1_1Logger.html" target="_top" xlink:title="This class provides a leightweight logger. ">
<polygon fill="#ffffff" stroke="#000000" points="114,-67.5 114,-86.5 234,-86.5 234,-67.5 114,-67.5"/>
<text text-anchor="middle" x="174" y="-74.5" font-family="Helvetica,sans-Serif" font-size="10.00" fill="#000000">precice::logging::Logger</text>
</a>
</g>
</g>
<!-- Node4&#45;&gt;Node2 -->
<g id="edge2" class="edge">
<title>Node4&#45;&gt;Node2</title>
<path fill="none" stroke="#9a32cd" stroke-dasharray="5,2" d="M153.4263,-61.1559C136.6542,-48.2395 113.5157,-30.4201 99.4419,-19.5817"/>
<polygon fill="#9a32cd" stroke="#9a32cd" points="151.4766,-64.072 161.535,-67.4005 155.7477,-58.526 151.4766,-64.072"/>
<text text-anchor="middle" x="146" y="-41" font-family="Helvetica,sans-Serif" font-size="10.00" fill="#000000"> _log</text>
</g>
<!-- Node5 -->
<g id="node4" class="node">
<title>Node5</title>
<polygon fill="#ffffff" stroke="#bfbfbf" points="98,-134.5 98,-164.5 250,-164.5 250,-134.5 98,-134.5"/>
<text text-anchor="start" x="106" y="-152.5" font-family="Helvetica,sans-Serif" font-size="10.00" fill="#000000">std::unique_ptr&lt; precice</text>
<text text-anchor="middle" x="174" y="-141.5" font-family="Helvetica,sans-Serif" font-size="10.00" fill="#000000">::logging::Logger::LoggerImpl &gt;</text>
</g>
<!-- Node5&#45;&gt;Node4 -->
<g id="edge3" class="edge">
<title>Node5&#45;&gt;Node4</title>
<path fill="none" stroke="#9a32cd" stroke-dasharray="5,2" d="M174,-124.305C174,-111.424 174,-96.4836 174,-86.8957"/>
<polygon fill="#9a32cd" stroke="#9a32cd" points="170.5001,-124.4779 174,-134.478 177.5001,-124.478 170.5001,-124.4779"/>
<text text-anchor="middle" x="187.5" y="-108" font-family="Helvetica,sans-Serif" font-size="10.00" fill="#000000"> _impl</text>
</g>
<!-- Node6 -->
<g id="node5" class="node">
<title>Node6</title>
<g id="a_node5"><a xlink:href="classprecice_1_1logging_1_1Logger_1_1LoggerImpl.html" target="_top" xlink:title="precice::logging::Logger\l::LoggerImpl">
<polygon fill="#ffffff" stroke="#000000" points="114,-212.5 114,-242.5 234,-242.5 234,-212.5 114,-212.5"/>
<text text-anchor="start" x="122" y="-230.5" font-family="Helvetica,sans-Serif" font-size="10.00" fill="#000000">precice::logging::Logger</text>
<text text-anchor="middle" x="174" y="-219.5" font-family="Helvetica,sans-Serif" font-size="10.00" fill="#000000">::LoggerImpl</text>
</a>
</g>
</g>
<!-- Node6&#45;&gt;Node5 -->
<g id="edge4" class="edge">
<title>Node6&#45;&gt;Node5</title>
<path fill="none" stroke="#9a32cd" stroke-dasharray="5,2" d="M174,-202.2875C174,-189.9187 174,-175.4264 174,-164.7592"/>
<polygon fill="#9a32cd" stroke="#9a32cd" points="170.5001,-202.4608 174,-212.4608 177.5001,-202.4608 170.5001,-202.4608"/>
<text text-anchor="middle" x="181.5" y="-186" font-family="Helvetica,sans-Serif" font-size="10.00" fill="#000000"> ptr</text>
</g>
<!-- Node7 -->
<g id="node6" class="node">
<title>Node7</title>
<polygon fill="#ffffff" stroke="#bfbfbf" points="113,-280.5 113,-332.5 235,-332.5 235,-280.5 113,-280.5"/>
<text text-anchor="start" x="121" y="-320.5" font-family="Helvetica,sans-Serif" font-size="10.00" fill="#000000">boost::log::sources</text>
<text text-anchor="start" x="121" y="-309.5" font-family="Helvetica,sans-Serif" font-size="10.00" fill="#000000">::severity_logger&lt; boost</text>
<text text-anchor="start" x="121" y="-298.5" font-family="Helvetica,sans-Serif" font-size="10.00" fill="#000000">::log::trivial::severity</text>
<text text-anchor="middle" x="174" y="-287.5" font-family="Helvetica,sans-Serif" font-size="10.00" fill="#000000">_level &gt;</text>
</g>
<!-- Node7&#45;&gt;Node6 -->
<g id="edge5" class="edge">
<title>Node7&#45;&gt;Node6</title>
<path fill="none" stroke="#191970" d="M174,-270.0152C174,-260.4501 174,-250.648 174,-242.8696"/>
<polygon fill="#191970" stroke="#191970" points="170.5001,-270.1941 174,-280.1941 177.5001,-270.1942 170.5001,-270.1941"/>
</g>
</g>
</svg>
