<?xml version="1.0" encoding="UTF-8" standalone="no"?>
<!DOCTYPE svg PUBLIC "-//W3C//DTD SVG 1.1//EN"
 "http://www.w3.org/Graphics/SVG/1.1/DTD/svg11.dtd">
<!-- Generated by graphviz version 2.40.1 (20161225.0304)
 -->
<!-- Title: precice::cplscheme::ParallelCouplingScheme Pages: 1 -->
<!--zoomable 342 -->
<svg id="main" version="1.1" xmlns="http://www.w3.org/2000/svg" xmlns:xlink="http://www.w3.org/1999/xlink" xml:space="preserve" onload="init(evt)">
<style type="text/css"><![CDATA[
.edge:hover path { stroke: red; }
.edge:hover polygon { stroke: red; fill: red; }
]]></style>
<script type="text/javascript"><![CDATA[
var edges = document.getElementsByTagName('g');
if (edges && edges.length) {
  for (var i=0;i<edges.length;i++) {
    if (edges[i].id.substr(0,4)=='edge') {
      edges[i].setAttribute('class','edge');
    }
  }
}
]]></script>
        <defs>
                <circle id="rim" cx="0" cy="0" r="7"/>
                <circle id="rim2" cx="0" cy="0" r="3.5"/>
                <g id="zoomPlus">
                        <use xlink:href="#rim" fill="#404040">
                                <set attributeName="fill" to="#808080" begin="zoomplus.mouseover" end="zoomplus.mouseout"/>
                        </use>
                        <path d="M-4,0h8M0,-4v8" fill="none" stroke="white" stroke-width="1.5" pointer-events="none"/>
                </g>
                <g id="zoomMin">
                        <use xlink:href="#rim" fill="#404040">
                                <set attributeName="fill" to="#808080" begin="zoomminus.mouseover" end="zoomminus.mouseout"/>
                        </use>
                        <path d="M-4,0h8" fill="none" stroke="white" stroke-width="1.5" pointer-events="none"/>
                </g>
                <g id="dirArrow">
                        <path fill="none" stroke="white" stroke-width="1.5" d="M0,-3.0v7 M-2.5,-0.5L0,-3.0L2.5,-0.5"/>
                </g>
               <g id="resetDef">
                       <use xlink:href="#rim2" fill="#404040">
                               <set attributeName="fill" to="#808080" begin="reset.mouseover" end="reset.mouseout"/>
                       </use>
               </g>
        </defs>

<script type="text/javascript">
var viewWidth = 1431;
var viewHeight = 342;
var sectionId = 'dynsection-1';
</script>
<script xlink:href="svgpan.js"/>
<svg id="graph" class="graph">
<g id="viewport">
<title>precice::cplscheme::ParallelCouplingScheme</title>
<polygon fill="#ffffff" stroke="transparent" points="-4,4 -4,-338 1427,-338 1427,4 -4,4"/>
<!-- Node4 -->
<g id="node1" class="node">
<title>Node4</title>
<polygon fill="#bfbfbf" stroke="#000000" points="1294,-84.5 1294,-114.5 1423,-114.5 1423,-84.5 1294,-84.5"/>
<text text-anchor="start" x="1302" y="-102.5" font-family="Helvetica,sans-Serif" font-size="10.00" fill="#000000">precice::cplscheme</text>
<text text-anchor="middle" x="1358.5" y="-91.5" font-family="Helvetica,sans-Serif" font-size="10.00" fill="#000000">::ParallelCouplingScheme</text>
</g>
<!-- Node5 -->
<g id="node2" class="node">
<title>Node5</title>
<g id="a_node2"><a xlink:href="classprecice_1_1cplscheme_1_1BiCouplingScheme.html" target="_top" xlink:title="Abstract base class for coupling schemes with two participants. ">
<polygon fill="#ffffff" stroke="#000000" points="1151,-84.5 1151,-114.5 1257,-114.5 1257,-84.5 1151,-84.5"/>
<text text-anchor="start" x="1159" y="-102.5" font-family="Helvetica,sans-Serif" font-size="10.00" fill="#000000">precice::cplscheme</text>
<text text-anchor="middle" x="1204" y="-91.5" font-family="Helvetica,sans-Serif" font-size="10.00" fill="#000000">::BiCouplingScheme</text>
</a>
</g>
</g>
<!-- Node5&#45;&gt;Node4 -->
<g id="edge1" class="edge">
<title>Node5&#45;&gt;Node4</title>
<path fill="none" stroke="#191970" d="M1267.2819,-99.5C1276.0159,-99.5 1284.9963,-99.5 1293.7562,-99.5"/>
<polygon fill="#191970" stroke="#191970" points="1267.1702,-96.0001 1257.1701,-99.5 1267.1701,-103.0001 1267.1702,-96.0001"/>
</g>
<!-- Node6 -->
<g id="node3" class="node">
<title>Node6</title>
<g id="a_node3"><a xlink:href="classprecice_1_1cplscheme_1_1BaseCouplingScheme.html" target="_top" xlink:title="Abstract base class for standard coupling schemes. ">
<polygon fill="#ffffff" stroke="#000000" points="929,-155.5 929,-185.5 1048,-185.5 1048,-155.5 929,-155.5"/>
<text text-anchor="start" x="937" y="-173.5" font-family="Helvetica,sans-Serif" font-size="10.00" fill="#000000">precice::cplscheme</text>
<text text-anchor="middle" x="988.5" y="-162.5" font-family="Helvetica,sans-Serif" font-size="10.00" fill="#000000">::BaseCouplingScheme</text>
</a>
</g>
</g>
<!-- Node6&#45;&gt;Node5 -->
<g id="edge2" class="edge">
<title>Node6&#45;&gt;Node5</title>
<path fill="none" stroke="#191970" d="M1043.9326,-152.2368C1079.4381,-140.5389 1124.9515,-125.5438 1158.3639,-114.5356"/>
<polygon fill="#191970" stroke="#191970" points="1042.6046,-148.9892 1034.202,-155.4427 1044.7951,-155.6377 1042.6046,-148.9892"/>
</g>
<!-- Node7 -->
<g id="node4" class="node">
<title>Node7</title>
<g id="a_node4"><a xlink:href="classprecice_1_1cplscheme_1_1CouplingScheme.html" target="_top" xlink:title="Interface for all coupling schemes. ">
<polygon fill="#ffffff" stroke="#000000" points="643,-186.5 643,-216.5 744,-216.5 744,-186.5 643,-186.5"/>
<text text-anchor="start" x="651" y="-204.5" font-family="Helvetica,sans-Serif" font-size="10.00" fill="#000000">precice::cplscheme</text>
<text text-anchor="middle" x="693.5" y="-193.5" font-family="Helvetica,sans-Serif" font-size="10.00" fill="#000000">::CouplingScheme</text>
</a>
</g>
</g>
<!-- Node7&#45;&gt;Node6 -->
<g id="edge3" class="edge">
<title>Node7&#45;&gt;Node6</title>
<path fill="none" stroke="#191970" d="M754.4522,-195.0949C805.5416,-189.7261 878.0662,-182.1049 928.801,-176.7735"/>
<polygon fill="#191970" stroke="#191970" points="753.7917,-191.6449 744.2123,-196.1709 754.5234,-198.6066 753.7917,-191.6449"/>
</g>
<!-- Node8 -->
<g id="node5" class="node">
<title>Node8</title>
<polygon fill="#ffffff" stroke="#bfbfbf" points="607,-236 607,-277 780,-277 780,-236 607,-236"/>
<text text-anchor="start" x="615" y="-265" font-family="Helvetica,sans-Serif" font-size="10.00" fill="#000000">std::vector&lt; precice</text>
<text text-anchor="start" x="615" y="-254" font-family="Helvetica,sans-Serif" font-size="10.00" fill="#000000">::cplscheme::BaseCouplingScheme</text>
<text text-anchor="middle" x="693.5" y="-243" font-family="Helvetica,sans-Serif" font-size="10.00" fill="#000000">::ConvergenceMeasureContext &gt;</text>
</g>
<!-- Node8&#45;&gt;Node6 -->
<g id="edge4" class="edge">
<title>Node8&#45;&gt;Node6</title>
<path fill="none" stroke="#9a32cd" stroke-dasharray="5,2" d="M765.3798,-232.3779C770.3553,-230.4609 775.2692,-228.4932 780,-226.5 788.2426,-223.0273 789.5609,-220.4633 798,-217.5 843.8946,-201.3846 857.8203,-206.3364 905,-194.5 915.8262,-191.7839 927.3706,-188.6327 938.3133,-185.5249"/>
<polygon fill="#9a32cd" stroke="#9a32cd" points="763.894,-229.1973 755.7676,-235.9952 766.3596,-235.7488 763.894,-229.1973"/>
<text text-anchor="middle" x="851.5" y="-220.5" font-family="Helvetica,sans-Serif" font-size="10.00" fill="#000000"> _convergenceMeasures</text>
</g>
<!-- Node9 -->
<g id="node6" class="node">
<title>Node9</title>
<g id="a_node6"><a xlink:href="structprecice_1_1cplscheme_1_1BaseCouplingScheme_1_1ConvergenceMeasureContext.html" target="_top" xlink:title="Holds meta information to perform a convergence measurement. ">
<polygon fill="#ffffff" stroke="#000000" points="376,-232 376,-273 528,-273 528,-232 376,-232"/>
<text text-anchor="start" x="384" y="-261" font-family="Helvetica,sans-Serif" font-size="10.00" fill="#000000">precice::cplscheme</text>
<text text-anchor="start" x="384" y="-250" font-family="Helvetica,sans-Serif" font-size="10.00" fill="#000000">::BaseCouplingScheme</text>
<text text-anchor="middle" x="452" y="-239" font-family="Helvetica,sans-Serif" font-size="10.00" fill="#000000">::ConvergenceMeasureContext</text>
</a>
</g>
</g>
<!-- Node9&#45;&gt;Node8 -->
<g id="edge5" class="edge">
<title>Node9&#45;&gt;Node8</title>
<path fill="none" stroke="#9a32cd" stroke-dasharray="5,2" d="M538.1969,-253.9277C560.5044,-254.2972 584.5299,-254.6951 606.8599,-255.065"/>
<polygon fill="#9a32cd" stroke="#9a32cd" points="538.1373,-250.4263 528.0806,-253.7601 538.0213,-257.4254 538.1373,-250.4263"/>
<text text-anchor="middle" x="567.5" y="-257.5" font-family="Helvetica,sans-Serif" font-size="10.00" fill="#000000"> elements</text>
</g>
<!-- Node10 -->
<g id="node7" class="node">
<title>Node10</title>
<g id="a_node7"><a xlink:href="structprecice_1_1cplscheme_1_1CouplingData.html" target="_top" xlink:title="precice::cplscheme\l::CouplingData">
<polygon fill="#ffffff" stroke="#000000" points="168.5,-237.5 168.5,-267.5 269.5,-267.5 269.5,-237.5 168.5,-237.5"/>
<text text-anchor="start" x="176.5" y="-255.5" font-family="Helvetica,sans-Serif" font-size="10.00" fill="#000000">precice::cplscheme</text>
<text text-anchor="middle" x="219" y="-244.5" font-family="Helvetica,sans-Serif" font-size="10.00" fill="#000000">::CouplingData</text>
</a>
</g>
</g>
<!-- Node10&#45;&gt;Node9 -->
<g id="edge6" class="edge">
<title>Node10&#45;&gt;Node9</title>
<path fill="none" stroke="#9a32cd" stroke-dasharray="5,2" d="M279.676,-252.5C309.0634,-252.5 344.657,-252.5 375.8482,-252.5"/>
<polygon fill="#9a32cd" stroke="#9a32cd" points="279.5576,-249.0001 269.5575,-252.5 279.5575,-256.0001 279.5576,-249.0001"/>
<text text-anchor="middle" x="327.5" y="-255.5" font-family="Helvetica,sans-Serif" font-size="10.00" fill="#000000"> couplingData</text>
</g>
<!-- Node11 -->
<g id="node8" class="node">
<title>Node11</title>
<polygon fill="#ffffff" stroke="#bfbfbf" points="638,-148 638,-167 749,-167 749,-148 638,-148"/>
<text text-anchor="middle" x="693.5" y="-155" font-family="Helvetica,sans-Serif" font-size="10.00" fill="#000000">std::set&lt; std::string &gt;</text>
</g>
<!-- Node11&#45;&gt;Node6 -->
<g id="edge7" class="edge">
<title>Node11&#45;&gt;Node6</title>
<path fill="none" stroke="#9a32cd" stroke-dasharray="5,2" d="M759.2976,-155.4797C801.0862,-154.773 856.2848,-154.9016 905,-158.5 912.741,-159.0718 920.8557,-159.9212 928.8576,-160.9087"/>
<polygon fill="#9a32cd" stroke="#9a32cd" points="759.1774,-151.9813 749.2455,-155.6701 759.31,-158.98 759.1774,-151.9813"/>
<text text-anchor="middle" x="851.5" y="-161.5" font-family="Helvetica,sans-Serif" font-size="10.00" fill="#000000"> _actions</text>
</g>
<!-- Node12 -->
<g id="node9" class="node">
<title>Node12</title>
<g id="a_node9"><a xlink:title="STL class. ">
<polygon fill="#ffffff" stroke="#bfbfbf" points="422,-109 422,-128 482,-128 482,-109 422,-109"/>
<text text-anchor="middle" x="452" y="-116" font-family="Helvetica,sans-Serif" font-size="10.00" fill="#000000">std::string</text>
</a>
</g>
</g>
<!-- Node12&#45;&gt;Node5 -->
<g id="edge16" class="edge">
<title>Node12&#45;&gt;Node5</title>
<path fill="none" stroke="#9a32cd" stroke-dasharray="5,2" d="M492.4889,-115.6662C509.0694,-114.5708 528.449,-113.3734 546,-112.5 657.9329,-106.93 685.9577,-106.0523 798,-103.5 924.4959,-100.6185 1073.2077,-99.8113 1150.7904,-99.5862"/>
<polygon fill="#9a32cd" stroke="#9a32cd" points="491.7879,-112.2053 482.0447,-116.367 492.2566,-119.1896 491.7879,-112.2053"/>
<text text-anchor="middle" x="851.5" y="-117.5" font-family="Helvetica,sans-Serif" font-size="10.00" fill="#000000"> _firstParticipant</text>
<text text-anchor="middle" x="851.5" y="-106.5" font-family="Helvetica,sans-Serif" font-size="10.00" fill="#000000">_secondParticipant</text>
</g>
<!-- Node12&#45;&gt;Node6 -->
<g id="edge14" class="edge">
<title>Node12&#45;&gt;Node6</title>
<path fill="none" stroke="#9a32cd" stroke-dasharray="5,2" d="M492.5569,-117.6048C554.6444,-116.6871 676.9053,-116.6665 780,-127.5 836.1788,-133.4034 849.7356,-138.8058 905,-150.5 912.7293,-152.1356 920.8372,-153.9511 928.8356,-155.8021"/>
<polygon fill="#9a32cd" stroke="#9a32cd" points="492.3422,-114.1078 482.4009,-117.7712 492.4569,-121.1068 492.3422,-114.1078"/>
<text text-anchor="middle" x="693.5" y="-130.5" font-family="Helvetica,sans-Serif" font-size="10.00" fill="#000000"> _localParticipant</text>
</g>
<!-- Node12&#45;&gt;Node11 -->
<g id="edge8" class="edge">
<title>Node12&#45;&gt;Node11</title>
<path fill="none" stroke="#9a32cd" stroke-dasharray="5,2" d="M492.2181,-124.9948C531.9831,-131.4165 593.1623,-141.2964 637.6364,-148.4786"/>
<polygon fill="#9a32cd" stroke="#9a32cd" points="492.528,-121.4996 482.0978,-123.3605 491.4119,-128.4101 492.528,-121.4996"/>
<text text-anchor="middle" x="567.5" y="-142.5" font-family="Helvetica,sans-Serif" font-size="10.00" fill="#000000"> keys</text>
</g>
<!-- Node13 -->
<g id="node10" class="node">
<title>Node13</title>
<g id="a_node10"><a xlink:title="STL class. ">
<polygon fill="#ffffff" stroke="#bfbfbf" points="171.5,-103.5 171.5,-133.5 266.5,-133.5 266.5,-103.5 171.5,-103.5"/>
<text text-anchor="start" x="179.5" y="-121.5" font-family="Helvetica,sans-Serif" font-size="10.00" fill="#000000">std::basic_string&lt;</text>
<text text-anchor="middle" x="219" y="-110.5" font-family="Helvetica,sans-Serif" font-size="10.00" fill="#000000"> char &gt;</text>
</a>
</g>
</g>
<!-- Node13&#45;&gt;Node12 -->
<g id="edge9" class="edge">
<title>Node13&#45;&gt;Node12</title>
<path fill="none" stroke="#191970" d="M276.8337,-118.5C322.764,-118.5 385.1566,-118.5 421.7474,-118.5"/>
<polygon fill="#191970" stroke="#191970" points="276.7133,-115.0001 266.7133,-118.5 276.7132,-122.0001 276.7133,-115.0001"/>
</g>
<!-- Node14 -->
<g id="node11" class="node">
<title>Node14</title>
<g id="a_node11"><a xlink:href="classprecice_1_1logging_1_1Logger.html" target="_top" xlink:title="This class provides a leightweight logger. ">
<polygon fill="#ffffff" stroke="#000000" points="633.5,-297 633.5,-316 753.5,-316 753.5,-297 633.5,-297"/>
<text text-anchor="middle" x="693.5" y="-304" font-family="Helvetica,sans-Serif" font-size="10.00" fill="#000000">precice::logging::Logger</text>
</a>
</g>
</g>
<!-- Node14&#45;&gt;Node4 -->
<g id="edge19" class="edge">
<title>Node14&#45;&gt;Node4</title>
<path fill="none" stroke="#9a32cd" stroke-dasharray="5,2" d="M763.94,-301.6643C805.1096,-298.6317 858.0493,-294.3777 905,-289.5 971.4011,-282.6016 990.615,-291.4531 1054,-270.5 1169.4206,-232.3456 1290.8281,-149.0639 1338.0448,-114.7467"/>
<polygon fill="#9a32cd" stroke="#9a32cd" points="763.4564,-298.1902 753.7376,-302.4086 763.9658,-305.1716 763.4564,-298.1902"/>
<text text-anchor="middle" x="1102.5" y="-266.5" font-family="Helvetica,sans-Serif" font-size="10.00" fill="#000000"> _log</text>
</g>
<!-- Node14&#45;&gt;Node5 -->
<g id="edge15" class="edge">
<title>Node14&#45;&gt;Node5</title>
<path fill="none" stroke="#9a32cd" stroke-dasharray="5,2" d="M763.7096,-295.8425C805.3591,-288.5495 858.862,-277.475 905,-262.5 974.0626,-240.0843 989.8962,-229.5998 1054,-195.5 1101.7691,-170.0894 1154.3239,-134.559 1182.799,-114.6189"/>
<polygon fill="#9a32cd" stroke="#9a32cd" points="762.9226,-292.4263 753.6598,-297.5694 764.1081,-299.3252 762.9226,-292.4263"/>
<text text-anchor="middle" x="988.5" y="-258.5" font-family="Helvetica,sans-Serif" font-size="10.00" fill="#000000"> _log</text>
</g>
<!-- Node14&#45;&gt;Node6 -->
<g id="edge10" class="edge">
<title>Node14&#45;&gt;Node6</title>
<path fill="none" stroke="#9a32cd" stroke-dasharray="5,2" d="M763.3543,-296.1535C769.3113,-293.5866 774.9716,-290.4147 780,-286.5 793.8025,-275.7545 784.1147,-262.1383 798,-251.5 836.612,-221.9173 860.3783,-247.863 905,-228.5 929.9354,-217.6796 955.0872,-198.8886 971.1714,-185.6323"/>
<polygon fill="#9a32cd" stroke="#9a32cd" points="761.9493,-292.9417 753.7974,-299.709 764.3902,-299.5024 761.9493,-292.9417"/>
<text text-anchor="middle" x="851.5" y="-254.5" font-family="Helvetica,sans-Serif" font-size="10.00" fill="#000000"> _log</text>
</g>
<!-- Node15 -->
<g id="node12" class="node">
<title>Node15</title>
<polygon fill="#ffffff" stroke="#bfbfbf" points="376,-292.5 376,-322.5 528,-322.5 528,-292.5 376,-292.5"/>
<text text-anchor="start" x="384" y="-310.5" font-family="Helvetica,sans-Serif" font-size="10.00" fill="#000000">std::unique_ptr&lt; precice</text>
<text text-anchor="middle" x="452" y="-299.5" font-family="Helvetica,sans-Serif" font-size="10.00" fill="#000000">::logging::Logger::LoggerImpl &gt;</text>
</g>
<!-- Node15&#45;&gt;Node14 -->
<g id="edge11" class="edge">
<title>Node15&#45;&gt;Node14</title>
<path fill="none" stroke="#9a32cd" stroke-dasharray="5,2" d="M538.1902,-307.1431C569.7373,-307.0125 604.7211,-306.8676 633.487,-306.7485"/>
<polygon fill="#9a32cd" stroke="#9a32cd" points="538.066,-303.6435 528.0806,-307.185 538.0951,-310.6434 538.066,-303.6435"/>
<text text-anchor="middle" x="567.5" y="-309.5" font-family="Helvetica,sans-Serif" font-size="10.00" fill="#000000"> _impl</text>
</g>
<!-- Node16 -->
<g id="node13" class="node">
<title>Node16</title>
<g id="a_node13"><a xlink:href="classprecice_1_1logging_1_1Logger_1_1LoggerImpl.html" target="_top" xlink:title="precice::logging::Logger\l::LoggerImpl">
<polygon fill="#ffffff" stroke="#000000" points="159,-292.5 159,-322.5 279,-322.5 279,-292.5 159,-292.5"/>
<text text-anchor="start" x="167" y="-310.5" font-family="Helvetica,sans-Serif" font-size="10.00" fill="#000000">precice::logging::Logger</text>
<text text-anchor="middle" x="219" y="-299.5" font-family="Helvetica,sans-Serif" font-size="10.00" fill="#000000">::LoggerImpl</text>
</a>
</g>
</g>
<!-- Node16&#45;&gt;Node15 -->
<g id="edge12" class="edge">
<title>Node16&#45;&gt;Node15</title>
<path fill="none" stroke="#9a32cd" stroke-dasharray="5,2" d="M289.2688,-307.5C316.6128,-307.5 348.0128,-307.5 375.891,-307.5"/>
<polygon fill="#9a32cd" stroke="#9a32cd" points="289.0033,-304.0001 279.0033,-307.5 289.0033,-311.0001 289.0033,-304.0001"/>
<text text-anchor="middle" x="327.5" y="-310.5" font-family="Helvetica,sans-Serif" font-size="10.00" fill="#000000"> ptr</text>
</g>
<!-- Node17 -->
<g id="node14" class="node">
<title>Node17</title>
<polygon fill="#ffffff" stroke="#bfbfbf" points="0,-281.5 0,-333.5 122,-333.5 122,-281.5 0,-281.5"/>
<text text-anchor="start" x="8" y="-321.5" font-family="Helvetica,sans-Serif" font-size="10.00" fill="#000000">boost::log::sources</text>
<text text-anchor="start" x="8" y="-310.5" font-family="Helvetica,sans-Serif" font-size="10.00" fill="#000000">::severity_logger&lt; boost</text>
<text text-anchor="start" x="8" y="-299.5" font-family="Helvetica,sans-Serif" font-size="10.00" fill="#000000">::log::trivial::severity</text>
<text text-anchor="middle" x="61" y="-288.5" font-family="Helvetica,sans-Serif" font-size="10.00" fill="#000000">_level &gt;</text>
</g>
<!-- Node17&#45;&gt;Node16 -->
<g id="edge13" class="edge">
<title>Node17&#45;&gt;Node16</title>
<path fill="none" stroke="#191970" d="M132.0959,-307.5C141.0342,-307.5 150.1088,-307.5 158.8559,-307.5"/>
<polygon fill="#191970" stroke="#191970" points="132.087,-304.0001 122.0869,-307.5 132.0869,-311.0001 132.087,-304.0001"/>
</g>
<!-- Node18 -->
<g id="node15" class="node">
<title>Node18</title>
<polygon fill="#ffffff" stroke="#bfbfbf" points="923,-.5 923,-30.5 1054,-30.5 1054,-.5 923,-.5"/>
<text text-anchor="start" x="931" y="-18.5" font-family="Helvetica,sans-Serif" font-size="10.00" fill="#000000">std::map&lt; int, PtrCoupling</text>
<text text-anchor="middle" x="988.5" y="-7.5" font-family="Helvetica,sans-Serif" font-size="10.00" fill="#000000">Data &gt;</text>
</g>
<!-- Node18&#45;&gt;Node4 -->
<g id="edge20" class="edge">
<title>Node18&#45;&gt;Node4</title>
<path fill="none" stroke="#9a32cd" stroke-dasharray="5,2" d="M1064.1403,-11.1229C1086.4644,-11.1471 1110.8461,-12.4732 1133,-16.5 1205.6488,-29.7049 1285.6365,-64.3275 1328.0856,-84.4385"/>
<polygon fill="#9a32cd" stroke="#9a32cd" points="1064.017,-7.6236 1054.0435,-11.1984 1064.0694,-14.6234 1064.017,-7.6236"/>
<text text-anchor="middle" x="1204" y="-56.5" font-family="Helvetica,sans-Serif" font-size="10.00" fill="#000000"> _allData</text>
</g>
<!-- Node18&#45;&gt;Node5 -->
<g id="edge17" class="edge">
<title>Node18&#45;&gt;Node5</title>
<path fill="none" stroke="#9a32cd" stroke-dasharray="5,2" d="M1064.1368,-18.1786C1087.0597,-21.1543 1111.7729,-26.6349 1133,-36.5 1156.9109,-47.6123 1178.6676,-69.4436 1191.6226,-84.2544"/>
<polygon fill="#9a32cd" stroke="#9a32cd" points="1064.4311,-14.6894 1054.0949,-17.0161 1063.626,-21.643 1064.4311,-14.6894"/>
<text text-anchor="middle" x="1102.5" y="-50.5" font-family="Helvetica,sans-Serif" font-size="10.00" fill="#000000"> _receiveData</text>
<text text-anchor="middle" x="1102.5" y="-39.5" font-family="Helvetica,sans-Serif" font-size="10.00" fill="#000000">_sendData</text>
</g>
<!-- Node19 -->
<g id="node16" class="node">
<title>Node19</title>
<polygon fill="#ffffff" stroke="#bfbfbf" points="649,-6 649,-25 738,-25 738,-6 649,-6"/>
<text text-anchor="middle" x="693.5" y="-13" font-family="Helvetica,sans-Serif" font-size="10.00" fill="#000000">PtrCouplingData</text>
</g>
<!-- Node19&#45;&gt;Node18 -->
<g id="edge18" class="edge">
<title>Node19&#45;&gt;Node18</title>
<path fill="none" stroke="#9a32cd" stroke-dasharray="5,2" d="M748.4819,-15.5C797.9044,-15.5 870.5687,-15.5 922.987,-15.5"/>
<polygon fill="#9a32cd" stroke="#9a32cd" points="748.3042,-12.0001 738.3042,-15.5 748.3041,-19.0001 748.3042,-12.0001"/>
<text text-anchor="middle" x="851.5" y="-18.5" font-family="Helvetica,sans-Serif" font-size="10.00" fill="#000000"> elements</text>
</g>
</g>
</svg>
        <g id="navigator" transform="translate(0 0)" fill="#404254">
                <rect fill="#f2f5e9" fill-opacity="0.5" stroke="#606060" stroke-width=".5" x="0" y="0" width="60" height="60"/>
                <use id="zoomplus" xlink:href="#zoomPlus" x="17" y="9" onmousedown="handleZoom(evt,'in')"/>
                <use id="zoomminus" xlink:href="#zoomMin" x="42" y="9" onmousedown="handleZoom(evt,'out')"/>
                <use id="reset" xlink:href="#resetDef" x="30" y="36" onmousedown="handleReset()"/>
                <g id="arrowUp" xlink:href="#dirArrow" transform="translate(30 24)" onmousedown="handlePan(0,-1)">
                  <use xlink:href="#rim" fill="#404040">
                        <set attributeName="fill" to="#808080" begin="arrowUp.mouseover" end="arrowUp.mouseout"/>
                  </use>
                  <path fill="none" stroke="white" stroke-width="1.5" d="M0,-3.0v7 M-2.5,-0.5L0,-3.0L2.5,-0.5"/>
                </g>
                <g id="arrowRight" xlink:href="#dirArrow" transform="rotate(90) translate(36 -43)" onmousedown="handlePan(1,0)">
                  <use xlink:href="#rim" fill="#404040">
                        <set attributeName="fill" to="#808080" begin="arrowRight.mouseover" end="arrowRight.mouseout"/>
                  </use>
                  <path fill="none" stroke="white" stroke-width="1.5" d="M0,-3.0v7 M-2.5,-0.5L0,-3.0L2.5,-0.5"/>
                </g>
                <g id="arrowDown" xlink:href="#dirArrow" transform="rotate(180) translate(-30 -48)" onmousedown="handlePan(0,1)">
                  <use xlink:href="#rim" fill="#404040">
                        <set attributeName="fill" to="#808080" begin="arrowDown.mouseover" end="arrowDown.mouseout"/>
                  </use>
                  <path fill="none" stroke="white" stroke-width="1.5" d="M0,-3.0v7 M-2.5,-0.5L0,-3.0L2.5,-0.5"/>
                </g>
                <g id="arrowLeft" xlink:href="#dirArrow" transform="rotate(270) translate(-36 17)" onmousedown="handlePan(-1,0)">
                  <use xlink:href="#rim" fill="#404040">
                        <set attributeName="fill" to="#808080" begin="arrowLeft.mouseover" end="arrowLeft.mouseout"/>
                  </use>
                  <path fill="none" stroke="white" stroke-width="1.5" d="M0,-3.0v7 M-2.5,-0.5L0,-3.0L2.5,-0.5"/>
                </g>
        </g>
        <svg viewBox="0 0 15 15" width="100%" height="30px" preserveAspectRatio="xMaxYMin meet">
         <g id="arrow_out" transform="scale(0.3 0.3)">
          <a xlink:href="classprecice_1_1cplscheme_1_1ParallelCouplingScheme__coll__graph_org.svg" target="_base">
           <rect id="button" ry="5" rx="5" y="6" x="6" height="38" width="38"
                fill="#f2f5e9" fill-opacity="0.5" stroke="#606060" stroke-width="1.0"/>
           <path id="arrow"
             d="M 11.500037,31.436501 C 11.940474,20.09759 22.043105,11.32322 32.158766,21.979434 L 37.068811,17.246167 C 37.068811,17.246167 37.088388,32 37.088388,32 L 22.160133,31.978069 C 22.160133,31.978069 26.997745,27.140456 26.997745,27.140456 C 18.528582,18.264221 13.291696,25.230495 11.500037,31.436501 z"
             style="fill:#404040;"/>
          </a>
         </g>
        </svg>
</svg>
