<?xml version="1.0" encoding="UTF-8" standalone="no"?>
<!DOCTYPE svg PUBLIC "-//W3C//DTD SVG 1.1//EN"
 "http://www.w3.org/Graphics/SVG/1.1/DTD/svg11.dtd">
<!-- Generated by graphviz version 2.40.1 (20161225.0304)
 -->
<!-- Title: precice::config::SolverInterfaceConfiguration::~SolverInterfaceConfiguration Pages: 1 -->
<!--zoomable 137 -->
<svg id="main" version="1.1" xmlns="http://www.w3.org/2000/svg" xmlns:xlink="http://www.w3.org/1999/xlink" xml:space="preserve" onload="init(evt)">
<style type="text/css"><![CDATA[
.edge:hover path { stroke: red; }
.edge:hover polygon { stroke: red; fill: red; }
]]></style>
<script type="text/javascript"><![CDATA[
var edges = document.getElementsByTagName('g');
if (edges && edges.length) {
  for (var i=0;i<edges.length;i++) {
    if (edges[i].id.substr(0,4)=='edge') {
      edges[i].setAttribute('class','edge');
    }
  }
}
]]></script>
        <defs>
                <circle id="rim" cx="0" cy="0" r="7"/>
                <circle id="rim2" cx="0" cy="0" r="3.5"/>
                <g id="zoomPlus">
                        <use xlink:href="#rim" fill="#404040">
                                <set attributeName="fill" to="#808080" begin="zoomplus.mouseover" end="zoomplus.mouseout"/>
                        </use>
                        <path d="M-4,0h8M0,-4v8" fill="none" stroke="white" stroke-width="1.5" pointer-events="none"/>
                </g>
                <g id="zoomMin">
                        <use xlink:href="#rim" fill="#404040">
                                <set attributeName="fill" to="#808080" begin="zoomminus.mouseover" end="zoomminus.mouseout"/>
                        </use>
                        <path d="M-4,0h8" fill="none" stroke="white" stroke-width="1.5" pointer-events="none"/>
                </g>
                <g id="dirArrow">
                        <path fill="none" stroke="white" stroke-width="1.5" d="M0,-3.0v7 M-2.5,-0.5L0,-3.0L2.5,-0.5"/>
                </g>
               <g id="resetDef">
                       <use xlink:href="#rim2" fill="#404040">
                               <set attributeName="fill" to="#808080" begin="reset.mouseover" end="reset.mouseout"/>
                       </use>
               </g>
        </defs>

<script type="text/javascript">
var viewWidth = 620;
var viewHeight = 137;
var sectionId = 'dynsection-3';
</script>
<script xlink:href="svgpan.js"/>
<svg id="graph" class="graph">
<g id="viewport">
<title>precice::config::SolverInterfaceConfiguration::~SolverInterfaceConfiguration</title>
<polygon fill="#ffffff" stroke="transparent" points="-4,4 -4,-133 616,-133 616,4 -4,4"/>
<!-- Node3 -->
<g id="node1" class="node">
<title>Node3</title>
<polygon fill="#bfbfbf" stroke="#000000" points="0,-49.5 0,-79.5 236,-79.5 236,-49.5 0,-49.5"/>
<text text-anchor="start" x="8" y="-67.5" font-family="Helvetica,sans-Serif" font-size="10.00" fill="#000000">precice::config::SolverInterface</text>
<text text-anchor="middle" x="118" y="-56.5" font-family="Helvetica,sans-Serif" font-size="10.00" fill="#000000">Configuration::~SolverInterfaceConfiguration</text>
</g>
<!-- Node4 -->
<g id="node2" class="node">
<title>Node4</title>
<g id="a_node2"><a xlink:href="classprecice_1_1config_1_1SolverInterfaceConfiguration.html#abd0dfc3a2049834b495a46a0a82e59dc" target="_top" xlink:title="Callback method required when using xml::XMLTag. ">
<polygon fill="#ffffff" stroke="#000000" points="280,-49.5 280,-79.5 447,-79.5 447,-49.5 280,-49.5"/>
<text text-anchor="start" x="288" y="-67.5" font-family="Helvetica,sans-Serif" font-size="10.00" fill="#000000">precice::config::SolverInterface</text>
<text text-anchor="middle" x="363.5" y="-56.5" font-family="Helvetica,sans-Serif" font-size="10.00" fill="#000000">Configuration::xmlTagCallback</text>
</a>
</g>
</g>
<!-- Node3&#45;&gt;Node4 -->
<g id="edge1" class="edge">
<title>Node3&#45;&gt;Node4</title>
<path fill="none" stroke="#191970" d="M236.076,-64.5C247.3616,-64.5 258.7001,-64.5 269.709,-64.5"/>
<polygon fill="#191970" stroke="#191970" points="269.7156,-68.0001 279.7155,-64.5 269.7155,-61.0001 269.7156,-68.0001"/>
</g>
<!-- Node7 -->
<g id="node5" class="node">
<title>Node7</title>
<g id="a_node5"><a xlink:href="classprecice_1_1config_1_1SolverInterfaceConfiguration.html#ac441579bc18b854c980bf0d83e795642" target="_top" xlink:title="Callback method required when using xml::XMLTag. ">
<polygon fill="#ffffff" stroke="#000000" points="272,-98.5 272,-128.5 455,-128.5 455,-98.5 272,-98.5"/>
<text text-anchor="start" x="280" y="-116.5" font-family="Helvetica,sans-Serif" font-size="10.00" fill="#000000">precice::config::SolverInterface</text>
<text text-anchor="middle" x="363.5" y="-105.5" font-family="Helvetica,sans-Serif" font-size="10.00" fill="#000000">Configuration::xmlEndTagCallback</text>
</a>
</g>
</g>
<!-- Node3&#45;&gt;Node7 -->
<g id="edge4" class="edge">
<title>Node3&#45;&gt;Node7</title>
<path fill="none" stroke="#191970" d="M193.3265,-79.5346C220.1905,-84.8965 250.6354,-90.9731 278.2727,-96.4892"/>
<polygon fill="#191970" stroke="#191970" points="277.8243,-99.9687 288.3159,-98.4938 279.1945,-93.1041 277.8243,-99.9687"/>
</g>
<!-- Node8 -->
<g id="node6" class="node">
<title>Node8</title>
<g id="a_node6"><a xlink:href="classprecice_1_1config_1_1SolverInterfaceConfiguration.html#a1f0b9446b315690d3f5267b2b0eb134c" target="_top" xlink:title="Returns number of spatial dimensions configured. ">
<polygon fill="#ffffff" stroke="#000000" points="280,-.5 280,-30.5 447,-30.5 447,-.5 280,-.5"/>
<text text-anchor="start" x="288" y="-18.5" font-family="Helvetica,sans-Serif" font-size="10.00" fill="#000000">precice::config::SolverInterface</text>
<text text-anchor="middle" x="363.5" y="-7.5" font-family="Helvetica,sans-Serif" font-size="10.00" fill="#000000">Configuration::getDimensions</text>
</a>
</g>
</g>
<!-- Node3&#45;&gt;Node8 -->
<g id="edge6" class="edge">
<title>Node3&#45;&gt;Node8</title>
<path fill="none" stroke="#191970" d="M193.3265,-49.4654C220.1905,-44.1035 250.6354,-38.0269 278.2727,-32.5108"/>
<polygon fill="#191970" stroke="#191970" points="279.1945,-35.8959 288.3159,-30.5062 277.8243,-29.0313 279.1945,-35.8959"/>
</g>
<!-- Node5 -->
<g id="node3" class="node">
<title>Node5</title>
<g id="a_node3"><a xlink:href="classprecice_1_1xml_1_1XMLTag.html#a0ef9cef092179e6b86eaf5144fa5c088" target="_top" xlink:title="Returns name (without namespace). ">
<polygon fill="#ffffff" stroke="#000000" points="492.5,-98.5 492.5,-128.5 610.5,-128.5 610.5,-98.5 492.5,-98.5"/>
<text text-anchor="start" x="500.5" y="-116.5" font-family="Helvetica,sans-Serif" font-size="10.00" fill="#000000">precice::xml::XMLTag</text>
<text text-anchor="middle" x="551.5" y="-105.5" font-family="Helvetica,sans-Serif" font-size="10.00" fill="#000000">::getName</text>
</a>
</g>
</g>
<!-- Node4&#45;&gt;Node5 -->
<g id="edge2" class="edge">
<title>Node4&#45;&gt;Node5</title>
<path fill="none" stroke="#191970" d="M421.1838,-79.5346C441.034,-84.7083 463.4374,-90.5475 483.9987,-95.9066"/>
<polygon fill="#191970" stroke="#191970" points="483.3658,-99.3585 493.9252,-98.4938 485.1313,-92.5848 483.3658,-99.3585"/>
</g>
<!-- Node6 -->
<g id="node4" class="node">
<title>Node6</title>
<g id="a_node4"><a xlink:href="classprecice_1_1xml_1_1XMLTag.html#a8fe10de30c334021412dc01faddcd0da" target="_top" xlink:title="precice::xml::XMLTag\l::getIntAttributeValue">
<polygon fill="#ffffff" stroke="#000000" points="491,-49.5 491,-79.5 612,-79.5 612,-49.5 491,-49.5"/>
<text text-anchor="start" x="499" y="-67.5" font-family="Helvetica,sans-Serif" font-size="10.00" fill="#000000">precice::xml::XMLTag</text>
<text text-anchor="middle" x="551.5" y="-56.5" font-family="Helvetica,sans-Serif" font-size="10.00" fill="#000000">::getIntAttributeValue</text>
</a>
</g>
</g>
<!-- Node4&#45;&gt;Node6 -->
<g id="edge3" class="edge">
<title>Node4&#45;&gt;Node6</title>
<path fill="none" stroke="#191970" d="M447.0544,-64.5C458.2018,-64.5 469.5476,-64.5 480.4543,-64.5"/>
<polygon fill="#191970" stroke="#191970" points="480.7559,-68.0001 490.7559,-64.5 480.7558,-61.0001 480.7559,-68.0001"/>
</g>
<!-- Node7&#45;&gt;Node5 -->
<g id="edge5" class="edge">
<title>Node7&#45;&gt;Node5</title>
<path fill="none" stroke="#191970" d="M455.0217,-113.5C464.1498,-113.5 473.309,-113.5 482.1548,-113.5"/>
<polygon fill="#191970" stroke="#191970" points="482.3744,-117.0001 492.3744,-113.5 482.3744,-110.0001 482.3744,-117.0001"/>
</g>
</g>
</svg>
        <g id="navigator" transform="translate(0 0)" fill="#404254">
                <rect fill="#f2f5e9" fill-opacity="0.5" stroke="#606060" stroke-width=".5" x="0" y="0" width="60" height="60"/>
                <use id="zoomplus" xlink:href="#zoomPlus" x="17" y="9" onmousedown="handleZoom(evt,'in')"/>
                <use id="zoomminus" xlink:href="#zoomMin" x="42" y="9" onmousedown="handleZoom(evt,'out')"/>
                <use id="reset" xlink:href="#resetDef" x="30" y="36" onmousedown="handleReset()"/>
                <g id="arrowUp" xlink:href="#dirArrow" transform="translate(30 24)" onmousedown="handlePan(0,-1)">
                  <use xlink:href="#rim" fill="#404040">
                        <set attributeName="fill" to="#808080" begin="arrowUp.mouseover" end="arrowUp.mouseout"/>
                  </use>
                  <path fill="none" stroke="white" stroke-width="1.5" d="M0,-3.0v7 M-2.5,-0.5L0,-3.0L2.5,-0.5"/>
                </g>
                <g id="arrowRight" xlink:href="#dirArrow" transform="rotate(90) translate(36 -43)" onmousedown="handlePan(1,0)">
                  <use xlink:href="#rim" fill="#404040">
                        <set attributeName="fill" to="#808080" begin="arrowRight.mouseover" end="arrowRight.mouseout"/>
                  </use>
                  <path fill="none" stroke="white" stroke-width="1.5" d="M0,-3.0v7 M-2.5,-0.5L0,-3.0L2.5,-0.5"/>
                </g>
                <g id="arrowDown" xlink:href="#dirArrow" transform="rotate(180) translate(-30 -48)" onmousedown="handlePan(0,1)">
                  <use xlink:href="#rim" fill="#404040">
                        <set attributeName="fill" to="#808080" begin="arrowDown.mouseover" end="arrowDown.mouseout"/>
                  </use>
                  <path fill="none" stroke="white" stroke-width="1.5" d="M0,-3.0v7 M-2.5,-0.5L0,-3.0L2.5,-0.5"/>
                </g>
                <g id="arrowLeft" xlink:href="#dirArrow" transform="rotate(270) translate(-36 17)" onmousedown="handlePan(-1,0)">
                  <use xlink:href="#rim" fill="#404040">
                        <set attributeName="fill" to="#808080" begin="arrowLeft.mouseover" end="arrowLeft.mouseout"/>
                  </use>
                  <path fill="none" stroke="white" stroke-width="1.5" d="M0,-3.0v7 M-2.5,-0.5L0,-3.0L2.5,-0.5"/>
                </g>
        </g>
        <svg viewBox="0 0 15 15" width="100%" height="30px" preserveAspectRatio="xMaxYMin meet">
         <g id="arrow_out" transform="scale(0.3 0.3)">
          <a xlink:href="classprecice_1_1config_1_1SolverInterfaceConfiguration_ad8b9f7a8125aa025d6486affd3c05e44_cgraph_org.svg" target="_base">
           <rect id="button" ry="5" rx="5" y="6" x="6" height="38" width="38"
                fill="#f2f5e9" fill-opacity="0.5" stroke="#606060" stroke-width="1.0"/>
           <path id="arrow"
             d="M 11.500037,31.436501 C 11.940474,20.09759 22.043105,11.32322 32.158766,21.979434 L 37.068811,17.246167 C 37.068811,17.246167 37.088388,32 37.088388,32 L 22.160133,31.978069 C 22.160133,31.978069 26.997745,27.140456 26.997745,27.140456 C 18.528582,18.264221 13.291696,25.230495 11.500037,31.436501 z"
             style="fill:#404040;"/>
          </a>
         </g>
        </svg>
</svg>
