<?xml version="1.0" encoding="UTF-8" standalone="no"?>
<!DOCTYPE svg PUBLIC "-//W3C//DTD SVG 1.1//EN"
 "http://www.w3.org/Graphics/SVG/1.1/DTD/svg11.dtd">
<!-- Generated by graphviz version 2.40.1 (20161225.0304)
 -->
<!-- Title: precice::m2n::PointToPointCommunication::requestPreConnection Pages: 1 -->
<svg width="411pt" height="88pt"
 viewBox="0.00 0.00 411.00 88.00" xmlns="http://www.w3.org/2000/svg" xmlns:xlink="http://www.w3.org/1999/xlink">
<g id="graph0" class="graph" transform="scale(1 1) rotate(0) translate(4 84)">
<title>precice::m2n::PointToPointCommunication::requestPreConnection</title>
<polygon fill="#ffffff" stroke="transparent" points="-4,4 -4,-84 407,-84 407,4 -4,4"/>
<!-- Node102 -->
<g id="node1" class="node">
<title>Node102</title>
<polygon fill="#bfbfbf" stroke="#000000" points="0,-24.5 0,-54.5 207,-54.5 207,-24.5 0,-24.5"/>
<text text-anchor="start" x="8" y="-42.5" font-family="Helvetica,sans-Serif" font-size="10.00" fill="#000000">precice::m2n::PointToPoint</text>
<text text-anchor="middle" x="103.5" y="-31.5" font-family="Helvetica,sans-Serif" font-size="10.00" fill="#000000">Communication::requestPreConnection</text>
</g>
<!-- Node103 -->
<g id="node2" class="node">
<title>Node103</title>
<g id="a_node2"><a xlink:href="classprecice_1_1m2n_1_1PointToPointCommunication.html#a3a8e2e7fc421ffb7a8a8e0730f875909" target="_top" xlink:title="Returns true, if a connection to a remote participant has been established. ">
<polygon fill="#ffffff" stroke="#000000" points="243,-49.5 243,-79.5 403,-79.5 403,-49.5 243,-49.5"/>
<text text-anchor="start" x="251" y="-67.5" font-family="Helvetica,sans-Serif" font-size="10.00" fill="#000000">precice::m2n::PointToPoint</text>
<text text-anchor="middle" x="323" y="-56.5" font-family="Helvetica,sans-Serif" font-size="10.00" fill="#000000">Communication::isConnected</text>
</a>
</g>
</g>
<!-- Node102&#45;&gt;Node103 -->
<g id="edge1" class="edge">
<title>Node102&#45;&gt;Node103</title>
<path fill="none" stroke="#191970" d="M207.1437,-51.3045C215.6665,-52.2752 224.2387,-53.2516 232.6536,-54.21"/>
<polygon fill="#191970" stroke="#191970" points="232.4943,-57.7144 242.8262,-55.3686 233.2865,-50.7593 232.4943,-57.7144"/>
</g>
<!-- Node104 -->
<g id="node3" class="node">
<title>Node104</title>
<g id="a_node3"><a xlink:href="classprecice_1_1utils_1_1MasterSlave.html#af0deae7c83eae7f8e6908a2879bfb0e3" target="_top" xlink:title="Current rank. ">
<polygon fill="#ffffff" stroke="#000000" points="250.5,-.5 250.5,-30.5 395.5,-30.5 395.5,-.5 250.5,-.5"/>
<text text-anchor="start" x="258.5" y="-18.5" font-family="Helvetica,sans-Serif" font-size="10.00" fill="#000000">precice::utils::MasterSlave</text>
<text text-anchor="middle" x="323" y="-7.5" font-family="Helvetica,sans-Serif" font-size="10.00" fill="#000000">::getRank</text>
</a>
</g>
</g>
<!-- Node102&#45;&gt;Node104 -->
<g id="edge2" class="edge">
<title>Node102&#45;&gt;Node104</title>
<path fill="none" stroke="#191970" d="M207.1437,-28.1677C218.2473,-26.9536 229.4346,-25.7304 240.249,-24.5479"/>
<polygon fill="#191970" stroke="#191970" points="240.9279,-27.9947 250.4882,-23.4284 240.167,-21.0361 240.9279,-27.9947"/>
</g>
</g>
</svg>
