<?xml version="1.0" encoding="UTF-8" standalone="no"?>
<!DOCTYPE svg PUBLIC "-//W3C//DTD SVG 1.1//EN"
 "http://www.w3.org/Graphics/SVG/1.1/DTD/svg11.dtd">
<!-- Generated by graphviz version 2.40.1 (20161225.0304)
 -->
<!-- Title: precice::acceleration::impl::ParallelMatrixOperations::_multiplyNM_block Pages: 1 -->
<svg width="330pt" height="225pt"
 viewBox="0.00 0.00 330.00 225.00" xmlns="http://www.w3.org/2000/svg" xmlns:xlink="http://www.w3.org/1999/xlink">
<g id="graph0" class="graph" transform="scale(1 1) rotate(0) translate(4 221)">
<title>precice::acceleration::impl::ParallelMatrixOperations::_multiplyNM_block</title>
<polygon fill="#ffffff" stroke="transparent" points="-4,4 -4,-221 326,-221 326,4 -4,4"/>
<!-- Node3 -->
<g id="node1" class="node">
<title>Node3</title>
<polygon fill="#bfbfbf" stroke="#000000" points="0,-88 0,-129 153,-129 153,-88 0,-88"/>
<text text-anchor="start" x="8" y="-117" font-family="Helvetica,sans-Serif" font-size="10.00" fill="#000000">precice::acceleration</text>
<text text-anchor="start" x="8" y="-106" font-family="Helvetica,sans-Serif" font-size="10.00" fill="#000000">::impl::ParallelMatrixOperations</text>
<text text-anchor="middle" x="76.5" y="-95" font-family="Helvetica,sans-Serif" font-size="10.00" fill="#000000">::_multiplyNM_block</text>
</g>
<!-- Node4 -->
<g id="node2" class="node">
<title>Node4</title>
<g id="a_node2"><a xlink:href="classprecice_1_1utils_1_1MasterSlave.html#a2633ea74e009a3743307da856f1c41ba" target="_top" xlink:title="precice::utils::MasterSlave\l::reduceSum">
<polygon fill="#ffffff" stroke="#000000" points="189,-186.5 189,-216.5 322,-216.5 322,-186.5 189,-186.5"/>
<text text-anchor="start" x="197" y="-204.5" font-family="Helvetica,sans-Serif" font-size="10.00" fill="#000000">precice::utils::MasterSlave</text>
<text text-anchor="middle" x="255.5" y="-193.5" font-family="Helvetica,sans-Serif" font-size="10.00" fill="#000000">::reduceSum</text>
</a>
</g>
</g>
<!-- Node3&#45;&gt;Node4 -->
<g id="edge1" class="edge">
<title>Node3&#45;&gt;Node4</title>
<path fill="none" stroke="#191970" d="M106.5844,-129.2858C128.7145,-143.9887 159.8855,-163.4985 189,-177.5 192.7332,-179.2953 196.6379,-181.0344 200.604,-182.7009"/>
<polygon fill="#191970" stroke="#191970" points="199.3341,-185.9626 209.9177,-186.4499 201.9479,-179.4689 199.3341,-185.9626"/>
</g>
<!-- Node5 -->
<g id="node3" class="node">
<title>Node5</title>
<g id="a_node3"><a xlink:href="classprecice_1_1utils_1_1MasterSlave.html#a3837ad42361b53d7e930443ba07a9eb5" target="_top" xlink:title="True if this process is running a slave. ">
<polygon fill="#ffffff" stroke="#000000" points="189,-137.5 189,-167.5 322,-167.5 322,-137.5 189,-137.5"/>
<text text-anchor="start" x="197" y="-155.5" font-family="Helvetica,sans-Serif" font-size="10.00" fill="#000000">precice::utils::MasterSlave</text>
<text text-anchor="middle" x="255.5" y="-144.5" font-family="Helvetica,sans-Serif" font-size="10.00" fill="#000000">::isSlave</text>
</a>
</g>
</g>
<!-- Node3&#45;&gt;Node5 -->
<g id="edge2" class="edge">
<title>Node3&#45;&gt;Node5</title>
<path fill="none" stroke="#191970" d="M153.1911,-127.3514C163.6178,-129.9144 174.2814,-132.5357 184.5999,-135.0721"/>
<polygon fill="#191970" stroke="#191970" points="183.8218,-138.4849 194.3682,-137.4732 185.4928,-131.6873 183.8218,-138.4849"/>
</g>
<!-- Node6 -->
<g id="node4" class="node">
<title>Node6</title>
<g id="a_node4"><a xlink:href="namespaceprecice_1_1m2n.html#abbc7dfdfd94e39ff9da8d2acfca89427" target="_top" xlink:title="precice::m2n::receive">
<polygon fill="#ffffff" stroke="#000000" points="200.5,-99 200.5,-118 310.5,-118 310.5,-99 200.5,-99"/>
<text text-anchor="middle" x="255.5" y="-106" font-family="Helvetica,sans-Serif" font-size="10.00" fill="#000000">precice::m2n::receive</text>
</a>
</g>
</g>
<!-- Node3&#45;&gt;Node6 -->
<g id="edge3" class="edge">
<title>Node3&#45;&gt;Node6</title>
<path fill="none" stroke="#191970" d="M153.1911,-108.5C165.4474,-108.5 178.031,-108.5 189.9967,-108.5"/>
<polygon fill="#191970" stroke="#191970" points="190.3293,-112.0001 200.3292,-108.5 190.3292,-105.0001 190.3293,-112.0001"/>
</g>
<!-- Node7 -->
<g id="node5" class="node">
<title>Node7</title>
<g id="a_node5"><a xlink:href="classprecice_1_1utils_1_1MasterSlave.html#a5e934392c32335daa8e2b4a01bc75fd3" target="_top" xlink:title="True if this process is running the master. ">
<polygon fill="#ffffff" stroke="#000000" points="189,-49.5 189,-79.5 322,-79.5 322,-49.5 189,-49.5"/>
<text text-anchor="start" x="197" y="-67.5" font-family="Helvetica,sans-Serif" font-size="10.00" fill="#000000">precice::utils::MasterSlave</text>
<text text-anchor="middle" x="255.5" y="-56.5" font-family="Helvetica,sans-Serif" font-size="10.00" fill="#000000">::isMaster</text>
</a>
</g>
</g>
<!-- Node3&#45;&gt;Node7 -->
<g id="edge4" class="edge">
<title>Node3&#45;&gt;Node7</title>
<path fill="none" stroke="#191970" d="M153.1911,-89.6486C163.6178,-87.0856 174.2814,-84.4643 184.5999,-81.9279"/>
<polygon fill="#191970" stroke="#191970" points="185.4928,-85.3127 194.3682,-79.5268 183.8218,-78.5151 185.4928,-85.3127"/>
</g>
<!-- Node8 -->
<g id="node6" class="node">
<title>Node8</title>
<g id="a_node6"><a xlink:href="classprecice_1_1utils_1_1MasterSlave.html#ae8671e778dec26782120295d51bb3fde" target="_top" xlink:title="Number of ranks. This includes ranks from both participants, e.g. minimal size is 2...">
<polygon fill="#ffffff" stroke="#000000" points="189,-.5 189,-30.5 322,-30.5 322,-.5 189,-.5"/>
<text text-anchor="start" x="197" y="-18.5" font-family="Helvetica,sans-Serif" font-size="10.00" fill="#000000">precice::utils::MasterSlave</text>
<text text-anchor="middle" x="255.5" y="-7.5" font-family="Helvetica,sans-Serif" font-size="10.00" fill="#000000">::getSize</text>
</a>
</g>
</g>
<!-- Node3&#45;&gt;Node8 -->
<g id="edge5" class="edge">
<title>Node3&#45;&gt;Node8</title>
<path fill="none" stroke="#191970" d="M107.1557,-87.8566C129.3023,-73.4742 160.2529,-54.4446 189,-40.5 193.3488,-38.3905 197.9244,-36.341 202.5555,-34.3826"/>
<polygon fill="#191970" stroke="#191970" points="204.1441,-37.5148 212.0846,-30.5006 201.5031,-31.0321 204.1441,-37.5148"/>
</g>
</g>
</svg>
