<?xml version="1.0" encoding="UTF-8" standalone="no"?>
<!DOCTYPE svg PUBLIC "-//W3C//DTD SVG 1.1//EN"
 "http://www.w3.org/Graphics/SVG/1.1/DTD/svg11.dtd">
<!-- Generated by graphviz version 2.40.1 (20161225.0304)
 -->
<!-- Title: precice::config::LogConfiguration::LogConfiguration Pages: 1 -->
<svg width="361pt" height="116pt"
 viewBox="0.00 0.00 361.00 115.50" xmlns="http://www.w3.org/2000/svg" xmlns:xlink="http://www.w3.org/1999/xlink">
<g id="graph0" class="graph" transform="scale(1 1) rotate(0) translate(4 111.5)">
<title>precice::config::LogConfiguration::LogConfiguration</title>
<polygon fill="#ffffff" stroke="transparent" points="-4,4 -4,-111.5 357,-111.5 357,4 -4,4"/>
<!-- Node0 -->
<g id="node1" class="node">
<title>Node0</title>
<polygon fill="#bfbfbf" stroke="#000000" points="0,-44.5 0,-74.5 160,-74.5 160,-44.5 0,-44.5"/>
<text text-anchor="start" x="8" y="-62.5" font-family="Helvetica,sans-Serif" font-size="10.00" fill="#000000">precice::config::LogConfiguration</text>
<text text-anchor="middle" x="80" y="-51.5" font-family="Helvetica,sans-Serif" font-size="10.00" fill="#000000">::LogConfiguration</text>
</g>
<!-- Node1 -->
<g id="node2" class="node">
<title>Node1</title>
<g id="a_node2"><a xlink:href="namespaceprecice_1_1logging.html#a0b39b47931451a7576faa4e42e6c968e" target="_top" xlink:title="Configures the logging from a LoggingConfiguration. ">
<polygon fill="#ffffff" stroke="#000000" points="200,-88 200,-107 349,-107 349,-88 200,-88"/>
<text text-anchor="middle" x="274.5" y="-95" font-family="Helvetica,sans-Serif" font-size="10.00" fill="#000000">precice::logging::setupLogging</text>
</a>
</g>
</g>
<!-- Node0&#45;&gt;Node1 -->
<g id="edge1" class="edge">
<title>Node0&#45;&gt;Node1</title>
<path fill="none" stroke="#191970" d="M156.8716,-74.5186C176.4923,-78.352 197.2718,-82.4117 215.8181,-86.0352"/>
<polygon fill="#191970" stroke="#191970" points="215.3847,-89.5166 225.8703,-87.9991 216.727,-82.6465 215.3847,-89.5166"/>
</g>
<!-- Node2 -->
<g id="node3" class="node">
<title>Node2</title>
<g id="a_node3"><a xlink:href="namespaceprecice_1_1xml.html#a89fcda8bdfaf70ef8ed7914aebf01945" target="_top" xlink:title="precice::xml::makeXMLAttribute">
<polygon fill="#ffffff" stroke="#000000" points="196,-50 196,-69 353,-69 353,-50 196,-50"/>
<text text-anchor="middle" x="274.5" y="-57" font-family="Helvetica,sans-Serif" font-size="10.00" fill="#000000">precice::xml::makeXMLAttribute</text>
</a>
</g>
</g>
<!-- Node0&#45;&gt;Node2 -->
<g id="edge2" class="edge">
<title>Node0&#45;&gt;Node2</title>
<path fill="none" stroke="#191970" d="M160.2335,-59.5C168.5657,-59.5 177.0699,-59.5 185.4911,-59.5"/>
<polygon fill="#191970" stroke="#191970" points="185.7049,-63.0001 195.7048,-59.5 185.7048,-56.0001 185.7049,-63.0001"/>
</g>
<!-- Node3 -->
<g id="node4" class="node">
<title>Node3</title>
<g id="a_node4"><a xlink:href="classprecice_1_1xml_1_1XMLTag.html#af81dc6eea2b9a75e14ddd6033ed9a1d4" target="_top" xlink:title="Adds an XML tag as subtag by making a copy of the given tag. ">
<polygon fill="#ffffff" stroke="#000000" points="218,-.5 218,-30.5 331,-30.5 331,-.5 218,-.5"/>
<text text-anchor="start" x="226" y="-18.5" font-family="Helvetica,sans-Serif" font-size="10.00" fill="#000000">precice::xml::XMLTag</text>
<text text-anchor="middle" x="274.5" y="-7.5" font-family="Helvetica,sans-Serif" font-size="10.00" fill="#000000">::addSubtag</text>
</a>
</g>
</g>
<!-- Node0&#45;&gt;Node3 -->
<g id="edge3" class="edge">
<title>Node0&#45;&gt;Node3</title>
<path fill="none" stroke="#191970" d="M146.3919,-44.4808C166.2562,-39.987 188.0367,-35.0598 207.9135,-30.5633"/>
<polygon fill="#191970" stroke="#191970" points="208.8253,-33.9455 217.8066,-28.3252 207.2807,-27.118 208.8253,-33.9455"/>
</g>
</g>
</svg>
