<?xml version="1.0" encoding="UTF-8" standalone="no"?>
<!DOCTYPE svg PUBLIC "-//W3C//DTD SVG 1.1//EN"
 "http://www.w3.org/Graphics/SVG/1.1/DTD/svg11.dtd">
<!-- Generated by graphviz version 2.40.1 (20161225.0304)
 -->
<!-- Title: precice::io::ExportVTKXML::writeSubFile Pages: 1 -->
<svg width="643pt" height="406pt"
 viewBox="0.00 0.00 643.00 406.00" xmlns="http://www.w3.org/2000/svg" xmlns:xlink="http://www.w3.org/1999/xlink">
<g id="graph0" class="graph" transform="scale(1 1) rotate(0) translate(4 402)">
<title>precice::io::ExportVTKXML::writeSubFile</title>
<polygon fill="#ffffff" stroke="transparent" points="-4,4 -4,-402 639,-402 639,4 -4,4"/>
<!-- Node49 -->
<g id="node1" class="node">
<title>Node49</title>
<polygon fill="#bfbfbf" stroke="#000000" points="0,-169.5 0,-199.5 136,-199.5 136,-169.5 0,-169.5"/>
<text text-anchor="start" x="8" y="-187.5" font-family="Helvetica,sans-Serif" font-size="10.00" fill="#000000">precice::io::ExportVTKXML</text>
<text text-anchor="middle" x="68" y="-176.5" font-family="Helvetica,sans-Serif" font-size="10.00" fill="#000000">::writeSubFile</text>
</g>
<!-- Node50 -->
<g id="node2" class="node">
<title>Node50</title>
<g id="a_node2"><a xlink:href="classprecice_1_1mesh_1_1Mesh.html#a13faa9b03e5d20918ed6528db1415fa3" target="_top" xlink:title="Returns modifieable container holding all vertices. ">
<polygon fill="#ffffff" stroke="#000000" points="358,-367.5 358,-397.5 466,-397.5 466,-367.5 358,-367.5"/>
<text text-anchor="start" x="366" y="-385.5" font-family="Helvetica,sans-Serif" font-size="10.00" fill="#000000">precice::mesh::Mesh</text>
<text text-anchor="middle" x="412" y="-374.5" font-family="Helvetica,sans-Serif" font-size="10.00" fill="#000000">::vertices</text>
</a>
</g>
</g>
<!-- Node49&#45;&gt;Node50 -->
<g id="edge1" class="edge">
<title>Node49&#45;&gt;Node50</title>
<path fill="none" stroke="#191970" d="M75.0249,-199.6505C89.1298,-228.3284 123.7273,-290.5286 172,-322.5 224.8722,-357.5177 296.5955,-372.1009 347.8346,-378.1725"/>
<polygon fill="#191970" stroke="#191970" points="347.4729,-381.6537 357.7977,-379.2768 348.2442,-374.6964 347.4729,-381.6537"/>
</g>
<!-- Node51 -->
<g id="node3" class="node">
<title>Node51</title>
<g id="a_node3"><a xlink:href="classprecice_1_1mesh_1_1Mesh.html#aec6f303d7791f8a64e2b78180531c89e" target="_top" xlink:title="Returns modifiable container holding all edges. ">
<polygon fill="#ffffff" stroke="#000000" points="358,-220.5 358,-250.5 466,-250.5 466,-220.5 358,-220.5"/>
<text text-anchor="start" x="366" y="-238.5" font-family="Helvetica,sans-Serif" font-size="10.00" fill="#000000">precice::mesh::Mesh</text>
<text text-anchor="middle" x="412" y="-227.5" font-family="Helvetica,sans-Serif" font-size="10.00" fill="#000000">::edges</text>
</a>
</g>
</g>
<!-- Node49&#45;&gt;Node51 -->
<g id="edge2" class="edge">
<title>Node49&#45;&gt;Node51</title>
<path fill="none" stroke="#191970" d="M136.2172,-195.8641C148.1375,-197.7889 160.425,-199.7343 172,-201.5 231.4234,-210.5648 299.2529,-220.0991 347.6077,-226.7567"/>
<polygon fill="#191970" stroke="#191970" points="347.237,-230.2386 357.6204,-228.1325 348.19,-223.3038 347.237,-230.2386"/>
</g>
<!-- Node52 -->
<g id="node4" class="node">
<title>Node52</title>
<g id="a_node4"><a xlink:href="classprecice_1_1mesh_1_1Mesh.html#ad24f3877f1ea7cd5cd5f93a6f2e4d3f9" target="_top" xlink:title="Returns modifiable container holding all triangles. ">
<polygon fill="#ffffff" stroke="#000000" points="358,-171.5 358,-201.5 466,-201.5 466,-171.5 358,-171.5"/>
<text text-anchor="start" x="366" y="-189.5" font-family="Helvetica,sans-Serif" font-size="10.00" fill="#000000">precice::mesh::Mesh</text>
<text text-anchor="middle" x="412" y="-178.5" font-family="Helvetica,sans-Serif" font-size="10.00" fill="#000000">::triangles</text>
</a>
</g>
</g>
<!-- Node49&#45;&gt;Node52 -->
<g id="edge3" class="edge">
<title>Node49&#45;&gt;Node52</title>
<path fill="none" stroke="#191970" d="M136.2439,-186.75C148.1613,-187.0625 160.4408,-187.3333 172,-187.5 231.5109,-188.3582 299.3303,-187.9473 347.6589,-187.4165"/>
<polygon fill="#191970" stroke="#191970" points="347.7067,-190.9162 357.6659,-187.3018 347.6264,-183.9167 347.7067,-190.9162"/>
</g>
<!-- Node53 -->
<g id="node5" class="node">
<title>Node53</title>
<g id="a_node5"><a xlink:href="classprecice_1_1utils_1_1MasterSlave.html#af0deae7c83eae7f8e6908a2879bfb0e3" target="_top" xlink:title="Current rank. ">
<polygon fill="#ffffff" stroke="#000000" points="173.5,-98.5 173.5,-128.5 306.5,-128.5 306.5,-98.5 173.5,-98.5"/>
<text text-anchor="start" x="181.5" y="-116.5" font-family="Helvetica,sans-Serif" font-size="10.00" fill="#000000">precice::utils::MasterSlave</text>
<text text-anchor="middle" x="240" y="-105.5" font-family="Helvetica,sans-Serif" font-size="10.00" fill="#000000">::getRank</text>
</a>
</g>
</g>
<!-- Node49&#45;&gt;Node53 -->
<g id="edge4" class="edge">
<title>Node49&#45;&gt;Node53</title>
<path fill="none" stroke="#191970" d="M100.5588,-169.456C120.9455,-160.1968 147.841,-148.2722 172,-138.5 177.1743,-136.407 182.5979,-134.2885 188.029,-132.2161"/>
<polygon fill="#191970" stroke="#191970" points="189.6358,-135.351 197.7607,-128.5512 187.1688,-128.8002 189.6358,-135.351"/>
</g>
<!-- Node54 -->
<g id="node6" class="node">
<title>Node54</title>
<g id="a_node6"><a xlink:href="namespaceprecice_1_1utils.html#ae7d92396314ff258e1b8c82b44460c77" target="_top" xlink:title="Returns true if machine is big&#45;endian needed for parallel vtk output. ">
<polygon fill="#ffffff" stroke="#000000" points="179,-49.5 179,-79.5 301,-79.5 301,-49.5 179,-49.5"/>
<text text-anchor="start" x="187" y="-67.5" font-family="Helvetica,sans-Serif" font-size="10.00" fill="#000000">precice::utils::isMachine</text>
<text text-anchor="middle" x="240" y="-56.5" font-family="Helvetica,sans-Serif" font-size="10.00" fill="#000000">BigEndian</text>
</a>
</g>
</g>
<!-- Node49&#45;&gt;Node54 -->
<g id="edge5" class="edge">
<title>Node49&#45;&gt;Node54</title>
<path fill="none" stroke="#191970" d="M80.6478,-169.4819C98.8921,-148.6691 134.5386,-111.0756 172,-88.5 174.7879,-86.8199 177.7109,-85.2335 180.7129,-83.7392"/>
<polygon fill="#191970" stroke="#191970" points="182.2658,-86.8776 189.8993,-79.5303 179.3501,-80.5137 182.2658,-86.8776"/>
</g>
<!-- Node55 -->
<g id="node7" class="node">
<title>Node55</title>
<g id="a_node7"><a xlink:href="classprecice_1_1io_1_1ExportVTKXML.html#a470acb5d2d2b0292ff7c8f549e05f408" target="_top" xlink:title="precice::io::ExportVTKXML\l::writeVertex">
<polygon fill="#ffffff" stroke="#000000" points="172,-.5 172,-30.5 308,-30.5 308,-.5 172,-.5"/>
<text text-anchor="start" x="180" y="-18.5" font-family="Helvetica,sans-Serif" font-size="10.00" fill="#000000">precice::io::ExportVTKXML</text>
<text text-anchor="middle" x="240" y="-7.5" font-family="Helvetica,sans-Serif" font-size="10.00" fill="#000000">::writeVertex</text>
</a>
</g>
</g>
<!-- Node49&#45;&gt;Node55 -->
<g id="edge6" class="edge">
<title>Node49&#45;&gt;Node55</title>
<path fill="none" stroke="#191970" d="M74.888,-169.4537C88.994,-140.2473 123.9361,-75.5811 172,-39.5 173.8303,-38.126 175.746,-36.8258 177.7256,-35.596"/>
<polygon fill="#191970" stroke="#191970" points="179.6655,-38.5237 186.7469,-30.643 176.2967,-32.3877 179.6655,-38.5237"/>
</g>
<!-- Node56 -->
<g id="node8" class="node">
<title>Node56</title>
<g id="a_node8"><a xlink:href="classprecice_1_1io_1_1ExportVTKXML.html#ab12e8d344368dfa2da01bef8cbb2e984" target="_top" xlink:title="precice::io::ExportVTKXML\l::exportMesh">
<polygon fill="#ffffff" stroke="#000000" points="172,-147.5 172,-177.5 308,-177.5 308,-147.5 172,-147.5"/>
<text text-anchor="start" x="180" y="-165.5" font-family="Helvetica,sans-Serif" font-size="10.00" fill="#000000">precice::io::ExportVTKXML</text>
<text text-anchor="middle" x="240" y="-154.5" font-family="Helvetica,sans-Serif" font-size="10.00" fill="#000000">::exportMesh</text>
</a>
</g>
</g>
<!-- Node49&#45;&gt;Node56 -->
<g id="edge7" class="edge">
<title>Node49&#45;&gt;Node56</title>
<path fill="none" stroke="#191970" d="M136.4732,-175.7418C144.7318,-174.6855 153.2157,-173.6003 161.6024,-172.5276"/>
<polygon fill="#191970" stroke="#191970" points="162.2873,-175.9686 171.7624,-171.2281 161.3991,-169.0252 162.2873,-175.9686"/>
</g>
<!-- Node62 -->
<g id="node14" class="node">
<title>Node62</title>
<g id="a_node14"><a xlink:href="classprecice_1_1io_1_1ExportVTKXML.html#a45988bbfbafe443352ff52fef0f96c29" target="_top" xlink:title="precice::io::ExportVTKXML\l::exportData">
<polygon fill="#ffffff" stroke="#000000" points="172,-282.5 172,-312.5 308,-312.5 308,-282.5 172,-282.5"/>
<text text-anchor="start" x="180" y="-300.5" font-family="Helvetica,sans-Serif" font-size="10.00" fill="#000000">precice::io::ExportVTKXML</text>
<text text-anchor="middle" x="240" y="-289.5" font-family="Helvetica,sans-Serif" font-size="10.00" fill="#000000">::exportData</text>
</a>
</g>
</g>
<!-- Node49&#45;&gt;Node62 -->
<g id="edge16" class="edge">
<title>Node49&#45;&gt;Node62</title>
<path fill="none" stroke="#191970" d="M87.9237,-199.5598C108.5667,-214.9517 141.9552,-239.2601 172,-258.5 182.0166,-264.9144 193.1195,-271.4946 203.3996,-277.3799"/>
<polygon fill="#191970" stroke="#191970" points="201.7478,-280.4667 212.1738,-282.3512 205.1986,-274.3763 201.7478,-280.4667"/>
</g>
<!-- Node56&#45;&gt;Node51 -->
<g id="edge8" class="edge">
<title>Node56&#45;&gt;Node51</title>
<path fill="none" stroke="#191970" d="M270.1288,-177.6845C290.7007,-187.8065 318.7071,-201.1092 344,-211.5 348.4005,-213.3078 352.9928,-215.1077 357.6232,-216.8623"/>
<polygon fill="#191970" stroke="#191970" points="356.5385,-220.1929 367.1316,-220.3879 358.9722,-213.6295 356.5385,-220.1929"/>
</g>
<!-- Node56&#45;&gt;Node52 -->
<g id="edge12" class="edge">
<title>Node56&#45;&gt;Node52</title>
<path fill="none" stroke="#191970" d="M308.4732,-172.0544C321.4094,-173.8594 334.8981,-175.7416 347.7004,-177.528"/>
<polygon fill="#191970" stroke="#191970" points="347.4089,-181.0211 357.7967,-178.9367 348.3764,-174.0883 347.4089,-181.0211"/>
</g>
<!-- Node57 -->
<g id="node9" class="node">
<title>Node57</title>
<g id="a_node9"><a xlink:href="classprecice_1_1io_1_1ExportVTKXML.html#a7766269df2fdde0e6a44f50bb209aaa3" target="_top" xlink:title="precice::io::ExportVTKXML\l::writeLine">
<polygon fill="#ffffff" stroke="#000000" points="344,-73.5 344,-103.5 480,-103.5 480,-73.5 344,-73.5"/>
<text text-anchor="start" x="352" y="-91.5" font-family="Helvetica,sans-Serif" font-size="10.00" fill="#000000">precice::io::ExportVTKXML</text>
<text text-anchor="middle" x="412" y="-80.5" font-family="Helvetica,sans-Serif" font-size="10.00" fill="#000000">::writeLine</text>
</a>
</g>
</g>
<!-- Node56&#45;&gt;Node57 -->
<g id="edge9" class="edge">
<title>Node56&#45;&gt;Node57</title>
<path fill="none" stroke="#191970" d="M286.047,-147.3889C293.5257,-144.4207 301.0816,-141.0987 308,-137.5 325.2815,-128.5108 326.6603,-121.3766 344,-112.5 347.4738,-110.7217 351.1098,-109.0206 354.817,-107.4043"/>
<polygon fill="#191970" stroke="#191970" points="356.2163,-110.6133 364.1272,-103.5656 353.548,-104.1418 356.2163,-110.6133"/>
</g>
<!-- Node60 -->
<g id="node12" class="node">
<title>Node60</title>
<g id="a_node12"><a xlink:href="classprecice_1_1io_1_1ExportVTKXML.html#a95dc4473c91e3ae3e252842abe2e4305" target="_top" xlink:title="precice::io::ExportVTKXML\l::writeTriangle">
<polygon fill="#ffffff" stroke="#000000" points="344,-122.5 344,-152.5 480,-152.5 480,-122.5 344,-122.5"/>
<text text-anchor="start" x="352" y="-140.5" font-family="Helvetica,sans-Serif" font-size="10.00" fill="#000000">precice::io::ExportVTKXML</text>
<text text-anchor="middle" x="412" y="-129.5" font-family="Helvetica,sans-Serif" font-size="10.00" fill="#000000">::writeTriangle</text>
</a>
</g>
</g>
<!-- Node56&#45;&gt;Node60 -->
<g id="edge13" class="edge">
<title>Node56&#45;&gt;Node60</title>
<path fill="none" stroke="#191970" d="M308.4732,-152.5475C316.7318,-151.3471 325.2157,-150.114 333.6024,-148.895"/>
<polygon fill="#191970" stroke="#191970" points="334.3699,-152.3203 343.7624,-147.4183 333.3629,-145.3931 334.3699,-152.3203"/>
</g>
<!-- Node58 -->
<g id="node10" class="node">
<title>Node58</title>
<g id="a_node10"><a xlink:href="classprecice_1_1mesh_1_1Edge.html#a7fc88e0289fecf4c41c230d20311dcdb" target="_top" xlink:title="Returns the edge&#39;s vertex with index 0 or 1. ">
<polygon fill="#ffffff" stroke="#000000" points="522,-49.5 522,-79.5 629,-79.5 629,-49.5 522,-49.5"/>
<text text-anchor="start" x="530" y="-67.5" font-family="Helvetica,sans-Serif" font-size="10.00" fill="#000000">precice::mesh::Edge</text>
<text text-anchor="middle" x="575.5" y="-56.5" font-family="Helvetica,sans-Serif" font-size="10.00" fill="#000000">::vertex</text>
</a>
</g>
</g>
<!-- Node57&#45;&gt;Node58 -->
<g id="edge10" class="edge">
<title>Node57&#45;&gt;Node58</title>
<path fill="none" stroke="#191970" d="M480.3914,-78.4609C490.7609,-76.9388 501.4251,-75.3734 511.6922,-73.8663"/>
<polygon fill="#191970" stroke="#191970" points="512.4156,-77.2977 521.8012,-72.3824 511.3989,-70.3719 512.4156,-77.2977"/>
</g>
<!-- Node59 -->
<g id="node11" class="node">
<title>Node59</title>
<g id="a_node11"><a xlink:href="classprecice_1_1mesh_1_1Vertex.html#aeccde29fd990bdba5a5792372c341ef4" target="_top" xlink:title="Returns the unique (among vertices of one mesh on one processor) ID of the vertex. ">
<polygon fill="#ffffff" stroke="#000000" points="519,-98.5 519,-128.5 632,-128.5 632,-98.5 519,-98.5"/>
<text text-anchor="start" x="527" y="-116.5" font-family="Helvetica,sans-Serif" font-size="10.00" fill="#000000">precice::mesh::Vertex</text>
<text text-anchor="middle" x="575.5" y="-105.5" font-family="Helvetica,sans-Serif" font-size="10.00" fill="#000000">::getID</text>
</a>
</g>
</g>
<!-- Node57&#45;&gt;Node59 -->
<g id="edge11" class="edge">
<title>Node57&#45;&gt;Node59</title>
<path fill="none" stroke="#191970" d="M480.3914,-98.9574C489.7737,-100.392 499.3973,-101.8635 508.7497,-103.2935"/>
<polygon fill="#191970" stroke="#191970" points="508.3532,-106.7735 518.7673,-104.8253 509.4113,-99.8539 508.3532,-106.7735"/>
</g>
<!-- Node60&#45;&gt;Node59 -->
<g id="edge15" class="edge">
<title>Node60&#45;&gt;Node59</title>
<path fill="none" stroke="#191970" d="M480.3914,-127.4609C489.7737,-126.0837 499.3973,-124.671 508.7497,-123.2982"/>
<polygon fill="#191970" stroke="#191970" points="509.3817,-126.743 518.7673,-121.8277 508.365,-119.8173 509.3817,-126.743"/>
</g>
<!-- Node61 -->
<g id="node13" class="node">
<title>Node61</title>
<g id="a_node13"><a xlink:href="classprecice_1_1mesh_1_1Triangle.html#ac4d5ab22ef769607eb78676efe7dd11e" target="_top" xlink:title="Returns triangle vertex with index 0, 1 or 2. ">
<polygon fill="#ffffff" stroke="#000000" points="516,-147.5 516,-177.5 635,-177.5 635,-147.5 516,-147.5"/>
<text text-anchor="start" x="524" y="-165.5" font-family="Helvetica,sans-Serif" font-size="10.00" fill="#000000">precice::mesh::Triangle</text>
<text text-anchor="middle" x="575.5" y="-154.5" font-family="Helvetica,sans-Serif" font-size="10.00" fill="#000000">::vertex</text>
</a>
</g>
</g>
<!-- Node60&#45;&gt;Node61 -->
<g id="edge14" class="edge">
<title>Node60&#45;&gt;Node61</title>
<path fill="none" stroke="#191970" d="M480.3914,-147.9574C488.7899,-149.2416 497.3818,-150.5553 505.7995,-151.8424"/>
<polygon fill="#191970" stroke="#191970" points="505.5418,-155.3436 515.956,-153.3954 506.5999,-148.4241 505.5418,-155.3436"/>
</g>
<!-- Node62&#45;&gt;Node50 -->
<g id="edge18" class="edge">
<title>Node62&#45;&gt;Node50</title>
<path fill="none" stroke="#191970" d="M262.8537,-312.6255C283.4795,-325.8539 314.9547,-345.0074 344,-358.5 347.832,-360.2801 351.8355,-362.008 355.8986,-363.6664"/>
<polygon fill="#191970" stroke="#191970" points="354.8473,-367.0135 365.435,-367.4022 357.4006,-360.4958 354.8473,-367.0135"/>
</g>
<!-- Node63 -->
<g id="node15" class="node">
<title>Node63</title>
<g id="a_node15"><a xlink:href="classprecice_1_1mesh_1_1Mesh.html#a136f6b4ce235025e418fab0ca5f350ff" target="_top" xlink:title="precice::mesh::Mesh\l::getDimensions">
<polygon fill="#ffffff" stroke="#000000" points="358,-269.5 358,-299.5 466,-299.5 466,-269.5 358,-269.5"/>
<text text-anchor="start" x="366" y="-287.5" font-family="Helvetica,sans-Serif" font-size="10.00" fill="#000000">precice::mesh::Mesh</text>
<text text-anchor="middle" x="412" y="-276.5" font-family="Helvetica,sans-Serif" font-size="10.00" fill="#000000">::getDimensions</text>
</a>
</g>
</g>
<!-- Node62&#45;&gt;Node63 -->
<g id="edge17" class="edge">
<title>Node62&#45;&gt;Node63</title>
<path fill="none" stroke="#191970" d="M308.4732,-292.3247C321.4094,-291.347 334.8981,-290.3275 347.7004,-289.3599"/>
<polygon fill="#191970" stroke="#191970" points="348.0889,-292.8406 357.7967,-288.5968 347.5613,-285.8605 348.0889,-292.8406"/>
</g>
<!-- Node64 -->
<g id="node16" class="node">
<title>Node64</title>
<g id="a_node16"><a xlink:href="classprecice_1_1mesh_1_1Mesh.html#aceb3eabb4f8e40a44d5d1c2822ba7b56" target="_top" xlink:title="precice::mesh::Mesh\l::data">
<polygon fill="#ffffff" stroke="#000000" points="358,-318.5 358,-348.5 466,-348.5 466,-318.5 358,-318.5"/>
<text text-anchor="start" x="366" y="-336.5" font-family="Helvetica,sans-Serif" font-size="10.00" fill="#000000">precice::mesh::Mesh</text>
<text text-anchor="middle" x="412" y="-325.5" font-family="Helvetica,sans-Serif" font-size="10.00" fill="#000000">::data</text>
</a>
</g>
</g>
<!-- Node62&#45;&gt;Node64 -->
<g id="edge19" class="edge">
<title>Node62&#45;&gt;Node64</title>
<path fill="none" stroke="#191970" d="M308.4732,-311.8316C321.4094,-314.5392 334.8981,-317.3624 347.7004,-320.0419"/>
<polygon fill="#191970" stroke="#191970" points="347.2917,-323.5322 357.7967,-322.1551 348.7258,-316.6806 347.2917,-323.5322"/>
</g>
</g>
</svg>
