<?xml version="1.0" encoding="UTF-8" standalone="no"?>
<!DOCTYPE svg PUBLIC "-//W3C//DTD SVG 1.1//EN"
 "http://www.w3.org/Graphics/SVG/1.1/DTD/svg11.dtd">
<!-- Generated by graphviz version 2.40.1 (20161225.0304)
 -->
<!-- Title: precice::cplscheme::ParallelCouplingScheme Pages: 1 -->
<svg width="137pt" height="240pt"
 viewBox="0.00 0.00 137.00 240.00" xmlns="http://www.w3.org/2000/svg" xmlns:xlink="http://www.w3.org/1999/xlink">
<g id="graph0" class="graph" transform="scale(1 1) rotate(0) translate(4 236)">
<title>precice::cplscheme::ParallelCouplingScheme</title>
<polygon fill="#ffffff" stroke="transparent" points="-4,4 -4,-236 133,-236 133,4 -4,4"/>
<!-- Node0 -->
<g id="node1" class="node">
<title>Node0</title>
<polygon fill="#bfbfbf" stroke="#000000" points="0,-.5 0,-30.5 129,-30.5 129,-.5 0,-.5"/>
<text text-anchor="start" x="8" y="-18.5" font-family="Helvetica,sans-Serif" font-size="10.00" fill="#000000">precice::cplscheme</text>
<text text-anchor="middle" x="64.5" y="-7.5" font-family="Helvetica,sans-Serif" font-size="10.00" fill="#000000">::ParallelCouplingScheme</text>
</g>
<!-- Node1 -->
<g id="node2" class="node">
<title>Node1</title>
<g id="a_node2"><a xlink:href="classprecice_1_1cplscheme_1_1BiCouplingScheme.html" target="_top" xlink:title="Abstract base class for coupling schemes with two participants. ">
<polygon fill="#ffffff" stroke="#000000" points="11.5,-67.5 11.5,-97.5 117.5,-97.5 117.5,-67.5 11.5,-67.5"/>
<text text-anchor="start" x="19.5" y="-85.5" font-family="Helvetica,sans-Serif" font-size="10.00" fill="#000000">precice::cplscheme</text>
<text text-anchor="middle" x="64.5" y="-74.5" font-family="Helvetica,sans-Serif" font-size="10.00" fill="#000000">::BiCouplingScheme</text>
</a>
</g>
</g>
<!-- Node1&#45;&gt;Node0 -->
<g id="edge1" class="edge">
<title>Node1&#45;&gt;Node0</title>
<path fill="none" stroke="#191970" d="M64.5,-57.0249C64.5,-48.128 64.5,-38.4287 64.5,-30.6432"/>
<polygon fill="#191970" stroke="#191970" points="61.0001,-57.2966 64.5,-67.2967 68.0001,-57.2967 61.0001,-57.2966"/>
</g>
<!-- Node2 -->
<g id="node3" class="node">
<title>Node2</title>
<g id="a_node3"><a xlink:href="classprecice_1_1cplscheme_1_1BaseCouplingScheme.html" target="_top" xlink:title="Abstract base class for standard coupling schemes. ">
<polygon fill="#ffffff" stroke="#000000" points="5,-134.5 5,-164.5 124,-164.5 124,-134.5 5,-134.5"/>
<text text-anchor="start" x="13" y="-152.5" font-family="Helvetica,sans-Serif" font-size="10.00" fill="#000000">precice::cplscheme</text>
<text text-anchor="middle" x="64.5" y="-141.5" font-family="Helvetica,sans-Serif" font-size="10.00" fill="#000000">::BaseCouplingScheme</text>
</a>
</g>
</g>
<!-- Node2&#45;&gt;Node1 -->
<g id="edge2" class="edge">
<title>Node2&#45;&gt;Node1</title>
<path fill="none" stroke="#191970" d="M64.5,-124.0249C64.5,-115.128 64.5,-105.4287 64.5,-97.6432"/>
<polygon fill="#191970" stroke="#191970" points="61.0001,-124.2966 64.5,-134.2967 68.0001,-124.2967 61.0001,-124.2966"/>
</g>
<!-- Node3 -->
<g id="node4" class="node">
<title>Node3</title>
<g id="a_node4"><a xlink:href="classprecice_1_1cplscheme_1_1CouplingScheme.html" target="_top" xlink:title="Interface for all coupling schemes. ">
<polygon fill="#ffffff" stroke="#000000" points="14,-201.5 14,-231.5 115,-231.5 115,-201.5 14,-201.5"/>
<text text-anchor="start" x="22" y="-219.5" font-family="Helvetica,sans-Serif" font-size="10.00" fill="#000000">precice::cplscheme</text>
<text text-anchor="middle" x="64.5" y="-208.5" font-family="Helvetica,sans-Serif" font-size="10.00" fill="#000000">::CouplingScheme</text>
</a>
</g>
</g>
<!-- Node3&#45;&gt;Node2 -->
<g id="edge3" class="edge">
<title>Node3&#45;&gt;Node2</title>
<path fill="none" stroke="#191970" d="M64.5,-191.0249C64.5,-182.128 64.5,-172.4287 64.5,-164.6432"/>
<polygon fill="#191970" stroke="#191970" points="61.0001,-191.2966 64.5,-201.2967 68.0001,-191.2967 61.0001,-191.2966"/>
</g>
</g>
</svg>
