<?xml version="1.0" encoding="UTF-8" standalone="no"?>
<!DOCTYPE svg PUBLIC "-//W3C//DTD SVG 1.1//EN"
 "http://www.w3.org/Graphics/SVG/1.1/DTD/svg11.dtd">
<!-- Generated by graphviz version 2.40.1 (20161225.0304)
 -->
<!-- Title: precice::impl::WatchIntegral::exportIntegralData Pages: 1 -->
<svg width="350pt" height="333pt"
 viewBox="0.00 0.00 350.00 333.00" xmlns="http://www.w3.org/2000/svg" xmlns:xlink="http://www.w3.org/1999/xlink">
<g id="graph0" class="graph" transform="scale(1 1) rotate(0) translate(4 329)">
<title>precice::impl::WatchIntegral::exportIntegralData</title>
<polygon fill="#ffffff" stroke="transparent" points="-4,4 -4,-329 346,-329 346,4 -4,4"/>
<!-- Node7 -->
<g id="node1" class="node">
<title>Node7</title>
<polygon fill="#bfbfbf" stroke="#000000" points="0,-147.5 0,-177.5 153,-177.5 153,-147.5 0,-147.5"/>
<text text-anchor="start" x="8" y="-165.5" font-family="Helvetica,sans-Serif" font-size="10.00" fill="#000000">precice::impl::WatchIntegral</text>
<text text-anchor="middle" x="76.5" y="-154.5" font-family="Helvetica,sans-Serif" font-size="10.00" fill="#000000">::exportIntegralData</text>
</g>
<!-- Node8 -->
<g id="node2" class="node">
<title>Node8</title>
<g id="a_node2"><a xlink:href="classprecice_1_1utils_1_1MasterSlave.html#a3837ad42361b53d7e930443ba07a9eb5" target="_top" xlink:title="True if this process is running a slave. ">
<polygon fill="#ffffff" stroke="#000000" points="193,-294.5 193,-324.5 338,-324.5 338,-294.5 193,-294.5"/>
<text text-anchor="start" x="201" y="-312.5" font-family="Helvetica,sans-Serif" font-size="10.00" fill="#000000">precice::utils::MasterSlave</text>
<text text-anchor="middle" x="265.5" y="-301.5" font-family="Helvetica,sans-Serif" font-size="10.00" fill="#000000">::isSlave</text>
</a>
</g>
</g>
<!-- Node7&#45;&gt;Node8 -->
<g id="edge1" class="edge">
<title>Node7&#45;&gt;Node8</title>
<path fill="none" stroke="#191970" d="M86.3819,-177.7399C103.9476,-203.642 143.1075,-256.2796 189,-285.5 191.6162,-287.1657 194.3564,-288.7233 197.1794,-290.179"/>
<polygon fill="#191970" stroke="#191970" points="195.8833,-293.4363 206.4257,-294.4885 198.8405,-287.0916 195.8833,-293.4363"/>
</g>
<!-- Node9 -->
<g id="node3" class="node">
<title>Node9</title>
<g id="a_node3"><a xlink:href="classprecice_1_1io_1_1TXTTableWriter.html#adc48b2e227c529b370bf016996c5f9d1" target="_top" xlink:title="Writes a integral scalar data value associated to the entry name. ">
<polygon fill="#ffffff" stroke="#000000" points="192.5,-245.5 192.5,-275.5 338.5,-275.5 338.5,-245.5 192.5,-245.5"/>
<text text-anchor="start" x="200.5" y="-263.5" font-family="Helvetica,sans-Serif" font-size="10.00" fill="#000000">precice::io::TXTTableWriter</text>
<text text-anchor="middle" x="265.5" y="-252.5" font-family="Helvetica,sans-Serif" font-size="10.00" fill="#000000">::writeData</text>
</a>
</g>
</g>
<!-- Node7&#45;&gt;Node9 -->
<g id="edge2" class="edge">
<title>Node7&#45;&gt;Node9</title>
<path fill="none" stroke="#191970" d="M95.8284,-177.6372C117.4881,-194.006 154.1487,-219.9685 189,-236.5 192.9989,-238.3968 197.1846,-240.1927 201.449,-241.8835"/>
<polygon fill="#191970" stroke="#191970" points="200.2761,-245.1816 210.8684,-245.4153 202.7337,-238.6272 200.2761,-245.1816"/>
</g>
<!-- Node10 -->
<g id="node4" class="node">
<title>Node10</title>
<g id="a_node4"><a xlink:href="classprecice_1_1impl_1_1WatchIntegral.html#a1fec41e0dfa5de7ad9804063b0b9ea29" target="_top" xlink:title="precice::impl::WatchIntegral\l::calculateVectorData">
<polygon fill="#ffffff" stroke="#000000" points="189,-196.5 189,-226.5 342,-226.5 342,-196.5 189,-196.5"/>
<text text-anchor="start" x="197" y="-214.5" font-family="Helvetica,sans-Serif" font-size="10.00" fill="#000000">precice::impl::WatchIntegral</text>
<text text-anchor="middle" x="265.5" y="-203.5" font-family="Helvetica,sans-Serif" font-size="10.00" fill="#000000">::calculateVectorData</text>
</a>
</g>
</g>
<!-- Node7&#45;&gt;Node10 -->
<g id="edge3" class="edge">
<title>Node7&#45;&gt;Node10</title>
<path fill="none" stroke="#191970" d="M134.4907,-177.5346C154.5371,-182.7318 177.1738,-188.6006 197.9214,-193.9796"/>
<polygon fill="#191970" stroke="#191970" points="197.0606,-197.3721 207.619,-196.4938 198.8174,-190.5961 197.0606,-197.3721"/>
</g>
<!-- Node11 -->
<g id="node5" class="node">
<title>Node11</title>
<g id="a_node5"><a xlink:href="classprecice_1_1utils_1_1MasterSlave.html#ae8671e778dec26782120295d51bb3fde" target="_top" xlink:title="Number of ranks. This includes ranks from both participants, e.g. minimal size is 2...">
<polygon fill="#ffffff" stroke="#000000" points="193,-147.5 193,-177.5 338,-177.5 338,-147.5 193,-147.5"/>
<text text-anchor="start" x="201" y="-165.5" font-family="Helvetica,sans-Serif" font-size="10.00" fill="#000000">precice::utils::MasterSlave</text>
<text text-anchor="middle" x="265.5" y="-154.5" font-family="Helvetica,sans-Serif" font-size="10.00" fill="#000000">::getSize</text>
</a>
</g>
</g>
<!-- Node7&#45;&gt;Node11 -->
<g id="edge4" class="edge">
<title>Node7&#45;&gt;Node11</title>
<path fill="none" stroke="#191970" d="M153.1011,-162.5C162.8219,-162.5 172.8051,-162.5 182.6185,-162.5"/>
<polygon fill="#191970" stroke="#191970" points="182.7656,-166.0001 192.7656,-162.5 182.7655,-159.0001 182.7656,-166.0001"/>
</g>
<!-- Node12 -->
<g id="node6" class="node">
<title>Node12</title>
<g id="a_node6"><a xlink:href="classprecice_1_1utils_1_1MasterSlave.html#a2633ea74e009a3743307da856f1c41ba" target="_top" xlink:title="precice::utils::MasterSlave\l::reduceSum">
<polygon fill="#ffffff" stroke="#000000" points="193,-98.5 193,-128.5 338,-128.5 338,-98.5 193,-98.5"/>
<text text-anchor="start" x="201" y="-116.5" font-family="Helvetica,sans-Serif" font-size="10.00" fill="#000000">precice::utils::MasterSlave</text>
<text text-anchor="middle" x="265.5" y="-105.5" font-family="Helvetica,sans-Serif" font-size="10.00" fill="#000000">::reduceSum</text>
</a>
</g>
</g>
<!-- Node7&#45;&gt;Node12 -->
<g id="edge5" class="edge">
<title>Node7&#45;&gt;Node12</title>
<path fill="none" stroke="#191970" d="M134.4907,-147.4654C154.5371,-142.2682 177.1738,-136.3994 197.9214,-131.0204"/>
<polygon fill="#191970" stroke="#191970" points="198.8174,-134.4039 207.619,-128.5062 197.0606,-127.6279 198.8174,-134.4039"/>
</g>
<!-- Node13 -->
<g id="node7" class="node">
<title>Node13</title>
<g id="a_node7"><a xlink:href="classprecice_1_1impl_1_1WatchIntegral.html#a44051e5035f7ba901bfccd445b451174" target="_top" xlink:title="precice::impl::WatchIntegral\l::calculateScalarData">
<polygon fill="#ffffff" stroke="#000000" points="189,-49.5 189,-79.5 342,-79.5 342,-49.5 189,-49.5"/>
<text text-anchor="start" x="197" y="-67.5" font-family="Helvetica,sans-Serif" font-size="10.00" fill="#000000">precice::impl::WatchIntegral</text>
<text text-anchor="middle" x="265.5" y="-56.5" font-family="Helvetica,sans-Serif" font-size="10.00" fill="#000000">::calculateScalarData</text>
</a>
</g>
</g>
<!-- Node7&#45;&gt;Node13 -->
<g id="edge6" class="edge">
<title>Node7&#45;&gt;Node13</title>
<path fill="none" stroke="#191970" d="M96.2963,-147.3705C118.0667,-131.2909 154.5468,-105.9615 189,-89.5 193.6864,-87.2609 198.6247,-85.1449 203.643,-83.1636"/>
<polygon fill="#191970" stroke="#191970" points="205.2141,-86.3124 213.347,-79.5222 202.7548,-79.7586 205.2141,-86.3124"/>
</g>
<!-- Node14 -->
<g id="node8" class="node">
<title>Node14</title>
<g id="a_node8"><a xlink:href="classprecice_1_1impl_1_1WatchIntegral.html#a47043dc3ec321e4fd3db8714523dda79" target="_top" xlink:title="precice::impl::WatchIntegral\l::calculateSurfaceArea">
<polygon fill="#ffffff" stroke="#000000" points="189,-.5 189,-30.5 342,-30.5 342,-.5 189,-.5"/>
<text text-anchor="start" x="197" y="-18.5" font-family="Helvetica,sans-Serif" font-size="10.00" fill="#000000">precice::impl::WatchIntegral</text>
<text text-anchor="middle" x="265.5" y="-7.5" font-family="Helvetica,sans-Serif" font-size="10.00" fill="#000000">::calculateSurfaceArea</text>
</a>
</g>
</g>
<!-- Node7&#45;&gt;Node14 -->
<g id="edge7" class="edge">
<title>Node7&#45;&gt;Node14</title>
<path fill="none" stroke="#191970" d="M86.4489,-147.4446C104.1157,-121.8446 143.4239,-69.769 189,-40.5 192.1854,-38.4544 195.5534,-36.5617 199.0297,-34.8125"/>
<polygon fill="#191970" stroke="#191970" points="200.7956,-37.8536 208.4335,-30.5111 197.8838,-31.4879 200.7956,-37.8536"/>
</g>
</g>
</svg>
