<?xml version="1.0" encoding="UTF-8" standalone="no"?>
<!DOCTYPE svg PUBLIC "-//W3C//DTD SVG 1.1//EN"
 "http://www.w3.org/Graphics/SVG/1.1/DTD/svg11.dtd">
<!-- Generated by graphviz version 2.40.1 (20161225.0304)
 -->
<!-- Title: precice::utils::EventRegistry::writeJSON Pages: 1 -->
<svg width="328pt" height="39pt"
 viewBox="0.00 0.00 328.00 39.00" xmlns="http://www.w3.org/2000/svg" xmlns:xlink="http://www.w3.org/1999/xlink">
<g id="graph0" class="graph" transform="scale(1 1) rotate(0) translate(4 35)">
<title>precice::utils::EventRegistry::writeJSON</title>
<polygon fill="#ffffff" stroke="transparent" points="-4,4 -4,-35 324,-35 324,4 -4,4"/>
<!-- Node26 -->
<g id="node1" class="node">
<title>Node26</title>
<polygon fill="#bfbfbf" stroke="#000000" points="0,-.5 0,-30.5 152,-30.5 152,-.5 0,-.5"/>
<text text-anchor="start" x="8" y="-18.5" font-family="Helvetica,sans-Serif" font-size="10.00" fill="#000000">precice::utils::EventRegistry</text>
<text text-anchor="middle" x="76" y="-7.5" font-family="Helvetica,sans-Serif" font-size="10.00" fill="#000000">::writeJSON</text>
</g>
<!-- Node27 -->
<g id="node2" class="node">
<title>Node27</title>
<g id="a_node2"><a xlink:href="namespaceprecice_1_1utils.html#aa25dcbc1d6d03e2110118ee566023c30" target="_top" xlink:title="Converts the time_point into a string like &quot;2019&#45;01&#45;10T18:30:46.834&quot;. ">
<polygon fill="#ffffff" stroke="#000000" points="188,-.5 188,-30.5 320,-30.5 320,-.5 188,-.5"/>
<text text-anchor="start" x="196" y="-18.5" font-family="Helvetica,sans-Serif" font-size="10.00" fill="#000000">precice::utils::timepoint</text>
<text text-anchor="middle" x="254" y="-7.5" font-family="Helvetica,sans-Serif" font-size="10.00" fill="#000000">_to_string</text>
</a>
</g>
</g>
<!-- Node26&#45;&gt;Node27 -->
<g id="edge1" class="edge">
<title>Node26&#45;&gt;Node27</title>
<path fill="none" stroke="#191970" d="M152.0043,-15.5C160.4687,-15.5 169.0934,-15.5 177.5632,-15.5"/>
<polygon fill="#191970" stroke="#191970" points="177.7965,-19.0001 187.7965,-15.5 177.7964,-12.0001 177.7965,-19.0001"/>
</g>
</g>
</svg>
