<?xml version="1.0" encoding="UTF-8" standalone="no"?>
<!DOCTYPE svg PUBLIC "-//W3C//DTD SVG 1.1//EN"
 "http://www.w3.org/Graphics/SVG/1.1/DTD/svg11.dtd">
<!-- Generated by graphviz version 2.40.1 (20161225.0304)
 -->
<!-- Title: precice::action::ScaleByAreaAction::performAction Pages: 1 -->
<svg width="289pt" height="39pt"
 viewBox="0.00 0.00 289.00 39.00" xmlns="http://www.w3.org/2000/svg" xmlns:xlink="http://www.w3.org/1999/xlink">
<g id="graph0" class="graph" transform="scale(1 1) rotate(0) translate(4 35)">
<title>precice::action::ScaleByAreaAction::performAction</title>
<polygon fill="#ffffff" stroke="transparent" points="-4,4 -4,-35 285,-35 285,4 -4,4"/>
<!-- Node3 -->
<g id="node1" class="node">
<title>Node3</title>
<polygon fill="#bfbfbf" stroke="#000000" points="0,-.5 0,-30.5 131,-30.5 131,-.5 0,-.5"/>
<text text-anchor="start" x="8" y="-18.5" font-family="Helvetica,sans-Serif" font-size="10.00" fill="#000000">precice::action::ScaleBy</text>
<text text-anchor="middle" x="65.5" y="-7.5" font-family="Helvetica,sans-Serif" font-size="10.00" fill="#000000">AreaAction::performAction</text>
</g>
<!-- Node4 -->
<g id="node2" class="node">
<title>Node4</title>
<g id="a_node2"><a xlink:href="classprecice_1_1action_1_1Action.html#aa6912e7516d2849cf02b6278dadcacc4" target="_top" xlink:title="Returns the mesh carrying the data used in the action. ">
<polygon fill="#ffffff" stroke="#000000" points="167,-.5 167,-30.5 281,-30.5 281,-.5 167,-.5"/>
<text text-anchor="start" x="175" y="-18.5" font-family="Helvetica,sans-Serif" font-size="10.00" fill="#000000">precice::action::Action</text>
<text text-anchor="middle" x="224" y="-7.5" font-family="Helvetica,sans-Serif" font-size="10.00" fill="#000000">::getMesh</text>
</a>
</g>
</g>
<!-- Node3&#45;&gt;Node4 -->
<g id="edge1" class="edge">
<title>Node3&#45;&gt;Node4</title>
<path fill="none" stroke="#191970" d="M131.3413,-15.5C139.6859,-15.5 148.2348,-15.5 156.6032,-15.5"/>
<polygon fill="#191970" stroke="#191970" points="156.6956,-19.0001 166.6956,-15.5 156.6956,-12.0001 156.6956,-19.0001"/>
</g>
</g>
</svg>
