<?xml version="1.0" encoding="UTF-8" standalone="no"?>
<!DOCTYPE svg PUBLIC "-//W3C//DTD SVG 1.1//EN"
 "http://www.w3.org/Graphics/SVG/1.1/DTD/svg11.dtd">
<!-- Generated by graphviz version 2.40.1 (20161225.0304)
 -->
<!-- Title: precice::io::ExportVTK::getType Pages: 1 -->
<svg width="288pt" height="39pt"
 viewBox="0.00 0.00 288.00 39.00" xmlns="http://www.w3.org/2000/svg" xmlns:xlink="http://www.w3.org/1999/xlink">
<g id="graph0" class="graph" transform="scale(1 1) rotate(0) translate(4 35)">
<title>precice::io::ExportVTK::getType</title>
<polygon fill="#ffffff" stroke="transparent" points="-4,4 -4,-35 284,-35 284,4 -4,4"/>
<!-- Node28 -->
<g id="node1" class="node">
<title>Node28</title>
<polygon fill="#bfbfbf" stroke="#000000" points="0,-.5 0,-30.5 124,-30.5 124,-.5 0,-.5"/>
<text text-anchor="start" x="8" y="-18.5" font-family="Helvetica,sans-Serif" font-size="10.00" fill="#000000">precice::io::ExportVTK</text>
<text text-anchor="middle" x="62" y="-7.5" font-family="Helvetica,sans-Serif" font-size="10.00" fill="#000000">::getType</text>
</g>
<!-- Node29 -->
<g id="node2" class="node">
<title>Node29</title>
<g id="a_node2"><a xlink:href="namespaceprecice_1_1io_1_1constants.html#adbfae30a38b119462d971daa5db24eff" target="_top" xlink:title="precice::io::constants\l::exportVTK">
<polygon fill="#ffffff" stroke="#000000" points="160,-.5 160,-30.5 280,-30.5 280,-.5 160,-.5"/>
<text text-anchor="start" x="168" y="-18.5" font-family="Helvetica,sans-Serif" font-size="10.00" fill="#000000">precice::io::constants</text>
<text text-anchor="middle" x="220" y="-7.5" font-family="Helvetica,sans-Serif" font-size="10.00" fill="#000000">::exportVTK</text>
</a>
</g>
</g>
<!-- Node28&#45;&gt;Node29 -->
<g id="edge1" class="edge">
<title>Node28&#45;&gt;Node29</title>
<path fill="none" stroke="#191970" d="M124.4458,-15.5C132.7245,-15.5 141.2571,-15.5 149.6575,-15.5"/>
<polygon fill="#191970" stroke="#191970" points="149.8128,-19.0001 159.8127,-15.5 149.8127,-12.0001 149.8128,-19.0001"/>
</g>
</g>
</svg>
