<?xml version="1.0" encoding="UTF-8" standalone="no"?>
<!DOCTYPE svg PUBLIC "-//W3C//DTD SVG 1.1//EN"
 "http://www.w3.org/Graphics/SVG/1.1/DTD/svg11.dtd">
<!-- Generated by graphviz version 2.40.1 (20161225.0304)
 -->
<!-- Title: precice::com::MPICommunication::~MPICommunication Pages: 1 -->
<svg width="374pt" height="284pt"
 viewBox="0.00 0.00 374.00 284.00" xmlns="http://www.w3.org/2000/svg" xmlns:xlink="http://www.w3.org/1999/xlink">
<g id="graph0" class="graph" transform="scale(1 1) rotate(0) translate(4 280)">
<title>precice::com::MPICommunication::~MPICommunication</title>
<polygon fill="#ffffff" stroke="transparent" points="-4,4 -4,-280 370,-280 370,4 -4,4"/>
<!-- Node1 -->
<g id="node1" class="node">
<title>Node1</title>
<polygon fill="#bfbfbf" stroke="#000000" points="0,-122.5 0,-152.5 165,-152.5 165,-122.5 0,-122.5"/>
<text text-anchor="start" x="8" y="-140.5" font-family="Helvetica,sans-Serif" font-size="10.00" fill="#000000">precice::com::MPICommunication</text>
<text text-anchor="middle" x="82.5" y="-129.5" font-family="Helvetica,sans-Serif" font-size="10.00" fill="#000000">::~MPICommunication</text>
</g>
<!-- Node2 -->
<g id="node2" class="node">
<title>Node2</title>
<g id="a_node2"><a xlink:href="classprecice_1_1com_1_1MPICommunication.html#a450d32ddb18f6c12f5409e68ca15bab2" target="_top" xlink:title="Sends a std::string to process with given rank. ">
<polygon fill="#ffffff" stroke="#000000" points="201,-245.5 201,-275.5 366,-275.5 366,-245.5 201,-245.5"/>
<text text-anchor="start" x="209" y="-263.5" font-family="Helvetica,sans-Serif" font-size="10.00" fill="#000000">precice::com::MPICommunication</text>
<text text-anchor="middle" x="283.5" y="-252.5" font-family="Helvetica,sans-Serif" font-size="10.00" fill="#000000">::send</text>
</a>
</g>
</g>
<!-- Node1&#45;&gt;Node2 -->
<g id="edge1" class="edge">
<title>Node1&#45;&gt;Node2</title>
<path fill="none" stroke="#191970" d="M96.7186,-152.8575C117.5884,-174.5246 158.6501,-213.9361 201,-236.5 204.4557,-238.3412 208.0702,-240.0572 211.7745,-241.6542"/>
<polygon fill="#191970" stroke="#191970" points="210.543,-244.9311 221.1282,-245.3826 213.135,-238.4286 210.543,-244.9311"/>
</g>
<!-- Node3 -->
<g id="node3" class="node">
<title>Node3</title>
<g id="a_node3"><a xlink:href="classprecice_1_1com_1_1MPICommunication.html#ac82fb727ab4c731939117472d0cfdb65" target="_top" xlink:title="Asynchronously sends an array of integer values. ">
<polygon fill="#ffffff" stroke="#000000" points="201,-196.5 201,-226.5 366,-226.5 366,-196.5 201,-196.5"/>
<text text-anchor="start" x="209" y="-214.5" font-family="Helvetica,sans-Serif" font-size="10.00" fill="#000000">precice::com::MPICommunication</text>
<text text-anchor="middle" x="283.5" y="-203.5" font-family="Helvetica,sans-Serif" font-size="10.00" fill="#000000">::aSend</text>
</a>
</g>
</g>
<!-- Node1&#45;&gt;Node3 -->
<g id="edge2" class="edge">
<title>Node1&#45;&gt;Node3</title>
<path fill="none" stroke="#191970" d="M115.2966,-152.5516C138.8627,-163.0669 171.5409,-177.0399 201,-187.5 206.5832,-189.4824 212.4199,-191.4275 218.2969,-193.2989"/>
<polygon fill="#191970" stroke="#191970" points="217.5999,-196.7474 228.1881,-196.3727 219.6773,-190.0627 217.5999,-196.7474"/>
</g>
<!-- Node4 -->
<g id="node4" class="node">
<title>Node4</title>
<g id="a_node4"><a xlink:href="classprecice_1_1com_1_1MPICommunication.html#a9ee2d977c98e77dae4de5f97d6ef174a" target="_top" xlink:title="Receives a std::string from process with given rank. ">
<polygon fill="#ffffff" stroke="#000000" points="201,-147.5 201,-177.5 366,-177.5 366,-147.5 201,-147.5"/>
<text text-anchor="start" x="209" y="-165.5" font-family="Helvetica,sans-Serif" font-size="10.00" fill="#000000">precice::com::MPICommunication</text>
<text text-anchor="middle" x="283.5" y="-154.5" font-family="Helvetica,sans-Serif" font-size="10.00" fill="#000000">::receive</text>
</a>
</g>
</g>
<!-- Node1&#45;&gt;Node4 -->
<g id="edge3" class="edge">
<title>Node1&#45;&gt;Node4</title>
<path fill="none" stroke="#191970" d="M165.1245,-147.7767C173.6075,-148.8318 182.266,-149.9087 190.8477,-150.9761"/>
<polygon fill="#191970" stroke="#191970" points="190.5159,-154.4617 200.8715,-152.2228 191.38,-147.5152 190.5159,-154.4617"/>
</g>
<!-- Node5 -->
<g id="node5" class="node">
<title>Node5</title>
<g id="a_node5"><a xlink:href="classprecice_1_1com_1_1MPICommunication.html#a118ac6af2c752f8abf116101b21a5779" target="_top" xlink:title="Asynchronously receives an array of double values. ">
<polygon fill="#ffffff" stroke="#000000" points="201,-98.5 201,-128.5 366,-128.5 366,-98.5 201,-98.5"/>
<text text-anchor="start" x="209" y="-116.5" font-family="Helvetica,sans-Serif" font-size="10.00" fill="#000000">precice::com::MPICommunication</text>
<text text-anchor="middle" x="283.5" y="-105.5" font-family="Helvetica,sans-Serif" font-size="10.00" fill="#000000">::aReceive</text>
</a>
</g>
</g>
<!-- Node1&#45;&gt;Node5 -->
<g id="edge4" class="edge">
<title>Node1&#45;&gt;Node5</title>
<path fill="none" stroke="#191970" d="M165.1245,-127.6344C173.6075,-126.6215 182.266,-125.5876 190.8477,-124.563"/>
<polygon fill="#191970" stroke="#191970" points="191.357,-128.0271 200.8715,-123.3661 190.527,-121.0765 191.357,-128.0271"/>
</g>
<!-- Node6 -->
<g id="node6" class="node">
<title>Node6</title>
<g id="a_node6"><a xlink:href="classprecice_1_1com_1_1MPICommunication.html#a25becbfbd420ac50e23dd38af48845cb" target="_top" xlink:title="Returns the communicator. ">
<polygon fill="#ffffff" stroke="#000000" points="201,-49.5 201,-79.5 366,-79.5 366,-49.5 201,-49.5"/>
<text text-anchor="start" x="209" y="-67.5" font-family="Helvetica,sans-Serif" font-size="10.00" fill="#000000">precice::com::MPICommunication</text>
<text text-anchor="middle" x="283.5" y="-56.5" font-family="Helvetica,sans-Serif" font-size="10.00" fill="#000000">::communicator</text>
</a>
</g>
</g>
<!-- Node1&#45;&gt;Node6 -->
<g id="edge5" class="edge">
<title>Node1&#45;&gt;Node6</title>
<path fill="none" stroke="#191970" d="M117.1817,-122.4837C140.6384,-112.5678 172.4315,-99.5912 201,-89.5 207.6942,-87.1354 214.7403,-84.7887 221.778,-82.5345"/>
<polygon fill="#191970" stroke="#191970" points="222.8488,-85.8668 231.3359,-79.5249 220.7464,-79.19 222.8488,-85.8668"/>
</g>
<!-- Node7 -->
<g id="node7" class="node">
<title>Node7</title>
<g id="a_node7"><a xlink:href="classprecice_1_1com_1_1MPICommunication.html#ae0da6da842f54527678d53cc197a91a0" target="_top" xlink:title="precice::com::MPICommunication\l::rank">
<polygon fill="#ffffff" stroke="#000000" points="201,-.5 201,-30.5 366,-30.5 366,-.5 201,-.5"/>
<text text-anchor="start" x="209" y="-18.5" font-family="Helvetica,sans-Serif" font-size="10.00" fill="#000000">precice::com::MPICommunication</text>
<text text-anchor="middle" x="283.5" y="-7.5" font-family="Helvetica,sans-Serif" font-size="10.00" fill="#000000">::rank</text>
</a>
</g>
</g>
<!-- Node1&#45;&gt;Node7 -->
<g id="edge6" class="edge">
<title>Node1&#45;&gt;Node7</title>
<path fill="none" stroke="#191970" d="M97.1706,-122.1765C118.2667,-100.9699 159.2467,-62.7759 201,-40.5 205.2337,-38.2413 209.7009,-36.1562 214.2769,-34.2367"/>
<polygon fill="#191970" stroke="#191970" points="215.7394,-37.4231 223.7823,-30.5266 213.1941,-30.9022 215.7394,-37.4231"/>
</g>
</g>
</svg>
