<?xml version="1.0" encoding="UTF-8" standalone="no"?>
<!DOCTYPE svg PUBLIC "-//W3C//DTD SVG 1.1//EN"
 "http://www.w3.org/Graphics/SVG/1.1/DTD/svg11.dtd">
<!-- Generated by graphviz version 2.40.1 (20161225.0304)
 -->
<!-- Title: precice::mapping::PetRadialBasisFctMapping&lt; RADIAL_BASIS_FUNCTION_T &gt; Pages: 1 -->
<svg width="979pt" height="348pt"
 viewBox="0.00 0.00 979.00 348.00" xmlns="http://www.w3.org/2000/svg" xmlns:xlink="http://www.w3.org/1999/xlink">
<g id="graph0" class="graph" transform="scale(1 1) rotate(0) translate(4 344)">
<title>precice::mapping::PetRadialBasisFctMapping&lt; RADIAL_BASIS_FUNCTION_T &gt;</title>
<polygon fill="#ffffff" stroke="transparent" points="-4,4 -4,-344 975,-344 975,4 -4,4"/>
<!-- Node2 -->
<g id="node1" class="node">
<title>Node2</title>
<polygon fill="#bfbfbf" stroke="#000000" points="831,-131.5 831,-172.5 971,-172.5 971,-131.5 831,-131.5"/>
<text text-anchor="start" x="839" y="-160.5" font-family="Helvetica,sans-Serif" font-size="10.00" fill="#000000">precice::mapping::PetRadial</text>
<text text-anchor="start" x="839" y="-149.5" font-family="Helvetica,sans-Serif" font-size="10.00" fill="#000000">BasisFctMapping&lt; RADIAL</text>
<text text-anchor="middle" x="901" y="-138.5" font-family="Helvetica,sans-Serif" font-size="10.00" fill="#000000">_BASIS_FUNCTION_T &gt;</text>
</g>
<!-- Node3 -->
<g id="node2" class="node">
<title>Node3</title>
<g id="a_node2"><a xlink:href="classprecice_1_1mapping_1_1Mapping.html" target="_top" xlink:title="Abstract base class for mapping of data from one mesh to another. ">
<polygon fill="#ffffff" stroke="#000000" points="573,-320.5 573,-339.5 707,-339.5 707,-320.5 573,-320.5"/>
<text text-anchor="middle" x="640" y="-327.5" font-family="Helvetica,sans-Serif" font-size="10.00" fill="#000000">precice::mapping::Mapping</text>
</a>
</g>
</g>
<!-- Node3&#45;&gt;Node2 -->
<g id="edge1" class="edge">
<title>Node3&#45;&gt;Node2</title>
<path fill="none" stroke="#191970" d="M717.5977,-333.1747C749.4957,-331.0059 785.3557,-323.7577 813,-305 860.2899,-272.912 885.3816,-206.3747 895.5202,-172.6121"/>
<polygon fill="#191970" stroke="#191970" points="717.1994,-329.6906 707.3959,-333.7085 717.5652,-336.6811 717.1994,-329.6906"/>
</g>
<!-- Node4 -->
<g id="node3" class="node">
<title>Node4</title>
<polygon fill="#ffffff" stroke="#bfbfbf" points="588.5,-213.5 588.5,-254.5 691.5,-254.5 691.5,-213.5 588.5,-213.5"/>
<text text-anchor="start" x="596.5" y="-242.5" font-family="Helvetica,sans-Serif" font-size="10.00" fill="#000000">std::map&lt; unsigned</text>
<text text-anchor="start" x="596.5" y="-231.5" font-family="Helvetica,sans-Serif" font-size="10.00" fill="#000000"> int, precice::utils</text>
<text text-anchor="middle" x="640" y="-220.5" font-family="Helvetica,sans-Serif" font-size="10.00" fill="#000000">::petsc::Vector &gt;</text>
</g>
<!-- Node4&#45;&gt;Node2 -->
<g id="edge2" class="edge">
<title>Node4&#45;&gt;Node2</title>
<path fill="none" stroke="#9a32cd" stroke-dasharray="5,2" d="M701.8041,-235.3039C735.6427,-234.1299 777.7395,-229.5237 813,-216 838.2225,-206.3262 862.7251,-187.4901 879.442,-172.7462"/>
<polygon fill="#9a32cd" stroke="#9a32cd" points="701.4919,-231.8106 691.5843,-235.5641 701.6702,-238.8084 701.4919,-231.8106"/>
<text text-anchor="middle" x="775" y="-235" font-family="Helvetica,sans-Serif" font-size="10.00" fill="#000000"> previousSolution</text>
</g>
<!-- Node5 -->
<g id="node4" class="node">
<title>Node5</title>
<g id="a_node4"><a xlink:href="classprecice_1_1utils_1_1petsc_1_1Vector.html" target="_top" xlink:title="precice::utils::petsc\l::Vector">
<polygon fill="#ffffff" stroke="#000000" points="355,-261 355,-291 457,-291 457,-261 355,-261"/>
<text text-anchor="start" x="363" y="-279" font-family="Helvetica,sans-Serif" font-size="10.00" fill="#000000">precice::utils::petsc</text>
<text text-anchor="middle" x="406" y="-268" font-family="Helvetica,sans-Serif" font-size="10.00" fill="#000000">::Vector</text>
</a>
</g>
</g>
<!-- Node5&#45;&gt;Node2 -->
<g id="edge10" class="edge">
<title>Node5&#45;&gt;Node2</title>
<path fill="none" stroke="#9a32cd" stroke-dasharray="5,2" d="M467.1208,-286.6577C550.7906,-298.0637 703.1202,-307.2095 813,-247 845.5312,-229.1743 872.6847,-194.8621 887.8785,-172.7207"/>
<polygon fill="#9a32cd" stroke="#9a32cd" points="467.4105,-283.1638 457.0179,-285.2236 466.4267,-290.0943 467.4105,-283.1638"/>
<text text-anchor="middle" x="640" y="-297" font-family="Helvetica,sans-Serif" font-size="10.00" fill="#000000"> oneInterpolant</text>
</g>
<!-- Node5&#45;&gt;Node4 -->
<g id="edge3" class="edge">
<title>Node5&#45;&gt;Node4</title>
<path fill="none" stroke="#9a32cd" stroke-dasharray="5,2" d="M467.3838,-264.9824C504.9784,-258.2346 552.5567,-249.695 588.2374,-243.2907"/>
<polygon fill="#9a32cd" stroke="#9a32cd" points="466.2875,-261.6232 457.0631,-266.8348 467.5242,-268.5131 466.2875,-261.6232"/>
<text text-anchor="middle" x="521.5" y="-261" font-family="Helvetica,sans-Serif" font-size="10.00" fill="#000000"> elements</text>
</g>
<!-- Node6 -->
<g id="node5" class="node">
<title>Node6</title>
<g id="a_node5"><a xlink:href="classprecice_1_1utils_1_1petsc_1_1Matrix.html" target="_top" xlink:title="precice::utils::petsc\l::Matrix">
<polygon fill="#ffffff" stroke="#000000" points="589,-164 589,-194 691,-194 691,-164 589,-164"/>
<text text-anchor="start" x="597" y="-182" font-family="Helvetica,sans-Serif" font-size="10.00" fill="#000000">precice::utils::petsc</text>
<text text-anchor="middle" x="640" y="-171" font-family="Helvetica,sans-Serif" font-size="10.00" fill="#000000">::Matrix</text>
</a>
</g>
</g>
<!-- Node6&#45;&gt;Node2 -->
<g id="edge4" class="edge">
<title>Node6&#45;&gt;Node2</title>
<path fill="none" stroke="#9a32cd" stroke-dasharray="5,2" d="M701.3491,-172.6535C740.0843,-168.6464 790.2492,-163.457 830.6034,-159.2824"/>
<polygon fill="#9a32cd" stroke="#9a32cd" points="700.8405,-169.1874 691.2538,-173.6979 701.5609,-176.1502 700.8405,-169.1874"/>
<text text-anchor="middle" x="775" y="-204" font-family="Helvetica,sans-Serif" font-size="10.00" fill="#000000"> _matrixQ</text>
<text text-anchor="middle" x="775" y="-193" font-family="Helvetica,sans-Serif" font-size="10.00" fill="#000000">_matrixA</text>
<text text-anchor="middle" x="775" y="-182" font-family="Helvetica,sans-Serif" font-size="10.00" fill="#000000">_matrixC</text>
<text text-anchor="middle" x="775" y="-171" font-family="Helvetica,sans-Serif" font-size="10.00" fill="#000000">_matrixV</text>
</g>
<!-- Node7 -->
<g id="node6" class="node">
<title>Node7</title>
<g id="a_node6"><a xlink:href="classprecice_1_1utils_1_1petsc_1_1KSPSolver.html" target="_top" xlink:title="precice::utils::petsc\l::KSPSolver">
<polygon fill="#ffffff" stroke="#000000" points="589,-115 589,-145 691,-145 691,-115 589,-115"/>
<text text-anchor="start" x="597" y="-133" font-family="Helvetica,sans-Serif" font-size="10.00" fill="#000000">precice::utils::petsc</text>
<text text-anchor="middle" x="640" y="-122" font-family="Helvetica,sans-Serif" font-size="10.00" fill="#000000">::KSPSolver</text>
</a>
</g>
</g>
<!-- Node7&#45;&gt;Node2 -->
<g id="edge5" class="edge">
<title>Node7&#45;&gt;Node2</title>
<path fill="none" stroke="#9a32cd" stroke-dasharray="5,2" d="M701.3,-126.961C734.4795,-126.1687 776.1128,-126.5515 813,-131 818.7697,-131.6958 824.7099,-132.6292 830.6507,-133.7169"/>
<polygon fill="#9a32cd" stroke="#9a32cd" points="701.1869,-123.4627 691.2889,-127.2415 701.383,-130.46 701.1869,-123.4627"/>
<text text-anchor="middle" x="775" y="-145" font-family="Helvetica,sans-Serif" font-size="10.00" fill="#000000"> _QRsolver</text>
<text text-anchor="middle" x="775" y="-134" font-family="Helvetica,sans-Serif" font-size="10.00" fill="#000000">_solver</text>
</g>
<!-- Node8 -->
<g id="node7" class="node">
<title>Node8</title>
<g id="a_node7"><a xlink:href="classprecice_1_1logging_1_1Logger.html" target="_top" xlink:title="This class provides a leightweight logger. ">
<polygon fill="#ffffff" stroke="#000000" points="580,-76.5 580,-95.5 700,-95.5 700,-76.5 580,-76.5"/>
<text text-anchor="middle" x="640" y="-83.5" font-family="Helvetica,sans-Serif" font-size="10.00" fill="#000000">precice::logging::Logger</text>
</a>
</g>
</g>
<!-- Node8&#45;&gt;Node2 -->
<g id="edge6" class="edge">
<title>Node8&#45;&gt;Node2</title>
<path fill="none" stroke="#9a32cd" stroke-dasharray="5,2" d="M710.2892,-91.4481C742.1171,-95.109 779.9356,-101.1418 813,-111 829.9596,-116.0565 847.8111,-123.8625 862.9698,-131.3118"/>
<polygon fill="#9a32cd" stroke="#9a32cd" points="710.5011,-87.9505 700.1795,-90.341 709.7391,-94.9089 710.5011,-87.9505"/>
<text text-anchor="middle" x="775" y="-114" font-family="Helvetica,sans-Serif" font-size="10.00" fill="#000000"> _log</text>
</g>
<!-- Node9 -->
<g id="node8" class="node">
<title>Node9</title>
<polygon fill="#ffffff" stroke="#bfbfbf" points="330,-71 330,-101 482,-101 482,-71 330,-71"/>
<text text-anchor="start" x="338" y="-89" font-family="Helvetica,sans-Serif" font-size="10.00" fill="#000000">std::unique_ptr&lt; precice</text>
<text text-anchor="middle" x="406" y="-78" font-family="Helvetica,sans-Serif" font-size="10.00" fill="#000000">::logging::Logger::LoggerImpl &gt;</text>
</g>
<!-- Node9&#45;&gt;Node8 -->
<g id="edge7" class="edge">
<title>Node9&#45;&gt;Node8</title>
<path fill="none" stroke="#9a32cd" stroke-dasharray="5,2" d="M492.436,-86C521.4564,-86 553.1746,-86 579.7422,-86"/>
<polygon fill="#9a32cd" stroke="#9a32cd" points="492.2966,-82.5001 482.2966,-86 492.2965,-89.5001 492.2966,-82.5001"/>
<text text-anchor="middle" x="521.5" y="-89" font-family="Helvetica,sans-Serif" font-size="10.00" fill="#000000"> _impl</text>
</g>
<!-- Node10 -->
<g id="node9" class="node">
<title>Node10</title>
<g id="a_node9"><a xlink:href="classprecice_1_1logging_1_1Logger_1_1LoggerImpl.html" target="_top" xlink:title="precice::logging::Logger\l::LoggerImpl">
<polygon fill="#ffffff" stroke="#000000" points="159,-71 159,-101 279,-101 279,-71 159,-71"/>
<text text-anchor="start" x="167" y="-89" font-family="Helvetica,sans-Serif" font-size="10.00" fill="#000000">precice::logging::Logger</text>
<text text-anchor="middle" x="219" y="-78" font-family="Helvetica,sans-Serif" font-size="10.00" fill="#000000">::LoggerImpl</text>
</a>
</g>
</g>
<!-- Node10&#45;&gt;Node9 -->
<g id="edge8" class="edge">
<title>Node10&#45;&gt;Node9</title>
<path fill="none" stroke="#9a32cd" stroke-dasharray="5,2" d="M289.5809,-86C302.7275,-86 316.5183,-86 329.8241,-86"/>
<polygon fill="#9a32cd" stroke="#9a32cd" points="289.1973,-82.5001 279.1973,-86 289.1973,-89.5001 289.1973,-82.5001"/>
<text text-anchor="middle" x="304.5" y="-89" font-family="Helvetica,sans-Serif" font-size="10.00" fill="#000000"> ptr</text>
</g>
<!-- Node11 -->
<g id="node10" class="node">
<title>Node11</title>
<polygon fill="#ffffff" stroke="#bfbfbf" points="0,-60 0,-112 122,-112 122,-60 0,-60"/>
<text text-anchor="start" x="8" y="-100" font-family="Helvetica,sans-Serif" font-size="10.00" fill="#000000">boost::log::sources</text>
<text text-anchor="start" x="8" y="-89" font-family="Helvetica,sans-Serif" font-size="10.00" fill="#000000">::severity_logger&lt; boost</text>
<text text-anchor="start" x="8" y="-78" font-family="Helvetica,sans-Serif" font-size="10.00" fill="#000000">::log::trivial::severity</text>
<text text-anchor="middle" x="61" y="-67" font-family="Helvetica,sans-Serif" font-size="10.00" fill="#000000">_level &gt;</text>
</g>
<!-- Node11&#45;&gt;Node10 -->
<g id="edge9" class="edge">
<title>Node11&#45;&gt;Node10</title>
<path fill="none" stroke="#191970" d="M132.0959,-86C141.0342,-86 150.1088,-86 158.8559,-86"/>
<polygon fill="#191970" stroke="#191970" points="132.087,-82.5001 122.0869,-86 132.0869,-89.5001 132.087,-82.5001"/>
</g>
<!-- Node12 -->
<g id="node11" class="node">
<title>Node12</title>
<polygon fill="#ffffff" stroke="#bfbfbf" points="590.5,-38.5 590.5,-57.5 689.5,-57.5 689.5,-38.5 590.5,-38.5"/>
<text text-anchor="middle" x="640" y="-45.5" font-family="Helvetica,sans-Serif" font-size="10.00" fill="#000000">std::vector&lt; bool &gt;</text>
</g>
<!-- Node12&#45;&gt;Node2 -->
<g id="edge11" class="edge">
<title>Node12&#45;&gt;Node2</title>
<path fill="none" stroke="#9a32cd" stroke-dasharray="5,2" d="M700.0763,-51.6814C734.431,-55.5759 777.5938,-63.5766 813,-80 839.6816,-92.3764 865.1151,-114.7367 881.7146,-131.2663"/>
<polygon fill="#9a32cd" stroke="#9a32cd" points="700.025,-48.1571 689.7156,-50.5998 699.2981,-55.1192 700.025,-48.1571"/>
<text text-anchor="middle" x="775" y="-83" font-family="Helvetica,sans-Serif" font-size="10.00" fill="#000000"> _deadAxis</text>
</g>
<!-- Node13 -->
<g id="node12" class="node">
<title>Node13</title>
<polygon fill="#ffffff" stroke="#bfbfbf" points="561,-.5 561,-19.5 719,-19.5 719,-.5 561,-.5"/>
<text text-anchor="middle" x="640" y="-7.5" font-family="Helvetica,sans-Serif" font-size="10.00" fill="#000000">RADIAL_BASIS_FUNCTION_T</text>
</g>
<!-- Node13&#45;&gt;Node2 -->
<g id="edge12" class="edge">
<title>Node13&#45;&gt;Node2</title>
<path fill="none" stroke="#9a32cd" stroke-dasharray="5,2" d="M729.0333,-14.2632C757.4063,-18.7209 787.9168,-26.9821 813,-42 849.0907,-63.6083 876.4092,-105.8362 890.4511,-131.2218"/>
<polygon fill="#9a32cd" stroke="#9a32cd" points="729.4942,-10.7936 719.0989,-12.8403 728.5016,-17.7229 729.4942,-10.7936"/>
<text text-anchor="middle" x="775" y="-45" font-family="Helvetica,sans-Serif" font-size="10.00" fill="#000000"> _basisFunction</text>
</g>
</g>
</svg>
