<?xml version="1.0" encoding="UTF-8" standalone="no"?>
<!DOCTYPE svg PUBLIC "-//W3C//DTD SVG 1.1//EN"
 "http://www.w3.org/Graphics/SVG/1.1/DTD/svg11.dtd">
<!-- Generated by graphviz version 2.40.1 (20161225.0304)
 -->
<!-- Title: precice::com::MPIPortsCommunication::acceptConnection Pages: 1 -->
<svg width="1159pt" height="387pt"
 viewBox="0.00 0.00 1159.00 387.00" xmlns="http://www.w3.org/2000/svg" xmlns:xlink="http://www.w3.org/1999/xlink">
<g id="graph0" class="graph" transform="scale(1 1) rotate(0) translate(4 383)">
<title>precice::com::MPIPortsCommunication::acceptConnection</title>
<polygon fill="#ffffff" stroke="transparent" points="-4,4 -4,-383 1155,-383 1155,4 -4,4"/>
<!-- Node22 -->
<g id="node1" class="node">
<title>Node22</title>
<polygon fill="#bfbfbf" stroke="#000000" points="0,-73.5 0,-103.5 188,-103.5 188,-73.5 0,-73.5"/>
<text text-anchor="start" x="8" y="-91.5" font-family="Helvetica,sans-Serif" font-size="10.00" fill="#000000">precice::com::MPIPortsCommunication</text>
<text text-anchor="middle" x="94" y="-80.5" font-family="Helvetica,sans-Serif" font-size="10.00" fill="#000000">::acceptConnection</text>
</g>
<!-- Node23 -->
<g id="node2" class="node">
<title>Node23</title>
<g id="a_node2"><a xlink:href="classprecice_1_1com_1_1Communication.html#a444946d1a6c67c352fe96b56cdbf1fd2" target="_top" xlink:title="Returns true, if a connection to a remote participant has been setup. ">
<polygon fill="#ffffff" stroke="#000000" points="244.5,-147.5 244.5,-177.5 391.5,-177.5 391.5,-147.5 244.5,-147.5"/>
<text text-anchor="start" x="252.5" y="-165.5" font-family="Helvetica,sans-Serif" font-size="10.00" fill="#000000">precice::com::Communication</text>
<text text-anchor="middle" x="318" y="-154.5" font-family="Helvetica,sans-Serif" font-size="10.00" fill="#000000">::isConnected</text>
</a>
</g>
</g>
<!-- Node22&#45;&gt;Node23 -->
<g id="edge1" class="edge">
<title>Node22&#45;&gt;Node23</title>
<path fill="none" stroke="#191970" d="M130.9153,-103.5477C156.7477,-113.7974 192.1889,-127.3031 224,-137.5 231.7169,-139.9736 239.8437,-142.3983 247.9557,-144.7056"/>
<polygon fill="#191970" stroke="#191970" points="247.2417,-148.14 257.8145,-147.457 249.1234,-141.3976 247.2417,-148.14"/>
</g>
<!-- Node41 -->
<g id="node20" class="node">
<title>Node41</title>
<g id="a_node20"><a xlink:href="classprecice_1_1com_1_1Communication.html#a74a3ad3c6b87e3f94bd104849a9cdaec" target="_top" xlink:title="Set rank offset. ">
<polygon fill="#ffffff" stroke="#000000" points="244.5,-98.5 244.5,-128.5 391.5,-128.5 391.5,-98.5 244.5,-98.5"/>
<text text-anchor="start" x="252.5" y="-116.5" font-family="Helvetica,sans-Serif" font-size="10.00" fill="#000000">precice::com::Communication</text>
<text text-anchor="middle" x="318" y="-105.5" font-family="Helvetica,sans-Serif" font-size="10.00" fill="#000000">::setRankOffset</text>
</a>
</g>
</g>
<!-- Node22&#45;&gt;Node41 -->
<g id="edge26" class="edge">
<title>Node22&#45;&gt;Node41</title>
<path fill="none" stroke="#191970" d="M188.0225,-98.9936C203.2952,-100.6981 219.0257,-102.4538 234.038,-104.1292"/>
<polygon fill="#191970" stroke="#191970" points="233.9754,-107.6439 244.3019,-105.2748 234.7519,-100.6871 233.9754,-107.6439"/>
</g>
<!-- Node42 -->
<g id="node21" class="node">
<title>Node42</title>
<g id="a_node21"><a xlink:href="classprecice_1_1com_1_1ConnectionInfoWriter.html#a7a03778a85535ca32fd7338bb1b4dd65" target="_top" xlink:title="Write the string info, e.g. IP:port to the connection info file. ">
<polygon fill="#ffffff" stroke="#000000" points="254,-49.5 254,-79.5 382,-79.5 382,-49.5 254,-49.5"/>
<text text-anchor="start" x="262" y="-67.5" font-family="Helvetica,sans-Serif" font-size="10.00" fill="#000000">precice::com::Connection</text>
<text text-anchor="middle" x="318" y="-56.5" font-family="Helvetica,sans-Serif" font-size="10.00" fill="#000000">InfoWriter::write</text>
</a>
</g>
</g>
<!-- Node22&#45;&gt;Node42 -->
<g id="edge27" class="edge">
<title>Node22&#45;&gt;Node42</title>
<path fill="none" stroke="#191970" d="M188.0225,-78.4262C206.5381,-76.4423 225.7267,-74.3864 243.4925,-72.4829"/>
<polygon fill="#191970" stroke="#191970" points="244.2023,-75.927 253.7725,-71.3815 243.4565,-68.9669 244.2023,-75.927"/>
</g>
<!-- Node43 -->
<g id="node22" class="node">
<title>Node43</title>
<g id="a_node22"><a xlink:href="classprecice_1_1com_1_1MPIPortsCommunication.html#a2e405e1427d1a6a6bbeb51411ddec6e6" target="_top" xlink:title="Returns the communicator. ">
<polygon fill="#ffffff" stroke="#000000" points="224,-.5 224,-30.5 412,-30.5 412,-.5 224,-.5"/>
<text text-anchor="start" x="232" y="-18.5" font-family="Helvetica,sans-Serif" font-size="10.00" fill="#000000">precice::com::MPIPortsCommunication</text>
<text text-anchor="middle" x="318" y="-7.5" font-family="Helvetica,sans-Serif" font-size="10.00" fill="#000000">::communicator</text>
</a>
</g>
</g>
<!-- Node22&#45;&gt;Node43 -->
<g id="edge28" class="edge">
<title>Node22&#45;&gt;Node43</title>
<path fill="none" stroke="#191970" d="M130.6042,-73.4635C156.4455,-63.1547 192.0235,-49.5746 224,-39.5 230.8475,-37.3426 238.0207,-35.2383 245.2214,-33.2292"/>
<polygon fill="#191970" stroke="#191970" points="246.3038,-36.5618 255.0295,-30.5524 244.4608,-29.8088 246.3038,-36.5618"/>
</g>
<!-- Node24 -->
<g id="node3" class="node">
<title>Node24</title>
<g id="a_node3"><a xlink:href="classprecice_1_1com_1_1Communication.html#a5319067292ba3f7979d92a72f9298f80" target="_top" xlink:title="Returns the number of processes in the remote communicator. ">
<polygon fill="#ffffff" stroke="#000000" points="997,-348.5 997,-378.5 1151,-378.5 1151,-348.5 997,-348.5"/>
<text text-anchor="start" x="1005" y="-366.5" font-family="Helvetica,sans-Serif" font-size="10.00" fill="#000000">precice::com::Communication</text>
<text text-anchor="middle" x="1074" y="-355.5" font-family="Helvetica,sans-Serif" font-size="10.00" fill="#000000">::getRemoteCommunicatorSize</text>
</a>
</g>
</g>
<!-- Node23&#45;&gt;Node24 -->
<g id="edge2" class="edge">
<title>Node23&#45;&gt;Node24</title>
<path fill="none" stroke="#191970" d="M334.3069,-177.5933C357.7029,-198.4336 402.9582,-235.7882 448,-256.5 627.0356,-338.8268 861.203,-358.354 986.2584,-362.6414"/>
<polygon fill="#191970" stroke="#191970" points="986.4368,-366.1488 996.5429,-362.9679 986.659,-359.1523 986.4368,-366.1488"/>
</g>
<!-- Node25 -->
<g id="node4" class="node">
<title>Node25</title>
<g id="a_node4"><a xlink:href="classprecice_1_1com_1_1Communication.html#a652a8cbe5447146b4b3b6200db5ddbeb" target="_top" xlink:title="Accepts connection from another communicator, which has to call requestConnection(). ">
<polygon fill="#ffffff" stroke="#000000" points="631,-240.5 631,-270.5 778,-270.5 778,-240.5 631,-240.5"/>
<text text-anchor="start" x="639" y="-258.5" font-family="Helvetica,sans-Serif" font-size="10.00" fill="#000000">precice::com::Communication</text>
<text text-anchor="middle" x="704.5" y="-247.5" font-family="Helvetica,sans-Serif" font-size="10.00" fill="#000000">::acceptConnection</text>
</a>
</g>
</g>
<!-- Node23&#45;&gt;Node25 -->
<g id="edge3" class="edge">
<title>Node23&#45;&gt;Node25</title>
<path fill="none" stroke="#191970" d="M339.8374,-177.5814C364.766,-193.9415 407.3632,-219.3457 448,-231.5 504.0234,-248.2564 569.7255,-254.1572 620.6077,-255.9201"/>
<polygon fill="#191970" stroke="#191970" points="620.8049,-259.4275 630.905,-256.2278 621.014,-252.4306 620.8049,-259.4275"/>
</g>
<!-- Node26 -->
<g id="node5" class="node">
<title>Node26</title>
<g id="a_node5"><a xlink:href="classprecice_1_1com_1_1Communication.html#a64c6c2ea54877c8ae14373d84ba7a808" target="_top" xlink:title="Accepts connection from another communicator, which has to call requestConnectionAsClient(). ">
<polygon fill="#ffffff" stroke="#000000" points="448,-103.5 448,-133.5 595,-133.5 595,-103.5 448,-103.5"/>
<text text-anchor="start" x="456" y="-121.5" font-family="Helvetica,sans-Serif" font-size="10.00" fill="#000000">precice::com::Communication</text>
<text text-anchor="middle" x="521.5" y="-110.5" font-family="Helvetica,sans-Serif" font-size="10.00" fill="#000000">::acceptConnectionAsServer</text>
</a>
</g>
</g>
<!-- Node23&#45;&gt;Node26 -->
<g id="edge4" class="edge">
<title>Node23&#45;&gt;Node26</title>
<path fill="none" stroke="#191970" d="M387.464,-147.4808C405.0482,-143.6788 424.0677,-139.5664 442.1017,-135.6672"/>
<polygon fill="#191970" stroke="#191970" points="442.9694,-139.0606 452.0038,-133.5262 441.49,-132.2187 442.9694,-139.0606"/>
</g>
<!-- Node27 -->
<g id="node6" class="node">
<title>Node27</title>
<g id="a_node6"><a xlink:href="classprecice_1_1com_1_1Communication.html#ab019bdb3f7ad242a84bdc70cf0236a87" target="_top" xlink:title="Connects to another communicator, which has to call acceptConnection(). ">
<polygon fill="#ffffff" stroke="#000000" points="631,-93.5 631,-123.5 778,-123.5 778,-93.5 631,-93.5"/>
<text text-anchor="start" x="639" y="-111.5" font-family="Helvetica,sans-Serif" font-size="10.00" fill="#000000">precice::com::Communication</text>
<text text-anchor="middle" x="704.5" y="-100.5" font-family="Helvetica,sans-Serif" font-size="10.00" fill="#000000">::requestConnection</text>
</a>
</g>
</g>
<!-- Node23&#45;&gt;Node27 -->
<g id="edge5" class="edge">
<title>Node23&#45;&gt;Node27</title>
<path fill="none" stroke="#191970" d="M391.783,-161.7517C447.9329,-160.0805 526.8931,-155.3563 595,-142.5 600.7377,-141.4169 624.2187,-134.1842 647.9728,-126.6666"/>
<polygon fill="#191970" stroke="#191970" points="649.2894,-129.9209 657.7611,-123.5585 647.1708,-123.2491 649.2894,-129.9209"/>
</g>
<!-- Node28 -->
<g id="node7" class="node">
<title>Node28</title>
<g id="a_node7"><a xlink:href="classprecice_1_1com_1_1Communication.html#a207ba1e3f1ae07417b921a1ff5cc476a" target="_top" xlink:title="Connects to another communicator, which has to call acceptConnectionAsServer(). ">
<polygon fill="#ffffff" stroke="#000000" points="448,-54.5 448,-84.5 595,-84.5 595,-54.5 448,-54.5"/>
<text text-anchor="start" x="456" y="-72.5" font-family="Helvetica,sans-Serif" font-size="10.00" fill="#000000">precice::com::Communication</text>
<text text-anchor="middle" x="521.5" y="-61.5" font-family="Helvetica,sans-Serif" font-size="10.00" fill="#000000">::requestConnectionAsClient</text>
</a>
</g>
</g>
<!-- Node23&#45;&gt;Node28 -->
<g id="edge6" class="edge">
<title>Node23&#45;&gt;Node28</title>
<path fill="none" stroke="#191970" d="M391.7748,-147.7431C398.8792,-144.9053 405.7546,-141.5252 412,-137.5 433.2381,-123.8119 427.1511,-107.7739 448,-93.5 450.2585,-91.9537 452.6236,-90.5015 455.0638,-89.1382"/>
<polygon fill="#191970" stroke="#191970" points="456.7954,-92.1855 464.1729,-84.5814 453.6636,-85.9252 456.7954,-92.1855"/>
</g>
<!-- Node29 -->
<g id="node8" class="node">
<title>Node29</title>
<g id="a_node8"><a xlink:href="classprecice_1_1com_1_1Communication.html#a60034c02c08a248a7b2cd539cb69568b" target="_top" xlink:title="precice::com::Communication\l::connectMasterSlaves">
<polygon fill="#ffffff" stroke="#000000" points="448,-191.5 448,-221.5 595,-221.5 595,-191.5 448,-191.5"/>
<text text-anchor="start" x="456" y="-209.5" font-family="Helvetica,sans-Serif" font-size="10.00" fill="#000000">precice::com::Communication</text>
<text text-anchor="middle" x="521.5" y="-198.5" font-family="Helvetica,sans-Serif" font-size="10.00" fill="#000000">::connectMasterSlaves</text>
</a>
</g>
</g>
<!-- Node23&#45;&gt;Node29 -->
<g id="edge7" class="edge">
<title>Node23&#45;&gt;Node29</title>
<path fill="none" stroke="#191970" d="M387.464,-177.5192C405.0482,-181.3212 424.0677,-185.4336 442.1017,-189.3328"/>
<polygon fill="#191970" stroke="#191970" points="441.49,-192.7813 452.0038,-191.4738 442.9694,-185.9394 441.49,-192.7813"/>
</g>
<!-- Node40 -->
<g id="node19" class="node">
<title>Node40</title>
<g id="a_node19"><a xlink:href="classprecice_1_1com_1_1Communication.html#adce43462d51714bd1ad6ba5cb4e68fee" target="_top" xlink:title="Disconnects from communication space, i.e. participant. ">
<polygon fill="#ffffff" stroke="#000000" points="448,-5.5 448,-35.5 595,-35.5 595,-5.5 448,-5.5"/>
<text text-anchor="start" x="456" y="-23.5" font-family="Helvetica,sans-Serif" font-size="10.00" fill="#000000">precice::com::Communication</text>
<text text-anchor="middle" x="521.5" y="-12.5" font-family="Helvetica,sans-Serif" font-size="10.00" fill="#000000">::closeConnection</text>
</a>
</g>
</g>
<!-- Node23&#45;&gt;Node40 -->
<g id="edge25" class="edge">
<title>Node23&#45;&gt;Node40</title>
<path fill="none" stroke="#191970" d="M391.8396,-150.3101C399.1807,-146.9916 406.0894,-142.7969 412,-137.5 445.0069,-107.9198 415.8292,-74.9874 448,-44.5 449.1266,-43.4324 450.3013,-42.4122 451.5176,-41.4375"/>
<polygon fill="#191970" stroke="#191970" points="453.76,-44.1459 460.077,-35.6403 449.8346,-38.3501 453.76,-44.1459"/>
</g>
<!-- Node29&#45;&gt;Node25 -->
<g id="edge9" class="edge">
<title>Node29&#45;&gt;Node25</title>
<path fill="none" stroke="#191970" d="M577.8993,-221.6014C597.0353,-226.7253 618.5855,-232.4956 638.4079,-237.8032"/>
<polygon fill="#191970" stroke="#191970" points="637.722,-241.2428 648.287,-240.4484 639.5325,-234.481 637.722,-241.2428"/>
</g>
<!-- Node29&#45;&gt;Node27 -->
<g id="edge24" class="edge">
<title>Node29&#45;&gt;Node27</title>
<path fill="none" stroke="#191970" d="M568.4589,-191.4229C577.7128,-187.3495 587.0186,-182.3966 595,-176.5 615.3223,-161.4859 610.1511,-146.7739 631,-132.5 633.2585,-130.9537 635.6236,-129.5015 638.0638,-128.1382"/>
<polygon fill="#191970" stroke="#191970" points="639.7954,-131.1855 647.1729,-123.5814 636.6636,-124.9252 639.7954,-131.1855"/>
</g>
<!-- Node30 -->
<g id="node9" class="node">
<title>Node30</title>
<g id="a_node9"><a xlink:href="classprecice_1_1com_1_1Communication.html#a39d443a319b10525a50bac6b03ddd600" target="_top" xlink:title="Prepare environment used to establish the communication. ">
<polygon fill="#ffffff" stroke="#000000" points="631,-142.5 631,-172.5 778,-172.5 778,-142.5 631,-142.5"/>
<text text-anchor="start" x="639" y="-160.5" font-family="Helvetica,sans-Serif" font-size="10.00" fill="#000000">precice::com::Communication</text>
<text text-anchor="middle" x="704.5" y="-149.5" font-family="Helvetica,sans-Serif" font-size="10.00" fill="#000000">::prepareEstablishment</text>
</a>
</g>
</g>
<!-- Node29&#45;&gt;Node30 -->
<g id="edge8" class="edge">
<title>Node29&#45;&gt;Node30</title>
<path fill="none" stroke="#191970" d="M577.8993,-191.3986C597.0353,-186.2747 618.5855,-180.5044 638.4079,-175.1968"/>
<polygon fill="#191970" stroke="#191970" points="639.5325,-178.519 648.287,-172.5516 637.722,-171.7572 639.5325,-178.519"/>
</g>
<!-- Node31 -->
<g id="node10" class="node">
<title>Node31</title>
<g id="a_node10"><a xlink:href="classprecice_1_1com_1_1Communication.html#a08e2067629d6f0198918a21467d29762" target="_top" xlink:title="Clean&#45;up environment used to establish the communication. ">
<polygon fill="#ffffff" stroke="#000000" points="631,-191.5 631,-221.5 778,-221.5 778,-191.5 631,-191.5"/>
<text text-anchor="start" x="639" y="-209.5" font-family="Helvetica,sans-Serif" font-size="10.00" fill="#000000">precice::com::Communication</text>
<text text-anchor="middle" x="704.5" y="-198.5" font-family="Helvetica,sans-Serif" font-size="10.00" fill="#000000">::cleanupEstablishment</text>
</a>
</g>
</g>
<!-- Node29&#45;&gt;Node31 -->
<g id="edge10" class="edge">
<title>Node29&#45;&gt;Node31</title>
<path fill="none" stroke="#191970" d="M595.1421,-206.5C603.4739,-206.5 612.0113,-206.5 620.4632,-206.5"/>
<polygon fill="#191970" stroke="#191970" points="620.7108,-210.0001 630.7107,-206.5 620.7107,-203.0001 620.7108,-210.0001"/>
</g>
<!-- Node32 -->
<g id="node11" class="node">
<title>Node32</title>
<g id="a_node11"><a xlink:href="classprecice_1_1com_1_1Communication.html#a2462e0a8e7053d7ded3ca67d5b3bfaf6" target="_top" xlink:title="Performs a reduce summation on the rank given by rankMaster. ">
<polygon fill="#ffffff" stroke="#000000" points="814,-216.5 814,-246.5 961,-246.5 961,-216.5 814,-216.5"/>
<text text-anchor="start" x="822" y="-234.5" font-family="Helvetica,sans-Serif" font-size="10.00" fill="#000000">precice::com::Communication</text>
<text text-anchor="middle" x="887.5" y="-223.5" font-family="Helvetica,sans-Serif" font-size="10.00" fill="#000000">::reduceSum</text>
</a>
</g>
</g>
<!-- Node31&#45;&gt;Node32 -->
<g id="edge11" class="edge">
<title>Node31&#45;&gt;Node32</title>
<path fill="none" stroke="#191970" d="M778.1421,-216.5604C786.5655,-217.7111 795.199,-218.8906 803.7418,-220.0576"/>
<polygon fill="#191970" stroke="#191970" points="803.329,-223.5337 813.7107,-221.4195 804.2765,-216.5981 803.329,-223.5337"/>
</g>
<!-- Node33 -->
<g id="node12" class="node">
<title>Node33</title>
<g id="a_node12"><a xlink:href="classprecice_1_1com_1_1Communication.html#a1ab2da696572afe406801d329442da10" target="_top" xlink:title="precice::com::Communication\l::aSend">
<polygon fill="#ffffff" stroke="#000000" points="1000.5,-233.5 1000.5,-263.5 1147.5,-263.5 1147.5,-233.5 1000.5,-233.5"/>
<text text-anchor="start" x="1008.5" y="-251.5" font-family="Helvetica,sans-Serif" font-size="10.00" fill="#000000">precice::com::Communication</text>
<text text-anchor="middle" x="1074" y="-240.5" font-family="Helvetica,sans-Serif" font-size="10.00" fill="#000000">::aSend</text>
</a>
</g>
</g>
<!-- Node31&#45;&gt;Node33 -->
<g id="edge21" class="edge">
<title>Node31&#45;&gt;Node33</title>
<path fill="none" stroke="#191970" d="M755.0843,-221.6159C762.9076,-224.547 770.7805,-227.8561 778,-231.5 795.3901,-240.2773 795.4106,-250.6784 814,-256.5 870.867,-274.3089 938.1876,-271.6335 990.0769,-264.8592"/>
<polygon fill="#191970" stroke="#191970" points="990.8147,-268.2906 1000.2414,-263.4545 989.8564,-261.3565 990.8147,-268.2906"/>
</g>
<!-- Node34 -->
<g id="node13" class="node">
<title>Node34</title>
<g id="a_node13"><a xlink:href="classprecice_1_1com_1_1Communication.html#ab51a4a3d5b89bff04e9aa64a2d9dfb96" target="_top" xlink:title="precice::com::Communication\l::allreduceSum">
<polygon fill="#ffffff" stroke="#000000" points="814,-167.5 814,-197.5 961,-197.5 961,-167.5 814,-167.5"/>
<text text-anchor="start" x="822" y="-185.5" font-family="Helvetica,sans-Serif" font-size="10.00" fill="#000000">precice::com::Communication</text>
<text text-anchor="middle" x="887.5" y="-174.5" font-family="Helvetica,sans-Serif" font-size="10.00" fill="#000000">::allreduceSum</text>
</a>
</g>
</g>
<!-- Node31&#45;&gt;Node34 -->
<g id="edge13" class="edge">
<title>Node31&#45;&gt;Node34</title>
<path fill="none" stroke="#191970" d="M778.1421,-196.842C786.5655,-195.7373 795.199,-194.6051 803.7418,-193.4847"/>
<polygon fill="#191970" stroke="#191970" points="804.2508,-196.948 813.7107,-192.1773 803.3405,-190.0074 804.2508,-196.948"/>
</g>
<!-- Node35 -->
<g id="node14" class="node">
<title>Node35</title>
<g id="a_node14"><a xlink:href="classprecice_1_1com_1_1Communication.html#a21ea14f324d167cc309574d3dc5e17ee" target="_top" xlink:title="Receives a std::string from process with given rank. ">
<polygon fill="#ffffff" stroke="#000000" points="1000.5,-145.5 1000.5,-175.5 1147.5,-175.5 1147.5,-145.5 1000.5,-145.5"/>
<text text-anchor="start" x="1008.5" y="-163.5" font-family="Helvetica,sans-Serif" font-size="10.00" fill="#000000">precice::com::Communication</text>
<text text-anchor="middle" x="1074" y="-152.5" font-family="Helvetica,sans-Serif" font-size="10.00" fill="#000000">::receive</text>
</a>
</g>
</g>
<!-- Node31&#45;&gt;Node35 -->
<g id="edge22" class="edge">
<title>Node31&#45;&gt;Node35</title>
<path fill="none" stroke="#191970" d="M754.6325,-191.4088C762.5919,-188.4568 770.6253,-185.1348 778,-181.5 795.2484,-172.9987 795.5955,-163.0724 814,-157.5 871.0103,-140.2387 938.3265,-141.5688 990.1779,-146.9108"/>
<polygon fill="#191970" stroke="#191970" points="990.0115,-150.4135 1000.3343,-148.0283 990.7772,-143.4555 990.0115,-150.4135"/>
</g>
<!-- Node36 -->
<g id="node15" class="node">
<title>Node36</title>
<g id="a_node15"><a xlink:href="classprecice_1_1com_1_1Communication.html#acfa95686c5b494b3adfe11d5b5d23b87" target="_top" xlink:title="precice::com::Communication\l::broadcast">
<polygon fill="#ffffff" stroke="#000000" points="814,-304.5 814,-334.5 961,-334.5 961,-304.5 814,-304.5"/>
<text text-anchor="start" x="822" y="-322.5" font-family="Helvetica,sans-Serif" font-size="10.00" fill="#000000">precice::com::Communication</text>
<text text-anchor="middle" x="887.5" y="-311.5" font-family="Helvetica,sans-Serif" font-size="10.00" fill="#000000">::broadcast</text>
</a>
</g>
</g>
<!-- Node31&#45;&gt;Node36 -->
<g id="edge16" class="edge">
<title>Node31&#45;&gt;Node36</title>
<path fill="none" stroke="#191970" d="M761.9352,-221.5806C767.6639,-224.3636 773.1464,-227.6422 778,-231.5 801.751,-250.3781 790.8226,-269.9219 814,-289.5 818.5192,-293.3174 823.5891,-296.698 828.8981,-299.681"/>
<polygon fill="#191970" stroke="#191970" points="827.5058,-302.9 838.0033,-304.3328 830.6905,-296.6664 827.5058,-302.9"/>
</g>
<!-- Node38 -->
<g id="node17" class="node">
<title>Node38</title>
<g id="a_node17"><a xlink:href="classprecice_1_1com_1_1Communication.html#a8fb5e92432fc9751ae165953156980b5" target="_top" xlink:title="Sends a std::string to process with given rank. ">
<polygon fill="#ffffff" stroke="#000000" points="814,-79.5 814,-109.5 961,-109.5 961,-79.5 814,-79.5"/>
<text text-anchor="start" x="822" y="-97.5" font-family="Helvetica,sans-Serif" font-size="10.00" fill="#000000">precice::com::Communication</text>
<text text-anchor="middle" x="887.5" y="-86.5" font-family="Helvetica,sans-Serif" font-size="10.00" fill="#000000">::send</text>
</a>
</g>
</g>
<!-- Node31&#45;&gt;Node38 -->
<g id="edge20" class="edge">
<title>Node31&#45;&gt;Node38</title>
<path fill="none" stroke="#191970" d="M761.9048,-191.381C767.6392,-188.6052 773.1313,-185.3388 778,-181.5 801.5289,-162.9482 791.0349,-143.7453 814,-124.5 818.6017,-120.6436 823.7657,-117.231 829.1672,-114.2228"/>
<polygon fill="#191970" stroke="#191970" points="831.0844,-117.1752 838.4246,-109.535 827.922,-110.9302 831.0844,-117.1752"/>
</g>
<!-- Node39 -->
<g id="node18" class="node">
<title>Node39</title>
<g id="a_node18"><a xlink:href="classprecice_1_1com_1_1Communication.html#a5460dcca7939aa7f22aba4a7f68b656f" target="_top" xlink:title="Asynchronously receives an array of double values. ">
<polygon fill="#ffffff" stroke="#000000" points="814,-30.5 814,-60.5 961,-60.5 961,-30.5 814,-30.5"/>
<text text-anchor="start" x="822" y="-48.5" font-family="Helvetica,sans-Serif" font-size="10.00" fill="#000000">precice::com::Communication</text>
<text text-anchor="middle" x="887.5" y="-37.5" font-family="Helvetica,sans-Serif" font-size="10.00" fill="#000000">::aReceive</text>
</a>
</g>
</g>
<!-- Node31&#45;&gt;Node39 -->
<g id="edge23" class="edge">
<title>Node31&#45;&gt;Node39</title>
<path fill="none" stroke="#191970" d="M765.1044,-191.3507C769.8269,-188.5975 774.22,-185.3443 778,-181.5 814.6588,-144.2178 777.1137,-106.5571 814,-69.5 815.0654,-68.4297 816.179,-67.4071 817.3347,-66.4302"/>
<polygon fill="#191970" stroke="#191970" points="819.3828,-69.2685 825.5049,-60.6215 815.3267,-63.5634 819.3828,-69.2685"/>
</g>
<!-- Node32&#45;&gt;Node33 -->
<g id="edge12" class="edge">
<title>Node32&#45;&gt;Node33</title>
<path fill="none" stroke="#191970" d="M961.2097,-238.2189C970.7312,-239.0868 980.5371,-239.9806 990.2061,-240.862"/>
<polygon fill="#191970" stroke="#191970" points="989.9385,-244.352 1000.2149,-241.7743 990.574,-237.3809 989.9385,-244.352"/>
</g>
<!-- Node34&#45;&gt;Node33 -->
<g id="edge14" class="edge">
<title>Node34&#45;&gt;Node33</title>
<path fill="none" stroke="#191970" d="M932.2485,-197.5597C941.7522,-200.803 951.7174,-204.2377 961,-207.5 981.5488,-214.7217 1004.1241,-222.8696 1023.6582,-229.9881"/>
<polygon fill="#191970" stroke="#191970" points="1022.6803,-233.357 1033.2742,-233.4985 1025.0808,-226.7814 1022.6803,-233.357"/>
</g>
<!-- Node34&#45;&gt;Node35 -->
<g id="edge15" class="edge">
<title>Node34&#45;&gt;Node35</title>
<path fill="none" stroke="#191970" d="M961.2097,-173.805C970.7312,-172.6818 980.5371,-171.5251 990.2061,-170.3845"/>
<polygon fill="#191970" stroke="#191970" points="990.6939,-173.8514 1000.2149,-169.2039 989.8737,-166.8996 990.6939,-173.8514"/>
</g>
<!-- Node36&#45;&gt;Node24 -->
<g id="edge17" class="edge">
<title>Node36&#45;&gt;Node24</title>
<path fill="none" stroke="#191970" d="M951.1611,-334.5192C966.978,-338.2508 984.0619,-342.2814 1000.3154,-346.116"/>
<polygon fill="#191970" stroke="#191970" points="999.7729,-349.584 1010.3094,-348.4738 1001.3803,-342.771 999.7729,-349.584"/>
</g>
<!-- Node36&#45;&gt;Node33 -->
<g id="edge18" class="edge">
<title>Node36&#45;&gt;Node33</title>
<path fill="none" stroke="#191970" d="M927.0519,-304.4427C955.6107,-293.5704 994.3632,-278.8175 1024.9019,-267.1915"/>
<polygon fill="#191970" stroke="#191970" points="1026.4048,-270.3645 1034.5052,-263.5356 1023.9142,-263.8225 1026.4048,-270.3645"/>
</g>
<!-- Node37 -->
<g id="node16" class="node">
<title>Node37</title>
<g id="a_node16"><a xlink:href="classprecice_1_1com_1_1Request.html#ad07792939dd8a5e4e23791e21aeacff0" target="_top" xlink:title="precice::com::Request\l::wait">
<polygon fill="#ffffff" stroke="#000000" points="1016,-299.5 1016,-329.5 1132,-329.5 1132,-299.5 1016,-299.5"/>
<text text-anchor="start" x="1024" y="-317.5" font-family="Helvetica,sans-Serif" font-size="10.00" fill="#000000">precice::com::Request</text>
<text text-anchor="middle" x="1074" y="-306.5" font-family="Helvetica,sans-Serif" font-size="10.00" fill="#000000">::wait</text>
</a>
</g>
</g>
<!-- Node36&#45;&gt;Node37 -->
<g id="edge19" class="edge">
<title>Node36&#45;&gt;Node37</title>
<path fill="none" stroke="#191970" d="M961.2097,-317.5239C975.7933,-317.1329 991.0445,-316.724 1005.4485,-316.3378"/>
<polygon fill="#191970" stroke="#191970" points="1005.8628,-319.8281 1015.7654,-316.0613 1005.6751,-312.8306 1005.8628,-319.8281"/>
</g>
</g>
</svg>
