<?xml version="1.0" encoding="UTF-8" standalone="no"?>
<!DOCTYPE svg PUBLIC "-//W3C//DTD SVG 1.1//EN"
 "http://www.w3.org/Graphics/SVG/1.1/DTD/svg11.dtd">
<!-- Generated by graphviz version 2.40.1 (20161225.0304)
 -->
<!-- Title: precice::impl::SolverInterfaceImpl::readVectorData Pages: 1 -->
<svg width="506pt" height="186pt"
 viewBox="0.00 0.00 506.00 186.00" xmlns="http://www.w3.org/2000/svg" xmlns:xlink="http://www.w3.org/1999/xlink">
<g id="graph0" class="graph" transform="scale(1 1) rotate(0) translate(4 182)">
<title>precice::impl::SolverInterfaceImpl::readVectorData</title>
<polygon fill="#ffffff" stroke="transparent" points="-4,4 -4,-182 502,-182 502,4 -4,4"/>
<!-- Node203 -->
<g id="node1" class="node">
<title>Node203</title>
<polygon fill="#bfbfbf" stroke="#000000" points="0,-73.5 0,-103.5 160,-103.5 160,-73.5 0,-73.5"/>
<text text-anchor="start" x="8" y="-91.5" font-family="Helvetica,sans-Serif" font-size="10.00" fill="#000000">precice::impl::SolverInterface</text>
<text text-anchor="middle" x="80" y="-80.5" font-family="Helvetica,sans-Serif" font-size="10.00" fill="#000000">Impl::readVectorData</text>
</g>
<!-- Node204 -->
<g id="node2" class="node">
<title>Node204</title>
<g id="a_node2"><a xlink:href="classprecice_1_1mesh_1_1Data.html#a037067303366cef0cfd6fe31d8348cb3" target="_top" xlink:title="Returns the name of the data set, as set in the config file. ">
<polygon fill="#ffffff" stroke="#000000" points="199.5,-147.5 199.5,-177.5 313.5,-177.5 313.5,-147.5 199.5,-147.5"/>
<text text-anchor="start" x="207.5" y="-165.5" font-family="Helvetica,sans-Serif" font-size="10.00" fill="#000000">precice::mesh::Data</text>
<text text-anchor="middle" x="256.5" y="-154.5" font-family="Helvetica,sans-Serif" font-size="10.00" fill="#000000">::getName</text>
</a>
</g>
</g>
<!-- Node203&#45;&gt;Node204 -->
<g id="edge1" class="edge">
<title>Node203&#45;&gt;Node204</title>
<path fill="none" stroke="#191970" d="M114.1497,-103.532C137.1971,-113.6 168.3397,-127.0553 196,-138.5 200.1047,-140.1984 204.3755,-141.9411 208.6645,-143.6745"/>
<polygon fill="#191970" stroke="#191970" points="207.4416,-146.955 218.0256,-147.4335 210.0501,-140.4592 207.4416,-146.955"/>
</g>
<!-- Node205 -->
<g id="node3" class="node">
<title>Node205</title>
<g id="a_node3"><a xlink:href="classprecice_1_1mesh_1_1Data.html#a47f0953d604c4d460f6cb9ebcb4fdb69" target="_top" xlink:title="Returns the dimension (i.e., number of components) of one data value. ">
<polygon fill="#ffffff" stroke="#000000" points="199.5,-98.5 199.5,-128.5 313.5,-128.5 313.5,-98.5 199.5,-98.5"/>
<text text-anchor="start" x="207.5" y="-116.5" font-family="Helvetica,sans-Serif" font-size="10.00" fill="#000000">precice::mesh::Data</text>
<text text-anchor="middle" x="256.5" y="-105.5" font-family="Helvetica,sans-Serif" font-size="10.00" fill="#000000">::getDimensions</text>
</a>
</g>
</g>
<!-- Node203&#45;&gt;Node205 -->
<g id="edge2" class="edge">
<title>Node203&#45;&gt;Node205</title>
<path fill="none" stroke="#191970" d="M160.2449,-99.8661C169.9419,-101.2396 179.7688,-102.6316 189.2522,-103.9748"/>
<polygon fill="#191970" stroke="#191970" points="188.9934,-107.473 199.3855,-105.4101 189.9752,-100.5422 188.9934,-107.473"/>
</g>
<!-- Node206 -->
<g id="node4" class="node">
<title>Node206</title>
<g id="a_node4"><a xlink:href="classprecice_1_1mesh_1_1Data.html#abbb07782ab096a0560666638a618fb17" target="_top" xlink:title="Returns a reference to the data values. ">
<polygon fill="#ffffff" stroke="#000000" points="199.5,-49.5 199.5,-79.5 313.5,-79.5 313.5,-49.5 199.5,-49.5"/>
<text text-anchor="start" x="207.5" y="-67.5" font-family="Helvetica,sans-Serif" font-size="10.00" fill="#000000">precice::mesh::Data</text>
<text text-anchor="middle" x="256.5" y="-56.5" font-family="Helvetica,sans-Serif" font-size="10.00" fill="#000000">::values</text>
</a>
</g>
</g>
<!-- Node203&#45;&gt;Node206 -->
<g id="edge3" class="edge">
<title>Node203&#45;&gt;Node206</title>
<path fill="none" stroke="#191970" d="M160.2449,-77.5885C169.9419,-76.2699 179.7688,-74.9337 189.2522,-73.6442"/>
<polygon fill="#191970" stroke="#191970" points="189.9483,-77.0818 199.3855,-72.2663 189.0051,-70.1457 189.9483,-77.0818"/>
</g>
<!-- Node207 -->
<g id="node5" class="node">
<title>Node207</title>
<g id="a_node5"><a xlink:href="namespaceprecice_1_1utils_1_1eigenio.html#abb887f3ba1c5af4d48cb2f37dc967af8" target="_top" xlink:title="precice::utils::eigenio\l::debug">
<polygon fill="#ffffff" stroke="#000000" points="196,-.5 196,-30.5 317,-30.5 317,-.5 196,-.5"/>
<text text-anchor="start" x="204" y="-18.5" font-family="Helvetica,sans-Serif" font-size="10.00" fill="#000000">precice::utils::eigenio</text>
<text text-anchor="middle" x="256.5" y="-7.5" font-family="Helvetica,sans-Serif" font-size="10.00" fill="#000000">::debug</text>
</a>
</g>
</g>
<!-- Node203&#45;&gt;Node207 -->
<g id="edge4" class="edge">
<title>Node203&#45;&gt;Node207</title>
<path fill="none" stroke="#191970" d="M116.3102,-73.4698C139.1766,-64.0058 169.3133,-51.5352 196,-40.5 200.7359,-38.5417 205.6806,-36.4975 210.6135,-34.4586"/>
<polygon fill="#191970" stroke="#191970" points="212.1224,-37.6222 220.0274,-30.568 209.4487,-31.1529 212.1224,-37.6222"/>
</g>
<!-- Node208 -->
<g id="node6" class="node">
<title>Node208</title>
<g id="a_node6"><a xlink:href="namespaceprecice_1_1utils_1_1eigenio.html#a4687bb08f3f46818e4b7265d51053840" target="_top" xlink:title="precice::utils::eigenio::wkt">
<polygon fill="#ffffff" stroke="#000000" points="353,-6 353,-25 498,-25 498,-6 353,-6"/>
<text text-anchor="middle" x="425.5" y="-13" font-family="Helvetica,sans-Serif" font-size="10.00" fill="#000000">precice::utils::eigenio::wkt</text>
</a>
</g>
</g>
<!-- Node207&#45;&gt;Node208 -->
<g id="edge5" class="edge">
<title>Node207&#45;&gt;Node208</title>
<path fill="none" stroke="#191970" d="M317.0355,-15.5C325.4087,-15.5 334.1241,-15.5 342.8139,-15.5"/>
<polygon fill="#191970" stroke="#191970" points="342.9813,-19.0001 352.9812,-15.5 342.9812,-12.0001 342.9813,-19.0001"/>
</g>
</g>
</svg>
