<?xml version="1.0" encoding="UTF-8" standalone="no"?>
<!DOCTYPE svg PUBLIC "-//W3C//DTD SVG 1.1//EN"
 "http://www.w3.org/Graphics/SVG/1.1/DTD/svg11.dtd">
<!-- Generated by graphviz version 2.40.1 (20161225.0304)
 -->
<!-- Title: precice::utils::statistics::DistanceAccumulator::max Pages: 1 -->
<svg width="516pt" height="39pt"
 viewBox="0.00 0.00 516.00 39.00" xmlns="http://www.w3.org/2000/svg" xmlns:xlink="http://www.w3.org/1999/xlink">
<g id="graph0" class="graph" transform="scale(1 1) rotate(0) translate(4 35)">
<title>precice::utils::statistics::DistanceAccumulator::max</title>
<polygon fill="#ffffff" stroke="transparent" points="-4,4 -4,-35 512,-35 512,4 -4,4"/>
<!-- Node3 -->
<g id="node1" class="node">
<title>Node3</title>
<polygon fill="#bfbfbf" stroke="#000000" points="0,-.5 0,-30.5 141,-30.5 141,-.5 0,-.5"/>
<text text-anchor="start" x="8" y="-18.5" font-family="Helvetica,sans-Serif" font-size="10.00" fill="#000000">precice::utils::statistics</text>
<text text-anchor="middle" x="70.5" y="-7.5" font-family="Helvetica,sans-Serif" font-size="10.00" fill="#000000">::DistanceAccumulator::max</text>
</g>
<!-- Node4 -->
<g id="node2" class="node">
<title>Node4</title>
<g id="a_node2"><a xlink:href="classprecice_1_1utils_1_1statistics_1_1DistanceAccumulator.html#ab62a4d99f3b8c512aeb45a3a9ae0547b" target="_top" xlink:title="Returns count == 0. ">
<polygon fill="#ffffff" stroke="#000000" points="177,-.5 177,-30.5 326,-30.5 326,-.5 177,-.5"/>
<text text-anchor="start" x="185" y="-18.5" font-family="Helvetica,sans-Serif" font-size="10.00" fill="#000000">precice::utils::statistics</text>
<text text-anchor="middle" x="251.5" y="-7.5" font-family="Helvetica,sans-Serif" font-size="10.00" fill="#000000">::DistanceAccumulator::empty</text>
</a>
</g>
</g>
<!-- Node3&#45;&gt;Node4 -->
<g id="edge1" class="edge">
<title>Node3&#45;&gt;Node4</title>
<path fill="none" stroke="#191970" d="M141.257,-15.5C149.6662,-15.5 158.3145,-15.5 166.8919,-15.5"/>
<polygon fill="#191970" stroke="#191970" points="166.91,-19.0001 176.9099,-15.5 166.9099,-12.0001 166.91,-19.0001"/>
</g>
<!-- Node5 -->
<g id="node3" class="node">
<title>Node5</title>
<g id="a_node3"><a xlink:href="classprecice_1_1utils_1_1statistics_1_1DistanceAccumulator.html#ac9b87639f46a763b1f35cce56f78edd7" target="_top" xlink:title="Returns how many values have been accumulated. ">
<polygon fill="#ffffff" stroke="#000000" points="362,-.5 362,-30.5 508,-30.5 508,-.5 362,-.5"/>
<text text-anchor="start" x="370" y="-18.5" font-family="Helvetica,sans-Serif" font-size="10.00" fill="#000000">precice::utils::statistics</text>
<text text-anchor="middle" x="435" y="-7.5" font-family="Helvetica,sans-Serif" font-size="10.00" fill="#000000">::DistanceAccumulator::count</text>
</a>
</g>
</g>
<!-- Node4&#45;&gt;Node5 -->
<g id="edge2" class="edge">
<title>Node4&#45;&gt;Node5</title>
<path fill="none" stroke="#191970" d="M326.1365,-15.5C334.6233,-15.5 343.3126,-15.5 351.9,-15.5"/>
<polygon fill="#191970" stroke="#191970" points="351.9157,-19.0001 361.9157,-15.5 351.9157,-12.0001 351.9157,-19.0001"/>
</g>
</g>
</svg>
