<?xml version="1.0" encoding="UTF-8" standalone="no"?>
<!DOCTYPE svg PUBLIC "-//W3C//DTD SVG 1.1//EN"
 "http://www.w3.org/Graphics/SVG/1.1/DTD/svg11.dtd">
<!-- Generated by graphviz version 2.40.1 (20161225.0304)
 -->
<!-- Title: precice::com::Communication Pages: 1 -->
<svg width="646pt" height="116pt"
 viewBox="0.00 0.00 646.00 115.50" xmlns="http://www.w3.org/2000/svg" xmlns:xlink="http://www.w3.org/1999/xlink">
<g id="graph0" class="graph" transform="scale(1 1) rotate(0) translate(4 111.5)">
<title>precice::com::Communication</title>
<polygon fill="#ffffff" stroke="transparent" points="-4,4 -4,-111.5 642,-111.5 642,4 -4,4"/>
<!-- Node0 -->
<g id="node1" class="node">
<title>Node0</title>
<polygon fill="#bfbfbf" stroke="#000000" points="0,-31 0,-50 162,-50 162,-31 0,-31"/>
<text text-anchor="middle" x="81" y="-38" font-family="Helvetica,sans-Serif" font-size="10.00" fill="#000000">precice::com::Communication</text>
</g>
<!-- Node1 -->
<g id="node2" class="node">
<title>Node1</title>
<g id="a_node2"><a xlink:href="classprecice_1_1com_1_1MPICommunication.html" target="_top" xlink:title="Provides implementation for basic MPI point&#45;to&#45;point communication. ">
<polygon fill="#ffffff" stroke="#000000" points="206,-50 206,-69 385,-69 385,-50 206,-50"/>
<text text-anchor="middle" x="295.5" y="-57" font-family="Helvetica,sans-Serif" font-size="10.00" fill="#000000">precice::com::MPICommunication</text>
</a>
</g>
</g>
<!-- Node0&#45;&gt;Node1 -->
<g id="edge1" class="edge">
<title>Node0&#45;&gt;Node1</title>
<path fill="none" stroke="#191970" d="M172.1972,-48.5781C183.2863,-49.5603 194.6097,-50.5633 205.6785,-51.5438"/>
<polygon fill="#191970" stroke="#191970" points="172.3631,-45.0792 162.0933,-47.6831 171.7454,-52.0519 172.3631,-45.0792"/>
</g>
<!-- Node5 -->
<g id="node6" class="node">
<title>Node5</title>
<g id="a_node6"><a xlink:href="classprecice_1_1com_1_1SocketCommunication.html" target="_top" xlink:title="Implements Communication by using sockets. ">
<polygon fill="#ffffff" stroke="#000000" points="198,-12 198,-31 393,-31 393,-12 198,-12"/>
<text text-anchor="middle" x="295.5" y="-19" font-family="Helvetica,sans-Serif" font-size="10.00" fill="#000000">precice::com::SocketCommunication</text>
</a>
</g>
</g>
<!-- Node0&#45;&gt;Node5 -->
<g id="edge5" class="edge">
<title>Node0&#45;&gt;Node5</title>
<path fill="none" stroke="#191970" d="M172.2708,-32.4154C180.6808,-31.6705 189.2249,-30.9136 197.6899,-30.1638"/>
<polygon fill="#191970" stroke="#191970" points="171.7454,-28.9481 162.0933,-33.3169 172.3631,-35.9208 171.7454,-28.9481"/>
</g>
<!-- Node2 -->
<g id="node3" class="node">
<title>Node2</title>
<g id="a_node3"><a xlink:href="classprecice_1_1com_1_1MPIDirectCommunication.html" target="_top" xlink:title="Provides connection methods for processes located in one communicator. ">
<polygon fill="#ffffff" stroke="#000000" points="429,-88 429,-107 638,-107 638,-88 429,-88"/>
<text text-anchor="middle" x="533.5" y="-95" font-family="Helvetica,sans-Serif" font-size="10.00" fill="#000000">precice::com::MPIDirectCommunication</text>
</a>
</g>
</g>
<!-- Node1&#45;&gt;Node2 -->
<g id="edge2" class="edge">
<title>Node1&#45;&gt;Node2</title>
<path fill="none" stroke="#191970" d="M365.2348,-70.6341C399.6582,-76.1303 440.7608,-82.6929 473.7252,-87.9561"/>
<polygon fill="#191970" stroke="#191970" points="365.677,-67.1605 355.2502,-69.04 364.5733,-74.0729 365.677,-67.1605"/>
</g>
<!-- Node3 -->
<g id="node4" class="node">
<title>Node3</title>
<g id="a_node4"><a xlink:href="classprecice_1_1com_1_1MPIPortsCommunication.html" target="_top" xlink:title="Provides connection methods based on MPI ports (part of MPI 2.0). ">
<polygon fill="#ffffff" stroke="#000000" points="431.5,-50 431.5,-69 635.5,-69 635.5,-50 431.5,-50"/>
<text text-anchor="middle" x="533.5" y="-57" font-family="Helvetica,sans-Serif" font-size="10.00" fill="#000000">precice::com::MPIPortsCommunication</text>
</a>
</g>
</g>
<!-- Node1&#45;&gt;Node3 -->
<g id="edge3" class="edge">
<title>Node1&#45;&gt;Node3</title>
<path fill="none" stroke="#191970" d="M395.4389,-59.5C407.2493,-59.5 419.3168,-59.5 431.1597,-59.5"/>
<polygon fill="#191970" stroke="#191970" points="395.1385,-56.0001 385.1385,-59.5 395.1384,-63.0001 395.1385,-56.0001"/>
</g>
<!-- Node4 -->
<g id="node5" class="node">
<title>Node4</title>
<g id="a_node5"><a xlink:href="classprecice_1_1com_1_1MPISinglePortsCommunication.html" target="_top" xlink:title="Provides connection methods based on MPI ports (part of MPI 2.0). ">
<polygon fill="#ffffff" stroke="#000000" points="455,-.5 455,-30.5 612,-30.5 612,-.5 455,-.5"/>
<text text-anchor="start" x="463" y="-18.5" font-family="Helvetica,sans-Serif" font-size="10.00" fill="#000000">precice::com::MPISinglePorts</text>
<text text-anchor="middle" x="533.5" y="-7.5" font-family="Helvetica,sans-Serif" font-size="10.00" fill="#000000">Communication</text>
</a>
</g>
</g>
<!-- Node1&#45;&gt;Node4 -->
<g id="edge4" class="edge">
<title>Node1&#45;&gt;Node4</title>
<path fill="none" stroke="#191970" d="M356.9972,-48.1308C386.8186,-42.6176 422.9826,-35.9318 454.7916,-30.0511"/>
<polygon fill="#191970" stroke="#191970" points="356.3395,-44.693 347.1425,-49.9527 357.6121,-51.5763 356.3395,-44.693"/>
</g>
</g>
</svg>
