<?xml version="1.0" encoding="UTF-8" standalone="no"?>
<!DOCTYPE svg PUBLIC "-//W3C//DTD SVG 1.1//EN"
 "http://www.w3.org/Graphics/SVG/1.1/DTD/svg11.dtd">
<!-- Generated by graphviz version 2.40.1 (20161225.0304)
 -->
<!-- Title: BOOST_AUTO_TEST_CASE Pages: 1 -->
<svg width="925pt" height="1457pt"
 viewBox="0.00 0.00 925.00 1456.88" xmlns="http://www.w3.org/2000/svg" xmlns:xlink="http://www.w3.org/1999/xlink">
<g id="graph0" class="graph" transform="scale(1 1) rotate(0) translate(4 1452.8763)">
<title>BOOST_AUTO_TEST_CASE</title>
<polygon fill="#ffffff" stroke="transparent" points="-4,4 -4,-1452.8763 921,-1452.8763 921,4 -4,4"/>
<!-- Node0 -->
<g id="node1" class="node">
<title>Node0</title>
<polygon fill="#bfbfbf" stroke="#000000" points="0,-914.5 0,-933.5 143,-933.5 143,-914.5 0,-914.5"/>
<text text-anchor="middle" x="71.5" y="-921.5" font-family="Helvetica,sans-Serif" font-size="10.00" fill="#000000">BOOST_AUTO_TEST_CASE</text>
</g>
<!-- Node1 -->
<g id="node2" class="node">
<title>Node1</title>
<g id="a_node2"><a xlink:href="namespaceprecice_1_1testing.html#a08533fd83bad3d7f27ea7f4a35a14aa4" target="_top" xlink:title="precice::testing::nextMeshID">
<polygon fill="#ffffff" stroke="#000000" points="179,-611.5 179,-630.5 334,-630.5 334,-611.5 179,-611.5"/>
<text text-anchor="middle" x="256.5" y="-618.5" font-family="Helvetica,sans-Serif" font-size="10.00" fill="#000000">precice::testing::nextMeshID</text>
</a>
</g>
</g>
<!-- Node0&#45;&gt;Node1 -->
<g id="edge1" class="edge">
<title>Node0&#45;&gt;Node1</title>
<path fill="none" stroke="#191970" d="M72.0847,-914.4685C75.0672,-874.4916 92.068,-718.8226 179,-641 181.357,-638.89 183.9076,-636.9971 186.5989,-635.2994"/>
<polygon fill="#191970" stroke="#191970" points="188.4175,-638.2966 195.6074,-630.5149 185.134,-632.1145 188.4175,-638.2966"/>
</g>
<!-- Node3 -->
<g id="node4" class="node">
<title>Node3</title>
<g id="a_node4"><a xlink:href="classprecice_1_1mesh_1_1Mesh.html#ae99d0d5d776e7c676acb72830df4aa45" target="_top" xlink:title="precice::mesh::Mesh\l::createVertex">
<polygon fill="#ffffff" stroke="#000000" points="198.5,-650 198.5,-680 314.5,-680 314.5,-650 198.5,-650"/>
<text text-anchor="start" x="206.5" y="-668" font-family="Helvetica,sans-Serif" font-size="10.00" fill="#000000">precice::mesh::Mesh</text>
<text text-anchor="middle" x="256.5" y="-657" font-family="Helvetica,sans-Serif" font-size="10.00" fill="#000000">::createVertex</text>
</a>
</g>
</g>
<!-- Node0&#45;&gt;Node3 -->
<g id="edge3" class="edge">
<title>Node0&#45;&gt;Node3</title>
<path fill="none" stroke="#191970" d="M78.3037,-914.4749C104.6712,-877.5603 200.5915,-743.272 239.7143,-688.5"/>
<polygon fill="#191970" stroke="#191970" points="242.734,-690.294 245.6983,-680.1223 237.0378,-686.2253 242.734,-690.294"/>
</g>
<!-- Node4 -->
<g id="node5" class="node">
<title>Node4</title>
<g id="a_node5"><a xlink:href="classprecice_1_1mesh_1_1Mesh.html#ae05c5234aa9adc6f47a814622039c28e" target="_top" xlink:title="Creates and initializes an Edge object. ">
<polygon fill="#ffffff" stroke="#000000" points="586,-1034 586,-1064 702,-1064 702,-1034 586,-1034"/>
<text text-anchor="start" x="594" y="-1052" font-family="Helvetica,sans-Serif" font-size="10.00" fill="#000000">precice::mesh::Mesh</text>
<text text-anchor="middle" x="644" y="-1041" font-family="Helvetica,sans-Serif" font-size="10.00" fill="#000000">::createEdge</text>
</a>
</g>
</g>
<!-- Node0&#45;&gt;Node4 -->
<g id="edge45" class="edge">
<title>Node0&#45;&gt;Node4</title>
<path fill="none" stroke="#191970" d="M71.9918,-933.6903C74.6827,-977.4784 90.9496,-1159.4759 179,-1269 240.24,-1345.1751 275.5278,-1352.9401 370,-1378 438.3044,-1396.1186 475.1802,-1423.7953 529,-1378 605.1262,-1313.2241 526.2254,-1248.1284 565,-1156 578.6013,-1123.6835 603.861,-1092.0592 622.1639,-1071.6754"/>
<polygon fill="#191970" stroke="#191970" points="624.8614,-1073.9123 629.0413,-1064.1768 619.7026,-1069.1808 624.8614,-1073.9123"/>
</g>
<!-- Node7 -->
<g id="node8" class="node">
<title>Node7</title>
<g id="a_node8"><a xlink:href="classprecice_1_1mesh_1_1Mesh.html#aec6f303d7791f8a64e2b78180531c89e" target="_top" xlink:title="Returns modifiable container holding all edges. ">
<polygon fill="#ffffff" stroke="#000000" points="586,-1165 586,-1195 702,-1195 702,-1165 586,-1165"/>
<text text-anchor="start" x="594" y="-1183" font-family="Helvetica,sans-Serif" font-size="10.00" fill="#000000">precice::mesh::Mesh</text>
<text text-anchor="middle" x="644" y="-1172" font-family="Helvetica,sans-Serif" font-size="10.00" fill="#000000">::edges</text>
</a>
</g>
</g>
<!-- Node0&#45;&gt;Node7 -->
<g id="edge56" class="edge">
<title>Node0&#45;&gt;Node7</title>
<path fill="none" stroke="#191970" d="M72.8553,-933.8351C80.7659,-989.9612 122.5755,-1269.451 179,-1332 285.3759,-1449.9224 393.4627,-1486.7719 529,-1404 601.4906,-1359.7304 630.1899,-1253.6192 639.8125,-1205.0454"/>
<polygon fill="#191970" stroke="#191970" points="643.2813,-1205.5364 641.6792,-1195.0634 636.4006,-1204.2496 643.2813,-1205.5364"/>
</g>
<!-- Node19 -->
<g id="node20" class="node">
<title>Node19</title>
<g id="a_node20"><a xlink:href="classprecice_1_1mesh_1_1Mesh.html#a13faa9b03e5d20918ed6528db1415fa3" target="_top" xlink:title="Returns modifieable container holding all vertices. ">
<polygon fill="#ffffff" stroke="#000000" points="586,-985 586,-1015 702,-1015 702,-985 586,-985"/>
<text text-anchor="start" x="594" y="-1003" font-family="Helvetica,sans-Serif" font-size="10.00" fill="#000000">precice::mesh::Mesh</text>
<text text-anchor="middle" x="644" y="-992" font-family="Helvetica,sans-Serif" font-size="10.00" fill="#000000">::vertices</text>
</a>
</g>
</g>
<!-- Node0&#45;&gt;Node19 -->
<g id="edge53" class="edge">
<title>Node0&#45;&gt;Node19</title>
<path fill="none" stroke="#191970" d="M78.9303,-933.5329C109.5912,-971.9859 231.2102,-1115.9659 370,-1165 436.6305,-1188.5404 473.1545,-1208.302 529,-1165 579.7718,-1125.6321 520.8324,-1071.6565 565,-1025 568.4058,-1021.4023 572.3248,-1018.3201 576.5574,-1015.6799"/>
<polygon fill="#191970" stroke="#191970" points="578.4373,-1018.6444 585.6219,-1010.8576 575.1496,-1012.4645 578.4373,-1018.6444"/>
</g>
<!-- Node35 -->
<g id="node36" class="node">
<title>Node35</title>
<g id="a_node36"><a xlink:href="classprecice_1_1com_1_1CommunicateMesh.html#ace810ddd981fb3e2553a232a6afbf335" target="_top" xlink:title="Sends a constructed mesh to the receiver with given rank. ">
<polygon fill="#ffffff" stroke="#000000" points="180,-1229 180,-1259 333,-1259 333,-1229 180,-1229"/>
<text text-anchor="start" x="188" y="-1247" font-family="Helvetica,sans-Serif" font-size="10.00" fill="#000000">precice::com::Communicate</text>
<text text-anchor="middle" x="256.5" y="-1236" font-family="Helvetica,sans-Serif" font-size="10.00" fill="#000000">Mesh::sendMesh</text>
</a>
</g>
</g>
<!-- Node0&#45;&gt;Node35 -->
<g id="edge46" class="edge">
<title>Node0&#45;&gt;Node35</title>
<path fill="none" stroke="#191970" d="M72.9602,-933.6498C79.1309,-971.5534 106.1908,-1112.3445 179,-1198 187.8827,-1208.4499 199.7687,-1217.1368 211.5599,-1224.0427"/>
<polygon fill="#191970" stroke="#191970" points="210.0599,-1227.2124 220.5069,-1228.9763 213.4401,-1221.0826 210.0599,-1227.2124"/>
</g>
<!-- Node38 -->
<g id="node39" class="node">
<title>Node38</title>
<g id="a_node39"><a xlink:href="RTreeTests_8cpp.html#a9849f5c774ff22e557184d988b1cf9ea" target="_top" xlink:title="BOOST_TEST">
<polygon fill="#ffffff" stroke="#000000" points="216.5,-573.5 216.5,-592.5 296.5,-592.5 296.5,-573.5 216.5,-573.5"/>
<text text-anchor="middle" x="256.5" y="-580.5" font-family="Helvetica,sans-Serif" font-size="10.00" fill="#000000">BOOST_TEST</text>
</a>
</g>
</g>
<!-- Node0&#45;&gt;Node38 -->
<g id="edge52" class="edge">
<title>Node0&#45;&gt;Node38</title>
<path fill="none" stroke="#191970" d="M73.4321,-914.2848C83.3304,-865.4483 129.8057,-647.3264 179,-602 186.5647,-595.0301 196.2607,-590.505 206.2155,-587.5928"/>
<polygon fill="#191970" stroke="#191970" points="207.2867,-590.9348 216.1871,-585.1874 205.6451,-584.13 207.2867,-590.9348"/>
</g>
<!-- Node39 -->
<g id="node40" class="node">
<title>Node39</title>
<g id="a_node40"><a xlink:href="namespaceprecice_1_1testing.html#a6a116337529290bbb1bf2545b5fb315a" target="_top" xlink:title="equals to be used in tests. Prints both operatorans on failure ">
<polygon fill="#ffffff" stroke="#000000" points="191.5,-268.5 191.5,-287.5 321.5,-287.5 321.5,-268.5 191.5,-268.5"/>
<text text-anchor="middle" x="256.5" y="-275.5" font-family="Helvetica,sans-Serif" font-size="10.00" fill="#000000">precice::testing::equals</text>
</a>
</g>
</g>
<!-- Node0&#45;&gt;Node39 -->
<g id="edge54" class="edge">
<title>Node0&#45;&gt;Node39</title>
<path fill="none" stroke="#191970" d="M74.2588,-914.3667C94.6869,-843.0337 222.4451,-396.9159 250.8908,-297.5866"/>
<polygon fill="#191970" stroke="#191970" points="254.3369,-298.266 253.7253,-287.6889 247.6074,-296.3388 254.3369,-298.266"/>
</g>
<!-- Node2 -->
<g id="node3" class="node">
<title>Node2</title>
<g id="a_node3"><a xlink:href="classprecice_1_1utils_1_1ManageUniqueIDs.html#a02be264c279698ae293587b6576088b5" target="_top" xlink:title="precice::utils::ManageUnique\lIDs::getFreeID">
<polygon fill="#ffffff" stroke="#000000" points="759,-388 759,-418 917,-418 917,-388 759,-388"/>
<text text-anchor="start" x="767" y="-406" font-family="Helvetica,sans-Serif" font-size="10.00" fill="#000000">precice::utils::ManageUnique</text>
<text text-anchor="middle" x="838" y="-395" font-family="Helvetica,sans-Serif" font-size="10.00" fill="#000000">IDs::getFreeID</text>
</a>
</g>
</g>
<!-- Node1&#45;&gt;Node2 -->
<g id="edge2" class="edge">
<title>Node1&#45;&gt;Node2</title>
<path fill="none" stroke="#191970" d="M322.7253,-611.4813C326.9533,-608.9385 330.7918,-605.8183 334,-602 410.6525,-510.7698 282.9603,-148.3797 370,-67 421.619,-18.7377 460.291,-50.4818 529,-67 623.1185,-89.6268 655.2432,-96.8676 723,-166 784.4765,-228.7246 818.4337,-330.7117 831.5641,-377.7573"/>
<polygon fill="#191970" stroke="#191970" points="828.2657,-378.968 834.2565,-387.7065 835.0227,-377.1394 828.2657,-378.968"/>
</g>
<!-- Node3&#45;&gt;Node2 -->
<g id="edge4" class="edge">
<title>Node3&#45;&gt;Node2</title>
<path fill="none" stroke="#191970" d="M314.5856,-654.6867C322.0207,-651.1254 328.8275,-646.3626 334,-640 381.5089,-581.5599 313.9872,-353.3479 370,-303 432.4668,-246.8508 688.19,-341.7724 792.9376,-384.159"/>
<polygon fill="#191970" stroke="#191970" points="791.7142,-387.4399 802.2959,-387.969 794.3538,-380.9566 791.7142,-387.4399"/>
</g>
<!-- Node3&#45;&gt;Node4 -->
<g id="edge5" class="edge">
<title>Node3&#45;&gt;Node4</title>
<path fill="none" stroke="#191970" d="M258.9394,-680.0933C269.4123,-742.8969 312.6483,-982.3643 370,-1028 400.6898,-1052.4204 504.9772,-1054.1351 575.6685,-1052.2365"/>
<polygon fill="#191970" stroke="#191970" points="575.9509,-1055.7297 585.8418,-1051.9324 575.7417,-1048.7328 575.9509,-1055.7297"/>
</g>
<!-- Node5 -->
<g id="node6" class="node">
<title>Node5</title>
<g id="a_node6"><a xlink:href="classprecice_1_1mesh_1_1Mesh.html#aaeeb91bf6152969a12f3901841e1db0c" target="_top" xlink:title="Creates and initializes an Edge object or returns an already existing one. ">
<polygon fill="#ffffff" stroke="#000000" points="391.5,-792 391.5,-822 507.5,-822 507.5,-792 391.5,-792"/>
<text text-anchor="start" x="399.5" y="-810" font-family="Helvetica,sans-Serif" font-size="10.00" fill="#000000">precice::mesh::Mesh</text>
<text text-anchor="middle" x="449.5" y="-799" font-family="Helvetica,sans-Serif" font-size="10.00" fill="#000000">::createUniqueEdge</text>
</a>
</g>
</g>
<!-- Node3&#45;&gt;Node5 -->
<g id="edge7" class="edge">
<title>Node3&#45;&gt;Node5</title>
<path fill="none" stroke="#191970" d="M266.9095,-680.0507C284.9956,-705.0844 324.6573,-755.2619 370,-783 373.6665,-785.243 377.5572,-787.289 381.5702,-789.1536"/>
<polygon fill="#191970" stroke="#191970" points="380.5338,-792.5152 391.1076,-793.1821 383.2576,-786.0668 380.5338,-792.5152"/>
</g>
<!-- Node9 -->
<g id="node10" class="node">
<title>Node9</title>
<g id="a_node10"><a xlink:href="classprecice_1_1mesh_1_1Mesh.html#a00c3db2576c63d8c6f351175ddc0a4d0" target="_top" xlink:title="Creates and initializes a Triangle object. ">
<polygon fill="#ffffff" stroke="#000000" points="391.5,-508 391.5,-538 507.5,-538 507.5,-508 391.5,-508"/>
<text text-anchor="start" x="399.5" y="-526" font-family="Helvetica,sans-Serif" font-size="10.00" fill="#000000">precice::mesh::Mesh</text>
<text text-anchor="middle" x="449.5" y="-515" font-family="Helvetica,sans-Serif" font-size="10.00" fill="#000000">::createTriangle</text>
</a>
</g>
</g>
<!-- Node3&#45;&gt;Node9 -->
<g id="edge12" class="edge">
<title>Node3&#45;&gt;Node9</title>
<path fill="none" stroke="#191970" d="M314.724,-652.6391C321.7769,-649.368 328.4398,-645.2313 334,-640 365.9791,-609.9128 337.9103,-577.9692 370,-548 373.6415,-544.5992 377.7419,-541.6609 382.1118,-539.1223"/>
<polygon fill="#191970" stroke="#191970" points="384.0375,-542.0717 391.3996,-534.4526 380.8931,-535.8176 384.0375,-542.0717"/>
</g>
<!-- Node11 -->
<g id="node12" class="node">
<title>Node11</title>
<g id="a_node12"><a xlink:href="classprecice_1_1mesh_1_1Mesh.html#a6e387c9e2c5ccd43dcf81d57795ba935" target="_top" xlink:title="precice::mesh::Mesh\l::createData">
<polygon fill="#ffffff" stroke="#000000" points="391.5,-694 391.5,-724 507.5,-724 507.5,-694 391.5,-694"/>
<text text-anchor="start" x="399.5" y="-712" font-family="Helvetica,sans-Serif" font-size="10.00" fill="#000000">precice::mesh::Mesh</text>
<text text-anchor="middle" x="449.5" y="-701" font-family="Helvetica,sans-Serif" font-size="10.00" fill="#000000">::createData</text>
</a>
</g>
</g>
<!-- Node3&#45;&gt;Node11 -->
<g id="edge15" class="edge">
<title>Node3&#45;&gt;Node11</title>
<path fill="none" stroke="#191970" d="M314.6681,-678.2611C335.7469,-683.0666 359.7393,-688.5364 381.5837,-693.5165"/>
<polygon fill="#191970" stroke="#191970" points="380.9232,-696.9556 391.4511,-695.766 382.4792,-690.1308 380.9232,-696.9556"/>
</g>
<!-- Node12 -->
<g id="node13" class="node">
<title>Node12</title>
<g id="a_node13"><a xlink:href="classprecice_1_1mesh_1_1Mesh.html#aceb3eabb4f8e40a44d5d1c2822ba7b56" target="_top" xlink:title="precice::mesh::Mesh\l::data">
<polygon fill="#ffffff" stroke="#000000" points="586,-650 586,-680 702,-680 702,-650 586,-650"/>
<text text-anchor="start" x="594" y="-668" font-family="Helvetica,sans-Serif" font-size="10.00" fill="#000000">precice::mesh::Mesh</text>
<text text-anchor="middle" x="644" y="-657" font-family="Helvetica,sans-Serif" font-size="10.00" fill="#000000">::data</text>
</a>
</g>
</g>
<!-- Node3&#45;&gt;Node12 -->
<g id="edge18" class="edge">
<title>Node3&#45;&gt;Node12</title>
<path fill="none" stroke="#191970" d="M314.5127,-665C384.3835,-665 501.5836,-665 575.7393,-665"/>
<polygon fill="#191970" stroke="#191970" points="575.908,-668.5001 585.9079,-665 575.9079,-661.5001 575.908,-668.5001"/>
</g>
<!-- Node14 -->
<g id="node15" class="node">
<title>Node14</title>
<g id="a_node15"><a xlink:href="classprecice_1_1mesh_1_1Mesh.html#a3185fe962ba3e8fe0b3cf451681e6a48" target="_top" xlink:title="Returns the name of the mesh, as set in the config file. ">
<polygon fill="#ffffff" stroke="#000000" points="391.5,-1125 391.5,-1155 507.5,-1155 507.5,-1125 391.5,-1125"/>
<text text-anchor="start" x="399.5" y="-1143" font-family="Helvetica,sans-Serif" font-size="10.00" fill="#000000">precice::mesh::Mesh</text>
<text text-anchor="middle" x="449.5" y="-1132" font-family="Helvetica,sans-Serif" font-size="10.00" fill="#000000">::getName</text>
</a>
</g>
</g>
<!-- Node3&#45;&gt;Node14 -->
<g id="edge19" class="edge">
<title>Node3&#45;&gt;Node14</title>
<path fill="none" stroke="#191970" d="M258.3311,-680.3477C267.1356,-751.6994 307.2869,-1050.2914 370,-1116 373.5788,-1119.7497 377.7204,-1122.9196 382.1962,-1125.5985"/>
<polygon fill="#191970" stroke="#191970" points="380.6567,-1128.7423 391.1551,-1130.1685 383.8376,-1122.5067 380.6567,-1128.7423"/>
</g>
<!-- Node15 -->
<g id="node16" class="node">
<title>Node15</title>
<g id="a_node16"><a xlink:href="classprecice_1_1mesh_1_1Mesh.html#a18fcc2df2cfeba56e8f0af79c63a75e8" target="_top" xlink:title="precice::mesh::Mesh\l::isFlipNormals">
<polygon fill="#ffffff" stroke="#000000" points="391.5,-459 391.5,-489 507.5,-489 507.5,-459 391.5,-459"/>
<text text-anchor="start" x="399.5" y="-477" font-family="Helvetica,sans-Serif" font-size="10.00" fill="#000000">precice::mesh::Mesh</text>
<text text-anchor="middle" x="449.5" y="-466" font-family="Helvetica,sans-Serif" font-size="10.00" fill="#000000">::isFlipNormals</text>
</a>
</g>
</g>
<!-- Node3&#45;&gt;Node15 -->
<g id="edge20" class="edge">
<title>Node3&#45;&gt;Node15</title>
<path fill="none" stroke="#191970" d="M314.5694,-653.6292C321.8199,-650.2107 328.5782,-645.7692 334,-640 378.2925,-592.8695 325.5341,-545.967 370,-499 373.5763,-495.2225 377.7161,-492.013 382.1907,-489.2864"/>
<polygon fill="#191970" stroke="#191970" points="383.8992,-492.3428 391.1479,-484.6158 380.6627,-486.1359 383.8992,-492.3428"/>
</g>
<!-- Node16 -->
<g id="node17" class="node">
<title>Node16</title>
<g id="a_node17"><a xlink:href="classprecice_1_1mesh_1_1Mesh.html#a65ef730ba5ebf191074453fb1b4ebce3" target="_top" xlink:title="precice::mesh::Mesh\l::setFlipNormals">
<polygon fill="#ffffff" stroke="#000000" points="391.5,-410 391.5,-440 507.5,-440 507.5,-410 391.5,-410"/>
<text text-anchor="start" x="399.5" y="-428" font-family="Helvetica,sans-Serif" font-size="10.00" fill="#000000">precice::mesh::Mesh</text>
<text text-anchor="middle" x="449.5" y="-417" font-family="Helvetica,sans-Serif" font-size="10.00" fill="#000000">::setFlipNormals</text>
</a>
</g>
</g>
<!-- Node3&#45;&gt;Node16 -->
<g id="edge21" class="edge">
<title>Node3&#45;&gt;Node16</title>
<path fill="none" stroke="#191970" d="M314.5192,-654.1198C321.8686,-650.6334 328.6682,-646.0424 334,-640 390.8659,-575.5552 312.8971,-514.2349 370,-450 373.5147,-446.0463 377.6471,-442.7121 382.149,-439.9009"/>
<polygon fill="#191970" stroke="#191970" points="383.9943,-442.8844 391.1969,-435.1143 380.7209,-436.6969 383.9943,-442.8844"/>
</g>
<!-- Node17 -->
<g id="node18" class="node">
<title>Node17</title>
<g id="a_node18"><a xlink:href="classprecice_1_1mesh_1_1Mesh.html#a5e5005a7a807ec5947892eeb6279d12d" target="_top" xlink:title="Returns the base ID of the mesh. ">
<polygon fill="#ffffff" stroke="#000000" points="391.5,-361 391.5,-391 507.5,-391 507.5,-361 391.5,-361"/>
<text text-anchor="start" x="399.5" y="-379" font-family="Helvetica,sans-Serif" font-size="10.00" fill="#000000">precice::mesh::Mesh</text>
<text text-anchor="middle" x="449.5" y="-368" font-family="Helvetica,sans-Serif" font-size="10.00" fill="#000000">::getID</text>
</a>
</g>
</g>
<!-- Node3&#45;&gt;Node17 -->
<g id="edge22" class="edge">
<title>Node3&#45;&gt;Node17</title>
<path fill="none" stroke="#191970" d="M314.7276,-654.3003C322.0474,-650.7882 328.7832,-646.1419 334,-640 403.5408,-558.1267 300.158,-482.6166 370,-401 373.4968,-396.9137 377.6542,-393.487 382.2067,-390.6145"/>
<polygon fill="#191970" stroke="#191970" points="384.187,-393.526 391.3787,-385.7459 380.9049,-387.3431 384.187,-393.526"/>
</g>
<!-- Node18 -->
<g id="node19" class="node">
<title>Node18</title>
<g id="a_node19"><a xlink:href="classprecice_1_1mesh_1_1Mesh.html#af5ee0ce0045f0f62382eadc5f4f5b105" target="_top" xlink:title="Returns true if the given vertexID is valid. ">
<polygon fill="#ffffff" stroke="#000000" points="391.5,-988 391.5,-1018 507.5,-1018 507.5,-988 391.5,-988"/>
<text text-anchor="start" x="399.5" y="-1006" font-family="Helvetica,sans-Serif" font-size="10.00" fill="#000000">precice::mesh::Mesh</text>
<text text-anchor="middle" x="449.5" y="-995" font-family="Helvetica,sans-Serif" font-size="10.00" fill="#000000">::isValidVertexID</text>
</a>
</g>
</g>
<!-- Node3&#45;&gt;Node18 -->
<g id="edge23" class="edge">
<title>Node3&#45;&gt;Node18</title>
<path fill="none" stroke="#191970" d="M257.3662,-680.3369C261.0565,-730.8228 279.7534,-893.471 370,-979 373.6037,-982.4153 377.6765,-985.346 382.0269,-987.8608"/>
<polygon fill="#191970" stroke="#191970" points="380.7725,-991.1457 391.2854,-992.4604 383.8869,-984.8767 380.7725,-991.1457"/>
</g>
<!-- Node20 -->
<g id="node21" class="node">
<title>Node20</title>
<g id="a_node21"><a xlink:href="classprecice_1_1mesh_1_1Mesh.html#ad9bd3b09bef6dd82132602821a2df178" target="_top" xlink:title="Returns true if the given edgeID is valid. ">
<polygon fill="#ffffff" stroke="#000000" points="391.5,-1076 391.5,-1106 507.5,-1106 507.5,-1076 391.5,-1076"/>
<text text-anchor="start" x="399.5" y="-1094" font-family="Helvetica,sans-Serif" font-size="10.00" fill="#000000">precice::mesh::Mesh</text>
<text text-anchor="middle" x="449.5" y="-1083" font-family="Helvetica,sans-Serif" font-size="10.00" fill="#000000">::isValidEdgeID</text>
</a>
</g>
</g>
<!-- Node3&#45;&gt;Node20 -->
<g id="edge25" class="edge">
<title>Node3&#45;&gt;Node20</title>
<path fill="none" stroke="#191970" d="M258.978,-680.121C269.9444,-745.3947 315.9633,-1002.3576 370,-1061 373.5941,-1064.9004 377.7467,-1068.297 382.2301,-1071.2543"/>
<polygon fill="#191970" stroke="#191970" points="380.7868,-1074.4619 391.1997,-1076.417 384.2787,-1068.3951 380.7868,-1074.4619"/>
</g>
<!-- Node21 -->
<g id="node22" class="node">
<title>Node21</title>
<g id="a_node22"><a xlink:href="classprecice_1_1mesh_1_1Mesh.html#afa920f8d8d32076837ae5e3dc28b0eea" target="_top" xlink:title="Allocates memory for the vertex data values. ">
<polygon fill="#ffffff" stroke="#000000" points="391,-606 391,-636 508,-636 508,-606 391,-606"/>
<text text-anchor="start" x="399" y="-624" font-family="Helvetica,sans-Serif" font-size="10.00" fill="#000000">precice::mesh::Mesh</text>
<text text-anchor="middle" x="449.5" y="-613" font-family="Helvetica,sans-Serif" font-size="10.00" fill="#000000">::allocateDataValues</text>
</a>
</g>
</g>
<!-- Node3&#45;&gt;Node21 -->
<g id="edge27" class="edge">
<title>Node3&#45;&gt;Node21</title>
<path fill="none" stroke="#191970" d="M314.6681,-651.7389C335.5544,-646.9772 359.3013,-641.5634 380.9847,-636.6201"/>
<polygon fill="#191970" stroke="#191970" points="381.8126,-640.0212 390.7845,-634.3859 380.2567,-633.1963 381.8126,-640.0212"/>
</g>
<!-- Node23 -->
<g id="node24" class="node">
<title>Node23</title>
<g id="a_node24"><a xlink:href="classprecice_1_1mesh_1_1Mesh.html#a02278d8459bfbf8c9dd137070e670e9a" target="_top" xlink:title="Necessary before any geom. operations can be performed on the mesh. ">
<polygon fill="#ffffff" stroke="#000000" points="391.5,-312 391.5,-342 507.5,-342 507.5,-312 391.5,-312"/>
<text text-anchor="start" x="399.5" y="-330" font-family="Helvetica,sans-Serif" font-size="10.00" fill="#000000">precice::mesh::Mesh</text>
<text text-anchor="middle" x="449.5" y="-319" font-family="Helvetica,sans-Serif" font-size="10.00" fill="#000000">::computeState</text>
</a>
</g>
</g>
<!-- Node3&#45;&gt;Node23 -->
<g id="edge30" class="edge">
<title>Node3&#45;&gt;Node23</title>
<path fill="none" stroke="#191970" d="M314.8684,-654.4183C322.1681,-650.8894 328.8609,-646.207 334,-640 416.2654,-540.64 287.3691,-451.0562 370,-352 373.4451,-347.8701 377.5659,-344.4124 382.0935,-341.5189"/>
<polygon fill="#191970" stroke="#191970" points="384.0708,-344.4302 391.2311,-336.6212 380.7639,-338.2605 384.0708,-344.4302"/>
</g>
<!-- Node24 -->
<g id="node25" class="node">
<title>Node24</title>
<g id="a_node25"><a xlink:href="classprecice_1_1mesh_1_1Mesh.html#a988baa22e8e6fcaa9efc64e7943cb2fc" target="_top" xlink:title="Computes the boundingBox for the vertices. ">
<polygon fill="#ffffff" stroke="#000000" points="384.5,-175 384.5,-205 514.5,-205 514.5,-175 384.5,-175"/>
<text text-anchor="start" x="392.5" y="-193" font-family="Helvetica,sans-Serif" font-size="10.00" fill="#000000">precice::mesh::Mesh</text>
<text text-anchor="middle" x="449.5" y="-182" font-family="Helvetica,sans-Serif" font-size="10.00" fill="#000000">::computeBoundingBox</text>
</a>
</g>
</g>
<!-- Node3&#45;&gt;Node24 -->
<g id="edge31" class="edge">
<title>Node3&#45;&gt;Node24</title>
<path fill="none" stroke="#191970" d="M314.7113,-654.7877C322.1291,-651.2125 328.8976,-646.4189 334,-640 392.9797,-565.8033 310.7474,-288.9789 370,-215 371.8655,-212.6709 373.9464,-210.5548 376.196,-208.6325"/>
<polygon fill="#191970" stroke="#191970" points="378.2799,-211.4456 384.426,-202.8156 374.2397,-205.7292 378.2799,-211.4456"/>
</g>
<!-- Node26 -->
<g id="node27" class="node">
<title>Node26</title>
<g id="a_node27"><a xlink:href="classprecice_1_1mesh_1_1Mesh.html#a20584f10c9c7568d038b8a4bb9d7a7c8" target="_top" xlink:title="Removes all mesh elements and data values (does not remove data). ">
<polygon fill="#ffffff" stroke="#000000" points="391.5,-557 391.5,-587 507.5,-587 507.5,-557 391.5,-557"/>
<text text-anchor="start" x="399.5" y="-575" font-family="Helvetica,sans-Serif" font-size="10.00" fill="#000000">precice::mesh::Mesh</text>
<text text-anchor="middle" x="449.5" y="-564" font-family="Helvetica,sans-Serif" font-size="10.00" fill="#000000">::clear</text>
</a>
</g>
</g>
<!-- Node3&#45;&gt;Node26 -->
<g id="edge33" class="edge">
<title>Node3&#45;&gt;Node26</title>
<path fill="none" stroke="#191970" d="M314.8978,-650.1614C321.609,-647.3105 328.1377,-643.9499 334,-640 354.6704,-626.0728 349.2784,-610.851 370,-597 373.7552,-594.4899 377.7768,-592.2202 381.9439,-590.1697"/>
<polygon fill="#191970" stroke="#191970" points="383.5424,-593.2892 391.2523,-586.0223 380.6935,-586.8952 383.5424,-593.2892"/>
</g>
<!-- Node28 -->
<g id="node29" class="node">
<title>Node28</title>
<g id="a_node29"><a xlink:href="classprecice_1_1mesh_1_1Mesh.html#a7dedd0a7f11c247b1739858d910f9cb9" target="_top" xlink:title="Returns a mapping from rank to used (not necessarily owned) vertex IDs. ">
<polygon fill="#ffffff" stroke="#000000" points="386,-224 386,-254 513,-254 513,-224 386,-224"/>
<text text-anchor="start" x="394" y="-242" font-family="Helvetica,sans-Serif" font-size="10.00" fill="#000000">precice::mesh::Mesh</text>
<text text-anchor="middle" x="449.5" y="-231" font-family="Helvetica,sans-Serif" font-size="10.00" fill="#000000">::getVertexDistribution</text>
</a>
</g>
</g>
<!-- Node3&#45;&gt;Node28 -->
<g id="edge36" class="edge">
<title>Node3&#45;&gt;Node28</title>
<path fill="none" stroke="#191970" d="M314.6411,-654.7315C322.0685,-651.164 328.8584,-646.3876 334,-640 437.877,-510.9499 269.3021,-400.5457 370,-269 372.6229,-265.5737 375.6842,-262.5387 379.0496,-259.8503"/>
<polygon fill="#191970" stroke="#191970" points="381.0846,-262.6991 387.3907,-254.1854 377.1518,-256.9083 381.0846,-262.6991"/>
</g>
<!-- Node29 -->
<g id="node30" class="node">
<title>Node29</title>
<g id="a_node30"><a xlink:href="classprecice_1_1mesh_1_1Mesh.html#a590d8e05844921733090cd5906657a93" target="_top" xlink:title="precice::mesh::Mesh\l::getVertexOffsets">
<polygon fill="#ffffff" stroke="#000000" points="391.5,-126 391.5,-156 507.5,-156 507.5,-126 391.5,-126"/>
<text text-anchor="start" x="399.5" y="-144" font-family="Helvetica,sans-Serif" font-size="10.00" fill="#000000">precice::mesh::Mesh</text>
<text text-anchor="middle" x="449.5" y="-133" font-family="Helvetica,sans-Serif" font-size="10.00" fill="#000000">::getVertexOffsets</text>
</a>
</g>
</g>
<!-- Node3&#45;&gt;Node29 -->
<g id="edge37" class="edge">
<title>Node3&#45;&gt;Node29</title>
<path fill="none" stroke="#191970" d="M314.7615,-654.8275C322.1723,-651.2467 328.9255,-646.441 334,-640 399.3734,-557.0215 304.3214,-248.7371 370,-166 373.4858,-161.6088 377.7378,-157.9742 382.4443,-154.9678"/>
<polygon fill="#191970" stroke="#191970" points="384.1744,-158.0116 391.3393,-150.2068 380.8711,-151.84 384.1744,-158.0116"/>
</g>
<!-- Node30 -->
<g id="node31" class="node">
<title>Node30</title>
<g id="a_node31"><a xlink:href="classprecice_1_1mesh_1_1Mesh.html#a806bdb0fb238bd542e8108a041363da5" target="_top" xlink:title="Only used for tests. ">
<polygon fill="#ffffff" stroke="#000000" points="391.5,-77 391.5,-107 507.5,-107 507.5,-77 391.5,-77"/>
<text text-anchor="start" x="399.5" y="-95" font-family="Helvetica,sans-Serif" font-size="10.00" fill="#000000">precice::mesh::Mesh</text>
<text text-anchor="middle" x="449.5" y="-84" font-family="Helvetica,sans-Serif" font-size="10.00" fill="#000000">::setVertexOffsets</text>
</a>
</g>
</g>
<!-- Node3&#45;&gt;Node30 -->
<g id="edge38" class="edge">
<title>Node3&#45;&gt;Node30</title>
<path fill="none" stroke="#191970" d="M314.8025,-654.8596C322.2076,-651.2744 328.9484,-646.4589 334,-640 405.7701,-548.2359 297.8924,-208.4991 370,-117 373.4702,-112.5965 377.7114,-108.9533 382.4106,-105.9412"/>
<polygon fill="#191970" stroke="#191970" points="384.1399,-108.9854 391.2964,-101.1728 380.8299,-102.8174 384.1399,-108.9854"/>
</g>
<!-- Node31 -->
<g id="node32" class="node">
<title>Node31</title>
<g id="a_node32"><a xlink:href="classprecice_1_1mesh_1_1Mesh.html#a0fbbc8211e87e48c5d12789c41ad9af1" target="_top" xlink:title="precice::mesh::Mesh\l::getGlobalNumberOfVertices">
<polygon fill="#ffffff" stroke="#000000" points="370,-939 370,-969 529,-969 529,-939 370,-939"/>
<text text-anchor="start" x="378" y="-957" font-family="Helvetica,sans-Serif" font-size="10.00" fill="#000000">precice::mesh::Mesh</text>
<text text-anchor="middle" x="449.5" y="-946" font-family="Helvetica,sans-Serif" font-size="10.00" fill="#000000">::getGlobalNumberOfVertices</text>
</a>
</g>
</g>
<!-- Node3&#45;&gt;Node31 -->
<g id="edge39" class="edge">
<title>Node3&#45;&gt;Node31</title>
<path fill="none" stroke="#191970" d="M258.4913,-680.1604C265.2213,-725.2268 291.2828,-859.6028 370,-930 371.3299,-931.1893 372.717,-932.3198 374.1527,-933.3942"/>
<polygon fill="#191970" stroke="#191970" points="372.5361,-936.515 382.8459,-938.956 376.3086,-930.6185 372.5361,-936.515"/>
</g>
<!-- Node32 -->
<g id="node33" class="node">
<title>Node32</title>
<g id="a_node33"><a xlink:href="classprecice_1_1mesh_1_1Mesh.html#a02f0fe049261bbe1e82e0a00746b9313" target="_top" xlink:title="precice::mesh::Mesh\l::setGlobalNumberOfVertices">
<polygon fill="#ffffff" stroke="#000000" points="370.5,-890 370.5,-920 528.5,-920 528.5,-890 370.5,-890"/>
<text text-anchor="start" x="378.5" y="-908" font-family="Helvetica,sans-Serif" font-size="10.00" fill="#000000">precice::mesh::Mesh</text>
<text text-anchor="middle" x="449.5" y="-897" font-family="Helvetica,sans-Serif" font-size="10.00" fill="#000000">::setGlobalNumberOfVertices</text>
</a>
</g>
</g>
<!-- Node3&#45;&gt;Node32 -->
<g id="edge40" class="edge">
<title>Node3&#45;&gt;Node32</title>
<path fill="none" stroke="#191970" d="M260.0961,-680.143C270.2178,-719.4346 302.7016,-825.4464 370,-881 371.5427,-882.2735 373.1517,-883.4794 374.8153,-884.6213"/>
<polygon fill="#191970" stroke="#191970" points="373.1514,-887.7041 383.5339,-889.8147 376.7337,-881.6902 373.1514,-887.7041"/>
</g>
<!-- Node33 -->
<g id="node34" class="node">
<title>Node33</title>
<g id="a_node34"><a xlink:href="classprecice_1_1mesh_1_1Mesh.html#ab453e0fcd860442aa942ddced2cee24f" target="_top" xlink:title="precice::mesh::Mesh\l::getOwnedVertexData">
<polygon fill="#ffffff" stroke="#000000" points="386,-743 386,-773 513,-773 513,-743 386,-743"/>
<text text-anchor="start" x="394" y="-761" font-family="Helvetica,sans-Serif" font-size="10.00" fill="#000000">precice::mesh::Mesh</text>
<text text-anchor="middle" x="449.5" y="-750" font-family="Helvetica,sans-Serif" font-size="10.00" fill="#000000">::getOwnedVertexData</text>
</a>
</g>
</g>
<!-- Node3&#45;&gt;Node33 -->
<g id="edge41" class="edge">
<title>Node3&#45;&gt;Node33</title>
<path fill="none" stroke="#191970" d="M277.7828,-680.2035C299.9443,-695.4803 336.0951,-718.8709 370,-734 374.3777,-735.9534 378.9593,-737.8043 383.6181,-739.5463"/>
<polygon fill="#191970" stroke="#191970" points="382.6538,-742.9179 393.2485,-742.967 384.9969,-736.3217 382.6538,-742.9179"/>
</g>
<!-- Node34 -->
<g id="node35" class="node">
<title>Node34</title>
<g id="a_node35"><a xlink:href="classprecice_1_1mesh_1_1Mesh.html#a708f813fb1d2ea852818cdaf55d5b922" target="_top" xlink:title="precice::mesh::Mesh\l::tagAll">
<polygon fill="#ffffff" stroke="#000000" points="391.5,-841 391.5,-871 507.5,-871 507.5,-841 391.5,-841"/>
<text text-anchor="start" x="399.5" y="-859" font-family="Helvetica,sans-Serif" font-size="10.00" fill="#000000">precice::mesh::Mesh</text>
<text text-anchor="middle" x="449.5" y="-848" font-family="Helvetica,sans-Serif" font-size="10.00" fill="#000000">::tagAll</text>
</a>
</g>
</g>
<!-- Node3&#45;&gt;Node34 -->
<g id="edge44" class="edge">
<title>Node3&#45;&gt;Node34</title>
<path fill="none" stroke="#191970" d="M262.513,-680.0086C276.3794,-712.6978 313.7771,-790.7026 370,-832 373.6947,-834.7138 377.698,-837.1238 381.8763,-839.2634"/>
<polygon fill="#191970" stroke="#191970" points="380.6994,-842.5732 391.251,-843.5289 383.5984,-836.2017 380.6994,-842.5732"/>
</g>
<!-- Node4&#45;&gt;Node2 -->
<g id="edge6" class="edge">
<title>Node4&#45;&gt;Node2</title>
<path fill="none" stroke="#191970" d="M702.3337,-1039.4392C710.1302,-1035.9798 717.3643,-1031.3058 723,-1025 804.1975,-934.1478 831.0373,-533.4157 836.7451,-428.3128"/>
<polygon fill="#191970" stroke="#191970" points="840.2558,-428.2008 837.2865,-418.0306 833.2655,-427.8327 840.2558,-428.2008"/>
</g>
<!-- Node5&#45;&gt;Node4 -->
<g id="edge11" class="edge">
<title>Node5&#45;&gt;Node4</title>
<path fill="none" stroke="#191970" d="M507.8194,-817.0999C515.8153,-820.6793 523.2416,-825.5038 529,-832 586.8807,-897.2966 506.8021,-959.9859 565,-1025 568.3492,-1028.7414 572.261,-1031.9083 576.5189,-1034.5878"/>
<polygon fill="#191970" stroke="#191970" points="575.1991,-1037.8491 585.6752,-1039.4313 578.4723,-1031.6615 575.1991,-1037.8491"/>
</g>
<!-- Node6 -->
<g id="node7" class="node">
<title>Node6</title>
<g id="a_node7"><a xlink:href="classprecice_1_1mesh_1_1Vertex.html#aeccde29fd990bdba5a5792372c341ef4" target="_top" xlink:title="Returns the unique (among vertices of one mesh on one processor) ID of the vertex. ">
<polygon fill="#ffffff" stroke="#000000" points="583,-819 583,-849 705,-849 705,-819 583,-819"/>
<text text-anchor="start" x="591" y="-837" font-family="Helvetica,sans-Serif" font-size="10.00" fill="#000000">precice::mesh::Vertex</text>
<text text-anchor="middle" x="644" y="-826" font-family="Helvetica,sans-Serif" font-size="10.00" fill="#000000">::getID</text>
</a>
</g>
</g>
<!-- Node5&#45;&gt;Node6 -->
<g id="edge8" class="edge">
<title>Node5&#45;&gt;Node6</title>
<path fill="none" stroke="#191970" d="M507.593,-815.0643C528.0795,-817.9082 551.3491,-821.1384 572.7946,-824.1154"/>
<polygon fill="#191970" stroke="#191970" points="572.4418,-827.5999 582.8281,-825.5083 573.4043,-820.6664 572.4418,-827.5999"/>
</g>
<!-- Node5&#45;&gt;Node7 -->
<g id="edge9" class="edge">
<title>Node5&#45;&gt;Node7</title>
<path fill="none" stroke="#191970" d="M507.632,-816.7368C515.7536,-820.3569 523.2679,-825.2891 529,-832 599.6238,-914.683 523.249,-973.5956 565,-1074 578.3032,-1105.9921 603.388,-1137.1133 621.7333,-1157.2659"/>
<polygon fill="#191970" stroke="#191970" points="619.265,-1159.7511 628.6394,-1164.6878 624.3896,-1154.9826 619.265,-1159.7511"/>
</g>
<!-- Node8 -->
<g id="node9" class="node">
<title>Node8</title>
<g id="a_node9"><a xlink:href="classprecice_1_1mesh_1_1Edge.html#a7fc88e0289fecf4c41c230d20311dcdb" target="_top" xlink:title="Returns the edge&#39;s vertex with index 0 or 1. ">
<polygon fill="#ffffff" stroke="#000000" points="586.5,-770 586.5,-800 701.5,-800 701.5,-770 586.5,-770"/>
<text text-anchor="start" x="594.5" y="-788" font-family="Helvetica,sans-Serif" font-size="10.00" fill="#000000">precice::mesh::Edge</text>
<text text-anchor="middle" x="644" y="-777" font-family="Helvetica,sans-Serif" font-size="10.00" fill="#000000">::vertex</text>
</a>
</g>
</g>
<!-- Node5&#45;&gt;Node8 -->
<g id="edge10" class="edge">
<title>Node5&#45;&gt;Node8</title>
<path fill="none" stroke="#191970" d="M507.593,-800.4291C529.1429,-797.9915 553.7724,-795.2057 576.1188,-792.6781"/>
<polygon fill="#191970" stroke="#191970" points="576.6629,-796.1389 586.2061,-791.5371 575.8761,-789.1833 576.6629,-796.1389"/>
</g>
<!-- Node9&#45;&gt;Node2 -->
<g id="edge14" class="edge">
<title>Node9&#45;&gt;Node2</title>
<path fill="none" stroke="#191970" d="M507.7265,-529.446C564.8397,-533.3983 653.2585,-533.0774 723,-504 763.368,-487.1693 799.3656,-450.2299 819.9255,-425.9968"/>
<polygon fill="#191970" stroke="#191970" points="822.8567,-427.9445 826.5358,-418.0089 817.4639,-423.4816 822.8567,-427.9445"/>
</g>
<!-- Node10 -->
<g id="node11" class="node">
<title>Node10</title>
<g id="a_node11"><a xlink:href="classprecice_1_1mesh_1_1Edge.html#af27f4bd02d0b67cc5c3d04e2cf1ddee7" target="_top" xlink:title="Checks whether both edges share a vertex. ">
<polygon fill="#ffffff" stroke="#000000" points="586.5,-464 586.5,-494 701.5,-494 701.5,-464 586.5,-464"/>
<text text-anchor="start" x="594.5" y="-482" font-family="Helvetica,sans-Serif" font-size="10.00" fill="#000000">precice::mesh::Edge</text>
<text text-anchor="middle" x="644" y="-471" font-family="Helvetica,sans-Serif" font-size="10.00" fill="#000000">::connectedTo</text>
</a>
</g>
</g>
<!-- Node9&#45;&gt;Node10 -->
<g id="edge13" class="edge">
<title>Node9&#45;&gt;Node10</title>
<path fill="none" stroke="#191970" d="M507.593,-509.8581C529.24,-504.9611 553.9943,-499.3612 576.4206,-494.2879"/>
<polygon fill="#191970" stroke="#191970" points="577.2249,-497.6945 586.2061,-492.0742 575.6803,-490.867 577.2249,-497.6945"/>
</g>
<!-- Node11&#45;&gt;Node12 -->
<g id="edge16" class="edge">
<title>Node11&#45;&gt;Node12</title>
<path fill="none" stroke="#191970" d="M507.593,-695.8581C529.0458,-691.0051 553.5506,-685.4616 575.8167,-680.4245"/>
<polygon fill="#191970" stroke="#191970" points="576.8893,-683.7704 585.8705,-678.1501 575.3447,-676.9429 576.8893,-683.7704"/>
</g>
<!-- Node13 -->
<g id="node14" class="node">
<title>Node13</title>
<g id="a_node14"><a xlink:href="classprecice_1_1mesh_1_1Data.html#a571e94df898349b76b6c4ce8db34ccd1" target="_top" xlink:title="Returns the number of created (and still existing) Data objects. ">
<polygon fill="#ffffff" stroke="#000000" points="587,-699 587,-729 701,-729 701,-699 587,-699"/>
<text text-anchor="start" x="595" y="-717" font-family="Helvetica,sans-Serif" font-size="10.00" fill="#000000">precice::mesh::Data</text>
<text text-anchor="middle" x="644" y="-706" font-family="Helvetica,sans-Serif" font-size="10.00" fill="#000000">::getDataCount</text>
</a>
</g>
</g>
<!-- Node11&#45;&gt;Node13 -->
<g id="edge17" class="edge">
<title>Node11&#45;&gt;Node13</title>
<path fill="none" stroke="#191970" d="M507.593,-710.4934C529.337,-711.0524 554.2164,-711.6919 576.7222,-712.2705"/>
<polygon fill="#191970" stroke="#191970" points="576.7892,-715.7733 586.8759,-712.5315 576.9692,-708.7756 576.7892,-715.7733"/>
</g>
<!-- Node18&#45;&gt;Node19 -->
<g id="edge24" class="edge">
<title>Node18&#45;&gt;Node19</title>
<path fill="none" stroke="#191970" d="M507.593,-1002.104C529.0458,-1001.7731 553.5506,-1001.3951 575.8167,-1001.0517"/>
<polygon fill="#191970" stroke="#191970" points="575.9257,-1004.5505 585.8705,-1000.8966 575.8177,-997.5513 575.9257,-1004.5505"/>
</g>
<!-- Node20&#45;&gt;Node7 -->
<g id="edge26" class="edge">
<title>Node20&#45;&gt;Node7</title>
<path fill="none" stroke="#191970" d="M502.6483,-1106.0611C511.5601,-1109.0547 520.6268,-1112.398 529,-1116 557.778,-1128.3799 588.7177,-1145.8573 611.2486,-1159.4206"/>
<polygon fill="#191970" stroke="#191970" points="609.6929,-1162.5711 620.0548,-1164.7804 613.3322,-1156.5915 609.6929,-1162.5711"/>
</g>
<!-- Node21&#45;&gt;Node12 -->
<g id="edge28" class="edge">
<title>Node21&#45;&gt;Node12</title>
<path fill="none" stroke="#191970" d="M508.1202,-634.2611C529.4598,-639.0886 553.7626,-644.5864 575.8573,-649.5847"/>
<polygon fill="#191970" stroke="#191970" points="575.3092,-653.0491 585.835,-651.8419 576.8538,-646.2216 575.3092,-653.0491"/>
</g>
<!-- Node22 -->
<g id="node23" class="node">
<title>Node22</title>
<g id="a_node23"><a xlink:href="namespaceprecice_1_1utils.html#a70a03ea1367189736d49351c6385c8c9" target="_top" xlink:title="precice::utils::append">
<polygon fill="#ffffff" stroke="#000000" points="583.5,-611.5 583.5,-630.5 704.5,-630.5 704.5,-611.5 583.5,-611.5"/>
<text text-anchor="middle" x="644" y="-618.5" font-family="Helvetica,sans-Serif" font-size="10.00" fill="#000000">precice::utils::append</text>
</a>
</g>
</g>
<!-- Node21&#45;&gt;Node22 -->
<g id="edge29" class="edge">
<title>Node21&#45;&gt;Node22</title>
<path fill="none" stroke="#191970" d="M508.1202,-621C528.6877,-621 552.0079,-621 573.4508,-621"/>
<polygon fill="#191970" stroke="#191970" points="573.479,-624.5001 583.4789,-621 573.4789,-617.5001 573.479,-624.5001"/>
</g>
<!-- Node25 -->
<g id="node26" class="node">
<title>Node25</title>
<g id="a_node26"><a xlink:href="classprecice_1_1mesh_1_1BoundingBox.html#a7aeb328ca8291253c4fd22d0d4cb0a18" target="_top" xlink:title="Expand bounding box using another bounding box. ">
<polygon fill="#ffffff" stroke="#000000" points="566.5,-175 566.5,-205 721.5,-205 721.5,-175 566.5,-175"/>
<text text-anchor="start" x="574.5" y="-193" font-family="Helvetica,sans-Serif" font-size="10.00" fill="#000000">precice::mesh::BoundingBox</text>
<text text-anchor="middle" x="644" y="-182" font-family="Helvetica,sans-Serif" font-size="10.00" fill="#000000">::expandBy</text>
</a>
</g>
</g>
<!-- Node24&#45;&gt;Node25 -->
<g id="edge32" class="edge">
<title>Node24&#45;&gt;Node25</title>
<path fill="none" stroke="#191970" d="M514.5361,-190C527.8659,-190 542.106,-190 556.0864,-190"/>
<polygon fill="#191970" stroke="#191970" points="556.2036,-193.5001 566.2036,-190 556.2036,-186.5001 556.2036,-193.5001"/>
</g>
<!-- Node26&#45;&gt;Node12 -->
<g id="edge35" class="edge">
<title>Node26&#45;&gt;Node12</title>
<path fill="none" stroke="#191970" d="M507.7477,-586.0223C515.212,-589.0358 522.5045,-592.6582 529,-597 549.7216,-610.851 544.291,-626.1302 565,-640 568.5634,-642.3865 572.3682,-644.5563 576.3098,-646.5273"/>
<polygon fill="#191970" stroke="#191970" points="575.1523,-649.845 585.7063,-650.7744 578.0355,-643.4663 575.1523,-649.845"/>
</g>
<!-- Node27 -->
<g id="node28" class="node">
<title>Node27</title>
<g id="a_node28"><a xlink:href="classprecice_1_1utils_1_1ManageUniqueIDs.html#af8eca33b69c8ee473d27f639bd29c25c" target="_top" xlink:title="Resets all retrieved and inserted IDs. ">
<polygon fill="#ffffff" stroke="#000000" points="565,-557 565,-587 723,-587 723,-557 565,-557"/>
<text text-anchor="start" x="573" y="-575" font-family="Helvetica,sans-Serif" font-size="10.00" fill="#000000">precice::utils::ManageUnique</text>
<text text-anchor="middle" x="644" y="-564" font-family="Helvetica,sans-Serif" font-size="10.00" fill="#000000">IDs::resetIDs</text>
</a>
</g>
</g>
<!-- Node26&#45;&gt;Node27 -->
<g id="edge34" class="edge">
<title>Node26&#45;&gt;Node27</title>
<path fill="none" stroke="#191970" d="M507.593,-572C522.3767,-572 538.6098,-572 554.5609,-572"/>
<polygon fill="#191970" stroke="#191970" points="554.9842,-575.5001 564.9842,-572 554.9841,-568.5001 554.9842,-575.5001"/>
</g>
<!-- Node33&#45;&gt;Node12 -->
<g id="edge42" class="edge">
<title>Node33&#45;&gt;Node12</title>
<path fill="none" stroke="#191970" d="M512.3198,-742.9578C518.1798,-740.4092 523.8456,-737.4446 529,-734 550.0076,-719.9608 544.0862,-704.1786 565,-690 568.5498,-687.5934 572.3443,-685.4082 576.2782,-683.4256"/>
<polygon fill="#191970" stroke="#191970" points="578.0072,-686.4843 585.6609,-679.1582 575.1091,-680.1124 578.0072,-686.4843"/>
</g>
<!-- Node33&#45;&gt;Node19 -->
<g id="edge43" class="edge">
<title>Node33&#45;&gt;Node19</title>
<path fill="none" stroke="#191970" d="M513.2813,-772.6347C518.9502,-775.4951 524.3086,-778.9139 529,-783 557.1841,-807.5478 547.8555,-825.7885 565,-859 586.5304,-900.7079 613.6541,-948.112 629.8687,-975.9603"/>
<polygon fill="#191970" stroke="#191970" points="627.0559,-978.0842 635.122,-984.9536 633.1003,-974.5535 627.0559,-978.0842"/>
</g>
<!-- Node35&#45;&gt;Node7 -->
<g id="edge50" class="edge">
<title>Node35&#45;&gt;Node7</title>
<path fill="none" stroke="#191970" d="M333.1283,-1250.273C388.3838,-1252.7489 464.3131,-1251.916 529,-1236 558.5656,-1228.7255 589.4492,-1213.1796 611.7581,-1200.3091"/>
<polygon fill="#191970" stroke="#191970" points="613.6321,-1203.2673 620.465,-1195.1702 610.0741,-1197.2389 613.6321,-1203.2673"/>
</g>
<!-- Node35&#45;&gt;Node14 -->
<g id="edge47" class="edge">
<title>Node35&#45;&gt;Node14</title>
<path fill="none" stroke="#191970" d="M284.5639,-1228.8775C318.2966,-1210.7003 375.0156,-1180.1366 412.3531,-1160.017"/>
<polygon fill="#191970" stroke="#191970" points="414.2593,-1162.9657 421.4023,-1155.1407 410.9387,-1156.8034 414.2593,-1162.9657"/>
</g>
<!-- Node35&#45;&gt;Node19 -->
<g id="edge49" class="edge">
<title>Node35&#45;&gt;Node19</title>
<path fill="none" stroke="#191970" d="M333.0308,-1235.5254C408.6192,-1226.4553 514.9371,-1211.5393 529,-1198 585.5766,-1143.5299 512.35,-1083.2742 565,-1025 568.4673,-1021.1623 572.5189,-1017.9094 576.9223,-1015.1528"/>
<polygon fill="#191970" stroke="#191970" points="578.5848,-1018.2329 585.7627,-1010.4401 575.2918,-1012.0558 578.5848,-1018.2329"/>
</g>
<!-- Node36 -->
<g id="node37" class="node">
<title>Node36</title>
<g id="a_node37"><a xlink:href="classprecice_1_1mesh_1_1Mesh.html#a136f6b4ce235025e418fab0ca5f350ff" target="_top" xlink:title="precice::mesh::Mesh\l::getDimensions">
<polygon fill="#ffffff" stroke="#000000" points="391.5,-1289 391.5,-1319 507.5,-1319 507.5,-1289 391.5,-1289"/>
<text text-anchor="start" x="399.5" y="-1307" font-family="Helvetica,sans-Serif" font-size="10.00" fill="#000000">precice::mesh::Mesh</text>
<text text-anchor="middle" x="449.5" y="-1296" font-family="Helvetica,sans-Serif" font-size="10.00" fill="#000000">::getDimensions</text>
</a>
</g>
</g>
<!-- Node35&#45;&gt;Node36 -->
<g id="edge48" class="edge">
<title>Node35&#45;&gt;Node36</title>
<path fill="none" stroke="#191970" d="M305.202,-1259.1405C331.3588,-1267.2722 363.7837,-1277.3525 391.2671,-1285.8965"/>
<polygon fill="#191970" stroke="#191970" points="390.5599,-1289.3418 401.1482,-1288.9683 392.638,-1282.6574 390.5599,-1289.3418"/>
</g>
<!-- Node37 -->
<g id="node38" class="node">
<title>Node37</title>
<g id="a_node38"><a xlink:href="classprecice_1_1mesh_1_1Mesh.html#ad24f3877f1ea7cd5cd5f93a6f2e4d3f9" target="_top" xlink:title="Returns modifiable container holding all triangles. ">
<polygon fill="#ffffff" stroke="#000000" points="391.5,-1338 391.5,-1368 507.5,-1368 507.5,-1338 391.5,-1338"/>
<text text-anchor="start" x="399.5" y="-1356" font-family="Helvetica,sans-Serif" font-size="10.00" fill="#000000">precice::mesh::Mesh</text>
<text text-anchor="middle" x="449.5" y="-1345" font-family="Helvetica,sans-Serif" font-size="10.00" fill="#000000">::triangles</text>
</a>
</g>
</g>
<!-- Node35&#45;&gt;Node37 -->
<g id="edge51" class="edge">
<title>Node35&#45;&gt;Node37</title>
<path fill="none" stroke="#191970" d="M272.9347,-1259.2796C293.9645,-1278.0948 332.2098,-1309.8993 370,-1329 373.7636,-1330.9023 377.7051,-1332.6832 381.7346,-1334.3456"/>
<polygon fill="#191970" stroke="#191970" points="380.6644,-1337.684 391.2542,-1338.011 383.1797,-1331.1515 380.6644,-1337.684"/>
</g>
<!-- Node40 -->
<g id="node41" class="node">
<title>Node40</title>
<g id="a_node41"><a xlink:href="namespaceprecice_1_1math.html#a0e86802cfe992deba131d789d035b5b7" target="_top" xlink:title="Compares two Eigen::MatrixBase for equality up to tolerance. ">
<polygon fill="#ffffff" stroke="#000000" points="388.5,-.5 388.5,-19.5 510.5,-19.5 510.5,-.5 388.5,-.5"/>
<text text-anchor="middle" x="449.5" y="-7.5" font-family="Helvetica,sans-Serif" font-size="10.00" fill="#000000">precice::math::equals</text>
</a>
</g>
</g>
<!-- Node39&#45;&gt;Node40 -->
<g id="edge55" class="edge">
<title>Node39&#45;&gt;Node40</title>
<path fill="none" stroke="#191970" d="M258.0829,-268.3828C264.5915,-231.9404 292.6943,-101.026 370,-34 374.7895,-29.8473 380.279,-26.4132 386.0867,-23.5732"/>
<polygon fill="#191970" stroke="#191970" points="387.602,-26.7319 395.4202,-19.5816 384.8495,-20.2957 387.602,-26.7319"/>
</g>
</g>
</svg>
