<?xml version="1.0" encoding="UTF-8" standalone="no"?>
<!DOCTYPE svg PUBLIC "-//W3C//DTD SVG 1.1//EN"
 "http://www.w3.org/Graphics/SVG/1.1/DTD/svg11.dtd">
<!-- Generated by graphviz version 2.40.1 (20161225.0304)
 -->
<!-- Title: src/com/Communication.hpp Pages: 1 -->
<!--zoomable 263 -->
<svg id="main" version="1.1" xmlns="http://www.w3.org/2000/svg" xmlns:xlink="http://www.w3.org/1999/xlink" xml:space="preserve" onload="init(evt)">
<style type="text/css"><![CDATA[
.edge:hover path { stroke: red; }
.edge:hover polygon { stroke: red; fill: red; }
]]></style>
<script type="text/javascript"><![CDATA[
var edges = document.getElementsByTagName('g');
if (edges && edges.length) {
  for (var i=0;i<edges.length;i++) {
    if (edges[i].id.substr(0,4)=='edge') {
      edges[i].setAttribute('class','edge');
    }
  }
}
]]></script>
        <defs>
                <circle id="rim" cx="0" cy="0" r="7"/>
                <circle id="rim2" cx="0" cy="0" r="3.5"/>
                <g id="zoomPlus">
                        <use xlink:href="#rim" fill="#404040">
                                <set attributeName="fill" to="#808080" begin="zoomplus.mouseover" end="zoomplus.mouseout"/>
                        </use>
                        <path d="M-4,0h8M0,-4v8" fill="none" stroke="white" stroke-width="1.5" pointer-events="none"/>
                </g>
                <g id="zoomMin">
                        <use xlink:href="#rim" fill="#404040">
                                <set attributeName="fill" to="#808080" begin="zoomminus.mouseover" end="zoomminus.mouseout"/>
                        </use>
                        <path d="M-4,0h8" fill="none" stroke="white" stroke-width="1.5" pointer-events="none"/>
                </g>
                <g id="dirArrow">
                        <path fill="none" stroke="white" stroke-width="1.5" d="M0,-3.0v7 M-2.5,-0.5L0,-3.0L2.5,-0.5"/>
                </g>
               <g id="resetDef">
                       <use xlink:href="#rim2" fill="#404040">
                               <set attributeName="fill" to="#808080" begin="reset.mouseover" end="reset.mouseout"/>
                       </use>
               </g>
        </defs>

<script type="text/javascript">
var viewWidth = 1562;
var viewHeight = 263;
var sectionId = 'dynsection-0';
</script>
<script xlink:href="svgpan.js"/>
<svg id="graph" class="graph">
<g id="viewport">
<title>src/com/Communication.hpp</title>
<polygon fill="#ffffff" stroke="transparent" points="-4,4 -4,-259 1557.5,-259 1557.5,4 -4,4"/>
<!-- Node0 -->
<g id="node1" class="node">
<title>Node0</title>
<polygon fill="#bfbfbf" stroke="#000000" points="95,-235.5 95,-254.5 237,-254.5 237,-235.5 95,-235.5"/>
<text text-anchor="middle" x="166" y="-242.5" font-family="Helvetica,sans-Serif" font-size="10.00" fill="#000000">src/com/Communication.hpp</text>
</g>
<!-- Node1 -->
<g id="node2" class="node">
<title>Node1</title>
<polygon fill="#ffffff" stroke="#bfbfbf" points="0,-179.5 0,-198.5 30,-198.5 30,-179.5 0,-179.5"/>
<text text-anchor="middle" x="15" y="-186.5" font-family="Helvetica,sans-Serif" font-size="10.00" fill="#000000">set</text>
</g>
<!-- Node0&#45;&gt;Node1 -->
<g id="edge1" class="edge">
<title>Node0&#45;&gt;Node1</title>
<path fill="none" stroke="#191970" d="M138.3609,-235.4129C114.456,-227.0284 78.7785,-214.295 39.6615,-199.146"/>
<polygon fill="#191970" stroke="#191970" points="40.78,-195.8256 30.1915,-195.457 38.239,-202.3482 40.78,-195.8256"/>
</g>
<!-- Node2 -->
<g id="node3" class="node">
<title>Node2</title>
<polygon fill="#ffffff" stroke="#bfbfbf" points="48,-179.5 48,-198.5 100,-198.5 100,-179.5 48,-179.5"/>
<text text-anchor="middle" x="74" y="-186.5" font-family="Helvetica,sans-Serif" font-size="10.00" fill="#000000">stddef.h</text>
</g>
<!-- Node0&#45;&gt;Node2 -->
<g id="edge2" class="edge">
<title>Node0&#45;&gt;Node2</title>
<path fill="none" stroke="#191970" d="M149.9748,-235.2455C135.8592,-226.6534 115.0737,-214.0014 98.8101,-204.1018"/>
<polygon fill="#191970" stroke="#191970" points="100.2034,-200.8525 89.8415,-198.6427 96.5637,-206.8319 100.2034,-200.8525"/>
</g>
<!-- Node3 -->
<g id="node4" class="node">
<title>Node3</title>
<polygon fill="#ffffff" stroke="#bfbfbf" points="402.5,-.5 402.5,-19.5 443.5,-19.5 443.5,-.5 402.5,-.5"/>
<text text-anchor="middle" x="423" y="-7.5" font-family="Helvetica,sans-Serif" font-size="10.00" fill="#000000">string</text>
</g>
<!-- Node0&#45;&gt;Node3 -->
<g id="edge3" class="edge">
<title>Node0&#45;&gt;Node3</title>
<path fill="none" stroke="#191970" d="M160.4505,-235.2854C148.7841,-213.4477 124.5713,-159.5368 147,-123 199.7678,-37.0403 332.0453,-16.4706 392.2713,-11.5484"/>
<polygon fill="#191970" stroke="#191970" points="392.5869,-15.0348 402.3074,-10.8202 392.0803,-8.0531 392.5869,-15.0348"/>
</g>
<!-- Node4 -->
<g id="node5" class="node">
<title>Node4</title>
<polygon fill="#ffffff" stroke="#bfbfbf" points="156,-123.5 156,-142.5 200,-142.5 200,-123.5 156,-123.5"/>
<text text-anchor="middle" x="178" y="-130.5" font-family="Helvetica,sans-Serif" font-size="10.00" fill="#000000">vector</text>
</g>
<!-- Node0&#45;&gt;Node4 -->
<g id="edge4" class="edge">
<title>Node0&#45;&gt;Node4</title>
<path fill="none" stroke="#191970" d="M167.0231,-235.4509C168.9803,-217.184 173.2905,-176.9553 175.8895,-152.6976"/>
<polygon fill="#191970" stroke="#191970" points="179.3941,-152.8409 176.9795,-142.5249 172.434,-152.0951 179.3941,-152.8409"/>
</g>
<!-- Node5 -->
<g id="node6" class="node">
<title>Node5</title>
<g id="a_node6"><a xlink:href="Request_8hpp.html" target="_top" xlink:title="Request.hpp">
<polygon fill="#ffffff" stroke="#000000" points="194,-179.5 194,-198.5 266,-198.5 266,-179.5 194,-179.5"/>
<text text-anchor="middle" x="230" y="-186.5" font-family="Helvetica,sans-Serif" font-size="10.00" fill="#000000">Request.hpp</text>
</a>
</g>
</g>
<!-- Node0&#45;&gt;Node5 -->
<g id="edge5" class="edge">
<title>Node0&#45;&gt;Node5</title>
<path fill="none" stroke="#191970" d="M177.1479,-235.2455C186.5087,-227.0549 200.0858,-215.1749 211.1349,-205.5069"/>
<polygon fill="#191970" stroke="#191970" points="213.7588,-207.8618 218.9798,-198.6427 209.1492,-202.5937 213.7588,-207.8618"/>
</g>
<!-- Node6 -->
<g id="node7" class="node">
<title>Node6</title>
<g id="a_node7"><a xlink:href="com_2SharedPointer_8hpp.html" target="_top" xlink:title="com/SharedPointer.hpp">
<polygon fill="#ffffff" stroke="#000000" points="218.5,-123.5 218.5,-142.5 337.5,-142.5 337.5,-123.5 218.5,-123.5"/>
<text text-anchor="middle" x="278" y="-130.5" font-family="Helvetica,sans-Serif" font-size="10.00" fill="#000000">com/SharedPointer.hpp</text>
</a>
</g>
</g>
<!-- Node0&#45;&gt;Node6 -->
<g id="edge9" class="edge">
<title>Node0&#45;&gt;Node6</title>
<path fill="none" stroke="#191970" d="M218.7513,-235.45C239.7452,-228.8404 261.9683,-217.7076 275,-199 284.3118,-185.6324 284.2145,-166.782 282.2823,-152.6474"/>
<polygon fill="#191970" stroke="#191970" points="285.6782,-151.7519 280.4841,-142.5176 278.7859,-152.9754 285.6782,-151.7519"/>
</g>
<!-- Node8 -->
<g id="node9" class="node">
<title>Node8</title>
<g id="a_node9"><a xlink:href="Logger_8hpp.html" target="_top" xlink:title="logging/Logger.hpp">
<polygon fill="#ffffff" stroke="#000000" points="355,-179.5 355,-198.5 453,-198.5 453,-179.5 355,-179.5"/>
<text text-anchor="middle" x="404" y="-186.5" font-family="Helvetica,sans-Serif" font-size="10.00" fill="#000000">logging/Logger.hpp</text>
</a>
</g>
</g>
<!-- Node0&#45;&gt;Node8 -->
<g id="edge10" class="edge">
<title>Node0&#45;&gt;Node8</title>
<path fill="none" stroke="#191970" d="M206.6432,-235.4369C247.2895,-225.8731 309.8913,-211.1432 353.6587,-200.845"/>
<polygon fill="#191970" stroke="#191970" points="354.5919,-204.2211 363.5244,-198.5237 352.9886,-197.4072 354.5919,-204.2211"/>
</g>
<!-- Node5&#45;&gt;Node4 -->
<g id="edge6" class="edge">
<title>Node5&#45;&gt;Node4</title>
<path fill="none" stroke="#191970" d="M220.9423,-179.2455C213.4858,-171.2155 202.7366,-159.6394 193.8583,-150.0781"/>
<polygon fill="#191970" stroke="#191970" points="196.3232,-147.589 186.9539,-142.6427 191.1937,-152.3522 196.3232,-147.589"/>
</g>
<!-- Node5&#45;&gt;Node6 -->
<g id="edge7" class="edge">
<title>Node5&#45;&gt;Node6</title>
<path fill="none" stroke="#191970" d="M238.361,-179.2455C245.175,-171.2958 254.9681,-159.8706 263.1152,-150.3656"/>
<polygon fill="#191970" stroke="#191970" points="265.8843,-152.513 269.7349,-142.6427 260.5695,-147.9575 265.8843,-152.513"/>
</g>
<!-- Node7 -->
<g id="node8" class="node">
<title>Node7</title>
<polygon fill="#ffffff" stroke="#bfbfbf" points="288,-62 288,-81 340,-81 340,-62 288,-62"/>
<text text-anchor="middle" x="314" y="-69" font-family="Helvetica,sans-Serif" font-size="10.00" fill="#000000">memory</text>
</g>
<!-- Node6&#45;&gt;Node7 -->
<g id="edge8" class="edge">
<title>Node6&#45;&gt;Node7</title>
<path fill="none" stroke="#191970" d="M283.625,-123.3906C288.8253,-114.5068 296.6966,-101.0601 303.1233,-90.0811"/>
<polygon fill="#191970" stroke="#191970" points="306.2644,-91.6432 308.2957,-81.2449 300.2233,-88.1069 306.2644,-91.6432"/>
</g>
<!-- Node8&#45;&gt;Node3 -->
<g id="edge12" class="edge">
<title>Node8&#45;&gt;Node3</title>
<path fill="none" stroke="#191970" d="M405.0215,-179.3762C408.0113,-151.2097 416.7892,-68.5126 420.8695,-30.0713"/>
<polygon fill="#191970" stroke="#191970" points="424.3983,-29.985 421.9734,-19.6714 417.4374,-29.2461 424.3983,-29.985"/>
</g>
<!-- Node8&#45;&gt;Node7 -->
<g id="edge11" class="edge">
<title>Node8&#45;&gt;Node7</title>
<path fill="none" stroke="#191970" d="M396.6349,-179.3845C381.5382,-159.6749 346.8847,-114.4328 327.5928,-89.2461"/>
<polygon fill="#191970" stroke="#191970" points="330.3262,-87.0589 321.4668,-81.2484 324.7691,-91.3155 330.3262,-87.0589"/>
</g>
<!-- Node9 -->
<g id="node10" class="node">
<title>Node9</title>
<g id="a_node10"><a xlink:href="LogMacros_8hpp.html" target="_top" xlink:title="LogMacros.hpp">
<polygon fill="#ffffff" stroke="#000000" points="838.5,-123.5 838.5,-142.5 921.5,-142.5 921.5,-123.5 838.5,-123.5"/>
<text text-anchor="middle" x="880" y="-130.5" font-family="Helvetica,sans-Serif" font-size="10.00" fill="#000000">LogMacros.hpp</text>
</a>
</g>
</g>
<!-- Node8&#45;&gt;Node9 -->
<g id="edge13" class="edge">
<title>Node8&#45;&gt;Node9</title>
<path fill="none" stroke="#191970" d="M453.1475,-183.2179C543.6976,-172.565 736.0371,-149.9368 828.3946,-139.0712"/>
<polygon fill="#191970" stroke="#191970" points="828.8267,-142.5446 838.3492,-137.9001 828.0087,-135.5926 828.8267,-142.5446"/>
</g>
<!-- Node9&#45;&gt;Node3 -->
<g id="edge20" class="edge">
<title>Node9&#45;&gt;Node3</title>
<path fill="none" stroke="#191970" d="M838.21,-130.6839C738.2752,-124.8259 491.4976,-108.3541 461,-87 441.797,-73.5543 431.8472,-47.5727 427.0285,-29.5297"/>
<polygon fill="#191970" stroke="#191970" points="430.4198,-28.6617 424.7035,-19.7413 423.6092,-30.2794 430.4198,-28.6617"/>
</g>
<!-- Node10 -->
<g id="node11" class="node">
<title>Node10</title>
<polygon fill="#ffffff" stroke="#bfbfbf" points="470,-56.5 470,-86.5 570,-86.5 570,-56.5 470,-56.5"/>
<text text-anchor="start" x="478" y="-74.5" font-family="Helvetica,sans-Serif" font-size="10.00" fill="#000000">boost/preprocessor</text>
<text text-anchor="middle" x="520" y="-63.5" font-family="Helvetica,sans-Serif" font-size="10.00" fill="#000000">/control/if.hpp</text>
</g>
<!-- Node9&#45;&gt;Node10 -->
<g id="edge14" class="edge">
<title>Node9&#45;&gt;Node10</title>
<path fill="none" stroke="#191970" d="M838.3683,-128.0462C781.9906,-121.0292 678.0756,-107.0065 580.189,-87.1222"/>
<polygon fill="#191970" stroke="#191970" points="580.6273,-83.6391 570.1272,-85.0528 579.217,-90.4956 580.6273,-83.6391"/>
</g>
<!-- Node11 -->
<g id="node12" class="node">
<title>Node11</title>
<polygon fill="#ffffff" stroke="#bfbfbf" points="588,-56.5 588,-86.5 692,-86.5 692,-56.5 588,-56.5"/>
<text text-anchor="start" x="596" y="-74.5" font-family="Helvetica,sans-Serif" font-size="10.00" fill="#000000">boost/preprocessor</text>
<text text-anchor="middle" x="640" y="-63.5" font-family="Helvetica,sans-Serif" font-size="10.00" fill="#000000">/facilities/empty.hpp</text>
</g>
<!-- Node9&#45;&gt;Node11 -->
<g id="edge15" class="edge">
<title>Node9&#45;&gt;Node11</title>
<path fill="none" stroke="#191970" d="M842.7633,-123.4581C805.1848,-113.8286 746.4939,-98.7891 701.9062,-87.3635"/>
<polygon fill="#191970" stroke="#191970" points="702.6028,-83.929 692.047,-84.837 700.8652,-90.7099 702.6028,-83.929"/>
</g>
<!-- Node12 -->
<g id="node13" class="node">
<title>Node12</title>
<polygon fill="#ffffff" stroke="#bfbfbf" points="710,-56.5 710,-86.5 812,-86.5 812,-56.5 710,-56.5"/>
<text text-anchor="start" x="718" y="-74.5" font-family="Helvetica,sans-Serif" font-size="10.00" fill="#000000">boost/preprocessor</text>
<text text-anchor="middle" x="761" y="-63.5" font-family="Helvetica,sans-Serif" font-size="10.00" fill="#000000">/seq/for_each_i.hpp</text>
</g>
<!-- Node9&#45;&gt;Node12 -->
<g id="edge16" class="edge">
<title>Node9&#45;&gt;Node12</title>
<path fill="none" stroke="#191970" d="M861.4063,-123.3906C844.7791,-114.7976 819.8917,-101.9356 799.055,-91.1671"/>
<polygon fill="#191970" stroke="#191970" points="800.6014,-88.0265 790.1107,-86.5446 797.3875,-94.2451 800.6014,-88.0265"/>
</g>
<!-- Node13 -->
<g id="node14" class="node">
<title>Node13</title>
<polygon fill="#ffffff" stroke="#bfbfbf" points="830,-56.5 830,-86.5 930,-86.5 930,-56.5 830,-56.5"/>
<text text-anchor="start" x="838" y="-74.5" font-family="Helvetica,sans-Serif" font-size="10.00" fill="#000000">boost/preprocessor</text>
<text text-anchor="middle" x="880" y="-63.5" font-family="Helvetica,sans-Serif" font-size="10.00" fill="#000000">/stringize.hpp</text>
</g>
<!-- Node9&#45;&gt;Node13 -->
<g id="edge17" class="edge">
<title>Node9&#45;&gt;Node13</title>
<path fill="none" stroke="#191970" d="M880,-123.3906C880,-116.2234 880,-106.0862 880,-96.671"/>
<polygon fill="#191970" stroke="#191970" points="883.5001,-96.5446 880,-86.5446 876.5001,-96.5446 883.5001,-96.5446"/>
</g>
<!-- Node14 -->
<g id="node15" class="node">
<title>Node14</title>
<polygon fill="#ffffff" stroke="#bfbfbf" points="948,-56.5 948,-86.5 1052,-86.5 1052,-56.5 948,-56.5"/>
<text text-anchor="start" x="956" y="-74.5" font-family="Helvetica,sans-Serif" font-size="10.00" fill="#000000">boost/preprocessor</text>
<text text-anchor="middle" x="1000" y="-63.5" font-family="Helvetica,sans-Serif" font-size="10.00" fill="#000000">/variadic/to_seq.hpp</text>
</g>
<!-- Node9&#45;&gt;Node14 -->
<g id="edge18" class="edge">
<title>Node9&#45;&gt;Node14</title>
<path fill="none" stroke="#191970" d="M898.75,-123.3906C915.5169,-114.7976 940.6134,-101.9356 961.6252,-91.1671"/>
<polygon fill="#191970" stroke="#191970" points="963.3417,-94.2203 970.6447,-86.5446 960.149,-87.9908 963.3417,-94.2203"/>
</g>
<!-- Node15 -->
<g id="node16" class="node">
<title>Node15</title>
<polygon fill="#ffffff" stroke="#bfbfbf" points="1070,-62 1070,-81 1194,-81 1194,-62 1070,-62"/>
<text text-anchor="middle" x="1132" y="-69" font-family="Helvetica,sans-Serif" font-size="10.00" fill="#000000">boost/vmd/is_empty.hpp</text>
</g>
<!-- Node9&#45;&gt;Node15 -->
<g id="edge19" class="edge">
<title>Node9&#45;&gt;Node15</title>
<path fill="none" stroke="#191970" d="M919.0985,-123.4581C963.239,-112.6857 1035.122,-95.1428 1082.9806,-83.4631"/>
<polygon fill="#191970" stroke="#191970" points="1083.9247,-86.8355 1092.8098,-81.0643 1082.265,-80.035 1083.9247,-86.8355"/>
</g>
<!-- Node16 -->
<g id="node17" class="node">
<title>Node16</title>
<g id="a_node17"><a xlink:href="Tracer_8hpp.html" target="_top" xlink:title="logging/Tracer.hpp">
<polygon fill="#ffffff" stroke="#000000" points="1456.5,-62 1456.5,-81 1553.5,-81 1553.5,-62 1456.5,-62"/>
<text text-anchor="middle" x="1505" y="-69" font-family="Helvetica,sans-Serif" font-size="10.00" fill="#000000">logging/Tracer.hpp</text>
</a>
</g>
</g>
<!-- Node9&#45;&gt;Node16 -->
<g id="edge21" class="edge">
<title>Node9&#45;&gt;Node16</title>
<path fill="none" stroke="#191970" d="M921.5839,-132.1859C1015.7759,-129.7852 1252.3605,-120.6207 1447,-87 1452.3921,-86.0686 1458.0119,-84.8673 1463.5393,-83.5461"/>
<polygon fill="#191970" stroke="#191970" points="1464.4841,-86.9174 1473.3195,-81.0705 1462.7664,-80.1314 1464.4841,-86.9174"/>
</g>
<!-- Node17 -->
<g id="node18" class="node">
<title>Node17</title>
<polygon fill="#ffffff" stroke="#bfbfbf" points="1212.5,-62 1212.5,-81 1337.5,-81 1337.5,-62 1212.5,-62"/>
<text text-anchor="middle" x="1275" y="-69" font-family="Helvetica,sans-Serif" font-size="10.00" fill="#000000">prettyprint/prettyprint.hpp</text>
</g>
<!-- Node9&#45;&gt;Node17 -->
<g id="edge23" class="edge">
<title>Node9&#45;&gt;Node17</title>
<path fill="none" stroke="#191970" d="M921.7054,-128.0163C983.3902,-120.429 1102.4931,-104.9522 1203,-87 1209.5965,-85.8218 1216.5095,-84.4764 1223.333,-83.0816"/>
<polygon fill="#191970" stroke="#191970" points="1224.1459,-86.4875 1233.2189,-81.0166 1222.7145,-79.6353 1224.1459,-86.4875"/>
</g>
<!-- Node18 -->
<g id="node19" class="node">
<title>Node18</title>
<g id="a_node19"><a xlink:href="String_8hpp.html" target="_top" xlink:title="utils/String.hpp">
<polygon fill="#ffffff" stroke="#000000" points="1356,-62 1356,-81 1438,-81 1438,-62 1356,-62"/>
<text text-anchor="middle" x="1397" y="-69" font-family="Helvetica,sans-Serif" font-size="10.00" fill="#000000">utils/String.hpp</text>
</a>
</g>
</g>
<!-- Node9&#45;&gt;Node18 -->
<g id="edge24" class="edge">
<title>Node9&#45;&gt;Node18</title>
<path fill="none" stroke="#191970" d="M921.5431,-131.6368C1003.4662,-128.3483 1191.3277,-117.8262 1346,-87 1350.4073,-86.1216 1354.9778,-85.0187 1359.4909,-83.8081"/>
<polygon fill="#191970" stroke="#191970" points="1360.5426,-87.1477 1369.1935,-81.0311 1358.6165,-80.4179 1360.5426,-87.1477"/>
</g>
<!-- Node16&#45;&gt;Node8 -->
<g id="edge22" class="edge">
<title>Node16&#45;&gt;Node8</title>
<path fill="none" stroke="#191970" d="M1472.6842,-81.0746C1464.3718,-83.2781 1455.4016,-85.4319 1447,-87 1076.6367,-156.1249 622.9923,-180.1601 463.1347,-186.822"/>
<polygon fill="#191970" stroke="#191970" points="462.8823,-183.3293 453.0341,-187.2359 463.169,-190.3234 462.8823,-183.3293"/>
</g>
<!-- Node18&#45;&gt;Node3 -->
<g id="edge26" class="edge">
<title>Node18&#45;&gt;Node3</title>
<path fill="none" stroke="#191970" d="M1370.0371,-61.9597C1362.3624,-59.6139 1353.9316,-57.3813 1346,-56 1168.8281,-25.145 594.1533,-13.0544 454.0254,-10.5253"/>
<polygon fill="#191970" stroke="#191970" points="453.6741,-7.0186 443.6135,-10.3407 453.5499,-14.0175 453.6741,-7.0186"/>
</g>
<!-- Node19 -->
<g id="node20" class="node">
<title>Node19</title>
<polygon fill="#ffffff" stroke="#bfbfbf" points="1371,-.5 1371,-19.5 1423,-19.5 1423,-.5 1371,-.5"/>
<text text-anchor="middle" x="1397" y="-7.5" font-family="Helvetica,sans-Serif" font-size="10.00" fill="#000000">sstream</text>
</g>
<!-- Node18&#45;&gt;Node19 -->
<g id="edge25" class="edge">
<title>Node18&#45;&gt;Node19</title>
<path fill="none" stroke="#191970" d="M1397,-61.8906C1397,-53.3657 1397,-40.6392 1397,-29.9235"/>
<polygon fill="#191970" stroke="#191970" points="1400.5001,-29.7448 1397,-19.7449 1393.5001,-29.7449 1400.5001,-29.7448"/>
</g>
</g>
</svg>
        <g id="navigator" transform="translate(0 0)" fill="#404254">
                <rect fill="#f2f5e9" fill-opacity="0.5" stroke="#606060" stroke-width=".5" x="0" y="0" width="60" height="60"/>
                <use id="zoomplus" xlink:href="#zoomPlus" x="17" y="9" onmousedown="handleZoom(evt,'in')"/>
                <use id="zoomminus" xlink:href="#zoomMin" x="42" y="9" onmousedown="handleZoom(evt,'out')"/>
                <use id="reset" xlink:href="#resetDef" x="30" y="36" onmousedown="handleReset()"/>
                <g id="arrowUp" xlink:href="#dirArrow" transform="translate(30 24)" onmousedown="handlePan(0,-1)">
                  <use xlink:href="#rim" fill="#404040">
                        <set attributeName="fill" to="#808080" begin="arrowUp.mouseover" end="arrowUp.mouseout"/>
                  </use>
                  <path fill="none" stroke="white" stroke-width="1.5" d="M0,-3.0v7 M-2.5,-0.5L0,-3.0L2.5,-0.5"/>
                </g>
                <g id="arrowRight" xlink:href="#dirArrow" transform="rotate(90) translate(36 -43)" onmousedown="handlePan(1,0)">
                  <use xlink:href="#rim" fill="#404040">
                        <set attributeName="fill" to="#808080" begin="arrowRight.mouseover" end="arrowRight.mouseout"/>
                  </use>
                  <path fill="none" stroke="white" stroke-width="1.5" d="M0,-3.0v7 M-2.5,-0.5L0,-3.0L2.5,-0.5"/>
                </g>
                <g id="arrowDown" xlink:href="#dirArrow" transform="rotate(180) translate(-30 -48)" onmousedown="handlePan(0,1)">
                  <use xlink:href="#rim" fill="#404040">
                        <set attributeName="fill" to="#808080" begin="arrowDown.mouseover" end="arrowDown.mouseout"/>
                  </use>
                  <path fill="none" stroke="white" stroke-width="1.5" d="M0,-3.0v7 M-2.5,-0.5L0,-3.0L2.5,-0.5"/>
                </g>
                <g id="arrowLeft" xlink:href="#dirArrow" transform="rotate(270) translate(-36 17)" onmousedown="handlePan(-1,0)">
                  <use xlink:href="#rim" fill="#404040">
                        <set attributeName="fill" to="#808080" begin="arrowLeft.mouseover" end="arrowLeft.mouseout"/>
                  </use>
                  <path fill="none" stroke="white" stroke-width="1.5" d="M0,-3.0v7 M-2.5,-0.5L0,-3.0L2.5,-0.5"/>
                </g>
        </g>
        <svg viewBox="0 0 15 15" width="100%" height="30px" preserveAspectRatio="xMaxYMin meet">
         <g id="arrow_out" transform="scale(0.3 0.3)">
          <a xlink:href="Communication_8hpp__incl_org.svg" target="_base">
           <rect id="button" ry="5" rx="5" y="6" x="6" height="38" width="38"
                fill="#f2f5e9" fill-opacity="0.5" stroke="#606060" stroke-width="1.0"/>
           <path id="arrow"
             d="M 11.500037,31.436501 C 11.940474,20.09759 22.043105,11.32322 32.158766,21.979434 L 37.068811,17.246167 C 37.068811,17.246167 37.088388,32 37.088388,32 L 22.160133,31.978069 C 22.160133,31.978069 26.997745,27.140456 26.997745,27.140456 C 18.528582,18.264221 13.291696,25.230495 11.500037,31.436501 z"
             style="fill:#404040;"/>
          </a>
         </g>
        </svg>
</svg>
