<?xml version="1.0" encoding="UTF-8" standalone="no"?>
<!DOCTYPE svg PUBLIC "-//W3C//DTD SVG 1.1//EN"
 "http://www.w3.org/Graphics/SVG/1.1/DTD/svg11.dtd">
<!-- Generated by graphviz version 2.40.1 (20161225.0304)
 -->
<!-- Title: src/precice/config/Configuration.hpp Pages: 1 -->
<svg width="763pt" height="106pt"
 viewBox="0.00 0.00 762.50 106.00" xmlns="http://www.w3.org/2000/svg" xmlns:xlink="http://www.w3.org/1999/xlink">
<g id="graph0" class="graph" transform="scale(1 1) rotate(0) translate(4 102)">
<title>src/precice/config/Configuration.hpp</title>
<polygon fill="#ffffff" stroke="transparent" points="-4,4 -4,-102 758.5,-102 758.5,4 -4,4"/>
<!-- Node80 -->
<g id="node1" class="node">
<title>Node80</title>
<polygon fill="#bfbfbf" stroke="#000000" points="290,-67.5 290,-97.5 396,-97.5 396,-67.5 290,-67.5"/>
<text text-anchor="start" x="298" y="-85.5" font-family="Helvetica,sans-Serif" font-size="10.00" fill="#000000">src/precice/config</text>
<text text-anchor="middle" x="343" y="-74.5" font-family="Helvetica,sans-Serif" font-size="10.00" fill="#000000">/Configuration.hpp</text>
</g>
<!-- Node81 -->
<g id="node2" class="node">
<title>Node81</title>
<g id="a_node2"><a xlink:href="drivers_2main_8cpp.html" target="_top" xlink:title="src/drivers/main.cpp">
<polygon fill="#ffffff" stroke="#000000" points="0,-6 0,-25 116,-25 116,-6 0,-6"/>
<text text-anchor="middle" x="58" y="-13" font-family="Helvetica,sans-Serif" font-size="10.00" fill="#000000">src/drivers/main.cpp</text>
</a>
</g>
</g>
<!-- Node80&#45;&gt;Node81 -->
<g id="edge1" class="edge">
<title>Node80&#45;&gt;Node81</title>
<path fill="none" stroke="#191970" d="M279.6886,-67.6163C224.4011,-54.6188 145.8111,-36.1433 98.5734,-25.0383"/>
<polygon fill="#191970" stroke="#191970" points="279.1924,-71.095 289.728,-69.9764 280.7944,-64.2807 279.1924,-71.095"/>
</g>
<!-- Node82 -->
<g id="node3" class="node">
<title>Node82</title>
<g id="a_node3"><a xlink:href="Configuration_8cpp.html" target="_top" xlink:title="src/precice/config\l/Configuration.cpp">
<polygon fill="#ffffff" stroke="#000000" points="134.5,-.5 134.5,-30.5 239.5,-30.5 239.5,-.5 134.5,-.5"/>
<text text-anchor="start" x="142.5" y="-18.5" font-family="Helvetica,sans-Serif" font-size="10.00" fill="#000000">src/precice/config</text>
<text text-anchor="middle" x="187" y="-7.5" font-family="Helvetica,sans-Serif" font-size="10.00" fill="#000000">/Configuration.cpp</text>
</a>
</g>
</g>
<!-- Node80&#45;&gt;Node82 -->
<g id="edge2" class="edge">
<title>Node80&#45;&gt;Node82</title>
<path fill="none" stroke="#191970" d="M298.6484,-63.4516C274.4047,-53.0392 244.7955,-40.3224 222.1621,-30.6017"/>
<polygon fill="#191970" stroke="#191970" points="297.4209,-66.7335 307.9906,-67.4639 300.1834,-60.3016 297.4209,-66.7335"/>
</g>
<!-- Node83 -->
<g id="node4" class="node">
<title>Node83</title>
<g id="a_node4"><a xlink:href="SolverInterfaceImpl_8cpp.html" target="_top" xlink:title="src/precice/impl/SolverInterface\lImpl.cpp">
<polygon fill="#ffffff" stroke="#000000" points="257.5,-.5 257.5,-30.5 428.5,-30.5 428.5,-.5 257.5,-.5"/>
<text text-anchor="start" x="265.5" y="-18.5" font-family="Helvetica,sans-Serif" font-size="10.00" fill="#000000">src/precice/impl/SolverInterface</text>
<text text-anchor="middle" x="343" y="-7.5" font-family="Helvetica,sans-Serif" font-size="10.00" fill="#000000">Impl.cpp</text>
</a>
</g>
</g>
<!-- Node80&#45;&gt;Node83 -->
<g id="edge3" class="edge">
<title>Node80&#45;&gt;Node83</title>
<path fill="none" stroke="#191970" d="M343,-57.0249C343,-48.128 343,-38.4287 343,-30.6432"/>
<polygon fill="#191970" stroke="#191970" points="339.5001,-57.2966 343,-67.2967 346.5001,-57.2967 339.5001,-57.2966"/>
</g>
<!-- Node84 -->
<g id="node5" class="node">
<title>Node84</title>
<g id="a_node5"><a xlink:href="ParallelTests_8cpp.html" target="_top" xlink:title="src/precice/tests/Parallel\lTests.cpp">
<polygon fill="#ffffff" stroke="#000000" points="446.5,-.5 446.5,-30.5 581.5,-30.5 581.5,-.5 446.5,-.5"/>
<text text-anchor="start" x="454.5" y="-18.5" font-family="Helvetica,sans-Serif" font-size="10.00" fill="#000000">src/precice/tests/Parallel</text>
<text text-anchor="middle" x="514" y="-7.5" font-family="Helvetica,sans-Serif" font-size="10.00" fill="#000000">Tests.cpp</text>
</a>
</g>
</g>
<!-- Node80&#45;&gt;Node84 -->
<g id="edge4" class="edge">
<title>Node80&#45;&gt;Node84</title>
<path fill="none" stroke="#191970" d="M390.912,-63.7275C417.616,-53.2645 450.4277,-40.4084 475.4569,-30.6017"/>
<polygon fill="#191970" stroke="#191970" points="389.4097,-60.5569 381.3757,-67.4639 391.9634,-67.0745 389.4097,-60.5569"/>
</g>
<!-- Node85 -->
<g id="node6" class="node">
<title>Node85</title>
<g id="a_node6"><a xlink:href="PrinterTest_8cpp.html" target="_top" xlink:title="src/xml/tests/PrinterTest.cpp">
<polygon fill="#ffffff" stroke="#000000" points="599.5,-6 599.5,-25 754.5,-25 754.5,-6 599.5,-6"/>
<text text-anchor="middle" x="677" y="-13" font-family="Helvetica,sans-Serif" font-size="10.00" fill="#000000">src/xml/tests/PrinterTest.cpp</text>
</a>
</g>
</g>
<!-- Node80&#45;&gt;Node85 -->
<g id="edge5" class="edge">
<title>Node80&#45;&gt;Node85</title>
<path fill="none" stroke="#191970" d="M406.4193,-69.7782C471.4405,-56.735 571.0811,-36.7472 629.5722,-25.014"/>
<polygon fill="#191970" stroke="#191970" points="405.4089,-66.411 396.2926,-71.8096 406.7857,-73.2743 405.4089,-66.411"/>
</g>
</g>
</svg>
