<?xml version="1.0" encoding="UTF-8" standalone="no"?>
<!DOCTYPE svg PUBLIC "-//W3C//DTD SVG 1.1//EN"
 "http://www.w3.org/Graphics/SVG/1.1/DTD/svg11.dtd">
<!-- Generated by graphviz version 2.40.1 (20161225.0304)
 -->
<!-- Title: src/mesh/config/DataConfiguration.hpp Pages: 1 -->
<svg width="1927pt" height="498pt"
 viewBox="0.00 0.00 1927.13 498.00" xmlns="http://www.w3.org/2000/svg" xmlns:xlink="http://www.w3.org/1999/xlink">
<g id="graph0" class="graph" transform="scale(1 1) rotate(0) translate(4 494)">
<title>src/mesh/config/DataConfiguration.hpp</title>
<polygon fill="#ffffff" stroke="transparent" points="-4,4 -4,-494 1923.1349,-494 1923.1349,4 -4,4"/>
<!-- Node0 -->
<g id="node1" class="node">
<title>Node0</title>
<polygon fill="#bfbfbf" stroke="#000000" points="427,-470.5 427,-489.5 633,-489.5 633,-470.5 427,-470.5"/>
<text text-anchor="middle" x="530" y="-477.5" font-family="Helvetica,sans-Serif" font-size="10.00" fill="#000000">src/mesh/config/DataConfiguration.hpp</text>
</g>
<!-- Node1 -->
<g id="node2" class="node">
<title>Node1</title>
<polygon fill="#ffffff" stroke="#bfbfbf" points="950,-.5 950,-19.5 994,-19.5 994,-.5 950,-.5"/>
<text text-anchor="middle" x="972" y="-7.5" font-family="Helvetica,sans-Serif" font-size="10.00" fill="#000000">string</text>
</g>
<!-- Node0&#45;&gt;Node1 -->
<g id="edge1" class="edge">
<title>Node0&#45;&gt;Node1</title>
<path fill="none" stroke="#191970" d="M443.0748,-470.4828C292.7152,-452.8337 0,-412.7306 0,-368 0,-368 0,-368 0,-133 0,-73.3235 53.5827,-75.4517 110,-56 189.4776,-28.5975 791.8685,-13.8919 939.4432,-10.6776"/>
<polygon fill="#191970" stroke="#191970" points="939.7303,-14.1724 949.6526,-10.4579 939.5796,-7.174 939.7303,-14.1724"/>
</g>
<!-- Node2 -->
<g id="node3" class="node">
<title>Node2</title>
<polygon fill="#ffffff" stroke="#bfbfbf" points="1743.5,-179.5 1743.5,-198.5 1790.5,-198.5 1790.5,-179.5 1743.5,-179.5"/>
<text text-anchor="middle" x="1767" y="-186.5" font-family="Helvetica,sans-Serif" font-size="10.00" fill="#000000">vector</text>
</g>
<!-- Node0&#45;&gt;Node2 -->
<g id="edge2" class="edge">
<title>Node0&#45;&gt;Node2</title>
<path fill="none" stroke="#191970" d="M633.0289,-476.5845C942.5564,-465.6489 1843,-428.6265 1843,-368 1843,-368 1843,-368 1843,-312 1843,-268.4388 1808.0757,-227.4145 1785.5765,-205.5053"/>
<polygon fill="#191970" stroke="#191970" points="1787.8962,-202.8822 1778.2141,-198.5801 1783.1001,-207.981 1787.8962,-202.8822"/>
</g>
<!-- Node3 -->
<g id="node4" class="node">
<title>Node3</title>
<g id="a_node4"><a xlink:href="Logger_8hpp.html" target="_top" xlink:title="logging/Logger.hpp">
<polygon fill="#ffffff" stroke="#000000" points="552.5,-179.5 552.5,-198.5 661.5,-198.5 661.5,-179.5 552.5,-179.5"/>
<text text-anchor="middle" x="607" y="-186.5" font-family="Helvetica,sans-Serif" font-size="10.00" fill="#000000">logging/Logger.hpp</text>
</a>
</g>
</g>
<!-- Node0&#45;&gt;Node3 -->
<g id="edge3" class="edge">
<title>Node0&#45;&gt;Node3</title>
<path fill="none" stroke="#191970" d="M530,-470.4116C530,-451.0538 530,-405.9167 530,-368 530,-368 530,-368 530,-312 530,-268.2797 565.3839,-227.312 588.1791,-205.4558"/>
<polygon fill="#191970" stroke="#191970" points="590.6788,-207.9111 595.6384,-198.5488 585.9229,-202.7749 590.6788,-207.9111"/>
</g>
<!-- Node16 -->
<g id="node17" class="node">
<title>Node16</title>
<g id="a_node17"><a xlink:href="Data_8hpp.html" target="_top" xlink:title="mesh/Data.hpp">
<polygon fill="#ffffff" stroke="#000000" points="57.5,-241 57.5,-260 148.5,-260 148.5,-241 57.5,-241"/>
<text text-anchor="middle" x="103" y="-248" font-family="Helvetica,sans-Serif" font-size="10.00" fill="#000000">mesh/Data.hpp</text>
</a>
</g>
</g>
<!-- Node0&#45;&gt;Node16 -->
<g id="edge20" class="edge">
<title>Node0&#45;&gt;Node16</title>
<path fill="none" stroke="#191970" d="M474.6857,-470.4563C384.2968,-453.9242 210.2509,-417.8814 163,-378 129.3316,-349.5827 113.34,-298.0483 106.8168,-269.9859"/>
<polygon fill="#191970" stroke="#191970" points="110.2277,-269.1991 104.7004,-260.1603 103.3847,-270.6731 110.2277,-269.1991"/>
</g>
<!-- Node19 -->
<g id="node20" class="node">
<title>Node19</title>
<g id="a_node20"><a xlink:href="XMLTag_8hpp.html" target="_top" xlink:title="xml/XMLTag.hpp">
<polygon fill="#ffffff" stroke="#000000" points="658.5,-414.5 658.5,-433.5 753.5,-433.5 753.5,-414.5 658.5,-414.5"/>
<text text-anchor="middle" x="706" y="-421.5" font-family="Helvetica,sans-Serif" font-size="10.00" fill="#000000">xml/XMLTag.hpp</text>
</a>
</g>
</g>
<!-- Node0&#45;&gt;Node19 -->
<g id="edge25" class="edge">
<title>Node0&#45;&gt;Node19</title>
<path fill="none" stroke="#191970" d="M560.2555,-470.3733C589.6483,-461.021 634.4292,-446.7725 666.5934,-436.5385"/>
<polygon fill="#191970" stroke="#191970" points="667.6713,-439.8685 676.1393,-433.5011 665.5488,-433.198 667.6713,-439.8685"/>
</g>
<!-- Node3&#45;&gt;Node1 -->
<g id="edge5" class="edge">
<title>Node3&#45;&gt;Node1</title>
<path fill="none" stroke="#191970" d="M555.2943,-179.4874C452.0473,-159.9767 228.3714,-114.9212 207,-87 198.6258,-76.0593 197.5545,-66.0305 207,-56 232.5029,-28.9175 797.4345,-14.0442 939.7046,-10.7197"/>
<polygon fill="#191970" stroke="#191970" points="940.0297,-14.2133 949.9463,-10.4834 939.8681,-7.2151 940.0297,-14.2133"/>
</g>
<!-- Node4 -->
<g id="node5" class="node">
<title>Node4</title>
<polygon fill="#ffffff" stroke="#bfbfbf" points="747,-123.5 747,-142.5 805,-142.5 805,-123.5 747,-123.5"/>
<text text-anchor="middle" x="776" y="-130.5" font-family="Helvetica,sans-Serif" font-size="10.00" fill="#000000">memory</text>
</g>
<!-- Node3&#45;&gt;Node4 -->
<g id="edge4" class="edge">
<title>Node3&#45;&gt;Node4</title>
<path fill="none" stroke="#191970" d="M636.0521,-179.3733C664.1543,-170.0613 706.9054,-155.8953 737.7607,-145.671"/>
<polygon fill="#191970" stroke="#191970" points="738.9355,-148.969 747.327,-142.5011 736.7336,-142.3243 738.9355,-148.969"/>
</g>
<!-- Node5 -->
<g id="node6" class="node">
<title>Node5</title>
<g id="a_node6"><a xlink:href="LogMacros_8hpp.html" target="_top" xlink:title="LogMacros.hpp">
<polygon fill="#ffffff" stroke="#000000" points="601.5,-123.5 601.5,-142.5 690.5,-142.5 690.5,-123.5 601.5,-123.5"/>
<text text-anchor="middle" x="646" y="-130.5" font-family="Helvetica,sans-Serif" font-size="10.00" fill="#000000">LogMacros.hpp</text>
</a>
</g>
</g>
<!-- Node3&#45;&gt;Node5 -->
<g id="edge6" class="edge">
<title>Node3&#45;&gt;Node5</title>
<path fill="none" stroke="#191970" d="M613.7933,-179.2455C619.2178,-171.4564 626.9661,-160.3308 633.5033,-150.9439"/>
<polygon fill="#191970" stroke="#191970" points="636.4417,-152.849 639.2846,-142.6427 630.6975,-148.8485 636.4417,-152.849"/>
</g>
<!-- Node5&#45;&gt;Node1 -->
<g id="edge13" class="edge">
<title>Node5&#45;&gt;Node1</title>
<path fill="none" stroke="#191970" d="M601.4801,-128.7474C527.0169,-121.1816 383.8542,-104.5244 369,-87 360.0913,-76.4899 359.6355,-66.1061 369,-56 388.5689,-34.8815 817.4186,-16.1773 939.713,-11.2582"/>
<polygon fill="#191970" stroke="#191970" points="940.076,-14.7466 949.9286,-10.8508 939.797,-7.7521 940.076,-14.7466"/>
</g>
<!-- Node6 -->
<g id="node7" class="node">
<title>Node6</title>
<polygon fill="#ffffff" stroke="#bfbfbf" points="1038,-56.5 1038,-86.5 1148,-86.5 1148,-56.5 1038,-56.5"/>
<text text-anchor="start" x="1046" y="-74.5" font-family="Helvetica,sans-Serif" font-size="10.00" fill="#000000">boost/preprocessor</text>
<text text-anchor="middle" x="1093" y="-63.5" font-family="Helvetica,sans-Serif" font-size="10.00" fill="#000000">/control/if.hpp</text>
</g>
<!-- Node5&#45;&gt;Node6 -->
<g id="edge7" class="edge">
<title>Node5&#45;&gt;Node6</title>
<path fill="none" stroke="#191970" d="M690.9067,-126.8216C770.289,-115.8998 935.687,-93.1437 1027.6937,-80.4851"/>
<polygon fill="#191970" stroke="#191970" points="1028.2936,-83.9356 1037.7232,-79.1052 1027.3394,-77.001 1028.2936,-83.9356"/>
</g>
<!-- Node7 -->
<g id="node8" class="node">
<title>Node7</title>
<polygon fill="#ffffff" stroke="#bfbfbf" points="378,-56.5 378,-86.5 494,-86.5 494,-56.5 378,-56.5"/>
<text text-anchor="start" x="386" y="-74.5" font-family="Helvetica,sans-Serif" font-size="10.00" fill="#000000">boost/preprocessor</text>
<text text-anchor="middle" x="436" y="-63.5" font-family="Helvetica,sans-Serif" font-size="10.00" fill="#000000">/facilities/empty.hpp</text>
</g>
<!-- Node5&#45;&gt;Node7 -->
<g id="edge8" class="edge">
<title>Node5&#45;&gt;Node7</title>
<path fill="none" stroke="#191970" d="M613.1875,-123.3906C582.2666,-114.3352 535.1576,-100.539 497.2853,-89.4479"/>
<polygon fill="#191970" stroke="#191970" points="497.9524,-85.9963 487.3718,-86.5446 495.985,-92.7141 497.9524,-85.9963"/>
</g>
<!-- Node8 -->
<g id="node9" class="node">
<title>Node8</title>
<polygon fill="#ffffff" stroke="#bfbfbf" points="1274.5,-56.5 1274.5,-86.5 1385.5,-86.5 1385.5,-56.5 1274.5,-56.5"/>
<text text-anchor="start" x="1282.5" y="-74.5" font-family="Helvetica,sans-Serif" font-size="10.00" fill="#000000">boost/preprocessor</text>
<text text-anchor="middle" x="1330" y="-63.5" font-family="Helvetica,sans-Serif" font-size="10.00" fill="#000000">/seq/for_each_i.hpp</text>
</g>
<!-- Node5&#45;&gt;Node8 -->
<g id="edge9" class="edge">
<title>Node5&#45;&gt;Node8</title>
<path fill="none" stroke="#191970" d="M690.8864,-127.7569C705.8579,-126.1052 722.6364,-124.3592 738,-123 968.5433,-102.6044 1031.1448,-121.7903 1264.2969,-86.9231"/>
<polygon fill="#191970" stroke="#191970" points="1265.0863,-90.3436 1274.4502,-85.3869 1264.0391,-83.4224 1265.0863,-90.3436"/>
</g>
<!-- Node9 -->
<g id="node10" class="node">
<title>Node9</title>
<polygon fill="#ffffff" stroke="#bfbfbf" points="1550,-56.5 1550,-86.5 1660,-86.5 1660,-56.5 1550,-56.5"/>
<text text-anchor="start" x="1558" y="-74.5" font-family="Helvetica,sans-Serif" font-size="10.00" fill="#000000">boost/preprocessor</text>
<text text-anchor="middle" x="1605" y="-63.5" font-family="Helvetica,sans-Serif" font-size="10.00" fill="#000000">/stringize.hpp</text>
</g>
<!-- Node5&#45;&gt;Node9 -->
<g id="edge10" class="edge">
<title>Node5&#45;&gt;Node9</title>
<path fill="none" stroke="#191970" d="M690.876,-127.6356C705.8469,-125.9759 722.6276,-124.2557 738,-123 1029.4672,-99.1912 1103.1646,-105.7639 1395,-87 1443.4301,-83.8861 1498.1017,-79.8337 1539.5188,-76.6535"/>
<polygon fill="#191970" stroke="#191970" points="1540.0497,-80.1231 1549.7512,-75.8649 1539.5117,-73.1438 1540.0497,-80.1231"/>
</g>
<!-- Node10 -->
<g id="node11" class="node">
<title>Node10</title>
<polygon fill="#ffffff" stroke="#bfbfbf" points="828.5,-56.5 828.5,-86.5 943.5,-86.5 943.5,-56.5 828.5,-56.5"/>
<text text-anchor="start" x="836.5" y="-74.5" font-family="Helvetica,sans-Serif" font-size="10.00" fill="#000000">boost/preprocessor</text>
<text text-anchor="middle" x="886" y="-63.5" font-family="Helvetica,sans-Serif" font-size="10.00" fill="#000000">/variadic/to_seq.hpp</text>
</g>
<!-- Node5&#45;&gt;Node10 -->
<g id="edge11" class="edge">
<title>Node5&#45;&gt;Node10</title>
<path fill="none" stroke="#191970" d="M683.2367,-123.4581C719.2239,-114.2364 774.5734,-100.0531 818.3563,-88.8337"/>
<polygon fill="#191970" stroke="#191970" points="819.2602,-92.2152 828.0784,-86.3424 817.5226,-85.4343 819.2602,-92.2152"/>
</g>
<!-- Node11 -->
<g id="node12" class="node">
<title>Node11</title>
<polygon fill="#ffffff" stroke="#bfbfbf" points="512,-62 512,-81 648,-81 648,-62 512,-62"/>
<text text-anchor="middle" x="580" y="-69" font-family="Helvetica,sans-Serif" font-size="10.00" fill="#000000">boost/vmd/is_empty.hpp</text>
</g>
<!-- Node5&#45;&gt;Node11 -->
<g id="edge12" class="edge">
<title>Node5&#45;&gt;Node11</title>
<path fill="none" stroke="#191970" d="M635.6875,-123.3906C625.5758,-113.9683 609.9558,-99.4134 597.8293,-88.1137"/>
<polygon fill="#191970" stroke="#191970" points="600.1601,-85.5015 590.4579,-81.2449 595.388,-90.6228 600.1601,-85.5015"/>
</g>
<!-- Node12 -->
<g id="node13" class="node">
<title>Node12</title>
<g id="a_node13"><a xlink:href="Tracer_8hpp.html" target="_top" xlink:title="logging/Tracer.hpp">
<polygon fill="#ffffff" stroke="#000000" points="216.5,-62 216.5,-81 321.5,-81 321.5,-62 216.5,-62"/>
<text text-anchor="middle" x="269" y="-69" font-family="Helvetica,sans-Serif" font-size="10.00" fill="#000000">logging/Tracer.hpp</text>
</a>
</g>
</g>
<!-- Node5&#45;&gt;Node12 -->
<g id="edge14" class="edge">
<title>Node5&#45;&gt;Node12</title>
<path fill="none" stroke="#191970" d="M601.4069,-127.523C541.01,-119.8455 429.9505,-104.8083 336,-87 330.1385,-85.889 324.0126,-84.6211 317.9488,-83.3"/>
<polygon fill="#191970" stroke="#191970" points="318.3828,-79.8107 307.8601,-81.0446 316.8556,-86.6421 318.3828,-79.8107"/>
</g>
<!-- Node13 -->
<g id="node14" class="node">
<title>Node13</title>
<polygon fill="#ffffff" stroke="#bfbfbf" points="666,-62 666,-81 810,-81 810,-62 666,-62"/>
<text text-anchor="middle" x="738" y="-69" font-family="Helvetica,sans-Serif" font-size="10.00" fill="#000000">prettyprint/prettyprint.hpp</text>
</g>
<!-- Node5&#45;&gt;Node13 -->
<g id="edge16" class="edge">
<title>Node5&#45;&gt;Node13</title>
<path fill="none" stroke="#191970" d="M660.375,-123.3906C675.0931,-113.5519 698.1832,-98.1167 715.3589,-86.6351"/>
<polygon fill="#191970" stroke="#191970" points="717.3575,-89.5091 723.7259,-81.0419 713.4673,-83.6896 717.3575,-89.5091"/>
</g>
<!-- Node14 -->
<g id="node15" class="node">
<title>Node14</title>
<g id="a_node15"><a xlink:href="String_8hpp.html" target="_top" xlink:title="utils/String.hpp">
<polygon fill="#ffffff" stroke="#000000" points="1166,-62 1166,-81 1256,-81 1256,-62 1166,-62"/>
<text text-anchor="middle" x="1211" y="-69" font-family="Helvetica,sans-Serif" font-size="10.00" fill="#000000">utils/String.hpp</text>
</a>
</g>
</g>
<!-- Node5&#45;&gt;Node14 -->
<g id="edge17" class="edge">
<title>Node5&#45;&gt;Node14</title>
<path fill="none" stroke="#191970" d="M690.901,-127.9144C705.8736,-126.2732 722.6488,-124.4936 738,-123 924.0299,-104.9003 973.1996,-120.9429 1157,-87 1161.7837,-86.1166 1166.7531,-84.9891 1171.6542,-83.7461"/>
<polygon fill="#191970" stroke="#191970" points="1172.7976,-87.0627 1181.5373,-81.0738 1170.9704,-80.3054 1172.7976,-87.0627"/>
</g>
<!-- Node12&#45;&gt;Node3 -->
<g id="edge15" class="edge">
<title>Node12&#45;&gt;Node3</title>
<path fill="none" stroke="#191970" d="M296.6291,-81.1048C357.2329,-102.1727 501.8617,-152.4504 570.1275,-176.1819"/>
<polygon fill="#191970" stroke="#191970" points="569.0315,-179.5063 579.6263,-179.484 571.3301,-172.8944 569.0315,-179.5063"/>
</g>
<!-- Node14&#45;&gt;Node1 -->
<g id="edge19" class="edge">
<title>Node14&#45;&gt;Node1</title>
<path fill="none" stroke="#191970" d="M1178.4994,-61.9672C1171.4255,-59.9495 1163.972,-57.8668 1157,-56 1103.7514,-41.7426 1041.4804,-26.5654 1004.4677,-17.7006"/>
<polygon fill="#191970" stroke="#191970" points="1004.8178,-14.1858 994.2782,-15.2668 1003.1915,-20.9943 1004.8178,-14.1858"/>
</g>
<!-- Node15 -->
<g id="node16" class="node">
<title>Node15</title>
<polygon fill="#ffffff" stroke="#bfbfbf" points="1736,-.5 1736,-19.5 1792,-19.5 1792,-.5 1736,-.5"/>
<text text-anchor="middle" x="1764" y="-7.5" font-family="Helvetica,sans-Serif" font-size="10.00" fill="#000000">sstream</text>
</g>
<!-- Node14&#45;&gt;Node15 -->
<g id="edge18" class="edge">
<title>Node14&#45;&gt;Node15</title>
<path fill="none" stroke="#191970" d="M1241.0251,-61.9695C1249.0683,-59.711 1257.8065,-57.5198 1266,-56 1435.6729,-24.5282 1642.0555,-14.1974 1725.8784,-11.1508"/>
<polygon fill="#191970" stroke="#191970" points="1726.0771,-14.6461 1735.9487,-10.7988 1725.8325,-7.6504 1726.0771,-14.6461"/>
</g>
<!-- Node16&#45;&gt;Node1 -->
<g id="edge23" class="edge">
<title>Node16&#45;&gt;Node1</title>
<path fill="none" stroke="#191970" d="M101.0414,-240.9051C95.1294,-208.8974 81.0709,-105.0434 136,-56 166.4783,-28.7875 788.4706,-13.8887 939.278,-10.6679"/>
<polygon fill="#191970" stroke="#191970" points="939.7741,-14.1583 949.698,-10.448 939.6263,-7.1599 939.7741,-14.1583"/>
</g>
<!-- Node16&#45;&gt;Node3 -->
<g id="edge24" class="edge">
<title>Node16&#45;&gt;Node3</title>
<path fill="none" stroke="#191970" d="M148.7537,-245.3402C227.6472,-236.3773 394.3565,-217.1484 535,-199 537.3761,-198.6934 539.7958,-198.3773 542.2395,-198.0547"/>
<polygon fill="#191970" stroke="#191970" points="542.9226,-201.4946 552.3707,-196.7005 541.9951,-194.5563 542.9226,-201.4946"/>
</g>
<!-- Node17 -->
<g id="node18" class="node">
<title>Node17</title>
<polygon fill="#ffffff" stroke="#bfbfbf" points="457.5,-179.5 457.5,-198.5 526.5,-198.5 526.5,-179.5 457.5,-179.5"/>
<text text-anchor="middle" x="492" y="-186.5" font-family="Helvetica,sans-Serif" font-size="10.00" fill="#000000">Eigen/Core</text>
</g>
<!-- Node16&#45;&gt;Node17 -->
<g id="edge21" class="edge">
<title>Node16&#45;&gt;Node17</title>
<path fill="none" stroke="#191970" d="M148.7671,-243.2643C223.959,-231.3767 372.712,-207.8592 447.2407,-196.0763"/>
<polygon fill="#191970" stroke="#191970" points="447.9183,-199.5128 457.249,-194.4941 446.8251,-192.5987 447.9183,-199.5128"/>
</g>
<!-- Node18 -->
<g id="node19" class="node">
<title>Node18</title>
<polygon fill="#ffffff" stroke="#bfbfbf" points="28,-179.5 28,-198.5 84,-198.5 84,-179.5 28,-179.5"/>
<text text-anchor="middle" x="56" y="-186.5" font-family="Helvetica,sans-Serif" font-size="10.00" fill="#000000">stddef.h</text>
</g>
<!-- Node16&#45;&gt;Node18 -->
<g id="edge22" class="edge">
<title>Node16&#45;&gt;Node18</title>
<path fill="none" stroke="#191970" d="M95.6563,-240.8906C88.7298,-231.8273 78.174,-218.0149 69.694,-206.9188"/>
<polygon fill="#191970" stroke="#191970" points="72.3003,-204.565 63.4473,-198.7449 66.7385,-208.8155 72.3003,-204.565"/>
</g>
<!-- Node19&#45;&gt;Node1 -->
<g id="edge30" class="edge">
<title>Node19&#45;&gt;Node1</title>
<path fill="none" stroke="#191970" d="M668.3867,-414.4434C525.5128,-376.5473 32.6557,-230.3882 197,-56 222.8457,-28.5748 795.1549,-13.9576 939.2828,-10.7033"/>
<polygon fill="#191970" stroke="#191970" points="939.7388,-14.1941 949.6583,-10.4721 939.5827,-7.1959 939.7388,-14.1941"/>
</g>
<!-- Node19&#45;&gt;Node2 -->
<g id="edge31" class="edge">
<title>Node19&#45;&gt;Node2</title>
<path fill="none" stroke="#191970" d="M753.5124,-422.397C904.8378,-417.1239 1374.4027,-399.4226 1525,-378 1634.7261,-362.3914 1686.3906,-396.9891 1768,-322 1797.0749,-295.2837 1793.6839,-273.7307 1786,-235 1784.1352,-225.6003 1780.3201,-215.7115 1776.5946,-207.5215"/>
<polygon fill="#191970" stroke="#191970" points="1779.7433,-205.993 1772.2318,-198.5212 1773.4443,-209.0464 1779.7433,-205.993"/>
</g>
<!-- Node19&#45;&gt;Node3 -->
<g id="edge32" class="edge">
<title>Node19&#45;&gt;Node3</title>
<path fill="none" stroke="#191970" d="M668.3629,-414.4397C637.2157,-405.6768 596.581,-391.9756 587,-378 551.0005,-325.4888 580.6303,-244.7648 597.408,-208.1888"/>
<polygon fill="#191970" stroke="#191970" points="600.7795,-209.2501 601.9253,-198.7174 594.4613,-206.2367 600.7795,-209.2501"/>
</g>
<!-- Node19&#45;&gt;Node4 -->
<g id="edge28" class="edge">
<title>Node19&#45;&gt;Node4</title>
<path fill="none" stroke="#191970" d="M740.7227,-414.4044C758.8051,-407.4487 779.3209,-396.0236 790,-378 801.3541,-358.8372 784.8156,-207.4898 778.3783,-152.7072"/>
<polygon fill="#191970" stroke="#191970" points="781.8286,-152.0816 777.1716,-142.5652 774.8777,-152.9087 781.8286,-152.0816"/>
</g>
<!-- Node19&#45;&gt;Node17 -->
<g id="edge26" class="edge">
<title>Node19&#45;&gt;Node17</title>
<path fill="none" stroke="#191970" d="M658.4654,-416.6989C630.8748,-410.3961 596.9519,-398.8599 573,-378 520.7907,-332.5304 501.1989,-247.4845 494.7681,-208.9213"/>
<polygon fill="#191970" stroke="#191970" points="498.1513,-207.8935 493.1733,-198.5409 491.2325,-208.9565 498.1513,-207.8935"/>
</g>
<!-- Node20 -->
<g id="node21" class="node">
<title>Node20</title>
<polygon fill="#ffffff" stroke="#bfbfbf" points="728,-302.5 728,-321.5 766,-321.5 766,-302.5 728,-302.5"/>
<text text-anchor="middle" x="747" y="-309.5" font-family="Helvetica,sans-Serif" font-size="10.00" fill="#000000">map</text>
</g>
<!-- Node19&#45;&gt;Node20 -->
<g id="edge27" class="edge">
<title>Node19&#45;&gt;Node20</title>
<path fill="none" stroke="#191970" d="M731.5262,-414.3698C747.1421,-406.9914 765.8289,-395.1364 775,-378 783.4793,-362.1562 773.489,-343.1914 763.1646,-329.665"/>
<polygon fill="#191970" stroke="#191970" points="765.5979,-327.1161 756.5225,-321.6491 760.2079,-331.5823 765.5979,-327.1161"/>
</g>
<!-- Node21 -->
<g id="node22" class="node">
<title>Node21</title>
<polygon fill="#ffffff" stroke="#bfbfbf" points="596,-358.5 596,-377.5 628,-377.5 628,-358.5 596,-358.5"/>
<text text-anchor="middle" x="612" y="-365.5" font-family="Helvetica,sans-Serif" font-size="10.00" fill="#000000">set</text>
</g>
<!-- Node19&#45;&gt;Node21 -->
<g id="edge29" class="edge">
<title>Node19&#45;&gt;Node21</title>
<path fill="none" stroke="#191970" d="M689.6264,-414.2455C675.0692,-405.5731 653.569,-392.7645 636.8848,-382.825"/>
<polygon fill="#191970" stroke="#191970" points="638.5683,-379.7539 628.1859,-377.6427 634.9856,-385.7676 638.5683,-379.7539"/>
</g>
<!-- Node22 -->
<g id="node23" class="node">
<title>Node22</title>
<g id="a_node23"><a xlink:href="ConfigParser_8hpp.html" target="_top" xlink:title="xml/ConfigParser.hpp">
<polygon fill="#ffffff" stroke="#000000" points="646.5,-358.5 646.5,-377.5 765.5,-377.5 765.5,-358.5 646.5,-358.5"/>
<text text-anchor="middle" x="706" y="-365.5" font-family="Helvetica,sans-Serif" font-size="10.00" fill="#000000">xml/ConfigParser.hpp</text>
</a>
</g>
</g>
<!-- Node19&#45;&gt;Node22 -->
<g id="edge33" class="edge">
<title>Node19&#45;&gt;Node22</title>
<path fill="none" stroke="#191970" d="M700.7332,-414.2455C699.3221,-406.9382 698.9179,-396.6944 699.5205,-387.7046"/>
<polygon fill="#191970" stroke="#191970" points="703.0111,-387.9945 700.7549,-377.6427 696.0632,-387.1421 703.0111,-387.9945"/>
</g>
<!-- Node23 -->
<g id="node24" class="node">
<title>Node23</title>
<g id="a_node24"><a xlink:href="XMLAttribute_8hpp.html" target="_top" xlink:title="xml/XMLAttribute.hpp">
<polygon fill="#ffffff" stroke="#000000" points="1394,-358.5 1394,-377.5 1516,-377.5 1516,-358.5 1394,-358.5"/>
<text text-anchor="middle" x="1455" y="-365.5" font-family="Helvetica,sans-Serif" font-size="10.00" fill="#000000">xml/XMLAttribute.hpp</text>
</a>
</g>
</g>
<!-- Node19&#45;&gt;Node23 -->
<g id="edge40" class="edge">
<title>Node19&#45;&gt;Node23</title>
<path fill="none" stroke="#191970" d="M753.7067,-420.4331C881.5131,-410.8775 1232.1684,-384.6603 1383.6987,-373.3309"/>
<polygon fill="#191970" stroke="#191970" points="1384.1122,-376.8099 1393.8233,-372.574 1383.5902,-369.8294 1384.1122,-376.8099"/>
</g>
<!-- Node22&#45;&gt;Node1 -->
<g id="edge36" class="edge">
<title>Node22&#45;&gt;Node1</title>
<path fill="none" stroke="#191970" d="M703.6717,-358.3109C695.4833,-321.602 671.9303,-189.7828 738,-123 806.1399,-54.1246 881.9375,-152.8558 953,-87 968.6489,-72.4977 972.3147,-47.3409 972.7705,-29.7409"/>
<polygon fill="#191970" stroke="#191970" points="976.2703,-29.6664 972.7093,-19.688 969.2704,-29.7092 976.2703,-29.6664"/>
</g>
<!-- Node22&#45;&gt;Node2 -->
<g id="edge37" class="edge">
<title>Node22&#45;&gt;Node2</title>
<path fill="none" stroke="#191970" d="M765.8115,-366.3741C894.785,-362.3715 1195.2878,-350.2395 1293,-322 1311.3349,-316.7011 1312.7129,-307.4615 1331,-302 1491.0071,-254.2136 1558.0083,-345.2418 1705,-266 1729.3313,-252.8832 1747.5871,-225.7945 1757.7817,-207.5054"/>
<polygon fill="#191970" stroke="#191970" points="1760.8955,-209.1042 1762.4856,-198.6294 1754.7104,-205.8263 1760.8955,-209.1042"/>
</g>
<!-- Node22&#45;&gt;Node3 -->
<g id="edge38" class="edge">
<title>Node22&#45;&gt;Node3</title>
<path fill="none" stroke="#191970" d="M688.9423,-358.3995C675.9652,-350.2736 658.5894,-337.4901 648,-322 623.7787,-286.5692 613.4307,-236.2761 609.3649,-208.8023"/>
<polygon fill="#191970" stroke="#191970" points="612.7859,-207.9794 607.9849,-198.5348 605.8483,-208.9119 612.7859,-207.9794"/>
</g>
<!-- Node22&#45;&gt;Node4 -->
<g id="edge35" class="edge">
<title>Node22&#45;&gt;Node4</title>
<path fill="none" stroke="#191970" d="M707.5397,-358.0679C709.6491,-345.0711 713.7782,-321.6382 719,-302 733.6625,-246.8574 756.7502,-183.5347 768.5367,-152.3798"/>
<polygon fill="#191970" stroke="#191970" points="771.9093,-153.3584 772.2021,-142.7676 765.3687,-150.8643 771.9093,-153.3584"/>
</g>
<!-- Node22&#45;&gt;Node19 -->
<g id="edge39" class="edge">
<title>Node22&#45;&gt;Node19</title>
<path fill="none" stroke="#191970" d="M711.2451,-377.6427C712.6665,-384.9199 713.081,-395.155 712.4887,-404.1575"/>
<polygon fill="#191970" stroke="#191970" points="708.9947,-403.8972 711.2668,-414.2455 715.9439,-404.739 708.9947,-403.8972"/>
</g>
<!-- Node22&#45;&gt;Node20 -->
<g id="edge34" class="edge">
<title>Node22&#45;&gt;Node20</title>
<path fill="none" stroke="#191970" d="M713.1417,-358.2455C718.8444,-350.4564 726.99,-339.3308 733.8625,-329.9439"/>
<polygon fill="#191970" stroke="#191970" points="736.8568,-331.7789 739.9402,-321.6427 731.2087,-327.6437 736.8568,-331.7789"/>
</g>
<!-- Node23&#45;&gt;Node1 -->
<g id="edge46" class="edge">
<title>Node23&#45;&gt;Node1</title>
<path fill="none" stroke="#191970" d="M1516.1087,-366.5114C1596.247,-363.3256 1731.0172,-353.3314 1768,-322 1817.692,-279.9015 1823.0989,-239.8935 1800,-179 1774.0936,-110.7053 1756.6189,-88.0853 1691,-56 1628.8382,-25.6051 1136.9451,-13.3868 1004.6598,-10.6316"/>
<polygon fill="#191970" stroke="#191970" points="1004.4428,-7.1266 994.3733,-10.4215 1004.2997,-14.1251 1004.4428,-7.1266"/>
</g>
<!-- Node23&#45;&gt;Node2 -->
<g id="edge49" class="edge">
<title>Node23&#45;&gt;Node2</title>
<path fill="none" stroke="#191970" d="M1516.2289,-362.2657C1597.3011,-354.0913 1731.9553,-338.2681 1748,-322 1777.6415,-291.9458 1774.869,-237.916 1770.6982,-208.8293"/>
<polygon fill="#191970" stroke="#191970" points="1774.1062,-207.9819 1769.036,-198.679 1767.1982,-209.1132 1774.1062,-207.9819"/>
</g>
<!-- Node23&#45;&gt;Node3 -->
<g id="edge50" class="edge">
<title>Node23&#45;&gt;Node3</title>
<path fill="none" stroke="#191970" d="M1393.6665,-364.3076C1275.5243,-355.9383 1009.1401,-330.9429 795,-266 737.3072,-248.5033 672.8434,-220.0437 636.3708,-203.0612"/>
<polygon fill="#191970" stroke="#191970" points="637.3944,-199.6753 626.8548,-198.5943 634.4199,-206.0119 637.3944,-199.6753"/>
</g>
<!-- Node23&#45;&gt;Node15 -->
<g id="edge45" class="edge">
<title>Node23&#45;&gt;Node15</title>
<path fill="none" stroke="#191970" d="M1516.1295,-365.246C1630.0714,-359.5884 1866.0436,-345.2039 1895,-322 1921.1578,-301.0387 1919,-284.0202 1919,-250.5 1919,-250.5 1919,-250.5 1919,-133 1919,-73.3112 1847.5987,-37.9853 1801.7183,-21.4473"/>
<polygon fill="#191970" stroke="#191970" points="1802.6641,-18.071 1792.0693,-18.1081 1800.3748,-24.6861 1802.6641,-18.071"/>
</g>
<!-- Node23&#45;&gt;Node20 -->
<g id="edge44" class="edge">
<title>Node23&#45;&gt;Node20</title>
<path fill="none" stroke="#191970" d="M1393.9434,-365.6089C1250.8088,-359.7172 896.9096,-343.4115 780,-322 778.7082,-321.7634 777.3955,-321.4939 776.0749,-321.199"/>
<polygon fill="#191970" stroke="#191970" points="776.5754,-317.7119 766.0146,-318.5606 774.7996,-324.4829 776.5754,-317.7119"/>
</g>
<!-- Node24 -->
<g id="node25" class="node">
<title>Node24</title>
<polygon fill="#ffffff" stroke="#bfbfbf" points="1340,-302.5 1340,-321.5 1404,-321.5 1404,-302.5 1340,-302.5"/>
<text text-anchor="middle" x="1372" y="-309.5" font-family="Helvetica,sans-Serif" font-size="10.00" fill="#000000">algorithm</text>
</g>
<!-- Node23&#45;&gt;Node24 -->
<g id="edge41" class="edge">
<title>Node23&#45;&gt;Node24</title>
<path fill="none" stroke="#191970" d="M1440.5425,-358.2455C1427.9268,-349.7337 1409.4056,-337.2375 1394.7955,-327.3801"/>
<polygon fill="#191970" stroke="#191970" points="1396.5391,-324.3343 1386.2918,-321.6427 1392.6239,-330.1371 1396.5391,-324.3343"/>
</g>
<!-- Node25 -->
<g id="node26" class="node">
<title>Node25</title>
<polygon fill="#ffffff" stroke="#bfbfbf" points="1422.5,-302.5 1422.5,-321.5 1487.5,-321.5 1487.5,-302.5 1422.5,-302.5"/>
<text text-anchor="middle" x="1455" y="-309.5" font-family="Helvetica,sans-Serif" font-size="10.00" fill="#000000">exception</text>
</g>
<!-- Node23&#45;&gt;Node25 -->
<g id="edge42" class="edge">
<title>Node23&#45;&gt;Node25</title>
<path fill="none" stroke="#191970" d="M1455,-358.2455C1455,-350.9382 1455,-340.6944 1455,-331.7046"/>
<polygon fill="#191970" stroke="#191970" points="1458.5001,-331.6426 1455,-321.6427 1451.5001,-331.6427 1458.5001,-331.6426"/>
</g>
<!-- Node26 -->
<g id="node27" class="node">
<title>Node26</title>
<polygon fill="#ffffff" stroke="#bfbfbf" points="1505.5,-302.5 1505.5,-321.5 1588.5,-321.5 1588.5,-302.5 1505.5,-302.5"/>
<text text-anchor="middle" x="1547" y="-309.5" font-family="Helvetica,sans-Serif" font-size="10.00" fill="#000000">initializer_list</text>
</g>
<!-- Node23&#45;&gt;Node26 -->
<g id="edge43" class="edge">
<title>Node23&#45;&gt;Node26</title>
<path fill="none" stroke="#191970" d="M1471.0252,-358.2455C1485.1408,-349.6534 1505.9263,-337.0014 1522.1899,-327.1018"/>
<polygon fill="#191970" stroke="#191970" points="1524.4363,-329.8319 1531.1585,-321.6427 1520.7966,-323.8525 1524.4363,-329.8319"/>
</g>
<!-- Node27 -->
<g id="node28" class="node">
<title>Node27</title>
<polygon fill="#ffffff" stroke="#bfbfbf" points="1606.5,-302.5 1606.5,-321.5 1675.5,-321.5 1675.5,-302.5 1606.5,-302.5"/>
<text text-anchor="middle" x="1641" y="-309.5" font-family="Helvetica,sans-Serif" font-size="10.00" fill="#000000">type_traits</text>
</g>
<!-- Node23&#45;&gt;Node27 -->
<g id="edge47" class="edge">
<title>Node23&#45;&gt;Node27</title>
<path fill="none" stroke="#191970" d="M1486.9745,-358.3733C1518.1713,-348.9807 1565.771,-334.6496 1599.7932,-324.4064"/>
<polygon fill="#191970" stroke="#191970" points="1600.8763,-327.7355 1609.4427,-321.5011 1598.8582,-321.0327 1600.8763,-327.7355"/>
</g>
<!-- Node28 -->
<g id="node29" class="node">
<title>Node28</title>
<polygon fill="#ffffff" stroke="#bfbfbf" points="1693.5,-302.5 1693.5,-321.5 1738.5,-321.5 1738.5,-302.5 1693.5,-302.5"/>
<text text-anchor="middle" x="1716" y="-309.5" font-family="Helvetica,sans-Serif" font-size="10.00" fill="#000000">utility</text>
</g>
<!-- Node23&#45;&gt;Node28 -->
<g id="edge48" class="edge">
<title>Node23&#45;&gt;Node28</title>
<path fill="none" stroke="#191970" d="M1512.1255,-358.455C1556.6327,-350.5912 1620.1098,-338.4442 1683.6223,-322.161"/>
<polygon fill="#191970" stroke="#191970" points="1684.6025,-325.5226 1693.4011,-319.6206 1682.8424,-318.7475 1684.6025,-325.5226"/>
</g>
<!-- Node29 -->
<g id="node30" class="node">
<title>Node29</title>
<g id="a_node30"><a xlink:href="assertion_8hpp.html" target="_top" xlink:title="utils/assertion.hpp">
<polygon fill="#ffffff" stroke="#000000" points="1176.5,-302.5 1176.5,-321.5 1283.5,-321.5 1283.5,-302.5 1176.5,-302.5"/>
<text text-anchor="middle" x="1230" y="-309.5" font-family="Helvetica,sans-Serif" font-size="10.00" fill="#000000">utils/assertion.hpp</text>
</a>
</g>
</g>
<!-- Node23&#45;&gt;Node29 -->
<g id="edge51" class="edge">
<title>Node23&#45;&gt;Node29</title>
<path fill="none" stroke="#191970" d="M1416.5768,-358.4369C1378.3125,-348.9133 1319.4663,-334.2672 1278.1151,-323.9753"/>
<polygon fill="#191970" stroke="#191970" points="1278.8141,-320.5426 1268.2647,-321.5237 1277.1234,-327.3353 1278.8141,-320.5426"/>
</g>
<!-- Node38 -->
<g id="node39" class="node">
<title>Node38</title>
<g id="a_node39"><a xlink:href="ValueParser_8hpp.html" target="_top" xlink:title="xml/ValueParser.hpp">
<polygon fill="#ffffff" stroke="#000000" points="804,-241 804,-260 920,-260 920,-241 804,-241"/>
<text text-anchor="middle" x="862" y="-248" font-family="Helvetica,sans-Serif" font-size="10.00" fill="#000000">xml/ValueParser.hpp</text>
</a>
</g>
</g>
<!-- Node23&#45;&gt;Node38 -->
<g id="edge70" class="edge">
<title>Node23&#45;&gt;Node38</title>
<path fill="none" stroke="#191970" d="M1393.7524,-359.4628C1335.4934,-351.0404 1245.4885,-337.2431 1168,-322 1075.6502,-303.8334 968.8012,-277.6804 908.9356,-262.5554"/>
<polygon fill="#191970" stroke="#191970" points="909.5827,-259.1089 899.0293,-260.0448 907.863,-265.8943 909.5827,-259.1089"/>
</g>
<!-- Node29&#45;&gt;Node6 -->
<g id="edge56" class="edge">
<title>Node29&#45;&gt;Node6</title>
<path fill="none" stroke="#191970" d="M1176.4919,-306.9054C1124.4165,-300.7098 1050.6271,-288.2172 1033,-266 991.8552,-214.141 1043.056,-134.0282 1073.4839,-94.7815"/>
<polygon fill="#191970" stroke="#191970" points="1076.4987,-96.6136 1079.9824,-86.6079 1071.0194,-92.2573 1076.4987,-96.6136"/>
</g>
<!-- Node29&#45;&gt;Node8 -->
<g id="edge58" class="edge">
<title>Node29&#45;&gt;Node8</title>
<path fill="none" stroke="#191970" d="M1176.3993,-306.1396C1127.1341,-299.5177 1059.3452,-286.8532 1043,-266 1034.5005,-255.1563 1036.0767,-246.912 1043,-235 1090.4452,-153.367 1195.5832,-109.107 1264.5744,-87.9146"/>
<polygon fill="#191970" stroke="#191970" points="1265.9013,-91.1711 1274.48,-84.9536 1263.8964,-84.4643 1265.9013,-91.1711"/>
</g>
<!-- Node29&#45;&gt;Node9 -->
<g id="edge59" class="edge">
<title>Node29&#45;&gt;Node9</title>
<path fill="none" stroke="#191970" d="M1283.6826,-302.7814C1285.4754,-302.5118 1287.2517,-302.2505 1289,-302 1356.9953,-292.2575 1549.1708,-316.2523 1596,-266 1639.0362,-219.8179 1624.0744,-137.5143 1612.8294,-96.3628"/>
<polygon fill="#191970" stroke="#191970" points="1616.1493,-95.2433 1610.018,-86.6028 1609.4228,-97.1809 1616.1493,-95.2433"/>
</g>
<!-- Node29&#45;&gt;Node10 -->
<g id="edge60" class="edge">
<title>Node29&#45;&gt;Node10</title>
<path fill="none" stroke="#191970" d="M1176.4278,-305.2392C1121.5828,-297.5011 1040.8296,-283.5942 1015,-266 951.8877,-223.0101 911.7867,-137.9063 895.0203,-95.9936"/>
<polygon fill="#191970" stroke="#191970" points="898.2361,-94.606 891.3491,-86.5549 891.7122,-97.1435 898.2361,-94.606"/>
</g>
<!-- Node29&#45;&gt;Node15 -->
<g id="edge54" class="edge">
<title>Node29&#45;&gt;Node15</title>
<path fill="none" stroke="#191970" d="M1283.6766,-302.7381C1285.4711,-302.4809 1287.2494,-302.2339 1289,-302 1370.225,-291.1463 1585.2624,-307.3702 1656,-266 1741.7461,-215.8522 1759.4263,-80.7357 1763.0622,-29.7962"/>
<polygon fill="#191970" stroke="#191970" points="1766.5592,-29.9492 1763.6695,-19.7561 1759.572,-29.5265 1766.5592,-29.9492"/>
</g>
<!-- Node30 -->
<g id="node31" class="node">
<title>Node30</title>
<polygon fill="#ffffff" stroke="#bfbfbf" points="1052,-241 1052,-260 1104,-260 1104,-241 1052,-241"/>
<text text-anchor="middle" x="1078" y="-248" font-family="Helvetica,sans-Serif" font-size="10.00" fill="#000000">cassert</text>
</g>
<!-- Node29&#45;&gt;Node30 -->
<g id="edge52" class="edge">
<title>Node29&#45;&gt;Node30</title>
<path fill="none" stroke="#191970" d="M1204.7707,-302.435C1180.991,-293.336 1144.4169,-279.1257 1113,-266 1111.6203,-265.4236 1110.2128,-264.8288 1108.793,-264.2232"/>
<polygon fill="#191970" stroke="#191970" points="1109.9762,-260.9214 1099.4093,-260.1528 1107.1905,-267.3433 1109.9762,-260.9214"/>
</g>
<!-- Node31 -->
<g id="node32" class="node">
<title>Node31</title>
<polygon fill="#ffffff" stroke="#bfbfbf" points="1122,-241 1122,-260 1182,-260 1182,-241 1122,-241"/>
<text text-anchor="middle" x="1152" y="-248" font-family="Helvetica,sans-Serif" font-size="10.00" fill="#000000">iostream</text>
</g>
<!-- Node29&#45;&gt;Node31 -->
<g id="edge53" class="edge">
<title>Node29&#45;&gt;Node31</title>
<path fill="none" stroke="#191970" d="M1217.8125,-302.3906C1205.563,-292.7324 1186.4737,-277.6812 1172.0023,-266.271"/>
<polygon fill="#191970" stroke="#191970" points="1174.1217,-263.485 1164.1019,-260.0419 1169.7876,-268.9819 1174.1217,-263.485"/>
</g>
<!-- Node32 -->
<g id="node33" class="node">
<title>Node32</title>
<polygon fill="#ffffff" stroke="#bfbfbf" points="1200.5,-241 1200.5,-260 1347.5,-260 1347.5,-241 1200.5,-241"/>
<text text-anchor="middle" x="1274" y="-248" font-family="Helvetica,sans-Serif" font-size="10.00" fill="#000000">boost/current_function.hpp</text>
</g>
<!-- Node29&#45;&gt;Node32 -->
<g id="edge55" class="edge">
<title>Node29&#45;&gt;Node32</title>
<path fill="none" stroke="#191970" d="M1236.875,-302.3906C1243.3593,-293.3273 1253.2414,-279.5149 1261.1801,-268.4188"/>
<polygon fill="#191970" stroke="#191970" points="1264.0559,-270.4143 1267.0281,-260.2449 1258.3629,-266.3412 1264.0559,-270.4143"/>
</g>
<!-- Node33 -->
<g id="node34" class="node">
<title>Node33</title>
<polygon fill="#ffffff" stroke="#bfbfbf" points="1365.5,-235.5 1365.5,-265.5 1494.5,-265.5 1494.5,-235.5 1365.5,-235.5"/>
<text text-anchor="start" x="1373.5" y="-253.5" font-family="Helvetica,sans-Serif" font-size="10.00" fill="#000000">boost/preprocessor</text>
<text text-anchor="middle" x="1430" y="-242.5" font-family="Helvetica,sans-Serif" font-size="10.00" fill="#000000">/facilities/is_empty.hpp</text>
</g>
<!-- Node29&#45;&gt;Node33 -->
<g id="edge57" class="edge">
<title>Node29&#45;&gt;Node33</title>
<path fill="none" stroke="#191970" d="M1261.25,-302.3906C1290.5732,-293.3737 1335.1826,-279.6563 1371.1721,-268.5896"/>
<polygon fill="#191970" stroke="#191970" points="1372.5449,-271.8292 1381.0745,-265.5446 1370.4874,-265.1384 1372.5449,-271.8292"/>
</g>
<!-- Node34 -->
<g id="node35" class="node">
<title>Node34</title>
<g id="a_node35"><a xlink:href="Parallel_8hpp.html" target="_top" xlink:title="Parallel.hpp">
<polygon fill="#ffffff" stroke="#000000" points="1513,-241 1513,-260 1587,-260 1587,-241 1513,-241"/>
<text text-anchor="middle" x="1550" y="-248" font-family="Helvetica,sans-Serif" font-size="10.00" fill="#000000">Parallel.hpp</text>
</a>
</g>
</g>
<!-- Node29&#45;&gt;Node34 -->
<g id="edge61" class="edge">
<title>Node29&#45;&gt;Node34</title>
<path fill="none" stroke="#191970" d="M1283.508,-304.0501C1351.0206,-293.8396 1463.2369,-276.2207 1504,-266 1507.3719,-265.1546 1510.8515,-264.1791 1514.3165,-263.1376"/>
<polygon fill="#191970" stroke="#191970" points="1515.4706,-266.4434 1523.9416,-260.08 1513.3513,-259.7719 1515.4706,-266.4434"/>
</g>
<!-- Node37 -->
<g id="node38" class="node">
<title>Node37</title>
<g id="a_node38"><a xlink:href="stacktrace_8hpp.html" target="_top" xlink:title="stacktrace.hpp">
<polygon fill="#ffffff" stroke="#000000" points="1643.5,-123.5 1643.5,-142.5 1732.5,-142.5 1732.5,-123.5 1643.5,-123.5"/>
<text text-anchor="middle" x="1688" y="-130.5" font-family="Helvetica,sans-Serif" font-size="10.00" fill="#000000">stacktrace.hpp</text>
</a>
</g>
</g>
<!-- Node29&#45;&gt;Node37 -->
<g id="edge68" class="edge">
<title>Node29&#45;&gt;Node37</title>
<path fill="none" stroke="#191970" d="M1283.796,-303.8978C1288.5961,-303.2327 1293.3839,-302.5902 1298,-302 1371.3918,-292.6158 1569.2496,-309.6384 1629,-266 1666.2617,-238.7861 1680.3871,-182.6942 1685.4222,-152.7904"/>
<polygon fill="#191970" stroke="#191970" points="1688.9096,-153.136 1686.9362,-142.7265 1681.9874,-152.0946 1688.9096,-153.136"/>
</g>
<!-- Node34&#45;&gt;Node1 -->
<g id="edge64" class="edge">
<title>Node34&#45;&gt;Node1</title>
<path fill="none" stroke="#191970" d="M1545.8913,-240.8883C1531.2081,-207.9074 1477.7567,-99.0085 1395,-56 1326.8861,-20.6013 1090.5737,-12.3609 1004.057,-10.5131"/>
<polygon fill="#191970" stroke="#191970" points="1004.1039,-7.0135 994.0363,-10.3138 1003.9646,-14.0121 1004.1039,-7.0135"/>
</g>
<!-- Node34&#45;&gt;Node2 -->
<g id="edge65" class="edge">
<title>Node34&#45;&gt;Node2</title>
<path fill="none" stroke="#191970" d="M1583.9063,-240.8906C1624.785,-229.3052 1693.0442,-209.9598 1733.6656,-198.4473"/>
<polygon fill="#191970" stroke="#191970" points="1734.6974,-201.7928 1743.3641,-195.6987 1732.7887,-195.0581 1734.6974,-201.7928"/>
</g>
<!-- Node34&#45;&gt;Node3 -->
<g id="edge66" class="edge">
<title>Node34&#45;&gt;Node3</title>
<path fill="none" stroke="#191970" d="M1525.5048,-240.8655C1518.647,-238.5494 1511.1196,-236.3554 1504,-235 1483.5796,-231.1125 874.5141,-201.771 671.8616,-192.0891"/>
<polygon fill="#191970" stroke="#191970" points="671.8205,-188.5832 661.6649,-191.6021 671.4865,-195.5753 671.8205,-188.5832"/>
</g>
<!-- Node34&#45;&gt;Node4 -->
<g id="edge63" class="edge">
<title>Node34&#45;&gt;Node4</title>
<path fill="none" stroke="#191970" d="M1524.4558,-240.9552C1517.8615,-238.7511 1510.7251,-236.5896 1504,-235 1245.2727,-173.8457 925.5681,-144.6779 815.4388,-135.9333"/>
<polygon fill="#191970" stroke="#191970" points="815.3868,-132.4186 805.1441,-135.1273 814.8404,-139.3973 815.3868,-132.4186"/>
</g>
<!-- Node35 -->
<g id="node36" class="node">
<title>Node35</title>
<polygon fill="#ffffff" stroke="#bfbfbf" points="1444.5,-179.5 1444.5,-198.5 1493.5,-198.5 1493.5,-179.5 1444.5,-179.5"/>
<text text-anchor="middle" x="1469" y="-186.5" font-family="Helvetica,sans-Serif" font-size="10.00" fill="#000000">iosfwd</text>
</g>
<!-- Node34&#45;&gt;Node35 -->
<g id="edge62" class="edge">
<title>Node34&#45;&gt;Node35</title>
<path fill="none" stroke="#191970" d="M1537.3438,-240.8906C1524.6232,-231.2324 1504.7996,-216.1812 1489.7716,-204.771"/>
<polygon fill="#191970" stroke="#191970" points="1491.6484,-201.8015 1481.5674,-198.5419 1487.4154,-207.3766 1491.6484,-201.8015"/>
</g>
<!-- Node36 -->
<g id="node37" class="node">
<title>Node36</title>
<polygon fill="#ffffff" stroke="#bfbfbf" points="1382,-179.5 1382,-198.5 1426,-198.5 1426,-179.5 1382,-179.5"/>
<text text-anchor="middle" x="1404" y="-186.5" font-family="Helvetica,sans-Serif" font-size="10.00" fill="#000000">mpi.h</text>
</g>
<!-- Node34&#45;&gt;Node36 -->
<g id="edge67" class="edge">
<title>Node34&#45;&gt;Node36</title>
<path fill="none" stroke="#191970" d="M1527.1875,-240.8906C1502.5084,-230.495 1462.9968,-213.8514 1435.3963,-202.2252"/>
<polygon fill="#191970" stroke="#191970" points="1436.7487,-198.997 1426.1743,-198.3405 1434.0313,-205.4481 1436.7487,-198.997"/>
</g>
<!-- Node37&#45;&gt;Node1 -->
<g id="edge69" class="edge">
<title>Node37&#45;&gt;Node1</title>
<path fill="none" stroke="#191970" d="M1688.8759,-123.3723C1689.7974,-106.7176 1688.9475,-72.7127 1669,-56 1643.206,-34.3889 1138.0476,-15.6686 1004.2739,-11.0757"/>
<polygon fill="#191970" stroke="#191970" points="1004.3531,-7.5765 994.2397,-10.7339 1004.1147,-14.5724 1004.3531,-7.5765"/>
</g>
<!-- Node38&#45;&gt;Node1 -->
<g id="edge72" class="edge">
<title>Node38&#45;&gt;Node1</title>
<path fill="none" stroke="#191970" d="M873.1623,-240.8493C899.1175,-217.5741 963.0602,-155.2094 986,-87 992.4663,-67.7729 986.6289,-44.7834 980.6393,-28.9592"/>
<polygon fill="#191970" stroke="#191970" points="983.8679,-27.6076 976.8091,-19.7067 977.4002,-30.285 983.8679,-27.6076"/>
</g>
<!-- Node38&#45;&gt;Node14 -->
<g id="edge73" class="edge">
<title>Node38&#45;&gt;Node14</title>
<path fill="none" stroke="#191970" d="M890.6629,-240.9937C915.5832,-232.0668 952.1204,-217.3521 981,-199 1024.0514,-171.6422 1023.0827,-148.9451 1067,-123 1084.8131,-112.4765 1134.3059,-95.6795 1170.3048,-84.1474"/>
<polygon fill="#191970" stroke="#191970" points="1171.5941,-87.4102 1180.0629,-81.044 1169.4725,-80.7394 1171.5941,-87.4102"/>
</g>
<!-- Node38&#45;&gt;Node17 -->
<g id="edge71" class="edge">
<title>Node38&#45;&gt;Node17</title>
<path fill="none" stroke="#191970" d="M803.9821,-241.7322C739.9779,-231.9204 633.9817,-215.2592 543,-199 540.835,-198.6131 538.6199,-198.2092 536.3839,-197.7951"/>
<polygon fill="#191970" stroke="#191970" points="537.0129,-194.3521 526.537,-195.9347 535.7134,-201.2304 537.0129,-194.3521"/>
</g>
</g>
</svg>
