<?xml version="1.0" encoding="UTF-8" standalone="no"?>
<!DOCTYPE svg PUBLIC "-//W3C//DTD SVG 1.1//EN"
 "http://www.w3.org/Graphics/SVG/1.1/DTD/svg11.dtd">
<!-- Generated by graphviz version 2.40.1 (20161225.0304)
 -->
<!-- Title: src/cplscheme/tests/DummyCouplingScheme.cpp Pages: 1 -->
<!--zoomable 453 -->
<svg id="main" version="1.1" xmlns="http://www.w3.org/2000/svg" xmlns:xlink="http://www.w3.org/1999/xlink" xml:space="preserve" onload="init(evt)">
<style type="text/css"><![CDATA[
.edge:hover path { stroke: red; }
.edge:hover polygon { stroke: red; fill: red; }
]]></style>
<script type="text/javascript"><![CDATA[
var edges = document.getElementsByTagName('g');
if (edges && edges.length) {
  for (var i=0;i<edges.length;i++) {
    if (edges[i].id.substr(0,4)=='edge') {
      edges[i].setAttribute('class','edge');
    }
  }
}
]]></script>
        <defs>
                <circle id="rim" cx="0" cy="0" r="7"/>
                <circle id="rim2" cx="0" cy="0" r="3.5"/>
                <g id="zoomPlus">
                        <use xlink:href="#rim" fill="#404040">
                                <set attributeName="fill" to="#808080" begin="zoomplus.mouseover" end="zoomplus.mouseout"/>
                        </use>
                        <path d="M-4,0h8M0,-4v8" fill="none" stroke="white" stroke-width="1.5" pointer-events="none"/>
                </g>
                <g id="zoomMin">
                        <use xlink:href="#rim" fill="#404040">
                                <set attributeName="fill" to="#808080" begin="zoomminus.mouseover" end="zoomminus.mouseout"/>
                        </use>
                        <path d="M-4,0h8" fill="none" stroke="white" stroke-width="1.5" pointer-events="none"/>
                </g>
                <g id="dirArrow">
                        <path fill="none" stroke="white" stroke-width="1.5" d="M0,-3.0v7 M-2.5,-0.5L0,-3.0L2.5,-0.5"/>
                </g>
               <g id="resetDef">
                       <use xlink:href="#rim2" fill="#404040">
                               <set attributeName="fill" to="#808080" begin="reset.mouseover" end="reset.mouseout"/>
                       </use>
               </g>
        </defs>

<script type="text/javascript">
var viewWidth = 1480;
var viewHeight = 453;
var sectionId = 'dynsection-0';
</script>
<script xlink:href="svgpan.js"/>
<svg id="graph" class="graph">
<g id="viewport">
<title>src/cplscheme/tests/DummyCouplingScheme.cpp</title>
<polygon fill="#ffffff" stroke="transparent" points="-4,4 -4,-449 1476.2966,-449 1476.2966,4 -4,4"/>
<!-- Node0 -->
<g id="node1" class="node">
<title>Node0</title>
<polygon fill="#bfbfbf" stroke="#000000" points="1161.5237,-414.5 1161.5237,-444.5 1308.5237,-444.5 1308.5237,-414.5 1161.5237,-414.5"/>
<text text-anchor="start" x="1169.5237" y="-432.5" font-family="Helvetica,sans-Serif" font-size="10.00" fill="#000000">src/cplscheme/tests</text>
<text text-anchor="middle" x="1235.0237" y="-421.5" font-family="Helvetica,sans-Serif" font-size="10.00" fill="#000000">/DummyCouplingScheme.cpp</text>
</g>
<!-- Node1 -->
<g id="node2" class="node">
<title>Node1</title>
<g id="a_node2"><a xlink:href="DummyCouplingScheme_8hpp.html" target="_top" xlink:title="DummyCouplingScheme.hpp">
<polygon fill="#ffffff" stroke="#000000" points="541.0237,-358.5 541.0237,-377.5 685.0237,-377.5 685.0237,-358.5 541.0237,-358.5"/>
<text text-anchor="middle" x="613.0237" y="-365.5" font-family="Helvetica,sans-Serif" font-size="10.00" fill="#000000">DummyCouplingScheme.hpp</text>
</a>
</g>
</g>
<!-- Node0&#45;&gt;Node1 -->
<g id="edge1" class="edge">
<title>Node0&#45;&gt;Node1</title>
<path fill="none" stroke="#191970" d="M1161.2296,-422.2036C1044.324,-410.6446 817.3214,-388.1999 695.316,-376.1366"/>
<polygon fill="#191970" stroke="#191970" points="695.576,-372.6453 685.2801,-375.1443 694.8872,-379.6114 695.576,-372.6453"/>
</g>
<!-- Node9 -->
<g id="node10" class="node">
<title>Node9</title>
<g id="a_node10"><a xlink:href="LogMacros_8hpp.html" target="_top" xlink:title="LogMacros.hpp">
<polygon fill="#ffffff" stroke="#000000" points="728.5237,-123.5 728.5237,-142.5 811.5237,-142.5 811.5237,-123.5 728.5237,-123.5"/>
<text text-anchor="middle" x="770.0237" y="-130.5" font-family="Helvetica,sans-Serif" font-size="10.00" fill="#000000">LogMacros.hpp</text>
</a>
</g>
</g>
<!-- Node0&#45;&gt;Node9 -->
<g id="edge47" class="edge">
<title>Node0&#45;&gt;Node9</title>
<path fill="none" stroke="#191970" d="M1221.1938,-414.2907C1180.932,-370.923 1058.6077,-245.5054 932.0237,-179 897.3093,-160.7615 854.5017,-149.0074 821.6105,-141.9493"/>
<polygon fill="#191970" stroke="#191970" points="822.2428,-138.5061 811.7411,-139.9077 820.8247,-145.361 822.2428,-138.5061"/>
</g>
<!-- Node30 -->
<g id="node31" class="node">
<title>Node30</title>
<g id="a_node31"><a xlink:href="cplscheme_2Constants_8hpp.html" target="_top" xlink:title="../Constants.hpp">
<polygon fill="#ffffff" stroke="#000000" points="1345.5237,-302.5 1345.5237,-321.5 1434.5237,-321.5 1434.5237,-302.5 1345.5237,-302.5"/>
<text text-anchor="middle" x="1390.0237" y="-309.5" font-family="Helvetica,sans-Serif" font-size="10.00" fill="#000000">../Constants.hpp</text>
</a>
</g>
</g>
<!-- Node0&#45;&gt;Node30 -->
<g id="edge45" class="edge">
<title>Node0&#45;&gt;Node30</title>
<path fill="none" stroke="#191970" d="M1254.9699,-414.3795C1284.4394,-392.0397 1339.344,-350.4185 1369.2702,-327.7325"/>
<polygon fill="#191970" stroke="#191970" points="1371.4991,-330.4349 1377.3538,-321.6046 1367.2704,-324.8565 1371.4991,-330.4349"/>
</g>
<!-- Node2 -->
<g id="node3" class="node">
<title>Node2</title>
<polygon fill="#ffffff" stroke="#bfbfbf" points="449.5237,-.5 449.5237,-19.5 490.5237,-19.5 490.5237,-.5 449.5237,-.5"/>
<text text-anchor="middle" x="470.0237" y="-7.5" font-family="Helvetica,sans-Serif" font-size="10.00" fill="#000000">string</text>
</g>
<!-- Node1&#45;&gt;Node2 -->
<g id="edge2" class="edge">
<title>Node1&#45;&gt;Node2</title>
<path fill="none" stroke="#191970" d="M685.2168,-364.7171C842.9735,-356.4126 1212.7527,-330.4597 1318.0237,-266 1402.8024,-214.0882 1468.6913,-122.7485 1395.0237,-56 1361.1702,-25.3261 658.2408,-12.8587 501.0286,-10.4484"/>
<polygon fill="#191970" stroke="#191970" points="500.7208,-6.9434 490.6692,-10.2921 500.6152,-13.9426 500.7208,-6.9434"/>
</g>
<!-- Node3 -->
<g id="node4" class="node">
<title>Node3</title>
<polygon fill="#ffffff" stroke="#bfbfbf" points="204.0237,-179.5 204.0237,-198.5 248.0237,-198.5 248.0237,-179.5 204.0237,-179.5"/>
<text text-anchor="middle" x="226.0237" y="-186.5" font-family="Helvetica,sans-Serif" font-size="10.00" fill="#000000">vector</text>
</g>
<!-- Node1&#45;&gt;Node3 -->
<g id="edge3" class="edge">
<title>Node1&#45;&gt;Node3</title>
<path fill="none" stroke="#191970" d="M540.7697,-358.8833C500.9467,-352.0927 451.3525,-340.6729 410.0237,-322 342.4286,-291.4597 274.7845,-233.9513 243.6891,-205.6257"/>
<polygon fill="#191970" stroke="#191970" points="245.9791,-202.9765 236.2546,-198.7712 241.2341,-208.1229 245.9791,-202.9765"/>
</g>
<!-- Node4 -->
<g id="node5" class="node">
<title>Node4</title>
<g id="a_node5"><a xlink:href="CouplingScheme_8hpp.html" target="_top" xlink:title="../CouplingScheme.hpp">
<polygon fill="#ffffff" stroke="#000000" points="66.5237,-241 66.5237,-260 185.5237,-260 185.5237,-241 66.5237,-241"/>
<text text-anchor="middle" x="126.0237" y="-248" font-family="Helvetica,sans-Serif" font-size="10.00" fill="#000000">../CouplingScheme.hpp</text>
</a>
</g>
</g>
<!-- Node1&#45;&gt;Node4 -->
<g id="edge4" class="edge">
<title>Node1&#45;&gt;Node4</title>
<path fill="none" stroke="#191970" d="M540.9379,-361.5182C454.0027,-353.1797 313.2841,-337.8699 263.0237,-322 220.4563,-308.5592 175.3503,-282.3871 148.9865,-265.7103"/>
<polygon fill="#191970" stroke="#191970" points="150.783,-262.7044 140.4778,-260.2439 146.9994,-268.5938 150.783,-262.7044"/>
</g>
<!-- Node8 -->
<g id="node9" class="node">
<title>Node8</title>
<g id="a_node9"><a xlink:href="Logger_8hpp.html" target="_top" xlink:title="logging/Logger.hpp">
<polygon fill="#ffffff" stroke="#000000" points="304.0237,-179.5 304.0237,-198.5 402.0237,-198.5 402.0237,-179.5 304.0237,-179.5"/>
<text text-anchor="middle" x="353.0237" y="-186.5" font-family="Helvetica,sans-Serif" font-size="10.00" fill="#000000">logging/Logger.hpp</text>
</a>
</g>
</g>
<!-- Node1&#45;&gt;Node8 -->
<g id="edge10" class="edge">
<title>Node1&#45;&gt;Node8</title>
<path fill="none" stroke="#191970" d="M554.067,-358.4995C498.979,-346.5053 418.4592,-320.4448 372.0237,-266 358.5206,-250.1679 354.3388,-226.1943 353.1787,-209.2089"/>
<polygon fill="#191970" stroke="#191970" points="356.6586,-208.6119 352.7809,-198.7523 349.6636,-208.8781 356.6586,-208.6119"/>
</g>
<!-- Node20 -->
<g id="node21" class="node">
<title>Node20</title>
<g id="a_node21"><a xlink:href="assertion_8hpp.html" target="_top" xlink:title="utils/assertion.hpp">
<polygon fill="#ffffff" stroke="#000000" points="825.0237,-302.5 825.0237,-321.5 921.0237,-321.5 921.0237,-302.5 825.0237,-302.5"/>
<text text-anchor="middle" x="873.0237" y="-309.5" font-family="Helvetica,sans-Serif" font-size="10.00" fill="#000000">utils/assertion.hpp</text>
</a>
</g>
</g>
<!-- Node1&#45;&gt;Node20 -->
<g id="edge27" class="edge">
<title>Node1&#45;&gt;Node20</title>
<path fill="none" stroke="#191970" d="M657.4239,-358.4369C702.1078,-348.8127 771.0807,-333.957 818.9325,-323.6504"/>
<polygon fill="#191970" stroke="#191970" points="819.7678,-327.0508 828.8067,-321.5237 818.2939,-320.2078 819.7678,-327.0508"/>
</g>
<!-- Node4&#45;&gt;Node2 -->
<g id="edge6" class="edge">
<title>Node4&#45;&gt;Node2</title>
<path fill="none" stroke="#191970" d="M72.9336,-240.9159C32.542,-230.8762 -13.3806,-211.8699 4.0237,-179 49.5364,-93.0445 94.3131,-91.0904 185.0237,-56 290.9513,-15.0231 327.2368,-45.0202 438.0237,-20 438.6092,-19.8678 439.1995,-19.73 439.7931,-19.5873"/>
<polygon fill="#191970" stroke="#191970" points="440.7675,-22.9495 449.5002,-16.9502 438.9323,-16.1943 440.7675,-22.9495"/>
</g>
<!-- Node4&#45;&gt;Node3 -->
<g id="edge7" class="edge">
<title>Node4&#45;&gt;Node3</title>
<path fill="none" stroke="#191970" d="M141.6487,-240.8906C157.7935,-230.9616 183.2059,-215.333 201.9261,-203.8201"/>
<polygon fill="#191970" stroke="#191970" points="203.8239,-206.7619 210.5084,-198.5419 200.1568,-200.7992 203.8239,-206.7619"/>
</g>
<!-- Node5 -->
<g id="node6" class="node">
<title>Node5</title>
<polygon fill="#ffffff" stroke="#bfbfbf" points="13.5237,-179.5 13.5237,-198.5 48.5237,-198.5 48.5237,-179.5 13.5237,-179.5"/>
<text text-anchor="middle" x="31.0237" y="-186.5" font-family="Helvetica,sans-Serif" font-size="10.00" fill="#000000">map</text>
</g>
<!-- Node4&#45;&gt;Node5 -->
<g id="edge5" class="edge">
<title>Node4&#45;&gt;Node5</title>
<path fill="none" stroke="#191970" d="M111.18,-240.8906C95.9819,-231.0519 72.1389,-215.6167 54.4031,-204.1351"/>
<polygon fill="#191970" stroke="#191970" points="56.0598,-201.0382 45.7632,-198.5419 52.2557,-206.9144 56.0598,-201.0382"/>
</g>
<!-- Node6 -->
<g id="node7" class="node">
<title>Node6</title>
<g id="a_node7"><a xlink:href="com_2SharedPointer_8hpp.html" target="_top" xlink:title="com/SharedPointer.hpp">
<polygon fill="#ffffff" stroke="#000000" points="66.5237,-179.5 66.5237,-198.5 185.5237,-198.5 185.5237,-179.5 66.5237,-179.5"/>
<text text-anchor="middle" x="126.0237" y="-186.5" font-family="Helvetica,sans-Serif" font-size="10.00" fill="#000000">com/SharedPointer.hpp</text>
</a>
</g>
</g>
<!-- Node4&#45;&gt;Node6 -->
<g id="edge8" class="edge">
<title>Node4&#45;&gt;Node6</title>
<path fill="none" stroke="#191970" d="M126.0237,-240.8906C126.0237,-232.3657 126.0237,-219.6392 126.0237,-208.9235"/>
<polygon fill="#191970" stroke="#191970" points="129.5238,-208.7448 126.0237,-198.7449 122.5238,-208.7449 129.5238,-208.7448"/>
</g>
<!-- Node7 -->
<g id="node8" class="node">
<title>Node7</title>
<polygon fill="#ffffff" stroke="#bfbfbf" points="100.0237,-123.5 100.0237,-142.5 152.0237,-142.5 152.0237,-123.5 100.0237,-123.5"/>
<text text-anchor="middle" x="126.0237" y="-130.5" font-family="Helvetica,sans-Serif" font-size="10.00" fill="#000000">memory</text>
</g>
<!-- Node6&#45;&gt;Node7 -->
<g id="edge9" class="edge">
<title>Node6&#45;&gt;Node7</title>
<path fill="none" stroke="#191970" d="M126.0237,-179.2455C126.0237,-171.9382 126.0237,-161.6944 126.0237,-152.7046"/>
<polygon fill="#191970" stroke="#191970" points="129.5238,-152.6426 126.0237,-142.6427 122.5238,-152.6427 129.5238,-152.6426"/>
</g>
<!-- Node8&#45;&gt;Node2 -->
<g id="edge12" class="edge">
<title>Node8&#45;&gt;Node2</title>
<path fill="none" stroke="#191970" d="M325.0206,-179.4683C269.2937,-159.0732 153.6261,-108.7479 199.0237,-56 234.0602,-15.2908 385.6816,-32.0456 438.0237,-20 438.6087,-19.8654 439.1984,-19.7254 439.7916,-19.5807"/>
<polygon fill="#191970" stroke="#191970" points="440.7731,-22.9408 449.4944,-16.925 438.9251,-16.1892 440.7731,-22.9408"/>
</g>
<!-- Node8&#45;&gt;Node7 -->
<g id="edge11" class="edge">
<title>Node8&#45;&gt;Node7</title>
<path fill="none" stroke="#191970" d="M313.9739,-179.4397C276.1357,-170.1652 217.1327,-155.6747 166.0237,-143 164.7731,-142.6899 163.5006,-142.3739 162.2155,-142.0545"/>
<polygon fill="#191970" stroke="#191970" points="162.8197,-138.5981 152.2702,-139.5767 161.1274,-145.3904 162.8197,-138.5981"/>
</g>
<!-- Node8&#45;&gt;Node9 -->
<g id="edge13" class="edge">
<title>Node8&#45;&gt;Node9</title>
<path fill="none" stroke="#191970" d="M402.0851,-182.4114C481.4704,-171.7506 637.3451,-150.8177 718.3644,-139.9375"/>
<polygon fill="#191970" stroke="#191970" points="718.8922,-143.3981 728.3374,-138.5982 717.9604,-136.4604 718.8922,-143.3981"/>
</g>
<!-- Node9&#45;&gt;Node2 -->
<g id="edge20" class="edge">
<title>Node9&#45;&gt;Node2</title>
<path fill="none" stroke="#191970" d="M728.4028,-131.5169C659.3358,-128.2014 525.2424,-117.8687 491.0237,-87 475.0813,-72.6183 470.7445,-47.4361 469.8048,-29.7973"/>
<polygon fill="#191970" stroke="#191970" points="473.3023,-29.6412 469.5874,-19.719 466.3039,-29.7922 473.3023,-29.6412"/>
</g>
<!-- Node10 -->
<g id="node11" class="node">
<title>Node10</title>
<polygon fill="#ffffff" stroke="#bfbfbf" points="786.0237,-56.5 786.0237,-86.5 886.0237,-86.5 886.0237,-56.5 786.0237,-56.5"/>
<text text-anchor="start" x="794.0237" y="-74.5" font-family="Helvetica,sans-Serif" font-size="10.00" fill="#000000">boost/preprocessor</text>
<text text-anchor="middle" x="836.0237" y="-63.5" font-family="Helvetica,sans-Serif" font-size="10.00" fill="#000000">/control/if.hpp</text>
</g>
<!-- Node9&#45;&gt;Node10 -->
<g id="edge14" class="edge">
<title>Node9&#45;&gt;Node10</title>
<path fill="none" stroke="#191970" d="M780.3362,-123.3906C788.9377,-115.3756 801.5249,-103.6466 812.5571,-93.3666"/>
<polygon fill="#191970" stroke="#191970" points="814.9482,-95.9225 819.8783,-86.5446 810.1761,-90.8012 814.9482,-95.9225"/>
</g>
<!-- Node11 -->
<g id="node12" class="node">
<title>Node11</title>
<polygon fill="#ffffff" stroke="#bfbfbf" points="904.0237,-56.5 904.0237,-86.5 1008.0237,-86.5 1008.0237,-56.5 904.0237,-56.5"/>
<text text-anchor="start" x="912.0237" y="-74.5" font-family="Helvetica,sans-Serif" font-size="10.00" fill="#000000">boost/preprocessor</text>
<text text-anchor="middle" x="956.0237" y="-63.5" font-family="Helvetica,sans-Serif" font-size="10.00" fill="#000000">/facilities/empty.hpp</text>
</g>
<!-- Node9&#45;&gt;Node11 -->
<g id="edge15" class="edge">
<title>Node9&#45;&gt;Node11</title>
<path fill="none" stroke="#191970" d="M799.0862,-123.3906C826.2402,-114.4123 867.4892,-100.7735 900.8842,-89.7316"/>
<polygon fill="#191970" stroke="#191970" points="902.1273,-93.007 910.523,-86.5446 899.9298,-86.3609 902.1273,-93.007"/>
</g>
<!-- Node12 -->
<g id="node13" class="node">
<title>Node12</title>
<polygon fill="#ffffff" stroke="#bfbfbf" points="1026.0237,-56.5 1026.0237,-86.5 1128.0237,-86.5 1128.0237,-56.5 1026.0237,-56.5"/>
<text text-anchor="start" x="1034.0237" y="-74.5" font-family="Helvetica,sans-Serif" font-size="10.00" fill="#000000">boost/preprocessor</text>
<text text-anchor="middle" x="1077.0237" y="-63.5" font-family="Helvetica,sans-Serif" font-size="10.00" fill="#000000">/seq/for_each_i.hpp</text>
</g>
<!-- Node9&#45;&gt;Node12 -->
<g id="edge16" class="edge">
<title>Node9&#45;&gt;Node12</title>
<path fill="none" stroke="#191970" d="M811.7184,-126.1346C858.9468,-118.159 938.4155,-104.1397 1016.0673,-87.1294"/>
<polygon fill="#191970" stroke="#191970" points="1017.0088,-90.5059 1026.0181,-84.9306 1015.4985,-83.6707 1017.0088,-90.5059"/>
</g>
<!-- Node13 -->
<g id="node14" class="node">
<title>Node13</title>
<polygon fill="#ffffff" stroke="#bfbfbf" points="1146.0237,-56.5 1146.0237,-86.5 1246.0237,-86.5 1246.0237,-56.5 1146.0237,-56.5"/>
<text text-anchor="start" x="1154.0237" y="-74.5" font-family="Helvetica,sans-Serif" font-size="10.00" fill="#000000">boost/preprocessor</text>
<text text-anchor="middle" x="1196.0237" y="-63.5" font-family="Helvetica,sans-Serif" font-size="10.00" fill="#000000">/stringize.hpp</text>
</g>
<!-- Node9&#45;&gt;Node13 -->
<g id="edge17" class="edge">
<title>Node9&#45;&gt;Node13</title>
<path fill="none" stroke="#191970" d="M811.5839,-129.5951C878.1089,-123.7529 1012.7275,-110.3226 1135.9323,-87.0579"/>
<polygon fill="#191970" stroke="#191970" points="1136.752,-90.4646 1145.9152,-85.1461 1135.4354,-83.5895 1136.752,-90.4646"/>
</g>
<!-- Node14 -->
<g id="node15" class="node">
<title>Node14</title>
<polygon fill="#ffffff" stroke="#bfbfbf" points="1264.0237,-56.5 1264.0237,-86.5 1368.0237,-86.5 1368.0237,-56.5 1264.0237,-56.5"/>
<text text-anchor="start" x="1272.0237" y="-74.5" font-family="Helvetica,sans-Serif" font-size="10.00" fill="#000000">boost/preprocessor</text>
<text text-anchor="middle" x="1316.0237" y="-63.5" font-family="Helvetica,sans-Serif" font-size="10.00" fill="#000000">/variadic/to_seq.hpp</text>
</g>
<!-- Node9&#45;&gt;Node14 -->
<g id="edge18" class="edge">
<title>Node9&#45;&gt;Node14</title>
<path fill="none" stroke="#191970" d="M811.8324,-131.2092C894.5284,-127.1989 1084.8923,-115.6424 1253.8252,-87.0388"/>
<polygon fill="#191970" stroke="#191970" points="1254.6313,-90.4517 1263.8943,-85.3091 1253.4461,-83.5528 1254.6313,-90.4517"/>
</g>
<!-- Node15 -->
<g id="node16" class="node">
<title>Node15</title>
<polygon fill="#ffffff" stroke="#bfbfbf" points="500.0237,-62 500.0237,-81 624.0237,-81 624.0237,-62 500.0237,-62"/>
<text text-anchor="middle" x="562.0237" y="-69" font-family="Helvetica,sans-Serif" font-size="10.00" fill="#000000">boost/vmd/is_empty.hpp</text>
</g>
<!-- Node9&#45;&gt;Node15 -->
<g id="edge19" class="edge">
<title>Node9&#45;&gt;Node15</title>
<path fill="none" stroke="#191970" d="M737.5237,-123.3906C701.5767,-112.7621 643.541,-95.6025 604.1357,-83.9514"/>
<polygon fill="#191970" stroke="#191970" points="604.8775,-80.521 594.2955,-81.0419 602.8927,-87.2337 604.8775,-80.521"/>
</g>
<!-- Node16 -->
<g id="node17" class="node">
<title>Node16</title>
<g id="a_node17"><a xlink:href="Tracer_8hpp.html" target="_top" xlink:title="logging/Tracer.hpp">
<polygon fill="#ffffff" stroke="#000000" points="208.5237,-62 208.5237,-81 305.5237,-81 305.5237,-62 208.5237,-62"/>
<text text-anchor="middle" x="257.0237" y="-69" font-family="Helvetica,sans-Serif" font-size="10.00" fill="#000000">logging/Tracer.hpp</text>
</a>
</g>
</g>
<!-- Node9&#45;&gt;Node16 -->
<g id="edge21" class="edge">
<title>Node9&#45;&gt;Node16</title>
<path fill="none" stroke="#191970" d="M728.5082,-129.1172C653.4315,-121.9405 490.1516,-105.6217 353.0237,-87 340.9998,-85.3672 328.1602,-83.4294 315.9107,-81.4866"/>
<polygon fill="#191970" stroke="#191970" points="316.2195,-77.9914 305.7908,-79.8601 315.1086,-84.9027 316.2195,-77.9914"/>
</g>
<!-- Node17 -->
<g id="node18" class="node">
<title>Node17</title>
<polygon fill="#ffffff" stroke="#bfbfbf" points="642.5237,-62 642.5237,-81 767.5237,-81 767.5237,-62 642.5237,-62"/>
<text text-anchor="middle" x="705.0237" y="-69" font-family="Helvetica,sans-Serif" font-size="10.00" fill="#000000">prettyprint/prettyprint.hpp</text>
</g>
<!-- Node9&#45;&gt;Node17 -->
<g id="edge23" class="edge">
<title>Node9&#45;&gt;Node17</title>
<path fill="none" stroke="#191970" d="M759.8675,-123.3906C750.0038,-114.0581 734.8182,-99.6902 722.925,-88.4374"/>
<polygon fill="#191970" stroke="#191970" points="724.9926,-85.5753 715.3232,-81.2449 720.1816,-90.6601 724.9926,-85.5753"/>
</g>
<!-- Node18 -->
<g id="node19" class="node">
<title>Node18</title>
<g id="a_node19"><a xlink:href="String_8hpp.html" target="_top" xlink:title="utils/String.hpp">
<polygon fill="#ffffff" stroke="#000000" points="362.0237,-62 362.0237,-81 444.0237,-81 444.0237,-62 362.0237,-62"/>
<text text-anchor="middle" x="403.0237" y="-69" font-family="Helvetica,sans-Serif" font-size="10.00" fill="#000000">utils/String.hpp</text>
</a>
</g>
</g>
<!-- Node9&#45;&gt;Node18 -->
<g id="edge24" class="edge">
<title>Node9&#45;&gt;Node18</title>
<path fill="none" stroke="#191970" d="M728.3368,-128.5777C668.2178,-121.8109 553.8661,-107.4819 458.0237,-87 453.5368,-86.0411 448.8759,-84.9228 444.2504,-83.7339"/>
<polygon fill="#191970" stroke="#191970" points="444.8277,-80.2651 434.2622,-81.0532 443.0131,-87.0258 444.8277,-80.2651"/>
</g>
<!-- Node16&#45;&gt;Node8 -->
<g id="edge22" class="edge">
<title>Node16&#45;&gt;Node8</title>
<path fill="none" stroke="#191970" d="M264.9883,-81.2484C281.1848,-101.0721 318.1584,-146.3263 338.6628,-171.4229"/>
<polygon fill="#191970" stroke="#191970" points="336.1302,-173.8549 345.1676,-179.3845 341.551,-169.426 336.1302,-173.8549"/>
</g>
<!-- Node18&#45;&gt;Node2 -->
<g id="edge26" class="edge">
<title>Node18&#45;&gt;Node2</title>
<path fill="none" stroke="#191970" d="M413.4925,-61.8906C423.7574,-52.4683 439.614,-37.9134 451.9243,-26.6137"/>
<polygon fill="#191970" stroke="#191970" points="454.4072,-29.0856 459.4074,-19.7449 449.6736,-23.9287 454.4072,-29.0856"/>
</g>
<!-- Node19 -->
<g id="node20" class="node">
<title>Node19</title>
<polygon fill="#ffffff" stroke="#bfbfbf" points="377.0237,-.5 377.0237,-19.5 429.0237,-19.5 429.0237,-.5 377.0237,-.5"/>
<text text-anchor="middle" x="403.0237" y="-7.5" font-family="Helvetica,sans-Serif" font-size="10.00" fill="#000000">sstream</text>
</g>
<!-- Node18&#45;&gt;Node19 -->
<g id="edge25" class="edge">
<title>Node18&#45;&gt;Node19</title>
<path fill="none" stroke="#191970" d="M403.0237,-61.8906C403.0237,-53.3657 403.0237,-40.6392 403.0237,-29.9235"/>
<polygon fill="#191970" stroke="#191970" points="406.5238,-29.7448 403.0237,-19.7449 399.5238,-29.7449 406.5238,-29.7448"/>
</g>
<!-- Node20&#45;&gt;Node12 -->
<g id="edge31" class="edge">
<title>Node20&#45;&gt;Node12</title>
<path fill="none" stroke="#191970" d="M914.3969,-302.4202C936.9318,-295.4512 964.0138,-284.0081 983.0237,-266 1033.6358,-218.055 1060.3088,-137.186 1071.1226,-96.4867"/>
<polygon fill="#191970" stroke="#191970" points="1074.5666,-97.1451 1073.6474,-86.5903 1067.7839,-95.4146 1074.5666,-97.1451"/>
</g>
<!-- Node20&#45;&gt;Node13 -->
<g id="edge33" class="edge">
<title>Node20&#45;&gt;Node13</title>
<path fill="none" stroke="#191970" d="M918.9536,-302.4937C946.786,-295.3421 982.1731,-283.6882 1010.0237,-266 1084.6144,-218.6267 1150.5087,-135.0965 1179.8463,-94.6869"/>
<polygon fill="#191970" stroke="#191970" points="1182.7198,-96.6858 1185.7029,-86.5195 1177.0312,-92.6066 1182.7198,-96.6858"/>
</g>
<!-- Node20&#45;&gt;Node14 -->
<g id="edge35" class="edge">
<title>Node20&#45;&gt;Node14</title>
<path fill="none" stroke="#191970" d="M921.075,-303.8621C956.2634,-296.7763 1004.56,-284.6645 1044.0237,-266 1144.5233,-218.4683 1246.8718,-133.2098 1292.065,-93.266"/>
<polygon fill="#191970" stroke="#191970" points="1294.4337,-95.8433 1299.5744,-86.5792 1289.7785,-90.6154 1294.4337,-95.8433"/>
</g>
<!-- Node21 -->
<g id="node22" class="node">
<title>Node21</title>
<polygon fill="#ffffff" stroke="#bfbfbf" points="925.5237,-241 925.5237,-260 974.5237,-260 974.5237,-241 925.5237,-241"/>
<text text-anchor="middle" x="950.0237" y="-248" font-family="Helvetica,sans-Serif" font-size="10.00" fill="#000000">cassert</text>
</g>
<!-- Node20&#45;&gt;Node21 -->
<g id="edge28" class="edge">
<title>Node20&#45;&gt;Node21</title>
<path fill="none" stroke="#191970" d="M885.055,-302.3906C897.0344,-292.8227 915.6403,-277.9621 929.8762,-266.5919"/>
<polygon fill="#191970" stroke="#191970" points="932.4476,-269.0175 938.0769,-260.0419 928.079,-263.5479 932.4476,-269.0175"/>
</g>
<!-- Node22 -->
<g id="node23" class="node">
<title>Node22</title>
<polygon fill="#ffffff" stroke="#bfbfbf" points="381.0237,-241 381.0237,-260 435.0237,-260 435.0237,-241 381.0237,-241"/>
<text text-anchor="middle" x="408.0237" y="-248" font-family="Helvetica,sans-Serif" font-size="10.00" fill="#000000">iostream</text>
</g>
<!-- Node20&#45;&gt;Node22 -->
<g id="edge29" class="edge">
<title>Node20&#45;&gt;Node22</title>
<path fill="none" stroke="#191970" d="M824.7049,-308.6484C728.2331,-301.6569 514.9359,-284.6132 444.0237,-266 441.6913,-265.3878 439.3148,-264.648 436.9511,-263.8278"/>
<polygon fill="#191970" stroke="#191970" points="438.0405,-260.496 427.4522,-260.1234 435.4972,-267.0176 438.0405,-260.496"/>
</g>
<!-- Node23 -->
<g id="node24" class="node">
<title>Node23</title>
<polygon fill="#ffffff" stroke="#bfbfbf" points="453.0237,-241 453.0237,-260 585.0237,-260 585.0237,-241 453.0237,-241"/>
<text text-anchor="middle" x="519.0237" y="-248" font-family="Helvetica,sans-Serif" font-size="10.00" fill="#000000">boost/current_function.hpp</text>
</g>
<!-- Node20&#45;&gt;Node23 -->
<g id="edge30" class="edge">
<title>Node20&#45;&gt;Node23</title>
<path fill="none" stroke="#191970" d="M824.5335,-304.6136C768.7983,-295.9826 674.6285,-280.9677 594.0237,-266 587.4364,-264.7768 580.5364,-263.4346 573.7022,-262.0676"/>
<polygon fill="#191970" stroke="#191970" points="574.276,-258.6128 563.7802,-260.0581 572.8864,-265.4735 574.276,-258.6128"/>
</g>
<!-- Node24 -->
<g id="node25" class="node">
<title>Node24</title>
<polygon fill="#ffffff" stroke="#bfbfbf" points="603.0237,-235.5 603.0237,-265.5 703.0237,-265.5 703.0237,-235.5 603.0237,-235.5"/>
<text text-anchor="start" x="611.0237" y="-253.5" font-family="Helvetica,sans-Serif" font-size="10.00" fill="#000000">boost/preprocessor</text>
<text text-anchor="middle" x="653.0237" y="-242.5" font-family="Helvetica,sans-Serif" font-size="10.00" fill="#000000">/seq/seq.hpp</text>
</g>
<!-- Node20&#45;&gt;Node24 -->
<g id="edge32" class="edge">
<title>Node20&#45;&gt;Node24</title>
<path fill="none" stroke="#191970" d="M838.6487,-302.3906C805.0438,-292.9965 753.1877,-278.5004 712.8176,-267.2151"/>
<polygon fill="#191970" stroke="#191970" points="713.6558,-263.8153 703.0827,-264.4938 711.7712,-270.5568 713.6558,-263.8153"/>
</g>
<!-- Node25 -->
<g id="node26" class="node">
<title>Node25</title>
<polygon fill="#ffffff" stroke="#bfbfbf" points="721.0237,-235.5 721.0237,-265.5 821.0237,-265.5 821.0237,-235.5 721.0237,-235.5"/>
<text text-anchor="start" x="729.0237" y="-253.5" font-family="Helvetica,sans-Serif" font-size="10.00" fill="#000000">boost/preprocessor</text>
<text text-anchor="middle" x="771.0237" y="-242.5" font-family="Helvetica,sans-Serif" font-size="10.00" fill="#000000">/variadic/elem.hpp</text>
</g>
<!-- Node20&#45;&gt;Node25 -->
<g id="edge34" class="edge">
<title>Node20&#45;&gt;Node25</title>
<path fill="none" stroke="#191970" d="M857.0862,-302.3906C843.1539,-293.9903 822.4554,-281.5103 804.8488,-270.8945"/>
<polygon fill="#191970" stroke="#191970" points="806.3468,-267.7108 795.9757,-265.5446 802.7323,-273.7054 806.3468,-267.7108"/>
</g>
<!-- Node26 -->
<g id="node27" class="node">
<title>Node26</title>
<g id="a_node27"><a xlink:href="Parallel_8hpp.html" target="_top" xlink:title="Parallel.hpp">
<polygon fill="#ffffff" stroke="#000000" points="839.0237,-241 839.0237,-260 907.0237,-260 907.0237,-241 839.0237,-241"/>
<text text-anchor="middle" x="873.0237" y="-248" font-family="Helvetica,sans-Serif" font-size="10.00" fill="#000000">Parallel.hpp</text>
</a>
</g>
</g>
<!-- Node20&#45;&gt;Node26 -->
<g id="edge36" class="edge">
<title>Node20&#45;&gt;Node26</title>
<path fill="none" stroke="#191970" d="M873.0237,-302.3906C873.0237,-293.8657 873.0237,-281.1392 873.0237,-270.4235"/>
<polygon fill="#191970" stroke="#191970" points="876.5238,-270.2448 873.0237,-260.2449 869.5238,-270.2449 876.5238,-270.2448"/>
</g>
<!-- Node29 -->
<g id="node30" class="node">
<title>Node29</title>
<g id="a_node30"><a xlink:href="stacktrace_8hpp.html" target="_top" xlink:title="stacktrace.hpp">
<polygon fill="#ffffff" stroke="#000000" points="1315.5237,-123.5 1315.5237,-142.5 1396.5237,-142.5 1396.5237,-123.5 1315.5237,-123.5"/>
<text text-anchor="middle" x="1356.0237" y="-130.5" font-family="Helvetica,sans-Serif" font-size="10.00" fill="#000000">stacktrace.hpp</text>
</a>
</g>
</g>
<!-- Node20&#45;&gt;Node29 -->
<g id="edge43" class="edge">
<title>Node20&#45;&gt;Node29</title>
<path fill="none" stroke="#191970" d="M921.2948,-309.2414C1024.4293,-302.9802 1259.3346,-286.624 1289.0237,-266 1327.8106,-239.056 1345.3577,-182.8489 1352.228,-152.8569"/>
<polygon fill="#191970" stroke="#191970" points="1355.7182,-153.2688 1354.3604,-142.7614 1348.8693,-151.8221 1355.7182,-153.2688"/>
</g>
<!-- Node26&#45;&gt;Node2 -->
<g id="edge39" class="edge">
<title>Node26&#45;&gt;Node2</title>
<path fill="none" stroke="#191970" d="M847.1679,-240.9664C841.5334,-238.9487 835.5915,-236.8662 830.0237,-235 619.5612,-164.4574 484.6862,-265.7056 353.0237,-87 344.8514,-75.9077 345.2658,-67.3861 353.0237,-56 358.1748,-48.4399 406.7606,-31.0526 439.6804,-19.9524"/>
<polygon fill="#191970" stroke="#191970" points="440.9541,-23.2171 449.3285,-16.7272 438.7347,-16.5782 440.9541,-23.2171"/>
</g>
<!-- Node26&#45;&gt;Node3 -->
<g id="edge40" class="edge">
<title>Node26&#45;&gt;Node3</title>
<path fill="none" stroke="#191970" d="M850.1615,-240.9071C843.7511,-238.5911 836.7058,-236.3868 830.0237,-235 582.3503,-183.5988 511.4505,-241.077 262.0237,-199 260.7644,-198.7876 259.486,-198.5487 258.1986,-198.2886"/>
<polygon fill="#191970" stroke="#191970" points="258.8655,-194.8501 248.33,-195.9697 257.2642,-201.6645 258.8655,-194.8501"/>
</g>
<!-- Node26&#45;&gt;Node7 -->
<g id="edge38" class="edge">
<title>Node26&#45;&gt;Node7</title>
<path fill="none" stroke="#191970" d="M850.1579,-240.9243C843.7475,-238.6083 836.7031,-236.3998 830.0237,-235 596.7752,-186.1187 524.3305,-263.9049 295.0237,-199 276.6599,-193.8022 274.5189,-186.6266 257.0237,-179 225.4787,-165.2488 188.3773,-152.5292 161.7267,-143.9671"/>
<polygon fill="#191970" stroke="#191970" points="162.6481,-140.5875 152.0577,-140.8957 160.5288,-147.259 162.6481,-140.5875"/>
</g>
<!-- Node26&#45;&gt;Node8 -->
<g id="edge41" class="edge">
<title>Node26&#45;&gt;Node8</title>
<path fill="none" stroke="#191970" d="M849.6911,-240.8492C843.4017,-238.5916 836.5341,-236.4309 830.0237,-235 649.6352,-195.3519 599.3435,-221.4911 416.0237,-199 414.7562,-198.8445 413.475,-198.6827 412.1841,-198.5155"/>
<polygon fill="#191970" stroke="#191970" points="412.5396,-195.0316 402.1572,-197.1427 411.5899,-201.9669 412.5396,-195.0316"/>
</g>
<!-- Node27 -->
<g id="node28" class="node">
<title>Node27</title>
<polygon fill="#ffffff" stroke="#bfbfbf" points="819.5237,-179.5 819.5237,-198.5 864.5237,-198.5 864.5237,-179.5 819.5237,-179.5"/>
<text text-anchor="middle" x="842.0237" y="-186.5" font-family="Helvetica,sans-Serif" font-size="10.00" fill="#000000">iosfwd</text>
</g>
<!-- Node26&#45;&gt;Node27 -->
<g id="edge37" class="edge">
<title>Node26&#45;&gt;Node27</title>
<path fill="none" stroke="#191970" d="M868.18,-240.8906C863.7472,-232.0965 857.0606,-218.8312 851.5579,-207.9145"/>
<polygon fill="#191970" stroke="#191970" points="854.5624,-206.0992 846.9358,-198.7449 848.3116,-209.25 854.5624,-206.0992"/>
</g>
<!-- Node28 -->
<g id="node29" class="node">
<title>Node28</title>
<polygon fill="#ffffff" stroke="#bfbfbf" points="882.5237,-179.5 882.5237,-198.5 923.5237,-198.5 923.5237,-179.5 882.5237,-179.5"/>
<text text-anchor="middle" x="903.0237" y="-186.5" font-family="Helvetica,sans-Serif" font-size="10.00" fill="#000000">mpi.h</text>
</g>
<!-- Node26&#45;&gt;Node28 -->
<g id="edge42" class="edge">
<title>Node26&#45;&gt;Node28</title>
<path fill="none" stroke="#191970" d="M877.7112,-240.8906C882.001,-232.0965 888.4719,-218.8312 893.7971,-207.9145"/>
<polygon fill="#191970" stroke="#191970" points="897.0315,-209.2671 898.2701,-198.7449 890.7401,-206.1981 897.0315,-209.2671"/>
</g>
<!-- Node29&#45;&gt;Node2 -->
<g id="edge44" class="edge">
<title>Node29&#45;&gt;Node2</title>
<path fill="none" stroke="#191970" d="M1363.6688,-123.327C1375.4418,-107.2098 1394.8757,-74.7803 1377.0237,-56 1346.1937,-23.5668 656.5849,-12.4801 501.0132,-10.3874"/>
<polygon fill="#191970" stroke="#191970" points="500.7967,-6.8844 490.7514,-10.2521 500.7043,-13.8838 500.7967,-6.8844"/>
</g>
<!-- Node30&#45;&gt;Node2 -->
<g id="edge46" class="edge">
<title>Node30&#45;&gt;Node2</title>
<path fill="none" stroke="#191970" d="M1402.4778,-302.3183C1425.417,-283.2894 1472.0237,-238.5325 1472.0237,-189 1472.0237,-189 1472.0237,-189 1472.0237,-133 1472.0237,-97.154 1476.3895,-77.9162 1448.0237,-56 1409.6869,-26.38 663.8039,-13.0318 501.1642,-10.4672"/>
<polygon fill="#191970" stroke="#191970" points="500.946,-6.9634 490.8927,-10.3074 500.837,-13.9626 500.946,-6.9634"/>
</g>
</g>
</svg>
        <g id="navigator" transform="translate(0 0)" fill="#404254">
                <rect fill="#f2f5e9" fill-opacity="0.5" stroke="#606060" stroke-width=".5" x="0" y="0" width="60" height="60"/>
                <use id="zoomplus" xlink:href="#zoomPlus" x="17" y="9" onmousedown="handleZoom(evt,'in')"/>
                <use id="zoomminus" xlink:href="#zoomMin" x="42" y="9" onmousedown="handleZoom(evt,'out')"/>
                <use id="reset" xlink:href="#resetDef" x="30" y="36" onmousedown="handleReset()"/>
                <g id="arrowUp" xlink:href="#dirArrow" transform="translate(30 24)" onmousedown="handlePan(0,-1)">
                  <use xlink:href="#rim" fill="#404040">
                        <set attributeName="fill" to="#808080" begin="arrowUp.mouseover" end="arrowUp.mouseout"/>
                  </use>
                  <path fill="none" stroke="white" stroke-width="1.5" d="M0,-3.0v7 M-2.5,-0.5L0,-3.0L2.5,-0.5"/>
                </g>
                <g id="arrowRight" xlink:href="#dirArrow" transform="rotate(90) translate(36 -43)" onmousedown="handlePan(1,0)">
                  <use xlink:href="#rim" fill="#404040">
                        <set attributeName="fill" to="#808080" begin="arrowRight.mouseover" end="arrowRight.mouseout"/>
                  </use>
                  <path fill="none" stroke="white" stroke-width="1.5" d="M0,-3.0v7 M-2.5,-0.5L0,-3.0L2.5,-0.5"/>
                </g>
                <g id="arrowDown" xlink:href="#dirArrow" transform="rotate(180) translate(-30 -48)" onmousedown="handlePan(0,1)">
                  <use xlink:href="#rim" fill="#404040">
                        <set attributeName="fill" to="#808080" begin="arrowDown.mouseover" end="arrowDown.mouseout"/>
                  </use>
                  <path fill="none" stroke="white" stroke-width="1.5" d="M0,-3.0v7 M-2.5,-0.5L0,-3.0L2.5,-0.5"/>
                </g>
                <g id="arrowLeft" xlink:href="#dirArrow" transform="rotate(270) translate(-36 17)" onmousedown="handlePan(-1,0)">
                  <use xlink:href="#rim" fill="#404040">
                        <set attributeName="fill" to="#808080" begin="arrowLeft.mouseover" end="arrowLeft.mouseout"/>
                  </use>
                  <path fill="none" stroke="white" stroke-width="1.5" d="M0,-3.0v7 M-2.5,-0.5L0,-3.0L2.5,-0.5"/>
                </g>
        </g>
        <svg viewBox="0 0 15 15" width="100%" height="30px" preserveAspectRatio="xMaxYMin meet">
         <g id="arrow_out" transform="scale(0.3 0.3)">
          <a xlink:href="DummyCouplingScheme_8cpp__incl_org.svg" target="_base">
           <rect id="button" ry="5" rx="5" y="6" x="6" height="38" width="38"
                fill="#f2f5e9" fill-opacity="0.5" stroke="#606060" stroke-width="1.0"/>
           <path id="arrow"
             d="M 11.500037,31.436501 C 11.940474,20.09759 22.043105,11.32322 32.158766,21.979434 L 37.068811,17.246167 C 37.068811,17.246167 37.088388,32 37.088388,32 L 22.160133,31.978069 C 22.160133,31.978069 26.997745,27.140456 26.997745,27.140456 C 18.528582,18.264221 13.291696,25.230495 11.500037,31.436501 z"
             style="fill:#404040;"/>
          </a>
         </g>
        </svg>
</svg>
