<?xml version="1.0" encoding="UTF-8" standalone="no"?>
<!DOCTYPE svg PUBLIC "-//W3C//DTD SVG 1.1//EN"
 "http://www.w3.org/Graphics/SVG/1.1/DTD/svg11.dtd">
<!-- Generated by graphviz version 2.40.1 (20161225.0304)
 -->
<!-- Title: src/cplscheme/tests/DummyCouplingScheme.cpp Pages: 1 -->
<!--zoomable 453 -->
<svg id="main" version="1.1" xmlns="http://www.w3.org/2000/svg" xmlns:xlink="http://www.w3.org/1999/xlink" xml:space="preserve" onload="init(evt)">
<style type="text/css"><![CDATA[
.edge:hover path { stroke: red; }
.edge:hover polygon { stroke: red; fill: red; }
]]></style>
<script type="text/javascript"><![CDATA[
var edges = document.getElementsByTagName('g');
if (edges && edges.length) {
  for (var i=0;i<edges.length;i++) {
    if (edges[i].id.substr(0,4)=='edge') {
      edges[i].setAttribute('class','edge');
    }
  }
}
]]></script>
        <defs>
                <circle id="rim" cx="0" cy="0" r="7"/>
                <circle id="rim2" cx="0" cy="0" r="3.5"/>
                <g id="zoomPlus">
                        <use xlink:href="#rim" fill="#404040">
                                <set attributeName="fill" to="#808080" begin="zoomplus.mouseover" end="zoomplus.mouseout"/>
                        </use>
                        <path d="M-4,0h8M0,-4v8" fill="none" stroke="white" stroke-width="1.5" pointer-events="none"/>
                </g>
                <g id="zoomMin">
                        <use xlink:href="#rim" fill="#404040">
                                <set attributeName="fill" to="#808080" begin="zoomminus.mouseover" end="zoomminus.mouseout"/>
                        </use>
                        <path d="M-4,0h8" fill="none" stroke="white" stroke-width="1.5" pointer-events="none"/>
                </g>
                <g id="dirArrow">
                        <path fill="none" stroke="white" stroke-width="1.5" d="M0,-3.0v7 M-2.5,-0.5L0,-3.0L2.5,-0.5"/>
                </g>
               <g id="resetDef">
                       <use xlink:href="#rim2" fill="#404040">
                               <set attributeName="fill" to="#808080" begin="reset.mouseover" end="reset.mouseout"/>
                       </use>
               </g>
        </defs>

<script type="text/javascript">
var viewWidth = 1843;
var viewHeight = 453;
var sectionId = 'dynsection-0';
</script>
<script xlink:href="svgpan.js"/>
<svg id="graph" class="graph">
<g id="viewport">
<title>src/cplscheme/tests/DummyCouplingScheme.cpp</title>
<polygon fill="#ffffff" stroke="transparent" points="-4,4 -4,-449 1838.5,-449 1838.5,4 -4,4"/>
<!-- Node0 -->
<g id="node1" class="node">
<title>Node0</title>
<polygon fill="#bfbfbf" stroke="#000000" points="1630.5,-414.5 1630.5,-444.5 1791.5,-444.5 1791.5,-414.5 1630.5,-414.5"/>
<text text-anchor="start" x="1638.5" y="-432.5" font-family="Helvetica,sans-Serif" font-size="10.00" fill="#000000">src/cplscheme/tests</text>
<text text-anchor="middle" x="1711" y="-421.5" font-family="Helvetica,sans-Serif" font-size="10.00" fill="#000000">/DummyCouplingScheme.cpp</text>
</g>
<!-- Node1 -->
<g id="node2" class="node">
<title>Node1</title>
<g id="a_node2"><a xlink:href="DummyCouplingScheme_8hpp.html" target="_top" xlink:title="DummyCouplingScheme.hpp">
<polygon fill="#ffffff" stroke="#000000" points="622,-358.5 622,-377.5 780,-377.5 780,-358.5 622,-358.5"/>
<text text-anchor="middle" x="701" y="-365.5" font-family="Helvetica,sans-Serif" font-size="10.00" fill="#000000">DummyCouplingScheme.hpp</text>
</a>
</g>
</g>
<!-- Node0&#45;&gt;Node1 -->
<g id="edge1" class="edge">
<title>Node0&#45;&gt;Node1</title>
<path fill="none" stroke="#191970" d="M1630.4792,-424.597C1444.3037,-413.2606 985.1427,-385.3018 790.5096,-373.4503"/>
<polygon fill="#191970" stroke="#191970" points="790.5135,-369.9442 780.3192,-372.8298 790.088,-376.9312 790.5135,-369.9442"/>
</g>
<!-- Node9 -->
<g id="node10" class="node">
<title>Node9</title>
<g id="a_node10"><a xlink:href="LogMacros_8hpp.html" target="_top" xlink:title="LogMacros.hpp">
<polygon fill="#ffffff" stroke="#000000" points="904.5,-123.5 904.5,-142.5 993.5,-142.5 993.5,-123.5 904.5,-123.5"/>
<text text-anchor="middle" x="949" y="-130.5" font-family="Helvetica,sans-Serif" font-size="10.00" fill="#000000">LogMacros.hpp</text>
</a>
</g>
</g>
<!-- Node0&#45;&gt;Node9 -->
<g id="edge48" class="edge">
<title>Node0&#45;&gt;Node9</title>
<path fill="none" stroke="#191970" d="M1711.5293,-414.2289C1711.9076,-377.1301 1707.2656,-281.8734 1653,-235 1603.8936,-192.583 1160.9161,-151.0642 1003.8863,-137.5582"/>
<polygon fill="#191970" stroke="#191970" points="1003.7851,-134.0368 993.5232,-136.6719 1003.1886,-141.0114 1003.7851,-134.0368"/>
</g>
<!-- Node29 -->
<g id="node30" class="node">
<title>Node29</title>
<g id="a_node30"><a xlink:href="cplscheme_2Constants_8hpp.html" target="_top" xlink:title="../Constants.hpp">
<polygon fill="#ffffff" stroke="#000000" points="1739.5,-302.5 1739.5,-321.5 1834.5,-321.5 1834.5,-302.5 1739.5,-302.5"/>
<text text-anchor="middle" x="1787" y="-309.5" font-family="Helvetica,sans-Serif" font-size="10.00" fill="#000000">../Constants.hpp</text>
</a>
</g>
</g>
<!-- Node0&#45;&gt;Node29 -->
<g id="edge46" class="edge">
<title>Node0&#45;&gt;Node29</title>
<path fill="none" stroke="#191970" d="M1720.9357,-414.1389C1734.9396,-392.4881 1760.4327,-353.0745 1775.3235,-330.0525"/>
<polygon fill="#191970" stroke="#191970" points="1778.3246,-331.857 1780.8168,-321.5595 1772.4469,-328.0553 1778.3246,-331.857"/>
</g>
<!-- Node2 -->
<g id="node3" class="node">
<title>Node2</title>
<polygon fill="#ffffff" stroke="#bfbfbf" points="994,-.5 994,-19.5 1038,-19.5 1038,-.5 994,-.5"/>
<text text-anchor="middle" x="1016" y="-7.5" font-family="Helvetica,sans-Serif" font-size="10.00" fill="#000000">string</text>
</g>
<!-- Node1&#45;&gt;Node2 -->
<g id="edge2" class="edge">
<title>Node1&#45;&gt;Node2</title>
<path fill="none" stroke="#191970" d="M780.1307,-366.7047C1011.9023,-361.8701 1673,-340.2168 1673,-250.5 1673,-250.5 1673,-250.5 1673,-133 1673,-94.8373 1666.6414,-77.3358 1635,-56 1586.1062,-23.031 1168.2655,-12.8112 1048.1631,-10.5412"/>
<polygon fill="#191970" stroke="#191970" points="1048.1832,-7.041 1038.1206,-10.3569 1048.0547,-14.0399 1048.1832,-7.041"/>
</g>
<!-- Node3 -->
<g id="node4" class="node">
<title>Node3</title>
<polygon fill="#ffffff" stroke="#bfbfbf" points="241.5,-179.5 241.5,-198.5 288.5,-198.5 288.5,-179.5 241.5,-179.5"/>
<text text-anchor="middle" x="265" y="-186.5" font-family="Helvetica,sans-Serif" font-size="10.00" fill="#000000">vector</text>
</g>
<!-- Node1&#45;&gt;Node3 -->
<g id="edge3" class="edge">
<title>Node1&#45;&gt;Node3</title>
<path fill="none" stroke="#191970" d="M651.1625,-358.4761C614.4912,-350.7014 563.7892,-338.3348 521,-322 431.6666,-287.897 333.195,-230.6875 288.9017,-203.8041"/>
<polygon fill="#191970" stroke="#191970" points="290.6535,-200.7729 280.2952,-198.547 287.0046,-206.7466 290.6535,-200.7729"/>
</g>
<!-- Node4 -->
<g id="node5" class="node">
<title>Node4</title>
<g id="a_node5"><a xlink:href="CouplingScheme_8hpp.html" target="_top" xlink:title="../CouplingScheme.hpp">
<polygon fill="#ffffff" stroke="#000000" points="95,-241 95,-260 223,-260 223,-241 95,-241"/>
<text text-anchor="middle" x="159" y="-248" font-family="Helvetica,sans-Serif" font-size="10.00" fill="#000000">../CouplingScheme.hpp</text>
</a>
</g>
</g>
<!-- Node1&#45;&gt;Node4 -->
<g id="edge4" class="edge">
<title>Node1&#45;&gt;Node4</title>
<path fill="none" stroke="#191970" d="M621.9898,-365.1578C511.3385,-360.2899 316.4215,-348.2264 251,-322 220.8262,-309.9038 192.2813,-284.8186 175.2108,-267.8187"/>
<polygon fill="#191970" stroke="#191970" points="177.2831,-264.9307 167.7955,-260.2151 172.2717,-269.818 177.2831,-264.9307"/>
</g>
<!-- Node8 -->
<g id="node9" class="node">
<title>Node8</title>
<g id="a_node9"><a xlink:href="Logger_8hpp.html" target="_top" xlink:title="logging/Logger.hpp">
<polygon fill="#ffffff" stroke="#000000" points="383.5,-179.5 383.5,-198.5 492.5,-198.5 492.5,-179.5 383.5,-179.5"/>
<text text-anchor="middle" x="438" y="-186.5" font-family="Helvetica,sans-Serif" font-size="10.00" fill="#000000">logging/Logger.hpp</text>
</a>
</g>
</g>
<!-- Node1&#45;&gt;Node8 -->
<g id="edge10" class="edge">
<title>Node1&#45;&gt;Node8</title>
<path fill="none" stroke="#191970" d="M658.9116,-358.3919C609.3577,-345.1613 527.209,-316.9716 475,-266 458.7209,-250.1067 448.666,-225.613 443.2212,-208.5325"/>
<polygon fill="#191970" stroke="#191970" points="446.4641,-207.1533 440.2898,-198.5435 439.7474,-209.1245 446.4641,-207.1533"/>
</g>
<!-- Node20 -->
<g id="node21" class="node">
<title>Node20</title>
<g id="a_node21"><a xlink:href="assertion_8hpp.html" target="_top" xlink:title="utils/assertion.hpp">
<polygon fill="#ffffff" stroke="#000000" points="1063.5,-302.5 1063.5,-321.5 1170.5,-321.5 1170.5,-302.5 1063.5,-302.5"/>
<text text-anchor="middle" x="1117" y="-309.5" font-family="Helvetica,sans-Serif" font-size="10.00" fill="#000000">utils/assertion.hpp</text>
</a>
</g>
</g>
<!-- Node1&#45;&gt;Node20 -->
<g id="edge27" class="edge">
<title>Node1&#45;&gt;Node20</title>
<path fill="none" stroke="#191970" d="M772.0403,-358.4369C850.9424,-347.8154 977.1772,-330.8223 1053.0838,-320.6041"/>
<polygon fill="#191970" stroke="#191970" points="1054.0067,-324.0115 1063.4503,-319.2086 1053.0727,-317.0741 1054.0067,-324.0115"/>
</g>
<!-- Node4&#45;&gt;Node2 -->
<g id="edge6" class="edge">
<title>Node4&#45;&gt;Node2</title>
<path fill="none" stroke="#191970" d="M135.1228,-240.9085C107.8318,-228.4465 68.8887,-205.1642 85,-179 148.6777,-75.5892 211.8556,-88.0287 329,-56 392.5128,-38.6348 855.5827,-17.0869 983.4,-11.419"/>
<polygon fill="#191970" stroke="#191970" points="983.8674,-14.9019 993.7034,-10.9644 983.5588,-7.9087 983.8674,-14.9019"/>
</g>
<!-- Node4&#45;&gt;Node3 -->
<g id="edge7" class="edge">
<title>Node4&#45;&gt;Node3</title>
<path fill="none" stroke="#191970" d="M175.5625,-240.8906C192.7537,-230.9165 219.8582,-215.1908 239.7266,-203.6633"/>
<polygon fill="#191970" stroke="#191970" points="241.6606,-206.5877 248.5538,-198.5419 238.1477,-200.533 241.6606,-206.5877"/>
</g>
<!-- Node5 -->
<g id="node6" class="node">
<title>Node5</title>
<polygon fill="#ffffff" stroke="#bfbfbf" points="0,-179.5 0,-198.5 38,-198.5 38,-179.5 0,-179.5"/>
<text text-anchor="middle" x="19" y="-186.5" font-family="Helvetica,sans-Serif" font-size="10.00" fill="#000000">map</text>
</g>
<!-- Node4&#45;&gt;Node5 -->
<g id="edge5" class="edge">
<title>Node4&#45;&gt;Node5</title>
<path fill="none" stroke="#191970" d="M137.125,-240.8906C112.9849,-230.2862 74.0448,-213.1804 47.5256,-201.5309"/>
<polygon fill="#191970" stroke="#191970" points="48.59,-198.1757 38.0267,-197.3582 45.7746,-204.5846 48.59,-198.1757"/>
</g>
<!-- Node6 -->
<g id="node7" class="node">
<title>Node6</title>
<g id="a_node7"><a xlink:href="com_2SharedPointer_8hpp.html" target="_top" xlink:title="com/SharedPointer.hpp">
<polygon fill="#ffffff" stroke="#000000" points="94.5,-179.5 94.5,-198.5 223.5,-198.5 223.5,-179.5 94.5,-179.5"/>
<text text-anchor="middle" x="159" y="-186.5" font-family="Helvetica,sans-Serif" font-size="10.00" fill="#000000">com/SharedPointer.hpp</text>
</a>
</g>
</g>
<!-- Node4&#45;&gt;Node6 -->
<g id="edge8" class="edge">
<title>Node4&#45;&gt;Node6</title>
<path fill="none" stroke="#191970" d="M159,-240.8906C159,-232.3657 159,-219.6392 159,-208.9235"/>
<polygon fill="#191970" stroke="#191970" points="162.5001,-208.7448 159,-198.7449 155.5001,-208.7449 162.5001,-208.7448"/>
</g>
<!-- Node7 -->
<g id="node8" class="node">
<title>Node7</title>
<polygon fill="#ffffff" stroke="#bfbfbf" points="252,-123.5 252,-142.5 310,-142.5 310,-123.5 252,-123.5"/>
<text text-anchor="middle" x="281" y="-130.5" font-family="Helvetica,sans-Serif" font-size="10.00" fill="#000000">memory</text>
</g>
<!-- Node6&#45;&gt;Node7 -->
<g id="edge9" class="edge">
<title>Node6&#45;&gt;Node7</title>
<path fill="none" stroke="#191970" d="M179.9725,-179.3733C199.5567,-170.3838 228.9961,-156.8706 251.051,-146.7471"/>
<polygon fill="#191970" stroke="#191970" points="252.6729,-149.8538 260.3011,-142.5011 249.7527,-143.4919 252.6729,-149.8538"/>
</g>
<!-- Node8&#45;&gt;Node2 -->
<g id="edge12" class="edge">
<title>Node8&#45;&gt;Node2</title>
<path fill="none" stroke="#191970" d="M421.8798,-179.3348C385.6433,-156.4807 303.8757,-97.8898 343,-56 365.1108,-32.3264 851.8225,-15.21 983.439,-11.0025"/>
<polygon fill="#191970" stroke="#191970" points="983.7948,-14.4931 993.679,-10.6784 983.5733,-7.4966 983.7948,-14.4931"/>
</g>
<!-- Node8&#45;&gt;Node7 -->
<g id="edge11" class="edge">
<title>Node8&#45;&gt;Node7</title>
<path fill="none" stroke="#191970" d="M411.0107,-179.3733C385.1301,-170.1419 345.8752,-156.1402 317.2711,-145.9375"/>
<polygon fill="#191970" stroke="#191970" points="318.2317,-142.5642 307.6371,-142.5011 315.88,-149.1573 318.2317,-142.5642"/>
</g>
<!-- Node8&#45;&gt;Node9 -->
<g id="edge13" class="edge">
<title>Node8&#45;&gt;Node9</title>
<path fill="none" stroke="#191970" d="M492.686,-183.007C590.9101,-172.2427 796.1017,-149.756 894.3209,-138.9922"/>
<polygon fill="#191970" stroke="#191970" points="894.778,-142.4632 904.3372,-137.8946 894.0154,-135.5048 894.778,-142.4632"/>
</g>
<!-- Node9&#45;&gt;Node2 -->
<g id="edge20" class="edge">
<title>Node9&#45;&gt;Node2</title>
<path fill="none" stroke="#191970" d="M993.6919,-125.0627C1061.5113,-112.9157 1182.9294,-90.7239 1186,-87 1225.9595,-38.5389 1107.9119,-19.3179 1048.2494,-12.842"/>
<polygon fill="#191970" stroke="#191970" points="1048.4859,-9.348 1038.1811,-11.8098 1047.7719,-16.3115 1048.4859,-9.348"/>
</g>
<!-- Node10 -->
<g id="node11" class="node">
<title>Node10</title>
<polygon fill="#ffffff" stroke="#bfbfbf" points="509,-56.5 509,-86.5 619,-86.5 619,-56.5 509,-56.5"/>
<text text-anchor="start" x="517" y="-74.5" font-family="Helvetica,sans-Serif" font-size="10.00" fill="#000000">boost/preprocessor</text>
<text text-anchor="middle" x="564" y="-63.5" font-family="Helvetica,sans-Serif" font-size="10.00" fill="#000000">/control/if.hpp</text>
</g>
<!-- Node9&#45;&gt;Node10 -->
<g id="edge14" class="edge">
<title>Node9&#45;&gt;Node10</title>
<path fill="none" stroke="#191970" d="M904.38,-127.9687C844.1185,-120.8741 733.2024,-106.7612 629.1331,-87.1124"/>
<polygon fill="#191970" stroke="#191970" points="629.5643,-83.6315 619.0852,-85.1936 628.2512,-90.5073 629.5643,-83.6315"/>
</g>
<!-- Node11 -->
<g id="node12" class="node">
<title>Node11</title>
<polygon fill="#ffffff" stroke="#bfbfbf" points="907,-56.5 907,-86.5 1023,-86.5 1023,-56.5 907,-56.5"/>
<text text-anchor="start" x="915" y="-74.5" font-family="Helvetica,sans-Serif" font-size="10.00" fill="#000000">boost/preprocessor</text>
<text text-anchor="middle" x="965" y="-63.5" font-family="Helvetica,sans-Serif" font-size="10.00" fill="#000000">/facilities/empty.hpp</text>
</g>
<!-- Node9&#45;&gt;Node11 -->
<g id="edge15" class="edge">
<title>Node9&#45;&gt;Node11</title>
<path fill="none" stroke="#191970" d="M951.5,-123.3906C953.3847,-116.1463 956.0588,-105.8679 958.5304,-96.3676"/>
<polygon fill="#191970" stroke="#191970" points="961.9553,-97.1037 961.086,-86.5446 955.1808,-95.3412 961.9553,-97.1037"/>
</g>
<!-- Node12 -->
<g id="node13" class="node">
<title>Node12</title>
<polygon fill="#ffffff" stroke="#bfbfbf" points="1233.5,-56.5 1233.5,-86.5 1344.5,-86.5 1344.5,-56.5 1233.5,-56.5"/>
<text text-anchor="start" x="1241.5" y="-74.5" font-family="Helvetica,sans-Serif" font-size="10.00" fill="#000000">boost/preprocessor</text>
<text text-anchor="middle" x="1289" y="-63.5" font-family="Helvetica,sans-Serif" font-size="10.00" fill="#000000">/seq/for_each_i.hpp</text>
</g>
<!-- Node9&#45;&gt;Node12 -->
<g id="edge16" class="edge">
<title>Node9&#45;&gt;Node12</title>
<path fill="none" stroke="#191970" d="M993.6691,-125.4185C1068.9487,-112.6376 1213.4877,-88.0792 1219,-87 1220.4506,-86.716 1221.9172,-86.425 1223.3952,-86.1283"/>
<polygon fill="#191970" stroke="#191970" points="1224.1764,-89.541 1233.2673,-84.0998 1222.7675,-82.6842 1224.1764,-89.541"/>
</g>
<!-- Node13 -->
<g id="node14" class="node">
<title>Node13</title>
<polygon fill="#ffffff" stroke="#bfbfbf" points="1363,-56.5 1363,-86.5 1473,-86.5 1473,-56.5 1363,-56.5"/>
<text text-anchor="start" x="1371" y="-74.5" font-family="Helvetica,sans-Serif" font-size="10.00" fill="#000000">boost/preprocessor</text>
<text text-anchor="middle" x="1418" y="-63.5" font-family="Helvetica,sans-Serif" font-size="10.00" fill="#000000">/stringize.hpp</text>
</g>
<!-- Node9&#45;&gt;Node13 -->
<g id="edge17" class="edge">
<title>Node9&#45;&gt;Node13</title>
<path fill="none" stroke="#191970" d="M993.7901,-129.6778C1066.7647,-123.878 1215.9852,-110.4062 1352.5488,-86.9295"/>
<polygon fill="#191970" stroke="#191970" points="1353.525,-90.3122 1362.7761,-85.1481 1352.3238,-83.416 1353.525,-90.3122"/>
</g>
<!-- Node14 -->
<g id="node15" class="node">
<title>Node14</title>
<polygon fill="#ffffff" stroke="#bfbfbf" points="1491.5,-56.5 1491.5,-86.5 1606.5,-86.5 1606.5,-56.5 1491.5,-56.5"/>
<text text-anchor="start" x="1499.5" y="-74.5" font-family="Helvetica,sans-Serif" font-size="10.00" fill="#000000">boost/preprocessor</text>
<text text-anchor="middle" x="1549" y="-63.5" font-family="Helvetica,sans-Serif" font-size="10.00" fill="#000000">/variadic/to_seq.hpp</text>
</g>
<!-- Node9&#45;&gt;Node14 -->
<g id="edge18" class="edge">
<title>Node9&#45;&gt;Node14</title>
<path fill="none" stroke="#191970" d="M993.6441,-129.9637C1100.684,-122.5564 1370.6112,-103.0907 1481.1672,-86.9325"/>
<polygon fill="#191970" stroke="#191970" points="1481.9992,-90.3462 1491.3578,-85.3796 1480.9446,-83.4261 1481.9992,-90.3462"/>
</g>
<!-- Node15 -->
<g id="node16" class="node">
<title>Node15</title>
<polygon fill="#ffffff" stroke="#bfbfbf" points="1041,-62 1041,-81 1177,-81 1177,-62 1041,-62"/>
<text text-anchor="middle" x="1109" y="-69" font-family="Helvetica,sans-Serif" font-size="10.00" fill="#000000">boost/vmd/is_empty.hpp</text>
</g>
<!-- Node9&#45;&gt;Node15 -->
<g id="edge19" class="edge">
<title>Node9&#45;&gt;Node15</title>
<path fill="none" stroke="#191970" d="M974,-123.3906C1001.0058,-113.0103 1044.2185,-96.4004 1074.4594,-84.7766"/>
<polygon fill="#191970" stroke="#191970" points="1076.0971,-87.8968 1084.1756,-81.0419 1073.5856,-81.3628 1076.0971,-87.8968"/>
</g>
<!-- Node16 -->
<g id="node17" class="node">
<title>Node16</title>
<g id="a_node17"><a xlink:href="Tracer_8hpp.html" target="_top" xlink:title="logging/Tracer.hpp">
<polygon fill="#ffffff" stroke="#000000" points="385.5,-62 385.5,-81 490.5,-81 490.5,-62 385.5,-62"/>
<text text-anchor="middle" x="438" y="-69" font-family="Helvetica,sans-Serif" font-size="10.00" fill="#000000">logging/Tracer.hpp</text>
</a>
</g>
</g>
<!-- Node9&#45;&gt;Node16 -->
<g id="edge21" class="edge">
<title>Node9&#45;&gt;Node16</title>
<path fill="none" stroke="#191970" d="M904.4183,-130.5495C823.4069,-125.6279 646.8397,-112.7409 500,-87 494.2591,-85.9936 488.2636,-84.7476 482.3598,-83.4027"/>
<polygon fill="#191970" stroke="#191970" points="483.1106,-79.9837 472.5717,-81.0707 481.4883,-86.7931 483.1106,-79.9837"/>
</g>
<!-- Node17 -->
<g id="node18" class="node">
<title>Node17</title>
<polygon fill="#ffffff" stroke="#bfbfbf" points="637,-62 637,-81 781,-81 781,-62 637,-62"/>
<text text-anchor="middle" x="709" y="-69" font-family="Helvetica,sans-Serif" font-size="10.00" fill="#000000">prettyprint/prettyprint.hpp</text>
</g>
<!-- Node9&#45;&gt;Node17 -->
<g id="edge23" class="edge">
<title>Node9&#45;&gt;Node17</title>
<path fill="none" stroke="#191970" d="M911.7633,-123.4581C869.9006,-112.7308 801.8372,-95.2895 756.2585,-83.61"/>
<polygon fill="#191970" stroke="#191970" points="756.8799,-80.1562 746.324,-81.0643 755.1422,-86.9371 756.8799,-80.1562"/>
</g>
<!-- Node18 -->
<g id="node19" class="node">
<title>Node18</title>
<g id="a_node19"><a xlink:href="String_8hpp.html" target="_top" xlink:title="utils/String.hpp">
<polygon fill="#ffffff" stroke="#000000" points="799,-62 799,-81 889,-81 889,-62 799,-62"/>
<text text-anchor="middle" x="844" y="-69" font-family="Helvetica,sans-Serif" font-size="10.00" fill="#000000">utils/String.hpp</text>
</a>
</g>
</g>
<!-- Node9&#45;&gt;Node18 -->
<g id="edge24" class="edge">
<title>Node9&#45;&gt;Node18</title>
<path fill="none" stroke="#191970" d="M932.5938,-123.3906C915.5647,-113.4165 888.7159,-97.6908 869.0349,-86.1633"/>
<polygon fill="#191970" stroke="#191970" points="870.6888,-83.0759 860.291,-81.0419 867.151,-89.1161 870.6888,-83.0759"/>
</g>
<!-- Node16&#45;&gt;Node8 -->
<g id="edge22" class="edge">
<title>Node16&#45;&gt;Node8</title>
<path fill="none" stroke="#191970" d="M438,-81.2484C438,-100.4662 438,-143.5834 438,-169.0662"/>
<polygon fill="#191970" stroke="#191970" points="434.5001,-169.3844 438,-179.3845 441.5001,-169.3845 434.5001,-169.3844"/>
</g>
<!-- Node18&#45;&gt;Node2 -->
<g id="edge26" class="edge">
<title>Node18&#45;&gt;Node2</title>
<path fill="none" stroke="#191970" d="M870.875,-61.8906C901.6143,-50.8996 951.8864,-32.9243 984.4557,-21.2789"/>
<polygon fill="#191970" stroke="#191970" points="985.716,-24.5454 993.9538,-17.8828 983.3592,-17.954 985.716,-24.5454"/>
</g>
<!-- Node19 -->
<g id="node20" class="node">
<title>Node19</title>
<polygon fill="#ffffff" stroke="#bfbfbf" points="644,-.5 644,-19.5 700,-19.5 700,-.5 644,-.5"/>
<text text-anchor="middle" x="672" y="-7.5" font-family="Helvetica,sans-Serif" font-size="10.00" fill="#000000">sstream</text>
</g>
<!-- Node18&#45;&gt;Node19 -->
<g id="edge25" class="edge">
<title>Node18&#45;&gt;Node19</title>
<path fill="none" stroke="#191970" d="M817.125,-61.8906C787.8414,-51.42 740.831,-34.6111 708.2863,-22.9745"/>
<polygon fill="#191970" stroke="#191970" points="709.2809,-19.6131 698.6863,-19.5419 706.9241,-26.2045 709.2809,-19.6131"/>
</g>
<!-- Node20&#45;&gt;Node10 -->
<g id="edge32" class="edge">
<title>Node20&#45;&gt;Node10</title>
<path fill="none" stroke="#191970" d="M1094.9805,-302.4237C1012.4141,-266.5155 720.2234,-139.4416 608.1801,-90.714"/>
<polygon fill="#191970" stroke="#191970" points="609.4183,-87.4358 598.8521,-86.6572 606.6265,-93.855 609.4183,-87.4358"/>
</g>
<!-- Node20&#45;&gt;Node12 -->
<g id="edge34" class="edge">
<title>Node20&#45;&gt;Node12</title>
<path fill="none" stroke="#191970" d="M1107.3508,-302.4346C1099.35,-293.7723 1088.5738,-280.2221 1084,-266 1064.5421,-205.4963 1044.9159,-173.1173 1084,-123 1092.7948,-111.7225 1166.8956,-95.0828 1223.5055,-83.7933"/>
<polygon fill="#191970" stroke="#191970" points="1224.3631,-87.1917 1233.4952,-81.82 1223.0065,-80.3243 1224.3631,-87.1917"/>
</g>
<!-- Node20&#45;&gt;Node13 -->
<g id="edge35" class="edge">
<title>Node20&#45;&gt;Node13</title>
<path fill="none" stroke="#191970" d="M1113.4679,-302.238C1103.0283,-271.4774 1075.8296,-175.5015 1122,-123 1154.5664,-85.9679 1287.513,-95.8426 1352.8646,-86.642"/>
<polygon fill="#191970" stroke="#191970" points="1353.4602,-90.0911 1362.747,-84.9915 1352.307,-83.1867 1353.4602,-90.0911"/>
</g>
<!-- Node20&#45;&gt;Node14 -->
<g id="edge36" class="edge">
<title>Node20&#45;&gt;Node14</title>
<path fill="none" stroke="#191970" d="M1119.6108,-302.4434C1124.2874,-286.7811 1135.3841,-255.358 1154,-235 1221.9659,-160.6735 1257.3278,-160.0043 1351,-123 1374.6703,-113.6493 1433.8863,-98.6291 1481.4342,-87.2171"/>
<polygon fill="#191970" stroke="#191970" points="1482.473,-90.5675 1491.3863,-84.84 1480.8468,-83.759 1482.473,-90.5675"/>
</g>
<!-- Node20&#45;&gt;Node19 -->
<g id="edge30" class="edge">
<title>Node20&#45;&gt;Node19</title>
<path fill="none" stroke="#191970" d="M1063.3925,-310.7858C929.906,-307.342 585.4587,-295.762 475,-266 409.5537,-248.3662 397.6849,-231.123 338,-199 327.2105,-193.193 249.0784,-153.639 243,-143 212.0804,-88.8819 282.1384,-75.6793 329,-56 383.3618,-33.171 555.9797,-18.3085 633.5727,-12.6157"/>
<polygon fill="#191970" stroke="#191970" points="634.1461,-16.0836 643.8685,-11.8734 633.6427,-9.1017 634.1461,-16.0836"/>
</g>
<!-- Node21 -->
<g id="node22" class="node">
<title>Node21</title>
<polygon fill="#ffffff" stroke="#bfbfbf" points="1202,-241 1202,-260 1254,-260 1254,-241 1202,-241"/>
<text text-anchor="middle" x="1228" y="-248" font-family="Helvetica,sans-Serif" font-size="10.00" fill="#000000">cassert</text>
</g>
<!-- Node20&#45;&gt;Node21 -->
<g id="edge28" class="edge">
<title>Node20&#45;&gt;Node21</title>
<path fill="none" stroke="#191970" d="M1134.3438,-302.3906C1152.4273,-292.3713 1180.9859,-276.5483 1201.8165,-265.0071"/>
<polygon fill="#191970" stroke="#191970" points="1203.7271,-267.9498 1210.778,-260.0419 1200.3346,-261.8268 1203.7271,-267.9498"/>
</g>
<!-- Node22 -->
<g id="node23" class="node">
<title>Node22</title>
<polygon fill="#ffffff" stroke="#bfbfbf" points="1272,-241 1272,-260 1332,-260 1332,-241 1272,-241"/>
<text text-anchor="middle" x="1302" y="-248" font-family="Helvetica,sans-Serif" font-size="10.00" fill="#000000">iostream</text>
</g>
<!-- Node20&#45;&gt;Node22 -->
<g id="edge29" class="edge">
<title>Node20&#45;&gt;Node22</title>
<path fill="none" stroke="#191970" d="M1149.6995,-302.4439C1179.4388,-293.5765 1224.4406,-279.7162 1263,-266 1264.9049,-265.3224 1266.8551,-264.6095 1268.8184,-263.8771"/>
<polygon fill="#191970" stroke="#191970" points="1270.5138,-266.9753 1278.5947,-260.1234 1268.0046,-260.4405 1270.5138,-266.9753"/>
</g>
<!-- Node23 -->
<g id="node24" class="node">
<title>Node23</title>
<polygon fill="#ffffff" stroke="#bfbfbf" points="1350.5,-241 1350.5,-260 1497.5,-260 1497.5,-241 1350.5,-241"/>
<text text-anchor="middle" x="1424" y="-248" font-family="Helvetica,sans-Serif" font-size="10.00" fill="#000000">boost/current_function.hpp</text>
</g>
<!-- Node20&#45;&gt;Node23 -->
<g id="edge31" class="edge">
<title>Node20&#45;&gt;Node23</title>
<path fill="none" stroke="#191970" d="M1164.6319,-302.4581C1219.0482,-291.5571 1308.0736,-273.723 1366.3573,-262.0473"/>
<polygon fill="#191970" stroke="#191970" points="1367.3913,-265.4098 1376.5089,-260.0137 1366.0162,-258.5462 1367.3913,-265.4098"/>
</g>
<!-- Node24 -->
<g id="node25" class="node">
<title>Node24</title>
<polygon fill="#ffffff" stroke="#bfbfbf" points="1515.5,-235.5 1515.5,-265.5 1644.5,-265.5 1644.5,-235.5 1515.5,-235.5"/>
<text text-anchor="start" x="1523.5" y="-253.5" font-family="Helvetica,sans-Serif" font-size="10.00" fill="#000000">boost/preprocessor</text>
<text text-anchor="middle" x="1580" y="-242.5" font-family="Helvetica,sans-Serif" font-size="10.00" fill="#000000">/facilities/is_empty.hpp</text>
</g>
<!-- Node20&#45;&gt;Node24 -->
<g id="edge33" class="edge">
<title>Node20&#45;&gt;Node24</title>
<path fill="none" stroke="#191970" d="M1170.6952,-307.1718C1243.9471,-300.2487 1379.4861,-286.2439 1505.2912,-266.0209"/>
<polygon fill="#191970" stroke="#191970" points="1506.1799,-269.4225 1515.4893,-264.3642 1505.0574,-262.5131 1506.1799,-269.4225"/>
</g>
<!-- Node25 -->
<g id="node26" class="node">
<title>Node25</title>
<g id="a_node26"><a xlink:href="Parallel_8hpp.html" target="_top" xlink:title="Parallel.hpp">
<polygon fill="#ffffff" stroke="#000000" points="484,-241 484,-260 558,-260 558,-241 484,-241"/>
<text text-anchor="middle" x="521" y="-248" font-family="Helvetica,sans-Serif" font-size="10.00" fill="#000000">Parallel.hpp</text>
</a>
</g>
</g>
<!-- Node20&#45;&gt;Node25 -->
<g id="edge37" class="edge">
<title>Node20&#45;&gt;Node25</title>
<path fill="none" stroke="#191970" d="M1063.3214,-306.461C947.8711,-294.5479 677.5847,-266.6576 568.1993,-255.3704"/>
<polygon fill="#191970" stroke="#191970" points="568.433,-251.876 558.1265,-254.331 567.7144,-258.839 568.433,-251.876"/>
</g>
<!-- Node28 -->
<g id="node29" class="node">
<title>Node28</title>
<g id="a_node29"><a xlink:href="stacktrace_8hpp.html" target="_top" xlink:title="stacktrace.hpp">
<polygon fill="#ffffff" stroke="#000000" points="1360.5,-123.5 1360.5,-142.5 1449.5,-142.5 1449.5,-123.5 1360.5,-123.5"/>
<text text-anchor="middle" x="1405" y="-130.5" font-family="Helvetica,sans-Serif" font-size="10.00" fill="#000000">stacktrace.hpp</text>
</a>
</g>
</g>
<!-- Node20&#45;&gt;Node28 -->
<g id="edge44" class="edge">
<title>Node20&#45;&gt;Node28</title>
<path fill="none" stroke="#191970" d="M1124.5626,-302.4314C1137.3324,-286.7518 1164.5699,-255.3045 1193,-235 1249.5481,-194.6138 1324.5683,-162.8573 1368.5326,-146.0975"/>
<polygon fill="#191970" stroke="#191970" points="1369.8252,-149.3508 1377.9534,-142.5549 1367.3613,-142.7987 1369.8252,-149.3508"/>
</g>
<!-- Node25&#45;&gt;Node2 -->
<g id="edge40" class="edge">
<title>Node25&#45;&gt;Node2</title>
<path fill="none" stroke="#191970" d="M520.2951,-240.8692C518.8172,-226.2971 514.3337,-198.3015 501,-179 456.6999,-114.8723 322.8994,-113.0542 376,-56 396.902,-33.5417 855.8933,-15.6676 983.4013,-11.1224"/>
<polygon fill="#191970" stroke="#191970" points="983.8162,-14.61 993.6864,-10.7591 983.5691,-7.6144 983.8162,-14.61"/>
</g>
<!-- Node25&#45;&gt;Node3 -->
<g id="edge41" class="edge">
<title>Node25&#45;&gt;Node3</title>
<path fill="none" stroke="#191970" d="M483.7754,-241.5574C433.9065,-229.5771 346.1634,-208.4982 298.351,-197.0121"/>
<polygon fill="#191970" stroke="#191970" points="299.0429,-193.5788 288.5019,-194.646 297.4077,-200.3851 299.0429,-193.5788"/>
</g>
<!-- Node25&#45;&gt;Node7 -->
<g id="edge39" class="edge">
<title>Node25&#45;&gt;Node7</title>
<path fill="none" stroke="#191970" d="M485.1005,-240.9912C454.6037,-232.2022 410.1534,-217.6881 374,-199 346.7939,-184.9369 318.5105,-163.7714 300.3851,-149.2213"/>
<polygon fill="#191970" stroke="#191970" points="302.314,-146.278 292.3524,-142.6701 297.8898,-151.7027 302.314,-146.278"/>
</g>
<!-- Node25&#45;&gt;Node8 -->
<g id="edge42" class="edge">
<title>Node25&#45;&gt;Node8</title>
<path fill="none" stroke="#191970" d="M508.0313,-240.8906C494.9966,-231.2324 474.6836,-216.1812 459.2845,-204.771"/>
<polygon fill="#191970" stroke="#191970" points="460.9961,-201.6832 450.8777,-198.5419 456.8287,-207.3075 460.9961,-201.6832"/>
</g>
<!-- Node26 -->
<g id="node27" class="node">
<title>Node26</title>
<polygon fill="#ffffff" stroke="#bfbfbf" points="549.5,-179.5 549.5,-198.5 598.5,-198.5 598.5,-179.5 549.5,-179.5"/>
<text text-anchor="middle" x="574" y="-186.5" font-family="Helvetica,sans-Serif" font-size="10.00" fill="#000000">iosfwd</text>
</g>
<!-- Node25&#45;&gt;Node26 -->
<g id="edge38" class="edge">
<title>Node25&#45;&gt;Node26</title>
<path fill="none" stroke="#191970" d="M529.2813,-240.8906C537.1693,-231.7376 549.2314,-217.7409 558.8412,-206.59"/>
<polygon fill="#191970" stroke="#191970" points="561.7251,-208.6049 565.602,-198.7449 556.4225,-204.0352 561.7251,-208.6049"/>
</g>
<!-- Node27 -->
<g id="node28" class="node">
<title>Node27</title>
<polygon fill="#ffffff" stroke="#bfbfbf" points="617,-179.5 617,-198.5 661,-198.5 661,-179.5 617,-179.5"/>
<text text-anchor="middle" x="639" y="-186.5" font-family="Helvetica,sans-Serif" font-size="10.00" fill="#000000">mpi.h</text>
</g>
<!-- Node25&#45;&gt;Node27 -->
<g id="edge43" class="edge">
<title>Node25&#45;&gt;Node27</title>
<path fill="none" stroke="#191970" d="M539.4375,-240.8906C558.8347,-230.7811 589.569,-214.7628 611.7617,-203.1962"/>
<polygon fill="#191970" stroke="#191970" points="613.4418,-206.2675 620.692,-198.5419 610.2064,-200.06 613.4418,-206.2675"/>
</g>
<!-- Node28&#45;&gt;Node2 -->
<g id="edge45" class="edge">
<title>Node28&#45;&gt;Node2</title>
<path fill="none" stroke="#191970" d="M1449.674,-131.0789C1525.1733,-126.3263 1665.1336,-110.1312 1615,-56 1595.587,-35.039 1170.4993,-16.2574 1048.4774,-11.2829"/>
<polygon fill="#191970" stroke="#191970" points="1048.41,-7.7774 1038.2768,-10.8706 1048.1272,-14.7717 1048.41,-7.7774"/>
</g>
<!-- Node29&#45;&gt;Node2 -->
<g id="edge47" class="edge">
<title>Node29&#45;&gt;Node2</title>
<path fill="none" stroke="#191970" d="M1784.4376,-302.1946C1779.2514,-281.4585 1768,-231.5666 1768,-189 1768,-189 1768,-189 1768,-133 1768,-83.3295 1732.469,-75.9933 1687,-56 1628.188,-30.1395 1174.5628,-14.7454 1048.4411,-10.9351"/>
<polygon fill="#191970" stroke="#191970" points="1048.3658,-7.4314 1038.2659,-10.6315 1048.157,-14.4283 1048.3658,-7.4314"/>
</g>
</g>
</svg>
        <g id="navigator" transform="translate(0 0)" fill="#404254">
                <rect fill="#f2f5e9" fill-opacity="0.5" stroke="#606060" stroke-width=".5" x="0" y="0" width="60" height="60"/>
                <use id="zoomplus" xlink:href="#zoomPlus" x="17" y="9" onmousedown="handleZoom(evt,'in')"/>
                <use id="zoomminus" xlink:href="#zoomMin" x="42" y="9" onmousedown="handleZoom(evt,'out')"/>
                <use id="reset" xlink:href="#resetDef" x="30" y="36" onmousedown="handleReset()"/>
                <g id="arrowUp" xlink:href="#dirArrow" transform="translate(30 24)" onmousedown="handlePan(0,-1)">
                  <use xlink:href="#rim" fill="#404040">
                        <set attributeName="fill" to="#808080" begin="arrowUp.mouseover" end="arrowUp.mouseout"/>
                  </use>
                  <path fill="none" stroke="white" stroke-width="1.5" d="M0,-3.0v7 M-2.5,-0.5L0,-3.0L2.5,-0.5"/>
                </g>
                <g id="arrowRight" xlink:href="#dirArrow" transform="rotate(90) translate(36 -43)" onmousedown="handlePan(1,0)">
                  <use xlink:href="#rim" fill="#404040">
                        <set attributeName="fill" to="#808080" begin="arrowRight.mouseover" end="arrowRight.mouseout"/>
                  </use>
                  <path fill="none" stroke="white" stroke-width="1.5" d="M0,-3.0v7 M-2.5,-0.5L0,-3.0L2.5,-0.5"/>
                </g>
                <g id="arrowDown" xlink:href="#dirArrow" transform="rotate(180) translate(-30 -48)" onmousedown="handlePan(0,1)">
                  <use xlink:href="#rim" fill="#404040">
                        <set attributeName="fill" to="#808080" begin="arrowDown.mouseover" end="arrowDown.mouseout"/>
                  </use>
                  <path fill="none" stroke="white" stroke-width="1.5" d="M0,-3.0v7 M-2.5,-0.5L0,-3.0L2.5,-0.5"/>
                </g>
                <g id="arrowLeft" xlink:href="#dirArrow" transform="rotate(270) translate(-36 17)" onmousedown="handlePan(-1,0)">
                  <use xlink:href="#rim" fill="#404040">
                        <set attributeName="fill" to="#808080" begin="arrowLeft.mouseover" end="arrowLeft.mouseout"/>
                  </use>
                  <path fill="none" stroke="white" stroke-width="1.5" d="M0,-3.0v7 M-2.5,-0.5L0,-3.0L2.5,-0.5"/>
                </g>
        </g>
        <svg viewBox="0 0 15 15" width="100%" height="30px" preserveAspectRatio="xMaxYMin meet">
         <g id="arrow_out" transform="scale(0.3 0.3)">
          <a xlink:href="DummyCouplingScheme_8cpp__incl_org.svg" target="_base">
           <rect id="button" ry="5" rx="5" y="6" x="6" height="38" width="38"
                fill="#f2f5e9" fill-opacity="0.5" stroke="#606060" stroke-width="1.0"/>
           <path id="arrow"
             d="M 11.500037,31.436501 C 11.940474,20.09759 22.043105,11.32322 32.158766,21.979434 L 37.068811,17.246167 C 37.068811,17.246167 37.088388,32 37.088388,32 L 22.160133,31.978069 C 22.160133,31.978069 26.997745,27.140456 26.997745,27.140456 C 18.528582,18.264221 13.291696,25.230495 11.500037,31.436501 z"
             style="fill:#404040;"/>
          </a>
         </g>
        </svg>
</svg>
