<?xml version="1.0" encoding="UTF-8" standalone="no"?>
<!DOCTYPE svg PUBLIC "-//W3C//DTD SVG 1.1//EN"
 "http://www.w3.org/Graphics/SVG/1.1/DTD/svg11.dtd">
<!-- Generated by graphviz version 2.40.1 (20161225.0304)
 -->
<!-- Title: BOOST_AUTO_TEST_CASE Pages: 1 -->
<svg width="302pt" height="78pt"
 viewBox="0.00 0.00 302.00 77.50" xmlns="http://www.w3.org/2000/svg" xmlns:xlink="http://www.w3.org/1999/xlink">
<g id="graph0" class="graph" transform="scale(1 1) rotate(0) translate(4 73.5)">
<title>BOOST_AUTO_TEST_CASE</title>
<polygon fill="#ffffff" stroke="transparent" points="-4,4 -4,-73.5 298,-73.5 298,4 -4,4"/>
<!-- Node4 -->
<g id="node1" class="node">
<title>Node4</title>
<polygon fill="#bfbfbf" stroke="#000000" points="0,-22.5 0,-41.5 143,-41.5 143,-22.5 0,-22.5"/>
<text text-anchor="middle" x="71.5" y="-29.5" font-family="Helvetica,sans-Serif" font-size="10.00" fill="#000000">BOOST_AUTO_TEST_CASE</text>
</g>
<!-- Node5 -->
<g id="node2" class="node">
<title>Node5</title>
<g id="a_node2"><a xlink:href="classprecice_1_1mesh_1_1Edge.html#a13ecf0996c74947daaa7d311aad93ecf" target="_top" xlink:title="Sets the normal of the edge. ">
<polygon fill="#ffffff" stroke="#000000" points="179,-39 179,-69 294,-69 294,-39 179,-39"/>
<text text-anchor="start" x="187" y="-57" font-family="Helvetica,sans-Serif" font-size="10.00" fill="#000000">precice::mesh::Edge</text>
<text text-anchor="middle" x="236.5" y="-46" font-family="Helvetica,sans-Serif" font-size="10.00" fill="#000000">::setNormal</text>
</a>
</g>
</g>
<!-- Node4&#45;&gt;Node5 -->
<g id="edge1" class="edge">
<title>Node4&#45;&gt;Node5</title>
<path fill="none" stroke="#191970" d="M142.9118,-41.5216C151.5506,-42.6734 160.3546,-43.8473 168.9357,-44.9914"/>
<polygon fill="#191970" stroke="#191970" points="168.5084,-48.4654 178.8833,-46.3178 169.4336,-41.5268 168.5084,-48.4654"/>
</g>
<!-- Node6 -->
<g id="node3" class="node">
<title>Node6</title>
<g id="a_node3"><a xlink:href="RTreeTests_8cpp.html#a9849f5c774ff22e557184d988b1cf9ea" target="_top" xlink:title="BOOST_TEST">
<polygon fill="#ffffff" stroke="#000000" points="196.5,-.5 196.5,-19.5 276.5,-19.5 276.5,-.5 196.5,-.5"/>
<text text-anchor="middle" x="236.5" y="-7.5" font-family="Helvetica,sans-Serif" font-size="10.00" fill="#000000">BOOST_TEST</text>
</a>
</g>
</g>
<!-- Node4&#45;&gt;Node6 -->
<g id="edge2" class="edge">
<title>Node4&#45;&gt;Node6</title>
<path fill="none" stroke="#191970" d="M142.9118,-22.4784C157.4867,-20.5351 172.5319,-18.5291 186.183,-16.7089"/>
<polygon fill="#191970" stroke="#191970" points="186.8698,-20.1484 196.3194,-15.3574 185.9446,-13.2098 186.8698,-20.1484"/>
</g>
</g>
</svg>
