<?xml version="1.0" encoding="UTF-8" standalone="no"?>
<!DOCTYPE svg PUBLIC "-//W3C//DTD SVG 1.1//EN"
 "http://www.w3.org/Graphics/SVG/1.1/DTD/svg11.dtd">
<!-- Generated by graphviz version 2.40.1 (20161225.0304)
 -->
<!-- Title: BOOST_AUTO_TEST_CASE Pages: 1 -->
<svg width="559pt" height="840pt"
 viewBox="0.00 0.00 559.00 840.00" xmlns="http://www.w3.org/2000/svg" xmlns:xlink="http://www.w3.org/1999/xlink">
<g id="graph0" class="graph" transform="scale(1 1) rotate(0) translate(4 836)">
<title>BOOST_AUTO_TEST_CASE</title>
<polygon fill="#ffffff" stroke="transparent" points="-4,4 -4,-836 555,-836 555,4 -4,4"/>
<!-- Node72 -->
<g id="node1" class="node">
<title>Node72</title>
<polygon fill="#bfbfbf" stroke="#000000" points="0,-401 0,-420 143,-420 143,-401 0,-401"/>
<text text-anchor="middle" x="71.5" y="-408" font-family="Helvetica,sans-Serif" font-size="10.00" fill="#000000">BOOST_AUTO_TEST_CASE</text>
</g>
<!-- Node73 -->
<g id="node2" class="node">
<title>Node73</title>
<g id="a_node2"><a xlink:href="namespaceprecice_1_1xml.html#a44dd973bd070a46334fae66b7f392264" target="_top" xlink:title="Returns an XMLTag::Listener that does nothing on callbacks. ">
<polygon fill="#ffffff" stroke="#000000" points="212,-802 212,-821 349,-821 349,-802 212,-802"/>
<text text-anchor="middle" x="280.5" y="-809" font-family="Helvetica,sans-Serif" font-size="10.00" fill="#000000">precice::xml::getRootTag</text>
</a>
</g>
</g>
<!-- Node72&#45;&gt;Node73 -->
<g id="edge1" class="edge">
<title>Node72&#45;&gt;Node73</title>
<path fill="none" stroke="#191970" d="M73.3519,-420.2956C83.2166,-471.6184 130.9403,-709.2579 179,-764.5 192.9022,-780.4798 213.3832,-791.3747 232.3135,-798.6169"/>
<polygon fill="#191970" stroke="#191970" points="231.1416,-801.9148 241.7363,-801.9817 233.4957,-795.3225 231.1416,-801.9148"/>
</g>
<!-- Node75 -->
<g id="node4" class="node">
<title>Node75</title>
<g id="a_node4"><a xlink:href="namespaceprecice_1_1xml.html#a747851d233cc337d88fa1fd8aaa5b4ad" target="_top" xlink:title="Configures the given configuration from file configurationFilename. ">
<polygon fill="#ffffff" stroke="#000000" points="216.5,-736 216.5,-755 344.5,-755 344.5,-736 216.5,-736"/>
<text text-anchor="middle" x="280.5" y="-743" font-family="Helvetica,sans-Serif" font-size="10.00" fill="#000000">precice::xml::configure</text>
</a>
</g>
</g>
<!-- Node72&#45;&gt;Node75 -->
<g id="edge3" class="edge">
<title>Node72&#45;&gt;Node75</title>
<path fill="none" stroke="#191970" d="M73.4123,-420.0885C83.2139,-468.2806 129.2917,-683.4301 179,-726.5 186.9061,-733.3503 196.4815,-738.0649 206.5543,-741.2614"/>
<polygon fill="#191970" stroke="#191970" points="205.7608,-744.6722 216.326,-743.8812 207.5735,-737.911 205.7608,-744.6722"/>
</g>
<!-- Node78 -->
<g id="node7" class="node">
<title>Node78</title>
<g id="a_node7"><a xlink:href="classprecice_1_1cplscheme_1_1CouplingSchemeConfiguration.html#a0ed3c97d33c092d6c81f0840895207f5" target="_top" xlink:title="Returns the configured coupling scheme. ">
<polygon fill="#ffffff" stroke="#000000" points="195.5,-676 195.5,-717 365.5,-717 365.5,-676 195.5,-676"/>
<text text-anchor="start" x="203.5" y="-705" font-family="Helvetica,sans-Serif" font-size="10.00" fill="#000000">precice::cplscheme</text>
<text text-anchor="start" x="203.5" y="-694" font-family="Helvetica,sans-Serif" font-size="10.00" fill="#000000">::CouplingSchemeConfiguration</text>
<text text-anchor="middle" x="280.5" y="-683" font-family="Helvetica,sans-Serif" font-size="10.00" fill="#000000">::getCouplingScheme</text>
</a>
</g>
</g>
<!-- Node72&#45;&gt;Node78 -->
<g id="edge6" class="edge">
<title>Node72&#45;&gt;Node78</title>
<path fill="none" stroke="#191970" d="M72.5927,-420.0666C77.389,-457.5404 99.9971,-595.7548 179,-666.5 181.464,-668.7064 184.0833,-670.7509 186.8239,-672.6453"/>
<polygon fill="#191970" stroke="#191970" points="185.0211,-675.6454 195.3754,-677.89 188.6808,-669.6783 185.0211,-675.6454"/>
</g>
<!-- Node80 -->
<g id="node9" class="node">
<title>Node80</title>
<g id="a_node9"><a xlink:href="RTreeTests_8cpp.html#a9849f5c774ff22e557184d988b1cf9ea" target="_top" xlink:title="BOOST_TEST">
<polygon fill="#ffffff" stroke="#000000" points="240.5,-638 240.5,-657 320.5,-657 320.5,-638 240.5,-638"/>
<text text-anchor="middle" x="280.5" y="-645" font-family="Helvetica,sans-Serif" font-size="10.00" fill="#000000">BOOST_TEST</text>
</a>
</g>
</g>
<!-- Node72&#45;&gt;Node80 -->
<g id="edge8" class="edge">
<title>Node72&#45;&gt;Node80</title>
<path fill="none" stroke="#191970" d="M73.1446,-420.2842C79.5285,-455.0027 106.0386,-573.1656 179,-628.5 193.4483,-639.4577 212.3247,-644.7225 229.8744,-647.0824"/>
<polygon fill="#191970" stroke="#191970" points="229.6972,-650.5832 240.0106,-648.1574 230.4355,-643.6222 229.6972,-650.5832"/>
</g>
<!-- Node81 -->
<g id="node10" class="node">
<title>Node81</title>
<g id="a_node10"><a xlink:href="classprecice_1_1cplscheme_1_1CouplingScheme.html#a469efed8d5f823e56fd9d167a1945f73" target="_top" xlink:title="Initializes the coupling scheme and establishes a communication connection to the coupling partner...">
<polygon fill="#ffffff" stroke="#000000" points="204.5,-588.5 204.5,-618.5 356.5,-618.5 356.5,-588.5 204.5,-588.5"/>
<text text-anchor="start" x="212.5" y="-606.5" font-family="Helvetica,sans-Serif" font-size="10.00" fill="#000000">precice::cplscheme</text>
<text text-anchor="middle" x="280.5" y="-595.5" font-family="Helvetica,sans-Serif" font-size="10.00" fill="#000000">::CouplingScheme::initialize</text>
</a>
</g>
</g>
<!-- Node72&#45;&gt;Node81 -->
<g id="edge9" class="edge">
<title>Node72&#45;&gt;Node81</title>
<path fill="none" stroke="#191970" d="M74.7911,-420.3045C85.089,-449.415 119.6013,-535.9571 179,-578.5 183.915,-582.0203 189.2696,-585.0477 194.866,-587.6509"/>
<polygon fill="#191970" stroke="#191970" points="193.9004,-591.0397 204.478,-591.6436 196.5857,-584.5752 193.9004,-591.0397"/>
</g>
<!-- Node82 -->
<g id="node11" class="node">
<title>Node82</title>
<g id="a_node11"><a xlink:href="classprecice_1_1cplscheme_1_1CouplingScheme.html#a923820a473e787947a554247455311b5" target="_top" xlink:title="Returns true, if the given action has to be performed by the accessor. ">
<polygon fill="#ffffff" stroke="#000000" points="206,-528 206,-569 355,-569 355,-528 206,-528"/>
<text text-anchor="start" x="214" y="-557" font-family="Helvetica,sans-Serif" font-size="10.00" fill="#000000">precice::cplscheme</text>
<text text-anchor="start" x="214" y="-546" font-family="Helvetica,sans-Serif" font-size="10.00" fill="#000000">::CouplingScheme::isAction</text>
<text text-anchor="middle" x="280.5" y="-535" font-family="Helvetica,sans-Serif" font-size="10.00" fill="#000000">Required</text>
</a>
</g>
</g>
<!-- Node72&#45;&gt;Node82 -->
<g id="edge10" class="edge">
<title>Node72&#45;&gt;Node82</title>
<path fill="none" stroke="#191970" d="M78.3894,-420.1691C93.9042,-441.2355 133.7791,-491.5435 179,-518.5 184.4379,-521.7416 190.2506,-524.654 196.2386,-527.2672"/>
<polygon fill="#191970" stroke="#191970" points="195.1817,-530.6155 205.764,-531.1316 197.8133,-524.1289 195.1817,-530.6155"/>
</g>
<!-- Node83 -->
<g id="node12" class="node">
<title>Node83</title>
<g id="a_node12"><a xlink:href="namespaceprecice_1_1cplscheme_1_1constants.html#aa14baa0c72d55e7f653bd1290d668a53" target="_top" xlink:title="precice::cplscheme\l::constants::actionWriteInitialData">
<polygon fill="#ffffff" stroke="#000000" points="189.5,-478.5 189.5,-508.5 371.5,-508.5 371.5,-478.5 189.5,-478.5"/>
<text text-anchor="start" x="197.5" y="-496.5" font-family="Helvetica,sans-Serif" font-size="10.00" fill="#000000">precice::cplscheme</text>
<text text-anchor="middle" x="280.5" y="-485.5" font-family="Helvetica,sans-Serif" font-size="10.00" fill="#000000">::constants::actionWriteInitialData</text>
</a>
</g>
</g>
<!-- Node72&#45;&gt;Node83 -->
<g id="edge11" class="edge">
<title>Node72&#45;&gt;Node83</title>
<path fill="none" stroke="#191970" d="M86.231,-420.0171C106.4254,-432.6911 144.1775,-455.0683 179,-468.5 185.6935,-471.0818 192.7401,-473.4624 199.8712,-475.6424"/>
<polygon fill="#191970" stroke="#191970" points="199.0421,-479.0464 209.6224,-478.4907 201.0049,-472.3272 199.0421,-479.0464"/>
</g>
<!-- Node84 -->
<g id="node13" class="node">
<title>Node84</title>
<g id="a_node13"><a xlink:href="classprecice_1_1cplscheme_1_1CouplingScheme.html#a67ee22e3a7a8c0d927e37ca6ed3c3932" target="_top" xlink:title="Tells the coupling scheme that the accessor has performed the given action. ">
<polygon fill="#ffffff" stroke="#000000" points="197,-418 197,-459 364,-459 364,-418 197,-418"/>
<text text-anchor="start" x="205" y="-447" font-family="Helvetica,sans-Serif" font-size="10.00" fill="#000000">precice::cplscheme</text>
<text text-anchor="start" x="205" y="-436" font-family="Helvetica,sans-Serif" font-size="10.00" fill="#000000">::CouplingScheme::markAction</text>
<text text-anchor="middle" x="280.5" y="-425" font-family="Helvetica,sans-Serif" font-size="10.00" fill="#000000">Fulfilled</text>
</a>
</g>
</g>
<!-- Node72&#45;&gt;Node84 -->
<g id="edge12" class="edge">
<title>Node72&#45;&gt;Node84</title>
<path fill="none" stroke="#191970" d="M142.5495,-420.0186C156.6836,-421.9122 171.7303,-423.928 186.4948,-425.906"/>
<polygon fill="#191970" stroke="#191970" points="186.2804,-429.4085 196.6566,-427.2674 187.2099,-422.4704 186.2804,-429.4085"/>
</g>
<!-- Node85 -->
<g id="node14" class="node">
<title>Node85</title>
<g id="a_node14"><a xlink:href="classprecice_1_1cplscheme_1_1CouplingScheme.html#a404810732b7f37a2fc75a62abf256874" target="_top" xlink:title="Initializes the data for first implicit coupling scheme iteration. ">
<polygon fill="#ffffff" stroke="#000000" points="192.5,-368.5 192.5,-398.5 368.5,-398.5 368.5,-368.5 192.5,-368.5"/>
<text text-anchor="start" x="200.5" y="-386.5" font-family="Helvetica,sans-Serif" font-size="10.00" fill="#000000">precice::cplscheme</text>
<text text-anchor="middle" x="280.5" y="-375.5" font-family="Helvetica,sans-Serif" font-size="10.00" fill="#000000">::CouplingScheme::initializeData</text>
</a>
</g>
</g>
<!-- Node72&#45;&gt;Node85 -->
<g id="edge13" class="edge">
<title>Node72&#45;&gt;Node85</title>
<path fill="none" stroke="#191970" d="M143.1335,-401.2459C155.7515,-399.6158 169.0813,-397.8938 182.277,-396.1891"/>
<polygon fill="#191970" stroke="#191970" points="182.8587,-399.6431 192.3278,-394.8907 181.9618,-392.7008 182.8587,-399.6431"/>
</g>
<!-- Node86 -->
<g id="node15" class="node">
<title>Node86</title>
<g id="a_node15"><a xlink:href="classprecice_1_1cplscheme_1_1CouplingScheme.html#ae91c824606fdbe167f8d62bd0371b465" target="_top" xlink:title="Returns true, if data has been exchanged in last call of advance(). actually, this only means that da...">
<polygon fill="#ffffff" stroke="#000000" points="192.5,-308 192.5,-349 368.5,-349 368.5,-308 192.5,-308"/>
<text text-anchor="start" x="200.5" y="-337" font-family="Helvetica,sans-Serif" font-size="10.00" fill="#000000">precice::cplscheme</text>
<text text-anchor="start" x="200.5" y="-326" font-family="Helvetica,sans-Serif" font-size="10.00" fill="#000000">::CouplingScheme::hasDataBeen</text>
<text text-anchor="middle" x="280.5" y="-315" font-family="Helvetica,sans-Serif" font-size="10.00" fill="#000000">Received</text>
</a>
</g>
</g>
<!-- Node72&#45;&gt;Node86 -->
<g id="edge14" class="edge">
<title>Node72&#45;&gt;Node86</title>
<path fill="none" stroke="#191970" d="M89.7814,-400.8134C110.8874,-389.8702 146.8336,-371.965 179,-359.5 185.3486,-357.0398 191.9793,-354.6439 198.6784,-352.3451"/>
<polygon fill="#191970" stroke="#191970" points="200.1463,-355.5446 208.5173,-349.0502 197.9234,-348.9069 200.1463,-355.5446"/>
</g>
<!-- Node87 -->
<g id="node16" class="node">
<title>Node87</title>
<g id="a_node16"><a xlink:href="namespaceprecice_1_1testing.html#a6a116337529290bbb1bf2545b5fb315a" target="_top" xlink:title="equals to be used in tests. Prints both operatorans on failure ">
<polygon fill="#ffffff" stroke="#000000" points="215.5,-270 215.5,-289 345.5,-289 345.5,-270 215.5,-270"/>
<text text-anchor="middle" x="280.5" y="-277" font-family="Helvetica,sans-Serif" font-size="10.00" fill="#000000">precice::testing::equals</text>
</a>
</g>
</g>
<!-- Node72&#45;&gt;Node87 -->
<g id="edge15" class="edge">
<title>Node72&#45;&gt;Node87</title>
<path fill="none" stroke="#191970" d="M77.6544,-400.7789C92.2512,-378.6119 131.3415,-324.2565 179,-298.5 187.2524,-294.0401 196.3716,-290.6095 205.6586,-287.9739"/>
<polygon fill="#191970" stroke="#191970" points="206.5388,-291.3616 215.368,-285.5053 204.8138,-284.5774 206.5388,-291.3616"/>
</g>
<!-- Node89 -->
<g id="node18" class="node">
<title>Node89</title>
<g id="a_node18"><a xlink:href="classprecice_1_1cplscheme_1_1CouplingScheme.html#a8a378b67a73640bbe00ecbd47667b48b" target="_top" xlink:title="Adds newly computed time. Has to be called before every advance. ">
<polygon fill="#ffffff" stroke="#000000" points="179,-220.5 179,-250.5 382,-250.5 382,-220.5 179,-220.5"/>
<text text-anchor="start" x="187" y="-238.5" font-family="Helvetica,sans-Serif" font-size="10.00" fill="#000000">precice::cplscheme</text>
<text text-anchor="middle" x="280.5" y="-227.5" font-family="Helvetica,sans-Serif" font-size="10.00" fill="#000000">::CouplingScheme::addComputedTime</text>
</a>
</g>
</g>
<!-- Node72&#45;&gt;Node89 -->
<g id="edge17" class="edge">
<title>Node72&#45;&gt;Node89</title>
<path fill="none" stroke="#191970" d="M75.4333,-400.9851C86.9905,-374.264 123.5551,-298.0453 179,-260.5 181.9444,-258.5062 185.0326,-256.6711 188.2254,-254.9822"/>
<polygon fill="#191970" stroke="#191970" points="189.9323,-258.0465 197.4678,-250.5989 186.9327,-251.7217 189.9323,-258.0465"/>
</g>
<!-- Node90 -->
<g id="node19" class="node">
<title>Node90</title>
<g id="a_node19"><a xlink:href="classprecice_1_1cplscheme_1_1CouplingScheme.html#a0d68ff7857480ec655fd3c1fafa65034" target="_top" xlink:title="Returns the maximal length of the next timestep to be computed. ">
<polygon fill="#ffffff" stroke="#000000" points="183,-160 183,-201 378,-201 378,-160 183,-160"/>
<text text-anchor="start" x="191" y="-189" font-family="Helvetica,sans-Serif" font-size="10.00" fill="#000000">precice::cplscheme</text>
<text text-anchor="start" x="191" y="-178" font-family="Helvetica,sans-Serif" font-size="10.00" fill="#000000">::CouplingScheme::getNextTimestep</text>
<text text-anchor="middle" x="280.5" y="-167" font-family="Helvetica,sans-Serif" font-size="10.00" fill="#000000">MaxLength</text>
</a>
</g>
</g>
<!-- Node72&#45;&gt;Node90 -->
<g id="edge18" class="edge">
<title>Node72&#45;&gt;Node90</title>
<path fill="none" stroke="#191970" d="M73.828,-400.8667C82.1096,-368.6903 113.2312,-263.9564 179,-210.5 180.6042,-209.1962 182.2633,-207.949 183.9696,-206.756"/>
<polygon fill="#191970" stroke="#191970" points="186.2118,-209.4834 192.8567,-201.2313 182.5161,-203.5384 186.2118,-209.4834"/>
</g>
<!-- Node91 -->
<g id="node20" class="node">
<title>Node91</title>
<g id="a_node20"><a xlink:href="classprecice_1_1cplscheme_1_1CouplingScheme.html#afb17448b590a050bce287cf675bdccec" target="_top" xlink:title="Exchanges data and updates the state of the coupling scheme. ">
<polygon fill="#ffffff" stroke="#000000" points="204.5,-110.5 204.5,-140.5 356.5,-140.5 356.5,-110.5 204.5,-110.5"/>
<text text-anchor="start" x="212.5" y="-128.5" font-family="Helvetica,sans-Serif" font-size="10.00" fill="#000000">precice::cplscheme</text>
<text text-anchor="middle" x="280.5" y="-117.5" font-family="Helvetica,sans-Serif" font-size="10.00" fill="#000000">::CouplingScheme::advance</text>
</a>
</g>
</g>
<!-- Node72&#45;&gt;Node91 -->
<g id="edge19" class="edge">
<title>Node72&#45;&gt;Node91</title>
<path fill="none" stroke="#191970" d="M72.4168,-400.938C76.5967,-362.8639 97.3303,-220.7143 179,-150.5 183.8316,-146.3461 189.247,-142.8614 194.9952,-139.9404"/>
<polygon fill="#191970" stroke="#191970" points="196.5631,-143.0734 204.2661,-135.7992 193.7081,-136.6821 196.5631,-143.0734"/>
</g>
<!-- Node92 -->
<g id="node21" class="node">
<title>Node92</title>
<g id="a_node21"><a xlink:href="classprecice_1_1cplscheme_1_1CouplingScheme.html#abd0fe5ee6f1dea703c45660113b973d9" target="_top" xlink:title="Returns true, when the coupled simulation is still ongoing. ">
<polygon fill="#ffffff" stroke="#000000" points="200,-50 200,-91 361,-91 361,-50 200,-50"/>
<text text-anchor="start" x="208" y="-79" font-family="Helvetica,sans-Serif" font-size="10.00" fill="#000000">precice::cplscheme</text>
<text text-anchor="start" x="208" y="-68" font-family="Helvetica,sans-Serif" font-size="10.00" fill="#000000">::CouplingScheme::isCoupling</text>
<text text-anchor="middle" x="280.5" y="-57" font-family="Helvetica,sans-Serif" font-size="10.00" fill="#000000">Ongoing</text>
</a>
</g>
</g>
<!-- Node72&#45;&gt;Node92 -->
<g id="edge20" class="edge">
<title>Node72&#45;&gt;Node92</title>
<path fill="none" stroke="#191970" d="M71.818,-400.747C73.7399,-358.3432 87.117,-188.2144 179,-100.5 182.7257,-96.9433 186.8524,-93.8059 191.2477,-91.0385"/>
<polygon fill="#191970" stroke="#191970" points="192.9672,-94.0871 199.9963,-86.1597 189.5578,-87.9734 192.9672,-94.0871"/>
</g>
<!-- Node93 -->
<g id="node22" class="node">
<title>Node93</title>
<g id="a_node22"><a xlink:href="classprecice_1_1cplscheme_1_1CouplingScheme.html#ab71e795a9c658831be3b8543e61d918c" target="_top" xlink:title="Finalizes the coupling and disconnects communication. ">
<polygon fill="#ffffff" stroke="#000000" points="207.5,-.5 207.5,-30.5 353.5,-30.5 353.5,-.5 207.5,-.5"/>
<text text-anchor="start" x="215.5" y="-18.5" font-family="Helvetica,sans-Serif" font-size="10.00" fill="#000000">precice::cplscheme</text>
<text text-anchor="middle" x="280.5" y="-7.5" font-family="Helvetica,sans-Serif" font-size="10.00" fill="#000000">::CouplingScheme::finalize</text>
</a>
</g>
</g>
<!-- Node72&#45;&gt;Node93 -->
<g id="edge21" class="edge">
<title>Node72&#45;&gt;Node93</title>
<path fill="none" stroke="#191970" d="M72.9909,-400.7906C81.3227,-347.7549 123.7358,-93.5299 179,-40.5 184.4916,-35.2304 190.9078,-31.0165 197.7984,-27.6537"/>
<polygon fill="#191970" stroke="#191970" points="199.5976,-30.6931 207.4463,-23.5764 196.8726,-24.2452 199.5976,-30.6931"/>
</g>
<!-- Node74 -->
<g id="node3" class="node">
<title>Node74</title>
<g id="a_node3"><a xlink:href="classprecice_1_1xml_1_1XMLTag.html#ab41dfcb33c2d54376d455e04bfbcdc4c" target="_top" xlink:title="Standard constructor. ">
<polygon fill="#ffffff" stroke="#000000" points="425.5,-801.5 425.5,-831.5 543.5,-831.5 543.5,-801.5 425.5,-801.5"/>
<text text-anchor="start" x="433.5" y="-819.5" font-family="Helvetica,sans-Serif" font-size="10.00" fill="#000000">precice::xml::XMLTag</text>
<text text-anchor="middle" x="484.5" y="-808.5" font-family="Helvetica,sans-Serif" font-size="10.00" fill="#000000">::XMLTag</text>
</a>
</g>
</g>
<!-- Node73&#45;&gt;Node74 -->
<g id="edge2" class="edge">
<title>Node73&#45;&gt;Node74</title>
<path fill="none" stroke="#191970" d="M349.2807,-813.1858C370.4538,-813.7048 393.7708,-814.2762 414.9924,-814.7964"/>
<polygon fill="#191970" stroke="#191970" points="415.1406,-818.301 425.2234,-815.0471 415.3122,-811.3031 415.1406,-818.301"/>
</g>
<!-- Node76 -->
<g id="node5" class="node">
<title>Node76</title>
<g id="a_node5"><a xlink:href="classprecice_1_1xml_1_1XMLTag.html#aa90f7a05aeab6f674ee1499a84a8bb2e" target="_top" xlink:title="Returns full name consisting of xml namespace + &quot;:&quot; + name. ">
<polygon fill="#ffffff" stroke="#000000" points="425.5,-752.5 425.5,-782.5 543.5,-782.5 543.5,-752.5 425.5,-752.5"/>
<text text-anchor="start" x="433.5" y="-770.5" font-family="Helvetica,sans-Serif" font-size="10.00" fill="#000000">precice::xml::XMLTag</text>
<text text-anchor="middle" x="484.5" y="-759.5" font-family="Helvetica,sans-Serif" font-size="10.00" fill="#000000">::getFullName</text>
</a>
</g>
</g>
<!-- Node75&#45;&gt;Node76 -->
<g id="edge4" class="edge">
<title>Node75&#45;&gt;Node76</title>
<path fill="none" stroke="#191970" d="M344.7669,-752.4307C367.2503,-754.8554 392.5811,-757.5872 415.4394,-760.0523"/>
<polygon fill="#191970" stroke="#191970" points="415.0899,-763.5348 425.4075,-761.1273 415.8405,-756.5752 415.0899,-763.5348"/>
</g>
<!-- Node77 -->
<g id="node6" class="node">
<title>Node77</title>
<g id="a_node6"><a xlink:href="classprecice_1_1xml_1_1XMLTag.html#af81dc6eea2b9a75e14ddd6033ed9a1d4" target="_top" xlink:title="Adds an XML tag as subtag by making a copy of the given tag. ">
<polygon fill="#ffffff" stroke="#000000" points="425.5,-703.5 425.5,-733.5 543.5,-733.5 543.5,-703.5 425.5,-703.5"/>
<text text-anchor="start" x="433.5" y="-721.5" font-family="Helvetica,sans-Serif" font-size="10.00" fill="#000000">precice::xml::XMLTag</text>
<text text-anchor="middle" x="484.5" y="-710.5" font-family="Helvetica,sans-Serif" font-size="10.00" fill="#000000">::addSubtag</text>
</a>
</g>
</g>
<!-- Node75&#45;&gt;Node77 -->
<g id="edge5" class="edge">
<title>Node75&#45;&gt;Node77</title>
<path fill="none" stroke="#191970" d="M344.7669,-736.9941C367.2503,-734.0183 392.5811,-730.6657 415.4394,-727.6404"/>
<polygon fill="#191970" stroke="#191970" points="415.9533,-731.103 425.4075,-726.3211 415.0347,-724.1635 415.9533,-731.103"/>
</g>
<!-- Node79 -->
<g id="node8" class="node">
<title>Node79</title>
<g id="a_node8"><a xlink:href="namespaceprecice_1_1utils.html#a434eabaa71f97a31726281a4df77bbcf" target="_top" xlink:title="Returns true, if given element is in vector, otherwise false. ">
<polygon fill="#ffffff" stroke="#000000" points="418,-665 418,-684 551,-684 551,-665 418,-665"/>
<text text-anchor="middle" x="484.5" y="-672" font-family="Helvetica,sans-Serif" font-size="10.00" fill="#000000">precice::utils::contained</text>
</a>
</g>
</g>
<!-- Node78&#45;&gt;Node79 -->
<g id="edge7" class="edge">
<title>Node78&#45;&gt;Node79</title>
<path fill="none" stroke="#191970" d="M365.5372,-687.3293C379.613,-685.8113 394.1322,-684.2455 407.9818,-682.752"/>
<polygon fill="#191970" stroke="#191970" points="408.3651,-686.231 417.9321,-681.6789 407.6145,-679.2714 408.3651,-686.231"/>
</g>
<!-- Node88 -->
<g id="node17" class="node">
<title>Node88</title>
<g id="a_node17"><a xlink:href="namespaceprecice_1_1math.html#a0e86802cfe992deba131d789d035b5b7" target="_top" xlink:title="Compares two Eigen::MatrixBase for equality up to tolerance. ">
<polygon fill="#ffffff" stroke="#000000" points="423.5,-270 423.5,-289 545.5,-289 545.5,-270 423.5,-270"/>
<text text-anchor="middle" x="484.5" y="-277" font-family="Helvetica,sans-Serif" font-size="10.00" fill="#000000">precice::math::equals</text>
</a>
</g>
</g>
<!-- Node87&#45;&gt;Node88 -->
<g id="edge16" class="edge">
<title>Node87&#45;&gt;Node88</title>
<path fill="none" stroke="#191970" d="M345.6078,-279.5C367.1497,-279.5 391.2289,-279.5 413.2097,-279.5"/>
<polygon fill="#191970" stroke="#191970" points="413.4768,-283.0001 423.4768,-279.5 413.4768,-276.0001 413.4768,-283.0001"/>
</g>
</g>
</svg>
