<?xml version="1.0" encoding="UTF-8" standalone="no"?>
<!DOCTYPE svg PUBLIC "-//W3C//DTD SVG 1.1//EN"
 "http://www.w3.org/Graphics/SVG/1.1/DTD/svg11.dtd">
<!-- Generated by graphviz version 2.40.1 (20161225.0304)
 -->
<!-- Title: BOOST_AUTO_TEST_CASE Pages: 1 -->
<svg width="321pt" height="78pt"
 viewBox="0.00 0.00 321.00 77.50" xmlns="http://www.w3.org/2000/svg" xmlns:xlink="http://www.w3.org/1999/xlink">
<g id="graph0" class="graph" transform="scale(1 1) rotate(0) translate(4 73.5)">
<title>BOOST_AUTO_TEST_CASE</title>
<polygon fill="#ffffff" stroke="transparent" points="-4,4 -4,-73.5 317,-73.5 317,4 -4,4"/>
<!-- Node324 -->
<g id="node1" class="node">
<title>Node324</title>
<polygon fill="#bfbfbf" stroke="#000000" points="0,-22.5 0,-41.5 143,-41.5 143,-22.5 0,-22.5"/>
<text text-anchor="middle" x="71.5" y="-29.5" font-family="Helvetica,sans-Serif" font-size="10.00" fill="#000000">BOOST_AUTO_TEST_CASE</text>
</g>
<!-- Node325 -->
<g id="node2" class="node">
<title>Node325</title>
<g id="a_node2"><a xlink:href="namespaceprecice_1_1query.html#af26087a458327ddbe22c10a6ee27dfd4" target="_top" xlink:title="Generates the InterpolationElements for directly projecting a Vertex on another Vertex. ">
<polygon fill="#ffffff" stroke="#000000" points="179,-39 179,-69 313,-69 313,-39 179,-39"/>
<text text-anchor="start" x="187" y="-57" font-family="Helvetica,sans-Serif" font-size="10.00" fill="#000000">precice::query::generate</text>
<text text-anchor="middle" x="246" y="-46" font-family="Helvetica,sans-Serif" font-size="10.00" fill="#000000">InterpolationElements</text>
</a>
</g>
</g>
<!-- Node324&#45;&gt;Node325 -->
<g id="edge1" class="edge">
<title>Node324&#45;&gt;Node325</title>
<path fill="none" stroke="#191970" d="M143.2312,-41.0435C151.585,-42.0967 160.1349,-43.1746 168.5612,-44.2369"/>
<polygon fill="#191970" stroke="#191970" points="168.3973,-47.7439 178.7565,-45.5223 169.2729,-40.7989 168.3973,-47.7439"/>
</g>
<!-- Node326 -->
<g id="node3" class="node">
<title>Node326</title>
<g id="a_node3"><a xlink:href="RTreeTests_8cpp.html#a9849f5c774ff22e557184d988b1cf9ea" target="_top" xlink:title="BOOST_TEST">
<polygon fill="#ffffff" stroke="#000000" points="206,-.5 206,-19.5 286,-19.5 286,-.5 206,-.5"/>
<text text-anchor="middle" x="246" y="-7.5" font-family="Helvetica,sans-Serif" font-size="10.00" fill="#000000">BOOST_TEST</text>
</a>
</g>
</g>
<!-- Node324&#45;&gt;Node326 -->
<g id="edge2" class="edge">
<title>Node324&#45;&gt;Node326</title>
<path fill="none" stroke="#191970" d="M143.2312,-22.9565C160.6585,-20.7594 178.9393,-18.4546 195.1705,-16.4083"/>
<polygon fill="#191970" stroke="#191970" points="196.0276,-19.828 205.5113,-15.1046 195.152,-12.883 196.0276,-19.828"/>
</g>
</g>
</svg>
