<?xml version="1.0" encoding="UTF-8" standalone="no"?>
<!DOCTYPE svg PUBLIC "-//W3C//DTD SVG 1.1//EN"
 "http://www.w3.org/Graphics/SVG/1.1/DTD/svg11.dtd">
<!-- Generated by graphviz version 2.40.1 (20161225.0304)
 -->
<!-- Title: src/acceleration/IQNILSAcceleration.cpp Pages: 1 -->
<svg width="2803pt" height="677pt"
 viewBox="0.00 0.00 2803.00 677.00" xmlns="http://www.w3.org/2000/svg" xmlns:xlink="http://www.w3.org/1999/xlink">
<g id="graph0" class="graph" transform="scale(1 1) rotate(0) translate(4 673)">
<title>src/acceleration/IQNILSAcceleration.cpp</title>
<polygon fill="#ffffff" stroke="transparent" points="-4,4 -4,-673 2799,-673 2799,4 -4,4"/>
<!-- Node0 -->
<g id="node1" class="node">
<title>Node0</title>
<polygon fill="#bfbfbf" stroke="#000000" points="1070,-649.5 1070,-668.5 1280,-668.5 1280,-649.5 1070,-649.5"/>
<text text-anchor="middle" x="1175" y="-656.5" font-family="Helvetica,sans-Serif" font-size="10.00" fill="#000000">src/acceleration/IQNILSAcceleration.cpp</text>
</g>
<!-- Node1 -->
<g id="node2" class="node">
<title>Node1</title>
<g id="a_node2"><a xlink:href="IQNILSAcceleration_8hpp.html" target="_top" xlink:title="acceleration/IQNILSAcceleration.hpp">
<polygon fill="#ffffff" stroke="#000000" points="1078,-593.5 1078,-612.5 1272,-612.5 1272,-593.5 1078,-593.5"/>
<text text-anchor="middle" x="1175" y="-600.5" font-family="Helvetica,sans-Serif" font-size="10.00" fill="#000000">acceleration/IQNILSAcceleration.hpp</text>
</a>
</g>
</g>
<!-- Node0&#45;&gt;Node1 -->
<g id="edge1" class="edge">
<title>Node0&#45;&gt;Node1</title>
<path fill="none" stroke="#191970" d="M1175,-649.2455C1175,-641.9382 1175,-631.6944 1175,-622.7046"/>
<polygon fill="#191970" stroke="#191970" points="1178.5001,-622.6426 1175,-612.6427 1171.5001,-622.6427 1178.5001,-622.6426"/>
</g>
<!-- Node2 -->
<g id="node3" class="node">
<title>Node2</title>
<polygon fill="#ffffff" stroke="#bfbfbf" points="541.5,-241 541.5,-260 610.5,-260 610.5,-241 541.5,-241"/>
<text text-anchor="middle" x="576" y="-248" font-family="Helvetica,sans-Serif" font-size="10.00" fill="#000000">Eigen/Core</text>
</g>
<!-- Node0&#45;&gt;Node2 -->
<g id="edge87" class="edge">
<title>Node0&#45;&gt;Node2</title>
<path fill="none" stroke="#191970" d="M1069.863,-654.2034C861.4795,-643.2857 416,-612.3085 416,-547 416,-547 416,-547 416,-424 416,-347.3328 501.4734,-290.0519 547.4759,-264.7748"/>
<polygon fill="#191970" stroke="#191970" points="549.2147,-267.814 556.3809,-260.0103 545.9124,-261.6419 549.2147,-267.814"/>
</g>
<!-- Node7 -->
<g id="node8" class="node">
<title>Node7</title>
<polygon fill="#ffffff" stroke="#bfbfbf" points="1592,-358.5 1592,-377.5 1656,-377.5 1656,-358.5 1592,-358.5"/>
<text text-anchor="middle" x="1624" y="-365.5" font-family="Helvetica,sans-Serif" font-size="10.00" fill="#000000">algorithm</text>
</g>
<!-- Node0&#45;&gt;Node7 -->
<g id="edge88" class="edge">
<title>Node0&#45;&gt;Node7</title>
<path fill="none" stroke="#191970" d="M1280.3534,-652.1186C1383.67,-644.5045 1533.5114,-630.905 1589,-613 1645.8182,-594.6659 1706,-606.703 1706,-547 1706,-547 1706,-547 1706,-485.5 1706,-442.9986 1669.4749,-404.8906 1645.1787,-384.243"/>
<polygon fill="#191970" stroke="#191970" points="1647.1293,-381.3165 1637.1747,-377.6892 1642.6946,-386.7326 1647.1293,-381.3165"/>
</g>
<!-- Node8 -->
<g id="node9" class="node">
<title>Node8</title>
<polygon fill="#ffffff" stroke="#bfbfbf" points="428,-123.5 428,-142.5 486,-142.5 486,-123.5 428,-123.5"/>
<text text-anchor="middle" x="457" y="-130.5" font-family="Helvetica,sans-Serif" font-size="10.00" fill="#000000">memory</text>
</g>
<!-- Node0&#45;&gt;Node8 -->
<g id="edge90" class="edge">
<title>Node0&#45;&gt;Node8</title>
<path fill="none" stroke="#191970" d="M1069.8852,-657.1808C798.5385,-652.1544 92.5658,-636.8509 48,-613 16.0211,-595.8854 0,-583.2706 0,-547 0,-547 0,-547 0,-250.5 0,-164.592 306.7436,-140.5812 417.6161,-134.7084"/>
<polygon fill="#191970" stroke="#191970" points="417.9079,-138.1982 427.7174,-134.1952 417.5527,-131.2072 417.9079,-138.1982"/>
</g>
<!-- Node12 -->
<g id="node12" class="node">
<title>Node12</title>
<g id="a_node12"><a xlink:href="CouplingData_8hpp.html" target="_top" xlink:title="CouplingData.hpp">
<polygon fill="#ffffff" stroke="#000000" points="776,-358.5 776,-377.5 880,-377.5 880,-358.5 776,-358.5"/>
<text text-anchor="middle" x="828" y="-365.5" font-family="Helvetica,sans-Serif" font-size="10.00" fill="#000000">CouplingData.hpp</text>
</a>
</g>
</g>
<!-- Node0&#45;&gt;Node12 -->
<g id="edge112" class="edge">
<title>Node0&#45;&gt;Node12</title>
<path fill="none" stroke="#191970" d="M1098.5097,-649.4709C960.0351,-631.1743 682,-589.185 682,-547 682,-547 682,-547 682,-485.5 682,-431.2037 744.0406,-397.7658 787.2369,-381.0648"/>
<polygon fill="#191970" stroke="#191970" points="788.5217,-384.3213 796.6793,-377.5609 786.0863,-377.7586 788.5217,-384.3213"/>
</g>
<!-- Node16 -->
<g id="node16" class="node">
<title>Node16</title>
<g id="a_node16"><a xlink:href="LogMacros_8hpp.html" target="_top" xlink:title="LogMacros.hpp">
<polygon fill="#ffffff" stroke="#000000" points="1994.5,-123.5 1994.5,-142.5 2083.5,-142.5 2083.5,-123.5 1994.5,-123.5"/>
<text text-anchor="middle" x="2039" y="-130.5" font-family="Helvetica,sans-Serif" font-size="10.00" fill="#000000">LogMacros.hpp</text>
</a>
</g>
</g>
<!-- Node0&#45;&gt;Node16 -->
<g id="edge114" class="edge">
<title>Node0&#45;&gt;Node16</title>
<path fill="none" stroke="#191970" d="M1280.2654,-657.2778C1543.3496,-652.6392 2224.5382,-638.4815 2450,-613 2605.1263,-595.4677 2795,-703.1139 2795,-547 2795,-547 2795,-547 2795,-312 2795,-167.8427 2267.9066,-139.6249 2093.9585,-134.2376"/>
<polygon fill="#191970" stroke="#191970" points="2093.8469,-130.7329 2083.7476,-133.9353 2093.6396,-137.7298 2093.8469,-130.7329"/>
</g>
<!-- Node28 -->
<g id="node28" class="node">
<title>Node28</title>
<g id="a_node28"><a xlink:href="assertion_8hpp.html" target="_top" xlink:title="utils/assertion.hpp">
<polygon fill="#ffffff" stroke="#000000" points="2304.5,-302.5 2304.5,-321.5 2411.5,-321.5 2411.5,-302.5 2304.5,-302.5"/>
<text text-anchor="middle" x="2358" y="-309.5" font-family="Helvetica,sans-Serif" font-size="10.00" fill="#000000">utils/assertion.hpp</text>
</a>
</g>
</g>
<!-- Node0&#45;&gt;Node28 -->
<g id="edge133" class="edge">
<title>Node0&#45;&gt;Node28</title>
<path fill="none" stroke="#191970" d="M1280.2144,-656.88C1628.0585,-649.1858 2719,-619.2922 2719,-547 2719,-547 2719,-547 2719,-424 2719,-362.4787 2525.3319,-330.994 2421.6984,-318.5503"/>
<polygon fill="#191970" stroke="#191970" points="2421.9957,-315.0613 2411.6555,-317.3701 2421.1787,-322.0134 2421.9957,-315.0613"/>
</g>
<!-- Node39 -->
<g id="node35" class="node">
<title>Node39</title>
<g id="a_node35"><a xlink:href="cplscheme_2SharedPointer_8hpp.html" target="_top" xlink:title="SharedPointer.hpp">
<polygon fill="#ffffff" stroke="#000000" points="142.5,-302.5 142.5,-321.5 247.5,-321.5 247.5,-302.5 142.5,-302.5"/>
<text text-anchor="middle" x="195" y="-309.5" font-family="Helvetica,sans-Serif" font-size="10.00" fill="#000000">SharedPointer.hpp</text>
</a>
</g>
</g>
<!-- Node0&#45;&gt;Node39 -->
<g id="edge113" class="edge">
<title>Node0&#45;&gt;Node39</title>
<path fill="none" stroke="#191970" d="M1069.6649,-655.6735C864.8861,-648.8225 427.2887,-632.1634 361,-613 302.9003,-596.204 242,-607.4787 242,-547 242,-547 242,-547 242,-424 242,-388.5481 221.7296,-351.3564 207.8129,-329.9999"/>
<polygon fill="#191970" stroke="#191970" points="210.6421,-327.9356 202.1383,-321.6161 204.8451,-331.8593 210.6421,-327.9356"/>
</g>
<!-- Node51 -->
<g id="node37" class="node">
<title>Node51</title>
<polygon fill="#ffffff" stroke="#bfbfbf" points="1440.5,-476 1440.5,-495 1487.5,-495 1487.5,-476 1440.5,-476"/>
<text text-anchor="middle" x="1464" y="-483" font-family="Helvetica,sans-Serif" font-size="10.00" fill="#000000">deque</text>
</g>
<!-- Node0&#45;&gt;Node51 -->
<g id="edge89" class="edge">
<title>Node0&#45;&gt;Node51</title>
<path fill="none" stroke="#191970" d="M1199.9339,-649.4726C1221.7486,-640.8347 1254.0679,-627.299 1281,-613 1344.4173,-579.3299 1411.9768,-527.5424 1444.4053,-501.549"/>
<polygon fill="#191970" stroke="#191970" points="1446.6489,-504.236 1452.2292,-495.2298 1442.2506,-498.7903 1446.6489,-504.236"/>
</g>
<!-- Node69 -->
<g id="node39" class="node">
<title>Node69</title>
<g id="a_node39"><a xlink:href="QRFactorization_8hpp.html" target="_top" xlink:title="acceleration/impl/QRFactorization.hpp">
<polygon fill="#ffffff" stroke="#000000" points="974,-358.5 974,-377.5 1176,-377.5 1176,-358.5 974,-358.5"/>
<text text-anchor="middle" x="1075" y="-365.5" font-family="Helvetica,sans-Serif" font-size="10.00" fill="#000000">acceleration/impl/QRFactorization.hpp</text>
</a>
</g>
</g>
<!-- Node0&#45;&gt;Node69 -->
<g id="edge98" class="edge">
<title>Node0&#45;&gt;Node69</title>
<path fill="none" stroke="#191970" d="M1099.2507,-649.4859C1039.4385,-637.2334 966,-609.4699 966,-547 966,-547 966,-547 966,-485.5 966,-438.0153 1014.4374,-401.6243 1046.7337,-382.6377"/>
<polygon fill="#191970" stroke="#191970" points="1048.783,-385.4997 1055.7639,-377.5299 1045.3366,-379.4069 1048.783,-385.4997"/>
</g>
<!-- Node71 -->
<g id="node41" class="node">
<title>Node71</title>
<g id="a_node41"><a xlink:href="acceleration_2impl_2SharedPointer_8hpp.html" target="_top" xlink:title="acceleration/impl/Shared\lPointer.hpp">
<polygon fill="#ffffff" stroke="#000000" points="710,-470.5 710,-500.5 848,-500.5 848,-470.5 710,-470.5"/>
<text text-anchor="start" x="718" y="-488.5" font-family="Helvetica,sans-Serif" font-size="10.00" fill="#000000">acceleration/impl/Shared</text>
<text text-anchor="middle" x="779" y="-477.5" font-family="Helvetica,sans-Serif" font-size="10.00" fill="#000000">Pointer.hpp</text>
</a>
</g>
</g>
<!-- Node0&#45;&gt;Node71 -->
<g id="edge99" class="edge">
<title>Node0&#45;&gt;Node71</title>
<path fill="none" stroke="#191970" d="M1109.6126,-649.4231C1064.6353,-641.8908 1003.8879,-629.8393 952,-613 894.4825,-594.3337 874.3634,-595.8217 828,-557 812.4258,-543.9592 799.6523,-524.7918 791.056,-509.5845"/>
<polygon fill="#191970" stroke="#191970" points="794.0945,-507.8453 786.2557,-500.7176 787.9387,-511.178 794.0945,-507.8453"/>
</g>
<!-- Node72 -->
<g id="node42" class="node">
<title>Node72</title>
<g id="a_node42"><a xlink:href="Preconditioner_8hpp.html" target="_top" xlink:title="acceleration/impl/Preconditioner.hpp">
<polygon fill="#ffffff" stroke="#000000" points="1674.5,-358.5 1674.5,-377.5 1869.5,-377.5 1869.5,-358.5 1674.5,-358.5"/>
<text text-anchor="middle" x="1772" y="-365.5" font-family="Helvetica,sans-Serif" font-size="10.00" fill="#000000">acceleration/impl/Preconditioner.hpp</text>
</a>
</g>
</g>
<!-- Node0&#45;&gt;Node72 -->
<g id="edge91" class="edge">
<title>Node0&#45;&gt;Node72</title>
<path fill="none" stroke="#191970" d="M1280.2028,-653.9497C1397.5421,-647.3937 1579.4789,-634.2119 1645,-613 1700.3336,-595.0862 1758,-605.1611 1758,-547 1758,-547 1758,-547 1758,-485.5 1758,-450.8969 1764.0607,-410.9617 1768.2068,-387.6911"/>
<polygon fill="#191970" stroke="#191970" points="1771.6771,-388.172 1770.0534,-377.7023 1764.7937,-386.8994 1771.6771,-388.172"/>
</g>
<!-- Node73 -->
<g id="node43" class="node">
<title>Node73</title>
<g id="a_node43"><a xlink:href="Communication_8hpp.html" target="_top" xlink:title="com/Communication.hpp">
<polygon fill="#ffffff" stroke="#000000" points="1376.5,-302.5 1376.5,-321.5 1515.5,-321.5 1515.5,-302.5 1376.5,-302.5"/>
<text text-anchor="middle" x="1446" y="-309.5" font-family="Helvetica,sans-Serif" font-size="10.00" fill="#000000">com/Communication.hpp</text>
</a>
</g>
</g>
<!-- Node0&#45;&gt;Node73 -->
<g id="edge100" class="edge">
<title>Node0&#45;&gt;Node73</title>
<path fill="none" stroke="#191970" d="M1252.438,-649.4561C1335.7705,-634.3925 1463.0654,-596.2292 1513,-501 1519.3983,-488.798 1518.8297,-482.4837 1513,-470 1502.4539,-447.4165 1482.6863,-455.4544 1470,-434 1450.944,-401.7734 1446.6927,-357.2161 1445.9325,-331.8277"/>
<polygon fill="#191970" stroke="#191970" points="1449.4294,-331.5743 1445.7883,-321.6248 1442.4301,-331.6733 1449.4294,-331.5743"/>
</g>
<!-- Node38 -->
<g id="node45" class="node">
<title>Node38</title>
<g id="a_node45"><a xlink:href="com_2SharedPointer_8hpp.html" target="_top" xlink:title="com/SharedPointer.hpp">
<polygon fill="#ffffff" stroke="#000000" points="667.5,-179.5 667.5,-198.5 796.5,-198.5 796.5,-179.5 667.5,-179.5"/>
<text text-anchor="middle" x="732" y="-186.5" font-family="Helvetica,sans-Serif" font-size="10.00" fill="#000000">com/SharedPointer.hpp</text>
</a>
</g>
</g>
<!-- Node0&#45;&gt;Node38 -->
<g id="edge111" class="edge">
<title>Node0&#45;&gt;Node38</title>
<path fill="none" stroke="#191970" d="M1069.6962,-656.6829C864.802,-651.6756 419.345,-638.2104 268,-613 163.0978,-595.5258 38,-653.3477 38,-547 38,-547 38,-547 38,-424 38,-355.2776 75.1586,-339.1098 133,-302 219.0279,-246.8063 516.2726,-210.5691 657.0047,-196.1056"/>
<polygon fill="#191970" stroke="#191970" points="657.6762,-199.5554 667.2703,-195.0607 656.9673,-192.5914 657.6762,-199.5554"/>
</g>
<!-- Node75 -->
<g id="node46" class="node">
<title>Node75</title>
<g id="a_node46"><a xlink:href="EigenHelperFunctions_8hpp.html" target="_top" xlink:title="utils/EigenHelperFunctions.hpp">
<polygon fill="#ffffff" stroke="#000000" points="1902.5,-476 1902.5,-495 2069.5,-495 2069.5,-476 1902.5,-476"/>
<text text-anchor="middle" x="1986" y="-483" font-family="Helvetica,sans-Serif" font-size="10.00" fill="#000000">utils/EigenHelperFunctions.hpp</text>
</a>
</g>
</g>
<!-- Node0&#45;&gt;Node75 -->
<g id="edge115" class="edge">
<title>Node0&#45;&gt;Node75</title>
<path fill="none" stroke="#191970" d="M1280.164,-656.6612C1426.4148,-652.425 1683.2532,-641.1456 1772,-613 1850.2861,-588.172 1930.1876,-530.0168 1966.227,-501.6428"/>
<polygon fill="#191970" stroke="#191970" points="1968.7824,-504.0816 1974.4169,-495.1092 1964.4169,-498.6095 1968.7824,-504.0816"/>
</g>
<!-- Node78 -->
<g id="node49" class="node">
<title>Node78</title>
<g id="a_node49"><a xlink:href="Helpers_8hpp.html" target="_top" xlink:title="utils/Helpers.hpp">
<polygon fill="#ffffff" stroke="#000000" points="1478.5,-414.5 1478.5,-433.5 1577.5,-433.5 1577.5,-414.5 1478.5,-414.5"/>
<text text-anchor="middle" x="1528" y="-421.5" font-family="Helvetica,sans-Serif" font-size="10.00" fill="#000000">utils/Helpers.hpp</text>
</a>
</g>
</g>
<!-- Node0&#45;&gt;Node78 -->
<g id="edge123" class="edge">
<title>Node0&#45;&gt;Node78</title>
<path fill="none" stroke="#191970" d="M1280.037,-653.8089C1389.9107,-647.2776 1549.078,-634.266 1568,-613 1610.2476,-565.519 1590.2623,-529.529 1568,-470 1563.8851,-458.9969 1555.8185,-448.8874 1548.0006,-440.9652"/>
<polygon fill="#191970" stroke="#191970" points="1550.0985,-438.1329 1540.4212,-433.82 1545.2968,-443.2264 1550.0985,-438.1329"/>
</g>
<!-- Node79 -->
<g id="node50" class="node">
<title>Node79</title>
<g id="a_node50"><a xlink:href="MasterSlave_8hpp.html" target="_top" xlink:title="utils/MasterSlave.hpp">
<polygon fill="#ffffff" stroke="#000000" points="304,-302.5 304,-321.5 426,-321.5 426,-302.5 304,-302.5"/>
<text text-anchor="middle" x="365" y="-309.5" font-family="Helvetica,sans-Serif" font-size="10.00" fill="#000000">utils/MasterSlave.hpp</text>
</a>
</g>
</g>
<!-- Node0&#45;&gt;Node79 -->
<g id="edge129" class="edge">
<title>Node0&#45;&gt;Node79</title>
<path fill="none" stroke="#191970" d="M1069.8053,-657.046C872.3901,-652.7503 460.8945,-640.5854 402,-613 365.5537,-595.929 340,-587.2462 340,-547 340,-547 340,-547 340,-485.5 340,-429.1485 353.0795,-363.5446 360.3174,-331.5551"/>
<polygon fill="#191970" stroke="#191970" points="363.7503,-332.2446 362.6029,-321.7121 356.9317,-330.6613 363.7503,-332.2446"/>
</g>
<!-- Node1&#45;&gt;Node2 -->
<g id="edge2" class="edge">
<title>Node1&#45;&gt;Node2</title>
<path fill="none" stroke="#191970" d="M1132.0154,-593.4814C1074.0221,-579.3733 968.9041,-549.2598 890,-501 872.8333,-490.5004 875.1775,-478.6322 857,-470 747.6426,-418.0678 681.7187,-509.3948 587,-434 538.1561,-395.121 557.5331,-308.5208 569.3932,-269.8263"/>
<polygon fill="#191970" stroke="#191970" points="572.7393,-270.8538 572.4762,-260.2622 566.0769,-268.7062 572.7393,-270.8538"/>
</g>
<!-- Node3 -->
<g id="node4" class="node">
<title>Node3</title>
<polygon fill="#ffffff" stroke="#bfbfbf" points="1384,-358.5 1384,-377.5 1422,-377.5 1422,-358.5 1384,-358.5"/>
<text text-anchor="middle" x="1403" y="-365.5" font-family="Helvetica,sans-Serif" font-size="10.00" fill="#000000">map</text>
</g>
<!-- Node1&#45;&gt;Node3 -->
<g id="edge3" class="edge">
<title>Node1&#45;&gt;Node3</title>
<path fill="none" stroke="#191970" d="M1233.1886,-593.491C1317.778,-578.283 1467.832,-545.5983 1497,-501 1504.5412,-489.4693 1503.8318,-481.9647 1497,-470 1481.3903,-442.6623 1457.4731,-457.02 1436,-434 1423.4659,-420.5629 1414.6176,-401.4635 1409.2597,-387.2655"/>
<polygon fill="#191970" stroke="#191970" points="1412.4585,-385.8113 1405.8396,-377.5385 1405.8548,-388.1333 1412.4585,-385.8113"/>
</g>
<!-- Node4 -->
<g id="node5" class="node">
<title>Node4</title>
<polygon fill="#ffffff" stroke="#bfbfbf" points="1648.5,-179.5 1648.5,-198.5 1695.5,-198.5 1695.5,-179.5 1648.5,-179.5"/>
<text text-anchor="middle" x="1672" y="-186.5" font-family="Helvetica,sans-Serif" font-size="10.00" fill="#000000">vector</text>
</g>
<!-- Node1&#45;&gt;Node4 -->
<g id="edge4" class="edge">
<title>Node1&#45;&gt;Node4</title>
<path fill="none" stroke="#191970" d="M1239.4139,-593.4706C1403.6979,-567.6789 1830.8654,-490.7759 1909,-378 1951.7668,-316.2723 1885.3429,-270.1843 1819,-235 1773.3981,-210.8155 1755.2954,-215.2739 1705.4137,-200.2908"/>
<polygon fill="#191970" stroke="#191970" points="1706.305,-196.9024 1695.7161,-197.2556 1704.2141,-203.5829 1706.305,-196.9024"/>
</g>
<!-- Node5 -->
<g id="node6" class="node">
<title>Node5</title>
<g id="a_node6"><a xlink:href="Acceleration_8hpp.html" target="_top" xlink:title="acceleration/Acceleration.hpp">
<polygon fill="#ffffff" stroke="#000000" points="994.5,-476 994.5,-495 1155.5,-495 1155.5,-476 994.5,-476"/>
<text text-anchor="middle" x="1075" y="-483" font-family="Helvetica,sans-Serif" font-size="10.00" fill="#000000">acceleration/Acceleration.hpp</text>
</a>
</g>
</g>
<!-- Node1&#45;&gt;Node5 -->
<g id="edge5" class="edge">
<title>Node1&#45;&gt;Node5</title>
<path fill="none" stroke="#191970" d="M1166.8166,-593.3845C1149.9692,-573.5889 1111.2019,-528.0372 1089.8232,-502.9173"/>
<polygon fill="#191970" stroke="#191970" points="1092.4431,-500.5954 1083.2965,-495.2484 1087.1123,-505.1322 1092.4431,-500.5954"/>
</g>
<!-- Node68 -->
<g id="node36" class="node">
<title>Node68</title>
<g id="a_node36"><a xlink:href="BaseQNAcceleration_8hpp.html" target="_top" xlink:title="acceleration/BaseQNAcceleration.hpp">
<polygon fill="#ffffff" stroke="#000000" points="1160,-537.5 1160,-556.5 1360,-556.5 1360,-537.5 1160,-537.5"/>
<text text-anchor="middle" x="1260" y="-544.5" font-family="Helvetica,sans-Serif" font-size="10.00" fill="#000000">acceleration/BaseQNAcceleration.hpp</text>
</a>
</g>
</g>
<!-- Node1&#45;&gt;Node68 -->
<g id="edge65" class="edge">
<title>Node1&#45;&gt;Node68</title>
<path fill="none" stroke="#191970" d="M1189.8059,-593.2455C1202.7256,-584.7337 1221.6931,-572.2375 1236.6552,-562.3801"/>
<polygon fill="#191970" stroke="#191970" points="1238.9387,-565.067 1245.3638,-556.6427 1235.0876,-559.2216 1238.9387,-565.067"/>
</g>
<!-- Node1&#45;&gt;Node71 -->
<g id="edge86" class="edge">
<title>Node1&#45;&gt;Node71</title>
<path fill="none" stroke="#191970" d="M1077.722,-594.675C1000.4887,-586.9673 899.4685,-574.1164 862,-557 837.1725,-545.6583 814.0966,-524.562 798.6113,-508.2126"/>
<polygon fill="#191970" stroke="#191970" points="800.9881,-505.6264 791.6447,-500.6313 795.8339,-510.3628 800.9881,-505.6264"/>
</g>
<!-- Node5&#45;&gt;Node2 -->
<g id="edge6" class="edge">
<title>Node5&#45;&gt;Node2</title>
<path fill="none" stroke="#191970" d="M994.4255,-476.7194C867.1493,-462.7748 633.5189,-436.8425 630,-434 579.8996,-393.5306 574.717,-309.0654 575.1487,-270.4899"/>
<polygon fill="#191970" stroke="#191970" points="578.6579,-270.1787 575.4195,-260.0909 571.6603,-269.9964 578.6579,-270.1787"/>
</g>
<!-- Node5&#45;&gt;Node3 -->
<g id="edge7" class="edge">
<title>Node5&#45;&gt;Node3</title>
<path fill="none" stroke="#191970" d="M1101.5638,-475.984C1162.3849,-454.196 1311.3371,-400.8365 1374.2295,-378.3065"/>
<polygon fill="#191970" stroke="#191970" points="1375.6692,-381.5086 1383.903,-374.8412 1373.3084,-374.9187 1375.6692,-381.5086"/>
</g>
<!-- Node5&#45;&gt;Node4 -->
<g id="edge8" class="edge">
<title>Node5&#45;&gt;Node4</title>
<path fill="none" stroke="#191970" d="M1092.0196,-475.9529C1118.1796,-461.4899 1170.068,-433.6351 1216,-414 1284.8909,-384.5505 1302.402,-376.514 1375,-358 1471.8556,-333.2998 1508.0227,-367.5428 1597,-322 1628.3323,-305.9626 1635.7047,-296.656 1653,-266 1663.1146,-248.0717 1667.8954,-224.8232 1670.1226,-208.5825"/>
<polygon fill="#191970" stroke="#191970" points="1673.6035,-208.9494 1671.2908,-198.6101 1666.651,-208.135 1673.6035,-208.9494"/>
</g>
<!-- Node6 -->
<g id="node7" class="node">
<title>Node6</title>
<g id="a_node7"><a xlink:href="BaseCouplingScheme_8hpp.html" target="_top" xlink:title="cplscheme/BaseCouplingScheme.hpp">
<polygon fill="#ffffff" stroke="#ff0000" points="738.5,-414.5 738.5,-433.5 937.5,-433.5 937.5,-414.5 738.5,-414.5"/>
<text text-anchor="middle" x="838" y="-421.5" font-family="Helvetica,sans-Serif" font-size="10.00" fill="#000000">cplscheme/BaseCouplingScheme.hpp</text>
</a>
</g>
</g>
<!-- Node5&#45;&gt;Node6 -->
<g id="edge9" class="edge">
<title>Node5&#45;&gt;Node6</title>
<path fill="none" stroke="#191970" d="M1038.2288,-475.9581C996.8894,-465.2308 929.6767,-447.7895 884.6678,-436.11"/>
<polygon fill="#191970" stroke="#191970" points="885.416,-432.6883 874.8575,-433.5643 883.6578,-439.4639 885.416,-432.6883"/>
</g>
<!-- Node5&#45;&gt;Node39 -->
<g id="edge64" class="edge">
<title>Node5&#45;&gt;Node39</title>
<path fill="none" stroke="#191970" d="M994.1731,-478.7753C877.2552,-468.7242 666.7636,-449.3254 592,-434 454.994,-405.9158 297.6986,-350.3542 229.5069,-325.074"/>
<polygon fill="#191970" stroke="#191970" points="230.6981,-321.7828 220.1054,-321.5707 228.2538,-328.3422 230.6981,-321.7828"/>
</g>
<!-- Node6&#45;&gt;Node2 -->
<g id="edge10" class="edge">
<title>Node6&#45;&gt;Node2</title>
<path fill="none" stroke="#191970" d="M818.4499,-414.4395C784.7233,-397.606 713.941,-360.7703 659,-322 635.1808,-305.1915 610.1292,-282.878 593.8604,-267.6779"/>
<polygon fill="#191970" stroke="#191970" points="595.8784,-264.7693 586.2065,-260.4444 591.0703,-269.8568 595.8784,-264.7693"/>
</g>
<!-- Node6&#45;&gt;Node3 -->
<g id="edge12" class="edge">
<title>Node6&#45;&gt;Node3</title>
<path fill="none" stroke="#191970" d="M934.1646,-414.4686C1065.0376,-401.4972 1292.2186,-378.9801 1373.2387,-370.9498"/>
<polygon fill="#191970" stroke="#191970" points="1374.0697,-374.3847 1383.6757,-369.9153 1373.3792,-367.4188 1374.0697,-374.3847"/>
</g>
<!-- Node6&#45;&gt;Node4 -->
<g id="edge16" class="edge">
<title>Node6&#45;&gt;Node4</title>
<path fill="none" stroke="#191970" d="M937.5616,-420.1814C1015.7996,-415.2449 1126.8971,-403.9301 1221,-378 1242.1,-372.1859 1244.8952,-363.7966 1266,-358 1397.1966,-321.9658 1450.9857,-387.9289 1570,-322 1617.1331,-295.8902 1649.4468,-237.9685 1663.72,-207.9148"/>
<polygon fill="#191970" stroke="#191970" points="1667.0296,-209.0938 1668.011,-198.5445 1660.6651,-206.1793 1667.0296,-209.0938"/>
</g>
<!-- Node6&#45;&gt;Node7 -->
<g id="edge11" class="edge">
<title>Node6&#45;&gt;Node7</title>
<path fill="none" stroke="#191970" d="M937.5474,-416.9076C1110.7473,-404.5676 1460.6181,-379.6404 1581.6572,-371.0168"/>
<polygon fill="#191970" stroke="#191970" points="1581.9213,-374.5069 1591.6473,-370.305 1581.4238,-367.5246 1581.9213,-374.5069"/>
</g>
<!-- Node6&#45;&gt;Node8 -->
<g id="edge13" class="edge">
<title>Node6&#45;&gt;Node8</title>
<path fill="none" stroke="#191970" d="M793.8196,-414.4454C731.5501,-401.1054 614.3535,-376.4625 514,-358 465.4942,-349.0762 326.9209,-359.5966 295,-322 239.377,-256.487 367.9244,-178.7086 428.0784,-147.2523"/>
<polygon fill="#191970" stroke="#191970" points="429.8138,-150.2957 437.1069,-142.6105 426.6131,-144.0703 429.8138,-150.2957"/>
</g>
<!-- Node9 -->
<g id="node10" class="node">
<title>Node9</title>
<polygon fill="#ffffff" stroke="#bfbfbf" points="1574,-241 1574,-260 1606,-260 1606,-241 1574,-241"/>
<text text-anchor="middle" x="1590" y="-248" font-family="Helvetica,sans-Serif" font-size="10.00" fill="#000000">set</text>
</g>
<!-- Node6&#45;&gt;Node9 -->
<g id="edge14" class="edge">
<title>Node6&#45;&gt;Node9</title>
<path fill="none" stroke="#191970" d="M937.6153,-418.8276C1007.8856,-413.2472 1103.6115,-401.719 1185,-378 1205.2354,-372.1028 1207.7083,-363.7004 1228,-358 1365.3605,-319.4121 1426.946,-399.0971 1547,-322 1565.6966,-309.9933 1577.4261,-286.7032 1583.825,-269.9632"/>
<polygon fill="#191970" stroke="#191970" points="1587.2795,-270.6877 1587.2798,-260.0928 1580.6726,-268.375 1587.2795,-270.6877"/>
</g>
<!-- Node10 -->
<g id="node11" class="node">
<title>Node10</title>
<polygon fill="#ffffff" stroke="#bfbfbf" points="1314,-.5 1314,-19.5 1358,-19.5 1358,-.5 1314,-.5"/>
<text text-anchor="middle" x="1336" y="-7.5" font-family="Helvetica,sans-Serif" font-size="10.00" fill="#000000">string</text>
</g>
<!-- Node6&#45;&gt;Node10 -->
<g id="edge15" class="edge">
<title>Node6&#45;&gt;Node10</title>
<path fill="none" stroke="#191970" d="M738.4128,-416.1489C570.6742,-401.8412 239.6532,-368.6383 133,-322 84.5824,-300.8275 38,-303.3445 38,-250.5 38,-250.5 38,-250.5 38,-133 38,-67.3964 1102.7385,-19.7312 1303.5492,-11.3249"/>
<polygon fill="#191970" stroke="#191970" points="1303.898,-14.8135 1313.7439,-10.9009 1303.607,-7.8196 1303.898,-14.8135"/>
</g>
<!-- Node6&#45;&gt;Node12 -->
<g id="edge17" class="edge">
<title>Node6&#45;&gt;Node12</title>
<path fill="none" stroke="#191970" d="M836.2581,-414.2455C834.9533,-406.9382 833.124,-396.6944 831.5187,-387.7046"/>
<polygon fill="#191970" stroke="#191970" points="834.9254,-386.8717 829.7219,-377.6427 828.0344,-388.1022 834.9254,-386.8717"/>
</g>
<!-- Node15 -->
<g id="node15" class="node">
<title>Node15</title>
<g id="a_node15"><a xlink:href="Logger_8hpp.html" target="_top" xlink:title="logging/Logger.hpp">
<polygon fill="#ffffff" stroke="#000000" points="998.5,-179.5 998.5,-198.5 1107.5,-198.5 1107.5,-179.5 998.5,-179.5"/>
<text text-anchor="middle" x="1053" y="-186.5" font-family="Helvetica,sans-Serif" font-size="10.00" fill="#000000">logging/Logger.hpp</text>
</a>
</g>
</g>
<!-- Node6&#45;&gt;Node15 -->
<g id="edge61" class="edge">
<title>Node6&#45;&gt;Node15</title>
<path fill="none" stroke="#191970" d="M850.4013,-414.4651C868.0433,-401.095 901.6222,-376.3576 932,-358 961.9417,-339.906 978.6446,-348.0466 1002,-322 1031.6009,-288.9882 1044.7552,-236.9774 1049.9804,-208.7739"/>
<polygon fill="#191970" stroke="#191970" points="1053.4871,-209.029 1051.7109,-198.5842 1046.5859,-207.857 1053.4871,-209.029"/>
</g>
<!-- Node27 -->
<g id="node27" class="node">
<title>Node27</title>
<g id="a_node27"><a xlink:href="mesh_2SharedPointer_8hpp.html" target="_top" xlink:title="mesh/SharedPointer.hpp">
<polygon fill="#ffffff" stroke="#000000" points="710.5,-302.5 710.5,-321.5 845.5,-321.5 845.5,-302.5 710.5,-302.5"/>
<text text-anchor="middle" x="778" y="-309.5" font-family="Helvetica,sans-Serif" font-size="10.00" fill="#000000">mesh/SharedPointer.hpp</text>
</a>
</g>
</g>
<!-- Node6&#45;&gt;Node27 -->
<g id="edge62" class="edge">
<title>Node6&#45;&gt;Node27</title>
<path fill="none" stroke="#191970" d="M811.399,-414.397C795.4127,-407.0839 776.4002,-395.291 767,-378 759.1301,-363.5238 763.3582,-344.8274 768.694,-331.0316"/>
<polygon fill="#191970" stroke="#191970" points="772.0228,-332.1539 772.8082,-321.5882 765.6054,-329.358 772.0228,-332.1539"/>
</g>
<!-- Node6&#45;&gt;Node28 -->
<g id="edge63" class="edge">
<title>Node6&#45;&gt;Node28</title>
<path fill="none" stroke="#191970" d="M937.7297,-421.2431C1161.6045,-414.7857 1698.6044,-397.7259 1879,-378 1930.1357,-372.4084 1942.1334,-365.6627 1993,-358 2098.4085,-342.1209 2221.5147,-327.3947 2294.4395,-319.0674"/>
<polygon fill="#191970" stroke="#191970" points="2294.8491,-322.5435 2304.3894,-317.9354 2294.0578,-315.5884 2294.8491,-322.5435"/>
</g>
<!-- Node6&#45;&gt;Node39 -->
<g id="edge59" class="edge">
<title>Node6&#45;&gt;Node39</title>
<path fill="none" stroke="#191970" d="M776.7207,-414.4595C719.1602,-405.4067 630.657,-391.2531 554,-378 448.6541,-359.787 326.2481,-336.9163 255.0164,-323.4363"/>
<polygon fill="#191970" stroke="#191970" points="255.3629,-319.9398 244.8862,-321.5172 254.06,-326.8174 255.3629,-319.9398"/>
</g>
<!-- Node12&#45;&gt;Node2 -->
<g id="edge18" class="edge">
<title>Node12&#45;&gt;Node2</title>
<path fill="none" stroke="#191970" d="M797.1284,-358.4716C771.0368,-350.0299 732.9212,-336.7768 701,-322 664.3858,-305.0508 624.2591,-281.0566 599.5992,-265.6356"/>
<polygon fill="#191970" stroke="#191970" points="601.2704,-262.5516 590.945,-260.1776 597.5363,-268.4725 601.2704,-262.5516"/>
</g>
<!-- Node13 -->
<g id="node13" class="node">
<title>Node13</title>
<g id="a_node13"><a xlink:href="Data_8hpp.html" target="_top" xlink:title="mesh/Data.hpp">
<polygon fill="#ffffff" stroke="#000000" points="902.5,-302.5 902.5,-321.5 993.5,-321.5 993.5,-302.5 902.5,-302.5"/>
<text text-anchor="middle" x="948" y="-309.5" font-family="Helvetica,sans-Serif" font-size="10.00" fill="#000000">mesh/Data.hpp</text>
</a>
</g>
</g>
<!-- Node12&#45;&gt;Node13 -->
<g id="edge19" class="edge">
<title>Node12&#45;&gt;Node13</title>
<path fill="none" stroke="#191970" d="M848.6287,-358.3733C867.8919,-349.3838 896.8486,-335.8706 918.5419,-325.7471"/>
<polygon fill="#191970" stroke="#191970" points="920.0587,-328.9017 927.6405,-321.5011 917.0985,-322.5584 920.0587,-328.9017"/>
</g>
<!-- Node12&#45;&gt;Node27 -->
<g id="edge40" class="edge">
<title>Node12&#45;&gt;Node27</title>
<path fill="none" stroke="#191970" d="M819.2907,-358.2455C812.1927,-350.2958 801.9916,-338.8706 793.505,-329.3656"/>
<polygon fill="#191970" stroke="#191970" points="795.8805,-326.771 786.6095,-321.6427 790.6589,-331.4331 795.8805,-326.771"/>
</g>
<!-- Node12&#45;&gt;Node28 -->
<g id="edge42" class="edge">
<title>Node12&#45;&gt;Node28</title>
<path fill="none" stroke="#191970" d="M880.0133,-363.7133C905.5959,-361.7299 936.8988,-359.489 965,-358 1477.1596,-330.8625 2096.1489,-317.1287 2293.973,-313.2064"/>
<polygon fill="#191970" stroke="#191970" points="2294.2551,-316.7016 2304.1842,-313.0053 2294.1172,-309.703 2294.2551,-316.7016"/>
</g>
<!-- Node13&#45;&gt;Node2 -->
<g id="edge20" class="edge">
<title>Node13&#45;&gt;Node2</title>
<path fill="none" stroke="#191970" d="M902.4645,-304.4031C897.582,-303.5908 892.6881,-302.7776 888,-302 792.7721,-286.205 681.1738,-267.8126 620.6146,-257.8418"/>
<polygon fill="#191970" stroke="#191970" points="621.0656,-254.369 610.6299,-256.198 619.9285,-261.2761 621.0656,-254.369"/>
</g>
<!-- Node13&#45;&gt;Node10 -->
<g id="edge22" class="edge">
<title>Node13&#45;&gt;Node10</title>
<path fill="none" stroke="#191970" d="M928.6615,-302.4425C896.1367,-284.8461 834,-244.0282 834,-189 834,-189 834,-189 834,-133 834,-35.9574 1192.3655,-15.0929 1303.5222,-10.9554"/>
<polygon fill="#191970" stroke="#191970" points="1303.9108,-14.444 1313.782,-10.5955 1303.6654,-7.4483 1303.9108,-14.444"/>
</g>
<!-- Node14 -->
<g id="node14" class="node">
<title>Node14</title>
<polygon fill="#ffffff" stroke="#bfbfbf" points="900,-241 900,-260 956,-260 956,-241 900,-241"/>
<text text-anchor="middle" x="928" y="-248" font-family="Helvetica,sans-Serif" font-size="10.00" fill="#000000">stddef.h</text>
</g>
<!-- Node13&#45;&gt;Node14 -->
<g id="edge21" class="edge">
<title>Node13&#45;&gt;Node14</title>
<path fill="none" stroke="#191970" d="M944.875,-302.3906C942.0735,-293.776 937.8767,-280.8708 934.3694,-270.0858"/>
<polygon fill="#191970" stroke="#191970" points="937.5902,-268.6722 931.1691,-260.2449 930.9333,-270.8371 937.5902,-268.6722"/>
</g>
<!-- Node13&#45;&gt;Node15 -->
<g id="edge23" class="edge">
<title>Node13&#45;&gt;Node15</title>
<path fill="none" stroke="#191970" d="M928.79,-302.4505C915.4734,-294.663 898.7875,-282.2917 891,-266 885.0581,-253.5693 882.6941,-245.9927 891,-235 903.0644,-219.033 948.5525,-206.9885 988.2669,-199.2373"/>
<polygon fill="#191970" stroke="#191970" points="989.0383,-202.6536 998.2156,-197.3594 987.7399,-195.7751 989.0383,-202.6536"/>
</g>
<!-- Node15&#45;&gt;Node8 -->
<g id="edge24" class="edge">
<title>Node15&#45;&gt;Node8</title>
<path fill="none" stroke="#191970" d="M998.2638,-183.857C879.3273,-172.6818 599.7057,-146.4086 496.324,-136.6949"/>
<polygon fill="#191970" stroke="#191970" points="496.5934,-133.2049 486.3098,-135.7539 495.9385,-140.1742 496.5934,-133.2049"/>
</g>
<!-- Node15&#45;&gt;Node10 -->
<g id="edge25" class="edge">
<title>Node15&#45;&gt;Node10</title>
<path fill="none" stroke="#191970" d="M1054.9936,-179.4821C1060.6824,-154.8212 1079.4051,-88.514 1122,-56 1150.1892,-34.4823 1251.0245,-19.8895 1303.5942,-13.5616"/>
<polygon fill="#191970" stroke="#191970" points="1304.2086,-17.0137 1313.7325,-12.3719 1303.3927,-10.0614 1304.2086,-17.0137"/>
</g>
<!-- Node15&#45;&gt;Node16 -->
<g id="edge26" class="edge">
<title>Node15&#45;&gt;Node16</title>
<path fill="none" stroke="#191970" d="M1107.7698,-185.8893C1280.3635,-176.0869 1811.6819,-145.9106 1984.2493,-136.1096"/>
<polygon fill="#191970" stroke="#191970" points="1984.5845,-139.5963 1994.3699,-135.5348 1984.1875,-132.6075 1984.5845,-139.5963"/>
</g>
<!-- Node16&#45;&gt;Node10 -->
<g id="edge33" class="edge">
<title>Node16&#45;&gt;Node10</title>
<path fill="none" stroke="#191970" d="M1994.4866,-130.4529C1907.2111,-125.0031 1716.8285,-110.7391 1656,-87 1634.0524,-78.4347 1634.7492,-65.0573 1613,-56 1569.1823,-37.7525 1431.7451,-20.6488 1368.472,-13.5074"/>
<polygon fill="#191970" stroke="#191970" points="1368.5941,-9.9994 1358.2679,-12.3698 1367.8184,-16.9563 1368.5941,-9.9994"/>
</g>
<!-- Node17 -->
<g id="node17" class="node">
<title>Node17</title>
<polygon fill="#ffffff" stroke="#bfbfbf" points="2357,-56.5 2357,-86.5 2467,-86.5 2467,-56.5 2357,-56.5"/>
<text text-anchor="start" x="2365" y="-74.5" font-family="Helvetica,sans-Serif" font-size="10.00" fill="#000000">boost/preprocessor</text>
<text text-anchor="middle" x="2412" y="-63.5" font-family="Helvetica,sans-Serif" font-size="10.00" fill="#000000">/control/if.hpp</text>
</g>
<!-- Node16&#45;&gt;Node17 -->
<g id="edge27" class="edge">
<title>Node16&#45;&gt;Node17</title>
<path fill="none" stroke="#191970" d="M2083.7332,-127.6225C2142.0799,-120.326 2247.5025,-106.1786 2346.9937,-87.097"/>
<polygon fill="#191970" stroke="#191970" points="2347.7599,-90.5137 2356.911,-85.1744 2346.4277,-83.6416 2347.7599,-90.5137"/>
</g>
<!-- Node18 -->
<g id="node18" class="node">
<title>Node18</title>
<polygon fill="#ffffff" stroke="#bfbfbf" points="1981,-56.5 1981,-86.5 2097,-86.5 2097,-56.5 1981,-56.5"/>
<text text-anchor="start" x="1989" y="-74.5" font-family="Helvetica,sans-Serif" font-size="10.00" fill="#000000">boost/preprocessor</text>
<text text-anchor="middle" x="2039" y="-63.5" font-family="Helvetica,sans-Serif" font-size="10.00" fill="#000000">/facilities/empty.hpp</text>
</g>
<!-- Node16&#45;&gt;Node18 -->
<g id="edge28" class="edge">
<title>Node16&#45;&gt;Node18</title>
<path fill="none" stroke="#191970" d="M2039,-123.3906C2039,-116.2234 2039,-106.0862 2039,-96.671"/>
<polygon fill="#191970" stroke="#191970" points="2042.5001,-96.5446 2039,-86.5446 2035.5001,-96.5446 2042.5001,-96.5446"/>
</g>
<!-- Node19 -->
<g id="node19" class="node">
<title>Node19</title>
<polygon fill="#ffffff" stroke="#bfbfbf" points="2485.5,-56.5 2485.5,-86.5 2596.5,-86.5 2596.5,-56.5 2485.5,-56.5"/>
<text text-anchor="start" x="2493.5" y="-74.5" font-family="Helvetica,sans-Serif" font-size="10.00" fill="#000000">boost/preprocessor</text>
<text text-anchor="middle" x="2541" y="-63.5" font-family="Helvetica,sans-Serif" font-size="10.00" fill="#000000">/seq/for_each_i.hpp</text>
</g>
<!-- Node16&#45;&gt;Node19 -->
<g id="edge29" class="edge">
<title>Node16&#45;&gt;Node19</title>
<path fill="none" stroke="#191970" d="M2083.6125,-130.2156C2161.1863,-124.959 2326.0718,-111.9537 2475.1764,-86.9905"/>
<polygon fill="#191970" stroke="#191970" points="2476.1547,-90.3747 2485.4281,-85.2508 2474.9835,-83.4733 2476.1547,-90.3747"/>
</g>
<!-- Node20 -->
<g id="node20" class="node">
<title>Node20</title>
<polygon fill="#ffffff" stroke="#bfbfbf" points="2615,-56.5 2615,-86.5 2725,-86.5 2725,-56.5 2615,-56.5"/>
<text text-anchor="start" x="2623" y="-74.5" font-family="Helvetica,sans-Serif" font-size="10.00" fill="#000000">boost/preprocessor</text>
<text text-anchor="middle" x="2670" y="-63.5" font-family="Helvetica,sans-Serif" font-size="10.00" fill="#000000">/stringize.hpp</text>
</g>
<!-- Node16&#45;&gt;Node20 -->
<g id="edge30" class="edge">
<title>Node16&#45;&gt;Node20</title>
<path fill="none" stroke="#191970" d="M2083.758,-131.7503C2178.3254,-128.5979 2405.4656,-118.3252 2604.8783,-87.015"/>
<polygon fill="#191970" stroke="#191970" points="2605.6277,-90.4398 2614.9531,-85.4112 2604.5272,-83.5268 2605.6277,-90.4398"/>
</g>
<!-- Node21 -->
<g id="node21" class="node">
<title>Node21</title>
<polygon fill="#ffffff" stroke="#bfbfbf" points="2223.5,-56.5 2223.5,-86.5 2338.5,-86.5 2338.5,-56.5 2223.5,-56.5"/>
<text text-anchor="start" x="2231.5" y="-74.5" font-family="Helvetica,sans-Serif" font-size="10.00" fill="#000000">boost/preprocessor</text>
<text text-anchor="middle" x="2281" y="-63.5" font-family="Helvetica,sans-Serif" font-size="10.00" fill="#000000">/variadic/to_seq.hpp</text>
</g>
<!-- Node16&#45;&gt;Node21 -->
<g id="edge31" class="edge">
<title>Node16&#45;&gt;Node21</title>
<path fill="none" stroke="#191970" d="M2076.547,-123.4581C2112.9575,-114.205 2169.0247,-99.9565 2213.2427,-88.7193"/>
<polygon fill="#191970" stroke="#191970" points="2214.2286,-92.0801 2223.0584,-86.2248 2212.5044,-85.2958 2214.2286,-92.0801"/>
</g>
<!-- Node22 -->
<g id="node22" class="node">
<title>Node22</title>
<polygon fill="#ffffff" stroke="#bfbfbf" points="1665,-62 1665,-81 1801,-81 1801,-62 1665,-62"/>
<text text-anchor="middle" x="1733" y="-69" font-family="Helvetica,sans-Serif" font-size="10.00" fill="#000000">boost/vmd/is_empty.hpp</text>
</g>
<!-- Node16&#45;&gt;Node22 -->
<g id="edge32" class="edge">
<title>Node16&#45;&gt;Node22</title>
<path fill="none" stroke="#191970" d="M1994.2412,-124.0148C1948.0793,-114.7466 1874.0061,-99.8707 1810,-87 1803.6833,-85.7298 1797.0753,-84.4005 1790.4987,-83.0771"/>
<polygon fill="#191970" stroke="#191970" points="1790.7301,-79.5536 1780.2361,-81.0117 1789.349,-86.416 1790.7301,-79.5536"/>
</g>
<!-- Node23 -->
<g id="node23" class="node">
<title>Node23</title>
<g id="a_node23"><a xlink:href="Tracer_8hpp.html" target="_top" xlink:title="logging/Tracer.hpp">
<polygon fill="#ffffff" stroke="#000000" points="1164.5,-62 1164.5,-81 1269.5,-81 1269.5,-62 1164.5,-62"/>
<text text-anchor="middle" x="1217" y="-69" font-family="Helvetica,sans-Serif" font-size="10.00" fill="#000000">logging/Tracer.hpp</text>
</a>
</g>
</g>
<!-- Node16&#45;&gt;Node23 -->
<g id="edge34" class="edge">
<title>Node16&#45;&gt;Node23</title>
<path fill="none" stroke="#191970" d="M1994.222,-129.6498C1856.5344,-119.3484 1439.1162,-88.1182 1279.7539,-76.1951"/>
<polygon fill="#191970" stroke="#191970" points="1279.8692,-72.694 1269.6359,-75.4381 1279.3468,-79.6745 1279.8692,-72.694"/>
</g>
<!-- Node24 -->
<g id="node24" class="node">
<title>Node24</title>
<polygon fill="#ffffff" stroke="#bfbfbf" points="1819,-62 1819,-81 1963,-81 1963,-62 1819,-62"/>
<text text-anchor="middle" x="1891" y="-69" font-family="Helvetica,sans-Serif" font-size="10.00" fill="#000000">prettyprint/prettyprint.hpp</text>
</g>
<!-- Node16&#45;&gt;Node24 -->
<g id="edge36" class="edge">
<title>Node16&#45;&gt;Node24</title>
<path fill="none" stroke="#191970" d="M2015.875,-123.3906C1991.0033,-113.0554 1951.2702,-96.5447 1923.3156,-84.9284"/>
<polygon fill="#191970" stroke="#191970" points="1924.5402,-81.6472 1913.9626,-81.0419 1921.854,-88.1113 1924.5402,-81.6472"/>
</g>
<!-- Node25 -->
<g id="node25" class="node">
<title>Node25</title>
<g id="a_node25"><a xlink:href="String_8hpp.html" target="_top" xlink:title="utils/String.hpp">
<polygon fill="#ffffff" stroke="#000000" points="2115,-62 2115,-81 2205,-81 2205,-62 2115,-62"/>
<text text-anchor="middle" x="2160" y="-69" font-family="Helvetica,sans-Serif" font-size="10.00" fill="#000000">utils/String.hpp</text>
</a>
</g>
</g>
<!-- Node16&#45;&gt;Node25 -->
<g id="edge37" class="edge">
<title>Node16&#45;&gt;Node25</title>
<path fill="none" stroke="#191970" d="M2057.9063,-123.3906C2077.7966,-113.2811 2109.3123,-97.2628 2132.0692,-85.6962"/>
<polygon fill="#191970" stroke="#191970" points="2133.8978,-88.693 2141.2265,-81.0419 2130.726,-82.4528 2133.8978,-88.693"/>
</g>
<!-- Node23&#45;&gt;Node15 -->
<g id="edge35" class="edge">
<title>Node23&#45;&gt;Node15</title>
<path fill="none" stroke="#191970" d="M1203.3938,-81.2484C1174.9999,-101.5915 1109.2274,-148.7151 1074.8389,-173.3532"/>
<polygon fill="#191970" stroke="#191970" points="1072.5113,-170.7152 1066.4208,-179.3845 1076.5882,-176.4055 1072.5113,-170.7152"/>
</g>
<!-- Node25&#45;&gt;Node10 -->
<g id="edge39" class="edge">
<title>Node25&#45;&gt;Node10</title>
<path fill="none" stroke="#191970" d="M2131.1255,-61.9454C2123.0747,-59.6296 2114.2677,-57.4158 2106,-56 1960.7463,-31.1267 1496.138,-15.0224 1368.6359,-10.9934"/>
<polygon fill="#191970" stroke="#191970" points="1368.4674,-7.4865 1358.3628,-10.672 1368.2484,-14.4831 1368.4674,-7.4865"/>
</g>
<!-- Node26 -->
<g id="node26" class="node">
<title>Node26</title>
<polygon fill="#ffffff" stroke="#bfbfbf" points="2725,-.5 2725,-19.5 2781,-19.5 2781,-.5 2725,-.5"/>
<text text-anchor="middle" x="2753" y="-7.5" font-family="Helvetica,sans-Serif" font-size="10.00" fill="#000000">sstream</text>
</g>
<!-- Node25&#45;&gt;Node26 -->
<g id="edge38" class="edge">
<title>Node25&#45;&gt;Node26</title>
<path fill="none" stroke="#191970" d="M2190.0182,-61.9316C2198.0615,-59.6735 2206.8014,-57.4919 2215,-56 2400.2292,-22.295 2625.9479,-13.1628 2714.6249,-10.7922"/>
<polygon fill="#191970" stroke="#191970" points="2714.8399,-14.288 2724.7479,-10.5354 2714.6623,-7.2902 2714.8399,-14.288"/>
</g>
<!-- Node27&#45;&gt;Node8 -->
<g id="edge41" class="edge">
<title>Node27&#45;&gt;Node8</title>
<path fill="none" stroke="#191970" d="M760.7416,-302.3762C707.727,-272.8135 546.988,-183.1802 483.349,-147.6931"/>
<polygon fill="#191970" stroke="#191970" points="484.7822,-144.4849 474.3437,-142.6714 481.3729,-150.5986 484.7822,-144.4849"/>
</g>
<!-- Node28&#45;&gt;Node17 -->
<g id="edge47" class="edge">
<title>Node28&#45;&gt;Node17</title>
<path fill="none" stroke="#191970" d="M2411.5005,-308.5558C2470.542,-303.5086 2560.0256,-291.7426 2581,-266 2621.1452,-216.7286 2618.8276,-174.0723 2581,-123 2574.4307,-114.1306 2521.8217,-98.954 2477.0224,-87.3667"/>
<polygon fill="#191970" stroke="#191970" points="2477.8641,-83.9694 2467.3083,-84.8779 2476.1267,-90.7504 2477.8641,-83.9694"/>
</g>
<!-- Node28&#45;&gt;Node19 -->
<g id="edge49" class="edge">
<title>Node28&#45;&gt;Node19</title>
<path fill="none" stroke="#191970" d="M2411.7171,-308.4815C2475.4277,-303.2229 2576.4783,-291.1128 2604,-266 2650.9585,-223.1516 2637.8279,-174.815 2601,-123 2592.9676,-111.6988 2581.934,-101.2988 2571.5176,-92.8478"/>
<polygon fill="#191970" stroke="#191970" points="2573.4079,-89.8841 2563.3653,-86.5083 2569.1108,-95.41 2573.4079,-89.8841"/>
</g>
<!-- Node28&#45;&gt;Node20 -->
<g id="edge50" class="edge">
<title>Node28&#45;&gt;Node20</title>
<path fill="none" stroke="#191970" d="M2411.5147,-309.6919C2481.2892,-305.5725 2598.0925,-294.5188 2629,-266 2676.3783,-222.2833 2676.4432,-138.8002 2673.0171,-96.8653"/>
<polygon fill="#191970" stroke="#191970" points="2676.4791,-96.2994 2672.0462,-86.6765 2669.5106,-96.9634 2676.4791,-96.2994"/>
</g>
<!-- Node28&#45;&gt;Node21 -->
<g id="edge51" class="edge">
<title>Node28&#45;&gt;Node21</title>
<path fill="none" stroke="#191970" d="M2411.6892,-308.0648C2470.3618,-301.3055 2552.8212,-283.1657 2527,-235 2486.8924,-160.1849 2395.7967,-113.7615 2336.4224,-90.294"/>
<polygon fill="#191970" stroke="#191970" points="2337.4051,-86.9217 2326.8155,-86.5872 2334.8851,-93.4524 2337.4051,-86.9217"/>
</g>
<!-- Node28&#45;&gt;Node26 -->
<g id="edge45" class="edge">
<title>Node28&#45;&gt;Node26</title>
<path fill="none" stroke="#191970" d="M2411.5629,-309.7223C2486.3062,-305.5495 2616.9088,-294.3339 2654,-266 2731.3008,-206.9501 2748.2711,-79.2958 2751.9745,-29.9944"/>
<polygon fill="#191970" stroke="#191970" points="2755.486,-29.9272 2752.6337,-19.7236 2748.5003,-29.4788 2755.486,-29.9272"/>
</g>
<!-- Node29 -->
<g id="node29" class="node">
<title>Node29</title>
<polygon fill="#ffffff" stroke="#bfbfbf" points="2058,-241 2058,-260 2110,-260 2110,-241 2058,-241"/>
<text text-anchor="middle" x="2084" y="-248" font-family="Helvetica,sans-Serif" font-size="10.00" fill="#000000">cassert</text>
</g>
<!-- Node28&#45;&gt;Node29 -->
<g id="edge43" class="edge">
<title>Node28&#45;&gt;Node29</title>
<path fill="none" stroke="#191970" d="M2304.4605,-305.2424C2255.4526,-298.227 2181.2993,-285.512 2119,-266 2117.0975,-265.4041 2115.1602,-264.7351 2113.2224,-264.0181"/>
<polygon fill="#191970" stroke="#191970" points="2114.2707,-260.6664 2103.6883,-260.1519 2111.6401,-267.1533 2114.2707,-260.6664"/>
</g>
<!-- Node30 -->
<g id="node30" class="node">
<title>Node30</title>
<polygon fill="#ffffff" stroke="#bfbfbf" points="2128,-241 2128,-260 2188,-260 2188,-241 2128,-241"/>
<text text-anchor="middle" x="2158" y="-248" font-family="Helvetica,sans-Serif" font-size="10.00" fill="#000000">iostream</text>
</g>
<!-- Node28&#45;&gt;Node30 -->
<g id="edge44" class="edge">
<title>Node28&#45;&gt;Node30</title>
<path fill="none" stroke="#191970" d="M2321.172,-302.4207C2288.5547,-293.6978 2239.7722,-280.0666 2198,-266 2195.737,-265.2379 2193.4134,-264.4236 2191.0799,-263.5821"/>
<polygon fill="#191970" stroke="#191970" points="2192.1538,-260.2472 2181.5611,-260.0337 2189.7087,-266.8063 2192.1538,-260.2472"/>
</g>
<!-- Node31 -->
<g id="node31" class="node">
<title>Node31</title>
<polygon fill="#ffffff" stroke="#bfbfbf" points="2206.5,-241 2206.5,-260 2353.5,-260 2353.5,-241 2206.5,-241"/>
<text text-anchor="middle" x="2280" y="-248" font-family="Helvetica,sans-Serif" font-size="10.00" fill="#000000">boost/current_function.hpp</text>
</g>
<!-- Node28&#45;&gt;Node31 -->
<g id="edge46" class="edge">
<title>Node28&#45;&gt;Node31</title>
<path fill="none" stroke="#191970" d="M2345.8125,-302.3906C2333.563,-292.7324 2314.4737,-277.6812 2300.0023,-266.271"/>
<polygon fill="#191970" stroke="#191970" points="2302.1217,-263.485 2292.1019,-260.0419 2297.7876,-268.9819 2302.1217,-263.485"/>
</g>
<!-- Node32 -->
<g id="node32" class="node">
<title>Node32</title>
<polygon fill="#ffffff" stroke="#bfbfbf" points="2371.5,-235.5 2371.5,-265.5 2500.5,-265.5 2500.5,-235.5 2371.5,-235.5"/>
<text text-anchor="start" x="2379.5" y="-253.5" font-family="Helvetica,sans-Serif" font-size="10.00" fill="#000000">boost/preprocessor</text>
<text text-anchor="middle" x="2436" y="-242.5" font-family="Helvetica,sans-Serif" font-size="10.00" fill="#000000">/facilities/is_empty.hpp</text>
</g>
<!-- Node28&#45;&gt;Node32 -->
<g id="edge48" class="edge">
<title>Node28&#45;&gt;Node32</title>
<path fill="none" stroke="#191970" d="M2370.1875,-302.3906C2380.5484,-294.2215 2395.8026,-282.1941 2409.0169,-271.7752"/>
<polygon fill="#191970" stroke="#191970" points="2411.2334,-274.4846 2416.9191,-265.5446 2406.8993,-268.9877 2411.2334,-274.4846"/>
</g>
<!-- Node33 -->
<g id="node33" class="node">
<title>Node33</title>
<g id="a_node33"><a xlink:href="Parallel_8hpp.html" target="_top" xlink:title="Parallel.hpp">
<polygon fill="#ffffff" stroke="#ff0000" points="1928,-241 1928,-260 2002,-260 2002,-241 1928,-241"/>
<text text-anchor="middle" x="1965" y="-248" font-family="Helvetica,sans-Serif" font-size="10.00" fill="#000000">Parallel.hpp</text>
</a>
</g>
</g>
<!-- Node28&#45;&gt;Node33 -->
<g id="edge52" class="edge">
<title>Node28&#45;&gt;Node33</title>
<path fill="none" stroke="#191970" d="M2304.3218,-304.585C2242.6175,-295.9276 2138.3438,-280.8886 2049,-266 2037.0006,-264.0004 2024.0663,-261.6907 2012.0283,-259.4751"/>
<polygon fill="#191970" stroke="#191970" points="2012.6382,-256.0286 2002.1674,-257.6449 2011.3607,-262.911 2012.6382,-256.0286"/>
</g>
<!-- Node36 -->
<g id="node34" class="node">
<title>Node36</title>
<g id="a_node34"><a xlink:href="stacktrace_8hpp.html" target="_top" xlink:title="stacktrace.hpp">
<polygon fill="#ffffff" stroke="#000000" points="1738.5,-123.5 1738.5,-142.5 1827.5,-142.5 1827.5,-123.5 1738.5,-123.5"/>
<text text-anchor="middle" x="1783" y="-130.5" font-family="Helvetica,sans-Serif" font-size="10.00" fill="#000000">stacktrace.hpp</text>
</a>
</g>
</g>
<!-- Node28&#45;&gt;Node36 -->
<g id="edge57" class="edge">
<title>Node28&#45;&gt;Node36</title>
<path fill="none" stroke="#191970" d="M2411.5935,-304.1617C2467.4069,-293.8168 2542.5117,-272.3916 2510,-235 2465.8372,-184.2085 1999.5678,-147.7896 1837.8587,-136.6064"/>
<polygon fill="#191970" stroke="#191970" points="1837.8715,-133.0991 1827.6554,-135.9064 1837.3923,-140.0827 1837.8715,-133.0991"/>
</g>
<!-- Node33&#45;&gt;Node4 -->
<g id="edge55" class="edge">
<title>Node33&#45;&gt;Node4</title>
<path fill="none" stroke="#191970" d="M1935.7693,-240.957C1928.6885,-238.8286 1921.11,-236.7013 1914,-235 1824.46,-213.5751 1799.9282,-218.7321 1710,-199 1708.5424,-198.6802 1707.0564,-198.342 1705.5576,-197.9909"/>
<polygon fill="#191970" stroke="#191970" points="1706.1907,-194.5422 1695.6434,-195.545 1704.514,-201.3385 1706.1907,-194.5422"/>
</g>
<!-- Node33&#45;&gt;Node8 -->
<g id="edge53" class="edge">
<title>Node33&#45;&gt;Node8</title>
<path fill="none" stroke="#191970" d="M1935.1814,-240.9925C1928.2582,-238.9091 1920.8965,-236.7926 1914,-235 1840.9352,-216.008 1819.5539,-223.0666 1748,-199 1728.0226,-192.2807 1725.4924,-183.9302 1705,-179 1585.2689,-150.1945 695.105,-136.2871 496.2984,-133.522"/>
<polygon fill="#191970" stroke="#191970" points="496.0835,-130.0188 486.0362,-133.3807 495.987,-137.0182 496.0835,-130.0188"/>
</g>
<!-- Node33&#45;&gt;Node10 -->
<g id="edge54" class="edge">
<title>Node33&#45;&gt;Node10</title>
<path fill="none" stroke="#191970" d="M1939.9543,-240.9237C1841.0224,-203.0968 1477.4956,-64.1013 1367.6456,-22.0998"/>
<polygon fill="#191970" stroke="#191970" points="1368.7055,-18.758 1358.115,-18.4557 1366.2055,-25.2963 1368.7055,-18.758"/>
</g>
<!-- Node33&#45;&gt;Node15 -->
<g id="edge56" class="edge">
<title>Node33&#45;&gt;Node15</title>
<path fill="none" stroke="#191970" d="M1927.8341,-247.9937C1788.4154,-238.5922 1295.4493,-205.3494 1117.5898,-193.3556"/>
<polygon fill="#191970" stroke="#191970" points="1117.8056,-189.8623 1107.5928,-192.6814 1117.3346,-196.8464 1117.8056,-189.8623"/>
</g>
<!-- Node36&#45;&gt;Node10 -->
<g id="edge58" class="edge">
<title>Node36&#45;&gt;Node10</title>
<path fill="none" stroke="#191970" d="M1738.2999,-123.8635C1705.5043,-116.2813 1660.3623,-103.9859 1623,-87 1599.8814,-76.4896 1598.5671,-65.462 1575,-56 1504.6076,-27.738 1415.4145,-16.493 1368.4024,-12.2964"/>
<polygon fill="#191970" stroke="#191970" points="1368.4713,-8.79 1358.2131,-11.4394 1367.8845,-15.7653 1368.4713,-8.79"/>
</g>
<!-- Node39&#45;&gt;Node8 -->
<g id="edge60" class="edge">
<title>Node39&#45;&gt;Node8</title>
<path fill="none" stroke="#191970" d="M196.9632,-302.1761C202.456,-277.3656 220.387,-211.8264 262,-179 285.8385,-160.1951 367.8519,-145.6453 417.6077,-138.2927"/>
<polygon fill="#191970" stroke="#191970" points="418.3062,-141.7282 427.7028,-136.834 417.3051,-134.8001 418.3062,-141.7282"/>
</g>
<!-- Node68&#45;&gt;Node2 -->
<g id="edge66" class="edge">
<title>Node68&#45;&gt;Node2</title>
<path fill="none" stroke="#191970" d="M1184.3893,-537.4606C1128.7952,-529.696 1051.6399,-517.3489 985,-501 941.8658,-490.4178 933.329,-479.7539 890,-470 828.5821,-456.1741 660.0733,-470.808 609,-434 557.7433,-397.0598 565.4649,-309.7723 572.0252,-270.3891"/>
<polygon fill="#191970" stroke="#191970" points="575.4912,-270.8912 573.8355,-260.4265 568.604,-269.6397 575.4912,-270.8912"/>
</g>
<!-- Node68&#45;&gt;Node3 -->
<g id="edge70" class="edge">
<title>Node68&#45;&gt;Node3</title>
<path fill="none" stroke="#191970" d="M1272.7695,-537.1928C1283.8157,-528.3755 1299.8742,-514.7338 1312,-501 1345.314,-463.2684 1376.7467,-412.8845 1392.4896,-386.2659"/>
<polygon fill="#191970" stroke="#191970" points="1395.5293,-388.0013 1397.5541,-377.6017 1389.486,-384.4687 1395.5293,-388.0013"/>
</g>
<!-- Node68&#45;&gt;Node4 -->
<g id="edge73" class="edge">
<title>Node68&#45;&gt;Node4</title>
<path fill="none" stroke="#191970" d="M1276.4972,-537.4133C1292.3279,-528.1803 1316.8798,-513.7729 1338,-501 1360.3735,-487.4692 1363.5942,-479.3815 1388,-470 1471.8953,-437.751 1529.3791,-502.9801 1587,-434 1608.6845,-408.0407 1568.6881,-388.6475 1583,-358 1593.5461,-335.4165 1608.4582,-339.7065 1626,-322 1648.6686,-299.1184 1661.1423,-296.3239 1672,-266 1678.5997,-247.568 1677.6483,-225.0248 1675.6255,-209.1067"/>
<polygon fill="#191970" stroke="#191970" points="1679.0271,-208.1964 1674.0559,-198.8403 1672.1075,-209.2544 1679.0271,-208.1964"/>
</g>
<!-- Node68&#45;&gt;Node5 -->
<g id="edge74" class="edge">
<title>Node68&#45;&gt;Node5</title>
<path fill="none" stroke="#191970" d="M1231.0938,-537.3906C1199.461,-526.8749 1148.597,-509.966 1113.5771,-498.3243"/>
<polygon fill="#191970" stroke="#191970" points="1114.2968,-494.8753 1103.7033,-495.0419 1112.0885,-501.5178 1114.2968,-494.8753"/>
</g>
<!-- Node68&#45;&gt;Node7 -->
<g id="edge67" class="edge">
<title>Node68&#45;&gt;Node7</title>
<path fill="none" stroke="#191970" d="M1294.1902,-537.4623C1320.5902,-529.4527 1357.6198,-516.7926 1388,-501 1409.2252,-489.9665 1409.9805,-479.3482 1432,-470 1510.3088,-436.7545 1563.8357,-497.8991 1620,-434 1630.8704,-421.6326 1630.8151,-402.4042 1628.6649,-387.8858"/>
<polygon fill="#191970" stroke="#191970" points="1632.0706,-387.0603 1626.7585,-377.8934 1625.1946,-388.3721 1632.0706,-387.0603"/>
</g>
<!-- Node68&#45;&gt;Node10 -->
<g id="edge72" class="edge">
<title>Node68&#45;&gt;Node10</title>
<path fill="none" stroke="#191970" d="M1261.7819,-537.3573C1269.2946,-495.8315 1298,-328.0668 1298,-189 1298,-189 1298,-189 1298,-133 1298,-94.6461 1315.0752,-52.4423 1326.3334,-28.7843"/>
<polygon fill="#191970" stroke="#191970" points="1329.5923,-30.0892 1330.8752,-19.5723 1323.3139,-26.9938 1329.5923,-30.0892"/>
</g>
<!-- Node68&#45;&gt;Node15 -->
<g id="edge85" class="edge">
<title>Node68&#45;&gt;Node15</title>
<path fill="none" stroke="#191970" d="M1245.9044,-537.1596C1233.1344,-528.1008 1213.9347,-514.1193 1198,-501 1182.2129,-488.0022 1181.0357,-481.3119 1164,-470 1082.8266,-416.1001 1017.4888,-460.0929 965,-378 938.9084,-337.1926 1020.0874,-326.6581 1024,-322 1051.253,-289.5542 1054.5566,-237.3166 1054.0896,-208.9263"/>
<polygon fill="#191970" stroke="#191970" points="1057.5783,-208.5369 1053.7346,-198.6639 1050.5825,-208.7789 1057.5783,-208.5369"/>
</g>
<!-- Node68&#45;&gt;Node26 -->
<g id="edge71" class="edge">
<title>Node68&#45;&gt;Node26</title>
<path fill="none" stroke="#191970" d="M1360.255,-545.5708C1695.5775,-539.4794 2757,-509.0572 2757,-368 2757,-368 2757,-368 2757,-312 2757,-211.9842 2760.1111,-187.0119 2761,-87 2761.1225,-73.2228 2762.1847,-69.7267 2761,-56 2760.2524,-47.3385 2758.7271,-37.8607 2757.207,-29.7708"/>
<polygon fill="#191970" stroke="#191970" points="2760.6069,-28.924 2755.2107,-19.8064 2753.7433,-30.2991 2760.6069,-28.924"/>
</g>
<!-- Node68&#45;&gt;Node51 -->
<g id="edge68" class="edge">
<title>Node68&#45;&gt;Node51</title>
<path fill="none" stroke="#191970" d="M1299.3004,-537.4918C1333.1874,-528.9659 1383.2619,-515.582 1426,-501 1427.9218,-500.3443 1429.8867,-499.6425 1431.8613,-498.9129"/>
<polygon fill="#191970" stroke="#191970" points="1433.5979,-501.9938 1441.6598,-495.1194 1431.0706,-495.4659 1433.5979,-501.9938"/>
</g>
<!-- Node44 -->
<g id="node38" class="node">
<title>Node44</title>
<polygon fill="#ffffff" stroke="#bfbfbf" points="1164.5,-302.5 1164.5,-321.5 1219.5,-321.5 1219.5,-302.5 1164.5,-302.5"/>
<text text-anchor="middle" x="1192" y="-309.5" font-family="Helvetica,sans-Serif" font-size="10.00" fill="#000000">fstream</text>
</g>
<!-- Node68&#45;&gt;Node44 -->
<g id="edge69" class="edge">
<title>Node68&#45;&gt;Node44</title>
<path fill="none" stroke="#191970" d="M1257.2501,-537.4967C1247.0844,-502.3651 1211.5007,-379.3922 1197.6124,-331.3958"/>
<polygon fill="#191970" stroke="#191970" points="1200.9259,-330.2546 1194.7841,-321.6216 1194.2017,-332.2004 1200.9259,-330.2546"/>
</g>
<!-- Node68&#45;&gt;Node69 -->
<g id="edge75" class="edge">
<title>Node68&#45;&gt;Node69</title>
<path fill="none" stroke="#191970" d="M1253.3065,-537.4908C1242.4991,-522.4294 1220.1685,-492.4909 1198,-470 1165.0759,-436.5972 1121.9927,-402.8267 1096.5286,-383.7427"/>
<polygon fill="#191970" stroke="#191970" points="1098.4162,-380.7848 1088.302,-377.6297 1094.241,-386.4034 1098.4162,-380.7848"/>
</g>
<!-- Node68&#45;&gt;Node71 -->
<g id="edge83" class="edge">
<title>Node68&#45;&gt;Node71</title>
<path fill="none" stroke="#191970" d="M1185.5357,-537.4921C1112.7353,-528.195 998.748,-513.6337 900,-501 886.4765,-499.2698 872.103,-497.4297 858.1621,-495.6443"/>
<polygon fill="#191970" stroke="#191970" points="858.4695,-492.1551 848.1058,-494.3562 857.5801,-499.0984 858.4695,-492.1551"/>
</g>
<!-- Node69&#45;&gt;Node2 -->
<g id="edge76" class="edge">
<title>Node69&#45;&gt;Node2</title>
<path fill="none" stroke="#191970" d="M1024.6302,-358.4754C987.5622,-350.7002 936.3008,-338.3335 893,-322 874.7739,-315.1249 872.4379,-308.2848 854,-302 774.344,-274.8481 676.6909,-260.9654 620.8756,-254.757"/>
<polygon fill="#191970" stroke="#191970" points="620.9389,-251.2436 610.6212,-253.6507 620.1881,-258.2032 620.9389,-251.2436"/>
</g>
<!-- Node69&#45;&gt;Node4 -->
<g id="edge80" class="edge">
<title>Node69&#45;&gt;Node4</title>
<path fill="none" stroke="#191970" d="M1176.2004,-358.9047C1306.718,-346.996 1517.9536,-327.0396 1525,-322 1559.6156,-297.2428 1534.5344,-264.7154 1565,-235 1585.3006,-215.1992 1615.4718,-203.2879 1638.6058,-196.5645"/>
<polygon fill="#191970" stroke="#191970" points="1639.6282,-199.9136 1648.359,-193.9117 1637.7909,-193.159 1639.6282,-199.9136"/>
</g>
<!-- Node69&#45;&gt;Node10 -->
<g id="edge79" class="edge">
<title>Node69&#45;&gt;Node10</title>
<path fill="none" stroke="#191970" d="M1084.2646,-358.2139C1101.3291,-339.1175 1136,-294.86 1136,-250.5 1136,-250.5 1136,-250.5 1136,-133 1136,-97.7513 1130.1622,-81.0111 1155,-56 1175.6655,-35.1903 1257.5124,-20.8201 1303.7502,-14.1803"/>
<polygon fill="#191970" stroke="#191970" points="1304.4407,-17.6179 1313.8613,-12.77 1303.4737,-10.6851 1304.4407,-17.6179"/>
</g>
<!-- Node69&#45;&gt;Node15 -->
<g id="edge81" class="edge">
<title>Node69&#45;&gt;Node15</title>
<path fill="none" stroke="#191970" d="M1076.2707,-358.4958C1078.9276,-336.462 1084.0331,-280.3154 1074,-235 1071.9223,-225.6157 1067.7807,-215.8446 1063.7206,-207.734"/>
<polygon fill="#191970" stroke="#191970" points="1066.7496,-205.9757 1058.9529,-198.802 1060.5743,-209.2721 1066.7496,-205.9757"/>
</g>
<!-- Node69&#45;&gt;Node27 -->
<g id="edge82" class="edge">
<title>Node69&#45;&gt;Node27</title>
<path fill="none" stroke="#191970" d="M1024.2813,-358.4369C972.8114,-348.7321 893.1298,-333.708 838.4216,-323.3926"/>
<polygon fill="#191970" stroke="#191970" points="838.9848,-319.9372 828.5095,-321.5237 837.6878,-326.816 838.9848,-319.9372"/>
</g>
<!-- Node69&#45;&gt;Node44 -->
<g id="edge77" class="edge">
<title>Node69&#45;&gt;Node44</title>
<path fill="none" stroke="#191970" d="M1095.113,-358.3733C1113.8103,-349.4241 1141.8744,-335.9917 1162.9934,-325.8835"/>
<polygon fill="#191970" stroke="#191970" points="1164.6405,-328.9755 1172.1494,-321.5011 1161.6183,-322.6614 1164.6405,-328.9755"/>
</g>
<!-- Node70 -->
<g id="node40" class="node">
<title>Node70</title>
<polygon fill="#ffffff" stroke="#bfbfbf" points="1238,-302.5 1238,-321.5 1282,-321.5 1282,-302.5 1238,-302.5"/>
<text text-anchor="middle" x="1260" y="-309.5" font-family="Helvetica,sans-Serif" font-size="10.00" fill="#000000">limits</text>
</g>
<!-- Node69&#45;&gt;Node70 -->
<g id="edge78" class="edge">
<title>Node69&#45;&gt;Node70</title>
<path fill="none" stroke="#191970" d="M1106.9717,-358.4973C1137.9463,-349.265 1186.2328,-334.8045 1228,-322 1228.1009,-321.9691 1228.2019,-321.9381 1228.3031,-321.907"/>
<polygon fill="#191970" stroke="#191970" points="1229.4556,-325.2143 1237.9758,-318.9169 1227.3882,-318.5265 1229.4556,-325.2143"/>
</g>
<!-- Node71&#45;&gt;Node8 -->
<g id="edge84" class="edge">
<title>Node71&#45;&gt;Node8</title>
<path fill="none" stroke="#191970" d="M709.7192,-478.7627C557.5545,-462.3592 202.1826,-414.724 133,-322 86.9063,-260.2217 12.7737,-312.7073 240,-179 269.7002,-161.5235 363.9267,-146.001 417.9457,-138.2416"/>
<polygon fill="#191970" stroke="#191970" points="418.4496,-141.7052 427.861,-136.8396 417.4695,-134.7742 418.4496,-141.7052"/>
</g>
<!-- Node72&#45;&gt;Node2 -->
<g id="edge92" class="edge">
<title>Node72&#45;&gt;Node2</title>
<path fill="none" stroke="#191970" d="M1674.315,-358.5416C1573.7481,-348.5105 1423.9476,-332.6695 1367,-322 1332.6696,-315.568 1325.4556,-307.7237 1291,-302 1160.8764,-280.3843 756.0105,-259.255 620.6147,-252.6274"/>
<polygon fill="#191970" stroke="#191970" points="620.7494,-249.1299 610.591,-252.1391 620.4088,-256.1216 620.7494,-249.1299"/>
</g>
<!-- Node72&#45;&gt;Node4 -->
<g id="edge93" class="edge">
<title>Node72&#45;&gt;Node4</title>
<path fill="none" stroke="#191970" d="M1775.8624,-358.3228C1779.3038,-349.1446 1784.0833,-334.8807 1786,-322 1791.9037,-282.3259 1788.4827,-265.1256 1762,-235 1753.738,-225.6015 1726.7467,-212.3973 1704.4598,-202.5452"/>
<polygon fill="#191970" stroke="#191970" points="1705.831,-199.3249 1695.2646,-198.5489 1703.0408,-205.7448 1705.831,-199.3249"/>
</g>
<!-- Node72&#45;&gt;Node15 -->
<g id="edge96" class="edge">
<title>Node72&#45;&gt;Node15</title>
<path fill="none" stroke="#191970" d="M1764.4562,-358.3542C1743.8078,-332.7795 1683.3297,-263.267 1615,-235 1570.0465,-216.4034 1256.0722,-198.9526 1117.9514,-192.0802"/>
<polygon fill="#191970" stroke="#191970" points="1118.0799,-188.5824 1107.9193,-191.5843 1117.7342,-195.5739 1118.0799,-188.5824"/>
</g>
<!-- Node72&#45;&gt;Node16 -->
<g id="edge95" class="edge">
<title>Node72&#45;&gt;Node16</title>
<path fill="none" stroke="#191970" d="M1831.9438,-358.4811C1886.8531,-346.5365 1966.197,-320.5665 2011,-266 2037.8474,-233.302 2040.8229,-181.1655 2040.1959,-152.8584"/>
<polygon fill="#191970" stroke="#191970" points="2043.6836,-152.4796 2039.7845,-142.6284 2036.6892,-152.7609 2043.6836,-152.4796"/>
</g>
<!-- Node72&#45;&gt;Node28 -->
<g id="edge97" class="edge">
<title>Node72&#45;&gt;Node28</title>
<path fill="none" stroke="#191970" d="M1869.7533,-358.6584C1990.3311,-347.1356 2191.8715,-327.8758 2294.2026,-318.0967"/>
<polygon fill="#191970" stroke="#191970" points="2294.7658,-321.5589 2304.3875,-317.1234 2294.0998,-314.5906 2294.7658,-321.5589"/>
</g>
<!-- Node72&#45;&gt;Node39 -->
<g id="edge94" class="edge">
<title>Node72&#45;&gt;Node39</title>
<path fill="none" stroke="#191970" d="M1674.345,-358.6018C1671.1943,-358.3854 1668.073,-358.1838 1665,-358 1056.9871,-321.6406 902.8919,-360.3296 295,-322 282.9605,-321.2409 270.1299,-320.1624 257.8137,-318.9923"/>
<polygon fill="#191970" stroke="#191970" points="257.9115,-315.4853 247.6178,-317.993 257.2287,-322.4519 257.9115,-315.4853"/>
</g>
<!-- Node73&#45;&gt;Node4 -->
<g id="edge104" class="edge">
<title>Node73&#45;&gt;Node4</title>
<path fill="none" stroke="#191970" d="M1454.3028,-302.3195C1468.6189,-286.1913 1499.5496,-253.7461 1532,-235 1565.8865,-215.4243 1609.2614,-202.819 1638.6872,-195.8433"/>
<polygon fill="#191970" stroke="#191970" points="1639.5053,-199.2466 1648.4754,-193.6084 1637.9471,-192.4222 1639.5053,-199.2466"/>
</g>
<!-- Node73&#45;&gt;Node9 -->
<g id="edge101" class="edge">
<title>Node73&#45;&gt;Node9</title>
<path fill="none" stroke="#191970" d="M1468.5,-302.3906C1494.5664,-291.2581 1537.4096,-272.9605 1564.6362,-261.3324"/>
<polygon fill="#191970" stroke="#191970" points="1566.0788,-264.5222 1573.9005,-257.3758 1563.3294,-258.0848 1566.0788,-264.5222"/>
</g>
<!-- Node73&#45;&gt;Node10 -->
<g id="edge103" class="edge">
<title>Node73&#45;&gt;Node10</title>
<path fill="none" stroke="#191970" d="M1430.1941,-302.2247C1418.2152,-294.0025 1402.2818,-281.1746 1393,-266 1374.6074,-235.9304 1374,-224.2487 1374,-189 1374,-189 1374,-189 1374,-133 1374,-94.6461 1356.9248,-52.4423 1345.6666,-28.7843"/>
<polygon fill="#191970" stroke="#191970" points="1348.6861,-26.9938 1341.1248,-19.5723 1342.4077,-30.0892 1348.6861,-26.9938"/>
</g>
<!-- Node73&#45;&gt;Node14 -->
<g id="edge102" class="edge">
<title>Node73&#45;&gt;Node14</title>
<path fill="none" stroke="#191970" d="M1376.3443,-303.5614C1371.4915,-303.0185 1366.6737,-302.4927 1362,-302 1188.0088,-283.6573 1140.6402,-304.6176 970,-266 966.8161,-265.2795 963.5465,-264.3781 960.3049,-263.3747"/>
<polygon fill="#191970" stroke="#191970" points="961.3725,-260.041 950.7781,-260.1371 959.12,-266.6688 961.3725,-260.041"/>
</g>
<!-- Node73&#45;&gt;Node15 -->
<g id="edge110" class="edge">
<title>Node73&#45;&gt;Node15</title>
<path fill="none" stroke="#191970" d="M1415.489,-302.4507C1345.1853,-280.4473 1171.8021,-226.1823 1093.0601,-201.5379"/>
<polygon fill="#191970" stroke="#191970" points="1094.0805,-198.1899 1083.4916,-198.5432 1091.9897,-204.8704 1094.0805,-198.1899"/>
</g>
<!-- Node74 -->
<g id="node44" class="node">
<title>Node74</title>
<g id="a_node44"><a xlink:href="Request_8hpp.html" target="_top" xlink:title="Request.hpp">
<polygon fill="#ffffff" stroke="#000000" points="1402.5,-241 1402.5,-260 1479.5,-260 1479.5,-241 1402.5,-241"/>
<text text-anchor="middle" x="1441" y="-248" font-family="Helvetica,sans-Serif" font-size="10.00" fill="#000000">Request.hpp</text>
</a>
</g>
</g>
<!-- Node73&#45;&gt;Node74 -->
<g id="edge105" class="edge">
<title>Node73&#45;&gt;Node74</title>
<path fill="none" stroke="#191970" d="M1445.2188,-302.3906C1444.5257,-293.8657 1443.491,-281.1392 1442.6198,-270.4235"/>
<polygon fill="#191970" stroke="#191970" points="1446.0912,-269.9283 1441.7923,-260.2449 1439.1142,-270.4956 1446.0912,-269.9283"/>
</g>
<!-- Node73&#45;&gt;Node38 -->
<g id="edge109" class="edge">
<title>Node73&#45;&gt;Node38</title>
<path fill="none" stroke="#191970" d="M1390.5677,-302.4507C1260.6292,-280.0664 936.8764,-224.2938 797.5077,-200.2849"/>
<polygon fill="#191970" stroke="#191970" points="797.846,-196.7917 787.3969,-198.5432 796.6576,-203.6901 797.846,-196.7917"/>
</g>
<!-- Node74&#45;&gt;Node4 -->
<g id="edge106" class="edge">
<title>Node74&#45;&gt;Node4</title>
<path fill="none" stroke="#191970" d="M1472.9037,-240.9925C1479.8463,-238.9731 1487.1603,-236.8834 1494,-235 1544.1342,-221.1948 1602.5482,-206.3307 1638.3991,-197.3466"/>
<polygon fill="#191970" stroke="#191970" points="1639.4741,-200.6856 1648.3266,-194.8646 1637.7763,-193.8946 1639.4741,-200.6856"/>
</g>
<!-- Node74&#45;&gt;Node38 -->
<g id="edge107" class="edge">
<title>Node74&#45;&gt;Node38</title>
<path fill="none" stroke="#191970" d="M1402.3776,-247.1498C1289.1035,-237.3242 956.328,-208.4586 806.5536,-195.4669"/>
<polygon fill="#191970" stroke="#191970" points="806.7893,-191.9743 796.5243,-194.597 806.1844,-198.9481 806.7893,-191.9743"/>
</g>
<!-- Node38&#45;&gt;Node8 -->
<g id="edge108" class="edge">
<title>Node38&#45;&gt;Node8</title>
<path fill="none" stroke="#191970" d="M685.0383,-179.4369C631.7613,-168.5877 545.8386,-151.0908 496.0716,-140.9564"/>
<polygon fill="#191970" stroke="#191970" points="496.5228,-137.4765 486.0255,-138.9106 495.1259,-144.3357 496.5228,-137.4765"/>
</g>
<!-- Node75&#45;&gt;Node2 -->
<g id="edge116" class="edge">
<title>Node75&#45;&gt;Node2</title>
<path fill="none" stroke="#191970" d="M1902.1243,-482.9451C1625.1092,-474.3949 755.5196,-446.6128 729,-434 654.9145,-398.7647 603.9794,-308.4439 584.6445,-269.1864"/>
<polygon fill="#191970" stroke="#191970" points="587.7986,-267.6692 580.3192,-260.1653 581.4866,-270.6956 587.7986,-267.6692"/>
</g>
<!-- Node75&#45;&gt;Node4 -->
<g id="edge118" class="edge">
<title>Node75&#45;&gt;Node4</title>
<path fill="none" stroke="#191970" d="M2000.0091,-475.7647C2028.5567,-454.6721 2088.7543,-403.0227 2064,-358 2027.2285,-291.1207 1982.2051,-308.7797 1919,-266 1899.4892,-252.7943 1897.5717,-244.4723 1876,-235 1806.2763,-204.3837 1779.7711,-218.6815 1705.4651,-200.0195"/>
<polygon fill="#191970" stroke="#191970" points="1706.2231,-196.5999 1695.6615,-197.438 1704.4406,-203.3691 1706.2231,-196.5999"/>
</g>
<!-- Node75&#45;&gt;Node28 -->
<g id="edge122" class="edge">
<title>Node75&#45;&gt;Node28</title>
<path fill="none" stroke="#191970" d="M2006.8755,-475.8361C2029.1921,-465.4999 2065.6093,-448.6185 2097,-434 2180.9919,-394.8852 2280.0868,-348.4998 2328.4517,-325.8453"/>
<polygon fill="#191970" stroke="#191970" points="2330.1331,-328.9227 2337.7039,-321.511 2327.1635,-322.5837 2330.1331,-328.9227"/>
</g>
<!-- Node76 -->
<g id="node47" class="node">
<title>Node76</title>
<polygon fill="#ffffff" stroke="#bfbfbf" points="2001.5,-358.5 2001.5,-377.5 2054.5,-377.5 2054.5,-358.5 2001.5,-358.5"/>
<text text-anchor="middle" x="2028" y="-365.5" font-family="Helvetica,sans-Serif" font-size="10.00" fill="#000000">iterator</text>
</g>
<!-- Node75&#45;&gt;Node76 -->
<g id="edge117" class="edge">
<title>Node75&#45;&gt;Node76</title>
<path fill="none" stroke="#191970" d="M1990.8246,-475.7955C1995.7932,-465.5659 2003.5581,-448.9006 2009,-434 2014.6243,-418.5998 2019.6881,-400.7027 2023.171,-387.4336"/>
<polygon fill="#191970" stroke="#191970" points="2026.6163,-388.0879 2025.7024,-377.5326 2019.8344,-386.354 2026.6163,-388.0879"/>
</g>
<!-- Node77 -->
<g id="node48" class="node">
<title>Node77</title>
<g id="a_node48"><a xlink:href="algorithm_8hpp.html" target="_top" xlink:title="utils/algorithm.hpp">
<polygon fill="#ffffff" stroke="#ff0000" points="1890.5,-414.5 1890.5,-433.5 1999.5,-433.5 1999.5,-414.5 1890.5,-414.5"/>
<text text-anchor="middle" x="1945" y="-421.5" font-family="Helvetica,sans-Serif" font-size="10.00" fill="#000000">utils/algorithm.hpp</text>
</a>
</g>
</g>
<!-- Node75&#45;&gt;Node77 -->
<g id="edge119" class="edge">
<title>Node75&#45;&gt;Node77</title>
<path fill="none" stroke="#191970" d="M1979.5938,-475.8906C1973.6114,-466.917 1964.5253,-453.2879 1957.1661,-442.2491"/>
<polygon fill="#191970" stroke="#191970" points="1959.9558,-440.1239 1951.4966,-433.7449 1954.1314,-444.0068 1959.9558,-440.1239"/>
</g>
<!-- Node77&#45;&gt;Node7 -->
<g id="edge120" class="edge">
<title>Node77&#45;&gt;Node7</title>
<path fill="none" stroke="#191970" d="M1890.2631,-416.1389C1833.8586,-407.7661 1743.484,-393.5918 1666,-378 1665.899,-377.9797 1665.7978,-377.9593 1665.6965,-377.9388"/>
<polygon fill="#191970" stroke="#191970" points="1666.5632,-374.5451 1656.0524,-375.8768 1665.0996,-381.3904 1666.5632,-374.5451"/>
</g>
<!-- Node77&#45;&gt;Node76 -->
<g id="edge121" class="edge">
<title>Node77&#45;&gt;Node76</title>
<path fill="none" stroke="#191970" d="M1959.4575,-414.2455C1972.0732,-405.7337 1990.5944,-393.2375 2005.2045,-383.3801"/>
<polygon fill="#191970" stroke="#191970" points="2007.3761,-386.1371 2013.7082,-377.6427 2003.4609,-380.3343 2007.3761,-386.1371"/>
</g>
<!-- Node78&#45;&gt;Node3 -->
<g id="edge126" class="edge">
<title>Node78&#45;&gt;Node3</title>
<path fill="none" stroke="#191970" d="M1506.5117,-414.3733C1485.7452,-405.0699 1454.1636,-390.9213 1431.3464,-380.6992"/>
<polygon fill="#191970" stroke="#191970" points="1432.7184,-377.4787 1422.1613,-376.5843 1429.8564,-383.8669 1432.7184,-377.4787"/>
</g>
<!-- Node78&#45;&gt;Node4 -->
<g id="edge128" class="edge">
<title>Node78&#45;&gt;Node4</title>
<path fill="none" stroke="#191970" d="M1577.7558,-421.0632C1669.874,-415.1157 1859.4414,-400.2891 1879,-378 1924.0623,-326.6468 2004.0719,-401.975 1786,-235 1779.234,-229.8193 1736.5377,-213.1982 1705.3776,-201.4282"/>
<polygon fill="#191970" stroke="#191970" points="1706.3182,-198.0426 1695.7262,-197.7979 1703.8537,-204.5945 1706.3182,-198.0426"/>
</g>
<!-- Node78&#45;&gt;Node7 -->
<g id="edge124" class="edge">
<title>Node78&#45;&gt;Node7</title>
<path fill="none" stroke="#191970" d="M1544.7219,-414.2455C1559.5889,-405.5731 1581.5466,-392.7645 1598.5858,-382.825"/>
<polygon fill="#191970" stroke="#191970" points="1600.5955,-385.7047 1607.4697,-377.6427 1597.0683,-379.6582 1600.5955,-385.7047"/>
</g>
<!-- Node78&#45;&gt;Node9 -->
<g id="edge127" class="edge">
<title>Node78&#45;&gt;Node9</title>
<path fill="none" stroke="#191970" d="M1529.4316,-414.2455C1531.8132,-400.6145 1537.6091,-375.5692 1550,-358 1564.9625,-336.7845 1584.629,-345.3383 1596,-322 1603.9028,-305.7799 1600.9421,-285.0254 1596.8811,-270.06"/>
<polygon fill="#191970" stroke="#191970" points="1600.1707,-268.8508 1593.8692,-260.3337 1593.484,-270.9215 1600.1707,-268.8508"/>
</g>
<!-- Node78&#45;&gt;Node70 -->
<g id="edge125" class="edge">
<title>Node78&#45;&gt;Node70</title>
<path fill="none" stroke="#191970" d="M1516.53,-414.2832C1499.1241,-400.0006 1464.5095,-373.3731 1431,-358 1385.0387,-336.9144 1327.5456,-323.9344 1292.3136,-317.3488"/>
<polygon fill="#191970" stroke="#191970" points="1292.5947,-313.843 1282.1316,-315.5084 1291.3496,-320.7313 1292.5947,-313.843"/>
</g>
<!-- Node79&#45;&gt;Node2 -->
<g id="edge130" class="edge">
<title>Node79&#45;&gt;Node2</title>
<path fill="none" stroke="#191970" d="M397.9688,-302.3906C434.5117,-291.7395 493.5571,-274.5296 533.535,-262.8772"/>
<polygon fill="#191970" stroke="#191970" points="534.6417,-266.2004 543.2628,-260.0419 532.6828,-259.48 534.6417,-266.2004"/>
</g>
<!-- Node79&#45;&gt;Node15 -->
<g id="edge132" class="edge">
<title>Node79&#45;&gt;Node15</title>
<path fill="none" stroke="#191970" d="M385.3318,-302.3995C428.1555,-282.2098 524.3446,-237.0369 532,-235 616.4125,-212.5403 868.2095,-197.8581 988.1245,-191.9486"/>
<polygon fill="#191970" stroke="#191970" points="988.4483,-195.4371 998.266,-191.4543 988.1075,-188.4454 988.4483,-195.4371"/>
</g>
<!-- Node79&#45;&gt;Node38 -->
<g id="edge131" class="edge">
<title>Node79&#45;&gt;Node38</title>
<path fill="none" stroke="#191970" d="M375.1875,-302.4067C393.4389,-285.8053 433.5947,-251.8802 474,-235 532.7654,-210.4495 604.4029,-198.9939 657.2662,-193.653"/>
<polygon fill="#191970" stroke="#191970" points="657.6252,-197.1347 667.2448,-192.6946 656.9559,-190.1667 657.6252,-197.1347"/>
</g>
</g>
</svg>
