<?xml version="1.0" encoding="UTF-8" standalone="no"?>
<!DOCTYPE svg PUBLIC "-//W3C//DTD SVG 1.1//EN"
 "http://www.w3.org/Graphics/SVG/1.1/DTD/svg11.dtd">
<!-- Generated by graphviz version 2.40.1 (20161225.0304)
 -->
<!-- Title: BOOST_AUTO_TEST_CASE Pages: 1 -->
<svg width="881pt" height="1281pt"
 viewBox="0.00 0.00 881.00 1280.94" xmlns="http://www.w3.org/2000/svg" xmlns:xlink="http://www.w3.org/1999/xlink">
<g id="graph0" class="graph" transform="scale(1 1) rotate(0) translate(4 1276.9409)">
<title>BOOST_AUTO_TEST_CASE</title>
<polygon fill="#ffffff" stroke="transparent" points="-4,4 -4,-1276.9409 877,-1276.9409 877,4 -4,4"/>
<!-- Node329 -->
<g id="node1" class="node">
<title>Node329</title>
<polygon fill="#bfbfbf" stroke="#000000" points="0,-142.5 0,-161.5 148,-161.5 148,-142.5 0,-142.5"/>
<text text-anchor="middle" x="74" y="-149.5" font-family="Helvetica,sans-Serif" font-size="10.00" fill="#000000">BOOST_AUTO_TEST_CASE</text>
</g>
<!-- Node330 -->
<g id="node2" class="node">
<title>Node330</title>
<g id="a_node2"><a xlink:href="namespaceprecice_1_1testing.html#a08533fd83bad3d7f27ea7f4a35a14aa4" target="_top" xlink:title="precice::testing::nextMeshID">
<polygon fill="#ffffff" stroke="#000000" points="187.5,-1121.5 187.5,-1140.5 330.5,-1140.5 330.5,-1121.5 187.5,-1121.5"/>
<text text-anchor="middle" x="259" y="-1128.5" font-family="Helvetica,sans-Serif" font-size="10.00" fill="#000000">precice::testing::nextMeshID</text>
</a>
</g>
</g>
<!-- Node329&#45;&gt;Node330 -->
<g id="edge1" class="edge">
<title>Node329&#45;&gt;Node330</title>
<path fill="none" stroke="#191970" d="M74.3642,-161.7259C77.0963,-229.4235 96.7416,-636.9247 184,-954 200.5403,-1014.1033 232.871,-1080.7279 249.1444,-1112.361"/>
<polygon fill="#191970" stroke="#191970" points="246.1013,-1114.0953 253.8234,-1121.3493 252.3104,-1110.8631 246.1013,-1114.0953"/>
</g>
<!-- Node332 -->
<g id="node4" class="node">
<title>Node332</title>
<g id="a_node4"><a xlink:href="classprecice_1_1mesh_1_1Mesh.html#a6e387c9e2c5ccd43dcf81d57795ba935" target="_top" xlink:title="precice::mesh::Mesh\l::createData">
<polygon fill="#ffffff" stroke="#000000" points="388.5,-1163 388.5,-1193 496.5,-1193 496.5,-1163 388.5,-1163"/>
<text text-anchor="start" x="396.5" y="-1181" font-family="Helvetica,sans-Serif" font-size="10.00" fill="#000000">precice::mesh::Mesh</text>
<text text-anchor="middle" x="442.5" y="-1170" font-family="Helvetica,sans-Serif" font-size="10.00" fill="#000000">::createData</text>
</a>
</g>
</g>
<!-- Node329&#45;&gt;Node332 -->
<g id="edge3" class="edge">
<title>Node329&#45;&gt;Node332</title>
<path fill="none" stroke="#191970" d="M75.5817,-161.7791C84.0794,-213.6237 126.0928,-461.3801 184,-658 217.257,-770.9219 285.1503,-1072.404 370,-1154 372.8745,-1156.7642 376.0743,-1159.2102 379.4834,-1161.3746"/>
<polygon fill="#191970" stroke="#191970" points="377.8672,-1164.4798 388.3222,-1166.1954 381.219,-1158.3344 377.8672,-1164.4798"/>
</g>
<!-- Node335 -->
<g id="node7" class="node">
<title>Node335</title>
<g id="a_node7"><a xlink:href="classprecice_1_1mesh_1_1Mesh.html#ae99d0d5d776e7c676acb72830df4aa45" target="_top" xlink:title="precice::mesh::Mesh\l::createVertex">
<polygon fill="#ffffff" stroke="#000000" points="205,-619 205,-649 313,-649 313,-619 205,-619"/>
<text text-anchor="start" x="213" y="-637" font-family="Helvetica,sans-Serif" font-size="10.00" fill="#000000">precice::mesh::Mesh</text>
<text text-anchor="middle" x="259" y="-626" font-family="Helvetica,sans-Serif" font-size="10.00" fill="#000000">::createVertex</text>
</a>
</g>
</g>
<!-- Node329&#45;&gt;Node335 -->
<g id="edge6" class="edge">
<title>Node329&#45;&gt;Node335</title>
<path fill="none" stroke="#191970" d="M77.6954,-161.6281C99.8371,-219.3162 215.1168,-519.6664 249.3839,-608.9461"/>
<polygon fill="#191970" stroke="#191970" points="246.2114,-610.4483 253.0624,-618.5301 252.7466,-607.9399 246.2114,-610.4483"/>
</g>
<!-- Node348 -->
<g id="node20" class="node">
<title>Node348</title>
<g id="a_node20"><a xlink:href="classprecice_1_1mesh_1_1Mesh.html#a13faa9b03e5d20918ed6528db1415fa3" target="_top" xlink:title="Returns modifieable container holding all vertices. ">
<polygon fill="#ffffff" stroke="#000000" points="568.5,-213 568.5,-243 676.5,-243 676.5,-213 568.5,-213"/>
<text text-anchor="start" x="576.5" y="-231" font-family="Helvetica,sans-Serif" font-size="10.00" fill="#000000">precice::mesh::Mesh</text>
<text text-anchor="middle" x="622.5" y="-220" font-family="Helvetica,sans-Serif" font-size="10.00" fill="#000000">::vertices</text>
</a>
</g>
</g>
<!-- Node329&#45;&gt;Node348 -->
<g id="edge47" class="edge">
<title>Node329&#45;&gt;Node348</title>
<path fill="none" stroke="#191970" d="M91.99,-142.4843C156.1373,-109.9952 377.1707,-10.5579 515,-105 551.5623,-130.0529 520.1004,-166.2249 551,-198 554.6029,-201.705 558.7332,-204.9735 563.1516,-207.853"/>
<polygon fill="#191970" stroke="#191970" points="561.5299,-210.958 571.9408,-212.9235 565.0279,-204.8947 561.5299,-210.958"/>
</g>
<!-- Node350 -->
<g id="node22" class="node">
<title>Node350</title>
<g id="a_node22"><a xlink:href="classprecice_1_1mesh_1_1Mesh.html#afa920f8d8d32076837ae5e3dc28b0eea" target="_top" xlink:title="Allocates memory for the vertex data values. ">
<polygon fill="#ffffff" stroke="#000000" points="388.5,-164 388.5,-194 496.5,-194 496.5,-164 388.5,-164"/>
<text text-anchor="start" x="396.5" y="-182" font-family="Helvetica,sans-Serif" font-size="10.00" fill="#000000">precice::mesh::Mesh</text>
<text text-anchor="middle" x="442.5" y="-171" font-family="Helvetica,sans-Serif" font-size="10.00" fill="#000000">::allocateDataValues</text>
</a>
</g>
</g>
<!-- Node329&#45;&gt;Node350 -->
<g id="edge48" class="edge">
<title>Node329&#45;&gt;Node350</title>
<path fill="none" stroke="#191970" d="M148.1282,-157.4314C215.5589,-162.372 314.0716,-169.59 378.2344,-174.2913"/>
<polygon fill="#191970" stroke="#191970" points="377.9981,-177.7832 388.2271,-175.0234 378.5097,-170.802 377.9981,-177.7832"/>
</g>
<!-- Node355 -->
<g id="node27" class="node">
<title>Node355</title>
<g id="a_node27"><a xlink:href="classprecice_1_1mesh_1_1Mesh.html#a20584f10c9c7568d038b8a4bb9d7a7c8" target="_top" xlink:title="Removes all mesh elements and data values (does not remove data). ">
<polygon fill="#ffffff" stroke="#000000" points="388.5,-115 388.5,-145 496.5,-145 496.5,-115 388.5,-115"/>
<text text-anchor="start" x="396.5" y="-133" font-family="Helvetica,sans-Serif" font-size="10.00" fill="#000000">precice::mesh::Mesh</text>
<text text-anchor="middle" x="442.5" y="-122" font-family="Helvetica,sans-Serif" font-size="10.00" fill="#000000">::clear</text>
</a>
</g>
</g>
<!-- Node329&#45;&gt;Node355 -->
<g id="edge49" class="edge">
<title>Node329&#45;&gt;Node355</title>
<path fill="none" stroke="#191970" d="M148.1282,-147.5744C215.5589,-143.5487 314.0716,-137.6674 378.2344,-133.8368"/>
<polygon fill="#191970" stroke="#191970" points="378.4535,-137.33 388.2271,-133.2402 378.0363,-130.3424 378.4535,-137.33"/>
</g>
<!-- Node364 -->
<g id="node36" class="node">
<title>Node364</title>
<g id="a_node36"><a xlink:href="RTreeTests_8cpp.html#a9849f5c774ff22e557184d988b1cf9ea" target="_top" xlink:title="BOOST_TEST">
<polygon fill="#ffffff" stroke="#000000" points="218,-38.5 218,-57.5 300,-57.5 300,-38.5 218,-38.5"/>
<text text-anchor="middle" x="259" y="-45.5" font-family="Helvetica,sans-Serif" font-size="10.00" fill="#000000">BOOST_TEST</text>
</a>
</g>
</g>
<!-- Node329&#45;&gt;Node364 -->
<g id="edge46" class="edge">
<title>Node329&#45;&gt;Node364</title>
<path fill="none" stroke="#191970" d="M84.7795,-142.3145C103.6414,-125.8097 144.4049,-92.0756 184,-72 192.5974,-67.6409 202.1482,-63.8625 211.4751,-60.6754"/>
<polygon fill="#191970" stroke="#191970" points="212.6299,-63.9805 221.0644,-57.5688 210.4724,-57.3213 212.6299,-63.9805"/>
</g>
<!-- Node365 -->
<g id="node37" class="node">
<title>Node365</title>
<g id="a_node37"><a xlink:href="MPIPortsCommunicationTest_8cpp.html#a5ded28ea5c98cb27bf0cfcf344588d46" target="_top" xlink:title="BOOST_AUTO_TEST_SUITE">
<polygon fill="#ffffff" stroke="#000000" points="184,-.5 184,-19.5 334,-19.5 334,-.5 184,-.5"/>
<text text-anchor="middle" x="259" y="-7.5" font-family="Helvetica,sans-Serif" font-size="10.00" fill="#000000">BOOST_AUTO_TEST_SUITE</text>
</a>
</g>
</g>
<!-- Node329&#45;&gt;Node365 -->
<g id="edge50" class="edge">
<title>Node329&#45;&gt;Node365</title>
<path fill="none" stroke="#191970" d="M79.7962,-142.2412C94.236,-118.8181 134.2585,-59.1301 184,-29 187.619,-26.8079 191.4829,-24.8675 195.4767,-23.1502"/>
<polygon fill="#191970" stroke="#191970" points="196.876,-26.3626 204.977,-19.5344 194.386,-19.8204 196.876,-26.3626"/>
</g>
<!-- Node331 -->
<g id="node3" class="node">
<title>Node331</title>
<g id="a_node3"><a xlink:href="classprecice_1_1utils_1_1ManageUniqueIDs.html#a02be264c279698ae293587b6576088b5" target="_top" xlink:title="precice::utils::ManageUnique\lIDs::getFreeID">
<polygon fill="#ffffff" stroke="#000000" points="730,-1089 730,-1119 873,-1119 873,-1089 730,-1089"/>
<text text-anchor="start" x="738" y="-1107" font-family="Helvetica,sans-Serif" font-size="10.00" fill="#000000">precice::utils::ManageUnique</text>
<text text-anchor="middle" x="801.5" y="-1096" font-family="Helvetica,sans-Serif" font-size="10.00" fill="#000000">IDs::getFreeID</text>
</a>
</g>
</g>
<!-- Node330&#45;&gt;Node331 -->
<g id="edge2" class="edge">
<title>Node330&#45;&gt;Node331</title>
<path fill="none" stroke="#191970" d="M270.5096,-1140.5286C289.8278,-1156.0261 330.5466,-1186.6058 370,-1203 503.9364,-1258.655 563.6849,-1305.6743 694,-1242 742.2204,-1218.4386 775.0934,-1161.646 790.8296,-1128.7293"/>
<polygon fill="#191970" stroke="#191970" points="794.1487,-1129.8899 795.1611,-1119.3436 787.7929,-1126.9567 794.1487,-1129.8899"/>
</g>
<!-- Node333 -->
<g id="node5" class="node">
<title>Node333</title>
<g id="a_node5"><a xlink:href="classprecice_1_1mesh_1_1Mesh.html#aceb3eabb4f8e40a44d5d1c2822ba7b56" target="_top" xlink:title="precice::mesh::Mesh\l::data">
<polygon fill="#ffffff" stroke="#000000" points="568.5,-262 568.5,-292 676.5,-292 676.5,-262 568.5,-262"/>
<text text-anchor="start" x="576.5" y="-280" font-family="Helvetica,sans-Serif" font-size="10.00" fill="#000000">precice::mesh::Mesh</text>
<text text-anchor="middle" x="622.5" y="-269" font-family="Helvetica,sans-Serif" font-size="10.00" fill="#000000">::data</text>
</a>
</g>
</g>
<!-- Node332&#45;&gt;Node333 -->
<g id="edge4" class="edge">
<title>Node332&#45;&gt;Node333</title>
<path fill="none" stroke="#191970" d="M496.8095,-1168.298C503.8608,-1164.8575 510.2645,-1160.2263 515,-1154 564.0946,-1089.4499 530.96,-503.5837 551,-425 562.8469,-378.5444 589.9393,-329.3204 607.1641,-300.9703"/>
<polygon fill="#191970" stroke="#191970" points="610.3105,-302.5368 612.591,-292.1903 604.3561,-298.8564 610.3105,-302.5368"/>
</g>
<!-- Node334 -->
<g id="node6" class="node">
<title>Node334</title>
<g id="a_node6"><a xlink:href="classprecice_1_1mesh_1_1Data.html#a571e94df898349b76b6c4ce8db34ccd1" target="_top" xlink:title="Returns the number of created (and still existing) Data objects. ">
<polygon fill="#ffffff" stroke="#000000" points="570,-1202 570,-1232 675,-1232 675,-1202 570,-1202"/>
<text text-anchor="start" x="578" y="-1220" font-family="Helvetica,sans-Serif" font-size="10.00" fill="#000000">precice::mesh::Data</text>
<text text-anchor="middle" x="622.5" y="-1209" font-family="Helvetica,sans-Serif" font-size="10.00" fill="#000000">::getDataCount</text>
</a>
</g>
</g>
<!-- Node332&#45;&gt;Node334 -->
<g id="edge5" class="edge">
<title>Node332&#45;&gt;Node334</title>
<path fill="none" stroke="#191970" d="M496.5059,-1189.7013C516.4403,-1194.0204 539.1952,-1198.9506 559.832,-1203.4219"/>
<polygon fill="#191970" stroke="#191970" points="559.2565,-1206.8784 569.7709,-1205.5754 560.7388,-1200.0371 559.2565,-1206.8784"/>
</g>
<!-- Node335&#45;&gt;Node331 -->
<g id="edge7" class="edge">
<title>Node335&#45;&gt;Node331</title>
<path fill="none" stroke="#191970" d="M313.2334,-639.9328C321.167,-643.0354 328.5014,-647.5315 334,-654 386.5017,-715.7631 313.2836,-959.0831 370,-1017 420.7394,-1068.8134 624.1051,-1036.6657 694,-1056 718.4888,-1062.7741 744.5431,-1074.2878 764.868,-1084.3407"/>
<polygon fill="#191970" stroke="#191970" points="763.5601,-1087.6011 774.0645,-1088.9824 766.7143,-1081.3519 763.5601,-1087.6011"/>
</g>
<!-- Node335&#45;&gt;Node332 -->
<g id="edge18" class="edge">
<title>Node335&#45;&gt;Node332</title>
<path fill="none" stroke="#191970" d="M263.4147,-649.0809C275.8734,-692.0426 311.8379,-818.878 334,-926 354.7841,-1026.4613 303.6082,-1075.7914 370,-1154 372.7994,-1157.2976 376.0627,-1160.1445 379.6263,-1162.602"/>
<polygon fill="#191970" stroke="#191970" points="377.9966,-1165.7023 388.4093,-1167.6584 381.4891,-1159.6358 377.9966,-1165.7023"/>
</g>
<!-- Node335&#45;&gt;Node333 -->
<g id="edge19" class="edge">
<title>Node335&#45;&gt;Node333</title>
<path fill="none" stroke="#191970" d="M259.9669,-618.7837C263.9027,-570.1953 282.9796,-417.4309 370,-340 377.1626,-333.6267 485.8653,-308.0013 558.2866,-291.4604"/>
<polygon fill="#191970" stroke="#191970" points="559.2781,-294.8242 568.2504,-289.1896 557.7227,-287.9992 559.2781,-294.8242"/>
</g>
<!-- Node336 -->
<g id="node8" class="node">
<title>Node336</title>
<g id="a_node8"><a xlink:href="classprecice_1_1mesh_1_1Mesh.html#ae05c5234aa9adc6f47a814622039c28e" target="_top" xlink:title="Creates and initializes an Edge object. ">
<polygon fill="#ffffff" stroke="#000000" points="568.5,-786 568.5,-816 676.5,-816 676.5,-786 568.5,-786"/>
<text text-anchor="start" x="576.5" y="-804" font-family="Helvetica,sans-Serif" font-size="10.00" fill="#000000">precice::mesh::Mesh</text>
<text text-anchor="middle" x="622.5" y="-793" font-family="Helvetica,sans-Serif" font-size="10.00" fill="#000000">::createEdge</text>
</a>
</g>
</g>
<!-- Node335&#45;&gt;Node336 -->
<g id="edge8" class="edge">
<title>Node335&#45;&gt;Node336</title>
<path fill="none" stroke="#191970" d="M265.3769,-649.4737C279.1713,-680.7056 315.0399,-750.8652 370,-781 427.8675,-812.729 504.6652,-814.1299 558.31,-809.8573"/>
<polygon fill="#191970" stroke="#191970" points="558.7292,-813.334 568.3823,-808.9671 558.1129,-806.3611 558.7292,-813.334"/>
</g>
<!-- Node337 -->
<g id="node9" class="node">
<title>Node337</title>
<g id="a_node9"><a xlink:href="classprecice_1_1mesh_1_1Mesh.html#aaeeb91bf6152969a12f3901841e1db0c" target="_top" xlink:title="Creates and initializes an Edge object or returns an already existing one. ">
<polygon fill="#ffffff" stroke="#000000" points="388.5,-595 388.5,-625 496.5,-625 496.5,-595 388.5,-595"/>
<text text-anchor="start" x="396.5" y="-613" font-family="Helvetica,sans-Serif" font-size="10.00" fill="#000000">precice::mesh::Mesh</text>
<text text-anchor="middle" x="442.5" y="-602" font-family="Helvetica,sans-Serif" font-size="10.00" fill="#000000">::createUniqueEdge</text>
</a>
</g>
</g>
<!-- Node335&#45;&gt;Node337 -->
<g id="edge10" class="edge">
<title>Node335&#45;&gt;Node337</title>
<path fill="none" stroke="#191970" d="M313.0636,-626.929C333.5069,-624.2552 356.9716,-621.1863 378.2592,-618.4021"/>
<polygon fill="#191970" stroke="#191970" points="378.7271,-621.8708 388.1888,-617.1034 377.8193,-614.9299 378.7271,-621.8708"/>
</g>
<!-- Node341 -->
<g id="node13" class="node">
<title>Node341</title>
<g id="a_node13"><a xlink:href="classprecice_1_1mesh_1_1Mesh.html#a00c3db2576c63d8c6f351175ddc0a4d0" target="_top" xlink:title="Creates and initializes a Triangle object. ">
<polygon fill="#ffffff" stroke="#000000" points="388.5,-1114 388.5,-1144 496.5,-1144 496.5,-1114 388.5,-1114"/>
<text text-anchor="start" x="396.5" y="-1132" font-family="Helvetica,sans-Serif" font-size="10.00" fill="#000000">precice::mesh::Mesh</text>
<text text-anchor="middle" x="442.5" y="-1121" font-family="Helvetica,sans-Serif" font-size="10.00" fill="#000000">::createTriangle</text>
</a>
</g>
</g>
<!-- Node335&#45;&gt;Node341 -->
<g id="edge15" class="edge">
<title>Node335&#45;&gt;Node341</title>
<path fill="none" stroke="#191970" d="M263.1885,-649.1302C275.0519,-692.2215 309.6005,-819.3654 334,-926 352.1002,-1005.1042 316.2001,-1044.2492 370,-1105 372.7401,-1108.0941 375.8878,-1110.7905 379.3032,-1113.1402"/>
<polygon fill="#191970" stroke="#191970" points="377.8516,-1116.3429 388.265,-1118.2959 381.3423,-1110.2754 377.8516,-1116.3429"/>
</g>
<!-- Node343 -->
<g id="node15" class="node">
<title>Node343</title>
<g id="a_node15"><a xlink:href="classprecice_1_1mesh_1_1Mesh.html#a3185fe962ba3e8fe0b3cf451681e6a48" target="_top" xlink:title="Returns the name of the mesh, as set in the config file. ">
<polygon fill="#ffffff" stroke="#000000" points="388.5,-977 388.5,-1007 496.5,-1007 496.5,-977 388.5,-977"/>
<text text-anchor="start" x="396.5" y="-995" font-family="Helvetica,sans-Serif" font-size="10.00" fill="#000000">precice::mesh::Mesh</text>
<text text-anchor="middle" x="442.5" y="-984" font-family="Helvetica,sans-Serif" font-size="10.00" fill="#000000">::getName</text>
</a>
</g>
</g>
<!-- Node335&#45;&gt;Node343 -->
<g id="edge20" class="edge">
<title>Node335&#45;&gt;Node343</title>
<path fill="none" stroke="#191970" d="M259.519,-649.3579C262.113,-701.4961 277.619,-873.6617 370,-967 372.8683,-969.898 376.0879,-972.4604 379.5337,-974.7261"/>
<polygon fill="#191970" stroke="#191970" points="378.0623,-977.9142 388.4936,-979.7687 381.4955,-971.8139 378.0623,-977.9142"/>
</g>
<!-- Node344 -->
<g id="node16" class="node">
<title>Node344</title>
<g id="a_node16"><a xlink:href="classprecice_1_1mesh_1_1Mesh.html#a18fcc2df2cfeba56e8f0af79c63a75e8" target="_top" xlink:title="precice::mesh::Mesh\l::isFlipNormals">
<polygon fill="#ffffff" stroke="#000000" points="388.5,-928 388.5,-958 496.5,-958 496.5,-928 388.5,-928"/>
<text text-anchor="start" x="396.5" y="-946" font-family="Helvetica,sans-Serif" font-size="10.00" fill="#000000">precice::mesh::Mesh</text>
<text text-anchor="middle" x="442.5" y="-935" font-family="Helvetica,sans-Serif" font-size="10.00" fill="#000000">::isFlipNormals</text>
</a>
</g>
</g>
<!-- Node335&#45;&gt;Node344 -->
<g id="edge21" class="edge">
<title>Node335&#45;&gt;Node344</title>
<path fill="none" stroke="#191970" d="M260.4973,-649.0643C265.9428,-695.8363 288.8602,-840.0839 370,-918 372.8885,-920.7737 376.0991,-923.2408 379.5162,-925.435"/>
<polygon fill="#191970" stroke="#191970" points="377.9272,-928.5559 388.3697,-930.3462 381.3228,-922.4347 377.9272,-928.5559"/>
</g>
<!-- Node345 -->
<g id="node17" class="node">
<title>Node345</title>
<g id="a_node17"><a xlink:href="classprecice_1_1mesh_1_1Mesh.html#a65ef730ba5ebf191074453fb1b4ebce3" target="_top" xlink:title="precice::mesh::Mesh\l::setFlipNormals">
<polygon fill="#ffffff" stroke="#000000" points="388.5,-879 388.5,-909 496.5,-909 496.5,-879 388.5,-879"/>
<text text-anchor="start" x="396.5" y="-897" font-family="Helvetica,sans-Serif" font-size="10.00" fill="#000000">precice::mesh::Mesh</text>
<text text-anchor="middle" x="442.5" y="-886" font-family="Helvetica,sans-Serif" font-size="10.00" fill="#000000">::setFlipNormals</text>
</a>
</g>
</g>
<!-- Node335&#45;&gt;Node345 -->
<g id="edge22" class="edge">
<title>Node335&#45;&gt;Node345</title>
<path fill="none" stroke="#191970" d="M261.8728,-649.0803C270.5153,-690.3726 300.1138,-806.3581 370,-869 372.8442,-871.5493 375.9613,-873.8413 379.2546,-875.9015"/>
<polygon fill="#191970" stroke="#191970" points="377.8598,-879.127 388.3167,-880.8312 381.2049,-872.978 377.8598,-879.127"/>
</g>
<!-- Node346 -->
<g id="node18" class="node">
<title>Node346</title>
<g id="a_node18"><a xlink:href="classprecice_1_1mesh_1_1Mesh.html#a5e5005a7a807ec5947892eeb6279d12d" target="_top" xlink:title="Returns the base ID of the mesh. ">
<polygon fill="#ffffff" stroke="#000000" points="388.5,-830 388.5,-860 496.5,-860 496.5,-830 388.5,-830"/>
<text text-anchor="start" x="396.5" y="-848" font-family="Helvetica,sans-Serif" font-size="10.00" fill="#000000">precice::mesh::Mesh</text>
<text text-anchor="middle" x="442.5" y="-837" font-family="Helvetica,sans-Serif" font-size="10.00" fill="#000000">::getID</text>
</a>
</g>
</g>
<!-- Node335&#45;&gt;Node346 -->
<g id="edge23" class="edge">
<title>Node335&#45;&gt;Node346</title>
<path fill="none" stroke="#191970" d="M264.4625,-649.0675C277.5365,-683.1694 313.783,-767.0198 370,-815 374.5136,-818.8523 379.5904,-822.2622 384.9081,-825.2687"/>
<polygon fill="#191970" stroke="#191970" points="383.5336,-828.4975 394.0278,-829.9546 386.7328,-822.2713 383.5336,-828.4975"/>
</g>
<!-- Node347 -->
<g id="node19" class="node">
<title>Node347</title>
<g id="a_node19"><a xlink:href="classprecice_1_1mesh_1_1Mesh.html#af5ee0ce0045f0f62382eadc5f4f5b105" target="_top" xlink:title="Returns true if the given vertexID is valid. ">
<polygon fill="#ffffff" stroke="#000000" points="388.5,-213 388.5,-243 496.5,-243 496.5,-213 388.5,-213"/>
<text text-anchor="start" x="396.5" y="-231" font-family="Helvetica,sans-Serif" font-size="10.00" fill="#000000">precice::mesh::Mesh</text>
<text text-anchor="middle" x="442.5" y="-220" font-family="Helvetica,sans-Serif" font-size="10.00" fill="#000000">::isValidVertexID</text>
</a>
</g>
</g>
<!-- Node335&#45;&gt;Node347 -->
<g id="edge24" class="edge">
<title>Node335&#45;&gt;Node347</title>
<path fill="none" stroke="#191970" d="M261.4658,-618.9297C272.1959,-555.0435 316.6828,-307.3213 370,-252 372.8177,-249.0764 375.9988,-246.5088 379.416,-244.2539"/>
<polygon fill="#191970" stroke="#191970" points="381.3073,-247.2063 388.3242,-239.2682 377.8886,-241.0979 381.3073,-247.2063"/>
</g>
<!-- Node349 -->
<g id="node21" class="node">
<title>Node349</title>
<g id="a_node21"><a xlink:href="classprecice_1_1mesh_1_1Mesh.html#ad9bd3b09bef6dd82132602821a2df178" target="_top" xlink:title="Returns true if the given edgeID is valid. ">
<polygon fill="#ffffff" stroke="#000000" points="388.5,-350 388.5,-380 496.5,-380 496.5,-350 388.5,-350"/>
<text text-anchor="start" x="396.5" y="-368" font-family="Helvetica,sans-Serif" font-size="10.00" fill="#000000">precice::mesh::Mesh</text>
<text text-anchor="middle" x="442.5" y="-357" font-family="Helvetica,sans-Serif" font-size="10.00" fill="#000000">::isValidEdgeID</text>
</a>
</g>
</g>
<!-- Node335&#45;&gt;Node349 -->
<g id="edge26" class="edge">
<title>Node335&#45;&gt;Node349</title>
<path fill="none" stroke="#191970" d="M261.5132,-618.8578C269.3731,-576.2629 297.4397,-454.2682 370,-389 372.8279,-386.4563 375.9323,-384.1814 379.216,-382.1469"/>
<polygon fill="#191970" stroke="#191970" points="381.0965,-385.1101 388.2593,-377.3035 377.7915,-378.9394 381.0965,-385.1101"/>
</g>
<!-- Node335&#45;&gt;Node350 -->
<g id="edge28" class="edge">
<title>Node335&#45;&gt;Node350</title>
<path fill="none" stroke="#191970" d="M260.9383,-618.9075C270.0617,-550.0536 310.7783,-266.3678 370,-203 372.7725,-200.0334 375.9191,-197.4332 379.3108,-195.154"/>
<polygon fill="#191970" stroke="#191970" points="381.2034,-198.1044 388.1727,-190.1244 377.7482,-192.0165 381.2034,-198.1044"/>
</g>
<!-- Node352 -->
<g id="node24" class="node">
<title>Node352</title>
<g id="a_node24"><a xlink:href="classprecice_1_1mesh_1_1Mesh.html#a02278d8459bfbf8c9dd137070e670e9a" target="_top" xlink:title="Necessary before any geom. operations can be performed on the mesh. ">
<polygon fill="#ffffff" stroke="#000000" points="388.5,-742 388.5,-772 496.5,-772 496.5,-742 388.5,-742"/>
<text text-anchor="start" x="396.5" y="-760" font-family="Helvetica,sans-Serif" font-size="10.00" fill="#000000">precice::mesh::Mesh</text>
<text text-anchor="middle" x="442.5" y="-749" font-family="Helvetica,sans-Serif" font-size="10.00" fill="#000000">::computeState</text>
</a>
</g>
</g>
<!-- Node335&#45;&gt;Node352 -->
<g id="edge31" class="edge">
<title>Node335&#45;&gt;Node352</title>
<path fill="none" stroke="#191970" d="M272.6241,-649.3326C292.2449,-670.5809 330.4658,-708.9599 370,-732 373.6235,-734.1117 377.453,-736.0823 381.3829,-737.9145"/>
<polygon fill="#191970" stroke="#191970" points="380.1176,-741.1805 390.6852,-741.9396 382.8975,-734.7562 380.1176,-741.1805"/>
</g>
<!-- Node353 -->
<g id="node25" class="node">
<title>Node353</title>
<g id="a_node25"><a xlink:href="classprecice_1_1mesh_1_1Mesh.html#a988baa22e8e6fcaa9efc64e7943cb2fc" target="_top" xlink:title="Computes the boundingBox for the vertices. ">
<polygon fill="#ffffff" stroke="#000000" points="383.5,-1065 383.5,-1095 501.5,-1095 501.5,-1065 383.5,-1065"/>
<text text-anchor="start" x="391.5" y="-1083" font-family="Helvetica,sans-Serif" font-size="10.00" fill="#000000">precice::mesh::Mesh</text>
<text text-anchor="middle" x="442.5" y="-1072" font-family="Helvetica,sans-Serif" font-size="10.00" fill="#000000">::computeBoundingBox</text>
</a>
</g>
</g>
<!-- Node335&#45;&gt;Node353 -->
<g id="edge32" class="edge">
<title>Node335&#45;&gt;Node353</title>
<path fill="none" stroke="#191970" d="M262.9291,-649.4726C281.8603,-723.926 363.0412,-1042.0595 370,-1050 373.1984,-1053.6496 376.9106,-1056.8644 380.9317,-1059.6948"/>
<polygon fill="#191970" stroke="#191970" points="379.199,-1062.7379 389.5537,-1064.9807 382.8577,-1056.7701 379.199,-1062.7379"/>
</g>
<!-- Node335&#45;&gt;Node355 -->
<g id="edge34" class="edge">
<title>Node335&#45;&gt;Node355</title>
<path fill="none" stroke="#191970" d="M260.5332,-618.7123C268.2304,-544.8326 304.887,-225.4273 370,-154 372.8639,-150.8584 376.1476,-148.1273 379.7011,-145.7531"/>
<polygon fill="#191970" stroke="#191970" points="381.424,-148.7998 388.4116,-140.8359 377.9828,-142.704 381.424,-148.7998"/>
</g>
<!-- Node357 -->
<g id="node29" class="node">
<title>Node357</title>
<g id="a_node29"><a xlink:href="classprecice_1_1mesh_1_1Mesh.html#a7dedd0a7f11c247b1739858d910f9cb9" target="_top" xlink:title="Returns a mapping from rank to used (not necessarily owned) vertex IDs. ">
<polygon fill="#ffffff" stroke="#000000" points="385.5,-693 385.5,-723 499.5,-723 499.5,-693 385.5,-693"/>
<text text-anchor="start" x="393.5" y="-711" font-family="Helvetica,sans-Serif" font-size="10.00" fill="#000000">precice::mesh::Mesh</text>
<text text-anchor="middle" x="442.5" y="-700" font-family="Helvetica,sans-Serif" font-size="10.00" fill="#000000">::getVertexDistribution</text>
</a>
</g>
</g>
<!-- Node335&#45;&gt;Node357 -->
<g id="edge37" class="edge">
<title>Node335&#45;&gt;Node357</title>
<path fill="none" stroke="#191970" d="M291.241,-649.0876C313.2341,-659.1675 343.1347,-672.4596 370,-683 375.5581,-685.1807 381.3936,-687.3645 387.2388,-689.4834"/>
<polygon fill="#191970" stroke="#191970" points="386.443,-692.9154 397.0376,-692.9762 388.7933,-686.3217 386.443,-692.9154"/>
</g>
<!-- Node358 -->
<g id="node30" class="node">
<title>Node358</title>
<g id="a_node30"><a xlink:href="classprecice_1_1mesh_1_1Mesh.html#a590d8e05844921733090cd5906657a93" target="_top" xlink:title="precice::mesh::Mesh\l::getVertexOffsets">
<polygon fill="#ffffff" stroke="#000000" points="388.5,-644 388.5,-674 496.5,-674 496.5,-644 388.5,-644"/>
<text text-anchor="start" x="396.5" y="-662" font-family="Helvetica,sans-Serif" font-size="10.00" fill="#000000">precice::mesh::Mesh</text>
<text text-anchor="middle" x="442.5" y="-651" font-family="Helvetica,sans-Serif" font-size="10.00" fill="#000000">::getVertexOffsets</text>
</a>
</g>
</g>
<!-- Node335&#45;&gt;Node358 -->
<g id="edge38" class="edge">
<title>Node335&#45;&gt;Node358</title>
<path fill="none" stroke="#191970" d="M313.0636,-641.3656C333.5069,-644.1508 356.9716,-647.3476 378.2592,-650.2478"/>
<polygon fill="#191970" stroke="#191970" points="377.8078,-653.7186 388.1888,-651.6006 378.7528,-646.7827 377.8078,-653.7186"/>
</g>
<!-- Node359 -->
<g id="node31" class="node">
<title>Node359</title>
<g id="a_node31"><a xlink:href="classprecice_1_1mesh_1_1Mesh.html#a806bdb0fb238bd542e8108a041363da5" target="_top" xlink:title="Only used for tests. ">
<polygon fill="#ffffff" stroke="#000000" points="388.5,-546 388.5,-576 496.5,-576 496.5,-546 388.5,-546"/>
<text text-anchor="start" x="396.5" y="-564" font-family="Helvetica,sans-Serif" font-size="10.00" fill="#000000">precice::mesh::Mesh</text>
<text text-anchor="middle" x="442.5" y="-553" font-family="Helvetica,sans-Serif" font-size="10.00" fill="#000000">::setVertexOffsets</text>
</a>
</g>
</g>
<!-- Node335&#45;&gt;Node359 -->
<g id="edge39" class="edge">
<title>Node335&#45;&gt;Node359</title>
<path fill="none" stroke="#191970" d="M291.199,-618.8045C313.174,-608.6777 343.07,-595.3739 370,-585 374.8252,-583.1413 379.8628,-581.2918 384.9362,-579.4921"/>
<polygon fill="#191970" stroke="#191970" points="386.3931,-582.6912 394.6902,-576.1027 384.0954,-576.079 386.3931,-582.6912"/>
</g>
<!-- Node360 -->
<g id="node32" class="node">
<title>Node360</title>
<g id="a_node32"><a xlink:href="classprecice_1_1mesh_1_1Mesh.html#a0fbbc8211e87e48c5d12789c41ad9af1" target="_top" xlink:title="precice::mesh::Mesh\l::getGlobalNumberOfVertices">
<polygon fill="#ffffff" stroke="#000000" points="370,-497 370,-527 515,-527 515,-497 370,-497"/>
<text text-anchor="start" x="378" y="-515" font-family="Helvetica,sans-Serif" font-size="10.00" fill="#000000">precice::mesh::Mesh</text>
<text text-anchor="middle" x="442.5" y="-504" font-family="Helvetica,sans-Serif" font-size="10.00" fill="#000000">::getGlobalNumberOfVertices</text>
</a>
</g>
</g>
<!-- Node335&#45;&gt;Node360 -->
<g id="edge40" class="edge">
<title>Node335&#45;&gt;Node360</title>
<path fill="none" stroke="#191970" d="M272.2565,-618.957C291.7296,-597.7025 330.1011,-558.923 370,-536 373.0232,-534.2631 376.1902,-532.6298 379.4398,-531.0972"/>
<polygon fill="#191970" stroke="#191970" points="380.9903,-534.2396 388.7648,-527.0418 378.1986,-527.8203 380.9903,-534.2396"/>
</g>
<!-- Node361 -->
<g id="node33" class="node">
<title>Node361</title>
<g id="a_node33"><a xlink:href="classprecice_1_1mesh_1_1Mesh.html#a02f0fe049261bbe1e82e0a00746b9313" target="_top" xlink:title="precice::mesh::Mesh\l::setGlobalNumberOfVertices">
<polygon fill="#ffffff" stroke="#000000" points="370,-448 370,-478 515,-478 515,-448 370,-448"/>
<text text-anchor="start" x="378" y="-466" font-family="Helvetica,sans-Serif" font-size="10.00" fill="#000000">precice::mesh::Mesh</text>
<text text-anchor="middle" x="442.5" y="-455" font-family="Helvetica,sans-Serif" font-size="10.00" fill="#000000">::setGlobalNumberOfVertices</text>
</a>
</g>
</g>
<!-- Node335&#45;&gt;Node361 -->
<g id="edge41" class="edge">
<title>Node335&#45;&gt;Node361</title>
<path fill="none" stroke="#191970" d="M266.5053,-618.6692C281.8299,-588.925 319.5742,-523.1412 370,-487 372.0745,-485.5132 374.2469,-484.1143 376.4908,-482.7984"/>
<polygon fill="#191970" stroke="#191970" points="378.1989,-485.855 385.4443,-478.1249 374.9597,-479.6495 378.1989,-485.855"/>
</g>
<!-- Node362 -->
<g id="node34" class="node">
<title>Node362</title>
<g id="a_node34"><a xlink:href="classprecice_1_1mesh_1_1Mesh.html#ab453e0fcd860442aa942ddced2cee24f" target="_top" xlink:title="precice::mesh::Mesh\l::getOwnedVertexData">
<polygon fill="#ffffff" stroke="#000000" points="384.5,-262 384.5,-292 500.5,-292 500.5,-262 384.5,-262"/>
<text text-anchor="start" x="392.5" y="-280" font-family="Helvetica,sans-Serif" font-size="10.00" fill="#000000">precice::mesh::Mesh</text>
<text text-anchor="middle" x="442.5" y="-269" font-family="Helvetica,sans-Serif" font-size="10.00" fill="#000000">::getOwnedVertexData</text>
</a>
</g>
</g>
<!-- Node335&#45;&gt;Node362 -->
<g id="edge42" class="edge">
<title>Node335&#45;&gt;Node362</title>
<path fill="none" stroke="#191970" d="M259.8479,-618.7621C263.4783,-567.7747 281.8698,-401.0622 370,-307 373.3732,-303.3997 377.2432,-300.2176 381.4018,-297.4075"/>
<polygon fill="#191970" stroke="#191970" points="383.4589,-300.2569 390.2766,-292.147 379.8895,-294.2353 383.4589,-300.2569"/>
</g>
<!-- Node363 -->
<g id="node35" class="node">
<title>Node363</title>
<g id="a_node35"><a xlink:href="classprecice_1_1mesh_1_1Mesh.html#a708f813fb1d2ea852818cdaf55d5b922" target="_top" xlink:title="precice::mesh::Mesh\l::tagAll">
<polygon fill="#ffffff" stroke="#000000" points="388.5,-399 388.5,-429 496.5,-429 496.5,-399 388.5,-399"/>
<text text-anchor="start" x="396.5" y="-417" font-family="Helvetica,sans-Serif" font-size="10.00" fill="#000000">precice::mesh::Mesh</text>
<text text-anchor="middle" x="442.5" y="-406" font-family="Helvetica,sans-Serif" font-size="10.00" fill="#000000">::tagAll</text>
</a>
</g>
</g>
<!-- Node335&#45;&gt;Node363 -->
<g id="edge45" class="edge">
<title>Node335&#45;&gt;Node363</title>
<path fill="none" stroke="#191970" d="M263.4148,-618.7543C274.802,-582.1067 308.6535,-488.3837 370,-438 372.8849,-435.6307 376.0121,-433.4922 379.2936,-431.5625"/>
<polygon fill="#191970" stroke="#191970" points="380.9971,-434.622 388.2795,-426.9267 377.7878,-428.4011 380.9971,-434.622"/>
</g>
<!-- Node336&#45;&gt;Node331 -->
<g id="edge9" class="edge">
<title>Node336&#45;&gt;Node331</title>
<path fill="none" stroke="#191970" d="M631.3766,-816.0258C660.3041,-864.9924 752.0203,-1020.2439 787.3945,-1080.123"/>
<polygon fill="#191970" stroke="#191970" points="784.47,-1082.0539 792.5698,-1088.8835 790.4968,-1078.4934 784.47,-1082.0539"/>
</g>
<!-- Node337&#45;&gt;Node336 -->
<g id="edge14" class="edge">
<title>Node337&#45;&gt;Node336</title>
<path fill="none" stroke="#191970" d="M496.8595,-623.3864C503.3233,-626.2792 509.5503,-629.7769 515,-634 564.3271,-672.2251 597.6379,-739.8699 612.9244,-776.2316"/>
<polygon fill="#191970" stroke="#191970" points="609.7332,-777.6749 616.7564,-785.6074 616.2129,-775.0265 609.7332,-777.6749"/>
</g>
<!-- Node338 -->
<g id="node10" class="node">
<title>Node338</title>
<g id="a_node10"><a xlink:href="classprecice_1_1mesh_1_1Vertex.html#aeccde29fd990bdba5a5792372c341ef4" target="_top" xlink:title="Returns the unique (among vertices of one mesh on one processor) ID of the vertex. ">
<polygon fill="#ffffff" stroke="#000000" points="566,-570 566,-600 679,-600 679,-570 566,-570"/>
<text text-anchor="start" x="574" y="-588" font-family="Helvetica,sans-Serif" font-size="10.00" fill="#000000">precice::mesh::Vertex</text>
<text text-anchor="middle" x="622.5" y="-577" font-family="Helvetica,sans-Serif" font-size="10.00" fill="#000000">::getID</text>
</a>
</g>
</g>
<!-- Node337&#45;&gt;Node338 -->
<g id="edge11" class="edge">
<title>Node337&#45;&gt;Node338</title>
<path fill="none" stroke="#191970" d="M496.5059,-602.4992C515.1127,-599.9149 536.1768,-596.9893 555.6821,-594.2803"/>
<polygon fill="#191970" stroke="#191970" points="556.2953,-597.7288 565.7187,-592.8863 555.3322,-590.7953 556.2953,-597.7288"/>
</g>
<!-- Node339 -->
<g id="node11" class="node">
<title>Node339</title>
<g id="a_node11"><a xlink:href="classprecice_1_1mesh_1_1Mesh.html#aec6f303d7791f8a64e2b78180531c89e" target="_top" xlink:title="Returns modifiable container holding all edges. ">
<polygon fill="#ffffff" stroke="#000000" points="568.5,-435 568.5,-465 676.5,-465 676.5,-435 568.5,-435"/>
<text text-anchor="start" x="576.5" y="-453" font-family="Helvetica,sans-Serif" font-size="10.00" fill="#000000">precice::mesh::Mesh</text>
<text text-anchor="middle" x="622.5" y="-442" font-family="Helvetica,sans-Serif" font-size="10.00" fill="#000000">::edges</text>
</a>
</g>
</g>
<!-- Node337&#45;&gt;Node339 -->
<g id="edge12" class="edge">
<title>Node337&#45;&gt;Node339</title>
<path fill="none" stroke="#191970" d="M496.8465,-595.1199C503.2414,-592.2683 509.4547,-588.9187 515,-585 557.1695,-555.2001 591.2828,-504.337 609.0743,-474.2781"/>
<polygon fill="#191970" stroke="#191970" points="612.2886,-475.7114 614.2667,-465.3029 606.2295,-472.206 612.2886,-475.7114"/>
</g>
<!-- Node340 -->
<g id="node12" class="node">
<title>Node340</title>
<g id="a_node12"><a xlink:href="classprecice_1_1mesh_1_1Edge.html#a7fc88e0289fecf4c41c230d20311dcdb" target="_top" xlink:title="Returns the edge&#39;s vertex with index 0 or 1. ">
<polygon fill="#ffffff" stroke="#000000" points="569,-619 569,-649 676,-649 676,-619 569,-619"/>
<text text-anchor="start" x="577" y="-637" font-family="Helvetica,sans-Serif" font-size="10.00" fill="#000000">precice::mesh::Edge</text>
<text text-anchor="middle" x="622.5" y="-626" font-family="Helvetica,sans-Serif" font-size="10.00" fill="#000000">::vertex</text>
</a>
</g>
</g>
<!-- Node337&#45;&gt;Node340 -->
<g id="edge13" class="edge">
<title>Node337&#45;&gt;Node340</title>
<path fill="none" stroke="#191970" d="M496.5059,-617.2008C516.0839,-619.8112 538.3825,-622.7843 558.7232,-625.4964"/>
<polygon fill="#191970" stroke="#191970" points="558.4677,-628.9933 568.8426,-626.8457 559.3929,-622.0547 558.4677,-628.9933"/>
</g>
<!-- Node341&#45;&gt;Node331 -->
<g id="edge17" class="edge">
<title>Node341&#45;&gt;Node331</title>
<path fill="none" stroke="#191970" d="M496.559,-1144.1151C547.8886,-1156.185 626.9508,-1168.83 694,-1154 720.1424,-1148.2178 747.4727,-1135.4025 768.0342,-1124.1942"/>
<polygon fill="#191970" stroke="#191970" points="769.9601,-1127.1273 776.9764,-1119.1886 766.5409,-1121.0191 769.9601,-1127.1273"/>
</g>
<!-- Node342 -->
<g id="node14" class="node">
<title>Node342</title>
<g id="a_node14"><a xlink:href="classprecice_1_1mesh_1_1Edge.html#af27f4bd02d0b67cc5c3d04e2cf1ddee7" target="_top" xlink:title="Checks whether both edges share a vertex. ">
<polygon fill="#ffffff" stroke="#000000" points="569,-1114 569,-1144 676,-1144 676,-1114 569,-1114"/>
<text text-anchor="start" x="577" y="-1132" font-family="Helvetica,sans-Serif" font-size="10.00" fill="#000000">precice::mesh::Edge</text>
<text text-anchor="middle" x="622.5" y="-1121" font-family="Helvetica,sans-Serif" font-size="10.00" fill="#000000">::connectedTo</text>
</a>
</g>
</g>
<!-- Node341&#45;&gt;Node342 -->
<g id="edge16" class="edge">
<title>Node341&#45;&gt;Node342</title>
<path fill="none" stroke="#191970" d="M496.5059,-1129C516.0839,-1129 538.3825,-1129 558.7232,-1129"/>
<polygon fill="#191970" stroke="#191970" points="558.8426,-1132.5001 568.8426,-1129 558.8425,-1125.5001 558.8426,-1132.5001"/>
</g>
<!-- Node347&#45;&gt;Node348 -->
<g id="edge25" class="edge">
<title>Node347&#45;&gt;Node348</title>
<path fill="none" stroke="#191970" d="M496.5059,-228C515.9067,-228 537.9792,-228 558.1704,-228"/>
<polygon fill="#191970" stroke="#191970" points="558.2214,-231.5001 568.2213,-228 558.2213,-224.5001 558.2214,-231.5001"/>
</g>
<!-- Node349&#45;&gt;Node339 -->
<g id="edge27" class="edge">
<title>Node349&#45;&gt;Node339</title>
<path fill="none" stroke="#191970" d="M492.5213,-380.1232C500.1458,-382.839 507.8507,-385.8252 515,-389 541.1381,-400.607 569.1972,-416.6619 590.0926,-429.3874"/>
<polygon fill="#191970" stroke="#191970" points="588.5189,-432.5287 598.869,-434.7929 592.19,-426.5685 588.5189,-432.5287"/>
</g>
<!-- Node350&#45;&gt;Node333 -->
<g id="edge29" class="edge">
<title>Node350&#45;&gt;Node333</title>
<path fill="none" stroke="#191970" d="M496.6163,-192.7104C503.1198,-195.5503 509.4227,-198.947 515,-203 536.8609,-218.8863 529.2724,-235.9319 551,-252 553.6433,-253.9548 556.4521,-255.7661 559.3691,-257.4435"/>
<polygon fill="#191970" stroke="#191970" points="557.8931,-260.6202 568.3865,-262.083 561.0956,-254.3957 557.8931,-260.6202"/>
</g>
<!-- Node351 -->
<g id="node23" class="node">
<title>Node351</title>
<g id="a_node23"><a xlink:href="namespaceprecice_1_1utils.html#a70a03ea1367189736d49351c6385c8c9" target="_top" xlink:title="precice::utils::append">
<polygon fill="#ffffff" stroke="#000000" points="567.5,-169.5 567.5,-188.5 677.5,-188.5 677.5,-169.5 567.5,-169.5"/>
<text text-anchor="middle" x="622.5" y="-176.5" font-family="Helvetica,sans-Serif" font-size="10.00" fill="#000000">precice::utils::append</text>
</a>
</g>
</g>
<!-- Node350&#45;&gt;Node351 -->
<g id="edge30" class="edge">
<title>Node350&#45;&gt;Node351</title>
<path fill="none" stroke="#191970" d="M496.5059,-179C515.5536,-179 537.1765,-179 557.066,-179"/>
<polygon fill="#191970" stroke="#191970" points="557.2862,-182.5001 567.2861,-179 557.2861,-175.5001 557.2862,-182.5001"/>
</g>
<!-- Node354 -->
<g id="node26" class="node">
<title>Node354</title>
<g id="a_node26"><a xlink:href="classprecice_1_1mesh_1_1BoundingBox.html#a7aeb328ca8291253c4fd22d0d4cb0a18" target="_top" xlink:title="Expand bounding box using another bounding box. ">
<polygon fill="#ffffff" stroke="#000000" points="551.5,-1065 551.5,-1095 693.5,-1095 693.5,-1065 551.5,-1065"/>
<text text-anchor="start" x="559.5" y="-1083" font-family="Helvetica,sans-Serif" font-size="10.00" fill="#000000">precice::mesh::BoundingBox</text>
<text text-anchor="middle" x="622.5" y="-1072" font-family="Helvetica,sans-Serif" font-size="10.00" fill="#000000">::expandBy</text>
</a>
</g>
</g>
<!-- Node353&#45;&gt;Node354 -->
<g id="edge33" class="edge">
<title>Node353&#45;&gt;Node354</title>
<path fill="none" stroke="#191970" d="M501.9376,-1080C514.5043,-1080 527.9731,-1080 541.1895,-1080"/>
<polygon fill="#191970" stroke="#191970" points="541.228,-1083.5001 551.228,-1080 541.2279,-1076.5001 541.228,-1083.5001"/>
</g>
<!-- Node355&#45;&gt;Node333 -->
<g id="edge36" class="edge">
<title>Node355&#45;&gt;Node333</title>
<path fill="none" stroke="#191970" d="M496.7093,-141.772C503.4265,-144.9272 509.7609,-148.9278 515,-154 548.3373,-186.2755 517.933,-219.4475 551,-252 553.561,-254.5211 556.3899,-256.7889 559.4005,-258.8286"/>
<polygon fill="#191970" stroke="#191970" points="557.889,-261.9982 568.2941,-263.9944 561.4049,-255.9452 557.889,-261.9982"/>
</g>
<!-- Node356 -->
<g id="node28" class="node">
<title>Node356</title>
<g id="a_node28"><a xlink:href="classprecice_1_1utils_1_1ManageUniqueIDs.html#af8eca33b69c8ee473d27f639bd29c25c" target="_top" xlink:title="Resets all retrieved and inserted IDs. ">
<polygon fill="#ffffff" stroke="#000000" points="551,-115 551,-145 694,-145 694,-115 551,-115"/>
<text text-anchor="start" x="559" y="-133" font-family="Helvetica,sans-Serif" font-size="10.00" fill="#000000">precice::utils::ManageUnique</text>
<text text-anchor="middle" x="622.5" y="-122" font-family="Helvetica,sans-Serif" font-size="10.00" fill="#000000">IDs::resetIDs</text>
</a>
</g>
</g>
<!-- Node355&#45;&gt;Node356 -->
<g id="edge35" class="edge">
<title>Node355&#45;&gt;Node356</title>
<path fill="none" stroke="#191970" d="M496.5059,-130C510.3888,-130 525.6396,-130 540.5903,-130"/>
<polygon fill="#191970" stroke="#191970" points="540.8724,-133.5001 550.8724,-130 540.8723,-126.5001 540.8724,-133.5001"/>
</g>
<!-- Node362&#45;&gt;Node333 -->
<g id="edge43" class="edge">
<title>Node362&#45;&gt;Node333</title>
<path fill="none" stroke="#191970" d="M500.9408,-277C519.2165,-277 539.48,-277 558.1393,-277"/>
<polygon fill="#191970" stroke="#191970" points="558.3177,-280.5001 568.3177,-277 558.3177,-273.5001 558.3177,-280.5001"/>
</g>
<!-- Node362&#45;&gt;Node348 -->
<g id="edge44" class="edge">
<title>Node362&#45;&gt;Node348</title>
<path fill="none" stroke="#191970" d="M497.9747,-261.8986C517.1505,-256.6785 538.7909,-250.7875 558.588,-245.3983"/>
<polygon fill="#191970" stroke="#191970" points="559.714,-248.7192 568.4436,-242.7154 557.8753,-241.965 559.714,-248.7192"/>
</g>
</g>
</svg>
