<?xml version="1.0" encoding="UTF-8" standalone="no"?>
<!DOCTYPE svg PUBLIC "-//W3C//DTD SVG 1.1//EN"
 "http://www.w3.org/Graphics/SVG/1.1/DTD/svg11.dtd">
<!-- Generated by graphviz version 2.40.1 (20161225.0304)
 -->
<!-- Title: src/com/MPIPortsCommunication.cpp Pages: 1 -->
<!--zoomable 442 -->
<svg id="main" version="1.1" xmlns="http://www.w3.org/2000/svg" xmlns:xlink="http://www.w3.org/1999/xlink" xml:space="preserve" onload="init(evt)">
<style type="text/css"><![CDATA[
.edge:hover path { stroke: red; }
.edge:hover polygon { stroke: red; fill: red; }
]]></style>
<script type="text/javascript"><![CDATA[
var edges = document.getElementsByTagName('g');
if (edges && edges.length) {
  for (var i=0;i<edges.length;i++) {
    if (edges[i].id.substr(0,4)=='edge') {
      edges[i].setAttribute('class','edge');
    }
  }
}
]]></script>
        <defs>
                <circle id="rim" cx="0" cy="0" r="7"/>
                <circle id="rim2" cx="0" cy="0" r="3.5"/>
                <g id="zoomPlus">
                        <use xlink:href="#rim" fill="#404040">
                                <set attributeName="fill" to="#808080" begin="zoomplus.mouseover" end="zoomplus.mouseout"/>
                        </use>
                        <path d="M-4,0h8M0,-4v8" fill="none" stroke="white" stroke-width="1.5" pointer-events="none"/>
                </g>
                <g id="zoomMin">
                        <use xlink:href="#rim" fill="#404040">
                                <set attributeName="fill" to="#808080" begin="zoomminus.mouseover" end="zoomminus.mouseout"/>
                        </use>
                        <path d="M-4,0h8" fill="none" stroke="white" stroke-width="1.5" pointer-events="none"/>
                </g>
                <g id="dirArrow">
                        <path fill="none" stroke="white" stroke-width="1.5" d="M0,-3.0v7 M-2.5,-0.5L0,-3.0L2.5,-0.5"/>
                </g>
               <g id="resetDef">
                       <use xlink:href="#rim2" fill="#404040">
                               <set attributeName="fill" to="#808080" begin="reset.mouseover" end="reset.mouseout"/>
                       </use>
               </g>
        </defs>

<script type="text/javascript">
var viewWidth = 2033;
var viewHeight = 442;
var sectionId = 'dynsection-0';
</script>
<script xlink:href="svgpan.js"/>
<svg id="graph" class="graph">
<g id="viewport">
<title>src/com/MPIPortsCommunication.cpp</title>
<polygon fill="#ffffff" stroke="transparent" points="-4,4 -4,-438 2029,-438 2029,4 -4,4"/>
<!-- Node0 -->
<g id="node1" class="node">
<title>Node0</title>
<polygon fill="#bfbfbf" stroke="#000000" points="635.5,-414.5 635.5,-433.5 832.5,-433.5 832.5,-414.5 635.5,-414.5"/>
<text text-anchor="middle" x="734" y="-421.5" font-family="Helvetica,sans-Serif" font-size="10.00" fill="#000000">src/com/MPIPortsCommunication.cpp</text>
</g>
<!-- Node1 -->
<g id="node2" class="node">
<title>Node1</title>
<g id="a_node2"><a xlink:href="MPIPortsCommunication_8hpp.html" target="_top" xlink:title="MPIPortsCommunication.hpp">
<polygon fill="#ffffff" stroke="#000000" points="315.5,-358.5 315.5,-377.5 472.5,-377.5 472.5,-358.5 315.5,-358.5"/>
<text text-anchor="middle" x="394" y="-365.5" font-family="Helvetica,sans-Serif" font-size="10.00" fill="#000000">MPIPortsCommunication.hpp</text>
</a>
</g>
</g>
<!-- Node0&#45;&gt;Node1 -->
<g id="edge1" class="edge">
<title>Node0&#45;&gt;Node1</title>
<path fill="none" stroke="#191970" d="M675.9382,-414.4369C616.6497,-404.6717 524.6616,-389.5207 462.0035,-379.2006"/>
<polygon fill="#191970" stroke="#191970" points="462.2582,-375.6954 451.8223,-377.5237 461.1205,-382.6024 462.2582,-375.6954"/>
</g>
<!-- Node14 -->
<g id="node15" class="node">
<title>Node14</title>
<g id="a_node15"><a xlink:href="LogMacros_8hpp.html" target="_top" xlink:title="LogMacros.hpp">
<polygon fill="#ffffff" stroke="#000000" points="1081.5,-123.5 1081.5,-142.5 1170.5,-142.5 1170.5,-123.5 1081.5,-123.5"/>
<text text-anchor="middle" x="1126" y="-130.5" font-family="Helvetica,sans-Serif" font-size="10.00" fill="#000000">LogMacros.hpp</text>
</a>
</g>
</g>
<!-- Node0&#45;&gt;Node14 -->
<g id="edge48" class="edge">
<title>Node0&#45;&gt;Node14</title>
<path fill="none" stroke="#191970" d="M796.5614,-414.4902C887.3785,-398.8946 1045,-364.2944 1045,-312 1045,-312 1045,-312 1045,-250.5 1045,-208.1676 1081.0797,-170.003 1105.0796,-149.2991"/>
<polygon fill="#191970" stroke="#191970" points="1107.534,-151.8102 1112.9859,-142.7258 1103.0588,-146.4275 1107.534,-151.8102"/>
</g>
<!-- Node25 -->
<g id="node26" class="node">
<title>Node25</title>
<polygon fill="#ffffff" stroke="#bfbfbf" points="568.5,-358.5 568.5,-377.5 687.5,-377.5 687.5,-358.5 568.5,-358.5"/>
<text text-anchor="middle" x="628" y="-365.5" font-family="Helvetica,sans-Serif" font-size="10.00" fill="#000000">boost/filesystem.hpp</text>
</g>
<!-- Node0&#45;&gt;Node25 -->
<g id="edge41" class="edge">
<title>Node0&#45;&gt;Node25</title>
<path fill="none" stroke="#191970" d="M715.5362,-414.2455C698.8926,-405.4527 674.2007,-392.4079 655.2808,-382.4125"/>
<polygon fill="#191970" stroke="#191970" points="656.7291,-379.2193 646.2522,-377.6427 653.4592,-385.4086 656.7291,-379.2193"/>
</g>
<!-- Node26 -->
<g id="node27" class="node">
<title>Node26</title>
<polygon fill="#ffffff" stroke="#bfbfbf" points="705.5,-358.5 705.5,-377.5 762.5,-377.5 762.5,-358.5 705.5,-358.5"/>
<text text-anchor="middle" x="734" y="-365.5" font-family="Helvetica,sans-Serif" font-size="10.00" fill="#000000">ostream</text>
</g>
<!-- Node0&#45;&gt;Node26 -->
<g id="edge42" class="edge">
<title>Node0&#45;&gt;Node26</title>
<path fill="none" stroke="#191970" d="M734,-414.2455C734,-406.9382 734,-396.6944 734,-387.7046"/>
<polygon fill="#191970" stroke="#191970" points="737.5001,-387.6426 734,-377.6427 730.5001,-387.6427 737.5001,-387.6426"/>
</g>
<!-- Node27 -->
<g id="node28" class="node">
<title>Node27</title>
<polygon fill="#ffffff" stroke="#bfbfbf" points="628.5,-302.5 628.5,-321.5 673.5,-321.5 673.5,-302.5 628.5,-302.5"/>
<text text-anchor="middle" x="651" y="-309.5" font-family="Helvetica,sans-Serif" font-size="10.00" fill="#000000">utility</text>
</g>
<!-- Node0&#45;&gt;Node27 -->
<g id="edge43" class="edge">
<title>Node0&#45;&gt;Node27</title>
<path fill="none" stroke="#191970" d="M665.0922,-414.4968C622.3297,-407.0278 573.1057,-395.0207 560,-378 540.1456,-352.2146 584.7656,-332.0183 618.2908,-321.0702"/>
<polygon fill="#191970" stroke="#191970" points="619.7446,-324.2836 628.2553,-317.9735 617.6671,-317.599 619.7446,-324.2836"/>
</g>
<!-- Node28 -->
<g id="node29" class="node">
<title>Node28</title>
<g id="a_node29"><a xlink:href="ConnectionInfoPublisher_8hpp.html" target="_top" xlink:title="ConnectionInfoPublisher.hpp">
<polygon fill="#ffffff" stroke="#000000" points="780.5,-358.5 780.5,-377.5 935.5,-377.5 935.5,-358.5 780.5,-358.5"/>
<text text-anchor="middle" x="858" y="-365.5" font-family="Helvetica,sans-Serif" font-size="10.00" fill="#000000">ConnectionInfoPublisher.hpp</text>
</a>
</g>
</g>
<!-- Node0&#45;&gt;Node28 -->
<g id="edge44" class="edge">
<title>Node0&#45;&gt;Node28</title>
<path fill="none" stroke="#191970" d="M755.3164,-414.3733C775.2216,-405.3838 805.1436,-391.8706 827.56,-381.7471"/>
<polygon fill="#191970" stroke="#191970" points="829.2887,-384.8068 836.9618,-377.5011 826.4075,-378.4272 829.2887,-384.8068"/>
</g>
<!-- Node29 -->
<g id="node30" class="node">
<title>Node29</title>
<g id="a_node30"><a xlink:href="assertion_8hpp.html" target="_top" xlink:title="utils/assertion.hpp">
<polygon fill="#ffffff" stroke="#000000" points="1529.5,-302.5 1529.5,-321.5 1636.5,-321.5 1636.5,-302.5 1529.5,-302.5"/>
<text text-anchor="middle" x="1583" y="-309.5" font-family="Helvetica,sans-Serif" font-size="10.00" fill="#000000">utils/assertion.hpp</text>
</a>
</g>
</g>
<!-- Node0&#45;&gt;Node29 -->
<g id="edge49" class="edge">
<title>Node0&#45;&gt;Node29</title>
<path fill="none" stroke="#191970" d="M806.019,-414.4993C969.0344,-392.9943 1364.1133,-340.8755 1519.0965,-320.4301"/>
<polygon fill="#191970" stroke="#191970" points="1519.9374,-323.8496 1529.3937,-319.0717 1519.0218,-316.9098 1519.9374,-323.8496"/>
</g>
<!-- Node2 -->
<g id="node3" class="node">
<title>Node2</title>
<polygon fill="#ffffff" stroke="#bfbfbf" points="232,-302.5 232,-321.5 270,-321.5 270,-302.5 232,-302.5"/>
<text text-anchor="middle" x="251" y="-309.5" font-family="Helvetica,sans-Serif" font-size="10.00" fill="#000000">map</text>
</g>
<!-- Node1&#45;&gt;Node2 -->
<g id="edge2" class="edge">
<title>Node1&#45;&gt;Node2</title>
<path fill="none" stroke="#191970" d="M369.4174,-358.3733C344.4927,-348.6125 305.949,-333.5185 279.6541,-323.2212"/>
<polygon fill="#191970" stroke="#191970" points="280.8177,-319.9181 270.2299,-319.5306 278.2651,-326.4361 280.8177,-319.9181"/>
</g>
<!-- Node3 -->
<g id="node4" class="node">
<title>Node3</title>
<polygon fill="#ffffff" stroke="#bfbfbf" points="604,-179.5 604,-198.5 648,-198.5 648,-179.5 604,-179.5"/>
<text text-anchor="middle" x="626" y="-186.5" font-family="Helvetica,sans-Serif" font-size="10.00" fill="#000000">mpi.h</text>
</g>
<!-- Node1&#45;&gt;Node3 -->
<g id="edge3" class="edge">
<title>Node1&#45;&gt;Node3</title>
<path fill="none" stroke="#191970" d="M416.5386,-358.4248C435.1321,-350.0488 461.8044,-336.9124 483,-322 534.013,-286.1093 585.5562,-233.1181 610.5231,-206.139"/>
<polygon fill="#191970" stroke="#191970" points="613.2115,-208.3859 617.3882,-198.649 608.0512,-203.656 613.2115,-208.3859"/>
</g>
<!-- Node4 -->
<g id="node5" class="node">
<title>Node4</title>
<polygon fill="#ffffff" stroke="#bfbfbf" points="66,-179.5 66,-198.5 98,-198.5 98,-179.5 66,-179.5"/>
<text text-anchor="middle" x="82" y="-186.5" font-family="Helvetica,sans-Serif" font-size="10.00" fill="#000000">set</text>
</g>
<!-- Node1&#45;&gt;Node4 -->
<g id="edge4" class="edge">
<title>Node1&#45;&gt;Node4</title>
<path fill="none" stroke="#191970" d="M315.2685,-360.4261C278.2673,-354.1801 234.7581,-342.7855 200,-322 150.9682,-292.6787 111.1571,-236.2382 92.862,-207.2162"/>
<polygon fill="#191970" stroke="#191970" points="95.7222,-205.1859 87.5001,-198.5039 89.7607,-208.8548 95.7222,-205.1859"/>
</g>
<!-- Node5 -->
<g id="node6" class="node">
<title>Node5</title>
<polygon fill="#ffffff" stroke="#bfbfbf" points="116,-179.5 116,-198.5 172,-198.5 172,-179.5 116,-179.5"/>
<text text-anchor="middle" x="144" y="-186.5" font-family="Helvetica,sans-Serif" font-size="10.00" fill="#000000">stddef.h</text>
</g>
<!-- Node1&#45;&gt;Node5 -->
<g id="edge5" class="edge">
<title>Node1&#45;&gt;Node5</title>
<path fill="none" stroke="#191970" d="M341.9074,-358.4685C298.7847,-349.7766 241.6784,-336.164 223,-322 184.1005,-292.5022 160.6121,-237.8371 150.2619,-208.6185"/>
<polygon fill="#191970" stroke="#191970" points="153.4514,-207.1243 146.9336,-198.7716 146.82,-209.3658 153.4514,-207.1243"/>
</g>
<!-- Node6 -->
<g id="node7" class="node">
<title>Node6</title>
<polygon fill="#ffffff" stroke="#bfbfbf" points="649,-.5 649,-19.5 693,-19.5 693,-.5 649,-.5"/>
<text text-anchor="middle" x="671" y="-7.5" font-family="Helvetica,sans-Serif" font-size="10.00" fill="#000000">string</text>
</g>
<!-- Node1&#45;&gt;Node6 -->
<g id="edge6" class="edge">
<title>Node1&#45;&gt;Node6</title>
<path fill="none" stroke="#191970" d="M403.3968,-358.2152C411.3458,-349.4122 422.458,-335.779 429,-322 481.1517,-212.1557 407.7431,-142.6997 493,-56 513.1911,-35.4672 593.3539,-21.0258 638.9134,-14.2899"/>
<polygon fill="#191970" stroke="#191970" points="639.485,-17.7438 648.8854,-12.8569 638.4892,-10.815 639.485,-17.7438"/>
</g>
<!-- Node7 -->
<g id="node8" class="node">
<title>Node7</title>
<g id="a_node8"><a xlink:href="MPICommunication_8hpp.html" target="_top" xlink:title="MPICommunication.hpp">
<polygon fill="#ffffff" stroke="#000000" points="288,-302.5 288,-321.5 420,-321.5 420,-302.5 288,-302.5"/>
<text text-anchor="middle" x="354" y="-309.5" font-family="Helvetica,sans-Serif" font-size="10.00" fill="#000000">MPICommunication.hpp</text>
</a>
</g>
</g>
<!-- Node1&#45;&gt;Node7 -->
<g id="edge7" class="edge">
<title>Node1&#45;&gt;Node7</title>
<path fill="none" stroke="#191970" d="M387.0325,-358.2455C381.4689,-350.4564 373.522,-339.3308 366.8171,-329.9439"/>
<polygon fill="#191970" stroke="#191970" points="369.5481,-327.7457 360.8876,-321.6427 363.852,-331.8144 369.5481,-327.7457"/>
</g>
<!-- Node13 -->
<g id="node14" class="node">
<title>Node13</title>
<g id="a_node14"><a xlink:href="Logger_8hpp.html" target="_top" xlink:title="logging/Logger.hpp">
<polygon fill="#ffffff" stroke="#000000" points="476.5,-179.5 476.5,-198.5 585.5,-198.5 585.5,-179.5 476.5,-179.5"/>
<text text-anchor="middle" x="531" y="-186.5" font-family="Helvetica,sans-Serif" font-size="10.00" fill="#000000">logging/Logger.hpp</text>
</a>
</g>
</g>
<!-- Node1&#45;&gt;Node13 -->
<g id="edge40" class="edge">
<title>Node1&#45;&gt;Node13</title>
<path fill="none" stroke="#191970" d="M413.2121,-358.4293C427.9928,-350.3199 448.1647,-337.544 462,-322 492.9941,-287.1781 514.408,-235.9319 524.4657,-208.3216"/>
<polygon fill="#191970" stroke="#191970" points="527.8444,-209.2643 527.8666,-198.6695 521.2423,-206.938 527.8444,-209.2643"/>
</g>
<!-- Node7&#45;&gt;Node3 -->
<g id="edge8" class="edge">
<title>Node7&#45;&gt;Node3</title>
<path fill="none" stroke="#191970" d="M376.1774,-302.4305C397.4661,-293.2099 430.5014,-278.8112 459,-266 507.236,-244.3161 562.97,-218.4547 596.3026,-202.9008"/>
<polygon fill="#191970" stroke="#191970" points="597.9105,-206.0128 605.49,-198.61 594.9484,-199.6704 597.9105,-206.0128"/>
</g>
<!-- Node7&#45;&gt;Node6 -->
<g id="edge9" class="edge">
<title>Node7&#45;&gt;Node6</title>
<path fill="none" stroke="#191970" d="M293.8949,-302.4644C225.2795,-291.3461 120.2559,-273.5328 103,-266 50.6179,-243.1334 0,-246.1556 0,-189 0,-189 0,-189 0,-133 0,-67.2726 504.5482,-23.0472 638.615,-12.4559"/>
<polygon fill="#191970" stroke="#191970" points="638.9778,-15.9383 648.6746,-11.6697 638.4323,-8.9596 638.9778,-15.9383"/>
</g>
<!-- Node8 -->
<g id="node9" class="node">
<title>Node8</title>
<polygon fill="#ffffff" stroke="#bfbfbf" points="228.5,-123.5 228.5,-142.5 275.5,-142.5 275.5,-123.5 228.5,-123.5"/>
<text text-anchor="middle" x="252" y="-130.5" font-family="Helvetica,sans-Serif" font-size="10.00" fill="#000000">vector</text>
</g>
<!-- Node7&#45;&gt;Node8 -->
<g id="edge10" class="edge">
<title>Node7&#45;&gt;Node8</title>
<path fill="none" stroke="#191970" d="M311.3559,-302.4343C236.0294,-284.533 84.7287,-243.7175 57,-199 52.3156,-191.4456 51.4831,-185.9697 57,-179 76.7515,-154.0471 167.8952,-141.2639 218.28,-136.0019"/>
<polygon fill="#191970" stroke="#191970" points="218.771,-139.4703 228.3726,-134.9915 218.0736,-132.5051 218.771,-139.4703"/>
</g>
<!-- Node9 -->
<g id="node10" class="node">
<title>Node9</title>
<g id="a_node10"><a xlink:href="Communication_8hpp.html" target="_top" xlink:title="com/Communication.hpp">
<polygon fill="#ffffff" stroke="#000000" points="201.5,-241 201.5,-260 340.5,-260 340.5,-241 201.5,-241"/>
<text text-anchor="middle" x="271" y="-248" font-family="Helvetica,sans-Serif" font-size="10.00" fill="#000000">com/Communication.hpp</text>
</a>
</g>
</g>
<!-- Node7&#45;&gt;Node9 -->
<g id="edge11" class="edge">
<title>Node7&#45;&gt;Node9</title>
<path fill="none" stroke="#191970" d="M341.0313,-302.3906C327.9966,-292.7324 307.6836,-277.6812 292.2845,-266.271"/>
<polygon fill="#191970" stroke="#191970" points="293.9961,-263.1832 283.8777,-260.0419 289.8287,-268.8075 293.9961,-263.1832"/>
</g>
<!-- Node11 -->
<g id="node12" class="node">
<title>Node11</title>
<g id="a_node12"><a xlink:href="com_2SharedPointer_8hpp.html" target="_top" xlink:title="com/SharedPointer.hpp">
<polygon fill="#ffffff" stroke="#000000" points="293.5,-123.5 293.5,-142.5 422.5,-142.5 422.5,-123.5 293.5,-123.5"/>
<text text-anchor="middle" x="358" y="-130.5" font-family="Helvetica,sans-Serif" font-size="10.00" fill="#000000">com/SharedPointer.hpp</text>
</a>
</g>
</g>
<!-- Node7&#45;&gt;Node11 -->
<g id="edge38" class="edge">
<title>Node7&#45;&gt;Node11</title>
<path fill="none" stroke="#191970" d="M356.8116,-302.3145C362.8238,-280.361 375.9186,-225.1354 370,-179 368.8609,-170.1204 366.5327,-160.5073 364.2277,-152.3763"/>
<polygon fill="#191970" stroke="#191970" points="367.5552,-151.2881 361.3127,-142.7276 360.8543,-153.3125 367.5552,-151.2881"/>
</g>
<!-- Node7&#45;&gt;Node13 -->
<g id="edge39" class="edge">
<title>Node7&#45;&gt;Node13</title>
<path fill="none" stroke="#191970" d="M368.8699,-302.4882C383.1238,-293.3094 405.1902,-278.9398 424,-266 454.1616,-245.251 488.4068,-220.3685 509.8563,-204.6192"/>
<polygon fill="#191970" stroke="#191970" points="511.9691,-207.41 517.9493,-198.6643 507.8204,-201.7719 511.9691,-207.41"/>
</g>
<!-- Node9&#45;&gt;Node4 -->
<g id="edge12" class="edge">
<title>Node9&#45;&gt;Node4</title>
<path fill="none" stroke="#191970" d="M238.0842,-240.9682C206.746,-231.7164 158.0999,-216.8974 107.5303,-199.0117"/>
<polygon fill="#191970" stroke="#191970" points="108.6639,-195.7001 98.0692,-195.637 106.3121,-202.2932 108.6639,-195.7001"/>
</g>
<!-- Node9&#45;&gt;Node5 -->
<g id="edge13" class="edge">
<title>Node9&#45;&gt;Node5</title>
<path fill="none" stroke="#191970" d="M251.1563,-240.8906C230.1864,-230.7359 196.9056,-214.6196 172.9964,-203.0416"/>
<polygon fill="#191970" stroke="#191970" points="174.2301,-199.7502 163.7044,-198.5419 171.1792,-206.0504 174.2301,-199.7502"/>
</g>
<!-- Node9&#45;&gt;Node6 -->
<g id="edge14" class="edge">
<title>Node9&#45;&gt;Node6</title>
<path fill="none" stroke="#191970" d="M260.8769,-240.7249C238.7876,-218.2059 190.447,-161.6465 219,-123 269.7368,-54.3277 544.1834,-22.0706 638.8648,-12.8701"/>
<polygon fill="#191970" stroke="#191970" points="639.3635,-16.3385 648.9876,-11.9083 638.7014,-9.3699 639.3635,-16.3385"/>
</g>
<!-- Node9&#45;&gt;Node8 -->
<g id="edge15" class="edge">
<title>Node9&#45;&gt;Node8</title>
<path fill="none" stroke="#191970" d="M267.7537,-240.7517C264.4769,-230.4864 259.5472,-213.7923 257,-199 254.3757,-183.7597 253.1288,-166.3034 252.5363,-153.1728"/>
<polygon fill="#191970" stroke="#191970" points="256.0245,-152.7789 252.166,-142.9117 249.029,-153.0314 256.0245,-152.7789"/>
</g>
<!-- Node10 -->
<g id="node11" class="node">
<title>Node10</title>
<g id="a_node11"><a xlink:href="Request_8hpp.html" target="_top" xlink:title="Request.hpp">
<polygon fill="#ffffff" stroke="#000000" points="266.5,-179.5 266.5,-198.5 343.5,-198.5 343.5,-179.5 266.5,-179.5"/>
<text text-anchor="middle" x="305" y="-186.5" font-family="Helvetica,sans-Serif" font-size="10.00" fill="#000000">Request.hpp</text>
</a>
</g>
</g>
<!-- Node9&#45;&gt;Node10 -->
<g id="edge16" class="edge">
<title>Node9&#45;&gt;Node10</title>
<path fill="none" stroke="#191970" d="M276.3125,-240.8906C281.2239,-232.0068 288.6579,-218.5601 294.7275,-207.5811"/>
<polygon fill="#191970" stroke="#191970" points="297.8373,-209.1899 299.6126,-198.7449 291.7112,-205.8031 297.8373,-209.1899"/>
</g>
<!-- Node9&#45;&gt;Node11 -->
<g id="edge20" class="edge">
<title>Node9&#45;&gt;Node11</title>
<path fill="none" stroke="#191970" d="M297.5531,-240.977C316.1063,-232.8392 339.6808,-219.2035 352,-199 360.413,-185.2027 361.4006,-166.6783 360.5781,-152.7669"/>
<polygon fill="#191970" stroke="#191970" points="364.0597,-152.4056 359.6378,-142.7777 357.0905,-153.0618 364.0597,-152.4056"/>
</g>
<!-- Node9&#45;&gt;Node13 -->
<g id="edge21" class="edge">
<title>Node9&#45;&gt;Node13</title>
<path fill="none" stroke="#191970" d="M311.3397,-240.9581C356.9768,-230.1632 431.357,-212.5694 480.734,-200.8899"/>
<polygon fill="#191970" stroke="#191970" points="481.6398,-204.2722 490.5656,-198.5643 480.0285,-197.4602 481.6398,-204.2722"/>
</g>
<!-- Node10&#45;&gt;Node8 -->
<g id="edge17" class="edge">
<title>Node10&#45;&gt;Node8</title>
<path fill="none" stroke="#191970" d="M295.7681,-179.2455C288.1683,-171.2155 277.2123,-159.6394 268.1632,-150.0781"/>
<polygon fill="#191970" stroke="#191970" points="270.542,-147.4998 261.1261,-142.6427 265.4579,-152.3115 270.542,-147.4998"/>
</g>
<!-- Node10&#45;&gt;Node11 -->
<g id="edge18" class="edge">
<title>Node10&#45;&gt;Node11</title>
<path fill="none" stroke="#191970" d="M314.2319,-179.2455C321.8317,-171.2155 332.7877,-159.6394 341.8368,-150.0781"/>
<polygon fill="#191970" stroke="#191970" points="344.5421,-152.3115 348.8739,-142.6427 339.458,-147.4998 344.5421,-152.3115"/>
</g>
<!-- Node12 -->
<g id="node13" class="node">
<title>Node12</title>
<polygon fill="#ffffff" stroke="#bfbfbf" points="502,-62 502,-81 560,-81 560,-62 502,-62"/>
<text text-anchor="middle" x="531" y="-69" font-family="Helvetica,sans-Serif" font-size="10.00" fill="#000000">memory</text>
</g>
<!-- Node11&#45;&gt;Node12 -->
<g id="edge19" class="edge">
<title>Node11&#45;&gt;Node12</title>
<path fill="none" stroke="#191970" d="M385.0313,-123.3906C414.4851,-112.92 461.7689,-96.1111 494.5027,-84.4745"/>
<polygon fill="#191970" stroke="#191970" points="495.9086,-87.6893 504.1586,-81.0419 493.5639,-81.0937 495.9086,-87.6893"/>
</g>
<!-- Node13&#45;&gt;Node6 -->
<g id="edge23" class="edge">
<title>Node13&#45;&gt;Node6</title>
<path fill="none" stroke="#191970" d="M538.527,-179.3762C561.0314,-150.6027 628.0436,-64.9228 657.1967,-27.6485"/>
<polygon fill="#191970" stroke="#191970" points="660.032,-29.7046 663.4358,-19.6714 654.5181,-25.3921 660.032,-29.7046"/>
</g>
<!-- Node13&#45;&gt;Node12 -->
<g id="edge22" class="edge">
<title>Node13&#45;&gt;Node12</title>
<path fill="none" stroke="#191970" d="M531,-179.3845C531,-160.1913 531,-116.786 531,-91.2663"/>
<polygon fill="#191970" stroke="#191970" points="534.5001,-91.2483 531,-81.2484 527.5001,-91.2484 534.5001,-91.2483"/>
</g>
<!-- Node13&#45;&gt;Node14 -->
<g id="edge24" class="edge">
<title>Node13&#45;&gt;Node14</title>
<path fill="none" stroke="#191970" d="M585.7784,-180.1879C588.8953,-179.7654 591.9857,-179.3656 595,-179 768.4933,-157.9562 975.0144,-142.9254 1071.3975,-136.4894"/>
<polygon fill="#191970" stroke="#191970" points="1071.7412,-139.9744 1081.4877,-135.8202 1071.2779,-132.9898 1071.7412,-139.9744"/>
</g>
<!-- Node14&#45;&gt;Node6 -->
<g id="edge31" class="edge">
<title>Node14&#45;&gt;Node6</title>
<path fill="none" stroke="#191970" d="M1081.3792,-130.778C1032.3754,-126.8953 952.363,-116.2373 890,-87 870.2653,-77.7479 871.4661,-65.8046 852,-56 803.5063,-31.5748 741.0013,-19.4209 703.5693,-13.9357"/>
<polygon fill="#191970" stroke="#191970" points="703.6418,-10.4122 693.2549,-12.5009 702.6772,-17.3454 703.6418,-10.4122"/>
</g>
<!-- Node15 -->
<g id="node16" class="node">
<title>Node15</title>
<polygon fill="#ffffff" stroke="#bfbfbf" points="1591,-56.5 1591,-86.5 1701,-86.5 1701,-56.5 1591,-56.5"/>
<text text-anchor="start" x="1599" y="-74.5" font-family="Helvetica,sans-Serif" font-size="10.00" fill="#000000">boost/preprocessor</text>
<text text-anchor="middle" x="1646" y="-63.5" font-family="Helvetica,sans-Serif" font-size="10.00" fill="#000000">/control/if.hpp</text>
</g>
<!-- Node14&#45;&gt;Node15 -->
<g id="edge25" class="edge">
<title>Node14&#45;&gt;Node15</title>
<path fill="none" stroke="#191970" d="M1170.6122,-130.5357C1250.801,-125.6653 1424.7057,-113.0952 1580.694,-87.0751"/>
<polygon fill="#191970" stroke="#191970" points="1581.6655,-90.4605 1590.9416,-85.3416 1580.4979,-83.5586 1581.6655,-90.4605"/>
</g>
<!-- Node16 -->
<g id="node17" class="node">
<title>Node16</title>
<polygon fill="#ffffff" stroke="#bfbfbf" points="1061,-56.5 1061,-86.5 1177,-86.5 1177,-56.5 1061,-56.5"/>
<text text-anchor="start" x="1069" y="-74.5" font-family="Helvetica,sans-Serif" font-size="10.00" fill="#000000">boost/preprocessor</text>
<text text-anchor="middle" x="1119" y="-63.5" font-family="Helvetica,sans-Serif" font-size="10.00" fill="#000000">/facilities/empty.hpp</text>
</g>
<!-- Node14&#45;&gt;Node16 -->
<g id="edge26" class="edge">
<title>Node14&#45;&gt;Node16</title>
<path fill="none" stroke="#191970" d="M1124.9063,-123.3906C1124.0905,-116.2234 1122.9366,-106.0862 1121.865,-96.671"/>
<polygon fill="#191970" stroke="#191970" points="1125.3209,-96.0846 1120.7124,-86.5446 1118.3658,-96.8763 1125.3209,-96.0846"/>
</g>
<!-- Node17 -->
<g id="node18" class="node">
<title>Node17</title>
<polygon fill="#ffffff" stroke="#bfbfbf" points="1719.5,-56.5 1719.5,-86.5 1830.5,-86.5 1830.5,-56.5 1719.5,-56.5"/>
<text text-anchor="start" x="1727.5" y="-74.5" font-family="Helvetica,sans-Serif" font-size="10.00" fill="#000000">boost/preprocessor</text>
<text text-anchor="middle" x="1775" y="-63.5" font-family="Helvetica,sans-Serif" font-size="10.00" fill="#000000">/seq/for_each_i.hpp</text>
</g>
<!-- Node14&#45;&gt;Node17 -->
<g id="edge27" class="edge">
<title>Node14&#45;&gt;Node17</title>
<path fill="none" stroke="#191970" d="M1170.5999,-131.8496C1267.1107,-128.8529 1502.581,-118.8056 1709.3111,-86.9319"/>
<polygon fill="#191970" stroke="#191970" points="1710.1046,-90.3505 1719.4442,-85.3483 1709.0236,-83.4344 1710.1046,-90.3505"/>
</g>
<!-- Node18 -->
<g id="node19" class="node">
<title>Node18</title>
<polygon fill="#ffffff" stroke="#bfbfbf" points="1849,-56.5 1849,-86.5 1959,-86.5 1959,-56.5 1849,-56.5"/>
<text text-anchor="start" x="1857" y="-74.5" font-family="Helvetica,sans-Serif" font-size="10.00" fill="#000000">boost/preprocessor</text>
<text text-anchor="middle" x="1904" y="-63.5" font-family="Helvetica,sans-Serif" font-size="10.00" fill="#000000">/stringize.hpp</text>
</g>
<!-- Node14&#45;&gt;Node18 -->
<g id="edge28" class="edge">
<title>Node14&#45;&gt;Node18</title>
<path fill="none" stroke="#191970" d="M1170.9694,-131.1249C1303.3744,-125.4462 1691.2193,-107.6414 1838.7614,-86.9639"/>
<polygon fill="#191970" stroke="#191970" points="1839.575,-90.3822 1848.9624,-85.4703 1838.5608,-83.456 1839.575,-90.3822"/>
</g>
<!-- Node19 -->
<g id="node20" class="node">
<title>Node19</title>
<polygon fill="#ffffff" stroke="#bfbfbf" points="1457.5,-56.5 1457.5,-86.5 1572.5,-86.5 1572.5,-56.5 1457.5,-56.5"/>
<text text-anchor="start" x="1465.5" y="-74.5" font-family="Helvetica,sans-Serif" font-size="10.00" fill="#000000">boost/preprocessor</text>
<text text-anchor="middle" x="1515" y="-63.5" font-family="Helvetica,sans-Serif" font-size="10.00" fill="#000000">/variadic/to_seq.hpp</text>
</g>
<!-- Node14&#45;&gt;Node19 -->
<g id="edge29" class="edge">
<title>Node14&#45;&gt;Node19</title>
<path fill="none" stroke="#191970" d="M1170.7324,-127.8356C1231.1516,-120.5905 1342.3785,-106.3036 1447.2001,-87.0515"/>
<polygon fill="#191970" stroke="#191970" points="1448.1287,-90.439 1457.3222,-85.1729 1446.8514,-83.5565 1448.1287,-90.439"/>
</g>
<!-- Node20 -->
<g id="node21" class="node">
<title>Node20</title>
<polygon fill="#ffffff" stroke="#bfbfbf" points="1195,-62 1195,-81 1331,-81 1331,-62 1195,-62"/>
<text text-anchor="middle" x="1263" y="-69" font-family="Helvetica,sans-Serif" font-size="10.00" fill="#000000">boost/vmd/is_empty.hpp</text>
</g>
<!-- Node14&#45;&gt;Node20 -->
<g id="edge30" class="edge">
<title>Node14&#45;&gt;Node20</title>
<path fill="none" stroke="#191970" d="M1147.4063,-123.3906C1170.2283,-113.1457 1206.5679,-96.8326 1232.4057,-85.2339"/>
<polygon fill="#191970" stroke="#191970" points="1234.0545,-88.3303 1241.7441,-81.0419 1231.1877,-81.9443 1234.0545,-88.3303"/>
</g>
<!-- Node21 -->
<g id="node22" class="node">
<title>Node21</title>
<g id="a_node22"><a xlink:href="Tracer_8hpp.html" target="_top" xlink:title="logging/Tracer.hpp">
<polygon fill="#ffffff" stroke="#000000" points="737.5,-62 737.5,-81 842.5,-81 842.5,-62 737.5,-62"/>
<text text-anchor="middle" x="790" y="-69" font-family="Helvetica,sans-Serif" font-size="10.00" fill="#000000">logging/Tracer.hpp</text>
</a>
</g>
</g>
<!-- Node14&#45;&gt;Node21 -->
<g id="edge32" class="edge">
<title>Node14&#45;&gt;Node21</title>
<path fill="none" stroke="#191970" d="M1081.1121,-126.1398C1027.588,-117.7715 935.501,-102.7785 857,-87 851.3011,-85.8545 845.3465,-84.5841 839.4395,-83.2777"/>
<polygon fill="#191970" stroke="#191970" points="840.1218,-79.8438 829.5971,-81.0609 838.5837,-86.6727 840.1218,-79.8438"/>
</g>
<!-- Node22 -->
<g id="node23" class="node">
<title>Node22</title>
<polygon fill="#ffffff" stroke="#bfbfbf" points="899,-62 899,-81 1043,-81 1043,-62 899,-62"/>
<text text-anchor="middle" x="971" y="-69" font-family="Helvetica,sans-Serif" font-size="10.00" fill="#000000">prettyprint/prettyprint.hpp</text>
</g>
<!-- Node14&#45;&gt;Node22 -->
<g id="edge34" class="edge">
<title>Node14&#45;&gt;Node22</title>
<path fill="none" stroke="#191970" d="M1101.7813,-123.3906C1075.6194,-113.0103 1033.7571,-96.4004 1004.4612,-84.7766"/>
<polygon fill="#191970" stroke="#191970" points="1005.6346,-81.4767 995.0487,-81.0419 1003.0529,-87.9833 1005.6346,-81.4767"/>
</g>
<!-- Node23 -->
<g id="node24" class="node">
<title>Node23</title>
<g id="a_node24"><a xlink:href="String_8hpp.html" target="_top" xlink:title="utils/String.hpp">
<polygon fill="#ffffff" stroke="#000000" points="1349,-62 1349,-81 1439,-81 1439,-62 1349,-62"/>
<text text-anchor="middle" x="1394" y="-69" font-family="Helvetica,sans-Serif" font-size="10.00" fill="#000000">utils/String.hpp</text>
</a>
</g>
</g>
<!-- Node14&#45;&gt;Node23 -->
<g id="edge35" class="edge">
<title>Node14&#45;&gt;Node23</title>
<path fill="none" stroke="#191970" d="M1170.8802,-124.2743C1214.3224,-115.6113 1281.9442,-101.5539 1340,-87 1344.0445,-85.9861 1348.2441,-84.8786 1352.4341,-83.737"/>
<polygon fill="#191970" stroke="#191970" points="1353.4225,-87.095 1362.1162,-81.0395 1351.5437,-80.3518 1353.4225,-87.095"/>
</g>
<!-- Node21&#45;&gt;Node13 -->
<g id="edge33" class="edge">
<title>Node21&#45;&gt;Node13</title>
<path fill="none" stroke="#191970" d="M768.8753,-81.0836C723.1043,-101.8484 614.6291,-151.0601 561.4531,-175.1844"/>
<polygon fill="#191970" stroke="#191970" points="559.8557,-172.0657 552.1951,-179.3845 562.7478,-178.4404 559.8557,-172.0657"/>
</g>
<!-- Node23&#45;&gt;Node6 -->
<g id="edge37" class="edge">
<title>Node23&#45;&gt;Node6</title>
<path fill="none" stroke="#191970" d="M1365.117,-61.9945C1357.0661,-59.6789 1348.2613,-57.4529 1340,-56 1215.1901,-34.0501 818.8451,-16.1661 703.0556,-11.3066"/>
<polygon fill="#191970" stroke="#191970" points="703.1853,-7.8091 693.0483,-10.8899 702.894,-14.803 703.1853,-7.8091"/>
</g>
<!-- Node24 -->
<g id="node25" class="node">
<title>Node24</title>
<polygon fill="#ffffff" stroke="#bfbfbf" points="1681,-.5 1681,-19.5 1737,-19.5 1737,-.5 1681,-.5"/>
<text text-anchor="middle" x="1709" y="-7.5" font-family="Helvetica,sans-Serif" font-size="10.00" fill="#000000">sstream</text>
</g>
<!-- Node23&#45;&gt;Node24 -->
<g id="edge36" class="edge">
<title>Node23&#45;&gt;Node24</title>
<path fill="none" stroke="#191970" d="M1425.8533,-61.9428C1433.4044,-59.8387 1441.4568,-57.7257 1449,-56 1527.176,-38.1155 1619.9279,-23.1922 1670.824,-15.5352"/>
<polygon fill="#191970" stroke="#191970" points="1671.3547,-18.9949 1680.7288,-14.0576 1670.3218,-12.0715 1671.3547,-18.9949"/>
</g>
<!-- Node28&#45;&gt;Node6 -->
<g id="edge45" class="edge">
<title>Node28&#45;&gt;Node6</title>
<path fill="none" stroke="#191970" d="M857.5331,-358.3986C855.7966,-329.639 848.0411,-242.2731 816,-179 790.576,-128.7941 766.4868,-128.9732 729,-87 711.9457,-67.9046 694.5626,-44.1353 683.3336,-28.0966"/>
<polygon fill="#191970" stroke="#191970" points="686.0505,-25.872 677.4822,-19.6403 680.2942,-29.8552 686.0505,-25.872"/>
</g>
<!-- Node28&#45;&gt;Node13 -->
<g id="edge47" class="edge">
<title>Node28&#45;&gt;Node13</title>
<path fill="none" stroke="#191970" d="M840.4191,-358.3762C786.3026,-328.7528 621.9971,-238.8119 557.4434,-203.4751"/>
<polygon fill="#191970" stroke="#191970" points="559.1203,-200.403 548.6679,-198.6714 555.759,-206.5432 559.1203,-200.403"/>
</g>
<!-- Node28&#45;&gt;Node27 -->
<g id="edge46" class="edge">
<title>Node28&#45;&gt;Node27</title>
<path fill="none" stroke="#191970" d="M822.4154,-358.3733C783.4267,-347.8256 721.417,-331.05 683.6374,-320.8294"/>
<polygon fill="#191970" stroke="#191970" points="684.2305,-317.3641 673.6634,-318.1312 682.4024,-324.1212 684.2305,-317.3641"/>
</g>
<!-- Node29&#45;&gt;Node15 -->
<g id="edge54" class="edge">
<title>Node29&#45;&gt;Node15</title>
<path fill="none" stroke="#191970" d="M1636.8298,-302.6901C1675.5797,-294.7641 1723.0463,-282.1067 1735,-266 1776.5991,-209.9485 1709.1273,-131.3487 1670.3287,-93.5318"/>
<polygon fill="#191970" stroke="#191970" points="1672.6431,-90.9024 1662.9921,-86.5309 1667.8105,-95.9667 1672.6431,-90.9024"/>
</g>
<!-- Node29&#45;&gt;Node17 -->
<g id="edge56" class="edge">
<title>Node29&#45;&gt;Node17</title>
<path fill="none" stroke="#191970" d="M1636.6747,-304.3916C1681.2179,-296.911 1739.6588,-283.9947 1755,-266 1795.9379,-217.9814 1787.9688,-137.1458 1780.5331,-96.4701"/>
<polygon fill="#191970" stroke="#191970" points="1783.952,-95.7163 1778.5878,-86.5798 1777.0836,-97.0673 1783.952,-95.7163"/>
</g>
<!-- Node29&#45;&gt;Node18 -->
<g id="edge57" class="edge">
<title>Node29&#45;&gt;Node18</title>
<path fill="none" stroke="#191970" d="M1636.6868,-303.8503C1685.972,-295.5603 1754.6269,-281.7231 1777,-266 1839.0309,-222.4068 1878.4456,-137.9467 1895.0082,-96.1525"/>
<polygon fill="#191970" stroke="#191970" points="1898.3087,-97.3212 1898.6388,-86.7315 1891.7769,-94.8039 1898.3087,-97.3212"/>
</g>
<!-- Node29&#45;&gt;Node19 -->
<g id="edge58" class="edge">
<title>Node29&#45;&gt;Node19</title>
<path fill="none" stroke="#191970" d="M1529.3404,-307.7898C1445.2891,-300.645 1290.4239,-285.0499 1274,-266 1208.4538,-189.9738 1366.6893,-121.3909 1457.166,-89.8298"/>
<polygon fill="#191970" stroke="#191970" points="1458.4525,-93.0887 1466.7722,-86.5287 1456.1776,-86.4687 1458.4525,-93.0887"/>
</g>
<!-- Node29&#45;&gt;Node24 -->
<g id="edge52" class="edge">
<title>Node29&#45;&gt;Node24</title>
<path fill="none" stroke="#191970" d="M1636.756,-308.3875C1754.5497,-298.9966 2025,-268.7515 2025,-189 2025,-189 2025,-189 2025,-133 2025,-94.4356 2016.197,-78.6706 1985,-56 1947.6983,-28.8931 1813.9382,-16.6928 1747.296,-12.1974"/>
<polygon fill="#191970" stroke="#191970" points="1747.4078,-8.6974 1737.2017,-11.541 1746.9535,-15.6826 1747.4078,-8.6974"/>
</g>
<!-- Node30 -->
<g id="node31" class="node">
<title>Node30</title>
<polygon fill="#ffffff" stroke="#bfbfbf" points="1283,-241 1283,-260 1335,-260 1335,-241 1283,-241"/>
<text text-anchor="middle" x="1309" y="-248" font-family="Helvetica,sans-Serif" font-size="10.00" fill="#000000">cassert</text>
</g>
<!-- Node29&#45;&gt;Node30 -->
<g id="edge50" class="edge">
<title>Node29&#45;&gt;Node30</title>
<path fill="none" stroke="#191970" d="M1529.4605,-305.2424C1480.4526,-298.227 1406.2993,-285.512 1344,-266 1342.0975,-265.4041 1340.1602,-264.7351 1338.2224,-264.0181"/>
<polygon fill="#191970" stroke="#191970" points="1339.2707,-260.6664 1328.6883,-260.1519 1336.6401,-267.1533 1339.2707,-260.6664"/>
</g>
<!-- Node31 -->
<g id="node32" class="node">
<title>Node31</title>
<polygon fill="#ffffff" stroke="#bfbfbf" points="1353,-241 1353,-260 1413,-260 1413,-241 1353,-241"/>
<text text-anchor="middle" x="1383" y="-248" font-family="Helvetica,sans-Serif" font-size="10.00" fill="#000000">iostream</text>
</g>
<!-- Node29&#45;&gt;Node31 -->
<g id="edge51" class="edge">
<title>Node29&#45;&gt;Node31</title>
<path fill="none" stroke="#191970" d="M1546.172,-302.4207C1513.5547,-293.6978 1464.7722,-280.0666 1423,-266 1420.737,-265.2379 1418.4134,-264.4236 1416.0799,-263.5821"/>
<polygon fill="#191970" stroke="#191970" points="1417.1538,-260.2472 1406.5611,-260.0337 1414.7087,-266.8063 1417.1538,-260.2472"/>
</g>
<!-- Node32 -->
<g id="node33" class="node">
<title>Node32</title>
<polygon fill="#ffffff" stroke="#bfbfbf" points="1431.5,-241 1431.5,-260 1578.5,-260 1578.5,-241 1431.5,-241"/>
<text text-anchor="middle" x="1505" y="-248" font-family="Helvetica,sans-Serif" font-size="10.00" fill="#000000">boost/current_function.hpp</text>
</g>
<!-- Node29&#45;&gt;Node32 -->
<g id="edge53" class="edge">
<title>Node29&#45;&gt;Node32</title>
<path fill="none" stroke="#191970" d="M1570.8125,-302.3906C1558.563,-292.7324 1539.4737,-277.6812 1525.0023,-266.271"/>
<polygon fill="#191970" stroke="#191970" points="1527.1217,-263.485 1517.1019,-260.0419 1522.7876,-268.9819 1527.1217,-263.485"/>
</g>
<!-- Node33 -->
<g id="node34" class="node">
<title>Node33</title>
<polygon fill="#ffffff" stroke="#bfbfbf" points="1596.5,-235.5 1596.5,-265.5 1725.5,-265.5 1725.5,-235.5 1596.5,-235.5"/>
<text text-anchor="start" x="1604.5" y="-253.5" font-family="Helvetica,sans-Serif" font-size="10.00" fill="#000000">boost/preprocessor</text>
<text text-anchor="middle" x="1661" y="-242.5" font-family="Helvetica,sans-Serif" font-size="10.00" fill="#000000">/facilities/is_empty.hpp</text>
</g>
<!-- Node29&#45;&gt;Node33 -->
<g id="edge55" class="edge">
<title>Node29&#45;&gt;Node33</title>
<path fill="none" stroke="#191970" d="M1595.1875,-302.3906C1605.5484,-294.2215 1620.8026,-282.1941 1634.0169,-271.7752"/>
<polygon fill="#191970" stroke="#191970" points="1636.2334,-274.4846 1641.9191,-265.5446 1631.8993,-268.9877 1636.2334,-274.4846"/>
</g>
<!-- Node34 -->
<g id="node35" class="node">
<title>Node34</title>
<g id="a_node35"><a xlink:href="Parallel_8hpp.html" target="_top" xlink:title="Parallel.hpp">
<polygon fill="#ffffff" stroke="#000000" points="730,-241 730,-260 804,-260 804,-241 730,-241"/>
<text text-anchor="middle" x="767" y="-248" font-family="Helvetica,sans-Serif" font-size="10.00" fill="#000000">Parallel.hpp</text>
</a>
</g>
</g>
<!-- Node29&#45;&gt;Node34 -->
<g id="edge59" class="edge">
<title>Node29&#45;&gt;Node34</title>
<path fill="none" stroke="#191970" d="M1529.46,-307.9648C1379.5079,-296.6633 957.0601,-264.8244 814.5951,-254.0871"/>
<polygon fill="#191970" stroke="#191970" points="814.6691,-250.5829 804.4343,-253.3213 814.1429,-257.5631 814.6691,-250.5829"/>
</g>
<!-- Node36 -->
<g id="node37" class="node">
<title>Node36</title>
<g id="a_node37"><a xlink:href="stacktrace_8hpp.html" target="_top" xlink:title="stacktrace.hpp">
<polygon fill="#ffffff" stroke="#000000" points="1900.5,-123.5 1900.5,-142.5 1989.5,-142.5 1989.5,-123.5 1900.5,-123.5"/>
<text text-anchor="middle" x="1945" y="-130.5" font-family="Helvetica,sans-Serif" font-size="10.00" fill="#000000">stacktrace.hpp</text>
</a>
</g>
</g>
<!-- Node29&#45;&gt;Node36 -->
<g id="edge66" class="edge">
<title>Node29&#45;&gt;Node36</title>
<path fill="none" stroke="#191970" d="M1636.5339,-309.0604C1709.3964,-304.1329 1834.9729,-292.0631 1872,-266 1911.3438,-238.3062 1931.7078,-182.4193 1940.1464,-152.6723"/>
<polygon fill="#191970" stroke="#191970" points="1943.6202,-153.2285 1942.8114,-142.6646 1936.8559,-151.4272 1943.6202,-153.2285"/>
</g>
<!-- Node34&#45;&gt;Node3 -->
<g id="edge65" class="edge">
<title>Node34&#45;&gt;Node3</title>
<path fill="none" stroke="#191970" d="M744.9688,-240.8906C721.3769,-230.6005 683.7499,-214.1888 657.1367,-202.5809"/>
<polygon fill="#191970" stroke="#191970" points="658.4419,-199.3318 647.8765,-198.5419 655.6433,-205.748 658.4419,-199.3318"/>
</g>
<!-- Node34&#45;&gt;Node6 -->
<g id="edge62" class="edge">
<title>Node34&#45;&gt;Node6</title>
<path fill="none" stroke="#191970" d="M777.3738,-240.8312C790.7504,-227.1318 811.1547,-201.2596 801,-179 775.1091,-122.246 729.1374,-139.2111 695,-87 683.5443,-69.4792 677.2836,-46.1622 674.0571,-29.7941"/>
<polygon fill="#191970" stroke="#191970" points="677.4657,-28.969 672.2816,-19.7291 670.5721,-30.1851 677.4657,-28.969"/>
</g>
<!-- Node34&#45;&gt;Node8 -->
<g id="edge63" class="edge">
<title>Node34&#45;&gt;Node8</title>
<path fill="none" stroke="#191970" d="M756.097,-240.7805C737.3684,-224.728 697.2071,-193.0554 657,-179 502.852,-125.1138 449.3353,-174.0252 285.5448,-142.935"/>
<polygon fill="#191970" stroke="#191970" points="286.1115,-139.4794 275.6236,-140.9803 284.7584,-146.3474 286.1115,-139.4794"/>
</g>
<!-- Node34&#45;&gt;Node12 -->
<g id="edge61" class="edge">
<title>Node34&#45;&gt;Node12</title>
<path fill="none" stroke="#191970" d="M757.4678,-240.738C743.3321,-226.4778 715.7087,-199.4282 690,-179 644.6486,-142.9636 587.5711,-106.2981 555.6057,-86.4753"/>
<polygon fill="#191970" stroke="#191970" points="557.2583,-83.3824 546.9091,-81.1141 553.5849,-89.3412 557.2583,-83.3824"/>
</g>
<!-- Node34&#45;&gt;Node13 -->
<g id="edge64" class="edge">
<title>Node34&#45;&gt;Node13</title>
<path fill="none" stroke="#191970" d="M736.6005,-240.9817C729.8378,-238.9423 722.6902,-236.8471 716,-235 670.9465,-222.5612 619.3016,-209.8475 582.0483,-200.9475"/>
<polygon fill="#191970" stroke="#191970" points="582.4787,-197.4523 571.94,-198.5418 580.8579,-204.2621 582.4787,-197.4523"/>
</g>
<!-- Node35 -->
<g id="node36" class="node">
<title>Node35</title>
<polygon fill="#ffffff" stroke="#bfbfbf" points="742.5,-179.5 742.5,-198.5 791.5,-198.5 791.5,-179.5 742.5,-179.5"/>
<text text-anchor="middle" x="767" y="-186.5" font-family="Helvetica,sans-Serif" font-size="10.00" fill="#000000">iosfwd</text>
</g>
<!-- Node34&#45;&gt;Node35 -->
<g id="edge60" class="edge">
<title>Node34&#45;&gt;Node35</title>
<path fill="none" stroke="#191970" d="M767,-240.8906C767,-232.3657 767,-219.6392 767,-208.9235"/>
<polygon fill="#191970" stroke="#191970" points="770.5001,-208.7448 767,-198.7449 763.5001,-208.7449 770.5001,-208.7448"/>
</g>
<!-- Node36&#45;&gt;Node6 -->
<g id="edge67" class="edge">
<title>Node36&#45;&gt;Node6</title>
<path fill="none" stroke="#191970" d="M1953.0607,-123.3252C1965.4944,-107.2054 1986.1183,-74.7723 1968,-56 1945.3372,-32.5192 900.912,-13.8555 703.1344,-10.5286"/>
<polygon fill="#191970" stroke="#191970" points="703.1464,-7.0284 693.0893,-10.3606 703.0293,-14.0274 703.1464,-7.0284"/>
</g>
</g>
</svg>
        <g id="navigator" transform="translate(0 0)" fill="#404254">
                <rect fill="#f2f5e9" fill-opacity="0.5" stroke="#606060" stroke-width=".5" x="0" y="0" width="60" height="60"/>
                <use id="zoomplus" xlink:href="#zoomPlus" x="17" y="9" onmousedown="handleZoom(evt,'in')"/>
                <use id="zoomminus" xlink:href="#zoomMin" x="42" y="9" onmousedown="handleZoom(evt,'out')"/>
                <use id="reset" xlink:href="#resetDef" x="30" y="36" onmousedown="handleReset()"/>
                <g id="arrowUp" xlink:href="#dirArrow" transform="translate(30 24)" onmousedown="handlePan(0,-1)">
                  <use xlink:href="#rim" fill="#404040">
                        <set attributeName="fill" to="#808080" begin="arrowUp.mouseover" end="arrowUp.mouseout"/>
                  </use>
                  <path fill="none" stroke="white" stroke-width="1.5" d="M0,-3.0v7 M-2.5,-0.5L0,-3.0L2.5,-0.5"/>
                </g>
                <g id="arrowRight" xlink:href="#dirArrow" transform="rotate(90) translate(36 -43)" onmousedown="handlePan(1,0)">
                  <use xlink:href="#rim" fill="#404040">
                        <set attributeName="fill" to="#808080" begin="arrowRight.mouseover" end="arrowRight.mouseout"/>
                  </use>
                  <path fill="none" stroke="white" stroke-width="1.5" d="M0,-3.0v7 M-2.5,-0.5L0,-3.0L2.5,-0.5"/>
                </g>
                <g id="arrowDown" xlink:href="#dirArrow" transform="rotate(180) translate(-30 -48)" onmousedown="handlePan(0,1)">
                  <use xlink:href="#rim" fill="#404040">
                        <set attributeName="fill" to="#808080" begin="arrowDown.mouseover" end="arrowDown.mouseout"/>
                  </use>
                  <path fill="none" stroke="white" stroke-width="1.5" d="M0,-3.0v7 M-2.5,-0.5L0,-3.0L2.5,-0.5"/>
                </g>
                <g id="arrowLeft" xlink:href="#dirArrow" transform="rotate(270) translate(-36 17)" onmousedown="handlePan(-1,0)">
                  <use xlink:href="#rim" fill="#404040">
                        <set attributeName="fill" to="#808080" begin="arrowLeft.mouseover" end="arrowLeft.mouseout"/>
                  </use>
                  <path fill="none" stroke="white" stroke-width="1.5" d="M0,-3.0v7 M-2.5,-0.5L0,-3.0L2.5,-0.5"/>
                </g>
        </g>
        <svg viewBox="0 0 15 15" width="100%" height="30px" preserveAspectRatio="xMaxYMin meet">
         <g id="arrow_out" transform="scale(0.3 0.3)">
          <a xlink:href="MPIPortsCommunication_8cpp__incl_org.svg" target="_base">
           <rect id="button" ry="5" rx="5" y="6" x="6" height="38" width="38"
                fill="#f2f5e9" fill-opacity="0.5" stroke="#606060" stroke-width="1.0"/>
           <path id="arrow"
             d="M 11.500037,31.436501 C 11.940474,20.09759 22.043105,11.32322 32.158766,21.979434 L 37.068811,17.246167 C 37.068811,17.246167 37.088388,32 37.088388,32 L 22.160133,31.978069 C 22.160133,31.978069 26.997745,27.140456 26.997745,27.140456 C 18.528582,18.264221 13.291696,25.230495 11.500037,31.436501 z"
             style="fill:#404040;"/>
          </a>
         </g>
        </svg>
</svg>
