<?xml version="1.0" encoding="UTF-8" standalone="no"?>
<!DOCTYPE svg PUBLIC "-//W3C//DTD SVG 1.1//EN"
 "http://www.w3.org/Graphics/SVG/1.1/DTD/svg11.dtd">
<!-- Generated by graphviz version 2.40.1 (20161225.0304)
 -->
<!-- Title: src/com/MPIPortsCommunication.hpp Pages: 1 -->
<svg width="1688pt" height="374pt"
 viewBox="0.00 0.00 1688.00 374.00" xmlns="http://www.w3.org/2000/svg" xmlns:xlink="http://www.w3.org/1999/xlink">
<g id="graph0" class="graph" transform="scale(1 1) rotate(0) translate(4 370)">
<title>src/com/MPIPortsCommunication.hpp</title>
<polygon fill="#ffffff" stroke="transparent" points="-4,4 -4,-370 1684,-370 1684,4 -4,4"/>
<!-- Node24 -->
<g id="node1" class="node">
<title>Node24</title>
<polygon fill="#bfbfbf" stroke="#000000" points="866,-346.5 866,-365.5 1064,-365.5 1064,-346.5 866,-346.5"/>
<text text-anchor="middle" x="965" y="-353.5" font-family="Helvetica,sans-Serif" font-size="10.00" fill="#000000">src/com/MPIPortsCommunication.hpp</text>
</g>
<!-- Node25 -->
<g id="node2" class="node">
<title>Node25</title>
<g id="a_node2"><a xlink:href="ParallelMatrixOperations_8hpp.html" target="_top" xlink:title="src/acceleration/impl\l/ParallelMatrixOperations.hpp">
<polygon fill="#ffffff" stroke="#000000" points="518.5,-279.5 518.5,-309.5 679.5,-309.5 679.5,-279.5 518.5,-279.5"/>
<text text-anchor="start" x="526.5" y="-297.5" font-family="Helvetica,sans-Serif" font-size="10.00" fill="#000000">src/acceleration/impl</text>
<text text-anchor="middle" x="599" y="-286.5" font-family="Helvetica,sans-Serif" font-size="10.00" fill="#000000">/ParallelMatrixOperations.hpp</text>
</a>
</g>
</g>
<!-- Node24&#45;&gt;Node25 -->
<g id="edge1" class="edge">
<title>Node24&#45;&gt;Node25</title>
<path fill="none" stroke="#191970" d="M898.2286,-344.7802C836.7176,-334.4444 745.3163,-319.0859 679.7299,-308.0653"/>
<polygon fill="#191970" stroke="#191970" points="897.7723,-348.2525 908.2141,-346.4581 898.9323,-341.3493 897.7723,-348.2525"/>
</g>
<!-- Node35 -->
<g id="node12" class="node">
<title>Node35</title>
<g id="a_node12"><a xlink:href="MVQNAcceleration_8cpp.html" target="_top" xlink:title="src/acceleration/MVQNAcceleration.cpp">
<polygon fill="#ffffff" stroke="#000000" points="712,-84 712,-103 920,-103 920,-84 712,-84"/>
<text text-anchor="middle" x="816" y="-91" font-family="Helvetica,sans-Serif" font-size="10.00" fill="#000000">src/acceleration/MVQNAcceleration.cpp</text>
</a>
</g>
</g>
<!-- Node24&#45;&gt;Node35 -->
<g id="edge18" class="edge">
<title>Node24&#45;&gt;Node35</title>
<path fill="none" stroke="#191970" d="M920.9002,-342.8293C903.7214,-335.6585 885.2563,-325.0854 873,-310 846.0401,-276.8171 823.3216,-140.7765 817.4651,-103.1714"/>
<polygon fill="#191970" stroke="#191970" points="919.6753,-346.1083 930.264,-346.4701 922.2121,-339.5841 919.6753,-346.1083"/>
</g>
<!-- Node37 -->
<g id="node14" class="node">
<title>Node37</title>
<g id="a_node14"><a xlink:href="ParallelMatrixOperationsTest_8cpp.html" target="_top" xlink:title="src/acceleration/test\l/ParallelMatrixOperationsTest.cpp">
<polygon fill="#ffffff" stroke="#000000" points="646.5,-212.5 646.5,-242.5 825.5,-242.5 825.5,-212.5 646.5,-212.5"/>
<text text-anchor="start" x="654.5" y="-230.5" font-family="Helvetica,sans-Serif" font-size="10.00" fill="#000000">src/acceleration/test</text>
<text text-anchor="middle" x="736" y="-219.5" font-family="Helvetica,sans-Serif" font-size="10.00" fill="#000000">/ParallelMatrixOperationsTest.cpp</text>
</a>
</g>
</g>
<!-- Node24&#45;&gt;Node37 -->
<g id="edge19" class="edge">
<title>Node24&#45;&gt;Node37</title>
<path fill="none" stroke="#191970" d="M920.5041,-343.4373C895.9296,-335.5742 865.3418,-324.2292 840,-310 805.8375,-290.8181 771.1853,-260.7314 751.7587,-242.6816"/>
<polygon fill="#191970" stroke="#191970" points="919.7011,-346.8531 930.2897,-346.4876 921.7843,-340.1702 919.7011,-346.8531"/>
</g>
<!-- Node38 -->
<g id="node15" class="node">
<title>Node38</title>
<g id="a_node15"><a xlink:href="CommunicationConfiguration_8cpp.html" target="_top" xlink:title="src/com/config/Communication\lConfiguration.cpp">
<polygon fill="#ffffff" stroke="#000000" points="881.5,-279.5 881.5,-309.5 1048.5,-309.5 1048.5,-279.5 881.5,-279.5"/>
<text text-anchor="start" x="889.5" y="-297.5" font-family="Helvetica,sans-Serif" font-size="10.00" fill="#000000">src/com/config/Communication</text>
<text text-anchor="middle" x="965" y="-286.5" font-family="Helvetica,sans-Serif" font-size="10.00" fill="#000000">Configuration.cpp</text>
</a>
</g>
</g>
<!-- Node24&#45;&gt;Node38 -->
<g id="edge20" class="edge">
<title>Node24&#45;&gt;Node38</title>
<path fill="none" stroke="#191970" d="M965,-336.3693C965,-327.681 965,-317.6241 965,-309.5446"/>
<polygon fill="#191970" stroke="#191970" points="961.5001,-336.3906 965,-346.3906 968.5001,-336.3907 961.5001,-336.3906"/>
</g>
<!-- Node39 -->
<g id="node16" class="node">
<title>Node39</title>
<g id="a_node16"><a xlink:href="MPIPortsCommunication_8cpp.html" target="_top" xlink:title="src/com/MPIPortsCommunication.cpp">
<polygon fill="#ffffff" stroke="#000000" points="1066.5,-285 1066.5,-304 1263.5,-304 1263.5,-285 1066.5,-285"/>
<text text-anchor="middle" x="1165" y="-292" font-family="Helvetica,sans-Serif" font-size="10.00" fill="#000000">src/com/MPIPortsCommunication.cpp</text>
</a>
</g>
</g>
<!-- Node24&#45;&gt;Node39 -->
<g id="edge21" class="edge">
<title>Node24&#45;&gt;Node39</title>
<path fill="none" stroke="#191970" d="M1005.9754,-343.4001C1043.9357,-331.7273 1099.5684,-314.6202 1133.9694,-304.0419"/>
<polygon fill="#191970" stroke="#191970" points="1004.7796,-340.106 996.25,-346.3906 1006.837,-346.7968 1004.7796,-340.106"/>
</g>
<!-- Node40 -->
<g id="node17" class="node">
<title>Node40</title>
<g id="a_node17"><a xlink:href="MPIPortsCommunicationFactory_8cpp.html" target="_top" xlink:title="src/com/MPIPortsCommunication\lFactory.cpp">
<polygon fill="#ffffff" stroke="#000000" points="1281.5,-279.5 1281.5,-309.5 1458.5,-309.5 1458.5,-279.5 1281.5,-279.5"/>
<text text-anchor="start" x="1289.5" y="-297.5" font-family="Helvetica,sans-Serif" font-size="10.00" fill="#000000">src/com/MPIPortsCommunication</text>
<text text-anchor="middle" x="1370" y="-286.5" font-family="Helvetica,sans-Serif" font-size="10.00" fill="#000000">Factory.cpp</text>
</a>
</g>
</g>
<!-- Node24&#45;&gt;Node40 -->
<g id="edge22" class="edge">
<title>Node24&#45;&gt;Node40</title>
<path fill="none" stroke="#191970" d="M1040.0687,-345.0069C1102.4534,-335.8187 1193.5373,-322.2824 1273,-310 1275.7809,-309.5702 1278.6062,-309.1313 1281.4588,-308.6865"/>
<polygon fill="#191970" stroke="#191970" points="1039.3073,-341.5811 1029.9236,-346.5 1040.3267,-348.5065 1039.3073,-341.5811"/>
</g>
<!-- Node41 -->
<g id="node18" class="node">
<title>Node41</title>
<g id="a_node18"><a xlink:href="MPIPortsCommunicationTest_8cpp.html" target="_top" xlink:title="src/com/tests/MPIPortsCommunication\lTest.cpp">
<polygon fill="#ffffff" stroke="#000000" points="1476,-279.5 1476,-309.5 1680,-309.5 1680,-279.5 1476,-279.5"/>
<text text-anchor="start" x="1484" y="-297.5" font-family="Helvetica,sans-Serif" font-size="10.00" fill="#000000">src/com/tests/MPIPortsCommunication</text>
<text text-anchor="middle" x="1578" y="-286.5" font-family="Helvetica,sans-Serif" font-size="10.00" fill="#000000">Test.cpp</text>
</a>
</g>
</g>
<!-- Node24&#45;&gt;Node41 -->
<g id="edge23" class="edge">
<title>Node24&#45;&gt;Node41</title>
<path fill="none" stroke="#191970" d="M1074.4113,-347.5421C1176.4105,-339.2903 1332.7009,-325.7096 1468,-310 1470.5862,-309.6997 1473.2056,-309.388 1475.8474,-309.0669"/>
<polygon fill="#191970" stroke="#191970" points="1074.0915,-344.0564 1064.405,-348.3486 1074.6539,-351.0338 1074.0915,-344.0564"/>
</g>
<!-- Node26 -->
<g id="node3" class="node">
<title>Node26</title>
<g id="a_node3"><a xlink:href="ParallelMatrixOperations_8cpp.html" target="_top" xlink:title="src/acceleration/impl\l/ParallelMatrixOperations.cpp">
<polygon fill="#ffffff" stroke="#000000" points="247,-212.5 247,-242.5 407,-242.5 407,-212.5 247,-212.5"/>
<text text-anchor="start" x="255" y="-230.5" font-family="Helvetica,sans-Serif" font-size="10.00" fill="#000000">src/acceleration/impl</text>
<text text-anchor="middle" x="327" y="-219.5" font-family="Helvetica,sans-Serif" font-size="10.00" fill="#000000">/ParallelMatrixOperations.cpp</text>
</a>
</g>
</g>
<!-- Node25&#45;&gt;Node26 -->
<g id="edge2" class="edge">
<title>Node25&#45;&gt;Node26</title>
<path fill="none" stroke="#191970" d="M528.0465,-277.0225C484.6834,-266.3411 429.7797,-252.8171 388.3083,-242.6017"/>
<polygon fill="#191970" stroke="#191970" points="527.411,-280.4705 537.9579,-279.4639 529.0853,-273.6737 527.411,-280.4705"/>
</g>
<!-- Node27 -->
<g id="node4" class="node">
<title>Node27</title>
<g id="a_node4"><a xlink:href="SVDFactorization_8hpp.html" target="_top" xlink:title="src/acceleration/impl\l/SVDFactorization.hpp">
<polygon fill="#ffffff" stroke="#000000" points="425.5,-212.5 425.5,-242.5 548.5,-242.5 548.5,-212.5 425.5,-212.5"/>
<text text-anchor="start" x="433.5" y="-230.5" font-family="Helvetica,sans-Serif" font-size="10.00" fill="#000000">src/acceleration/impl</text>
<text text-anchor="middle" x="487" y="-219.5" font-family="Helvetica,sans-Serif" font-size="10.00" fill="#000000">/SVDFactorization.hpp</text>
</a>
</g>
</g>
<!-- Node25&#45;&gt;Node27 -->
<g id="edge3" class="edge">
<title>Node25&#45;&gt;Node27</title>
<path fill="none" stroke="#191970" d="M564.8585,-274.0761C547.9772,-263.9774 527.9525,-251.9983 512.4386,-242.7177"/>
<polygon fill="#191970" stroke="#191970" points="563.4865,-277.3338 573.865,-279.4639 567.0801,-271.3266 563.4865,-277.3338"/>
</g>
<!-- Node29 -->
<g id="node6" class="node">
<title>Node29</title>
<g id="a_node6"><a xlink:href="MVQNAcceleration_8hpp.html" target="_top" xlink:title="src/acceleration/MVQNAcceleration.hpp">
<polygon fill="#ffffff" stroke="#000000" points="381.5,-151 381.5,-170 590.5,-170 590.5,-151 381.5,-151"/>
<text text-anchor="middle" x="486" y="-158" font-family="Helvetica,sans-Serif" font-size="10.00" fill="#000000">src/acceleration/MVQNAcceleration.hpp</text>
</a>
</g>
</g>
<!-- Node25&#45;&gt;Node29 -->
<g id="edge16" class="edge">
<title>Node25&#45;&gt;Node29</title>
<path fill="none" stroke="#191970" d="M590.0149,-269.7339C582.8776,-252.3207 571.6626,-229.1602 557,-212 541.7662,-194.1714 519.1673,-179.1561 503.5771,-170.0212"/>
<polygon fill="#191970" stroke="#191970" points="586.8311,-271.2023 593.7412,-279.2336 593.3477,-268.646 586.8311,-271.2023"/>
</g>
<!-- Node25&#45;&gt;Node35 -->
<g id="edge15" class="edge">
<title>Node25&#45;&gt;Node35</title>
<path fill="none" stroke="#191970" d="M606.3177,-269.8329C612.4297,-252.2822 622.4984,-228.9116 637,-212 682.4879,-158.9528 757.3662,-120.0431 794.181,-103.0184"/>
<polygon fill="#191970" stroke="#191970" points="602.9703,-268.8082 603.1726,-279.4011 609.6203,-270.994 602.9703,-268.8082"/>
</g>
<!-- Node25&#45;&gt;Node37 -->
<g id="edge17" class="edge">
<title>Node25&#45;&gt;Node37</title>
<path fill="none" stroke="#191970" d="M638.7672,-275.0518C659.8184,-264.7567 685.2914,-252.2991 704.8831,-242.7177"/>
<polygon fill="#191970" stroke="#191970" points="637.1911,-271.9264 629.7455,-279.4639 640.2664,-278.2147 637.1911,-271.9264"/>
</g>
<!-- Node28 -->
<g id="node5" class="node">
<title>Node28</title>
<g id="a_node5"><a xlink:href="SVDFactorization_8cpp.html" target="_top" xlink:title="src/acceleration/impl\l/SVDFactorization.cpp">
<polygon fill="#ffffff" stroke="#000000" points="241,-145.5 241,-175.5 363,-175.5 363,-145.5 241,-145.5"/>
<text text-anchor="start" x="249" y="-163.5" font-family="Helvetica,sans-Serif" font-size="10.00" fill="#000000">src/acceleration/impl</text>
<text text-anchor="middle" x="302" y="-152.5" font-family="Helvetica,sans-Serif" font-size="10.00" fill="#000000">/SVDFactorization.cpp</text>
</a>
</g>
</g>
<!-- Node27&#45;&gt;Node28 -->
<g id="edge4" class="edge">
<title>Node27&#45;&gt;Node28</title>
<path fill="none" stroke="#191970" d="M435.9241,-209.0023C406.8985,-198.4903 371.0146,-185.4945 343.6987,-175.6017"/>
<polygon fill="#191970" stroke="#191970" points="434.8882,-212.3495 445.4824,-212.4639 437.2718,-205.7678 434.8882,-212.3495"/>
</g>
<!-- Node27&#45;&gt;Node29 -->
<g id="edge5" class="edge">
<title>Node27&#45;&gt;Node29</title>
<path fill="none" stroke="#191970" d="M486.6212,-202.1199C486.4538,-190.9072 486.2672,-178.4031 486.1426,-170.055"/>
<polygon fill="#191970" stroke="#191970" points="483.1241,-202.35 486.7731,-212.2967 490.1234,-202.2455 483.1241,-202.35"/>
</g>
<!-- Node30 -->
<g id="node7" class="node">
<title>Node30</title>
<g id="a_node7"><a xlink:href="AccelerationConfiguration_8cpp.html" target="_top" xlink:title="src/acceleration/config\l/AccelerationConfiguration.cpp">
<polygon fill="#ffffff" stroke="#000000" points="0,-6 0,-36 166,-36 166,-6 0,-6"/>
<text text-anchor="start" x="8" y="-24" font-family="Helvetica,sans-Serif" font-size="10.00" fill="#000000">src/acceleration/config</text>
<text text-anchor="middle" x="83" y="-13" font-family="Helvetica,sans-Serif" font-size="10.00" fill="#000000">/AccelerationConfiguration.cpp</text>
</a>
</g>
</g>
<!-- Node29&#45;&gt;Node30 -->
<g id="edge6" class="edge">
<title>Node29&#45;&gt;Node30</title>
<path fill="none" stroke="#191970" d="M428.8628,-148.7943C387.5407,-139.6743 330.6546,-125.7645 282,-109 220.2126,-87.7105 151.0554,-55.0072 112.7062,-36.0391"/>
<polygon fill="#191970" stroke="#191970" points="428.2372,-152.24 438.7534,-150.9514 429.7289,-145.4008 428.2372,-152.24"/>
</g>
<!-- Node31 -->
<g id="node8" class="node">
<title>Node31</title>
<g id="a_node8"><a xlink:href="AccelerationConfiguration_8hpp.html" target="_top" xlink:title="src/acceleration/config\l/AccelerationConfiguration.hpp">
<polygon fill="#ffffff" stroke="#000000" points="291.5,-78.5 291.5,-108.5 458.5,-108.5 458.5,-78.5 291.5,-78.5"/>
<text text-anchor="start" x="299.5" y="-96.5" font-family="Helvetica,sans-Serif" font-size="10.00" fill="#000000">src/acceleration/config</text>
<text text-anchor="middle" x="375" y="-85.5" font-family="Helvetica,sans-Serif" font-size="10.00" fill="#000000">/AccelerationConfiguration.hpp</text>
</a>
</g>
</g>
<!-- Node29&#45;&gt;Node31 -->
<g id="edge7" class="edge">
<title>Node29&#45;&gt;Node31</title>
<path fill="none" stroke="#191970" d="M461.4514,-145.6824C443.1557,-134.639 418.2631,-119.6138 399.8868,-108.5218"/>
<polygon fill="#191970" stroke="#191970" points="459.7264,-148.7293 470.0964,-150.9005 463.3438,-142.7364 459.7264,-148.7293"/>
</g>
<!-- Node33 -->
<g id="node10" class="node">
<title>Node33</title>
<g id="a_node10"><a xlink:href="ParallelImplicitCouplingSchemeTest_8cpp.html" target="_top" xlink:title="src/cplscheme/tests\l/ParallelImplicitCouplingScheme\lTest.cpp">
<polygon fill="#ffffff" stroke="#000000" points="574,-.5 574,-41.5 748,-41.5 748,-.5 574,-.5"/>
<text text-anchor="start" x="582" y="-29.5" font-family="Helvetica,sans-Serif" font-size="10.00" fill="#000000">src/cplscheme/tests</text>
<text text-anchor="start" x="582" y="-18.5" font-family="Helvetica,sans-Serif" font-size="10.00" fill="#000000">/ParallelImplicitCouplingScheme</text>
<text text-anchor="middle" x="661" y="-7.5" font-family="Helvetica,sans-Serif" font-size="10.00" fill="#000000">Test.cpp</text>
</a>
</g>
</g>
<!-- Node29&#45;&gt;Node33 -->
<g id="edge14" class="edge">
<title>Node29&#45;&gt;Node33</title>
<path fill="none" stroke="#191970" d="M485.4789,-140.6184C486.0625,-122.2398 489.7722,-95.2429 505,-78 516.3091,-65.1944 550.5742,-52.0307 584.1199,-41.5843"/>
<polygon fill="#191970" stroke="#191970" points="481.9784,-140.7718 485.4445,-150.7836 488.9784,-140.7956 481.9784,-140.7718"/>
</g>
<!-- Node29&#45;&gt;Node35 -->
<g id="edge12" class="edge">
<title>Node29&#45;&gt;Node35</title>
<path fill="none" stroke="#191970" d="M542.8436,-148.959C606.7582,-135.9824 709.3741,-115.1483 768.9645,-103.0496"/>
<polygon fill="#191970" stroke="#191970" points="542.0341,-145.5519 532.9305,-150.9717 543.427,-152.4119 542.0341,-145.5519"/>
</g>
<!-- Node36 -->
<g id="node13" class="node">
<title>Node36</title>
<g id="a_node13"><a xlink:href="AccelerationMasterSlaveTest_8cpp.html" target="_top" xlink:title="src/acceleration/test\l/AccelerationMasterSlaveTest.cpp">
<polygon fill="#ffffff" stroke="#000000" points="514,-78.5 514,-108.5 694,-108.5 694,-78.5 514,-78.5"/>
<text text-anchor="start" x="522" y="-96.5" font-family="Helvetica,sans-Serif" font-size="10.00" fill="#000000">src/acceleration/test</text>
<text text-anchor="middle" x="604" y="-85.5" font-family="Helvetica,sans-Serif" font-size="10.00" fill="#000000">/AccelerationMasterSlaveTest.cpp</text>
</a>
</g>
</g>
<!-- Node29&#45;&gt;Node36 -->
<g id="edge13" class="edge">
<title>Node29&#45;&gt;Node36</title>
<path fill="none" stroke="#191970" d="M511.8307,-145.8334C531.3044,-134.7763 557.9194,-119.6644 577.5438,-108.5218"/>
<polygon fill="#191970" stroke="#191970" points="509.8744,-142.9193 502.9065,-150.9005 513.3307,-149.0065 509.8744,-142.9193"/>
</g>
<!-- Node31&#45;&gt;Node30 -->
<g id="edge8" class="edge">
<title>Node31&#45;&gt;Node30</title>
<path fill="none" stroke="#191970" d="M304.5598,-76.0106C255.3344,-63.7885 190.2894,-47.6386 143.4251,-36.0028"/>
<polygon fill="#191970" stroke="#191970" points="303.9487,-79.465 314.4974,-78.478 305.6355,-72.6713 303.9487,-79.465"/>
</g>
<!-- Node32 -->
<g id="node9" class="node">
<title>Node32</title>
<g id="a_node9"><a xlink:href="CouplingSchemeConfiguration_8cpp.html" target="_top" xlink:title="src/cplscheme/config\l/CouplingSchemeConfiguration.cpp">
<polygon fill="#ffffff" stroke="#000000" points="184.5,-6 184.5,-36 371.5,-36 371.5,-6 184.5,-6"/>
<text text-anchor="start" x="192.5" y="-24" font-family="Helvetica,sans-Serif" font-size="10.00" fill="#000000">src/cplscheme/config</text>
<text text-anchor="middle" x="278" y="-13" font-family="Helvetica,sans-Serif" font-size="10.00" fill="#000000">/CouplingSchemeConfiguration.cpp</text>
</a>
</g>
</g>
<!-- Node31&#45;&gt;Node32 -->
<g id="edge9" class="edge">
<title>Node31&#45;&gt;Node32</title>
<path fill="none" stroke="#191970" d="M346.6457,-72.3074C331.0659,-60.6627 312.1131,-46.4969 298.0727,-36.0028"/>
<polygon fill="#191970" stroke="#191970" points="344.7962,-75.2946 354.9015,-78.478 348.987,-69.6877 344.7962,-75.2946"/>
</g>
<!-- Node31&#45;&gt;Node33 -->
<g id="edge10" class="edge">
<title>Node31&#45;&gt;Node33</title>
<path fill="none" stroke="#191970" d="M444.1559,-75.9692C485.1302,-65.5824 537.2517,-52.3698 580.1251,-41.5015"/>
<polygon fill="#191970" stroke="#191970" points="443.0927,-72.6279 434.2594,-78.478 444.8128,-79.4133 443.0927,-72.6279"/>
</g>
<!-- Node34 -->
<g id="node11" class="node">
<title>Node34</title>
<g id="a_node11"><a xlink:href="SerialImplicitCouplingSchemeTest_8cpp.html" target="_top" xlink:title="src/cplscheme/tests\l/SerialImplicitCouplingScheme\lTest.cpp">
<polygon fill="#ffffff" stroke="#000000" points="390,-.5 390,-41.5 556,-41.5 556,-.5 390,-.5"/>
<text text-anchor="start" x="398" y="-29.5" font-family="Helvetica,sans-Serif" font-size="10.00" fill="#000000">src/cplscheme/tests</text>
<text text-anchor="start" x="398" y="-18.5" font-family="Helvetica,sans-Serif" font-size="10.00" fill="#000000">/SerialImplicitCouplingScheme</text>
<text text-anchor="middle" x="473" y="-7.5" font-family="Helvetica,sans-Serif" font-size="10.00" fill="#000000">Test.cpp</text>
</a>
</g>
</g>
<!-- Node31&#45;&gt;Node34 -->
<g id="edge11" class="edge">
<title>Node31&#45;&gt;Node34</title>
<path fill="none" stroke="#191970" d="M403.5504,-72.3785C416.6995,-62.6509 432.2429,-51.152 445.2876,-41.5015"/>
<polygon fill="#191970" stroke="#191970" points="401.2633,-69.7168 395.3057,-78.478 405.4265,-75.3443 401.2633,-69.7168"/>
</g>
</g>
</svg>
