<?xml version="1.0" encoding="UTF-8" standalone="no"?>
<!DOCTYPE svg PUBLIC "-//W3C//DTD SVG 1.1//EN"
 "http://www.w3.org/Graphics/SVG/1.1/DTD/svg11.dtd">
<!-- Generated by graphviz version 2.40.1 (20161225.0304)
 -->
<!-- Title: src/com/MPIPortsCommunicationFactory.cpp Pages: 1 -->
<svg width="1653pt" height="442pt"
 viewBox="0.00 0.00 1652.50 442.00" xmlns="http://www.w3.org/2000/svg" xmlns:xlink="http://www.w3.org/1999/xlink">
<g id="graph0" class="graph" transform="scale(1 1) rotate(0) translate(4 438)">
<title>src/com/MPIPortsCommunicationFactory.cpp</title>
<polygon fill="#ffffff" stroke="transparent" points="-4,4 -4,-438 1648.5,-438 1648.5,4 -4,4"/>
<!-- Node0 -->
<g id="node1" class="node">
<title>Node0</title>
<polygon fill="#bfbfbf" stroke="#000000" points="183,-403.5 183,-433.5 360,-433.5 360,-403.5 183,-403.5"/>
<text text-anchor="start" x="191" y="-421.5" font-family="Helvetica,sans-Serif" font-size="10.00" fill="#000000">src/com/MPIPortsCommunication</text>
<text text-anchor="middle" x="271.5" y="-410.5" font-family="Helvetica,sans-Serif" font-size="10.00" fill="#000000">Factory.cpp</text>
</g>
<!-- Node1 -->
<g id="node2" class="node">
<title>Node1</title>
<g id="a_node2"><a xlink:href="MPIPortsCommunicationFactory_8hpp.html" target="_top" xlink:title="MPIPortsCommunicationFactory.hpp">
<polygon fill="#ffffff" stroke="#000000" points="33,-235.5 33,-254.5 224,-254.5 224,-235.5 33,-235.5"/>
<text text-anchor="middle" x="128.5" y="-242.5" font-family="Helvetica,sans-Serif" font-size="10.00" fill="#000000">MPIPortsCommunicationFactory.hpp</text>
</a>
</g>
</g>
<!-- Node0&#45;&gt;Node1 -->
<g id="edge1" class="edge">
<title>Node0&#45;&gt;Node1</title>
<path fill="none" stroke="#191970" d="M259.0598,-403.4065C232.6247,-371.3331 170.9848,-296.5463 142.9012,-262.4728"/>
<polygon fill="#191970" stroke="#191970" points="145.5872,-260.2287 136.5261,-254.738 140.1855,-264.6808 145.5872,-260.2287"/>
</g>
<!-- Node5 -->
<g id="node6" class="node">
<title>Node5</title>
<g id="a_node6"><a xlink:href="com_2SharedPointer_8hpp.html" target="_top" xlink:title="com/SharedPointer.hpp">
<polygon fill="#ffffff" stroke="#000000" points="272,-123.5 272,-142.5 401,-142.5 401,-123.5 272,-123.5"/>
<text text-anchor="middle" x="336.5" y="-130.5" font-family="Helvetica,sans-Serif" font-size="10.00" fill="#000000">com/SharedPointer.hpp</text>
</a>
</g>
</g>
<!-- Node0&#45;&gt;Node5 -->
<g id="edge49" class="edge">
<title>Node0&#45;&gt;Node5</title>
<path fill="none" stroke="#191970" d="M275.5294,-403.416C281.1067,-381.1752 290.5,-338.1957 290.5,-301 290.5,-301 290.5,-301 290.5,-245 290.5,-209.66 310.3391,-172.4332 323.9597,-151.0395"/>
<polygon fill="#191970" stroke="#191970" points="326.9179,-152.9114 329.5136,-142.6394 321.0788,-149.0507 326.9179,-152.9114"/>
</g>
<!-- Node6 -->
<g id="node7" class="node">
<title>Node6</title>
<polygon fill="#ffffff" stroke="#bfbfbf" points="204.5,-62 204.5,-81 262.5,-81 262.5,-62 204.5,-62"/>
<text text-anchor="middle" x="233.5" y="-69" font-family="Helvetica,sans-Serif" font-size="10.00" fill="#000000">memory</text>
</g>
<!-- Node0&#45;&gt;Node6 -->
<g id="edge9" class="edge">
<title>Node0&#45;&gt;Node6</title>
<path fill="none" stroke="#191970" d="M267.4706,-403.416C261.8933,-381.1752 252.5,-338.1957 252.5,-301 252.5,-301 252.5,-301 252.5,-245 252.5,-188.8911 242.5596,-123.1789 237.0588,-91.1108"/>
<polygon fill="#191970" stroke="#191970" points="240.5023,-90.4838 235.3218,-81.2419 233.6083,-91.6973 240.5023,-90.4838"/>
</g>
<!-- Node7 -->
<g id="node8" class="node">
<title>Node7</title>
<g id="a_node8"><a xlink:href="MPIPortsCommunication_8hpp.html" target="_top" xlink:title="MPIPortsCommunication.hpp">
<polygon fill="#ffffff" stroke="#000000" points="663,-347.5 663,-366.5 820,-366.5 820,-347.5 663,-347.5"/>
<text text-anchor="middle" x="741.5" y="-354.5" font-family="Helvetica,sans-Serif" font-size="10.00" fill="#000000">MPIPortsCommunication.hpp</text>
</a>
</g>
</g>
<!-- Node0&#45;&gt;Node7 -->
<g id="edge10" class="edge">
<title>Node0&#45;&gt;Node7</title>
<path fill="none" stroke="#191970" d="M360.1795,-406.8962C445.9434,-395.6739 574.8911,-378.801 658.6341,-367.8431"/>
<polygon fill="#191970" stroke="#191970" points="659.1553,-371.3048 668.6167,-366.5369 658.247,-364.364 659.1553,-371.3048"/>
</g>
<!-- Node2 -->
<g id="node3" class="node">
<title>Node2</title>
<g id="a_node3"><a xlink:href="CommunicationFactory_8hpp.html" target="_top" xlink:title="CommunicationFactory.hpp">
<polygon fill="#ffffff" stroke="#000000" points="0,-179.5 0,-198.5 149,-198.5 149,-179.5 0,-179.5"/>
<text text-anchor="middle" x="74.5" y="-186.5" font-family="Helvetica,sans-Serif" font-size="10.00" fill="#000000">CommunicationFactory.hpp</text>
</a>
</g>
</g>
<!-- Node1&#45;&gt;Node2 -->
<g id="edge2" class="edge">
<title>Node1&#45;&gt;Node2</title>
<path fill="none" stroke="#191970" d="M119.0939,-235.2455C111.3507,-227.2155 100.188,-215.6394 90.9682,-206.0781"/>
<polygon fill="#191970" stroke="#191970" points="93.2591,-203.4117 83.7983,-198.6427 88.2202,-208.2706 93.2591,-203.4117"/>
</g>
<!-- Node4 -->
<g id="node5" class="node">
<title>Node4</title>
<polygon fill="#ffffff" stroke="#bfbfbf" points="918.5,-.5 918.5,-19.5 962.5,-19.5 962.5,-.5 918.5,-.5"/>
<text text-anchor="middle" x="940.5" y="-7.5" font-family="Helvetica,sans-Serif" font-size="10.00" fill="#000000">string</text>
</g>
<!-- Node1&#45;&gt;Node4 -->
<g id="edge8" class="edge">
<title>Node1&#45;&gt;Node4</title>
<path fill="none" stroke="#191970" d="M135.8757,-235.2586C142.3756,-226.2665 151.6899,-212.3272 157.5,-199 183.7803,-138.7182 144.6301,-97.6749 195.5,-56 223.4658,-33.0892 768.9197,-15.1634 908.2944,-10.9443"/>
<polygon fill="#191970" stroke="#191970" points="908.4538,-14.4412 918.3442,-10.6427 908.2437,-7.4444 908.4538,-14.4412"/>
</g>
<!-- Node1&#45;&gt;Node5 -->
<g id="edge7" class="edge">
<title>Node1&#45;&gt;Node5</title>
<path fill="none" stroke="#191970" d="M146.234,-235.4509C182.7679,-215.7788 266.604,-170.6363 309.7563,-147.4005"/>
<polygon fill="#191970" stroke="#191970" points="311.6656,-150.3476 318.8109,-142.5249 308.3468,-144.1843 311.6656,-150.3476"/>
</g>
<!-- Node3 -->
<g id="node4" class="node">
<title>Node3</title>
<polygon fill="#ffffff" stroke="#bfbfbf" points="42,-123.5 42,-142.5 107,-142.5 107,-123.5 42,-123.5"/>
<text text-anchor="middle" x="74.5" y="-130.5" font-family="Helvetica,sans-Serif" font-size="10.00" fill="#000000">stdexcept</text>
</g>
<!-- Node2&#45;&gt;Node3 -->
<g id="edge3" class="edge">
<title>Node2&#45;&gt;Node3</title>
<path fill="none" stroke="#191970" d="M74.5,-179.2455C74.5,-171.9382 74.5,-161.6944 74.5,-152.7046"/>
<polygon fill="#191970" stroke="#191970" points="78.0001,-152.6426 74.5,-142.6427 71.0001,-152.6427 78.0001,-152.6426"/>
</g>
<!-- Node2&#45;&gt;Node4 -->
<g id="edge4" class="edge">
<title>Node2&#45;&gt;Node4</title>
<path fill="none" stroke="#191970" d="M84.3344,-179.3351C93.1245,-170.3945 106.0399,-156.4879 115.5,-143 140.736,-107.0194 125.4353,-79.6149 162.5,-56 194.4048,-35.6726 764.4754,-15.7502 907.9413,-11.0429"/>
<polygon fill="#191970" stroke="#191970" points="908.3877,-14.5303 918.2684,-10.7062 908.1596,-7.534 908.3877,-14.5303"/>
</g>
<!-- Node2&#45;&gt;Node5 -->
<g id="edge5" class="edge">
<title>Node2&#45;&gt;Node5</title>
<path fill="none" stroke="#191970" d="M119.2417,-179.4369C164.2694,-169.8127 233.7728,-154.957 281.9927,-144.6504"/>
<polygon fill="#191970" stroke="#191970" points="282.8953,-148.0366 291.9428,-142.5237 281.4321,-141.1912 282.8953,-148.0366"/>
</g>
<!-- Node5&#45;&gt;Node6 -->
<g id="edge6" class="edge">
<title>Node5&#45;&gt;Node6</title>
<path fill="none" stroke="#191970" d="M320.4063,-123.3906C303.7772,-113.4616 277.6024,-97.833 258.3206,-86.3201"/>
<polygon fill="#191970" stroke="#191970" points="259.861,-83.1634 249.4807,-81.0419 256.2724,-89.1736 259.861,-83.1634"/>
</g>
<!-- Node7&#45;&gt;Node4 -->
<g id="edge15" class="edge">
<title>Node7&#45;&gt;Node4</title>
<path fill="none" stroke="#191970" d="M820.0557,-355.4461C1039.75,-350.0649 1644.5,-327.7379 1644.5,-245 1644.5,-245 1644.5,-245 1644.5,-133 1644.5,-89.3403 1622.1018,-76.3978 1583.5,-56 1529.2302,-27.3229 1095.7789,-14.0148 972.8781,-10.7942"/>
<polygon fill="#191970" stroke="#191970" points="972.7047,-7.2886 962.6179,-10.53 972.5244,-14.2863 972.7047,-7.2886"/>
</g>
<!-- Node8 -->
<g id="node9" class="node">
<title>Node8</title>
<polygon fill="#ffffff" stroke="#bfbfbf" points="866.5,-291.5 866.5,-310.5 904.5,-310.5 904.5,-291.5 866.5,-291.5"/>
<text text-anchor="middle" x="885.5" y="-298.5" font-family="Helvetica,sans-Serif" font-size="10.00" fill="#000000">map</text>
</g>
<!-- Node7&#45;&gt;Node8 -->
<g id="edge11" class="edge">
<title>Node7&#45;&gt;Node8</title>
<path fill="none" stroke="#191970" d="M766.2545,-347.3733C791.3536,-337.6125 830.1667,-322.5185 856.6456,-312.2212"/>
<polygon fill="#191970" stroke="#191970" points="858.0841,-315.4171 866.1356,-308.5306 855.547,-308.8931 858.0841,-315.4171"/>
</g>
<!-- Node9 -->
<g id="node10" class="node">
<title>Node9</title>
<polygon fill="#ffffff" stroke="#bfbfbf" points="766.5,-235.5 766.5,-254.5 810.5,-254.5 810.5,-235.5 766.5,-235.5"/>
<text text-anchor="middle" x="788.5" y="-242.5" font-family="Helvetica,sans-Serif" font-size="10.00" fill="#000000">mpi.h</text>
</g>
<!-- Node7&#45;&gt;Node9 -->
<g id="edge12" class="edge">
<title>Node7&#45;&gt;Node9</title>
<path fill="none" stroke="#191970" d="M748.5375,-347.1905C754.7568,-338.1525 763.7141,-324.1841 769.5,-311 776.0885,-295.987 781.0807,-278.0611 784.2908,-264.6825"/>
<polygon fill="#191970" stroke="#191970" points="787.7613,-265.2047 786.5639,-254.6777 780.9352,-263.6537 787.7613,-265.2047"/>
</g>
<!-- Node10 -->
<g id="node11" class="node">
<title>Node10</title>
<polygon fill="#ffffff" stroke="#bfbfbf" points="356.5,-179.5 356.5,-198.5 388.5,-198.5 388.5,-179.5 356.5,-179.5"/>
<text text-anchor="middle" x="372.5" y="-186.5" font-family="Helvetica,sans-Serif" font-size="10.00" fill="#000000">set</text>
</g>
<!-- Node7&#45;&gt;Node10 -->
<g id="edge13" class="edge">
<title>Node7&#45;&gt;Node10</title>
<path fill="none" stroke="#191970" d="M667.8815,-347.4873C628.326,-340.6241 579.4196,-329.261 538.5,-311 499.1982,-293.461 494.204,-280.4535 459.5,-255 436.5878,-238.1952 410.6842,-218.4455 393.1449,-204.959"/>
<polygon fill="#191970" stroke="#191970" points="394.8533,-201.8569 384.7956,-198.5261 390.581,-207.402 394.8533,-201.8569"/>
</g>
<!-- Node11 -->
<g id="node12" class="node">
<title>Node11</title>
<polygon fill="#ffffff" stroke="#bfbfbf" points="406.5,-179.5 406.5,-198.5 462.5,-198.5 462.5,-179.5 406.5,-179.5"/>
<text text-anchor="middle" x="434.5" y="-186.5" font-family="Helvetica,sans-Serif" font-size="10.00" fill="#000000">stddef.h</text>
</g>
<!-- Node7&#45;&gt;Node11 -->
<g id="edge14" class="edge">
<title>Node7&#45;&gt;Node11</title>
<path fill="none" stroke="#191970" d="M696.5549,-347.4636C641.7762,-334.104 548.4957,-305.5878 483.5,-255 467.0295,-242.1806 453.3857,-222.4679 444.7143,-207.9219"/>
<polygon fill="#191970" stroke="#191970" points="447.5231,-205.7815 439.5318,-198.8252 441.4409,-209.2466 447.5231,-205.7815"/>
</g>
<!-- Node12 -->
<g id="node13" class="node">
<title>Node12</title>
<g id="a_node13"><a xlink:href="MPICommunication_8hpp.html" target="_top" xlink:title="MPICommunication.hpp">
<polygon fill="#ffffff" stroke="#000000" points="628.5,-291.5 628.5,-310.5 760.5,-310.5 760.5,-291.5 628.5,-291.5"/>
<text text-anchor="middle" x="694.5" y="-298.5" font-family="Helvetica,sans-Serif" font-size="10.00" fill="#000000">MPICommunication.hpp</text>
</a>
</g>
</g>
<!-- Node7&#45;&gt;Node12 -->
<g id="edge16" class="edge">
<title>Node7&#45;&gt;Node12</title>
<path fill="none" stroke="#191970" d="M733.3132,-347.2455C726.6411,-339.2958 717.0521,-327.8706 709.0747,-318.3656"/>
<polygon fill="#191970" stroke="#191970" points="711.7026,-316.0524 702.593,-310.6427 706.3408,-320.5525 711.7026,-316.0524"/>
</g>
<!-- Node16 -->
<g id="node17" class="node">
<title>Node16</title>
<g id="a_node17"><a xlink:href="Logger_8hpp.html" target="_top" xlink:title="logging/Logger.hpp">
<polygon fill="#ffffff" stroke="#000000" points="691,-179.5 691,-198.5 800,-198.5 800,-179.5 691,-179.5"/>
<text text-anchor="middle" x="745.5" y="-186.5" font-family="Helvetica,sans-Serif" font-size="10.00" fill="#000000">logging/Logger.hpp</text>
</a>
</g>
</g>
<!-- Node7&#45;&gt;Node16 -->
<g id="edge48" class="edge">
<title>Node7&#45;&gt;Node16</title>
<path fill="none" stroke="#191970" d="M753.3592,-347.2645C772.3579,-330.7219 808.59,-295.0033 819.5,-255 821.8388,-246.4243 823.8185,-242.7694 819.5,-235 811.5422,-220.6832 797.0771,-210.2479 783.0334,-202.972"/>
<polygon fill="#191970" stroke="#191970" points="784.4712,-199.7801 773.9381,-198.6379 781.4599,-206.0993 784.4712,-199.7801"/>
</g>
<!-- Node12&#45;&gt;Node4 -->
<g id="edge18" class="edge">
<title>Node12&#45;&gt;Node4</title>
<path fill="none" stroke="#191970" d="M700.4332,-291.3124C710.2251,-276.2965 731.3151,-247.8014 757.5,-235 828.9348,-200.0767 1034.7083,-209.6973 1113.5,-199 1260.0428,-179.1044 1300.0075,-186.0173 1441.5,-143 1499.7436,-125.2925 1533.4036,-138.0931 1566.5,-87 1573.9906,-75.4363 1575.8786,-66.093 1566.5,-56 1546.0929,-34.0383 1098.098,-15.8394 972.8002,-11.1653"/>
<polygon fill="#191970" stroke="#191970" points="972.808,-7.6633 962.6854,-10.7913 972.5493,-14.6585 972.808,-7.6633"/>
</g>
<!-- Node12&#45;&gt;Node5 -->
<g id="edge46" class="edge">
<title>Node12&#45;&gt;Node5</title>
<path fill="none" stroke="#191970" d="M632.8338,-291.4995C543.0275,-276.3024 383.054,-243.6317 347.5,-199 337.2199,-186.0952 334.9609,-167.1941 334.9869,-152.9226"/>
<polygon fill="#191970" stroke="#191970" points="338.4942,-152.8019 335.3881,-142.6727 331.4996,-152.5281 338.4942,-152.8019"/>
</g>
<!-- Node12&#45;&gt;Node9 -->
<g id="edge17" class="edge">
<title>Node12&#45;&gt;Node9</title>
<path fill="none" stroke="#191970" d="M710.8736,-291.2455C725.4308,-282.5731 746.931,-269.7645 763.6152,-259.825"/>
<polygon fill="#191970" stroke="#191970" points="765.5144,-262.7676 772.3141,-254.6427 761.9317,-256.7539 765.5144,-262.7676"/>
</g>
<!-- Node13 -->
<g id="node14" class="node">
<title>Node13</title>
<polygon fill="#ffffff" stroke="#bfbfbf" points="473,-123.5 473,-142.5 520,-142.5 520,-123.5 473,-123.5"/>
<text text-anchor="middle" x="496.5" y="-130.5" font-family="Helvetica,sans-Serif" font-size="10.00" fill="#000000">vector</text>
</g>
<!-- Node12&#45;&gt;Node13 -->
<g id="edge19" class="edge">
<title>Node12&#45;&gt;Node13</title>
<path fill="none" stroke="#191970" d="M691.1611,-291.2589C682.85,-268.4038 659.0804,-210.8678 620.5,-179 616.7984,-175.9425 564.9927,-157.241 529.5269,-144.6449"/>
<polygon fill="#191970" stroke="#191970" points="530.6053,-141.3139 520.0106,-141.2721 528.2668,-147.9117 530.6053,-141.3139"/>
</g>
<!-- Node14 -->
<g id="node15" class="node">
<title>Node14</title>
<g id="a_node15"><a xlink:href="Communication_8hpp.html" target="_top" xlink:title="com/Communication.hpp">
<polygon fill="#ffffff" stroke="#000000" points="492,-235.5 492,-254.5 631,-254.5 631,-235.5 492,-235.5"/>
<text text-anchor="middle" x="561.5" y="-242.5" font-family="Helvetica,sans-Serif" font-size="10.00" fill="#000000">com/Communication.hpp</text>
</a>
</g>
</g>
<!-- Node12&#45;&gt;Node14 -->
<g id="edge20" class="edge">
<title>Node12&#45;&gt;Node14</title>
<path fill="none" stroke="#191970" d="M671.6365,-291.3733C650.095,-282.3032 617.6162,-268.6279 593.5044,-258.4755"/>
<polygon fill="#191970" stroke="#191970" points="594.6397,-255.156 584.0652,-254.5011 591.9233,-261.6075 594.6397,-255.156"/>
</g>
<!-- Node12&#45;&gt;Node16 -->
<g id="edge47" class="edge">
<title>Node12&#45;&gt;Node16</title>
<path fill="none" stroke="#191970" d="M698.9677,-291.1577C704.8246,-278.2581 715.4212,-254.9301 724.5,-235 728.588,-226.026 733.1316,-216.0709 736.944,-207.7234"/>
<polygon fill="#191970" stroke="#191970" points="740.1799,-209.0629 741.1518,-198.5127 733.8129,-206.1541 740.1799,-209.0629"/>
</g>
<!-- Node14&#45;&gt;Node4 -->
<g id="edge23" class="edge">
<title>Node14&#45;&gt;Node4</title>
<path fill="none" stroke="#191970" d="M631.0588,-239.0479C846.1239,-219.95 1489.5145,-157.3405 1549.5,-87 1558.4401,-76.5166 1558.8683,-66.1026 1549.5,-56 1529.7296,-34.6799 1096.6176,-16.1197 973.1078,-11.2458"/>
<polygon fill="#191970" stroke="#191970" points="972.92,-7.7359 962.7908,-10.8422 972.6463,-14.7305 972.92,-7.7359"/>
</g>
<!-- Node14&#45;&gt;Node5 -->
<g id="edge28" class="edge">
<title>Node14&#45;&gt;Node5</title>
<path fill="none" stroke="#191970" d="M550.8595,-235.4994C534.712,-221.4927 502.5983,-195.2129 471.5,-179 443.8542,-164.5871 410.7447,-153.224 384.2342,-145.3973"/>
<polygon fill="#191970" stroke="#191970" points="385.0001,-141.9757 374.4221,-142.5718 383.0631,-148.7024 385.0001,-141.9757"/>
</g>
<!-- Node14&#45;&gt;Node10 -->
<g id="edge21" class="edge">
<title>Node14&#45;&gt;Node10</title>
<path fill="none" stroke="#191970" d="M523.0368,-235.4559C491.6653,-227.3951 446.0691,-215.0538 398.1539,-198.9763"/>
<polygon fill="#191970" stroke="#191970" points="399.1378,-195.6142 388.5434,-195.7111 396.8859,-202.2421 399.1378,-195.6142"/>
</g>
<!-- Node14&#45;&gt;Node11 -->
<g id="edge22" class="edge">
<title>Node14&#45;&gt;Node11</title>
<path fill="none" stroke="#191970" d="M539.6679,-235.3733C519.1897,-226.3435 488.3601,-212.7494 465.3681,-202.6111"/>
<polygon fill="#191970" stroke="#191970" points="466.6093,-199.3333 456.0472,-198.5011 463.785,-205.7383 466.6093,-199.3333"/>
</g>
<!-- Node14&#45;&gt;Node13 -->
<g id="edge24" class="edge">
<title>Node14&#45;&gt;Node13</title>
<path fill="none" stroke="#191970" d="M575.9286,-235.3905C593.3694,-222.5503 618.8224,-199.0825 605.5,-179 596.6889,-165.7179 558.4989,-151.6334 529.7908,-142.6012"/>
<polygon fill="#191970" stroke="#191970" points="530.6823,-139.2138 520.0955,-139.6267 528.6291,-145.9059 530.6823,-139.2138"/>
</g>
<!-- Node15 -->
<g id="node16" class="node">
<title>Node15</title>
<g id="a_node16"><a xlink:href="Request_8hpp.html" target="_top" xlink:title="Request.hpp">
<polygon fill="#ffffff" stroke="#000000" points="519,-179.5 519,-198.5 596,-198.5 596,-179.5 519,-179.5"/>
<text text-anchor="middle" x="557.5" y="-186.5" font-family="Helvetica,sans-Serif" font-size="10.00" fill="#000000">Request.hpp</text>
</a>
</g>
</g>
<!-- Node14&#45;&gt;Node15 -->
<g id="edge25" class="edge">
<title>Node14&#45;&gt;Node15</title>
<path fill="none" stroke="#191970" d="M560.8033,-235.2455C560.2813,-227.9382 559.5496,-217.6944 558.9075,-208.7046"/>
<polygon fill="#191970" stroke="#191970" points="562.3924,-208.3679 558.1888,-198.6427 555.4102,-208.8667 562.3924,-208.3679"/>
</g>
<!-- Node14&#45;&gt;Node16 -->
<g id="edge29" class="edge">
<title>Node14&#45;&gt;Node16</title>
<path fill="none" stroke="#191970" d="M593.1307,-235.3733C623.8596,-226.021 670.676,-211.7725 704.3022,-201.5385"/>
<polygon fill="#191970" stroke="#191970" points="705.7344,-204.7612 714.282,-198.5011 703.6962,-198.0644 705.7344,-204.7612"/>
</g>
<!-- Node15&#45;&gt;Node5 -->
<g id="edge27" class="edge">
<title>Node15&#45;&gt;Node5</title>
<path fill="none" stroke="#191970" d="M519.7599,-179.4369C482.2552,-169.9335 424.6201,-155.3291 384.0176,-145.0407"/>
<polygon fill="#191970" stroke="#191970" points="384.6379,-141.5873 374.0845,-142.5237 382.9184,-148.3728 384.6379,-141.5873"/>
</g>
<!-- Node15&#45;&gt;Node13 -->
<g id="edge26" class="edge">
<title>Node15&#45;&gt;Node13</title>
<path fill="none" stroke="#191970" d="M546.8746,-179.2455C537.9527,-171.0549 525.012,-159.1749 514.4808,-149.5069"/>
<polygon fill="#191970" stroke="#191970" points="516.7371,-146.8271 507.0036,-142.6427 512.0032,-151.9837 516.7371,-146.8271"/>
</g>
<!-- Node16&#45;&gt;Node4 -->
<g id="edge31" class="edge">
<title>Node16&#45;&gt;Node4</title>
<path fill="none" stroke="#191970" d="M708.4125,-179.4447C678.6679,-171.259 636.1491,-158.3735 600.5,-143 583.6929,-135.752 581.8513,-128.8261 564.5,-123 510.4567,-104.8536 347.8758,-130.0467 310.5,-87 301.467,-76.5965 301.1191,-66.0909 310.5,-56 331.0419,-33.9035 781.8962,-15.8016 907.9937,-11.1574"/>
<polygon fill="#191970" stroke="#191970" points="908.3073,-14.6483 918.173,-10.7858 908.0519,-7.653 908.3073,-14.6483"/>
</g>
<!-- Node16&#45;&gt;Node6 -->
<g id="edge30" class="edge">
<title>Node16&#45;&gt;Node6</title>
<path fill="none" stroke="#191970" d="M701.1175,-179.4647C665.775,-171.3329 615.3065,-158.5101 572.5,-143 552.6835,-135.8199 549.707,-128.9937 529.5,-123 420.612,-90.7022 386.7223,-114.4007 276.5,-87 273.3426,-86.2151 270.0935,-85.284 266.8632,-84.2737"/>
<polygon fill="#191970" stroke="#191970" points="267.933,-80.9409 257.3389,-81.0722 265.7026,-87.5761 267.933,-80.9409"/>
</g>
<!-- Node17 -->
<g id="node18" class="node">
<title>Node17</title>
<g id="a_node18"><a xlink:href="LogMacros_8hpp.html" target="_top" xlink:title="LogMacros.hpp">
<polygon fill="#ffffff" stroke="#000000" points="807,-123.5 807,-142.5 896,-142.5 896,-123.5 807,-123.5"/>
<text text-anchor="middle" x="851.5" y="-130.5" font-family="Helvetica,sans-Serif" font-size="10.00" fill="#000000">LogMacros.hpp</text>
</a>
</g>
</g>
<!-- Node16&#45;&gt;Node17 -->
<g id="edge32" class="edge">
<title>Node16&#45;&gt;Node17</title>
<path fill="none" stroke="#191970" d="M763.9638,-179.2455C780.6074,-170.4527 805.2993,-157.4079 824.2192,-147.4125"/>
<polygon fill="#191970" stroke="#191970" points="826.0408,-150.4086 833.2478,-142.6427 822.7709,-144.2193 826.0408,-150.4086"/>
</g>
<!-- Node17&#45;&gt;Node4 -->
<g id="edge39" class="edge">
<title>Node17&#45;&gt;Node4</title>
<path fill="none" stroke="#191970" d="M806.8541,-129.1767C708.8191,-120.5685 482.5328,-99.4489 471.5,-87 462.3618,-76.6888 462.2453,-66.2068 471.5,-56 500.7954,-23.6907 806.6691,-13.2906 908.0551,-10.7174"/>
<polygon fill="#191970" stroke="#191970" points="908.3887,-14.2104 918.3001,-10.4666 908.2174,-7.2125 908.3887,-14.2104"/>
</g>
<!-- Node18 -->
<g id="node19" class="node">
<title>Node18</title>
<polygon fill="#ffffff" stroke="#bfbfbf" points="796.5,-56.5 796.5,-86.5 906.5,-86.5 906.5,-56.5 796.5,-56.5"/>
<text text-anchor="start" x="804.5" y="-74.5" font-family="Helvetica,sans-Serif" font-size="10.00" fill="#000000">boost/preprocessor</text>
<text text-anchor="middle" x="851.5" y="-63.5" font-family="Helvetica,sans-Serif" font-size="10.00" fill="#000000">/control/if.hpp</text>
</g>
<!-- Node17&#45;&gt;Node18 -->
<g id="edge33" class="edge">
<title>Node17&#45;&gt;Node18</title>
<path fill="none" stroke="#191970" d="M851.5,-123.3906C851.5,-116.2234 851.5,-106.0862 851.5,-96.671"/>
<polygon fill="#191970" stroke="#191970" points="855.0001,-96.5446 851.5,-86.5446 848.0001,-96.5446 855.0001,-96.5446"/>
</g>
<!-- Node19 -->
<g id="node20" class="node">
<title>Node19</title>
<polygon fill="#ffffff" stroke="#bfbfbf" points="924.5,-56.5 924.5,-86.5 1040.5,-86.5 1040.5,-56.5 924.5,-56.5"/>
<text text-anchor="start" x="932.5" y="-74.5" font-family="Helvetica,sans-Serif" font-size="10.00" fill="#000000">boost/preprocessor</text>
<text text-anchor="middle" x="982.5" y="-63.5" font-family="Helvetica,sans-Serif" font-size="10.00" fill="#000000">/facilities/empty.hpp</text>
</g>
<!-- Node17&#45;&gt;Node19 -->
<g id="edge34" class="edge">
<title>Node17&#45;&gt;Node19</title>
<path fill="none" stroke="#191970" d="M871.9688,-123.3906C890.4367,-114.7205 918.1618,-101.7046 941.2236,-90.8779"/>
<polygon fill="#191970" stroke="#191970" points="942.8891,-93.9625 950.4538,-86.5446 939.9143,-87.6261 942.8891,-93.9625"/>
</g>
<!-- Node20 -->
<g id="node21" class="node">
<title>Node20</title>
<polygon fill="#ffffff" stroke="#bfbfbf" points="1059,-56.5 1059,-86.5 1170,-86.5 1170,-56.5 1059,-56.5"/>
<text text-anchor="start" x="1067" y="-74.5" font-family="Helvetica,sans-Serif" font-size="10.00" fill="#000000">boost/preprocessor</text>
<text text-anchor="middle" x="1114.5" y="-63.5" font-family="Helvetica,sans-Serif" font-size="10.00" fill="#000000">/seq/for_each_i.hpp</text>
</g>
<!-- Node17&#45;&gt;Node20 -->
<g id="edge35" class="edge">
<title>Node17&#45;&gt;Node20</title>
<path fill="none" stroke="#191970" d="M892.852,-123.4667C930.8068,-114.7 988.8692,-101.2478 1048.8107,-87.1551"/>
<polygon fill="#191970" stroke="#191970" points="1049.9033,-90.4937 1058.8358,-84.7962 1048.3,-83.6798 1049.9033,-90.4937"/>
</g>
<!-- Node21 -->
<g id="node22" class="node">
<title>Node21</title>
<polygon fill="#ffffff" stroke="#bfbfbf" points="1188.5,-56.5 1188.5,-86.5 1298.5,-86.5 1298.5,-56.5 1188.5,-56.5"/>
<text text-anchor="start" x="1196.5" y="-74.5" font-family="Helvetica,sans-Serif" font-size="10.00" fill="#000000">boost/preprocessor</text>
<text text-anchor="middle" x="1243.5" y="-63.5" font-family="Helvetica,sans-Serif" font-size="10.00" fill="#000000">/stringize.hpp</text>
</g>
<!-- Node17&#45;&gt;Node21 -->
<g id="edge36" class="edge">
<title>Node17&#45;&gt;Node21</title>
<path fill="none" stroke="#191970" d="M896.0263,-128.1623C957.407,-121.1843 1071.6347,-107.0907 1178.4376,-87.0942"/>
<polygon fill="#191970" stroke="#191970" points="1179.2428,-90.5041 1188.4168,-85.2042 1177.9401,-83.6263 1179.2428,-90.5041"/>
</g>
<!-- Node22 -->
<g id="node23" class="node">
<title>Node22</title>
<polygon fill="#ffffff" stroke="#bfbfbf" points="1317,-56.5 1317,-86.5 1432,-86.5 1432,-56.5 1317,-56.5"/>
<text text-anchor="start" x="1325" y="-74.5" font-family="Helvetica,sans-Serif" font-size="10.00" fill="#000000">boost/preprocessor</text>
<text text-anchor="middle" x="1374.5" y="-63.5" font-family="Helvetica,sans-Serif" font-size="10.00" fill="#000000">/variadic/to_seq.hpp</text>
</g>
<!-- Node17&#45;&gt;Node22 -->
<g id="edge37" class="edge">
<title>Node17&#45;&gt;Node22</title>
<path fill="none" stroke="#191970" d="M896.087,-130.386C976.236,-125.2787 1150.0792,-112.3429 1306.5678,-87.0124"/>
<polygon fill="#191970" stroke="#191970" points="1307.5476,-90.3986 1316.8491,-85.326 1306.4144,-83.4909 1307.5476,-90.3986"/>
</g>
<!-- Node23 -->
<g id="node24" class="node">
<title>Node23</title>
<polygon fill="#ffffff" stroke="#bfbfbf" points="480.5,-62 480.5,-81 616.5,-81 616.5,-62 480.5,-62"/>
<text text-anchor="middle" x="548.5" y="-69" font-family="Helvetica,sans-Serif" font-size="10.00" fill="#000000">boost/vmd/is_empty.hpp</text>
</g>
<!-- Node17&#45;&gt;Node23 -->
<g id="edge38" class="edge">
<title>Node17&#45;&gt;Node23</title>
<path fill="none" stroke="#191970" d="M806.7913,-123.9255C753.3701,-113.0825 663.9051,-94.9238 605.5475,-83.0789"/>
<polygon fill="#191970" stroke="#191970" points="605.8833,-79.5758 595.3869,-81.0166 604.4908,-86.4359 605.8833,-79.5758"/>
</g>
<!-- Node24 -->
<g id="node25" class="node">
<title>Node24</title>
<g id="a_node25"><a xlink:href="Tracer_8hpp.html" target="_top" xlink:title="logging/Tracer.hpp">
<polygon fill="#ffffff" stroke="#000000" points="319,-62 319,-81 424,-81 424,-62 319,-62"/>
<text text-anchor="middle" x="371.5" y="-69" font-family="Helvetica,sans-Serif" font-size="10.00" fill="#000000">logging/Tracer.hpp</text>
</a>
</g>
</g>
<!-- Node17&#45;&gt;Node24 -->
<g id="edge40" class="edge">
<title>Node17&#45;&gt;Node24</title>
<path fill="none" stroke="#191970" d="M806.9631,-128.7023C715.3577,-119.7539 508.5486,-98.9618 438.5,-87 432.2441,-85.9317 425.6975,-84.6388 419.2506,-83.2606"/>
<polygon fill="#191970" stroke="#191970" points="419.7786,-79.7927 409.258,-81.0446 418.2631,-86.6267 419.7786,-79.7927"/>
</g>
<!-- Node25 -->
<g id="node26" class="node">
<title>Node25</title>
<polygon fill="#ffffff" stroke="#bfbfbf" points="634.5,-62 634.5,-81 778.5,-81 778.5,-62 634.5,-62"/>
<text text-anchor="middle" x="706.5" y="-69" font-family="Helvetica,sans-Serif" font-size="10.00" fill="#000000">prettyprint/prettyprint.hpp</text>
</g>
<!-- Node17&#45;&gt;Node25 -->
<g id="edge42" class="edge">
<title>Node17&#45;&gt;Node25</title>
<path fill="none" stroke="#191970" d="M828.8438,-123.3906C804.5826,-113.1005 765.8882,-96.6888 738.52,-85.0809"/>
<polygon fill="#191970" stroke="#191970" points="739.57,-81.7245 728.9972,-81.0419 736.8367,-88.1688 739.57,-81.7245"/>
</g>
<!-- Node26 -->
<g id="node27" class="node">
<title>Node26</title>
<g id="a_node27"><a xlink:href="String_8hpp.html" target="_top" xlink:title="utils/String.hpp">
<polygon fill="#ffffff" stroke="#000000" points="1450.5,-62 1450.5,-81 1540.5,-81 1540.5,-62 1450.5,-62"/>
<text text-anchor="middle" x="1495.5" y="-69" font-family="Helvetica,sans-Serif" font-size="10.00" fill="#000000">utils/String.hpp</text>
</a>
</g>
</g>
<!-- Node17&#45;&gt;Node26 -->
<g id="edge43" class="edge">
<title>Node17&#45;&gt;Node26</title>
<path fill="none" stroke="#191970" d="M896.1396,-130.6894C1014.9086,-124.3547 1336.729,-105.9207 1441.5,-87 1446.3441,-86.1252 1451.377,-84.9929 1456.336,-83.7386"/>
<polygon fill="#191970" stroke="#191970" points="1457.5877,-87.0259 1466.327,-81.0362 1455.76,-80.2687 1457.5877,-87.0259"/>
</g>
<!-- Node24&#45;&gt;Node16 -->
<g id="edge41" class="edge">
<title>Node24&#45;&gt;Node16</title>
<path fill="none" stroke="#191970" d="M424.1803,-80.1574C471.1459,-88.6238 541.4001,-103.1405 600.5,-123 643.135,-137.3268 690.1133,-160.0837 718.7133,-174.7798"/>
<polygon fill="#191970" stroke="#191970" points="717.187,-177.9309 727.6751,-179.4308 720.4115,-171.7178 717.187,-177.9309"/>
</g>
<!-- Node26&#45;&gt;Node4 -->
<g id="edge45" class="edge">
<title>Node26&#45;&gt;Node4</title>
<path fill="none" stroke="#191970" d="M1466.0314,-61.9582C1458.1343,-59.6998 1449.5524,-57.5114 1441.5,-56 1266.8623,-23.2205 1053.4084,-13.4899 973.1088,-10.8758"/>
<polygon fill="#191970" stroke="#191970" points="972.7834,-7.3641 962.6798,-10.5525 972.5665,-14.3608 972.7834,-7.3641"/>
</g>
<!-- Node27 -->
<g id="node28" class="node">
<title>Node27</title>
<polygon fill="#ffffff" stroke="#bfbfbf" points="1467.5,-.5 1467.5,-19.5 1523.5,-19.5 1523.5,-.5 1467.5,-.5"/>
<text text-anchor="middle" x="1495.5" y="-7.5" font-family="Helvetica,sans-Serif" font-size="10.00" fill="#000000">sstream</text>
</g>
<!-- Node26&#45;&gt;Node27 -->
<g id="edge44" class="edge">
<title>Node26&#45;&gt;Node27</title>
<path fill="none" stroke="#191970" d="M1495.5,-61.8906C1495.5,-53.3657 1495.5,-40.6392 1495.5,-29.9235"/>
<polygon fill="#191970" stroke="#191970" points="1499.0001,-29.7448 1495.5,-19.7449 1492.0001,-29.7449 1499.0001,-29.7448"/>
</g>
</g>
</svg>
