<?xml version="1.0" encoding="UTF-8" standalone="no"?>
<!DOCTYPE svg PUBLIC "-//W3C//DTD SVG 1.1//EN"
 "http://www.w3.org/Graphics/SVG/1.1/DTD/svg11.dtd">
<!-- Generated by graphviz version 2.40.1 (20161225.0304)
 -->
<!-- Title: src/com/MPISinglePortsCommunicationFactory.cpp Pages: 1 -->
<!--zoomable 453 -->
<svg id="main" version="1.1" xmlns="http://www.w3.org/2000/svg" xmlns:xlink="http://www.w3.org/1999/xlink" xml:space="preserve" onload="init(evt)">
<style type="text/css"><![CDATA[
.edge:hover path { stroke: red; }
.edge:hover polygon { stroke: red; fill: red; }
]]></style>
<script type="text/javascript"><![CDATA[
var edges = document.getElementsByTagName('g');
if (edges && edges.length) {
  for (var i=0;i<edges.length;i++) {
    if (edges[i].id.substr(0,4)=='edge') {
      edges[i].setAttribute('class','edge');
    }
  }
}
]]></script>
        <defs>
                <circle id="rim" cx="0" cy="0" r="7"/>
                <circle id="rim2" cx="0" cy="0" r="3.5"/>
                <g id="zoomPlus">
                        <use xlink:href="#rim" fill="#404040">
                                <set attributeName="fill" to="#808080" begin="zoomplus.mouseover" end="zoomplus.mouseout"/>
                        </use>
                        <path d="M-4,0h8M0,-4v8" fill="none" stroke="white" stroke-width="1.5" pointer-events="none"/>
                </g>
                <g id="zoomMin">
                        <use xlink:href="#rim" fill="#404040">
                                <set attributeName="fill" to="#808080" begin="zoomminus.mouseover" end="zoomminus.mouseout"/>
                        </use>
                        <path d="M-4,0h8" fill="none" stroke="white" stroke-width="1.5" pointer-events="none"/>
                </g>
                <g id="dirArrow">
                        <path fill="none" stroke="white" stroke-width="1.5" d="M0,-3.0v7 M-2.5,-0.5L0,-3.0L2.5,-0.5"/>
                </g>
               <g id="resetDef">
                       <use xlink:href="#rim2" fill="#404040">
                               <set attributeName="fill" to="#808080" begin="reset.mouseover" end="reset.mouseout"/>
                       </use>
               </g>
        </defs>

<script type="text/javascript">
var viewWidth = 1653;
var viewHeight = 453;
var sectionId = 'dynsection-0';
</script>
<script xlink:href="svgpan.js"/>
<svg id="graph" class="graph">
<g id="viewport">
<title>src/com/MPISinglePortsCommunicationFactory.cpp</title>
<polygon fill="#ffffff" stroke="transparent" points="-4,4 -4,-449 1648.5,-449 1648.5,4 -4,4"/>
<!-- Node0 -->
<g id="node1" class="node">
<title>Node0</title>
<polygon fill="#bfbfbf" stroke="#000000" points="168,-414.5 168,-444.5 375,-444.5 375,-414.5 168,-414.5"/>
<text text-anchor="start" x="176" y="-432.5" font-family="Helvetica,sans-Serif" font-size="10.00" fill="#000000">src/com/MPISinglePortsCommunication</text>
<text text-anchor="middle" x="271.5" y="-421.5" font-family="Helvetica,sans-Serif" font-size="10.00" fill="#000000">Factory.cpp</text>
</g>
<!-- Node1 -->
<g id="node2" class="node">
<title>Node1</title>
<g id="a_node2"><a xlink:href="MPISinglePortsCommunicationFactory_8hpp.html" target="_top" xlink:title="MPISinglePortsCommunication\lFactory.hpp">
<polygon fill="#ffffff" stroke="#000000" points="58.5,-235.5 58.5,-265.5 224.5,-265.5 224.5,-235.5 58.5,-235.5"/>
<text text-anchor="start" x="66.5" y="-253.5" font-family="Helvetica,sans-Serif" font-size="10.00" fill="#000000">MPISinglePortsCommunication</text>
<text text-anchor="middle" x="141.5" y="-242.5" font-family="Helvetica,sans-Serif" font-size="10.00" fill="#000000">Factory.hpp</text>
</a>
</g>
</g>
<!-- Node0&#45;&gt;Node1 -->
<g id="edge1" class="edge">
<title>Node0&#45;&gt;Node1</title>
<path fill="none" stroke="#191970" d="M260.4163,-414.2386C237.6785,-382.9304 185.6248,-311.2565 158.5561,-273.985"/>
<polygon fill="#191970" stroke="#191970" points="161.264,-271.7574 152.5557,-265.7228 155.6001,-275.8708 161.264,-271.7574"/>
</g>
<!-- Node5 -->
<g id="node6" class="node">
<title>Node5</title>
<g id="a_node6"><a xlink:href="com_2SharedPointer_8hpp.html" target="_top" xlink:title="com/SharedPointer.hpp">
<polygon fill="#ffffff" stroke="#000000" points="272,-123.5 272,-142.5 401,-142.5 401,-123.5 272,-123.5"/>
<text text-anchor="middle" x="336.5" y="-130.5" font-family="Helvetica,sans-Serif" font-size="10.00" fill="#000000">com/SharedPointer.hpp</text>
</a>
</g>
</g>
<!-- Node0&#45;&gt;Node5 -->
<g id="edge49" class="edge">
<title>Node0&#45;&gt;Node5</title>
<path fill="none" stroke="#191970" d="M275.5294,-414.416C281.1067,-392.1752 290.5,-349.1957 290.5,-312 290.5,-312 290.5,-312 290.5,-250.5 290.5,-213.1215 310.9345,-173.3721 324.5641,-151.0168"/>
<polygon fill="#191970" stroke="#191970" points="327.5258,-152.8818 329.9093,-142.5585 321.6084,-149.1422 327.5258,-152.8818"/>
</g>
<!-- Node6 -->
<g id="node7" class="node">
<title>Node6</title>
<polygon fill="#ffffff" stroke="#bfbfbf" points="204.5,-62 204.5,-81 262.5,-81 262.5,-62 204.5,-62"/>
<text text-anchor="middle" x="233.5" y="-69" font-family="Helvetica,sans-Serif" font-size="10.00" fill="#000000">memory</text>
</g>
<!-- Node0&#45;&gt;Node6 -->
<g id="edge9" class="edge">
<title>Node0&#45;&gt;Node6</title>
<path fill="none" stroke="#191970" d="M267.4706,-414.416C261.8933,-392.1752 252.5,-349.1957 252.5,-312 252.5,-312 252.5,-312 252.5,-250.5 252.5,-192.3537 242.4633,-124.1732 236.9794,-91.2601"/>
<polygon fill="#191970" stroke="#191970" points="240.3884,-90.4306 235.2534,-81.1634 233.4885,-91.6102 240.3884,-90.4306"/>
</g>
<!-- Node7 -->
<g id="node8" class="node">
<title>Node7</title>
<g id="a_node8"><a xlink:href="MPISinglePortsCommunication_8hpp.html" target="_top" xlink:title="MPISinglePortsCommunication.hpp">
<polygon fill="#ffffff" stroke="#000000" points="648,-358.5 648,-377.5 835,-377.5 835,-358.5 648,-358.5"/>
<text text-anchor="middle" x="741.5" y="-365.5" font-family="Helvetica,sans-Serif" font-size="10.00" fill="#000000">MPISinglePortsCommunication.hpp</text>
</a>
</g>
</g>
<!-- Node0&#45;&gt;Node7 -->
<g id="edge10" class="edge">
<title>Node0&#45;&gt;Node7</title>
<path fill="none" stroke="#191970" d="M375.2253,-415.9274C460.343,-404.7897 579.291,-389.2252 658.27,-378.8907"/>
<polygon fill="#191970" stroke="#191970" points="659.1983,-382.2992 668.6596,-377.5312 658.29,-375.3584 659.1983,-382.2992"/>
</g>
<!-- Node2 -->
<g id="node3" class="node">
<title>Node2</title>
<g id="a_node3"><a xlink:href="CommunicationFactory_8hpp.html" target="_top" xlink:title="CommunicationFactory.hpp">
<polygon fill="#ffffff" stroke="#000000" points="0,-179.5 0,-198.5 149,-198.5 149,-179.5 0,-179.5"/>
<text text-anchor="middle" x="74.5" y="-186.5" font-family="Helvetica,sans-Serif" font-size="10.00" fill="#000000">CommunicationFactory.hpp</text>
</a>
</g>
</g>
<!-- Node1&#45;&gt;Node2 -->
<g id="edge2" class="edge">
<title>Node1&#45;&gt;Node2</title>
<path fill="none" stroke="#191970" d="M124.9382,-235.2977C115.1535,-226.3163 102.7526,-214.9334 92.6957,-205.702"/>
<polygon fill="#191970" stroke="#191970" points="94.9613,-203.0307 85.2275,-198.8469 90.2278,-208.1876 94.9613,-203.0307"/>
</g>
<!-- Node4 -->
<g id="node5" class="node">
<title>Node4</title>
<polygon fill="#ffffff" stroke="#bfbfbf" points="918.5,-.5 918.5,-19.5 962.5,-19.5 962.5,-.5 918.5,-.5"/>
<text text-anchor="middle" x="940.5" y="-7.5" font-family="Helvetica,sans-Serif" font-size="10.00" fill="#000000">string</text>
</g>
<!-- Node1&#45;&gt;Node4 -->
<g id="edge8" class="edge">
<title>Node1&#45;&gt;Node4</title>
<path fill="none" stroke="#191970" d="M146.4276,-235.2263C149.68,-225.0054 153.9753,-211.2355 157.5,-199 175.7037,-135.8085 144.6301,-97.6749 195.5,-56 223.4658,-33.0892 768.9197,-15.1634 908.2944,-10.9443"/>
<polygon fill="#191970" stroke="#191970" points="908.4538,-14.4412 918.3442,-10.6427 908.2437,-7.4444 908.4538,-14.4412"/>
</g>
<!-- Node1&#45;&gt;Node5 -->
<g id="edge7" class="edge">
<title>Node1&#45;&gt;Node5</title>
<path fill="none" stroke="#191970" d="M166.5936,-235.3795C204.1454,-212.7521 274.5256,-170.3435 311.8292,-147.8657"/>
<polygon fill="#191970" stroke="#191970" points="313.8016,-150.7636 320.5604,-142.6046 310.1888,-144.7679 313.8016,-150.7636"/>
</g>
<!-- Node3 -->
<g id="node4" class="node">
<title>Node3</title>
<polygon fill="#ffffff" stroke="#bfbfbf" points="42,-123.5 42,-142.5 107,-142.5 107,-123.5 42,-123.5"/>
<text text-anchor="middle" x="74.5" y="-130.5" font-family="Helvetica,sans-Serif" font-size="10.00" fill="#000000">stdexcept</text>
</g>
<!-- Node2&#45;&gt;Node3 -->
<g id="edge3" class="edge">
<title>Node2&#45;&gt;Node3</title>
<path fill="none" stroke="#191970" d="M74.5,-179.2455C74.5,-171.9382 74.5,-161.6944 74.5,-152.7046"/>
<polygon fill="#191970" stroke="#191970" points="78.0001,-152.6426 74.5,-142.6427 71.0001,-152.6427 78.0001,-152.6426"/>
</g>
<!-- Node2&#45;&gt;Node4 -->
<g id="edge4" class="edge">
<title>Node2&#45;&gt;Node4</title>
<path fill="none" stroke="#191970" d="M84.3344,-179.3351C93.1245,-170.3945 106.0399,-156.4879 115.5,-143 140.736,-107.0194 125.4353,-79.6149 162.5,-56 194.4048,-35.6726 764.4754,-15.7502 907.9413,-11.0429"/>
<polygon fill="#191970" stroke="#191970" points="908.3877,-14.5303 918.2684,-10.7062 908.1596,-7.534 908.3877,-14.5303"/>
</g>
<!-- Node2&#45;&gt;Node5 -->
<g id="edge5" class="edge">
<title>Node2&#45;&gt;Node5</title>
<path fill="none" stroke="#191970" d="M119.2417,-179.4369C164.2694,-169.8127 233.7728,-154.957 281.9927,-144.6504"/>
<polygon fill="#191970" stroke="#191970" points="282.8953,-148.0366 291.9428,-142.5237 281.4321,-141.1912 282.8953,-148.0366"/>
</g>
<!-- Node5&#45;&gt;Node6 -->
<g id="edge6" class="edge">
<title>Node5&#45;&gt;Node6</title>
<path fill="none" stroke="#191970" d="M320.4063,-123.3906C303.7772,-113.4616 277.6024,-97.833 258.3206,-86.3201"/>
<polygon fill="#191970" stroke="#191970" points="259.861,-83.1634 249.4807,-81.0419 256.2724,-89.1736 259.861,-83.1634"/>
</g>
<!-- Node7&#45;&gt;Node4 -->
<g id="edge15" class="edge">
<title>Node7&#45;&gt;Node4</title>
<path fill="none" stroke="#191970" d="M835.1582,-365.5013C1066.1566,-358.0968 1644.5,-331.473 1644.5,-250.5 1644.5,-250.5 1644.5,-250.5 1644.5,-133 1644.5,-89.3403 1622.1018,-76.3978 1583.5,-56 1529.2302,-27.3229 1095.7789,-14.0148 972.8781,-10.7942"/>
<polygon fill="#191970" stroke="#191970" points="972.7047,-7.2886 962.6179,-10.53 972.5244,-14.2863 972.7047,-7.2886"/>
</g>
<!-- Node8 -->
<g id="node9" class="node">
<title>Node8</title>
<polygon fill="#ffffff" stroke="#bfbfbf" points="866.5,-302.5 866.5,-321.5 904.5,-321.5 904.5,-302.5 866.5,-302.5"/>
<text text-anchor="middle" x="885.5" y="-309.5" font-family="Helvetica,sans-Serif" font-size="10.00" fill="#000000">map</text>
</g>
<!-- Node7&#45;&gt;Node8 -->
<g id="edge11" class="edge">
<title>Node7&#45;&gt;Node8</title>
<path fill="none" stroke="#191970" d="M766.2545,-358.3733C791.3536,-348.6125 830.1667,-333.5185 856.6456,-323.2212"/>
<polygon fill="#191970" stroke="#191970" points="858.0841,-326.4171 866.1356,-319.5306 855.547,-319.8931 858.0841,-326.4171"/>
</g>
<!-- Node9 -->
<g id="node10" class="node">
<title>Node9</title>
<polygon fill="#ffffff" stroke="#bfbfbf" points="766.5,-241 766.5,-260 810.5,-260 810.5,-241 766.5,-241"/>
<text text-anchor="middle" x="788.5" y="-248" font-family="Helvetica,sans-Serif" font-size="10.00" fill="#000000">mpi.h</text>
</g>
<!-- Node7&#45;&gt;Node9 -->
<g id="edge12" class="edge">
<title>Node7&#45;&gt;Node9</title>
<path fill="none" stroke="#191970" d="M748.6022,-358.2185C754.8651,-349.1993 763.85,-335.2429 769.5,-322 776.7296,-305.0547 781.8225,-284.6517 784.9035,-269.9856"/>
<polygon fill="#191970" stroke="#191970" points="788.3635,-270.5298 786.8694,-260.0408 781.4964,-269.1722 788.3635,-270.5298"/>
</g>
<!-- Node10 -->
<g id="node11" class="node">
<title>Node10</title>
<polygon fill="#ffffff" stroke="#bfbfbf" points="356.5,-179.5 356.5,-198.5 388.5,-198.5 388.5,-179.5 356.5,-179.5"/>
<text text-anchor="middle" x="372.5" y="-186.5" font-family="Helvetica,sans-Serif" font-size="10.00" fill="#000000">set</text>
</g>
<!-- Node7&#45;&gt;Node10 -->
<g id="edge13" class="edge">
<title>Node7&#45;&gt;Node10</title>
<path fill="none" stroke="#191970" d="M670.1136,-358.4842C630.0199,-351.5356 579.7135,-340.0915 537.5,-322 496.2588,-304.3252 488.5564,-294.0051 453.5,-266 429.5294,-246.8509 404.2675,-221.9803 388.4549,-205.7622"/>
<polygon fill="#191970" stroke="#191970" points="390.9628,-203.3207 381.4985,-198.5586 385.9274,-208.1833 390.9628,-203.3207"/>
</g>
<!-- Node11 -->
<g id="node12" class="node">
<title>Node11</title>
<polygon fill="#ffffff" stroke="#bfbfbf" points="406.5,-179.5 406.5,-198.5 462.5,-198.5 462.5,-179.5 406.5,-179.5"/>
<text text-anchor="middle" x="434.5" y="-186.5" font-family="Helvetica,sans-Serif" font-size="10.00" fill="#000000">stddef.h</text>
</g>
<!-- Node7&#45;&gt;Node11 -->
<g id="edge14" class="edge">
<title>Node7&#45;&gt;Node11</title>
<path fill="none" stroke="#191970" d="M692.7396,-358.491C636.9824,-345.5701 545.4353,-317.8861 483.5,-266 464.6903,-250.2423 450.7069,-225.3724 442.5937,-208.1809"/>
<polygon fill="#191970" stroke="#191970" points="445.5926,-206.3141 438.31,-198.619 439.2044,-209.1761 445.5926,-206.3141"/>
</g>
<!-- Node12 -->
<g id="node13" class="node">
<title>Node12</title>
<g id="a_node13"><a xlink:href="MPICommunication_8hpp.html" target="_top" xlink:title="MPICommunication.hpp">
<polygon fill="#ffffff" stroke="#000000" points="628.5,-302.5 628.5,-321.5 760.5,-321.5 760.5,-302.5 628.5,-302.5"/>
<text text-anchor="middle" x="694.5" y="-309.5" font-family="Helvetica,sans-Serif" font-size="10.00" fill="#000000">MPICommunication.hpp</text>
</a>
</g>
</g>
<!-- Node7&#45;&gt;Node12 -->
<g id="edge16" class="edge">
<title>Node7&#45;&gt;Node12</title>
<path fill="none" stroke="#191970" d="M733.3132,-358.2455C726.6411,-350.2958 717.0521,-338.8706 709.0747,-329.3656"/>
<polygon fill="#191970" stroke="#191970" points="711.7026,-327.0524 702.593,-321.6427 706.3408,-331.5525 711.7026,-327.0524"/>
</g>
<!-- Node16 -->
<g id="node17" class="node">
<title>Node16</title>
<g id="a_node17"><a xlink:href="Logger_8hpp.html" target="_top" xlink:title="logging/Logger.hpp">
<polygon fill="#ffffff" stroke="#000000" points="691,-179.5 691,-198.5 800,-198.5 800,-179.5 691,-179.5"/>
<text text-anchor="middle" x="745.5" y="-186.5" font-family="Helvetica,sans-Serif" font-size="10.00" fill="#000000">logging/Logger.hpp</text>
</a>
</g>
</g>
<!-- Node7&#45;&gt;Node16 -->
<g id="edge48" class="edge">
<title>Node7&#45;&gt;Node16</title>
<path fill="none" stroke="#191970" d="M753.3592,-358.2645C772.3579,-341.7219 808.59,-306.0033 819.5,-266 823.1252,-252.7077 826.1937,-247.0425 819.5,-235 811.5422,-220.6832 797.0771,-210.2479 783.0334,-202.972"/>
<polygon fill="#191970" stroke="#191970" points="784.4712,-199.7801 773.9381,-198.6379 781.4599,-206.0993 784.4712,-199.7801"/>
</g>
<!-- Node12&#45;&gt;Node4 -->
<g id="edge18" class="edge">
<title>Node12&#45;&gt;Node4</title>
<path fill="none" stroke="#191970" d="M700.9978,-302.3224C713.8721,-283.4665 742.6555,-242.9527 757.5,-235 829.1492,-196.6151 1040.9517,-209.9083 1121.5,-199 1266.7472,-179.3299 1306.6316,-186.8233 1446.5,-143 1502.6627,-125.4032 1534.8846,-136.6424 1566.5,-87 1573.9011,-75.3788 1575.8786,-66.093 1566.5,-56 1546.0929,-34.0383 1098.098,-15.8394 972.8002,-11.1653"/>
<polygon fill="#191970" stroke="#191970" points="972.808,-7.6633 962.6854,-10.7913 972.5493,-14.6585 972.808,-7.6633"/>
</g>
<!-- Node12&#45;&gt;Node5 -->
<g id="edge46" class="edge">
<title>Node12&#45;&gt;Node5</title>
<path fill="none" stroke="#191970" d="M632.0061,-302.4881C589.4246,-295.0152 532.1659,-283.0071 483.5,-266 419.891,-243.7708 387.6911,-253.0826 347.5,-199 337.6589,-185.7574 335.3517,-166.8934 335.2479,-152.7218"/>
<polygon fill="#191970" stroke="#191970" points="338.7511,-152.6544 335.5352,-142.5595 331.7539,-152.4566 338.7511,-152.6544"/>
</g>
<!-- Node12&#45;&gt;Node9 -->
<g id="edge17" class="edge">
<title>Node12&#45;&gt;Node9</title>
<path fill="none" stroke="#191970" d="M709.1875,-302.3906C724.2256,-292.5519 747.8176,-277.1167 765.3667,-265.6351"/>
<polygon fill="#191970" stroke="#191970" points="767.4637,-268.4457 773.9156,-260.0419 763.6313,-262.588 767.4637,-268.4457"/>
</g>
<!-- Node13 -->
<g id="node14" class="node">
<title>Node13</title>
<polygon fill="#ffffff" stroke="#bfbfbf" points="473,-123.5 473,-142.5 520,-142.5 520,-123.5 473,-123.5"/>
<text text-anchor="middle" x="496.5" y="-130.5" font-family="Helvetica,sans-Serif" font-size="10.00" fill="#000000">vector</text>
</g>
<!-- Node12&#45;&gt;Node13 -->
<g id="edge19" class="edge">
<title>Node12&#45;&gt;Node13</title>
<path fill="none" stroke="#191970" d="M691.8352,-302.4618C684.6168,-278.3218 662.4235,-214.2262 621.5,-179 617.8355,-175.8457 565.5915,-157.1739 529.8174,-144.61"/>
<polygon fill="#191970" stroke="#191970" points="530.8129,-141.2503 520.218,-141.2463 528.4979,-147.8564 530.8129,-141.2503"/>
</g>
<!-- Node14 -->
<g id="node15" class="node">
<title>Node14</title>
<g id="a_node15"><a xlink:href="Communication_8hpp.html" target="_top" xlink:title="com/Communication.hpp">
<polygon fill="#ffffff" stroke="#000000" points="492,-241 492,-260 631,-260 631,-241 492,-241"/>
<text text-anchor="middle" x="561.5" y="-248" font-family="Helvetica,sans-Serif" font-size="10.00" fill="#000000">com/Communication.hpp</text>
</a>
</g>
</g>
<!-- Node12&#45;&gt;Node14 -->
<g id="edge20" class="edge">
<title>Node12&#45;&gt;Node14</title>
<path fill="none" stroke="#191970" d="M673.7188,-302.3906C651.6606,-292.1908 616.595,-275.9763 591.5331,-264.3875"/>
<polygon fill="#191970" stroke="#191970" points="592.6809,-261.0622 582.1353,-260.0419 589.7429,-267.4158 592.6809,-261.0622"/>
</g>
<!-- Node12&#45;&gt;Node16 -->
<g id="edge47" class="edge">
<title>Node12&#45;&gt;Node16</title>
<path fill="none" stroke="#191970" d="M698.0227,-302.4468C703.4601,-287.8228 714.3344,-259.0512 724.5,-235 728.2906,-226.0318 732.7382,-216.2005 736.5621,-207.9373"/>
<polygon fill="#191970" stroke="#191970" points="739.7696,-209.3405 740.8311,-198.799 733.4275,-206.3778 739.7696,-209.3405"/>
</g>
<!-- Node14&#45;&gt;Node4 -->
<g id="edge23" class="edge">
<title>Node14&#45;&gt;Node4</title>
<path fill="none" stroke="#191970" d="M631.0706,-244.1514C846.1705,-223.8287 1489.6527,-157.5651 1549.5,-87 1558.4116,-76.4924 1558.8683,-66.1026 1549.5,-56 1529.7296,-34.6799 1096.6176,-16.1197 973.1078,-11.2458"/>
<polygon fill="#191970" stroke="#191970" points="972.92,-7.7359 962.7908,-10.8422 972.6463,-14.7305 972.92,-7.7359"/>
</g>
<!-- Node14&#45;&gt;Node5 -->
<g id="edge28" class="edge">
<title>Node14&#45;&gt;Node5</title>
<path fill="none" stroke="#191970" d="M551.7944,-240.8906C536.1211,-225.8368 503.7257,-196.5997 471.5,-179 444.5229,-164.2668 411.964,-153.0056 385.5806,-145.3136"/>
<polygon fill="#191970" stroke="#191970" points="386.3712,-141.8999 375.7957,-142.5405 384.4625,-148.6346 386.3712,-141.8999"/>
</g>
<!-- Node14&#45;&gt;Node10 -->
<g id="edge21" class="edge">
<title>Node14&#45;&gt;Node10</title>
<path fill="none" stroke="#191970" d="M528.5842,-240.9682C497.246,-231.7164 448.5999,-216.8974 398.0303,-199.0117"/>
<polygon fill="#191970" stroke="#191970" points="399.1639,-195.7001 388.5692,-195.637 396.8121,-202.2932 399.1639,-195.7001"/>
</g>
<!-- Node14&#45;&gt;Node11 -->
<g id="edge22" class="edge">
<title>Node14&#45;&gt;Node11</title>
<path fill="none" stroke="#191970" d="M541.6563,-240.8906C520.6864,-230.7359 487.4056,-214.6196 463.4964,-203.0416"/>
<polygon fill="#191970" stroke="#191970" points="464.7301,-199.7502 454.2044,-198.5419 461.6792,-206.0504 464.7301,-199.7502"/>
</g>
<!-- Node14&#45;&gt;Node13 -->
<g id="edge24" class="edge">
<title>Node14&#45;&gt;Node13</title>
<path fill="none" stroke="#191970" d="M574.9618,-240.8862C592.6642,-227.0354 619.9226,-200.7409 605.5,-179 596.6889,-165.7179 558.4989,-151.6334 529.7908,-142.6012"/>
<polygon fill="#191970" stroke="#191970" points="530.6823,-139.2138 520.0955,-139.6267 528.6291,-145.9059 530.6823,-139.2138"/>
</g>
<!-- Node15 -->
<g id="node16" class="node">
<title>Node15</title>
<g id="a_node16"><a xlink:href="Request_8hpp.html" target="_top" xlink:title="Request.hpp">
<polygon fill="#ffffff" stroke="#000000" points="519,-179.5 519,-198.5 596,-198.5 596,-179.5 519,-179.5"/>
<text text-anchor="middle" x="557.5" y="-186.5" font-family="Helvetica,sans-Serif" font-size="10.00" fill="#000000">Request.hpp</text>
</a>
</g>
</g>
<!-- Node14&#45;&gt;Node15 -->
<g id="edge25" class="edge">
<title>Node14&#45;&gt;Node15</title>
<path fill="none" stroke="#191970" d="M560.875,-240.8906C560.3205,-232.3657 559.4928,-219.6392 558.7958,-208.9235"/>
<polygon fill="#191970" stroke="#191970" points="562.2756,-208.4966 558.1338,-198.7449 555.2903,-208.951 562.2756,-208.4966"/>
</g>
<!-- Node14&#45;&gt;Node16 -->
<g id="edge29" class="edge">
<title>Node14&#45;&gt;Node16</title>
<path fill="none" stroke="#191970" d="M590.25,-240.8906C621.7117,-230.3749 672.3008,-213.466 707.1314,-201.8243"/>
<polygon fill="#191970" stroke="#191970" points="708.5772,-205.0315 716.9519,-198.5419 706.3581,-198.3925 708.5772,-205.0315"/>
</g>
<!-- Node15&#45;&gt;Node5 -->
<g id="edge27" class="edge">
<title>Node15&#45;&gt;Node5</title>
<path fill="none" stroke="#191970" d="M519.7599,-179.4369C482.2552,-169.9335 424.6201,-155.3291 384.0176,-145.0407"/>
<polygon fill="#191970" stroke="#191970" points="384.6379,-141.5873 374.0845,-142.5237 382.9184,-148.3728 384.6379,-141.5873"/>
</g>
<!-- Node15&#45;&gt;Node13 -->
<g id="edge26" class="edge">
<title>Node15&#45;&gt;Node13</title>
<path fill="none" stroke="#191970" d="M546.8746,-179.2455C537.9527,-171.0549 525.012,-159.1749 514.4808,-149.5069"/>
<polygon fill="#191970" stroke="#191970" points="516.7371,-146.8271 507.0036,-142.6427 512.0032,-151.9837 516.7371,-146.8271"/>
</g>
<!-- Node16&#45;&gt;Node4 -->
<g id="edge31" class="edge">
<title>Node16&#45;&gt;Node4</title>
<path fill="none" stroke="#191970" d="M708.4125,-179.4447C678.6679,-171.259 636.1491,-158.3735 600.5,-143 583.6929,-135.752 581.8513,-128.8261 564.5,-123 510.4567,-104.8536 347.8758,-130.0467 310.5,-87 301.467,-76.5965 301.1191,-66.0909 310.5,-56 331.0419,-33.9035 781.8962,-15.8016 907.9937,-11.1574"/>
<polygon fill="#191970" stroke="#191970" points="908.3073,-14.6483 918.173,-10.7858 908.0519,-7.653 908.3073,-14.6483"/>
</g>
<!-- Node16&#45;&gt;Node6 -->
<g id="edge30" class="edge">
<title>Node16&#45;&gt;Node6</title>
<path fill="none" stroke="#191970" d="M701.1175,-179.4647C665.775,-171.3329 615.3065,-158.5101 572.5,-143 552.6835,-135.8199 549.707,-128.9937 529.5,-123 420.612,-90.7022 386.7223,-114.4007 276.5,-87 273.3426,-86.2151 270.0935,-85.284 266.8632,-84.2737"/>
<polygon fill="#191970" stroke="#191970" points="267.933,-80.9409 257.3389,-81.0722 265.7026,-87.5761 267.933,-80.9409"/>
</g>
<!-- Node17 -->
<g id="node18" class="node">
<title>Node17</title>
<g id="a_node18"><a xlink:href="LogMacros_8hpp.html" target="_top" xlink:title="LogMacros.hpp">
<polygon fill="#ffffff" stroke="#000000" points="807,-123.5 807,-142.5 896,-142.5 896,-123.5 807,-123.5"/>
<text text-anchor="middle" x="851.5" y="-130.5" font-family="Helvetica,sans-Serif" font-size="10.00" fill="#000000">LogMacros.hpp</text>
</a>
</g>
</g>
<!-- Node16&#45;&gt;Node17 -->
<g id="edge32" class="edge">
<title>Node16&#45;&gt;Node17</title>
<path fill="none" stroke="#191970" d="M763.9638,-179.2455C780.6074,-170.4527 805.2993,-157.4079 824.2192,-147.4125"/>
<polygon fill="#191970" stroke="#191970" points="826.0408,-150.4086 833.2478,-142.6427 822.7709,-144.2193 826.0408,-150.4086"/>
</g>
<!-- Node17&#45;&gt;Node4 -->
<g id="edge39" class="edge">
<title>Node17&#45;&gt;Node4</title>
<path fill="none" stroke="#191970" d="M806.8541,-129.1767C708.8191,-120.5685 482.5328,-99.4489 471.5,-87 462.3618,-76.6888 462.2453,-66.2068 471.5,-56 500.7954,-23.6907 806.6691,-13.2906 908.0551,-10.7174"/>
<polygon fill="#191970" stroke="#191970" points="908.3887,-14.2104 918.3001,-10.4666 908.2174,-7.2125 908.3887,-14.2104"/>
</g>
<!-- Node18 -->
<g id="node19" class="node">
<title>Node18</title>
<polygon fill="#ffffff" stroke="#bfbfbf" points="796.5,-56.5 796.5,-86.5 906.5,-86.5 906.5,-56.5 796.5,-56.5"/>
<text text-anchor="start" x="804.5" y="-74.5" font-family="Helvetica,sans-Serif" font-size="10.00" fill="#000000">boost/preprocessor</text>
<text text-anchor="middle" x="851.5" y="-63.5" font-family="Helvetica,sans-Serif" font-size="10.00" fill="#000000">/control/if.hpp</text>
</g>
<!-- Node17&#45;&gt;Node18 -->
<g id="edge33" class="edge">
<title>Node17&#45;&gt;Node18</title>
<path fill="none" stroke="#191970" d="M851.5,-123.3906C851.5,-116.2234 851.5,-106.0862 851.5,-96.671"/>
<polygon fill="#191970" stroke="#191970" points="855.0001,-96.5446 851.5,-86.5446 848.0001,-96.5446 855.0001,-96.5446"/>
</g>
<!-- Node19 -->
<g id="node20" class="node">
<title>Node19</title>
<polygon fill="#ffffff" stroke="#bfbfbf" points="924.5,-56.5 924.5,-86.5 1040.5,-86.5 1040.5,-56.5 924.5,-56.5"/>
<text text-anchor="start" x="932.5" y="-74.5" font-family="Helvetica,sans-Serif" font-size="10.00" fill="#000000">boost/preprocessor</text>
<text text-anchor="middle" x="982.5" y="-63.5" font-family="Helvetica,sans-Serif" font-size="10.00" fill="#000000">/facilities/empty.hpp</text>
</g>
<!-- Node17&#45;&gt;Node19 -->
<g id="edge34" class="edge">
<title>Node17&#45;&gt;Node19</title>
<path fill="none" stroke="#191970" d="M871.9688,-123.3906C890.4367,-114.7205 918.1618,-101.7046 941.2236,-90.8779"/>
<polygon fill="#191970" stroke="#191970" points="942.8891,-93.9625 950.4538,-86.5446 939.9143,-87.6261 942.8891,-93.9625"/>
</g>
<!-- Node20 -->
<g id="node21" class="node">
<title>Node20</title>
<polygon fill="#ffffff" stroke="#bfbfbf" points="1059,-56.5 1059,-86.5 1170,-86.5 1170,-56.5 1059,-56.5"/>
<text text-anchor="start" x="1067" y="-74.5" font-family="Helvetica,sans-Serif" font-size="10.00" fill="#000000">boost/preprocessor</text>
<text text-anchor="middle" x="1114.5" y="-63.5" font-family="Helvetica,sans-Serif" font-size="10.00" fill="#000000">/seq/for_each_i.hpp</text>
</g>
<!-- Node17&#45;&gt;Node20 -->
<g id="edge35" class="edge">
<title>Node17&#45;&gt;Node20</title>
<path fill="none" stroke="#191970" d="M892.852,-123.4667C930.8068,-114.7 988.8692,-101.2478 1048.8107,-87.1551"/>
<polygon fill="#191970" stroke="#191970" points="1049.9033,-90.4937 1058.8358,-84.7962 1048.3,-83.6798 1049.9033,-90.4937"/>
</g>
<!-- Node21 -->
<g id="node22" class="node">
<title>Node21</title>
<polygon fill="#ffffff" stroke="#bfbfbf" points="1188.5,-56.5 1188.5,-86.5 1298.5,-86.5 1298.5,-56.5 1188.5,-56.5"/>
<text text-anchor="start" x="1196.5" y="-74.5" font-family="Helvetica,sans-Serif" font-size="10.00" fill="#000000">boost/preprocessor</text>
<text text-anchor="middle" x="1243.5" y="-63.5" font-family="Helvetica,sans-Serif" font-size="10.00" fill="#000000">/stringize.hpp</text>
</g>
<!-- Node17&#45;&gt;Node21 -->
<g id="edge36" class="edge">
<title>Node17&#45;&gt;Node21</title>
<path fill="none" stroke="#191970" d="M896.0263,-128.1623C957.407,-121.1843 1071.6347,-107.0907 1178.4376,-87.0942"/>
<polygon fill="#191970" stroke="#191970" points="1179.2428,-90.5041 1188.4168,-85.2042 1177.9401,-83.6263 1179.2428,-90.5041"/>
</g>
<!-- Node22 -->
<g id="node23" class="node">
<title>Node22</title>
<polygon fill="#ffffff" stroke="#bfbfbf" points="1317,-56.5 1317,-86.5 1432,-86.5 1432,-56.5 1317,-56.5"/>
<text text-anchor="start" x="1325" y="-74.5" font-family="Helvetica,sans-Serif" font-size="10.00" fill="#000000">boost/preprocessor</text>
<text text-anchor="middle" x="1374.5" y="-63.5" font-family="Helvetica,sans-Serif" font-size="10.00" fill="#000000">/variadic/to_seq.hpp</text>
</g>
<!-- Node17&#45;&gt;Node22 -->
<g id="edge37" class="edge">
<title>Node17&#45;&gt;Node22</title>
<path fill="none" stroke="#191970" d="M896.087,-130.386C976.236,-125.2787 1150.0792,-112.3429 1306.5678,-87.0124"/>
<polygon fill="#191970" stroke="#191970" points="1307.5476,-90.3986 1316.8491,-85.326 1306.4144,-83.4909 1307.5476,-90.3986"/>
</g>
<!-- Node23 -->
<g id="node24" class="node">
<title>Node23</title>
<polygon fill="#ffffff" stroke="#bfbfbf" points="480.5,-62 480.5,-81 616.5,-81 616.5,-62 480.5,-62"/>
<text text-anchor="middle" x="548.5" y="-69" font-family="Helvetica,sans-Serif" font-size="10.00" fill="#000000">boost/vmd/is_empty.hpp</text>
</g>
<!-- Node17&#45;&gt;Node23 -->
<g id="edge38" class="edge">
<title>Node17&#45;&gt;Node23</title>
<path fill="none" stroke="#191970" d="M806.7913,-123.9255C753.3701,-113.0825 663.9051,-94.9238 605.5475,-83.0789"/>
<polygon fill="#191970" stroke="#191970" points="605.8833,-79.5758 595.3869,-81.0166 604.4908,-86.4359 605.8833,-79.5758"/>
</g>
<!-- Node24 -->
<g id="node25" class="node">
<title>Node24</title>
<g id="a_node25"><a xlink:href="Tracer_8hpp.html" target="_top" xlink:title="logging/Tracer.hpp">
<polygon fill="#ffffff" stroke="#000000" points="319,-62 319,-81 424,-81 424,-62 319,-62"/>
<text text-anchor="middle" x="371.5" y="-69" font-family="Helvetica,sans-Serif" font-size="10.00" fill="#000000">logging/Tracer.hpp</text>
</a>
</g>
</g>
<!-- Node17&#45;&gt;Node24 -->
<g id="edge40" class="edge">
<title>Node17&#45;&gt;Node24</title>
<path fill="none" stroke="#191970" d="M806.9631,-128.7023C715.3577,-119.7539 508.5486,-98.9618 438.5,-87 432.2441,-85.9317 425.6975,-84.6388 419.2506,-83.2606"/>
<polygon fill="#191970" stroke="#191970" points="419.7786,-79.7927 409.258,-81.0446 418.2631,-86.6267 419.7786,-79.7927"/>
</g>
<!-- Node25 -->
<g id="node26" class="node">
<title>Node25</title>
<polygon fill="#ffffff" stroke="#bfbfbf" points="634.5,-62 634.5,-81 778.5,-81 778.5,-62 634.5,-62"/>
<text text-anchor="middle" x="706.5" y="-69" font-family="Helvetica,sans-Serif" font-size="10.00" fill="#000000">prettyprint/prettyprint.hpp</text>
</g>
<!-- Node17&#45;&gt;Node25 -->
<g id="edge42" class="edge">
<title>Node17&#45;&gt;Node25</title>
<path fill="none" stroke="#191970" d="M828.8438,-123.3906C804.5826,-113.1005 765.8882,-96.6888 738.52,-85.0809"/>
<polygon fill="#191970" stroke="#191970" points="739.57,-81.7245 728.9972,-81.0419 736.8367,-88.1688 739.57,-81.7245"/>
</g>
<!-- Node26 -->
<g id="node27" class="node">
<title>Node26</title>
<g id="a_node27"><a xlink:href="String_8hpp.html" target="_top" xlink:title="utils/String.hpp">
<polygon fill="#ffffff" stroke="#000000" points="1450.5,-62 1450.5,-81 1540.5,-81 1540.5,-62 1450.5,-62"/>
<text text-anchor="middle" x="1495.5" y="-69" font-family="Helvetica,sans-Serif" font-size="10.00" fill="#000000">utils/String.hpp</text>
</a>
</g>
</g>
<!-- Node17&#45;&gt;Node26 -->
<g id="edge43" class="edge">
<title>Node17&#45;&gt;Node26</title>
<path fill="none" stroke="#191970" d="M896.1396,-130.6894C1014.9086,-124.3547 1336.729,-105.9207 1441.5,-87 1446.3441,-86.1252 1451.377,-84.9929 1456.336,-83.7386"/>
<polygon fill="#191970" stroke="#191970" points="1457.5877,-87.0259 1466.327,-81.0362 1455.76,-80.2687 1457.5877,-87.0259"/>
</g>
<!-- Node24&#45;&gt;Node16 -->
<g id="edge41" class="edge">
<title>Node24&#45;&gt;Node16</title>
<path fill="none" stroke="#191970" d="M424.1803,-80.1574C471.1459,-88.6238 541.4001,-103.1405 600.5,-123 643.135,-137.3268 690.1133,-160.0837 718.7133,-174.7798"/>
<polygon fill="#191970" stroke="#191970" points="717.187,-177.9309 727.6751,-179.4308 720.4115,-171.7178 717.187,-177.9309"/>
</g>
<!-- Node26&#45;&gt;Node4 -->
<g id="edge45" class="edge">
<title>Node26&#45;&gt;Node4</title>
<path fill="none" stroke="#191970" d="M1466.0314,-61.9582C1458.1343,-59.6998 1449.5524,-57.5114 1441.5,-56 1266.8623,-23.2205 1053.4084,-13.4899 973.1088,-10.8758"/>
<polygon fill="#191970" stroke="#191970" points="972.7834,-7.3641 962.6798,-10.5525 972.5665,-14.3608 972.7834,-7.3641"/>
</g>
<!-- Node27 -->
<g id="node28" class="node">
<title>Node27</title>
<polygon fill="#ffffff" stroke="#bfbfbf" points="1467.5,-.5 1467.5,-19.5 1523.5,-19.5 1523.5,-.5 1467.5,-.5"/>
<text text-anchor="middle" x="1495.5" y="-7.5" font-family="Helvetica,sans-Serif" font-size="10.00" fill="#000000">sstream</text>
</g>
<!-- Node26&#45;&gt;Node27 -->
<g id="edge44" class="edge">
<title>Node26&#45;&gt;Node27</title>
<path fill="none" stroke="#191970" d="M1495.5,-61.8906C1495.5,-53.3657 1495.5,-40.6392 1495.5,-29.9235"/>
<polygon fill="#191970" stroke="#191970" points="1499.0001,-29.7448 1495.5,-19.7449 1492.0001,-29.7449 1499.0001,-29.7448"/>
</g>
</g>
</svg>
        <g id="navigator" transform="translate(0 0)" fill="#404254">
                <rect fill="#f2f5e9" fill-opacity="0.5" stroke="#606060" stroke-width=".5" x="0" y="0" width="60" height="60"/>
                <use id="zoomplus" xlink:href="#zoomPlus" x="17" y="9" onmousedown="handleZoom(evt,'in')"/>
                <use id="zoomminus" xlink:href="#zoomMin" x="42" y="9" onmousedown="handleZoom(evt,'out')"/>
                <use id="reset" xlink:href="#resetDef" x="30" y="36" onmousedown="handleReset()"/>
                <g id="arrowUp" xlink:href="#dirArrow" transform="translate(30 24)" onmousedown="handlePan(0,-1)">
                  <use xlink:href="#rim" fill="#404040">
                        <set attributeName="fill" to="#808080" begin="arrowUp.mouseover" end="arrowUp.mouseout"/>
                  </use>
                  <path fill="none" stroke="white" stroke-width="1.5" d="M0,-3.0v7 M-2.5,-0.5L0,-3.0L2.5,-0.5"/>
                </g>
                <g id="arrowRight" xlink:href="#dirArrow" transform="rotate(90) translate(36 -43)" onmousedown="handlePan(1,0)">
                  <use xlink:href="#rim" fill="#404040">
                        <set attributeName="fill" to="#808080" begin="arrowRight.mouseover" end="arrowRight.mouseout"/>
                  </use>
                  <path fill="none" stroke="white" stroke-width="1.5" d="M0,-3.0v7 M-2.5,-0.5L0,-3.0L2.5,-0.5"/>
                </g>
                <g id="arrowDown" xlink:href="#dirArrow" transform="rotate(180) translate(-30 -48)" onmousedown="handlePan(0,1)">
                  <use xlink:href="#rim" fill="#404040">
                        <set attributeName="fill" to="#808080" begin="arrowDown.mouseover" end="arrowDown.mouseout"/>
                  </use>
                  <path fill="none" stroke="white" stroke-width="1.5" d="M0,-3.0v7 M-2.5,-0.5L0,-3.0L2.5,-0.5"/>
                </g>
                <g id="arrowLeft" xlink:href="#dirArrow" transform="rotate(270) translate(-36 17)" onmousedown="handlePan(-1,0)">
                  <use xlink:href="#rim" fill="#404040">
                        <set attributeName="fill" to="#808080" begin="arrowLeft.mouseover" end="arrowLeft.mouseout"/>
                  </use>
                  <path fill="none" stroke="white" stroke-width="1.5" d="M0,-3.0v7 M-2.5,-0.5L0,-3.0L2.5,-0.5"/>
                </g>
        </g>
        <svg viewBox="0 0 15 15" width="100%" height="30px" preserveAspectRatio="xMaxYMin meet">
         <g id="arrow_out" transform="scale(0.3 0.3)">
          <a xlink:href="MPISinglePortsCommunicationFactory_8cpp__incl_org.svg" target="_base">
           <rect id="button" ry="5" rx="5" y="6" x="6" height="38" width="38"
                fill="#f2f5e9" fill-opacity="0.5" stroke="#606060" stroke-width="1.0"/>
           <path id="arrow"
             d="M 11.500037,31.436501 C 11.940474,20.09759 22.043105,11.32322 32.158766,21.979434 L 37.068811,17.246167 C 37.068811,17.246167 37.088388,32 37.088388,32 L 22.160133,31.978069 C 22.160133,31.978069 26.997745,27.140456 26.997745,27.140456 C 18.528582,18.264221 13.291696,25.230495 11.500037,31.436501 z"
             style="fill:#404040;"/>
          </a>
         </g>
        </svg>
</svg>
