<?xml version="1.0" encoding="UTF-8" standalone="no"?>
<!DOCTYPE svg PUBLIC "-//W3C//DTD SVG 1.1//EN"
 "http://www.w3.org/Graphics/SVG/1.1/DTD/svg11.dtd">
<!-- Generated by graphviz version 2.40.1 (20161225.0304)
 -->
<!-- Title: src/utils/MultiLock.hpp Pages: 1 -->
<svg width="612pt" height="162pt"
 viewBox="0.00 0.00 612.00 162.00" xmlns="http://www.w3.org/2000/svg" xmlns:xlink="http://www.w3.org/1999/xlink">
<g id="graph0" class="graph" transform="scale(1 1) rotate(0) translate(4 158)">
<title>src/utils/MultiLock.hpp</title>
<polygon fill="#ffffff" stroke="transparent" points="-4,4 -4,-158 608,-158 608,4 -4,4"/>
<!-- Node4 -->
<g id="node1" class="node">
<title>Node4</title>
<polygon fill="#bfbfbf" stroke="#000000" points="348,-134.5 348,-153.5 463,-153.5 463,-134.5 348,-134.5"/>
<text text-anchor="middle" x="405.5" y="-141.5" font-family="Helvetica,sans-Serif" font-size="10.00" fill="#000000">src/utils/MultiLock.hpp</text>
</g>
<!-- Node5 -->
<g id="node2" class="node">
<title>Node5</title>
<g id="a_node2"><a xlink:href="SolverInterfaceImpl_8hpp.html" target="_top" xlink:title="src/precice/impl/SolverInterface\lImpl.hpp">
<polygon fill="#ffffff" stroke="#000000" points="250,-67.5 250,-97.5 405,-97.5 405,-67.5 250,-67.5"/>
<text text-anchor="start" x="258" y="-85.5" font-family="Helvetica,sans-Serif" font-size="10.00" fill="#000000">src/precice/impl/SolverInterface</text>
<text text-anchor="middle" x="327.5" y="-74.5" font-family="Helvetica,sans-Serif" font-size="10.00" fill="#000000">Impl.hpp</text>
</a>
</g>
</g>
<!-- Node4&#45;&gt;Node5 -->
<g id="edge1" class="edge">
<title>Node4&#45;&gt;Node5</title>
<path fill="none" stroke="#191970" d="M385.2561,-128.0385C373.3203,-118.6276 358.3083,-106.7911 346.5809,-97.5446"/>
<polygon fill="#191970" stroke="#191970" points="383.2927,-130.9475 393.3125,-134.3906 387.6268,-125.4506 383.2927,-130.9475"/>
</g>
<!-- Node10 -->
<g id="node7" class="node">
<title>Node10</title>
<g id="a_node7"><a xlink:href="MultiLockTest_8cpp.html" target="_top" xlink:title="src/utils/tests/MultiLock\lTest.cpp">
<polygon fill="#ffffff" stroke="#000000" points="423,-67.5 423,-97.5 544,-97.5 544,-67.5 423,-67.5"/>
<text text-anchor="start" x="431" y="-85.5" font-family="Helvetica,sans-Serif" font-size="10.00" fill="#000000">src/utils/tests/MultiLock</text>
<text text-anchor="middle" x="483.5" y="-74.5" font-family="Helvetica,sans-Serif" font-size="10.00" fill="#000000">Test.cpp</text>
</a>
</g>
</g>
<!-- Node4&#45;&gt;Node10 -->
<g id="edge6" class="edge">
<title>Node4&#45;&gt;Node10</title>
<path fill="none" stroke="#191970" d="M425.7439,-128.0385C437.6797,-118.6276 452.6917,-106.7911 464.4191,-97.5446"/>
<polygon fill="#191970" stroke="#191970" points="423.3732,-125.4506 417.6875,-134.3906 427.7073,-130.9475 423.3732,-125.4506"/>
</g>
<!-- Node6 -->
<g id="node3" class="node">
<title>Node6</title>
<g id="a_node3"><a xlink:href="SolverInterfaceImpl_8cpp.html" target="_top" xlink:title="src/precice/impl/SolverInterface\lImpl.cpp">
<polygon fill="#ffffff" stroke="#000000" points="0,-.5 0,-30.5 155,-30.5 155,-.5 0,-.5"/>
<text text-anchor="start" x="8" y="-18.5" font-family="Helvetica,sans-Serif" font-size="10.00" fill="#000000">src/precice/impl/SolverInterface</text>
<text text-anchor="middle" x="77.5" y="-7.5" font-family="Helvetica,sans-Serif" font-size="10.00" fill="#000000">Impl.cpp</text>
</a>
</g>
</g>
<!-- Node5&#45;&gt;Node6 -->
<g id="edge2" class="edge">
<title>Node5&#45;&gt;Node6</title>
<path fill="none" stroke="#191970" d="M261.5289,-64.8198C221.7926,-54.1704 171.7259,-40.7525 133.8496,-30.6017"/>
<polygon fill="#191970" stroke="#191970" points="260.8299,-68.2559 271.3951,-67.4639 262.642,-61.4945 260.8299,-68.2559"/>
</g>
<!-- Node7 -->
<g id="node4" class="node">
<title>Node7</title>
<g id="a_node4"><a xlink:href="SolverInterface_8cpp.html" target="_top" xlink:title="src/precice/SolverInterface.cpp">
<polygon fill="#ffffff" stroke="#000000" points="173.5,-6 173.5,-25 325.5,-25 325.5,-6 173.5,-6"/>
<text text-anchor="middle" x="249.5" y="-13" font-family="Helvetica,sans-Serif" font-size="10.00" fill="#000000">src/precice/SolverInterface.cpp</text>
</a>
</g>
</g>
<!-- Node5&#45;&gt;Node7 -->
<g id="edge3" class="edge">
<title>Node5&#45;&gt;Node7</title>
<path fill="none" stroke="#191970" d="M301.9353,-60.5406C287.9523,-48.5296 271.3443,-34.2637 260.6237,-25.055"/>
<polygon fill="#191970" stroke="#191970" points="299.9343,-63.4357 309.8006,-67.2967 304.4955,-58.1257 299.9343,-63.4357"/>
</g>
<!-- Node8 -->
<g id="node5" class="node">
<title>Node8</title>
<g id="a_node5"><a xlink:href="ParallelTests_8cpp.html" target="_top" xlink:title="src/precice/tests/Parallel\lTests.cpp">
<polygon fill="#ffffff" stroke="#000000" points="344,-.5 344,-30.5 469,-30.5 469,-.5 344,-.5"/>
<text text-anchor="start" x="352" y="-18.5" font-family="Helvetica,sans-Serif" font-size="10.00" fill="#000000">src/precice/tests/Parallel</text>
<text text-anchor="middle" x="406.5" y="-7.5" font-family="Helvetica,sans-Serif" font-size="10.00" fill="#000000">Tests.cpp</text>
</a>
</g>
</g>
<!-- Node5&#45;&gt;Node8 -->
<g id="edge4" class="edge">
<title>Node5&#45;&gt;Node8</title>
<path fill="none" stroke="#191970" d="M353.1092,-60.7808C364.7146,-50.9383 378.1532,-39.541 388.6446,-30.6432"/>
<polygon fill="#191970" stroke="#191970" points="350.789,-58.1593 345.4263,-67.2967 355.3167,-63.4978 350.789,-58.1593"/>
</g>
<!-- Node9 -->
<g id="node6" class="node">
<title>Node9</title>
<g id="a_node6"><a xlink:href="SerialTests_8cpp.html" target="_top" xlink:title="src/precice/tests/Serial\lTests.cpp">
<polygon fill="#ffffff" stroke="#000000" points="487,-.5 487,-30.5 604,-30.5 604,-.5 487,-.5"/>
<text text-anchor="start" x="495" y="-18.5" font-family="Helvetica,sans-Serif" font-size="10.00" fill="#000000">src/precice/tests/Serial</text>
<text text-anchor="middle" x="545.5" y="-7.5" font-family="Helvetica,sans-Serif" font-size="10.00" fill="#000000">Tests.cpp</text>
</a>
</g>
</g>
<!-- Node5&#45;&gt;Node9 -->
<g id="edge5" class="edge">
<title>Node5&#45;&gt;Node9</title>
<path fill="none" stroke="#191970" d="M386.3525,-64.4123C420.7851,-53.8298 463.7549,-40.6235 496.3632,-30.6017"/>
<polygon fill="#191970" stroke="#191970" points="384.954,-61.1805 376.4235,-67.4639 387.0104,-67.8716 384.954,-61.1805"/>
</g>
</g>
</svg>
