<?xml version="1.0" encoding="UTF-8" standalone="no"?>
<!DOCTYPE svg PUBLIC "-//W3C//DTD SVG 1.1//EN"
 "http://www.w3.org/Graphics/SVG/1.1/DTD/svg11.dtd">
<!-- Generated by graphviz version 2.40.1 (20161225.0304)
 -->
<!-- Title: src/cplscheme/MultiCouplingScheme.hpp Pages: 1 -->
<svg width="1232pt" height="184pt"
 viewBox="0.00 0.00 1231.50 184.00" xmlns="http://www.w3.org/2000/svg" xmlns:xlink="http://www.w3.org/1999/xlink">
<g id="graph0" class="graph" transform="scale(1 1) rotate(0) translate(4 180)">
<title>src/cplscheme/MultiCouplingScheme.hpp</title>
<polygon fill="#ffffff" stroke="transparent" points="-4,4 -4,-180 1227.5,-180 1227.5,4 -4,4"/>
<!-- Node67 -->
<g id="node1" class="node">
<title>Node67</title>
<polygon fill="#bfbfbf" stroke="#000000" points="461.5,-145.5 461.5,-175.5 604.5,-175.5 604.5,-145.5 461.5,-145.5"/>
<text text-anchor="start" x="469.5" y="-163.5" font-family="Helvetica,sans-Serif" font-size="10.00" fill="#000000">src/cplscheme/MultiCoupling</text>
<text text-anchor="middle" x="533" y="-152.5" font-family="Helvetica,sans-Serif" font-size="10.00" fill="#000000">Scheme.hpp</text>
</g>
<!-- Node68 -->
<g id="node2" class="node">
<title>Node68</title>
<g id="a_node2"><a xlink:href="CouplingSchemeConfiguration_8hpp.html" target="_top" xlink:title="src/cplscheme/config\l/CouplingSchemeConfiguration.hpp">
<polygon fill="#ffffff" stroke="#000000" points="448,-78.5 448,-108.5 618,-108.5 618,-78.5 448,-78.5"/>
<text text-anchor="start" x="456" y="-96.5" font-family="Helvetica,sans-Serif" font-size="10.00" fill="#000000">src/cplscheme/config</text>
<text text-anchor="middle" x="533" y="-85.5" font-family="Helvetica,sans-Serif" font-size="10.00" fill="#000000">/CouplingSchemeConfiguration.hpp</text>
</a>
</g>
</g>
<!-- Node67&#45;&gt;Node68 -->
<g id="edge1" class="edge">
<title>Node67&#45;&gt;Node68</title>
<path fill="none" stroke="#191970" d="M533,-135.0249C533,-126.128 533,-116.4287 533,-108.6432"/>
<polygon fill="#191970" stroke="#191970" points="529.5001,-135.2966 533,-145.2967 536.5001,-135.2967 529.5001,-135.2966"/>
</g>
<!-- Node69 -->
<g id="node3" class="node">
<title>Node69</title>
<g id="a_node3"><a xlink:href="CouplingSchemeConfiguration_8cpp.html" target="_top" xlink:title="src/cplscheme/config\l/CouplingSchemeConfiguration.cpp">
<polygon fill="#ffffff" stroke="#000000" points="0,-6 0,-36 170,-36 170,-6 0,-6"/>
<text text-anchor="start" x="8" y="-24" font-family="Helvetica,sans-Serif" font-size="10.00" fill="#000000">src/cplscheme/config</text>
<text text-anchor="middle" x="85" y="-13" font-family="Helvetica,sans-Serif" font-size="10.00" fill="#000000">/CouplingSchemeConfiguration.cpp</text>
</a>
</g>
</g>
<!-- Node67&#45;&gt;Node69 -->
<g id="edge9" class="edge">
<title>Node67&#45;&gt;Node69</title>
<path fill="none" stroke="#191970" d="M474.9439,-142.4223C385.7368,-114.6446 216.581,-61.9722 133.5066,-36.1042"/>
<polygon fill="#191970" stroke="#191970" points="474.0421,-145.8071 484.6305,-145.4385 476.1233,-139.1237 474.0421,-145.8071"/>
</g>
<!-- Node76 -->
<g id="node10" class="node">
<title>Node76</title>
<g id="a_node10"><a xlink:href="MultiCouplingScheme_8cpp.html" target="_top" xlink:title="src/cplscheme/MultiCoupling\lScheme.cpp">
<polygon fill="#ffffff" stroke="#000000" points="636.5,-78.5 636.5,-108.5 779.5,-108.5 779.5,-78.5 636.5,-78.5"/>
<text text-anchor="start" x="644.5" y="-96.5" font-family="Helvetica,sans-Serif" font-size="10.00" fill="#000000">src/cplscheme/MultiCoupling</text>
<text text-anchor="middle" x="708" y="-85.5" font-family="Helvetica,sans-Serif" font-size="10.00" fill="#000000">Scheme.cpp</text>
</a>
</g>
</g>
<!-- Node67&#45;&gt;Node76 -->
<g id="edge10" class="edge">
<title>Node67&#45;&gt;Node76</title>
<path fill="none" stroke="#191970" d="M581.6735,-141.865C609.0667,-131.3773 642.8283,-118.4515 668.5553,-108.6017"/>
<polygon fill="#191970" stroke="#191970" points="580.3609,-138.6197 572.2734,-145.4639 582.8638,-145.157 580.3609,-138.6197"/>
</g>
<!-- Node68&#45;&gt;Node69 -->
<g id="edge2" class="edge">
<title>Node68&#45;&gt;Node69</title>
<path fill="none" stroke="#191970" d="M437.6193,-81.605C366.1861,-72.2167 266.177,-58.0556 179,-42 169.3796,-40.2282 159.2474,-38.1695 149.3397,-36.0477"/>
<polygon fill="#191970" stroke="#191970" points="437.5769,-85.1292 447.9463,-82.9552 438.4845,-78.1882 437.5769,-85.1292"/>
</g>
<!-- Node70 -->
<g id="node4" class="node">
<title>Node70</title>
<g id="a_node4"><a xlink:href="CompositionalCouplingSchemeTest_8cpp.html" target="_top" xlink:title="src/cplscheme/tests\l/CompositionalCouplingScheme\lTest.cpp">
<polygon fill="#ffffff" stroke="#000000" points="188,-.5 188,-41.5 344,-41.5 344,-.5 188,-.5"/>
<text text-anchor="start" x="196" y="-29.5" font-family="Helvetica,sans-Serif" font-size="10.00" fill="#000000">src/cplscheme/tests</text>
<text text-anchor="start" x="196" y="-18.5" font-family="Helvetica,sans-Serif" font-size="10.00" fill="#000000">/CompositionalCouplingScheme</text>
<text text-anchor="middle" x="266" y="-7.5" font-family="Helvetica,sans-Serif" font-size="10.00" fill="#000000">Test.cpp</text>
</a>
</g>
</g>
<!-- Node68&#45;&gt;Node70 -->
<g id="edge3" class="edge">
<title>Node68&#45;&gt;Node70</title>
<path fill="none" stroke="#191970" d="M467.7093,-75.7712C429.5693,-65.4149 381.2734,-52.3008 341.5021,-41.5015"/>
<polygon fill="#191970" stroke="#191970" points="467.1097,-79.2351 477.6774,-78.478 468.9441,-72.4797 467.1097,-79.2351"/>
</g>
<!-- Node71 -->
<g id="node5" class="node">
<title>Node71</title>
<g id="a_node5"><a xlink:href="ExplicitCouplingSchemeTest_8cpp.html" target="_top" xlink:title="src/cplscheme/tests\l/ExplicitCouplingSchemeTest.cpp">
<polygon fill="#ffffff" stroke="#000000" points="362,-6 362,-36 526,-36 526,-6 362,-6"/>
<text text-anchor="start" x="370" y="-24" font-family="Helvetica,sans-Serif" font-size="10.00" fill="#000000">src/cplscheme/tests</text>
<text text-anchor="middle" x="444" y="-13" font-family="Helvetica,sans-Serif" font-size="10.00" fill="#000000">/ExplicitCouplingSchemeTest.cpp</text>
</a>
</g>
</g>
<!-- Node68&#45;&gt;Node71 -->
<g id="edge4" class="edge">
<title>Node68&#45;&gt;Node71</title>
<path fill="none" stroke="#191970" d="M506.5864,-71.9833C492.3677,-60.4007 475.1804,-46.3998 462.4172,-36.0028"/>
<polygon fill="#191970" stroke="#191970" points="504.5955,-74.8758 514.5591,-78.478 509.0165,-69.4486 504.5955,-74.8758"/>
</g>
<!-- Node72 -->
<g id="node6" class="node">
<title>Node72</title>
<g id="a_node6"><a xlink:href="ParallelImplicitCouplingSchemeTest_8cpp.html" target="_top" xlink:title="src/cplscheme/tests\l/ParallelImplicitCouplingScheme\lTest.cpp">
<polygon fill="#ffffff" stroke="#000000" points="544,-.5 544,-41.5 702,-41.5 702,-.5 544,-.5"/>
<text text-anchor="start" x="552" y="-29.5" font-family="Helvetica,sans-Serif" font-size="10.00" fill="#000000">src/cplscheme/tests</text>
<text text-anchor="start" x="552" y="-18.5" font-family="Helvetica,sans-Serif" font-size="10.00" fill="#000000">/ParallelImplicitCouplingScheme</text>
<text text-anchor="middle" x="623" y="-7.5" font-family="Helvetica,sans-Serif" font-size="10.00" fill="#000000">Test.cpp</text>
</a>
</g>
</g>
<!-- Node68&#45;&gt;Node72 -->
<g id="edge5" class="edge">
<title>Node68&#45;&gt;Node72</title>
<path fill="none" stroke="#191970" d="M559.5654,-72.1001C571.5672,-62.432 585.6841,-51.06 597.5499,-41.5015"/>
<polygon fill="#191970" stroke="#191970" points="557.24,-69.479 551.6481,-78.478 561.6313,-74.9303 557.24,-69.479"/>
</g>
<!-- Node73 -->
<g id="node7" class="node">
<title>Node73</title>
<g id="a_node7"><a xlink:href="SerialImplicitCouplingSchemeTest_8cpp.html" target="_top" xlink:title="src/cplscheme/tests\l/SerialImplicitCouplingScheme\lTest.cpp">
<polygon fill="#ffffff" stroke="#000000" points="720,-.5 720,-41.5 870,-41.5 870,-.5 720,-.5"/>
<text text-anchor="start" x="728" y="-29.5" font-family="Helvetica,sans-Serif" font-size="10.00" fill="#000000">src/cplscheme/tests</text>
<text text-anchor="start" x="728" y="-18.5" font-family="Helvetica,sans-Serif" font-size="10.00" fill="#000000">/SerialImplicitCouplingScheme</text>
<text text-anchor="middle" x="795" y="-7.5" font-family="Helvetica,sans-Serif" font-size="10.00" fill="#000000">Test.cpp</text>
</a>
</g>
</g>
<!-- Node68&#45;&gt;Node73 -->
<g id="edge6" class="edge">
<title>Node68&#45;&gt;Node73</title>
<path fill="none" stroke="#191970" d="M597.068,-75.7712C634.4938,-65.4149 681.8853,-52.3008 720.9118,-41.5015"/>
<polygon fill="#191970" stroke="#191970" points="595.9909,-72.4377 587.2866,-78.478 597.8578,-79.1842 595.9909,-72.4377"/>
</g>
<!-- Node74 -->
<g id="node8" class="node">
<title>Node74</title>
<g id="a_node8"><a xlink:href="SolverInterfaceConfiguration_8cpp.html" target="_top" xlink:title="src/precice/config\l/SolverInterfaceConfiguration.cpp">
<polygon fill="#ffffff" stroke="#000000" points="888,-6 888,-36 1050,-36 1050,-6 888,-6"/>
<text text-anchor="start" x="896" y="-24" font-family="Helvetica,sans-Serif" font-size="10.00" fill="#000000">src/precice/config</text>
<text text-anchor="middle" x="969" y="-13" font-family="Helvetica,sans-Serif" font-size="10.00" fill="#000000">/SolverInterfaceConfiguration.cpp</text>
</a>
</g>
</g>
<!-- Node68&#45;&gt;Node74 -->
<g id="edge7" class="edge">
<title>Node68&#45;&gt;Node74</title>
<path fill="none" stroke="#191970" d="M628.2633,-77.9887C741.0958,-61.0148 771.3801,-62.2339 879,-42 888.3034,-40.2508 898.0989,-38.1925 907.6656,-36.0604"/>
<polygon fill="#191970" stroke="#191970" points="627.544,-74.5577 618.1833,-79.5202 628.5956,-81.4783 627.544,-74.5577"/>
</g>
<!-- Node75 -->
<g id="node9" class="node">
<title>Node75</title>
<g id="a_node9"><a xlink:href="SolverInterfaceImpl_8cpp.html" target="_top" xlink:title="src/precice/impl/SolverInterface\lImpl.cpp">
<polygon fill="#ffffff" stroke="#000000" points="1068.5,-6 1068.5,-36 1223.5,-36 1223.5,-6 1068.5,-6"/>
<text text-anchor="start" x="1076.5" y="-24" font-family="Helvetica,sans-Serif" font-size="10.00" fill="#000000">src/precice/impl/SolverInterface</text>
<text text-anchor="middle" x="1146" y="-13" font-family="Helvetica,sans-Serif" font-size="10.00" fill="#000000">Impl.cpp</text>
</a>
</g>
</g>
<!-- Node68&#45;&gt;Node75 -->
<g id="edge8" class="edge">
<title>Node68&#45;&gt;Node75</title>
<path fill="none" stroke="#191970" d="M628.3057,-78.043C820.5466,-55.1109 872.4784,-72.1182 1059,-42 1068.8171,-40.4148 1079.1632,-38.3097 1089.1602,-36.0437"/>
<polygon fill="#191970" stroke="#191970" points="627.6548,-74.5963 618.1495,-79.2759 628.4984,-81.5453 627.6548,-74.5963"/>
</g>
</g>
</svg>
