<?xml version="1.0" encoding="UTF-8" standalone="no"?>
<!DOCTYPE svg PUBLIC "-//W3C//DTD SVG 1.1//EN"
 "http://www.w3.org/Graphics/SVG/1.1/DTD/svg11.dtd">
<!-- Generated by graphviz version 2.40.1 (20161225.0304)
 -->
<!-- Title: src/acceleration/MVQNAcceleration.cpp Pages: 1 -->
<svg width="3266pt" height="621pt"
 viewBox="0.00 0.00 3266.00 621.00" xmlns="http://www.w3.org/2000/svg" xmlns:xlink="http://www.w3.org/1999/xlink">
<g id="graph0" class="graph" transform="scale(1 1) rotate(0) translate(4 617)">
<title>src/acceleration/MVQNAcceleration.cpp</title>
<polygon fill="#ffffff" stroke="transparent" points="-4,4 -4,-617 3262,-617 3262,4 -4,4"/>
<!-- Node0 -->
<g id="node1" class="node">
<title>Node0</title>
<polygon fill="#bfbfbf" stroke="#000000" points="1927,-593.5 1927,-612.5 2135,-612.5 2135,-593.5 1927,-593.5"/>
<text text-anchor="middle" x="2031" y="-600.5" font-family="Helvetica,sans-Serif" font-size="10.00" fill="#000000">src/acceleration/MVQNAcceleration.cpp</text>
</g>
<!-- Node1 -->
<g id="node2" class="node">
<title>Node1</title>
<g id="a_node2"><a xlink:href="MVQNAcceleration_8hpp.html" target="_top" xlink:title="acceleration/MVQNAcceleration.hpp">
<polygon fill="#ffffff" stroke="#000000" points="936.5,-537.5 936.5,-556.5 1127.5,-556.5 1127.5,-537.5 936.5,-537.5"/>
<text text-anchor="middle" x="1032" y="-544.5" font-family="Helvetica,sans-Serif" font-size="10.00" fill="#000000">acceleration/MVQNAcceleration.hpp</text>
</a>
</g>
</g>
<!-- Node0&#45;&gt;Node1 -->
<g id="edge1" class="edge">
<title>Node0&#45;&gt;Node1</title>
<path fill="none" stroke="#191970" d="M1926.9024,-598.9299C1760.8097,-592.1395 1425.646,-577.2237 1142,-557 1140.682,-556.906 1139.3553,-556.8099 1138.0212,-556.7117"/>
<polygon fill="#191970" stroke="#191970" points="1137.9109,-553.1932 1127.6738,-555.9231 1137.3789,-560.173 1137.9109,-553.1932"/>
</g>
<!-- Node2 -->
<g id="node3" class="node">
<title>Node2</title>
<polygon fill="#ffffff" stroke="#bfbfbf" points="1442.5,-291.5 1442.5,-310.5 1511.5,-310.5 1511.5,-291.5 1442.5,-291.5"/>
<text text-anchor="middle" x="1477" y="-298.5" font-family="Helvetica,sans-Serif" font-size="10.00" fill="#000000">Eigen/Core</text>
</g>
<!-- Node0&#45;&gt;Node2 -->
<g id="edge117" class="edge">
<title>Node0&#45;&gt;Node2</title>
<path fill="none" stroke="#191970" d="M1978.6143,-593.4344C1888.0409,-575.2148 1698.5827,-529.5982 1560,-445 1522.6906,-422.2244 1508.2482,-416.7392 1488,-378 1478.7384,-360.2804 1476.5104,-337.3004 1476.2781,-321.0723"/>
<polygon fill="#191970" stroke="#191970" points="1479.7826,-320.6576 1476.3896,-310.6208 1472.783,-320.5829 1479.7826,-320.6576"/>
</g>
<!-- Node6 -->
<g id="node7" class="node">
<title>Node6</title>
<polygon fill="#ffffff" stroke="#bfbfbf" points="1202,-291.5 1202,-310.5 1240,-310.5 1240,-291.5 1202,-291.5"/>
<text text-anchor="middle" x="1221" y="-298.5" font-family="Helvetica,sans-Serif" font-size="10.00" fill="#000000">map</text>
</g>
<!-- Node0&#45;&gt;Node6 -->
<g id="edge120" class="edge">
<title>Node0&#45;&gt;Node6</title>
<path fill="none" stroke="#191970" d="M1926.6675,-598.196C1709.3522,-587.1187 1224.1879,-556.397 1175,-501 1128.1334,-448.2173 1181.3565,-357.3484 1207.8205,-318.955"/>
<polygon fill="#191970" stroke="#191970" points="1210.686,-320.9647 1213.6039,-310.7796 1204.9714,-316.9221 1210.686,-320.9647"/>
</g>
<!-- Node40 -->
<g id="node8" class="node">
<title>Node40</title>
<g id="a_node8"><a xlink:href="cplscheme_2SharedPointer_8hpp.html" target="_top" xlink:title="SharedPointer.hpp">
<polygon fill="#ffffff" stroke="#000000" points="958.5,-291.5 958.5,-310.5 1063.5,-310.5 1063.5,-291.5 958.5,-291.5"/>
<text text-anchor="middle" x="1011" y="-298.5" font-family="Helvetica,sans-Serif" font-size="10.00" fill="#000000">SharedPointer.hpp</text>
</a>
</g>
</g>
<!-- Node0&#45;&gt;Node40 -->
<g id="edge137" class="edge">
<title>Node0&#45;&gt;Node40</title>
<path fill="none" stroke="#191970" d="M1926.9267,-602.5312C1522.2792,-600.0355 76,-584.5704 76,-491 76,-491 76,-491 76,-429.5 76,-391.8735 66.1384,-371.1405 95,-347 126.5292,-320.6283 792.9525,-313.1593 834,-311 871.8817,-309.0072 914.3142,-306.6154 948.1351,-304.6706"/>
<polygon fill="#191970" stroke="#191970" points="948.5581,-308.1521 958.3401,-304.0824 948.1552,-301.1637 948.5581,-308.1521"/>
</g>
<!-- Node9 -->
<g id="node9" class="node">
<title>Node9</title>
<polygon fill="#ffffff" stroke="#bfbfbf" points="563,-62 563,-81 621,-81 621,-62 563,-62"/>
<text text-anchor="middle" x="592" y="-69" font-family="Helvetica,sans-Serif" font-size="10.00" fill="#000000">memory</text>
</g>
<!-- Node0&#45;&gt;Node9 -->
<g id="edge121" class="edge">
<title>Node0&#45;&gt;Node9</title>
<path fill="none" stroke="#191970" d="M1926.7656,-601.7757C1524.6176,-596.9017 94.2597,-578.1149 52,-557 18.5939,-540.3087 0,-528.3439 0,-491 0,-491 0,-491 0,-429.5 0,-211.3849 276.8616,-205.5485 457,-123 489.1919,-108.248 526.9301,-94.1058 554.3094,-84.3864"/>
<polygon fill="#191970" stroke="#191970" points="555.6268,-87.6333 563.8984,-81.0127 553.3036,-81.03 555.6268,-87.6333"/>
</g>
<!-- Node8 -->
<g id="node11" class="node">
<title>Node8</title>
<polygon fill="#ffffff" stroke="#bfbfbf" points="2794,-353 2794,-372 2858,-372 2858,-353 2794,-353"/>
<text text-anchor="middle" x="2826" y="-360" font-family="Helvetica,sans-Serif" font-size="10.00" fill="#000000">algorithm</text>
</g>
<!-- Node0&#45;&gt;Node8 -->
<g id="edge118" class="edge">
<title>Node0&#45;&gt;Node8</title>
<path fill="none" stroke="#191970" d="M2135.031,-600.2582C2303.2808,-595.1126 2620.9184,-582.1843 2666,-557 2734.3793,-518.8007 2716.7596,-472.3597 2769,-414 2780.4525,-401.206 2794.8028,-388.2547 2806.2395,-378.5403"/>
<polygon fill="#191970" stroke="#191970" points="2808.5355,-381.1829 2813.9691,-372.0874 2804.0494,-375.8093 2808.5355,-381.1829"/>
</g>
<!-- Node45 -->
<g id="node12" class="node">
<title>Node45</title>
<polygon fill="#ffffff" stroke="#bfbfbf" points="366.5,-291.5 366.5,-310.5 421.5,-310.5 421.5,-291.5 366.5,-291.5"/>
<text text-anchor="middle" x="394" y="-298.5" font-family="Helvetica,sans-Serif" font-size="10.00" fill="#000000">fstream</text>
</g>
<!-- Node0&#45;&gt;Node45 -->
<g id="edge119" class="edge">
<title>Node0&#45;&gt;Node45</title>
<path fill="none" stroke="#191970" d="M1926.8533,-602.0838C1569.4523,-598.6966 405.711,-585.5714 240,-557 146.925,-540.9523 38,-585.4484 38,-491 38,-491 38,-491 38,-429.5 38,-389.8416 40.6918,-371.3431 72,-347 115.6059,-313.0949 280.6031,-304.1464 355.9989,-301.8113"/>
<polygon fill="#191970" stroke="#191970" points="356.5517,-305.2971 366.4476,-301.5126 356.3516,-298.2999 356.5517,-305.2971"/>
</g>
<!-- Node11 -->
<g id="node14" class="node">
<title>Node11</title>
<polygon fill="#ffffff" stroke="#bfbfbf" points="2039,-.5 2039,-19.5 2083,-19.5 2083,-.5 2039,-.5"/>
<text text-anchor="middle" x="2061" y="-7.5" font-family="Helvetica,sans-Serif" font-size="10.00" fill="#000000">string</text>
</g>
<!-- Node0&#45;&gt;Node11 -->
<g id="edge122" class="edge">
<title>Node0&#45;&gt;Node11</title>
<path fill="none" stroke="#191970" d="M2135.1108,-601.507C2296.5973,-598.2678 2616.9986,-588.1525 2887,-557 3053.374,-537.8039 3258,-658.4777 3258,-491 3258,-491 3258,-491 3258,-133 3258,-93.5845 3247.6897,-76.4594 3214,-56 3164.8407,-26.1461 2275.8296,-12.8343 2093.5104,-10.4122"/>
<polygon fill="#191970" stroke="#191970" points="2093.5135,-6.912 2083.4683,-10.2803 2093.4215,-13.9114 2093.5135,-6.912"/>
</g>
<!-- Node69 -->
<g id="node15" class="node">
<title>Node69</title>
<g id="a_node15"><a xlink:href="QRFactorization_8hpp.html" target="_top" xlink:title="acceleration/impl/QRFactorization.hpp">
<polygon fill="#ffffff" stroke="#000000" points="554,-353 554,-372 756,-372 756,-353 554,-353"/>
<text text-anchor="middle" x="655" y="-360" font-family="Helvetica,sans-Serif" font-size="10.00" fill="#000000">acceleration/impl/QRFactorization.hpp</text>
</a>
</g>
</g>
<!-- Node0&#45;&gt;Node69 -->
<g id="edge125" class="edge">
<title>Node0&#45;&gt;Node69</title>
<path fill="none" stroke="#191970" d="M1926.7333,-602.3014C1689.8112,-600.1228 1116.8277,-591.3586 927,-557 769.6141,-528.5133 678.8622,-574.5057 585,-445 566.8762,-419.9938 600.9054,-393.0784 627.5735,-377.0207"/>
<polygon fill="#191970" stroke="#191970" points="629.3404,-380.042 636.2493,-372.0097 625.8394,-373.9805 629.3404,-380.042"/>
</g>
<!-- Node17 -->
<g id="node18" class="node">
<title>Node17</title>
<g id="a_node18"><a xlink:href="LogMacros_8hpp.html" target="_top" xlink:title="LogMacros.hpp">
<polygon fill="#ffffff" stroke="#000000" points="2486.5,-123.5 2486.5,-142.5 2575.5,-142.5 2575.5,-123.5 2486.5,-123.5"/>
<text text-anchor="middle" x="2531" y="-130.5" font-family="Helvetica,sans-Serif" font-size="10.00" fill="#000000">LogMacros.hpp</text>
</a>
</g>
</g>
<!-- Node0&#45;&gt;Node17 -->
<g id="edge138" class="edge">
<title>Node0&#45;&gt;Node17</title>
<path fill="none" stroke="#191970" d="M2135.2915,-594.7296C2312.1737,-579.2858 2652,-542.866 2652,-491 2652,-491 2652,-491 2652,-362.5 2652,-276.5563 2645.7183,-245.2739 2591,-179 2581.1441,-167.0628 2567.635,-156.3614 2555.9305,-148.2907"/>
<polygon fill="#191970" stroke="#191970" points="2557.6919,-145.2592 2547.4222,-142.6549 2553.8263,-151.0951 2557.6919,-145.2592"/>
</g>
<!-- Node72 -->
<g id="node30" class="node">
<title>Node72</title>
<g id="a_node30"><a xlink:href="ParallelMatrixOperations_8hpp.html" target="_top" xlink:title="acceleration/impl/Parallel\lMatrixOperations.hpp">
<polygon fill="#ffffff" stroke="#000000" points="1691,-414.5 1691,-444.5 1831,-444.5 1831,-414.5 1691,-414.5"/>
<text text-anchor="start" x="1699" y="-432.5" font-family="Helvetica,sans-Serif" font-size="10.00" fill="#000000">acceleration/impl/Parallel</text>
<text text-anchor="middle" x="1761" y="-421.5" font-family="Helvetica,sans-Serif" font-size="10.00" fill="#000000">MatrixOperations.hpp</text>
</a>
</g>
</g>
<!-- Node0&#45;&gt;Node72 -->
<g id="edge123" class="edge">
<title>Node0&#45;&gt;Node72</title>
<path fill="none" stroke="#191970" d="M1991.994,-593.4219C1965.4486,-585.8892 1930.1629,-573.8376 1902,-557 1853.2727,-527.8677 1806.366,-480.3178 1780.8345,-452.2555"/>
<polygon fill="#191970" stroke="#191970" points="1783.2025,-449.6539 1773.9173,-444.5513 1777.9939,-454.3305 1783.2025,-449.6539"/>
</g>
<!-- Node73 -->
<g id="node32" class="node">
<title>Node73</title>
<g id="a_node32"><a xlink:href="Communication_8hpp.html" target="_top" xlink:title="com/Communication.hpp">
<polygon fill="#ffffff" stroke="#000000" points="1930.5,-235.5 1930.5,-254.5 2069.5,-254.5 2069.5,-235.5 1930.5,-235.5"/>
<text text-anchor="middle" x="2000" y="-242.5" font-family="Helvetica,sans-Serif" font-size="10.00" fill="#000000">com/Communication.hpp</text>
</a>
</g>
</g>
<!-- Node0&#45;&gt;Node73 -->
<g id="edge126" class="edge">
<title>Node0&#45;&gt;Node73</title>
<path fill="none" stroke="#191970" d="M2044.1588,-593.3179C2090.3948,-558.1503 2239.0711,-434.6393 2172,-347 2134.7823,-298.3691 2087.7243,-348.0954 2039,-311 2023.4913,-299.1927 2012.9632,-279.2945 2006.7928,-264.427"/>
<polygon fill="#191970" stroke="#191970" points="2009.9047,-262.7659 2003.061,-254.6779 2003.3673,-265.2684 2009.9047,-262.7659"/>
</g>
<!-- Node75 -->
<g id="node36" class="node">
<title>Node75</title>
<g id="a_node36"><a xlink:href="MPIPortsCommunication_8hpp.html" target="_top" xlink:title="com/MPIPortsCommunication.hpp">
<polygon fill="#ffffff" stroke="#000000" points="2218.5,-353 2218.5,-372 2399.5,-372 2399.5,-353 2218.5,-353"/>
<text text-anchor="middle" x="2309" y="-360" font-family="Helvetica,sans-Serif" font-size="10.00" fill="#000000">com/MPIPortsCommunication.hpp</text>
</a>
</g>
</g>
<!-- Node0&#45;&gt;Node75 -->
<g id="edge127" class="edge">
<title>Node0&#45;&gt;Node75</title>
<path fill="none" stroke="#191970" d="M2103.9935,-593.4746C2137.1486,-586.819 2175.8306,-575.6429 2207,-557 2265.2969,-522.1318 2286.1708,-508.2284 2311,-445 2318.9902,-424.6526 2316.7455,-399.2535 2313.6278,-382.0523"/>
<polygon fill="#191970" stroke="#191970" points="2317.0143,-381.146 2311.5517,-372.068 2310.1609,-382.5712 2317.0143,-381.146"/>
</g>
<!-- Node77 -->
<g id="node39" class="node">
<title>Node77</title>
<g id="a_node39"><a xlink:href="MasterSlave_8hpp.html" target="_top" xlink:title="utils/MasterSlave.hpp">
<polygon fill="#ffffff" stroke="#000000" points="1676,-353 1676,-372 1798,-372 1798,-353 1676,-353"/>
<text text-anchor="middle" x="1737" y="-360" font-family="Helvetica,sans-Serif" font-size="10.00" fill="#000000">utils/MasterSlave.hpp</text>
</a>
</g>
</g>
<!-- Node0&#45;&gt;Node77 -->
<g id="edge147" class="edge">
<title>Node0&#45;&gt;Node77</title>
<path fill="none" stroke="#191970" d="M2023.1363,-593.2755C1998.6175,-563.4198 1920.3822,-471.6154 1840,-414 1818.5372,-398.6162 1791.8031,-385.3975 1770.9505,-376.2049"/>
<polygon fill="#191970" stroke="#191970" points="1772.0989,-372.8888 1761.53,-372.1478 1769.33,-379.3179 1772.0989,-372.8888"/>
</g>
<!-- Node29 -->
<g id="node40" class="node">
<title>Node29</title>
<g id="a_node40"><a xlink:href="assertion_8hpp.html" target="_top" xlink:title="utils/assertion.hpp">
<polygon fill="#ffffff" stroke="#ff0000" points="2848.5,-291.5 2848.5,-310.5 2955.5,-310.5 2955.5,-291.5 2848.5,-291.5"/>
<text text-anchor="middle" x="2902" y="-298.5" font-family="Helvetica,sans-Serif" font-size="10.00" fill="#000000">utils/assertion.hpp</text>
</a>
</g>
</g>
<!-- Node0&#45;&gt;Node29 -->
<g id="edge148" class="edge">
<title>Node0&#45;&gt;Node29</title>
<path fill="none" stroke="#191970" d="M2135.1888,-601.6441C2384.7166,-597.016 2996,-576.9108 2996,-491 2996,-491 2996,-491 2996,-429.5 2996,-380.9039 2951.6649,-338.4493 2923.8906,-316.6209"/>
<polygon fill="#191970" stroke="#191970" points="2925.9493,-313.7895 2915.87,-310.5248 2921.7135,-319.3625 2925.9493,-313.7895"/>
</g>
<!-- Node80 -->
<g id="node45" class="node">
<title>Node80</title>
<g id="a_node45"><a xlink:href="Preconditioner_8hpp.html" target="_top" xlink:title="acceleration/impl/Preconditioner.hpp">
<polygon fill="#ffffff" stroke="#000000" points="1967.5,-353 1967.5,-372 2162.5,-372 2162.5,-353 1967.5,-353"/>
<text text-anchor="middle" x="2065" y="-360" font-family="Helvetica,sans-Serif" font-size="10.00" fill="#000000">acceleration/impl/Preconditioner.hpp</text>
</a>
</g>
</g>
<!-- Node0&#45;&gt;Node80 -->
<g id="edge124" class="edge">
<title>Node0&#45;&gt;Node80</title>
<path fill="none" stroke="#191970" d="M2032.375,-593.2742C2037.4693,-557.239 2055.3304,-430.8983 2062.2409,-382.0168"/>
<polygon fill="#191970" stroke="#191970" points="2065.7108,-382.4748 2063.6452,-372.0833 2058.7798,-381.4949 2065.7108,-382.4748"/>
</g>
<!-- Node13 -->
<g id="node46" class="node">
<title>Node13</title>
<g id="a_node46"><a xlink:href="CouplingData_8hpp.html" target="_top" xlink:title="CouplingData.hpp">
<polygon fill="#ffffff" stroke="#000000" points="2198,-420 2198,-439 2302,-439 2302,-420 2198,-420"/>
<text text-anchor="middle" x="2250" y="-427" font-family="Helvetica,sans-Serif" font-size="10.00" fill="#000000">CouplingData.hpp</text>
</a>
</g>
</g>
<!-- Node0&#45;&gt;Node13 -->
<g id="edge128" class="edge">
<title>Node0&#45;&gt;Node13</title>
<path fill="none" stroke="#191970" d="M2103.7234,-593.4651C2131.2525,-586.8871 2161.373,-575.7738 2184,-557 2218.5462,-528.3369 2237.1499,-476.9025 2245.145,-448.921"/>
<polygon fill="#191970" stroke="#191970" points="2248.562,-449.6918 2247.7806,-439.1259 2241.8024,-447.873 2248.562,-449.6918"/>
</g>
<!-- Node81 -->
<g id="node48" class="node">
<title>Node81</title>
<g id="a_node48"><a xlink:href="EigenHelperFunctions_8hpp.html" target="_top" xlink:title="utils/EigenHelperFunctions.hpp">
<polygon fill="#ffffff" stroke="#000000" points="2776.5,-481.5 2776.5,-500.5 2943.5,-500.5 2943.5,-481.5 2776.5,-481.5"/>
<text text-anchor="middle" x="2860" y="-488.5" font-family="Helvetica,sans-Serif" font-size="10.00" fill="#000000">utils/EigenHelperFunctions.hpp</text>
</a>
</g>
</g>
<!-- Node0&#45;&gt;Node81 -->
<g id="edge139" class="edge">
<title>Node0&#45;&gt;Node81</title>
<path fill="none" stroke="#191970" d="M2135.2683,-599.5008C2323.3363,-592.7394 2705.255,-576.7861 2763,-557 2793.9133,-546.4077 2824.1756,-523.1714 2842.4624,-507.2984"/>
<polygon fill="#191970" stroke="#191970" points="2844.8458,-509.8626 2849.9811,-500.5955 2840.1876,-504.6375 2844.8458,-509.8626"/>
</g>
<!-- Node1&#45;&gt;Node2 -->
<g id="edge2" class="edge">
<title>Node1&#45;&gt;Node2</title>
<path fill="none" stroke="#191970" d="M1127.8438,-540.5313C1230.2255,-532.7667 1380.6126,-518.5685 1401,-501 1454.8324,-454.6109 1413.2635,-411.0714 1444,-347 1448.8078,-336.978 1455.808,-326.8334 1462.1253,-318.6304"/>
<polygon fill="#191970" stroke="#191970" points="1465.0488,-320.5795 1468.5761,-310.5891 1459.5886,-316.1993 1465.0488,-320.5795"/>
</g>
<!-- Node3 -->
<g id="node4" class="node">
<title>Node3</title>
<polygon fill="#ffffff" stroke="#bfbfbf" points="104.5,-353 104.5,-372 151.5,-372 151.5,-353 104.5,-353"/>
<text text-anchor="middle" x="128" y="-360" font-family="Helvetica,sans-Serif" font-size="10.00" fill="#000000">deque</text>
</g>
<!-- Node1&#45;&gt;Node3 -->
<g id="edge3" class="edge">
<title>Node1&#45;&gt;Node3</title>
<path fill="none" stroke="#191970" d="M936.4329,-545.2703C777.0554,-541.5848 464.0175,-530.7123 358,-501 271.1585,-476.662 184.2005,-409.9953 146.9107,-378.8883"/>
<polygon fill="#191970" stroke="#191970" points="148.8205,-375.9195 138.9256,-372.1326 144.2993,-381.2635 148.8205,-375.9195"/>
</g>
<!-- Node4 -->
<g id="node5" class="node">
<title>Node4</title>
<polygon fill="#ffffff" stroke="#bfbfbf" points="1321.5,-123.5 1321.5,-142.5 1368.5,-142.5 1368.5,-123.5 1321.5,-123.5"/>
<text text-anchor="middle" x="1345" y="-130.5" font-family="Helvetica,sans-Serif" font-size="10.00" fill="#000000">vector</text>
</g>
<!-- Node1&#45;&gt;Node4 -->
<g id="edge4" class="edge">
<title>Node1&#45;&gt;Node4</title>
<path fill="none" stroke="#191970" d="M1022.2274,-537.3632C992.4884,-506.8706 907.9173,-410.7481 955,-347 987.3226,-303.2365 1023.1672,-334.9866 1072,-311 1163.3104,-266.1486 1172.4269,-232.426 1259,-179 1277.5497,-167.5526 1299.1907,-155.9859 1316.1231,-147.3148"/>
<polygon fill="#191970" stroke="#191970" points="1318.1527,-150.21 1325.4897,-142.5667 1314.9877,-143.9664 1318.1527,-150.21"/>
</g>
<!-- Node5 -->
<g id="node6" class="node">
<title>Node5</title>
<g id="a_node6"><a xlink:href="Acceleration_8hpp.html" target="_top" xlink:title="acceleration/Acceleration.hpp">
<polygon fill="#ffffff" stroke="#ff0000" points="964.5,-353 964.5,-372 1125.5,-372 1125.5,-353 964.5,-353"/>
<text text-anchor="middle" x="1045" y="-360" font-family="Helvetica,sans-Serif" font-size="10.00" fill="#000000">acceleration/Acceleration.hpp</text>
</a>
</g>
</g>
<!-- Node1&#45;&gt;Node5 -->
<g id="edge5" class="edge">
<title>Node1&#45;&gt;Node5</title>
<path fill="none" stroke="#191970" d="M1032.6806,-537.3402C1034.7253,-508.3223 1040.8422,-421.5088 1043.6111,-382.2113"/>
<polygon fill="#191970" stroke="#191970" points="1047.1145,-382.2854 1044.3261,-372.0641 1040.1318,-381.7934 1047.1145,-382.2854"/>
</g>
<!-- Node68 -->
<g id="node10" class="node">
<title>Node68</title>
<g id="a_node10"><a xlink:href="BaseQNAcceleration_8hpp.html" target="_top" xlink:title="acceleration/BaseQNAcceleration.hpp">
<polygon fill="#ffffff" stroke="#000000" points="594,-420 594,-439 794,-439 794,-420 594,-420"/>
<text text-anchor="middle" x="694" y="-427" font-family="Helvetica,sans-Serif" font-size="10.00" fill="#000000">acceleration/BaseQNAcceleration.hpp</text>
</a>
</g>
</g>
<!-- Node1&#45;&gt;Node68 -->
<g id="edge11" class="edge">
<title>Node1&#45;&gt;Node68</title>
<path fill="none" stroke="#191970" d="M950.9326,-537.4945C907.4569,-530.6411 853.5998,-519.285 808,-501 772.7424,-486.8621 736.2834,-461.8396 714.3724,-445.4625"/>
<polygon fill="#191970" stroke="#191970" points="716.2641,-442.5039 706.1856,-439.2367 712.0268,-448.0758 716.2641,-442.5039"/>
</g>
<!-- Node71 -->
<g id="node29" class="node">
<title>Node71</title>
<g id="a_node29"><a xlink:href="acceleration_2impl_2SharedPointer_8hpp.html" target="_top" xlink:title="acceleration/impl/Shared\lPointer.hpp">
<polygon fill="#ffffff" stroke="#000000" points="170,-347.5 170,-377.5 308,-377.5 308,-347.5 170,-347.5"/>
<text text-anchor="start" x="178" y="-365.5" font-family="Helvetica,sans-Serif" font-size="10.00" fill="#000000">acceleration/impl/Shared</text>
<text text-anchor="middle" x="239" y="-354.5" font-family="Helvetica,sans-Serif" font-size="10.00" fill="#000000">Pointer.hpp</text>
</a>
</g>
</g>
<!-- Node1&#45;&gt;Node71 -->
<g id="edge115" class="edge">
<title>Node1&#45;&gt;Node71</title>
<path fill="none" stroke="#191970" d="M936.3259,-545.306C757.1231,-540.3508 379.6935,-520.9379 277,-445 258.4923,-431.3142 248.7359,-406.4133 243.7683,-387.5362"/>
<polygon fill="#191970" stroke="#191970" points="247.1702,-386.7127 241.476,-377.7782 240.3557,-388.3136 247.1702,-386.7127"/>
</g>
<!-- Node1&#45;&gt;Node72 -->
<g id="edge49" class="edge">
<title>Node1&#45;&gt;Node72</title>
<path fill="none" stroke="#191970" d="M1127.8177,-538.7901C1209.503,-531.1338 1329.8803,-518.2945 1434,-501 1523.4251,-486.1463 1625.2841,-462.8466 1691.2204,-446.9092"/>
<polygon fill="#191970" stroke="#191970" points="1692.192,-450.2751 1701.0843,-444.5151 1690.5409,-443.4726 1692.192,-450.2751"/>
</g>
<!-- Node39 -->
<g id="node35" class="node">
<title>Node39</title>
<g id="a_node35"><a xlink:href="com_2SharedPointer_8hpp.html" target="_top" xlink:title="com/SharedPointer.hpp">
<polygon fill="#ffffff" stroke="#000000" points="1605.5,-123.5 1605.5,-142.5 1734.5,-142.5 1734.5,-123.5 1605.5,-123.5"/>
<text text-anchor="middle" x="1670" y="-130.5" font-family="Helvetica,sans-Serif" font-size="10.00" fill="#000000">com/SharedPointer.hpp</text>
</a>
</g>
</g>
<!-- Node1&#45;&gt;Node39 -->
<g id="edge116" class="edge">
<title>Node1&#45;&gt;Node39</title>
<path fill="none" stroke="#191970" d="M1041.6771,-537.4948C1089.2764,-491.2412 1304.8559,-287.5333 1518,-179 1548.1306,-163.6574 1584.2754,-152.4581 1613.7575,-144.9533"/>
<polygon fill="#191970" stroke="#191970" points="1614.6143,-148.3469 1623.4821,-142.5492 1612.9343,-141.5515 1614.6143,-148.3469"/>
</g>
<!-- Node78 -->
<g id="node44" class="node">
<title>Node78</title>
<g id="a_node44"><a xlink:href="SVDFactorization_8hpp.html" target="_top" xlink:title="acceleration/impl/SVDFactorization.hpp">
<polygon fill="#ffffff" stroke="#ff0000" points="1184,-481.5 1184,-500.5 1392,-500.5 1392,-481.5 1184,-481.5"/>
<text text-anchor="middle" x="1288" y="-488.5" font-family="Helvetica,sans-Serif" font-size="10.00" fill="#000000">acceleration/impl/SVDFactorization.hpp</text>
</a>
</g>
</g>
<!-- Node1&#45;&gt;Node78 -->
<g id="edge97" class="edge">
<title>Node1&#45;&gt;Node78</title>
<path fill="none" stroke="#191970" d="M1075.7171,-537.4369C1119.6216,-527.8328 1187.3413,-513.0191 1234.445,-502.7152"/>
<polygon fill="#191970" stroke="#191970" points="1235.4422,-506.0799 1244.4632,-500.5237 1233.9463,-499.2416 1235.4422,-506.0799"/>
</g>
<!-- Node5&#45;&gt;Node2 -->
<g id="edge6" class="edge">
<title>Node5&#45;&gt;Node2</title>
<path fill="none" stroke="#191970" d="M1112.026,-352.9581C1201.0937,-340.2783 1356.0526,-318.2182 1432.1808,-307.3805"/>
<polygon fill="#191970" stroke="#191970" points="1432.9778,-310.8024 1442.3846,-305.9279 1431.9911,-303.8723 1432.9778,-310.8024"/>
</g>
<!-- Node5&#45;&gt;Node4 -->
<g id="edge8" class="edge">
<title>Node5&#45;&gt;Node4</title>
<path fill="none" stroke="#191970" d="M1057.5087,-352.9309C1103.9192,-317.4268 1266.5481,-193.0157 1324.3886,-148.7677"/>
<polygon fill="#191970" stroke="#191970" points="1326.6221,-151.4659 1332.4379,-142.61 1322.3688,-145.9061 1326.6221,-151.4659"/>
</g>
<!-- Node5&#45;&gt;Node6 -->
<g id="edge7" class="edge">
<title>Node5&#45;&gt;Node6</title>
<path fill="none" stroke="#191970" d="M1072.5,-352.8906C1105.0931,-341.5015 1159.1471,-322.6134 1192.2695,-311.0394"/>
<polygon fill="#191970" stroke="#191970" points="1193.5442,-314.3015 1201.8299,-307.6987 1191.235,-307.6934 1193.5442,-314.3015"/>
</g>
<!-- Node5&#45;&gt;Node40 -->
<g id="edge9" class="edge">
<title>Node5&#45;&gt;Node40</title>
<path fill="none" stroke="#191970" d="M1039.6875,-352.8906C1034.7761,-344.0068 1027.3421,-330.5601 1021.2725,-319.5811"/>
<polygon fill="#191970" stroke="#191970" points="1024.2888,-317.8031 1016.3874,-310.7449 1018.1627,-321.1899 1024.2888,-317.8031"/>
</g>
<!-- Node40&#45;&gt;Node9 -->
<g id="edge10" class="edge">
<title>Node40&#45;&gt;Node9</title>
<path fill="none" stroke="#191970" d="M993.5295,-291.4309C928.044,-255.5623 696.8901,-128.9517 618.3457,-85.9304"/>
<polygon fill="#191970" stroke="#191970" points="619.997,-82.8443 609.545,-81.11 616.6342,-88.9837 619.997,-82.8443"/>
</g>
<!-- Node68&#45;&gt;Node2 -->
<g id="edge12" class="edge">
<title>Node68&#45;&gt;Node2</title>
<path fill="none" stroke="#191970" d="M794.0306,-420.7914C883.489,-412.2913 1017.9971,-397.7541 1134,-378 1241.9366,-359.6195 1367.0411,-329.1855 1432.2429,-312.6187"/>
<polygon fill="#191970" stroke="#191970" points="1433.357,-315.9467 1442.1812,-310.0829 1431.6263,-309.164 1433.357,-315.9467"/>
</g>
<!-- Node68&#45;&gt;Node3 -->
<g id="edge14" class="edge">
<title>Node68&#45;&gt;Node3</title>
<path fill="none" stroke="#191970" d="M593.7728,-423.9127C462.5514,-415.8906 239.9515,-399.6567 161,-378 159.0314,-377.46 157.0351,-376.8101 155.0493,-376.0865"/>
<polygon fill="#191970" stroke="#191970" points="155.9596,-372.6725 145.3847,-372.0226 153.2462,-379.1252 155.9596,-372.6725"/>
</g>
<!-- Node68&#45;&gt;Node4 -->
<g id="edge19" class="edge">
<title>Node68&#45;&gt;Node4</title>
<path fill="none" stroke="#191970" d="M707.3439,-419.8234C737.1604,-398.2037 806.6922,-347.8028 808,-347 947.2511,-261.5247 981.2425,-234.2769 1135,-179 1195.3852,-157.2911 1269.3808,-143.9935 1311.4688,-137.6008"/>
<polygon fill="#191970" stroke="#191970" points="1312.074,-141.0494 1321.4539,-136.1234 1311.0493,-134.1248 1312.074,-141.0494"/>
</g>
<!-- Node68&#45;&gt;Node5 -->
<g id="edge20" class="edge">
<title>Node68&#45;&gt;Node5</title>
<path fill="none" stroke="#191970" d="M743.917,-419.9717C807.3761,-407.8584 916.8383,-386.9639 984.8387,-373.9838"/>
<polygon fill="#191970" stroke="#191970" points="985.805,-377.3626 994.9714,-372.0496 984.4925,-370.4868 985.805,-377.3626"/>
</g>
<!-- Node68&#45;&gt;Node6 -->
<g id="edge16" class="edge">
<title>Node68&#45;&gt;Node6</title>
<path fill="none" stroke="#191970" d="M765.0246,-419.9633C808.8033,-412.3465 865.3036,-399.3206 912,-378 933.4316,-368.2148 933.2001,-355.9346 955,-347 1051.9572,-307.2626 1085.8281,-334.2518 1188,-311 1189.2805,-310.7086 1190.5839,-310.3937 1191.8969,-310.0614"/>
<polygon fill="#191970" stroke="#191970" points="1193.2275,-313.3245 1201.9274,-307.2779 1191.3556,-306.5795 1193.2275,-313.3245"/>
</g>
<!-- Node68&#45;&gt;Node8 -->
<g id="edge13" class="edge">
<title>Node68&#45;&gt;Node8</title>
<path fill="none" stroke="#191970" d="M794.0032,-427.788C1073.0338,-422.7839 1883.7953,-406.6938 2557,-378 2637.1822,-374.5824 2730.7076,-368.7841 2783.6802,-365.331"/>
<polygon fill="#191970" stroke="#191970" points="2783.9684,-368.8197 2793.7181,-364.673 2783.5105,-361.8347 2783.9684,-368.8197"/>
</g>
<!-- Node68&#45;&gt;Node45 -->
<g id="edge15" class="edge">
<title>Node68&#45;&gt;Node45</title>
<path fill="none" stroke="#191970" d="M605.9222,-419.9603C542.1758,-411.5864 462.7206,-397.6563 436,-378 416.7112,-363.8107 405.2716,-337.9991 399.3165,-320.1978"/>
<polygon fill="#191970" stroke="#191970" points="402.6385,-319.0924 396.3609,-310.5576 395.9459,-321.1443 402.6385,-319.0924"/>
</g>
<!-- Node27 -->
<g id="node13" class="node">
<title>Node27</title>
<polygon fill="#ffffff" stroke="#bfbfbf" points="1007,-.5 1007,-19.5 1063,-19.5 1063,-.5 1007,-.5"/>
<text text-anchor="middle" x="1035" y="-7.5" font-family="Helvetica,sans-Serif" font-size="10.00" fill="#000000">sstream</text>
</g>
<!-- Node68&#45;&gt;Node27 -->
<g id="edge17" class="edge">
<title>Node68&#45;&gt;Node27</title>
<path fill="none" stroke="#191970" d="M625.9046,-419.9861C570.3605,-411.0781 497.3983,-396.3952 474,-378 439.9361,-351.2197 460.5353,-321.7429 430,-291 405.3463,-266.1787 383.128,-281.2488 360,-255 339.3655,-231.5812 336,-220.2125 336,-189 336,-189 336,-189 336,-133 336,-97.154 331.8663,-78.2134 360,-56 385.1291,-36.1589 857.238,-16.742 996.5897,-11.4236"/>
<polygon fill="#191970" stroke="#191970" points="996.9294,-14.9133 1006.7896,-11.0369 996.6642,-7.9184 996.9294,-14.9133"/>
</g>
<!-- Node68&#45;&gt;Node11 -->
<g id="edge18" class="edge">
<title>Node68&#45;&gt;Node11</title>
<path fill="none" stroke="#191970" d="M629.4371,-419.9175C595.2816,-412.5465 553.9293,-399.7829 522,-378 516.4917,-374.2421 374,-195.6681 374,-189 374,-189 374,-189 374,-133 374,-45.9876 469.0351,-74.7651 554,-56 702.4637,-23.2107 1822.782,-12.0488 2028.5737,-10.2658"/>
<polygon fill="#191970" stroke="#191970" points="2028.7613,-13.7645 2038.731,-10.1791 2028.7014,-6.7647 2028.7613,-13.7645"/>
</g>
<!-- Node68&#45;&gt;Node69 -->
<g id="edge21" class="edge">
<title>Node68&#45;&gt;Node69</title>
<path fill="none" stroke="#191970" d="M688.4123,-419.9005C682.5043,-409.751 673.0413,-393.4941 665.6918,-380.8679"/>
<polygon fill="#191970" stroke="#191970" points="668.633,-378.9634 660.5774,-372.0817 662.5833,-382.4849 668.633,-378.9634"/>
</g>
<!-- Node16 -->
<g id="node17" class="node">
<title>Node16</title>
<g id="a_node17"><a xlink:href="Logger_8hpp.html" target="_top" xlink:title="logging/Logger.hpp">
<polygon fill="#ffffff" stroke="#000000" points="1850.5,-179.5 1850.5,-198.5 1959.5,-198.5 1959.5,-179.5 1850.5,-179.5"/>
<text text-anchor="middle" x="1905" y="-186.5" font-family="Helvetica,sans-Serif" font-size="10.00" fill="#000000">logging/Logger.hpp</text>
</a>
</g>
</g>
<!-- Node68&#45;&gt;Node16 -->
<g id="edge48" class="edge">
<title>Node68&#45;&gt;Node16</title>
<path fill="none" stroke="#191970" d="M715.566,-419.9702C754.2509,-403.1868 838.286,-368.1367 912,-347 1089.0257,-296.2397 1648.7816,-221.8238 1840.1299,-197.2268"/>
<polygon fill="#191970" stroke="#191970" points="1840.8396,-200.6645 1850.3128,-195.9202 1839.9486,-193.7214 1840.8396,-200.6645"/>
</g>
<!-- Node68&#45;&gt;Node71 -->
<g id="edge46" class="edge">
<title>Node68&#45;&gt;Node71</title>
<path fill="none" stroke="#191970" d="M629.2928,-419.9717C547.435,-407.9179 406.5277,-387.1689 318.2894,-374.1756"/>
<polygon fill="#191970" stroke="#191970" points="318.7317,-370.7031 308.3285,-372.7088 317.7119,-377.6284 318.7317,-370.7031"/>
</g>
<!-- Node69&#45;&gt;Node2 -->
<g id="edge22" class="edge">
<title>Node69&#45;&gt;Node2</title>
<path fill="none" stroke="#191970" d="M756.2052,-354.9281C936.1014,-341.4687 1304.6273,-313.8965 1432.2886,-304.3452"/>
<polygon fill="#191970" stroke="#191970" points="1432.7636,-307.8195 1442.4746,-303.5831 1432.2413,-300.839 1432.7636,-307.8195"/>
</g>
<!-- Node69&#45;&gt;Node4 -->
<g id="edge26" class="edge">
<title>Node69&#45;&gt;Node4</title>
<path fill="none" stroke="#191970" d="M732.4324,-352.9732C766.2254,-345.771 804.727,-333.1398 834,-311 889.0844,-269.3385 857.5163,-215.7374 916,-179 949.2483,-158.1146 1215.8058,-140.5838 1311.1994,-134.9224"/>
<polygon fill="#191970" stroke="#191970" points="1311.6651,-138.4012 1321.4428,-134.3212 1311.2549,-131.4132 1311.6651,-138.4012"/>
</g>
<!-- Node69&#45;&gt;Node45 -->
<g id="edge23" class="edge">
<title>Node69&#45;&gt;Node45</title>
<path fill="none" stroke="#191970" d="M614.5051,-352.9581C564.5105,-341.1778 480.1542,-321.3007 431.5538,-309.8489"/>
<polygon fill="#191970" stroke="#191970" points="432.2872,-306.4259 421.751,-307.539 430.6817,-313.2393 432.2872,-306.4259"/>
</g>
<!-- Node69&#45;&gt;Node11 -->
<g id="edge25" class="edge">
<title>Node69&#45;&gt;Node11</title>
<path fill="none" stroke="#191970" d="M656.3671,-352.6294C658.8772,-337.744 665.4643,-309.3448 681,-291 818.2339,-128.9525 892.9755,-114.8775 1097,-56 1188.0759,-29.7173 1871.4311,-13.9558 2028.7635,-10.6525"/>
<polygon fill="#191970" stroke="#191970" points="2028.8369,-14.1518 2038.7619,-10.4445 2028.6913,-7.1533 2028.8369,-14.1518"/>
</g>
<!-- Node70 -->
<g id="node16" class="node">
<title>Node70</title>
<polygon fill="#ffffff" stroke="#bfbfbf" points="590,-291.5 590,-310.5 634,-310.5 634,-291.5 590,-291.5"/>
<text text-anchor="middle" x="612" y="-298.5" font-family="Helvetica,sans-Serif" font-size="10.00" fill="#000000">limits</text>
</g>
<!-- Node69&#45;&gt;Node70 -->
<g id="edge24" class="edge">
<title>Node69&#45;&gt;Node70</title>
<path fill="none" stroke="#191970" d="M648.2813,-352.8906C642.007,-343.917 632.4777,-330.2879 624.7596,-319.2491"/>
<polygon fill="#191970" stroke="#191970" points="627.4121,-316.9348 618.8135,-310.7449 621.6753,-320.9459 627.4121,-316.9348"/>
</g>
<!-- Node69&#45;&gt;Node16 -->
<g id="edge27" class="edge">
<title>Node69&#45;&gt;Node16</title>
<path fill="none" stroke="#191970" d="M694.6633,-352.9707C737.4501,-342.6768 807.5746,-325.7648 868,-311 904.0214,-302.1983 912.6145,-298.1489 949,-291 1280.2156,-225.9243 1684.7117,-200.0114 1840.0238,-191.9967"/>
<polygon fill="#191970" stroke="#191970" points="1840.5219,-195.476 1850.3311,-191.4724 1840.1661,-188.485 1840.5219,-195.476"/>
</g>
<!-- Node28 -->
<g id="node28" class="node">
<title>Node28</title>
<g id="a_node28"><a xlink:href="mesh_2SharedPointer_8hpp.html" target="_top" xlink:title="mesh/SharedPointer.hpp">
<polygon fill="#ffffff" stroke="#000000" points="690.5,-291.5 690.5,-310.5 825.5,-310.5 825.5,-291.5 690.5,-291.5"/>
<text text-anchor="middle" x="758" y="-298.5" font-family="Helvetica,sans-Serif" font-size="10.00" fill="#000000">mesh/SharedPointer.hpp</text>
</a>
</g>
</g>
<!-- Node69&#45;&gt;Node28 -->
<g id="edge44" class="edge">
<title>Node69&#45;&gt;Node28</title>
<path fill="none" stroke="#191970" d="M671.0938,-352.8906C687.7228,-342.9616 713.8976,-327.333 733.1794,-315.8201"/>
<polygon fill="#191970" stroke="#191970" points="735.2276,-318.6736 742.0193,-310.5419 731.639,-312.6634 735.2276,-318.6736"/>
</g>
<!-- Node16&#45;&gt;Node9 -->
<g id="edge28" class="edge">
<title>Node16&#45;&gt;Node9</title>
<path fill="none" stroke="#191970" d="M1887.3113,-179.3607C1858.3527,-164.1373 1798.5774,-135.0247 1744,-123 1688.5662,-110.7866 826.9653,-79.7853 631.312,-72.8782"/>
<polygon fill="#191970" stroke="#191970" points="631.3152,-69.3762 621.1981,-72.5216 631.0685,-76.3718 631.3152,-69.3762"/>
</g>
<!-- Node16&#45;&gt;Node11 -->
<g id="edge29" class="edge">
<title>Node16&#45;&gt;Node11</title>
<path fill="none" stroke="#191970" d="M1894.5638,-179.3613C1870.5797,-156.062 1815.9714,-95.684 1848,-56 1870.331,-28.3315 1974.7029,-16.4945 2028.5989,-12.1572"/>
<polygon fill="#191970" stroke="#191970" points="2028.9619,-15.6397 2038.6659,-11.3873 2028.4281,-8.6601 2028.9619,-15.6397"/>
</g>
<!-- Node16&#45;&gt;Node17 -->
<g id="edge30" class="edge">
<title>Node16&#45;&gt;Node17</title>
<path fill="none" stroke="#191970" d="M1959.7312,-184.1039C2078.1507,-173.5105 2357.0299,-148.5628 2475.8377,-137.9346"/>
<polygon fill="#191970" stroke="#191970" points="2476.5004,-141.3894 2486.1487,-137.0123 2475.8766,-134.4173 2476.5004,-141.3894"/>
</g>
<!-- Node17&#45;&gt;Node11 -->
<g id="edge37" class="edge">
<title>Node17&#45;&gt;Node11</title>
<path fill="none" stroke="#191970" d="M2559.4381,-123.3621C2575.9279,-116.1374 2595.299,-104.4529 2605,-87 2611.6937,-74.9575 2614.3229,-66.1445 2605,-56 2570.2806,-18.2209 2205.0789,-11.4414 2093.317,-10.249"/>
<polygon fill="#191970" stroke="#191970" points="2093.0508,-6.7463 2083.0168,-10.1476 2092.9818,-13.746 2093.0508,-6.7463"/>
</g>
<!-- Node18 -->
<g id="node19" class="node">
<title>Node18</title>
<polygon fill="#ffffff" stroke="#bfbfbf" points="2786,-56.5 2786,-86.5 2896,-86.5 2896,-56.5 2786,-56.5"/>
<text text-anchor="start" x="2794" y="-74.5" font-family="Helvetica,sans-Serif" font-size="10.00" fill="#000000">boost/preprocessor</text>
<text text-anchor="middle" x="2841" y="-63.5" font-family="Helvetica,sans-Serif" font-size="10.00" fill="#000000">/control/if.hpp</text>
</g>
<!-- Node17&#45;&gt;Node18 -->
<g id="edge31" class="edge">
<title>Node17&#45;&gt;Node18</title>
<path fill="none" stroke="#191970" d="M2575.5816,-125.3928C2622.8499,-117.1649 2699.9224,-103.2885 2775.6896,-87.2208"/>
<polygon fill="#191970" stroke="#191970" points="2776.8358,-90.5551 2785.8843,-85.0437 2775.3738,-83.7094 2776.8358,-90.5551"/>
</g>
<!-- Node19 -->
<g id="node20" class="node">
<title>Node19</title>
<polygon fill="#ffffff" stroke="#bfbfbf" points="2164,-56.5 2164,-86.5 2280,-86.5 2280,-56.5 2164,-56.5"/>
<text text-anchor="start" x="2172" y="-74.5" font-family="Helvetica,sans-Serif" font-size="10.00" fill="#000000">boost/preprocessor</text>
<text text-anchor="middle" x="2222" y="-63.5" font-family="Helvetica,sans-Serif" font-size="10.00" fill="#000000">/facilities/empty.hpp</text>
</g>
<!-- Node17&#45;&gt;Node19 -->
<g id="edge32" class="edge">
<title>Node17&#45;&gt;Node19</title>
<path fill="none" stroke="#191970" d="M2486.2919,-125.0481C2439.7355,-116.6456 2364.449,-102.7173 2290.0821,-87.1843"/>
<polygon fill="#191970" stroke="#191970" points="2290.5794,-83.7125 2280.0736,-85.0827 2289.1409,-90.5631 2290.5794,-83.7125"/>
</g>
<!-- Node20 -->
<g id="node21" class="node">
<title>Node20</title>
<polygon fill="#ffffff" stroke="#bfbfbf" points="2914.5,-56.5 2914.5,-86.5 3025.5,-86.5 3025.5,-56.5 2914.5,-56.5"/>
<text text-anchor="start" x="2922.5" y="-74.5" font-family="Helvetica,sans-Serif" font-size="10.00" fill="#000000">boost/preprocessor</text>
<text text-anchor="middle" x="2970" y="-63.5" font-family="Helvetica,sans-Serif" font-size="10.00" fill="#000000">/seq/for_each_i.hpp</text>
</g>
<!-- Node17&#45;&gt;Node20 -->
<g id="edge33" class="edge">
<title>Node17&#45;&gt;Node20</title>
<path fill="none" stroke="#191970" d="M2575.572,-129.1425C2644.0674,-122.8598 2779.4733,-109.0374 2904.3002,-86.9949"/>
<polygon fill="#191970" stroke="#191970" points="2905.189,-90.3916 2914.4168,-85.186 2903.9568,-83.5009 2905.189,-90.3916"/>
</g>
<!-- Node21 -->
<g id="node22" class="node">
<title>Node21</title>
<polygon fill="#ffffff" stroke="#bfbfbf" points="3044,-56.5 3044,-86.5 3154,-86.5 3154,-56.5 3044,-56.5"/>
<text text-anchor="start" x="3052" y="-74.5" font-family="Helvetica,sans-Serif" font-size="10.00" fill="#000000">boost/preprocessor</text>
<text text-anchor="middle" x="3099" y="-63.5" font-family="Helvetica,sans-Serif" font-size="10.00" fill="#000000">/stringize.hpp</text>
</g>
<!-- Node17&#45;&gt;Node21 -->
<g id="edge34" class="edge">
<title>Node17&#45;&gt;Node21</title>
<path fill="none" stroke="#191970" d="M2575.7768,-131.1189C2662.4717,-127.0003 2859.3566,-115.3266 3034.0632,-86.9999"/>
<polygon fill="#191970" stroke="#191970" points="3034.6474,-90.451 3043.9473,-85.3754 3033.512,-83.5436 3034.6474,-90.451"/>
</g>
<!-- Node22 -->
<g id="node23" class="node">
<title>Node22</title>
<polygon fill="#ffffff" stroke="#bfbfbf" points="2652.5,-56.5 2652.5,-86.5 2767.5,-86.5 2767.5,-56.5 2652.5,-56.5"/>
<text text-anchor="start" x="2660.5" y="-74.5" font-family="Helvetica,sans-Serif" font-size="10.00" fill="#000000">boost/preprocessor</text>
<text text-anchor="middle" x="2710" y="-63.5" font-family="Helvetica,sans-Serif" font-size="10.00" fill="#000000">/variadic/to_seq.hpp</text>
</g>
<!-- Node17&#45;&gt;Node22 -->
<g id="edge35" class="edge">
<title>Node17&#45;&gt;Node22</title>
<path fill="none" stroke="#191970" d="M2558.9688,-123.3906C2584.9887,-114.4508 2624.457,-100.8905 2656.5214,-89.8739"/>
<polygon fill="#191970" stroke="#191970" points="2657.8916,-93.1041 2666.2117,-86.5446 2655.617,-86.4839 2657.8916,-93.1041"/>
</g>
<!-- Node23 -->
<g id="node24" class="node">
<title>Node23</title>
<polygon fill="#ffffff" stroke="#bfbfbf" points="2298,-62 2298,-81 2434,-81 2434,-62 2298,-62"/>
<text text-anchor="middle" x="2366" y="-69" font-family="Helvetica,sans-Serif" font-size="10.00" fill="#000000">boost/vmd/is_empty.hpp</text>
</g>
<!-- Node17&#45;&gt;Node23 -->
<g id="edge36" class="edge">
<title>Node17&#45;&gt;Node23</title>
<path fill="none" stroke="#191970" d="M2505.2188,-123.3906C2477.248,-112.9652 2432.4181,-96.2559 2401.214,-84.6252"/>
<polygon fill="#191970" stroke="#191970" points="2402.1929,-81.2549 2391.6002,-81.0419 2399.7481,-87.8141 2402.1929,-81.2549"/>
</g>
<!-- Node24 -->
<g id="node25" class="node">
<title>Node24</title>
<g id="a_node25"><a xlink:href="Tracer_8hpp.html" target="_top" xlink:title="logging/Tracer.hpp">
<polygon fill="#ffffff" stroke="#000000" points="1856.5,-62 1856.5,-81 1961.5,-81 1961.5,-62 1856.5,-62"/>
<text text-anchor="middle" x="1909" y="-69" font-family="Helvetica,sans-Serif" font-size="10.00" fill="#000000">logging/Tracer.hpp</text>
</a>
</g>
</g>
<!-- Node17&#45;&gt;Node24 -->
<g id="edge38" class="edge">
<title>Node17&#45;&gt;Node24</title>
<path fill="none" stroke="#191970" d="M2486.4158,-131.8034C2391.1834,-128.7084 2161.0922,-118.3539 1971,-87 1965.109,-86.0283 1958.9551,-84.7803 1952.9091,-83.415"/>
<polygon fill="#191970" stroke="#191970" points="1953.44,-79.9437 1942.9015,-81.0347 1951.8202,-86.7537 1953.44,-79.9437"/>
</g>
<!-- Node25 -->
<g id="node26" class="node">
<title>Node25</title>
<polygon fill="#ffffff" stroke="#bfbfbf" points="2452,-62 2452,-81 2596,-81 2596,-62 2452,-62"/>
<text text-anchor="middle" x="2524" y="-69" font-family="Helvetica,sans-Serif" font-size="10.00" fill="#000000">prettyprint/prettyprint.hpp</text>
</g>
<!-- Node17&#45;&gt;Node25 -->
<g id="edge40" class="edge">
<title>Node17&#45;&gt;Node25</title>
<path fill="none" stroke="#191970" d="M2529.9063,-123.3906C2528.9359,-114.8657 2527.4874,-102.1392 2526.2677,-91.4235"/>
<polygon fill="#191970" stroke="#191970" points="2529.7177,-90.7849 2525.1092,-81.2449 2522.7626,-91.5766 2529.7177,-90.7849"/>
</g>
<!-- Node26 -->
<g id="node27" class="node">
<title>Node26</title>
<g id="a_node27"><a xlink:href="String_8hpp.html" target="_top" xlink:title="utils/String.hpp">
<polygon fill="#ffffff" stroke="#000000" points="1980,-62 1980,-81 2070,-81 2070,-62 1980,-62"/>
<text text-anchor="middle" x="2025" y="-69" font-family="Helvetica,sans-Serif" font-size="10.00" fill="#000000">utils/String.hpp</text>
</a>
</g>
</g>
<!-- Node17&#45;&gt;Node26 -->
<g id="edge41" class="edge">
<title>Node17&#45;&gt;Node26</title>
<path fill="none" stroke="#191970" d="M2486.0959,-127.5423C2393.3788,-116.2733 2181.0277,-90.4638 2080.1556,-78.2037"/>
<polygon fill="#191970" stroke="#191970" points="2080.5158,-74.7218 2070.1666,-76.9896 2079.6712,-81.6707 2080.5158,-74.7218"/>
</g>
<!-- Node24&#45;&gt;Node16 -->
<g id="edge39" class="edge">
<title>Node24&#45;&gt;Node16</title>
<path fill="none" stroke="#191970" d="M1908.6681,-81.2484C1908.0139,-100.4662 1906.5461,-143.5834 1905.6786,-169.0662"/>
<polygon fill="#191970" stroke="#191970" points="1902.1697,-169.2712 1905.3273,-179.3845 1909.1656,-169.5094 1902.1697,-169.2712"/>
</g>
<!-- Node26&#45;&gt;Node27 -->
<g id="edge42" class="edge">
<title>Node26&#45;&gt;Node27</title>
<path fill="none" stroke="#191970" d="M1996.4158,-61.9685C1988.2894,-59.6228 1979.3713,-57.388 1971,-56 1793.8805,-26.632 1226.4727,-13.7119 1073.3732,-10.7074"/>
<polygon fill="#191970" stroke="#191970" points="1073.143,-7.2024 1063.0771,-10.5081 1073.0075,-14.2011 1073.143,-7.2024"/>
</g>
<!-- Node26&#45;&gt;Node11 -->
<g id="edge43" class="edge">
<title>Node26&#45;&gt;Node11</title>
<path fill="none" stroke="#191970" d="M2030.625,-61.8906C2035.8253,-53.0068 2043.6966,-39.5601 2050.1233,-28.5811"/>
<polygon fill="#191970" stroke="#191970" points="2053.2644,-30.1432 2055.2957,-19.7449 2047.2233,-26.6069 2053.2644,-30.1432"/>
</g>
<!-- Node28&#45;&gt;Node9 -->
<g id="edge45" class="edge">
<title>Node28&#45;&gt;Node9</title>
<path fill="none" stroke="#191970" d="M751.0785,-291.4309C725.7672,-256.4371 637.9837,-135.0739 604.8207,-89.2249"/>
<polygon fill="#191970" stroke="#191970" points="607.6477,-87.1614 598.951,-81.11 601.9758,-91.2639 607.6477,-87.1614"/>
</g>
<!-- Node71&#45;&gt;Node9 -->
<g id="edge47" class="edge">
<title>Node71&#45;&gt;Node9</title>
<path fill="none" stroke="#191970" d="M253.6989,-347.2238C269.7136,-331.3209 296.712,-306.5995 324,-291 365.7358,-267.1413 391.8458,-288.832 426,-255 470.3499,-211.0685 431.2652,-168.5042 474,-123 495.0735,-100.5609 527.6232,-87.3603 553.2028,-79.9522"/>
<polygon fill="#191970" stroke="#191970" points="554.2431,-83.2966 562.9778,-77.3002 552.4102,-76.5408 554.2431,-83.2966"/>
</g>
<!-- Node72&#45;&gt;Node2 -->
<g id="edge50" class="edge">
<title>Node72&#45;&gt;Node2</title>
<path fill="none" stroke="#191970" d="M1690.5353,-420.6998C1649.8938,-413.4622 1598.9064,-400.5746 1558,-378 1530.5546,-362.854 1505.4894,-336.1569 1490.7313,-318.5212"/>
<polygon fill="#191970" stroke="#191970" points="1493.3769,-316.2271 1484.3491,-310.6818 1487.9484,-320.6466 1493.3769,-316.2271"/>
</g>
<!-- Node72&#45;&gt;Node4 -->
<g id="edge54" class="edge">
<title>Node72&#45;&gt;Node4</title>
<path fill="none" stroke="#191970" d="M1693.9339,-414.46C1665.7513,-406.3132 1633.4437,-394.4668 1607,-378 1560.8473,-349.2602 1560.3577,-328.5102 1521,-291 1465.3364,-237.9493 1396.9315,-177.9664 1364.2116,-149.5807"/>
<polygon fill="#191970" stroke="#191970" points="1366.1803,-146.6556 1356.3294,-142.7554 1361.598,-151.9474 1366.1803,-146.6556"/>
</g>
<!-- Node72&#45;&gt;Node9 -->
<g id="edge51" class="edge">
<title>Node72&#45;&gt;Node9</title>
<path fill="none" stroke="#191970" d="M1690.6537,-428.8332C1438.0748,-426.1416 589.5175,-414.4139 545,-378 517.7162,-355.6827 526,-336.2487 526,-301 526,-301 526,-301 526,-189 526,-148.9589 555.4951,-109.9427 575.0502,-88.4753"/>
<polygon fill="#191970" stroke="#191970" points="577.6548,-90.815 581.976,-81.1414 572.5654,-86.0088 577.6548,-90.815"/>
</g>
<!-- Node72&#45;&gt;Node11 -->
<g id="edge53" class="edge">
<title>Node72&#45;&gt;Node11</title>
<path fill="none" stroke="#191970" d="M1779.451,-414.3216C1789.4347,-404.9704 1800.9347,-392.0954 1807,-378 1863.7647,-246.0812 1738.5224,-163.2792 1834,-56 1859.4284,-27.4285 1972.4203,-15.9186 2028.7926,-11.8907"/>
<polygon fill="#191970" stroke="#191970" points="2029.2074,-15.3707 2038.9479,-11.2026 2028.7341,-8.3867 2029.2074,-15.3707"/>
</g>
<!-- Node72&#45;&gt;Node16 -->
<g id="edge83" class="edge">
<title>Node72&#45;&gt;Node16</title>
<path fill="none" stroke="#191970" d="M1793.971,-414.458C1809.8074,-405.7789 1827.9207,-393.4946 1840,-378 1880.9874,-325.4238 1897.0638,-245.3123 1902.5346,-208.6079"/>
<polygon fill="#191970" stroke="#191970" points="1906.0033,-209.0746 1903.9078,-198.689 1899.0694,-208.1146 1906.0033,-209.0746"/>
</g>
<!-- Node72&#45;&gt;Node17 -->
<g id="edge82" class="edge">
<title>Node72&#45;&gt;Node17</title>
<path fill="none" stroke="#191970" d="M1831.1767,-427.5383C2021.0546,-421.8911 2532.3461,-404.3005 2557,-378 2616.5592,-314.4629 2564.9355,-197.02 2541.3075,-151.6051"/>
<polygon fill="#191970" stroke="#191970" points="2544.2893,-149.7591 2536.4871,-142.5914 2538.1166,-153.0602 2544.2893,-149.7591"/>
</g>
<!-- Node15 -->
<g id="node31" class="node">
<title>Node15</title>
<polygon fill="#ffffff" stroke="#bfbfbf" points="2384,-179.5 2384,-198.5 2440,-198.5 2440,-179.5 2384,-179.5"/>
<text text-anchor="middle" x="2412" y="-186.5" font-family="Helvetica,sans-Serif" font-size="10.00" fill="#000000">stddef.h</text>
</g>
<!-- Node72&#45;&gt;Node15 -->
<g id="edge52" class="edge">
<title>Node72&#45;&gt;Node15</title>
<path fill="none" stroke="#191970" d="M1831.2097,-426.4355C1994.8853,-418.9549 2389.4392,-398.8427 2409,-378 2452.5364,-331.6103 2431.8549,-247.0945 2419.2503,-208.7999"/>
<polygon fill="#191970" stroke="#191970" points="2422.3998,-207.1982 2415.8232,-198.8917 2415.7843,-209.4864 2422.3998,-207.1982"/>
</g>
<!-- Node72&#45;&gt;Node73 -->
<g id="edge55" class="edge">
<title>Node72&#45;&gt;Node73</title>
<path fill="none" stroke="#191970" d="M1806.6461,-414.4696C1829.2882,-405.7934 1856.3494,-393.5083 1878,-378 1924.6867,-344.5585 1967.0574,-290.8291 1987.3617,-263.003"/>
<polygon fill="#191970" stroke="#191970" points="1990.387,-264.7905 1993.376,-254.626 1984.7007,-260.708 1990.387,-264.7905"/>
</g>
<!-- Node74 -->
<g id="node34" class="node">
<title>Node74</title>
<g id="a_node34"><a xlink:href="Request_8hpp.html" target="_top" xlink:title="Request.hpp">
<polygon fill="#ffffff" stroke="#000000" points="1526.5,-179.5 1526.5,-198.5 1603.5,-198.5 1603.5,-179.5 1526.5,-179.5"/>
<text text-anchor="middle" x="1565" y="-186.5" font-family="Helvetica,sans-Serif" font-size="10.00" fill="#000000">Request.hpp</text>
</a>
</g>
</g>
<!-- Node72&#45;&gt;Node74 -->
<g id="edge80" class="edge">
<title>Node72&#45;&gt;Node74</title>
<path fill="none" stroke="#191970" d="M1695.0772,-414.3874C1673.2889,-406.6039 1650.4425,-395.0318 1634,-378 1587.1682,-329.4899 1571.7309,-246.6782 1566.97,-208.8745"/>
<polygon fill="#191970" stroke="#191970" points="1570.4179,-208.2165 1565.8123,-198.675 1563.4625,-209.006 1570.4179,-208.2165"/>
</g>
<!-- Node72&#45;&gt;Node39 -->
<g id="edge81" class="edge">
<title>Node72&#45;&gt;Node39</title>
<path fill="none" stroke="#191970" d="M1711.8621,-414.4302C1694.5609,-406.4949 1676.9581,-394.8105 1667,-378 1623.6298,-304.7859 1649.8733,-196.3894 1663.4171,-152.5032"/>
<polygon fill="#191970" stroke="#191970" points="1666.8091,-153.3876 1666.5367,-142.7962 1660.1448,-151.2458 1666.8091,-153.3876"/>
</g>
<!-- Node72&#45;&gt;Node75 -->
<g id="edge66" class="edge">
<title>Node72&#45;&gt;Node75</title>
<path fill="none" stroke="#191970" d="M1831.2402,-420.9122C1930.8036,-408.7393 2112.8863,-386.4774 2221.2276,-373.2313"/>
<polygon fill="#191970" stroke="#191970" points="2221.6527,-376.7055 2231.154,-372.0177 2220.8032,-369.7572 2221.6527,-376.7055"/>
</g>
<!-- Node72&#45;&gt;Node77 -->
<g id="edge84" class="edge">
<title>Node72&#45;&gt;Node77</title>
<path fill="none" stroke="#191970" d="M1755.554,-414.2967C1752.0688,-404.5672 1747.5197,-391.8675 1743.7982,-381.4784"/>
<polygon fill="#191970" stroke="#191970" points="1747.09,-380.2889 1740.4227,-372.055 1740.5,-382.6495 1747.09,-380.2889"/>
</g>
<!-- Node72&#45;&gt;Node29 -->
<g id="edge88" class="edge">
<title>Node72&#45;&gt;Node29</title>
<path fill="none" stroke="#191970" d="M1831.1207,-426.9809C2003.5437,-420.4907 2444.7053,-402.0109 2590,-378 2641.8039,-369.4391 2653.0856,-359.8321 2704,-347 2753.0554,-334.6364 2809.2575,-321.6953 2849.2205,-312.7002"/>
<polygon fill="#191970" stroke="#191970" points="2850.0259,-316.1066 2859.0164,-310.5011 2848.4926,-309.2766 2850.0259,-316.1066"/>
</g>
<!-- Node73&#45;&gt;Node4 -->
<g id="edge59" class="edge">
<title>Node73&#45;&gt;Node4</title>
<path fill="none" stroke="#191970" d="M1944.4376,-235.4993C1812.7373,-212.9795 1484.7055,-156.8886 1378.6502,-138.7539"/>
<polygon fill="#191970" stroke="#191970" points="1378.9726,-135.2583 1368.5257,-137.0227 1377.7927,-142.1582 1378.9726,-135.2583"/>
</g>
<!-- Node73&#45;&gt;Node11 -->
<g id="edge58" class="edge">
<title>Node73&#45;&gt;Node11</title>
<path fill="none" stroke="#191970" d="M2006.917,-235.2787C2023.4022,-211.4389 2064.6964,-147.5912 2079,-87 2082.1655,-73.5908 2081.5546,-69.5389 2079,-56 2077.2559,-46.7566 2073.7019,-36.9893 2070.2091,-28.844"/>
<polygon fill="#191970" stroke="#191970" points="2073.3024,-27.1923 2065.9585,-19.5556 2066.9372,-30.1052 2073.3024,-27.1923"/>
</g>
<!-- Node73&#45;&gt;Node16 -->
<g id="edge65" class="edge">
<title>Node73&#45;&gt;Node16</title>
<path fill="none" stroke="#191970" d="M1983.4523,-235.2455C1968.7401,-226.5731 1947.0112,-213.7645 1930.1495,-203.825"/>
<polygon fill="#191970" stroke="#191970" points="1931.7502,-200.7057 1921.3581,-198.6427 1928.1954,-206.736 1931.7502,-200.7057"/>
</g>
<!-- Node73&#45;&gt;Node15 -->
<g id="edge57" class="edge">
<title>Node73&#45;&gt;Node15</title>
<path fill="none" stroke="#191970" d="M2069.8902,-235.5004C2157.4569,-223.5981 2304.4156,-203.6231 2373.6803,-194.2085"/>
<polygon fill="#191970" stroke="#191970" points="2374.2771,-197.6597 2383.7145,-192.8446 2373.3342,-190.7234 2374.2771,-197.6597"/>
</g>
<!-- Node10 -->
<g id="node33" class="node">
<title>Node10</title>
<polygon fill="#ffffff" stroke="#bfbfbf" points="2189,-179.5 2189,-198.5 2221,-198.5 2221,-179.5 2189,-179.5"/>
<text text-anchor="middle" x="2205" y="-186.5" font-family="Helvetica,sans-Serif" font-size="10.00" fill="#000000">set</text>
</g>
<!-- Node73&#45;&gt;Node10 -->
<g id="edge56" class="edge">
<title>Node73&#45;&gt;Node10</title>
<path fill="none" stroke="#191970" d="M2035.2408,-235.3733C2076.0842,-224.216 2142.4374,-206.0903 2178.9151,-196.1256"/>
<polygon fill="#191970" stroke="#191970" points="2180.0667,-199.4394 2188.7909,-193.4278 2178.222,-192.6868 2180.0667,-199.4394"/>
</g>
<!-- Node73&#45;&gt;Node74 -->
<g id="edge60" class="edge">
<title>Node73&#45;&gt;Node74</title>
<path fill="none" stroke="#191970" d="M1930.4525,-238.0328C1853.7457,-230.0209 1726.7623,-215.79 1618,-199 1616.554,-198.7768 1615.0872,-198.5436 1613.6073,-198.3024"/>
<polygon fill="#191970" stroke="#191970" points="1614.1825,-194.85 1603.736,-196.617 1613.0043,-201.7502 1614.1825,-194.85"/>
</g>
<!-- Node73&#45;&gt;Node39 -->
<g id="edge64" class="edge">
<title>Node73&#45;&gt;Node39</title>
<path fill="none" stroke="#191970" d="M1963.968,-235.4279C1931.7707,-226.6573 1883.4251,-212.9512 1842,-199 1792.8934,-182.4618 1737.056,-160.4234 1702.6736,-146.4697"/>
<polygon fill="#191970" stroke="#191970" points="1703.7274,-143.1198 1693.146,-142.5869 1701.0856,-149.6021 1703.7274,-143.1198"/>
</g>
<!-- Node74&#45;&gt;Node4 -->
<g id="edge61" class="edge">
<title>Node74&#45;&gt;Node4</title>
<path fill="none" stroke="#191970" d="M1527.1807,-179.3733C1485.3647,-168.7292 1418.6329,-151.7429 1378.5929,-141.5509"/>
<polygon fill="#191970" stroke="#191970" points="1379.3318,-138.1275 1368.7774,-139.0524 1377.605,-144.9111 1379.3318,-138.1275"/>
</g>
<!-- Node74&#45;&gt;Node39 -->
<g id="edge62" class="edge">
<title>Node74&#45;&gt;Node39</title>
<path fill="none" stroke="#191970" d="M1583.2896,-179.2455C1599.7762,-170.4527 1624.2352,-157.4079 1642.9765,-147.4125"/>
<polygon fill="#191970" stroke="#191970" points="1644.7435,-150.4368 1651.92,-142.6427 1641.4494,-144.2604 1644.7435,-150.4368"/>
</g>
<!-- Node39&#45;&gt;Node9 -->
<g id="edge63" class="edge">
<title>Node39&#45;&gt;Node9</title>
<path fill="none" stroke="#191970" d="M1605.3948,-129.3143C1404.2467,-117.8387 792.9821,-82.966 631.4815,-73.7524"/>
<polygon fill="#191970" stroke="#191970" points="631.255,-70.2339 621.0719,-73.1586 630.8563,-77.2225 631.255,-70.2339"/>
</g>
<!-- Node75&#45;&gt;Node6 -->
<g id="edge67" class="edge">
<title>Node75&#45;&gt;Node6</title>
<path fill="none" stroke="#191970" d="M2232.6375,-352.9798C2212.9087,-350.7621 2191.6836,-348.5879 2172,-347 2148.4683,-345.1017 1409.186,-309.9394 1250.7173,-302.4111"/>
<polygon fill="#191970" stroke="#191970" points="1250.4839,-298.8962 1240.3291,-301.9177 1250.1518,-305.8883 1250.4839,-298.8962"/>
</g>
<!-- Node75&#45;&gt;Node11 -->
<g id="edge71" class="edge">
<title>Node75&#45;&gt;Node11</title>
<path fill="none" stroke="#191970" d="M2389.0608,-352.9976C2408.3454,-350.8677 2428.8957,-348.7296 2448,-347 2530.0039,-339.576 3182,-327.3393 3182,-245 3182,-245 3182,-245 3182,-133 3182,-97.7513 3190.2906,-78.309 3163,-56 3120.5249,-21.2783 2270.752,-11.8572 2093.3041,-10.2652"/>
<polygon fill="#191970" stroke="#191970" points="2093.0864,-6.7633 2083.0561,-10.1754 2093.025,-13.763 2093.0864,-6.7633"/>
</g>
<!-- Node75&#45;&gt;Node16 -->
<g id="edge79" class="edge">
<title>Node75&#45;&gt;Node16</title>
<path fill="none" stroke="#191970" d="M2305.2262,-352.7428C2295.1543,-328.1619 2265.0859,-263.6178 2217,-235 2176.418,-210.8481 2048.8583,-198.3583 1969.9673,-192.7804"/>
<polygon fill="#191970" stroke="#191970" points="1969.8644,-189.2651 1959.6478,-192.0704 1969.3839,-196.2486 1969.8644,-189.2651"/>
</g>
<!-- Node75&#45;&gt;Node15 -->
<g id="edge70" class="edge">
<title>Node75&#45;&gt;Node15</title>
<path fill="none" stroke="#191970" d="M2314.6844,-352.9248C2331.1766,-325.1443 2379.2458,-244.1733 2401.0355,-207.4693"/>
<polygon fill="#191970" stroke="#191970" points="2404.1109,-209.1451 2406.2062,-198.7595 2398.0917,-205.5717 2404.1109,-209.1451"/>
</g>
<!-- Node75&#45;&gt;Node10 -->
<g id="edge69" class="edge">
<title>Node75&#45;&gt;Node10</title>
<path fill="none" stroke="#191970" d="M2309.1624,-352.7682C2309.0415,-338.5457 2307.4371,-311.5426 2298,-291 2281.5008,-255.0848 2247.6598,-223.11 2225.6705,-204.9056"/>
<polygon fill="#191970" stroke="#191970" points="2227.8645,-202.1786 2217.884,-198.6233 2223.469,-207.6265 2227.8645,-202.1786"/>
</g>
<!-- Node36 -->
<g id="node37" class="node">
<title>Node36</title>
<polygon fill="#ffffff" stroke="#bfbfbf" points="2164,-235.5 2164,-254.5 2208,-254.5 2208,-235.5 2164,-235.5"/>
<text text-anchor="middle" x="2186" y="-242.5" font-family="Helvetica,sans-Serif" font-size="10.00" fill="#000000">mpi.h</text>
</g>
<!-- Node75&#45;&gt;Node36 -->
<g id="edge68" class="edge">
<title>Node75&#45;&gt;Node36</title>
<path fill="none" stroke="#191970" d="M2298.9344,-352.8845C2278.032,-332.9167 2229.697,-286.743 2203.5515,-261.7667"/>
<polygon fill="#191970" stroke="#191970" points="2205.8533,-259.1251 2196.2047,-254.7484 2201.0179,-264.1868 2205.8533,-259.1251"/>
</g>
<!-- Node76 -->
<g id="node38" class="node">
<title>Node76</title>
<g id="a_node38"><a xlink:href="MPICommunication_8hpp.html" target="_top" xlink:title="MPICommunication.hpp">
<polygon fill="#ffffff" stroke="#000000" points="2048,-291.5 2048,-310.5 2180,-310.5 2180,-291.5 2048,-291.5"/>
<text text-anchor="middle" x="2114" y="-298.5" font-family="Helvetica,sans-Serif" font-size="10.00" fill="#000000">MPICommunication.hpp</text>
</a>
</g>
</g>
<!-- Node75&#45;&gt;Node76 -->
<g id="edge72" class="edge">
<title>Node75&#45;&gt;Node76</title>
<path fill="none" stroke="#191970" d="M2278.5313,-352.8906C2245.0456,-342.3298 2191.1147,-325.3208 2154.188,-313.6747"/>
<polygon fill="#191970" stroke="#191970" points="2154.8445,-310.2118 2144.2548,-310.5419 2152.739,-316.8877 2154.8445,-310.2118"/>
</g>
<!-- Node76&#45;&gt;Node4 -->
<g id="edge75" class="edge">
<title>Node76&#45;&gt;Node4</title>
<path fill="none" stroke="#191970" d="M2047.8974,-295.2851C1936.5528,-284.4276 1705.3996,-256.572 1518,-199 1497.4662,-192.6917 1493.9119,-187.059 1474,-179 1441.8951,-166.0061 1404.5604,-152.9062 1378.3417,-144.0279"/>
<polygon fill="#191970" stroke="#191970" points="1379.1206,-140.5972 1368.5265,-140.7256 1376.8883,-147.2318 1379.1206,-140.5972"/>
</g>
<!-- Node76&#45;&gt;Node11 -->
<g id="edge74" class="edge">
<title>Node76&#45;&gt;Node11</title>
<path fill="none" stroke="#191970" d="M2117.2462,-291.2386C2123.3658,-271.9402 2136,-227.4431 2136,-189 2136,-189 2136,-189 2136,-133 2136,-89.5964 2101.5352,-48.516 2079.3321,-26.5543"/>
<polygon fill="#191970" stroke="#191970" points="2081.7143,-23.9896 2072.0665,-19.6111 2076.878,-29.0504 2081.7143,-23.9896"/>
</g>
<!-- Node76&#45;&gt;Node16 -->
<g id="edge78" class="edge">
<title>Node76&#45;&gt;Node16</title>
<path fill="none" stroke="#191970" d="M2111.5521,-291.3222C2107.3797,-276.8418 2097.49,-249.6737 2079,-235 2061.9493,-221.4685 2011.9168,-209.0403 1969.8544,-200.5226"/>
<polygon fill="#191970" stroke="#191970" points="1970.4028,-197.0633 1959.913,-198.551 1969.041,-203.9296 1970.4028,-197.0633"/>
</g>
<!-- Node76&#45;&gt;Node73 -->
<g id="edge76" class="edge">
<title>Node76&#45;&gt;Node73</title>
<path fill="none" stroke="#191970" d="M2094.4027,-291.3733C2076.2669,-282.4644 2049.0865,-269.1127 2028.5413,-259.0203"/>
<polygon fill="#191970" stroke="#191970" points="2029.8603,-255.7688 2019.3416,-254.5011 2026.7739,-262.0517 2029.8603,-255.7688"/>
</g>
<!-- Node76&#45;&gt;Node39 -->
<g id="edge77" class="edge">
<title>Node76&#45;&gt;Node39</title>
<path fill="none" stroke="#191970" d="M2065.3022,-291.4848C2026.1489,-283.3218 1969.9604,-270.4473 1922,-255 1859.3882,-234.8337 1844.1007,-227.8795 1785,-199 1752.6432,-183.1889 1716.8858,-162.0542 1693.9681,-148.0073"/>
<polygon fill="#191970" stroke="#191970" points="1695.617,-144.912 1685.2692,-142.6374 1691.94,-150.8685 1695.617,-144.912"/>
</g>
<!-- Node76&#45;&gt;Node36 -->
<g id="edge73" class="edge">
<title>Node76&#45;&gt;Node36</title>
<path fill="none" stroke="#191970" d="M2126.5414,-291.2455C2137.2787,-282.8943 2152.9473,-270.7076 2165.5047,-260.9408"/>
<polygon fill="#191970" stroke="#191970" points="2167.8575,-263.5449 2173.6023,-254.6427 2163.5599,-258.0194 2167.8575,-263.5449"/>
</g>
<!-- Node77&#45;&gt;Node2 -->
<g id="edge85" class="edge">
<title>Node77&#45;&gt;Node2</title>
<path fill="none" stroke="#191970" d="M1696.6603,-352.9581C1649.2542,-341.7447 1570.8335,-323.1952 1521.6399,-311.5591"/>
<polygon fill="#191970" stroke="#191970" points="1522.145,-308.082 1511.6079,-309.1861 1520.5337,-314.894 1522.145,-308.082"/>
</g>
<!-- Node77&#45;&gt;Node16 -->
<g id="edge87" class="edge">
<title>Node77&#45;&gt;Node16</title>
<path fill="none" stroke="#191970" d="M1744.7658,-352.7841C1762.4696,-330.8561 1807.5757,-276.2257 1850,-235 1860.8481,-224.4584 1873.7898,-213.56 1884.3934,-205.0187"/>
<polygon fill="#191970" stroke="#191970" points="1886.6602,-207.6879 1892.3113,-198.7259 1882.3049,-202.2078 1886.6602,-207.6879"/>
</g>
<!-- Node77&#45;&gt;Node39 -->
<g id="edge86" class="edge">
<title>Node77&#45;&gt;Node39</title>
<path fill="none" stroke="#191970" d="M1734.2892,-352.9344C1726.5611,-325.7035 1703.7053,-245.4436 1684,-179 1681.3924,-170.2077 1678.4447,-160.4903 1675.9289,-152.2609"/>
<polygon fill="#191970" stroke="#191970" points="1679.2144,-151.0366 1672.9354,-142.5029 1672.5222,-153.0896 1679.2144,-151.0366"/>
</g>
<!-- Node29&#45;&gt;Node27 -->
<g id="edge91" class="edge">
<title>Node29&#45;&gt;Node27</title>
<path fill="none" stroke="#191970" d="M2848.3048,-292.8867C2799.9306,-285.0329 2727.0914,-271.8516 2665,-255 2566.7839,-228.3441 2548.1206,-202.0662 2449,-179 2175.0149,-115.2414 1270.8218,-31.2954 1073.3242,-13.4325"/>
<polygon fill="#191970" stroke="#191970" points="1073.4232,-9.9273 1063.149,-12.5142 1072.7939,-16.8989 1073.4232,-9.9273"/>
</g>
<!-- Node29&#45;&gt;Node18 -->
<g id="edge93" class="edge">
<title>Node29&#45;&gt;Node18</title>
<path fill="none" stroke="#191970" d="M2955.733,-291.5518C2976.6289,-284.9683 2998.5101,-273.8276 3011,-255 3043.4312,-206.1125 3045.9564,-170.115 3011,-123 3004.3664,-114.0591 2951.125,-98.8184 2905.9676,-87.2299"/>
<polygon fill="#191970" stroke="#191970" points="2906.7335,-83.8134 2896.1794,-84.742 2905.009,-90.5977 2906.7335,-83.8134"/>
</g>
<!-- Node29&#45;&gt;Node20 -->
<g id="edge94" class="edge">
<title>Node29&#45;&gt;Node20</title>
<path fill="none" stroke="#191970" d="M2955.5001,-292.8826C2981.0218,-286.4914 3010.226,-275.1312 3030,-255 3048.4174,-236.2499 3044.7207,-224.9317 3049,-199 3054.6519,-164.751 3050.3218,-151.8376 3031,-123 3023.3298,-111.5523 3012.4168,-101.2288 3001.9366,-92.8828"/>
<polygon fill="#191970" stroke="#191970" points="3003.7769,-89.8857 2993.6947,-86.6298 2999.5459,-95.4624 3003.7769,-89.8857"/>
</g>
<!-- Node29&#45;&gt;Node21 -->
<g id="edge95" class="edge">
<title>Node29&#45;&gt;Node21</title>
<path fill="none" stroke="#191970" d="M2949.5435,-291.4425C2987.2893,-282.9347 3035.975,-269.6034 3050,-255 3091.9637,-211.3056 3098.9325,-135.8137 3099.5227,-96.6709"/>
<polygon fill="#191970" stroke="#191970" points="3103.0227,-96.6585 3099.5438,-86.6511 3096.0227,-96.6437 3103.0227,-96.6585"/>
</g>
<!-- Node29&#45;&gt;Node22 -->
<g id="edge96" class="edge">
<title>Node29&#45;&gt;Node22</title>
<path fill="none" stroke="#191970" d="M2929.3326,-291.4414C2956.4622,-280.2934 2992.114,-260.1438 2978,-235 2934.4805,-157.4709 2837.6051,-112.3594 2773.0423,-89.8316"/>
<polygon fill="#191970" stroke="#191970" points="2773.9608,-86.4471 2763.3664,-86.5394 2771.706,-93.074 2773.9608,-86.4471"/>
</g>
<!-- Node30 -->
<g id="node41" class="node">
<title>Node30</title>
<polygon fill="#ffffff" stroke="#bfbfbf" points="2839,-235.5 2839,-254.5 2891,-254.5 2891,-235.5 2839,-235.5"/>
<text text-anchor="middle" x="2865" y="-242.5" font-family="Helvetica,sans-Serif" font-size="10.00" fill="#000000">cassert</text>
</g>
<!-- Node29&#45;&gt;Node30 -->
<g id="edge89" class="edge">
<title>Node29&#45;&gt;Node30</title>
<path fill="none" stroke="#191970" d="M2895.5551,-291.2455C2890.4618,-283.5367 2883.2092,-272.5598 2877.048,-263.2348"/>
<polygon fill="#191970" stroke="#191970" points="2879.8038,-261.0566 2871.3711,-254.6427 2873.9635,-264.9155 2879.8038,-261.0566"/>
</g>
<!-- Node31 -->
<g id="node42" class="node">
<title>Node31</title>
<polygon fill="#ffffff" stroke="#bfbfbf" points="2909,-235.5 2909,-254.5 2969,-254.5 2969,-235.5 2909,-235.5"/>
<text text-anchor="middle" x="2939" y="-242.5" font-family="Helvetica,sans-Serif" font-size="10.00" fill="#000000">iostream</text>
</g>
<!-- Node29&#45;&gt;Node31 -->
<g id="edge90" class="edge">
<title>Node29&#45;&gt;Node31</title>
<path fill="none" stroke="#191970" d="M2908.4449,-291.2455C2913.5382,-283.5367 2920.7908,-272.5598 2926.952,-263.2348"/>
<polygon fill="#191970" stroke="#191970" points="2930.0365,-264.9155 2932.6289,-254.6427 2924.1962,-261.0566 2930.0365,-264.9155"/>
</g>
<!-- Node32 -->
<g id="node43" class="node">
<title>Node32</title>
<polygon fill="#ffffff" stroke="#bfbfbf" points="2673.5,-235.5 2673.5,-254.5 2820.5,-254.5 2820.5,-235.5 2673.5,-235.5"/>
<text text-anchor="middle" x="2747" y="-242.5" font-family="Helvetica,sans-Serif" font-size="10.00" fill="#000000">boost/current_function.hpp</text>
</g>
<!-- Node29&#45;&gt;Node32 -->
<g id="edge92" class="edge">
<title>Node29&#45;&gt;Node32</title>
<path fill="none" stroke="#191970" d="M2875.3546,-291.3733C2849.8036,-282.1419 2811.0488,-268.1402 2782.8091,-257.9375"/>
<polygon fill="#191970" stroke="#191970" points="2783.8921,-254.6074 2773.2978,-254.5011 2781.5135,-261.1909 2783.8921,-254.6074"/>
</g>
<!-- Node78&#45;&gt;Node2 -->
<g id="edge98" class="edge">
<title>Node78&#45;&gt;Node2</title>
<path fill="none" stroke="#191970" d="M1295.3002,-481.3228C1316.9019,-452.8153 1380.581,-369.7296 1406,-347 1419.4718,-334.9535 1436.396,-323.8602 1450.3414,-315.5867"/>
<polygon fill="#191970" stroke="#191970" points="1452.1038,-318.6107 1459.0092,-310.5755 1448.6001,-312.5507 1452.1038,-318.6107"/>
</g>
<!-- Node78&#45;&gt;Node9 -->
<g id="edge100" class="edge">
<title>Node78&#45;&gt;Node9</title>
<path fill="none" stroke="#191970" d="M1183.8502,-490.1423C972.343,-487.7064 507.0534,-478.5577 443,-445 373.559,-408.6197 312.9271,-355.8318 357,-291 381.4524,-255.0301 414.2453,-282.4295 448,-255 502.5291,-210.689 489.2326,-176.3126 535,-123 546.0449,-110.1342 560.1784,-97.3451 571.6083,-87.73"/>
<polygon fill="#191970" stroke="#191970" points="573.8787,-90.3943 579.3704,-81.3339 569.4272,-84.9921 573.8787,-90.3943"/>
</g>
<!-- Node78&#45;&gt;Node45 -->
<g id="edge99" class="edge">
<title>Node78&#45;&gt;Node45</title>
<path fill="none" stroke="#191970" d="M1183.9983,-487.9482C1016.9133,-482.413 696.1853,-469.009 585,-445 502.3746,-427.1582 460.7427,-443.2457 407,-378 393.9038,-362.1007 391.7737,-337.9509 392.2059,-320.9445"/>
<polygon fill="#191970" stroke="#191970" points="395.7266,-320.6871 392.8113,-310.5013 388.7384,-320.282 395.7266,-320.6871"/>
</g>
<!-- Node78&#45;&gt;Node11 -->
<g id="edge101" class="edge">
<title>Node78&#45;&gt;Node11</title>
<path fill="none" stroke="#191970" d="M1284.743,-481.4957C1269.2634,-434.386 1208.085,-224.1496 1312,-123 1364.412,-71.9828 1891.3994,-24.2962 2028.5256,-12.6814"/>
<polygon fill="#191970" stroke="#191970" points="2029.1199,-16.1438 2038.7913,-11.8178 2028.5331,-9.1685 2029.1199,-16.1438"/>
</g>
<!-- Node78&#45;&gt;Node69 -->
<g id="edge110" class="edge">
<title>Node78&#45;&gt;Node69</title>
<path fill="none" stroke="#191970" d="M1241.1969,-481.4989C1127.2747,-458.3725 835.8443,-399.2117 712.0291,-374.077"/>
<polygon fill="#191970" stroke="#191970" points="712.4884,-370.5989 701.992,-372.0394 711.0958,-377.459 712.4884,-370.5989"/>
</g>
<!-- Node78&#45;&gt;Node16 -->
<g id="edge113" class="edge">
<title>Node78&#45;&gt;Node16</title>
<path fill="none" stroke="#191970" d="M1291.2238,-481.3811C1296.4313,-466.425 1307.4887,-436.931 1321,-414 1358.6847,-350.0424 1368.0855,-325.1466 1434,-291 1567.5438,-221.8184 1745.7786,-199.5009 1840.0941,-192.3438"/>
<polygon fill="#191970" stroke="#191970" points="1840.6196,-195.815 1850.3404,-191.6012 1840.1136,-188.8333 1840.6196,-195.815"/>
</g>
<!-- Node78&#45;&gt;Node17 -->
<g id="edge112" class="edge">
<title>Node78&#45;&gt;Node17</title>
<path fill="none" stroke="#191970" d="M1392.372,-488.9448C1616.1951,-484.1065 2136.1693,-470.4439 2311,-445 2432.9237,-427.2559 2492.0828,-464.3181 2580,-378 2643.162,-315.9869 2616.56,-255.4818 2572,-179 2565.7966,-168.3527 2556.875,-157.9739 2548.9372,-149.7777"/>
<polygon fill="#191970" stroke="#191970" points="2551.3145,-147.206 2541.749,-142.6506 2546.3859,-152.1769 2551.3145,-147.206"/>
</g>
<!-- Node78&#45;&gt;Node71 -->
<g id="edge111" class="edge">
<title>Node78&#45;&gt;Node71</title>
<path fill="none" stroke="#191970" d="M1183.6492,-490.2485C950,-487.9624 399.16,-478.994 322,-445 293.657,-432.5131 269.6381,-405.6438 254.8437,-385.9485"/>
<polygon fill="#191970" stroke="#191970" points="257.6006,-383.7883 248.8976,-377.7461 251.9331,-387.8968 257.6006,-383.7883"/>
</g>
<!-- Node78&#45;&gt;Node72 -->
<g id="edge102" class="edge">
<title>Node78&#45;&gt;Node72</title>
<path fill="none" stroke="#191970" d="M1361.1283,-481.4918C1447.6463,-470.2426 1591.2078,-451.5766 1680.7298,-439.9368"/>
<polygon fill="#191970" stroke="#191970" points="1681.3678,-443.3834 1690.8331,-438.6232 1680.4652,-436.4418 1681.3678,-443.3834"/>
</g>
<!-- Node78&#45;&gt;Node29 -->
<g id="edge114" class="edge">
<title>Node78&#45;&gt;Node29</title>
<path fill="none" stroke="#191970" d="M1392.1933,-490.3718C1686.582,-488.1832 2510.8226,-479.0539 2628,-445 2684.4344,-428.5991 2692.777,-410.108 2742,-378 2761.7328,-365.1284 2764.32,-358.2872 2785,-347 2809.6422,-333.5502 2839.0582,-322.0033 2862.2301,-313.8424"/>
<polygon fill="#191970" stroke="#191970" points="2863.4364,-317.1288 2871.7464,-310.5566 2861.1517,-310.5121 2863.4364,-317.1288"/>
</g>
<!-- Node78&#45;&gt;Node80 -->
<g id="edge103" class="edge">
<title>Node78&#45;&gt;Node80</title>
<path fill="none" stroke="#191970" d="M1392.1068,-485.66C1527.773,-478.1236 1757.423,-463.2312 1840,-445 1912.5557,-428.9812 1993.3791,-395.1625 2035.6247,-376.1745"/>
<polygon fill="#191970" stroke="#191970" points="2037.113,-379.3428 2044.7725,-372.0227 2034.22,-372.9685 2037.113,-379.3428"/>
</g>
<!-- Node80&#45;&gt;Node2 -->
<g id="edge104" class="edge">
<title>Node80&#45;&gt;Node2</title>
<path fill="none" stroke="#191970" d="M1974.0921,-352.9918C1846.1041,-339.6053 1617.6971,-315.7158 1521.5752,-305.6622"/>
<polygon fill="#191970" stroke="#191970" points="1521.916,-302.1788 1511.6061,-304.6195 1521.1877,-309.1409 1521.916,-302.1788"/>
</g>
<!-- Node80&#45;&gt;Node4 -->
<g id="edge105" class="edge">
<title>Node80&#45;&gt;Node4</title>
<path fill="none" stroke="#191970" d="M2016.7049,-352.9629C1914.3292,-331.9248 1668.9152,-277.1241 1474,-199 1436.7296,-184.0616 1395.7886,-162.0951 1370.2418,-147.671"/>
<polygon fill="#191970" stroke="#191970" points="1371.6652,-144.4538 1361.2442,-142.5425 1368.1988,-150.5353 1371.6652,-144.4538"/>
</g>
<!-- Node80&#45;&gt;Node40 -->
<g id="edge106" class="edge">
<title>Node80&#45;&gt;Node40</title>
<path fill="none" stroke="#191970" d="M1967.2993,-356.5777C1919.0526,-353.6666 1859.9697,-350.1217 1807,-347 1533.9431,-330.9079 1208.1627,-312.2513 1073.7397,-304.5769"/>
<polygon fill="#191970" stroke="#191970" points="1073.8109,-301.0753 1063.6277,-303.9997 1073.4119,-308.064 1073.8109,-301.0753"/>
</g>
<!-- Node80&#45;&gt;Node16 -->
<g id="edge108" class="edge">
<title>Node80&#45;&gt;Node16</title>
<path fill="none" stroke="#191970" d="M2044.7084,-352.9192C2013.41,-337.0727 1953.668,-302.3855 1922,-255 1912.7658,-241.1827 1908.547,-222.6603 1906.6199,-208.7547"/>
<polygon fill="#191970" stroke="#191970" points="1910.0937,-208.3244 1905.5136,-198.7707 1903.1363,-209.0953 1910.0937,-208.3244"/>
</g>
<!-- Node80&#45;&gt;Node17 -->
<g id="edge107" class="edge">
<title>Node80&#45;&gt;Node17</title>
<path fill="none" stroke="#191970" d="M2092.9111,-352.9457C2118.5971,-343.6833 2157.3859,-328.4939 2189,-311 2277.6945,-261.9201 2283.8101,-223.2714 2375,-179 2407.0638,-163.4335 2445.4362,-152.0341 2476.1,-144.477"/>
<polygon fill="#191970" stroke="#191970" points="2477.2741,-147.7948 2486.1832,-142.061 2475.6429,-140.9875 2477.2741,-147.7948"/>
</g>
<!-- Node80&#45;&gt;Node29 -->
<g id="edge109" class="edge">
<title>Node80&#45;&gt;Node29</title>
<path fill="none" stroke="#191970" d="M2148.5211,-352.9933C2168.638,-350.8636 2190.0742,-348.7266 2210,-347 2440.7836,-327.0026 2715.5274,-311.0817 2837.8091,-304.4046"/>
<polygon fill="#191970" stroke="#191970" points="2838.3125,-307.8825 2848.1077,-303.8445 2837.9323,-300.8929 2838.3125,-307.8825"/>
</g>
<!-- Node13&#45;&gt;Node2 -->
<g id="edge129" class="edge">
<title>Node13&#45;&gt;Node2</title>
<path fill="none" stroke="#191970" d="M2197.884,-420.6974C2139.5963,-410.7545 2042.4123,-393.8841 1959,-378 1891.2709,-365.1025 1874.9541,-358.6539 1807,-347 1705.4674,-329.5875 1585.501,-314.1403 1521.882,-306.3505"/>
<polygon fill="#191970" stroke="#191970" points="1522.1436,-302.8566 1511.7938,-305.1217 1521.2972,-309.8052 1522.1436,-302.8566"/>
</g>
<!-- Node13&#45;&gt;Node28 -->
<g id="edge135" class="edge">
<title>Node13&#45;&gt;Node28</title>
<path fill="none" stroke="#191970" d="M2197.9124,-427.5448C1958.0089,-418.5254 970.4769,-381.237 955,-378 891.9797,-364.8194 822.8756,-333.5746 785.5825,-315.1922"/>
<polygon fill="#191970" stroke="#191970" points="786.8841,-311.9302 776.3738,-310.5944 783.7571,-318.1929 786.8841,-311.9302"/>
</g>
<!-- Node13&#45;&gt;Node29 -->
<g id="edge136" class="edge">
<title>Node13&#45;&gt;Node29</title>
<path fill="none" stroke="#191970" d="M2302.245,-426.5784C2405.2955,-420.3255 2631.0751,-404.0588 2704,-378 2727.9147,-369.4544 2728.9748,-357.7135 2752,-347 2783.5069,-332.3399 2820.864,-320.8673 2850.4154,-313.0461"/>
<polygon fill="#191970" stroke="#191970" points="2851.3145,-316.4288 2860.1183,-310.5343 2849.5602,-309.6522 2851.3145,-316.4288"/>
</g>
<!-- Node14 -->
<g id="node47" class="node">
<title>Node14</title>
<g id="a_node47"><a xlink:href="Data_8hpp.html" target="_top" xlink:title="mesh/Data.hpp">
<polygon fill="#ffffff" stroke="#000000" points="2456.5,-353 2456.5,-372 2547.5,-372 2547.5,-353 2456.5,-353"/>
<text text-anchor="middle" x="2502" y="-360" font-family="Helvetica,sans-Serif" font-size="10.00" fill="#000000">mesh/Data.hpp</text>
</a>
</g>
</g>
<!-- Node13&#45;&gt;Node14 -->
<g id="edge130" class="edge">
<title>Node13&#45;&gt;Node14</title>
<path fill="none" stroke="#191970" d="M2285.8378,-419.9717C2330.5862,-408.0743 2407.1957,-387.7059 2456.1689,-374.6852"/>
<polygon fill="#191970" stroke="#191970" points="2457.1129,-378.056 2465.8778,-372.1039 2455.3142,-371.291 2457.1129,-378.056"/>
</g>
<!-- Node14&#45;&gt;Node2 -->
<g id="edge131" class="edge">
<title>Node14&#45;&gt;Node2</title>
<path fill="none" stroke="#191970" d="M2456.2613,-353.7941C2441.2539,-351.2279 2424.4608,-348.6643 2409,-347 2069.4739,-310.4516 1657.1913,-302.9037 1522.1651,-301.3776"/>
<polygon fill="#191970" stroke="#191970" points="1521.8491,-297.8741 1511.812,-301.2664 1521.7738,-304.8737 1521.8491,-297.8741"/>
</g>
<!-- Node14&#45;&gt;Node11 -->
<g id="edge133" class="edge">
<title>Node14&#45;&gt;Node11</title>
<path fill="none" stroke="#191970" d="M2547.5618,-359.8237C2661.032,-352.8998 2953.9456,-333.3678 3049,-311 3128.2984,-292.3398 3220,-326.4644 3220,-245 3220,-245 3220,-245 3220,-133 3220,-95.59 3216.9195,-77.0592 3186,-56 3139.6893,-24.458 2273.6544,-12.5143 2093.6125,-10.3671"/>
<polygon fill="#191970" stroke="#191970" points="2093.4907,-6.8655 2083.4502,-10.2477 2093.4084,-13.865 2093.4907,-6.8655"/>
</g>
<!-- Node14&#45;&gt;Node16 -->
<g id="edge134" class="edge">
<title>Node14&#45;&gt;Node16</title>
<path fill="none" stroke="#191970" d="M2486.9577,-352.908C2448.2359,-328.7145 2341.2638,-265.0048 2243,-235 2150.7404,-206.8286 2039.0461,-195.8838 1970.0008,-191.649"/>
<polygon fill="#191970" stroke="#191970" points="1969.9001,-188.1372 1959.7131,-191.0484 1969.4921,-195.1253 1969.9001,-188.1372"/>
</g>
<!-- Node14&#45;&gt;Node15 -->
<g id="edge132" class="edge">
<title>Node14&#45;&gt;Node15</title>
<path fill="none" stroke="#191970" d="M2499.1458,-352.757C2492.472,-330.7732 2474.5342,-276.0364 2450,-235 2443.8606,-224.7311 2435.5259,-214.3647 2428.2266,-206.0791"/>
<polygon fill="#191970" stroke="#191970" points="2430.7108,-203.6086 2421.392,-198.5677 2425.5333,-208.3197 2430.7108,-203.6086"/>
</g>
<!-- Node81&#45;&gt;Node2 -->
<g id="edge140" class="edge">
<title>Node81&#45;&gt;Node2</title>
<path fill="none" stroke="#191970" d="M2776.0772,-489.3792C2524.5884,-484.2905 1787.9603,-467.6161 1682,-445 1603.7888,-428.3067 1573.6813,-432.3337 1515,-378 1498.2205,-362.4637 1487.9059,-337.8992 1482.3332,-320.7045"/>
<polygon fill="#191970" stroke="#191970" points="1485.5442,-319.2235 1479.3357,-310.6384 1478.8353,-321.2214 1485.5442,-319.2235"/>
</g>
<!-- Node81&#45;&gt;Node4 -->
<g id="edge142" class="edge">
<title>Node81&#45;&gt;Node4</title>
<path fill="none" stroke="#191970" d="M2776.3668,-490.3506C2507.5483,-487.9429 1676.3318,-477.893 1560,-445 1435.1271,-409.6919 1306,-430.7686 1306,-301 1306,-301 1306,-301 1306,-245 1306,-210.5398 1322.6696,-173.2666 1334.2124,-151.5877"/>
<polygon fill="#191970" stroke="#191970" points="1337.3006,-153.2355 1339.0767,-142.7906 1331.1748,-149.8481 1337.3006,-153.2355"/>
</g>
<!-- Node81&#45;&gt;Node29 -->
<g id="edge146" class="edge">
<title>Node81&#45;&gt;Node29</title>
<path fill="none" stroke="#191970" d="M2874.7998,-481.2212C2886.5317,-472.8181 2902.6246,-459.748 2913,-445 2931.3787,-418.8758 2933.1218,-409.3958 2939,-378 2941.5355,-364.4575 2943.5777,-359.9951 2939,-347 2935.1691,-336.125 2927.5598,-325.9246 2920.2328,-317.9061"/>
<polygon fill="#191970" stroke="#191970" points="2922.6466,-315.3686 2913.1502,-310.6707 2917.6443,-320.2652 2922.6466,-315.3686"/>
</g>
<!-- Node82 -->
<g id="node49" class="node">
<title>Node82</title>
<polygon fill="#ffffff" stroke="#bfbfbf" points="2876.5,-353 2876.5,-372 2929.5,-372 2929.5,-353 2876.5,-353"/>
<text text-anchor="middle" x="2903" y="-360" font-family="Helvetica,sans-Serif" font-size="10.00" fill="#000000">iterator</text>
</g>
<!-- Node81&#45;&gt;Node82 -->
<g id="edge141" class="edge">
<title>Node81&#45;&gt;Node82</title>
<path fill="none" stroke="#191970" d="M2870.2061,-481.4963C2878.729,-472.8736 2890.3635,-459.3469 2896,-445 2903.9434,-424.7811 2904.9478,-399.6834 2904.4375,-382.5132"/>
<polygon fill="#191970" stroke="#191970" points="2907.9091,-381.8607 2903.909,-372.05 2900.9181,-382.2139 2907.9091,-381.8607"/>
</g>
<!-- Node83 -->
<g id="node50" class="node">
<title>Node83</title>
<g id="a_node50"><a xlink:href="algorithm_8hpp.html" target="_top" xlink:title="utils/algorithm.hpp">
<polygon fill="#ffffff" stroke="#ff0000" points="2777.5,-420 2777.5,-439 2886.5,-439 2886.5,-420 2777.5,-420"/>
<text text-anchor="middle" x="2832" y="-427" font-family="Helvetica,sans-Serif" font-size="10.00" fill="#000000">utils/algorithm.hpp</text>
</a>
</g>
</g>
<!-- Node81&#45;&gt;Node83 -->
<g id="edge143" class="edge">
<title>Node81&#45;&gt;Node83</title>
<path fill="none" stroke="#191970" d="M2855.625,-481.3906C2851.6212,-472.5965 2845.5817,-459.3312 2840.6115,-448.4145"/>
<polygon fill="#191970" stroke="#191970" points="2843.7657,-446.8957 2836.4367,-439.2449 2837.3949,-449.7963 2843.7657,-446.8957"/>
</g>
<!-- Node83&#45;&gt;Node8 -->
<g id="edge144" class="edge">
<title>Node83&#45;&gt;Node8</title>
<path fill="none" stroke="#191970" d="M2831.1403,-419.9005C2830.2671,-410.149 2828.8889,-394.7597 2827.7794,-382.3695"/>
<polygon fill="#191970" stroke="#191970" points="2831.2361,-381.7296 2826.8581,-372.0817 2824.2641,-382.354 2831.2361,-381.7296"/>
</g>
<!-- Node83&#45;&gt;Node82 -->
<g id="edge145" class="edge">
<title>Node83&#45;&gt;Node82</title>
<path fill="none" stroke="#191970" d="M2842.1726,-419.9005C2853.4553,-409.2535 2871.8601,-391.8856 2885.4742,-379.0385"/>
<polygon fill="#191970" stroke="#191970" points="2887.9754,-381.4905 2892.8463,-372.0817 2883.1712,-376.3994 2887.9754,-381.4905"/>
</g>
</g>
</svg>
