<?xml version="1.0" encoding="UTF-8" standalone="no"?>
<!DOCTYPE svg PUBLIC "-//W3C//DTD SVG 1.1//EN"
 "http://www.w3.org/Graphics/SVG/1.1/DTD/svg11.dtd">
<!-- Generated by graphviz version 2.40.1 (20161225.0304)
 -->
<!-- Title: src/acceleration/MVQNAcceleration.hpp Pages: 1 -->
<!--zoomable 173 -->
<svg id="main" version="1.1" xmlns="http://www.w3.org/2000/svg" xmlns:xlink="http://www.w3.org/1999/xlink" xml:space="preserve" onload="init(evt)">
<style type="text/css"><![CDATA[
.edge:hover path { stroke: red; }
.edge:hover polygon { stroke: red; fill: red; }
]]></style>
<script type="text/javascript"><![CDATA[
var edges = document.getElementsByTagName('g');
if (edges && edges.length) {
  for (var i=0;i<edges.length;i++) {
    if (edges[i].id.substr(0,4)=='edge') {
      edges[i].setAttribute('class','edge');
    }
  }
}
]]></script>
        <defs>
                <circle id="rim" cx="0" cy="0" r="7"/>
                <circle id="rim2" cx="0" cy="0" r="3.5"/>
                <g id="zoomPlus">
                        <use xlink:href="#rim" fill="#404040">
                                <set attributeName="fill" to="#808080" begin="zoomplus.mouseover" end="zoomplus.mouseout"/>
                        </use>
                        <path d="M-4,0h8M0,-4v8" fill="none" stroke="white" stroke-width="1.5" pointer-events="none"/>
                </g>
                <g id="zoomMin">
                        <use xlink:href="#rim" fill="#404040">
                                <set attributeName="fill" to="#808080" begin="zoomminus.mouseover" end="zoomminus.mouseout"/>
                        </use>
                        <path d="M-4,0h8" fill="none" stroke="white" stroke-width="1.5" pointer-events="none"/>
                </g>
                <g id="dirArrow">
                        <path fill="none" stroke="white" stroke-width="1.5" d="M0,-3.0v7 M-2.5,-0.5L0,-3.0L2.5,-0.5"/>
                </g>
               <g id="resetDef">
                       <use xlink:href="#rim2" fill="#404040">
                               <set attributeName="fill" to="#808080" begin="reset.mouseover" end="reset.mouseout"/>
                       </use>
               </g>
        </defs>

<script type="text/javascript">
var viewWidth = 928;
var viewHeight = 173;
var sectionId = 'dynsection-1';
</script>
<script xlink:href="svgpan.js"/>
<svg id="graph" class="graph">
<g id="viewport">
<title>src/acceleration/MVQNAcceleration.hpp</title>
<polygon fill="#ffffff" stroke="transparent" points="-4,4 -4,-169 924,-169 924,4 -4,4"/>
<!-- Node80 -->
<g id="node1" class="node">
<title>Node80</title>
<polygon fill="#bfbfbf" stroke="#000000" points="381.5,-145.5 381.5,-164.5 590.5,-164.5 590.5,-145.5 381.5,-145.5"/>
<text text-anchor="middle" x="486" y="-152.5" font-family="Helvetica,sans-Serif" font-size="10.00" fill="#000000">src/acceleration/MVQNAcceleration.hpp</text>
</g>
<!-- Node81 -->
<g id="node2" class="node">
<title>Node81</title>
<g id="a_node2"><a xlink:href="AccelerationConfiguration_8cpp.html" target="_top" xlink:title="src/acceleration/config\l/AccelerationConfiguration.cpp">
<polygon fill="#ffffff" stroke="#000000" points="0,-6 0,-36 166,-36 166,-6 0,-6"/>
<text text-anchor="start" x="8" y="-24" font-family="Helvetica,sans-Serif" font-size="10.00" fill="#000000">src/acceleration/config</text>
<text text-anchor="middle" x="83" y="-13" font-family="Helvetica,sans-Serif" font-size="10.00" fill="#000000">/AccelerationConfiguration.cpp</text>
</a>
</g>
</g>
<!-- Node80&#45;&gt;Node81 -->
<g id="edge1" class="edge">
<title>Node80&#45;&gt;Node81</title>
<path fill="none" stroke="#191970" d="M420.9826,-143.5659C380.7177,-135.6771 328.2397,-123.9253 283,-109 220.497,-88.3792 150.8501,-55.2888 112.4517,-36.1025"/>
<polygon fill="#191970" stroke="#191970" points="420.4625,-147.0301 430.9445,-145.4879 421.7887,-140.1568 420.4625,-147.0301"/>
</g>
<!-- Node82 -->
<g id="node3" class="node">
<title>Node82</title>
<g id="a_node3"><a xlink:href="AccelerationConfiguration_8hpp.html" target="_top" xlink:title="src/acceleration/config\l/AccelerationConfiguration.hpp">
<polygon fill="#ffffff" stroke="#000000" points="291.5,-78.5 291.5,-108.5 458.5,-108.5 458.5,-78.5 291.5,-78.5"/>
<text text-anchor="start" x="299.5" y="-96.5" font-family="Helvetica,sans-Serif" font-size="10.00" fill="#000000">src/acceleration/config</text>
<text text-anchor="middle" x="375" y="-85.5" font-family="Helvetica,sans-Serif" font-size="10.00" fill="#000000">/AccelerationConfiguration.hpp</text>
</a>
</g>
</g>
<!-- Node80&#45;&gt;Node82 -->
<g id="edge2" class="edge">
<title>Node80&#45;&gt;Node82</title>
<path fill="none" stroke="#191970" d="M459.633,-140.3912C442.291,-130.7829 419.6527,-118.24 402.1537,-108.5446"/>
<polygon fill="#191970" stroke="#191970" points="458.2128,-143.6057 468.6563,-145.3906 461.6053,-137.4827 458.2128,-143.6057"/>
</g>
<!-- Node84 -->
<g id="node5" class="node">
<title>Node84</title>
<g id="a_node5"><a xlink:href="ParallelImplicitCouplingSchemeTest_8cpp.html" target="_top" xlink:title="src/cplscheme/tests\l/ParallelImplicitCouplingScheme\lTest.cpp">
<polygon fill="#ffffff" stroke="#000000" points="574,-.5 574,-41.5 748,-41.5 748,-.5 574,-.5"/>
<text text-anchor="start" x="582" y="-29.5" font-family="Helvetica,sans-Serif" font-size="10.00" fill="#000000">src/cplscheme/tests</text>
<text text-anchor="start" x="582" y="-18.5" font-family="Helvetica,sans-Serif" font-size="10.00" fill="#000000">/ParallelImplicitCouplingScheme</text>
<text text-anchor="middle" x="661" y="-7.5" font-family="Helvetica,sans-Serif" font-size="10.00" fill="#000000">Test.cpp</text>
</a>
</g>
</g>
<!-- Node80&#45;&gt;Node84 -->
<g id="edge9" class="edge">
<title>Node80&#45;&gt;Node84</title>
<path fill="none" stroke="#191970" d="M485.9129,-135.3851C486.8724,-118.2498 490.8958,-93.7222 505,-78 516.4566,-65.2291 550.9705,-52.0146 584.6302,-41.5284"/>
<polygon fill="#191970" stroke="#191970" points="482.4134,-135.3226 485.6496,-145.411 489.411,-135.5064 482.4134,-135.3226"/>
</g>
<!-- Node86 -->
<g id="node7" class="node">
<title>Node86</title>
<g id="a_node7"><a xlink:href="MVQNAcceleration_8cpp.html" target="_top" xlink:title="src/acceleration/MVQNAcceleration.cpp">
<polygon fill="#ffffff" stroke="#000000" points="514,-84 514,-103 722,-103 722,-84 514,-84"/>
<text text-anchor="middle" x="618" y="-91" font-family="Helvetica,sans-Serif" font-size="10.00" fill="#000000">src/acceleration/MVQNAcceleration.cpp</text>
</a>
</g>
</g>
<!-- Node80&#45;&gt;Node86 -->
<g id="edge7" class="edge">
<title>Node80&#45;&gt;Node86</title>
<path fill="none" stroke="#191970" d="M515.9722,-141.0357C540.8894,-129.4265 575.6847,-113.2151 597.5198,-103.0419"/>
<polygon fill="#191970" stroke="#191970" points="514.2113,-137.9948 506.625,-145.3906 517.1676,-144.3399 514.2113,-137.9948"/>
</g>
<!-- Node87 -->
<g id="node8" class="node">
<title>Node87</title>
<g id="a_node8"><a xlink:href="AccelerationMasterSlaveTest_8cpp.html" target="_top" xlink:title="src/acceleration/test\l/AccelerationMasterSlaveTest.cpp">
<polygon fill="#ffffff" stroke="#000000" points="740,-78.5 740,-108.5 920,-108.5 920,-78.5 740,-78.5"/>
<text text-anchor="start" x="748" y="-96.5" font-family="Helvetica,sans-Serif" font-size="10.00" fill="#000000">src/acceleration/test</text>
<text text-anchor="middle" x="830" y="-85.5" font-family="Helvetica,sans-Serif" font-size="10.00" fill="#000000">/AccelerationMasterSlaveTest.cpp</text>
</a>
</g>
</g>
<!-- Node80&#45;&gt;Node87 -->
<g id="edge8" class="edge">
<title>Node80&#45;&gt;Node87</title>
<path fill="none" stroke="#191970" d="M549.3921,-143.6668C604.6882,-133.781 685.33,-119.364 745.9895,-108.5193"/>
<polygon fill="#191970" stroke="#191970" points="548.6005,-140.2528 539.3726,-145.4581 549.8325,-147.1435 548.6005,-140.2528"/>
</g>
<!-- Node82&#45;&gt;Node81 -->
<g id="edge3" class="edge">
<title>Node82&#45;&gt;Node81</title>
<path fill="none" stroke="#191970" d="M304.5598,-76.0106C255.3344,-63.7885 190.2894,-47.6386 143.4251,-36.0028"/>
<polygon fill="#191970" stroke="#191970" points="303.9487,-79.465 314.4974,-78.478 305.6355,-72.6713 303.9487,-79.465"/>
</g>
<!-- Node83 -->
<g id="node4" class="node">
<title>Node83</title>
<g id="a_node4"><a xlink:href="CouplingSchemeConfiguration_8cpp.html" target="_top" xlink:title="src/cplscheme/config\l/CouplingSchemeConfiguration.cpp">
<polygon fill="#ffffff" stroke="#000000" points="184.5,-6 184.5,-36 371.5,-36 371.5,-6 184.5,-6"/>
<text text-anchor="start" x="192.5" y="-24" font-family="Helvetica,sans-Serif" font-size="10.00" fill="#000000">src/cplscheme/config</text>
<text text-anchor="middle" x="278" y="-13" font-family="Helvetica,sans-Serif" font-size="10.00" fill="#000000">/CouplingSchemeConfiguration.cpp</text>
</a>
</g>
</g>
<!-- Node82&#45;&gt;Node83 -->
<g id="edge4" class="edge">
<title>Node82&#45;&gt;Node83</title>
<path fill="none" stroke="#191970" d="M346.6457,-72.3074C331.0659,-60.6627 312.1131,-46.4969 298.0727,-36.0028"/>
<polygon fill="#191970" stroke="#191970" points="344.7962,-75.2946 354.9015,-78.478 348.987,-69.6877 344.7962,-75.2946"/>
</g>
<!-- Node82&#45;&gt;Node84 -->
<g id="edge5" class="edge">
<title>Node82&#45;&gt;Node84</title>
<path fill="none" stroke="#191970" d="M444.1559,-75.9692C485.1302,-65.5824 537.2517,-52.3698 580.1251,-41.5015"/>
<polygon fill="#191970" stroke="#191970" points="443.0927,-72.6279 434.2594,-78.478 444.8128,-79.4133 443.0927,-72.6279"/>
</g>
<!-- Node85 -->
<g id="node6" class="node">
<title>Node85</title>
<g id="a_node6"><a xlink:href="SerialImplicitCouplingSchemeTest_8cpp.html" target="_top" xlink:title="src/cplscheme/tests\l/SerialImplicitCouplingScheme\lTest.cpp">
<polygon fill="#ffffff" stroke="#000000" points="390,-.5 390,-41.5 556,-41.5 556,-.5 390,-.5"/>
<text text-anchor="start" x="398" y="-29.5" font-family="Helvetica,sans-Serif" font-size="10.00" fill="#000000">src/cplscheme/tests</text>
<text text-anchor="start" x="398" y="-18.5" font-family="Helvetica,sans-Serif" font-size="10.00" fill="#000000">/SerialImplicitCouplingScheme</text>
<text text-anchor="middle" x="473" y="-7.5" font-family="Helvetica,sans-Serif" font-size="10.00" fill="#000000">Test.cpp</text>
</a>
</g>
</g>
<!-- Node82&#45;&gt;Node85 -->
<g id="edge6" class="edge">
<title>Node82&#45;&gt;Node85</title>
<path fill="none" stroke="#191970" d="M403.5504,-72.3785C416.6995,-62.6509 432.2429,-51.152 445.2876,-41.5015"/>
<polygon fill="#191970" stroke="#191970" points="401.2633,-69.7168 395.3057,-78.478 405.4265,-75.3443 401.2633,-69.7168"/>
</g>
</g>
</svg>
        <g id="navigator" transform="translate(0 0)" fill="#404254">
                <rect fill="#f2f5e9" fill-opacity="0.5" stroke="#606060" stroke-width=".5" x="0" y="0" width="60" height="60"/>
                <use id="zoomplus" xlink:href="#zoomPlus" x="17" y="9" onmousedown="handleZoom(evt,'in')"/>
                <use id="zoomminus" xlink:href="#zoomMin" x="42" y="9" onmousedown="handleZoom(evt,'out')"/>
                <use id="reset" xlink:href="#resetDef" x="30" y="36" onmousedown="handleReset()"/>
                <g id="arrowUp" xlink:href="#dirArrow" transform="translate(30 24)" onmousedown="handlePan(0,-1)">
                  <use xlink:href="#rim" fill="#404040">
                        <set attributeName="fill" to="#808080" begin="arrowUp.mouseover" end="arrowUp.mouseout"/>
                  </use>
                  <path fill="none" stroke="white" stroke-width="1.5" d="M0,-3.0v7 M-2.5,-0.5L0,-3.0L2.5,-0.5"/>
                </g>
                <g id="arrowRight" xlink:href="#dirArrow" transform="rotate(90) translate(36 -43)" onmousedown="handlePan(1,0)">
                  <use xlink:href="#rim" fill="#404040">
                        <set attributeName="fill" to="#808080" begin="arrowRight.mouseover" end="arrowRight.mouseout"/>
                  </use>
                  <path fill="none" stroke="white" stroke-width="1.5" d="M0,-3.0v7 M-2.5,-0.5L0,-3.0L2.5,-0.5"/>
                </g>
                <g id="arrowDown" xlink:href="#dirArrow" transform="rotate(180) translate(-30 -48)" onmousedown="handlePan(0,1)">
                  <use xlink:href="#rim" fill="#404040">
                        <set attributeName="fill" to="#808080" begin="arrowDown.mouseover" end="arrowDown.mouseout"/>
                  </use>
                  <path fill="none" stroke="white" stroke-width="1.5" d="M0,-3.0v7 M-2.5,-0.5L0,-3.0L2.5,-0.5"/>
                </g>
                <g id="arrowLeft" xlink:href="#dirArrow" transform="rotate(270) translate(-36 17)" onmousedown="handlePan(-1,0)">
                  <use xlink:href="#rim" fill="#404040">
                        <set attributeName="fill" to="#808080" begin="arrowLeft.mouseover" end="arrowLeft.mouseout"/>
                  </use>
                  <path fill="none" stroke="white" stroke-width="1.5" d="M0,-3.0v7 M-2.5,-0.5L0,-3.0L2.5,-0.5"/>
                </g>
        </g>
        <svg viewBox="0 0 15 15" width="100%" height="30px" preserveAspectRatio="xMaxYMin meet">
         <g id="arrow_out" transform="scale(0.3 0.3)">
          <a xlink:href="MVQNAcceleration_8hpp__dep__incl_org.svg" target="_base">
           <rect id="button" ry="5" rx="5" y="6" x="6" height="38" width="38"
                fill="#f2f5e9" fill-opacity="0.5" stroke="#606060" stroke-width="1.0"/>
           <path id="arrow"
             d="M 11.500037,31.436501 C 11.940474,20.09759 22.043105,11.32322 32.158766,21.979434 L 37.068811,17.246167 C 37.068811,17.246167 37.088388,32 37.088388,32 L 22.160133,31.978069 C 22.160133,31.978069 26.997745,27.140456 26.997745,27.140456 C 18.528582,18.264221 13.291696,25.230495 11.500037,31.436501 z"
             style="fill:#404040;"/>
          </a>
         </g>
        </svg>
</svg>
