<?xml version="1.0" encoding="UTF-8" standalone="no"?>
<!DOCTYPE svg PUBLIC "-//W3C//DTD SVG 1.1//EN"
 "http://www.w3.org/Graphics/SVG/1.1/DTD/svg11.dtd">
<!-- Generated by graphviz version 2.40.1 (20161225.0304)
 -->
<!-- Title: precice::mesh::operator&lt;&lt; Pages: 1 -->
<svg width="306pt" height="127pt"
 viewBox="0.00 0.00 306.00 126.50" xmlns="http://www.w3.org/2000/svg" xmlns:xlink="http://www.w3.org/1999/xlink">
<g id="graph0" class="graph" transform="scale(1 1) rotate(0) translate(4 122.5)">
<title>precice::mesh::operator&lt;&lt;</title>
<polygon fill="#ffffff" stroke="transparent" points="-4,4 -4,-122.5 302,-122.5 302,4 -4,4"/>
<!-- Node62 -->
<g id="node1" class="node">
<title>Node62</title>
<polygon fill="#bfbfbf" stroke="#000000" points="0,-55 0,-74 131,-74 131,-55 0,-55"/>
<text text-anchor="middle" x="65.5" y="-62" font-family="Helvetica,sans-Serif" font-size="10.00" fill="#000000">precice::mesh::operator&lt;&lt;</text>
</g>
<!-- Node63 -->
<g id="node2" class="node">
<title>Node63</title>
<g id="a_node2"><a xlink:href="namespaceprecice_1_1utils_1_1eigenio.html#a4687bb08f3f46818e4b7265d51053840" target="_top" xlink:title="precice::utils::eigenio::wkt">
<polygon fill="#ffffff" stroke="#000000" points="167,-99 167,-118 298,-118 298,-99 167,-99"/>
<text text-anchor="middle" x="232.5" y="-106" font-family="Helvetica,sans-Serif" font-size="10.00" fill="#000000">precice::utils::eigenio::wkt</text>
</a>
</g>
</g>
<!-- Node62&#45;&gt;Node63 -->
<g id="edge1" class="edge">
<title>Node62&#45;&gt;Node63</title>
<path fill="none" stroke="#191970" d="M101.7365,-74.0473C126.5748,-80.5916 159.7327,-89.3278 186.4435,-96.3654"/>
<polygon fill="#191970" stroke="#191970" points="185.7725,-99.8079 196.3342,-98.9713 187.556,-93.0389 185.7725,-99.8079"/>
</g>
<!-- Node64 -->
<g id="node3" class="node">
<title>Node64</title>
<g id="a_node3"><a xlink:href="classprecice_1_1mesh_1_1Triangle.html#ac4d5ab22ef769607eb78676efe7dd11e" target="_top" xlink:title="Returns triangle vertex with index 0, 1 or 2. ">
<polygon fill="#ffffff" stroke="#000000" points="173,-49.5 173,-79.5 292,-79.5 292,-49.5 173,-49.5"/>
<text text-anchor="start" x="181" y="-67.5" font-family="Helvetica,sans-Serif" font-size="10.00" fill="#000000">precice::mesh::Triangle</text>
<text text-anchor="middle" x="232.5" y="-56.5" font-family="Helvetica,sans-Serif" font-size="10.00" fill="#000000">::vertex</text>
</a>
</g>
</g>
<!-- Node62&#45;&gt;Node64 -->
<g id="edge2" class="edge">
<title>Node62&#45;&gt;Node64</title>
<path fill="none" stroke="#191970" d="M131.0235,-64.5C141.3722,-64.5 152.1076,-64.5 162.5523,-64.5"/>
<polygon fill="#191970" stroke="#191970" points="162.8751,-68.0001 172.875,-64.5 162.875,-61.0001 162.8751,-68.0001"/>
</g>
<!-- Node65 -->
<g id="node4" class="node">
<title>Node65</title>
<g id="a_node4"><a xlink:href="classprecice_1_1mesh_1_1Vertex.html#a382386665b94b9ae8ded5fca26fd2b0b" target="_top" xlink:title="Returns the coordinates of the vertex. ">
<polygon fill="#ffffff" stroke="#000000" points="176,-.5 176,-30.5 289,-30.5 289,-.5 176,-.5"/>
<text text-anchor="start" x="184" y="-18.5" font-family="Helvetica,sans-Serif" font-size="10.00" fill="#000000">precice::mesh::Vertex</text>
<text text-anchor="middle" x="232.5" y="-7.5" font-family="Helvetica,sans-Serif" font-size="10.00" fill="#000000">::getCoords</text>
</a>
</g>
</g>
<!-- Node62&#45;&gt;Node65 -->
<g id="edge3" class="edge">
<title>Node62&#45;&gt;Node65</title>
<path fill="none" stroke="#191970" d="M98.0957,-54.936C118.9615,-48.8137 146.6851,-40.6792 171.5318,-33.3889"/>
<polygon fill="#191970" stroke="#191970" points="172.6415,-36.7109 181.2516,-30.537 170.6707,-29.9941 172.6415,-36.7109"/>
</g>
</g>
</svg>
