<?xml version="1.0" encoding="UTF-8" standalone="no"?>
<!DOCTYPE svg PUBLIC "-//W3C//DTD SVG 1.1//EN"
 "http://www.w3.org/Graphics/SVG/1.1/DTD/svg11.dtd">
<!-- Generated by graphviz version 2.40.1 (20161225.0304)
 -->
<!-- Title: precice::math::geometry::between Pages: 1 -->
<svg width="511pt" height="94pt"
 viewBox="0.00 0.00 511.00 94.00" xmlns="http://www.w3.org/2000/svg" xmlns:xlink="http://www.w3.org/1999/xlink">
<g id="graph0" class="graph" transform="scale(1 1) rotate(0) translate(4 90)">
<title>precice::math::geometry::between</title>
<polygon fill="#ffffff" stroke="transparent" points="-4,4 -4,-90 507,-90 507,4 -4,4"/>
<!-- Node0 -->
<g id="node1" class="node">
<title>Node0</title>
<polygon fill="#bfbfbf" stroke="#000000" points="0,-17 0,-47 137,-47 137,-17 0,-17"/>
<text text-anchor="start" x="8" y="-35" font-family="Helvetica,sans-Serif" font-size="10.00" fill="#000000">precice::math::geometry</text>
<text text-anchor="middle" x="68.5" y="-24" font-family="Helvetica,sans-Serif" font-size="10.00" fill="#000000">::between</text>
</g>
<!-- Node1 -->
<g id="node2" class="node">
<title>Node1</title>
<g id="a_node2"><a xlink:href="namespaceprecice_1_1math_1_1geometry.html#a7b42152e06d8af66e795ed16e051d886" target="_top" xlink:title="Determines, if three points are collinear (on one line) ">
<polygon fill="#ffffff" stroke="#000000" points="183,-39 183,-69 320,-69 320,-39 183,-39"/>
<text text-anchor="start" x="191" y="-57" font-family="Helvetica,sans-Serif" font-size="10.00" fill="#000000">precice::math::geometry</text>
<text text-anchor="middle" x="251.5" y="-46" font-family="Helvetica,sans-Serif" font-size="10.00" fill="#000000">::collinear</text>
</a>
</g>
</g>
<!-- Node0&#45;&gt;Node1 -->
<g id="edge1" class="edge">
<title>Node0&#45;&gt;Node1</title>
<path fill="none" stroke="#191970" d="M137.1631,-40.2546C148.6941,-41.6408 160.742,-43.0892 172.5086,-44.5038"/>
<polygon fill="#191970" stroke="#191970" points="172.4102,-48.0171 182.7565,-45.7358 173.2458,-41.0671 172.4102,-48.0171"/>
</g>
<!-- Node4 -->
<g id="node5" class="node">
<title>Node4</title>
<g id="a_node5"><a xlink:href="namespaceprecice_1_1math.html#a8226f8d65e2358c744f70758921f5d52" target="_top" xlink:title="precice::math::greaterEquals">
<polygon fill="#ffffff" stroke="#000000" points="173,-.5 173,-19.5 330,-19.5 330,-.5 173,-.5"/>
<text text-anchor="middle" x="251.5" y="-7.5" font-family="Helvetica,sans-Serif" font-size="10.00" fill="#000000">precice::math::greaterEquals</text>
</a>
</g>
</g>
<!-- Node0&#45;&gt;Node4 -->
<g id="edge4" class="edge">
<title>Node0&#45;&gt;Node4</title>
<path fill="none" stroke="#191970" d="M137.1631,-23.7454C145.5461,-22.7376 154.2023,-21.697 162.825,-20.6604"/>
<polygon fill="#191970" stroke="#191970" points="163.4028,-24.1162 172.9136,-19.4476 162.5673,-17.1662 163.4028,-24.1162"/>
</g>
<!-- Node2 -->
<g id="node3" class="node">
<title>Node2</title>
<g id="a_node3"><a xlink:href="namespaceprecice_1_1math.html#a0e86802cfe992deba131d789d035b5b7" target="_top" xlink:title="Compares two Eigen::MatrixBase for equality up to tolerance. ">
<polygon fill="#ffffff" stroke="#000000" points="373.5,-66.5 373.5,-85.5 495.5,-85.5 495.5,-66.5 373.5,-66.5"/>
<text text-anchor="middle" x="434.5" y="-73.5" font-family="Helvetica,sans-Serif" font-size="10.00" fill="#000000">precice::math::equals</text>
</a>
</g>
</g>
<!-- Node1&#45;&gt;Node2 -->
<g id="edge2" class="edge">
<title>Node1&#45;&gt;Node2</title>
<path fill="none" stroke="#191970" d="M320.1631,-62.2546C334.2002,-63.9421 349.0034,-65.7217 363.1327,-67.4203"/>
<polygon fill="#191970" stroke="#191970" points="362.9351,-70.9217 373.2814,-68.6404 363.7707,-63.9717 362.9351,-70.9217"/>
</g>
<!-- Node3 -->
<g id="node4" class="node">
<title>Node3</title>
<g id="a_node4"><a xlink:href="namespaceprecice_1_1math_1_1geometry.html#a1968ac923376d52e8e95b94b55c61a7e" target="_top" xlink:title="Computes the signed area of a triangle in 2D. ">
<polygon fill="#ffffff" stroke="#000000" points="366,-17 366,-47 503,-47 503,-17 366,-17"/>
<text text-anchor="start" x="374" y="-35" font-family="Helvetica,sans-Serif" font-size="10.00" fill="#000000">precice::math::geometry</text>
<text text-anchor="middle" x="434.5" y="-24" font-family="Helvetica,sans-Serif" font-size="10.00" fill="#000000">::triangleArea</text>
</a>
</g>
</g>
<!-- Node1&#45;&gt;Node3 -->
<g id="edge3" class="edge">
<title>Node1&#45;&gt;Node3</title>
<path fill="none" stroke="#191970" d="M320.1631,-45.7454C331.6941,-44.3592 343.742,-42.9108 355.5086,-41.4962"/>
<polygon fill="#191970" stroke="#191970" points="356.2458,-44.9329 365.7565,-40.2642 355.4102,-37.9829 356.2458,-44.9329"/>
</g>
</g>
</svg>
