<?xml version="1.0" encoding="UTF-8" standalone="no"?>
<!DOCTYPE svg PUBLIC "-//W3C//DTD SVG 1.1//EN"
 "http://www.w3.org/Graphics/SVG/1.1/DTD/svg11.dtd">
<!-- Generated by graphviz version 2.40.1 (20161225.0304)
 -->
<!-- Title: src/cplscheme/ParallelCouplingScheme.cpp Pages: 1 -->
<svg width="3114pt" height="621pt"
 viewBox="0.00 0.00 3114.00 621.00" xmlns="http://www.w3.org/2000/svg" xmlns:xlink="http://www.w3.org/1999/xlink">
<g id="graph0" class="graph" transform="scale(1 1) rotate(0) translate(4 617)">
<title>src/cplscheme/ParallelCouplingScheme.cpp</title>
<polygon fill="#ffffff" stroke="transparent" points="-4,4 -4,-617 3110,-617 3110,4 -4,4"/>
<!-- Node0 -->
<g id="node1" class="node">
<title>Node0</title>
<polygon fill="#bfbfbf" stroke="#000000" points="1500,-582.5 1500,-612.5 1668,-612.5 1668,-582.5 1500,-582.5"/>
<text text-anchor="start" x="1508" y="-600.5" font-family="Helvetica,sans-Serif" font-size="10.00" fill="#000000">src/cplscheme/ParallelCoupling</text>
<text text-anchor="middle" x="1584" y="-589.5" font-family="Helvetica,sans-Serif" font-size="10.00" fill="#000000">Scheme.cpp</text>
</g>
<!-- Node1 -->
<g id="node2" class="node">
<title>Node1</title>
<g id="a_node2"><a xlink:href="ParallelCouplingScheme_8hpp.html" target="_top" xlink:title="ParallelCouplingScheme.hpp">
<polygon fill="#ffffff" stroke="#000000" points="1506.5,-526.5 1506.5,-545.5 1661.5,-545.5 1661.5,-526.5 1506.5,-526.5"/>
<text text-anchor="middle" x="1584" y="-533.5" font-family="Helvetica,sans-Serif" font-size="10.00" fill="#000000">ParallelCouplingScheme.hpp</text>
</a>
</g>
</g>
<!-- Node0&#45;&gt;Node1 -->
<g id="edge1" class="edge">
<title>Node0&#45;&gt;Node1</title>
<path fill="none" stroke="#191970" d="M1584,-582.2977C1584,-574.3834 1584,-564.6043 1584,-556.0759"/>
<polygon fill="#191970" stroke="#191970" points="1587.5001,-555.8469 1584,-545.8469 1580.5001,-555.847 1587.5001,-555.8469"/>
</g>
<!-- Node3 -->
<g id="node4" class="node">
<title>Node3</title>
<g id="a_node4"><a xlink:href="BiCouplingScheme_8hpp.html" target="_top" xlink:title="BiCouplingScheme.hpp">
<polygon fill="#ffffff" stroke="#000000" points="1413.5,-470.5 1413.5,-489.5 1542.5,-489.5 1542.5,-470.5 1413.5,-470.5"/>
<text text-anchor="middle" x="1478" y="-477.5" font-family="Helvetica,sans-Serif" font-size="10.00" fill="#000000">BiCouplingScheme.hpp</text>
</a>
</g>
</g>
<!-- Node0&#45;&gt;Node3 -->
<g id="edge112" class="edge">
<title>Node0&#45;&gt;Node3</title>
<path fill="none" stroke="#191970" d="M1545.1341,-582.3718C1528.1593,-573.9811 1509.3487,-561.9669 1497,-546 1486.6393,-532.6036 1481.9266,-513.7564 1479.7839,-499.6303"/>
<polygon fill="#191970" stroke="#191970" points="1483.235,-499.0144 1478.5577,-489.508 1476.2858,-499.8563 1483.235,-499.0144"/>
</g>
<!-- Node16 -->
<g id="node17" class="node">
<title>Node16</title>
<g id="a_node17"><a xlink:href="LogMacros_8hpp.html" target="_top" xlink:title="LogMacros.hpp">
<polygon fill="#ffffff" stroke="#000000" points="2393.5,-123.5 2393.5,-142.5 2482.5,-142.5 2482.5,-123.5 2393.5,-123.5"/>
<text text-anchor="middle" x="2438" y="-130.5" font-family="Helvetica,sans-Serif" font-size="10.00" fill="#000000">LogMacros.hpp</text>
</a>
</g>
</g>
<!-- Node0&#45;&gt;Node16 -->
<g id="edge113" class="edge">
<title>Node0&#45;&gt;Node16</title>
<path fill="none" stroke="#191970" d="M1668.1417,-592.5786C1919.0908,-577.3486 2645,-529.0539 2645,-480 2645,-480 2645,-480 2645,-312 2645,-223.7901 2536.1205,-169.3769 2476.2913,-146.1356"/>
<polygon fill="#191970" stroke="#191970" points="2477.3741,-142.8033 2466.7825,-142.5434 2474.9003,-149.3516 2477.3741,-142.8033"/>
</g>
<!-- Node2 -->
<g id="node3" class="node">
<title>Node2</title>
<polygon fill="#ffffff" stroke="#bfbfbf" points="1654,-.5 1654,-19.5 1698,-19.5 1698,-.5 1654,-.5"/>
<text text-anchor="middle" x="1676" y="-7.5" font-family="Helvetica,sans-Serif" font-size="10.00" fill="#000000">string</text>
</g>
<!-- Node1&#45;&gt;Node2 -->
<g id="edge2" class="edge">
<title>Node1&#45;&gt;Node2</title>
<path fill="none" stroke="#191970" d="M1506.259,-534.6205C1187.8392,-528.4677 0,-500.3953 0,-424 0,-424 0,-424 0,-133 0,-90.4214 19.2523,-75.699 57,-56 129.8932,-17.96 1421.4053,-11.0307 1643.5896,-10.1186"/>
<polygon fill="#191970" stroke="#191970" points="1643.931,-13.6173 1653.9169,-10.0774 1643.903,-6.6174 1643.931,-13.6173"/>
</g>
<!-- Node1&#45;&gt;Node3 -->
<g id="edge3" class="edge">
<title>Node1&#45;&gt;Node3</title>
<path fill="none" stroke="#191970" d="M1565.5362,-526.2455C1548.8926,-517.4527 1524.2007,-504.4079 1505.2808,-494.4125"/>
<polygon fill="#191970" stroke="#191970" points="1506.7291,-491.2193 1496.2522,-489.6427 1503.4592,-497.4086 1506.7291,-491.2193"/>
</g>
<!-- Node5 -->
<g id="node6" class="node">
<title>Node5</title>
<g id="a_node6"><a xlink:href="BaseCouplingScheme_8hpp.html" target="_top" xlink:title="BaseCouplingScheme.hpp">
<polygon fill="#ffffff" stroke="#000000" points="1087.5,-414.5 1087.5,-433.5 1230.5,-433.5 1230.5,-414.5 1087.5,-414.5"/>
<text text-anchor="middle" x="1159" y="-421.5" font-family="Helvetica,sans-Serif" font-size="10.00" fill="#000000">BaseCouplingScheme.hpp</text>
</a>
</g>
</g>
<!-- Node1&#45;&gt;Node5 -->
<g id="edge107" class="edge">
<title>Node1&#45;&gt;Node5</title>
<path fill="none" stroke="#191970" d="M1582.2158,-526.4881C1578.9006,-511.713 1570.2939,-483.5418 1551,-470 1526.1763,-452.5769 1348.2112,-437.2523 1240.7894,-429.4564"/>
<polygon fill="#191970" stroke="#191970" points="1240.8467,-425.9516 1230.6215,-428.7257 1240.3448,-432.9336 1240.8467,-425.9516"/>
</g>
<!-- Node11 -->
<g id="node12" class="node">
<title>Node11</title>
<g id="a_node12"><a xlink:href="cplscheme_2Constants_8hpp.html" target="_top" xlink:title="Constants.hpp">
<polygon fill="#ffffff" stroke="#000000" points="28,-358.5 28,-377.5 114,-377.5 114,-358.5 28,-358.5"/>
<text text-anchor="middle" x="71" y="-365.5" font-family="Helvetica,sans-Serif" font-size="10.00" fill="#000000">Constants.hpp</text>
</a>
</g>
</g>
<!-- Node1&#45;&gt;Node11 -->
<g id="edge108" class="edge">
<title>Node1&#45;&gt;Node11</title>
<path fill="none" stroke="#191970" d="M1506.4349,-533.5897C1255.7354,-525.2667 469.2759,-494.8491 223,-434 176.6286,-422.5427 126.4707,-398.1853 96.9431,-382.4801"/>
<polygon fill="#191970" stroke="#191970" points="98.5743,-379.3833 88.112,-377.7123 95.2488,-385.5429 98.5743,-379.3833"/>
</g>
<!-- Node15 -->
<g id="node16" class="node">
<title>Node15</title>
<g id="a_node16"><a xlink:href="Logger_8hpp.html" target="_top" xlink:title="logging/Logger.hpp">
<polygon fill="#ffffff" stroke="#000000" points="1714.5,-179.5 1714.5,-198.5 1823.5,-198.5 1823.5,-179.5 1714.5,-179.5"/>
<text text-anchor="middle" x="1769" y="-186.5" font-family="Helvetica,sans-Serif" font-size="10.00" fill="#000000">logging/Logger.hpp</text>
</a>
</g>
</g>
<!-- Node1&#45;&gt;Node15 -->
<g id="edge109" class="edge">
<title>Node1&#45;&gt;Node15</title>
<path fill="none" stroke="#191970" d="M1604.8192,-526.3419C1655.5617,-501.3586 1784.0191,-428.9944 1819,-322 1824.4856,-305.2215 1832.453,-269.7663 1817,-235 1811.7061,-223.0899 1801.7432,-212.7366 1792.2602,-204.8842"/>
<polygon fill="#191970" stroke="#191970" points="1794.2355,-201.9876 1784.1797,-198.651 1789.96,-207.5302 1794.2355,-201.9876"/>
</g>
<!-- Node28 -->
<g id="node29" class="node">
<title>Node28</title>
<g id="a_node29"><a xlink:href="assertion_8hpp.html" target="_top" xlink:title="utils/assertion.hpp">
<polygon fill="#ffffff" stroke="#000000" points="2292.5,-302.5 2292.5,-321.5 2399.5,-321.5 2399.5,-302.5 2292.5,-302.5"/>
<text text-anchor="middle" x="2346" y="-309.5" font-family="Helvetica,sans-Serif" font-size="10.00" fill="#000000">utils/assertion.hpp</text>
</a>
</g>
</g>
<!-- Node1&#45;&gt;Node28 -->
<g id="edge111" class="edge">
<title>Node1&#45;&gt;Node28</title>
<path fill="none" stroke="#191970" d="M1661.8424,-531.8035C1770.9372,-525.2687 1963.4226,-511.1713 2030,-490 2150.8871,-451.5585 2277.2074,-363.385 2325.5441,-327.5603"/>
<polygon fill="#191970" stroke="#191970" points="2327.7306,-330.2956 2333.6432,-321.504 2323.5386,-324.6896 2327.7306,-330.2956"/>
</g>
<!-- Node67 -->
<g id="node50" class="node">
<title>Node67</title>
<g id="a_node50"><a xlink:href="m2n_2SharedPointer_8hpp.html" target="_top" xlink:title="SharedPointer.hpp">
<polygon fill="#ffffff" stroke="#000000" points="1206.5,-302.5 1206.5,-321.5 1311.5,-321.5 1311.5,-302.5 1206.5,-302.5"/>
<text text-anchor="middle" x="1259" y="-309.5" font-family="Helvetica,sans-Serif" font-size="10.00" fill="#000000">SharedPointer.hpp</text>
</a>
</g>
</g>
<!-- Node1&#45;&gt;Node67 -->
<g id="edge110" class="edge">
<title>Node1&#45;&gt;Node67</title>
<path fill="none" stroke="#191970" d="M1584.625,-526.3239C1586.0008,-495.9218 1585.6727,-401.7483 1533,-358 1530.9567,-356.3029 1401.9043,-335.1472 1321.6602,-322.125"/>
<polygon fill="#191970" stroke="#191970" points="1322.0771,-318.647 1311.6457,-320.5009 1320.9564,-325.5567 1322.0771,-318.647"/>
</g>
<!-- Node3&#45;&gt;Node2 -->
<g id="edge4" class="edge">
<title>Node3&#45;&gt;Node2</title>
<path fill="none" stroke="#191970" d="M1542.5723,-475.4298C1844.913,-453.1892 3106,-350.7285 3106,-189 3106,-189 3106,-189 3106,-133 3106,-90.4214 3086.6975,-75.7949 3049,-56 2987.7683,-23.8473 1910.0573,-12.1934 1708.3723,-10.2897"/>
<polygon fill="#191970" stroke="#191970" points="1708.1736,-6.7878 1698.1414,-10.1944 1708.1084,-13.7875 1708.1736,-6.7878"/>
</g>
<!-- Node4 -->
<g id="node5" class="node">
<title>Node4</title>
<polygon fill="#ffffff" stroke="#bfbfbf" points="561.5,-179.5 561.5,-198.5 608.5,-198.5 608.5,-179.5 561.5,-179.5"/>
<text text-anchor="middle" x="585" y="-186.5" font-family="Helvetica,sans-Serif" font-size="10.00" fill="#000000">vector</text>
</g>
<!-- Node3&#45;&gt;Node4 -->
<g id="edge5" class="edge">
<title>Node3&#45;&gt;Node4</title>
<path fill="none" stroke="#191970" d="M1413.3444,-472.9242C1331.3675,-463.9397 1185.6825,-447.9297 1061,-434 786.1924,-403.2981 596.3959,-555.9579 449,-322 436.1395,-301.5868 439.4716,-262.4785 463,-235 485.1931,-209.0811 523.5508,-197.7367 551.3416,-192.7896"/>
<polygon fill="#191970" stroke="#191970" points="552.092,-196.2144 561.4196,-191.1897 550.9945,-189.3009 552.092,-196.2144"/>
</g>
<!-- Node3&#45;&gt;Node5 -->
<g id="edge6" class="edge">
<title>Node3&#45;&gt;Node5</title>
<path fill="none" stroke="#191970" d="M1423.5244,-470.4369C1368.0125,-460.6918 1281.9471,-445.5832 1223.1672,-435.2645"/>
<polygon fill="#191970" stroke="#191970" points="1223.7055,-431.8055 1213.2509,-433.5237 1222.4951,-438.7001 1223.7055,-431.8055"/>
</g>
<!-- Node3&#45;&gt;Node11 -->
<g id="edge102" class="edge">
<title>Node3&#45;&gt;Node11</title>
<path fill="none" stroke="#191970" d="M1413.4228,-479.3648C1201.492,-476.9792 528.516,-466.9373 314,-434 239.5269,-422.5652 155.1872,-396.6114 108.0231,-380.8718"/>
<polygon fill="#191970" stroke="#191970" points="108.8543,-377.4585 98.2601,-377.5818 106.6189,-384.092 108.8543,-377.4585"/>
</g>
<!-- Node3&#45;&gt;Node15 -->
<g id="edge103" class="edge">
<title>Node3&#45;&gt;Node15</title>
<path fill="none" stroke="#191970" d="M1542.7256,-477.7319C1669.8745,-471.5073 1940,-448.7778 1940,-368 1940,-368 1940,-368 1940,-312 1940,-251.4885 1868.5589,-217.8142 1818.0304,-201.5648"/>
<polygon fill="#191970" stroke="#191970" points="1818.8182,-198.1452 1808.2309,-198.5445 1816.7563,-204.8347 1818.8182,-198.1452"/>
</g>
<!-- Node27 -->
<g id="node28" class="node">
<title>Node27</title>
<g id="a_node28"><a xlink:href="mesh_2SharedPointer_8hpp.html" target="_top" xlink:title="mesh/SharedPointer.hpp">
<polygon fill="#ffffff" stroke="#000000" points="1016.5,-179.5 1016.5,-198.5 1151.5,-198.5 1151.5,-179.5 1016.5,-179.5"/>
<text text-anchor="middle" x="1084" y="-186.5" font-family="Helvetica,sans-Serif" font-size="10.00" fill="#000000">mesh/SharedPointer.hpp</text>
</a>
</g>
</g>
<!-- Node3&#45;&gt;Node27 -->
<g id="edge105" class="edge">
<title>Node3&#45;&gt;Node27</title>
<path fill="none" stroke="#191970" d="M1413.3821,-477.1993C1305.8847,-471.8711 1099.8931,-458.5551 1078,-434 1020.5926,-369.6124 1057.8793,-253.5411 1075.8764,-208.0363"/>
<polygon fill="#191970" stroke="#191970" points="1079.2244,-209.0963 1079.7742,-198.5157 1072.7463,-206.4441 1079.2244,-209.0963"/>
</g>
<!-- Node3&#45;&gt;Node28 -->
<g id="edge106" class="edge">
<title>Node3&#45;&gt;Node28</title>
<path fill="none" stroke="#191970" d="M1542.5794,-478.2577C1634.7551,-474.7579 1808.9495,-464.3792 1954,-434 2060.1985,-411.7579 2082.2877,-389.8843 2186,-358 2224.8892,-346.0443 2269.3871,-333.3284 2301.5674,-324.3032"/>
<polygon fill="#191970" stroke="#191970" points="2302.8724,-327.5726 2311.56,-321.5083 2300.9868,-320.8314 2302.8724,-327.5726"/>
</g>
<!-- Node3&#45;&gt;Node67 -->
<g id="edge104" class="edge">
<title>Node3&#45;&gt;Node67</title>
<path fill="none" stroke="#191970" d="M1486.2127,-470.2422C1504.0381,-447.8442 1542.4648,-392.0591 1514,-358 1510.8918,-354.2809 1396.3339,-334.7109 1321.8373,-322.3247"/>
<polygon fill="#191970" stroke="#191970" points="1322.0453,-318.8114 1311.6072,-320.627 1320.8992,-325.717 1322.0453,-318.8114"/>
</g>
<!-- Node5&#45;&gt;Node2 -->
<g id="edge12" class="edge">
<title>Node5&#45;&gt;Node2</title>
<path fill="none" stroke="#191970" d="M1230.7123,-422.0334C1383.5217,-417.361 1731.1491,-403.9916 1778,-378 1858.2396,-333.4853 1870.8887,-262.5727 1833,-179 1807.3807,-122.4904 1769.0347,-133.5385 1728,-87 1711.7441,-68.5638 1696.4171,-44.795 1686.6724,-28.5732"/>
<polygon fill="#191970" stroke="#191970" points="1689.4575,-26.4051 1681.3679,-19.5633 1683.4253,-29.9565 1689.4575,-26.4051"/>
</g>
<!-- Node5&#45;&gt;Node4 -->
<g id="edge13" class="edge">
<title>Node5&#45;&gt;Node4</title>
<path fill="none" stroke="#191970" d="M1087.4386,-418.832C917.5924,-405.8359 501.3017,-369.4152 461,-322 440.29,-297.6346 460.6211,-267.205 492,-235 508.4531,-218.1137 532.3926,-206.47 551.8623,-199.1221"/>
<polygon fill="#191970" stroke="#191970" points="553.046,-202.416 561.2901,-195.7612 550.6955,-195.8224 553.046,-202.416"/>
</g>
<!-- Node6 -->
<g id="node7" class="node">
<title>Node6</title>
<polygon fill="#ffffff" stroke="#bfbfbf" points="1502.5,-241 1502.5,-260 1571.5,-260 1571.5,-241 1502.5,-241"/>
<text text-anchor="middle" x="1537" y="-248" font-family="Helvetica,sans-Serif" font-size="10.00" fill="#000000">Eigen/Core</text>
</g>
<!-- Node5&#45;&gt;Node6 -->
<g id="edge7" class="edge">
<title>Node5&#45;&gt;Node6</title>
<path fill="none" stroke="#191970" d="M1230.8008,-419.0061C1328.4031,-411.571 1493.2558,-396.4652 1514,-378 1544.4056,-350.9349 1543.3159,-298.4167 1540.0659,-269.9592"/>
<polygon fill="#191970" stroke="#191970" points="1543.53,-269.4574 1538.726,-260.0143 1536.5926,-270.3921 1543.53,-269.4574"/>
</g>
<!-- Node7 -->
<g id="node8" class="node">
<title>Node7</title>
<polygon fill="#ffffff" stroke="#bfbfbf" points="1206,-358.5 1206,-377.5 1270,-377.5 1270,-358.5 1206,-358.5"/>
<text text-anchor="middle" x="1238" y="-365.5" font-family="Helvetica,sans-Serif" font-size="10.00" fill="#000000">algorithm</text>
</g>
<!-- Node5&#45;&gt;Node7 -->
<g id="edge8" class="edge">
<title>Node5&#45;&gt;Node7</title>
<path fill="none" stroke="#191970" d="M1172.7607,-414.2455C1184.6552,-405.814 1202.065,-393.4729 1215.9085,-383.6598"/>
<polygon fill="#191970" stroke="#191970" points="1218.2628,-386.2811 1224.3969,-377.6427 1214.2146,-380.5704 1218.2628,-386.2811"/>
</g>
<!-- Node8 -->
<g id="node9" class="node">
<title>Node8</title>
<polygon fill="#ffffff" stroke="#bfbfbf" points="837,-179.5 837,-198.5 875,-198.5 875,-179.5 837,-179.5"/>
<text text-anchor="middle" x="856" y="-186.5" font-family="Helvetica,sans-Serif" font-size="10.00" fill="#000000">map</text>
</g>
<!-- Node5&#45;&gt;Node8 -->
<g id="edge9" class="edge">
<title>Node5&#45;&gt;Node8</title>
<path fill="none" stroke="#191970" d="M1146.9695,-414.4879C1111.7606,-386.6745 1005.8091,-303.1572 917,-235 903.9194,-224.9612 889.1586,-213.8251 877.4338,-205.0245"/>
<polygon fill="#191970" stroke="#191970" points="879.2388,-202.0034 869.1377,-198.8067 875.0407,-207.6048 879.2388,-202.0034"/>
</g>
<!-- Node9 -->
<g id="node10" class="node">
<title>Node9</title>
<polygon fill="#ffffff" stroke="#bfbfbf" points="959,-123.5 959,-142.5 1017,-142.5 1017,-123.5 959,-123.5"/>
<text text-anchor="middle" x="988" y="-130.5" font-family="Helvetica,sans-Serif" font-size="10.00" fill="#000000">memory</text>
</g>
<!-- Node5&#45;&gt;Node9 -->
<g id="edge10" class="edge">
<title>Node5&#45;&gt;Node9</title>
<path fill="none" stroke="#191970" d="M1087.4798,-422.7917C914.437,-419.4209 476.9156,-408.1034 334,-378 325.3468,-376.1773 190.0343,-329.2702 185,-322 137.7667,-253.7888 229.6132,-213.6495 305,-179 363.4758,-152.1232 811.9701,-137.7961 948.6133,-134.0232"/>
<polygon fill="#191970" stroke="#191970" points="948.7446,-137.521 958.6455,-133.7498 948.5538,-130.5236 948.7446,-137.521"/>
</g>
<!-- Node10 -->
<g id="node11" class="node">
<title>Node10</title>
<polygon fill="#ffffff" stroke="#bfbfbf" points="1473,-358.5 1473,-377.5 1505,-377.5 1505,-358.5 1473,-358.5"/>
<text text-anchor="middle" x="1489" y="-365.5" font-family="Helvetica,sans-Serif" font-size="10.00" fill="#000000">set</text>
</g>
<!-- Node5&#45;&gt;Node10 -->
<g id="edge11" class="edge">
<title>Node5&#45;&gt;Node10</title>
<path fill="none" stroke="#191970" d="M1230.5274,-417.9203C1290.6399,-411.7422 1378.7438,-400.1896 1463.0499,-377.7571"/>
<polygon fill="#191970" stroke="#191970" points="1464.0455,-381.1136 1472.7785,-375.1147 1462.2107,-374.3583 1464.0455,-381.1136"/>
</g>
<!-- Node5&#45;&gt;Node11 -->
<g id="edge14" class="edge">
<title>Node5&#45;&gt;Node11</title>
<path fill="none" stroke="#191970" d="M1087.4127,-422.1806C888.2258,-416.9056 329.2717,-400.6021 124.1381,-377.9338"/>
<polygon fill="#191970" stroke="#191970" points="124.388,-374.4396 114.055,-376.7803 123.5923,-381.3943 124.388,-374.4396"/>
</g>
<!-- Node12 -->
<g id="node13" class="node">
<title>Node12</title>
<g id="a_node13"><a xlink:href="CouplingData_8hpp.html" target="_top" xlink:title="CouplingData.hpp">
<polygon fill="#ffffff" stroke="#000000" points="1637,-358.5 1637,-377.5 1741,-377.5 1741,-358.5 1637,-358.5"/>
<text text-anchor="middle" x="1689" y="-365.5" font-family="Helvetica,sans-Serif" font-size="10.00" fill="#000000">CouplingData.hpp</text>
</a>
</g>
</g>
<!-- Node5&#45;&gt;Node12 -->
<g id="edge16" class="edge">
<title>Node5&#45;&gt;Node12</title>
<path fill="none" stroke="#191970" d="M1230.7537,-416.4185C1335.2248,-405.38 1527.506,-385.0635 1626.4919,-374.6046"/>
<polygon fill="#191970" stroke="#191970" points="1627.0656,-378.0636 1636.6425,-373.5321 1626.3301,-371.1023 1627.0656,-378.0636"/>
</g>
<!-- Node5&#45;&gt;Node15 -->
<g id="edge80" class="edge">
<title>Node5&#45;&gt;Node15</title>
<path fill="none" stroke="#191970" d="M1230.5964,-421.8893C1378.1611,-417.0415 1706.0584,-403.5186 1750,-378 1808.0969,-344.2608 1818.1436,-299.398 1799,-235 1795.9674,-224.7984 1789.8756,-214.7475 1783.9691,-206.6555"/>
<polygon fill="#191970" stroke="#191970" points="1786.6964,-204.4613 1777.7861,-198.7291 1781.177,-208.7667 1786.6964,-204.4613"/>
</g>
<!-- Node5&#45;&gt;Node27 -->
<g id="edge100" class="edge">
<title>Node5&#45;&gt;Node27</title>
<path fill="none" stroke="#191970" d="M1155.967,-414.4967C1144.7548,-379.3651 1105.5082,-256.3922 1090.1902,-208.3958"/>
<polygon fill="#191970" stroke="#191970" points="1093.4455,-207.084 1087.0707,-198.6216 1086.7769,-209.2124 1093.4455,-207.084"/>
</g>
<!-- Node5&#45;&gt;Node28 -->
<g id="edge101" class="edge">
<title>Node5&#45;&gt;Node28</title>
<path fill="none" stroke="#191970" d="M1230.7703,-421.3364C1355.1456,-416.2331 1618.6606,-403.2706 1840,-378 1895.463,-371.6677 1908.7219,-365.783 1964,-358 2075.6613,-342.2784 2206.1645,-327.2889 2282.107,-318.9021"/>
<polygon fill="#191970" stroke="#191970" points="2282.8961,-322.3364 2292.453,-317.7631 2282.1301,-315.3785 2282.8961,-322.3364"/>
</g>
<!-- Node37 -->
<g id="node38" class="node">
<title>Node37</title>
<g id="a_node38"><a xlink:href="CouplingScheme_8hpp.html" target="_top" xlink:title="CouplingScheme.hpp">
<polygon fill="#ffffff" stroke="#000000" points="287.5,-241 287.5,-260 406.5,-260 406.5,-241 287.5,-241"/>
<text text-anchor="middle" x="347" y="-248" font-family="Helvetica,sans-Serif" font-size="10.00" fill="#000000">CouplingScheme.hpp</text>
</a>
</g>
</g>
<!-- Node5&#45;&gt;Node37 -->
<g id="edge60" class="edge">
<title>Node5&#45;&gt;Node37</title>
<path fill="none" stroke="#191970" d="M1087.3627,-423.1571C914.3444,-420.6046 483.7943,-410.9791 428,-378 386.7622,-353.6251 363.134,-299.121 352.9807,-269.8939"/>
<polygon fill="#191970" stroke="#191970" points="356.1905,-268.4507 349.7405,-260.0455 349.5412,-270.6384 356.1905,-268.4507"/>
</g>
<!-- Node39 -->
<g id="node40" class="node">
<title>Node39</title>
<g id="a_node40"><a xlink:href="cplscheme_2SharedPointer_8hpp.html" target="_top" xlink:title="SharedPointer.hpp">
<polygon fill="#ffffff" stroke="#000000" points="194.5,-302.5 194.5,-321.5 299.5,-321.5 299.5,-302.5 194.5,-302.5"/>
<text text-anchor="middle" x="247" y="-309.5" font-family="Helvetica,sans-Serif" font-size="10.00" fill="#000000">SharedPointer.hpp</text>
</a>
</g>
</g>
<!-- Node5&#45;&gt;Node39 -->
<g id="edge66" class="edge">
<title>Node5&#45;&gt;Node39</title>
<path fill="none" stroke="#191970" d="M1087.3572,-423.1012C922.5704,-420.4871 520.7705,-410.8453 390,-378 346.1136,-366.9771 299.2096,-342.6252 271.5289,-326.7833"/>
<polygon fill="#191970" stroke="#191970" points="272.979,-323.5776 262.576,-321.5706 269.4568,-329.627 272.979,-323.5776"/>
</g>
<!-- Node40 -->
<g id="node41" class="node">
<title>Node40</title>
<g id="a_node41"><a xlink:href="acceleration_2SharedPointer_8hpp.html" target="_top" xlink:title="acceleration/SharedPointer.hpp">
<polygon fill="#ffffff" stroke="#000000" points="1330,-302.5 1330,-321.5 1498,-321.5 1498,-302.5 1330,-302.5"/>
<text text-anchor="middle" x="1414" y="-309.5" font-family="Helvetica,sans-Serif" font-size="10.00" fill="#000000">acceleration/SharedPointer.hpp</text>
</a>
</g>
</g>
<!-- Node5&#45;&gt;Node40 -->
<g id="edge68" class="edge">
<title>Node5&#45;&gt;Node40</title>
<path fill="none" stroke="#191970" d="M1161.8109,-414.1911C1166.5413,-399.5393 1177.5366,-372.1506 1197,-358 1217.8793,-342.82 1276.401,-330.9239 1327.4138,-323.0351"/>
<polygon fill="#191970" stroke="#191970" points="1328.1379,-326.4655 1337.5029,-321.511 1327.0923,-319.5441 1328.1379,-326.4655"/>
</g>
<!-- Node41 -->
<g id="node42" class="node">
<title>Node41</title>
<g id="a_node42"><a xlink:href="ConvergenceMeasure_8hpp.html" target="_top" xlink:title="impl/ConvergenceMeasure.hpp">
<polygon fill="#ffffff" stroke="#000000" points="1288.5,-358.5 1288.5,-377.5 1455.5,-377.5 1455.5,-358.5 1288.5,-358.5"/>
<text text-anchor="middle" x="1372" y="-365.5" font-family="Helvetica,sans-Serif" font-size="10.00" fill="#000000">impl/ConvergenceMeasure.hpp</text>
</a>
</g>
</g>
<!-- Node5&#45;&gt;Node41 -->
<g id="edge70" class="edge">
<title>Node5&#45;&gt;Node41</title>
<path fill="none" stroke="#191970" d="M1195.616,-414.3733C1231.648,-404.9001 1286.7878,-390.4032 1325.8114,-380.1435"/>
<polygon fill="#191970" stroke="#191970" points="1327.0804,-383.4289 1335.8618,-377.5011 1325.3005,-376.6589 1327.0804,-383.4289"/>
</g>
<!-- Node42 -->
<g id="node43" class="node">
<title>Node42</title>
<g id="a_node43"><a xlink:href="cplscheme_2impl_2SharedPointer_8hpp.html" target="_top" xlink:title="impl/SharedPointer.hpp">
<polygon fill="#ffffff" stroke="#000000" points="132,-358.5 132,-377.5 262,-377.5 262,-358.5 132,-358.5"/>
<text text-anchor="middle" x="197" y="-365.5" font-family="Helvetica,sans-Serif" font-size="10.00" fill="#000000">impl/SharedPointer.hpp</text>
</a>
</g>
</g>
<!-- Node5&#45;&gt;Node42 -->
<g id="edge72" class="edge">
<title>Node5&#45;&gt;Node42</title>
<path fill="none" stroke="#191970" d="M1087.3392,-422.0614C936.8182,-417.5945 576.8292,-404.8388 276,-378 274.722,-377.886 273.4328,-377.7671 272.1349,-377.6438"/>
<polygon fill="#191970" stroke="#191970" points="272.3582,-374.1486 262.056,-376.6215 271.6517,-381.1129 272.3582,-374.1486"/>
</g>
<!-- Node43 -->
<g id="node44" class="node">
<title>Node43</title>
<g id="a_node44"><a xlink:href="TXTTableWriter_8hpp.html" target="_top" xlink:title="io/TXTTableWriter.hpp">
<polygon fill="#ffffff" stroke="#000000" points="470,-302.5 470,-321.5 592,-321.5 592,-302.5 470,-302.5"/>
<text text-anchor="middle" x="531" y="-309.5" font-family="Helvetica,sans-Serif" font-size="10.00" fill="#000000">io/TXTTableWriter.hpp</text>
</a>
</g>
</g>
<!-- Node5&#45;&gt;Node43 -->
<g id="edge74" class="edge">
<title>Node5&#45;&gt;Node43</title>
<path fill="none" stroke="#191970" d="M1105.728,-414.4993C990.5019,-393.9494 718.5288,-345.4446 594.5639,-323.3362"/>
<polygon fill="#191970" stroke="#191970" points="594.9259,-319.8456 584.4667,-321.5355 593.6968,-326.7369 594.9259,-319.8456"/>
</g>
<!-- Node45 -->
<g id="node46" class="node">
<title>Node45</title>
<g id="a_node46"><a xlink:href="M2N_8hpp.html" target="_top" xlink:title="m2n/M2N.hpp">
<polygon fill="#ffffff" stroke="#000000" points="911,-358.5 911,-377.5 995,-377.5 995,-358.5 911,-358.5"/>
<text text-anchor="middle" x="953" y="-365.5" font-family="Helvetica,sans-Serif" font-size="10.00" fill="#000000">m2n/M2N.hpp</text>
</a>
</g>
</g>
<!-- Node5&#45;&gt;Node45 -->
<g id="edge81" class="edge">
<title>Node5&#45;&gt;Node45</title>
<path fill="none" stroke="#191970" d="M1123.5873,-414.3733C1088.7395,-404.9001 1035.4118,-390.4032 997.6707,-380.1435"/>
<polygon fill="#191970" stroke="#191970" points="998.5185,-376.747 987.9506,-377.5011 996.6822,-383.5019 998.5185,-376.747"/>
</g>
<!-- Node5&#45;&gt;Node67 -->
<g id="edge99" class="edge">
<title>Node5&#45;&gt;Node67</title>
<path fill="none" stroke="#191970" d="M1156.9038,-414.0613C1154.5681,-400.2115 1152.4889,-374.9077 1164,-358 1174.4311,-342.6785 1191.4501,-332.2832 1208.2226,-325.3132"/>
<polygon fill="#191970" stroke="#191970" points="1209.9115,-328.4158 1218.0178,-321.5939 1207.4266,-321.8717 1209.9115,-328.4158"/>
</g>
<!-- Node11&#45;&gt;Node2 -->
<g id="edge15" class="edge">
<title>Node11&#45;&gt;Node2</title>
<path fill="none" stroke="#191970" d="M68.3581,-358.3367C63.1375,-338.3617 52,-291.002 52,-250.5 52,-250.5 52,-250.5 52,-133 52,-94.2287 60.0541,-76.4395 93,-56 127.1749,-34.798 1421.9508,-13.9156 1643.8135,-10.4893"/>
<polygon fill="#191970" stroke="#191970" points="1643.8955,-13.9885 1653.8404,-10.335 1643.7878,-6.9893 1643.8955,-13.9885"/>
</g>
<!-- Node12&#45;&gt;Node6 -->
<g id="edge17" class="edge">
<title>Node12&#45;&gt;Node6</title>
<path fill="none" stroke="#191970" d="M1675.3481,-358.308C1662.4964,-349.1193 1642.7708,-334.8484 1626,-322 1601.7975,-303.458 1574.5459,-281.383 1556.6484,-266.7158"/>
<polygon fill="#191970" stroke="#191970" points="1558.6164,-263.8029 1548.668,-260.1585 1554.1724,-269.2113 1558.6164,-263.8029"/>
</g>
<!-- Node13 -->
<g id="node14" class="node">
<title>Node13</title>
<g id="a_node14"><a xlink:href="Data_8hpp.html" target="_top" xlink:title="mesh/Data.hpp">
<polygon fill="#ffffff" stroke="#000000" points="1668.5,-302.5 1668.5,-321.5 1759.5,-321.5 1759.5,-302.5 1668.5,-302.5"/>
<text text-anchor="middle" x="1714" y="-309.5" font-family="Helvetica,sans-Serif" font-size="10.00" fill="#000000">mesh/Data.hpp</text>
</a>
</g>
</g>
<!-- Node12&#45;&gt;Node13 -->
<g id="edge18" class="edge">
<title>Node12&#45;&gt;Node13</title>
<path fill="none" stroke="#191970" d="M1693.3547,-358.2455C1696.7244,-350.6973 1701.493,-340.0158 1705.5983,-330.8197"/>
<polygon fill="#191970" stroke="#191970" points="1708.8147,-332.2009 1709.6952,-321.6427 1702.4227,-329.3473 1708.8147,-332.2009"/>
</g>
<!-- Node12&#45;&gt;Node27 -->
<g id="edge39" class="edge">
<title>Node12&#45;&gt;Node27</title>
<path fill="none" stroke="#191970" d="M1682.6584,-358.4859C1663.8261,-330.5469 1607.8142,-249.7773 1580,-235 1544.0295,-215.8894 1292.3728,-199.9936 1161.9709,-192.9311"/>
<polygon fill="#191970" stroke="#191970" points="1161.8233,-189.4182 1151.65,-192.3769 1161.4479,-196.4082 1161.8233,-189.4182"/>
</g>
<!-- Node12&#45;&gt;Node28 -->
<g id="edge41" class="edge">
<title>Node12&#45;&gt;Node28</title>
<path fill="none" stroke="#191970" d="M1741.1029,-363.559C1860.1903,-353.4084 2152.0077,-328.5351 2281.8697,-317.4662"/>
<polygon fill="#191970" stroke="#191970" points="2282.3907,-320.9346 2292.0572,-316.5979 2281.7961,-313.9599 2282.3907,-320.9346"/>
</g>
<!-- Node13&#45;&gt;Node2 -->
<g id="edge21" class="edge">
<title>Node13&#45;&gt;Node2</title>
<path fill="none" stroke="#191970" d="M1696.9942,-302.4947C1684.1072,-294.4214 1666.9695,-281.662 1657,-266 1638.0721,-236.2644 1638,-224.2487 1638,-189 1638,-189 1638,-189 1638,-133 1638,-94.6461 1655.0752,-52.4423 1666.3334,-28.7843"/>
<polygon fill="#191970" stroke="#191970" points="1669.5923,-30.0892 1670.8752,-19.5723 1663.3139,-26.9938 1669.5923,-30.0892"/>
</g>
<!-- Node13&#45;&gt;Node6 -->
<g id="edge19" class="edge">
<title>Node13&#45;&gt;Node6</title>
<path fill="none" stroke="#191970" d="M1686.3438,-302.3906C1656.0789,-291.8749 1607.4145,-274.966 1573.9089,-263.3243"/>
<polygon fill="#191970" stroke="#191970" points="1575.0569,-260.0179 1564.462,-260.0419 1572.7593,-266.6302 1575.0569,-260.0179"/>
</g>
<!-- Node14 -->
<g id="node15" class="node">
<title>Node14</title>
<polygon fill="#ffffff" stroke="#bfbfbf" points="1666,-241 1666,-260 1722,-260 1722,-241 1666,-241"/>
<text text-anchor="middle" x="1694" y="-248" font-family="Helvetica,sans-Serif" font-size="10.00" fill="#000000">stddef.h</text>
</g>
<!-- Node13&#45;&gt;Node14 -->
<g id="edge20" class="edge">
<title>Node13&#45;&gt;Node14</title>
<path fill="none" stroke="#191970" d="M1710.875,-302.3906C1708.0735,-293.776 1703.8767,-280.8708 1700.3694,-270.0858"/>
<polygon fill="#191970" stroke="#191970" points="1703.5902,-268.6722 1697.1691,-260.2449 1696.9333,-270.8371 1703.5902,-268.6722"/>
</g>
<!-- Node13&#45;&gt;Node15 -->
<g id="edge22" class="edge">
<title>Node13&#45;&gt;Node15</title>
<path fill="none" stroke="#191970" d="M1718.3158,-302.3484C1727.3923,-282.0499 1748.5992,-234.6235 1760.5049,-207.9981"/>
<polygon fill="#191970" stroke="#191970" points="1763.8173,-209.1644 1764.7043,-198.6068 1757.4271,-206.307 1763.8173,-209.1644"/>
</g>
<!-- Node15&#45;&gt;Node2 -->
<g id="edge24" class="edge">
<title>Node15&#45;&gt;Node2</title>
<path fill="none" stroke="#191970" d="M1761.118,-179.4558C1747.0894,-162.0601 1717.6122,-123.6045 1700,-87 1691.0225,-68.3414 1684.4085,-45.5465 1680.423,-29.6195"/>
<polygon fill="#191970" stroke="#191970" points="1683.8117,-28.7407 1678.087,-19.8256 1677.0027,-30.3648 1683.8117,-28.7407"/>
</g>
<!-- Node15&#45;&gt;Node9 -->
<g id="edge23" class="edge">
<title>Node15&#45;&gt;Node9</title>
<path fill="none" stroke="#191970" d="M1714.392,-185.0844C1565.7342,-174.4252 1156.3283,-145.0696 1027.4098,-135.8258"/>
<polygon fill="#191970" stroke="#191970" points="1027.4389,-132.319 1017.2141,-135.0947 1026.9382,-139.3011 1027.4389,-132.319"/>
</g>
<!-- Node15&#45;&gt;Node16 -->
<g id="edge25" class="edge">
<title>Node15&#45;&gt;Node16</title>
<path fill="none" stroke="#191970" d="M1823.7471,-184.4173C1949.4089,-173.8985 2257.359,-148.1209 2383.1349,-137.5926"/>
<polygon fill="#191970" stroke="#191970" points="2383.6293,-141.0635 2393.3025,-136.7415 2383.0454,-134.0879 2383.6293,-141.0635"/>
</g>
<!-- Node16&#45;&gt;Node2 -->
<g id="edge32" class="edge">
<title>Node16&#45;&gt;Node2</title>
<path fill="none" stroke="#191970" d="M2434.3566,-123.3112C2427.3602,-106.2403 2410.2753,-71.1765 2383,-56 2323.54,-22.9152 1838.6436,-12.6572 1708.2065,-10.4832"/>
<polygon fill="#191970" stroke="#191970" points="1708.119,-6.9814 1698.0636,-10.3187 1708.0054,-13.9805 1708.119,-6.9814"/>
</g>
<!-- Node17 -->
<g id="node18" class="node">
<title>Node17</title>
<polygon fill="#ffffff" stroke="#bfbfbf" points="2538,-56.5 2538,-86.5 2648,-86.5 2648,-56.5 2538,-56.5"/>
<text text-anchor="start" x="2546" y="-74.5" font-family="Helvetica,sans-Serif" font-size="10.00" fill="#000000">boost/preprocessor</text>
<text text-anchor="middle" x="2593" y="-63.5" font-family="Helvetica,sans-Serif" font-size="10.00" fill="#000000">/control/if.hpp</text>
</g>
<!-- Node16&#45;&gt;Node17 -->
<g id="edge26" class="edge">
<title>Node16&#45;&gt;Node17</title>
<path fill="none" stroke="#191970" d="M2462.2188,-123.3906C2484.4586,-114.5664 2518.0445,-101.2404 2545.6114,-90.3026"/>
<polygon fill="#191970" stroke="#191970" points="2547.0785,-93.486 2555.0827,-86.5446 2544.4968,-86.9794 2547.0785,-93.486"/>
</g>
<!-- Node18 -->
<g id="node19" class="node">
<title>Node18</title>
<polygon fill="#ffffff" stroke="#bfbfbf" points="2258,-56.5 2258,-86.5 2374,-86.5 2374,-56.5 2258,-56.5"/>
<text text-anchor="start" x="2266" y="-74.5" font-family="Helvetica,sans-Serif" font-size="10.00" fill="#000000">boost/preprocessor</text>
<text text-anchor="middle" x="2316" y="-63.5" font-family="Helvetica,sans-Serif" font-size="10.00" fill="#000000">/facilities/empty.hpp</text>
</g>
<!-- Node16&#45;&gt;Node18 -->
<g id="edge27" class="edge">
<title>Node16&#45;&gt;Node18</title>
<path fill="none" stroke="#191970" d="M2418.9375,-123.3906C2401.8912,-114.7976 2376.3764,-101.9356 2355.0144,-91.1671"/>
<polygon fill="#191970" stroke="#191970" points="2356.3497,-87.9207 2345.8446,-86.5446 2353.1986,-94.1714 2356.3497,-87.9207"/>
</g>
<!-- Node19 -->
<g id="node20" class="node">
<title>Node19</title>
<polygon fill="#ffffff" stroke="#bfbfbf" points="2666.5,-56.5 2666.5,-86.5 2777.5,-86.5 2777.5,-56.5 2666.5,-56.5"/>
<text text-anchor="start" x="2674.5" y="-74.5" font-family="Helvetica,sans-Serif" font-size="10.00" fill="#000000">boost/preprocessor</text>
<text text-anchor="middle" x="2722" y="-63.5" font-family="Helvetica,sans-Serif" font-size="10.00" fill="#000000">/seq/for_each_i.hpp</text>
</g>
<!-- Node16&#45;&gt;Node19 -->
<g id="edge28" class="edge">
<title>Node16&#45;&gt;Node19</title>
<path fill="none" stroke="#191970" d="M2482.5371,-124.0129C2524.7646,-115.4094 2590.2289,-101.8592 2656.5631,-87.0653"/>
<polygon fill="#191970" stroke="#191970" points="2657.3596,-90.4737 2666.3537,-84.8741 2655.8307,-83.6427 2657.3596,-90.4737"/>
</g>
<!-- Node20 -->
<g id="node21" class="node">
<title>Node20</title>
<polygon fill="#ffffff" stroke="#bfbfbf" points="2796,-56.5 2796,-86.5 2906,-86.5 2906,-56.5 2796,-56.5"/>
<text text-anchor="start" x="2804" y="-74.5" font-family="Helvetica,sans-Serif" font-size="10.00" fill="#000000">boost/preprocessor</text>
<text text-anchor="middle" x="2851" y="-63.5" font-family="Helvetica,sans-Serif" font-size="10.00" fill="#000000">/stringize.hpp</text>
</g>
<!-- Node16&#45;&gt;Node20 -->
<g id="edge29" class="edge">
<title>Node16&#45;&gt;Node20</title>
<path fill="none" stroke="#191970" d="M2482.5885,-128.6611C2547.2924,-122.0279 2671.1379,-108.0669 2785.9116,-87.0859"/>
<polygon fill="#191970" stroke="#191970" points="2786.7261,-90.4947 2795.9223,-85.2335 2785.4524,-83.6116 2786.7261,-90.4947"/>
</g>
<!-- Node21 -->
<g id="node22" class="node">
<title>Node21</title>
<polygon fill="#ffffff" stroke="#bfbfbf" points="2924.5,-56.5 2924.5,-86.5 3039.5,-86.5 3039.5,-56.5 2924.5,-56.5"/>
<text text-anchor="start" x="2932.5" y="-74.5" font-family="Helvetica,sans-Serif" font-size="10.00" fill="#000000">boost/preprocessor</text>
<text text-anchor="middle" x="2982" y="-63.5" font-family="Helvetica,sans-Serif" font-size="10.00" fill="#000000">/variadic/to_seq.hpp</text>
</g>
<!-- Node16&#45;&gt;Node21 -->
<g id="edge30" class="edge">
<title>Node16&#45;&gt;Node21</title>
<path fill="none" stroke="#191970" d="M2482.6403,-130.6548C2565.63,-125.8709 2749.4024,-113.2875 2914.0371,-87.0109"/>
<polygon fill="#191970" stroke="#191970" points="2915.0391,-90.3944 2924.3518,-85.3423 2913.9212,-83.4842 2915.0391,-90.3944"/>
</g>
<!-- Node22 -->
<g id="node23" class="node">
<title>Node22</title>
<polygon fill="#ffffff" stroke="#bfbfbf" points="1942,-62 1942,-81 2078,-81 2078,-62 1942,-62"/>
<text text-anchor="middle" x="2010" y="-69" font-family="Helvetica,sans-Serif" font-size="10.00" fill="#000000">boost/vmd/is_empty.hpp</text>
</g>
<!-- Node16&#45;&gt;Node22 -->
<g id="edge31" class="edge">
<title>Node16&#45;&gt;Node22</title>
<path fill="none" stroke="#191970" d="M2393.2524,-128.1277C2326.4034,-120.6247 2196.5872,-105.189 2087,-87 2079.7863,-85.8027 2072.216,-84.4269 2064.7552,-82.9998"/>
<polygon fill="#191970" stroke="#191970" points="2065.1784,-79.5164 2054.6928,-81.0341 2063.8362,-86.3866 2065.1784,-79.5164"/>
</g>
<!-- Node23 -->
<g id="node24" class="node">
<title>Node23</title>
<g id="a_node24"><a xlink:href="Tracer_8hpp.html" target="_top" xlink:title="logging/Tracer.hpp">
<polygon fill="#ffffff" stroke="#000000" points="1818.5,-62 1818.5,-81 1923.5,-81 1923.5,-62 1818.5,-62"/>
<text text-anchor="middle" x="1871" y="-69" font-family="Helvetica,sans-Serif" font-size="10.00" fill="#000000">logging/Tracer.hpp</text>
</a>
</g>
</g>
<!-- Node16&#45;&gt;Node23 -->
<g id="edge33" class="edge">
<title>Node16&#45;&gt;Node23</title>
<path fill="none" stroke="#191970" d="M2393.4577,-131.2504C2305.0985,-127.2724 2101.606,-115.5795 1933,-87 1927.1835,-86.0141 1921.1084,-84.769 1915.1332,-83.415"/>
<polygon fill="#191970" stroke="#191970" points="1915.7735,-79.9697 1905.2349,-81.06 1914.1532,-86.7796 1915.7735,-79.9697"/>
</g>
<!-- Node24 -->
<g id="node25" class="node">
<title>Node24</title>
<polygon fill="#ffffff" stroke="#bfbfbf" points="2096,-62 2096,-81 2240,-81 2240,-62 2096,-62"/>
<text text-anchor="middle" x="2168" y="-69" font-family="Helvetica,sans-Serif" font-size="10.00" fill="#000000">prettyprint/prettyprint.hpp</text>
</g>
<!-- Node16&#45;&gt;Node24 -->
<g id="edge35" class="edge">
<title>Node16&#45;&gt;Node24</title>
<path fill="none" stroke="#191970" d="M2396.1087,-123.4581C2348.6174,-112.6406 2271.1528,-94.9959 2219.8785,-83.3168"/>
<polygon fill="#191970" stroke="#191970" points="2220.5171,-79.8727 2209.9895,-81.0643 2218.9625,-86.6978 2220.5171,-79.8727"/>
</g>
<!-- Node25 -->
<g id="node26" class="node">
<title>Node25</title>
<g id="a_node26"><a xlink:href="String_8hpp.html" target="_top" xlink:title="utils/String.hpp">
<polygon fill="#ffffff" stroke="#000000" points="2430,-62 2430,-81 2520,-81 2520,-62 2430,-62"/>
<text text-anchor="middle" x="2475" y="-69" font-family="Helvetica,sans-Serif" font-size="10.00" fill="#000000">utils/String.hpp</text>
</a>
</g>
</g>
<!-- Node16&#45;&gt;Node25 -->
<g id="edge36" class="edge">
<title>Node16&#45;&gt;Node25</title>
<path fill="none" stroke="#191970" d="M2443.7813,-123.3906C2449.126,-114.5068 2457.2159,-101.0601 2463.8211,-90.0811"/>
<polygon fill="#191970" stroke="#191970" points="2466.9811,-91.618 2469.1372,-81.2449 2460.9829,-88.0093 2466.9811,-91.618"/>
</g>
<!-- Node23&#45;&gt;Node15 -->
<g id="edge34" class="edge">
<title>Node23&#45;&gt;Node15</title>
<path fill="none" stroke="#191970" d="M1862.5376,-81.2484C1845.2537,-101.1587 1805.7009,-146.722 1783.974,-171.7505"/>
<polygon fill="#191970" stroke="#191970" points="1781.2595,-169.5385 1777.3471,-179.3845 1786.5456,-174.1273 1781.2595,-169.5385"/>
</g>
<!-- Node25&#45;&gt;Node2 -->
<g id="edge38" class="edge">
<title>Node25&#45;&gt;Node2</title>
<path fill="none" stroke="#191970" d="M2443.3979,-61.9861C2434.6013,-59.6704 2424.9923,-57.4465 2416,-56 2276.5996,-33.5759 1832.6898,-15.8038 1708.5389,-11.178"/>
<polygon fill="#191970" stroke="#191970" points="1708.3113,-7.6673 1698.1888,-10.7954 1708.0526,-14.6625 1708.3113,-7.6673"/>
</g>
<!-- Node26 -->
<g id="node27" class="node">
<title>Node26</title>
<polygon fill="#ffffff" stroke="#bfbfbf" points="2743,-.5 2743,-19.5 2799,-19.5 2799,-.5 2743,-.5"/>
<text text-anchor="middle" x="2771" y="-7.5" font-family="Helvetica,sans-Serif" font-size="10.00" fill="#000000">sstream</text>
</g>
<!-- Node25&#45;&gt;Node26 -->
<g id="edge37" class="edge">
<title>Node25&#45;&gt;Node26</title>
<path fill="none" stroke="#191970" d="M2506.2814,-61.995C2513.6949,-59.8887 2521.599,-57.7617 2529,-56 2600.5118,-38.978 2685.0924,-24.0764 2732.9527,-16.1217"/>
<polygon fill="#191970" stroke="#191970" points="2733.5783,-19.5659 2742.8752,-14.4847 2732.4388,-12.6592 2733.5783,-19.5659"/>
</g>
<!-- Node27&#45;&gt;Node9 -->
<g id="edge40" class="edge">
<title>Node27&#45;&gt;Node9</title>
<path fill="none" stroke="#191970" d="M1067.2781,-179.2455C1052.4111,-170.5731 1030.4534,-157.7645 1013.4142,-147.825"/>
<polygon fill="#191970" stroke="#191970" points="1014.9317,-144.6582 1004.5303,-142.6427 1011.4045,-150.7047 1014.9317,-144.6582"/>
</g>
<!-- Node28&#45;&gt;Node17 -->
<g id="edge46" class="edge">
<title>Node28&#45;&gt;Node17</title>
<path fill="none" stroke="#191970" d="M2399.5362,-304.2661C2446.2636,-296.5033 2509.4236,-283.2337 2528,-266 2576.6383,-220.8775 2588.9084,-138.3868 2591.9847,-96.839"/>
<polygon fill="#191970" stroke="#191970" points="2595.4854,-96.9342 2592.6086,-86.7374 2588.4987,-96.5027 2595.4854,-96.9342"/>
</g>
<!-- Node28&#45;&gt;Node19 -->
<g id="edge48" class="edge">
<title>Node28&#45;&gt;Node19</title>
<path fill="none" stroke="#191970" d="M2399.6204,-304.0791C2452.2859,-295.6054 2528.3546,-281.3033 2554,-266 2626.6694,-222.636 2683.8723,-136.7725 2708.6405,-95.1809"/>
<polygon fill="#191970" stroke="#191970" points="2711.6664,-96.94 2713.6963,-86.5414 2705.6248,-93.4045 2711.6664,-96.94"/>
</g>
<!-- Node28&#45;&gt;Node20 -->
<g id="edge49" class="edge">
<title>Node28&#45;&gt;Node20</title>
<path fill="none" stroke="#191970" d="M2399.9496,-308.6646C2450.3828,-303.9679 2526.8756,-292.7345 2588,-266 2687.9228,-222.2959 2785.9345,-134.7043 2828.6685,-93.6681"/>
<polygon fill="#191970" stroke="#191970" points="2831.2483,-96.0418 2835.9926,-86.5685 2826.3762,-91.0156 2831.2483,-96.0418"/>
</g>
<!-- Node28&#45;&gt;Node21 -->
<g id="edge50" class="edge">
<title>Node28&#45;&gt;Node21</title>
<path fill="none" stroke="#191970" d="M2399.6756,-308.8125C2457.7983,-304.1067 2552.5767,-292.7524 2630,-266 2758.049,-221.7547 2894.2126,-132.8398 2952.624,-92.3907"/>
<polygon fill="#191970" stroke="#191970" points="2954.7909,-95.1467 2960.9933,-86.5571 2950.7881,-89.404 2954.7909,-95.1467"/>
</g>
<!-- Node28&#45;&gt;Node26 -->
<g id="edge44" class="edge">
<title>Node28&#45;&gt;Node26</title>
<path fill="none" stroke="#191970" d="M2399.6775,-308.5266C2567.0027,-296.9903 3068,-256.7885 3068,-189 3068,-189 3068,-189 3068,-133 3068,-97.7513 3074.8767,-79.9346 3049,-56 3014.8253,-24.3902 2877.8159,-14.3561 2809.7608,-11.288"/>
<polygon fill="#191970" stroke="#191970" points="2809.5955,-7.778 2799.4568,-10.8532 2809.3003,-14.7718 2809.5955,-7.778"/>
</g>
<!-- Node29 -->
<g id="node30" class="node">
<title>Node29</title>
<polygon fill="#ffffff" stroke="#bfbfbf" points="1968,-241 1968,-260 2020,-260 2020,-241 1968,-241"/>
<text text-anchor="middle" x="1994" y="-248" font-family="Helvetica,sans-Serif" font-size="10.00" fill="#000000">cassert</text>
</g>
<!-- Node28&#45;&gt;Node29 -->
<g id="edge42" class="edge">
<title>Node28&#45;&gt;Node29</title>
<path fill="none" stroke="#191970" d="M2292.3404,-308.6876C2228.5329,-303.7312 2119.3097,-292.018 2029,-266 2027.0363,-265.4343 2025.0394,-264.7808 2023.0456,-264.0689"/>
<polygon fill="#191970" stroke="#191970" points="2023.8548,-260.6229 2013.2702,-260.1571 2021.2541,-267.1219 2023.8548,-260.6229"/>
</g>
<!-- Node30 -->
<g id="node31" class="node">
<title>Node30</title>
<polygon fill="#ffffff" stroke="#bfbfbf" points="2038,-241 2038,-260 2098,-260 2098,-241 2038,-241"/>
<text text-anchor="middle" x="2068" y="-248" font-family="Helvetica,sans-Serif" font-size="10.00" fill="#000000">iostream</text>
</g>
<!-- Node28&#45;&gt;Node30 -->
<g id="edge43" class="edge">
<title>Node28&#45;&gt;Node30</title>
<path fill="none" stroke="#191970" d="M2292.4205,-304.4504C2243.7563,-296.9339 2170.2801,-283.9294 2108,-266 2105.4056,-265.2531 2102.7439,-264.407 2100.086,-263.5046"/>
<polygon fill="#191970" stroke="#191970" points="2101.1982,-260.185 2090.604,-260.0678 2098.8128,-266.766 2101.1982,-260.185"/>
</g>
<!-- Node31 -->
<g id="node32" class="node">
<title>Node31</title>
<polygon fill="#ffffff" stroke="#bfbfbf" points="2116.5,-241 2116.5,-260 2263.5,-260 2263.5,-241 2116.5,-241"/>
<text text-anchor="middle" x="2190" y="-248" font-family="Helvetica,sans-Serif" font-size="10.00" fill="#000000">boost/current_function.hpp</text>
</g>
<!-- Node28&#45;&gt;Node31 -->
<g id="edge45" class="edge">
<title>Node28&#45;&gt;Node31</title>
<path fill="none" stroke="#191970" d="M2321.625,-302.3906C2295.2944,-292.0103 2253.162,-275.4004 2223.6771,-263.7766"/>
<polygon fill="#191970" stroke="#191970" points="2224.7907,-260.4534 2214.2038,-260.0419 2222.2233,-266.9657 2224.7907,-260.4534"/>
</g>
<!-- Node32 -->
<g id="node33" class="node">
<title>Node32</title>
<polygon fill="#ffffff" stroke="#bfbfbf" points="2281.5,-235.5 2281.5,-265.5 2410.5,-265.5 2410.5,-235.5 2281.5,-235.5"/>
<text text-anchor="start" x="2289.5" y="-253.5" font-family="Helvetica,sans-Serif" font-size="10.00" fill="#000000">boost/preprocessor</text>
<text text-anchor="middle" x="2346" y="-242.5" font-family="Helvetica,sans-Serif" font-size="10.00" fill="#000000">/facilities/is_empty.hpp</text>
</g>
<!-- Node28&#45;&gt;Node32 -->
<g id="edge47" class="edge">
<title>Node28&#45;&gt;Node32</title>
<path fill="none" stroke="#191970" d="M2346,-302.3906C2346,-295.2234 2346,-285.0862 2346,-275.671"/>
<polygon fill="#191970" stroke="#191970" points="2349.5001,-275.5446 2346,-265.5446 2342.5001,-275.5446 2349.5001,-275.5446"/>
</g>
<!-- Node33 -->
<g id="node34" class="node">
<title>Node33</title>
<g id="a_node34"><a xlink:href="Parallel_8hpp.html" target="_top" xlink:title="Parallel.hpp">
<polygon fill="#ffffff" stroke="#000000" points="2429,-241 2429,-260 2503,-260 2503,-241 2429,-241"/>
<text text-anchor="middle" x="2466" y="-248" font-family="Helvetica,sans-Serif" font-size="10.00" fill="#000000">Parallel.hpp</text>
</a>
</g>
</g>
<!-- Node28&#45;&gt;Node33 -->
<g id="edge51" class="edge">
<title>Node28&#45;&gt;Node33</title>
<path fill="none" stroke="#191970" d="M2364.75,-302.3906C2384.476,-292.2811 2415.7312,-276.2628 2438.3,-264.6962"/>
<polygon fill="#191970" stroke="#191970" points="2440.0787,-267.7176 2447.3817,-260.0419 2436.886,-261.4881 2440.0787,-267.7176"/>
</g>
<!-- Node36 -->
<g id="node37" class="node">
<title>Node36</title>
<g id="a_node37"><a xlink:href="stacktrace_8hpp.html" target="_top" xlink:title="stacktrace.hpp">
<polygon fill="#ffffff" stroke="#000000" points="2149.5,-123.5 2149.5,-142.5 2238.5,-142.5 2238.5,-123.5 2149.5,-123.5"/>
<text text-anchor="middle" x="2194" y="-130.5" font-family="Helvetica,sans-Serif" font-size="10.00" fill="#000000">stacktrace.hpp</text>
</a>
</g>
</g>
<!-- Node28&#45;&gt;Node36 -->
<g id="edge58" class="edge">
<title>Node28&#45;&gt;Node36</title>
<path fill="none" stroke="#191970" d="M2399.544,-304.2762C2442.6669,-296.8307 2498.2862,-284.0308 2512,-266 2522.3081,-252.447 2512.7237,-186.8994 2505,-179 2487.3718,-160.9708 2333.1433,-145.0014 2248.7085,-137.5124"/>
<polygon fill="#191970" stroke="#191970" points="2248.79,-134.0062 2238.5226,-136.62 2248.179,-140.9795 2248.79,-134.0062"/>
</g>
<!-- Node33&#45;&gt;Node2 -->
<g id="edge54" class="edge">
<title>Node33&#45;&gt;Node2</title>
<path fill="none" stroke="#191970" d="M2438.9009,-240.8555C2432.7254,-238.8012 2426.1662,-236.7317 2420,-235 2276.5414,-194.7123 1899.178,-153.8361 1766,-87 1761.9133,-84.9491 1720.0483,-48.5678 1694.8815,-26.5578"/>
<polygon fill="#191970" stroke="#191970" points="1696.8949,-23.6688 1687.0655,-19.7149 1692.2838,-28.9355 1696.8949,-23.6688"/>
</g>
<!-- Node33&#45;&gt;Node4 -->
<g id="edge55" class="edge">
<title>Node33&#45;&gt;Node4</title>
<path fill="none" stroke="#191970" d="M2442.0068,-240.8924C2435.0224,-238.5148 2427.3043,-236.2825 2420,-235 2245.7317,-204.4019 1004.8443,-204.6378 828,-199 753.4154,-196.6222 665.9973,-192.7615 619.0126,-190.5986"/>
<polygon fill="#191970" stroke="#191970" points="618.9453,-187.0918 608.7942,-190.1256 618.6216,-194.0843 618.9453,-187.0918"/>
</g>
<!-- Node33&#45;&gt;Node9 -->
<g id="edge53" class="edge">
<title>Node33&#45;&gt;Node9</title>
<path fill="none" stroke="#191970" d="M2441.4865,-240.9586C2434.6287,-238.6428 2427.1058,-236.4258 2420,-235 2198.9484,-190.6468 2136.7003,-234.1512 1914,-199 1877.3723,-193.2187 1869.6745,-184.4764 1833,-179 1674.406,-155.3182 1171.8979,-138.5773 1027.2857,-134.1589"/>
<polygon fill="#191970" stroke="#191970" points="1027.2138,-130.6552 1017.1123,-133.8504 1027.0016,-137.652 1027.2138,-130.6552"/>
</g>
<!-- Node33&#45;&gt;Node15 -->
<g id="edge56" class="edge">
<title>Node33&#45;&gt;Node15</title>
<path fill="none" stroke="#191970" d="M2441.4912,-240.9354C2434.6334,-238.6195 2427.1094,-236.4082 2420,-235 2182.3112,-187.9198 2117.5387,-218.2754 1876,-199 1862.3063,-197.9072 1847.6385,-196.6158 1833.6895,-195.3304"/>
<polygon fill="#191970" stroke="#191970" points="1833.9653,-191.8411 1823.6838,-194.3985 1833.3161,-198.8109 1833.9653,-191.8411"/>
</g>
<!-- Node34 -->
<g id="node35" class="node">
<title>Node34</title>
<polygon fill="#ffffff" stroke="#bfbfbf" points="2384.5,-179.5 2384.5,-198.5 2433.5,-198.5 2433.5,-179.5 2384.5,-179.5"/>
<text text-anchor="middle" x="2409" y="-186.5" font-family="Helvetica,sans-Serif" font-size="10.00" fill="#000000">iosfwd</text>
</g>
<!-- Node33&#45;&gt;Node34 -->
<g id="edge52" class="edge">
<title>Node33&#45;&gt;Node34</title>
<path fill="none" stroke="#191970" d="M2457.0938,-240.8906C2448.5272,-231.6478 2435.3831,-217.466 2424.9997,-206.2628"/>
<polygon fill="#191970" stroke="#191970" points="2427.3965,-203.7 2418.0318,-198.7449 2422.2625,-208.4584 2427.3965,-203.7"/>
</g>
<!-- Node35 -->
<g id="node36" class="node">
<title>Node35</title>
<polygon fill="#ffffff" stroke="#bfbfbf" points="2452,-179.5 2452,-198.5 2496,-198.5 2496,-179.5 2452,-179.5"/>
<text text-anchor="middle" x="2474" y="-186.5" font-family="Helvetica,sans-Serif" font-size="10.00" fill="#000000">mpi.h</text>
</g>
<!-- Node33&#45;&gt;Node35 -->
<g id="edge57" class="edge">
<title>Node33&#45;&gt;Node35</title>
<path fill="none" stroke="#191970" d="M2467.25,-240.8906C2468.3589,-232.3657 2470.0144,-219.6392 2471.4083,-208.9235"/>
<polygon fill="#191970" stroke="#191970" points="2474.9131,-209.1128 2472.7324,-198.7449 2467.9716,-208.2098 2474.9131,-209.1128"/>
</g>
<!-- Node36&#45;&gt;Node2 -->
<g id="edge59" class="edge">
<title>Node36&#45;&gt;Node2</title>
<path fill="none" stroke="#191970" d="M2149.3925,-130.4052C2061.9289,-124.8696 1871.1171,-110.4591 1810,-87 1787.667,-78.4277 1786.4792,-68.3632 1766,-56 1746.607,-44.2925 1723.8866,-32.6952 1706.126,-24.074"/>
<polygon fill="#191970" stroke="#191970" points="1707.3518,-20.7802 1696.8219,-19.6089 1704.3231,-27.091 1707.3518,-20.7802"/>
</g>
<!-- Node37&#45;&gt;Node2 -->
<g id="edge62" class="edge">
<title>Node37&#45;&gt;Node2</title>
<path fill="none" stroke="#191970" d="M346.4653,-240.9295C346.17,-225.3842 348.0799,-194.7986 366,-179 672.7989,91.4773 872.1658,-106.8152 1278,-56 1413.9404,-38.9787 1576.2976,-20.9194 1643.9516,-13.4951"/>
<polygon fill="#191970" stroke="#191970" points="1644.4186,-16.965 1653.9779,-12.3967 1643.6562,-10.0066 1644.4186,-16.965"/>
</g>
<!-- Node37&#45;&gt;Node4 -->
<g id="edge63" class="edge">
<title>Node37&#45;&gt;Node4</title>
<path fill="none" stroke="#191970" d="M383.9264,-240.9581C429.7382,-229.1202 507.1909,-209.1061 551.4032,-197.6815"/>
<polygon fill="#191970" stroke="#191970" points="552.5559,-200.9987 561.3622,-195.1081 550.8045,-194.2213 552.5559,-200.9987"/>
</g>
<!-- Node37&#45;&gt;Node8 -->
<g id="edge61" class="edge">
<title>Node37&#45;&gt;Node8</title>
<path fill="none" stroke="#191970" d="M406.635,-243.2946C516.1751,-230.0594 745.6299,-202.3355 826.7909,-192.5292"/>
<polygon fill="#191970" stroke="#191970" points="827.2938,-195.994 836.8017,-191.3196 826.4541,-189.0445 827.2938,-195.994"/>
</g>
<!-- Node38 -->
<g id="node39" class="node">
<title>Node38</title>
<g id="a_node39"><a xlink:href="com_2SharedPointer_8hpp.html" target="_top" xlink:title="com/SharedPointer.hpp">
<polygon fill="#ffffff" stroke="#000000" points="375.5,-179.5 375.5,-198.5 504.5,-198.5 504.5,-179.5 375.5,-179.5"/>
<text text-anchor="middle" x="440" y="-186.5" font-family="Helvetica,sans-Serif" font-size="10.00" fill="#000000">com/SharedPointer.hpp</text>
</a>
</g>
</g>
<!-- Node37&#45;&gt;Node38 -->
<g id="edge64" class="edge">
<title>Node37&#45;&gt;Node38</title>
<path fill="none" stroke="#191970" d="M361.5313,-240.8906C376.4094,-231.0519 399.7504,-215.6167 417.1128,-204.1351"/>
<polygon fill="#191970" stroke="#191970" points="419.1602,-206.9773 425.5708,-198.5419 415.299,-201.1385 419.1602,-206.9773"/>
</g>
<!-- Node38&#45;&gt;Node9 -->
<g id="edge65" class="edge">
<title>Node38&#45;&gt;Node9</title>
<path fill="none" stroke="#191970" d="M504.7442,-182.3838C619.5559,-170.6512 855.5019,-146.54 948.7935,-137.0065"/>
<polygon fill="#191970" stroke="#191970" points="949.3366,-140.4693 958.9289,-135.9708 948.6249,-133.5056 949.3366,-140.4693"/>
</g>
<!-- Node39&#45;&gt;Node9 -->
<g id="edge67" class="edge">
<title>Node39&#45;&gt;Node9</title>
<path fill="none" stroke="#191970" d="M247.3121,-302.4476C248.2844,-286.7913 252.2197,-255.3768 268,-235 298.7155,-195.3377 318.0236,-193.6562 366,-179 475.6955,-145.4894 829.8138,-135.9395 948.6787,-133.6424"/>
<polygon fill="#191970" stroke="#191970" points="948.8522,-137.1399 958.7851,-133.4538 948.7215,-130.1411 948.8522,-137.1399"/>
</g>
<!-- Node40&#45;&gt;Node9 -->
<g id="edge69" class="edge">
<title>Node40&#45;&gt;Node9</title>
<path fill="none" stroke="#191970" d="M1400.8536,-302.3975C1366.9907,-278.1065 1273.3049,-213.686 1186,-179 1132.8998,-157.9034 1067.768,-145.0923 1027.0627,-138.5248"/>
<polygon fill="#191970" stroke="#191970" points="1027.4332,-135.0402 1017.012,-136.9503 1026.3498,-141.9559 1027.4332,-135.0402"/>
</g>
<!-- Node41&#45;&gt;Node6 -->
<g id="edge71" class="edge">
<title>Node41&#45;&gt;Node6</title>
<path fill="none" stroke="#191970" d="M1433.5307,-358.4945C1458.8591,-351.8927 1486.908,-340.7538 1507,-322 1521.7121,-308.2678 1529.472,-286.1902 1533.3824,-270.1975"/>
<polygon fill="#191970" stroke="#191970" points="1536.8355,-270.7871 1535.5126,-260.2752 1529.9914,-269.3177 1536.8355,-270.7871"/>
</g>
<!-- Node42&#45;&gt;Node9 -->
<g id="edge73" class="edge">
<title>Node42&#45;&gt;Node9</title>
<path fill="none" stroke="#191970" d="M182.6263,-358.1853C171.9295,-349.9414 158.1591,-337.1035 152,-322 128.0013,-263.1496 108.3114,-225.1586 152,-179 179.6851,-149.7497 786.1706,-136.6662 948.3953,-133.6822"/>
<polygon fill="#191970" stroke="#191970" points="948.9267,-137.1732 958.8616,-133.4924 948.7998,-130.1744 948.9267,-137.1732"/>
</g>
<!-- Node43&#45;&gt;Node2 -->
<g id="edge77" class="edge">
<title>Node43&#45;&gt;Node2</title>
<path fill="none" stroke="#191970" d="M469.6808,-307.7341C348.5061,-297.6136 90,-266.895 90,-189 90,-189 90,-189 90,-133 90,51.9711 315.1997,-76.779 499,-56 729.8985,-29.8964 1478.4067,-13.8876 1643.5586,-10.6221"/>
<polygon fill="#191970" stroke="#191970" points="1643.6521,-14.121 1653.5815,-10.4255 1643.5148,-7.1224 1643.6521,-14.121"/>
</g>
<!-- Node43&#45;&gt;Node4 -->
<g id="edge78" class="edge">
<title>Node43&#45;&gt;Node4</title>
<path fill="none" stroke="#191970" d="M539.7542,-302.4847C547.4467,-293.6448 558.4125,-279.8019 565,-266 573.7608,-247.6448 579.0604,-224.9283 581.9819,-208.9413"/>
<polygon fill="#191970" stroke="#191970" points="585.5058,-209.0889 583.7045,-198.6483 578.6019,-207.9334 585.5058,-209.0889"/>
</g>
<!-- Node43&#45;&gt;Node6 -->
<g id="edge75" class="edge">
<title>Node43&#45;&gt;Node6</title>
<path fill="none" stroke="#191970" d="M592.0829,-305.9679C607.3931,-304.5596 623.7902,-303.1399 639,-302 966.112,-277.4836 1361.0275,-258.5259 1492.2277,-252.5116"/>
<polygon fill="#191970" stroke="#191970" points="1492.4702,-256.0042 1502.3,-252.0516 1492.1507,-249.0115 1492.4702,-256.0042"/>
</g>
<!-- Node43&#45;&gt;Node15 -->
<g id="edge79" class="edge">
<title>Node43&#45;&gt;Node15</title>
<path fill="none" stroke="#191970" d="M592.3926,-305.9004C802.1677,-285.0585 1489.3653,-216.7828 1704.2086,-195.4373"/>
<polygon fill="#191970" stroke="#191970" points="1704.775,-198.8983 1714.3799,-194.4267 1704.0828,-191.9326 1704.775,-198.8983"/>
</g>
<!-- Node44 -->
<g id="node45" class="node">
<title>Node44</title>
<polygon fill="#ffffff" stroke="#bfbfbf" points="501.5,-241 501.5,-260 556.5,-260 556.5,-241 501.5,-241"/>
<text text-anchor="middle" x="529" y="-248" font-family="Helvetica,sans-Serif" font-size="10.00" fill="#000000">fstream</text>
</g>
<!-- Node43&#45;&gt;Node44 -->
<g id="edge76" class="edge">
<title>Node43&#45;&gt;Node44</title>
<path fill="none" stroke="#191970" d="M530.6875,-302.3906C530.4103,-293.8657 529.9964,-281.1392 529.6479,-270.4235"/>
<polygon fill="#191970" stroke="#191970" points="533.1402,-270.1258 529.3169,-260.2449 526.1439,-270.3534 533.1402,-270.1258"/>
</g>
<!-- Node45&#45;&gt;Node2 -->
<g id="edge84" class="edge">
<title>Node45&#45;&gt;Node2</title>
<path fill="none" stroke="#191970" d="M972.3385,-358.4244C1072.0494,-309.0516 1528.0227,-83.2723 1647.3514,-24.1856"/>
<polygon fill="#191970" stroke="#191970" points="1649.1932,-27.1793 1656.6017,-19.6053 1646.087,-20.9062 1649.1932,-27.1793"/>
</g>
<!-- Node45&#45;&gt;Node4 -->
<g id="edge86" class="edge">
<title>Node45&#45;&gt;Node4</title>
<path fill="none" stroke="#191970" d="M910.7715,-362.9383C827.5842,-352.8127 649.6062,-330.3218 639,-322 603.1864,-293.9002 590.9882,-238.1867 586.9384,-208.5723"/>
<polygon fill="#191970" stroke="#191970" points="590.4104,-208.1284 585.753,-198.6122 583.4594,-208.9558 590.4104,-208.1284"/>
</g>
<!-- Node45&#45;&gt;Node8 -->
<g id="edge82" class="edge">
<title>Node45&#45;&gt;Node8</title>
<path fill="none" stroke="#191970" d="M950.2164,-358.4054C946.313,-345.3832 938.7071,-321.5005 930,-302 916.1311,-270.9389 911.9531,-263.2474 893,-235 886.4045,-225.1701 878.2288,-214.8466 871.2414,-206.4758"/>
<polygon fill="#191970" stroke="#191970" points="873.8975,-204.1964 864.7526,-198.8465 868.5653,-208.7316 873.8975,-204.1964"/>
</g>
<!-- Node45&#45;&gt;Node9 -->
<g id="edge83" class="edge">
<title>Node45&#45;&gt;Node9</title>
<path fill="none" stroke="#191970" d="M954.4154,-358.4967C959.6367,-323.4391 977.8858,-200.9096 985.066,-152.7"/>
<polygon fill="#191970" stroke="#191970" points="988.5556,-153.0281 986.567,-142.6216 981.632,-151.9969 988.5556,-153.0281"/>
</g>
<!-- Node45&#45;&gt;Node15 -->
<g id="edge96" class="edge">
<title>Node45&#45;&gt;Node15</title>
<path fill="none" stroke="#191970" d="M995.2819,-365.9996C1161.4951,-358.0881 1761.2657,-329.0717 1768,-322 1796.9462,-291.6036 1785.2891,-237.3161 1776.0963,-208.3919"/>
<polygon fill="#191970" stroke="#191970" points="1779.317,-206.9915 1772.7835,-198.6509 1772.6897,-209.2453 1779.317,-206.9915"/>
</g>
<!-- Node45&#45;&gt;Node27 -->
<g id="edge98" class="edge">
<title>Node45&#45;&gt;Node27</title>
<path fill="none" stroke="#191970" d="M965.3023,-358.327C975.884,-349.5957 991.1181,-336.0048 1002,-322 1029.0958,-287.1282 1026.1566,-272.1714 1050,-235 1056.208,-225.3219 1063.7552,-214.9888 1070.1605,-206.5728"/>
<polygon fill="#191970" stroke="#191970" points="1072.973,-208.6572 1076.3181,-198.6043 1067.434,-204.377 1072.973,-208.6572"/>
</g>
<!-- Node45&#45;&gt;Node38 -->
<g id="edge95" class="edge">
<title>Node45&#45;&gt;Node38</title>
<path fill="none" stroke="#191970" d="M910.7922,-366.944C825.189,-364.1699 625.3258,-354.4719 461,-322 377.5573,-305.5111 328.5846,-334.3795 278,-266 250.2354,-228.4682 310.548,-208.4879 365.3001,-198.3737"/>
<polygon fill="#191970" stroke="#191970" points="366.1903,-201.7711 375.4363,-196.5979 364.9823,-194.8761 366.1903,-201.7711"/>
</g>
<!-- Node46 -->
<g id="node47" class="node">
<title>Node46</title>
<polygon fill="#ffffff" stroke="#bfbfbf" points="852.5,-302.5 852.5,-321.5 921.5,-321.5 921.5,-302.5 852.5,-302.5"/>
<text text-anchor="middle" x="887" y="-309.5" font-family="Helvetica,sans-Serif" font-size="10.00" fill="#000000">type_traits</text>
</g>
<!-- Node45&#45;&gt;Node46 -->
<g id="edge85" class="edge">
<title>Node45&#45;&gt;Node46</title>
<path fill="none" stroke="#191970" d="M941.5037,-358.2455C931.7558,-349.9746 917.5741,-337.9416 906.1202,-328.2232"/>
<polygon fill="#191970" stroke="#191970" points="908.2541,-325.4437 898.3646,-321.6427 903.7253,-330.7813 908.2541,-325.4437"/>
</g>
<!-- Node47 -->
<g id="node48" class="node">
<title>Node47</title>
<g id="a_node48"><a xlink:href="DistributedComFactory_8hpp.html" target="_top" xlink:title="DistributedComFactory.hpp">
<polygon fill="#ffffff" stroke="#000000" points="648,-302.5 648,-321.5 796,-321.5 796,-302.5 648,-302.5"/>
<text text-anchor="middle" x="722" y="-309.5" font-family="Helvetica,sans-Serif" font-size="10.00" fill="#000000">DistributedComFactory.hpp</text>
</a>
</g>
</g>
<!-- Node45&#45;&gt;Node47 -->
<g id="edge87" class="edge">
<title>Node45&#45;&gt;Node47</title>
<path fill="none" stroke="#191970" d="M913.5522,-358.4369C874.1844,-348.8932 813.5966,-334.2052 771.1292,-323.9101"/>
<polygon fill="#191970" stroke="#191970" points="771.8283,-320.4783 761.2851,-321.5237 770.179,-327.2812 771.8283,-320.4783"/>
</g>
<!-- Node48 -->
<g id="node49" class="node">
<title>Node48</title>
<g id="a_node49"><a xlink:href="DistributedCommunication_8hpp.html" target="_top" xlink:title="DistributedCommunication.hpp">
<polygon fill="#ffffff" stroke="#ff0000" points="715.5,-241 715.5,-260 884.5,-260 884.5,-241 715.5,-241"/>
<text text-anchor="middle" x="800" y="-248" font-family="Helvetica,sans-Serif" font-size="10.00" fill="#000000">DistributedCommunication.hpp</text>
</a>
</g>
</g>
<!-- Node45&#45;&gt;Node48 -->
<g id="edge97" class="edge">
<title>Node45&#45;&gt;Node48</title>
<path fill="none" stroke="#191970" d="M914.6076,-358.4909C891.8396,-351.3612 863.5162,-339.7314 843,-322 826.4584,-307.7037 814.4746,-285.4102 807.4244,-269.5196"/>
<polygon fill="#191970" stroke="#191970" points="810.5933,-268.0252 803.5056,-260.1502 804.1354,-270.7263 810.5933,-268.0252"/>
</g>
<!-- Node45&#45;&gt;Node67 -->
<g id="edge93" class="edge">
<title>Node45&#45;&gt;Node67</title>
<path fill="none" stroke="#191970" d="M995.2267,-360.2722C1047.4572,-350.7137 1136.8091,-334.3617 1196.8673,-323.3707"/>
<polygon fill="#191970" stroke="#191970" points="1197.7771,-326.7624 1206.9836,-321.5193 1196.5169,-319.8768 1197.7771,-326.7624"/>
</g>
<!-- Node47&#45;&gt;Node9 -->
<g id="edge92" class="edge">
<title>Node47&#45;&gt;Node9</title>
<path fill="none" stroke="#191970" d="M715.6967,-302.172C706.637,-286.6738 692.4381,-256.1476 706,-235 732.9884,-192.9161 878.198,-156.5684 949.0569,-141.0358"/>
<polygon fill="#191970" stroke="#191970" points="949.9147,-144.4313 958.9491,-138.8969 948.4353,-137.5894 949.9147,-144.4313"/>
</g>
<!-- Node47&#45;&gt;Node48 -->
<g id="edge88" class="edge">
<title>Node47&#45;&gt;Node48</title>
<path fill="none" stroke="#191970" d="M734.1875,-302.3906C746.437,-292.7324 765.5263,-277.6812 779.9977,-266.271"/>
<polygon fill="#191970" stroke="#191970" points="782.2124,-268.9819 787.8981,-260.0419 777.8783,-263.485 782.2124,-268.9819"/>
</g>
<!-- Node48&#45;&gt;Node4 -->
<g id="edge90" class="edge">
<title>Node48&#45;&gt;Node4</title>
<path fill="none" stroke="#191970" d="M766.4063,-240.8906C726.0132,-229.3363 658.6375,-210.0638 618.3523,-198.5403"/>
<polygon fill="#191970" stroke="#191970" points="619.3039,-195.1722 608.7269,-195.787 617.3787,-201.9023 619.3039,-195.1722"/>
</g>
<!-- Node48&#45;&gt;Node8 -->
<g id="edge89" class="edge">
<title>Node48&#45;&gt;Node8</title>
<path fill="none" stroke="#191970" d="M808.75,-240.8906C817.1662,-231.6478 830.0797,-217.466 840.281,-206.2628"/>
<polygon fill="#191970" stroke="#191970" points="842.9818,-208.4953 847.1266,-198.7449 837.806,-203.7824 842.9818,-208.4953"/>
</g>
<!-- Node48&#45;&gt;Node27 -->
<g id="edge91" class="edge">
<title>Node48&#45;&gt;Node27</title>
<path fill="none" stroke="#191970" d="M844.0634,-240.9581C894.1213,-230.1181 975.8382,-212.4224 1029.7682,-200.7439"/>
<polygon fill="#191970" stroke="#191970" points="1030.8005,-204.1015 1039.8332,-198.5643 1029.319,-197.2601 1030.8005,-204.1015"/>
</g>
<!-- Node67&#45;&gt;Node9 -->
<g id="edge94" class="edge">
<title>Node67&#45;&gt;Node9</title>
<path fill="none" stroke="#191970" d="M1254.5922,-302.2122C1242.94,-277.4865 1208.8312,-212.1298 1160,-179 1119.9567,-151.8324 1064.5685,-140.6898 1027.5767,-136.1326"/>
<polygon fill="#191970" stroke="#191970" points="1027.5204,-132.6044 1017.1922,-134.9664 1026.7391,-139.5606 1027.5204,-132.6044"/>
</g>
</g>
</svg>
