<?xml version="1.0" encoding="UTF-8" standalone="no"?>
<!DOCTYPE svg PUBLIC "-//W3C//DTD SVG 1.1//EN"
 "http://www.w3.org/Graphics/SVG/1.1/DTD/svg11.dtd">
<!-- Generated by graphviz version 2.40.1 (20161225.0304)
 -->
<!-- Title: src/acceleration/test/ParallelMatrixOperationsTest.cpp Pages: 1 -->
<svg width="2651pt" height="576pt"
 viewBox="0.00 0.00 2650.50 576.00" xmlns="http://www.w3.org/2000/svg" xmlns:xlink="http://www.w3.org/1999/xlink">
<g id="graph0" class="graph" transform="scale(1 1) rotate(0) translate(4 572)">
<title>src/acceleration/test/ParallelMatrixOperationsTest.cpp</title>
<polygon fill="#ffffff" stroke="transparent" points="-4,4 -4,-572 2646.5,-572 2646.5,4 -4,4"/>
<!-- Node0 -->
<g id="node1" class="node">
<title>Node0</title>
<polygon fill="#bfbfbf" stroke="#000000" points="504,-537.5 504,-567.5 683,-567.5 683,-537.5 504,-537.5"/>
<text text-anchor="start" x="512" y="-555.5" font-family="Helvetica,sans-Serif" font-size="10.00" fill="#000000">src/acceleration/test</text>
<text text-anchor="middle" x="593.5" y="-544.5" font-family="Helvetica,sans-Serif" font-size="10.00" fill="#000000">/ParallelMatrixOperationsTest.cpp</text>
</g>
<!-- Node1 -->
<g id="node2" class="node">
<title>Node1</title>
<polygon fill="#ffffff" stroke="#bfbfbf" points="0,-470.5 0,-500.5 111,-500.5 111,-470.5 0,-470.5"/>
<text text-anchor="start" x="8" y="-488.5" font-family="Helvetica,sans-Serif" font-size="10.00" fill="#000000">boost/test/unit_test</text>
<text text-anchor="middle" x="55.5" y="-477.5" font-family="Helvetica,sans-Serif" font-size="10.00" fill="#000000">_log.hpp</text>
</g>
<!-- Node0&#45;&gt;Node1 -->
<g id="edge1" class="edge">
<title>Node0&#45;&gt;Node1</title>
<path fill="none" stroke="#191970" d="M503.8233,-545.5374C409.3274,-537.5228 256.3496,-522.6212 125.5,-501 124.0417,-500.759 122.568,-500.5071 121.0836,-500.2456"/>
<polygon fill="#191970" stroke="#191970" points="121.6507,-496.7911 111.1787,-498.3993 120.3679,-503.6726 121.6507,-496.7911"/>
</g>
<!-- Node2 -->
<g id="node3" class="node">
<title>Node2</title>
<polygon fill="#ffffff" stroke="#bfbfbf" points="2189,-302.5 2189,-321.5 2258,-321.5 2258,-302.5 2189,-302.5"/>
<text text-anchor="middle" x="2223.5" y="-309.5" font-family="Helvetica,sans-Serif" font-size="10.00" fill="#000000">Eigen/Core</text>
</g>
<!-- Node0&#45;&gt;Node2 -->
<g id="edge2" class="edge">
<title>Node0&#45;&gt;Node2</title>
<path fill="none" stroke="#191970" d="M683.1766,-551.4994C969.3325,-547.995 1858.6119,-534.6158 2144.5,-501 2292.7025,-483.5738 2379.0963,-549.5664 2473.5,-434 2491.5579,-411.894 2466.915,-372.7789 2448.5,-358 2421.2761,-336.1516 2326.0293,-322.6706 2268.5502,-316.3322"/>
<polygon fill="#191970" stroke="#191970" points="2268.5981,-312.8174 2258.282,-315.2314 2267.8519,-319.7775 2268.5981,-312.8174"/>
</g>
<!-- Node3 -->
<g id="node4" class="node">
<title>Node3</title>
<polygon fill="#ffffff" stroke="#bfbfbf" points="227.5,-476 227.5,-495 291.5,-495 291.5,-476 227.5,-476"/>
<text text-anchor="middle" x="259.5" y="-483" font-family="Helvetica,sans-Serif" font-size="10.00" fill="#000000">algorithm</text>
</g>
<!-- Node0&#45;&gt;Node3 -->
<g id="edge3" class="edge">
<title>Node0&#45;&gt;Node3</title>
<path fill="none" stroke="#191970" d="M503.7459,-541.1746C445.2563,-532.7079 367.6163,-519.41 300.5,-501 297.748,-500.2451 294.9225,-499.3788 292.1041,-498.4499"/>
<polygon fill="#191970" stroke="#191970" points="293.2607,-495.1466 282.6659,-495.1215 290.9327,-501.7481 293.2607,-495.1466"/>
</g>
<!-- Node4 -->
<g id="node5" class="node">
<title>Node4</title>
<polygon fill="#ffffff" stroke="#bfbfbf" points="310,-476 310,-495 361,-495 361,-476 310,-476"/>
<text text-anchor="middle" x="335.5" y="-483" font-family="Helvetica,sans-Serif" font-size="10.00" fill="#000000">math.h</text>
</g>
<!-- Node0&#45;&gt;Node4 -->
<g id="edge4" class="edge">
<title>Node0&#45;&gt;Node4</title>
<path fill="none" stroke="#191970" d="M518.6537,-537.488C476.266,-528.3231 422.4852,-515.5772 375.5,-501 373.0726,-500.2469 370.5817,-499.4192 368.0872,-498.5501"/>
<polygon fill="#191970" stroke="#191970" points="369.1694,-495.2191 358.5757,-495.0634 366.7601,-501.7914 369.1694,-495.2191"/>
</g>
<!-- Node5 -->
<g id="node6" class="node">
<title>Node5</title>
<polygon fill="#ffffff" stroke="#bfbfbf" points="1025.5,-123.5 1025.5,-142.5 1083.5,-142.5 1083.5,-123.5 1025.5,-123.5"/>
<text text-anchor="middle" x="1054.5" y="-130.5" font-family="Helvetica,sans-Serif" font-size="10.00" fill="#000000">memory</text>
</g>
<!-- Node0&#45;&gt;Node5 -->
<g id="edge5" class="edge">
<title>Node0&#45;&gt;Node5</title>
<path fill="none" stroke="#191970" d="M610.1796,-537.3219C681.678,-472.2599 961.9965,-217.1762 1036.3269,-149.5371"/>
<polygon fill="#191970" stroke="#191970" points="1038.9388,-151.8926 1043.9793,-142.5736 1034.2275,-146.7153 1038.9388,-151.8926"/>
</g>
<!-- Node6 -->
<g id="node7" class="node">
<title>Node6</title>
<polygon fill="#ffffff" stroke="#bfbfbf" points="418,-476 418,-495 475,-495 475,-476 418,-476"/>
<text text-anchor="middle" x="446.5" y="-483" font-family="Helvetica,sans-Serif" font-size="10.00" fill="#000000">ostream</text>
</g>
<!-- Node0&#45;&gt;Node6 -->
<g id="edge6" class="edge">
<title>Node0&#45;&gt;Node6</title>
<path fill="none" stroke="#191970" d="M560.5103,-537.4639C535.4012,-526.0196 501.1192,-510.3945 476.7205,-499.274"/>
<polygon fill="#191970" stroke="#191970" points="478.1223,-496.0665 467.5713,-495.1039 475.2191,-502.4361 478.1223,-496.0665"/>
</g>
<!-- Node7 -->
<g id="node8" class="node">
<title>Node7</title>
<polygon fill="#ffffff" stroke="#bfbfbf" points="493,-476 493,-495 546,-495 546,-476 493,-476"/>
<text text-anchor="middle" x="519.5" y="-483" font-family="Helvetica,sans-Serif" font-size="10.00" fill="#000000">stdlib.h</text>
</g>
<!-- Node0&#45;&gt;Node7 -->
<g id="edge7" class="edge">
<title>Node0&#45;&gt;Node7</title>
<path fill="none" stroke="#191970" d="M576.7083,-537.2967C565.0668,-526.7564 549.5752,-512.7303 537.6491,-501.9323"/>
<polygon fill="#191970" stroke="#191970" points="539.8154,-499.1722 530.0533,-495.055 535.1171,-504.3613 539.8154,-499.1722"/>
</g>
<!-- Node8 -->
<g id="node9" class="node">
<title>Node8</title>
<polygon fill="#ffffff" stroke="#bfbfbf" points="1247.5,-.5 1247.5,-19.5 1291.5,-19.5 1291.5,-.5 1247.5,-.5"/>
<text text-anchor="middle" x="1269.5" y="-7.5" font-family="Helvetica,sans-Serif" font-size="10.00" fill="#000000">string</text>
</g>
<!-- Node0&#45;&gt;Node8 -->
<g id="edge8" class="edge">
<title>Node0&#45;&gt;Node8</title>
<path fill="none" stroke="#191970" d="M683.1864,-552.0857C988.4233,-550.3177 1985.5782,-541.5068 2303.5,-501 2456.7654,-481.4723 2642.5,-578.5044 2642.5,-424 2642.5,-424 2642.5,-424 2642.5,-133 2642.5,-95.59 2639.4881,-76.9582 2608.5,-56 2552.6882,-18.2529 1500.7125,-11.1512 1301.8014,-10.1441"/>
<polygon fill="#191970" stroke="#191970" points="1301.7172,-6.6437 1291.7001,-10.0945 1301.6828,-13.6436 1301.7172,-6.6437"/>
</g>
<!-- Node9 -->
<g id="node10" class="node">
<title>Node9</title>
<polygon fill="#ffffff" stroke="#bfbfbf" points="561,-179.5 561,-198.5 608,-198.5 608,-179.5 561,-179.5"/>
<text text-anchor="middle" x="584.5" y="-186.5" font-family="Helvetica,sans-Serif" font-size="10.00" fill="#000000">vector</text>
</g>
<!-- Node0&#45;&gt;Node9 -->
<g id="edge9" class="edge">
<title>Node0&#45;&gt;Node9</title>
<path fill="none" stroke="#191970" d="M503.9541,-546.3119C399.0231,-538.1315 237.0182,-522.2351 218.5,-501 152.6481,-425.4863 -88.3986,-557.6613 316.5,-235 352.1855,-206.5624 486.8,-194.8427 550.5833,-190.8083"/>
<polygon fill="#191970" stroke="#191970" points="551.1387,-194.2812 560.9091,-190.1835 550.7159,-187.2939 551.1387,-194.2812"/>
</g>
<!-- Node10 -->
<g id="node11" class="node">
<title>Node10</title>
<g id="a_node11"><a xlink:href="ParallelMatrixOperations_8hpp.html" target="_top" xlink:title="acceleration/impl/Parallel\lMatrixOperations.hpp">
<polygon fill="#ffffff" stroke="#000000" points="840.5,-470.5 840.5,-500.5 980.5,-500.5 980.5,-470.5 840.5,-470.5"/>
<text text-anchor="start" x="848.5" y="-488.5" font-family="Helvetica,sans-Serif" font-size="10.00" fill="#000000">acceleration/impl/Parallel</text>
<text text-anchor="middle" x="910.5" y="-477.5" font-family="Helvetica,sans-Serif" font-size="10.00" fill="#000000">MatrixOperations.hpp</text>
</a>
</g>
</g>
<!-- Node0&#45;&gt;Node10 -->
<g id="edge10" class="edge">
<title>Node0&#45;&gt;Node10</title>
<path fill="none" stroke="#191970" d="M664.641,-537.4639C713.8421,-527.0649 779.3756,-513.214 830.4109,-502.4274"/>
<polygon fill="#191970" stroke="#191970" points="831.3554,-505.8051 840.4155,-500.3128 829.9078,-498.9564 831.3554,-505.8051"/>
</g>
<!-- Node12 -->
<g id="node13" class="node">
<title>Node12</title>
<g id="a_node13"><a xlink:href="Communication_8hpp.html" target="_top" xlink:title="com/Communication.hpp">
<polygon fill="#ffffff" stroke="#000000" points="445,-302.5 445,-321.5 584,-321.5 584,-302.5 445,-302.5"/>
<text text-anchor="middle" x="514.5" y="-309.5" font-family="Helvetica,sans-Serif" font-size="10.00" fill="#000000">com/Communication.hpp</text>
</a>
</g>
</g>
<!-- Node0&#45;&gt;Node12 -->
<g id="edge81" class="edge">
<title>Node0&#45;&gt;Node12</title>
<path fill="none" stroke="#191970" d="M588.5582,-537.4556C574.8297,-495.6618 536.2325,-378.1602 520.8976,-331.4763"/>
<polygon fill="#191970" stroke="#191970" points="524.1289,-330.0977 517.6828,-321.6895 517.4785,-332.2823 524.1289,-330.0977"/>
</g>
<!-- Node15 -->
<g id="node16" class="node">
<title>Node15</title>
<g id="a_node16"><a xlink:href="com_2SharedPointer_8hpp.html" target="_top" xlink:title="com/SharedPointer.hpp">
<polygon fill="#ffffff" stroke="#000000" points="689,-179.5 689,-198.5 818,-198.5 818,-179.5 689,-179.5"/>
<text text-anchor="middle" x="753.5" y="-186.5" font-family="Helvetica,sans-Serif" font-size="10.00" fill="#000000">com/SharedPointer.hpp</text>
</a>
</g>
</g>
<!-- Node0&#45;&gt;Node15 -->
<g id="edge83" class="edge">
<title>Node0&#45;&gt;Node15</title>
<path fill="none" stroke="#191970" d="M603.2457,-537.3647C629.541,-495.8126 702.4487,-375.753 739.5,-266 745.8647,-247.1464 749.5291,-224.664 751.4997,-208.8751"/>
<polygon fill="#191970" stroke="#191970" points="755.0034,-209.039 752.6496,-198.709 748.0477,-208.2522 755.0034,-209.039"/>
</g>
<!-- Node28 -->
<g id="node29" class="node">
<title>Node28</title>
<g id="a_node29"><a xlink:href="MPIPortsCommunication_8hpp.html" target="_top" xlink:title="com/MPIPortsCommunication.hpp">
<polygon fill="#ffffff" stroke="#000000" points="301,-414.5 301,-433.5 482,-433.5 482,-414.5 301,-414.5"/>
<text text-anchor="middle" x="391.5" y="-421.5" font-family="Helvetica,sans-Serif" font-size="10.00" fill="#000000">com/MPIPortsCommunication.hpp</text>
</a>
</g>
</g>
<!-- Node0&#45;&gt;Node28 -->
<g id="edge82" class="edge">
<title>Node0&#45;&gt;Node28</title>
<path fill="none" stroke="#191970" d="M507.7525,-537.4588C466.3867,-528.5082 422.686,-515.9767 408.5,-501 394.0585,-485.7536 390.8201,-461.1316 390.544,-443.8442"/>
<polygon fill="#191970" stroke="#191970" points="394.0456,-443.7689 390.7024,-433.7154 387.0464,-443.6594 394.0456,-443.7689"/>
</g>
<!-- Node32 -->
<g id="node33" class="node">
<title>Node32</title>
<g id="a_node33"><a xlink:href="MasterSlave_8hpp.html" target="_top" xlink:title="utils/MasterSlave.hpp">
<polygon fill="#ffffff" stroke="#000000" points="1752.5,-358.5 1752.5,-377.5 1874.5,-377.5 1874.5,-358.5 1752.5,-358.5"/>
<text text-anchor="middle" x="1813.5" y="-365.5" font-family="Helvetica,sans-Serif" font-size="10.00" fill="#000000">utils/MasterSlave.hpp</text>
</a>
</g>
</g>
<!-- Node0&#45;&gt;Node32 -->
<g id="edge115" class="edge">
<title>Node0&#45;&gt;Node32</title>
<path fill="none" stroke="#191970" d="M683.3088,-550.8195C923.8237,-545.9459 1570.54,-530.2597 1662.5,-501 1715.252,-484.2155 1727.5671,-472.3387 1767.5,-434 1782.0711,-420.0106 1794.8598,-400.7631 1803.2296,-386.6634"/>
<polygon fill="#191970" stroke="#191970" points="1806.3442,-388.2678 1808.2857,-377.8524 1800.2728,-384.7838 1806.3442,-388.2678"/>
</g>
<!-- Node41 -->
<g id="node40" class="node">
<title>Node41</title>
<g id="a_node40"><a xlink:href="TestContext_8hpp.html" target="_top" xlink:title="testing/TestContext.hpp">
<polygon fill="#ffffff" stroke="#000000" points="1200.5,-302.5 1200.5,-321.5 1332.5,-321.5 1332.5,-302.5 1200.5,-302.5"/>
<text text-anchor="middle" x="1266.5" y="-309.5" font-family="Helvetica,sans-Serif" font-size="10.00" fill="#000000">testing/TestContext.hpp</text>
</a>
</g>
</g>
<!-- Node0&#45;&gt;Node41 -->
<g id="edge84" class="edge">
<title>Node0&#45;&gt;Node41</title>
<path fill="none" stroke="#191970" d="M683.3038,-545.7032C782.4564,-537.3411 935.2421,-521.6735 989.5,-501 1098.9271,-459.3059 1207.4022,-366.4527 1248.867,-328.5729"/>
<polygon fill="#191970" stroke="#191970" points="1251.4881,-330.9165 1256.4612,-321.5613 1246.7396,-325.7734 1251.4881,-330.9165"/>
</g>
<!-- Node68 -->
<g id="node46" class="node">
<title>Node68</title>
<g id="a_node46"><a xlink:href="Testing_8hpp.html" target="_top" xlink:title="testing/Testing.hpp">
<polygon fill="#ffffff" stroke="#000000" points="2026,-476 2026,-495 2135,-495 2135,-476 2026,-476"/>
<text text-anchor="middle" x="2080.5" y="-483" font-family="Helvetica,sans-Serif" font-size="10.00" fill="#000000">testing/Testing.hpp</text>
</a>
</g>
</g>
<!-- Node0&#45;&gt;Node68 -->
<g id="edge102" class="edge">
<title>Node0&#45;&gt;Node68</title>
<path fill="none" stroke="#191970" d="M683.2724,-549.2848C886.1576,-541.898 1395.5542,-522.6754 1821.5,-501 1887.716,-497.6304 1963.4074,-493.0117 2015.7895,-489.6941"/>
<polygon fill="#191970" stroke="#191970" points="2016.1875,-493.176 2025.9454,-489.0487 2015.7435,-486.1901 2016.1875,-493.176"/>
</g>
<!-- Node10&#45;&gt;Node2 -->
<g id="edge11" class="edge">
<title>Node10&#45;&gt;Node2</title>
<path fill="none" stroke="#191970" d="M980.7109,-483.1295C1157.3133,-476.8699 1616.631,-458.6696 1767.5,-434 1895.1804,-413.1221 1923.492,-391.3342 2048.5,-358 2092.8403,-346.1764 2143.5595,-332.8683 2178.9399,-323.6198"/>
<polygon fill="#191970" stroke="#191970" points="2180.1576,-326.9192 2188.9481,-321.0049 2178.3881,-320.1465 2180.1576,-326.9192"/>
</g>
<!-- Node10&#45;&gt;Node5 -->
<g id="edge12" class="edge">
<title>Node10&#45;&gt;Node5</title>
<path fill="none" stroke="#191970" d="M916.6875,-470.3535C939.7911,-413.7978 1020.9929,-215.0226 1046.6609,-152.1895"/>
<polygon fill="#191970" stroke="#191970" points="1049.9944,-153.2843 1050.5361,-142.7034 1043.5142,-150.6371 1049.9944,-153.2843"/>
</g>
<!-- Node10&#45;&gt;Node8 -->
<g id="edge14" class="edge">
<title>Node10&#45;&gt;Node8</title>
<path fill="none" stroke="#191970" d="M980.7648,-475.4956C1143.0517,-450.5673 1534.0392,-379.4076 1585.5,-266 1650.1962,-123.4246 1370.0662,-103.1543 1346.5,-87 1333.206,-77.8872 1303.4623,-46.7549 1285.0789,-26.9778"/>
<polygon fill="#191970" stroke="#191970" points="1287.5585,-24.5041 1278.2,-19.5371 1282.4185,-29.256 1287.5585,-24.5041"/>
</g>
<!-- Node10&#45;&gt;Node9 -->
<g id="edge15" class="edge">
<title>Node10&#45;&gt;Node9</title>
<path fill="none" stroke="#191970" d="M879.252,-470.4616C801.4202,-432.2714 602.7642,-330.0425 569.5,-266 559.9344,-247.5836 567.0702,-223.811 574.4144,-207.583"/>
<polygon fill="#191970" stroke="#191970" points="577.5762,-209.085 578.8668,-198.569 571.3,-205.9849 577.5762,-209.085"/>
</g>
<!-- Node11 -->
<g id="node12" class="node">
<title>Node11</title>
<polygon fill="#ffffff" stroke="#bfbfbf" points="674.5,-241 674.5,-260 730.5,-260 730.5,-241 674.5,-241"/>
<text text-anchor="middle" x="702.5" y="-248" font-family="Helvetica,sans-Serif" font-size="10.00" fill="#000000">stddef.h</text>
</g>
<!-- Node10&#45;&gt;Node11 -->
<g id="edge13" class="edge">
<title>Node10&#45;&gt;Node11</title>
<path fill="none" stroke="#191970" d="M894.212,-470.0676C883.778,-460.0128 870.0732,-446.4879 858.5,-434 803.9699,-375.1601 743.5554,-301.4502 716.7035,-268.2061"/>
<polygon fill="#191970" stroke="#191970" points="719.336,-265.8948 710.3371,-260.3028 713.8847,-270.2861 719.336,-265.8948"/>
</g>
<!-- Node10&#45;&gt;Node12 -->
<g id="edge16" class="edge">
<title>Node10&#45;&gt;Node12</title>
<path fill="none" stroke="#191970" d="M840.2603,-479.001C791.7586,-472.4391 726.8269,-459.448 674.5,-434 626.805,-410.8046 624.9575,-389.7836 582.5,-358 568.1304,-347.243 551.4423,-335.9372 538.1944,-327.226"/>
<polygon fill="#191970" stroke="#191970" points="539.9311,-324.18 529.6432,-321.6482 536.1067,-330.0431 539.9311,-324.18"/>
</g>
<!-- Node14 -->
<g id="node15" class="node">
<title>Node14</title>
<g id="a_node15"><a xlink:href="Request_8hpp.html" target="_top" xlink:title="Request.hpp">
<polygon fill="#ffffff" stroke="#000000" points="579,-241 579,-260 656,-260 656,-241 579,-241"/>
<text text-anchor="middle" x="617.5" y="-248" font-family="Helvetica,sans-Serif" font-size="10.00" fill="#000000">Request.hpp</text>
</a>
</g>
</g>
<!-- Node10&#45;&gt;Node14 -->
<g id="edge57" class="edge">
<title>Node10&#45;&gt;Node14</title>
<path fill="none" stroke="#191970" d="M887.7829,-470.4614C872.9476,-460.4534 853.2869,-446.8335 836.5,-434 759.5643,-375.1831 672.6034,-299.3521 635.6551,-266.6667"/>
<polygon fill="#191970" stroke="#191970" points="637.9603,-264.0329 628.156,-260.0171 633.316,-269.2704 637.9603,-264.0329"/>
</g>
<!-- Node10&#45;&gt;Node15 -->
<g id="edge58" class="edge">
<title>Node10&#45;&gt;Node15</title>
<path fill="none" stroke="#191970" d="M902.4985,-470.3889C876.1444,-420.6183 792.1074,-261.9115 763.2999,-207.5075"/>
<polygon fill="#191970" stroke="#191970" points="766.3628,-205.8124 758.59,-198.6127 760.1765,-209.0881 766.3628,-205.8124"/>
</g>
<!-- Node16 -->
<g id="node17" class="node">
<title>Node16</title>
<g id="a_node17"><a xlink:href="Logger_8hpp.html" target="_top" xlink:title="logging/Logger.hpp">
<polygon fill="#ffffff" stroke="#000000" points="1436,-179.5 1436,-198.5 1545,-198.5 1545,-179.5 1436,-179.5"/>
<text text-anchor="middle" x="1490.5" y="-186.5" font-family="Helvetica,sans-Serif" font-size="10.00" fill="#000000">logging/Logger.hpp</text>
</a>
</g>
</g>
<!-- Node10&#45;&gt;Node16 -->
<g id="edge60" class="edge">
<title>Node10&#45;&gt;Node16</title>
<path fill="none" stroke="#191970" d="M972.9141,-470.4877C1101.9228,-439.0195 1393.6512,-365.4709 1486.5,-322 1534.6217,-299.4699 1594.8544,-281.1384 1568.5,-235 1560.1846,-220.4424 1545.262,-210.0309 1530.6797,-202.8375"/>
<polygon fill="#191970" stroke="#191970" points="1531.7733,-199.491 1521.2191,-198.5638 1528.8915,-205.8703 1531.7733,-199.491"/>
</g>
<!-- Node17 -->
<g id="node18" class="node">
<title>Node17</title>
<g id="a_node18"><a xlink:href="LogMacros_8hpp.html" target="_top" xlink:title="LogMacros.hpp">
<polygon fill="#ffffff" stroke="#000000" points="1846,-123.5 1846,-142.5 1935,-142.5 1935,-123.5 1846,-123.5"/>
<text text-anchor="middle" x="1890.5" y="-130.5" font-family="Helvetica,sans-Serif" font-size="10.00" fill="#000000">LogMacros.hpp</text>
</a>
</g>
</g>
<!-- Node10&#45;&gt;Node17 -->
<g id="edge59" class="edge">
<title>Node10&#45;&gt;Node17</title>
<path fill="none" stroke="#191970" d="M980.6966,-483.8238C1149.7009,-479.3098 1569.3493,-465.0799 1624.5,-434 1718.9325,-380.7831 1691.5022,-314.2077 1765.5,-235 1797.7969,-200.4292 1841.8908,-167.0744 1868.1551,-148.3805"/>
<polygon fill="#191970" stroke="#191970" points="1870.1729,-151.2403 1876.3357,-142.6222 1866.1438,-145.5161 1870.1729,-151.2403"/>
</g>
<!-- Node10&#45;&gt;Node28 -->
<g id="edge43" class="edge">
<title>Node10&#45;&gt;Node28</title>
<path fill="none" stroke="#191970" d="M840.2355,-477.1739C747.3738,-466.17 583.663,-446.7708 481.7418,-434.6934"/>
<polygon fill="#191970" stroke="#191970" points="482.1128,-431.2129 471.7704,-433.5118 481.289,-438.1643 482.1128,-431.2129"/>
</g>
<!-- Node10&#45;&gt;Node32 -->
<g id="edge61" class="edge">
<title>Node10&#45;&gt;Node32</title>
<path fill="none" stroke="#191970" d="M980.6227,-483.7368C1167.7479,-478.6666 1669.4081,-462.5531 1738.5,-434 1763.3861,-423.7155 1785.6713,-401.6318 1799.3577,-385.8424"/>
<polygon fill="#191970" stroke="#191970" points="1802.3208,-387.7541 1806.0385,-377.833 1796.9453,-383.2703 1802.3208,-387.7541"/>
</g>
<!-- Node33 -->
<g id="node34" class="node">
<title>Node33</title>
<g id="a_node34"><a xlink:href="assertion_8hpp.html" target="_top" xlink:title="utils/assertion.hpp">
<polygon fill="#ffffff" stroke="#ff0000" points="2064,-302.5 2064,-321.5 2171,-321.5 2171,-302.5 2064,-302.5"/>
<text text-anchor="middle" x="2117.5" y="-309.5" font-family="Helvetica,sans-Serif" font-size="10.00" fill="#000000">utils/assertion.hpp</text>
</a>
</g>
</g>
<!-- Node10&#45;&gt;Node33 -->
<g id="edge65" class="edge">
<title>Node10&#45;&gt;Node33</title>
<path fill="none" stroke="#191970" d="M980.6154,-484.7038C1162.6524,-482.1094 1640.3653,-471.7437 1700.5,-434 1733.3711,-413.3684 1711.2332,-379.5645 1743.5,-358 1768.7409,-341.1311 1954.0143,-324.5401 2053.971,-316.6931"/>
<polygon fill="#191970" stroke="#191970" points="2054.2594,-320.1814 2063.9577,-315.9159 2053.7163,-313.2025 2054.2594,-320.1814"/>
</g>
<!-- Node12&#45;&gt;Node8 -->
<g id="edge19" class="edge">
<title>Node12&#45;&gt;Node8</title>
<path fill="none" stroke="#191970" d="M502.9908,-302.4828C481.2938,-283.3973 436.5,-238.0547 436.5,-189 436.5,-189 436.5,-189 436.5,-133 436.5,-50.5562 1083.3285,-17.9004 1237.0213,-11.3048"/>
<polygon fill="#191970" stroke="#191970" points="1237.3757,-14.793 1247.2193,-10.8746 1237.0806,-7.7993 1237.3757,-14.793"/>
</g>
<!-- Node12&#45;&gt;Node9 -->
<g id="edge20" class="edge">
<title>Node12&#45;&gt;Node9</title>
<path fill="none" stroke="#191970" d="M508.3508,-302.2676C499.5023,-286.9003 485.5875,-256.5503 498.5,-235 509.9129,-215.9525 532.2009,-204.3486 551.227,-197.5605"/>
<polygon fill="#191970" stroke="#191970" points="552.3831,-200.8649 560.8043,-194.4358 550.2119,-194.2102 552.3831,-200.8649"/>
</g>
<!-- Node12&#45;&gt;Node11 -->
<g id="edge18" class="edge">
<title>Node12&#45;&gt;Node11</title>
<path fill="none" stroke="#191970" d="M549.3104,-302.477C580.1279,-293.7907 626.1875,-280.1814 665.5,-266 667.3671,-265.3265 669.2771,-264.6108 671.1972,-263.8707"/>
<polygon fill="#191970" stroke="#191970" points="672.7515,-267.0185 680.7313,-260.049 670.147,-260.521 672.7515,-267.0185"/>
</g>
<!-- Node13 -->
<g id="node14" class="node">
<title>Node13</title>
<polygon fill="#ffffff" stroke="#bfbfbf" points="338.5,-241 338.5,-260 370.5,-260 370.5,-241 338.5,-241"/>
<text text-anchor="middle" x="354.5" y="-248" font-family="Helvetica,sans-Serif" font-size="10.00" fill="#000000">set</text>
</g>
<!-- Node12&#45;&gt;Node13 -->
<g id="edge17" class="edge">
<title>Node12&#45;&gt;Node13</title>
<path fill="none" stroke="#191970" d="M489.5,-302.3906C459.6515,-290.9176 410.0046,-271.8346 379.9561,-260.2847"/>
<polygon fill="#191970" stroke="#191970" points="381.164,-256.9994 370.574,-256.6784 378.6524,-263.5333 381.164,-256.9994"/>
</g>
<!-- Node12&#45;&gt;Node14 -->
<g id="edge21" class="edge">
<title>Node12&#45;&gt;Node14</title>
<path fill="none" stroke="#191970" d="M530.5938,-302.3906C547.2228,-292.4616 573.3976,-276.833 592.6794,-265.3201"/>
<polygon fill="#191970" stroke="#191970" points="594.7276,-268.1736 601.5193,-260.0419 591.139,-262.1634 594.7276,-268.1736"/>
</g>
<!-- Node12&#45;&gt;Node15 -->
<g id="edge25" class="edge">
<title>Node12&#45;&gt;Node15</title>
<path fill="none" stroke="#191970" d="M518.6765,-302.2668C526.2757,-285.7607 543.9708,-252.3818 569.5,-235 588.7944,-221.8633 643.153,-209.1684 687.8196,-200.4552"/>
<polygon fill="#191970" stroke="#191970" points="688.6062,-203.8682 697.7684,-198.5481 687.2883,-196.9934 688.6062,-203.8682"/>
</g>
<!-- Node12&#45;&gt;Node16 -->
<g id="edge26" class="edge">
<title>Node12&#45;&gt;Node16</title>
<path fill="none" stroke="#191970" d="M584.2096,-308.5981C725.0726,-301.4477 1039.2383,-284.0261 1145.5,-266 1197.6899,-257.1466 1208.9627,-247.0862 1260.5,-235 1316.8268,-221.7906 1381.4739,-209.075 1427.8572,-200.3736"/>
<polygon fill="#191970" stroke="#191970" points="1428.5741,-203.8003 1437.7619,-198.5244 1427.2894,-196.9192 1428.5741,-203.8003"/>
</g>
<!-- Node14&#45;&gt;Node9 -->
<g id="edge22" class="edge">
<title>Node14&#45;&gt;Node9</title>
<path fill="none" stroke="#191970" d="M612.3438,-240.8906C607.5768,-232.0068 600.3615,-218.5601 594.4703,-207.5811"/>
<polygon fill="#191970" stroke="#191970" points="597.5412,-205.9016 589.7289,-198.7449 591.3731,-209.2114 597.5412,-205.9016"/>
</g>
<!-- Node14&#45;&gt;Node15 -->
<g id="edge23" class="edge">
<title>Node14&#45;&gt;Node15</title>
<path fill="none" stroke="#191970" d="M638.75,-240.8906C661.4055,-230.6457 697.4798,-214.3326 723.1291,-202.7339"/>
<polygon fill="#191970" stroke="#191970" points="724.7297,-205.8514 732.3992,-198.5419 721.8454,-199.4732 724.7297,-205.8514"/>
</g>
<!-- Node15&#45;&gt;Node5 -->
<g id="edge24" class="edge">
<title>Node15&#45;&gt;Node5</title>
<path fill="none" stroke="#191970" d="M804.9017,-179.4369C864.5283,-168.3436 961.5135,-150.2998 1015.3512,-140.2835"/>
<polygon fill="#191970" stroke="#191970" points="1016.0103,-143.721 1025.2014,-138.4509 1014.7299,-136.8391 1016.0103,-143.721"/>
</g>
<!-- Node16&#45;&gt;Node5 -->
<g id="edge27" class="edge">
<title>Node16&#45;&gt;Node5</title>
<path fill="none" stroke="#191970" d="M1435.7218,-181.9643C1346.5991,-170.5173 1172.3163,-148.1324 1094.1237,-138.0893"/>
<polygon fill="#191970" stroke="#191970" points="1094.1114,-134.559 1083.747,-136.7565 1093.2196,-141.502 1094.1114,-134.559"/>
</g>
<!-- Node16&#45;&gt;Node8 -->
<g id="edge28" class="edge">
<title>Node16&#45;&gt;Node8</title>
<path fill="none" stroke="#191970" d="M1446.9895,-179.4195C1420.685,-172.2403 1387.3542,-160.5836 1361.5,-143 1318.9063,-114.0317 1290.1109,-58.2733 1277.2132,-29.0031"/>
<polygon fill="#191970" stroke="#191970" points="1280.315,-27.3528 1273.1846,-19.5165 1273.8719,-30.089 1280.315,-27.3528"/>
</g>
<!-- Node16&#45;&gt;Node17 -->
<g id="edge29" class="edge">
<title>Node16&#45;&gt;Node17</title>
<path fill="none" stroke="#191970" d="M1545.2796,-181.3309C1621.6054,-170.6452 1759.1529,-151.3886 1835.5629,-140.6912"/>
<polygon fill="#191970" stroke="#191970" points="1836.5081,-144.0931 1845.9262,-139.2403 1835.5375,-137.1607 1836.5081,-144.0931"/>
</g>
<!-- Node17&#45;&gt;Node8 -->
<g id="edge36" class="edge">
<title>Node17&#45;&gt;Node8</title>
<path fill="none" stroke="#191970" d="M1899.6533,-123.4934C1913.8422,-107.6214 1937.7096,-75.5439 1919.5,-56 1898.2157,-33.1562 1430.1374,-15.4992 1301.7927,-11.0746"/>
<polygon fill="#191970" stroke="#191970" points="1301.9051,-7.5765 1291.7914,-10.733 1301.6661,-14.5724 1301.9051,-7.5765"/>
</g>
<!-- Node18 -->
<g id="node19" class="node">
<title>Node18</title>
<polygon fill="#ffffff" stroke="#bfbfbf" points="2466.5,-56.5 2466.5,-86.5 2576.5,-86.5 2576.5,-56.5 2466.5,-56.5"/>
<text text-anchor="start" x="2474.5" y="-74.5" font-family="Helvetica,sans-Serif" font-size="10.00" fill="#000000">boost/preprocessor</text>
<text text-anchor="middle" x="2521.5" y="-63.5" font-family="Helvetica,sans-Serif" font-size="10.00" fill="#000000">/control/if.hpp</text>
</g>
<!-- Node17&#45;&gt;Node18 -->
<g id="edge30" class="edge">
<title>Node17&#45;&gt;Node18</title>
<path fill="none" stroke="#191970" d="M1935.258,-131.7503C2029.8254,-128.5979 2256.9656,-118.3252 2456.3783,-87.015"/>
<polygon fill="#191970" stroke="#191970" points="2457.1277,-90.4398 2466.4531,-85.4112 2456.0272,-83.5268 2457.1277,-90.4398"/>
</g>
<!-- Node19 -->
<g id="node20" class="node">
<title>Node19</title>
<polygon fill="#ffffff" stroke="#bfbfbf" points="1640.5,-56.5 1640.5,-86.5 1756.5,-86.5 1756.5,-56.5 1640.5,-56.5"/>
<text text-anchor="start" x="1648.5" y="-74.5" font-family="Helvetica,sans-Serif" font-size="10.00" fill="#000000">boost/preprocessor</text>
<text text-anchor="middle" x="1698.5" y="-63.5" font-family="Helvetica,sans-Serif" font-size="10.00" fill="#000000">/facilities/empty.hpp</text>
</g>
<!-- Node17&#45;&gt;Node19 -->
<g id="edge31" class="edge">
<title>Node17&#45;&gt;Node19</title>
<path fill="none" stroke="#191970" d="M1860.5,-123.3906C1832.47,-114.4123 1789.8905,-100.7735 1755.4182,-89.7316"/>
<polygon fill="#191970" stroke="#191970" points="1756.0595,-86.2619 1745.4685,-86.5446 1753.9242,-92.9283 1756.0595,-86.2619"/>
</g>
<!-- Node20 -->
<g id="node21" class="node">
<title>Node20</title>
<polygon fill="#ffffff" stroke="#bfbfbf" points="2075,-56.5 2075,-86.5 2186,-86.5 2186,-56.5 2075,-56.5"/>
<text text-anchor="start" x="2083" y="-74.5" font-family="Helvetica,sans-Serif" font-size="10.00" fill="#000000">boost/preprocessor</text>
<text text-anchor="middle" x="2130.5" y="-63.5" font-family="Helvetica,sans-Serif" font-size="10.00" fill="#000000">/seq/for_each_i.hpp</text>
</g>
<!-- Node17&#45;&gt;Node20 -->
<g id="edge32" class="edge">
<title>Node17&#45;&gt;Node20</title>
<path fill="none" stroke="#191970" d="M1927.7367,-123.4581C1964.3359,-114.0795 2020.9616,-99.5692 2065.08,-88.2639"/>
<polygon fill="#191970" stroke="#191970" points="2066.0431,-91.6302 2074.8613,-85.7574 2064.3055,-84.8493 2066.0431,-91.6302"/>
</g>
<!-- Node21 -->
<g id="node22" class="node">
<title>Node21</title>
<polygon fill="#ffffff" stroke="#bfbfbf" points="2204.5,-56.5 2204.5,-86.5 2314.5,-86.5 2314.5,-56.5 2204.5,-56.5"/>
<text text-anchor="start" x="2212.5" y="-74.5" font-family="Helvetica,sans-Serif" font-size="10.00" fill="#000000">boost/preprocessor</text>
<text text-anchor="middle" x="2259.5" y="-63.5" font-family="Helvetica,sans-Serif" font-size="10.00" fill="#000000">/stringize.hpp</text>
</g>
<!-- Node17&#45;&gt;Node21 -->
<g id="edge33" class="edge">
<title>Node17&#45;&gt;Node21</title>
<path fill="none" stroke="#191970" d="M1935.1612,-127.5151C1992.7997,-120.1608 2096.3706,-106.0142 2194.338,-87.13"/>
<polygon fill="#191970" stroke="#191970" points="2195.2636,-90.5155 2204.4097,-85.1676 2193.9249,-83.6447 2195.2636,-90.5155"/>
</g>
<!-- Node22 -->
<g id="node23" class="node">
<title>Node22</title>
<polygon fill="#ffffff" stroke="#bfbfbf" points="2333,-56.5 2333,-86.5 2448,-86.5 2448,-56.5 2333,-56.5"/>
<text text-anchor="start" x="2341" y="-74.5" font-family="Helvetica,sans-Serif" font-size="10.00" fill="#000000">boost/preprocessor</text>
<text text-anchor="middle" x="2390.5" y="-63.5" font-family="Helvetica,sans-Serif" font-size="10.00" fill="#000000">/variadic/to_seq.hpp</text>
</g>
<!-- Node17&#45;&gt;Node22 -->
<g id="edge34" class="edge">
<title>Node17&#45;&gt;Node22</title>
<path fill="none" stroke="#191970" d="M1935.312,-130.043C2012.4124,-124.5635 2175.2581,-111.2756 2322.7076,-86.9973"/>
<polygon fill="#191970" stroke="#191970" points="2323.558,-90.4039 2332.8458,-85.3064 2322.4063,-83.4993 2323.558,-90.4039"/>
</g>
<!-- Node23 -->
<g id="node24" class="node">
<title>Node23</title>
<polygon fill="#ffffff" stroke="#bfbfbf" points="1774.5,-62 1774.5,-81 1910.5,-81 1910.5,-62 1774.5,-62"/>
<text text-anchor="middle" x="1842.5" y="-69" font-family="Helvetica,sans-Serif" font-size="10.00" fill="#000000">boost/vmd/is_empty.hpp</text>
</g>
<!-- Node17&#45;&gt;Node23 -->
<g id="edge35" class="edge">
<title>Node17&#45;&gt;Node23</title>
<path fill="none" stroke="#191970" d="M1883,-123.3906C1875.9262,-114.3273 1865.1458,-100.5149 1856.4854,-89.4188"/>
<polygon fill="#191970" stroke="#191970" points="1859.0176,-86.9746 1850.1057,-81.2449 1853.4994,-91.2815 1859.0176,-86.9746"/>
</g>
<!-- Node24 -->
<g id="node25" class="node">
<title>Node24</title>
<g id="a_node25"><a xlink:href="Tracer_8hpp.html" target="_top" xlink:title="logging/Tracer.hpp">
<polygon fill="#ffffff" stroke="#000000" points="1355,-62 1355,-81 1460,-81 1460,-62 1355,-62"/>
<text text-anchor="middle" x="1407.5" y="-69" font-family="Helvetica,sans-Serif" font-size="10.00" fill="#000000">logging/Tracer.hpp</text>
</a>
</g>
</g>
<!-- Node17&#45;&gt;Node24 -->
<g id="edge37" class="edge">
<title>Node17&#45;&gt;Node24</title>
<path fill="none" stroke="#191970" d="M1845.9694,-130.1365C1768.8354,-124.7312 1605.5702,-111.3258 1469.5,-87 1463.7625,-85.9743 1457.7691,-84.7169 1451.8663,-83.366"/>
<polygon fill="#191970" stroke="#191970" points="1452.6186,-79.9473 1442.0791,-81.0289 1450.9927,-86.7559 1452.6186,-79.9473"/>
</g>
<!-- Node25 -->
<g id="node26" class="node">
<title>Node25</title>
<polygon fill="#ffffff" stroke="#bfbfbf" points="1478.5,-62 1478.5,-81 1622.5,-81 1622.5,-62 1478.5,-62"/>
<text text-anchor="middle" x="1550.5" y="-69" font-family="Helvetica,sans-Serif" font-size="10.00" fill="#000000">prettyprint/prettyprint.hpp</text>
</g>
<!-- Node17&#45;&gt;Node25 -->
<g id="edge39" class="edge">
<title>Node17&#45;&gt;Node25</title>
<path fill="none" stroke="#191970" d="M1845.5493,-125.2032C1793.8677,-116.1956 1706.5017,-100.8358 1631.5,-87 1624.4336,-85.6964 1617.0247,-84.3083 1609.6792,-82.9187"/>
<polygon fill="#191970" stroke="#191970" points="1610.2176,-79.4585 1599.7401,-81.031 1608.9113,-86.3356 1610.2176,-79.4585"/>
</g>
<!-- Node26 -->
<g id="node27" class="node">
<title>Node26</title>
<g id="a_node27"><a xlink:href="String_8hpp.html" target="_top" xlink:title="utils/String.hpp">
<polygon fill="#ffffff" stroke="#000000" points="1966.5,-62 1966.5,-81 2056.5,-81 2056.5,-62 1966.5,-62"/>
<text text-anchor="middle" x="2011.5" y="-69" font-family="Helvetica,sans-Serif" font-size="10.00" fill="#000000">utils/String.hpp</text>
</a>
</g>
</g>
<!-- Node17&#45;&gt;Node26 -->
<g id="edge40" class="edge">
<title>Node17&#45;&gt;Node26</title>
<path fill="none" stroke="#191970" d="M1909.4063,-123.3906C1929.2966,-113.2811 1960.8123,-97.2628 1983.5692,-85.6962"/>
<polygon fill="#191970" stroke="#191970" points="1985.3978,-88.693 1992.7265,-81.0419 1982.226,-82.4528 1985.3978,-88.693"/>
</g>
<!-- Node24&#45;&gt;Node16 -->
<g id="edge38" class="edge">
<title>Node24&#45;&gt;Node16</title>
<path fill="none" stroke="#191970" d="M1414.3861,-81.2484C1428.3281,-100.9856 1460.0772,-145.9315 1477.8508,-171.093"/>
<polygon fill="#191970" stroke="#191970" points="1475.0794,-173.2361 1483.7078,-179.3845 1480.7969,-169.1974 1475.0794,-173.2361"/>
</g>
<!-- Node26&#45;&gt;Node8 -->
<g id="edge42" class="edge">
<title>Node26&#45;&gt;Node8</title>
<path fill="none" stroke="#191970" d="M1979.5857,-61.9361C1970.873,-59.6494 1961.3841,-57.4526 1952.5,-56 1824.6883,-35.1013 1419.4638,-16.4461 1301.8161,-11.3618"/>
<polygon fill="#191970" stroke="#191970" points="1301.7967,-7.8578 1291.6557,-10.9256 1301.4964,-14.8514 1301.7967,-7.8578"/>
</g>
<!-- Node27 -->
<g id="node28" class="node">
<title>Node27</title>
<polygon fill="#ffffff" stroke="#bfbfbf" points="2317.5,-.5 2317.5,-19.5 2373.5,-19.5 2373.5,-.5 2317.5,-.5"/>
<text text-anchor="middle" x="2345.5" y="-7.5" font-family="Helvetica,sans-Serif" font-size="10.00" fill="#000000">sstream</text>
</g>
<!-- Node26&#45;&gt;Node27 -->
<g id="edge41" class="edge">
<title>Node26&#45;&gt;Node27</title>
<path fill="none" stroke="#191970" d="M2043.0486,-61.9596C2050.6839,-59.8311 2058.85,-57.703 2066.5,-56 2151.63,-37.0483 2252.9694,-22.2471 2307.0225,-14.9628"/>
<polygon fill="#191970" stroke="#191970" points="2307.7345,-18.3989 2317.1838,-13.6071 2306.8088,-11.4603 2307.7345,-18.3989"/>
</g>
<!-- Node28&#45;&gt;Node8 -->
<g id="edge48" class="edge">
<title>Node28&#45;&gt;Node8</title>
<path fill="none" stroke="#191970" d="M336.9851,-414.448C257.8487,-397.0957 120.5,-352.3136 120.5,-250.5 120.5,-250.5 120.5,-250.5 120.5,-133 120.5,-30.6638 237.1063,-75.8441 337.5,-56 515.2389,-20.8676 1093.8687,-12.0111 1237.1708,-10.3346"/>
<polygon fill="#191970" stroke="#191970" points="1237.51,-13.8311 1247.4696,-10.2179 1237.4306,-6.8316 1237.51,-13.8311"/>
</g>
<!-- Node28&#45;&gt;Node11 -->
<g id="edge47" class="edge">
<title>Node28&#45;&gt;Node11</title>
<path fill="none" stroke="#191970" d="M412.1379,-414.4253C448.9866,-397.1331 528.2573,-359.0382 592.5,-322 623.8907,-303.9021 658.7453,-280.6867 680.637,-265.7025"/>
<polygon fill="#191970" stroke="#191970" points="682.651,-268.5653 688.9044,-260.0127 678.6825,-262.7989 682.651,-268.5653"/>
</g>
<!-- Node28&#45;&gt;Node13 -->
<g id="edge46" class="edge">
<title>Node28&#45;&gt;Node13</title>
<path fill="none" stroke="#191970" d="M362.6892,-414.4613C345.981,-407.274 326.3485,-395.5938 316.5,-378 296.3033,-341.9198 322.9346,-293.9534 340.7782,-268.3673"/>
<polygon fill="#191970" stroke="#191970" points="343.8001,-270.1628 346.8515,-260.0169 338.139,-266.0454 343.8001,-270.1628"/>
</g>
<!-- Node28&#45;&gt;Node16 -->
<g id="edge56" class="edge">
<title>Node28&#45;&gt;Node16</title>
<path fill="none" stroke="#191970" d="M482.4009,-419.0443C701.594,-406.46 1254.2818,-370.7768 1432.5,-322 1489.2672,-306.4633 1520.8846,-315.6424 1552.5,-266 1559.9011,-254.3788 1558.6935,-247.3072 1552.5,-235 1545.8263,-221.7387 1533.3207,-211.3415 1521.2793,-203.8125"/>
<polygon fill="#191970" stroke="#191970" points="1522.677,-200.5783 1512.2658,-198.6143 1519.1799,-206.6422 1522.677,-200.5783"/>
</g>
<!-- Node29 -->
<g id="node30" class="node">
<title>Node29</title>
<polygon fill="#ffffff" stroke="#bfbfbf" points="874.5,-179.5 874.5,-198.5 912.5,-198.5 912.5,-179.5 874.5,-179.5"/>
<text text-anchor="middle" x="893.5" y="-186.5" font-family="Helvetica,sans-Serif" font-size="10.00" fill="#000000">map</text>
</g>
<!-- Node28&#45;&gt;Node29 -->
<g id="edge44" class="edge">
<title>Node28&#45;&gt;Node29</title>
<path fill="none" stroke="#191970" d="M421.8739,-414.4935C448.496,-405.869 488.0552,-392.3412 521.5,-378 655.1618,-320.6854 807.9628,-237.0305 867.6827,-203.5967"/>
<polygon fill="#191970" stroke="#191970" points="869.4448,-206.6213 876.451,-198.6737 866.0178,-200.5176 869.4448,-206.6213"/>
</g>
<!-- Node30 -->
<g id="node31" class="node">
<title>Node30</title>
<polygon fill="#ffffff" stroke="#bfbfbf" points="200.5,-179.5 200.5,-198.5 244.5,-198.5 244.5,-179.5 200.5,-179.5"/>
<text text-anchor="middle" x="222.5" y="-186.5" font-family="Helvetica,sans-Serif" font-size="10.00" fill="#000000">mpi.h</text>
</g>
<!-- Node28&#45;&gt;Node30 -->
<g id="edge45" class="edge">
<title>Node28&#45;&gt;Node30</title>
<path fill="none" stroke="#191970" d="M366.3074,-414.43C348.1662,-406.6323 323.9187,-394.2572 306.5,-378 263.4135,-337.7864 256.5994,-321.0309 235.5,-266 228.3919,-247.461 225.162,-224.9332 223.6994,-209.0479"/>
<polygon fill="#191970" stroke="#191970" points="227.1686,-208.511 222.9165,-198.8069 220.189,-209.0447 227.1686,-208.511"/>
</g>
<!-- Node31 -->
<g id="node32" class="node">
<title>Node31</title>
<g id="a_node32"><a xlink:href="MPICommunication_8hpp.html" target="_top" xlink:title="MPICommunication.hpp">
<polygon fill="#ffffff" stroke="#000000" points="325.5,-358.5 325.5,-377.5 457.5,-377.5 457.5,-358.5 325.5,-358.5"/>
<text text-anchor="middle" x="391.5" y="-365.5" font-family="Helvetica,sans-Serif" font-size="10.00" fill="#000000">MPICommunication.hpp</text>
</a>
</g>
</g>
<!-- Node28&#45;&gt;Node31 -->
<g id="edge49" class="edge">
<title>Node28&#45;&gt;Node31</title>
<path fill="none" stroke="#191970" d="M391.5,-414.2455C391.5,-406.9382 391.5,-396.6944 391.5,-387.7046"/>
<polygon fill="#191970" stroke="#191970" points="395.0001,-387.6426 391.5,-377.6427 388.0001,-387.6427 395.0001,-387.6426"/>
</g>
<!-- Node31&#45;&gt;Node8 -->
<g id="edge51" class="edge">
<title>Node31&#45;&gt;Node8</title>
<path fill="none" stroke="#191970" d="M373.9948,-358.4913C360.3445,-350.3319 341.7146,-337.4592 329.5,-322 289.6302,-271.5392 272.5,-253.311 272.5,-189 272.5,-189 272.5,-189 272.5,-133 272.5,-33.4368 1065.7816,-13.6276 1237.1263,-10.5102"/>
<polygon fill="#191970" stroke="#191970" points="1237.3414,-14.0071 1247.2784,-10.332 1237.2185,-7.0081 1237.3414,-14.0071"/>
</g>
<!-- Node31&#45;&gt;Node9 -->
<g id="edge52" class="edge">
<title>Node31&#45;&gt;Node9</title>
<path fill="none" stroke="#191970" d="M380.3636,-358.3611C354.7534,-335.0613 296.3356,-274.6822 329.5,-235 357.3159,-201.7174 487.9255,-192.4752 550.6765,-189.9407"/>
<polygon fill="#191970" stroke="#191970" points="550.9888,-193.4316 560.8527,-189.5648 550.7303,-186.4364 550.9888,-193.4316"/>
</g>
<!-- Node31&#45;&gt;Node12 -->
<g id="edge53" class="edge">
<title>Node31&#45;&gt;Node12</title>
<path fill="none" stroke="#191970" d="M412.6445,-358.3733C432.3892,-349.3838 462.0698,-335.8706 484.3055,-325.7471"/>
<polygon fill="#191970" stroke="#191970" points="485.9806,-328.8302 493.6315,-321.5011 483.08,-322.4594 485.9806,-328.8302"/>
</g>
<!-- Node31&#45;&gt;Node15 -->
<g id="edge54" class="edge">
<title>Node31&#45;&gt;Node15</title>
<path fill="none" stroke="#191970" d="M396.4213,-358.1633C403.6295,-344.4346 418.1079,-319.2739 435.5,-302 473.983,-263.7785 487.4485,-255.8968 537.5,-235 582.5383,-216.1962 636.1931,-204.719 678.7595,-197.9314"/>
<polygon fill="#191970" stroke="#191970" points="679.423,-201.3706 688.7731,-196.388 678.3566,-194.4523 679.423,-201.3706"/>
</g>
<!-- Node31&#45;&gt;Node16 -->
<g id="edge55" class="edge">
<title>Node31&#45;&gt;Node16</title>
<path fill="none" stroke="#191970" d="M457.5872,-366.7871C643.9106,-363.0515 1170.956,-350.2259 1341.5,-322 1430.4595,-307.2767 1482.249,-338.0236 1536.5,-266 1551.368,-246.2613 1530.1256,-221.4052 1511.8293,-205.3615"/>
<polygon fill="#191970" stroke="#191970" points="1513.6973,-202.3628 1503.7705,-198.6602 1509.2217,-207.7451 1513.6973,-202.3628"/>
</g>
<!-- Node31&#45;&gt;Node30 -->
<g id="edge50" class="edge">
<title>Node31&#45;&gt;Node30</title>
<path fill="none" stroke="#191970" d="M362.1836,-358.3951C342.122,-350.7866 315.7706,-338.6566 296.5,-322 260.1609,-290.5903 238.1177,-236.7285 228.3904,-208.1363"/>
<polygon fill="#191970" stroke="#191970" points="231.6825,-206.942 225.2611,-198.5148 225.0257,-209.1071 231.6825,-206.942"/>
</g>
<!-- Node32&#45;&gt;Node2 -->
<g id="edge62" class="edge">
<title>Node32&#45;&gt;Node2</title>
<path fill="none" stroke="#191970" d="M1874.5093,-362.3106C1945.4331,-355.2592 2066.1747,-341.9048 2178.6686,-322.1907"/>
<polygon fill="#191970" stroke="#191970" points="2179.595,-325.5811 2188.83,-320.3884 2178.3724,-318.6887 2179.595,-325.5811"/>
</g>
<!-- Node32&#45;&gt;Node15 -->
<g id="edge63" class="edge">
<title>Node32&#45;&gt;Node15</title>
<path fill="none" stroke="#191970" d="M1752.2586,-365.1962C1617.3096,-358.7371 1297.8805,-341.8324 1191.5,-322 1037.4209,-293.2753 860.785,-229.8712 787.7977,-202.2709"/>
<polygon fill="#191970" stroke="#191970" points="788.7909,-198.9042 778.1999,-198.6214 786.3029,-205.4471 788.7909,-198.9042"/>
</g>
<!-- Node32&#45;&gt;Node16 -->
<g id="edge64" class="edge">
<title>Node32&#45;&gt;Node16</title>
<path fill="none" stroke="#191970" d="M1804.2115,-358.453C1780.1945,-334.2923 1713.1754,-270.1523 1645.5,-235 1615.5109,-219.4229 1579.4484,-208.3235 1549.6572,-200.9354"/>
<polygon fill="#191970" stroke="#191970" points="1550.3532,-197.5031 1539.8124,-198.571 1548.7185,-204.3096 1550.3532,-197.5031"/>
</g>
<!-- Node33&#45;&gt;Node18 -->
<g id="edge70" class="edge">
<title>Node33&#45;&gt;Node18</title>
<path fill="none" stroke="#191970" d="M2164.5423,-302.4669C2209.5214,-292.896 2273.7577,-277.903 2296.5,-266 2383.7774,-220.3203 2465.9306,-134.7035 2502.1248,-94.0447"/>
<polygon fill="#191970" stroke="#191970" points="2504.7543,-96.3546 2508.7388,-86.5375 2499.502,-91.7271 2504.7543,-96.3546"/>
</g>
<!-- Node33&#45;&gt;Node20 -->
<g id="edge72" class="edge">
<title>Node33&#45;&gt;Node20</title>
<path fill="none" stroke="#191970" d="M2170.7533,-302.4288C2191.4597,-295.8245 2213.1382,-284.7016 2225.5,-266 2264.2576,-207.3654 2195.6758,-130.5897 2155.9096,-93.4773"/>
<polygon fill="#191970" stroke="#191970" points="2158.125,-90.7606 2148.3809,-86.6008 2153.4042,-95.9292 2158.125,-90.7606"/>
</g>
<!-- Node33&#45;&gt;Node21 -->
<g id="edge73" class="edge">
<title>Node33&#45;&gt;Node21</title>
<path fill="none" stroke="#191970" d="M2158.0088,-302.417C2190.9626,-293.7434 2233.7124,-280.1866 2244.5,-266 2282.4317,-216.1167 2273.3663,-136.7313 2265.4255,-96.5522"/>
<polygon fill="#191970" stroke="#191970" points="2268.8018,-95.601 2263.3068,-86.5425 2261.9535,-97.0506 2268.8018,-95.601"/>
</g>
<!-- Node33&#45;&gt;Node22 -->
<g id="edge74" class="edge">
<title>Node33&#45;&gt;Node22</title>
<path fill="none" stroke="#191970" d="M2159.532,-302.4632C2197.387,-293.2663 2249.5988,-278.8841 2266.5,-266 2326.0996,-220.5661 2364.8264,-137.6199 2381.348,-96.285"/>
<polygon fill="#191970" stroke="#191970" points="2384.705,-97.3094 2385.0692,-86.7208 2378.1813,-94.7712 2384.705,-97.3094"/>
</g>
<!-- Node33&#45;&gt;Node27 -->
<g id="edge68" class="edge">
<title>Node33&#45;&gt;Node27</title>
<path fill="none" stroke="#191970" d="M2171.2315,-303.1995C2225.6501,-293.8264 2305.7677,-278.6314 2334.5,-266 2459.9313,-210.8573 2522.7575,-208.8077 2585.5,-87 2591.8091,-74.7516 2594.2776,-66.6198 2585.5,-56 2560.3329,-25.5511 2444.7781,-15.0599 2383.6582,-11.603"/>
<polygon fill="#191970" stroke="#191970" points="2383.7964,-8.1055 2373.6251,-11.0711 2383.4258,-15.0956 2383.7964,-8.1055"/>
</g>
<!-- Node34 -->
<g id="node35" class="node">
<title>Node34</title>
<polygon fill="#ffffff" stroke="#bfbfbf" points="2086.5,-241 2086.5,-260 2138.5,-260 2138.5,-241 2086.5,-241"/>
<text text-anchor="middle" x="2112.5" y="-248" font-family="Helvetica,sans-Serif" font-size="10.00" fill="#000000">cassert</text>
</g>
<!-- Node33&#45;&gt;Node34 -->
<g id="edge66" class="edge">
<title>Node33&#45;&gt;Node34</title>
<path fill="none" stroke="#191970" d="M2116.7188,-302.3906C2116.0257,-293.8657 2114.991,-281.1392 2114.1198,-270.4235"/>
<polygon fill="#191970" stroke="#191970" points="2117.5912,-269.9283 2113.2923,-260.2449 2110.6142,-270.4956 2117.5912,-269.9283"/>
</g>
<!-- Node35 -->
<g id="node36" class="node">
<title>Node35</title>
<polygon fill="#ffffff" stroke="#bfbfbf" points="2156.5,-241 2156.5,-260 2216.5,-260 2216.5,-241 2156.5,-241"/>
<text text-anchor="middle" x="2186.5" y="-248" font-family="Helvetica,sans-Serif" font-size="10.00" fill="#000000">iostream</text>
</g>
<!-- Node33&#45;&gt;Node35 -->
<g id="edge67" class="edge">
<title>Node33&#45;&gt;Node35</title>
<path fill="none" stroke="#191970" d="M2128.2813,-302.3906C2138.8526,-292.9683 2155.1825,-278.4134 2167.8603,-267.1137"/>
<polygon fill="#191970" stroke="#191970" points="2170.4304,-269.5114 2175.5667,-260.2449 2165.7728,-264.2858 2170.4304,-269.5114"/>
</g>
<!-- Node36 -->
<g id="node37" class="node">
<title>Node36</title>
<polygon fill="#ffffff" stroke="#bfbfbf" points="1774,-241 1774,-260 1921,-260 1921,-241 1774,-241"/>
<text text-anchor="middle" x="1847.5" y="-248" font-family="Helvetica,sans-Serif" font-size="10.00" fill="#000000">boost/current_function.hpp</text>
</g>
<!-- Node33&#45;&gt;Node36 -->
<g id="edge69" class="edge">
<title>Node33&#45;&gt;Node36</title>
<path fill="none" stroke="#191970" d="M2075.6087,-302.4581C2028.1174,-291.6406 1950.6528,-273.9959 1899.3785,-262.3168"/>
<polygon fill="#191970" stroke="#191970" points="1900.0171,-258.8727 1889.4895,-260.0643 1898.4625,-265.6978 1900.0171,-258.8727"/>
</g>
<!-- Node37 -->
<g id="node38" class="node">
<title>Node37</title>
<polygon fill="#ffffff" stroke="#bfbfbf" points="1939,-235.5 1939,-265.5 2068,-265.5 2068,-235.5 1939,-235.5"/>
<text text-anchor="start" x="1947" y="-253.5" font-family="Helvetica,sans-Serif" font-size="10.00" fill="#000000">boost/preprocessor</text>
<text text-anchor="middle" x="2003.5" y="-242.5" font-family="Helvetica,sans-Serif" font-size="10.00" fill="#000000">/facilities/is_empty.hpp</text>
</g>
<!-- Node33&#45;&gt;Node37 -->
<g id="edge71" class="edge">
<title>Node33&#45;&gt;Node37</title>
<path fill="none" stroke="#191970" d="M2099.6875,-302.3906C2083.8304,-293.8361 2060.1309,-281.0509 2040.2248,-270.3121"/>
<polygon fill="#191970" stroke="#191970" points="2041.8503,-267.2122 2031.3875,-265.5446 2038.5268,-273.3729 2041.8503,-267.2122"/>
</g>
<!-- Node38 -->
<g id="node39" class="node">
<title>Node38</title>
<g id="a_node39"><a xlink:href="Parallel_8hpp.html" target="_top" xlink:title="Parallel.hpp">
<polygon fill="#ffffff" stroke="#ff0000" points="1453.5,-241 1453.5,-260 1527.5,-260 1527.5,-241 1453.5,-241"/>
<text text-anchor="middle" x="1490.5" y="-248" font-family="Helvetica,sans-Serif" font-size="10.00" fill="#000000">Parallel.hpp</text>
</a>
</g>
</g>
<!-- Node33&#45;&gt;Node38 -->
<g id="edge75" class="edge">
<title>Node33&#45;&gt;Node38</title>
<path fill="none" stroke="#191970" d="M2063.7713,-306.73C1943.1159,-294.8953 1652.2944,-266.3698 1537.8791,-255.1472"/>
<polygon fill="#191970" stroke="#191970" points="1537.9837,-251.6408 1527.6897,-254.1478 1537.3003,-258.6073 1537.9837,-251.6408"/>
</g>
<!-- Node38&#45;&gt;Node5 -->
<g id="edge76" class="edge">
<title>Node38&#45;&gt;Node5</title>
<path fill="none" stroke="#191970" d="M1459.587,-240.9698C1415.8957,-227.464 1339.9823,-203.8513 1327.5,-199 1307.8544,-191.3646 1304.5311,-185.5576 1284.5,-179 1219.1977,-157.622 1140.0561,-144.4409 1093.6902,-137.9388"/>
<polygon fill="#191970" stroke="#191970" points="1094.1353,-134.4672 1083.7528,-136.5775 1093.1852,-141.4024 1094.1353,-134.4672"/>
</g>
<!-- Node38&#45;&gt;Node8 -->
<g id="edge77" class="edge">
<title>Node38&#45;&gt;Node8</title>
<path fill="none" stroke="#191970" d="M1468.7487,-240.8495C1424.8944,-220.0558 1326.6352,-166.3923 1286.5,-87 1277.3552,-68.9104 1273.1018,-45.9884 1271.1408,-29.875"/>
<polygon fill="#191970" stroke="#191970" points="1274.5803,-29.1037 1270.0809,-19.5117 1267.6166,-29.8159 1274.5803,-29.1037"/>
</g>
<!-- Node38&#45;&gt;Node9 -->
<g id="edge78" class="edge">
<title>Node38&#45;&gt;Node9</title>
<path fill="none" stroke="#191970" d="M1453.4445,-242.5648C1438.8766,-239.7337 1421.9663,-236.8023 1406.5,-235 1085.6083,-197.6059 1002.6141,-223.7448 680.5,-199 659.733,-197.4047 636.5007,-195.0011 618.0929,-192.9502"/>
<polygon fill="#191970" stroke="#191970" points="618.469,-189.4705 608.1388,-191.8234 617.6816,-196.4261 618.469,-189.4705"/>
</g>
<!-- Node38&#45;&gt;Node16 -->
<g id="edge79" class="edge">
<title>Node38&#45;&gt;Node16</title>
<path fill="none" stroke="#191970" d="M1490.5,-240.8906C1490.5,-232.3657 1490.5,-219.6392 1490.5,-208.9235"/>
<polygon fill="#191970" stroke="#191970" points="1494.0001,-208.7448 1490.5,-198.7449 1487.0001,-208.7449 1494.0001,-208.7448"/>
</g>
<!-- Node38&#45;&gt;Node30 -->
<g id="edge80" class="edge">
<title>Node38&#45;&gt;Node30</title>
<path fill="none" stroke="#191970" d="M1453.4543,-242.4783C1438.8877,-239.6359 1421.9758,-236.7194 1406.5,-235 1289.2897,-221.9773 432.0326,-195.3751 254.591,-189.9707"/>
<polygon fill="#191970" stroke="#191970" points="254.6814,-186.472 244.5796,-189.6664 254.4686,-193.4687 254.6814,-186.472"/>
</g>
<!-- Node41&#45;&gt;Node8 -->
<g id="edge86" class="edge">
<title>Node41&#45;&gt;Node8</title>
<path fill="none" stroke="#191970" d="M1207.6667,-302.4599C1162.3461,-294.4888 1098.3697,-281.8798 1043.5,-266 1023.2006,-260.1251 877.5262,-216.3767 865.5,-199 769.9809,-60.9846 1125.8507,-21.1897 1237.1976,-12.2325"/>
<polygon fill="#191970" stroke="#191970" points="1237.4863,-15.7207 1247.1865,-11.4597 1236.9462,-8.7416 1237.4863,-15.7207"/>
</g>
<!-- Node41&#45;&gt;Node9 -->
<g id="edge89" class="edge">
<title>Node41&#45;&gt;Node9</title>
<path fill="none" stroke="#191970" d="M1213.053,-302.4128C1161.2616,-293.1186 1080.4935,-278.6142 1010.5,-266 864.5162,-239.6909 690.4187,-208.1805 618.329,-195.1269"/>
<polygon fill="#191970" stroke="#191970" points="618.5146,-191.6036 608.0509,-193.2657 617.2672,-198.4916 618.5146,-191.6036"/>
</g>
<!-- Node41&#45;&gt;Node38 -->
<g id="edge101" class="edge">
<title>Node41&#45;&gt;Node38</title>
<path fill="none" stroke="#191970" d="M1301.5,-302.3906C1340.4588,-291.6944 1403.5093,-274.3836 1445.9571,-262.7294"/>
<polygon fill="#191970" stroke="#191970" points="1447.0293,-266.0646 1455.7458,-260.0419 1445.1759,-259.3144 1447.0293,-266.0646"/>
</g>
<!-- Node42 -->
<g id="node41" class="node">
<title>Node42</title>
<polygon fill="#ffffff" stroke="#bfbfbf" points="1332,-241 1332,-260 1397,-260 1397,-241 1332,-241"/>
<text text-anchor="middle" x="1364.5" y="-248" font-family="Helvetica,sans-Serif" font-size="10.00" fill="#000000">stdexcept</text>
</g>
<!-- Node41&#45;&gt;Node42 -->
<g id="edge85" class="edge">
<title>Node41&#45;&gt;Node42</title>
<path fill="none" stroke="#191970" d="M1281.8125,-302.3906C1297.5624,-292.5067 1322.3123,-276.9749 1340.6337,-265.4773"/>
<polygon fill="#191970" stroke="#191970" points="1342.6852,-268.3221 1349.295,-260.0419 1338.9643,-262.3929 1342.6852,-268.3221"/>
</g>
<!-- Node43 -->
<g id="node42" class="node">
<title>Node43</title>
<polygon fill="#ffffff" stroke="#bfbfbf" points="1206,-179.5 1206,-198.5 1275,-198.5 1275,-179.5 1206,-179.5"/>
<text text-anchor="middle" x="1240.5" y="-186.5" font-family="Helvetica,sans-Serif" font-size="10.00" fill="#000000">type_traits</text>
</g>
<!-- Node41&#45;&gt;Node43 -->
<g id="edge87" class="edge">
<title>Node41&#45;&gt;Node43</title>
<path fill="none" stroke="#191970" d="M1264.4598,-302.3484C1260.2071,-282.2295 1250.321,-235.4608 1244.6663,-208.7098"/>
<polygon fill="#191970" stroke="#191970" points="1248.0232,-207.6667 1242.5307,-198.6068 1241.1746,-209.1144 1248.0232,-207.6667"/>
</g>
<!-- Node44 -->
<g id="node43" class="node">
<title>Node44</title>
<polygon fill="#ffffff" stroke="#bfbfbf" points="1269,-241 1269,-260 1314,-260 1314,-241 1269,-241"/>
<text text-anchor="middle" x="1291.5" y="-248" font-family="Helvetica,sans-Serif" font-size="10.00" fill="#000000">utility</text>
</g>
<!-- Node41&#45;&gt;Node44 -->
<g id="edge88" class="edge">
<title>Node41&#45;&gt;Node44</title>
<path fill="none" stroke="#191970" d="M1270.4063,-302.3906C1273.9446,-293.6862 1279.2636,-280.6015 1283.675,-269.7494"/>
<polygon fill="#191970" stroke="#191970" points="1287.0152,-270.8268 1287.5387,-260.2449 1280.5305,-268.1907 1287.0152,-270.8268"/>
</g>
<!-- Node45 -->
<g id="node44" class="node">
<title>Node45</title>
<g id="a_node44"><a xlink:href="M2N_8hpp.html" target="_top" xlink:title="m2n/M2N.hpp">
<polygon fill="#ffffff" stroke="#ff0000" points="1052.5,-241 1052.5,-260 1136.5,-260 1136.5,-241 1052.5,-241"/>
<text text-anchor="middle" x="1094.5" y="-248" font-family="Helvetica,sans-Serif" font-size="10.00" fill="#000000">m2n/M2N.hpp</text>
</a>
</g>
</g>
<!-- Node41&#45;&gt;Node45 -->
<g id="edge90" class="edge">
<title>Node41&#45;&gt;Node45</title>
<path fill="none" stroke="#191970" d="M1239.625,-302.3906C1210.3414,-291.92 1163.331,-275.1111 1130.7863,-263.4745"/>
<polygon fill="#191970" stroke="#191970" points="1131.7809,-260.1131 1121.1863,-260.0419 1129.4241,-266.7045 1131.7809,-260.1131"/>
</g>
<!-- Node67 -->
<g id="node45" class="node">
<title>Node67</title>
<g id="a_node45"><a xlink:href="m2n_2SharedPointer_8hpp.html" target="_top" xlink:title="SharedPointer.hpp">
<polygon fill="#ffffff" stroke="#000000" points="1083,-179.5 1083,-198.5 1188,-198.5 1188,-179.5 1083,-179.5"/>
<text text-anchor="middle" x="1135.5" y="-186.5" font-family="Helvetica,sans-Serif" font-size="10.00" fill="#000000">SharedPointer.hpp</text>
</a>
</g>
</g>
<!-- Node41&#45;&gt;Node67 -->
<g id="edge100" class="edge">
<title>Node41&#45;&gt;Node67</title>
<path fill="none" stroke="#191970" d="M1256.2206,-302.3484C1233.9323,-281.4212 1180.9342,-231.6596 1153.1641,-205.5854"/>
<polygon fill="#191970" stroke="#191970" points="1155.4175,-202.9002 1145.7316,-198.6068 1150.626,-208.0033 1155.4175,-202.9002"/>
</g>
<!-- Node45&#45;&gt;Node5 -->
<g id="edge92" class="edge">
<title>Node45&#45;&gt;Node5</title>
<path fill="none" stroke="#191970" d="M1090.4411,-240.7095C1086.2318,-230.4098 1079.5693,-213.6881 1074.5,-199 1069.1902,-183.6149 1063.8801,-165.9591 1060.0672,-152.7822"/>
<polygon fill="#191970" stroke="#191970" points="1063.361,-151.5697 1057.2494,-142.9153 1056.6301,-153.492 1063.361,-151.5697"/>
</g>
<!-- Node45&#45;&gt;Node8 -->
<g id="edge93" class="edge">
<title>Node45&#45;&gt;Node8</title>
<path fill="none" stroke="#191970" d="M1080.4422,-240.7956C1051.1197,-219.3364 988.4011,-166.3243 1016.5,-123 1066.052,-46.5982 1180.6591,-21.4002 1237.0165,-13.4561"/>
<polygon fill="#191970" stroke="#191970" points="1237.6945,-16.8972 1247.1542,-12.126 1236.7838,-9.9567 1237.6945,-16.8972"/>
</g>
<!-- Node45&#45;&gt;Node9 -->
<g id="edge95" class="edge">
<title>Node45&#45;&gt;Node9</title>
<path fill="none" stroke="#191970" d="M1052.3307,-245.4149C953.4898,-233.4958 708.4352,-203.9451 618.3913,-193.0869"/>
<polygon fill="#191970" stroke="#191970" points="618.5461,-189.5803 608.199,-191.8578 617.708,-196.5299 618.5461,-189.5803"/>
</g>
<!-- Node45&#45;&gt;Node15 -->
<g id="edge98" class="edge">
<title>Node45&#45;&gt;Node15</title>
<path fill="none" stroke="#191970" d="M1052.3447,-242.8972C993.2767,-232.2442 885.4285,-212.7935 816.7226,-200.4023"/>
<polygon fill="#191970" stroke="#191970" points="816.9254,-196.8825 806.4629,-198.552 815.6829,-203.7714 816.9254,-196.8825"/>
</g>
<!-- Node45&#45;&gt;Node16 -->
<g id="edge99" class="edge">
<title>Node45&#45;&gt;Node16</title>
<path fill="none" stroke="#191970" d="M1126.0072,-240.9743C1133.95,-238.7958 1142.4955,-236.6414 1150.5,-235 1245.4088,-215.5385 1356.9654,-202.2378 1425.7032,-195.1255"/>
<polygon fill="#191970" stroke="#191970" points="1426.3502,-198.5777 1435.9425,-194.0791 1425.6385,-191.614 1426.3502,-198.5777"/>
</g>
<!-- Node45&#45;&gt;Node29 -->
<g id="edge91" class="edge">
<title>Node45&#45;&gt;Node29</title>
<path fill="none" stroke="#191970" d="M1063.0938,-240.8906C1024.5408,-229.0946 959.6956,-209.2539 922.3502,-197.8273"/>
<polygon fill="#191970" stroke="#191970" points="923.1773,-194.4203 912.5908,-194.8412 921.1292,-201.1139 923.1773,-194.4203"/>
</g>
<!-- Node45&#45;&gt;Node43 -->
<g id="edge94" class="edge">
<title>Node45&#45;&gt;Node43</title>
<path fill="none" stroke="#191970" d="M1117.3125,-240.8906C1141.8481,-230.5554 1181.0442,-214.0447 1208.6211,-202.4284"/>
<polygon fill="#191970" stroke="#191970" points="1209.9906,-205.6495 1217.8477,-198.5419 1207.2732,-199.1984 1209.9906,-205.6495"/>
</g>
<!-- Node45&#45;&gt;Node67 -->
<g id="edge96" class="edge">
<title>Node45&#45;&gt;Node67</title>
<path fill="none" stroke="#191970" d="M1100.9063,-240.8906C1106.8886,-231.917 1115.9747,-218.2879 1123.3339,-207.2491"/>
<polygon fill="#191970" stroke="#191970" points="1126.3686,-209.0068 1129.0034,-198.7449 1120.5442,-205.1239 1126.3686,-209.0068"/>
</g>
<!-- Node67&#45;&gt;Node5 -->
<g id="edge97" class="edge">
<title>Node67&#45;&gt;Node5</title>
<path fill="none" stroke="#191970" d="M1121.3909,-179.2455C1109.0791,-170.7337 1091.0042,-158.2375 1076.7462,-148.3801"/>
<polygon fill="#191970" stroke="#191970" points="1078.6634,-145.4506 1068.4474,-142.6427 1074.6826,-151.2085 1078.6634,-145.4506"/>
</g>
<!-- Node68&#45;&gt;Node2 -->
<g id="edge103" class="edge">
<title>Node68&#45;&gt;Node2</title>
<path fill="none" stroke="#191970" d="M2135.0613,-481.8997C2233.7884,-474.8262 2433.8268,-457.715 2454.5,-434 2512.2316,-367.7739 2350.3234,-331.9179 2268.121,-318.3905"/>
<polygon fill="#191970" stroke="#191970" points="2268.4619,-314.9006 2258.0345,-316.7767 2267.3559,-321.8127 2268.4619,-314.9006"/>
</g>
<!-- Node68&#45;&gt;Node8 -->
<g id="edge105" class="edge">
<title>Node68&#45;&gt;Node8</title>
<path fill="none" stroke="#191970" d="M2135.1304,-480.6249C2227.7347,-471.9803 2411.5122,-453.0731 2473.5,-434 2535.8112,-414.8274 2604.5,-433.1941 2604.5,-368 2604.5,-368 2604.5,-368 2604.5,-133 2604.5,-97.7513 2612.8661,-78.2164 2585.5,-56 2559.7799,-35.1199 1501.1455,-14.3286 1301.7146,-10.593"/>
<polygon fill="#191970" stroke="#191970" points="1301.6547,-7.0914 1291.5911,-10.4042 1301.5241,-14.0901 1301.6547,-7.0914"/>
</g>
<!-- Node68&#45;&gt;Node32 -->
<g id="edge114" class="edge">
<title>Node68&#45;&gt;Node32</title>
<path fill="none" stroke="#191970" d="M2039.3381,-475.978C2005.2377,-467.3133 1955.9842,-452.9812 1915.5,-434 1885.3897,-419.8826 1853.6779,-398.1196 1833.7588,-383.4837"/>
<polygon fill="#191970" stroke="#191970" points="1835.8435,-380.6722 1825.734,-377.5022 1831.6601,-386.2847 1835.8435,-380.6722"/>
</g>
<!-- Node68&#45;&gt;Node41 -->
<g id="edge112" class="edge">
<title>Node68&#45;&gt;Node41</title>
<path fill="none" stroke="#191970" d="M2047.0148,-475.9752C2020.6867,-467.514 1983.8479,-453.4611 1955.5,-434 1917.1405,-407.6659 1925.5291,-377.9622 1883.5,-358 1835.8093,-335.3487 1497.4516,-320.3579 1343.0194,-314.6214"/>
<polygon fill="#191970" stroke="#191970" points="1342.7932,-311.1108 1332.6713,-314.2406 1342.5358,-318.106 1342.7932,-311.1108"/>
</g>
<!-- Node68&#45;&gt;Node43 -->
<g id="edge106" class="edge">
<title>Node68&#45;&gt;Node43</title>
<path fill="none" stroke="#191970" d="M2059.8517,-475.8516C2040.5808,-466.414 2011.4347,-451.0113 1988.5,-434 1949.3684,-404.9751 1952.6998,-380.528 1909.5,-358 1722.7011,-260.5875 1635.1235,-355.6978 1444.5,-266 1424.7784,-256.72 1425.8599,-245.0129 1406.5,-235 1395.6032,-229.3642 1330.4744,-212.0541 1285.1134,-200.3511"/>
<polygon fill="#191970" stroke="#191970" points="1285.7493,-196.9008 1275.1927,-197.7995 1284.0056,-203.6802 1285.7493,-196.9008"/>
</g>
<!-- Node69 -->
<g id="node47" class="node">
<title>Node69</title>
<polygon fill="#ffffff" stroke="#bfbfbf" points="2145.5,-414.5 2145.5,-433.5 2277.5,-433.5 2277.5,-414.5 2145.5,-414.5"/>
<text text-anchor="middle" x="2211.5" y="-421.5" font-family="Helvetica,sans-Serif" font-size="10.00" fill="#000000">boost/test/unit_test.hpp</text>
</g>
<!-- Node68&#45;&gt;Node69 -->
<g id="edge104" class="edge">
<title>Node68&#45;&gt;Node69</title>
<path fill="none" stroke="#191970" d="M2100.9688,-475.8906C2122.6952,-465.6908 2157.2335,-449.4763 2181.9185,-437.8875"/>
<polygon fill="#191970" stroke="#191970" points="2183.6103,-440.9598 2191.175,-433.5419 2180.6355,-434.6234 2183.6103,-440.9598"/>
</g>
<!-- Node54 -->
<g id="node48" class="node">
<title>Node54</title>
<g id="a_node48"><a xlink:href="differences_8hpp.html" target="_top" xlink:title="math/differences.hpp">
<polygon fill="#ffffff" stroke="#000000" points="2057.5,-358.5 2057.5,-377.5 2177.5,-377.5 2177.5,-358.5 2057.5,-358.5"/>
<text text-anchor="middle" x="2117.5" y="-365.5" font-family="Helvetica,sans-Serif" font-size="10.00" fill="#000000">math/differences.hpp</text>
</a>
</g>
</g>
<!-- Node68&#45;&gt;Node54 -->
<g id="edge107" class="edge">
<title>Node68&#45;&gt;Node54</title>
<path fill="none" stroke="#191970" d="M2084.1154,-475.6821C2087.873,-465.36 2093.8446,-448.6203 2098.5,-434 2103.4179,-418.5553 2108.4703,-400.9032 2112.1277,-387.7429"/>
<polygon fill="#191970" stroke="#191970" points="2115.5599,-388.462 2114.8382,-377.8918 2108.8107,-386.605 2115.5599,-388.462"/>
</g>
<!-- Node70 -->
<g id="node49" class="node">
<title>Node70</title>
<g id="a_node49"><a xlink:href="math_8hpp.html" target="_top" xlink:title="math/math.hpp">
<polygon fill="#ffffff" stroke="#ff0000" points="1997.5,-414.5 1997.5,-433.5 2089.5,-433.5 2089.5,-414.5 1997.5,-414.5"/>
<text text-anchor="middle" x="2043.5" y="-421.5" font-family="Helvetica,sans-Serif" font-size="10.00" fill="#000000">math/math.hpp</text>
</a>
</g>
</g>
<!-- Node68&#45;&gt;Node70 -->
<g id="edge110" class="edge">
<title>Node68&#45;&gt;Node70</title>
<path fill="none" stroke="#191970" d="M2074.7188,-475.8906C2069.374,-467.0068 2061.2841,-453.5601 2054.6789,-442.5811"/>
<polygon fill="#191970" stroke="#191970" points="2057.5171,-440.5093 2049.3628,-433.7449 2051.5189,-444.118 2057.5171,-440.5093"/>
</g>
<!-- Node62 -->
<g id="node50" class="node">
<title>Node62</title>
<g id="a_node50"><a xlink:href="ManageUniqueIDs_8hpp.html" target="_top" xlink:title="utils/ManageUniqueIDs.hpp">
<polygon fill="#ffffff" stroke="#ff0000" points="2295.5,-414.5 2295.5,-433.5 2445.5,-433.5 2445.5,-414.5 2295.5,-414.5"/>
<text text-anchor="middle" x="2370.5" y="-421.5" font-family="Helvetica,sans-Serif" font-size="10.00" fill="#000000">utils/ManageUniqueIDs.hpp</text>
</a>
</g>
</g>
<!-- Node68&#45;&gt;Node62 -->
<g id="edge113" class="edge">
<title>Node68&#45;&gt;Node62</title>
<path fill="none" stroke="#191970" d="M2125.4943,-475.9581C2176.716,-465.0956 2260.4001,-447.3488 2315.4655,-435.6711"/>
<polygon fill="#191970" stroke="#191970" points="2316.3438,-439.0628 2325.4001,-433.5643 2314.8916,-432.2151 2316.3438,-439.0628"/>
</g>
<!-- Node54&#45;&gt;Node2 -->
<g id="edge108" class="edge">
<title>Node54&#45;&gt;Node2</title>
<path fill="none" stroke="#191970" d="M2135.9638,-358.2455C2152.6074,-349.4527 2177.2993,-336.4079 2196.2192,-326.4125"/>
<polygon fill="#191970" stroke="#191970" points="2198.0408,-329.4086 2205.2478,-321.6427 2194.7709,-323.2193 2198.0408,-329.4086"/>
</g>
<!-- Node54&#45;&gt;Node33 -->
<g id="edge109" class="edge">
<title>Node54&#45;&gt;Node33</title>
<path fill="none" stroke="#191970" d="M2117.5,-358.2455C2117.5,-350.9382 2117.5,-340.6944 2117.5,-331.7046"/>
<polygon fill="#191970" stroke="#191970" points="2121.0001,-331.6426 2117.5,-321.6427 2114.0001,-331.6427 2121.0001,-331.6426"/>
</g>
<!-- Node70&#45;&gt;Node54 -->
<g id="edge111" class="edge">
<title>Node70&#45;&gt;Node54</title>
<path fill="none" stroke="#191970" d="M2056.3898,-414.2455C2067.4254,-405.8943 2083.5292,-393.7076 2096.4353,-383.9408"/>
<polygon fill="#191970" stroke="#191970" points="2098.8959,-386.4681 2104.7579,-377.6427 2094.6717,-380.8862 2098.8959,-386.4681"/>
</g>
</g>
</svg>
