<?xml version="1.0" encoding="UTF-8" standalone="no"?>
<!DOCTYPE svg PUBLIC "-//W3C//DTD SVG 1.1//EN"
 "http://www.w3.org/Graphics/SVG/1.1/DTD/svg11.dtd">
<!-- Generated by graphviz version 2.40.1 (20161225.0304)
 -->
<!-- Title: runTestDistributedCommunication Pages: 1 -->
<!--zoomable 519 -->
<svg id="main" version="1.1" xmlns="http://www.w3.org/2000/svg" xmlns:xlink="http://www.w3.org/1999/xlink" xml:space="preserve" onload="init(evt)">
<style type="text/css"><![CDATA[
.edge:hover path { stroke: red; }
.edge:hover polygon { stroke: red; fill: red; }
]]></style>
<script type="text/javascript"><![CDATA[
var edges = document.getElementsByTagName('g');
if (edges && edges.length) {
  for (var i=0;i<edges.length;i++) {
    if (edges[i].id.substr(0,4)=='edge') {
      edges[i].setAttribute('class','edge');
    }
  }
}
]]></script>
        <defs>
                <circle id="rim" cx="0" cy="0" r="7"/>
                <circle id="rim2" cx="0" cy="0" r="3.5"/>
                <g id="zoomPlus">
                        <use xlink:href="#rim" fill="#404040">
                                <set attributeName="fill" to="#808080" begin="zoomplus.mouseover" end="zoomplus.mouseout"/>
                        </use>
                        <path d="M-4,0h8M0,-4v8" fill="none" stroke="white" stroke-width="1.5" pointer-events="none"/>
                </g>
                <g id="zoomMin">
                        <use xlink:href="#rim" fill="#404040">
                                <set attributeName="fill" to="#808080" begin="zoomminus.mouseover" end="zoomminus.mouseout"/>
                        </use>
                        <path d="M-4,0h8" fill="none" stroke="white" stroke-width="1.5" pointer-events="none"/>
                </g>
                <g id="dirArrow">
                        <path fill="none" stroke="white" stroke-width="1.5" d="M0,-3.0v7 M-2.5,-0.5L0,-3.0L2.5,-0.5"/>
                </g>
               <g id="resetDef">
                       <use xlink:href="#rim2" fill="#404040">
                               <set attributeName="fill" to="#808080" begin="reset.mouseover" end="reset.mouseout"/>
                       </use>
               </g>
        </defs>

<script type="text/javascript">
var viewWidth = 531;
var viewHeight = 519;
var sectionId = 'dynsection-21';
</script>
<script xlink:href="svgpan.js"/>
<svg id="graph" class="graph">
<g id="viewport">
<title>runTestDistributedCommunication</title>
<polygon fill="#ffffff" stroke="transparent" points="-4,4 -4,-515 527,-515 527,4 -4,4"/>
<!-- Node304 -->
<g id="node1" class="node">
<title>Node304</title>
<polygon fill="#bfbfbf" stroke="#000000" points="0,-241 0,-260 165,-260 165,-241 0,-241"/>
<text text-anchor="middle" x="82.5" y="-248" font-family="Helvetica,sans-Serif" font-size="10.00" fill="#000000">runTestDistributedCommunication</text>
</g>
<!-- Node305 -->
<g id="node2" class="node">
<title>Node305</title>
<g id="a_node2"><a xlink:href="classprecice_1_1testing_1_1TestContext.html#a87ef3b67f676b69dfb8c4cfc2e8df819" target="_top" xlink:title="Check wheater this context has a given name. ">
<polygon fill="#ffffff" stroke="#000000" points="201,-480.5 201,-510.5 344,-510.5 344,-480.5 201,-480.5"/>
<text text-anchor="start" x="209" y="-498.5" font-family="Helvetica,sans-Serif" font-size="10.00" fill="#000000">precice::testing::TestContext</text>
<text text-anchor="middle" x="272.5" y="-487.5" font-family="Helvetica,sans-Serif" font-size="10.00" fill="#000000">::isNamed</text>
</a>
</g>
</g>
<!-- Node304&#45;&gt;Node305 -->
<g id="edge1" class="edge">
<title>Node304&#45;&gt;Node305</title>
<path fill="none" stroke="#191970" d="M84.887,-260.0809C93.8624,-294.1363 128.8184,-410.5505 201,-471.5 202.5382,-472.7988 204.1495,-474.0282 205.8196,-475.1918"/>
<polygon fill="#191970" stroke="#191970" points="204.2222,-478.3155 214.5939,-480.4784 207.8348,-472.3197 204.2222,-478.3155"/>
</g>
<!-- Node306 -->
<g id="node3" class="node">
<title>Node306</title>
<g id="a_node3"><a xlink:href="classprecice_1_1testing_1_1TestContext.html#ae29e764c55d02af8024417f307aba70b" target="_top" xlink:title="precice::testing::TestContext\l::isMaster">
<polygon fill="#ffffff" stroke="#000000" points="201,-431.5 201,-461.5 344,-461.5 344,-431.5 201,-431.5"/>
<text text-anchor="start" x="209" y="-449.5" font-family="Helvetica,sans-Serif" font-size="10.00" fill="#000000">precice::testing::TestContext</text>
<text text-anchor="middle" x="272.5" y="-438.5" font-family="Helvetica,sans-Serif" font-size="10.00" fill="#000000">::isMaster</text>
</a>
</g>
</g>
<!-- Node304&#45;&gt;Node306 -->
<g id="edge2" class="edge">
<title>Node304&#45;&gt;Node306</title>
<path fill="none" stroke="#191970" d="M86.5326,-260.3076C99.0147,-289.4677 139.8902,-376.4588 201,-422.5 202.8269,-423.8764 204.7373,-425.1767 206.7115,-426.4049"/>
<polygon fill="#191970" stroke="#191970" points="205.2622,-429.6018 215.7134,-431.3403 208.6274,-423.4637 205.2622,-429.6018"/>
</g>
<!-- Node308 -->
<g id="node5" class="node">
<title>Node308</title>
<g id="a_node5"><a xlink:href="classprecice_1_1SolverInterface.html#a46c45798758f01b9cfdd2885bc849764" target="_top" xlink:title="Returns the ID belonging to the mesh with given name. ">
<polygon fill="#ffffff" stroke="#000000" points="212.5,-382.5 212.5,-412.5 332.5,-412.5 332.5,-382.5 212.5,-382.5"/>
<text text-anchor="start" x="220.5" y="-400.5" font-family="Helvetica,sans-Serif" font-size="10.00" fill="#000000">precice::SolverInterface</text>
<text text-anchor="middle" x="272.5" y="-389.5" font-family="Helvetica,sans-Serif" font-size="10.00" fill="#000000">::getMeshID</text>
</a>
</g>
</g>
<!-- Node304&#45;&gt;Node308 -->
<g id="edge4" class="edge">
<title>Node304&#45;&gt;Node308</title>
<path fill="none" stroke="#191970" d="M89.3362,-260.336C105.8632,-283.411 150.3775,-341.4838 201,-373.5 203.5729,-375.1272 206.2683,-376.6569 209.0425,-378.0932"/>
<polygon fill="#191970" stroke="#191970" points="207.5802,-381.2732 218.1183,-382.3682 210.5631,-374.9405 207.5802,-381.2732"/>
</g>
<!-- Node309 -->
<g id="node6" class="node">
<title>Node309</title>
<g id="a_node6"><a xlink:href="classprecice_1_1SolverInterface.html#a2b2a961362828c0f3fbea0acf3e9f81c" target="_top" xlink:title="Returns the ID of the data associated with the given name and mesh. ">
<polygon fill="#ffffff" stroke="#000000" points="212.5,-333.5 212.5,-363.5 332.5,-363.5 332.5,-333.5 212.5,-333.5"/>
<text text-anchor="start" x="220.5" y="-351.5" font-family="Helvetica,sans-Serif" font-size="10.00" fill="#000000">precice::SolverInterface</text>
<text text-anchor="middle" x="272.5" y="-340.5" font-family="Helvetica,sans-Serif" font-size="10.00" fill="#000000">::getDataID</text>
</a>
</g>
</g>
<!-- Node304&#45;&gt;Node309 -->
<g id="edge5" class="edge">
<title>Node304&#45;&gt;Node309</title>
<path fill="none" stroke="#191970" d="M95.7708,-260.2471C117.0811,-275.5553 160.6416,-305.4491 201,-324.5 204.8631,-326.3235 208.9028,-328.0721 213.0114,-329.7351"/>
<polygon fill="#191970" stroke="#191970" points="212.0825,-333.128 222.6723,-333.4555 214.5981,-326.5956 212.0825,-333.128"/>
</g>
<!-- Node310 -->
<g id="node7" class="node">
<title>Node310</title>
<g id="a_node7"><a xlink:href="classprecice_1_1SolverInterface.html#a0f5dfe2e0932abeadc7276e0f7e0c443" target="_top" xlink:title="Creates a mesh vertex. ">
<polygon fill="#ffffff" stroke="#000000" points="212.5,-284.5 212.5,-314.5 332.5,-314.5 332.5,-284.5 212.5,-284.5"/>
<text text-anchor="start" x="220.5" y="-302.5" font-family="Helvetica,sans-Serif" font-size="10.00" fill="#000000">precice::SolverInterface</text>
<text text-anchor="middle" x="272.5" y="-291.5" font-family="Helvetica,sans-Serif" font-size="10.00" fill="#000000">::setMeshVertex</text>
</a>
</g>
</g>
<!-- Node304&#45;&gt;Node310 -->
<g id="edge6" class="edge">
<title>Node304&#45;&gt;Node310</title>
<path fill="none" stroke="#191970" d="M119.585,-260.064C143.6396,-266.2676 175.7051,-274.5371 204.2589,-281.901"/>
<polygon fill="#191970" stroke="#191970" points="203.6362,-285.3548 214.1934,-284.463 205.3843,-278.5766 203.6362,-285.3548"/>
</g>
<!-- Node311 -->
<g id="node8" class="node">
<title>Node311</title>
<g id="a_node8"><a xlink:href="classprecice_1_1SolverInterface.html#a31b18663881576c2cfe5a7a782f6ff7e" target="_top" xlink:title="Fully initializes preCICE. ">
<polygon fill="#ffffff" stroke="#000000" points="212.5,-235.5 212.5,-265.5 332.5,-265.5 332.5,-235.5 212.5,-235.5"/>
<text text-anchor="start" x="220.5" y="-253.5" font-family="Helvetica,sans-Serif" font-size="10.00" fill="#000000">precice::SolverInterface</text>
<text text-anchor="middle" x="272.5" y="-242.5" font-family="Helvetica,sans-Serif" font-size="10.00" fill="#000000">::initialize</text>
</a>
</g>
</g>
<!-- Node304&#45;&gt;Node311 -->
<g id="edge7" class="edge">
<title>Node304&#45;&gt;Node311</title>
<path fill="none" stroke="#191970" d="M165.0078,-250.5C177.4481,-250.5 190.1791,-250.5 202.3276,-250.5"/>
<polygon fill="#191970" stroke="#191970" points="202.3762,-254.0001 212.3762,-250.5 202.3762,-247.0001 202.3762,-254.0001"/>
</g>
<!-- Node312 -->
<g id="node9" class="node">
<title>Node312</title>
<g id="a_node9"><a xlink:href="classprecice_1_1SolverInterface.html#a656fffa43139988acd89f466758b2e69" target="_top" xlink:title="Writes vector data to a vertex. ">
<polygon fill="#ffffff" stroke="#000000" points="212.5,-186.5 212.5,-216.5 332.5,-216.5 332.5,-186.5 212.5,-186.5"/>
<text text-anchor="start" x="220.5" y="-204.5" font-family="Helvetica,sans-Serif" font-size="10.00" fill="#000000">precice::SolverInterface</text>
<text text-anchor="middle" x="272.5" y="-193.5" font-family="Helvetica,sans-Serif" font-size="10.00" fill="#000000">::writeVectorData</text>
</a>
</g>
</g>
<!-- Node304&#45;&gt;Node312 -->
<g id="edge8" class="edge">
<title>Node304&#45;&gt;Node312</title>
<path fill="none" stroke="#191970" d="M119.585,-240.936C143.6396,-234.7324 175.7051,-226.4629 204.2589,-219.099"/>
<polygon fill="#191970" stroke="#191970" points="205.3843,-222.4234 214.1934,-216.537 203.6362,-215.6452 205.3843,-222.4234"/>
</g>
<!-- Node313 -->
<g id="node10" class="node">
<title>Node313</title>
<g id="a_node10"><a xlink:href="RTreeTests_8cpp.html#a9849f5c774ff22e557184d988b1cf9ea" target="_top" xlink:title="BOOST_TEST">
<polygon fill="#ffffff" stroke="#000000" points="231.5,-148 231.5,-167 313.5,-167 313.5,-148 231.5,-148"/>
<text text-anchor="middle" x="272.5" y="-155" font-family="Helvetica,sans-Serif" font-size="10.00" fill="#000000">BOOST_TEST</text>
</a>
</g>
</g>
<!-- Node304&#45;&gt;Node313 -->
<g id="edge9" class="edge">
<title>Node304&#45;&gt;Node313</title>
<path fill="none" stroke="#191970" d="M95.3385,-240.9041C116.399,-225.5621 160.0463,-195.4186 201,-177.5 207.576,-174.6228 214.6744,-172.0509 221.7567,-169.7877"/>
<polygon fill="#191970" stroke="#191970" points="222.7905,-173.1318 231.3539,-166.8932 220.7692,-166.4299 222.7905,-173.1318"/>
</g>
<!-- Node314 -->
<g id="node11" class="node">
<title>Node314</title>
<g id="a_node11"><a xlink:href="classprecice_1_1SolverInterface.html#aa527d37b96f3030ee9476b94cac9fe18" target="_top" xlink:title="Reads vector data form a vertex. ">
<polygon fill="#ffffff" stroke="#000000" points="212.5,-98.5 212.5,-128.5 332.5,-128.5 332.5,-98.5 212.5,-98.5"/>
<text text-anchor="start" x="220.5" y="-116.5" font-family="Helvetica,sans-Serif" font-size="10.00" fill="#000000">precice::SolverInterface</text>
<text text-anchor="middle" x="272.5" y="-105.5" font-family="Helvetica,sans-Serif" font-size="10.00" fill="#000000">::readVectorData</text>
</a>
</g>
</g>
<!-- Node304&#45;&gt;Node314 -->
<g id="edge10" class="edge">
<title>Node304&#45;&gt;Node314</title>
<path fill="none" stroke="#191970" d="M90.088,-240.9924C107.5154,-219.738 152.6389,-167.9369 201,-138.5 204.3786,-136.4435 207.9503,-134.5251 211.6232,-132.7407"/>
<polygon fill="#191970" stroke="#191970" points="213.2146,-135.863 220.9085,-128.5792 210.3516,-129.4752 213.2146,-135.863"/>
</g>
<!-- Node315 -->
<g id="node12" class="node">
<title>Node315</title>
<g id="a_node12"><a xlink:href="classprecice_1_1SolverInterface.html#a63bc0860c520c27da517cf594ddee586" target="_top" xlink:title="Advances preCICE after the solver has computed one timestep. ">
<polygon fill="#ffffff" stroke="#000000" points="212.5,-49.5 212.5,-79.5 332.5,-79.5 332.5,-49.5 212.5,-49.5"/>
<text text-anchor="start" x="220.5" y="-67.5" font-family="Helvetica,sans-Serif" font-size="10.00" fill="#000000">precice::SolverInterface</text>
<text text-anchor="middle" x="272.5" y="-56.5" font-family="Helvetica,sans-Serif" font-size="10.00" fill="#000000">::advance</text>
</a>
</g>
</g>
<!-- Node304&#45;&gt;Node315 -->
<g id="edge11" class="edge">
<title>Node304&#45;&gt;Node315</title>
<path fill="none" stroke="#191970" d="M86.9253,-240.9684C100.1938,-213.4037 142.3814,-132.8107 201,-89.5 203.5102,-87.6453 206.1696,-85.9196 208.9289,-84.315"/>
<polygon fill="#191970" stroke="#191970" points="210.76,-87.3079 218.0209,-79.5923 207.5333,-81.0959 210.76,-87.3079"/>
</g>
<!-- Node316 -->
<g id="node13" class="node">
<title>Node316</title>
<g id="a_node13"><a xlink:href="classprecice_1_1SolverInterface.html#adc06b8677288d97d005b633c932fedef" target="_top" xlink:title="Finalizes preCICE. ">
<polygon fill="#ffffff" stroke="#000000" points="212.5,-.5 212.5,-30.5 332.5,-30.5 332.5,-.5 212.5,-.5"/>
<text text-anchor="start" x="220.5" y="-18.5" font-family="Helvetica,sans-Serif" font-size="10.00" fill="#000000">precice::SolverInterface</text>
<text text-anchor="middle" x="272.5" y="-7.5" font-family="Helvetica,sans-Serif" font-size="10.00" fill="#000000">::finalize</text>
</a>
</g>
</g>
<!-- Node304&#45;&gt;Node316 -->
<g id="edge12" class="edge">
<title>Node304&#45;&gt;Node316</title>
<path fill="none" stroke="#191970" d="M85.1957,-240.9711C94.9662,-208.1344 131.6495,-98.5238 201,-40.5 203.0297,-38.8018 205.1822,-37.2161 207.4256,-35.7357"/>
<polygon fill="#191970" stroke="#191970" points="209.5422,-38.5557 216.4617,-30.5325 206.0492,-32.4895 209.5422,-38.5557"/>
</g>
<!-- Node307 -->
<g id="node4" class="node">
<title>Node307</title>
<g id="a_node4"><a xlink:href="classprecice_1_1testing_1_1TestContext.html#a8fefcbe2f6def4d4cc9816d238b2797e" target="_top" xlink:title="Check wheater this context has a given rank inside the Partiticipant. ">
<polygon fill="#ffffff" stroke="#000000" points="380,-431.5 380,-461.5 523,-461.5 523,-431.5 380,-431.5"/>
<text text-anchor="start" x="388" y="-449.5" font-family="Helvetica,sans-Serif" font-size="10.00" fill="#000000">precice::testing::TestContext</text>
<text text-anchor="middle" x="451.5" y="-438.5" font-family="Helvetica,sans-Serif" font-size="10.00" fill="#000000">::isRank</text>
</a>
</g>
</g>
<!-- Node306&#45;&gt;Node307 -->
<g id="edge3" class="edge">
<title>Node306&#45;&gt;Node307</title>
<path fill="none" stroke="#191970" d="M344.0172,-446.5C352.4862,-446.5 361.1793,-446.5 369.776,-446.5"/>
<polygon fill="#191970" stroke="#191970" points="369.8043,-450.0001 379.8042,-446.5 369.8042,-443.0001 369.8043,-450.0001"/>
</g>
</g>
</svg>
        <g id="navigator" transform="translate(0 0)" fill="#404254">
                <rect fill="#f2f5e9" fill-opacity="0.5" stroke="#606060" stroke-width=".5" x="0" y="0" width="60" height="60"/>
                <use id="zoomplus" xlink:href="#zoomPlus" x="17" y="9" onmousedown="handleZoom(evt,'in')"/>
                <use id="zoomminus" xlink:href="#zoomMin" x="42" y="9" onmousedown="handleZoom(evt,'out')"/>
                <use id="reset" xlink:href="#resetDef" x="30" y="36" onmousedown="handleReset()"/>
                <g id="arrowUp" xlink:href="#dirArrow" transform="translate(30 24)" onmousedown="handlePan(0,-1)">
                  <use xlink:href="#rim" fill="#404040">
                        <set attributeName="fill" to="#808080" begin="arrowUp.mouseover" end="arrowUp.mouseout"/>
                  </use>
                  <path fill="none" stroke="white" stroke-width="1.5" d="M0,-3.0v7 M-2.5,-0.5L0,-3.0L2.5,-0.5"/>
                </g>
                <g id="arrowRight" xlink:href="#dirArrow" transform="rotate(90) translate(36 -43)" onmousedown="handlePan(1,0)">
                  <use xlink:href="#rim" fill="#404040">
                        <set attributeName="fill" to="#808080" begin="arrowRight.mouseover" end="arrowRight.mouseout"/>
                  </use>
                  <path fill="none" stroke="white" stroke-width="1.5" d="M0,-3.0v7 M-2.5,-0.5L0,-3.0L2.5,-0.5"/>
                </g>
                <g id="arrowDown" xlink:href="#dirArrow" transform="rotate(180) translate(-30 -48)" onmousedown="handlePan(0,1)">
                  <use xlink:href="#rim" fill="#404040">
                        <set attributeName="fill" to="#808080" begin="arrowDown.mouseover" end="arrowDown.mouseout"/>
                  </use>
                  <path fill="none" stroke="white" stroke-width="1.5" d="M0,-3.0v7 M-2.5,-0.5L0,-3.0L2.5,-0.5"/>
                </g>
                <g id="arrowLeft" xlink:href="#dirArrow" transform="rotate(270) translate(-36 17)" onmousedown="handlePan(-1,0)">
                  <use xlink:href="#rim" fill="#404040">
                        <set attributeName="fill" to="#808080" begin="arrowLeft.mouseover" end="arrowLeft.mouseout"/>
                  </use>
                  <path fill="none" stroke="white" stroke-width="1.5" d="M0,-3.0v7 M-2.5,-0.5L0,-3.0L2.5,-0.5"/>
                </g>
        </g>
        <svg viewBox="0 0 15 15" width="100%" height="30px" preserveAspectRatio="xMaxYMin meet">
         <g id="arrow_out" transform="scale(0.3 0.3)">
          <a xlink:href="ParallelTests_8cpp_adc61044cf4f75a3fb5e32a9d19f7fd7f_cgraph_org.svg" target="_base">
           <rect id="button" ry="5" rx="5" y="6" x="6" height="38" width="38"
                fill="#f2f5e9" fill-opacity="0.5" stroke="#606060" stroke-width="1.0"/>
           <path id="arrow"
             d="M 11.500037,31.436501 C 11.940474,20.09759 22.043105,11.32322 32.158766,21.979434 L 37.068811,17.246167 C 37.068811,17.246167 37.088388,32 37.088388,32 L 22.160133,31.978069 C 22.160133,31.978069 26.997745,27.140456 26.997745,27.140456 C 18.528582,18.264221 13.291696,25.230495 11.500037,31.436501 z"
             style="fill:#404040;"/>
          </a>
         </g>
        </svg>
</svg>
