<?xml version="1.0" encoding="UTF-8" standalone="no"?>
<!DOCTYPE svg PUBLIC "-//W3C//DTD SVG 1.1//EN"
 "http://www.w3.org/Graphics/SVG/1.1/DTD/svg11.dtd">
<!-- Generated by graphviz version 2.40.1 (20161225.0304)
 -->
<!-- Title: src/partition/Partition.hpp Pages: 1 -->
<!--zoomable 363 -->
<svg id="main" version="1.1" xmlns="http://www.w3.org/2000/svg" xmlns:xlink="http://www.w3.org/1999/xlink" xml:space="preserve" onload="init(evt)">
<style type="text/css"><![CDATA[
.edge:hover path { stroke: red; }
.edge:hover polygon { stroke: red; fill: red; }
]]></style>
<script type="text/javascript"><![CDATA[
var edges = document.getElementsByTagName('g');
if (edges && edges.length) {
  for (var i=0;i<edges.length;i++) {
    if (edges[i].id.substr(0,4)=='edge') {
      edges[i].setAttribute('class','edge');
    }
  }
}
]]></script>
        <defs>
                <circle id="rim" cx="0" cy="0" r="7"/>
                <circle id="rim2" cx="0" cy="0" r="3.5"/>
                <g id="zoomPlus">
                        <use xlink:href="#rim" fill="#404040">
                                <set attributeName="fill" to="#808080" begin="zoomplus.mouseover" end="zoomplus.mouseout"/>
                        </use>
                        <path d="M-4,0h8M0,-4v8" fill="none" stroke="white" stroke-width="1.5" pointer-events="none"/>
                </g>
                <g id="zoomMin">
                        <use xlink:href="#rim" fill="#404040">
                                <set attributeName="fill" to="#808080" begin="zoomminus.mouseover" end="zoomminus.mouseout"/>
                        </use>
                        <path d="M-4,0h8" fill="none" stroke="white" stroke-width="1.5" pointer-events="none"/>
                </g>
                <g id="dirArrow">
                        <path fill="none" stroke="white" stroke-width="1.5" d="M0,-3.0v7 M-2.5,-0.5L0,-3.0L2.5,-0.5"/>
                </g>
               <g id="resetDef">
                       <use xlink:href="#rim2" fill="#404040">
                               <set attributeName="fill" to="#808080" begin="reset.mouseover" end="reset.mouseout"/>
                       </use>
               </g>
        </defs>

<script type="text/javascript">
var viewWidth = 2437;
var viewHeight = 363;
var sectionId = 'dynsection-1';
</script>
<script xlink:href="svgpan.js"/>
<svg id="graph" class="graph">
<g id="viewport">
<title>src/partition/Partition.hpp</title>
<polygon fill="#ffffff" stroke="transparent" points="-4,4 -4,-359 2432.5,-359 2432.5,4 -4,4"/>
<!-- Node19 -->
<g id="node1" class="node">
<title>Node19</title>
<polygon fill="#bfbfbf" stroke="#000000" points="382,-335.5 382,-354.5 522,-354.5 522,-335.5 382,-335.5"/>
<text text-anchor="middle" x="452" y="-342.5" font-family="Helvetica,sans-Serif" font-size="10.00" fill="#000000">src/partition/Partition.hpp</text>
</g>
<!-- Node20 -->
<g id="node2" class="node">
<title>Node20</title>
<g id="a_node2"><a xlink:href="Partition_8cpp.html" target="_top" xlink:title="src/partition/Partition.cpp">
<polygon fill="#ffffff" stroke="#000000" points="24.5,-279.5 24.5,-298.5 163.5,-298.5 163.5,-279.5 24.5,-279.5"/>
<text text-anchor="middle" x="94" y="-286.5" font-family="Helvetica,sans-Serif" font-size="10.00" fill="#000000">src/partition/Partition.cpp</text>
</a>
</g>
</g>
<!-- Node19&#45;&gt;Node20 -->
<g id="edge1" class="edge">
<title>Node19&#45;&gt;Node20</title>
<path fill="none" stroke="#191970" d="M380.9452,-333.8853C314.8704,-323.5496 217.475,-308.3145 154.8835,-298.5237"/>
<polygon fill="#191970" stroke="#191970" points="380.4436,-337.3493 390.8644,-335.4369 381.5255,-330.4334 380.4436,-337.3493"/>
</g>
<!-- Node21 -->
<g id="node3" class="node">
<title>Node21</title>
<g id="a_node3"><a xlink:href="ProvidedPartition_8cpp.html" target="_top" xlink:title="src/partition/ProvidedPartition.cpp">
<polygon fill="#ffffff" stroke="#000000" points="0,-218 0,-237 182,-237 182,-218 0,-218"/>
<text text-anchor="middle" x="91" y="-225" font-family="Helvetica,sans-Serif" font-size="10.00" fill="#000000">src/partition/ProvidedPartition.cpp</text>
</a>
</g>
</g>
<!-- Node19&#45;&gt;Node21 -->
<g id="edge2" class="edge">
<title>Node19&#45;&gt;Node21</title>
<path fill="none" stroke="#191970" d="M371.9482,-336.8281C324.1078,-330.2166 262.7675,-318.6616 211,-299 189.2359,-290.7339 132.6179,-254.6482 105.6692,-237.122"/>
<polygon fill="#191970" stroke="#191970" points="371.5678,-340.3083 381.9436,-338.165 372.4959,-333.3701 371.5678,-340.3083"/>
</g>
<!-- Node22 -->
<g id="node4" class="node">
<title>Node22</title>
<g id="a_node4"><a xlink:href="ProvidedPartition_8hpp.html" target="_top" xlink:title="src/partition/ProvidedPartition.hpp">
<polygon fill="#ffffff" stroke="#000000" points="220,-279.5 220,-298.5 402,-298.5 402,-279.5 220,-279.5"/>
<text text-anchor="middle" x="311" y="-286.5" font-family="Helvetica,sans-Serif" font-size="10.00" fill="#000000">src/partition/ProvidedPartition.hpp</text>
</a>
</g>
</g>
<!-- Node19&#45;&gt;Node22 -->
<g id="edge3" class="edge">
<title>Node19&#45;&gt;Node22</title>
<path fill="none" stroke="#191970" d="M418.3968,-331.6541C392.6841,-321.4419 357.8539,-307.6086 334.9225,-298.5011"/>
<polygon fill="#191970" stroke="#191970" points="417.1755,-334.9349 427.7612,-335.3733 419.7593,-328.4292 417.1755,-334.9349"/>
</g>
<!-- Node23 -->
<g id="node5" class="node">
<title>Node23</title>
<g id="a_node5"><a xlink:href="ProvidedPartitionTest_8cpp.html" target="_top" xlink:title="src/partition/tests\l/ProvidedPartitionTest.cpp">
<polygon fill="#ffffff" stroke="#000000" points="238.5,-212.5 238.5,-242.5 381.5,-242.5 381.5,-212.5 238.5,-212.5"/>
<text text-anchor="start" x="246.5" y="-230.5" font-family="Helvetica,sans-Serif" font-size="10.00" fill="#000000">src/partition/tests</text>
<text text-anchor="middle" x="310" y="-219.5" font-family="Helvetica,sans-Serif" font-size="10.00" fill="#000000">/ProvidedPartitionTest.cpp</text>
</a>
</g>
</g>
<!-- Node19&#45;&gt;Node23 -->
<g id="edge49" class="edge">
<title>Node19&#45;&gt;Node23</title>
<path fill="none" stroke="#191970" d="M443.6597,-325.954C436.6179,-311.6095 425.3858,-292.221 411,-279 393.8994,-263.284 371.1046,-251.1143 351.4982,-242.5607"/>
<polygon fill="#191970" stroke="#191970" points="440.6388,-327.7582 448.0318,-335.3473 446.9851,-324.8043 440.6388,-327.7582"/>
</g>
<!-- Node24 -->
<g id="node6" class="node">
<title>Node24</title>
<g id="a_node6"><a xlink:href="ReceivedPartitionTest_8cpp.html" target="_top" xlink:title="src/partition/tests\l/ReceivedPartitionTest.cpp">
<polygon fill="#ffffff" stroke="#000000" points="400,-212.5 400,-242.5 544,-242.5 544,-212.5 400,-212.5"/>
<text text-anchor="start" x="408" y="-230.5" font-family="Helvetica,sans-Serif" font-size="10.00" fill="#000000">src/partition/tests</text>
<text text-anchor="middle" x="472" y="-219.5" font-family="Helvetica,sans-Serif" font-size="10.00" fill="#000000">/ReceivedPartitionTest.cpp</text>
</a>
</g>
</g>
<!-- Node19&#45;&gt;Node24 -->
<g id="edge50" class="edge">
<title>Node19&#45;&gt;Node24</title>
<path fill="none" stroke="#191970" d="M455.3528,-325.3022C459.3134,-302.0339 465.8165,-263.8278 469.4103,-242.7143"/>
<polygon fill="#191970" stroke="#191970" points="451.8644,-324.9389 453.6367,-335.3845 458.7651,-326.1136 451.8644,-324.9389"/>
</g>
<!-- Node25 -->
<g id="node7" class="node">
<title>Node25</title>
<g id="a_node7"><a xlink:href="SolverInterfaceImpl_8cpp.html" target="_top" xlink:title="src/precice/impl/SolverInterface\lImpl.cpp">
<polygon fill="#ffffff" stroke="#000000" points="1567.5,-.5 1567.5,-30.5 1738.5,-30.5 1738.5,-.5 1567.5,-.5"/>
<text text-anchor="start" x="1575.5" y="-18.5" font-family="Helvetica,sans-Serif" font-size="10.00" fill="#000000">src/precice/impl/SolverInterface</text>
<text text-anchor="middle" x="1653" y="-7.5" font-family="Helvetica,sans-Serif" font-size="10.00" fill="#000000">Impl.cpp</text>
</a>
</g>
</g>
<!-- Node19&#45;&gt;Node25 -->
<g id="edge51" class="edge">
<title>Node19&#45;&gt;Node25</title>
<path fill="none" stroke="#191970" d="M483.351,-331.0013C518.9061,-312.7368 572,-277.1503 572,-227.5 572,-227.5 572,-227.5 572,-160.5 572,-109.1167 594.8184,-91.4719 640,-67 680.4523,-45.0897 1330.0375,-24.6291 1567.1935,-17.8547"/>
<polygon fill="#191970" stroke="#191970" points="481.7034,-327.9114 474.2898,-335.4804 484.8054,-334.1866 481.7034,-327.9114"/>
</g>
<!-- Node26 -->
<g id="node8" class="node">
<title>Node26</title>
<g id="a_node8"><a xlink:href="ReceivedPartition_8cpp.html" target="_top" xlink:title="src/partition/ReceivedPartition.cpp">
<polygon fill="#ffffff" stroke="#000000" points="2245.5,-218 2245.5,-237 2428.5,-237 2428.5,-218 2245.5,-218"/>
<text text-anchor="middle" x="2337" y="-225" font-family="Helvetica,sans-Serif" font-size="10.00" fill="#000000">src/partition/ReceivedPartition.cpp</text>
</a>
</g>
</g>
<!-- Node19&#45;&gt;Node26 -->
<g id="edge8" class="edge">
<title>Node19&#45;&gt;Node26</title>
<path fill="none" stroke="#191970" d="M532.2838,-343.3676C783.6569,-337.6207 1577.7388,-314.641 2231,-243 2245.975,-241.3577 2262.0856,-239.203 2277.114,-237.0244"/>
<polygon fill="#191970" stroke="#191970" points="532.0636,-339.8715 522.1453,-343.5967 532.2219,-346.8698 532.0636,-339.8715"/>
</g>
<!-- Node27 -->
<g id="node9" class="node">
<title>Node27</title>
<g id="a_node9"><a xlink:href="ReceivedPartition_8hpp.html" target="_top" xlink:title="src/partition/ReceivedPartition.hpp">
<polygon fill="#ffffff" stroke="#000000" points="1275,-279.5 1275,-298.5 1459,-298.5 1459,-279.5 1275,-279.5"/>
<text text-anchor="middle" x="1367" y="-286.5" font-family="Helvetica,sans-Serif" font-size="10.00" fill="#000000">src/partition/ReceivedPartition.hpp</text>
</a>
</g>
</g>
<!-- Node19&#45;&gt;Node27 -->
<g id="edge9" class="edge">
<title>Node19&#45;&gt;Node27</title>
<path fill="none" stroke="#191970" d="M532.3876,-340.0801C701.9619,-329.7018 1095.3994,-305.6225 1274.8282,-294.6411"/>
<polygon fill="#191970" stroke="#191970" points="532.0467,-336.5943 522.2792,-340.6988 532.4744,-343.5813 532.0467,-336.5943"/>
</g>
<!-- Node22&#45;&gt;Node21 -->
<g id="edge4" class="edge">
<title>Node22&#45;&gt;Node21</title>
<path fill="none" stroke="#191970" d="M266.9889,-276.6969C225.2141,-265.0189 163.2968,-247.7103 125.1336,-237.0419"/>
<polygon fill="#191970" stroke="#191970" points="266.0519,-280.0691 276.625,-279.3906 267.9365,-273.3275 266.0519,-280.0691"/>
</g>
<!-- Node22&#45;&gt;Node23 -->
<g id="edge5" class="edge">
<title>Node22&#45;&gt;Node23</title>
<path fill="none" stroke="#191970" d="M310.6808,-269.3693C310.5395,-260.681 310.376,-250.6241 310.2446,-242.5446"/>
<polygon fill="#191970" stroke="#191970" points="307.1815,-269.4489 310.8438,-279.3906 314.1806,-269.335 307.1815,-269.4489"/>
</g>
<!-- Node22&#45;&gt;Node24 -->
<g id="edge6" class="edge">
<title>Node22&#45;&gt;Node24</title>
<path fill="none" stroke="#191970" d="M345.8014,-275.7063C371.3414,-265.9503 406.0584,-252.6889 432.615,-242.5446"/>
<polygon fill="#191970" stroke="#191970" points="344.249,-272.5526 336.1563,-279.3906 346.7469,-279.0917 344.249,-272.5526"/>
</g>
<!-- Node22&#45;&gt;Node25 -->
<g id="edge7" class="edge">
<title>Node22&#45;&gt;Node25</title>
<path fill="none" stroke="#191970" d="M268.1825,-275.3392C253.0626,-268.2198 237.6755,-257.814 229,-243 222.0375,-231.1109 221.4744,-223.5409 229,-212 316.2818,-78.1496 402.4529,-103.5939 558,-67 655.0282,-44.1732 1326.5832,-24.2173 1567.3453,-17.7208"/>
<polygon fill="#191970" stroke="#191970" points="266.9313,-278.6112 277.4998,-279.3574 269.7033,-272.1834 266.9313,-278.6112"/>
</g>
<!-- Node27&#45;&gt;Node23 -->
<g id="edge11" class="edge">
<title>Node27&#45;&gt;Node23</title>
<path fill="none" stroke="#191970" d="M1264.6279,-286.019C1049.7152,-279.4586 557.6483,-262.7705 391,-243 388.0142,-242.6458 384.9733,-242.2454 381.9062,-241.8087"/>
<polygon fill="#191970" stroke="#191970" points="1264.5482,-289.5181 1274.65,-286.3237 1264.761,-282.5213 1264.5482,-289.5181"/>
</g>
<!-- Node27&#45;&gt;Node24 -->
<g id="edge12" class="edge">
<title>Node27&#45;&gt;Node24</title>
<path fill="none" stroke="#191970" d="M1264.4625,-284.9971C1116.5856,-278.7442 834.9506,-265.0393 596,-243 579.1492,-241.4458 561.0554,-239.3997 544.0403,-237.3058"/>
<polygon fill="#191970" stroke="#191970" points="1264.738,-288.5117 1274.8761,-285.4345 1265.0318,-281.5179 1264.738,-288.5117"/>
</g>
<!-- Node27&#45;&gt;Node25 -->
<g id="edge48" class="edge">
<title>Node27&#45;&gt;Node25</title>
<path fill="none" stroke="#191970" d="M1285.9377,-278.0448C1080.4895,-248.691 561.9742,-163.8921 654,-67 685.2265,-34.1223 1330.5529,-20.6109 1567.0807,-16.7506"/>
<polygon fill="#191970" stroke="#191970" points="1285.6778,-281.5429 1296.0706,-279.4838 1286.6621,-274.6124 1285.6778,-281.5429"/>
</g>
<!-- Node27&#45;&gt;Node26 -->
<g id="edge10" class="edge">
<title>Node27&#45;&gt;Node26</title>
<path fill="none" stroke="#191970" d="M1469.7178,-286.5874C1631.8224,-282.0922 1956.7575,-270.2928 2231,-243 2246.4534,-241.4621 2263.103,-239.2784 2278.5244,-237.0338"/>
<polygon fill="#191970" stroke="#191970" points="1469.1785,-283.1008 1459.278,-286.8731 1469.37,-290.0982 1469.1785,-283.1008"/>
</g>
<!-- Node28 -->
<g id="node10" class="node">
<title>Node28</title>
<g id="a_node10"><a xlink:href="ParticipantConfiguration_8hpp.html" target="_top" xlink:title="src/precice/config\l/ParticipantConfiguration.hpp">
<polygon fill="#ffffff" stroke="#000000" points="1955,-145.5 1955,-175.5 2113,-175.5 2113,-145.5 1955,-145.5"/>
<text text-anchor="start" x="1963" y="-163.5" font-family="Helvetica,sans-Serif" font-size="10.00" fill="#000000">src/precice/config</text>
<text text-anchor="middle" x="2034" y="-152.5" font-family="Helvetica,sans-Serif" font-size="10.00" fill="#000000">/ParticipantConfiguration.hpp</text>
</a>
</g>
</g>
<!-- Node27&#45;&gt;Node28 -->
<g id="edge13" class="edge">
<title>Node27&#45;&gt;Node28</title>
<path fill="none" stroke="#191970" d="M1469.4057,-285.1478C1558.6954,-280.1518 1691.2133,-268.7712 1804,-243 1875.7523,-226.605 1955.8911,-194.5387 2000.0912,-175.5736"/>
<polygon fill="#191970" stroke="#191970" points="1469.0739,-281.6605 1459.2783,-285.6974 1469.4533,-288.6502 1469.0739,-281.6605"/>
</g>
<!-- Node29 -->
<g id="node11" class="node">
<title>Node29</title>
<g id="a_node11"><a xlink:href="ParticipantConfiguration_8cpp.html" target="_top" xlink:title="src/precice/config\l/ParticipantConfiguration.cpp">
<polygon fill="#ffffff" stroke="#000000" points="2117.5,-73 2117.5,-103 2274.5,-103 2274.5,-73 2117.5,-73"/>
<text text-anchor="start" x="2125.5" y="-91" font-family="Helvetica,sans-Serif" font-size="10.00" fill="#000000">src/precice/config</text>
<text text-anchor="middle" x="2196" y="-80" font-family="Helvetica,sans-Serif" font-size="10.00" fill="#000000">/ParticipantConfiguration.cpp</text>
</a>
</g>
</g>
<!-- Node27&#45;&gt;Node29 -->
<g id="edge17" class="edge">
<title>Node27&#45;&gt;Node29</title>
<path fill="none" stroke="#191970" d="M1469.1297,-281.903C1676.9612,-266.4635 2133.603,-227.0715 2182,-176 2200.5152,-156.4616 2200.3289,-122.8294 2198.31,-103.2884"/>
<polygon fill="#191970" stroke="#191970" points="1468.8367,-278.415 1459.1217,-282.6422 1469.3524,-285.3959 1468.8367,-278.415"/>
</g>
<!-- Node31 -->
<g id="node13" class="node">
<title>Node31</title>
<g id="a_node13"><a xlink:href="MeshContext_8hpp.html" target="_top" xlink:title="src/precice/impl/MeshContext.hpp">
<polygon fill="#ffffff" stroke="#000000" points="1276,-218 1276,-237 1458,-237 1458,-218 1276,-218"/>
<text text-anchor="middle" x="1367" y="-225" font-family="Helvetica,sans-Serif" font-size="10.00" fill="#000000">src/precice/impl/MeshContext.hpp</text>
</a>
</g>
</g>
<!-- Node27&#45;&gt;Node31 -->
<g id="edge18" class="edge">
<title>Node27&#45;&gt;Node31</title>
<path fill="none" stroke="#191970" d="M1367,-269.2462C1367,-258.5519 1367,-245.814 1367,-237.2449"/>
<polygon fill="#191970" stroke="#191970" points="1363.5001,-269.3906 1367,-279.3906 1370.5001,-269.3907 1363.5001,-269.3906"/>
</g>
<!-- Node40 -->
<g id="node22" class="node">
<title>Node40</title>
<g id="a_node22"><a xlink:href="Participant_8hpp.html" target="_top" xlink:title="src/precice/impl/Participant.hpp">
<polygon fill="#ffffff" stroke="#000000" points="1625,-218 1625,-237 1795,-237 1795,-218 1625,-218"/>
<text text-anchor="middle" x="1710" y="-225" font-family="Helvetica,sans-Serif" font-size="10.00" fill="#000000">src/precice/impl/Participant.hpp</text>
</a>
</g>
</g>
<!-- Node27&#45;&gt;Node40 -->
<g id="edge32" class="edge">
<title>Node27&#45;&gt;Node40</title>
<path fill="none" stroke="#191970" d="M1430.3604,-277.6395C1495.5113,-265.9579 1595.8322,-247.9703 1656.94,-237.0137"/>
<polygon fill="#191970" stroke="#191970" points="1429.4427,-274.2481 1420.2174,-279.4581 1430.6782,-281.1382 1429.4427,-274.2481"/>
</g>
<!-- Node28&#45;&gt;Node25 -->
<g id="edge16" class="edge">
<title>Node28&#45;&gt;Node25</title>
<path fill="none" stroke="#191970" d="M2010.7468,-138.0154C1984.7514,-113.3516 1943.8369,-76.0543 1925,-67 1892.6747,-51.4622 1805.5889,-36.537 1738.5815,-26.7913"/>
<polygon fill="#191970" stroke="#191970" points="2008.6438,-140.8466 2018.2944,-145.2189 2013.4768,-135.7827 2008.6438,-140.8466"/>
</g>
<!-- Node28&#45;&gt;Node29 -->
<g id="edge14" class="edge">
<title>Node28&#45;&gt;Node29</title>
<path fill="none" stroke="#191970" d="M2076.7208,-141.3811C2103.5346,-129.3811 2137.6163,-114.1285 2162.4765,-103.0028"/>
<polygon fill="#191970" stroke="#191970" points="2075.2644,-138.1983 2067.5665,-145.478 2078.1239,-144.5877 2075.2644,-138.1983"/>
</g>
<!-- Node30 -->
<g id="node12" class="node">
<title>Node30</title>
<g id="a_node12"><a xlink:href="SolverInterfaceConfiguration_8cpp.html" target="_top" xlink:title="src/precice/config\l/SolverInterfaceConfiguration.cpp">
<polygon fill="#ffffff" stroke="#000000" points="1719.5,-73 1719.5,-103 1898.5,-103 1898.5,-73 1719.5,-73"/>
<text text-anchor="start" x="1727.5" y="-91" font-family="Helvetica,sans-Serif" font-size="10.00" fill="#000000">src/precice/config</text>
<text text-anchor="middle" x="1809" y="-80" font-family="Helvetica,sans-Serif" font-size="10.00" fill="#000000">/SolverInterfaceConfiguration.cpp</text>
</a>
</g>
</g>
<!-- Node28&#45;&gt;Node30 -->
<g id="edge15" class="edge">
<title>Node28&#45;&gt;Node30</title>
<path fill="none" stroke="#191970" d="M1977.5717,-142.3175C1939.9134,-130.1832 1890.9932,-114.42 1855.5604,-103.0028"/>
<polygon fill="#191970" stroke="#191970" points="1976.7883,-145.7423 1987.3799,-145.478 1978.9352,-139.0796 1976.7883,-145.7423"/>
</g>
<!-- Node31&#45;&gt;Node25 -->
<g id="edge30" class="edge">
<title>Node31&#45;&gt;Node25</title>
<path fill="none" stroke="#191970" d="M1348.8473,-210.3637C1332.0058,-192.4153 1311.9198,-164.2148 1329,-145 1419.6845,-42.9822 1533.5616,-201.4307 1634,-109 1655.6957,-89.034 1656.4066,-51.6298 1654.8256,-30.6901"/>
<polygon fill="#191970" stroke="#191970" points="1346.6944,-213.1646 1356.2118,-217.8197 1351.6747,-208.2455 1346.6944,-213.1646"/>
</g>
<!-- Node31&#45;&gt;Node29 -->
<g id="edge27" class="edge">
<title>Node31&#45;&gt;Node29</title>
<path fill="none" stroke="#191970" d="M1468.2871,-221.099C1672.4689,-208.128 2114.7956,-179.6583 2122,-176 2138.2855,-167.7305 2169.1019,-126.3157 2185.3527,-103.3687"/>
<polygon fill="#191970" stroke="#191970" points="1467.9112,-217.6158 1458.1531,-221.7425 1468.3548,-224.6017 1467.9112,-217.6158"/>
</g>
<!-- Node31&#45;&gt;Node30 -->
<g id="edge28" class="edge">
<title>Node31&#45;&gt;Node30</title>
<path fill="none" stroke="#191970" d="M1352.2668,-209.7963C1338.9272,-191.5377 1323.6661,-163.2308 1340,-145 1388.7832,-90.5514 1594.4946,-118.3492 1667,-109 1683.9307,-106.8169 1701.9677,-104.2985 1719.3068,-101.7806"/>
<polygon fill="#191970" stroke="#191970" points="1349.6243,-212.1004 1358.5141,-217.8643 1355.159,-207.8147 1349.6243,-212.1004"/>
</g>
<!-- Node32 -->
<g id="node14" class="node">
<title>Node32</title>
<g id="a_node14"><a xlink:href="CouplingSchemeConfiguration_8hpp.html" target="_top" xlink:title="src/cplscheme/config\l/CouplingSchemeConfiguration.hpp">
<polygon fill="#ffffff" stroke="#000000" points="1061,-145.5 1061,-175.5 1249,-175.5 1249,-145.5 1061,-145.5"/>
<text text-anchor="start" x="1069" y="-163.5" font-family="Helvetica,sans-Serif" font-size="10.00" fill="#000000">src/cplscheme/config</text>
<text text-anchor="middle" x="1155" y="-152.5" font-family="Helvetica,sans-Serif" font-size="10.00" fill="#000000">/CouplingSchemeConfiguration.hpp</text>
</a>
</g>
</g>
<!-- Node31&#45;&gt;Node32 -->
<g id="edge19" class="edge">
<title>Node31&#45;&gt;Node32</title>
<path fill="none" stroke="#191970" d="M1326.6548,-214.7494C1291.3005,-203.5761 1239.8723,-187.3229 1202.5316,-175.5218"/>
<polygon fill="#191970" stroke="#191970" points="1326.0357,-218.2243 1336.6256,-217.9005 1328.1452,-211.5497 1326.0357,-218.2243"/>
</g>
<!-- Node38 -->
<g id="node20" class="node">
<title>Node38</title>
<g id="a_node20"><a xlink:href="Participant_8cpp.html" target="_top" xlink:title="src/precice/impl/Participant.cpp">
<polygon fill="#ffffff" stroke="#000000" points="1494.5,-151 1494.5,-170 1663.5,-170 1663.5,-151 1494.5,-151"/>
<text text-anchor="middle" x="1579" y="-158" font-family="Helvetica,sans-Serif" font-size="10.00" fill="#000000">src/precice/impl/Participant.cpp</text>
</a>
</g>
</g>
<!-- Node31&#45;&gt;Node38 -->
<g id="edge29" class="edge">
<title>Node31&#45;&gt;Node38</title>
<path fill="none" stroke="#191970" d="M1407.0867,-214.8311C1448.2747,-201.8141 1511.4768,-181.8399 1548.6819,-170.0817"/>
<polygon fill="#191970" stroke="#191970" points="1405.8548,-211.5497 1397.3744,-217.9005 1407.9643,-218.2243 1405.8548,-211.5497"/>
</g>
<!-- Node39 -->
<g id="node21" class="node">
<title>Node39</title>
<g id="a_node21"><a xlink:href="SerialTests_8cpp.html" target="_top" xlink:title="src/precice/tests/Serial\lTests.cpp">
<polygon fill="#ffffff" stroke="#000000" points="1349.5,-145.5 1349.5,-175.5 1476.5,-175.5 1476.5,-145.5 1349.5,-145.5"/>
<text text-anchor="start" x="1357.5" y="-163.5" font-family="Helvetica,sans-Serif" font-size="10.00" fill="#000000">src/precice/tests/Serial</text>
<text text-anchor="middle" x="1413" y="-152.5" font-family="Helvetica,sans-Serif" font-size="10.00" fill="#000000">Tests.cpp</text>
</a>
</g>
</g>
<!-- Node31&#45;&gt;Node39 -->
<g id="edge31" class="edge">
<title>Node31&#45;&gt;Node39</title>
<path fill="none" stroke="#191970" d="M1379.425,-209.4026C1386.7089,-198.7936 1395.8014,-185.5502 1402.6866,-175.5218"/>
<polygon fill="#191970" stroke="#191970" points="1376.3654,-207.6755 1373.5907,-217.9005 1382.1362,-211.6375 1376.3654,-207.6755"/>
</g>
<!-- Node32&#45;&gt;Node25 -->
<g id="edge26" class="edge">
<title>Node32&#45;&gt;Node25</title>
<path fill="none" stroke="#191970" d="M1050.7866,-156.7892C915.0996,-150.8663 692.1765,-136.9732 667,-109 654.5125,-95.1253 654.1495,-80.5392 667,-67 697.7734,-34.5774 1333.2214,-20.7972 1567.3578,-16.8072"/>
<polygon fill="#191970" stroke="#191970" points="1050.6641,-160.287 1060.8049,-157.219 1050.9642,-153.2935 1050.6641,-160.287"/>
</g>
<!-- Node32&#45;&gt;Node30 -->
<g id="edge25" class="edge">
<title>Node32&#45;&gt;Node30</title>
<path fill="none" stroke="#191970" d="M1259.2152,-149.6692C1356.2737,-139.4934 1504.9779,-123.6767 1634,-109 1661.6675,-105.8527 1691.7778,-102.2895 1719.0982,-99.0036"/>
<polygon fill="#191970" stroke="#191970" points="1258.6888,-146.2051 1249.1079,-150.728 1259.4182,-153.167 1258.6888,-146.2051"/>
</g>
<!-- Node33 -->
<g id="node15" class="node">
<title>Node33</title>
<g id="a_node15"><a xlink:href="CouplingSchemeConfiguration_8cpp.html" target="_top" xlink:title="src/cplscheme/config\l/CouplingSchemeConfiguration.cpp">
<polygon fill="#ffffff" stroke="#000000" points="1438.5,-73 1438.5,-103 1625.5,-103 1625.5,-73 1438.5,-73"/>
<text text-anchor="start" x="1446.5" y="-91" font-family="Helvetica,sans-Serif" font-size="10.00" fill="#000000">src/cplscheme/config</text>
<text text-anchor="middle" x="1532" y="-80" font-family="Helvetica,sans-Serif" font-size="10.00" fill="#000000">/CouplingSchemeConfiguration.cpp</text>
</a>
</g>
</g>
<!-- Node32&#45;&gt;Node33 -->
<g id="edge20" class="edge">
<title>Node32&#45;&gt;Node33</title>
<path fill="none" stroke="#191970" d="M1246.9873,-143.5743C1300.2028,-133.6917 1368.4236,-120.8674 1429,-109 1438.6711,-107.1054 1448.8451,-105.0756 1458.8796,-103.0521"/>
<polygon fill="#191970" stroke="#191970" points="1246.085,-140.1819 1236.8913,-145.4474 1247.362,-147.0645 1246.085,-140.1819"/>
</g>
<!-- Node34 -->
<g id="node16" class="node">
<title>Node34</title>
<g id="a_node16"><a xlink:href="CompositionalCouplingSchemeTest_8cpp.html" target="_top" xlink:title="src/cplscheme/tests\l/CompositionalCouplingScheme\lTest.cpp">
<polygon fill="#ffffff" stroke="#000000" points="676,-67.5 676,-108.5 848,-108.5 848,-67.5 676,-67.5"/>
<text text-anchor="start" x="684" y="-96.5" font-family="Helvetica,sans-Serif" font-size="10.00" fill="#000000">src/cplscheme/tests</text>
<text text-anchor="start" x="684" y="-85.5" font-family="Helvetica,sans-Serif" font-size="10.00" fill="#000000">/CompositionalCouplingScheme</text>
<text text-anchor="middle" x="762" y="-74.5" font-family="Helvetica,sans-Serif" font-size="10.00" fill="#000000">Test.cpp</text>
</a>
</g>
</g>
<!-- Node32&#45;&gt;Node34 -->
<g id="edge21" class="edge">
<title>Node32&#45;&gt;Node34</title>
<path fill="none" stroke="#191970" d="M1051.3413,-143.8003C993.9456,-134.2489 921.3908,-121.6738 857,-109 854.0997,-108.4291 851.152,-107.8382 848.1769,-107.2326"/>
<polygon fill="#191970" stroke="#191970" points="1051.0726,-147.3035 1061.5107,-145.4874 1052.2183,-140.3978 1051.0726,-147.3035"/>
</g>
<!-- Node35 -->
<g id="node17" class="node">
<title>Node35</title>
<g id="a_node17"><a xlink:href="ExplicitCouplingSchemeTest_8cpp.html" target="_top" xlink:title="src/cplscheme/tests\l/ExplicitCouplingSchemeTest.cpp">
<polygon fill="#ffffff" stroke="#000000" points="866.5,-73 866.5,-103 1043.5,-103 1043.5,-73 866.5,-73"/>
<text text-anchor="start" x="874.5" y="-91" font-family="Helvetica,sans-Serif" font-size="10.00" fill="#000000">src/cplscheme/tests</text>
<text text-anchor="middle" x="955" y="-80" font-family="Helvetica,sans-Serif" font-size="10.00" fill="#000000">/ExplicitCouplingSchemeTest.cpp</text>
</a>
</g>
</g>
<!-- Node32&#45;&gt;Node35 -->
<g id="edge22" class="edge">
<title>Node32&#45;&gt;Node35</title>
<path fill="none" stroke="#191970" d="M1103.9847,-142.0069C1070.6282,-129.9152 1027.6148,-114.3228 996.387,-103.0028"/>
<polygon fill="#191970" stroke="#191970" points="1102.9657,-145.3604 1113.5599,-145.478 1105.3513,-138.7794 1102.9657,-145.3604"/>
</g>
<!-- Node36 -->
<g id="node18" class="node">
<title>Node36</title>
<g id="a_node18"><a xlink:href="ParallelImplicitCouplingSchemeTest_8cpp.html" target="_top" xlink:title="src/cplscheme/tests\l/ParallelImplicitCouplingScheme\lTest.cpp">
<polygon fill="#ffffff" stroke="#000000" points="1062,-67.5 1062,-108.5 1236,-108.5 1236,-67.5 1062,-67.5"/>
<text text-anchor="start" x="1070" y="-96.5" font-family="Helvetica,sans-Serif" font-size="10.00" fill="#000000">src/cplscheme/tests</text>
<text text-anchor="start" x="1070" y="-85.5" font-family="Helvetica,sans-Serif" font-size="10.00" fill="#000000">/ParallelImplicitCouplingScheme</text>
<text text-anchor="middle" x="1149" y="-74.5" font-family="Helvetica,sans-Serif" font-size="10.00" fill="#000000">Test.cpp</text>
</a>
</g>
</g>
<!-- Node32&#45;&gt;Node36 -->
<g id="edge23" class="edge">
<title>Node32&#45;&gt;Node36</title>
<path fill="none" stroke="#191970" d="M1152.9229,-135.4016C1152.1959,-126.6173 1151.3888,-116.8652 1150.6967,-108.5015"/>
<polygon fill="#191970" stroke="#191970" points="1149.4439,-135.8007 1153.7568,-145.478 1156.42,-135.2233 1149.4439,-135.8007"/>
</g>
<!-- Node37 -->
<g id="node19" class="node">
<title>Node37</title>
<g id="a_node19"><a xlink:href="SerialImplicitCouplingSchemeTest_8cpp.html" target="_top" xlink:title="src/cplscheme/tests\l/SerialImplicitCouplingScheme\lTest.cpp">
<polygon fill="#ffffff" stroke="#000000" points="1254,-67.5 1254,-108.5 1420,-108.5 1420,-67.5 1254,-67.5"/>
<text text-anchor="start" x="1262" y="-96.5" font-family="Helvetica,sans-Serif" font-size="10.00" fill="#000000">src/cplscheme/tests</text>
<text text-anchor="start" x="1262" y="-85.5" font-family="Helvetica,sans-Serif" font-size="10.00" fill="#000000">/SerialImplicitCouplingScheme</text>
<text text-anchor="middle" x="1337" y="-74.5" font-family="Helvetica,sans-Serif" font-size="10.00" fill="#000000">Test.cpp</text>
</a>
</g>
</g>
<!-- Node32&#45;&gt;Node37 -->
<g id="edge24" class="edge">
<title>Node32&#45;&gt;Node37</title>
<path fill="none" stroke="#191970" d="M1202.184,-141.7042C1227.738,-131.5247 1259.347,-118.9332 1285.5341,-108.5015"/>
<polygon fill="#191970" stroke="#191970" points="1200.7053,-138.5257 1192.7105,-145.478 1203.2958,-145.0287 1200.7053,-138.5257"/>
</g>
<!-- Node40&#45;&gt;Node25 -->
<g id="edge46" class="edge">
<title>Node40&#45;&gt;Node25</title>
<path fill="none" stroke="#191970" d="M1704.8042,-208.0145C1696.7436,-177.8058 1680.7232,-117.8496 1667,-67 1663.7167,-54.8342 1659.9708,-41.0599 1657.1803,-30.8197"/>
<polygon fill="#191970" stroke="#191970" points="1701.4356,-208.966 1707.3948,-217.7261 1708.1991,-207.1618 1701.4356,-208.966"/>
</g>
<!-- Node40&#45;&gt;Node28 -->
<g id="edge33" class="edge">
<title>Node40&#45;&gt;Node28</title>
<path fill="none" stroke="#191970" d="M1766.1632,-215.886C1820.1994,-204.7118 1902.1724,-187.7606 1961.195,-175.5553"/>
<polygon fill="#191970" stroke="#191970" points="1765.1612,-212.5191 1756.0772,-217.9717 1766.5788,-219.374 1765.1612,-212.5191"/>
</g>
<!-- Node40&#45;&gt;Node29 -->
<g id="edge34" class="edge">
<title>Node40&#45;&gt;Node29</title>
<path fill="none" stroke="#191970" d="M1805.2278,-221.4109C1927.4844,-212.8421 2127.2601,-196.0141 2155,-176 2179.0564,-158.6435 2189.4142,-123.5584 2193.5385,-103.3252"/>
<polygon fill="#191970" stroke="#191970" points="1804.8398,-217.9294 1795.1064,-222.1139 1805.3249,-224.9125 1804.8398,-217.9294"/>
</g>
<!-- Node40&#45;&gt;Node30 -->
<g id="edge44" class="edge">
<title>Node40&#45;&gt;Node30</title>
<path fill="none" stroke="#191970" d="M1716.4124,-208.3136C1722.7976,-190.832 1733.7027,-164.7973 1748,-145 1759.6257,-128.902 1776.2782,-113.7096 1789.2477,-103.0638"/>
<polygon fill="#191970" stroke="#191970" points="1713.0359,-207.3659 1713.031,-217.9608 1719.6418,-209.6815 1713.0359,-207.3659"/>
</g>
<!-- Node40&#45;&gt;Node38 -->
<g id="edge45" class="edge">
<title>Node40&#45;&gt;Node38</title>
<path fill="none" stroke="#191970" d="M1682.0985,-213.2298C1656.6668,-200.2227 1619.8008,-181.3676 1597.7343,-170.0817"/>
<polygon fill="#191970" stroke="#191970" points="1680.734,-216.4631 1691.2309,-217.9005 1683.9215,-210.2309 1680.734,-216.4631"/>
</g>
<!-- Node40&#45;&gt;Node39 -->
<g id="edge47" class="edge">
<title>Node40&#45;&gt;Node39</title>
<path fill="none" stroke="#191970" d="M1657.7137,-215.7048C1607.2213,-204.3142 1530.6701,-187.0451 1476.6559,-174.8601"/>
<polygon fill="#191970" stroke="#191970" points="1657.2375,-219.1852 1667.7626,-217.9717 1658.7779,-212.3568 1657.2375,-219.1852"/>
</g>
<!-- Node41 -->
<g id="node23" class="node">
<title>Node41</title>
<g id="a_node23"><a xlink:href="SolverInterfaceConfiguration_8hpp.html" target="_top" xlink:title="src/precice/config\l/SolverInterfaceConfiguration.hpp">
<polygon fill="#ffffff" stroke="#000000" points="1757,-145.5 1757,-175.5 1937,-175.5 1937,-145.5 1757,-145.5"/>
<text text-anchor="start" x="1765" y="-163.5" font-family="Helvetica,sans-Serif" font-size="10.00" fill="#000000">src/precice/config</text>
<text text-anchor="middle" x="1847" y="-152.5" font-family="Helvetica,sans-Serif" font-size="10.00" fill="#000000">/SolverInterfaceConfiguration.hpp</text>
</a>
</g>
</g>
<!-- Node40&#45;&gt;Node41 -->
<g id="edge35" class="edge">
<title>Node40&#45;&gt;Node41</title>
<path fill="none" stroke="#191970" d="M1738.765,-213.4324C1761.4729,-202.3271 1793.0853,-186.867 1816.2839,-175.5218"/>
<polygon fill="#191970" stroke="#191970" points="1737.0744,-210.3631 1729.6288,-217.9005 1740.1497,-216.6513 1737.0744,-210.3631"/>
</g>
<!-- Node41&#45;&gt;Node25 -->
<g id="edge43" class="edge">
<title>Node41&#45;&gt;Node25</title>
<path fill="none" stroke="#191970" d="M1881.4832,-139.3952C1891.6299,-131.2673 1901.4821,-121.0079 1907,-109 1914.7942,-92.0384 1918.8153,-81.4514 1907,-67 1896.142,-53.7196 1808.0853,-37.9861 1738.658,-27.4349"/>
<polygon fill="#191970" stroke="#191970" points="1879.2866,-136.6672 1873.3599,-145.4493 1883.4696,-142.2799 1879.2866,-136.6672"/>
</g>
<!-- Node41&#45;&gt;Node30 -->
<g id="edge42" class="edge">
<title>Node41&#45;&gt;Node30</title>
<path fill="none" stroke="#191970" d="M1834.3406,-136.3473C1828.5646,-125.3272 1821.9055,-112.6224 1816.8635,-103.0028"/>
<polygon fill="#191970" stroke="#191970" points="1831.384,-138.2457 1839.1264,-145.478 1837.584,-134.996 1831.384,-138.2457"/>
</g>
<!-- Node42 -->
<g id="node24" class="node">
<title>Node42</title>
<g id="a_node24"><a xlink:href="Configuration_8hpp.html" target="_top" xlink:title="src/precice/config\l/Configuration.hpp">
<polygon fill="#ffffff" stroke="#000000" points="1993,-73 1993,-103 2099,-103 2099,-73 1993,-73"/>
<text text-anchor="start" x="2001" y="-91" font-family="Helvetica,sans-Serif" font-size="10.00" fill="#000000">src/precice/config</text>
<text text-anchor="middle" x="2046" y="-80" font-family="Helvetica,sans-Serif" font-size="10.00" fill="#000000">/Configuration.hpp</text>
</a>
</g>
</g>
<!-- Node41&#45;&gt;Node42 -->
<g id="edge36" class="edge">
<title>Node41&#45;&gt;Node42</title>
<path fill="none" stroke="#191970" d="M1897.7602,-142.0069C1930.95,-129.9152 1973.7483,-114.3228 2004.8199,-103.0028"/>
<polygon fill="#191970" stroke="#191970" points="1896.4307,-138.7662 1888.2329,-145.478 1898.8269,-145.3433 1896.4307,-138.7662"/>
</g>
<!-- Node42&#45;&gt;Node25 -->
<g id="edge39" class="edge">
<title>Node42&#45;&gt;Node25</title>
<path fill="none" stroke="#191970" d="M1991.4498,-70.1778C1987.2566,-69.0302 1983.0723,-67.9544 1979,-67 1898.3871,-48.1074 1804.9126,-34.1345 1738.7799,-25.5467"/>
<polygon fill="#191970" stroke="#191970" points="1990.6245,-73.5819 2001.2012,-72.9622 1992.5465,-66.851 1990.6245,-73.5819"/>
</g>
<!-- Node43 -->
<g id="node25" class="node">
<title>Node43</title>
<g id="a_node25"><a xlink:href="drivers_2main_8cpp.html" target="_top" xlink:title="src/drivers/main.cpp">
<polygon fill="#ffffff" stroke="#000000" points="1808,-6 1808,-25 1924,-25 1924,-6 1808,-6"/>
<text text-anchor="middle" x="1866" y="-13" font-family="Helvetica,sans-Serif" font-size="10.00" fill="#000000">src/drivers/main.cpp</text>
</a>
</g>
</g>
<!-- Node42&#45;&gt;Node43 -->
<g id="edge37" class="edge">
<title>Node42&#45;&gt;Node43</title>
<path fill="none" stroke="#191970" d="M1999.1376,-69.1249C1964.0549,-54.9943 1917.5178,-36.2502 1889.7764,-25.0766"/>
<polygon fill="#191970" stroke="#191970" points="1998.1204,-72.4883 2008.7039,-72.978 2000.7357,-65.9952 1998.1204,-72.4883"/>
</g>
<!-- Node44 -->
<g id="node26" class="node">
<title>Node44</title>
<g id="a_node26"><a xlink:href="Configuration_8cpp.html" target="_top" xlink:title="src/precice/config\l/Configuration.cpp">
<polygon fill="#ffffff" stroke="#000000" points="1942.5,-.5 1942.5,-30.5 2047.5,-30.5 2047.5,-.5 1942.5,-.5"/>
<text text-anchor="start" x="1950.5" y="-18.5" font-family="Helvetica,sans-Serif" font-size="10.00" fill="#000000">src/precice/config</text>
<text text-anchor="middle" x="1995" y="-7.5" font-family="Helvetica,sans-Serif" font-size="10.00" fill="#000000">/Configuration.cpp</text>
</a>
</g>
</g>
<!-- Node42&#45;&gt;Node44 -->
<g id="edge38" class="edge">
<title>Node42&#45;&gt;Node44</title>
<path fill="none" stroke="#191970" d="M2029.4781,-64.513C2021.6197,-53.3418 2012.4573,-40.3167 2005.5537,-30.5028"/>
<polygon fill="#191970" stroke="#191970" points="2026.8165,-66.8126 2035.4328,-72.978 2032.5419,-62.7851 2026.8165,-66.8126"/>
</g>
<!-- Node45 -->
<g id="node27" class="node">
<title>Node45</title>
<g id="a_node27"><a xlink:href="ParallelTests_8cpp.html" target="_top" xlink:title="src/precice/tests/Parallel\lTests.cpp">
<polygon fill="#ffffff" stroke="#000000" points="2065.5,-.5 2065.5,-30.5 2200.5,-30.5 2200.5,-.5 2065.5,-.5"/>
<text text-anchor="start" x="2073.5" y="-18.5" font-family="Helvetica,sans-Serif" font-size="10.00" fill="#000000">src/precice/tests/Parallel</text>
<text text-anchor="middle" x="2133" y="-7.5" font-family="Helvetica,sans-Serif" font-size="10.00" fill="#000000">Tests.cpp</text>
</a>
</g>
</g>
<!-- Node42&#45;&gt;Node45 -->
<g id="edge40" class="edge">
<title>Node42&#45;&gt;Node45</title>
<path fill="none" stroke="#191970" d="M2071.8201,-66.4833C2085.7192,-54.9007 2102.5203,-40.8998 2114.9966,-30.5028"/>
<polygon fill="#191970" stroke="#191970" points="2069.468,-63.8873 2064.0265,-72.978 2073.9493,-69.2649 2069.468,-63.8873"/>
</g>
<!-- Node46 -->
<g id="node28" class="node">
<title>Node46</title>
<g id="a_node28"><a xlink:href="PrinterTest_8cpp.html" target="_top" xlink:title="src/xml/tests/PrinterTest.cpp">
<polygon fill="#ffffff" stroke="#000000" points="2218.5,-6 2218.5,-25 2373.5,-25 2373.5,-6 2218.5,-6"/>
<text text-anchor="middle" x="2296" y="-13" font-family="Helvetica,sans-Serif" font-size="10.00" fill="#000000">src/xml/tests/PrinterTest.cpp</text>
</a>
</g>
</g>
<!-- Node42&#45;&gt;Node46 -->
<g id="edge41" class="edge">
<title>Node42&#45;&gt;Node46</title>
<path fill="none" stroke="#191970" d="M2098.9909,-69.8205C2102.0332,-68.8488 2105.0523,-67.9021 2108,-67 2159.9377,-51.1055 2220.6476,-34.8981 2258.715,-25.0178"/>
<polygon fill="#191970" stroke="#191970" points="2097.6829,-66.5653 2089.2546,-72.9851 2099.8468,-73.2225 2097.6829,-66.5653"/>
</g>
</g>
</svg>
        <g id="navigator" transform="translate(0 0)" fill="#404254">
                <rect fill="#f2f5e9" fill-opacity="0.5" stroke="#606060" stroke-width=".5" x="0" y="0" width="60" height="60"/>
                <use id="zoomplus" xlink:href="#zoomPlus" x="17" y="9" onmousedown="handleZoom(evt,'in')"/>
                <use id="zoomminus" xlink:href="#zoomMin" x="42" y="9" onmousedown="handleZoom(evt,'out')"/>
                <use id="reset" xlink:href="#resetDef" x="30" y="36" onmousedown="handleReset()"/>
                <g id="arrowUp" xlink:href="#dirArrow" transform="translate(30 24)" onmousedown="handlePan(0,-1)">
                  <use xlink:href="#rim" fill="#404040">
                        <set attributeName="fill" to="#808080" begin="arrowUp.mouseover" end="arrowUp.mouseout"/>
                  </use>
                  <path fill="none" stroke="white" stroke-width="1.5" d="M0,-3.0v7 M-2.5,-0.5L0,-3.0L2.5,-0.5"/>
                </g>
                <g id="arrowRight" xlink:href="#dirArrow" transform="rotate(90) translate(36 -43)" onmousedown="handlePan(1,0)">
                  <use xlink:href="#rim" fill="#404040">
                        <set attributeName="fill" to="#808080" begin="arrowRight.mouseover" end="arrowRight.mouseout"/>
                  </use>
                  <path fill="none" stroke="white" stroke-width="1.5" d="M0,-3.0v7 M-2.5,-0.5L0,-3.0L2.5,-0.5"/>
                </g>
                <g id="arrowDown" xlink:href="#dirArrow" transform="rotate(180) translate(-30 -48)" onmousedown="handlePan(0,1)">
                  <use xlink:href="#rim" fill="#404040">
                        <set attributeName="fill" to="#808080" begin="arrowDown.mouseover" end="arrowDown.mouseout"/>
                  </use>
                  <path fill="none" stroke="white" stroke-width="1.5" d="M0,-3.0v7 M-2.5,-0.5L0,-3.0L2.5,-0.5"/>
                </g>
                <g id="arrowLeft" xlink:href="#dirArrow" transform="rotate(270) translate(-36 17)" onmousedown="handlePan(-1,0)">
                  <use xlink:href="#rim" fill="#404040">
                        <set attributeName="fill" to="#808080" begin="arrowLeft.mouseover" end="arrowLeft.mouseout"/>
                  </use>
                  <path fill="none" stroke="white" stroke-width="1.5" d="M0,-3.0v7 M-2.5,-0.5L0,-3.0L2.5,-0.5"/>
                </g>
        </g>
        <svg viewBox="0 0 15 15" width="100%" height="30px" preserveAspectRatio="xMaxYMin meet">
         <g id="arrow_out" transform="scale(0.3 0.3)">
          <a xlink:href="Partition_8hpp__dep__incl_org.svg" target="_base">
           <rect id="button" ry="5" rx="5" y="6" x="6" height="38" width="38"
                fill="#f2f5e9" fill-opacity="0.5" stroke="#606060" stroke-width="1.0"/>
           <path id="arrow"
             d="M 11.500037,31.436501 C 11.940474,20.09759 22.043105,11.32322 32.158766,21.979434 L 37.068811,17.246167 C 37.068811,17.246167 37.088388,32 37.088388,32 L 22.160133,31.978069 C 22.160133,31.978069 26.997745,27.140456 26.997745,27.140456 C 18.528582,18.264221 13.291696,25.230495 11.500037,31.436501 z"
             style="fill:#404040;"/>
          </a>
         </g>
        </svg>
</svg>
