<?xml version="1.0" encoding="UTF-8" standalone="no"?>
<!DOCTYPE svg PUBLIC "-//W3C//DTD SVG 1.1//EN"
 "http://www.w3.org/Graphics/SVG/1.1/DTD/svg11.dtd">
<!-- Generated by graphviz version 2.40.1 (20161225.0304)
 -->
<!-- Title: BOOST_AUTO_TEST_CASE Pages: 1 -->
<svg width="536pt" height="303pt"
 viewBox="0.00 0.00 536.00 302.50" xmlns="http://www.w3.org/2000/svg" xmlns:xlink="http://www.w3.org/1999/xlink">
<g id="graph0" class="graph" transform="scale(1 1) rotate(0) translate(4 298.5)">
<title>BOOST_AUTO_TEST_CASE</title>
<polygon fill="#ffffff" stroke="transparent" points="-4,4 -4,-298.5 532,-298.5 532,4 -4,4"/>
<!-- Node530 -->
<g id="node1" class="node">
<title>Node530</title>
<polygon fill="#bfbfbf" stroke="#000000" points="0,-137.5 0,-156.5 148,-156.5 148,-137.5 0,-137.5"/>
<text text-anchor="middle" x="74" y="-144.5" font-family="Helvetica,sans-Serif" font-size="10.00" fill="#000000">BOOST_AUTO_TEST_CASE</text>
</g>
<!-- Node531 -->
<g id="node2" class="node">
<title>Node531</title>
<g id="a_node2"><a xlink:href="namespaceprecice_1_1testing.html#a08533fd83bad3d7f27ea7f4a35a14aa4" target="_top" xlink:title="precice::testing::nextMeshID">
<polygon fill="#ffffff" stroke="#000000" points="191.5,-266.5 191.5,-285.5 334.5,-285.5 334.5,-266.5 191.5,-266.5"/>
<text text-anchor="middle" x="263" y="-273.5" font-family="Helvetica,sans-Serif" font-size="10.00" fill="#000000">precice::testing::nextMeshID</text>
</a>
</g>
</g>
<!-- Node530&#45;&gt;Node531 -->
<g id="edge1" class="edge">
<title>Node530&#45;&gt;Node531</title>
<path fill="none" stroke="#191970" d="M81.095,-156.6228C97.0611,-177.5804 138.0325,-227.5838 184,-254 190.28,-257.609 197.184,-260.6524 204.2159,-263.2124"/>
<polygon fill="#191970" stroke="#191970" points="203.244,-266.5777 213.8376,-266.4117 205.4527,-259.9352 203.244,-266.5777"/>
</g>
<!-- Node533 -->
<g id="node4" class="node">
<title>Node533</title>
<g id="a_node4"><a xlink:href="PetRadialBasisFctMappingTest_8cpp.html#a091feb1893c75899e59fa939e678debe" target="_top" xlink:title="addGlobalIndex">
<polygon fill="#ffffff" stroke="#000000" points="221,-225.5 221,-244.5 305,-244.5 305,-225.5 221,-225.5"/>
<text text-anchor="middle" x="263" y="-232.5" font-family="Helvetica,sans-Serif" font-size="10.00" fill="#000000">addGlobalIndex</text>
</a>
</g>
</g>
<!-- Node530&#45;&gt;Node533 -->
<g id="edge3" class="edge">
<title>Node530&#45;&gt;Node533</title>
<path fill="none" stroke="#191970" d="M86.4559,-156.7306C106.1021,-171.6193 145.9722,-200.0059 184,-216 192.4987,-219.5745 201.8073,-222.5622 210.9583,-225.0299"/>
<polygon fill="#191970" stroke="#191970" points="210.2281,-228.4552 220.7803,-227.5065 211.9396,-221.6677 210.2281,-228.4552"/>
</g>
<!-- Node535 -->
<g id="node6" class="node">
<title>Node535</title>
<g id="a_node6"><a xlink:href="classprecice_1_1mapping_1_1Mapping.html#a5bf2ecf9adb1ae66977c1223f841a61f" target="_top" xlink:title="Sets input and output meshes carrying data to be mapped. ">
<polygon fill="#ffffff" stroke="#000000" points="196,-176 196,-206 330,-206 330,-176 196,-176"/>
<text text-anchor="start" x="204" y="-194" font-family="Helvetica,sans-Serif" font-size="10.00" fill="#000000">precice::mapping::Mapping</text>
<text text-anchor="middle" x="263" y="-183" font-family="Helvetica,sans-Serif" font-size="10.00" fill="#000000">::setMeshes</text>
</a>
</g>
</g>
<!-- Node530&#45;&gt;Node535 -->
<g id="edge5" class="edge">
<title>Node530&#45;&gt;Node535</title>
<path fill="none" stroke="#191970" d="M115.0102,-156.5473C136.4794,-161.5455 163.4407,-167.8222 188.449,-173.6442"/>
<polygon fill="#191970" stroke="#191970" points="187.7542,-177.076 198.2874,-175.9346 189.3415,-170.2583 187.7542,-177.076"/>
</g>
<!-- Node538 -->
<g id="node9" class="node">
<title>Node538</title>
<g id="a_node9"><a xlink:href="RTreeTests_8cpp.html#a9849f5c774ff22e557184d988b1cf9ea" target="_top" xlink:title="BOOST_TEST">
<polygon fill="#ffffff" stroke="#000000" points="222,-137.5 222,-156.5 304,-156.5 304,-137.5 222,-137.5"/>
<text text-anchor="middle" x="263" y="-144.5" font-family="Helvetica,sans-Serif" font-size="10.00" fill="#000000">BOOST_TEST</text>
</a>
</g>
</g>
<!-- Node530&#45;&gt;Node538 -->
<g id="edge8" class="edge">
<title>Node530&#45;&gt;Node538</title>
<path fill="none" stroke="#191970" d="M148.1554,-147C169.3695,-147 192.0197,-147 211.5499,-147"/>
<polygon fill="#191970" stroke="#191970" points="211.7513,-150.5001 221.7512,-147 211.7512,-143.5001 211.7513,-150.5001"/>
</g>
<!-- Node539 -->
<g id="node10" class="node">
<title>Node539</title>
<g id="a_node10"><a xlink:href="classprecice_1_1mapping_1_1Mapping.html#ae7fcb351e225322b05e4cd7c45215b52" target="_top" xlink:title="Returns true, if the mapping has been computed. ">
<polygon fill="#ffffff" stroke="#000000" points="196,-88 196,-118 330,-118 330,-88 196,-88"/>
<text text-anchor="start" x="204" y="-106" font-family="Helvetica,sans-Serif" font-size="10.00" fill="#000000">precice::mapping::Mapping</text>
<text text-anchor="middle" x="263" y="-95" font-family="Helvetica,sans-Serif" font-size="10.00" fill="#000000">::hasComputedMapping</text>
</a>
</g>
</g>
<!-- Node530&#45;&gt;Node539 -->
<g id="edge9" class="edge">
<title>Node530&#45;&gt;Node539</title>
<path fill="none" stroke="#191970" d="M115.0102,-137.4527C136.4794,-132.4545 163.4407,-126.1778 188.449,-120.3558"/>
<polygon fill="#191970" stroke="#191970" points="189.3415,-123.7417 198.2874,-118.0654 187.7542,-116.924 189.3415,-123.7417"/>
</g>
<!-- Node540 -->
<g id="node11" class="node">
<title>Node540</title>
<g id="a_node11"><a xlink:href="classprecice_1_1mapping_1_1Mapping.html#abf2679ec4bbb86bd2380b088528cc1ff" target="_top" xlink:title="Computes the mapping coefficients from the in&#45; and output mesh. ">
<polygon fill="#ffffff" stroke="#000000" points="196,-39 196,-69 330,-69 330,-39 196,-39"/>
<text text-anchor="start" x="204" y="-57" font-family="Helvetica,sans-Serif" font-size="10.00" fill="#000000">precice::mapping::Mapping</text>
<text text-anchor="middle" x="263" y="-46" font-family="Helvetica,sans-Serif" font-size="10.00" fill="#000000">::computeMapping</text>
</a>
</g>
</g>
<!-- Node530&#45;&gt;Node540 -->
<g id="edge10" class="edge">
<title>Node530&#45;&gt;Node540</title>
<path fill="none" stroke="#191970" d="M86.9013,-137.3017C106.8181,-122.7108 146.6649,-95.0136 184,-78 188.1475,-76.11 192.4834,-74.3192 196.8971,-72.6322"/>
<polygon fill="#191970" stroke="#191970" points="198.428,-75.8004 206.6403,-69.1065 196.0461,-69.2181 198.428,-75.8004"/>
</g>
<!-- Node541 -->
<g id="node12" class="node">
<title>Node541</title>
<g id="a_node12"><a xlink:href="classprecice_1_1mapping_1_1Mapping.html#a843b62d737d4e113bfa4db18682eb6fe" target="_top" xlink:title="Maps input data to output data from input mesh to output mesh. ">
<polygon fill="#ffffff" stroke="#000000" points="184,-.5 184,-19.5 342,-19.5 342,-.5 184,-.5"/>
<text text-anchor="middle" x="263" y="-7.5" font-family="Helvetica,sans-Serif" font-size="10.00" fill="#000000">precice::mapping::Mapping::map</text>
</a>
</g>
</g>
<!-- Node530&#45;&gt;Node541 -->
<g id="edge11" class="edge">
<title>Node530&#45;&gt;Node541</title>
<path fill="none" stroke="#191970" d="M80.0961,-137.2701C94.898,-114.4986 135.1376,-57.5144 184,-29 187.874,-26.7393 192.0044,-24.747 196.2677,-22.9914"/>
<polygon fill="#191970" stroke="#191970" points="197.5785,-26.2388 205.7654,-19.5138 195.1716,-19.6656 197.5785,-26.2388"/>
</g>
<!-- Node532 -->
<g id="node3" class="node">
<title>Node532</title>
<g id="a_node3"><a xlink:href="classprecice_1_1utils_1_1ManageUniqueIDs.html#a02be264c279698ae293587b6576088b5" target="_top" xlink:title="precice::utils::ManageUnique\lIDs::getFreeID">
<polygon fill="#ffffff" stroke="#000000" points="381.5,-264 381.5,-294 524.5,-294 524.5,-264 381.5,-264"/>
<text text-anchor="start" x="389.5" y="-282" font-family="Helvetica,sans-Serif" font-size="10.00" fill="#000000">precice::utils::ManageUnique</text>
<text text-anchor="middle" x="453" y="-271" font-family="Helvetica,sans-Serif" font-size="10.00" fill="#000000">IDs::getFreeID</text>
</a>
</g>
</g>
<!-- Node531&#45;&gt;Node532 -->
<g id="edge2" class="edge">
<title>Node531&#45;&gt;Node532</title>
<path fill="none" stroke="#191970" d="M334.5601,-277.1299C346.4766,-277.3181 358.9179,-277.5145 371.0685,-277.7063"/>
<polygon fill="#191970" stroke="#191970" points="371.1347,-281.2077 381.1887,-277.8661 371.2453,-274.2086 371.1347,-281.2077"/>
</g>
<!-- Node534 -->
<g id="node5" class="node">
<title>Node534</title>
<g id="a_node5"><a xlink:href="MPIPortsCommunicationTest_8cpp.html#a5ded28ea5c98cb27bf0cfcf344588d46" target="_top" xlink:title="BOOST_AUTO_TEST_SUITE">
<polygon fill="#ffffff" stroke="#000000" points="378,-225.5 378,-244.5 528,-244.5 528,-225.5 378,-225.5"/>
<text text-anchor="middle" x="453" y="-232.5" font-family="Helvetica,sans-Serif" font-size="10.00" fill="#000000">BOOST_AUTO_TEST_SUITE</text>
</a>
</g>
</g>
<!-- Node533&#45;&gt;Node534 -->
<g id="edge4" class="edge">
<title>Node533&#45;&gt;Node534</title>
<path fill="none" stroke="#191970" d="M305.1672,-235C323.5713,-235 345.8543,-235 367.476,-235"/>
<polygon fill="#191970" stroke="#191970" points="367.681,-238.5001 377.681,-235 367.681,-231.5001 367.681,-238.5001"/>
</g>
<!-- Node536 -->
<g id="node7" class="node">
<title>Node536</title>
<g id="a_node7"><a xlink:href="classprecice_1_1mapping_1_1Mapping.html#a61c3c55af467ada2bdd735efa0f960e4" target="_top" xlink:title="Returns pointer to input mesh. ">
<polygon fill="#ffffff" stroke="#000000" points="386,-176 386,-206 520,-206 520,-176 386,-176"/>
<text text-anchor="start" x="394" y="-194" font-family="Helvetica,sans-Serif" font-size="10.00" fill="#000000">precice::mapping::Mapping</text>
<text text-anchor="middle" x="453" y="-183" font-family="Helvetica,sans-Serif" font-size="10.00" fill="#000000">::input</text>
</a>
</g>
</g>
<!-- Node535&#45;&gt;Node536 -->
<g id="edge6" class="edge">
<title>Node535&#45;&gt;Node536</title>
<path fill="none" stroke="#191970" d="M330.2543,-191C344.9127,-191 360.5371,-191 375.5552,-191"/>
<polygon fill="#191970" stroke="#191970" points="375.8361,-194.5001 385.8361,-191 375.8361,-187.5001 375.8361,-194.5001"/>
</g>
<!-- Node537 -->
<g id="node8" class="node">
<title>Node537</title>
<g id="a_node8"><a xlink:href="classprecice_1_1mapping_1_1Mapping.html#a07a71a54b71eda6d54510c94fb188e70" target="_top" xlink:title="Returns pointer to output mesh. ">
<polygon fill="#ffffff" stroke="#000000" points="386,-127 386,-157 520,-157 520,-127 386,-127"/>
<text text-anchor="start" x="394" y="-145" font-family="Helvetica,sans-Serif" font-size="10.00" fill="#000000">precice::mapping::Mapping</text>
<text text-anchor="middle" x="453" y="-134" font-family="Helvetica,sans-Serif" font-size="10.00" fill="#000000">::output</text>
</a>
</g>
</g>
<!-- Node535&#45;&gt;Node537 -->
<g id="edge7" class="edge">
<title>Node535&#45;&gt;Node537</title>
<path fill="none" stroke="#191970" d="M321.2975,-175.9654C341.45,-170.7682 364.2064,-164.8994 385.0639,-159.5204"/>
<polygon fill="#191970" stroke="#191970" points="386.0036,-162.8926 394.8127,-157.0062 384.2555,-156.1144 386.0036,-162.8926"/>
</g>
</g>
</svg>
