<?xml version="1.0" encoding="UTF-8" standalone="no"?>
<!DOCTYPE svg PUBLIC "-//W3C//DTD SVG 1.1//EN"
 "http://www.w3.org/Graphics/SVG/1.1/DTD/svg11.dtd">
<!-- Generated by graphviz version 2.40.1 (20161225.0304)
 -->
<!-- Title: BOOST_AUTO_TEST_CASE Pages: 1 -->
<svg width="726pt" height="411pt"
 viewBox="0.00 0.00 726.00 410.50" xmlns="http://www.w3.org/2000/svg" xmlns:xlink="http://www.w3.org/1999/xlink">
<g id="graph0" class="graph" transform="scale(1 1) rotate(0) translate(4 406.5)">
<title>BOOST_AUTO_TEST_CASE</title>
<polygon fill="#ffffff" stroke="transparent" points="-4,4 -4,-406.5 722,-406.5 722,4 -4,4"/>
<!-- Node98 -->
<g id="node1" class="node">
<title>Node98</title>
<polygon fill="#bfbfbf" stroke="#000000" points="0,-202 0,-221 148,-221 148,-202 0,-202"/>
<text text-anchor="middle" x="74" y="-209" font-family="Helvetica,sans-Serif" font-size="10.00" fill="#000000">BOOST_AUTO_TEST_CASE</text>
</g>
<!-- Node99 -->
<g id="node2" class="node">
<title>Node99</title>
<g id="a_node2"><a xlink:href="PointToPointCommunicationTest_8cpp.html#aa85b5775885bb057bf8b0158d3b2c5a3" target="_top" xlink:title="runEmptyConnectionTest">
<polygon fill="#ffffff" stroke="#000000" points="184,-202 184,-221 312,-221 312,-202 184,-202"/>
<text text-anchor="middle" x="248" y="-209" font-family="Helvetica,sans-Serif" font-size="10.00" fill="#000000">runEmptyConnectionTest</text>
</a>
</g>
</g>
<!-- Node98&#45;&gt;Node99 -->
<g id="edge1" class="edge">
<title>Node98&#45;&gt;Node99</title>
<path fill="none" stroke="#191970" d="M148.044,-211.5C156.5269,-211.5 165.178,-211.5 173.6648,-211.5"/>
<polygon fill="#191970" stroke="#191970" points="173.913,-215.0001 183.913,-211.5 173.9129,-208.0001 173.913,-215.0001"/>
</g>
<!-- Node100 -->
<g id="node3" class="node">
<title>Node100</title>
<g id="a_node3"><a xlink:href="RTreeTests_8cpp.html#a9849f5c774ff22e557184d988b1cf9ea" target="_top" xlink:title="BOOST_TEST">
<polygon fill="#ffffff" stroke="#000000" points="401,-383 401,-402 483,-402 483,-383 401,-383"/>
<text text-anchor="middle" x="442" y="-390" font-family="Helvetica,sans-Serif" font-size="10.00" fill="#000000">BOOST_TEST</text>
</a>
</g>
</g>
<!-- Node99&#45;&gt;Node100 -->
<g id="edge2" class="edge">
<title>Node99&#45;&gt;Node100</title>
<path fill="none" stroke="#191970" d="M250.8795,-221.0612C259.9508,-249.4302 290.7825,-333.6285 348,-373.5 360.4306,-382.1622 375.9015,-387.0669 390.6805,-389.7909"/>
<polygon fill="#191970" stroke="#191970" points="390.3385,-393.2795 400.7557,-391.3478 391.4075,-386.3616 390.3385,-393.2795"/>
</g>
<!-- Node101 -->
<g id="node4" class="node">
<title>Node101</title>
<g id="a_node4"><a xlink:href="classprecice_1_1testing_1_1TestContext.html#ab410f680ed3f84ee3994cbb1eb49a217" target="_top" xlink:title="Check wheater this context has a given size. ">
<polygon fill="#ffffff" stroke="#000000" points="370.5,-333.5 370.5,-363.5 513.5,-363.5 513.5,-333.5 370.5,-333.5"/>
<text text-anchor="start" x="378.5" y="-351.5" font-family="Helvetica,sans-Serif" font-size="10.00" fill="#000000">precice::testing::TestContext</text>
<text text-anchor="middle" x="442" y="-340.5" font-family="Helvetica,sans-Serif" font-size="10.00" fill="#000000">::hasSize</text>
</a>
</g>
</g>
<!-- Node99&#45;&gt;Node101 -->
<g id="edge3" class="edge">
<title>Node99&#45;&gt;Node101</title>
<path fill="none" stroke="#191970" d="M253.8853,-221.3155C267.5311,-243.2005 303.5799,-296.2083 348,-323.5 352.1006,-326.0194 356.4532,-328.2877 360.9509,-330.3296"/>
<polygon fill="#191970" stroke="#191970" points="359.7735,-333.63 370.3525,-334.2107 362.4446,-327.1596 359.7735,-333.63"/>
</g>
<!-- Node102 -->
<g id="node5" class="node">
<title>Node102</title>
<g id="a_node5"><a xlink:href="namespaceprecice_1_1testing.html#a08533fd83bad3d7f27ea7f4a35a14aa4" target="_top" xlink:title="precice::testing::nextMeshID">
<polygon fill="#ffffff" stroke="#000000" points="370.5,-295 370.5,-314 513.5,-314 513.5,-295 370.5,-295"/>
<text text-anchor="middle" x="442" y="-302" font-family="Helvetica,sans-Serif" font-size="10.00" fill="#000000">precice::testing::nextMeshID</text>
</a>
</g>
</g>
<!-- Node99&#45;&gt;Node102 -->
<g id="edge4" class="edge">
<title>Node99&#45;&gt;Node102</title>
<path fill="none" stroke="#191970" d="M257.8346,-221.1546C274.7468,-237.1719 311.0938,-269.0959 348,-285.5 353.6911,-288.0296 359.726,-290.2256 365.8827,-292.1315"/>
<polygon fill="#191970" stroke="#191970" points="365.0504,-295.5334 375.6259,-294.894 366.9599,-288.7989 365.0504,-295.5334"/>
</g>
<!-- Node104 -->
<g id="node7" class="node">
<title>Node104</title>
<g id="a_node7"><a xlink:href="classprecice_1_1testing_1_1TestContext.html#a87ef3b67f676b69dfb8c4cfc2e8df819" target="_top" xlink:title="Check wheater this context has a given name. ">
<polygon fill="#ffffff" stroke="#000000" points="370.5,-245.5 370.5,-275.5 513.5,-275.5 513.5,-245.5 370.5,-245.5"/>
<text text-anchor="start" x="378.5" y="-263.5" font-family="Helvetica,sans-Serif" font-size="10.00" fill="#000000">precice::testing::TestContext</text>
<text text-anchor="middle" x="442" y="-252.5" font-family="Helvetica,sans-Serif" font-size="10.00" fill="#000000">::isNamed</text>
</a>
</g>
</g>
<!-- Node99&#45;&gt;Node104 -->
<g id="edge6" class="edge">
<title>Node99&#45;&gt;Node104</title>
<path fill="none" stroke="#191970" d="M285.8657,-221.064C310.534,-227.2947 343.4534,-235.6094 372.704,-242.9974"/>
<polygon fill="#191970" stroke="#191970" points="371.9132,-246.4075 382.4659,-245.463 373.6275,-239.6207 371.9132,-246.4075"/>
</g>
<!-- Node105 -->
<g id="node8" class="node">
<title>Node105</title>
<g id="a_node8"><a xlink:href="classprecice_1_1testing_1_1TestContext.html#ae29e764c55d02af8024417f307aba70b" target="_top" xlink:title="precice::testing::TestContext\l::isMaster">
<polygon fill="#ffffff" stroke="#000000" points="370.5,-196.5 370.5,-226.5 513.5,-226.5 513.5,-196.5 370.5,-196.5"/>
<text text-anchor="start" x="378.5" y="-214.5" font-family="Helvetica,sans-Serif" font-size="10.00" fill="#000000">precice::testing::TestContext</text>
<text text-anchor="middle" x="442" y="-203.5" font-family="Helvetica,sans-Serif" font-size="10.00" fill="#000000">::isMaster</text>
</a>
</g>
</g>
<!-- Node99&#45;&gt;Node105 -->
<g id="edge7" class="edge">
<title>Node99&#45;&gt;Node105</title>
<path fill="none" stroke="#191970" d="M312.0605,-211.5C327.361,-211.5 343.9022,-211.5 359.8906,-211.5"/>
<polygon fill="#191970" stroke="#191970" points="360.2988,-215.0001 370.2988,-211.5 360.2987,-208.0001 360.2988,-215.0001"/>
</g>
<!-- Node107 -->
<g id="node10" class="node">
<title>Node107</title>
<g id="a_node10"><a xlink:href="classprecice_1_1m2n_1_1PointToPointCommunication.html#a5b6a7029e4c856f839db54da26aeb60b" target="_top" xlink:title="Requests connection from participant, which has to call acceptConnection(). Only initial connection i...">
<polygon fill="#ffffff" stroke="#000000" points="348,-98.5 348,-128.5 536,-128.5 536,-98.5 348,-98.5"/>
<text text-anchor="start" x="356" y="-116.5" font-family="Helvetica,sans-Serif" font-size="10.00" fill="#000000">precice::m2n::PointToPoint</text>
<text text-anchor="middle" x="442" y="-105.5" font-family="Helvetica,sans-Serif" font-size="10.00" fill="#000000">Communication::requestPreConnection</text>
</a>
</g>
</g>
<!-- Node99&#45;&gt;Node107 -->
<g id="edge9" class="edge">
<title>Node99&#45;&gt;Node107</title>
<path fill="none" stroke="#191970" d="M258.2027,-201.794C275.3674,-185.9915 311.7152,-154.7387 348,-137.5 352.1337,-135.5361 356.449,-133.7187 360.8605,-132.0388"/>
<polygon fill="#191970" stroke="#191970" points="362.3802,-135.2138 370.6392,-128.5776 360.0445,-128.615 362.3802,-135.2138"/>
</g>
<!-- Node110 -->
<g id="node13" class="node">
<title>Node110</title>
<g id="a_node13"><a xlink:href="classprecice_1_1m2n_1_1PointToPointCommunication.html#a2525800224276b27a2d12e96cf600686" target="_top" xlink:title="Broadcasts an int to connected ranks on remote participant. ">
<polygon fill="#ffffff" stroke="#000000" points="364,-49.5 364,-79.5 520,-79.5 520,-49.5 364,-49.5"/>
<text text-anchor="start" x="372" y="-67.5" font-family="Helvetica,sans-Serif" font-size="10.00" fill="#000000">precice::m2n::PointToPoint</text>
<text text-anchor="middle" x="442" y="-56.5" font-family="Helvetica,sans-Serif" font-size="10.00" fill="#000000">Communication::broadcastSend</text>
</a>
</g>
</g>
<!-- Node99&#45;&gt;Node110 -->
<g id="edge12" class="edge">
<title>Node99&#45;&gt;Node110</title>
<path fill="none" stroke="#191970" d="M253.0322,-201.7379C265.6331,-178.3075 300.9371,-118.6046 348,-88.5 350.6116,-86.8295 353.3335,-85.2751 356.1365,-83.8288"/>
<polygon fill="#191970" stroke="#191970" points="357.7276,-86.9491 365.328,-79.5677 354.7834,-80.5983 357.7276,-86.9491"/>
</g>
<!-- Node111 -->
<g id="node14" class="node">
<title>Node111</title>
<g id="a_node14"><a xlink:href="classprecice_1_1m2n_1_1PointToPointCommunication.html#aa528e41612b6b8d7cc3febc335c1268e" target="_top" xlink:title="Accepts connection from participant, which has to call requestPreConnection(). Only initial connectio...">
<polygon fill="#ffffff" stroke="#000000" points="349.5,-147.5 349.5,-177.5 534.5,-177.5 534.5,-147.5 349.5,-147.5"/>
<text text-anchor="start" x="357.5" y="-165.5" font-family="Helvetica,sans-Serif" font-size="10.00" fill="#000000">precice::m2n::PointToPoint</text>
<text text-anchor="middle" x="442" y="-154.5" font-family="Helvetica,sans-Serif" font-size="10.00" fill="#000000">Communication::acceptPreConnection</text>
</a>
</g>
</g>
<!-- Node99&#45;&gt;Node111 -->
<g id="edge13" class="edge">
<title>Node99&#45;&gt;Node111</title>
<path fill="none" stroke="#191970" d="M285.8657,-201.936C310.534,-195.7053 343.4534,-187.3906 372.704,-180.0026"/>
<polygon fill="#191970" stroke="#191970" points="373.6275,-183.3793 382.4659,-177.537 371.9132,-176.5925 373.6275,-183.3793"/>
</g>
<!-- Node112 -->
<g id="node15" class="node">
<title>Node112</title>
<g id="a_node15"><a xlink:href="classprecice_1_1m2n_1_1PointToPointCommunication.html#a74803c3982c4cec7cceb249694271576" target="_top" xlink:title="Receives an int per connected rank on remote participant [out] itemToReceive received ints from remot...">
<polygon fill="#ffffff" stroke="#000000" points="351.5,-.5 351.5,-30.5 532.5,-30.5 532.5,-.5 351.5,-.5"/>
<text text-anchor="start" x="359.5" y="-18.5" font-family="Helvetica,sans-Serif" font-size="10.00" fill="#000000">precice::m2n::PointToPoint</text>
<text text-anchor="middle" x="442" y="-7.5" font-family="Helvetica,sans-Serif" font-size="10.00" fill="#000000">Communication::broadcastReceiveAll</text>
</a>
</g>
</g>
<!-- Node99&#45;&gt;Node112 -->
<g id="edge16" class="edge">
<title>Node99&#45;&gt;Node112</title>
<path fill="none" stroke="#191970" d="M250.6691,-201.9157C259.3375,-172.631 289.5755,-83.6454 348,-39.5 349.8561,-38.0975 351.7856,-36.7765 353.7752,-35.5322"/>
<polygon fill="#191970" stroke="#191970" points="355.7607,-38.435 362.8416,-30.5539 352.3915,-32.2991 355.7607,-38.435"/>
</g>
<!-- Node103 -->
<g id="node6" class="node">
<title>Node103</title>
<g id="a_node6"><a xlink:href="classprecice_1_1utils_1_1ManageUniqueIDs.html#a02be264c279698ae293587b6576088b5" target="_top" xlink:title="precice::utils::ManageUnique\lIDs::getFreeID">
<polygon fill="#ffffff" stroke="#000000" points="573.5,-289.5 573.5,-319.5 716.5,-319.5 716.5,-289.5 573.5,-289.5"/>
<text text-anchor="start" x="581.5" y="-307.5" font-family="Helvetica,sans-Serif" font-size="10.00" fill="#000000">precice::utils::ManageUnique</text>
<text text-anchor="middle" x="645" y="-296.5" font-family="Helvetica,sans-Serif" font-size="10.00" fill="#000000">IDs::getFreeID</text>
</a>
</g>
</g>
<!-- Node102&#45;&gt;Node103 -->
<g id="edge5" class="edge">
<title>Node102&#45;&gt;Node103</title>
<path fill="none" stroke="#191970" d="M513.5702,-304.5C529.6404,-304.5 546.8099,-304.5 563.2592,-304.5"/>
<polygon fill="#191970" stroke="#191970" points="563.3919,-308.0001 573.3919,-304.5 563.3918,-301.0001 563.3919,-308.0001"/>
</g>
<!-- Node106 -->
<g id="node9" class="node">
<title>Node106</title>
<g id="a_node9"><a xlink:href="classprecice_1_1testing_1_1TestContext.html#a8fefcbe2f6def4d4cc9816d238b2797e" target="_top" xlink:title="Check wheater this context has a given rank inside the Partiticipant. ">
<polygon fill="#ffffff" stroke="#000000" points="573.5,-196.5 573.5,-226.5 716.5,-226.5 716.5,-196.5 573.5,-196.5"/>
<text text-anchor="start" x="581.5" y="-214.5" font-family="Helvetica,sans-Serif" font-size="10.00" fill="#000000">precice::testing::TestContext</text>
<text text-anchor="middle" x="645" y="-203.5" font-family="Helvetica,sans-Serif" font-size="10.00" fill="#000000">::isRank</text>
</a>
</g>
</g>
<!-- Node105&#45;&gt;Node106 -->
<g id="edge8" class="edge">
<title>Node105&#45;&gt;Node106</title>
<path fill="none" stroke="#191970" d="M513.5702,-211.5C529.6404,-211.5 546.8099,-211.5 563.2592,-211.5"/>
<polygon fill="#191970" stroke="#191970" points="563.3919,-215.0001 573.3919,-211.5 563.3918,-208.0001 563.3919,-215.0001"/>
</g>
<!-- Node108 -->
<g id="node11" class="node">
<title>Node108</title>
<g id="a_node11"><a xlink:href="classprecice_1_1m2n_1_1PointToPointCommunication.html#a3a8e2e7fc421ffb7a8a8e0730f875909" target="_top" xlink:title="Returns true, if a connection to a remote participant has been established. ">
<polygon fill="#ffffff" stroke="#000000" points="572,-147.5 572,-177.5 718,-177.5 718,-147.5 572,-147.5"/>
<text text-anchor="start" x="580" y="-165.5" font-family="Helvetica,sans-Serif" font-size="10.00" fill="#000000">precice::m2n::PointToPoint</text>
<text text-anchor="middle" x="645" y="-154.5" font-family="Helvetica,sans-Serif" font-size="10.00" fill="#000000">Communication::isConnected</text>
</a>
</g>
</g>
<!-- Node107&#45;&gt;Node108 -->
<g id="edge10" class="edge">
<title>Node107&#45;&gt;Node108</title>
<path fill="none" stroke="#191970" d="M504.2863,-128.5346C526.0125,-133.7789 550.5714,-139.7069 573.0201,-145.1255"/>
<polygon fill="#191970" stroke="#191970" points="572.2894,-148.5496 582.8315,-147.4938 573.932,-141.745 572.2894,-148.5496"/>
</g>
<!-- Node109 -->
<g id="node12" class="node">
<title>Node109</title>
<g id="a_node12"><a xlink:href="classprecice_1_1utils_1_1MasterSlave.html#af0deae7c83eae7f8e6908a2879bfb0e3" target="_top" xlink:title="Current rank. ">
<polygon fill="#ffffff" stroke="#000000" points="578.5,-98.5 578.5,-128.5 711.5,-128.5 711.5,-98.5 578.5,-98.5"/>
<text text-anchor="start" x="586.5" y="-116.5" font-family="Helvetica,sans-Serif" font-size="10.00" fill="#000000">precice::utils::MasterSlave</text>
<text text-anchor="middle" x="645" y="-105.5" font-family="Helvetica,sans-Serif" font-size="10.00" fill="#000000">::getRank</text>
</a>
</g>
</g>
<!-- Node107&#45;&gt;Node109 -->
<g id="edge11" class="edge">
<title>Node107&#45;&gt;Node109</title>
<path fill="none" stroke="#191970" d="M536.0718,-113.5C546.918,-113.5 557.8778,-113.5 568.4524,-113.5"/>
<polygon fill="#191970" stroke="#191970" points="568.4567,-117.0001 578.4566,-113.5 568.4566,-110.0001 568.4567,-117.0001"/>
</g>
<!-- Node111&#45;&gt;Node108 -->
<g id="edge14" class="edge">
<title>Node111&#45;&gt;Node108</title>
<path fill="none" stroke="#191970" d="M534.5893,-162.5C543.5332,-162.5 552.5701,-162.5 561.4193,-162.5"/>
<polygon fill="#191970" stroke="#191970" points="561.7045,-166.0001 571.7045,-162.5 561.7045,-159.0001 561.7045,-166.0001"/>
</g>
<!-- Node111&#45;&gt;Node109 -->
<g id="edge15" class="edge">
<title>Node111&#45;&gt;Node109</title>
<path fill="none" stroke="#191970" d="M504.2863,-147.4654C526.0125,-142.2211 550.5714,-136.2931 573.0201,-130.8745"/>
<polygon fill="#191970" stroke="#191970" points="573.932,-134.255 582.8315,-128.5062 572.2894,-127.4504 573.932,-134.255"/>
</g>
</g>
</svg>
