<?xml version="1.0" encoding="UTF-8" standalone="no"?>
<!DOCTYPE svg PUBLIC "-//W3C//DTD SVG 1.1//EN"
 "http://www.w3.org/Graphics/SVG/1.1/DTD/svg11.dtd">
<!-- Generated by graphviz version 2.40.1 (20161225.0304)
 -->
<!-- Title: BOOST_AUTO_TEST_SUITE_END Pages: 1 -->
<!--zoomable 163 -->
<svg id="main" version="1.1" xmlns="http://www.w3.org/2000/svg" xmlns:xlink="http://www.w3.org/1999/xlink" xml:space="preserve" onload="init(evt)">
<style type="text/css"><![CDATA[
.edge:hover path { stroke: red; }
.edge:hover polygon { stroke: red; fill: red; }
]]></style>
<script type="text/javascript"><![CDATA[
var edges = document.getElementsByTagName('g');
if (edges && edges.length) {
  for (var i=0;i<edges.length;i++) {
    if (edges[i].id.substr(0,4)=='edge') {
      edges[i].setAttribute('class','edge');
    }
  }
}
]]></script>
        <defs>
                <circle id="rim" cx="0" cy="0" r="7"/>
                <circle id="rim2" cx="0" cy="0" r="3.5"/>
                <g id="zoomPlus">
                        <use xlink:href="#rim" fill="#404040">
                                <set attributeName="fill" to="#808080" begin="zoomplus.mouseover" end="zoomplus.mouseout"/>
                        </use>
                        <path d="M-4,0h8M0,-4v8" fill="none" stroke="white" stroke-width="1.5" pointer-events="none"/>
                </g>
                <g id="zoomMin">
                        <use xlink:href="#rim" fill="#404040">
                                <set attributeName="fill" to="#808080" begin="zoomminus.mouseover" end="zoomminus.mouseout"/>
                        </use>
                        <path d="M-4,0h8" fill="none" stroke="white" stroke-width="1.5" pointer-events="none"/>
                </g>
                <g id="dirArrow">
                        <path fill="none" stroke="white" stroke-width="1.5" d="M0,-3.0v7 M-2.5,-0.5L0,-3.0L2.5,-0.5"/>
                </g>
               <g id="resetDef">
                       <use xlink:href="#rim2" fill="#404040">
                               <set attributeName="fill" to="#808080" begin="reset.mouseover" end="reset.mouseout"/>
                       </use>
               </g>
        </defs>

<script type="text/javascript">
var viewWidth = 566;
var viewHeight = 163;
var sectionId = 'dynsection-28';
</script>
<script xlink:href="svgpan.js"/>
<svg id="graph" class="graph">
<g id="viewport">
<title>BOOST_AUTO_TEST_SUITE_END</title>
<polygon fill="#ffffff" stroke="transparent" points="-4,4 -4,-159 562,-159 562,4 -4,4"/>
<!-- Node496 -->
<g id="node1" class="node">
<title>Node496</title>
<polygon fill="#bfbfbf" stroke="#000000" points="0,-69 0,-88 173,-88 173,-69 0,-69"/>
<text text-anchor="middle" x="86.5" y="-76" font-family="Helvetica,sans-Serif" font-size="10.00" fill="#000000">BOOST_AUTO_TEST_SUITE_END</text>
</g>
<!-- Node497 -->
<g id="node2" class="node">
<title>Node497</title>
<g id="a_node2"><a xlink:href="namespaceprecice_1_1testing.html#a08533fd83bad3d7f27ea7f4a35a14aa4" target="_top" xlink:title="precice::testing::nextMeshID">
<polygon fill="#ffffff" stroke="#000000" points="209,-129 209,-148 364,-148 364,-129 209,-129"/>
<text text-anchor="middle" x="286.5" y="-136" font-family="Helvetica,sans-Serif" font-size="10.00" fill="#000000">precice::testing::nextMeshID</text>
</a>
</g>
</g>
<!-- Node496&#45;&gt;Node497 -->
<g id="edge1" class="edge">
<title>Node496&#45;&gt;Node497</title>
<path fill="none" stroke="#191970" d="M116.6435,-88.0735C141.4017,-95.8829 177.4085,-107.1176 209,-116.5 219.7785,-119.7011 231.43,-123.0612 242.3433,-126.1648"/>
<polygon fill="#191970" stroke="#191970" points="241.5367,-129.574 252.112,-128.931 243.4439,-122.8388 241.5367,-129.574"/>
</g>
<!-- Node499 -->
<g id="node4" class="node">
<title>Node499</title>
<g id="a_node4"><a xlink:href="RadialBasisFctMappingTest_8cpp.html#a091feb1893c75899e59fa939e678debe" target="_top" xlink:title="addGlobalIndex">
<polygon fill="#ffffff" stroke="#000000" points="240,-88 240,-107 333,-107 333,-88 240,-88"/>
<text text-anchor="middle" x="286.5" y="-95" font-family="Helvetica,sans-Serif" font-size="10.00" fill="#000000">addGlobalIndex</text>
</a>
</g>
</g>
<!-- Node496&#45;&gt;Node499 -->
<g id="edge3" class="edge">
<title>Node496&#45;&gt;Node499</title>
<path fill="none" stroke="#191970" d="M173.0597,-86.7232C192.2101,-88.5425 212.0303,-90.4254 229.6418,-92.0985"/>
<polygon fill="#191970" stroke="#191970" points="229.4479,-95.5957 239.7342,-93.0572 230.11,-88.6271 229.4479,-95.5957"/>
</g>
<!-- Node501 -->
<g id="node6" class="node">
<title>Node501</title>
<g id="a_node6"><a xlink:href="RTreeTests_8cpp.html#a9849f5c774ff22e557184d988b1cf9ea" target="_top" xlink:title="BOOST_TEST">
<polygon fill="#ffffff" stroke="#000000" points="246.5,-50 246.5,-69 326.5,-69 326.5,-50 246.5,-50"/>
<text text-anchor="middle" x="286.5" y="-57" font-family="Helvetica,sans-Serif" font-size="10.00" fill="#000000">BOOST_TEST</text>
</a>
</g>
</g>
<!-- Node496&#45;&gt;Node501 -->
<g id="edge5" class="edge">
<title>Node496&#45;&gt;Node501</title>
<path fill="none" stroke="#191970" d="M173.0597,-70.2768C194.7158,-68.2195 217.2283,-66.0808 236.4348,-64.2562"/>
<polygon fill="#191970" stroke="#191970" points="236.8217,-67.7353 246.4458,-63.3051 236.1596,-60.7667 236.8217,-67.7353"/>
</g>
<!-- Node502 -->
<g id="node7" class="node">
<title>Node502</title>
<g id="a_node7"><a xlink:href="classprecice_1_1mesh_1_1Vertex.html#a38d26bf077919b0b6d59298720adcb2f" target="_top" xlink:title="Sets the coordinates of the vertex. ">
<polygon fill="#ffffff" stroke="#000000" points="225.5,-.5 225.5,-30.5 347.5,-30.5 347.5,-.5 225.5,-.5"/>
<text text-anchor="start" x="233.5" y="-18.5" font-family="Helvetica,sans-Serif" font-size="10.00" fill="#000000">precice::mesh::Vertex</text>
<text text-anchor="middle" x="286.5" y="-7.5" font-family="Helvetica,sans-Serif" font-size="10.00" fill="#000000">::setCoords</text>
</a>
</g>
</g>
<!-- Node496&#45;&gt;Node502 -->
<g id="edge6" class="edge">
<title>Node496&#45;&gt;Node502</title>
<path fill="none" stroke="#191970" d="M116.8757,-68.9317C146.5681,-59.5786 192.5185,-45.1042 229.1079,-33.5785"/>
<polygon fill="#191970" stroke="#191970" points="230.1881,-36.9079 238.6745,-30.565 228.0849,-30.2313 230.1881,-36.9079"/>
</g>
<!-- Node498 -->
<g id="node3" class="node">
<title>Node498</title>
<g id="a_node3"><a xlink:href="classprecice_1_1utils_1_1ManageUniqueIDs.html#a02be264c279698ae293587b6576088b5" target="_top" xlink:title="precice::utils::ManageUnique\lIDs::getFreeID">
<polygon fill="#ffffff" stroke="#000000" points="400,-124.5 400,-154.5 558,-154.5 558,-124.5 400,-124.5"/>
<text text-anchor="start" x="408" y="-142.5" font-family="Helvetica,sans-Serif" font-size="10.00" fill="#000000">precice::utils::ManageUnique</text>
<text text-anchor="middle" x="479" y="-131.5" font-family="Helvetica,sans-Serif" font-size="10.00" fill="#000000">IDs::getFreeID</text>
</a>
</g>
</g>
<!-- Node497&#45;&gt;Node498 -->
<g id="edge2" class="edge">
<title>Node497&#45;&gt;Node498</title>
<path fill="none" stroke="#191970" d="M364.2422,-138.9039C372.5509,-138.947 381.0508,-138.9912 389.4814,-139.035"/>
<polygon fill="#191970" stroke="#191970" points="389.6951,-142.536 399.7132,-139.0881 389.7315,-135.5361 389.6951,-142.536"/>
</g>
<!-- Node500 -->
<g id="node5" class="node">
<title>Node500</title>
<g id="a_node5"><a xlink:href="MPIPortsCommunicationTest_8cpp.html#a5ded28ea5c98cb27bf0cfcf344588d46" target="_top" xlink:title="BOOST_AUTO_TEST_SUITE">
<polygon fill="#ffffff" stroke="#000000" points="406,-86 406,-105 552,-105 552,-86 406,-86"/>
<text text-anchor="middle" x="479" y="-93" font-family="Helvetica,sans-Serif" font-size="10.00" fill="#000000">BOOST_AUTO_TEST_SUITE</text>
</a>
</g>
</g>
<!-- Node499&#45;&gt;Node500 -->
<g id="edge4" class="edge">
<title>Node499&#45;&gt;Node500</title>
<path fill="none" stroke="#191970" d="M333.0989,-97.0159C351.9263,-96.8202 374.2442,-96.5884 395.6892,-96.3656"/>
<polygon fill="#191970" stroke="#191970" points="395.832,-99.8644 405.795,-96.2606 395.7592,-92.8647 395.832,-99.8644"/>
</g>
</g>
</svg>
        <g id="navigator" transform="translate(0 0)" fill="#404254">
                <rect fill="#f2f5e9" fill-opacity="0.5" stroke="#606060" stroke-width=".5" x="0" y="0" width="60" height="60"/>
                <use id="zoomplus" xlink:href="#zoomPlus" x="17" y="9" onmousedown="handleZoom(evt,'in')"/>
                <use id="zoomminus" xlink:href="#zoomMin" x="42" y="9" onmousedown="handleZoom(evt,'out')"/>
                <use id="reset" xlink:href="#resetDef" x="30" y="36" onmousedown="handleReset()"/>
                <g id="arrowUp" xlink:href="#dirArrow" transform="translate(30 24)" onmousedown="handlePan(0,-1)">
                  <use xlink:href="#rim" fill="#404040">
                        <set attributeName="fill" to="#808080" begin="arrowUp.mouseover" end="arrowUp.mouseout"/>
                  </use>
                  <path fill="none" stroke="white" stroke-width="1.5" d="M0,-3.0v7 M-2.5,-0.5L0,-3.0L2.5,-0.5"/>
                </g>
                <g id="arrowRight" xlink:href="#dirArrow" transform="rotate(90) translate(36 -43)" onmousedown="handlePan(1,0)">
                  <use xlink:href="#rim" fill="#404040">
                        <set attributeName="fill" to="#808080" begin="arrowRight.mouseover" end="arrowRight.mouseout"/>
                  </use>
                  <path fill="none" stroke="white" stroke-width="1.5" d="M0,-3.0v7 M-2.5,-0.5L0,-3.0L2.5,-0.5"/>
                </g>
                <g id="arrowDown" xlink:href="#dirArrow" transform="rotate(180) translate(-30 -48)" onmousedown="handlePan(0,1)">
                  <use xlink:href="#rim" fill="#404040">
                        <set attributeName="fill" to="#808080" begin="arrowDown.mouseover" end="arrowDown.mouseout"/>
                  </use>
                  <path fill="none" stroke="white" stroke-width="1.5" d="M0,-3.0v7 M-2.5,-0.5L0,-3.0L2.5,-0.5"/>
                </g>
                <g id="arrowLeft" xlink:href="#dirArrow" transform="rotate(270) translate(-36 17)" onmousedown="handlePan(-1,0)">
                  <use xlink:href="#rim" fill="#404040">
                        <set attributeName="fill" to="#808080" begin="arrowLeft.mouseover" end="arrowLeft.mouseout"/>
                  </use>
                  <path fill="none" stroke="white" stroke-width="1.5" d="M0,-3.0v7 M-2.5,-0.5L0,-3.0L2.5,-0.5"/>
                </g>
        </g>
        <svg viewBox="0 0 15 15" width="100%" height="30px" preserveAspectRatio="xMaxYMin meet">
         <g id="arrow_out" transform="scale(0.3 0.3)">
          <a xlink:href="RadialBasisFctMappingTest_8cpp_a7779b70cfe2f527f9971605c923022db_cgraph_org.svg" target="_base">
           <rect id="button" ry="5" rx="5" y="6" x="6" height="38" width="38"
                fill="#f2f5e9" fill-opacity="0.5" stroke="#606060" stroke-width="1.0"/>
           <path id="arrow"
             d="M 11.500037,31.436501 C 11.940474,20.09759 22.043105,11.32322 32.158766,21.979434 L 37.068811,17.246167 C 37.068811,17.246167 37.088388,32 37.088388,32 L 22.160133,31.978069 C 22.160133,31.978069 26.997745,27.140456 26.997745,27.140456 C 18.528582,18.264221 13.291696,25.230495 11.500037,31.436501 z"
             style="fill:#404040;"/>
          </a>
         </g>
        </svg>
</svg>
