<?xml version="1.0" encoding="UTF-8" standalone="no"?>
<!DOCTYPE svg PUBLIC "-//W3C//DTD SVG 1.1//EN"
 "http://www.w3.org/Graphics/SVG/1.1/DTD/svg11.dtd">
<!-- Generated by graphviz version 2.40.1 (20161225.0304)
 -->
<!-- Title: BOOST_AUTO_TEST_SUITE_END Pages: 1 -->
<svg width="465pt" height="78pt"
 viewBox="0.00 0.00 465.00 77.50" xmlns="http://www.w3.org/2000/svg" xmlns:xlink="http://www.w3.org/1999/xlink">
<g id="graph0" class="graph" transform="scale(1 1) rotate(0) translate(4 73.5)">
<title>BOOST_AUTO_TEST_SUITE_END</title>
<polygon fill="#ffffff" stroke="transparent" points="-4,4 -4,-73.5 461,-73.5 461,4 -4,4"/>
<!-- Node68 -->
<g id="node1" class="node">
<title>Node68</title>
<polygon fill="#bfbfbf" stroke="#000000" points="0,-22.5 0,-41.5 177,-41.5 177,-22.5 0,-22.5"/>
<text text-anchor="middle" x="88.5" y="-29.5" font-family="Helvetica,sans-Serif" font-size="10.00" fill="#000000">BOOST_AUTO_TEST_SUITE_END</text>
</g>
<!-- Node69 -->
<g id="node2" class="node">
<title>Node69</title>
<g id="a_node2"><a xlink:href="classprecice_1_1mesh_1_1rtree.html#a349b7d6d1289fa236bc90fb3f99eddd3" target="_top" xlink:title="precice::mesh::rtree\l::getEdgeRTree">
<polygon fill="#ffffff" stroke="#000000" points="213,-39 213,-69 317,-69 317,-39 213,-39"/>
<text text-anchor="start" x="221" y="-57" font-family="Helvetica,sans-Serif" font-size="10.00" fill="#000000">precice::mesh::rtree</text>
<text text-anchor="middle" x="265" y="-46" font-family="Helvetica,sans-Serif" font-size="10.00" fill="#000000">::getEdgeRTree</text>
</a>
</g>
</g>
<!-- Node68&#45;&gt;Node69 -->
<g id="edge1" class="edge">
<title>Node68&#45;&gt;Node69</title>
<path fill="none" stroke="#191970" d="M164.8889,-41.5216C177.5537,-43.1002 190.5505,-44.7202 202.8101,-46.2483"/>
<polygon fill="#191970" stroke="#191970" points="202.5552,-49.7435 212.9114,-47.5074 203.4211,-42.7973 202.5552,-49.7435"/>
</g>
<!-- Node71 -->
<g id="node4" class="node">
<title>Node71</title>
<g id="a_node4"><a xlink:href="RTreeTests_8cpp.html#a9849f5c774ff22e557184d988b1cf9ea" target="_top" xlink:title="BOOST_TEST">
<polygon fill="#ffffff" stroke="#000000" points="224,-.5 224,-19.5 306,-19.5 306,-.5 224,-.5"/>
<text text-anchor="middle" x="265" y="-7.5" font-family="Helvetica,sans-Serif" font-size="10.00" fill="#000000">BOOST_TEST</text>
</a>
</g>
</g>
<!-- Node68&#45;&gt;Node71 -->
<g id="edge3" class="edge">
<title>Node68&#45;&gt;Node71</title>
<path fill="none" stroke="#191970" d="M164.8889,-22.4784C181.391,-20.4215 198.4567,-18.2944 213.721,-16.3917"/>
<polygon fill="#191970" stroke="#191970" points="214.4814,-19.8241 223.9717,-15.114 213.6155,-12.8779 214.4814,-19.8241"/>
</g>
<!-- Node70 -->
<g id="node3" class="node">
<title>Node70</title>
<g id="a_node3"><a xlink:href="classprecice_1_1mesh_1_1rtree.html#a1910046b733558367c5fc9022feef35e" target="_top" xlink:title="precice::mesh::rtree\l::cacheEntry">
<polygon fill="#ffffff" stroke="#000000" points="353,-39 353,-69 457,-69 457,-39 353,-39"/>
<text text-anchor="start" x="361" y="-57" font-family="Helvetica,sans-Serif" font-size="10.00" fill="#000000">precice::mesh::rtree</text>
<text text-anchor="middle" x="405" y="-46" font-family="Helvetica,sans-Serif" font-size="10.00" fill="#000000">::cacheEntry</text>
</a>
</g>
</g>
<!-- Node69&#45;&gt;Node70 -->
<g id="edge2" class="edge">
<title>Node69&#45;&gt;Node70</title>
<path fill="none" stroke="#191970" d="M317.1308,-54C325.4213,-54 334.0702,-54 342.5685,-54"/>
<polygon fill="#191970" stroke="#191970" points="342.8257,-57.5001 352.8256,-54 342.8256,-50.5001 342.8257,-57.5001"/>
</g>
</g>
</svg>
