<?xml version="1.0" encoding="UTF-8" standalone="no"?>
<!DOCTYPE svg PUBLIC "-//W3C//DTD SVG 1.1//EN"
 "http://www.w3.org/Graphics/SVG/1.1/DTD/svg11.dtd">
<!-- Generated by graphviz version 2.40.1 (20161225.0304)
 -->
<!-- Title: src/com/SocketCommunication.hpp Pages: 1 -->
<svg width="1590pt" height="319pt"
 viewBox="0.00 0.00 1590.00 319.00" xmlns="http://www.w3.org/2000/svg" xmlns:xlink="http://www.w3.org/1999/xlink">
<g id="graph0" class="graph" transform="scale(1 1) rotate(0) translate(4 315)">
<title>src/com/SocketCommunication.hpp</title>
<polygon fill="#ffffff" stroke="transparent" points="-4,4 -4,-315 1586,-315 1586,4 -4,4"/>
<!-- Node0 -->
<g id="node1" class="node">
<title>Node0</title>
<polygon fill="#bfbfbf" stroke="#000000" points="1083.5,-291.5 1083.5,-310.5 1256.5,-310.5 1256.5,-291.5 1083.5,-291.5"/>
<text text-anchor="middle" x="1170" y="-298.5" font-family="Helvetica,sans-Serif" font-size="10.00" fill="#000000">src/com/SocketCommunication.hpp</text>
</g>
<!-- Node1 -->
<g id="node2" class="node">
<title>Node1</title>
<polygon fill="#ffffff" stroke="#bfbfbf" points="557,-179.5 557,-198.5 637,-198.5 637,-179.5 557,-179.5"/>
<text text-anchor="middle" x="597" y="-186.5" font-family="Helvetica,sans-Serif" font-size="10.00" fill="#000000">boost/asio.hpp</text>
</g>
<!-- Node0&#45;&gt;Node1 -->
<g id="edge1" class="edge">
<title>Node0&#45;&gt;Node1</title>
<path fill="none" stroke="#191970" d="M1083.3375,-295.3353C975.6634,-287.689 798.3911,-272.9357 735,-255 692.9393,-243.0995 647.9179,-219.2188 621.1299,-203.6825"/>
<polygon fill="#191970" stroke="#191970" points="622.8423,-200.6291 612.4498,-198.5684 619.2889,-206.6602 622.8423,-200.6291"/>
</g>
<!-- Node2 -->
<g id="node3" class="node">
<title>Node2</title>
<polygon fill="#ffffff" stroke="#bfbfbf" points="1484.5,-235.5 1484.5,-254.5 1519.5,-254.5 1519.5,-235.5 1484.5,-235.5"/>
<text text-anchor="middle" x="1502" y="-242.5" font-family="Helvetica,sans-Serif" font-size="10.00" fill="#000000">map</text>
</g>
<!-- Node0&#45;&gt;Node2 -->
<g id="edge2" class="edge">
<title>Node0&#45;&gt;Node2</title>
<path fill="none" stroke="#191970" d="M1254.6999,-291.4741C1315.1481,-283.8366 1398.1322,-271.6392 1470,-255 1471.4531,-254.6636 1472.9359,-254.2943 1474.4279,-253.9021"/>
<polygon fill="#191970" stroke="#191970" points="1475.5517,-257.2208 1484.1906,-251.0873 1473.6124,-250.4948 1475.5517,-257.2208"/>
</g>
<!-- Node3 -->
<g id="node4" class="node">
<title>Node3</title>
<polygon fill="#ffffff" stroke="#bfbfbf" points="0,-62 0,-81 52,-81 52,-62 0,-62"/>
<text text-anchor="middle" x="26" y="-69" font-family="Helvetica,sans-Serif" font-size="10.00" fill="#000000">memory</text>
</g>
<!-- Node0&#45;&gt;Node3 -->
<g id="edge3" class="edge">
<title>Node0&#45;&gt;Node3</title>
<path fill="none" stroke="#191970" d="M1083.2557,-296.6903C943.8796,-289.3461 676.2688,-273.4009 583,-255 343.8897,-207.8262 288.7393,-173.7983 61,-87 59.3777,-86.3817 57.722,-85.7281 56.0566,-85.053"/>
<polygon fill="#191970" stroke="#191970" points="57.1513,-81.7159 46.5777,-81.045 54.4251,-88.1632 57.1513,-81.7159"/>
</g>
<!-- Node4 -->
<g id="node5" class="node">
<title>Node4</title>
<polygon fill="#ffffff" stroke="#bfbfbf" points="1048,-179.5 1048,-198.5 1078,-198.5 1078,-179.5 1048,-179.5"/>
<text text-anchor="middle" x="1063" y="-186.5" font-family="Helvetica,sans-Serif" font-size="10.00" fill="#000000">set</text>
</g>
<!-- Node0&#45;&gt;Node4 -->
<g id="edge4" class="edge">
<title>Node0&#45;&gt;Node4</title>
<path fill="none" stroke="#191970" d="M1149.6973,-291.3632C1134.3345,-283.3003 1113.4796,-270.6169 1099,-255 1086.2892,-241.2909 1076.5322,-222.2612 1070.4028,-208.1564"/>
<polygon fill="#191970" stroke="#191970" points="1073.6359,-206.8155 1066.5904,-198.9028 1067.1636,-209.4821 1073.6359,-206.8155"/>
</g>
<!-- Node5 -->
<g id="node6" class="node">
<title>Node5</title>
<polygon fill="#ffffff" stroke="#bfbfbf" points="1300,-179.5 1300,-198.5 1352,-198.5 1352,-179.5 1300,-179.5"/>
<text text-anchor="middle" x="1326" y="-186.5" font-family="Helvetica,sans-Serif" font-size="10.00" fill="#000000">stddef.h</text>
</g>
<!-- Node0&#45;&gt;Node5 -->
<g id="edge5" class="edge">
<title>Node0&#45;&gt;Node5</title>
<path fill="none" stroke="#191970" d="M1186.0231,-291.3835C1200.8111,-282.3636 1223.2509,-268.3074 1242,-255 1264.796,-238.8203 1289.8677,-218.8137 1306.633,-205.0953"/>
<polygon fill="#191970" stroke="#191970" points="1309.0904,-207.6058 1314.5869,-198.5483 1304.6417,-202.2012 1309.0904,-207.6058"/>
</g>
<!-- Node6 -->
<g id="node7" class="node">
<title>Node6</title>
<polygon fill="#ffffff" stroke="#bfbfbf" points="1237.5,-.5 1237.5,-19.5 1278.5,-19.5 1278.5,-.5 1237.5,-.5"/>
<text text-anchor="middle" x="1258" y="-7.5" font-family="Helvetica,sans-Serif" font-size="10.00" fill="#000000">string</text>
</g>
<!-- Node0&#45;&gt;Node6 -->
<g id="edge6" class="edge">
<title>Node0&#45;&gt;Node6</title>
<path fill="none" stroke="#191970" d="M1223.1241,-291.4489C1305.8332,-275.0473 1456,-238.4583 1456,-189 1456,-189 1456,-189 1456,-133 1456,-55.254 1344.4879,-24.9261 1288.8347,-14.6313"/>
<polygon fill="#191970" stroke="#191970" points="1289.268,-11.1541 1278.8152,-12.8832 1288.0648,-18.05 1289.268,-11.1541"/>
</g>
<!-- Node7 -->
<g id="node8" class="node">
<title>Node7</title>
<polygon fill="#ffffff" stroke="#bfbfbf" points="1538,-235.5 1538,-254.5 1582,-254.5 1582,-235.5 1538,-235.5"/>
<text text-anchor="middle" x="1560" y="-242.5" font-family="Helvetica,sans-Serif" font-size="10.00" fill="#000000">thread</text>
</g>
<!-- Node0&#45;&gt;Node7 -->
<g id="edge7" class="edge">
<title>Node0&#45;&gt;Node7</title>
<path fill="none" stroke="#191970" d="M1256.7315,-294.4054C1327.4977,-287.9864 1430.0821,-276.3185 1527.7418,-254.9453"/>
<polygon fill="#191970" stroke="#191970" points="1528.7848,-258.2989 1537.7848,-252.7087 1527.2631,-251.4663 1528.7848,-258.2989"/>
</g>
<!-- Node8 -->
<g id="node9" class="node">
<title>Node8</title>
<polygon fill="#ffffff" stroke="#bfbfbf" points="1224,-123.5 1224,-142.5 1268,-142.5 1268,-123.5 1224,-123.5"/>
<text text-anchor="middle" x="1246" y="-130.5" font-family="Helvetica,sans-Serif" font-size="10.00" fill="#000000">vector</text>
</g>
<!-- Node0&#45;&gt;Node8 -->
<g id="edge8" class="edge">
<title>Node0&#45;&gt;Node8</title>
<path fill="none" stroke="#191970" d="M1215.7968,-291.4025C1262.0863,-278.946 1330.9446,-252.1815 1361,-199 1381.0044,-163.6032 1318.6629,-145.6325 1278.0807,-137.8916"/>
<polygon fill="#191970" stroke="#191970" points="1278.506,-134.4122 1268.0461,-136.0979 1277.2741,-141.303 1278.506,-134.4122"/>
</g>
<!-- Node9 -->
<g id="node10" class="node">
<title>Node9</title>
<g id="a_node10"><a xlink:href="Communication_8hpp.html" target="_top" xlink:title="com/Communication.hpp">
<polygon fill="#ffffff" stroke="#000000" points="1107.5,-235.5 1107.5,-254.5 1232.5,-254.5 1232.5,-235.5 1107.5,-235.5"/>
<text text-anchor="middle" x="1170" y="-242.5" font-family="Helvetica,sans-Serif" font-size="10.00" fill="#000000">com/Communication.hpp</text>
</a>
</g>
</g>
<!-- Node0&#45;&gt;Node9 -->
<g id="edge9" class="edge">
<title>Node0&#45;&gt;Node9</title>
<path fill="none" stroke="#191970" d="M1170,-291.2455C1170,-283.9382 1170,-273.6944 1170,-264.7046"/>
<polygon fill="#191970" stroke="#191970" points="1173.5001,-264.6426 1170,-254.6427 1166.5001,-264.6427 1173.5001,-264.6426"/>
</g>
<!-- Node11 -->
<g id="node12" class="node">
<title>Node11</title>
<g id="a_node12"><a xlink:href="com_2SharedPointer_8hpp.html" target="_top" xlink:title="com/SharedPointer.hpp">
<polygon fill="#ffffff" stroke="#000000" points="668.5,-123.5 668.5,-142.5 787.5,-142.5 787.5,-123.5 668.5,-123.5"/>
<text text-anchor="middle" x="728" y="-130.5" font-family="Helvetica,sans-Serif" font-size="10.00" fill="#000000">com/SharedPointer.hpp</text>
</a>
</g>
</g>
<!-- Node0&#45;&gt;Node11 -->
<g id="edge36" class="edge">
<title>Node0&#45;&gt;Node11</title>
<path fill="none" stroke="#191970" d="M1083.2986,-296.0708C963.5798,-288.7138 754.0397,-273.7018 680,-255 618.2128,-239.3931 583.179,-252.1383 548,-199 543.0932,-191.5882 542.548,-186.0205 548,-179 561.7482,-161.2965 613.6257,-149.2571 658.1775,-141.9498"/>
<polygon fill="#191970" stroke="#191970" points="658.8108,-145.3932 668.1405,-140.3726 657.7163,-138.4793 658.8108,-145.3932"/>
</g>
<!-- Node12 -->
<g id="node13" class="node">
<title>Node12</title>
<g id="a_node13"><a xlink:href="Logger_8hpp.html" target="_top" xlink:title="logging/Logger.hpp">
<polygon fill="#ffffff" stroke="#000000" points="894,-179.5 894,-198.5 992,-198.5 992,-179.5 894,-179.5"/>
<text text-anchor="middle" x="943" y="-186.5" font-family="Helvetica,sans-Serif" font-size="10.00" fill="#000000">logging/Logger.hpp</text>
</a>
</g>
</g>
<!-- Node0&#45;&gt;Node12 -->
<g id="edge45" class="edge">
<title>Node0&#45;&gt;Node12</title>
<path fill="none" stroke="#191970" d="M1150.6461,-291.4509C1110.5236,-271.6548 1018.1254,-226.0663 971.3016,-202.9638"/>
<polygon fill="#191970" stroke="#191970" points="972.8214,-199.8109 962.3049,-198.5249 969.7241,-206.0884 972.8214,-199.8109"/>
</g>
<!-- Node24 -->
<g id="node25" class="node">
<title>Node24</title>
<g id="a_node25"><a xlink:href="SocketSendQueue_8hpp.html" target="_top" xlink:title="com/SocketSendQueue.hpp">
<polygon fill="#ffffff" stroke="#000000" points="744.5,-235.5 744.5,-254.5 883.5,-254.5 883.5,-235.5 744.5,-235.5"/>
<text text-anchor="middle" x="814" y="-242.5" font-family="Helvetica,sans-Serif" font-size="10.00" fill="#000000">com/SocketSendQueue.hpp</text>
</a>
</g>
</g>
<!-- Node0&#45;&gt;Node24 -->
<g id="edge37" class="edge">
<title>Node0&#45;&gt;Node24</title>
<path fill="none" stroke="#191970" d="M1109.2059,-291.4369C1046.9993,-281.6516 950.4131,-266.4582 884.7982,-256.1368"/>
<polygon fill="#191970" stroke="#191970" points="884.9658,-252.6202 874.5433,-254.5237 883.878,-259.5352 884.9658,-252.6202"/>
</g>
<!-- Node28 -->
<g id="node29" class="node">
<title>Node28</title>
<g id="a_node29"><a xlink:href="networking_8hpp.html" target="_top" xlink:title="utils/networking.hpp">
<polygon fill="#ffffff" stroke="#000000" points="1324,-123.5 1324,-142.5 1428,-142.5 1428,-123.5 1324,-123.5"/>
<text text-anchor="middle" x="1376" y="-130.5" font-family="Helvetica,sans-Serif" font-size="10.00" fill="#000000">utils/networking.hpp</text>
</a>
</g>
</g>
<!-- Node0&#45;&gt;Node28 -->
<g id="edge46" class="edge">
<title>Node0&#45;&gt;Node28</title>
<path fill="none" stroke="#191970" d="M1236.9778,-291.423C1267.5236,-284.7482 1303.0278,-273.571 1331,-255 1357.6003,-237.3398 1365.3986,-229.1175 1376,-199 1381.2312,-184.1386 1380.843,-166.2015 1379.3627,-152.78"/>
<polygon fill="#191970" stroke="#191970" points="1382.8095,-152.1553 1377.9617,-142.7346 1375.8766,-153.1222 1382.8095,-152.1553"/>
</g>
<!-- Node9&#45;&gt;Node4 -->
<g id="edge10" class="edge">
<title>Node9&#45;&gt;Node4</title>
<path fill="none" stroke="#191970" d="M1151.362,-235.2455C1133.5584,-225.9278 1106.6318,-211.8354 1087.1832,-201.6566"/>
<polygon fill="#191970" stroke="#191970" points="1088.7921,-198.5483 1078.3092,-197.0123 1085.5461,-204.7503 1088.7921,-198.5483"/>
</g>
<!-- Node9&#45;&gt;Node5 -->
<g id="edge11" class="edge">
<title>Node9&#45;&gt;Node5</title>
<path fill="none" stroke="#191970" d="M1196.8174,-235.3733C1222.6111,-226.114 1261.7745,-212.0553 1290.218,-201.8448"/>
<polygon fill="#191970" stroke="#191970" points="1291.5628,-205.0808 1299.7922,-198.4079 1289.1977,-198.4924 1291.5628,-205.0808"/>
</g>
<!-- Node9&#45;&gt;Node6 -->
<g id="edge12" class="edge">
<title>Node9&#45;&gt;Node6</title>
<path fill="none" stroke="#191970" d="M1187.8876,-235.4455C1214.2344,-220.1234 1261.9784,-187.228 1277,-143 1290.2516,-103.9835 1276.1659,-55.4802 1266.1622,-29.1633"/>
<polygon fill="#191970" stroke="#191970" points="1269.3112,-27.612 1262.342,-19.632 1262.8136,-30.2163 1269.3112,-27.612"/>
</g>
<!-- Node9&#45;&gt;Node8 -->
<g id="edge13" class="edge">
<title>Node9&#45;&gt;Node8</title>
<path fill="none" stroke="#191970" d="M1181.4518,-235.2999C1191.2683,-226.5513 1205.317,-212.9502 1215,-199 1225.1239,-184.4145 1233.4594,-166.0011 1238.9274,-152.3317"/>
<polygon fill="#191970" stroke="#191970" points="1242.2144,-153.5354 1242.5321,-142.9453 1235.6796,-151.0258 1242.2144,-153.5354"/>
</g>
<!-- Node10 -->
<g id="node11" class="node">
<title>Node10</title>
<g id="a_node11"><a xlink:href="Request_8hpp.html" target="_top" xlink:title="Request.hpp">
<polygon fill="#ffffff" stroke="#000000" points="1134,-179.5 1134,-198.5 1206,-198.5 1206,-179.5 1134,-179.5"/>
<text text-anchor="middle" x="1170" y="-186.5" font-family="Helvetica,sans-Serif" font-size="10.00" fill="#000000">Request.hpp</text>
</a>
</g>
</g>
<!-- Node9&#45;&gt;Node10 -->
<g id="edge14" class="edge">
<title>Node9&#45;&gt;Node10</title>
<path fill="none" stroke="#191970" d="M1170,-235.2455C1170,-227.9382 1170,-217.6944 1170,-208.7046"/>
<polygon fill="#191970" stroke="#191970" points="1173.5001,-208.6426 1170,-198.6427 1166.5001,-208.6427 1173.5001,-208.6426"/>
</g>
<!-- Node9&#45;&gt;Node11 -->
<g id="edge18" class="edge">
<title>Node9&#45;&gt;Node11</title>
<path fill="none" stroke="#191970" d="M1161.402,-235.4021C1147.4311,-220.5092 1118.2057,-192.1795 1087,-179 1061.0034,-168.0205 894.712,-149.7988 797.8249,-139.9056"/>
<polygon fill="#191970" stroke="#191970" points="798.1114,-136.4168 787.8086,-138.8872 797.4033,-143.3809 798.1114,-136.4168"/>
</g>
<!-- Node9&#45;&gt;Node12 -->
<g id="edge19" class="edge">
<title>Node9&#45;&gt;Node12</title>
<path fill="none" stroke="#191970" d="M1131.2352,-235.4369C1092.6308,-225.9133 1033.2616,-211.2672 991.5428,-200.9753"/>
<polygon fill="#191970" stroke="#191970" points="992.1521,-197.5208 981.6049,-198.5237 990.4755,-204.317 992.1521,-197.5208"/>
</g>
<!-- Node10&#45;&gt;Node8 -->
<g id="edge15" class="edge">
<title>Node10&#45;&gt;Node8</title>
<path fill="none" stroke="#191970" d="M1183.2382,-179.2455C1194.681,-170.814 1211.4296,-158.4729 1224.7475,-148.6598"/>
<polygon fill="#191970" stroke="#191970" points="1226.9391,-151.3924 1232.9135,-142.6427 1222.7867,-145.757 1226.9391,-151.3924"/>
</g>
<!-- Node10&#45;&gt;Node11 -->
<g id="edge16" class="edge">
<title>Node10&#45;&gt;Node11</title>
<path fill="none" stroke="#191970" d="M1133.7409,-181.3914C1129.126,-180.5282 1124.4592,-179.7064 1120,-179 1007.785,-161.2241 876.4894,-147.1779 797.9022,-139.4869"/>
<polygon fill="#191970" stroke="#191970" points="797.934,-135.9736 787.6423,-138.4896 797.2567,-142.9407 797.934,-135.9736"/>
</g>
<!-- Node11&#45;&gt;Node3 -->
<g id="edge17" class="edge">
<title>Node11&#45;&gt;Node3</title>
<path fill="none" stroke="#191970" d="M668.2697,-124.544C663.4468,-123.9784 658.6449,-123.4542 654,-123 391.2127,-97.3027 317.5501,-149.4466 61,-87 58.6573,-86.4298 56.2756,-85.7098 53.9131,-84.8941"/>
<polygon fill="#191970" stroke="#191970" points="55.0436,-81.5772 44.4578,-81.1394 52.4601,-88.083 55.0436,-81.5772"/>
</g>
<!-- Node12&#45;&gt;Node3 -->
<g id="edge20" class="edge">
<title>Node12&#45;&gt;Node3</title>
<path fill="none" stroke="#191970" d="M893.9597,-180.4995C890.9286,-179.9881 887.9233,-179.4848 885,-179 784.6598,-162.359 756.2679,-172.7328 659,-143 638.8435,-136.8386 636.4216,-128.2159 616,-123 376.5032,-61.8302 301.051,-145.9573 61,-87 58.6585,-86.4249 56.2777,-85.7015 53.9157,-84.8834"/>
<polygon fill="#191970" stroke="#191970" points="55.0471,-81.5668 44.4615,-81.1242 52.4607,-88.0714 55.0471,-81.5668"/>
</g>
<!-- Node12&#45;&gt;Node6 -->
<g id="edge21" class="edge">
<title>Node12&#45;&gt;Node6</title>
<path fill="none" stroke="#191970" d="M983.8705,-179.4166C1036.7163,-165.5656 1129.8084,-136.0835 1196,-87 1217.752,-70.8701 1236.2427,-45.3733 1247.2294,-28.183"/>
<polygon fill="#191970" stroke="#191970" points="1250.2541,-29.9463 1252.5342,-19.5997 1244.2996,-26.2662 1250.2541,-29.9463"/>
</g>
<!-- Node13 -->
<g id="node14" class="node">
<title>Node13</title>
<g id="a_node14"><a xlink:href="LogMacros_8hpp.html" target="_top" xlink:title="LogMacros.hpp">
<polygon fill="#ffffff" stroke="#000000" points="844.5,-123.5 844.5,-142.5 927.5,-142.5 927.5,-123.5 844.5,-123.5"/>
<text text-anchor="middle" x="886" y="-130.5" font-family="Helvetica,sans-Serif" font-size="10.00" fill="#000000">LogMacros.hpp</text>
</a>
</g>
</g>
<!-- Node12&#45;&gt;Node13 -->
<g id="edge22" class="edge">
<title>Node12&#45;&gt;Node13</title>
<path fill="none" stroke="#191970" d="M933.0714,-179.2455C924.8162,-171.1352 912.8791,-159.4075 903.0918,-149.7919"/>
<polygon fill="#191970" stroke="#191970" points="905.4011,-147.1542 895.8149,-142.6427 900.4954,-152.1476 905.4011,-147.1542"/>
</g>
<!-- Node13&#45;&gt;Node6 -->
<g id="edge29" class="edge">
<title>Node13&#45;&gt;Node6</title>
<path fill="none" stroke="#191970" d="M927.5326,-128.7359C994.1639,-121.4572 1121.6565,-105.6041 1163,-87 1171.5666,-83.1451 1213.6978,-47.8145 1238.8872,-26.374"/>
<polygon fill="#191970" stroke="#191970" points="1241.3723,-28.8545 1246.7073,-19.7009 1236.8284,-23.5297 1241.3723,-28.8545"/>
</g>
<!-- Node14 -->
<g id="node15" class="node">
<title>Node14</title>
<polygon fill="#ffffff" stroke="#bfbfbf" points="1054,-56.5 1054,-86.5 1154,-86.5 1154,-56.5 1054,-56.5"/>
<text text-anchor="start" x="1062" y="-74.5" font-family="Helvetica,sans-Serif" font-size="10.00" fill="#000000">boost/preprocessor</text>
<text text-anchor="middle" x="1104" y="-63.5" font-family="Helvetica,sans-Serif" font-size="10.00" fill="#000000">/control/if.hpp</text>
</g>
<!-- Node13&#45;&gt;Node14 -->
<g id="edge23" class="edge">
<title>Node13&#45;&gt;Node14</title>
<path fill="none" stroke="#191970" d="M920.0625,-123.3906C953.2513,-114.0277 1004.4054,-99.5966 1044.3506,-88.3277"/>
<polygon fill="#191970" stroke="#191970" points="1045.3124,-91.6931 1053.9864,-85.6093 1043.4117,-84.956 1045.3124,-91.6931"/>
</g>
<!-- Node15 -->
<g id="node16" class="node">
<title>Node15</title>
<polygon fill="#ffffff" stroke="#bfbfbf" points="286,-56.5 286,-86.5 390,-86.5 390,-56.5 286,-56.5"/>
<text text-anchor="start" x="294" y="-74.5" font-family="Helvetica,sans-Serif" font-size="10.00" fill="#000000">boost/preprocessor</text>
<text text-anchor="middle" x="338" y="-63.5" font-family="Helvetica,sans-Serif" font-size="10.00" fill="#000000">/facilities/empty.hpp</text>
</g>
<!-- Node13&#45;&gt;Node15 -->
<g id="edge24" class="edge">
<title>Node13&#45;&gt;Node15</title>
<path fill="none" stroke="#191970" d="M844.4771,-125.1401C839.607,-124.3503 834.7005,-123.6146 830,-123 642.6572,-98.5033 590.3555,-118.0841 400.1695,-87.0153"/>
<polygon fill="#191970" stroke="#191970" points="400.5608,-83.5324 390.1227,-85.3483 399.4149,-90.438 400.5608,-83.5324"/>
</g>
<!-- Node16 -->
<g id="node17" class="node">
<title>Node16</title>
<polygon fill="#ffffff" stroke="#bfbfbf" points="408,-56.5 408,-86.5 510,-86.5 510,-56.5 408,-56.5"/>
<text text-anchor="start" x="416" y="-74.5" font-family="Helvetica,sans-Serif" font-size="10.00" fill="#000000">boost/preprocessor</text>
<text text-anchor="middle" x="459" y="-63.5" font-family="Helvetica,sans-Serif" font-size="10.00" fill="#000000">/seq/for_each_i.hpp</text>
</g>
<!-- Node13&#45;&gt;Node16 -->
<g id="edge25" class="edge">
<title>Node13&#45;&gt;Node16</title>
<path fill="none" stroke="#191970" d="M844.4565,-125.2885C839.5901,-124.4721 834.6901,-123.6895 830,-123 695.5612,-103.2346 657.5641,-112.0235 520.3375,-87.0969"/>
<polygon fill="#191970" stroke="#191970" points="520.7519,-83.6144 510.283,-85.2431 519.4826,-90.4984 520.7519,-83.6144"/>
</g>
<!-- Node17 -->
<g id="node18" class="node">
<title>Node17</title>
<polygon fill="#ffffff" stroke="#bfbfbf" points="528,-56.5 528,-86.5 628,-86.5 628,-56.5 528,-56.5"/>
<text text-anchor="start" x="536" y="-74.5" font-family="Helvetica,sans-Serif" font-size="10.00" fill="#000000">boost/preprocessor</text>
<text text-anchor="middle" x="578" y="-63.5" font-family="Helvetica,sans-Serif" font-size="10.00" fill="#000000">/stringize.hpp</text>
</g>
<!-- Node13&#45;&gt;Node17 -->
<g id="edge26" class="edge">
<title>Node13&#45;&gt;Node17</title>
<path fill="none" stroke="#191970" d="M844.2754,-125.4669C784.5898,-114.6669 678.3287,-95.343 638.0433,-87.0578"/>
<polygon fill="#191970" stroke="#191970" points="638.6606,-83.6108 628.1502,-84.9458 637.1991,-90.4565 638.6606,-83.6108"/>
</g>
<!-- Node18 -->
<g id="node19" class="node">
<title>Node18</title>
<polygon fill="#ffffff" stroke="#bfbfbf" points="646,-56.5 646,-86.5 750,-86.5 750,-56.5 646,-56.5"/>
<text text-anchor="start" x="654" y="-74.5" font-family="Helvetica,sans-Serif" font-size="10.00" fill="#000000">boost/preprocessor</text>
<text text-anchor="middle" x="698" y="-63.5" font-family="Helvetica,sans-Serif" font-size="10.00" fill="#000000">/variadic/to_seq.hpp</text>
</g>
<!-- Node13&#45;&gt;Node18 -->
<g id="edge27" class="edge">
<title>Node13&#45;&gt;Node18</title>
<path fill="none" stroke="#191970" d="M856.625,-123.3906C829.179,-114.4123 787.4865,-100.7735 753.7324,-89.7316"/>
<polygon fill="#191970" stroke="#191970" points="754.5826,-86.3273 743.99,-86.5446 752.4061,-92.9803 754.5826,-86.3273"/>
</g>
<!-- Node19 -->
<g id="node20" class="node">
<title>Node19</title>
<polygon fill="#ffffff" stroke="#bfbfbf" points="768,-62 768,-81 892,-81 892,-62 768,-62"/>
<text text-anchor="middle" x="830" y="-69" font-family="Helvetica,sans-Serif" font-size="10.00" fill="#000000">boost/vmd/is_empty.hpp</text>
</g>
<!-- Node13&#45;&gt;Node19 -->
<g id="edge28" class="edge">
<title>Node13&#45;&gt;Node19</title>
<path fill="none" stroke="#191970" d="M877.25,-123.3906C868.8338,-114.1478 855.9203,-99.966 845.719,-88.7628"/>
<polygon fill="#191970" stroke="#191970" points="848.194,-86.2824 838.8734,-81.2449 843.0182,-90.9953 848.194,-86.2824"/>
</g>
<!-- Node20 -->
<g id="node21" class="node">
<title>Node20</title>
<g id="a_node21"><a xlink:href="Tracer_8hpp.html" target="_top" xlink:title="logging/Tracer.hpp">
<polygon fill="#ffffff" stroke="#000000" points="70.5,-62 70.5,-81 167.5,-81 167.5,-62 70.5,-62"/>
<text text-anchor="middle" x="119" y="-69" font-family="Helvetica,sans-Serif" font-size="10.00" fill="#000000">logging/Tracer.hpp</text>
</a>
</g>
</g>
<!-- Node13&#45;&gt;Node20 -->
<g id="edge30" class="edge">
<title>Node13&#45;&gt;Node20</title>
<path fill="none" stroke="#191970" d="M844.4934,-125.0085C839.6204,-124.2423 834.7087,-123.5482 830,-123 541.2868,-89.39 464.0375,-132.7645 177,-87 171.4676,-86.1179 165.7015,-84.923 160.0438,-83.5854"/>
<polygon fill="#191970" stroke="#191970" points="160.6035,-80.1169 150.0508,-81.0605 158.8887,-86.9036 160.6035,-80.1169"/>
</g>
<!-- Node21 -->
<g id="node22" class="node">
<title>Node21</title>
<polygon fill="#ffffff" stroke="#bfbfbf" points="910.5,-62 910.5,-81 1035.5,-81 1035.5,-62 910.5,-62"/>
<text text-anchor="middle" x="973" y="-69" font-family="Helvetica,sans-Serif" font-size="10.00" fill="#000000">prettyprint/prettyprint.hpp</text>
</g>
<!-- Node13&#45;&gt;Node21 -->
<g id="edge32" class="edge">
<title>Node13&#45;&gt;Node21</title>
<path fill="none" stroke="#191970" d="M899.5938,-123.3906C913.3843,-113.6421 934.9472,-98.3994 951.141,-86.9521"/>
<polygon fill="#191970" stroke="#191970" points="953.3563,-89.6723 959.5017,-81.0419 949.3156,-83.9563 953.3563,-89.6723"/>
</g>
<!-- Node22 -->
<g id="node23" class="node">
<title>Node22</title>
<g id="a_node23"><a xlink:href="String_8hpp.html" target="_top" xlink:title="utils/String.hpp">
<polygon fill="#ffffff" stroke="#000000" points="186,-62 186,-81 268,-81 268,-62 186,-62"/>
<text text-anchor="middle" x="227" y="-69" font-family="Helvetica,sans-Serif" font-size="10.00" fill="#000000">utils/String.hpp</text>
</a>
</g>
</g>
<!-- Node13&#45;&gt;Node22 -->
<g id="edge33" class="edge">
<title>Node13&#45;&gt;Node22</title>
<path fill="none" stroke="#191970" d="M844.4879,-125.0548C839.6159,-124.2803 834.7059,-123.5715 830,-123 585.4986,-93.3053 519.194,-131.7746 277,-87 272.5568,-86.1786 267.9535,-85.0916 263.4199,-83.8731"/>
<polygon fill="#191970" stroke="#191970" points="264.2751,-80.4769 253.6956,-81.0479 262.322,-87.199 264.2751,-80.4769"/>
</g>
<!-- Node20&#45;&gt;Node12 -->
<g id="edge31" class="edge">
<title>Node20&#45;&gt;Node12</title>
<path fill="none" stroke="#191970" d="M150.0536,-81.0428C158.701,-83.3586 168.1503,-85.5753 177,-87 449.073,-130.7998 530.114,-50.5656 796,-123 814.7947,-128.1202 817.3613,-134.7337 835,-143 859.8046,-154.6246 888.3354,-166.7235 909.8412,-175.594"/>
<polygon fill="#191970" stroke="#191970" points="908.6092,-178.8715 919.1894,-179.4291 911.2661,-172.3954 908.6092,-178.8715"/>
</g>
<!-- Node22&#45;&gt;Node6 -->
<g id="edge35" class="edge">
<title>Node22&#45;&gt;Node6</title>
<path fill="none" stroke="#191970" d="M253.4192,-61.9406C260.9432,-59.5947 269.2124,-57.3667 277,-56 466.0378,-22.8238 1081.2908,-12.4236 1226.9016,-10.398"/>
<polygon fill="#191970" stroke="#191970" points="1227.3585,-13.8922 1237.3099,-10.2565 1227.2632,-6.8929 1227.3585,-13.8922"/>
</g>
<!-- Node23 -->
<g id="node24" class="node">
<title>Node23</title>
<polygon fill="#ffffff" stroke="#bfbfbf" points="201,-.5 201,-19.5 253,-19.5 253,-.5 201,-.5"/>
<text text-anchor="middle" x="227" y="-7.5" font-family="Helvetica,sans-Serif" font-size="10.00" fill="#000000">sstream</text>
</g>
<!-- Node22&#45;&gt;Node23 -->
<g id="edge34" class="edge">
<title>Node22&#45;&gt;Node23</title>
<path fill="none" stroke="#191970" d="M227,-61.8906C227,-53.3657 227,-40.6392 227,-29.9235"/>
<polygon fill="#191970" stroke="#191970" points="230.5001,-29.7448 227,-19.7449 223.5001,-29.7449 230.5001,-29.7448"/>
</g>
<!-- Node24&#45;&gt;Node1 -->
<g id="edge38" class="edge">
<title>Node24&#45;&gt;Node1</title>
<path fill="none" stroke="#191970" d="M776.6964,-235.3733C739.8315,-225.8598 683.334,-211.2797 643.5494,-201.0127"/>
<polygon fill="#191970" stroke="#191970" points="644.3742,-197.611 633.8169,-198.5011 642.625,-204.3889 644.3742,-197.611"/>
</g>
<!-- Node24&#45;&gt;Node3 -->
<g id="edge41" class="edge">
<title>Node24&#45;&gt;Node3</title>
<path fill="none" stroke="#191970" d="M783.0468,-235.4432C756.3989,-226.8869 717.1213,-213.4857 684,-199 666.514,-191.3524 664.115,-185.0078 646,-179 521.0924,-137.5747 187.2358,-124.1819 61,-87 58.8764,-86.3745 56.7128,-85.6493 54.5556,-84.861"/>
<polygon fill="#191970" stroke="#191970" points="55.8657,-81.6155 45.2828,-81.114 53.2431,-88.1057 55.8657,-81.6155"/>
</g>
<!-- Node24&#45;&gt;Node6 -->
<g id="edge43" class="edge">
<title>Node24&#45;&gt;Node6</title>
<path fill="none" stroke="#191970" d="M867.436,-235.4579C905.417,-227.8128 957.2411,-215.613 1001,-199 1018.8427,-192.2261 1021.7197,-187.1017 1039,-179 1122.5042,-139.85 1163.4661,-155.6968 1225,-87 1239.806,-70.4705 1248.6854,-46.2921 1253.4434,-29.454"/>
<polygon fill="#191970" stroke="#191970" points="1256.8756,-30.1614 1255.9958,-19.6032 1250.0994,-28.4057 1256.8756,-30.1614"/>
</g>
<!-- Node24&#45;&gt;Node12 -->
<g id="edge44" class="edge">
<title>Node24&#45;&gt;Node12</title>
<path fill="none" stroke="#191970" d="M836.1759,-235.3733C856.9766,-226.3435 888.2917,-212.7494 911.6458,-202.6111"/>
<polygon fill="#191970" stroke="#191970" points="913.3343,-205.6938 921.1135,-198.5011 910.5468,-199.2727 913.3343,-205.6938"/>
</g>
<!-- Node25 -->
<g id="node26" class="node">
<title>Node25</title>
<polygon fill="#ffffff" stroke="#bfbfbf" points="693.5,-179.5 693.5,-198.5 736.5,-198.5 736.5,-179.5 693.5,-179.5"/>
<text text-anchor="middle" x="715" y="-186.5" font-family="Helvetica,sans-Serif" font-size="10.00" fill="#000000">deque</text>
</g>
<!-- Node24&#45;&gt;Node25 -->
<g id="edge39" class="edge">
<title>Node24&#45;&gt;Node25</title>
<path fill="none" stroke="#191970" d="M796.7555,-235.2455C781.4239,-226.5731 758.7801,-213.7645 741.2084,-203.825"/>
<polygon fill="#191970" stroke="#191970" points="742.4741,-200.5198 732.0469,-198.6427 739.0276,-206.6126 742.4741,-200.5198"/>
</g>
<!-- Node26 -->
<g id="node27" class="node">
<title>Node26</title>
<polygon fill="#ffffff" stroke="#bfbfbf" points="754.5,-179.5 754.5,-198.5 813.5,-198.5 813.5,-179.5 754.5,-179.5"/>
<text text-anchor="middle" x="784" y="-186.5" font-family="Helvetica,sans-Serif" font-size="10.00" fill="#000000">functional</text>
</g>
<!-- Node24&#45;&gt;Node26 -->
<g id="edge40" class="edge">
<title>Node24&#45;&gt;Node26</title>
<path fill="none" stroke="#191970" d="M808.7744,-235.2455C804.6877,-227.617 798.8865,-216.7881 793.925,-207.5267"/>
<polygon fill="#191970" stroke="#191970" points="796.9732,-205.8047 789.1657,-198.6427 790.8028,-209.1103 796.9732,-205.8047"/>
</g>
<!-- Node27 -->
<g id="node28" class="node">
<title>Node27</title>
<polygon fill="#ffffff" stroke="#bfbfbf" points="832,-179.5 832,-198.5 876,-198.5 876,-179.5 832,-179.5"/>
<text text-anchor="middle" x="854" y="-186.5" font-family="Helvetica,sans-Serif" font-size="10.00" fill="#000000">mutex</text>
</g>
<!-- Node24&#45;&gt;Node27 -->
<g id="edge42" class="edge">
<title>Node24&#45;&gt;Node27</title>
<path fill="none" stroke="#191970" d="M820.9675,-235.2455C826.5311,-227.4564 834.478,-216.3308 841.1829,-206.9439"/>
<polygon fill="#191970" stroke="#191970" points="844.148,-208.8144 847.1124,-198.6427 838.4519,-204.7457 844.148,-208.8144"/>
</g>
<!-- Node28&#45;&gt;Node6 -->
<g id="edge47" class="edge">
<title>Node28&#45;&gt;Node6</title>
<path fill="none" stroke="#191970" d="M1368.4747,-123.3883C1356.6178,-108.4418 1332.6046,-78.9605 1310,-56 1299.8263,-45.6661 1287.7299,-34.8854 1277.7652,-26.3602"/>
<polygon fill="#191970" stroke="#191970" points="1279.8832,-23.5677 1269.9851,-19.7889 1275.3663,-28.9155 1279.8832,-23.5677"/>
</g>
</g>
</svg>
