<?xml version="1.0" encoding="UTF-8" standalone="no"?>
<!DOCTYPE svg PUBLIC "-//W3C//DTD SVG 1.1//EN"
 "http://www.w3.org/Graphics/SVG/1.1/DTD/svg11.dtd">
<!-- Generated by graphviz version 2.40.1 (20161225.0304)
 -->
<!-- Title: src/com/SocketRequest.hpp Pages: 1 -->
<svg width="364pt" height="84pt"
 viewBox="0.00 0.00 364.00 84.00" xmlns="http://www.w3.org/2000/svg" xmlns:xlink="http://www.w3.org/1999/xlink">
<g id="graph0" class="graph" transform="scale(1 1) rotate(0) translate(4 80)">
<title>src/com/SocketRequest.hpp</title>
<polygon fill="#ffffff" stroke="transparent" points="-4,4 -4,-80 360,-80 360,4 -4,4"/>
<!-- Node7 -->
<g id="node1" class="node">
<title>Node7</title>
<polygon fill="#bfbfbf" stroke="#000000" points="111.5,-56.5 111.5,-75.5 262.5,-75.5 262.5,-56.5 111.5,-56.5"/>
<text text-anchor="middle" x="187" y="-63.5" font-family="Helvetica,sans-Serif" font-size="10.00" fill="#000000">src/com/SocketRequest.hpp</text>
</g>
<!-- Node8 -->
<g id="node2" class="node">
<title>Node8</title>
<g id="a_node2"><a xlink:href="SocketCommunication_8cpp.html" target="_top" xlink:title="src/com/SocketCommunication.cpp">
<polygon fill="#ffffff" stroke="#000000" points="0,-.5 0,-19.5 188,-19.5 188,-.5 0,-.5"/>
<text text-anchor="middle" x="94" y="-7.5" font-family="Helvetica,sans-Serif" font-size="10.00" fill="#000000">src/com/SocketCommunication.cpp</text>
</a>
</g>
</g>
<!-- Node7&#45;&gt;Node8 -->
<g id="edge1" class="edge">
<title>Node7&#45;&gt;Node8</title>
<path fill="none" stroke="#191970" d="M162.1665,-51.0465C145.6189,-41.0824 124.3568,-28.2794 110.0137,-19.6427"/>
<polygon fill="#191970" stroke="#191970" points="160.4283,-54.0854 170.8006,-56.2455 164.0393,-48.0886 160.4283,-54.0854"/>
</g>
<!-- Node9 -->
<g id="node3" class="node">
<title>Node9</title>
<g id="a_node3"><a xlink:href="SocketRequest_8cpp.html" target="_top" xlink:title="src/com/SocketRequest.cpp">
<polygon fill="#ffffff" stroke="#000000" points="206,-.5 206,-19.5 356,-19.5 356,-.5 206,-.5"/>
<text text-anchor="middle" x="281" y="-7.5" font-family="Helvetica,sans-Serif" font-size="10.00" fill="#000000">src/com/SocketRequest.cpp</text>
</a>
</g>
</g>
<!-- Node7&#45;&gt;Node9 -->
<g id="edge2" class="edge">
<title>Node7&#45;&gt;Node9</title>
<path fill="none" stroke="#191970" d="M212.1005,-51.0465C228.826,-41.0824 250.3168,-28.2794 264.8141,-19.6427"/>
<polygon fill="#191970" stroke="#191970" points="210.1732,-48.1206 203.3736,-56.2455 213.7559,-54.1343 210.1732,-48.1206"/>
</g>
</g>
</svg>
