<?xml version="1.0" encoding="UTF-8" standalone="no"?>
<!DOCTYPE svg PUBLIC "-//W3C//DTD SVG 1.1//EN"
 "http://www.w3.org/Graphics/SVG/1.1/DTD/svg11.dtd">
<!-- Generated by graphviz version 2.40.1 (20161225.0304)
 -->
<!-- Title: ExplicitCouplingSchemeFixture Pages: 1 -->
<svg width="287pt" height="163pt"
 viewBox="0.00 0.00 287.00 163.00" xmlns="http://www.w3.org/2000/svg" xmlns:xlink="http://www.w3.org/1999/xlink">
<g id="graph0" class="graph" transform="scale(1 1) rotate(0) translate(4 159)">
<title>ExplicitCouplingSchemeFixture</title>
<polygon fill="#ffffff" stroke="transparent" points="-4,4 -4,-159 283,-159 283,4 -4,4"/>
<!-- Node2 -->
<g id="node1" class="node">
<title>Node2</title>
<polygon fill="#bfbfbf" stroke="#000000" points="20.5,-.5 20.5,-19.5 187.5,-19.5 187.5,-.5 20.5,-.5"/>
<text text-anchor="middle" x="104" y="-7.5" font-family="Helvetica,sans-Serif" font-size="10.00" fill="#000000">ExplicitCouplingSchemeFixture</text>
</g>
<!-- Node3 -->
<g id="node2" class="node">
<title>Node3</title>
<g id="a_node2"><a xlink:href="structprecice_1_1m2n_1_1WhiteboxAccessor.html" target="_top" xlink:title="struct giving access _useOnlyMasterCom ">
<polygon fill="#ffffff" stroke="#000000" points="0,-67.5 0,-86.5 176,-86.5 176,-67.5 0,-67.5"/>
<text text-anchor="middle" x="88" y="-74.5" font-family="Helvetica,sans-Serif" font-size="10.00" fill="#000000">precice::m2n::WhiteboxAccessor</text>
</a>
</g>
</g>
<!-- Node3&#45;&gt;Node2 -->
<g id="edge1" class="edge">
<title>Node3&#45;&gt;Node2</title>
<path fill="none" stroke="#191970" d="M92.66,-57.4863C95.635,-45.0286 99.361,-29.4258 101.7118,-19.5817"/>
<polygon fill="#191970" stroke="#191970" points="89.211,-56.861 90.2924,-67.4005 96.0195,-58.487 89.211,-56.861"/>
</g>
<!-- Node4 -->
<g id="node3" class="node">
<title>Node4</title>
<g id="a_node3"><a xlink:title="STL class. ">
<polygon fill="#ffffff" stroke="#bfbfbf" points="194.5,-67.5 194.5,-86.5 259.5,-86.5 259.5,-67.5 194.5,-67.5"/>
<text text-anchor="middle" x="227" y="-74.5" font-family="Helvetica,sans-Serif" font-size="10.00" fill="#000000">std::string</text>
</a>
</g>
</g>
<!-- Node4&#45;&gt;Node2 -->
<g id="edge2" class="edge">
<title>Node4&#45;&gt;Node2</title>
<path fill="none" stroke="#9a32cd" stroke-dasharray="5,2" d="M200.4862,-62.5575C176.619,-49.5567 142.2178,-30.8179 121.5902,-19.5817"/>
<polygon fill="#9a32cd" stroke="#9a32cd" points="198.9212,-65.6906 209.3771,-67.4005 202.2697,-59.5434 198.9212,-65.6906"/>
<text text-anchor="middle" x="205" y="-41" font-family="Helvetica,sans-Serif" font-size="10.00" fill="#000000"> _pathToTests</text>
</g>
<!-- Node5 -->
<g id="node4" class="node">
<title>Node5</title>
<g id="a_node4"><a xlink:title="STL class. ">
<polygon fill="#ffffff" stroke="#bfbfbf" points="175,-124.5 175,-154.5 279,-154.5 279,-124.5 175,-124.5"/>
<text text-anchor="start" x="183" y="-142.5" font-family="Helvetica,sans-Serif" font-size="10.00" fill="#000000">std::basic_string&lt;</text>
<text text-anchor="middle" x="227" y="-131.5" font-family="Helvetica,sans-Serif" font-size="10.00" fill="#000000"> char &gt;</text>
</a>
</g>
</g>
<!-- Node5&#45;&gt;Node4 -->
<g id="edge3" class="edge">
<title>Node5&#45;&gt;Node4</title>
<path fill="none" stroke="#191970" d="M227,-114.3498C227,-104.6481 227,-94.1303 227,-86.7356"/>
<polygon fill="#191970" stroke="#191970" points="223.5001,-114.3705 227,-124.3705 230.5001,-114.3705 223.5001,-114.3705"/>
</g>
</g>
</svg>
