<?xml version="1.0" encoding="UTF-8" standalone="no"?>
<!DOCTYPE svg PUBLIC "-//W3C//DTD SVG 1.1//EN"
 "http://www.w3.org/Graphics/SVG/1.1/DTD/svg11.dtd">
<!-- Generated by graphviz version 2.40.1 (20161225.0304)
 -->
<!-- Title: precice::xml::ConfigParser::CTag Pages: 1 -->
<svg width="667pt" height="158pt"
 viewBox="0.00 0.00 667.00 157.50" xmlns="http://www.w3.org/2000/svg" xmlns:xlink="http://www.w3.org/1999/xlink">
<g id="graph0" class="graph" transform="scale(1 1) rotate(0) translate(4 153.5)">
<title>precice::xml::ConfigParser::CTag</title>
<polygon fill="#ffffff" stroke="transparent" points="-4,4 -4,-153.5 663,-153.5 663,4 -4,4"/>
<!-- Node1 -->
<g id="node1" class="node">
<title>Node1</title>
<polygon fill="#bfbfbf" stroke="#000000" points="526,-52.5 526,-82.5 659,-82.5 659,-52.5 526,-52.5"/>
<text text-anchor="start" x="534" y="-70.5" font-family="Helvetica,sans-Serif" font-size="10.00" fill="#000000">precice::xml::ConfigParser</text>
<text text-anchor="middle" x="592.5" y="-59.5" font-family="Helvetica,sans-Serif" font-size="10.00" fill="#000000">::CTag</text>
</g>
<!-- Node2 -->
<g id="node2" class="node">
<title>Node2</title>
<polygon fill="#ffffff" stroke="#bfbfbf" points="268,-108 268,-149 426,-149 426,-108 268,-108"/>
<text text-anchor="start" x="276" y="-137" font-family="Helvetica,sans-Serif" font-size="10.00" fill="#000000">std::vector&lt; std::shared</text>
<text text-anchor="start" x="276" y="-126" font-family="Helvetica,sans-Serif" font-size="10.00" fill="#000000">_ptr&lt; precice::xml::ConfigParser</text>
<text text-anchor="middle" x="347" y="-115" font-family="Helvetica,sans-Serif" font-size="10.00" fill="#000000">::CTag &gt; &gt;</text>
</g>
<!-- Node2&#45;&gt;Node1 -->
<g id="edge1" class="edge">
<title>Node2&#45;&gt;Node1</title>
<path fill="none" stroke="#9a32cd" stroke-dasharray="5,2" d="M435.8156,-106.4318C467.7276,-98.5025 502.9605,-89.7481 531.9204,-82.5524"/>
<polygon fill="#9a32cd" stroke="#9a32cd" points="434.89,-103.0553 426.0291,-108.8634 436.578,-109.8487 434.89,-103.0553"/>
<text text-anchor="middle" x="476" y="-105.5" font-family="Helvetica,sans-Serif" font-size="10.00" fill="#000000"> m_aSubTags</text>
</g>
<!-- Node3 -->
<g id="node3" class="node">
<title>Node3</title>
<polygon fill="#ffffff" stroke="#bfbfbf" points="292,-.5 292,-30.5 402,-30.5 402,-.5 292,-.5"/>
<text text-anchor="start" x="300" y="-18.5" font-family="Helvetica,sans-Serif" font-size="10.00" fill="#000000">std::map&lt; std::string,</text>
<text text-anchor="middle" x="347" y="-7.5" font-family="Helvetica,sans-Serif" font-size="10.00" fill="#000000"> std::string &gt;</text>
</g>
<!-- Node3&#45;&gt;Node1 -->
<g id="edge2" class="edge">
<title>Node3&#45;&gt;Node1</title>
<path fill="none" stroke="#9a32cd" stroke-dasharray="5,2" d="M412.2516,-24.5988C441.6707,-29.1733 476.7511,-35.2852 508,-42.5 520.2234,-45.3221 533.2859,-48.9013 545.3958,-52.4631"/>
<polygon fill="#9a32cd" stroke="#9a32cd" points="412.5116,-21.098 402.0973,-23.0456 411.4531,-28.0175 412.5116,-21.098"/>
<text text-anchor="middle" x="476" y="-45.5" font-family="Helvetica,sans-Serif" font-size="10.00" fill="#000000"> m_aAttributes</text>
</g>
<!-- Node4 -->
<g id="node4" class="node">
<title>Node4</title>
<g id="a_node4"><a xlink:title="STL class. ">
<polygon fill="#ffffff" stroke="#bfbfbf" points="132,-32 132,-51 192,-51 192,-32 132,-32"/>
<text text-anchor="middle" x="162" y="-39" font-family="Helvetica,sans-Serif" font-size="10.00" fill="#000000">std::string</text>
</a>
</g>
</g>
<!-- Node4&#45;&gt;Node1 -->
<g id="edge5" class="edge">
<title>Node4&#45;&gt;Node1</title>
<path fill="none" stroke="#9a32cd" stroke-dasharray="5,2" d="M201.8793,-52.1355C204.6154,-52.6594 207.3409,-53.1232 210,-53.5 319.8748,-69.0714 449.1711,-70.2847 525.7924,-69.2463"/>
<polygon fill="#9a32cd" stroke="#9a32cd" points="202.5363,-48.6969 192.0248,-50.0234 201.0692,-55.5414 202.5363,-48.6969"/>
<text text-anchor="middle" x="347" y="-82.5" font-family="Helvetica,sans-Serif" font-size="10.00" fill="#000000"> m_Prefix</text>
<text text-anchor="middle" x="347" y="-71.5" font-family="Helvetica,sans-Serif" font-size="10.00" fill="#000000">m_Name</text>
</g>
<!-- Node4&#45;&gt;Node3 -->
<g id="edge3" class="edge">
<title>Node4&#45;&gt;Node3</title>
<path fill="none" stroke="#9a32cd" stroke-dasharray="5,2" d="M202.2344,-32.8449C204.8578,-32.365 207.4635,-31.9115 210,-31.5 236.8284,-27.1476 266.7973,-23.5095 291.8484,-20.8078"/>
<polygon fill="#9a32cd" stroke="#9a32cd" points="201.2935,-29.4618 192.1379,-34.7934 202.62,-36.335 201.2935,-29.4618"/>
<text text-anchor="middle" x="230" y="-45.5" font-family="Helvetica,sans-Serif" font-size="10.00" fill="#000000"> keys</text>
<text text-anchor="middle" x="230" y="-34.5" font-family="Helvetica,sans-Serif" font-size="10.00" fill="#000000">elements</text>
</g>
<!-- Node5 -->
<g id="node5" class="node">
<title>Node5</title>
<g id="a_node5"><a xlink:title="STL class. ">
<polygon fill="#ffffff" stroke="#bfbfbf" points="0,-26.5 0,-56.5 95,-56.5 95,-26.5 0,-26.5"/>
<text text-anchor="start" x="8" y="-44.5" font-family="Helvetica,sans-Serif" font-size="10.00" fill="#000000">std::basic_string&lt;</text>
<text text-anchor="middle" x="47.5" y="-33.5" font-family="Helvetica,sans-Serif" font-size="10.00" fill="#000000"> char &gt;</text>
</a>
</g>
</g>
<!-- Node5&#45;&gt;Node4 -->
<g id="edge4" class="edge">
<title>Node5&#45;&gt;Node4</title>
<path fill="none" stroke="#191970" d="M105.3356,-41.5C114.4701,-41.5 123.5847,-41.5 131.7491,-41.5"/>
<polygon fill="#191970" stroke="#191970" points="105.0636,-38.0001 95.0636,-41.5 105.0636,-45.0001 105.0636,-38.0001"/>
</g>
</g>
</svg>
