<?xml version="1.0" encoding="UTF-8" standalone="no"?>
<!DOCTYPE svg PUBLIC "-//W3C//DTD SVG 1.1//EN"
 "http://www.w3.org/Graphics/SVG/1.1/DTD/svg11.dtd">
<!-- Generated by graphviz version 2.40.1 (20161225.0304)
 -->
<!-- Title: precice::query::ClosestElement::ClosestElement Pages: 1 -->
<svg width="320pt" height="39pt"
 viewBox="0.00 0.00 320.00 39.00" xmlns="http://www.w3.org/2000/svg" xmlns:xlink="http://www.w3.org/1999/xlink">
<g id="graph0" class="graph" transform="scale(1 1) rotate(0) translate(4 35)">
<title>precice::query::ClosestElement::ClosestElement</title>
<polygon fill="#ffffff" stroke="transparent" points="-4,4 -4,-35 316,-35 316,4 -4,4"/>
<!-- Node0 -->
<g id="node1" class="node">
<title>Node0</title>
<polygon fill="#bfbfbf" stroke="#000000" points="0,-.5 0,-30.5 154,-30.5 154,-.5 0,-.5"/>
<text text-anchor="start" x="8" y="-18.5" font-family="Helvetica,sans-Serif" font-size="10.00" fill="#000000">precice::query::ClosestElement</text>
<text text-anchor="middle" x="77" y="-7.5" font-family="Helvetica,sans-Serif" font-size="10.00" fill="#000000">::ClosestElement</text>
</g>
<!-- Node1 -->
<g id="node2" class="node">
<title>Node1</title>
<g id="a_node2"><a xlink:href="namespaceprecice_1_1query.html#af26087a458327ddbe22c10a6ee27dfd4" target="_top" xlink:title="Generates the InterpolationElements for directly projecting a Vertex on another Vertex. ">
<polygon fill="#ffffff" stroke="#000000" points="190,-.5 190,-30.5 312,-30.5 312,-.5 190,-.5"/>
<text text-anchor="start" x="198" y="-18.5" font-family="Helvetica,sans-Serif" font-size="10.00" fill="#000000">precice::query::generate</text>
<text text-anchor="middle" x="251" y="-7.5" font-family="Helvetica,sans-Serif" font-size="10.00" fill="#000000">InterpolationElements</text>
</a>
</g>
</g>
<!-- Node0&#45;&gt;Node1 -->
<g id="edge1" class="edge">
<title>Node0&#45;&gt;Node1</title>
<path fill="none" stroke="#191970" d="M154.0788,-15.5C162.6094,-15.5 171.2689,-15.5 179.7235,-15.5"/>
<polygon fill="#191970" stroke="#191970" points="179.9122,-19.0001 189.9122,-15.5 179.9121,-12.0001 179.9122,-19.0001"/>
</g>
</g>
</svg>
