<?xml version="1.0" encoding="UTF-8" standalone="no"?>
<!DOCTYPE svg PUBLIC "-//W3C//DTD SVG 1.1//EN"
 "http://www.w3.org/Graphics/SVG/1.1/DTD/svg11.dtd">
<!-- Generated by graphviz version 2.40.1 (20161225.0304)
 -->
<!-- Title: src/mesh/Triangle.cpp Pages: 1 -->
<svg width="1648pt" height="621pt"
 viewBox="0.00 0.00 1648.00 621.00" xmlns="http://www.w3.org/2000/svg" xmlns:xlink="http://www.w3.org/1999/xlink">
<g id="graph0" class="graph" transform="scale(1 1) rotate(0) translate(4 617)">
<title>src/mesh/Triangle.cpp</title>
<polygon fill="#ffffff" stroke="transparent" points="-4,4 -4,-617 1644,-617 1644,4 -4,4"/>
<!-- Node0 -->
<g id="node1" class="node">
<title>Node0</title>
<polygon fill="#bfbfbf" stroke="#000000" points="1047,-593.5 1047,-612.5 1160,-612.5 1160,-593.5 1047,-593.5"/>
<text text-anchor="middle" x="1103.5" y="-600.5" font-family="Helvetica,sans-Serif" font-size="10.00" fill="#000000">src/mesh/Triangle.cpp</text>
</g>
<!-- Node1 -->
<g id="node2" class="node">
<title>Node1</title>
<g id="a_node2"><a xlink:href="Triangle_8hpp.html" target="_top" xlink:title="Triangle.hpp">
<polygon fill="#ffffff" stroke="#000000" points="768.5,-537.5 768.5,-556.5 838.5,-556.5 838.5,-537.5 768.5,-537.5"/>
<text text-anchor="middle" x="803.5" y="-544.5" font-family="Helvetica,sans-Serif" font-size="10.00" fill="#000000">Triangle.hpp</text>
</a>
</g>
</g>
<!-- Node0&#45;&gt;Node1 -->
<g id="edge1" class="edge">
<title>Node0&#45;&gt;Node1</title>
<path fill="none" stroke="#191970" d="M1052.269,-593.4369C995.0416,-582.7544 903.2867,-565.6269 848.6537,-555.4287"/>
<polygon fill="#191970" stroke="#191970" points="849.0448,-551.9413 838.5723,-553.5468 847.7602,-558.8225 849.0448,-551.9413"/>
</g>
<!-- Node2 -->
<g id="node3" class="node">
<title>Node2</title>
<polygon fill="#ffffff" stroke="#bfbfbf" points="739,-302.5 739,-321.5 804,-321.5 804,-302.5 739,-302.5"/>
<text text-anchor="middle" x="771.5" y="-309.5" font-family="Helvetica,sans-Serif" font-size="10.00" fill="#000000">Eigen/Core</text>
</g>
<!-- Node0&#45;&gt;Node2 -->
<g id="edge57" class="edge">
<title>Node0&#45;&gt;Node2</title>
<path fill="none" stroke="#191970" d="M1109.107,-593.4834C1119.6774,-574.6141 1141.5,-530.8343 1141.5,-491 1141.5,-491 1141.5,-491 1141.5,-429.5 1141.5,-361.4645 911.3735,-327.6602 814.0975,-316.4101"/>
<polygon fill="#191970" stroke="#191970" points="814.3407,-312.9154 804.0108,-315.2696 813.5542,-319.8711 814.3407,-312.9154"/>
</g>
<!-- Node3 -->
<g id="node4" class="node">
<title>Node3</title>
<polygon fill="#ffffff" stroke="#bfbfbf" points="1019.5,-481.5 1019.5,-500.5 1075.5,-500.5 1075.5,-481.5 1019.5,-481.5"/>
<text text-anchor="middle" x="1047.5" y="-488.5" font-family="Helvetica,sans-Serif" font-size="10.00" fill="#000000">algorithm</text>
</g>
<!-- Node0&#45;&gt;Node3 -->
<g id="edge60" class="edge">
<title>Node0&#45;&gt;Node3</title>
<path fill="none" stroke="#191970" d="M1098.7255,-593.4509C1089.468,-574.936 1068.9295,-533.8591 1056.8593,-509.7187"/>
<polygon fill="#191970" stroke="#191970" points="1059.8651,-507.9039 1052.2624,-500.5249 1053.6041,-511.0344 1059.8651,-507.9039"/>
</g>
<!-- Node6 -->
<g id="node7" class="node">
<title>Node6</title>
<g id="a_node7"><a xlink:href="differences_8hpp.html" target="_top" xlink:title="math/differences.hpp">
<polygon fill="#ffffff" stroke="#000000" points="541.5,-358.5 541.5,-377.5 649.5,-377.5 649.5,-358.5 541.5,-358.5"/>
<text text-anchor="middle" x="595.5" y="-365.5" font-family="Helvetica,sans-Serif" font-size="10.00" fill="#000000">math/differences.hpp</text>
</a>
</g>
</g>
<!-- Node0&#45;&gt;Node6 -->
<g id="edge63" class="edge">
<title>Node0&#45;&gt;Node6</title>
<path fill="none" stroke="#191970" d="M1046.9986,-598.7339C954.7883,-591.3643 776.1464,-575.2712 715.5,-557 662.5929,-541.0604 635.0381,-547.0506 604.5,-501 581.6797,-466.5876 586.2968,-415.5399 591.1911,-387.7599"/>
<polygon fill="#191970" stroke="#191970" points="594.6727,-388.193 593.1589,-377.7069 587.8031,-386.8483 594.6727,-388.193"/>
</g>
<!-- Node31 -->
<g id="node32" class="node">
<title>Node31</title>
<g id="a_node32"><a xlink:href="Edge_8hpp.html" target="_top" xlink:title="mesh/Edge.hpp">
<polygon fill="#ffffff" stroke="#000000" points="614,-481.5 614,-500.5 699,-500.5 699,-481.5 614,-481.5"/>
<text text-anchor="middle" x="656.5" y="-488.5" font-family="Helvetica,sans-Serif" font-size="10.00" fill="#000000">mesh/Edge.hpp</text>
</a>
</g>
</g>
<!-- Node0&#45;&gt;Node31 -->
<g id="edge64" class="edge">
<title>Node0&#45;&gt;Node31</title>
<path fill="none" stroke="#191970" d="M1046.7911,-598.4222C963.1307,-591.1611 810.9804,-575.8734 759.5,-557 727.5394,-545.2828 695.2239,-522.3659 675.5263,-506.8666"/>
<polygon fill="#191970" stroke="#191970" points="677.6385,-504.0739 667.6527,-500.5335 673.2511,-509.5283 677.6385,-504.0739"/>
</g>
<!-- Node32 -->
<g id="node33" class="node">
<title>Node32</title>
<g id="a_node33"><a xlink:href="Vertex_8hpp.html" target="_top" xlink:title="mesh/Vertex.hpp">
<polygon fill="#ffffff" stroke="#000000" points="429,-420 429,-439 520,-439 520,-420 429,-420"/>
<text text-anchor="middle" x="474.5" y="-427" font-family="Helvetica,sans-Serif" font-size="10.00" fill="#000000">mesh/Vertex.hpp</text>
</a>
</g>
</g>
<!-- Node0&#45;&gt;Node32 -->
<g id="edge65" class="edge">
<title>Node0&#45;&gt;Node32</title>
<path fill="none" stroke="#191970" d="M1046.8925,-601.6418C911.0886,-597.9323 574.9549,-585.9095 533.5,-557 497.2936,-531.7506 482.7926,-478.4809 477.4029,-449.427"/>
<polygon fill="#191970" stroke="#191970" points="480.8047,-448.5479 475.7087,-439.2591 473.8999,-449.6984 480.8047,-448.5479"/>
</g>
<!-- Node36 -->
<g id="node37" class="node">
<title>Node36</title>
<polygon fill="#ffffff" stroke="#bfbfbf" points="1170,-537.5 1170,-556.5 1243,-556.5 1243,-537.5 1170,-537.5"/>
<text text-anchor="middle" x="1206.5" y="-544.5" font-family="Helvetica,sans-Serif" font-size="10.00" fill="#000000">Eigen/Dense</text>
</g>
<!-- Node0&#45;&gt;Node36 -->
<g id="edge58" class="edge">
<title>Node0&#45;&gt;Node36</title>
<path fill="none" stroke="#191970" d="M1121.4412,-593.2455C1137.54,-584.4928 1161.3879,-571.527 1179.7391,-561.5496"/>
<polygon fill="#191970" stroke="#191970" points="1181.6507,-564.4942 1188.7644,-556.6427 1178.3071,-558.3444 1181.6507,-564.4942"/>
</g>
<!-- Node37 -->
<g id="node38" class="node">
<title>Node37</title>
<polygon fill="#ffffff" stroke="#bfbfbf" points="1261,-537.5 1261,-556.5 1348,-556.5 1348,-537.5 1261,-537.5"/>
<text text-anchor="middle" x="1304.5" y="-544.5" font-family="Helvetica,sans-Serif" font-size="10.00" fill="#000000">Eigen/Geometry</text>
</g>
<!-- Node0&#45;&gt;Node37 -->
<g id="edge59" class="edge">
<title>Node0&#45;&gt;Node37</title>
<path fill="none" stroke="#191970" d="M1138.0531,-593.3733C1171.9104,-583.9404 1223.646,-569.5265 1260.4426,-559.2747"/>
<polygon fill="#191970" stroke="#191970" points="1261.704,-562.5566 1270.3978,-556.5011 1259.8253,-555.8135 1261.704,-562.5566"/>
</g>
<!-- Node38 -->
<g id="node39" class="node">
<title>Node38</title>
<polygon fill="#ffffff" stroke="#bfbfbf" points="1366,-537.5 1366,-556.5 1493,-556.5 1493,-537.5 1366,-537.5"/>
<text text-anchor="middle" x="1429.5" y="-544.5" font-family="Helvetica,sans-Serif" font-size="10.00" fill="#000000">boost/concept/assert.hpp</text>
</g>
<!-- Node0&#45;&gt;Node38 -->
<g id="edge61" class="edge">
<title>Node0&#45;&gt;Node38</title>
<path fill="none" stroke="#191970" d="M1159.171,-593.4369C1215.9011,-583.6918 1303.855,-568.5832 1363.9247,-558.2645"/>
<polygon fill="#191970" stroke="#191970" points="1364.7956,-561.6662 1374.0586,-556.5237 1363.6104,-554.7673 1364.7956,-561.6662"/>
</g>
<!-- Node39 -->
<g id="node40" class="node">
<title>Node39</title>
<polygon fill="#ffffff" stroke="#bfbfbf" points="1511,-537.5 1511,-556.5 1640,-556.5 1640,-537.5 1511,-537.5"/>
<text text-anchor="middle" x="1575.5" y="-544.5" font-family="Helvetica,sans-Serif" font-size="10.00" fill="#000000">boost/range/concepts.hpp</text>
</g>
<!-- Node0&#45;&gt;Node39 -->
<g id="edge62" class="edge">
<title>Node0&#45;&gt;Node39</title>
<path fill="none" stroke="#191970" d="M1160.0401,-596.8662C1235.44,-588.6008 1373.3398,-573.1865 1500.6995,-557.2092"/>
<polygon fill="#191970" stroke="#191970" points="1501.146,-560.6807 1510.6307,-555.9594 1500.2719,-553.7354 1501.146,-560.6807"/>
</g>
<!-- Node40 -->
<g id="node41" class="node">
<title>Node40</title>
<g id="a_node41"><a xlink:href="EigenIO_8hpp.html" target="_top" xlink:title="utils/EigenIO.hpp">
<polygon fill="#ffffff" stroke="#000000" points="926.5,-358.5 926.5,-377.5 1018.5,-377.5 1018.5,-358.5 926.5,-358.5"/>
<text text-anchor="middle" x="972.5" y="-365.5" font-family="Helvetica,sans-Serif" font-size="10.00" fill="#000000">utils/EigenIO.hpp</text>
</a>
</g>
</g>
<!-- Node0&#45;&gt;Node40 -->
<g id="edge66" class="edge">
<title>Node0&#45;&gt;Node40</title>
<path fill="none" stroke="#191970" d="M1103.954,-593.2115C1104.5454,-571.6758 1103.7324,-519.0758 1084.5,-481 1063.3535,-439.1347 1020.9837,-403.0917 994.8492,-383.5664"/>
<polygon fill="#191970" stroke="#191970" points="996.804,-380.6601 986.6627,-377.5935 992.6781,-386.315 996.804,-380.6601"/>
</g>
<!-- Node1&#45;&gt;Node2 -->
<g id="edge2" class="edge">
<title>Node1&#45;&gt;Node2</title>
<path fill="none" stroke="#191970" d="M802.2059,-537.4967C797.4321,-502.4391 780.7473,-379.9096 774.1826,-331.7"/>
<polygon fill="#191970" stroke="#191970" points="777.6275,-331.0579 772.8102,-321.6216 770.6915,-332.0024 777.6275,-331.0579"/>
</g>
<!-- Node1&#45;&gt;Node3 -->
<g id="edge3" class="edge">
<title>Node1&#45;&gt;Node3</title>
<path fill="none" stroke="#191970" d="M838.5566,-539.1267C878.8629,-530.0489 947.0003,-514.6247 1005.5,-501 1006.773,-500.7035 1008.0674,-500.401 1009.3744,-500.0947"/>
<polygon fill="#191970" stroke="#191970" points="1010.5651,-503.41 1019.4949,-497.7084 1008.9586,-496.5969 1010.5651,-503.41"/>
</g>
<!-- Node4 -->
<g id="node5" class="node">
<title>Node4</title>
<polygon fill="#ffffff" stroke="#bfbfbf" points="699.5,-420 699.5,-439 737.5,-439 737.5,-420 699.5,-420"/>
<text text-anchor="middle" x="718.5" y="-427" font-family="Helvetica,sans-Serif" font-size="10.00" fill="#000000">array</text>
</g>
<!-- Node1&#45;&gt;Node4 -->
<g id="edge4" class="edge">
<title>Node1&#45;&gt;Node4</title>
<path fill="none" stroke="#191970" d="M789.6867,-537.333C778.2879,-528.8067 762.2896,-515.5073 751.5,-501 739.6824,-485.1104 730.6734,-464.3124 725.0779,-449.247"/>
<polygon fill="#191970" stroke="#191970" points="728.2457,-447.7061 721.6154,-439.4423 721.6451,-450.0371 728.2457,-447.7061"/>
</g>
<!-- Node5 -->
<g id="node6" class="node">
<title>Node5</title>
<polygon fill="#ffffff" stroke="#bfbfbf" points="691.5,-241 691.5,-260 745.5,-260 745.5,-241 691.5,-241"/>
<text text-anchor="middle" x="718.5" y="-248" font-family="Helvetica,sans-Serif" font-size="10.00" fill="#000000">iostream</text>
</g>
<!-- Node1&#45;&gt;Node5 -->
<g id="edge5" class="edge">
<title>Node1&#45;&gt;Node5</title>
<path fill="none" stroke="#191970" d="M838.5988,-541.0921C881.9589,-533.1859 952.4616,-518.1551 972.5,-501 1024.2274,-456.7156 1066.9542,-413.4996 1027.5,-358 995.1648,-312.5145 830.402,-273.5178 755.5688,-257.8492"/>
<polygon fill="#191970" stroke="#191970" points="756.131,-254.3915 745.6295,-255.7948 754.7141,-261.2466 756.131,-254.3915"/>
</g>
<!-- Node1&#45;&gt;Node6 -->
<g id="edge6" class="edge">
<title>Node1&#45;&gt;Node6</title>
<path fill="none" stroke="#191970" d="M800.5428,-537.3659C791.9148,-509.8246 766.1417,-431.6062 746.5,-414 732.2305,-401.2093 688.4875,-388.6654 651.7321,-379.9159"/>
<polygon fill="#191970" stroke="#191970" points="652.114,-376.4113 641.5807,-377.5517 650.5262,-383.2288 652.114,-376.4113"/>
</g>
<!-- Node7 -->
<g id="node8" class="node">
<title>Node7</title>
<g id="a_node8"><a xlink:href="assertion_8hpp.html" target="_top" xlink:title="utils/assertion.hpp">
<polygon fill="#ffffff" stroke="#000000" points="293.5,-302.5 293.5,-321.5 389.5,-321.5 389.5,-302.5 293.5,-302.5"/>
<text text-anchor="middle" x="341.5" y="-309.5" font-family="Helvetica,sans-Serif" font-size="10.00" fill="#000000">utils/assertion.hpp</text>
</a>
</g>
</g>
<!-- Node1&#45;&gt;Node7 -->
<g id="edge56" class="edge">
<title>Node1&#45;&gt;Node7</title>
<path fill="none" stroke="#191970" d="M768.2533,-542.4426C678.4087,-530.2115 443.7369,-494.2246 384.5,-445 350.5576,-416.7946 343.1398,-361.5441 341.6901,-331.9075"/>
<polygon fill="#191970" stroke="#191970" points="345.1787,-331.4729 341.3802,-321.5825 338.1819,-331.683 345.1787,-331.4729"/>
</g>
<!-- Node1&#45;&gt;Node31 -->
<g id="edge42" class="edge">
<title>Node1&#45;&gt;Node31</title>
<path fill="none" stroke="#191970" d="M778.2298,-537.3733C754.1034,-528.1822 717.5638,-514.2624 690.8123,-504.0713"/>
<polygon fill="#191970" stroke="#191970" points="692.0313,-500.7904 681.4404,-500.5011 689.5393,-507.3318 692.0313,-500.7904"/>
</g>
<!-- Node34 -->
<g id="node35" class="node">
<title>Node34</title>
<g id="a_node35"><a xlink:href="RangeAccessor_8hpp.html" target="_top" xlink:title="mesh/RangeAccessor.hpp">
<polygon fill="#ffffff" stroke="#000000" points="831.5,-481.5 831.5,-500.5 963.5,-500.5 963.5,-481.5 831.5,-481.5"/>
<text text-anchor="middle" x="897.5" y="-488.5" font-family="Helvetica,sans-Serif" font-size="10.00" fill="#000000">mesh/RangeAccessor.hpp</text>
</a>
</g>
</g>
<!-- Node1&#45;&gt;Node34 -->
<g id="edge54" class="edge">
<title>Node1&#45;&gt;Node34</title>
<path fill="none" stroke="#191970" d="M819.8736,-537.2455C834.4308,-528.5731 855.931,-515.7645 872.6152,-505.825"/>
<polygon fill="#191970" stroke="#191970" points="874.5144,-508.7676 881.3141,-500.6427 870.9317,-502.7539 874.5144,-508.7676"/>
</g>
<!-- Node6&#45;&gt;Node2 -->
<g id="edge7" class="edge">
<title>Node6&#45;&gt;Node2</title>
<path fill="none" stroke="#191970" d="M625.7555,-358.3733C655.1483,-349.021 699.9292,-334.7725 732.0934,-324.5385"/>
<polygon fill="#191970" stroke="#191970" points="733.1713,-327.8685 741.6393,-321.5011 731.0488,-321.198 733.1713,-327.8685"/>
</g>
<!-- Node6&#45;&gt;Node7 -->
<g id="edge8" class="edge">
<title>Node6&#45;&gt;Node7</title>
<path fill="none" stroke="#191970" d="M552.1244,-358.4369C508.563,-348.8328 441.3723,-334.0191 394.6366,-323.7152"/>
<polygon fill="#191970" stroke="#191970" points="395.2157,-320.2588 384.6966,-321.5237 393.7085,-327.0947 395.2157,-320.2588"/>
</g>
<!-- Node7&#45;&gt;Node5 -->
<g id="edge10" class="edge">
<title>Node7&#45;&gt;Node5</title>
<path fill="none" stroke="#191970" d="M389.7645,-307.128C470.2698,-298.7272 628.4579,-280.9756 682.5,-266 684.8238,-265.356 687.1942,-264.5933 689.5535,-263.7571"/>
<polygon fill="#191970" stroke="#191970" points="691.0208,-266.941 699.044,-260.0215 688.4569,-260.4275 691.0208,-266.941"/>
</g>
<!-- Node8 -->
<g id="node9" class="node">
<title>Node8</title>
<polygon fill="#ffffff" stroke="#bfbfbf" points="0,-241 0,-260 49,-260 49,-241 0,-241"/>
<text text-anchor="middle" x="24.5" y="-248" font-family="Helvetica,sans-Serif" font-size="10.00" fill="#000000">cassert</text>
</g>
<!-- Node7&#45;&gt;Node8 -->
<g id="edge9" class="edge">
<title>Node7&#45;&gt;Node8</title>
<path fill="none" stroke="#191970" d="M293.3006,-308.1069C236.2612,-302.6037 138.8835,-290.3762 58.5,-266 56.591,-265.4211 54.6501,-264.7576 52.7124,-264.0383"/>
<polygon fill="#191970" stroke="#191970" points="53.7928,-260.6976 43.2143,-260.1084 51.1165,-267.1658 53.7928,-260.6976"/>
</g>
<!-- Node9 -->
<g id="node10" class="node">
<title>Node9</title>
<polygon fill="#ffffff" stroke="#bfbfbf" points="67.5,-241 67.5,-260 199.5,-260 199.5,-241 67.5,-241"/>
<text text-anchor="middle" x="133.5" y="-248" font-family="Helvetica,sans-Serif" font-size="10.00" fill="#000000">boost/current_function.hpp</text>
</g>
<!-- Node7&#45;&gt;Node9 -->
<g id="edge11" class="edge">
<title>Node7&#45;&gt;Node9</title>
<path fill="none" stroke="#191970" d="M309,-302.3906C273.053,-291.7621 215.0173,-274.6025 175.612,-262.9514"/>
<polygon fill="#191970" stroke="#191970" points="176.3538,-259.521 165.7718,-260.0419 174.369,-266.2337 176.3538,-259.521"/>
</g>
<!-- Node10 -->
<g id="node11" class="node">
<title>Node10</title>
<polygon fill="#ffffff" stroke="#bfbfbf" points="285.5,-56.5 285.5,-86.5 387.5,-86.5 387.5,-56.5 285.5,-56.5"/>
<text text-anchor="start" x="293.5" y="-74.5" font-family="Helvetica,sans-Serif" font-size="10.00" fill="#000000">boost/preprocessor</text>
<text text-anchor="middle" x="336.5" y="-63.5" font-family="Helvetica,sans-Serif" font-size="10.00" fill="#000000">/seq/for_each_i.hpp</text>
</g>
<!-- Node7&#45;&gt;Node10 -->
<g id="edge12" class="edge">
<title>Node7&#45;&gt;Node10</title>
<path fill="none" stroke="#191970" d="M324.4433,-302.377C312.1911,-294.4014 296.6292,-281.8248 289.5,-266 263.3947,-208.0533 266.5249,-182.2575 289.5,-123 293.7213,-112.1125 301.4352,-102.1174 309.4101,-93.8882"/>
<polygon fill="#191970" stroke="#191970" points="311.9404,-96.3105 316.7146,-86.8523 307.0842,-91.2689 311.9404,-96.3105"/>
</g>
<!-- Node11 -->
<g id="node12" class="node">
<title>Node11</title>
<polygon fill="#ffffff" stroke="#bfbfbf" points="455.5,-235.5 455.5,-265.5 555.5,-265.5 555.5,-235.5 455.5,-235.5"/>
<text text-anchor="start" x="463.5" y="-253.5" font-family="Helvetica,sans-Serif" font-size="10.00" fill="#000000">boost/preprocessor</text>
<text text-anchor="middle" x="505.5" y="-242.5" font-family="Helvetica,sans-Serif" font-size="10.00" fill="#000000">/seq/seq.hpp</text>
</g>
<!-- Node7&#45;&gt;Node11 -->
<g id="edge13" class="edge">
<title>Node7&#45;&gt;Node11</title>
<path fill="none" stroke="#191970" d="M367.125,-302.3906C390.759,-293.5279 426.5028,-280.1239 455.7416,-269.1594"/>
<polygon fill="#191970" stroke="#191970" points="457.2467,-272.333 465.3811,-265.5446 454.7888,-265.7787 457.2467,-272.333"/>
</g>
<!-- Node12 -->
<g id="node13" class="node">
<title>Node12</title>
<polygon fill="#ffffff" stroke="#bfbfbf" points="405.5,-56.5 405.5,-86.5 505.5,-86.5 505.5,-56.5 405.5,-56.5"/>
<text text-anchor="start" x="413.5" y="-74.5" font-family="Helvetica,sans-Serif" font-size="10.00" fill="#000000">boost/preprocessor</text>
<text text-anchor="middle" x="455.5" y="-63.5" font-family="Helvetica,sans-Serif" font-size="10.00" fill="#000000">/stringize.hpp</text>
</g>
<!-- Node7&#45;&gt;Node12 -->
<g id="edge14" class="edge">
<title>Node7&#45;&gt;Node12</title>
<path fill="none" stroke="#191970" d="M337.6376,-302.3228C334.1962,-293.1446 329.4167,-278.8807 327.5,-266 321.8089,-227.7544 316.1434,-215.9613 327.5,-179 336.3341,-150.2485 343.4343,-143.44 365.5,-123 379.0792,-110.4212 396.2689,-99.639 411.9783,-91.2393"/>
<polygon fill="#191970" stroke="#191970" points="413.7373,-94.2702 421.0182,-86.5735 410.5268,-88.0499 413.7373,-94.2702"/>
</g>
<!-- Node13 -->
<g id="node14" class="node">
<title>Node13</title>
<polygon fill="#ffffff" stroke="#bfbfbf" points="573.5,-235.5 573.5,-265.5 673.5,-265.5 673.5,-235.5 573.5,-235.5"/>
<text text-anchor="start" x="581.5" y="-253.5" font-family="Helvetica,sans-Serif" font-size="10.00" fill="#000000">boost/preprocessor</text>
<text text-anchor="middle" x="623.5" y="-242.5" font-family="Helvetica,sans-Serif" font-size="10.00" fill="#000000">/variadic/elem.hpp</text>
</g>
<!-- Node7&#45;&gt;Node13 -->
<g id="edge15" class="edge">
<title>Node7&#45;&gt;Node13</title>
<path fill="none" stroke="#191970" d="M389.513,-302.8666C432.574,-294.5021 497.7129,-281.4239 563.2416,-266.2306"/>
<polygon fill="#191970" stroke="#191970" points="564.3912,-269.5564 573.3335,-263.8744 562.7996,-262.7398 564.3912,-269.5564"/>
</g>
<!-- Node14 -->
<g id="node15" class="node">
<title>Node14</title>
<polygon fill="#ffffff" stroke="#bfbfbf" points="523.5,-56.5 523.5,-86.5 627.5,-86.5 627.5,-56.5 523.5,-56.5"/>
<text text-anchor="start" x="531.5" y="-74.5" font-family="Helvetica,sans-Serif" font-size="10.00" fill="#000000">boost/preprocessor</text>
<text text-anchor="middle" x="575.5" y="-63.5" font-family="Helvetica,sans-Serif" font-size="10.00" fill="#000000">/variadic/to_seq.hpp</text>
</g>
<!-- Node7&#45;&gt;Node14 -->
<g id="edge16" class="edge">
<title>Node7&#45;&gt;Node14</title>
<path fill="none" stroke="#191970" d="M342.7889,-302.1561C345.0018,-287.1523 350.3032,-257.8912 360.5,-235 372.7388,-207.5245 376.7025,-199.7258 398.5,-179 438.4922,-140.9742 494.158,-109.9016 532.3253,-91.1143"/>
<polygon fill="#191970" stroke="#191970" points="534.1581,-94.1156 541.6317,-86.6059 531.1062,-87.8159 534.1581,-94.1156"/>
</g>
<!-- Node15 -->
<g id="node16" class="node">
<title>Node15</title>
<g id="a_node16"><a xlink:href="Parallel_8hpp.html" target="_top" xlink:title="Parallel.hpp">
<polygon fill="#ffffff" stroke="#000000" points="369.5,-241 369.5,-260 437.5,-260 437.5,-241 369.5,-241"/>
<text text-anchor="middle" x="403.5" y="-248" font-family="Helvetica,sans-Serif" font-size="10.00" fill="#000000">Parallel.hpp</text>
</a>
</g>
</g>
<!-- Node7&#45;&gt;Node15 -->
<g id="edge17" class="edge">
<title>Node7&#45;&gt;Node15</title>
<path fill="none" stroke="#191970" d="M351.1875,-302.3906C360.5959,-293.0581 375.0807,-278.6902 386.4249,-267.4374"/>
<polygon fill="#191970" stroke="#191970" points="389.0411,-269.7722 393.6759,-260.2449 384.1114,-264.8024 389.0411,-269.7722"/>
</g>
<!-- Node30 -->
<g id="node31" class="node">
<title>Node30</title>
<g id="a_node31"><a xlink:href="stacktrace_8hpp.html" target="_top" xlink:title="stacktrace.hpp">
<polygon fill="#ffffff" stroke="#000000" points="118,-123.5 118,-142.5 199,-142.5 199,-123.5 118,-123.5"/>
<text text-anchor="middle" x="158.5" y="-130.5" font-family="Helvetica,sans-Serif" font-size="10.00" fill="#000000">stacktrace.hpp</text>
</a>
</g>
</g>
<!-- Node7&#45;&gt;Node30 -->
<g id="edge40" class="edge">
<title>Node7&#45;&gt;Node30</title>
<path fill="none" stroke="#191970" d="M315.0317,-302.4943C295.9259,-294.7285 270.29,-282.3653 251.5,-266 212.8976,-232.3789 182.2448,-179.4889 167.7017,-151.6158"/>
<polygon fill="#191970" stroke="#191970" points="170.7463,-149.8816 163.0877,-142.5607 164.5093,-153.0597 170.7463,-149.8816"/>
</g>
<!-- Node16 -->
<g id="node17" class="node">
<title>Node16</title>
<polygon fill="#ffffff" stroke="#bfbfbf" points="661,-179.5 661,-198.5 706,-198.5 706,-179.5 661,-179.5"/>
<text text-anchor="middle" x="683.5" y="-186.5" font-family="Helvetica,sans-Serif" font-size="10.00" fill="#000000">iosfwd</text>
</g>
<!-- Node15&#45;&gt;Node16 -->
<g id="edge18" class="edge">
<title>Node15&#45;&gt;Node16</title>
<path fill="none" stroke="#191970" d="M427.8274,-240.9083C433.8649,-238.7569 440.3648,-236.6314 446.5,-235 532.8429,-212.04 559.7781,-220.2233 650.9494,-198.8496"/>
<polygon fill="#191970" stroke="#191970" points="651.9689,-202.2044 660.8756,-196.4667 650.3349,-195.3978 651.9689,-202.2044"/>
</g>
<!-- Node17 -->
<g id="node18" class="node">
<title>Node17</title>
<polygon fill="#ffffff" stroke="#bfbfbf" points="753.5,-123.5 753.5,-142.5 805.5,-142.5 805.5,-123.5 753.5,-123.5"/>
<text text-anchor="middle" x="779.5" y="-130.5" font-family="Helvetica,sans-Serif" font-size="10.00" fill="#000000">memory</text>
</g>
<!-- Node15&#45;&gt;Node17 -->
<g id="edge19" class="edge">
<title>Node15&#45;&gt;Node17</title>
<path fill="none" stroke="#191970" d="M427.33,-240.8914C433.4951,-238.6886 440.1787,-236.5436 446.5,-235 563.6784,-206.3862 607.7895,-253.2952 715.5,-199 737.4221,-187.9494 756.1051,-166.3521 767.5275,-150.8708"/>
<polygon fill="#191970" stroke="#191970" points="770.4681,-152.7743 773.3834,-142.5884 764.7524,-148.7331 770.4681,-152.7743"/>
</g>
<!-- Node18 -->
<g id="node19" class="node">
<title>Node18</title>
<polygon fill="#ffffff" stroke="#bfbfbf" points="237,-.5 237,-19.5 278,-19.5 278,-.5 237,-.5"/>
<text text-anchor="middle" x="257.5" y="-7.5" font-family="Helvetica,sans-Serif" font-size="10.00" fill="#000000">string</text>
</g>
<!-- Node15&#45;&gt;Node18 -->
<g id="edge20" class="edge">
<title>Node15&#45;&gt;Node18</title>
<path fill="none" stroke="#191970" d="M389.954,-240.9987C359.22,-218.5015 284.7648,-158.4672 257.5,-87 250.4832,-68.6075 251.5389,-45.8966 253.7018,-29.9211"/>
<polygon fill="#191970" stroke="#191970" points="257.2236,-30.0689 255.3729,-19.637 250.3143,-28.9462 257.2236,-30.0689"/>
</g>
<!-- Node19 -->
<g id="node20" class="node">
<title>Node19</title>
<polygon fill="#ffffff" stroke="#bfbfbf" points="407.5,-179.5 407.5,-198.5 451.5,-198.5 451.5,-179.5 407.5,-179.5"/>
<text text-anchor="middle" x="429.5" y="-186.5" font-family="Helvetica,sans-Serif" font-size="10.00" fill="#000000">vector</text>
</g>
<!-- Node15&#45;&gt;Node19 -->
<g id="edge21" class="edge">
<title>Node15&#45;&gt;Node19</title>
<path fill="none" stroke="#191970" d="M407.5625,-240.8906C411.2424,-232.1862 416.7742,-219.1015 421.362,-208.2494"/>
<polygon fill="#191970" stroke="#191970" points="424.71,-209.3185 425.3802,-198.7449 418.2625,-206.5927 424.71,-209.3185"/>
</g>
<!-- Node20 -->
<g id="node21" class="node">
<title>Node20</title>
<g id="a_node21"><a xlink:href="Logger_8hpp.html" target="_top" xlink:title="logging/Logger.hpp">
<polygon fill="#ffffff" stroke="#000000" points="544.5,-179.5 544.5,-198.5 642.5,-198.5 642.5,-179.5 544.5,-179.5"/>
<text text-anchor="middle" x="593.5" y="-186.5" font-family="Helvetica,sans-Serif" font-size="10.00" fill="#000000">logging/Logger.hpp</text>
</a>
</g>
</g>
<!-- Node15&#45;&gt;Node20 -->
<g id="edge22" class="edge">
<title>Node15&#45;&gt;Node20</title>
<path fill="none" stroke="#191970" d="M429.3593,-240.9766C434.9935,-238.9582 440.9344,-236.8729 446.5,-235 481.7542,-223.1361 522.097,-210.584 551.5903,-201.5942"/>
<polygon fill="#191970" stroke="#191970" points="552.9932,-204.826 561.5438,-198.5699 550.9581,-198.1283 552.9932,-204.826"/>
</g>
<!-- Node29 -->
<g id="node30" class="node">
<title>Node29</title>
<polygon fill="#ffffff" stroke="#bfbfbf" points="470,-179.5 470,-198.5 511,-198.5 511,-179.5 470,-179.5"/>
<text text-anchor="middle" x="490.5" y="-186.5" font-family="Helvetica,sans-Serif" font-size="10.00" fill="#000000">mpi.h</text>
</g>
<!-- Node15&#45;&gt;Node29 -->
<g id="edge39" class="edge">
<title>Node15&#45;&gt;Node29</title>
<path fill="none" stroke="#191970" d="M417.0938,-240.8906C430.8843,-231.1421 452.4472,-215.8994 468.641,-204.4521"/>
<polygon fill="#191970" stroke="#191970" points="470.8563,-207.1723 477.0017,-198.5419 466.8156,-201.4563 470.8563,-207.1723"/>
</g>
<!-- Node20&#45;&gt;Node17 -->
<g id="edge23" class="edge">
<title>Node20&#45;&gt;Node17</title>
<path fill="none" stroke="#191970" d="M625.4745,-179.3733C658.3729,-169.4684 709.5125,-154.0715 743.7344,-143.7681"/>
<polygon fill="#191970" stroke="#191970" points="744.7741,-147.1104 753.3404,-140.876 742.756,-140.4076 744.7741,-147.1104"/>
</g>
<!-- Node20&#45;&gt;Node18 -->
<g id="edge24" class="edge">
<title>Node20&#45;&gt;Node18</title>
<path fill="none" stroke="#191970" d="M545.181,-179.4454C465.9309,-162.8294 313.4237,-126.5787 276.5,-87 262.0919,-71.5558 258.1288,-46.9731 257.2664,-29.7489"/>
<polygon fill="#191970" stroke="#191970" points="260.7641,-29.5924 257.0689,-19.6628 253.7654,-29.7295 260.7641,-29.5924"/>
</g>
<!-- Node21 -->
<g id="node22" class="node">
<title>Node21</title>
<g id="a_node22"><a xlink:href="LogMacros_8hpp.html" target="_top" xlink:title="LogMacros.hpp">
<polygon fill="#ffffff" stroke="#000000" points="614,-123.5 614,-142.5 697,-142.5 697,-123.5 614,-123.5"/>
<text text-anchor="middle" x="655.5" y="-130.5" font-family="Helvetica,sans-Serif" font-size="10.00" fill="#000000">LogMacros.hpp</text>
</a>
</g>
</g>
<!-- Node20&#45;&gt;Node21 -->
<g id="edge25" class="edge">
<title>Node20&#45;&gt;Node21</title>
<path fill="none" stroke="#191970" d="M604.2996,-179.2455C613.3678,-171.0549 626.5206,-159.1749 637.2245,-149.5069"/>
<polygon fill="#191970" stroke="#191970" points="639.7491,-151.9429 644.8242,-142.6427 635.0571,-146.7482 639.7491,-151.9429"/>
</g>
<!-- Node21&#45;&gt;Node10 -->
<g id="edge28" class="edge">
<title>Node21&#45;&gt;Node10</title>
<path fill="none" stroke="#191970" d="M613.5876,-126.5752C564.2155,-118.7818 479.5281,-104.7126 397.7773,-87.1901"/>
<polygon fill="#191970" stroke="#191970" points="398.3389,-83.7306 387.8248,-85.0362 396.8582,-90.5723 398.3389,-83.7306"/>
</g>
<!-- Node21&#45;&gt;Node12 -->
<g id="edge29" class="edge">
<title>Node21&#45;&gt;Node12</title>
<path fill="none" stroke="#191970" d="M624.25,-123.3906C594.9268,-114.3737 550.3174,-100.6563 514.3279,-89.5896"/>
<polygon fill="#191970" stroke="#191970" points="515.0126,-86.1384 504.4255,-86.5446 512.9551,-92.8292 515.0126,-86.1384"/>
</g>
<!-- Node21&#45;&gt;Node14 -->
<g id="edge30" class="edge">
<title>Node21&#45;&gt;Node14</title>
<path fill="none" stroke="#191970" d="M643,-123.3906C632.3735,-115.2215 616.7281,-103.1941 603.175,-92.7752"/>
<polygon fill="#191970" stroke="#191970" points="605.1315,-89.8645 595.0702,-86.5446 600.8651,-95.4142 605.1315,-89.8645"/>
</g>
<!-- Node21&#45;&gt;Node18 -->
<g id="edge32" class="edge">
<title>Node21&#45;&gt;Node18</title>
<path fill="none" stroke="#191970" d="M656.2802,-123.4835C657.0535,-107.0008 655.9815,-73.2537 636.5,-56 610.537,-33.0059 373.6947,-16.863 288.1453,-11.7384"/>
<polygon fill="#191970" stroke="#191970" points="288.2159,-8.2365 278.0271,-11.1416 287.8037,-15.2244 288.2159,-8.2365"/>
</g>
<!-- Node22 -->
<g id="node23" class="node">
<title>Node22</title>
<polygon fill="#ffffff" stroke="#bfbfbf" points="683.5,-56.5 683.5,-86.5 783.5,-86.5 783.5,-56.5 683.5,-56.5"/>
<text text-anchor="start" x="691.5" y="-74.5" font-family="Helvetica,sans-Serif" font-size="10.00" fill="#000000">boost/preprocessor</text>
<text text-anchor="middle" x="733.5" y="-63.5" font-family="Helvetica,sans-Serif" font-size="10.00" fill="#000000">/control/if.hpp</text>
</g>
<!-- Node21&#45;&gt;Node22 -->
<g id="edge26" class="edge">
<title>Node21&#45;&gt;Node22</title>
<path fill="none" stroke="#191970" d="M667.6875,-123.3906C678.0484,-115.2215 693.3026,-103.1941 706.5169,-92.7752"/>
<polygon fill="#191970" stroke="#191970" points="708.7334,-95.4846 714.4191,-86.5446 704.3993,-89.9877 708.7334,-95.4846"/>
</g>
<!-- Node23 -->
<g id="node24" class="node">
<title>Node23</title>
<polygon fill="#ffffff" stroke="#bfbfbf" points="801.5,-56.5 801.5,-86.5 905.5,-86.5 905.5,-56.5 801.5,-56.5"/>
<text text-anchor="start" x="809.5" y="-74.5" font-family="Helvetica,sans-Serif" font-size="10.00" fill="#000000">boost/preprocessor</text>
<text text-anchor="middle" x="853.5" y="-63.5" font-family="Helvetica,sans-Serif" font-size="10.00" fill="#000000">/facilities/empty.hpp</text>
</g>
<!-- Node21&#45;&gt;Node23 -->
<g id="edge27" class="edge">
<title>Node21&#45;&gt;Node23</title>
<path fill="none" stroke="#191970" d="M686.4375,-123.3906C715.4675,-114.3737 759.6308,-100.6563 795.2604,-89.5896"/>
<polygon fill="#191970" stroke="#191970" points="796.552,-92.8534 805.0638,-86.5446 794.4756,-86.1684 796.552,-92.8534"/>
</g>
<!-- Node24 -->
<g id="node25" class="node">
<title>Node24</title>
<polygon fill="#ffffff" stroke="#bfbfbf" points="923.5,-62 923.5,-81 1047.5,-81 1047.5,-62 923.5,-62"/>
<text text-anchor="middle" x="985.5" y="-69" font-family="Helvetica,sans-Serif" font-size="10.00" fill="#000000">boost/vmd/is_empty.hpp</text>
</g>
<!-- Node21&#45;&gt;Node24 -->
<g id="edge31" class="edge">
<title>Node21&#45;&gt;Node24</title>
<path fill="none" stroke="#191970" d="M697.0889,-125.5677C701.9471,-124.7012 706.8328,-123.8305 711.5,-123 801.7127,-106.9462 824.6107,-104.7752 914.5,-87 920.5918,-85.7954 926.9657,-84.481 933.2879,-83.1436"/>
<polygon fill="#191970" stroke="#191970" points="934.087,-86.5519 943.1324,-81.0355 932.6212,-79.7071 934.087,-86.5519"/>
</g>
<!-- Node25 -->
<g id="node26" class="node">
<title>Node25</title>
<g id="a_node26"><a xlink:href="Tracer_8hpp.html" target="_top" xlink:title="logging/Tracer.hpp">
<polygon fill="#ffffff" stroke="#000000" points="1310,-62 1310,-81 1407,-81 1407,-62 1310,-62"/>
<text text-anchor="middle" x="1358.5" y="-69" font-family="Helvetica,sans-Serif" font-size="10.00" fill="#000000">logging/Tracer.hpp</text>
</a>
</g>
</g>
<!-- Node21&#45;&gt;Node25 -->
<g id="edge33" class="edge">
<title>Node21&#45;&gt;Node25</title>
<path fill="none" stroke="#191970" d="M697.0099,-125.0363C701.8823,-124.2651 706.793,-123.5622 711.5,-123 971.9153,-91.896 1041.6293,-129.0664 1300.5,-87 1306.0297,-86.1014 1311.7943,-84.8969 1317.4512,-83.5545"/>
<polygon fill="#191970" stroke="#191970" points="1318.608,-86.8721 1327.4436,-81.0255 1316.8905,-80.0861 1318.608,-86.8721"/>
</g>
<!-- Node26 -->
<g id="node27" class="node">
<title>Node26</title>
<polygon fill="#ffffff" stroke="#bfbfbf" points="1066,-62 1066,-81 1191,-81 1191,-62 1066,-62"/>
<text text-anchor="middle" x="1128.5" y="-69" font-family="Helvetica,sans-Serif" font-size="10.00" fill="#000000">prettyprint/prettyprint.hpp</text>
</g>
<!-- Node21&#45;&gt;Node26 -->
<g id="edge35" class="edge">
<title>Node21&#45;&gt;Node26</title>
<path fill="none" stroke="#191970" d="M697.0359,-125.2361C701.9037,-124.4291 706.8061,-123.6631 711.5,-123 864.1502,-101.4353 904.2546,-111.258 1056.5,-87 1063.3719,-85.9051 1070.5759,-84.5752 1077.6603,-83.1597"/>
<polygon fill="#191970" stroke="#191970" points="1078.8175,-86.4946 1087.9016,-81.0421 1077.4,-79.6396 1078.8175,-86.4946"/>
</g>
<!-- Node27 -->
<g id="node28" class="node">
<title>Node27</title>
<g id="a_node28"><a xlink:href="String_8hpp.html" target="_top" xlink:title="utils/String.hpp">
<polygon fill="#ffffff" stroke="#000000" points="1209.5,-62 1209.5,-81 1291.5,-81 1291.5,-62 1209.5,-62"/>
<text text-anchor="middle" x="1250.5" y="-69" font-family="Helvetica,sans-Serif" font-size="10.00" fill="#000000">utils/String.hpp</text>
</a>
</g>
</g>
<!-- Node21&#45;&gt;Node27 -->
<g id="edge36" class="edge">
<title>Node21&#45;&gt;Node27</title>
<path fill="none" stroke="#191970" d="M697.017,-125.0943C701.8882,-124.3127 706.7966,-123.5915 711.5,-123 927.7185,-95.8095 986.3795,-127.5242 1200.5,-87 1204.9397,-86.1598 1209.5408,-85.0612 1214.0732,-83.8365"/>
<polygon fill="#191970" stroke="#191970" points="1215.1739,-87.1614 1223.7963,-81.0048 1213.2165,-80.4406 1215.1739,-87.1614"/>
</g>
<!-- Node25&#45;&gt;Node20 -->
<g id="edge34" class="edge">
<title>Node25&#45;&gt;Node20</title>
<path fill="none" stroke="#191970" d="M1327.4401,-81.0044C1318.7927,-83.3201 1309.345,-85.5463 1300.5,-87 1056.1497,-127.1601 983.2064,-57.1276 744.5,-123 725.7222,-128.1818 723.1919,-134.848 705.5,-143 679.8893,-154.8008 650.3649,-166.8653 628.0611,-175.6767"/>
<polygon fill="#191970" stroke="#191970" points="626.6993,-172.4512 618.6699,-179.3634 629.2573,-178.9671 626.6993,-172.4512"/>
</g>
<!-- Node27&#45;&gt;Node18 -->
<g id="edge38" class="edge">
<title>Node27&#45;&gt;Node18</title>
<path fill="none" stroke="#191970" d="M1224.0791,-61.9502C1216.5551,-59.6044 1208.2863,-57.3741 1200.5,-56 1019.1918,-24.0041 429.9259,-12.7402 288.3096,-10.4611"/>
<polygon fill="#191970" stroke="#191970" points="288.222,-6.9594 278.168,-10.3011 288.1115,-13.9586 288.222,-6.9594"/>
</g>
<!-- Node28 -->
<g id="node29" class="node">
<title>Node28</title>
<polygon fill="#ffffff" stroke="#bfbfbf" points="1224.5,-.5 1224.5,-19.5 1276.5,-19.5 1276.5,-.5 1224.5,-.5"/>
<text text-anchor="middle" x="1250.5" y="-7.5" font-family="Helvetica,sans-Serif" font-size="10.00" fill="#000000">sstream</text>
</g>
<!-- Node27&#45;&gt;Node28 -->
<g id="edge37" class="edge">
<title>Node27&#45;&gt;Node28</title>
<path fill="none" stroke="#191970" d="M1250.5,-61.8906C1250.5,-53.3657 1250.5,-40.6392 1250.5,-29.9235"/>
<polygon fill="#191970" stroke="#191970" points="1254.0001,-29.7448 1250.5,-19.7449 1247.0001,-29.7449 1254.0001,-29.7448"/>
</g>
<!-- Node30&#45;&gt;Node18 -->
<g id="edge41" class="edge">
<title>Node30&#45;&gt;Node18</title>
<path fill="none" stroke="#191970" d="M163.1708,-123.3959C170.8108,-108.2045 186.9953,-78.0911 205.5,-56 214.691,-45.0277 226.5442,-34.3369 236.6121,-26.0273"/>
<polygon fill="#191970" stroke="#191970" points="238.9447,-28.643 244.5516,-19.6534 234.5625,-23.1844 238.9447,-28.643"/>
</g>
<!-- Node31&#45;&gt;Node2 -->
<g id="edge43" class="edge">
<title>Node31&#45;&gt;Node2</title>
<path fill="none" stroke="#191970" d="M659.8439,-481.3709C665.2392,-466.4011 676.6711,-436.8891 690.5,-414 709.9403,-381.8229 738.2919,-348.421 755.7817,-328.9554"/>
<polygon fill="#191970" stroke="#191970" points="758.4143,-331.2628 762.5547,-321.5105 753.2363,-326.5522 758.4143,-331.2628"/>
</g>
<!-- Node31&#45;&gt;Node4 -->
<g id="edge44" class="edge">
<title>Node31&#45;&gt;Node4</title>
<path fill="none" stroke="#191970" d="M666.1875,-481.3906C675.5959,-472.0581 690.0807,-457.6902 701.4249,-446.4374"/>
<polygon fill="#191970" stroke="#191970" points="704.0411,-448.7722 708.6759,-439.2449 699.1114,-443.8024 704.0411,-448.7722"/>
</g>
<!-- Node31&#45;&gt;Node5 -->
<g id="edge45" class="edge">
<title>Node31&#45;&gt;Node5</title>
<path fill="none" stroke="#191970" d="M658.0817,-481.4589C660.5658,-466.8506 665.7006,-438.0992 671.5,-414 684.178,-361.3166 702.8243,-300.1696 712.3725,-269.7497"/>
<polygon fill="#191970" stroke="#191970" points="715.7759,-270.595 715.4507,-260.0052 709.101,-268.4864 715.7759,-270.595"/>
</g>
<!-- Node31&#45;&gt;Node6 -->
<g id="edge46" class="edge">
<title>Node31&#45;&gt;Node6</title>
<path fill="none" stroke="#191970" d="M646.7706,-481.1993C638.4982,-472.3863 626.8284,-458.747 619.5,-445 609.706,-426.6278 603.1927,-403.6218 599.4531,-387.5625"/>
<polygon fill="#191970" stroke="#191970" points="602.852,-386.721 597.3011,-377.6967 596.0128,-388.2129 602.852,-386.721"/>
</g>
<!-- Node31&#45;&gt;Node7 -->
<g id="edge53" class="edge">
<title>Node31&#45;&gt;Node7</title>
<path fill="none" stroke="#191970" d="M613.9351,-483.1763C546.8159,-470.7788 423.5325,-447.7349 419.5,-445 378.855,-417.4336 356.4059,-361.0677 346.9478,-331.3407"/>
<polygon fill="#191970" stroke="#191970" points="350.2781,-330.2613 344.0414,-321.6966 343.5759,-332.2812 350.2781,-330.2613"/>
</g>
<!-- Node31&#45;&gt;Node32 -->
<g id="edge47" class="edge">
<title>Node31&#45;&gt;Node32</title>
<path fill="none" stroke="#191970" d="M628.0625,-481.3906C596.9428,-470.8749 546.9036,-453.966 512.4515,-442.3243"/>
<polygon fill="#191970" stroke="#191970" points="513.332,-438.9274 502.7378,-439.0419 511.0911,-445.5591 513.332,-438.9274"/>
</g>
<!-- Node32&#45;&gt;Node2 -->
<g id="edge48" class="edge">
<title>Node32&#45;&gt;Node2</title>
<path fill="none" stroke="#191970" d="M479.4174,-419.8126C487.9347,-404.0993 506.996,-373.2777 532.5,-358 564.9856,-338.5401 669.1417,-323.7803 728.6834,-316.6784"/>
<polygon fill="#191970" stroke="#191970" points="729.3753,-320.1214 738.9006,-315.4826 728.5615,-313.1689 729.3753,-320.1214"/>
</g>
<!-- Node32&#45;&gt;Node5 -->
<g id="edge49" class="edge">
<title>Node32&#45;&gt;Node5</title>
<path fill="none" stroke="#191970" d="M476.4801,-419.7674C479.9694,-404.8081 488.5101,-376.0103 505.5,-358 519.175,-343.5037 632.6589,-290.0527 688.1631,-264.4066"/>
<polygon fill="#191970" stroke="#191970" points="689.8836,-267.4676 697.4996,-260.1023 686.9528,-261.1106 689.8836,-267.4676"/>
</g>
<!-- Node32&#45;&gt;Node6 -->
<g id="edge51" class="edge">
<title>Node32&#45;&gt;Node6</title>
<path fill="none" stroke="#191970" d="M493.4063,-419.8906C513.2966,-409.7811 544.8123,-393.7628 567.5692,-382.1962"/>
<polygon fill="#191970" stroke="#191970" points="569.3978,-385.193 576.7265,-377.5419 566.226,-378.9528 569.3978,-385.193"/>
</g>
<!-- Node32&#45;&gt;Node7 -->
<g id="edge52" class="edge">
<title>Node32&#45;&gt;Node7</title>
<path fill="none" stroke="#191970" d="M457.8869,-419.9952C441.8559,-410.4318 417.3159,-394.7372 398.5,-378 381.9824,-363.3072 365.7636,-343.9036 354.8764,-329.9431"/>
<polygon fill="#191970" stroke="#191970" points="357.3968,-327.4771 348.5423,-321.6592 351.8361,-331.729 357.3968,-327.4771"/>
</g>
<!-- Node33 -->
<g id="node34" class="node">
<title>Node33</title>
<polygon fill="#ffffff" stroke="#bfbfbf" points="407.5,-358.5 407.5,-377.5 447.5,-377.5 447.5,-358.5 407.5,-358.5"/>
<text text-anchor="middle" x="427.5" y="-365.5" font-family="Helvetica,sans-Serif" font-size="10.00" fill="#000000">utility</text>
</g>
<!-- Node32&#45;&gt;Node33 -->
<g id="edge50" class="edge">
<title>Node32&#45;&gt;Node33</title>
<path fill="none" stroke="#191970" d="M467.1563,-419.8906C460.2298,-410.8273 449.674,-397.0149 441.194,-385.9188"/>
<polygon fill="#191970" stroke="#191970" points="443.8003,-383.565 434.9473,-377.7449 438.2385,-387.8155 443.8003,-383.565"/>
</g>
<!-- Node35 -->
<g id="node36" class="node">
<title>Node35</title>
<polygon fill="#ffffff" stroke="#bfbfbf" points="844,-414.5 844,-444.5 951,-444.5 951,-414.5 844,-414.5"/>
<text text-anchor="start" x="852" y="-432.5" font-family="Helvetica,sans-Serif" font-size="10.00" fill="#000000">boost/iterator/iterator</text>
<text text-anchor="middle" x="897.5" y="-421.5" font-family="Helvetica,sans-Serif" font-size="10.00" fill="#000000">_facade.hpp</text>
</g>
<!-- Node34&#45;&gt;Node35 -->
<g id="edge55" class="edge">
<title>Node34&#45;&gt;Node35</title>
<path fill="none" stroke="#191970" d="M897.5,-481.3906C897.5,-474.2234 897.5,-464.0862 897.5,-454.671"/>
<polygon fill="#191970" stroke="#191970" points="901.0001,-454.5446 897.5,-444.5446 894.0001,-454.5446 901.0001,-454.5446"/>
</g>
<!-- Node40&#45;&gt;Node2 -->
<g id="edge67" class="edge">
<title>Node40&#45;&gt;Node2</title>
<path fill="none" stroke="#191970" d="M937.9469,-358.3733C903.6792,-348.826 851.0972,-334.1763 814.226,-323.9037"/>
<polygon fill="#191970" stroke="#191970" points="814.8438,-320.4426 804.2713,-321.1303 812.965,-327.1858 814.8438,-320.4426"/>
</g>
</g>
</svg>
