<?xml version="1.0" encoding="UTF-8" standalone="no"?>
<!DOCTYPE svg PUBLIC "-//W3C//DTD SVG 1.1//EN"
 "http://www.w3.org/Graphics/SVG/1.1/DTD/svg11.dtd">
<!-- Generated by graphviz version 2.40.1 (20161225.0304)
 -->
<!-- Title: src/xml/ValueParser.hpp Pages: 1 -->
<svg width="224pt" height="140pt"
 viewBox="0.00 0.00 223.50 140.00" xmlns="http://www.w3.org/2000/svg" xmlns:xlink="http://www.w3.org/1999/xlink">
<g id="graph0" class="graph" transform="scale(1 1) rotate(0) translate(4 136)">
<title>src/xml/ValueParser.hpp</title>
<polygon fill="#ffffff" stroke="transparent" points="-4,4 -4,-136 219.5,-136 219.5,4 -4,4"/>
<!-- Node0 -->
<g id="node1" class="node">
<title>Node0</title>
<polygon fill="#bfbfbf" stroke="#000000" points="31,-112.5 31,-131.5 164,-131.5 164,-112.5 31,-112.5"/>
<text text-anchor="middle" x="97.5" y="-119.5" font-family="Helvetica,sans-Serif" font-size="10.00" fill="#000000">src/xml/ValueParser.hpp</text>
</g>
<!-- Node1 -->
<g id="node2" class="node">
<title>Node1</title>
<polygon fill="#ffffff" stroke="#bfbfbf" points="0,-56.5 0,-75.5 69,-75.5 69,-56.5 0,-56.5"/>
<text text-anchor="middle" x="34.5" y="-63.5" font-family="Helvetica,sans-Serif" font-size="10.00" fill="#000000">Eigen/Core</text>
</g>
<!-- Node0&#45;&gt;Node1 -->
<g id="edge1" class="edge">
<title>Node0&#45;&gt;Node1</title>
<path fill="none" stroke="#191970" d="M86.5262,-112.2455C77.3118,-104.0549 63.9468,-92.1749 53.0703,-82.5069"/>
<polygon fill="#191970" stroke="#191970" points="55.1474,-79.6704 45.348,-75.6427 50.4968,-84.9023 55.1474,-79.6704"/>
</g>
<!-- Node2 -->
<g id="node3" class="node">
<title>Node2</title>
<polygon fill="#ffffff" stroke="#bfbfbf" points="78.5,-.5 78.5,-19.5 122.5,-19.5 122.5,-.5 78.5,-.5"/>
<text text-anchor="middle" x="100.5" y="-7.5" font-family="Helvetica,sans-Serif" font-size="10.00" fill="#000000">string</text>
</g>
<!-- Node0&#45;&gt;Node2 -->
<g id="edge2" class="edge">
<title>Node0&#45;&gt;Node2</title>
<path fill="none" stroke="#191970" d="M97.7558,-112.4509C98.2451,-94.184 99.3226,-53.9553 99.9724,-29.6976"/>
<polygon fill="#191970" stroke="#191970" points="103.4758,-29.6151 100.2449,-19.5249 96.4783,-29.4276 103.4758,-29.6151"/>
</g>
<!-- Node3 -->
<g id="node4" class="node">
<title>Node3</title>
<g id="a_node4"><a xlink:href="String_8hpp.html" target="_top" xlink:title="utils/String.hpp">
<polygon fill="#ffffff" stroke="#000000" points="125.5,-56.5 125.5,-75.5 215.5,-75.5 215.5,-56.5 125.5,-56.5"/>
<text text-anchor="middle" x="170.5" y="-63.5" font-family="Helvetica,sans-Serif" font-size="10.00" fill="#000000">utils/String.hpp</text>
</a>
</g>
</g>
<!-- Node0&#45;&gt;Node3 -->
<g id="edge3" class="edge">
<title>Node0&#45;&gt;Node3</title>
<path fill="none" stroke="#191970" d="M110.2156,-112.2455C121.102,-103.8943 136.9883,-91.7076 149.72,-81.9408"/>
<polygon fill="#191970" stroke="#191970" points="152.1261,-84.5063 157.9301,-75.6427 147.8654,-78.9523 152.1261,-84.5063"/>
</g>
<!-- Node3&#45;&gt;Node2 -->
<g id="edge5" class="edge">
<title>Node3&#45;&gt;Node2</title>
<path fill="none" stroke="#191970" d="M158.3069,-56.2455C147.8679,-47.8943 132.6345,-35.7076 120.426,-25.9408"/>
<polygon fill="#191970" stroke="#191970" points="122.5485,-23.1566 112.5533,-19.6427 118.1756,-28.6227 122.5485,-23.1566"/>
</g>
<!-- Node4 -->
<g id="node5" class="node">
<title>Node4</title>
<polygon fill="#ffffff" stroke="#bfbfbf" points="142.5,-.5 142.5,-19.5 198.5,-19.5 198.5,-.5 142.5,-.5"/>
<text text-anchor="middle" x="170.5" y="-7.5" font-family="Helvetica,sans-Serif" font-size="10.00" fill="#000000">sstream</text>
</g>
<!-- Node3&#45;&gt;Node4 -->
<g id="edge4" class="edge">
<title>Node3&#45;&gt;Node4</title>
<path fill="none" stroke="#191970" d="M170.5,-56.2455C170.5,-48.9382 170.5,-38.6944 170.5,-29.7046"/>
<polygon fill="#191970" stroke="#191970" points="174.0001,-29.6426 170.5,-19.6427 167.0001,-29.6427 174.0001,-29.6426"/>
</g>
</g>
</svg>
