<?xml version="1.0" encoding="UTF-8" standalone="no"?>
<!DOCTYPE svg PUBLIC "-//W3C//DTD SVG 1.1//EN"
 "http://www.w3.org/Graphics/SVG/1.1/DTD/svg11.dtd">
<!-- Generated by graphviz version 2.40.1 (20161225.0304)
 -->
<!-- Title: src/acceleration/impl/ValuePreconditioner.hpp Pages: 1 -->
<svg width="439pt" height="106pt"
 viewBox="0.00 0.00 439.00 106.00" xmlns="http://www.w3.org/2000/svg" xmlns:xlink="http://www.w3.org/1999/xlink">
<g id="graph0" class="graph" transform="scale(1 1) rotate(0) translate(4 102)">
<title>src/acceleration/impl/ValuePreconditioner.hpp</title>
<polygon fill="#ffffff" stroke="transparent" points="-4,4 -4,-102 435,-102 435,4 -4,4"/>
<!-- Node29 -->
<g id="node1" class="node">
<title>Node29</title>
<polygon fill="#bfbfbf" stroke="#000000" points="167.5,-67.5 167.5,-97.5 292.5,-97.5 292.5,-67.5 167.5,-67.5"/>
<text text-anchor="start" x="175.5" y="-85.5" font-family="Helvetica,sans-Serif" font-size="10.00" fill="#000000">src/acceleration/impl</text>
<text text-anchor="middle" x="230" y="-74.5" font-family="Helvetica,sans-Serif" font-size="10.00" fill="#000000">/ValuePreconditioner.hpp</text>
</g>
<!-- Node30 -->
<g id="node2" class="node">
<title>Node30</title>
<g id="a_node2"><a xlink:href="AccelerationConfiguration_8cpp.html" target="_top" xlink:title="src/acceleration/config\l/AccelerationConfiguration.cpp">
<polygon fill="#ffffff" stroke="#000000" points="0,-.5 0,-30.5 150,-30.5 150,-.5 0,-.5"/>
<text text-anchor="start" x="8" y="-18.5" font-family="Helvetica,sans-Serif" font-size="10.00" fill="#000000">src/acceleration/config</text>
<text text-anchor="middle" x="75" y="-7.5" font-family="Helvetica,sans-Serif" font-size="10.00" fill="#000000">/AccelerationConfiguration.cpp</text>
</a>
</g>
</g>
<!-- Node29&#45;&gt;Node30 -->
<g id="edge1" class="edge">
<title>Node29&#45;&gt;Node30</title>
<path fill="none" stroke="#191970" d="M185.9328,-63.4516C161.8444,-53.0392 132.425,-40.3224 109.9367,-30.6017"/>
<polygon fill="#191970" stroke="#191970" points="184.6471,-66.7088 195.215,-67.4639 187.4246,-60.2834 184.6471,-66.7088"/>
</g>
<!-- Node31 -->
<g id="node3" class="node">
<title>Node31</title>
<g id="a_node3"><a xlink:href="ValuePreconditioner_8cpp.html" target="_top" xlink:title="src/acceleration/impl\l/ValuePreconditioner.cpp">
<polygon fill="#ffffff" stroke="#000000" points="167.5,-.5 167.5,-30.5 292.5,-30.5 292.5,-.5 167.5,-.5"/>
<text text-anchor="start" x="175.5" y="-18.5" font-family="Helvetica,sans-Serif" font-size="10.00" fill="#000000">src/acceleration/impl</text>
<text text-anchor="middle" x="230" y="-7.5" font-family="Helvetica,sans-Serif" font-size="10.00" fill="#000000">/ValuePreconditioner.cpp</text>
</a>
</g>
</g>
<!-- Node29&#45;&gt;Node31 -->
<g id="edge2" class="edge">
<title>Node29&#45;&gt;Node31</title>
<path fill="none" stroke="#191970" d="M230,-57.0249C230,-48.128 230,-38.4287 230,-30.6432"/>
<polygon fill="#191970" stroke="#191970" points="226.5001,-57.2966 230,-67.2967 233.5001,-57.2967 226.5001,-57.2966"/>
</g>
<!-- Node32 -->
<g id="node4" class="node">
<title>Node32</title>
<g id="a_node4"><a xlink:href="PreconditionerTest_8cpp.html" target="_top" xlink:title="src/acceleration/test\l/PreconditionerTest.cpp">
<polygon fill="#ffffff" stroke="#000000" points="311,-.5 311,-30.5 431,-30.5 431,-.5 311,-.5"/>
<text text-anchor="start" x="319" y="-18.5" font-family="Helvetica,sans-Serif" font-size="10.00" fill="#000000">src/acceleration/test</text>
<text text-anchor="middle" x="371" y="-7.5" font-family="Helvetica,sans-Serif" font-size="10.00" fill="#000000">/PreconditionerTest.cpp</text>
</a>
</g>
</g>
<!-- Node29&#45;&gt;Node32 -->
<g id="edge3" class="edge">
<title>Node29&#45;&gt;Node32</title>
<path fill="none" stroke="#191970" d="M270.9283,-63.0518C292.5941,-52.7567 318.8108,-40.2991 338.9746,-30.7177"/>
<polygon fill="#191970" stroke="#191970" points="269.1731,-60.0107 261.6432,-67.4639 272.1775,-66.3332 269.1731,-60.0107"/>
</g>
</g>
</svg>
