<?xml version="1.0" encoding="UTF-8" standalone="no"?>
<!DOCTYPE svg PUBLIC "-//W3C//DTD SVG 1.1//EN"
 "http://www.w3.org/Graphics/SVG/1.1/DTD/svg11.dtd">
<!-- Generated by graphviz version 2.40.1 (20161225.0304)
 -->
<!-- Title: BOOST_AUTO_TEST_CASE Pages: 1 -->
<svg width="536pt" height="470pt"
 viewBox="0.00 0.00 536.00 469.50" xmlns="http://www.w3.org/2000/svg" xmlns:xlink="http://www.w3.org/1999/xlink">
<g id="graph0" class="graph" transform="scale(1 1) rotate(0) translate(4 465.5)">
<title>BOOST_AUTO_TEST_CASE</title>
<polygon fill="#ffffff" stroke="transparent" points="-4,4 -4,-465.5 532,-465.5 532,4 -4,4"/>
<!-- Node130 -->
<g id="node1" class="node">
<title>Node130</title>
<polygon fill="#bfbfbf" stroke="#000000" points="0,-169.5 0,-188.5 143,-188.5 143,-169.5 0,-169.5"/>
<text text-anchor="middle" x="71.5" y="-176.5" font-family="Helvetica,sans-Serif" font-size="10.00" fill="#000000">BOOST_AUTO_TEST_CASE</text>
</g>
<!-- Node131 -->
<g id="node2" class="node">
<title>Node131</title>
<g id="a_node2"><a xlink:href="namespaceprecice_1_1testing.html#a08533fd83bad3d7f27ea7f4a35a14aa4" target="_top" xlink:title="precice::testing::nextMeshID">
<polygon fill="#ffffff" stroke="#000000" points="179,-409.5 179,-428.5 334,-428.5 334,-409.5 179,-409.5"/>
<text text-anchor="middle" x="256.5" y="-416.5" font-family="Helvetica,sans-Serif" font-size="10.00" fill="#000000">precice::testing::nextMeshID</text>
</a>
</g>
</g>
<!-- Node130&#45;&gt;Node131 -->
<g id="edge1" class="edge">
<title>Node130&#45;&gt;Node131</title>
<path fill="none" stroke="#191970" d="M74.7446,-188.6006C85.3887,-218.929 121.8714,-314.1514 179,-373 191.9061,-386.2947 209.4557,-397.1328 224.5911,-404.9423"/>
<polygon fill="#191970" stroke="#191970" points="223.1236,-408.121 233.6399,-409.4083 226.2216,-401.8439 223.1236,-408.121"/>
</g>
<!-- Node133 -->
<g id="node4" class="node">
<title>Node133</title>
<g id="a_node4"><a xlink:href="classprecice_1_1impl_1_1WatchIntegral.html#a16110defeac41dfbe311b6d7e59e3dab" target="_top" xlink:title="Adds surface area information based on mesh connectivity. ">
<polygon fill="#ffffff" stroke="#000000" points="180,-333 180,-363 333,-363 333,-333 180,-333"/>
<text text-anchor="start" x="188" y="-351" font-family="Helvetica,sans-Serif" font-size="10.00" fill="#000000">precice::impl::WatchIntegral</text>
<text text-anchor="middle" x="256.5" y="-340" font-family="Helvetica,sans-Serif" font-size="10.00" fill="#000000">::initialize</text>
</a>
</g>
</g>
<!-- Node130&#45;&gt;Node133 -->
<g id="edge3" class="edge">
<title>Node130&#45;&gt;Node133</title>
<path fill="none" stroke="#191970" d="M81.9765,-188.5704C110.7835,-214.886 191.742,-288.8427 232.4681,-326.0465"/>
<polygon fill="#191970" stroke="#191970" points="230.3057,-328.8117 240.0495,-332.9722 235.0269,-323.6435 230.3057,-328.8117"/>
</g>
<!-- Node136 -->
<g id="node7" class="node">
<title>Node136</title>
<g id="a_node7"><a xlink:href="classprecice_1_1impl_1_1WatchIntegral.html#a98c1832c8ea8dca8bc03f0932346c952" target="_top" xlink:title="Writes one line with data of the integral over the mesh into the output file. ">
<polygon fill="#ffffff" stroke="#000000" points="180,-186 180,-216 333,-216 333,-186 180,-186"/>
<text text-anchor="start" x="188" y="-204" font-family="Helvetica,sans-Serif" font-size="10.00" fill="#000000">precice::impl::WatchIntegral</text>
<text text-anchor="middle" x="256.5" y="-193" font-family="Helvetica,sans-Serif" font-size="10.00" fill="#000000">::exportIntegralData</text>
</a>
</g>
</g>
<!-- Node130&#45;&gt;Node136 -->
<g id="edge6" class="edge">
<title>Node130&#45;&gt;Node136</title>
<path fill="none" stroke="#191970" d="M143.0258,-187.5058C151.817,-188.5512 160.8749,-189.6284 169.8589,-190.6967"/>
<polygon fill="#191970" stroke="#191970" points="169.6091,-194.1916 179.9525,-191.8971 170.4358,-187.2406 169.6091,-194.1916"/>
</g>
<!-- Node143 -->
<g id="node14" class="node">
<title>Node143</title>
<g id="a_node14"><a xlink:href="RTreeTests_8cpp.html#a9849f5c774ff22e557184d988b1cf9ea" target="_top" xlink:title="BOOST_TEST">
<polygon fill="#ffffff" stroke="#000000" points="216.5,-147.5 216.5,-166.5 296.5,-166.5 296.5,-147.5 216.5,-147.5"/>
<text text-anchor="middle" x="256.5" y="-154.5" font-family="Helvetica,sans-Serif" font-size="10.00" fill="#000000">BOOST_TEST</text>
</a>
</g>
</g>
<!-- Node130&#45;&gt;Node143 -->
<g id="edge14" class="edge">
<title>Node130&#45;&gt;Node143</title>
<path fill="none" stroke="#191970" d="M143.0258,-170.4942C164.1418,-167.9831 186.7971,-165.289 206.2689,-162.9734"/>
<polygon fill="#191970" stroke="#191970" points="206.9149,-166.4214 216.4316,-161.7649 206.0883,-159.4703 206.9149,-166.4214"/>
</g>
<!-- Node144 -->
<g id="node15" class="node">
<title>Node144</title>
<g id="a_node15"><a xlink:href="namespaceprecice_1_1testing.html#a6a116337529290bbb1bf2545b5fb315a" target="_top" xlink:title="equals to be used in tests. Prints both operatorans on failure ">
<polygon fill="#ffffff" stroke="#000000" points="191.5,-91.5 191.5,-110.5 321.5,-110.5 321.5,-91.5 191.5,-91.5"/>
<text text-anchor="middle" x="256.5" y="-98.5" font-family="Helvetica,sans-Serif" font-size="10.00" fill="#000000">precice::testing::equals</text>
</a>
</g>
</g>
<!-- Node130&#45;&gt;Node144 -->
<g id="edge15" class="edge">
<title>Node130&#45;&gt;Node144</title>
<path fill="none" stroke="#191970" d="M94.1846,-169.4357C126.867,-155.6561 187.3493,-130.1554 224.5428,-114.4738"/>
<polygon fill="#191970" stroke="#191970" points="226.0648,-117.6306 233.9195,-110.5204 223.3452,-111.1804 226.0648,-117.6306"/>
</g>
<!-- Node145 -->
<g id="node16" class="node">
<title>Node145</title>
<g id="a_node16"><a xlink:href="namespaceprecice_1_1math.html#a0e86802cfe992deba131d789d035b5b7" target="_top" xlink:title="Compares two Eigen::MatrixBase for equality up to tolerance. ">
<polygon fill="#ffffff" stroke="#000000" points="388,-.5 388,-19.5 510,-19.5 510,-.5 388,-.5"/>
<text text-anchor="middle" x="449" y="-7.5" font-family="Helvetica,sans-Serif" font-size="10.00" fill="#000000">precice::math::equals</text>
</a>
</g>
</g>
<!-- Node130&#45;&gt;Node145 -->
<g id="edge17" class="edge">
<title>Node130&#45;&gt;Node145</title>
<path fill="none" stroke="#191970" d="M79.3312,-169.4222C95.7439,-149.9805 135.8179,-105.7245 179,-82 241.572,-47.6225 321.429,-28.9761 378.0202,-19.335"/>
<polygon fill="#191970" stroke="#191970" points="378.6574,-22.7772 387.9533,-17.6943 377.5166,-15.8708 378.6574,-22.7772"/>
</g>
<!-- Node132 -->
<g id="node3" class="node">
<title>Node132</title>
<g id="a_node3"><a xlink:href="classprecice_1_1utils_1_1ManageUniqueIDs.html#a02be264c279698ae293587b6576088b5" target="_top" xlink:title="precice::utils::ManageUnique\lIDs::getFreeID">
<polygon fill="#ffffff" stroke="#000000" points="370,-431 370,-461 528,-461 528,-431 370,-431"/>
<text text-anchor="start" x="378" y="-449" font-family="Helvetica,sans-Serif" font-size="10.00" fill="#000000">precice::utils::ManageUnique</text>
<text text-anchor="middle" x="449" y="-438" font-family="Helvetica,sans-Serif" font-size="10.00" fill="#000000">IDs::getFreeID</text>
</a>
</g>
</g>
<!-- Node131&#45;&gt;Node132 -->
<g id="edge2" class="edge">
<title>Node131&#45;&gt;Node132</title>
<path fill="none" stroke="#191970" d="M324.3683,-428.5192C335.8694,-430.1323 347.9643,-431.8288 359.9113,-433.5044"/>
<polygon fill="#191970" stroke="#191970" points="359.5064,-436.9818 369.8956,-434.9048 360.4787,-430.0497 359.5064,-436.9818"/>
</g>
<!-- Node134 -->
<g id="node5" class="node">
<title>Node134</title>
<g id="a_node5"><a xlink:href="classprecice_1_1utils_1_1MasterSlave.html#a3837ad42361b53d7e930443ba07a9eb5" target="_top" xlink:title="True if this process is running a slave. ">
<polygon fill="#ffffff" stroke="#000000" points="376.5,-333 376.5,-363 521.5,-363 521.5,-333 376.5,-333"/>
<text text-anchor="start" x="384.5" y="-351" font-family="Helvetica,sans-Serif" font-size="10.00" fill="#000000">precice::utils::MasterSlave</text>
<text text-anchor="middle" x="449" y="-340" font-family="Helvetica,sans-Serif" font-size="10.00" fill="#000000">::isSlave</text>
</a>
</g>
</g>
<!-- Node133&#45;&gt;Node134 -->
<g id="edge4" class="edge">
<title>Node133&#45;&gt;Node134</title>
<path fill="none" stroke="#191970" d="M333.1342,-348C344.0515,-348 355.3204,-348 366.3464,-348"/>
<polygon fill="#191970" stroke="#191970" points="366.3869,-351.5001 376.3869,-348 366.3869,-344.5001 366.3869,-351.5001"/>
</g>
<!-- Node135 -->
<g id="node6" class="node">
<title>Node135</title>
<g id="a_node6"><a xlink:href="classprecice_1_1io_1_1TXTTableWriter.html#aa00e05bba3dca26c391d9df7ec0170cf" target="_top" xlink:title="Adds a data entry to the table. ">
<polygon fill="#ffffff" stroke="#000000" points="376,-382 376,-412 522,-412 522,-382 376,-382"/>
<text text-anchor="start" x="384" y="-400" font-family="Helvetica,sans-Serif" font-size="10.00" fill="#000000">precice::io::TXTTableWriter</text>
<text text-anchor="middle" x="449" y="-389" font-family="Helvetica,sans-Serif" font-size="10.00" fill="#000000">::addData</text>
</a>
</g>
</g>
<!-- Node133&#45;&gt;Node135 -->
<g id="edge5" class="edge">
<title>Node133&#45;&gt;Node135</title>
<path fill="none" stroke="#191970" d="M315.5646,-363.0346C335.9823,-368.2318 359.0381,-374.1006 380.17,-379.4796"/>
<polygon fill="#191970" stroke="#191970" points="379.4927,-382.9188 390.0471,-381.9938 381.2196,-376.1351 379.4927,-382.9188"/>
</g>
<!-- Node136&#45;&gt;Node134 -->
<g id="edge7" class="edge">
<title>Node136&#45;&gt;Node134</title>
<path fill="none" stroke="#191970" d="M266.4751,-216.2806C284.2049,-242.2442 323.7246,-294.9721 370,-324 372.6468,-325.6603 375.4155,-327.2118 378.2664,-328.6611"/>
<polygon fill="#191970" stroke="#191970" points="377.0531,-331.9554 387.6012,-332.9497 379.9754,-325.5945 377.0531,-331.9554"/>
</g>
<!-- Node137 -->
<g id="node8" class="node">
<title>Node137</title>
<g id="a_node8"><a xlink:href="classprecice_1_1io_1_1TXTTableWriter.html#adc48b2e227c529b370bf016996c5f9d1" target="_top" xlink:title="Writes a integral scalar data value associated to the entry name. ">
<polygon fill="#ffffff" stroke="#000000" points="376,-284 376,-314 522,-314 522,-284 376,-284"/>
<text text-anchor="start" x="384" y="-302" font-family="Helvetica,sans-Serif" font-size="10.00" fill="#000000">precice::io::TXTTableWriter</text>
<text text-anchor="middle" x="449" y="-291" font-family="Helvetica,sans-Serif" font-size="10.00" fill="#000000">::writeData</text>
</a>
</g>
</g>
<!-- Node136&#45;&gt;Node137 -->
<g id="edge8" class="edge">
<title>Node136&#45;&gt;Node137</title>
<path fill="none" stroke="#191970" d="M275.9945,-216.1856C297.8417,-232.5968 334.8238,-258.5962 370,-275 374.0557,-276.8913 378.297,-278.6782 382.6184,-280.3581"/>
<polygon fill="#191970" stroke="#191970" points="381.5721,-283.7023 392.1657,-283.8636 383.9849,-277.1313 381.5721,-283.7023"/>
</g>
<!-- Node138 -->
<g id="node9" class="node">
<title>Node138</title>
<g id="a_node9"><a xlink:href="classprecice_1_1impl_1_1WatchIntegral.html#a1fec41e0dfa5de7ad9804063b0b9ea29" target="_top" xlink:title="precice::impl::WatchIntegral\l::calculateVectorData">
<polygon fill="#ffffff" stroke="#000000" points="372.5,-235 372.5,-265 525.5,-265 525.5,-235 372.5,-235"/>
<text text-anchor="start" x="380.5" y="-253" font-family="Helvetica,sans-Serif" font-size="10.00" fill="#000000">precice::impl::WatchIntegral</text>
<text text-anchor="middle" x="449" y="-242" font-family="Helvetica,sans-Serif" font-size="10.00" fill="#000000">::calculateVectorData</text>
</a>
</g>
</g>
<!-- Node136&#45;&gt;Node138 -->
<g id="edge9" class="edge">
<title>Node136&#45;&gt;Node138</title>
<path fill="none" stroke="#191970" d="M315.5646,-216.0346C335.9823,-221.2318 359.0381,-227.1006 380.17,-232.4796"/>
<polygon fill="#191970" stroke="#191970" points="379.4927,-235.9188 390.0471,-234.9938 381.2196,-229.1351 379.4927,-235.9188"/>
</g>
<!-- Node139 -->
<g id="node10" class="node">
<title>Node139</title>
<g id="a_node10"><a xlink:href="classprecice_1_1utils_1_1MasterSlave.html#ae8671e778dec26782120295d51bb3fde" target="_top" xlink:title="Number of ranks. This includes ranks from both participants, e.g. minimal size is 2...">
<polygon fill="#ffffff" stroke="#000000" points="376.5,-186 376.5,-216 521.5,-216 521.5,-186 376.5,-186"/>
<text text-anchor="start" x="384.5" y="-204" font-family="Helvetica,sans-Serif" font-size="10.00" fill="#000000">precice::utils::MasterSlave</text>
<text text-anchor="middle" x="449" y="-193" font-family="Helvetica,sans-Serif" font-size="10.00" fill="#000000">::getSize</text>
</a>
</g>
</g>
<!-- Node136&#45;&gt;Node139 -->
<g id="edge10" class="edge">
<title>Node136&#45;&gt;Node139</title>
<path fill="none" stroke="#191970" d="M333.1342,-201C344.0515,-201 355.3204,-201 366.3464,-201"/>
<polygon fill="#191970" stroke="#191970" points="366.3869,-204.5001 376.3869,-201 366.3869,-197.5001 366.3869,-204.5001"/>
</g>
<!-- Node140 -->
<g id="node11" class="node">
<title>Node140</title>
<g id="a_node11"><a xlink:href="classprecice_1_1utils_1_1MasterSlave.html#a2633ea74e009a3743307da856f1c41ba" target="_top" xlink:title="precice::utils::MasterSlave\l::reduceSum">
<polygon fill="#ffffff" stroke="#000000" points="376.5,-137 376.5,-167 521.5,-167 521.5,-137 376.5,-137"/>
<text text-anchor="start" x="384.5" y="-155" font-family="Helvetica,sans-Serif" font-size="10.00" fill="#000000">precice::utils::MasterSlave</text>
<text text-anchor="middle" x="449" y="-144" font-family="Helvetica,sans-Serif" font-size="10.00" fill="#000000">::reduceSum</text>
</a>
</g>
</g>
<!-- Node136&#45;&gt;Node140 -->
<g id="edge11" class="edge">
<title>Node136&#45;&gt;Node140</title>
<path fill="none" stroke="#191970" d="M315.5646,-185.9654C335.9823,-180.7682 359.0381,-174.8994 380.17,-169.5204"/>
<polygon fill="#191970" stroke="#191970" points="381.2196,-172.8649 390.0471,-167.0062 379.4927,-166.0812 381.2196,-172.8649"/>
</g>
<!-- Node141 -->
<g id="node12" class="node">
<title>Node141</title>
<g id="a_node12"><a xlink:href="classprecice_1_1impl_1_1WatchIntegral.html#a44051e5035f7ba901bfccd445b451174" target="_top" xlink:title="precice::impl::WatchIntegral\l::calculateScalarData">
<polygon fill="#ffffff" stroke="#000000" points="372.5,-88 372.5,-118 525.5,-118 525.5,-88 372.5,-88"/>
<text text-anchor="start" x="380.5" y="-106" font-family="Helvetica,sans-Serif" font-size="10.00" fill="#000000">precice::impl::WatchIntegral</text>
<text text-anchor="middle" x="449" y="-95" font-family="Helvetica,sans-Serif" font-size="10.00" fill="#000000">::calculateScalarData</text>
</a>
</g>
</g>
<!-- Node136&#45;&gt;Node141 -->
<g id="edge12" class="edge">
<title>Node136&#45;&gt;Node141</title>
<path fill="none" stroke="#191970" d="M316.3063,-185.9349C322.5555,-183.1437 328.5908,-179.859 334,-176 355.7086,-160.5129 348.2485,-143.4267 370,-128 372.6988,-126.0859 375.5504,-124.314 378.5055,-122.6741"/>
<polygon fill="#191970" stroke="#191970" points="380.2333,-125.7239 387.632,-118.1404 377.119,-119.4548 380.2333,-125.7239"/>
</g>
<!-- Node142 -->
<g id="node13" class="node">
<title>Node142</title>
<g id="a_node13"><a xlink:href="classprecice_1_1impl_1_1WatchIntegral.html#a47043dc3ec321e4fd3db8714523dda79" target="_top" xlink:title="precice::impl::WatchIntegral\l::calculateSurfaceArea">
<polygon fill="#ffffff" stroke="#000000" points="372.5,-39 372.5,-69 525.5,-69 525.5,-39 372.5,-39"/>
<text text-anchor="start" x="380.5" y="-57" font-family="Helvetica,sans-Serif" font-size="10.00" fill="#000000">precice::impl::WatchIntegral</text>
<text text-anchor="middle" x="449" y="-46" font-family="Helvetica,sans-Serif" font-size="10.00" fill="#000000">::calculateSurfaceArea</text>
</a>
</g>
</g>
<!-- Node136&#45;&gt;Node142 -->
<g id="edge13" class="edge">
<title>Node136&#45;&gt;Node142</title>
<path fill="none" stroke="#191970" d="M320.1918,-185.9935C325.2155,-183.2104 329.9156,-179.9111 334,-176 367.2128,-144.1962 336.699,-110.7114 370,-79 371.6506,-77.4282 373.3994,-75.9552 375.2281,-74.5748"/>
<polygon fill="#191970" stroke="#191970" points="377.2033,-77.4657 383.6997,-69.0963 373.402,-71.5877 377.2033,-77.4657"/>
</g>
<!-- Node144&#45;&gt;Node145 -->
<g id="edge16" class="edge">
<title>Node144&#45;&gt;Node145</title>
<path fill="none" stroke="#191970" d="M268.6756,-91.3428C288.6772,-75.9403 330.2488,-45.8376 370,-29 375.8817,-26.5087 382.1543,-24.3042 388.4955,-22.3631"/>
<polygon fill="#191970" stroke="#191970" points="389.8093,-25.6284 398.4704,-19.5262 387.8944,-18.8954 389.8093,-25.6284"/>
</g>
</g>
</svg>
