<?xml version="1.0" encoding="UTF-8" standalone="no"?>
<!DOCTYPE svg PUBLIC "-//W3C//DTD SVG 1.1//EN"
 "http://www.w3.org/Graphics/SVG/1.1/DTD/svg11.dtd">
<!-- Generated by graphviz version 2.40.1 (20161225.0304)
 -->
<!-- Title: src/xml/XMLTag.cpp Pages: 1 -->
<svg width="2137pt" height="498pt"
 viewBox="0.00 0.00 2136.76 498.00" xmlns="http://www.w3.org/2000/svg" xmlns:xlink="http://www.w3.org/1999/xlink">
<g id="graph0" class="graph" transform="scale(1 1) rotate(0) translate(4 494)">
<title>src/xml/XMLTag.cpp</title>
<polygon fill="#ffffff" stroke="transparent" points="-4,4 -4,-494 2132.7603,-494 2132.7603,4 -4,4"/>
<!-- Node0 -->
<g id="node1" class="node">
<title>Node0</title>
<polygon fill="#bfbfbf" stroke="#000000" points="1176.5594,-470.5 1176.5594,-489.5 1287.5594,-489.5 1287.5594,-470.5 1176.5594,-470.5"/>
<text text-anchor="middle" x="1232.0594" y="-477.5" font-family="Helvetica,sans-Serif" font-size="10.00" fill="#000000">src/xml/XMLTag.cpp</text>
</g>
<!-- Node1 -->
<g id="node2" class="node">
<title>Node1</title>
<g id="a_node2"><a xlink:href="XMLTag_8hpp.html" target="_top" xlink:title="xml/XMLTag.hpp">
<polygon fill="#ffffff" stroke="#000000" points="1508.5594,-414.5 1508.5594,-433.5 1603.5594,-433.5 1603.5594,-414.5 1508.5594,-414.5"/>
<text text-anchor="middle" x="1556.0594" y="-421.5" font-family="Helvetica,sans-Serif" font-size="10.00" fill="#000000">xml/XMLTag.hpp</text>
</a>
</g>
</g>
<!-- Node0&#45;&gt;Node1 -->
<g id="edge1" class="edge">
<title>Node0&#45;&gt;Node1</title>
<path fill="none" stroke="#191970" d="M1287.3888,-470.4369C1346.1628,-460.2784 1438.658,-444.2916 1498.3306,-433.9778"/>
<polygon fill="#191970" stroke="#191970" points="1499.0868,-437.3991 1508.3446,-432.247 1497.8945,-430.5014 1499.0868,-437.3991"/>
</g>
<!-- Node2 -->
<g id="node3" class="node">
<title>Node2</title>
<polygon fill="#ffffff" stroke="#bfbfbf" points="912.5594,-241 912.5594,-260 981.5594,-260 981.5594,-241 912.5594,-241"/>
<text text-anchor="middle" x="947.0594" y="-248" font-family="Helvetica,sans-Serif" font-size="10.00" fill="#000000">Eigen/Core</text>
</g>
<!-- Node0&#45;&gt;Node2 -->
<g id="edge66" class="edge">
<title>Node0&#45;&gt;Node2</title>
<path fill="none" stroke="#191970" d="M1176.3291,-475.3614C1130.2994,-469.9227 1064.1423,-458.3316 1011.0594,-434 944.1475,-403.3296 914.9486,-390.903 889.0594,-322 880.6252,-299.5528 901.9953,-278.8598 921.1339,-265.574"/>
<polygon fill="#191970" stroke="#191970" points="923.1947,-268.4085 929.6552,-260.0112 919.3682,-262.5469 923.1947,-268.4085"/>
</g>
<!-- Node9 -->
<g id="node10" class="node">
<title>Node9</title>
<g id="a_node10"><a xlink:href="LogMacros_8hpp.html" target="_top" xlink:title="LogMacros.hpp">
<polygon fill="#ffffff" stroke="#000000" points="727.5594,-123.5 727.5594,-142.5 816.5594,-142.5 816.5594,-123.5 727.5594,-123.5"/>
<text text-anchor="middle" x="772.0594" y="-130.5" font-family="Helvetica,sans-Serif" font-size="10.00" fill="#000000">LogMacros.hpp</text>
</a>
</g>
</g>
<!-- Node0&#45;&gt;Node9 -->
<g id="edge69" class="edge">
<title>Node0&#45;&gt;Node9</title>
<path fill="none" stroke="#191970" d="M1176.4411,-476.0734C1066.532,-466.7803 832.0594,-438.673 832.0594,-368 832.0594,-368 832.0594,-368 832.0594,-312 832.0594,-250.7798 800.1178,-183.6034 782.8457,-151.7536"/>
<polygon fill="#191970" stroke="#191970" points="785.7326,-149.7435 777.8124,-142.7064 779.6156,-153.1467 785.7326,-149.7435"/>
</g>
<!-- Node20 -->
<g id="node21" class="node">
<title>Node20</title>
<g id="a_node21"><a xlink:href="ConfigParser_8hpp.html" target="_top" xlink:title="xml/ConfigParser.hpp">
<polygon fill="#ffffff" stroke="#000000" points="1949.5594,-358.5 1949.5594,-377.5 2068.5594,-377.5 2068.5594,-358.5 1949.5594,-358.5"/>
<text text-anchor="middle" x="2009.0594" y="-365.5" font-family="Helvetica,sans-Serif" font-size="10.00" fill="#000000">xml/ConfigParser.hpp</text>
</a>
</g>
</g>
<!-- Node0&#45;&gt;Node20 -->
<g id="edge77" class="edge">
<title>Node0&#45;&gt;Node20</title>
<path fill="none" stroke="#191970" d="M1287.5651,-477.3029C1379.306,-472.293 1568.1325,-459.6458 1726.0594,-434 1811.6157,-420.1065 1909.7986,-395.1349 1965.1255,-380.2123"/>
<polygon fill="#191970" stroke="#191970" points="1966.2104,-383.5446 1974.9448,-377.5478 1964.3772,-376.7889 1966.2104,-383.5446"/>
</g>
<!-- Node26 -->
<g id="node27" class="node">
<title>Node26</title>
<polygon fill="#ffffff" stroke="#bfbfbf" points="898.5594,-302.5 898.5594,-321.5 943.5594,-321.5 943.5594,-302.5 898.5594,-302.5"/>
<text text-anchor="middle" x="921.0594" y="-309.5" font-family="Helvetica,sans-Serif" font-size="10.00" fill="#000000">utility</text>
</g>
<!-- Node0&#45;&gt;Node26 -->
<g id="edge68" class="edge">
<title>Node0&#45;&gt;Node26</title>
<path fill="none" stroke="#191970" d="M1176.3782,-471.0363C1116.5344,-458.9374 1021.4839,-432.3068 958.0594,-378 943.6067,-365.625 933.664,-346.1252 927.7544,-331.5245"/>
<polygon fill="#191970" stroke="#191970" points="930.9453,-330.0654 924.1573,-321.9307 924.3909,-332.523 930.9453,-330.0654"/>
</g>
<!-- Node27 -->
<g id="node28" class="node">
<title>Node27</title>
<g id="a_node28"><a xlink:href="assertion_8hpp.html" target="_top" xlink:title="utils/assertion.hpp">
<polygon fill="#ffffff" stroke="#000000" points="369.5594,-302.5 369.5594,-321.5 476.5594,-321.5 476.5594,-302.5 369.5594,-302.5"/>
<text text-anchor="middle" x="423.0594" y="-309.5" font-family="Helvetica,sans-Serif" font-size="10.00" fill="#000000">utils/assertion.hpp</text>
</a>
</g>
</g>
<!-- Node0&#45;&gt;Node27 -->
<g id="edge76" class="edge">
<title>Node0&#45;&gt;Node27</title>
<path fill="none" stroke="#191970" d="M1176.289,-477.1542C1096.2813,-472.3167 944.6169,-460.3287 818.0594,-434 682.0455,-405.7041 525.893,-350.4505 457.8147,-325.1817"/>
<polygon fill="#191970" stroke="#191970" points="458.6339,-321.7517 448.0412,-321.535 456.1867,-328.3101 458.6339,-321.7517"/>
</g>
<!-- Node37 -->
<g id="node38" class="node">
<title>Node37</title>
<polygon fill="#ffffff" stroke="#bfbfbf" points="1660.5594,-414.5 1660.5594,-433.5 1717.5594,-433.5 1717.5594,-414.5 1660.5594,-414.5"/>
<text text-anchor="middle" x="1689.0594" y="-421.5" font-family="Helvetica,sans-Serif" font-size="10.00" fill="#000000">ostream</text>
</g>
<!-- Node0&#45;&gt;Node37 -->
<g id="edge67" class="edge">
<title>Node0&#45;&gt;Node37</title>
<path fill="none" stroke="#191970" d="M1287.596,-475.9214C1367.3212,-469.5931 1518.6463,-455.8158 1646.0594,-434 1647.5231,-433.7494 1649.0115,-433.4794 1650.5126,-433.1945"/>
<polygon fill="#191970" stroke="#191970" points="1651.3853,-436.5883 1660.4736,-431.1428 1649.9731,-429.7322 1651.3853,-436.5883"/>
</g>
<!-- Node38 -->
<g id="node39" class="node">
<title>Node38</title>
<g id="a_node39"><a xlink:href="Helpers_8hpp.html" target="_top" xlink:title="utils/Helpers.hpp">
<polygon fill="#ffffff" stroke="#000000" points="1709.5594,-358.5 1709.5594,-377.5 1808.5594,-377.5 1808.5594,-358.5 1709.5594,-358.5"/>
<text text-anchor="middle" x="1759.0594" y="-365.5" font-family="Helvetica,sans-Serif" font-size="10.00" fill="#000000">utils/Helpers.hpp</text>
</a>
</g>
</g>
<!-- Node0&#45;&gt;Node38 -->
<g id="edge70" class="edge">
<title>Node0&#45;&gt;Node38</title>
<path fill="none" stroke="#191970" d="M1287.7731,-475.6817C1378.2079,-468.2658 1552.8071,-452.1446 1612.0594,-434 1630.6853,-428.2963 1633.4206,-422.2663 1651.0594,-414 1675.864,-402.3754 1704.3948,-390.2765 1725.9006,-381.406"/>
<polygon fill="#191970" stroke="#191970" points="1727.3255,-384.6046 1735.2487,-377.5709 1724.6686,-378.1285 1727.3255,-384.6046"/>
</g>
<!-- Node1&#45;&gt;Node2 -->
<g id="edge2" class="edge">
<title>Node1&#45;&gt;Node2</title>
<path fill="none" stroke="#191970" d="M1508.3545,-420.0352C1389.0111,-409.3827 1081.0196,-377.1534 996.0594,-322 976.6174,-309.3789 962.8321,-286.0609 954.9349,-269.4875"/>
<polygon fill="#191970" stroke="#191970" points="958.0574,-267.8963 950.7807,-260.1957 951.667,-270.7534 958.0574,-267.8963"/>
</g>
<!-- Node3 -->
<g id="node4" class="node">
<title>Node3</title>
<polygon fill="#ffffff" stroke="#bfbfbf" points="1767.0594,-302.5 1767.0594,-321.5 1805.0594,-321.5 1805.0594,-302.5 1767.0594,-302.5"/>
<text text-anchor="middle" x="1786.0594" y="-309.5" font-family="Helvetica,sans-Serif" font-size="10.00" fill="#000000">map</text>
</g>
<!-- Node1&#45;&gt;Node3 -->
<g id="edge3" class="edge">
<title>Node1&#45;&gt;Node3</title>
<path fill="none" stroke="#191970" d="M1576.7782,-414.4561C1596.6621,-405.2541 1627.505,-390.8683 1654.0594,-378 1690.2011,-360.4857 1731.5724,-339.675 1758.2189,-326.1712"/>
<polygon fill="#191970" stroke="#191970" points="1759.9991,-329.1927 1767.3329,-321.5463 1756.8315,-322.9504 1759.9991,-329.1927"/>
</g>
<!-- Node4 -->
<g id="node5" class="node">
<title>Node4</title>
<polygon fill="#ffffff" stroke="#bfbfbf" points="1473.0594,-123.5 1473.0594,-142.5 1531.0594,-142.5 1531.0594,-123.5 1473.0594,-123.5"/>
<text text-anchor="middle" x="1502.0594" y="-130.5" font-family="Helvetica,sans-Serif" font-size="10.00" fill="#000000">memory</text>
</g>
<!-- Node1&#45;&gt;Node4 -->
<g id="edge4" class="edge">
<title>Node1&#45;&gt;Node4</title>
<path fill="none" stroke="#191970" d="M1552.3705,-414.2751C1545.4164,-395.0407 1531.0594,-350.6505 1531.0594,-312 1531.0594,-312 1531.0594,-312 1531.0594,-250.5 1531.0594,-214.948 1518.3906,-175.0618 1509.7999,-152.1018"/>
<polygon fill="#191970" stroke="#191970" points="1512.9739,-150.6064 1506.0917,-142.5512 1506.4485,-153.1401 1512.9739,-150.6064"/>
</g>
<!-- Node5 -->
<g id="node6" class="node">
<title>Node5</title>
<polygon fill="#ffffff" stroke="#bfbfbf" points="1717.0594,-302.5 1717.0594,-321.5 1749.0594,-321.5 1749.0594,-302.5 1717.0594,-302.5"/>
<text text-anchor="middle" x="1733.0594" y="-309.5" font-family="Helvetica,sans-Serif" font-size="10.00" fill="#000000">set</text>
</g>
<!-- Node1&#45;&gt;Node5 -->
<g id="edge5" class="edge">
<title>Node1&#45;&gt;Node5</title>
<path fill="none" stroke="#191970" d="M1569.9989,-414.354C1589.0198,-401.2733 1624.2648,-377.3248 1655.0594,-358 1672.4829,-347.066 1692.4719,-335.2923 1707.8523,-326.3935"/>
<polygon fill="#191970" stroke="#191970" points="1709.8507,-329.2816 1716.7691,-321.2575 1706.3568,-323.2159 1709.8507,-329.2816"/>
</g>
<!-- Node6 -->
<g id="node7" class="node">
<title>Node6</title>
<polygon fill="#ffffff" stroke="#bfbfbf" points="1372.0594,-.5 1372.0594,-19.5 1416.0594,-19.5 1416.0594,-.5 1372.0594,-.5"/>
<text text-anchor="middle" x="1394.0594" y="-7.5" font-family="Helvetica,sans-Serif" font-size="10.00" fill="#000000">string</text>
</g>
<!-- Node1&#45;&gt;Node6 -->
<g id="edge6" class="edge">
<title>Node1&#45;&gt;Node6</title>
<path fill="none" stroke="#191970" d="M1603.8816,-418.7702C1618.9689,-417.1729 1635.7049,-415.4552 1651.0594,-414 1745.8601,-405.0152 1995.8137,-425.9953 2078.0594,-378 2108.7228,-360.106 2123.0594,-347.5027 2123.0594,-312 2123.0594,-312 2123.0594,-312 2123.0594,-133 2123.0594,-126.509 2178.5055,-114.6167 1934.0594,-56 1836.6213,-32.635 1527.5268,-16.3074 1426.4148,-11.4805"/>
<polygon fill="#191970" stroke="#191970" points="1426.3647,-7.9743 1416.2108,-10.9989 1426.0346,-14.9665 1426.3647,-7.9743"/>
</g>
<!-- Node7 -->
<g id="node8" class="node">
<title>Node7</title>
<polygon fill="#ffffff" stroke="#bfbfbf" points="1909.5594,-179.5 1909.5594,-198.5 1956.5594,-198.5 1956.5594,-179.5 1909.5594,-179.5"/>
<text text-anchor="middle" x="1933.0594" y="-186.5" font-family="Helvetica,sans-Serif" font-size="10.00" fill="#000000">vector</text>
</g>
<!-- Node1&#45;&gt;Node7 -->
<g id="edge7" class="edge">
<title>Node1&#45;&gt;Node7</title>
<path fill="none" stroke="#191970" d="M1603.6931,-418.0578C1668.0791,-409.6072 1779.1885,-393.4262 1817.0594,-378 1882.8392,-351.2055 1911.939,-334.4058 1931.0594,-266 1936.3314,-247.1384 1936.2259,-224.6572 1935.1703,-208.8707"/>
<polygon fill="#191970" stroke="#191970" points="1938.6402,-208.3701 1934.297,-198.7065 1931.6659,-208.9694 1938.6402,-208.3701"/>
</g>
<!-- Node8 -->
<g id="node9" class="node">
<title>Node8</title>
<g id="a_node9"><a xlink:href="Logger_8hpp.html" target="_top" xlink:title="logging/Logger.hpp">
<polygon fill="#ffffff" stroke="#000000" points="1355.5594,-179.5 1355.5594,-198.5 1464.5594,-198.5 1464.5594,-179.5 1355.5594,-179.5"/>
<text text-anchor="middle" x="1410.0594" y="-186.5" font-family="Helvetica,sans-Serif" font-size="10.00" fill="#000000">logging/Logger.hpp</text>
</a>
</g>
</g>
<!-- Node1&#45;&gt;Node8 -->
<g id="edge8" class="edge">
<title>Node1&#45;&gt;Node8</title>
<path fill="none" stroke="#191970" d="M1546.8131,-414.2092C1538.5247,-405.1838 1526.2855,-391.2234 1517.0594,-378 1511.5317,-370.0775 1446.2676,-253.6908 1420.4637,-207.5973"/>
<polygon fill="#191970" stroke="#191970" points="1423.3982,-205.674 1415.4601,-198.657 1417.2897,-209.0926 1423.3982,-205.674"/>
</g>
<!-- Node1&#45;&gt;Node20 -->
<g id="edge25" class="edge">
<title>Node1&#45;&gt;Node20</title>
<path fill="none" stroke="#191970" d="M1603.6875,-417.7154C1674.2196,-409.0627 1810.1873,-392.8603 1926.0594,-378 1930.2545,-377.462 1934.5822,-376.8987 1938.9593,-376.3253"/>
<polygon fill="#191970" stroke="#191970" points="1939.764,-379.7497 1949.2226,-374.9762 1938.8517,-372.8094 1939.764,-379.7497"/>
</g>
<!-- Node21 -->
<g id="node22" class="node">
<title>Node21</title>
<g id="a_node22"><a xlink:href="XMLAttribute_8hpp.html" target="_top" xlink:title="xml/XMLAttribute.hpp">
<polygon fill="#ffffff" stroke="#000000" points="1310.0594,-358.5 1310.0594,-377.5 1432.0594,-377.5 1432.0594,-358.5 1310.0594,-358.5"/>
<text text-anchor="middle" x="1371.0594" y="-365.5" font-family="Helvetica,sans-Serif" font-size="10.00" fill="#000000">xml/XMLAttribute.hpp</text>
</a>
</g>
</g>
<!-- Node1&#45;&gt;Node21 -->
<g id="edge32" class="edge">
<title>Node1&#45;&gt;Node21</title>
<path fill="none" stroke="#191970" d="M1524.2567,-414.3733C1493.2277,-404.9807 1445.8839,-390.6496 1412.0446,-380.4064"/>
<polygon fill="#191970" stroke="#191970" points="1413.0322,-377.0485 1402.447,-377.5011 1411.0041,-383.7483 1413.0322,-377.0485"/>
</g>
<!-- Node8&#45;&gt;Node4 -->
<g id="edge9" class="edge">
<title>Node8&#45;&gt;Node4</title>
<path fill="none" stroke="#191970" d="M1426.0845,-179.2455C1440.2002,-170.6534 1460.9857,-158.0014 1477.2493,-148.1018"/>
<polygon fill="#191970" stroke="#191970" points="1479.4957,-150.8319 1486.2178,-142.6427 1475.856,-144.8525 1479.4957,-150.8319"/>
</g>
<!-- Node8&#45;&gt;Node6 -->
<g id="edge10" class="edge">
<title>Node8&#45;&gt;Node6</title>
<path fill="none" stroke="#191970" d="M1410.8393,-179.242C1412.4043,-157.14 1415.2004,-101.6304 1408.0594,-56 1406.6594,-47.0541 1403.9324,-37.4309 1401.2542,-29.3103"/>
<polygon fill="#191970" stroke="#191970" points="1404.4903,-27.9616 1397.8774,-19.6839 1397.8849,-30.2788 1404.4903,-27.9616"/>
</g>
<!-- Node8&#45;&gt;Node9 -->
<g id="edge11" class="edge">
<title>Node8&#45;&gt;Node9</title>
<path fill="none" stroke="#191970" d="M1355.3064,-184.9455C1220.7884,-174.943 881.2985,-149.4353 830.0594,-143 828.9695,-142.8631 827.8689,-142.7201 826.7603,-142.5717"/>
<polygon fill="#191970" stroke="#191970" points="827.0436,-139.0764 816.646,-141.1113 826.0431,-146.0045 827.0436,-139.0764"/>
</g>
<!-- Node9&#45;&gt;Node6 -->
<g id="edge18" class="edge">
<title>Node9&#45;&gt;Node6</title>
<path fill="none" stroke="#191970" d="M816.669,-125.0587C821.1869,-124.3294 825.7109,-123.6294 830.0594,-123 966.0221,-103.322 1010.552,-140.5629 1137.0594,-87 1157.1304,-78.502 1155.3924,-65.3953 1175.0594,-56 1236.9156,-26.45 1317.5446,-15.7816 1361.6808,-12.0048"/>
<polygon fill="#191970" stroke="#191970" points="1362.1293,-15.4803 1371.823,-11.2044 1361.5786,-8.502 1362.1293,-15.4803"/>
</g>
<!-- Node10 -->
<g id="node11" class="node">
<title>Node10</title>
<polygon fill="#ffffff" stroke="#bfbfbf" points="422.0594,-56.5 422.0594,-86.5 532.0594,-86.5 532.0594,-56.5 422.0594,-56.5"/>
<text text-anchor="start" x="430.0594" y="-74.5" font-family="Helvetica,sans-Serif" font-size="10.00" fill="#000000">boost/preprocessor</text>
<text text-anchor="middle" x="477.0594" y="-63.5" font-family="Helvetica,sans-Serif" font-size="10.00" fill="#000000">/control/if.hpp</text>
</g>
<!-- Node9&#45;&gt;Node10 -->
<g id="edge12" class="edge">
<title>Node9&#45;&gt;Node10</title>
<path fill="none" stroke="#191970" d="M727.23,-124.6379C682.6997,-116.2053 612.2352,-102.5228 542.0787,-87.1783"/>
<polygon fill="#191970" stroke="#191970" points="542.7024,-83.7319 532.184,-85.0025 541.199,-90.5686 542.7024,-83.7319"/>
</g>
<!-- Node11 -->
<g id="node12" class="node">
<title>Node11</title>
<polygon fill="#ffffff" stroke="#bfbfbf" points="550.0594,-56.5 550.0594,-86.5 666.0594,-86.5 666.0594,-56.5 550.0594,-56.5"/>
<text text-anchor="start" x="558.0594" y="-74.5" font-family="Helvetica,sans-Serif" font-size="10.00" fill="#000000">boost/preprocessor</text>
<text text-anchor="middle" x="608.0594" y="-63.5" font-family="Helvetica,sans-Serif" font-size="10.00" fill="#000000">/facilities/empty.hpp</text>
</g>
<!-- Node9&#45;&gt;Node11 -->
<g id="edge13" class="edge">
<title>Node9&#45;&gt;Node11</title>
<path fill="none" stroke="#191970" d="M746.4344,-123.3906C722.8004,-114.5279 687.0565,-101.1239 657.8178,-90.1594"/>
<polygon fill="#191970" stroke="#191970" points="658.7705,-86.7787 648.1783,-86.5446 656.3126,-93.333 658.7705,-86.7787"/>
</g>
<!-- Node12 -->
<g id="node13" class="node">
<title>Node12</title>
<polygon fill="#ffffff" stroke="#bfbfbf" points="30.5594,-56.5 30.5594,-86.5 141.5594,-86.5 141.5594,-56.5 30.5594,-56.5"/>
<text text-anchor="start" x="38.5594" y="-74.5" font-family="Helvetica,sans-Serif" font-size="10.00" fill="#000000">boost/preprocessor</text>
<text text-anchor="middle" x="86.0594" y="-63.5" font-family="Helvetica,sans-Serif" font-size="10.00" fill="#000000">/seq/for_each_i.hpp</text>
</g>
<!-- Node9&#45;&gt;Node12 -->
<g id="edge14" class="edge">
<title>Node9&#45;&gt;Node12</title>
<path fill="none" stroke="#191970" d="M727.3537,-132.1399C626.4084,-129.6724 373.0732,-120.5342 151.792,-86.9323"/>
<polygon fill="#191970" stroke="#191970" points="152.0286,-83.4276 141.6125,-85.3656 150.9637,-90.3462 152.0286,-83.4276"/>
</g>
<!-- Node13 -->
<g id="node14" class="node">
<title>Node13</title>
<polygon fill="#ffffff" stroke="#bfbfbf" points="160.0594,-56.5 160.0594,-86.5 270.0594,-86.5 270.0594,-56.5 160.0594,-56.5"/>
<text text-anchor="start" x="168.0594" y="-74.5" font-family="Helvetica,sans-Serif" font-size="10.00" fill="#000000">boost/preprocessor</text>
<text text-anchor="middle" x="215.0594" y="-63.5" font-family="Helvetica,sans-Serif" font-size="10.00" fill="#000000">/stringize.hpp</text>
</g>
<!-- Node9&#45;&gt;Node13 -->
<g id="edge15" class="edge">
<title>Node9&#45;&gt;Node13</title>
<path fill="none" stroke="#191970" d="M727.2532,-130.9913C641.978,-126.6989 450.3943,-114.8038 280.0111,-87.0052"/>
<polygon fill="#191970" stroke="#191970" points="280.5503,-83.5469 270.1132,-85.3683 279.4081,-90.4531 280.5503,-83.5469"/>
</g>
<!-- Node14 -->
<g id="node15" class="node">
<title>Node14</title>
<polygon fill="#ffffff" stroke="#bfbfbf" points="288.5594,-56.5 288.5594,-86.5 403.5594,-86.5 403.5594,-56.5 288.5594,-56.5"/>
<text text-anchor="start" x="296.5594" y="-74.5" font-family="Helvetica,sans-Serif" font-size="10.00" fill="#000000">boost/preprocessor</text>
<text text-anchor="middle" x="346.0594" y="-63.5" font-family="Helvetica,sans-Serif" font-size="10.00" fill="#000000">/variadic/to_seq.hpp</text>
</g>
<!-- Node9&#45;&gt;Node14 -->
<g id="edge16" class="edge">
<title>Node9&#45;&gt;Node14</title>
<path fill="none" stroke="#191970" d="M727.3469,-128.7217C661.0821,-122.0634 532.7368,-107.9521 413.7396,-87.0088"/>
<polygon fill="#191970" stroke="#191970" points="414.1861,-83.5334 403.7274,-85.2264 412.9591,-90.425 414.1861,-83.5334"/>
</g>
<!-- Node15 -->
<g id="node16" class="node">
<title>Node15</title>
<polygon fill="#ffffff" stroke="#bfbfbf" points="684.0594,-62 684.0594,-81 820.0594,-81 820.0594,-62 684.0594,-62"/>
<text text-anchor="middle" x="752.0594" y="-69" font-family="Helvetica,sans-Serif" font-size="10.00" fill="#000000">boost/vmd/is_empty.hpp</text>
</g>
<!-- Node9&#45;&gt;Node15 -->
<g id="edge17" class="edge">
<title>Node9&#45;&gt;Node15</title>
<path fill="none" stroke="#191970" d="M768.9344,-123.3906C766.1328,-114.776 761.936,-101.8708 758.4287,-91.0858"/>
<polygon fill="#191970" stroke="#191970" points="761.6495,-89.6722 755.2284,-81.2449 754.9927,-91.8371 761.6495,-89.6722"/>
</g>
<!-- Node16 -->
<g id="node17" class="node">
<title>Node16</title>
<g id="a_node17"><a xlink:href="Tracer_8hpp.html" target="_top" xlink:title="logging/Tracer.hpp">
<polygon fill="#ffffff" stroke="#000000" points="1184.5594,-62 1184.5594,-81 1289.5594,-81 1289.5594,-62 1184.5594,-62"/>
<text text-anchor="middle" x="1237.0594" y="-69" font-family="Helvetica,sans-Serif" font-size="10.00" fill="#000000">logging/Tracer.hpp</text>
</a>
</g>
</g>
<!-- Node9&#45;&gt;Node16 -->
<g id="edge19" class="edge">
<title>Node9&#45;&gt;Node16</title>
<path fill="none" stroke="#191970" d="M816.6618,-125.0079C821.1811,-124.2887 825.7075,-123.6049 830.0594,-123 980.5682,-102.0797 1020.2029,-112.1714 1170.0594,-87 1176.3954,-85.9357 1183.0281,-84.634 1189.5529,-83.2417"/>
<polygon fill="#191970" stroke="#191970" points="1190.6542,-86.5826 1199.6591,-81.0003 1189.1385,-79.7486 1190.6542,-86.5826"/>
</g>
<!-- Node17 -->
<g id="node18" class="node">
<title>Node17</title>
<polygon fill="#ffffff" stroke="#bfbfbf" points="838.0594,-62 838.0594,-81 982.0594,-81 982.0594,-62 838.0594,-62"/>
<text text-anchor="middle" x="910.0594" y="-69" font-family="Helvetica,sans-Serif" font-size="10.00" fill="#000000">prettyprint/prettyprint.hpp</text>
</g>
<!-- Node9&#45;&gt;Node17 -->
<g id="edge21" class="edge">
<title>Node9&#45;&gt;Node17</title>
<path fill="none" stroke="#191970" d="M793.6219,-123.3906C816.6105,-113.1457 853.2154,-96.8326 879.2418,-85.2339"/>
<polygon fill="#191970" stroke="#191970" points="880.939,-88.3095 888.6483,-81.0419 878.0895,-81.9156 880.939,-88.3095"/>
</g>
<!-- Node18 -->
<g id="node19" class="node">
<title>Node18</title>
<g id="a_node19"><a xlink:href="String_8hpp.html" target="_top" xlink:title="utils/String.hpp">
<polygon fill="#ffffff" stroke="#000000" points="1038.0594,-62 1038.0594,-81 1128.0594,-81 1128.0594,-62 1038.0594,-62"/>
<text text-anchor="middle" x="1083.0594" y="-69" font-family="Helvetica,sans-Serif" font-size="10.00" fill="#000000">utils/String.hpp</text>
</a>
</g>
</g>
<!-- Node9&#45;&gt;Node18 -->
<g id="edge22" class="edge">
<title>Node9&#45;&gt;Node18</title>
<path fill="none" stroke="#191970" d="M816.6181,-124.1885C872.2678,-113.1839 967.4725,-94.3572 1027.7325,-82.4408"/>
<polygon fill="#191970" stroke="#191970" points="1028.6946,-85.8185 1037.8256,-80.4449 1027.3366,-78.9514 1028.6946,-85.8185"/>
</g>
<!-- Node16&#45;&gt;Node8 -->
<g id="edge20" class="edge">
<title>Node16&#45;&gt;Node8</title>
<path fill="none" stroke="#191970" d="M1251.4123,-81.2484C1281.4918,-101.6781 1351.3375,-149.1167 1387.4833,-173.6665"/>
<polygon fill="#191970" stroke="#191970" points="1385.6632,-176.6613 1395.902,-179.3845 1389.5962,-170.8706 1385.6632,-176.6613"/>
</g>
<!-- Node18&#45;&gt;Node6 -->
<g id="edge24" class="edge">
<title>Node18&#45;&gt;Node6</title>
<path fill="none" stroke="#191970" d="M1117.5814,-61.9586C1125.5894,-59.8768 1134.0989,-57.7695 1142.0594,-56 1220.5611,-38.5502 1313.8928,-22.8011 1361.938,-15.0562"/>
<polygon fill="#191970" stroke="#191970" points="1362.7153,-18.4765 1372.0359,-13.4391 1361.6083,-11.5645 1362.7153,-18.4765"/>
</g>
<!-- Node19 -->
<g id="node20" class="node">
<title>Node19</title>
<polygon fill="#ffffff" stroke="#bfbfbf" points="982.0594,-.5 982.0594,-19.5 1038.0594,-19.5 1038.0594,-.5 982.0594,-.5"/>
<text text-anchor="middle" x="1010.0594" y="-7.5" font-family="Helvetica,sans-Serif" font-size="10.00" fill="#000000">sstream</text>
</g>
<!-- Node18&#45;&gt;Node19 -->
<g id="edge23" class="edge">
<title>Node18&#45;&gt;Node19</title>
<path fill="none" stroke="#191970" d="M1071.6531,-61.8906C1060.3624,-52.3786 1042.8627,-37.6357 1029.3975,-26.2917"/>
<polygon fill="#191970" stroke="#191970" points="1031.5293,-23.5111 1021.6264,-19.7449 1027.0192,-28.8646 1031.5293,-23.5111"/>
</g>
<!-- Node20&#45;&gt;Node1 -->
<g id="edge31" class="edge">
<title>Node20&#45;&gt;Node1</title>
<path fill="none" stroke="#191970" d="M1949.5237,-377.2946C1947.6842,-377.5336 1945.8596,-377.7691 1944.0594,-378 1827.2705,-392.9779 1690.0667,-409.3192 1614.011,-417.9193"/>
<polygon fill="#191970" stroke="#191970" points="1613.2393,-414.484 1603.6935,-419.0805 1614.0222,-421.4401 1613.2393,-414.484"/>
</g>
<!-- Node20&#45;&gt;Node3 -->
<g id="edge26" class="edge">
<title>Node20&#45;&gt;Node3</title>
<path fill="none" stroke="#191970" d="M1962.1842,-358.4767C1924.6166,-350.4996 1870.4214,-338.2217 1814.8938,-322.021"/>
<polygon fill="#191970" stroke="#191970" points="1815.8283,-318.6476 1805.2463,-319.17 1813.8444,-325.3606 1815.8283,-318.6476"/>
</g>
<!-- Node20&#45;&gt;Node4 -->
<g id="edge27" class="edge">
<title>Node20&#45;&gt;Node4</title>
<path fill="none" stroke="#191970" d="M2012.3721,-358.2724C2015.3234,-349.0586 2019.421,-334.7706 2021.0594,-322 2022.1904,-313.1834 2022.0988,-310.8279 2021.0594,-302 2014.0567,-242.5278 2017.7074,-209.3061 1966.0594,-179 1929.7781,-157.7108 1646.5104,-140.6668 1541.261,-135.0096"/>
<polygon fill="#191970" stroke="#191970" points="1541.236,-131.5034 1531.0642,-134.4673 1540.8642,-138.4935 1541.236,-131.5034"/>
</g>
<!-- Node20&#45;&gt;Node6 -->
<g id="edge28" class="edge">
<title>Node20&#45;&gt;Node6</title>
<path fill="none" stroke="#191970" d="M2020.9344,-358.3867C2042.3094,-339.9165 2085.0594,-297.1455 2085.0594,-250.5 2085.0594,-250.5 2085.0594,-250.5 2085.0594,-133 2085.0594,-65.228 1563.191,-22.3555 1426.5068,-12.2889"/>
<polygon fill="#191970" stroke="#191970" points="1426.4953,-8.7789 1416.2675,-11.5434 1425.987,-15.7604 1426.4953,-8.7789"/>
</g>
<!-- Node20&#45;&gt;Node7 -->
<g id="edge29" class="edge">
<title>Node20&#45;&gt;Node7</title>
<path fill="none" stroke="#191970" d="M2009.4087,-358.2568C2009.8076,-335.2342 2008.3018,-276.3055 1985.0594,-235 1978.3174,-223.0185 1967.2602,-212.5819 1957.0716,-204.6921"/>
<polygon fill="#191970" stroke="#191970" points="1958.9739,-201.7477 1948.8312,-198.6857 1954.8507,-207.4044 1958.9739,-201.7477"/>
</g>
<!-- Node20&#45;&gt;Node8 -->
<g id="edge30" class="edge">
<title>Node20&#45;&gt;Node8</title>
<path fill="none" stroke="#191970" d="M1992.79,-358.4359C1968.2323,-344.3482 1919.8988,-317.9662 1876.0594,-302 1736.7673,-251.2702 1565.7786,-216.4394 1474.5883,-199.9351"/>
<polygon fill="#191970" stroke="#191970" points="1475.1362,-196.4776 1464.6752,-198.1564 1473.8998,-203.3676 1475.1362,-196.4776"/>
</g>
<!-- Node21&#45;&gt;Node3 -->
<g id="edge36" class="edge">
<title>Node21&#45;&gt;Node3</title>
<path fill="none" stroke="#191970" d="M1432.1222,-364.9861C1506.9099,-360.3559 1637.3857,-349.2369 1756.8985,-321.8158"/>
<polygon fill="#191970" stroke="#191970" points="1758.0106,-325.1502 1766.9504,-319.4643 1756.416,-318.3342 1758.0106,-325.1502"/>
</g>
<!-- Node21&#45;&gt;Node6 -->
<g id="edge38" class="edge">
<title>Node21&#45;&gt;Node6</title>
<path fill="none" stroke="#191970" d="M1430.7344,-358.4819C1489.0341,-345.3831 1569.0594,-315.5547 1569.0594,-250.5 1569.0594,-250.5 1569.0594,-250.5 1569.0594,-133 1569.0594,-63.863 1476.5053,-30.2323 1426.0155,-17.0298"/>
<polygon fill="#191970" stroke="#191970" points="1426.7731,-13.6116 1416.2232,-14.5871 1425.0787,-20.4035 1426.7731,-13.6116"/>
</g>
<!-- Node21&#45;&gt;Node7 -->
<g id="edge41" class="edge">
<title>Node21&#45;&gt;Node7</title>
<path fill="none" stroke="#191970" d="M1431.8748,-358.4989C1474.7857,-350.9059 1533.263,-338.7517 1583.0594,-322 1603.0364,-315.2796 1606.5973,-310.0916 1626.0594,-302 1724.2615,-261.1712 1843.0601,-219.6119 1899.7806,-200.2362"/>
<polygon fill="#191970" stroke="#191970" points="1900.9706,-203.5284 1909.3081,-196.9911 1898.7136,-196.9022 1900.9706,-203.5284"/>
</g>
<!-- Node21&#45;&gt;Node8 -->
<g id="edge42" class="edge">
<title>Node21&#45;&gt;Node8</title>
<path fill="none" stroke="#191970" d="M1373.1562,-358.3762C1379.3195,-330.0883 1397.4663,-246.7987 1405.7941,-208.5767"/>
<polygon fill="#191970" stroke="#191970" points="1409.2431,-209.1873 1407.9522,-198.6714 1402.4035,-207.6971 1409.2431,-209.1873"/>
</g>
<!-- Node21&#45;&gt;Node19 -->
<g id="edge37" class="edge">
<title>Node21&#45;&gt;Node19</title>
<path fill="none" stroke="#191970" d="M1310.0247,-363.4546C1217.3669,-356.0129 1049.7346,-340.2209 1029.0594,-322 1004.3912,-300.2602 1010.0594,-283.3806 1010.0594,-250.5 1010.0594,-250.5 1010.0594,-250.5 1010.0594,-133 1010.0594,-96.4994 1010.0594,-53.906 1010.0594,-29.6285"/>
<polygon fill="#191970" stroke="#191970" points="1013.5595,-29.5691 1010.0594,-19.5691 1006.5595,-29.5692 1013.5595,-29.5691"/>
</g>
<!-- Node22 -->
<g id="node23" class="node">
<title>Node22</title>
<polygon fill="#ffffff" stroke="#bfbfbf" points="1635.0594,-302.5 1635.0594,-321.5 1699.0594,-321.5 1699.0594,-302.5 1635.0594,-302.5"/>
<text text-anchor="middle" x="1667.0594" y="-309.5" font-family="Helvetica,sans-Serif" font-size="10.00" fill="#000000">algorithm</text>
</g>
<!-- Node21&#45;&gt;Node22 -->
<g id="edge33" class="edge">
<title>Node21&#45;&gt;Node22</title>
<path fill="none" stroke="#191970" d="M1425.7773,-358.4531C1476.4912,-349.4812 1553.9924,-335.4564 1621.0594,-322 1622.3214,-321.7468 1623.6023,-321.4869 1624.8949,-321.222"/>
<polygon fill="#191970" stroke="#191970" points="1625.845,-324.5991 1634.9163,-319.1253 1624.4114,-317.7475 1625.845,-324.5991"/>
</g>
<!-- Node23 -->
<g id="node24" class="node">
<title>Node23</title>
<polygon fill="#ffffff" stroke="#bfbfbf" points="1399.5594,-302.5 1399.5594,-321.5 1464.5594,-321.5 1464.5594,-302.5 1399.5594,-302.5"/>
<text text-anchor="middle" x="1432.0594" y="-309.5" font-family="Helvetica,sans-Serif" font-size="10.00" fill="#000000">exception</text>
</g>
<!-- Node21&#45;&gt;Node23 -->
<g id="edge34" class="edge">
<title>Node21&#45;&gt;Node23</title>
<path fill="none" stroke="#191970" d="M1381.6848,-358.2455C1390.6067,-350.0549 1403.5474,-338.1749 1414.0786,-328.5069"/>
<polygon fill="#191970" stroke="#191970" points="1416.5561,-330.9837 1421.5557,-321.6427 1411.8222,-325.8271 1416.5561,-330.9837"/>
</g>
<!-- Node24 -->
<g id="node25" class="node">
<title>Node24</title>
<polygon fill="#ffffff" stroke="#bfbfbf" points="1172.5594,-302.5 1172.5594,-321.5 1255.5594,-321.5 1255.5594,-302.5 1172.5594,-302.5"/>
<text text-anchor="middle" x="1214.0594" y="-309.5" font-family="Helvetica,sans-Serif" font-size="10.00" fill="#000000">initializer_list</text>
</g>
<!-- Node21&#45;&gt;Node24 -->
<g id="edge35" class="edge">
<title>Node21&#45;&gt;Node24</title>
<path fill="none" stroke="#191970" d="M1344.0701,-358.3733C1318.1894,-349.1419 1278.9346,-335.1402 1250.3305,-324.9375"/>
<polygon fill="#191970" stroke="#191970" points="1251.2911,-321.5642 1240.6964,-321.5011 1248.9393,-328.1573 1251.2911,-321.5642"/>
</g>
<!-- Node25 -->
<g id="node26" class="node">
<title>Node25</title>
<polygon fill="#ffffff" stroke="#bfbfbf" points="1273.5594,-302.5 1273.5594,-321.5 1342.5594,-321.5 1342.5594,-302.5 1273.5594,-302.5"/>
<text text-anchor="middle" x="1308.0594" y="-309.5" font-family="Helvetica,sans-Serif" font-size="10.00" fill="#000000">type_traits</text>
</g>
<!-- Node21&#45;&gt;Node25 -->
<g id="edge39" class="edge">
<title>Node21&#45;&gt;Node25</title>
<path fill="none" stroke="#191970" d="M1360.0856,-358.2455C1350.8712,-350.0549 1337.5062,-338.1749 1326.6297,-328.5069"/>
<polygon fill="#191970" stroke="#191970" points="1328.7068,-325.6704 1318.9074,-321.6427 1324.0562,-330.9023 1328.7068,-325.6704"/>
</g>
<!-- Node21&#45;&gt;Node26 -->
<g id="edge40" class="edge">
<title>Node21&#45;&gt;Node26</title>
<path fill="none" stroke="#191970" d="M1309.9789,-360.707C1235.7388,-351.7967 1106.6637,-336.157 996.0594,-322 982.1796,-320.2234 966.8649,-318.1939 953.7126,-316.4295"/>
<polygon fill="#191970" stroke="#191970" points="954.0747,-312.9468 943.6971,-315.0813 953.1407,-319.8842 954.0747,-312.9468"/>
</g>
<!-- Node21&#45;&gt;Node27 -->
<g id="edge43" class="edge">
<title>Node21&#45;&gt;Node27</title>
<path fill="none" stroke="#191970" d="M1309.9527,-364.3903C1139.5237,-354.3228 660.1044,-326.0027 486.6791,-315.7581"/>
<polygon fill="#191970" stroke="#191970" points="486.8732,-312.2636 476.6842,-315.1677 486.4603,-319.2514 486.8732,-312.2636"/>
</g>
<!-- Node36 -->
<g id="node37" class="node">
<title>Node36</title>
<g id="a_node37"><a xlink:href="ValueParser_8hpp.html" target="_top" xlink:title="xml/ValueParser.hpp">
<polygon fill="#ffffff" stroke="#000000" points="1038.0594,-302.5 1038.0594,-321.5 1154.0594,-321.5 1154.0594,-302.5 1038.0594,-302.5"/>
<text text-anchor="middle" x="1096.0594" y="-309.5" font-family="Helvetica,sans-Serif" font-size="10.00" fill="#000000">xml/ValueParser.hpp</text>
</a>
</g>
</g>
<!-- Node21&#45;&gt;Node36 -->
<g id="edge62" class="edge">
<title>Node21&#45;&gt;Node36</title>
<path fill="none" stroke="#191970" d="M1324.0976,-358.4369C1276.638,-348.7724 1203.2728,-333.8326 1152.6371,-323.5213"/>
<polygon fill="#191970" stroke="#191970" points="1153.3247,-320.0895 1142.8274,-321.5237 1151.9279,-326.9488 1153.3247,-320.0895"/>
</g>
<!-- Node27&#45;&gt;Node10 -->
<g id="edge48" class="edge">
<title>Node27&#45;&gt;Node10</title>
<path fill="none" stroke="#191970" d="M411.3193,-302.4549C401.9283,-294.0029 389.4684,-280.7442 384.0594,-266 379.3141,-253.0652 380.5362,-248.3197 384.0594,-235 398.4999,-180.4055 435.8679,-124.9623 458.5986,-94.729"/>
<polygon fill="#191970" stroke="#191970" points="461.569,-96.6066 464.866,-86.5378 456.0096,-92.3529 461.569,-96.6066"/>
</g>
<!-- Node27&#45;&gt;Node12 -->
<g id="edge50" class="edge">
<title>Node27&#45;&gt;Node12</title>
<path fill="none" stroke="#191970" d="M369.2923,-304.6863C316.554,-296.7021 240.5921,-282.7888 216.0594,-266 152.8907,-222.7711 112.2744,-137.7802 95.24,-95.9437"/>
<polygon fill="#191970" stroke="#191970" points="98.445,-94.5309 91.508,-86.5229 91.9371,-97.109 98.445,-94.5309"/>
</g>
<!-- Node27&#45;&gt;Node13 -->
<g id="edge51" class="edge">
<title>Node27&#45;&gt;Node13</title>
<path fill="none" stroke="#191970" d="M369.164,-305.4274C320.9264,-298.3764 255.2372,-285.4911 238.0594,-266 196.2678,-218.5806 203.0412,-137.474 209.886,-96.605"/>
<polygon fill="#191970" stroke="#191970" points="213.3479,-97.1293 211.6881,-86.6653 206.4602,-95.8805 213.3479,-97.1293"/>
</g>
<!-- Node27&#45;&gt;Node14 -->
<g id="edge52" class="edge">
<title>Node27&#45;&gt;Node14</title>
<path fill="none" stroke="#191970" d="M409.4618,-302.2969C398.8428,-293.9377 384.6552,-280.8897 377.0594,-266 348.7746,-210.5549 345.0404,-135.619 345.2438,-96.9439"/>
<polygon fill="#191970" stroke="#191970" points="348.7485,-96.656 345.3994,-86.6044 341.7493,-96.5506 348.7485,-96.656"/>
</g>
<!-- Node27&#45;&gt;Node19 -->
<g id="edge46" class="edge">
<title>Node27&#45;&gt;Node19</title>
<path fill="none" stroke="#191970" d="M369.3118,-307.6502C255.8154,-296.9823 2.0594,-264.6699 2.0594,-189 2.0594,-189 2.0594,-189 2.0594,-133 2.0594,-97.7513 -6.1781,-78.3739 21.0594,-56 58.4199,-25.3106 794.2687,-13.0314 971.7741,-10.5094"/>
<polygon fill="#191970" stroke="#191970" points="971.9929,-14.0068 981.9429,-10.367 971.8948,-7.0075 971.9929,-14.0068"/>
</g>
<!-- Node28 -->
<g id="node29" class="node">
<title>Node28</title>
<polygon fill="#ffffff" stroke="#bfbfbf" points="247.0594,-241 247.0594,-260 299.0594,-260 299.0594,-241 247.0594,-241"/>
<text text-anchor="middle" x="273.0594" y="-248" font-family="Helvetica,sans-Serif" font-size="10.00" fill="#000000">cassert</text>
</g>
<!-- Node27&#45;&gt;Node28 -->
<g id="edge44" class="edge">
<title>Node27&#45;&gt;Node28</title>
<path fill="none" stroke="#191970" d="M399.6219,-302.3906C374.414,-292.0554 334.144,-275.5447 305.8117,-263.9284"/>
<polygon fill="#191970" stroke="#191970" points="306.9126,-260.5971 296.3323,-260.0419 304.2571,-267.0739 306.9126,-260.5971"/>
</g>
<!-- Node29 -->
<g id="node30" class="node">
<title>Node29</title>
<polygon fill="#ffffff" stroke="#bfbfbf" points="393.0594,-241 393.0594,-260 453.0594,-260 453.0594,-241 393.0594,-241"/>
<text text-anchor="middle" x="423.0594" y="-248" font-family="Helvetica,sans-Serif" font-size="10.00" fill="#000000">iostream</text>
</g>
<!-- Node27&#45;&gt;Node29 -->
<g id="edge45" class="edge">
<title>Node27&#45;&gt;Node29</title>
<path fill="none" stroke="#191970" d="M423.0594,-302.3906C423.0594,-293.8657 423.0594,-281.1392 423.0594,-270.4235"/>
<polygon fill="#191970" stroke="#191970" points="426.5595,-270.2448 423.0594,-260.2449 419.5595,-270.2449 426.5595,-270.2448"/>
</g>
<!-- Node30 -->
<g id="node31" class="node">
<title>Node30</title>
<polygon fill="#ffffff" stroke="#bfbfbf" points="471.5594,-241 471.5594,-260 618.5594,-260 618.5594,-241 471.5594,-241"/>
<text text-anchor="middle" x="545.0594" y="-248" font-family="Helvetica,sans-Serif" font-size="10.00" fill="#000000">boost/current_function.hpp</text>
</g>
<!-- Node27&#45;&gt;Node30 -->
<g id="edge47" class="edge">
<title>Node27&#45;&gt;Node30</title>
<path fill="none" stroke="#191970" d="M442.1219,-302.3906C462.1766,-292.2811 493.9527,-276.2628 516.8977,-264.6962"/>
<polygon fill="#191970" stroke="#191970" points="518.7766,-267.6687 526.1307,-260.0419 515.6256,-261.418 518.7766,-267.6687"/>
</g>
<!-- Node31 -->
<g id="node32" class="node">
<title>Node31</title>
<polygon fill="#ffffff" stroke="#bfbfbf" points="636.5594,-235.5 636.5594,-265.5 765.5594,-265.5 765.5594,-235.5 636.5594,-235.5"/>
<text text-anchor="start" x="644.5594" y="-253.5" font-family="Helvetica,sans-Serif" font-size="10.00" fill="#000000">boost/preprocessor</text>
<text text-anchor="middle" x="701.0594" y="-242.5" font-family="Helvetica,sans-Serif" font-size="10.00" fill="#000000">/facilities/is_empty.hpp</text>
</g>
<!-- Node27&#45;&gt;Node31 -->
<g id="edge49" class="edge">
<title>Node27&#45;&gt;Node31</title>
<path fill="none" stroke="#191970" d="M466.1918,-302.4581C508.8708,-293.0165 575.0597,-278.374 626.309,-267.0365"/>
<polygon fill="#191970" stroke="#191970" points="627.3404,-270.393 636.3483,-264.8156 625.8283,-263.5583 627.3404,-270.393"/>
</g>
<!-- Node32 -->
<g id="node33" class="node">
<title>Node32</title>
<g id="a_node33"><a xlink:href="Parallel_8hpp.html" target="_top" xlink:title="Parallel.hpp">
<polygon fill="#ffffff" stroke="#000000" points="1225.0594,-241 1225.0594,-260 1299.0594,-260 1299.0594,-241 1225.0594,-241"/>
<text text-anchor="middle" x="1262.0594" y="-248" font-family="Helvetica,sans-Serif" font-size="10.00" fill="#000000">Parallel.hpp</text>
</a>
</g>
</g>
<!-- Node27&#45;&gt;Node32 -->
<g id="edge53" class="edge">
<title>Node27&#45;&gt;Node32</title>
<path fill="none" stroke="#191970" d="M476.8189,-308.0593C630.3053,-296.8086 1068.8283,-264.6641 1214.4248,-253.9917"/>
<polygon fill="#191970" stroke="#191970" points="1215.0787,-257.4532 1224.7961,-253.2315 1214.5669,-250.472 1215.0787,-257.4532"/>
</g>
<!-- Node35 -->
<g id="node36" class="node">
<title>Node35</title>
<g id="a_node36"><a xlink:href="stacktrace_8hpp.html" target="_top" xlink:title="stacktrace.hpp">
<polygon fill="#ffffff" stroke="#000000" points="839.5594,-123.5 839.5594,-142.5 928.5594,-142.5 928.5594,-123.5 839.5594,-123.5"/>
<text text-anchor="middle" x="884.0594" y="-130.5" font-family="Helvetica,sans-Serif" font-size="10.00" fill="#000000">stacktrace.hpp</text>
</a>
</g>
</g>
<!-- Node27&#45;&gt;Node35 -->
<g id="edge60" class="edge">
<title>Node27&#45;&gt;Node35</title>
<path fill="none" stroke="#191970" d="M476.5622,-309.7483C561.8507,-305.3751 724.1058,-293.6175 774.0594,-266 822.5933,-239.1673 858.445,-181.6171 874.5846,-151.7892"/>
<polygon fill="#191970" stroke="#191970" points="877.7434,-153.3019 879.2921,-142.8209 871.5454,-150.0485 877.7434,-153.3019"/>
</g>
<!-- Node32&#45;&gt;Node4 -->
<g id="edge55" class="edge">
<title>Node32&#45;&gt;Node4</title>
<path fill="none" stroke="#191970" d="M1299.4893,-245.4116C1352.7867,-237.5045 1446.9895,-220.8737 1473.0594,-199 1486.9647,-187.3329 1494.4222,-167.7023 1498.2746,-152.8759"/>
<polygon fill="#191970" stroke="#191970" points="1501.7867,-153.2101 1500.565,-142.686 1494.9571,-151.675 1501.7867,-153.2101"/>
</g>
<!-- Node32&#45;&gt;Node6 -->
<g id="edge56" class="edge">
<title>Node32&#45;&gt;Node6</title>
<path fill="none" stroke="#191970" d="M1267.3974,-240.7742C1287.3005,-204.5114 1357.3964,-76.7988 1383.8506,-28.6"/>
<polygon fill="#191970" stroke="#191970" points="1387.0562,-30.0337 1388.7995,-19.5833 1380.9197,-26.6656 1387.0562,-30.0337"/>
</g>
<!-- Node32&#45;&gt;Node7 -->
<g id="edge57" class="edge">
<title>Node32&#45;&gt;Node7</title>
<path fill="none" stroke="#191970" d="M1299.091,-247.1059C1417.3974,-236.2626 1785.1344,-202.558 1899.0601,-192.1162"/>
<polygon fill="#191970" stroke="#191970" points="1899.6372,-195.578 1909.276,-191.1798 1898.9982,-188.6073 1899.6372,-195.578"/>
</g>
<!-- Node32&#45;&gt;Node8 -->
<g id="edge58" class="edge">
<title>Node32&#45;&gt;Node8</title>
<path fill="none" stroke="#191970" d="M1285.1844,-240.8906C1310.0561,-230.5554 1349.7891,-214.0447 1377.7437,-202.4284"/>
<polygon fill="#191970" stroke="#191970" points="1379.2054,-205.6113 1387.0967,-198.5419 1376.5192,-199.1472 1379.2054,-205.6113"/>
</g>
<!-- Node33 -->
<g id="node34" class="node">
<title>Node33</title>
<polygon fill="#ffffff" stroke="#bfbfbf" points="1211.5594,-179.5 1211.5594,-198.5 1260.5594,-198.5 1260.5594,-179.5 1211.5594,-179.5"/>
<text text-anchor="middle" x="1236.0594" y="-186.5" font-family="Helvetica,sans-Serif" font-size="10.00" fill="#000000">iosfwd</text>
</g>
<!-- Node32&#45;&gt;Node33 -->
<g id="edge54" class="edge">
<title>Node32&#45;&gt;Node33</title>
<path fill="none" stroke="#191970" d="M1257.9969,-240.8906C1254.317,-232.1862 1248.7852,-219.1015 1244.1973,-208.2494"/>
<polygon fill="#191970" stroke="#191970" points="1247.2969,-206.5927 1240.1791,-198.7449 1240.8494,-209.3185 1247.2969,-206.5927"/>
</g>
<!-- Node34 -->
<g id="node35" class="node">
<title>Node34</title>
<polygon fill="#ffffff" stroke="#bfbfbf" points="1149.0594,-179.5 1149.0594,-198.5 1193.0594,-198.5 1193.0594,-179.5 1149.0594,-179.5"/>
<text text-anchor="middle" x="1171.0594" y="-186.5" font-family="Helvetica,sans-Serif" font-size="10.00" fill="#000000">mpi.h</text>
</g>
<!-- Node32&#45;&gt;Node34 -->
<g id="edge59" class="edge">
<title>Node32&#45;&gt;Node34</title>
<path fill="none" stroke="#191970" d="M1247.8406,-240.8906C1233.416,-231.1421 1210.8617,-215.8994 1193.9234,-204.4521"/>
<polygon fill="#191970" stroke="#191970" points="1195.4234,-201.2415 1185.1783,-198.5419 1191.5038,-207.0412 1195.4234,-201.2415"/>
</g>
<!-- Node35&#45;&gt;Node6 -->
<g id="edge61" class="edge">
<title>Node35&#45;&gt;Node6</title>
<path fill="none" stroke="#191970" d="M928.7022,-131.1794C1021.5057,-126.8879 1232.0994,-114.3706 1298.0594,-87 1315.1955,-79.8892 1353.2636,-46.9884 1375.9763,-26.5624"/>
<polygon fill="#191970" stroke="#191970" points="1378.5208,-28.98 1383.5822,-19.6723 1373.8212,-23.7921 1378.5208,-28.98"/>
</g>
<!-- Node36&#45;&gt;Node2 -->
<g id="edge63" class="edge">
<title>Node36&#45;&gt;Node2</title>
<path fill="none" stroke="#191970" d="M1072.7781,-302.3906C1047.7383,-292.0554 1007.7368,-275.5447 979.5933,-263.9284"/>
<polygon fill="#191970" stroke="#191970" points="980.7561,-260.622 970.1771,-260.0419 978.0853,-267.0925 980.7561,-260.622"/>
</g>
<!-- Node36&#45;&gt;Node6 -->
<g id="edge64" class="edge">
<title>Node36&#45;&gt;Node6</title>
<path fill="none" stroke="#191970" d="M1153.459,-302.4547C1212.1495,-292.2372 1296.3454,-276.1329 1308.0594,-266 1324.1206,-252.1066 1368.7828,-107.2877 1375.0594,-87 1381.0193,-67.7357 1386.3784,-45.3125 1389.8735,-29.6495"/>
<polygon fill="#191970" stroke="#191970" points="1393.3581,-30.0974 1392.071,-19.581 1386.5191,-28.6047 1393.3581,-30.0974"/>
</g>
<!-- Node36&#45;&gt;Node18 -->
<g id="edge65" class="edge">
<title>Node36&#45;&gt;Node18</title>
<path fill="none" stroke="#191970" d="M1095.5336,-302.2742C1093.5899,-266.3148 1086.7853,-140.4298 1084.1311,-91.3266"/>
<polygon fill="#191970" stroke="#191970" points="1087.6121,-90.8798 1083.5774,-81.0833 1080.6223,-91.2576 1087.6121,-90.8798"/>
</g>
<!-- Node38&#45;&gt;Node3 -->
<g id="edge73" class="edge">
<title>Node38&#45;&gt;Node3</title>
<path fill="none" stroke="#191970" d="M1763.7624,-358.2455C1767.4017,-350.6973 1772.5518,-340.0158 1776.9856,-330.8197"/>
<polygon fill="#191970" stroke="#191970" points="1780.2199,-332.1704 1781.4102,-321.6427 1773.9145,-329.1303 1780.2199,-332.1704"/>
</g>
<!-- Node38&#45;&gt;Node5 -->
<g id="edge74" class="edge">
<title>Node38&#45;&gt;Node5</title>
<path fill="none" stroke="#191970" d="M1754.5305,-358.2455C1751.026,-350.6973 1746.0667,-340.0158 1741.7971,-330.8197"/>
<polygon fill="#191970" stroke="#191970" points="1744.922,-329.2389 1737.5363,-321.6427 1738.573,-332.1867 1744.922,-329.2389"/>
</g>
<!-- Node38&#45;&gt;Node7 -->
<g id="edge75" class="edge">
<title>Node38&#45;&gt;Node7</title>
<path fill="none" stroke="#191970" d="M1806.5397,-358.4569C1829.9295,-351.6716 1857.1043,-340.3893 1876.0594,-322 1908.5313,-290.4971 1923.5251,-237.4966 1929.5618,-208.8359"/>
<polygon fill="#191970" stroke="#191970" points="1933.0369,-209.3009 1931.5123,-198.8163 1926.1659,-207.9633 1933.0369,-209.3009"/>
</g>
<!-- Node38&#45;&gt;Node22 -->
<g id="edge71" class="edge">
<title>Node38&#45;&gt;Node22</title>
<path fill="none" stroke="#191970" d="M1743.0342,-358.2455C1728.9186,-349.6534 1708.133,-337.0014 1691.8695,-327.1018"/>
<polygon fill="#191970" stroke="#191970" points="1693.2627,-323.8525 1682.9009,-321.6427 1689.6231,-329.8319 1693.2627,-323.8525"/>
</g>
<!-- Node39 -->
<g id="node40" class="node">
<title>Node39</title>
<polygon fill="#ffffff" stroke="#bfbfbf" points="1823.0594,-302.5 1823.0594,-321.5 1867.0594,-321.5 1867.0594,-302.5 1823.0594,-302.5"/>
<text text-anchor="middle" x="1845.0594" y="-309.5" font-family="Helvetica,sans-Serif" font-size="10.00" fill="#000000">limits</text>
</g>
<!-- Node38&#45;&gt;Node39 -->
<g id="edge72" class="edge">
<title>Node38&#45;&gt;Node39</title>
<path fill="none" stroke="#191970" d="M1774.0394,-358.2455C1787.2345,-349.6534 1806.6644,-337.0014 1821.8673,-327.1018"/>
<polygon fill="#191970" stroke="#191970" points="1823.7808,-330.0325 1830.251,-321.6427 1819.9611,-324.1665 1823.7808,-330.0325"/>
</g>
</g>
</svg>
